<svg xmlns="http://www.w3.org/2000/svg" viewBox="0 0 4995 1185">
  <g fill="#ffffff" transform="translate(0 935) scale(1 -1)">
    <path transform="translate(0 0)" d="M26 0Q17 0 11.0 6.5Q5 13 5 22Q5 26 6 29L234 669Q238 680 248.0 690.0Q258 700 276 700H459Q478 700 488.0 690.0Q498 680 501 669L730 29Q731 26 731 22Q731 13 724.5 6.5Q718 0 709 0H555Q538 0 530.0 8.0Q522 16 519 23L488 107H247L216 23Q213 16 205.5 8.0Q198 0 180 0ZM293 276H442L367 501Z"/><path transform="translate(735 0)" d="M78 0Q67 0 59.5 7.5Q52 15 52 26V684Q52 695 59.5 702.5Q67 710 78 710H227Q237 710 245.0 702.5Q253 695 253 684V26Q253 15 245.0 7.5Q237 0 227 0Z"/><path transform="translate(1040 0)" d="M78 0Q67 0 59.5 7.5Q52 15 52 26V684Q52 695 59.5 702.5Q67 710 78 710H227Q237 710 245.0 702.5Q253 695 253 684V26Q253 15 245.0 7.5Q237 0 227 0Z"/><path transform="translate(1545 0)" d="M367 -10Q268 -10 197.0 20.5Q126 51 86.0 112.0Q46 173 43 263Q42 305 42.0 353.5Q42 402 43 445Q46 532 86.5 591.0Q127 650 199.0 680.0Q271 710 367 710Q444 710 504.0 692.0Q564 674 606.5 643.0Q649 612 671.5 573.5Q694 535 695 494Q695 485 688.5 479.0Q682 473 673 473H489Q479 473 473.0 476.0Q467 479 462 485Q457 495 446.5 508.0Q436 521 417.0 530.5Q398 540 367 540Q320 540 294.0 516.0Q268 492 266 440Q263 356 266 268Q268 211 295.5 185.5Q323 160 370 160Q401 160 425.5 170.0Q450 180 464.0 201.5Q478 223 478 257V267H407Q396 267 388.5 275.0Q381 283 381 293V386Q381 397 388.5 404.5Q396 412 407 412H670Q681 412 689.0 404.5Q697 397 697 386V264Q697 176 655.0 115.0Q613 54 539.0 22.0Q465 -10 367 -10Z"/><path transform="translate(2281 0)" d="M213 -10Q158 -10 114.5 11.0Q71 32 46.5 67.5Q22 103 22 147Q22 219 80.5 260.5Q139 302 237 318L353 336V343Q353 374 343.0 389.5Q333 405 303 405Q282 405 269.0 397.0Q256 389 245 374Q235 363 219 363H78Q68 363 61.5 369.0Q55 375 56 385Q57 403 71.0 427.5Q85 452 114.5 475.5Q144 499 191.0 514.5Q238 530 304 530Q371 530 419.0 515.0Q467 500 498.0 473.0Q529 446 544.0 407.5Q559 369 559 322V26Q559 15 551.5 7.5Q544 0 533 0H388Q377 0 369.0 7.5Q361 15 361 26V58Q348 38 326.5 23.0Q305 8 276.5 -1.0Q248 -10 213 -10ZM271 121Q296 121 315.0 131.5Q334 142 344.5 164.0Q355 186 355 219V226L283 212Q246 205 231.0 192.0Q216 179 216 162Q216 150 223.0 141.0Q230 132 242.5 126.5Q255 121 271 121Z"/><path transform="translate(2887 0)" d="M78 0Q67 0 59.5 7.5Q52 15 52 26V494Q52 505 59.5 512.5Q67 520 78 520H215Q226 520 233.5 512.5Q241 505 241 494V461Q260 485 296.0 506.5Q332 528 381 530Q498 533 539 446Q562 482 604.5 506.0Q647 530 695 530Q747 530 788.5 506.5Q830 483 855.0 434.5Q880 386 880 308V26Q880 15 872.5 7.5Q865 0 854 0H708Q697 0 689.5 7.5Q682 15 682 26V302Q682 328 674.0 343.5Q666 359 653.5 366.5Q641 374 624 374Q608 374 595.0 366.5Q582 359 574.5 343.5Q567 328 567 302V26Q567 15 559.5 7.5Q552 0 541 0H395Q384 0 376.5 7.5Q369 15 369 26V302Q369 328 361.0 343.5Q353 359 340.5 366.5Q328 374 311 374Q295 374 282.0 366.0Q269 358 261.0 343.0Q253 328 253 302V26Q253 15 245.5 7.5Q238 0 227 0Z"/><path transform="translate(3814 0)" d="M307 -10Q182 -10 108.5 54.5Q35 119 33 252V272Q36 355 69.5 412.5Q103 470 163.5 500.0Q224 530 306 530Q398 530 458.5 493.5Q519 457 549.0 396.5Q579 336 579 261V233Q579 223 571.0 215.0Q563 207 552 207H244V201Q244 177 250.5 158.5Q257 140 271.0 129.5Q285 119 305 119Q318 119 327.0 123.0Q336 127 343.0 133.5Q350 140 355 146Q364 155 369.5 157.5Q375 160 387 160H544Q553 160 559.5 154.0Q566 148 565 139Q564 121 548.0 95.5Q532 70 500.5 46.0Q469 22 420.0 6.0Q371 -10 307 -10ZM244 319H368V321Q368 348 361.0 367.0Q354 386 340.0 395.5Q326 405 306.0 405.0Q286 405 272.0 395.5Q258 386 251.0 367.0Q244 348 244 321Z"/><path transform="translate(4423 0)" d="M281 -10Q213 -10 165.0 4.5Q117 19 86.5 41.0Q56 63 42.0 86.5Q28 110 27 128Q26 139 33.5 146.5Q41 154 50 154H195Q196 154 198.0 153.5Q200 153 202 151Q215 147 226.5 138.0Q238 129 252.5 122.0Q267 115 287 115Q304 115 317.5 122.5Q331 130 331 144Q331 156 323.5 165.0Q316 174 292.0 182.5Q268 191 215 201Q166 211 125.5 230.5Q85 250 61.5 283.0Q38 316 38 364Q38 405 65.0 443.0Q92 481 145.5 505.5Q199 530 277 530Q336 530 381.5 516.0Q427 502 458.5 481.0Q490 460 506.5 436.0Q523 412 524 393Q525 382 518.0 374.5Q511 367 502 367H371Q368 367 364.5 367.5Q361 368 359 370Q345 373 333.5 381.5Q322 390 309.0 397.5Q296 405 276 405Q259 405 248.5 397.0Q238 389 238 376Q238 365 245.0 356.0Q252 347 277.0 339.0Q302 331 356 322Q426 311 468.0 285.5Q510 260 528.0 226.0Q546 192 546 158Q546 107 515.5 69.0Q485 31 425.5 10.5Q366 -10 281 -10Z"/>
  </g>
</svg>
