<svg xmlns="http://www.w3.org/2000/svg" viewBox="0 0 5963 1185">
  <g fill="#ffffff" transform="translate(0 935) scale(1 -1)">
    <path transform="translate(0 0)" d="M88 0Q78 0 70.0 7.5Q62 15 62 26V674Q62 685 70.0 692.5Q78 700 88 700H254Q265 700 273.0 692.5Q281 685 281 674V178H570Q581 178 589.0 170.5Q597 163 597 152V26Q597 15 589.0 7.5Q581 0 570 0Z"/><path transform="translate(611 0)" d="M213 -10Q158 -10 114.5 11.0Q71 32 46.5 67.5Q22 103 22 147Q22 219 80.5 260.5Q139 302 237 318L353 336V343Q353 374 343.0 389.5Q333 405 303 405Q282 405 269.0 397.0Q256 389 245 374Q235 363 219 363H78Q68 363 61.5 369.0Q55 375 56 385Q57 403 71.0 427.5Q85 452 114.5 475.5Q144 499 191.0 514.5Q238 530 304 530Q371 530 419.0 515.0Q467 500 498.0 473.0Q529 446 544.0 407.5Q559 369 559 322V26Q559 15 551.5 7.5Q544 0 533 0H388Q377 0 369.0 7.5Q361 15 361 26V58Q348 38 326.5 23.0Q305 8 276.5 -1.0Q248 -10 213 -10ZM271 121Q296 121 315.0 131.5Q334 142 344.5 164.0Q355 186 355 219V226L283 212Q246 205 231.0 192.0Q216 179 216 162Q216 150 223.0 141.0Q230 132 242.5 126.5Q255 121 271 121Z"/><path transform="translate(1217 0)" d="M281 -10Q213 -10 165.0 4.5Q117 19 86.5 41.0Q56 63 42.0 86.5Q28 110 27 128Q26 139 33.5 146.5Q41 154 50 154H195Q196 154 198.0 153.5Q200 153 202 151Q215 147 226.5 138.0Q238 129 252.5 122.0Q267 115 287 115Q304 115 317.5 122.5Q331 130 331 144Q331 156 323.5 165.0Q316 174 292.0 182.5Q268 191 215 201Q166 211 125.5 230.5Q85 250 61.5 283.0Q38 316 38 364Q38 405 65.0 443.0Q92 481 145.5 505.5Q199 530 277 530Q336 530 381.5 516.0Q427 502 458.5 481.0Q490 460 506.5 436.0Q523 412 524 393Q525 382 518.0 374.5Q511 367 502 367H371Q368 367 364.5 367.5Q361 368 359 370Q345 373 333.5 381.5Q322 390 309.0 397.5Q296 405 276 405Q259 405 248.5 397.0Q238 389 238 376Q238 365 245.0 356.0Q252 347 277.0 339.0Q302 331 356 322Q426 311 468.0 285.5Q510 260 528.0 226.0Q546 192 546 158Q546 107 515.5 69.0Q485 31 425.5 10.5Q366 -10 281 -10Z"/><path transform="translate(1789 0)" d="M346 0Q278 0 226.5 20.0Q175 40 146.5 85.5Q118 131 118 206V367H39Q28 367 20.5 374.5Q13 382 13 393V494Q13 505 20.5 512.5Q28 520 39 520H118V684Q118 695 125.5 702.5Q133 710 144 710H289Q300 710 307.5 702.5Q315 695 315 684V520H441Q452 520 459.5 512.5Q467 505 467 494V393Q467 382 459.5 374.5Q452 367 441 367H315V223Q315 194 327.0 177.5Q339 161 365 161H449Q460 161 467.5 153.5Q475 146 475 135V26Q475 15 467.5 7.5Q460 0 449 0Z"/><path transform="translate(2489 0)" d="M88 0Q78 0 70.0 7.5Q62 15 62 26V674Q62 685 70.0 692.5Q78 700 88 700H380Q467 700 531.5 674.0Q596 648 632.0 595.0Q668 542 668 462Q668 382 632.0 330.5Q596 279 531.5 255.0Q467 231 380 231H285V26Q285 15 277.5 7.5Q270 0 259 0ZM281 392H375Q404 392 424.5 409.5Q445 427 445 464Q445 493 429.0 515.5Q413 538 375 538H281Z"/><path transform="translate(3180 0)" d="M78 0Q67 0 59.5 7.5Q52 15 52 26V684Q52 695 59.5 702.5Q67 710 78 710H227Q237 710 245.0 702.5Q253 695 253 684V26Q253 15 245.0 7.5Q237 0 227 0Z"/><path transform="translate(3485 0)" d="M213 -10Q158 -10 114.5 11.0Q71 32 46.5 67.5Q22 103 22 147Q22 219 80.5 260.5Q139 302 237 318L353 336V343Q353 374 343.0 389.5Q333 405 303 405Q282 405 269.0 397.0Q256 389 245 374Q235 363 219 363H78Q68 363 61.5 369.0Q55 375 56 385Q57 403 71.0 427.5Q85 452 114.5 475.5Q144 499 191.0 514.5Q238 530 304 530Q371 530 419.0 515.0Q467 500 498.0 473.0Q529 446 544.0 407.5Q559 369 559 322V26Q559 15 551.5 7.5Q544 0 533 0H388Q377 0 369.0 7.5Q361 15 361 26V58Q348 38 326.5 23.0Q305 8 276.5 -1.0Q248 -10 213 -10ZM271 121Q296 121 315.0 131.5Q334 142 344.5 164.0Q355 186 355 219V226L283 212Q246 205 231.0 192.0Q216 179 216 162Q216 150 223.0 141.0Q230 132 242.5 126.5Q255 121 271 121Z"/><path transform="translate(4091 0)" d="M152 -190Q143 -190 136.5 -184.0Q130 -178 130 -169Q130 -167 130.5 -164.0Q131 -161 132 -157L212 32L19 487Q17 493 17 497Q19 506 25.5 513.0Q32 520 41 520H182Q197 520 203.5 512.5Q210 505 213 498L311 238L412 498Q416 506 423.0 513.0Q430 520 444 520H584Q592 520 599.0 513.5Q606 507 606 499Q606 493 604 487L322 -168Q318 -176 310.5 -183.0Q303 -190 289 -190Z"/><path transform="translate(4708 0)" d="M307 -10Q182 -10 108.5 54.5Q35 119 33 252V272Q36 355 69.5 412.5Q103 470 163.5 500.0Q224 530 306 530Q398 530 458.5 493.5Q519 457 549.0 396.5Q579 336 579 261V233Q579 223 571.0 215.0Q563 207 552 207H244V201Q244 177 250.5 158.5Q257 140 271.0 129.5Q285 119 305 119Q318 119 327.0 123.0Q336 127 343.0 133.5Q350 140 355 146Q364 155 369.5 157.5Q375 160 387 160H544Q553 160 559.5 154.0Q566 148 565 139Q564 121 548.0 95.5Q532 70 500.5 46.0Q469 22 420.0 6.0Q371 -10 307 -10ZM244 319H368V321Q368 348 361.0 367.0Q354 386 340.0 395.5Q326 405 306.0 405.0Q286 405 272.0 395.5Q258 386 251.0 367.0Q244 348 244 321Z"/><path transform="translate(5317 0)" d="M249 -10Q203 -10 165.0 4.0Q127 18 99.0 47.0Q71 76 55.0 120.0Q39 164 36 223Q35 245 35.0 261.0Q35 277 36 298Q38 354 54.0 397.5Q70 441 98.0 470.0Q126 499 164.5 514.5Q203 530 249 530Q294 530 329.0 515.5Q364 501 388 477V684Q388 695 396.0 702.5Q404 710 414 710H568Q579 710 586.5 702.5Q594 695 594 684V26Q594 15 586.5 7.5Q579 0 568 0H427Q416 0 408.0 7.5Q400 15 400 26V54Q376 25 339.5 7.5Q303 -10 249 -10ZM317 146Q343 146 358.5 157.0Q374 168 380.5 186.0Q387 204 388 226Q390 248 390.0 264.5Q390 281 388 301Q387 322 379.5 338.0Q372 354 357.0 364.0Q342 374 317 374Q292 374 277.0 363.5Q262 353 255.5 334.5Q249 316 247 292Q244 260 247 228Q249 204 255.5 185.5Q262 167 277.0 156.5Q292 146 317 146Z"/>
  </g>
</svg>
