<svg xmlns="http://www.w3.org/2000/svg" xmlns:xlink="http://www.w3.org/1999/xlink" xmlns:inkscape="http://www.inkscape.org/namespaces/inkscape" xmlns:sodipodi="http://sodipodi.sourceforge.net/DTD/sodipodi-0.dtd" xmlns:i="http://ns.adobe.com/AdobeIllustrator/10.0/" viewBox="0 0 440 200" preserveAspectRatio="xMidYMid meet">
  <defs>
    <linearGradient id="capBase" x1="0" y1="0" x2="0" y2="1">
      <stop offset="0" stop-color="#1d2734"/><stop offset="0.5" stop-color="#121925"/><stop offset="1" stop-color="#0a0e15"/>
    </linearGradient>
  </defs>
  <rect x="26.0" y="20.0" width="400" height="176" fill="#000000" fill-opacity="0.05"/>
  <rect x="24.0" y="18.0" width="400" height="176" fill="#000000" fill-opacity="0.11"/>
  <rect x="22.5" y="16.0" width="400" height="176" fill="#000000" fill-opacity="0.2"/>
  <rect x="20" y="12" width="400" height="176" fill="url(#capBase)"/>
  <g transform="translate(80.600 55.221) scale(0.07558)"><g fill="#ffffff" transform="translate(0 935) scale(1 -1)">
    <path transform="translate(0 0)" d="M88 0Q78 0 70.0 7.5Q62 15 62 26V674Q62 685 70.0 692.5Q78 700 88 700H373Q509 700 586.5 638.0Q664 576 664 465Q664 395 632.0 346.0Q600 297 548 269L678 33Q681 27 681 22Q681 13 675.0 6.5Q669 0 660 0H491Q472 0 462.0 9.5Q452 19 449 27L349 233H277V26Q277 15 269.5 7.5Q262 0 251 0ZM277 398H372Q407 398 424.0 417.5Q441 437 441 466Q441 496 424.5 517.0Q408 538 372 538H277Z"/><path transform="translate(707 0)" d="M307 -10Q182 -10 108.5 54.5Q35 119 33 252V272Q36 355 69.5 412.5Q103 470 163.5 500.0Q224 530 306 530Q398 530 458.5 493.5Q519 457 549.0 396.5Q579 336 579 261V233Q579 223 571.0 215.0Q563 207 552 207H244V201Q244 177 250.5 158.5Q257 140 271.0 129.5Q285 119 305 119Q318 119 327.0 123.0Q336 127 343.0 133.5Q350 140 355 146Q364 155 369.5 157.5Q375 160 387 160H544Q553 160 559.5 154.0Q566 148 565 139Q564 121 548.0 95.5Q532 70 500.5 46.0Q469 22 420.0 6.0Q371 -10 307 -10ZM244 319H368V321Q368 348 361.0 367.0Q354 386 340.0 395.5Q326 405 306.0 405.0Q286 405 272.0 395.5Q258 386 251.0 367.0Q244 348 244 321Z"/><path transform="translate(1316 0)" d="M304 -10Q229 -10 169.5 16.5Q110 43 74.5 94.5Q39 146 35 219Q34 235 34.0 259.0Q34 283 35 300Q39 374 74.0 425.5Q109 477 169.0 503.5Q229 530 304 530Q378 530 430.5 509.0Q483 488 515.5 457.0Q548 426 564.0 395.0Q580 364 581 343Q582 332 573.5 324.5Q565 317 555 317H394Q383 317 377.0 322.0Q371 327 366 337Q356 359 343.0 369.5Q330 380 308 380Q277 380 262.0 358.5Q247 337 246 295Q244 254 246 224Q248 181 262.5 160.5Q277 140 308 140Q333 140 345.0 150.5Q357 161 366 183Q370 193 376.5 198.5Q383 204 394 204H555Q565 204 573.5 196.0Q582 188 581 177Q580 163 570.5 139.5Q561 116 541.5 90.5Q522 65 490.0 42.0Q458 19 412.0 4.5Q366 -10 304 -10Z"/><path transform="translate(1922 0)" d="M307 -10Q182 -10 108.5 54.5Q35 119 33 252V272Q36 355 69.5 412.5Q103 470 163.5 500.0Q224 530 306 530Q398 530 458.5 493.5Q519 457 549.0 396.5Q579 336 579 261V233Q579 223 571.0 215.0Q563 207 552 207H244V201Q244 177 250.5 158.5Q257 140 271.0 129.5Q285 119 305 119Q318 119 327.0 123.0Q336 127 343.0 133.5Q350 140 355 146Q364 155 369.5 157.5Q375 160 387 160H544Q553 160 559.5 154.0Q566 148 565 139Q564 121 548.0 95.5Q532 70 500.5 46.0Q469 22 420.0 6.0Q371 -10 307 -10ZM244 319H368V321Q368 348 361.0 367.0Q354 386 340.0 395.5Q326 405 306.0 405.0Q286 405 272.0 395.5Q258 386 251.0 367.0Q244 348 244 321Z"/><path transform="translate(2531 0)" d="M78 0Q67 0 59.5 7.5Q52 15 52 26V494Q52 505 59.5 512.5Q67 520 78 520H223Q234 520 241.5 512.5Q249 505 249 494V458Q275 488 318.0 509.0Q361 530 416 530Q470 530 514.0 505.0Q558 480 585.0 430.0Q612 380 612 304V26Q612 15 604.0 7.5Q596 0 585 0H427Q416 0 408.5 7.5Q401 15 401 26V297Q401 334 383.0 354.0Q365 374 332 374Q299 374 280.0 354.0Q261 334 261 297V26Q261 15 253.5 7.5Q246 0 235 0Z"/><path transform="translate(3189 0)" d="M346 0Q278 0 226.5 20.0Q175 40 146.5 85.5Q118 131 118 206V367H39Q28 367 20.5 374.5Q13 382 13 393V494Q13 505 20.5 512.5Q28 520 39 520H118V684Q118 695 125.5 702.5Q133 710 144 710H289Q300 710 307.5 702.5Q315 695 315 684V520H441Q452 520 459.5 512.5Q467 505 467 494V393Q467 382 459.5 374.5Q452 367 441 367H315V223Q315 194 327.0 177.5Q339 161 365 161H449Q460 161 467.5 153.5Q475 146 475 135V26Q475 15 467.5 7.5Q460 0 449 0Z"/>
  </g></g>
</svg>
