<svg xmlns="http://www.w3.org/2000/svg" xmlns:xlink="http://www.w3.org/1999/xlink" xmlns:inkscape="http://www.inkscape.org/namespaces/inkscape" xmlns:sodipodi="http://sodipodi.sourceforge.net/DTD/sodipodi-0.dtd" xmlns:i="http://ns.adobe.com/AdobeIllustrator/10.0/" viewBox="0 0 440 200" preserveAspectRatio="xMidYMid meet">
  <defs>
    <linearGradient id="base" x1="0" y1="0" x2="0" y2="1">
      <stop offset="0" stop-color="#1d2734"/><stop offset="0.5" stop-color="#121925"/><stop offset="1" stop-color="#0a0e15"/>
    </linearGradient>
    <linearGradient id="bloom" x1="0" y1="0" x2="1" y2="1">
      <stop offset="0" stop-color="#B92E34" stop-opacity="0.50"/>
      <stop offset="0.6" stop-color="#B92E34" stop-opacity="0"/>
    </linearGradient>
  </defs>
  <rect width="440" height="200" fill="url(#base)"/>
  <rect width="440" height="200" fill="url(#bloom)"/>
  <g transform="translate(154.359 36.000) scale(0.26262)"><defs
   id="defs13">
	
	
</defs><sodipodi:namedview
   id="namedview11"
   pagecolor="#ffffff"
   bordercolor="#666666"
   borderopacity="1.0"
   inkscape:pageshadow="2"
   inkscape:pageopacity="0.0"
   inkscape:pagecheckerboard="0"
   showgrid="false"
   inkscape:zoom="1.3212967"
   inkscape:cx="250.13307"
   inkscape:cy="243.32158"
   inkscape:window-width="3840"
   inkscape:window-height="2065"
   inkscape:window-x="0"
   inkscape:window-y="0"
   inkscape:window-maximized="1"
   inkscape:current-layer="Calque_1" />
<style
   type="text/css"
   id="style2">
	.st0{fill:#4A0000;}
	.st1{fill:#FFFFFF;}
</style>
<g
   id="g2126"><rect
     class="st0"
     width="499.89999"
     height="487.39999"
     id="rect4"
     x="0"
     y="0"
     style="fill:#4a0000;fill-opacity:1" /><path
     class="st1"
     d="m 269.2,138.7 c -22.5,27.5 -35.8,61.8 -48.7,95 -26.1,67.3 -43.6,105.8 -99.7,105.8 V 402 c 46.4,0 84.1,-17.2 112,-51.2 17.9,-21.9 30.3,-49.3 40.9,-75.8 h 74.1 V 212.5 H 299 C 317.9,171.9 338.2,150 381.1,150 V 87.5 c -46.3,0 -84,17.2 -111.9,51.2"
     id="path6"
     style="fill:#ffffff;fill-opacity:1" /></g></g>
</svg>
