<svg xmlns="http://www.w3.org/2000/svg" xmlns:xlink="http://www.w3.org/1999/xlink" xmlns:inkscape="http://www.inkscape.org/namespaces/inkscape" xmlns:sodipodi="http://sodipodi.sourceforge.net/DTD/sodipodi-0.dtd" xmlns:i="http://ns.adobe.com/AdobeIllustrator/10.0/" viewBox="0 0 440 220" preserveAspectRatio="xMidYMid meet">
  <defs>
    <linearGradient id="capBase" x1="0" y1="0" x2="0" y2="1">
      <stop offset="0" stop-color="#1d2734"/><stop offset="0.5" stop-color="#121925"/><stop offset="1" stop-color="#0a0e15"/>
    </linearGradient>
    <linearGradient id="capBloom" x1="0" y1="0" x2="1" y2="1">
      <stop offset="0" stop-color="#279fed" stop-opacity="0.26"/>
      <stop offset="0.5" stop-color="#279fed" stop-opacity="0"/>
    </linearGradient>
  </defs>
  <rect x="26.0" y="22.0" width="400" height="192" fill="#000000" fill-opacity="0.05"/>
  <rect x="24.0" y="20.0" width="400" height="192" fill="#000000" fill-opacity="0.11"/>
  <rect x="22.5" y="18.0" width="400" height="192" fill="#000000" fill-opacity="0.2"/>
  <rect x="20" y="14" width="400" height="192" fill="url(#capBase)"/>
  <rect x="20" y="14" width="400" height="192" fill="url(#capBloom)"/>
  <g transform="translate(-45.139 -43.405) scale(0.42695)"><defs
   id="defs13" /><sodipodi:namedview
   pagecolor="#ffffff"
   bordercolor="#666666"
   borderopacity="1"
   objecttolerance="10"
   gridtolerance="10"
   guidetolerance="10"
   inkscape:pageopacity="0"
   inkscape:pageshadow="2"
   inkscape:window-width="3840"
   inkscape:window-height="2065"
   id="namedview11"
   showgrid="false"
   inkscape:zoom="2.2301481"
   inkscape:cx="386.3383"
   inkscape:cy="171.06923"
   inkscape:window-x="0"
   inkscape:window-y="0"
   inkscape:window-maximized="1"
   inkscape:current-layer="svg2" />
<g
   id="g8"
   transform="translate(-166.89999,0.24999084)">
	<g
   id="g6">
		<rect
   x="420.39999"
   y="210.3"
   width="735"
   height="297.5"
   id="rect2"
   style="fill:#231f20" />
		<path
   d="m 1097.3,251.9 -69.8,102 76,111.6 H 1033 L 991.3,405.8 949,465.5 h -69.3 c 1.6,-3.9 76,-111.6 76,-111.6 l -31.6,-44 H 789.5 c -6.2,0.5 -14,-1.6 -17,5.7 -1.1,2.3 -1.6,5.7 -0.5,7.8 1.1,2.8 3.4,5.1 6.2,6.2 l 4.6,0.5 H 837 c 24.8,0.5 47.9,16.3 58.6,38.8 9.6,18.6 8.5,44.5 -2.3,62.6 -13.5,22.5 -37.8,35.5 -63.6,34.4 h -150 L 656.6,383.1 633.4,466 h -54.7 l -22,-83.4 -23.7,82.9 h -60.8 c 0,0 55.8,-200.1 59.2,-213 h 51.2 l 23.7,89.1 24.3,-89.1 h 50.2 l 43,155.6 h 99.7 c 6.7,-0.5 16.3,1.6 19.1,-6.7 1.1,-3.9 0,-7.8 -2.3,-10.1 -2.3,-2.3 -5.7,-2.8 -9,-2.8 H 777.8 C 752.5,388 727.1,371 717.5,346.8 c -10.1,-24.3 -4.6,-54.1 14.7,-72.7 12.9,-12.9 28.7,-19.7 47.3,-20.9 H 956 l 35.5,51.2 36.7,-51.2 z"
   id="path4"
   inkscape:connector-curvature="0"
   style="fill:#ffffff" />
	</g>
</g></g>
</svg>
