<svg xmlns="http://www.w3.org/2000/svg" xmlns:xlink="http://www.w3.org/1999/xlink" xmlns:inkscape="http://www.inkscape.org/namespaces/inkscape" xmlns:sodipodi="http://sodipodi.sourceforge.net/DTD/sodipodi-0.dtd" xmlns:i="http://ns.adobe.com/AdobeIllustrator/10.0/" viewBox="0 0 440 200" preserveAspectRatio="xMidYMid meet">
  <defs>
    <linearGradient id="base" x1="0" y1="0" x2="0" y2="1">
      <stop offset="0" stop-color="#1d2734"/><stop offset="0.5" stop-color="#121925"/><stop offset="1" stop-color="#0a0e15"/>
    </linearGradient>
    <linearGradient id="bloom" x1="0" y1="0" x2="1" y2="1">
      <stop offset="0" stop-color="#fa860a" stop-opacity="0.50"/>
      <stop offset="0.6" stop-color="#fa860a" stop-opacity="0"/>
    </linearGradient>
  </defs>
  <rect width="440" height="200" fill="url(#base)"/>
  <rect width="440" height="200" fill="url(#bloom)"/>
  <g transform="translate(48.400 62.658) scale(0.08940)"><defs
   id="defs27" /><sodipodi:namedview
   id="namedview25"
   pagecolor="#ffffff"
   bordercolor="#111111"
   borderopacity="1"
   inkscape:showpageshadow="0"
   inkscape:pageopacity="0"
   inkscape:pagecheckerboard="1"
   inkscape:deskcolor="#d1d1d1"
   showgrid="false"
   inkscape:zoom="0.31987497"
   inkscape:cx="2247.7533"
   inkscape:cy="418.91368"
   inkscape:window-width="1920"
   inkscape:window-height="1009"
   inkscape:window-x="-8"
   inkscape:window-y="-8"
   inkscape:window-maximized="1"
   inkscape:current-layer="g20" />
<style
   type="text/css"
   id="style2">
	.st0{fill:#F05100;}
	.st1{fill:#CF3312;}
	.st2{fill:#FFFFFF;}
</style>
<g
   id="g22">
	<rect
   x="839"
   y="511.3"
   width="611.3"
   height="120.1"
   id="rect4"
   style="fill:#ffffff;fill-opacity:1" />
	<g
   id="g20">
		<rect
   x="3718.9"
   y="48.7"
   width="120.1"
   height="722.8"
   id="rect6"
   style="fill:#ffffff;fill-opacity:1" />
		<polygon
   points="3464.2,48.7 3038.3,541.9 2612.5,48.7 2612.5,771.4 2732.6,771.4 2732.6,371.4 3038.3,725.7 3344.1,371.4     3344.1,771.4 3464.2,771.4   "
   id="polygon8"
   style="fill:#ffffff;fill-opacity:1" />
		<rect
   x="591"
   y="48.7"
   width="120.1"
   height="600.4"
   id="rect10"
   style="fill:#ffffff;fill-opacity:1" />
		<rect
   y="164.1"
   width="120.1"
   height="607.4"
   id="rect12"
   style="fill:#ffffff;fill-opacity:1" />
		<polygon
   points="711,616.2 711,771.4 0,188.9 0,33.7   "
   id="polygon14"
   style="fill:#ffffff;fill-opacity:1" />
		<path
   class="st1"
   d="M2079.5,0c-230.6,0-417.7,187-417.7,417.7s187,417.7,417.7,417.7c230.6,0,417.7-187,417.7-417.7    S2310.2,0,2079.5,0z M2079.5,120.1c-164.4,0-297.6,133.2-297.6,297.6s133.2,297.6,297.6,297.6s297.6-133.2,297.6-297.6    S2243.9,120.1,2079.5,120.1z M2079.5,693.7c-152.3,0-276-123.9-276-276c0-152.3,123.9-276,276-276c152.3,0,276,123.9,276,276    C2355.6,569.9,2231.7,693.7,2079.5,693.7z M2079.5,715.3c-164.4,0-297.6-133.2-297.6-297.6s133.2-297.6,297.6-297.6    s297.6,133.2,297.6,297.6C2377.1,582,2243.9,715.3,2079.5,715.3z"
   id="path16" />
		<polygon
   points="975.2,771.4 1242.7,282.5 1510.3,771.4 1647.1,771.4 1242.7,32.5 838.3,771.4   "
   id="polygon18"
   style="fill:#ffffff;fill-opacity:1" />
	</g>
</g></g>
</svg>
