<svg xmlns="http://www.w3.org/2000/svg" xmlns:xlink="http://www.w3.org/1999/xlink" xmlns:inkscape="http://www.inkscape.org/namespaces/inkscape" xmlns:sodipodi="http://sodipodi.sourceforge.net/DTD/sodipodi-0.dtd" xmlns:i="http://ns.adobe.com/AdobeIllustrator/10.0/" viewBox="0 0 440 200" preserveAspectRatio="xMidYMid meet">
  <defs>
    <linearGradient id="base" x1="0" y1="0" x2="0" y2="1">
      <stop offset="0" stop-color="#1d2734"/><stop offset="0.5" stop-color="#121925"/><stop offset="1" stop-color="#0a0e15"/>
    </linearGradient>
    <linearGradient id="bloom" x1="0" y1="0" x2="1" y2="1">
      <stop offset="0" stop-color="#7C848D" stop-opacity="0.50"/>
      <stop offset="0.6" stop-color="#7C848D" stop-opacity="0"/>
    </linearGradient>
  </defs>
  <rect width="440" height="200" fill="url(#base)"/>
  <rect width="440" height="200" fill="url(#bloom)"/>
  <g transform="translate(54.427 36.000) scale(0.08624)"><style type="text/css">
	.st0{fill:#E31C1C;}
	.st1{fill:#FFFFFF;}
</style>
<g>
	<g>
		<g>
			<path class="st1" d="M1511.6,37.1v1172.5h233.8l0-519.8l299.4,519.8l286-0.1L2063.9,742c116.4-63.7,191.8-187.6,191.8-329.6
				c0-207.2-168-375.2-375.2-375.2c-2.6,0-5.1,0.1-7.7,0.2v-0.2H1511.6z M1745.4,267.2h119.3c192.1,0,192.1,297.7,0,297.8h-119.3
				V267.2z"/>
			<path class="st1" d="M833.8,0c-343,0-621.1,278.1-621.1,621.1c0,342.9,278.1,620.9,621.1,620.9s620.9-277.9,620.9-620.9
				C1454.7,278.1,1176.8,0,833.8,0L833.8,0z M833.8,235.2c213.1,0,385.9,172.8,385.9,385.9c0,213.1-172.8,385.9-385.9,385.9
				c-213.1,0-385.9-172.8-385.9-385.9C447.9,408,620.7,235.2,833.8,235.2L833.8,235.2z"/>
			<path class="st1" d="M3239.2,5.5c-339.9,0-615.6,275.7-615.6,615.6c0,339.9,275.7,615.4,615.6,615.4
				c205.9,0,388.3-101.1,500-256.3l-190-135.3c-69.5,96-182.5,158.6-310.1,158.6c-211.2,0-382.3-171.1-382.3-382.3
				c0-211.2,171.1-382.5,382.3-382.5c125.5,0,237,60.4,306.7,153.8l187.6-138.2C3621.3,103.3,3441.6,5.5,3239.2,5.5L3239.2,5.5z"/>
			<rect x="2330.8" y="37.1" class="st1" width="235.1" height="1172.5"/>
		</g>
	</g>
	<polygon class="st0" points="480.4,1263.1 1407,37.1 1093.9,37.1 0,1484.3 3840,1484.3 3840,1263.1 	"/>
</g></g>
</svg>
