<svg xmlns="http://www.w3.org/2000/svg" xmlns:xlink="http://www.w3.org/1999/xlink" xmlns:inkscape="http://www.inkscape.org/namespaces/inkscape" xmlns:sodipodi="http://sodipodi.sourceforge.net/DTD/sodipodi-0.dtd" xmlns:i="http://ns.adobe.com/AdobeIllustrator/10.0/" viewBox="0 0 440 200" preserveAspectRatio="xMidYMid meet">
  <defs>
    <linearGradient id="capBase" x1="0" y1="0" x2="0" y2="1">
      <stop offset="0" stop-color="#1d2734"/><stop offset="0.5" stop-color="#121925"/><stop offset="1" stop-color="#0a0e15"/>
    </linearGradient>
    <linearGradient id="capBloom" x1="0" y1="0" x2="1" y2="1">
      <stop offset="0" stop-color="#24192C" stop-opacity="0.26"/>
      <stop offset="0.5" stop-color="#24192C" stop-opacity="0"/>
    </linearGradient>
  </defs>
  <rect width="440" height="200" fill="url(#capBase)"/>
  <rect width="440" height="200" fill="url(#capBloom)"/>
  <g transform="translate(48.400 55.873) scale(0.08940)"><style type="text/css">
	.st0{display:none;}
	.st1{display:inline;opacity:0.5;}
	.st2{fill:#FFFFFF;stroke:#231F20;stroke-miterlimit:10;}
	.st3{fill:#FFF1E8;}
	.st4{display:inline;}
	.st5{fill:#1D2B53;}
	.st6{fill:#00E437;}
	.st7{fill:#83769C;}
	.st8{fill:#28ADFF;}
	.st9{fill:#FF004D;}
	.st10{fill:#FFA301;}
	.st11{fill:#FFCCAA;}
	.st12{fill:#FFEC25;}
	.st13{fill:#FF77A8;}
	.st14{display:inline;fill:#1D2B53;}
	.st15{fill:#FFFFFF;}
</style>
<g>
	<rect x="109.7" y="438.7" class="st5" width="109.7" height="109.7"/>
	<rect x="219.4" y="438.7" class="st5" width="109.7" height="109.7"/>
	<rect x="329.1" y="438.7" class="st5" width="109.7" height="109.7"/>
	<rect x="438.7" y="438.7" class="st5" width="109.7" height="109.7"/>
	<rect x="658.1" y="438.7" class="st5" width="109.7" height="109.7"/>
	<rect x="767.8" y="438.7" class="st5" width="109.7" height="109.7"/>
	<rect x="877.5" y="438.7" class="st5" width="109.7" height="109.7"/>
	<rect x="987.2" y="438.7" class="st5" width="109.7" height="109.7"/>
	<rect x="1316.2" y="438.7" class="st5" width="109.7" height="109.7"/>
	<rect x="1425.9" y="438.7" class="st5" width="109.7" height="109.7"/>
	<rect x="1535.6" y="438.7" class="st5" width="109.7" height="109.7"/>
	<rect x="1864.7" y="438.7" class="st5" width="109.7" height="109.7"/>
	<rect x="1974.3" y="438.7" class="st5" width="109.7" height="109.7"/>
	<rect x="2084" y="438.7" class="st5" width="109.7" height="109.7"/>
	<rect x="2193.7" y="438.7" class="st5" width="109.7" height="109.7"/>
	<rect x="2851.8" y="438.7" class="st5" width="109.7" height="109.7"/>
	<rect x="2961.5" y="438.7" class="st5" width="109.7" height="109.7"/>
	<rect y="548.4" class="st5" width="109.7" height="109.7"/>
	<rect x="109.7" y="548.4" class="st5" width="109.7" height="109.7"/>
	<rect x="329.1" y="548.4" class="st5" width="109.7" height="109.7"/>
	<rect x="438.7" y="548.4" class="st5" width="109.7" height="109.7"/>
	<rect x="767.8" y="548.4" class="st5" width="109.7" height="109.7"/>
	<rect x="877.5" y="548.4" class="st5" width="109.7" height="109.7"/>
	<rect x="1206.5" y="548.4" class="st5" width="109.7" height="109.7"/>
	<rect x="1316.2" y="548.4" class="st5" width="109.7" height="109.7"/>
	<rect x="1755" y="548.4" class="st5" width="109.7" height="109.7"/>
	<rect x="1864.7" y="548.4" class="st5" width="109.7" height="109.7"/>
	<rect x="2084" y="548.4" class="st5" width="109.7" height="109.7"/>
	<rect x="2193.7" y="548.4" class="st5" width="109.7" height="109.7"/>
	<rect x="2742.1" y="548.4" class="st5" width="109.7" height="109.7"/>
	<rect x="2851.8" y="548.4" class="st5" width="109.7" height="109.7"/>
	<rect y="658.1" class="st5" width="109.7" height="109.7"/>
	<rect x="109.7" y="658.1" class="st5" width="109.7" height="109.7"/>
	<rect x="219.4" y="658.1" class="st5" width="109.7" height="109.7"/>
	<rect x="329.1" y="658.1" class="st5" width="109.7" height="109.7"/>
	<rect x="438.7" y="658.1" class="st5" width="109.7" height="109.7"/>
	<rect x="767.8" y="658.1" class="st5" width="109.7" height="109.7"/>
	<rect x="877.5" y="658.1" class="st5" width="109.7" height="109.7"/>
	<rect x="1206.5" y="658.1" class="st5" width="109.7" height="109.7"/>
	<rect x="1316.2" y="658.1" class="st5" width="109.7" height="109.7"/>
	<rect x="1755" y="658.1" class="st5" width="109.7" height="109.7"/>
	<rect x="1864.7" y="658.1" class="st5" width="109.7" height="109.7"/>
	<rect x="2084" y="658.1" class="st5" width="109.7" height="109.7"/>
	<rect x="2193.7" y="658.1" class="st5" width="109.7" height="109.7"/>
	<rect x="2413.1" y="658.1" class="st5" width="109.7" height="109.7"/>
	<rect x="2522.8" y="658.1" class="st5" width="109.7" height="109.7"/>
	<rect x="2742.1" y="658.1" class="st5" width="109.7" height="109.7"/>
	<rect x="2851.8" y="658.1" class="st5" width="109.7" height="109.7"/>
	<rect x="2961.5" y="658.1" class="st5" width="109.7" height="109.7"/>
	<rect y="767.8" class="st5" width="109.7" height="109.7"/>
	<rect x="109.7" y="767.8" class="st5" width="109.7" height="109.7"/>
	<rect x="767.8" y="767.8" class="st5" width="109.7" height="109.7"/>
	<rect x="877.5" y="767.8" class="st5" width="109.7" height="109.7"/>
	<rect x="1206.5" y="767.8" class="st5" width="109.7" height="109.7"/>
	<rect x="1316.2" y="767.8" class="st5" width="109.7" height="109.7"/>
	<rect x="1755" y="767.8" class="st5" width="109.7" height="109.7"/>
	<rect x="1864.7" y="767.8" class="st5" width="109.7" height="109.7"/>
	<rect x="2084" y="767.8" class="st5" width="109.7" height="109.7"/>
	<rect x="2193.7" y="767.8" class="st5" width="109.7" height="109.7"/>
	<rect x="2742.1" y="767.8" class="st5" width="109.7" height="109.7"/>
	<rect x="2851.8" y="767.8" class="st5" width="109.7" height="109.7"/>
	<rect y="877.5" class="st5" width="109.7" height="109.7"/>
	<rect x="109.7" y="877.5" class="st5" width="109.7" height="109.7"/>
	<rect x="658.1" y="877.5" class="st5" width="109.7" height="109.7"/>
	<rect x="767.8" y="877.5" class="st5" width="109.7" height="109.7"/>
	<rect x="877.5" y="877.5" class="st5" width="109.7" height="109.7"/>
	<rect x="987.2" y="877.5" class="st5" width="109.7" height="109.7"/>
	<rect x="1206.5" y="877.5" class="st5" width="109.7" height="109.7"/>
	<rect x="1316.2" y="877.5" class="st5" width="109.7" height="109.7"/>
	<rect x="1425.9" y="877.5" class="st5" width="109.7" height="109.7"/>
	<rect x="1535.6" y="877.5" class="st5" width="109.7" height="109.7"/>
	<rect x="1755" y="877.5" class="st5" width="109.7" height="109.7"/>
	<rect x="1864.7" y="877.5" class="st5" width="109.7" height="109.7"/>
	<rect x="1974.3" y="877.5" class="st5" width="109.7" height="109.7"/>
	<rect x="2084" y="877.5" class="st5" width="109.7" height="109.7"/>
	<rect x="2742.1" y="877.5" class="st5" width="109.7" height="109.7"/>
	<rect x="2851.8" y="877.5" class="st5" width="109.7" height="109.7"/>
	<rect x="2961.5" y="877.5" class="st5" width="109.7" height="109.7"/>
	<rect x="3400.3" y="329.1" class="st6" width="109.7" height="109.7"/>
	<rect x="3509.9" y="329.1" class="st3" width="109.7" height="109.7"/>
	<rect x="3619.6" y="329.1" class="st7" width="109.7" height="109.7"/>
	<rect x="3071.2" y="438.7" class="st5" width="109.7" height="109.7"/>
	<rect x="3180.9" y="438.7" class="st5" width="109.7" height="109.7"/>
	<rect x="3509.9" y="438.7" class="st8" width="109.7" height="109.7"/>
	<rect x="3180.9" y="548.4" class="st5" width="109.7" height="109.7"/>
	<rect x="3071.2" y="658.1" class="st5" width="109.7" height="109.7"/>
	<rect x="3180.9" y="658.1" class="st5" width="109.7" height="109.7"/>
	<rect x="3180.9" y="767.8" class="st5" width="109.7" height="109.7"/>
	<rect x="3071.2" y="877.5" class="st5" width="109.7" height="109.7"/>
	<rect x="3180.9" y="877.5" class="st5" width="109.7" height="109.7"/>
	<rect x="3509.9" class="st9" width="109.7" height="109.7"/>
	<rect x="3400.3" y="109.7" class="st10" width="109.7" height="109.7"/>
	<rect x="3509.9" y="109.7" class="st3" width="109.7" height="109.7"/>
	<rect x="3619.6" y="109.7" class="st11" width="109.7" height="109.7"/>
	<rect x="3290.6" y="219.4" class="st12" width="109.7" height="109.7"/>
	<rect x="3400.3" y="219.4" class="st3" width="109.7" height="109.7"/>
	<rect x="3509.9" y="219.4" class="st3" width="109.7" height="109.7"/>
	<rect x="3619.6" y="219.4" class="st3" width="109.7" height="109.7"/>
	<rect x="3729.3" y="219.4" class="st13" width="109.7" height="109.7"/>
</g></g>
</svg>
