<svg xmlns="http://www.w3.org/2000/svg" xmlns:xlink="http://www.w3.org/1999/xlink" xmlns:inkscape="http://www.inkscape.org/namespaces/inkscape" xmlns:sodipodi="http://sodipodi.sourceforge.net/DTD/sodipodi-0.dtd" xmlns:i="http://ns.adobe.com/AdobeIllustrator/10.0/" viewBox="0 0 440 200" preserveAspectRatio="xMidYMid meet">
  <defs>
    <linearGradient id="capBase" x1="0" y1="0" x2="0" y2="1">
      <stop offset="0" stop-color="#1d2734"/><stop offset="0.5" stop-color="#121925"/><stop offset="1" stop-color="#0a0e15"/>
    </linearGradient>
    <linearGradient id="capBloom" x1="0" y1="0" x2="1" y2="1">
      <stop offset="0" stop-color="#78c6eb" stop-opacity="0.26"/>
      <stop offset="0.5" stop-color="#78c6eb" stop-opacity="0"/>
    </linearGradient>
  </defs>
  <rect width="440" height="200" fill="url(#capBase)"/>
  <rect width="440" height="200" fill="url(#capBloom)"/>
  <g transform="translate(86.201 36.000) scale(0.06971)"><style type="text/css">
	.st0{fill:#17B3E8;}
	.st1{fill:#22B2E9;}
	.st2{fill:#A19FA3;}
	.st3{fill:#FFFFFF;}
</style>
<g>
	<path class="st0" d="M2649.3,209.1c0,115.3,97.1,208.8,216.5,208.8c124.2,0,221.7-91.6,221.7-208.8C3087.5,91.8,2990,0,2865.9,0
		C2746.4,0,2649.3,93.7,2649.3,209.1"/>
	<rect x="2685.3" y="627.2" class="st0" width="369.6" height="1196"/>
	<path class="st0" d="M3400.8,209.1c0,115.3,97.2,208.8,216.6,208.8c124.2,0,221.6-91.6,221.6-208.8C3839,91.8,3741.7,0,3617.4,0
		C3498,0,3400.8,93.7,3400.8,209.1"/>
	<rect x="3436.6" y="627.2" class="st0" width="369.8" height="1196"/>
	<path class="st0" d="M2097.5,100.6l-324.2,1270.8c0,0-247.8-953.9-288.2-1089.2c-40.3-135.5-123.3-194.9-241-194.9
		c-117.7,0-200.8,59.4-241.2,194.9c-40.1,135.3-288.1,1089.2-288.1,1089.2L390.6,100.6H0c0,0,375.1,1355.9,426.1,1512.9
		c39.7,122.6,133.6,222.8,272.9,222.8c159.3,0,233.7-116.1,268.2-222.8c34.1-106,276.9-1001.6,276.9-1001.6S1487,1507.5,1521,1613.5
		c34.5,106.7,108.9,222.8,268.1,222.8c139.4,0,233.2-100.2,273.1-222.8c50.9-157,425.7-1512.9,425.7-1512.9H2097.5z"/>
</g></g>
</svg>
