<svg xmlns="http://www.w3.org/2000/svg" width="3174" height="1549" viewBox="0 0 3174 1549">
  <defs>
    <style>
      .cls-1, .cls-2 {
        fill: #fff;
      }

      .cls-1 {
        fill-rule: evenodd;
      }
    </style>
  </defs>
  <path class="cls-1" d="M2914,851l-12-57,151-37,23,86-44,15,96,401c6.14,27.1,16.65,75.2-2,124s-57.64,95.01-121,110-118.2-15.76-134-28-37.42-41.62-44-75,3.67-81.98,30-106,75.84-38.01,103-19,37.6,25.1,49,42c-23.89,20.99-59,52-59,52s-19.69-15.61-24,2,5.59,38.62,39,34,56.32-21.65,62-52-1.55-64.91-12-98-13-80-13-80-4.86,17.39-50,48-104.34,26.22-131,21-61.18-15.84-92-43-61.44-57.97-74-141,44.3-168.9,111-195S2901.73,845.886,2914,851Zm19,100,31,123s-21.71,84.36-132,60c-104.72-23.13-99.9-247.645,75-198C2916.16,938.6,2923.66,942.925,2933,951Z"/>
  <path id="Shape_325_1" data-name="Shape 325 1" class="cls-1" d="M1680.02,1027.54l-75.86-5.98c-0.02,0-.36-56.3-47.34-63.144a67.228,67.228,0,0,0-7.3.085c-30.07,1.952-52.25,9.645-54.96,49.159-0.09,1.28-.15,2.59-0.2,3.93-1.48,42.94,126.31,97.55,142.74,162.55s-22.72,121.04-51.9,138.61-132.18,25.45-183.67-41.88c-26.85-35.11-18.7-101.96-2.99-125.65,34.03,17.27,75.86,37.89,75.86,37.89s-13.21,52.02,13.97,58.84,46.65-1.14,50.91-15.96,13.94-35.69-30.94-70.8-90.79-72.79-102.82-114.68-12.34-80.522,17.97-122.662,84.03-51.667,115.79-47.867,54.98,15.523,71.87,31.911L1614.14,863l77.86,3.989Z"/>
  <path id="Shape_325_1_copy" data-name="Shape 325 1 copy" class="cls-1" d="M1953.24,1147.27l-75.85,6.16c-0.01,0-9.31-55.53-56.78-54.82a67.5,67.5,0,0,0-7.19,1.25c-29.37,6.7-50.05,17.82-46.44,57.27q0.18,1.9.42,3.9c5.37,42.63,140.21,76.24,166.77,137.8s-3.19,123.11-29.21,145.1-126.45,46.14-187.99-12.15c-32.09-30.4-34.67-97.69-22.93-123.58,36.35,11.64,80.92,25.35,80.92,25.35s-4.77,53.46,23.15,55.87,45.88-8.54,47.72-23.85,8.09-37.45-41.8-64.98-101.2-57.43-119.74-96.88-24.98-77.54-1.76-123.96,74.76-64.37,106.71-65.66,56.75,6.58,76.03,20.08l-3.23-38.874,77.5-8.439Z"/>
  <path class="cls-1" d="M693,1108l-3-57-156,13,6,77,64-1,23,261-59,4,9,83,242-23-10-73-85,8-12-173s-8.184-47.57,21-66,43.164-15.25,54-13,49.1,18.21,18,60c62.14,37.95,74,45,74,45s23.365-13.41,35-60-21-96.17-62-118-89.95-21.2-111-10S711.649,1079.48,693,1108Z"/>
  <path class="cls-1" d="M1145.57,893.325c116.68-3.412,212.59,90.373,214.2,209.475s-91.66,218.42-208.35,221.83-212.584-90.37-214.2-209.47S1028.88,896.738,1145.57,893.325Zm7.55,91.929c32.99,1.245,61.93,20.986,81.88,48.746,14.3,19.9,24.83,42.85,25,71,0.25,40.4-11.71,56.86-20,71-23.64,40.3-53.5,53.63-99.82,52.02-37.04-1.29-66.26-19.76-84.18-46.02-16.28-23.86-18.96-54.97-15.95-86.56C1046.25,1030.26,1096.72,983.127,1153.12,985.254Z"/>
  <path class="cls-1" d="M524,840l91,48-94,146s-155.985-177.577-293,1c-56.346,73.44-68.249,181.65-33,256,24.87,52.46,67.063,75.65,132,85,81.211,11.69,152-30,152-30,21.477,61.31,31,93,31,93s-62.877,49.06-174,43c-109.309-5.96-128.3-26.57-165-51-26.284-17.5-75.773-65.29-94-129s-20.091-113.82-12-170,44.942-131.81,62-155,65.736-87.032,141-113,147.2-16.372,232,14C518.191,849.236,524,840,524,840Z"/>
  <path class="cls-1" d="M366,707l-54,6,12,96,133-12,35-222,143-12,40,104-101,9,13,95,273-30-13-91-55,5L583,120,351,143l6,88,88-4ZM510,486l96-10L533,273Z"/>
  <path class="cls-1" d="M937,628l-52,5,4,69,156-9-13-282c15.42-29.88,33.6-39.124,46-46,12.71-7.045,43.3-6,51-4s34.37,11.226,42,33,2,8,2,8l16,289,151-7-5-92-46,7s-11.06-218.687-13-225-12.32-42.251-28-61c-14.63-17.494-23.76-27.867-45-39s-40.04-19.964-91-14-89.99,48.867-90,59-2-73-2-73L852,258l5,70,64-6Z"/>
  <path class="cls-1" d="M2283.6,1383.86l-52.23-.33-3.06,69.05,156.1,6.95,15.83-281.85c18.39-28.15,37.41-35.5,50.45-41.07,13.36-5.71,43.69-1.56,51.14,1.22s33.05,14.67,38.42,37.11,1.17,8.16,1.17,8.16l-13.55,289.13,150.92,8.43,4.41-92.03-46.47,2.28s11.3-218.68,10.01-225.16-7.95-43.28-21.63-63.53c-12.77-18.9-20.8-30.15-40.79-43.39s-37.8-23.94-89.1-23.21-94.51,39.44-95.55,49.52,5.46-72.83,5.46-72.83l-168.35-5.19-2.16,70.14,64.28,0.56Z"/>
  <circle class="cls-2" cx="1454.565" cy="275.688" r="70.625"/>
  <path class="cls-1" d="M1352,387l179-5,1,315h54v91H1368l-2-85,64-4,4-218-81-4Z"/>
  <path class="cls-1" d="M2123.14,782.661a70.643,70.643,0,0,1,62.01,74.886c-2.6,38.295-35.51,68.33-74.65,66.171A70.839,70.839,0,1,1,2123.14,782.661Z"/>
  <path class="cls-1" d="M2002.36,954.48l178.71,11.353-27.74,313.777,53.77,4.93-8.3,90.62-217.09-19.89,5.76-84.83,64.1,1.86,23.87-216.73-80.29-11.37Z"/>
  <path class="cls-1" d="M1786,341l2-71-164-7-2,70,61,1-8,304h-57l-3,88,166,9s11.18-271.236,12-284,3.99-43.883,31-55,52.82,3.751,61,19,5,37,5,37l-18,304,183,7,3-67-68-2s9.24-218.394,11-235,14.25-48.82,39-53,46.04-6.67,60,19c13.63,25.062,8,57,8,57l-12,263,151,8,3-85-48-1s9.01-164.6,10-197-4.39-65.636-14-84-21.74-39.228-39-51-48.68-26.213-75-26-50.92,3.938-64,11-28.76,15.13-35,22c-7.33,8.076-13,25-13,25a49.84,49.84,0,0,0-21-44c-24.23-17.343-37.14-19.226-47-21s-39.28-5.657-57-1-34.48,13.452-40,18S1786,341,1786,341Z"/>
  <path class="cls-1" d="M2851,667l54,12-15,88-205-35,17-96,51,10,90-503-66-11,13-77,168,32Z"/>
  <path class="cls-1" d="M2613,644l43,5-10,93-149-21,8-38s-80.93,56.763-183-21-42.34-200.052,21-228,101.1-21.692,129-15,70,43,70,43,20.35-167.685-185-79c-10.73-25.225-34-78-34-78s92.32-48,158-34,88.15,36.63,105,51c17.75,15.137,49.11,52.318,51,108S2619.07,605.435,2613,644Zm-91-109-10,69s-59.58,51.421-119,3c-16.51-13.451-21.52-43.873-15-66,5.07-17.206,18.25-27.522,31-33C2418.32,503.994,2454.27,489.716,2522,535Z"/>
</svg>
