<svg xmlns="http://www.w3.org/2000/svg" width="1778" height="752" viewBox="0 0 1778 752">
  <defs>
    <style>
      .cls-1, .cls-2 {
        fill: #fff;
      }

      .cls-1 {
        fill-rule: evenodd;
      }
    </style>
  </defs>
  <path class="cls-1" d="M1209,398c9.16,11.824,15.4,26.068,18.74,41.634-19.62,14.309-47.03,38.275-56.74,64.366-11.35,30.489-18.06,50.993-6.84,95.3-54.35,39.385-112.01,41.687-153.69,20.279,0.19-8.963-2.58-18.063-7.47-21.582-4.262-3.066-14.873-.3-20.152,2.141A108.612,108.612,0,0,1,971,587c-9.239-12.13-16.63-27-22-42,5.139-14.873,23.719-69.724,32.661-98.8,3.352-10.9-3.6-16.169-13.2-16.6A219.151,219.151,0,0,1,1006,387C1099.82,323.682,1170.96,348.875,1209,398Zm-166.99,34.343c27.49-16.927,64.89-1.1,82.77,34.678,17.42,34.855,9.38,75.048-17.25,90.405-26.3,15.167-61.85.916-80.1-32.416C1008.7,490.813,1014.88,449.049,1042.01,432.343Z"/>
  <path class="cls-1" d="M1348.61,433.322c82.9,15.37,139.55,85.657,127.42,157.171-12.15,71.536-88.73,118.436-171.93,104.59-84.19-14.009-143.08-84.739-130.63-157.808C1185.91,464.228,1264.73,417.771,1348.61,433.322Zm-11.8,58.515c29.78,9.1,42.46,47.486,28.3,84.717-13.8,36.267-47.77,57.182-75.88,47.665-27.75-9.4-40.37-45.351-28.2-81.221C1273.51,506.2,1307.42,482.853,1336.81,491.837Z"/>
  <path class="cls-1" d="M1430,454c-0.44-.614-9-32-9-32l86-30,51,254s1.15,3.14-2,4-70.59,21.419-73,22-2.68-1.322-3-3-7-32-7-32,19.4-37.465,19-66c-0.43-31.031-12.04-63.093-23-78C1457.86,477.85,1430.44,454.614,1430,454Z"/>
  <path class="cls-1" d="M1669,570l7,60s70.55-17.114,74-18,4.61,0.18,5,4,6.64,57.625,7,61-0.23,3.271-4,4-157,17-157,17-21.47-255.44-21-250c0.17,1.952-2.08-2.025,5-4s122.76-32.556,131-34,7.44-.872,9,6,13.93,53.023,15,58,0.09,5.669-3,6-83,1-83,1l5,56s61.92-20.864,60-20,4.63-2.8,6,3,13.74,45.644,15,50-0.3,5.257-6,5S1669,570,1669,570Z"/>
  <path class="cls-1" d="M764,172l94-14s9.683-3.189,10,4,0,35,0,35-29.064,33.182-34,60-13.411,51.187,8,101a194.943,194.943,0,0,0,11,21s-18.074,42.644-81,81c-20.931-40.154-44-85-44-85s23.991-10.694,35-22,10.8-38.371,11-50S771.188,224.309,764,172Z"/>
  <ellipse class="cls-2" cx="805" cy="78" rx="58.5" ry="59"/>
  <path class="cls-1" d="M1443.13,261c32.31,0,58.5,26.415,58.5,59s-26.19,59-58.5,59-58.5-26.415-58.5-59S1410.82,261,1443.13,261Z"/>
  <path class="cls-1" d="M280,262l69-134,16-1L467,267l-13,86,74,8-28,15s-7.661-6.061-15-6a21.991,21.991,0,0,0-19,12c-3.834,7.573-8,15-8,15l-17,9-26-57L313,360l-4,41s-17.387-.4-22,11c-11.86-4.7-30-14-30-14s27.287-20.083,37-40c8.576-17.587,15.7-44.49,11-61S288.053,265.221,280,262Zm48,43,71-1-36-73Z"/>
  <path class="cls-1" d="M158.122,164.851c22.429-2.551,59.009,5.636,70.11,20.06,6.764,3.8,12.161,22.115,9.306,34.83-0.011,11.437-8.272,28.491-13.038,35.759a3.13,3.13,0,0,0,1.186,2.922c14.628-.2,32.528,4.3,45.809,11.889,8.6,6.173,14.815,11.22,19.819,24.684,9.907,20.81-4.925,53.43-14.388,64.931-15.2,21.128-35.756,36.911-58.915,51.446A478.545,478.545,0,0,1,174.5,433.831,563.252,563.252,0,0,1,118.406,455.5c-8.851.6-7.88-10.621-12.459-19-23.278-62.667-46.508-125.333-70.411-189-5.045-15.333-11.613-30.667-16.672-47.467,4.419-6.829,21.2-8.373,31.636-13.371C86.167,175.818,121.833,166.712,158.122,164.851ZM164,324l9,51s24.089-10.11,29-19,3.578-19.194-3-25S190.748,323.257,164,324ZM115,222l25,50s18.313-7.6,18-25C157.547,221.805,134.318,220.7,115,222Z"/>
  <path class="cls-1" d="M467,342l90,9,2-135L720,364l9-4,22-144s2.795-12.892,2-21-2.34-13.343-3-23,4.747-14.252,9-14c0.98-7.522,4-21,4-21s-7.338-2.246-15-13a92.784,92.784,0,0,1-11-20l-56-1s-7.41-1.657-8,9-18,111-18,111L512,71l-3,1Z"/>
  <path class="cls-1" d="M965,159c82.39-18.542,159.75,19.534,175.7,94.574,5.93,27.91.58,56.562-12.64,82.083-56.98-2.414-80.4,12.124-97.06,19.343-1.99.86-46.862,23.316-74.49,66.222C900.9,413.567,857.781,381.5,846,328,829.5,253.075,873.119,179.678,965,159Zm11.636,62.481C1001.02,221.533,1024.1,244.116,1030,280c6.47,39.347-12.62,78.535-46.16,79.407-33.88.881-59.757-38.091-57.253-78.458C928.87,244.145,952.166,221.428,976.636,221.481Z"/>
  <path class="cls-1" d="M752,475l218-35L909,636l87-29,19,91L785,736l84-220L750,558Z"/>
  <path class="cls-1" d="M150,496s119.616,22.157,116,22c-1.1,0,5.1-1.306,3,9s-11.686,55.428-12,57-1,5.808-6,4-111.883-32.439-114-33-4.17-1.352-3-7,11.312-46.084,12-49S148.731,495.805,150,496Z"/>
  <path class="cls-1" d="M1203.04,276.284s114.25,41.762,110.72,41.005c-1.09-.184,5.24-0.439,1.46,9.373s-20.75,52.71-21.33,54.207-1.94,5.562-6.58,2.946S1182.39,333.2,1180.4,332.3s-3.89-2.027-1.8-7.4,18.83-43.558,19.99-46.318S1201.82,275.881,1203.04,276.284Z"/>
  <path class="cls-1" d="M395,392s-87.461,23.48-92,25-5.077,2.743-4,9,47.24,242.528,48,246,1.812,3.99,6,4,78.092-7.633,81-8c3.249-.41,5.1-4.276,2-13-3.074-8.647-32-92-32-92s113.719,84.385,113,84,4.912,3.928,8-2,46.545-66.1,48-69c1.682-3.354,1.667-4.458-3-6s-86-36-86-36,64.584-91.435,67-95c1.767-2.607,2.084-5.951-4-10s-55.194-40.689-59-43-5.8-1.887-8,2-77,136-77,136Z"/>
  <path class="cls-1" d="M546,640l33,28,22-59,101,13s9.573,57.842,10,60,2.188,1.895,7,1,81-21,81-21l7-18-34-82s-22.915,10.84-27,8-8.876-5.409-9-17,2-74,2-74l-35-85-15-3L554,548s27.507,10.324,32,17c6.335,9.414-4.07,24.118-8,29S546,640,546,640ZM678,496l18,78-70-14Z"/>
</svg>
