<?xml version="1.0" encoding="utf-8"?>
<!-- Generator: Adobe Illustrator 19.0.0, SVG Export Plug-In . SVG Version: 6.00 Build 0)  -->
<svg version="1.1" id="Layer_1" xmlns="http://www.w3.org/2000/svg" xmlns:xlink="http://www.w3.org/1999/xlink" x="0px" y="0px"
	 viewBox="0 0 937 418" style="enable-background:new 0 0 937 418;" xml:space="preserve">
<style type="text/css">
	.st0{fill:#FFFFFF;}
</style>
<g>
	<path class="st0" d="M199.9,229.1c-3,2.1-4.5,5.2-5.8,8.4c-0.8,1.8-1.6,3.6-2.6,5.7c-4.9-2.4-9.4-4.6-14.2-7
		c10.5-9.2,17.7-20,17.7-34.8c-2-0.3-3.6-0.5-5.2-0.7c-3.4-3-3.4-3-1.9-6.6c1.1-2.6,1.1-2.6,0.7-6.2c-2.2-1.1-4.7-2.4-7.5-3.9
		c0.7-4.6,1.4-9.5,2-13.7c-1.8-3.7-4.8-5-7.7-6.2c-6.9-2.8-13.2-7-20.8-8c-0.7-0.1-1.4-0.8-2.3-1.3c0.5-1.8,1.7-2.5,3.1-3
		c10.3-4.2,18.6-11.2,25.3-19.6c5.6-6.9,7.3-15.6,3.7-24.4c-3-7.2-8.4-12.4-14.9-16.7c-5-3.3-10.5-4.4-16.3-5.3
		c-10.7-1.7-21.4-2-32.2-1.8c-3.6,0.1-7.2,0.6-10.8,0.9c-1.1,0.1-2.3,0-4.6,0c10.5-8.9,21.2-15.6,31.4-23l0.2-0.2
		c6.1-3.6,12.2-7.3,18.3-10.9c8.3-4.8,17-8.9,25.6-12.9c6.3-2.9,12.6-5.7,19.1-8.2c6.6-2.5,13.4-4.6,20.1-7c7.8-2.8,15.9-4.4,23.7-7
		c7.6-2.5,15.4-4.2,23.6-5.3c-1.5,1.3-3,2.6-4.4,3.9c-1.6,1.5-3.2,2.9-4.7,4.4c-2.2,2.2-4.5,4.3-6.6,6.6c-2.7,2.9-5.1,6.1-7.8,9
		c-7,7.5-11,16.4-13.4,26.2c-2.9,12.1-0.2,24.7,7.3,34.8c2,2.7,4.2,5,7,6.9c3.3,2.1,6.6,4.3,9.8,6.5l0.2,0.2
		c2.8,3.6,6.8,5.7,10.7,7.6c5.9,2.9,12.1,5.2,18.2,7.6c0.9,0.4,1.9,0.3,2.9,0.5l0.2,0.2c5,2.9,10.4,4.7,16,6c10.6,2.5,21,5.6,31.5,8
		c8,1.9,15.9,4,24.3,3.7l0.2,0.2c0.7,0.3,1.5,0.8,2.2,0.8c6.5-0.1,12.7,1.7,19.1,2.7c2.4,0.4,4.9,1,7.3,1.2c1.5,0.1,3.1-0.3,4.8-0.5
		c1.8,0.5,3.9,1.3,6.1,1.5c5,0.7,10.1,1.1,15.7,1.7c0.4-0.7,1.2-1.8,1.4-3c2.7-13.5,5.4-27.1,8-40.6c3-15.5,6.1-31,8.8-46.6
		c0.4-2.4,0.6-4.7,2.3-7.1c2.4,5.3,4.8,10.3,7,15.4c5.4,12.1,10.7,24.2,16,36.2l0.2,0.2c3.9,0.6,7.7,1.5,11.6,1.8
		c5.6,0.4,11.3-0.4,16.9,1c1.7,0.4,3.6,0.1,5.3,0.1c7-19.7,12.4-39.3,19.6-58.4c3.6,16.9,7.1,33.7,9.9,50.6
		c2.8,16.9,6.4,33.6,9.8,50.9c3-0.3,5.5-0.5,8.1-0.8c0.7-0.1,1.3-0.3,2-0.3c7.4-0.4,14.9-1,22.3-0.9c7.2,0.1,14.1-1.6,21.1-2.5
		c5.7-0.8,11.4-1.7,17.1-2.6c3.9-0.6,7.8-1.3,11.7-2c5-0.9,10.1-1.8,15-3c4.7-1.2,9.4-2.9,14.1-4.2c2.2-0.6,4.4-1,7.3-1.7
		c-0.4,1.3-0.5,2.2-0.8,3c-2.2,5.9-4.3,11.8-6.6,17.7c-1.3,3.4-2.9,6.6-4.2,9.9c-2.5,6.4-4.8,12.9-7.2,19.3c0,0-0.2,0.2-0.2,0.2
		c-2.6,6.4-5.2,12.7-7.7,19.1c-4.6,11.7-9.2,23.4-13.8,35.1c-5.1,13-10.2,26-15.3,39.1c-0.7,1.8-1.6,3.6-2.4,5.4c-2.2,0-4.1,0-6.7,0
		c-0.2-7-0.1-13.8-0.1-20.5c0-7,0-14,0-21c0-6.8,0-13.6,0-20.5s0-13.6,0-20.5c0-7,0-14,0-21c0-6.8,0-13.6,0-21.1
		c-3.3-0.1-6.4-0.2-9.5-0.2c-3,0-6,0-9.4,0c-1,2.3-1.9,4.6-2.9,6.8c0,0-0.3,0.2-0.3,0.2c-0.4,0.5-0.8,1-1.1,1.6
		c-6.2,13.4-12.4,26.8-18.5,40.2c-0.1,0.3-0.1,0.7-0.1,1c0,0-0.2,0.2-0.2,0.2c-9.9,21.5-19.9,42.9-30.1,65c-1.3-2.3-2.6-4-3.1-5.8
		c-5.5-18.2-12.1-36.1-18.5-54c-2.8-7.8-5.5-15.6-8.1-23.5c-1.9-5.5-3.5-11-5.4-16.4c-1.7-5-3.7-9.9-5.6-15c-7.5,0-14.9,0-22.9,0
		c0,2.1,0,3.9,0,5.6c0,31,0,62,0,93c0,2.5-0.4,4.9-0.9,7.3c-1.6,7.6-3.5,15.1-4.9,22.8c-1,5.7-1.4,11.5-2.2,17.2
		c-0.8,5.7-1.8,11.4-2.6,17.1c-0.8,5.7-1.6,11.4-2.4,17.2c-1,7-2,14-3.2,21.9c-2.1-2.1-3.8-3.5-5.1-5.1c-6.8-8.2-14.1-15.8-22.9-22
		c-6.2-4.4-12.3-9.1-18-14c-2.4-2.1-4-5.2-5.8-8c-1.9-2.9-3.4-6.2-5.7-8.7c-2-2.2-2.5-4.5-2.5-7.2c0.1-7.8,0.6-15.7-0.1-23.5
		c-1.8-22.3-0.4-44.6-0.9-66.8c0-1.7-0.6-3.4-0.8-4.4c0-11.1,0-21.6,0-32.5c4.8-0.4,9.2-0.8,13.6-1.2c6.9-0.6,13.8-1.3,20.7-1.9
		c1.3-0.1,2.7-0.1,4-0.1c3.1-0.1,6.3,0.4,9.3-1.1c1-0.5,2.5-0.1,4-0.1c0-1.6,0-2.8,0-4.3c-37.8,0-75.4,0-113.2,0c0,3.8,0,7.4,0,11.4
		c2,0,3.8,0.1,5.6,0c2.6-0.2,5.2-0.7,7.9-0.8c6.9-0.4,13.9-0.3,20.8-1.2c3.2-0.4,6.3-1,9.4-0.6c0.2,0.2,0.4,0.3,0.5,0.4
		c0.1,0.1,0.3,0.3,0.3,0.4c0.1,0.8,0.3,1.6,0.3,2.5c0,42.5,0,85,0,127.5c0,0.5-0.2,0.9-0.4,1.4c0,0.1-0.2,0.2,0,0.1
		c-10.7-2.7-21.3-5.4-31.8-8c-2.4-0.5-3.1-2.6-4-4.5c-6.2-12.3-12.3-24.7-18.6-37c-2.5-4.8-5.5-9.5-7.9-13.7c-0.8-3.2-1.3-6-2.3-8.7
		c-4-11.4-7.8-22.9-12.3-34.1c-3.5-8.7-6-17.8-9.4-26.5c-3.4-8.6-6.3-17.5-9.5-26.2c-0.6-1.7-1.3-3.3-2.1-5.2c-6.8,0-13.7,0-20.8,0
		c-3.3,8.7-5.9,17.4-4.7,26.9c-1.6,1.3-3.1,2.6-5.1,4.3c-1.1,3.2-2.5,6.9-3.7,10.7c-1.7,5.2-3.3,10.4-4.9,15.7
		c-1.9,6.3-3.8,12.7-5.7,19c-0.1,0.2-0.2,0.3-0.5,0.8c0.4-0.4,0.5-0.6,0.6-0.7c0.2,0.4,0.5,0.7,1.2,1.7c-3.2,0.2-5.9,0.4-8.7,0.6
		c-0.1,1-0.2,1.8-0.3,2.5c1.3,1.2,2.5,2.3,3.7,3.5c-2.3,3-4.5,5.8-6.7,8.6L199.9,229.1z"/>
	<path class="st0" d="M815.1,65.1c12.4,9.6,24.9,19.2,37.4,28.7c1,0.8,2.1,1.3,3.1,2.1c0.6,0.5,1,1.3,1.5,2.1
		c0,8.2,0.6,16.4-0.1,24.5c-1.8,19,0.1,37.9-1.1,56.9c-0.7,11-0.6,21.9-0.9,32.9c0,0.4-0.3,0.9-0.6,1.9c-2.6-3.2-5-6-7.4-8.9
		l-0.2-0.2c-0.6-0.9-1.2-1.9-1.8-2.8l-0.2-0.2c-10.3-13.8-20.7-27.6-31-41.4c-0.9-1.2-1.8-2.2-2.8-3.4c0,0-0.2-0.2-0.2-0.2
		c-0.6-0.9-1.2-1.9-1.8-2.8l-0.2-0.2c-10.3-13.8-20.7-27.6-31-41.4c-0.9-1.2-1.8-2.2-2.8-3.4c0,0-0.2-0.2-0.2-0.2
		c-2.4-3.5-4.9-7-7.4-10.6c-5.6,0-11.1,0-16.8,0c-1.3,3.2-0.4,6.5-0.6,9.7c0,0.8,0.5,1.7,0.3,2.4c-2.9,9.3-0.3,18.9-1.5,28.2
		c-1.3,10.6,0,21.3-1.1,31.8c-1,9.5-0.4,18.9-0.8,28.3c-0.1,1.8,0.3,3.6,0.4,5.5c-0.3,0.1-0.7,0.3-1.4,0.6c0,7.5-0.1,15.1,0.1,22.7
		c0,2.2,0.1,4.1-0.7,6.3c-0.6,1.6-0.3,3.6-0.3,5.4c0,3.1,0,6.3,0,8.8c-3,2.6-5.5,4.7-8,6.9c0,0-0.2,0.2-0.2,0.2
		c-0.5,0.2-0.9,0.3-1.7,0.6c-19.8-44.2-39.5-88.4-59.4-132.9c4.7-3.3,9.4-6.5,14.1-9.8c0,0,0.3-0.3,0.3-0.3c0.2-0.2,0.4-0.4,0.7-0.7
		c0,0,0.3-0.3,0.3-0.3c4.4-2.5,7.4-6.2,10.6-10c3.3-4,6.1-8.2,8.2-12.9c3.8-8.5,5.2-17.4,3.3-26.6c-0.8-4.2-1.2-8.5-2.4-12.6
		c-1.8-6.3-4.3-12.4-8-18c-4.4-6.6-8.2-13.6-12.2-20.4c-0.1-0.2,0-0.6-0.1-1.1c1.5,0.3,2.9,0.4,4.3,0.8c4.9,1.6,9.7,3.2,14.6,4.9
		c6.4,2.2,12.8,4.4,19.2,6.8c6.9,2.6,13.7,5.7,20.6,8.2c12.1,4.4,23.2,10.7,34.6,16.5c8.4,4.3,16.3,9.4,24.4,14
		c2.2,1.2,4.4,2.3,6.6,3.4C814.9,64.9,815.1,65.1,815.1,65.1z"/>
	<path class="st0" d="M463,185c-0.2,0.6-0.7,1.2-0.5,1.7c6.1,15.6,12.2,31.1,18.3,46.6c0.2,0.6,0.7,1.1,1.1,1.6l0.2,0.2
		c1.6,4.4,3.1,8.9,4.7,13.2c0.9,2.2,2,4.4,3.1,6.5l0.2,0.2c1,2.9,1.8,5.9,2.9,8.8c2.2,5.8,4.5,11.6,6.8,17.4
		c0.2,0.6,0.7,1.1,1.1,1.6l0.2,0.2c0.6,2.2,1.1,4.5,1.9,6.6c1.3,3.6,2.8,7,4.5,11.2c2-4.2,3.7-7.9,5.4-11.6
		c3.9-8.2,7.7-16.4,11.6-24.7c1.8-3.9,3.6-7.8,5.4-11.7c2.4-5.1,4.7-10.2,7.2-15.3c0.7-1.4,0.7-2.5-0.1-3.7l0,0
		c0.7-0.6,1.7-1,2.1-1.7c1.8-3.4,3.6-6.8,5.2-10.2c5.9-12.8,11.8-25.6,17.7-38.4c0.7-1.5,1.6-2.8,2.8-5.1c0,43.4,0,85.8,0,127.8
		c-4.5,3.7-8.7,7.2-12.9,10.6c0,0,0,0,0,0c-0.3,0-0.5-0.1-0.8-0.1l-0.3,0.3c-7.9,5.2-14.9,11.5-21.6,18.2
		c-7.6,7.7-15.2,15.4-22.4,23.4c-9.1,10.2-16.6,21.7-23.4,33.6c-0.4,0.8-0.2,1.9-0.4,3.2c-0.3,0-0.9,0.1-1.7,0.2
		c-3.1,4.9-6.3,10-9.8,15.4c-5.2-7.8-10-15.1-14.9-22.3c-1-1.5-2.5-2.6-3.8-3.9l0,0c-1.8-5.9-1.3-11.8-0.6-17.7
		c0.1-1.1,0.5-2.3,0.5-3.4c0.4-15.3,0.3-30.6,1.2-45.8c0.6-11.3,0.1-22.6,1.1-33.8c0.8-9.5-0.2-19,1-28.3c1.1-9,0.4-17.9,0.8-26.9
		c0.2-5.2,0.8-10.4,0.9-15.6c0.2-5.3-0.1-10.7,0.1-16c0.3-5.6,0.9-11.2,1.4-16.9C460.6,182.1,461.8,183.5,463,185L463,185z"/>
	<path class="st0" d="M697.6,205.9c10.3,21.5,19.7,43,28.5,65.6c-6.4,12.3-8.5,26.6-8.1,42c-3.7-2.4-6.4-4.5-9.4-6.1
		c-6-3.2-12.1-6.3-18.2-9.2c-5.1-2.4-10.2-4.9-15.8-5.9c-5-0.9-10.1-1.5-15-2.9c-11.2-3.2-22.6-1.9-33.9-2.1c-1.7,0-3.4,1-5.7,1.7
		c-0.2-0.1-1.2-0.5-2.2-0.6c-1,0-2.1,0.4-4.1,0.8c11.2-28.9,22.3-56.9,33.4-85c4.9-0.1,9.3-0.8,13.7,0.5c1.5,0.5,3.3,0.2,5,0.3
		C676.2,205.2,686.6,205.6,697.6,205.9z"/>
	<path class="st0" d="M14.1,214.9c1.6-3.6,3.1-7.2,4.7-10.9c1.4-3.2,2.6-6.5,4-9.6c2.2-5,4.5-10,6.9-14.9
		c7.1-14.5,16.4-27.6,25.8-40.6c4.4-6.1,10.1-11.3,13.1-18.4c0.1-0.3,0.5-0.5,0.7-0.6c4.8-2.6,7.2-7.5,11.1-10.9
		c3.9-3.4,7.4-7.2,11-10.9c0.2-0.2,0.6-0.3,1.3-0.6c0.1,1.1,0.4,2.2,0.4,3.2c0,4,0.4,8,0,12c-1.5,15.1,0,30.3-1.2,45.3
		c-1.1,13.5-0.2,26.9-0.8,40.3c-0.4,9.1-1,18.1-1.5,27.6c-6.1,0.4-12.1,0.9-18.2,1.2c-3.7,0.2-3.7,0.1-6.4,1.9c-2-0.3-3.6-1-5.1-0.8
		c-5.9,0.6-11.8,1.4-17.6,2.3c-7,1.1-14,2.4-20.9,3.6c-3.9,0.7-7.7,1.2-12.2,1.9c1.6-7.2,3.2-14.1,4.7-20.9
		C13.9,215.1,14.1,214.9,14.1,214.9z"/>
	<path class="st0" d="M293.1,271.1c0,0.3,0.2,0.7,0.1,1c-1.9,5.9-0.7,12-1.3,18.6c-4.4,0.8-9,1.4-13.4,2.4c-8.2,2-16.5,3.7-24.4,6.6
		c-7,2.6-13.6,6.5-20.7,10c-1.5-3.6-0.6-7.6-1.6-11.3c-0.9-3.7-1.6-7.4-2.9-11c-1.3-3.7-3-7.4-4.9-10.9c-1.9-3.5-4.1-6.8-6.4-10
		c-2.3-3.1-4.7-6-7.4-8.7c-2.8-2.8-5.9-5.4-9-8.2c-0.2-1.3-0.5-2.7-0.7-3.8c0.5-2.5,0.7-4.6,1.4-6.6c0.9-2.8,2-5.6,3.4-8.2
		c2.4-4.7,5.1-9.3,7.9-14.3c3,0,5.9,0.1,8.9,0c13.6-0.3,27.2-0.7,40.8-1c1.7,0,3.3,0,5.2,0c1,1.3,1.9,2.7,2.8,4l0.2,0.2
		c0.3,1.3,0.5,2.6,1,3.8c4.7,11.3,9.3,22.7,14.1,33.9c1.9,4.5,4.4,8.8,6.7,13.1L293.1,271.1z"/>
	<path class="st0" d="M929.1,215.1c0.8,5.4,1.7,10.7,2.5,16.1c0.2,1.4,0.3,2.8,0.5,4.8c-3.5-0.4-6.4-0.6-9.2-1.1
		c-6.2-1.3-12.4-2.9-18.6-4.1c-3.5-0.7-7.1-1.1-10.7-1.6c-4.6-0.7-9.1-1.4-13.7-1.9c-4.4-0.5-8.9-0.8-13.3-1.2
		c-1-0.1-1.9-0.2-3.1-0.3c-0.9-3-0.5-6-0.3-8.9c0.2-2.3,0.7-4.6,0.8-6.9c0.4-9.8,0.2-19.6,1.2-29.3c0.7-6.5,0.1-13,0.9-19.3
		c0.9-6.6,0.2-13.3,1-19.8c0.8-6,0.5-11.9,0.9-17.8c0.3-4.4,0.9-8.8,1.4-13.7c2.3,2.3,5.1,3.4,6.1,6.5c0.1,0.4,0.6,0.8,0.9,1.2
		c9.3,9.1,16.4,19.9,24,30.3c3.9,5.3,7,11.2,10.5,16.8l0.2,0.2c1.5,3.6,2.8,7.3,4.5,10.8c4.4,9.7,7.9,19.8,10.6,30.2
		c0.8,3,1.8,5.9,2.8,8.8L929.1,215.1z"/>
	<path class="st0" d="M766.1,121.1c2.3,4.2,4.2,8.6,7,12.5c4.8,6.9,8.4,14.4,13,21.4c4.9,7.5,9.6,15.3,14.3,23
		c3.1,5.1,5.9,10.3,8.9,15.5c5.3,8.8,10.7,17.5,16,26.3c0.9,1.5,1.7,3.2,2.6,4.9c-0.9,0.4-1.6,1.1-2.1,0.9c-3.3-0.8-6.5,0.5-9.7,0.5
		c-7.6,0-15,1.6-22.5,2.7c-6.7,1-13.4,2.1-19.8,4.3c-2.7,0.9-4.9,3.3-8.6,2.5c-0.1-1.6-0.2-3.4-0.2-5.2c0-17.7,0.8-35.4-0.2-53
		c-1-17.5-0.3-34.9-0.7-52.4c0-1.7-0.8-3.7,1-5.1c0,0,0.3,0.3,0.3,0.3c0.2,0.2,0.4,0.4,0.7,0.7L766.1,121.1z"/>
	<path class="st0" d="M167.1,186.1c1.1,4.5,2.8,9,1.8,13.6c-1.2,5.5-2.7,10.9-5.2,16c-1.8,3.8-3.7,7.4-7,10.2
		c-1.2,1.1-2,2.7-2.5,3.5c-13-1.6-25.2-3.1-37.6-4.7c-0.2-0.4-0.6-0.8-0.7-1.2c-0.4-6.4-0.4-12.9-1.3-19.3c-1.1-7.9-0.6-15.9-1-23.8
		c-0.2-5.6-1-11.1-1.6-17c0.8-0.3,1.8-0.9,2.7-0.8c10.1,0.2,20.1,0.7,30,3c4.2,1,7.8,2.9,10.9,5.6c3.5,3,7,6.1,8.9,10.6
		c0.5,1.2,1.6,2.1,2.4,3.1l0,0c-0.1,0.1-0.4,0.2-0.4,0.2c0,0.2,0.1,0.4,0.2,0.6L167.1,186.1z"/>
	<path class="st0" d="M145.9,149.1c-1.2,0.5-2.6,0.7-3.7,1.4c-4.3,2.5-9.1,2.9-13.8,3.6c-3.7,0.5-7.5,1.2-11.2,1.8
		c-0.8,0.1-1.6,0-2.7,0c-0.5-2.6-1.3-5.1-1.5-7.7c-0.5-5.3-0.1-10.7-1.3-15.8c-1.3-5.8-0.3-11.7-1.5-17.5
		c-1.1-5.5-0.9-11.2-1.3-16.8c0.7-1.2,1.4-2.3,2.1-3.4c1.7-2.6,4-3.8,7.1-3.8c10.7,0,21.3,0,32.2,0c1,1,2.4,1.8,3.1,3.1
		c4.1,7.7,9.7,14.7,11.1,23.7c1.2,7.7,0.6,14.7-4.4,21.1c-2.4,3.2-5.1,5.5-8.6,7.2c-1.6,0.8-3,2-4.5,3l0,0c-0.3,0-0.5-0.1-0.8-0.1
		L145.9,149.1z"/>
	<path class="st0" d="M241,151c1.8-2,4-0.8,6.4-1c4.5,6.8,5.5,15,9.5,22.5c0.4,0.3,1.2,0.9,2.1,1.5c-0.5,0.5-0.7,0.7-0.9,1
		c-0.1-0.2-0.3-0.3-0.6-0.7c0.3,0.4,0.4,0.6,0.5,0.8c1,2.6,2,5.2,3,7.8l0.2,0.2c1.7,4.7,3.4,9.3,5,14c0.9,2.6,1.5,5.3,2.3,8.2
		c-3.8-0.2-2.9,2.9-3.8,4.6c-14,0-27.8,0-41.7,0c-0.8-1.5-1.7-3-2.8-4.9c2.6-6.2,5.2-12.7,7.9-19.2c3.1-7.8,6.2-15.6,9.3-23.4
		c0.4-1,0.5-2.2,0.8-3.3l0.2-0.2c0.9-2.3,1.9-4.5,2.8-6.8c0,0,0.3-0.3,0.3-0.3c0.1-0.1,0.2-0.2,0.3-0.2
		C241.3,151.4,241.2,151.2,241,151L241,151z"/>
	<path class="st0" d="M651.1,180.9c1.9-7.4,3.9-14.8,5.8-22.2c0.8-3.2,1.3-6.4,2-9.6l0.2-0.2c0.9-3.3,1.9-6.6,2.8-9.9
		c0.4-1.2,0.8-2.4,1.7-4.7c9.4,22.2,18.4,43.5,27.6,65c-3.9,1.4-7.5,0.6-11,0.7c-3.7,0.2-7.3,0-11,0s-7.3,0-11,0
		c-3.6,0-7.2,0.2-11.4-0.3c1.3-5.3,2.5-10.1,3.6-14.8c0.3-1.3,0.3-2.6,0.5-3.9L651.1,180.9z"/>
	<path class="st0" d="M563.1,163.9c0.2,0.4,0.5,0.9,0.7,1.3c-0.2,0.1-0.3,0.2-0.5,0.2c-0.2-0.4-0.3-0.9-0.5-1.3L563.1,163.9z"/>
	<path class="st0" d="M911.6,161.3C911.6,160.8,911.6,161.1,911.6,161.3C911.5,161.1,911.4,160.9,911.6,161.3z"/>
	<path class="st0" d="M174,39c-0.3,0.3-0.7,0.6-1,0.9c-0.1-0.2-0.2-0.3-0.3-0.5C173.1,39.3,173.6,39.1,174,39L174,39z"/>
	<path class="st0" d="M158,47c-0.3,0.3-0.7,0.6-1,0.9c-0.1-0.2-0.2-0.3-0.3-0.5C157.1,47.3,157.6,47.1,158,47C158,47,158,47,158,47z
		"/>
	<path class="st0" d="M402.7,333.4c0.1,0,0.2-0.1,0.4-0.1c0,0.2,0.1,0.4,0.1,0.5c-0.1,0-0.3,0-0.4-0.1
		C402.7,333.6,402.7,333.5,402.7,333.4z"/>
	<path class="st0" d="M158,47C158.1,46.9,158.3,46.7,158,47C158.3,46.7,158.1,46.9,158,47C158,47,158,47,158,47z"/>
	<path class="st0" d="M136.9,62.1c-0.1-0.2-0.2-0.4-0.4-0.6c0.3,0.2,0.5,0.3,0.6,0.4L136.9,62.1z"/>
	<path class="st0" d="M814.9,64.9c0.2-0.1,0.4-0.2,0.6-0.4c-0.2,0.3-0.3,0.5-0.4,0.6L814.9,64.9z"/>
	<path class="st0" d="M827,71C826.8,70.9,826.7,70.7,827,71C826.7,70.7,826.9,70.8,827,71L827,71z"/>
	<path class="st0" d="M827,71C827.1,71.1,827.3,71.3,827,71C827.3,71.3,827.1,71.2,827,71L827,71z"/>
	<path class="st0" d="M457.9,104.9c0.2-0.1,0.4-0.2,0.6-0.4c-0.2,0.3-0.3,0.5-0.4,0.6C458.1,105.1,457.9,104.9,457.9,104.9z"/>
	<path class="st0" d="M254.9,108.9c0.2-0.1,0.4-0.2,0.6-0.4c-0.2,0.3-0.3,0.5-0.4,0.6C255.1,109.1,254.9,108.9,254.9,108.9z"/>
	<path class="st0" d="M775.1,109.1c-0.2,0.1-0.4,0.2-0.6,0.4c0.2-0.3,0.3-0.5,0.4-0.6C774.9,108.9,775.1,109.1,775.1,109.1z"/>
	<path class="st0" d="M690,112c0.4,0,0.7-0.1,1.1-0.1c0,0-0.3,0.3-0.3,0.3C690.5,112,690.3,112,690,112C690,112,690,112,690,112z"/>
	<path class="st0" d="M689.9,113.1c0-0.4,0.1-0.7,0.1-1.1l0,0c0,0.3,0,0.5,0.1,0.8L689.9,113.1z"/>
	<path class="st0" d="M764.9,119.9c0.4,0,0.7,0.1,1.1,0.1l0,0c-0.3,0-0.5,0-0.8,0.1L764.9,119.9z"/>
	<path class="st0" d="M766,120c0,0.4,0.1,0.7,0.1,1.1l-0.3-0.3C766,120.5,766,120.3,766,120L766,120z"/>
	<path class="st0" d="M286.9,124.9c0.2-0.1,0.4-0.2,0.6-0.4c-0.2,0.3-0.3,0.5-0.4,0.6L286.9,124.9z"/>
	<path class="st0" d="M358.9,142.9c0.2-0.1,0.4-0.2,0.6-0.4c-0.2,0.3-0.3,0.5-0.4,0.6L358.9,142.9z"/>
	<path class="st0" d="M658,148C657.9,147.9,657.7,147.7,658,148C657.7,147.7,657.9,147.9,658,148L658,148z"/>
	<path class="st0" d="M658,148c0.4,0.3,0.7,0.6,1.1,0.9c0,0-0.2,0.2-0.2,0.2C658.6,148.7,658.3,148.4,658,148
		C658,148,658,148,658,148z"/>
	<path class="st0" d="M147,149c-0.4,0-0.7,0.1-1.1,0.1l0.3-0.3C146.5,149,146.7,149,147,149L147,149z"/>
	<path class="st0" d="M240.9,152.1c0-0.4,0.1-0.7,0.1-1.1l0,0c0,0.3,0.1,0.5,0.1,0.8L240.9,152.1z"/>
	<path class="st0" d="M809.1,154.1c-0.2,0.1-0.4,0.2-0.6,0.4c0.2-0.3,0.3-0.5,0.4-0.6C808.9,153.9,809.1,154.1,809.1,154.1z"/>
	<path class="st0" d="M907,155C906.9,154.9,906.7,154.7,907,155C906.7,154.7,906.9,154.9,907,155L907,155z"/>
	<path class="st0" d="M907,155C907.1,155.1,907.3,155.3,907,155C907.3,155.3,907.1,155.1,907,155L907,155z"/>
	<path class="st0" d="M811.1,157.1c-0.2,0.1-0.4,0.2-0.6,0.4c0.2-0.3,0.3-0.5,0.4-0.6C810.9,156.9,811.1,157.1,811.1,157.1z"/>
	<path class="st0" d="M237.9,159.1c-0.1-0.2-0.2-0.4-0.4-0.6c0.3,0.2,0.5,0.3,0.6,0.4L237.9,159.1z"/>
	<path class="st0" d="M910.9,164.9c0.2-0.1,0.4-0.2,0.6-0.4c-0.2,0.3-0.3,0.5-0.4,0.6L910.9,164.9z"/>
	<path class="st0" d="M650,180C649.9,179.9,649.7,179.7,650,180C649.7,179.7,649.9,179.9,650,180L650,180z"/>
	<path class="st0" d="M650.9,181.1c-0.3-0.4-0.6-0.7-0.9-1.1l0,0c0.4,0.3,0.7,0.6,1.1,0.9L650.9,181.1z"/>
	<path class="st0" d="M260.9,182.9c0.2-0.1,0.4-0.2,0.6-0.4c-0.2,0.3-0.3,0.5-0.4,0.6C261.1,183.1,260.9,182.9,260.9,182.9z"/>
	<path class="st0" d="M631.1,182.9c0.1,0.2,0.2,0.4,0.4,0.6c-0.3-0.2-0.5-0.3-0.6-0.4L631.1,182.9z"/>
	<path class="st0" d="M167,185c0,0.4,0.1,0.7,0.1,1.1l-0.3-0.3C167,185.5,167,185.3,167,185L167,185z"/>
	<path class="st0" d="M463,185C463.1,185.1,463.3,185.3,463,185C463.3,185.3,463.1,185.1,463,185L463,185z"/>
	<path class="st0" d="M845.1,202.1c-0.2,0.1-0.4,0.2-0.6,0.4c0.2-0.3,0.3-0.5,0.4-0.6L845.1,202.1z"/>
	<path class="st0" d="M847.1,205.1c-0.2,0.1-0.4,0.2-0.6,0.4c0.2-0.3,0.3-0.5,0.4-0.6L847.1,205.1z"/>
	<path class="st0" d="M543.1,206.9c0.1,0.2,0.2,0.4,0.4,0.6c-0.3-0.2-0.5-0.3-0.6-0.4L543.1,206.9z"/>
	<path class="st0" d="M13.9,215.1c-0.1-0.2-0.2-0.4-0.4-0.6c0.3,0.2,0.5,0.3,0.6,0.4C14.1,214.9,13.9,215.1,13.9,215.1z"/>
	<path class="st0" d="M928.9,214.9c0.2-0.1,0.4-0.2,0.6-0.4c-0.2,0.3-0.3,0.5-0.4,0.6L928.9,214.9z"/>
	<path class="st0" d="M270.9,219.9c0.2-0.1,0.4-0.2,0.6-0.4c-0.2,0.3-0.3,0.5-0.4,0.6L270.9,219.9z"/>
	<path class="st0" d="M200.1,228.9c0.1,0.2,0.2,0.4,0.4,0.6c-0.3-0.2-0.5-0.3-0.6-0.4L200.1,228.9z"/>
	<path class="st0" d="M537,234C536.9,233.9,536.7,233.7,537,234C536.7,233.7,536.9,233.9,537,234L537,234z"/>
	<path class="st0" d="M481.9,234.9c0.2-0.1,0.4-0.2,0.6-0.4c-0.2,0.3-0.3,0.5-0.4,0.6L481.9,234.9z"/>
	<path class="st0" d="M489.9,254.9c0.2-0.1,0.4-0.2,0.6-0.4c-0.2,0.3-0.3,0.5-0.4,0.6C490.1,255.1,489.9,254.9,489.9,254.9z"/>
	<path class="st0" d="M738,256c-0.4-0.3-0.7-0.6-1.1-0.9l0.2-0.2C737.4,255.3,737.7,255.6,738,256L738,256z"/>
	<path class="st0" d="M738,256C738.1,256.1,738.3,256.3,738,256C738.3,256.3,738.1,256.1,738,256L738,256z"/>
	<path class="st0" d="M292.9,270.9c0.2-0.1,0.4-0.2,0.6-0.4c-0.2,0.3-0.3,0.5-0.4,0.6C293.1,271.1,292.9,270.9,292.9,270.9z"/>
	<path class="st0" d="M500.9,282.9c0.2-0.1,0.4-0.2,0.6-0.4c-0.2,0.3-0.3,0.5-0.4,0.6L500.9,282.9z"/>
	<path class="st0" d="M552,317c-0.4,0-0.7,0.1-1.1,0.1l0.3-0.3C551.5,317,551.7,317,552,317L552,317z"/>
	<path class="st0" d="M453,385C452.9,385.1,452.7,385.3,453,385C452.7,385.3,452.9,385.1,453,385L453,385z"/>
	<path class="st0" d="M174,39C174.1,38.9,174.3,38.7,174,39C174.3,38.7,174.1,38.9,174,39C174,39,174,39,174,39z"/>
	<path class="st0" d="M211,212c-0.1,0.2-0.3,0.3-0.6,0.7C210.7,212.3,210.8,212.1,211,212L211,212z"/>
	<path class="st0" d="M690.1,112.8c-0.1-0.3-0.1-0.5-0.1-0.8c0.3,0,0.5,0,0.8,0.1C690.6,112.4,690.4,112.6,690.1,112.8z"/>
	<path class="st0" d="M552,317c-0.3,0-0.5,0-0.8-0.1C551.5,316.9,551.7,317,552,317z"/>
	<path class="st0" d="M766,120c0,0.3,0,0.5-0.1,0.8c-0.2-0.2-0.4-0.4-0.7-0.7C765.5,120,765.7,120,766,120z"/>
	<path class="st0" d="M167,185c0,0.3,0,0.5-0.1,0.8c-0.1-0.2-0.2-0.4-0.2-0.6C166.6,185.1,166.9,185.1,167,185z"/>
	<path class="st0" d="M147,149c-0.3,0-0.5,0-0.8-0.1C146.5,148.9,146.7,149,147,149z"/>
	<path class="st0" d="M241.1,151.8c-0.1-0.3-0.1-0.5-0.1-0.8c0.2,0.2,0.3,0.4,0.5,0.6C241.4,151.6,241.3,151.7,241.1,151.8z"/>
	<path class="st0" d="M257.9,175.1c-0.1-0.2-0.2-0.3-0.5-0.8C257.7,174.7,257.9,174.8,257.9,175.1L257.9,175.1z"/>
</g>
</svg>
