<svg xmlns="http://www.w3.org/2000/svg" width="2253" height="732" viewBox="0 0 2253 732">
  <defs>
    <style>
      .cls-1 {
        fill: #fff;
        fill-rule: evenodd;
      }
    </style>
  </defs>
  <path class="cls-1" d="M1084.5,266.5c0.67,0.333,1.51-1.046,2.92,1.672,7.78,16.2,20.55,39.172,26.85,70.328,2.42,13.667-.86,27.333-5.85,42.262-1.91,5.407-5.61,13.349-9.64,21.689C1085.21,424.8,1086.13,423.283,1085,423a168.054,168.054,0,0,1-21.27-35.5c-11.69-23-14.03-46-3.5-70.267C1069.29,293.769,1075.69,283.031,1084.5,266.5Z"/>
  <path class="cls-1" d="M1148,500h115s-67.34,39.114-75,49h-72l-2,145s-37.05-86.221-58-96V549H989s-62.446-48.6-82-49c-14.059-.29,113,0,113,0h128Zm-65-286c82.29,0,149,67.157,149,150s-66.71,150-149,150S934,446.843,934,364,1000.71,214,1083,214Zm2.4,40.6c50.8-.219,92.25,40.253,92.58,90.4s-40.59,90.972-91.39,91.191-92.254-40.252-92.583-90.4S1034.59,254.822,1085.4,254.6Z"/>
  <path class="cls-1" d="M43,40l338-5s112.942,86.186,20,192c71.859,36.1,72,89,72,89s53.251-16.863,83-19c13.32-30.614,42.891-88.709,40-97s-39.043-41-61-41,120,1,120,1S773.356,440.012,791,460c23.64-12.866,34.915-19.856,36-22,1.039-2.053,3.821-8.846,5-28,1.164-18.9,1.321-57.554,0-60S681,142,681,142,637.611,96,546,96H735L868,279s50.146-57.513,56-71c4.864-11.206,6.488-13.441-1-18s-39.116-27-64-27h168L900,346s-4,5.653-4,11,0.911,68.408,4,75,19.859,18.778,36,25a270.473,270.473,0,0,1,27,12H796s28.522,46.465,69,62,68.2,21.606,99,16c-34.532,16.668-49.088,23.117-102,20s-100.26-43.207-113-60-26-37-26-37H475l74-158s-54.048,37.439-86,88-30.792,100.255-28,119,4.123,78.932,45,118c40.041,38.269,61.557,51.777,89,62-51.951-4.271-68.855-10.209-103-23-48.435-24.834-78.981-51.832-93-95-17.562-54.077-13-108-13-108H145s63.405-41.492,71-121c2.555-29.352,4.619-53.923,6-74,2.374-34.512,3.046-59.187,3-64-1.637-20.713,9.813-118.878-50-136S43,40,43,40Zm261,63V206h37s24.493-21.452,6-68c-6.258-11.646-10.661-19.131-16-25-3.305-3.633-6.626-8.282-12-10H304Zm1,163,1,134s5.843,7.957,23,9,24.334,0.965,35-6,17.677-22.087,18-30,0.149-25.991-4-40-7.533-31.387-17-42-23.907-23.1-32-25C320.092,265.565,305,266,305,266Zm351,53v89h43Zm-47,0v90H566Z"/>
  <path class="cls-1" d="M1290,163H1160s70.06,25.489,77,45,3,59,3,59l1,89s0.26,18.777,2,25,13.27,43.754,31,56c19.12,13.208,62,42,62,42l47,31s-41.35-49.549-51-65-22.69-29.672-26-47-5-112-5-112l175,223V479h117s-6.27,27.5,0,51,7,29,7,29,8.04-45.426,16-63,17.85-38.778,49-54V551s22.26,16.951,32,45,33,108,33,108l6-531h10V427s15.91,6.75,27,31,37,98,37,98V470h223s29.91,47.016,50,61,17.74,29,92,29,53-1,53-1-70.96-9-112-75c-41.35-66.507-154-322-154-322l-89,2s25.06-45.738,54-59H1736V93h206s68.97-66,123-66H1240s155.79,23.567,199,66h225v13H1460s74.71,37.946,85,67h119v10H1475V163H1333s48.63,15.586,63,24,15.05,7.929,16,15,2,125,2,125Zm185,42V466s21.39-17.871,23-32,1.8-37.639,2-43-0.05-78.837,0-85-1.7-65.552-2-72,1.11-11.888-4-16S1475,205,1475,205Zm190,3V419H1559V351h42c-2.05,0,10.45-1.767,13,13s4,20,4,20l27-85h-87V236s48.03-1.353,64-1,14.6,5.67,16,18,2,28,2,28Zm204-39-1,4h-54l-2,241s40.94-86.05,43-91,38.18-84.7,41-91c3.11-6.95,17.04-30.5,9-38S1869,169,1869,169Zm50,147v95h-47Zm44-1v96h47Z"/>
</svg>
