<?xml version="1.0" encoding="utf-8"?>
<!-- Generator: Adobe Illustrator 19.0.0, SVG Export Plug-In . SVG Version: 6.00 Build 0)  -->
<svg version="1.1"
	 id="svg3336" xmlns:rdf="http://www.w3.org/1999/02/22-rdf-syntax-ns#" xmlns:cc="http://creativecommons.org/ns#" xmlns:dc="http://purl.org/dc/elements/1.1/" xmlns:svg="http://www.w3.org/2000/svg"
	 xmlns="http://www.w3.org/2000/svg" xmlns:xlink="http://www.w3.org/1999/xlink" x="0px" y="0px" viewBox="294 177.3 1200 438.8"
	 style="enable-background:new 294 177.3 1200 438.8;" xml:space="preserve">
<style type="text/css">
	.st0{fill:#FFFFFF;}
</style>
<g>
	<path class="st0" d="M1479.8,235.3c0.4,94.8,0.8,188.9,1.3,283.4c-7.6,1.1-14.7,2.2-21.8,3.2c-5,0.7-10.1,1.4-15.1,2.1
		c-6.2,0.9-12.4,1.8-18.6,2.7c-7.4,1-14.7,2-22.1,3c-5.9,0.8-11.8,1.6-17.7,2.4c-7.8,1.1-15.6,2.4-23.4,3.5
		c-5.5,0.8-11.1,1.4-16.6,2.2c-5.7,0.8-11.4,1.7-17.1,2.5c-5.4,0.8-10.8,1.5-16.2,2.2c-8,1.1-16,2.2-24.1,3.3
		c-8,1.1-16,2.1-24.1,3.1c-5.2,0.7-10.4,1.5-15.6,2.2c-5.5,0.8-11,1.8-16.5,2.6c-8.3,1.2-16.6,2.5-24.9,3.6
		c-7.4,1-14.8,1.9-22.1,2.9c-8.2,1.1-16.3,2.3-24.5,3.5c-7.7,1.1-15.3,2-23,3.1c-8,1.1-15.9,2.4-23.9,3.6c-7.5,1.1-15,2.1-22.6,3.1
		c-8,1.1-16,2.2-24.1,3.3c-8,1.1-16,2.1-24,3.2c-5.1,0.7-10.1,1.3-15.2,2.1c-8.1,1.2-16.2,2.5-24.4,3.7c-10.1,1.5-20.2,2.9-30.4,4.3
		c-8,1.1-16.1,1.9-24.1,3.1c-7.6,1.1-15.3,2.5-22.9,3.6c-5.7,0.8-11.5,1.3-17.1,2.2c-3.4,0.5-6.7,1.8-10.1,2.2
		c-3.2,0.4-6.6,0.5-9.9,0c-10.6-1.6-21.1-3.5-31.6-5.2c-15.3-2.4-30.7-4.8-46.1-7.1c-9.3-1.4-18.6-2.6-27.9-4
		c-9.3-1.4-18.5-3.1-27.7-4.6c-7.3-1.1-14.7-2.1-22.1-3.1c-6.5-0.9-13.1-1.9-19.6-2.9c-8-1.2-16-2.2-24-3.5
		c-9.1-1.4-18.1-3.1-27.2-4.6c-7-1.1-14-2.1-21-3.1c-11.4-1.7-22.8-3.5-34.3-5.2c-7.3-1.1-14.7-2-22-3c-6.7-1-13.3-2.1-20-3.1
		c-5.5-0.9-11-1.8-16.5-2.7c-9.1-1.4-18.2-2.9-27.4-4.3c-7.4-1.1-14.7-2-22.1-3.1c-6.7-1-13.3-2-20-3.1c-5.5-0.9-11-1.8-16.5-2.7
		c-11.6-1.8-23.1-3.7-34.7-5.4c-9.3-1.4-18.7-2.4-28-3.9c-9.1-1.4-18.1-3.1-27.2-4.6c-7.5-1.2-15-2-22.5-3.1
		c-6.4-0.9-12.7-2-19.1-2.9c-5.4-0.8-10.8-1.6-16.2-2.5c-2.3-0.4-4.5-0.8-7.2-1.3c-0.4-92.6-0.8-185.1-1.2-277.9
		c2.8-0.6,5.2-1.3,7.6-1.6c16.5-2.3,33-4.5,49.5-6.7c15.2-2,30.3-4.2,45.5-6c16-1.9,32.1-3.5,48.2-5.1c16.2-1.6,32.5-3.1,48.7-4.4
		c14.4-1.2,28.9-2.3,43.3-3.3c16.4-1.2,32.9-2.4,49.3-3.5c16.6-1.1,33.3-2,49.9-3c13.6-0.8,27.3-1.6,40.9-2.3c11-0.6,22-1,33-1.4
		c8.2-0.3,16.3-0.7,24.5-1c26-1,51.9-1.9,77.9-2.9c14.5-0.6,29-0.8,43.4-2.1c14.3-1.2,28.6-0.7,42.9-0.5c26.3,0.3,52.7,0.8,79,1.4
		c19.1,0.5,38.3,1.4,57.4,2.1c12,0.4,24,0.7,36,1.1c15.8,0.6,31.6,1,47.4,1.9c29.1,1.7,58.2,3.5,87.2,5.6
		c17.4,1.2,34.9,2.8,52.3,4.4c14.6,1.3,29.2,2.7,43.7,4.3c22.3,2.5,44.7,5.1,67,7.8c31.4,3.8,62.6,9,93.6,15.2
		C1476.7,234.5,1478.1,234.9,1479.8,235.3z M1466.9,502.2c0-85.7,0-170.6,0-255.8c-1.6-0.4-3-0.9-4.4-1.1
		c-12.6-1.5-25.1-3.1-37.7-4.4c-23.3-2.5-46.7-4.9-70-7.2c-15.6-1.5-31.2-3-46.8-4.3c-21.7-1.8-43.5-3.5-65.2-5.2
		c-9.6-0.8-19.3-1.6-28.9-2.2c-17.4-1.2-34.9-2.2-52.3-3.3c-12.5-0.8-24.9-1.7-37.4-2.4c-15-0.8-30-1.2-44.9-2.1
		c-30.6-1.7-61.3-2.3-91.9-2.5c-24.7-0.2-49.3-0.7-74-0.9c-20.2-0.1-40.3-0.1-60.5,0.2c-12.8,0.2-25.6,1.1-38.4,1.7
		c-12.5,0.6-25,1.2-37.4,1.9c-15.5,0.8-30.9,1.7-46.4,2.5c-11.3,0.6-22.6,1.2-33.9,2c-16.4,1.1-32.9,2.5-49.3,3.7
		c-19.4,1.4-38.9,2.7-58.3,4.3c-27.7,2.2-55.4,4.5-83.1,6.8c-15.8,1.3-31.5,2.7-47.2,4.2c-18.6,1.8-37.1,3.6-55.7,5.5
		c-22.8,2.4-45.7,4.8-68.5,7.3c-1.9,0.2-3.7,0.8-5.7,1.3c0,2.7,0,4.9,0,7.1c0,60.5,0,121,0,181.5c0,9.8,0.1,19.7,0.4,29.5
		c0.2,6.3,0.7,14.3,1,20.6c0.2,3.7,0.3,5.1,0.4,6.8c2.4,0.4,3.8,0.5,9.9,1.3c0.3,0,0.7,0.1,1,0.1c13.4,2,26.8,4.1,40.3,6.1
		c11.3,1.7,22.5,3.4,33.8,5.2c11.5,1.8,22.9,3.6,34.4,5.4c13.1,2,26.3,4,39.5,6c10.8,1.7,21.6,3.5,32.4,5.1c9.7,1.5,19.3,2.9,29,4.3
		c11.3,1.7,22.6,3.3,34,5c6.8,1,13.7,2,20.5,3.1c7,1.1,13.9,2.5,20.9,3.6c9.6,1.5,19.3,2.8,28.9,4.3c10.6,1.6,21.1,3.4,31.7,5
		c9.4,1.4,18.9,2.7,28.3,4.1c9.8,1.5,19.5,3.1,29.3,4.6c8.7,1.3,17.3,2.5,26,3.8c9.3,1.4,18.5,3.1,27.7,4.5c7,1.1,14,2,21,3.1
		c7,1.1,13.9,2.6,21,3.5c9.7,1.3,19.4,2.5,28.8,5.1c4.6,1.3,9.3,3.2,14,3.4c11.8,0.6,23.6,0.6,35.3-1.2c12-1.8,24.1-3.7,36.1-5.6
		c7.7-1.2,15.4-2.3,23-3.4c7.3-1,14.7-2,22-3c4.9-0.7,9.8-1.3,14.7-2c7.5-1.2,14.9-2.6,22.3-3.7c8-1.2,16-2.3,24-3.4
		c7.4-1,14.8-1.9,22.1-3c7-1,14-2.1,21-3.1c7.6-1.2,15.2-2.4,22.9-3.6c7.3-1.1,14.7-2,22-3.1c7.5-1.1,15-2.2,22.5-3.3
		c7.8-1.2,15.7-2.3,23.5-3.5c7-1,14-2.1,21-3.1c5.8-0.9,11.7-1.8,17.5-2.6c5.1-0.7,10.1-1.5,15.2-2.2c7.7-1.1,15.4-2.2,23.1-3.3
		c7-1,14.1-2.1,21.1-3.1c7.3-1,14.7-2,22-3.1c7.6-1.2,15.2-2.5,22.9-3.7c7.5-1.1,15.1-2,22.6-3.1c9.4-1.3,18.7-2.8,28-4.1
		c11.8-1.7,23.6-3.3,35.4-5c10.3-1.5,20.6-3.1,30.9-4.7C1458.4,503.6,1462.4,502.9,1466.9,502.2z"/>
	<path class="st0" d="M452.6,365.1c2.3,0.5,3.6,0.9,5,1c4.2,0.3,7.6,2.2,10.5,5.2c14.5,15.1,22.2,43,3.9,65.1
		c-8.2,9.9-19.5,14.9-32.3,16.1c-9.3,0.8-18.6,1.1-27.9,1.2c-13.7,0.2-27.3,0.1-41,0.1c-1.6,0-3.3,0-4.8,0c-1.1-4-1.4-153-0.4-159.5
		c1.3-0.1,2.8-0.3,4.2-0.3c19.7,0,39.3,0.1,59,0.2c4.5,0,9,0.5,13.4,1.1c7.5,0.9,13.9,4.5,19.6,9.3c3.8,3.2,6,7.6,7.2,12.3
		c3.6,14.8,0.3,28-9.6,39.6c-1.2,1.4-2.6,2.6-3.8,4C454.7,361.7,453.9,363.1,452.6,365.1z M393.1,422.1c5.6,0.7,10.6,1.6,15.7,1.9
		c9.3,0.5,18.6,0.4,27.8-1.6c7.3-1.6,15.2-9.7,14.2-20.9c-0.8-9.1-8.2-16.4-17-16.6c-12.5-0.3-24.9-0.7-37.4-1
		c-1.1,0-2.2,0.4-3.4,0.6C393.1,396.9,393.1,409,393.1,422.1z M393.2,352.5c11.5-0.4,22.3-0.7,33.1-1.2c1.1,0,2.3-0.5,3.4-0.8
		c3.9-1.1,6.3-3.7,7-7.7c0.8-5.3,0.9-10.6-0.5-15.8c-0.9-3.2-2.8-5.3-6.1-5.9c-2.1-0.4-4.3-0.9-6.4-0.9c-9.2-0.2-18.3-0.2-27.5-0.3
		c-0.9,0-1.9,0.4-2.9,0.6C393.2,330.9,393.2,341.2,393.2,352.5z"/>
	<path class="st0" d="M1056,290.7c5.3,0.4,10.6,0.6,15.9,1.1c13.7,1.4,25.5,7.7,36.2,15.8c42.5,32.5,43.2,93.3,5,128.4
		c-15.3,14.1-33.7,20.6-54.6,21.1c-40.6,1-75.8-29.6-82.8-66.7c-5.9-31.3,3-57.8,26.7-79.3c5.8-5.3,12.4-9.5,19.3-13.2
		C1032.4,292.3,1044,290.7,1056,290.7z M1004.2,375.1c0.2,2.3,0.4,5.9,0.9,9.5c1.8,13.6,9.9,23.3,20,31.7c4.2,3.5,8.7,6.9,14.2,8.2
		c18.7,4.3,36.5,4.2,52-9.9c14.6-13.3,22-28.9,18.9-48.8c-4.3-27.3-28.1-47.5-57.2-45C1024.4,323.3,1004.4,345,1004.2,375.1z"/>
	<path class="st0" d="M714.2,372c-0.4,6.1-0.3,12.4-1.4,18.4c-1.1,5.8-2.6,11.8-5.2,17.1c-13.3,27.6-35.1,44.6-65.8,48.2
		c-26.3,3.1-49.3-4.7-68.4-23.4c-13-12.7-21.4-27.8-24.4-45.9c-3.5-21.2,0.8-40.8,12.4-58.6c14.2-21.8,34.4-35,60.3-38.6
		c18.7-2.6,36,2.6,52.1,11.8c17.9,10.1,29.4,25.7,37,44.4c2,5,2.8,10.3,3,15.6c0.1,3.7,0,7.3,0,11C713.9,372,714,372,714.2,372z
		 M631.7,425.9c27.7,2.1,53-24.2,53.1-53.2c0-26.5-23.2-54.6-54.8-53.8c-23.9,0.6-51.3,19.4-52,55
		C577.5,399.9,601,427.5,631.7,425.9z"/>
	<path class="st0" d="M952.3,449.6c-9.5,0-19.1,0-28.9,0c-0.3-20.9-0.7-41.5-1-61.8c-2.2-2.3-4.9-2.5-7.2-2.6
		c-15.6-0.5-31.3-0.8-46.9-1.2c-0.2,0-0.3,0.1-1.1,0.3c-0.4,5-0.1,10.3-0.2,15.6c0,5.3,0,10.7,0,16c0,5.2,0,10.3,0,15.5
		c0,5.3,0,10.6,0,16.3c-9.9,0-19.4,0-29,0c-0.9-3.6-1.3-145-0.4-155.3c8.8-0.4,17.7-0.1,27-0.1c0.8,19.2,1.7,38.3,2.5,57.2
		c4.2,1,50.5,1.2,56.2,0.1c0-9.1-0.1-18.4,0-27.7c0.1-9.3-0.7-18.6,1.8-28c9.2-1.9,18.1-1.4,27-1.8
		C953.1,295.8,953.4,443.3,952.3,449.6z"/>
	<path class="st0" d="M1284.2,339.5c-2.9-2.6-5.1-4.9-7.6-6.7c-4-2.9-8-6.2-12.5-8.1c-9.7-4.1-19.7-7.4-30.5-6.4
		c-21,2-35,13.4-42.5,32.9c-5.6,14.5-5.4,29.4-0.7,44.1c1.9,6.1,5.2,11.6,9.9,16c16.2,14.9,35,21.4,57,16.9
		c9.9-2.1,18-7.7,25.3-14.5c1.7-1.6,3.4-3.1,5.3-4.8c5.2,2.2,10.2,4.4,14.6,7.8c3.8,2.9,4.2,6,1.7,10.1c-0.6,1-1.4,1.9-2.1,2.8
		c-6.2,7.2-13.2,13.6-21.3,18.8c-6.3,4-13.4,6.1-20.7,6.7c-13,1.2-26,0.9-38.9-1c-8.9-1.3-16.7-5.6-24.3-10.2
		c-11.5-7-21.3-15.9-29.6-26.5c-7.9-10.1-11.4-21.8-12.2-34.3c-0.9-13.1,0.7-25.9,4.4-38.5c2.4-8.1,5.9-15.5,11.5-22
		c7.1-8.3,14.8-15.7,23.9-21.8c13-8.7,27.4-12.8,43-12.5c17.4,0.3,34.1,4,48.9,13.6c5.3,3.4,10.2,7.5,14.7,11.9
		c4.9,4.7,4.8,7.7-0.2,12.1C1295.9,330.4,1290.2,334.7,1284.2,339.5z"/>
	<path class="st0" d="M1383.4,363.6c1.9,3.2,3.6,6.5,5.7,9.4c14.9,21.5,29.8,42.9,44.7,64.4c2.8,4.1,5.5,8.2,8.3,12.4
		c-4.4,2-19.4,3.2-33.9,2.7c-16.3-22.8-32.8-45.9-49.3-69c-1.9,22-2,43.8-2.1,66c-9.6,0-18.9,0-28.6,0
		c-0.4-51.6,0.7-103.2,0.9-155.1c10,0,19.6,0,29.7,0c0,1.9,0,3.7,0,5.5c0.1,14.3,0.3,28.7,0.5,43c0,2.2,0.4,4.5,0.8,8
		c9-9.6,16.2-19.1,23.6-28.4c7.5-9.4,14.9-18.8,22.1-28c13.2-1,19.6-0.6,24.5,1.6c1.3,2.2,0.2,4.2-1,6c-2.5,3.9-5.2,7.8-8,11.5
		c-11.4,14.9-23,29.8-34.5,44.7C1385.8,359.9,1384.8,361.6,1383.4,363.6z"/>
	<path class="st0" d="M815.2,312.5c-6.2,6-12.2,11.8-18.5,17.8c-4.7-2.8-8.9-5.4-13.1-8c-2.3-1.4-4.5-2.9-6.9-4.1
		c-6.4-3.1-13-1.7-17.1,3.4c-3.8,4.8-4.1,12.8,0.1,17.6c4.5,5.1,9.5,9.8,14.4,14.5c13.4,12.8,26.9,25.3,39.1,39.3c7.9,9,9,19,6,29.8
		c-4.7,16.6-16.7,26.1-32.6,30.7c-10.4,3-21.1,2.6-31.7,0.3c-16.3-3.7-26.6-14.3-33.2-29.1c-0.1-0.3,0-0.6,0-1.5
		c5.5-5.4,12.6-9.1,19.9-13.2c1.7,2,3.3,3.9,4.8,5.8c4.8,5.9,10.5,10.6,17.3,14.1c4.3,2.2,8.5,2.5,13,0.7c6-2.4,10.5-6.3,13.7-11.9
		c1.7-3,2.3-6.2,1.4-10.5c-3.7-4.2-7.6-9.1-12-13.6c-13.1-13.5-26.5-26.7-39.7-40.1c-2.2-2.2-4.2-4.7-6.3-7.1
		c-9.7-11.1-10.5-30.6,1.3-43.5c15.4-16.8,38.8-20.3,58.7-8.6c2.4,1.4,4.8,3,7,4.8C805.4,304.2,810.1,308.2,815.2,312.5z"/>
	<path class="st0" d="M497.8,294.4c8.7,0,17.5,0,26.8,0c0.9,52.9,1.7,105.8,2.6,158.5c-3.7,1.3-21.2,1.6-29.1,0.7
		c-0.1-0.1-0.2-0.2-0.3-0.3c-0.1-0.1-0.3-0.2-0.3-0.4c-0.1-1.2-0.3-2.3-0.3-3.5c0-51.1,0-102.2,0.1-153.3
		C497.2,295.6,497.6,295.1,497.8,294.4z"/>
</g>
</svg>
