<?xml version="1.0" encoding="utf-8"?>
<!-- Generator: Adobe Illustrator 19.0.0, SVG Export Plug-In . SVG Version: 6.00 Build 0)  -->
<svg version="1.1" id="Layer_1" xmlns="http://www.w3.org/2000/svg" xmlns:xlink="http://www.w3.org/1999/xlink" x="0px" y="0px"
	 viewBox="153 309.9 918 174.1" style="enable-background:new 153 309.9 918 174.1;" xml:space="preserve">
<style type="text/css">
	.st0{fill:#FFFFFF;}
</style>
<path class="st0" d="M314.1,424.4c0,0.1,0.1,0.1,0.1,0.2C314.2,424.6,314.1,424.5,314.1,424.4z M314,424.2l0.1,0.1
	C314,424.3,314,424.2,314,424.2z"/>
<path class="st0" d="M314.2,424.6c0,0.1,0.1,0.1,0.1,0.2C314.3,424.7,314.2,424.7,314.2,424.6z M313.3,423
	C313.3,423,313.3,422.9,313.3,423C313.3,422.9,313.3,423,313.3,423c-1.7-3-1.9-18.1-8.5-15.2c3.2-6.2-23.8-14.5-28.3-16.3
	c6.1-1.5,13.6-3,17.5-8.4c2.8-3.8,7.6-7.2,8.7-11.9c3.2-13.6,4.3-24.5-5.6-35.6c-7.8-8.8-29.5-12.1-40.2-9.3c-2.5,0.1-18.3,2-18,2.7
	c-3.2,0.9-14.8,2.3-14.6-0.2c-5.8,0.5-10.1-1.2-16.2-2.2c-2.7-2.3-3.5,2.4-3.1,3.6c0.7-0.6,0.5-0.2,1.6-0.1c0,0-0.1,0.1-0.2,0.1
	c1,1.6,4.5,1.4,5.7,2.4c-0.8,4.1,2,2.9,3.5,5.9c1.6,3.4-1.8,7.2,3.8,8.9c0.1,5.5-0.2,11,0.1,16.4c-2.1,1,1.3,20.1,0.6,22.7
	c-1.3,4.8-1,9.8-1,14.9c0,6.6-2.4,19.9,0.4,25.8c-0.3,5.4-0.3,10.9-0.3,16.4c-3.1,0.8-1.8,7.2-2.7,9.1c-2.6,5.2-5.7,5.2-10.4,6.1
	c-7.5,1.5-15.2,4.4-22.5,6.9c-5,1.7-8.8,3.4-13.5,5.5c-1.1,0.5-13.9,5.1-7,7.3c4.6,1.4,24.5-12.8,25-11.1
	c22.8-9.1,46.2-3.2,69.9-3.2c7.7,1.5,19-0.8,27-2.1c2.9,2.1,12.5-6,14.1-7.1C307.1,451.4,319.3,433.6,313.3,423z M251.3,330.8
	c17.2-0.1,31.5,3.1,35.8,20.5c4,16.1-3.9,32.8-20.3,36.9c-7.3,1.8-17-0.8-23.8-3.4c-8.6-3.2-9.5-6.7-9.5-15
	C234.6,354.8,233,334.7,251.3,330.8z M295.1,437.3c-1.1,12.2-13.9,18.1-23.9,21.4c-8.2,2.7-19-0.3-25.4-5.6c1.6-0.8-3-6.6-4.3-7.2
	c-3.2-1.4-6.6-0.9-6.9-5.9c-0.4-6-1-11.9-1-18.3v-21.4c0-3.8,0.1-7.6,0.2-11.4c0.3-8.6,10.5,2.7,14.6,2.8c4.6,0.1,9.4,1.9,14,2.7
	c7.6,1.5,17.5,3.5,24.6,8.2C298,409.9,296.1,425.8,295.1,437.3z"/>
<path class="st0" d="M314.3,424.8C314.3,424.9,314.4,424.9,314.3,424.8z M313.4,423.1c0,0,0-0.1-0.1-0.1
	C313.3,423,313.3,423.1,313.4,423.1z M314,424.3C314.1,424.4,314.1,424.4,314,424.3z M313.6,423.4c0.1,0.1,0.1,0.2,0.2,0.3
	C313.7,423.7,313.6,423.6,313.6,423.4z M313.4,423.1C313.4,423.1,313.4,423.2,313.4,423.1C313.4,423.2,313.4,423.1,313.4,423.1z
	 M313.4,423.2c0.1,0.1,0.1,0.2,0.2,0.3C313.5,423.4,313.5,423.3,313.4,423.2z M313.7,423.7c0.1,0.1,0.1,0.2,0.2,0.3
	C313.8,423.9,313.8,423.8,313.7,423.7z M975.4,458.9c-15.6,0-12-14.2-12.1-26c0-10.7,2.5-28-1.8-37.5c-2.5-7.7-14-17.9-22.3-17.9
	c-2.6,0-6.8,6.6-9,8.2c-5.5,4.1-12.8,7.8-17.3,13.5c0.3-1.9-0.4-3-0.7-4.1h0.1c0-1.8-2-6.9-2.2-7.3c-2.3-0.7-10-5.9-10.2-7.9
	c-2.9,1.3-3.7,4.7-4.9,5.9c-1.4,0.5-9.6,5.8-7.9,7.1c6.4,0.1,11.8-2.6,14,6.5c-0.9-0.1-0.4,35.2-0.4,39.6c0,7.7,1.3,15.5-7.8,18.5
	c-1.2,0.4-14.8,2-9.5,5.8c3.9-0.1,11-2.4,13.6-2.1c6.4,0.7,12.9-0.1,19.8,0.7c0.8,1.5,8.6,1.3,10.5,0.7c2.4-2.9-7.3-4.6-9.1-5.7
	c-7.3-4.8-3.9-24.5-3.9-32s-3.1-18.1,2.8-24.3v0.3c1.2-0.1,4.5-2.3,4.5-3.5c0-1.7,4.5-1.9,5.8-2.5c6.3-2.5,14-1.7,18.5,3.1
	c0.2,1.9,2.6,8.2,3.7,9.9c0.4,2.6,0,5.5,0,8.1l0.1,24.5c0.1,4.8,1,9.3-2.8,12.6c-3.2,2.7-6.6,5.4-10.9,6.1c-3,0.5-0.9,4.3,1.7,3.7
	c1.9,2.1,22.7-0.2,26.3-0.4C968.3,462.6,978.9,465.8,975.4,458.9C974.2,458.9,976.1,460.2,975.4,458.9L975.4,458.9z M904.2,393.7
	c-0.1-0.2-0.3-0.4-0.4-0.7C903.9,393.2,904.1,393.4,904.2,393.7z M896.6,384.8c0,0.1-0.1,0.2-0.1,0.3
	C896.3,384.9,896.4,384.8,896.6,384.8z M726.1,425.8c4-1.2-4-24.2-4.5-28c-1.4-0.2-0.1,0.5-0.6,1c-6.2-8.9-11.6-19.9-23-22.7
	c-1.9-0.5-9.8-0.3-14.2-0.6c-1.5,0.1-3.1,0.2-4.6,0.4c-0.3,0.4-1.1,0-2,0.3c0.4,0.7-0.1,0.3,0.5,0.6c-6.6,1.6-13,5.9-17.5,11
	c-0.3-13.7,0.6-28.3-1.1-41.9c0-6.9-0.8-14.5,2.1-21c2.2-4.9,9.3-4.9,9.5-10.6c-8.8,0-17.7,9.5-20.6,17c-3.8,9.7-8.5,11.8-17.5,14.7
	c1.6,3.5,7.8,2.7,10.2,4.2c2.9-1.1,2.8,19.2,2.8,22.8c0,4.1,0.3,29.8,0.8,29.8c2.3,4.2,0.1,16.7,0.2,21.4
	c0.3,10.6,1.7,25.7-5.9,34.3c-1,1.2-8.1,3.6-5.3,5.6c1.8,1.3,13.7-2.9,16.7-3c7.6-0.2,14.4,1.4,21.9,3c14.6,3,33.3-3.2,42.9-14.8
	c3.5-4.3,11.4-18.1,9.5-23.2C726.2,426.1,726.2,426,726.1,425.8L726.1,425.8z M648.7,349.7c0.5-0.2,1-0.6,1.3-1
	C649.8,349.6,649.7,350,648.7,349.7z M653.5,397.8v0.5C653.3,398.1,653.3,398,653.5,397.8z M711.7,432.3
	c-0.8,5.5-3.3,18.5-10.2,20.7c0.3,1-8.3,3.5-8.8,3.7c-7.5,2.1-14.9,2.8-22.2,0.1c-11.5-4.3-9.2-18-10.5-27.9
	c-1-7.9,0.8-15.9,0.6-23.6c-0.3-10.6,1-11.8,9.4-17.6c14.9-10.3,35.1,6.2,39.5,19.6C712.2,415.4,712.8,424.5,711.7,432.3z"/>
<path class="st0" d="M671.6,460.3C672.6,460.4,674,460.8,671.6,460.3C671.6,460.3,672,460.4,671.6,460.3z M693.6,385.2
	C692.8,385.5,692.8,384.8,693.6,385.2C693.6,385.2,693.4,385.1,693.6,385.2z M639,460.3C639,460.3,639,460.4,639,460.3
	C639,460.4,639,460.4,639,460.3z M876.9,383c-4.3,4.9-12.4,8.5-15-1.8c-1.2,0.4-0.4,1-1.5,0c-5.2,1.4-11.2,9.6-19.9,6.3
	c-0.7-3.1-10.2-4.1-11-7.7c-3.2,0.4-1.7,2.2-2.8,2.8c-3.3,0-5.8,3-7.9,5.1c-6.2,6,8.5,6.7,11.5,10.7c4.2,5.5,1.2,17.1,1.2,23.7
	c0,13.6,6.4,36.4-13.3,36c-0.2,5.9,20.7,2.8,24.8,2.9c4.3,0.1,8.9,1.4,13.1,1.1c-0.7,0,2.8-1.8,1.4-1.7c-0.3-3.1-5.9-1.6-7.7-3.2
	c-2.9-2.6-3.8-6.9-4.2-10.6c-0.9-8.7-3.4-52.1,6.4-50.1c7,1.4,7.4,10,14.3,3.5c4.3-4.1,11.7-10.9,12.2-17.3
	C877.7,382.4,877.1,382.4,876.9,383L876.9,383z M844.5,457.5c0.1,0,0.1-0.1,0.1-0.1C844.7,457.5,844.6,457.6,844.5,457.5z
	 M519.8,407.8c-2.6-1-3.2-6.9-5.1-9.3c-2.9-3.8-9.9-11.2-14.7-12.3c-4.9-3.1-13.7-8.7-20.1-6.8c-1.6,0.5-1,5.6-1.9,7
	c-1.2,1.3-15.9,7.7-15.8,9.2c-6.3,1.3-12.4,14.4-13.9,19.8c-0.8,3-0.7,6.7-0.5,9.7c0.3,11.9,6.9,21.8,16.4,29.7
	c3.9,3.3,23,14.7,25.8,10.7c2.2-2,2.6-6.3,4.1-8.8c1-1.7,4.2-1.9,6-2.6c8.2-3.4,13.4-9.3,18-16.8C522,430.8,524.5,414.5,519.8,407.8
	C519.3,407.6,520.7,409,519.8,407.8L519.8,407.8z M511.8,406.3h0.1C511.8,406.4,511.8,406.3,511.8,406.3z M510.3,430.9
	c-2.1,3.5-2.2,8.9-4.7,12.9c-0.8,1.3-4.2,4.3-5.6,4.8c-6.3,2.2-10.4,0.2-15.1,0.2c-11.4,0-28.5-14.7-28.4-27.6
	c0.1-9.4,2.8-18.3,11.6-23.7c9.1-5.5,20.7-1,29,4.5c5.8,3.8,9.4,5.9,11.1,13C509.5,420,513.4,425.5,510.3,430.9z M1046.8,379.2h2.3
	v6.7h1.9v-6.7h2.3v-1.6h-6.5V379.2z M1061.4,377.6l-1.9,5.4l-1.9-5.4h-2.8v8.3h1.9v-6.4l2.1,6.4h1.4l2.1-6.4v6.4h1.9v-8.3
	C1064.2,377.6,1061.4,377.6,1061.4,377.6z M362.2,461.9c0-0.9-0.1-1.3-0.6-0.5c-0.8-1.4-4.2-2.3-4.5-0.8
	c-8.5-1.7-10.5-8.5-10.1-16.4c0.2-3.9-2.2-29.8-0.6-30.5c0.1-6.9-1-14.9-0.7-21.7c-0.1-2.1-0.6-29.2,0.1-29.4
	c-1.4-2.7,0.2-10.8,0.3-13.4c0.1-4-0.3-8-0.3-12.1s0-6.9,1.3-10.8c1-2.9,11.8-9,10.1-11.4c-2-5.6-15.5,8.9-17.7,12.1
	c-2.4,3.6-3.5,7-5.5,10.9c-3.4,6.5-8,5.8-14.1,7.4c0.4,5.6,11.5,1.3,11.6,10.1l0.7,28.7c-1.3,0.3,0.7,20.3,0.7,25
	c0,10,4.5,51-5.1,53.4v0.8c4.3-0.1,9-0.8,13.6-0.8c5.3,0,10.7,1.2,16,1.4C359.5,463.7,366,463.6,362.2,461.9z"/>
<path class="st0" d="M357,463.8C356.6,463.7,356.7,463.8,357,463.8z M439.2,423.3c0-9.9-2.1-19.6-9-27.3
	c-5.5-6.1-29.4-24.5-35.7-12.2c-4.3,8.4-12.1,8.8-18.3,15.9c-3.2,3.6-5.8,7.6-8.1,11.8c-0.3,0.6-2.5,9-2.4,9
	c-5.9,2.5,5.7,22.3,8,25.1c0.6,6.6,16.5,16.7,22.6,16.9c1.1,2.9,8.8,4.1,10.8,4.5c2.3-10.5,15.3-14.2,22.9-20.8
	C433.8,442.5,442.8,428.7,439.2,423.3L439.2,423.3z M414.6,449.4c-0.4,0.4-0.6,0.5-0.6,0.1c-1.2,0.6-6.3,1.5-7.1,0
	c-4.9,0-9-1.8-13-4.5c-1.3-0.9-6.8-4.3-7.9-4.3c-3.7,0-10.2-11.8-11.1-15.2c-1.7-6.6-1.1-10.7,1.7-16.6
	c4.8-10.3,14.5-16.3,25.5-13.4c7.3,1.9,24.7,11,24.9,18.2c0.2,0.7,0,1.8,0,2.6c1.4-0.7,2.7,9.2,2.8,8.5
	C429.6,433.2,421.8,445.4,414.6,449.4C414.4,449.5,417.3,447.9,414.6,449.4L414.6,449.4z M625.1,461c-16.4-0.8-12.1-23.8-11.4-32.1
	c-1.1-15.1-2.1-29.7-1.3-44.8c0.8-16.2-2.7-38.1,3.1-53.3c2-5.3,6.8-7.1,9.6-11.5c4.7-7.4-4-1.2-7.1-1.2c-0.7-1.2-8.5,8.4-9.1,9.2
	c-2.9,3.7-6.1,7.1-8.9,11.5c-2,3-12.5,4.4-13,6.4c-0.6,2.3,3.1,2.4,4.1,2.8c8.2,3,6.6,8.4,7.2,16.3c0.5,7.7,1.3,17,1.1,23.3
	c-5-3.4-8.3-4.6-9.4-9.4c-0.1,1.6-1.5,2.3-1.3,2.6c-12.8-7.3-27.6-6.8-41,0.9c-10.4,6-14.5,14.4-17.7,25.2
	c-1.6,5.4-1.8,11.3-0.7,16.8c1.2,5.8,6.1,11.4,6.5,17c5.5,9.6,15.1,17,24.3,21.9c1.8,1,10.5,5.3,10.7,2.1c3.5-7.1,17-15.3,25.6-14.5
	c-0.4,1.6-6,11-5.9,11.2c-1.5,0.5-2.2,1.9-0.9,3.2c2.1,2.1,11.6-0.3,14.4-0.4c4.4,0,11.1,1.6,15,0.4c2,0.1,4,0.2,6,0.4
	C627.5,465.1,627.6,461.1,625.1,461C624.9,461,627.7,461.1,625.1,461L625.1,461z M558.8,384c12.3-5.6,34.2-1.1,38.9,13.1
	c1.3,3.9,0.4,11.5,0.2,16.8c-0.1,2.6,0.7,9.9-2.9,9.7c-1.9-0.1,1,7.8,2.1,8.8c0.4,10.2-5,12.3-14.8,14.8
	c-10.4,2.7-21.2-0.4-28.2-8.6c-7.8-9.2-11.2-22.5-8.3-34.5c1.2-5.1,3.3-10.2,6.4-14.4c0.9-1.2,6.7-5.5,5.2-5.9
	C558.2,382.9,558.7,382.9,558.8,384C561,383,558.7,383.7,558.8,384L558.8,384z M549.8,390.5c0.1,0.3,0,0.3-0.2,0.3
	C549.7,390.6,549.7,390.6,549.8,390.5z M556.1,455.6c0.2-0.3,0.5-0.2,0.8,0.2C556.6,455.9,556.3,455.9,556.1,455.6
	C556.1,455.6,556.2,455.7,556.1,455.6z M558.8,457.2v-0.3c0.3,0.1,0.5,0.3,0.7,0.5C559.2,457.4,559,457.4,558.8,457.2z M560.5,458.1
	c0.1,0.1,0.2,0.1,0.2,0.2C560.5,458.3,560.4,458.2,560.5,458.1C560.6,458.2,560.5,458.2,560.5,458.1z M570.7,457.7
	C570.7,457.7,570.8,457.8,570.7,457.7C570.7,457.8,570.7,457.8,570.7,457.7z M594.2,347.2h-1.1C593.8,346.5,594.1,346.5,594.2,347.2
	z M808.5,408.8c-0.2-2.9-7.3-9.8-6-11.8c0.8-1.2,0.7-5.1-0.9-3.5c-2,1.9-7.6-5.7-8.1-7.3c-4.2,1.8-7.4-0.9-11.2-4
	c-3.2-3.5-2.7-1.5-6.3-3.2c-6.4-2.9-9.1,1-9.7,7.2c-2.2,3.4-7.6,4.5-11,6.1c-4.9,2.4-7.9,5.7-11.3,9.7c-0.4,1.3-1.8,2.7-2.7,3.8
	c-2.7,1.9-3.8,6.8-4.7,10.1c-1.7,6.3-1.8,16.5,1.8,23.1c2.8,5.3,7.1,7.8,11.2,11.9h-0.4c0.8,1.9,2.6,2.2,3.1,2.8
	c-0.1,0-0.2,0-0.3,0.1c2.2,3.8,10.2,7.5,13.8,9.3c1.9,0.9,11.7,8,11.5,1.2c1.5-3.2,0.3,2,3.1-4.4c1.1-1.3,3.4-2.9,3.9-4.7
	c10.6-5,18.8-8.9,23.1-21.9c0,0.1,0.1,0.2,0.1,0.4C812.7,430.3,809.9,413.1,808.5,408.8C808.4,408.6,809.9,412.8,808.5,408.8
	L808.5,408.8z M749.7,403.6c0.5-0.1,5.6-5.1,4.6-5.2c1-0.7,2.2-1.3,3.3-1.8c0.6,0.5,0.8,0.5,0.5-0.2c11.1-4.9,24.3,1.4,31.5,9.9
	h-0.3c0.5,1.6,2.6,2.9,3.5,4.4c2.6,4.2,3.7,8.5,3.8,13.4c0.1,6.2,0.3,13.2-2.8,18.8c-10.6,9.7-23.7,7.7-34.7-0.7
	c-3.4,1.9-13.1-14.1-13.8-16.8c-0.9-3.4-1.3-11-0.4-13.1c0.9,0.9,0.6-0.2,0.4-1c0.1-0.1,0.1-0.2,0.2-0.4c0,1.6,1.3-1.9,1.4-2.5
	c0.6-1,0.8-0.5,0.8-1.4L749.7,403.6C749.9,403.6,749,404.8,749.7,403.6z M1045.3,445c-3-3.3-13.4,6-17.9,6.1c-1.2,0.1-2.4,0-3.5-0.6
	c-4.1-2.7,1.7-2.9-5.1-2.3c-5.4,0.4-11-2.1-14.3-5.1c1.1-0.1,0-1.2-0.4-1.4c0.9-3.4,3.5-6.6,6.6-9.4c-0.3-0.8,20.2-15.5,20.2-19
	c0-2.9,11.4-8.5,10.7-10.4c8.7-7.1-2.3-10.5-8.8-15.1c-3.1-2.2-6.3-3.4-9.9-5.1c-1.5-0.7-9.1-3.7-10.7-2.9c-7.8,4.2-16,10-21.5,15.2
	c-4.6,0.3-10.7,12.8-11,15.6c-0.7,1.7-1.1,7-1.4,8.7c0.4,0.9,1.8,3,0,2.8c0.3,2.3,1.9,13.9,3.5,13.3c0.9,2,5.1,11.2,5.3,9.9
	c0.5,0.9,1.1,1.8,1.6,2.7h-0.3c2.3,5.4,11.1,9.5,15.8,12.2c3.7,2.1,9.2,2.4,13.3,3.3c2.7,0.6,5.4,1.2,7.8,2.4c2.5-1.5,4.9-3.2,7-5.2
	C1034.8,454.9,1049.4,448.1,1045.3,445L1045.3,445z M993.5,430.9c-3.1-10.4-5.3-24,1.6-33.5c8.9-12.3,29.6-6.8,35.7,6.1h0.3
	c-2.1,3.2-17.2,20.3-17.4,19.9c-4.6,3.7-8.6,7.9-12.8,11.9C997.1,438.9,994.4,433.9,993.5,430.9L993.5,430.9z"/>
<path class="st0" d="M1011.4,451C1011.4,451,1011.4,451.1,1011.4,451C1011.3,451,1011.4,451,1011.4,451z M1010.9,451.6
	c0,0.1-0.1,0.1-0.1,0.2C1010.7,451.6,1010.8,451.6,1010.9,451.6C1010.8,451.6,1010.8,451.6,1010.9,451.6z"/>
</svg>
