<?xml version="1.0" encoding="utf-8"?>
<!-- Generator: Adobe Illustrator 19.0.0, SVG Export Plug-In . SVG Version: 6.00 Build 0)  -->
<svg version="1.1" id="Layer_1" xmlns="http://www.w3.org/2000/svg" xmlns:xlink="http://www.w3.org/1999/xlink" x="0px" y="0px"
	 viewBox="-35 327.6 540.1 139.4" style="enable-background:new -35 327.6 540.1 139.4;" xml:space="preserve">
<style type="text/css">
	.st0{fill:#FFFFFF;}
</style>
<g>
	<path class="st0" d="M461.1,374.8l6.7,31.1l15.8-0.7l13.7-51.2l-10.2-0.1l-10.9,39.9l-9-39.9h-10.5l-13.3,43.3l-2.6-43.7h-9.9
		l-30.3,45.1l-2.6-45.3l-18.5,28.3l-1.4-28.5l-38.5,56.7l-3-22.2l0.7-0.3c10.7-5,20.1-15.3,18.2-24.4c-1.2-5.6-6.4-9.1-15.5-9.4
		h-16.3l-22.5,64.7l13-1l9.7-27.2l1.7,26.3l23.8-1.9l18.4-28.6l-2.2,26.7l8.9-1l15-26l0.6,25.5l13.8-0.9l7.7-11.3l20.6-0.3l0.3,9.7
		l18.9-1.3L461.1,374.8z M331.9,363.7c6.3-0.7,9.8,1.1,10.8,2.4c1.4,1.9,1.3,3.9,0,6.6c-1.8,3.8-6.4,7.2-14.7,7.5l0,0
		c-0.3,0-0.8,0-1.2-0.2L331.9,363.7z M431.9,388.6h-13l12.8-19.3L431.9,388.6z M140.7,352.5c0.1,0.1,0.3,0.2,0.5,0.2
		s0.5-0.1,0.6-0.3l1.6-2c0.3-0.3,0.2-0.8-0.1-1.1c-0.3-0.3-0.8-0.2-1.1,0.1l-1.6,2C140.3,351.8,140.4,352.3,140.7,352.5z
		 M118.4,363.5c4.4-0.2,10.8,0.1,17.5,2.5l1.7-4.6c1.2,0.5,2.4,1,3.4,1.6l-1.5,4.5c2.2,1,4.4,2.3,6.6,3.9l0.5-4.5l15.5-5.7
		l-11.1-3.1l14.1-16.3l-16.2,7.3l0.7-15.3l-11,12.7l-6.3-10.7l-2,15.3l-14.3-5.2l5.4,13.8L118.4,363.5z M119.8,349.5l11.6,4.3
		c0.2,0.1,0.3,0,0.5,0c0.1-0.1,0.2-0.2,0.2-0.4l1.3-11.2l4.2,7.4c0.1,0.2,0.2,0.3,0.4,0.3s0.3-0.1,0.5-0.2l9.1-11.4L147,351
		c0,0.2,0.1,0.4,0.2,0.5c0.1,0.1,0.3,0.1,0.5,0l11.2-5l-10.8,12c-0.1,0.1-0.2,0.3-0.1,0.5c0.1,0.2,0.2,0.3,0.4,0.4l7.9,2.2L147,365
		c-1.3-2.7-4-4.8-7.5-6.1c1-1.9,2.4-4.2,3.5-4.8c0.1-0.1,0.2-0.2,0.3-0.3l1.8-0.8c0.4-0.2,0.6-0.6,0.4-1c-0.2-0.4-0.6-0.6-1-0.4
		l-2.5,1.1c-0.2,0.1-0.4,0.3-0.4,0.5l-1.8-0.5c0.1-0.1,0.1-0.2,0.2-0.3l0.8-2.3c0.1-0.4-0.1-0.8-0.5-1c-0.4-0.1-0.8,0.1-1,0.5
		l-0.6,1.9c-0.2,0-0.3,0-0.5,0.1c-1.6,0.9-3.4,4.1-4.4,6c-1-0.1-2-0.2-3-0.2c-2.5,0-5,0.3-7.4,1L119.8,349.5z M283.5,392.7l20.1-1.2
		l4-12.8l-20.7,0.8l4.4-13.3l21.5-0.6l3.8-12.2h-33.3L260,422.1l36.2-3.5l4.2-13.3l-21.4,1.6L283.5,392.7z M156.1,396.1
		c-0.9-8.4-4.8-15.7-10.7-20.9v-0.1c-11.2-8.9-24.4-8.7-30-8.1c-16.9,3-33.8,15.1-41.7,32.5c-0.3,0.6-0.6,1.3-0.8,2
		c-0.9,2.1-1.6,4.3-2.2,6.5c-1.4,5.3-1.7,10.4-1.2,15c0.1,0.9,0.2,1.7,0.4,2.5c0.9,5.2,3,9.8,5.9,13.7c5.9,7.8,15.4,12.5,26.8,12.5
		c12.9,0,25.5-5.4,35.2-14c0.8-0.7,1.7-1.5,2.5-2.3c7-6.9,12.2-15.5,14.7-24.7c1.1-4,1.5-7.9,1.4-11.6
		C156.3,398.1,156.2,397.1,156.1,396.1z M114.1,389.2c-2.6,4.5-8.9,7.6-13.9,7c-5-0.7-7-4.9-4.3-9.4s8.9-7.6,13.9-7
		C114.8,380.5,116.7,384.7,114.1,389.2z M60.1,396.4c-0.1-0.4,30.6-17.1,27-34c-1.9-9-17-12.4-39.3-10l-12.7,1.3l-64.9,109l21.4-3
		c35.7-5,60.7-18.5,73.6-31.7c-1.5-6.6-1.3-13.7,0.6-21.2c0.7-2.8,1.6-5.4,2.8-8.1C67.1,397.3,60.1,396.4,60.1,396.4z M35.9,389.5
		l12-20.6c0.2-0.3,0.4-0.5,0.8-0.5c13.5-1.5,16,2.5,16.3,5.1c0.7,6.4-11.6,15.7-28,17.6h-0.1c-0.3,0-0.7-0.2-0.8-0.5
		C35.7,390.2,35.7,389.8,35.9,389.5z M23.4,411.8c13.8-1.7,22,0.3,22.7,5.6c0.9,7.3-17,18.2-39.1,21.2L23.4,411.8z M218.3,410.9
		l-2.3-55.6l-25,33.9l-1.3-34.2l-29,38.3c1,6,0.2,14.5-1.5,21l14.9-18.2V429l11.9-0.7l17.3-32l-1.3,31.8l21.6-2.1
		c16.5-1.6,39.9-14.2,40.2-31c0.1-4.8-2.3-8.5-9.4-9.4l1.5-1c8.7-5.2,13.7-14.5,11.5-21.6c-2-6.7-9.9-10.2-21.6-9.6h-6.4
		L218.3,410.9z M237,392.3c11.1-0.6,11.8,3.6,11.9,5.4c0.4,6.2-9.1,12.2-17.3,12.8c0,0-0.1,0-1.1,0L237,392.3z M247.4,363.3
		c7-0.1,9,2.8,9,5.7c0.1,4.7-5.2,9.7-13.4,10c0,0,0,0-1-0.1L247.4,363.3z"/>
</g>
</svg>
