<?xml version="1.0" encoding="utf-8"?>
<!-- Generator: Adobe Illustrator 19.0.0, SVG Export Plug-In . SVG Version: 6.00 Build 0)  -->
<svg version="1.1" id="Layer_1" xmlns="http://www.w3.org/2000/svg" xmlns:xlink="http://www.w3.org/1999/xlink" x="0px" y="0px"
	 viewBox="0 0 1324.6 222" style="enable-background:new 0 0 1324.6 222;" xml:space="preserve">
<style type="text/css">
	.st0{fill:#FFFFFF;}
</style>
<g>
	<path class="st0" d="M516.5,210.6c0-52.6,0-105.6,0-159c-8.4-1.5-15.6-2.8-22.8-4c0.1-0.7,0.3-1.4,0.4-2.1c24.8,0,49.7,0,74.5,0
		c0.2,0.7,0.4,1.4,0.6,2.1c-7.2,1.3-14.4,2.6-22.8,4.1c0,53.3,0,106.1,0,159.8c4.8,0.8,8.6,1.5,12.4,2.1c3.5,0.6,7,1.2,10.5,1.8
		c-0.2,0.7-0.3,1.5-0.5,2.2c-48.6,0-97.2,0-145.8,0c-0.2-0.7-0.4-1.3-0.6-2c6.7-1.3,13.4-2.6,21.5-4.2c-2-22.8-12.7-42.3-18.9-63
		c-16.5,0-32.6,0-49.4,0c-6.6,18.5-13.3,36.8-19.5,55.3c-1.9,5.8,2.7,7.8,7.3,9.2c3.4,1,6.8,2,10.2,3c-0.1,0.7-0.3,1.4-0.4,2.1
		c-1.3,0-2.7,0-4,0c-13.9,0-27.8,0-41.8,0c-9.3,0-18.6,0.7-27.8,0.1c-2.8-0.2-6.4-3-8-5.6c-9.5-14.8-18.5-30-27.8-45
		c-4.2-6.8-8.5-13.5-13.2-20c-5.7-7.7-13.2-10-23.2-7.2c0,7.6-0.2,15.7,0,23.7c0.3,13.6,1.1,27.3,1.4,40.9c0.1,5.6,2.7,8,8.1,8.4
		c3.6,0.2,7.2,1.3,10.8,2c-0.1,0.7-0.3,1.5-0.4,2.2c-22.5,0-45.1,0-67.6,0c-0.2-0.6-0.3-1.2-0.5-1.8c6-1.4,12-2.7,19.3-4.4
		c2.5-53.2,2.3-106.1,0.1-159.7c-4.1-0.9-7.3-1.5-10.4-2.3c-3-0.7-6.1-1.4-8.8-4.1c1.8-0.1,3.7-0.3,5.5-0.3
		c19.1,0,38.3,0.3,57.4-0.1c16.2-0.3,32,0.6,46.7,8.1c27.1,13.8,31.4,46.9,8.2,66.6c-7.5,6.4-16.9,10.6-24.9,15.5
		c13.9,20.8,28.4,42.7,43,64.4c1.6,2.5,3.9,4.6,6.1,6.5c10,8.8,17.6,7.9,23.3-3.9c8-16.5,15.4-33.4,22.1-50.5
		C381.2,115,395,78.3,409.2,41c1.8,0,4.1,0,6.8,0c6.4,18,12.6,36,19.2,53.9c12.3,33.4,24.4,66.9,37.2,100.1
		C479.3,213.1,496.5,219.1,516.5,210.6z M228.9,131.5c23.1,4.2,36.4-0.1,45-14.5c10.4-17.3,8.8-44.8-3.2-56.7
		c-9-8.9-30.3-12.2-41.8-5.1C228.9,79.8,228.9,105.4,228.9,131.5z M400.8,83.5c-7.9,20.6-15.2,39.3-22.6,58.5c15.3,0,29.3,0,44,0
		c-1.9-5.3-3.5-10.1-5.3-14.8C411.8,113.2,406.6,99.3,400.8,83.5z"/>
	<path class="st0" d="M25.6,16.2C16.7,14.2,9.3,12.6,1.9,11c0.2-1,0.4-1.9,0.6-2.9c1.7,0,3.4,0,5.2,0c23,0,45.9,0.2,68.9-0.1
		c19-0.3,37.7,0.8,54.9,9.9c30.2,15.9,32.2,54.5,3.5,72.7c-8,5.1-17.6,7.6-26.5,11.3c-1.4,0.6-3,0.9-4.5,2.8c4.6,1,9.2,1.6,13.7,2.9
		c7.6,2.3,15.4,4.4,22.6,7.8c17.9,8.4,29.1,22.3,29.5,42.7c0.4,21-8.6,37.2-27,47.8c-15.7,9.1-33,12.2-50.9,12.3
		c-29,0.1-58,0-86.9-0.1c-0.8,0-1.6-0.2-2.4-0.4c-0.2-0.8-0.5-1.6-0.7-2.4c3.4-0.8,6.9-1.7,10.4-2.5c4-0.8,8-1.6,13.3-2.6
		C28,145.2,27.9,80.8,25.6,16.2z M59.9,112c0.9,28.2,1.8,56.2,2.8,84.3c0.3,8.3,5.2,12.8,12.8,13.2c9.6,0.5,19.3,0.7,28.8-0.6
		c11.9-1.7,20.1-9.3,24.5-20.5c4.7-11.9,4.8-24.2,3.2-36.7C127.7,115.8,95.9,105.2,59.9,112z M62.1,101.9c7.1,0,14.9,0.6,22.6-0.1
		c14.3-1.5,25.5-8.5,30.3-22.4c2.6-7.3,3.6-15.5,3.8-23.3c0.9-35.3-23.2-43.4-51.7-39c-1.9,0.3-4.8,3-4.8,4.6
		C62,47.8,62.1,73.9,62.1,101.9z"/>
	<path class="st0" d="M874.4,133.6c-7.9,21.8-15.5,43-23.2,64.2c-2.9,7.8,0.3,12.1,7.7,14c3.1,0.8,6.2,1.3,9.2,2.2
		c1.4,0.4,2.5,1.4,5.9,3.5c-22.9,0-43.3,0-66.4,0c3.4-2,4.7-3.3,6.1-3.5c13-1.5,21.2-8.8,25.9-20.5c19.8-49.3,39.5-98.5,59.1-147.9
		c5.6-14,10.5-28.3,15.7-42.4c3.1,0,5.7,0,8.6,0c7,19.7,13.7,39.2,20.8,58.5c15.8,43,32,85.9,47.6,129c4.9,13.6,12.5,22.8,28.2,22.6
		c2.2,0,4.4,1.6,6,4.2c-31.5,0-62.9,0-94.4,0c-0.2-0.4-0.5-0.9-0.7-1.3c1.4-0.8,2.7-2.1,4.2-2.4c4.3-0.7,8.6-1.2,12.9-1.5
		c7.6-0.5,10.6-4.5,8.4-11.7c-5.1-16.5-10.4-33-15.8-49.4c-2-6-4.3-11.9-6.4-17.8C914.2,133.6,894.6,133.6,874.4,133.6z M877.2,126
		c18.4,0,35.8,0,53.9,0c-8.6-23.2-17-46.1-26.3-71.2C895.1,79.7,886.3,102.5,877.2,126z"/>
	<path class="st0" d="M637.5,217.6c-18.5,0-36.9,0-57.3,0c2.4-1.7,3.5-2.9,4.6-3.1c23-3.5,21.1-8.9,21.7-27.6
		c1.2-34.8,0.4-69.6,0.2-104.4c0-5.8-1-11.6-2-17.3c-1.8-10-9.7-13.6-18.3-16.2c-1.9-0.6-3.8-1.3-5.4-3.3c14.2,0,28.5,0,43,0
		c36.2,42,72.6,84.4,109.1,126.8c0.8-0.2,1.6-0.4,2.4-0.5c0-7.5,0.1-15,0-22.5c-0.5-28.6-1.2-57.3-1.7-85.9
		c-0.1-7.9-3.8-12.2-11.6-13.5c-3.7-0.6-7.2-1.8-10.4-4.5c19.3,0,38.6,0,59.4,0c-1.8,1.4-2.4,2.4-3.3,2.6c-2.9,0.7-5.9,1.1-8.8,1.8
		c-11.9,2.9-14,5.1-14.1,17.3c-0.4,49.8-0.7,99.6-1,149.4c0,1.6,0,3.2,0,7.1c-3.3-2.3-5.8-3.4-7.3-5.2
		c-38.3-44.2-76.5-88.5-114.7-132.7c-1.5-1.7-3.1-3.3-6-6.3c0,3.2,0,4.8,0,6.3c0,32.3,0,64.6,0.1,97c0,6.1,0.8,12.3,1,18.4
		c0.2,6.8,3.5,10.6,10.3,11.6c3.6,0.5,7.1,1.8,10.6,2.7C637.9,216.3,637.7,216.9,637.5,217.6z"/>
	<path class="st0" d="M1157.2,49.3c0.9,17.1,1.6,31.9,2.4,46.8c-0.6,0.2-1.3,0.5-1.9,0.7c-0.9-1.4-1.9-2.8-2.8-4.2
		c-6.4-10-11.3-21.6-19.4-29.9c-24.2-24.6-67.4-19.6-83.6,10.9c-20.2,37.8-20.2,77.4,1.4,114.9c15.6,27,43.8,30.9,71,23.9
		c6.3-1.6,10.9-6.1,11.1-12.7c0.4-15.5,0.1-31.1,0.1-47c-11.1-2.1-20.1-3.8-29-5.5c0.1-0.7,0.2-1.4,0.4-2.1c27,0,54,0,81,0
		c0.2,0.5,0.3,1,0.5,1.6c-2.7,0.8-5.3,1.9-8,2.4c-15.7,2.9-15.8,2.9-16.1,19c-0.2,13,0,25.9,0,41.3c-15.4,3.7-31.1,8.7-47.2,11.1
		c-30.6,4.4-59.8,0.1-83.4-22.1c-22.2-20.9-29.4-47.7-26.9-77.2c4.2-50.5,48.1-83.6,103.6-79.4C1125.5,42.8,1140.8,46.5,1157.2,49.3
		z"/>
	<path class="st0" d="M1236.3,53.5c0,24.3,0,47.9,0,73.2c11.1-0.9,23.1,1,32.1-3.4c8.2-4,13-14.9,18.3-21.5c0,18,0,37.4,0,55.3
		c-5.2-7.3-9.1-18-16.4-21.5c-9.5-4.6-21.8-3.5-34-5c0,26.7,0,51.5,0,76.7c3.8,1.1,6.5,2.6,9.3,2.6c12.3,0.2,24.6,0.6,36.9-0.2
		c12.2-0.7,21.8-6.9,27.8-17.8c3.5-6.4,6.5-13.1,9.8-19.6c0.7-1.4,1.9-2.6,4.6-3.1c-2.1,16.1-4.2,32.3-6.3,48.4
		c-44.1,0-87.5,0-131,0c-0.2-0.6-0.4-1.2-0.6-1.8c6.1-1.4,12.2-2.9,19.6-4.6c2.4-53.1,2.3-106,0-159.5c-4.2-0.9-7.4-1.6-10.6-2.3
		c-3-0.7-6.1-1.4-8.7-3.9c40.3,0,80.5,0,121.9,0c1.1,13.7,2.3,27.8,3.4,41.9c-0.8,0.5-1.6,1-2.3,1.5c-6.9-13.1-10.5-29.1-27.2-33.7
		C1268,51.2,1253,51.3,1236.3,53.5z"/>
</g>
</svg>
