<?xml version="1.0" encoding="utf-8"?>
<!-- Generator: Adobe Illustrator 19.0.0, SVG Export Plug-In . SVG Version: 6.00 Build 0)  -->
<svg version="1.1" id="Layer_1" xmlns="http://www.w3.org/2000/svg" xmlns:xlink="http://www.w3.org/1999/xlink" x="0px" y="0px"
	 viewBox="-74 319 463 155" style="enable-background:new -74 319 463 155;" xml:space="preserve">
<style type="text/css">
	.st0{fill:#FFFFFF;}
</style>
<g>
	<g>
		<path class="st0" d="M-19.7,336.3c9.7-6.6,21.4-10.1,33.1-10.5c17.5-1.3,35.8,4,48.8,16.1c3.6,3.5,7.4,7,9.8,11.5
			c-11.2-9.9-25.7-16.5-40.7-17.3c-16.9-0.6-33.8,6.8-45.4,19c-19.4,19.4-21.3,53.6-3.6,74.7c11,13.3,28,20.8,45.1,21.9
			c17.8,0.8,35.1-7.9,47-20.8c-5,10-13.5,18.2-23.3,23.7c-15.6,8.8-34.7,9.7-51.7,5.2c-15.6-4.1-29.5-13.9-39-26.9
			c-5.6-7.7-9.7-16.6-10.7-26.1c-6.3-3.6-12-8.2-18.1-12c5.7-4.4,12.1-7.9,18-12C-45.8,364.2-35.4,346.9-19.7,336.3z"/>
		<path class="st0" d="M321.4,354.7c3.4-1.8,5.8-4.9,8.1-8c1.9,3.5,5.6,5.6,7.8,8.5c-3.2,2.5-6.1,5.6-7.9,9.3
			C327.4,360.7,324.2,357.8,321.4,354.7z"/>
		<path class="st0" d="M120.9,355.9c3.9-4.4,10.1-5.4,15.7-5.5c-0.5,0.3-1.5,1-2,1.3c-2.4,1.9-4.7,4.5-4.9,7.6
			c-0.3,4.4,0.1,8.8-0.2,13.2c0.4,14-0.1,28,0.1,42c0.2,2.9-0.6,6.1,0.9,8.8c1.8,1.8,4.4,1.2,6.6,0.8c-4.2,3.9-8.2,8.1-12.4,12
			c-2.9-3.8-5.7-7.8-9.5-10.7c-0.1-0.3-0.3-0.9-0.4-1.2c1.5-0.7,2.8-2,2.5-3.8c0-16,0.1-32.1,0-48.1c0.1-6.3-3.4-11.7-6.7-16.7
			c0.3-0.1,0.9-0.2,1.3-0.3c1.6,3.1,3.3,6.2,4.8,9.4C117.6,361.7,118.5,358.3,120.9,355.9z"/>
		<path class="st0" d="M80.5,386.8c10.8-6.8,14.2-20,17.4-31.6c0.9,8.2,0.2,16.5,0.4,24.8c3.5,0.1,7,0.1,10.4,0.1c0,2.4,0,4.8,0,7.2
			c-3.5,0.1-7,0.1-10.4,0.1c-0.1,9.7,0,19.5,0,29.2c-0.1,1.8,0.5,3.5,1.1,5.2c2.4,0.9,4.8,0.7,7.2,0c-4.3,4.9-8.4,9.9-12.9,14.6
			c-2-3.8-4.8-7.1-7.8-10.1c-1-0.6-2-1.2-3-1.7c1.3-1.8,3.2-3.5,2.9-5.9c0-10.5,0-21,0-31.5C84,386.9,82.3,386.9,80.5,386.8z"/>
		<path class="st0" d="M174.7,381.8c2.6-6.8,7.6-12.4,13-17.2c-0.1,2.5,0.6,5.2-0.8,7.4c-1,1.7-1.6,3.6-1,5.6c0.9,3.5,5.4,5.1,5.4,9
			c0,9.4,0,18.8,0,28.1c2.6,1.8,5.2,3.6,7.5,5.8c1.1,1.5,3.2,0.6,4.2-0.6c3.9-4.1,7.1-9.6,6.9-15.4c-1.5-9.9-7.3-18.3-11.3-27.3
			c8.9-2.5,17.7-5.7,26.7-7.4c-4.5,3.8-8.2,8.4-12.3,12.6c7.6,7.3,7.9,19.7,3.7,28.8c-5,9.7-14.3,16-22.2,23
			c-5.2-4.9-10.5-9.9-17.2-12.6c1-0.7,2-1.4,3-2c0-8.7,0.1-17.4,0-26.1C179.9,388.9,173.5,386.8,174.7,381.8z"/>
		<path class="st0" d="M328.8,368.3c3.5,2.8,6.3,6.4,9.6,9.3c-0.8,1.7-2.9,2.8-2.7,4.9c0,11.3-0.1,22.7,0,34
			c-0.3,3.1,3.3,3.6,5.7,3.4c-4.1,4-7.9,8.3-11.9,12.4c-3.1-3.6-6.8-7.7-6.7-12.8c0-12,0-24,0-36c0.1-1.6-0.5-3-0.9-4.5
			c-0.6-0.3-1.9-0.9-2.5-1.2C322.6,374.7,325.8,371.5,328.8,368.3z"/>
		<g>
			<path class="st0" d="M6.3,378.4c4.6-2.1,8.3-5.7,12.3-8.8l0.8,0.1c4.7,4.6,9.4,9.6,15.8,11.7c-2.1,1.3-3.3,3.6-4,5.9
				c0.1,9.7,0,19.5,0,29.2c-0.1,2.2,1,4.6,3.1,5.4c1.2-0.1,2.4-0.5,3.5-1c-3.6,4.3-8.1,7.8-11.3,12.4c-4-3.6-7.1-8.3-8.3-13.6
				c-5,4.5-9.6,9.3-14.6,13.8c-2.2-2.2-4.9-4.1-6.3-7c-2-6-0.8-12.5-1.3-18.6c-3.4-2.3-7.4-3.7-10.7-6.2c3.7-1.5,7.2-3.4,10.8-5.1
				c0.1-4.3-0.3-8.8,1.5-12.8C-0.2,381,3.3,379.9,6.3,378.4z M8.7,383.5c0.1,12-0.1,24,0.1,36c-0.2,2.3,2.6,3.5,4.5,2.6
				c2.1-1.1,3.9-2.6,5.5-4.2c-0.3-10.5,0-21-0.1-31.5c-3-3-6.5-5.6-9.3-8.8C8.7,379.5,8.7,381.5,8.7,383.5z"/>
		</g>
		<g>
			<path class="st0" d="M151.1,376.2c4.2-2.3,8.2-4.8,12.6-6.8c3,6.8,7.4,12.9,9.8,20c-7.1,5.4-13.7,11.6-20.7,17
				c1.6,6.1,5.1,12.8,11.9,14.1c3.2,1.1,6.1-1.1,8.9-2.4c-5.1,4.6-10.3,9.2-14.9,14.3c-1,1.7-2.8,0.4-4-0.2
				c-6.4-3.6-12.2-9.4-13.7-16.8c-0.7-2.9-0.6-6-0.5-9c-2.2-2.4-5.3-3.8-7-6.6c2.3-1.4,4.6-2.9,6.8-4.4c0.4-4,0.6-8.1,2.4-11.8
				C144.2,380.1,147.9,378.2,151.1,376.2z M152.9,376.4c-0.1,9-0.3,18.1,0.1,27.2c3.4-2.8,6.7-5.6,10.1-8.2
				c-2.5-6.8-5.8-13.1-8.4-19.8C154.3,375.7,153.4,376.1,152.9,376.4z"/>
		</g>
		<g>
			<path class="st0" d="M246.5,369l1,0.1c4.8,5.2,10.2,10.3,17.2,12.3c-3,1-4.9,3.9-4.8,7c0,9.4,0,18.7,0,28
				c-0.1,1.7,0.6,3.3,1.4,4.8c2.1,0.3,4.1-0.5,6-1.2c-3,3.4-6.5,6.3-9.4,9.8c-1.2,1.2-2,2.7-3.5,3.5c-3.1-2.5-5.8-5.7-7.2-9.5
				c-0.5-1.1-0.7-2.5-1.7-3.3c-4.4,4.5-9.1,8.7-13.3,13.4c-4.3-2.4-8.2-6.7-8.3-11.9c-0.4-7.5-0.1-15.1-0.2-22.6
				c0.1-5.4-0.4-11,1.4-16.1c2-1.8,4.3-3.3,6.9-4.4C237.6,376.8,242.1,372.9,246.5,369z M237.1,378.3c-0.1,14-0.2,28,0,42
				c2.6,3.8,6.5-0.3,8.9-2.2c0.1-10.8,0.2-21.5-0.1-32.3C242.6,383.9,240.1,380.8,237.1,378.3z"/>
		</g>
		<path class="st0" d="M268.4,380.6c3.9-3.8,7.2-8.2,11.1-11.9c5.2,3,8,8.8,7.8,14.8c5.8-4.5,10.9-10.2,17.3-14c2,4.1,5.7,7,9,10
			c-2.6,1.8-4.2,4.8-3.9,8c0.1,9.3,0.2,18.7,0.2,28c0.2,1.6-0.2,3.5,1,4.7c1.1,1.4,3.1,0.6,4.7,0.8c-3.8,3.8-7.6,7.7-11.3,11.7
			c-4.2-3.8-8-9.2-7.5-15.2c0-10.3,0-20.6,0-31c0.1-1.5-0.4-2.9-1-4.2c-0.8-0.4-1.6-0.8-2.3-1.2c-2.2,1.6-4.3,3.4-6.3,5.3
			c0.1,10.8,0,21.5,0.1,32.3c-0.2,1.6,1.4,2.6,2.2,3.8c-4.1,2-6.4,6.2-8.8,9.9c-2.6-3.9-5.6-7.8-10-9.8c1.8-1,4-2.5,3.6-4.9
			c0.1-10,0.1-20.1,0-30.1C274.2,384.2,272.2,380.1,268.4,380.6z"/>
		<g>
			<path class="st0" d="M358.6,376.6c3.5-2.1,6.3-5.1,9.7-7.3c4.5,5,9.5,9.8,15.9,12.1c-2.9,1.6-3.9,4.9-3.9,8
				c0,9.1-0.1,18.1,0,27.2c-0.1,1.9,1,3.6,2,5.1c1.3,0,2.6-0.1,4-0.1c-3.9,3.6-7.7,7.4-10.9,11.6c-2.7-2.9-5.5-5.9-7-9.7
				c-0.6-1.3-0.5-3.1-1.9-3.8c-4.1,4.7-9,8.8-13.1,13.4c-4.7-1.7-8.1-6.8-8.2-11.8c-0.1-10,0-20,0-29.9c0.2-3.2,0.1-7,2.8-9.2
				C351.3,379.8,355.3,378.9,358.6,376.6z M357.8,390.5c0.2,10.1-0.4,20.4,0.3,30.4c3.1,3.6,7.1-1.1,9.8-3.1
				c-0.1-10.6-0.1-21.1,0-31.7c-3.6-2.4-6.5-5.7-9.6-8.6C357.4,381.8,357.9,386.2,357.8,390.5z"/>
		</g>
		<path class="st0" d="M68.6,377.1c3.9-0.5,6.4-3.8,8.8-6.5c-0.4,6.5-2.2,13.4-6.9,18.2c0,0-1.3,1.6-1.9,1.9
			c-6.5,3.8-14.4-2.1-18.2-8.1c-3.9,1.5-4.2,6.5-3.4,10c0.9,5.3,5.5,10.8,11.4,9.7c6.2-0.8,9-7.1,12-11.8c0.6,2,2.7,2.7,4.1,4.1
			c4.5,4.3,5.6,11.4,3.4,17.1c-3.4,9.4-9.9,17.4-16.9,24.5c-6.5-3.5-13.6-9.1-21.3-6c1.9-4.8,4.4-9.4,6-14.3
			c4.7,0.6,9.4,1.6,13.6,3.9c3.4,1.6,6.3,4,9.6,5.8c2-5.7,1.9-12.3-1.1-17.6c-1.9-3.2-5.7-5.5-9.5-4.4c-5.9,1.6-9.1,7.4-11.8,12.4
			c-0.2-0.5-0.6-1.6-0.8-2.2c-4.1-3.2-7.8-7.7-7.7-13.1c-0.3-7.8,5.6-13.7,10.9-18.5c3.4-2.9,6-6.5,8.3-10.3
			C59.9,375.2,64.2,377.8,68.6,377.1z"/>
	</g>
	<g>
		<path class="st0" d="M-19.7,336.3c9.7-6.6,21.4-10.1,33.1-10.5c17.5-1.3,35.8,4,48.8,16.1c3.6,3.5,7.4,7,9.8,11.5
			c-11.2-9.9-25.7-16.5-40.7-17.3c-16.9-0.6-33.8,6.8-45.4,19c-19.4,19.4-21.3,53.6-3.6,74.7c11,13.3,28,20.8,45.1,21.9
			c17.8,0.8,35.1-7.9,47-20.8c-5,10-13.5,18.2-23.3,23.7c-15.6,8.8-34.7,9.7-51.7,5.2c-15.6-4.1-29.5-13.9-39-26.9
			c-5.6-7.7-9.7-16.6-10.7-26.1c-6.3-3.6-12-8.2-18.1-12c5.7-4.4,12.1-7.9,18-12C-45.8,364.2-35.4,346.9-19.7,336.3z"/>
		<path class="st0" d="M321.4,354.7c3.4-1.8,5.8-4.9,8.1-8c1.9,3.5,5.6,5.6,7.8,8.5c-3.2,2.5-6.1,5.6-7.9,9.3
			C327.4,360.7,324.2,357.8,321.4,354.7z"/>
		<path class="st0" d="M120.9,355.9c3.9-4.4,10.1-5.4,15.7-5.5c-0.5,0.3-1.5,1-2,1.3c-2.4,1.9-4.7,4.5-4.9,7.6
			c-0.3,4.4,0.1,8.8-0.2,13.2c0.4,14-0.1,28,0.1,42c0.2,2.9-0.6,6.1,0.9,8.8c1.8,1.8,4.4,1.2,6.6,0.8c-4.2,3.9-8.2,8.1-12.4,12
			c-2.9-3.8-5.7-7.8-9.5-10.7c-0.1-0.3-0.3-0.9-0.4-1.2c1.5-0.7,2.8-2,2.5-3.8c0-16,0.1-32.1,0-48.1c0.1-6.3-3.4-11.7-6.7-16.7
			c0.3-0.1,0.9-0.2,1.3-0.3c1.6,3.1,3.3,6.2,4.8,9.4C117.6,361.7,118.5,358.3,120.9,355.9z"/>
		<path class="st0" d="M80.5,386.8c10.8-6.8,14.2-20,17.4-31.6c0.9,8.2,0.2,16.5,0.4,24.8c3.5,0.1,7,0.1,10.4,0.1c0,2.4,0,4.8,0,7.2
			c-3.5,0.1-7,0.1-10.4,0.1c-0.1,9.7,0,19.5,0,29.2c-0.1,1.8,0.5,3.5,1.1,5.2c2.4,0.9,4.8,0.7,7.2,0c-4.3,4.9-8.4,9.9-12.9,14.6
			c-2-3.8-4.8-7.1-7.8-10.1c-1-0.6-2-1.2-3-1.7c1.3-1.8,3.2-3.5,2.9-5.9c0-10.5,0-21,0-31.5C84,386.9,82.3,386.9,80.5,386.8z"/>
		<path class="st0" d="M174.7,381.8c2.6-6.8,7.6-12.4,13-17.2c-0.1,2.5,0.6,5.2-0.8,7.4c-1,1.7-1.6,3.6-1,5.6c0.9,3.5,5.4,5.1,5.4,9
			c0,9.4,0,18.8,0,28.1c2.6,1.8,5.2,3.6,7.5,5.8c1.1,1.5,3.2,0.6,4.2-0.6c3.9-4.1,7.1-9.6,6.9-15.4c-1.5-9.9-7.3-18.3-11.3-27.3
			c8.9-2.5,17.7-5.7,26.7-7.4c-4.5,3.8-8.2,8.4-12.3,12.6c7.6,7.3,7.9,19.7,3.7,28.8c-5,9.7-14.3,16-22.2,23
			c-5.2-4.9-10.5-9.9-17.2-12.6c1-0.7,2-1.4,3-2c0-8.7,0.1-17.4,0-26.1C179.9,388.9,173.5,386.8,174.7,381.8z"/>
		<path class="st0" d="M328.8,368.3c3.5,2.8,6.3,6.4,9.6,9.3c-0.8,1.7-2.9,2.8-2.7,4.9c0,11.3-0.1,22.7,0,34
			c-0.3,3.1,3.3,3.6,5.7,3.4c-4.1,4-7.9,8.3-11.9,12.4c-3.1-3.6-6.8-7.7-6.7-12.8c0-12,0-24,0-36c0.1-1.6-0.5-3-0.9-4.5
			c-0.6-0.3-1.9-0.9-2.5-1.2C322.6,374.7,325.8,371.5,328.8,368.3z"/>
		<g>
			<path class="st0" d="M6.3,378.4c4.6-2.1,8.3-5.7,12.3-8.8l0.8,0.1c4.7,4.6,9.4,9.6,15.8,11.7c-2.1,1.3-3.3,3.6-4,5.9
				c0.1,9.7,0,19.5,0,29.2c-0.1,2.2,1,4.6,3.1,5.4c1.2-0.1,2.4-0.5,3.5-1c-3.6,4.3-8.1,7.8-11.3,12.4c-4-3.6-7.1-8.3-8.3-13.6
				c-5,4.5-9.6,9.3-14.6,13.8c-2.2-2.2-4.9-4.1-6.3-7c-2-6-0.8-12.5-1.3-18.6c-3.4-2.3-7.4-3.7-10.7-6.2c3.7-1.5,7.2-3.4,10.8-5.1
				c0.1-4.3-0.3-8.8,1.5-12.8C-0.2,381,3.3,379.9,6.3,378.4z M8.7,383.5c0.1,12-0.1,24,0.1,36c-0.2,2.3,2.6,3.5,4.5,2.6
				c2.1-1.1,3.9-2.6,5.5-4.2c-0.3-10.5,0-21-0.1-31.5c-3-3-6.5-5.6-9.3-8.8C8.7,379.5,8.7,381.5,8.7,383.5z"/>
		</g>
		<g>
			<path class="st0" d="M151.1,376.2c4.2-2.3,8.2-4.8,12.6-6.8c3,6.8,7.4,12.9,9.8,20c-7.1,5.4-13.7,11.6-20.7,17
				c1.6,6.1,5.1,12.8,11.9,14.1c3.2,1.1,6.1-1.1,8.9-2.4c-5.1,4.6-10.3,9.2-14.9,14.3c-1,1.7-2.8,0.4-4-0.2
				c-6.4-3.6-12.2-9.4-13.7-16.8c-0.7-2.9-0.6-6-0.5-9c-2.2-2.4-5.3-3.8-7-6.6c2.3-1.4,4.6-2.9,6.8-4.4c0.4-4,0.6-8.1,2.4-11.8
				C144.2,380.1,147.9,378.2,151.1,376.2z M152.9,376.4c-0.1,9-0.3,18.1,0.1,27.2c3.4-2.8,6.7-5.6,10.1-8.2
				c-2.5-6.8-5.8-13.1-8.4-19.8C154.3,375.7,153.4,376.1,152.9,376.4z"/>
		</g>
		<g>
			<path class="st0" d="M246.5,369l1,0.1c4.8,5.2,10.2,10.3,17.2,12.3c-3,1-4.9,3.9-4.8,7c0,9.4,0,18.7,0,28
				c-0.1,1.7,0.6,3.3,1.4,4.8c2.1,0.3,4.1-0.5,6-1.2c-3,3.4-6.5,6.3-9.4,9.8c-1.2,1.2-2,2.7-3.5,3.5c-3.1-2.5-5.8-5.7-7.2-9.5
				c-0.5-1.1-0.7-2.5-1.7-3.3c-4.4,4.5-9.1,8.7-13.3,13.4c-4.3-2.4-8.2-6.7-8.3-11.9c-0.4-7.5-0.1-15.1-0.2-22.6
				c0.1-5.4-0.4-11,1.4-16.1c2-1.8,4.3-3.3,6.9-4.4C237.6,376.8,242.1,372.9,246.5,369z M237.1,378.3c-0.1,14-0.2,28,0,42
				c2.6,3.8,6.5-0.3,8.9-2.2c0.1-10.8,0.2-21.5-0.1-32.3C242.6,383.9,240.1,380.8,237.1,378.3z"/>
		</g>
		<path class="st0" d="M268.4,380.6c3.9-3.8,7.2-8.2,11.1-11.9c5.2,3,8,8.8,7.8,14.8c5.8-4.5,10.9-10.2,17.3-14c2,4.1,5.7,7,9,10
			c-2.6,1.8-4.2,4.8-3.9,8c0.1,9.3,0.2,18.7,0.2,28c0.2,1.6-0.2,3.5,1,4.7c1.1,1.4,3.1,0.6,4.7,0.8c-3.8,3.8-7.6,7.7-11.3,11.7
			c-4.2-3.8-8-9.2-7.5-15.2c0-10.3,0-20.6,0-31c0.1-1.5-0.4-2.9-1-4.2c-0.8-0.4-1.6-0.8-2.3-1.2c-2.2,1.6-4.3,3.4-6.3,5.3
			c0.1,10.8,0,21.5,0.1,32.3c-0.2,1.6,1.4,2.6,2.2,3.8c-4.1,2-6.4,6.2-8.8,9.9c-2.6-3.9-5.6-7.8-10-9.8c1.8-1,4-2.5,3.6-4.9
			c0.1-10,0.1-20.1,0-30.1C274.2,384.2,272.2,380.1,268.4,380.6z"/>
		<g>
			<path class="st0" d="M358.6,376.6c3.5-2.1,6.3-5.1,9.7-7.3c4.5,5,9.5,9.8,15.9,12.1c-2.9,1.6-3.9,4.9-3.9,8
				c0,9.1-0.1,18.1,0,27.2c-0.1,1.9,1,3.6,2,5.1c1.3,0,2.6-0.1,4-0.1c-3.9,3.6-7.7,7.4-10.9,11.6c-2.7-2.9-5.5-5.9-7-9.7
				c-0.6-1.3-0.5-3.1-1.9-3.8c-4.1,4.7-9,8.8-13.1,13.4c-4.7-1.7-8.1-6.8-8.2-11.8c-0.1-10,0-20,0-29.9c0.2-3.2,0.1-7,2.8-9.2
				C351.3,379.8,355.3,378.9,358.6,376.6z M357.8,390.5c0.2,10.1-0.4,20.4,0.3,30.4c3.1,3.6,7.1-1.1,9.8-3.1
				c-0.1-10.6-0.1-21.1,0-31.7c-3.6-2.4-6.5-5.7-9.6-8.6C357.4,381.8,357.9,386.2,357.8,390.5z"/>
		</g>
		<path class="st0" d="M68.6,377.1c3.9-0.5,6.4-3.8,8.8-6.5c-0.4,6.5-2.2,13.4-6.9,18.2c0,0-1.3,1.6-1.9,1.9
			c-6.5,3.8-14.4-2.1-18.2-8.1c-3.9,1.5-4.2,6.5-3.4,10c0.9,5.3,5.5,10.8,11.4,9.7c6.2-0.8,9-7.1,12-11.8c0.6,2,2.7,2.7,4.1,4.1
			c4.5,4.3,5.6,11.4,3.4,17.1c-3.4,9.4-9.9,17.4-16.9,24.5c-6.5-3.5-13.6-9.1-21.3-6c1.9-4.8,4.4-9.4,6-14.3
			c4.7,0.6,9.4,1.6,13.6,3.9c3.4,1.6,6.3,4,9.6,5.8c2-5.7,1.9-12.3-1.1-17.6c-1.9-3.2-5.7-5.5-9.5-4.4c-5.9,1.6-9.1,7.4-11.8,12.4
			c-0.2-0.5-0.6-1.6-0.8-2.2c-4.1-3.2-7.8-7.7-7.7-13.1c-0.3-7.8,5.6-13.7,10.9-18.5c3.4-2.9,6-6.5,8.3-10.3
			C59.9,375.2,64.2,377.8,68.6,377.1z"/>
	</g>
</g>
</svg>
