<?xml version="1.0" encoding="utf-8"?>
<!-- Generator: Adobe Illustrator 19.0.0, SVG Export Plug-In . SVG Version: 6.00 Build 0)  -->
<svg version="1.1" id="Layer_1" xmlns="http://www.w3.org/2000/svg" xmlns:xlink="http://www.w3.org/1999/xlink" x="0px" y="0px"
	 viewBox="-105 343.6 400.4 106.4" style="enable-background:new -105 343.6 400.4 106.4;" xml:space="preserve">
<style type="text/css">
	.st0{fill:#FFFFFF;}
</style>
<title>Counter-Strike logo (2023)</title>
<g>
	<path class="st0" d="M-11.5,386.4c6.1,0,11.6-3.6,14-9.2l9.9-23c2.1-5-1.5-10.5-7-10.5h-34c-6.1,0-11.6,3.6-14,9.2l-9.9,23
		c-2.1,5,1.5,10.5,7,10.5H-11.5z M-31.5,355.5l-4.7-2.3H0.4l-9.1,21.1v0c-0.6,1.4-2,2.3-3.5,2.3h-28.4L-31.5,355.5z"/>
	<path class="st0" d="M140.5,386.4h7.2c3.1,0,5.8-1.8,7-4.6l12.2-28.5h12.4c1.9,0,3.9-1.2,4.6-2.8l2.9-6.8h-43.7l-4.2,9.6
		c0,0,15.2,0,15.7,0L140.5,386.4z"/>
	<path class="st0" d="M-31.7,416.5l-1.6,3.7l-1.1,2.7c-2.1,5,1.6,10.5,7,10.5h2.8l22.9,0l0,0l-2.9,6.8h-34.7c-1.5,0-2.9,0.9-3.5,2.3
		l-3.2,7.5h39.2c6.1,0,11.6-3.6,14-9.2l2.9-6.7c2.1-5-1.5-10.5-7-10.5h-25.7l1.9-4.4l-4.8-2.3h40.5c1.5,0,2.9-0.9,3.5-2.3l3.1-7.3
		h-39.2C-23.8,407.2-29.3,410.9-31.7,416.5z"/>
	<path class="st0" d="M180.6,386.4h37.9c1.5,0,2.9-0.9,3.5-2.3l3.2-7.4h-33.8l3-6.9h25.2c1.5,0,2.9-0.9,3.5-2.3l2.6-6H198l2.5-5.9
		l-4.8-2.3h37c1.5,0,2.9-0.9,3.5-2.3l3.1-7.3h-41.1c-3.1,0-5.8,1.8-7,4.6l-14.1,32.9C176,383.6,177.9,386.4,180.6,386.4z"/>
	<path class="st0" d="M16.9,386.4h31.2c6.1,0,11.6-3.6,14-9.2l14.3-33.5l-7.2,0c-3.1,0-5.8,1.8-7,4.6L51,374.3
		c-0.6,1.4-2,2.3-3.5,2.3l-25.4,0l14-33h-7.3c-3,0-5.8,1.8-7,4.6L9.9,375.8C7.8,380.8,11.5,386.4,16.9,386.4z"/>
	<path class="st0" d="M73.6,386.4c3.1,0,5.8-1.8,7-4.6h0l10.3-23.9l14.1,26.5c0.7,1.2,2,2,3.4,2h7.8c1.5,0,2.9-0.9,3.5-2.3
		l17.4-40.4l-7.4,0c-3,0-5.8,1.8-7,4.6l-10.8,25l-14.7-27.6c-0.7-1.2-2-2-3.4-2l-9.2,0l-18.4,42.7H73.6z"/>
	<path class="st0" d="M-83.3,355.5l-4.9-2.3H-51c1.5,0,2.9-0.9,3.5-2.3l3.1-7.3l-36.2,0c-6.1,0-11.6,3.6-14,9.2l-9.9,23.1
		c-2.1,5,1.5,10.5,7,10.5h32.2c1.5,0,2.9-0.9,3.5-2.3l3.2-7.4h-33.9L-83.3,355.5z"/>
	<path class="st0" d="M215.8,411.8l-14.1,32.9c-1.1,2.5,0.8,5.3,3.5,5.3h37.8c1.5,0,2.9-0.9,3.5-2.3l3.2-7.4h-33.7l3-6.9H244
		c1.5,0,2.9-0.9,3.5-2.3l2.6-6h-27.6l2.5-5.9l-4.8-2.3h36.9c1.5,0,2.9-0.9,3.5-2.3l3.1-7.3h-41C219.7,407.2,216.9,409.1,215.8,411.8
		z"/>
	<polygon class="st0" points="285.9,386.4 285.9,386.4 285.9,386.4 	"/>
	<path class="st0" d="M287.7,343.6h-40.9l-18.4,42.8h7.3c3.1,0,5.8-1.8,7-4.6l2.2-5.1h22.7l5.3,9.7h12.8l-5.2-9.7
		c2.7,0,5.1-1.6,6.1-4l7.9-18.4C296.9,349.2,293.2,343.6,287.7,343.6z M278.2,364.8c-0.6,1.4-2,2.3-3.5,2.3h-25.5l5-11.6l-4.7-2.2
		l33.7,0l0,0L278.2,364.8z"/>
	<path class="st0" d="M117.3,436.2l7.9-18.4c2.1-5-1.5-10.5-7-10.5H77.3L59,450h7.3c3.1,0,5.8-1.8,7-4.6l2.2-5.1h22.7l5.3,9.7h12.8
		l0,0l-5.2-9.7C113.8,440.3,116.2,438.7,117.3,436.2z M108.6,428.4c-0.6,1.4-2,2.3-3.5,2.3H79.6l5-11.6l-4.7-2.2l33.7,0l6.8,12
		l-6.8-12L108.6,428.4z"/>
	<path class="st0" d="M68.6,414.1l2.9-6.8H27.7l-4.2,9.6c0,0,15.2,0,15.7,0L25.1,450h7.2c3.1,0,5.8-1.8,7-4.6l12.2-28.5H64
		C65.9,416.9,67.9,415.7,68.6,414.1z"/>
	<path class="st0" d="M152.4,407.2h-12.3L121.7,450h9c1.9,0,4-1.3,4.7-2.9l10.7-25.1L152.4,407.2z"/>
	<path class="st0" d="M214.3,407.2h-18c-0.8,0-1.5,0.2-2.2,0.7l-28.5,19.5l8.7-20.2h-12L143.9,450h12l5.2-11.9l10.5,0h3.8v0
		l8.2,11.9h13.2l-14.4-20.7L214.3,407.2z"/>
</g>
</svg>
