<?xml version="1.0" encoding="utf-8"?>
<!-- Generator: Adobe Illustrator 19.0.0, SVG Export Plug-In . SVG Version: 6.00 Build 0)  -->
<svg version="1.1" id="Layer_1" xmlns="http://www.w3.org/2000/svg" xmlns:xlink="http://www.w3.org/1999/xlink" x="0px" y="0px"
	 viewBox="0 0 2435.9 244" style="enable-background:new 0 0 2435.9 244;" xml:space="preserve">
<style type="text/css">
	.st0{fill:#FFFFFF;}
</style>
<g>
	<path class="st0" d="M1589.5,232.1c-25.8,0-51.7,0.3-77.5-0.1c-19.9-0.3-34-12.3-37.9-31.7c-0.6-3.1-0.6-6.3-0.6-9.4
		c-0.1-45.7-0.1-91.3-0.1-137c0-24.6,16.2-41.2,40.7-41.4c35.3-0.3,70.7-0.2,106-0.1c16.7,0,33.3-0.1,50,0.6c20,0.9,35.2,17,35.3,37
		c0.2,48-0.2,96,0.1,144c0.1,18.4-14,34.9-30.5,37.4c-3.8,0.6-7.6,0.7-11.5,0.7C1638.9,232.1,1614.2,232.1,1589.5,232.1z
		 M1538.5,121.3C1538.5,121.3,1538.5,121.3,1538.5,121.3c-0.1,14.3-0.2,28.6,0,43c0.1,8.1,5.2,13.7,12.8,13.7
		c25.5,0.2,50.9,0.2,76.4,0c8-0.1,12.9-5.3,13-13.5c0.2-28.5,0.2-56.9,0.2-85.4c0-7.9-5.4-13.1-13.2-13.1c-24.6,0-49.3,0.4-73.9-0.2
		c-10.5-0.2-15.5,5.7-15.3,15.5C1538.7,94.6,1538.5,108,1538.5,121.3z"/>
	<path class="st0" d="M0.5,15c6.2,0,12.1,0,17.9,0c57.5,0,114.9,0.4,172.4-0.3c24.8-0.3,41.3,19.4,41,40.6
		c-0.6,45.1-0.1,90.3-0.3,135.4c-0.1,24.4-15.7,40.1-39.9,40.2c-62,0.2-123.9,0.1-185.9,0.2c-4.1,0-5.4-1.2-5.4-5.3
		c0-51-0.1-101.9-0.2-152.9C0.1,54.8,0,36.6,0,18.5C0,17.5,0.3,16.5,0.5,15z M64.7,176.9c22.1,0,43.4,0,64.7,0c8.7,0,17.3,0,26-0.5
		c6.3-0.3,10.6-5.2,11.2-11.4c0.1-1.7,0.2-3.3,0.2-5c0-25.3,0.1-50.6,0-75.9c0-10.1-6.1-16.2-16.1-16.2c-27-0.1-54-0.1-80.9-0.1
		c-1.7,0-3.5,0.2-5,0.2C64.7,104.6,64.7,140.5,64.7,176.9z"/>
	<path class="st0" d="M327.7,145.9c0,10.6,0,20.4,0,30.9c2,0,3.8,0,5.5,0c47.6-0.1,95.3-0.1,142.9-0.2c3,0,4.3,0.7,4.3,3.8
		c-0.1,15.7-0.1,31.3,0,47c0,4.2-2.6,3.9-5.3,3.8c-22.7,0-45.3-0.1-68-0.1c-46.5,0-93,0-139.5,0.2c-5.2,0-6.4-1.6-6.4-6.5
		c0.1-63.3,0-126.6,0-189.9c0-5.2,0.2-10.3-0.1-15.5c-0.2-3.4,0.7-4.6,4.4-4.6c65,0.3,130,0.6,194.9,0.8c4.8,0,9.7,0.1,14.5-0.1
		c4-0.2,5.6,1.1,5.5,5.4c-0.2,14-0.2,28,0,42c0.1,3.8-1.3,4.9-4.9,4.9c-47.3,0-94.6,0-141.9,0.1c-1.8,0-3.6,0-5.8,0
		c0,10.8,0,21.2,0,32.1c1.3,0.1,2.8,0.3,4.2,0.3c35.8,0,71.6,0,107.5-0.1c3.9,0,5,1.3,4.9,4.9c-0.1,12.5-0.1,25,0,37.5
		c0,3.6-1.9,3.7-4.4,3.7c-35.5-0.1-71-0.1-106.5-0.1C331.8,145.9,330,145.9,327.7,145.9z"/>
	<path class="st0" d="M2216.7,15c6,0,11.1,0,16.2,0c65.8,0,131.6,0,197.4-0.2c4.6,0,5.6,1.5,5.5,5.7c-0.2,13.8-0.3,27.7,0.1,41.5
		c0.1,4.8-1.5,5.9-5.9,5.9c-47-0.1-94-0.1-141-0.1c-1.8,0-3.6,0-5.8,0c0,10.8,0,21.2,0,31.9c1.3,0.1,2.6,0.3,3.9,0.3
		c36,0,72,0.1,108,0c3.5,0,4.8,0.9,4.7,4.5c-0.1,12.7-0.1,25.3,0,38c0,3.4-2,3.3-4.2,3.3c-7.3,0-14.7,0.1-22,0
		c-29.2,0-58.3-0.1-87.5-0.1c-0.8,0-1.6,0.1-3.2,0.3c0,9.1,0.1,18-0.1,26.9c-0.1,3.8,2.1,3.7,4.8,3.7c24-0.1,48-0.1,72-0.1
		c23.7,0,47.3,0.2,71,0.2c3.4,0,4.3,1.2,4.2,4.4c-0.1,15.2-0.3,30.3,0,45.5c0.1,4.9-2.9,4.4-5.9,4.4c-24,0-48,0.1-72,0.1
		c-44.8,0-89.6-0.2-134.5,0c-5.4,0-5.8-2.4-5.8-6.6c0.1-41.5,0.1-83,0.1-124.5c0-26.2,0-52.3-0.1-78.5
		C2216.7,19.6,2216.7,17.6,2216.7,15z"/>
	<path class="st0" d="M1898.1,153.3c16.9,26,33.4,51.4,50.5,77.5c-2.5,0.2-3.9,0.3-5.3,0.3c-19.5,0-39-0.2-58.5,0
		c-3.8,0-6.1-1.1-8.1-4.3c-24.3-37.2-48.7-74.4-73-111.5c-1.7-2.6-3.4-5.2-5.6-8.5c5.6,0,10.3,0,15.1,0c20.5,0,41,0,61.5,0
		c10.7,0,15.1-4.6,15.1-15.3c0-3.5,0.1-7,0-10.5c-0.3-8-5.7-13.2-13.7-13.2c-25,0-50,0-75,0c-1.3,0-2.6,0.1-4.6,0.2
		c0,2.7,0,5.3,0,7.9c0,49.8,0,99.6,0.2,149.4c0,4.4-1.1,5.8-5.6,5.7c-17.7-0.2-35.3-0.2-53,0.1c-5,0.1-6.6-1.3-6.6-6.4
		c0.2-50.3,0.1-100.6,0.1-150.9c0-18.2,0.1-36.3-0.1-54.5c0-3.8,1.1-4.7,4.8-4.7c51.5,0.2,103,0.6,154.4,0
		c29.9-0.3,58.5,22.7,58.6,57.8c0,10,0.2,20-0.6,30c-2.1,25.2-21.6,45.6-46.6,49.6C1901.1,152.4,1900,152.8,1898.1,153.3z"/>
	<path class="st0" d="M870.2,230.5c0.7-1.3,1.3-2.6,2-3.8c34.4-59.5,68.7-119,103.1-178.5c5.7-9.9,11.2-20,17.2-29.8
		c1-1.7,3.8-3.3,5.8-3.4c11.1-0.4,22.3-0.5,33.5-0.2c2,0.1,4.7,2.2,5.9,4.2c10.6,18.1,21,36.3,31.5,54.5
		c23.6,41,47.2,81.9,70.8,122.9c6.5,11.3,13.1,22.7,19.9,34.5c-58.5,0-116.2,0-174.3,0c0.4-1.1,0.6-2,1.1-2.8
		c8.8-15.4,17.9-30.8,26.5-46.4c2.2-3.9,4.7-5.1,9.1-5c10.3,0.4,20.7,0.2,31,0.2c0.9,0,1.9-0.1,3.7-0.3
		c-13.7-24-27.1-47.4-41.1-71.8c-1.5,2.1-2.5,3.4-3.4,4.9c-19.9,34.6-39.8,69.3-59.6,103.9c-2.8,4.9-5.5,9.9-8.5,14.7
		c-0.8,1.3-2.7,2.8-4.1,2.8c-23,0-46-0.1-68.9-0.3C871,230.9,870.8,230.8,870.2,230.5z"/>
	<path class="st0" d="M2097,11.9c29.2,0,58.3,0.1,87.5-0.1c4.2,0,5.4,1.2,5.3,5.3c-0.3,14-0.3,28,0,42c0.1,4.6-1.2,6-5.8,5.9
		c-43.3-0.1-86.6,0-129.9,0c-4.6,0-9.3-0.1-12.2,4.2c-1.6,2.3-3.3,5.3-3.3,8c-0.4,29-0.6,58-0.5,86.9c0,9.2,4.6,13.6,13.8,14.4
		c2.2,0.2,4.3,0.2,6.5,0.2c41.7,0,83.3,0.1,125-0.1c4.9,0,6.6,1,6.5,6.3c-0.4,14.2-0.3,28.3,0,42.5c0.1,4.5-1.4,5.6-5.7,5.6
		c-45.3-0.1-90.6-0.1-135.9-0.1c-11.8,0-23.7-0.2-35.5,0c-25.5,0.4-39.9-21.5-39.6-41c0.7-46.5,0.3-93,0.2-139.4
		c-0.1-17.3,7.4-29.8,22.8-37.1c4.4-2.1,9.6-3.1,14.4-3.2C2039.3,11.8,2068.1,12,2097,11.9C2097,12,2097,11.9,2097,11.9z"/>
	<path class="st0" d="M1320.2,68c0,10.7,0,21.1,0,32.2c2,0,3.7,0,5.5,0c33.8,0,67.7,0,101.5-0.2c3.9,0,5.4,1.1,5.3,5
		c-0.1,12.3-0.1,24.7,0.1,37c0.1,3.9-2.3,3.8-4.9,3.8c-12.8,0-25.7,0-38.5-0.1c-21.7,0-43.3,0-65,0c-1.3,0-2.6,0.2-4,0.3
		c0,26.4,0,52.5,0,78.7c0,6.4,0.2,6.3-6.2,6.3c-16.3,0-32.7,0-49,0.1c-11.4,0-11.5,0-11.5-11.2c0-61.8,0-123.6,0.1-185.5
		c0-5,0.3-10,0-15c-0.2-3.9,1.3-4.7,4.9-4.7c28.8,0.2,57.7,0.2,86.5,0.3c33.5,0.1,67,0.3,100.5,0.2c4.1,0,5.6,1.1,5.5,5.3
		c-0.2,14.2-0.3,28.3-0.1,42.5c0.1,4-1.6,4.7-5,4.7c-17.7-0.1-35.3,0-53,0c-22.7,0-45.3,0-68,0.1C1323.4,67.8,1322,68,1320.2,68z"/>
	<path class="st0" d="M759.7,69.4c-5,0-9.7,0-14.3,0c-20.7,0.1-41.3,0.2-62,0.2c-7.5,0-7.5,0-7.5-7.3c0-14.3,0.1-28.7-0.1-43
		c0-3.6,1.2-4.5,4.6-4.5c74.8,0.1,149.6,0,224.4,0c3.4,0,4.6,0.8,4.6,4.4c-0.2,14.8-0.3,29.7-0.1,44.5c0.1,4.4-1.2,5.7-5.5,5.7
		c-24.3-0.2-48.6,0.1-73-0.1c-3.9,0-5.1,0.8-5.1,4.9c0.1,50.3,0,100.6,0.1,150.9c0,4.7-1.2,6.1-5.8,6c-18-0.2-36,0-54,0
		c-6.4,0-6.5,0-6.5-6.6c0-49.8,0-99.6,0-149.4C759.7,73.4,759.7,71.8,759.7,69.4z"/>
	<path class="st0" d="M577.8,177c2.7,0,4.7,0,6.7,0c41.1,0,82.3,0,123.4-0.2c3.3,0,4.4,1.1,4.4,4.2c0,15.5,0.1,31-0.1,46.5
		c0,1.2-2.1,3.2-3.4,3.4c-3.4,0.5-7,0.1-10.5,0.1c-60.8,0-121.6,0.1-182.4,0.1c-7.4,0-7.5,0-7.5-7.2c0-68.5,0-136.9,0-205.4
		c0-3.5,1-4.6,4.5-4.5c20.2,0.2,40.3,0.2,60.5,0c3.9,0,4.6,1.3,4.6,4.9c-0.2,47.3-0.2,94.6-0.3,141.9
		C577.8,166,577.8,171.2,577.8,177z"/>
</g>
</svg>
