<?xml version="1.0" encoding="utf-8"?>
<!-- Generator: Adobe Illustrator 19.0.0, SVG Export Plug-In . SVG Version: 6.00 Build 0)  -->
<svg version="1.1" id="Layer_2" xmlns="http://www.w3.org/2000/svg" xmlns:xlink="http://www.w3.org/1999/xlink" x="0px" y="0px"
	 viewBox="-31 333.6 476.5 169.4" style="enable-background:new -31 333.6 476.5 169.4;" xml:space="preserve">
<style type="text/css">
	.st0{fill:#FFFFFF;}
</style>
<g id="Layer_1-2">
	<path class="st0" d="M175.1,367.4c-0.3-1.8-2.3-3-4.1-2.3c-3.4,1.3-4.1,6.5-5.6,9.3c-4.3,10-8.1,23.1-10.7,33.6
		c-1.1,4.9-2.5,11.8-3.4,16.8c-0.6,9.5-2.9,19.1-10.4,25.6c-1-0.9-1.3-2.2-1.3-3.2c-0.6-4.1,0-9.9-0.1-14.1c0.1-2.1-0.6-3.8-2.4-5.1
		c-3.6-2.3-6,7.7-8.2,9.7c-3.9-3.4-3.5-16.1-3.1-21.3c-4-6.8-6.8,10.6-8.3,13.1c-3.2,7.2-5,15.8-10.2,21.7
		c-2.4-3.7,6.9-37.7-0.3-32.2c-4,3-4.2,8.2-6.6,12.2L94,443.6c-2.1,3.5-3.8,12-9,10.5c-6.1-10.8,12.8-11.1,11.1-31.5
		c-0.1-2.4-1.6-3.9-3.9-4.1c-10.4,0.6-14,14.8-16,23.3c-2.5,5.6-8.8,9.5-14.4,11.6c17.6-14,20.8-36.2,14.9-57
		c-4.2-17.8-10.5-35.7-22.8-49.5C38.7,327.5,8,328.8,0.2,354.2c-2,4.2-2.1,8.9-2.6,13.4c-1,8-2.3,17.5-3.2,25.5
		c0.3,2.1-4.2,20.7-0.2,17.2c3.6-11.2,8-24.5,11.7-35.8c2.5-15,7.6-39.8,28.4-31.5C56,356.7,61.4,386.2,67,409.5
		c0.8,5.9,2,11.8,2.3,17.7c-0.6,10.2-8.7,20.2-19.3,20.5c-14.3,3.8-28.7,3.6-43.2,1c14.9-12.1,18.7-31.1,26-47.9
		c2.7-6.8,5.6-14.3,9.4-20.5c0.9-2.6,7-10.3,5.5-12.2c-2.3-1.8-13.2,13.3-16.3,15.3c-9.1,11.5-13.7,26.3-19.7,39.5
		c-3.7,9.8-8.5,20.8-18.9,24.9c-7.7,4.2-16.9,8.1-23.8,13.5c0,0.6,0.2,1.2,0.5,1.6c7.8-0.7,17.2-6,24.8-5.9
		c3.9,1.2,13.3,3.9,17.4,5.1c10.1,2,29.2,1,39.2-1c8.1-0.4,15.3-6.1,23.3-6.8l1.3-1.1c-0.2,11.4,13.1,11.8,18.4,3.8
		c2.9-4.7,4.3-10.3,6.5-15.2c0.9,5-5,25.2,4.6,22.1c7.6-7.8,10.8-18.8,15.3-28.5c0,6,3.4,12.7,10.1,11.4c1.9,4.9,0.1,11.8,5,15.4
		c7.6,1.9,9.9-8.8,14.1-13c-0.8,24.2,22.2,10.1,18.6-4.3c-1.8-1.5-5.2,6.1-8.8,5.8l-1.4-1c-6.2-14.5,7.5-28,9.9-42.1
		C171.4,394.8,176.6,380.8,175.1,367.4L175.1,367.4L175.1,367.4z M89.6,428.1c0.6,3.4-2.5,5.9-4.5,8.5
		C84.5,434.7,87.4,429.2,89.6,428.1z M167.7,390.5c-2.2,10.5-4.6,20.3-9.2,30.1c1.7-11,4.2-22.2,9.5-32
		C168.4,389.4,167.8,389.9,167.7,390.5L167.7,390.5L167.7,390.5z M392.3,463.3c-8.6,1.3,0.7-17.9,0.5-22.5
		c1.4-12.6-2.2-13.2-6.9-1.7c-5.8,13.1-19,20.4-32.5,23.3c-42,7.8-29.7-39.8-15.9-61.6c10.1-17.1,22.8-33.5,37.8-46.5
		c8.1-6.5,15.3-16.1,26-18.1c4.4-0.8,10.8-0.5,11.7,4.9c2.6,10.6-10.7,31.7-15.8,41.6c-3.8,8.2-34.1,42.1-15.2,12.1
		c7-11.7,39.1-72.2,2.6-37.9c-19.8,20.4-34.9,45.2-46.9,70.8c-1.3,4.7-10.9,16.9-3.4,19c6.8,1.9,14.1,2.6,21,1.8
		c1.5,0.2,2.9-0.7,4.4-0.3c13-2.9,21.8-7.3,25.8-20.9c1.3-4.2,1.2-9.4,5.7-11.6c8.6-2.1,9.8,10.8,9.8,16.8c1,5.6-4.5,11.7-2.6,16.8
		c2.5-1.3,5.2-5.8,6.3-8.8c2.9-5.2,7.7-9.2,11.4-13.9c1.7-2.1,4.9-6.9,7.3-2.9c-0.1,6.7-2.6,12.7-3.8,19.2c-0.1,0.5,0.1,0.9,0.4,0.5
		c6.6-3.5,17.4-29.3,23.3-25.6c2.4,1.7,0.7,5-0.1,7.1c-2.6,7.4-4.8,14.8-6.6,22.4c2-1.1,7.2-11.2,8-8.2c3.9,8.1-5.1,10.4-8.5,15.9
		c-7.9,11.1-14.4,29.6-22.5,40.6c-1.6,2.4-7,9.1-8.8,3.4c2.5-8.9,7.6-16.8,12.2-24.7c1.6-2.8,8.1-11.9,8.7-14.9
		c2.1-6.6,5.6-13.8,5.2-20.6c-5.5,3.8-10.1,18.8-17.9,18c-3.8-2.8-2.4-9.1-1.3-13.1c0.4-0.6-0.2-0.7-0.5-0.6c-4,1.4-7,8.1-9.5,11.2
		C398.9,457.6,396,461.4,392.3,463.3L392.3,463.3L392.3,463.3L392.3,463.3z M313.5,444.6c-1.1-6.3-5.8,4.5-8.1,5.7
		c-0.6-0.9,1.1-4.7,1.3-5.6c1.2-4.1,4.1-13.4,5.5-17.4c1.8-8.5-4.9-5.7-7.4-0.6c-4.9,6.7-9.1,14.1-15.2,19.9
		c-0.3,0.4-0.8,0.3-0.6-0.4c0.6-5.6,5.3-14.7,2.7-19.5c-3.8-0.8-5.3,3.8-7.7,5.9c-10.9,13-11.3,15.1-11-3.4
		c2.3-4.3,4.1-24.3-5.3-15.8c-8.8,7.9-14.9,21-23.1,29.3c-13.4,19.1-4.4-10.4-1.6-16c2-5.7,3.8-12.4,5.7-18.1
		c0.8-4.2,11.5-27.1-0.3-18.9c-11.8,12.2-17.5,29.3-26.2,43.6c3.1-15.3,9.7-30.2,11.9-45.6c-3.2-4.6-7.6,2.3-9.7,5
		c-9.9,13.6-15.4,32.1-24.7,46.1c-2.5,5.2-8.2,7.5-11.4,12.1c-0.1,0.4-5.4,3.8-5.8,4.1c-3.4,2.3-6.6,4.9-10.4,6.8
		c-1.5,0.2-5.1,4.9-2.1,4.6c6.1-1.7,14.8-2.5,20.7-4.4c9.5-12.6,18.9-25.7,25.1-40.3c0.2-0.1,3.3-7.9,3.7-7.1
		c-19.6,60.1-4.7,52,17.6,3.8c-4.3,9.8-15.2,60.2,7.2,33.2c0,4.1-1.9,12.2,4.9,10.8c6.9-3.8,9.5-12.3,15-17.7
		c-0.2,4.6,1.2,13,7.9,10.7c1.7-0.6,3-1.7,3.4-4.4c0.2-1.5,1.4-2.8,3-2.9c1.1,0,1.5-1.5,2.6-1.5c-0.2,4.5-2.3,17.9,6.1,12
		c5.3-4.3,7.1-11.9,12.6-15.8c-0.5,17.6-13.3,31.4-20.4,46.7c-1.1,2.8-8.8,13.4-1.2,12.2c7.5-5.1,10.6-14.5,14.9-22.1
		c4.5-8.6,8.1-18.1,15-25.2C311.4,452,314.6,449.1,313.5,444.6L313.5,444.6L313.5,444.6z M263.1,435.1c-2.7,3.6-4.7,8-8.3,10.7
		c2.3-6.1,8.9-14.8,13.2-21.3c1.2,0.6,1.9,1.9,1.6,3C266.5,429.3,265,432.4,263.1,435.1L263.1,435.1L263.1,435.1z M137,407.5
		c-1.5-7.1,2.5-14.7,7.7-19.3c7-1,1.1,11.4,0.6,14.8C144.5,406.6,140.4,411.7,137,407.5L137,407.5L137,407.5z"/>
</g>
</svg>
