<svg xmlns="http://www.w3.org/2000/svg" width="2407" height="454" viewBox="0 0 2407 454">
  <defs>
    <style>
      .cls-1 {
        fill: #fff;
      }

      .cls-1, .cls-2 {
        stroke: #fff;
        stroke-width: 4px;
        fill-rule: evenodd;
      }

      .cls-2 {
        fill: none;
      }
    </style>
  </defs>
  <path class="cls-1" d="M33,68L54,388s-1.281,20,18,20,107-3,107-3,45.8-5.242,75-66,24-90.361,24-124-29-97-29-97-47.456-71.1-87-73S47,45,47,45,32.513,49.987,33,68Zm78,86,8,150s-1.634,12.81,7,13,30-1,30-1,14.375-4.677,25-20,11.426-34.979,12-40-1.164-43.045-2-53-21.685-57.874-42-58-22.3-1.361-31-1S111.974,154,111,154Z"/>
  <path class="cls-2" d="M130,162l6,136h16s22.362-6.395,23-41a366.856,366.856,0,0,0-3-54s-11.763-41.4-29-41C128.2,162.344,130,162,130,162Z"/>
  <path class="cls-1" d="M290,174l60,2,34-80s6.586-11.8,15,1,31,79,31,79l66,2s17.621-.3,7,15c-11.4,16.421-48,55-48,55l27,85s0.9,17.9-12,12-79-50-79-50l-72,43s-16.454,1.626-12-13,20-81,20-81l-33-40s1.565,64.985-2,81c-2.33,13.189-16,51-16,51s38.508,67.258,92,73c39.229,4.211,89.468,17.8,147-64,32.137-45.692,26.089-151.953,16-178s-12.433-49.039-62-93c-50.929-45.169-127.534-31.269-155-7-38.769,34.256-31.385,35.073-44,55C278.818,139.979,287.565,156.961,290,174Z"/>
  <path class="cls-1" d="M1757.5,42.754c19-1.754,38,1.924,59.06,10.926,25.63,12.206,44.21,27.867,60.6,49.161,6.1,9.565,12.79,18.539,17.64,28.9a254.968,254.968,0,0,1,22.32,88.755c2.86,25.667.67,51.333-5.42,78-2.16,11-6.84,22-12.18,34.017q-20.61,43.392-62.31,65.653c-31.28,15.244-63.99,18.912-96.45,10.359-12.85-3.662-24.05-11.239-30.76-14.529,0.3-9.539-6.48-17.316-10.27-22.733-26.69-47.974-54.79-94.54-84.1-141.767,6.9-21,17.59-42,26.18-64,6.49-15.667,13.02-31.333,20.04-48,5.06-11.667,9.91-23.333,15.4-35.247a148.937,148.937,0,0,1,30.63-23.318C1718.46,52.256,1740.71,43.984,1757.5,42.754ZM1665,174l61,1,34-80s6.59-11.8,15,1,31,79,31,79l66,2s17.62-.3,7,15c-11.4,16.421-48,55-48,55l27,85s0.9,17.9-12,12-79-50-79-50l-72,43s-16.45,1.626-12-13,20-81,20-81l-45-53S1650.16,174,1665,174Z"/>
  <path class="cls-1" d="M1904,362l2,34s0.15,8.01,10,8,56-3,56-3,8.64-.537,9-13-2.63-63.318-3-67c0-8.1,12.65-16.144,19,1s29,62,29,62,2.6,13.583,16,13c13.38-.582,84-5,84-5s8.18,1.826,8-11-19-340-19-340-1.68-6.886-8-7-57,2-57,2-6.07-1.184-6,10,3,71,3,71c0,5.55-8.44,20.271-19,1-13.6-24.828-35-70-35-70s-1.99-7.763-15-7-86,4-86,4-5.63-2.646-5,10,2,34,2,34,50.66,59.413,48,151C1932.18,339.225,1904,362,1904,362Z"/>
  <path class="cls-1" d="M2286,408l54,4s7.51,3.2,8-9,11-177,11-177,1.27-8.438-13-10-72-5-72-5-11.89-3.867-14,14-3,36-3,36-1.61,5.558,10,6,14.76,4.827,13,19-5.09,33.7-23,36-41,1-41,1-24.42-7.7-25-35,9-137,9-137,3.44-36.656,35-36,34,2,34,2,19.67,7.558,20,26c0.22,12.425-2.38,25.448,10,28s50,3,50,3,14.67,2.733,16-16,4.72-38.988-3-65-25.41-40.522-45-47-118.86-8.077-122-8-45.39,1.6-58,43c1.85,42.366,15,297,15,297s0.26,17.082-5,20,107.14,22.806,113-5c3.04-14.409,18.79-24.212,22-7-1.75,9.907-1.64,11.275-4,17S2286,408,2286,408Z"/>
  <path class="cls-2" d="M286,379c-5.9-8.376-13.9-17.1-19.174-24.826-16.566,26.753-35.63,49.355-63.962,62.69-43.031,12.845-84.7,6.206-126.364,10.459-11.237.612-27.3-7.456-29.733-11.455-6.489-5.384-12.066-20.344-11.206-33.478C32.874,345.5,30.9,309.5,28.309,273.5c-3.043-49-6.363-97-9.163-145,1.093-28-8.97-55-.3-82,6.341-9.48,12.034-16.9,30.189-19.358C82.833,26.434,116.167,24.5,149.5,24.4c16.577-.286,39.278,9.615,48.959,15.227,26.014,15.973,44.788,36.837,60.932,62.434,3.276,1.277.942-.889,3.109-1.556,17.47-26.311,38.623-47.536,67.442-61.676C345.167,31,358.833,27.892,372.5,25.464a127.052,127.052,0,0,1,57,5.329c29.785,10.112,37.654,18.254,54.712,29.507-2.056-17.556,6.4-25.175,14.774-28.177,31.847-2.717,62.181-3.63,92.514-5.737,36.3,0.558,34.363,29.692,48.662,47.913-0.662.2,0.338-13.8,0.584-13.539C638.9,43.02,642.189,23.669,659.5,22.34c12.667,1.176,25.333-1.767,39.126-1.081,18.089-3.639,44.961-1.116,48.075,14.528,4.878,17.371,3.244,38.477,3.945,57.641L750.5,94.5"/>
  <path class="cls-2" d="M640.746,60.76C638.9,43.02,642.189,23.669,659.5,22.34c12.667,1.176,25.333-1.767,39.126-1.081,18.089-3.639,44.961-1.116,48.075,14.528,4.878,17.371,3.244,38.477,3.945,57.641L750.5,94.5s7-50,6.927-49.6c-0.39-14.211,5.795-23.437,14.073-27.359,18.333-3.093,36.667,3.483,55.878,4.337,18.415,1.93,42.108,2.062,41.291,21.465C869.5,44.5,869,51,869,51l-6,64s46.6-74.24,46-72,7.114-10.916,19-11c8.657-.061,24,1,24,1-3.432.746,10.774-4.785,15-5s6.5,0.5,6.5.037c59-2.331,118-6.143,177.65-8.606,9.69,0.112,10.14,6.576,19.35,5.107,12.67-.672,25.33,2.033,38.63.891,11.6,0.733,17.22,5.846,20.84,12,2.15,2.986,5.62,8.044,8.24,19.071,5.7,21.667,12.23,43.333,18.76,65.473,0.61-3.913,13.48-35.847,31.01-74.885,3.6-11.428,13.15-20.58,33.52-17.61,13.67,1.4,27.33,1.158,41.61,2.1,13.9-.91,24.32,4.906,27.22,12.7,5.08,11.39,1.55,23.544-3.94,31.422-13.69,28.726-26.22,55.536-41.11,86.912-15.1,31.744-26.27,55.537-42.93,89.894-1.88,47-3.24,94-4.8,141.822,0.21,12-3.81,24.1-11.05,27.7-17.33,4.4-34.67-.424-52.68.73-18.84,1.053-37.76-5.168-41.56-17.754-6.79,11.488-32.01,9.217-48.76,11.3-27,1.318-54,3.873-82,5.437-13.33,1.212-26.67,1.874-41.31,2.9-11.79,1.088-29.96,3.134-39.149-3.933-2.7,6.979-18.034,15.588-33.59,11.105-20.737-3.338-42.281-2.842-62.932-9.328-6.8-3.536-10.906-9.761-14.837-17.1-5.2-9.99-6.3-22.144-12.423-31.884-3.723-14.333-10.269-28.667-14.759-44,2.333-2.667-4.333.667-1.868,2-1.46,13.667-2.95,27.333-4.663,42.091-0.277,12.65-3.123,30.509-10.81,34.919-7.128,10.444-28.192,8.415-42.778,4.857-10.6.647-23.7-5.91-33.881,0.457-17.333,3.012-34.667,1.542-53,3.73-17.333-.489-50.211,2.607-63.5-10.554"/>
  <path class="cls-2" d="M632.257,407.353c-7.512-9.062-11.375-19.712-17.1-31.814a14.286,14.286,0,0,1-1.9,1.155c1.883,10.509,2.8,24.824-4.288,33.617-3.5,11.739-26.1,14.762-44.872,14.888-15.947-.059-39.8,5.666-51.405-5.837l-0.185.138"/>
  <path class="cls-2" d="M286,378.384c9.335,10.2,25.553,25.6,38.239,32.041,22.424,15.638,65.389,25.1,97.51,18.216,15.427-1.3,36.5-9.416,48.093-15.8A134.064,134.064,0,0,0,500.5,391.5c0.667-.833,2.833,1.333,2.028,2.871C501.883,403.785,509.992,416.987,514,421"/>
  <path class="cls-2" d="M391,126c4.282,11.013,9.665,25.717,14.108,36.824,4.578,9.581,7.877,26.53,15.392,31.371,18.333,2.233,36.667.947,55.042,2.347-4.865,6.8-11.3,12.036-16.119,18.881a14.945,14.945,0,0,0-2.006,2.564c-5.426,4.962-8.857,9.848-14.345,15.126-2.075,4.486-7.34,5.577-7.808,14.387,6.987,21.667,14.066,43.333,21.388,66.111-1.177,3.586-3.716-1.779-5.584-1.679-14.611-9.056-29.051-18.283-44.667-27.869-4.7-3.336-15.8-13.455-24.683-4.345-6.978,4.688-14.756,8.578-21.911,13.089L329,310l16-61s3.6-7.681-2-13-34-43-34-43l48,2s6.743-.172,10-10S390.975,125.887,391,126Z"/>
  <path class="cls-2" d="M1767,126c4.28,11.013,9.66,25.717,14.11,36.824,4.58,9.581,7.87,26.53,15.39,31.371,18.33,2.233,36.67.947,55.04,2.347-4.86,6.8-11.29,12.036-16.12,18.881a14.8,14.8,0,0,0-2,2.564c-5.43,4.962-8.86,9.848-14.35,15.126-2.07,4.486-7.34,5.577-7.81,14.387,6.99,21.667,14.07,43.333,21.39,66.111-1.18,3.586-3.71-1.779-5.58-1.679-14.61-9.056-29.05-18.283-44.67-27.869-4.7-3.336-15.8-13.455-24.68-4.345-6.98,4.688-14.76,8.578-21.91,13.089L1705,310l16-61s3.6-7.681-2-13-34-43-34-43l48,2s6.74-.172,10-10S1766.97,125.887,1767,126Z"/>
  <path class="cls-2" d="M968,353L952,174l-35,58Z"/>
  <path class="cls-2" d="M1194,323l4-72-46-115-89,7,2,29,79-6s11.97-1.356,18,5,11.99,19.058,12,36,2,26,2,26,3.43,31.327-26,34-78,5-78,5l2,31,97-5S1189.03,298.939,1194,323Z"/>
  <path class="cls-1" d="M518,373l3,28s1.519,9.245,10,8,56-4,56-4,9.651,1.872,9-14-3-64-3-64,7.424-19.073,18-1,29,60,29,60,8.418,15.366,19,15c26.389-.912,83-5,83-5s7.352,0.8,7-10c-0.434-13.291-18-340-18-340a10.588,10.588,0,0,0-10-8c-8.35-.367-58,3-58,3s-4.63-1.285-4,9,3,72,3,72-4.9,17.424-13,8c-4.686-5.452-41-78-41-78s-0.88-6.169-17-6c-17.168.181-85,3-85,3s-4.282-.994-4,6,1,24,1,24,46.857,50.148,53,120S557.337,325.132,518,373Z"/>
  <path class="cls-1" d="M757,200l9,193,39,5s9.823,2.4,12-10,9-97,9-97,0.7-13.881,10-13,11.422,11.738,16,25,32,89,32,89,4.173,12.2,9,15,69,7,69,7,7.44-4.709,5-12-70-171-70-171L992,66s3.1-8.654-5-10-52.258-7.9-58-5-67.734,101.714-70,107c-5.036,9.816-18.929,13.012-18-2,1.458-23.555,10-113,10-113l-70-9s-3.952-2.1-5,5S757,200,757,200Z"/>
  <path class="cls-1" d="M968,148l23,256s1.321,5.073,9,3,175-11,175-11,5.8-1.03,6-7-4-67-4-67a11.322,11.322,0,0,0-12-5c-8.1,1.707-99,5-99,5s-8.28,2.347-9-8-3-51-3-51-0.76-9.043,10-9,87-5,87-5,6.73-.54,7-14-2-46-2-46,1.04-4.273-17-4-82,6-82,6-9.35,2.2-10-11-2-47-2-47-0.63-8.056,12-8,97-7,97-7,8.65,3.948,8-14-5-59-5-59-1.55-9.837-14-8-140,8-140,8,11.84,10.472,5,32C1006.69,81.125,968,148,968,148Z"/>
  <path class="cls-1" d="M1170,133l45,113-5,150s-0.1,7.028,13,8,51,1,51,1,4.38,7.252,5-15,6-142,6-142l89-189s2.31-9.463-7-9-60-3-60-3-40.86,100.824-44,108c-2.69,8.521-14.49,11.361-18-5s-28-101-28-101a10.125,10.125,0,0,0-8-6c-6.1-.852-34-1-34-1S1189.02,116.682,1170,133Z"/>
  <path class="cls-1" d="M1448,58l12,337s1.87,16.7,21,16,48-3,48-3,7.58-.487,9-13-4-102-4-102,3.91-15.456,17-4,55,106,55,106,3.95,10.624,20,10c18.39-.715,57-2,57-2s9.02-.06,7-10-95-163-95-163l72-177s1.17-9.037-9-9-50,2-50,2-7.15-6.96-19,23-37.41,86.822-42,96c-4.01,6.31-15.53,15.164-17-5s-5-102-5-102,1.28-9.626-10-9-61,2-61,2S1448,50.543,1448,58Z"/>
  <path class="cls-2" d="M1545,118.75c0.12-15.8-1.38-31.607-1.7-48.292,0.41-14.8-3.73-33.389-13.15-36.672-12.99-5.993-27.55-.885-42.04-1.858-12.78-.136-25.56,2.056-39.54,1.372-9.96,4.1-15.15,7.317-18.04,21.9,3.48,93.813,6.51,187.626,9.69,282.447,2.33,23.2-.52,46.4,5.83,70.843,3.65,5.911,5.66,11.2,12.11,14.964-0.06-.046,7.06,4.18,10.78,4.456,14.13,1.924,28.25-.87,42.66-0.421,25.89,0.284,39.88-4.25,44.28-27.3-1.31-21.52-1.57-43.039-2.58-64.559-1.12-1.794,1.1-1.876,1.56-.467,13.96,27.706,23.31,50.317,34.29,65.872,4.15,6.6,8.1,13.42,15.27,18.315,18.45,8.341,33.76,1.7,52.42,3.21,14.84-1.282,37.69.794,45.22-10.576,9.06,4.944,26.42,13.892,47.31,17.383,27.91,4.969,55.82,1.4,85.02-9.731a146.7,146.7,0,0,0,50.46-35c3.9,2.146,1.57,10.96,3.65,16.441,2.04,6.978,4.49,8.905,6.03,14.148"/>
  <path class="cls-2" d="M1894,414c6.75,8.06,22,9,22,9s37.79-1.122,52-3,16.08-4.5,21-8c17.1-12.168,6.23-53.875,9-44s22.01,38.8,22.01,38.8c6.85,10.754,31.25,9.389,46.78,7.379,19.17-.738,36.99-1.5,54.81-2.529,11.6,0.317,18.78,7.831,32.74,7.627,16.01,2.833,31.48,4.852,46.95,5.244,20.68,0.5,44.69-1.848,61.94-10.719,5.39,6.1,8.22,11.254,18.69,12.661,10.83,0.355,20.58.866,30.33,2.019,19.22,2.168,46.19,5.121,49.71-11.019,4.91-11.737,4.16-25.658,4.96-38.388,2.49-54.541,8.42-108,9.06-161.468-1.19,0-1.26,2.834-1.26,2.834,0.72-.32-0.29-5.107-3.03-8.31-1.43-.747-0.95-2.915-2.06-3.482a31.531,31.531,0,0,0-7.15-5.962c-4.78-4.071-15.98-5.491-22.81-5.271-36.02-1.7-51.26-3.19-51.26-3.19-27.43-1.672-39.23.412-41.8,13.865-6.25,18.6-4.88,36.752-8.03,54.91,3.07,13.209,9.65,18.741,23.42,22-1.26,6.008-1.04,7.265-1.99,13.564-6.04,11.377-29.07,6.459-38.89,5.676-11.74-3.61-12.79-24.6-11.52-36.911,1.75-30.557,3.61-59.81,5.94-89.064,1.8-19.427.23-45.461,20.81-45.232,11.45-.256,23.71-0.959,32.83,4.065,4.67,10.516-1.36,27.284,4.09,37.853,3.29,9.435,17.39,14.2,33.38,14.461,16.7,2.173,32.84,3.768,48.98,2.807,19.35-6.179,25.71-12.587,28.47-35.606a193.45,193.45,0,0,0-4.47-65.1c-8.57-27.731-17.11-36.406-31.08-49.886-12.13-13-48.23-17.885-74.4-18.286-33.52-1.322-65.8-5.739-98.08-1.462-19.9,3.586-34.06,18.282-42.07,25.12,1.15-11.531-7.91-23.241-16.44-29.547-20.51-3.524-40.79-.027-61.56.547-23.3-.34-33.12,8.022-30,32-0.45.419-.23,7.217-0.23,7.217l-0.58,13.689c-10.32-16.572-14.81-38.99-33.77-46.923-27.86-2.321-54.76,2.007-81.66,1.972-20.11.052-36.23,1.874-39.6,16.03-0.76,8.843-1.17,16.577-.3,24.31h-2.46l-0.41-.507c-15.08-13.348-31.23-24.008-52.39-31.918-29.25-10.955-48.03-15.007-75.6-6.87-28.07,9.013-28.25,8.035-54,26-2.49-25.747-22.05-27.211-29-27-29.23.889-48.09-1.945-64.67,5.931-14.74,11.194-17.38,26.182-27.85,47.2C1562.76,80.418,1546,120,1546,120"/>
</svg>
