<?xml version="1.0" encoding="utf-8"?>
<!-- Generator: Adobe Illustrator 19.0.0, SVG Export Plug-In . SVG Version: 6.00 Build 0)  -->
<svg version="1.1" id="Layer_1" xmlns="http://www.w3.org/2000/svg" xmlns:xlink="http://www.w3.org/1999/xlink" x="0px" y="0px"
	 viewBox="0 0 453.7 212" style="enable-background:new 0 0 453.7 212;" xml:space="preserve">
<style type="text/css">
	.st0{fill:#FFFFFF;}
</style>
<g>
	<path class="st0" d="M212.5,125.6c3.8-5.6,7.1-10.4,10.5-15.4c9.6,7.1,16.8,15.7,21.3,26c5.6,12.8,10.3,25.9,14.7,39.1
		c3,9.1,5.8,18.1,13.9,25.5c-12,0-22.9,0-35,0c7.7-7.7,3.9-15.3,1.2-22.7c-0.5-1.3-2.8-2.6-4.4-2.7c-5.5-0.3-11,0-16.5-0.2
		c-3.3-0.1-4.8,1.3-5.7,4.2c-2.4,8.2-3.7,16.5-2.3,25.1c0.9,5.8-0.9,7.8-6,5.3c-6.2-3-12.4-6.7-17.3-11.4
		c-6.7-6.6-12.1-14.5-18.2-21.8c-1.1-1.3-2.9-2.1-4.3-3.2c-0.6,1.7-1.6,3.5-1.7,5.2c-0.2,5.3-0.2,10.7,0,16c0.1,2.8-0.8,4.3-3.5,5.1
		c-3.6,1-7.2,2.4-11.5,3.9c0-7.7,0-14.8,0-22.1c-2.1,0-3.7,0-6.1,0c0-4.1-0.1-8.1,0.1-12.2c0-0.8,0.8-2.2,1.4-2.3
		c5.3-1,4.3-5,4.3-8.6c-0.1-3.8-0.2-7.7-0.1-11.5c0.3-7.4-0.2-14.5-7.8-18.7c6.4-11.6,16.3-16.5,28.3-17.9c7.6-0.9,15,0.1,21.6,4.3
		c11.6,7.3,14.1,23.5,5.1,36.1c-2.6,3.6-6.2,6.4-9.2,9.7c-1,1.1-2.8,2.9-2.4,3.8c3,8.5,6.4,16.9,9.7,25.3c0.7-0.1,1.4-0.2,2.1-0.4
		c1.2-4.3,2.3-8.7,3.6-13.3c-2.5-0.4-4.4-0.8-7.1-1.2c1.7-4.2,3.1-8,4.8-11.7c0.3-0.7,1.6-1.6,2.3-1.5c4.8,0.8,5.9-2.6,7.6-6
		c3.1-6.4,6.3-12.9,10.3-18.8c2.7-4,3-6.7-1.1-9.4C214.2,126.8,213.6,126.4,212.5,125.6z M162.6,158.5c7-2,12.7-6.9,14.9-12.6
		c1.5-4,2.1-7.9-1.9-10.8c-3-2.2-7.8-0.6-10.8,3.5c-1,1.3-1.9,2.9-2,4.5C162.4,148.2,162.6,153.3,162.6,158.5z M227.8,146.1
		c-0.5-0.2-1-0.3-1.4-0.5c-2.5,5-5,10-7.8,15.5c5.6,0,10,0,15.2,0C231.7,155.7,229.8,150.9,227.8,146.1z"/>
	<path class="st0" d="M206.5,28.9c-3.7,1.6-6.4,2.8-9,3.9c-3-10-1.5-14.8,7.7-18.2c7.2-2.7,15.2-5,22.7-4.6
		c16.2,0.8,29.2,16.9,19.1,35.9c9.9,7.6,14,17.7,12.6,30.2c-1.5,13.4-12.9,24.6-26.3,25c-5.8,0.2-11.6-0.9-17.4-1.1
		c-5.6-0.2-11.2,0-16.7,0c-0.1-0.8-0.2-1.2-0.1-1.4c7.2-9.4,8.2-20.2,7.7-31.7C206.1,54.6,206.5,42.3,206.5,28.9z M221.6,77.9
		c7.3,2.3,14,0.7,17.3-3.8c3-4.1,3-9,0.1-13c-3.7-4.9-10.5-6.9-17.4-4.8c0,5.3,0,10.8,0,16.3C221.6,74.4,221.6,76.2,221.6,77.9z
		 M225.4,41.6c5.5,0,9.5-3.5,9.7-8.3c0.3-4.7-3.9-9.3-9-9.5c-2.7-0.1-4.9,0.5-4.7,4.1c0.2,3.3,0.2,6.6,0,9.9
		C221.3,40.9,223,41.8,225.4,41.6z"/>
	<path class="st0" d="M14.6,26.8c-5.3,2.6-9.4,4.5-14.5,7c0-5-0.2-9.4,0.1-13.8c0.1-1.1,1.5-2.6,2.6-3.2C16,9.4,29.7,7.3,44,13.2
		c10.1,4.2,15.7,12.5,19.7,22.2c8.1,19.9,3.8,44-10.5,57.5c-2.7,2.6-6.1,4.7-9.6,6.1c-10.6,4.6-21.9,4.9-33.4,5.1
		c-0.2-0.7-0.5-1.3-0.3-1.6c4.9-9,4.8-18.8,4.7-28.7c-0.2-13.5,0-27,0-40.5C14.6,31.6,14.6,29.8,14.6,26.8z M31,80.4
		c6.6-0.2,10.8-2.9,13.2-7.5C51.7,58.7,52,44.2,44,30.1c-1.6-2.9-5.2-5-8.3-6.6c-2.5-1.3-4.8-0.3-4.8,3.4C31,44.5,31,62.2,31,80.4z"
		/>
	<path class="st0" d="M76.6,204.6c11.1-20.6,6.3-41.4,7.2-61.6c0.2-4.6,0-9.3,0-15.1c-5.2,1.8-9.4,3.3-14.3,5.1
		c0-4.3-0.2-8.2,0.1-12.1c0.1-1.1,1.6-2.4,2.8-2.9c10.8-5.2,22.2-8.1,34.2-7.4c9.2,0.5,15.7,5.8,21.1,12.7
		c15.2,19.7,13,53.3-5.2,69.4c-4.1,3.7-9.8,6.4-15.3,7.6C97.7,202.4,87.7,203.1,76.6,204.6z M99.9,178.3c5.6,0.6,10.1-1.2,13.4-5.3
		c8.7-10.7,8.4-33.7-0.6-44c-3.3-3.8-7.4-5.9-12.8-4C99.9,142.8,99.9,160.4,99.9,178.3z"/>
	<path class="st0" d="M403.3,110.3c6.6,15.1,20.2,23.5,31.4,34.6c2.7-10.6,0.9-22.9-4.3-31c0.7-0.4,1.3-1,2-1.3
		c7-3.3,14.1-6.7,21.4-10.1c-0.8,6.9-1.9,13.3-2.2,19.8c-1.1,22.5-2.2,44.9-2.7,67.4c-0.1,5.9-2,8.9-7.3,10.5
		c-1.6,0.4-3.1,1.1-5.5,2c0.8-17.7-7.2-30.5-20.7-41.3c-0.3,1.5-0.6,2.5-0.6,3.6c-0.2,10-0.3,20-0.5,30c-0.1,4.4,0.3,8.2,6,8.4
		c-0.9,6-5,9.6-10.4,9.2c-5.7-0.4-9.9-4.5-10-10.5c-0.2-9.8-0.1-19.7,0.1-29.5c0.5-19.8,1.2-39.6,1.9-59.4c0-0.6,0.2-1.2,0.4-1.8
		C402.4,110.6,402.8,110.4,403.3,110.3z"/>
	<path class="st0" d="M326.9,126.4c-5.5,4.5-11.1,9.1-17,14.1c-1.7-3.4-2.9-6.6-4.7-9.5c-5.7-9-14.4-9.1-19.6,0.3
		c-7.5,13.7-7.3,27.8-0.5,41.7c3.1,6.3,9.6,8.7,16.1,6.3c1.1-0.4,2.3-2.4,2.3-3.7c-0.2-6.9-0.9-13.7-1.4-21.1
		c5.2,0,11.6-0.6,17.7,0.3c2,0.3,4.2,4.3,4.9,7c0.8,3.1-0.1,6.6-0.1,9.9c0,9.4,0,18.8,0,28.6c-1.7,0-4.3,0-6.8,0
		c-5.2,0.1-10.4-0.4-15.5,0.5c-16,2.9-28.2-5.3-35.3-18.5c-10.2-18.9-6.5-49.3,8-62.9c11.2-10.5,23.4-11.7,36.4-3.4
		C316.4,119.2,321.4,122.7,326.9,126.4z"/>
	<path class="st0" d="M395.5,159.7c-0.1,8.3-2.9,18.6-9.1,27.8c-13,19.2-34.9,19.3-48.3,0.4c-12.6-17.7-12.8-44.7-0.6-62.6
		c12.7-18.7,35.8-18.6,48.6,0C392.6,134.9,395.5,145.4,395.5,159.7z M347.2,149.4c1,11.3,1.2,19.7,6.5,26.8
		c5.5,7.4,12.6,7.5,18.2,0.3c8.3-10.8,8.3-35.8,0-46.5c-6.1-7.9-14.7-7.7-19.1,1.4C349.7,137.8,348.4,145.2,347.2,149.4z"/>
	<path class="st0" d="M139.5,60.2c-0.3,8.8-3.7,20.2-11.8,29.9c-11.4,13.7-28.3,14.6-41.1,2.3c-17.7-17.2-18.7-52.8-2-70.9
		c13.3-14.4,32-13.6,44.3,1.9C136,32.3,139.5,43.4,139.5,60.2z M89.2,51.3c0.4,0.1,0.9,0.3,1.3,0.4c0,9.2,2.6,18.4,6.6,23.7
		c5.6,7.3,13.2,7.1,18.3-0.6c4.3-6.6,5.9-14.2,5.8-21.9c-0.1-8.4-1.3-16.7-6.5-23.7c-5.9-8-14.3-7.7-18.6,1.1
		C92.9,36.8,91.5,44.2,89.2,51.3z"/>
	<path class="st0" d="M138.3,22.3c8.4-5.2,16.3-10,25-15.4c-7.4,21.2-3.4,42-4,62.6c-0.3,9.2,8.6,14.2,15.7,9
		c2.4-1.7,4.3-5.7,4.4-8.7c0.5-14.8,0.1-29.6,0.5-44.4c0.2-6.1-0.1-11.5-4.9-16c-0.8-0.8-0.4-3.8,0.5-5.2c2.6-3.9,6.6-5,11-3.7
		c4.7,1.4,7,4.8,7,9.7c-0.1,19.5-0.2,39-0.4,58.4c0,4.5,0,9-0.6,13.4c-1.5,11.9-12.2,20.5-24.2,20c-12.2-0.6-21.6-9.4-22.1-21.5
		c-0.5-11.6-0.5-23.3-0.7-35C145.4,37.4,144.3,29.4,138.3,22.3z"/>
	<path class="st0" d="M363,10.7c0-0.1,0.1,0,0,0.2c-2.9,13.6-2.9,13.6-16.9,13.3c-1.7,0-3.3-0.1-5-0.2c-11.4-0.7-17.6,7.6-14.1,18.8
		c9.1,0,18.2,0,28,0c-1.2,4.3-2,8.2-3.4,11.8c-0.3,0.9-2.3,1.6-3.5,1.6c-6.2,0.2-12.3,0.3-18.5,0c-3.8-0.2-4.8,1.4-4.9,4.9
		c-0.2,13.4,4.6,18.3,18,17.6c5.8-0.3,11.5-0.7,18.2-1.2c-1.3,7-2.4,13.5-3.9,19.9c-0.2,0.8-1.9,1.7-3,1.9
		c-10.4,2.1-20.9,2.4-31.1-0.7c-7.3-2.2-10.6-8.1-12-14.8c-1.7-8.3-3.1-16.8-3.1-25.2c0-11.8,1.6-23.6,6.5-34.6
		c5.1-11.5,10.2-14.2,22.6-13.7C345.5,11,354.1,10.7,363,10.7z"/>
	<path class="st0" d="M303.8,76.4c2.9,3.5,5.3,8.4,4.9,14.4c-0.4,6.2-4.8,10.5-11.1,10.5c-4.1,0-8.3-0.8-12.4-0.8
		c-10.9-0.1-21.8,0-33.5,0c3.6-6.5,7.2-13,10.8-19.4c0.2-0.3,0.4-0.6,0.7-0.7c7.4-0.9,6.1-6.6,6.2-11.4c0.2-11.3,0.7-22.7,0-33.9
		c-0.3-4.4-3.7-8.6-5.9-13.5c7.9-4.2,17.1-9.1,26.9-14.3c-8.5,23.7-3.1,47.3-5.7,72.1C291.5,78.3,297.1,77.4,303.8,76.4z"/>
	<path class="st0" d="M375.1,158.5"/>
</g>
</svg>
