<svg xmlns="http://www.w3.org/2000/svg" width="822" height="208" viewBox="0 0 822 208">
  <defs>
    <style>
      .cls-1 {
        fill: #fff;
        fill-rule: evenodd;
      }
    </style>
  </defs>
  <path class="cls-1" d="M667.811,162.1c19.577-28.2,72.257-105.063,72.11-105.211-18.9,4.445-35.029,18.413-49.4,30.741q11.345-21.94,22.555-43.949,23.382-7.542,46.719-15.22c6.167-8.623,11.823-17.63,18.215-26.09,0.192,0.192-8.3,22.67-7.572,22.632,0.775-.044,51.176-16.614,51.381-16.469C822,8.66,776.255,78.649,776.013,78.407a12.546,12.546,0,0,1,.763-3.16c4.749-14.96-2.647-25.625-16.573-22.4-14.935,39.356-29.128,79-43.516,118.561Q689.507,189.78,662.223,208c2.453-19.188,3.128-42.358,5.588-45.9h0ZM92.872,153.285c0.288-.267,9.974-2.787,9.866-3.351-0.118-.616-52.747-90.617-53.36-91.252a153.524,153.524,0,0,0-16.129-4.6C22.375,35.932,10.639,18.29,0,0,112.065,37.218,138.088,45.86,157.4,70.473c6.87,8.756,12.265,18.567,20.826,37.868,9.2,20.738,11.23,27.762,12.117,41.9,0.9,14.343-7.041,24.936-25.177,31.54-16.945,6.171-35.137,8.193-52.82,11.734-0.926,0-19.653-40.061-19.472-40.228h0Zm60.193-32.379c-2.6-5.169-17.14-30.85-18.573-32.813-10.073-12.787-26.233-17.062-41.566-19.584-0.121.121,41.242,77.679,42.527,79.741,1.341,2.153,34.338,5.855,17.612-27.344h0Zm328.724,65.609c-1.663-.187-4.412-0.364-6.108-0.394-18.606-.329-4.694-22.352-11.24-22.388-4.173-.023-6.849-3.789-6.847-9.636,0-1.744,1.047-13.852,2.324-26.907,2.441-24.958,2.86-27.416,5.6-32.813C469.168,85.8,475.6,86.2,483.925,85.7c9.683-1.378,19.126-.85,20.662,10.347,0,2.413-8.375,57.785-9.1,60.2-0.506,1.671-2.959,8.372-9.989,9.2-2.91.344-4.071,1.626-3.2,3.533,1.4,3.066,8.318.359,9.707,0.887-0.937,5.783-2.742,11.471-4.3,17.133-2.224-.109-3.252-0.183-5.909-0.482h0Zm-2.364-39.894c1.911-1.563,6.006-42.464,5.875-43.138-1.648-5.544-6.09-1.986-8.8.539l-1.954,20.194c-2.288,23.641-2.317,23.22,1.58,23.22a5.352,5.352,0,0,0,3.3-.815h0ZM613.7,180.009c-22.663-1.644-19.483-14.355-11.586-30.851,2.692-5.683,5.435-11.66,6.1-13.281,1.165-2.859,2.112-4.42,3.515-4.18,2.245,0.384,13.6,3.77,14.277,4.191,1.389,0.858-8.557,18.17-7.67,22.677,0.367,1.865,5.582,2.768,7.484,1.98,2.587-1.071,10.791-26.006,10.91-26.4,1.55-6.461-1.617-7.368-6.551-8.227-10.826-1.833-15.368-3.619-14.412-10.364,0.417-2.94,12.819-36.4,14.575-39.325,7.868-13.019,17.954-13.8,32.008-16.552,16.719-3.278,31.255-6.6,31.616,9.058l-15.752,31.581c-8.757.383-14.508,0.32-24.142,0.525,0.146-.353,1.624-3.788,3.285-7.635,2.429-4.536,4.786-11.8-2.491-11.266-4.908.445-5.794,1.389-9.918,10.574-2.756,6.138-3.6,8.52-3.838,10.9-1.038,5.651,3.809,6.137,8.127,6.329C660,110.092,664.45,116.4,663.7,126.708l-13.5,31.248c-8.971,20.859-11.175,22.977-36.5,22.053h0ZM163.739,55.852c0.426-.426,50.62,13.279,53.086,14.243,12.745,5.811,19.831,17.958,19.885,31.766a37.541,37.541,0,0,1-2.452,12.292c0,0.975,8.7,7.961,10.873,13.245,5.86,14.267,14.732,42.781,14.19,43.323-6.16.521-9.188,0.909-16.357,1.692-4.4-7.755-12.962-43.643-24.525-41.3,0,0.762,13.165,42.375,13.165,42.93,0,0.3-20.139,2.733-21.983,2.675-0.68-.026-42.983-113.124-42.734-113.373l-3.148-7.489h0Zm37.269,28.353c2.544,7.039,5.509,13.936,8.358,20.861,2.04,0.083,4.46.656,5.639-1.08,6.552-9.652-4.731-18.513-14-19.781h0ZM568.05,76.58c19.994-3.072,36.3-6.674,57.2-10.26-2.758,7.964-5.409,20-8.241,27.943l-2.82.284q-15.2,1.591-30.391,3.241c-1.186,5.03-2.88,9.982-3.637,15.1,0.334,0.334,29.27-1.129,29.443-1.055-2.75,7.8-5.714,15.529-8.621,23.274l-27.929-.368c-1.593,5.736-5.078,17.123-5.078,17.123s13.456,0.765,26.272,1.4l-7.5,21.375s-19.388-2.54-44.856-5.276c18.616-65.144,2.776-10.019,26.158-92.773h0ZM275.587,79.174c0.385,0.411,35.512,83.535,37.175,87.359,0.217,0.5-15.573,1.308-15.885.983-2.349-3.846-4.714-8.21-6.87-12.168-3.407,0-6.8-.035-10.2.025,0.67,4.874,1.059,8.307,1.751,13.312-4.744.438-15.262,1.606-18.537,1.846-0.61-3.84-16.6-94.626-16.682-95.319C260.075,77.255,265.16,77.812,275.587,79.174Zm9.406,56.639c0.337-.337-14.117-31.212-14.309-31.02-0.017.014,4.175,31.475,5.436,31.468,0.914,0,8.542-.117,8.873-0.449h0Zm229.684,30.97c-7.463-.251-14.944-2.184-14.618-10.945,0.212-3.489,13.541-72.138,14.048-72.645,0.185-.185,17.388-2.18,17.545-2.027,0.124,0.124-12.742,62.4-12.818,65.385-0.146,5.651,5.207,4.567,6.593-1.05,0.837-3.393,15.143-64.956,15.354-65.2,0.27-.31,17.048-2.442,17.316-2.174,0.226,0.227-8.295,37.765-11.459,50.459-2.231,8.947-9.073,31.2-10.161,33.045-2.134,3.621-3.354,4.616-8.211,5.136a86.109,86.109,0,0,1-13.589.015h0Zm-192.139-3.018c-11.631-5.965-14.259-23.771-16.916-36.133-6.352-26.709-6.415-27.027-6.436-32.558-0.761-8.644,3.894-10.968,12.315-11.746,5.221-.349,19.955,1.718,22.97,2.851,10.482,4.108,11.55,13.043,13.611,22.742,0.216,0.756-.421.815-8.862,0.815-9.059,0-9.1,0-9.31-1.048-0.8-4.8-1.34-10.485-7.115-11.188-5.38-.219-5.415,1.093-0.645,24.34,3.973,19.361,4.69,22.068,6.2,23.385,8.905,4.219,7.521-8.6,6.359-13.571l-5.755-.276c-0.9-4.694-1.78-9.39-2.7-14.079l-0.307-1.513c7.739,0.169,15.51-.279,23.241.162,0,3.427,5.235,27.006,3.235,39.337-1.867,11.508-23.191,10.741-29.88,8.48h0ZM401.7,87.837l14.562,0.211c6.518,17.285,9.1,25.466,14.173,37.917,0.339,0.808.552-14.223,0.734-38.267,5.136,0.142,8.482.032,14.961-.123,0.329,0.617-4.729,70.081-4.817,76.151H428.356c-3.611-7.312-7.227-14.511-11.182-21.6-1,16.369-1.065,17.326-1.137,21.44-4.762.272-9.445,0.594-14.166,0.762-0.3-27.779-.176-76.485-0.176-76.485h0Zm-43.719,2.74c2.076-4.718,24.856-4.91,29.74-1.033,12.693,10.075,7.125,67.46,5.739,69.763-3.183,5.289-29.041,6.376-30.978-.08-3.619-12.059-9.975-56.21-4.5-68.65h0Zm20.41,13.04c-1.158-4.34-8.741-3.356-8.443.531,0.739,9.618,2.862,31.027,3.59,39.377,0.206,2.359,7.977,2.421,7.87.168-0.624-13.122-1.521-27.2-3.017-40.076h0Z"/>
</svg>
