<?xml version="1.0" encoding="utf-8"?>
<!-- Generator: Adobe Illustrator 19.0.0, SVG Export Plug-In . SVG Version: 6.00 Build 0)  -->
<svg version="1.1"
	 id="svg3103" xmlns:rdf="http://www.w3.org/1999/02/22-rdf-syntax-ns#" xmlns:cc="http://creativecommons.org/ns#" xmlns:dc="http://purl.org/dc/elements/1.1/"
	 xmlns="http://www.w3.org/2000/svg" xmlns:xlink="http://www.w3.org/1999/xlink" x="0px" y="0px" viewBox="107.5 360 648.5 64"
	 style="enable-background:new 107.5 360 648.5 64;" xml:space="preserve">
<style type="text/css">
	.st0{fill:url(#rect3881_2_);}
	.st1{fill:url(#rect3983_1_);}
</style>
<linearGradient id="rect3881_2_" gradientUnits="userSpaceOnUse" x1="211.6222" y1="588.1098" x2="211.6222" y2="588.1098" gradientTransform="matrix(4.5419 0 0 -1.0776 -867.1741 1030.7183)">
	<stop  offset="0" style="stop-color:#1C0E00"/>
	<stop  offset="1" style="stop-color:#000000"/>
</linearGradient>
<path id="rect3881_1_" class="st0" d="M94,457V337"/>
<linearGradient id="rect3983_1_" gradientUnits="userSpaceOnUse" x1="581.1514" y1="241.7496" x2="589.6367" y2="241.7496" gradientTransform="matrix(1.4142 0 0 -0.7071 -77.8722 563.4428)">
	<stop  offset="0" style="stop-color:#FFFFFF"/>
	<stop  offset="0.7291" style="stop-color:#FFFFFF;stop-opacity:0"/>
	<stop  offset="1" style="stop-color:#FFFFFF;stop-opacity:0"/>
</linearGradient>
<path id="rect3983" class="st1" d="M384,365v6h6v42h-6v6h24v-6h-6v-18h12v6h6v-18h-6v6h-12v-18h12v6h6v6h6v-6v-6v-6H384z M115,366v6
	h6v42h-6v6h30v-6h6v-6h6v-30h-6v-6h-6v-6H115z M319,366v6h-6v18h-6v6h6v18h-6v6h24v-6h-6v-18h12v-6h-12v-18h6v6h12v-6h-6v-6H319z
	 M540,371v6h-6v6h-6v6h6v24h6v6h18v-6h6v-6h-12v6h-6v-24h18v-6h-18v-6v-6H540z M133,372h6v6h6v30h-6v6h-6V372z M438,383v6h-6v24h6v6
	h24v-6h6v-24h-6v-6H438z M480,383v6h6v6v6v12h-6v6h24v-6h-6v-12h6v-6h-6v-6v-6H480z M504,395h6v6h12v-6v-6h-6v-6h-12v6V395z
	 M576,383v6h6v6v6v12h-6v6h24v-6h-6v-12h6v-6h-6v-6v-6H576z M600,395h6v6h12v-6v-6h-6v-6h-12v6V395z M630,383v6h-6v24h6v6h24v-6h6
	v-6h-12v6h-12v-12h12h12v-12h-6v-6H630z M678,383v6h-6v6h6v6h12v-6h-6v-6h12v6h12v-6h-6v-6H678z M690,401v6h6v6h-12v-6h-12v6h6v6h24
	v-6h6v-6h-6v-6H690z M726,383v6h-6v6h6v6h12v-6h-6v-6h12v6h12v-6h-6v-6H726z M738,401v6h6v6h-12v-6h-12v6h6v6h24v-6h6v-6h-6v-6H738z
	 M163,384v24h6v12h12v-12h-6v-24H163z M181,408h6v-12h-6V408z M187,408v12h12v-12h6v-24h-12v24H187z M217,384v6h18v6h-18v6h-6v12h6
	v6h18v-6h-12v-12h12v12h6v6h12v-6h-6v-24h-6v-6H217z M259,384v6h6v6v6v12h-6v6h24v-6h-6v-12h6v-6h-6v-6v-6H259z M283,396h6v6h12v-6
	v-6h-6v-6h-12v6V396z M444,389h12v24h-12V389z M636,389h12v6h-12V389z"/>
</svg>
