<?xml version="1.0" encoding="utf-8"?>
<!-- Generator: Adobe Illustrator 19.0.0, SVG Export Plug-In . SVG Version: 6.00 Build 0)  -->
<svg version="1.1" id="Layer_1" xmlns="http://www.w3.org/2000/svg" xmlns:xlink="http://www.w3.org/1999/xlink" x="0px" y="0px"
	 viewBox="0 0 1028.9 646.8" style="enable-background:new 0 0 1028.9 646.8;" xml:space="preserve">
<style type="text/css">
	.st0{fill:#FFFFFF;}
</style>
<g>
	<path class="st0" d="M751.8,17.3c0,2.1,0,4.6,0,7.7c14.3,0.1,26.6,5.3,35.3,17.6c0.3-0.2,0.5-0.4,0.8-0.6c0-4.6-0.1-9.2,0-13.8
		c0.2-6.7,0.4-6.7,7-7.4c15.1-1.6,30.3-1.6,45.3,1.1c10.1,1.8,19.7,5,28.5,10.2c8.6,5.1,15.7,11.8,20.9,21.2
		c6.1-11.8,8-24.4,12.6-36.8c1.5,1.7,2.7,3,3.7,4.3c4.8,6.5,8.2,13.7,11.1,21.2c6.1,15.7,12.4,31.2,20.8,45.9
		c3.1,5.5,6.5,10.8,10.2,16.9c23-33.9,46.8-65.9,79.3-90.6c2.1,5.3,1.8,10.3,1.3,15.3c-2,23.7-4.1,47.4-5.6,71.2
		c-1.6,24.7-2.6,49.5-3.9,74.3c0,0.6-0.2,1.3-0.5,2.6c-17,0.8-34.1,1.6-51.7,2.5c0.8-17.6,1.6-34.6,2.4-52.4
		c-2.9,2.3-5.9,4.4-8.5,6.8c-4.1,3.9-7.9,8.1-12,12c-2.7,2.6-5.8,4.8-9.2,7.6c-6.4-12.4-12.3-24-18.7-36.4
		c-3.9,18.3-3.1,36.5-5,54.5c-6.3,1.2-12.2,0.4-18.1-0.8c-3.4-0.7-6.9-1.3-10.3-1.8c-6.6-1-11.7,1.6-15.5,6.9
		c-1.9,2.7-3.6,5.6-5.6,8.3c-1.7,2.2-3.7,4.1-6,6.7c-13.6-17.8-29.6-32.9-40.2-52.5c-3,1.3-4.2,3.6-4.2,6.3c0,4.6,0.3,9.3,0.6,13.9
		c0.2,5,0.5,9.9,0.7,15.3c-13.3,1.9-26.1,3.7-39.5,5.6c0.6-7.2,1.1-13.5,1.7-20.5c-2.5,1.9-4.6,3.5-6.8,5c-7.3,5.3-15,10-24.1,11.5
		c-20,3.3-32.7-2.2-42-17.5c-3.1-5.1-5.5-10.6-8.4-16.3c-0.7,0.9-1.6,1.7-2.2,2.7c-4.9,8.3-9.8,16.6-14.7,24.9
		c-4.2,7-8.8,13.7-15.1,19.8c-12.1-15.9-21.2-33.6-33.7-49.7c-2.4,4-4.6,7.5-6.5,11.2c-4,7.5-7.7,15.1-11.8,22.6
		c-3.4,6.3-7.7,12.1-13.8,17.2c-0.8-2.5-1.6-4.6-2.3-6.7c-7.6-21.5-14.9-43.1-22.9-64.4c-4.4-11.7-9.8-22.9-14.7-34.4
		c-0.4,0-0.7,0-1.1,0c-0.4,1.4-0.9,2.9-1,4.3c-2.1,18-4.1,36.1-6.1,54.1c-1.6,14.9-3.2,29.8-6.8,44.4c-1,4-1.3,4.2-5.4,4.2
		c-1.7,0-3.3-0.2-5-0.3c-6.3,0-12.6,0-19.4,0c-1.5-10.7,1.1-21.7,2.3-33.3c-1.2,0-2.3-0.1-3.4,0c-6.8,0.9-13.5,2-20.3,2.8
		c-2.6,0.3-3.6,1.5-4.1,4.1c-1.1,6.7-2.6,13.4-3.9,20.1c-0.4,1.8-1,3.5-1.4,5.3c-1,4.5-3.6,6.1-8.3,6.5c-8.1,0.8-16,2.8-24,4.3
		c-2.8,0.5-5.5,0.9-8.9,1.4c1.2-42.8,2.4-85.2,7.3-127.9c-12.1-0.9-23.4,2.8-35.5,3.2c-0.3,35.6-2.1,71.1-0.1,107.1
		c-10,0-19.6,0-29.3,0c0-32.3,0-64.3,0-96.7c-11.3,1.1-22.7,1.9-34.3-0.5c-0.9-21.5-5.4-42.3-10-63.6c39.2-2.7,77.5-10.3,117-10.1
		c1.7,8.7,3.3,17.1,5,26.1c12.5-2.5,24.7-4.9,37.4-7.4c2.8,35.5,3.3,70.4-4.7,105.7c10.9-1.4,20-7.3,30.4-9.7
		c2.5-30.2,4.1-60.3,3.6-90.8c3.4,0,6.4,0,9.9,0c-3.4-7.6-6.5-14.6-9.9-22.3c13.5,0,26.1,0,38.9,0c0.8,2.5,1.7,5,2.5,7.5
		c5.4,15.6,13.1,30.2,20.9,44.7c7.9,14.8,15.8,29.7,21.7,45.5c0.2,0.4,0.5,0.7,1.2,1.6c6.9-15.1,12.6-30.3,20.8-44.7
		c6.1,4.4,9.9,10,13.1,16c3.2,5.8,6.1,11.8,9.7,18.8c2.3-6.8,4.5-12.6,6.2-18.4c3.8-13.1,6.9-26.4,11.1-39.4
		c5.4-16.9,13.2-32.7,22.3-48.3c1.9,0.2,4,0.1,5.8,0.7C719.9,6.1,735.5,11.6,751.8,17.3z M827.8,65.6c-3,11.9-0.6,23.5-1,35.4
		c10.2-1.8,19.6-4.1,27.9-9.7c1.7-1.2,3.3-2.8,4.5-4.6c2.9-4.2,2.4-9.2-1.3-12.7c-1.7-1.6-3.7-2.9-5.8-3.8
		C844.6,67,836.6,65.8,827.8,65.6z M741.8,142c0-0.2,0.1-0.3,0.1-0.5c2.6-0.2,5.3-0.2,7.9-0.7c3.9-0.8,7.8-1.8,10.7-4.8
		c3.1-3.2,3.2-7-0.1-10.1c-1.4-1.3-3.1-2.7-5-3.2c-5.2-1.5-10.5-3.3-15.9-3.5c-5.2-0.2-10.7,0.6-15.6,2.2c-6.7,2.2-7.7,9.7-2.3,14.2
		c1.7,1.5,3.9,2.7,6,3.3C732.3,140.2,737.1,141,741.8,142z M879.9,105.6c-0.3-0.2-0.6-0.3-1-0.5c-9,9.4-18.7,18-32.3,21.2
		c7.5,10.5,15.9,19.2,26.2,26.4C875.2,136.7,877.6,121.1,879.9,105.6z"/>
	<path class="st0" d="M785.5,316c6.5-3.1,12.8-6.6,19.4-9c13-4.7,26.1-9,39.3-13c15.2-4.6,30-9.9,44.1-17.2
		c16.6-8.7,34.5-13.9,52.6-18.6c14.5-3.8,28.9-7.7,43.4-11.6c0.6-0.2,1.2-0.3,1.9-0.5c0,0.5,0.2,0.8,0,1
		c-11.4,19.9-18.5,41.6-25.8,63.2c-7.5,22.1-15.4,44-22.6,66.1c-5.4,16.6-10,33.5-15.1,50.1c-9.1,29.6-21.2,58.1-34.1,86.2
		c-3.2,6.9-6.4,13.9-9.6,20.9c-5.8,0.4-11.1-1-16.5-2.2c-9.6-2-19.1-4.3-28.8-6.1c-5.7-1.1-11.6-1.4-17.3-2.4
		c-4.1-0.7-7.9-2.4-11-5.4c1.4-12.9,11.6-21.2,16.8-32.9c-1.6,0.3-2.8,0.5-3.9,0.9c-17.8,6-35.8,11.5-54.4,14.7
		c-10.8,1.9-21.7,3.1-32.6,4.5c-1.8,0.2-3.6,0-5.2,0c-7.8-12.1-15.6-24.1-23.9-36.9c-1.9,2.8-3.7,5-4.9,7.4
		c-3.2,6.4-6.1,12.9-9.1,19.4c-1.3,2.9-2.8,5.7-4.1,8.6c-0.9,2-2.2,2.9-4.6,2.8c-22.6-1.2-45.2-2.1-67.8-3.5
		c-7.4-0.5-14.8-2.2-22.6-3.3c0.2-2,0.2-3.4,0.5-4.8c5.1-28,14.4-54.6,25.3-80.8c13.6-32.8,30.3-64.1,45.7-95.9
		c14.7-30.4,28.9-61,43.3-91.5c0.8-1.7,1.4-3.4,2.3-5c1.2-2,2.8-2.1,4.3-0.3c0.1,0.1,0.2,0.3,0.3,0.4c11.1,18.2,26,33.3,40.3,48.8
		c12.8,13.9,24.8,28.3,33.7,45C785,315.6,785.3,315.8,785.5,316z"/>
	<path class="st0" d="M346.3,313.1c-16.6,6.2-32.8,12.3-49.4,18.4c1,2.2,1.8,4,2.7,5.7c16.3,34.1,32.6,68.1,48.8,102.2
		c5.7,12.1,10.4,24.5,12.2,37.9c1.5,11.1,1.9,22.2-0.4,33.3c-1.3,6.5-4.6,11.7-9.8,15.8c-8.2,6.5-17.5,10.9-27.3,14.4
		c-16.4,5.9-33,11.3-49.4,17.2c-11,3.9-21.7,8.5-32.6,12.4c-32.9,11.6-65.9,12.3-98.8,0.5c-17.1-6.1-33.8-13.1-50.5-20
		c-6.3-2.6-11.8-6.8-16.5-11.8c-0.8-0.8-1.4-1.8-2.4-3c1.9-0.8,3.6-1.6,5.2-2.3c20.1-8.8,40.3-17.5,60.3-26.5c2.6-1.2,4.8-1.2,7,0.4
		c2.2,1.5,4.5,3,6.1,5c8.6,10.9,20.6,15.4,33.6,18c11.4,2.3,22.8,2.2,34-1.8c15.2-5.4,23.8-17.5,24.3-33.7
		c0.4-14.5-4.1-27.6-10.9-40c-6.1-11.3-13.1-22-18.9-33.5c-10.2-20.2-19.7-40.7-29.5-61.1c-1.4-2.8-2.8-5.7-4.3-8.8
		c-33,10.8-65.4,22.8-99.5,31c0.3-23.8-1.1-47.2,1.2-70.9c1.2-0.4,2.3-1,3.6-1.3c74.9-21.3,149.8-42.6,224.6-63.8
		c5.2-1.5,5.6-1.6,8.5,3.1c3.3,5.4,6.2,11,9.1,16.6c7.1,13.6,13.5,27.4,18,42.1C345.6,310.1,345.9,311.4,346.3,313.1z"/>
	<path class="st0" d="M164.5,54.3c2.1,3.4,4.2,6.7,6.1,10.1c1,1.7,1.8,3.6,2.4,5.5c6.9,20.9,17.9,39.7,29.2,58.4
		c9.6,16,19.5,31.8,27.3,48.8c1.3,2.9,2.6,5.7,3.9,8.5c6.1,0,12.1,0,18.4,0c-2.8-23.9-5.5-47.6-8.4-71.2c-2.9-23.6-7.1-47-14-70.6
		c6-1.3,11.8-2.7,17.6-3.8c12.5-2.3,25-3.7,37.7-3.4c14,0.2,27.1,3.4,38.3,12.1c5.8,4.5,11.4,9.2,16.7,14.2c2.5,2.5,4.5,5.8,5.9,9.1
		c3.3,8.1,4.6,16.6,4.6,25.4c0,4.1-1.1,7.9-2.8,11.5c-6.9,14.2-17.6,24.9-30.4,33.8c-2.2,1.5-4.5,2.9-7.2,4.7
		c13.8,8,28.4,13.4,42.8,19.8c-2.9,11.7-13.8,17-19.8,26.4c-15.7-10.1-29.1-22.7-44.4-33.2c-2.3,1.4-4.7,2.9-7.7,4.8
		c4.9,13.6,9.9,27.3,15.1,41.8c-14.5,1.9-28.2,4.6-43.6,4.1c3.5,3.9,6.2,7,8.9,10c-6.9,8-17.6,16.7-24.1,19.8
		c-4.5-3.9-7.4-9.1-10.5-14.2c-3.1-5.1-6.1-10.3-9.1-15.3c-16.6,2.6-32.7,5.2-48.8,7.7c-2.6,0.4-4,1.5-4.7,4.3
		c-1.7,7.3-3.8,14.5-5.9,22.5c-16.6,0-33.8,2.4-52.2,1.5c2.7-5.8,5.1-10.7,7.6-16.1c-4.4-0.2-8.3-0.6-12.2-0.6
		c-16.2,0.3-32.2,2.7-48.1,5c-4.4,0.6-8.9,1.1-13.8,1.7c-0.7-6.6-1.4-12.8-2.1-19.1c-5-45.1-14.9-88.9-34-130.3
		C1.9,85.3,2,82.1,1.4,79c30.3-7.2,59.9-14.2,89.8-21.2c0.3,1.3,0.6,2.4,0.9,3.4c2.6,8.2,5.1,16.5,8.1,24.6
		c3.3,8.9,6.9,17.7,8.3,27.1c0.1,1,0.2,1.9,0.3,3.4c-17.3,1.3-33.8,5.9-50.6,10.1c0.6,9.2,5.4,16.8,8.4,25.3c7,1,13.9-0.6,20.7-1.3
		c6.9-0.7,13.9-1.4,21.5-2.2c0.8,10.9,7.1,20.1,6.3,31.2c-12.6,2.8-25.2,5.6-38.5,8.5c3,6,5.8,11.8,8.9,18.1
		c13.4-1.8,26.9-3.7,41.3-5.6c3-8.5,6.4-17.4,9.2-26.4c6.6-21.3,10.6-43.3,15.1-65.1c3.7-18.2,7.7-36.4,11.6-54.6
		C163.3,54.4,163.9,54.3,164.5,54.3z M276.7,124.7c9.7-4.3,19.4-8.6,27-15.9c2.6-2.5,4.9-5.5,6.4-8.8c4.3-9.2,0.8-17.9-8.6-21.5
		c-3.4-1.3-7-2.2-10.6-2.5c-8.4-0.8-16.9-1.1-25.4-1.6c-1.1-0.1-2.2,0-3.5,0c1.5,5.7,2.8,11,4.1,16.3c1.7,6.9,3.4,13.8,5.1,20.8
		C272.4,115.9,272.9,120.6,276.7,124.7z M181.4,142.7c-3,17.2-5.9,33.6-8.9,50.9c12-1.5,23-3,34.3-4.4c-0.3-4.4-2.4-7.9-4.5-11.5
		c-5.1-8.7-10.2-17.5-15.4-26.2C185.2,148.6,183.4,145.9,181.4,142.7z"/>
	<path class="st0" d="M595.5,200.2c1.3,4.1,0.4,6.9-1,9.6c-5.2,9.6-12.4,17.3-21.1,23.7c-8.5,6.1-17.4,11.7-26.1,17.6
		c-6.7,4.6-13.3,9.4-19.8,14.4c-2,1.6-3.7,3.8-5,6.1c-10,17.8-17.5,36.6-23,56.2c-0.9,3.1-0.9,5.9,0.3,9.1c1.5,4.3,2.3,9,2.7,13.6
		c1.3,16.1-0.4,31.9-5.3,47.3c-0.6,1.7-1.1,3.6-2.1,5.1c-3.2,4.4-3.5,9.5-3.8,14.7c-1.8,25.5-6.3,50.5-14,74.9
		c-5.4,16.9-12.3,33.1-20.5,48.7c-6.2,11.7-14.3,22.1-23.6,31.5c-9.5,9.6-19.1,19-28.6,28.7c-4,4-7.6,8.4-11.3,12.7
		c-8,9.3-13.2,19.9-14.3,32.3c-4,1.2-4.1,1.1-4.7-2.2c-1.6-9.7,0.3-18.8,3.6-27.9c4.8-13.1,12.1-24.8,20-36.2
		c4.7-6.8,9.5-13.7,14.7-20.2c8.9-11.1,15-23.4,18.3-37.3c3.9-16.7,9-33.1,12.7-49.8c4.3-19.2,6.1-38.8,5.6-58.5
		c-0.1-3.3-0.5-6.8-1.8-9.8c-2.5-5.8-3.3-11.8-3.3-18c0-13.2,1-26.3,4.2-39.1c0.9-3.4,2.4-7.2,4.9-9.6c7-6.7,10.3-15,11.9-24.2
		c1.8-10.9,6.3-20.5,13-29.4c5.7-7.5,10.9-15.5,16.3-23.3c3.6-5.3,8.1-9.7,13.4-13.3c6-4.1,12-8.4,17.7-13
		c9-7.2,19.3-11.6,30.4-14.5c5.6-1.5,11.2-3.1,16.7-5c7.5-2.5,14.3-6.4,19.7-12.3C592.8,201.7,594,201.2,595.5,200.2z"/>
	<path class="st0" d="M558.2,494.8c-26.3,1.7-52,3.3-78.1,4.9c0.3-1.2,0.4-2.2,0.7-3.2c8.6-26.4,13.6-53.5,15.3-81.2
		c0.2-3.5,1-6.7,2.7-9.9c4-7.2,5.7-15.3,6.9-23.3c1.7-11,2.7-22.2,1.3-33.3c-0.6-4.6-1.7-9.1-2.9-13.6c-0.5-2-0.7-3.8-0.2-5.8
		c5.5-19.8,13.2-38.7,23.2-56.7c0.9-1.6,2.1-3,3.5-4.1c4.4-3.6,9-6.9,13.4-10.4c2.5-2,5.3-2.5,8.4-2.4c9.9,0.6,19.9,1.1,30.3,1.7
		C574.6,336.3,566.4,415.3,558.2,494.8z"/>
	<path class="st0" d="M430.9,500.8c-5.8,1.3-6.1,1.2-7.1-3.8c-8-40-16.1-79.9-23.9-120c-7.1-36.4-13.7-72.9-20.6-109.4
		c-0.8-4.2-1.4-8.5-2.1-13.2c39-4.7,77.6-4.3,116.9-1.7c-5.6,8.2-10.8,15.8-16.1,23.4c-1.3,1.9-2.7,3.8-4.2,5.6
		c-7.2,9-11.9,19.2-13.8,30.6c-0.5,3.1-1.4,6.2-2.3,9.2c-1.1,3.9-2.9,7.5-5.9,10.2c-6.2,5.7-8.8,13-10.1,21.1
		c-1.9,11.7-3.1,23.4-2.8,35.3c0.1,5.4,0.9,10.5,2.9,15.6c1.2,3,1.8,6.4,2,9.7c0.9,12.7-0.6,25.3-1.9,37.9
		C440.2,468.2,435.9,484.5,430.9,500.8z"/>
</g>
</svg>
