<?xml version="1.0" encoding="utf-8"?>
<!-- Generator: Adobe Illustrator 19.0.0, SVG Export Plug-In . SVG Version: 6.00 Build 0)  -->
<svg version="1.1" id="Layer_1" xmlns="http://www.w3.org/2000/svg" xmlns:xlink="http://www.w3.org/1999/xlink" x="0px" y="0px"
	 viewBox="-349 415 300 174" style="enable-background:new -349 415 300 174;" xml:space="preserve">
<style type="text/css">
	.st0{fill:#FFFFFF;}
</style>
<path class="st0" d="M-284.9,501.2c0.2-0.3,0.3-0.5,0.4-0.6c0.5-0.5,0.7-1.2,0.9-1.8c0.3-0.8-0.1-1.6-0.8-2c-0.1,0-0.1-0.1-0.2-0.1
	c-0.6-0.1-1.2-0.3-1.8-0.2c-0.4,0.1-0.8,0.1-1.3,0.2c-0.3,0-0.6,0.1-0.8,0.2c-0.1,0-0.2,0-0.3,0c0.1-0.3,0.3-0.5,0.5-0.7
	c1.4-1.4,2.9-2.7,4.4-4c0.6-0.5,1.1-1.1,1.8-1.5c0.3-0.2,0.6-0.5,0.8-0.7c0.2-0.1,0.2-0.3,0.2-0.6c0-1.1,0-2.2-0.1-3.2
	c0-0.7-0.1-1.3-0.2-2c-0.2-0.9-0.2-1.9-0.2-2.8c0-1.2-0.2-2.4-0.3-3.6c-0.1-0.5-0.4-0.6-0.8-0.3c-1,0.7-2.1,1.3-3,2.2
	c-0.9,0.5-1.6,1.3-2.4,1.9c-1,0.7-1.8,1.6-2.6,2.5c-0.7,0.8-0.8,1.7-0.5,2.6c0.2,0.7,0.2,1.4,0.3,2.1c0,0.4,0.1,0.7,0.2,1.1
	c0.1,0.5,0.1,1,0.2,1.6c0,0.3,0.1,0.6,0.1,0.9c0.2,0.5,0.2,1.1,0.3,1.6c0,0.3,0,0.6,0.1,0.9c0.2,0.5,0.2,1.1,0.3,1.6
	c0,0.3,0.1,0.6,0.2,0.8c0,0.1,0.1,0.2,0.1,0.2c0.1,1.1,0.4,2.2,0.5,3.3c0,0.3,0.1,0.6,0.2,0.9c0,0.1,0,0.1,0.1,0.2
	c0.1,1.1,0.4,2.2,0.6,3.3c0,0.2,0,0.4,0.1,0.6c0.2,0.5,0.2,1.1,0.3,1.6c0.2,0.8,0.3,1.6,0.5,2.5c0.1,0.6,0.3,1.1,0.3,1.7
	c0,0.1,0.1,0.3,0.1,0.5c0,0.1,0.1,0.3,0.1,0.4c0.1,0.9,0.4,1.8,0.5,2.7c0.2,1,0.4,2,0.6,2.9c0.1,0.3,0.1,0.5,0.2,0.8
	c0,0.4,0.1,0.7,0.3,1.1c0.1,0.1,0.1,0.3,0.1,0.4c0,0.5,0.1,1,0.4,1.5c0.1,0.2,0.1,0.4-0.2,0.8c-0.1-0.1-0.1-0.3-0.2-0.4
	c0-0.3,0-0.6-0.3-0.9c0,0-0.1-0.1-0.1-0.1c0-0.6-0.4-1.2-0.5-1.8c0-0.1,0-0.2-0.1-0.3c-0.2-0.6-0.4-1.2-0.6-1.8
	c-0.2-0.7-0.4-1.3-0.5-2c0-0.2-0.1-0.4-0.2-0.6c-0.1-0.2-0.1-0.5-0.2-0.7c-0.1-0.2-0.1-0.4-0.2-0.6c-0.2-0.3-0.2-0.6-0.3-1
	c0-0.2,0-0.3-0.1-0.5c-0.2-0.3-0.2-0.6-0.3-1c0-0.1,0-0.3-0.1-0.4c-0.2-0.4-0.3-0.8-0.3-1.2c0-0.1-0.1-0.3-0.1-0.4
	c-0.1-0.3-0.2-0.5-0.2-0.8c0-0.1,0-0.1,0-0.2c-0.3-0.7-0.4-1.4-0.6-2c-0.1-0.3-0.2-0.7-0.3-1c0-0.2,0-0.4-0.1-0.5
	c-0.2-0.4-0.3-0.7-0.3-1.1c0,0,0-0.1,0-0.1c-0.2-0.8-0.4-1.5-0.6-2.3c0-0.1,0-0.1,0-0.1c0-0.9-0.4-1.6-0.5-2.5
	c0-0.3-0.1-0.5-0.2-0.8c0-0.1-0.1-0.2-0.1-0.2c-0.1-0.9-0.4-1.8-0.5-2.7c0-0.2,0-0.4-0.1-0.6c-0.3-0.6-0.3-1.3-0.4-2
	c0,0,0-0.1,0-0.1c-0.3-0.8-0.4-1.7-0.4-2.6c0-0.5-0.3-0.8-0.6-1.1c-0.3-0.3-0.7-0.2-0.9,0.2c0,0.1-0.1,0.2-0.1,0.2
	c0,0.7-0.1,1.4,0.2,2c0,0.1,0.1,0.2,0.1,0.2c0,0.8,0.4,1.6,0.5,2.4c0,0.3,0.1,0.5,0.2,0.8c0,0.2,0.1,0.4,0.1,0.5
	c0.1,0.5,0.1,0.9,0.3,1.3c0.1,0.2,0.1,0.4,0.1,0.6c0,0.2,0.1,0.5,0.2,0.7c0.1,0.3,0.1,0.6,0.2,0.8c0.1,0.3,0.1,0.5,0.2,0.8
	c0,0.2,0.1,0.4,0.1,0.5c0,0.4,0.1,0.8,0.3,1.1c0.1,0.2,0.1,0.4,0.1,0.5c0,0.2,0,0.4,0.1,0.6c0.2,0.4,0.3,0.7,0.3,1.1
	c0,0.1,0.1,0.3,0.1,0.4c0,0.1,0.1,0.1,0.1,0.2c0.1,0.8,0.4,1.5,0.6,2.2c0,0.3,0.1,0.5,0.2,0.8c0.1,0.2,0.1,0.4,0.2,0.5
	c0,0.4,0.1,0.7,0.3,1.1c0.1,0.2,0.1,0.4,0.1,0.5c0,0.2,0,0.4,0.1,0.6c0.1,0.3,0.2,0.6,0.3,1c0,0.2,0.1,0.4,0.1,0.5
	c0.2,0.3,0.2,0.6,0.3,1c0,0.2,0.1,0.4,0.1,0.5c0.1,0.3,0.2,0.5,0.2,0.8c0.1,0.3,0.2,0.5,0.2,0.8c0,0,0.1,0.1,0.1,0.1
	c0.1,0.6,0.3,1.2,0.5,1.7c0.2,0.9,0.4,1.7,0.7,2.6c0,0.1,0.1,0.3,0.1,0.4c0,0.1,0,0.2,0.1,0.3c0.3,0.6,0.3,1.4,0.6,2
	c0.1,0.2,0.1,0.4,0.2,0.6c0.1,0.3,0.2,0.5,0.2,0.8c0.1,0.2,0.1,0.5,0.2,0.7c0.1,0.3,0.1,0.5,0.2,0.8c0.1,0.2,0.1,0.3,0.1,0.5
	c0.1,0.3,0.1,0.7,0.3,1c0,0,0.1,0.1,0.1,0.2c0,0.7,0.4,1.3,0.5,1.9c0,0.2,0.1,0.3,0.1,0.5c0.3,0.7,0.5,1.5,0.7,2.2
	c0.3,0.9,0.5,1.9,1,2.7c0.1,0.1,0.1,0.3,0,0.5c-0.3-0.1-0.4-0.3-0.6-0.6c-0.3-0.6-0.8-1.2-1.3-1.7c-0.8-0.9-1.5-1.8-2.3-2.7
	c-0.9-0.9-1.7-1.8-2.7-2.6c-0.8-0.7-1.6-1.2-2.6-1.6c-0.6-0.2-1.2-0.3-1.7-0.6c-0.1-0.1-0.4,0-0.5-0.1c-0.5-0.1-1.1-0.2-1.6-0.4
	c-0.2,0-0.3-0.2-0.4-0.4c-0.3-1-0.7-1.9-1.1-2.9c-0.2-0.5-0.3-1-0.5-1.5c-0.1-0.4-0.3-0.8-0.5-1.2c-0.2-0.7-0.5-1.4-0.8-2.1
	c-0.3-0.9-0.7-1.7-1-2.6c-0.2-0.5-0.4-1.1-0.5-1.6c-0.1-0.4-0.3-0.7-0.4-1c-0.2-0.6-0.4-1.1-0.6-1.7c-0.2-0.6-0.4-1.1-0.5-1.7
	c-0.1-0.2-0.1-0.4-0.2-0.5c-0.1-0.3-0.2-0.5-0.2-0.8c0-0.1,0-0.3-0.1-0.5c-0.2-0.3-0.3-0.7-0.3-1.1c0-0.3-0.2-0.5-0.5-0.6
	c-0.4-0.1-0.8-0.3-1.1-0.3c-1-0.1-1.9-0.1-2.8-0.3c-1.7-0.2-3.4-0.3-5.1,0.1c0,0-0.1,0-0.2,0c-0.1-0.3-0.1-0.6,0-0.8
	c0.2-0.5,0.2-1,0.3-1.5c0-0.1,0-0.1,0-0.2c0.3-0.8,0.3-1.6,0.6-2.3c0-0.1,0.1-0.2,0.1-0.3c0.1-0.7,0.4-1.3,0.7-1.9
	c0-0.1,0.1-0.1,0.1-0.2c0-0.1,0-0.3-0.1-0.4c-0.1-0.1-0.3-0.1-0.4,0c-0.2,0.1-0.3,0.2-0.4,0.4c-0.5,0.6-1.1,1.1-1.5,1.8
	c-0.5,0.7-1.1,1.4-1.5,2.2c-0.1,0.3-0.4,0.5-0.6,0.8c0-0.2-0.1-0.3-0.1-0.4c0.2-0.3,0.3-0.6,0.4-0.9c0.2-0.5,0.4-1,0.6-1.5
	c0.2-0.4,0.4-0.8,0.5-1.2c0.4-1.3,1-2.5,1.7-3.6c0.8-1.4,1.6-2.8,2.8-3.9c0.4-0.4,0.4-0.6,0.1-1.1c-0.5-0.9-0.8-1.8-1-2.8
	c-0.2-0.7-0.5-1.4-0.6-2.1c-0.2-0.7-0.4-1.4-0.5-2.1c-0.1-0.4-0.1-0.9-0.3-1.3c-0.1-0.2-0.1-0.5-0.1-0.8c0-0.6-0.2-1.1-0.5-1.6
	c-0.1,0.1-0.3,0.1-0.4,0.1c-0.4,0.3-0.6,0.5-0.8,0.9c-0.5,0.8-0.8,1.6-1.1,2.5c-0.3,0.8-0.5,1.5-0.8,2.3c-0.3,0.9-0.6,1.8-1,2.6
	c-0.2,0.4-0.3,0.9-0.6,1.4c-0.9,1.8-1.9,3.4-3.6,4.5c-0.4,0.3-0.8,0.6-1.4,0.6c-0.1,0-0.2,0-0.3,0.1c-0.7,0.4-1.5,0.3-2.3,0.2
	c-0.2,0-0.4-0.1-0.5-0.1c-0.2,0-0.3-0.1-0.5-0.1c-1-0.2-1.9-0.6-2.7-1.2c-0.6-0.4-1.2-0.9-1.7-1.4c-0.7-0.7-1.2-1.5-1.7-2.4
	c-0.2-0.3-0.4-0.6-0.5-0.9c-0.3-0.5-0.5-1.1-0.7-1.6c-0.2-0.5-0.4-1-0.6-1.5c-0.1-0.2-0.1-0.4-0.2-0.5c-0.1-0.3-0.2-0.6-0.3-0.9
	c-0.1-0.2-0.1-0.4-0.1-0.5c0-0.5-0.1-0.9-0.3-1.4c-0.1-0.3-0.1-0.6-0.1-0.9c0-0.5-0.1-1-0.2-1.6c-0.1-0.6-0.1-1.2-0.1-1.8
	c0-0.1,0-0.3,0.1-0.4c0.4-1.1,1.2-2.8,1.9-3.7c0.8-1.1,1.6-2.2,2.3-3.3c0.8-1,1.7-1.9,2.4-3c0.1-0.2,0.3-0.4,0.5-0.6
	c1-1.1,2-2.2,3-3.3c1.5-1.6,3-3.1,4.7-4.6c0.9-0.8,1.8-1.7,2.7-2.5c0.5-0.4,1-0.9,1.5-1.3c0.4-0.3,0.7-0.6,1.1-0.9
	c0.6-0.5,1.1-1.1,1.8-1.5c0.2-0.1,0.4-0.3,0.6-0.5c0.2-0.1,0.3-0.3,0.5-0.4c0.9-0.7,1.8-1.4,2.8-2.1c0.2-0.2,0.4-0.4,0.7-0.5
	c0.4-0.3,0.7-0.5,1.1-0.8c0.2-0.1,0.4-0.3,0.6-0.4c0.3-0.2,0.6-0.5,1-0.7c0.7-0.6,1.5-1.1,2.2-1.6c0.6-0.4,1.2-0.9,1.8-1.3
	c1.7-1.1,3.4-2.2,5.1-3.3c1.2-0.8,2.3-1.5,3.5-2.2c0.9-0.6,1.9-1.1,2.8-1.6c0.7-0.4,1.3-0.9,2-1.3c0.8-0.5,1.7-1,2.5-1.4
	c1.1-0.6,2.2-1.2,3.4-1.8c1.5-0.8,3-1.5,4.6-2.3c1.3-0.6,2.5-1.2,3.8-1.8c1.3-0.6,2.6-1.2,4-1.8c1.4-0.6,2.8-1.2,4.2-1.8
	c0.8-0.3,1.6-0.6,2.4-0.9c0.9-0.3,1.7-0.7,2.6-1c0.9-0.3,1.8-0.6,2.7-1c0.4-0.1,0.8-0.3,1.3-0.4c0.9-0.3,1.8-0.7,2.7-1
	c0.5-0.2,0.9-0.3,1.4-0.5c0.2-0.1,0.3,0,0.5,0c0.1,0.4-0.1,0.6-0.2,0.8c-0.3,0.5-0.6,1-0.9,1.4c-0.7,0.8-1.2,1.8-1.7,2.8
	c-0.2,0.4-0.2,0.9-0.1,1.3c0,0.1,0.1,0.3,0.2,0.4c0.2,0.2,0.4,0.3,0.6,0.5c0.2,0.1,0.4,0.3,0.6,0.4c-0.3,0.2-0.6,0.3-0.9,0.4
	c-1.6,0.8-3.2,1.7-4.8,2.6c-0.9,0.5-1.9,1.1-2.8,1.6c-0.9,0.5-1.7,1.1-2.6,1.6c-0.9,0.6-1.9,1.2-2.8,1.8c-1,0.6-2,1.2-2.9,1.9
	c-0.9,0.6-1.9,1.2-2.8,1.8c-0.6,0.4-1.2,0.9-1.8,1.3c-0.1,0.1-0.2,0.1-0.3,0.2c-0.9,0.5-1.7,1.1-2.5,1.7c-0.6,0.5-1.3,0.9-1.9,1.3
	c-0.6,0.4-1.3,0.9-1.9,1.4c-0.7,0.5-1.5,1-2.2,1.5c0,0-0.1,0.1-0.1,0.1c-0.8,0.6-1.5,1.2-2.2,1.7c-0.8,0.6-1.6,1.1-2.3,1.7
	c-1.3,1.1-2.8,2.1-4,3.4c-0.2,0.2-0.4,0.4-0.3,0.8c0,0.2,0,0.4,0,0.6c0,1.7-0.1,3.5-0.3,5.2c-0.1,0.6-0.1,1.3-0.1,1.9
	c0,2.5,0,5,0,7.5c0,0.2,0,0.5,0.1,0.7c0.1,0.3,0.4,0.4,0.7,0.2c0.6-0.4,1.1-0.8,1.7-1.2c0.5-0.3,0.9-0.6,1.4-0.9
	c1.1-0.8,2.3-1.5,3.4-2.2c0.5-0.3,1-0.6,1.5-0.9c0.4-0.3,0.9-0.6,1.3-0.8c0.3-0.2,0.4-0.5,0.4-0.8c0-1.1,0.2-2.2,1.1-3
	c0.3-0.3,0.6-0.6,1-0.9c0.6-0.5,1.3-0.8,2.2-0.8c0.3,0,0.6,0,0.9,0c0.9,0.1,1.6,0.4,2.2,1.1c0.8,0.9,1.7,1.6,2.8,2.1
	c0.4,0.2,0.7,0.5,0.8,0.9c0,0.2,0.1,0.4,0.2,0.5c0.4,0.7,0.7,1.5,1,2.2c0.2,0.5,0.6,0.8,1,1c0.3,0.1,0.5,0,0.6-0.3
	c0-0.2,0-0.4,0-0.6c0-2.1,0-4.3,0-6.4c0-1.5,0-1.5,1.1-2.5c0.7-0.6,1.4-1.1,2.1-1.6c0.4-0.3,0.8-0.7,1.3-0.9c0.7-0.4,1.3-1,2.1-1.5
	c0.2-0.1,0.4-0.2,0.5-0.4c0.2-0.2,0.5-0.3,0.7-0.5c0.2-0.1,0.4-0.3,0.6-0.4c0.1-0.1,0.1-0.1,0.2-0.1c1-0.7,2-1.3,3-2
	c0.5-0.3,0.9-0.6,1.4-0.9c0.6-0.4,1.3-0.8,1.9-1.2c0.9-0.6,1.8-1.1,2.7-1.7c0.3-0.2,0.6-0.3,0.9-0.5c1.2-0.7,2.3-1.3,3.5-2
	c1.8-1.1,3.7-2,5.6-3c1.2-0.6,2.5-1.2,3.7-1.8c0.5-0.2,1-0.5,1.5-0.7c0.2-0.1,0.5-0.2,0.7-0.3c0.7-0.3,1.4-0.6,2.1-0.9
	c0.4-0.1,0.7-0.3,1.1-0.4c0.7-0.3,1.4-0.5,2.1-0.8c0.5-0.2,1.1-0.3,1.7-0.5c0.1-0.1,0.3-0.1,0.4-0.2c0.2-0.1,0.4-0.1,0.7-0.2
	c0.2-0.1,0.4-0.1,0.6-0.2c0.1,0,0.2-0.1,0.3-0.1c0.6,0,1.1-0.3,1.6-0.4c0.4-0.1,0.9-0.2,1.3-0.3c0.1-0.1,0.3-0.1,0.5-0.1
	c0.4,0,0.8-0.1,1.1-0.3c0.3-0.1,0.6-0.1,0.9-0.1c0.4,0,0.9-0.1,1.3-0.2c0.7-0.3,1.5-0.2,2.3-0.1c0,0,0.1,0.1,0.1,0.1
	c0,0.1,0,0.1-0.1,0.2c-0.6,0.6-1.2,1.2-1.9,1.8c-0.5,0.5-0.8,1.1-0.8,1.8c0,0.4,0,0.9,0,1.4c-0.2,0.2-0.4,0.4-0.6,0.5
	c-1.1,0.7-2.3,1.3-3.4,2c-0.9,0.6-1.9,1.1-2.9,1.6c-0.4,0.2-0.7,0.4-1.1,0.7c-0.4,0.3-0.4,0.5-0.1,0.9c0.5,0.6,1,1.2,1.5,1.7
	c0.5,0.5,1,1,1.4,1.6c0.3,0.4,0.7,0.8,1.1,1.2c0.4,0.5,0.9,0.9,1.3,1.5c0.2,0.3,0.4,0.5,0.7,0.8c0.6,0.6,1.2,1.3,1.7,2
	c0.2,0.3,0.4,0.5,0.6,0.7c0.4,0.4,0.8,0.8,1,1.3c0.2,0.3,0.4,0.5,0.7,0.8c0.4,0.5,0.9,1,1.2,1.5c0.1,0.2,0.3,0.3,0.4,0.5
	c0.2,0.2,0.4,0.4,0.6,0.6c0.4,0.6,0.9,1.2,1.4,1.8c0.6,0.7,1,1.5,1.6,2.2c0.5,0.6,0.9,1.4,1.4,2c0.2,0.3,0.5,0.4,0.8,0.1
	c0.5-0.5,1.1-0.7,1.6-1.1c0.4-0.3,0.8-0.5,1.1-0.7c0.7-0.4,1.4-0.8,2.2-1.2c0.4-0.2,0.7-0.6,0.4-1.2c-0.3-0.6-0.6-1.2-0.7-1.9
	c-0.1-0.6-0.4-1.1-0.6-1.7c-0.1-0.1-0.1-0.3-0.1-0.5c-0.1-0.3-0.1-0.5-0.2-0.8c-0.1-0.3-0.2-0.6-0.2-0.8c-0.1-0.2-0.1-0.4-0.2-0.6
	c-0.1-0.3-0.1-0.5-0.2-0.8c0-0.1,0-0.2,0-0.2c-0.2-0.8-0.4-1.5-0.6-2.3c-0.2-0.8-0.4-1.7-0.6-2.5c-0.1-0.3-0.1-0.6-0.2-0.9
	c0-0.1,0-0.1-0.1-0.1c-0.2-1-0.4-2-0.6-2.9c-0.1-0.3-0.1-0.6-0.2-0.9c-0.1-0.4-0.2-0.8-0.2-1.2c0-0.4-0.1-0.9-0.2-1.3
	c-0.1-0.4-0.2-0.9-0.2-1.3c0-0.4-0.1-0.8-0.2-1.3c-0.2-0.7-0.2-1.4-0.3-2c0-0.7-0.1-1.3-0.2-2c-0.1-0.6-0.2-1.3-0.2-1.9
	c0-1.2-0.1-2.4,0-3.6c0-2,0.1-4,0.1-5.9c0-0.6,0.2-1.2,0.3-1.8c0-0.1,0.1-0.1,0.2-0.2c0.1,0,0.2,0.1,0.2,0.1
	c0.1,0.9,0.6,1.6,0.9,2.4c0.1,0.3,0.3,0.6,0.5,0.9c0.5,0.6,0.8,1.4,1.4,1.9c0.3,0.2,0.4,0.5,0.6,0.8c0.5,0.6,1,1.2,1.7,1.7
	c0.3,0.2,0.6,0.5,0.9,0.8c0.3,0.3,0.7,0.6,1.1,0.8c0.5,0.3,0.9,0.6,1.4,0.9c0.6,0.3,1.2,0.6,1.8,0.9c0.7,0.4,1.5,0.7,2.1,1.3
	c0.2,0.2,0.4,0.3,0.5,0.5c0.6,0.5,1.1,1,1.6,1.6c0.5,0.6,0.9,1.2,1.2,1.8c0.1,0.3,0.3,0.6,0.3,0.9c0,0.3,0.1,0.6,0.2,0.8
	c0,0.2,0.1,0.4,0.1,0.6c-0.2,1.2-0.1,2.3-0.1,3.5c0,0.8,0.1,1.7,0.2,2.5c0,0.3,0,0.6,0,0.9c0,1.5,0,2.9,0.1,4.4c0,0.6,0.2,1.3,0.3,2
	c0,0.2,0.1,0.3,0,0.5c-0.1,0.8,0.2,1.6,0.4,2.3c0,0.2,0.1,0.3,0.3,0.3c0.1,0,0.3-0.1,0.4-0.2c0.1-0.2,0.1-0.4,0.1-0.6c0-1,0-2,0-2.9
	c0-0.4,0-0.8,0.1-1.2c0.1-1.4,0.3-2.8,0.3-4.2c0-0.8,0.1-1.5,0.2-2.3c0.1-0.4,0.1-0.9,0.1-1.3c0-0.5,0.1-1.1,0.2-1.6
	c0.1-0.3,0.1-0.6,0.1-0.9c0-0.5,0.2-1,0.5-1.5c0.6,0.3,1.1,1,1.1,1.6c0,0.5,0,0.9-0.1,1.3c-0.2,1-0.3,1.9-0.3,2.9
	c0,1.2-0.1,2.5-0.2,3.7c-0.1,1.4-0.1,2.7-0.1,4.1c0,1.4,0.1,2.8,0.1,4.3c0,0.2,0,0.3,0,0.5c0.2,1.1,0.2,2.3,0.2,3.5
	c0,0.9,0.1,1.8,0.3,2.7c0.1,0.5,0.1,1,0.1,1.5c0,0.7,0.1,1.3,0.2,2c0.1,0.4,0.1,0.9,0.2,1.3c0,0.2,0,0.4,0.1,0.6
	c0.2,0.8,0.4,1.5,0.4,2.3c0,0.1,0.1,0.3,0.1,0.4s0.1,0.3,0.1,0.5c0,0.9,0.4,1.7,0.5,2.6c0.1,0.5,0.3,1,0.4,1.4
	c0.1,0.2,0.3,0.3,0.5,0.2c0.2-0.1,0.3-0.2,0.4-0.3c0.4-0.4,1-0.8,1.5-1.2c0.7-0.5,1.3-1,2-1.5c0.1-0.1,0.2-0.1,0.3-0.2
	c0.8-0.6,1.6-1.1,2.5-1.7c0.8-0.5,1.6-1.1,2.4-1.6c0.6-0.4,1.1-0.7,1.7-1c0.6-0.4,1.1-0.8,1.6-1.1c0.8-0.5,1.7-1.1,2.5-1.6
	c0.6-0.4,1.2-0.8,1.8-1.1c0.5-0.3,1-0.6,1.5-0.9c0.2-0.1,0.4-0.2,0.6-0.3c0.2,0.1,0.2,0.3,0.2,0.4c0,0.8,0,1.6,0,2.4
	c0,0.6,0.1,1.1,0.1,1.7c0.1,1.7,0.4,3.3,0.3,5c0,0.5,0,0.9-0.3,1.3c-0.1,0.1-0.1,0.3-0.1,0.4c-0.1,0.8-0.1,1.7-0.1,2.5
	c0,0.6-0.2,1.1-0.3,1.6c0,0.1-0.1,0.2-0.1,0.3c-0.5,0.6-1.1,1.2-1.8,1.5c-0.9,0.4-1.7,1-2.5,1.5c-0.4,0.2-0.7,0.4-1.1,0.7
	c-0.6,0.3-1.1,0.7-1.7,1c-0.4,0.3-0.8,0.5-1.2,0.8c-1.1,0.7-2.1,1.3-3.2,2c-1,0.6-2.1,1.3-3.1,1.9c-0.7,0.4-1.4,0.9-2.1,1.2
	c-0.7,0.3-1.4,0.7-2.3,0.6c-0.6,0-1.1,0.1-1.6,0c-1.1-0.1-2.1-0.6-2.9-1.4c-0.5-0.5-1.1-1-1.5-1.6c-0.3-0.4-0.6-0.9-0.9-1.4
	c-0.5-0.9-0.9-1.8-1.2-2.8c-0.3-0.8-0.7-1.6-1-2.5c-0.3-0.8-0.6-1.5-0.9-2.3c-0.4-0.9-0.7-1.7-1.1-2.5c-0.1-0.3-0.3-0.7-0.4-1
	c-0.5-1.3-1.1-2.5-1.6-3.8c-0.3-0.8-0.6-1.7-1-2.5c-0.3-0.8-0.6-1.5-1-2.2c-0.3-0.7-0.6-1.4-0.9-2.1c-0.2-0.5-0.6-0.6-1-0.3
	c-0.7,0.5-1.2,1.2-1.1,2.1c0,0.2,0,0.5,0,0.7c0,0.7,0.2,1.3,0.6,1.9c0.3,0.4,0.6,0.8,0.9,1.2c-0.3,0.3-0.7,0.4-1.1,0.6
	c-0.6,0.3-0.7,0.6-0.4,1.2c0.4,0.6,0.7,1.1,1.1,1.7c0.4,0.5,0.6,1.1,1.1,1.7c0.3,0.4,0.6,0.9,0.8,1.3c0.6,1,1.2,2.1,1.9,3.1
	c0.3,0.5,0.6,1,0.9,1.5c0.4,0.6,0.8,1.1,1.1,1.6c0.4,0.6,0.8,1.3,0.9,2.1c0,0.2,0.1,0.4,0.1,0.5c0,0.2,0.1,0.4,0.1,0.6
	c-0.1,0.8-0.2,1.7-0.7,2.4c-0.2,0.3-0.4,0.5-0.6,0.7c-0.7,0.8-1.5,1.4-2.5,1.7c-0.7,0.2-1.5,0.4-2.3,0.3c-1-0.1-1.7-0.6-2.5-1.1
	c-0.4-0.3-0.7-0.7-1-1.1c-0.5-0.7-0.8-1.5-1.2-2.3c-0.6-1.3-1.2-2.7-1.8-4c-0.4-0.9-0.8-1.9-1.3-2.8c-0.5-1-1-2-1.5-3.1
	c-0.2-0.4-0.4-0.8-0.6-1.2c-0.1-0.3-0.3-0.3-0.6-0.2c-0.1,0-0.3,0.1-0.4,0.2c-0.6,0.5-1.3,0.8-1.9,1.1c-1.4,0.9-2.9,1.5-4.3,2.3
	c-0.1,0.1-0.2,0.1-0.4,0.2c-0.5,0.2-0.6,0.3-0.5,0.7c0.2,1.1,0.2,2.3,0.5,3.4c0.1,0.2,0,0.4,0,0.6c0,1.7,0.1,3.4,0.1,5.1
	c0,0.2,0,0.4,0.1,0.6c0.2,0.6,0.2,1.2,0.2,1.8c0,2,0,4.1,0,6.1c0,0.4,0,0.9-0.3,1.2c0,0.1-0.1,0.1-0.1,0.2c-0.1,0.9-0.7,1.4-1.3,1.9
	c-0.9,0.8-2,1.1-3.2,0.7c-0.8-0.3-1.4-0.6-1.9-1.2c-0.5-0.5-1-1-1.3-1.7c-0.3-0.8-0.7-1.5-0.6-2.4c0-0.8-0.1-1.5-0.3-2.3
	c-0.1-0.4-0.1-0.9-0.1-1.3c0-0.7,0-1.3-0.1-2c0-0.2,0-0.5-0.1-0.7c-0.2-0.4-0.2-0.9-0.2-1.4c0-0.5,0-1,0-1.5c0-0.6-0.2-1.2-0.3-1.8
	c0-0.3-0.2-0.4-0.5-0.4c-0.1,0-0.3,0-0.4,0c-0.2,0-0.4,0-0.6-0.1c-0.7-0.3-1.4-0.5-1.9-1.1c-0.3-0.3-0.6-0.6-1-0.9
	c-0.1-0.1-0.2-0.2-0.4-0.3c-0.3-0.1-0.6,0.1-0.6,0.4c0.1,0.6,0.2,1.1,0.3,1.7c0.1,1.1,0.1,2.2,0.5,3.2c0,0.8,0.1,1.5,0.4,2.2
	c0.1,0.2,0.1,0.4,0.1,0.6c0,0.4,0.1,0.9,0.3,1.3c0.1,0.3,0.1,0.6,0.1,0.8c0,0.3,0,0.7,0.2,1c0.2,0.4,0.2,0.8,0.1,1.3
	c-0.1,0-0.2,0-0.2-0.1c0-0.2-0.1-0.3-0.1-0.5c0-0.3,0-0.5-0.2-0.8c-0.2-0.3-0.3-0.6-0.3-0.9c0-0.1,0-0.2,0-0.2
	c-0.2-0.6-0.3-1.3-0.5-1.9c-0.1-0.5-0.3-0.9-0.3-1.4c0-0.1-0.1-0.3-0.1-0.5c0-0.1-0.1-0.3-0.1-0.4c0-0.8-0.4-1.6-0.5-2.4
	c0-0.2-0.1-0.4-0.1-0.5c-0.1-0.4-0.2-0.8-0.3-1.1c-0.2-0.8-0.3-1.6-0.5-2.4c-0.1-0.4-0.3-0.9-0.3-1.3c0-0.2-0.1-0.4-0.1-0.5
	c-0.1-0.4-0.2-0.9-0.3-1.3c-0.2-0.8-0.4-1.6-0.5-2.5c-0.3-0.5-0.2-1.1-0.3-1.6c-0.2-0.8-0.3-1.6-0.5-2.4c-0.1-0.6-0.2-1.1-0.3-1.7
	c-0.2-0.9-0.3-1.8-0.5-2.7c-0.1-0.6-0.3-1.2-0.3-1.9c0,0,0,0,0-0.1c-0.4-1.1-0.3-2.3-0.6-3.4c-0.1-0.3-0.1-0.7-0.1-1
	c0-0.5-0.1-0.9-0.2-1.3c-0.1-0.5-0.2-0.9-0.2-1.4c0-0.5-0.1-1-0.2-1.5c-0.2-0.5-0.2-1.1-0.2-1.6c0-0.5,0-1.1-0.2-1.6
	c-0.1-0.3-0.3-0.4-0.6-0.3c0,0-0.1,0-0.1,0c-0.9,0.2-0.9,0.3-0.8,1.2c0,0.1,0.1,0.3,0.1,0.4c0,0.8,0.1,1.6,0.3,2.4
	c0.1,0.2,0.1,0.5,0.1,0.7c0,0.5,0,0.9,0.2,1.4c0.1,0.3,0.2,0.5,0.2,0.8c0,0.8,0.2,1.4,0.3,2.2c0.1,0.9,0.2,1.7,0.5,2.6
	c0.1,0.2,0,0.5,0.1,0.7c0.2,0.9,0.4,1.7,0.4,2.6c0.2,0.6,0.3,1.2,0.4,1.8c0.1,0.8,0.3,1.6,0.5,2.5c0.1,0.6,0.3,1.1,0.3,1.7
	c0,0.2,0.1,0.4,0.1,0.5c0.2,0.4,0.2,0.8,0.3,1.2c0.2,1,0.3,1.9,0.6,2.9c0.1,0.3,0.2,0.6,0.2,0.9c0,0.1,0,0.2,0,0.2
	c0.3,0.9,0.3,1.8,0.6,2.6c0.1,0.4,0.2,0.7,0.2,1.1c0,0,0,0.1,0,0.1c0.2,0.8,0.4,1.7,0.6,2.5c0.1,0.2,0.1,0.4,0.2,0.6
	c0,0.4,0.1,0.8,0.3,1.2c0.2,0.9,0.4,1.7,0.6,2.6c0,0.1,0.1,0.3,0.1,0.5c0.2,0.4,0.3,0.7,0.3,1.1c0,0.2,0,0.3,0.1,0.5
	c0.2,0.4,0.3,0.8,0.3,1.2c0,0.1,0.1,0.3,0.1,0.4c0.1,0.3,0.2,0.6,0.3,1c0,0.2,0.1,0.4,0.2,0.6c0.1,0.3,0.2,0.6,0.2,0.8
	c0.2,0.6,0.3,1.3,0.5,1.9c0.3,0.7,0.3,1.4,0.6,2c0.3,0.8,0.5,1.6,0.8,2.3c0.2,0.6,0.3,1.2,0.5,1.7c0.3,0.8,0.6,1.7,1,2.5
	c0.4,0.8,0.7,1.6,0.9,2.4c0.2,0.6,0,1-0.5,1.3c-0.1,0.1-0.2,0.1-0.3,0.2c-0.5,0.4-0.8,0.9-0.8,1.6c0.1,1.1,0,2.1,0,3.2
	c0,0.2,0.1,0.4-0.1,0.6c-0.3,0.1-0.5,0-0.8-0.1c-0.7-0.2-1.3-0.4-1.9-0.7c-0.4-0.2-0.8-0.4-1-0.8c-1-1.5-1.7-3.2-2.5-4.8
	c-0.6-1.2-1-2.4-1.6-3.6c-0.5-1-0.9-2-1.3-3.1c-0.4-0.9-0.7-1.8-1-2.6c-0.4-0.9-0.7-1.7-1.1-2.6c-0.1-0.3-0.2-0.6-0.3-0.9
	c-0.5-1.2-0.9-2.5-1.4-3.7c-0.4-1-0.8-2.1-1.2-3.2c-0.4-0.9-0.6-1.7-1-2.6c-0.5-1.3-0.9-2.6-1.4-3.9c-0.2-0.6-0.5-1.1-0.7-1.7
	c-0.2-0.4-0.3-0.8-0.4-1.3c-0.3-1-0.7-2.1-1.1-3.1c-0.1-0.2-0.1-0.4-0.1-0.5c-0.1-0.2-0.2-0.4-0.3-0.6c-0.1-0.1-0.3-0.2-0.4-0.1
	c-0.6,0.4-1.1,0.9-1.4,1.6c-0.2,0.4-0.4,0.9-0.5,1.3c-0.1,0.2-0.1,0.5-0.1,0.7c0,0.7,0,1.4,0,2.1c0,0.4,0.1,0.7,0.3,1.1
	c0.3,0.7,0.7,1.4,1.2,2c0.1,0.1,0.1,0.1,0.1,0.2c0,0,0,0.1,0,0.2c-0.3,0.3-0.6,0.5-0.9,0.8c-0.4,0.4-0.4,0.6-0.1,1.1
	c0.5,1,1.1,2,1.6,3c0.2,0.4,0.4,0.8,0.7,1.3c0.6,1.1,1.1,2.1,1.7,3.2c0.5,1,1.1,1.9,1.6,2.9c0.6,1,1.1,2,1.6,3.1
	c0.1,0.1,0.1,0.3,0.2,0.4c0.2,0.2,0.3,0.4,0.3,0.6c0,0.2,0.1,0.4,0.2,0.6c0.3,0.4,0.2,0.9,0.1,1.4c-0.1,0.4-0.2,0.8-0.3,1.2
	c0,0.1-0.1,0.2-0.1,0.3c-0.1,0.3-0.3,0.5-0.4,0.8c-0.6,0.8-1.3,1.7-2.3,2.1c-0.2,0.1-0.5,0.3-0.7,0.3c-1,0.2-2,0.3-2.9-0.3
	c-0.6-0.3-1-0.7-1.4-1.3c-0.5-0.7-0.9-1.5-1.3-2.3c-0.7-1.3-1.3-2.5-1.9-3.8c-0.5-0.9-1-1.8-1.5-2.8c-0.8-1.5-1.6-3-2.3-4.6
	c-0.4-0.9-0.9-1.7-1.3-2.6c-0.1-0.1-0.2-0.3-0.3-0.4c-0.1-0.1-0.4-0.2-0.5,0c-0.8,0.7-1.7,1.1-2.6,1.7c-0.7,0.5-1.5,0.8-2.2,1.2
	c-0.6,0.3-1.3,0.7-2,1c-0.3,0.1-0.4,0.3-0.4,0.5c0,0.7-0.1,1.4,0.2,2.1c0.2,0.4,0.2,0.8,0.2,1.2c0,0.4,0.1,0.8,0.2,1.2
	c0.1,0.4,0.2,0.8,0.2,1.2c0,0.4,0,0.8,0.2,1.3c0.2,0.6,0.1,1.3,0.3,2c0.1,0.6,0.3,1.3,0.4,1.9c0,0.3,0.1,0.6,0.2,0.9
	c0.1,0.5,0.2,0.9,0.2,1.4c0,0.4,0.1,0.8,0.2,1.2c0.1,0.3,0.2,0.6,0.2,0.9c0,0.6,0.1,1.2,0.3,1.8c0.1,0.3,0.1,0.6,0.1,0.9
	c0,0.4,0,0.9,0,1.3c0.1,0.8-0.1,1.5-0.5,2.1c-0.4,0.7-0.8,1.5-1.6,1.8c-1,0.7-2.1,0.7-3.2,0.5c-0.7-0.1-1.2-0.6-1.7-1.1
	c-0.7-0.8-1.3-1.6-1.4-2.7c0-0.2-0.1-0.4-0.2-0.6c-0.1-0.3-0.2-0.7-0.2-1c0-0.5-0.1-1-0.2-1.5c-0.2-1.1-0.4-2.1-0.5-3.2
	c-0.1-0.5-0.1-0.9-0.2-1.3c-0.1-0.2-0.1-0.4-0.1-0.6c0-0.2,0-0.5-0.1-0.7c-0.3-1-0.3-2.1-0.6-3.2c-0.1-0.4-0.1-0.8-0.2-1.2
	c-0.1-0.4-0.1-0.7-0.2-1.1c-0.1-0.4-0.4-0.5-0.6-0.2c-0.6,0.6-1.4,1.1-2.1,1.6c-0.4,0.3-0.9,0.6-1.3,0.8c-0.2,0.1-0.4,0.2-0.6,0.4
	C-284.2,501-284.5,501-284.9,501.2z M-232.8,451.3L-232.8,451.3c0-2.4,0-4.8,0-7.2c0-0.2,0-0.4,0-0.6c0-0.2-0.1-0.3-0.3-0.3
	c-0.3,0-0.6-0.1-0.9,0.1c-0.4,0.2-0.7,0.4-1,0.6c-1.1,0.6-2,1.3-3,2c-0.9,0.6-1.8,1.4-2.7,2.1c-0.2,0.2-0.3,0.3-0.3,0.6
	c0,0.9,0,1.8,0.1,2.7c0.1,1,0.3,1.9,0.3,2.9c0,0.3,0,0.7,0.1,1c0.2,0.9,0.3,1.9,0.3,2.8c0,0.5,0.1,1,0.2,1.4c0.2,0.5,0.2,1,0.2,1.5
	c0,0.6,0,1.2,0.1,1.8c0.1,0.7,0.3,1.4,0.3,2.2c0,0.5,0,0.9,0.2,1.4c0.2,0.6,0.3,1.3,0.2,2c0,0.5,0,1.1,0.2,1.6
	c0.1,0.4,0.2,0.8,0.2,1.2c0,0.6,0.1,1.2,0.2,1.8c0.1,0.4,0.1,0.9,0.2,1.3c0,0.2,0,0.5,0.1,0.7c0.1,0.5,0.3,1.1,0.4,1.6
	c0,0.4,0.4,0.6,0.8,0.3c0.4-0.2,0.7-0.5,1.1-0.7c0.4-0.3,0.8-0.5,1.2-0.8c0.6-0.4,1.1-0.8,1.7-1.2c0.8-0.4,0.8-0.6,0.8-1.4
	c0-0.1,0-0.3,0-0.4c0-2.5-0.1-5.1-0.1-7.6c0-1.5-0.1-3.1-0.1-4.6c0-0.2,0-0.4-0.1-0.5c0-0.3-0.1-0.7-0.1-1
	C-232.8,456.1-232.8,453.7-232.8,451.3z M-253.7,471.3c0-0.1,0-0.3-0.1-0.4c-0.2-0.4-0.2-0.9-0.3-1.3c-0.2-0.7-0.4-1.4-0.5-2.1
	c0-0.1-0.1-0.1-0.1-0.2c-0.2-0.8-0.4-1.6-0.6-2.3c-0.1-0.3-0.1-0.6-0.2-0.8c-0.1-0.2-0.2-0.4-0.2-0.6c-0.1-0.7-0.4-1.3-0.5-2
	c0-0.1-0.1-0.2-0.2-0.4c-0.2-0.3-0.6-0.4-0.9-0.2c-0.1,0.1-0.2,0.2-0.3,0.3c-1.6,1.6-3.2,3.2-4.8,4.8c-0.6,0.6-1.3,1.3-2.1,1.8
	c-0.3,0.2-0.6,0.5-0.8,0.7c-0.4,0.4-0.4,0.6,0,1c0.3,0.4,0.6,0.7,0.8,1.1c0.1,0.2,0.2,0.3,0.3,0.4c0.1,0.2,0.3,0.3,0.4,0.5
	c0.1,0.4,0.4,0.7,0.7,1c0.1,0.1,0.2,0.2,0.3,0.3c0.5,0.8,1,1.7,1.5,2.5c0.3,0.4,0.5,0.5,1,0.2c0.4-0.3,0.8-0.6,1.3-0.8
	c0.7-0.5,1.5-0.9,2.2-1.3c1-0.6,1.9-1.1,2.9-1.6C-253.8,471.9-253.7,471.6-253.7,471.3z M-295.5,468C-295.5,468-295.5,468-295.5,468
	c0-0.5,0-0.9,0-1.3c-0.2-1.2-0.2-2.5-0.2-3.7c0-1.2,0-2.4-0.3-3.6c0-0.1,0-0.3,0-0.5c0-0.9,0-1.8-0.1-2.7c0-0.2,0-0.3,0-0.5
	c0-0.1-0.1-0.2-0.2-0.3c-0.1-0.1-0.4,0-0.5,0.1c0,0-0.1,0.1-0.1,0.1c-0.2,0.6-0.7,1.1-1.1,1.5c-0.3,0.3-0.5,0.7-0.4,1.1
	c0.1,0.8,0.1,1.6,0.3,2.4c0,0.1,0,0.3,0,0.4c0,0.9,0,1.8,0.1,2.7c0,0.6,0,1.2,0.1,1.7c0.2,0.9,0.3,1.8,0.3,2.7
	c0,0.8,0.2,1.5,0.4,2.3c0,0.2,0.2,0.3,0.4,0.3c0.1,0,0.3,0,0.5-0.1c0.7-0.4,1.1-0.9,1.1-1.7C-295.4,468.7-295.5,468.4-295.5,468z
	 M-223.7,463c0,0.9,0,1.6-0.1,2.4c-0.1,0.6-0.1,1.3-0.1,1.9c0,0.3,0.3,0.5,0.5,0.4c0.1,0,0.1-0.1,0.2-0.1c1.2-0.7,2.4-1.4,3.7-1.9
	c0.5-0.2,0.7-0.6,0.4-1.1c-0.4-0.7-0.9-1.4-1.3-2.2c-0.2-0.3-0.3-0.6-0.5-0.9c-0.5-0.7-0.9-1.4-1.4-2.1c-0.1-0.1-0.1-0.2-0.2-0.3
	c-0.2-0.2-0.4-0.2-0.6-0.1c-0.2,0.1-0.2,0.3-0.3,0.4c0,0.3,0,0.5-0.1,0.8C-223.7,461.2-223.7,462.1-223.7,463z M-283,463.9
	c0-0.5-0.2-0.7-0.7-0.6c-0.1,0-0.1,0.1-0.2,0.1c-1.5,0.7-2.8,1.5-4.2,2.3c-0.5,0.3-1,0.7-1.4,1c-0.3,0.2-0.6,0.4-1,0.7
	c-0.2,0.2-0.4,0.4-0.7,0.5c-0.5,0.3-1,0.8-1.4,1.3c-0.3,0.3-0.5,0.7-0.7,1c-0.2,0.3-0.1,0.7,0.1,0.9c0.2,0.1,0.4,0.1,0.7-0.1
	c0.8-0.5,1.6-1,2.3-1.6c1-0.7,1.9-1.3,2.9-2c0.5-0.3,0.9-0.6,1.4-0.9c0.6-0.4,1.2-0.8,1.8-1.2c0.3-0.2,0.5-0.5,0.7-0.7
	C-283.1,464.4-283,464.2-283,463.9z M-272.8,475.1c-0.1,0.1-0.2,0.2-0.3,0.4c0,0.1,0,0.3,0,0.4c0,1.2,0,2.4,0,3.5
	c0,0.9,0.2,1.7,0.4,2.6c0.1,0.4,0.3,0.5,0.7,0.3c0.1,0,0.2-0.1,0.3-0.2c0.8-0.5,1.6-1,2.5-1c0.1,0,0.2-0.1,0.3-0.1
	c0.2-0.1,0.3-0.4,0.2-0.5c-0.1-0.3-0.3-0.6-0.4-0.8c-0.4-0.6-0.8-1.1-1.1-1.7c-0.2-0.4-0.5-0.7-0.8-1.1c-0.2-0.2-0.3-0.5-0.5-0.7
	c-0.2-0.3-0.4-0.5-0.6-0.7C-272.5,475.3-272.6,475.3-272.8,475.1z M-296.2,474.4c0.1,0,0.2-0.1,0.4-0.1c0.5-0.3,0.7-0.7,0.9-1.2
	c0.1-0.3-0.1-0.6-0.2-0.9c0-0.1,0-0.2-0.1-0.2c-0.1-0.3-0.4-0.4-0.6-0.3c-0.2,0.1-0.4,0.2-0.6,0.3c-0.3,0.1-0.4,0.4-0.5,0.7
	c-0.1,0.5,0.1,0.9,0.1,1.3C-296.9,474.3-296.6,474.4-296.2,474.4z"/>
<path class="st0" d="M-98.7,560.6c0,0-0.1-0.1-0.1-0.1c0-0.2-0.1-0.3,0-0.5c0.3-0.8,0.3-1.7,0.6-2.5c0,0,0-0.1,0.1-0.1
	c0-0.8,0.4-1.5,0.5-2.3c0.1-0.5,0.3-1,0.4-1.4c0.2-0.6,0.3-1.1,0.5-1.7c0.2-0.8,0.5-1.5,0.7-2.3c0.1-0.4,0.3-0.8,0.4-1.2
	c0.2-0.6,0.4-1.1,0.6-1.7s0.4-1.1,0.6-1.7c0.1-0.4,0.3-0.9,0.5-1.3c0.4-1,0.7-1.9,1.1-2.9c0.3-0.8,0.7-1.6,1-2.4
	c0.3-0.7,0.6-1.5,0.9-2.2c0.5-1.1,0.9-2.1,1.4-3.2c0.4-1,0.9-1.9,1.3-2.9c0.4-0.9,0.9-1.8,1.3-2.8c0.5-1,1-1.9,1.5-2.9
	c1-1.9,2-3.7,3-5.6c0.7-1.3,1.5-2.6,2.2-3.9c0.8-1.4,1.7-2.9,2.5-4.3c0.6-1,1.2-2.1,1.9-3.1c0.9-1.4,1.7-2.8,2.6-4.1
	c0.8-1.3,1.7-2.6,2.5-3.9c0.6-1,1.3-1.9,1.9-2.8c0.7-1.1,1.5-2.1,2.2-3.2c0.2-0.3,0.4-0.6,0.6-0.9c-0.1-0.3-0.3-0.5-0.5-0.6
	c-0.2-0.1-0.4-0.1-0.6,0.1c-0.2,0.2-0.3,0.4-0.5,0.6c-0.4,0.6-0.9,1.2-1.3,1.8c-1.1,1.6-2.3,3.2-3.4,4.9c-0.8,1.3-1.6,2.5-2.4,3.8
	c-0.9,1.5-1.8,3-2.7,4.5c-0.6,1-1.2,2.1-1.7,3.1c-0.7,1.3-1.5,2.7-2.2,4c-0.7,1.3-1.4,2.7-2.1,4c-0.7,1.4-1.5,2.9-2.2,4.3
	c-0.6,1.2-1.2,2.3-1.7,3.5c-0.6,1.2-1.2,2.5-1.8,3.7c-0.5,1-1,2-1.4,3.1c-0.5,1-0.9,2-1.4,2.9c-0.5,1-0.9,2-1.4,3
	c-0.3,0.7-0.6,1.5-1,2.2c-0.4,0.8-0.7,1.7-1.1,2.5c-0.3,0.8-0.6,1.5-1,2.2c-0.2,0.4-0.4,0.8-0.5,1.2c-0.6,1.5-1.1,2.9-1.7,4.4
	c-0.5,1.3-1,2.5-1.4,3.8c-0.4,1.1-0.8,2.2-1.2,3.3c-0.3,1-0.6,2-0.9,2.9c-0.2,0.6-0.4,1.2-0.6,1.8c-0.1,0.5-0.3,1-0.4,1.4
	c-0.2,0.7-0.4,1.4-0.5,2.1c-0.1,0.2-0.1,0.3-0.1,0.5c-0.1,0.3-0.1,0.6-0.2,0.8s-0.1,0.6-0.2,0.8c0,0.1-0.1,0.2-0.1,0.3
	c-0.1,1-0.5,1.9-0.5,2.9c0,0.1,0,0.2,0,0.2c0,0.3-0.2,0.6-0.5,0.7c-0.5,0.2-1,0.4-1.5,0.7c-1.4,0.7-2.6,1.6-3.8,2.7
	c-1.5,1.4-2.8,3-3.8,4.7c-0.5,0.8-1,1.7-1.4,2.7c-0.1,0.2-0.1,0.3-0.3,0.2c-0.1-0.5,0-1,0.1-1.5c0.1-0.5,0.2-0.9,0.3-1.4
	c0.1-0.2,0.1-0.4,0.2-0.6c0-0.1,0.1-0.3,0.1-0.4c0.2-0.8,0.3-1.5,0.5-2.3c0.2-0.7,0.4-1.5,0.6-2.2c0.2-0.7,0.4-1.4,0.6-2.1
	c0.2-0.6,0.3-1.2,0.5-1.8c0.2-0.8,0.4-1.6,0.7-2.4c0.2-0.7,0.4-1.4,0.6-2c0.1-0.3,0.1-0.5,0.2-0.8c0.1-0.3,0.1-0.6,0.2-0.9
	c0.2-0.9,0.3-1.7,0.1-2.6c0-0.1-0.1-0.3-0.1-0.5c-0.1-1-0.4-1.9-0.6-2.9c-0.1-0.6-0.3-1.2-0.5-1.8c-0.2-0.9-0.5-1.7-0.7-2.6
	c-0.2-0.5-0.4-1.1-0.6-1.6c-0.2-0.6-0.4-1.1-0.6-1.7c-0.1-0.4-0.3-0.8-0.4-1.2c-0.6-1.4-1.1-2.9-1.8-4.3c-0.4-0.9-0.8-1.9-1.3-2.8
	c-0.5-1-0.9-2-1.4-2.9c-1-1.8-1.9-3.7-2.9-5.5c-0.9-1.5-1.8-3-2.7-4.5c-0.1-0.3-0.3-0.5-0.5-0.7c-0.4-0.5-0.9-0.9-1.6-1.1
	c-0.1-0.1-0.3-0.1-0.4-0.1c-0.8-0.3-1.8,0-2.3,0.7c-0.3,0.4-0.5,0.9-0.6,1.4c0,0.3,0,0.6,0,1c0,2.9,0,5.9,0.1,8.8
	c0,3.4,0.1,6.9,0.1,10.3c0,3.1-0.1,6.2-0.1,9.3c0,0.1,0,0.2,0,0.3c0,0.1-0.2,0.2-0.3,0.2c-0.1-0.1-0.3-0.2-0.4-0.3
	c-0.5-0.6-1-1.2-1.5-1.8c-1-1.2-2.1-2.3-3.4-3.2c-0.9-0.6-1.8-1-2.8-1.1c-0.3,0-0.4-0.1-0.5-0.4c-0.3-0.7-0.5-1.5-0.7-2.3
	c-0.1-0.3-0.1-0.7-0.2-1c0-0.1-0.1-0.1-0.1-0.2c-0.2-1-0.4-2.1-0.5-3.1c-0.2-1.4-0.4-2.9-0.6-4.3c0-0.1,0-0.2,0-0.2
	c-0.2-1.5-0.4-3-0.5-4.5c-0.1-0.6-0.1-1.3-0.2-1.9c-0.1-0.5-0.1-1-0.2-1.5s-0.1-1-0.1-1.5c-0.1-1-0.2-2-0.3-3
	c-0.1-0.5-0.1-0.9-0.2-1.4c-0.1-0.5-0.1-1.1-0.2-1.6c-0.1-0.9-0.2-1.7-0.3-2.6c-0.1-0.6-0.1-1.2-0.2-1.8c-0.1-0.6-0.1-1.3-0.2-1.9
	c-0.1-0.7-0.1-1.3-0.2-2c-0.1-0.7-0.1-1.4-0.2-2c-0.1-0.5-0.1-0.9-0.1-1.4c-0.1-0.8-0.2-1.6-0.3-2.4c-0.1-0.5-0.1-1-0.2-1.5
	c-0.1-0.6-0.3-0.7-0.8-0.4c-0.4,0.3-0.8,0.5-1.2,0.8c-0.5,0.3-0.9,0.6-1.4,0.9c-0.2-0.1-0.2-0.2-0.1-0.4c0.5-0.7,0.7-1.6,1-2.4
	c0.2-0.5,0.1-0.9,0-1.4c-0.4-1.6-1.6-2.6-3.1-3.1c-0.5-0.2-1.1-0.2-1.7-0.3c-0.7-0.1-1.3,0.1-1.9,0.3c-0.3,0.1-0.5,0.3-0.4,0.7
	c0,0.1,0.1,0.3,0.1,0.4c0.3,0.4,0.5,0.8,0.8,1.2c0.6,0.8,1.1,1.8,1.7,2.7c0.3,0.5,0.6,0.9,0.9,1.4c0.4,0.7,0.9,1.5,1.2,2.2
	c0.5,1,1,2.1,1.4,3.2c0.4,0.9,0.7,1.9,1,2.8c0.2,0.7,0.4,1.4,0.6,2c0.2,0.9,0.4,1.8,0.5,2.7c0.2,1.2,0.3,2.4,0.3,3.5
	c0,0.7-0.1,1.4-0.1,2.1c0,0.2-0.1,0.5-0.1,0.7c0,0.9-0.2,1.8-0.5,2.7c-0.4,1.2-0.8,2.4-1.4,3.5c-1.1,2.1-2.5,3.9-4.2,5.5
	c-0.4,0.4-0.9,0.7-1.3,1.1c-1.2,0.9-2.4,1.8-3.7,2.6c-0.4,0.3-0.9,0.5-1.5,0.5c-0.1,0-0.2,0-0.2,0c-0.8,0.4-1.6,0.4-2.4,0.6
	c-0.2,0.1-0.4,0.1-0.5,0.1c-1.3,0.2-2.7,0.2-4,0c-1.2-0.2-2.3-0.5-3.4-1.1c-1-0.5-1.9-1.1-2.6-1.9c-0.3-0.4-0.7-0.7-1-1
	c-0.3-0.3-0.5-0.6-0.8-1c-0.6-0.9-1.1-1.8-1.5-2.8c-0.2-0.5-0.5-1-0.6-1.6c0-0.1-0.1-0.3-0.2-0.4c-0.1-0.1-0.1-0.2-0.2-0.3
	c-0.1-0.7-0.4-1.2-0.5-1.9c0-0.1,0-0.3-0.1-0.4c-0.2-0.5-0.3-1-0.3-1.5c0-0.2,0-0.4-0.1-0.5c-0.2-0.6-0.3-1.3-0.3-2
	c0-0.7-0.2-1.4-0.3-2.1c-0.1-0.4-0.1-0.8-0.1-1.3c0-0.6,0-1.2-0.1-1.8c-0.1-0.5,0-1,0-1.5c0-0.2,0-0.3,0-0.5c0-0.3-0.2-0.5-0.5-0.4
	c-0.8,0.3-1.5,0.7-2.2,1.2c-0.8,0.5-1.5,1-2.4,1.4c-0.1,0-0.1,0-0.1,0.1c-0.6,0.4-1.2,0.9-1.8,1.3c-0.1,0.1-0.2,0.2-0.3,0.2
	c-0.5,0.3-0.9,0.7-1.3,1c-0.7,0.5-1.4,1-2.1,1.6c-0.4,0.3-0.8,0.6-1.2,1c-1,0.8-1.9,1.5-2.9,2.3c-0.2,0.2-0.4,0.3-0.6,0.5
	c-0.2,0.1-0.2,0.3-0.3,0.5c-0.2,3.4-0.5,6.7-0.4,10.1c0,1.3,0,2.6-0.2,4c-0.2,2.3-0.2,4.7-0.2,7c0,1.5,0,3-0.3,4.4
	c0,0.3,0,0.5,0,0.8c-0.1,1.3-0.1,2.5-0.3,3.8c0-0.1-0.1-0.3-0.1-0.4c0-0.4-0.1-0.7-0.1-1.1c0-1.2,0-2.4,0-3.6c0-4.1,0-8.2-0.1-12.3
	c0-0.4,0-0.8,0-1.2c-0.1-1.9-0.1-3.7-0.1-5.5c0-1.2-0.1-2.4-0.1-3.6c0-0.2,0-0.3,0-0.5c0-0.2-0.3-0.3-0.5-0.2
	c-0.3,0.2-0.5,0.5-0.7,0.7c-0.1,0.1-0.1,0.2-0.1,0.4c0,0.2,0,0.3,0,0.5c0,10.8,0,21.5,0,32.3c0,0.5,0,1.1,0,1.6c0,0.2,0,0.4-0.2,0.5
	c-0.3-0.1-0.3-0.4-0.4-0.6c-0.5-0.9-1.1-1.8-1.8-2.6c-0.2-0.2-0.4-0.3-0.6-0.5c-0.3-0.3-0.6-0.5-0.6-1c0-0.4-0.2-0.8-0.4-1.1
	c-0.5-1.3-1.3-2.3-2.4-3.1c-0.4-0.3-0.9-0.7-1.6-0.7c-0.3,0-0.6-0.1-0.9-0.1c-0.3-0.1-0.4-0.2-0.4-0.5c0-1.3,0.1-2.6,0.1-4
	c0-1,0-2.1,0-3.1c0-0.7-0.1-1.4-0.2-2.1c-0.1-0.5-0.1-0.9-0.1-1.4c0-0.4-0.1-0.7-0.2-1.1c-0.1-0.1-0.1-0.3-0.1-0.4
	c-0.1-0.8-0.3-1.5-0.5-2.2c-0.1-0.5-0.3-1.1-0.5-1.6c-0.3-0.8-0.7-1.6-1.1-2.4c-0.6-1.1-1.3-2.1-2.3-2.9c-0.1-0.1-0.2-0.2-0.3-0.3
	c-0.6-0.3-1.1-0.8-1.7-1c-0.6-0.2-1.2-0.5-1.9-0.6c-0.7-0.1-1.4-0.2-2.2-0.4c0,0-0.1-0.1-0.1-0.1c0-0.1,0.1-0.2,0.1-0.2
	c1.6-1.4,3.1-2.9,4.7-4.2c1.1-0.9,2.3-1.9,3.4-2.8c0.3-0.3,0.7-0.5,1-0.8c0.1-0.1,0.2-0.2,0.3-0.3c0.1-0.1,0.1-0.2,0.1-0.3
	c0-0.1-0.1-0.2-0.2-0.3c-0.9,0.5-1.9,0.9-2.7,1.4c-0.7,0.4-1.4,0.8-2.1,1.2c-0.6,0.3-1.2,0.7-1.8,1c-0.5,0.3-1,0.6-1.5,0.9
	c-0.1,0.1-0.2,0.1-0.5,0.1c0.1-0.2,0.2-0.3,0.3-0.3c1.4-1,2.8-2.1,4.2-3.1c1.2-0.9,2.4-1.8,3.7-2.8c0.1-0.1,0.3-0.2,0.5-0.3
	c0.5-0.2,0.6-0.6,0.5-1c-0.1-0.7-0.1-1.5-0.2-2.2c-0.1-1.1-0.1-2.3-0.2-3.4c-0.1-0.9-0.1-1.7-0.1-2.6c0-0.6,0-1.2,0-1.7
	c0-0.2,0-0.4,0-0.5c-0.1-0.5-0.5-0.7-0.9-0.5c-0.1,0.1-0.3,0.2-0.4,0.3c-1.5,1.4-2.9,3-4.3,4.6c-1,1.2-2.1,2.2-3.1,3.3
	c-0.6,0.6-1.2,1.1-2,1.4c-0.6,0.3-1.1,0.5-1.8,0.6c-1.6,0.1-2.9-0.6-3.8-1.8c-0.6-0.7-0.9-1.5-1.2-2.3c-0.1-0.1-0.1-0.3-0.1-0.4
	c0-0.2,0-0.4-0.1-0.6c-0.3-0.9-0.3-1.8-0.3-2.7c0-1.3,0-2.5,0-3.8c0-0.3,0.1-0.7,0.2-1c0.1-0.5,0.2-1,0.2-1.5c0-1,0.5-1.8,1.4-2.3
	c0.3-0.1,0.5-0.3,0.7-0.5c0.3-0.2,0.6-0.4,0.8-0.6c0.6-0.4,1.2-0.9,1.9-1.3c0.1-0.1,0.3-0.2,0.4-0.3c0.3-0.2,0.6-0.4,0.8-0.6
	c0.1-0.1,0.3-0.2,0.5-0.3c0.2-0.2,0.5-0.3,0.7-0.5c0.1-0.1,0.2-0.1,0.3-0.2c0.6-0.4,1.2-0.7,1.7-1.1s1.1-0.8,1.7-1.2
	c0.4-0.3,0.8-0.5,1.2-0.8c0.8-0.6,1.7-1,2.6-1.6s1.7-1,2.5-1.6c0.3-0.2,0.6-0.3,0.8-0.5c0.8-0.5,1.7-1,2.5-1.5
	c0.3-0.2,0.6-0.4,0.9-0.6c1-0.5,2-1,2.9-1.6c1.8-1.1,3.7-2,5.6-3c1.3-0.6,2.6-1.2,3.8-1.9c1.1-0.6,2.4-1,3.5-1.6
	c0.9-0.4,1.9-0.8,2.8-1.2c1-0.4,2-0.8,3-1.2c0.5-0.2,1-0.4,1.5-0.6c0.4-0.2,0.9-0.3,1.3-0.5c0.6-0.2,1.2-0.3,1.7-0.5
	c0.6-0.2,1.2-0.4,1.8-0.6c0.2-0.1,0.4-0.1,0.5-0.1c0.3-0.1,0.5-0.1,0.8-0.2c0.1,0,0.2-0.1,0.3-0.1c0.7-0.2,1.5-0.4,2.2-0.5
	c0.2,0,0.4-0.1,0.5-0.1c0.1,0,0.3-0.1,0.4-0.1c0.6-0.1,1.2-0.3,1.9-0.4c0.7-0.1,1.4-0.2,2-0.4c0.3-0.1,0.6-0.1,0.9-0.1
	c0.3,0,0.7-0.1,1-0.2c0.6-0.1,1.1-0.2,1.7-0.2c0.8,0,1.5-0.1,2.3-0.2c0.7-0.1,1.5-0.2,2.2-0.2c1.4,0,2.8,0,4.2,0.1
	c0.5,0.1,1,0.2,1.5,0.3c0.1,0,0.1,0.1,0.3,0.1c-0.1,0.1-0.2,0.2-0.3,0.2c-0.7,0.2-1.4,0.4-2.1,0.7c-0.4,0.2-0.7,0.3-1.1,0.4
	c-1.1,0.4-2.3,0.8-3.4,1.3c-0.5,0.2-1,0.4-1.4,0.6c-0.3,0.1-0.7,0.3-1,0.4c-1.5,0.6-3.1,1.3-4.5,2c-0.9,0.5-1.9,0.8-2.9,1.3
	c-1.4,0.7-2.8,1.4-4.2,2.1c-0.7,0.3-1.4,0.6-2,1.1c-1,0.7-2.2,1.1-3.2,1.9c-0.3,0.2-0.6,0.3-0.9,0.5c-1,0.6-2,1.2-2.9,1.9
	c-0.7,0.5-1.3,1-2,1.4c-0.2,0.1-0.4,0.3-0.6,0.5c-0.6,0.4-1.1,0.9-1.4,1.6c-0.4,1-0.8,2-1.1,3c-0.2,0.6-0.4,1.2-0.6,1.8
	c-0.2,0.6-0.4,1.3-0.6,2c-0.2,0.7-0.4,1.4-0.6,2c0,0,0,0.1-0.1,0.1c-0.2,0.7-0.3,1.4-0.5,2.1c-0.1,0.2-0.1,0.4-0.2,0.6
	c-0.1,0.2-0.1,0.4-0.2,0.6c-0.1,0.4-0.2,0.8-0.3,1.2c-0.1,0.3-0.1,0.6-0.1,0.9c-0.1,0.8-0.2,1.6-0.3,2.4c0,0,0,0,0,0.1
	c0,0.3,0.2,0.4,0.4,0.3c0.2-0.1,0.4-0.2,0.6-0.3c1-0.6,2-1.1,3-1.5c0.7-0.3,1.5-0.7,2.2-1c0.6-0.2,1.1-0.4,1.7-0.6
	c0.4-0.1,0.7-0.3,1.1-0.4c0.5-0.2,1-0.3,1.5-0.5c0.6-0.2,1.1-0.4,1.7-0.6c0.5-0.2,1-0.3,1.5-0.5c0.2-0.1,0.3-0.2,0.4-0.5
	c0.2-0.6,0.3-1.3,0.5-1.9c0.1-0.3,0.3-0.7,0.4-1c0.3,0,0.2,0.3,0.3,0.4c0.1,0.1,0.2,0.3,0.3,0.5c0.4,0.8,1,1.3,1.7,1.8
	c0.9,0.6,1.8,0.8,2.8,1c0.4,0.1,0.9,0,1.3,0c0.3,0,0.3,0,0.7,0.2c0,1.9-0.1,3.9-0.4,5.8c-0.1,0.5-0.1,1.1-0.1,1.7
	c-0.1,1.2-0.1,2.3-0.1,3.5c0,0.5,0,0.9-0.1,1.3c0,0.5-0.1,1-0.1,1.5c0,1.4,0,2.9,0,4.3c0,0.5,0.1,1,0.2,1.5c0,0.1,0.1,0.2,0.1,0.3
	c0.2,0.2,0.4,0.4,0.7,0.5c0.2,0.1,0.4,0.2,0.7,0.1c0-0.1,0.1-0.2,0.1-0.4c-0.3-0.7-0.2-1.4-0.3-2.1c-0.1-2.3,0-4.6,0.1-6.9
	c0-0.7,0.1-1.3,0.2-2c0-0.4,0.1-0.7,0.1-1.1c0.1-1,0.2-2,0.3-3.1c0.2-1,0.3-2,0.5-3c0-0.1,0-0.2,0.1-0.3c0-0.1,0.1-0.1,0.2-0.1
	c0.1,0,0.1,0.1,0.2,0.1c0.1,0.1,0.1,0.1,0.1,0.2c0,0.1,0,0.2,0,0.3c0.1,1.5,0.1,3.1,0.1,4.6c0.1,2,0.1,4.1,0.2,6.1
	c0.1,1,0.1,2,0.2,3.1c0,0.2,0.1,0.4,0.1,0.6c0.2,0.9,0.3,1.7,0.3,2.6c0,0.3,0.1,0.7,0.2,1c0,0.2,0.1,0.3,0.1,0.5
	c0.2,1.1,0.6,2,1.2,2.9c0.5,0.8,1.2,1.2,2,1.5c0.8,0.3,1.5,0,2.1-0.5c0.4-0.3,0.8-0.7,1-1.2c0.5-1,0.9-2,1.1-3
	c0.4-1.7,0.4-3.5,0.3-5.2c0-0.7,0-1.4-0.1-2.1c-0.2-1.2-0.3-2.4-0.6-3.6c-0.2-0.9-0.3-1.8-0.5-2.6c-0.2-0.7-0.4-1.5-0.6-2.2
	c-0.3-1.2-0.8-2.4-1-3.6c0-0.2-0.1-0.4-0.2-0.5c-0.1-0.1-0.1-0.3-0.1-0.5c-0.1-0.7-0.4-1.3-0.6-1.9c-0.2-0.5-0.4-1-0.6-1.5
	c-0.5-1.2-0.9-2.3-1.4-3.5c-0.3-0.7-0.6-1.3-0.9-1.9c-0.1-0.3,0-0.5,0.3-0.5c0.7,0,1.3-0.3,1.9-0.7c0.3-0.2,0.5-0.4,0.6-0.6
	c0.4-0.6,0.7-1.2,0.7-1.9c0-0.1,0.1-0.2,0.1-0.4c0.1,0.1,0.2,0.1,0.3,0.1c1.2,1.2,2.4,2.4,3.6,3.6c0.3,0.3,0.5,0.5,0.8,0.8
	c0.3,0.2,0.5,0.2,0.8,0c0.3-0.2,0.5-0.5,0.7-0.7c0.3-0.3,0.7-0.6,1-0.9c0.4-0.4,0.9-0.7,1.3-1.1s0.8-0.8,1.3-1c0,0,0.1,0,0.1,0
	c0.7-0.7,1.5-1.1,2.2-1.7c0.1-0.1,0.2-0.2,0.4-0.3c0.6-0.4,1.2-0.8,1.8-1.1c0.9-0.6,1.8-1.2,2.8-1.8c0.6-0.4,1.3-0.8,2-1.1
	c0.7-0.4,1.4-0.8,2.2-1.1c0.7-0.4,1.5-0.7,2.2-1c0.5-0.2,1.1-0.5,1.6-0.7c0.4-0.1,0.7-0.3,1.1-0.4c0.6-0.1,1.2-0.6,1.9-0.6
	c0.7-0.4,1.6-0.3,2.3-0.6c1.1-0.1,2.1-0.6,3.2-0.5c0.1,0,0.3,0,0.4,0c1.3-0.3,2.6-0.2,3.9-0.1c0.7,0,1.4,0.1,2.1,0.3
	c0.8,0.2,1.6,0.3,2.4,0.6c0.6,0.2,1.1,0.4,1.7,0.6c0.9,0.4,1.8,0.8,2.7,1.3c0.1,0,0.1,0.1,0.2,0.1c0.3,0.1,0.5,0,0.6-0.3
	c0-0.2,0-0.3,0-0.5c0-0.8,0.1-1.6,0.1-2.5c0-0.1,0-0.3,0.1-0.3c0.2-0.1,0.4,0,0.4,0.1c0.4,0.5,0.8,0.9,1.1,1.4
	c0.8,1,1.7,1.9,2.7,2.6c0.6,0.4,1.2,0.9,1.8,1.2c0.5,0.3,0.9,0.5,1.4,0.6c0.5,0.1,0.9,0.3,1.4,0.5c1.6,0.5,3.3,0.7,5.1,0.7
	c0.1,0,0.3,0,0.4,0c0.3,0,0.5,0.2,0.5,0.5c0,0.1,0,0.2,0,0.2c-0.1,2.5,0.2,5.1,0.2,7.6c0,0.5,0.1,1,0.2,1.5c0.1,0.4,0.1,0.8,0.1,1.3
	c0,0.7,0.1,1.3,0.3,2c0.1,0.2,0.1,0.4,0.1,0.6c0,0.5,0.1,1,0.3,1.5c0.2,0.7,0.4,1.3,0.5,2c0,0,0,0.1,0.1,0.1
	c0.1,0.1,0.1,0.1,0.2,0.2c0.1,0,0.2,0,0.2-0.1c0.1-0.2,0.2-0.4,0.3-0.6c0.3-1.1,0.8-2.2,1.2-3.2c0.3-0.7,0.6-1.5,0.9-2.2
	c0.3-0.8,0.6-1.6,1-2.3c0.3-0.7,0.6-1.4,1-2.2c0.4-0.9,0.9-1.9,1.4-2.8c0.5-1,1-2,1.5-3c0.7-1.3,1.4-2.7,2.1-4
	c0.9-1.6,1.7-3.2,2.6-4.8c0.9-1.5,1.8-2.9,2.6-4.4c1-1.6,2-3.2,3-4.8c1-1.5,2-3,3-4.4c1-1.4,2.1-2.8,3.2-4.2c1-1.3,2.2-2.5,3.5-3.6
	c0.2-0.2,0.4-0.4,0.6-0.2c0.2,0.1,0.2,0.4,0.2,0.6c0,2.3,0,4.6,0,7c0,0.9,0,1.8,0.1,2.7c0,0.3,0.1,0.6,0.1,0.9
	c0.1,0.5,0.1,1.1,0.1,1.6c0,0.6,0.1,1.2,0.3,1.8c0,0.1,0.1,0.2,0.1,0.3c0,0.9,0.4,1.8,0.5,2.6c0.1,0.6,0.4,1.3,0.6,1.9
	c0.2,0.8,0.6,1.5,0.9,2.2c0.6,1.3,1.4,2.5,2.4,3.5c0.4,0.4,0.6,0.5,0,1.2c-0.6,0.7-1.1,1.4-1.6,2.1c-0.6,0.8-1.2,1.7-1.8,2.5
	c-0.7,1-1.4,2-2.1,3.1c-0.4,0.6-0.9,1.3-1.3,1.9c-0.7,1-1.3,2-2,3c-0.6,0.9-1.2,1.8-1.7,2.6c-0.9,1.4-1.7,2.8-2.6,4.1
	c-1,1.6-2,3.1-2.9,4.7c-1,1.7-2,3.3-2.9,5c-0.9,1.7-1.9,3.3-2.8,5c-1,1.9-2,3.8-2.9,5.7c-0.6,1.2-1.2,2.4-1.8,3.6
	c-0.5,1-0.9,2-1.3,2.9c-0.4,0.8-0.7,1.5-1,2.3c-0.3,0.8-0.6,1.5-0.9,2.3c-0.3,0.8-0.7,1.7-1,2.5c-0.1,0.4-0.3,0.7-0.4,1.1
	c-0.3,0.9-0.6,1.8-0.9,2.7c-0.3,0.9-0.7,1.8-1,2.7c-0.2,0.5-0.3,1-0.5,1.5c-0.3,0.8-0.5,1.7-0.8,2.5c-0.2,0.7-0.4,1.4-0.6,2
	C-98.4,559.5-98.6,560-98.7,560.6z M-109.5,512c-0.1,0.1-0.2,0.2-0.2,0.3c-0.5,0.7-1,1.4-1.5,2.1c-1.1,1.5-2.3,3.1-3.5,4.6
	c-1.3,1.5-2.7,3-4.3,4.1c-0.2,0.1-0.4,0.2-0.6,0.4c-0.1,0.1-0.2,0.3-0.1,0.4c0.1,0.2,0.2,0.3,0.4,0.5c0.9,1.1,1.8,2.2,2.6,3.3
	c1.2,1.5,2.3,3,3.4,4.4c1.3,1.6,2.5,3.3,3.7,4.9c0.5,0.6,0.9,1.2,1.4,1.8c0.6,0.8,1.2,1.7,1.8,2.5c0.1,0.2,0.2,0.5,0.5,0.4
	c0.3,0,0.3-0.3,0.3-0.5c0.2-0.7,0.4-1.3,0.6-2c0.2-0.6,0.4-1.2,0.6-1.9c0.3-0.8,0.5-1.7,0.8-2.5c0.2-0.5,0.3-1.1,0.5-1.7
	c0.2-0.7,0.4-1.3,0.6-2c0.2-0.6,0.4-1.2,0.6-1.8c0.1-0.3,0.1-0.6,0.2-0.9c0.1-0.2,0-0.4,0-0.5c-0.2-0.4-0.4-0.9-0.6-1.3
	c-0.3-0.8-0.6-1.5-0.9-2.3c-0.3-0.8-0.7-1.5-1-2.3c-0.4-1-0.9-2.1-1.3-3.1c-0.6-1.3-1.2-2.7-1.8-4c-0.4-0.9-0.8-1.7-1.3-2.5
	C-109,512.4-109.1,512.2-109.5,512z M-130.4,521.8c0.3-0.1,0.4-0.1,0.6-0.1c0.6-0.4,1.3-0.7,1.9-1.1c1.5-1,2.8-2.2,4-3.5
	c0.8-0.9,1.6-1.9,2.3-2.9c0.6-0.9,1.1-1.8,1.6-2.7c0.5-0.9,0.9-1.8,1.2-2.7c0.3-0.7,0.4-1.4,0.6-2.1c0.3-1.2,0.4-2.4,0.3-3.6
	c0-0.3-0.1-0.7-0.3-1c-0.3-0.8-0.9-1.5-1.6-2.1c-0.7-0.6-1.5-0.9-2.4-1.1c-1.5-0.1-2.9-0.2-4.4,0.3c-0.1,0-0.1,0.1-0.2,0
	c-0.6,0-1.1,0.4-1.7,0.5c-0.2,0-0.3,0.2-0.3,0.4c0,0.1,0,0.3,0,0.4c0.1,1.7,0.1,3.3-0.2,5c-0.2,1.3-0.1,2.6-0.2,3.9
	c0,0.4-0.1,0.9-0.1,1.3c-0.1,0.8-0.2,1.6-0.3,2.4c-0.1,0.7-0.2,1.3-0.2,2c-0.1,0.5-0.1,1-0.1,1.5c0,0.3,0.2,0.4,0.4,0.3
	c0.1-0.1,0.2-0.1,0.3-0.2c0.9-0.7,1.8-1.6,2.5-2.5c1.7-1.9,3.3-3.9,4.7-6c0.1-0.2,0.3-0.5,0.6-0.6c0.2,0.2,0.1,0.3,0,0.4
	c-0.5,0.8-0.9,1.6-1.4,2.4c-1.2,2.2-2.6,4.3-4,6.3c-1.1,1.6-2.2,3.1-3.5,4.6C-130.2,521.3-130.3,521.5-130.4,521.8z M-191.7,505.9
	c0-0.2,0-0.4,0-0.6c0-0.1,0-0.2,0-0.2c-0.1-0.4-0.2-0.6-0.7-0.6c-0.2,0-0.4,0-0.5,0.1c-0.4,0.2-0.8,0.4-1.2,0.7
	c-0.3,0.2-0.5,0.6-0.4,1c0.2,0.8,0.1,1.6,0,2.4c-0.1,0.8-0.1,1.5-0.2,2.3c0,0.6-0.1,1.2-0.2,1.8c-0.1,0.6-0.2,1.2-0.2,1.7
	c-0.1,1.3-0.1,2.5-0.3,3.8c-0.1,0.4-0.1,0.8-0.1,1.3c0,0.4,0.2,0.6,0.6,0.5c0.2-0.1,0.4-0.1,0.7-0.2c0.2-0.1,0.4-0.3,0.4-0.5
	c0.1-0.8,0.3-1.5,0.4-2.3c0-0.1,0-0.3,0.1-0.4c0.2-0.4,0.3-0.8,0.3-1.2c0-0.2,0.1-0.4,0.1-0.5c0.1-0.4,0.2-0.8,0.2-1.2
	c0-0.4,0.1-0.7,0.2-1.1c0.1-0.5,0.2-1,0.2-1.5c0-0.3,0.1-0.6,0.1-0.9c0.2-0.6,0.3-1.2,0.3-1.9c0-0.3,0-0.5,0.1-0.8
	C-191.8,507-191.8,506.5-191.7,505.9z M-114.8,533.1c0.2,0.3,0.3,0.5,0.4,0.7c0.6,1.1,1.1,2.2,1.7,3.3c1.4,2.7,2.8,5.3,4.3,7.9
	c0.2,0.4,0.5,0.8,0.8,1.2c0.1,0.1,0.2,0.2,0.3,0.2c0.1,0,0.2-0.2,0.2-0.3c0.1-0.3,0.2-0.7,0.2-1c0.1-0.4,0.1-0.8,0.1-1.2
	c0-0.2-0.1-0.4-0.2-0.6c-0.8-1.2-1.6-2.4-2.4-3.6c-0.7-1-1.4-2.1-2.2-3.1c-0.8-1.1-1.7-2.2-2.5-3.3c-0.1-0.1-0.2-0.2-0.3-0.2
	C-114.4,533-114.6,533.1-114.8,533.1z M-192.4,520.1c0,0.8,0.2,0.9,0.9,0.6c0,0,0.1,0,0.1,0c0.8-0.4,1.7-0.9,2.5-1.3
	c1.3-0.7,2.7-1.5,4-2.2c1.2-0.7,2.4-1.3,3.6-2c0.1-0.1,0.2-0.2,0.2-0.3c0-0.1,0-0.3-0.1-0.3c0,0-0.2,0-0.3,0
	c-0.4,0.2-0.8,0.4-1.2,0.6c-1.3,0.5-2.6,1-3.9,1.6c-1.3,0.6-2.7,1.1-4,1.7c-0.5,0.2-1,0.5-1.5,0.8
	C-192.2,519.4-192.4,519.7-192.4,520.1z M-193.9,521.8c0-0.4-0.3-0.7-0.6-0.6c-0.6,0.2-1.1,0.5-1.6,0.9c-0.2,0.2-0.3,0.6-0.2,0.9
	c0.1,0.3,0.4,0.5,0.6,0.4c0.4-0.2,0.9-0.4,1.3-0.7C-194.1,522.5-193.9,522.2-193.9,521.8z"/>
<path class="st0" d="M-235.1,492.3c0.3,0.3,0.3,0.6,0.2,1c-0.1-0.1-0.2-0.2-0.2-0.3C-235.1,492.8-235.1,492.5-235.1,492.3z"/>
<path class="st0" d="M-234.6,494.2c0,0,0.1,0.1,0.1,0.1c0,0.1,0,0.2-0.1,0.4c0,0-0.1,0-0.1,0C-234.7,494.6-234.7,494.4-234.6,494.2
	C-234.6,494.2-234.6,494.2-234.6,494.2z"/>
<path class="st0" d="M-114.8,533.1c0.2,0,0.3-0.1,0.4,0c0.1,0,0.2,0.1,0.3,0.2c0.8,1.1,1.7,2.2,2.5,3.4c0.7,1,1.5,2.1,2.2,3.1
	c0.8,1.2,1.6,2.4,2.4,3.6c0.1,0.2,0.2,0.4,0.2,0.6c0,0.4-0.1,0.8-0.1,1.2c-0.1,0.3-0.1,0.7-0.2,1c0,0.1-0.1,0.3-0.2,0.3
	c-0.1,0-0.2-0.1-0.3-0.2c-0.3-0.4-0.5-0.8-0.8-1.2c-1.5-2.6-2.9-5.3-4.3-7.9c-0.6-1.1-1.1-2.2-1.7-3.3
	C-114.5,533.6-114.6,533.4-114.8,533.1z"/>
</svg>
