<svg xmlns="http://www.w3.org/2000/svg" width="490" height="91" viewBox="0 0 490 91">
  <defs>
    <style>
      .cls-1 {
        fill: #fff;
        fill-rule: evenodd;
      }
    </style>
  </defs>
  <path class="cls-1" d="M31.226,32.28L38.373,5.71,27.737,0.126H80.573l4.509,9.9-9.189-4.4H52.667L46.286,29.319h22.8l5.191-4.062-4,14.723L68.068,34.4H44.84S35.055,77.042,0,91C0,91,20.251,75.35,31.226,32.28ZM90.614,0.126h17.358l-3.914,2.962L94.443,39.642l3.828,3.384h-17.7l3.914-2.962L94.273,3.173ZM138,9.18c-1.186,10.322-14.633,13.2-14.633,13.2L129.922,36.6c4.339,9.139,16,6.431,16,6.431-7.488-3.215-13.784-20.139-13.784-20.139,0.852-.085,16.762-4.738,15.57-14.3S130.513,0.126,130.513.126H113.155l3.66,3.046L107.03,40.065l-3.915,2.962h17.7l-3.829-3.384L126.6,3.088h5.364S138.685,3.257,138,9.18Zm50.2,0.507L185.31,0.126h-27.5l3.659,3.046-9.785,36.892-3.913,2.962h34.31l2.978-8.969-9.189,5.585H161.636l4.446-16.9H173.4l2.127,4.8,2.893-11.593-4.255,3.929h-7.33l4.417-16.791h7.679Zm54.283,0-2.893-9.561h-27.5l3.659,3.046-9.785,36.892-3.913,2.962h34.31l2.978-8.969-9.189,5.585H215.919l4.446-16.9h7.317l2.127,4.8L232.7,15.949l-4.255,3.929h-7.33l4.416-16.791h7.68Zm184.1,0-2.893-9.561h-27.5l3.66,3.046-9.785,36.892-3.915,2.962h34.311l2.978-8.969-9.19,5.585H400.018l4.445-16.9h7.317l2.127,4.8L416.8,15.949l-4.253,3.929h-7.331l4.416-16.791h7.679Zm-169.2.449-7.76,29.505,3.828,3.384H241.174l3.914-2.962,9.785-36.892-3.659-3.046H266.4l5.36,30.631L293.024,0.295h13.7l-3.914,2.962L293.194,39.81l3.829,3.384h-17.7l3.913-2.962L291.4,9.475,263.5,49.458Zm183.276,0L432.9,39.642l3.829,3.384H424.451l3.913-2.962,9.787-36.893L434.49,0.126h15.182l5.361,30.631L476.3,0.295H490l-3.915,2.962L476.47,39.81l3.83,3.384H462.6l3.914-2.962,8.158-30.758L446.779,49.458ZM347.038,8.588c0.886-9.6-17.19-8.462-17.19-8.462H312.49l3.659,3.046-9.784,36.892-3.915,2.962h24.013s18.121-.761,19.229-13.708c0,0,1.531-7.785-12.337-9.9C332.509,19.29,346.2,17.642,347.038,8.588Zm-9.7.592c-2.112,8.039-12.579,11.338-12.579,11.338s10.978,0.677,11.148,7.7c0,0-1.314,14.13-19.588,11.423l9.614-36.554H331.3S338.856,3.412,337.339,9.18Zm32.582-6.092-9.616,36.554h14.232l9.188-5.585-2.977,8.969h-34.31l3.913-2.962,9.785-36.892-3.659-3.046H374.11Z"/>
</svg>
