<?xml version="1.0" encoding="utf-8"?>
<!-- Generator: Adobe Illustrator 19.0.0, SVG Export Plug-In . SVG Version: 6.00 Build 0)  -->
<svg version="1.1"
	 id="svg8" xmlns:cc="http://creativecommons.org/ns#" xmlns:dc="http://purl.org/dc/elements/1.1/" xmlns:inkscape="http://www.inkscape.org/namespaces/inkscape" xmlns:rdf="http://www.w3.org/1999/02/22-rdf-syntax-ns#" xmlns:sodipodi="http://sodipodi.sourceforge.net/DTD/sodipodi-0.dtd" xmlns:svg="http://www.w3.org/2000/svg" sodipodi:docname="Forza logo 2020.svg" inkscape:version="0.92.2 (5c3e80d, 2017-08-06)"
	 xmlns="http://www.w3.org/2000/svg" xmlns:xlink="http://www.w3.org/1999/xlink" x="0px" y="0px" viewBox="194 98.1 1000 597.9"
	 style="enable-background:new 194 98.1 1000 597.9;" xml:space="preserve">
<style type="text/css">
	.st0{fill:#FFFFFF;}
</style>
<path class="st0" d="M247.6,499l194.8-23.5l0,0l106.9-156l-159.9-27.3L247.6,499z M442,215.3l27.2-39.7
	c33.2-48.5,88.7-77.5,148.1-77.5h543.5l-27.2,39.7c-33.2,48.5-88.8,77.5-148.1,77.5L442,215.3L442,215.3z M668,389.8l102-148.8h104
	l-92.6,135.1L668,389.8z M816,372l89.8-130.9h104l-57.6,84c-14.4,21.1-37.5,35.1-63.2,38.1l-73,8.9V372z M278.4,246.9l4-5.9h455.9
	L633.5,394l-113.1,13.6l73.2-106.8L278.4,246.9z M845.3,577.1h120.2l-78.9,92h76.5v25.3H828l78.9-92H828
	C828,602.4,845.3,577.1,845.3,577.1z M313.9,602.4h-89.3v29.8h84.5v25.5h-84.5v36.7H194V577.1h137.2L313.9,602.4z M1111.8,599.4
	l-24.3,47.5h48.5L1111.8,599.4z M1194,694.4h-33.9l-12.8-24.9H1076l-12.8,24.9h-33.7l61.4-117.2h41.3l61.6,117.2H1194z M426.1,662.3
	c6.9,5.7,18.1,8.5,33.9,8.5l0,0c15.7,0,26.9-2.9,33.8-8.5c6.9-5.7,10.4-14.6,10.4-26.7s-3.4-20.8-10.3-26.5
	c-6.9-5.6-18.1-8.4-33.9-8.4c-15.8,0-27.1,2.8-33.9,8.2c-6.9,5.6-10.3,14.3-10.3,26.6S419.2,656.6,426.1,662.3z M516.7,680.6
	c-12.2,10.2-31,15.4-56.7,15.4l0,0c-25.8,0-44.6-5.1-56.8-15.3c-12.1-10.2-18.1-25.4-18.1-45.3s6.1-34.8,18.1-44.9
	c12.1-10.1,31.1-15.2,56.8-15.2s44.5,5.1,56.7,15.3c12.2,10.2,18.1,25.1,18.1,44.8C534.8,655.3,528.7,670.4,516.7,680.6z
	 M716.8,694.4h41.8l-47.1-35.9c21.8-2.6,38.6-18.1,38.6-40.5c0-24.5-20.1-40.8-44.9-40.8h-94.2v117.2h30.6v-92h55.2
	c10.4,0,22.7,1.4,22.7,16.8v1.8c0,15.4-12.3,16.8-22.7,16.8h-50.4C646.2,637.8,716.8,694.4,716.8,694.4z"/>
</svg>
