<?xml version="1.0" encoding="utf-8"?>
<!-- Generator: Adobe Illustrator 19.0.0, SVG Export Plug-In . SVG Version: 6.00 Build 0)  -->
<svg version="1.1" id="Layer_1" xmlns="http://www.w3.org/2000/svg" xmlns:xlink="http://www.w3.org/1999/xlink" x="0px" y="0px"
	 viewBox="-250.7 387.8 68 17.6" style="enable-background:new -250.7 387.8 68 17.6;" xml:space="preserve">
<style type="text/css">
	.st0{fill:#FFFFFF;}
</style>
<path class="st0" d="M-234.2,400.8c0.1,0,0.2,0,0.4,0c0,0.1-0.1,0.2-0.1,0.3c-0.2,0-0.4,0-0.6,0c0-0.1,0-0.2,0-0.3
	c0.1,0,0.2,0,0.3,0.1C-234.2,400.9-234.2,400.8-234.2,400.8"/>
<path class="st0" d="M-231.9,401.3c0.1,0,0.2,0,0.3,0c0,0.1,0,0.2,0,0.3c-0.1,0-0.2,0.1-0.3,0.1c-0.1-0.1-0.1-0.1-0.2-0.2
	C-232,401.4-231.9,401.3-231.9,401.3"/>
<path class="st0" d="M-231.5,401.7l0.3,0c0,0,0,0.1,0,0.2c-0.1,0-0.1,0-0.2,0C-231.4,401.8-231.5,401.8-231.5,401.7"/>
<path class="st0" d="M-231.5,402.9c0.1,0,0.3,0,0.4-0.1c0,0.2,0,0.3,0,0.5l0,0C-231.2,403.2-231.3,403-231.5,402.9"/>
<path class="st0" d="M-235,403.1c0.1,0,0.1,0,0.1,0.1C-235,403.2-235,403.2-235,403.1"/>
<path class="st0" d="M-249.2,387.9c0.2,0,0.5-0.1,0.7-0.1c1.4,0,2.8,0,4.3,0c0.2,0,0.3,0,0.5,0c1.1,0,2.1,0,3.2,0c0,0,0.1,0,0.1,0
	c0.7,0,1.5,0.1,2,0.6c0.3,0.3,0.3,0.7,0.3,1.1c-3.2,0-6.4,0-9.7,0c0,0.7,0,1.4,0,2.1c-0.1,0.1-0.2,0.2-0.3,0.3
	c-0.1,0-0.3-0.1-0.4-0.1c-0.2-0.1-0.4,0-0.6,0c0-0.1,0-0.2,0.1-0.3c-0.1,0.1-0.2,0.1-0.4,0.2c-0.1-0.1-0.1-0.1-0.2-0.2
	c0.3-0.1,0.6-0.2,0.8-0.4c-0.3-0.1-0.6-0.1-0.9-0.3c-0.3-0.2-0.6-0.3-1-0.4c0-0.5,0-1,0-1.5C-250.5,388.3-249.8,388-249.2,387.9"/>
<path class="st0" d="M-236.6,387.8c3.7,0,7.3,0,11,0c0,0.6,0,1.2,0,1.7c-2.7,0-5.4,0-8.1,0l-0.1,0c0,0.6,0.1,1.2-0.2,1.8
	c-0.4,0.1-0.9,0.1-1.4,0.1c-0.1-0.1-0.1-0.1-0.2-0.2c0.2-0.2,0.3-0.3,0.5-0.5c-0.2,0-0.4,0-0.6-0.2c0,0.2,0,0.3,0,0.5
	c-0.3,0.1-0.7,0.1-1,0C-236.6,390-236.6,388.9-236.6,387.8"/>
<path class="st0" d="M-218.5,387.8c0.7,0,1.5,0,2.2,0c2.1,2.7,4.2,5.4,6.3,8.2c-1.1,0-2.1,0-3.2,0c-0.4-0.5-0.8-1-1.1-1.5
	c0.1-0.1,0.1-0.1,0.2-0.2c0-0.1-0.1-0.2-0.1-0.3c0.2-0.1,0.4-0.2,0.5-0.3c0-0.1-0.1-0.2-0.1-0.2c0.2,0,0.4,0,0.6,0
	c0,0,0.1-0.1,0.1-0.1c-0.2-0.2-0.5-0.3-0.6-0.7c-0.1-0.2,0.1-0.4,0.2-0.5c-0.1-0.1-0.2-0.1-0.3-0.1c-0.2,0.1-0.2,0.4-0.4,0.5
	c-0.4-0.2-0.6-0.7-1-0.9c0.1-0.1,0.2-0.3,0.3-0.4c-0.3,0-0.7,0-0.9-0.2c-0.1,0.1-0.1,0.3-0.2,0.4c0-0.1,0-0.2,0-0.3
	c-0.3-0.1-0.6-0.1-0.8-0.2c-0.2-0.3-0.5-0.6-0.7-0.9c-0.5,0.7-1.1,1.5-1.6,2.2l-0.1,0c-0.3,0.1-0.6,0.1-0.8,0.2
	c-0.1-0.1-0.2-0.1-0.4-0.2c-0.3,0-0.4,0.3-0.6,0.4c-0.2,0.1-0.4-0.2-0.5-0.3c-0.1-0.2-0.4-0.2-0.6-0.2c0.5-0.7,1.1-1.4,1.6-2.1
	C-219.8,389.3-219.2,388.6-218.5,387.8"/>
<path class="st0" d="M-209.6,387.8c3.1,0,6.2,0,9.3,0c0.6,0,1.2,0.1,1.6,0.5c0.3,0.3,0.5,0.7,0.5,1.2c0,0.7,0,1.3,0,2
	c0,0.4-0.3,0.7-0.7,0.9c-0.6,0.3-1.3,0.2-2,0.2c1.5,1.2,2.9,2.3,4.4,3.4c-1.2,0-2.5,0-3.7,0c-2.2-1.6-4.3-3.3-6.5-4.9
	c1.9,0,3.8,0,5.6,0c0-0.5,0-1,0-1.6c-1.9,0-3.8,0-5.7,0c0,2.1,0,4.3,0,6.4c-1,0-1.9,0-2.9,0C-209.6,393.2-209.6,390.5-209.6,387.8"
	/>
<path class="st0" d="M-195.9,388.3c0.5-0.5,1.3-0.5,1.9-0.5c2.3,0,4.6,0,6.9,0c0.6,0,1.2,0,1.8,0.2c0.3,0.1,0.7,0.4,0.7,0.8
	c0,0.2,0,0.5,0,0.7c-3,0-5.9,0-8.9,0c0,0.5,0,1,0,1.5c2.4,0,4.7,0,7.1,0c0.5,0,1,0,1.4,0.3c0.3,0.2,0.4,0.5,0.4,0.8
	c0,0.8,0,1.6,0,2.4c0,0.4-0.2,0.8-0.6,1c-0.5,0.3-1.1,0.4-1.7,0.4c-2.7,0-5.3,0-8,0c-0.5,0-1-0.1-1.3-0.5c-0.3-0.4-0.3-0.8-0.3-1.2
	c3,0,5.9,0,8.9,0c0-0.5,0-1,0-1.4c-2.6,0-5.1,0-7.7,0c-0.5,0-1.1-0.2-1.2-0.8c0-0.8,0-1.7,0-2.5
	C-196.3,389.1-196.3,388.6-195.9,388.3"/>
<path class="st0" d="M-228.3,394.7c0.3-0.1,0.5-0.4,0.8-0.3c0.2,0,0.4,0,0.6,0c0.1,0.2,0.3,0.3,0.2,0.5c-0.2,0-0.7-0.1-0.7,0.3
	c0.2,0,0.4-0.1,0.6-0.2c0.1,0.2,0,0.5-0.2,0.6c0,0.1,0,0.2,0,0.3c-0.3,0-0.7,0-1-0.1c0.1,0,0.2,0,0.3,0c0-0.3,0.1-0.5,0.2-0.7
	c-0.2,0-0.3,0-0.4,0.1c0-0.1-0.1-0.3-0.1-0.4c-0.1,0-0.3,0.1-0.4,0.1C-228.4,394.8-228.4,394.7-228.3,394.7"/>
<path class="st0" d="M-229.9,394.9c0.1,0,0.3,0.1,0.4,0.1c-0.1,0.2-0.1,0.5-0.1,0.8c-0.1-0.2-0.2-0.5-0.5-0.3c0,0.1-0.1,0.2-0.1,0.3
	c-0.1,0.1-0.1,0.1-0.2,0.2c0.2,0,0.4,0,0.6,0.1c-0.3,0-0.7,0-1,0c0-0.1,0-0.2,0.1-0.4c0,0,0-0.1,0-0.1c0.1,0,0.2,0.1,0.2,0.1
	c0-0.1,0.1-0.2,0.1-0.3l0.5,0.1C-229.9,395.1-229.9,395-229.9,394.9"/>
<path class="st0" d="M-250.4,395.2c0.4-0.1,0.9-0.2,1.2,0.1l0.1,0c0,0.1,0,0.2-0.1,0.3c-0.1-0.1-0.3-0.1-0.5-0.2c0,0,0,0.1-0.1,0.2
	c0,0.1,0.1,0.1,0.1,0.2C-249.8,395.6-250.2,395.5-250.4,395.2C-250.4,395.3-250.4,395.2-250.4,395.2z"/>
<path class="st0" d="M-226.2,395.8c0.3-0.1,0.6-0.3,0.7-0.6c0,0.3,0,0.5,0,0.8c-0.4,0-0.9,0-1.3,0c0.2-0.1,0.3-0.2,0.5-0.3
	C-226.3,395.6-226.2,395.7-226.2,395.8"/>
<path class="st0" d="M-249.3,395.8c0.1-0.1,0.3-0.2,0.4-0.4c0,0.1,0.1,0.3,0.1,0.4C-248.9,395.9-249.1,395.9-249.3,395.8"/>
<path class="st0" d="M-221.2,403.4c0,0.1-0.1,0.1-0.1,0.2c0.1,0.1,0.3,0.1,0.4,0.2c0-0.1,0.1-0.2,0.1-0.3
	C-221,403.4-221.1,403.4-221.2,403.4 M-221.9,403c0,0.1-0.1,0.1-0.1,0.2c0.1,0,0.2,0,0.3,0.1c0-0.1,0.1-0.2,0.1-0.3
	C-221.7,403-221.8,403-221.9,403 M-220,402.9c-0.1,0.1,0.1,0.3,0.2,0.2C-219.7,402.9-219.9,402.7-220,402.9 M-221.2,402.6
	c0,0.1-0.1,0.2-0.1,0.3c0.2,0,0.4,0,0.5,0.1C-220.9,402.8-221,402.7-221.2,402.6 M-219.9,401.6c0,0.1,0.1,0.1,0.1,0.2
	c0.1,0,0.3-0.1,0.4-0.1c0,0,0-0.1,0-0.2C-219.6,401.6-219.8,401.6-219.9,401.6 M-221.9,401.5c0.1,0.1,0.3,0.1,0.4,0.2
	C-221.6,401.5-221.7,401.2-221.9,401.5 M-218.9,400c0,0.2,0.1,0.4,0.3,0.4c0.1,0,0.3-0.2,0.4-0.3C-218.4,400-218.7,400-218.9,400
	 M-223,400c0,0.1-0.1,0.2-0.1,0.4c-0.4-0.1-0.8-0.1-1,0.3c0.3,0.1,0.6,0,0.9,0c-0.1-0.1-0.1-0.1-0.2-0.2c0.1,0.1,0.3,0.1,0.4,0.2
	c0-0.1,0.1-0.1,0.1-0.2c0-0.1-0.1-0.1-0.1-0.2c0.1-0.1,0.2-0.1,0.3-0.1c0,0,0-0.1,0-0.2C-222.8,400-222.9,400-223,400 M-218.9,399.4
	c0,0.2,0.2,0.3,0.4,0.2c0,0-0.1-0.2-0.1-0.2C-218.7,399.4-218.8,399.4-218.9,399.4 M-217.9,398.9c-0.2,0.1-0.3,0.2-0.4,0.3
	c0.2,0.2,0.5,0.3,0.7,0.1l0,0c0.2,0,0.5,0,0.7,0c-0.1-0.2-0.4-0.2-0.6-0.2C-217.6,399.1-217.7,399-217.9,398.9 M-225.2,397.7
	c-0.1,0.1-0.1,0.2-0.1,0.4c0.2-0.1,0.5-0.1,0.7-0.1c0-0.1,0.1-0.3,0.1-0.4C-224.8,397.7-225,397.6-225.2,397.7 M-227.4,397.1
	c1,0,2,0,3,0c0.1,0,0.2,0.1,0.3,0.2c0.3,0.4,0.6,0.8,0.9,1.2c-0.3,0.2-0.7,0.3-1.1,0.3c-0.1,0.1-0.2,0.2-0.2,0.4
	c0,0.1,0.1,0.2,0.2,0.3c0.1-0.1,0.2-0.2,0.3-0.2c0.2,0,0.4,0,0.5,0c-0.2,0.2-0.3,0.5-0.4,0.8c0.2,0,0.3,0,0.5,0
	c-0.1-0.2-0.1-0.3-0.2-0.5c0.3,0,0.6-0.2,0.8-0.4c0.1,0,0.2,0.1,0.2,0.1c0.1,0.1,0.2,0.3,0.3,0.4c-0.1,0.1-0.2,0.3-0.2,0.4
	c0.2,0,0.3-0.1,0.5-0.1c0.4,0.5,0.8,1,1.1,1.5c-0.1,0.2-0.1,0.4-0.1,0.6c0,0,0.1,0,0.2,0c0-0.1,0.1-0.2,0.1-0.2
	c0.1,0.1,0.1,0.2,0.2,0.3l0,0.1c0,0.1,0,0.2-0.1,0.3c0.1,0,0.2,0,0.2,0c0,0.1-0.1,0.2-0.1,0.3c0.2,0,0.4-0.2,0.5-0.4
	c-0.2-0.1-0.3-0.1-0.5-0.2c0.3-0.6,0.7-1.2,1-1.8c0.1,0,0.3,0.1,0.4,0.1c-0.1,0.1-0.1,0.2-0.2,0.3c-0.1,0-0.1,0-0.2,0
	c0.1,0.2,0.2,0.3,0.4,0.3c0-0.1,0.1-0.2,0.1-0.3c0.2,0,0.4,0,0.6,0.1c0-0.1,0-0.2,0-0.3c-0.1,0-0.3,0-0.4,0c0.1,0,0.2-0.1,0.4-0.1
	c-0.2-0.1-0.3-0.2-0.5-0.2c-0.1-0.1-0.2-0.3-0.3-0.5c0.1-0.1,0.1-0.1,0.2-0.2c0-0.2-0.1-0.4-0.2-0.5c0.1-0.1,0.2-0.1,0.2-0.2
	c-0.1-0.1-0.2-0.1-0.3-0.2c0.2-0.1,0.4-0.2,0.6-0.4c-0.1,0-0.1-0.1-0.2-0.1c-0.1,0-0.1,0.1-0.2,0.1c-0.1-0.1-0.2-0.1-0.3-0.2
	c-0.1,0.2-0.1,0.3-0.2,0.5c-0.1-0.2-0.2-0.3-0.3-0.5c0.2-0.1,0.6-0.2,0.6-0.5c-0.2,0-0.5,0-0.7,0c-0.1-0.1-0.1-0.2-0.2-0.2
	c0.8,0,1.6,0,2.4,0c0,0.1,0.1,0.2,0.2,0.3c0.1-0.1,0.2-0.2,0.3-0.3c0.5,0.8,1,1.6,1.5,2.4c-0.1,0.1-0.1,0.1-0.2,0.2
	c0.1,0.3,0.1,0.6,0.4,0.8c0.1,0.1,0.3,0,0.4,0c0,0,0.1,0.1,0.1,0.1c-0.1,0.1-0.2,0.1-0.3,0.2c-0.2-0.1-0.4-0.2-0.6-0.3
	c0,0.2,0,0.4,0,0.5c0.1-0.1,0.2-0.2,0.3-0.3l0.3,0.2c-0.3,0.1-0.7,0.1-0.9,0.5c0.3,0.2,0.6-0.1,0.8-0.3c0,0.1,0,0.2,0,0.3
	c0.4,0.1,0.7,0.2,1.1,0.2c-0.1,0.1-0.1,0.3-0.2,0.4c0.2,0,0.3,0,0.5,0c0-0.1,0-0.3,0-0.4c0.2,0.1,0.3,0.2,0.5,0.3c0,0.1,0,0.2,0,0.3
	c-0.1,0.1-0.2,0.1-0.3,0.2c-0.2-0.1-0.4-0.1-0.6,0c-0.3,0.1-0.7,0.1-1,0c0.2-0.2,0.5-0.2,0.8-0.2c-0.3-0.3-0.7-0.5-1.2-0.4
	c-0.2,0-0.3,0.2-0.3,0.3c0.2,0,0.4,0,0.5-0.1c0,0,0,0.1,0,0.1c0.1,0,0.2-0.1,0.3-0.1c-0.1,0.2-0.1,0.4-0.2,0.7
	c-0.3,0.1-0.5,0.3-0.7,0.5c-0.1-0.1-0.1-0.2-0.2-0.4c0.1,0,0.2,0,0.3-0.1c-0.1,0-0.2,0-0.3,0c-0.1-0.1-0.2-0.3-0.2-0.4
	c0-0.1,0.1-0.2,0.1-0.2c-0.2-0.2-0.3-0.3-0.5-0.5c0.1-0.1,0.2-0.2,0.3-0.2c-0.2,0-0.4,0-0.5,0.1c0,0,0,0,0-0.1
	c0.1-0.1,0.3-0.3,0.4-0.4c-0.2,0-0.4,0.1-0.6,0.2c0,0-0.1,0-0.1,0c-0.2,0.1-0.3,0.1-0.5,0.2c0,0.1,0.1,0.2,0.1,0.2
	c-0.1,0.1-0.2,0.2-0.4,0.2c0.1,0.1,0.1,0.2,0.2,0.3c-0.1,0.2-0.2,0.5-0.4,0.7c0,0-0.1,0.1-0.1,0.1c0.1-0.2,0.2-0.4,0.2-0.6
	c0,0-0.1,0-0.2,0.1c-0.2,0-0.4,0-0.7,0c0.1,0.1,0.2,0.2,0.3,0.4c-0.1,0-0.2,0-0.3,0c0,0.1-0.1,0.1-0.1,0.2c0,0-0.1,0.1-0.1,0.1
	c-0.1,0-0.1,0.1-0.2,0.1c-0.2-0.2-0.3-0.6-0.6-0.8c0,0.1,0,0.2,0.1,0.3c-0.2,0-0.5-0.1-0.7,0c0.2,0.2,0.5,0.3,0.6,0.6
	c-0.2,0.1-0.5,0.2-0.7,0.3c-0.2,0.1-0.3,0.3-0.4,0.5c-0.1-0.1-0.3-0.2-0.2-0.4c0.1,0,0.2,0.1,0.3,0.1c-0.2-0.1-0.5-0.2-0.6-0.4
	c-0.7-0.9-1.4-1.9-2.2-2.8c0.1-0.1,0.2-0.1,0.3-0.2c-0.1-0.1-0.1-0.2-0.2-0.2c-0.1,0-0.2,0.1-0.3,0.1
	C-225.5,399.6-226.5,398.4-227.4,397.1"/>
<path class="st0" d="M-205.9,401.1c0,0.1,0,0.3,0.1,0.3c0.2,0,0.2-0.2,0.2-0.3C-205.6,401.1-205.8,401.1-205.9,401.1 M-200.9,401
	c0.1,0.1,0.1,0.2,0.2,0.3c0.2-0.2,0.5-0.2,0.7-0.1c0-0.1,0-0.3-0.1-0.3C-200.4,401-200.7,401-200.9,401 M-202.5,398.9
	c-0.1,0.1-0.1,0.2-0.2,0.3c0.2,0.1,0.4,0.1,0.7,0.1C-202.1,399-202.3,398.9-202.5,398.9 M-203.4,398.4c0,0,0,0.1,0.1,0.2
	c0.2,0.1,0.4,0.2,0.6,0.4c0.1-0.1,0.2-0.2,0.3-0.3c0.1,0,0.2,0,0.3,0c0.1-0.1,0.1-0.2,0.2-0.2c-0.3,0-0.6-0.1-0.9,0
	C-203,398.4-203.2,398.3-203.4,398.4 M-204.7,397.1c0.7,0,1.5,0,2.2,0c0.7,0.9,1.5,1.9,2.2,2.8c-0.1,0-0.3,0-0.4,0.1
	c0,0.3,0.5,0.3,0.7,0.4c0.2,0.2,0.4,0.5,0.6,0.7c-0.2,0-0.4,0.1-0.6,0.1c0.1,0.1,0.2,0.3,0.3,0.4c0.2,0.1,0.4,0.1,0.6,0.1
	c0.2,0.2,0.3,0.4,0.5,0.6c-0.1,0.1-0.1,0.2-0.2,0.3c-0.3-0.1-0.6-0.1-0.9,0c-0.1,0-0.2-0.1-0.3-0.1c0,0.2,0,0.4,0,0.6
	c0,0.1,0.1,0.2,0.1,0.3c-0.1,0.2-0.1,0.4-0.3,0.5c-0.1,0.1-0.3,0.1-0.4,0.1c-0.1-0.1-0.1-0.2-0.2-0.3c0-0.2,0-0.4,0.1-0.7
	c-0.3,0.1-0.6,0.4-1,0.3c-0.2-0.2-0.4-0.4-0.6-0.6c-0.2-0.1-0.5,0-0.7,0c-0.1,0.1-0.1,0.3-0.2,0.4c0-0.1-0.1-0.3-0.1-0.4
	c-0.2,0-0.3,0-0.5,0.1c-0.2-0.1-0.4-0.3-0.6-0.4c0.2,0,0.5,0.1,0.7,0.1c0.3,0,0.6-0.1,0.9-0.1c0.4,0.1,0.7,0,1.1-0.1
	c0-0.1,0.1-0.3,0.1-0.4c0.1-0.1,0.2-0.1,0.3-0.2c-0.2,0-0.3,0-0.5-0.1c0.2-0.1,0.3-0.1,0.5-0.2c0,0-0.1-0.1-0.2-0.2
	c-0.3,0-0.5,0-0.8,0c0.1-0.1,0.1-0.2,0.2-0.4c-0.2-0.1-0.5-0.1-0.7,0c-0.2-0.2-0.3-0.4-0.5-0.6c0-0.1,0-0.3,0-0.4
	c0.2,0,0.3,0,0.5-0.1c0-0.1-0.1-0.2-0.1-0.3c-0.3,0-0.5,0.1-0.8,0.2c-0.1-0.1-0.2-0.3-0.3-0.4c-0.3,0.4-0.6,0.8-0.9,1.2
	c-0.3,0.2-0.6,0.1-0.9,0.1c-0.3,0-0.6,0-0.9,0c0,0.1,0.1,0.2,0.1,0.3c0.2-0.1,0.5-0.1,0.7-0.2c0.1,0.2,0.3,0.3,0.4,0.5
	c-0.1,0.1-0.2,0.3-0.3,0.4c-0.2,0-0.4-0.1-0.5-0.1c0.1,0.1,0.2,0.3,0.3,0.4c-0.2,0.2-0.3,0.4-0.5,0.6c-0.1-0.3-0.1-0.6-0.3-0.8
	c-0.2-0.2-0.5-0.2-0.7-0.2c0,0.2,0,0.4,0.1,0.6c-0.1,0-0.2,0.1-0.2,0.1c0,0,0.1,0.1,0.1,0.2c-0.1,0.1-0.3,0.1-0.4,0.1
	c0.1-0.2,0.1-0.3,0.2-0.5c-0.2,0.1-0.4,0.2-0.6,0.3c-0.2,0-0.3-0.1-0.5-0.1c0,0,0-0.1,0.1-0.1c0-0.1-0.1-0.1-0.1-0.2
	c0.1-0.1,0.1-0.2,0.2-0.3c0.2,0.1,0.3,0.2,0.5,0.2c0.2-0.1,0.3-0.3,0.5-0.5c-0.2-0.1-0.3-0.2-0.5-0.3
	C-206.8,399.8-205.8,398.5-204.7,397.1"/>
<path class="st0" d="M-192.9,398.9c0,0.5,0,1,0,1.6c1.9,0,3.8,0,5.7,0c0-0.5,0-1,0-1.6C-189.1,398.9-191,398.9-192.9,398.9
	 M-195.8,397.1c3.2,0,6.4,0,9.5,0c0.7,0,1.4,0.3,1.7,0.9c0.3,0.5,0.2,1.1,0.2,1.6c0,0.4,0,0.9,0,1.3c-0.1,0.5-0.7,0.7-1.1,0.8
	c-0.5,0.1-1,0.1-1.6,0.1c1.5,1.1,3,2.3,4.4,3.4c-1.2,0-2.5,0-3.7,0c-2.2-1.6-4.3-3.3-6.5-4.9c0,1.6,0,3.3,0,4.9c-1,0-1.9,0-2.9,0
	c0.9-0.1,1.9,0,2.8,0c0-0.5,0-0.9,0-1.4c0-0.8,0-1.6,0-2.4c-0.5-0.1-1-0.1-1.5-0.2c0.1-0.2,0.2-0.4,0.3-0.7c-0.2,0-0.5,0-0.6-0.1
	c-0.2-0.1-0.5-0.3-0.8-0.2c-0.2,0.1,0,0.3,0,0.5l-0.3,0.3C-195.8,399.8-195.8,398.5-195.8,397.1"/>
<path class="st0" d="M-212.7,400.5c0.3,0,0.5,0.1,0.8,0.1c-0.2,0.1-0.3,0.4-0.4,0.6c-0.2,0.1-0.5,0.2-0.6,0.5c0.3,0,0.6-0.1,0.8-0.1
	c-0.2,0.1-0.3,0.1-0.5,0.2c0,0.1-0.1,0.2-0.1,0.3c-0.2,0-0.5,0.1-0.7,0c-0.1-0.2-0.2-0.4-0.4-0.6c0.2-0.3,0.4-0.5,0.6-0.8
	c0.1,0.1,0.2,0.2,0.4,0.3C-212.7,400.9-212.7,400.7-212.7,400.5"/>
<path class="st0" d="M-230.2,401.5c0,0.1,0.1,0.2,0.1,0.2c0.2,0,0.2-0.1,0.2-0.3C-230,401.4-230.1,401.4-230.2,401.5 M-230.6,401.2
	c-0.1,0.2,0,0.3,0.1,0.4c0.1-0.1,0.2-0.1,0.3-0.2C-230.4,401.4-230.5,401.3-230.6,401.2 M-230.6,401.1c0.3,0.1,0.6,0.2,0.9,0.1
	c0.2,0,0.3,0.1,0.5,0.2c0.1,0.1,0.2,0.1,0.3,0.2c-0.1,0-0.2,0-0.4,0c0.1,0.1,0.1,0.2,0.2,0.3c-0.6,0-1.1,0-1.7,0
	C-230.7,401.6-230.7,401.3-230.6,401.1"/>
<path class="st0" d="M-235.5,402.6c0.2,0,0.4,0,0.6,0c-0.1,0.1-0.2,0.2-0.3,0.3c-0.1,0-0.2,0-0.3-0.1
	C-235.5,402.7-235.5,402.6-235.5,402.6"/>
<path class="st0" d="M-208.5,402.7c0.2-0.1,0.4-0.2,0.6,0c0,0.1,0.1,0.2,0.2,0.2l0,0.1c-0.2,0-0.3,0.1-0.5,0.1
	C-208.3,403-208.4,402.9-208.5,402.7"/>
<path class="st0" d="M-214.7,403.4c0.1-0.1,0.2-0.3,0.3-0.3c0.1,0,0.3,0.1,0.4,0.2c-0.1,0.2-0.3,0.3-0.4,0.4c0,0.2,0,0.3,0,0.5
	c-0.2,0-0.3-0.2-0.5-0.2c0.2-0.1,0.3-0.2,0.3-0.3c-0.2-0.1-0.4-0.2-0.6,0c0-0.1-0.1-0.3-0.2-0.4
	C-215.1,403.3-214.9,403.3-214.7,403.4"/>
<path class="st0" d="M-209.9,403.8c0.1-0.2,0.3-0.4,0.4-0.5c-0.1,0.2-0.1,0.3-0.2,0.5c0.4,0,0.7-0.1,1.1-0.2c0,0.1,0,0.2,0,0.3
	c0.2-0.1,0.3-0.2,0.5-0.2c0-0.1-0.1-0.1-0.1-0.2c0,0,0.1-0.1,0.1-0.1c0,0,0.1,0,0.2,0c0,0.1,0,0.1-0.1,0.2c0,0,0.1,0.1,0.1,0.1
	c0,0,0.1,0.1,0.1,0.1c-0.3,0.1-0.6,0.1-0.9,0.1c0,0.1,0,0.2,0,0.2c0.2,0,0.3,0.1,0.5,0.1c-0.1,0-0.2,0.1-0.3,0.1
	c-0.1,0-0.2-0.1-0.3-0.1c-0.1-0.1-0.1-0.2-0.3-0.2c-0.3,0-0.6,0-0.9-0.1C-209.9,403.9-209.9,403.8-209.9,403.8"/>
<path class="st0" d="M-248.6,394.4c0.1,0,0.1,0.1,0.2,0.1c0,0.1,0,0.2,0,0.3c-0.1-0.1-0.2-0.1-0.3-0.2
	C-248.6,394.5-248.6,394.5-248.6,394.4"/>
<path class="st0" d="M-249.2,395.3c-0.1-0.2,0-0.4,0.1-0.6C-249.1,394.9-249.1,395.1-249.2,395.3
	C-249.1,395.3-249.2,395.3-249.2,395.3z"/>
<path class="st0" d="M-245,395.1c0.1,0.1,0.3,0.2,0.3,0.3c0.1,0.2,0,0.3,0,0.5c0.1,0,0.2,0,0.3,0c-0.1,0-0.2,0-0.4,0
	C-244.8,395.7-244.9,395.4-245,395.1"/>
<path class="st0" d="M-230.9,395.7c0-0.2,0-0.4,0.1-0.5c0,0.1,0.1,0.2,0.1,0.3c0,0,0,0.1,0,0.1
	C-230.8,395.6-230.8,395.6-230.9,395.7"/>
<path class="st0" d="M-244.3,396c-0.1-0.2-0.1-0.5,0-0.7c0.1,0.2,0.2,0.4,0.5,0.5c0.2,0.1,0.5,0.1,0.7,0.1
	C-243.5,396-243.9,396-244.3,396"/>
<path class="st0" d="M-239.2,395.6c0.2,0,0.3,0,0.5,0c-0.1,0.1-0.3,0.2-0.4,0.2C-239.1,395.8-239.2,395.7-239.2,395.6"/>
<path class="st0" d="M-248.7,396c0.2-0.1,0.3-0.2,0.5-0.3c0,0.1,0.1,0.2,0.1,0.3C-248.3,396-248.5,396-248.7,396"/>
<path class="st0" d="M-248,395.7c0.1,0.1,0.3,0.2,0.4,0.3c-0.2,0-0.3,0-0.5,0C-248.1,395.9-248.1,395.8-248,395.7"/>
<path class="st0" d="M-247.6,396l0.2-0.2c0.1,0.1,0.1,0.1,0.2,0.2C-247.3,396-247.4,396-247.6,396"/>
<path class="st0" d="M-217.5,399.1c0.2,0,0.5,0,0.6,0.2c-0.2,0-0.5,0-0.7,0l0,0C-217.5,399.3-217.5,399.2-217.5,399.1"/>
<path class="st0" d="M-239.3,401.1c0,0.2,0,0.3,0.1,0.5c0.1-0.1,0.2-0.2,0.2-0.4C-239.1,401.2-239.2,401.1-239.3,401.1 M-238.6,401
	c-0.1,0.1-0.1,0.1,0,0.2C-238.6,401.1-238.6,401-238.6,401 M-238.5,400.9c0,0.1,0,0.2,0.1,0.4c0.1-0.1,0.2-0.1,0.2-0.2
	C-238.3,401-238.4,400.9-238.5,400.9 M-239.3,400.8c0,0.3,0.3,0.3,0.5,0.3C-238.9,401-239.1,400.9-239.3,400.8 M-239.2,399.9
	c0.2-0.3,0.6-0.3,0.9-0.4c0.8,0,1.6,0,2.4,0c0.1,0.1,0.1,0.1,0.2,0.2c-0.2,0.1-0.4,0.1-0.6,0.2c0.2,0.2,0.3,0.3,0.5,0.5
	c-0.7,0-1.5,0-2.2,0c0,0.7,0,1.4,0,2.1c-0.1-0.1-0.1-0.2-0.2-0.3c0,0.1-0.1,0.1-0.1,0.2c0.6,0.2,1.1,0,1.7,0.1
	c-0.1,0.1-0.2,0.1-0.3,0.2c0,0.1,0,0.2,0,0.2c0,0.1,0,0.2,0,0.2c-0.3,0-0.2-0.3-0.2-0.5c-0.1,0.1-0.1,0.2-0.2,0.2
	c-0.1,0-0.3,0-0.4-0.1c0,0.1,0.1,0.1,0.1,0.2c0.2,0,0.3-0.1,0.5-0.1c-0.1,0.2-0.2,0.2-0.4,0.3c-0.1,0-0.2,0-0.3,0
	c0-0.1,0-0.1,0.1-0.2c-0.1,0-0.2,0-0.3,0c0,0,0.1,0,0.1-0.1c0,0-0.1-0.1-0.2-0.1c-0.2-0.1-0.4-0.3-0.5-0.6c-0.1,0.1-0.2,0.2-0.3,0.3
	c0,0-0.1-0.1-0.1-0.2l0.3-0.3c-0.1,0-0.2,0-0.3,0.1c-0.1,0.1-0.1,0.2-0.2,0.3c0.1,0.1,0.3,0.2,0.4,0.3c0.1,0.1,0,0.2,0,0.3
	c-0.3-0.1-0.5-0.4-0.5-0.7C-239.3,401.7-239.4,400.8-239.2,399.9"/>
<path class="st0" d="M-235.2,399.6c0.1,0,0.2,0,0.4,0c0.1,0.2,0.2,0.5,0.4,0.7c-0.2,0-0.3-0.1-0.5-0.2
	C-235.1,399.9-235.1,399.7-235.2,399.6"/>
<path class="st0" d="M-234.6,399.6c0.4-0.1,1,0,1.2,0.5c-0.2,0-0.4-0.2-0.6-0.3l-0.3,0.4C-234.3,399.9-234.4,399.6-234.6,399.6"/>
<path class="st0" d="M-232.4,400.3c0-0.3,0-0.5,0-0.8c0,0.4,0,0.7,0,1.1c0.1,0.2,0.2,0.5,0.2,0.7c-0.1,0-0.1-0.1-0.2-0.1
	c0,0.3-0.1,0.6,0,1c0,0.3,0.4,0.5,0.4,0.8c-0.1,0.1-0.2,0.2-0.4,0.3c0.3,0,0.6,0,0.8,0c-0.1-0.1-0.3-0.2-0.4-0.4
	c0.1-0.1,0.2-0.1,0.4-0.2c-0.1-0.1-0.1-0.2-0.2-0.3c0.2,0,0.4,0,0.6-0.1c0.1-0.4,0.1-0.8,0-1.2c-0.2,0-0.3,0-0.5-0.1
	c0-0.1,0-0.1-0.1-0.2c0.2,0,0.4,0,0.6,0v-0.6c0.6,0,1.2-0.1,1.8,0c-0.6,0.1-1.1,0-1.7,0c0,0.8,0,1.7,0,2.5c-0.1,0-0.3,0-0.4,0.1
	c0.1,0.1,0.3,0.3,0.4,0.4c-0.4,0-0.9,0-1.3,0C-232.4,402.3-232.4,401.3-232.4,400.3"/>
<path class="st0" d="M-229.4,399.7c0.1,0.1,0.2,0.1,0.3,0.2c-0.1,0.1-0.2,0.2-0.2,0.2c-0.2,0-0.4,0-0.6-0.1c0-0.1,0.1-0.1,0.1-0.2
	c0.1,0,0.2,0,0.3,0.1C-229.5,399.8-229.4,399.8-229.4,399.7"/>
<path class="st0" d="M-222.3,399.8c0.1,0.1,0.1,0.2,0.2,0.3c-0.2,0-0.3,0.1-0.5,0.1C-222.4,400.1-222.4,399.9-222.3,399.8"/>
<path class="st0" d="M-211.1,400.3c0.2-0.1,0.6-0.2,0.8,0c0.1,0.1,0,0.2,0,0.3c0,0,0.1,0.1,0.1,0.1c-0.1,0.1-0.1,0.2-0.2,0.3l0,0
	c-0.1-0.1-0.3-0.2-0.4-0.2c0.1-0.1,0.2-0.1,0.3-0.2C-210.7,400.4-210.9,400.4-211.1,400.3"/>
<path class="st0" d="M-234.6,400.4c0.1,0.1,0.3,0.3,0.4,0.4c0,0,0,0.1,0.1,0.2c-0.1,0-0.2,0-0.3-0.1c0,0.1,0,0.2,0,0.2
	c0,0-0.1,0-0.1,0C-234.6,400.9-234.6,400.6-234.6,400.4"/>
<path class="st0" d="M-234.4,400.5c0.1-0.1,0.2-0.1,0.3,0C-234.1,400.7-234.4,400.6-234.4,400.5"/>
<path class="st0" d="M-231.9,400.7c0.1-0.2,0.2-0.3,0.4-0.3C-231.5,400.6-231.7,400.6-231.9,400.7"/>
<path class="st0" d="M-223.7,400.4c0.1,0,0.2,0,0.1,0.1C-223.7,400.6-223.8,400.5-223.7,400.4"/>
<path class="st0" d="M-232.2,400.6c0.1,0,0.2-0.1,0.2-0.1c0,0.1-0.1,0.3-0.2,0.4C-232.1,400.8-232.3,400.7-232.2,400.6"/>
<path class="st0" d="M-205.4,400.7c0.3,0,0.6,0.1,0.9-0.1c-0.1,0.2-0.3,0.4-0.4,0.6c-0.2-0.1-0.3-0.3-0.4-0.5
	C-205.5,400.8-205.5,400.8-205.4,400.7"/>
<path class="st0" d="M-230.8,401c0.5,0,0.9,0,1.4,0c0.5,0,1.1,0,1.6,0c-0.5,0-1.1-0.1-1.5,0.3c-0.1-0.1-0.3-0.2-0.5-0.2
	c-0.3,0.1-0.6,0-0.9-0.1c-0.1,0.3-0.1,0.5-0.1,0.8C-230.8,401.6-230.8,401.3-230.8,401"/>
<path class="st0" d="M-230.6,401.2c0.1,0.1,0.2,0.2,0.3,0.2c-0.1,0.1-0.2,0.1-0.3,0.2C-230.6,401.5-230.7,401.4-230.6,401.2"/>
<path class="st0" d="M-235,403.1c0,0.1,0,0.1,0.1,0.1C-234.8,403.1-234.9,403-235,403.1 M-236.2,403c-0.1,0.1-0.1,0.1,0.1,0.2
	C-236.1,403.1-236.1,403-236.2,403 M-234.6,401.3c0.1,0,0.1,0.1,0.2,0.2c0,0.1,0,0.2-0.1,0.3c0.1-0.1,0.3-0.3,0.4-0.5
	c0.3,0,0.5,0.2,0.7,0.4c0,0.1,0,0.3,0,0.4c-0.2-0.1-0.4-0.3-0.5-0.6c0,0.1,0,0.2-0.1,0.3c-0.1,0.1-0.2,0.1-0.4,0.2c0,0,0,0,0,0.1
	c0.1,0,0.3,0,0.4,0.1c0,0.3,0.2,0.5,0.4,0.7c0-0.1-0.1-0.3-0.1-0.4c0,0,0.1,0,0.2,0.1c0,0.3,0,0.5-0.2,0.7c0-0.3-0.2-0.5-0.4-0.7
	c-0.1,0-0.2,0.1-0.2,0.1c0.1,0.1,0.1,0.2,0.2,0.2c0,0.1,0,0.3-0.1,0.4c0,0,0.1,0,0.1,0c-0.3,0-0.6,0.2-0.8-0.1c0,0-0.1,0.1-0.1,0.1
	c-0.4,0-0.8,0-1.2-0.1c0,0,0,0,0,0l0,0c-0.1,0-0.2,0.1-0.3,0.1c-0.1-0.1-0.2-0.3-0.3-0.4c0.2-0.1,0.4-0.3,0.5-0.4c0.2,0,0.4,0,0.6,0
	c0,0.1,0,0.2,0,0.2c0.1,0,0.2,0,0.3,0.1c0.1-0.1,0.2-0.2,0.3-0.3c0.1,0,0.2,0,0.3,0c-0.1,0.1-0.2,0.3-0.3,0.4c0.2,0,0.4,0.2,0.6,0.3
	c0.2-0.3-0.2-0.5-0.1-0.9c0.1,0,0.2-0.1,0.4-0.1c-0.2-0.1-0.5-0.1-0.6-0.4C-234.6,401.7-234.6,401.5-234.6,401.3"/>
<path class="st0" d="M-221.9,401.5c0.2-0.2,0.3,0,0.4,0.2C-221.6,401.6-221.7,401.5-221.9,401.5"/>
<path class="st0" d="M-219.9,401.6c0.2,0,0.3,0,0.5-0.1c0,0,0,0.1,0,0.2c-0.1,0-0.3,0.1-0.4,0.1
	C-219.9,401.8-219.9,401.7-219.9,401.6"/>
<path class="st0" d="M-232.2,402.3c0.2-0.1,0.4-0.3,0.6-0.4c0,0.1,0.1,0.3-0.1,0.4C-231.8,402.3-232,402.3-232.2,402.3"/>
<path class="st0" d="M-213.8,402.2c0.1-0.1,0.1-0.2,0.2-0.1c0.2,0.1,0.4,0.2,0.7,0.2c-0.1,0.1-0.1,0.1-0.2,0.2
	C-213.4,402.5-213.6,402.3-213.8,402.2"/>
<path class="st0" d="M-211.9,402.5c0.1,0,0.2-0.1,0.3-0.1c-0.1,0.1-0.2,0.2-0.3,0.3C-211.9,402.7-211.9,402.6-211.9,402.5"/>
<path class="st0" d="M-207.8,402.7c0.1,0,0.2-0.1,0.3-0.1c0,0.1-0.1,0.2-0.1,0.3C-207.7,402.9-207.8,402.8-207.8,402.7"/>
<path class="st0" d="M-209.1,402.8c0.2,0,0.4,0,0.7,0c0.1,0.1,0.1,0.3,0.3,0.3c0.2,0.1,0.3,0,0.5-0.1c0.1,0.1,0.1,0.3,0.2,0.4
	c0.1,0,0.2,0,0.3,0.1c-0.2,0.1-0.3,0.1-0.5,0.2c0,0-0.1-0.1-0.1-0.1c0-0.1,0-0.1,0.1-0.2c0,0-0.1,0-0.2,0c-0.2,0-0.4-0.1-0.5-0.3
	c-0.2,0.1-0.5,0-0.7-0.1C-209.2,402.9-209.2,402.8-209.1,402.8C-209.2,402.8-209.1,402.8-209.1,402.8z"/>
<path class="st0" d="M-213.9,402.9c0.1,0,0.2-0.1,0.3-0.2c0,0.1,0,0.1,0,0.2c-0.1,0.1-0.2,0.1-0.3,0.2
	C-213.9,403.2-213.9,402.9-213.9,402.9z"/>
<path class="st0" d="M-213.3,402.8c0.3,0,0.6,0,0.8,0.2c-0.2,0-0.5,0.1-0.7,0.2C-213.2,403.1-213.2,402.9-213.3,402.8"/>
<path class="st0" d="M-204,403.3c0.1-0.2,0.3-0.3,0.4-0.5c0.3,0.3,0.3,0.8,0.8,0.9c-0.3,0-0.6,0-0.9,0
	C-203.7,403.5-203.8,403.3-204,403.3"/>
<path class="st0" d="M-218.7,402.9c0,0,0.1,0,0.2,0c-0.1,0.2-0.2,0.4-0.2,0.6c-0.1,0.1-0.2,0.1-0.3,0.2c0.1,0.1,0.1,0.2,0.2,0.3
	c-0.1,0.1-0.1,0.2-0.2,0.3c-0.1-0.2-0.2-0.4-0.1-0.6C-219.2,403.3-218.9,403.1-218.7,402.9"/>
<path class="st0" d="M-221.9,403c0.1,0,0.2,0,0.3,0c0,0.1-0.1,0.2-0.1,0.3c-0.1,0-0.2,0-0.3-0.1C-222,403.1-222,403.1-221.9,403"/>
<path class="st0" d="M-205.8,403.3c0-0.1,0.1-0.1,0.1-0.2c0.1,0.1,0.2,0.2,0.3,0.4c-0.1,0-0.1,0-0.2,0
	C-205.6,403.4-205.7,403.3-205.8,403.3"/>
<path class="st0" d="M-206.8,403.2c0.1,0,0.2,0,0.3,0.1c-0.1,0.1-0.1,0.2-0.2,0.2C-206.7,403.4-206.8,403.3-206.8,403.2"/>
<path class="st0" d="M-205.1,403.7c0.1-0.1,0.1-0.3,0.2-0.4c0,0.1,0,0.3,0.1,0.4C-204.9,403.7-205,403.7-205.1,403.7"/>
<path class="st0" d="M-220.6,403.3c0.3,0,0.4,0.2,0.6,0.4c0,0.1,0,0.1-0.1,0.2c0.3-0.1,0.5,0.2,0.6,0.3c-0.1,0-0.2-0.1-0.4-0.1
	c-0.1,0.1-0.2,0.2-0.2,0.3c-0.1,0-0.2,0-0.3-0.1c-0.1-0.2-0.2-0.3-0.3-0.5c0.1-0.1,0.1-0.1,0.2-0.2
	C-220.4,403.6-220.5,403.5-220.6,403.3"/>
<path class="st0" d="M-212.9,403.5c0.2,0,0.4-0.1,0.6-0.1c-0.1,0.2-0.3,0.4-0.5,0.6c-0.1-0.1-0.1-0.1-0.2-0.2
	C-213,403.8-212.9,403.6-212.9,403.5"/>
<path class="st0" d="M-219.7,403.5c0,0,0.1-0.1,0.1-0.1c0,0.1,0.1,0.2,0.1,0.3c-0.1,0-0.2,0-0.3,0.1
	C-219.7,403.7-219.7,403.6-219.7,403.5"/>
<path class="st0" d="M-221,404.1c0.1,0,0.2-0.1,0.3-0.1c0,0.1,0,0.3,0,0.4C-220.9,404.3-221,404.2-221,404.1"/>
<path class="st0" d="M-207.6,404.1c0.2,0,0.4,0,0.5-0.1c-0.1,0.2-0.2,0.3-0.4,0.5C-207.5,404.4-207.5,404.3-207.6,404.1"/>
<path class="st0" d="M-220.9,404.7c0.2-0.2,0.4-0.1,0.6-0.1C-220.4,404.9-220.7,404.8-220.9,404.7"/>
<path class="st0" d="M-208.7,404.9c0.1-0.1,0.2-0.3,0.3-0.4c0,0.1,0,0.2,0,0.3C-208.4,404.9-208.6,404.9-208.7,404.9"/>
<path class="st0" d="M-219.9,404.7c0.1,0,0.1,0,0.2,0c-0.1,0.1-0.2,0.2-0.2,0.3c0.1,0,0.3,0.1,0.4,0.1c0,0-0.1,0.1-0.1,0.2
	c-0.1,0-0.2,0-0.3,0c-0.1-0.1-0.2-0.1-0.2-0.2C-220.1,405-220,404.8-219.9,404.7"/>
<path class="st0" d="M-221.1,405.3c0.1-0.1,0.2-0.4,0.4-0.3c0.1,0,0.2,0,0.4,0c0,0,0,0.1,0,0.1c-0.2,0-0.4,0-0.5,0
	c0,0.1,0,0.2,0.1,0.2C-220.9,405.3-221,405.3-221.1,405.3C-221.1,405.3-221.1,405.3-221.1,405.3z"/>
<path class="st0" d="M-229.9,394.9c0,0.1,0,0.3,0,0.4l-0.5-0.1c0,0.1-0.1,0.2-0.1,0.3c-0.1,0-0.2-0.1-0.2-0.1c0-0.1,0-0.2-0.1-0.3
	c-0.1,0.2-0.1,0.4-0.1,0.5c0.1,0,0.1-0.1,0.2-0.1c0,0.1,0,0.2-0.1,0.4c0.3,0,0.7,0,1,0c-0.2,0-0.4-0.1-0.6-0.1
	c0.1-0.1,0.1-0.1,0.2-0.2c0-0.1,0-0.2,0.1-0.3c0.2-0.2,0.4,0.2,0.5,0.3c0-0.3,0-0.5,0.1-0.8C-229.6,394.9-229.8,394.9-229.9,394.9
	 M-228.3,394.7c-0.1,0-0.2,0.2-0.2,0.3c0.1,0,0.3-0.1,0.4-0.1c0,0.1,0.1,0.3,0.1,0.4c0.1-0.1,0.3-0.1,0.4-0.1
	c-0.1,0.2-0.2,0.5-0.2,0.7c-0.1,0-0.2,0-0.3,0c0.3,0.1,0.7,0.1,1,0.1c0-0.1,0-0.2,0-0.3c0.2-0.1,0.3-0.3,0.2-0.6
	c-0.2,0.1-0.4,0.1-0.6,0.2c0-0.3,0.5-0.2,0.7-0.3c0.1-0.2-0.1-0.4-0.2-0.5c-0.2,0-0.4,0-0.6,0C-227.8,394.3-228,394.6-228.3,394.7
	 M-233.8,389.5L-233.8,389.5c0.1,1.6,0.1,3.1,0.1,4.7c2.7,0,5.5,0,8.2,0c0,0.3,0,0.6,0,0.9c-0.2,0.3-0.4,0.5-0.7,0.6
	c0,0-0.1-0.1-0.1-0.2c-0.2,0.1-0.3,0.2-0.5,0.3c0.4,0,0.9,0,1.3,0c-0.1,0-0.2,0-0.3,0c-2.7,0-5.5,0-8.2,0c-0.9,0-1.8,0-2.7,0
	c0-1.6,0-3.2,0-4.8c0.3,0.1,0.7,0.1,1,0c0-0.2,0-0.3,0-0.5c0.2,0.1,0.4,0.2,0.6,0.2c-0.2,0.1-0.3,0.3-0.5,0.5
	c0.1,0.1,0.1,0.1,0.2,0.2c0.5-0.1,0.9,0,1.4-0.1C-233.7,390.8-233.8,390.1-233.8,389.5"/>
<path class="st0" d="M-248.6,394.4c0,0.1,0,0.1-0.1,0.2c0.1,0.1,0.2,0.1,0.3,0.2c0-0.1,0-0.2,0-0.3
	C-248.4,394.5-248.5,394.4-248.6,394.4 M-250.6,390.5c0.3,0.1,0.7,0.2,1,0.4c0.3,0.2,0.6,0.2,0.9,0.3c-0.3,0.2-0.5,0.3-0.8,0.4
	c0.1,0.1,0.1,0.1,0.2,0.2c0.1-0.1,0.2-0.1,0.4-0.2c0,0.1,0,0.2-0.1,0.3c0.2,0,0.4-0.1,0.6,0c0.1,0,0.3,0.1,0.4,0.1
	c0.1,0,0.2-0.2,0.3-0.3c0,0.9,0,1.7,0,2.6c0.3,0,0.6,0,0.8,0c0.3,0,0.5,0,0.8,0c1.2,0,2.3,0,3.5,0c0.6,0,1.1,0,1.7,0
	c0-0.5,0-1,0-1.6c-1.4-0.4-2.8-0.8-4.2-1.2c-0.3-0.1-0.6-0.1-0.8-0.3c0.3,0,0.6,0,0.9,0c0.1,0,0.2,0,0.3,0c0.9,0,1.8,0,2.7,0
	c0.7,0,1.3,0,2,0c0.7,0,1.3,0,2,0c0,1.2,0,2.4,0,3.6c0,0.4-0.2,0.7-0.6,0.8c-0.2,0-0.3,0-0.5,0c0,0.1,0,0.1,0,0.2
	c-0.9,0.2-1.8,0.1-2.7,0.1c-0.4,0-0.9,0-1.3,0c-0.2,0-0.5,0-0.7-0.1c-0.2-0.1-0.3-0.3-0.5-0.5c-0.1,0.2-0.1,0.5,0,0.7
	c0,0-0.1,0-0.1,0c-0.1,0-0.2,0-0.3,0c0-0.2,0.1-0.3,0-0.5c-0.1-0.1-0.2-0.2-0.3-0.3c0.1,0.3,0.2,0.6,0.2,0.9c-0.8,0-1.6,0-2.4,0
	c-0.1-0.1-0.1-0.1-0.2-0.2l-0.2,0.3l0,0c-0.1-0.1-0.3-0.2-0.4-0.3c0,0.1-0.1,0.2-0.1,0.3l0,0c0-0.1-0.1-0.2-0.1-0.3
	c-0.2,0.1-0.3,0.2-0.5,0.3l0,0c0-0.1-0.1-0.3-0.1-0.4c-0.1,0.1-0.3,0.2-0.4,0.4c-0.1,0-0.2-0.1-0.3-0.1c0-0.1-0.1-0.1-0.1-0.2
	c0,0,0-0.1,0.1-0.2c0.2,0.1,0.3,0.1,0.5,0.2c0-0.1,0-0.2,0.1-0.3c0-0.2,0.1-0.4,0.1-0.6c-0.2,0.1-0.2,0.4-0.1,0.6
	c-0.4-0.2-0.8-0.2-1.2-0.1c-0.1-0.1-0.2-0.2-0.2-0.4c0,0,0-0.1,0-0.2c0.1,0,0.1,0,0.2-0.1c-0.2-0.3-0.2-0.7-0.2-1.1
	C-250.6,392.5-250.7,391.5-250.6,390.5"/>
<path class="st0" d="M-216.8,391c0.3,0,0.6,0.1,0.8,0.1c0,0.1,0,0.2,0,0.3c0.1-0.1,0.2-0.3,0.2-0.4c0.2,0.3,0.6,0.3,0.9,0.2
	c-0.1,0.1-0.2,0.3-0.3,0.4c0.4,0.2,0.6,0.7,1,0.9c0.1-0.2,0.2-0.4,0.4-0.5c0.1,0,0.2,0.1,0.3,0.1c-0.1,0.2-0.3,0.3-0.2,0.5
	c0.1,0.3,0.4,0.5,0.6,0.7c0,0-0.1,0.1-0.1,0.1c-0.2,0-0.4,0-0.6,0c0,0.1,0.1,0.1,0.1,0.2c-0.2,0.1-0.4,0.2-0.5,0.3
	c0,0.1,0.1,0.2,0.1,0.3c-0.1,0.1-0.2,0.1-0.2,0.2c-0.1-0.1-0.1-0.2-0.2-0.2c-1.8,0-3.6,0-5.3,0c0.4-0.6,0.8-1.2,1.3-1.7
	c1,0,2,0,2.9,0C-216,392.1-216.4,391.6-216.8,391"/>
<path class="st0" d="M-233.2,391.1c2.3,0,4.7,0,7,0c0,0.6,0,1.2,0,1.7c-2.3,0-4.7,0-7,0C-233.2,392.2-233.2,391.7-233.2,391.1"/>
<path class="st0" d="M-222.1,392.3L-222.1,392.3c0.2,0.1,0.5,0.1,0.6,0.2c0.1,0.1,0.3,0.4,0.5,0.3c0.2-0.1,0.3-0.4,0.6-0.4
	c0.1,0,0.3,0.1,0.4,0.2c0.3-0.1,0.6-0.2,0.8-0.2c-0.1,0.3-0.3,0.5-0.5,0.7c-0.7,0.9-1.3,1.8-2,2.7c-0.1,0.1-0.1,0.2-0.2,0.2
	c-1,0-2.1,0-3.1,0C-224,394.7-223,393.5-222.1,392.3"/>
<path class="st0" d="M-214.7,403.4c-0.2,0-0.4-0.1-0.6-0.1c0.1,0.1,0.1,0.3,0.2,0.4c0.2-0.1,0.4-0.1,0.6,0c0,0.2-0.2,0.3-0.3,0.3
	c0.1,0.1,0.3,0.3,0.5,0.2c0-0.2-0.1-0.3,0-0.5c0.1-0.2,0.3-0.3,0.4-0.4c-0.1-0.1-0.2-0.1-0.4-0.2
	C-214.5,403.1-214.6,403.2-214.7,403.4 M-213.3,402.8c0,0.1,0.1,0.3,0.1,0.4c0.2-0.1,0.5-0.2,0.7-0.2
	C-212.7,402.8-213,402.8-213.3,402.8 M-213.8,402.2c0.2,0.1,0.5,0.3,0.7,0.3c0-0.1,0.1-0.1,0.2-0.2c-0.2,0-0.4-0.1-0.7-0.2
	C-213.7,402-213.8,402.1-213.8,402.2 M-210.5,397.1c1,0,2,0,3,0c-0.9,1.2-1.9,2.4-2.8,3.6c0,0-0.1-0.1-0.1-0.1c0-0.1,0.1-0.2,0-0.3
	c-0.2-0.2-0.5-0.2-0.8,0c0.2,0.1,0.4,0.2,0.6,0.3c-0.1,0.1-0.2,0.1-0.3,0.2c0.1,0.1,0.3,0.2,0.4,0.3c-0.4,0.5-0.7,1-1.1,1.5
	c-0.1,0-0.2,0.1-0.3,0.1c0,0.1,0,0.2,0.1,0.2c-0.2,0.2-0.3,0.5-0.5,0.6c-0.2,0-0.4,0.1-0.6,0.1c0,0.1,0,0.2-0.1,0.4
	c0.1,0.1,0.1,0.1,0.2,0.2c-0.2,0.2-0.3,0.4-0.5,0.5c0-0.1-0.1-0.1-0.1-0.2c-0.1,0-0.2-0.1-0.3-0.1c0.1,0.1,0.3,0.2,0.4,0.3
	c-0.1,0.2-0.3,0.4-0.5,0.7c-0.5,0-1,0-1.5,0c-0.2-0.3-0.4-0.6-0.6-1c0.1,0,0.2-0.1,0.3-0.1c-0.1,0-0.2,0-0.3,0.1
	c-0.1-0.2-0.3-0.4-0.4-0.6c0.2-0.2,0.5-0.4,0.7-0.5c0.1-0.2,0.1-0.4,0.2-0.7c-0.1,0-0.2,0.1-0.3,0.1c0,0,0-0.1,0-0.1
	c-0.2,0.1-0.3,0.1-0.5,0.1c0.1-0.1,0.2-0.3,0.3-0.3c0.4-0.1,0.9,0.1,1.2,0.4c-0.3,0-0.6-0.1-0.8,0.2c0.3,0,0.7,0.1,1,0
	c0.2-0.1,0.4,0,0.6,0l0,0.2c0.1-0.1,0.2-0.1,0.3-0.2c0-0.1,0-0.1,0-0.2c0-0.1,0-0.2,0-0.3c-0.2-0.1-0.3-0.2-0.5-0.3
	c0,0.1,0,0.3,0,0.4c-0.2,0-0.3,0-0.5,0c0.1-0.1,0.1-0.3,0.2-0.4c-0.4,0.1-0.8-0.1-1.1-0.2c0-0.1,0-0.2,0-0.3
	c-0.2,0.1-0.5,0.5-0.8,0.3c0.1-0.4,0.6-0.3,0.9-0.5l-0.3-0.2c-0.1,0.1-0.2,0.2-0.3,0.3c0-0.2,0-0.4,0-0.5c0.2,0.1,0.4,0.2,0.6,0.3
	c0.1-0.1,0.2-0.1,0.3-0.2c0.1,0.1,0.3,0.4,0.1,0.5c-0.1,0-0.1-0.1-0.2-0.1c0.1,0.1,0.1,0.2,0.2,0.3c0.1,0,0.1-0.1,0.2-0.1
	c0.2,0.2,0.3,0.5,0.5,0.8c0.1-0.1,0.2-0.2,0.3-0.3c0.1,0,0.1,0,0.2,0c0-0.1,0-0.2,0.1-0.3c0.1,0.2,0.2,0.4,0.4,0.6
	c0.2,0.1,0.5,0,0.7,0c0-0.1,0.1-0.2,0.1-0.3c0.1-0.1,0.3-0.1,0.5-0.2c-0.3,0-0.6,0-0.8,0.1c0.1-0.3,0.4-0.3,0.6-0.5
	c0.1-0.2,0.2-0.5,0.4-0.6c-0.3,0-0.5-0.1-0.8-0.1c0,0.2,0,0.4,0,0.5c-0.1-0.1-0.2-0.2-0.4-0.3C-212.2,399.5-211.3,398.3-210.5,397.1
	"/>
<path class="st0" d="M-220.4,397.5c1.1,0,2.1,0,3.2,0l0,0c-0.1,0.1-0.2,0.2-0.3,0.3c-0.1-0.1-0.1-0.2-0.1-0.3c-0.8,0-1.6,0-2.4,0
	c0.1,0.1,0.1,0.2,0.2,0.2c0.2,0.1,0.5,0,0.7,0c0,0.3-0.4,0.4-0.6,0.5C-220,398.1-220.2,397.8-220.4,397.5"/>
<path class="st0" d="M-225.2,397.8c0.2-0.1,0.5-0.1,0.7-0.1c0,0.1-0.1,0.3-0.1,0.4c-0.2,0-0.5,0-0.7,0.1
	C-225.3,398-225.3,397.8-225.2,397.8"/>
<path class="st0" d="M-219.5,398.8c0.1-0.2,0.1-0.3,0.2-0.5c0.1,0.1,0.2,0.1,0.3,0.2c0.1,0,0.1-0.1,0.2-0.1c0.1,0,0.1,0.1,0.2,0.1
	c-0.2,0.1-0.4,0.2-0.6,0.4c0.1,0.1,0.2,0.1,0.3,0.2c0,0.1-0.1,0.1-0.2,0.2C-219.3,399.1-219.4,399-219.5,398.8"/>
<path class="st0" d="M-203.4,398.4c0.2-0.1,0.4-0.1,0.6,0c0.3-0.1,0.6,0,0.9,0c-0.1,0.1-0.1,0.2-0.2,0.2c-0.1,0-0.2,0-0.3,0
	c-0.1,0.1-0.2,0.2-0.3,0.3c-0.2-0.2-0.4-0.3-0.6-0.4C-203.3,398.6-203.3,398.5-203.4,398.4"/>
<path class="st0" d="M-223.2,398.6L-223.2,398.6c0.2,0.3,0.4,0.5,0.6,0.8c-0.1,0-0.2-0.1-0.2-0.1c-0.2,0.2-0.5,0.4-0.8,0.4
	c0.1,0.2,0.1,0.3,0.2,0.5c-0.2,0-0.3,0-0.5,0c0-0.3,0.1-0.6,0.4-0.8c-0.2,0-0.4,0-0.5,0c-0.1,0-0.2,0.1-0.3,0.2
	c-0.1-0.1-0.2-0.2-0.2-0.3c0-0.1,0.1-0.3,0.2-0.4C-223.9,398.9-223.6,398.8-223.2,398.6"/>
<path class="st0" d="M-217.9,398.9c0.1,0.1,0.3,0.2,0.4,0.2c0,0.1-0.1,0.1-0.1,0.2c-0.2,0.2-0.6,0.1-0.7-0.1
	C-218.2,399.1-218,399-217.9,398.9"/>
<path class="st0" d="M-202.5,398.9c0.2,0,0.4,0.1,0.5,0.4c-0.2,0-0.5,0-0.7-0.1C-202.6,399.1-202.5,399-202.5,398.9"/>
<path class="st0" d="M-218.9,399.4c0.1,0,0.2,0,0.3,0c0,0,0.1,0.2,0.1,0.2C-218.7,399.7-218.9,399.6-218.9,399.4"/>
<path class="st0" d="M-234.4,400.5c-0.1,0.2,0.3,0.2,0.3,0C-234.1,400.4-234.3,400.4-234.4,400.5 M-235.9,399.6c0.2,0,0.5,0,0.7,0
	c0.1,0.2,0.2,0.4,0.3,0.5c0.1,0.1,0.3,0.1,0.5,0.2c-0.1-0.2-0.3-0.4-0.4-0.7c0.1,0,0.2,0,0.2,0c0.2,0.1,0.3,0.3,0.4,0.5l0.3-0.4
	c0.1,0.2,0.3,0.3,0.6,0.3c0,0.3,0,0.6,0,0.9c-0.1,0-0.2,0-0.2,0c0,0,0,0.1,0,0.1c0.1,0,0.2,0.1,0.2,0.1c0,0.2,0,0.3,0,0.5
	c-0.2-0.2-0.4-0.4-0.7-0.4c-0.1,0.2-0.3,0.3-0.4,0.5c0-0.1,0.1-0.2,0.1-0.3c-0.1-0.1-0.1-0.1-0.2-0.2c0,0,0-0.1,0-0.2
	c0,0,0.1,0,0.1,0c0.2,0,0.4,0,0.6,0c0-0.1,0.1-0.2,0.1-0.3c-0.1,0-0.2,0-0.4,0c-0.2-0.1-0.3-0.2-0.4-0.4l0,0c-0.4,0-0.8,0-1.1,0
	c-0.2-0.1-0.4-0.3-0.5-0.5c0.2-0.1,0.4-0.1,0.6-0.2C-235.8,399.7-235.9,399.6-235.9,399.6"/>
<path class="st0" d="M-232.2,402.3c0.2,0,0.3,0,0.5,0c0.1-0.1,0.1-0.3,0.1-0.4C-231.8,402-232,402.2-232.2,402.3 M-231.5,401.7
	c0,0,0,0.1,0.1,0.1c0.1,0,0.1,0,0.2,0c0,0,0-0.1,0-0.2L-231.5,401.7z M-231.9,401.3c-0.1,0.1-0.1,0.2-0.2,0.3c0.1,0,0.1,0.1,0.2,0.2
	c0.1,0,0.2-0.1,0.3-0.1c0-0.1,0-0.2,0-0.3C-231.6,401.3-231.7,401.3-231.9,401.3 M-232.2,400.6c-0.1,0.1,0,0.2,0.1,0.3
	c0.1-0.1,0.1-0.3,0.2-0.4C-232,400.5-232.1,400.5-232.2,400.6 M-231.9,400.7c0.1-0.1,0.4-0.1,0.4-0.3
	C-231.7,400.4-231.8,400.5-231.9,400.7 M-229.4,399.7c-0.1,0.1-0.1,0.1-0.2,0.2c-0.1,0-0.2,0-0.3-0.1c0,0.1-0.1,0.1-0.1,0.2
	c0.2,0,0.4,0.1,0.6,0.1c0.1-0.1,0.2-0.1,0.2-0.2C-229.2,399.8-229.3,399.8-229.4,399.7 M-232.4,399.6c1.2,0,2.5,0,3.7,0
	c0.4,0,0.9,0,1.3,0c0,0.3,0,0.5,0,0.8c-0.7,0-1.3,0-2,0c-0.6-0.1-1.2,0-1.8,0c0,0.2,0,0.4,0,0.6c-0.2,0-0.4,0-0.6,0
	c0,0.1,0,0.1,0.1,0.2c0.2,0,0.3,0,0.5,0.1c0.1,0.4,0.1,0.8,0,1.2c-0.2,0-0.4,0-0.6,0.1c0.1,0.1,0.1,0.2,0.2,0.3
	c-0.1,0.1-0.2,0.1-0.4,0.2c0.1,0.1,0.3,0.2,0.4,0.4c-0.3,0-0.6,0-0.8,0c0.1-0.1,0.3-0.2,0.4-0.3c0-0.3-0.3-0.5-0.4-0.8
	c0-0.3,0-0.6,0-1c0.1,0,0.1,0.1,0.2,0.1c0-0.3-0.1-0.5-0.2-0.7C-232.4,400.3-232.3,399.9-232.4,399.6"/>
<path class="st0" d="M-203.4,399.9c0.2-0.1,0.5-0.2,0.8-0.2c0,0.1,0.1,0.2,0.1,0.3c-0.2,0-0.3,0-0.5,0.1c0,0.1,0,0.3,0,0.4
	C-203.2,400.2-203.3,400-203.4,399.9"/>
<path class="st0" d="M-223.7,400.4c0,0.1,0,0.2,0.1,0.1C-223.6,400.4-223.6,400.4-223.7,400.4 M-223,400c0.1,0,0.2,0,0.4,0
	c0,0,0,0.1,0,0.2c-0.1,0-0.2,0.1-0.3,0.1c0,0.1,0.1,0.1,0.1,0.2c0,0-0.1,0.1-0.1,0.2c-0.1-0.1-0.3-0.1-0.4-0.2
	c0.1,0.1,0.1,0.1,0.2,0.2c-0.3,0-0.6,0.1-0.9,0c0.2-0.3,0.7-0.4,1-0.3C-223.1,400.2-223.1,400.1-223,400"/>
<path class="st0" d="M-215.7,399.9c0.2,0.3,0.4,0.7,0.6,1c-0.1,0-0.3,0.1-0.4,0c-0.3-0.2-0.3-0.5-0.4-0.8
	C-215.8,400-215.7,400-215.7,399.9"/>
<path class="st0" d="M-200.7,400c0.1-0.1,0.3-0.1,0.4-0.1c0.1,0.1,0.2,0.3,0.3,0.4C-200.3,400.3-200.7,400.4-200.7,400"/>
<path class="st0" d="M-219.4,400.5c0.1-0.2,0.2-0.3,0.3-0.5c0.1,0.2,0.2,0.3,0.3,0.5c0.2,0.1,0.4,0.1,0.5,0.2
	c-0.1,0-0.2,0.1-0.4,0.1c0.1,0,0.3,0,0.4,0c0,0.1,0,0.2,0,0.3c-0.2,0-0.4,0-0.6-0.1c0,0.1-0.1,0.2-0.1,0.3c-0.2-0.1-0.3-0.1-0.4-0.3
	c0.1,0,0.1,0,0.2,0c0.1-0.1,0.1-0.2,0.2-0.3C-219.1,400.6-219.2,400.5-219.4,400.5"/>
<path class="st0" d="M-218.9,400c0.2,0,0.5,0,0.7,0.1c-0.1,0.1-0.2,0.2-0.4,0.3C-218.8,400.4-218.9,400.2-218.9,400"/>
<path class="st0" d="M-195.6,400.4c0.3-0.1,0.5,0.1,0.8,0.2c0.2,0.1,0.4,0.1,0.6,0.1c-0.1,0.2-0.2,0.4-0.3,0.7
	c0.5,0.1,1,0.1,1.5,0.2c0,0.8,0,1.6,0,2.4c0,0.5,0,0.9,0,1.4c-0.9,0-1.9,0-2.8,0c0-1.4,0-2.8,0-4.2c0.1-0.1,0.2-0.2,0.3-0.3
	C-195.6,400.7-195.8,400.4-195.6,400.4"/>
<path class="st0" d="M-224.6,400.8c0.1,0,0.2-0.1,0.3-0.1c0.1,0.1,0.1,0.1,0.2,0.2c-0.1,0.1-0.2,0.1-0.3,0.2
	C-224.4,401-224.5,400.9-224.6,400.8"/>
<path class="st0" d="M-206.3,400.7c0.3,0,0.6,0,0.9,0c0,0,0,0.1,0,0.1c-0.2,0.1-0.5,0.1-0.7,0.2
	C-206.2,400.9-206.3,400.8-206.3,400.7"/>
<path class="st0" d="M-239.3,400.8c0.2,0.1,0.4,0.1,0.5,0.3C-239,401.1-239.3,401.1-239.3,400.8"/>
<path class="st0" d="M-238.5,400.9c0.1,0,0.2,0.1,0.3,0.1c-0.1,0.1-0.1,0.2-0.2,0.2C-238.4,401.1-238.4,401-238.5,400.9"/>
<path class="st0" d="M-238.6,401c0.1,0.1,0.1,0.1,0,0.2C-238.8,401.1-238.8,401-238.6,401"/>
<path class="st0" d="M-202.5,401c0.2-0.1,0.5-0.1,0.7,0c-0.1,0.1-0.1,0.2-0.2,0.4c0.3,0,0.5,0,0.8,0c0,0,0.1,0.1,0.2,0.2
	c-0.2,0.1-0.3,0.1-0.5,0.2c0.2,0,0.3,0,0.5,0.1c-0.1,0.1-0.2,0.1-0.3,0.2c0,0.1-0.1,0.3-0.1,0.4c-0.4,0-0.7,0.1-1.1,0.1
	c-0.3-0.1-0.6,0.1-0.9,0.1c-0.2,0-0.5-0.1-0.7-0.1c0.2,0.2,0.4,0.3,0.6,0.4c-0.1,0.2-0.2,0.4-0.4,0.5c0.2,0,0.3,0.2,0.3,0.4
	c-0.4,0-0.7,0-1.1,0c0-0.1,0-0.3-0.1-0.4c-0.1,0.1-0.1,0.3-0.2,0.4c-0.3,0-0.6,0-0.9,0c0.1-0.1,0.2-0.3,0.3-0.4
	c0.1,0.1,0.2,0.1,0.3,0.2c0.1,0,0.1,0,0.2,0c-0.1-0.1-0.2-0.2-0.3-0.4c0.3-0.4,0.5-0.7,0.8-1.1c1,0,2,0,2.9,0
	C-202.1,401.6-202.3,401.3-202.5,401"/>
<path class="st0" d="M-200.9,401c0.3,0,0.5-0.1,0.8-0.1c0.1,0,0.1,0.2,0.1,0.3c-0.2-0.1-0.5-0.1-0.7,0.1
	C-200.8,401.2-200.9,401.1-200.9,401"/>
<path class="st0" d="M-239.3,401.1c0.1,0,0.2,0.1,0.3,0.1c0,0.2-0.1,0.3-0.2,0.4C-239.2,401.4-239.3,401.3-239.3,401.1"/>
<path class="st0" d="M-229.2,401.3c0.4-0.4,1-0.3,1.5-0.3c0,0.3,0,0.5,0,0.8c-0.5,0-0.9,0-1.4,0c-0.1-0.1-0.1-0.2-0.2-0.3
	c0.1,0,0.2,0,0.4,0C-229,401.5-229.1,401.4-229.2,401.3"/>
<path class="st0" d="M-208.3,401.7c0.1-0.2,0.3-0.4,0.4-0.6c0.2,0.1,0.3,0.2,0.5,0.3c-0.2,0.2-0.3,0.3-0.5,0.5
	C-208,401.9-208.2,401.8-208.3,401.7"/>
<path class="st0" d="M-200,401.2c0.2,0,0.4-0.1,0.6-0.1c0.1,0.2,0.3,0.4,0.4,0.6c-0.2,0-0.4,0-0.6-0.1
	C-199.8,401.5-199.9,401.3-200,401.2"/>
<path class="st0" d="M-205.9,401.1c0.1,0,0.2,0,0.3,0c0,0.1,0,0.3-0.2,0.3C-205.9,401.4-205.9,401.3-205.9,401.1"/>
<path class="st0" d="M-234,401.7c0-0.1,0.1-0.2,0.1-0.3c0.1,0.3,0.3,0.5,0.5,0.6c0,0.1,0,0.2,0,0.3c0,0-0.1,0-0.2-0.1
	c0,0.1,0.1,0.3,0.1,0.4c-0.2-0.2-0.4-0.4-0.4-0.7c-0.1,0-0.3,0-0.4-0.1c0,0,0,0,0-0.1C-234.2,401.8-234.1,401.8-234,401.7"/>
<path class="st0" d="M-230.2,401.5c0.1-0.1,0.2,0,0.3,0c-0.1,0.1-0.1,0.3-0.2,0.3C-230.2,401.6-230.2,401.5-230.2,401.5"/>
<path class="st0" d="M-217.6,401.7c0.2-0.1,0.4-0.1,0.6-0.2c-0.1,0.2-0.2,0.3-0.4,0.4C-217.5,401.9-217.5,401.8-217.6,401.7"/>
<path class="st0" d="M-220.9,401.6c0.1,0.1,0.2,0.2,0.3,0.3c0,0.1-0.1,0.2-0.1,0.2c0,0-0.1,0-0.2,0C-221,402-221,401.8-220.9,401.6"
	/>
<path class="st0" d="M-208.7,404.9c0.1,0,0.2,0,0.4-0.1c0-0.1,0-0.2,0-0.3C-208.5,404.7-208.6,404.8-208.7,404.9 M-207.1,401.6
	c0.2,0.1,0.5,0.1,0.7,0.2c0.2,0.2,0.3,0.6,0.3,0.8c-0.1,0.2-0.3,0.4-0.4,0.6c-0.1,0-0.2,0-0.3-0.1c0.1,0.1,0.1,0.2,0.2,0.3
	c-0.1,0.2-0.3,0.4-0.4,0.5c-0.2,0-0.4,0.1-0.5,0.1c0.1,0.1,0.1,0.3,0.2,0.5c-0.2,0.2-0.4,0.5-0.5,0.7c-1.1,0-2.1,0-3.2,0
	c0.4-0.5,0.8-1,1.2-1.6c0,0,0.1,0.1,0.1,0.1c0.3,0.1,0.6,0.1,0.9,0.1c0.1,0,0.2,0.1,0.3,0.2c0.1,0,0.2,0.1,0.3,0.1
	c0.1,0,0.2-0.1,0.3-0.1c-0.2,0-0.3-0.1-0.5-0.1c0-0.1,0-0.2,0-0.2c0.3,0,0.6,0,0.9-0.1c0,0-0.1-0.1-0.1-0.1c0.2-0.1,0.3-0.1,0.5-0.2
	c-0.1,0-0.2,0-0.3-0.1c-0.1-0.1-0.1-0.3-0.2-0.4l0-0.1c0.1-0.1,0.1-0.2,0.1-0.3c-0.1,0-0.2,0.1-0.3,0.1c-0.2-0.1-0.4-0.1-0.6,0
	c-0.2,0.1-0.4,0.1-0.7,0c0.2-0.3,0.4-0.5,0.6-0.8c0,0.1,0.1,0.1,0.1,0.2c0,0,0,0.1-0.1,0.1c0.2,0,0.3,0.1,0.5,0.1
	c0.2-0.1,0.4-0.2,0.6-0.3c-0.1,0.2-0.1,0.3-0.2,0.5c0.2,0,0.3-0.1,0.4-0.1c0,0-0.1-0.1-0.1-0.2c0.1,0,0.2-0.1,0.2-0.1
	C-207.1,402-207.1,401.8-207.1,401.6"/>
<path class="st0" d="M-205.9,401.6c0.2,0,0.3,0.1,0.5,0.1c-0.1,0.1-0.2,0.2-0.3,0.4C-205.7,401.9-205.8,401.8-205.9,401.6"/>
<path class="st0" d="M-218.2,401.9c0.2-0.1,0.3-0.1,0.5-0.2c-0.1,0.4-0.3,0.7-0.5,1c-0.1-0.1-0.1-0.2-0.2-0.3
	c0.1-0.1,0.2-0.2,0.4-0.2C-218.1,402.1-218.1,402-218.2,401.9"/>
<path class="st0" d="M-234.6,401.9c0.1,0.3,0.4,0.3,0.6,0.3c-0.1,0-0.2,0.1-0.4,0.1c-0.1,0.3,0.3,0.6,0.1,0.9
	c-0.2-0.1-0.4-0.2-0.6-0.3c0.1-0.1,0.2-0.3,0.3-0.4C-234.6,402.3-234.6,402.1-234.6,401.9"/>
<path class="st0" d="M-217.4,402c0.2-0.1,0.3-0.1,0.5-0.1c-0.1,0.1-0.2,0.2-0.3,0.2c0.2,0.2,0.3,0.3,0.5,0.5c0,0.1-0.1,0.2-0.1,0.2
	C-217,402.6-217.2,402.3-217.4,402"/>
<path class="st0" d="M-239,402.3c0.1,0,0.2-0.1,0.3-0.1c-0.1,0.1-0.2,0.2-0.3,0.3c0,0,0.1,0.1,0.1,0.2c0.1-0.1,0.2-0.2,0.3-0.3
	c0.1,0.3,0.2,0.5,0.5,0.6c-0.1,0.1-0.2,0.1-0.3,0.1c0-0.1-0.1-0.2-0.1-0.3c0,0.2,0,0.3-0.1,0.5c-0.1,0-0.2,0-0.2,0
	c0-0.1,0.1-0.2,0-0.3c-0.1-0.1-0.3-0.2-0.4-0.3C-239.2,402.5-239.1,402.4-239,402.3"/>
<path class="st0" d="M-220.5,402.2c0,0,0.1,0,0.1,0c0.2,0.1,0.3,0.1,0.5,0.2c-0.1,0.2-0.2,0.4-0.5,0.4c0-0.1,0-0.2,0.1-0.3
	c-0.1,0-0.2,0-0.2,0C-220.5,402.4-220.5,402.3-220.5,402.2"/>
<path class="st0" d="M-198.6,402.2c0.8,1,1.6,2.1,2.4,3.1c-1.1,0-2.2,0-3.2,0c-0.3-0.5-0.7-0.9-1-1.4c0.1,0,0.3-0.1,0.4-0.1
	c0.1-0.2,0.2-0.4,0.3-0.5c-0.1-0.1-0.1-0.2-0.1-0.3c0-0.2,0-0.4,0-0.6c0.1,0,0.2,0.1,0.3,0.1c0.3-0.2,0.6-0.1,0.9,0
	C-198.7,402.4-198.6,402.3-198.6,402.2"/>
<path class="st0" d="M-234.2,402.6c0.1,0,0.2-0.1,0.2-0.1c0.2,0.1,0.3,0.4,0.4,0.7c-0.1,0.1-0.2,0.1-0.4,0.2c0,0-0.1,0-0.1,0
	c0-0.1,0-0.3,0.1-0.4C-234.1,402.7-234.1,402.6-234.2,402.6"/>
<path class="st0" d="M-236.6,402.6c0.2,0,0.3,0,0.5,0c-0.2,0.1-0.4,0.3-0.5,0.4c0.1,0.1,0.2,0.3,0.3,0.4c-0.4-0.1-0.8-0.1-1.2,0
	c0.2,0,0.3-0.1,0.4-0.3c-0.2,0-0.3,0-0.5,0.1c0-0.1-0.1-0.1-0.1-0.2c0.1,0,0.3,0,0.4,0.1c0.1-0.1,0.1-0.2,0.2-0.2
	c0,0.2,0,0.5,0.2,0.5c0-0.1,0-0.2,0-0.2c0.1,0.1,0.2,0.2,0.2,0.3c0.1-0.2-0.1-0.3-0.2-0.5C-236.8,402.7-236.7,402.6-236.6,402.6"/>
<path class="st0" d="M-221.2,402.6c0.2,0.1,0.4,0.2,0.4,0.4c-0.2,0-0.4,0-0.5-0.1C-221.3,402.8-221.3,402.7-221.2,402.6"/>
<path class="st0" d="M-203.6,402.8c0.2,0,0.3-0.1,0.5-0.1c0,0.1,0,0.3,0.1,0.4c0.1-0.1,0.2-0.3,0.2-0.4c0.2,0,0.5,0,0.7,0
	c0.2,0.2,0.4,0.4,0.6,0.6c0.4,0,0.7-0.2,1-0.3c0,0.2,0,0.4-0.1,0.7c-0.7,0-1.5,0-2.2,0C-203.3,403.6-203.3,403-203.6,402.8"/>
<path class="st0" d="M-220,402.9c0.1-0.1,0.3,0.1,0.2,0.2C-219.9,403.1-220.1,403-220,402.9"/>
<path class="st0" d="M-220.9,404.7c0.2,0.1,0.5,0.2,0.6-0.1C-220.5,404.6-220.8,404.5-220.9,404.7 M-221,404.1
	c0.1,0.1,0.2,0.2,0.3,0.3c0-0.1,0-0.3,0-0.4C-220.8,404-220.9,404.1-221,404.1 M-220.6,403.3c0,0.1,0.1,0.3,0.2,0.4
	c-0.1,0.1-0.1,0.1-0.2,0.2c0.1,0.2,0.2,0.3,0.3,0.5c0.1,0,0.2,0,0.3,0.1c0.1-0.1,0.2-0.2,0.2-0.3c0.1,0,0.2,0.1,0.4,0.1
	c-0.2-0.2-0.4-0.4-0.6-0.3c0-0.1,0-0.1,0.1-0.2C-220.1,403.6-220.3,403.3-220.6,403.3 M-219.4,402.9c0.2,0,0.4,0,0.7,0
	c-0.2,0.2-0.5,0.4-0.5,0.7c0,0.2,0.1,0.4,0.1,0.6c-0.2,0.3-0.3,0.6-0.5,0.9c-0.1-0.1-0.3-0.1-0.4-0.1c0.1-0.1,0.1-0.2,0.2-0.3
	c-0.1,0-0.1,0-0.2,0c-0.1,0.2-0.2,0.3-0.3,0.5c0.1,0.1,0.2,0.1,0.2,0.2c-0.3,0-0.5,0-0.8,0c0-0.1,0-0.2-0.1-0.2c0.2,0,0.4,0,0.5,0
	c0,0,0-0.1,0-0.1c-0.1,0-0.2,0-0.4,0c-0.2,0-0.3,0.2-0.4,0.3c-0.1-0.1-0.2-0.2-0.3-0.3c0.1,0,0.2-0.1,0.2-0.1
	c-0.3,0.1-0.4-0.1-0.5-0.3c0.1-0.2,0.2-0.4,0.4-0.5c0.2-0.1,0.5-0.2,0.7-0.3c-0.1-0.3-0.4-0.4-0.6-0.6c0.2,0,0.5,0,0.7,0
	c0-0.1,0-0.2-0.1-0.3c0.3,0.2,0.3,0.6,0.6,0.8c0.1,0,0.1-0.1,0.2-0.1c0,0,0,0.1,0,0.2c0.1,0,0.2,0,0.3-0.1c0-0.1-0.1-0.2-0.1-0.3
	c0-0.1,0.1-0.1,0.1-0.2c0.1,0,0.2,0,0.3,0C-219.2,403.1-219.3,403-219.4,402.9"/>
<path class="st0" d="M-209.3,402.9c0.2,0.1,0.5,0.2,0.7,0.1c0.1,0.2,0.3,0.3,0.5,0.3c0,0-0.1,0.1-0.1,0.1c0,0.1,0.1,0.1,0.1,0.2
	c-0.2,0.1-0.3,0.1-0.5,0.2c0-0.1,0-0.2,0-0.3c-0.3,0.1-0.7,0.2-1.1,0.2c0.1-0.2,0.1-0.3,0.2-0.5C-209.4,403.1-209.3,403-209.3,402.9
	"/>
<path class="st0" d="M-238.5,403.2c0.1-0.1,0.3-0.1,0.4-0.1c0.1,0,0.2,0,0.3,0c0,0.1,0,0.1-0.1,0.2
	C-238.1,403.3-238.4,403.4-238.5,403.2"/>
<path class="st0" d="M-236,403.3C-236,403.3-236,403.3-236,403.3L-236,403.3L-236,403.3z"/>
<path class="st0" d="M-221.2,403.4c0.1,0,0.2,0.1,0.3,0.1c0,0.1-0.1,0.2-0.1,0.3c-0.1-0.1-0.3-0.1-0.4-0.2
	C-221.3,403.5-221.3,403.4-221.2,403.4"/>
<path class="st0" d="M-219.1,403.7c0.1-0.1,0.2-0.1,0.3-0.2c0,0,0.1-0.1,0.1-0.1c-0.1,0.2-0.1,0.4-0.2,0.6
	C-219,403.9-219,403.8-219.1,403.7"/>
</svg>
