<svg xmlns="http://www.w3.org/2000/svg" width="2057" height="418" viewBox="0 0 2057 418">
  <defs>
    <style>
      .cls-1 {
        fill: #fff;
        fill-rule: evenodd;
      }
    </style>
  </defs>
  <path class="cls-1" d="M1054.04,0c6.82,0.941,13.69,1.632,20.45,2.894,6.46,1.206,12.79,3.073,19.22,4.5a50.509,50.509,0,0,0,5.76.473c17.15,1.774,32.96,7.855,47.9,16.016,3.41,1.861,6.47,4.088,10.23,5.613,4.07,1.645,7.15,5.587,10.87,8.242,3.95,2.824,8.47,4.918,12.17,8.016,17.45,14.61,30.46,32.511,38.17,53.975,2.67,7.418,5.28,15.11,6.13,22.873,1.72,15.7,3.25,31.544,3.01,47.3-0.53,33.963-8.91,65.924-29.7,93.445-8.07,10.692-17.8,20.183-27.22,29.786-2.75,2.808-7.21,3.862-10.58,6.174-5.51,3.784-10.38,8.683-16.23,11.754-7.77,4.076-15.12,9.711-24.86,9.033-2.54-.176-5.29,1.68-7.83,2.835-5.98,2.707-11.89,5.55-17.82,8.354-0.58.277-1.11,0.671-2.17,1.323,2.32,6.187,4.45,12.409,7.08,18.414,0.5,1.151,2.94,1.981,4.52,2.045,5.82,0.237,11.68-.153,17.49.187,3.12,0.182,6.17,1.448,9.28,2.065a7.467,7.467,0,0,0,3.25-.184c2.74-.722,5.39-2.109,8.15-2.337,7.27-.6,14.58-0.966,21.88-0.942,3.84,0.012,7.68,1.036,11.25,1.563,10.78-4.407,21.78-3.085,32.26-1.777,2.61-1.071,5.23-1.616,7.18-3.054,3.58-2.626,7.24-5.391,10.02-8.784,8.8-10.706,17.2-21.748,25.82-32.6a16.59,16.59,0,0,1,3.28-2.511c0.37,1.268,1.21,2.6,1.05,3.8-1.38,10.1-2.99,20.159-4.43,30.247-2.83,19.823-5.4,39.685-8.49,59.468-0.95,6.146-3.2,12.092-5.21,19.408-5.56-.531-11.41-1.319-17.28-1.56-3.28-.135-6.6.986-9.89,0.894-2.65-.075-5.86-0.372-7.78-1.888-4.31-3.4-8.19-3.374-12.54-.58a7.939,7.939,0,0,1-3.55,1.441c-13.69.717-27.39,1.58-41.09,1.823-6.38.113-12.78-1.168-19.18-1.556-2.27-.137-4.84,1.294-6.83.647-8.1-2.637-15.78.437-23.65,0.8-9.23.43-18.54-1.07-27.82-1.34-3.37-.1-6.76,1.245-10.14,1.29-1.07.014-3-1.982-3.11-3.185-0.56-6.327-.87-12.694-0.9-19.048-0.08-21.316-.17-42.635.11-63.948,0.07-5.355,1.53-10.692,2.44-16.625-2.2-1.687-4.04-8.127-2.23-11.517a5.539,5.539,0,0,1,3.51-2.228,110.773,110.773,0,0,0,37.52-14.435c1.52-.94,3.93-0.455,5.92-0.631,0.11,0.516.23,1.031,0.34,1.546,6.41-7.989,13.15-15.746,19.14-24.042,4.54-6.3,8.04-13.345,12.19-19.938,3.42-5.437,7.25-10.624,10.64-16.08a13.79,13.79,0,0,0,1.63-5.663c0.71-6.821,1.23-13.664,1.78-20.5,0.23-2.849.36-5.706,0.54-8.559,0.11-1.763.26-3.524,0.36-5.288a90.6,90.6,0,0,0,.44-9.862c-0.21-3.75-1.03-7.462-1.48-11.2-1.28-10.692-2.56-21.385-3.72-32.091-0.35-3.223.1-6.572-.55-9.713a62.206,62.206,0,0,0-3.85-12.714c-2.59-5.867-5.87-11.425-8.77-17.159-9.62-19-22.37-35.034-41.95-44.663-6.08-9.013-16.8-5.693-24.89-9.339-2.93-1.318-5.88-2.583-8.84-3.836a3.392,3.392,0,0,0-1.85-.442c-7.93,1.918-15.65-1.25-23.36-1.122-34.306.569-67.467,5.036-94.232,30.139a69.344,69.344,0,0,0-8.826,10.177c-10.216,14-16.023,29.651-20.5,46.226-2.7,10.009-2.3,20.19-4.234,30.159-1.535,7.907-3,15.833-4.19,23.795-0.237,1.58.719,3.45,1.449,5.037,1.4,3.042,3.955,5.84,4.419,8.977,3.783,25.6,11.666,49.662,27.671,70.239,6.652,8.552,15.32,15.531,23,23.3,2.982,3.017,5.718,6.277,8.654,9.342,1.689,1.762,3.2,3.179,6.363,2.36,2.776-.719,6.089-0.005,9.028.671,6.145,1.415,12.15,3.45,18.309,4.781,3.657,0.79,5.22,2.6,4.917,6.177-0.347,4.085-.764,8.164-1.264,13.439a51.865,51.865,0,0,1,1.2,8.049c0.184,9.659.1,19.323,0.028,28.985a24.557,24.557,0,0,1-.691,5.9c-0.887,3.441-1.922,6.7.131,10.2,0.761,1.3.6,3.235,0.574,4.876-0.215,11.976-.617,23.949-0.693,35.925-0.02,3.2-1.187,4.165-4.132,3.878-5.789-.563-11.947,1.07-17.135-3.112A3.106,3.106,0,0,0,974.2,415c-3.826,2.785-7.831,1.255-11.929,1.158-5.824-.137-11.666,1.193-17.516,1.355q-17.084.474-34.181,0.221c-2.14-.035-4.251-1.786-5.046-2.144-9.27.562-17.512,1.307-25.768,1.507-12.583.3-25.176,0.23-37.764,0.328-0.49,0-1.191.379-1.435,0.168-4.7-4.078-9.648-1.344-14.6-.841-1.9.193-3.96-1.147-5.783-.864-3.038.341-6.283,1.455-9.033,0.72-1.544-.413-2.9-3.782-3.258-6-2.012-12.346-4.99-24.631-3.428-37.316a2.546,2.546,0,0,0-.286-1.883c-6.869-5.679-4.357-14.134-6.011-21.239-2.667-11.454-4.167-23.2-5.771-34.873-0.6-4.343-.1-8.836-0.1-14.492,1.52,1.865,2.4,2.907,3.24,3.982,9.3,11.94,18.74,23.77,27.827,35.867,6.528,8.692,15.926,10.116,25.617,11.076,7.232,0.716,14.691.391,21.655,2.118,5,1.239,9.171-.682,13.707-0.661q31.227,0.146,62.451.713c3.61,0.07,5.4-1.177,6.533-4.45,1.6-4.6,3.545-9.077,5.434-13.837-11.852-3.306-22.969-6.379-34.068-9.517-3.834-1.084-7.638-2.281-11.421-3.529-1.573-.519-3.725-0.883-4.466-2.048-3.26-5.121-9.37-3.793-13.629-6.493-1.242-.787-3.629-1.416-3.667-2.2-0.413-8.766-8.06-7.207-13.02-9.459a6.877,6.877,0,0,1-2.361-1.633c-4.642-5.4-9.248-10.736-15.767-14.144a22.878,22.878,0,0,1-7.961-6.3c-6.861-9.541-13.454-19.3-19.671-29.266-1.736-2.784-1.846-6.589-2.669-9.934-0.272-1.107-.04-2.75-0.718-3.282-7.955-6.242-8.09-15.924-9.477-24.3-5.137-31.042-5.467-62.195,2.232-93,1.44-5.759,3.892-11.27,5.956-16.866,1.52-4.12,4.01-6.8,8.969-5.881,1,0.186,2.159-.436,3.971-0.853a31.719,31.719,0,0,1-2.114-4.624c-0.306-1.12-.553-2.927.057-3.519,4.178-4.059,3.518-11.52,10.173-14,1.368-.509,2.41-3.61,2.477-5.555,0.164-4.724,2.481-8.121,5.5-11.328a162.284,162.284,0,0,1,55.587-38.133c3.285-1.39,7.222-1.235,10.854-1.815,0.89-.142,2.242-0.071,2.577-0.6,4.207-6.688,11.664-6.679,18-8.222,10.785-2.627,21.817-4.335,32.817-5.932,2.976-.432,6.339,1.716,9.294,1.244,3.221-.515,7.027,1.977,9.8-1.718,0.916-1.219,2.657-1.819,4.02-2.7h54ZM0,127.952c9.968-5.541,12.685-14.9,13.856-25.36,0.725-6.472,2.868-12.573,9.209-16.355-2.164-4.452-1.093-8.552,1.52-12.555C31.315,63.372,37.632,52.7,49.433,47.159c1.931-.906,4.134-1.307,5.932-2.4a45.605,45.605,0,0,0,5.83-4.642c2.079-1.792,3.777-4.48,6.166-5.372,6.94-2.592,14.138-4.5,21.245-6.639,6.26-1.886,12.423-4.45,18.825-5.429A338.857,338.857,0,0,1,142.02,19.1c9.1-.446,18.284.206,27.4,0.809C192.579,21.443,214.985,27,237.209,33.3c1.321,0.374,2.77,3.055,2.82,4.7,0.284,9.319.165,18.651,0.172,27.978,0.007,9.56,0,19.12,0,28.619a3.687,3.687,0,0,1-1.361.2c-8.042-9.236-15.6-18.952-24.26-27.563-4.3-4.273-10.409-6.96-16.059-9.6-16.278-7.594-33.128-11.892-51.506-10.992-9.911.485-18.987,3.639-28.474,4.9-7.736,1.027-12.986,6.52-20.217,8.2-3.042.706-5.217,5.209-7.752,8.017A94.854,94.854,0,0,0,73.057,95.08c-8.315,19.953-7.415,40.087-2.785,60.488a127.833,127.833,0,0,0,4.454,16.587c1.148,3.068,3.906,5.516,5.841,8.311,6.1,8.806,11.606,18.063,21.305,23.707,5.143,2.992,9.993,6.5,14.892,9.892a59.611,59.611,0,0,1,4.7,3.842c3.4-.11,6.166-0.364,8.916-0.257,8.9,0.345,17.786.89,26.683,1.221a118.376,118.376,0,0,0,11.9-.118c3.023-.191,6.549,1.015,8.254-3.453,0.53-1.388,3.851-1.527,5.581-2.7,1.6-1.083,3.973-2.8,3.951-4.21-0.159-10.188-.489-20.4-1.582-30.525a11.462,11.462,0,0,0-5.289-7.644,234.222,234.222,0,0,0-27.122-12.436c-5.626-2.108-3.408-6.086-3.613-9.42-0.237-3.864,3.127-2.638,5.155-2.643,18.78-.046,37.563-0.128,56.34.153,5.585,0.084,11.154,1.277,16.728,1.98,0.622,0.079,1.409.6,1.815,0.374,8.571-4.792,17.884-1.062,26.747-2.367a8.435,8.435,0,0,1,2.318.291c1.567,6.859.445,9.618-4.89,12.844-9.794,5.922-11.669,15.714-12.546,25.954-0.485,5.663-1.022,11.326-1.276,17-0.116,2.588.646,5.212,0.579,7.808-0.281,10.921-.723,21.837-1.109,32.755-0.392,11.067-1.2,22.138-1.09,33.2,0.181,18.659.943,37.312,1.448,55.968,0.048,1.788.006,3.578,0.006,5.363a5.15,5.15,0,0,1-1.518-.014q-6.528-14.931-12.98-29.894a7.112,7.112,0,0,0-.7-1.783c-4.113-4.866-9.4-9.146-12.085-14.691-2.357-4.877-5.611-7.766-9.783-10.313a25.163,25.163,0,0,0-5.162-2.588c-6.94-2.271-9.6-6.123-9.231-13.341,0.178-3.458-.075-6.938.064-10.4,0.138-3.424.523-6.839,0.867-11.079-6.286.9-11.9,1.966-17.559,2.458-8.94.777-17.91,1.269-26.878,1.66-2.389.1-4.816-.906-7.222-0.888A177.01,177.01,0,0,1,75.623,235.9c-3.265-1.171-5.991-3.82-9-5.727-2.636-1.669-5.411-3.131-7.974-4.9-6.446-4.453-13.494-8.33-19.016-13.747-5.865-5.754-10.771-12.693-15.133-19.712-4.263-6.861-6.222-14.705-8.361-22.647-2.684-9.961-3.1-21.807-13.259-28.714-1.1-.748-1.508-2.754-1.886-4.264C0.482,134.153.314,132.034,0,129.952v-2Zm1494.34,48.457c4.37-16.051,8.41-30.914,12.46-45.776,5.61-20.641,11.3-41.263,16.8-61.937a98.906,98.906,0,0,0,3.02-16.054c0.16-1.786-1.62-4.429-3.27-5.577a133.069,133.069,0,0,0-16.99-10.426c-8.38-4.108-8.59-3.89-7.86-14.339a34,34,0,0,1,3.77-.41c12.94-.026,25.87-0.089,38.8.075,2.19,0.028,4.36,1.126,6.55,1.651,1.19,0.285,2.81,1,3.58.5,5.52-3.548,11.61-1.877,17.47-2.184a72.349,72.349,0,0,1,10.49.031c2.01,0.188,5.6,1.256,5.62,2.007,0.1,3.626,2.04,7.942-3.21,10.342-5.89,2.688-11.43,6.139-17.13,9.232a29.165,29.165,0,0,0-14.74,18.592c-3.29,11.685-7.08,23.231-10.39,34.911-6.07,21.412-11.5,43.019-18.22,64.22a141.194,141.194,0,0,0-3.96,14.836c-1.25,6.236-4.13,12.137-6.15,18.232a38.983,38.983,0,0,0-1.27,6.288c-0.21,1.307.25,2.885-.32,3.94-6.28,11.52-4.97,24.965-9.48,36.943-1,2.67-2.14,3.717-4.93,3.562-6.82-.38-13.65-0.663-20.48-0.761-2.74-.039-5.53.877-8.24,0.644-1.52-.131-3.75-1.4-4.24-2.7-3.88-10.141-7.34-20.437-11.1-30.625-0.72-1.944-2.57-3.487-3.2-5.441-1.77-5.511-2.77-11.3-4.86-16.674-1.82-4.689-5.16-8.781-7.04-13.455-7.7-19.173-15.06-38.488-22.64-57.71-2.95-7.481-6.17-14.855-9.53-22.9-0.98,1.8-1.71,3.024-2.32,4.3q-21.105,44.2-42.21,88.413c-0.36.751-.54,1.789-1.14,2.192-7.37,4.942-6.79,13.371-9.36,20.475-1.35,3.729-4.23,6.9-6.42,10.329-0.49.769-1.46,1.6-1.38,2.309,0.91,8.179-4.65,14.138-7.39,21.015-0.41,1.036-4.28,1.326-6.36.943-4.72-.871-9.09-2.079-14.03,0-3.9,1.632-8.42-1.558-9.23-5.807-1.31-6.909-1.86-13.976-3.41-20.825-1.89-8.342-4.66-16.481-6.71-24.791-2.94-11.927-5.65-23.913-8.32-35.9-3.92-17.577-7.85-35.154-11.5-52.787-1.61-7.75-1.98-15.78-3.91-23.43-2.42-9.553-5.73-18.893-8.98-28.211a10.156,10.156,0,0,0-4.28-4.707c-8.11-4.859-15.49-11.029-24.88-13.662-2.88-.808-5.96-1.843-5.76-6.276,0.31-7.165.06-7.19,7.35-7.138,12.43,0.088,24.92-.521,37.28.483,13.68,1.112,27.18-1.5,40.83-.614,11.3,0.729,22.68.149,33.79,0.149a4.008,4.008,0,0,1,.84,1.049c1.71,11.817,1.97,8.908-8.21,13.908-1.03.509-2.22,0.713-3.28,1.181-16.51,7.284-18.4,11.629-14.2,30.274,4.15,18.444,7.98,36.962,11.87,55.465,0.46,2.191.35,4.5,0.59,6.739,1.4,12.731,7.82,24.205,9.72,37.2,0.69-1.171,1.47-2.3,2.06-3.52q12.615-26.327,25.19-52.676,15.645-32.685,31.3-65.365c3.28-6.87,6.5-13.769,9.56-20.741,1.17-2.675,2.81-3.747,5.72-3.587a109.463,109.463,0,0,0,11.49.013c3.36-.169,5.06,1.227,6.29,4.338,12,30.3,24.15,60.532,36.19,90.816,0.96,2.432,1.98,5.112,1.9,7.643-0.24,7.545,6.73,11.529,8.38,18.054a66.575,66.575,0,0,0,2.43,9.029c1.34,3.3,3.48,6.269,4.95,9.527C1490.19,165.889,1492,170.661,1494.34,176.409Zm402.21,57.468c-1.17,10.2-1.17,10.2-11.38,10.209-19.16.021-38.32-.021-57.48,0.088-12.74.073-25.47,0.369-38.21,0.541a23.93,23.93,0,0,1-2.76-.264c-1.99-9.435-1.79-9.721,5.71-14.245,4.7-2.833,9.24-5.917,13.85-8.9,4.88-3.159,7.6-7.206,8.01-13.436,0.41-6.156,2.86-12.149,3.71-18.31,0.48-3.419-.19-7.085-0.84-10.548-0.65-3.492-2.98-6.922,1.34-9.817,0.61-.408,2.43-3.208-1.26-3.355-0.53-.022-1.58-2.96-1.33-4.362,1.53-8.709-2.91-14.487-8.99-19.659-2.78-2.361-2.91-11.907-.35-14.428,0.71-.7,1.42-1.407,2.19-2.042,5.18-4.268,7.63-9.33,7.15-16.431-0.68-10.115-.06-20.311-0.22-30.469-0.09-5.992-.62-11.976-0.93-17.965-0.41-7.774-5.24-12.624-11.15-16.7-2.72-1.881-5.38-4.08-8.41-5.257-7.53-2.925-9.9-8.339-8.33-16.625h4.79c11,0,22,.311,32.99-0.11,6.02-.231,11.05,1.328,15.32,5.017,9.78-8.4,20.65-4.587,31.23-3.537a13.379,13.379,0,0,0,3.61-.313c1.58-.281,3.14-1.016,4.7-1.025,14-.079,28-0.256,41.99.051a159.492,159.492,0,0,1,21.29,2.058c2.81,0.442,5.31,2.613,8.03,3.817,2.46,1.087,5.1,1.764,7.52,2.931a19.274,19.274,0,0,1,5.21,3.526c1.6,1.606,2.32,4.384,4.12,5.449,7.94,4.673,10.75,12.1,11.21,20.513,0.69,12.43,1.78,25.017-3.54,36.882-2.21,4.944-4.46,9.343-9.37,13.091a27.073,27.073,0,0,1-10.55,4.883c1.68,4.291-.53,5.624-4.35,7.333-4.5,2.012-8.21,5.786-12.55,9.018,4.65,7.108,9.35,14.135,13.85,21.287,0.99,1.568,1.04,3.7,1.94,5.354a28.7,28.7,0,0,0,3.66,4.88c1.16,1.344,2.73,2.368,3.72,3.81,4.7,6.869,9.39,13.749,13.79,20.81,1.52,2.427,2.04,5.445,3.24,8.095,1.11,2.461.98,5.692,4.97,6.413,1.36,0.245,2.05,3.368,3.36,4.913,2.99,3.542,6.43,6.729,9.23,10.409,5.71,7.508,10.97,15.358,16.71,22.839,2.48,3.22,6.13,5.559,8.48,8.845,5.95,8.324,11.23,17.135,17.26,25.405a103.962,103.962,0,0,0,13.4,15.435c4.87,4.473,4.5,9.5,3.76,15.939-1.95-1.359-3.4-2.5-4.97-3.435-10.33-6.172-19.85-13.823-31.85-16.971-2.62-.688-4.9-2.638-7.37-3.957a33.341,33.341,0,0,0-4.48-2.169c-5.58-1.974-11.37-3.459-16.73-5.908-2.51-1.147-4.28-2.474-7.08-.928a4.115,4.115,0,0,1-3.74-.792c-3-2.949-6.99-.93-10.2-2.4-1.46-.669-3.85-1.06-4.21-2.117-2.78-8.293-10.2-12.867-14.98-19.461-9.56-13.186-18.5-26.838-27.29-40.56-4.14-6.467-9.99-12.147-10.82-20.425a2.841,2.841,0,0,0-.87-1.736c-12.93-10.889-19.22-26.583-28.9-39.821-1.67-2.281-3.08-4.751-4.66-7.1-5.9-8.723-5.9-8.717-6.15-20.9,4.86,1.162,9.72,3.158,14.66,3.358,18.04,0.728,35.51-12.277,40.56-29.536,4.27-14.587-4-30.434-18.27-36.265-6.65-2.714-13.41-3.119-20.31-4.108-4.96-.712-9.36.125-14.04,0.513-3.91.324-5.88,1.381-5.91,5.913-0.18,22.125-.69,44.248-1.12,66.371-0.23,11.8-.83,23.6-0.73,35.391,0.09,9.774,1.17,19.536,1.41,29.314,0.09,4.035-.86,8.1-1.34,12.146-0.09.812-.51,1.745-0.25,2.417,2.71,7.011,3.88,14.85,11.37,19.17C1883.95,225.574,1890,229.713,1896.55,233.877ZM520.308,22.243c1.613-.127,3.063-0.337,4.514-0.34,11.834-.025,23.669-0.123,35.5.024,10.451,0.129,20.9.812,31.346,0.772,18.008-.069,36.014-0.547,54.022-0.777,7.7-.1,15.413-0.178,23.107.092,2.668,0.093,5.263,1.533,7.954,1.9,8.1,1.094,16.206,2.45,24.349,2.806,13.111,0.573,23.968,6.717,34.417,13.464A112.4,112.4,0,0,1,754.57,56.1c3.532,3.611,5.331,8.871,8.142,13.241,6.542,10.169,8.639,21.608,9.857,33.326,0.1,0.964.5,2.191,0.077,2.868-3.157,5.045-.978,9.684-0.161,14.918,1.546,9.894,1.219,20.127-2.183,29.93-0.649,1.872-.048,4.2-0.777,6.018-3.621,9.03-6.779,18.348-11.406,26.855-17.976,33.052-48.482,48.475-83.281,56.9-9.5,2.3-19.605,2.355-29.462,2.815-12.236.57-24.5,0.619-36.754,0.638-6.255.009-12.515-.831-18.767-0.77-10.248.1-20.49,0.748-30.739,0.934q-17.973.328-35.952,0.142c-1.3-.015-3.706-1.821-3.68-2.743,0.085-3.09,0-7.719,1.852-8.947,6.323-4.2,13.329-7.451,20.293-10.575,5.536-2.484,8.546-6.581,9.1-12.316,0.687-7.105.807-14.263,1.234-21.394,0.551-9.195,1.319-18.379,1.7-27.579,0.309-7.43-3.03-13.206-8.586-18.1-6.337-5.58-6.1-11.852.08-17.3,6.522-5.742,8.816-12.56,8.077-21.546-0.7-8.541-2.371-17.529,1.48-26.005a6.176,6.176,0,0,0,.063-3.444c-0.982-5.151-2.269-10.249-3.091-15.423-1.185-7.468-4.205-12.961-12-15.714-6.062-2.141-11.642-5.684-17.333-8.792A4.473,4.473,0,0,1,520.4,31C520.123,28.234,520.308,25.42,520.308,22.243ZM603.869,199.4h0.378V207.4c0,7.286.774,8.252,8.28,8.437,9.393,0.233,18.795.114,28.192,0.225a87.037,87.037,0,0,0,30.319-4.9,62.122,62.122,0,0,0,29.108-20.926,99.281,99.281,0,0,0,17.175-34.865c1.908-6.9,1.3-14.489,1.84-21.767,0.848-11.53,1.423-23.116-3.643-33.912-4.353-9.278-8.235-19.079-14.291-27.182C692.9,61.364,679.386,57,666.892,52.274c-6.1-2.305-13.4-1.97-20.146-1.875-12.231.172-24.449,1.188-36.681,1.564-3.6.111-5.153,1.184-5.063,4.9a10.5,10.5,0,0,1-1.356,5.222c-3.83,6.672-1.29,14.074-2.249,21.073-1.022,7.445,2.258,15.368,2.339,23.1C604.058,137.3,603.869,168.352,603.869,199.4ZM422.848,24.745c3.872-.413,6.578-1.266,9.079-0.859,6.372,1.036,12.9,1.959,18.928,4.125,23.487,8.436,44.428,20.468,56.738,43.513a26.774,26.774,0,0,1,2.8,10.041c1.273,2.184,3.157,4.226,3.707,6.58,1.768,7.575,3.833,15.222,4.258,22.925,0.333,6.052,3.215,9.833,7.06,13.548,5.448,5.265,5.43,12.714,0,17.873a29.653,29.653,0,0,0-9.475,17.414c-1.188,7.245-2.811,14.763-8.528,20.514-1.479,1.488-1.426,4.49-2.1,6.79-0.755,2.577-.94,5.574-2.421,7.637a170.1,170.1,0,0,1-13.008,15.985c-1.793,1.947-4.859,2.667-7.162,4.217-2.088,1.406-3.9,3.217-5.892,4.772a9.648,9.648,0,0,1-2.123,1.017c-3.244,1.421-6.78,2.407-9.665,4.357-3.478,2.35-5.959,6.627-9.658,8.107-8.824,3.533-18.079,6.02-27.228,8.7a64.426,64.426,0,0,1-9.32,1.5c-1.468.2-3.516,0.891-4.352,0.205-4.666-3.831-9.2-1.074-13.79-.206-14.757,2.787-29.413.875-43.928-1.569-18.419-3.1-35.591-9.723-50.332-21.474a64.3,64.3,0,0,1-20.259-26.724c-1.913-4.81-5.282-8.857-3.877-14.806,0.484-2.046-2.5-4.784-3.551-7.352-1.466-3.6-3.608-7.315-3.666-11.009-0.124-8.024-3.688-13.857-9.242-19.033-4.435-4.134-4.468-12.447.258-16.274,6.191-5.013,8.332-12.128,10.785-19.1,1.632-4.636,4.027-9.473,3.89-14.156-0.238-8.12,2.628-13.961,8.223-19.5,2.494-2.47,3.167-6.767,4.708-10.216a2.845,2.845,0,0,1,1.13-1.591c7.073-1.617,7.6-11.262,15.158-12.341,0.577-.082,1.036-1.543,1.406-2.423,1.849-4.406,9.04-8.563,14.065-9.054a12.142,12.142,0,0,0,7.063-3.493c5.279-5.609,12.5-5.789,19.115-7.228a204.907,204.907,0,0,1,24.128-3.4c8.857-.843,17.764-1.4,26.656-1.51,3.474-.041,6.96,1.522,10.455,2.288,1.232,0.27,2.5.36,3.763,0.508C419.163,24.336,421.686,24.614,422.848,24.745ZM459.511,185q0.724,0.963,1.45,1.924c0.307-2.71.14-5.58,0.993-8.105,8.259-24.441,10.561-49.306,3.712-74.3-2.907-10.608-7.672-20.832-12.616-30.72-4-7.995-11.011-13.58-19.1-17.6-3.883-1.931-7.7-3.989-12.114-6.283a20.913,20.913,0,0,1-5.293.459c-15.214-1.913-30.387-3.458-45.313,1.759-13.31,4.652-25.1,11.68-31.629,24.6a109.985,109.985,0,0,0-11.577,53.153c0.5,19,4.016,37.179,12.758,54.332,11.369,22.308,29.794,32.772,54.217,33.449,6.583,0.182,13.215-.784,19.8-1.475,5.175-.543,10.6-0.684,15.371-2.472,4.118-1.544,7.645-4.939,11.1-7.906a134.8,134.8,0,0,0,12.166-11.695C455.855,191.436,457.511,188.063,459.511,185ZM1608.16,244.122h-85.72c-1.42-9.824-1.34-9.659,8.17-13.96,7.42-3.354,14.95-6.67,21.8-11a26.93,26.93,0,0,0,9.86-10.711c9.92-21.723,19.34-43.681,28.64-65.685,7.63-18.078,14.83-36.337,22.24-54.513,3.28-8.059,6.42-16.178,9.93-24.139,2.17-4.939,5.32-9.468,7.29-14.471,3.15-7.965,5.68-16.171,8.46-24.279,1.02-2.981,2.25-4.1,6.13-3.661,6.35,0.709,12.89-.206,19.34-0.664,3.7-.263,5.59,1.1,7.03,4.634,6.37,15.713,13.14,31.266,19.57,46.954,0.78,1.9.01,4.4,0.67,6.391a51.324,51.324,0,0,0,4.05,8.722c1,1.82,2.67,3.27,3.72,5.072,2.13,3.637,3.54,7.272-1.62,8.323,0.57,6.078,6.75,8.823,7,14.987,0.06,1.512,2.5,2.876,3.73,4.4,1.93,2.394,4.33,4.616,5.55,7.349,5.2,11.708,10.02,23.582,15.01,35.384,2.93,6.943,6.2,13.764,8.76,20.839,1.12,3.092.72,6.709,1.31,10.033,0.23,1.277,1.01,3.007,2.04,3.492,3.73,1.767,4.25,4.742,5.5,8.373,1.55,4.5,5.72,8.457,9.56,11.711a74.684,74.684,0,0,0,16.09,10.878c7.27,3.42,9.73,8.2,6.97,17.1-17.64,0-36.02,1.018-54.23-.287-18.13-1.3-36.16,1.759-54.38-.042V234.282c5.91-4.574,12.08-8.848,17.64-13.8,5.2-4.624,4.49-12.2-.4-17-2.03-1.99-3.18-4.912-4.6-7.481a34.968,34.968,0,0,1-1.72-4.151c-4.2-10.664-4.19-10.761-15.71-10.956-10.55-.18-21.1-0.166-31.65-0.152-9.58.013-19.16,0.246-28.74,0.156-3.11-.03-4.95.928-5.99,3.935-3.39,9.736-6.83,19.453-10.46,29.1-1.19,3.16-.62,5.439,1.97,7.412,3.83,2.925,7.46,6.164,11.51,8.725,3.47,2.19,6.22,4.2,5.05,8.923C1607.2,240.33,1607.85,241.907,1608.16,244.122Zm4.24-92.457h52.98c-8.88-21.322-17.48-41.991-26.09-62.66-4.29,10.92-10.58,20.31-14,31.081C1621.93,130.646,1616.96,140.691,1612.4,151.665ZM909.13,162.576c0.98-8,1.566-14.768,2.706-21.442,0.861-5.037,1.883-10.236,7.006-13.15a3.042,3.042,0,0,0,.978-1.627c4.185-12.18,15.452-15.853,25.562-20.251a61.4,61.4,0,0,1,21.428-4.9c9.654-.411,19.653-0.116,29.016,2.014A60.679,60.679,0,0,1,1023.38,117.1c9.98,9.076,14.62,20.405,13.77,34-0.55,8.706.12,17.57-1.25,26.125-2.43,15.22-10.08,26.983-25.24,32.906-3.28,1.282-5.79,4.431-9.01,5.966a57.007,57.007,0,0,1-28.574,5.36,166.8,166.8,0,0,1-32.227-5.124c-13.757-3.768-22.935-13.69-27.015-27.18C911.151,180.279,910.514,170.787,909.13,162.576Zm65.427-42.5c-2.535,0-4.048-.132-5.532.021-10.482,1.078-19.4,5.214-24.184,14.979-5.22,10.668-7.429,22.215-4.57,33.939,2.463,10.1,3.9,20.785,14.165,27.288,9.3,5.892,19,7.9,29.4,5.059,8.939-2.442,16.36-7.083,19.89-16.574,3.59-9.68,6.46-19.4,4.05-29.74-1.6-6.921-2.66-14.4-6.15-20.357C995.632,124.443,985.881,119.2,974.557,120.075Zm64.773-18.594c6.28,0.5,12.66,1.137,19.05,1.442,2.15,0.1,4.34-.961,6.51-0.938,8.13,0.084,16.26.446,24.4,0.6,3.3,0.063,6.6-.134,9.91-0.234a3.429,3.429,0,0,1,.94-0.235c7.97,4.217,15.78-2.18,23.77-.35,2.26,0.519,4.57.455,4.2,3.512-1.28,10.588-2.71,21.157-4.08,31.734l-1.35-.015a5.928,5.928,0,0,1-1.06-1.486c-3.26-10.922-11.56-13.692-21.7-13.38-5.8.179-11.6,0.555-18.08,0.876v26c11.91-1.176,25.67,6.879,33.6-9.138v40.051a4.784,4.784,0,0,1-1.59-.536c-3.77-7.729-9.86-10.558-18.35-9.425-4.33.578-8.81,0.1-13.87,0.1,0,9.739-.23,18.192.17,26.615,0.1,2.048,1.93,4.421,3.63,5.887,2.48,2.154,5.69,3.456,8.32,5.469a6.156,6.156,0,0,1,2.21,3.935c0.63,7.686.12,8.24-7.61,8.025-9.43-.262-18.86-1-28.29-1.044-5.24-.027-10.5.854-15.74,1.457-3.6.414-4.28-1.178-4.55-4.551-0.43-5.4.99-9.136,6.08-11.539,4.03-1.905,5.16-5.462,5.11-9.916-0.18-16.653-.03-33.31-0.01-49.966,0.01-5.237-.13-10.479.02-15.712,0.14-4.557-1.3-8.319-5.37-10.43C1038.79,114.759,1038.12,109,1039.33,101.481Z"/>
</svg>
