<?xml version="1.0" encoding="utf-8"?>
<!-- Generator: Adobe Illustrator 19.0.0, SVG Export Plug-In . SVG Version: 6.00 Build 0)  -->
<svg version="1.1" id="Layer_1" xmlns="http://www.w3.org/2000/svg" xmlns:xlink="http://www.w3.org/1999/xlink" x="0px" y="0px"
	 viewBox="0 0 1531.4 429" style="enable-background:new 0 0 1531.4 429;" xml:space="preserve">
<style type="text/css">
	.st0{fill:#FFFFFF;}
</style>
<path class="st0" d="M110.4,91.1c0,0-15.7,16.7-19,19.3c-3.3,2.7-18.7,9.7-24,12.3c-5.3,2.7-6.7,1.7-9.3,8.3
	c-2.7,6.7-11.5,29.5-13,39.3s-5.8,42.3-1.8,56s0.7,8.2,8.8,27s20.3,36.5,30.5,49.2c10.2,12.7,19.8,21.3,35,23.5
	c15.2,2.2,27.2,2.2,40-4.2c-2.5,21.8-6.8,53.2-7.5,59.3s4,12.8,8.2,12.3c4.2-0.5,14-8.2,18-13.5c4-5.3,27.7-43.8,28-45.8
	c0.3-2,7.2-142.8,7.2-145.2c0-2.3-1-2-4.3-2.2s-30.5-0.2-37.2,0.8c-6.7,1-24.5,13.2-28.7,16.7c-4.2,3.5-43,37.2-43,37.2l62.5-8.7
	l-1.2,50.3c0,0-6.7,9.5-27.7-14s-24.5-28.2-24.5-28.2l-10.9,1.5l7-7.1c0,0-10.4-9.9-10.8-25.5c-0.4-15.6,1.1-36.5,4.4-46.9
	c3.3-10.4,3.3-12.3,4.4-16.1s2.1-8.5,8.3-7.7c6.2,0.8,52.9,10.2,57.1,11c4.2,0.8,4.9,2.4,5.4,10.1s6.1,17.9,8.2,20.3
	c2.1,2.4,5.6,4.7,11-2.2c5.4-6.8,14.3-26.5,16.8-31.3c2.4-4.8,7.3-16.5,7.9-20.1c0.6-3.6,0.1-6.3-5.6-12.8
	c-5.7-6.4-23.6-16.2-46-20.8c-22.4-4.6-42.2-6.1-46.7-6.1S110.4,91.1,110.4,91.1z"/>
<path class="st0" d="M853.1,188.4c-4.9-13.4-12.6-22.9-23.5-34.9s-23.6-18.1-26-19.6s-6.6-4.5-18.1-2.6s-28.7,15-28.7,15v-10.5
	c0,0-36.8,0.3-39.3,0.1c-2.5-0.2-5.3-0.1-6.8,0.6c-1.4,0.7-16.9,12.1-16.9,12.1s-0.3-1.5-8.3-3.9c-8.1-2.4-60.1-8.8-67.6-8.6
	s-5.3-1.3-18.3,10.5c-13,11.8-27.2,14.9-29.5,16.2c-2.3,1.3-3.3,1.9-4,5.1c-0.2-4.5-3.6-9.1-7.6-13.3s-12.5-10-15.5-11.3
	s-78.7-17.3-80.2-17.3s-8.5,3.3-8.5,3.3s1.8-3.8,3.8-6.8s1-6.5-2.3-9.3s-5.8-1.8-8-1.8s-4.5,0.8-8.5,3.3s-22,23.5-22,23.5
	s-11,13.5-2.8,19.3s27.5,10,27.5,10s-11.8,14.3-16.5,27s-4.3,28.5-4.3,42.5s11,36.2,11,36.2s-2,3.5-5.5,4.3s-37.8-1.5-37.8-1.5
	l-1.3-185.2h-41.3c0,0-32.5,31-35,33s-1.8,3.5,0.5,3.5s32.3,0,32.3,0v38c0,0-5-6.8-9-12.3s-11.3-9.8-21.3-13.5s-22.5-5-31.3-4
	s-14.5,3.8-17.5,5s-29,24.8-29,24.8s-4,3.3-5.3,4.8s-9.5,15.3-13.8,33.3s-1.8,42.5,1.3,57.5c3,15,19,34.3,27.8,41.5s28,12,34,13.3
	s19,1,26-4.5s38-33.5,38-33.5l0.3-0.2V315c0,0,18,0,33,0s36.9,0.4,45-3.5s14.6-6.9,23.1-17.9c11.1,12.1,21.9,15.5,33.6,19.1
	s19.8,2.1,23.3,0.1s44.5-29.8,52.7-36.9s6.9-14.1,7.5-16.4c0.8,2.3,27.5,32.1,36.5,40.3s12.6,9.3,20,12.4s16.1,5.1,27.4,2.5
	s16.8-6.9,21.5-10.5s25.9-19.8,29.1-26.4s-0.1-9.8-1.9-12s-5.1-3-9.8-4.8s-9.5,3.3-17.9,9.6s-17.8,3.3-24.5,0.6s-25.3-21.7-29-25.4
	s-8.1-4.8-11.1-5.9s-2.3-2.8-0.6-2.8s57.1-1.4,67.5-4.1s16.8-7.5,21.6-10.4s-1.1-9.1-0.3-12s2.4-3,4.6-4.8s1.4-4.4-0.8-4.9
	s-9.6,3.1-9.6,3.1l18.6-30.5h8.1c0,0,0.1,137.9,0,143.2s1.6,5.5,2.9,4.9s42.8-19.3,42.8-19.3s0-107.6,0-109.9s-0.4-6,1.5-10.4
	s6.9-9.6,11.3-10.4s4.8,1.1,12.6,4.8s21.8,22.5,25.8,34s0.4,39.8-12.6,66.9s-24.4,33-27.1,44.1s7.4,14.6,11,15.4s9-0.8,17.8-10.3
	s27.8-32.5,47.8-62.1S858,201.8,853.1,188.4z M318.2,252.6c-0.5,6.8-2.8,12.2-4.8,15.2s-4.8,6.2-10.8,7.2s-12.2-3.3-16.2-5.3
	s-19.5-15.7-20.5-17c-1-1.3-5.5-6.7-6.8-9.3c-1.3-2.7-0.3-12.2,0-19.3s0.5-24.7,1.2-34.5c0.7-9.8,4.2-14.2,4.2-14.2s17.3,1.7,25,4
	c7.7,2.3,12,6.3,15.8,10c3.8,3.7,9.3,13.8,11.3,20.8S318.7,245.7,318.2,252.6z M528.6,224.5c-0.1,14.6-1.6,18.4-5.3,34.5
	s-15,14.6-22.7,11.6S479.1,258.5,473,247c-6.1-11.5-5.9-31.4-5.1-46.6s6.8-25.6,6.8-25.6s37.1,9.5,41.4,11.5c4.3,2,7.5,7.9,9.5,11.3
	S528.8,209.9,528.6,224.5z M600,206.2c0,0,3.2-23.2,3.5-25.7c0.3-2.5,0.3-4.7,3.3-4.5c3,0.2,47,5.7,51.3,6.5
	c4.3,0.8,6.7,1.3,6.8,3.8c0.2,2.5-1.5,14-1.5,14l17.5,5.8C673.5,212.6,600,206.2,600,206.2z"/>
<path class="st0" d="M1022,95.1c0,0-3.2,4.7-3.5,7.7s5.5,20.7,6.3,22c0.8,1.3,6.7,2.3,7.7,1.2c1-1.2,39.2-63,40.2-67.5
	s4.7-11.7-2.2-19.5s-15.5-17-31-20.3s-19.8-5-35.3-5.7s-42.5,0.3-46.2,1s-7.7,4.5-11.3,7.8c-3.7,3.3-23.8,29.3-27.5,34.2
	c-3.7,4.8-13,14.7-20.8,19.7c-7.8,5-18.7,10.7-22.8,17.8c-4.2,7.2-2.2,34.8-2.3,42c-0.2,7.2,0.3,36.7,5,43.2
	c4.7,6.5,20.3,25.3,38.8,35.5s53.5,32,73.7,47.2c20.2,15.2,20.2,25,21.5,30c1.3,5,2.7,11.2,2.7,18s1.2,26,1.2,26s-6,9.2-21,10.2
	s-44-0.7-62.8-14.8c-18.8-14.2-18-15.8-18-15.8s3-6.8,4.3-10.3s0.8-5.8-1-8.3s-4-5-7.5-7s-7.3,4.3-10,8.2s-31.5,49.8-34,55.7
	c-2.5,5.8,0.5,16,4.7,20.2c4.2,4.2,23.8,22.5,39.2,29.8c15.3,7.3,42.1,17.2,60,12.7c17.8-4.5,23.2-2.8,31-13.3
	c7.8-10.5,69.8-84.5,71.5-94c1.7-9.5,1.7-32,0.2-44.3c-1.5-12.3-13.3-38.2-30-56.8s-36.2-30.2-45.8-35.8c-9.7-5.7-52.2-32.2-57.7-37
	c-5.5-4.8-9-6.2-9.5-16.2s0-30.8,1.8-34.2c1.8-3.3,2.7-5,2.7-5s22.3-5.8,46.7,0.7C1005,86.1,1022,95.1,1022,95.1z"/>
<path class="st0" d="M1157.7,132.4c0,0-17.5,29.3-24.7,52.8s-10,36-8,44.7s4,14.5,6.5,18.5s15.3,25,31.2,34.8
	c15.8,9.8,19.5,11.2,29.7,9c10.2-2.2,9.5-6.5,9.5-6.5V167.6H1146l38.2-38.2c0,0,4.8-6.5,18.7-7.2c13.8-0.7,48.7,0,48.7,0v171.7
	c0,0,29,0.7,32.3,1.7c3.3,1-2.3,7.7-4.7,9.5c-2.3,1.8-8,20.7-10.7,23.5c-2.7,2.8-9,8.2-17,8.5c-8,0.3-50.2,1.7-50.2,1.7v-17
	c0,0-7.3,5.8-21.5,13.8c-14.2,8-26.2,8-37.3,3.2s-23.8-16.7-28.7-21.8c-4.8-5.2-29.2-35.8-34.2-51.2s-11-34.8-4.3-50.3
	c6.7-15.5,10.5-38,18-47.8c-17.8-0.2-36.3-0.5-40.5-0.8c-4.2-0.3-2.7-4.3,2.7-10.3s32.8-33.6,48-34.5S1146.6,120,1157.7,132.4z"/>
<path class="st0" d="M1346.9,132.4v-13h-53.7c0,0-22.8,28.7-25.8,31.5s-5.7,5.3-8,7.8c-2.3,2.5-3,5.8,6,5.2s30.5,0,30.5,0v181.8
	c0,0,30.8-19.7,48.5-26c0-25.8,1.8-127.8,2.5-133.2c0.7-5.3,5.2-18.3,10.3-23c5.2-4.7,11.7-3.7,17.5-0.2c5.8,3.5,15.2,6.3,26.8,26
	s12.8,23.2,12,31.8c-0.8,8.7-1.3,34.3-5.5,43.5s-18.8,47.3-31.8,63s-11.5,19.2-10.8,22.3c0.7,3.2,3.3,16.5,15.2,12.5
	s39-42.2,47.7-54.2c8.7-12,34-44.5,34.3-65.2s6.5-40.7-7.3-67.8c-13.8-27.2-27.3-40.8-39.8-50.5s-17.7-12-26.7-11.5
	S1346.9,132.4,1346.9,132.4z"/>
</svg>
