<?xml version="1.0" encoding="utf-8"?>
<!-- Generator: Adobe Illustrator 19.0.0, SVG Export Plug-In . SVG Version: 6.00 Build 0)  -->
<svg version="1.1" id="レイヤー_1" xmlns="http://www.w3.org/2000/svg" xmlns:xlink="http://www.w3.org/1999/xlink" x="0px"
	 y="0px" viewBox="-73.5 290.8 395.5 266.9" style="enable-background:new -73.5 290.8 395.5 266.9;" xml:space="preserve">
<style type="text/css">
	.st0{fill:#FFFFFF;}
</style>
<g id="グループ_1069" transform="translate(-488.454 -286)">
	<g transform="matrix(1, 0, 0, 1, 488.45, 286)">
		<path id="合体_16-2" class="st0" d="M243.3,552.8c0-2.8,1.7-5.2,6-5.2c4.4,0,6,2.4,6,5.2c0,2.8-1.7,5.2-6,5.2
			S243.3,555.6,243.3,552.8z M245.5,552.8c-0.1,2.1,1.6,3.9,3.7,3.9c2.1,0.1,3.9-1.6,3.9-3.7c0.1-2.1-1.6-3.9-3.7-3.9h-0.1
			c-1.9-0.2-3.6,1.2-3.8,3.1C245.5,552.5,245.5,552.6,245.5,552.8z M198.2,553.5v-5.6h2.2v5.6c0,1.4,0,3,2.9,3s2.9-1.7,2.9-3v-5.6
			h2.1v5.6c0,1.6-0.1,4.5-5,4.5S198.2,555.1,198.2,553.5L198.2,553.5z M163.2,554.6h2.3c0.1,1.3,1.2,1.9,3,1.9
			c1.3,0,2.5-0.4,2.5-1.5c0-2.4-7.6-0.3-7.6-4.4c0-2.2,2.1-3.1,4.5-3.1c1.6,0,4.7,0.3,5,3.1h-2.3c-0.1-0.8-0.8-1.6-2.6-1.6
			c-1.4,0-2.4,0.4-2.4,1.4c0,2.3,7.6,0.1,7.6,4.3c0,2.6-2.7,3.2-4.9,3.2C164.7,558,163.2,556.6,163.2,554.6L163.2,554.6z
			 M144.6,552.8c0-2.8,1.8-5.2,6-5.2c3.1,0,5.1,1.5,5.3,3.5h-2.3c-0.5-1.3-1.7-2.1-3.1-1.9c-2.7,0-3.7,1.6-3.7,3.7
			c-0.2,1.8,1.2,3.4,3,3.6c0.2,0,0.4,0,0.6,0c2.2,0,3.2-1,3.6-2.6h-2.9v-1.5h5.1v5.4h-1.5v-1.3c-1,1-2.5,1.6-3.9,1.6
			C146.4,558,144.7,555.6,144.6,552.8L144.6,552.8z M265.3,557.8c0,0,0-0.8,0-1.5c0-1.4-0.2-2.4-1.8-2.4h-3.7v3.9h-2.2v-9.9h6.5
			c2.6,0,3.5,1.2,3.5,2.7c0.1,1.1-0.6,2.1-1.7,2.4l0,0c1.2,0.2,1.5,1.3,1.5,2.7c0,0.5,0,2.1,0,2.1H265.3z M259.8,552.3h3.7
			c1.2,0,1.8-0.3,1.8-1.4c0-1-0.7-1.4-1.8-1.4h-3.7V552.3z M236.4,557.8v-8.3h-3.8V548h9.9v1.5h-3.9v8.3H236.4z M230.4,557.8
			l-1.1-2.4h-4.8l-1.1,2.4h-2.3l4.6-9.9h2.6l4.6,9.9H230.4z M225.1,553.8h3.5l-1.8-4.2L225.1,553.8z M211.4,557.8v-9.9h2.2v8.3h6.2
			v1.6H211.4z M193.2,557.8l0.1-8.2l0,0l-3.8,8.2h-1.8l-3.8-8.2l0,0l0.1,8.2h-2v-9.9h3.1l3.6,7.7l3.6-7.7h3.1v9.9H193.2z
			 M176.1,557.8v-9.9h2.2v9.9H176.1z M139.7,557.8l-6.2-7.4l0,0v7.4h-2.1v-9.9h2.5l6.1,7.4l0,0v-7.4h2.1v9.9H139.7z M125.9,557.8
			v-9.9h2.2v9.9H125.9z M117.3,557.8l-4.6-9.9h2.4l3.4,7.9l3.3-7.9h2.3l-4.5,9.9H117.3z M109,557.8v-9.9h2.2v9.9H109z M104.1,557.8
			c0,0,0-0.8,0-1.5c0-1.4-0.2-2.4-1.8-2.4h-3.7v3.9h-2.2v-9.9h6.5c2.6,0,3.5,1.2,3.5,2.7c0.1,1.1-0.6,2.1-1.7,2.4l0,0
			c1.2,0.2,1.5,1.3,1.5,2.7c0,0.5,0,2.1,0,2.1H104.1z M98.6,552.3h3.7c1.2,0,1.8-0.3,1.8-1.4c0-1-0.7-1.4-1.8-1.4h-3.7V552.3z
			 M83.6,557.8v-9.9h5.5c4,0,5,2.2,5,5c0,2.1-1,4.8-4.5,4.8h-6V557.8z M85.7,556.2h3c1.6,0,3.2-0.5,3.2-3.4c0-3.2-2.1-3.4-3.3-3.4
			h-2.9V556.2z M68.7,557.8v-9.9h2.2v8.3h6.2v1.6H68.7z M64.4,557.8l-1.1-2.4h-4.8l-1.1,2.4h-2.3l4.6-9.9h2.6l4.6,9.9H64.4z
			 M59.1,553.8h3.5l-1.7-4.2L59.1,553.8z M44.3,557.8v-9.9h8.9v1.5h-6.8v2.5h6.5v1.5h-6.5v2.8h6.9v1.5L44.3,557.8z M39.2,557.8
			c0,0,0-0.8,0-1.5c0-1.4-0.2-2.4-1.8-2.4h-3.7v3.9h-2.2v-9.9H38c2.6,0,3.5,1.2,3.5,2.7c0.1,1.1-0.6,2.1-1.7,2.4l0,0
			c1.2,0.2,1.5,1.3,1.5,2.7c0,0.5,0,2.1,0,2.1H39.2z M33.8,552.3h3.7c1.2,0,1.8-0.3,1.8-1.4c0-1-0.7-1.4-1.8-1.4h-3.7V552.3z
			 M15.1,557.8v-9.9H24v1.5h-6.8v2.5h6.5v1.5h-6.5v2.8h6.9v1.5L15.1,557.8z M9.9,557.8v-4.5H3.5v4.5H1.3v-9.9h2.2v3.8h6.4v-3.8h2.2
			v9.9H9.9z M-6.5,557.8v-8.3h-3.9V548h9.9v1.5h-3.9v8.3H-6.5z M250.6,523.3c3.3-10.7,6.7-17.5,16.8-17.5c10.8,0,8.9,8.2,6,17.5
			c-2.9,9.4-6,17.5-16.8,17.5C246.6,540.9,247.3,534,250.6,523.3L250.6,523.3z M258.5,523.3c-2.8,9.3-3.3,12.2-0.3,12.2
			c3.1,0,4.5-3,7.3-12.2s3.3-12.3,0.2-12.3C262.7,511,261.3,514,258.5,523.3L258.5,523.3z M188.9,532l0.7-2.2h7.4l-0.4,1.2
			c-0.8,2.6-0.7,4.5,2,4.5s4.1-2.1,4.7-4c2.2-7.3-13-3.2-9.1-15.8c1.6-5.4,5.8-9.9,13.7-9.9c7.6,0,9.1,4,7.5,9.2l-0.2,0.8h-7.4
			c0.5-1.1,0.6-2.4,0.4-3.6c-0.2-0.8-0.8-1.2-2-1.2c-1.9,0-3.4,1.2-4.2,3.6c-2.2,7,12.9,3.5,9.2,15.4c-2.3,7.7-7.4,10.7-14.4,10.7
			C191.3,540.9,186.7,539.1,188.9,532L188.9,532z M-9.3,524c3.4-11.1,6.3-18.2,17.1-18.2c9.9,0,8.1,7.1,6.9,10.9H7.3
			c0.7-2.2,1.5-5.6-1.3-5.6c-3.1,0-4.5,3.3-7.3,12.3c-2.8,9.2-3.3,12.2-0.2,12.2c2.6,0,4.2-2.5,5.7-7.1l0.3-1.1H1l1.6-5.3h10.7
			l-5.5,18.1H2.3l1-3.2H3.2c-1.9,2.6-5,4.1-8.2,3.9C-13.1,540.9-12.5,534.6-9.3,524z M127.3,529l6.9-22.6h7.6l-7.6,24.9
			c-0.8,2.6-0.3,4.2,1.8,4.2s3.5-1.6,4.3-4.2l7.6-24.9h7.7l-6.9,22.6c-2,6.6-5.4,11.8-14.3,11.8S125.3,535.6,127.3,529L127.3,529z
			 M234.8,540.2l8.1-26.3h-0.1l-13,26.3h-5.9l2.8-26.3h-0.1l-8.1,26.3h-6.8l10.4-33.8h11.2l-2.8,22.2h0.1l10.7-22.2h11l-10.4,33.8
			H234.8z M175.1,540.2l10.4-33.8h7.6l-10.3,33.8H175.1z M164.2,540.2c0,0,0.6-2.7,1.5-6.9c1.4-6,1-7.1-1.4-7.1h-2.9l-4.3,14h-7.6
			l10.4-33.8h12.8c6.5,0,7.4,4.2,6,8.8c-1.5,4.9-4.2,7.3-8,8.2v0.1c4.6,0.7,4,3.8,3,8.4c-1.4,6.7-1.9,8.2-1.9,8.2L164.2,540.2z
			 M163.2,520.6h2.3c3.1,0,4.6-2.4,5.3-4.4c0.8-2.5,0.4-4.3-2.6-4.3h-2.3L163.2,520.6z M107.1,540.2l8.4-27.3h-6.8l2-6.4H132l-2,6.4
			h-6.8l-8.4,27.3H107.1z M78.3,540.2l0.4-23.3h-0.1l-7.1,23.3h-6.8L75,506.4h8.8l-0.4,21.9h0.1l6.7-21.9h7.1l-10.4,33.8H78.3z
			 M54.4,540.2l0.8-6.4h-7.8l-3.1,6.4h-7.9L55,506.4h9.5l-2.3,33.8H54.4z M50.4,527.6h5.5l1.8-15h-0.1L50.4,527.6z M26.8,540.2
			c0,0,0.6-2.7,1.5-6.9c1.4-6,1-7.1-1.4-7.1H24l-4.3,14h-7.6l10.4-33.8h12.8c6.5,0,7.4,4.2,6,8.8c-1.5,4.9-4.2,7.3-8,8.2v0.1
			c4.6,0.7,4,3.8,3,8.4c-1.4,6.7-1.8,8.2-1.8,8.2L26.8,540.2z M25.7,520.6h2.4c3.1,0,4.7-2.4,5.3-4.4c0.8-2.5,0.4-4.3-2.6-4.3h-2.3
			L25.7,520.6z M-30.8,524.9c-28.9-19.9-55.3-59-36.2-117.6c20.5-62.7,80.4-106.2,163.2-115.1c19.2-2,41.2-1.2,48.8-1
			c1.8,0.1,2.4,0.8,1.6,3.2c-0.8,2.5-13.1,37.9-18.9,54.2c-5.3,14.8-16.4,19-37.6,19.4c-7.5,0.1-17,1.1-22.3,1.7
			c-42.1,5-87.9,27.9-102.2,66c-9.9,26.5-5.5,53,12.6,70.6c0.6,0.6,0.7,0.9,0.3,1.8c-1.4,3.5-5.6,14.5-6.2,15.8
			c-0.4,1-1.1,1.5-1.8,1.5C-30,525.3-30.4,525.1-30.8,524.9z M97.2,489.9c-1.5,0-1.8-0.7-1.3-1.9c5.3-16,39.3-112.3,40.3-114.5
			c1.7-3.9,3.3-7,9.1-7h24.1c15.2,0,30-3,37.2-23c0,0,16.8-46.2,17.6-48.7c1.2-3.3,2-3.5,4.8-3.5h90c2.8,0,3.6,0.6,2.6,3.4
			c-0.8,2.5-25.9,71.7-29.2,81.5c-0.6,1.4-1.9,2.2-3.4,2.2h-79.1c-13.4,0-13.9,0.1-19.1,15.9c-10.6,31.2-28.1,82-31.7,93.1
			c-0.5,1.6-1.3,2.5-2.8,2.5H97.2z M15.9,489.9c-1.2,0-2-0.8-1.5-2.3c3.1-9.5,15.1-42,18.8-52.2c5.8-15.9,19.3-25.2,33.1-25.2h38.1
			c2.1,0,2.7,1.6,2.5,3.1c-0.2,1.3-21.9,61.9-26,74.5c-0.3,1.4-1.6,2.3-3,2.1H15.9z"/>
	</g>
</g>
</svg>
