<?xml version="1.0" encoding="utf-8"?>
<!-- Generator: Adobe Illustrator 19.0.0, SVG Export Plug-In . SVG Version: 6.00 Build 0)  -->
<svg version="1.1"
	 id="Layer_1" xmlns:cc="http://creativecommons.org/ns#" xmlns:dc="http://purl.org/dc/elements/1.1/" xmlns:rdf="http://www.w3.org/1999/02/22-rdf-syntax-ns#"
	 xmlns="http://www.w3.org/2000/svg" xmlns:xlink="http://www.w3.org/1999/xlink" x="0px" y="0px" viewBox="0 311.5 612 169.1"
	 style="enable-background:new 0 311.5 612 169.1;" xml:space="preserve">
<style type="text/css">
	.st0{fill:#FFFFFF;}
</style>
<g>
	<path class="st0" d="M281.7,371.1c-8.5-5.9-17.5-3.2-17.5-3.2v55.2c8-0.1,13.1-2.1,18.5-5.5c6.1-3.7,12.2-13.8,12.2-23.6
		C294.7,384.2,290.2,376.9,281.7,371.1z M281.2,415.2c-4.8,2.9-8.9,4.5-14.1,4.9v-49.9c4.4-0.6,9.6,0.8,13.1,3.2
		c7.5,5.1,11.8,11.4,11.9,20.6C292,401.4,287.6,411.3,281.2,415.2z"/>
	<path class="st0" d="M283.3,360.2c-3-0.3-6-0.4-9-0.5c-1.6,0-3.4,0.1-4.9-0.1c-1.6-0.1-2.7-2.1-3.1-3.5l-0.8-3.2l-3.1,1.3
		c-1.9,0.8-4.1,2.3-5.7,3.7c-0.9,0.8-1.4,1.4-2.2,2.3c-0.4,0.2-1,0.5-1.3,0.7c-2.9,1.3-5.3,1.1-8.4,3.1l-6.6,4.1l7.7,1.1
		c0.4,0.1,1.5,0.4,1.7,0.7l0.4,25.5l-6.3,7.6c-2.7,3.2-9.7,10.2-14,10.7c-3.5,0.4-10.8,1-14.1-0.7c-1.8-0.9-2.5-1-2.6-3
		c-0.4-9.8,0-20.1,0-29.9c0-10,0-20.1,0-30.1l0-5.9l-4.6,3.6c-5,3.9-10.7,7.1-17,7.9l-12.3,1.7l11.8,3.8c0.6,0.2,2.5,1,2.7,1.7
		l1.4,75.4l4.9-5.6c2.5-2.8,6.3-8.8,10.5-8.7c5.2,0.1,13.6,6.1,19.7,7c4.2,0.7,11.1,0.1,15.2-1.2c3.5-1.2,3.4-3.5,2.7-6.4
		c-0.6-2.1-0.7-7.1-0.5-9.3c0.3-2.9,0.7-5.9,1.2-8.9l1.3-8.7l0.7,45.1l4.9-5.9c2.5-3,4.6-5.7,9.1-5.3c6.8,0.5,17.3,0.5,23.9-1.3
		c16.1-4.4,23.9-17,24.2-33.5c0.2-10.3-3-19.9-10.5-27.1C295.9,364.6,289.2,360.8,283.3,360.2z M243.1,424.2c0.4,1.3,1,2.3-0.8,2.9
		c-1.8,0.6-8.5,1.9-13.8,1.1c-5.3-0.8-14.6-6.9-20.1-7c-6-0.1-11.4,8-12.8,9.7v0l-1.3-68c-0.1-2.8-4.7-4.3-4.7-4.3
		c6.3-0.9,12.4-3.9,18.4-8.5c0,0-0.1,57.1,0,60.2c0.1,3.1,1.1,3.9,4.1,5.5c3.1,1.5,9,1.8,15.7,0.9c6.7-0.8,15.8-11.7,15.8-11.7
		s-0.8,5.4-1.2,9C242.2,417.5,242.8,422.9,243.1,424.2z M285.7,426.5c-5.4,1.5-15.8,1.7-22.9,1.2c-7.1-0.5-10.9,5.6-11.5,6.4
		l-1-64.2c0-2.9-4.1-3.5-4.1-3.5c3-1.9,5.3-1.6,8.1-2.9c3.3-1.5,1.5-1.1,4.1-3.4c2.7-2.3,5-3.2,5-3.2s1.3,5.2,5.6,5.6
		c2.1,0.2,7-0.1,13.9,0.5c7,0.7,25.2,8.9,24.8,32.7C307.4,419.5,291,425,285.7,426.5z"/>
	<path class="st0" d="M180.5,363.4c-2.4,1.5-4.1,3.9-7,5.6c-2.5,1.5-5.4,2.8-8,3.8l-2.8,1.1v-12.3l-3.4,0.6
		c-1.9,0.4-3.8,1.6-4.9,3.2c-1.1,1.6-2.1,2.7-3.9,3.7c-0.9,0.6-2.7,0.9-3.8,1.3c-2.2,0.6-4.2,1.4-6.1,2.8l-3.2,2.5l3.4,2.2
		c0.6,0.4,2,1.4,2.6,2.1v26.4c0,5-3.4,10.3-8.1,12.2c-2.1,0.9-6.2-0.4-8.1-1.4c-3.6-1.9-5.9-5-6.2-9.1c-0.2-2.3-0.1-5-0.1-7.3
		c0-4.7,0-9.4,0-14c0-7.2,0.1-14.5,0.1-21.7v-4.8l-4.2,2.3c-2.9,1.6-6.5,4.7-8.9,6.9c-1.3,1.2-6.5,2.6-8.3,3l-1.7,0.4
		c0-3.1,0-4.5,0-4.5l-0.1-8.4l-5.1,6.7c-2.2,2.9-6.3,6.6-9.8,7.6c-2.5,0.7-5.3,1.4-7.2,3.2c-0.2,0.1-0.3,0.3-0.5,0.4l-4.5,3.1
		l5.1,1.9c2.4,0.9,3.3,0.8,3.3,3.3l0.5,13.9c-0.5,6.5-7.6,14.4-14.2,14.9c-4.5,0.3-9.9-2.6-13.2-5.5c-8.4-7.3-12.5-19.3-14.5-29.9
		c-3.3-17.3-1.5-36.7,18.6-41.1c5-1.1,10.6-0.4,15,2.5c6.6,4.4,8.7,12.6,8.9,20.1l0.3,10.4l5.1-9.1c2-3.6,3.6-7.3,5.4-11
		c1.3-2.7,4-4.6,6.5-6.1l2.5-1.5l-1.6-2.5c-1.9-2.9-5.4-6.1-8.2-8.1c-7.6-5.3-16.6-7.4-25.8-7c-27.7,1.3-51.4,23.2-51.1,51.7
		c0.3,26.5,16,50.9,44.7,50.2c8.7-0.2,16.4-3.4,22.8-8.7c2.3,15,7.3,30.1,16.2,42.4c9.8,13.5,17.6,16.5,32.9,18.6
		c-10.6-5.3-15.5-9.8-20.5-20.8c-7.2-15.6-10.9-39-11-50c-0.2-15.3-0.3-25.7-0.4-32.3l1.3,0.5c0.6,0.2,2.3,1.1,2.9,1.7
		c0,6.9,0.1,21.8,0.5,30.6c0.5,12.4,9.1,20.5,21.5,21.1c6.9,0.3,14.6-3.1,20.6-7.5v8.1v9.3l5.2-7.7c3.4-5.1,7.9-9.6,14.1-10.8
		l3.8-0.7c0,5.6,0,9.4,0,9.5v9.7l5.3-8.2c3.1-4.7,7-8.1,12.4-10l1.9-0.7v-59.6l-2.3-0.4C183.6,362.1,181.8,362.6,180.5,363.4z
		 M118.4,476.1c-8.9-2.3-30.3-19.5-35.4-61.3l0-1.3c-5.5,5.9-13.8,11.5-25.1,11.8C31.2,426,16.4,403.5,16.1,378
		c-0.3-28.1,23.4-47.6,48.4-48.8c22.1-1,31.4,13.7,31.4,13.7c-3,1.8-6,3.9-7.6,7.3c-1.8,3.9-3,6.7-5.3,10.8
		c-0.7-23.8-17.3-27.5-27.3-25.3c-10.7,2.3-27,11.1-20.7,44.4c6.3,33.3,24.5,38.1,30.7,37.7c7.8-0.6,16.3-9.6,16.8-17.7l-0.5-14
		c-0.1-3.7-1.2-4.5-5.2-5.9l0,0l0,0c0,0,0,0,0,0c1.4-1,0.8-1.6,6.9-3.2c6.1-1.7,11.3-8.6,11.3-8.6s0.2,31.5,0.4,41.5
		C95.6,419.9,101.2,465.8,118.4,476.1z M147.6,431.9v-14.3v0c0,0-11.3,11.5-23.4,10.9c-17.2-0.8-18.6-15.4-18.8-18.4
		c-0.1-3-0.5-28.5-0.5-30.8c0-2.2-4.7-4-4.7-4s7.3-1.7,9.6-3.7c5.5-5,8.4-6.5,8.4-6.5s-0.2,40.4,0,43.2
		c0.8,11.5,13.7,14.7,18.2,12.9c4.5-1.8,9.9-7.4,9.9-14.8v-26.9c0-1.5-3.9-4-3.9-4c3.2-2.5,7.2-2.5,9.6-3.9c2.4-1.4,3.5-2.8,4.7-4.5
		c1.2-1.7,3.1-2,3.1-2v52l3.8,2.8C156.3,421.3,151.3,426.4,147.6,431.9z M167.9,419.6l-5.3-3.9v-39.1v0l2.4,1.4
		c0.7,0.4,2.6,1.8,3.1,2.6C167.8,385.6,167.9,406.1,167.9,419.6z M184.6,420.4c-6,2.2-10.4,5.9-13.8,11.1c0,0,0-48.8,0.1-51
		c0.1-2.2-4.5-5-4.5-5s4.7-1.8,8.5-4c3.8-2.2,5.8-4.9,7.1-5.7c1.3-0.8,2.6-0.6,2.6-0.6V420.4z"/>
	<path class="st0" d="M282.3,387.7c-1.2-3.6-4.9-3.6-6.9-0.6c-0.7,1-1.6,2.1-2.5,2.8c-1.9,1.4-5.7,1.6-5.5,5.3
		c0.2,3.3,3,3.2,4.2,4.7c1.6,1.9,2.4,4.8,5.6,4.8c3.1,0,4.5-3,5.8-5.3c0.5-0.5,1.2-1,1.8-1.2c3.3-1.2,3.4-6.1,0.1-7.6
		C284.4,390.2,282.6,388.4,282.3,387.7z M283.8,395.5c-0.8,0.3-1.6,0.7-3.1,2.1c-1.4,2.5-2.2,4.3-3.5,4.3c-1.3,0-2.1-2.2-3.4-3.8
		c-1.3-1.6-3.5-1.7-3.5-3c-0.1-1.3,3.1-1.9,4.4-2.9c1.3-1,2.3-2.3,3.2-3.5c0.8-1.2,1.5-1.2,1.8-0.1c0.4,1.3,3.1,4.1,4.1,4.5
		C284.8,393.7,284.6,395.2,283.8,395.5z"/>
	<path class="st0" d="M433.9,401.3c1.4-1.3,3-2.2,4.9-2.2c4,0,4.8,3,9.2,2.9c2.8-0.1,5-2,6.3-3.4l-4.7-9.5c-2.3-4.6-4.4-8-6.3-10.5
		C441.2,383.7,436.5,395.2,433.9,401.3z M447.1,390.3l3.8,7.6c-0.9,0.7-1.9,1.2-2.9,1.2c-3,0.1-4.7-2.7-8.9-2.9
		c1.6-3.9,3.2-7.8,4.9-11.7C445.1,386.4,446.2,388.4,447.1,390.3z"/>
	<path class="st0" d="M584.9,394.5c-0.1,0-0.2-0.1-0.3-0.1l1.7-6.7c1.3-5.1,4.6-8.6,9.2-11l3.2-1.7l-2.3-2.7
		c-6-7.1-17.1-11.2-26.2-11.1c-11.1,0.1-26,6.4-28.8,18.2l0,0c-1.1-11-11.4-18.6-22.1-19.2c-4.7-0.3-9.6-0.4-14.3-0.4
		c-0.6-0.6-1-1.3-1.4-2.1l-0.7-1.6l-1.7-0.1c-3.5-0.2-6.1,1.7-8.3,4.2c-1,1.2-2.9,3.5-4.5,3.8c-1.9,0.5-4.1,1.2-5.9,2.1l-4.5,2.2
		l6.5,4.3v45.6c-11-21.5-22-42.9-33-64.4l-2.5-4.9l-2.6,4.9c-3.2,6.2-7.5,11.6-13.3,15.6l-3.8,2.6c2.2-7.8,4.4-15.2,5.9-20.8
		c2.5-8.8,4.6-17.8,6.8-26.6l3.3-13.2l-8.3,10.7c-1.3,1.7-3.8,4.2-5.7,5.1c-1.9,0.9-5.6,2.2-6.9,3.8c-1.7,1.9-1.2,8-1.3,10.6
		c-0.3,4.7-1.2,9-2.2,13.6c-3.5,14.8-7.5,29.7-11.4,44.5c-10.7-26.5-21.3-52.9-32-79.4l-2.1-5.2l-3,4.7c-3.9,6.1-9,10.6-16.2,12
		l-7.6,1.5l6.7,3.8c3.4,1.9,3.8,3.2,5.2,7c1.6,4.4,3.4,8.9,5.2,13.2l-12.2,43.1l-33.7-84.9l-3,5c-1.4,2.4-4.5,6.6-6.9,8
		c-1.6,0.9-5.6,2.4-7.9,3.7c-0.8,0.2-1.4,0.6-1.9,1.3c-0.8,1.3-0.4,2.7,0.6,3.6c0.1,0.1,0.3,0.3,0.4,0.4c0.7,0.6,1.3,1.3,2,2
		c3,3.1,5.5,11.7,7,15.9c4.4,12.1,22.9,60.1,26.9,70c1.3,3.2,3.2,8,3.3,11.4c0.1,2.6,0.2,5.3,0.2,7.9l0.2,6.6l4.7-4.7
		c2.1-2.1,4.1-5.4,4.6-8.4c0.3-1.9,1-1.7,2.5-2.4c3-1.5,6.9-3.9,7.5-7.4c0.6-3.3-0.2-10.3,0.6-12.7c1.9-5.3,8.7-27.7,12.3-39.7
		c2.6,6.3,5.2,12.7,7.8,19c2.3,5.8,4.7,11.5,7,17.3c1.2,2.9,2.5,6,3.6,9c1,2.9,1.7,8.7,2.2,11.9c0.7,4.3,1.3,8.6,1.9,12.9l1.4,9.7
		l4.1-8.9c1-2.2,4.5-9.5,6-10.7c2.2-1.4,7.2-3.7,8.2-6c1.1-2.4,0-9.6,1-13.1c1.9-7,7.3-25.7,12.3-42.8l5.9,0.1
		c0.3,0.1,0.7,0.2,1,0.5c-2.5,7.5-5,15-7.7,22.4c-4.1,11.4-8.8,21.8-11.4,33.8l-1.9,8.7l6.7-6c2.4-2.2,5.6-4.5,8.9-5.3l2.2-0.5
		l0.1-2.2c0.2-4.6,0.6-9.3,1.3-13.8v0c0.1-0.7,1-4.1,2.1-4.1c2.4,0,5.3,4.2,9.5,4.3c3,0,7.1-2.7,10.2-5.1l16,32.6l2.8-4
		c2.1-3.1,5.9-7.8,10.2-7.3v9.5l4.9-4.7c3.3-3.2,7.2-5.2,11.8-5.6l2.6-0.3V425v-21.6c6.9,0.8,11.3,6.9,11.9,13.9
		c1.1,12.5,10.5,36.9,18,47.1c4.6,6.2,13.2,13.4,21.3,13.7l8.7,0.4l-6.8-5.5c-8.8-7.1-12.6-14.5-14.8-25.3c-2.2-11.1-3-23.1-7-33.7
		c-1.6-4.2-4.7-8.4-8.4-11.4c7.2-3.2,12.7-8.1,14.3-16c0.9,7.9,6.4,12.7,14.7,16c4.2,1.6,20.3,7.6,22,11.7c2,4.6-4.1,10.8-9.1,10.8
		c-7.4,0-10.6-4.2-8.4-11.2l0.7-2.2l-5.1-3l-1.6,1.6c-1.4,1.4-3.5,3.1-5.2,3.9c-1.5,0.7-3.9,1.1-5.5,1c-4.1-0.3-5.7,3.2-3.7,6.6
		c6.1,10.6,17.4,12.5,28.9,12.2c8.7-0.2,17.1-2.9,23-9.6c2.8-3.2,5.6-8.4,5.8-12.8C597.9,402.4,593.8,397.6,584.9,394.5z
		 M413.7,416.6c-1,3.5-0.4,11.6-0.9,12.7c-0.5,1.1-4.9,3.3-7.2,4.7c-2.3,1.5-7.1,11.9-7.1,11.9s-3.2-22.2-4.3-25.3
		c-1.1-3.2-21.4-53-21.4-53s-13.8,44.9-14.6,47.4c-0.9,2.4-0.2,10.5-0.7,13.1c-0.5,2.7-5,4.9-6,5.4c-1,0.5-3.4,0.9-4,4.5
		c-0.6,3.6-3.7,6.8-3.8,6.8c0,0,0,0,0,0l0,0c0,0,0,0,0,0c0,0-0.1-4.1-0.2-7.9c-0.1-3.8-2.2-9.1-3.5-12.4
		c-1.3-3.3-25.4-65.9-26.9-69.9c-1.5-4-4.1-13.3-7.7-16.9c-3.5-3.7-2.4-2.1-2.1-2.7c0.4-0.6,4.4-1.6,8.3-3.9c3.9-2.3,7.9-9,7.9-9
		l34.7,87.4l14.7-52.2c0,0-2.4-5.3-5.6-14c-2.2-6.1-3.5-6.8-6.5-8.5c6.9-1.4,13-5.4,18-13.3c11.7,29.1,23.5,58.3,35.2,87.4
		c0,0,12.2-46.8,13.6-53c1.5-6.2,2.1-9.6,2.3-14.1c0.2-4.5-0.1-8,0.6-8.9c0.7-0.9,3.9-2,6-3c3.3-1.6,6.7-6,6.7-6s-5.1,20.5-6.8,26.5
		C430.9,356.6,414.7,413.1,413.7,416.6z M472,434.4L456.6,403c-3.3,2.7-8.5,6.8-11.2,6.8c-3.2-0.1-5.9-4.3-9.6-4.3
		c-3.7,0-4.8,5.7-4.9,6.5v0l0,0c-1,6.6-1.3,14.1-1.3,14.1c-3.2,0.7-6.6,2.7-10.2,5.9c2.9-13,7.5-22.9,11.3-33.5
		c3.1-8.4,6.9-20.2,8.4-24.5c-2.6-2.2-4.2-2.2-4.2-2.2l0,0c6.1-4.2,10.7-9.9,14.2-16.6c12.1,23.6,24.1,47.2,36.2,70.8
		C480.6,425.1,476.2,428.3,472,434.4z M520.1,402c0,0,8.7,3.2,12.4,13c3.7,9.8,4.9,23.4,6.9,33.3c2,9.8,5.4,18.5,15.8,27
		c0,0-10.3-0.5-19.2-12.6c-8.9-12.1-16.7-36.9-17.5-45.7c-1.1-12-10-17.2-17.6-16.6V425c-5.1,0.5-9.6,2.7-13.5,6.4h0v-60.4l-3.6-2.4
		c0,0,2.7-1.3,5.3-1.9c2.6-0.6,4.9-3.5,6-4.8c1.1-1.2,3.1-3.4,5.9-3.2c0.7,1.7,1.7,2.9,2.8,3.8c0,0,10.1,0.2,15.3,0.5
		c5.2,0.3,19,4.4,19.5,17.8S529,399.3,520.1,402z M594.6,411.5c-0.2,3.7-4.8,19.2-26,19.7c-21.2,0.5-25.2-8.9-26.3-10.8
		c-1.1-1.9-0.3-2.4,1-2.3c1.3,0.1,4.4-0.1,6.9-1.2c3.1-1.4,6.1-4.5,6.1-4.5l1.2,0.7c0,0-4.8,14.9,11.2,14.9
		c8.5,0,14.1-9.5,11.8-14.8c-2.1-4.7-13.3-9.2-23.6-13.2c-10.4-4-13.7-9.8-12.9-18c0.8-8.2,11-17.8,26.3-17.9
		c15.4-0.1,24,10.1,24,10.1c-5.3,2.8-9.1,6.8-10.7,12.8c0,0-2.8-18.3-17.7-19c-16.2-0.8-14.9,14.6-9.5,17.4
		c3,1.5,16.3,7.9,27.5,11.8C595.3,401.1,594.8,407.8,594.6,411.5z M581.7,393.3c-8-3-16.4-6.7-23.9-10.5c-2-1-2.4-4.8-1.9-6.7
		c1.1-4.5,5.9-5.4,9.9-5.2c8.5,0.4,13.8,8.8,15,16.6L581.7,393.3z"/>
</g>
<g>
	<path class="st0" d="M507.8,370.5c7.5,0,12.9,3.4,13.9,12.2c0.6,5.1-2.2,10.1-7,12.1l-0.5,0.2l-0.1,0.1c-0.3,0.2-0.8,0.3-1.1,0.3
		c0,0,0,0,0,0c-3-1.1-6.9-2.4-9.2-3.1v-21.5c0.2-0.1,0.6-0.1,0.8-0.2C505.7,370.6,506.8,370.5,507.8,370.5 M507.8,367.7
		c-1.1,0-2.3,0.1-3.5,0.2c-0.2,0-0.9,0.1-1.5,0.3c-1.1,0.4-1.8,1.5-1.8,2.6v21.5c0,1.2,0.8,2.3,1.9,2.7c2.1,0.7,6.1,2,9.1,3.1
		c0.2,0.1,0.5,0.1,0.7,0.2c0.1,0,0.2,0,0.3,0c0.7,0,1.3-0.2,2.2-0.6c0.1-0.1,0.2-0.1,0.3-0.2l0.2-0.1c5.8-2.5,9.4-8.7,8.7-15
		C523.5,372.9,517.5,367.7,507.8,367.7L507.8,367.7z"/>
</g>
</svg>
