<?xml version="1.0" encoding="utf-8"?>
<!-- Generator: Adobe Illustrator 19.0.0, SVG Export Plug-In . SVG Version: 6.00 Build 0)  -->
<svg version="1.1" id="Layer_1" xmlns="http://www.w3.org/2000/svg" xmlns:xlink="http://www.w3.org/1999/xlink" x="0px" y="0px"
	 viewBox="0 0 300 220" style="enable-background:new 0 0 300 220;" xml:space="preserve">
<style type="text/css">
	.st0{fill:#FFFFFF;}
	.st1{fill:#B2B8C0;}
</style>
<g>
	<path class="st0" d="M179.5,58.3v13l9.2,3V50.6L179.5,58.3z"/>
	<path class="st0" d="M219.9,41.5c1.7,1.3,2.5,2.5,2.5,3.5v18.3v0.1l12-5.8l-0.6-6.1c-0.7-4.3-1.5-7.1-2.7-8.5
		c-1.1-1.3-3.8-2.2-7.9-2.8l-6-0.5L219.9,41.5z"/>
	<path class="st0" d="M222.9,120.6c-0.4-1.4-1.3-2-2.7-2c-4,0-6,1.5-6,4.3v50.2c0,1.5,0.3,2.9,1.1,4.1c0.7,1.4,1.8,2.3,3.1,2.4
		l0.5,0.1c1.5,0,2.7-0.5,3.4-1.4c0.5-0.8,0.7-2.1,0.7-3.8v-51.9L222.9,120.6z"/>
	<path class="st0" d="M176.6,123.7c-0.6-4.3-1.5-7.1-2.7-8.4c-1.1-1.3-3.8-2.1-7.9-2.7l-6-0.5l2.7,1.8c1.7,1.3,2.5,2.4,2.5,3.4v19.7
		l12-7L176.6,123.7z"/>
	<path class="st1" d="M56.5,104.9v-1V104.9L56.5,104.9z"/>
	<g>
		<path class="st0" d="M267.5,106.6c-6.8-3.6-11.3-7.3-13.8-11.1c-1.9-3.2-3.9-8.5-6-16.1l-2.6-10.4l8.9-4.6l-0.6-8.2
			c-0.7-6-1.8-10.6-3.3-13.8c-1.7-3.7-3.9-6.5-6.4-8.6c-2.4-2-5.7-3.6-9.8-4.8c-3.3-1.1-11.6-1.7-24.6-2H191l-0.2-4.6
			c-3.4,2.1-15.1,3.3-35.1,3.6l-28.9-0.3l-3.9,5c-3.1,3.4-6,5.7-8.7,6.7c-2.6,1.1-8.5,0.9-17.6-0.4l-12.9-2.4l0.6-1.3
			c0.5-1.1,1.2-2.1,2-3c2.6-2.8,6.2-4.1,10.7-4c-3.9-4.2-10.8-6.6-20.6-6.9l-10.2-0.1c-3.3-0.1-5.5-0.6-6.5-1.4
			c-2.2-1.6-4.3-4.2-6.3-7.9l-2.6-5l-2.1,4.8c-1.9,3.6-3.9,6.4-6.1,8.2c-2.1,1.8-7.4,2.6-15.9,2.1l-12.2-1.1l1.1,11.1
			c0.5,8.5,0,15.4-1.5,20.9c-0.7,2.6-2.5,5.7-5.4,9.2l-4.1,4.4l3.7,1c2.6,1.2,4.3,3,5.2,5.5c1.4,3.9,2.2,9.1,2.5,15.5l0.1,17.1
			c-0.1,7-0.1,12,0.2,15c0.4,4.6,1.4,7.7,3,9.2c1.9-8.5,6.7-14.4,14.5-17.5c4.1-1.7,9.4-2.5,15.7-2.5c0,3.9-1.8,9.7-5.4,17.3
			c-4.4,9.6-10.4,19.4-18.1,29.4c8.2-4.2,13.6-5.7,16.2-4.5c1,0.4,1.5,1.3,1.8,2.5l0.9,21.8c0,10.4-0.3,17-1,20
			c-0.7,3.2-3,6.5-6.9,9.9c-3.1,2.6-7.9,6-14.4,9.9c4.5,2.2,17.2,1.5,38-2.3l29.8-6.3l-2.7-2c-1.8-1.6-3-3.1-3.3-4.5l25.3-0.9
			c4.3-0.3,8-1.2,11.2-2.6l3.5-2l-5.7-3.2c-4-2.4-6.6-4.5-7.9-6.1c-1.3-1.6-2-3.3-2.3-5l-0.1-2l3.2,0.1c2.4,0.4,4.5,1.2,6.3,2.5
			c1.8,1.4,3.6,3.1,5.1,5.1l4.2,6.8c1.4-2,2.8-3.5,4.2-4.5c2.5-1.8,5.4-2.8,8.6-2.8h35.1c3.9,6.8,11.2,11.6,21.9,14.2
			c5.4,1.3,10.4,2,15,2l2.6,1.1c1.8,1.2,2.7,2.6,2.7,4.1l9.1-8.6c3-2.5,5.8-4.4,8.5-5.4c2.5-1.1,5.6-1.4,9.4-0.8l4.9,1.3v-31.8
			c0-3,1.6-5.5,4.9-7.6c1.7-1,3.3-1.7,5-2.1c-1.6-0.8-3.2-1.8-4.8-3.2c-3.2-2.7-4.8-5.5-4.8-8.3v-23.9l16.4,2.9
			c12.4,1.4,22,1,29-1.4C283.5,113.6,274.3,110.2,267.5,106.6z M189.4,36l0.5-1.8L205,44.9l0.1,0.1l-2.1,2.3c-1.4,2-2.2,3.9-2.2,5.7
			v41.2c0,2.1,1.2,4,3.6,5.7l3.5,2.1l-23.8,3.6l0,0l0,0l2.3-2.1c1.5-1.8,2.3-3.9,2.3-6.1V79.2l-12.6-4.3l3.4,1.3v15.1
			c0,2,0.7,3.7,2,5.2l2,1.8l-20.4-2l0,0l0,0l2.1-1.9c1.3-1.7,2-3.3,2-5.1V61.8c-1.5-1-3.3-1.7-5.4-2l0,0c0,0,0,0,0,0L187.5,39
			C188.3,38.3,189,37.4,189.4,36z M123.1,38.9c3.3-2.9,5.5-5.3,6.7-7.1l34.3-0.1c11.3-0.3,18.5-1,21.5-2.3l0,0c0,0,0,0,0,0h0.1
			c-0.8,2.9-2.9,6-6.1,9.3l-4.5,4.1h-16.4v49.3c0,2.9,1,5,2.8,6.6c0.9,0.8,1.8,1.3,2.7,1.4l-25.6,0.7h-0.1l0,0h0l3.1-1.8
			c2-1.8,3-4,3-6.6V42.8h-26l0,0l0,0L123.1,38.9z M120.8,95l2.1-1.4c0.2-0.2,0.3-0.3,0.5-0.5c0.1-0.1,0.1-0.1,0.2-0.2
			c0.1-0.1,0.2-0.2,0.2-0.3c0.8-0.9,1.1-1.8,1.1-2.8l0.2-33.3c0-1.1-0.7-2.6-2.1-4.2l-2.2-2.3h0l0,0l21.3-0.2c0,0,0,0,0,0h0
			l-2.3,2.1c-1.5,1.7-2.3,3.1-2.3,4.3v33.1c0,1.3,0.8,2.7,2.3,4.1l2.3,1.7L120.8,95L120.8,95L120.8,95L120.8,95z M93.4,43.3
			L93.4,43.3l1.4,3.8c0.8,3.6,1.3,8.1,1.3,13.5V81c0,2.3,0.2,3.9,0.5,5.1c0.4,1,1,1.8,2,2.2l1,0.4c1.2,0.4,2.1,0.2,2.6-0.4
			c0.4-0.5,0.7-1.4,0.7-2.7v-31c0-0.4,0-0.7-0.1-1.1c-0.2-1.1-0.7-2.1-1.4-3.1l-1.7-1.5l-1-0.5l24.2-2.1c0,0,0,0,0,0l0,0h0.1
			c-1.4,0.7-2.7,1.7-3.9,3.1c-1.8,2.2-2.7,4.7-2.7,7.3v32.6c0,4,0.8,7,2.3,9.1c0.5,0.8,1.1,1.4,1.7,1.7h-0.1L89.1,89.7
			c-1.8-0.7-3.3-1.8-4.4-3.3c-1.1-1.5-1.9-3.3-2.3-5.4c-0.4-2.1-0.6-7.3-0.6-15.6c0-4.3-0.3-8-0.7-11c-0.5-3.3-1.2-6.1-2.3-8.3
			l-2.3-3.8l-1.5-2L91.6,43L93.4,43.3z M53.9,116.5c1.4-4.2,2.1-8,2.5-11.6l0.1-2.4c-4.5-0.5-9.2-0.4-14.2,0.1
			c-10.1,1.1-16.8,4.1-20,8.9v-0.5c0.3-7.7,0.5-14.4,0.5-19.9c0-3.3-0.1-6.2-0.2-8.6c0-0.2,0-0.5,0-0.7c-0.4-6.6-1.3-11.6-2.7-15.1
			c-1-2.5-2.4-4.2-3.9-5.1c0,0,0,0,0,0s0,0,0,0c3.1-1.9,4.9-6.7,5.5-14.5c0.2-1.8,0.3-8.9,0.3-21.1l11,0.2l8.3-0.6
			c4.9-1,8.3-4.1,10.1-9.5l0,0c0,0,0,0,0,0l3.3,5.5c1,1.4,2.3,2.4,3.8,2.9l7.6,0.4l15.6,0.8h0.1c-3.8,1.5-6.1,5.2-6.8,11.3
			c-0.3,2.1-0.4,4.9-0.4,8.3l0.2,8.3H54.3v-0.1l0.1-7.3c0-4.8-0.2-8.3-0.7-10.7c-0.5-2.1-1.1-3-2-3c-3.6,0-5.9,1.5-7,4.6
			c-1.1,3.1-1.6,10-1.6,20.8c0,15.1,0.4,24.6,1.2,28.8c0.8,4.8,2.8,7.2,6,7.2h0.3c1.1,0,1.9-0.3,2.3-0.8c0.5-0.5,0.8-1.6,0.9-3.3
			l-0.1-22c0-2.1-0.8-3.9-2.5-5.5l-2.5-1.7h0l0,0h30.4h0.4c-1,0.4-1.8,1-2.7,1.7c-1.8,1.6-2.8,3.6-2.8,5.8l0.4,19.1
			c-0.1,6.1-0.7,11.3-2,15.4c-1.5,5.1-4.3,10.1-8.3,15.1c-4.3,5.3-10.5,11.3-18.8,18l0,0l-0.5,0.3c0,0,0,0,0,0l0,0
			C48.8,129.3,51.9,122.8,53.9,116.5z M112.6,192H77.3l2.9-2.3c1.8-2.2,2.8-4.9,2.8-8.2v-27.1c-0.8-0.1-1.6-0.1-2.4-0.1
			c-5.5-0.1-9.8,0.8-12.9,2.5h0c0,0,0,0,0,0c1.8,1.1,3.1,2.5,3.9,4.1c0.7,1.2,1,2.4,1,3.6v25.1c0,4.3,0.7,7.7,2.1,9.9l2.1,2.1
			l-37.1,7c-0.1,0-0.1,0-0.1,0c0,0,0,0-0.1,0h-0.1l-0.4,0.1c0,0,0,0,0,0l0,0c2.1-0.8,4.1-2.1,6.1-4.2c4.1-3.9,6.1-9,6.1-15.3v-39.2
			c0-2.4-1.2-4.1-3.5-4.9l-3.6-0.7l0,0v0l31-28.7l0,0l-1.4,2.8c-0.9,3.1-1.3,7.4-1.3,13.1v16.4L83,143v-39.7c0-3.2-0.7-5.8-2.1-8
			l-2.1-2.5l0,0l0,0l31.6,10.1c0,0,0,0,0,0l-4,3.9c-2.7,3-4.1,6-4.1,8.6v65.2c0,3.2,1.8,6.1,5.2,8.7
			C109.3,190.5,111,191.4,112.6,192z M131.8,176.2c-1.8,2.1-3.1,4.1-3.9,6.3v-0.1c0,0,0,0,0,0v0c-1.4-2.6-3.2-4.9-5.4-7.1
			c-4.2-4.2-9.1-6.3-14.5-6.3v-53.1c7.3,0,12.6-2,15.8-5.9c1.8-2.1,2.7-4.5,3-7.1c0,0,0,0,0,0c0,0,0,0,0,0c-0.1,2.5,0.7,4.8,2.3,6.9
			c2.2,2.8,5.7,4.5,10.5,5.2c1.6,0.2,3.3,0.4,5.2,0.4h0.1v28L123.4,155v13.3c0.5-0.9,1.4-1.8,2.5-2.9c2.3-2,4.9-3.3,8-4.1
			c3-0.8,5.9-2.2,8.6-4.2l3.3-2.9v0l0,0v0.1v15.5C140.2,169.9,135.6,171.9,131.8,176.2z M208.4,194.8l-10.4-1.6
			c-6.1-1.6-10.6-3.8-13.3-6.7c-0.4-0.4-0.8-0.8-1.1-1.3c-2.9-3.6-6.7-11.7-11.7-24.2l-6.7-17.6v27.4c0,1.7,1.5,3.5,4.3,5.4l4.3,2.3
			l-30.4-0.7h0h-0.1h0c0.3-0.1,0.7-0.2,1-0.4l0.1,0c1.1-0.4,2.1-1,3.2-1.6c2.9-1.7,4.2-3.7,4.2-5.9v-50.8c0-3.8-2.4-7.1-7-10.3
			c-0.2-0.2-0.5-0.3-0.8-0.5c-1.1-0.7-2.2-1.3-3.4-1.9c-0.2-0.1-0.5-0.2-0.7-0.3l-2.2-0.8h0h23.4h0h5.5c7.6,0,13.3,2,17.3,5.9
			c3,3,4.7,6.8,5.1,11.4c0.5,4.8,0.9,8.2,1.3,10.2l-11.3,7.1l3.1,13.4c2.5,10.1,4.9,18,7.3,23.7c2.3,5.7,6.3,10.3,11.7,13.9
			C203.8,192.9,206.3,194.1,208.4,194.8L208.4,194.8z M244.9,151.7c-2.4,1.4-3.6,3.2-3.6,5.5v27l-8.2,1c-2.7,1.1-5.4,2.6-8,4.6
			c-2,1.5-3.6,3-4.9,4.3l-2.4,3.8v0l-0.1,0.4c-0.7-3-2-6.3-4.2-9.5c-4.3-6.6-10.3-10.3-18.1-11.3v0v-25.3c0-3.2-1-6-3-8.2l-3-2.3h0
			l0,0l3-1.3c2-1.3,3-3.3,3-6.1v-23.2v0c7.3,1,13.3-0.7,18.1-5.3c2.4-2.3,4-4.7,4.8-7.2l1,2.4c0.8,1.9,1.9,3.7,3.1,5.4
			c0.1,0.2,0.2,0.3,0.3,0.5c4.6,6,11.1,9.5,19.4,10.9v0.1v24.3c0,2.4,1.1,4.4,3.2,6.1c1,0.8,2.1,1.4,3.2,1.7
			C247.4,150.6,246.2,151,244.9,151.7z M269.1,113.7C269.1,113.7,269.1,113.7,269.1,113.7C269.1,113.7,269.1,113.7,269.1,113.7
			c-5.2-0.8-10.1-1.8-14.5-3.2c-6.9-2.2-11.6-4.8-13.9-7.9c-2.8-3.6-6.7-10.4-11.6-20.1l-6.6-13.4v18.4c0,1.8,0.9,3.6,2.7,5.5
			l2.8,2.3l-23.7-0.7l0,0l0,0h-0.1l2.4-1.9c1.6-1.8,2.4-3.8,2.4-6V46.9c0-3.8-2.3-7.2-7-10.3c-1.5-1-3.2-1.8-4.9-2.7l-2.2-0.8h0
			h28.3h0h0.4c7.6,0,13.4,2,17.3,5.9c3,3,4.8,6.9,5.1,11.4c0.4,4.8,0.8,8,1.3,9.7l-10.6,5.2l2.7,9.4c2.3,7.5,4.6,14,7,19.7
			c2.3,5.7,7.2,10.7,14.7,14.9c3.8,2.1,7.3,3.7,10.4,4.7L269.1,113.7z"/>
		<path class="st0" d="M144.5,177.4L144.5,177.4C144.4,177.5,144.4,177.5,144.5,177.4L144.5,177.4
			C144.4,177.5,144.4,177.5,144.5,177.4z"/>
	</g>
	<path class="st0" d="M133,139.5v-17l-3.6-1c-2.7-1.1-4.7-3-6-5.5v0.1v28.5v0.1L133,139.5z"/>
</g>
</svg>
