<?xml version="1.0" encoding="utf-8"?>
<!-- Generator: Adobe Illustrator 19.0.0, SVG Export Plug-In . SVG Version: 6.00 Build 0)  -->
<svg version="1.1" id="Layer_1" xmlns="http://www.w3.org/2000/svg" xmlns:xlink="http://www.w3.org/1999/xlink" x="0px" y="0px"
	 viewBox="0 0 1000 363.8" style="enable-background:new 0 0 1000 363.8;" xml:space="preserve">
<style type="text/css">
	.st0{fill:#FFFFFF;}
</style>
<g>
	<path class="st0" d="M0,50.8c37.8,0,75.6,0,113.9,0c0,1.7,0.1,3.5,0.1,5.3c0,1.8,0,3.6,0,5.6c-0.9,0.4-1.8,1-2.6,1
		c-2.7,0.1-5.4-0.3-8,0.1c-5.1,0.7-10.2,1-14.9,3.8c-4.5,2.7-7.7,7-8.5,11.5c-0.2,1.2-1.1,2.2-1.7,3.4c0.1,0.2,0.5,0.5,0.9,1
		c-0.4,0.8-1,1.6-1.1,2.5c-0.4,10.2-1.7,20.4-1,30.6c0.2,3.1,1.3,6.1,1.8,8.7c1.8,0.6,3.1,1,4.5,1.4c0.5,0.1,1.2,0.3,1.4,0.1
		c1.8-1.8,3.5,0.2,5.2,0.1c1.8-0.1,3.7,0.1,5.5-0.1c1.4-0.1,2.8,2.4,4.2,0c1.4,0.3,2.7,0.8,4.1,1c1.6,0.2,3.3,0,5,0
		c1.5,0,3-0.1,4.5,0c4.6,0.3,9-1.7,13.6-1c3.8,0.5,7.7,0.8,11.9,1.3c0.5,0.4,1.2,1.1,2,1.9c2.6-0.7,5.5,1,8-1.1
		c2.6,1.4,5,0.9,7.7,0.1c2.6-0.7,5.6-0.1,9-0.1c-0.6,1-0.9,1.8-1.3,2c-2.4,1-5,1.1-7.6,1.1c-4.3-0.1-8.7,0-13-0.1
		c-1.7,0-3.6,0.7-5.1-0.9c-0.4-0.4-1.8-0.4-2.4,0c-2.3,1.5-4.7,0.9-7.1,0.9c-6,0.1-12,0.2-18,0c-3.9-0.1-7.6,1.5-11.6,1.1
		c-3.8-0.4-7.7-0.5-11.5,0.1c-2.5,0.4-5.3,1.5-7.6,0.7c-3.4-1.2-6.9-1.3-10.1-0.7c-5.1,1-10.1,0.7-15.1,0.8
		c-5.2,0.1-10.3,0-15.5,0.1c-1.4,0-2.6-0.2-3.5-1.5c0-7.5,0-15.2,0-23.1c1.1-1,2.3-2.1,3.5-3.2c4.7-0.5,9.5-1,14.2-1.5
		c0-0.1,0-0.3,0.1-0.4c-0.7-0.1-1.3-0.3-2-0.3c-3.2,0-6.3-0.2-9.5,0c-2.5,0.2-4.3-0.8-6.4-2.3c0-2.2,0.1-4.5,0-6.8
		c-0.3-6-1-12.1-3.1-17.7c-1.8-4.8-4.6-8.7-10-10.4c-2.7-0.9-5.5-1.3-8.2-2c-3.9-0.9-7.8-0.6-11.6-0.9c-1-0.1-2.1-0.6-3.1-1
		C0,58.2,0,54.5,0,50.8z"/>
	<path class="st0" d="M477,363.8c0.2-2.2-1.4-3.8-2.2-5.6c-1.1-2.4-3.5-4.2-4.4-6.7c-2.2-5.8-6.2-10.4-9-15.7
		c-3.6-6.9-8-13.4-11.9-20.1c-1.6-2.8-2.9-5.8-4.6-8.6c-3.2-5.2-5.8-10.7-9.4-15.6c-1.8-2.4-3-5.4-4.4-8.1c-4-7.9-9.6-14.9-13-23.1
		c-0.4-1-1.5-1.7-1.9-2.7c-0.2-0.6-1.8-1.3-0.2-2.2c-0.1-0.2-0.3-0.6-0.4-0.6c-2.3,0.1-2.4-2-3.1-3.2c-3.2-5.7-6.5-11.3-9.8-16.9
		c-2.2-3.6-4.2-7.3-6.4-10.8c-1.7-2.6-3.6-5.2-5-7.9c-4.3-8.1-10-15.4-14.1-23.6c-1.7-3.3-4.1-6.3-6.3-9.4c-1.1-1.7-0.9-3,0.8-4.1
		c0.6-0.4,1.4-0.7,2-1.1c0.4-0.3,0.7-0.7,1.1-1c5.4,0,10.7,0.1,16,0c2.4-0.1,4.7-0.8,7.1-0.9c2.5-0.2,5,0,7.5,0c0.8,0,1.6,0,2.5,0
		c3.2,7.3,6.3,14.5,9.5,21.6c2.8,6.2,5.8,12.3,8.4,18.5c3,7.1,6.2,14.1,9.1,21.2c3.3,8,6.4,16,9.9,23.9c1.4,3.2,2.9,6.5,3.8,9.9
		c1,3.3,3.6,5.9,3.6,9.5c4,6.6,5.9,14.2,9.1,21.2c2.4,5,4.3,10.2,6.4,15.3c0.2,0.4-0.2,1-0.2,1.1c0.9,1.2,2.5,2.3,2.5,3.5
		c0.2,3.3,2.8,5.5,3.3,8.7c0.4,2.8,2.5,5.3,3.6,7.9c2,4.7,3.4,9.6,5.9,14c0.5,0.9,0,2.5-0.3,3.6c-0.7,2.7-1.6,5.3-2.4,8
		C479,363.8,478,363.8,477,363.8z"/>
	<path class="st0" d="M0,228.8c3.3,0,6.7,0.2,10,0c3.2-0.2,6.4-0.8,10-1.2c2.1-1.3,4.6-2.7,7.1-4.4c2.2-1.5,3.3-3.8,5-6.8
		c1.9-3.4,2.2-7.1,3-10.8c1.4-6.1,0.2-12.1,1-18.4c3-1.5,6.4-2.8,10.2-2.3c5.3,0.7,10.4-1.1,15.6-1c5.2,0.1,10.3,0,15.5,0
		c1.1,0,2.3,0,3.1,0c-0.2,1.6-0.4,3-0.6,4.3c-0.2,1.2-0.6,2.4-1,3.6c-1.6,4.6-1.5,9.5-0.8,14.1c0.9,6.3,2.7,12.6,7.6,17.3
		c3.1,2.9,6.9,4.4,11,4.7c2.9,0.2,5.6,1.5,8.6,1.1c2.8-0.3,5.6-0.1,8.5-0.1c0,4.4,0,8.5,0,13c-38,0-75.9,0-113.9,0
		C0,237.5,0,233.2,0,228.8z"/>
	<path class="st0" d="M1000,196.8c-1-0.3-2-0.6-4-1.2c1.5-0.7,2.2-1.1,2.9-1.4c0.1,0,0.6,0.3,1.1,0.6
		C1000,195.5,1000,196.2,1000,196.8z"/>
	<path class="st0" d="M433,131.3c1.8-1.9,4.2-2.5,6.5-2.4c4.7,0.1,9.3-1.5,14.1-1.1c4.6,0.4,9.3,0.2,14,0c2-0.1,4-0.7,6.2-1.2
		c0,7.8,0,15.3,0,21.6c1.5,3.4,2.6,5.8,3.9,8.6c7.1,0,14.7,0.2,22.4-0.1c2.9-0.1,5.3,1.2,8.1,1.1c2.8-0.1,5.9-0.7,8.4,0.1
		c3.9,1.3,7.8,0.7,11.6,0.8c2.1,0.1,4,0.3,6.2,2.1c-2.1,0-3.8,0-5.4,0c-39.8,0-79.7,0-119.5,0c-1.7,0-3.6-0.8-5.1,0.9
		c-0.3,0.3-1.3,0.2-1.9,0c-7.5-2.1-15.1-0.4-22.6-1c-2.1-0.2-4.3,0.8-6.2-0.7c-6.7,2-11.5-3.3-17.2-4.3c-2.8-6.3-5.5-12.5-8.3-18.8
		c-24.4,0-48.5,0-73,0c-2.7,5.7-5.4,11.7-8.3,17.7c-2.7,5.8-4.6,12.1-8.9,17.7c-0.9-1-1.6-1.6-2.1-2.4c-0.4-0.7-0.3-1.5-0.6-2.2
		c-2.6-5.9-5.1-11.9-7.8-17.8c-0.6-1.3-0.7-2.1,0.1-3.5c2-3.6,3.7-7.5,5.5-11.2c3.2-3,7.4-2,11.3-2.7c8.7-1.4,17.5,0.1,26.1-1.1
		c11.2-1.5,22.5,0.2,33.6-1c9.4-1,18.7-0.6,28.1-0.9c0.2,0,0.4-0.3,1.2-1c-1.5,0-2.4,0-3.4,0c-17.8,0-35.7-0.1-53.5,0.1
		c-3.7,0-7.3,1.2-11.1,1c-3.7-0.2-7.4-0.3-11,0c-2.1,0.2-3.6-1.2-5.6-1.1c-1.8,0.1-3.4-0.5-5.1-0.9c-2.4-0.6-4-1.8-5.7-3.5
		c4.1-8.5,8.3-17,12.3-25.7c1.2-2.5,2.5-5,3.6-7.5c1-2.4,2-4.8,3.2-7.2c2-3.8,3.6-7.9,5.7-11.6c0.9-1.6,1.1-3.6,2.1-5.1
		c1-1.5,1.2-3.4,2.1-4.6c1.7-2.4,2.1-5.2,3.8-7.5c1.6-2.2,2.5-4.9,3.6-7.5c3.1-7.1,6.6-13.9,9.8-20.9c2.4-5.2,5-10.3,7.4-15.4
		c1.5-3.2,2.6-6.6,4.2-9.7c0.3-0.6,0.7-1.1,1.2-1.7c3.4,0,6.9,0,10.8,0c1.3,2.6,2.7,5.6,4,8.5c3.7,7.8,7.3,15.6,11,23.4
		c2.3,5,4.7,10.1,7,15.1c1.8,3.9,3.7,7.8,5.4,11.8c0.5,1.1,0.1,3,0.8,3.6c1,0.7,1.9,1.3,2.3,2.5c1.8,5.5,5.3,10.2,7.3,15.5
		c2.1,5.5,5,10.6,7.2,16c2.1,5.3,4.9,10.3,7.4,15.4c2.1,4.3,4,8.7,6,13c0.4,0.8,0.4,1.8,0.7,3c-9.9,0-19.5,0-29.1,0
		c4.8,1.3,9.7,0.9,14.6,0.9c5,0.1,10,0,15.3,0c3.4,8.8,7.8,17.1,13.6,23.1c11.1,4.3,21.5,4.2,32.5,3.7c-0.5-4,0.1-7.9-0.9-12
		C432.2,139.8,433,135.4,433,131.3z M311.5,60.6c-2.1,5.1-4.6,9.7-6.6,14.6c-2.3,5.4-5.3,10.4-7.6,15.8c-2.9,6.8-6.6,13.2-9.3,20.1
		c-1,2.6-2.6,5-3.9,7.7c22.7,0.6,50.8,0.4,54.8-0.4c-1.6-3.5-3.1-7-4.8-10.5c-1.6-3.2-3.8-6.2-4.8-9.5c-0.9-3.2-2.7-5.9-4-8.8
		c-1.3-2.9-2.7-5.9-3.9-8.9c-1.9-4.7-4.9-8.9-6.4-13.8C314.3,64.7,312.7,62.8,311.5,60.6z"/>
	<path class="st0" d="M843.9,150.8c-1.7,0.3-3.4,0-5-0.9c-7-3.6-14-7.4-19.6-13.2c-0.5-0.5-1.3-0.8-2.3-1.3c0-0.5-0.1-1.3-0.1-2.1
		c-3.1-1.2-5.2-3.6-6.8-6.1c-2.2-3.4-4.6-6.6-6.2-10.4c-1.6-3.7-2.2-7.7-3.8-11.4c-0.4-0.8-0.1-2-0.1-3c0-4.3,0-8.7,0-13
		c-0.1-6.5,2.5-12.2,5.7-17.6c2.6-4.5,5.8-8.6,9.9-11.9c4.9-4,9.7-8.2,15.6-10.5c5.3-2.1,10.7-4.5,16.6-4.6c1.4,0,2.6-1,4.2,0
		c0.6,0.4,2-0.8,3-0.8c5.2-0.1,10.4-0.6,15.5,0.1c3.3,0.5,6.9,0.6,10.1,2c3.1,1.4,6.4,2.2,9.6,3.3c5.6,2,10.1,5.4,15.1,8.3
		c8.9-8,10.6-10.2,10.9-14.7c3.8,0,7.6,0,11.2,0c1.5,0.8,1.9,2.2,1.4,3.5c-1.8,4.6-0.5,9.4-1,14.3c3.1,0.8,6.1,1.6,10,2.6
		c-4.2,0.7-7.4,1.2-10.9,1.8c0,2.6-0.1,5.3,0,7.9c0.1,2-0.6,3.7-1,5.6c-0.2,1.1-0.8,1-1.5,1.4c-1.2,0.6-1,1.1,1.4,2.1
		c-0.3,3,0.9,6.1-0.8,9.3c-0.5,0.9-0.2,2.3-0.1,3.4c0.4,5.2-0.7,10.4-1.2,15.7c-0.3,0.3-0.8,0.8-1,1c-4,0-7.8,0-11.6,0
		c-0.4,0-0.7-0.7-1-1c-0.9-11.1-4.9-20.9-11-30c-4.2-6.2-9.8-10.7-16.7-13.8c-5.3-2.3-10.6-4-16.4-3.9c-2.3,0-4.7,0-7,0
		c-5.5,0.2-12.1,2-17.2,5.6c-2.8,1.9-5.3,3.9-7.1,7c-1,1.7-1.9,3.2-1.9,5.3c0,1.4-1.1,2.8-0.8,4.1c0.7,3.5,0.4,7.2,2.6,10.4
		c1.9,2.8,3.4,5.8,6.5,7.9c3.6,2.5,7.1,5.3,11,7.5c5.4,3,10.9,5.8,16.6,8.3c2.4,1,4.3,3,7,3.6c2.3,0.5,4.8,1.7,6.7,2.9
		c3.6,2.2,7.6,3.4,11.2,5.6c3.4,2.1,7.2,3.6,11.2,5.5c0,1,0,2.2,0,3.8c2.1-0.5,3.7-0.9,5.7-1.4c3.6,5.3,8.2,9.7,13.7,13.2
		c5.2,3.3,11.3,4.4,16.4,8c-12.2,0-24.5,0-36.9,0c0.2,0.5,0.3,0.6,0.3,0.7c0.1,0.1,0.3,0.2,0.4,0.2c6.8,0,13.7,0,20.9,0
		c3,2.7,6.4,5.6,9.5,8.6c1.6,1.5,2.7,3.5,3.9,5.3c0.3,0.4,2,7.1,2,7.7c0,1.3,0,2.6,0,4.3c-1.5,0-3-0.1-4.4,0
		c-3.2,0.3-6.4,0.8-9.6,0.9c-3.2,0.2-6.3,0-9.5,0.1c-0.6,0-1.1,0.6-1.7,0.7c-5.8,0.8-11.1,0-15.6-4c-3.5-3.2-6.8-6.8-10.6-9.4
		c-4.2-2.9-8.9-4.9-13.5-7.2c-4-2.1-8-4-12.2-6.1c0.5-0.6,0.7-0.9,1.1-1.4c-1.1-0.4-2.1-1.2-3.2-1.2c-6.6-0.4-11.9-4.3-17.7-6.6
		C844,151.8,844,151.3,843.9,150.8c0,0.1,0.1,0.1,0.1,0.2c0.3-0.2,0.5-0.5,0.8-0.7c-0.1-0.1-0.2-0.2-0.3-0.3
		C844.4,150.2,844.1,150.5,843.9,150.8z"/>
	<path class="st0" d="M615.2,162.8c-15.8,0-30.8,0-46.2,0c0.4-2.7,0.8-5.4,1-8c0.2-2.7,0-5.3,0-8c0-2.8,0.1-5.7,0-8.5
		c-0.1-2.6,0.6-5.2-1-7.7c0.8-1,1.5-1.9,2.5-3.2c-0.9-0.4-1.5-0.6-2.3-0.9c-1-4.6-2-9.5-3.2-14.3c-0.8-3.3-2.5-6.3-3.9-9.4
		c-3-6.5-6.8-12.6-12.1-17.5c-6.1-5.7-15.1-11.7-25.9-13.5c-1.5-1.8-3.9-0.7-5.8-1.8c-1.6-0.9-4.4,0.3-6.4-0.3
		c-6.2-1.7-12.4-0.7-18.6-0.9c-6.3-0.2-12.6,0-19.4,0c0,6.7,0,13.3,0,19.9c1.7,2.5,0.7,5.4,1,8.1c0.3,2.2-0.5,4.4,0.8,6.7
		c1,1.6,0,3.9,0.9,6.1c1,2.3,0,5.4,1.2,8c0.6,1.3,0.8,2.7,1.1,3.9c7.8,2.3,15.7,0.8,23.5,1.4c-1.3,1.8-1.3,1.9-2.5,1.9
		c-7.1-0.2-14,1.5-21.1,1.1c-7.1-0.4-14.3-0.1-21.5-0.1s-14.3,0-21.5,0c-1,0-2-0.6-3.1-0.9c0-10.7,0.1-21,0-31.3c0-3.4,0-7-1.1-10
		c-1-2.6-0.9-5.4-2.4-8c-3.8-6.7-4.9-8.5-11.9-10.8c-2-0.7-4.1-0.6-6.1-1.1c-1.9-0.5-3.7-0.9-5.6-0.9c-3.2,0-6.3,0-9.7,0
		c0-4,0-7.9,0-12c1.7,0,3.4,0,5,0c37.5,0,75,0,112.4,0c2.5,0,5.1-0.6,7.7,0.7c2.3,1.1,5.2-0.7,7.5,1.3c4.8-0.8,9.2,1.2,13.6,2.2
		c5.1,1.1,10.3,2.2,15,4.7c2.2,1.1,2.2,1.1,3.2,4.4c1-0.7,1.9-1.3,2.8-2c6.3,2.9,12.6,6.3,18.2,10.7c0.2,0.2,0.8,0,0.9,0.1
		c3.8,4.6,9.7,7.1,12.8,12.6c1.4,2.5,4,4.2,5.6,6.7c3,4.7,6,9.4,8.1,14.6c1.1,2.9,2.4,5.7,3.1,8.7c1,4.1,3.1,7.9,2.8,12.4
		c-0.1,2,1.3,3.9,1,6.1c-0.3,2-0.4,4.2,0.9,6.1c-0.5,4.5,1,9.2-0.9,13.6c-0.4,0.8,0,2-0.1,3C615.8,158.7,615.4,160.6,615.2,162.8z"
		/>
	<path class="st0" d="M690.2,130.8c7.6,0,15.1,0.4,22.6-0.1c4.6-0.3,9.3-1.4,13.7-3c4.4-1.6,7-5.5,8.4-9.8c0.6-1.9,1.5-3.8,1.2-6.1
		c-0.3-2.3-0.2-4.7,0-7c0.2-2.2,0.8-4.3,1.3-6.8c3.6,0,7.5,0,11.5,0c0,20.8,0,41.6,0,62.6c-0.9,0.1-1.8,0.3-2.7,0.4
		c0,0.2,0,0.4,0,0.6c1.5,0.1,2.9,0.2,4.5,0.3c-0.5,3.4-1.2,6.9-1.8,10.4c-0.7,3.7-0.5,7.4-0.8,11.3c-3.5,0-7.1,0-10.7,0
		c-0.4-5.2-1.1-10.3-1.4-15.5c-0.4-8.4-5.7-13.2-13.1-15.4c-9.3-2.7-18.8-1.6-28.2-1.9c-1.4-0.1-3,0.6-4.4-1.5c0,4.4,0,8.3,0,12.2
		c-5.3,0.1-10.4-0.3-15.2,0.4c-4.7,0.7-9.4,0.5-14.1,0.9c-3.7,0.4-6.9-1.7-10.5-1c-0.5-0.9-1.1-1.5-1.2-2.2
		c-0.2-1.1-0.1-2.3-0.1-3.5c0-21.3,0.1-42.7,0-64c0-5.7-1.6-11.3-3-16.7c-1.2-4.5-5.1-7.7-10.2-9.6c-1.2-0.4-2.2-1.2-3.1-1.7
		c-3.3-0.4-6.5-1-9.7-1.2c-3.1-0.2-6.3,0-9.4,0c-0.5-0.5-1-1-1.3-1.3c0-3.6,0-7,0-10.6c56.3,0,112.4,0,168.6,0
		c0.4,0.6,1.3,1.3,1.2,2c-0.6,5.6,1.1,11,1.1,16.6c0.1,6.2,0.6,12.4,1,18.6c0.1,1.7,1.4,3.9,0.8,5c-1.1,1.9,0.7,3.1,0.3,4.8
		c-0.4,1.7-0.1,3.6-0.1,5.5c-0.8,0.8-1.7,1.6-2.6,2.5c-1.9,0-3.9,0-5.8,0c-3.3-1.8-3.1-5.1-3.6-8c-0.7-4.5-4.6-15.4-7.5-18.9
		c-1.2-1.4-2.9-2.5-4.5-3.5c-2.1-1.3-4.3-3.2-6.5-3.4c-2.6-0.2-5.1-0.8-7.5-1.4c-3.7-0.8-7.5-0.2-11.1-1c-7.5-1.7-15.1-0.6-22.6-0.8
		c-7.6-0.2-15.3-0.1-23.1-0.1C690.2,89.4,690.2,109.9,690.2,130.8z"/>
	<path class="st0" d="M569.4,166.9c0.4,0,0.9-0.1,1.4-0.1c6.8,0,13.7,0.4,20.5-0.1c6.5-0.5,13-1.1,19.6-0.9c1.3,0,2.6,0,3.9,0
		c-3.2,14.9-5,20-17.1,37.9c-1,0-2.2,0-3.5,0c0,0.2-0.1,0.4-0.1,0.7c0.6,0.2,1.2,0.5,2,0.8c-3.9,3.9-7.5,8-11.6,11.5
		c-3.5,2.9-7.1,5.7-11.3,7.6c-2.4,1-4.6,2.6-6.9,3.8c-4,2.1-7.9,4.3-12.5,4.7c-1.9,2.3-4.9,1.8-7.3,2.9c-2.8,1.2-6.1,1.5-9.1,2.1
		c-2.3,0.5-4.6,1.1-7.1,1.1c-2.2,0-4.5,0.5-6.5,1.1c-5.2,1.4-10.4,0.4-15.6,0.8c-19.8,1.9-39.7,0.6-59.6,1c-1.7,0-3.3,0-5.4,0
		c-1.3-3-2.7-6.1-4-9.2c-1.3-3-2.4-6-3.7-9c-1.3-3.1-2.7-6.2-4.3-10c-0.3-3,0.9-6.5,1.7-10c0.3-1.1,0.3-2.2,0.3-3.4
		c0-8.7,0-17.3,0-26.3c2.1-0.4,4.8-0.1,6.3-1.3c2-1.6,4.7,0.4,6.4-1.8c0.3-0.4,1.6-0.1,2.4-0.1c8.5,0,17,0,25.9,0c0,1.5,0,2.9,0,4.4
		c0,4.8,0.3,9.7-0.1,14.5c-0.5,6.6,0.8,13.1,1.2,19.6c0.2,3.4,1.6,7.1,4.5,9.6c2.6,2.2,5.8,3,9.2,3c7.2-0.1,14.3,0,21.5,0
		c6.1,0,11.8-1.7,17.6-3.4c6.1-1.9,11.9-4.5,17-8.6c1.8-1.5,4.5-2.4,5.6-4.2c1.3-2.1,3.3-3.5,4.6-5.6c1.5-2.6,3.1-5.1,4.8-7.5
		c3.1-4.2,4.7-9.1,6-14c0.9-3.3,2.3-6.6,2.2-10.1C568,167.9,568.9,167.4,569.4,166.9z"/>
	<path class="st0" d="M784.3,198.9c4,0,7.7,0,11.4,0c-0.3,0.9-0.6,1.7-0.7,2.5c-0.1,1-0.1,2,0,3c0.7,8.2-1.5,16.3-1,24.6
		c-1.6,4.1-0.7,8.4-1.1,12.9c-1.5,0-2.9,0-4.4,0c-41,0-81.9,0-122.9,0c-3.4,0-6.6-1-9.8-1.6c-1.5-0.3-3.2-0.3-4.7,0.1
		c-3.1,0.8-6.1,1.6-9.3,1.6c-9.5-0.1-18.9,0-28.7,0c-2.3-3.7-0.5-7.8-1.2-11.4c0.6-0.6,1.1-1.1,1.6-1.6c2.3,0,4.6-0.1,6.9,0
		c5.7,0.3,11-1.1,16.2-3.1c2.1-0.8,4.1-2.4,5.8-4c2-1.9,3.9-6.8,4.5-10.1c0.4-2.2,0.9-4.3,1.4-6.8c0.4-0.4,1.1-1.1,1.8-1.8
		c0.3-0.1,0.6-0.2,0.9-0.2c3.2,0,6.4,0.5,9.5-0.1c9.5-1.8,19.1-0.4,28.6-0.9c0.8,0,1.6,0,2.3,0c1.4,3.3,1.9,6.7,3.2,9.9
		c1.7,4.4,5.3,6.5,8.9,7.9c3.5,1.4,7.5,2.4,11.6,2.3c10.3-0.2,20.7-0.3,31,0c5.9,0.1,11.5-1.4,17.1-2.3c4-0.6,8-2.4,11.3-5.1
		c2-1.6,3.3-3.8,4.4-6.2c1-2.2,2.7-4.1,3-6.8C782.2,200.7,783.5,199.9,784.3,198.9z"/>
	<path class="st0" d="M138.1,62c0-3.9,0-7.3,0-11c38.1,0,76.2,0,114.5,0c2,2.3,1.3,5.3,1.4,8.1c-1.2,1.1-2.4,2.2-4.1,3.7
		c-2.1,0-5-0.3-7.8,0.1c-4,0.5-8.2,0.9-12,2.3c-6.2,2.3-8.9,7.5-11.2,13.2c-1,2.4-0.8,4.7-0.9,7c-0.7,0.7-1.2,1.2-1.7,1.7
		c1.3,3.2,1.1,6.4,0.3,9.5c-0.3,1.3-0.5,2.5-0.5,3.7c-0.1,7,0,14,0,21.1c3.7,3,8.1,4.4,12.7,5.4c2,0.4,4.4,0.2,5.9,1.3
		c1.9,1.5,4,0,6,1.4c1.4,1,4.2,0.2,6.3,0.3c2,0,4-0.2,6,0.1c1.7,0.2,3.3,0.8,5.9,1.5c-1.5,0.2-2.2,0.4-2.9,0.4c-2.3,0-4.7,0-7,0
		c-5.7,0-11.3,0-17,0s-11.3,0.1-17,0c-5.6-0.2-11,1.5-16.6,1.1c-5.6-0.4-11.3-0.1-17-0.1c-1.7,0-3.3,0-4.9,0c-0.5-0.5-1-1-1.5-1.5
		c0-10.1,0-20.3,0-30.5c0-3,0.1-6,0-9c-0.2-2.9-0.4-5.8-1-8.6c-0.6-2.9-1.7-5.6-2.4-8.5c-0.5-2.3-3.3-3.1-3.6-5.5
		c-3.5-2.7-7.4-4.7-11.7-5.4c-5-0.8-10-1.4-15.1-1.1C140.2,62.8,139.1,62.3,138.1,62z M222.6,65.7c-0.7,1.9-0.2,2.5,0.7,2.1
		C223.1,67.2,222.9,66.4,222.6,65.7z"/>
	<path class="st0" d="M941.1,200.2c-3,1.6-3,5.4-3.9,8.4c-1.4,4.3-3.4,8.1-6.1,11.4c-1.3,1.6-1.8,3.9-4.2,5
		c-1.7,0.7-2.6,3.1-4.1,4.5c-5.5,5-11.4,9.5-18.3,12.4c-3.8,1.6-7.7,3.1-11.6,4.6c-0.4,0.2-0.9,0.3-1.4,0.3
		c-1.7,0.3-3.4-0.3-5.2,0.9c-1.3,0.9-3.4-0.3-5,1.1c-0.5,0.4-1.6,0.1-2.4,0.1c-3.8,0-7.7,0-11.5,0c-3.7,0.1-7.2-1.2-10.7-1.7
		c-4.9-0.7-9.3-2.4-13.8-4.3c-2.5-1-2.5-0.9-3.3-4.3c-0.7,1-1.2,1.8-1.8,2.7c-7.5-4-14.3-8.5-20.9-13.8c-2.6,4.6-4.7,9-4.9,14.2
		c-4.2,0-8.5,0-12.5,0c0.2-2.6,0.5-5.1,0.6-7.7c0.1-3.7-0.1-7.3,0.1-11c0.1-2.7,0.8-5.4,0.9-8.1c0.2-2.8-0.3-5.7,0.1-8.5
		c0.3-2,1.2-4,0.8-6.1c0.9-0.9,1.7-1.7,2.6-2.5c6.6,0,13.2,0,19.9,0c2.5,4.5,4.9,9.2,8.9,12.7c1.2,1,1.3,2.7,3,3.4
		c1.4,0.6,2.4,2.2,3.6,3.3c1.2,1,2.5,1.9,3.8,2.8c3.3,2.3,12.5,5.7,16.6,6.9c2.7,0.8,5.4,0.8,8.1,0.9c1.4,0.1,2.7,1,4.1,0.9
		c2.4-0.1,4.7,0.6,7.2-0.8c1.8-1.1,4.4,0.5,6.6-0.8c1.9-1.2,4.4-1.4,6.5-2.3c7.3-3.1,11.7-8.6,14.2-16.1c1.2-3.8,0.7-7.7,1-11.6
		c2-1.9,4.9-2.2,7.1-2.1c11.7,0.4,23.4-1.4,35.1-1.2c4.5,0.1,9,0,13.5,0c0.8,0,1.5,0.1,2.3,0.7c-1.2,0.1-2.5,0.3-3.7,0.4
		c-0.2,0.6-0.4,1.2-0.6,1.7c-2.3,0.4-4.4-0.1-6.7,1c-2,1-4.7,0.8-7,1.2C945.8,199.2,943.7,199.7,941.1,200.2z"/>
	<path class="st0" d="M215.8,189.5c1.2,6.5,0.8,13.4,2.3,20.1c0.8,3.6,2.1,7.1,3.9,10.4c1.6,2.8,4.2,4.6,6.9,5.7
		c2.7,1,5.3,3.1,8.6,2.2c0.6-0.1,1.4,1,2.1,0.9c1.9-0.3,3.6,0.9,5.7,0.2c2.3-0.7,4.9-0.2,7.6-0.2c1.9,3.1,1.5,6.1,0.1,9.2
		c0.4,0.6,0.8,1.3,1.5,2.3c-1.2,0.6-2.2,1.1-3.2,1.4c-0.4,0.2-1,0-1.5,0c-36.1,0-72.3,0-108.4,0c-0.7,0-1.3,0-1.9,0
		c-0.5-0.5-1-1-1.5-1.5c-0.1-9.5-0.1-9.5,1.4-11.5c3.4,0,6.9,0.3,10.4-0.1c5.9-0.7,11.9-1.5,16.6-5.8c2.3,0.3,1.4-2.7,3.1-3.1
		c2.3-4.3,3.8-8.7,4.7-13.6c1.4-7.9,0.3-15.8,1-24.2c0.6-0.3,1.6-0.9,2.6-1.5c-0.2-0.2-0.3-0.3-0.5-0.5c0.3-0.1,0.6-0.2,0.9-0.2
		c8.3,0,16.7,0,25,0c3.4,0,6.6-1.5,10.1-1.1c3.3,0.3,6.7,0,10,0.1c3,0.1,5.6,1.2,8.6,3.2c-2.9,1.2-5.4,1.3-7.4,2.8
		C220.5,184.3,218.4,187,215.8,189.5z"/>
	<path class="st0" d="M219.1,134.8c-0.6,4-0.6,7.6-1.7,10.9c-1.1,3.3,0,6.6-1.2,10c-1.1,3.2-0.2,7.2-0.2,10.9
		c-7.7,0.4-15.2,1-22.7,1.2c-5.6,0.2-11.3,0-17,0c-0.5-0.7-1.2-1.3-1.3-2.1c-0.6-4.8-0.1-13.4,0.9-15.7c-2-0.2-4.1,0.2-5.7-0.6
		c-1.9-0.9-3.5-0.4-5.3-0.5c-2-0.2-4,0-6,0c-7.8,0-15.7-0.1-23.5,0.1c-3.6,0.1-7-1.9-10.6-1c-6.5,1.6-13.1,0.9-19.6,1
		c-6.5,0.1-13-0.1-19.5,0.1c-2.8,0.1-5.7,0.8-8.7,1.3c0,5.9,0,12.1,0,18.4c-13.7,0-27.3,0-40.9,0c-0.1-0.1-0.3-0.3-0.3-0.4
		c0-7.5,0-15,0-23.1c0.6-0.4,1.6-1,3.5-2.2c2.1-0.2,5.5-0.7,8.8-1.9c0.6-0.2,1.3-0.2,1.9-0.2c11.5-0.3,23.1-0.6,34.6-1
		c4.2-0.2,8.4-0.8,12.6-0.9c4.5-0.2,9,0,13.5,0c4.3,0,8.8,0.7,13-0.2c7.2-1.5,14.5,0.1,21.6-1c5.9-0.9,11.7-0.7,17.6-0.8
		c5.8-0.1,11.7,0.6,17.5-0.2c7.2-0.9,14.4-0.4,21.6-1c2.7-0.2,5.4-0.8,8.1-0.8C213.1,134.8,215.9,134.8,219.1,134.8z"/>
	<path class="st0" d="M649.1,168.2c2-2.7,4.9-3.7,8.4-3.4c2.5,0.2,5.1,0.4,7.5,0c6.8-1.4,13.7-0.7,20.5-1c0.9,0,1.7-0.6,3-1.1
		c0.2,0.6,0.5,1.4,0.8,2.3c0.2-0.2,0.4-0.4,0.7-0.6c0,2,0,4,0,6c0,3.2-0.1,6.3,0,9.5c0.1,3-0.2,6,0.8,9.1c0.9,2.9,0.2,6.3,0.2,9.4
		c-1.8,1.6-4,1.6-6.3,1.6c-3.5-0.1-7.1-0.6-10.4,0.1c-7.7,1.6-15.4,0.5-23,0.9c-0.6,0-1.3,0-2.1,0
		C649.1,189.9,649.1,179.1,649.1,168.2z"/>
	<path class="st0" d="M816.8,169.1c0.7,7.4,2.7,14.4,4.6,21.6c-5.7,0-10.7,0-16.1,0c-0.9-1-2-2.2-3.3-3.6c1.6-3.9,1.1-8.3,1-12.6
		c0-2,0.6-3.7,1.4-5.3C808.6,169.1,812.8,169.1,816.8,169.1z"/>
	<path class="st0" d="M994.8,193.5c0.1,1.1,0.1,1.4,0.2,1.9c-3.5,1-7,1.6-10.8,1.5c-3.4-0.1-6.8,0.5-10.5,0c0.9-0.7,1.8-1.4,2.8-2
		c0.2-0.2,0.7,0,1,0c3,0,6,0.2,9-0.1C989.2,194.6,991.8,194,994.8,193.5z"/>
	<path class="st0" d="M948.3,210.9c-3.4,2.8-6.6,3.5-10.3,1.4c0-0.2-0.1-0.4,0-0.5c0.8-1,1.6-2,2.3-3
		C943.1,208.9,945.9,208.3,948.3,210.9z"/>
	<path class="st0" d="M232.1,183.9c2.4,0,4.5,0,6.7,0c0.1,0.5,0.2,1,0.3,1.6c-2.6,0.5-5.2,1-8.5,1.7
		C231.3,185.6,231.7,184.7,232.1,183.9z"/>
	<path class="st0" d="M954.3,75c-1.1,0.7-2.1,1.2-3.2,1.9c-1-0.5-2.1-1.1-3.2-1.6C950.1,72.1,950.1,72.1,954.3,75z"/>
	<path class="st0" d="M523.9,164c3.2-0.4,5.8-0.5,8.2,1.4c-0.1,0.4-0.2,0.9-0.2,1.2c-2.6-0.3-5-0.7-7.7-1
		C524.1,165.2,524,164.8,523.9,164z"/>
	<path class="st0" d="M940,71.6c1.1,0.8,2.2,1.5,3.7,2.5c-2.6,1.2-4.6,0.5-6.6,0.8C936.5,72,939.4,73.1,940,71.6z"/>
	<path class="st0" d="M964.9,80.1c-2.6,2.6-4.5,2.4-7.1-0.7c1.3-0.6,2.1-0.7,3.4,0.1C962.2,80,963.6,79.9,964.9,80.1z"/>
	<path class="st0" d="M972.7,195.2c-1,1.3-1.5,2-2.1,2.6c-1.9-0.5-3.6-0.9-5.4-1.3C967.1,194.6,969.4,194.6,972.7,195.2z"/>
	<path class="st0" d="M636.9,137.8c0,1.1,0,1.9,0,2.8c-1.7,0.5-3.4,0.7-4.7-1.1C633.1,137.1,635.1,138.1,636.9,137.8z"/>
	<path class="st0" d="M942.6,173.5c1.2,0.5,2.3,0.9,3.4,1.3c-0.6,1.2-1,2.1-1.5,3C942.6,177.8,942,176.7,942.6,173.5z"/>
	<path class="st0" d="M619.1,180.7c0-0.6,0-1-0.1-1.6c2.5-0.4,4.9-0.5,7,1.6C623.6,180.7,621.4,180.7,619.1,180.7z"/>
	<path class="st0" d="M946.7,217.5c1.8-2.1,2.6-2.4,5.2-2.3C951,217.8,951,217.8,946.7,217.5z"/>
	<path class="st0" d="M636.4,166c-0.8-1.1-1.2-1.7-2-2.9c1.8-0.1,3.1-0.2,4.3-0.3C639.7,165.5,636.8,164.5,636.4,166z"/>
	<path class="st0" d="M236.9,181c0,0.6,0,1.1,0,1.7c-1.3,0-2.5,0-3.8,0c0-0.6,0-1.1,0-1.7C234.4,181,235.6,181,236.9,181z"/>
	<path class="st0" d="M219,187c1,0,1.9,0,2.9,0c0.1,0.6,0.1,1,0.2,1.7c-1,0-1.8,0-2.9,0C219.1,188,219,187.4,219,187z"/>
	<path class="st0" d="M928,68.3c0.5-0.5,0.9-0.9,1.5-1.5c0.5,0.4,0.9,0.9,1.7,1.6c-0.6,0.4-1.2,0.9-1.8,1.3
		C928.9,69.3,928.5,68.8,928,68.3z"/>
	<path class="st0" d="M933.8,88.4c-0.4-0.8-0.7-1.3-0.7-1.8c0-0.3,0.8-0.8,0.9-0.7c0.4,0.3,0.8,0.7,1,1.2
		C935,87.3,934.4,87.7,933.8,88.4z"/>
	<path class="st0" d="M949.5,220.7c-0.7,0.5-1.1,1-1.6,1.1c-0.3,0.1-0.6-0.5-1-0.7c0.3-0.4,0.6-0.9,1-1.2
		C948.2,219.8,948.7,220.2,949.5,220.7z"/>
	<path class="st0" d="M421.5,167.6c-0.7,0.7-1.1,1.2-1.3,1.2c-0.5-0.2-0.9-0.6-1.2-1c-0.1-0.1,0.5-0.9,0.7-0.9
		C420.2,166.9,420.7,167.2,421.5,167.6z"/>
	<path class="st0" d="M843.9,150.7c0.2-0.3,0.5-0.5,0.7-0.8c0.1,0.1,0.2,0.2,0.3,0.3c-0.3,0.2-0.5,0.5-0.8,0.7
		C844,150.9,844,150.8,843.9,150.7z"/>
	<path class="st0" d="M222.6,65.7c0.3,0.7,0.5,1.5,0.7,2.1C222.4,68.2,221.9,67.6,222.6,65.7z"/>
</g>
</svg>
