<?xml version="1.0" encoding="utf-8"?>
<!-- Generator: Adobe Illustrator 19.0.0, SVG Export Plug-In . SVG Version: 6.00 Build 0)  -->
<svg version="1.1" id="Layer_1" xmlns="http://www.w3.org/2000/svg" xmlns:xlink="http://www.w3.org/1999/xlink" x="0px" y="0px"
	 viewBox="0 0 2046.3 1121.4" style="enable-background:new 0 0 2046.3 1121.4;" xml:space="preserve">
<style type="text/css">
	.st0{fill:#FFFFFF;}
</style>
<g>
	<path class="st0" d="M261.2,819.7c-1.9-0.4-3.7-0.7-5.4-1c-2.2,2.9-1.4,5.6-1.3,8.2c0.8,26.6,1.4,53.3,2.5,79.9
		c1.3,31,2.8,61.9,4.4,92.9c1.4,26.6,4.6,53.1,8.8,79.4c1.8,11.2,3,22.5,4.4,33.7c0.3,2.3,0,4.6,0,7.3c-1.7,0.5-3.2,1.2-4.8,1.2
		c-3.7,0.2-7.3,0.2-11,0.1c-75-0.2-150-0.4-225-0.6c-3.7,0-7.3,0.1-11-0.2c-2.6-0.2-5.2-0.9-7.4-1.2c-3-4.1-2.4-8.1-1.9-12
		c0.8-6.3,2-12.5,2.6-18.8c0.6-6.3,0.8-12.6,1-18.9c0.1-2.4-0.4-4.7-2.3-6.4l0.2,0.2c0.2-5.3,0.9-10.6,1.8-15.8
		c2-12.5,3.5-25.1,4.6-37.7c4.2-47.2,3.3-94.6,4.2-141.9c0.6-33,1.2-66,2-99c0.1-6.3,1.2-12.6,1.8-18.9c0.5-5,1.1-9.9,1.6-14.9
		c0.9-9.9,1.7-19.9,2.5-29.8c0.1-0.6,0.5-1.2,0.9-2c4.4-3.4,10.4-0.4,15.5-3.3c-0.7-0.8-1.3-1.9-1.9-2c-3-0.3-6-0.3-9-0.5
		c-1.6-0.1-3.1-0.5-4.9-0.8c-1.7-4.9-0.9-9.6-0.7-14.2c0.3-6.6,0.9-13.3,1.1-19.9c0.4-12.3,0.3-24.7,0.8-37c0.9-25,2-49.9,2.9-74.9
		c0.3-7,0.2-14,0.4-21c0.6-20.3,1.5-40.6,2-60.9c0.3-10.7,0.4-21.3,0.3-32c0-18.7-2.4-37.2-5-55.7c-2.8-20.2-7.9-39.8-12.9-59.5
		c-0.5-1.9-0.8-3.8-1.3-6c5.4-3.7,11.6-3.5,17-4.9c3.1-2.2,4.3-5.4,5.4-8.5c3.6-10,7-20.1,10.4-30.2c2.3-7.1,2.3-14.4,1.9-21.9
		c-1.1-0.3-1.9-0.5-3.2-0.8c-0.1-3.1-0.2-6.4-0.2-9.7c0.1-11,0-22,0.4-33c0.3-8,0.5-16,1.8-23.9c1.3-7.3,1.5-14.6,1.6-21.9
		c0.1-7,0.2-13.9,0.1-20.7c-2.4-1-2.5,0.8-3.1,1.7c-0.6,0.8-1.1,1.6-1.6,2.4c-12.5,1.6-38.5,1.8-45.9,0.4c-2.5-1.9-3.4-4.7-3.6-7.8
		c-0.1-1-0.1-2,0-3c1.2-11.2,2-22.6,5.5-33.4c6.1-19.1,10.2-38.6,13.1-58.4c1.2-8.2,2.7-16.4,4.2-24.6c0.6-3.1,2.2-5.5,5.4-6.6
		c-0.6-0.8-1.1-1.6-1.7-2.3c9.4-1.2,34.5-1.2,40.6,0.1c0.5,0.1,0.8,0.9,1.6,1.8c-3.8,1.9-7.9,0.5-11.6,1.5c1.9,2.1,4.4,0.9,6.6,1.5
		c2.6,0.7,5.2,1.3,7.8,1.9c1.2,0.3,2.4,0.8,4,1.3c-1,1.3-1.7,2.3-2.7,3.6c0.8,1.5,1.7,3.2,2.9,5.4c3.3,0.4,6.6,1.1,9.8,1.2
		c10.3,0.3,20.7,0.3,31,0.5c4.4,0.1,8-1,9.9-5.2c2.4-5.2,6.7-6.6,12.1-7.1c12.7-1.2,25.3-1.2,37.9,0.5c1.6,0.2,3.2,0.7,4.5,1
		c0.7,2.2-1,2.6-1.9,3.4c-2.2,1.9-2.1,4-0.2,6.2c3.3,1.8,7.1,1,10.6,1.1c21.7,0.1,43.3,0,65,0.1c38.7,0.1,77.3-0.3,116,0.5
		c19.9,0.4,37.3-5.4,53.8-15.6c2-1.2,4-2.5,5.9-3.8c0.8-0.6,1.5-1.3,2.5-2.1c0.4-1.9,0.8-4,1.2-6.3c11.2,6,12.8,8,15.5,18.4
		c4.2,16.1,8.1,32.3,12.7,48.3c4.9,16.9,10.4,33.7,16,50.5c2.3,6.9,5.4,13.6,8.2,20.4c0.9,2.1,2.4,4.1,1.1,7
		c-10.8,2.5-22.2-1.2-33.7,1.6c-0.1,1.8-0.5,3.4-0.3,4.9c2.9,17.7,5.9,35.5,9,53.2c0.4,2.3,1.2,4.4,1.9,6.8c3.3,2.2,7.6,2.6,9.6,6.8
		c0.8,1.7,3.7,2.4,5.8,3.7c0.2,2,0.6,3.9,0.6,5.9c0,10.7,0,21.3,0,32c0,7.8-1.7,15.1-5,22.2c-2.1,4.5-3.4,9.4-4.7,14.2
		c-0.7,2.5-0.5,5.2-0.8,8.2c2.3,0.5,4.2,1.3,6,1.3c6.3-0.3,12.6-0.8,19.3-1.3c4.9,5.3,11.4,5.9,18.2,5.8c7-0.1,13.9,0,21.2,0
		c2.6-1.5,3.4-4.4,4.4-7.3c3.7-10.3,7.5-20.6,11.1-31c1.2-3.4,1.9-7,2.4-10.6c0.4-2.7,0.9-5.3,2.5-7.4c9.2-12.2,20.1-22.4,35.3-26.4
		c11.6-3,23.1-2.2,34.1,1c4.5,4.1,7.5,9.2,12.5,11.5c3.3-0.3,5-2.4,6.9-4.3c11.5-12,23.1-24.1,34.6-36.1c2.3-2.5,5-4.4,8.3-5.4
		c2.7-0.8,5.5,0.5,6.4,3.3c0.6,1.9,0.9,3.9,1.3,5.8c4.5,26.6,9,53.2,13.6,79.8c0.6,3.2,0.6,6.7,3.2,9.5c3.7,1.5,7.7,0.9,11.7,0.5
		c15-1.7,30-0.6,44.9-0.7c2.4,0,4.4,1,6.5,2.2c9,5,17.9,4.6,26.4-1.1c5.2-3.5,10.1-7.6,15-11.6c10.8-8.8,21.6-17.8,32.4-26.7
		c1-0.8,2.2-1.4,3.1-1.9c3.5,0.4,5.1,2.5,5.9,5.1c1.2,3.8,2.4,7.6,3.2,11.5c2.6,13.7,5.3,27.5,7.6,41.3
		c5.8,36.5,12.7,72.8,20.9,108.9c2.2,9.7,4.4,19.5,6.6,29.3c0.8,3.6,1.7,7.2-0.2,11.4c-1.5,0.4-3.3,1.3-5.2,1.4
		c-5.3,0.1-10.7-0.2-16-0.3c-4.6-0.1-9.3-0.8-14.5,0.6c-0.4,1.7-1.2,3.6-1.1,5.4c2.4,27.2,3.3,54.5,8.5,81.5
		c4.3,22.6,8.2,45.2,10.5,68.1c0.6,5.9,0.3,12,0.3,18c0,3.3,0,6.6,0,9.8c2.5,1.9,4.6,3.4,6.6,5c2,1.7,3.7,3.9,5.8,5.4
		c3.7,2.5,5.3,6.1,5.1,10.2c-0.5,11.6-1.1,23.3-2.2,34.9c-1.6,18.3-5.7,36.2-10.2,53.9c-2.8,11.1-4.1,22.2-4.2,33.6
		c-0.1,13.7-0.3,27.3-0.5,41c0,3-0.3,5.9-0.4,9.3c-2.1,0.5-4,1.4-5.8,1.4c-13.7,0.1-27.3,0.1-41,0.1c-7.4,0-13.7-2.3-18.5-8.1
		c0,0-0.2,0.2-0.2,0.2c0.5-0.8,1-1.7,1.4-2.4c-5.3-9.5-6.9-11.2-14.1-14.4c-2.2,2.8,2.3,4.6,0.8,7.6c-13.4-0.5-27-1-40.6-1.6
		c-13.6-0.6-27.1-2.5-40.2-1.3c-4.2,3.8-5.4,8.4-7.2,12.7c-4,9.1-7.8,18.4-12,27.5c-5.9,12.9-15.6,22.3-27.8,29.2
		c-7,4-14.6,6.4-22.8,6.7c-10.7,0.4-21.3,0.1-31.8-1.9c-22.2-4.3-44.6-7.6-67.1-10.2c-5.7-0.7-10.2-2.5-13-7.9
		c-1.2-2.3-3.3-4.1-5.3-6.4c-0.4-17.3-1.1-34.9-5.4-51.6c-2.5-1.1-3.9-0.2-5.1,1c-10.6,10-23.9,14.2-37.6,17.4
		c-9.2,2.2-18.6,1.4-27.9,0.8c-7.9-0.5-15.9-1.4-23.6-3.7c-11.2-3.3-20.1-10.2-28.1-18.3c-1.5-1.5-2.1-3.3-1.9-5.4
		c0.2-1.9-1.3-2.9-2.8-3.8l0.2,0.2c-0.8,0-1.6,0-2.3,0l0.2-0.2c-2.4-2.1-2.4-2.1-1.3-6c-2.9-5.2-5.9-10.7-9-16.4
		c-2.4,2.2-0.7,3.9-0.3,5.5c0.4,1.6,0.9,3.2,1.6,5.3c-4.8,6.9-9.3,14.2-14.6,20.9c-8.1,10.3-18.2,18.3-30.3,23.6
		c-7.7,3.3-15.6,5.3-24.2,5c-14.1-0.5-27.8-2.2-40.7-8.2c-8.2-3.8-16-8.1-21.4-15.7c2.7,0.7,5.4,1.3,8.2,2l0.4,0.6
		c0,0-0.6-0.3-0.6-0.3c-1.1-1.6-2-3.5-3.4-4.8c-6.8-6.3-13.5-12.8-19.3-20c-0.7-0.9-2.1-1.4-3.2-2.1c-2.7,2.6-2,5.2-0.3,7.2
		c2.1,2.5,4.7,4.7,7.3,6.7C254.2,811.8,258.2,815.3,261.2,819.7z M805,667.4l0.2,0.2c0.8-4.3,2.3-8.3,5.4-11.4
		c6.8-1.8,11.7,1.3,16.2,5.4l0.2-0.2c-2.3-0.1-4.5-0.2-6.7-0.3c-1.1,3,0.7,4.8,2.5,6.1c2.4,1.7,5.2,3,7.8,4.4
		c5,2.8,10.2,2.7,15.4,0.5c1.2-0.5,2.4-1.3,2.1-3.3c-3.7-3.5-9.4-1.9-13.5-4.2c-1.4-2.9-2.3-5.8-3.9-8.1c-1.9-2.7-4.4-4.9-6.8-7.4
		c-0.2-0.9-0.7-1.9-0.7-2.8c0-6.4-2.9-11.4-7-16.1c-3-3.5-5.8-7.3-8.3-11.2c-3.8-5.9-7.2-12-10.8-17.9c-0.6-1-1.8-1.5-3.6-3.1
		c-1.5,28.1,1.1,54.9,2.3,82.4c-2.2,3-4.8,6.3-7.2,9.6c-1.8-0.7-3-1.2-4-1.6c-4,2.2-7.9,4.2-11.6,6.4c-2.2,1.4-4.5,2.9-6.3,4.8
		c-3.4,3.7-4.3,8-2.3,12.5c2.6,0.9,4.3-0.3,5.8-1.5c3-2.6,5.9-5.4,8.9-8c0.9-0.8,2.1-1.3,2.8-1.6c3.4,1.1,1.9,5.6,6,5.8
		c4.7-8,13-11.5,21.3-14.9c3.1-1.3,6.2-2.5,9.1-4c1-0.5,1.5-1.8,3-3.6c-2.4-0.1-3.7-0.5-4.8-0.2c-2.2,0.6-4.3,1.8-6.5,2.5
		c-1.2,0.4-2.5,0.9-3.3-0.8c1.1-3.9,6.1-5.3,6.3-10.6c-1-2.3-2.3-5.3-3.7-8.5C807.5,667,806.2,667.2,805,667.4z M225.5,1084.8
		c-0.9-5.4-2.1-10.2-2.4-15.1c-1.3-22.9-4.7-45.7-4.5-68.8c0-0.7,0-1.3-0.1-2c-2.9-15.8-1.4-31.9-3.2-47.8
		c-1.7-14.5-0.7-29.2-1.9-43.9c-1.3-15.9-1-31.9-2.1-47.9c-1.4-20.2-0.6-40.6-1.9-60.9c-1.1-17.3-0.7-34.6-1.8-51.9
		c-1.4-21.3-1.5-42.6-2-63.9c-0.4-15.3,0-30.7-1.1-46c-1.1-15-0.9-30-1.1-45c-0.3-19-0.3-38-0.7-57c-0.2-9.3-1-18.6-1-28
		c-0.1-31-0.3-62,0-93c0.1-12.6,0.9-25.3,3-37.8c1.7-10.5,3.5-20.9,7.1-31.6c-2-0.3-3.6-0.9-5.1-0.9c-18.3-0.1-36.7-0.1-55,0
		c-1.2,0-2.3,0.9-3.9,1.5c2.7,18.8,5.5,37.2,8,55.6c1.4,10.2,2.4,20.5,3.3,30.7c1,11.9,1.6,23.9,2.3,35.9c0,0.7,0.1,1.3,0.2,2
		c1.7,5.9,1.3,11.9,1.5,17.9c0.7,21,1.5,41.9,2.3,62.9c0,1.3,0.3,2.7,0.4,4c0.4,5.3,1,10.6,1.1,15.9c0.3,11,0.2,22,0.5,33
		c0.3,8.3,1.4,16.6,1.5,24.9c0.3,20.7,0.3,41.3,0.5,62c0,3.3-0.2,6.7,0.4,10c1.9,10.3,0.9,20.6,0.9,30.9c0,1.5-1,3-1.5,4.4
		c-4,1.3-7.7,0.9-11.3,0.9c-6.3,0-12.7-0.1-19-0.1c-11.3,0-22.7,0.1-34,0.1c-2.3,0-4.7,0.5-6.6-1.6c0.2-10.9,0.2-21.8,0.5-32.8
		c0.4-12.3,1.4-24.6,1.6-36.9c0.8-43,0.4-86,2.1-129c0.7-17.6,0.5-35.3,0.8-53c0-2.7,0.1-5.3,0.2-8c0.5-9.3,1.1-18.6,1.6-27.9
		c0.2-3.3,0.3-6.7,0.6-10c1-10.3,2-20.5,3.1-30.8c1.4-13.2,2.7-26.5,4.4-39.7c0.7-5.9,2.3-11.8,3.4-17.7c0.3-1.9,0.8-4-0.7-5
		c-5.6,0-10.6,0-15.6,0c-5.3,0-10.7,0-16,0c-5,0-10-0.4-15,0.1c-5.2,0.5-10.3-2.4-15.4-0.9c-1.9,3.8-0.8,7-0.1,10.2
		c1.3,6.9,2.9,13.7,4,20.6c2.4,15.5,5.2,30.9,5.4,46.6c0,1.7,0,3.4,0.4,5c1.6,6.2,1.3,12.6,1.3,18.9c0,9.3,0,18.7,0,28
		c0,2.7,0.3,5.4-0.3,8c-1.6,6.9-1.3,13.9-1.4,20.9c-0.2,10.7-0.1,21.3-0.4,32c-0.2,7.6-1.7,15.2-0.1,22.8c0.5,2.2-0.3,4.6-0.5,6.9
		c-0.3,3-0.8,6-0.9,8.9c-0.5,19-0.5,37.9-1.7,56.9c-1.7,25.9-0.8,51.9-1.9,77.9c-1.8,40.9-0.1,81.9-2.4,122.8
		c-0.8,14.6-0.2,29.3-0.4,44c0,3.3-0.2,6.7-0.4,10c-0.4,5.6-1,11.3-1.2,16.9c-0.2,8-0.2,16,0,24c0.3,10.3-0.9,20.7,1.2,30.9
		c0.3,1.3,0.2,2.7-0.1,4c-1.7,7.6-1.1,15.3-1.3,22.9c-0.2,8.3,0.1,16.6-1.6,24.9c-1.3,6.5-1.8,13.2-2.5,19.8
		c-1.4,14.6-3.1,29.1-5.8,43.5c-0.9,4.5-2,9.1-1.5,13.8c1,0.5,1.9,1.3,2.8,1.3c19.3-0.2,38.6-0.4,57.9-0.7c0.5,0,1-0.8,2-1.6
		c-0.3-1.6-0.1-3.7-1-5.3c-2.4-4.9-3.4-10.1-4.3-15.3c-1.4-7.9-2.9-15.7-4-23.6c-1-6.9-2.1-13.9-2-20.8c0.1-8,0.9-16,2.2-23.8
		c1-6,1.4-11.9,1.4-17.9c0.1-38.3,0.1-76.7,0.2-115c0-13.3,0-26.7,0.1-40c0-3-0.3-6.1,2.5-8.7c0.9-0.2,2.1-0.8,3.4-0.8
		c22.3,0.1,44.6,0.3,66.9,0.5c0.6,0,1.1,0.6,2.2,1.2c0.2,0.9,0.9,2.1,0.9,3.3c0,6.3,0.6,12.8-0.5,19c-1.6,9.6-1.3,19.3-1.3,28.9
		c0,8-0.5,16.1,0.5,24c0.9,7.3,1.1,14.6,1.2,21.9c0.1,12.3,0.2,24.7,0.4,37c0,3.3,0.1,6.7,0.7,9.9c0.9,4.7,0.9,9.2,0.2,13.9
		c-0.4,2.9-0.2,5.9-0.1,8.9c0.1,2.3,0.5,4.6,0.6,7c0.9,13.7-1.7,27.2-2,40.9c0,0.7-0.2,1.3-0.3,2c-2.5,15.5-4.8,30.9-8.5,46.2
		c-0.6,2.5-0.5,5.1-0.8,7.4c1.1,0.7,1.6,1.4,2.2,1.4c18,0.2,36,0.4,53.9,0.6C221.4,1085.4,223.3,1085.1,225.5,1084.8z M564.4,860.2
		c3.2-0.1,3.5-2.4,4.1-4.1c1.6-4,2.7-8.2,4.6-12.1c2.1-4.5,6.5-5.8,10.9-3.4c1.4,0.8,2.6,2,4,2.9c6.5,4.1,12.8,8.4,19.4,12.2
		c8.3,4.7,17.4,6.3,27,6.2c5.6-0.1,10.7-1.3,15-4.6c7.7-5.8,15-12.3,19.9-20.8c8.4-14.5,14.3-30.1,17.5-46.6
		c2.5-12.7,6-25.2,6.9-38.3c0.7-11.3,2.7-22.5,3.1-33.8c0.5-15.9,2.2-31.9,0.9-47.9c-0.3-3.6,0.4-7.3,0.5-11c0.1-4.3,0.4-8.7,0.2-13
		c-1-16.3-2-32.6-3.2-48.8c-0.7-9.3-1.5-18.6-2.4-27.8c-0.5-5-1.4-9.9-2.4-14.8c-1.9-8.8-5.4-17.1-10-24.9
		c-5.8-9.8-11.9-19.3-19.8-27.5c-10.9-11.3-22.9-21.4-34.8-31.4c-12.1-10.2-22.4-21.8-29.1-36.3c-8.4-18.1-12.9-37-13.5-56.9
		c-0.2-7.7,0.1-15.3,0-23c-0.2-15.7,4.6-30.2,10.4-44.4c1.7-4.2,4.8-8,7.9-11.4c3.5-3.9,8.2-4.2,12.7-1.4c1.9,1.2,3.7,2.9,5.1,4.7
		c2,2.6,3.9,5.4,5.4,8.4c7.2,14.6,14.2,29.4,21.3,44.1c2,4.2,4.1,8.4,6.3,12.5c1.5,2.8,4,4.6,7.3,4.6c7.6,0,15.3-0.3,22.9-0.5
		c0.5,0,1.1-0.7,2-1.4c-0.2-1.3-0.3-3-0.7-4.5c-0.7-2.6-2-5-2.4-7.6c-1.6-8.9-2.9-17.7-4.3-26.6c-2.3-15.5-3.7-31.1-7.4-46.3
		c-1.1-4.5-1.5-9.2-2.3-13.8c-0.7-3.9-1.4-7.9-2.3-11.8c-0.3-1.1-1.3-2-2-3.1c-4.6,2.6-6.1,6.8-7.9,10.6c-1.8,3.9-3.4,7.9-5.1,12.1
		c-2.5,0.9-5,1.7-7.2,2.5c-6-2.6-10.7-6.2-15.1-10.3c-2.7-2.5-5.4-5-8.4-7c-12.2-8.5-21.8-7-31.6,1.9c-7.3,6.6-12.6,14.5-16.6,23.4
		c-5.9,12.9-8.5,26.6-11.4,40.3c-2.5,11.7-4.2,23.6-5.9,35.4c-1.1,7.6-2.2,15.2-2.2,22.8c0,27.3-1.7,54.6,2,81.8
		c1.4,10.5,2,21.2,5.2,31.4c1.2,3.8,1.7,7.8,2.9,11.6c2.1,7,4.1,14.1,6.8,20.9c3.5,8.7,8.2,16.7,13.8,24.3
		c6.7,9.1,13.1,18.7,22.3,25.4c8,6,15.7,12.4,23.3,18.8c9.8,8.1,18.5,17.2,25,28.3c11.4,19.8,16.7,41.5,18.2,63.8
		c1.6,22.9,1.2,45.9-3.5,68.6c-3.1,15-6.8,29.9-13.1,43.9c-2.4,5.4-5.7,10.5-9,15.5c-2.4,3.6-5.8,6.5-9.8,8.3
		c-2.9,1.3-5.8,1.3-8.6-0.3c-5-2.9-9.5-6.3-12.7-11.1c-5.6-8.6-11.2-17.3-16.4-26.3c-4.1-7.2-7.6-14.8-11.4-22.2
		c-5.7-11.3-11.3-22.6-17-33.9c-1.5-2.9-2.5-6.2-5.9-8.6c-7.4-0.5-15.3-1.2-22.7,0.3c-2.3,3.4-1.7,6.4-1.1,9.3
		c3.2,15,6.4,30,9.9,44.9c2.8,12,5.9,23.9,8.9,35.9c0.4,1.6,0.7,3.3,0.8,4.9c0.8,8.3,1.4,16.6,2.2,24.9
		C561.8,852.3,562.3,856.5,564.4,860.2z M390.4,598.7c0-8.3,0.3-16.7-0.1-25c-0.7-14.3-2.3-28.5-2.9-42.8c-0.6-16-3.1-31.8-5.1-47.6
		c-2.3-17.8-6.6-35.3-11-52.8c-6.3-24.7-15.1-48.2-28.6-70c-4.5-7.2-10.2-13.1-17.2-17.8c-11.7-7.9-27.2-7.3-38.2,1.5
		c-8.7,6.9-15.8,15.2-21,25.1c-6.5,12-11.9,24.5-16.2,37.5c-5.4,16.5-10.1,33.1-13.3,50.1c-2.8,14.7-5.1,29.5-7.2,44.3
		c-1.3,9.2-2.7,18.4-2.5,27.8c0.1,6-0.1,12-0.2,18c0,2.7-0.1,5.3-0.3,8c-0.4,6-1.1,11.9-1.2,17.9c-0.2,11.3-0.1,22.7,0,34
		c0,3.3,0.3,6.6,0.6,10c0.3,4,0.9,7.9,1,11.9c0.2,5.7,0.1,11.3,0.1,17c0,17,1.9,33.9,5.3,50.5c0.3,1.3,0.6,2.6,0.7,3.9
		c0.8,10.4,4,20.2,6.7,30.1c3.3,12.2,8.4,23.9,13.6,35.4c6.7,15,17,27,31.2,35.4c14.6,8.7,29.7,8.7,44.8,1.1
		c5.7-2.9,10.8-6.6,15.3-11.2c7.8-7.9,13.8-17,18.6-27c4.7-10,7.9-20.5,11.1-31c7.5-24.3,10.8-49.4,12.8-74.6c0.3-4,0.4-8,0.8-12
		C389.8,630.7,391.6,614.8,390.4,598.7z M712.2,326.7c-1.6,4.2-1.1,7.5-0.5,10.8c0.8,4.3,1.8,8.5,2.6,12.7c1,5.2,2.8,10.5,2.7,15.7
		c-0.2,13.6,2.2,27.2,0.6,40.8c-0.2,2,0.2,4,0.4,6c0.3,4.6,0.9,9.3,0.9,13.9c0.1,14.7,0.1,29.3,0.1,44c0,15,0.1,30,0.1,45
		c0,14.7,0,29.3,0,44c0,14.7,0,29.3,0,44c0,14.7-0.1,29.3-0.1,44c0,15-0.3,30,0.1,45c0.4,14.6-1.3,29.2-0.1,43.9c0.1,1,0,2-0.1,3
		c-1.7,9.8-3.3,19.7-5.1,29.5c-0.6,3.6-1.7,7.1-2.3,10.7c-0.4,2.3-0.6,4.7,1.8,7.2c2,0.2,4.5,0.6,7.1,0.6c15.7,0,31.3-0.1,47-0.1
		c8.7,0,17.4-0.2,26,0.3c10.8,0.6,21.1,3.1,28.8,11.8c1.5,1.7,3.5,3.1,5.5,4.3c2.6,1.5,5.5,2.4,8.9,0.3c0.3-2.4,0.6-5,0.8-7.5
		c0.8-10,1.1-20,2.6-29.8c2.5-16.1,5.5-32.2,10-47.9c3.2-11.4,3.5-22.9,4.1-34.9c-1.3-0.6-2.5-1.5-3.7-1.5
		c-5.9,0.4-11.9,1.1-17.8,1.7c-6.2,7.3-10.8,15.4-15.1,23.7c-1.7,3.2-3.4,6.6-5.5,9.5c-6.1,8.3-12.4,16.5-18.7,24.7
		c-8.7,11.4-21.1,17-34.3,21.1c-0.3,0.1-0.7,0.1-1,0.2c-3.3,0.5-6.1-1.4-6.4-4.7c-0.3-3-0.3-6-0.3-9c0-38.3,0-76.7,0-115
		c0-28.7-0.1-57.3,0-86c0-2.6,0.5-5.2,0.8-8.5c8.6-1.2,16.6-2.6,24.2,2.8c3.2,2.3,6.7,4.4,10.3,6.1c8.4,4,14.9,10.1,19.5,18
		c4.4,7.5,8.5,15.1,12.3,22.9c3.9,7.9,8.9,14.9,14.4,21.6c1.4,1.7,3.2,2.4,5.1,0.5c0.1-0.3,0.4-0.7,0.4-0.9c-2-13.5-3.6-27-6.1-40.4
		c-2.9-16-5.8-32.1-7.7-48.3c-2.1-18.9-4.2-37.7-5.2-56.6c-0.1-1.5,0.2-3.3-1.6-4.3c-2.4,0.5-2.6,2.8-3.6,4.4
		c-4.1,6.8-8.2,13.7-12.3,20.6c-3.5,5.9-8.3,10.4-14.6,13.2c-2.4,1.1-4.8,2.3-7.2,3.5c-7.3,3.7-15.1,5.1-23.3,4.4
		c-1.5-0.1-3-0.9-5-1.5c-0.2-3.3-0.4-6.2-0.4-9.2c-0.1-41.3-0.1-82.7-0.1-124c0-5.3-0.1-10.7,0-16c0-1.5,0.9-3,1.2-4
		c6.6-0.4,12.5-0.7,18.5-1c3.6-0.1,6.5,1.3,8.4,4.4c0.5,0.9,1,1.7,1.5,2.6c8.8,15.3,20.1,29,29,44.2c1,1.7,2,3.6,3.5,4.8
		c2.4,2,3.8,4.6,4.9,7.4c2.6,6.7,7.7,9.7,14.7,10c4,0.1,8,0.6,11.9,0.8c1.2,0.1,2.4-0.3,4.1-0.6c-0.4-2.4-0.5-4.4-1-6.3
		c-1.1-4.9-2.5-9.7-3.5-14.5c-1.6-7.8-3-15.7-4.4-23.5c-3-16.4-6.1-32.7-9-49.1c-1-5.9-1.6-11.9-2.5-17.8c-0.3-2-1.1-3.9-4.3-4
		c-1.7,1.4-3.6,3.2-5.7,4.7c-2.7,2-5.3,4.2-8.3,5.5c-7.4,3.1-15,5.6-23.2,5.4c-2.3-0.1-4.7-0.1-7,0.2c-12.6,1.6-25.2,1.5-37.9,0
		c-2.6-0.3-5.4-0.5-8-0.1c-6,0.8-11.9,1.3-17.8-0.1C715.2,325.8,713.8,326.4,712.2,326.7z M402.7,338.6c-1.6,3-0.2,5.1,0.7,7.2
		c6,13,8.1,26.6,7.7,40.8c-0.2,9.7-1.2,19.3-1.3,28.9c-0.3,25-2.2,49.9-2.5,74.9c-0.1,4.3-0.1,8.7-0.2,13
		c-0.2,9.6-0.5,19.3-1.4,28.9c-1,10.6-0.5,21.3-0.7,32c-0.1,3.3-0.4,6.6-0.6,10c-0.3,4-0.9,7.9-1,11.9c-0.3,13-0.3,26-0.5,39
		c0,3-0.1,6-0.2,9c-0.4,7-1.2,13.9-1.3,20.9c-0.3,15.3-0.3,30.7-0.3,46c-0.1,17.4,1.2,34.6,5.7,51.4c1.5,5.5,2.1,11.4,4.7,16.2
		c2.9,5.2,4.2,11,7.3,16c1.2,2,2.6,3.9,4.1,5.6c13.9,15.2,31.5,18,50.4,14c18.2-3.8,29.3-16.8,35.9-33.2c5.2-13,8.8-26.5,10.1-40.6
		c0.9-10.3,2.4-20.5,3.2-30.8c0.4-5.9-0.2-12-0.4-17.9c-0.1-2.3-0.6-4.6-0.6-7c-0.3-21-1-41.9-2.2-62.9c-1-17.6-0.2-35.3-1.7-52.9
		c-1.4-15.9-1.3-31.9-1.8-47.9c-1-34.3-0.6-68.6-0.8-103c-0.1-10.7,1.2-21.3,3.5-31.7c2-9.1,3.9-18.2,5.9-27.3
		c0.6-2.9,1.5-5.9-0.7-8.5c-7-1.5-26.6-2.1-40.9-1.2c-1.6,0.1-3.1,0.7-4.6,1.1c-2,4-0.7,7.6-0.1,11.1c4,26.3,10.7,52.2,13.9,78.7
		c1.5,12.2,3.6,24.3,5.1,36.6c1.8,14.5,3.5,29.1,4.9,43.6c1.3,13.9,2.4,27.8,3.3,41.8c0.9,12.9,1.5,25.9,2.2,38.9
		c0,0.7,0.1,1.3,0.2,2c2.7,15.9,1.3,31.9,0.8,47.8c-0.2,6.6-0.9,13.3-1,19.9c-0.3,16.7-0.1,33.3-0.7,50c-0.4,12.4-2.7,24.5-7.1,36.1
		c-3,7.8-7.1,14.8-13.3,20.8c-7.8,7.6-25.8,9.3-34.1-1.5c-2.2-2.9-4.5-5.8-6.3-8.9c-7-11.8-9.3-25-10.6-38.2
		c-1.3-13.6-1.7-27.3-1.7-40.9c-0.1-15.6,0.8-31.3,1-46.9c0.3-20,0.4-40,0.6-60c0.1-5.3,0.2-10.7,0.5-16c1.1-20.9,2.3-41.9,3.6-62.8
		c0.7-11.6,1.4-23.3,2.3-34.9c0.6-8.3,1.4-16.6,2.3-24.9c1.5-13.6,3.6-27.1,4.8-40.6c1.4-15.9,3-31.8,7.9-47.2
		c0.6-1.9,0.8-3.9-1.3-6.1C438,340.4,420.2,336.1,402.7,338.6z M264.4,214.6c0.3,1.8,0.8,3.4,0.8,4.9c0.1,19.3,0.2,38.6,0.3,58
		c0,5.5-1.2,10.5-3.9,15.3c-1.6,2.8-3.7,5.5-3.6,9.5c5.6-0.2,10.9-0.5,16.1-0.5c9-0.1,18,0,27,0c1.6,0,3.4,0.1,4.2-1.4
		c-1.1-5.8-2.4-11.3-3.2-16.8c-1.7-11.9-3.5-23.7-4.7-35.6c-1.3-13.2-1.9-26.6-2.7-39.8c-0.1-1-0.2-2-0.3-3
		c-1.1-13.9-2.5-27.8-3.2-41.8c-0.9-16.3-0.2-32.6-1.7-48.9c-1.1-11.9-0.2-24-0.2-36c0-6.1,0.9-11.9,4.6-17c1-1.3,1.2-3.1-0.4-4.5
		c-0.6-0.3-1.2-0.7-1.8-0.7c-13.3,0-26.6-0.1-40,0.1c-1.1,0-2.2,1-3.8,1.7c3.7,9.5,6.1,18.7,7.1,28.4c0.6,6.3,1.4,12.6,2.5,18.8
		c2.3,13.1,3.9,26.3,3.9,39.7c0,2.3,0,4.7,0.5,7c1.8,8.6,1,17.3,1.2,25.9c0,1.9-0.8,3.7-1.3,5.6c-6.3,1.1-12.1,2.3-18.2,1.3
		c-2.9-0.5-6,0.1-8.9,0.2c-5.7,0.2-11.3,0.4-17,0.4c-1.2,0-2.5-0.7-3.9-1.1c-0.3-1.5-0.8-2.8-0.8-4c0.7-20.6,1.5-41.2,2.3-61.9
		c0-0.7,0.2-1.3,0.2-2c1.1-10.6,2.6-21.2,3.3-31.8c0.4-6.8,1.7-13.2,5.2-19c0.9-1.4,1.7-2.9,2.1-4.5c0.3-1.1,0-2.5-0.1-4
		c-1.7-0.3-2.9-0.8-4.2-0.8c-14-0.1-28-0.1-42,0c-0.6,0-1.1,0.6-2.1,1.1c0.2,1.1,0.2,2.4,0.7,3.6c1,2.8,2.2,5.6,3.3,8.4
		c4.3,11,6.8,22.3,4,34.2c-0.5,1.9-0.4,4-0.5,6c-0.4,12.3-0.5,24.6-1.9,36.9c-1.5,14.2-1.7,28.6-2.4,42.9c-0.1,1.7-0.1,3.3-0.3,5
		c-1.7,18.6-3.3,37.1-3.3,55.8c0,13.1-1.3,25.9-5.4,38.4c-1.3,4-2.5,8.1-2,13c14.7,1.1,29-0.3,43.1,1.7c0.9,0.1,1.8-0.6,3.3-1.1
		c0-1.2,0.3-2.6-0.1-3.7c-0.7-1.8-2-3.4-2.9-5.2c-3.1-5.7-4.7-11.6-3.4-18.2c0.8-4.2,0.7-8.6,0.9-12.9c0.6-14.3,1.2-28.6,1.8-42.9
		c0.1-1.6,0.6-3.2,1-4.7c1.1-0.7,1.9-1.4,2.8-1.6c1.3-0.3,2.7-0.6,3.9-0.4c10.9,1.8,21.9,0.9,32.9,1.2
		C256.7,213.4,260.1,212.7,264.4,214.6z M411.6,127.8c-4.7,2.3-6.9,5.7-9.6,8.6c-3.7,3.9-7.5,7.7-12.4,9.9
		c-11.7,5.4-24.2,6.3-36.7,5.6c-2.3-3.4-1.7-6.9-1.7-10.1c-0.1-19-0.2-38-0.2-57c0-5,0-10,0.3-15c0.1-1.9,0.9-3.7,1.5-6
		c5.3-0.1,10.3-0.2,15.2-0.1c1.3,0,2.7,0.3,3.8,0.9c1.4,0.7,3,1.7,1.3,4c-2.2-0.2-4.4-0.6-6.7-0.6c-0.5,0-1.1,1-2.1,1.9
		c3.9,1.1,7.5,1.3,10.2,3c3.9,2.4,7.5,5.5,10.9,8.7c8.5,8,16.8,16.1,25.2,24.2c2.2,2.2,4.8,3.6,7.8,4.1c5.2,0.9,10.5,1.9,15.7,2.7
		c1.2,0.2,2.5-0.2,3.6-0.3c0.7-5.1,0.6-5.1-0.5-8c-2.2-5.6-4.8-11-6.5-16.7c-3-9.9-5.4-19.9-8.2-29.8c-0.9-3.1-0.8-6.7-3.3-9.1
		c-3-1-5.3,0.6-7.6,1.9c-9.4,5-19.7,6.7-29.9,6.9c-17.9,0.4-36,1-53.9-1.2c-3.6-0.4-7.3-0.2-11-0.1c-0.9,0-1.7,0.8-3,1.5
		c0.9,2.9,1.6,5.8,2.5,8.6c3.3,9.9,4.9,19.9,4.9,30.4c-0.2,57.3-0.2,114.6-0.1,171.9c0,8.8-1,17.2-4.8,25.2
		c-1.2,2.5-2.8,5.3-1.6,8.9c1.2,0.1,2.6,0.6,3.7,0.3c5.6-1.5,11.2-1.3,16.9-1.3c14,0.1,28,0,42,0.2c14.7,0.2,29.2,1.2,42.6,8.5
		c2.6,1.4,5.7,2.1,8.5-1c0.2-1.6,0.6-3.6,0.8-5.5c1.4-11.3,3.1-22.4,8.2-32.7c1.2-2.4,2.3-4.8,3.3-7.3c1.4-3.7,2.9-7.5,3.9-11.3
		c0.7-2.6,0.6-5.3-2.2-7.8c-8.3-1.9-16.6-1.7-23.6,5.2c-2.3,2.3-5.2,4.2-7.5,6.6c-6.9,7.3-15.2,13-23.2,18.9
		c-9.1,6.6-19.6,9.9-30.5,11.7c-1.8,0.3-3.7-0.5-5.8-0.8c-0.3-2.1-0.7-3.7-0.6-5.4c0.5-34.3-0.9-68.6,1.4-102.9
		c0.1-1.9,0.7-3.8,1.2-5.9c2-0.4,3.6-0.9,5.1-1c6.1-0.5,11.8,1.3,17.6,3.2c19.6,6.3,17.9,5.3,33.1,20.8c4.7,4.8,9.5,9.4,14.3,13.9
		c0.8,0.8,2.2,1.1,3.2,1.5c2.1-2.1,1.6-4.1,1.1-6c-1.9-7.4-3.9-14.8-5.9-22.2c-3.6-13.2-6.7-26.4-7.8-40.1
		C414.2,137.7,413.9,133,411.6,127.8z M32.2,113.5c3-0.2,5,0,6.8-0.5c3.9-1.1,7.1-3.5,10-6.4c10.3-10.4,21.6-19.9,29.1-32.8
		c0.5-0.8,2.1-1,3.1-1.5c2.7,3.4,1.9,6.9,1.9,10.1c0,57.3,0,114.6,0,171.9c0,7.7-1.2,15.2-3.5,22.6c-2.1,6.7-3.7,13.5-5.5,20.2
		c-0.3,1.2,0,2.4,0,3.7c1.3,0.4,2.3,0.9,3.2,0.9c13.7,0,27.3,0,41-0.1c1.1,0,2.3-0.8,3.6-1.2c-0.5-1.8-0.6-3.1-1.1-4.3
		c-5.8-13.7-7.6-28.1-7.9-42.9c-1-43.6,1.6-87.2-1.6-130.8c-1-13.6-0.2-27.3-0.2-41c0-2.7,0.1-5.3,0.3-8c0.1-1.3,0.6-2.6,2.9-2.6
		c1.2,1.5,2.8,3.2,4.1,5.1c7.4,11.2,16.5,20.9,26.2,30c3.1,2.9,7,5,10.9,6.9c2.3,1.1,5.2,1.5,7.4-2.1c-0.8-3.4-1.6-7.2-2.6-11.1
		c-3.9-15.2-7.8-30.3-9.3-46c-0.3-3.3-0.8-6.6-3.3-9.5c-0.8,0-2.1-0.4-2.7,0.1c-1.3,1-2.5,2.2-3.4,3.6c-3.4,5.1-8.1,7.5-14,8.7
		c-5,1-9.9,1.2-14.9,0.5c-3.3-0.5-6.6-1.3-9.9-1c-9.7,0.9-19.3-0.4-28.9,0c-2.7,0.1-5.3-0.1-8-0.2c-4.3-0.1-7.7-1.8-10.5-5
		c-2-2.3-3.7-4.7-5.7-6.9c-0.8-0.8-2.1-1.1-3.1-1.5c-0.8,1-1.4,1.5-1.5,2.1c-3.9,19.2-7.7,38.5-11.5,57.8
		C33,105.5,32.8,108.8,32.2,113.5z M560.3,571.3c-1.8,2.7-1,5.7-1,8.6c0.7,33.9,1.5,67.9,2.3,101.8c0.1,3.7,0.5,7.3,1,10.9
		c0.2,1.5,1.1,2.9,1.8,4.8c3.3,0,6.2,0,9.2,0c2.7,0,5.4-0.2,8,0.2c1.9,0.3,4.2,0.8,5.4,2.1c5.1,5.2,10.5,9.8,13.8,16.8
		c8,17.2,16.9,34,25.3,51c1.3,2.6,1.9,5.6,2.8,8.5c0.9,2.8,1.7,5.7,2.7,8.5c0.6,1.6,2,2.6,4.5,1.9c0.8-1.7,2-3.7,2.8-5.8
		c3.8-10.4,5.3-21.3,6.1-32.3c0.5-6.3,0.9-12.6-1.6-18.7c-0.8-2.1-0.5-4.6-0.5-6.9c0-3.7,0.3-7.3,0.4-11c0.1-13.3,0.3-26.6-1.4-39.9
		c-2.4-18.8-10.2-34.1-25.7-45.5c-13.7-10.1-25.7-22.1-37.8-34c-4.8-4.7-9.2-9.6-12.6-15.4C564.6,574.6,563.5,572,560.3,571.3z
		 M688.9,405.9c-2.3-0.3-3.9-0.6-5.5-0.8c-6.3-0.6-12.6-1.3-18.9-1.7c-6.7-0.4-12.1-3.2-16.8-7.8c-7.1-7-14-14.2-19.3-22.8
		c-1-1.6-1.6-3.8-4.2-3.7c-0.3,0.2-0.6,0.4-0.7,0.6c-0.3,1.6-0.7,3.2-0.7,4.8c0.5,12,2,23.8,4.5,35.6c2.6,12.4,8.6,23,17.4,32
		c6.8,6.9,13.8,13.5,21.6,19.2c4.9,3.5,9,7.6,12.3,12.8c3.4,5.3,7.8,9.9,11.9,14.7c0.7,0.8,2.1,1,3.9,1.7c0.2-3.1,0.5-5.3,0.6-7.6
		c0.8-23.6-1.2-47.1-4.4-70.5C690.6,410.5,689.8,408.6,688.9,405.9z M138.8,1070.2c2.3-2.7,3.4-5.8,4.5-8.8
		c3.4-9.2,4.7-18.8,5.6-28.3c1.2-12.2,1.9-24.6,1.8-36.9c-0.2-19-1.2-37.9-2-56.9c-0.1-2-0.5-4-0.8-5.9c-2.2-12.8-3.6-25.7-3.2-38.7
		c0.4-14.3,0.1-28.7,0.1-43c0-2.5-0.2-4.9-0.3-7.4c-1.1,9.3-1.3,18.6-1.4,27.9c-0.1,3.7-0.3,7.3-0.5,11c-0.3,5.3-1.1,10.6-1.1,15.9
		c-0.1,37.7-0.2,75.3-0.2,113c0,11.4-0.8,22.6-2.6,33.8c-0.4,2.2-1.4,4.3-2.4,7.1c-3.3-3.6-3.7-8-7.2-11.6
		c0.2,8.2,2.4,14.9,4.7,21.4C134.8,1065.4,135.7,1068.3,138.8,1070.2z M151.4,273.1c2-4.7,1.5-8.4,1.6-12c0.2-5.3,0.2-10.6,0.6-15.9
		c1.1-14.9,2.5-29.8,3.6-44.7c1.3-17.6,2.3-35.2,3.5-52.7c0.1-1.7,0.2-3.3,0.2-5c0-0.7-0.1-1.3-0.2-2c-0.3-1.8-1.7-3.1-3.4-3
		c-1.9,0-3.2,1-3.7,2.7c-0.5,1.9-0.8,3.9-1,5.9c-1.3,14.2-2.6,28.5-3.7,42.7c-0.7,8.9-1.7,17.9-1.9,26.8c-0.3,15.3-0.1,30.6,0,45.9
		c0,2.9,0.9,5.9,1.6,8.7C148.9,271.3,150,271.8,151.4,273.1z M482.2,607.3c-3.4,2.4-2.9,5.4-2.9,8.3c-0.2,20.3-0.2,40.6-0.4,60.9
		c-0.1,16.7-0.9,33.3-5.9,49.4c-1,3.3-0.7,6.6,0.2,9.9c0.3,1.1,1.3,2.1,2.2,3.7c1.3-1.4,2.7-2.1,3-3.2c1.6-4.7,3.5-9.4,4.2-14.3
		c1.3-9.2,1.9-18.5,2.8-27.8c0.3-3.3-0.2-6.7,1.7-9.6c3.8-3.1,9.4,0.1,13.3-3.7c-3.7-5.1-9.8-1.1-14.5-4.9c-0.7-6.8-0.5-14.4-0.7-22
		c-0.2-8-0.2-16-0.7-24C484.1,622.4,483,614.9,482.2,607.3z M140.7,599.8c-0.4,0-0.8,0.1-1.1,0.1c-0.3,3.6-0.7,7.1-0.8,10.7
		c0,10.3,0.2,20.6,0.3,31c0.2,15.7,0.4,31.3,0.5,47c0,2.6,0.6,5.4-2.3,8c-4,1.2-8.6,0.4-13.2,0.5c-8.4,0.2-8.5,0.1-13,2.3
		c0.8,1.8,2.6,1.9,4.2,2c4,0.2,8,0.1,12,0.2c1,0,1.9,0.4,2.7,0.5c1.8,1.7,3.5,3.2,5.4,5c3-0.4,5.9-0.8,8.6-1.1
		c1.6-1.9,2.8-3.4,3.6-4.4c3.8-0.7,7.1-1.2,10.3-1.9c1.3-0.3,2.3-1.2,1.2-3.5c-3.5-0.3-7.4-0.6-11.5-1c-1.9-5.1-1.9-10.1-2-15
		c-0.2-17.3-0.3-34.6-0.8-51.9c-0.2-7-1.1-13.9-2-20.9C142.5,604.7,141.4,602.2,140.7,599.8z M868.5,345.7c-0.3,0.1-0.7,0.2-1,0.3
		c0.3,2.2,0.5,4.5,0.9,6.7c1.7,9.5,3.7,18.9,5,28.4c2.3,16.5,6.4,32.6,9.8,48.8c0.7,3.2,1.9,6.4,3,9.5c0.3,0.8,1.1,1.4,2.7,3.3
		c-0.4-3.9-0.4-6.5-0.9-9.1c-5.7-27.3-11.5-54.6-17.4-81.8C870.1,349.8,869.2,347.8,868.5,345.7z M836,656.2c3,4,6.2,3.6,9,3.6
		c12,0.2,24,0.2,36,0.2c1.3,0,2.7,0,3.9-0.4c1.1-0.4,2.1-1.2,3.7-2.2c-1.3-1.4-2-2.7-3-3.1c-1.8-0.7-3.8-1.3-5.8-1.3
		c-10.3,0.2-20.6,0.4-31,1C845,654.2,841.1,655.3,836,656.2z M793.5,424.1c-0.3,2.9-0.6,4.5-0.6,6.1c0.1,4.8-1.1,9.2-4.2,12.9
		c-3.7,4.5-4,9.6-3.4,15c0.2,1.4,0.9,2.4,3,2.3c5.4-5.2,8.2-12.3,11.1-19.2C802.4,434.3,801.3,431,793.5,424.1z M876,747.5
		c-1.4-2.5-4.8,1-5.8-2.1c0.6-4.6,6.9-2,7.9-6.8c-1.3-0.3-2.5-1.1-3.5-0.9c-5.4,1.5-10.8,3-15.7,6.9c-0.3,1.3-0.3,3-1,4.4
		c-0.8,1.7-2.3,3.1-3.3,4.8c-0.4,0.7-0.2,1.7-0.2,3.2c6.9-1.6,13.2-3.5,19.3-5.8C875.2,750.5,876.4,749.4,876,747.5z M766,665.1
		c5.9-0.2,10.8-1,15.6-2.1c2.4-0.6,3.7-3,3.3-5.3c-0.3-1.9-1.8-3.4-4.2-3.5c-3.9-0.2-7.9-0.4-11.8-0.1c-1.7,0.1-3.4,1.5-5.5,2.4
		C764.3,659.3,765,661.8,766,665.1z M388.1,239.5c6.8-2.7,12.9-6.6,16.1-13.6c-0.8-3.3-2.2-5.2-5.4-5.5c-3.8,4.3-7.6,8.4-11.2,12.6
		C386.1,234.7,384.8,236.9,388.1,239.5z M862.4,679.1c0.8,0.7,1.7,1.9,2.7,2c6.6,0.5,13.2,0.9,19.8-0.7c0.5-0.1,0.8-0.9,1.4-1.6
		c-0.5-0.7-0.9-2-1.6-2.1c-7.2-1.2-14.4-1.8-21.5,1C863,677.8,862.9,678.3,862.4,679.1z M871.1,792.5c-1.8,8.1-2.2,24.9-1,34.6
		c0,0.3,1,0.5,1.8,0.9c0.2-1.4,0.6-2.6,0.6-3.9c-0.1-9.8-1.2-19.7-0.2-29.5C872.3,794.3,872,793.9,871.1,792.5z M870.1,633.1
		c-5.6-2.7-10.9-0.2-16.3,0.4c-1.5,0.2-3.3,0.4-3.6,3.1c6.6,2.4,13.1,1,19.7-0.2C870,635.1,870.1,634.2,870.1,633.1z M467.4,683.2
		c0-2.3-1.3-3-2.6-2.9c-6.2,0.7-12.4,1.5-18.6,2.4c-0.5,0.1-0.7,1.3-1.4,2.5C453,685.9,460.4,686.4,467.4,683.2z M784.1,644.3
		c-1-0.7-1.7-1.7-2.5-1.8c-6-0.2-11.9,0.7-16.9,4.3c-0.3,0.2,0,1.1,0,2.2c6.1,1.1,11.7-1.5,17.4-2.6
		C782.7,646.3,783.2,645.2,784.1,644.3z M146,139.9c-1.3,9.2-1.2,36.6,0.1,45.2C147.6,172.9,147.5,148.1,146,139.9z M532.5,677.2
		c8.3,2.4,11.2,2.3,19-0.3c0.3-0.1,0.4-1.1,0.8-2.6C545.9,673.1,540,673.8,532.5,677.2z M827.1,640.5c7.5,0.9,11.5,0,16.1-3.6
		c-4.9-2.1-8.8-2.2-13.7-0.1C827.9,637.4,826.5,638.4,827.1,640.5z M851.5,774.5c2.3,1.2,3.3,2.2,4.4,2.2c4.9,0.2,9.7,0.3,14.6,0.2
		c0.5,0,0.9-1.3,1.7-2.6C865.4,772.9,859.1,772.2,851.5,774.5z M263.7,1106c-0.4-4.5-0.8-9.1-1.2-13.6c-0.1-1-0.1-2-0.3-3
		c-0.3-1.3-0.6-2.6-0.9-3.9c-0.3-1.3-0.7-2.5-1-3.8C259,1090.1,261.7,1098,263.7,1106z M245.7,886.9c1.2-4.1,1.1-8.2,1-12.3
		c-0.1-4.1-0.2-8.2-0.3-12.3c-0.2,0-0.4,0-0.7,0C245.7,870.5,245.7,878.7,245.7,886.9z M243.8,809c-0.5,0.1-1,0.3-1.5,0.4
		c0.4,5.2,0.9,10.4,1.3,15.6c1.4-4.1,1-8.2,0.9-12.3C244.5,811.4,244,810.2,243.8,809z M646.7,670.4c2,1.7,4.3,1.3,6.5,0.7
		c1.2-0.3,2.4-0.9,1.8-2.6C647.8,666.9,647.8,666.9,646.7,670.4z M298.8,92.1c-0.1-2.2-1.1-3.7-2.1-3.1c-0.5,0.3-0.9,1-1,1.5
		c-0.1,1.3,0.1,2.7,1.6,3C297.8,93.6,298.5,92.4,298.8,92.1z M386.5,220.1c-0.1,0-0.3,0-0.4,0c0,2.2,0,4.3,0,6.5c0.1,0,0.3,0,0.4,0
		C386.5,224.4,386.5,222.2,386.5,220.1z M762.9,808.1c-1.5-1.1-2.1-2-2.7-2c-0.8,0-1.6,0.6-2.4,1c0.4,0.7,0.7,2,1.2,2
		C759.9,809.2,761,808.6,762.9,808.1z M866.4,327.9c-0.2,0-0.5,0-0.7,0c0,1.8,0,3.5,0,5.3c0.2,0,0.5,0,0.7,0
		C866.4,331.4,866.4,329.6,866.4,327.9z M223.2,696.7c-1.5-1.7-2.9-1.8-4.5,0C220.5,697.9,221.9,698.1,223.2,696.7z M862.4,309
		c0-0.3,0-0.6,0-0.9c-0.3,0.2-0.6,0.4-0.7,0.6c-0.1,0.2,0.2,0.5,0.3,0.8C862.1,309.3,862.2,309.1,862.4,309z"/>
	<path class="st0" d="M1996,203.7c3.2,0.1,5.6,2,8.1,3.6c8.8,6,17.7,11.9,26.4,18.1c4.6,3.3,8.7,7.2,13,10.9
		c1.9,1.6,2.7,3.7,2.8,6.2c0.2,3.8-2.1,6.5-5.8,6.7c-7.1,0.5-14-0.5-20.7-2.7c-3-1-5.6-3.5-8.3-5.4c-3.8-2.6-7.6-5.4-11.5-7.9
		c-1.3-0.8-3.1-1.3-4.4,0.5c-0.4,2,1,3.1,2.1,4.3c5.7,6,11.5,12.1,17.3,18.1c6.3,6.5,12.7,12.8,18.8,19.3c3.9,4.1,3.7,4.3,5.3,10.5
		c-3,3.3-6.1,6.6-10,10.9c-1.4,0.8-4,0.3-6.6-0.4c-8.4-2.3-16.2-6-23.8-10.3c-11.1-6.1-22.2-12.1-33.1-18.5
		c-8.3-4.9-16.7-9.8-22.8-17.6c-1-1.3-2.5-2.4-3.1-3.9c-2.5-5.7-7-9.7-10.8-14.3c-3.8-4.6-8.4-8.6-9.4-13.8c-1.5-1.2-2-1.8-2.5-2
		c-8.7-2.1-15.7-7.2-22.4-12.6c-1.3-1-2.5-2.2-3.8-3.2c-3.8-2.9-8-3.6-12-0.7c-6.3,4.6-13.4,5.5-20.8,5.6c-5.3,0-10.7,0.5-16,0.6
		c-3.6,0.1-7.3-0.1-11.3-0.1c-0.8-1.6-1.8-2.9-2.2-4.4c-0.8-2.6-2.9-3.3-5-4.3c-2.4-1.2-2.7-3.9-1-5.8c2-2.4,4.5-3.9,7.4-4.3
		c2.3,0.3,2.5,2.2,3.2,3.7c1.8,3.8,4.9,5.2,8.9,5.2c3.6-0.1,5-1.2,8.1-6.7c-1.5-2.2-3.2-4.6-4.9-7c0.3-2,1.9-2.5,3.6-2.6
		c2.3-0.1,4.6,0,6.9,0c1-2-0.7-2.4-1.7-2.7c-3.8-1.4-7.8-1.7-12.1,0c-0.5,0.9-1.1,2-1.7,3.1c-0.6,1.1-1.2,2.2-2,3.6
		c-1.8-0.2-3.5-0.2-5.1-0.6c-6.9-1.8-13.8-1.8-20.8-1.7c-4.1,0.1-8.1,1.1-11.1,3.9c-4,3.7-8.8,5.7-13.3,7.2
		c-1.8,2.9-0.7,4.4,1.1,5.6c3,1.8,6.4,2,9.7,1.8c4.3-0.2,8.6-0.7,12.7-1c5.8,4.9,6.3,7.1,2.9,14.6c-3.1,1.6-6.5,0.9-9.8,0.8
		c-6.9-0.1-13.2,1.7-19.1,5.1c-1.3,0.7-2.3,2.2-3.6,3.6c3.1,4.4,5.9,8.5,8.9,12.4c6.8,8.7,12.7,18,17.7,27.8
		c3.6,7.2,9.3,11,16.8,12.8c1.6,0.4,3.2,0.8,5.2,1.2c3.4,3.1,6.3,7.5,12,8.5c6.7-4.1,10.9-11.2,16.4-16.4c3.2-0.1,1.1,2.9,4.1,4.2
		c3.3,0.4,7.7-1.2,12.1-2.6c3.5-1.1,7-2.1,10.5-3.1c10.8-3.1,21.6-3.7,32.6-1.2c2.6,0.6,5.2,0.9,7.9,1.2c0.8,0.1,1.7-0.5,2.6-0.9
		c-1-3.3-4.9-3.2-6.5-5.7c2.6-1.1,4.3,0.2,6,1.2c8.8,5.1,16.1,11.9,22.4,19.7c7.2,8.8,13.8,17.9,20.9,26.8c4.6,5.8,7.8,12.4,10.9,19
		c10.7,22.7,17.4,46.8,23.5,71c7.3,29.2,11.9,58.8,14.6,88.7c2.6,28.5,5,57.1,7,85.7c1,13.9,0.7,28,0.9,42c0.3,23,1.1,46-0.3,69
		c-1.5,24.6-2.7,49.2-4.1,73.9c-1.2,19.3-2.1,38.6-4,57.8c-2.5,24.8-4.2,49.8-10,74.2c-1,4.2-1.7,8.5-2.4,12.8
		c-3.8,21.4-10.7,42-18.5,62.2c-5.9,15.2-12.7,30.1-22.3,43.5c-4.1,5.7-8.8,10.9-14,15.6c-8.8,7.8-18.8,11.9-30.9,11.8
		c-25.7-0.4-51.3-0.2-77,0.1c-6.6,0.1-11.7-2.2-16.2-6.4c-3.4-3.2-6.7-6.5-9.5-10.2c-1.7-2.3-3-5.3-3.5-8.1
		c-0.9-6.1-0.7-12.4,0.5-18.6c0.8,4.2,1.7,8.4,2.5,12.6c1.1,6,3,11.5,6.8,16.4c2,2.6,4.4,4.1,7.6,4.1c3.3,0.1,6.7,0.1,10,0.1
		c23.3,0,46.7-0.2,70,0.1c11.6,0.1,21.2-3.7,30.2-11c11.4-9.3,20-20.7,26.4-33.5c9.1-18.1,17.1-36.8,21.7-56.7
		c1.9-8.1,4.4-16.1,6.4-24.1c1.2-4.8,1.8-9.8,2.7-14.7c0.5-2.9,1-5.9,1.7-8.8c3.5-14.6,6-29.3,6.6-44.4c0.5-12.3,2.2-24.5,3.1-36.8
		c0.6-8,0.7-16,1.2-24c0.3-5,0.4-10,1.4-14.9c1.2-5.9,1.6-11.8,1.7-17.8c0.2-12.7,0.4-25.3,0.8-38c0-2,0.6-3.9,0.7-5.9
		c0.4-3.6,0.9-7.3,0.9-10.9c-0.1-35,0-70-0.6-105c-0.2-14.6-1.9-29.2-2.9-43.8c-0.2-3-0.4-6-0.4-9c-0.1-13-1.5-25.9-3.4-38.8
		c-0.5-3.6-0.5-7.3-0.9-11c-0.9-8.3-1.9-16.5-2.7-24.8c-1.8-17.9-6.1-35.4-9.8-53c-3.1-14.6-7.3-29.1-12.6-43.1
		c-1.3-3.4-2.8-6.8-3.8-10.3c-4.4-15.4-13.1-28.3-22.2-41.1c-0.3-0.5-1.1-0.6-2-1c-4.2,2.3-1.5,8.5-6,11.1
		c-4.5-1.8-7.7-6.6-14.5-7.8c2.1,3.2,3.3,5,4.5,6.9c7.6,11.1,12.1,23.7,17.1,36c9.5,23.2,16.3,47.2,21,71.8
		c3.1,16.4,6,32.8,8.6,49.2c1.3,7.9,1.5,15.9,2.7,23.8c2.2,15.2,3.3,30.4,4.1,45.7c0.8,15,1.2,30,2.4,44.9c2,25.3,1.4,50.6,1.2,75.9
		c-0.1,15,0.1,30,0.1,45c0,2.7,0.4,5.5-0.2,8c-1.9,7.6-1.4,15.2-1.8,22.9c-0.5,11.9-1.3,23.9-1.8,35.8c-0.2,3.6,0,7.2,0,12.3
		c-2.9,6-3.4,14-4.1,21.9c-1,10.6-1.9,21.2-3.4,31.8c-0.5,3.9,0.2,7.9,0.3,13.1c-3,5.4-5,12.3-5.2,19.8c-0.2,6.9-1.7,13.8-2.6,20.7
		c-0.2,1.3-0.7,2.8-0.3,3.9c1.6,5.6-0.7,10.4-2.5,15.4c-3,8.5-5.6,17.1-8,25.7c-2.2,8-4,16.1-6.1,24.2c-0.6,2.2-1,4.7-2.2,6.6
		c-2.3,3.7-4.5,7.3-4.6,11.9c0,1.2-0.8,2.6-1.6,3.6c-3.5,4.6-5.8,9.7-8,14.9c-3,6.9-8.3,12.1-14.1,16.6c-4.5,3.5-9.9,5.4-15.8,5.4
		c-5,0-10,0-15,0.1c-3,0-6-0.1-9,0.4c-5.3,0.8-10.6,0.4-15.9,0c-9.6-0.6-19.3-0.3-29-0.5c-2.9,0-5.9-0.3-9.2-0.5c0-2.8,0-5,0-7.5
		c-1.7-1.8-3.5-3.7-5.7-5.9c0.9-5.9,1.8-11.7,2.5-17.6c1.1-8.6,2-17.2,3.2-25.8c2.1-13.9,1.8-27.9,2.7-41.8c0.6-9.3-0.1-18.6-0.2-28
		c-0.1-8,0-16,0-24c0-5-0.2-10-0.3-15c0-1.3-0.3-2.7-0.2-4c1.7-13.6-0.1-27.2,0.1-40.8c0.2-13.7,0-27.3,0-41c0-27,0.1-54,0.1-81
		c0-22-0.4-44,0.2-66c0.4-17.3-0.4-34.6-0.1-51.9c0.2-17,0-34,0-51c-0.1-15.7-0.1-31.3-0.3-47c0-3-0.4-5.9-0.6-9.3
		c-6.5-3.2-8.5-9.9-12.2-15.3c-1-1.5-1.2-3.8-1.2-5.7c-0.1-11.3-0.4-22.7,0.1-34c0.4-7.6,2.1-15.1,3.1-22.7c0.3-2.2,0.3-4.5,0.4-6.5
		c-2.1-0.9-3.2,0.1-3.8,1.2c-1.3,2.2-2.2,4.6-3.5,7.4c-5.4-2.2-10.5-4.3-15.2-6.3c-2.4,1-2.8,2.7-2.8,4.3c-0.1,15.3-1.1,30.7,0.2,46
		c1.1,13,1.3,25.9,1.8,38.9c0.1,2,0.2,4,0.3,6c0.5,7,1,13.9,1.5,20.9c0.4,5,0.8,9.9,1.2,14.9c0.2,3.3,0.4,6.6,0.5,10
		c0.3,13.3,0.4,26.6,1.1,39.9c0.5,10.6,1.8,21.2,2.8,31.8c0.1,1.3,0.2,2.7,0.2,4c-0.4,17,1.9,33.9,2.7,50.9
		c0.5,10,1.6,19.9,1.8,29.9c0.1,6.3,1.4,12.5,2.1,18.8c0.6,5.6,1.2,11.3,1.2,16.9c0.1,10.7,1.5,21.2,3.2,31.8
		c0.4,2.3,0.9,4.6,0.9,6.9c0.6,15.7,2.8,31.1,5.8,46.5c1.3,6.8,1.6,13.9,2.4,20.8c0.4,3,1,5.9,1.7,8.8c0.5,2.4,0.3,4.6-1.5,6.8
		c-1.5,0.2-3.1,0.5-4.7,0.6c-6,0.5-11.9,1.1-17.9,1.4c-3.3,0.2-6.7,0.4-10-0.2c-8.7-1.6-17.2-1.2-25.9-0.1
		c-3.3,0.4-6.6,1.1-10.4-0.9c-0.7-2.3-1.5-5.1-2.5-8.6c-1.3-0.9-3.2-2.2-5.3-3.7c0-0.9-0.2-1.9,0-2.8c1.7-6.4,3.4-12.9,5.2-19.3
		c4.6-16.5,5.1-33.5,5.1-50.5c0-7.6-0.8-15.3-1.2-22.9c-0.2-4.3-0.1-8.7-0.4-13c-1.1-14.6-2.4-29.2-3.5-43.8c-0.2-2.3-0.3-4.7-0.5-7
		c-0.8-12-1.6-23.9-2.4-35.9c-0.2-3.3-0.2-6.7-2.9-9.8c-5.9-2.4-12.8-0.7-19.3-2c-3-0.6-6.5,1-9.9,1.6c-0.6,2.2-1.5,4-1.6,5.9
		c-0.2,7.7-0.2,15.3-0.2,23c0,29.7-0.3,59.3,0.3,88.9c0.3,14.3,1.8,28.5,3.2,42.8c1.7,18,5.9,35.5,9.6,53c0.5,2.3,1.5,4.5-0.8,6.9
		c-21.1-2.8-42.4-5.9-63.1-5c-3.6-2.4-2.4-5.4-3.3-7.8c-1.1-2.8-3-4.4-6.5-3.3c-2.8,5,0.6,10.2-0.2,15.8c-1.3,0.6-2.7,1.5-4.2,1.9
		c-5.9,1.2-11.8,1.8-18.3,0.7c-2.7-5.5-7.5-8.8-12.7-11.8c-5.3-3.1-10.9-4.9-17.1-5c-9.3-0.1-18.7-0.2-28-0.2
		c-18.7,0-37.3,0.1-56,0.1c-2,0-3.9-0.4-5.6-0.5c-3-4.5-5.7-8.6-8.7-13.2c1.9-8.9,4-18.3,5.9-27.8c2.5-12.4,4.2-24.9,3.6-37.7
		c-0.5-10.3,0.1-20.6,0.3-31c0.1-6,0.1-11.9-0.8-18.1c-2.9,1.3-3,3.8-3.4,5.9c-2.3,12.1-4.4,24.1-9.1,35.6c-1.7,4.2-2.3,9-4.2,13.2
		c-1.1,2.4-2,5-2.6,7.6c-2.2,10.6-7.1,20.1-12.2,29.4c-3.7,6.7-7.8,13.2-12.4,19.3c-4.7,6.1-11,10.7-18,14.1
		c-2.7,1.3-5.6,2.4-8.5,2.6c-11,0.6-21.8,2.7-32.9,2.2c-6.6-0.3-13.3,0-20-0.1c-3.3-0.1-6.7-0.3-9.9-0.8c-3.7-0.6-7.3-0.8-10.9,0.2
		c-4,1.1-7.8,0.7-11.8-0.2c-3.9-0.9-7.9-1.2-11.8-1.7c-6.2-6.1-6.4-6.9-4.4-13.7c1.5,2.5,2.7,4.8,4.2,6.9c1.7,2.3,4.1,3.4,7,3
		c0.8-0.1,1.6-1,2.9-1.8c-1.6-2-3-3.7-4.4-5.4c-0.1-0.7-0.3-1.4-0.2-2c1.4-5.1,2.7-10.3,4.2-15.4c2.6-8.7,2.4-17.8,4.3-26.6
		c0.7-3.2,1.4-6.5,1.7-9.8c0.3-3.6,0.8-7.4,0.2-10.9c-2.2-11.6-1.6-23.2-0.6-34.8c0.5-5.7,0.6-11.3,0.2-16.9c-0.6-9-0.7-18-0.9-26.9
		c0-1.9,0.9-3.9,1.1-5.9c0.3-3.6,0.5-7.2,0.7-10.6c-1.7-1.5-2.9-2.6-4.5-4c0.7-1,1.4-2.1,2.2-3c1.4-1.6,2.3-3.4,1.3-5.5
		c-1.1-2.3-3.1-3.5-5.7-3.3c-2.6,0.2-5.2,1.6-7.9-0.3c-1.5-2.3-1.4-4.8,0.5-7.7c1.3-0.2,2.9-0.5,4.5-0.7c1.6-0.2,3.3-0.2,5-0.5
		c2.5-0.5,4.2-2.5,4.2-4.9c0-2.1-1.2-3.9-3.2-4.6c-1.9-0.7-3.8-1.4-5.8-1.6c-1.9-0.3-3.9-0.1-5.7-0.1c-2.4-6.4-2.4-12.9,0.2-27.2
		c1.6-0.4,3.5-0.9,5.4-1.2c2.9-0.4,6.1,0.5,8.6-1.7c0.7-1.4,0.8-2.8-0.7-3.5c-1.5-0.7-3.1-1.1-4.7-1.2c-2.9-0.3-5.9-0.3-9.3-0.4
		c-0.5-2.2-1.3-4-1.4-5.9c-0.2-6.3-0.3-12.7-0.3-19c0-28.3,0-56.7,0-85c0-2.6-0.2-5.2-0.4-8.2c-3.1-1-5.8-1.8-9.1-2.8
		c-1.1-1.9-2.5-4.2-3.5-6c-0.1-1.3-0.2-1.9-0.2-2.6c0.4-6,1.4-12,1.2-17.9c-0.5-20.6,3-40.5,9.7-59.9c2.9-8.5,5.8-17,8.8-25.7
		c-0.3-3.1-0.6-6.4-0.9-9.6c-2.9-1.8-5.9-1.1-8.9-1.1c-48.7,0-97.3,0.1-146,0.1c-7.3,0-14.7,0-22-0.2c-3-0.1-5.9-0.4-8.3-0.5
		c-3.3-2.8-3.5-5.6-2.3-8.7c0.8-2.2,1.9-4.3,2.7-6.5c5.1-13.7,10.6-27.4,15-41.3c5.2-16.4,6.8-33.2,3.8-50.4
		c-0.4-2.6-0.6-5.3-0.9-8.7c-0.9,1.8-1.5,2.8-2.1,3.9c-1.6-8.3-1.3-17.4,0.2-37.2c0.9-12.3,1-24.6,1.5-37.4
		c-1.8-0.5-3.3-1.2-4.8-1.2c-8,0-16,0.2-24,0.3c-1.3,0-2.7,0.1-4,0.3c-9.1,1.2-16.5-1.1-21.2-11.1c1.2-6.1,2.5-13.3,3.9-20.4
		c5.2-26.8,10.4-53.6,15.6-80.4c0.2-1,0.5-1.9,0.6-2.9c1.3-8.3,6.1-13.8,13.9-16.8c1.2-0.5,2.7-0.7,3.7-1.4c1.2-1,2.1-2.4,3.7-4.4
		c2.8-0.1,6.4-0.2,10-0.3c3.7,0,7.3,0,12.9,0c-2.8,1.2-3.9,1.6-5.1,2.1c0.3,2.6,2.7,2.1,4.2,3c1.5,0.8,3.1,1.3,4.3,2.4
		c1.5,1.3,2.7,2.9,4,4.4c1.1,1.3,2,2.6,3.3,4.3c15.8,2.9,31.6-1.2,47.7-0.6c4.3-8.6,12.7-9.2,20.4-10.7c0.5-1.5,1-2.7,1.6-4.3
		c9-1.3,18.3-1.2,27.1-0.6c4.4,4,8.3,7.6,12.7,11.6c3.6,0.1,7.6,0.4,11.5,0.4c39,0.1,78-0.1,117,0.2c20.7,0.1,41.3,0.9,61.9,1.2
		c4.3,0.1,8.6-0.3,13-0.6c3,0.1,4.9,3.7,8.2,2.8c2.9-0.8,5.8-1.6,8.4-2.9c6-3,11.5-6.6,15.9-11.8c3.5-4.1,7.8-7.2,13.4-9.2
		c3.4,3,7.1,5.8,10.1,9.2c1.7,1.9,2.5,4.7,3.3,7.2c2.6,8.3,4.9,16.6,7.6,24.9c8.4,26,16.9,51.9,25.4,77.9c1.9,5.7,4,11.3,5.9,17
		c0.8,2.5,1.5,5,2.1,7c-1.2,2.6-3,2.5-4.6,2.5c-7.7,0.2-15.3,0.4-23,0.6c-2.6,0.1-5.4-0.1-7.4,2.1c-1.1,9.3,3.3,30.4,9.4,44.7
		c4.1-0.4,6.6-4.2,10.6-5.4c1,0.5,2.2,1,3.9,1.7c10.7-3.4,21.9-6.7,32.8-10.7c10.4-3.7,20.7-7.3,31.9-7.9c4-0.2,7.9-0.9,11.9-1.7
		c6.4-1.3,6.5-1.5,10.8-8.1c5.7-2,11.8-3.1,18.4-2.4c-0.4,1.9-0.7,3.4-1.1,5.4c1.3,0.4,2.5,1.2,3.6,0.9c7.6-1.6,15.2-1.1,23.9,0.1
		c-7.9,1.2-14.4,3.2-19.4,7.8c-0.2,2.2,0.8,3.1,2.2,3.1c3.3,0,6.7,0,9.9-0.5c9.2-1.4,18.4-3,27.6-4.5c8.6-1.4,16.9-3.7,25.1-6.5
		c2.6-0.9,5.1-1.9,6.6-4.3c2.6-4.1,6.8-5.1,11.2-5.6c3-0.3,6-0.3,9-0.4c4.4-0.1,8.6-0.8,11.8-4.3c0.6-0.6,1.7-0.8,2.8-1.2
		c0.7,1.5,1.4,2.9,2.3,4.8c2.7,0,5.5,0,8.4,0c1.2,2,2.2,3.7,3.2,5.4c0.6,0,1.5,0.4,1.8,0.1c3.9-3.4,9-2,12.9-3.2
		c0.9-0.6,1.7-0.8,2-1.4c2.4-4.2,5.9-6.8,10.6-8.3c7.7-2.4,14.8-5.9,20.8-11.5c1.8-1.6,3.1-2.9,3.6-5.5c0.3-2,2.6-3.7,4.3-5.3
		c4.6-4.3,9.4-8.4,14.2-12.6c1.3-1.1,2.5-2.3,4-3c8-3.3,15-8.6,23.6-10.6c3.2-0.7,6.1-2.6,8.9-3.8c0.6-1.9,1.1-3.5,1.8-5.4
		c5.5-3.2,11.3-6.5,18.5-6.2c3.6,1.4,5,5.9,9.3,7c2.4,0.6,3.2,3.3,3,5.8c-0.3,4.6-2,8.5-6.3,10.7c-2.9,1.6-6,3-9.1,4.1
		c-5.1,1.7-9.7,4.1-14.3,7c-6.4,4.1-13.2,7.8-19.9,11.5c-3.8,2.1-7.8,3.7-10.3,8.1c0,4.2,2.7,7.2,5.5,9.9c4.3,4.1,8.8,8.1,13.4,12
		c4.3,3.7,8.9,7,13.2,10.7c2.5,2.1,5.6,3.8,6.6,7.3l0.2-0.2c-2-0.6-4-1.2-6-1.8c-0.7-0.7-1.3-1.3-2-2l-0.4-0.6l0.6,0.4
		c0.7,0.7,1.3,1.3,2,2c-0.3,0.9-0.5,1.9-0.8,3.1c1.1,0.7,2.1,1.6,3.2,2.2c5.6,3,10.4,6.8,15,11.1c3.8,3.6,8.1,6.7,12.2,10
		c1.5,1.2,3,1.1,4.4-0.4L1996,203.7z M1596.2,493.7c-3.4,1.2-6.6,3.1-10.9,2.1c-0.2-1.7-0.2-3.3-0.5-4.9c-0.4-1.9-1.5-2.8-4-1.3
		c-0.1,7.5-1.9,15.3,0.8,23.4c12.5-1.3,21.7-6.5,27.5-17.1c-0.9-1.9-2.3-2.4-3.4-1.7c-2,1.2-3.6,2.8-5.5,4.2c-1,0.8-1.9,1.9-3.8,0.6
		c-0.1-1.6-0.3-3.6-0.5-5.5c4.2-0.4,6.3-3,7.2-6.8c0.3-1.1-0.9-2.5-2.2-2.7c-1.8-0.2-3.5,0.3-3.9,2
		C1596.3,488.5,1596.4,491.1,1596.2,493.7z M1847.2,414.3c1.8,5.5,3.3,10.2,2.7,15.1c-0.9,6.3-0.6,12.5,0.1,18.8
		c0.3,3,0.5,6.1-0.1,9c-1.6,7.6-0.5,15.2-0.2,22.8c0.6,16.9,1.5,33.9-0.7,50.9c-0.3,2,0,4,0.1,6c0.3,5,0.9,9.9,0.9,14.9
		c0.1,33.6,0.1,67.3,0.1,100.9c0,91.3,0,182.6,0.2,273.8c0,10.4-1.6,20.5-2.7,30.8c-1.3,11.6-3.3,23.1-4.9,34.6
		c-0.3,2.3-0.6,4.7,1.6,7.1c1.1,0.1,2.7,0.3,4.3,0.2c3.6-0.1,7.3-0.9,10.9-0.6c17.3,1.7,34.6,0.4,51.9,1c5,0.2,9.1-1.6,12.5-5.1
		c7.1-7.1,13-15.1,17-24.4c9.4-21.5,15.5-44,20.4-66.8c4.5-20.8,8.8-41.7,11.4-62.8c1.6-12.9,3.7-25.7,4.8-38.6
		c1.1-12.9,3.3-25.8,2.7-38.8c-0.1-1.3,0.3-2.6,0.4-4c1-9.6,2.4-19.2,2.9-28.8c1-17.6,1.1-35.3,1.7-52.9c1-29.6,1.1-59.3-0.8-88.9
		c-1.3-19.6-1.9-39.2-2.9-58.8c-0.5-9.3-0.9-18.6-2.1-27.9c-2.5-18.8-4.2-37.7-7.1-56.4c-2.6-16.8-5.6-33.5-9.6-50
		c-4.5-18.8-10.9-37-17.8-55.1c-1.5-4-3.3-8-5.5-11.7c-4.4-7.5-8.8-14.9-14.9-21.2c-12-12.2-26.5-14.3-42.4-10.7
		c-3.1,0.7-6.1,2.6-8.9,4.3c-6.8,4.2-10.6,10.9-13.9,17.9c-1.3,2.7-2.4,5.5-3.7,8.2c-6.2,13-10.6,26.6-13.3,40.7
		c-3,15.7-5.4,31.5-7.7,47.3c-1.4,9.3-1,18.6,0.7,27.8c0.3,1.5,0.6,3.4,3.4,3.2c2.2-4.4,2.7-9.3,3.4-14.2c0.7-4.9,1.6-9.8,2.5-14.7
		C1844.9,416.5,1845.9,415.8,1847.2,414.3z M1795.3,301.2c-8.3-3.6-13.1-11.2-17.9-18.9c-1.7-2.8-3.8-5.4-5.7-8.2
		c-3.8-5.5-8-10.7-11.3-16.5c-4.5-7.9-10.1-14.9-15.8-21.8c-3.2-3.9-7.4-7.1-12.4-8c-10.3-1.9-19.2,0.8-25.8,9.3
		c-4.7,6.1-8.8,12.6-10.8,20.1c-2.1,7.7-4.5,15.4-5.9,23.2c-1.5,8.5-2.4,17.2-2.8,25.8c-0.5,10.3-0.4,20.6-0.4,31
		c0,1.3,0.3,2.7,0.6,3.9c0.6,2.4,2.4,3.9,5.1,4c2.4,0.2,4.7-0.2,6.7-2.6c0.6-3.1,1.1-6.7,1.9-10.2c2.5-11.4,5-22.8,7.7-34.1
		c1.8-7.5,3.6-14.9,5.9-22.2c0.8-2.8,2.6-5.3,4.3-7.8c0.9-1.4,2.5-2.1,4.6-1.1c0.3,0.7,0.9,1.6,0.9,2.5c-0.1,6,0.1,12-0.6,18
		c-1.4,11.2-3.4,22.4-3.4,33.7c0,2-0.3,4-0.5,6c-1.1,8.6-2.5,17.1-3.3,25.7c-1,11.6-1.6,23.2-2.3,34.9c-0.1,1.7,0,3.4-0.4,5
		c-1.6,6.2-1.6,12.6-1.4,18.9c0.6,13.4-1.6,26.6-2.7,39.8c-0.8,10-1.3,19.9-1.6,29.9c-0.1,5-0.4,10-0.7,15
		c-0.3,4.3-0.9,8.6-1.2,12.9c-0.8,12.3-1.4,24.6-2.1,36.9c0,0.7,0,1.3-0.2,2c-1.8,6.5-1.3,13.2-1.6,19.9c-0.2,4.7-0.4,9.3-0.8,14
		c-0.3,4-1.2,8-1.1,11.9c0.4,13.7-1.7,27.3-2.6,40.9c-1,14.3-3.4,28.4-3.7,42.7c0,1-0.2,2-0.3,3c-1.8,14.2-3.9,28.3-5.3,42.6
		c-1.1,11-3.2,21.7-5.4,32.5c-2.8,14-5.8,28-8.5,42.1c-0.9,4.8-1.3,9.8,0.6,14.6c3.9,1.7,7.6,1,11.2,1c8.3,0.2,16.6-0.3,24.9,1.5
		c3.7,0.8,7.8,1.3,11.2,0c2.3-2.6,1.8-5,1.2-7.2c-4.6-15.4-5.7-31.4-7.7-47.3c-0.5-4.3-1.4-8.6-1.6-12.9c-0.6-18.6-1.3-37.3-1.5-56
		c-0.3-19.7-0.3-39.3,0-59c0.2-11.5,0.5-23.1,3.3-34.3c0.9-0.4,1.6-0.8,2.2-0.8c14.3,0,28.7,0,43,0.2c1.5,0,3,1,4.4,1.5
		c1.7,7.3,2.8,14.1,2.7,21.2c0,3.3-0.1,6.7,0.5,10c2,12.8,3.6,25.7,3.5,38.7c0,2,0,4.1,0.5,6c1.5,5.6,1.4,11.2,1.5,16.9
		c0.1,8.3,1.1,16.6,0.5,24.9c-0.2,2.9,0.4,6,0.7,8.9c0.3,3.6,0.8,7.3,0.9,10.9c0.1,7.7-0.1,15.3,0.1,23c0.3,9-0.4,18-2.1,26.8
		c-0.9,4.9-2.1,9.8-3,14.7c-0.5,2.6-1,5.3-1.1,7.9c0,1.9,0.8,3.7,1.3,5.7c2,0.3,3.6,0.7,5.3,0.7c7.7,0.1,15.3,0,22.9,1.1
		c5.5,0.8,11.3,0.3,17,0.2c1.5,0,3-1,4.8-1.6c-0.5-3.4-1-6.3-1.3-9.2c-1-8.6-1.1-17.4-3.1-25.8c-3.2-13.8-2.7-27.8-4.6-41.7
		c-1.6-11.8-1.8-23.9-2.7-35.8c-0.7-8.3-1.6-16.6-2.3-24.9c-1.1-12.9-2.3-25.8-3.2-38.8c-1-15.6-1.7-31.3-2.6-46.9
		c0-0.7-0.1-1.3-0.2-2c-1.1-16.9-2.3-33.9-3.4-50.8c-0.9-13-1.7-25.9-2.5-38.9c0-0.3-0.1-0.7-0.1-1c-0.5-7.3-1-14.6-1.3-21.9
		c-0.4-8-0.3-16-0.8-24c-0.8-13.3-2.5-26.5-2.8-39.8c-0.6-23.7-0.5-47.3-0.8-71c-0.1-10.4,0.9-20.6,4.9-30.4
		C1795.9,309.1,1796.7,305.5,1795.3,301.2z M1374.4,803.1c2.6,0.2,5.3,0.4,7.9,0.4c5.7,0.1,11.3,0,17,0c13.7,0,27.3,0,41,0.1
		c5.1,0,10.3-0.1,14.5-3c5.8-3.9,11.5-7.9,15.6-13.8c9.7-13.7,17.2-28.5,22.8-44.3c4.5-12.6,7-25.7,10.2-38.6
		c3.9-15.9,7.2-31.8,8.8-48.1c0.8-7.6,1.8-15.2,2.5-22.8c1.1-11.9,2.7-23.9,2.9-35.8c0.5-24.3,1.2-48.6-1.2-72.9
		c-1.3-12.9-1.3-26-2.9-38.8c-2.6-21.1-5.9-42.2-11.7-62.8c-6.1-22-14.5-43-28.2-61.5c-7.9-10.7-17.7-18.8-30.5-23.2
		c-7.2-2.5-14.4-2.5-21.7-2.3c-13.9,0.4-24.8,6.5-33,17.7c-5,6.8-8.4,14.4-11.2,22.2c-3.7,10.3-6.9,20.9-10.4,31.3
		c-3,8.8-2.7,17.7-1.8,26.7c0.2,1.6,1,3.2,3.6,2.9c5.5-6.1,3.9-14.8,7-22c3.8,2.2,4,2.1,4.1,3.1c0.3,3.3,0.7,6.6,0.7,9.9
		c0,21-0.1,42,0,63c0.1,14,0.5,28,0.5,42c0,15.7-0.5,31.3-0.5,47c-0.1,25-0.1,50,0.1,75c0,5,1.2,9.9,1.2,14.9c0,5-1.1,9.9-1.2,14.9
		c-0.2,10-0.1,20,0,30c0,1.9-0.6,4,1.2,5.5c2.4-0.3,3.3-2.2,3.8-4.1c0.5-2.3,0.6-4.6,0.6-6.9c0.1-7.7,0-15.3,0-23
		c0-4.3-0.1-8.6,1.2-12.9c0.5-1.8,0.7-4.1,0.1-5.9c-2-5.9-0.2-11.1,2.2-16.1c3.8-1.3,6,0.3,7.8,2.9c1,9.2,1,93.9,0,101.9
		c-6.2,7.3-6.3,7.4-2.7,15.8c2.1,4.8,2.3,10,0.6,14.6c-1.3,3.5-2,6.8-2.2,10.4c-0.1,1.8-1.8,2.6-3.3,1.6c-2.6-8.6-5.1-16.8-7.6-25
		c1.1-2.2,2.4-4.2,3.1-6.4c0.6-1.8,0.7-3.9,0.5-5.8c-0.3-2.1-1.6-3.6-4.5-3.3c-0.6,3.1-1,6.4-1.7,9.6c-1.9,9.1-3.9,18.2-5.9,27.3
		C1372.9,796.9,1371.9,799.5,1374.4,803.1z M1527.4,344.5c-1.8,4.1-0.6,7.2,0.2,10.5c2.9,12.3,4.9,24.8,4.6,37.5
		c-0.2,8,0.1,16,0.1,24c0,100,0,200,0,300c0,16-0.1,32-0.2,48c0,5-0.6,9.8-2.5,14.6c-2.3,5.9-3.8,12.1-3.4,18.5
		c0.1,2.2,1.1,4.3,1.7,6.6c8.7,2.4,17-1.9,25.2,0.7c1.8,0.6,4-0.1,5.9-0.3c0.7-0.1,1.3-0.3,2-0.4c2.3-0.2,4.6-0.5,7-0.6
		c15.7-0.8,31.3,0.7,46.9,1.8c4.8,0.3,9.2,1.9,13,4.6c3.5,2.5,7,5.1,10.1,8.1c3.9,3.7,8,4,13.2,2.1c-0.2-3.1-0.6-6.1-0.4-8.9
		c0.2-3.3,0.9-6.6,1.3-9.9c0.6-4.6,1.1-9.3,1.8-13.9c1.7-10.8,3.3-21.7,5.4-32.5c2.1-10.8,4.7-21.5,7.4-32.1
		c1.4-5.6,1.7-11.2,1.6-16.9c0-1.9-0.9-3.7-1.4-5.6c-6.3-1.7-12.3-1.3-18.2-0.6c-3.2,0.4-5.2,2.7-6.6,5.5
		c-5.7,11.4-13,21.7-19.8,32.4c-6.7,10.4-14.2,20.1-23.4,28.5c-7.6,6.9-15.9,12.1-26.4,13c-1.8,0.2-3.7-0.6-5.3-0.9
		c-1.8-4.5-1.2-8.5-1.2-12.5c-0.1-64-0.1-128-0.1-192c0-4,0-8,0.3-12c0.2-1.9,1.1-3.7,1.8-5.8c2.9-0.2,5.5-0.5,8.1-0.7
		c5.2-0.4,9.7,0.8,13.9,4.3c2.7,2.3,6.2,4,9.5,5.5c10.5,4.8,17.6,12.8,22.9,22.8c5.8,10.9,11.8,21.6,18,32.3
		c1.8,3.1,4.2,5.9,6.6,8.7c0.7,0.9,2.1,1.1,3.7,1.9c0.4-2,1-3.3,0.8-4.5c-0.8-7.6-1.5-15.2-2.7-22.8c-1.8-11.5-4.1-22.9-5.8-34.4
		c-2.1-13.8-4.7-27.6-5.2-41.6c-0.1-2-0.6-3.9-0.8-5.9c-1-10.3-2.1-20.5-2.9-30.8c-0.3-3.6,0.1-7.3,0-11c0-1.2-0.2-2.8-2.8-2.7
		c-1.2,1.8-2.9,3.9-4.1,6.2c-3.5,6.1-6.9,12.2-10.1,18.4c-2.7,5.1-6.6,9.4-11.4,12.4c-5.7,3.4-11.7,6.6-17.9,8.8
		c-6.5,2.3-13.4,3.8-20.2,1.3c-2.4-3.3-1.6-6.8-1.6-10c-0.1-36.7,0-73.3,0-110c0-9-0.1-18,0-27c0-2.2,0.6-4.4,1-7
		c6.4-1.4,12.3-0.4,18.2-0.6c3.7-0.1,6.3,1.5,8.2,4.6c3.7,6,7.3,12,11.2,17.8c10,14.9,20.2,29.7,30.2,44.5c1.8,2.6,4,4.6,7.2,4.9
		c6,0.6,11.9,1.1,17.9,1.5c0.9,0.1,1.8-0.6,3.2-1.1c-8.6-37.7-14.9-75.7-21.4-113.7c-0.1-0.5-0.9-0.8-1.7-1.5
		c-3.8,0.9-6.8,3.8-9.9,6.2c-10,7.6-21.3,10.5-33.7,10.4c-19-0.1-38-0.1-57,0C1535.6,343.4,1531.6,342.7,1527.4,344.5z
		 M1392.2,303.7c2.1,0.8,3,1.4,3.9,1.4c13.3,0,26.6,0,40-0.1c0.9,0,1.8-0.7,3.2-1.2c-0.1-1.9,0-3.8-0.3-5.6
		c-0.8-3.9-2.1-7.7-2.6-11.7c-1.1-7.9-1.5-15.9-2.7-23.8c-2-13.8-3.6-27.7-4.2-41.7c-0.6-12.6-2.3-25.2-3-37.8
		c-0.9-16.6-1.5-33.2-2-49.9c-0.4-11.6-0.5-23.3-0.7-35c-0.1-6,0-12,0.1-18c0-3.7,0.9-7.2,3.1-10.4c0.9-1.4,1.9-2.8,2.5-4.3
		c0.7-1.9,0.8-3.9-1.5-5.7c-0.9-0.1-2.2-0.5-3.5-0.5c-12.7,0-25.3,0-38,0.1c-1.1,0-2.2,0.9-3.4,1.4c0.3,1.5,0.2,2.6,0.7,3.4
		c3.5,5.9,4.3,12.5,5.6,19c0.8,3.9,1.5,7.8,2.1,11.8c2.1,13.8,5,27.5,4.7,41.6c0,2,0,4,0.3,6c2.6,13.5,1.4,27.2,1.5,40.8
		c0,1.5-0.7,3.1-1.1,4.5c-6.8-0.2-13.1-0.4-19.4-0.4c-7.3-0.1-14.7,0-22-0.1c-2.2,0-4.5-0.6-7.1-1c-0.2-2.7-0.6-4.9-0.5-7.2
		c0.5-10.3,1.5-20.6,1.7-30.9c0.4-19,1.2-37.9,4-56.7c1.3-8.7,3-17,6.6-25c0.8-1.7,0.9-3.7,1.2-5.4c-1-0.7-1.5-1.4-2-1.4
		c-13.6-0.2-27.3-0.4-40.9-0.6c-1.6,0-3.2,0.4-5.3,0.6c0.5,1.8,0.7,3.1,1.2,4.2c6.8,14.9,9.2,30.7,7.2,46.8
		c-1.3,10.6-1.3,21.2-1.7,31.9c-0.1,3.7-0.3,7.3-0.6,11c-0.4,5-0.9,9.9-1.3,14.9c-0.2,3,0.2,6.1-0.4,9c-1.8,8.6-1.4,17.2-1.6,25.9
		c-0.1,3.3,0.2,6.7-0.4,10c-2.6,14.1-2,28.5-3.1,42.8c-1.1,14.7-2.7,29.1-7,43.2c-0.5,1.5-1.2,3.2,0.6,5.1c0.8,0.1,2.1,0.5,3.4,0.5
		c12.7,0,25.3,0,38,0c0.9,0,1.9-0.5,2.8-0.8c0.3-0.1,0.5-0.4,1.1-1c-0.1-1,0-2.3-0.4-3.5c-0.8-1.8-2-3.5-3-5.2
		c-3.1-5.4-4.3-11-3.2-17.3c0.8-4.6,1.1-9.3,1.2-13.9c0.2-13,0.2-26,0.4-39c0-2.6-0.3-5.4,2.3-8c1.4-0.3,3.3-1,5.2-1
		c13.7-0.1,27.3-0.1,41,0.1c1.5,0,3.1,0.9,4.3,1.3c0.4,1.1,0.9,1.7,0.9,2.4c0.2,11.3-0.1,22.6,2,33.8c0.1,0.6,0,1.3,0,2
		c0,7.3-0.1,14.7,0,22c0.1,6.5-1.8,12.5-5,18C1395.6,297.6,1394.2,300.2,1392.2,303.7z M1663.2,658.6c-1.5-0.3-1.9-0.3-2.1-0.5
		c-12.9-10.4-23-22.9-30.7-37.6c-4.5-8.5-9.7-16.7-14.5-25c-3-5.1-7.5-8.5-12.9-10.5c-4.7-1.8-9.1-4.1-13.2-7
		c-1.3-0.9-2.9-1.6-4.5-2.1c-2-0.6-4.1,0.5-5,2.4c-1.2,2.8-1.7,5.6-1.3,8.7c0.5,3.9,0.8,8,0.8,11.9c-0.1,4-0.9,7.9-1,11.9
		c-0.1,4.3,0.3,8.6,0.2,12.8c-0.1,5-0.4,9.9-0.6,14.9c-0.4,10.6,0.5,21.2,0.3,31.9c-0.6,28.3-0.4,56.6-0.5,84.9
		c0,3.3,0.5,6.6,1.1,9.9c0.3,1.6,1.3,3.1,4,3.2c8.6-6.1,17.2-12.7,23.4-22.1c3.8-5.9,8.1-11.4,12-17.2c3.9-5.8,8-11.5,11.2-17.7
		c3.5-6.9,7.8-13.1,12.4-18.9c6.1-1,22.5-1.5,28.2-0.8c1.2,0.2,2.4,1,2.9,1.2c3.3,3.5,1.6,8.6,5.7,11.2c0.8-0.6,2-1.1,2.2-1.8
		c1.1-3.5,2.5-7,2.7-10.5c0.4-8.7,1.2-17.3,2.1-25.9c1.6-15.2,2.9-30.5,4.2-45.7c0.4-4.9,0.4-9.9,0.7-14.9
		c0.5-7.6,1.1-15.3,1.5-22.9c0.2-3.3,0.1-6.7,0.4-10c1-12.6,2.3-25.2,3.1-37.8c0.9-14.3,0.8-28.6,1.8-42.9c1.1-14.9,0.4-30,0.4-44.9
		c0-1.9-0.5-3.8-0.7-5.5c-3.3-0.3-5.1,1.1-6.3,3.2c-1.2,2-2,4.2-3.1,6.2c-0.3,0.5-1,0.7-1.5,1c-2.4-0.4-4.6-3.3-7.2-0.4
		c-1.7,4.4,3.5,7.8,2.2,12.1c-6,0.4-11.5,0.6-17.1,1.1c-5.5,0.5-11.1,1.2-16.5,1.8c0.2,14.2,0.3,27.8,0.5,41.4c0,2,0.3,4,0.5,6
		c0.5,4.6,1,9.2,1.4,13.9c0.3,3,0.5,6,0.8,8.9c1,8.9,1.9,17.9,3.1,26.7c1.4,10.2,2.7,20.4,4.6,30.6c1.5,8.2,3.3,16.3,3.4,24.7
		c0.1,4.7,0.1,9.4,0.9,13.9c1.3,7.3,1.2,14.6,1.2,21.9C1664.1,655.6,1663.6,656.9,1663.2,658.6z M1487.1,175.3
		c6.4-2.3,11.7-1.8,16.8-0.2c6.3,2,12.6,4.2,19,6.3c4.5,1.5,8.4,3.9,11.7,7.4c5.1,5.3,10.1,10.7,15.3,15.7c2.8,2.8,6.1,5.1,9.3,7.4
		c0.9,0.6,2.3,0.5,3.3,0.6c2.2-3.1,0.9-5.6,0.2-8.1c-4.3-15.4-8.8-30.7-11.5-46.5c-1.3-7.5-3.1-15-3.4-22.7
		c-0.1-1.9-0.4-4.1-3.8-4.3c-6.7,8.1-13.3,17-24.4,20.5c-10.5,3.3-21.1,5.5-32.4,3.1c-0.3-2-0.9-3.6-0.9-5.2
		c-0.1-22.6-0.2-45.3-0.2-67.9c0-1.6,0.5-3.2,0.8-4.6c1.4-0.6,2.3-1.2,3.2-1.2c2.7-0.2,5.3-0.2,8-0.2c7.7,0.1,14,2.6,19.6,8.3
		c8.1,8.3,16.9,16,25.4,23.9c3.7,3.5,8.1,5.9,13.1,6.8c5.5,1,11.1,2,16.9-0.1c-0.2-1.6-0.1-2.9-0.5-4.1c-0.9-3.2-1.9-6.4-3-9.5
		c-3.1-9.1-7.1-18-9.1-27.4c-1.3-5.9-2.9-11.6-4.4-17.4c-0.4-1.6-0.8-3.2-3.3-4.1c-2,0.6-4.5,1.4-6.9,2.3
		c-10.7,3.9-21.7,6.2-33.2,5.9c-10.3-0.3-20.6-0.1-31,0c-2.7,0-5.4-0.2-8,0.4c-4,0.9-7.9,0.8-11.8-0.1c-2.3-0.5-4.7-0.5-7-0.4
		c-1.5,0.1-2.9,0.9-4.9,1.6c0.9,4.3,1.6,8.2,2.6,12c2.7,10.4,3.8,20.8,3.8,31.6c-0.2,53.6-0.2,107.2-0.2,160.9
		c0,10.1-1.4,19.9-4.7,29.4c-1,2.8-1.7,5.6-2.4,8.3c3.5,2.4,6.9,1.6,10.1,1.6c20.3,0.1,40.6,0.2,61,0.2c11.4,0,22.6,1.2,32.6,7.4
		c1.6,1,3.7,1.5,5.6,1.9c1.2,0.2,2.5-0.3,3.8-0.5c0.3-1.3,0.7-2.2,0.8-3.1c1.3-12.6,3.9-24.9,9.4-36.5c2.5-5.4,4.4-11.2,6.4-16.8
		c0.5-1.2,0.7-2.6,0.8-3.9c0.3-3.3-1.7-5.9-5-6.2c-2.6-0.2-5.3-0.1-8-0.2c-5.3-0.1-9.8,1.8-13.3,5.7c-6.3,6.9-13.7,12.6-20.8,18.6
		c-11.1,9.6-23.5,16.3-38.2,18c-2.2,0.3-4.5,1.7-7.3-0.4c-1.1-2.3-0.8-5.3-0.8-8.2c0-32.6,0-65.3,0.1-97.9
		C1486.2,180.9,1486.7,178.3,1487.1,175.3z M1217.4,75.3c3.1,3.6,2.5,6.7,2.6,9.7c0,32,0.1,64,0,96c0,3.6-0.5,7.3-0.9,10.9
		c-1.1,11-1.4,22,0.1,32.9c2,15.4,1.1,30.6-1.9,45.6c-2,10.1-5.2,20-7.8,30c-0.3,1.2-0.3,2.5-0.4,3.7c6.1,1.3,25.7,1.8,36.1,1.1
		c4-0.3,7.8-1.2,12.1-2.6c-0.6-2.6-0.8-4.9-1.7-6.9c-5.7-13.4-8-27.3-8-41.9c0.2-46.6,0.1-93.3,0-139.9c0-8.6-0.6-17.3-0.9-25.9
		c-0.1-3.3-0.3-6.7-0.2-10c0-1.2,0.7-2.3,1.2-3.5c3.6,0.6,4.9,3,6.3,5.2c6,9.3,12.7,17.9,20.8,25.5c5.2,4.9,11.3,8.2,17.6,11.3
		c2.1,1,4.6,1.2,6.3-1.7c-2.3-10.7-4.7-21.7-7-32.8c-2.3-11-4.4-22.1-6.6-33c-5.2-1.4-6-1.5-8,1.7c-4.7,7.4-11.4,9.3-19.7,9.1
		c-14.7-0.3-29.3-0.5-44,0.1c-10.8,0.5-19.8-1.8-26.2-10.9c-0.2-0.3-0.4-0.5-0.7-0.7c-1.7-1.1-3.5-2-5.7,0.1c-0.3,1.2-0.7,2.8-1,4.4
		c-1.6,8.2-3,16.4-4.7,24.5c-2.4,12.1-4.9,24.1-7.3,36.2c-0.2,1.1,0.2,2.4,0.3,4.2c10.2-2.8,18.7-7.2,25-14.8
		c6.7-8.3,14.7-15.5,20.1-24.8C1213.8,76.8,1215.7,76.3,1217.4,75.3z M1599.8,309.6c2.1,1.6,3.2,2.9,4.6,3.3
		c4.3,1.3,8.6,0.9,12.3-1.9c7.1-5.4,14.3-10.8,21.3-16.4c9.3-7.5,17.7-16,27.6-22.7c1.6-1.1,3.2-2.7,3.8-4.4
		c2.2-6.6,3.4-13.3,2.4-20.2c-0.9-0.1-1.3-0.3-1.5-0.2c-4.2,1.4-4.5,6.4-8.6,9.1c-0.8,0.2-2.4,0.7-3.9,1.2
		c-9.7,3.3-19.6,6.1-29.1,10.2c-8.8,3.9-14.5,10.4-18.1,18.8c-2.5,5.7-4.2,11.8-6.4,18.5C1603.4,305.8,1602.1,307.2,1599.8,309.6z
		 M1285.4,241.5c0.5-0.3,1.5-0.5,1.5-1c1-4.2,2.3-8.4,2.7-12.6c1.1-11.9,1.8-23.8,2.7-35.7c0.2-2.6,0.7-5.3,0.9-7.9
		c1-11.2,2-22.5,2.8-33.7c0.2-2.3-0.1-4.7-0.7-6.8c-0.3-0.9-2-1.9-3.1-1.9c-1.1,0-2.8,1-3,1.9c-0.7,2.9-1.1,5.9-1.2,8.8
		c-0.7,16.6-1.2,33.2-1.9,49.7c-0.2,4-0.9,7.9-1.1,11.9c-0.3,8.6-0.5,17.2-0.6,25.8C1284.4,240.6,1285.1,241.1,1285.4,241.5z
		 M1606.5,481.9c1.3-4.9,1.9-7.8,2.9-10.5c1.1-2.8,2.6-5.3,3.9-8c0.4-0.9,0.7-1.8,1.2-2.7c3.3-6.4,2.4-12.1-2.3-17.4
		c-1.2-1.3-2.5-2.2-5-1.1c-0.6,1.6-1.6,3.7-2.1,5.8c-1,5.2-1.5,10.4-4.2,15.2c-1,1.7-0.9,4.7-0.2,6.7
		C1602,473.3,1604,476.7,1606.5,481.9z M1955.3,245.7c-3.4,2.4-4.2,3-4,4.1c0.3,1.6,0.5,3.4,1.5,4.5c1.2,1.4,3.1,2.5,4.8,3
		c2.5,0.8,5.2,1,7.8,1.3c0.6,0.1,1.3-0.3,1.9-0.4c2.5-2.9,2.5-2.9,3.1-6.6c-0.2-0.3-0.4-0.6-0.6-0.7
		C1965,249.2,1960.1,247.4,1955.3,245.7z M1613.7,482.9c5-2.2,6.2-4.6,6-7.8c-0.1-1.3-0.7-2.4-3-1.7
		C1615.9,475.7,1615.1,478.4,1613.7,482.9z M1814.7,374.2c0.2,2.9,1.8,4.5,3.8,4.4c1.2-0.1,2.4-1.5,2.2-2.8
		c-0.2-2.2-1.9-4.1-3.7-3.6C1815.9,372.5,1815.2,373.8,1814.7,374.2z"/>
	<path class="st0" d="M977,778.8c2.1,0.5,4.1,1.1,6.2,1.6c0.1,2.9,1.7,4.9,3.6,6.9c8.3,9,19.3,12.5,30.4,15.1
		c5.5-3.5,5.4-3.6,7.6-8.1c-3,0.7-5.5,1.3-8,2c-4.7,1.4-9.2,1.1-13.5-1.5c-4.6-2.7-9.2-5.2-13.1-9.1c-2.1-2.1-4.8-3.4-7.3-5.1
		c1.7-0.9,3.4-2.1,5.2-2.7c2.5-0.9,5-1.3,7.4-1.9c0.4-2.3-0.8-2.8-2.2-2.8c-4-0.1-8,0-12-0.2c-6.9-0.3-11.6-3.3-15-9.6
		c-14.9-27-22.9-56-26.6-86.3c-1.2-9.6-1.4-19.2-2-28.9c-0.2-4.3,0.2-8.4,2.2-12.6c2-4.1,2.5-8.9,3.5-12.9c4.5-4.7,11.3-2.7,16.4-7
		c-5.2-2.7-10.5,0.3-15.5-2.3c-0.9-3.5,0.2-7.5,0.7-11.3c3-22.5,8.3-44.5,15.9-65.9c7.2-20.3,18.2-38.5,32.2-54.8
		c8.6-10.1,19-17.7,31.7-21.7c3.5-1.1,6.9-2.5,10.2-3.7c0-0.9,0-1.5,0-2.7c2.2-0.1,4.5-0.4,6.7-0.4c5.6-0.1,11.3,0,17.2,0
		c-0.2,1.4-0.3,2.3-0.4,3.2c9.3,7.4,18.9,13.5,29.4,14.1c0.7-1.1,1.9-2.4,2.2-3.8c0.6-2.5,0.8-5.2,1.2-8.2c2.5-0.4,4.7-1,7-1
		c21.6-0.4,43.3-0.5,64.9-1c9.6-0.2,19.3-1.2,28.9-1.7c4.9-0.3,8.9-2.8,9.9-7.1c2.2-9.5,8.3-16.6,13.2-24.4
		c4.8-7.6,10.1-14.9,15.4-22.5c8.7,0,14.8-4.6,19-11.4c3.6,0,4.8,2,5.1,4.4c0.7,5.9,1.5,11.9,1.7,17.9c1.2,25.3,3.3,50.6,6.9,75.6
		c3.7,26.4,8.9,52.5,19,77.4c2.6,6.3,3.3,12.8,2.5,19.8c-2.2,0.7-4,1.5-5.8,1.8c-3,0.4-6,0.4-9,0.6c-3.6,0.3-7.3,0.6-10.9,2.5
		c0,1.7-0.3,3.3,0,4.8c5.3,23.4,9.6,47,12.9,70.7c1.9,13.8,3.2,27.8,4.6,41.7c0.4,4.3,0.1,8.7-0.1,13c-0.1,1.6-0.4,3.3-0.9,4.9
		c-0.9,2.7-3.8,4.3-6.4,3.2c-2.4-1-4.8-2.3-6.9-3.9c-9-6.9-17.9-13.9-26.7-21c-9.1-7.3-18-14.8-27-22.2c-2.5-2.1-5-4.5-9.4-3.6
		c-2.7,2-4.3,5.2-4.4,9c-0.1,3.3,0,6.7,0,10c0.1,7.7,0.4,15.3,0.4,23c0,26.1,6,50.8,16.4,74.6c1.5,3.4,3.1,6.7,4.4,10.1
		c1.2,3.1,2.2,6.3,0.1,10.1c-2.3,0.2-4.9,0.7-7.5,0.7c-14.6-0.2-29.3,0.7-43.9-0.8c-4.9-0.5-10-0.2-15-0.2c-35.3,0-70.6,0-105.9-0.1
		c-7.7,0-15.3-0.2-22.8-1.9c-5.3-1.2-10.3-2.8-15-5.4c-11.7-6.7-21.8-15.2-28.7-27L977,778.8z M978.9,726.7
		c-0.4-7.7,1.4-15.1,3.2-22.7c-2.1-2.8-4.2-5.3-6-8.1c-1.9-3-3.6-6.2-6.2-11c-0.2,3.4-0.5,4.9-0.3,6.4c1.5,10.5,3.7,21,6.9,31.1
		c0.5,1.5,1.8,2.7,2.7,4.1c0.1,1,0,2,0.3,3c6.7,20.3,19.9,35.2,38.6,45.2c4.7,2.5,9.9,3.9,15.4,3.9c3.3,0,6.7-0.1,10,0.1
		c15.4,0.9,27-7,37-17c10.5-10.5,17.5-23.5,21.7-37.8c7-24.1,10.4-48.8,10.5-73.9c0-5.6-1.2-11.2-1.4-16.9
		c-0.3-9.6-1.1-19.2-1.9-28.9c-1.2-14.1-4.3-27.6-8-41.1c-4-14.8-9.7-29-17.2-42.5c-5.3-9.5-12.3-17.4-20.6-24.2
		c-6.7-5.5-14.8-7.3-23-9.1c-1.6-0.3-3.3-0.1-5,0.2c-5.3,0.9-10.3,2.5-15,5.4c-7.8,4.8-14,10.9-19.6,18.2
		c-11.7,15.1-18.8,32.2-23.4,50.4c-3,11.9-4.8,24.1-7.3,36.2c-3.8,18.4-3.7,37.1-3,55.7c0.1,1.5,0.9,3,1.4,4.2c5.2,0,9.8,0,14.7,0
		c0.9,1.3,1.9,2.6,2.8,3.9c0.9,1.4,1.7,2.8,2.7,4.4c-2.5,6.7-1.3,13.1,1.5,18.7c-0.4,1.2-0.5,1.9-0.8,2.5c-2.6,4.7-3.1,9.4-0.3,14.3
		c0.9,1.7,1.7,3.9,1.5,5.7c-1,6.8-1.5,13.8-4.9,20.5C983.4,727.3,981.1,727,978.9,726.7z M1119.6,486.9c-0.8,5.1-0.3,9,0.4,13
		c2.3,13.5,3.5,27,3.4,40.7c-0.2,36,0,72,0.1,107.9c0,3.3,0.2,6.5,0.3,10.5c2.3-2.5,4-4.3,5.5-6c4.3,0.4,6.6,2.6,9,5.5
		c-0.4,3.7-1.2,7.7-1.2,11.6c0,5.7-0.6,11.3-2.1,16.8c-0.9,3.2-0.8,6.4-0.5,9.8c0.6,6.3,0.2,12.6,0,18.9c-0.1,2-0.6,4-2.5,5.1
		c-0.3-0.1-0.9,0-0.9-0.2c-1.7-4.2-4.1-8.4-4.8-12.8c-1.2-7.5-1.2-15.1-1.8-22.7c-0.9,2.1-1.1,4.3-1.1,6.4
		c-0.3,11.7-0.3,23.3-0.9,35c-0.7,14.6-1.4,29.3-5.1,43.6c-0.5,1.8-1.4,3.8-0.1,5.7c0.6,0.3,1.2,0.7,1.8,0.7
		c13.3-0.1,26.6-0.2,40-0.4c0.8,0,1.6-0.8,2.4-1.2c-1.2-4.1-2-8.1-3.6-11.7c-4.3-9.7-5.1-19.9-5.1-30.3c0.1-27.3,0.1-54.6,0.1-81.9
		c0-8.3,0-16.7,0-25c0-2.3-0.1-4.7,2.1-6.4c10.6-1.7,13.9-1.3,22.2,2.8c2.7,1.3,5.3,2.8,8.1,3.8c11.7,4.4,20.3,12.3,27.1,22.6
		c3.1,4.7,6.7,9.1,10.3,13.5c1,1.2,2.6,2,4.1,2.8c1.4,0.8,3.7-0.7,3.6-2.3c0-1.3-0.2-2.7-0.4-3.9c-1.8-8.8-3.7-17.6-5.5-26.4
		c-1.6-7.8-3.1-15.7-4.9-23.4c-2.7-11-5.3-22-6.5-33.3c-0.2-1.4-0.9-2.4-3-2.6c-1,0.9-2.2,2-3.4,3.1c-4.1,3.9-8,8-12.2,11.8
		c-7.7,7-16.5,11.2-27.2,10.3c-2.6-0.2-5.3,0.2-8-0.1c-1.9-0.2-3.7-0.9-5.7-1.4c-0.2-2.4-0.6-4.3-0.6-6.3c0-26.3,0-52.6,0-79
		c0-1.9,0.4-3.9,0.7-6c5.9-3.8,11.5-3.7,16.9,0c2.4,1.7,4.5,3.9,6.7,6c5.1,4.7,10.3,9.5,15.4,14.2c1.2,1.1,2.6,2.1,3.6,3.5
		c4.6,6.3,10.9,10.7,16.2,16.2c5.3,5.4,11.6,7.5,18.9,7.3c1.6,0,3.4,0.1,4.4-2.2c-2.1-8.4-4-17.2-6.5-25.8
		c-3.3-11.6-5.8-23.2-6.7-35.2c-0.4-5.6-1.6-11.2-2.6-16.7c-0.1-0.5-0.9-0.8-1.4-1.3c-2.9,0.1-3.4,2.8-4.7,4.6
		c-3.4,4.8-7.5,8.4-13.7,9.1c-4.3,0.4-8.6,1.3-12.9,1.3c-19,0.1-38,0-57,0C1127.2,486.6,1123.9,486.7,1119.6,486.9z M1276.7,572.4
		c-1.3-0.7-2.1-1.5-3-1.5c-3.3-0.1-6.6-0.3-9.9,0c-11.5,1-23,2.3-34.5,3.4c-1.3,0.1-2.7,0.3-3.8,0.9c-0.7,0.3-1.2,1.5-1.3,2.3
		c-0.1,0.4,0.6,1.4,1,1.5c1.5,0.5,3.2,1,4.7,0.9c3.9-0.2,7.9-0.8,11.8-1.2c9.5-0.9,19.1-1.7,28.6-2.6
		C1272.6,576,1275,575.8,1276.7,572.4z M1155.8,796.8c-1-0.9-1.6-1.9-2.2-1.9c-5,0.1-10,0.1-14.9,0.8c-11.5,1.6-23,3.5-34.4,5.3
		c-0.5,0.1-0.9,0.7-1.3,1.1c1,2.4,3.3,1.9,5.1,1.9c11,0,21.9-1.4,32.7-3.1C1145.7,800.1,1150.5,799,1155.8,796.8z M1202,793.5
		c0.6,2.3,1.1,4.6,1.8,6.7c0.4,1.2,2.5,2.1,3.3,1.3c0.6-0.6,1.4-1.8,1.2-2.4c-1.2-3.4-2.5-6.9-4.2-10.1c-0.9-1.6-2.7-2.7-4.3-4.2
		c-6,1.4-11.8,2.8-17.6,4.3c-1.2,0.3-2.5,1-3.5,1.8c-0.7,0.6-1.2,1.7-1.1,2.6c0.1,0.8,1,1.5,1.7,2.6c3.6-0.6,7.2-1.1,10.8-1.8
		C1193.6,793.6,1197.1,792,1202,793.5z M1265.6,689.8c-1-3-3.5-3.4-5.8-3c-8.8,1.6-17.6,3.4-26.3,5.2c-0.9,0.2-1.7,0.8-3.1,1.4
		c1.9,3.5,4.6,4.8,8.2,4.2c6.5-1.1,13.1-2.4,19.6-3.7c1.9-0.4,3.8-1.2,5.6-2C1264.6,691.5,1265.1,690.5,1265.6,689.8z M1165.8,652.2
		c0.6,3.5,2.5,3.8,4.6,3.5c7.9-1.1,15.7-2.2,23.6-3.3c1.7-0.2,3.2-0.9,3.8-2.8c-0.4-2-2-2.6-3.7-2.6c-8.6,0.1-17.1,1.1-25.5,3.3
		C1167.7,650.6,1167,651.4,1165.8,652.2z M942.2,655.8c4.5,1.8,8.5,1.2,12.4,0.6c2.2-0.3,3.5-1.9,3.8-4c0.2-2.6-1.1-5.1-3.3-5.5
		c-4.6-0.8-9.2-1.5-13.5,1.7c-0.1,1.3-0.4,2.7-0.3,3.9C941.3,653.4,941.8,654.3,942.2,655.8z M1170.7,774.4c1.3,1.8,1.6,2.9,2.3,3.2
		c4.1,1.6,18.6,1.6,23.2-0.1c0.7-0.3,1.1-1.4,1.6-2c-0.7-2.1-2.2-2.8-3.9-2.8C1186.6,772.4,1179.1,771.4,1170.7,774.4z
		 M1236.7,645.3c2.5,1.4,3.8,2.6,5.2,2.8c6.4,1,12.4-0.3,17.9-2.4c1-2.7,0.2-4-1.7-4.4c-6-1.1-11.9-0.2-17.7,1.4
		C1239.6,642.9,1238.9,643.7,1236.7,645.3z M1251.5,597c0.2-4-1.6-4.7-3.8-4.2c-5.7,1.3-11.5,2.9-17.1,4.5c-1.2,0.3-2.1,1.3-3.1,1.9
		c1.3,4,2.4,4.9,5.3,4.3C1239.2,602.2,1245.3,599.8,1251.5,597z M1105.7,777c0.3-2.2,0.4-4.5,1.1-6.6c0.6-2,3.8-3,2.5-5.8
		c-2-1.7-3.8-0.4-5.5,0.5c-3,1.6-7.3,7.2-9.7,12C1097.9,779.3,1101.6,778.8,1105.7,777z M1257.7,635.2c0.1-0.6,0.5-1.5,0.3-1.7
		c-0.8-0.9-1.8-2.1-2.9-2.3c-5.9-0.9-11.8-0.7-17.5,1.6c-0.7,0.3-1.1,1.3-1.7,2.1C1241.4,637.9,1248,637.9,1257.7,635.2z
		 M1187.5,742.6c0.2-2.2-0.9-3.4-2.2-3.2c-6.5,1.1-12.9,2.4-18.7,5.7c-0.6,0.3-0.6,1.6-0.9,2.5c4.9,1.4,5,1.6,6.8,0.9
		C1177.7,746.7,1183.6,746.5,1187.5,742.6z M1165.2,714.5c1.7,1.1,2.2,1.7,2.8,1.7c6.5,0.3,12.2-1.8,17.5-5.3
		c0.4-0.3,0.1-1.7,0.1-2.9c-6.3-0.4-12,1-17.4,3.3C1167.1,711.8,1166.5,713.1,1165.2,714.5z M1164.2,584.4
		c7.4,1.7,13.2,1.1,21.1-1.4c1.8-0.6,4-0.9,4.2-3.9C1181.3,578.2,1173.6,579.8,1164.2,584.4z M1266.3,705.9c-1.1-0.5-2-1.3-2.8-1.1
		c-2.5,0.5-5,1.3-7.4,2.3c-1,0.4-1.7,1.7-2.5,2.5c1.4,3.6,4.1,3.6,6.7,2.9C1263.5,711.6,1266.3,710.1,1266.3,705.9z M959.6,674.4
		c-6.4-2.2-10.9-2.8-15.5,0.4C947.1,678.4,951.3,678.4,959.6,674.4z M1173.9,637.6c-3.2-1.4-5.3-1.1-7.4,1.8
		C1169.4,640.6,1171.6,640.5,1173.9,637.6z M1083.5,799.7c-3.9-1.5-3.9-1.5-6.9,1.8C1080.9,803,1080.9,803,1083.5,799.7z"/>
	<path class="st0" d="M1763.8,848.9c1.9-2.5,3.3-4.4,4.6-6c0.9-0.3,1.5-0.6,2.1-0.6c12.6-0.3,25.3-0.5,37.9-0.7c2,0,4,0.1,6,0.3
		c4.1,0.5,5,2.2,4.3,8.4c-4.5,1-9.1-0.7-13.6-0.5c-5,0.2-10,0-15,0c-4.6,0.1-9.3-0.3-14,0.9c-1.3,1.8-2.7,3.6-4.1,5.7
		c-12-1.5-23.9-3-35.7-4.3c-9.2-1-18.5-1.7-27.8-2.4c-3.6-0.2-7.2,0.2-10.6,0.4c-1.8,2.3-3.2,4.1-4.6,5.9c-1,0.3-2,0.7-2.9,0.7
		c-16.6,0-33.3,0-49.9,0.1c-5,0-9.2-1.1-11.3-6.3c0.5-2,2.1-2.6,3.7-2.8c2.6-0.3,5.3-0.4,7.9-0.4c10.6,0.1,21.3,0.3,31.9,0.4
		c4,0,8,0.2,11.8-1c0.7-1.7,1.3-3.1,2-5.1C1712.4,839.8,1737.9,843,1763.8,848.9z"/>
	<path class="st0" d="M1352,829.7c4.6,0.9,9.1,2.2,13.7,0.4c1.2-0.4,2.7-0.4,3.9-0.1c10.2,2.3,20.5,1.4,30.8,1.4
		c17.3,0,34.6,0.3,51.8-1.7c7.8-0.9,14.9-3,21.2-7.8c2.6-2,5.3-4.1,8-5.9c1.3-0.9,2.8-1.4,4.6-2.4c0.3,1.6,0.9,2.6,0.7,3.3
		c-1.6,4.7-3.4,9.4-4.9,13.5c-8.3,8.3-18.3,10.2-28.8,10.4c-12.3,0.2-24.6,0.4-36.9,0.5c-14.6,0.1-29.3-0.3-43.9,0
		c-7.7,0.2-13.5-3-18.5-8.3c-0.8-0.9-1.1-2.4-1.6-3.5L1352,829.7z"/>
	<path class="st0" d="M1492.9,839.9c0-2.3,0-4.5,0-7.1c1.7-0.4,3.2-1,4.8-1.1c2.6-0.3,5.3-0.3,8-0.3c31.9,0.1,63.9,0.2,95.8,0.4
		c3,0,6,0.1,8.9,0.6c4,0.6,6.4,3.1,7.1,6.8c-1.2,2.2-3,1.8-4.6,1.8c-9.3,0-18.6,0-28,0c-27,0-53.9,0-80.9,0
		C1500.5,840.9,1496.8,841.4,1492.9,839.9z"/>
	<path class="st0" d="M1747.1,663.2c1.5,3.9,2.6,8,2.7,12.2c0.7,19.2,1.4,38.4,2,57.7c0.3,8.9,0.3,17.9,0.3,26.9
		c0,2.6-0.5,5.3-0.9,7.9c-0.1,0.7-1.1,1.3-2.5,2.7c-0.4-3.5-0.7-6-0.9-8.6c-1.8-27.1-2.1-54.3-2.1-81.5c0-4.3-0.7-8.6-0.9-12.9
		C1744.6,666,1744.5,664.2,1747.1,663.2z"/>
	<path class="st0" d="M1346.1,823.4c-6.3-5.2-7.8-12.2-7.1-19.8c0.8-7.7,3-15,8.4-20.9c2.7-2.9,5-6.2,7.6-9.5c0,9-2.4,18.8-6.3,25.7
		c-4.5,7.9-6.2,16-2.8,24.8L1346.1,823.4z"/>
	<path class="st0" d="M1356.6,690.1c1.9,8.8,2,44.2,0.7,53.1c-0.3-0.5-0.8-1-0.8-1.5c-0.1-14.9-0.1-29.9-0.2-44.8
		C1356.3,694.7,1356.5,692.4,1356.6,690.1z"/>
	<path class="st0" d="M1357.5,647c2-0.6,3.4,0.4,3.7,2.1c0.4,2.9,0.3,5.8,0.2,8.7c0,0.9-0.7,1.8-1.1,2.7c-1,2.3-2.1,4.6-3.5,7.5
		C1355.6,657.2,1355.7,653.4,1357.5,647z"/>
	<path class="st0" d="M47.2,281.5c0.4-2.6,0.6-5.2,1.3-7.7c1.1-4.1,2.4-8.1,3.7-12.2c0.3,0.6,0.9,1.2,0.8,1.6
		c-1.3,5.3-2.6,10.7-4.1,16c-0.2,0.8-1.3,1.4-2,2C46.9,281.3,47.2,281.5,47.2,281.5z"/>
	<path class="st0" d="M31.8,502.8c0-7.5,0-15,0-22.5c0.2,0,0.3,0,0.5,0c0,7.5,0,15,0,22.5C32.2,502.8,32,502.8,31.8,502.8z"/>
	<path class="st0" d="M39.2,303.6c1-8,4.3-15,8-22l-0.2-0.2c0.2,3.2,0.2,6.6-1.6,9.4c-2.6,4-1.9,9.7-6.4,12.6L39.2,303.6z"/>
	<path class="st0" d="M1356.7,762.3c0-3.4,0-5.9,0-8.4c2.5-0.3,2.8,1.4,2.8,2.8C1359.6,758.6,1358.8,760.3,1356.7,762.3z"/>
	<path class="st0" d="M1825.3,860.1c0.5,3.7,1.2,7.3-0.6,12.6C1823.8,867.3,1824.4,863.7,1825.3,860.1z"/>
	<path class="st0" d="M1995,882.7c0,3.3-1,5.5-2.5,7.5C1992.1,886.8,1992.1,886.8,1995,882.7z"/>
	<path class="st0" d="M1978.1,185.6c2.4,1.6,4.7,3.2,5.8,5.9l0.2-0.2c-3.8-0.2-5.7-2.2-5.8-6L1978.1,185.6z"/>
	<path class="st0" d="M1822.8,889c0-1.6,0-3.2,0-4.8c0.2,0,0.4,0,0.5,0c0,1.6,0,3.2,0,4.8C1823.2,889,1823,889,1822.8,889z"/>
	<path class="st0" d="M14.8,1063.3c0,2.5,0,5.1,0,7.6c-1.6-2.6-1.4-5.1,0.2-7.4L14.8,1063.3z"/>
	<path class="st0" d="M1.1,115.5c0.2-1.8,0.4-3.7,0.6-5.5c1.4,2.1,1.1,3.9-0.8,5.4C0.9,115.3,1.1,115.5,1.1,115.5z"/>
	<path class="st0" d="M38.9,303.3c-0.4,1.8,0,3.9-2.6,4.5c-0.6-2.5,1.6-3.1,2.8-4.3L38.9,303.3z"/>
	<path class="st0" d="M0.9,115.3c-0.1,1.3-0.1,2.5-0.2,4.5c-1.3-2.2-0.3-3.2,0.5-4.3L0.9,115.3z"/>
	<path class="st0" d="M1827.3,953.7c0.1,0.3,0.3,0.6,0.2,0.8c-0.1,0.3-0.5,0.4-0.7,0.6c0-0.3-0.1-0.6,0-0.8
		C1826.9,954,1827.1,953.8,1827.3,953.7z"/>
	<path class="st0" d="M1366,673.6c-0.2,0.6-0.3,1.3-0.5,1.9c0.2-0.6,0.5-1.1,0.7-1.7C1366.2,673.8,1366,673.6,1366,673.6z"/>
	<path class="st0" d="M1366.2,673.8c0.2-0.8,0.3-1.5,0.2-0.8c0.4-0.6,0,0-0.4,0.6L1366.2,673.8z"/>
	<path class="st0" d="M1967.8,179.7c0.7,0.2,1.5,0.4,0.8,0.2c0.6,0.4,0,0-0.6-0.4C1968,179.5,1967.8,179.7,1967.8,179.7z"/>
	<polygon class="st0" points="975,776.4 974.5,776 974.8,776.6 	"/>
	<path class="st0" d="M1348.1,825.7c0.6,0.6,1.2,1.2,1.8,1.9l0.2-0.2c-0.6-0.6-1.2-1.2-1.8-1.9L1348.1,825.7z"/>
	<path class="st0" d="M1348.3,825.5c-0.7-0.7-1.5-1.4-2.2-2.2l-0.2,0.2c0.7,0.7,1.5,1.4,2.2,2.2L1348.3,825.5z"/>
	<path class="st0" d="M403,805.4c-0.7,0.9-1.3,0.9-2,0l-0.2,0.2c0.8,0,1.6,0,2.3,0L403,805.4z"/>
	<path class="st0" d="M1994,201.7c0.7,0.7,1.3,1.3,2,2c0,0,0.2-0.2,0.2-0.2c-0.7-0.7-1.3-1.4-2-2
		C1994.2,201.5,1994,201.7,1994,201.7z"/>
	<path class="st0" d="M1349.9,827.6c0.7,0.7,1.4,1.4,2.1,2.1l0.2-0.2c-0.7-0.7-1.4-1.4-2.1-2.1L1349.9,827.6z"/>
	<path class="st0" d="M1994.2,201.5c-0.7-0.7-1.3-1.3-2-2c0,0-0.2,0.2-0.2,0.2c0.7,0.7,1.3,1.3,2,2
		C1994,201.7,1994.2,201.5,1994.2,201.5z"/>
	<path class="st0" d="M1988,195.7c0.6,0.6,1.2,1.2,1.9,1.9c0,0,0.2-0.2,0.2-0.2c-0.6-0.6-1.2-1.2-1.9-1.9
		C1988.3,195.5,1988,195.7,1988,195.7z"/>
	<path class="st0" d="M1988.3,195.5c-0.7-0.7-1.3-1.3-2-2c0,0-0.2,0.2-0.2,0.2c0.7,0.7,1.4,1.3,2,2
		C1988,195.7,1988.3,195.5,1988.3,195.5z"/>
	<path class="st0" d="M1983.9,191.6c0.7,0.7,1.4,1.4,2.1,2.1l0.2-0.2c-0.7-0.7-1.4-1.4-2.1-2.1
		C1984.1,191.4,1983.9,191.6,1983.9,191.6z"/>
	<polygon class="st0" points="1978.3,185.4 1977.5,185.2 1978.1,185.6 	"/>
	<path class="st0" d="M974.8,776.6c0.7,0.7,1.4,1.4,2.2,2.1l0.2-0.2c-0.7-0.7-1.4-1.4-2.1-2.1L974.8,776.6z"/>
	<polygon class="st0" points="815.2,831.6 814.7,831.2 815,831.8 	"/>
	<path class="st0" d="M1992.3,199.5c-0.7-0.7-1.4-1.4-2.1-2.1c0,0-0.2,0.2-0.2,0.2c0.7,0.7,1.4,1.4,2.1,2.1
		C1992,199.7,1992.3,199.5,1992.3,199.5z"/>
	<path class="st0" d="M138.8,1070.2c-3.2-1.9-4.1-4.9-5-7.6c-2.3-6.6-4.4-13.2-4.7-21.4c3.6,3.6,3.9,8.1,7.2,11.6
		c1-2.8,2-4.9,2.4-7.1c1.8-11.2,2.6-22.5,2.6-33.8c0-37.7,0-75.3,0.2-113c0-5.3,0.8-10.6,1.1-15.9c0.2-3.7,0.4-7.3,0.5-11
		c0.2-9.3,0.3-18.6,1.4-27.9c0.1,2.5,0.3,4.9,0.3,7.4c0,14.3,0.3,28.7-0.1,43c-0.3,13.1,1.1,25.9,3.2,38.7c0.3,2,0.7,3.9,0.8,5.9
		c0.7,19,1.8,37.9,2,56.9c0.1,12.3-0.5,24.7-1.8,36.9c-1,9.6-2.3,19.2-5.6,28.3C142.2,1064.5,141.1,1067.6,138.8,1070.2z"/>
	<path class="st0" d="M263.7,1106c-2-8-4.7-15.8-3.4-24.1c0.3,1.3,0.7,2.5,1,3.8c0.3,1.3,0.7,2.6,0.9,3.9c0.2,1,0.2,2,0.3,3
		C263,1096.9,263.4,1101.4,263.7,1106z"/>
	<path class="st0" d="M245.7,886.9c0-8.2,0-16.4,0-24.6c0.2,0,0.4,0,0.7,0c0.1,4.1,0.3,8.2,0.3,12.3
		C246.7,878.7,246.9,882.8,245.7,886.9z"/>
	<path class="st0" d="M298.8,92.1c-0.4,0.4-1,1.6-1.5,1.5c-1.5-0.3-1.8-1.7-1.6-3c0.1-0.6,0.5-1.2,1-1.5
		C297.7,88.4,298.8,89.8,298.8,92.1z"/>
	<path class="st0" d="M386.5,220.1c0,2.2,0,4.3,0,6.5c-0.1,0-0.3,0-0.4,0c0-2.2,0-4.3,0-6.5C386.2,220.1,386.4,220.1,386.5,220.1z"
		/>
	<path class="st0" d="M762.9,808.1c-1.9,0.5-2.9,1.1-3.9,1c-0.4,0-0.8-1.3-1.2-2c0.8-0.4,1.6-1,2.4-1
		C760.8,806.1,761.4,807,762.9,808.1z"/>
	<path class="st0" d="M866.4,327.9c0,1.8,0,3.5,0,5.3c-0.2,0-0.5,0-0.7,0c0-1.8,0-3.5,0-5.3C865.9,327.9,866.2,327.9,866.4,327.9z"
		/>
	<path class="st0" d="M223.2,696.7c-1.4,1.4-2.8,1.2-4.5,0C220.4,694.9,221.8,695,223.2,696.7z"/>
	<path class="st0" d="M862.4,309c-0.1,0.1-0.3,0.3-0.5,0.5c-0.1-0.3-0.3-0.6-0.3-0.8c0.1-0.3,0.5-0.4,0.7-0.6
		C862.4,308.4,862.4,308.7,862.4,309z"/>
	<polygon class="st0" points="268.9,821.6 269.5,822 269.1,821.4 	"/>
	<path class="st0" d="M403.2,805.6c-0.8,0-1.6,0-2.3,0C401.7,805.6,402.4,805.6,403.2,805.6z"/>
	<path class="st0" d="M1927.3,896.9c-0.3-5.3-0.9-9.3-0.6-13.2c0.5-5.3,1.8-10.5,2.8-15.7c2.2-11.8,4.6-23.5,6.5-35.3
		c2.9-18.4,5.6-36.8,6.4-55.5c0.1-1.3,0.2-2.7,0.4-4c1.8-12.5,3.3-25.1,3.3-37.7c0-6,0.1-12,0.2-18c0.1-3,0.3-6,0.5-9
		c0.3-4.3,1-8.6,1-12.9c0.1-35.7,0-71.3,0-107c0-2.3-0.2-4.7-0.4-7c-0.4-5.3-1-10.6-1.3-15.9c-0.2-3.3-0.1-6.7-0.4-10
		c-0.5-8.3-1.3-16.6-1.7-24.9c-0.3-7-0.1-14-1.7-20.9c-1.1-4.8-1.9-9.8-2-14.8c-0.4-13.1-3.8-25.6-5.6-38.5
		c-1.4-9.9-3.8-19.6-5.8-29.4c-1.1-5.5-2-11.1-3.5-16.6c-3-10.6-6.1-21.1-9.6-31.5c-3.6-10.7-7.9-21.2-11.6-31.9
		c-1.8-5.2-5.4-7.3-10.5-7.7c-7.9-0.6-10.3,1.7-10,8.6c0.1,2.7,0,5.3,0,8c0,20.3,0.1,40.7,0.1,61c-0.1,66.7-0.2,133.3-0.2,200
		c0,59,0.1,118,0.2,177c0,49.7,0.1,99.3,0.1,149c0,2.7,0,5.3,0.3,8c0.3,2.9,3.1,4.9,5.8,3.9c2.5-0.9,5-2,7-3.6
		c3.6-3,6.6-6.5,8.7-10.9c2-4.2,4.3-8.3,6.1-12.6c3.6-8.9,8.4-17.4,10.6-26.9c0.1-0.6,0.5-1.2,0.8-1.7
		C1924.6,898.4,1926,897.6,1927.3,896.9z M1919.9,966.9c1.2-0.3,2.8-0.3,3.4-1.1c1.2-1.5,1.8-3.5,2.8-5.2c5.3-8.7,5.4-17.5,0.4-26.4
		c-0.6-1-0.5-2.4-0.8-3.7c3.7-0.8,7.3-0.9,10.1-2.3c3.4-1.7,6.8-2.4,10.4-3.2c0.9-0.2,2-0.9,2.4-1.7c0.5-1.1,1-2.7,0.5-3.6
		c-0.4-0.8-2.2-1.4-3.3-1.3c-1.6,0.3-3,1.4-4.5,2c-0.5,0.2-1.2-0.1-2.4-0.3c-1.2-2-3.1-3.9-1.3-7.3c2.4-1.7,5.4-1.4,8.4-1
		c2,0.3,4,0.9,5.8-0.5c0.7-0.6,1.1-1.5,1.8-2.6c-1.1-1.4-2.1-2.6-3.2-4c-5,1.1-9.8-2.8-15.3,0.1c-1.4,2.3-3,5.1-4.7,8
		c-2.5,0-4.7,0-7.4,0c-0.3,3.3-0.2,6.3-0.9,9.1c-0.7,3.1-2.1,6.1-3.3,9.5c3.2,3.5,3.8,7.1,1.2,11.6
		C1917,948.1,1917.5,958.8,1919.9,966.9z M1872.1,990.9c5.8-5.7,5.9-11.7,3.6-18c-0.5-1.4-1.2-2.3-3.3-2.1
		c-6.6,4.6-11.5,10.8-13.5,19.5C1863.6,992.2,1867.8,991.7,1872.1,990.9z M1854.6,950.3c2.1,3.1,3.7,5.5,6,8.8c0.2-4-0.3-7,0.7-9.4
		c2.7-6.2,0.5-12.3,0-18.3c-0.1-1.6-1.5-2.9-3.9-2.6c-3,2.4-3.8,5.9-2.7,9.5C1856.1,942.2,1855.7,946,1854.6,950.3z M1872.2,333
		c1.6-4.5,1.5-5.7-0.4-6.4c-0.7-0.3-2.1,0.1-2.5,0.6C1868,328.8,1868.6,330,1872.2,333z M1960.2,415.7c-1.6,1.3-2.4,1.8-2.9,2.6
		c-0.8,1.3-0.4,2.6,0.7,3.4c0.6,0.4,2,0.6,2.5,0.2c0.6-0.5,1-1.6,1-2.5C1961.6,418.5,1961,417.7,1960.2,415.7z M1968.3,818.8
		c1.9-3.4,1.7-5.5-0.9-8C1965.9,813.7,1965.7,815.9,1968.3,818.8z M1874,957.3c-0.6,0.5-1.4,0.8-1.5,1.2c-0.1,0.9,0,1.9,0.3,2.8
		c0.2,0.4,1,0.6,1.6,0.8c0.3-0.8,1-1.7,0.9-2.5C1875.3,958.8,1874.5,958.1,1874,957.3z M1944.7,939.2c-0.4,0.4-1.2,0.7-1.2,1.2
		c-0.1,0.5,0.5,1,0.8,1.5c0.4-0.4,1.1-0.7,1.2-1.1C1945.5,940.2,1945,939.7,1944.7,939.2z M1924.1,350.4c0.3-0.2,0.5-0.3,0.8-0.5
		c-0.3-0.4-0.6-0.8-1-1.2c0,0-0.5,0.3-0.7,0.5C1923.5,349.6,1923.8,350,1924.1,350.4z M1870.9,317.7c-0.4-0.3-0.8-0.7-1.1-1
		c-0.2,0.2-0.6,0.6-0.5,0.7c0.3,0.4,0.7,0.7,1.1,1C1870.6,318.2,1870.8,317.9,1870.9,317.7z M1863.5,963.1c-0.2,0.2-0.5,0.4-0.5,0.6
		c0,0.3,0.3,0.5,0.4,0.8c0.3-0.3,0.6-0.7,0.9-1C1864.1,963.4,1863.8,963.2,1863.5,963.1z"/>
	<path class="st0" d="M1233.6,67.2c-5.2-1.1-7.2-0.5-7.2,2.1c0.1,7.7-2.1,15.1-3.7,22.7c2.6,3.7,3.9,8.3,8.3,11.4
		c1-1.2,2.4-2.1,2.5-3C1234.3,89.5,1234.2,78.6,1233.6,67.2z M1225.4,277.5c2.2,1,3.4,0.2,3.7-1.1c0.6-2.2,0.6-4.6,0.9-6.9
		c0.4-2.6,0.2-5.5,1.3-7.8c3.8-8,2.7-16.3,2.4-24.6c0-0.8-0.9-1.9-1.6-2.2c-1.5-0.5-2.5,0.5-3.1,1.8c-1.7,3.7-2.8,7.5-2.8,11.5
		c-0.1,9,0.4,18-1.3,26.9C1224.7,275.7,1225.1,276.4,1225.4,277.5z M1234.6,208.8c-2.5,2.9-2.5,4.9-0.3,7.2
		C1236.5,213.8,1236.1,211.7,1234.6,208.8z M1229.5,292c2.8-2.3,2.8-2.3,0.1-5C1228,288.7,1228.1,290.3,1229.5,292z M1211.3,64.8
		c-0.2,1-0.5,1.9-0.4,2.8c0,0.3,1,0.5,1.6,0.7c0.3-0.9,0.6-1.8,0.7-2.7C1213.1,65.4,1212.1,65.1,1211.3,64.8z"/>
	<path class="st0" d="M1814.7,374.2c0.5-0.5,1.3-1.7,2.3-1.9c1.8-0.4,3.5,1.4,3.7,3.6c0.1,1.2-1,2.7-2.2,2.8
		C1816.5,378.8,1814.8,377.2,1814.7,374.2z"/>
	<path class="st0" d="M1962.2,177.5c-0.7-0.7-1.3-1.3-2-2l-0.2,0.2c0.7,0.7,1.3,1.3,2,2L1962.2,177.5z"/>
	<polygon class="st0" points="1960.2,175.5 1959.6,175.1 1960,175.7 	"/>
	<path class="st0" d="M979.1,726.6c-0.9-1.4-2.2-2.6-2.7-4.1c-3.2-10.2-5.4-20.6-6.9-31.1c-0.2-1.5,0.1-3,0.3-6.4
		c2.7,4.8,4.3,8,6.2,11c1.8,2.8,3.9,5.3,6,8.1c-1.8,7.6-3.5,15.1-3.2,22.7L979.1,726.6z"/>
	<path class="st0" d="M86.3,661.6c0.5,7.2,1.5,13.9,1.3,20.5c-0.1,5.3-0.8,10.7-2.5,15.7c-2.2,6.4-2.1,12.3,0.4,18.4
		c1.6,4,2.9,8.1,4.3,12c-0.6,2.3-2.2,3.3-3.8,2.3c-3.1-1.9-6.1-3.7-9.7-4.4c-1.2-0.3-2.1-2.1-3.2-3.3c-2.7,2.2-1.9,4.5-0.6,6.4
		c0.9,1.3,2.4,2.2,3.8,3.2c2.5,2,3.8,4.5,4.1,7.1c-1.2,4.8-5.5,5.3-8.5,8c-1.1,7-1.7,14,1.6,21.1c3.9,8.3,4.6,17.3,5.5,26.2
		c0.6,6.3,0.6,12.7-3.2,17.4c0.8,6,1.5,10.9,2.1,15.2c2.4,2.7,4.8,1.7,7.1,1.6c2.7-0.1,4.7,1.4,4.9,3.9c0.5,5.9,1.9,11.7-1.8,17.4
		c-2.2,3.4-2.1,7.6-0.9,11.6c0.9,3.2,1.6,6.4,0.5,9.8c-0.5,1.5-0.2,3.4,0.2,4.9c1.8,6.2,1,12.6,1.1,18.9c0.1,4.8-1.6,9.2-3.6,13.4
		c-2.3,4.8-2.5,9.4-1.4,14.6c2,9.8,3.9,19.6,3.1,29.7c-0.1,1,0.1,2-0.1,3c-1.4,6.2-1.5,12.4-0.1,18.7c1,4.3-0.5,8.6-2.1,12.7
		c-1.9,4.7-2.1,9.2,1.1,13.3c3.9,5,3.3,10.6,2.8,16.3c-0.2,2-1,3.9-1.3,5.9c-0.4,3-0.5,6,1.6,8.6c2.1,2.6,2.5,5.5,1.5,8.5
		c-1.6,5.2-1.4,10.6-1.2,15.9c0.3,7.2-0.4,14-5.6,19.5c-0.4,0.5-0.6,1.2-0.9,1.8c-0.4,0.5-0.9,1-1.7,1.9c-3.8,0.6-8.1,1.3-12.6,2
		c-3.3-1.9-6.7-4-9.8-5.9c-3-11.7-3.6-22.3-2.2-32.9c0.3-2.3,0.4-4.7,0-6.9c-2.3-12.2-1.1-24.6-1.3-36.9c3.3-10,0.6-20.6,3.7-30.6
		c0.6-1.8,0.2-4,0.2-6c0-10,0.2-20-0.1-30c-0.1-5-1.6-9.9-1.6-14.8c0-4.9,1.3-9.9,1.6-14.8c0.2-2.6-0.3-5.3-0.8-7.9
		c-0.5-2.6-0.7-5.2-0.4-7.9c0.4-3.2,0.2-6.5,0.3-11.5c1.4-2.8,4.1-7.2,1.8-12.5c1.2-5.3,0.3-10.5-0.1-15.8
		c-0.3-4.8,1.6-9.8,2.6-15.1c-2.5-7-2.8-14.3-1.7-22.1c1.1-7.9,0.2-16,0.5-24c0.1-4.3,0.6-8.6,1.3-12.8c0.6-3.7,0.7-7.3-0.4-10.9
		c-1-3.3-0.7-6.5-0.1-9.9c0.7-3.9,1-7.9,1.1-11.9c0.1-21.7,0-43.3,0.2-65c0-4,0.7-7.9,1.1-11.9c0.3-2.6,0.8-5.3,0.7-7.9
		c-0.1-11-0.5-22-0.5-33c0-7.3,0.5-14.6,0.8-21.9c0.1-1.7,0.7-3.2,2.9-3.8c4,1,3.1,7.4,8.3,7.9c2.9-1.8,3.8-4.9,4.4-8.2
		c0.6-3.6,1.2-7.2,1.8-10.8c0.7-4.7,0.3-9.2-1.5-13.7c-2.6-6.5-5-13-10.4-17.5c1.1-3.2,3.5-2.1,5.2-2.3c2.6-0.3,5.4,0,7.2-2.9
		c0.4-5,0.8-10.3,1.2-15.5c-1.4-3.4-4-5.1-7.6-5.6c-2.3-0.3-4.6-0.9-6.7-1.8c-2.8-1.2-3-3.5-0.8-7.6c2.1,0.3,4.4,0.7,6.7,0.9
		c1.9,0.1,4.2-1.5,4.4-3.4c0.4-3,0.6-6,0.6-8.9c0-6,0.2-11.8,2.9-17.5c2.4-4.9,2.3-10.3,0.7-15.6c-0.9-2.9-1.8-5.7-2.6-8.6
		c-0.6-2.1,0-4.2,1.6-5.5c3.4-2.7,7.3-4.5,12.3-2.6c2.1,6.5,0.8,13.1,0.8,20c-1,1.2-1.9,2.5-3.1,3.6c-1.8,1.7-2.6,3.9-2.5,6.3
		c0.4,10.9-1.3,22,1.3,32.9c0.5,2.2,0.5,4.6,0.5,7c0,28.3-0.1,56.7-0.2,85c0,1.3,0.2,2.7-0.1,4c-2.5,10.2-1.4,20.6-1.6,30.9
		C90.8,654.4,90.9,654.4,86.3,661.6z M81.5,649.3c2-5.4,2.1-9.5,0.5-13.7c-0.1-0.3-1.1-0.3-2-0.6C77.8,639.6,75.6,643.9,81.5,649.3z
		 M74.6,690.2c0.8-0.7,1.1-0.9,1.2-1.2c0.7-1.3,0.6-2.5-0.7-3.4c-0.2-0.2-0.7-0.2-0.9-0.1c-1.4,0.9-1.1,2.2-0.7,3.5
		C73.6,689.3,74,689.5,74.6,690.2z"/>
	<path class="st0" d="M186.4,1015.4c0.2-1.4,0.4-3,0.7-4.7c0.2-1.3,0.4-2.6,0.7-4.4c1.7-1.1,3.4-2.7,5.4-3.6
		c3.3-1.5,6.5-1.1,9.2,1.5c1.9,1.8,4,3.6,5.6,5.6c1.2,1.5,2.3,3.4,2.6,5.2c2.5,12.4,2.5,25,1.7,37.6c-0.4,5.9-0.9,11.9-1.4,17.8
		c-0.2,2.6-0.6,5.1-1,8c-2,0.4-3.5,1-5.1,1c-5.6,0.3-11.3-0.1-16.8,1.7c-1.2,0.4-2.6,0.2-3.9,0.1c-2.5-0.2-4.5-1.9-4.9-4.3
		c-0.8-5.9-1.9-11.8-2.2-17.7c-0.4-9.6,0.1-19.2-0.2-28.9c-0.2-6.3,1.5-11.1,7.8-13.5C185.3,1016.7,185.7,1016,186.4,1015.4z"/>
	<path class="st0" d="M197.5,803.9c1.2,1.4,2.4,2.2,2.7,3.3c0.5,2.2,0.7,4.6,0.8,6.9c0.1,8,0.1,15.9,0,23.9c0,2,0.3,4.1-0.3,6
		c-2.3,8.2-1.7,16.5-1.7,24.8c0,6.4-1.7,12.5-3.1,18.6c-0.4,1.8-1.9,3.3-3.3,5.5c-1.4-1.2-2.5-1.8-3.2-2.7c-1.2-1.6-2.1-3.4-3-4.9
		c-3.5-1.5-6.8-2.9-10.3-4.3c-0.4-2.2-1-4.2-1-6.1c-0.1-10-0.3-19.9,0.1-29.9c0.2-4.6,1.5-9.1,2.5-13.6c0.2-0.9,0.9-1.8,1.5-2.5
		c0.6-0.7,1.5-1.2,2.2-1.7c3.4,0.4,4.6,2.7,5.2,5.4c0.8,4,0.4,7.9-0.8,11.8c-0.7,2.4-0.4,4.6,1.1,6.6c0.5,0.7,1.7,1.7,2.3,1.5
		c1.1-0.3,2.4-1.2,2.9-2.2c0.7-1.4,1.1-3.3,0.8-4.8c-0.9-5,0.1-9.9,0.1-14.9c0-2.6-0.3-5.3-0.7-7.9c-0.7-5.7,0.5-11.2,2.8-16.4
		C195.3,805.6,196,805.2,197.5,803.9z"/>
	<path class="st0" d="M197.2,949.5c1.5,2.3,2.6,3.3,2.8,4.4c1.1,6.1,3.7,12,1.5,18.4c-0.8,2.4-0.3,5.2-0.5,7.9
		c-0.1,1.9-0.5,3.8-0.6,5.3c-2.5,1.4-3.7,0.4-4.6-1.1c-4-6.8-5.6-14.1-4.4-21.9c0.5-3.2,1.5-6.4,2.5-9.6
		C194.3,952,195.5,951.2,197.2,949.5z"/>
	<path class="st0" d="M67.8,380.2c-0.3-11.2-2.5-19.8-2.5-28c2.7-3,5.1-2.9,8.2-1.5c0.4,1.2,1.2,2.7,1.4,4.2
		c0.9,7.3-1.1,14.3-2.9,21.3C71.8,377.3,70.4,377.9,67.8,380.2z"/>
	<path class="st0" d="M70.6,458.9c2.6-0.3,3.5,1.3,3.8,2.8c0.5,2.3,0.4,4.6,0.6,6.9c0.3,4.3,0.4,8.6,1,12.8c0.5,3.7-0.7,6.4-3.2,8.6
		c-3.5-0.4-5.6-2.8-5-5.3c2-8.2,0.4-16.6,1.9-24.7C69.7,459.8,70.1,459.6,70.6,458.9z"/>
	<path class="st0" d="M178.9,925.3c-2.1-4.2-3-7.5-3.2-11.1c-0.1-1.9,1.7-3.8,3.6-4c1.9-0.2,3.1,0.8,4,2.3c0.3,0.5,0.7,1.2,0.7,1.8
		C184.1,918.3,183.6,922,178.9,925.3z"/>
	<path class="st0" d="M100.2,388.9c1.2,5.7,1,11,0.3,16.9c-5.1-3.7-6-8.2-5-13.3C95.8,390.6,96.4,388.6,100.2,388.9z"/>
	<path class="st0" d="M190.6,590.4c-4.6-6.8-4.7-9.3-0.2-13.6c3.3,2.7,2.3,6.4,2.4,9.8C192.9,588.3,192.4,589.7,190.6,590.4z"/>
	<path class="st0" d="M192.4,598.6c0.8,5.6,0.7,9.3,0,13.5C188.5,608.3,188.5,608.3,192.4,598.6z"/>
	<path class="st0" d="M164.6,370.2c-0.4-0.8-1-1.6-1.2-2.5c-0.2-1.2-0.1-2.5-0.1-4.2c1.2,0.1,2.3-0.1,2.7,0.3
		C168.7,366.8,168.4,368,164.6,370.2z"/>
	<path class="st0" d="M70.7,535.6c1.1,0.9,2.1,1.6,2.9,2.5c0.3,0.4,0.3,1.4,0,1.8c-0.9,1.4-2.2,1.2-3.5,0.6c-1.3-0.6-2.3-1.6-1.8-3
		C68.6,536.9,69.7,536.5,70.7,535.6z"/>
	<path class="st0" d="M193,526.4c-1.2,1-2,2-3,2.4c-0.4,0.1-1.7-0.9-1.8-1.5c-0.2-1.4,0.7-2.5,2.1-2.6
		C191,524.7,191.7,525.6,193,526.4z"/>
	<path class="st0" d="M99.8,433.1c1.6,3.2,1.3,5.6,0.2,8.3C98.7,438.7,98.9,436.3,99.8,433.1z"/>
	<polygon class="st0" points="170.8,806.5 171.3,806.3 171.2,806.8 	"/>
	<path class="st0" d="M565.6,822.4c-3.3-0.8-3.8-3.2-4.1-5.5c-0.4-3.3-0.5-6.6-0.4-9.9c0.1-5.4-0.3-10.6-2.4-15.6
		c-1.8-4.5-2.2-9-0.4-12.8c-1.2-4.9-2.6-9-3.1-13.2c-0.4-3.2,0-6.6,0.5-9.9c0.3-2.2,1.4-4.2,2.2-6.4c1,0.6,1.8,0.7,2.1,1.2
		c2.8,4.9,5.9,9.6,8.1,14.8c1.2,2.9,0.6,6.6,1.4,9.8c1.1,4.3,1.4,8.4,0.1,12.7c-1.1,3.6-0.2,7.2,0.6,10.8c1.7,7.3,0.8,14.5-2.3,21.3
		C567.3,820.7,566.3,821.6,565.6,822.4z"/>
	<path class="st0" d="M677.5,727.6c-0.5-15.1-3-27.8-2.6-40.7c0.2-6.6,0.4-13.3-1.5-19.8c-1-3.5-0.7-7.3,1.4-10.6
		c0.5-0.7,1.4-1.1,2.6-2.1c0.6,1.6,1.1,2.7,1.3,3.9c0.4,1.9,0.2,4.2,1.1,5.8c3.5,5.5,3.3,11.6,2.4,17.4c-1.5,10.6-1.2,21.2-1.6,31.8
		c-0.1,3-0.3,6-0.7,8.9C680,723.4,679.1,724.5,677.5,727.6z"/>
	<path class="st0" d="M565.1,346.8c-3.4-1.5-3.8-3.8-3.9-6.1c0-6,1.7-11.7,3.5-17.4c0.9-2.8,2.3-5.4,3.5-8.1
		c0.6-0.2,1.3-0.5,1.8-0.4c1.5,0.3,2.1,1.6,2.1,3c-0.3,5.9-0.9,11.8-1.1,17.8C570.8,340.2,568.9,343.8,565.1,346.8z"/>
	<path class="st0" d="M679.4,617.9c1.2,1.9,2.4,3.2,2.7,4.6c1.4,5.5,1,11.2,0.4,17c-3.5,0.8-5.8-0.7-6.5-3.3
		c-1.5-5.5-2-11.1,0.7-16.5C677,619.2,677.8,619,679.4,617.9z"/>
	<path class="st0" d="M653,317.5c2.7,8,2.7,9.5,0.7,16.4C650.6,331,650.3,327.4,653,317.5z"/>
	<path class="st0" d="M656.3,298.9c-0.2,1.7-0.2,2.9-0.6,4c-0.3,0.7-1.4,1.1-1.9,1.5c-1.9-0.3-2.2-1.5-2.2-2.8
		C651.6,299.3,652.6,298,656.3,298.9z"/>
	<path class="st0" d="M370.8,629.1c0,8.7,0.2,17.3,0,26c-0.8,22.7-3.5,45.1-9.3,67.1c-2.7,10-6.7,19.5-11.2,28.8
		c-2.3,4.9-5.7,9-9.9,12.4c-6.3,5-13.1,6.1-20.5,2.5c-8.2-4-15.1-9.3-21.1-16.3c-8.7-10.2-13.6-22-16.9-34.6
		c-4-15.5-7.9-31-10.2-46.8c-1.7-11.8-3.2-23.7-4.7-35.6c-0.9-7.3-1.7-14.5-2.3-21.8c-0.6-6.6-1.2-13.3-1.5-19.9
		c-0.7-15.3-1.7-30.6-1.5-45.9c0.4-25.3,1.7-50.6,7.6-75.3c2.6-10.7,5.6-21.2,9.1-31.7c2.6-7.9,6.4-15.3,12.5-21.4
		c9.8-9.8,23.3-9.7,32.5,0.9c7.2,8.3,13.1,17.6,17.4,27.8c11.8,27.4,19.1,56.1,23.9,85.4c2.6,15.7,4.3,31.6,4.8,47.6
		c0.5,17,1.5,33.9,2.3,50.9C371.4,629,371.1,629.1,370.8,629.1z M316.4,458.7c-1.7,3.8-2.8,5.5-3.3,7.3c-0.9,3.5-1.5,7.2-2.3,10.7
		c-3.4,15.7-4.4,31.7-5.4,47.6c-0.8,14-1.4,27.9-0.6,42c1.7,29.6,3.7,59.2,8.3,88.5c3.1,20.1,6.4,40.1,12.2,59.7
		c0.6,2.1,1.1,4.3,1.7,6.6c-2.2,0.3-2.8-1-3.5-2c-3-4.4-5.3-9.2-6.8-14.4c-1.5-5.4-3-10.7-5.6-15.8c-7.7,1.1-15,2.1-22.2,3.2
		c-1.3,0.2-2.4,1-1.5,3.2c7,1.6,14.3-1.1,20.9,0.5c1,0.9,1.7,1.2,1.9,1.8c1.2,3.4,2.4,6.9,3.5,10.4c2.7,9,6.7,17.4,12.6,24.8
		c1,1.3,2.2,2.6,4.9,2.1c1-1.4,2.7-3,3.5-5c1.7-4.3,3.1-8.8,4.3-13.3c1.4-5.5,2.5-11.1,3.8-16.6c0.5-1.9,1.3-3.7,1.7-5
		c5-3.2,11.2,0.4,15.9-4.9c-1.7-0.8-2.8-1.7-3.9-1.7c-2-0.1-4,0.3-5.9,0.5c-1.7,0.2-3.3,0.4-4.6-1.3c-1.1-2.9-0.3-5.8,0.1-8.8
		c2.1-15.2,3.5-30.4,3.5-45.8c0-19.7-0.1-39.3-2.6-58.9c-1.2-9.2-1.8-18.6-5.4-27.4c-2.2-5.3-3.2-10.8-4.1-16.4
		c-1.1-7.2-1.9-14.6-3.8-21.6c-3.8-13.5-8.2-26.7-12.5-40C320.2,465.9,318.6,463.4,316.4,458.7z"/>
	<path class="st0" d="M244.8,575.6c1.8,1.6,3,2.1,3.2,2.9c1.5,6,3.3,12.1,3,18.4c-0.3,5.8,1.3,11.7-1,17.1c-2.1,0.7-3-0.3-3.8-1.3
		c-0.2-0.3-0.4-0.6-0.4-0.9c-0.5-10.5-3.2-20.8-2.5-31.4C243.3,579.1,244,578,244.8,575.6z"/>
	<path class="st0" d="M316.6,358c0.1,1.5,0.4,3,0.4,4.5c-0.1,5.5,0.4,11.1-1.4,16.6c-0.2-1.2-0.5-2.3-0.4-3.5
		C315.2,369.8,314.9,363.9,316.6,358z"/>
	<path class="st0" d="M805.6,351.3c7.6-2,10.3-0.7,10.9,5c0.5,4.9,0.5,9.9,0,14.9c-0.5,5.6-1.8,11.1-2.6,16c0.2,4.1,3.8,7.1,2,10.9
		c-0.9,0.1-1.6,0.5-2.1,0.3c-3.8-1.9-6.3-5-7-9.1C804.9,376.7,804.6,364.2,805.6,351.3z"/>
	<path class="st0" d="M817.7,722.6c1.9,4.8,3.3,9.5,3.2,14.5c-0.1,10.3,0,20.5-0.2,30.8c0,2.3-0.3,4.6-1.1,6.8
		c-0.3,0.9-2,1.6-3.1,1.8c-0.7,0.1-1.8-0.8-2.4-1.5c-0.6-0.7-0.9-1.8-1-2.7c-0.8-11.2-3.5-22.2-1.2-33.6c0.5-2.4-0.7-5.2-0.9-7.8
		c-0.2-3.2,0.8-5.9,3.6-7.7C815.5,722.8,816.6,722.9,817.7,722.6z"/>
	<path class="st0" d="M731.4,774.5c-1-0.7-1.3-0.9-1.4-1.1c-1.9-4.6-4.3-9-5.4-13.8c-1-4.4-1.3-9.2,0.2-13.6
		c2.2-6.4,2.8-12.8,1.9-19.6c-0.3-2.5,0.5-5.2,1.3-7.6c0.8-2.3,3-3.3,5.9-3.9c0.4,1.4,1.1,2.5,1,3.7c-0.3,10.9,0.9,21.8-1.5,32.7
		c-0.9,4.1-0.3,8.6-0.4,12.9C732.7,767.4,733.4,770.8,731.4,774.5z"/>
	<path class="st0" d="M738.8,561.1c2.5,7.6,2.9,17.1,2.2,35.3c-0.2,4-0.6,7.9-2.9,11.3c-1.6,1-2.7,0.2-3.2-1.1
		c-0.8-2.2-1.7-4.4-1.7-6.6c0-8.3-1-16.6,1.3-24.8c0.8-2.8,0.4-6,1-8.9C735.8,564.9,737.1,563.7,738.8,561.1z"/>
	<path class="st0" d="M728,356c-1.9,0.9-3.1,0.8-3.9-0.5c-0.5-0.8-0.7-1.8-0.8-2.8c-0.4-4.8,0.9-9.2,3.5-13.1c1-1.5,2.8-1.7,4.7,0.2
		C731.7,345.4,729.6,350.9,728,356z"/>
	<path class="st0" d="M738.1,633.9c-2.8-0.7-3.6-2.8-3.7-4.6c-0.2-3.5,1.4-6.3,4.4-8.7c0.7,0.9,1.5,1.6,1.7,2.4
		C741.1,626.9,740,630.5,738.1,633.9z"/>
	<path class="st0" d="M495.2,364.3c2.4,2.9,3.2,5.3,2.7,8c-0.1,0.8-1.2,1.7-1.9,1.9c-0.7,0.1-2.1-0.6-2.2-1.2
		C493.1,370.2,492.3,367.3,495.2,364.3z"/>
	<path class="st0" d="M283.8,109.9c-0.9-0.2-2.2-0.1-2.7-0.7c-3.1-3.6-6.9-6.1-12-6.7c-3.2-6.6-2.7-13.7-3.6-20.5
		c-0.8-5.8,0.6-10.7,3.2-17.3c2.1-1,4-0.4,5.4,1.2c1.5,1.7,2.8,3.7,3.9,5.7c1.9,3.5,3.7,7,5.5,10.6c0.4,0.9,0.9,1.8,1.1,2.8
		C285.5,88.4,284.9,104.2,283.8,109.9z"/>
	<path class="st0" d="M198.9,66.6c1.7-0.7,3.3-0.5,4.4,1c2.3,3.3,3.6,7,3.3,11.1c-0.1,0.9-0.6,1.8-1.1,2.7c-0.8,1.4-3.6,1.8-4.3,0.6
		c-2.7-4.5-5.4-9.1-3-14.6C198.3,67,198.7,66.9,198.9,66.6z"/>
	<path class="st0" d="M341.7,102.6c-5.2-4.2-9.6-9-14.5-13.5c-1.1-1-1.3-2.9-2.1-4.8c4.2-5.5,3.9-12.3,4.2-19.1
		c1.9-0.5,3.6-1.4,4.9-1.1c1.8,0.4,4.1,1.5,4.8,2.9c5.6,10.4,7.6,21.6,5,33.3C343.9,101.1,342.8,101.6,341.7,102.6z"/>
	<path class="st0" d="M416.4,279.7c-1.7-5.9-1.7-10-0.7-14.4C419.7,268.9,420,272,416.4,279.7z"/>
	<path class="st0" d="M413.6,291c0.6,0.6,1.2,1.2,1.8,1.8c-0.6,0.6-1.2,1.6-1.9,1.7c-1.2,0.2-2.4-1.6-1.7-2.6
		C412.1,291.5,412.9,291.3,413.6,291z"/>
	<path class="st0" d="M97.4,95.6c2.9,1.6,4.9,2.7,6.9,3.9c1.2,7.8,0.8,15.2,0.1,22.6c-1.5,0.1-2.4,0.5-2.7,0.2
		c-5.9-5.7-13.1-10.3-15.6-19.9c3.8-12.3,2.7-26.6,8.5-40c5.8,4.1,7,9.2,6,15.2C99.6,83.4,98.5,89.2,97.4,95.6z"/>
	<path class="st0" d="M80.9,64c-0.5,0.9-0.7,1.4-1,1.9c-0.6-0.6-1.4-1-1.8-1.7c-0.1-0.2,0.5-1,0.8-1.5C79.5,63.1,80.2,63.5,80.9,64z
		"/>
	<path class="st0" d="M85.6,290.9c0.2-0.6,0.4-1.1,0.7-1.7c0.5,0.3,1.3,0.6,1.4,1c0.1,0.5-0.4,1.1-0.6,1.7
		C86.5,291.5,86.1,291.2,85.6,290.9z"/>
	<polygon class="st0" points="826.9,661.6 827.4,661.9 827.1,661.4 	"/>
	<path class="st0" d="M805,667.4c-0.1,0.2-0.2,0.5-0.3,0.7c0.2-0.2,0.3-0.3,0.5-0.5L805,667.4z"/>
	<path class="st0" d="M1927.3,896.9c-1.3,0.8-2.7,1.6-4.1,2.4c-0.2,0.5-0.6,1.1-0.8,1.7c-2.2,9.5-7,18-10.6,26.9
		c-1.8,4.3-4.1,8.4-6.1,12.6c-2,4.3-5.1,7.9-8.7,10.9c-2,1.7-4.5,2.8-7,3.6c-2.7,1-5.5-1.1-5.8-3.9c-0.3-2.6-0.3-5.3-0.3-8
		c-0.1-49.7-0.1-99.3-0.1-149c-0.1-59-0.2-118-0.2-177c0-66.7,0.2-133.3,0.2-200c0-20.3-0.1-40.7-0.1-61c0-2.7,0.1-5.3,0-8
		c-0.3-6.9,2.1-9.2,10-8.6c5,0.4,8.7,2.5,10.5,7.7c3.7,10.7,8,21.2,11.6,31.9c3.5,10.4,6.6,20.9,9.6,31.5c1.5,5.4,2.4,11,3.5,16.6
		c2,9.8,4.4,19.5,5.8,29.4c1.8,12.8,5.2,25.4,5.6,38.5c0.2,5,0.9,10,2,14.8c1.6,6.9,1.4,13.9,1.7,20.9c0.4,8.3,1.2,16.6,1.7,24.9
		c0.2,3.3,0.1,6.7,0.4,10c0.4,5.3,0.9,10.6,1.3,15.9c0.2,2.3,0.4,4.6,0.4,7c0,35.7,0.1,71.3,0,107c0,4.3-0.7,8.6-1,12.9
		c-0.2,3-0.5,6-0.5,9c-0.1,6-0.2,12-0.2,18c0,12.7-1.6,25.2-3.3,37.7c-0.2,1.3-0.4,2.6-0.4,4c-0.8,18.6-3.5,37.1-6.4,55.5
		c-1.9,11.8-4.3,23.6-6.5,35.3c-1,5.2-2.3,10.4-2.8,15.7C1926.4,887.5,1927.1,891.5,1927.3,896.9z M1899,932.4
		c3.6-1.6,4.9-4,5.8-6.5c3-8.5,6.4-16.9,8.6-25.6c3.7-14.2,6.6-28.5,9.9-42.8c0.4-1.9,1-3.9,1-5.9c0.3-10.7,2.8-21.1,4.4-31.6
		c1.7-10.5,3.9-21,3.5-31.7c-0.1-2,0.6-3.9,0.8-5.9c0.4-3.3,0.7-6.6,1-9.9c0.2-2.3-0.1-4.8,0.6-6.9c1.6-5.6,1.6-11.2,1.5-16.8
		c-0.1-3-0.1-6,0.4-9c2-11.9,1.7-23.9,2-35.9c0.2-6.7,0.7-13.3,0.9-20c0.2-9.3,1.5-18.6,0-27.9c-0.2-1.3-0.1-2.6-0.1-4
		c0.2-4.6,0.6-9.3,0.5-13.9c-0.4-15.6-1.1-31.3-1.6-46.9c-0.2-7-0.2-14-0.6-21c-1-15.6-2.1-31.2-3.4-46.8c-0.9-11.3-2-22.5-3.4-33.8
		c-1.2-9.2-3.2-18.4-4.4-27.6c-3.9-30.9-12-60.7-22.4-90c-0.7-1.9-1.5-3.7-2.5-5.4c-0.4-0.6-1.4-0.8-2.8-1.6
		c-0.2,3.2-0.4,5.8-0.5,8.5c-0.2,3.3,0.1,6.7-0.4,10c-0.7,3.7-0.2,7.2-0.1,10.9c0.3,10,0.1,20-0.1,30c-0.1,4.3-0.8,8.6-0.9,12.9
		c-0.2,25-0.3,50-0.2,75c0.1,15.3-0.8,30.7,1.2,45.9c0.3,2,0.1,4,0,6c-0.3,8.3-0.9,16.6-1,24.9c-0.2,17.7-0.1,35.3,0,53
		c0,10.3-0.8,20.7,0.9,30.9c0.3,1.6,0,3.3-0.1,5c-0.3,5-0.9,10-0.8,14.9c0.3,16-0.8,31.9,1.1,47.9c0.9,7.9-0.1,16,0.1,24
		c0.2,8-1.9,15.9-0.2,23.8c0.1,0.6-0.1,1.3-0.2,2c-1.7,9.6-1,19.2,0,28.9c1.1,10.3,0.7,20.6-0.3,30.9c-0.9,9.3-1.4,18.6,0.3,27.9
		c0.7,3.7,0.4,7.2-0.3,10.8c-0.7,3.5-0.9,7.4-0.2,10.9c0.8,4.4,0.5,8.4-0.2,12.8C1895.4,919.1,1895.4,925.7,1899,932.4z"/>
	<path class="st0" d="M1919.9,966.9c-2.4-8.1-2.9-18.8,0-23.7c2.6-4.5,2-8.1-1.2-11.6c1.2-3.4,2.5-6.4,3.3-9.5
		c0.6-2.8,0.6-5.8,0.9-9.1c2.7,0,4.9,0,7.4,0c1.7-2.9,3.3-5.7,4.7-8c5.6-3,10.3,1,15.3-0.1c1.1,1.4,2.1,2.7,3.2,4
		c-0.7,1-1.1,2-1.8,2.6c-1.8,1.4-3.8,0.7-5.8,0.5c-3-0.4-5.9-0.7-8.4,1c-1.8,3.3,0.2,5.3,1.3,7.3c1.1,0.1,1.9,0.5,2.4,0.3
		c1.5-0.6,2.9-1.7,4.5-2c1-0.2,2.8,0.4,3.3,1.3c0.5,0.9,0,2.5-0.5,3.6c-0.4,0.8-1.5,1.5-2.4,1.7c-3.6,0.8-7,1.5-10.4,3.2
		c-2.8,1.5-6.3,1.5-10.1,2.3c0.3,1.3,0.2,2.7,0.8,3.7c5,8.9,5,17.7-0.4,26.4c-1,1.7-1.6,3.7-2.8,5.2
		C1922.6,966.6,1921,966.5,1919.9,966.9z"/>
	<path class="st0" d="M1872.1,990.9c-4.4,0.9-8.6,1.3-13.2-0.6c2-8.6,6.9-14.8,13.5-19.5c2.1-0.2,2.8,0.7,3.3,2.1
		C1878.1,979.2,1878,985.1,1872.1,990.9z"/>
	<path class="st0" d="M1854.6,950.3c1.1-4.3,1.5-8,0.2-12c-1.2-3.6-0.3-7.1,2.7-9.5c2.4-0.3,3.7,1,3.9,2.6c0.5,6.1,2.6,12.1,0,18.3
		c-1,2.4-0.5,5.4-0.7,9.4C1858.3,955.7,1856.7,953.3,1854.6,950.3z"/>
	<path class="st0" d="M1872.2,333c-3.7-3-4.2-4.1-2.9-5.7c0.5-0.6,1.8-0.9,2.5-0.6C1873.8,327.3,1873.8,328.4,1872.2,333z"/>
	<path class="st0" d="M1960.2,415.7c0.7,1.9,1.4,2.8,1.4,3.7c0,0.9-0.4,2.1-1,2.5c-0.5,0.4-1.9,0.2-2.5-0.2
		c-1.2-0.8-1.5-2.2-0.7-3.4C1957.8,417.6,1958.7,417.1,1960.2,415.7z"/>
	<path class="st0" d="M1968.3,818.8c-2.6-2.9-2.4-5.1-0.9-8C1970,813.3,1970.2,815.4,1968.3,818.8z"/>
	<path class="st0" d="M1874,957.3c0.5,0.8,1.3,1.5,1.3,2.3c0.1,0.8-0.6,1.7-0.9,2.5c-0.5-0.3-1.4-0.4-1.6-0.8
		c-0.3-0.9-0.4-1.9-0.3-2.8C1872.6,958.1,1873.3,957.8,1874,957.3z"/>
	<path class="st0" d="M1944.7,939.2c0.3,0.5,0.8,1,0.8,1.5c0,0.4-0.7,0.8-1.2,1.1c-0.3-0.5-0.9-1-0.8-1.5
		C1943.5,939.9,1944.3,939.6,1944.7,939.2z"/>
	<path class="st0" d="M1924.1,350.4c-0.3-0.4-0.6-0.8-0.9-1.2c0.2-0.2,0.7-0.5,0.7-0.5c0.4,0.4,0.7,0.8,1,1.2
		C1924.6,350.1,1924.4,350.3,1924.1,350.4z"/>
	<path class="st0" d="M1870.9,317.7c-0.2,0.2-0.4,0.5-0.6,0.7c-0.4-0.3-0.8-0.7-1.1-1c0,0,0.3-0.4,0.5-0.7
		C1870.2,317,1870.6,317.4,1870.9,317.7z"/>
	<path class="st0" d="M1863.5,963.1c0.3,0.1,0.5,0.3,0.8,0.4c-0.3,0.3-0.6,0.7-0.9,1c-0.2-0.3-0.4-0.5-0.4-0.8
		C1863,963.5,1863.4,963.3,1863.5,963.1z"/>
	<path class="st0" d="M1738.8,290.6c3.4,7.1,5.4,13.7,5.3,20.9c-0.1,7,0.5,13.9,1.9,20.8c1.4,7.1,1.5,14.5,2.4,21.8
		c0.5,4.3,1.1,8.6,2.1,12.8c1.3,5.2,1.4,10.5,1.5,15.8c0.2,9,0.8,17.9,1.7,26.8c1.5,14.8,3.7,29.6,3.1,44.6
		c-0.2,4.6,1.3,9.2,1.8,13.8c0.5,4.6,1.2,9.2,1.3,13.9c0.2,14.6,0.2,29.3,0.4,43.9c0.1,4.3,0.6,8.6,1.1,12.9
		c0.8,6.3-1.1,9.3-7.2,11.1c-10.6,3.2-20.4,1.9-29-5.5c-1-0.9-2-1.7-3-2.4c-2.4-4.2-1.8-8.5-1.4-12.8c0.4-4.6,0.8-9.3,1.1-13.9
		c1.2-17.6,2.4-35.2,3.5-52.7c0.2-3.7,0.3-7.3,0.4-11c0.4-15.6,1.7-31.2,3.6-46.7c0.1-1,0.2-2,0.2-3c-0.5-15.7,1.9-31.2,2.7-46.8
		c0.7-12.6,2-25.2,2.9-37.8c0.4-5.6,0.3-11.3,0.6-17C1736.2,297.1,1735.8,294,1738.8,290.6z M1744.8,437.8c-3.3,3.5-2.6,6.3-2.7,8.8
		c-0.3,4.3,0.1,8.7-0.7,12.9c-2.2,11.8-3.3,23.7-3.5,35.7c0,2.6-0.5,5.3-0.7,7.9c-1,10.6-2,21.2-2.9,31.8c-0.1,1.8,0.7,3.8,1,5.2
		c3.7,2.5,7.3,3,11,2.6c4-0.5,6.2-2.7,6.1-6.5c-0.2-8,0-16-1-23.9c-1.1-8.3-1.4-16.6-1.6-24.9c0-2.7-0.2-5.3-0.4-8
		c-0.5-6.6-1.2-13.2-1.4-19.9C1747.7,452.6,1746.5,445.8,1744.8,437.8z"/>
	<path class="st0" d="M1694.7,771.3c1.1,5.7,2.2,11.4,3.6,18.3c-0.7,1-2.1,3-3.4,4.7c-2.6-0.2-3.4-1.8-3.7-3.3
		c-1.5-5.8-1.4-11.7-0.5-17.5C1691,771.6,1692.4,770.9,1694.7,771.3z"/>
	<path class="st0" d="M1713.1,542.5c-0.4,0.4-0.8,1-1.3,1.2c-0.9,0.3-1.5-1.1-0.9-2.1c0.3-0.4,1-0.6,1.5-0.9
		C1712.6,541.3,1712.8,541.9,1713.1,542.5z"/>
	<path class="st0" d="M1711.1,532.9c0.3-0.1,0.6-0.4,0.8-0.4c0.2,0,0.3,0.4,0.5,0.6c-0.4,0.2-0.9,0.4-1.3,0.6
		C1711.1,533.5,1711.1,533.2,1711.1,532.9z"/>
	<path class="st0" d="M1415.5,369.3c5.5-3,11.1-2.5,16.6-1.2c1.6,0.4,3.2,2.4,4.2,4c9.3,15.1,17.4,30.7,23.4,47.4
		c4.8,13.1,9,26.5,11.5,40.3c1.5,8.2,3.1,16.3,4.5,24.5c0.3,1.6,0.3,3.3,0.3,5c-0.2,11.4,1.6,22.5,3.5,33.7c0.4,2.6,0.5,5.3,0.6,7.9
		c0.1,22.3,0.1,44.6,0,67c0,4.3-0.8,8.6-1.2,12.9c-0.2,2-0.5,4-0.6,6c-0.2,11-2,21.8-3.5,32.7c-0.1,0.7-0.2,1.3-0.2,2
		c-1,22.8-6.9,44.7-13,66.4c-4.3,15.5-11.9,29.6-21.5,42.6c-2.9,3.9-7,7.1-10.9,10.2c-2.6,2.1-5.8,3.1-9.3,2.9
		c-2.9-0.2-5.1-2-5.4-4.9c-0.2-2-0.2-4-0.2-6c0-11.7-0.1-23.3,0.1-35c0.2-13,0.8-25.9,1.1-38.9c0.1-4.6-0.4-9.3-0.6-14
		c0-0.7-0.2-1.3-0.2-2c1.2-15.3-0.8-30.6-0.4-45.9c0.4-15.3,0.1-30.6,0.2-46c0-2.7,0.5-5.3,0.6-8c0.2-3,0.3-6,0.2-9
		c-0.2-8-0.9-16-0.9-23.9c-0.1-43.3-0.1-86.6,0-129.9c0-8.6,0.7-17.3,1-25.9C1415.6,379.6,1415.5,375,1415.5,369.3z M1444.5,628.1
		c-4.8-1-9.4-0.8-14-0.1c-2.3,0.3-4.1,2.5-4.1,5c0.1,1.6,0.3,3.4,1,4.8c0.9,1.9,1.3,3.6,1.2,5.7c-0.3,5.6-0.4,11.3-0.4,17
		c0.1,16.3,0.5,32.6,0.5,48.9c0,13.3-0.5,26.6-0.7,39.9c0,2.3,0,4.6,0.3,6.9c0.1,1.4,1,2.4,3.1,2.5c1.2-1.5,2.9-3.1,4.1-5
		c1.8-2.8,3.3-5.8,4.7-8.8c1.5-3.3,2.5-7,4.2-10.1c7.8-13.8,10.1-29.5,15.2-44.2c0.3-0.9,0.4-2,0.5-3c2-20.5,8.1-40.4,8.3-61.2
		c0-1,0.4-2,0.5-2.9c0.3-3.6,0.7-7.3,0.7-10.9c0.2-9.3-0.8-18.6,1.7-28c-3.1-3.8-3.6-8.4-3.5-13.1c0.1-4.6,0.6-9.3-0.5-13.6
		c-2.1-0.6-3.2,0.4-3.6,1.6c-0.8,2.1-1.5,4.4-1.7,6.6c-0.3,3.6-0.2,7.3-0.4,11c-0.1,1.2-0.5,2.7-2.8,2.9c-0.2-1.5-0.7-3-0.7-4.5
		c0.1-17.6,0.1-35.2-1.9-52.8c-0.6-5-1.1-9.9-3.1-14.6c-0.5-1.1-1.5-1.8-2.5-3.1c-0.9,1.3-1.8,2-2,2.9c-1,5.9-2,11.8-2.5,17.7
		c-0.5,5.6-0.2,11.3-0.3,17c-0.1,6.3,0.5,12.7-3.8,18.2c3.9,6.5,5.7,12.9,2.6,19.7c-5.7,2.3-11.8-1.1-17,2.5
		c0.2,5.1,0.4,10,0.6,14.9c0.2,5.3,0.4,10.6,0.6,16.7c-0.5,1.4-1.3,3.5-2,5.3c0.6,1,0.7,1.8,1.2,2.2c1.1,0.7,2.3,1.6,3.5,1.6
		c4,0.1,8,0.4,11.9-0.4c2.3-0.4,4.2-2.6,6.6-4.2c1.8,2.7,3.4,5.2,5.3,8.2c-3.9,4.4-3.5,9.7-3.4,15.1c0.1,6-1.3,11.8-2.7,17.5
		c-2.7-0.4-2.9-2.2-3-3.8c-0.2-6.3-1.1-12.6,0.6-18.9C1447.8,634,1447.4,631.2,1444.5,628.1z"/>
	<path class="st0" d="M1394.9,628.6c-0.9-2.8-1.5-5-2.1-6.8c1.1-2,2.2-3.1,4.1-2.2c1.5,8.4,1.4,14.9-0.2,22.3
		c-1.3,0.9-2.7,0.6-3.3-0.7c-0.7-1.4-1.3-3.2-1-4.6C1392.9,633.9,1394,631.5,1394.9,628.6z"/>
	<path class="st0" d="M1470.8,724.7c3.1,0.7,4,3.9,4.7,6.8c0.8,3.3-2.5,6.3-6,5.6c-0.6-0.1-1.3-0.4-1.7-0.9
		c-2.1-2.1-1.7-4.8-1.3-7.4C1466.7,726.4,1467.9,724,1470.8,724.7z"/>
	<path class="st0" d="M1457.4,764.4c-2.5-4.7-4.4-9.7-2.1-15.7c5.5,5.3,7,8.6,6.2,13.7C1461.1,764.4,1459.7,765.1,1457.4,764.4z"/>
	<path class="st0" d="M1399.5,472.7c0.2,6,1.1,10.7-0.8,15.5c-1-0.6-1.9-0.8-1.9-1.2C1396.1,482.9,1396.1,482.9,1399.5,472.7z"/>
	<path class="st0" d="M1496.3,490.2c0.7,1.7,1.4,2.5,1.4,3.4c0.1,1.9,0,3.8-0.1,5.5c-2.2,0.9-2.8-0.5-3.1-1.6
		C1494,495.3,1493.6,493,1496.3,490.2z"/>
	<path class="st0" d="M1486.1,722.7c0,0.7,0.2,1.4,0,1.9c-1,2-2.4,2.8-3.8,2c-0.6-0.3-1-1.7-0.8-2.4c0.7-1.7,2.1-2.5,4-2.1
		C1485.7,722.2,1485.9,722.6,1486.1,722.7z"/>
	<path class="st0" d="M1502.3,630.1c-1.7-2.3-1.7-2.3,0.1-7.6C1504.1,625.4,1504.1,625.4,1502.3,630.1z"/>
	<path class="st0" d="M1390.8,525.2c-4-2.7-4-2.7-3.4-6.1C1389.7,520.5,1389.7,520.5,1390.8,525.2z"/>
	<path class="st0" d="M1488.9,711.7c1.1,2.3,0.9,4.4-1.2,6C1486.6,715.2,1486.6,715.2,1488.9,711.7z"/>
	<path class="st0" d="M1487.1,682.2c0.9,0.7,2,1.1,2.2,1.8c0.2,0.7-0.3,1.9-0.9,2.4c-0.9,0.8-3-0.3-2.8-1.6
		C1485.7,683.9,1486.5,683.2,1487.1,682.2z"/>
	<path class="st0" d="M1393.4,551c-0.9,0.8-1.3,1.5-1.7,1.5c-1.7,0.1-3.2-1.8-2.4-3.1c0.2-0.4,1.3-0.8,1.6-0.7
		C1391.8,549.3,1392.6,550.2,1393.4,551z"/>
	<path class="st0" d="M1399.4,535.6c-0.1,1.2,0,2.4-0.2,3.6c-0.1,0.4-1,1-1.4,0.9c-0.4-0.1-1.1-0.9-1.1-1.3c0.1-1.2,0.5-2.3,0.8-3.4
		C1398.2,535.5,1398.8,535.5,1399.4,535.6z"/>
	<path class="st0" d="M1389.1,577.5c-1.8-0.8-2.2-2.3-2-4.1c0-0.2,0.4-0.5,0.7-0.6c0.3-0.1,0.7,0,0.9,0.2
		C1390,574.4,1390.3,575.9,1389.1,577.5z"/>
	<path class="st0" d="M1476.9,689.2c0.2,0.6,0.7,1.2,0.5,1.7c-0.1,0.4-0.9,0.6-1.3,0.9c-0.2-0.6-0.7-1.2-0.6-1.7
		C1475.6,689.8,1476.4,689.5,1476.9,689.2z"/>
	<path class="st0" d="M1549.4,779.3c-0.7,5.8-1.3,10.8-2.1,15.7c-0.1,0.7-1.4,1.6-2.1,1.6c-0.8,0-2.1-0.8-2.3-1.4
		c-1.6-6.1-3.1-12.2-4.5-18.4c-0.5-2.2,0.7-4.2,2.6-4.8c2.5-0.8,5.4-0.2,6.3,1.6C1548.3,775.7,1548.9,777.9,1549.4,779.3z"/>
	<path class="st0" d="M1541.2,746.2c-3-1.1-2.4-3-2.2-4.8c5.6-2,5.6-2,10.1,0.4C1546.6,744.1,1543.7,745.2,1541.2,746.2z"/>
	<path class="st0" d="M1618.4,534c1.8,4.6,1.9,8.8,1.2,13.7c-2.1-2.6-1.4-4.9-1.4-7C1618.1,538.6,1618.3,536.3,1618.4,534z"/>
	<path class="st0" d="M1539.5,727.7c-0.3-1.2-0.6-2.3-0.7-3.5c0-0.4,0.8-1.1,1.2-1.2c0.5,0,1.3,0.5,1.4,1c0.2,1.2,0.1,2.4,0.1,3.6
		C1540.8,727.6,1540.2,727.7,1539.5,727.7z"/>
	<path class="st0" d="M1633.6,421.3c1.8,0.8,2.1,2.2,1.5,4.1C1633.2,424.5,1632.4,423.3,1633.6,421.3z"/>
	<path class="st0" d="M1552.7,546.5c-0.7-0.5-1.5-0.8-1.6-1.2c-0.1-0.5,0.2-1.3,0.6-1.6c0.3-0.2,1,0.1,1.6,0.2
		C1553.1,544.7,1552.9,545.5,1552.7,546.5z"/>
	<path class="st0" d="M1628.9,357.5c-0.4,0.3-0.8,0.6-1.2,0.9c-0.2-0.2-0.5-0.7-0.5-0.7c0.4-0.4,0.8-0.6,1.2-1
		C1628.6,357,1628.7,357.2,1628.9,357.5z"/>
	<polygon class="st0" points="1628.8,773.7 1629.1,773.1 1629.3,773.7 	"/>
	<polygon class="st0" points="1555.1,651.2 1555.2,651.8 1554.7,651.7 	"/>
	<polygon class="st0" points="1554.7,657.4 1555.2,657.4 1555,658 	"/>
	<path class="st0" d="M1331.3,92.8c-0.6-8.8-4.8-16-2-24.1c1.3,0,2.2,0,3.5,0c1.3,4.1,2.6,8.1,4.8,11.8
		C1340.5,85,1338.5,88.8,1331.3,92.8z"/>
	<path class="st0" d="M1326.7,266.7c4,2.1,3.2,5.8,3.3,8.8c0.1,3.1,0.7,6.7-3.2,8.9c-2.8-2.2-4.1-5.3-5.9-8.1
		C1321.2,272.2,1323,269,1326.7,266.7z"/>
	<path class="st0" d="M1400.8,76.7c4,0.2,4.6,2.1,4.9,4.1c0.3,2.4-0.4,4.6-2.7,5.6c-1.8-0.1-2.6-1.3-2.6-2.6
		C1400.3,81.6,1400.6,79.3,1400.8,76.7z"/>
	<path class="st0" d="M1600,707.7c-1.6-7.5-1.9-14.1-1.9-20.7c0.1-19.2,0.3-38.5,0.3-57.7c0-8.6-0.3-17.3-0.4-25.9
		c0-2.3-0.5-4.7,2-6.9c0.9,0.4,2.4,0.6,3,1.5c3.4,5.4,5.6,10.9,4.6,17.8c-1,6.8-0.4,13.9-0.4,20.9c0.1,18.3,0,36.5,0.5,54.8
		C1607.9,697.9,1606.1,702.9,1600,707.7z"/>
	<path class="st0" d="M1673.6,521.8c-0.8-0.5-1.3-0.6-1.3-0.9c-2.1-9.7-4.6-19.4-6.1-29.2c-0.8-5.6-1.2-11.2-3.3-16.5
		c-0.4-1.2-0.3-2.5-0.5-4c5.6-3.8,10.9-4.9,16.2-1.2c1.6,2.5,1.1,4.4-0.2,6c-1.2,1.5-2.7,2.9-4.4,4.6c2.9,11.6,2.2,23.5,1.1,35.4
		C1675,518,1674.2,519.8,1673.6,521.8z"/>
	<path class="st0" d="M1673.1,538c5,1.8,6.6,5,6.3,8.3c-0.6,7.2-0.4,14.5-2.1,22.2c-1.2-1.1-2.3-1.7-2.4-2.4
		c-1.1-7.2-2.1-14.4-2.9-21.6C1671.9,542.7,1672.7,540.7,1673.1,538z"/>
	<path class="st0" d="M1465.8,67.5c4.1,6.3,4.9,12.5,5.8,18.6c0.1,0.7-0.8,1.6-1.5,2.8c-4.4-1.7-7.5-4.6-7.6-9.2
		C1462.3,75.7,1460.6,71.2,1465.8,67.5z"/>
	<path class="st0" d="M1233.6,67.2c0.6,11.4,0.8,22.3-0.2,33.2c-0.1,1-1.5,1.8-2.5,3c-4.4-3.2-5.7-7.8-8.3-11.4
		c1.6-7.7,3.8-15,3.7-22.7C1226.4,66.8,1228.4,66.1,1233.6,67.2z"/>
	<path class="st0" d="M1225.4,277.5c-0.3-1-0.7-1.7-0.6-2.3c1.7-8.9,1.2-17.9,1.3-26.9c0-4.1,1.2-7.9,2.8-11.5
		c0.6-1.3,1.6-2.3,3.1-1.8c0.7,0.3,1.6,1.4,1.6,2.2c0.3,8.3,1.5,16.6-2.4,24.6c-1.1,2.3-0.9,5.2-1.3,7.8c-0.3,2.3-0.4,4.6-0.9,6.9
		C1228.8,277.6,1227.6,278.5,1225.4,277.5z"/>
	<path class="st0" d="M1234.6,208.8c1.6,2.9,1.9,5-0.3,7.2C1232,213.7,1232,211.7,1234.6,208.8z"/>
	<path class="st0" d="M1229.5,292c-1.4-1.7-1.5-3.4,0.1-5C1232.3,289.7,1232.3,289.7,1229.5,292z"/>
	<path class="st0" d="M1211.3,64.8c0.9,0.4,1.9,0.7,1.9,0.9c-0.1,0.9-0.4,1.8-0.7,2.7c-0.6-0.2-1.6-0.4-1.6-0.7
		C1210.8,66.7,1211.1,65.8,1211.3,64.8z"/>
	<path class="st0" d="M1096.8,657.4c0.7,15.9-1.7,26.3-2.7,36.9c-0.2,2-0.8,3.9-1,5.9c-1,13.9-6.4,26.4-13,38.5
		c-3.5,6.3-8.4,11.1-15,14c-5.5,2.4-10.9,2.5-16.5,0.4c-8.9-3.4-16.4-8.7-22.1-16.5c-3.1-4.3-6.3-8.6-8.9-13.3
		c-1.9-3.4-3.4-7.2-4.4-11.1c-3.3-13.5-7.2-27-9.1-40.9c-1.4-10.5-3.2-21-3.5-31.7c-0.2-9-1.2-17.9-1.2-26.9
		c0-17.1,3.3-33.8,8.7-49.9c2.8-8.5,7-16.5,13.9-22.8c9.7-8.8,22.3-9.4,32.5-0.9c11.9,9.9,19.4,22.7,24.5,37
		c3.2,8.7,5.5,17.8,8.1,26.7c2.1,7,4.1,14.1,6,21.1c0.6,2.2,1.4,4.5,1.6,6.8C1095.8,641.4,1096.5,652,1096.8,657.4z M1061.1,723.4
		c6.6-6.5,6.6-16.1,11.4-23c3.2-1.8,6.2-3.3,8.9-5.1c1.6-1.1,3.1-2.5,4.3-4c0.8-1,1.2-2.4-0.6-3.6c-4.4-0.1-7.1,4.1-10.9,5.7
		c-0.5-0.7-1.3-1.3-1.2-1.7c0.4-6.3,0.7-12.6,1.3-18.9c0.1-1.6,1-3.1,1.6-4.6c3-0.2,5.6-0.1,8.2-0.6c1.9-0.3,2.6-1.8,1.8-4.3
		c-3.2-0.5-6.7-1.1-10.1-1.6c-2-4.7-3.1-9.1-1.8-14.3c1.8-0.7,3.6-1.5,5.5-2c2.2-0.6,4.4-1,6.7-1.4c-0.4-1.1-0.6-2.1-0.9-2.2
		c-6.4-1.7-12.9-0.7-19.3,0.7c-0.3-1.2-0.6-2.1-0.7-3.1c-1.3-9.2-2.3-18.5-3.8-27.7c-1.8-10.9-4.7-21.5-9.1-31.6
		c-0.8-1.8-1.3-3.9-3.8-4.4c-3.1,1-3.2,3.9-3.5,6.4c-1.3,14.3-2.8,28.5-3.7,42.8c-0.5,7.3-0.6,14.7,0.3,21.9
		c2.7,21.8,5.7,43.5,15.1,64c-3.7,0.6-4.6-4.6-8.6-2.9c-0.6,3.4-3.2,5.8-6.4,7.8c-3.9,2.5-7.6,5.3-11.3,8.2c-1,0.8-1.4,2.3,0.5,3.7
		c7.2-1.2,11.2-8.8,17.5-10.4C1053.7,717.7,1055.3,723.4,1061.1,723.4z M1012.6,647.3c0.1,2.2,1.6,2.7,3.3,2.6
		c4.6-0.4,9.3-0.9,13.9-1.4c1-0.1,2.2-0.3,2.7-1c0.8-0.9,1.5-2.2,1.5-3.3c0-1.5-1.5-2.4-2.8-2.2c-5.9,1.1-11.7,2.5-17.5,3.9
		C1013.3,645.9,1013,646.7,1012.6,647.3z M1036.1,671c-0.5-0.8-0.8-2.2-1.3-2.2c-6.2-0.8-12.4-1-18.2,2.1c-0.4,0.2-0.3,1.1-0.5,1.7
		C1020.9,674.3,1028.3,673.7,1036.1,671z M1067.5,636c0.9,1,1.1,1.4,1.3,1.4c5.3,1.3,10.2-0.1,14.7-3c1.1-0.7,0.8-2.3-1.5-3.8
		C1078.1,633.2,1071.8,630.3,1067.5,636z M1032.1,603.5c-0.8-0.4-1.7-1-2.6-1.1c-5.4-0.3-10.6,0.7-15.5,2.8
		c-0.6,0.2-0.8,1.4-1.3,2.2c5.8,2.3,10.8-0.6,15.9-1c1.1-0.1,2.2-1.1,3.2-1.8C1032.2,604.5,1032.1,604,1032.1,603.5z M1061.7,598.2
		c2.5,3.2,5.2,2.6,7.6,2.1c3.1-0.6,6.6-0.7,8.5-4.2C1072.1,594.3,1072.1,594.3,1061.7,598.2z M1065.2,741.7
		c-6.9,0.1-7.5,0.4-10.5,4.3C1060.1,747.8,1062.1,747,1065.2,741.7z"/>
	<path class="st0" d="M975.2,619.8c-2.3-2.1-2-4.5-1.7-6.8c0.8-6,0.7-12.3,5.9-17.5c3.4,5.3-0.2,12.4,6,16.4
		C981.3,615.2,980.5,620.4,975.2,619.8z"/>
	<path class="st0" d="M1097.9,612.9c-1.9-10.5-0.9-21-0.6-33.4c1.1,2.2,1.5,2.7,1.7,3.4c0.2,0.6,0.1,1.3,0.1,2
		c0.1,6.2,2.5,12.4,0.6,18.8c-0.5,1.7,0.7,3.9,0.9,5.9c0.1,1.2-0.4,2.4-0.7,3.6C1099.3,613.1,1098.6,613,1097.9,612.9z"/>
	<path class="st0" d="M975.2,633.4c3.4,1.6,4.1,3.9,3,6.7c-0.3,0.7-1.4,1.6-2.2,1.6c-0.8,0-1.9-0.8-2.2-1.5
		C972.9,638,972.7,635.7,975.2,633.4z"/>
	<polygon class="st0" points="983.8,620.4 984.3,620.4 984,621 	"/>
	<path class="st0" d="M1130.4,533c9,8.2,6.6,16.3,3.4,24.2c-1.9,0.8-3.2,0.6-3.8-0.8c-0.5-1.2-0.8-2.5-0.8-3.8
		c-0.1-5-0.1-9.9,0-14.9C1129.2,536.4,1129.8,535.2,1130.4,533z"/>
	<path class="st0" d="M1130.1,581c0.2-2.4,0.4-4.9,0.5-7.3c3.2-1.5,5.5-0.8,7.1,1.7c1.1,1.7,1.3,3.9-0.1,5.5
		C1135.5,583.2,1133,582.7,1130.1,581z"/>
	<path class="st0" d="M1130.5,629.5c0.7,0.6,1.2,1,1.6,1.3c-0.6,0.6-1.1,1.3-1.7,1.9c0,0-0.7-0.4-0.6-0.6
		C1129.9,631.3,1130.2,630.5,1130.5,629.5z"/>
	<path class="st0" d="M1138.4,610.6c0,1.4,0,2.5,0,3.9C1136.8,613.1,1136.8,612,1138.4,610.6z"/>
	<path class="st0" d="M81.5,649.3c-5.9-5.4-3.7-9.8-1.4-14.2c0.9,0.2,1.8,0.3,2,0.6C83.6,639.8,83.5,644,81.5,649.3z"/>
	<path class="st0" d="M74.6,690.2c-0.6-0.7-1-0.9-1.1-1.2c-0.4-1.3-0.7-2.6,0.7-3.5c0.2-0.1,0.7-0.1,0.9,0.1
		c1.2,0.9,1.4,2.1,0.7,3.4C75.7,689.3,75.4,689.5,74.6,690.2z"/>
	<path class="st0" d="M1065.2,741.7c-3.1,5.2-5.1,6.1-10.5,4.3C1057.7,742.1,1058.3,741.9,1065.2,741.7z"/>
	<path class="st0" d="M1916.5,769.5c0-15.6,0-31.2,0-46.8c0-0.6,0.6-1.1,0.9-1.7c1.4-0.7,2.8-0.3,3.3,1c0.7,1.8,1.5,3.9,1.3,5.7
		c-0.8,7.6,0.2,15.3-1.8,22.9c-0.8,2.8-0.1,5.9-0.1,8.9C1920.1,763.1,1920.3,766.8,1916.5,769.5z"/>
	<path class="st0" d="M1916.9,517.1c0-1.1,0-2.1,0-4.6C1917.5,515,1918.3,516.1,1916.9,517.1z"/>
	<path class="st0" d="M1461.1,592.4c-0.4,0.5-0.7,1.1-1.2,1.3c-0.8,0.4-1.5-0.9-1-2c0.2-0.4,0.9-0.7,1.4-1
		C1460.6,591.3,1460.8,591.8,1461.1,592.4z"/>
	<path class="st0" d="M1444.9,609.4c-0.1-0.5-0.2-1-0.3-1.5c0-0.1,0.4-0.2,0.6-0.2c0.1,0.5,0.2,1,0.3,1.5
		C1445.5,609.2,1445.1,609.3,1444.9,609.4z"/>
	<polygon class="st0" points="1432.8,593.7 1433.1,593.1 1433.3,593.7 	"/>
</g>
</svg>
