<?xml version="1.0" encoding="utf-8"?>
<!-- Generator: Adobe Illustrator 19.0.0, SVG Export Plug-In . SVG Version: 6.00 Build 0)  -->
<svg version="1.1" id="Layer_1" xmlns="http://www.w3.org/2000/svg" xmlns:xlink="http://www.w3.org/1999/xlink" x="0px" y="0px"
	 viewBox="0 0 3231.3 401.2" style="enable-background:new 0 0 3231.3 401.2;" xml:space="preserve">
<style type="text/css">
	.st0{fill:#FFFFFF;}
</style>
<g>
	<path class="st0" d="M667.3,404.4c-1.1-0.2-1.5-0.2-1.7-0.4c-6-5.6-11.9-11.4-18-16.9c-13.9-12.6-26.5-26.5-40.3-39.1
		c-13.9-12.7-27.4-25.7-40.7-39c-3.1-3.1-5.9-6.6-8.9-9.8c-1.8-1.9-3.7-3.6-5.9-5c-3.6-2.3-3.3-2.6-5.6-7c-1.6-3-4.4-5.1-7.8-5.8
		c-1.4-0.3-2.4-0.8-3.3-1.8c-2.4-2.4-4.7-4.7-7.1-7.1c-11.3-11-22.5-22-33.9-32.8c-1.7-1.6-2.9-3.9-4.9-4.8c-2.1-0.9-2.1-4-4.8-4
		c-1.8-4.3-6.5-5.7-9.2-9.1c-2.8-3.5-5.9-7-9.6-9.5c-4.1-2.8-6.6-7.2-11.1-9.4c-1-0.5-1.3-2.2-2.2-3c-2.2-2.1-5-3.7-6.9-6.1
		c-1.6-2-4-3.3-4.9-5.7c-3.1-0.8-3.6-4.4-6.5-5.8c-2.6-1.3-4.4-4.1-6-6.9c-1-1.8-2.7-3.6-4.7-4.1c-1.4-0.3-2.4-0.8-3.3-1.8
		c-6.1-6.1-12.3-12.2-18.4-18.4c-2-2.1-3.5-4.8-5.8-6.5c-1.7-1.2-3.2-2.6-4.8-4c-1.7-1.6-3.4-3.2-4.9-5c-1.3-1.4-2.3-3-3.5-4.4
		c-0.4-0.5-0.9-1.2-1.4-1.4c-1.2-0.3-2.6-0.7-3.7-0.4c-1,0.3-1.7,1.4-1.5,2.8c0.2,1,0,2,0,3c0,21.8,0,43.7,0,65.5
		c0,1.7,0.6,3.6-0.9,5.1c-0.4,0.4-0.4,1.8,0,2.4c1.5,2.3,0.9,4.7,0.9,7.1c0,58.5,0,117,0,175.5c0,1.6,0,3.3,0,5.3c-1.6,0-3,0-4.5,0
		c-15,0-30,0-45,0c-1.2,0-2.4,0.2-3.5-0.1c-0.8-0.2-2-1.2-1.9-1.8c0.1-3.4-0.8-6.9,0.5-10.3c0.3-0.7,0.6-1.7,0.4-2.3
		c-1.9-3.8-0.5-7.8-0.9-11.6c-0.1-1.2-0.4-2.6,0.1-3.5c2-3.6,0.4-7.4,0.8-11.1c-1.9-2.5-1.4-5.6-0.6-8c0.8-2.7,1-5.3,0.4-7.7
		c-0.4-1.7-0.8-3.4-0.7-5.1c0-1.4-0.6-2.9,0.9-4.2c0.4-0.4,0.4-1.8,0-2.4c-1.6-2.8-0.9-5.7-0.9-8.6c-0.1-11.2-0.1-22.3,0-33.5
		c0-3.5,0.7-7.1,0.9-10.6c0.1-1.2,0.6-2.7-0.7-3.7c-0.2-0.1-0.3-0.6-0.2-0.9c2.1-5.3,0.6-10.7,0.9-16.1c0.3-5.3,0.1-10.7,0.1-16.4
		c2.2-1.8,4.5-3.7,6.9-5.6c-1.9-1-2.4-1.1-6.9-0.8c0-1.5,0-2.9,0-4.4c0-17.5,0-35,0-52.5c0-1.9-0.7-3.9,0.9-5.6
		c0.2-0.3,0.2-1.1,0-1.4c-1.7-2.4-0.9-5.1-0.9-7.6c-0.1-8-0.1-16,0-24c0-1.8,0.4-3.5,0.5-5.3c0-1.5-0.4-2.9-0.5-4.4
		c-0.1-1.8-0.1-3.7,0-5.5c0.1-1.6-0.7-3.3,0.9-4.6c0.2-0.2,0.2-1.1,0-1.4c-1.9-3.4-0.2-7.2-1.1-10.6c-0.6-2.5,1.7-4.5,0.3-7.3
		c-1.1-2.2-0.2-5.2-0.2-7.9c0-2.5,0-5,0-7.5c0-2.7-0.1-5.3,0-8c0.1-1.4-0.6-3,0.8-4.2c0.3-0.2,0.3-1,0.1-1.4
		c-2-5.6-0.6-11.4-0.9-17.1c-0.1-1.8-1-4,0.9-5.6c0.2-0.1-0.1-0.9-0.3-1.3c-1.2-2.3-0.9-4.8-0.1-7c0.4-1.2,0.9-2.1,0-3.1
		c-1.6-1.7,0.9-3.2,0.4-4.3c-0.8-1.6-1.4-3.1-0.5-4.5c0.7-1.1,0.6-2.2,0.6-3.3c0.1-3.8,0.1-7.7,0-11.5c0-1.4,0-2.7-0.8-4.2
		c-0.7-1.4-0.2-3.5-0.2-5.9c1.4,0.9,2.2,1.4,2.8,2c4.9,4.8,9.7,9.7,14.5,14.5c1.7,1.7,3.2,3.6,5.6,4.7c2.3,1.1,3,3.9,5.2,5.3
		c2.6,1.6,4.8,3.8,7,5.9c11.9,11.5,23.2,23.8,35.8,34.4c13.4,11.3,25.2,24.2,37.9,36.3c1.5,1.5,3.2,2.7,4.7,4.4
		c1.2,1.5,3.4,2.1,5.1,3.3c0.9,0.7,1.7,1.6,2.5,2.4c4.4,4.4,8.8,8.6,13,13.1c1.8,1.9,4.1,3.3,5.7,5.5c1.7,2.4,4.2,4.3,6.3,6.4
		c2,2,4,4,6,6c2,2,4,4,6,6c1.1,1.1,2,2.6,4,2.5c0.7,0,1.5,1.1,2.2,1.8c5.1,5.1,10.1,10.1,15.2,15.2c3.7,3.7,7.3,7.5,11.5,10.6
		c1.5,1.1,2.6,2.9,3.9,4.3c1.2,1.2,2.6,2.2,3.8,3.3c2.8,2.5,5,5.6,8.4,7.5c1.4,0.8,2.2,2.6,3.6,3.4c1.4,0.8,2,2.2,3.1,3.2
		c3.9,3.7,7.5,7.8,11.9,11c1.7,1.2,2.8,3.2,4.2,4.7c1.4,1.4,3.1,2.6,4.6,4c7.9,7.5,15.6,15.2,23.7,22.5c2.6,2.4,5,5,7.7,7.4
		c3.1,2.8,6,5.6,9,8.4c3,2.9,5.9,5.9,8.9,8.8c1.4,1.3,2.9,2.5,4.3,3.6c2-0.6,1.9-2.1,1.9-3.5c0-9.5,0.1-19,0-28.5
		c-0.1-5.9,2-11.7,1-17.6c-1.8-10.5-0.7-21.1-0.9-31.6c-0.2-10.5,0-21,0-31.5c0-10.7,0-21.3,0-32c0-2.4-0.3-4.7,0.8-7.2
		c0.6-1.3,0.9-3.5-0.4-5.2c-0.3-0.3-0.2-0.9-0.4-1.3c-0.9-1.4,2.3-1.8,0.7-3.5c-0.6-0.7-0.6-2.1-0.6-3.2c0-2.4-0.1-4.8,0.8-7.1
		c0.4-1.1-0.8-2.7-0.8-4c0-1.4,1.3-3.1,0.8-4c-1.6-3.4,0.2-6.5,0.2-9.7c-0.2-23.5-0.1-47-0.1-70.5c0-1.7,0-3.3,0-5.4
		c1.5,0,2.9,0,4.4,0c14.7,0,29.3,0,44,0c0.8,0,1.7,0,2.5,0c2.4,0.1,3.1,0.7,3.1,3.2c0,8-0.2,16,0.1,24c0.1,2-2,3.5-0.7,5.9
		c0.9,1.5,0.5,3.8,0.5,5.7c0.1,2.2,0.2,4.3,0,6.5c-0.2,2,1,4.3-0.9,6.1c-0.2,0.2-0.2,0.8,0,0.9c1.9,1.8,0.9,4.1,0.9,6.1
		c0.1,27.2,0,54.3,0.1,81.5c0,6.4-1.2,12.2-7,16.2c1,2.1,4.2,1.9,4.3,4.6c0,0.6,0.6,1.1,0.6,1.7c-0.1,2.5,0.3,4.7,1.7,6.8
		c0.7,1,0.7,3.1,0.1,4.2c-2.1,4.6-1.8,9.4-1.8,14.3c0,0.6-0.1,1.6,0.3,1.8c2.5,1.7,1.7,4.1,1.7,6.3c0,65.3,0,130.6,0,196
		C667.3,400.8,667.3,402.4,667.3,404.4z"/>
	<path class="st0" d="M1357.3,7.2c1.2,0,2.2-0.1,3.1,0c7.7,0.7,15.4-1,23.1-1c4.2,0,8.3,1.5,12.6,1.1c4.1-0.4,8.3-0.1,12.5-0.1
		c1.8,0,2.6,0.9,2.7,2.7c0.1,1.2,0,2.3,0,3.5c0,36.5,0,73,0,109.5c0,2.4-0.8,4.9,0.9,7.1c0.3,0.4-0.3,1.5-0.5,2.2
		c-0.1,0.4-0.6,1-0.4,1.3c1.4,2.3-0.2,4.5-0.1,6.7c0.1,2.5-0.5,5.1,0.1,7.5c1.7,6.2,0.6,12.4,0.8,18.6c0.1,3-1.8,6-0.9,9.1
		c1.8,5.7,0.7,11.4,0.9,17.1c0.2,5.4-1.1,7.5-5.8,10.4c4.9,0.6,5.9,1.7,5.9,6.8c0,16,0,32,0,48c0,2.2-0.8,4.4-0.9,6.6
		c-0.2,2.3,0.6,4.9-0.2,6.9c-1.2,2.8-0.5,5.5-0.8,8.2c-0.3,2.5-0.1,5.4-1.1,7.5c-1.4,2.9-0.6,5.9-1.6,8.8c-1.1,3.3-2.6,6.8-2.2,10.6
		c-1.5,2.1-1.7,4.6-2.5,6.9c-1.8,4.8-3.6,9.6-5.6,14.2c-1.4,3.2-3.1,6.5-5,9.4c-2.7,4-4.6,8.6-7.7,12.3c-1.4,1.7-2.4,3.7-3.8,5.4
		c-3.3,3.8-6.6,7.8-10.3,11.2c-8.4,7.8-17.3,14.9-27.7,19.9c-3.5,1.7-6.6,4-10.6,4.6c-1.3,2.8-4.6,1.5-6.7,3.3
		c-1.6,1.4-4.4,1.2-6.6,1.9c-2.4,0.8-4.9,1.2-7.2,1.9c-1.9,0.6-4.1,0.1-5.5,1c-2,1.3-3.8,0.5-5.7,0.8c-2,0.4-4.2,0.6-6,1.2
		c-2.1,0.7-4.1,0.7-6.2,0.7c-11.2,0.1-22.3,0-33.5,0.1c-3.3,0-6.3-0.7-9.3-1.7c-0.6-0.2-1.2-0.4-1.8-0.4c-5.3,0.3-10.2-1.9-15.2-3.2
		c-2.2-0.6-4.5-1-6.7-1.8c-2-0.8-4-1.6-6.1-2.3c-2.2-0.7-4.5-1.9-6.7-3c-8.2-4-16-8.4-23.2-14.1c-5.8-4.5-11.5-9.1-16.4-14.6
		c-4.7-5.3-8.9-11.1-12.7-17.2c-2.9-4.6-5.6-9.3-7.9-14.2c-1.5-3-3.1-6-4.2-9.3c-1-3.2-2.5-6.3-3.5-9.6c-1.4-4.7-2.8-9.5-4.1-14.3
		c-0.9-3.2-1.2-7.1,0.9-10.8c-0.8-0.7-1.8-1.5-3.1-2.6c0.1,0.4-0.1,0-0.1-0.2c0.7-4.6-0.5-9.2-1.3-13.5c-0.7-3.9-0.7-7.8-0.7-11.6
		c-0.1-73.8-0.1-147.6,0-221.5c0-3.5,0.8-7.1,0.9-10.6c0.2-3.7,0.1-7.3,0-11c-0.1-1.7-0.5-3.4-0.8-5.4c0.6-0.9,1.6-1.4,3.1-1.4
		c3.7,0.1,7.3,0.1,11,0c2.5-0.1,5.2,0.8,7.6-0.9c0.4-0.3,1.4-0.1,1.8,0.2c2.3,1.6,5.2,1.2,7.1,0.5c3.8-1.3,7.5-0.4,11.2-0.8
		c2-0.2,4-0.2,6,0c1.9,0.2,3.7,0.5,5.6,1c0.9,0.2,1.7,0.8,2.4,1.2c0,85.1,0,169.9,0,254.7c0,1.4,0.6,2.9-0.6,4.3
		c-0.3,0.3-0.2,1.2,0,1.7c1.9,3.6,2.6,7.4,2.6,11.4c0,2,0.6,4.1,0.9,6.1s0.2,4.4,1.1,6c1.3,2.2,0.4,5.2,2.7,6.9
		c-0.3,2.7,1.2,4.8,2.2,7.1c1.7,3.6,3.2,7.5,5.6,10.6c3.2,4.2,6.1,8.7,10.1,12.4c3.4,3.2,7.2,5.7,11.2,8.1c3.3,2,6.7,4,10.3,5.2
		c3.8,1.3,7.4,3.4,11.6,3.3c1.5,1.8,3.9,0.6,5.8,1.8c1.4,0.9,4.1-0.4,5.8,0.3c4.2,1.5,8.4,0.7,12.6,0.9c4.2,0.2,8.4,0.6,12.5-0.1
		c4.9-0.9,10.1-0.6,14.8-2.8c3.6,1,6.2-2.4,9.6-2.1c1.6-2.6,5.3-1.1,7-3.6c3.6-0.9,6.4-3.1,9.4-5.2c5.5-3.8,10.5-7.9,14.3-13.5
		c1.4-2.1,3.1-3.9,4.2-6.2c1.1-2.2,2.5-4.3,3.5-6.6c1.4-3.3,2.8-6.5,3.8-10c1-3.6,2-7.1,3.2-10.7c0.5-1.5,0.3-2.8,0.6-4.2
		c0.3-1.4,0.7-2.7,1-4.1c0.4-2.2,0.8-4.4,1-6.6c0.2-2.3-0.4-4.8,0.1-7c1.7-7,0.7-14.1,0.9-21.1c0.2-7.2,0-14.3,0.1-21.5
		c0-1.9-0.6-3.9,0.9-5.6c0.4-0.5,0.4-1.9,0-2.4c-1.5-1.9-0.9-4.1-0.9-6.1c0-57.8,0-115.7,0-173.5c0-4.9,1.5-9.6,1.1-14.6
		C1357.1,17.1,1357.3,12.2,1357.3,7.2z"/>
	<path class="st0" d="M2611.3,343c-2.1-1.2-3.6-1.9-5-2.8c-3.4-2.1-7.3-7-9-11c-0.2-0.6-0.6-1.2-1.1-1.5c-3.9-3-5.6-7.7-8.4-11.5
		c-0.3-0.5-0.4-1.2-0.5-1.8c-0.1-1.3,0-2.6,0-4.2c-3.3,1.6-5.4-0.3-7.5-1.9c-3.6-2.8-5.2-7.1-7.5-10.9c-2.5-4-4.5-8.2-6.5-12.3
		c-1.7-3.4-3.3-6.9-4.5-10.6c-0.3-1-0.6-2.1-1-3.1c-0.9-2.2-1.6-4.4-2.3-6.6c-0.7-2.1-1.7-4-1.7-6.3c0-0.9-0.4-1.9-1-2.6
		c-0.8-1-1.1-1.9-1-3.1c0.1-0.5,0.2-1.2,0-1.5c-2.5-3-1.4-7-2.9-10.3c-0.9-2-0.9-4.3-1.2-6.5c-0.5-3.6-0.2-7.3-1.8-10.7
		c-0.1-0.3-0.1-0.7,0-1c0.7-5.1-1-10-1-15.1c0-5.2-0.6-10.4,0.2-15.5c0.6-4.1,0.6-8.1,0.9-12.1c0.1-1.5,0.7-3,0.9-4.6
		c0.2-1.4,0-2.8,0.9-4.2c0.6-0.9,0-2.6,0.2-3.9c0.1-1.1,0.9-2.1,0.9-3.1c0-3.9,2.2-7.2,2.4-11c1.7-1.5-0.2-3.7,1.3-5.5
		c1.2-1.4,1.6-3.4,1.3-5.4c0-0.2-0.1-0.4,0-0.5c3-2.4,2-6.4,3.9-9.4c1.7-2.7,2.6-5.9,4-8.8c2.5-5.5,5.6-10.7,7.2-16.5
		c0.1-0.3,0.2-0.6,0.4-0.8c4.3-4.9,6.9-10.8,10.6-16.1c1.1-1.6,2-3.2,3.2-4.7c3.6-4.4,7.3-8.7,11-13c0.8-0.9,2-1.6,3-2.4
		c0.2-0.2,0.7-0.3,0.8-0.5c0.4-4.6,4.6-6.2,7.2-9c2.6-2.9,5.2-5.8,8.6-8c2.4-1.5,4.2-4,6.7-5.6c1.7-1.1,2.7-3.1,5.2-3.2
		c0.9-0.1,1.6-1.6,2.5-2.3c1.2-1.1,2-2.7,4-2.4c0.4,0.1,1-0.7,1.5-1.1c1.5-1.2,2.3-3.4,4.8-2.8c0.1,0,0.2-0.2,0.3-0.3
		c2.2-2.4,4.6-4.1,7.9-5.1c2.4-0.7,4.5-2.9,6.6-4.4c0.4-0.3,0.7-1,1.1-1c3.7,0.4,6-2.6,8.9-4c4-2,8.6-2.4,12.4-5
		c1.1-0.7,2.8-0.5,4.2-0.6c2.4-0.2,4.6-1.2,6.4-2.6c1.4-1.1,3.2-0.2,4-1.1c1.9-1.9,4.8,0.2,6.7-2.2c1.3-1.6,4.4-1.2,6.5-2
		c2.2-0.9,4.2-0.3,6.3-0.6c0.9-0.1,2.4,0.1,2.8-0.4c1.5-2,3.5-1.4,5.4-1.6c2.7-0.3,5.5,0.6,8.2-0.7c2.3-1.1,5.1,0.5,7.5-1.2
		c0.7-0.5,1.9-0.1,2.9-0.1c1.8,0,3.7,0,5.5,0c1.6,2.5,3.1-0.4,4.7-0.1c1.8,0.3,3.7,0,5.5,0.1c2.5,0.2,5.1,0.8,7.6,0.9
		c2.5,0.2,5.2-0.6,7.4,0.2c3.2,1.1,6.4,0.7,9.6,0.9c0.6,0,1.5,0.1,1.8,0.5c1.4,2.1,3.5,1.4,5.4,1.5c2.1,0.1,4.3-0.6,5.8,1.6
		c0.2,0.3,0.9,0.3,1.3,0.3c2.1,0.1,4.2-0.4,5.9,1.7c0.5,0.7,2.5,0.3,3.8,0.3c1.3,0,2.6-0.2,3.5,1.2c0.3,0.4,1.1,0.8,1.6,0.8
		c1.4,0,2.7,0,3.5,1.4c0.2,0.3,0.5,0.7,0.7,0.7c3.2-0.6,5.5,1.1,7.8,2.9c0.2,0.2,0.6,0.2,0.9,0.1c3.3-0.5,5.5,2.1,8.3,3
		c2.4,0.8,4.3,2.3,6.7,3.1c3.8,1.3,7.3,3.3,11,4.9c0.7,0.3,1.4,0.9,1.8,1.6c1.8,2.5,5,2.6,7.2,4.4c0.2,0.2,0.8-0.1,1,0
		c1.7,2.6,5,2.7,7.1,4.7c1.5,1.4,2.4,3.8,5.1,3.3c1.5,1.5,3,3.1,4.6,4.5c1.6,1.5,2.7,3.9,5.5,3.6c0.3,0,0.9,0.6,1,1
		c0.5,1.4,0.6,2.7,2.4,3.5c1.6,0.7,2.6,2.5,3.9,3.8c1.1,1.1,2.7,1.9,3.7,3c2.4,2.5,6.2,4.1,6.5,8.2c0,0.4,0.6,0.8,1,1
		c3.4,1.7,4.7,5.6,7.7,7.8c0.5,0.4,0.6,1.4,0.8,1.9c-3,2.4-6.2,4.8-9.7,7.6c-0.2,0-1.2,0.2-1.9-0.1c-0.8-0.3-1.5-1.1-2.2-1.7
		c-0.5-0.4-0.8-1-1.9-2.3c0,3.3,0,5.5,0,7.7c-1.4,0.9-2.4,1.6-3.5,2.2c-0.7,0.4-1.5,0.6-2,1.1c-2.5,2.6-4.5,5.6-8,7
		c-1.3,2.8-4.6,2.8-6.6,4.5c-1.6,1.3-6.3,0.7-8-1.1c-3-3.1-7-4.9-10.5-7.4c-0.5-0.4-1-0.9-1.4-1.4c-4.7-5-9.9-9.5-15.1-14.1
		c-2.3-2-4.4-4.2-7.6-4.6c-2.9-3.2-7.2-5-9.5-9c-0.8-1.4-2.2-2.8-3.5-4c-1.3-1.1-2.4-1.8-4.3-1c-1.3,0.5-3,0.2-4.5,0.1
		c-2.4-0.1-3.3-2-2-4c0.3-0.6,0.9-1,1.8-1.8c-1.4-0.4-2.5-1-3.7-1.1c-3.5-0.1-7-0.2-10.5,0c-6.7,0.4-12.9-1.3-19.1-3.5
		c-0.6-0.2-1.2-0.6-1.8-0.5c-6.1,0.5-12.1-0.6-18.1-1c-1.3-0.1-2.6,0.5-3.7-0.9c-0.2-0.3-1.1-0.3-1.4-0.1c-2.7,1.6-5.9,0.3-8.6,1.1
		c-2.7,0.8-5.5,0.3-8.1,1c-4.4,1.1-9,0.5-13.2,2c-4,1.4-8.2,1.9-12.2,3.2c-0.9,0.3-1.8,0.6-2.7,0.7c-1.2,0.1-2.3,0-3.1,1.1
		c-0.3,0.5-1,0.9-1.6,0.9c-2,0-4-0.1-5.2,2c-2.3-0.4-3.8,1.2-5.7,2c-2.4,1.1-4.9,2-7,3.6c-0.6,0.5-1.3,1-2.1,1
		c-4.1,0.4-6.5,3.7-9.6,5.7c-2.8,1.8-5.3,4.1-8.2,5.6c-2.4,1.2-4.3,2.8-6.1,4.6c-5.9,5.9-11.8,11.8-17.7,17.7
		c-1.1,1.1-1.9,2.5-2.9,3.8c-0.9,1.3-1.9,2.6-2.8,3.8c-1,1.4-3.1,2.1-2.7,4.4c0.1,0.3-0.5,0.8-0.9,1.1c-2.1,1.8-3.4,4.1-4.7,6.6
		c-1.2,2.3-2.6,4.6-3.5,7.1c-0.6,1.6-2.5,2.6-2.1,4.6c-3.2,3.9-4,9-6.4,13.4c-0.1,0.1-0.3,0.3-0.3,0.4c0.5,4.2-2.2,7.4-3.2,11.2
		c-0.8,3-1.4,6.1-1.9,9.2c-0.5,3.3-1.8,6.3-2.2,9.6c-0.2,1.6-2,3.1-3.3,4.8c3.5,2.1,2.9,5.5,2.2,8.1c-0.5,1.9-0.6,3.8-0.7,5.7
		c-0.1,2.7,0,5.3,0,8c0,2.2,0,4.4,0.9,6.6c0.8,1.9-0.8,4.2,1,6.1c0.3,0.3,0.1,1.3,0,2c-0.2,2.9,0.1,5.8,1,8.6
		c1.1,3.5,1.1,7.2,2,10.7c1,3.4,2.5,6.7,3.3,10.1c0.7,3.1,2.9,5.6,2.9,8.8c2.3,2.1,2.4,5.3,3.9,7.9c1.5,2.7,2.8,5.5,4.3,8.2
		c3.3,5.9,6.4,11.9,10.9,17c0.9,1.1,1.5,2.5,2.5,3.4c2.5,2.3,3.6,4.9,3,8.6c3.6-0.3,6,1.5,8.4,3.8c4.3,4.3,8.7,8.5,13.4,12.3
		c4.1,3.3,8.8,6,13.3,8.9c2.2,1.5,4.4,3,6.8,4.2c5.7,2.8,11.3,5.7,17.3,7.8c3.3,1.2,6.8,2.1,10,3.5c0.6,0.3,1.2,0.6,1.8,0.5
		c1.9-0.4,3.3,0.8,5,1.3c0.6,0.2,1.1,0.7,1.7,0.7c2.6-0.1,5.2,0,7.6,1.1c2.8,1.2,5.8,0.5,8.6,1.1c8.7,1.8,17.4,0.4,26.1,0.9
		c2.9,0.2,5.7-0.3,8.6-0.9c2.8-0.6,5.9,0.8,8.6-1.1c0.1-0.1,0.3,0,0.5,0c4.2,0.2,8.1-0.5,11.9-2.6c1.8-1,4.9-1.1,6.7-0.2
		c3.8,1.9,6.4-0.4,9-1.9c2.6-1.5,5.3-3.1,7.1-5.8c0.8-1.1,2.7-1.3,4-2.2c6.1-4.2,12-8.5,18.3-12.4c2.6-1.6,4.7-3.9,7-6
		c3.7-3.3,6.8-7,10.8-10c2.9-2.2,5.3-5.3,7.4-8.4c0.9-1.3,2.3-2.1,3-3.6c0.8-1.6,2.4-2.7,3.9-4.3c1.3,1.1,2.4,2,3.4,2.9
		c0,2.2,0,4.1,0,6.6c1.3,0,2.6-0.1,3.8,0c1.2,0.2,2.9,0.2,3.5,1c2.6,3.1,6.8,3.5,9.5,6.2c0.4,0.4,1.1,0.5,1.7,0.7
		c4.1,1.4,8.9,5.3,10.9,9c1.9-0.2,3.7,0.1,5.1,1.9c0.8,1.1,2.3,1.7,3.4,2.5c1.4,1,1.5,2.4,0.4,3.8c-6.7,7.7-12.3,16.4-20.2,23.1
		c-3.2,2.7-6.1,5.7-9.7,7.8c-1.1,0.7-1.9,1.9-2.9,2.8c-1,1-1.8,2.4-3.6,2.1c-0.5-0.1-1.1,0.6-1.5,1.1c-5.2,5.8-12.3,8.9-18.5,13.3
		c-2.7,1.9-6,3.1-9.1,4.6c-3,1.5-5.7,3.7-9.3,4.1c-1,0.1-1.9,1.1-2.8,1.7c-0.4,0.3-0.8,1-1.1,1c-3-0.5-4.8,2.1-7.5,2.6
		c-2.5,0.5-4.9,1.9-7.4,2.5c-2.6,0.6-5.1,1.6-7.6,2.2c-4,1.1-8.2,1.9-12.1,3.4c-2,0.7-4.3-0.6-5.9,1.4c-3.4,0.3-6.7,0.7-10.1,1
		c-1.4,0.1-2.9,0-4.1,1c-1.2,1-2.6,1-4.1,1c-13,0-26,0.1-39-0.1c-3.1-0.1-6.3-0.5-9.3-1.7c-0.6-0.2-1.3-0.3-1.9-0.2
		c-3,0.4-5.9-0.2-8.5-1.1c-3.4-1.2-7.1-1.1-10.4-2.5c-3.3-1.4-6.8-2.1-10.2-3.2c-15.4-4.8-14.8-4.4-29.7-11.7c-3.8-1.8-7.5-3.7-11-6
		c-3.5-2.2-7.3-4.1-10.8-6.5c-4.3-3-8.5-6.1-12.7-9.1c-4.7-3.3-8.5-7.8-12.7-11.6C2611.4,346,2611.3,344.4,2611.3,343z M2599,182.9
		c-5.8,1.8-11.4,1.1-15.9,4.9c1.3,0.9,2.5,1.6,3.9,2.5c1.7-1.3,3.2-3,5.1-3.9C2594.1,185.3,2596.7,185.6,2599,182.9z"/>
	<path class="st0" d="M1632.6,132.2c6.5,0,3.9-0.6,11.2,4c1.4,2.5,4.2,2.7,6.3,4.1c1.9,1.3,4.2,2,6.1,3.3c2.7,1.9,6.4,1.9,8.6,4.5
		c2.6-1,4,1.5,6.1,2.1c2.2,0.6,4.3,1.6,6.5,2.5c2,0.8,4,1.7,6,2.4c2,0.7,4.2,1.2,6.1,2.1c1.6,0.7,2.5,2.4,4.7,2.1
		c1.6-0.2,2.4,2.7,4.6,1.9c3.2,2.2,7.1,3,10.6,4.6c4.3,1.9,8.1,4.6,12,7.1c4.7,3,9.8,5.7,14.2,9.2c2.1-0.4,3.2,1.3,4.5,2.5
		c0.3,0.3,0.8,0.5,1.2,0.6c4.2,0.8,7.1,3.4,10.1,6.8c-0.3,1.4-0.7,3-1.1,4.7c1.2,0.9,2.4,0.7,3.4-0.5c1.4-1.6,2.6-1.4,4.2-0.1
		c1.4,1.2,3.3,1.8,4.8,2.9c2.1,1.7,3.1,4,2.6,6.7c6.1,2.4,10.3,6.6,13.8,11.7c1.1,1.7,1.9,3.6,3.2,5.1c1.4,1.6,1,4.1,3,5.3
		c1.3,4.8,3.9,9.1,5.1,13.9c0.7,2.7,1.4,5.4,2.3,8c1.1,3.3,1.5,6.5,1.6,9.8c0.1,1.9,0.2,3.9,1.1,5.5c1.1,2.1,0.9,4.1,0.9,6.1
		c0.1,4.8,0,9.7,0,14.5c0,3.7-0.6,7.3-1.8,10.7c-0.3,0.9-0.1,1.9-0.2,2.9c-0.1,2.7,0.5,5.5-1.6,7.8c-0.3,0.3-0.4,0.9-0.4,1.3
		c0.7,5.2-2.6,8.5-5.2,12.4c-1.1,1.7-1.8,4.1-1.7,6.2c0.2,4.8-1.8,8.3-5.1,11.4c-0.7,0.7-1.6,1.3-2,2.2c-2.5,6.1-6.9,10.7-11.5,15.2
		c-1.2,1.2-3.1,1.9-4.1,3.2c-5.7,7.6-13.2,13.4-19.4,20.5c-1.8,2-3.6,4.2-5.8,5.2c-2.3,1-3.8,3.7-6.7,3.2c-1.1,1.3-2.4,1.9-4.1,2.2
		c-1.2,0.3-1.9,2.3-3.7,1.8c-5.3,3.1-11.2,4.3-17,5.9c-5.6,1.5-11.2,3.3-17.2,3.2c-3.3-0.1-6.6,0.7-9.7,1.7
		c-0.8,0.2-1.6,0.2-2.4,0.2c-1.8,0-3.7,0-5.5,0c-3.1,0-6.6,0.7-9.3-0.4c-2.8-1.1-5.9,0.6-8.4-1.5c-0.5-0.4-1.6-0.1-2.4,0
		c-3.3,0.3-6.5-0.1-9.6-1.1c-3.4-1.1-6.9-1.8-10.3-2.7c-3.4-1-6.7-2.4-10.2-3.2c-0.6-0.1-1.2-0.4-1.7-0.7c-3.5-2.6-7.6-4.3-11.3-6.4
		c-4.4-2.5-8.5-5.3-12.6-8.4c-6-4.5-11-9.9-16.1-15.3c-4.9-5.2-9-11-12.5-17.3c-1.8-3.3-3.7-6.5-5.3-9.8c-1.3-2.6-2.6-5.3-3.4-8.1
		c-0.8-2.8-3.2-5.2-2.6-8.4c-2.2-2.5-1.6-6.1-3.2-8.7c-1.3-2.2,0-4.8-1.8-6.8c-1.6-1.8-1-4.3-1-6.5c0-1.6-1.5-2.9-1-4.6
		c-2.1-2.7-0.7-4.4,1.7-6c2.8,0.5,5.5-0.4,8.3-1.4c0.7-0.3,1.5-0.6,2.3-0.5c1.8,0.2,3.4-0.4,5.1-1c1.8-0.7,3.6-1.2,5.6-1.1
		c0.7,0.1,1.5-0.4,2.2-0.6c2.3-0.5,4.4-1.8,6.9-1.4c0.5,0.1,1.1,0.2,1.5,0c4-2.5,8.9-1.6,13.2-3.2c0.3-0.1,0.5-0.6,0.7-0.7
		c3.3-0.4,6.7-0.8,10-1.1c1.4,2,1.8,4.1,1.5,6.4c-0.3,3.4,0.5,6.6,1.7,9.8c0.8,2.2,0.5,4.6,1.1,7c1,3.6,2.1,7.2,3.6,10.5
		c0.8,1.7-0.6,4.3,2,5.2c0.3,1.9,0.6,3.8,1,6.1c3.5,3.8,7,8.1,11.1,11.9c3.6,3.3,7.4,6.3,12,8.3c1.8,0.8,3.7,1.8,5.4,2.6
		c1.7,0.8,3.8,1,5.7,2c1.5,0.8,3.7,0.8,5.5,1c4.3,0.4,8.6,1.7,13.1,1.2c2.8-0.3,5.7-0.3,8.5,0c3.3,0.3,6.6-0.2,9.5-1.3
		c1.9-0.7,3.9-0.2,5.5-1.1c1.7-0.9,3.6-1.2,5.2-1.9c2.3-1,4.7-2.2,7-3.7c5.1-3.3,10.2-6.5,14.4-11c3.8-4.1,7-8.5,9.7-13.4
		c2.2-4.1,5.2-10.8,5.9-15c0.6-3.4,2-6.6,2-10.2c0-3.5,0-7,0-10.5c0-5,0.5-10-2-14.7c0.5-2.9-0.8-5.2-2-7.7
		c-1.1-2.2-1.9-4.6-3.4-6.6c-1.6-2.2-3.1-4.3-4.6-6.6c-3.3-5.1-8.6-8.2-12.7-12.5c-1.8-1.9-4.2-3.3-6.6-4.6
		c-4.1-2.3-7.9-5.2-12.1-6.9c-6-2.4-11.5-6.1-17.9-7.5c-1.7-0.4-3.1-2.1-5.2-1.9c-1-2.1-3.2-2.1-4.9-2.7c-4.6-1.7-9.4-3.3-13.7-5.5
		c-4.7-2.3-10.1-3.2-14.3-6.6c-2.6,0.3-4.2-1.8-6.4-2.6c-4.3-1.6-8.4-4-12.2-6.6c-4.9-3.3-9.4-7-14.1-10.6c-1.5-1.2-3.1-2.3-4.5-3.5
		c-1.3-1.1-2.4-2.6-4.2-3.3c-0.9-0.4-1.5-1.6-2.2-2.5c-0.8-1-1.5-2.6-2.5-2.9c-3.7-1-3.7-3.7-3.5-6.8c-4.4-0.4-6.3-3.7-8.3-7.1
		c-2-3.5-4.3-6.8-6.3-10.4c-2.2-3.9-2.9-8.5-5.3-12.3c0.4-4.4-2.7-8.1-2.2-12.6c0.2-2.5,0-5.3-1.1-7.5c-1.3-2.6-0.7-5.2-0.7-7.7
		c0-2.4-0.5-4.7,0.6-7.2c1.1-2.5,1.1-5.6,1.3-8.4c0.2-2.5,0-5,1.6-7.4c1.1-1.7,0.6-4.3,1.4-6.4c2.3-5.6,4.5-11.1,7.3-16.5
		c3-5.7,7.2-10.4,10.8-15.5c4.5-6.5,11-10.8,16.8-15.9c4.2-3.8,9.3-6.2,13.5-10c1.8-1.7,4.6-2.4,7-3.4c3.8-1.4,7.5-3.2,11.7-3.1
		c0.8,0,1.7-0.7,2.5-1.1c0.7-0.3,1.4-0.9,2.1-0.8c5.5,0.2,10.7-2.2,16.2-2c1.8-2.1,4.8,0,6.8-1.9c0.6-0.6,2.1-0.1,3.7-0.1
		c-0.7,1.5-1.1,2.4-1.5,3.4c2.3,1.5,3.9-0.2,5.2-1.1c1.3-1.1,2.5-1.3,4-1.3c2.7,0,5.3,0.1,8,0c3.1-0.2,5.7,1.2,6.9,3.6
		c2.1,4.2,5.5,7.1,8.9,10.7c0.8-0.8,1.6-1.4,2.1-2.3c0.9-1.6,1.8-3.3,2.4-5c1-2.6,2.9-4.3,5.4-5c2.3-0.6,4.8-2.4,7.1-0.1
		c3.8,0.1,6.8,3.4,10.7,3.1c1.2,2.4,4.7,1.4,5.9,3.9c2-0.3,2.4,2.4,4.7,2.2c1.3-0.1,2.8,1.8,4.3,2.7c4.1,2.7,8.2,5.4,12,8.7
		c4.3,3.6,8.4,7.4,12.1,11.5c3.4,3.8,7,7.5,9.6,12c1,1.8,2.7,3.2,3.9,4.9c1.6,2.3,3.2,4.7,4.6,7.1c0.5,0.9,0.4,2.2,0.6,3.1
		c-6,3.7-11.9,7.3-17.7,10.8c-1.2,0.7-2.5,1.2-3.7,2c-5.1,3-10.2,6.1-15.3,9c-2.3,1.3-4.8,2.3-6.9,3.8c-0.6,0.5-1.9,0.1-3,0.1
		c-2.1-2-2.4-5.2-4.5-7.5c-2-2.2-3.5-4.9-5.4-7.2c-2.1-2.7-4.4-5.2-6.7-7.7c-3.2-3.4-7.1-5.8-11.1-8.2c-4.2-2.6-9-3.4-13.3-5.2
		c-3.1,0.6-6-1.1-9.1-1.1c-4.8,0.1-9.7-0.3-14.5,0.1c-6.9,0.5-13.7,1.6-20,4.9c-2.7,1.4-5.8,2.3-8.3,4.1c-4.8,3.5-10,6.4-13.1,11.7
		c-1,1.8-2.6,3.2-3.8,4.9c-2.8,3.8-4.1,7.3-4.9,12c-0.3,1.7-0.4,3.5-1.2,5c-1.8,3.3-2.3,6.8-1.6,10.3c1,5.7,0.7,11.7,2.8,17.3
		c0.6,1.6,0.9,2.5,2.6,2.9c0.9,0.2,2.2,0.8,2.3,1.4C1628.8,128.4,1632.2,129.1,1632.6,132.2z"/>
	<path class="st0" d="M3023.3,394.7c0-25.6,0-51.3,0-76.9c0-1.4,0.5-2.5,1-3.6c0.4-0.8,1.1-1.8,0.9-2.6c-0.3-1.8,0.7-2.8,1.9-3.7
		c1.2-1,1.4-2.1,1.1-3.5c-1.5-0.3-2.8-0.4-3.9-1.7c-1.1-1.2-1.5-3-0.9-3.5c2.5-2.2,1.7-5.4,2.7-7.9c0.8-1.9,1.4-3.8,2.8-5.3
		c1.8-2,1.9-2.7,0.1-4.4c-1.3-1.2-1.9-2.5-1.9-4.3c0-1-0.8-2-1.3-3.1c-0.4,0.3-0.7,0.6-1.1,0.9c-0.1-0.2-0.4-0.4-0.5-0.6
		c-1.8-8.5-1-17-1-25.6c-0.1-39.3-0.1-78.7,0-118c0-1.7-0.8-3.6,0.8-5.2c0.2-0.2-0.2-1.1-0.4-1.7c-0.1-0.6-0.2-1.3-0.5-1.8
		c-0.7-1.6,2.6-3.1,0-4.7c0-2,0-4,0-6c0-1.8,0-3.7,0-5.5c0-1.8-0.2-3.7,0-5.5c1.8-15.3,0.8-30.7,0.9-46.1c0.2-15.3,0-30.6,0-46.4
		c1.5,0,3,0,4.4,0c24.8,0,49.7,0.1,74.5-0.1c4.9,0,9.2,0.9,13,4.7c-0.4,0.4-1,0.8-1.4,1.4c-1,1.6-0.9,2.8,0.6,3.7
		c3.4,2.2,6.9,4.1,11.4,3.2c0.9,1.1,1.8,2.2,2.7,3.4c0.7-0.3,1.3-0.4,1.6-0.7c2-2.3,4.6-4,7.2-5.6c1.7-1,2.9-2.5,4.4-4.2
		c-1.4-0.7-2.4-1.3-3.4-1.8c-3.3,2.3-6.6,4.6-10,7.1c0,0-0.4,0.1-0.7,0c-5.1-1.9-5.1-2.1-2.9-7c4.3,0.7,7.8-0.8,11-3.9
		c0.8,1,1.6,1.9,2.3,2.8c2.2,0,3.9,0,6,0c0.1-0.8,0.3-1.7,0.5-2.8c8.6,0,17.3-0.1,25.9,0.1c1.6,0,3.6,0.5,4.8,1.5
		c2.3,1.8,4.1,1.4,6.6,0.6c2.2-0.7,4.5-1.6,7-1.3c2.8,0.3,5.7,0.2,8.5,0c1.9-0.1,3.7,0,5.7-0.8c2.1-0.8,4.8-0.5,6.9,1.1
		c0.2,3.1,0.2,3.1-2.6,5.7c-1.3,1.2-1.4,1.7-1.2,3.4c0.2,1.6-0.2,2.9-1,4.5c-1.4,2.5-1.6,5.7-2.5,9.2c-0.8,0.8-2.1,2.1-3.4,3.4
		c0,0.6,0,1.3,0,2c0,4.4,0,4.4-2.4,8.5c-3.6,0-7.3,0-11.1,0c-1.1,1.2-2.2,2.4-3.2,3.6c1.2,2.3,2.4,4.7,3.8,7.3c-4.1,0-7.8,0-11.7,0
		c-0.3-1.2-0.8-2.6-0.9-3.9c-0.1-1.1,0.4-2.3,0.7-3.4c1.5-0.5,3.1-0.9,4.7-1.5c1.5-0.6,1.5-1.7,0.2-3c-1.1-1-2.2-2.1-3.7-3.5
		c3.1-0.6,5.8-0.8,8.3-1.6c1.4-0.4,3.4-0.4,3.5-3c0-1,1.8-2.1,2.9-2.8c0.9-0.5,1.7-1.7,3.3-0.4c1.3,1,2.2-0.1,2.6-3.7
		c-0.8,0-1.6-0.1-2.4,0c-4.5,0.7-5.5,0.5-9.9-1.8c-0.3-0.1-0.6-0.1-0.9-0.2c-4-1.5-4.4-2.3-2.7-6.5c-1.2-0.8-2.9-0.6-4.2-1.8
		c-1-0.9-3.1-0.4-4.6-0.7c-1.5-0.3-3-0.8-4.3-1.2c-2.3,1.9-1.9,4.2-2,6.4c-0.1,2.2,0.6,4.6-2.1,6.7c-0.6,0-2,0-3.8,0
		c-1.3,2.1-2.6,4.3-3.9,6.4c-0.1,0.1-0.2,0.3-0.2,0.4c2.4,3.2-1.4,4.5-1.8,7c0.6,0.6,1.3,1.3,2.3,2.3c1.4,0,3.2,0,5,0
		c1.9,0,3.6-0.3,4.5-2.4c0.2-0.4,1.4-0.7,2.1-0.6c0.9,0.2,1.7,0.8,2.5,1.2c0.4,1.6,0.6,3.4,1.4,4.8c1.2,2,1.2,3.5-0.6,5
		c-0.4,0.3-0.5,1.1-0.7,1.6c-2.3,0-4.5,0-6.8,0c0.1-1.8,1.1-2.4,2.4-2.8c3.3-1,3.5-2,0.9-5.1c-2.6,2.4-5.2,4.8-7.7,7.2
		c-2.4-0.5-4-2.5-6.4-2.1c-0.3,0.1-0.8-0.6-1.2-1.1c-2.2-2.8-4.5-5.4-8.3-7c-1.2,1.7-3,2.5-5.3,2.2c-1.6-0.2-2.9,0.3-3.5,2.2
		c0.6,0.7,1.3,1.6,2.4,2.9c-4.1-0.7-7,1.2-10,2.9c-1,0.6-2.4,1-3.6,1c-4.8,0.1-9.6,0-14.1,0c-0.8-1.2-1.3-2.1-2.1-3.3
		c-0.7,1.1-1.3,2-2,3c-7.4,0.5-7.4,0.5-10-1.7c-1.1,1-2,2.2-4,2c-3.8-0.3-7.7-0.1-11.5-0.1c-2.2,0-3.1,0.8-3,2.8
		c0.2,3.4-0.8,6.8,0.9,10.1c0.5,1.1,0.1,2.6,0.1,4c0,29.3,0,58.7,0,88c0,1.9-1,4,0.9,5.6c-0.6,1.3-1.2,2.5-1.7,3.8
		c-0.8,2.1-1.6,4.2-2.5,6.8c4.1-1.7,5.9-4.6,7.3-7.9c0.2-0.6,0.5-1.3,1-1.6c2.5-1.6,4.8-3.6,8-3.6c35.2,0,70.3,0,105.5,0
		c0.5,0,0.9,0.1,1.3,0.2c0.9,1.9,0.1,2.9-1.6,3.2c-0.4,2,0.7,4.4-1.7,5.8c-0.3,0.2-0.4,0.9-0.4,1.3c0.1,1.6-0.6,3.1-0.9,4.6
		c-0.3,1.7-0.5,3.2-2,4.2c-0.2,0.1-0.2,0.6-0.2,0.9c-0.1,1.6,0.5,3.3-1.2,4.5c-1.4,1-0.3,3.3-2.1,4.2c-0.5,0.2-0.6,1.4-0.6,2.2
		c0,1.5,0,3-1.5,3.9c-0.2,0.2-0.5,0.5-0.5,0.8c0.6,3.6-1.8,6.3-2.7,9.4c-0.2,0.9-0.3,1.9-0.4,2.9c-0.2,2.2-0.8,2.9-2.9,3
		c-2.2,0.1-4.3,0-6.5,0c-8.3,0-16.7,0-25,0c-0.6-1.4-1.2-2.7-2-4.5c-1.1,0.9-1.8,1.4-2.6,2c-2.4,1.7-4.8,2.8-7.9,2.6
		c-7.3-0.3-14.7-0.1-22-0.1c-1.1,0-2.5,0-3.2-0.7c-1.6-1.6-2.8-1.7-4.6-0.4c-1.4,1-3.2,1.1-5,1.1c-6.3-0.1-12.7-0.1-19,0
		c-2.5,0-3.2,0.7-3.3,3.1c0,0.7,0,1.3,0,2c0,40.2,0,80.3,0,120.5c0,0.7,0,1.3,0,2.3c45,0,89.9,0,135.4,0c-0.9,2-1.6,3.5-2.4,5
		c-4.5,0.3-9-0.6-13.6,1.9c2.2,0.1,3.8,0.1,5.4,0.2c1.7,0,3.3-0.1,5,0.1c0.5,0,1,0.8,2.1,1.8c-4.2,0-7.1,1.3-10.5,2.8
		c0.9,1.1,1.5,1.7,2.3,2.6c0.8-0.5,1.4-1.1,2.1-1.2c2-0.4,3.8,1.3,3.1,3.1c-1,2.8-1.1,5.9-2,8.7c-0.8,2.3-1.5,4.9-4.8,5.3
		c-1.1,0.1-2.1,1.4-3.3,2.3c1.1,0.9,2.1,1.8,3,2.5c-0.3,1.3-0.8,2.3-0.8,3.3c0.3,3.8-1.3,7.1-2,10.7c-0.3,1.6-1.2,2.1-2.8,2.1
		c-7.9,0.3-15.7,0.7-23.6,1c-5.7,0.2-11.3-1.4-17.1-1.1c-5.8,0.4-11.7,0.1-17.5,0.1s-11.7,0.3-17.5-0.1c-3.2-0.2-6.6-0.6-9.5-2.3
		c-0.4-0.2-0.8-0.6-1.3-0.6c-1.5-0.1-3,0-5,0c0.9,1.1,1.5,1.8,2.4,3c-2.1,0-3.9,0.1-5.7-0.1c-0.9-0.1-1.7-0.7-2.4-1.3
		c-2.5-2.1-5.5-1.9-8.3-1.5c-1.5,0.2-2.7,2.1-4.6,2.1c-0.4,0-0.8,0.7-1.2,0.7c-3.7,0.4-7.4,0.9-11.1,1c-9,0.1-18,0.1-27,0
		C3038.1,396.1,3030.9,396.8,3023.3,394.7z M3040.2,247.7c0.8-0.7,1.2-0.9,1.1-1.1c-0.1-0.5-0.3-0.9-0.4-1.4c-0.2,0.6-0.3,1.2,0.5,0
		c0.3-0.3,0.7-0.7,2.2-3.4c-0.8,0.7-1.1,0.9-1.1,1c0.1,0.5,0.3,0.9,0.4,1.4c0.2-0.6,0.3-1.2-0.5,0
		C3042,244.5,3041.7,244.9,3040.2,247.7z M3177.3,356.2c3.1,0,6.3-0.4,9.3,0.1c3,0.5,5.8,1.4,9.2,0.4c-1.1-1.7-2.8-1.8-3.8-2.6
		c-1.7-1.4-3.4-0.7-5.2-0.9c-1.6-0.1-3.7-0.6-4.9,0.2C3180.4,354.3,3179.2,355.5,3177.3,356.2z M3153.8,364.9
		c8.2,0.8,8.2,0.8,9.3-0.2c-0.4-0.9-0.9-1.7-1.3-2.5C3159,362.1,3156.6,362.9,3153.8,364.9z M3070.7,190.9c-0.2-0.3-0.5-0.5-0.7-0.8
		c-0.9,0.2-2.4,0.2-2.5,0.6c-0.5,1.8-2.2,3.5-0.4,5.6C3070.2,195.6,3068.7,192.2,3070.7,190.9z M3102.6,41.9
		c1.6,1.5,2.7,2.5,3.7,3.5c1-0.7,1.6-1.2,2.2-1.6C3106.8,42.3,3105.8,40.2,3102.6,41.9z M3165.3,12.9c-1.9,1.4-2.4,2.5-1.5,4.3
		c0.8-0.1,1.7-0.1,3-0.2C3166.2,15.5,3165.8,14.4,3165.3,12.9z M3055.5,33.4c2.6-0.3,4.2,0.2,6-0.6
		C3058.8,30.7,3058.8,30.7,3055.5,33.4z M3046.7,41.7c-1.6-0.6-2.7-1.1-3.4,0.3c-0.1,0.3,0.3,0.8,0.5,1.2
		C3044.7,42.7,3045.5,42.3,3046.7,41.7z M3154.3,10.9c0-0.2,0-0.3,0-0.5c-1.3,0-2.7,0-4,0c0,0.2,0,0.3,0,0.5
		C3151.7,10.9,3153,10.9,3154.3,10.9z M3160.5,10.3c0,0.3,0,0.6,0.1,0.9c0.9-0.1,1.8-0.2,2.6-0.4c0-0.2,0-0.3,0-0.5
		C3162.3,10.3,3161.4,10.3,3160.5,10.3z M3059.8,206.6c-1.3-0.3-1.3-0.3-1.1,2.4C3059.3,207.7,3059.6,207,3059.8,206.6z M3036.5,257
		c0.3,0,0.6-0.1,0.9-0.1c-0.1-0.9-0.3-1.7-0.4-2.6c-0.2,0-0.3,0-0.5,0.1C3036.5,255.3,3036.5,256.1,3036.5,257z M3047.8,45
		c-0.1,0.2-0.3,0.5-0.3,0.9c0,0.1,0.5,0.4,0.8,0.3c0.3-0.1,0.6-0.4,0.9-0.6C3048.9,45.4,3048.6,45.3,3047.8,45z M3039.1,251.1
		c0.1-0.5,0.2-1,0.2-1.4c0-0.1-0.4-0.3-0.6-0.4c-0.1,0.4-0.3,0.9-0.3,1.3C3038.4,250.8,3038.8,250.9,3039.1,251.1z"/>
	<path class="st0" d="M2440,58.2c-13.8,0-27.5,0-41.1,0c-1,0-2,0-3,0c-1.6,0-2.3,0.9-2.5,2.3c-0.1,1.2,0,2.3,0,3.5
		c0,54.8,0,109.7,0,164.5c0,1.7,0.8,3.6-0.9,5.1c-0.3,0.2-0.2,1-0.1,1.4c2,4.3,0.9,8.7,0.9,13.1c0.1,31.2,0.1,62.3,0.1,93.5
		c0.8,0.8,1.7,1.7,2.7,2.7c22.6,0,45.4,0,68.6,0c-1.2,2.7-0.5,5.6-2.6,7.6c-1.2,1.2-0.1,2.7-0.7,3.7c-2.8,3.9-2.8,8.8-4.7,13.1
		c-1.5,3.3-2.8,6.9-3.8,10.4c-0.5,1.9-0.1,4.3-2.4,5.5c0.3,2.2-1,3.9-1.6,5.8c-0.7,2.1-0.7,4.5-3.1,5.7c-51.4,0-102.9,0-154.4,0
		c-6.2,0-5.9-0.1-5.9-6c0.1-15.2,0-30.3,0-45.9c1.2-0.1,2.5-0.2,3.8-0.2c14.7,0,29.3,0,44,0c4,0,5.2-1.2,5.2-5.2c0-26.7,0-53.3,0-80
		c0-2.5-0.8-5.2,0.9-7.6c0.2-0.3,0.2-1.2,0-1.4c-1.7-1.9-0.9-4.1-0.9-6.1c-0.1-30.7,0-61.3,0-92c0-1.7-0.7-3.6,0.9-5.2
		c0.4-0.4,0.4-1.8,0-2.4c-1.7-2.9-0.8-6.1-0.9-9.1c-0.2-3-0.1-6,0-9c0.1-1.4,1.1-2.8,0.8-4.1c-0.2-1.2-1-2.3-0.9-3.6
		c0.3-3.5-0.3-7,0.8-10.6c0.6-2,0.8-4.7-0.6-7.1c-0.7-1.2-0.8-3.6-0.1-4.8c1.4-2.3,0.8-4.5,0.8-6.7c0-2.1,0.5-4.1-0.5-6.3
		c-0.5-1,0.5-2.6,0.6-3.9c0.1-4.8,0.1-9.7,0-14.5c-0.1-2-0.7-4-1.1-6.3c-3.7,0-7.3-0.1-10.9,0c-2.1,0.1-4.1,2-6.2,0
		c-0.2-0.2-1.1,0.3-1.7,0.4c-1.1,0.2-2.6,0.9-3.2,0.4c-1.8-1.3-3.8-0.9-5.7-0.9c-6.3-0.1-12.6,0-19,0c0-17.1,0-33.8,0-50.7
		c1.7-1,4,0.7,5.5-1.3c0.1-0.1,0.8,0.2,1.3,0.4c0.6,0.2,1.3,0.3,1.7,0.6c1.7,1.2,2.5-2.1,4.5-0.6c1.1,0.8,3.1,0.5,4.7,0.6
		c2.2,0.1,4.5-0.4,6.5,0.1c1.9,0.5,3.2-1.3,5.3-0.3c1.8,0.9,4.2,0.2,6.4,0.2c2,0,4,0,6,0c2.2,0,4.3,0,6.5,0c2,0,4,0.1,6,0
		c1.7-0.1,3.4,0.4,5.2-0.8c0.9-0.6,2.9,0.7,4.5,0.8c1.5,0,3.4-1.2,4.4-0.6c1.7,1,3.2,0.6,4.8,0.6c23.5,0.1,47,0,70.5,0
		c3.8,0,7.7-0.2,11.5,0c3.5,0.2,7,0.8,10.9,1.2c-0.8,3.2-1.6,6.4-2.5,9.5c-0.6,1.9-1.8,3.7-1.7,5.8c0,0.3,0.1,0.8-0.1,1
		c-3.1,3.7-3,8.8-5.6,12.7c-0.8,1.2-0.5,3.1-0.8,4.6c-0.9,4.6-3.3,8.6-4.6,13.1C2441.9,56.3,2440.8,57.2,2440,58.2z"/>
	<path class="st0" d="M1904.3,59.3c-0.3-2.1-0.9-3.9-0.9-5.7c-0.1-14.3,0-28.7,0-43c0-1.6-0.4-3.4,1.7-4.4c6.6,0,13.4,0.1,20.3-0.1
		c2.8-0.1,5.3,0.7,7.9,1.4c1.7,0.5,3.5,0.5,5,1.1c1.9,0.8,3.4,0.5,4.9-0.5c0.1-0.1,0.3,0,0.5,0c4.4-0.3,8.7-0.7,13.1-1
		c2.9-0.2,5.7,0.3,8.6-0.8c1.7-0.6,4.2-0.9,6.1,0.5c0.2,0.2,0.6,0.3,0.9,0.3c4.6-0.7,9,1,13.6,1c15.3,0,30.7,0,46,0
		c2.8,0,5.3,0.5,7.7,1.9c1.7,1,3.5,1.3,5.5,1.2c2.5-0.1,5-0.2,7.5,0c2.7,0.3,5-0.8,7.4-1.4c2.1-0.5,4.2-1.3,6.3-1.6
		c3-0.5,6.3-0.1,9-1.2c2.1-0.8,4.1-0.8,6.2-0.8c10-0.1,20-0.1,30,0c1.7,0,3.6-0.8,5.1,0.9c0.2,0.2,0.8,0.2,0.9,0.1
		c2.5-2.1,5.4-0.8,8.1-0.9c5.3-0.2,10.7-0.1,16,0c1.7,0,3.6-0.8,5.1,0.9c0.2,0.2,1.1,0.2,1.4,0c3.1-1.8,6.4-0.8,9.6-0.9
		c3.3-0.2,6.6,0,9.9,0c1.7,4.2-1.1,7.4-2.1,10.9c-0.5,1.6-0.6,3.6-2.4,4.5c0.2,3.3-2.4,5.8-2.7,8.8c-0.5,4.1-2.6,7.6-3.8,11.5
		c-0.5,1.4,0.2,3-0.9,4.1c-1.1,1.1-1.6,2.2-1.8,3.8c-0.2,1.8-2.3,2.5-3.2,4.1c-0.3,0.6-2.1,0.3-3.3,0.3c-8.7,0.3-17.4,0.6-26.1,1
		c-1.3,0.1-3,1.1-3.9,0.6c-1.3-0.7-2.2-0.6-3.5-0.1c-1.3,0.5-3,0-4.3,0.5c-4.8,1.7-9.7,0.6-14.6,0.9c-4.2,0.3-8.3,1.4-12.6,1.1
		c-4.1-0.3-8.3-0.2-12.5,0c-1.9,0.1-3.7,0.5-5.7,0c-1.9-0.4-4-0.1-6-0.1c-2.5,0.1-3.1,0.7-3.2,3.1c0,1,0,2,0,3
		c0,109.5,0,219,0,328.4c0,1,0,2,0,3c-2.8,1.5-5.6,2.5-8.6,0.5c-0.2-0.2-0.7-0.1-1,0c-7.3,2.1-14.7,0.8-22.1,0.9
		c-7.7,0.1-15.3-0.7-23.4-1.1c0-1.5,0-3.2,0-4.8c0-35.3,0.1-70.7-0.1-106c0-3,1.3-5.6,1.1-8.6c-0.2-3-0.5-6.1,0.1-9
		c0.6-2.7,1.3-5.1-0.1-7.7c1.3-2.4,1-5,0.9-7.6c0-0.5-0.8-1-1.9-2.1c0-0.4,0-1.7,0-3c0-60.8,0-121.6,0-182.5c0-5.6-0.1-5.7-5.8-5.6
		c-6.7,0.1-13.3,0.1-20,0c-4-0.1-8.2-1.4-12.1-0.8c-9.2,1.5-18.4,0.5-27.6,0.8c-2.7,0.1-5.4-0.9-8.1-0.9c-3.2,0-6.4,0.7-9.6,0.9
		c-1.1,0.1-2.3,0.4-3.2-0.7c-0.3-0.4-1.4-0.5-1.8-0.2C1909.8,59.9,1907.2,58.9,1904.3,59.3z"/>
	<path class="st0" d="M65.3,57.2c-15.5,0-30.6,0-45.8,0c0-16.3,0-32.4,0-49c1.1,0,2.4,0,3.7,0c37,0,74,0,111,0
		c1.9,0,3.9-0.4,5.4,1.6c0.4,0.5,2.1,0.7,2.7,0.4c2.6-1.5,5.4-0.7,8.1-0.9c4.9-0.4,9.7-0.8,14.6-1c5-0.2,10,0,15,0
		c1.1,0,2.2,0,3.6,0c-0.2,0.9-0.2,1.5-0.5,1.8c-1.1,1.1-2.2,2.2-1.6,3.8c0.7,2.2-1.9,2.9-2,4.7c-0.1,1.6,0.5,3.3-1.2,4.5
		c-0.5,0.4-0.7,1.4-0.8,2.1c-0.1,0.8,0.3,2.1-0.1,2.4c-2,1.4-1.7,3.7-2.4,5.6c-0.6,1.8-0.6,4.1-1.7,5.2c-1.6,1.7-0.1,3.8-1.7,5.4
		c-1.4,1.3-1.3,3.5-1.1,5.5c-2.7,1.9-1.1,6.1-5,7.9c-15.1,0-30.9,0-47,0c0,1.6,0,3.1,0,4.5c0,18.5,0,37,0,55.5c0,2.6,0,4.8-3.1,5.7
		c-0.9,0.3-1.6,1.1-2.1,1.4c0.2,1,0.1,1.5,0.3,1.6c1.2,1,3,1.7,3.7,2.9c0.6,1.2-0.2,3,0.2,4.4c2,8.1,0.7,16.4,0.9,24.6
		c0.2,8.3,0.1,16.6,0.1,24.9c-0.3,0.3-0.5,0.5-0.8,0.8c-2.7,2.8-3.3,4.7-0.9,7.5c2.9,3.3,2.2,7.1,1,10.1c-1.9,4.8-1.5,9.3,0,13.9
		c0.4,1.1,0.6,2.1,0.6,3.2c-0.7,37.4,1.6,74.7,1,112c-0.1,3.2,0,6.3,0,9.5c0,4.5,0.1,4.5,4.3,4.5c9,0,18,0,27,0
		c1.7,0,3.6-0.8,5.1,0.9c0.2,0.2,1,0,1.3-0.2c1.1-1.2,2.5-0.6,3.7-0.7c9.2-0.1,18.3,0,27.5,0c0.6,0,1.2,0,2.4,0
		c-0.8,1.7-1.4,2.9-2,4.1c-0.7,1.6-1.5,3-1.5,4.9c0,1.2-0.5,2.5-1,3.5c-2,3.7-4.2,7.3-5.9,11.1c-0.7,1.6-1.2,3.2-1.2,5
		c-2,0.9-1.8,2.9-2.4,4.5c-0.5,1.1-0.9,2.9-0.3,3.7c1.3,2,0.1,3.4-0.5,5.1c-0.7,1.9-0.9,4-1.7,5.8c-0.6,1.2-0.3,2.9-2.5,3.5
		c-1.5,0.5-2.5,1.1-3.9-0.1c-0.2-0.2-1.1,0.3-1.7,0.4c-0.8,0.2-1.6,0.5-2.3,0.4c-4.6-1.2-4.5-1.2-9.2,0c-1.1,0.3-2.5,0.4-3.5,0
		c-4.8-2-9.8-0.4-14.6-0.9c-2.9,1.6-6.1,1.4-9.1,0.9c-9.4-1.6-18.7-0.6-28.1-0.9c-0.6,0-1.6,0.1-1.8-0.3c-1.6-2.5-4.1-1.9-6.3-1.7
		c-3.5,0.3-7.2-1.1-10.6,0.8c-0.8,0.4-2.3-0.8-3.5-0.8c-4.2-0.1-8.3-0.1-12.5,0c-1.5,0-3.1,0.6-4.6,0.9c-1.4,0.3-2.8-0.4-4.2,0.8
		c-0.7,0.6-2.2,0.1-3.4,0.2c-1.6,0.2-3.3-0.6-4.7,0.9c-0.3,0.3-1.3,0.3-1.9,0.1c-6.3-2-12.7-0.6-19.1-0.9c-3.7-0.2-7.3,0-11,0
		c-2.9,0-3.5-0.6-3.5-3.4c0-7.8,0-15.7,0-23.5c0-6-0.1-12,0-18c0-2,0.5-4,0.8-6.1c3.7,0,7,0,10.4,0c12.7,0,25.3,0,38,0
		c3.3,0,3.7-0.4,3.8-3.6c0-0.8,0-1.7,0-2.5C65.3,244.6,65.3,151.2,65.3,57.2z M124.5,10.9c3.2,0.1,6.5,0.7,10.1-0.1
		C131,8.6,127.7,8.6,124.5,10.9z"/>
	<path class="st0" d="M801.3,356.8c0-1.8,0-3.4,0-5.4c-1.8-1.4-3.7-2.9-6-4.7c0-0.7,0-1.8,0-2.9c0.1-2.1-0.1-4.1-1-6.1
		c-1.3-2.7-0.7-6-2.1-8.6c-1.6-2.9-0.4-5.8-0.9-8.6c-0.3-1.7-0.8-3.3-1.3-5c-0.6-2-0.2-3,1.6-3.2c0.5-0.1,1,0,1.5,0c17,0,34,0,51,0
		c0.3,0,0.6,0.1,1.3,0.3c-1.1,5.3,1.3,10.3,2.1,15.4c0.5,3.1,2,6.3,4,8.7c3,3.5,5.9,7.5,10.7,8.9c3.4,1,6.3,3.3,9.9,4
		c1.3,0.2,2.5,1.4,3.8,1.5c1.1,0.1,2.2-0.9,3.4-1.3c4.3-1.4,8.1-0.4,11.8,2.3c2.4-1.9,5.1-3.9,7.8-5.9c1.5-1.2,3-2.3,4.5-3.5
		c4.1-3.3,6.2-7.9,8.6-12.4c0.8-1.5-0.5-3.4,1.3-4.4c0.3-3,1-6,1-9.1c0.1-46.7,0-93.3,0.1-140c0-1.7-0.8-3.6,0.9-5.1
		c0.2-0.2,0.2-1.1,0-1.4c-1.7-2.4-0.9-5.1-0.9-7.6c0-2.5-0.9-5.3,0.7-7.7c-1.2-1.5-1.2-3.5-0.7-5c0.6-1.6,1.6-2.8-0.1-4.3
		c-0.2-0.1,0.2-0.9,0.3-1.3c0.2-0.7,0.5-1.5,0.6-2.2c0.5-2.1-1.7-4.1,0-6.2c-1-1-1.5-2.5-0.9-3.5c1.6-3.1,0.8-6.4,0.9-9.6
		c0.1-1.8-1-3.8-0.5-5.4c0.7-2.2,0.3-4.2,0.5-6.3c0.1-2,0-4,0-6c0-2,0-4,0-6c0-2.2,0-4.3,0-6.5c0-2,0-4,0-6s0-4,0-6
		c0-2.2,0-4.3,0-6.5c0-2,0-4,0-6c0-2.3,0-4.7,0-7c-0.1-2.2-0.8-2.9-2.9-2.9c-8,0-16,0-24-0.1c-1.5,0-3.2,0.6-4.7-0.9
		c-0.5-0.5-2.2-0.5-2.9,0c-2.9,2-6.1,0.5-9.1,0.9c-1.4,0.2-2.4-0.9-2.4-2.4c0-1,0-2,0-3c0-15,0-30,0-45.4c3.1,0.1,6.1-0.5,9.4,0.5
		c2.6,0.8,5.6,0.8,8.5-0.5c0,0.5,0,0.9,0,1.4c-3.5,1.3-7.6-1.1-11.2,1.8c1.5,0.6,2.9,1,3.9,1.7c1.7,1.2,3.4,1,5.1,0.5
		c6.3-1.7,12.5-3.5,18.7-5.6c0.9-0.3,2-0.1,2.9-0.1c12.5,0,25-0.3,37.5,0.2c5.2,0.2,10.4,0.9,15.7,0.8c0.8,0.8,1.5,1.7,2.4,2.7
		c0,1.4,0,3.1,0,4.7c1,0.6,1.9,1.6,2.8,1.5c2.8-0.1,3.1,1.8,3.2,3.7c0.4,6.4,1,12.7,1,19.1c0.1,38,0,76,0.1,114
		c0,3.2,0.8,6.4,0.9,9.6c0.2,3.3,0.7,6.8-0.1,10c-1.6,6.5-0.4,13.1-0.9,19.6c2.1,8.1,0.7,16.4,0.9,24.6c0.2,8.3,0.1,16.7,0,25
		c0,2.9-1.2,5.6-3.1,7.2c-0.5,0.4-1.1,0.5-1.7,0.7c-0.7,3.6-0.2,7,2.4,10.3c-1.4,0.2-2.3,0.3-3.2,0.5c-1.3,2.5,0.7,4,2.2,4.7
		c2,0.9,2.4,2.5,2.4,4c-0.2,7.4,1.6,14.7,1.1,22.1c-0.4,6-0.2,12,0,18c0.2,6.2-1.8,12.3-1.1,18.6c0.1,0.5-0.6,1.1-0.6,1.7
		c-0.3,2.2-1.8,4.1-1.3,6.5c0.1,0.6,0.2,1.5-0.1,1.9c-2.2,3-2,6.8-3.8,9.9c-1.7,3.1-2.9,6.5-4.7,9.5c-2.5,4.2-5.5,8-8,12.2
		c-3.6,5.8-9.2,9.5-14.1,13.9c-2.9,2.5-6.7,4-9.9,6.1c-3.1,2.1-6.7,3.2-10,4.7c-3.3,1.5-6.6,2.8-10.1,3.4c-5,0.8-9.6,3-14.9,2.7
		c-7-0.4-14-0.1-21-0.1c-4.3,0-8.7,0.4-12.7-2c-2.3,0.4-4.7-0.1-6.5-1.2c-1.9-1.1-3.9-0.8-5.8-1.7c-2.7-1.3-5.6-2.5-8.5-3.6
		c-4.3-1.6-8.1-3.9-11.8-6.6c-3.1-2.3-7.2-3.8-8-8.3c-0.1-0.6-0.8-1-1.3-1.5c-1.3-1.4-2.7-2.6-2.9-4.8c-0.3-2.1-3.3-0.7-4.4-2.5
		c-0.7-1.2-2.3-2.4-2.2-3.5c0.3-2.6-2.8-3.5-2.5-6.1C804.1,358.6,802.2,357.6,801.3,356.8z"/>
	<path class="st0" d="M1699.2,1.1c0,1.1,0,1.9,0,2.8c-2.3,1.3-3.4-0.8-4.7-2c0-0.1,0-0.2,0-0.3C1696,1.4,1697.6,1.2,1699.2,1.1z"/>
	<path class="st0" d="M969.4,13c-0.7,0.1-1.2,0.3-1.6,0.2c-0.5-0.1-1.1-0.4-1.4-0.8c-0.1-0.1,0.4-1.2,0.4-1.1
		c0.6,0.1,1.2,0.3,1.7,0.6C968.8,12.1,969,12.5,969.4,13z"/>
	<path class="st0" d="M3142.9,52.4c-0.1-0.2-0.2-0.5-0.4-0.9c0.3-0.1,0.6-0.4,0.8-0.3c0.3,0.1,0.6,0.4,0.9,0.6
		C3143.9,52,3143.6,52.1,3142.9,52.4z"/>
	<path class="st0" d="M2599,182.9c-2.3,2.8-4.9,2.4-6.9,3.4c-1.9,1-3.5,2.6-5.1,3.9c-1.3-0.9-2.5-1.6-3.9-2.5
		C2587.6,183.9,2593.2,184.7,2599,182.9z"/>
	<path class="st0" d="M3177.3,356.2c1.9-0.6,3.1-1.9,4.6-2.8c1.2-0.8,3.2-0.3,4.9-0.2c1.7,0.1,3.4-0.5,5.2,0.9c1,0.9,2.7,1,3.8,2.6
		c-3.4,1-6.2,0.1-9.2-0.4C3183.6,355.8,3180.4,356.2,3177.3,356.2z"/>
	<path class="st0" d="M3153.8,364.9c2.8-2,5.2-2.8,8-2.7c0.4,0.8,0.8,1.6,1.3,2.5C3162,365.7,3162,365.7,3153.8,364.9z"/>
	<path class="st0" d="M3070.7,190.9c-2,1.3-0.5,4.7-3.7,5.4c-1.7-2-0.1-3.8,0.4-5.6c0.1-0.4,1.6-0.4,2.5-0.6
		C3070.2,190.4,3070.4,190.6,3070.7,190.9z"/>
	<path class="st0" d="M3102.6,41.9c3.2-1.7,4.2,0.4,5.9,1.9c-0.6,0.5-1.2,0.9-2.2,1.6C3105.3,44.5,3104.2,43.4,3102.6,41.9z"/>
	<path class="st0" d="M3165.3,12.9c0.5,1.5,1,2.6,1.5,4.1c-1.3,0.1-2.2,0.1-3,0.2C3162.9,15.5,3163.4,14.3,3165.3,12.9z"/>
	<path class="st0" d="M3055.5,33.4c3.3-2.7,3.3-2.7,6-0.6C3059.7,33.5,3058.1,33,3055.5,33.4z"/>
	<path class="st0" d="M3046.7,41.7c-1.2,0.6-2.1,1.1-2.9,1.5c-0.2-0.4-0.6-1-0.5-1.2C3044,40.6,3045.1,41.1,3046.7,41.7z"/>
	<path class="st0" d="M3154.3,10.9c-1.3,0-2.7,0-4,0c0-0.2,0-0.3,0-0.5c1.3,0,2.7,0,4,0C3154.3,10.6,3154.3,10.8,3154.3,10.9z"/>
	<path class="st0" d="M3160.5,10.3c0.9,0,1.8,0,2.7,0c0,0.2,0,0.3,0,0.5c-0.9,0.1-1.8,0.2-2.6,0.4
		C3160.5,10.9,3160.5,10.6,3160.5,10.3z"/>
	<path class="st0" d="M3059.8,206.6c-0.2,0.4-0.5,1.1-1.1,2.4C3058.6,206.2,3058.6,206.2,3059.8,206.6z"/>
	<path class="st0" d="M3036.5,257c0-0.9,0-1.8,0-2.7c0.2,0,0.3,0,0.5-0.1c0.1,0.9,0.3,1.7,0.4,2.6C3037.1,257,3036.8,257,3036.5,257
		z"/>
	<path class="st0" d="M3047.8,45c0.8,0.3,1.1,0.4,1.3,0.6c-0.3,0.2-0.5,0.5-0.9,0.6c-0.2,0.1-0.8-0.2-0.8-0.3
		C3047.6,45.5,3047.8,45.1,3047.8,45z"/>
	<path class="st0" d="M3043.5,241.8c-0.3,1.2-0.5,1.8-0.7,2.4c-0.2-0.5-0.4-0.9-0.4-1.4C3042.4,242.6,3042.7,242.4,3043.5,241.8z"/>
	<path class="st0" d="M3040.2,247.7c0.4-1.3,0.5-1.9,0.7-2.5c0.2,0.5,0.4,0.9,0.4,1.4C3041.3,246.7,3041,246.9,3040.2,247.7z"/>
	<path class="st0" d="M3039.1,251.1c-0.4-0.2-0.8-0.4-0.8-0.5c0-0.4,0.2-0.9,0.3-1.3c0.2,0.1,0.6,0.2,0.6,0.4
		C3039.3,250.2,3039.2,250.6,3039.1,251.1z"/>
	<path class="st0" d="M3042.3,244.2c-0.3,0.3-0.7,0.7-1,1C3041.7,244.9,3042,244.5,3042.3,244.2z"/>
	<path class="st0" d="M124.5,10.9c3.2-2.3,6.4-2.3,10.1-0.1C131,11.6,127.8,11,124.5,10.9z"/>
</g>
</svg>
