<?xml version="1.0" encoding="utf-8"?>
<!-- Generator: Adobe Illustrator 19.0.0, SVG Export Plug-In . SVG Version: 6.00 Build 0)  -->
<svg version="1.1" id="Layer_1" xmlns="http://www.w3.org/2000/svg" xmlns:xlink="http://www.w3.org/1999/xlink" x="0px" y="0px"
	 viewBox="2264.5 -498.9 782.3 247.9" style="enable-background:new 2264.5 -498.9 782.3 247.9;" xml:space="preserve">
<style type="text/css">
	.st0{fill:#FFFFFF;}
</style>
<g>
	<path class="st0" d="M2662.8-430.2l24.6-35.1h72.4c-5.1,17-32.5,49.1-81.7,96.4c-46.1,45.6-74.8,83.2-86.4,113h54.5l7.5-13.9
		l0.6-0.4v-0.4l0.7-1.6c19-31.5,44.5-61.9,76.5-91c62.2-59.9,93.4-104,93.6-133.2H2671l-38.3,66.2L2662.8-430.2L2662.8-430.2
		L2662.8-430.2z M3023.9-460.5c14.5-11.9,22.2-23.5,22.9-34.6h-207.1c-4.4,17.7-10.6,33-19.4,46.2h108.8c2-4.2,4-7.3,5.9-9.6
		c1.5-2,4.5-2.6,9.1-2L3023.9-460.5L3023.9-460.5z M2884.3-420.6l24.9-4.6l12-13.2h-107.1c-23.3,24.9-25.1,42.3-5.4,52.3
		c2,0.2,2.6-1.5,1.8-5.2c-1.5-4.8-0.7-10,2-15.5c2-4.5,4.5-7.7,7.4-9.9h41.3l-41.3,47.4c-5.1,3-11.1,4.3-18.1,3.5h-47.5l-13.3,11.7
		h59.4c12.7,0.7,22.6-2.2,29-8.3l40.7-47.2C2875.4-416.7,2880-420.5,2884.3-420.6L2884.3-420.6z M2624.9-430.9
		c4.6-34.8-3.9-55.9-25.6-63.8c-25.5-9.8-54.3,0.3-86.7,30.6c-11.6,11-22.3,23.6-32.7,37.8c-8.3,10.9-14.4,20.3-18,28l-8.7,17.8
		c-6.5,13.7-11.8,28-15.7,42.7c-11.9,43.2-5.5,70.6,19,81.9c24.8,11.4,53.6,2.7,86.4-26.4c19-17.2,35.6-37,49.1-58.8l8.8-15.2
		c12-23.2,20-47.2,23.6-72.6L2624.9-430.9L2624.9-430.9z M2504.1-383.5c8.7-16.8,20.2-34.9,33.8-53.8c21.5-30.3,37.5-43.2,48.3-39.4
		c16.2,6.1,4.2,44-35.8,114.2c-10.1,16.8-22.4,34.6-36.8,53.5c-22.2,27.8-37.4,39.9-45.8,35.5c-8.7-4.6-6.2-22.6,7.5-53.9
		L2504.1-383.5L2504.1-383.5z M2457.6-431.6c4.8-34.6-3.9-55.8-25.5-63.8c-25.6-9.7-54.5,0.7-86.5,30.9
		c-11.6,10.9-22.5,23.5-32.9,37.7c-8.3,10.9-14.3,20.3-18,28.1l-8.8,17.7c-6.4,13.7-11.6,28-15.7,42.6c-11.7,43.3-5.2,70.7,19.4,82
		c24.5,11.4,53.3,2.6,85.9-26.4c19.7-18.1,36.2-37.5,49.4-58.8l8.7-15.2c11.8-22.7,19.8-47.2,23.6-72.4L2457.6-431.6L2457.6-431.6z
		 M2336.9-384.1c8.7-16.8,20-34.6,33.6-53.6c21.6-30.1,37.7-43.3,48.4-39.6c16.2,6.1,4.2,44.2-35.8,114c-9.9,17-22.3,34.8-36.7,53.6
		c-22.2,28-37.5,39.8-45.9,35.5c-8.7-4.6-6.2-22.8,7.5-53.9L2336.9-384.1L2336.9-384.1z"/>
</g>
</svg>
