<?xml version="1.0" encoding="utf-8"?>
<!-- Generator: Adobe Illustrator 19.0.0, SVG Export Plug-In . SVG Version: 6.00 Build 0)  -->
<svg version="1.1" id="Layer_1" xmlns="http://www.w3.org/2000/svg" xmlns:xlink="http://www.w3.org/1999/xlink" x="0px" y="0px"
	 viewBox="0 0 912 902" style="enable-background:new 0 0 912 902;" xml:space="preserve">
<style type="text/css">
	.st0{fill:#FBFCFB;}
</style>
<g>
	<path class="st0" d="M82.4,235.6c-2.5-6.1-5-12.3-7.6-18.4c-10.5-24.7-21.1-49.4-31.7-74.1c-9.6-22.4-19.2-44.8-28.9-67.2
		C11.9,70.2,9.6,64.6,7.1,59c-0.5-1.1-1.4-2-2.1-3c0-1,0-2,0-3c1.4,1.3,3,2.5,4.2,3.9c10.2,11.8,20.4,23.6,30.6,35.5
		c0.5,0.6,1.2,1.1,1.9,1.6c-4.9-13.9-10.5-27.3-16.1-40.7C20,40,14.3,26.7,8.3,12.7c1.5,0.6,2.1,0.9,2.7,1.1
		c0.7,0.7,1.4,1.4,2.2,2.2c0.5,0.4,1.1,0.9,1.6,1.3l-0.1-0.1c0.4,0.5,0.9,1.1,1.3,1.6c4,4,8,8,12,11.9c6.9,6.8,13.9,13.4,20.8,20.2
		c3.2,3.2,6.2,6.5,9.4,9.7C78.8,81,99.4,101.4,120,121.8c9.8,9.7,19.6,19.5,29.5,29.2c26.4,26.1,52.8,52.3,79.2,78.4
		c9,8.9,18,17.8,27,26.7c15.5,15.3,31,30.7,46.6,46c0.5,0.5,1,0.9,1.9,1.7c3.7-3.6,7.3-7.2,10.9-10.7c3.6-3.4,7.3-6.8,10.8-10.2
		c4.2,1.1,74.1,40,89,49.7c-0.2,3.7-0.4,7.6-0.7,12.3c9.1-7.1,17.7-13.8,26-20.3c14.2,2.2,28.1,4.4,42,6.5c1.4-1,2.7-1.9,4.5-3.1
		c-7-6.3-15.2-10.3-22.5-16.5c61.9-43.2,123.4-86.2,185.8-129.8c-3.3,17.4-8,33.6-11.1,50.2c9.6-11.3,17.4-23.7,26.3-35.6
		c27.9-8,55.9-16,84.7-24.3c-20.1,39-39.7,77.2-59.9,116.3c1.6-0.5,2.2-0.6,2.7-0.9c11.9-7.3,23.8-14.6,35.6-22.1
		c1.6-1,3.1-2.5,4-4.2c4.2-7.6,8.1-15.3,12.1-22.9c2.7-5.1,5.6-10.2,8.2-15.4c1.2-2.4,2.9-3.8,5.4-4.7c20.4-7.4,40.8-14.9,61.1-22.4
		c0.9-0.3,1.8-0.8,3-1.3c21.4-30.9,42.9-62,64.8-93.6c1.5,5.6,3,10.8,4.2,16c3.5,14.6,7,29.3,10.5,44c1,4,2.1,8,2.9,12.1
		c0.5,2.9,0.8,5.9,0.7,8.9c-0.9,17.6-2,35.2-3,52.8c-0.6,11-1.2,21.9-1.8,32.9c-1.1,18.2-2.1,36.5-3.2,54.7
		c-0.6,9.3-1.2,18.5-1.9,28.2c-13.9,20-28.1,40.3-42.9,61.6c-3.1-12.8-5.2-24.6-7.6-36.3c-2.4-11.7-4.7-23.3-7.6-35.1
		c-9.8,16.3-18.1,33.2-26.9,49.9c-8.8,16.8-17.7,33.5-26.7,50.5c-23.6,7.7-47.4,15.5-71.3,23.3c0,0.3,0,0.6,0,0.9
		c0.8,0.3,1.6,0.7,2.4,0.9c7.4,2.1,14.4,4.9,20.8,9.2c7.2,4.8,12.3,11.1,14,19.8c0.1,0.6,0.5,1.2,0.8,2.2
		c14.1,4,24.7,12.2,28.7,26.4c4.9,2.1,9.3,3.6,13.4,5.7c8.2,4.4,14.1,11,17.9,19.5c5.2,11.5,2.5,24.4-5.7,32.7
		c-0.9,0.9-1.8,1.9-2.5,2.7c1.4,4.2,3,8,4,12c2.9,11.8-1.6,21.3-10.4,28.7c-7.7,6.5-17.1,9.2-27.2,9.3c-6.9,0.1-13.6-0.5-20.1-2.9
		c-0.9-0.3-2-0.3-3.2-0.4c-0.6,1.4-1.2,2.7-1.8,4c-5.4,12.8-14.3,21.9-28,25.6c-4.6,1.2-9.3,2.4-14.2,0.9c-0.7-0.2-1.6,0-2.8,0
		c-4.2,11.5-8.4,23-12.8,34.9c-28.2-14.4-56.4-28.8-84.7-43.2c-8.3,3-16.5,6-24.6,8.9c-5.4-4.2-10.8-8.4-16.3-12.7
		c-7.4,4.8-14.6,9.5-22.3,14.5c-5.9-7.7-11.7-15.4-17.8-23.5c-6.2-1-12.9-2.1-20-3.2c-9.7,10.8-19.4,21.7-29.2,32.8
		c4.8,7.6,9.4,15.1,14.4,23c-25.2,12.1-50,24.1-75.3,36.3c3,7.9,6.1,15.7,9.2,23.9c-2.5,1.4-4.8,2.8-7.1,3.9
		c-26.7,13.5-53.4,27-80,40.5c-1.3,0.7-2.6,1.5-4.2,2.5c2.3,2.8,4.4,5.4,6.6,7.9c13.7,16.3,27.4,32.6,41.1,48.9
		c1.3,1.6,3.3,2.8,5.2,3.6c9.6,4,19.4,7.7,29.1,11.6c15.1,6,30.1,12.1,45.1,18.2c0.6,0.3,1.1,1,1.6,1.5c-46.7,0-93.3,0-140,0
		c-1.2-0.3-2.3-1-3.5-1c-12.5-0.2-25-0.2-37.5-0.3c-9.3-0.1-18.7-0.1-28-0.2c-18-0.2-35.9-0.5-53.9-0.8c-11.2-0.2-22.4-0.7-34.6-1
		c19.4-10.7,38.1-21,57.6-31.6c-5.1-2.2-9.7-0.9-14.1-1.7c-4.5-0.8-9.2-0.9-13.9-1.2c-4.6-0.4-9.3-0.7-13.9-1
		c-4.8-0.3-9.6-0.6-14.4-0.9c-4.6-0.3-9.3-0.8-13.9-1.1c-4.6-0.4-9.3-0.7-13.9-1c-4.6-0.3-9.3-0.6-13.9-1c-4.6-0.3-9.2-0.7-14.5-1.2
		c14.2-31.3,29.4-61.7,43.7-93c-11.5-31.7-23.2-63.7-35-96.1c35.3-16.2,70.1-32.1,104.8-48c0-0.3,0-0.7,0-1
		c-6.1-1.7-11.9-3.9-17.1-7.5c-5.2-3.6-8.8-8.5-12.4-13.6c-6,3.2-12.1,5.2-18.6,5.9c-7.8,0.8-15.3-0.4-22.1-4.5
		c-10.2-6.3-15.2-18.5-12.4-30.3c0.4-1.6,0.9-3.2,1.4-4.8c-0.2-0.4-0.4-1-0.7-1.3c-8.3-8.5-9.8-22.6-0.9-34.2
		c4.8-6.3,11-10.4,18.4-13.1c0.9-0.3,1.9-0.6,2.8-1c0.1-0.1,0.3-0.2,0.9-0.7c1.6-16.8,10.4-30.3,23.6-41.4c-2.9-4-5.6-7.5-8.3-11.2
		c-2.3,1.4-4.4,2.6-7,4.2c-39.8-81-79.6-161.8-119.8-243.6c1.7,0.9,2.6,1.1,3.3,1.6c9.2,6.5,18.4,13.1,27.7,19.6
		c1.5,1,3.1,1.9,4.7,2.8c0.4,0.2,0.8,0.3,1.6,0.7C82.8,236.4,82.6,236,82.4,235.6z M373,886.1c14,0.2,27.9,0.5,41.9,0.6
		c4.6,0.1,9.2,0,13.8,0c-0.9-1.5-2-2.4-3.3-2.9c-15.6-6.3-31.2-12.6-46.9-18.7c-2.4-0.9-4.4-2.2-6-4.2
		c-8.4-10.1-16.9-20.1-25.3-30.2c-8.3-9.9-16.7-19.9-25-29.9c-0.6-0.7-1-1.5-1.5-2.5c31.1-15.8,61.8-31.4,92.7-47.1
		c-3.3-8.3-6.3-16.1-9.5-24.1c24.8-11.9,49.5-23.8,74.7-36c-4.7-7.4-9.2-14.5-13.5-21.3c11.2-12.6,22.1-24.9,33.3-37.4
		c8.4,1.2,16.7,2.4,24.8,3.5c5.5,7.4,10.8,14.4,16.2,21.7c7.6-4.9,14.6-9.5,21.5-14c5.9,4.6,11.4,8.9,16.9,13.3
		c8.2-2.9,16.3-5.8,24.1-8.6c13.7,6.9,27.2,13.7,40.6,20.5c13.6,6.8,26.7,14.5,41,20.7c3.4-9.1,6.5-17.8,9.8-26.6
		c-5.2-3.3-9.9-6.4-14.6-9.4c-4.7-3-9.7-5.7-14.5-9.7c2.4-0.5,4-0.8,5.3-1c0.7-1.7,1.3-3.1,2.1-4.8c4.8,6.5,10.1,11.8,17,15
		c13.3,6.2,26.4,6.4,38.5-2.8c7.1-5.4,11.3-13,13.9-21.4c0.5-1.5,0.9-3,1.3-4.3c6.4,2.1,12.4,4,19.8,6.3c2.5,0,6.5,0,9.7,0
		c2.6-0.8,4.4-1.3,6.2-2c4-1.6,8.3-2.7,11.8-5c12.8-8.2,16.8-22.1,8.2-35.7c-0.9-1.4-1.7-2.8-2.6-4.3c0.8-0.7,1.4-1.4,2.1-1.8
		c12.3-8,13.5-24.4,6.4-35.3c-5.8-8.9-14-14.5-24.3-17c-1.6-0.4-3.1-0.7-4.2-1c-3.7-16.6-15.2-23.7-29.8-27.4
		c-0.2-0.7-0.4-1.3-0.4-1.9c0.2-6.9-3.1-12.2-8.1-16.4c-10.5-8.8-22.8-13.3-36.5-13.8c-2.8-0.1-5.6,0-8.7,0
		c-0.1-0.9-0.3-1.7-0.4-2.8c29.6-9.7,59-19.4,88.9-29.3c19.4-37.1,39.1-74.5,59.1-112.7c5.2,25.3,10.1,49.6,15.1,74.2
		c0.9-0.4,1.5-0.5,1.8-0.8c11.5-16.5,23-32.9,34-48.7c0.8-10.5,1.5-20.1,2.2-29.7c0.4-6.1,0.7-12.3,1-18.4
		c0.7-12.1,1.4-24.2,2.1-36.3c0.5-8.6,0.8-17.2,1.1-25.9c0-1,0.1-2,0.2-3c0.6-7.6,1.2-15.2,1.7-22.8c0.7-10.9,1.4-21.9,2-32.8
		c0.1-1.3-0.1-2.7-0.4-3.9c-4.5-19.2-9.1-38.4-13.7-57.6c-0.4-1.6-1.1-3.2-1.9-5.4c-20.1,29-39.8,57.3-59.5,85.7
		c-22.5,8.3-45,16.5-67.2,24.7c-5.2,10-10.3,19.5-15.3,29c-5,9.5-10.1,18.9-16.2,27.9c0.3-2.4,0.6-4.8,1-8c-1.7,0.9-3,1.4-4.1,2.1
		c-10.9,6.7-21.8,13.4-32.7,20.1c-4.2,2.6-8.6,4.9-12.9,7.3l0,0.1c0.4-1.4,0.7-2.8,1.3-4.1c9-17.1,18.1-34.2,27.2-51.3
		c10.8-20.3,21.6-40.6,32.5-60.9c1.1-2.1,2.5-4.1,3.2-7.3c-24.8,7.2-48.8,14.2-72.4,21c-0.9,1-1.3,1.4-1.7,2
		c-9,12.5-18.2,24.9-27,37.6c-2.8,3.9-6.6,4.8-10.9,6.1c3.9-16,7.7-31.4,11.4-46.8c0.3-1.3,0-2.7,0-4.6
		c-56.6,39.5-112.5,78.5-168.8,117.8c7.6,6,15.4,10.7,22.7,16.6c-6.9,4.6-13.2,8.8-19.6,13.1c-0.2-0.2-0.4-0.4-0.7-0.6
		c0.5-1.5,1-3,1.7-5.2c-12.3-1.9-24.2-3.8-35.7-5.6c-11.3,9-22.1,17.5-33.3,26.4c0.6-7.4,1.1-14.3,1.6-21.4
		c-27.9-14.9-54.8-31.4-82.8-46.3c-7.7,7.6-15.2,14.9-22.8,22.3c-15.9-15.7-31.4-31-46.9-46.3c-15.5-15.3-31-30.7-46.5-46.1
		c-15.5-15.3-31-30.7-46.5-46c-15.5-15.3-31-30.7-46.5-46c-15.5-15.3-30.9-30.8-46.5-46C55.5,65.2,40.6,49.4,24.1,35
		c0.3,2.4,0.9,4.5,1.8,6.6c10.4,24.7,20.8,49.4,31.1,74.1c0.9,2.2,1.5,4.6,2.2,6.8c-6.7-7-12.5-14.3-18.5-21.5
		c-6.1-7.3-11.7-15-18.7-21.6c1.9,7.7,5.5,14.6,8.5,21.7c3,7.1,6.1,14.2,9.2,21.4c3,7.1,6,14.3,9,21.4c3,7.2,6.1,14.3,9.2,21.5
		c3,7.1,6.1,14.3,9.1,21.4c3,7.1,6,14.3,9.1,21.4c3.1,7.2,6.5,14.2,9.4,21.4c2.9,7.1,6.6,13.8,8.9,22.3c-12.1-8-22.6-16.1-34.3-23.7
		c1.7,6.5,105,216.3,108.2,220.1c7.3-3.7,14-8.8,21.3-12.6c0.2,0.3,0.4,0.5,0.6,0.8c-3.9,4.6-7.8,9.3-12,14.2
		c3.3,4.5,6.4,8.9,9.7,13.4c-15.2,11.3-25.1,25.6-26,44.9c-0.8,0.4-1.4,0.8-2,0.9c-8.5,1.3-15,5.7-20.4,12.2
		c-7.6,9.2-7.2,21.6,1.4,29.2c0.8,0.7,1.5,1.6,2,2.2c-0.9,2.7-1.9,5-2.5,7.4c-2.4,9.2,2.2,19.7,9,24.1c8.1,5.2,16.8,5.9,25.7,3.4
		c5.3-1.5,10.4-4,15.7-6.1c11.6,17.3,12.3,17.8,33.1,23.5c-0.4,2.7-0.8,5.4-1.2,8.3c-34.3,15.7-68.5,31.3-102.8,47
		c0.3,1.3,0.3,2.3,0.7,3.2c3.7,10.4,7.4,20.8,11.2,31.2c6.8,18.6,13.5,37.3,20.4,55.8c1,2.7,1,5-0.3,7.6c-3,6.1-5.7,12.2-8.6,18.3
		c-9.9,20.9-19.8,41.8-29.7,62.8c-0.5,1-0.7,2.1-1,3c0.6,0.4,0.8,0.7,1.1,0.8c9.3,0.7,18.5,1.5,27.8,2.2c6.8,0.5,13.6,0.8,20.4,1.2
		c5,0.3,9.9,0.7,14.9,1.1c11.2,0.9,22.5,1.9,33.7,2.7c7.9,0.6,15.9,1,24.3,1.5c-1.3,0.9-2.2,1.6-3.1,2.1c-16.4,9-32.9,18-49.3,27
		c-0.9,0.5-1.7,1.2-2.9,2.2c1.2,0.2,1.7,0.4,2.2,0.4c14,0.3,27.9,0.5,41.9,0.8c1.5,0,3,0.2,4.5,0.3c0.7,0.3,1.4,0.9,2.1,0.9
		c14.3,0.1,28.5,0.1,42.8,0c0.7,0,1.4-0.5,2.1-0.8c11.6,0.2,23.1,0.4,34.7,0.7c5.1,0.1,10.3,0.2,15.4,0.3c0.7,0.3,1.4,0.8,2.1,0.8
		c14.6,0.1,29.2,0.1,43.8,0C371.6,887,372.3,886.4,373,886.1z M42.6,95.7c0.1-0.1,0.2-0.2,0.2-0.3c0-0.1-0.2-0.2-0.2-0.3
		c-0.1,0.1-0.2,0.2-0.2,0.3C42.4,95.5,42.5,95.6,42.6,95.7z"/>
	<path class="st0" d="M16.1,18.8c-0.4-0.5-0.9-1.1-1.3-1.6C15.2,17.7,15.6,18.2,16.1,18.8z"/>
	<path class="st0" d="M14.8,17.2c-0.5-0.4-1.1-0.9-1.6-1.3C13.8,16.4,14.3,16.8,14.8,17.2z"/>
	<path class="st0" d="M325,886.1c16,0,32,0,47.9,0c-0.7,0.3-1.4,0.8-2.1,0.8c-14.6,0-29.2,0-43.8,0C326.4,887,325.7,886.4,325,886.1
		z"/>
	<path class="st0" d="M228,885.1c15.6,0,31.3,0,46.9,0c-0.7,0.3-1.4,0.8-2.1,0.8c-14.3,0-28.5,0-42.8,0
		C229.4,886,228.7,885.4,228,885.1z"/>
	<path class="st0" d="M42.6,95.7c-0.1-0.1-0.2-0.2-0.2-0.3c0-0.1,0.2-0.2,0.2-0.3c0.1,0.1,0.2,0.2,0.2,0.3
		C42.8,95.5,42.7,95.6,42.6,95.7z"/>
	<path class="st0" d="M82.4,235.6c0.2,0.4,0.3,0.8,0.7,1.6c-0.8-0.4-1.2-0.5-1.6-0.7C81.8,236.2,82.1,235.9,82.4,235.6z"/>
	<path class="st0" d="M46.2,119.8c4.2,4.9,8.5,9.7,12.6,14.8c7.2,8.9,14.3,17.9,21.5,26.8c0.9,1,2.2,1.7,3.7,2.3
		C72.3,131.7,58.9,100.7,46,68.7c1.4,0.5,2.5,0.5,3.3,1.1c1.4,1.1,2.6,2.6,3.9,3.8c10.4,10.3,20.8,20.7,31.2,31
		c26,25.6,51.9,51.3,77.9,76.9c22.4,22.1,44.8,44.2,67.2,66.3c3.7,3.6,7.3,7.3,10.9,10.9c20.5,20.2,41.1,40.4,61.6,60.6
		c0.6,0.6,1.2,1.1,2.2,2c8-8,15.8-15.8,23.9-23.9c24.7,14,49.2,27.8,73.9,41.7c-0.2,10.6-2.3,21-2,32.6c14.8-11.6,28.9-22.6,43.4-34
		c7,1,14.5,2.1,22.3,3.2c-2.1,7.5-7.3,13.3-9.3,21.5c1.9-0.7,2.9-1,3.8-1.5c15.5-10.5,31-21,46.4-31.4c1-2.4-0.2-3.5-1.9-4.6
		c-5.1-3.3-10.2-6.8-15.2-10.3c-1.2-0.8-2.3-1.9-3.7-3.1c48.3-33.7,96.3-67.2,145.2-101.3c-3.9,16.1-7.5,31.1-11.3,46.6
		c1.5-0.2,2.4-0.1,3.2-0.4c5.7-2.2,11.3-4.7,17-6.8c2.6-1,4.5-2.5,6.1-4.8c9-12.5,18.1-25,27.3-37.5c17.7-5.1,35.4-10.1,53.8-15.4
		c-7.6,15-15.4,29.1-23.1,43.3c-7.9,14.4-15.2,29.1-23.1,43.5c-7.7,14.1-15.1,28.4-22,43.1c10.2-4.8,19.4-11,28.8-16.6
		c9.5-5.7,19-11.4,29.3-17.6c-1.5,12-4.2,22.9-6.3,34.7c2.1-0.2,3.9,0,5.5-0.6c10.2-3.5,20.2-7.3,30.4-10.9
		c6.5-2.3,13.2-4.3,19.7-6.7c1.8-0.6,3.6-1.7,4.9-3.1c3.3-3.7,6.3-7.7,9.4-11.6c5.8-7.4,11.6-14.9,17.5-22.3
		c1.1-1.4,2.3-2.7,2.7-5.3c-21.4,5.5-42.4,10.9-63.8,16.4c9-16.5,17.7-32.5,26.5-48.6c22.2-8.1,44.3-16.3,66.4-24.4
		c17.1-24.7,34.1-49.2,51.7-74.4c1.2,4.7,2.3,8.6,3.2,12.7c2.5,10.4,4.9,20.7,7.3,31.1c0.4,1.9,0.8,3.9,0.8,5.8
		c-0.3,9.5-0.7,18.9-1.1,28.4c-0.3,5.5-0.6,10.9-1,16.3c-0.7,11.9-1.4,23.8-2,35.7c-0.3,5.6-0.6,11.2-1,16.9
		c-0.6,10.7-1.3,21.5-2,32.2c-0.3,5.3-0.7,10.6-1,15.8c-0.3,5.8-0.5,11.6-1,17.4c-0.2,1.9-0.9,4-2,5.5
		c-7.1,10.2-14.3,20.4-21.4,30.5c-0.3,0.4-0.7,0.7-1.6,1.5c-2.4-8.5-3.5-16.9-5.2-25.2c-1.7-8.5-3.5-17.1-5.5-25.6
		c-1.9-8.2-2.8-16.7-6-24.9c-6.6,10.1-11.4,20.9-17,31.3c-5.5,10.4-11,20.8-16.5,31.3c-5.5,10.6-10.9,21.2-16.5,31.7
		c-5.5,10.4-11.1,20.7-17.1,31.9c-30.5,10-61.7,20.3-93.5,30.8c1.9,5.8,3.7,11.3,5.7,17.1c5.6-2.5,11.6-2.6,17.4-1.9
		c11.3,1.3,21.5,5.3,29.5,13.7c4.1,4.3,4.9,9.2,2,14.6c-0.3,0.6-0.5,1.2-0.8,2.2c2.6,0.4,4.9,1,7.3,1.2c6.8,0.7,12.8,3.3,18,7.7
		c4.4,3.7,6.8,8.5,7.2,14.2c0.1,1.5,0,3,0,4.9c1.3,0.2,2.5,0.5,3.8,0.6c10.1,0.7,18.5,4.7,24.7,12.8c6.6,8.7,7,20.4-4.5,28
		c-1.9,1.3-4.1,2.1-6.1,3.2c-0.7,0.4-1.2,1-2.1,1.7c2.2,2.7,4.4,5.2,6.4,7.7c3.4,4.3,5.3,9.2,4.8,14.8c-0.3,3-1.3,5.9-3.3,8.2
		c-4.6,5.3-10.6,8.3-17.5,9.5c-13.2,2.3-24.8-1.2-35.2-9.3c-0.4-0.3-0.9-0.5-1.3-0.6c-0.3-0.1-0.6,0.1-1,0.1
		c-0.8,4.5-1.5,9-2.6,13.5c-2.1,8.7-6.6,16.1-14.4,20.7c-7.1,4.2-15,4.8-22.9,2c-12.1-4.3-19.6-13.1-23.9-24.9
		c-0.1-0.3-0.2-0.6-0.3-0.9c-0.1-0.1-0.2-0.2-0.3-0.3c-1.6-0.7-2.1,0.3-2.6,1.5c-1.7,3.9-3.4,7.9-5.1,12.1
		c-7.4,0.4-14.9,0.9-23.4,1.4c4.5,4.9,9.7,7.1,14.2,10.3c4.6,3.3,9.4,6.2,14.2,9.2c4.8,3,9.6,5.9,14.8,9.1c-1.5,4.4-3,8.7-4.7,13.6
		c-13.3-6.1-25.6-13.4-38.5-19.7c-13-6.3-25.8-13-38.6-19.5c-7.5,2.7-15,5.4-22.8,8.2c-6.4-3.6-11.6-9-18.1-13.6
		c-7.1,3.5-13.3,8.7-20.3,12.8c-4.7-6.1-9.3-12.2-14.1-18.5c-10.4-1.5-20.8-3-31.7-4.6c-13.2,14.8-26.3,29.6-39.6,44.5
		c3.9,6.2,7.7,12.4,11.8,19c-24.2,12.5-48.7,23.4-73.1,35.4c3.2,8.3,6.2,16.1,9.4,24.4c-31.3,15.9-62.6,31.7-93.7,47.6
		c-0.8,2.3,0.7,3.7,1.8,5c7.8,9.3,15.7,18.4,23.5,27.7c11.5,13.7,23,27.5,34.7,41.6c6.8,2.8,14,5.7,22,8.9c-1.8,0.2-2.7,0.4-3.7,0.4
		c-24.3-0.1-48.7,0.6-73-0.4c-22.3-0.9-44.6-0.2-66.9-0.7c-13.8-0.4-27.5-0.8-41.7-1.3c5.1-2.8,10-5.5,14.8-8.1
		c10.9-6,21.8-11.9,32.7-18c1.2-0.7,2.2-1.7,4.3-3.4c-3.9-0.5-6.6-0.9-9.3-1.2c-7.7-0.7-15.5-1.3-23.2-1.9c-4.8-0.4-9.6-0.7-14.4-1
		c-6.9-0.4-13.9-0.7-20.8-1.2c-6.8-0.5-13.5-1.2-20.3-1.8c-0.7-0.1-1.3,0-2-0.1c-7.5-0.4-14.9-0.7-22.4-1.3
		c-7.4-0.5-14.8-1.2-22.9-1.9c0.7-1.9,1.2-3.4,1.9-4.8c7.5-15.9,15.1-31.7,22.6-47.6c4.1-8.7,8-17.4,12.2-26c1-2.1,1.2-4.1,0.4-6.2
		c-5.3-14.7-10.6-29.4-16-44.1c-5-13.8-10.1-27.6-15.2-41.4c-0.2-0.4-0.2-0.9-0.4-1.8c42.8-19.6,85.5-39.2,128.5-58.9
		c1.3-5.9,2.6-11.8,3.8-17.6c-2-1-3-0.3-4,0.5c-8,5.9-16,11.9-24,17.8c-0.5,0.4-1.2,0.6-2.4,1.2c0.3-3.4,0.6-6.4,1-9.9
		c-1.8-0.1-3.4-0.2-5-0.2c-15.7,0.3-27.8-10.3-30.9-25.5c-0.4-1.7-0.8-3.5-1.1-5.2c-2.2,2.1-4.2,4-6.3,5.9
		c-7.5,7.1-16.5,9.6-26.5,8.8c-7.7-0.6-14.2-6.7-14.9-14.2c-0.5-5.6,1.8-10.6,5.5-14.9c0.8-0.9,1.6-1.9,2.5-3
		c-9.8-2.8-11.3-4.3-14-13.1c1-7,4.6-12.2,10.5-16.1c5.7-3.8,12.4-4,19.1-5.3c-0.3-2.1-0.7-3.8-0.9-5.5c-0.8-8.1,1.7-15.4,5.8-22.2
		c5.4-8.8,12.4-16,22.6-20.4c-0.7-1.6-1.1-3.1-2-4.4c-2.8-3.9-5.7-7.7-8.9-11.9c6.3-7.2,12.4-14.1,18.4-21
		c9.8,1.4,18.9,4.4,29.4,5.1c-5.4-9.5-13-16.2-19.1-24.7c-8.1,4-15.2,9-22.6,13.7c-7.4,4.7-14.9,9.3-22.8,14.2
		c-30.7-62.5-61.3-124.7-91.9-186.9c6,2.4,10.8,6.3,15.8,9.8c5.2,3.5,10.2,7.3,15.9,11.4c0-1.7,0.3-2.7,0-3.4
		c-5.1-11.8-10.2-23.7-15.3-35.5c-7.8-17.9-15.6-35.8-23.4-53.7C68,171.5,64,163,60.2,154.4c-4.9-11.4-9.6-22.8-14.4-34.2
		C46,120,46.1,119.9,46.2,119.8z M728.1,421.2c1.3-0.4,2.6-0.7,3.9-1.1c0.4,0.6,0.7,1.3,1.1,1.9c-6.5,3.9-13,7.8-19.6,11.6
		c-9.1,5.4-18.2,10.7-27.3,16.1c-0.9,0.5-1.5,1.4-2.3,2.1c0.2,0.3,0.4,0.7,0.6,1c26.8-10.3,53.3-21.6,80-32.4
		c13.9-23.2,27.7-46.3,41.5-69.4c13.8-23.2,27.6-46.5,41.7-70.4c5.7,20.7,10.3,41,16.9,61c1.2-2,2-3.9,2.2-6
		c0.5-5.9,0.8-11.9,1.1-17.9c0.4-6.5,0.8-12.9,1.2-19.4c0.3-4.5,0.6-8.9,1-13.4c0.6-7.6,1.4-15.2,1.9-22.8
		c0.5-6.3,0.6-12.6,1.1-18.9c0.6-8.9,1.3-17.8,2-26.7c0-0.7,0-1.3,0.1-2c0.6-7.6,1.3-15.2,1.9-22.8c0.1-1.3,0-2.7,0.1-4
		c0.9-10.8,1.9-21.7,2.8-32.7c-1.2,0-1.9,0-2.7,0c-10.8,17-21.5,33.9-32.3,51c-6.5,3.6-13.2,7.3-19.8,11.1
		c-17.5,10-35,20.2-52.4,30.2c-2.8,1.6-5.7,3.1-8.7,6.5c10-1,18.6-2.9,27.3-4.2c8.7-1.4,17.4-3.1,26.5-4.7
		c-3.2,11.2-6.1,21.9-9.2,32.5c-3,10.6-6.1,21.3-9.1,31.7c-3.3-6.4-5-13.6-9.7-20.5c-19,30-37.5,59.2-56,88.4
		c0.3,0.3,0.5,0.6,0.8,0.8c0.8-0.5,1.8-0.9,2.5-1.6c8.3-9.3,16.5-18.6,24.8-27.9c6.6-7.4,13.3-14.8,20-22.2c0.8-0.9,1.9-1.7,3.2-3
		c1.9,5.3,3.7,10,5.5,14.9c-3.1,4.5-4.3,10.2-8.2,14.4c-2.6-2.9-0.7-7.8-4.6-9.7c-5.7,5.8-11.3,11.3-16.7,16.9
		c-5.4,5.7-11.4,10.9-16.6,17.4c3.1,1.4,5.4,0.1,7.7-0.3c3.9-0.7,7.8-1.4,11.7-2.1c0,0-0.1-0.1-0.1-0.1
		c-8.4,6.7-16.7,13.3-25.1,19.9c-8.8,7-17.7,13.9-26.5,20.8c-0.6,0.4-0.8,1.3-1.6,2.7c1.7-0.5,2.5-0.6,3.2-1
		c3.9-2.1,7.8-4.3,11.7-6.4c2.4-1.3,4.9-2.5,7.4-3.8c0.4,0.6,0.8,1.2,1.2,1.9c-5.5,4.3-10.9,8.5-16.4,12.8c-0.7,0.6-1.2,1.5-1.8,2.3
		c0.2,0.3,0.4,0.6,0.6,0.9c2.5-0.7,4.9-1.5,7.4-2.2c0.4-0.2,0.8-0.5,1.2-0.7c0.6-0.1,1.2-0.2,1.8-0.3
		C727.3,421.7,727.7,421.5,728.1,421.2z M675,357L675,357c0.4-1.3,0.6-2.8,1.2-4.1c4.5-9.4,9-18.7,13.5-28.1c0.7-1.4,2-2.8,0.5-4.7
		c-0.6,0.1-1.3,0.1-1.9,0.3c-9.5,3.8-19,7.7-28.6,11.5c-4.6,1.8-9.2,3.4-13.9,5.1l0,0.1c0.2-1.1,0.2-2.3,0.7-3.3
		c4.2-9.5,8.4-19,12.7-28.6c7.4-16.5,14.8-32.9,22.2-49.4c4.3-9.6,8.7-19.3,13-28.9c0.4-0.9,0.3-2.1,0.6-3.8
		c-7.5,1.5-14.3,2.9-21.2,4.3c-9.6,10.4-19,20.6-28.5,30.8c-1.7,1.8-3.4,3.6-5.4,5c-6.1,4.3-12.3,8.4-18.4,12.7
		c-9.3,6.4-18.5,12.8-27.8,19.2c-3.1,2.1-6.2,4.1-9.3,6.2c-0.3-0.2-0.5-0.4-0.8-0.7c3.3-6.9,6.6-13.8,9.9-20.7
		c3.4-7.1,7.1-13.9,10.4-21.4c-1.2-0.1-1.8-0.4-2.1-0.2c-23.9,16.4-47.8,32.7-71.5,49c-2.7,9-5.2,17.5-7.8,26
		c-2.7,8.8-5.5,17.6-8.3,26.5c-0.3,0.8-0.9,1.5-1.5,2.4c-4.7-6.5-9.2-12.5-14-19c-2.2,1.5-4,2.6-5.6,3.9
		c-5.9,4.8-11.8,9.7-17.7,14.5c-9.7,7.8-19.4,15.5-29.1,23.2c-3,2.3-6.1,4.4-9.3,6.5c-0.4,0.3-1.3-0.1-1.8-0.2
		c4.7-10.6,9.3-20.8,14.1-31.6c-3.6-1.4-6.7-2.5-9.7-3.7c-2.8-1.2-5.1-0.6-7.4,1.2c-8.6,6.7-17.3,13.3-26,20c-7.9,6-15.8,12-24,18.3
		c-5.2-2.8-10.4-5.5-15.8-8.4c0.5-2,0.9-3.6,1.4-5.2c1.4-4.4,2.9-8.8,4.2-13.2c0.3-1,0.4-2.2,0.6-3.1c-11.7-8.2-23.1-16.1-34.5-24.1
		c-4.9-3.4-9.8-6.7-14.7-10.2c-1.5-1-2.8-1.9-4.3-0.5c0.3,5.2,0.5,10.3,0.8,16.4c-2.2-1.5-3.6-2.3-4.8-3.3
		c-3.5-3.1-6.9-6.2-10.3-9.3c-8.3-7.6-16.6-15.3-25-22.9c-8.4-7.8-16.9-15.5-25.3-23.3c-11.9-10.9-23.8-21.7-35.6-32.6
		c-8.4-7.7-16.9-15.5-25.3-23.3c-8.2-7.5-16.4-15-24.6-22.6c-12-11-24-22-35.9-33c-10.4-9.6-20.7-19.2-31.1-28.8
		c-1.7-1.5-3.3-3.1-6.9-3.9c7.2,23.1,14.5,45.2,21.4,67.5c6.9,22.2,14.1,44.4,21.1,66.6c7.1,22.3,14.1,44.7,21.2,67.1
		c7.1,22.3,14.2,44.6,21.5,67.4c15.6-4,30.7-7.8,45.8-11.7c0.8,1.1,1.4,1.7,1.8,2.4c8.1,13.5,16.1,27,24.1,40.5
		c1.4,2.4,2.5,4.9,3.8,7.4l0.1-0.1c-9.2-1.2-18.3-2.6-27.5-3.6c-3.7-0.4-7.3-2.1-12.1-1.1c3.4,8.1,7.5,15.5,11.1,23
		c3.8,7.7,7.6,15.5,11.5,23.2c3.8,7.5,7.6,15.1,11.3,22.6c3.8,7.7,7,15.6,11.5,23.2c7.8-3.9,15.2-7.6,22.9-11.5
		c6.2,7.5,12.2,14.9,18.7,22.8c-7.9-2.1-15-4-22.1-6c-1.5-0.4-2.9-0.7-4.1,0.8c-3.4,18.8-6.8,37.5-10.4,57.2c2.3-0.9,3.7-1.2,4.9-2
		c5.5-3.3,11-6.7,16.5-10.1c1-0.6,2.2-0.9,4-1.6c-3.9,9.7-7.1,18.6-10.9,27.5c-8.6-1.3-16.6-2.5-24.3-3.7
		c-31.6,22.8-62.9,45.4-94.2,68.1c0.1,1.1,0.1,2.2,0.4,3.1c1.1,3.3,2.3,6.5,3.4,9.8c4.5,13.3,8.9,26.7,13.4,40
		c3.4,9.9,6.9,19.7,10.3,29.5c0.5,1.4,0.4,2.9,0.6,4c-11.2,13.8-41.5,56.7-42.9,60.8c1.2,0.4,2.3,0.9,3.5,1
		c3.9,0.4,7.9,0.6,11.9,1.1c7.5,0.9,15.1,2,22.6,2.9c7.2,0.9,14.5,1.5,21.7,2.3c3.3,0.3,6.6,0.6,9.9,1.1c7,0.9,14.1,2,21.1,2.8
		c7.1,0.8,14.2,1.3,21.2,2.1c4.4,0.5,8.8,1.3,13.8,2.1c-4.4,2.8-8.1,5.2-11.9,7.6c-9.1,5.7-18.2,11.4-27.3,17.2
		c-0.8,0.5-1.2,1.5-2.4,3c2.8,0,4.4,0,6,0c25.5-0.3,50.9-0.7,76.4-0.9c12.3-0.1,24.7-0.2,37-0.3c1.3,0,2.6-0.2,4.5-0.3
		c-0.7-1.4-0.9-2.5-1.6-3.2c-1-1.1-2.4-1.8-3.4-2.8c-13.4-13.1-26.9-26.2-40.3-39.4c-5-4.9-9.9-9.9-15-14.7
		c-0.7-0.7-1.7-0.9-3.7-1.9c3.3,11.2,7.6,20.8,11.1,31.4c-29.8-10.7-58.9-21-88.4-31.6c9.3-6,18.3-11.8,27-17.3
		c7.3,2.1,13.9,4,20.5,5.9c0.6-0.2,1.1-0.3,1.5-0.4c12.1-4.3,24.2-8.7,36.3-13c9.8-3.5,19.6-6.9,29.4-10.4
		c10.4-3.7,20.9-7.4,31.2-11.2c1.5-0.6,3.8-0.7,3.9-3.7c-9.9-3.6-19.8-7.3-30.3-11.1c6.7-12.2,13.1-24,19.8-36.1
		c2.5,8.6,2.4,17.2,5.1,25.6c1.3-0.5,2.1-0.6,2.8-1c3.6-2,7.3-4,10.9-6c19.3-10.9,38.7-21.7,58-32.6c6.5-3.7,13-7.4,19.4-11.1
		c1.2-0.7,3-1.2,2-3.6c-7.4-2.9-14.9-5.8-23-9c21.5-17.4,42.4-34.2,63.3-51.1c0.4-0.1,0.9-0.2,1.4-0.2c10.7,1,21.4,2.1,32.1,3.2
		c1.4,0.2,2.8,1,4,1.9c4.1,3.2,7.9,6.5,12,9.7c1.5,1.2,3,2.7,5.6,1.7c-0.1-1.1-0.1-2.3-0.4-3.3c-1.2-5-2.5-9.9-3.9-14.9
		c-0.4-1.4-0.8-2.7,0.1-4.4c10.1,6.5,20,12.9,29.8,19.3c1.1,0.7,2.2,1.7,3.8,0.1c-2.1-6.4-6.4-12.2-8.2-19.7c2,1.1,3.3,1.7,4.6,2.4
		c8.1,4.5,16.2,9.1,24.3,13.5c10.1,5.6,20.4,11.1,30.5,16.8c11.9,6.6,23.6,13.4,35.5,20c1,0.6,2.4,0.5,4.6,0.9
		c-1.8-1.9-2.7-3.1-3.8-4c-4-3.2-8.1-6.3-12.2-9.4c-13.2-9.9-26.5-19.8-39.8-29.8c-0.9-0.7-1.6-1.7-3-3.1c6,0.4,11.1,0.8,16.3,1.1
		c5.1,0.3,10.3,0.8,15.4,0.8c5,0,10.1,1.5,15.1,0.7c2.8-8.8,5.3-17.2,8-25.5c4-12.1,8.1-24.1,12-36.2c4-12.2,7.7-24.6,12-36.7
		c1.4-4,1.1-7.2-0.7-10.8c-3.2-6.3-5.9-12.9-9-19.3c-4.5-9.4-9.1-18.8-13.8-28.1c-2-4-4.2-7.8-6.4-11.7c0.8-0.9,1.3-1.6,1.9-2.1
		c9.9-8.6,19.8-17.2,29.6-25.9c7.7-6.8,15.5-13.6,23.2-20.3c3.6-3.1,6.6-6.5,7.8-11.2c0.6-2.2,1.8-4.3,2.6-6.4
		c7.1-17.8,14.2-35.6,21.3-53.4c0.7-1.8,1.5-3.5,2.6-6.1c-2.2,0.3-3.5,0.2-4.6,0.6c-15.2,6-30.3,12.2-45.5,18.1
		C690.2,351.4,682.6,354.1,675,357z M680.2,582.2c2.1-0.1,2.9,0,3.7-0.2c6.4-2.2,12.5-0.7,18.3,1.9c5.2,2.4,9.5,6,12,11.4
		c2.6,5.8,0,12.4-5.7,14.3c-2.2,0.7-4.5,1.2-6.8,1.2c-9.7-0.1-17.6-3.8-23.3-11.9c-0.7-1-1.5-1.9-2.8-3.6c-1.7,5.5-4.9,9.7-4.7,14.7
		c0.8,1.3,1.5,2.3,2.1,3.2c8.7,12.9,20.3,19.9,36.5,18.9c17-1.1,25.7-16.3,23.2-30.2c-0.1-0.8-0.2-1.6-0.4-2.8
		c5.9,4.6,11.5,8.5,18.6,10c5.5,1.2,10.9,1.3,16.3,0.6c6-0.7,11.5-3.1,15.6-7.9c2.7-3.2,3.1-6.8,1.5-10.7c-1.4-3.5-4.1-6-7-8.3
		c-0.8-0.6-1.5-1.4-2.4-2.2c1.5-0.6,2.6-1.1,3.6-1.5c5.7-2.6,9.2-8.3,8.4-14.4c-1.4-11.1-10.7-19.4-20.4-19.8c-2.6-0.1-5.3,0-8.3,0
		c0.7-1.3,1.1-2.4,1.7-3.3c1.7-2.1,2.1-4.4,2.3-7c0.6-6.5-2.2-11.7-6.9-15.8c-6.7-5.9-14.5-9.1-23.6-9c-0.4,0-0.8-0.2-1.4-0.3
		c1-1.3,1.9-2.5,2.6-3.6c0-2.5,0-4.9,0-6.9c-7.5-16.2-34.5-21.2-43.1-13.5c4.1,12.2,8.3,24.5,12.5,36.9
		C695.2,542.2,687.9,561.7,680.2,582.2z M153.4,562.2c0.6,7.5,4.7,10.8,10.3,12.6c5.8,1.9,11.4,0.7,16.9-1.6
		c6.8-2.9,11.4-8.3,16.2-13.8c0.4,1.4,1,2.9,1.1,4.3c0.3,5.9,2.9,10.9,6.2,15.4c5.7,7.8,17.1,13.5,27.6,8.8c1.7-3.1,1.7-6.4,1-10.5
		c-3.5,3-7.1,3-10.9,2.3c-8-4.8-9.8-12.2-8.7-20.7c0.6-4.5,2.9-8.4,7.5-9.7c4.2-1.2,7.7,0.8,10.5,4.2c0.9,1.1,1.8,2.2,3,3.7
		c3.2-2.6,0.6-7.2,4.1-9.7c6.9,1.1,14.2,2.2,22.1,3.4c-0.8-1.8-1.1-3-1.7-3.9c-15.9-21.4-31.8-42.7-47.3-63.6
		c-9.2-2-16.6,0.7-23,5.9c-8.8,7.3-14.4,16.4-13.4,28.3c-3.2,0.2-6.1,0-8.8,0.7c-8.1,2-12.3,8.1-14.8,15.5c-0.6,1.9-0.1,4.3,0.4,6.3
		c1.2,5,5.1,7.2,10.3,8.4C157.1,552.5,153.7,556.9,153.4,562.2z"/>
	<path class="st0" d="M45.8,120.2c-0.2-0.3-0.5-0.6-0.7-0.8c0.1-0.1,0.2-0.2,0.4-0.3c0.2,0.3,0.5,0.5,0.7,0.8
		C46.1,119.9,46,120,45.8,120.2z"/>
	<path class="st0" d="M678,302c-0.1,0.2-0.2,0.5-0.1,0.1C677.6,302.3,677.8,302.2,678,302L678,302z"/>
	<path class="st0" d="M476.1,341.1c-0.3,0.2-0.5,0.5-1.5,1.4c0.5-1.2,0.6-1.6,0.8-1.9C475.7,340.7,475.9,340.9,476.1,341.1z"/>
	<path class="st0" d="M726.9,421.9c-0.6,0.1-1.2,0.2-1.8,0.3c-0.4,0.2-0.8,0.5-1.2,0.7c-2.5,0.7-4.9,1.5-7.4,2.2
		c-0.2-0.3-0.4-0.6-0.6-0.9c0.6-0.8,1.1-1.7,1.8-2.3c5.4-4.3,10.9-8.6,16.4-12.8c4.1-2.1,7.9-4.6,10.8-8.2c0.3-0.2,0.5-0.3,0.1,0
		c0.3-0.5,0.1-0.2,0,0.1c-4.9,0.4-8.2,3.9-12,6.3c-2.5,1.3-4.9,2.5-7.4,3.8c-3.9,2.1-7.8,4.3-11.7,6.4c-0.7,0.4-1.5,0.5-3.2,1
		c0.8-1.4,1.1-2.3,1.6-2.7c8.8-7,17.7-13.9,26.5-20.8c8.4-6.6,16.8-13.3,25.1-19.9c0.2-0.2,0.3-0.3,0.3-0.3c0,0-0.1,0.2-0.2,0.4
		c-3.9,0.7-7.8,1.3-11.7,2.1c-2.4,0.4-4.6,1.7-7.7,0.3c5.2-6.5,11.2-11.7,16.6-17.4c5.4-5.7,11-11.1,16.7-16.9
		c3.9,1.9,2.1,6.8,4.6,9.7c3.8-4.2,5.1-9.9,8.2-14.4c-1.8-4.9-3.5-9.6-5.5-14.9c-1.4,1.2-2.4,2-3.2,3c-6.7,7.4-13.4,14.8-20,22.2
		c-8.3,9.3-16.5,18.6-24.8,27.9c-0.6,0.7-1.6,1.1-2.5,1.6c-0.3-0.3-0.5-0.6-0.8-0.8c18.5-29.2,37-58.4,56-88.4
		c4.7,6.8,6.3,14.1,9.7,20.5c3-10.5,6.1-21.1,9.1-31.7c3-10.6,6-21.2,9.2-32.5c-9.1,1.6-17.7,3.4-26.5,4.7
		c-8.7,1.4-17.3,3.3-27.3,4.2c3-3.5,5.9-4.9,8.7-6.5c17.5-10.1,34.9-20.2,52.4-30.2c6.6-3.8,13.3-7.4,19.8-11.1
		c10.8-17.1,21.5-34,32.3-51c0.7,0,1.5,0,2.7,0c-1,11.1-1.9,21.9-2.8,32.7c-0.1,1.3,0,2.7-0.1,4c-0.6,7.6-1.3,15.2-1.9,22.8
		c-0.1,0.7,0,1.3-0.1,2c-0.7,8.9-1.4,17.8-2,26.7c-0.4,6.3-0.6,12.6-1.1,18.9c-0.6,7.6-1.3,15.2-1.9,22.8c-0.4,4.5-0.7,8.9-1,13.4
		c-0.4,6.5-0.8,12.9-1.2,19.4c-0.4,6-0.6,11.9-1.1,17.9c-0.2,2-1.1,4-2.2,6c-6.5-20-11.2-40.3-16.9-61
		c-14.1,23.8-27.9,47.1-41.7,70.4c-13.8,23.2-27.7,46.3-41.5,69.4c-26.7,10.8-53.2,22.1-80,32.4c-0.2-0.3-0.4-0.7-0.6-1
		c0.8-0.7,1.4-1.6,2.3-2.1c9.1-5.4,18.2-10.7,27.3-16.1c6.5-3.9,13.1-7.8,19.6-11.6c3.8-1.2,7.3-2.9,9.9-6.1
		c0.9-0.1,1.8-0.1,2.6-0.2c-0.1-0.3-0.2-0.6-0.3-0.8c-0.8,0.4-1.6,0.7-2.3,1.1c-4,0.4-7.6,1.9-11,4.1c-1.3,0.4-2.6,0.7-3.9,1.1
		C727.7,421.5,727.3,421.7,726.9,421.9z"/>
	<path class="st0" d="M745,401c-3,3.6-6.7,6.1-10.8,8.2c-0.4-0.6-0.8-1.2-1.2-1.9C736.9,404.9,740.1,401.4,745,401L745,401z"/>
	<path class="st0" d="M743,416c-2.6,3.2-6.1,4.9-9.9,6.1c-0.4-0.6-0.7-1.3-1.1-1.9C735.4,417.9,739,416.4,743,416L743,416z"/>
	<path class="st0" d="M723.9,422.9c0.4-0.2,0.8-0.5,1.2-0.7C724.7,422.5,724.3,422.7,723.9,422.9z"/>
	<path class="st0" d="M726.9,421.9c0.4-0.2,0.8-0.4,1.2-0.7C727.7,421.5,727.3,421.7,726.9,421.9z"/>
	<path class="st0" d="M273,764.9c-5.8,2.7-11.6,5.3-17.3,8.2c-4.7,2.4-9.1,5.5-14,7.4c-3.7,1.4-8.1,1.9-12-1.2
		c3.5-5.3,10.4-7.3,12.6-13.4c-2.3-1.7-3.7-0.2-4.9,0.6c-4.8,2.8-9.4,5.8-14.1,8.8c-3.7,2.5-7.3,2.6-10.9-0.4
		c1.5-4.2,4.4-7.9,4.6-12.7c-4.9,2.7-6.5,8.7-11.6,10.8c-2-2-2.8-4.2-2.3-6.9c0.5-0.1,1-0.2,1.5-0.3c3.4-10.1,7.9-19.7,11-30.7
		c0,0-0.2-0.9-0.5-2.7c-0.8,1.5-1.4,2.4-2.2,4c-2.3,1.6-2.3,1.6-2.7,4.8c-2.6,3.3-5.1,6.7-7.9,10.2c-0.8-0.6-1.6-0.9-1.7-1.4
		c-0.9-3.9-1.6-7.9-2.4-11.8c1.5-1.5,0.8-3.2,0.4-4.9c-0.5-2.2-1.1-4.4-1.5-6.6c-0.9-5.1-1.7-10.2-2.6-15.2c0-0.1-0.3-0.2-0.4-0.3
		c-2-3.8-2.2-7.9-2.1-12.1c0-0.3,0-0.6,0-0.8c0-0.4,0-0.7,0-1.1c0-0.3,0-0.5,0-0.8c0.1-0.4,0.1-0.7,0.2-1.1c1.4,0,1.9-0.7,1.8-2.1
		c0.2-0.3,0.5-0.7,0.7-1c0.4-0.3,0.9-0.7,1.3-1c0,0,0,0,0,0c0.3-0.3,0.7-0.7,1-1c0,0,0,0,0,0c0.3-0.3,0.7-0.7,1-1c0,0,0,0,0,0
		c0.3-0.3,0.7-0.7,1-1c0,0,0,0,0,0c0.3-0.3,0.7-0.7,1-1c0,0,0,0,0,0c0.3-0.3,0.7-0.7,1-1c0,0,0,0,0,0c0.3-0.3,0.7-0.7,1-1
		c0,0,0,0,0,0c0.3-0.3,0.7-0.7,1-1l0,0c0.3-0.3,0.7-0.7,1-1l0,0c0.3-0.3,0.7-0.7,1-1l0,0c0.3-0.3,0.7-0.7,1-1l0,0
		c0.3-0.3,0.7-0.7,1-1c0,0,0,0,0,0c0.3-0.3,0.7-0.7,1-1c0,0,0,0,0,0c0.3-0.3,0.7-0.7,1-1c0,0,0,0,0,0c0.3-0.3,0.7-0.7,1-1l0,0
		c0.3-0.3,0.7-0.7,1-1c0,0,0,0,0,0c0.3-0.3,0.7-0.7,1-1l0,0c0.3-0.3,0.7-0.7,1-1c0,0,0,0,0,0c0.3-0.3,0.7-0.7,1-1c0,0,0,0,0,0
		c0.3-0.3,0.7-0.7,1-1l0,0c0.6-0.1,1.2-0.2,1.9-0.3c0.1-0.8,0.1-1.4,0.1-2c0.6-0.6,1.1-1.2,1.7-1.7c0.4-0.3,0.9-0.7,1.3-1
		c0,0,0,0,0,0c0.3-0.3,0.7-0.7,1-1c0,0,0,0,0,0c0.3-0.3,0.7-0.7,1-1c0,0,0,0,0,0c0.3-0.3,0.7-0.7,1-1c0,0,0,0,0,0
		c0.3-0.3,0.7-0.7,1-1c0,0,0,0,0,0c0.3-0.3,0.7-0.7,1-1l0,0c0.3-0.3,0.7-0.7,1-1l0,0c0.3-0.3,0.7-0.7,1-1l0,0c0.3-0.3,0.7-0.7,1-1
		c0,0,0,0,0,0c0.3-0.3,0.7-0.7,1-1c0,0,0,0,0,0c0.3-0.3,0.7-0.7,1-1c0,0,0,0,0,0c0.3-0.3,0.7-0.7,1-1c0,0,0,0,0,0
		c0.3-0.3,0.7-0.7,1-1c0,0,0,0,0,0c0.3-0.3,0.7-0.7,1-1c0,0,0,0,0,0c0.3-0.3,0.7-0.7,1-1c0,0,0,0,0,0c0.3-0.3,0.7-0.7,1-1
		c0,0,0,0,0,0c0.3-0.3,0.7-0.7,1-1c0,0,0,0,0,0c0.3-0.3,0.7-0.7,1-1c0,0,0,0,0,0c0.3-0.3,0.7-0.7,1-1c0,0,0,0,0,0
		c0.3-0.3,0.7-0.7,1-1c0,0,0,0,0,0c0.3-0.3,0.7-0.7,1-1c0,0,0,0,0,0c0.3-0.4,0.7-0.7,1-1.1c0,0,0,0,0,0c0.3-0.3,0.7-0.7,1-1
		c0,0,0,0,0,0c0.3-0.3,0.7-0.7,1-1c0,0,0,0,0,0c0.3-0.3,0.7-0.7,1-1c0,0,0,0,0,0c0.3-0.3,0.7-0.7,1-1c0,0,0,0,0,0
		c0.3-0.3,0.7-0.7,1-1c0,0,0,0,0,0c0.3-0.3,0.7-0.7,1-1c0,0,0,0,0,0c0.3-0.3,0.7-0.7,1-1c0,0,0,0,0,0c0.3-0.3,0.7-0.7,1-1
		c0,0,0,0,0,0c0.3-0.3,0.7-0.7,1-1c0,0,0,0,0,0c0.3-0.3,0.7-0.7,1-1c0,0,0,0,0,0c0.3-0.3,0.7-0.7,1-1c0,0,0,0,0,0
		c0.4-0.3,0.7-0.7,1.1-1c0,0,0,0,0,0c2-0.3,4.3,0.9,6-1c5.3-0.8,10.6-1.5,15.9-2.5c3.4-0.6,6.8-1.6,10.2-2.4
		c1.9-0.1,3.8-0.1,5.8-0.2c0.1-1.3,0.1-2.1,0.1-2.9c0,0,0,0,0,0c2.5,0.2,2.1-1.5,2-3.1l0,0c0.3-0.7,0.7-1.3,1-2l0,0
		c2.2-1,3.4-2.5,3-5.1l0,0c0.3-0.3,0.7-0.7,1-1c2.2-4.3,4.2-8.7,6.6-12.9c3.7-6.6,7.7-13.1,11.4-19.7c3.6-6.3,7-12.7,10.5-19.1
		c0.9-1.7,1.8-3.4,2.6-4.9c-1-3-2-5.8-2.9-8.5c0.3-0.6,0.5-1.2,0.7-1.6c-2.4-6.7-5-13.1-7.2-20.4c3.7,0.5,6.6,0.8,9.5,1.2
		c4.1,0.7,8.3,1.4,12.4,2.2c5.1,0.9,10.2,1.9,15.2,2.9c5.4,1.1,10.8,2.7,16.3,3.4c4.1,0.5,7.9,2.8,12.3,2c5.6,2.7,12,2.4,17.8,4.1
		c2.5,0.7,5.1,1,7.6,1.6c0.7,0.2,1.4,0.7,2.5,1.4c-2.7,6-5.4,11.8-7.8,17.7c-1.8,4.5-3.1,9.1-4.7,13.7c-2.8,0.4-1.6,2.6-1.8,4.2l0,0
		c-0.6,0.5-1.5,0.9-1.8,1.5c-0.9,2.1-1.6,4.2-2.3,6.4c-1.2,3.5-3.5,5.8-7,7c-2,0.7-4,1.4-5.9,2.1c-3.8,1.5-7.5,3.1-11.3,4.6
		c-1.2,0.5-2,1.1-1.7,2.5c3,2.5,5.9,5.1,9.1,7.3c12.4,8.9,24.8,17.6,37.2,26.4c1.5,1,3,2,4.4,3.1c1.2,2.7,3.2,4.2,6.2,4l0,0
		c-0.2,2.5,1.5,2.1,3,2.1c0,0,0,0,0,0c0.3,0.3,0.7,0.7,1,1c0,0,0,0,0,0c0,0.8-0.1,1.6-0.1,2.4c-0.2-0.1-0.4-0.2-0.6-0.3
		c-0.8,1.3-1.5,2.6-2.3,3.9c0,0,0,0,0,0c-0.4,0.3-0.7,0.7-1.1,1l0,0c-1.5,0-3.2-0.4-3,2.1l0,0c-1.6-0.3-2.6,0.5-3,2l0,0
		c-1.5-0.2-2.2,0.4-2.1,2l0,0c-3.3,0.3-4,0.8-5.1,4l0,0c-1.5,0-3.2-0.3-3,2.1l0,0c-2.2-0.2-3.9,0.2-4,2.9
		c-13.9,10.6-27.8,21.3-42.2,32.3c-0.7-1.3-1.8-2.5-1.8-3.7c0-7.9-2.9-15.5-2.1-23.5c0.3-2.8-0.7-5.8-1-8.7c-0.5-4.5-0.8-9-1.3-13.4
		c-0.4-3.2-1-6.3-1.4-9.4c-0.4-3.6-0.7-7.2-0.9-10.7c-0.3-4.1-0.2-8.2-1.2-12.3c-0.5-2.2,0-4.6-0.2-7c-0.1-1,0-3.2-2.2-1.5
		c-0.6,0.5-1.4,0.8-1.6,1.4c-0.9,2.1-1.6,4.2-2.4,6.4c-3,8.2-6,16.4-8.9,24.7c-0.3,0.8,0,1.7,0.1,2.6c0,0.2,0,0.4-0.1,0.5
		c-3,4.7-2.7,9.4-1.1,14.7c2.1,6.5,4.4,13,5.3,19.9c0.2,1.4,1,2.6,1.6,4c-0.2,0.4-0.7,1-0.6,1.2c1.5,2.3,0.7,4.3-0.3,6.5
		c-1.8,4-3.5,8-5.1,12.1c-0.5,1.3-0.5,2.8-0.7,4.3l0,0c-2.8,1.5-3.2,4.1-3,7c-3.7,8.3-7.4,16.7-11,25c-0.1,0.1-0.1,0.3-0.2,0.5
		c-1.6,7.1-7,10.4-12.9,13.6c-7.4,4.1-14.5,8.9-21.8,13.2c-5.2,3-10.5,5.8-15.8,8.7c-3.8,2.1-7.6,4.4-11.4,6.6
		c-2.9,1.7-5.9,1.9-8.8,0.4c-1.1-0.5-2-1.5-3.4-2.6c7-4.4,13.6-8.6,20.2-12.8c1.8-1.1,3.4-2.4,5.1-3.6c1.1-0.4,2.3-0.5,3.2-1.1
		c3.8-2.5,7.6-5.2,11.5-7.9c-0.4-0.5-0.8-1-0.9-1.1c-2.9,1.3-5.7,2.3-8.3,3.6C278,761.8,275.5,763.4,273,764.9z M237.8,678.9
		c-0.3,0.4-0.6,0.7-0.9,1.1l0,0c-2.6,0.2-2.6,2.3-3,4.1c0,0,0,0,0,0c-0.7,1.1-1.7,2-1.9,3.2c-0.6,2.9-0.8,5.8-1.1,8.7
		c-0.8,6.3-1.6,12.7-2.4,19c0,1.3,0.4,2.7-0.1,3.8c-1.8,4.8-2.1,9.7-1.2,15.3c8.7,5,17.7,10.2,26.8,15.4c3.3-2,6.1-3.6,8.9-5.4
		c10.8-6.6,21.7-13.2,32.5-19.9c1.3-0.8,2.8-2,3.4-3.3c4-9.5,7.9-19,11.6-28.6c1.4-3.6,3.7-7.2,2.5-11.4c-1.4-4.7-3-9.3-4.7-13.9
		c-1.7-4.7-3.3-9.5-5.3-14.1c-1.5-3.5-1.3-7.9-4.8-10.9c-1.5,0.2-3.2,0.2-4.8,0.6c-2.2,0.4-4.4,1.1-6.7,1.6c-4,0.9-8,1.9-12,2.8
		c-1.9,0.4-3.8,0.8-5.7,1.3c-4.4,1.1-8.9,1.8-11.7,6.3c-2.4,3.7-5.4,7-8.2,10.5c-3.3,4.1-6.6,8.1-10,12.1
		C238.7,677.6,238.3,678.2,237.8,678.9L237.8,678.9z M352.9,587c5.2-1.1,9.6-1.8,13.9-3.1c2.8-0.8,6.5-1.2,7.8-4.4
		c2-4.9,3.5-10,5.3-15.3c-6.3-0.7-12-3.8-18.3-2.6C359.2,570.4,354.5,577.9,352.9,587z"/>
	<path class="st0" d="M281.8,333.1c1,0.7,2,1.3,3,2c0.4,2.4,1.9,3.2,4.2,2.9l0,0c0.9,3.2,1.6,3.7,5,4l0,0c0.9,3.2,1.6,3.7,5,4l0,0
		c1,3.2,1.6,3.7,5,4l0,0c0.1,0.6,0.1,1.5,0.5,1.8c1.8,1.7,3.7,3.3,5.7,4.7c0.7,0.5,1.9,0.4,2.8,0.5l0,0c-0.3,1.4,0.4,2.1,1.8,2.1
		c5,3.7,9.9,7.3,14.8,11c1.2,0.9,2.1,2.1,3.1,3.1c0.4,2.4,2,3.2,4.2,2.8l0,0c0.9,3.2,1.6,3.7,5,4l0,0c0.1,2.7,1.7,3.3,4,3l0,0
		c0.1,3.2,2.4,3.9,4.9,4.3c2.3,1,3.7,2.8,3.9,5.1c0.4,3.5,0.5,7.1,0.7,10.6c0.1,1.1,0.3,2.1,0.4,3.2c0.8,4.6,1.6,9.3,2.3,13.9
		c-1.1,0.6-1.7,1-2.9,1.7c-7.6-2.9-15.5-5.9-23.5-8.9c-0.4-0.6-0.7-1.5-1.2-1.7c-9.4-3.7-18.9-7.3-28.3-10.8
		c-0.3-0.1-0.9,0.6-1.4,0.9c-1.7,0.8-1,2.2-0.7,3.4c3.4,12.2,7,24.3,10.3,36.5c1.7,6.2,2.9,12.6,4.5,18.8c0.7,2.5,1.5,4.9,2.2,7.4
		c2.1,8.2,4.9,16.1,7.4,24.2c0.4,1.4,0.3,2.9,0.5,4.6c2.8,4.5,3.2,9.9,4.7,15c-2.6,1.8,1.6,3.9-0.9,6.3c-9.4-2-19.2-4.4-29.1-7
		c-0.8,0.2-1.7,0.4-2.7,0.7c-6.1-1.4-12.3-2.7-18.4-4.1c-0.6-0.1-1.2-0.6-1.8-0.9c-0.1-0.5,0-1.1-0.3-1.4
		c-4.2-4.9-7.8-10.3-11.1-15.9c-0.2-0.4-1.1-0.4-1.7-0.6l0,0c-0.1-0.9-0.2-1.9-0.2-2.8c-0.8-0.1-1.3-0.1-1.8-0.2l0,0
		c0.2-1.4-0.3-2.1-1.8-2.1c-0.1-0.3-0.1-0.6-0.2-1c-0.5-3.6-1.9-5.7-4.9-7.1c-0.1-0.3-0.1-0.6-0.2-0.8c0.2-1.4-0.4-2.2-1.8-2.2
		c-0.4-0.7-0.7-1.3-1.1-2c-0.1-0.9-0.2-1.8-0.3-2.7c-0.7-0.1-1.2-0.2-1.7-0.2c0,0,0,0,0,0c0.2-0.7,0.4-1.4,0.7-2.2
		c5,1.7,9.7,3.4,14.3,5c1.4,0.1,2.7,0.1,4.1,0.2l0,0c1.1,0.9,2.1,2,3.3,2.6c4.5,1.9,9,3.6,13.6,5.3c0.5,0.2,1.2-0.1,2.3-0.2
		c-1.1-2.5-1.9-4.8-3-6.9c-0.4-0.7-1.3-1.1-2-1.7c-0.1-0.3-0.2-0.6-0.2-1c0.1-2.3-0.1-4.3-2.8-5c-1.1-2.6-2.3-5.1-3.4-7.7
		c-0.4-1-0.6-2.1-0.8-3.2c-0.5-3.6-1.3-7.1-4.8-9.1c-0.4-1-0.8-2-1.2-2.9c-0.4-1.7-0.4-3.6-1.1-5.2c-2.2-5.1-4.5-10.2-7.1-15.1
		c-0.7-1.4-1.1-3.6-3.5-3.7c-3.2-6.7-6.5-13.4-9.7-20.1c-0.5-1-0.7-2.1-1.2-3.5c-4.4-1.2-8.9-2.3-13.3-3.5c-0.1-0.5-0.2-1-0.3-1.4
		c-6-1.7-11.9-3.3-17.8-5c-2.6-0.7-5.2-1.5-7.9-0.6c-3.7-1-7.4-2.1-11.1-3.1c-0.1-0.5-0.1-1.3-0.3-1.3c-2.4-0.5-3.3-2.1-3.7-4.4
		c-0.4-2-1.2-4-2-6c-1.2-3.1-2.5-6.2-3.8-9.3c0-0.5,0.1-1-0.1-1.5c-1.7-5.4-3.3-10.9-5.1-16.3c-0.3-0.8-1.2-1.5-1.8-2.2
		c-0.7-1.8-1.5-3.6-1.9-5.5c-1.3-5.8-4.3-11.1-5.7-16.8c-1.4-5.5-3.5-10.7-4.7-16.3c-1-4.6-3.1-9-4.7-13.5c0.7-1.3,0.8-2.5,0.2-4.2
		c-2.9-8-5.6-16-8.3-24c-2.5-7.4-4.7-14.9-7.2-22.4c-0.2-0.5-1.1-0.8-1.7-1.2c-0.3-3-3.1-5.5-1.6-9.1c11.5,6.9,21.1,16.1,31.5,24.2
		c0.1,0.7-0.2,1.8,1.2,1.5l0.1,0.1c-0.2,1.5,0.8,1.1,1.6,1.1l0.2,0.2c0.1,0.6,0.1,1.2,0.2,1.9c1,0,1.8,0,2.6,0
		c0.9,0.7,1.9,1.4,2.8,2.2c0.7,1.1,1.2,2.4,2.1,3.2c4.4,3.6,8.9,7.1,13.5,10.5c1,0.7,2.4,0.8,3.6,1.2l0,0c0.9,3.2,1.6,3.7,5,4l0,0
		c1.1,2.7,5.6,6.7,9.1,8c0.2,0,0.4,0.1,0.6,0.1c2,3.8,5,6.2,9.3,6.9l0,0c0,2.7,1.7,3.3,4,3l0,0c0.9,3.2,1.6,3.7,5,4l0,0
		c-0.2,1.4,0.4,2.1,1.8,2.1c6,4.7,12,9.3,17.9,14c0.4,2.4,1.9,3.3,4.3,2.9l0,0c0.9,3.2,1.6,3.7,5,4l0,0c-0.3,2.3,1.7,3.1,2.9,4.3
		c1.3,1.3,2.7,2.5,4.3,3.3C276.4,329,278,332.7,281.8,333.1z"/>
	<path class="st0" d="M548.2,425.1c0.9-3.2,1.8-6.4,3-10.5c-18.2,6.7-35.7,13.1-53.3,19.5c-0.6-0.5-1.1-0.9-1.6-1.3
		c2.6-6.7,5.2-13.2,7.8-19.8c1.9,0.3,2-1.5,2.5-2.5c1.4-3.1,2.6-6.3,3.8-9.5c1.9-5,3.7-10,5.5-15c1.7-4.5,3.3-9.1,5-13.6
		c3.4-8.6,6.8-17.2,10.1-25.6c18.9-11.8,37.7-23.4,56.4-35c0.8-0.5,1.6-1.2,2.3-1.8c4.1,0.3,6.8-2.7,9.9-4.6
		c0.3-0.2,0.2-0.9,0.2-1.4l0,0c1.5,0.1,3.2,0.4,3-2l0,0c1.5,0.1,3.2,0.4,3.1-2l0,0c2.4,0.2,4.4-0.3,5-3l0,0c2.5,0.4,4-0.9,5-3l0,0
		c1.5,0.1,3.2,0.4,3-2c0,0,0,0,0,0c0.7-0.3,1.3-0.7,2-1c0,0,0,0,0,0c0.5-0.3,0.9-0.7,1.4-1l0.2,0c2,0,3.8-0.4,4.5-2.6
		c10.9-7.1,21.9-14,33.3-20.5c1.4,3.2-0.1,5.5-1.3,7.8c-2.6,5.4-5.8,10.6-7.9,16.2c-2.1,5.9-5.3,11.3-7.4,17.2
		c-0.8,1-1.8,1.9-2.3,3.1c-2.7,5.8-5.4,11.6-7.7,17.6c-1.1,2.8-3.3,5.4-2.8,8.8l0,0.2c-2.8,0.7-2.4,3.3-3,5.3c0,0-0.1,0.1-0.1,0.1
		c-0.6,0.2-1.2,0.5-1.8,0.7c-2.4,1-4.7,2-7.7,3.2c-0.6,0-1.9,0-3.3,0c0,0.2,0.1,0.4,0.1,0.7c-4.5,1.1-9.2,1.8-13.5,3.4
		c-7.7,2.9-15.9,4.4-23.6,7.2c-1.9,0.7-3.9,1.4-5.7,2.6c-1.5,0-3,0-4.4,0c-0.9,0.7-1.7,1.2-2.6,2c-1.3,0-2.8,0-3.1,0
		c-4.7,1.7-8.4,2.9-11.7,4.1c-3.9,7.7-7.8,15-11.3,22.5c-1,2.2-2.4,4.8-0.6,7.8c6.7-3.4,13.3-6.9,20-10.3c0.8,0,1.8,0.3,2.4-0.1
		c4.8-2.3,9.6-4.8,14.4-7.3c0.3-0.2,0.4-0.9,0.5-1.3c4.3-2.1,8.6-4.3,12.9-6.4c0.6,0.7,1.3,1.3,2,2.2c-1.6,4.1-3.3,8.3-4.8,12.6
		c-0.9,2.4-1.5,4.9-2.2,7.4c-2.4,6.2-4.7,12.3-7.1,18.5c-1,2.7-2.7,5.3-2,8.4c-2,4.6-4.4,9-5.3,14c-0.7,0.8-1.8,1.4-2.2,2.3
		c-2.3,6-4.4,12-6.5,18c-0.4,1.2-0.5,2.5-0.8,3.8c-1.4,4.1-2.7,8.3-4.2,12.8c-3,1-6.3,2-9.4,3.2c-4.5,1.7-9,3.4-13.3,5.4
		c-2.1,1-4.3,0.4-6.4,2c-2.3,1.7-5.7,1.8-8.7,2.7c-3.2,1-6.5,1.9-9.7,3c-8.6,3-17.1,6.1-25.7,8.9c-1.2,0.4-1.6,0.8-1.7,1.9
		c-2.1,0.7-4.2,1.4-6.3,2.1c-2.9,1-5.7,2-8.6,3c-2.9,0.6-5.8,1.2-9.2,2c0.3-1.3,0.4-2.2,0.6-3.1c0.8-2.6,1.6-5.2,2.4-7.8
		c0.8-2.6,1.4-5.3,2.5-7.8c3.5-7.7,6.7-15.4,9.7-23.3c2.3,0,2.2-2.1,2.9-3.5c1.6-3.2,1.9-7,4.7-9.6c7.3,0,14.4,0,21.6,0
		c0.6,0.1,1.2,0.1,1.8,0.2c0.9,0.3,1.8,0.7,2.6,0.7c5.5,0.1,11,0.1,16.5,0.1c5.5,0,10.9,0,16.9,0c1.1-3,2.2-5.8,3.2-8.7
		c1.9-5.7,3.8-11.5,5.7-17.2c0,0,0.1-0.1,0.1-0.1c0.2-0.1,0.5-0.3,0.7-0.4C548.6,425.4,548.4,425.2,548.2,425.1z"/>
	<path class="st0" d="M602.2,593.1c-0.2-5.9-2.3-11.4-3.4-17.1c-0.9-4.7-1.9-9.3-2.9-14c-0.6-3-1.3-6-1.9-8.9
		c0.2-0.8,0.8-1.8,0.7-2.5c-0.4-2.6-1.2-5-1.7-7.6c-1.6-7.8-3.3-15.6-4.8-23.4c-0.9-4.8-1.7-9.6-2.5-14.4c0.2,0,0.4,0,0.6,0
		c0.6-2,1.1-4.1,1.7-6.1c1.7-1,0.8-2.7,1-4.1l0,0.1c0.6-0.5,1.5-0.9,1.7-1.6c1.9-4.9,3.7-9.7,5.3-14.7c0.5-1.5,0.7-3.1,1-4.7
		c1.2-2.6,2.5-5.2,3.6-7.5c13.1-3.4,25.8-6.7,38.4-10c0,0.2,0.1,0.3,0.1,0.5c0.9-0.7,1.9-1.3,2.6-1.8c2.1,0,3.9,0,5.9,0
		c1.7,2.4,3,4.8,3.4,7.8c0.4,2.8,2,5.4,2.8,8.2c3.4,11,6.6,22,10.1,32.9c0.9,2.9,1.1,6.1,2.9,8.9c0.5,0.7,0.1,1.9,0.1,2.9
		c0.1,1,0.1,2,0.4,2.9c1.8,6.1,4.8,12.1,2.6,18.8c0,0.1,0,0.3,0,0.5l0,0c-0.4,0.4-1,0.8-1.2,1.3c-2.7,7.8-5.3,15.6-7.8,23.4
		c-0.4,1.3-0.1,2.7-0.1,4.1c-3.7,10.4-7.3,20.9-11,31.3c-1.2,2.3-2.4,4.5-3.7,7c-1.5-0.2-2.9-0.4-4.3-0.7c-4.9-1-9.7-2.7-14.8-2.6
		c-4.4-2.6-9.5-2.7-14.3-3.8c-6-1.4-6.1-1-10-5C602.6,593,602.4,593.1,602.2,593.1z M600.2,502c-0.4,0.8-1.2,1.5-1.2,2.3
		c-0.1,8.7-0.1,17.3,0.1,26c0,1.6,1.1,3.3,1.7,4.9c0,3.9,0,7.8,0,12.8c7,7.2,14.8,15.2,22.7,23.3c9.3-13.5,18.3-26.8,27.7-40.4
		c-0.7-2.8-1.5-5.8-2.1-8.8c-0.8-4-1.2-8.1-2.4-12.1c-2-6.6-3.6-13.2-4.9-20c-0.4-2.3-0.3-5.5-3.2-6.6c-8.2-0.8-16.2-1.5-24.3-2.3
		C609.5,488.1,604.9,495,600.2,502z"/>
	<path class="st0" d="M410.2,435.1c0.7-1.8,1.9-3.2,2-5.4c0.1-3.6,2.9-5.8,5.7-7.7c7.9-5.3,15.9-10.5,23.7-15.9
		c12.1-8.3,24.1-16.8,36.1-25.2c5.6-3.9,11.3-7.8,17-11.6c1.6,1,1.5,2.3,0.9,3.9c-1.6,4.1-3,8.2-4.7,12.3c-2.2,5.5-4.7,10.9-6,16.7
		c-0.2,1-1.3,1.9-1.9,2.8c-0.3,1-0.6,2-0.9,3.1c0,0,0,0,0,0c-0.7,1.2-1.5,2.4-2,3.7c-3.5,9.1-7,18.3-10.5,27.4
		c-0.3,0.9-0.4,1.9-0.6,2.9c0,0,0,0,0,0c-1.3,0-2.7-0.2-3.9,0.2c-4.7,1.3-9.3,2.8-13.9,4.4c-1.2,0.4-2.1,1.4-3.2,2.2
		c-1.5,0.3-2.7,1.1-2.9,2.8c-0.4,3.2-0.8,6.3-1.2,9.5c-2.3,4.9-2.1,10.3-2.9,15.5c-0.3,2.1,0.1,4.3-0.5,6.3
		c-0.5,1.9-0.6,3.5,0.3,5.1c0.2,0.4,0,1,0,1.4c-0.7,0.6-1.2,1.1-2,1.7c0.5,0.4,0.8,0.7,1.2,0.9c-0.5,5.9-0.9,11.7-1.4,17.9
		c-1,0.7-2.2,1.5-3.6,2.4c-10.2-1.3-20.6-2.5-30.9-3.8c-0.4,0-0.7-0.7-1.2-1.3c4.1-14.8,11.7-28.5,16.1-44.6
		c-4.1,2.1-7.1,3.6-10.1,5.2c-4.1-0.4-6.6,3.6-10.7,4.1c-0.1-1.1-0.2-2-0.3-2.9c2.7-7,5.5-14,8.2-21c1.5-4,2.6-8,4-12l0,0
		c0.3-0.1,0.5-0.2,0.8-0.4C410.6,435.4,410.4,435.3,410.2,435.1z"/>
	<path class="st0" d="M445.1,598c-0.5-1.7-0.9-3.4-1.4-5.3c-4.9,1.9-9.3,3.7-13.5,5.3c1,14.4,5.9,27.7,7.3,42.2
		c-6-1.3-9.2-5.5-13.4-8c-4.3-2.6-8.1-5.9-12.1-9c-4-3.1-8-6.2-11.8-9.2c3.4-10.5,6.7-20.4,10-30.3c2.8-8.8,5.4-17.6,8.4-26.3
		c1-3,0.4-5.5-0.3-8.2c-1.4-5.4-2.8-10.7-4.2-16.3c3.9-3.1,8.7-3.6,13.1-4.9c6.2-1.8,12.4-3.4,18.7-5c2.8-0.7,5.7-1,8.4-1.4
		c1.6,6,3.2,11.3,4.5,16.7c0.9,3.8,1.5,7.7,2.4,11.6c0.6,3,1.4,6,2.1,8.9c2.1,8.7,4.3,17.4,6.4,26.1c0.1,0.3,0.2,0.6,0.3,0.9
		c-1.6,1.2-0.7,2.6-0.4,4c0.5,2,1,4.1,1.5,6.1c1.3,5,2.5,9.9,3.8,14.9c0.7,1.6,1.3,3.2,2.1,5c-0.4,0.8-0.8,1.7-1.3,2.6
		c-1.6,0.9-3.1,1.7-4.6,2.5c-1.8,0.4-4,0.2-4,3l0,0c-1.5-0.1-3.2-0.5-3,2l0,0c-2.5-0.4-4,0.9-5,3l0,0c-2.5,0.7-4.9,1.4-7.4,2.1
		c-0.5-0.8-1.1-1.5-1.2-2.3c-1.3-10.2-2.6-20.3-3.8-30.5C446,598.2,445.6,598.1,445.1,598z M442.9,575.2c0-6.6,0.1-12.8-0.1-19.1
		c0-0.7-1-1.5-1.6-2.4c-3.6,2.7-6.9,5.2-9.9,7.5c-1,10.9-0.7,14.7,1.2,17.4C435.8,577.5,439,576.5,442.9,575.2z"/>
	<path class="st0" d="M357.1,473.1c-0.6,0.8-1.3,1.5-2.3,2.7c0.4,2.7,0.8,5.9,1.3,9.3c10.3-2.2,18.3-9.4,29.1-10.4
		c-0.9,3.8-1.6,6.9-2.3,10.1c-0.6,0.6-1.5,1-1.8,1.7c-0.3,1-0.2,2.2-0.2,3.3l0,0c-5,1.3-10.1,2.5-15.1,3.8c-0.4,0.1-0.6,0.7-0.9,1.1
		c-1.6,0.6-3.2,1.2-4.7,1.8c0,2.4,0,4.2,0,6.6c1.6,0.2,3.1,0.5,4.7,0.7c0.7,0.3,1.4,1,2,0.9c4.1-0.4,8.1-1,12.2-1.5
		c1.6-0.2,3.1-0.3,4.3-0.4c0.7,1.8,1.1,2.9,1.6,4.1c-1.6,5.9-3.1,11.7-4.7,17.7c-2.6,1.4-5.4,1.4-8.6,0.4c-3-1-6.5-0.6-9.7-1.1
		c-3-0.5-5.9-1.4-8.8-2.2c-1.3-3.9-2.7-7.7-4-11.6c-3.4-10.2-6.7-20.5-10.2-30.7c-0.3-1-1.3-1.7-2-2.6l0,0c0.5-4.5-2.1-8.2-3.2-12.2
		c-0.1-0.4-1.1-0.5-1.6-0.8c-1.3-4-2.6-8-4-12.4c1.3-2.5,4.1-4,6.8-5.6c6.8-4.2,13.7-8.1,20.5-12.3c3.9-2.4,7.5-5.3,11.4-7.7
		c7.6-4.7,15.3-9.3,23-14c7.6-4.7,15.2-9.5,22.8-14.1c1.3-0.8,2.8-1.2,5-1.1c-5.6,11-11.1,22-16.7,33c-0.8,1-1.8,1.9-2.3,3
		c-2.6,5.3-5.1,10.6-7.7,15.9c-1.6,3.3-3.2,6.7-4.9,10c-0.4,0.1-0.7,0.2-1.1,0.3c-0.6,0.1-1.3,0.1-1.9,0.4
		c-8.4,4.2-16.8,8.3-25.2,12.6C357.6,472.2,357.4,472.8,357.1,473.1z"/>
	<path class="st0" d="M504,606.8c-4.2,1.7-8.3,3.4-12.5,5c-2.5,0.9-5,1.6-7.5,2.4c0-10.1,0.1-20.1,0.1-30.2c1.4-0.3,2.8-0.6,4.2-1
		c1.3-0.4,2.5-0.9,3.3-1.1c-1.3-7.6-2.5-14.4-3.8-21.3c-0.9-4.6-1.9-9.2-2.8-13.8c0.3-1.2,0.6-2.5,1.1-4.4c-1-0.5-2.1-0.9-3.2-1.4
		l0,0c-0.4-4.4-3.2-6.6-7-8l0,0c-0.3-0.3-0.7-0.7-1-1l0,0c0.2-1.5-0.4-2.2-1.9-2.1l0,0c0.1-2.2-0.4-3.9-3.1-3.9l0,0
		c-0.3-0.3-0.7-0.7-1-1l0,0c-0.3-0.3-0.7-0.7-1-1l0,0c-0.3-0.3-0.7-0.7-1-1c0,0,0,0,0,0c-0.3-0.3-0.7-0.7-1-1c0,0,0,0,0,0
		c-0.3-0.3-0.7-0.7-1-1l0,0c-0.2-1.3-0.4-2.5-0.6-4c20.9,0,41.7,0,62.6,0c4.5,3,6.3,8.3,10,11.9c3.7,3.7,4.3,8.2,4,13.1
		c-0.3,4.6-0.1,9.3-0.1,14c-0.6,0.2-1.2,0.3-1.9,0.5c0,6.7,0,13.1,0,19.5l0,0c-2.9,0-1.8,2.2-2.1,3.7c-3.3,4.4-6.6,8.8-9.9,13.2
		c-0.6,0.3-1.5,0.4-1.7,0.8c-1.5,3-4.2,4.5-7.1,5.7c-3.7,1.6-7.5,3-11.2,4.7C505.8,604.7,503.9,604.7,504,606.8z M505,576.9
		c0.3,0.3,0.5,0.7,0.8,1c0.4-0.4,0.8-0.8,1.2-1.2c3.2-1.2,6.4-2.3,9.7-3.6c1.5-8.8,2.9-17.4,4.4-26.1c1.8-2.7,2.2-5.6,1.6-9
		c-5.5-0.2-10.8-0.5-15.8,1.9c-0.2,0.1-0.4,0.1-0.6,0c-0.7,0.3-1.4,0.6-2.1,1c-0.1,11.2-0.1,22.4-0.1,33.6
		C504,575.4,504.7,576.2,505,576.9L505,576.9z"/>
	<path class="st0" d="M629,417.1c-0.4,0.9-0.9,1.7-1.6,3.2c-4.6,1.5-9.8,2.7-14.4,5c-2.3,1.2-4.6,1.3-6.8,2.2
		c-3.9,1.7-5.5,5.3-7.1,8.8c-0.4,0.8-0.5,1.7-0.9,3.2c1.5-0.2,2.6-0.4,3.8-0.6c2.6,0.2,4.7-0.6,6.1-2.9l0,0c1.7-0.4,3.5-0.6,5.1-1.1
		c4.3-1.2,8-4.3,12.8-3.9c-0.5,3.7-2.9,6.8-3,10.6c0,1.3-1.3,2.5-2,3.7c-16,6.7-32,13.3-48.2,20c-1.5-4.3,1-7.1,1.9-10.3
		c1.6-5.7,3.6-11.3,5.5-17c1.4-4.3,2.8-8.6,4.3-12.8c3.5-10,7.1-20,10.6-30c1.3-3.6,2.4-7.3,3.5-11c0.9-3.4,3-5.6,6.1-7.1
		c8.6-4.2,17.2-8.7,25.8-13c0.9-0.2,2.4,0.6,2.6-1.1c0,0,0,0,0,0c0.7-0.3,1.3-0.7,2-1l0,0c5.2-0.5,9.3-3.8,13.7-6.1
		c0.2-0.1,0.2-0.6,0.3-0.9l0,0c0.7-0.3,1.4-0.7,2-1l0,0c0.7-0.3,1.3-0.7,2-1c0,0,0,0,0,0c0.7-0.3,1.4-0.7,2-1c0,0,0,0,0,0
		c0.7-0.3,1.4-0.7,2-1l0,0c1.7,0.3,3.4,0.6,5.1,1c-3.8,6.4-7,13.3-11.4,19.2c-5.3,7.1-9.2,15-14.9,22.5c-1.3,0.3-3.2,0.7-4.9,1.3
		c-5.7,2-11.2,4.8-17.2,6.1c-0.6,0.1-1.2,0.7-1.5,1.2c-1.9,3.5-3,7.3-3.2,12.3c4.2-1.9,7.5-3.3,10.8-4.8c4,0.6,7.1-1.9,11-3
		C630.1,410.5,629.6,413.8,629,417.1z"/>
	<path class="st0" d="M653.2,420.2c2.8-6.4,5.6-12.8,8.3-19.2c-7.2,2-11.7,7.5-17.5,11.1c-1.3,0.2-2.6,0.4-4.5,0.8
		c2.6-5.2,5-9.7,7.2-14.2c1.2-2.5,2.1-5.1,3.2-7.6c1.8-3.9,3.3-8,5.6-11.7c2.1-3.2,6.1-4.1,9.6-5.1c2-0.6,3.9-0.9,5.8-2.1
		c1.6-1,3.6-1.4,5.4-2c2.1-0.4,4.2-0.6,6.1-1.2c4.6-1.5,9.1-3.2,13.7-4.9c8.9-3.1,17.9-6.2,26.8-9.5c0.9-0.3,1.5-1.4,2.3-2.2
		c1.4-0.3,2.9-0.5,4.6-0.9c0.2,0.2,0.7,0.6,1.1,0.9c0.1,0.3,0.2,0.5,0.1,0.6c-8.3,14.5-16.6,29.1-25.1,43.5c-0.6,1-2.1,1.5-2.9,2.1
		c-8-1.7-15.7-3.3-23.5-4.9c-1.6,6-3.1,11.4-2.5,17.2c-0.6,0.2-1.2,0.3-1.8,0.5c-0.8,7-1.5,13.7-2.2,20.5c0,0,0,0,0,0
		c-1.3,0.3-2.6,0.7-3.9,1c-1.7,1.7-4.4,1.4-6.1,2.4c-2.9,1.7-6.2,1.6-9.1,3.1c-0.8,0.4-1.9,0.3-2.8,0.5c-1.6,0.6-3.2,1.8-5.3,0
		c0.6-1.4,1.4-2.8,1.9-4.3c0.9-2.6,1.6-5.2,2.4-7.8l0,0C652.8,425.5,653,422.9,653.2,420.2z"/>
	<path class="st0" d="M565,598c-5.8-2.4-11.7-4.8-17.7-7.2c-0.1-1.2-0.6-2.4-0.4-3.4c1.5-6.8,0.4-13.9,2.8-20.6
		c0.4-1.2,0.2-2.6,0.3-3.9c0.3-2.6,0.7-5.2,1-7.8c0.3-2.6,0.8-5.1,1-7.7c0.4-5.3,1.2-10.3,5.1-14.3c0.3-0.3,0.6-0.7,0.9-1
		c0,0,0,0,0,0c0.3-0.3,0.7-0.7,1-1l0,0c0.3-0.3,0.7-0.7,1-1l0,0c0.3-0.3,0.7-0.7,1-1c0,0,0,0,0,0c0.3-0.3,0.7-0.7,1-1l0,0
		c0.3-0.3,0.7-0.7,1-1c0,0,0,0,0,0c0.3-0.3,0.7-0.7,1-1l0,0c0.3-0.3,0.7-0.7,1-1c0,0,0,0,0,0c0.3-0.3,0.7-0.7,1-1l0,0
		c0.3-0.3,0.7-0.7,1-1c0,0,0,0,0,0c0.3-0.3,0.7-0.7,1-1c0,0,0,0,0,0c0.3-0.3,0.7-0.7,1-1c0,0,0,0,0,0c0.3-0.3,0.7-0.7,1-1
		c0,0,0,0,0,0c0.3-0.3,0.7-0.7,1-1l0,0c1.2,0,2.5,0,3.2,0c1.1,2.7,2,4.8,2.8,6.9l0.1,0.1c0.2,0.3,0.4,0.5,0.7,0.8
		c1.7,9.4,3.4,18.9,5.2,28.3c-0.2,1.1-0.9,2.2-0.7,3.2c1.5,8.4,3.1,16.8,4.8,25.2c0.5,2.8,1.2,5.5,1.9,8.3c2.7,4.4,1.5,9.5,2.9,14.2
		c0.1,0.5-0.8,1.3-1.3,1.9c-2.3-0.7-4.4-1.4-6.5-2.1c0.2-1.8-1.4-2.1-2.5-2.5c-2.5-1.1-5.2-2-7.7-3C570.9,599.3,568.2,597.6,565,598
		z"/>
	<path class="st0" d="M548.2,492c8.7-5.6,17.3-11.1,26-16.6c2.1-1.3,4.2-2.5,6.4-3.6c0.8-0.4,1.8-0.5,3.6-1
		c-3.4,11.7-6.5,22.7-10,34.7c-7.3,7-16,13.8-24.8,20.5c-0.8-0.5-1.6-1-2.4-1.6c0-6.3,0-12.4,0-18.5c-0.3-4-0.6-7.9-0.9-11.9l0.1,0
		C546.7,493.4,547.4,492.7,548.2,492z"/>
	<path class="st0" d="M146.1,234c0.6,0.4,1.6,0.7,1.7,1.2c2.4,7.4,4.7,14.9,7.2,22.4c2.7,8,5.4,16.1,8.3,24c0.6,1.6,0.5,2.8-0.2,4.2
		c-2-5.3-4.1-10.6-5.9-16c-3.5-10.3-6.7-20.7-10-31C146.6,237.3,146.5,235.6,146.1,234z"/>
	<path class="st0" d="M548,426.1c-1.9,5.7-3.8,11.5-5.7,17.2c-1,2.9-2.1,5.7-3.2,8.7c-6,0-11.4,0-16.9,0c-5.5,0-11,0-16.5-0.1
		c-0.9,0-1.8-0.5-2.6-0.7c11.6-0.4,23.1-0.8,35-1.3c2-5.3,3.9-10.7,6-16.1C545.2,431.1,545.4,428,548,426.1z"/>
	<path class="st0" d="M588,499c-0.6,2-1.1,4.1-1.7,6.1c-0.2,0-0.4,0-0.6,0c0.8,4.8,1.6,9.6,2.5,14.4c1.5,7.8,3.2,15.6,4.8,23.4
		c0.5,2.5,1.3,5,1.7,7.6c0.1,0.8-0.4,1.7-0.7,2.5c-0.3-0.5-0.9-1-1-1.6c-2.2-10.5-4.4-21-6.5-31.5c-0.8-3.9-1.7-7.7-2.3-11.6
		c-0.5-3.4,1.2-6.4,2.6-9.3C587.3,499,587.7,499,588,499z"/>
	<path class="st0" d="M445.1,598c0.5,0.1,1,0.2,1.5,0.3c1.3,10.2,2.5,20.3,3.8,30.5c0.1,0.7,0.8,1.4,1.2,2.3
		c2.5-0.7,4.9-1.4,7.4-2.1c-2.2,2.5-5,3.9-8.5,5.5c-0.5-0.8-1-1.3-1.1-1.9C448,621.1,446.5,609.5,445.1,598z"/>
	<path class="st0" d="M337,477c0.7,0.8,1.6,1.6,2,2.6c3.5,10.2,6.8,20.5,10.2,30.7c1.3,3.9,2.6,7.7,4,11.6c-2.2-0.2-2.3-2.2-2.7-3.6
		c-3.2-9.3-6.4-18.7-9.5-28.1C339.5,485.8,338.3,481.4,337,477z"/>
	<path class="st0" d="M527,517c-20.9,0-41.7,0-62.6,0c0.2,1.5,0.4,2.8,0.6,4c-1.1-1.3-2.3-2.5-4-4.5c2.2-0.3,3.4-0.7,4.6-0.7
		c19.5,0,39,0,58.5,0.1C525.1,515.9,526.1,516.6,527,517z"/>
	<path class="st0" d="M501.3,450.9c-7.2,0-14.3,0-21.6,0c-2.8,2.6-3.1,6.4-4.7,9.6c-0.7,1.4-0.6,3.4-2.9,3.5c1.6-4.5,3.3-9,5.1-13.9
		c1.6-0.3,3.4-1,5.1-1c6-0.1,12,0,18.2,0C500.8,449.8,501,450.4,501.3,450.9z"/>
	<path class="st0" d="M369.1,605.2c-0.3-1.4,0.5-2,1.7-2.5c3.8-1.5,7.5-3.1,11.3-4.6c2-0.8,3.9-1.4,5.9-2.1c3.5-1.2,5.8-3.5,7-7
		c0.7-2.1,1.4-4.3,2.3-6.4c0.3-0.6,1.2-1,1.8-1.5c-1.4,4.1-2.6,8.4-4.4,12.4c-0.6,1.3-2.3,2.3-3.8,2.9
		C383.7,599.3,376.4,602.2,369.1,605.2z"/>
	<path class="st0" d="M481,498.9c0-1.1,0.5-1.5,1.7-1.9c8.6-2.9,17.1-6,25.7-8.9c3.2-1.1,6.5-2,9.7-3c-0.6,0.6-1.1,1.6-1.9,1.8
		c-8.6,3.1-17.3,6.2-25.9,9.2C487.2,497.1,484.1,498,481,498.9z"/>
	<path class="st0" d="M649.9,391c-1.1,2.5-2,5.1-3.2,7.6c-2.2,4.6-4.5,9-7.2,14.2c1.9-0.3,3.2-0.6,4.5-0.8c-2.1,3.2-4.2,4.8-7.9,5.7
		c0.5-1.7,0.8-3.3,1.5-4.7c3.4-6.8,6.8-13.6,10.3-20.4C648.3,392,649.2,391.6,649.9,391z"/>
	<path class="st0" d="M210,741.1c0.4-3.2,0.4-3.2,2.7-4.8c0.9-1.6,1.4-2.5,2.2-4c0.4,1.8,0.6,2.8,0.5,2.7c-3.2,11-7.7,20.6-11,30.7
		c-0.5,0.1-1,0.2-1.5,0.3c1.4-4.1,2.7-8.3,4.2-12.4c1.3-3.7,2.9-7.2,4.3-10.9c0.3-0.7,0.3-1.5,0.5-2.6
		C211.2,740.6,210.6,740.8,210,741.1z"/>
	<path class="st0" d="M297.2,511c0.9-0.2,1.9-0.5,2.7-0.7c9.9,2.6,19.7,5,29.1,7c2.5-2.4-1.7-4.5,0.9-6.3c0.6,1.8,1.2,3.6,1.8,5.4
		c-1.2,2-2.8,3-5.3,2.4c-9.5-2.4-19.1-4.8-28.6-7.2C297.5,511.6,297.4,511.2,297.2,511z"/>
	<path class="st0" d="M588.9,592c-0.6-2.8-1.3-5.5-1.9-8.3c-1.6-8.4-3.3-16.8-4.8-25.2c-0.2-1,0.4-2.1,0.7-3.2
		c1,4.2,2.1,8.4,2.9,12.7c1.1,5.3,1.9,10.6,3.1,15.9C589.6,586.6,590,589.2,588.9,592z"/>
	<path class="st0" d="M301,401.1c0.5-0.3,1.1-1,1.4-0.9c9.5,3.6,18.9,7.2,28.3,10.8c0.6,0.2,0.8,1.1,1.2,1.7
		c-3.1-0.9-6.2-1.8-9.3-2.9c-6.7-2.4-13.3-4.8-19.9-7.3C302.1,402.4,301.5,401.6,301,401.1z"/>
	<path class="st0" d="M339,647.9c0-0.9-0.4-1.8-0.1-2.6c2.9-8.2,5.9-16.4,8.9-24.7c0.8-2.1,1.5-4.3,2.4-6.4c0.3-0.6,1.1-1,1.6-1.4
		c-0.6,2.3-1,4.7-1.9,7c-3.3,9.2-6.8,18.3-10.2,27.5C339.6,647.6,339.2,647.8,339,647.9z"/>
	<path class="st0" d="M469,442c0.2-1,0.2-2,0.6-2.9c3.5-9.2,7-18.3,10.5-27.4c0.5-1.3,1.3-2.5,2-3.7c-1.1,4.1-2,8.2-3.4,12.2
		c-2.4,6.8-5.1,13.4-7.7,20.1C470.7,441,469.6,441.4,469,442z"/>
	<path class="st0" d="M329.1,528c-2.9-0.3-5.7-0.7-9.5-1.2c2.2,7.3,4.7,13.8,7.2,20.4c-0.2,0.4-0.4,1-0.7,1.6
		c-3.5-7.3-6.2-14.9-8.5-23.4c4.3-0.5,7.8,0.2,11.2,1.6C329,527.1,329,527.6,329.1,528z"/>
	<path class="st0" d="M273,764.9c2.5-1.5,5-3.1,7.6-4.4c2.6-1.3,5.4-2.4,8.3-3.6c0.1,0.1,0.5,0.6,0.9,1.1c-4,2.7-7.7,5.4-11.5,7.9
		c-0.9,0.6-2.1,0.8-3.2,1.1c-0.1-0.6-0.2-1.1-0.2-1.7C274.1,765.1,273.5,765,273,764.9z"/>
	<path class="st0" d="M410,436c-1.3,4-2.5,8.1-4,12c-2.6,7-5.4,14-8.2,21c-0.3,0-0.7,0-1,0c1.1-3.2,2.1-6.5,3.3-9.7
		c2.7-7.2,5.4-14.4,8.2-21.6C408.6,437,409.4,436.6,410,436z"/>
	<path class="st0" d="M627.1,601.9c5.1-0.1,9.9,1.6,14.8,2.6c1.4,0.3,2.8,0.5,4.3,0.7c1.3-2.5,2.5-4.8,3.7-7
		c0.5,3.6-0.4,5.8-4.1,9.1c-7-1.7-14.5-3.4-22-5.2C624.9,602,626,602,627.1,601.9z"/>
	<path class="st0" d="M357.1,473.1c0.3-0.4,0.5-0.9,0.9-1.1c8.4-4.2,16.8-8.4,25.2-12.6c0.6-0.3,1.3-0.3,1.9-0.4
		c0.1,2-1.7,2.3-2.9,2.9c-6.4,3.3-12.8,6.5-19.3,9.6C361,472.4,359,472.6,357.1,473.1z"/>
	<path class="st0" d="M386.1,458.8c1.6-3.3,3.2-6.7,4.9-10c2.6-5.3,5.1-10.6,7.7-15.9c0.6-1.1,1.5-2,2.3-3c-0.1,0.8,0.1,1.7-0.2,2.4
		c-4.1,8.2-8.2,16.4-12.3,24.6C388,457.7,387.7,459.2,386.1,458.8z"/>
	<path class="st0" d="M725.1,352.3c-0.8,0.7-1.4,1.9-2.3,2.2c-8.9,3.2-17.9,6.3-26.8,9.5c0-0.4-0.1-0.8-0.1-1.2
		c6.2-2.3,12.4-4.8,18.6-7C718,354.5,721.6,353.5,725.1,352.3z"/>
	<path class="st0" d="M631,337.5c-0.5-3.4,1.7-5.9,2.8-8.8c2.3-6,5-11.8,7.7-17.6c0.5-1.1,1.5-2.1,2.3-3.1c0.6,3.3-1.8,5.5-2.9,8.2
		c-2.4,6.4-5.3,12.7-8.1,19C632.5,336,631.6,336.7,631,337.5z"/>
	<path class="st0" d="M440.1,491.9c-0.3-0.3-0.7-0.5-1.2-0.9c0.7-0.6,1.3-1.2,2-1.7c0-0.4,0.2-1,0-1.4c-0.9-1.7-0.9-3.3-0.3-5.1
		c0.6-2,0.2-4.2,0.5-6.3c0.7-5.2,0.6-10.6,2.9-15.5c-0.6,6.2-1.1,12.3-1.7,18.5c-0.2,2.9-0.4,5.9-0.5,8.8
		C441.7,489.7,441.9,491.3,440.1,491.9z"/>
	<path class="st0" d="M258.2,416c2.4,0,2.8,2.3,3.5,3.7c2.6,4.9,4.9,10,7.1,15.1c0.7,1.6,0.8,3.5,1.1,5.2c-1-1.4-2.2-2.8-3-4.3
		C264,429.2,261.1,422.6,258.2,416z"/>
	<path class="st0" d="M584,394c0.7-2.5,1.3-5,2.2-7.4c1.5-4.3,3.2-8.5,4.8-12.6c-0.8-0.8-1.4-1.5-2-2.2c1.4-0.5,2.9-1,4.9-1.6
		c-2.9,8.3-5.1,16.3-8.9,23.8C584.7,394,584.4,394,584,394z"/>
	<path class="st0" d="M283.2,469c0.7,0.6,1.6,1,2,1.7c1.1,2.1,1.9,4.4,3,6.9c-1.1,0.1-1.8,0.4-2.3,0.2c-4.6-1.7-9.1-3.4-13.6-5.3
		c-1.2-0.5-2.2-1.7-3.3-2.6c4.3,1.5,8.5,2.9,12.8,4.4c0.9,0.3,1.8,0.5,3.3,0.9C284.3,472.8,283.8,470.9,283.2,469z"/>
	<path class="st0" d="M504,606.8c-0.2-2.1,1.7-2.2,2.9-2.7c3.7-1.7,7.5-3.1,11.2-4.7c2.9-1.2,5.6-2.7,7.1-5.7
		c0.2-0.4,1.1-0.6,1.7-0.8c-0.4,3.8-2.8,6.2-6.1,7.5C515.3,602.6,509.6,604.7,504,606.8z"/>
	<path class="st0" d="M265,469.8c-4.7-1.6-9.3-3.2-14.3-5c-0.2,0.8-0.5,1.5-0.7,2.2c-2.6-0.5-2.6-2.5-3.1-5.1
		c6.5,0.8,11.8,3.5,17.2,5.9C264.4,468.5,264.7,469.1,265,469.8z"/>
	<path class="st0" d="M204,271c-1.2-0.4-2.6-0.5-3.6-1.2c-4.6-3.4-9.1-6.9-13.5-10.5c-0.9-0.8-1.4-2.1-2.1-3.2c0.5,0,1.1-0.2,1.4,0
		c5.8,4.6,11.7,9.3,17.5,14C203.9,270.3,203.9,270.7,204,271z"/>
	<path class="st0" d="M208,382c2.7-0.9,5.3-0.2,7.9,0.6c5.9,1.7,11.8,3.3,17.8,5c0.1,0.4,0.2,0.9,0.3,1.4c-3-0.7-6.1-1.2-9.1-2
		C219.3,385.3,213.7,383.6,208,382z"/>
	<path class="st0" d="M515.9,386c-1.8,5-3.6,10-5.5,15c-1.2,3.2-2.4,6.4-3.8,9.5c-0.5,1-0.6,2.8-2.5,2.5c0.7-2,1.2-4,2-5.9
		c2.5-6.2,5.1-12.4,7.7-18.5C514.3,387.6,515.3,386.9,515.9,386z"/>
	<path class="st0" d="M660.9,566.9c0-1.4-0.3-2.9,0.1-4.1c2.5-7.8,5.2-15.6,7.8-23.4c0.2-0.5,0.8-0.9,1.2-1.3
		c-0.1,0.8,0.1,1.7-0.2,2.5C666.9,549.3,663.9,558.1,660.9,566.9z"/>
	<path class="st0" d="M584,394c0.3,0,0.7,0,1,0c-1.1,3.3-2,6.6-3.2,9.7c-2.2,5.8-4.6,11.4-6.9,17.2c-0.7-3.1,1-5.7,2-8.4
		C579.3,406.3,581.7,400.2,584,394z"/>
	<path class="st0" d="M194.1,710.9c0.1,0.1,0.4,0.2,0.4,0.3c0.9,5.1,1.7,10.2,2.6,15.2c0.4,2.2,0.9,4.4,1.5,6.6
		c0.4,1.7,1.1,3.4-0.4,4.9c-1.9-1.6-1-4-1.4-6c-1.3-6.5-2.4-13.1-3.6-19.7C193.1,712,193.7,711.4,194.1,710.9z"/>
	<path class="st0" d="M263.9,488.1c0.6,0.2,1.5,0.2,1.7,0.6c3.3,5.6,6.9,11,11.1,15.9c0.3,0.3,0.2,0.9,0.3,1.4
		c-2.2,0.2-3.2-1.4-4.3-2.9c-2.8-4-5.6-8.1-8.3-12.2C264,490.2,264.1,489,263.9,488.1z"/>
	<path class="st0" d="M285.1,628.1c-3.4,0.8-6.8,1.8-10.2,2.4c-5.3,1-10.6,1.7-15.9,2.5c0-0.3,0-0.7,0-1c7.3-1.3,14.6-2.7,21.9-4
		C282.3,628,283.7,628,285.1,628.1z"/>
	<path class="st0" d="M627.1,601.9c-1.1,0.1-2.2,0.1-3.2,0.2c-6.5-1.4-13-2.8-20.1-4.4c-0.5-1.4-1-3-1.5-4.6c0.2,0,0.4-0.1,0.5,0
		c4,4,4,3.6,10,5C617.6,599.2,622.7,599.4,627.1,601.9z"/>
	<path class="st0" d="M560.1,459c0.3-1.3,0.4-2.6,0.8-3.8c2.1-6,4.3-12,6.5-18c0.4-0.9,1.4-1.6,2.2-2.3c-0.7,2.3-1.3,4.6-2.1,6.9
		c-1.9,5.2-3.8,10.4-5.8,15.5C561.5,458,560.7,458.4,560.1,459z"/>
	<path class="st0" d="M459.9,495.1c-0.8,2.6-1.6,5.2-2.4,7.8c-0.3,0.9-0.4,1.8-0.6,3.1c3.4-0.7,6.3-1.3,9.2-2
		c-3.4,2.7-7.2,3.9-12.4,3.9c2-4.7,3.6-8.7,5.3-12.7C459,495.1,459.6,495.1,459.9,495.1z"/>
	<path class="st0" d="M385,507.1c-0.4-1.2-0.9-2.3-1.6-4.1c-1.2,0.1-2.7,0.2-4.3,0.4c-4.1,0.5-8.1,1.1-12.2,1.5
		c-0.6,0.1-1.4-0.6-2-0.9c0.2-0.2,0.4-0.6,0.7-0.6c6.2-0.7,12.4-1.4,18.7-2.1C386.7,502.9,386.5,504.9,385,507.1z"/>
	<path class="st0" d="M187.1,357.9c1.3,3.1,2.6,6.2,3.8,9.3c0.8,1.9,1.5,3.9,2,6c0.5,2.3,1.3,3.9,3.7,4.4c0.2,0,0.2,0.9,0.3,1.3
		c-1.4-0.3-2.7-0.6-4.4-0.9c-1.9-6.1-3.8-12-5.6-17.8C187,359.3,187.1,358.6,187.1,357.9z"/>
	<path class="st0" d="M338,711c0.2-1.4,0.2-3,0.7-4.3c1.6-4.1,3.3-8.1,5.1-12.1c1-2.2,1.8-4.2,0.3-6.5c-0.1-0.2,0.4-0.8,0.6-1.2
		c0.7,1.3,1.5,2.7,2.4,4.3C344.1,697.9,341,704.5,338,711z"/>
	<path class="st0" d="M281.8,333.1c-3.8-0.4-5.4-4.1-8.6-5.6c-1.6-0.8-3-2-4.3-3.3c-1.2-1.2-3.2-2-2.9-4.3
		c5.1,3.8,10.2,7.5,15.2,11.3C281.7,331.6,281.7,332.5,281.8,333.1z"/>
	<path class="st0" d="M474.8,610.9c-1.3-5-2.6-9.9-3.8-14.9c-0.5-2-1-4.1-1.5-6.1c-0.4-1.4-1.3-2.8,0.4-4c1.3,4.9,2.7,9.7,3.9,14.6
		c0.6,2.4,1.1,4.8,1.5,7.2C475.4,608.8,475,609.9,474.8,610.9z"/>
	<path class="st0" d="M672.9,431.9c0.7-6.8,1.5-13.5,2.2-20.5c0.6-0.2,1.2-0.3,1.8-0.5c-0.7,6.1-1.4,12.2-2.2,18.3
		C674.6,430.2,673.5,431.1,672.9,431.9z"/>
	<path class="st0" d="M396.8,469c0.3,0,0.7,0,1,0c0.1,0.9,0.2,1.8,0.3,2.9c4.2-0.5,6.6-4.5,10.7-4.1c-0.8,2.4-3.2,2.5-4.9,3.5
		c-2.7,1.4-5.2,3.3-8.3,3.7C394.3,472.3,395.6,470.6,396.8,469z"/>
	<path class="st0" d="M629,417.1c0.6-3.3,1.1-6.5,1.8-10.1c-3.9,1.1-7,3.6-11,3c3.8-1.7,7.6-3.4,11.2-5c1,0.8,1.5,1.2,2.3,2
		C631.9,410.3,630.4,413.7,629,417.1z"/>
	<path class="st0" d="M539,576c0-6.4,0-12.9,0-19.5c0.7-0.2,1.3-0.4,1.9-0.5c-0.3,6.2-0.6,12.4-1,18.5
		C539.9,575,539.3,575.5,539,576z"/>
	<path class="st0" d="M448,448.7c1.1-0.7,2-1.8,3.2-2.2c4.6-1.6,9.2-3,13.9-4.4c1.2-0.4,2.6-0.1,3.9-0.2c-2.5,2.7-6.2,2.5-9.3,3.6
		C455.9,446.9,451.9,447.7,448,448.7z"/>
	<path class="st0" d="M670,538c0-0.2-0.1-0.3,0-0.5c2.2-6.7-0.7-12.6-2.6-18.8c-0.3-0.9-0.3-1.9-0.4-2.9c0.7,1,1.7,1.9,2,3.1
		c1.4,4.2,2.5,8.4,3.9,13C672.1,533.8,671,535.9,670,538z"/>
	<path class="st0" d="M187.1,357.9c0,0.7-0.1,1.5-0.1,2.2c-2.3-6.7-4.6-13.5-6.8-20.2c-0.2-0.6,0-1.3,0-2c0.6,0.7,1.6,1.4,1.8,2.2
		c1.8,5.4,3.4,10.8,5.1,16.3C187.2,356.8,187.1,357.4,187.1,357.9z"/>
	<path class="st0" d="M650,427c-0.8,2.6-1.5,5.2-2.4,7.8c-0.5,1.5-1.3,2.9-1.9,4.3c2.1,1.7,3.7,0.6,5.3,0c-0.1,0.5-0.2,1-0.3,1.7
		c-2,0.5-4.1,1-6.8,1.6C644.2,435.9,647.2,431.5,650,427z"/>
	<path class="st0" d="M597,474.1c-0.3,1.6-0.5,3.2-1,4.7c-1.7,4.9-3.5,9.8-5.3,14.7c-0.3,0.7-1.1,1.1-1.7,1.6
		c1.6-4.7,3-9.3,4.8-13.9C594.6,478.7,595.9,476.4,597,474.1z"/>
	<path class="st0" d="M545.9,494c0.3,4,0.6,7.9,0.9,11.9c-0.3,1-0.8,2-0.8,3c-0.1,5.7-0.1,11.4-0.1,17.1c-0.3-0.5-0.9-1.1-0.9-1.6
		c-0.1-9.5-0.1-19-0.1-28.5C545,495.3,545.6,494.6,545.9,494z"/>
	<path class="st0" d="M565,598c3.3-0.4,6,1.3,8.9,2.4c2.6,1,5.2,1.9,7.7,3c1.1,0.5,2.7,0.7,2.5,2.5C577.7,603.3,571.3,600.6,565,598
		z"/>
	<path class="st0" d="M576.1,378.3c-0.2,0.5-0.2,1.2-0.5,1.3c-4.8,2.5-9.6,4.9-14.4,7.3c-0.7,0.3-1.6,0.1-2.4,0.1
		C564.1,383.3,569.7,380.1,576.1,378.3z"/>
	<path class="st0" d="M695.9,362.8c0,0.4,0.1,0.8,0.1,1.2c-4.5,1.6-9.1,3.4-13.7,4.9c-2,0.6-4.1,0.8-6.1,1.2c4.1-1.7,8.2-3.4,12.4-5
		C691,364.2,693.5,363.6,695.9,362.8z"/>
	<path class="st0" d="M484.2,584c0,10.1-0.1,20.1-0.1,30.2c-0.4-0.8-1.1-1.6-1.1-2.4c-0.1-8.6-0.1-17.1,0-25.7
		C482.9,585.2,482.7,584.1,484.2,584z"/>
	<path class="st0" d="M625.9,431c-4.8-0.4-8.5,2.7-12.8,3.9c-1.7,0.5-3.4,0.7-5.1,1.1c4.9-3.1,10.1-5.7,16-5.9
		C624.6,430,625.3,430.7,625.9,431z"/>
	<path class="st0" d="M364.9,494.9c0.3-0.4,0.5-1,0.9-1.1c5-1.3,10-2.6,15.1-3.8c-0.2,0.3-0.2,0.7-0.5,0.8
		C375.4,492.6,370.4,494.7,364.9,494.9z"/>
	<path class="st0" d="M649,355c-0.1,0.3-0.1,0.8-0.3,0.9c-4.4,2.4-8.4,5.6-13.7,6.1C639.1,358.6,643.8,356.2,649,355z"/>
	<path class="st0" d="M577,525.9c-0.9-2.1-1.7-4.2-2.8-6.9c-0.7,0-1.9,0-3.2,0c0.9-1.1,1.8-2.1,2.9-3.3
		C578.4,518.3,576.9,522.4,577,525.9z"/>
	<path class="st0" d="M332.2,464c0.6,0.3,1.5,0.4,1.6,0.8c1.1,4.1,3.7,7.7,3.2,12.2C334.3,473.1,333.5,468.5,332.2,464z"/>
	<path class="st0" d="M218.2,282.9c-3.5-1.3-8-5.3-9.1-8C212.6,277,216.5,278.7,218.2,282.9z"/>
	<path class="st0" d="M546,526c0-5.7,0-11.4,0.1-17.1c0-1,0.5-2,0.8-3c0,6.1,0,12.2,0,18.5c0.9,0.6,1.7,1.1,2.4,1.6
		c-0.7,0.3-1.5,0.6-2.2,0.9C546.7,526.6,546.3,526.3,546,526C546,526,546,526,546,526z"/>
	<path class="st0" d="M228,290c-4.3-0.7-7.3-3.1-9.3-6.9C222.8,284.1,225.6,286.8,228,290z"/>
	<path class="st0" d="M313,357c-1-0.2-2.1,0-2.8-0.5c-2-1.4-3.9-3-5.7-4.7c-0.4-0.4-0.3-1.2-0.5-1.8C307,352.3,310,354.6,313,357z"
		/>
	<path class="st0" d="M476,533c3.8,1.4,6.6,3.6,7,8C480.3,538.6,477.3,536.6,476,533z"/>
	<path class="st0" d="M600,304c-0.1,0.5,0,1.2-0.2,1.4c-3.1,1.9-5.8,4.9-9.9,4.6C593.2,308,596.6,306,600,304z"/>
	<path class="st0" d="M662.1,352c-1.7-0.3-3.4-0.6-5.1-1c2.3-1.7,4.4-3.9,8.4-2.2C664.1,350,663.1,351,662.1,352z"/>
	<path class="st0" d="M271.1,443c3.5,2,4.3,5.5,4.8,9.1C273.3,449.6,271.4,446.7,271.1,443z"/>
	<path class="st0" d="M285.1,628.1c-1.4,0-2.8-0.1-4.2-0.1c2.5-0.6,5-1.2,7.5-1.9c0.9-0.3,1.8-0.7,2.7-1.1c0,0.8-0.1,1.6-0.1,2.9
		C288.9,627.9,287,628,285.1,628.1z"/>
	<path class="st0" d="M255.1,475c3,1.4,4.4,3.5,4.9,7.1C257.4,480.3,256.3,477.6,255.1,475z"/>
	<path class="st0" d="M427,655c0.8-1.3,1.5-2.6,2.3-3.9c0.2,0.1,0.4,0.2,0.6,0.3c0-0.8,0.1-1.6,0.1-2.4c0.7,0.6,1.4,1.1,2.3,1.9
		C430.6,652.7,429.5,654.7,427,655z"/>
	<path class="st0" d="M426,646c-3,0.2-5-1.3-6.2-4C422,642.3,423.6,643.3,426,646z"/>
	<path class="st0" d="M209,275c-3.4-0.3-4.1-0.8-5-4C206.4,271.4,207.9,273,209,275z"/>
	<path class="st0" d="M342,380c-3.4-0.3-4.1-0.9-5-4C339.5,376.3,340.7,378.2,342,380z"/>
	<path class="st0" d="M350.9,387.2c-2.5-0.4-4.8-1.1-4.9-4.3C348.4,383.6,349.9,385.1,350.9,387.2z"/>
	<path class="st0" d="M266,320c-3.4-0.3-4.1-0.8-5-4C263.5,316.3,264.8,318.1,266,320z"/>
	<path class="st0" d="M237,297c-3.4-0.3-4.1-0.8-5-4C233.7,294.3,235.4,295.6,237,297z"/>
	<path class="st0" d="M335,718c-0.2-2.8,0.2-5.5,3-7C337,713.3,336,715.7,335,718z"/>
	<path class="st0" d="M294,342c-3.4-0.3-4.1-0.9-5-4C290.7,339.3,292.4,340.6,294,342z"/>
	<path class="st0" d="M483,541c1.1,0.5,2.1,1,3.2,1.4c-0.5,1.9-0.8,3.1-1.1,4.4C484.4,544.9,483.7,543,483,541z"/>
	<path class="st0" d="M653.2,420.2c-0.2,2.7-0.4,5.4-3.2,6.8C650.2,424.3,651,421.9,653.2,420.2z"/>
	<path class="st0" d="M304,350c-3.4-0.3-4.1-0.9-5-4C301.4,346.4,302.8,348.1,304,350z"/>
	<path class="st0" d="M299,346c-3.4-0.3-4.1-0.9-5-4C295.7,343.3,297.4,344.6,299,346z"/>
	<path class="st0" d="M259,632c0,0.3,0,0.7,0,1c-1.7,1.9-4,0.7-6,1C254.6,632.2,256.7,631.8,259,632z"/>
	<path class="st0" d="M608,436c-1.3,2.4-3.5,3.1-6.1,2.9C603.4,436.8,605.4,435.8,608,436z"/>
	<path class="st0" d="M413,666c1.1-3.2,1.7-3.7,5.1-4C416.3,663.3,414.6,664.7,413,666z"/>
	<path class="st0" d="M628.1,343c0.6-2,0.2-4.5,3-5.3C630.5,339.7,630.6,342.1,628.1,343z"/>
	<path class="st0" d="M611,297c-0.6,2.8-2.6,3.2-5,3C607.6,299,609.3,298,611,297z"/>
	<path class="st0" d="M616,294c-1,2.1-2.5,3.5-5,3C612.6,296,614.3,295,616,294z"/>
	<path class="st0" d="M469.9,526c2.7,0,3.2,1.7,3.1,3.9C472,528.7,471,527.4,469.9,526z"/>
	<path class="st0" d="M346,383c-2.3,0.3-4-0.3-4-3C343.3,381,344.7,382,346,383z"/>
	<path class="st0" d="M380.9,489.9c0-1.1-0.1-2.3,0.2-3.3c0.2-0.7,1.2-1.2,1.8-1.7C383.3,486.9,382.5,488.6,380.9,489.9z"/>
	<path class="st0" d="M261,316c-2.3,0.4-3.8-0.5-4.3-2.9C259,312.8,260,314.4,261,316z"/>
	<path class="st0" d="M289,338c-2.3,0.3-3.8-0.5-4.2-2.9C287,334.9,288,336.5,289,338z"/>
	<path class="st0" d="M297,615c0.4,2.5-0.8,4.1-3,5.1C295,618.3,296,616.6,297,615z"/>
	<path class="st0" d="M467,624c0-2.8,2.2-2.6,4-3C470.7,623.4,468.8,623.7,467,624z"/>
	<path class="st0" d="M232,293c-2.3,0.2-4-0.3-4-3C229.4,291,230.7,292,232,293z"/>
	<path class="st0" d="M337,376c-2.3,0.3-3.8-0.4-4.2-2.8C335,372.9,336,374.5,337,376z"/>
	<path class="st0" d="M459,629c1-2.1,2.5-3.5,5-3C462.4,627,460.7,628,459,629z"/>
	<path class="st0" d="M406,670.9c0.1-2.6,1.8-3.1,4-2.9C409.1,669.6,408.1,670.9,406,670.9z"/>
	<path class="st0" d="M280.1,463c2.7,0.7,2.9,2.8,2.8,5C282,466.4,281.1,464.7,280.1,463z"/>
	<path class="st0" d="M265,469.8c-0.3-0.6-0.6-1.3-0.9-1.9c1.7,0.7,3.3,1.4,5,2.1C267.7,469.9,266.3,469.8,265,469.8z"/>
	<path class="st0" d="M627.1,287.3c-0.7,2.2-2.5,2.7-4.5,2.6C623.8,288.6,624.8,287,627.1,287.3z"/>
	<path class="st0" d="M588,499c-0.4,0-0.7,0-1.1,0c0.7-1.3,1.4-2.7,2-4C588.8,496.3,589.8,498,588,499z"/>
	<path class="st0" d="M399,581c0.2-1.6-1-3.8,1.8-4.2C400.2,578.2,399.6,579.6,399,581z"/>
	<path class="st0" d="M536.9,579.7c0.3-1.4-0.7-3.7,2.1-3.7C538.3,577.2,537.6,578.4,536.9,579.7z"/>
	<path class="st0" d="M619,292c0.2,2.4-1.6,2.1-3,2C617,293.3,618,292.6,619,292z"/>
	<path class="st0" d="M669,432.9c1.3-0.3,2.6-0.7,3.9-1c-0.3,0.5-0.7,1-1,1.5C670.8,433.2,669.9,433.1,669,432.9z"/>
	<path class="st0" d="M293,622c0.1,1.5,0.5,3.2-2,3.1C291.7,624,292.3,623,293,622z"/>
	<path class="st0" d="M603,302c0.1,2.4-1.5,2.1-3,2C601,303.3,602,302.6,603,302z"/>
	<path class="st0" d="M182,253.9c-0.8,0-1.5,0-2.6,0c-0.1-0.7-0.2-1.3-0.2-1.9C180.7,251.8,181.4,252.7,182,253.9z"/>
	<path class="st0" d="M464,626c-0.2-2.5,1.5-2.1,3-2C466,624.7,465,625.4,464,626z"/>
	<path class="st0" d="M250,467c0.5,0.1,1,0.1,1.7,0.2c0.1,0.9,0.2,1.8,0.3,2.7C250.4,469.6,249.9,468.5,250,467z"/>
	<path class="st0" d="M606,300c0.1,2.4-1.6,2.1-3.1,2C604,301.3,605,300.7,606,300z"/>
	<path class="st0" d="M429,648c-1.5,0-3.2,0.4-3-2.1C427,646.7,428,647.3,429,648z"/>
	<path class="st0" d="M423,658c-0.2-2.4,1.5-2.1,3-2.1C425,656.7,424,657.3,423,658z"/>
	<path class="st0" d="M410,668c-0.2-2.4,1.5-2.1,3-2.1C412,666.6,411,667.3,410,668z"/>
	<path class="st0" d="M482,408c0.3-1,0.6-2,0.9-3.1C484.9,406.7,483.1,407.2,482,408z"/>
	<path class="st0" d="M261.9,485.1c0.5,0.1,1,0.1,1.8,0.2c0.1,0.9,0.2,1.9,0.2,2.8C263.3,487.1,262.6,486.1,261.9,485.1z"/>
	<path class="st0" d="M314.9,359.1c-1.4,0-2.1-0.7-1.8-2.1C314.6,356.9,314.8,357.9,314.9,359.1z"/>
	<path class="st0" d="M238.8,299.1c-1.4,0-2.1-0.7-1.8-2.1C238.5,296.9,238.8,297.9,238.8,299.1z"/>
	<path class="st0" d="M420.1,660.1c0.4-1.5,1.3-2.3,3-2C422,658.7,421,659.4,420.1,660.1z"/>
	<path class="st0" d="M418,662c-0.2-1.6,0.5-2.2,2.1-2C420.1,661.5,419.3,662,418,662z"/>
	<path class="st0" d="M217,669.7c0,0.6-0.1,1.2-0.1,2c-0.7,0.1-1.3,0.2-1.9,0.3C215.6,671.2,216.3,670.5,217,669.7z"/>
	<path class="st0" d="M626.1,343.8c0.6-0.2,1.2-0.5,1.8-0.7c-0.1,0.4-0.2,0.9-0.3,1.5C627.1,344.2,626.6,344,626.1,343.8z"/>
	<path class="st0" d="M194,693c0.1,1.3-0.4,2.1-1.8,2.1C192.8,694.3,193.4,693.6,194,693z"/>
	<path class="st0" d="M253.1,472c1.5,0,2.1,0.7,1.8,2.2C254.3,473.4,253.7,472.7,253.1,472z"/>
	<path class="st0" d="M633,363c-0.3,1.7-1.7,0.9-2.6,1.1C631.2,363.7,632.1,363.3,633,363z"/>
	<path class="st0" d="M260.2,483c1.5-0.1,2,0.7,1.8,2.1C261.3,484.4,260.7,483.7,260.2,483z"/>
	<path class="st0" d="M473,530c1.5-0.1,2.2,0.5,1.9,2.1C474.3,531.3,473.7,530.6,473,530z"/>
	<path class="st0" d="M548.2,492c-0.7,0.7-1.4,1.3-2.2,2C545.9,492.5,546.6,491.8,548.2,492z"/>
	<path class="st0" d="M635,362c-0.7,0.3-1.3,0.7-2,1C633.6,362.6,634.3,362.3,635,362z"/>
	<path class="st0" d="M177.2,250.6c-1.4,0.3-1.1-0.8-1.2-1.5C176.4,249.6,176.8,250.1,177.2,250.6z"/>
	<path class="st0" d="M621,290.9c-0.7,0.3-1.3,0.7-2,1C619.6,291.6,620.3,291.3,621,290.9z"/>
	<path class="st0" d="M179,251.8c-0.8,0-1.8,0.4-1.6-1.1C177.9,251.1,178.4,251.5,179,251.8z"/>
	<path class="st0" d="M657,351c-0.7,0.3-1.4,0.7-2,1C655.6,351.7,656.3,351.3,657,351z"/>
	<path class="st0" d="M655,352c-0.7,0.3-1.4,0.7-2,1C653.6,352.6,654.3,352.3,655,352z"/>
	<path class="st0" d="M653,353c-0.7,0.3-1.3,0.7-2,1C651.6,353.6,652.3,353.3,653,353z"/>
	<path class="st0" d="M651,354c-0.7,0.3-1.4,0.7-2,1C649.6,354.6,650.3,354.3,651,354z"/>
	<path class="st0" d="M294,620c-0.3,0.7-0.7,1.3-1,2C293.3,621.3,293.7,620.7,294,620z"/>
	<path class="st0" d="M465,521c0.3,0.3,0.7,0.7,1,1C465.7,521.7,465.3,521.3,465,521z"/>
	<path class="st0" d="M563,527c-0.3,0.3-0.7,0.7-1,1C562.3,527.7,562.7,527.3,563,527z"/>
	<path class="st0" d="M562,528c-0.3,0.3-0.7,0.7-1,1C561.3,528.6,561.6,528.3,562,528z"/>
	<path class="st0" d="M561,529c-0.3,0.3-0.7,0.7-1,1C560.3,529.6,560.6,529.3,561,529z"/>
	<path class="st0" d="M560,530c-0.3,0.3-0.7,0.7-1,1C559.3,530.6,559.6,530.3,560,530z"/>
	<path class="st0" d="M570,520c-0.3,0.3-0.7,0.7-1,1C569.3,520.7,569.6,520.3,570,520z"/>
	<path class="st0" d="M559,531c-0.3,0.3-0.7,0.7-1,1C558.3,531.7,558.6,531.3,559,531z"/>
	<path class="st0" d="M475,532c0.3,0.3,0.7,0.7,1,1C475.6,532.7,475.3,532.4,475,532z"/>
	<path class="st0" d="M558,532c-0.3,0.3-0.6,0.7-0.9,1C557.4,532.6,557.7,532.3,558,532z"/>
	<path class="st0" d="M571,519c-0.3,0.3-0.7,0.7-1,1C570.3,519.6,570.6,519.3,571,519z"/>
	<path class="st0" d="M256,451c0.2,0.2,0.4,0.3,0.3,0.2C256.3,451.4,256.2,451.2,256,451L256,451z"/>
	<path class="st0" d="M297.9,614c-0.3,0.3-0.7,0.7-1,1C297.3,614.6,297.6,614.3,297.9,614z"/>
	<path class="st0" d="M548.2,425.1c0.2,0.2,0.4,0.3,0.6,0.5c-0.2,0.1-0.5,0.3-0.7,0.4C548,425.7,548.1,425.4,548.2,425.1z"/>
	<path class="st0" d="M253,634c-0.4,0.3-0.7,0.7-1.1,1C252.3,634.7,252.7,634.3,253,634z"/>
	<path class="st0" d="M252,635c-0.3,0.3-0.7,0.7-1,1C251.3,635.6,251.7,635.3,252,635z"/>
	<path class="st0" d="M251,636c-0.3,0.3-0.7,0.7-1,1C250.3,636.6,250.6,636.3,251,636z"/>
	<path class="st0" d="M250,637c-0.3,0.3-0.7,0.7-1,1C249.3,637.6,249.6,637.3,250,637z"/>
	<path class="st0" d="M249,638c-0.3,0.3-0.7,0.7-1,1C248.3,638.7,248.7,638.3,249,638z"/>
	<path class="st0" d="M248,639c-0.3,0.3-0.7,0.7-1,1C247.3,639.6,247.7,639.3,248,639z"/>
	<path class="st0" d="M247,640c-0.3,0.3-0.7,0.7-1,1C246.3,640.6,246.6,640.3,247,640z"/>
	<path class="st0" d="M246,641c-0.3,0.3-0.7,0.7-1,1C245.3,641.6,245.6,641.3,246,641z"/>
	<path class="st0" d="M245,642c-0.3,0.3-0.7,0.7-1,1C244.3,642.7,244.6,642.3,245,642z"/>
	<path class="st0" d="M244,643c-0.3,0.3-0.7,0.7-1,1C243.3,643.6,243.7,643.3,244,643z"/>
	<path class="st0" d="M243,644c-0.3,0.3-0.7,0.7-1,1C242.3,644.6,242.6,644.3,243,644z"/>
	<path class="st0" d="M242,645c-0.3,0.3-0.7,0.7-1,1C241.3,645.6,241.6,645.3,242,645z"/>
	<path class="st0" d="M241,646c-0.3,0.4-0.7,0.7-1,1.1C240.3,646.7,240.7,646.3,241,646z"/>
	<path class="st0" d="M240,647c-0.3,0.3-0.7,0.7-1,1C239.3,647.7,239.7,647.3,240,647z"/>
	<path class="st0" d="M239,648c-0.3,0.3-0.7,0.7-1,1C238.3,648.7,238.7,648.3,239,648z"/>
	<path class="st0" d="M430,649c-0.3-0.3-0.7-0.7-1-1C429.3,648.4,429.7,648.7,430,649z"/>
	<path class="st0" d="M238,649c-0.3,0.3-0.7,0.7-1,1C237.3,649.7,237.7,649.3,238,649z"/>
	<path class="st0" d="M237,650c-0.3,0.3-0.7,0.7-1,1C236.3,650.7,236.7,650.3,237,650z"/>
	<path class="st0" d="M236,651c-0.3,0.3-0.7,0.7-1,1C235.3,651.6,235.7,651.3,236,651z"/>
	<path class="st0" d="M235,652c-0.3,0.3-0.7,0.7-1,1C234.3,652.6,234.6,652.3,235,652z"/>
	<path class="st0" d="M234,653c-0.3,0.3-0.7,0.7-1,1C233.3,653.7,233.7,653.3,234,653z"/>
	<path class="st0" d="M233,654c-0.3,0.3-0.7,0.7-1,1C232.3,654.7,232.7,654.3,233,654z"/>
	<path class="st0" d="M232,655c-0.3,0.3-0.7,0.7-1,1C231.3,655.6,231.7,655.3,232,655z"/>
	<path class="st0" d="M426,656c0.4-0.3,0.7-0.7,1.1-1C426.7,655.3,426.3,655.7,426,656z"/>
	<path class="st0" d="M231,656c-0.3,0.3-0.7,0.7-1,1C230.3,656.6,230.6,656.3,231,656z"/>
	<path class="st0" d="M230,657c-0.3,0.3-0.7,0.7-1,1C229.3,657.6,229.6,657.3,230,657z"/>
	<path class="st0" d="M229,658c-0.3,0.3-0.7,0.7-1,1C228.3,658.6,228.6,658.3,229,658z"/>
	<path class="st0" d="M622.3,290c-0.5,0.3-0.9,0.7-1.4,1C621.4,290.6,621.9,290.3,622.3,290z"/>
	<path class="st0" d="M228,659c-0.3,0.3-0.7,0.7-1,1C227.3,659.6,227.6,659.3,228,659z"/>
	<path class="st0" d="M227,660c-0.3,0.3-0.7,0.7-1,1C226.3,660.6,226.6,660.3,227,660z"/>
	<path class="st0" d="M226,661c-0.3,0.3-0.7,0.7-1,1C225.3,661.6,225.6,661.3,226,661z"/>
	<path class="st0" d="M225,662c-0.3,0.3-0.7,0.7-1,1C224.3,662.6,224.6,662.3,225,662z"/>
	<path class="st0" d="M646,337c-0.1,0.2-0.3,0.5-0.4,0.7C645.7,337.5,645.9,337.2,646,337L646,337z"/>
	<path class="st0" d="M224,663c-0.3,0.3-0.7,0.7-1,1C223.3,663.6,223.6,663.3,224,663z"/>
	<path class="st0" d="M223,664c-0.3,0.3-0.7,0.7-1,1C222.3,664.6,222.6,664.3,223,664z"/>
	<path class="st0" d="M222,665c-0.3,0.3-0.7,0.7-1,1C221.3,665.6,221.6,665.3,222,665z"/>
	<path class="st0" d="M221,666c-0.3,0.3-0.7,0.7-1,1C220.3,666.6,220.6,666.3,221,666z"/>
	<path class="st0" d="M220,667c-0.4,0.3-0.9,0.7-1.3,1C219.1,667.6,219.5,667.3,220,667z"/>
	<path class="st0" d="M410.2,435.1c0.2,0.2,0.4,0.4,0.5,0.6c-0.3,0.1-0.5,0.2-0.8,0.4C410,435.7,410.1,435.4,410.2,435.1z"/>
	<path class="st0" d="M675,357c-0.1,0.2-0.3,0.5-0.4,0.7C674.7,357.4,674.9,357.2,675,357L675,357z"/>
	<path class="st0" d="M214,673c-0.3,0.3-0.7,0.7-1,1C213.3,673.6,213.6,673.3,214,673z"/>
	<path class="st0" d="M213,674c-0.3,0.3-0.7,0.7-1,1C212.3,674.6,212.6,674.3,213,674z"/>
	<path class="st0" d="M212,675c-0.3,0.3-0.7,0.7-1,1C211.3,675.6,211.6,675.3,212,675z"/>
	<path class="st0" d="M211,676c-0.3,0.3-0.7,0.7-1,1C210.3,676.6,210.6,676.3,211,676z"/>
	<path class="st0" d="M210,677c-0.3,0.3-0.7,0.7-1,1C209.3,677.6,209.6,677.3,210,677z"/>
	<path class="st0" d="M567,523c-0.3,0.3-0.7,0.7-1,1C566.3,523.7,566.7,523.3,567,523z"/>
	<path class="st0" d="M209,678c-0.3,0.3-0.7,0.7-1,1C208.3,678.6,208.6,678.3,209,678z"/>
	<path class="st0" d="M208,678.9c-0.3,0.3-0.7,0.7-1,1C207.3,679.6,207.6,679.3,208,678.9z"/>
	<path class="st0" d="M568,522c-0.3,0.3-0.7,0.7-1,1C567.3,522.7,567.7,522.3,568,522z"/>
	<path class="st0" d="M207,679.9c-0.3,0.3-0.7,0.7-1,1C206.3,680.6,206.6,680.3,207,679.9z"/>
	<path class="st0" d="M468,524c0.3,0.3,0.7,0.7,1,1C468.6,524.7,468.3,524.4,468,524z"/>
	<path class="st0" d="M206,681c-0.3,0.3-0.7,0.7-1,1C205.3,681.6,205.6,681.3,206,681z"/>
	<path class="st0" d="M205,682c-0.3,0.3-0.7,0.7-1,1C204.3,682.6,204.6,682.3,205,682z"/>
	<path class="st0" d="M204,683c-0.3,0.3-0.7,0.7-1,1C203.3,683.6,203.6,683.3,204,683z"/>
	<path class="st0" d="M203,684c-0.3,0.3-0.7,0.7-1,1C202.3,684.6,202.6,684.3,203,684z"/>
	<path class="st0" d="M566,524c-0.3,0.3-0.7,0.7-1,1C565.3,524.7,565.7,524.3,566,524z"/>
	<path class="st0" d="M215,671.9c-0.3,0.3-0.7,0.7-1,1C214.3,672.6,214.6,672.3,215,671.9z"/>
	<path class="st0" d="M201,685.9c-0.3,0.3-0.7,0.7-1,1C200.3,686.6,200.6,686.3,201,685.9z"/>
	<path class="st0" d="M200,686.9c-0.3,0.3-0.7,0.7-1,1C199.3,687.6,199.6,687.3,200,686.9z"/>
	<path class="st0" d="M466,522c0.3,0.3,0.7,0.7,1,1C466.6,522.7,466.3,522.3,466,522z"/>
	<path class="st0" d="M199,687.9c-0.3,0.3-0.7,0.7-1,1C198.3,688.6,198.6,688.3,199,687.9z"/>
	<path class="st0" d="M198,689c-0.3,0.3-0.7,0.7-1,1C197.3,689.6,197.6,689.3,198,689z"/>
	<path class="st0" d="M197,690c-0.3,0.3-0.7,0.7-1,1C196.3,690.6,196.6,690.3,197,690z"/>
	<path class="st0" d="M196,691c-0.4,0.3-0.9,0.7-1.3,1C195.1,691.6,195.5,691.3,196,691z"/>
	<path class="st0" d="M469,525c0.3,0.3,0.7,0.7,1,1C469.6,525.7,469.3,525.4,469,525z"/>
	<path class="st0" d="M192,696.1c0,0.3,0,0.5,0,0.8c-0.3-0.1-0.5-0.3-0.8-0.4C191.5,696.4,191.7,696.3,192,696.1z"/>
	<path class="st0" d="M192,698c0,0.3,0,0.6,0,0.8c-0.3-0.1-0.5-0.3-0.8-0.4C191.5,698.3,191.7,698.2,192,698z"/>
	<path class="st0" d="M565,525c-0.3,0.3-0.7,0.7-1,1C564.3,525.7,564.7,525.3,565,525z"/>
	<path class="st0" d="M467,523c0.3,0.3,0.7,0.7,1,1C467.6,523.7,467.3,523.4,467,523z"/>
	<path class="st0" d="M569,521c-0.3,0.3-0.7,0.7-1,1C568.3,521.7,568.7,521.3,569,521z"/>
	<path class="st0" d="M546,526c0.4,0.3,0.8,0.5,1.1,0.8C546.7,526.6,546.3,526.3,546,526z"/>
	<path class="st0" d="M564,526c-0.3,0.3-0.7,0.7-1,1C563.3,526.7,563.7,526.3,564,526z"/>
	<path class="st0" d="M577.7,526.8c-0.2-0.3-0.4-0.5-0.7-0.8C577.3,526.3,577.5,526.6,577.7,526.8z"/>
	<path class="st0" d="M202,685c-0.3,0.3-0.7,0.7-1,1C201.3,685.6,201.6,685.3,202,685z"/>
	<path class="st0" d="M743,416c0.8-0.4,1.6-0.7,2.3-1.1c0.1,0.3,0.2,0.6,0.3,0.8C744.7,415.8,743.9,415.9,743,416L743,416z"/>
	<path class="st0" d="M764,375.1c0.1-0.2,0.3-0.4,0.2-0.4C764.3,374.7,764.1,374.8,764,375.1L764,375.1z"/>
	<path class="st0" d="M745,401C745.2,400.8,745.3,400.5,745,401C745.5,400.7,745.2,400.8,745,401C745,401,745,401,745,401z"/>
	<path class="st0" d="M744.9,534c-0.5,4.7-3.4,8.1-7.2,10.6c-6.7,4.5-13.9,7-22,4.1c-6.8-2.5-8.7-8.4-4.4-14.3
		c5.8-8,17.1-10.9,25.3-9.1C741.3,526.4,744.2,529,744.9,534z"/>
	<path class="st0" d="M739.2,589.5c5.9-6.9,14.4-9.3,22.1-6.3c5.6,2.2,7,4.5,6.5,10.6c-3.5,7.5-18,9.9-26.2,3.9
		C739.5,596.2,739,594.5,739.2,589.5z"/>
	<path class="st0" d="M747.3,564.6c4-10.4,17.9-12,25.4-2.9c0.9,4.1-1,6.8-4.5,8.8c-5.5,3.2-11,2.9-16.5,0.2
		C749.5,569.7,747.9,567.6,747.3,564.6z"/>
	<path class="st0" d="M718,567.9c0,1.5,0,2.9,0,4.3c-5.2,4.3-10.9,3.4-16.8-2.7c0-1.5,0-3.2,0-4.9
		C706.8,560.4,712.1,561.4,718,567.9z"/>
	<path class="st0" d="M702.1,506.3c-0.4-2.2-0.4-4.3,1.4-5.2c2.4-1.2,5.1-2.6,7.8-2.7c2.8-0.1,6,0.4,8.1,2.9
		c0.9,4.4,0.3,5.8-3.2,7.6C711.5,511.2,706.1,510.3,702.1,506.3z"/>
	<path class="st0" d="M188.4,521.7c-1-1-2.1-2-3.1-3c-1.4-6.7,1.4-11.6,6.2-15.3c4.8-3.7,10.2-6.3,16.5-2.8c3.1,4.1,2.5,8-0.1,12
		C203.3,519.6,197.2,523.3,188.4,521.7z"/>
	<path class="st0" d="M216.2,533.6c-0.1-1.2-0.3-2-0.3-2.9c0-5.6,3.8-8.1,8.8-5.8c2.7,1.3,5,3,6.3,5.9c1.5,3.5,1.4,7-0.6,8.8
		c-2.1,1.9-6.8,1.7-9.6-0.7C218.9,537.3,217.6,535.2,216.2,533.6z"/>
	<path class="st0" d="M168,563.2c-0.1-1-0.1-1.8-0.1-2.7c0-0.8,0.1-1.6,0.2-2.4c5.4-7,12-8,17.7-2.6c0,1.4,0,3.1,0,4.6
		C180,567.3,173.5,568.5,168,563.2z"/>
	<path class="st0" d="M168,539.5c-0.9-1.1-1.8-2.1-2.8-3.1c-0.3-4.7,0.7-6.6,4.4-8.2c5-2.3,9.6-1.2,13.9,3.3c1.3,3.7-1,5.8-3.6,7.8
		C174.4,540.9,174.4,540.9,168,539.5z"/>
	<path class="st0" d="M199.2,539.7c-1.1-1.2-2.2-2.3-3.2-3.4c0.8-4.4,4.1-4.9,7.1-5.1c3.1-0.3,5.7,0.9,7,4.2
		C207.8,539.9,203.9,540.1,199.2,539.7z"/>
	<path class="st0" d="M234,684c-1.4,10-2.9,20.1-4.4,30.1c0,0.3-0.7,0.5-1.1,0.8c0.8-6.3,1.6-12.7,2.4-19c0.4-2.9,0.6-5.8,1.1-8.7
		C232.4,686,233.4,685,234,684z"/>
	<path class="st0" d="M237,679.9c-1,1.4-2,2.7-3,4.1C234.4,682.2,234.4,680.1,237,679.9z"/>
	<path class="st0" d="M239.1,676.9c-0.4,0.6-0.8,1.3-1.2,1.9C238.3,678.2,238.7,677.6,239.1,676.9z"/>
	<path class="st0" d="M237.8,678.9c-0.3,0.4-0.6,0.7-0.9,1.1C237.2,679.6,237.5,679.3,237.8,678.9z"/>
	<path class="st0" d="M600.2,502c0.2,6.6,0.3,13.2,0.5,19.7c0.1,4.5,0.1,8.9,0.1,13.4c-0.6-1.6-1.7-3.2-1.7-4.9
		c-0.2-8.7-0.2-17.3-0.1-26C599,503.5,599.8,502.7,600.2,502z"/>
	<path class="st0" d="M505.2,541.1c0,12-0.1,23.9-0.1,35.9c-0.4-0.8-1-1.6-1-2.4c0-11.2,0.1-22.4,0.1-33.6
		C504.5,541,504.8,541,505.2,541.1z"/>
	<path class="st0" d="M521.1,547c0-2.4,0-4.9,0-7.4c-2.4-2.1-4.6,0.6-6.9,0.4c-2.4-0.2-4.9,0-7.3,0c5-2.4,10.3-2.1,15.8-1.9
		C523.3,541.5,522.9,544.4,521.1,547z"/>
	<path class="st0" d="M505,576.9c0.7-0.1,1.3-0.1,2-0.2c-0.4,0.4-0.8,0.8-1.2,1.2C505.6,577.6,505.3,577.3,505,576.9z"/>
	<path class="st0" d="M505.2,541.1c-0.3,0-0.7,0-1-0.1c0.7-0.3,1.4-0.6,2.1-1C505.9,540.4,505.5,540.7,505.2,541.1z"/>
	<path class="st0" d="M290.1,714.3c-1.4,3.3-5.9,3.8-9.3,5.5c-8.3,4-16.9,7.6-25.4,11.2c-1.1,0.5-2.8,1.1-3.7,0.7
		c-4.3-2.3-8.5-4.9-12.7-7.4c0-4-0.2-7.5,0.8-11.2c1-3.9,0.9-8.2,1.2-12.3c0.2-4,1.2-7.6,3.7-10.9c4.8-6.2,9.4-12.7,14.3-18.9
		c1.5-1.9,3.5-3.7,5.6-4.6c5.9-2.4,12-4.4,18-6.6c1.8-0.7,3.5-1.5,5.7-2.5c1,1.4,2.1,2.5,2.6,3.8c0.8,2.1,1.6,4.4,1.9,6.6
		c0.8,5.2,2.7,10.1,4,15.2c1,3.9,0.9,8.1-0.7,12.2C293.8,701.2,292.3,707.3,290.1,714.3z M257.1,713.6c5.9-2.7,11.8-5.3,17.8-8.1
		c2-4.2,4.1-8.4,6.4-13c-0.4-4.2-0.8-8.6-1.3-13.4c-4.2,1.7-7.8,3.7-11.7,4.8c-3.2,0.9-5.1,2.9-6.7,5.4c-2.3,3.6-4.4,7.3-6.4,10.8
		c0,4.3,0,8.5,0,12.6C256,712.9,256.5,713.2,257.1,713.6z"/>
	<path class="st0" d="M609,507.9c2.7-4.5,5.5-8.9,8.1-13.2c5.1-3.7,10.2,0.1,15.3-0.8c1.7,2.9,2.8,5.7,2.7,9c0,1.1,0.3,2.3,0.6,3.4
		c1.5,7.1,3.1,14.1,3.8,21.4c0.2,2.1-0.5,3.7-1.8,5.3c-5.2,6.6-10.3,13.3-15.7,20.4c-5.5-3.4-9.1-8.5-12.8-13.4
		C609,529.4,609,518.6,609,507.9z M617.8,512.3c-0.8,3.8-1.3,6.5-1.8,9.2c-0.1,0.6-0.2,1.4,0,2c1.2,3.7,2.6,7.3,5.2,11.2
		c2.3-4.1,4.3-7.5,6-10.5c-1-4.4-1.9-8.1-2.9-12.2C621.7,512.1,619.6,512.2,617.8,512.3z"/>
	<path class="st0" d="M609,507.9c0,10.7,0,21.5,0,32.2c-0.4-1-1-2-1-3c-0.1-8.9-0.1-17.8,0-26.6C608,509.6,608.6,508.7,609,507.9z"
		/>
</g>
</svg>
