<?xml version="1.0" encoding="utf-8"?>
<!-- Generator: Adobe Illustrator 19.0.0, SVG Export Plug-In . SVG Version: 6.00 Build 0)  -->
<svg version="1.1" id="Layer_1" xmlns="http://www.w3.org/2000/svg" xmlns:xlink="http://www.w3.org/1999/xlink" x="0px" y="0px"
	 viewBox="291 134 1194 526" style="enable-background:new 291 134 1194 526;" xml:space="preserve">
<style type="text/css">
	.st0{fill:#FFFFFF;}
	.st1{fill:url(#SVGID_1_);}
	.st2{fill:url(#SVGID_2_);}
</style>
<path class="st0" d="M291.9,335.4c12.6-1.1,25.3-0.3,37.9-0.4c10.9-0.2,10.9,0,10.9,10.8c0,22.5,0,45,0,67.4c0,7.9,7,12.9,13.8,10.2
	c4-1.6,5.4-5.1,6.1-9c0.2-1.7,0.2-3.3,0.1-5c0-88.3,0-176.5-0.1-264.8c0-4.8,1.1-6.1,5.9-6c12.6,0.4,25.3,0.4,38,0
	c4.4-0.1,5.5,1,5.4,5.4c-0.1,84.5-0.2,168.9-0.1,253.4c0,11.3,0.9,22.7-2.4,33.7c-5.9,19.8-18.5,33.7-38.2,40.1
	c-33.6,10.9-67.4-8.6-75.6-43c-0.3-1.3,0.1-3.1-1.7-3.8V335.4z"/>
<path class="st0" d="M1181.1,138.7c15.2,0,30.3,0.2,45.5,0c3.5,0,4.5,0.8,4.5,4.4c-0.1,107.6-0.1,215.2,0,322.9
	c0,3.2-0.7,4.3-4.1,4.2c-15.7-0.2-31.3-0.2-47,0c-3.4,0-4.6-1.3-5.2-4.3c-3.6-18.4-7.3-36.8-11-55.2c-4.5-22.1-9.1-44.2-13.7-66.3
	c-0.3-1.6-1-3.1-2.2-4.4v5.7c0,39.8-0.1,79.6,0.1,119.4c0,4.3-1.1,5.2-5.2,5.1c-13.5-0.3-27-0.3-40.5,0c-4.2,0.1-5.6-0.7-5.5-5.3
	c0.2-46.6,0.1-93.3,0.1-139.9c0-60.3,0.1-120.6-0.1-180.9c0-4.6,1.3-5.4,5.5-5.3c16.2,0.3,32.3,0.3,48.5,0c4.2-0.1,5.7,1.1,6.4,5.3
	c3.4,23.4,7.1,46.7,10.8,70c3.6,22.8,7.4,45.6,11.2,68.4c0.7,0.8,1.1,0.4,1.2-0.3c0.2-1.7,0.2-3.3,0.1-5c0-44.4,0-88.8,0-133.2
	C1180.4,142.1,1179.6,140.2,1181.1,138.7z"/>
<path class="st0" d="M546.3,280.9c0,43.5,0.1,87,0,130.4c0,16.4-3.9,31.5-15.1,44.1c-12,13.5-27,19.4-44.8,18.6
	c-18.4-0.9-33.2-9.3-44-23.9c-8.3-11.1-11.5-24.1-11.5-38c0.1-70.1,0.1-140.3,0-210.4c0-19.6,0.1-39.3-0.1-59c0-3.3,0.8-4.2,4.1-4.2
	c13.2,0.2,26.3,0.3,39.5,0c4.6-0.1,5.4,1.4,5.4,5.6c-0.1,88.1-0.2,176.3-0.1,264.4c0,4-0.2,8,3.6,10.8c3,2.3,6.2,3.1,9.8,1.7
	s5.8-3.9,6.1-7.8c0.1-2,0.2-4,0.2-6c0-87.6,0-175.2-0.1-262.9c0-4.9,1.3-6.1,6.1-5.9c12,0.4,24,0.3,36,0c4.3-0.1,5.1,1.3,5.1,5.3
	C546.3,189.6,546.3,235.2,546.3,280.9z"/>
<path class="st0" d="M1296.8,304.4c0,35.5,0,71,0,106.4c0,5.2,2.2,8.5,6.9,10.4s8-0.4,11.1-3.5c2.3-2.3,2.1-5.1,2.1-7.9
	c0-27.1,0.1-54.3-0.1-81.4c0-4.2,1-5.3,5.1-5.2c13.2,0.3,26.3,0.1,39.5,0.1c2.3,0,4.1-0.1,4,3.2c-0.2,30.8,0,61.6-0.5,92.4
	c-0.4,24-18.5,46.6-42.9,53.4c-23.2,6.5-49.7-3.3-63.1-23.3c-7.2-10.6-11-23.2-10.9-36.1c0-72.3,0-144.6,0-216.9
	c0-22,8.6-40,27-52.1c17.2-11.3,36.1-13.2,55.1-4.5c23.5,10.8,34.9,29.8,35.2,55.4c0.3,24.6,0,49.3,0.2,74c0,3.3-1.1,3.8-4,3.8
	c-13.5-0.1-27-0.2-40.5,0c-3.3,0-4.1-0.9-4.1-4.1c0.1-23.8,0.1-47.6,0-71.5c0-5.6-4.8-10.4-10-10.4c-5.5,0-9.8,4.4-10,10.3
	c-0.1,1.3,0,2.7,0,4L1296.8,304.4z"/>
<path class="st0" d="M1383.8,304c0-53.3,0-106.6-0.1-159.9c0-4.2,0.8-5.6,5.3-5.5c30,0.3,60,0.3,90,0c4.8,0,5.7,1.5,5.6,5.9
	c-0.3,12.2-0.2,24.3,0,36.5c0,3.3-0.8,4.3-4.2,4.2c-13.7-0.2-27.3,0-41-0.1c-3.2,0-4.7,0.4-4.6,4.2c0.2,26.5,0.2,53,0,79.5
	c0,3.1,0.8,4,3.9,3.9c8.5-0.2,17,0,25.5-0.1c2.8-0.1,3.7,0.7,3.6,3.6c-0.1,14.7-0.1,29.3,0,44c0,2.7-0.9,3.3-3.4,3.3
	c-8.5-0.1-17,0-25.5-0.1c-2.8,0-4.1,0.3-4.1,3.7c0.1,29.6,0.1,59.3,0,89c0,3,1,3.5,3.7,3.5c13.7-0.1,27.3,0.1,41-0.1
	c3.7,0,5.2,0.6,5.1,4.8c-0.3,13.8-0.2,27.7,0,41.5c0,3.2-0.5,4.7-4.3,4.6c-30.8-0.2-61.7-0.2-92.5,0c-3.9,0-4.1-1.6-4.1-4.7
	C1383.9,411.7,1383.8,357.8,1383.8,304z"/>
<path class="st0" d="M726.1,329.4c0-45-0.1-90,0.1-135c0-4.6-1.3-5.5-5.5-5.3c-8.3,0.3-16.7,0-25,0.2c-2.6,0-3.5-0.7-3.5-3.4
	c0.1-14.7,0.1-29.3,0-44c0-2.8,1.1-3.3,3.6-3.3c36.7,0.1,73.3,0.1,110,0c2.8,0,3.3,1.1,3.2,3.5c-0.1,14.5-0.1,29,0,43.5
	c0,2.8-0.8,3.7-3.6,3.6c-8-0.2-16,0.2-24-0.2c-3.8-0.1-4.6,1-4.6,4.7c0.1,60.3,0.2,120.6,0.1,180.9c0,30.2-0.1,60.3,0.1,90.5
	c0,3.9-1,5-4.9,4.9c-13.8-0.2-27.7-0.2-41.5,0c-3.9,0.1-4.6-1.2-4.6-4.8C726.1,420,726.1,374.7,726.1,329.4z"/>
<path class="st0" d="M1181.1,138.7c-1.1,2-0.7,4.2-0.7,6.4c0,47.2,0,94.5,0,141.9c-0.6-0.6-1.1-1.3-1.3-2.1
	c-0.3-0.8-0.3-1.7-0.1-2.5c1.2-1.8,0.6-3.9,0.6-5.8c0-44.1,0.1-88.2,0.1-132.2C1179.7,142.4,1178.2,139.9,1181.1,138.7z"/>
<path class="st0" d="M960.8,450c0.1-0.3,0-0.7,0.2-0.9c0.5-0.6,0.8-0.1,0.8,0.3c0.2,1.8-0.1,3.5-0.8,5.2
	C960.9,453,960.8,451.5,960.8,450z"/>
<path class="st0" d="M636.1,414.3c-1,9.6-6,13.3-14,14c-1.2-0.3-2.3,0.1-3.3,0.6c-0.5,0.2-0.9,0.4-1.4,0.5c-2.9,0.9-6,0.8-8.8-0.1
	c-3.3-1.3-6.7-2.6-10-3.9c-6.6-2.7-13.3-5.3-20.1-7.4c-1.1-0.3-2.1-0.8-3.2-1.2c-3.3-1.3-6.7-2.7-10.6-1.3
	c2.2,29.8,20.6,56.1,53.4,58.6c25.8,2,47.5-10.4,57.9-34.1c5.9-13.5,7.3-27.5,7.1-41.9c-0.5-27.7-11.7-52.2-23.5-76.4
	c-5.3-10.8-11-21.4-16.8-32c-5.3-9.8-10.6-19.6-15.6-29.6c-7.4-15-14.5-30.3-15.9-47.4c-0.1-1.2-0.2-2.5-0.3-3.7
	c-0.8-8.5-1.6-17,3.1-25c0,0,0,0,0,0c1.8-1.6,4-2.7,6.3-3.3c2.3-0.6,4.8-0.6,7.1-0.1c2.8,0.5,5.5,1.5,8.2,2.5
	c3.3,1.2,6.6,2.4,10,2.8c6.1,0.6,10.9,3.5,15.6,6.3c0.6,0.4,1.2,0.7,1.8,1.1c4.3,2.5,9,4.3,13.9,5.1c4.9,0.8,5.7-0.3,5.1-5.4
	l-0.2-2.5c0,0,0,0,0,0c-1-6.8-2-13.5-4.8-20c-6-14.1-14.8-25.1-29.3-31.6c-9.9-4.4-20-4.8-30.3-4.3c-18,0.9-32,9.2-41.7,24.3
	c-10.4,16-12.8,34-12.2,52.6c0.7,21.5,8.1,41.3,16.7,60.6c7,15.7,15.2,31,23.7,46c9.1,15.8,17.1,32.2,24,49.1
	C634,382.3,637.7,397.9,636.1,414.3z"/>
<linearGradient id="SVGID_1_" gradientUnits="userSpaceOnUse" x1="658.1777" y1="589.4378" x2="642.6777" y2="562.9378" gradientTransform="matrix(1 0 0 -1 0 796)">
	<stop  offset="0" style="stop-color:#FFFFFF"/>
	<stop  offset="1" style="stop-color:#FFFFFF;stop-opacity:0"/>
</linearGradient>
<path class="st1" d="M627.4,180.6c4-0.4,8,0.3,11.6,1.9c0.6,0.3,1.3,0.5,1.9,0.8l0,0c2.6,1.2,5.3,2.4,8.4,1.2c0.3-0.1,0.7-0.1,1-0.1
	s0.6,0.2,0.9,0.4c1.9,2.7,4.7,3.7,7.6,4.8c2.4,0.9,4.7,1.7,6.7,3.5c3.5,3.3,9,4.1,14,4.3c2.4,0.1,2.4-1.4,2.4-2.9v0
	c0-0.5,0-1.1,0.1-1.5c1.1,2.9,1,5.9,0.9,8.9v0v0v0v0v0v0v0v0v0v0c0,0.5,0,1-0.1,1.5l0,0l0.1,0c0.4,2.3,0.4,4.7,0,7l0,0
	c0,0.8,0,1.6-0.1,2.5v0c0,0.5,0,1,0,1.5l0,0c0,0,0,0,0,0.1v1c-0.2,0.2-0.2,0.4-0.3,0.7l0.3-0.7c0.3,1.7,0,3.5-0.8,5.1c0,0,0,0,0,0
	l0,0.4v0v0c-0.1,0.8-0.1,1.7-0.2,2.5l0,0v0l-0.8,3l0,0c0,0,0,0-0.1,0l0.1,0l-0.2,3c0,0,0,0,0,0.1c0,0,0,0,0.1-0.1
	c0.1,0.5,0.2,1.1,0.1,1.6c-0.1,0.5-0.3,1-0.7,1.5l0,0l-0.4,2.8l0,0l0,0c0.2,1.1-0.4,2-1,2.9c-0.6,0.9-1.2,1.8-1,3l0,0
	c-0.7,2.2-1.4,4.4-2.1,6.5v0c-0.3,0.8-0.5,1.6-0.8,2.5l0,0l0,0c-0.7,2.4-1.3,4.7-2,7.1c0,0,0,0-0.1,0l0.1,0
	c-0.2,0.4-0.5,0.9-0.7,1.4l0,0l0,0c-0.1,0.2-0.2,0.4-0.3,0.6l0,0l-1.9,5l0,0c-0.4,0.5-0.6,1.2-0.9,1.9c-0.5,1.3-0.9,2.6-2.4,2.6
	c-1.9,0-2.6-1.7-3.3-3.2c-0.2-0.4-0.3-0.7-0.5-1.1c-3.8-7.2-8.7-13.7-13.6-20.1l0,0c-2.5-3.3-4.9-6.5-7.3-9.9
	c-0.5-0.8-1-1.6-1.5-2.4c-1.7-2.7-3.3-5.4-6.4-6.9c-1.6-0.8-1-2-0.5-3.1c0.1-0.3,0.3-0.6,0.4-0.8l0,0l0,0l-0.1-0.1
	c0-0.1,0-0.3,0-0.4c0-1,0-2,1-2.6l0,0c0.1-0.6,0-1.3,0-2c-0.1-1.4-0.2-2.7,0.9-3.9c0,0,0-0.1,0-0.1l0.1,0l0.1,0.1l0,0c0,0,0,0,0-0.1
	c0-6.4,0-12.7,0.1-19.1l-0.1,0l-0.2-2.9l0,0c-0.7-1.3-1.4-2.6-2.1-3.9c-0.9-0.3-0.9-1.1-0.9-1.8c0-0.1,0-0.2,0-0.3l0,0l0,0
	L627.4,180.6z"/>
<linearGradient id="SVGID_2_" gradientUnits="userSpaceOnUse" x1="604.7817" y1="420.8406" x2="592.2827" y2="394.8406" gradientTransform="matrix(1 0 0 -1 0 796)">
	<stop  offset="0" style="stop-color:#FFFFFF;stop-opacity:0"/>
	<stop  offset="1" style="stop-color:#FFFFFF"/>
</linearGradient>
<path class="st2" d="M615.9,371.4L615.9,371.4c-1,0.5-2.2,0.6-3.4,0.6c-2.5,0.1-5.1,0.2-5.4,4.4c-0.1,0.8-3.3,1.5-4.9,0
	c-1.2-1.1-2.4-2.3-3.5-3.5c-4.4-5-7.9-10.7-11.3-16.4l0,0c-2.1-3.4-4.1-6.8-6.4-10.1c-0.2-0.3-0.4-0.7-0.5-1v0
	c-0.4-0.9-0.8-1.8-1.9-1.7c-1.9,0.2-2.2,1.8-2.5,3.4c0,0.1-0.1,0.3-0.1,0.4l0.1,0l0,0c-1.6,2-2.6,4.4-3,7h0
	c-0.7,1.2-1.1,2.5-1.1,3.9c-0.8,0.6-0.9,1.5-1,2.4c0,0.2,0,0.3,0,0.5l0,0c-1.2,1.4-1.5,3.2-1.8,5l0,0.1c0,0,0,0.1,0,0.1l0,0l-1,2
	l0,0l-0.1,2l0,0l0,0l-0.9,2l0,0c0,0-0.1,0-0.1,0l-1,6l0,0c-0.1,0.4-0.3,0.8-0.4,1.2c-0.4,1.2-0.8,2.4-0.6,3.8l0,0
	c0,0.5-0.1,1-0.1,1.5c0,0.5-0.1,1-0.1,1.5l0.1,0l-0.1,0c-0.6,1.2-0.9,2.6-0.8,3.9l0,0l-0.1,3h0l-0.1,0.5c-0.5,3.6-1,7.1-0.1,10.7
	l0,0l0,0c0.1,0.9,0.1,1.8,0.1,2.7c0,0.7,0.1,1.3,0.1,2l0,0c-0.2,2.1-0.3,4.1,0.7,6.1c3.9,0.8,7.7,2.1,11.5,3.4l0,0l0,0l0,0l0,0h0
	l0,0l0,0l0,0l0,0l0,0h0l0,0v0l0,0l0,0l0,0l0,0h0l0,0c2.4,0.8,4.9,1.7,7.3,2.3c4.3,1.2,8.3,2.9,12.4,4.6v0c3,1.3,6,2.5,9.1,3.6
	c6.4,2.2,11.6,3,17.1-1l-8-4l0,0l-2.3-4.9l0,0c-0.2-0.4-0.3-0.8-0.5-1.2l0,0l0,0c-0.1-0.3-0.2-0.6-0.3-0.8l0,0
	c0-0.4-0.1-0.9-0.1-1.3v0c-0.1-0.8-0.1-1.7-0.2-2.5l0,0l0.3-15.2l0,0c1.1-1.1,1-2.4,0.9-3.7l0,0c0-0.4-0.1-0.9-0.1-1.3
	c0,0,0,0,0.1-0.1v-2.9l0,0c0.8-2.1,1.2-4.4,1.6-6.6l0,0l0,0l0,0l0,0l0,0h0l0,0l0,0l0,0l0,0v0l0,0l0,0l0,0l0,0l0,0l0,0l0,0l0,0
	c0.6-3.3,1.2-6.6,3-9.6c0.6-1,1.1-2.9,0.6-3.6c-0.7-1.1-0.9-0.3-1.1,0.4C615.9,371.1,615.9,371.3,615.9,371.4z"/>
<path class="st0" d="M1077.8,143.7c0-4.3-1.2-5.2-5.3-5.2c-17.5,0.2-35,0.2-52.5,0c-3.4,0-4.5,1.1-5.1,4.3
	c-3.1,18.3-6.3,36.6-9.5,54.9v0l0,0c-2.9,16.6-5.8,33.2-8.6,49.7c-2.5,14.8-5,29.5-7.5,44.3l0,0l0,0c-1.4,8.5-2.9,17-4.3,25.5
	c-0.9,5.1-1.7,10.3-2.6,15.4l0,0c-2.5,14.9-5,29.7-7.7,44.6c-0.3,1.4-0.5,2.8-0.7,4.2c-0.8,5-1.6,10.1-3.9,14.9v-4.8
	c-0.1-64.6-0.1-129.3,0-193.9c0-7.7-0.3-15.4-2.3-22.8c-3-11-8.7-20.2-18.2-27c-10-7.2-21.2-9.2-33-9.3c-9.3-0.1-18.5-0.1-27.8,0
	c-10.7,0-21.5,0-32.2-0.1c-3.8,0-5,0.8-5,4.8c0.1,107.3,0.1,214.5,0,321.8c0,4.2,1.3,4.8,5.1,4.8c18.8-0.2,37.7-0.3,56.5,0
	c19,0.3,35.4-4.8,47.6-20.1c1,1.1,0.7,2.3,0.5,3.5c-0.1,0.4-0.2,0.8-0.2,1.2c-0.3,4.2-1.1,8.3-2,12.4c-0.4,2.1-0.9,4.1-1.2,6.2
	c-2.6,14.9-5.1,29.8-7.6,44.7v0c-3.2,18.8-6.4,37.7-9.6,56.5c-4.7,26.9-9.5,53.7-14.4,80.5c-0.7,3.6-0.1,4.5,3.7,4.4
	c13.8-0.2,27.7-0.2,41.5,0c3,0,4-0.9,4.4-3.7c1.5-10.2,3.1-20.3,4.7-30.5l0,0v0c1.5-9.7,3-19.4,4.5-29.1
	c4.3-28.4,8.7-56.9,12.9-85.3c1.7-11.4,3.4-22.7,4.9-34.1c0.6-4.6,1.9-7.4,7.6-6.7c5.8,0.5,11.7,0.5,17.5,0c4.3-0.3,5.1,1.1,5.1,5.2
	c-0.1,16.1-0.1,32.3-0.1,48.4v0c0,16.8,0,33.7-0.1,50.5c0,4.8,1.5,5.6,5.8,5.5c11.3-0.3,22.7-0.4,34,0c4.7,0.2,5.3-1.4,5.3-5.6
	c-0.1-87.3-0.1-174.6-0.1-261.9C1077.6,256,1077.6,199.9,1077.8,143.7z M922.7,404.2v3.5c-0.4,9.5-2.9,11.9-12.5,11.9
	c-1.2-0.1-2.3-0.1-3.5,0c-3.6,0.6-4.3-1-4.3-4.4c0.1-27.3,0.1-54.7,0-82v0c0-9.8,0-19.5,0-29.3c0-8.1,0-16.2,0-24.3
	c0-28.4,0-56.7-0.1-85.1c0-3.9,0.5-5.4,5-5.3c13.3,0.3,15.3,2.2,15.3,15.8V404.2z M1028.6,419.4c-4.5-0.3-9-0.3-13.5,0
	c-2.9,0.1-3.7-0.7-3.2-3.6c1.5-9,2.8-18,4.2-27c0.7-4.5,1.4-8.9,2-13.4c4.2-27.4,8.4-54.8,12.7-82.2c0.2-1.5,0.5-3.1,0.8-4.6
	c0.1-0.7,0.3-1.4,0.4-2.1l0.7,0c0,43,0,85.9,0.1,128.9C1032.8,418.6,1031.9,419.6,1028.6,419.4z"/>
</svg>
