<svg xmlns="http://www.w3.org/2000/svg" width="2168" height="2150" viewBox="0 0 2168 2150">
  <defs>
    <style>
      .cls-1 {
        fill: #fff;
        fill-rule: evenodd;
      }
    </style>
  </defs>
  <path class="cls-1" d="M33,84.014V458.058h83V288L253,458.058H359L189,256,349,84.014H246L116,242V84.014H33Z"/>
  <path class="cls-1" d="M545,237V215h77V458.058H545V435s-29.091,29.284-62,30-63.3-3.852-79-16-48.511-32.43-59-81,6.706-89.144,15-101,23.748-34.881,48-46,38.807-14.585,64-14S518.433,215.024,545,237ZM421,338s3.2,30.536,20,46c16.756,15.42,26.609,23.95,57,19s52.685-33.617,54-60-8.566-55.458-36-68-54.574-4.583-67,6S421.241,307.43,421,338Z"/>
  <path id="Shape_23_copy" data-name="Shape 23 copy" class="cls-1" d="M980,237V215h77V458.058H980V435s-29.091,29.284-62,30-63.3-3.852-79-16-48.511-32.43-59-81,6.706-89.144,15-101,23.748-34.881,48-46,38.807-14.585,64-14S953.433,215.024,980,237ZM856,338s3.2,30.536,20,46c16.756,15.42,26.609,23.95,57,19s52.685-33.617,54-60-8.566-55.458-36-68-54.574-4.583-67,6S856.241,307.43,856,338Z"/>
  <path class="cls-1" d="M643.139,214.6h27.154V132.634h78.079V214.6h48.286v58.515H748.372V458.058H670.293V273.117H643.139V214.6Z"/>
  <path class="cls-1" d="M1096,214.6V458.058h79V314s3.24-36.1,18-45,27.92-6.544,33-6,23.02,11.162,26,35,2,160.058,2,160.058h79V321s2.51-28.587,7-36,12.48-20.629,26-22,34.62-1.735,41,21,5,38,5,38V458.058h78V300s3.64-54.215-30-77-72.67-15.6-88-12-46.25,23.405-50,34c-10.37-19.083-40.18-34.665-54-36-14.14-1.366-57.66-11.792-93,28,0.17-42.879,0-22.4,0-22.4h-79Z"/>
  <path class="cls-1" d="M2020,214.6h79V458.058h-79V214.6Z"/>
  <path class="cls-1" d="M2014,111c0.53,16.728,9.35,31.827,22,37s38.65,9.366,53-3,22.98-30.424,14-48-24.42-26.776-43-26S2013.07,81.528,2014,111Z"/>
  <path class="cls-1" d="M1829,214.6V458.058h78s-1.02-120.106,0-127.058,3.27-91.34,93-55c11.08-78.9,9-64,9-64s-65.36-22.22-101,28c0.13-44.541,0-25.4,0-25.4h-79Z"/>
  <path id="Shape_23_copy_2" data-name="Shape 23 copy 2" class="cls-1" d="M1712,237V215h77V458.058h-77V435s-29.09,29.284-62,30-63.3-3.852-79-16-48.51-32.43-59-81,6.71-89.144,15-101,23.75-34.881,48-46,38.81-14.585,64-14S1685.43,215.024,1712,237ZM1588,338s3.2,30.536,20,46c16.76,15.42,26.61,23.95,57,19s52.69-33.617,54-60-8.57-55.458-36-68-54.57-4.583-67,6S1588.24,307.43,1588,338Z"/>
  <path class="cls-1" d="M78,1572v403H204c31,0,77.02-1.26,136-39,52.983-33.9,71.831-87.21,76-98s17.629-67.5,5-113-31.926-67.88-41-79-33.89-32.1-42-37-53.954-32.79-109-35S78,1572,78,1572Zm89,68v267s47.586,2.19,76-7,42.907-16.81,59-33,23.441-34.56,29-60,1.265-61.73-3-80-12.036-28.8-22-42-27.612-26.65-47-33S202.393,1638.46,167,1640Z"/>
  <path class="cls-1" d="M646,1713h84v263H647v-25s-30.184,33-89,33-98.246-46-106-59-25-35.35-25-87,33-88,33-88,29.126-34.89,69-42,93.881-3.6,118,30C646.193,1691.22,646,1713,646,1713ZM513,1847c0,28.73,20.122,58.95,53,69s71.264-10.14,83-44,0.745-57.5-8-70-22.813-30.23-57-31S513,1797.41,513,1847Z"/>
  <path class="cls-1" d="M1765,1793v-72s-27.45-20.54-85-16-76.1,27.15-96,40-38.59,55.09-42,78-0.1,60.35,11,77,19.15,36.01,44,54,46.93,26.54,78,29,59.92-3.53,68-6,22-9,22-9v-72s-26.96,25-52,25-43.08-1.8-62-20-23.16-39.66-24-60,14.32-45.59,24-54,25.13-18.11,46-19S1736.8,1766.45,1765,1793Z"/>
  <path class="cls-1" d="M1786,2115h93l217-402h-95l-76,150-71-150h-97l127,223Z"/>
  <path class="cls-1" d="M771,1712.95v262.86h85V1836s0.591-35.86,9-52,21.121-19.27,31-20,25.258,2.03,32,10,14,28.11,14,41v160.81h85V1827s1.4-27.82,10-42,18.27-21,30-21,20.42-1.61,31,9,13.14,22.28,14,34,0,168.81,0,168.81h86V1816s-0.89-31.9-5-47-14.13-35.01-24-44-34.79-18.99-53-20-46.41.51-69,14-31,26-31,26-22.189-28.44-50-35c-23.62-5.57-40.537-7.66-66-1s-43,28-43,28v-24.05H771Z"/>
  <path class="cls-1" d="M197.5,749.5c15,0,30,0,46.068.128,12.814-.363,33.017-2.586,30.186,15.872,1.716,26.667.155,53.333,0.746,81,0,23.333,0,46.667-.281,70.918-0.406,24.977,32.971,12.739,50.868,15.783,13.679,2.413,42.69-6.355,41.875,15.3,1.286,15.333.07,30.667,0.007,46.383,2.386,17.367-5.422,25.237-23.469,22.617-11.667,0-23.333,0-36.186.03-9.189-.01-22.2-0.94-30.177,3.44-5.55,17.2-1.02,36.61-2.637,55.53v85c0,13.67,0,27.33-.2,42.45,1.6,11.26-3.779,31.92,8.2,37.6,27.667,2.51,55.333-.5,84.3,1.86,12.455,5.32,5.912,27.54,8,41.58-2.153,12.03,4.36,34.14-8.3,41.24-90.333.52-180.667,0.29-272.015-.58a31.678,31.678,0,0,0-6.443-2.59c-5.431-18.6-.91-39.29-2.454-59.56-0.811-7.94.814-18.88,8.912-20.11,16-1.98,32-.25,49.316-0.71,12.16-1.32,30.321,2.73,40.776-5.18,2.451-50.67-.453-101.33,1.908-153,0-12.33,0-24.67-.518-38.2-1.6-7.78,1.774-19.58-4.017-25.97-27.178-7.14-57.68,1.24-85.419-5.88-0.556-1.77-2.119-2.54-2.751-5.95-2.191-14.333-.963-28.667-1.407-44.161,0.649-10.866-1.505-28.562,11.112-30.434,22-.982,44-0.037,66.576-1.311,21.944,2.835,13.145-24.289,16.677-39.094-0.917-25-1.806-50-1.253-76,0-12.333,0-24.667-.387-38.082C188.038,767.823,182.545,750.231,197.5,749.5Z"/>
  <path class="cls-1" d="M1115.5,755.5h122c20,0,40,0,61.09-.3,19.52,1.789,40.53-2.443,59.86,3.349,0.56,1.778,2.12,2.548,2.88,5.955,2.28,11.667.62,23.333,1.3,36.113-0.93,11.014,1.86,24.1-2.41,35.213-18.39,7.408-42.4,1.688-63.72,3.674h-97c-16,0-32,0-49.19.291-14.91-1.845-33.31,2.907-46.55-4.117-5.72-11.13-2.2-25.791-3.44-39.371,1.3-11.85-2.52-27.437,4.39-37.578C1107.05,757.283,1111.5,756.56,1115.5,755.5Z"/>
  <path class="cls-1" d="M1105.5,912.5c76.33,0,152.67,0,230.39-.165,11.41,1.15,32.4-2.887,36.28,10.165,0.82,13,.02,26,0.42,40.336-0.96,9.861,2.93,27.219-7.09,32.973-23.33,1.607-46.67.128-71.55,0.258-16.33,3.125-49.11-7.452-46.45,19.433,0,72.33,0,144.67.16,218.45,5.52,16.48,32.26,6.55,47.9,9.51,12.38,0.09,30.46,1.79,31.82-12.96,2.25-10,.54-20,1.83-30.18-4.87-19.91,8-26.83,26.39-24.09,14.77,1.65,31.31-2.41,45.85,3.32,0.56,1.77,2.12,2.54,3.35,5.95,1.62,35.33.13,70.67,0.99,107.58-2.38,11.06,6.17,37.04-14.29,34.42h-175c-10.67,0-21.33,0-33.18.05-8.12-.78-23.13,3.31-22.75-10.05-0.17-77,0-154-.07-232,0-19,0-38-.11-57.94,0.6-13.65,1.14-31.922-15.89-30.365-10.67-1.622-21.33-.134-33.12-0.822-6.68.9-17.5-.7-19.95-5.873-3.63-12-1.12-24-2.12-37.112,1.29-11.7-2.22-25.411,3.57-36.512C1095.1,914.442,1100.22,913.242,1105.5,912.5Z"/>
  <path class="cls-1" d="M1667.07,608.079c14.83,0,29.65,0,45.93-.014,11.67-.008,30.93-1.151,28.25,16.447,4.4,21.923-2.86,48.421,4.68,69.013,33.42,6.464,70.01,2.1,105.81,3.518,35.49,0,70.99,0,107.73.245,4.45,1.4,4.36,2.343,8.24,3.291,7.91,24.531,1.96,52.883,3.99,80.035,0,93.906,0,187.812.08,283.066-0.42,22.91.45,45.83-1.43,70.02,0.6,19.63-25.96,14.03-41.78,14.9-26.06,0-52.12,0-79.65-.26-25.85,1.63-53.75-2.67-79.35,4.36-0.75,2.4-2.85,3.44-4.75,8.03-1.67,69.64-.09,139.29-0.79,210.72,0.77,14.18-2.7,38.77,10.87,46.12,25.61,1.48,51.23.07,78.18,0.62,12.58,0,25.17,0,39.2.24,12.41-1.52,26.77,2.09,39.63-2.98,2.37-10.56,5.72-35.58-6.04-41.64-23.81-3.04-47.62-.59-73.05-1.38-9.52-.78-24.99,2.21-31.22-4.85-5.11-6.25-4.48-20.87-5.05-31.62,0.89-22.01-1.38-44.03,1.32-67.39,0.95-21.57-1.11-43.14,1.93-66.39,11.29-12.21,39.6-6.06,58.89-7.99,40.89,1.27,81.78-1.43,124.67,1.85,9.19,12.36,2.49,36.84,4.64,55.46-5.38,15.64-33.05,6.1-49.78,8.98-17.52,0-35.04,0-54.04-.36-6.87,2.99-19.05-.61-20.39,9.99,2.75,14.6-7.63,39.58,16.47,35.91,33.25,1.63,66.5-2.02,100.48,3.39,11.01,4.78,6.3,26.86,7.36,41.38v91.66c0,13.93,0,27.86-.23,43.05,0.92,15.86-11.87,16.47-28.08,17.61H1818.04c-22.92,0-45.83,0-70.09.22-21.57-1.44-43.14,2.25-65.68-3.1-9.49-11.36-5.87-38.77-7.11-57.78V1207.91c0-13.93,0-27.86-.36-42.89,2.09-16.2-13.22-15.85-28.22-16.45-10.48.16-26.39-.78-36.18,5.42-3.05,48.08-.19,96.15-1.29,145.58,0,35.94,0,71.89.18,109.18-1.07,26.96,1.38,53.92-1.7,82.74-4.7,16.78-35.68,9.94-53.75,11.62-30.55,0-61.1,0-93.11.44-30.42-2.51-62.65,3.13-92.57-4.41-5.31-11.15-2.07-27.44-3.15-42.22,1.15-11.49-3.29-31.96,8.21-37.52,32.8-2.7,65.6-.34,99.75-1.1,11.68-.67,23.36.77,37.05-0.9,16.03-8.87,7.85-39.19,10.24-58.52-0.59-65.6.62-131.2-1.26-198.17-1.66-3.42-2.6-5.34-4.11-7.89-12.59-4.86-30.19-4.27-46.24-4.02-12.77-1.48-30.74,3.05-43.05-5.59-2.76-55.27-.15-110.53-1.16-167.146,0-83.122,0-166.244.13-250.947-0.69-8.174-.46-22.8,7.06-26.28,16.42-4,35.02-.509,53.47-1.794,26.96,0,53.92,0,82.29.252,27.04-1.616,55.21,2.835,81.66-5.5,6.69-12.6,3.99-30.2,4.35-46.2C1655.24,631.954,1647.65,608.654,1667.07,608.079ZM1528.23,775.223c36.85,0,73.69,0,111.92.841,14.86,0.68,13.68,18.872,14.13,33.551-4.42,19.723,7.34,53.133-12.82,64.895-36.4,1.121-72.79.034-110.09-.089-23.49,1.6-16.78-23-18.26-41.328,1.9-17.469-2.95-36.5,4.52-53.713C1519.17,777.765,1524.48,776.724,1528.23,775.223Zm-2.69,190.058c37.74,0,75.48,0,114.77.788,14.47,1.271,13.15,19.766,13.28,34.261,0,12.13,0,24.26.12,37.8-0.14,9.46-1.87,23.76-10.9,25.99-38.19,1.95-76.39.47-116.26-.52-19.09-.53-13.02-29.9-14.78-47.67,1.96-15.6-4.42-44.654,11.73-49.817Zm229.14-5.392c37.75,0,75.49,0,114.61.515,15.04-.853,14.04,19.217,14.26,34.053-5.3,19.473,9.15,56.9-15.64,64.393-37.29,1.22-74.58,1.41-113.56-.44-17.13-3.78-10.2-31.98-12.05-49.32,2.06-14.633-5.26-44.128,10.89-48.5Zm2.7-184.719c37.74,0.278,75.48-.293,114.78,1.476,13.48,1.525,10.16,22.326,10.58,34.971,0,12.131,0,24.263-.08,37.709,0.82,9.949-.72,23.522-12.05,25.256-38.19.8-76.39,0.319-116.24-.786-17.82-4.172-9.81-33.033-12.14-50.579,2.49-15.283-6.15-44.016,13.57-47.567C1757.38,775.223,1757.38,775.223,1757.38,775.17Z"/>
  <path class="cls-1" d="M653.078,608.295c23.584,1.663,47.168-2.066,72.384,2.035,7.934,21.325.214,50.2,4.917,75.461,2.323,3.264,1.3,5.095,3.229,8.219,24.76,4.591,53.053.552,80.271,2.053,24.87,0,49.741,0,76.345-.307,20.587,2.1,49.564-4.032,66.268,8.026,3.362,21.44.318,42.88,1.464,65.606V1020.24c0,30.87,0,61.75-.028,94.02-0.213,12.05,2.46,30.25-10.263,34.16-51.027,1.11-102.055.04-154.53,0.24-16.936,1.61-44.56-4.35-41,22.09,0,66.89,0,133.78-.138,202.42,1.343,13.43-3.879,36.77,9.143,44.1,24.87,3.72,49.741.65,75.9,1.92,25.3-.94,50.6,1.12,77.165-1.61,3.418-2.17,5.518-.88,6.136-6.27,1.116-9.87,1.915-19.73.315-30.88-2.787-.86.215-3.64-2.013-3.9-16.706-6.96-36.775-2.36-56.128-3.5-16.983-1.95-38.653,2.87-53.84-3.74-7.7-17.52-1.713-44.01-3.795-66.04,0-19.3,0-38.59-.174-59.6,1.47-14.17-3.675-36.95,7.892-46.77,30.016-3.84,60.033-.4,91.335-1.69,22.3,0,44.6,0,67.157.93,23.383-6.61,26.931,10.07,24.264,30.24-0.9,10.4,2.7,28.21-6.518,33.45-18.867,2.26-37.735.22-57.969,0.8-18.855,1.28-39.073-2.29-57.855,4.05-4.2,12.43-2.773,24.87-1.152,37.87,15.648,8.6,37.494,2.63,56.515,4.41,18.867,1,37.735-1.27,58.337,1.16,15.114,11,5.648,39.96,8.556,59.47,0,37.3,0,74.61-.047,112.61,0.992,17.66-6.826,24.07-24.395,22.54-99.482-.39-198.964.39-299.1-1.42-12.571-6.54-7.083-30.77-8.349-46.26V1272.37c0-30.01,0-60.03.287-91.4-2.27-13.4,2.041-34.2-18.39-32.2-14.481.88-30.606-2-45.492,3.37-5.624,18.07-3.859,39.36-4.585,59.77,0,77.62,0,155.23.253,234.13-1.484,16.29,1.867,32.59-2.5,50.22-6.843,9.97-28.9,5.19-44.062,6.38H452.4c-29.587,0-59.175,0-90.142-.48-13.229-1.67-9.842-22.7-10.348-35.54,0.889-12.86-1.08-25.73,1.6-40.02,5.134-10.7,23.507-6.8,35.854-7.58,25.3,0,50.6,0,77.291-.01,10.955-.1,23.872,1.06,34.668-3.07,10.921-15.91,4.453-44.55,6.391-66.38,0-43.31,0-86.62.136-131.22-0.865-18.43,1.321-36.87-1.9-57.12-3.293-16.63-29.551-10.61-46.232-12.12-13.931-1.68-35.662,3.66-47.227-6.65-2.971-63.04-.182-126.07-1.259-190.392,0-47.168,0-94.336-.312-142.791,1.708-35.162-2-70.324,3.6-106.062,4.193-7.917,23.152-6.626,35.307-7.142,46.311,0,92.622,0,140.67-.037,19.311-1.152,56.421,8.268,49.719-25.691,0-11.149,0-22.3-.231-34.766C641.212,624.791,639.062,608.86,653.078,608.295ZM527.01,774.372c33.875,0.96,67.751-1.358,103.445,2.046,14.841,5.458,9.239,30.51,11.053,45.967-0.137,15.243,1.058,35.295-4.758,48.719-19.8,7.811-43.57,1.572-66.076,4.159-21.468-2.271-44.171,2.963-65.13-4.089-7.875-9.171-5.027-27.261-5.7-41.324,0.936-14.151-1.33-28.3,2.137-43.818C503.277,775.4,515.315,776.257,527.01,774.372Zm-10.292,190.4c37.306,0.793,74.612-.881,113.4,1.952,12.337,1.956,9.952,22.4,10.1,35.5,0,12,0,24.01-.867,36.05,7.62,31.59-23.819,27.26-45.444,26.98-16.3,0-32.589,0-50.17.03-12.006-.34-24.013,1.21-36.528-2.6-12.631-10.09-4.845-35.57-7.364-53.21C501.529,994.12,493.605,964.2,516.718,964.774Zm230.267-.018c37.306,0.9,74.612-1.025,113.481,2.2,10.6,2.9,9.444,22.416,10.6,37.469-4,19.02,8.372,59.69-19.886,61.15-38.163-1.68-76.326,2.03-115.08-2.93-11.326-10.6-5.576-36.26-7.243-54.31C729.987,992.268,724.106,963.348,746.985,964.756Zm9-190.222c28.3,0,56.6,0,86.181.12,9.863,1.78,23.034.348,25.974,8.885,4.678,18.438,1.113,36.877,2.432,56.819-0.434,11.851,1.264,32-12.96,34.154-20.583.894-41.166,0.019-63.284,0.834-19.607-2.871-43.69,4.124-61.348-5.618-5.882-18.867-3.447-37.734-4-57.888-0.4-9,1.071-18.01,3.017-28.269C734.378,774.748,747.52,776.475,755.99,774.534Z"/>
  <path class="cls-1" d="M1436,1713h84v263h-83v-25s-30.18,33-89,33-98.25-46-106-59-25-35.35-25-87,33-88,33-88,29.13-34.89,69-42,93.88-3.6,118,30C1436.19,1691.22,1436,1713,1436,1713Zm-133,134c0,28.73,20.12,58.95,53,69s71.26-10.14,83-44,0.74-57.5-8-70-22.81-30.23-57-31S1303,1797.41,1303,1847Z"/>
</svg>
