<?xml version="1.0" encoding="utf-8"?>
<!-- Generator: Adobe Illustrator 19.0.0, SVG Export Plug-In . SVG Version: 6.00 Build 0)  -->
<svg version="1.1" id="Layer_1" xmlns="http://www.w3.org/2000/svg" xmlns:xlink="http://www.w3.org/1999/xlink" x="0px" y="0px"
	 viewBox="0 0 2802.1 1410.3" style="enable-background:new 0 0 2802.1 1410.3;" xml:space="preserve">
<style type="text/css">
	.st0{fill:#FFFFFF;}
</style>
<g>
	<path class="st0" d="M2802.1,936c-0.7,4-1.6,7.9-1.9,11.9c-1.4,14.8-2.6,29.5-4.1,44.3c-1.8,17.7-4,35.3-5.9,52.9
		c-0.8,7-1.2,14.1-2.2,21.1c-0.2,1.5-1.6,3.5-3,4.2c-4.6,2.1-9.5,3.6-14.6,5.5c-2.1-6.9-4-13.8-6.3-20.6
		c-6.9-19.7-15.9-38.3-29.5-54.3c-17.7-20.9-39.9-35-66.5-41.9c-15.9-4.1-32.1-5.9-48.5-4.9c-17.4,1-34.4,3.8-50.2,12.1
		c-19.5,10.2-31.3,26.4-38.3,46.9c-5.4,15.9-1.4,29.1,10.3,40.7c11.8,11.8,25.9,19.9,41.1,25.9c28.6,11.3,57.6,21.3,86.3,32.3
		c23.3,8.9,46.2,18.8,66.3,34c22.1,16.6,38.2,37.3,42.8,65.2c3,18.1,1.5,36.1-5.1,53.4c-8.9,23.5-21.2,45.2-37.4,64.4
		c-16,18.9-35.3,33.9-57,45.9c-21.4,11.9-44.3,19.6-68.3,23.8c-17.5,3.1-35.2,4.3-52.9,3c-20.6-1.5-40.3-6.4-58.7-16.6
		c-15-8.2-31.3-12.7-48.3-15.6c-12.5-2.1-22.6,2.4-32.5,8.4c-16.8,10.2-33.3,21.1-50.7,32.2c3-9.2,5.9-17.7,8.7-26.2
		c12.9-39,25.8-78.1,38.7-117.1c2.3-7,4.6-14.1,7-21c1.1-3.2,2.6-5.6,6.6-6.3c6.7-1.3,13.2-3.4,20-5.2c3.9,26.1,10.5,51.3,23.2,74.6
		c16.1,29.5,38.7,51.5,71.6,61.2c15.6,4.6,31.5,5.5,47.9,4.1c19-1.7,37.2-5.7,54.3-14.1c26.8-13.1,46.5-33.5,57.5-61.2
		c5.1-12.8,0.9-25.6-6.7-36.8c-9.2-13.6-22.2-23-36.6-29.9c-21.1-10.1-42.8-18.9-64.2-28.3c-17.4-7.6-34.8-15.2-52.3-22.8
		c-7.1-3.1-14-6.5-21.3-9c-11.8-4-21.5-11.4-30.6-19.3c-15.2-13.3-27.1-29.1-31.9-49.4c-3.9-16.6-2.4-32.8,2.3-49.1
		c6.5-22.5,17.4-42.4,33-59.8c23.2-25.9,51.7-43.2,84.4-54.2c16.4-5.5,33.3-8.1,50.5-9.4c27.3-2.1,53.5,3.4,79.5,10.5
		c12.5,3.4,24.9,7,37.6,9.4c9.9,1.9,19.7-0.6,28.7-5.1c9.2-4.6,18.2-9.7,27.3-14.6C2802.1,932.7,2802.1,934.3,2802.1,936z"/>
	<path class="st0" d="M696.9,389.5c8-5.8,15.2-11,22.3-16.2c27.5-20.2,55.1-40.4,82.6-60.7c36-26.5,71.9-53.2,107.9-79.8
		c27.1-20,54.4-39.6,81.3-59.9c18-13.5,34.8-28.3,48.4-46.6c12.6-17.1,1.9-33.5-15.2-36.2c-8.8-1.4-17.7-1.9-26.6-2
		c-17-0.3-34-0.1-51-0.1c-0.3,0-0.6-0.1-1.8-0.4c1.6-6.2,3.2-12.4,5-18.5c1.2-4.2,1.4-10.1,4.3-12.1c3-2.2,8.6-0.8,13.1-0.8
		c92.2,0,184.3,0,276.5,0c2,0,4,0,6.3,0c-2.7,10.1-5.2,19.8-8,29.5c-0.3,1.1-2.5,2.3-4,2.4c-7.9,0.5-15.9,0.7-23.8,1.1
		c-19.8,0.9-38.7,6-57.2,12.7c-36.7,13.3-69.4,33.7-100.7,56.7c-38,28-75.9,56-113.9,84.1c-14.7,10.9-29.2,21.9-44,32.6
		c-2.8,2-2.3,3.6-1.3,6.1c13.2,32.9,26.4,65.8,39.5,98.8c15.8,39.7,31.6,79.4,47.4,119.1c14.8,37.2,29.2,74.6,44.6,111.5
		c10,24,25.2,44.2,50.2,54.4c10.6,4.4,22.1,6.5,33.6,9.7c-2.2,8.4-4.7,18.3-7.4,28.2c-0.2,0.8-1.5,1.6-2.5,2c-0.9,0.3-2,0.1-3,0.1
		c-106.8,0-213.7,0-320.5,0c-1.3,0-2.7,0-4.5,0c2.7-10,5.1-19.8,8-29.4c0.4-1.2,3.3-2.4,5-2.5c17.8-0.2,35.7,0.3,53.5-0.2
		c12.5-0.4,24.8-2.4,36.1-8.4c11.6-6.1,18.6-15,16.9-28.9c-0.6-4.5-1-9.2-2.4-13.5c-6.2-17.9-12.4-35.8-19.3-53.4
		c-13.5-34.4-27.4-68.7-41.3-102.9c-10.9-26.9-21.9-53.7-32.8-80.5c-3.8-9.4-7.6-18.8-11.5-28.6c-12.1,9.2-23.9,18.1-35.7,27
		c-14.5,11.1-29,22.2-43.5,33.2c-7.2,5.5-14.6,10.7-21.6,16.3c-1.5,1.2-2.1,3.6-2.7,5.6c-12.6,45.8-25.2,91.7-37.7,137.6
		c-3.9,14.3-8,28.6-10.9,43.2c-2.7,13.6-2.6,27.3,6.5,39.1c6.3,8.1,15.1,12.6,24.9,13.2c16.9,1.1,33.9,0.9,50.8,1.2
		c2.7,0,5.3,0,8.5,0c-2.8,10-5.3,19.5-8.2,29c-0.4,1.2-2.3,2.1-3.6,2.9c-0.5,0.3-1.3,0.1-2,0.1c-106.2,0-212.3,0-318.5,0
		c-1.5,0-3,0-5.1,0c3-10.9,5.8-21.3,8.8-32c14.8,0,29.4,0.6,44.1-0.1c28.4-1.4,50.4-13.8,64.6-39.2c9-16.1,12.6-34,17.6-51.4
		c7.3-25.4,14-51,20.9-76.6c12.5-46.3,24.9-92.7,37.5-139c8.3-30.7,16.8-61.4,25.2-92.1c11.8-43.2,23.8-86.3,34.9-129.6
		c2.2-8.8,1.9-18.8,0.6-27.9c-2.2-16.4-14.3-24.2-29.3-26.8c-11.3-1.9-23-1.6-34.6-2.2c-3.8-0.2-7.6,0-12,0
		c2.9-10.8,5.7-21.3,8.6-31.8c107,0,214,0,321.7,0c-2.9,10.7-5.8,21.1-8.7,31.8c-17.9,0-35.7-0.4-53.5,0.1
		c-30.9,0.8-54.7,15-66.7,46.5c-7.6,19.7-12.5,40.5-18.2,61c-7,25-13.6,50.1-20.3,75.1c-7.6,28.1-15.2,56.1-22.8,84.1
		c-2.8,10.2-5.8,20.4-8.7,30.6C697.1,386.3,697.2,387.3,696.9,389.5z"/>
	<path class="st0" d="M1845.5,982c2.1-7.8,3.9-14.9,6.1-21.9c0.3-1,2.8-1.9,4.3-2c9.1-0.5,18.2-0.4,27.3-1.2c12.1-1,24.2-2.3,36.2-4
		c13.4-1.9,27.1-3.3,40-7c18.2-5.2,35.9-12,53.7-18.6c10.7-4,21-9.1,31.8-13.8c-5,18.2-9.9,36.4-14.9,54.7
		c-9.3,34.4-18.7,68.7-28,103.1c-12.3,45.4-24.7,90.7-37,136.1c-4.7,17.3-9.9,34.6-13.6,52.1c-4.1,19.9-4.5,39.9,4.6,59
		c7,14.6,18.2,24.7,33.4,29.4c11.2,3.4,23,6.6,34.5,6.6c11.2,0,22.6-3.4,33.5-6.8c30.4-9.4,58.2-24.6,85.9-39.9
		c8.5-4.7,12.5-10.3,15-19.7c15.4-58.6,31.7-117,47.6-175.4c7-25.7,14.2-51.2,20.5-77.1c2.5-10.4,2.8-21.2-1.5-31.5
		c-4.9-11.8-14.4-18.1-26.3-19.8c-13.5-1.9-27.3-2.1-41.2-3.1c1.7-6.6,3.5-13.9,5.7-21c0.3-1,2.5-1.9,3.9-2
		c6.6-0.5,13.2-0.5,19.8-1.1c12.8-1.2,25.6-2.2,38.2-4.1c16-2.4,32-5.1,47.8-8.6c31.3-6.9,61.6-17.2,91.1-29.8
		c0.7-0.3,1.5-0.5,3.1-1c-1.6,6-3,11.6-4.5,17.2c-11.3,41.6-22.6,83.2-33.9,124.8c-12.7,46.6-25.3,93.3-37.9,139.9
		c-9.8,35.9-19.8,71.7-29.3,107.7c-3.9,14.7-4.8,29.8,3.6,43.5c7.4,12.1,19.4,17.1,32.8,19.5c5.2,0.9,10.4,1.4,15.8,2.2
		c-2,7.1-3.7,14.1-5.9,20.9c-0.4,1.2-2.2,2.8-3.5,2.8c-11.9,0.5-23.9,0.8-35.8,1.1c-13.9,0.4-27.9,0-41.8,1.1
		c-34,2.7-67.6,7.8-99.7,20.3c-0.8,0.3-1.8,0.4-3.4,0.7c7.2-26.7,14.3-52.7,21.7-80c-6.4,3.8-11.8,6.9-17,10.1
		c-28.4,17.5-58.1,32.4-89.7,43.2c-18.6,6.4-37.6,10.9-57.3,12.7c-22,2-43.4,0.5-64.4-6.2c-28.2-9-49.2-26.7-63.5-52.8
		c-9.8-18-13.3-37.3-11.2-57.2c1.4-13.1,5.3-25.9,8.7-38.7c8.9-33.8,17.9-67.5,27.1-101.2c7.7-28.4,15.7-56.7,23.4-85.1
		c3.7-13.7,8.3-27.3,7.6-41.9c-0.9-15.9-9.4-27.9-24.1-31.8c-8.9-2.4-18.4-3-27.6-4.1C1853.9,981.6,1850.2,982,1845.5,982z"/>
	<path class="st0" d="M480.7,776c-15.9,0-31.4-0.4-46.9,0.1c-18.2,0.7-34.5,7.2-47.4,20.3c-11.3,11.4-18.1,25.6-22.3,41
		c-10.5,38.3-20.7,76.6-31.1,114.9c-8.8,32.3-17.8,64.5-26.6,96.8c-9.6,35.1-18.9,70.3-28.5,105.5c-7.8,28.5-15.7,57-23.5,85.5
		c-5.8,21.4-12.2,42.8-16.8,64.5c-2,9.6-1.9,20.2,0,29.9c2.7,13.9,13.2,21.5,26.7,24.3c6.4,1.4,13,1.8,19.5,2.1
		c9.5,0.3,19,0.1,29,0.1c-2.8,10.5-5.6,20.6-8.4,30.8c-101.4,0-202.7,0-304.6,0c1.9-7.1,3.8-14,5.6-20.8c0.5-2.1,1.1-4.1,1.5-6.2
		c0.5-2.9,1.9-4,5-3.9c10.2,0.2,20.3,0.5,30.5,0c16.5-0.8,32.1-4.7,45.3-15.3c14.1-11.3,23.1-26.1,28.1-43.1
		c7.7-26.1,14.8-52.5,22-78.7c6.9-25.2,13.7-50.4,20.5-75.7c14.9-55,29.7-110,44.6-164.9c9.7-35.8,19.7-71.5,29.4-107.2
		c4.2-15.4,9-30.8,11.9-46.5c1.7-9,1.6-18.8-0.3-27.8c-3.1-15.2-16-22.9-31-24.5c-11-1.2-22.2-0.9-33.3-1.2c-3.8-0.1-7.6,0-12.3,0
		c1.6-6.3,2.9-12.2,4.5-18.1c1.3-4.6,1.5-10.7,4.6-13.1c2.9-2.3,8.9-0.8,13.6-0.8c96.8,0,193.6,0,290.5,0c2.6,0,5.3,0,8.5,0
		C486.4,754.9,483.6,765.3,480.7,776z"/>
	<path class="st0" d="M797.8,1273c-17.4,15.9-34.1,31.5-51.2,46.8c-18.8,16.8-39.2,31.4-61.1,44c-25.5,14.8-52.5,25.8-81.4,32.3
		c-21.8,4.9-43.7,6.9-65.8,5.7c-31.5-1.7-62.2-7.3-90.6-21.9c-36.9-19.1-62.6-48-75.5-87.7c-4.1-12.7-7-25.6-7.1-39
		c-0.2-12.2-1.1-24.5,0.2-36.6c3.4-32.5,11.7-63.9,24.6-94c11.3-26.4,25.8-50.9,43.8-73.2c12.3-15.2,26.1-29.1,41.1-41.8
		c15.1-12.8,31-24.4,48-34.5c28.6-17.1,59.1-29.4,91.9-36.1c17.1-3.5,34.3-6.1,51.9-6c11.7,0.1,23.5-0.7,35.1,0.2
		c26.8,2.1,52.9,7.1,76.8,20.1c14,7.5,26.3,17.4,35.4,30.5c11.8,17,14.1,35.7,8.2,55.4c-6.7,22.4-19,40.2-41.3,49.5
		c-20.7,8.6-45.5,5.6-58.7-14.2c-7-10.5-7-22.1-3.2-33.5c3.9-11.6,9.3-22.8,13.8-34.2c2-5,4-10.1,5.3-15.3
		c2.2-8.5-0.7-15.5-7.8-20.6c-10-7.1-21.4-10.8-33.2-12.9c-37.2-6.6-70.2,3.8-99.8,26.3c-23.8,18.2-42,41.3-57.2,66.9
		c-23.5,39.6-39,82.4-48.9,127.3c-3.5,16-6.9,32-8.7,48.2c-2.7,24.4-2.7,48.8,6.2,72.3c11.3,29.9,33.2,47.9,63.6,55.8
		c10.6,2.7,21.6,4.5,32.5,5c19.9,0.8,38.9-4.5,57.8-10.3c31-9.4,59-24.6,84.6-44.2c17.1-13.1,33.5-27.3,50.2-41
		c1.9-1.6,3.3-2.5,5.8-0.4C787.3,1265.7,792.2,1268.9,797.8,1273z"/>
	<path class="st0" d="M1337.1,1391.8c2.3-8.2,4.4-15.8,6.2-22.6c13.9-2.1,27.5-3.5,40.8-6.4c10.5-2.3,21.1-5.1,28.7-14
		c14.6-17.1,23.8-36.8,29.4-58.5c6.4-24.8,13.3-49.5,20-74.2c9.6-35.4,19.3-70.8,29-106.2c6.5-23.9,13.1-47.9,19.4-71.9
		c3.2-12.2,4.6-24.6-0.3-36.8c-5.6-13.9-17.3-19.2-30.9-21.1c-9.5-1.3-19.2-1.2-29.5-1.7c1.5-6,2.9-12.1,4.6-18.1
		c2.5-9.4,2.6-9.2,12.3-9.4c13.8-0.2,27.6-0.1,41.3-1.1c29.5-2.1,58.4-7.7,86.5-17c17.9-5.9,35.8-12.3,53.6-18.4
		c0.8-0.3,1.6-0.4,3.4-0.8c-8.2,30.4-16.3,60.2-24.8,91.4c5.2-4.6,9.4-8.3,13.6-11.9c27.5-23.2,56.6-43.7,91.1-55.3
		c11.8-4,23.9-6.4,36.5-7.1c12-0.6,23.6,0.1,34.5,5.2c26,12.3,34.9,33.1,27,59.1c-4.5,14.9-13.7,26.8-25.6,36.8
		c-13.7,11.5-29.7,16.6-47.3,16c-21.9-0.8-33.5-9-38.6-30.6c-1.2-5.1-2.4-10.2-3.9-15.1c-4.4-13.7-10.2-14.7-22.4-11.5
		c-18.4,4.8-33.3,15.8-48.4,26.6c-8,5.8-15.9,11.7-23.1,18.4c-2.8,2.6-4,7.4-5.1,11.3c-10.3,37.6-20.4,75.3-30.7,113
		c-11.4,41.8-23,83.5-34.1,125.3c-3.2,12.1-6,24.6-7.1,37c-1.7,19.7,11.1,36.2,30.8,41.5c7.7,2.1,15.6,3.1,23.9,4.7
		c-2.1,7.7-4.2,15.4-6.3,23.3C1506.9,1391.8,1422.3,1391.8,1337.1,1391.8z"/>
	<path class="st0" d="M1147.6,705c2.3-8.7,4.5-16.7,6.7-25c8,0,15.8,0.3,23.6-0.1c23.2-1.1,44-8.2,60.2-25.6
		c12.3-13.2,19.1-29.3,23.8-46.4c9.9-36.5,19.8-73.1,29.7-109.6c12.3-45.4,24.7-90.8,36.9-136.2c2.7-10.1,3.6-20.4,1.8-30.8
		c-2.7-15.4-12.8-24.1-27.1-27c-10.6-2.1-21.6-1.7-32.5-2.3c-2.8-0.2-5.6,0-9.1,0c2.2-7.8,4.1-15.1,6.3-22.2
		c0.3-0.9,2.2-1.7,3.4-1.7c13.9-0.4,27.9-0.4,41.8-1.2c14.3-0.8,28.5-2.8,42.8-3.7c22.6-1.5,43-11,64.5-16.7
		c14.8-4,29.4-8.7,44.9-13.4c-0.9,3.8-1.6,7.3-2.5,10.6c-12.2,45.1-24.5,90.1-36.7,135.2c-10,36.9-20.1,73.7-30.1,110.6
		c-10.8,39.8-21.8,79.7-32.2,119.6c-2.8,10.6-3.5,21.5-0.8,32.7c4.1,16.6,16.5,24.8,31.9,27.2c5.7,0.9,11.5,0.9,17.3,1.1
		c5.8,0.2,11.6,0,17.8,0c-2,7.9-3.9,15.4-6,22.9c-0.2,0.8-1.5,1.7-2.4,2c-1.1,0.4-2.3,0.1-3.5,0.1c-88.5,0-177,0-265.4,0
		C1151.3,705,1150,705,1147.6,705z"/>
	<path class="st0" d="M1357.8,150.1c1.2-23,8.5-42.9,22.1-60.2c15.1-19.2,33.8-33.5,58.1-39.3c21.8-5.2,42.7-3.5,61.8,9.3
		c11.5,7.8,16.9,18.7,18.5,32.5c1.7,14.8-0.1,29.1-6.6,42.2c-5.3,10.8-12.2,21.1-19.6,30.6c-13.3,17.3-31.8,27-52.5,32.9
		c-18.1,5.2-36.1,5.4-53.5-1.5c-15.6-6.2-23.8-19.1-26.9-35.2C1358.3,157.5,1358.2,153.3,1357.8,150.1z"/>
	<path class="st0" d="M2113.1,0c-0.2,0.3-0.3,0.6-0.5,0.8c-22,11.8-44.7,22.5-68.5,30.1c-22.7,7.2-45.6,13.9-68.9,18.7
		c-18.1,3.8-36.8,4.4-55.2,6.4c-3.4,0.4-6.9,0.6-10.3,1.1c-0.9,0.1-2.1,1.2-2.4,2c-2.1,7.5-4,15-6,22.8c10,0,19.7-0.5,29.3,0.2
		c7.8,0.5,15.7,1.7,23.1,4c11.8,3.6,19.2,15.1,19.5,27.4c0.3,9.2-1.3,18-3.7,26.8c-11.3,41.3-22.4,82.7-33.6,124
		c-1.2,4.6-2.7,9.1-4.2,14c-2.6-1.9-4.4-3.2-6.3-4.5c-28.8-20.8-61.1-30.7-96.5-30.8c-5.9,0-11.9,0.3-17.8,1
		c-13.8,1.8-27.7,3.1-41.3,6c-49.7,10.8-91.5,36.4-128.1,70.9c-9.1,8.6-17.5,18.2-25.8,27.6c-14.5,16.6-26.5,35.1-36.9,54.5
		c-14.5,26.9-25.3,55.3-33.4,84.7c-6.4,23.2-10.5,46.8-10.3,70.9c0.1,11.8,1.7,23.7,3.9,35.2c7.6,39.4,28.8,70.3,60.9,93.8
		c25.8,18.8,55.7,25.6,86.9,27.1c17.4,0.9,34.4-2.2,51-7.4c26.6-8.4,50.7-21.9,73.7-37.6c5.3-3.6,10.6-7.2,16.9-11.6
		c-5.7,22.9-11.1,44.5-16.6,66.3c12.1-3.9,23.7-7.8,35.4-11.3c21-6.3,42.3-11.1,64.3-11.3c26-0.2,52-0.1,78,0c3.3,0,4.9-0.8,5.7-4.4
		c1.5-6.9,3.7-13.6,5.4-19.8c-10-1.3-19.9-2-29.5-4c-13.5-2.8-23.5-10.4-26.4-24.6c-2.3-11.5-0.4-22.9,2.6-34.1
		c10.9-39.7,21.8-79.3,32.5-119c12.3-45.3,24.3-90.6,36.6-135.9c7.7-28.5,15.7-57,23.5-85.5c10.4-38.4,20.7-76.9,31.1-115.3
		c10-37,20-74.1,30-111.1c4.3-16.1,8.6-32.2,13-48.2C2113.8,0,2113.4,0,2113.1,0z M1921.8,316c-5.4,20.4-11.1,40.7-16.6,61
		c-6.8,25.2-13.6,50.4-20.4,75.6c-6.9,25.4-13.8,50.8-20.7,76.1c-7.6,27.8-15.2,55.7-23.1,83.5c-0.9,3.1-2.9,6.4-5.3,8.5
		c-19,15.8-38.6,30.7-60.6,42c-17.9,9.2-36.4,17-57,17.2c-21.9,0.2-39-9.2-50.8-27.7c-7.9-12.3-11.8-26.3-13.9-40.6
		c-1.7-11.1-2.1-22.3-3-33.5c0.2-33.6,7.2-66,16-98c8.7-31.4,19.8-62,34.9-91c10.3-19.9,22.2-38.7,36.9-55.7
		c15.4-18,32.7-33.6,54.2-44c14-6.7,28.7-10.5,44.4-11.7c28.4-2.2,52.1,8.2,73.8,24.9c3.4,2.6,6.9,5.1,9.9,8.1
		C1921.4,312,1922.2,314.5,1921.8,316z"/>
	<path class="st0" d="M1311.9,1317.5c-1-0.6-3.5,0.1-4.7,1c-6.3,4.7-12.3,9.9-18.7,14.5c-10.9,7.8-21.9,15.6-34.8,20
		c-13.5,4.6-20.5-3.7-21.2-14.6c-0.7-9.8-0.2-20.1,2.1-29.6c5.8-24.3,12.8-48.3,19.4-72.4c6.7-24.6,13.5-49.1,20.2-73.7
		c9.2-33.9,18.3-67.8,27.4-101.6c4.5-16.5,7.5-33.1,4.5-50.2c-4.7-27.1-20.5-46-44.1-59.1c-24.8-13.7-52-18.5-79.6-20.8
		c-13-1.1-26.1-0.6-39.1-0.1c-12,0.5-24.1,1.1-35.9,3.1c-15.4,2.6-30.9,5.4-45.8,10.1c-35.9,11.2-70.1,26.2-98.3,52.1
		c-18.5,17-29.1,37.6-27.9,63.2c0.5,9.9,5.2,18.1,12.8,24.1c10.3,8.2,22.3,8.4,34.7,6.4c18.5-3,34.8-9.7,46.1-25.4
		c7.8-10.8,13.8-22.3,13.3-36.3c-0.3-9,0-18-0.1-27c-0.1-8.4,3.2-14.9,10.3-19.6c23.1-15.2,48.9-21.8,76.1-23.7
		c9.2-0.6,18.5,0.4,27.8,0.9c11,0.6,21.3,3.9,30.7,9.5c5.8,3.4,12,7.3,13.9,14.2c2.4,9,4.7,18.2,5,27.4c0.3,9.4-0.9,19.2-3.1,28.4
		c-5.7,23.3-12.4,46.4-18.4,69.7c-0.9,3.6-3.1,4.4-5.8,4.8c-8.8,1.2-17.6,1.9-26.4,3.1c-17.2,2.3-34.5,4.1-51.6,7.2
		c-22.6,4.1-45.2,8.7-67.6,14c-27.7,6.6-54.8,15.3-80.6,27.8c-26.9,13.1-51.4,29.5-71.1,52.4c-12.4,14.5-22.3,30.4-29.1,48.2
		c-9.3,24.4-15.5,49.4-10.9,75.9c3.5,20.5,14.7,35.5,32.8,45.4c19.8,10.8,41.5,14,63.5,14.9c13.8,0.5,27.8-0.6,41.6-1.9
		c11.4-1.1,22.8-2.8,33.9-5.4c34.9-8.1,67.9-21.6,99.8-37.8c4-2,8-4.2,12.1-6.4c0.5,2.6,0.9,4.7,1.3,6.8
		c2.5,11.9,7.6,22.2,17.3,30.1c13.6,11,29.9,13.9,46.6,14.7c9.8,0.5,19.8-0.5,29.6-1.9c17.5-2.6,33.6-9.4,47.7-19.8
		c21-15.3,39.1-33.9,56.7-53.9C1319.8,1323.2,1316,1320.1,1311.9,1317.5z M1168.7,1165.4c-10.2,37.8-20.4,75.6-30.6,113.4
		c-4,14.8-8.1,29.6-12,44.4c-0.8,2.9-2.8,3.8-5.3,4.9c-24,11-48.4,20.8-74.1,27.2c-19.4,4.8-37.8,1.8-55.7-5.2
		c-6.8-2.6-13.2-6.7-19-11.1c-9.9-7.4-13.7-18.4-14.7-30.2c-3-35.2,10.6-65,30.9-92.3c19.7-26.4,46.7-42.9,76.5-55.6
		c25.3-10.8,51.8-17,78.5-22.7c11-2.4,22.2-3.8,34.6-5.9C1174.4,1144,1171.6,1154.7,1168.7,1165.4z"/>
</g>
</svg>
