<?xml version="1.0" encoding="utf-8"?>
<!-- Generator: Adobe Illustrator 19.0.0, SVG Export Plug-In . SVG Version: 6.00 Build 0)  -->
<svg version="1.1" id="Layer_1" xmlns="http://www.w3.org/2000/svg" xmlns:xlink="http://www.w3.org/1999/xlink" x="0px" y="0px"
	 viewBox="-2979 -510 6570 1812" style="enable-background:new -2979 -510 6570 1812;" xml:space="preserve">
<style type="text/css">
	.st0{fill:#FFFFFF;}
</style>
<path class="st0" d="M-2937.9-323v851.1c0,5.5,0.6,10.9,1.8,16.2c33.3,148,131.5,230.7,260.1,291.5v-350
	c18.4,8.8,184.3,74.2,307.6,184.2c50.1,44.7,9,88.5,9,88.5s95,59.3,249.6,74.6s262,4.3,402.7-35.1c140.7-39.3,199.8-95.9,199.8-95.9
	s-90.2-2.1-189.8-22.1c-99.7-20-272.2-90.2-410.2-146.7s-421.1-212.8-426.6-215.6s-18.5-7.5,0-16.3s149.1-75.4,243.8-125.4
	s138-82.5,170.7-134.5s40.7-105.9,36.7-154.2s-16.3-74.9-16.3-74.9s-15.1,25.9-40.4,48.9c-25.3,23-17,15.7-42,34.3s-34,24-62.7,41.3
	s-93.3,51-93.3,51l-338.3,162.7v-626C-2771.1-372.4-2822.1-358.1-2937.9-323z"/>
<path class="st0" d="M-1987,555.3h195.7V-56.8c-104.2-30-145.7-53.2-195.7-105C-1987-147-1987,555.3-1987,555.3z"/>
<polygon class="st0" points="-1715.1,-57 -1715.1,555.9 -1400.6,555.9 -1400.6,417.5 -1518.8,417.5 -1518.8,-57 "/>
<polygon class="st0" points="-1355.1,-57 -1355.1,555.9 -1040.6,555.9 -1040.6,417.5 -1158.8,417.5 -1158.8,-57 "/>
<polygon class="st0" points="-996,555.9 -657,555.9 -657,418.8 -800,418.8 -800,300 -678.3,300 -678.3,182.8 -800,182.8 -800,82.3 
	-670,82.3 -670,-56.3 -996,-56.3 "/>
<path class="st0" d="M-170.7,599.8c-0.2-3-0.3-6-0.3-9V362.7c0-2-0.1-4-0.4-5.9c-7.3-45,3.4-91.8-101.6-112.8
	c108-4,104.8-72.3,104.8-116s0.3-101.8-36-137s-73.5-37.8-99-41s-49.5-5-87-5s-212-1.3-212-1.3v612.1H-406V307.3
	c48.3,0,49.7,12.6,52.3,18.3c2.6,5.8,4,15.5,4.3,25.3s0,205.1,0,205.1s23.2,39.8,46.3,69.4c13.6,17.4,57.3,71.8,147.8,108
	C-162.5,703.9-169.1,620.3-170.7,599.8z M-350,152.3c-0.7,7.3-2.7,22.3-16.7,27.5s-40.2,5.2-40.2,5.2V50.4c0,0,23.7-2.7,38.2,4.8
	s17.2,16.2,18.7,27.2C-348.7,91.8-349.3,145-350,152.3z"/>
<path class="st0" d="M16-464.3c0,0,0,1231.3,0,1277.8s0.3,267.5-18.5,341.8c108.8-60.5,337.2-347.1,333.9-590.4
	c-63,2.7-54.7-115.8-54.7-151.5s0-728,0-728S124.7-340.7,16-464.3z"/>
<polygon class="st0" points="369,557.5 532.8,557.5 532.8,284.3 631.5,557.5 802,557.5 802,-55 639,-55 639,216.5 531.3,-55 
	369,-55 "/>
<polygon class="st0" points="1332.3,-55.8 1332.3,82.2 1447,82.2 1447,556.3 1641.3,556.3 1641.3,82.7 1756,82.7 1756,-55.8 "/>
<polygon class="st0" points="2073,557.5 2236.8,557.5 2236.8,284.3 2335.5,557.5 2506,557.5 2506,-55 2343,-55 2343,216.5 
	2235.3,-55 2073,-55 "/>
<path class="st0" d="M869.3,304.8c70.6-2.4,136.3,37.8,180,76.3c0,4.3,1.9,64.5,7.3,74c3.6,6.4,32.4,16.6,49.9,3.2
	c13.3-10.3,14.7-32.6,14.8-43.9c0.5-31.3-5.5-57.3-18-68.5s-61-40.8-79.3-49.3s-95.4-48.3-125.3-81.3c-19.8-21.9-30.3-47.8-36-99.8
	C854.6,42.2,881.3,1,894.3-12s58.8-53.7,154.5-55.8c95.7-2.2,141,9.7,185.7,34.5s51.5,59.7,53.5,91.8c0,0,1.2,107.5,1.2,101.5
	c-81.5,7.2-166.7-62.3-180-74.5c-2.4-16.4,3-42.8-18-48c-21.3-4-30.7,0.7-38.7,11s-8.7,35.8-7.2,49.8s3.8,26.3,19.7,41
	s64,34.2,101.3,55.3c37.3,21.2,84.5,51.7,96.7,64.5c12.2,12.8,27.5,33.8,32.7,56.2c5.2,22.3,9.2,41.7,9.5,66c0.3,24.3,2.8,57-7.7,91
	s-28,48.5-61,66s-79,26-98.8,28.2c-19.8,2.2-96.3,8.2-155.2-12.7c-58.8-20.8-78-39.5-89.8-58.3c-11.8-18.8-20.2-49-21.8-72.5
	C869.2,399.5,869.3,304.8,869.3,304.8z"/>
<path class="st0" d="M3067.6-55.6v138h114.7c0,0,0,461.7,0,474.2c30.7,53.5,97.2,153.4,211.3,192.7c-22-69.8-16.9-192.7-16.9-192.7
	V82.9h114.7V-55.6H3067.6z"/>
<path class="st0" d="M3182.3,556.6"/>
<path class="st0" d="M2838,301.3c68.8-1.8,133.8,26.9,193.7,75.7c-5.7,64.5,0,113.8-88.3,161.5c-78.4,40.2-197.9,42.5-285.7,1.5
	c-68.9-37-83-90-83-196.7c-1.3-43-3-167.3,0-225.7s6.1-115.3,90.8-158.7c84.5-43.3,184.7-27.2,228.3-16.8
	c56,13.5,104.7,46.5,118,76.8c19.9,45.5,19.9,36.8,19.9,171.7c-80.3-9.7-193.7-74.3-193.7-74.3s2-39.7-2-55.3s-3.5-22-21-24
	c-16.9-1.9-36.6-2.2-41.7,16c-1.3,4.7-3.1,20.2-3.4,34.7c-2.2,85.5-1.5,298.8-0.9,324.6c0.7,29.7,7.7,50.3,20,51.3s32,4,40-9
	s8.5-24.8,8.5-39.2S2838,301.3,2838,301.3z"/>
<path class="st0" d="M1798.3-161.5v717.8h195.5c0,0,0-603,0-612.2C1892-82.5,1838.5-117,1798.3-161.5z"/>
</svg>
