<?xml version="1.0" encoding="utf-8"?>
<!-- Generator: Adobe Illustrator 19.0.0, SVG Export Plug-In . SVG Version: 6.00 Build 0)  -->
<svg version="1.1" xmlns="http://www.w3.org/2000/svg" xmlns:xlink="http://www.w3.org/1999/xlink" x="0px" y="0px"
	 viewBox="0 0 2990 1190" style="enable-background:new 0 0 2990 1190;" xml:space="preserve">
<style type="text/css">
	.st0{fill:#FFFFFF;}
	.st1{fill:none;}
	.st2{display:none;fill:none;}
	.st3{fill:none;stroke:#FFFFFF;stroke-width:8;stroke-miterlimit:10;}
</style>
<g id="Layer_1">
	
		<image style="display:none;overflow:visible;" width="3037" height="1947" xlink:href="Kingdom_Hearts_logo.png"  transform="matrix(1 0 0 1 -23 -362)">
	</image>
	<g>
		<path class="st0" d="M263.3,72.5l1.8,313.7l0.1,25.4l14.4-20.9l31.3-45.3l1.4-2.1v-2.5c0-1.4-0.4-9.1-7.3-23.1
			c-3.7-7.4-9.3-18.9-13.4-27.4c10.7-0.7,26.6-2.1,39.6-5.2c3.5-0.8,7.2-1.6,11.1-2.5c19.3-4.2,43.4-9.4,63.8-23.2
			c19.4-13.1,37.1-30.6,43.2-36.9c7.5-0.6,25.5-2.2,34.2-5.6c4.5-1.7,15.3-5.7,25.4-9.4l-57,89.1l-5.1,8l8.8,3.7
			c9.2,3.9,20.4,8.8,22.5,10.1l1.1,40.8l0.4,15.3l12.3-9.1c10.2-7.5,22.8-16.3,25.5-17.5c1.9-0.7,5.4-2.4,11.3-5.2
			c7.7-3.6,18.1-8.6,24-10.8c5.3-2,17.9-5.2,28.1-7.7c-1.1,7.5-2.1,17.3-1.4,25.8c0.1,1.5,0.2,3,0.3,4.5
			c0.9,13.4,1.9,27.2,19.4,42.4l5.9,5.1l5.3-5.8c16.1-17.8,27.2-34.2,28.2-35.6c21-30.1,29-42.3,32.1-47.5
			c7.6-2.8,16.9-6.9,22.9-11.9c1.8-1.5,4.1-4,6.5-6.7l1.3,73.7l0.3,16.1l12.6-9.9c0.4-0.3,36-28,59.8-31.9
			c11.3-1.8,24.2-3.9,37.1-3.9c16.5,0,30.2,3.5,42,10.8c22.6,14,27,26.4,27.4,27.5l2.1,12.1l10.3-7.4c16.9-12.1,46.4-32.4,53.9-35.3
			c8.7-3.3,28.5-7.9,45.2-7.9c4.7,0,8.9,0.4,12.5,1c4.1,0.8,7.9,1.3,11.5,1.8c15,2.1,26.9,3.7,49.9,23c28,23.4,35.1,48,35.2,48.2
			l4.4,16.2l9.8-13.6c0.3-0.4,25.8-35.7,46.8-51.5c17.2-12.9,42.7-30.9,53-38.1c17.9,12.4,41.5,28.7,43.6,30.3
			c3.2,2.4,13.8,10.8,13.9,10.9l12.2,9.6l0.8-15.5c0-0.1,0.6-9.1,5.6-21.7c6.7-16.8,17.7-31.7,32.8-44.4
			c32.1-27,62.6-31.2,82.8-33.9c3.2-0.4,6.3-0.9,9-1.3c2.4-0.4,6-0.6,10-0.6c6.9,0,31.5,0.8,57.3,11.5c25,10.4,42.8,26.4,52.9,47.7
			l2.4,5.1l5.7-0.6c3.9-0.4,8-0.6,12.2-0.6c29.9,0,61.8,10.5,73.3,18.1c3.2,2.1,6.3,4.1,9.2,5.9c10.8,6.8,20.1,12.7,29.3,22.8
			c12.3,13.5,14.5,15.8,14.8,16l10,10l3.4-13.8c0.1-0.4,10.1-40.1,29.2-64.2c14.4-18.1,28.8-29.9,45.4-43.5
			c6.3-5.1,12.7-10.5,19.6-16.4c4.3-3.7,8.7-7.5,13.4-11.6c22.8-19.5,46.4-39.7,56.3-55.2c9.4-14.6,17.7-31.1,20.5-36.8
			c5.1-3.3,18.6-12.5,26.4-21.6c3.1-3.7,7.1-9.4,10.9-15.4v267.2v18.7l13.5-12.9c0.8-0.8,4.5-3.7,8.2-4.4l0.2,0
			c8.2-1.5,14-3.1,25.4-12.4c5.7-4.6,12.2-15.5,19.5-32.3c2.3-5.2,6.3-15.3,8.5-22.3c6.8-1.8,18.3-7.2,42.1-36.6
			c0.5,36.6,1.1,98.5,1.2,99.3l0.2,16.7l12.9-10.6c0.4-0.3,35.3-28.8,63.6-32.9c12.2-1.8,24-3.4,35.3-3.4c15.2,0,28.5,2.9,43.2,9.5
			c25.8,11.5,33.9,45.2,34,45.5l2.3,10l9.1-4.7c0.1-0.1,12.7-6.4,28.3-9.7c22.6-4.7,41.4-18,51.5-36.6c8.7-16,14.9-39.7,17.2-49.4
			c4.9-2.2,13.3-7,24.3-16.7c7-6.2,14.1-14.5,20-22.2l-0.9,80.6l-0.2,18.8l13.7-12.8c0.2-0.2,22.9-21.3,51.1-28
			c15.6-3.7,29.5-5.6,42.4-5.6c14.2,0,27,2.2,39,6.7c24,8.9,41.6,32.3,41.7,32.5l5.6,7.6l6.6-6.7c0.1-0.1,14.9-14.8,34.3-14.8
			c0.7,0,1.4,0,2.2,0.1c18.9,1.1,46.5,16.9,55.6,22.1c2.3,1.3,3.4,1.9,4.2,2.3c4,1.9,14.6,6,16.4,6.7c1.1,0.4,2.4,0.6,4,0.6
			c7.2,0,17.6-3,23-11.4c5.2-8,4.9-18.6-0.9-31.5c-5-11.2-9.2-19.6-12.6-25.9c19.4,4,45.9,10.6,57.6,18.3l8,5.2l3.8-8.8
			c4-9.4,18.6-34.6,37.4-38.6c5.7-1.2,11.1-1.8,15.9-1.8c9.8,0,14.6,2.6,15.3,3l6.2,5.6l5.1-7.4c0.6-0.9,15.5-22.4,24-44
			c0.6-1.6,1.8-4.3,3.2-7.7c4.9-11.5,13.2-30.8,21.1-54c9.7-28.4,20.1-61.3,28.4-89.3l0.5,443.8l0,1.6l0.6,1.5
			c0.2,0.4,15.5,36.4,17.4,59.7c0.6,7.1,1.3,12.5,1.9,17.1c1.6,11.8,2.9,21.1,0.6,53.4c-3,42.7-14.5,61.1-21.3,72l-0.5,0.8
			c-7.5,12.1-20.2,28.9-37.9,39.9c-19.4,12.2-22.1,13.1-40.2,17.5c-9,2.2-14.1,2.7-16.8,2.7c-0.8,0-1.3,0-1.6-0.1l-8.3-4.9
			l-2.6,10.4l-71.4,288l-1.1-356.6l0-7.4l-7.4-0.6c-0.4,0-36.1-2.8-56.7-9.2c-20.7-6.4-40.1-16.8-40.3-16.9l-5.6-3l-4.2,4.7
			c-0.4,0.4-38.2,42.2-80.6,46.4c-2.8,0.3-5.6,0.4-8.4,0.4c-19.8,0-35.6-7.1-45.3-13c-11.7-7.1-18.3-14.5-19.5-16.1
			c-4.3-6.1-15-19.9-15.4-20.5l-3.6-4.7l-5.5,2l-3.2,1.2c-4.3-2.6-9.4-6.1-11.3-8.5c-2.7-3.3-10.1-17.3-14.5-26.2l-2.6-5.2l-5.7,0.8
			c-0.7,0.1-18.5,2.6-32.9,12.3l-1.9,1.3l-0.9,2.1c-3.5,7.7-19,21.3-31.7,31c-2.4-5.1-5.5-11.9-9-18.8c-14.2-28.3-19.5-32.4-23.4-34
			l-4.9-2l-3.8,3.8c-8.9,8.9-29.8,25.9-38.7,31.3c-9-3.8-22.2-10.3-22.3-10.4l-5.5-2.7l-4,4.6c-3.5,3.9-7.6,8.5-10,10.9
			c-4.8-0.4-13.8-1.6-19.5-2.5c-4.8-1.4-16.3-4.9-20-6.3c-4.4-1.7-29-14.5-32.6-16.7c-0.2-0.1-0.8-0.5-1.3-0.9
			c-3.7-2.6-10.7-7.4-19-7.4c-6.1,0-11.7,2.6-16.1,7.6c-6.3,7.1-14.9,18.2-20.8,27c-9.9-12.4-24.8-31.7-25.9-33.2l-11.9-17
			l-2.6,20.5c-1.3,10.1-11,25.1-27,34c-4.8,2.7-11.4,4.1-19.3,4.1c-11.4,0-21.6-2.8-24.5-4.1c-2.2-1-4.6-2.3-7.1-3.7
			c-4.7-2.6-9.5-5.3-14.9-6.7c-4.8-1.2-21.1-6.9-30.6-10.2l-3.6-15l-15.7-64.4l-0.1,66.3l-0.5,336c-0.8-0.8-1.5-1.5-2.2-2.1
			c-0.3-0.2-27.9-24.1-38.8-28.8c-3.2-3.8-10.5-21.8-16-39.4l0-0.1l0-0.1l-32-98.3l0-0.1l0-0.1c-14.7-42.2-15.5-43.8-15.7-44.3
			c0-0.1-0.1-0.2-0.2-0.4c-7.1-15.3-15.3-24.2-24.2-26.6c-3.5-0.9-8-2.5-12.8-4.1c-9.4-3.2-20.1-6.8-30.1-8.4
			c-2.1-0.3-4.1-0.6-5.9-0.9l35.4-48.7l0.2-0.3l0.2-0.3c5-8.4,21.5-36.7,23.5-46.1c0.4-2.1,1.3-6.3,1.5-152.7
			c0.1-72,0-143.7,0-144.5l0-12.6l-11.4,5.4c-1.1,0.5-27.2,13.2-35.4,48.4c-0.4,1.7-6.1,24.9-7.2,55.4
			c-9.3,26.1-16.1,39.4-16.2,39.5l-0.8,1.5l-0.1,1.6c-0.1,1-0.7,9.4-0.7,12.4c0,3.7-0.4,36.2-1.1,42.6c-0.1,0.8-0.2,1.7-0.3,3
			c-1,12.1-4.1,48.8-30.5,106.9c-24.3,49.6-32.5,61.3-34.4,63.7l-0.7,0.4l-1.1,1.7c-1.6,2.6-40.3,63.6-47.5,78.3
			c-7.1,14.7-20.4,47.5-25.8,68.5c-5.2,20.1-10,53.8-10,70.8c-0.5,11.8,1.9,35.2,4.7,53.9c-20.5-16.5-36.2-27.4-47.9-31.1
			c-0.7-0.5-6.4-5-15-33.8c-4.5-14.9-7.6-29.3-8.1-31.7c-0.7-6.3-10.3-94,0.1-134.7c10.9-42.4,13.5-50.3,13.6-50.6l1.6-4.6l-3.4-3.5
			c-7.6-7.9-45.9-47.6-51-51.7c-4.8-3.9-27.8-23.6-28-23.8l-13.2-11.3L1430,642l-0.7,195.8c-8.1-6.4-20.4-14.3-38.9-23.3
			c-19.1-37.6-40.6-79.6-66-97.7c-22.4-16.1-40.5-26.7-61.1-30.1l-8.6-1.4l-0.7,8.7c-0.3,3.8-0.6,6.6-0.8,8.8
			c-11-1.7-33.3-6.3-58-18.1c-33.3-15.9-47.9-29.5-56.7-37.6c-0.6-0.6-1.2-1.1-1.7-1.6c-7.5-6.9-29.9-40.2-31.9-44.7l-7.9-18.8
			l-7,19.2c-3.5,9.5-16.7,31.9-26.6,43.6c-10.1,11.9-26.5,26.6-29.2,28.7c-2,1.6-6.5,5.7-9.7,8.7c-6.8-2.7-13.5-5.6-14.9-6.5
			c-2.8-1.8-5.7-2.8-8.8-2.8c-5.9,0-11.5,3.3-17.1,10c-4.8,5.7-17,22.8-24.7,33.7c-9.9-14.7-20.7-31.1-22.1-33.8
			c-1.4-3.1-11.7-20.8-17.4-24.4c-1.5-0.9-8.1-6.5-13.3-11.1l-11.6-10.2l-1.6,15.4c0,0.3-3.2,29.3-16.5,59.5l-9.1,20.6
			c-5.4-5.7-12.1-12.5-16.4-15.9c-5.3-4.2-13.1-9.6-17.3-12.4c-1.1-7.3-3.8-24.3-6.3-36.7c-2.1-10.3-9.2-16.4-18.9-16.4
			c-9.1,0-19.8,5.8-28.4,15.4c-7.1,7.9-13.3,16.5-17.5,22.9l-14-16.4l-4.4-5.2l-5.8,3.6l-26.9,16.6c-2.2,1.1-19,9-37,9
			c-1.8,0-3.6-0.1-5.3-0.2c-20.4-1.9-37.8-8.6-47.7-18.3c-9.7-9.5-23.2-30.4-23.4-30.6l-14.6-22.7l-0.1,27l-0.2,61.7
			c-5.2-3.5-12.1-7.3-20.8-10.8c-10.6-4.2-15.9-6.3-18.7-7.4l-16-22.6c-0.2-0.3-4.9-6.9-10.9-13.6c-9.6-10.8-16.8-15.6-23.4-15.6
			c-0.5,0-0.9,0-1.4,0.1l-5.3,0.6l-1.5,5.1c-3.2,10.5-22.5,67.2-22.7,67.7l-1.8,5.2l4.3,3.5c0.8,0.7,19.9,16.3,47.9,26.1l3.6,1.3
			c27.2,9.6,72.7,25.6,93,30.5c9.3,2.2,20.8,3.3,31.4,3.8c-5.4,4.2-10.9,8.8-15.2,13c-4.4,4.4-7.3,7.4-9.4,9.6
			c-3.3,3.4-4.2,4.4-6.2,5.9c-0.8,0.6-8.7,5.9-42.5,9.2c-15.7,1.5-32.3,3-48.6,3c-15.1,0-28.5-1.3-40.9-3.9
			c-26.8-5.7-43.1-10.4-46.4-11.4c-3.5-1.7-17.1-8.1-28.2-8.1c-0.9,0-1.7,0-2.6,0.1c-4.1,0.4-10.9,1-18.8,1
			c-10.6,0-20.4-1.2-29.2-3.6c-11.4-3.1-27.5-17.6-44.2-39.8c-1.1-1.5-2.3-3.2-3.6-4.9c0.5,0,1,0,1.4,0c7-0.4,9.9-4.3,11-6.5
			c3.4-6.9-1.5-14.1-3.1-16.4c-5.3-7.8-34.2-47.8-35.4-49.5l-14.4-19.9l-0.1,24.6l-1.3,425.8c-26.3-85.9-60.2-196.4-61.8-202.3
			c-2.2-8.1-34.4-112.2-52-135.6c-6.2-8.8-18.8-13.5-36.3-13.5c-3.5,0-6.6,0.2-8.8,0.4c-3.7-2.9-10.9-8.5-18.9-14.2
			c-4.2-3-7.9-5.5-11.2-7.6c7.7-1.8,9.9-2.8,17-7.7c12.3-8.6,30.1-26.6,42.8-51.2c10.4-20.1,12.8-28,11.9-32.4l0.7-292.6l0-11.3
			l-10.7,3.8c-1.4,0.5-35.1,12.9-41.6,67.3l0,0l0,0c-1.3,12.2-1.7,15.6-1.7,15.6l-0.1,0.5v0.5v67.3c-4.6-5-10.4-10.2-17.5-15.2
			c-12.8-8.9-19.4-12.4-23.5-13.6c-5.1-8.7-14-29.9-9.3-82.1c2.3-25.5,11.5-49,28.1-71.9c15.2-20.9,34.3-37.7,49.2-50.1
			c4.5-3.8,9.1-7.5,14-11.5c31-25.4,63.1-51.6,78.4-75.1C223.1,165.8,247.3,110.2,263.3,72.5 M271.1,33.2c0,0-49.1,119.6-65.8,145.3
			c-16.9,26-57.5,57.3-90.8,84.8s-74.8,67.4-80.2,127.4c-5.3,60,6.4,81.1,12.7,90.5c0,0,0.1-0.3,0.8-0.3c1.6,0,6.8,1.7,22.7,12.8
			c22.8,15.9,30.1,34.2,30.1,34.2V435c0,0,0.4-3.3,1.7-15.7c6-50,36.3-60.7,36.3-60.7L138,653c0,0,2,2-11,27s-30.3,41.3-40.3,48.3
			s-7.2,4.4-36.1,11.5c12.1,1.3,51.4,32.9,51.4,32.9s4.8-0.7,11.2-0.7c10,0,23.9,1.7,29.8,10.2c16.3,21.5,48.3,123.8,50.8,133
			s77.3,253.1,77.3,253.1l1.4-478.6c0,0,30,41.5,35.3,49.3s2.5,10.3-1.8,10.5c-0.3,0-0.7,0-1.1,0c-5,0-15.9-1.3-15.9-1.3
			s8,12,13.3,19s28,37.3,48.5,42.8c11.1,3,21.9,3.8,31.2,3.8c7.9,0,14.7-0.6,19.5-1.1c0.6-0.1,1.2-0.1,1.8-0.1
			c10.5,0,25.2,7.6,25.2,7.6s17,5.3,47.8,11.8c14.2,3,28.4,4.1,42.6,4.1c16.5,0,33-1.5,49.4-3.1c30.5-3,42.5-7.8,46.5-10.8
			s5-4.8,16.5-16.3s34-26.5,34-26.5s-3.7,0.1-9.4,0.1c-11.4,0-30.8-0.6-44.6-3.9c-20.8-5-68.8-22-95.8-31.5S470,719.5,470,719.5
			s19.5-57.3,22.8-68c0.2,0,0.3,0,0.5,0c9.4,0,27.7,25.8,27.7,25.8l17.4,24.7c0.5,0.1,3.7,1.2,20.8,8.1c23.8,9.5,31.8,21,31.8,21
			l0.3-79.3c0,0,14,21.8,24.5,32s28.8,18.3,52.5,20.5c2,0.2,4.1,0.3,6.1,0.3c21.5,0,40.9-10,40.9-10l27.3-16.8l21,24.8
			c0,0,9.8-16.8,22.5-31c7.1-7.9,15.7-12.8,22.5-12.8c5.4,0,9.6,3.1,11,10c3.3,15.8,6.8,39.8,6.8,39.8s12.5,8.3,19.8,14
			s23.8,24,23.8,24s0,0,14-31.8s17.1-61.9,17.1-61.9s11.4,10,14.4,11.9s12.9,17.5,14.4,21s29.3,44.6,29.3,44.6s24-34.3,31-42.6
			c4.5-5.3,8-7.1,11-7.1c1.7,0,3.1,0.6,4.4,1.4c3.5,2.3,21.2,9.2,21.2,9.2s9.8-9.3,12.8-11.7c3-2.3,19.8-17.5,30.3-29.8
			c10.5-12.3,24.2-35.5,28-46c2.2,5.2,25.3,39.7,33.8,47.5c8.5,7.8,23.7,23.1,60.4,40.6s68,19.8,68,19.8s1-1.8,2.3-17
			c18,3,34,11.8,57.8,28.8s44.8,57.8,64.8,97.3c46,22,52.8,37,52.8,37L1438,642c0,0,23.3,20,28.3,24s50.3,51,50.3,51
			s-2.5,7.3-13.8,51.3s-0.3,138-0.3,138s14,67.3,28.5,71.8s38,23.3,62.5,43.8c-3.8-13.3-9.5-56.8-8.8-74c0-15.5,4.5-48.8,9.8-69
			s18.3-52.5,25.3-67s47-77.5,47-77.5s5.5-3,36.8-66.8c29.8-65.3,30.7-105.2,31.5-112.3c0.8-7.2,1.2-40.7,1.2-43.5
			c0-2.8,0.7-11.8,0.7-11.8s7.2-13.8,17-41.7c1-31.2,7-55,7-55c7.3-31.8,31-43,31-43s0.5,286.7-1.3,295.5
			c-1.8,8.8-22.5,43.7-22.5,43.7l-44,60.5c0,0,0.7-0.1,2.3-0.1c2.7,0,8.2,0.3,17.4,1.8c14.5,2.3,31.5,9.5,42.2,12.3
			c10.7,2.8,18.5,21.2,19.3,22.8c0.8,1.7,15.3,43.3,15.3,43.3l32,98.3c0,0,13,41.8,19.8,44.2c6.8,2.3,32.2,23.2,37.2,27.7
			s15.5,17.7,15.5,17.7l0.5-357.5l4.7,19.2c0,0,28.2,10,35.3,11.8c7.2,1.8,14,7,20.8,10c4.1,1.8,15.5,4.8,27.7,4.8
			c8.1,0,16.4-1.3,23.2-5.1c17-9.5,29.3-26.3,31-40c1.8,2.5,26.8,34.8,33.5,42.5c2.3-5.5,15.8-24.3,25.8-35.5
			c3.2-3.6,6.7-4.9,10.1-4.9c7.1,0,13.6,5.6,16.2,7.2c3.8,2.3,28.8,15.3,33.8,17.3s21.3,6.8,21.3,6.8s18.2,2.8,23.6,2.8
			c0.2,0,0.4,0,0.6,0c1.8-1,13-13.8,13-13.8s17.3,8.5,26.3,12c8.5-3.5,35-25.5,44-34.5c8.5,3.5,32.3,57.8,32.3,57.8s35.5-25,42.3-40
			c13-8.8,29.5-11,29.5-11s11,22.3,15.5,27.8s16.8,12.3,16.8,12.3l6.8-2.5c0,0,11,14.3,15.3,20.3c4,5.6,30.5,32.5,71.3,32.5
			c3,0,6.1-0.1,9.2-0.5c46-4.5,85.8-49,85.8-49s20,10.8,41.8,17.5s58.5,9.5,58.5,9.5l1.3,421.3l87-350.8c0,0,1.1,0.7,4.8,0.7
			c3.5,0,9.3-0.6,18.7-2.9c19.3-4.8,22.5-6,42.5-18.5s33.5-31.3,40.5-42.5s19.8-30.8,23-76.5s-0.5-46.8-2.5-71.8s-18-62.3-18-62.3
			l-0.6-505.4c-1.5,13.5-24.3,91-43.9,148.3c-10.3,30.1-21.4,54.1-24.3,61.4c-8.3,21-23.1,42.4-23.1,42.4s-6-4.6-20.1-4.6
			c-4.9,0-10.7,0.5-17.6,2c-27,5.8-43.1,43.3-43.1,43.3c-21-13.8-78.2-22.7-78.2-22.7s7.5,9,21.5,40.3c12.5,28-8.9,31.6-14.8,31.6
			c-0.7,0-1.2,0-1.3-0.1c-1.8-0.6-12-4.6-15.8-6.4s-38.3-23.8-62.8-25.1c-0.9,0-1.7-0.1-2.6-0.1c-23.2,0-40,17.2-40,17.2
			s-18.8-25.4-45.4-35.3c-13.4-5-27.4-7.2-41.8-7.2c-14.3,0-29,2.1-44.3,5.8c-30.8,7.4-54.8,30-54.8,30l1.3-106.3
			c0,0-17.3,27.3-33.6,41.8s-25.9,16.8-25.9,16.8s-6.9,32.3-17.4,51.5s-29.1,29.1-46.1,32.6s-30.4,10.4-30.4,10.4s-8.6-37.6-38.5-51
			c-17-7.6-31.4-10.2-46.4-10.2c-11.4,0-23.1,1.5-36.4,3.4c-30.9,4.5-67.5,34.6-67.5,34.6s-1.1-101.8-1.5-122.3
			c-41.5,56.3-51.5,50.8-56.3,53c-0.3,4-15.8,46.3-26.5,55s-15.3,9.5-22,10.8s-12.3,6.5-12.3,6.5v-296c0,0-16.3,28.8-25,39
			s-26.5,21.3-26.5,21.3s-9.8,20.5-21,38s-43.3,43.3-68.3,65s-45.5,35.3-66,61s-30.8,67.3-30.8,67.3s-2-2-14.5-15.8
			s-25.3-20.3-40-30c-12.9-8.6-46.1-19.4-77.7-19.4c-4.4,0-8.8,0.2-13.1,0.7c-24.9-52.8-88.1-63.8-117.3-63.8
			c-4.8,0-8.8,0.3-11.4,0.8c-18.8,3.3-56.3,4-95.5,37s-41.3,71.8-41.3,71.8s-10.8-8.5-14-11s-48.5-33.8-48.5-33.8
			s-35.5,24.8-57.8,41.5s-48.5,53.3-48.5,53.3s-7.3-26.8-37.8-52.3s-44.3-22.5-65-26.5c-4.3-0.8-9.1-1.2-14-1.2
			c-18.5,0-39.1,5.1-48,8.4c-11.3,4.3-55.8,36.3-55.8,36.3s-3.5-15.5-31-32.5c-14.8-9.2-30.6-12-46.2-12c-13.2,0-26.3,2.1-38.3,4
			c-26.3,4.3-63.5,33.5-63.5,33.5l-1.8-96.3c0,0-13.3,18.3-19.3,23.3s-16.8,9.3-23.3,11.5c-1,3.3-33.3,49.5-33.3,49.5
			s-11.3,16.8-27.5,34.8c-16.8-14.5-15.8-26.3-17-41.5s3.5-35.8,3.5-35.8s-31,7-41,10.8s-31,14.3-35.5,16s-27.3,18.5-27.3,18.5
			l-1.3-45c0,0,0,0-3.5-2.3s-23.8-10.8-23.8-10.8l69.8-109c0,0-38,13.8-47.8,17.5s-35,5.3-35,5.3s-21,22.5-44,38
			s-51.3,19.5-72.3,24.5s-50.3,5.5-50.3,5.5s12.3,25.5,18.8,38.5s6.5,19.5,6.5,19.5l-31.3,45.3L271.1,33.2L271.1,33.2z M538.4,701.9
			c-0.1,0,0.1,0.1,0.1,0.1L538.4,701.9C538.4,701.9,538.4,701.9,538.4,701.9L538.4,701.9z"/>
	</g>
	<path class="st1" d="M401.3,443.3c0,0-7.1-6.3-20.5-2.9c9.8-9.8,14.6-13.7,22.1-18.5s15.9-14.8,23.4-23.6
		c7.1-8.4,16.3-21.8,20.4-29v235.4c0,0,13.5,12.1,9.6,30.3c-1.7,7.7-6.6,18-6.6,18s-12.5-29.6-42.6-18c5.8-18.1,6-19.9,6-19.9
		s-0.3-122.9-0.3-137C412.8,458.5,411.2,450.8,401.3,443.3z"/>
	<path class="st1" d="M551,365.3v22c0,0,42.5,56.3,50.8,71.3s30,56,33.8,61s5.5,7.3,9.5,6s7-1.3,7.3-11.8s0-94.3,0-94.3
		s0.5-10-6.5-14.8c9.8-15.3,21.5-29.8,21.5-29.8v221.5c0,0,0,36,6,50.8s11,14.8,11,14.8s-24.8,8.8-40.8-6.8s-19.3-28-19.3-28
		s25.5,6.8,23.5-15.8s-29-71.3-32.3-78.5s-39.3-63-46.8-69.8s-5.3-8.3-12.5-6.5s-5.3,14-5.3,14L550.7,650c0,0-16.2-20.5-23-23.3
		s-17.3-13.5-19.3-21.8c6.8-1,10.8-1.5,10.8-11s0-151.5,0-151.5s-2.5-8.5-12-6.5c13.8-16.3,14.3-26,13.3-35s-4.5-15-4.5-15
		S544.5,365.5,551,365.3z"/>
	<path class="st1" d="M734,399.3c0,0,16,21-9.3,50c16-2.3,12.3,9,12.3,27.3c0,18.3,0,106.3,0,106.3s1.7,11.7-12.3,9
		c2.7,8.8,7.3,13,12.3,16s26.1,17.9,27.4,27.6c9.9-13.8,36.6-13.6,44-14s26.3-2.4,38.5,15.4s11,24.8,11,24.8s14.1-33.9-3.6-66.6
		c0.1-41.8,0-77.1,0-77.1s-18.1,28.5-29.6,31c16.1,10,13.3,13.8,13.5,29.5s-8,21.2-14.9,23.6c-5.4,1.9-14.5,2.7-14.5,2.7
		s-30.2,0-32.8,0s-6.8-1.3-6.8-7.8s0-163.4,0-163.4s0.7-0.3-2.9-7.9s2-9.8,12.9-21.5c10.9-11.8,31.6-5.6,33-4.9
		c1.4,0.7,16.4,6.9,28.7,19.3c12.3,12.4,11.5,8.7,11.8,17.4c3.5-17.3,6.2-51.2-17-58.6c-23.2-7.4-49.2-9.4-77.9,6.5
		C743.8,392.5,738.3,395.6,734,399.3z"/>
	<path class="st1" d="M1045.8,389c-17.5-15.8-61-31.3-99-7C924,397.8,924,397.8,924,397.8s12.8,23.3-15.5,54c13-1,19.5-3.3,20.3,8.5
		s0,136,0,136s0.3,11.8-10.8,9.1c0,0,4,13,14.6,21.1c10.6,8.1,25.6,22.9,27.9,32.5c9.4-19,49.4-23.4,60.6-14.4
		c17.9-20.4,28.9-32.6,38.8-53.5c9.9-20.9,23.6-62.6,24.6-108.4S1063.3,404.8,1045.8,389z M1059.3,536.1
		c-5.4,22.9-13.3,39.4-28.8,58.1s-41.4,21.5-53.6,21.9c-12.3,0.4-10.8-10.1-10.8-10.1V437.6c0-12.2-10.1-19.7-10.7-20.7
		c-0.6-1-4.6-10.3,14.7-17.3c19.4-7,27.8-5.6,48.5-1.2c20.8,4.4,35.9,36,41.5,50.1C1065.8,462.6,1064.6,513.3,1059.3,536.1z"/>
	<path class="st1" d="M1059.3,536.1c-5.4,22.9-13.3,39.4-28.8,58.1s-41.4,21.5-53.6,21.9c-12.3,0.4-10.8-10.1-10.8-10.1V437.6
		c0-12.2-10.1-19.7-10.7-20.7c-0.6-1-4.6-10.3,14.7-17.3c19.4-7,27.8-5.6,48.5-1.2c20.8,4.4,35.9,36,41.5,50.1
		C1065.8,462.6,1064.6,513.3,1059.3,536.1z"/>
	<path class="st1" d="M1059.3,536.1c-5.4,22.9-13.3,39.4-28.8,58.1s-41.4,21.5-53.6,21.9c-12.3,0.4-10.8-10.1-10.8-10.1V437.6
		c0-12.2-10.1-19.7-10.7-20.7c-0.6-1-4.6-10.3,14.7-17.3c19.4-7,27.8-5.6,48.5-1.2c20.8,4.4,35.9,36,41.5,50.1
		C1065.8,462.6,1064.6,513.3,1059.3,536.1z"/>
	<path class="st1" d="M1284,436c-14.7-33.7-49.7-63.7-69-70.3c0,0-59.3,36.7-78,77c-18.7,40.3-17.7,103.7-6,134.3
		c11.7,30.7,30.7,55.7,57,67.7c26.3,12,41,19,41,19s8.3-24.6,25.7-42c19-19,38.7-52.3,42-90C1300,494,1298.7,469.7,1284,436z
		 M1263.7,561c-5.3,12.7-17,30.3-26.3,43.7c-9.3,13.3-12.7,12.7-21.7,9.7s-20.7-10.3-34.6-18.7c-13.9-8.3-23.4-24.3-28.1-39.7
		c-4.7-15.3-4.7-45.7-4.3-50.6c0.3-4.9,1.7-25.4,14.3-50.4c12.7-25,50.7-51,50.7-51c9.7-0.7,20.7,12.7,34,26.3
		c13.3,13.7,20.3,39.7,24,59.3C1275.3,509.3,1269,548.3,1263.7,561z"/>
	<path class="st2" d="M1263.7,561c-5.3,12.7-17,30.3-26.3,43.7c-9.3,13.3-12.7,12.7-21.7,9.7s-20.7-10.3-34.6-18.7
		c-13.9-8.3-23.4-24.3-28.1-39.7c-4.7-15.3-4.7-45.7-4.3-50.6c0.3-4.9,1.7-25.4,14.3-50.4c12.7-25,50.7-51,50.7-51
		c9.7-0.7,20.7,12.7,34,26.3c13.3,13.7,20.3,39.7,24,59.3C1275.3,509.3,1269,548.3,1263.7,561z"/>
	<path class="st2" d="M1263.7,561c-5.3,12.7-17,30.3-26.3,43.7c-9.3,13.3-12.7,12.7-21.7,9.7s-20.7-10.3-34.6-18.7
		c-13.9-8.3-23.4-24.3-28.1-39.7c-4.7-15.3-4.7-45.7-4.3-50.6c0.3-4.9,1.7-25.4,14.3-50.4c12.7-25,50.7-51,50.7-51
		c9.7-0.7,20.7,12.7,34,26.3c13.3,13.7,20.3,39.7,24,59.3C1275.3,509.3,1269,548.3,1263.7,561z"/>
	<path class="st1" d="M1302.5,666.4c0,0,31.3,12.4,56.8,38.9s38.8,55.3,38.8,55.3V324.8c0,0-1-10.8,9.5-10.5s28,3.5,36.5,9
		s28.5,14.5,28.5,44.5s0,227.5,0,227.5s1.8,11-9.3,10.8c5.3,10.1,10.5,14.5,13.8,17s31,25.5,34.3,32c0-20.8,0-268,0-268
		s-3-7.3,11.8-9s28-6,48.5,1.8s26.8,13.5,44.5,35.8s22,65.8,20.3,86.8s-9.9,57.4-16.3,72.8s-27,64-27,64s-18,36.3-19,39
		s-18.7,46-20.7,53.7c-2,7.7-13.3,40.7-16,79c-2.7,38.3,3,67,4,72.3s6.3,29.3,6.3,29.3s8.9-43.8,10.6-50.4
		c1.7-6.6,12.7-37.2,13.8-39.8c1.1-2.6,16.3-34.8,20.3-42.5c4.1-7.7,23.9-41.9,27.2-45.9s37-56.3,39.8-63.5s24.8-57.8,29.8-78.5
		s9-48.5,6.3-76.5s-10.1-68.6-26.8-92c-17.3-24.3-25-35.8-40.3-45.8s-41.3-25.5-72.5-22.8s-31.5,3.5-33.5,3.8s-9,2-11.5-9.8
		s-7.3-28.8-18-36.5s-29-20-63-19.5s-37,2.3-64.5,11.5s-52.5,42-46,68c11.3-33.8,21-36.5,29.8-43.8s18-8.8,23-9.5s20.3-2.3,18,17.3
		s-11.8,40.5-19.3,51.5s-25,26-25,26v151.8c0,0,2,23.3-13.5,51.3S1302.5,666.4,1302.5,666.4z"/>
	<path class="st1" d="M1886.5,210c0,0,0,262.5,0,267.5s-2,12.5,11.8,12.5s55.5,0,61,0s7.5-1.8,7.5-12.3s-0.3-54.3,0-58.5
		s-2.5-8.5-2.5-8.5s39-19.5,39-37.3s0,265,0,271.3s-1.3,8.3,8.3,15.3s15.5,6.3,15.5,6.3s-3.8,7.8-11.5,9.8s-15.5-4.3-20.8-7
		s-28.8-10.8-28.8-10.8s0-133.8,0-140.3s-4.1-8.5-9.3-8.5s-58.9,0-62.7,0s-9.3,0.3-9.3,9s0,385,0,385s-34.5-112.3-49-133.5
		s-36.3-35-46-33.8c16-20,34.8-47.8,39.3-70.3s3.8-32.3,3.8-32.3s0-287.3,0-295.5s-6.5-28.5-32.5-22.3s-41,12.8-54,27.5
		c19.8-26.8,33.8-39,38.5-42.3S1884,223.3,1886.5,210z"/>
	<path class="st1" d="M2072.3,410.3c0,0,38-29.5,70.5-28.3s44.8,12,48,21.3s2.8,33.3,0,42.8c-0.8-7.5-3.8-8.5-6-10.5
		s-27.5-25.3-41-27s-17-0.3-19,0.5s-7.3,4.5-10.5,7.8s-8.3,9.5-9.5,11s-4.2,6.5,1.5,11c1.3,1,0.8,45.3,0.8,51s3.8,9.5,9.3,8.3
		s21-5.5,26.3-12s11.3-13.3,11.8-15.3s-1,8.8-1,13.3s1.8,10.5,7.5,12.5s22.3,5.3,22.3,5.3s-10,4.8-18.8,7s-12,10.5-11.5,13.3
		s1.8,15.3,1.8,15.3s-10.5-15.5-17-19.3s-14.8-7.5-19.8-8.5s-11-0.3-11,6.3s0,84.5,0,89s-1,11.8,8,11.5s28.8-4,36.3-8
		s22.5-14.8,27.5-23.3c0.5,15.8,4,32.8,5.3,36.5s9.5,30,16.3,37.3c-17.8-10-33-21.5-50-24.8s-32-5-46.5,12.5
		c-21.5-24.5-16-20.3-29.8-27.8s-10.5-15.3-10.5-15.3s11,2.3,10.8-7.8s0-120,0-129.3s-11.1-6.3-11.1-6.3s12.6-16.5,13.6-25.3
		S2077,420.8,2072.3,410.3z"/>
	<path class="st2" d="M2322.2,424.7c0,14.2,0,70.5,0,70.5s-29.2-45-37-57.2C2291.7,438.3,2318.2,428.7,2322.2,424.7z"/>
	<path class="st1" d="M2366.3,619.7c-1-13-6.7-12.7-9.7-16.7s-11-5-11-12s0-212,0-212s-18.7,23.3-32.7,36.3s-45.7,19.3-45.7,19.3
		s10,6,14,13s7.3,19,8.3,25.7c1,6.7-3.3,19.3-7.3,36.7s-15.7,37.3-20,44c-4.3,6.7-20.7,25.3-24.7,31s-10,14.3-8.3,22.3
		c1.7,8,12.3,24.7,16,30.7c3.7,6,17.3,16.7,24,20.8c4.3-2.6,23-22.1,23-22.1s-5.3,0.3-13-1.3c-7.7-1.7-15.3-14-18.7-20.3
		c-3.3-6.3,3-17,6.7-20c3.7-3,10-14.3,13.3-19.3c3.3-5,9.7-20.7,12.7-31c3-10.3,10.7-8.7,14.3-5c3.7,3.7,13.3,20.3,16.3,25.3
		s8.3,19.3,10,39s-9,27.7-5,27s15,5,30,27.8C2367,643.2,2367.3,632.7,2366.3,619.7z"/>
	<path class="st2" d="M2322.2,424.7c0,14.2,0,70.5,0,70.5s-29.2-45-37-57.2C2291.7,438.3,2318.2,428.7,2322.2,424.7z"/>
	<path class="st2" d="M2487.5,452.7c-11,3-28.2,20.2-28.2,20.2V382c21,0.8,21.8,0.7,33.3,7.3c13.6,7.9,16.2,28.3,17,42.3
		C2510.5,445.7,2498.5,449.7,2487.5,452.7z"/>
	<path class="st1" d="M2516.8,622.7c2-5.3,11.7-33.2,17.5-44.7c5.8-11.5,21-48.5,21.8-51c0.8-2.5,5.5-11.8,2.5-19.5
		s-5.9-21.6-15.8-34.7c-7.3-9.7-9.2-9.2-9.7-12.3s0.8-8.3,3.5-11.8c2.7-3.5,11.2-31.3,7.2-46.3s-6.2-20.7-22.2-32.3
		s-42.8-9.5-61.2-6.8c-18.3,2.7-20.8,5.8-26.2,8c-5,2-20.9,13.4-22.9,14.9c2.1-1.4,20.4-13.3,33.8-7c14.2,6.7,4.5,33.5,2.7,38.7
		c-1.8,5.2-7.5,27.3-31,44.7v150.5c0,0-5.2,16.3-5.3,17.8s-0.3,5-0.3,5s6.8-3,13.5-2.8c6.7,0.2,22,5.8,27.8,18.2
		c6.3-12.7,6.3-14.4,6.3-18.4c-0.1-4,1.6-11.6-2.1-15.1s-7.6-6.2-7.6-11c-0.1-4.8,0.1-87,0.1-91.4s1.4-12.2,4.6-15.9
		c3.1-3.8,11.4-20.1,32.6-21.9s31.1,10.6,33.6,13.4s11.8,17.9,7.2,27.7s-6.1,13.7-17.7,19.7c0,11.1-0.7,18.4-1.8,21.1
		s-6.8,15.5-7.7,17.3c-0.9,1.8-9.6,20.4-10.5,25.1c-0.9,4.7-5,17.3-5.8,27.3c-0.8,10-1.6,14.2-1.4,18.3c0.3,4.1,0.8,14.9,2.9,23.1
		c2.1,8.2,8.5,23.1,11.8,28.7c3.8,5.4,8.4,10.6,8.4,10.6s8.1,9.3,18,13.6c9.9,4.3,19.4,4.8,19.4,4.8s-22.3-6-27.3-25.4
		c-4.9-19.4-6.2-30-5.5-41.4C2510.8,649.9,2514.8,628,2516.8,622.7z M2487.5,452.7c-11,3-28.2,20.2-28.2,20.2V382
		c21,0.8,21.8,0.7,33.3,7.3c13.6,7.9,16.2,28.3,17,42.3C2510.5,445.7,2498.5,449.7,2487.5,452.7z"/>
	<path class="st2" d="M2487.5,452.7c-11,3-28.2,20.2-28.2,20.2V382c21,0.8,21.8,0.7,33.3,7.3c13.6,7.9,16.2,28.3,17,42.3
		C2510.5,445.7,2498.5,449.7,2487.5,452.7z"/>
	<path class="st1" d="M2750.8,375.3c0,0,6.3,32.5-11,51.5c-17.3,19-36.8,17.7-42.8,17.8c-6,0.2-10.5,0.7-10.8,9.3
		c-0.3,8.7,0,66.8,0,66.8s0,133,0,137.3c0,4.3,1,9.9,9.9,9.9c8.9,0,24.8,0,24.8,0s3.8,29.8,7.5,35.1c-9,0-41.8,0.2-82.8-30
		c-41-30.2-44.3-68.7-35.2-110c2.3,17.7,8.5,41.2,19.3,53.5c10.8,12.3,9.7,10.2,12,10.5c2.3,0.3,7.7,0,8.5-5c0.8-5,6.2-34,6.2-34
		l7-39.2c0,0,8-36.7,2.8-50.8c-5.2-14.2-14.2-21.8-14.2-21.8s9.3-16.8,16.3-22.2c7-5.3,0.5-15.8-4-19.7s-24.7-20-31.7-22
		s-14.5-4.7-22.2-1.8c-7.7,2.8-15.8,8.3-19,13.8c0-13.7,0.9-25.3,7.5-33.2c7-8.3,19.2-5.7,32.3,1.3c13.2,7,44.7,23.2,53.2,24.5
		c8.5,1.3,22.5,4,38-6.2S2749.2,386,2750.8,375.3z"/>
	<path class="st1" d="M2781.7,640v204.7c0,0,8-77,40.3-69.3c32.3,7.7,73-23.7,83.7-51.7c10.7-28,16.7-60,15-83.7
		c-1.7-23.7-9.3-74.7-25.7-94s-30.7-33.7-43.7-46.7c-13-13-37.3-33.3-41.6-53c-4.3-19.7,2.8-50.5,17.7-57.5
		c14.8-7,34.5-11.5,49.2,4.7s21.3,26,21.3,26V282.3c0,0-15.3,31.8-20.2,37.2c-4.8,5.3-6.2,9.5-19,11.8c-12.8,2.3-20.7-4.5-27.5-7
		c-6.8-2.5-14.3-3.8-23,9.2c-8.7,13-12.5,30-13.7,37s-3.3,25-2.7,35.7c0.7,10.7,2.3,32.2,11.5,48.8c9.2,16.7,26,37.8,39,50.7
		c13,12.8,30.2,43.2,32.8,49c2.7,5.8,11.7,26.8,11.8,40.7c0.2,13.8,1.2,46.2-21.3,60.8c-22.5,14.7-42,17-61.3,3.8
		C2785,646.8,2781.7,640,2781.7,640z"/>
	<path class="st1" d="M232.5,210.2v262.5c0,0,0,14.3,0,20c0,5.7,5,12.7,10.7,9.7c5.7-3,9.8-11.3,14-17.8
		c4.2-6.5,77.2-117.3,77.2-117.3s9-12.8,8.8-24.3c-0.2-11.5,2.2-15.5-7.2-29.2c36.5-6,67.2-14.8,81.3-25
		c-15.3,24-160.2,245.7-160.2,245.7s-4.2,5.7-6,9c-1.8,3.3-2.3,6.2,1,10.5c3.3,4.3,43.2,53.7,49.2,60.5c6,6.8,39.5,43.8,44.2,49.2
		s43.3,43,46.7,45.8c3.3,2.8,47.2,40.3,61.2,48c14,7.7,25.5,17.2,48,24.2c22.5,7,42.8,15,42.8,15s-34,3.7-69.7-5.3
		s-47.7-13.3-53.7-15.8s-11.8-4.5-24.8-2.8s-24.8,3.4-30.7,0.8s-11.6-7.3-11.6-7.3s7.6-9.3,4.4-17.5s-7.9-16.8-10.4-20.3
		s-41.8-62.3-48.3-72s-48.8-72.8-52.3-77s-14.8-7.5-14.8,7.8s0,315.3,0,315.3S199.8,808,195,796.8s-13.8-37.5-32.5-48.8
		s-26.3-11.8-26.3-11.8s33.5-42.3,38-65.8s5.5-29,5.5-60.3s0-268,0-274s-2.3-19-28-21s-51.6,21.9-59.5,28.4
		c33-44.3,46-48.4,54.5-54.2S223.5,229.1,232.5,210.2z"/>
	<g>
		<path class="st0" d="M2305.3,557c0.2,0,0.9,1.3,5.7,10.5c7,13.5,6.6,33.6,6.6,33.6s-2.2-1.4-4.7-1.4c-1.6,0-3.5,0.6-5,2.4
			c-4,4.8-12.5,11-17.1,13.1c-0.8,0.4-1.6,0.6-2.4,0.6c-3.4,0-5.9-3.3-8-5.1c-2.5-2.1-4.5-6.1-4.5-6.1s0.3-0.9,2.4-3.5
			s11-15.6,13.8-19.3s9.9-18.6,10.9-21.1c0.9-2.2,1.3-3.7,1.9-3.7c0.1,0,0.1,0,0.2,0.1c0,0,0.1,0,0.1,0
			C2305.2,557.2,2305.2,557,2305.3,557 M2305.3,549c-0.5,0-1,0-1.5,0.1c-5.3,0.5-7.1,5.4-7.9,7.5c-0.1,0.3-0.3,0.7-0.4,1.1
			c-1.1,2.8-7.9,16.7-9.8,19.3c-1.4,1.8-3.9,5.4-6.6,9.3c-2.7,3.8-6,8.6-7,9.8c-2.8,3.5-3.5,5.2-3.8,6.3l-0.9,3l1.4,2.8
			c0.5,0.9,2.9,5.6,6.5,8.6c0.2,0.2,0.6,0.6,1,0.9c2.3,2.3,6.3,6,12.2,6c2,0,3.9-0.4,5.7-1.3c5.3-2.4,14.3-8.9,19.4-14.6l9.6,2.4
			l2.6-9c0-0.9,0.3-22.3-7.5-37.5c-2.3-4.5-3.8-7.3-4.6-8.9C2312.3,552.7,2310.2,549,2305.3,549L2305.3,549L2305.3,549
			C2305.3,549,2305.3,549,2305.3,549L2305.3,549z"/>
	</g>
	<g>
		<path class="st0" d="M994.1,410c0.8,0,1.6,0,2.4,0c20.8,0.7,31.2,12,39.2,22s21,61,3.7,115.3c-16.5,51.8-53.6,53-57.1,53
			c-0.2,0-0.3,0-0.3,0V444c0-24-7.7-26.7-7.7-26.7S975.6,410,994.1,410 M994.1,402c-24.1,0-27.3,11.7-27.7,14.1l-1.1,6.7l5.2,1.8
			c0.9,1.2,3.5,6,3.5,19.5v156.3v7.7l7.7,0.3c0,0,0.2,0,0.5,0c4.7,0,46.5-1.6,64.7-58.6c9.9-31.1,9.8-59.3,8-77.5
			c-2-20.1-7.1-37.9-13-45.2c-6.8-8.4-19.3-24.2-45.1-25C995.9,402,995,402,994.1,402L994.1,402z"/>
	</g>
	<g>
		<path class="st0" d="M1216,421c0,0,0,0,8.3,6c8.3,6,14.7,16.3,21.3,28.3c6.7,12,10.7,36,12,47.7c1.3,11.7-4,37.3-10.7,55.3
			s-26,42.4-26,42.4s-16.7-7.4-26.3-14.4c-9.7-7-21-18-25.7-31s-5.3-28.7-4.7-43.7c0.7-15,6.7-38,12-49
			C1181.7,451.7,1216,421,1216,421 M1215.5,410.8l-4.8,4.3c-5.9,5.3-35.8,32.3-41.5,44.1c-5.5,11.3-12.1,35.4-12.8,52.1
			c-0.9,19.7,0.8,34.5,5.1,46.7c6,16.6,20.4,28.9,28.5,34.8c10.2,7.4,27.1,14.9,27.8,15.3l5.7,2.5l3.9-4.9
			c0.8-1,20.2-25.6,27.2-44.6c6.7-18.1,12.7-45.1,11.1-59c-0.4-3.5-4.2-34.9-13-50.6c-6.8-12.2-13.7-23.8-23.7-30.9l-8.3-6
			L1215.5,410.8L1215.5,410.8z"/>
	</g>
</g>
<g id="Layer_4">
	<path class="st3" d="M2319.2,483.7c0,0-20.6-29.9-28.4-42c6.1-1.4,22.6-9,28.4-12.3C2319.2,443.5,2319.2,483.7,2319.2,483.7z"/>
</g>
<g id="Layer_2">
	<g>
		<path class="st0" d="M240,182.2v280.1c-0.8,6.9,0.6,9.6,2.1,11.4c1.6,1.8,3.9,2.9,6.3,2.9c3.2,0,6-1.7,8.2-5.1
			c0.7-1.2,5.1-7.8,11.2-17.1c44.2-67.1,61.1-93,62.4-95.3l0.1-0.2c7.4-13.8,7.7-26.5,0.9-37.8c-1.6-2.6-2.9-4.8-4.2-6.8
			c-1.8-2.9-3.9-6.2-4.2-7.4c0,0,0,0,0-0.1c1.5-0.5,5.1-0.6,7.4-0.6c3.5-0.1,7.5-0.2,11.2-1.1c1.5-0.4,3.9-0.9,6.8-1.5
			c12.8-2.7,36.6-7.6,52.1-15.1c10.2-5,35.2-18,47.1-32c0.9-1,1.6-1.9,2.3-2.7C426.6,289.5,319.3,453,260.1,543.4l-3.2,4.9l3.6,4.5
			l36,45l0.1,0.2l0.1,0.2c25,28.1,67.6,75.8,71.7,78.8c1.2,0.9,7.3,6.6,13.2,12.1c14.9,13.8,35.2,32.7,44.4,39.3
			c1.3,0.9,2.9,2.1,4.7,3.5c15.8,11.8,52.9,39.6,115.8,57.5c9.8,2.9,16.3,4.8,21,6.1c9.6,2.7,10.8,3.1,15.6,5.1
			c-0.3,0-0.6,0.1-1,0.1c-7.6,0.5-16.7,1.4-24.8,2.2c-7.4,0.7-14.3,1.4-18.4,1.6c-1.9,0.1-4.8,0.2-8.2,0.2c-13,0-30.3-0.8-38.1-2.3
			c-11.4-2.2-39.4-8.2-49.3-11.1c-3.9-1.1-8.4-2.9-12.7-4.7c-6.8-2.7-13.1-5.3-18.5-5.9c-3.1-0.3-5.7-0.5-8.4-0.5
			c-4.5,0-9.3,0.4-16.6,1.2c-0.8,0.1-1.6,0.2-2.4,0.3c-4,0.5-7.9,0.9-11.5,0.9c-5.7,0-10.2-1.1-14.5-3.6
			c-8.1-4.7-15.4-11.4-18.9-15.4c2.9-0.2,7.4-0.9,9.9-5.4c3-5.4,0.5-11.7-4.2-19.4c-9.1-15-87.8-131-88.3-131.7
			c-1.2-1.7-3.8-5.4-8.5-5.4c-1.8,0-7.9,0.7-8.9,9.5c-0.2,2-0.3,4.8-0.3,9.3v335.3c0-0.1-0.1-0.2-0.1-0.3
			c-6.4-22.1-48.7-149.7-54.9-163.3l-0.2-0.5c-6.5-14.4-18.6-41.2-40.8-46.3c-8.8-2-14.6-2.9-18.9-2.9c-2,0-3.4,0.2-4.4,0.3
			c-0.2,0-0.3,0-0.5,0.1c0.2-0.3,0.6-0.6,0.9-1c10.1-10.1,30.4-36.8,37.6-52.9c6.4-14.2,13-32.8,13-62.3V341.8c0-0.5,0-1.1,0.1-1.7
			c0.2-2.9,0.6-7.9-3.2-12c-4.2-4.5-11.1-5.1-16.6-5.1c-14.5,0-46.3,8.4-62.6,40.1c-14.2,27.7-20.1,49.1-20.4,74.1
			c0,4.3-0.1,7.7-0.1,10.2c-2.5-14-5.1-41.7-1.1-62.6c4.8-24.8,23.5-61,49.9-82.3c5.6-4.5,12.5-9.9,19.7-15.5
			c31.1-24.3,69.8-54.5,85.1-76.3c8.9-12.7,13.7-21.3,16.9-27C239.5,183.1,239.7,182.6,240,182.2 M241.4,170.4c-0.5,0-1.1,0-1.7,0.1
			c-5,0.8-5.8,9.5-24,35.5s-74.8,67.3-103.3,90.3s-47.8,61.3-52.8,87s-0.5,61,2.5,72.3c1.3,5,3.6,6.7,5.9,6.7c2.8,0,5.6-2.5,6.9-4.5
			c2.3-3.5,1.5,3,1.8-20.5s5.8-43.8,19.5-70.5s41-35.8,55.5-35.8s11.8,5.3,11.8,10.8s0,258.3,0,284.8s-5.5,44-12.3,59
			s-26.5,41-36,50.5s-0.5,14.8,3.8,14.8c2.1,0,3.2-0.5,5.9-0.5c2.9,0,7.6,0.5,17.1,2.7c18.5,4.3,29.5,29,35.5,42.3
			S226,936.8,232,957.5c2.4,8.4,5.5,11.2,8.3,11.2c4,0,7.5-5.9,7.5-8.7c0-4.8,0-327.5,0-339.8c0-8,0.3-10.8,1.2-10.8
			c0.5,0,1.1,0.8,2,2c2.5,3.5,79.5,117.3,88,131.3s2.5,12.5-1.8,12.8s-8.5,4.8-6,9.3s12.5,14.5,23.8,21c6.3,3.6,12.4,4.7,18.5,4.7
			c4.8,0,9.7-0.6,14.7-1.2c7.2-0.8,11.6-1.2,15.7-1.2c2.5,0,4.8,0.1,7.5,0.4c7.3,0.8,19.5,7.3,29.7,10.3s38.3,9,50,11.3
			c9,1.7,27.6,2.4,39.6,2.4c3.6,0,6.6-0.1,8.6-0.2c8.8-0.5,28.8-2.8,43.3-3.8s12.3-11.8,4-15.3s-7.5-2.8-38-11.8
			c-68.5-19.5-104.8-50.3-118-59.8s-53.5-48.3-57.5-51.3s-70.5-77.8-70.5-77.8l-36-45c0,0,192.3-293,194.5-296.8s-2.5-7.5-5.5-9.3
			c-0.7-0.4-1.4-0.7-2.2-0.7c-2.5,0-5.6,2.5-12.1,10.2c-8.5,10-26.5,21.3-44.5,30s-49,14-57.3,16s-20.3-1-23.5,5.3
			c-3.3,6.3,0.3,9.3,8.3,22.6c8,13.4,0.8,26.4-1.3,30.1S253.3,462,250,467c-0.7,1.1-1.2,1.5-1.5,1.5c-1.3,0-0.5-5.7-0.5-5.7v-281
			C248,173.1,245.5,170.4,241.4,170.4L241.4,170.4z"/>
	</g>
	<g>
		<path class="st0" d="M454.4,334.9c0.1,0.7,0.1,1.5,0.1,2.6v262.8l-0.1,3.2l2.3,2.3c0.7,0.8,10.7,12.1,6.8,29.1
			c-2.9,12.7-7.2,28.4-12.2,44.4c-0.1-0.4-0.2-0.9-0.3-1.3c-1.5-7.3-3.7-17.2-9-24.1c-5.8-7.5-12.3-14.8-21.8-14.8c-0.3,0-0.7,0-1,0
			c-7.4,0.4-14.6,5.7-17.7,7.9c-0.3,0.2-0.5,0.3-0.6,0.4c-0.1,0-0.1,0.1-0.2,0.1c-0.5-1.1-0.6-3.4-0.7-6.2
			c-0.2-5.8,0.1-10.6,0.5-12.1c0.4-1.5,3-9,5.2-15.1l0.5-1.3l0-1.4c0-0.3,0.3-34.8,0.5-69.6c0.3-71.2-0.3-74.5-0.7-76.2l-0.1-0.3
			c-1.4-6.9-3.2-16.2-14.2-18.4c-1-0.2-2.1-0.3-3.1-0.3c-9.7,0-16.5,8.7-19,12.4c-3.2,4.8-9.2,17.9-10.3,20.3
			c0.8-5.4,2.6-17.6,3.3-20c2.1-5.6,9.7-22.1,15-26.9c6.1-5.6,9.6-8.7,10.6-9.7c3.9-2.8,31.8-23.5,48.1-52.7
			c14.3-25.6,15.9-29.7,17.5-34.1C454.1,335.6,454.2,335.3,454.4,334.9 M455.1,325.1c-0.4,0-0.8,0-1.1,0c-2.3,0-4.5,0.5-6.7,5.8
			c-2.2,5.3-1.3,5.7-17.8,35.2s-46.2,50.3-46.2,50.3s-3.5,3.2-11,10s-16,27-17.2,30.2c-1.2,3.2-3.8,22.7-4.5,26.8
			c-0.6,3.9,3.8,7.6,7.6,7.6c0.3,0,0.6,0,0.9-0.1c4-0.7,5.8-4.7,7.3-8s7.2-15.5,9.8-19.5c2.4-3.6,7.1-8.8,12.3-8.8
			c0.5,0,1,0,1.5,0.2c5.8,1.2,6.7,5.8,8,12.5c1.3,6.7,0,144.2,0,144.2s-4.8,13.2-5.5,16c-0.7,2.8-0.8,8.8-0.7,14.2
			s0.3,10.8,5.3,13.7c1.5,0.9,2.7,1.2,3.7,1.2c2.2,0,3.3-1.7,4.3-2.4c1.5-1,8.5-6.7,14.3-7c0.2,0,0.4,0,0.5,0
			c5.6,0,10.3,5.1,15.5,11.7c5.3,6.8,7,19.3,8.5,25.2c1.3,5.2,4.7,6,7.3,6c0.3,0,0.6,0,0.9,0c2.7-0.2,5-3.2,5.8-5.8
			c0.8-2.7,8.2-25.7,13.2-47.5s-8.8-36.3-8.8-36.3s0-249.5,0-262.8C462.5,325.9,457.8,325.1,455.1,325.1L455.1,325.1z"/>
	</g>
	<g>
		<path class="st0" d="M676.3,343c0,2.7,0,6.9,0,12.2c0.5,194,0.4,245.7,0.1,253.2c-0.6,2.5-0.5,6.2-0.1,12.6
			c0.2,3.2,0.9,11.1,2.2,15.8c0.2,0.6,0.3,1.2,0.5,1.8c1.8,6.9,4.5,17.4,13.6,22.4c3.6,2,6.7,3,9,3.8c0.1,0,0.2,0.1,0.3,0.1
			c-5.1,2.1-12.8,5-14.8,5.5c-2.1,0.5-12.4,1.7-19.1,1.7c-1,0-1.8,0-2.4-0.1c-5.2-0.4-15.8-3.7-20.1-6.9c-4.2-3-15.5-11.1-20.5-20.1
			c-3.5-6.3-11.7-21.1-12.3-29.7c-0.1-1.4-0.1-2.5-0.1-3.3c3.7,3.8,9.1,7.2,14.2,7.2c0.5,0,1.1,0,1.6-0.1c4.2-0.6,7.7-2.9,9.7-6.2
			c1.1-1.9,2.7-6,0.6-11.5c-1.9-4.9-19.4-45.8-24.1-54.5c-4.2-7.8-36.9-61.3-38.6-63.7c-0.9-1.1-3.5-4.6-8.1-4.6c0,0,0,0,0,0
			c-2.3,0-4.5,0.9-6.2,2.6c-2.8,2.8-3.1,6.8-3,10.7c0.2,6.9,0,168.1,0,181c0,0-0.1-0.1-0.1-0.1c-0.3-0.6-0.7-1.1-1-1.6
			c-1.6-2.3-21-27.2-25.6-32c-2.9-3-8.4-7.2-13.7-11.2c-2.7-2.1-5.8-4.4-6.7-5.3c-2.6-2.5-9.6-11.2-10.6-17.2
			c-1.1-6.2-1.2-15.2-0.8-19.7c0.7,0.2,1.5,0.3,2.3,0.3c2.4,0,4.7-1,6.3-2.8c1.9-2.1,4.6-4.9,2.6-30.4v-97.3c0.4-2.2,0.5-5.9-1.8-9
			c-1.8-2.3-4.5-3.6-7.4-3.6c-0.7,0-1.3,0.1-2,0.2c-0.1,0-0.3,0-0.5,0c-3.6,0-8.7-0.8-12.4-1.7c11.4-1.6,25.4-19.8,26-34.4
			c0.5-12-3.4-19.2-5.5-22.9c0.3-0.4,0.6-0.8,0.8-0.9l0.7-0.5c16.7-13,24.9-17.5,28.4-19l2.1-0.9c6.5-2.9,15-6.7,18.8-8
			c0,7.4,0.5,26.4,0.5,27.2l0.1,2.5l1.5,2c0.4,0.6,41.6,56.7,47.8,66.7c4.3,6.8,10.9,18.6,14.8,25.6c2.8,4.9,3.5,6.2,3.9,6.9
			c0.1,0.2,0.2,0.4,0.3,0.6c1.3,2.3,3.7,6.6,8.9,6.6c1.4,0,8.6-0.5,8.6-10.6v-62v-0.2l0-0.2c-0.4-8.2-4.9-13.8-11.3-14
			c0.6-0.9,1.9-2.5,4.5-5C643.5,395.6,673.3,356.5,676.3,343 M675.6,328.8c-4.1,0-6.1,3.9-7.1,12.2c-1.2,9-30,48.3-36.3,54.3
			c-6.3,6-7.5,9.2-7.5,11.7c0,2.4,3.4,7.2,7,7.2c0.2,0,0.4,0,0.7-0.1c0.2,0,0.3,0,0.5,0c3.4,0,3.7,6.4,3.7,6.4s0,56.3,0,62
			c0,1.9-0.2,2.6-0.6,2.6c-0.7,0-1.9-2.6-2.6-3.6c-1-1.5-12.2-22-18.7-32.3c-6.5-10.3-48.2-67.2-48.2-67.2s-0.5-20.5-0.5-27.5
			c0-6.3-3.8-7.9-6.7-7.9c-0.3,0-0.6,0-0.9,0.1c-3,0.3-13.7,5.2-24.5,10c-10.8,4.8-28.5,18.8-30.7,20.5c-2.2,1.7-5.3,6.3-4,9.2
			c1.3,2.8,6.2,8.3,5.7,20.7s-13.5,26.7-19.5,26.8c-6,0.2-11.7,6.7-8.5,11.5c2.7,4.2,16.8,6.1,22.4,6.1c0.9,0,1.5,0,1.9-0.1
			c0.2,0,0.4-0.1,0.6-0.1c2.3,0,1.3,3.7,1.3,3.7v98.5c0,0,2,24.9-0.9,24.9c-0.1,0-0.3-0.1-0.5-0.2c-1-0.8-2.1-1.2-3.1-1.2
			c-2.5,0-4.7,2-5.8,3.7c-1.5,2.3-1.5,17.8,0,26.5c1.5,8.7,10,18.8,13,21.7c3,2.8,16,11.8,20.2,16.2s23.3,28.8,24.8,31
			c1.2,1.7,4.1,8,8.3,8c1,0,2.2-0.4,3.3-1.3c6-4.7,4-8.7,4-8.7s0.2-174.7,0-182c-0.1-4,0.5-5.1,1.1-5.1c0.6,0,1.2,0.8,1.7,1.4
			c1,1.3,33.5,54.3,38,62.7s21.8,48.7,23.7,53.5s-1.7,6.7-4,7c-0.1,0-0.3,0-0.4,0c-2.4,0-6.6-2.4-9.4-5.9c-1.8-2.2-3.8-3.1-5.6-3.1
			c-1.1,0-2.2,0.4-3,0.9c-2.2,1.5-4.7,3.2-4,12.7s7.7,22.8,13.3,33c5.7,10.2,17,18.5,22.8,22.7c5.8,4.2,17.8,7.8,24.2,8.3
			c0.9,0.1,1.9,0.1,3,0.1c7,0,18-1.2,21-1.9c3.5-0.8,16.5-5.8,20.3-7.8c3.8-2,3-7,0.7-10c-2.3-3-6.8-2.7-13.5-6.3
			c-6.7-3.7-8.5-13.2-10.2-19.3c-1.7-6.2-2.8-23.8-1.9-24.7s0-263,0-270.5s-2.8-10.2-7.6-10.8C676.3,328.8,676,328.8,675.6,328.8
			L675.6,328.8z"/>
	</g>
	<g>
		<path class="st0" d="M809.6,364c6.6,0,12.4,0.7,17.2,1.9c17.3,4.7,27.6,12.2,33.1,24.4c4.8,10.5,5.3,26.6,1.4,45.2
			c-1.4,6.6-8.3,17.6-11.9,22.4c-2.9-1.9-7.2-5-8.9-6.9c0.3-1,1.3-2.6,2-3.8c0.2-0.4,0.5-0.8,0.7-1.2c3.3-5.9,3.2-10.7-0.3-15.6
			c-1-1.4-1.6-2-3-3.1c-0.6-0.5-1.9-1.5-5.2-4.4c-5.8-5.1-14.7-10.1-20.5-13.4c-1.7-1-3.2-1.8-4-2.3c-3.9-2.5-9.3-2.9-12.2-2.9
			c-6.6,0-11.2,1.7-13.5,5.2c-0.9,1.3-3.6,4.7-7.2,8.3l-5.7,5.7l4.9,4.9c0.3,1.1,0.6,3,0.6,4v157.2v7.7l7.7,0.2
			c0.1,0,3.1,0.1,7.2,0.1c5.6,0,13.6-0.2,19.9-1c9.5-1.2,15-3.5,17.3-7.2l1-1.6l0.2-1.9c1.8-21.4-1.8-25.2-3.3-26.8
			c-4.2-4.4-11.1-4.7-22.2-4.7c-1.6,0-3.1,0-4.5-0.1c5-1.2,9.4-4.2,14.9-8c2.3-1.6,5-3.4,7.9-5.2c9.6-6,17.7-17.3,21.6-22.7
			c0.4-0.6,0.8-1.1,1.1-1.5c3.3-4.5,11.9-20,15.3-26.9c0.3-0.6,0.6-1.1,0.8-1.6v102.9l0,1.9l0.8,1.7c0,0,1.7,3.5,3,7.8
			c0.8,2.7,1,3.6,1.5,5.6c0.5,1.7,1.1,4.1,2.4,9c2.2,7.9-0.4,28.9-2.3,37.5c-1.6,7-7.9,32.2-10.1,40.1c-0.1,0.5-0.3,0.9-0.4,1.2
			c-0.6-2.7-1.7-8.4-3.5-20.6c-1.7-11.3-5.2-21.9-10.6-31.7c-6.1-11.1-15.7-13-27.6-14.3c-1.7-0.2-3.6-0.3-5.5-0.3
			c-8.2,0-16.3,1.7-22.2,2.9c-2.1,0.4-4.4,0.9-5.2,1c-4.9,0.3-9.2,3.8-13.2,10.5c-2.5,4.2-4.4,8.8-5.3,11.5c-0.7-1.5-1.3-3.6-1.8-5
			c-0.4-1.3-0.8-2.7-1.3-4.1c-2.3-6.3-9.1-18.8-19.8-25.8c-7.4-4.8-14.2-10.6-18.6-15.8c-2.3-2.7-3-6.4-3.7-10.6
			c-0.2-1-0.4-1.9-0.6-2.9c-0.8-4.1-0.7-13.5-0.2-17.2c0.7,0.1,1.4,0.2,2.1,0.2c2.7,0,5.1-1.1,6.8-3.1c2.5-3,2.1-6.3,1.9-7.6v-98.6
			l0-7.6l-7.6-0.4c-4.1-0.2-15.9-1-20.5-1.7c-0.2,0-0.4-0.1-0.6-0.1c2.4-0.7,4.9-1.5,10.7-4.2c8.8-4.1,12.7-11,15-15.1
			c0.4-0.7,0.8-1.4,1-1.8c3.6-5.3,7.2-21.3,1-31.9c-1.7-2.8-2.2-4.5-2.3-5.2c1.2-1.1,4.4-3.5,8-6.2c7.1-5.3,24-14.9,30.3-18
			c5.8-2.8,13-4.8,22.7-6.4C794.8,364.7,802.6,364,809.6,364 M809.6,356c-9.5,0-18.5,1.2-24.4,2.2c-10,1.7-18,3.8-24.8,7.1
			c-6.8,3.3-24,13.1-31.7,18.8c-7.7,5.7-9.7,7.2-10.7,9.2s-1.5,5.3,2.8,12.7c4.3,7.3,1.5,20.2-0.7,23.3c-2.2,3.2-4.7,10.3-12.8,14.2
			c-8.2,3.8-8.8,3.5-12.2,4.5c-3.3,1-4.8,4.5-4.8,7.5s3,6.5,9,7.5s21.3,1.8,21.3,1.8s0,97.7,0,99c0,1,0.7,2.2-0.6,2.2
			c-0.4,0-1-0.1-1.9-0.4c-0.5-0.2-1.1-0.3-1.6-0.3c-3,0-5.5,2.6-6.2,5.6c-0.8,3.5-1.2,16,0,21.7c1.2,5.7,1.7,11.8,6,17
			c4.3,5.2,11.3,11.5,20.3,17.3c9,5.8,14.8,16.8,16.7,21.8c1.8,5,2.8,11.7,7.2,14.7c1.1,0.7,2.2,1.1,3.3,1.1c3.4,0,6.6-3.1,7.7-6.7
			c1.5-4.8,6.8-16.3,11.5-16.7c4.1-0.3,15.8-3.9,26.9-3.9c1.6,0,3.1,0.1,4.6,0.2c12.2,1.3,17.7,3.2,21.5,10.2s7.8,16.7,9.7,29
			c1.8,12.3,3.2,19.7,4,22.8c0.8,3.2,4.2,6.3,6.8,6.3s6.5-1,8.7-8.8c2.2-7.8,8.5-33,10.2-40.5c1.7-7.5,5-31,2.2-41.3
			c-2.8-10.3-2.5-9.5-4-14.7c-1.5-5.2-3.5-9.2-3.5-9.2V485.3c0,0,0.5-6.3-4.7-7.5c-0.8-0.2-1.5-0.3-2.1-0.3c-3.9,0-6.4,2.9-9.2,8.8
			c-3.3,6.8-11.7,21.8-14.5,25.7c-2.8,3.8-11.2,16.3-20.5,22.2s-15.3,11.2-20.7,12.3c-5.3,1.2-9.2,3.2-9,7.7c0.2,4.5,1.5,7.7,9.3,8
			c7.8,0.3,20-0.5,22.7,2.3c2.7,2.8,1.2,20.7,1.2,20.7s-1.3,2.2-11.5,3.5c-5.8,0.8-13.4,0.9-18.9,0.9c-4.1,0-7-0.1-7-0.1
			s0-154.8,0-157.2c0-2.3-0.8-7.5-2.2-8.8c3.7-3.7,6.8-7.5,8.2-9.5c0.7-1,3.6-1.6,6.8-1.6c2.9,0,6.1,0.5,7.9,1.6
			c3.7,2.3,16.5,8.8,23.5,15s5.7,4.3,7,6.2c1.3,1.8,2,3.2-0.2,7c-2.2,3.8-4.7,7.5-3.5,11.5c1.2,4,13.5,11.8,14.5,12.3
			c0.4,0.2,1.2,0.5,2.3,0.5c1.7,0,4-0.7,6-3.3c3.3-4.3,11.8-17.2,13.7-26c1.8-8.8,6-32.7-2-50.2s-23.5-24.8-38.3-28.8
			C822.8,356.5,816.1,356,809.6,356L809.6,356z"/>
	</g>
	<g>
		<path class="st0" d="M994.7,362.2c4.9,0,10,0.2,15,0.7c21.9,2.1,42.4,20.4,45.5,24c0.2,0.2,0.4,0.4,0.6,0.7
			c8.1,8.9,15,19,20.7,29.9c10.8,20.9,16.1,43.4,15.7,66.7c-0.8,45.1-3.8,53.2-7.8,64.4c-1.3,3.7-2.8,7.9-4.4,13.6
			c-5.8,21-18.6,42.2-24,51.2l-0.8,1.3c-4,6.6-25.5,30.4-32.4,37.8c-0.2,0.3-0.4,0.5-0.6,0.6c0,0,0,0,0,0c-0.4-0.1-1.5-0.5-2.6-1
			c-1.8-0.8-4.3-1.8-8-3c-2.5-0.8-5.5-1.2-9.1-1.2c-7,0-16,1.5-20.9,3.6c-7.2,3-16.9,12.9-20.7,25.2c-0.2,0.6-0.3,1.1-0.5,1.5
			c-0.5-1.3-1-2.5-1.6-3.8c-0.7-1.5-1.5-3.3-2.5-5.9c-2-5.2-4-8.4-6.3-12c-1-1.5-2-3.1-3.1-5.1c-4.8-8.2-16.8-18-20.9-20.4
			c-2.4-1.4-8.3-8.5-11.4-12.2c-2.9-3.5-4.8-9.6-5.7-18.2c-0.2-2,0-6,0.2-9.5c0.1-2.5,0.3-5,0.3-7.1c1,0.4,2.2,0.7,3.5,0.7
			c2.4,0,4.6-0.9,6.2-2.7c2.8-2.9,2.6-6.5,2.5-8.3c0-0.1,0-0.3,0-0.4V468.9c0.1-1.5-0.2-4.3-2.3-6.7c-1.6-1.8-4-2.9-6.5-2.9
			c-0.8,0-1.7,0.1-2.5,0.3c-0.4,0.1-0.7,0.2-1,0.3c-0.7,0-2.1,0.1-5,0.1c-0.1,0-0.2,0-0.4,0c-7.1,0-18.1-2.9-19.8-3.6
			c-0.1,0-0.1-0.1-0.2-0.1c0.6-0.3,1.4-0.6,2.6-1c1.6-0.6,3.6-1.3,6.1-2.5c6.9-3.4,10-6.9,15.7-13.3c0.7-0.8,1.4-1.6,2.2-2.5
			c5.9-6.6,7.6-15.6,8-20.4c0.3-3.7,0.7-13-3.5-19c-0.4-0.6-0.7-1-0.9-1.4c1.1-0.9,3.3-2.4,4.9-3.5c2.2-1.5,4.7-3.2,7.2-5.2
			c5.7-4.5,26.6-17.4,34.2-20.5C966.1,364.9,978.4,362.2,994.7,362.2 M994.7,354.2c-17.2,0-30.5,2.8-37.2,5.5
			c-8.6,3.5-30.3,17-36.1,21.6s-12.4,8-14.4,11s-2.1,4.6,1.5,9.9s3.3,21.6-3.9,29.5s-9.4,10.9-15.6,14s-9.4,2.5-13.6,7.8
			s3.3,9.5,5.8,10.5c2.5,1,14.4,4.1,22.8,4.1c0.2,0,0.3,0,0.5,0c8.4-0.1,6.6-0.4,8-0.8c0.1,0,0.3-0.1,0.4-0.1c1,0,0.8,1.3,0.8,1.3
			s0,103.2,0,104.8c0,1.2,0.4,3.4-0.7,3.4c-0.4,0-0.9-0.2-1.7-0.9c-0.5-0.4-1.2-0.6-1.9-0.6c-3.3,0-7.9,4.1-7.9,8.4
			c0,5.2-0.8,13.5-0.4,17.8s1.7,15.5,7.5,22.5s10.3,12.1,13.5,14c3.3,1.9,14.2,10.9,18.1,17.6c3.9,6.7,6.4,9.4,8.9,15.9
			s3.8,8.2,4.8,11.9c1,3.6,3,4.6,5.8,4.6c0.1,0,0.2,0,0.4,0c0.1,0,0.2,0,0.3,0c0.5,0,1,0,1.6,0c2.3,0,4.4-0.7,6.9-8.9
			c3.2-10.3,11.4-18.2,16.2-20.2c3.4-1.4,11.3-3,17.8-3c2.5,0,4.9,0.2,6.7,0.8c6.3,2,8.8,3.7,11.4,4.2c0.8,0.2,1.5,0.3,2.2,0.3
			c1.7,0,3.3-0.7,5.8-3.3c3.5-3.8,28.5-31,33.4-39.2c4.9-8.2,19.3-31.3,25.7-54.5s11.4-19.3,12.5-80s-35.1-98.4-39-102.8
			s-26-24.3-50.8-26.6C1005,354.5,999.7,354.2,994.7,354.2L994.7,354.2z"/>
	</g>
	<g>
		<path class="st0" d="M1215.3,356.4c4.5,2.9,15.9,9.9,23.9,14.6c9.2,5.4,27.7,23.2,40.7,41.2c8.4,11.6,15.6,28.6,21.3,50.5l0.2,0.7
			c1.7,6.5,4.7,29.6,4.7,41.1c0,11-2.4,39.9-7.1,58.4c-3.2,12.6-10.7,27.5-21.7,43.1c-3.6,5.1-11.8,14.3-18.4,21.7
			c-3.6,4-6.7,7.5-8.6,9.8c-6.3,7.6-13,23-15,34.3c-0.1,0.7-0.2,1.2-0.4,1.7c-1.2-0.2-2.8-0.6-3.9-0.9c-7.4-1.9-57.6-27-64-32
			c-6.8-5.3-14.1-12.1-17.7-16.3c-3.4-4-16.7-22.3-21.7-33.6c-4.9-11-10.4-38.8-11.4-44.9c-0.7-4.3-1.1-21.9-1.3-31.5
			c-0.1-3.4-0.1-6.1-0.2-7.8c-0.1-3.8,2.2-16.8,3.8-25.5c1.1-6.1,2-11.3,2.4-14.3c0.6-5.5,9.3-27.6,18.4-43.6
			c7.7-13.5,20.8-25.4,32.7-35.3c8.8-7.3,35.5-26.1,43.1-31.4H1215.3 M1217.6,348.4h-5c0,0-35.1,24.4-45.8,33.3
			s-25.8,22.1-34.5,37.5s-18.5,39-19.4,46.6s-6.5,33.8-6.3,41s0.6,34,1.6,40.3s6.6,34.8,12,46.9s19,30.9,22.9,35.5
			s11.4,11.6,18.9,17.5s58.6,31.4,67,33.5c2.9,0.7,5.3,1.3,7.3,1.3c3.6,0,5.7-2,6.8-8.4c1.8-10,7.9-24.1,13.3-30.6
			s21.5-23.6,27.4-32s18-26.8,22.9-45.8s7.4-48.4,7.4-60.4s-3.1-36-5-43.1s-8.8-34.5-22.8-53.9s-33.1-37.5-43.1-43.4
			S1217.6,348.4,1217.6,348.4L1217.6,348.4z"/>
	</g>
	<g>
		<path class="st0" d="M1423.6,284.2L1423.6,284.2c15.6,0,28,2.2,32.4,3.3l1.3,0.3c9.7,2.5,29.8,7.8,43.1,21.9
			c13.6,14.4,17,33.1,17.1,33.3l1.3,7.7l7.7-1.1l17.1-2.5c2.2-0.3,6.1-0.5,10.6-0.5c5.2,0,10.6,0.3,14.5,0.7
			c0.8,0.1,1.6,0.2,2.4,0.3c7.4,0.8,15.7,1.6,27.1,5.8c13.1,4.8,22.6,10.4,31.3,15.7c7.8,4.8,21.2,16.9,32,28.9
			c8.8,9.8,21.2,29.4,29.9,55.3c7.7,23.1,9.1,36.9,12.3,70.2l0.3,2.9c2.1,21.6-1.3,47.3-10,76.4l-0.3,1.1
			c-2.6,8.6-10.4,30.4-15.2,42.3c-5,12.4-23.7,48.3-30.4,58.3c-4.1,6.1-8.7,13.2-12.8,19.4c-3.1,4.8-5.8,8.9-7.5,11.4
			c-2.2,3.3-7,11.3-11.6,19.1c-3.6,6-7.3,12.3-8.4,13.9c-3.3,4.9-22.5,42.7-26.2,51.2c-2.8,6.6-7.9,22-12,34.3
			c-1.8,5.6-3.4,10.4-4.3,12.9c-3.1,8.8-7.3,32.1-8.2,38.3c-1,6.6-3.7,38.7-3.7,44.6c0,0.6-0.1,1.2-0.1,1.6
			c-0.1-0.1-0.2-0.3-0.3-0.5c-1.2-1.8-2.3-4.6-3.4-7.3c-0.3-0.7-0.6-1.5-0.9-2.2c-2.8-6.9-9.3-28-10.1-32.7c-0.2-1.3-0.6-3.7-1.2-7
			c-1.9-10.9-5.6-31.3-6.4-41.5c-1-12.9,0-61.7,1.2-71.6c0.7-5.8,3.3-16.5,5.7-26c1.5-6.2,2.9-12,3.7-15.8
			c1.6-8.4,13.9-43.3,17.2-51.6c4.1-10.4,13.1-31.5,16.5-36.7c2.8-4.4,9.5-19.3,18.5-40c3.6-8.1,7.2-16.6,8.1-18.1
			c3.6-6.5,18-49.8,18.1-50.2c3.7-11.2,7.7-38.9,8.2-56.9c0.6-21.3-6.2-45.3-8.4-52.1c-2.2-7.3-9.5-25.9-27.8-42.1
			c-13.7-12.1-28.7-13.6-36.8-14.5c-1.5-0.2-2.9-0.3-3.6-0.5c-1.5-0.3-3.4-0.5-5.6-0.5c-7.7,0-18.6,2-19.1,2.1l-6.5,1.2l0,6.6
			c0,2.7-0.3,260.1-0.3,283.4c-1-1.2-2.3-2.9-3.1-4.1c-1-1.4-2-2.8-3.2-4.2c-4.4-5.3-28.9-30-39.5-38.2
			c-8.9-6.9-15.3-14.7-17.5-21.4c-1.8-5.4-2-11-2.1-14.7c0-1.3-0.1-2.5-0.2-3.5c-0.1-0.9,0.2-3.3,0.6-5.2c0.4,0,0.7,0.1,1.1,0.1
			c2.6,0,4.9-1,6.6-2.8c1.7-1.8,2.4-4.2,2.2-6.9v-215v-0.8l-0.2-0.8c-0.1-0.3-0.4-1.9-1-3.4l0-0.1c-1.8-4.7-6.5-13.7-18.3-22.2
			c-11.6-8.4-19.5-9.2-24.3-9.7c-0.7-0.1-1.4-0.1-1.8-0.2c-1.2-0.2-2.2-0.3-3.2-0.3c-3.8,0-6.2,1.6-7.5,2.9
			c-1.8,1.8-2.7,4.2-2.6,7.1l0,1.9c0,72.4,0.1,423.2,0,455.9c-3.2-5.1-7.4-12.9-11.5-21.9c-5.4-12.2-23.7-38.8-34.7-52
			c-12.1-14.5-34.2-30.4-41.1-34.8c-7.8-5.1-23.8-11.4-28.8-11.8c0,0-0.1,0-0.2,0c0,0,0.1-0.1,0.1-0.1c5.6-6.1,13.7-19.9,22.3-34.5
			c5.8-9.8,11.2-19,14.9-24.3c10.5-14.7,11-42.6,11-48.1V410.5c0-0.2,0-0.4,0-0.5c0.4-0.2,0.9-0.6,1.7-1l0.2-0.1l0.2-0.1
			c34.4-21.3,41.3-70.2,41.5-72.2l1.6-12.3l-11.9,3.6c-36.2,11-45.9,36.6-42.8,56.8l0.8,5.5c-2.6-0.5-5.1-1.8-8.9-4
			c-4.4-2.5-9.7-7.9-10.6-19.5c-0.9-11.7,6.3-24.4,9.1-29.2l0-0.1c4-7.1,19.9-31.2,53.6-44.4
			C1387.4,287.2,1404.7,284.2,1423.6,284.2 M1423.6,276.2c-16.1,0-35.5,2.2-54.2,9.5c-37.8,14.8-54.6,42.6-57.6,47.9
			s-11.3,19.6-10.1,33.9s8.1,22,14.6,25.8c5.1,3,9.6,5.3,15.5,5.3c1.6,0,3.3-0.2,5.1-0.5c8.6-1.8,7.6-13.1-0.6-14.4
			c-1.6-10.9-0.1-36.6,37.3-48c0,0-6.3,46.9-37.8,66.5c-5.3,2.9-5.8,4.1-5.8,8.5c0,4.4,0,150.4,0,153.2s-0.2,30.3-9.5,43.4
			c-9.3,13.1-27.9,48.5-36.6,58c-8.7,9.5,2.6,13.3,5.3,13.5c2.7,0.2,17.6,5.7,25.1,10.6c7.5,4.9,28.2,20,39.3,33.3
			s28.6,39,33.6,50.2c5,11.2,10.4,20.7,14,26c1.4,2.1,3.6,3.1,5.8,3.1c3.5,0,6.9-2.7,7-8.1c0.1-8.8,0-459.6,0-460.3
			c0-0.6-0.2-1.9,2.1-1.9c0.5,0,1.1,0.1,1.8,0.2c4.3,0.8,10.9-0.1,22.8,8.5c11.9,8.6,15.1,17.6,15.5,18.7c0.4,1.1,0.7,2.3,0.7,2.3
			s0,214.2,0,215.2c0,0.8,0.3,1.5-0.7,1.5c-0.3,0-0.8-0.1-1.4-0.2c-0.4-0.1-0.8-0.1-1.3-0.1c-2.4,0-4.7,1.5-5.3,3.3
			c-0.8,2.2-1.9,8-1.6,11.1c0.3,3.1-0.2,11.4,2.7,19.9c2.8,8.5,10.4,17.6,20.3,25.2c9.8,7.6,33.9,31.8,38.2,36.9
			c4.3,5.2,7.8,12.3,13.2,12.3c5.3,0,7.3-3.9,7.3-7.5c0-3.6,0.3-285,0.3-285s10.6-2,17.6-2c1.5,0,2.9,0.1,3.9,0.3
			c5.9,1.3,22.3,0.3,36.8,13.1c14.6,12.8,22.3,28.2,25.4,38.4c3.2,10.3,8.5,31.3,8,49.5s-4.6,44.8-7.8,54.6s-14.9,44-17.6,48.9
			c-2.7,4.9-21.9,50.9-26.3,57.6c-4.3,6.7-14.4,31-17.3,38.2c-2.8,7.2-15.8,43.5-17.6,53c-1.8,9.5-8.2,32.2-9.4,42.3
			c-1.3,10.2-2.3,59.7-1.3,73.3c1.1,13.6,6.8,43.3,7.7,49.1c0.9,5.8,7.8,27.6,10.6,34.5c2.8,6.9,5.3,14.7,11.6,15.8
			c0.5,0.1,1,0.1,1.4,0.1c5.2,0,7.1-5.5,7.1-10.4c0.1-5.3,2.8-37.3,3.7-43.6c0.9-6.3,5-28.8,7.8-36.8c2.8-7.9,12.2-37.5,16.2-46.8
			s22.8-46,25.5-49.9c2.7-3.9,16.1-27.2,20-33c3.9-5.8,13-20,20.3-30.8c7.3-10.8,26.2-47.3,31.2-59.8c5-12.4,12.8-34.3,15.4-43
			c2.6-8.7,14.1-45.1,10.7-80.6s-4.7-50.3-12.9-74.9s-20.8-46.1-31.5-58.1s-24.8-24.9-33.8-30.4s-19.1-11.4-32.8-16.4
			s-23.4-5.6-31.4-6.5c-4.3-0.5-10-0.7-15.4-0.7c-4.6,0-9,0.2-11.7,0.6c-6,0.9-17.1,2.5-17.1,2.5s-3.6-20.9-19.1-37.4
			s-38.3-21.9-48.3-24.5C1452.9,278.4,1440,276.2,1423.6,276.2L1423.6,276.2z"/>
	</g>
	<g>
		<path class="st0" d="M1893.7,183.8c0,0.5,0,1,0,1.5l0.4,288.5l0,8h8h48.5h8v-8v-54.9c0-7.3-5.8-10-8-11c-0.2-0.1-0.4-0.2-0.6-0.3
			c5.6-1.2,10-3.4,16.6-6.8c1.6-0.8,3.4-1.8,5.4-2.8c12.3-6.2,24.7-26.8,32.9-43c3.4-6.7,5.1-11.3,6-14.6v306.2v4.3l3.6,2.4
			c1.7,1.1,10.3,6.6,18,6.6c0.5,0,1,0,1.4-0.1c0.5,0,1-0.1,1.4-0.1c0.3,0,0.6-0.1,0.9-0.1c0,0,0,0,0,0c0.1,1.3-0.2,3.8-1.2,7
			c-1.2,3.9-6.9,12.4-13.3,14.9c-4.3,1.6-6.5,1.9-8.1,1.9c-1.1,0-2.3-0.1-3.8-0.3c-0.9-0.1-2-0.2-3.2-0.3c-3-0.2-9.7-3.6-13.7-5.6
			c-2.1-1.1-4.1-2-5.7-2.8c-5.4-2.3-22.3-7.7-28.5-9.4c0-0.7,0-1.6,0-2V525.5v-8h-8h-50.3h-8l0,8c0.1,134.9,0.2,380.5,0.1,428.5
			c-1.6-5-3.8-11.9-5.3-17.9c-2.4-9.9-25.8-82.2-28.5-89.9c-2.6-7.6-20.3-56.4-27.8-70.2c-7.5-14-16.4-21.1-23.3-25.8
			c-6.6-4.5-17.9-7.8-26.8-7.8c-1.2,0-2.3,0.1-3.3,0.2c-1.5,0.2-2.7,0.2-3.7,0.2c0,0-0.1,0-0.1,0c0.7-0.8,1.6-1.7,2.3-2.5
			c1.2-1.3,2.5-2.7,3.9-4.3c4.9-5.7,10.8-13.5,14.7-18.7c1.4-1.8,2.6-3.4,3.3-4.3c3.3-4.3,11.4-18.9,19-35.9
			c8.1-18,8.7-41.4,8.7-42.3l0-0.1v-0.1c0-10.9,0.2-267.5,0-282.9l0-0.4c-0.1-8.3-0.2-12.5-0.8-15.6c-1-5-3.7-8.2-8.3-9.9l-0.5-0.2
			c-2.3-0.8-5.4-2-10.4-2c-3.1,0-6.8,0.4-11.1,1.3c-11.6,2.4-26.6,9.5-34.8,16.5c-8.6,7.3-21.5,25.6-29.4,48.2
			c-5.4,15.4-8.1,35.7-8.2,60.4c-1-4.1-2.1-11.6-3-29.2c-1-20.1,0.4-27.3,3-40.6c0.4-1.9,0.8-3.9,1.2-6l0.4-2.1
			c2.7-14.3,2.9-15.8,22.9-42.6c16.7-22.4,45.7-44.4,64.9-59c5.2-3.9,9.7-7.4,13-10.1c12.8-10.5,31-28.3,40.7-37.8
			c2-2,3.7-3.6,4.8-4.6c4.6-4.5,9.7-12.3,14.2-19.3c2.3-3.5,4.4-6.8,5.8-8.6C1891.5,188,1892.8,185.8,1893.7,183.8 M1895.2,170.1
			c-1.4,0-2.8,0.6-3.7,1.2c-3,1.8-3.5,8.3-8,14s-13,21-19.3,27s-29.8,29.5-45,42s-57.3,41-79.3,70.5s-21.5,30.8-24.8,48
			s-5.5,24.5-4.3,48.5s2.8,30.5,4.8,35.3c1.7,4.1,4.8,5.1,6.7,5.1c0.3,0,0.5,0,0.8-0.1c1.8-0.3,6.8-2,6.8-10.3s0-36.8,7.8-59
			s20.3-39,27-44.8s20.3-12.5,31.3-14.8c4.1-0.8,7.2-1.2,9.5-1.2c3.9,0,6,0.9,8.2,1.7c3.5,1.3,3.5,3,3.8,18.5s0,282.8,0,282.8
			s-0.5,22.5-8,39.3s-15.3,30.8-18,34.3s-11.3,15.2-17.8,22.8c-6,7-11.5,11-9,15.5c1.9,3.4,4.7,4.5,9,4.5c1.3,0,2.8-0.1,4.5-0.3
			c0.8-0.1,1.6-0.1,2.5-0.1c7,0,16.7,2.6,22.3,6.4c6.3,4.3,14,10.5,20.8,23s24,59.5,27.3,69s26,80,28.3,89.3s6,20,7.4,24.5
			s3.1,5.3,6.6,5.5c0.1,0,0.3,0,0.4,0c3.3,0,6.3-2.9,6.6-5.5c0.3-2.8,0-437,0-437h50.3c0,0,0,133.3,0,137.5s0.2,8.3,5.2,9.5
			s23,7,28.3,9.3s15.8,8.5,22,9c2.9,0.2,5.1,0.6,7.6,0.6c2.8,0,6-0.5,10.9-2.4c9.3-3.5,16.4-14.4,18.1-20c1.8-5.6,2.8-13.5-1.3-15.6
			c-2.6-1.4-2.9-1.8-4.4-1.8c-0.8,0-1.9,0.1-3.9,0.3c-0.2,0-0.5,0-0.7,0c-5.6,0-13.5-5.3-13.5-5.3V335c0,0,2.1-7.5-3.6-9.5
			c-1.3-0.5-2.5-0.7-3.6-0.7c-3.5,0-5.7,2.3-6.8,5.4c-1.5,4,0.3,6.6-7.1,21.1s-19.3,34.4-29.4,39.5c-10.1,5.1-14.5,7.9-20.4,9
			c-5.9,1.1-8.3,3.5-8.3,6.3s2.1,5.9,5,7.8c3,1.9,5.9,2,5.9,5s0,54.9,0,54.9h-48.5l-0.4-288.5
			C1901.8,172.9,1898.4,170.1,1895.2,170.1L1895.2,170.1z"/>
	</g>
	<g>
		<path class="st0" d="M2146.2,374.6c0.7,0,1.4,0,2.2,0c13.7,0.1,25.5,5.3,28.7,6.8l1,0.5c5.4,2.6,11.6,5.5,16,13.3
			c4.9,8.6,6.8,15.8,7.6,28.4c0.7,10.9-2.2,21-3.3,24.8l-0.1,0.2c-1,3-8.9,16.5-11.4,20.3c-2.2-1.4-6.2-4.6-8.6-7
			c0.5-1.2,1.2-2.8,1.8-4c0.3-0.6,0.6-1.2,0.9-1.8c4.8-10-0.5-14.8-4.7-18.6c-0.5-0.4-1-0.9-1.6-1.4c-6-5.6-17.4-12.6-26-17.1
			c-6.1-3.2-11.4-3.9-14.8-3.9c-2.9,0-4.8,0.5-5.5,0.7l-1.9,0.6l-1.4,1.4l-8.3,8.3c-2.7,2.5-4.1,5.2-4,8.1c0,1.6,0.5,3.2,1.4,4.5
			c0.2,0.6,0.4,1.6,0.7,2.5c0,4.5,0.2,26.2,0.2,38.8v9.6l9.4-1.7c12.9-2.3,23.1-21.4,24.6-25.1c1.2-3,2-5.8,2.6-7.8
			c2.8,0.5,7.6,5.2,9.7,9.5c0.8,2.1,0.4,10.2-0.8,17.1l-1.2,6.7l6.4,2.3c1,0.3,9.6,3.4,15.1,4.3c2.4,0.5,9.5,5.2,12.2,7
			c1,0.7,1.9,1.3,2.7,1.8c-0.4,0.6-1.1,1.6-2.6,2.8c-4.1,3.5-18.1,7.6-26.7,9.4l-8.9,1.9l3,8.6c0.4,1.1,1.5,4.6,2,6.6
			c0.3,1.3,0.1,3.5-0.1,5.7c-0.1,0.6-0.1,1.3-0.2,1.9c-0.1,0.7-0.7,3.6-6.2,9.5c-2,2.2-3.5,3.1-4.3,3.4c-0.5-4.2-1.5-6.6-5.7-15.2
			c-6-12.3-19.4-17-20.9-17.5l-10.6-3.6v11.1v71.1v9.6l9.4-1.7c0.5-0.1,11.3-2.1,16.9-3.5c7.1-1.8,17.1-8.6,21.8-12.8
			c4.9-4.3,8.3-8.5,15.6-19.3c6.1-9,7.2-17.9,7.7-23.9c0,0.1,0,0.2,0,0.4c0.2,1.9,0.5,4,0.9,6.4c1.4,8.8,0.2,17.5-0.1,20
			c-1.1,7.4,0.5,26.7,1.8,34.8c1.6,10.2,10.8,32.8,15.5,40.7c2.1,3.6,5.3,8.1,8.3,12.4c2.7,3.8,5.6,8,7.4,10.9
			c-6.6-1.1-24.7-7.5-29.5-10.2c-2.4-1.4-7.5-4.4-12.8-7.7c-8-4.9-16.2-9.9-20.2-12c-5.6-3-13.2-3.6-18.5-3.6
			c-5.4,0-11,0.6-15.7,1.8c-13.1,3.2-19.8,19.1-21.3,23.2c-2.3-5-8.3-17.4-11.5-22.4c-3.5-5.5-12.2-13.9-18.6-17
			c-3.1-1.5-5.4-3.8-11.7-10.1l-0.5-0.5c-3.8-3.9-4.4-14.8-4.5-18.4c0-0.6-0.1-1.1-0.1-1.5c-0.1-1.9,0.2-6.9,0.5-10.5
			c0.8,0.2,1.5,0.3,2.3,0.3c2.7,0,5.2-1.2,6.8-3.3c2.1-2.6,2.1-5.7,1.8-7.8v-98.2l0-7.9l-7.9-0.1c-0.1,0-10.7-0.1-19.2-1.2
			c-0.3,0-0.5-0.1-0.8-0.1c2.6-0.7,4.8-1.8,7.9-3.4l1.5-0.8c7.1-3.5,10.8-9,15.6-16c0.5-0.7,1-1.4,1.5-2.2
			c6.4-9.4,4.1-19.4,2.9-24.2c-0.1-0.6-0.3-1.3-0.4-1.6c-0.5-3.8-2.6-7.4-4.3-10.4c0.4-0.4,0.9-0.8,1.5-1.4c1.5-1.2,5.5-4.1,9.1-6.6
			c4.2-2.9,8.4-5.9,11-8c3.6-2.9,27.1-12.3,34.7-14.3C2126,375.5,2134.8,374.6,2146.2,374.6L2146.2,374.6 M2146.2,366.6
			c-12.6,0-21.8,1-29,2.9c-7.6,2-33,12-37.8,15.9s-16.8,11.8-20.3,14.8s-5.9,6.1-4.9,8.4s4.5,7.1,5,10.6s4.1,12.3-1.3,20.1
			s-8.2,12.6-14,15.5s-7.4,3.9-11.7,4.3s-4.8,5.4-4.4,7.1s0.9,6.9,10,8s20.1,1.3,20.1,1.3v99c0,0,0.6,2.4-0.6,2.4
			c-0.3,0-0.6-0.1-1-0.4c-0.6-0.3-1.3-0.5-2.1-0.5c-2.9,0-6.7,2.1-7,6.6c0,0-0.9,9.3-0.6,13s0.3,18.3,6.9,25s9.8,10,14.4,12.3
			s12.4,9.5,15.4,14.1s9.5,18.1,11.6,22.8s3.6,5.5,7.1,5.5s5.3-2.6,6.9-7.1s7.3-16.4,15.9-18.5c4-1,8.9-1.6,13.8-1.6
			c5.7,0,11.2,0.8,14.7,2.7c6.6,3.5,26.9,16.3,32.9,19.6s25.6,10.3,32.8,11.3c0.6,0.1,1.3,0.1,1.9,0.1c6.1,0,9.7-4.4,7-9.9
			c-3-6-12.6-18.3-17-25.6s-13.1-29-14.5-37.9s-2.6-26.6-1.8-32.4s1.4-14.3,0.1-22.4s-1.4-12.9-2.9-15.1c-1.2-1.9-3.8-3.8-6.3-3.8
			c-0.5,0-1.1,0.1-1.6,0.3c-2.9,1.1-4.9,1.6-5.6,6.6s0.4,15.4-6.8,25.9s-10,14-14.3,17.8s-13.1,9.6-18.5,11s-16.4,3.4-16.4,3.4
			v-71.1c0,0,11.5,3.9,16.3,13.5s4.8,10.3,5.1,14.1s3.6,5.3,5.8,5.5c0.4,0.1,1,0.1,1.6,0.1c2.3,0,5.7-0.8,10.6-6
			c6.1-6.5,8.1-11,8.4-14.4s0.8-6.9,0.1-9.9s-2.3-7.6-2.3-7.6s22.8-4.8,30.3-11.1s6.9-12.4,2.5-15.1s-13.6-9.6-18.6-10.5
			s-13.8-4-13.8-4s2.9-16.1,0.1-21.9s-9.5-13.1-16-14c-0.9-0.1-1.7-0.2-2.4-0.2c-4.4,0-5.2,2.1-5.5,3.2c-0.4,1.3-1.2,5.4-3,9.8
			c-2,5-11,18.8-18.6,20.2c0-14.3-0.3-39.8-0.3-39.8s-1.1-5.3-1.9-5.9s1.4-2.5,1.4-2.5l8.5-8.5c0,0,1.2-0.3,3.2-0.3
			c2.5,0,6.4,0.5,11.1,3c8.4,4.4,19,11,24.3,15.9s7,5.5,4.5,10.8s-5.4,10.1-2.8,13.1s11.9,11.1,15.4,11.4c0.3,0,0.5,0,0.8,0
			c2.9,0,4.3-1.3,5.6-2.8c1.4-1.6,12.1-19.6,13.3-23.6s4.4-15.2,3.6-27.7c-0.8-12.5-2.6-21.4-8.6-31.9s-14.5-14.1-20.5-17
			s-18.4-7.5-32.1-7.6C2147.7,366.6,2147,366.6,2146.2,366.6L2146.2,366.6z"/>
	</g>
	<g>
		<path class="st0" d="M2353.5,336.4v251.1v4.2l3.5,2.4c4.5,3.1,14.2,11.6,16,18.4c2.5,9.7,3.5,25.9-5.5,48.2
			c-3.8,9.4-5.8,15-7.1,18.4c-0.7,1.9-1.1,3-1.4,3.6c-2.6-11.3-9.5-23.5-12.8-28.4c-3.9-5.8-7.6-11.2-14.7-15c-3-1.6-6-2.4-9-2.4
			c-2,0-3.6,0.3-4.8,0.6l-1.5-2.4l-6.4-10.2l-6.9,9.8c-1.9,2.7-7.8,10.7-11.6,14.6c-4.6,4.7-15.8,14.8-16.7,15.5
			c-1.4,1.2-3.5,2.8-4.9,3.7c-4.6-2.4-14.5-9.3-17.2-12.3c-0.4-0.4-0.8-0.9-1.4-1.5c-4.8-5.3-19.2-21.3-22.3-29
			c-4.9-12-7.5-20.2-7.7-24.3c0.4-4.1,8.4-19.2,10.8-22.5l0.5-0.6c17.2-20.2,27.3-33.1,30.1-38.3c4.5-8.4,13.3-32.8,15.9-43
			c0.4-1.5,0.8-2.9,1.1-4.2c2-7.4,3.6-13.3,1.4-22c-0.2-0.8-0.4-1.7-0.6-2.6c-3-12.3-5.4-20.6-10.8-24.3c-4.2-2.9-8.1-4.2-12.1-4.2
			c-3.1,0-7.8,0.9-12.3,5.4c-5,5-6.3,7.5-7.4,11.2c-0.1,0.3-0.2,0.6-0.3,0.9c0,0.1,0,0.1-0.1,0.2c-1.6-4.9-2.3-9.7,0.6-14.9
			c4.2-7.5,11.9-11.4,15.8-12.6c0.6-0.2,2.8-0.7,5-1.1c15.5-3.3,32.8-7.4,41.5-14l1-0.8c11.2-8.6,29.9-22.9,37.7-39.3
			C2344.7,362.1,2350.7,348.7,2353.5,336.4 M2354.5,320.9c-3.4,0-7,2.4-7.8,8.5c-1.7,12.3-8,26.8-15.2,42
			c-7.2,15.2-26.3,29.5-36.3,37.2s-39.3,12.5-43.8,13.8c-4.5,1.3-14.7,6-20.5,16.3c-5.8,10.3-1.7,20-0.2,24.5
			c1.1,3.2,3.7,4.6,6.5,4.6c1.2,0,2.4-0.3,3.5-0.8c3.8-1.7,3.2-4.2,4.2-7.1s0.7-3.9,5.8-9.1c2.2-2.2,4.5-3,6.6-3
			c2.8,0,5.5,1.4,7.6,2.9c3.7,2.5,6.2,14.2,8.2,22.2s0,12.5-2.5,22.3c-2.5,9.8-11.2,33.7-15.2,41.2s-27.8,35.3-29.7,37.5
			c-1.8,2.2-13,21.5-12.7,27.8c0.3,6.3,4.3,17.2,8.3,27c4,9.8,21,28.2,25.2,32.8s20.2,15.5,23.2,15.5s10.2-6.2,10.2-6.2
			s12.2-10.8,17.2-16c5-5.2,12.3-15.5,12.3-15.5s0,0,1.7,2.7s3.8,3.7,6.2,3.7c1.4,0,3-0.8,5.2-0.8c1.5,0,3.2,0.3,5.3,1.5
			c5.3,2.8,8.2,7,11.8,12.4s9.8,16.9,11.8,26.6c1.1,5.3,3.8,7.1,6.5,7.1c2.3,0,4.5-1.2,6-2.8c3.2-3.5,1.7-2.8,11-26
			c9.3-23.2,8.8-41.3,5.8-53.2s-19.2-23-19.2-23v-260C2361.5,323.5,2358.1,320.9,2354.5,320.9L2354.5,320.9z"/>
	</g>
	<g>
		<path class="st0" d="M2486.9,353c1.3,0,2.5,0,3.4,0.1c10.5,0.8,18.5,2.1,28.2,6.6c9,4.2,22,14,28.9,28.1c6.4,13.1,5.3,23,4,34.6
			l-0.1,1.2c-1,9.1-6.6,24.9-8.7,30.2l-1.8,4.5l3.2,3.7c0,0.1,4.4,5.1,7.7,10c2.8,4.1,10.7,23,13.8,32.2c2.3,7.1,1.7,11.3,1,16.7
			l-0.1,0.4c-0.4,2.8-5.3,15-9.7,24.5l-0.1,0.2l-0.1,0.2c-5.4,13.4-20.2,49.6-23.6,55.8c-3.3,6.1-7.4,20.1-12.7,42.7
			c-1.5,6.3-1.8,18.6-1.8,30.9c0,1.4,0,3,0,3.5c-0.3,4.1,2.5,16.9,4.6,22.8c3.9,10.7,17.4,18.1,17.6,18.1c2.7,1.4,6.3,2.1,11.3,2.1
			c4.6,0,10.4-0.6,16.2-1.6c7.7-1.4,14.7-3.9,19.8-5.8c1.4-0.5,2.6-1,3.6-1.3c4.2-1.4,11.4-4.7,17.3-7.7c-6.2,5.5-17.6,14.6-20,16
			c-8.2,4.7-25.2,13.1-36.4,14.5c-2.3,0.3-4.7,0.5-7,0.5c-8.7,0-14.5-2.2-17.3-3.3l-0.2-0.1c-0.4-0.1-0.8-0.3-1.3-0.5
			c-4-1.5-13.5-5-19.2-9.6c-6.3-5.2-14.3-15.9-16.8-19.5c-2-2.9-8.9-16.9-10-20.3c-1.6-4.9-4.9-17.9-5-20.7c0-1.5,0-5.2-2.7-7.9
			c-1.6-1.6-3.7-2.5-6-2.5c-3.2,0-6.2,1.8-7.8,4.9c-1.8,3.3-2.2,12.1-2.2,12.2c-0.1,1.5-0.3,6.3-0.5,10.4
			c-1.4-4.8-3.9-10.9-6.4-16.9c-0.2-0.5-0.4-1-0.5-1.3c-1.9-4.7-11.7-18.2-22.2-20.4c-1.9-0.4-3.5-0.6-5-0.6c-5.4,0-8.7,2.3-12.6,5
			c-1.2,0.9-2.6,1.9-4.4,3c-0.4,0.2-0.7,0.4-1,0.6c-0.5-2.3-1.2-7.7-1.2-13.9c0-4.4,3.2-13.8,5.6-19.1l0.7-1.5v-1.7V458.2
			c0.9-0.6,2.1-1.4,3.8-2.5c7.4-5.1,13.3-13.1,17.7-19.6c3.7-5.5,5.9-11.6,8.2-18.1c0.6-1.6,1.2-3.3,1.8-4.9c3.4-9.1,4-19.7,4-20.1
			l0.1-2.7l-1.6-2.3c-1-1.4-3.4-3.8-8.2-3.8c-1.3,0-2.6,0.2-4.2,0.5c-4.6,1-9.5,4.1-15.6,10c-5.3,5-11.6,14.2-12.3,23.6
			c-0.5,7.2,1.3,11.4,2.7,14.7c0.1,0.2,0.2,0.5,0.3,0.7c-0.1,0-0.1,0-0.2,0c-0.1,0-0.1,0-0.2,0c-2.1-0.1-5.5-2.2-8.3-5.2
			c-1.4-1.5-4.3-7.7-4.9-10.7c-0.3-1.2-1.4-7.9,2.3-18.8c3-9,12.9-22.4,31.7-33C2443.9,356.1,2474.7,353,2486.9,353L2486.9,353
			 M2486.9,345c-14.3,0-46,3.6-64.2,13.9c-20.2,11.3-31.6,26.1-35.3,37.4s-3.3,19.4-2.5,23s4,11.5,6.9,14.6
			c2.9,3.1,8.2,7.4,13.8,7.7c0.2,0,0.4,0,0.6,0c5.4,0,10.2-3.4,8.7-8.2c-1.6-4.9-4.1-7.4-3.5-14.7s6-14.8,9.9-18.4
			c3.8-3.7,8.3-7.2,11.8-7.9c1.1-0.2,1.9-0.3,2.5-0.3c1.3,0,1.6,0.4,1.6,0.4s-0.5,9.8-3.5,17.8s-5.2,15.5-9.2,21.4
			c-4,5.9-9.3,13.2-15.6,17.5c-6.3,4.3-5.3,2.9-6.3,4.3c-1,1.4-1,4.3-1,4.3v155c0,0-6.3,14.3-6.3,22.4c0.1,8.1,1.2,16.3,2.3,18.1
			c0.7,1.3,2.3,4.2,5.9,4.2c1.7,0,3.8-0.6,6.5-2.4c6.8-4.4,8.6-6.7,12.6-6.7c1,0,2.1,0.1,3.4,0.4c6.8,1.4,15.1,12.3,16.4,15.6
			c1.3,3.3,6.1,14.3,7.3,20.1s5.3,6.8,7.2,6.8c1.9,0,7-1.9,7.4-6.3c0.4-4.4,0.8-13.2,0.9-15.6c0.1-2.4,0.8-7.8,1.2-8.6
			c0.2-0.3,0.5-0.7,0.9-0.7c0.4,0,0.7,0.6,0.6,2.4c-0.1,3.4,4.1,19.1,5.4,23.3c1.3,4.2,8.6,18.9,11,22.4
			c2.4,3.5,10.9,15.1,18.3,21.2c7.4,6.1,19,10,22.8,11.4c3,1.1,10,3.9,20.3,3.9c2.5,0,5.1-0.2,8-0.5c14.8-1.9,35.3-13.2,39.3-15.5
			c4.1-2.3,24.3-18.8,26.3-21.9c2.1-3.2,1.1-6.8-0.6-8.6c-1.2-1.3-2.2-3.3-4.7-3.3c-1.1,0-2.5,0.4-4.3,1.4
			c-5.9,3.3-15.8,7.9-20.7,9.6c-4.9,1.7-13.3,5.3-22.3,6.8c-5.1,0.9-10.5,1.5-14.9,1.5c-3.4,0-6.1-0.3-7.6-1.1
			c-3.4-1.8-11.6-7.7-13.8-13.8s-4.3-17.8-4.2-19.5c0.2-1.8-0.3-24.9,1.7-33.1c1.9-8.2,7.8-32.8,12-40.8s23.9-56.6,23.9-56.6
			s9.5-20.8,10.3-26.8c0.8-5.9,1.8-11.7-1.3-20.8c-3-9.1-11.2-28.9-14.8-34.2s-8.3-10.7-8.3-10.7s7.9-20,9.3-32.3s3-24.5-4.7-40.2
			c-7.7-15.7-22-26.9-32.8-31.8c-10.8-5-19.8-6.5-31-7.3C2489.7,345,2488.4,345,2486.9,345L2486.9,345z"/>
	</g>
	<g>
		<path class="st0" d="M2475.8,401.2c1.3,0.2,2.4,0.5,3.1,0.8c4.5,1.8,10.1,5,13.1,13.4c3.6,10,1.6,18-0.2,20
			c-1.1,1.2-3.2,1.7-6.5,2.5c-2,0.5-4.4,1-6.7,1.9c-0.9,0.3-1.9,0.8-2.8,1.3V401.2 M2467.8,392.4v64c0,0,8-7,13.6-9.1
			s12.1-1.8,16.4-6.5s6-16,1.8-28s-13-16.3-17.6-18.1S2467.8,392.4,2467.8,392.4L2467.8,392.4z"/>
	</g>
	<g>
		<path class="st0" d="M2742.5,352.9c0.5,0.3,1.1,0.6,1.9,1.1c6.6,4,11.2,10.8,14,20.7c3,10.8,1.6,24.7-0.1,31.5
			c-2.2,8.7-10.2,27.5-25.1,36.8c-12.3,7.7-24,8.5-28.4,8.5c-1.1,0-1.8-0.1-1.8-0.1l-8.8-1v9v190.9l-0.1,2.3l-0.3,8.3l8.3,0
			c0.8,0,19.6-0.1,25.5-0.4c0,0,0,0,0,0.1c0.1,0.7,0.3,2.2,0.5,3.6c0.7,5.4,2,14.5,3.5,21.2c1.9,8.4,6.5,22.8,8.8,26.8l0,0
			c-1.2,0.1-2.5,0.2-4.1,0.2c-10.5,0-28.5-3-49.2-8.2c-17.3-4.4-40.9-20.2-55.7-32.4c-8.2-6.7-15.4-15.7-21.6-26.7
			c-5.5-9.9-8.6-24-10.1-30.8l-0.3-1.4c-1.2-5.4-1.6-24-1.1-30.7c0.4-5.6,4.1-21,7.8-32.4c3.3-10.4,19.6-40.5,24.4-46.8
			c-0.2,0.5-0.5,1.1-0.9,1.7l-0.1,0.2c-1.7,3.1-9.3,26.8-10.8,50c-1.6,24.6,11.8,48.6,12.4,49.6l11,19.2l3.9-21.8
			c0.5-3,13.2-74.7,13.7-89.2c0.6-16.2-5.6-23.4-8.6-26.9c-0.2-0.2-0.3-0.4-0.5-0.6c-1.9-2.3-4.8-4.4-7.3-6.2
			c-0.1-0.1-0.2-0.2-0.4-0.3c0.3-1.1,0.9-2.9,2-5.6c3-6.9,11.7-17.7,14.8-21.3l5-5.8l-5.6-5.3c-0.2-0.2-6.1-5.7-13.5-11.2
			c-11.1-8.2-19.7-12.2-26.4-12.2c-1.1,0-2.2,0.1-3.2,0.3c-14,2.8-18.2,12.8-20,17.1c-0.2,0.4-0.3,0.8-0.4,0.9
			c-3,6.2-2.2,17.6-1.7,22.1c0,0.5,0.1,0.8,0.1,1.1c-0.2-0.2-0.4-0.5-0.6-0.8c-4.1-5.4-8.1-15.4-9.2-23.2
			c-1.2-8.5-2.1-20.1,2.1-34.6c4.1-14.1,9.5-16.8,11.2-17.7c0.6-0.3,1.2-0.7,1.8-1c2.1-1.3,5.1-3.1,10.8-3.1
			c8.3,0,19.2,3.8,32.2,11.2c30.4,17.4,42.8,21,52,21c1.7,0,3-0.1,4.4-0.2c7.6-0.7,14.8-3.4,19.5-5.6c4-1.9,8.1-4.9,13.5-10.2
			c7.5-7.3,11.8-23.4,12-24C2745.5,364,2743.7,357.2,2742.5,352.9 M2740.8,344.1c-1.8,0-2.7,1-3.6,1.8c-1.6,1.5-3.8,4.5-2.9,7.8
			s3,9.8,1.6,14.9s-5.4,16-9.9,20.4s-8,7.1-11.3,8.6s-9.9,4.3-16.9,4.9c-1.2,0.1-2.4,0.2-3.7,0.2c-6.8,0-17.7-2.5-48-20
			c-16.6-9.5-28.2-12.3-36.2-12.3c-9.5,0-14,3.9-16.2,5c-4,2-10.6,6.8-15.3,22.5s-3.8,28.6-2.4,38s6,20.6,10.8,26.9
			c3,3.9,5.3,5.1,7.1,5.1c1.1,0,2-0.4,2.8-0.9c2-1.4,5.8-2.8,5-10.1s-0.5-14.8,1-17.9s3.6-11.4,14.8-13.6c0.5-0.1,1.1-0.2,1.6-0.2
			c11.8,0,34.5,21.3,34.5,21.3s-12,13.9-16.1,23.4s-2.9,11.5-2.5,12.6s6.9,4.9,9.3,7.8s7.8,8,7.3,22.1s-13.6,88.1-13.6,88.1
			s-12.9-22.6-11.4-45.1s9-45.1,9.9-46.8s6.3-11.1,0.6-14.4c-2.2-1.3-3.9-2-5.4-2c-2.3,0-4.2,1.6-7.1,5.1
			c-4.8,5.7-22.5,38.2-26.3,50s-7.6,27.8-8.1,34.3s-0.3,26.3,1.3,33s4.8,22.8,11.3,34.4s14.4,21.5,23.5,29s36.5,28.4,58.9,34
			c18.7,4.7,38.7,8.4,51.2,8.4c2.4,0,4.6-0.1,6.4-0.4c11.1-1.9,6-9.4,4.5-11.9s-5.9-15.4-7.9-24.4s-3.6-23.1-4-24.9
			c-0.4-1.7-2.5-6.3-7.1-6.3c-0.1,0-0.2,0-0.4,0c-4.9,0.3-25.9,0.4-25.9,0.4l0.1-2.5v-191c0,0,0.9,0.1,2.6,0.1
			c5.5,0,18.7-1,32.7-9.7c18.3-11.4,26.6-33.6,28.6-41.6s3.5-23.3,0-35.6s-9.5-20.5-17.5-25.4
			C2744.8,344.8,2742.4,344.1,2740.8,344.1L2740.8,344.1z"/>
	</g>
	<g>
		<path class="st0" d="M2905.7,229.1c0,20.3,0.1,74.7-0.1,216.1c0,3.5,0,5.8,0,6.7c-0.5-1-1.1-2.3-1.9-4.1
			c-4.2-9.8-13.8-26.6-20.8-34.8c-5-5.9-14.5-16.3-21.4-19.3c-5.1-2.2-9.9-3.3-14.4-3.3c-4.3,0-8.2,1-11.5,3.1
			c-7.4,4.5-11.9,12.6-14.4,16.9c-0.2,0.3-0.3,0.6-0.5,0.8c-2.9,5-6.1,17.3-4.6,26.8c1.3,8.2,3,16.2,8.7,23.6
			c5.1,6.7,19.4,21.2,19.6,21.3c0.6,0.6,2.5,2.2,12.7,11.1c7.2,6.3,18.1,15.7,19.7,17.2c0.1,0.1,0.3,0.4,0.6,0.6
			c18.2,19.6,23.1,26.9,24.4,29.1c5.2,9,13.6,26.6,15.9,34.2c2.5,8.2,6.6,26,7.5,31.7c1,5.7,3.8,29.8,3.6,39.7
			c-0.1,10.1-3.6,49.2-8.1,61.7c-5.6,15.5-16,36.4-25.5,45.6c-11.9,11.7-20.9,19-34.2,24.1c-15.4,6-24.5,6.7-30,6.7
			c-1.5,0-3.2-0.2-5-0.4c-2.1-0.3-4.3-0.5-6.6-0.5c-8.9,0-13.3,4.6-15.5,8.4c-0.6,1.1-1,1.9-1.4,2.4l-0.1,0c-0.7,1.3-1.6,3-1.7,5
			c-1.2,3.8-3,9.9-4.4,15.9c-7.3,31.1-21.3,94.7-22.1,99.5c-0.2,0.9-0.3,1.8-0.4,2.7c0,0.2,0,0.3-0.1,0.5V606c0,0,0,0.1,0,0.1
			c0.1,0.2,6.6,20.3,14.8,30.3l0.3,0.4c6.6,8.1,17.7,21.6,38.7,23c1.9,0.1,3.8,0.2,5.5,0.2c17,0,24.3-6.7,33.5-16.8
			c11.7-12.9,13.2-33.4,12.9-37.8c0-0.5,0-1.3,0-2.1c0.1-5.2,0.2-14-5.4-29.9c-7.3-20.7-17.3-34.9-19.2-37.6
			c-0.4-0.5-0.9-1.3-1.6-2.2c-9.8-13.5-21.9-30-29-36.9c-8.2-7.9-25.6-30.9-29.8-41.5c-0.5-1.2-0.9-2.3-1.4-3.5
			c-4.1-10.2-7.6-19.1-8.4-31c-1-14.4-0.4-37.1,1.2-47.5c1.7-10.9,8.7-32.6,12.7-39.4c4.3-7.2,13.5-16.3,19.6-17.8
			c2-0.5,4-0.8,5.9-0.8c3.7,0,7.4,0.9,11.2,2.8c0.8,0.4,1.6,0.8,2.5,1.3c4.7,2.5,10.6,5.5,16.6,5.5c3.6,0,7-1.1,9.6-3.3
			c7.4-6,30.2-43.8,36-66.9C2903.1,243.4,2904.7,235.2,2905.7,229.1 M2906.4,209.6c-2.3,0-6.8,0.4-7.1,5.5s-1,14.8-6.8,37.6
			s-28,58.4-33.3,62.6c-1.3,1.1-2.9,1.5-4.6,1.5c-5,0-11.1-3.8-15.7-6c-4.2-2.1-9.1-3.6-14.8-3.6c-2.5,0-5.1,0.3-7.9,1
			c-9,2.3-19.8,13.5-24.5,21.5s-12,30.9-13.8,42.3s-2.3,34.6-1.3,49.3s5.6,24.9,10.4,36.9s23.1,36,31.6,44.3
			c8.5,8.3,26.4,33.5,29.8,38.1s11.9,17.8,18.1,35.5s4.8,25.5,5,29.9s-1.8,21.9-10.9,32c-8.2,9.1-13.5,14.2-27.5,14.2
			c-1.5,0-3.2-0.1-5-0.2c-17.9-1.3-27.1-12.9-33.4-20.5s-12.1-23.8-13.3-27.6c-1.2-3.8-2-9.4-8.6-9.4c-0.2,0-0.4,0-0.6,0
			c-7.3,0.4-6.4,8.5-6.4,8.5s0,313.4,0,318.3c0,4.6,1.1,10.5,7,10.5c0.4,0,0.8,0,1.3-0.1c7-0.9,7.1-9.4,8.1-15.1
			c0.8-4.4,14.7-68,22-99c1.9-8.1,4.5-16.4,5.2-18.5c-0.4,0.8-0.6,1.1-0.6,1.1c0,0,0.8-1.6,0.8-1.6s-0.1,0.2-0.2,0.5
			c0.3-0.6,0.8-1.5,1.5-2.8c1.9-3.4,5-4.3,8.5-4.3c3.6,0,7.7,0.9,11.5,0.9c7.5,0,17.5-1.3,32.9-7.3s25.5-14.8,36.9-25.9
			s22.4-34.9,27.4-48.6s8.5-53.8,8.6-64.4s-2.8-35.1-3.8-41.1s-5.1-24.1-7.8-32.8s-11.5-27-16.6-35.9s-24.9-29.9-26.1-31.3
			s-31.4-27.4-32.5-28.5s-14.4-14.6-18.9-20.5s-5.9-12.4-7.1-20s1.8-18.3,3.6-21.5s6-11.1,12.1-14.9c2.3-1.4,4.8-1.9,7.3-1.9
			c4.3,0,8.5,1.5,11.2,2.7c4.4,1.9,12.1,9.6,18.5,17.1s15.5,23.4,19.5,32.8c3.7,8.6,5.5,10.8,10,10.8c0.4,0,0.8,0,1.3,0
			c5.5-0.4,6-6.3,6-9.4s0.3-229.3,0-235S2908.6,209.6,2906.4,209.6L2906.4,209.6z"/>
	</g>
	<g>
		<path class="st0" d="M2491.4,493c5.1,0,10.1,2.1,15.6,7.9c8.2,8.6,4.3,16.4,1.3,19.4s-7.3,4.3-11,5.8s-4.8,5.8-4.3,9.8
			s0.5,14.3-0.8,18.5s-5.2,11.5-7.7,17.3c-2.5,5.8-10,23.6-11.3,28.8l-3.3,9.2l-5.3-5.5v-88.5c0,0,1.7-14.9,16.5-20.3
			C2484.8,493.9,2488.1,493,2491.4,493 M2491.4,485L2491.4,485c-3.9,0-8,0.8-12.9,2.7c-19.2,7.1-21.6,26.1-21.7,26.9l-0.1,0.5v0.5
			V604v3.2l2.2,2.3l5.3,5.5l9,9.4l4.3-12.3l3.3-9.2l0.1-0.4l0.1-0.4c1-4,7.7-20.3,10.8-27.5c0.9-1.9,1.9-4.2,3-6.3
			c2.1-4.4,4.1-8.5,5.1-11.9c1.7-5.8,1.6-17.3,1-21.7c-0.1-0.7-0.1-1.3,0-1.6c0.3-0.1,0.7-0.3,1.1-0.4c3.7-1.4,8.2-3.1,11.9-6.8
			c6.9-6.9,9.5-19.4-1.1-30.5C2506.2,488.4,2499.2,485,2491.4,485L2491.4,485z"/>
	</g>
</g>
</svg>
