<?xml version="1.0" encoding="utf-8"?>
<!-- Generator: Adobe Illustrator 19.0.0, SVG Export Plug-In . SVG Version: 6.00 Build 0)  -->
<svg version="1.1" id="Layer_1" xmlns="http://www.w3.org/2000/svg" xmlns:xlink="http://www.w3.org/1999/xlink" x="0px" y="0px"
	 viewBox="0 0 3644 1264" style="enable-background:new 0 0 3644 1264;" xml:space="preserve">
<style type="text/css">
	.st0{fill:#FFFFFF;}
</style>
<g id="XMLID_1_">
	<g id="XMLID_72_">
		<path id="XMLID_48_" class="st0" d="M889.9,66.8c2.4,0,4.8,0.3,7.4,0.9c22.8,4.9,45.6,9.7,68.4,14.7c9.4,2.1,18.7,4.5,30,7.2
			c-3.2,3.4-5.3,5.7-7.5,7.8C909.2,170,830.3,242.8,751.4,315.5c-85.3,78.6-170.5,157.3-255.8,235.9c-2.2,2-4.1,4.2-6.5,6.8
			c2.8,3.9,5.3,7.5,7.8,10.9c119,158.7,237.9,317.3,356.9,475.9c1.8,2.4,3.5,4.9,5.4,7.2c2.8,3.3,3.4,7,2.4,11.2
			c-8.8,36.3-17.6,72.5-26.4,108.8c-0.3,1.2-1.2,2.3-2.5,4.9C674.3,1015.8,516.3,855,357.4,693.4c-10.3,11.1-20.2,21.3-29.6,32
			c-1.8,2-2,5.6-2.4,8.5c-3.8,29.1-7.6,58.1-11.3,87.2c-6.3,49.2-12.6,98.5-18.9,147.7c-3.7,29.1-7.5,58.2-11.2,87.2
			c-0.4,3.2-1.1,6.4-1.9,10.6c-3.2-1.9-5.6-3.1-7.6-4.6c-27.8-20.7-55.5-41.5-83.5-62c-4.8-3.5-6.6-7.3-6.3-13.4
			c1.9-36.3,3.4-72.6,5-108.8c3.2-74.2,6.4-148.5,9.6-222.7c1.4-33.3,2.9-66.6,4.3-99.9c2.6-59.6,5.1-119.2,7.7-178.8
			c0.1-3.3,0-6.6,0-10.9c-4.4-0.3-8.2-0.8-12.1-0.8c-30.3-0.1-60.7,0-91-0.1c-4.3,0-8.7-0.2-12.9-1.3c-10.4-2.7-16.5-11.9-15.7-22.6
			c0.8-10.3,8.7-18.6,19.3-19.7c1.8-0.2,3.6-0.2,5.4-0.2c1.2,0,2.3,0,3.5,0c0,0,0,0,0.1,0c20.2,0,40.4,0,60.5,0c5.6,0,11.2,0,16.8,0
			c3.9,0,7.7,0,11.6,0c3.6,0,7.2,0,10.6,0c1.6-8.6,1.5-8.9-4.6-9.4c-1.2-0.1-2.4-0.1-3.6-0.1c-1.5,0-2.9,0-4.4,0c0,0,0,0,0,0
			c-39.3,0-78.7,0-118,0c0,0,0,0-0.1,0c-1.2,0-2.4,0-3.6,0c-2.1,0-4.2,0-6.3-0.3c-9.9-1.3-17.6-9.5-18.7-19.4
			c-1-9.7,5-19.6,14.6-22.5c4.4-1.3,9.2-1.7,13.8-1.7c21.7-0.1,43.4-0.1,65-0.1c17.3,0,34.5,0,51.8,0c0.4,0,0.8,0,1.2,0
			c3.9,0,7.8,0,13,0c2.1-33.2,4-65.3,6.1-98.6c62.7-12.4,124.9-24.7,189-37.4c-7.2,59.7-15.1,117.3-22.6,175
			c-7.5,57.7-14.9,115.4-20.6,174.2c4.1-3.1,8.4-6.1,12.4-9.3c151.6-120.4,303.3-240.9,454.9-361.3c15.1-12,30.7-23.5,45.3-36.2
			C878,68.8,883.6,66.8,889.9,66.8 M889.9,36.8c-13.7,0-26.2,4.8-37.1,14.2c-9.4,8.1-19.3,15.8-29.8,23.9
			c-4.8,3.7-9.7,7.5-14.6,11.4c-54.9,43.6-109.7,87.1-164.6,130.7c-82.2,65.3-164.4,130.6-246.7,195.9c3.9-33.2,8.2-67,12.9-102.8
			c2.2-16.5,4.4-33.4,6.5-49.7c5.4-40.7,10.9-82.9,16.1-125.6l5-41.1l-40.6,8l-84,16.6l-105.1,20.8l-22.7,4.5l-1.4,23.1l-2,32.4
			l-2.4,38.1c-4,0-7.9,0-11.9,0c-8.6,0-17.3,0-25.9,0c-19.1,0-41.8,0-65.1,0.1c-5.5,0-13.8,0.3-22.4,3c-11.4,3.5-21.3,11-27.8,21.2
			c-6.3,9.9-9.1,21.6-7.9,33.1c1.2,11.4,6.2,22.2,14.2,30.5c4.9,5.1,10.8,9.1,17.2,11.8c0,0.5-0.1,0.9-0.1,1.4
			c-1.9,25.3,13.7,47.5,38,53.9c7.4,1.9,14.4,2.2,20.4,2.2c16.9,0.1,34,0.1,50.6,0.1c7.1,0,14.4,0,21.7,0
			c-1.7,39.2-3.4,78.4-5.1,117.6l-1.8,41.7c-0.6,13.4-1.1,26.7-1.7,40.1c-0.9,19.9-1.7,39.9-2.6,59.8l-1.5,33.8
			c-2.7,61.9-5.4,126-8.2,188.9c-0.3,5.9-0.5,11.8-0.8,17.6c-1.3,29.8-2.6,60.7-4.2,91c-0.8,16.1,5.6,29.6,18.5,39.1
			c18.4,13.5,37.1,27.4,55.1,40.9c9.4,7,18.8,14,28.2,21c2.8,2.1,5.4,3.5,7.6,4.8c0.8,0.5,1.6,0.9,2.5,1.4l37.3,22.3l7.6-42.8
			c0.2-1.3,0.5-2.5,0.7-3.6c0.5-2.7,1-5.4,1.4-8.4c3.4-26.1,7.1-54.6,11.2-87.3c2.7-21.1,5.4-42.1,8.1-63.2
			c3.6-28.2,7.2-56.4,10.8-84.5c4.2-33,7.7-60,11-84.7c1-1.1,2.1-2.3,3.1-3.4l241.6,245.8l211.9,215.6l28.9,29.4l19.1-36.6
			c0.2-0.4,0.4-0.7,0.7-1.2c1.2-2.1,3.2-5.5,4.4-10.4c4.7-19.4,9.4-38.7,14.1-58.1c4.1-16.9,8.2-33.8,12.3-50.7
			c3.3-13.8,0.2-27.2-8.7-37.7c-0.5-0.6-1.4-1.8-2.2-2.9c-0.6-0.9-1.3-1.8-2.1-2.8l-63.6-84.8C719.2,815.4,624,688.5,528.9,561.6
			c75.6-69.8,155.2-143.2,242.9-224c29.6-27.3,59.2-54.6,88.8-81.9c49.3-45.4,98.6-90.9,147.9-136.4c2.3-2.1,4.3-4.2,6.1-6.2
			c0.8-0.9,1.7-1.8,2.7-2.9l36.2-37.7l-50.9-12.2c-3.6-0.9-7-1.7-10.3-2.5c-7-1.7-13.6-3.3-20.3-4.8c-13.2-2.9-26.6-5.7-39.6-8.5
			c-9.5-2-19.3-4.1-28.9-6.2C898.8,37.3,894.3,36.8,889.9,36.8L889.9,36.8z"/>
	</g>
	<g id="XMLID_71_">
		<path id="XMLID_44_" class="st0" d="M1891.3,231.1c59.5,9.2,116.7,18.1,174.2,27c0.8,9.4,1.6,17.6,2.1,25.9
			c2.2,38.6,4.3,77.2,6.3,115.8c0.3,5.5,1.6,10.3,4.3,15.1c53.6,93.3,107.1,186.7,160.7,280.1c1.4,2.4,3.2,4.6,6,8.7
			c1.8-7.8,3.2-13.5,4.3-19.2c24.9-120.7,49.9-241.4,74.6-362.2c1.5-7.1,4.5-11.7,11-15.2c25.7-14.1,51.1-28.7,76.7-43.1
			c2.8-1.6,5.7-2.8,10.3-5.1c-16.7,222.6-33.3,443.3-49.9,665.1c-11.7,1.7-22.8,3.3-33.9,4.8c-33.4,4.3-66.8,8.3-100.1,13.1
			c-1.2,0.2-2.3,0.3-3.4,0.3c-5.4,0-8.6-2.4-11.9-7.5c-52.7-81-105.6-161.9-158.5-242.8c-1.9-3-4-5.9-7-8.6
			c-1.8,15.3-1.2,30.4-1.3,45.5c-0.1,15.7,0,31.3,0,47c0,15.3,0,30.7,0,46c0,15.3,0,30.7,0,46c0,15.3,0,30.7,0,46
			c0,15.7,0,31.3,0,47c0,15.3,0,30.7,0,46c0,15.3,0,30.6,0,46.9c-3.1-1-5.4-1.3-7.2-2.3c-33-18.2-65.8-36.6-98.9-54.7
			c-5.5-3-7.1-7.1-7.4-12.9c-1.1-19-2.5-37.9-3.9-56.8c-0.2-2.3-0.7-4.5-1.2-7.6c-4.1-0.2-8-0.6-11.9-0.6c-28-0.1-56,0-84-0.1
			c-3.6,0-7.4-0.1-10.9-1c-10.3-2.7-16.9-11.9-16.3-22.3c0.6-10.3,8.4-18.8,18.9-20.2c2-0.3,4-0.3,6.1-0.3c1.3,0,2.5,0,3.8,0
			c0,0,0.1,0,0.1,0c15.6,0,31.2,0,46.8,0c9.2,0,18.5,0,27.7,0c1.5,0,3,0,4.5,0c1.2,0,2.4,0,3.6,0c2.4,0,4.7,0,7,0
			c1.7-8.5,1.6-8.9-4.4-9.4c-1.2-0.1-2.4-0.1-3.7-0.1c-1.4,0-2.9,0-4.3,0c0,0,0,0,0,0c-36,0-72,0-108,0c0,0,0,0,0,0
			c-1.4,0-2.8,0-4.2,0c-1.9,0-3.8,0-5.7-0.2c-10.4-1.1-18.4-9.4-19.3-19.8c-0.9-10.2,5.8-20,16-22.5c4.5-1.1,9.2-1.2,13.9-1.2
			c18.7-0.1,37.5-0.1,56.2-0.1c15.9,0,31.7,0,47.6,0c0.4,0,0.8,0,1.2,0c3.9,0,7.9,0,13.3,0c-2.5-50.3-6.6-99.3-9.7-148.3
			c-3-48.9-6.6-97.7-9.9-146.6c-3.4-49.2-6.7-98.4-10.1-147.6C1897.8,330.5,1894.3,281.7,1891.3,231.1 M1859.1,195.8l2.2,37.1
			c2.5,41.6,5.4,82.5,8.1,122c0.6,8.8,1.2,17.6,1.8,26.3c2.6,36.6,5.1,73.9,7.6,109.9c0.9,12.5,1.7,25.1,2.6,37.6
			c1,14.5,2,28.9,3,43.4c2.4,33.8,4.8,68.7,6.9,103c1.2,19.1,2.6,38.5,3.9,57.3c1.4,19.4,2.8,39.2,4,59.1c-2.2,0-4.3,0-6.5,0
			c-7.9,0-15.9,0-23.8,0c-15.5,0-35.9,0-56.3,0.1c-6.1,0-13.2,0.2-20.9,2.1c-12,2.9-22.5,10.1-29.6,20.3
			c-6.9,9.9-10.2,21.9-9.2,33.9c1,11.9,6.1,23.2,14.4,31.7c4.8,5,10.6,8.9,17,11.6c-0.1,0.8-0.1,1.6-0.2,2.4
			c-0.7,12,2.7,23.8,9.6,33.4c7,9.7,17.4,16.7,29.1,19.8c6.5,1.7,12.6,1.9,18.3,1.9c15.6,0,31.5,0,46.8,0c7.3,0,14.6,0,21.9,0
			c0.9,12.2,1.7,24.6,2.4,36.7c1.2,21.3,13.2,32.1,23,37.5c21,11.5,42.3,23.3,63,34.8c11.7,6.5,23.8,13.2,35.8,19.8
			c4.5,2.5,8.5,3.5,11.1,4.2c0.7,0.2,1.2,0.3,1.7,0.5l38.9,12.2v-40.8v-46.9v-46v-47v-46v-46v-41.9
			c36.9,56.4,74.6,114.2,111.7,171.1c9.1,14,21.6,21.1,37.1,21.1c2.5,0,5-0.2,7.7-0.6c22.8-3.3,46.1-6.3,68.7-9.1
			c10.1-1.3,20.6-2.6,31-4c7.8-1,15.4-2.1,23.4-3.3c3.6-0.5,7.2-1,10.9-1.6l23.9-3.4l1.8-24.1l25.1-334.8l24.8-330.3l3.9-52.3
			l-47.1,23.2c-1.5,0.7-2.7,1.3-3.9,1.9c-2.7,1.3-5.2,2.5-7.9,4c-7.9,4.5-16,9-23.7,13.4c-17.2,9.8-35.1,19.9-52.6,29.5
			c-14,7.7-22.8,19.6-26,35.5c-20.8,101.8-42.2,205.2-62.9,305.6c-8.4-14.6-16.7-29.2-25.1-43.8c-33.5-58.4-68.1-118.8-102.2-178.1
			c-0.2-0.4-0.3-0.6-0.4-1.7c-2-40.3-4.3-81-6.3-116c-0.3-6-0.8-11.9-1.4-18c-0.2-2.8-0.5-5.6-0.7-8.6l-1.9-23.6l-23.4-3.6
			l-72.1-11.2l-102.1-15.8L1859.1,195.8L1859.1,195.8z"/>
	</g>
	<g id="XMLID_68_">
		<path id="XMLID_82_" class="st0" d="M1519.1,184.3c19.1,0,38.1,1.8,56.8,6.3c2.3,0.6,4.5,1.2,6.7,1.9c0.9,0.3,1.7,1,3.8,2.2
			c-18.3,26.6-36.1,52.5-53.8,78.4c0.5,0.5,0.9,1,1.4,1.4c2.4-0.8,4.9-1.5,7.2-2.4c19.2-7.4,39-11.2,59.5-11.6
			c3.3-0.1,6.5-0.1,9.8-0.1c34.2,0,67.9,3.8,100.4,15.6c62.5,22.7,98,67.7,108.9,132.7c7.7,46.3,2.1,91.7-9.7,136.6
			c-16.4,62.4-43.4,119.5-85.4,169c-24.6,29.1-53.2,53.3-88.4,68.9c-27.3,12.1-55.1,17.5-83.3,17.5c-18.7,0-37.6-2.4-56.6-6.8
			c-42-9.7-81.1-26.5-117.5-49.2c-48.8-30.5-81.2-74.4-101.2-127.8c-20.3-54.2-26.8-110.5-22.5-168.1c0.9-12.3,2.5-24.5,4.2-36.7
			c2.9-21.7,9.5-42.2,19.5-61.7c1.8-3.5,3.3-7.1,5.6-12.1c-4.9-0.3-8.4-0.7-11.9-0.8c-8.2,0-16.5,0-24.7,0c-2,0-3.9,0-5.9,0
			c-6.8,0-13.6,0-20.4,0c-3.3,0-6.7,0-10-0.5c-10.2-1.8-17.6-10.9-17.6-21.3c0-10.4,7.5-19.5,17.8-21.1c2.9-0.5,5.9-0.5,8.8-0.5
			c0.6,0,1.1,0,1.7,0c0.1,0,0.3,0,0.4,0c14.8,0,29.6,0,44.4,0c12.2,0,24.4,0,36.6,0.1c0.1,0,0.2,0,0.2,0c5.6,0,10.5-0.7,12.4-8.8
			c-3.6-0.2-7-0.6-10.4-0.6c-38,0-76,0-114,0c0,0,0,0-0.1,0c-1.2,0-2.4,0-3.7,0c-2.1,0-4.2-0.1-6.3-0.4c-11.3-1.6-19.3-11-19.1-22.1
			c0.2-11.2,8.5-20,20-21.3c1.5-0.2,2.9-0.2,4.4-0.2c0.9,0,1.7,0,2.6,0c0,0,0,0,0,0c26.9,0,53.9-0.1,80.8-0.1
			c25.1,0,50.1,0.1,75.2,0.3c0.2,0,0.4,0,0.6,0c9.6,0,16.9-2.6,24.6-8.5c39.8-30.5,85.1-46.3,135.2-48.2
			C1510.7,184.4,1514.9,184.3,1519.1,184.3 M1557,682.8c32.7,0,61.6-11.3,86.1-35.6c14.8-14.8,25.9-32.1,34.8-50.9
			c12.3-26.1,19.9-53.7,23.7-82.3c2.1-15.8,3.7-31.8,0.9-47.8c-1-5.8-3.2-10.4-7.6-14.7c-3.7-3.6-6.4-8.4-8.9-13.1
			c-3.8-7.4-6.6-15.3-10.7-22.5c-3.9-6.9-8.1-13.9-13.6-19.6c-8.8-9-20.4-13.4-31.9-13.4c-12.4,0-24.6,5.1-33,15.1
			c-1.6,1.9-2.5,4.3-4.1,7.1c19.3,3.9,26.5,17.8,31.3,33.7c0.9,2.9,1.5,5.8,2,8.8c3.8,20.8,3.3,41.8,1.1,62.7
			c-1.3,13-4.8,25.5-10.6,37.3c-10.2,20.5-26.4,33.3-48.9,37.3c-8.7,1.5-17.4,2.3-26,2.3c-16.5,0-32.9-2.7-49.1-7.4
			c-30.8-9-49.6-29.5-54.4-61.2c-2.8-18.7-3-37.8-4.5-56.7c-1.9-25,2.1-49.2,9.3-72.9c14-46.2,38.6-84.6,81.5-109.4
			c0.3-0.2,0.4-0.5,1.8-2.3c-4.5-0.8-8-1.7-11.6-2c-3.2-0.3-6.4-0.4-9.6-0.4c-17.6,0-34.3,4.3-50.1,13.1
			c-16.6,9.3-29.9,22.2-41.3,37.2c-19.2,25.4-31.4,54-39.6,84.5c-6.7,25.2-10.9,50.9-9.4,77.1c2.4,40.9,16.3,78.1,39.9,111.5
			c33.6,47.4,78.1,77.7,137.1,83.6C1547,682.5,1552,682.8,1557,682.8 M1519.1,154.3v30V154.3L1519.1,154.3c-4.5,0-9.1,0.1-13.8,0.3
			c-56.8,2.2-108.1,20.4-152.4,54.4c-2.7,2.1-3.6,2.3-6.4,2.3l-0.3,0c-22-0.2-45.3-0.3-75.5-0.3c-13.9,0-27.8,0-41.7,0
			c-13.1,0-26.1,0-39.2,0c-0.4,0-0.8,0-1.1,0c-0.5,0-1,0-1.5,0c-2,0-4.7,0-7.6,0.4c-26.5,2.9-46.2,24.1-46.8,50.4
			c-0.3,12.8,4.1,25.2,12.4,34.8c5.2,6,11.7,10.8,19,13.9c-0.2,1.8-0.3,3.5-0.3,5.3c0,12,4.2,23.7,11.8,33
			c7.8,9.5,18.7,15.8,30.7,17.9c5.5,1,10.4,1,14.3,1l0.6,0c5.9,0,11.8,0,17.7,0c-4.4,13.2-7.6,26.7-9.5,40.5
			c-1.8,13.5-3.4,25.7-4.4,38.5c-2.3,31.3-1.6,62.1,2.2,91.4c4,30.7,11.4,60.8,22.2,89.5c23.3,62.3,61.5,110.3,113.4,142.7
			c40.1,25,82.7,42.9,126.7,53c21.7,5,43,7.5,63.4,7.5c33.3,0,65.5-6.8,95.5-20.1c36.6-16.2,69-41.4,99.1-76.9
			c21.9-25.8,40.8-54.7,56.2-85.7c14.5-29.1,26.3-61.1,35.2-95.1c6.8-26.1,11.1-49.9,13.1-72.9c2.3-26.7,1.3-51.7-2.8-76.3
			c-6.3-37.8-20.3-70.2-41.4-96.2c-21.6-26.6-50.8-46.7-86.9-59.8c-32.3-11.7-68.5-17.4-110.7-17.4c-3.4,0-6.9,0-10.4,0.1
			c-0.7,0-1.3,0-2,0l13-18.9l18.3-26.6l-27.9-16.3c-0.4-0.2-0.6-0.4-1-0.6c-1.6-1-4.5-2.9-8.7-4.2c-2.7-0.9-5.5-1.7-8.9-2.5
			C1563.2,156.7,1542.3,154.3,1519.1,154.3L1519.1,154.3z M1557,652.8c-3.9,0-8-0.2-12.2-0.6c-47.2-4.8-85-28-115.6-71.1
			c-20.9-29.4-32.5-61.7-34.5-95.9c-1.2-20.1,1.5-41.6,8.4-67.6c2.1-8,4.5-15.6,7.1-22.8c-6.1,24.5-8.2,47.3-6.6,69.5
			c0.4,5.7,0.7,11.4,1.1,17.4c0.7,13.4,1.5,27.3,3.6,41.5c6.4,42.8,33.3,73.2,75.7,85.6c19.5,5.7,38.9,8.6,57.5,8.6
			c10.5,0,21.1-0.9,31.3-2.7c31.5-5.6,55.9-24.1,70.5-53.4c7.3-14.6,11.9-30.7,13.6-47.6c2.7-26.2,2.4-47.9-0.9-67.9
			c1,2.2,2.1,4.4,3.3,6.7c3.5,6.7,7.5,13.6,13.6,19.8c1.9,12,0.4,25.3-1.3,37.9c-3.5,26.6-10.6,51.3-21,73.4
			c-8.2,17.4-17.6,31.2-28.9,42.4C1603.7,644,1582.5,652.8,1557,652.8L1557,652.8z"/>
	</g>
	<g id="XMLID_65_">
		<path id="XMLID_76_" class="st0" d="M2772.3,244.6c10.1,0,20.3,0.6,30.6,1.7c12.9,1.4,25.6,3.3,39.3,8.1
			c-17.7,27.1-36.4,52.5-54.7,80.1c3.3-0.5,5.2-0.4,6.7-1c22.8-9.4,46.3-13,70.2-13c10,0,20,0.6,30.1,1.7
			c16.5,1.7,33.1,4.3,49.1,8.7c68.6,18.9,109.5,64.2,124.4,133.4c8.5,39.7,6.8,79.5-0.3,119.2c-8.1,45.6-22.7,89.1-44.9,129.8
			c-18.7,34.3-42.6,64.5-73.1,89.1c-44.9,36.2-94.7,53.9-149,53.9c-15,0-30.4-1.4-46.1-4.1c-41.5-7.1-80.1-22.7-116.1-44.4
			c-52.1-31.5-86.2-77.6-106.7-134.2c-20-55.1-25.4-112.2-20.7-170.3c0.8-10,2.1-19.9,3.5-29.8c3.4-24.3,11.4-47.2,22.9-68.9
			c2-3.8,3.8-7.6,6.7-13.6c-8.2,0-15.6,0-22.8,0c-5.2,0-10.2,0-15.2,0c-0.1,0-0.1,0-0.2,0c-3.3,0-6.7,0-10,0c-2.6,0-5.2,0-7.7-0.1
			c-13.5-0.5-22.5-9.3-22.6-21.7c-0.1-12.4,8.9-21.6,22.2-22c4.9-0.2,9.9-0.2,14.8-0.2c6.5,0,13,0.1,19.6,0.1c0.2,0,0.4,0,0.6,0
			c8.3,0,16.6,0,24.9,0c6,0,12.1,0,18.1,0.1c0.1,0,0.3,0,0.4,0c5.4,0,9.5-1.4,11.3-8.6c-4-0.3-7.8-0.8-11.6-0.8c-34-0.1-68,0-102,0
			c0,0-0.1,0-0.1,0c-1.1,0-2.2,0-3.3,0c-2.2,0-4.4,0-6.6-0.3c-11.4-1.2-19.7-10.2-19.8-21.3c-0.1-11.1,8.2-20.4,19.6-21.6
			c2.2-0.2,4.5-0.3,6.8-0.3c1.4,0,2.8,0,4.2,0c0,0,0,0,0,0c24.7,0,49.3,0,74,0c25,0,50,0,75,0.1c0.1,0,0.1,0,0.2,0
			c7.2,0,13.1-1.8,19.2-6C2675.7,258.4,2722.4,244.6,2772.3,244.6 M2811.8,736.3c33.2,0,62.5-10.8,87.2-34.8
			c12.5-12.2,22.5-26.3,30.7-41.7c13.4-25.2,21.9-52.2,26.3-80.4c2.6-16.8,4.7-33.6,2.3-50.7c-0.9-6.5-2.8-11.9-7.8-16.7
			c-3.7-3.5-6.3-8.5-8.6-13.2c-3.7-7.4-6.3-15.5-10.3-22.7c-3.8-6.9-8.1-14-13.6-19.5c-8.9-8.8-20.6-13.2-32.2-13.2
			c-13.1,0-26,5.5-34.3,16.3c-1.3,1.6-1.8,3.8-3,6.3c10.6,1.9,18.5,6.8,23.1,15.5c3.6,6.7,6.7,13.8,8.6,21.2
			c5.6,21.6,5.4,43.7,2.6,65.5c-1.6,12.4-4.7,25-9.4,36.6c-9.1,22.6-26.3,36.7-50.5,40.8c-8.8,1.5-17.6,2.2-26.4,2.2
			c-16.8,0-33.4-2.6-49.7-7.6c-29.4-9-47.2-28.8-53.1-59.2c-4.9-25-5.5-50.5-4.9-75.6c0.9-35.1,10.8-68.3,27.6-99.3
			c14.1-26,33.1-47.4,58.6-62.8c1.9-1.1,3.6-2.6,6.8-5c-7.8-2-14.9-2.9-21.6-2.9c-3.8,0-7.4,0.3-11.1,0.7
			c-29.3,3.5-52.5,18.1-71.7,39.8c-21.1,23.9-34.9,51.9-44.1,82.2c-11.7,38.3-17.7,77.2-9.4,117.2c15.9,76.3,80.5,155,178.3,160.8
			C2805.5,736.2,2808.6,736.3,2811.8,736.3 M2772.3,214.6c-57.4,0-110,16.5-156.4,49.1c-0.5,0.3-0.8,0.5-0.8,0.5
			c-0.1,0-0.4,0.1-1.1,0.1l-0.1,0c-21.9-0.1-45.1-0.1-75.1-0.1c-14.5,0-29,0-43.5,0c-10.2,0-20.4,0-30.6,0c-0.7,0-1.3,0-1.9,0
			c-0.8,0-1.5,0-2.3,0c-2.8,0-6.2,0.1-10,0.5c-26.6,2.9-46.5,25-46.4,51.6c0.1,12.9,4.9,25.2,13.6,34.6c5.1,5.5,11.2,9.8,18.1,12.6
			c-0.2,1.9-0.3,3.9-0.3,5.9c0.1,14.2,5.6,27.2,15.5,36.7c9.3,9,22.1,14.2,36,14.8c2.6,0.1,5.5,0.1,8.9,0.1c0.4,0,0.9,0,1.3,0
			c-5.9,15.9-10.1,32-12.3,48.3c-1.3,9.2-2.7,20.2-3.7,31.5c-2.6,31.8-2.2,62.8,1.2,92.2c3.6,31.4,10.7,61.9,21.2,90.8
			c11.6,31.9,27.1,60.5,46.1,84.8c20.2,25.9,44.9,47.7,73.4,64.9c40.7,24.6,83.3,40.8,126.5,48.3c17.3,3,34.5,4.5,51.1,4.5
			c61.5,0,117.9-20.4,167.8-60.6c32.2-26,59.4-59,80.6-98.1c23-42.4,39.2-89.1,48.1-138.9c8.6-48.3,8.6-91,0.1-130.7
			c-8.6-40-25.2-73.5-49.3-99.6c-24.6-26.6-57-45.5-96.4-56.4c-15.7-4.3-33.4-7.5-53.9-9.6c-11.8-1.2-22.6-1.8-33.2-1.8
			c-3.5,0-7,0.1-10.5,0.2c4.5-6.6,8.9-13.2,13.3-19.9l20.9-32l-36-12.7c-16.8-5.9-32.1-8.1-46.1-9.6
			C2794.7,215.3,2783.4,214.6,2772.3,214.6L2772.3,214.6z M2811.8,706.3c-2.5,0-5.1-0.1-7.7-0.2c-85.1-5.1-137.7-74.5-150.7-136.9
			c-6.2-30-3.5-62.5,8.7-102.4c0.8-2.5,1.5-4.9,2.4-7.3c-3.3,14.9-5.2,30-5.6,45.1c-0.6,22.5-0.4,52.2,5.4,82.1
			c4,20.5,12.4,37.9,24.8,51.8c12.5,14,29,24.1,48.9,30.2c19.4,5.9,39.1,9,58.5,9c10.4,0,21-0.9,31.3-2.6
			c34.3-5.7,60.4-26.7,73.4-59.2c5.5-13.6,9.4-28.8,11.3-44c3.2-25.2,2.8-47.4-1.2-67.7c1.1,2.5,2.3,5.2,3.7,8
			c2.7,5.4,6.7,13.4,13.6,20.3c0,0.1,0,0.2,0,0.3c1.9,13.6-0.1,28.2-2.3,42c-4.1,25.9-11.9,49.7-23.1,70.9
			c-7.3,13.7-15.5,24.9-25.2,34.2C2859.8,697.7,2838.2,706.3,2811.8,706.3L2811.8,706.3z"/>
	</g>
	<g id="XMLID_62_">
		<path id="XMLID_58_" class="st0" d="M3413.7,148.3c1.4,4.2,2.9,7.7,3.9,11.4c16.2,59.5,32.4,119,48.6,178.4
			c44.8,164.6,89.6,329.2,134.7,493.7c2.3,8.4,1,14.1-4.3,20.8c-18.7,23.4-36.8,47.4-55.2,71.1c-2.2,2.9-4.5,5.6-8,9.9
			c-6.5-17.2-10.1-33.6-14.8-49.6c-4.9-16.3-9.3-32.7-13.9-49c-4.6-16.4-9.3-32.7-13.9-49.1c-4.5-16-9-32.1-13.6-48.1
			c-4.6-16.4-9.2-32.7-13.9-49.1c-4.6-16.4-9.2-32.7-13.9-49c-4.6-16.3-9.3-32.6-14.2-49.8c-3.6,0.6-6.9,0.9-10,1.6
			c-51.7,12.9-103.4,26.1-155.2,38.7c-7.3,1.8-11.2,5.4-14.3,12c-42.4,89.8-85,179.5-127.5,269.3c-30.8,65-61.7,130.1-92.6,195.1
			c-1.1,2.3-2.6,4.5-4.3,7.5c-1.9-3.1-3.5-5.2-4.7-7.4c-12.4-23.6-24.6-47.3-37.2-70.8c-3-5.5-3.3-10.2-1-16
			c5.8-14.9,11.2-30,16.6-45c1.1-3,1.9-6.1,3.2-10.4c-4.7-0.3-8.2-0.7-11.7-0.7c-7,0-14,0-20.9,0c-2.2,0-4.4,0-6.6,0
			c-6.8,0-13.6,0-20.4,0c-3.7,0-7.4,0-11-0.6c-10.2-1.8-17.6-11.1-17.4-21.4c0.2-10.4,7.7-19.4,17.9-21c2.8-0.4,5.7-0.5,8.6-0.5
			c0.6,0,1.3,0,1.9,0c0.2,0,0.3,0,0.5,0c6.5,0,13,0,19.4,0c5.2,0,10.4,0,15.6,0c11,0,22,0,33-0.1c7.7,0,7.7-0.2,9.9-8.8
			c-3.7-0.2-7.2-0.5-10.7-0.5c-32.7,0-65.3,0-98,0c0,0,0,0-0.1,0c-1.5,0-2.9,0-4.4,0c-1.9,0-3.7-0.1-5.6-0.3
			c-11.3-1.5-19.4-10.8-19.2-22c0.1-10.8,7.9-19.7,18.8-21.3c2.1-0.3,4.2-0.4,6.3-0.4c1.2,0,2.4,0,3.6,0c0,0,0,0,0.1,0
			c38.7,0,77.3,0,116,0c10.8,0,10.8,0,14.7-10.6c80.4-219.7,160.9-439.3,241.1-659c3.6-9.9,8.7-14.9,18.8-17.7
			c31.1-8.7,61.9-18.5,92.9-27.9C3405,150.7,3408.8,149.7,3413.7,148.3 M3308.7,515.8c34.7-4,69.2-7.9,104.4-12
			c-1.7-17.1-43.4-182.5-47.2-188.2C3359,331.7,3308.5,507.3,3308.7,515.8 M3432.8,111.9l-27.1,7.6c-1.6,0.4-3.1,0.8-4.5,1.2
			c-3,0.8-5.8,1.6-8.7,2.5c-9.1,2.7-18.3,5.6-27.2,8.3c-21.3,6.6-43.4,13.3-65.1,19.4c-19.2,5.4-31.9,17.2-38.9,36.3
			c-68.1,186.7-137.6,376.4-204.8,559.9l-33,90c-15.8,0-31.5,0-47.2,0c-19.5,0-39.1,0-58.6,0h0c-0.5,0-1,0-1.6,0c-0.7,0-1.3,0-2,0
			c-2.8,0-6.6,0.1-10.7,0.7c-25.4,3.8-44.1,25.1-44.4,50.6c-0.2,12.8,4.4,25.1,12.7,34.7c5.1,5.9,11.6,10.5,18.7,13.6
			c-0.2,1.6-0.3,3.1-0.3,4.7c-0.2,12,3.9,23.8,11.5,33.2c7.7,9.6,18.6,16,30.7,18.2c6,1.1,11.3,1.1,15.6,1.1l0.4,0
			c6.1,0,12.3,0,17.9,0c-1.9,5.1-3.8,10.2-5.8,15.2c-5.5,14-4.6,27.9,2.5,41.2c8.5,15.8,17,32.1,25.2,47.8
			c3.9,7.4,7.9,15.1,11.9,22.7c1.5,2.8,3,5.1,4.3,7.1c0.5,0.7,1,1.5,1.5,2.4l26.4,41.9l24.9-42.8c0.5-0.9,1-1.6,1.4-2.3
			c1.3-2.1,2.7-4.5,4.1-7.4c32.2-67.8,64.9-136.7,92.6-195.1c7.4-15.6,14.8-31.3,22.2-46.9c34-71.8,69.2-146,103.7-219.1
			c34.9-8.5,70.2-17.4,104.4-26c9.5-2.4,19-4.8,28.5-7.1c2.2,7.6,4.3,15.1,6.5,22.7c3.3,11.7,6.6,23.4,10,35.1l3.9,13.9l1.4,4.9
			c4.2,14.7,8.3,29.4,12.5,44.2c2.3,8.2,4.6,16.5,7,24.7c2.2,7.8,4.4,15.6,6.6,23.4c3.2,11.4,6.4,22.8,9.7,34.1l4.2,14.9
			c1.4,5,2.8,9.9,4.2,14.9c3.2,11.3,6.4,23,9.9,34.6c1.4,4.8,2.8,9.8,4.2,15c3.1,11.6,6.4,23.7,11.3,36.6l18.6,48.8l32.8-40.6
			c1.2-1.5,2.2-2.7,3.2-3.9c1.9-2.4,3.6-4.4,5.3-6.6c5.3-6.9,10.7-13.9,15.9-20.7c12.7-16.5,25.8-33.6,38.9-50
			c11.4-14.3,14.7-29.8,9.8-47.4c-38.8-141.4-77.9-285.2-115.8-424.3l-18.9-69.3c-6.3-23-12.5-46.1-18.8-69.2
			c-9.7-35.8-19.8-72.9-29.8-109.3c-1-3.7-2.2-7-3.3-10c-0.4-1.2-0.8-2.3-1.2-3.4L3432.8,111.9L3432.8,111.9z M3348.2,481.1
			c4.5-16.5,10.1-36.5,15.9-56.5c5.3,21.4,9.7,39.5,12.9,53.3L3348.2,481.1L3348.2,481.1z"/>
	</g>
	<g id="XMLID_61_">
		<path id="XMLID_40_" class="st0" d="M1114.9,231.2c-10.4,190.2-20.8,378.3-31.1,567.8c56.6,9.2,112.6,16.9,168.4,25.3
			c55.6,8.4,111.2,16.5,167.7,24.8c-0.9,3.7-1.3,6.2-2.2,8.6c-9.6,25.6-19.3,51.1-29,76.7c-3.3,8.6-3.4,8.7-13,8.7
			c-59.4,0-118.8,0-178.1,0c-74.6,0-149.2,0-223.8,0c-3.2,0-6.5-0.4-10.8-0.6c-3.3-40-6.5-79.4-9.9-119.7c-4.4-0.3-8.2-0.9-12.1-0.9
			c-12.6,0-25.1,0-37.7,0c-3.7,0-7.4,0-11.1,0c-7.1,0-14.1,0-21.2,0c-0.1,0-0.2,0-0.3,0c-0.6,0-1.2,0-1.8,0c-2.6,0-5.2,0-7.8-0.4
			c-10.8-1.5-18.7-10.7-18.7-21.4c0-10.7,8-19.8,18.8-21.3c2.7-0.4,5.4-0.4,8.2-0.4c0.5,0,0.9,0,1.4,0c0.2,0,0.3,0,0.5,0
			c13,0,26.1,0,39.1,0c8.3,0,16.5,0,24.8,0c1.4,0,2.7,0,4.1,0c2,0,3.9,0,6,0c2,0,4.1,0,6.3,0c0-3.5,0-5.7,0-8.5
			c-2.8-0.3-5.3-0.8-7.9-0.8c-19.4,0-38.8,0-58.1,0c-3.7,0-7.4,0-11.1,0c-4.6,0-9.2,0-13.8,0c-0.1,0-0.2,0-0.2,0
			c-4.6,0-9.2,0-13.8,0c-3.3,0-6.6,0-10-0.1c-15.7-0.2-25.2-8.7-25-22.3c0.2-13.1,9.5-21.5,24.7-21.6c15.5-0.1,31-0.1,46.5-0.1
			c17.3,0,34.7,0,52,0c1.2,0,2.3,0,3.5,0c1.6,0,3.2,0,4.8,0c2.5,0,5.1,0,8.1,0c0.4-3.5,1-6.3,0.9-9.1c-0.9-39.3-1.9-78.6-3-117.9
			c-0.8-29.3-1.9-58.6-2.6-87.9c-1.7-64-3.2-127.9-4.9-191.9c-0.4-14-1-28-1.4-42c-0.1-3.3,0-6.6,0-11.3c28.7-6.6,57.4-11.3,86-16.8
			C1055,242.4,1083.7,237.1,1114.9,231.2 M1146.9,194.5l-37.6,7.1c-9.6,1.8-19.1,3.6-28.3,5.4c-20.9,3.9-40.6,7.7-60.5,11.5
			c-9.2,1.8-18.6,3.5-27.8,5.2c-19.3,3.6-39.3,7.2-59.2,11.8l-23.3,5.4v23.9c0,1.5,0,2.9,0,4.1c0,2.8,0,5.4,0,8.1
			c0.2,5.6,0.4,11.3,0.6,16.9c0.3,8.2,0.6,16.7,0.8,24.9c0.7,28,1.4,56,2.1,84c0.9,35.4,1.8,71.9,2.7,107.9
			c0.4,15.5,0.9,31.2,1.4,46.3c0.4,13.7,0.9,27.8,1.3,41.6c0.8,28.6,1.6,58.9,2.4,96.2c-4.3,0-8.6,0-12.8,0c-8.7,0-17.3,0-26,0
			c-18.6,0-33,0-46.6,0.1c-14.8,0.1-27.8,4.7-37.7,13.3c-10.7,9.4-16.7,22.9-16.9,37.8c-0.2,15.4,5.7,29.2,16.6,38.9
			c4.3,3.8,9.2,6.9,14.6,9.1c-0.2,1.8-0.3,3.7-0.3,5.5c-0.1,25.7,19.1,47.7,44.6,51.2c4.5,0.6,8.5,0.7,11.9,0.7l0.9,0l0.9,0l0.3,0
			c7.1,0,14.1,0,21.2,0l5.6,0l5.6,0c7.1,0,14.5,0,22.1,0l2.5,30.5l5.2,62.7l2.1,26l26,1.5c1.3,0.1,2.5,0.2,3.6,0.2
			c2.8,0.2,5.7,0.4,8.9,0.4c74.6,0,149.2,0,223.8,0c59.4,0,118.8,0,178.1,0c7.3,0,16.3,0,25.5-6.2c9.6-6.4,13-15.4,15.5-21.9
			c9.5-25,19.3-50.8,29-76.8c1.3-3.5,2-6.6,2.6-9.1c0.2-0.9,0.4-1.8,0.6-2.7l8.1-32.2l-32.8-4.8c-17.3-2.6-34.5-5.1-51.6-7.6
			c-38.1-5.6-77.4-11.4-115.9-17.2c-20.3-3.1-40.9-6.1-60.9-9c-26.4-3.9-53.5-7.8-80.6-12l13.6-248.6l16-292.2L1146.9,194.5
			L1146.9,194.5z"/>
	</g>
</g>
</svg>
