<?xml version="1.0" encoding="utf-8"?>
<!-- Generator: Adobe Illustrator 19.0.0, SVG Export Plug-In . SVG Version: 6.00 Build 0)  -->
<svg version="1.1" id="Layer_1" xmlns="http://www.w3.org/2000/svg" xmlns:xlink="http://www.w3.org/1999/xlink" x="0px" y="0px"
	 viewBox="-203.3 358.4 156.5 69.1" style="enable-background:new -203.3 358.4 156.5 69.1;" xml:space="preserve">
<style type="text/css">
	.st0{fill:#FFFFFF;}
</style>
<g>
	<path class="st0" d="M-67.7,375.7c-1.5,0-2.8,0.3-3.9,2.1c-2.6,3.4-10.2,24.2-10.1,28.3c0,1.5,0.9,2.8,2.7,2.8
		c2.1,0,3.3-1.5,4.3-3.2v0c2.4-4.1,9.1-22.4,9.3-27C-65.3,377.3-65.5,375.8-67.7,375.7z"/>
	<path class="st0" d="M-66.5,358.6c-9.3,0-15.7,3.7-20.1,8.8v0c-0.7-1.5-1.3-2.2-2.1-3.1c-3.6-4-9.3-5.9-17-5.9
		c-7.5,0-13.8,2.3-18.1,6c-2.3-3.7-7.6-6.1-14.1-6.1c-8.5,0-17.7,1.2-23.2,10c-0.1-3.2-0.4-4.9-2.2-6.8c-2.2-2.3-5.7-2.9-9.1-2.9
		c-6.2,0-10.9,2.7-14.3,8.3c-4.9,7.8-16.8,33.6-16.5,46c0.2,8.1,5.6,13.9,15.3,14.1c7.6,0.2,13.5-1.8,17.3-5.6
		c3.4,3.7,8.5,5.8,14.7,5.8c6.9,0,13.8-2.1,17.9-6.6c3.4,4.2,8.9,6.7,15.8,6.7c9.1,0,17.1-4.4,22.3-11c2.9,7.8,10.1,10.9,18.1,10.9
		c17.4,0,25.1-12,31.4-30.9c1.4-4.3,3.4-11.4,3.7-17.4C-46.2,369.1-50.4,358.6-66.5,358.6z M-171.4,410.9L-171.4,410.9
		c-0.8,9-9.1,11-16.3,10.9c-5.2-0.1-9.9-2.5-10-8.6c-0.2-10.6,10.6-35.1,15.7-43.2c2.3-3.9,5.2-5.8,9.8-5.8c4.3,0,5.4,2.2,5.3,4.9
		c-0.1,5.4-6.8,19.2-11.7,29.2v0c-1.5,3.1-2.8,5.9-3.7,7.9C-173.4,404.6-171.1,407.9-171.4,410.9z M-153.1,397.9L-153.1,397.9
		c-0.6,1.6-1.7,5-2.6,8.6c3-0.7,5.2-1.2,9-1.2c4.3,0.1,7.1,1.9,7.1,5.5c0,8.7-9.6,11.2-16.2,11.2c-7.3,0-13.7-4.2-13.7-12.1
		c0-9.4,5.1-23.6,9.8-33c5.8-11.6,11.8-13.2,22.1-13.2c4.5,0,9.7,1.9,9.7,6.2c0,5.9-5,8.2-10,8.5c-2.1,0.1-5.4,0.2-7.3,0.1
		c0,0-1.7,2.5-3.4,7c9.2-1.3,13.1,0.8,11.6,6.1C-139.2,398.8-145.4,399.3-153.1,397.9z M-107.8,375.5c-2.5,0-4.1,1.6-5.3,3.3
		c-2.7,3.7-8.5,18.8-9.4,24.9c-0.6,4.2,1.2,5.1,3.2,5.1c3.2,0,6.8-3.4,8-9c0,0-6.1-0.1-4.4-5.5c1.6-5.2,4.7-6.4,9.9-6.6
		c10.1-0.4,9.1,7.1,8.3,11c-2.6,12.9-11.8,23.3-24.8,23.3c-8.9,0-14.4-4.9-14.4-14c0-6.5,3.2-16.6,5.8-22.6
		c5.4-12.7,11.1-21.5,25.6-21.5c8.7,0,15.5,3.1,14.5,11.3c-0.7,6-3.7,9.5-9.2,9.9c-1.5,0.1-7.7,0-5.7-5.9
		C-105,377.1-104.7,375.5-107.8,375.5z M-53.1,386.2c-1.5,7.6-5,16.6-8.7,23.4c-6.1,11-13.5,12.5-20,12.4
		c-6.5-0.1-13.8-2.5-13.8-12.4c0-7.2,3-17.3,5.7-23.9c4.6-12,9.2-21.8,24-21.6C-48.7,364.2-51.7,379.5-53.1,386.2z"/>
</g>
</svg>
