<?xml version="1.0" encoding="utf-8"?>
<!-- Generator: Adobe Illustrator 19.0.0, SVG Export Plug-In . SVG Version: 6.00 Build 0)  -->
<svg version="1.1" id="Layer_1" xmlns="http://www.w3.org/2000/svg" xmlns:xlink="http://www.w3.org/1999/xlink" x="0px" y="0px"
	 viewBox="0 0 1016 230" style="enable-background:new 0 0 1016 230;" xml:space="preserve">
<style type="text/css">
	.st0{fill:#FFFFFF;}
</style>
<g>
	<path class="st0" d="M391.4,222.7c12.3-31.4,24.4-62.5,36.6-93.7c0.4,0.1,0.8,0.2,1.2,0.3c0,1.8,0,3.6,0,5.4c0,19.5,0,39,0,58.5
		c0,9.8,0.9,19.7-3.6,29.2c19.5,0,38.5,0,57,0c-1-5.3-2.5-10.4-2.6-15.4c-0.3-17.3-0.5-34.7-0.1-52c0.5-17.3-2.6-34.8,3.1-51.9
		c-22.5,0-44.6,0-67,0c-9,22.6-18,45.1-26.9,67.6c-0.3,0-0.7-0.1-1-0.1c-8.4-22.5-16.8-45-25.2-67.3c-23.3,0-45.9,0-69.3,0
		c4.4,6.3,4.3,12.8,4.3,19.3c0.1,25.8,0,51.7,0,77.5c0,7.6,0.2,15.3-4.2,22.5c10.1,0,19.7,0,28.6,0c-0.9-5.4-2.4-10.7-2.5-16
		c-0.3-24.7-0.2-49.3-0.1-74c0-1,0.4-1.9,0.6-2.9c0.3,0,0.5,0,0.8,0c11.7,30.9,23.4,61.8,35.2,92.8
		C367.9,222.7,379.4,222.7,391.4,222.7z M880.8,199.3c1.5,8.4,2.8,15.8,4.2,23.6c2.1,0,3.7,0,5.4,0c28.3,0,56.6,0,85,0
		c2.5,0,5,0,7.5-0.1c14.6-1.1,23.9-7.8,24.8-20c1.1-14.4,0.7-28.9,0.4-43.4c-0.2-8.1-5.2-13.7-12.8-16.1c-5.3-1.7-11-2.8-16.6-2.9
		c-13.3-0.4-26.7-0.1-40-0.2c-2.7,0-5.5-0.6-9.1-1.1c-0.2-4-0.4-7.4-0.5-10.8c-0.1-3.3,1.5-5.4,5-5.6c2-0.1,4-0.5,6-0.4
		c22.1,1,44.5-2.6,66.9,3.2c-1.4-7.5-2.7-14.7-4.2-22.5c-2.3,0-4.3,0-6.2,0c-24.5,0-49,0-73.5,0c-6.2,0-12.3-0.1-18.5,0.2
		c-12.9,0.6-21.9,7.6-23.3,20.3c-1.3,11.8-0.8,23.9-0.9,35.9c0,3.1,0.4,6.3,1,9.4c1.5,7.4,5.9,12.3,13.3,13.9
		c4.2,0.9,8.6,1.3,12.9,1.3c13.8,0.2,27.7,0,41.5,0.1c3.2,0,6.5,0.7,10.2,1.2c0,6,0,11.1,0,17c-2.8,0.4-5.2,1.1-7.5,1.1
		c-11.7,0.1-23.3,0.2-35,0C904.8,203.1,892.9,204.9,880.8,199.3z M579.9,103.3c4.3,6.9,4.1,14.1,4.1,21.2c0,22.7,0.1,45.3-0.1,68
		c-0.1,10.1,1.7,20.5-4,30.1c10.1,0,19.6,0,30.1,0c-4.7-6.1-4.4-12.7-4.4-19.2c0-25,0-50,0-75c0-1.4,0.2-2.8,0.3-4.2
		c0.3-0.1,0.6-0.2,0.9-0.3c18.2,33,36.5,65.9,54.5,98.5c22.2,0,43.8,0,66,0c0-2.7,0-5,0-7.3c0-29-0.1-58,0-87c0-8.4-1-17,3.8-24.9
		c-10.1,0-19.6,0-29.7,0c4.2,6.2,4.1,12.8,4.2,19.3c0.1,24.3,0,48.7,0,73c0,1.6-0.2,3.1-0.3,4.7c-0.4,0.1-0.8,0.1-1.1,0.2
		c-17.9-32.4-35.8-64.8-53.7-97.2C627.1,103.3,603.8,103.3,579.9,103.3z M747.8,103.2c0.8,5.4,2,10.6,2.3,15.8
		c0.4,5.5,0.2,11,0.2,16.5c0,16.3,0.2,32.7-0.1,49c-0.2,12.7,1.8,25.6-3.2,38.2c39.1,0,77.7,0,116.8,0c1.4-7.2,2.8-14.2,4.3-21.7
		c-22.7,4.3-44.7,1.6-66.8,2.5c0-11.4,0-21.8,0-32.8c19.7,0.7,39.1-1.8,58.8,2.5c0-8.5,0-16.5,0-23.8c-10.1,0.6-19.8,1.4-29.6,1.7
		c-9.7,0.3-19.5,0.1-29.1,0.1c0-10.1,0-19.2,0-28.9c11,0,21.6-0.2,32.2,0.1c10.5,0.3,21.1,1.1,31.9,1.7c-1.2-6.6-2.5-13.6-3.8-20.7
		C823.4,103.2,785.5,103.2,747.8,103.2z M249.4,103.1c4.3,6.2,4.1,12.4,4.4,18.5c0.2,4,0,8,0,12c0,19.2,0.1,38.3,0,57.5
		c-0.1,10.3-1.7,12-11.8,12.1c-15.3,0.1-30.7,0.1-46,0c-8.3-0.1-12-3.4-11.8-11.5c0.8-29.5-2.6-59.1,2.5-88.6c-18.4,0-37.2,0-56.5,0
		c4.6,11.2,3.4,22.5,3.5,33.8c0.1,14.8,0,29.7,0,44.5c0,4.3,0.1,8.7,0.5,13c1.2,14.5,9.1,24.1,22.5,27.1c3.5,0.8,7.2,1.3,10.9,1.3
		c25,0.1,50,0.2,75,0c4.9,0,10-0.9,14.8-2.1c7.9-2.1,13.4-7.2,15.7-15.3c0.9-3.3,1.8-6.8,1.9-10.3c0.3-21.3,0.4-42.6,0.7-64
		c0.1-9.4-1.3-18.9,3.8-28C269.2,103.1,259.8,103.1,249.4,103.1z M59.6,203.5c0-3.1,0-5.1,0-7.1c0-19.7-0.1-39.3,0-59
		c0.1-11.4-1.5-23,3.3-34.2c-19.3,0-38.1,0-57.5,0c3.7,8.7,3.6,17.3,3.6,26c-0.1,21.7,0,43.3,0,65c0,9.5,0.5,19-3.7,28.3
		c38.4,0,76.3,0,114.5,0c1.4-7.5,2.7-14.7,4-22.1C102.4,205.7,81.3,202.3,59.6,203.5z M560.6,222.6c-5-10.8-3.6-22-3.7-33.1
		c-0.1-17.8-0.1-35.6,0-53.5c0-10.9-1.1-22,3.5-32.7c-19.3,0-38.2,0-57,0c1,4.4,2.2,8.4,2.6,12.5c0.5,4.3,0.3,8.6,0.3,13
		c0,21.8,0,43.6,0,65.5c0,9.4,0.9,19-3.6,28.3C522.2,222.6,541.1,222.6,560.6,222.6z M569.6,81.2c-9.6-11.6-20-22.5-28.9-36
		c5.4-0.7,9.5-1.3,13.5-1.8c0-0.2,0-0.4,0.1-0.6c-4.1-0.6-8.2-1.2-13.4-1.9c9.1-13.7,19.6-24.7,29.3-36.4
		c-11.7,9.7-22.7,20.2-36.5,29.5c-0.8-7-1.5-12.8-2.2-18.5c-0.4,5.8-0.6,11.7-2.8,18.8C516.3,24,504.9,14.5,492.5,4.3
		c10.5,12.3,20.9,23.1,29.7,36.6c-5.3,0.8-9.3,1.3-13.4,1.9c0,0.2,0.1,0.4,0.1,0.6c4,0.6,8.1,1.1,13.4,1.9
		c-8.8,13.2-18.9,23.8-28.2,35.2c11.3-9.3,22-19.4,34.2-27.5c0.5,0.3,0.9,0.5,1.4,0.8c0.6,5.7,1.2,11.4,1.9,17.9
		c0.5-6.6,0.5-12.5,2.6-19.1C547.3,61.5,558.2,71.7,569.6,81.2z"/>
	<path class="st0" d="M391.4,222.7c-12,0-23.5,0-35.2,0c-11.8-31-23.5-61.9-35.2-92.8c-0.3,0-0.5,0-0.8,0c-0.2,1-0.6,1.9-0.6,2.9
		c0,24.7-0.1,49.3,0.1,74c0.1,5.3,1.6,10.6,2.5,16c-8.9,0-18.5,0-28.6,0c4.5-7.2,4.2-14.9,4.2-22.5c0-25.8,0-51.7,0-77.5
		c0-6.5,0-13-4.3-19.3c23.3,0,46,0,69.3,0c8.3,22.2,16.7,44.7,25.2,67.3c0.3,0,0.7,0.1,1,0.1c9-22.5,17.9-44.9,26.9-67.6
		c22.3,0,44.4,0,67,0c-5.6,17.1-2.6,34.6-3.1,51.9c-0.5,17.3-0.3,34.7,0.1,52c0.1,5.1,1.7,10.1,2.6,15.4c-18.6,0-37.5,0-57,0
		c4.4-9.5,3.6-19.4,3.6-29.2c0-19.5,0-39,0-58.5c0-1.8,0-3.6,0-5.4c-0.4-0.1-0.8-0.2-1.2-0.3C415.8,160.2,403.7,191.3,391.4,222.7z"
		/>
	<path class="st0" d="M880.8,199.3c12.2,5.6,24.1,3.9,35.8,4.1c11.7,0.2,23.3,0.1,35,0c2.4,0,4.8-0.7,7.5-1.1c0-5.8,0-11,0-17
		c-3.7-0.4-7-1.1-10.2-1.2c-13.8-0.1-27.7,0-41.5-0.1c-4.3-0.1-8.7-0.4-12.9-1.3c-7.4-1.6-11.9-6.5-13.3-13.9c-0.6-3.1-1-6.3-1-9.4
		c0.1-12-0.4-24,0.9-35.9c1.4-12.7,10.4-19.8,23.3-20.3c6.2-0.3,12.3-0.2,18.5-0.2c24.5,0,49,0,73.5,0c2,0,3.9,0,6.2,0
		c1.4,7.8,2.8,15,4.2,22.5c-22.4-5.8-44.8-2.2-66.9-3.2c-2-0.1-4,0.3-6,0.4c-3.5,0.3-5,2.3-5,5.6c0.1,3.4,0.3,6.8,0.5,10.8
		c3.6,0.4,6.3,1.1,9.1,1.1c13.3,0.1,26.7-0.2,40,0.2c5.6,0.2,11.3,1.3,16.6,2.9c7.6,2.4,12.6,8,12.8,16.1c0.4,14.5,0.7,29-0.4,43.4
		c-0.9,12.2-10.2,18.9-24.8,20c-2.5,0.2-5,0.1-7.5,0.1c-28.3,0-56.6,0-85,0c-1.6,0-3.3,0-5.4,0C883.6,215.1,882.3,207.7,880.8,199.3
		z"/>
	<path class="st0" d="M579.9,103.3c23.9,0,47.1,0,70.7,0c17.9,32.3,35.8,64.7,53.7,97.2c0.4-0.1,0.8-0.1,1.1-0.2
		c0.1-1.6,0.3-3.1,0.3-4.7c0-24.3,0.1-48.7,0-73c0-6.5,0-13-4.2-19.3c10.1,0,19.6,0,29.7,0c-4.9,7.9-3.8,16.5-3.8,24.9
		c-0.1,29,0,58,0,87c0,2.3,0,4.6,0,7.3c-22.2,0-43.8,0-66,0c-18-32.6-36.3-65.6-54.5-98.5c-0.3,0.1-0.6,0.2-0.9,0.3
		c-0.1,1.4-0.3,2.8-0.3,4.2c0,25,0,50,0,75c0,6.5-0.3,13,4.4,19.2c-10.4,0-20,0-30.1,0c5.6-9.5,3.9-19.9,4-30.1
		c0.2-22.7,0-45.3,0.1-68C584.1,117.4,584.3,110.2,579.9,103.3z"/>
	<path class="st0" d="M747.8,103.2c37.6,0,75.5,0,113.9,0c1.3,7.2,2.6,14.1,3.8,20.7c-10.9-0.6-21.4-1.4-31.9-1.7
		c-10.6-0.3-21.2-0.1-32.2-0.1c0,9.7,0,18.8,0,28.9c9.7,0,19.4,0.2,29.1-0.1c9.7-0.3,19.5-1.1,29.6-1.7c0,7.3,0,15.3,0,23.8
		c-19.6-4.3-39.1-1.9-58.8-2.5c0,11.1,0,21.5,0,32.8c22.1-0.9,44.2,1.8,66.8-2.5c-1.5,7.5-2.9,14.5-4.3,21.7c-39.1,0-77.7,0-116.8,0
		c5-12.6,3-25.5,3.2-38.2c0.3-16.3,0.1-32.7,0.1-49c0-5.5,0.2-11-0.2-16.5C749.8,113.8,748.7,108.6,747.8,103.2z"/>
	<path class="st0" d="M249.4,103.1c10.4,0,19.8,0,29.9,0c-5.1,9.1-3.7,18.6-3.8,28c-0.3,21.3-0.3,42.6-0.7,64
		c-0.1,3.4-1,6.9-1.9,10.3c-2.2,8.1-7.7,13.2-15.7,15.3c-4.8,1.3-9.8,2.1-14.8,2.1c-25,0.2-50,0.2-75,0c-3.6,0-7.3-0.5-10.9-1.3
		c-13.4-3-21.3-12.6-22.5-27.1c-0.4-4.3-0.5-8.7-0.5-13c-0.1-14.8,0.1-29.7,0-44.5c-0.1-11.3,1.1-22.6-3.5-33.8c19.3,0,38,0,56.5,0
		c-5.1,29.5-1.7,59.1-2.5,88.6c-0.2,8.1,3.5,11.4,11.8,11.5c15.3,0.2,30.7,0.1,46,0c10.1-0.1,11.8-1.8,11.8-12.1
		c0.1-19.2,0-38.3,0-57.5c0-4,0.1-8,0-12C253.5,115.6,253.7,109.3,249.4,103.1z"/>
	<path class="st0" d="M59.6,203.5c21.6-1.2,42.8,2.2,64.2-3c-1.3,7.3-2.7,14.6-4,22.1c-38.2,0-76.1,0-114.5,0
		c4.2-9.3,3.7-18.8,3.7-28.3c0-21.7,0-43.3,0-65c0-8.7,0.1-17.3-3.6-26c19.3,0,38.1,0,57.5,0c-4.8,11.2-3.2,22.8-3.3,34.2
		c-0.2,19.7,0,39.3,0,59C59.6,198.5,59.6,200.4,59.6,203.5z"/>
	<path class="st0" d="M560.6,222.6c-19.5,0-38.4,0-57.9,0c4.4-9.3,3.5-18.9,3.6-28.3c0-21.8,0-43.6,0-65.5c0-4.3,0.2-8.7-0.3-13
		c-0.4-4.1-1.6-8.1-2.6-12.5c18.8,0,37.6,0,57,0c-4.6,10.7-3.5,21.8-3.5,32.7c-0.1,17.8-0.1,35.6,0,53.5
		C557,200.6,555.6,211.8,560.6,222.6z"/>
	<path class="st0" d="M569.6,81.2c-11.4-9.5-22.3-19.7-35.4-28.7c-2.1,6.5-2.1,12.4-2.6,19.1c-0.7-6.5-1.3-12.2-1.9-17.9
		c-0.5-0.3-0.9-0.5-1.4-0.8c-12.2,8.1-22.8,18.2-34.2,27.5c9.2-11.3,19.4-22,28.2-35.2c-5.3-0.7-9.3-1.3-13.4-1.9
		c0-0.2-0.1-0.4-0.1-0.6c4-0.6,8.1-1.2,13.4-1.9c-8.8-13.5-19.2-24.3-29.7-36.6c12.3,10.2,23.8,19.7,36.1,29.9
		c2.2-7.1,2.4-13,2.8-18.8c0.7,5.8,1.4,11.5,2.2,18.5c13.8-9.3,24.8-19.8,36.5-29.5c-9.7,11.7-20.3,22.7-29.3,36.4
		c5.3,0.8,9.4,1.4,13.4,1.9c0,0.2,0,0.4-0.1,0.6c-4,0.6-8,1.1-13.5,1.8C549.6,58.6,560,69.5,569.6,81.2z"/>
</g>
</svg>
