<?xml version="1.0" encoding="utf-8"?>
<!-- Generator: Adobe Illustrator 19.0.0, SVG Export Plug-In . SVG Version: 6.00 Build 0)  -->
<svg version="1.1" id="Layer_1" xmlns="http://www.w3.org/2000/svg" xmlns:xlink="http://www.w3.org/1999/xlink" x="0px" y="0px"
	 viewBox="0 0 226 41.5" style="enable-background:new 0 0 226 41.5;" xml:space="preserve">
<style type="text/css">
	.st0{fill:#FFFFFF;}
</style>
<g>
	<path class="st0" d="M0.6,40.3C1,38.6,1.4,36.8,1.7,35c1-5.2,2-10.3,3-15.5c1.2-6,2.3-12.1,3.5-18.1c0.1-0.4,0.2-0.8,0.3-1.3
		c2.9,0,5.8,0,8.8,0c1.9,8,3.6,16.1,5.5,24.5C28,16.2,33,8.1,38,0.1c3,0,5.9,0,8.9,0c-2.7,13.9-5.4,27.6-8,41.4c-3,0-5.8,0-8.8,0
		c0.5-3.6,1.3-7,2-10.4c0.7-3.4,1.3-6.8,1.8-10.3c-3,4.8-5.9,9.5-8.9,14.3c-2.6,0-5.2,0-7.8,0c-1.2-4.8-2.3-9.6-3.4-14.3
		c-0.1,0-0.1,0-0.2,0c-1.3,6.9-2.7,13.8-4.1,20.8c-3,0-6.1,0-9,0C0.5,40.9,0.5,40.9,0.6,40.3z"/>
	<path class="st0" d="M217.1,0.1c3,0,5.8,0,8.9,0c-2.7,13.8-5.4,27.6-8.1,41.4c-3,0-5.9,0-8.9,0c-2.9-7.8-5.9-15.6-8.8-23.4
		c-0.1,0-0.1,0-0.2,0c-1.5,7.8-3,15.5-4.5,23.2c-1,0.3-7.3,0.3-8.8,0.1c0.5-3.4,1.3-6.8,1.9-10.3c0.6-3.5,1.3-6.9,2-10.3
		c0.7-3.4,1.4-6.9,2-10.3c0.7-3.4,1.3-6.9,2-10.4c3,0,5.9,0,8.9,0c2.9,7.8,5.8,15.6,8.8,23.4c0.1,0,0.2,0,0.2,0
		C214.1,15.7,215.6,7.9,217.1,0.1z"/>
	<path class="st0" d="M91.6,0.1C92.1,0,92.4,0,92.8,0c6.8,0,13.7,0,20.5,0c3.7,0,6.1,3.4,5.5,6.6c-1,4.8-1.9,9.6-2.8,14.5
		c-0.8,4.4-1.7,8.8-2.6,13.2c-0.8,4.4-4.3,7.3-8.8,7.3c-6.6,0-13.1,0-19.7,0c-0.4,0-0.8,0-1.4-0.1C86.3,27.6,88.9,13.9,91.6,0.1z
		 M94.5,33c3.3,0,6.5,0,9.7,0c0.6-1.1,4.9-23.4,4.7-24.5c-3.2,0-6.3,0-9.6,0C97.7,16.6,96.1,24.8,94.5,33z"/>
	<path class="st0" d="M119.1,41.5c2.7-13.9,5.4-27.6,8.1-41.4c0.4,0,0.7-0.1,1-0.1c6.9,0,13.8,0,20.6,0c3.2,0,5.6,2.4,5.5,5.6
		c-0.1,1.7-0.5,3.5-0.8,5.2c-1.5,7.7-3,15.4-4.5,23.2c-0.9,4.7-4.3,7.6-9,7.6c-6.4,0-12.9,0-19.3,0
		C120.1,41.5,119.7,41.5,119.1,41.5z M130,33c3.3,0,6.5,0,9.9,0c1.6-8.2,3.2-16.3,4.7-24.4c-1.1-0.3-8.7-0.3-9.9-0.1
		C133.1,16.7,131.5,24.8,130,33z"/>
	<path class="st0" d="M170.1,8.5c-0.5,2.6-1,5-1.5,7.6c5.1,0,10.1,0,15.4,0c-0.6,2.9-1.1,5.6-1.6,8.4c-5.2,0-10.2,0-15.4,0
		c-0.6,2.9-1.1,5.6-1.7,8.6c1.5,0.1,2.8,0,4.2,0c1.4,0,2.7,0,4.1,0c1.4,0,2.8,0,4.2,0c1.3,0,2.7,0,4.2,0c-0.6,2.9-1.1,5.6-1.6,8.3
		c-8.7,0-17.2,0-25.9,0c2.7-13.9,5.4-27.6,8-41.4c8.7,0,17.2,0,25.9,0c-0.5,2.8-1,5.5-1.6,8.3c-2.8,0-5.5,0-8.2,0
		C175.8,8.5,173,8.5,170.1,8.5z"/>
	<path class="st0" d="M68.9,33.5c-4.2,0-8.3,0-12.5,0c-1.3,2.6-2.6,5.3-4,8c-3.1,0-6.1,0-9.3,0c0.2-0.4,0.3-0.8,0.5-1.2
		c2.9-5.7,5.9-11.3,8.9-17c3.8-7.3,7.6-14.7,11.5-22c0.2-0.4,0.4-0.8,0.7-1.2c3,0,6,0,9.2,0c1.9,13.8,3.7,27.5,5.6,41.4
		c-3.2,0-6.2,0-9.4,0C69.6,38.8,69.3,36.2,68.9,33.5z M67.9,25.2c-0.3-4.3-0.7-8.6-1-12.8c-0.1,0-0.1,0-0.2,0c-2,4.2-3.9,8.5-6,12.8
		C63.2,25.2,65.5,25.2,67.9,25.2z"/>
</g>
</svg>
