<?xml version="1.0" encoding="utf-8"?>
<!-- Generator: Adobe Illustrator 19.0.0, SVG Export Plug-In . SVG Version: 6.00 Build 0)  -->
<svg version="1.1" id="Layer_1" xmlns="http://www.w3.org/2000/svg" xmlns:xlink="http://www.w3.org/1999/xlink" x="0px" y="0px"
	 viewBox="100 387 1200 227" style="enable-background:new 100 387 1200 227;" xml:space="preserve">
<style type="text/css">
	.st0{fill:none;stroke:#FFFFFF;stroke-width:12;}
</style>
<path class="st0" d="M164,405c-3.3,0-4,0.3-5,5s-34.7,167.8-35,170s-2.5,13.6,2,13s55.6,1.4,57,1s5-0.9,5-5s2-79,2-79
	s13.8,20.5,15,22s1.7,2,5,2s4.2,1.6,7-2s19-26,19-26l25,39c0,0-1,40.5-1,43s-0.5,5,7,2s38.5-15.3,44-18s4.1-3.5,3-7
	s-55.1-147.8-56-149s-2.8-3.1-7-4s-20.6-7.2-24-8s-5,1.7-7,5s-10,15-10,15s-10.5-14.7-13-17s-4.7-2-11-2H164z"/>
<path class="st0" d="M414.6,561.7C399.7,519.5,367.8,429.3,367,426c-1.1-4.2-1.5-3.8-5-5s-36.9-11.1-40-12s-6.3-0.2-8,3
	c-0.9,1.8-15.7,41.1-28.8,75.8 M415.6,564.5c-0.3-0.8-0.6-1.8-1-2.8 M417.3,569.6 M309,552l3-5c0,0,45.6,21,46,22s4.4,20.6,6,22
	s-0.2,2.1,6,2s47.5-0.7,50-1s3.6-3.8,2-9c-0.2-0.5-0.8-2.5-1.9-5.6 M336,479c0.9-2.9,2.2-4.4,3-1s12.3,36.8,13,39s2.9,3.6-2,3
	s-20.6-4.5-23-5s-1.7-2.9,0-9S335.1,481.9,336,479z"/>
<path class="st0" d="M421,579h39c1.9,0,4-1.5,4-6s2-43,2-43s43.7,59.9,46,61s4.7-0.8,7-3s18.4-17,21-20s4.2-4.9,0-9
	s-36.1-39.4-37-40s2.3-2.5,3-3s27.7-16.7,29-18s1-1.1,1-4v-56c0-2-2.7-3.5-5-5s-45.1-26.1-47-27s-0.8-1-4-1h-55c-2.3,0-4,1-4,4
	s-6,167-6,167L421,579z M471,455l-1,32c0,0,16.3-12.3,17-13s2.1-0.9,0-3S471,455,471,455z"/>
<path class="st0" d="M593.1,539.4C591,486.8,588,411.2,588,410c0-1.9-2.8-4.1-5-4s-30-0.1-33,0s-4.9,0.8-5,5
	c-0.1,3.4-6.5,104.9-9,144.9"/>
<path class="st0" d="M534.9,574.6c-0.2,4.5-0.7,13.7-0.9,15.4c-0.2,2.3,0.5,4,5,4h52c3.1,0,4-1.9,4-5c0-0.9-0.6-15.6-1.4-36.3"/>
<path class="st0" d="M535,572c0,0-0.1,1-0.1,2.6"/>
<path class="st0" d="M536,555.9"/>
<path class="st0" d="M593,540l3-56l38-30l53-1l38,40c0,0-5.8,65.4-6,68s-0.7,5.1-4,6s-67.7,24.6-70,25s-3.8-1.1-5-2s-48-39-48-39
	L593,540z M666,506c0,0,14.1,13.2,15,14s0.2,3.8-1,5s-3.7,5.8-5,7s-1.5,2.4-3,2s-16.9,0.2-18,0s-2-3-2-3s-3.2-10-4-13s-0.5-4,1-5
	c1.5-1,9.1-7.1,11-8C662,504.2,664.3,504.6,666,506z"/>
<path class="st0" d="M1060,449v36l16-16c2.6-2.6,2.1-2.9,0-5S1060,449,1060,449z"/>
<path class="st0" d="M929,479c0,0-10.2,29.3-11,31s-3,6.4,2,7s19.7,2,22,2s2.9-1.3,2-5c-0.9-3.7-9.7-31-11-36S929.3,478.1,929,479z"
	/>
<path class="st0" d="M740,406h45c2.6,0,4,1.3,4,5v43c0,2.1,0.3,4.9,4,1s33.7-37.7,36-40s4.3-1.7,7,1s28.6,26.7,30,28s1.3,4.7,0,6
	s-58.2,38.8-60,40s-4,3.7,0,6s79.3,55.7,81,57s2.5,3.3-2,8s-24.5,24.2-26,26s-4.3,2.7-10-3s-51.3-47.4-56-52s-4.3-0.4-4,3
	s0,50.7,0,53s0,5-5,5h-37c-4,0-4-2.7-4-8s-6-173.3-6-175S737.5,406,740,406z"/>
<path class="st0" d="M859,519c0,0,50.8-98.7,52-101s0.8-3.2,5-3s30.1,2.6,33,3s4.8-0.1,6,3s59.3,162.8,60,165s3.3,7.3-3,7
	s-44,0-46,0c-3.8-0.2-6.8-3.2-7-7c-0.6-5.4-2.4-12.9-3-16s0.5-4.9-5-6s-37-11.1-40-12s-4,1.1-5,3s-12,21.4-13,23s-4.9,1.4-13-4"/>
<line class="st0" x1="853.5" y1="529.4" x2="859.8" y2="517.4"/>
<path class="st0" d="M1006.2,559.7c0,0,8.8-146.1,8.8-149.7s1.4-5.8,6-6c4.6-0.2,55.4,0,57,0c1.8,0.2,3.5,0.9,5,2
	c0.9,0.8,21.2,13.7,26,16c1.6,0.8,4.2,2.1,5-1c2-7.9,1.5-11.9,5-12s147.2-5.9,151-6s5.8,1.5,6,5s0,46.4,0,49s0.2,6.2-5,6s-47-3-47-3
	s4,126.5,4,129s-0.5,4-4,4h-61c-2.7,0-5.5-2-5-8s16.8-123.9,17-126s-1.2-5.1-4-5s-39,0-39,0s-1,38.5-1,40s0.8,2.9-2,5
	s-21.4,15.2-24,17s-2,6.1,0,8s32.6,35.6,34,37s1.7,2.1-1,5s-24.7,21.9-26,23s-3.3,4.6-10-3s-27.9-37.4-29.4-39.4
	c-2.9-3.8-11.5-16.2-11.6,10.4c-0.1,26.6,0,18.8,0,22s-0.4,3-4,3h-42.4"/>
</svg>
