<?xml version="1.0" encoding="utf-8"?>
<!-- Generator: Adobe Illustrator 19.0.0, SVG Export Plug-In . SVG Version: 6.00 Build 0)  -->
<svg version="1.1" id="Layer_1" xmlns="http://www.w3.org/2000/svg" xmlns:xlink="http://www.w3.org/1999/xlink" x="0px" y="0px"
	 viewBox="-1920 35.7 5232.1 763.1" style="enable-background:new -1920 35.7 5232.1 763.1;" xml:space="preserve">
<style type="text/css">
	.st0{fill:#FFFFFF;}
</style>
<g>
	<path class="st0" d="M-1920,605c1-0.9,2.4-1.5,2.9-2.6c26.2-64,52.1-128.1,78.4-192.1c37.3-90.8,74.9-181.4,112.3-272.2
		c8.9-21.5,17.5-43.2,26.6-64.6c5.9-13.9,13.2-17.8,28.3-16.2c0.3,0,0.7,0,1,0c29.3,4.1,58.5,8.2,87.8,12.3
		c31.2,4.4,62.4,8.9,93.7,13.4c7.9,1.1,15.7,2.5,23.7,3.3c8.4,0.9,16.4,1.7,25.2-0.5c8.8-2.2,19.1,0.2,28.5,1.8
		c54.7,9,109.4,18.3,164.1,27.6c18,3,36,6.3,54,9.4c9.4,1.6,15,6.9,16.6,16.1c2.5,14.7,4.7,29.5,6.8,44.3c1.7,11.8,3,23.7,4.7,35.6
		c0.2,1.5,1.2,2.9,2.4,5.7c6-19.1,11.5-36.8,17-54.5c5.3-17.1,10.5-34.3,15.9-51.5c4-12.8,12.4-17.7,25.7-16
		c37.8,5.1,75.7,9.9,113.6,15c42.4,5.7,84.9,11.5,127.3,17.2c26,3.5,52,6.7,78,10c0.6,0.1,1.2-0.4,1.9-0.6c0-5.2,0-10.4,0-15.5
		c0-15.2,5.3-22.2,20.1-25c16.3-3.1,32.8-5.4,49.1-8.2c51.1-8.5,102.2-17.1,153.3-25.5c42.6-7,85.3-13.8,127.9-20.7
		c14.1-2.3,28.2-4.5,42.2-7.1c11-2,20.3-0.4,29.9,6.7c41.2,30.6,82.9,60.3,124.4,90.4c2.1,1.5,4.3,2.8,7.4,4.9
		c0.4-3.1,0.8-5.2,0.9-7.4c0.7-14.6,1.2-29.2,2.1-43.8c1-16,11.5-23.7,27.2-20.1c108.2,25.1,216.4,49.8,324.4,75.6
		c12.9,3.1,20.9,1.3,28.6-9.2c7.6-10.4,16.9-19.7,25.3-29.6c8.2-9.7,17.7-13.2,30.9-11.1c31.8,5.1,63.8,8.6,95.8,12.9
		c38.2,5.1,76.3,10.3,114.5,15.4c16.1,2.2,32.3,4.1,48.4,6.3c8.8,1.2,15.9,4.8,22.3,11.5c29.3,31,59.2,61.4,88.8,92
		c4.8,5,9.4,10.3,14.9,16.3c3.3-8.4,1-15.9,0.7-23.1c-0.6-14.9-2.4-29.8-3.6-44.6c-1.3-16.9-2.2-33.8-3.6-50.7
		c-1.1-14.1,5-23.9,19.7-26.1c23-3.4,45.9-7.3,68.9-10.9c41.3-6.5,82.7-12.9,124-19.4c36.1-5.6,72.2-11.1,108.3-16.7
		c24-3.7,47.9-7.4,71.8-11.4c10.6-1.8,19.9-0.7,29.2,5.9c38.3,27.2,77,53.7,115.6,80.5c4.3,3,8.8,5.8,13.8,9.1
		c2.4-7.2,4.5-13.4,6.6-19.7c3.9-11.8,11.7-16.7,24.3-15.1c55.3,7.3,110.6,14.6,165.9,21.9c37.5,4.9,75.1,9.8,112.6,14.8
		c12.8,1.7,25.6,3.5,38.5,5.2c2.6,0.3,5.2,0.3,8.3,0.4c0-6-0.1-11.6,0-17.2c0.2-15.5,5.5-22,20.6-24.5c37-6.2,74.1-12.3,111.1-18.4
		c45.9-7.6,91.8-15.1,137.7-22.7c42.3-7,84.6-13.9,126.8-21c9.8-1.7,18,0.7,26.1,6.7c20.2,15.2,40.9,29.8,61.3,44.7
		c1.3,1,2.8,1.7,5.1,3.1c7.8-12.4,20.9-11.5,32.9-12.2c17.3-0.9,34.6-0.5,51.9-0.9c24.9-0.6,49.9-1.3,74.8-2
		c18.9-0.6,37.9-1.4,56.8-1.9c26.6-0.8,53.2-1.3,79.8-2.1c18.9-0.5,37.9-1.2,56.8-2c30.9-1.2,61.8-2.6,92.6-3.8
		c20.9-0.8,41.9-1.4,62.8-2.2c26.2-1,52.4-2.2,78.7-3.3c10-0.4,20-0.4,30-0.7c9.3-0.3,18.6-1.2,27.9-1.1c6.2,0.1,12.9,0.4,18.5,2.8
		c9,3.8,12.9,12.1,13.7,21.6c0.3,2.9,0.3,5.9,0.6,10.1c8.8-2.8,17-5.2,25-7.9c44.8-15.1,89.5-30.2,134.3-45.4
		c15.8-5.3,31.5-10.8,47.3-16c4.1-1.3,8.3-2.7,12.6-2.8c8.7-0.2,15.8,5.5,19,14.9c6.5,18.9,12.7,37.8,19.1,56.7
		c0.6,1.8,1.4,3.5,2.8,7.2c4-6,7.1-10.5,10.1-15.1c6-9.2,12.1-18.3,17.8-27.7c6.7-11,19.1-14.2,31.2-7.2c17,9.8,34,19.7,50.9,29.6
		c86.6,50.3,173.2,100.6,259.8,151c3.7,2.2,7.2,4.9,11,6.9c6,3.2,6,9.8,8.9,14.8c0,2,0,4,0,6c-2.1,4-3.6,8.6-6.6,11.8
		c-25.1,27.1-50.4,54-75.6,80.9c-17.8,18.9-35.7,37.7-53.5,56.6c-24.8,26.4-49.6,52.9-74.4,79.4c-11.6,12.4-23.2,24.7-35,37
		c-3.9,4.1-5.7,8.6-5.3,14.3c1.1,18.2,1.8,36.5,2.9,54.8c1.6,25.2,3.5,50.3,5.2,75.5c1.1,16.9,1.5,33.9,3,50.7
		c1.7,18.6-8.8,27.6-23.4,26.8c-14.6-0.8-29.2-1-43.8-1.4c-22.9-0.7-45.9-1.3-68.8-2c-23.9-0.7-47.9-1.3-71.8-2
		c-22.6-0.6-45.2-1.4-67.8-2c-25.9-0.7-51.9-1.3-77.8-2c-21.3-0.6-42.6-1.5-63.8-1.9c-16.2-0.3-23.5-14.1-20.2-27.5
		c6.1-24.9,11.9-49.8,17.9-74.7c9.7-40.4,19.4-80.8,29.3-121.2c1.2-5,0.8-8.9-2.2-13c-4.4-5.9-8.3-12.1-12.4-18.1
		c-11.7-17.4-23.5-34.8-35.2-52.2c-2.1-3.1-3.9-5.9-8.6-5.3c-22.3,3-44.7,5.8-67.1,8.7c-5.8,0.7-11.6,1.3-18.3,2
		c2.9,15.2,5.5,29.2,8.2,43.2c15.2,76.9,30.4,153.9,45.6,230.8c2.2,11.1-3.2,20.8-13.8,24.4c-3.7,1.3-7.8,1.9-11.7,2.1
		c-19.6,1-39.2,1.7-58.8,2.8c-29.5,1.6-59,3.5-88.5,5.2c-16.3,0.9-32.5,1.6-48.8,2.5c-22.6,1.2-45.1,2.3-67.6,3.6
		c-20.2,1.2-40.4,2.7-60.6,3.8c-17.6,1-35.2,2-52.8,2.3c-13.8,0.3-23.4-8.3-23.5-21.8c-0.2-22.6,0.7-45.2,1.1-67.8
		c0.1-4.8,0-9.6,0-15.4c-2.9,1-4.5,1.4-5.9,2.1c-39.6,18.3-79.1,36.5-118.7,54.8c-40.7,18.9-81.5,37.8-122.2,56.7
		c-15,7-29.9,14.3-44.9,21.5c-5.3,0-10.7,0-16,0c-4.3-4.5-9.1-8.7-12.8-13.6c-6.7-9.1-12.9-18.6-19.1-28.1c-2.8-4.3-6-6.6-11.4-6
		c-7.6,0.8-15.2,1.1-22.8,1.4c-20.9,0.7-41.9,1.4-62.8,2c-20.6,0.7-41.2,1.3-61.8,2s-41.2,1.4-61.8,2c-26.3,0.7-52.5,1.2-78.8,2.1
		c-15.3,0.5-30.5,1.4-45.8,2.2c-22.2,1.2-44.4,2.5-66.6,3.7c-18.5,1-37.1,2.1-55.3,3.1c-0.6,0.9-1.1,1.4-1.3,2
		c-6.4,16.6-12.8,20-30.6,15.6c-38.1-9.2-76.3-18.5-114.4-27.9c-67.8-16.6-135.6-33.4-203.4-50c-4.1-1-8.3-1.6-13.4-2.5
		c0,4.7,0.1,8.7,0,12.6c-0.6,16.3-7.2,23.5-23.5,25.2c-13.2,1.3-26.4,2.7-39.6,3.7c-36.1,2.9-72.2,5.6-108.2,8.4
		c-32.8,2.6-65.5,5.2-98.3,7.9c-22.5,1.8-44.9,4.2-67.5,5.5c-14.4,0.8-22.7-4.9-24.7-18.8c-0.6-4.6-1.2-9.2-1.5-13.8
		c-1.6-21.5-3.1-43.1-4.8-64.6c-0.4-5.1-1.4-10.1-2-14.5c-5.9,3.4-11,6.9-16.6,9.5c-26.9,12.4-53.9,24.6-80.8,36.9
		c-57.8,26.4-115.6,52.8-173.4,79.3c-10.2,4.7-19.9,5.1-30.7,1.2c-64.9-23.9-130-47.4-195-71c-12.7-4.6-25.4-9.1-38.6-13.8
		c-1.6,7.9-2.8,14.7-4.3,21.5c-2.6,12.3-8.5,17.5-21.2,18.5c-11.3,0.8-22.5,1.4-33.8,1.9c-18.3,0.8-36.5,1.4-54.8,2
		c-24.3,0.8-48.5,1.3-72.8,2c-20.9,0.6-41.9,1.3-62.8,2.1c-11.9,0.5-23.9,1.4-35.8,1.8c-12.6,0.4-25.3,0.8-38,0.6
		c-12.8-0.2-19.4-6.3-21.9-18.9c-0.6-3.2-0.8-6.5-1.3-10.2c-2.6,0.9-4.9,1.4-7,2.4c-34.1,15.8-68.2,31.7-102.3,47.5
		c-13,6-25.9,12.2-39.2,17.5c-11.3,4.5-19,1.8-26.2-7.8c-4.8-6.4-9-13.2-13.6-19.7c-4.3-6.2-8.7-12.4-13.4-19.1
		c-9.9,0.6-19.5,1.4-29.1,1.8c-21.9,0.8-43.9,1.4-65.8,2.1c-19.6,0.6-39.2,1.3-58.8,2c-21.3,0.7-42.5,1.4-63.8,2
		c-27.6,0.7-55.2,1.2-82.7,2.1c-15.3,0.5-30.5,1.4-45.8,2.2c-22.2,1.2-44.4,2.4-66.7,3.7c-15.9,0.9-31.8,1.9-47.4,2.9
		c-6.2,18.2-13.4,22.1-31.9,17.5c-33.3-8.1-66.6-16.2-99.8-24.4c-15.7-3.8-31.5-7.7-47.3-11.6c-5.6,10.6-13.9,14.1-25,14.4
		c-20.2,0.5-40.5,2.2-60.7,3.1c-32.9,1.5-65.8,2.7-98.6,4c-32.9,1.3-65.8,2.7-98.6,4c-33.9,1.3-67.8,2.7-101.7,4
		c-17.3,0.6-26.1-7.7-26.5-24.9c-0.3-10.3-0.1-20.7-0.1-31c0-10.9,0-21.9,0-32.4c-5-2.4-9.1-4.3-14-6.6c-3.2,10.1-6.3,19.9-9.5,29.6
		c-6.4,20-12.6,40-19.2,59.9c-3.4,10.3-11.5,16.5-20.7,15.4c-5.2-0.6-10.3-2.6-15.1-4.9c-39.8-18.6-79.5-37.4-119.3-56
		c-66.3-31.1-132.6-62.1-198.9-93.1c-6.5-3.1-11.8-7.3-14.1-14.6c-0.6-1.8-2-3.3-3.1-4.9C-1920,607.7-1920,606.3-1920,605z
		 M-1110.5,123.3c-6.8,22.2-13.3,43.4-19.9,64.7c-6.6,21.6-13.1,43.3-20,64.7c-6.7,20.8-12.2,42-20.6,62.3
		c-9.1-57.2-16.1-114.4-24.7-171.5c-17.6-3-34-5.7-50.3-8.5c-42.9-7.2-85.8-14.3-128.8-21.4c-17.7-2.9-35.4-5.9-53.1-8.6
		c-2.8-0.4-7.2-0.9-8.3,0.6c-3.7,5.1-8.3,3.4-12.7,2.8c-20.7-2.9-41.4-6-62.1-9c-47-6.7-94-13.3-141.1-19.8
		c-9.1-1.3-18.3-2.1-27.8-3.1c-73.2,177.6-146.1,354.3-219.2,531.6c110.9,52,220.7,103.4,331.2,155.2c14.2-44.8,27.9-88,42.1-133
		c7.6,12,14.2,22.3,21.2,33.3c5.9-5.5,11.3-10.5,18.3-17c0,11.1,0,19.6,0,28.2c0,8.7,0,17.3,0,26s-0.2,17.3,0,26
		c0.2,8.5-0.9,17,0.8,25.6c21-1.1,40.9-2.2,60.8-3c32.9-1.4,65.8-2.7,98.6-4s65.8-2.8,98.6-4c28.9-1,57.9-1.7,86.8-2.8
		c8.6-0.3,17.1-1.3,26.2-2c-0.5-6.3-1-12-1.6-18.8c60.2,14.7,119.4,29.2,178,43.5c1.1-1.4,1.4-1.6,1.5-1.9c0.7-3.2,1.5-6.5,2.1-9.7
		c1.5-7.5,1.9-8,9.6-8.3c9-0.3,18-0.2,27-0.8c26.8-1.6,53.7-3.5,80.5-5.2c15.9-1,31.9-1.6,47.8-2.5c19.9-1.1,39.8-2.6,59.7-3.5
		c20.3-0.9,40.5-1.5,60.8-2c26.6-0.7,53.2-1.3,79.8-2.1c23.9-0.7,47.9-1.7,71.8-2.5c15.6-0.5,31.2-0.9,46.8-1.5
		c4.2-0.2,6.7,1.3,9,4.8c6.7,10.3,13.7,20.5,20.7,30.6c3.2,4.6,6.4,9.2,9.9,14c30.2-14,59.7-27.9,89.4-41.5
		c29.4-13.5,58.6-27.7,88.5-40.7c0,14.7,0,28.1,0,42.6c12.5-0.6,24.4-1.3,36.3-1.7c24.6-0.8,49.2-1.4,73.8-2.1c9-0.2,18-0.3,27-0.7
		c23.2-1,46.4-2.4,69.7-3.2c24.6-0.9,49.2-1.4,73.8-2.1c6.6-0.2,13.3-0.7,20.7-1.1c2.8-15.2,5.6-30.4,8.5-45.9
		c2.7,0.7,4.3,1,5.8,1.6c19.1,6.9,38.2,13.8,57.2,20.7c64.3,23.4,128.7,46.7,193,70.3c5.1,1.9,9.5,1.7,14.3-0.5
		c15.1-7,30.2-13.9,45.4-20.8c59.3-27,118.7-54,178-81c13-5.9,25.9-12.1,38.9-18.1c7.3-60.3,14.6-120.3,21.9-180.2
		c0-0.1,0.5-0.2,0.8-0.3c0.3,0,0.7,0,1.2,0c7.3,94.6,14.5,189.1,21.9,284.7c4.7-0.5,8.9-1,13.1-1.3c32.8-2.7,65.5-5.4,98.3-8
		c27.8-2.2,55.6-4.3,83.4-6.4c35.8-2.8,71.5-5.5,107.2-8.4c6.8-0.5,13.5-1.7,21.1-2.7c0-38.2,0-75.4,0-113.3
		c13.2,0.9,25.3,1.8,38.8,2.8c-7.5,24.6-14.6,48.3-22,72.6c115.5,28.4,229.7,56.4,344.7,84.7c1.3-6.5,2.4-12.6,3.7-19.1
		c4.7-0.3,9-0.7,13.3-0.9c14.3-0.7,28.6-1.2,42.8-2.1c26.8-1.6,53.7-3.6,80.5-5.2c15.6-1,31.2-1.6,46.8-2.4
		c20.6-1.1,41.1-2.5,61.7-3.6c17.3-0.9,34.5-1.5,51.8-2c24.3-0.8,48.5-1.4,72.8-2c24.9-0.7,49.9-1.3,74.8-2.1
		c12.9-0.4,25.9-1.1,38.8-2c5.2-0.4,8.9,1.1,11.5,5.8s5.8,9,8.8,13.4c6.9,10.1,13.8,20.2,21,30.7c106.4-49.5,212.2-98.6,318.5-148
		c0,20.4-0.3,39.5,0.1,58.6c0.4,19.5-2.1,39,0,58.9c5.6,0,10.3,0.2,14.9,0c16.2-1,32.4-2.3,48.7-3.2c25.9-1.5,51.8-2.7,77.6-4
		c24.6-1.3,49.1-2.7,73.7-4c26.5-1.4,53.1-2.8,79.6-4c22.3-1,44.5-1.7,66.8-2.8c7.9-0.4,15.7-1.4,24.3-2.1
		c-9.5-49.9-18.9-99.2-28.4-148.4c-9.4-49.2-18.8-98.3-28.4-148.5c42.1-5.1,82.9-10.1,123.5-15.1c19.2,28.3,37.3,56.2,56.7,83.2
		c7.6,10.5,8.5,19.9,5.4,32.2c-15,59.7-29,119.5-43.4,179.4c-1.4,5.6-2.5,11.3-3.8,17.3c11,0.7,20.9,1.7,30.9,2
		c24.6,0.8,49.2,1.4,73.8,2.1c22.9,0.6,45.9,1.4,68.8,1.9c31.6,0.8,63.2,1.4,94.8,2.1c25.9,0.6,51.9,1.3,77.8,2.1
		c14.6,0.5,29.2,1.3,43.8,1.9c3.2,0.1,6.4-0.2,10-0.4c-0.4-6.4-0.9-11.6-1.2-16.9c-0.9-16.6-1.7-33.2-2.8-49.8
		c-1.6-23.8-3.5-47.7-5.2-71.5c-1.4-19.5-2.5-39.1-4-58.6c-0.3-4.4,1.2-7.5,4.2-10.6c15.1-15.9,30.1-32,45.1-48
		c37.4-39.7,74.8-79.5,112.3-119.2c24.4-25.9,49-51.7,73.5-77.6c5.7-6,11.1-12.2,16.6-18.3c-8-7.2-317.4-186.8-324.6-188.5
		c-16.6,25.8-33.4,51.8-51.1,79.3C2904.3,124.5,2892.8,90,2881,55c-79.2,26.8-157.2,53.3-236.3,80c-1.3-14-2.5-26.6-3.7-40
		c-9.2,0.6-17.1,1.4-25,1.7c-22.3,0.8-44.5,1.4-66.8,2c-24.6,0.7-49.2,1.3-73.8,2c-21.6,0.6-43.2,1.3-64.8,2
		c-23.9,0.7-47.9,1.3-71.8,2c-22.3,0.6-44.5,1.3-66.8,2c-23.6,0.7-47.2,1.3-70.8,2c-22.3,0.6-44.5,1.3-66.8,2
		c-23.9,0.7-47.9,1.4-71.8,2c-17.3,0.4-34.6,0.5-52,0.7c-2.2,0-4.5,0.4-7.4,0.6c0,9.8,0,19.1,0,29.4c-3.5-2.3-6.5-4.2-9.4-6.3
		c-29.4-21.3-58.7-42.6-88-64c-3.4-2.5-6.4-3.5-10.9-2.7c-17,3.2-34.1,5.6-51.1,8.4c-50.8,8.3-101.6,16.6-152.4,25
		c-42.9,7.1-85.9,14.2-128.8,21.4c-15.3,2.6-30.7,5.2-46.9,7.9c0.8,15.4,1.6,30.2,2.4,45.8c-117.8-15.7-234.5-31.2-351.9-46.8
		c-5.1,16-9.9,31.1-14.9,46.9c-2.3-1.4-3.9-2.4-5.5-3.5c-49-34-97.9-68-146.8-102c-3.7-2.6-7.1-3.7-11.9-2.9
		c-53.8,8.5-107.7,16.6-161.5,25c-63.3,9.8-126.7,19.8-190,29.8c-9.1,1.4-18.1,3.1-27.9,4.7c3.8,59.6,9.5,118.2,13.2,179.2
		c-3.1-2.6-4.4-3.5-5.5-4.6c-19.9-20.6-39.9-41.1-59.7-61.8c-8.5-8.9-16.8-18-25.3-26.9c-18.2-19-36.3-38.1-54.7-56.8
		c-2.3-2.4-6.1-3.9-9.5-4.4c-10.1-1.8-20.4-2.9-30.6-4.2c-37.5-5.1-75-10.1-112.5-15.2c-29-3.9-57.9-7.8-86.9-11.7
		c-12.5-1.7-25-3.1-37.3-4.6c-16.6,18.8-32.8,37.3-49.3,56C30.7,147.5-87.6,120-207,92.3c-1.3,30.9-2.5,60.2-3.8,91.3
		c-10.8-7.8-20.1-14.5-29.4-21.3c-43.9-31.9-87.8-63.8-131.5-95.9c-4.9-3.6-9.4-4.8-15.5-3.8c-38.3,6.5-76.7,12.6-115.1,19
		c-75,12.4-150.1,24.9-225.1,37.3c-12,2-24,4.1-36.4,6.3c0.8,15.1,1.6,29.2,2.4,44.5C-878.4,154.1-993.8,138.8-1110.5,123.3z"/>
	<path class="st0" d="M2242.8,692.5c0.6-92.7,1.2-184.5,1.7-277.9c-56.5,10.4-111.9,20.6-168.4,31c-2.7-41-5.3-81.2-8-121.5
		c-0.5-0.1-1.1-0.1-1.6-0.2c-2.8,12.7-5.7,25.4-8.5,38.1c-6,26.9-12.1,53.9-17.8,80.9c-1,4.6-3,7.7-6.8,10.4
		c-10.1,7-20.1,14.2-30.1,21.4c-2.6,1.9-5.1,4-8.7,6.8c47,38.3,93.3,76.1,140.9,114.9c-83.6,38.8-165.9,77.1-249.5,115.9
		c-20.2-29-39.5-58.4-60.7-89.1c-2.7,18.8-1.2,35.8-2,53.4c-3.4,0.7-6.5,1.7-9.7,1.9c-9.6,0.4-19.3,0.4-29,0.8
		c-26.6,1-53.1,2.2-79.7,3.3c-8.6,0.3-17.3,0.4-26,0.7c-23.3,0.7-46.6,1.2-69.8,2.1c-22.6,0.9-45.1,2.2-67.7,3.2
		c-8.6,0.4-17.3,0.5-26,0.7c-23.3,0.7-46.6,1.2-69.8,2.1c-22.6,0.9-45.1,2.3-67.7,3.5c-2.2,0.1-4.5,0-7.3,0
		c-5.9-31.8-11.7-63.1-17.6-94.9c-14.2,0-28,0-43.4,0c-5.3,34-10.7,68.2-16.3,103.9c-77-18.9-153-37.6-230.2-56.6
		c16.6-53.9,32.8-106.8,49.1-159.6c-0.5-0.4-1-0.9-1.5-1.3c-3.8,2.9-7.6,5.7-11.4,8.7c-25,19.5-50.3,39.1-75.3,58.9
		c-5,4-10.1,5.8-16.5,5.3c-18.5-1.4-37.1-2.8-55.7-3.8c-9.3-0.5-18.6-0.1-29.4-0.1c-0.5,12.9-0.1,26.1-0.2,39.2
		c-0.1,13.3,0,26.7,0,40s0,26.6,0,40c-2.6,0.8-4.5,1.7-6.4,1.9c-22.2,1.7-44.4,3-66.6,4.9c-35.7,2.9-71.4,6.2-107.2,9.2
		c-12.2,1-24.4,1.6-37.3,2.5c-1.1-13.8-2.2-26.9-3.2-40.1c-2.4-30.1-4.9-60.2-7.3-90.3c-1.7-21.9-3.1-43.7-4.8-65.6
		c-2.3-30.1-4.9-60.2-7.2-90.3c-1-13.2-1.7-26.5-2.8-39.8c-2.4-30.1-4.9-60.2-7.2-90.3c-1.7-22.5-3.2-45.1-4.8-67.6
		c-0.5-6.9-1.2-13.9-1.7-20.8c-0.2-3.2,0-6.5,0-10.3c14.8-2.3,28.9-4.5,43-6.7c49.9-7.8,99.9-15.6,149.8-23.3
		c38.4-6,76.9-11.8,115.3-17.9c4.6-0.7,7.6,1,10.9,3.3c29,20.2,58,40.3,87,60.5c34.5,24,68.9,47.9,103.4,71.9
		c1.1,0.8,2.2,1.4,4.6,2.9c7.9-25.4,15.6-50.2,23.7-76c90.8,12.2,181.2,24.3,271.8,36.5c41.6,131.4,83,262,124.3,392.6
		c0.7-0.1,1.4-0.2,2.1-0.3c-0.5-5.5-1-11.1-1.4-16.6c-2-28.8-4.1-57.6-5.9-86.5c-1.1-16.6-1.7-33.2-2.8-49.8
		c-1.6-22.8-3.6-45.7-5.1-68.5c-1.1-15.9-1.7-31.9-2.8-47.8c-1.6-23.5-3.5-47-5.1-70.5c-1.1-15.6-1.8-31.2-2.8-46.8
		c-0.9-13.9-2.2-27.8-3.2-41.7c-0.3-3.6,0-7.2,0-11.7c11.9-2.1,23.3-4.2,34.7-6c68.6-11.3,137.1-22.6,205.7-33.8
		c22-3.6,44-6.9,65.9-10.8c5.5-1,9.4,0.4,13.7,3.5c52.7,38.5,105.6,76.8,158.4,115.2c3.7,2.7,7.4,5.3,13.2,9.4
		c-1.9-30.9-3.7-59.4-5.5-89.1c10.1-0.4,19.7-0.7,29.2-1.1c33.9-1.2,67.9-2.4,101.8-3.5c26-0.9,51.9-1.6,77.9-2.5
		c31.3-1.1,62.5-2.5,93.8-3.6c24.3-0.9,48.6-1.5,72.9-2.4c31.3-1.1,62.5-2.4,93.8-3.6c19.6-0.7,39.1-1.4,59.7-2.1
		c1.7,20.4,3.3,40.1,5,61.2c84.8-28.7,168.6-57,253.6-85.8c17.9,53.9,35.6,107.3,54,162.7c29.3-45.6,57.3-89.3,85.8-133.7
		c73.3,42.7,145.9,85.1,219.5,128c-8.3,8.9-15.7,16.9-23.2,24.9c-25,26.7-50.1,53.5-75.2,80.2c-28.5,30.3-57.2,60.5-85.8,90.8
		c-11.2,11.9-22.5,23.6-33.5,35.7c-2,2.2-3.4,5.8-3.3,8.7c0.6,14.9,1.8,29.8,2.8,44.7c1,16.2,2,32.5,3,48.8
		c1.2,19.9,2.5,39.8,3.7,59.7c0.2,2.9,0,5.8,0,8.8c-23.3-0.4-45.8-0.6-68.3-1.1c-23.3-0.5-46.6-1.3-69.8-1.9
		c-23.6-0.7-47.2-1.3-70.8-2c-19.3-0.6-38.5-1.3-57.8-2c-1.3,0-2.6-0.4-4.7-0.8c2-9,3.9-17.7,6-26.3c11-45.6,22-91.2,33.1-136.7
		c1.3-5.3,1.7-9.8-1.8-14.9c-53.3-78.6-106.3-157.3-159.4-236c-0.7-1.1-1.6-2.1-3.3-3c-0.7,16.9,1.5,33.7,2.6,50.5
		c1.1,17.2,2.5,34.4,3.9,52.9c-51,7.3-102,13.1-154.1,20.4c19.4,97.5,38.6,194.2,58.1,292.3c-11.4,0.8-22.4,1.7-33.5,2.4
		c-21.5,1.3-43.1,2.5-64.7,3.7c-26.5,1.5-53.1,2.7-79.6,4.3c-25.8,1.6-51.7,3.5-77.5,5.2C2249.4,692.7,2246.5,692.5,2242.8,692.5z
		 M1942,478.7c4.6-3.4,7.8-5.8,11.1-8.1c16.8-12,33.5-24.1,50.5-36c4.9-3.4,7.7-7.3,9.1-13.4c9.3-43.6,19-87.1,28.9-130.5
		c1.4-6.2,0-9.7-5.1-13.4c-50.5-36.5-100.9-73.1-151.1-109.9c-4.7-3.4-8.9-4.1-14.7-3.1c-74.7,12.5-149.5,24.7-224.2,37
		c-12.7,2.1-25.3,4.4-38.3,6.6c0,2.8-0.1,4.8,0,6.7c1.2,18.9,2.5,37.8,3.7,56.7c0.9,14.6,1.7,29.2,2.7,43.8
		c1.7,24.5,3.5,49,5.2,73.5c1,15.3,1.8,30.5,2.9,45.8c1.6,23.5,3.5,47,5.1,70.5c1.1,15.9,1.7,31.9,2.8,47.8
		c1.6,24.2,3.2,48.4,5.3,72.5c0.7,8.4-1.3,17.3,3.3,25c51.1-1.7,101.8-3.3,152.6-4.9c0.7-16.4,1.6-31.6,1.9-46.8
		c0.5-23.6,0.5-47.3,0.8-71c0-2.1,0.2-4.3,0.3-6.4c0.6-0.2,1.3-0.4,1.9-0.6c33.7,49.7,67.5,99.4,101.7,149.8
		c59.1-27.4,117.5-54.6,177.6-82.5C2030.8,551.1,1986.8,515.3,1942,478.7z M1143.9,282.6c-1.4-1.5-1.8-2.1-2.3-2.4
		c-54.9-38.2-109.9-76.4-164.7-114.8c-3.7-2.6-7.3-2.7-11.3-2.1c-8.9,1.4-17.7,2.7-26.6,4.1c-72.5,11.3-145,22.6-217.5,34
		c-6.5,1-12.9,2.3-19,3.4c0,8.3-0.5,15.6,0.1,22.8c2.2,29.8,4.8,59.5,7.1,89.3c1.1,13.6,1.7,27.2,2.8,40.8
		c2.3,30.1,4.9,60.2,7.2,90.3c1.7,21.8,3.1,43.7,4.8,65.6c2.3,29.4,4.8,58.9,7.2,88.3c1.5,18.1,2.8,36.2,4.3,55.3
		c51.8-4.2,102.6-8.3,154.6-12.5c0-42.4,0-83.8,0-126.1c20.2,1,39.1,1.9,57.9,3c17.9,1.1,35.7,2.5,53.6,3.8
		c4.3,0.3,7.5-1.5,10.8-4.1c30.1-23.6,60.3-47.1,90.6-70.6c3.7-2.9,6.2-6.1,7.2-11.2c6.2-30.6,12.8-61.1,19.3-91.7
		C1134.6,326.1,1139.2,304.4,1143.9,282.6z M1227.3,227.6c-40.6,131.7-81.1,263.1-121.9,395.2c54.8,13.5,108.2,26.6,162.4,40
		c5.1-32.9,10.1-64.9,15.1-96.8c33.3,0,65.5,0,98.2,0c5.9,31.6,11.7,62.8,17.6,94.2c59.5-3.3,117.8-6.6,176.9-9.9
		c-1.1-4.1-1.9-7.2-2.9-10.3c-20.2-63.7-40.4-127.5-60.6-191.2c-19.4-61.2-38.8-122.4-58-183.7c-1.7-5.5-4.1-7.9-10.1-8.6
		c-28.3-3.4-56.6-7.5-84.9-11.4c-28-3.8-55.9-7.6-83.9-11.3C1259.5,231.6,1243.8,229.7,1227.3,227.6z M2411.7,355.8
		c53.1-6.9,105.3-13.7,158.3-20.7c-1.3-14.5-2.6-27.6-3.6-40.8c-2.4-32.8-4.5-65.6-6.8-98.4c-0.3-4.1-1.3-8.2-2.1-12.6
		c-3,0-5-0.1-6.9,0c-26.2,1.1-52.4,2.3-78.7,3.3c-20.9,0.8-41.9,1.3-62.8,2.1c-30.9,1.2-61.8,2.7-92.6,3.9
		c-23.9,0.9-47.9,1.4-71.8,2.1c-9,0.3-18,0.3-27,0.7c-25.9,1-51.8,2.2-77.7,3.2c-10.3,0.4-20.6,0.3-31,0.8c-4.8,0.2-9.6,1.4-15,2.2
		c0.6,8.1,1.1,15.4,1.5,22.6c1,17.3,1.7,34.5,2.8,51.8c1.6,24.5,3.5,49,5.1,73.5c1.1,17.6,2,35.2,3,52.7c0.1,0.9,0.9,1.7,1.9,3.6
		c56.1-10.3,112.4-20.7,169.1-31.1c0,47.7-0.4,94.3,0.1,140.9c0.5,46.8-3.1,93.6-0.9,141.5c8.1-0.6,15.3-1.3,22.6-1.7
		c22.9-1.4,45.7-2.8,68.6-4c31.2-1.7,62.4-3.1,93.6-4.8c2.4-0.1,4.8-1,7.6-1.6C2450,548.2,2431,452.4,2411.7,355.8z M2622.3,235.8
		c9.2,13.6,17.6,26,25.9,38.4c48.8,72.4,97.5,144.7,146.4,217c3.2,4.7,4.7,8.8,3.2,14.6c-9.3,37.1-18.1,74.3-27.1,111.5
		c-2.2,8.9-4.1,17.9-6.5,28.4c17.1,1.8,33.4,0.6,49.5,1.5c16.3,0.9,32.6,0.9,48.8,1.4c16.3,0.5,32.5,1.4,48.8,1.7
		c16.1,0.3,32.3,0.1,49.4,0.1c-0.8-10.4-1.8-19.9-2.4-29.5c-2.3-35.8-4.4-71.6-6.7-107.4c-0.3-4.9,0.8-8.7,4.5-12.5
		c20.5-21.4,40.6-43.1,60.9-64.7c43.4-46.1,86.7-92.1,130.1-138.2c2.4-2.5,4.5-5.4,7.1-8.6c-52.9-30.8-104.9-61-157.1-91.5
		c-35.6,54.9-69.7,109.1-105.7,164.3c-22.8-66.4-42.9-131.3-65.4-195.8C2757.8,189.9,2690.7,212.6,2622.3,235.8z"/>
	<path class="st0" d="M80.7,337.3c14-15.9,28.1-31.8,42.1-47.8c31.4-35.8,62.7-71.6,94-107.5c2.6-3,5-4.3,9.3-3.7
		c39.2,5.5,78.4,10.7,117.6,15.9c31.3,4.2,62.6,8.4,93.9,12.4c5.2,0.7,9.2,2.4,12.9,6.3c33.3,35,66.7,69.9,100,104.8
		c10.8,11.3,21.5,22.7,32.7,33.8c3.9,3.9,5.4,7.8,4.7,13.3c-3.7,30.3-7.2,60.7-10.8,91c-3.1,26-6.4,52.1-9.4,78.1
		c-2.8,23.7-5.6,47.5-8.1,71.3c-0.6,5.3-3.9,7.3-8,9.2c-20,9.1-40,18.1-60,27.3c-47.2,21.5-94.6,42.9-141.7,64.8
		c-8.4,3.9-15.6,4.7-24.5,1.3c-71.4-26.5-143-52.5-214.7-78.3c-6.4-2.3-8.8-5.7-10-11.8C94,581.8,87.1,545.9,80.2,510
		c-4.9-25.5-9.7-51-14.6-76.4c-0.2-1.1-1-2.1-2.5-5.3c-14,81.6-27.7,160.9-41.4,240.9c-66.1,2.3-131.4,4.6-197.6,7
		c-1.7-24.1,2.2-47.9,1.7-73.4c-73.4,33.5-145.6,67.8-219.1,101.4c-19.9-29.2-39.4-58-60.4-88.8c-4.1,18.7-0.6,35.6-2.7,53.2
		c-3.1,0.6-6.5,1.8-9.9,1.9c-30.3,1-60.5,1.7-90.8,2.8c-29.2,1.1-58.4,2.6-87.6,3.8c-18.9,0.8-37.9,1.3-56.8,2.1
		c-25.2,1-50.5,2.2-75.7,3.3c-8.3,0.3-16.6,0.4-25,0.7c-22.3,0.7-44.6,1.3-66.8,2.1c-10,0.4-19.9,1.1-29.8,1.7c-1.9,0.1-3.9,0-6.5,0
		c-5.9-31.9-11.7-63.1-17.7-95c-14,0-27.8,0-43.1,0c-6.5,33.6-10.3,68.1-16.8,103.7c-66.9-16.4-133.2-32.7-200.5-49.2
		c1.8,13.9,3.3,26.3,5,39.2c-3.6,0.6-6.5,1.3-9.4,1.5c-17.9,0.8-35.9,1.3-53.8,2.1c-23.6,1-47.1,2.2-70.7,3.2c-8,0.3-16,0.4-24,0.7
		c-21.3,0.7-42.6,1.3-63.8,2.1c-10.2,0.4-20.5,1.1-32.2,1.8c-0.1-15.6-0.2-30.1-0.2-44.6c0-14.7,0-29.3,0-44s0-29.3,0-44
		c0-14.6,0-29.3,0-46.2c-12.5,9.8-21.7,20.5-31.8,30.1c-10.1,9.6-20.2,19.3-31.1,29.7c-15.9-25.5-31.5-50.5-48.2-77.4
		c-20,63.6-39.4,125-59.2,187.8c-75.5-35.4-150.3-70.5-226.4-106.3c61-148.5,121.9-296.4,183.1-445c56.5,8,112.6,15.9,169.9,24
		c7.3,22.5,14.6,45.1,22.6,69.6c14.9-22.8,28.8-44,43.3-66.2c54.3,9.1,108.9,18.3,164.4,27.6c17.4,126.3,34.6,252.2,51.9,378.1
		c0.7,0.1,1.4,0.2,2.1,0.3c39.6-128.3,79.1-256.5,118.6-384.7c7.1-1.3,254.9,30.8,272.7,35.4c39.9,125.9,79.9,252.3,120,378.8
		c0.7-0.1,1.4-0.2,2.1-0.3c-0.4-7.5-0.8-15-1.2-22.5c-1.5-23.9-3.1-47.7-4.6-71.6c-2-29.8-4-59.6-6-89.5c-2-29.5-4-59-6-88.5
		c-2-29.8-3.9-59.6-6-89.5c-1.5-21.5-3.2-43-4.8-65.3c12-2.1,23.4-4.1,34.8-6c72.5-11.9,145-23.9,217.6-35.8
		c18.4-3,36.8-5.7,55.1-8.9c4.6-0.8,8.1,0,11.9,2.8c60,43.8,120.1,87.5,180.3,131c5.2,3.7,6.5,7.4,5.1,13.3
		c-6.3,27.6-12.3,55.2-18.4,82.8c-5.8,26.3-11.8,52.6-17.3,78.9c-1.5,7-4.4,11.9-10.5,16c-11.9,7.9-23.3,16.5-36.2,25.8
		c37.1,30.5,73.7,60.4,111.6,90.9c0.7-3.5,1.3-5.3,1.4-7.1c0.8-19.6,1.3-39.2,2.2-58.8c1.1-25.9,2.5-51.8,3.6-77.7
		c0.9-19.9,1.4-39.9,2.4-59.8c0.9-19.9,2.2-39.8,3.2-59.7c0.4-7.6,0.5-15.3,0.7-23c0.7-19.9,1.3-39.9,2.1-59.8
		c0.6-16.3,1.3-32.6,2-48.8c0.1-1.9,0.8-3.7,1.4-6.9c84.2,19.6,167.9,39.1,252.6,58.9c-6.6,38.9-13.1,77.1-19.6,115.2
		C79.5,336.8,80.1,337,80.7,337.3z M-1786.1,565.1c55.5,26,109.8,51.5,165,77.4c23.2-73.5,45.9-145.7,69.3-219.9
		c22,35.4,42.8,68.9,64.2,103.4c29.6-28.6,58.3-56.5,87.1-84.3c0.7,0.4,1.4,0.7,2.2,1.1c0.1,72.7,0,145.3,0,217.9
		c16.4,0,31.4,0.4,46.3-0.1c20.2-0.7,40.4-2.3,60.7-3.1c21.3-0.9,42.5-1.4,63.8-2.1c4.3-0.2,8.5-0.8,13.6-1.3
		c-19.9-145.2-39.7-289.7-59.7-434.4c-40.7-6.8-79.9-13.3-119.8-20c-7.8,11.9-15.4,23.6-23,35.3c-7.5,11.4-14.8,23-22.4,34.3
		c-7.7,11.3-14.4,23.4-23.9,35.2c-12.7-39.5-24.7-77.1-36.7-114.6c-42.3-5.9-83.6-11.7-125-17.4
		C-1678.5,303.7-1732,433.8-1786.1,565.1z M-487,637.2c0.3-2.5,0.6-4.1,0.6-5.7c0.7-36.6,1.4-73.2,2.1-109.8
		c0.1-2.8,0.4-5.6,0.7-10.8c35,51.6,68.6,101.1,102.8,151.5c59.1-27.5,117.6-54.7,177.6-82.5c-45.3-36.9-89.2-72.8-133.7-109
		c3.3-2.5,5.3-4.2,7.5-5.8c17.9-12.8,35.7-25.7,53.8-38.2c5-3.5,8-7.6,9.2-13.4c9.6-44.2,19.1-88.4,29.1-132.5
		c1.2-5.3-0.1-8-4.2-10.8c-6.3-4.3-12.5-8.9-18.7-13.4c-44.5-32.3-89-64.6-133.4-97c-4.6-3.3-8.7-4.5-14.6-3.5
		c-79,13.3-158,26.1-237,39.1c-8.8,1.4-17.5,3.1-26.3,4.7c1.1,17.2,2.1,33.4,3.1,49.6c0.9,14.6,1.7,29.2,2.7,43.8
		c1.6,23.2,3.6,46.3,5.1,69.5c1.1,16.2,1.7,32.5,2.8,48.8c1.6,24.2,3.5,48.3,5.2,72.5c1.1,15.3,1.8,30.5,2.8,45.8
		c1.9,28.2,3.9,56.3,5.9,84.5c0.7,9.2,1.6,18.4,2.4,27.8C-589.4,640.5-538.4,638.8-487,637.2z M555.5,369.5
		c-0.6-0.9-1.8-3.6-3.7-5.7c-10.5-11.2-21.1-22.3-31.7-33.3c-28.1-29.3-56.4-58.6-84.3-88.1c-3.2-3.4-6.4-5.2-11-5.8
		c-17.8-2.3-35.5-4.9-53.3-7.3c-42.8-5.6-85.7-10.9-128.4-17c-6.8-1-10.5,1-14.4,5.6c-10.8,12.6-21.8,25.2-32.8,37.7
		c-33.8,38.5-67.6,77.1-101.6,115.5c-3.9,4.5-5.3,8.9-3.8,14.5c1.3,4.8,2.1,9.7,3,14.6c12.2,64,24.5,128,36.6,192
		c1.1,6,3.4,9.8,9.7,12.1c63.4,22.7,126.6,45.7,189.7,68.8c5.3,2,9.8,2,15.2-0.5c29-13.5,58.1-26.6,87.2-39.8
		c30-13.7,59.9-27.4,90-40.9c5.4-2.4,8-5.4,8.7-11.7c3.5-32.7,7.7-65.3,11.6-97.9c3.1-25.7,6.3-51.4,9.3-77.1
		C552.9,394,554,382.7,555.5,369.5z M-894.9,557.9c5.8,31.3,11.6,62.2,17.6,94.2c59.1-3.3,117.6-6.5,177-9.8
		c-0.8-3.2-1.2-5.4-1.9-7.5c-12.4-39-24.8-78-37.1-117c-16.5-52-32.8-104-49.3-156.1c-10.9-34.6-22.1-69.1-32.8-103.7
		c-1.9-6.1-4.4-9-11.4-9.8c-23.4-2.6-46.7-6.3-70.1-9.5c-27.6-3.8-55.2-7.5-82.9-11.2c-20.7-2.7-41.4-5.3-62.9-8
		c-40.6,131.7-81.1,263-121.9,395.2c54.6,13.4,108.1,26.6,162.5,40c5.1-32.8,10.1-64.8,15.1-96.9
		C-959.9,557.9-927.7,557.9-894.9,557.9z M-122.7,202c-0.4,4.4-0.8,7.2-1,10.1c-0.2,5.3-0.3,10.6-0.5,16
		c-1.2,25.9-2.4,51.8-3.5,77.6c-0.8,19.9-1.4,39.9-2.1,59.8c-0.2,7.3-0.3,14.6-0.7,21.9c-1,19.9-2.3,39.8-3.2,59.7
		c-0.9,19.9-1.5,39.9-2.4,59.8c-1.1,25.9-2.5,51.8-3.7,77.6c-0.7,14.3-1.4,28.5-1.9,42.8c-0.2,4.2,0,8.5,0,14
		c46.3-1.7,91.5-3.3,137-4.9c22.5-131.1,44.8-261,67.2-391.5C0.7,230.7-60.1,216.6-122.7,202z"/>
	<path class="st0" d="M2101.2,494.3c30.8-5.4,58.8-10.4,87.1-15.4c0,28.2,0,55.5,0,85.1c-11.7-7.1-20.1-15.4-29.3-22.6
		c-9.6-7.6-19.1-15.5-28.6-23.2C2121.3,510.7,2112.2,503.2,2101.2,494.3z M2168.8,503c-6.8,1.3-13,2.6-21.1,4.2
		c7.6,6.1,13.5,10.8,21.1,16.9C2168.8,515.8,2168.8,509.9,2168.8,503z"/>
	<path class="st0" d="M1865.7,413.6c-24.5,0.7-48.3,1.4-72.7,2.1c0-41,0-80.8,0-122c28.4,9.7,56.2,19.2,85,29
		C1873.9,352.7,1869.9,382.2,1865.7,413.6z M1824.1,382.7c4.6,0,8.1,0,12.2,0c1.6-12.6,3.2-24.6,4.8-37c-6-2-11.1-3.6-17-5.6
		C1824.1,355.1,1824.1,368.6,1824.1,382.7z"/>
	<path class="st0" d="M886.3,293c30.3,9.8,59.4,19.2,89.7,29c-4.1,29.3-9.5,58.4-14.5,88.4c-25.1,1.7-49.8,3.3-75.2,5
		C886.3,374.4,886.3,334.3,886.3,293z M918.2,381.6c5.3-0.5,9.8-0.9,14.7-1.4c1.9-12,3.8-23.2,5.6-34.9c-7.2-2.3-13.3-4.3-20.3-6.6
		C918.2,353.2,918.2,366.6,918.2,381.6z"/>
	<path class="st0" d="M1303.1,448c6.6-29.1,12.9-56.8,19.3-84.8c8,0,15.6,0,24.3,0c4.8,28,9.6,56,14.5,84.8
		C1341.3,448,1322.9,448,1303.1,448z"/>
	<path class="st0" d="M-414,405.6c-23.7,0.7-47.2,1.4-70.4,2.1c-2.3-7.9-2.8-110.2-0.8-120.9c0.6,0,1.4-0.3,1.9-0.1
		c26.7,9.1,53.5,18.2,79.9,27.2C-401.4,321.5-408.2,380-414,405.6z M-455.6,331.9c-0.1,15.5-0.2,29.2,0.1,42.8c5,0,8.5,0,12.6,0
		c1.7-12.5,3.2-24.4,4.9-36.7C-443.9,335.9-448.8,334.2-455.6,331.9z"/>
	<path class="st0" d="M262,490.7c0-33,0-64.9,0-97.9c32.7-9.7,65.5-19.4,99.1-29.4c17.2,29.9,34.2,59.5,51.8,90.1
		c-22.5,23.8-44.9,47.4-68.2,71.9C317.5,514.1,290,502.5,262,490.7z M344.7,402.8c-17.3,5.1-34,10.1-50.5,15c0,18.1,0,35.3,0,52.7
		c12.3,5.2,24.2,10.1,36.1,15.3c4,1.8,6.7,1.1,9.6-2.1c6.5-7.1,13.3-13.9,19.8-21c4-4.3,7.8-8.8,11.8-13.3
		C362.4,433.7,353.7,418.5,344.7,402.8z"/>
	<path class="st0" d="M-953.3,355.1c8.4,0,15.7,0,23.9,0c4.8,28.2,9.6,56.2,14.4,85c-19.6,0-37.8,0-57.5,0
		C-966.9,411.4-959.9,383.6-953.3,355.1z"/>
</g>
</svg>
