<svg xmlns="http://www.w3.org/2000/svg" width="1039" height="512" viewBox="0 0 1039 512">
  <defs>
    <style>
      .cls-1 {
        fill: none;
      }

      .cls-1, .cls-2 {
        stroke: #fff;
        stroke-width: 5px;
        fill-rule: evenodd;
      }

      .cls-2 {
        fill: #fff;
      }
    </style>
  </defs>
  <path class="cls-1" d="M115,500L5,451l1-32L99,201l57,8-21-19-1-31,24-33-17-11V79l46-68,82-7,40,31V25l96,7,2,18,61,8-1-22L574,16l50,30,7-27L737,38V26L842,12l73,42,1,18-15,88,23,18,2,38-19,8,62,10,65,91v24l-28,113L906,507,801,472l-17-43-10,61-88,6-1-24-64,29-30-41,1,26-90,10-4-11-73,12-13-52-30,4-11,50-65-13-90,18-8-93-35,38-27-44Z"/>
  <path class="cls-2" d="M179,120l47,38,17-22L157,81l37-54,71-8,51,41L290,92,242,59,229,81l81,54-27,65-83,2-50-44Z"/>
  <path class="cls-2" d="M852,235l108,15,56,79-23,92-87,40-91-29-24-65,13-73Zm32,74,46,12,6,45-42,20-34-36Z"/>
  <path class="cls-2" d="M109,219l53,7,23,70,35-65,56,8,41,200-87,18-7-120-47,55-35-58L106,449,27,414Z"/>
  <path class="cls-2" d="M314,337l31-105,97,9,68,196-72,14-11-53-61,10-8,44-22-4Zm71-43,20,1,12,58-42-1Z"/>
  <path class="cls-2" d="M506,374l27,75,40-4V374l53,78,70-33-62-51,41-24,14-74-83-51L491,239Zm62-97,3,64,40-10,5-42Z"/>
  <path class="cls-2" d="M703,436l1,16,56-3,35-202-83-21-7,178,10,9-1,17Z"/>
  <path class="cls-2" d="M753,40c4.881,0.391,85-13,85-13l61,36-10,62-29,18,46,40-53,24-40-58-1,53-44,3L757,95l8-52S748.119,39.61,753,40Zm58,28,1,55,32-6,5-36Z"/>
  <path class="cls-2" d="M637,52l5-16L750,55l-8,44L686,81l-7,27,51,2-4,35-50-7,4,29,60-9,7,45-122-4-9-49,19-17s9.675-71.073,10-74C644.892,57.374,637,52,637,52Z"/>
  <path class="cls-2" d="M324,40l64,6L372,152l47-3-3-83,65,10-15,93-30,33-82-1-39-36s8.39-17.1,11-28c3.224-13.97-8-14-8-14l2-45s13.693-15.548,14-20-11-13-11-13Z"/>
  <path class="cls-2" d="M490,109l12,96,46-5-1-40,41-2,34-31,8-61L570,32,484,48l1,12s10.853,1.773,13,3S490,109,490,109Zm51-36,3,51,30-6,6-32Z"/>
</svg>
