<?xml version="1.0" encoding="utf-8"?>
<!-- Generator: Adobe Illustrator 19.0.0, SVG Export Plug-In . SVG Version: 6.00 Build 0)  -->
<svg version="1.1" id="Layer_1" xmlns="http://www.w3.org/2000/svg" xmlns:xlink="http://www.w3.org/1999/xlink" x="0px" y="0px"
	 viewBox="2174 -242 4959 1276" style="enable-background:new 2174 -242 4959 1276;" xml:space="preserve">
<style type="text/css">
	.st0{fill:#FFFFFF;}
</style>
<path class="st0" d="M2176,546.6h312.7l-5.1-109L2176,530.8V546.6L2176,546.6z M2706.2,546.6h294l142.6-278.4
	c-61.8,13.6-290.7,64.8-515.5,129L2706.2,546.6L2706.2,546.6z M3526-242h-407.3l-267.9,515.3l-4.2-0.1L2578.9-242H2174l2,746
	l306.4-95.7L2467.9,99l2.2,0l143,270.9c135.6-38.4,393-109.5,550.5-142l64-124.8l1.4,0l-3.9,109.9c53.9-12.5,192.6-43.5,301-63.5
	L3526-242z M5610,62l-794.2,1.2C4813.5,96,4858,245.5,5186,251h316c0,0,94-2.5,125.5,26c4.7,4.3,4.7,21.1,4.3,28
	c-2.3,45.5-105.8,46-128.8,46h-647.2v181.2h-2L4548,76c0,0-162.3,4.7-293,15.4l57,90h-245.3l46.9-79l-339.4,43.9l-248.4,383.6
	l0.1-336.2c-48.1,8.1-161,27.9-302.3,57.2l-10.4,295.7h638.1l99-172.5H4415l104.6,172.5h1028.9c0,0,163.8-3.7,254.8-39.9
	C5893,471,5949,406.2,5949,287C5949,65,5676,62,5610,62z M3804.6,99.5L4026.5-242h328L4519,23.1l-292.8,22.8L4185-17.8L4142,53
	L3804.6,99.5z M4808.7,9.3l316-8.7c0,0,5.3-45.3,146.7-45.3h623.3V-242h-696c-77.3,4-230,14-307.7,78.2
	C4839.8-121.5,4812-78,4808.7,9.3z M5992.7,0.7l315.8-1.3c0,0,11.5-44.3,142.5-44.3h627v-197l-694,1c0,0-182.3-2-285.5,60.1
	C6039.5-145.4,5995-83.3,5992.7,0.7L5992.7,0.7z M5996,58.9l781.7,1.8c154.9,1.1,257.3,36.3,303.6,86
	C7140.7,210.5,7133,292,7133,292c0,260.7-317,248.7-421.7,254.7h-672.7V351H6660c0,0,152.5,5.3,154.4-42c0.3-8.5,1.9-19.4-0.6-25.5
	c-10.3-24.8-73.4-30.8-99.1-32.2H6399C6334,250.1,6038.7,258,5996,58.9L5996,58.9z M7088.7,664.7H6530v86h210V1034h142.7V750.7h206
	V664.7z M5885.8,751.6l342.9,0.4v-87.3h-341.4h0c0,0-54.9,0.2-74,1.8c-35.8,3-64.8,15.8-79.5,40.3s-11.8,60.5-11.8,60.5v160.5
	c-1.7,63.4,18.1,79.1,45.3,94.2c26.9,15,90.4,12,90.4,12h370.9v-86.3h-343.3c0,0-11.4,0.8-15.7-5.3c-3.2-4.5-3.8-10.1-3.9-13.7
	V765.5C5867.7,751.3,5879.8,751.8,5885.8,751.6L5885.8,751.6z M5000.8,751.6l341.9,0.4v-87.3h-340.4h0c0,0-54.9,0.2-74,1.8
	c-35.8,3-64.8,15.8-79.5,40.3s-11.8,60.5-11.8,60.5v160.5c-1.7,63.4,18.1,79.1,45.3,94.2c26.9,15,90.4,12,90.4,12h369.9v-86.3
	h-342.3c0,0-11.4,0.8-15.7-5.3c-3.2-4.5-3.8-10.1-3.9-13.7v-36.2h361.9V806h-361.9v-40.5C4982.7,751.3,4994.8,751.8,5000.8,751.6
	L5000.8,751.6z M2339,751.6l345.9,0.4v-87.3h-344.4h0c0,0-54.9,0.2-74,1.8c-35.8,3-64.8,15.8-79.5,40.3s-11.8,60.5-11.8,60.5v160.5
	c-1.7,63.4,18.1,79.1,45.3,94.2c26.9,15,90.4,12,90.4,12h373.9v-86.3h-346.3c0,0-11.4,0.8-15.7-5.3c-3.2-4.5-3.8-10.1-3.9-13.7
	v-36.2h365.9V806H2319v-40.5C2320.9,751.3,2333.1,751.8,2339,751.6L2339,751.6z M3062.3,767.2c0,0-3-36,11.8-60.5
	s43.8-37.3,79.5-40.3c19.1-1.6,74-1.8,74-1.8h0h340.4V752l-341.9-0.4c-5.9,0.1-18.1-0.4-20,13.9V811h361.9v85.5H3206V1034h-144
	L3062.3,767.2L3062.3,767.2z M3949.3,767.2c0,0-3-36,11.8-60.5s43.8-37.3,79.5-40.3c19.1-1.6,74-1.8,74-1.8h0H4455V752l-341.9-0.4
	c-5.9,0.1-18.1-0.4-20,13.9V811H4455v85.5h-361.9V1034h-144L3949.3,767.2L3949.3,767.2z"/>
</svg>
