<?xml version="1.0" encoding="utf-8"?>
<!-- Generator: Adobe Illustrator 19.0.0, SVG Export Plug-In . SVG Version: 6.00 Build 0)  -->
<svg version="1.1" id="Layer_1" xmlns="http://www.w3.org/2000/svg" xmlns:xlink="http://www.w3.org/1999/xlink" x="0px" y="0px"
	 viewBox="-279 460 418.8 80.9" style="enable-background:new -279 460 418.8 80.9;" xml:space="preserve">
<style type="text/css">
	.st0{fill:#FFFFFF;}
</style>
<path class="st0" d="M-179.8,460l11.3,76l13.4-37.3l-14.8-38.7h19.1l6.1,22.8l6.3-22.8h19.1l-14.1,38.7l15.2,42.2H-137l-7.5-23.6
	l-7,23.6H-186l-1.6-14.9h-10.8L-200,541h-18.2l11.4-81L-179.8,460L-179.8,460z M-188.9,510.8l-3.5-33.6h-1.8l-2.8,33.6
	C-197.1,510.8-188.9,510.8-188.9,510.8z"/>
<path class="st0" d="M-220.9,460h-21.9l-6.1,39.2h-1.7l-6.6-39.2H-279v81h17v-51.4h0.8l7.8,51.4h6.9l7.8-51.4h0.8V541h17.1
	C-220.9,541-220.9,460-220.9,460z"/>
<path class="st0" d="M-45.1,471.8L-57.6,460h-30.8V541h18.6v-27.5h12.2l12.5-11.4L-45.1,471.8L-45.1,471.8z M-62.9,475.3v22.9h-6.9
	v-22.9H-62.9z"/>
<path class="st0" d="M-6.8,460h-27L-45.2,541H-27l1.6-14.9h10.8L-13,541H5.3C5.3,541-6.8,460-6.8,460z M-16,510.8h-8.1l2.8-33.6h1.8
	L-16,510.8z"/>
<path class="st0" d="M49.6,460H30.9l-6.7,29.2H24L17.4,460H-1.2l16,47.1V541h18.6v-33.9L49.6,460z"/>
<path class="st0" d="M99.2,460H81.7v39h-0.2l-12-39H53.9v81h17.5v-39.4h0.2L83.7,541h15.5V460z"/>
<path class="st0" d="M139.3,460H105v81h34.8v-15.3h-16.1v-20h13.2v-15.2h-13.2v-15.2h15.7V460z"/>
</svg>
