<?xml version="1.0" encoding="utf-8"?>
<!-- Generator: Adobe Illustrator 19.0.0, SVG Export Plug-In . SVG Version: 6.00 Build 0)  -->
<svg version="1.1" id="Layer_1" xmlns="http://www.w3.org/2000/svg" xmlns:xlink="http://www.w3.org/1999/xlink" x="0px" y="0px"
	 viewBox="-203.6 462.4 575.6 97.5" style="enable-background:new -203.6 462.4 575.6 97.5;" xml:space="preserve">
<style type="text/css">
	.st0{fill:#FFFFFF;}
</style>
<g>
	<g>
		<path class="st0" d="M-203.6,559.8l21.4-97.4l21.9,0l0.1,36.5l21.5-36.5l23.9,0l-15.2,68.7h-20.5l6.3-27.8l-14.5,27.8h-14.4
			l0-26.9l-12.1,55.7L-203.6,559.8z"/>
		<path class="st0" d="M-108.9,484.2h47.8l-3.7,17.5h-29.3l-2.3,10.1h29.2l-4.3,19.4l-47.9,0L-108.9,484.2z M-108.9,484.2h47.8
			l-3.7,17.5h-29.3l-2.3,10.1h29.2l-4.3,19.4l-47.9,0L-108.9,484.2z M-104.2,462.4l48,0l-3.6,15.9h-47.9L-104.2,462.4z
			 M-104.2,462.4l48,0l-3.6,15.9h-47.9L-104.2,462.4z"/>
		<path class="st0" d="M-51,462.4l55.2,0l-3.6,15.9l-17.4,0l-11.6,52.8l-20.2,0l11.6-52.8l-17.5,0L-51,462.4z"/>
		<path class="st0" d="M5.4,484.3h37.4l6.3,46.8l-22.5,0l-2.4-27.8h-7L2.7,531.2h-23.9L4,486.3L5.4,484.3z M41.9,478.2l-2.6-15.8
			H16.6l-8.9,15.8H41.9z"/>
		<path class="st0" d="M67.9,462.4l19.3,0l-11.3,51l28.4,0l-3.9,17.8l-47.8,0L67.9,462.4z"/>
		<path class="st0" d="M145.7,501.9l4-17.6h32.2l-10.4,46.9h-44l-12.2-37.7l26.5-31l44.9,0l-3.6,16h-30.5l-15.5,16.3L142,512h15.4
			l2.2-10.1L145.7,501.9L145.7,501.9z"/>
		<path class="st0" d="M190.2,484.2H238l-3.7,17.5H205l-2.3,10.1H232l-4.3,19.4l-47.9,0L190.2,484.2z M190.2,484.2H238l-3.7,17.5
			H205l-2.3,10.1H232l-4.3,19.4l-47.9,0L190.2,484.2z M195,462.4l48,0l-3.6,15.9h-47.9L195,462.4z M195,462.4l48,0l-3.6,15.9h-47.9
			L195,462.4z"/>
		<path class="st0" d="M258.6,484.3H296l6.3,46.8l-22.5,0l-2.4-27.8h-7L256,531.2h-23.9l25.2-44.9L258.6,484.3z M295.1,478.2
			l-2.6-15.8h-22.8l-8.9,15.8H295.1z"/>
		<path class="st0" d="M319.5,462.4h34.3l3.5,0.4c5.6,0.6,9.1,3.4,10.5,8.5c0.9,3.5,1.4,6.7,1.4,9.6c0,7.7-3.2,13.4-9.7,17.1
			l-7.7,3.3l20.2,58.6l-20,0l-21.4-57.5l-6.4,28.8h-19.8l10.3-47.1h34.2l2.4-0.3l1.2-0.5l1-0.6l0.5-1.1v-0.9l-0.5-1.1l-1.2-0.8
			l-1.3-0.4l-34.8-0.1L319.5,462.4z"/>
	</g>
	<g>
		<path class="st0" d="M25.7,542.8c-1.4,0-2.5,0.8-3,2.5c-0.6,1.6-0.9,3.1-0.9,4.4c0,1.6,0.8,2.5,2.5,2.5c1,0,1.8-0.3,2.3-1.1
			c0.5-0.7,0.9-1.7,1.2-3.1c0.3-1.3,0.5-2.3,0.5-2.7c0-0.8-0.2-1.4-0.7-1.8S26.4,542.8,25.7,542.8z"/>
		<g>
			<path class="st0" d="M179.4,542.7h-1.9l-2,9.3h1.4c1.5,0,2.7-0.2,3.4-0.5c0.7-0.3,1.4-1,1.9-1.9c0.5-0.9,0.8-2,0.8-3.3
				C183,543.9,181.8,542.7,179.4,542.7z"/>
			<path class="st0" d="M337.6,536.9h-513.4l-4.7,22.5h524.6L337.6,536.9z M-28.3,544.4c0.2,0.2,0.7,0.4,1.5,0.6l3.2,0.9
				c0.8,0.2,1.6,0.6,2.3,1.1c0.7,0.5,1.2,1,1.5,1.6c0.3,0.6,0.5,1.2,0.5,1.8c0,1.7-0.8,3-2.4,4.1c-1.6,1.1-3.7,1.6-6.3,1.6
				c-2.2,0-4.2-0.4-5.9-1.1c-1.7-0.8-2.6-2.2-2.7-4.4l4.9,0c0.5,1.2,1.7,1.7,3.6,1.7c0.8,0,1.4-0.1,1.8-0.4c0.4-0.2,0.5-0.5,0.5-0.8
				c0-0.2-0.1-0.4-0.2-0.5s-0.3-0.3-0.4-0.3c-0.2-0.1-0.9-0.3-2.2-0.7c-1.8-0.5-3.1-1-3.8-1.3c-0.7-0.3-1.3-0.8-1.8-1.5
				c-0.5-0.6-0.7-1.4-0.7-2.3c0-1.5,0.7-2.8,2-3.8c1.3-1,3.4-1.6,6.1-1.6c2.1,0,3.9,0.4,5.4,1.1c1.5,0.7,2.4,2.1,2.7,4.1l-4.8,0
				c-0.2-0.5-0.5-0.9-1.1-1.2c-0.6-0.3-1.2-0.4-1.9-0.4c-1.3,0-2,0.4-2,1.1C-28.5,544-28.5,544.2-28.3,544.4z M31.4,553
				c-1.9,1.9-4.3,2.8-7.3,2.8c-2.3,0-4.3-0.6-6-1.8c-1.7-1.2-2.5-3-2.5-5.3c0-2.7,0.9-4.9,2.8-6.8c1.9-1.9,4.3-2.8,7.4-2.8
				c2.4,0,4.4,0.7,6,2c1.6,1.3,2.3,3,2.3,5.1C34.2,548.9,33.3,551.2,31.4,553z M87.2,555.8H70.6l4.1-16.7H82l-3.1,12.7h9.2
				L87.2,555.8z M130.8,555.8h-7.1l4.2-16.7h7.1L130.8,555.8z M188.3,551c-0.8,1.3-1.8,2.4-3.1,3.1c-1.3,0.8-2.6,1.2-3.8,1.4
				c-1.2,0.2-3,0.3-5.2,0.3h-7.9l3.6-16.7h7.2c1.7,0,3.1,0.1,4.2,0.3c1.1,0.2,2.1,0.6,3.1,1.3c1,0.6,1.8,1.5,2.3,2.5
				c0.5,1,0.8,2.2,0.8,3.4C189.5,548.2,189.1,549.7,188.3,551z"/>
		</g>
	</g>
</g>
</svg>
