<?xml version="1.0" encoding="utf-8"?>
<!-- Generator: Adobe Illustrator 19.0.0, SVG Export Plug-In . SVG Version: 6.00 Build 0)  -->
<svg version="1.1" id="MCCB_Logo_Primary" xmlns="http://www.w3.org/2000/svg" xmlns:xlink="http://www.w3.org/1999/xlink" x="0px"
	 y="0px" viewBox="514 256.4 1639.4 280.6" style="enable-background:new 514 256.4 1639.4 280.6;" xml:space="preserve">
<style type="text/css">
	.st0{fill:#FFFFFF;}
</style>
<g>
	<polygon class="st0" points="1521.5,307.1 1524,344.3 1546.3,344.3 1543.5,307.1 	"/>
	<polygon class="st0" points="1738.6,341.2 1727.5,341.2 1726,331.9 1751.8,331.9 1747.9,307.2 1718.7,307.2 1721.8,328.8 
		1699.7,328.8 1696.8,307.2 1667.6,307.2 1670.7,331.9 1696.5,331.9 1697.8,341.3 1686.7,341.3 1691.3,376.3 1706.3,376.3 
		1704.6,363.4 1727,363.4 1728.9,376.2 1743.9,376.2 	"/>
	<path class="st0" d="M2121.7,358l29.6-49l-16.4-52.6H1008.1l-5.3,38.4l-10.4-38.4H729.8l-9,36.2H699l-5.2,20l-29-56.2h-85.6
		L514,465.7l52,71.3h85.5l10.5-39.5h34.5l23.1,39.5h263.8l6.3-45.9l14.6,45.9h881.4l35.7-73.9h32.3l30-58.7l32,132.6h88.7l49.1-71.4
		L2121.7,358z M727.9,522.5l-34.8-59.4l20.1-80.4h-22.6l-10.2,39.5h-45.9l10.9-39.5h-22.6L600,463.1l39.6,59.4h-66.2l-43.3-59.4
		L589.9,271h64.8l-10.3,36.2h21.9L656,344.4h44.5l9.6-37.2H732l9-36.2h65l-43,192.1l31.1,59.4H727.9z M816.2,522.5l-29.9-59.4h-0.1
		L827.6,271h64.8l-36.3,192.1h0.1l26.2,59.4H816.2z M1065.9,463.1l15.2,59.4h-66.2L996,463.1l8.2-60.8h-22.8l5.6-38.9h-22.4
		l-15.3,99.7h0.1l21.3,59.4h-66.2l-25-59.4h-0.1L914,271h64.8l-5.6,36.2h21.9l-5.4,37.2h22.3l10-73.4h64.8l-21.1,192.1H1065.9z
		 M1258.5,307.2h-87.7l-2.8,37.2h89l-1.5,38.4H1165l-2.9,39.5h91.7l-1.6,40.8l5.5,59.4h-154.5l-14-59.4l19.4-192.1h151.3
		L1258.5,307.2z M1434.3,522.5h-154.5l-4.3-59.4l5.9-192.1h151.3l1.1,36.2h-87.7l-0.5,115.1h91.7l1.3,40.8L1434.3,522.5z
		 M1610.9,522.5h-66.2l10.4-59.4l-6-80.4h-22.6l5.3,80.4l-9.2,59.4h-66.2l5.5-59.4h0l-7.6-192.1h151.3l7.4,73.4h-22.3l1.8,19h22.4
		l10.1,99.7L1610.9,522.5z M1721.3,522.5l20.1-59.4l-8.8-60.8h-22.8l8.3,60.8l-18.9,59.4H1633l15.3-59.4h-0.1L1627.1,271h151.3
		l32.9,192.1l-23.8,59.4H1721.3z M1888,382.8l16.6,80.4h-0.1l-28.7,59.3h-66.2l25-59.4h0.1L1800.1,271h151.3l8.7,36.2h-87.7
		l7.7,37.2h89l9.3,38.4H1888z M2096.6,522.5h-66.2l37.2-59.4h0.1l-41.9-156H1982l-9-36.2h151.3l11.3,36.2h-43.9l45.9,156h-0.1
		L2096.6,522.5z"/>
</g>
</svg>
