<?xml version="1.0" encoding="utf-8"?>
<!-- Generator: Adobe Illustrator 19.0.0, SVG Export Plug-In . SVG Version: 6.00 Build 0)  -->
<svg version="1.1"
	 id="Layer_1" xmlns:cc="http://creativecommons.org/ns#" xmlns:dc="http://purl.org/dc/elements/1.1/" xmlns:rdf="http://www.w3.org/1999/02/22-rdf-syntax-ns#"
	 xmlns="http://www.w3.org/2000/svg" xmlns:xlink="http://www.w3.org/1999/xlink" x="0px" y="0px" viewBox="-1.5 268.6 564 255"
	 style="enable-background:new -1.5 268.6 564 255;" xml:space="preserve">
<style type="text/css">
	.st0{fill:none;stroke:#FFFFFF;stroke-width:3;}
	.st1{fill:#FFFFFF;stroke:#FFFFFF;stroke-width:2;}
	.st2{fill:#FFFFFF;stroke:#FFFFFF;stroke-miterlimit:10;}
</style>
<g transform="translate(-35.9518 -426.483)">
	<g>
		<path class="st0" d="M554.5,885c-6.7-1.2-36.5-9.3-36.5-9.3s2.1-1.4,3.2-2.5c1.1-1.1,2.3-3.1,2.7-4.6c1.2-4.2,0.9-58.9-0.3-62.2
			c-0.5-1.4-1.9-3.2-1.9-3.2s17.6,3.9,24.2,6.1c13.4,4.5,23,10,30.4,17.5c8,8.1,11.8,16.2,12.4,27c0.3,5.4,0.2,7-1.1,10.9
			c-1.9,6-4,9.5-8,13.2C573.3,883.9,563.6,886.7,554.5,885L554.5,885z M565,878c10.6-5.8,14.7-20,10-35.2
			c-3.5-11.3-10.1-19.2-20.6-24.4c-3.4-1.7-7.8-3.5-9.7-4l-3.5-1v31.4v31.4l3.8,1.7c2.1,0.9,5.3,1.8,5.8,2s2.4,0.4,5.3,0.3
			C560.6,879.9,562.1,879.6,565,878L565,878z M497.1,869.7c-9.1-13.6-30.2-44.5-37.5-54.9l-2.9-4.2l-0.2,23.7
			c-0.1,20.1,0,24,0.8,25.7c1.3,2.5,3,3.3,3,3.3s-8-1.3-12.8-1.9s-10-1.1-10-1.1s1.4-1.4,1.9-2.8c0.7-2.1,0.9-8.4,1-31.6
			c0-17-0.2-29.7-0.6-30.6c-0.4-0.9-1.3-2.3-2.1-3.1l-1.5-1.5l5.9,0.4c3.2,0.2,9,0.8,12.7,1.2l7.4,0.8l15.2,23.9l15.8,23.9l0-19.1
			c0-15.4-0.2-19.5-1-21.4c-0.5-1.3-2.4-3-2.4-3l20.4,3.9c0,0-1.3,1.1-1.9,2.1c-0.8,1.5-1,9.1-1.3,41.6l0,40.3L497.1,869.7z
			 M419.6,858c-9.3-0.9-10.1-1-10.1-1s0.8-1,0.6-2.8c-0.1-1.8-1.3-4.1-2.2-6l-3.3-7l-2.8-0.4c-1.6-0.2-8.8-0.5-16.1-0.5l-13.2-0.1
			l-3.2,5.6c-1.7,3.1-3.1,6.5-3.2,7.5c-0.1,0.6,0.8,1.7,0.8,1.7l-10.1,0c-5.1,0-10.1-0.1-10.1-0.1s2.1-1.7,3.7-3.3
			c2.4-2.5,5.3-7.2,12.4-20c6.3-11.3,27.7-47.5,27.7-47.5s2.7,4.9,24.7,48.1c5.2,10.2,10.4,20.3,11.6,22.3c1.4,2.4,2.2,4.1,2.2,4.1
			S424,858.5,419.6,858L419.6,858z M396.2,822.3c-3.2-6.8-5.9-12.3-6.1-12.3c-0.2,0-3.4,5.3-7.1,11.8l-6.8,11.8l5.1,0.3
			c2.8,0.2,8.6,0.4,12.9,0.5l7.7,0.2L396.2,822.3z M290.7,856.7c0,0,1.8-1.7,2.6-3.1c1.5-2.6,2-60.4,0.5-64.8
			c-0.6-1.6-2.2-3.9-2.2-3.9l22.2,0.1c0,0-1.4,1.4-2.2,3.3c-0.9,2-1,7.1-1,33.4v30.9l6.5-0.4c10.6-0.6,18.4-4,25.1-10.9l3.2-3.5
			l-0.3,8.4c0,5.8,0,8.6,0,8.6s-7,0.1-13.6,0.2c-11.4,0.1-34.6,1.1-35.8,1.2C294.5,856.5,290.7,856.7,290.7,856.7L290.7,856.7z
			 M240.8,864.4c-1.7-0.3-5.1-1.2-7.6-2c-2.4-0.8-6-1.6-7.8-1.7l-3.6-0.2c0,0,0-5.7,0.1-8.5c0.1-3.7-0.9-10-0.9-10s1,2.1,3.2,4.4
			c13,14.2,19.2,16.2,29.5,15c9.2-1.1,13.8-12.5,9.9-20c-2.9-5.6-9.2-9.7-21.5-14c-7.7-2.7-11-4.7-13.4-8.1
			c-2.7-3.9-3.5-7.9-2.6-13.1c0.9-5.5,3.2-9,7.7-11.8c7.3-4.6,12-5.3,29.6-4.2c0,0,1.6,0,3.9-0.5c2.2-0.5,3.7-1.4,3.7-1.4l0.2,7.1
			c0.1,3.2,0.1,7,0.1,7s-1.3-1.2-2.5-2.6c-6.2-7-18.6-8.6-24.9-3.1c-4.4,3.8-4.6,10.3-0.5,14.2c2.1,2,13.5,7.6,18.6,9.1
			c7.2,2.1,13.7,7.1,16.5,12.6c1.3,2.6,1.7,4.4,1.8,8.4c0.1,4.4-0.2,5.5-2.1,9.5c-3.7,7.5-9,11.5-17.9,13.3
			C255.2,865.1,246.1,865.3,240.8,864.4L240.8,864.4z M534.2,789.6c0,0-10.1-2.7-13.7-3.5c-3-0.7-8.9-2-8.9-2s2.6-2.1,2.9-2.8
			c0.3-0.8,0.6-8.2,0.7-18.7l0.2-19.2l-17.2-19.6c0,0-11.2-12.7-17.6-18.4c-0.6-0.6-2.4-1.6-2.4-1.6l25.9-0.1c0,0-1.5,1.1-1.8,2.7
			c-0.1,0.4-0.5,1.4,6.7,8.6c3.3,3.5,7.6,8.2,9.6,10.4l3.6,4l9.6-10.7c10.3-11.5,10.7-12.4,10.9-13.7c0.2-1.3-1.3-2.2-1.3-2.2l27,0
			c0,0-1.4,0-4.1,1.9c-1.1,1.2-15.2,16.6-29.4,33.3l-3.9,4.6l0.4,22c0.2,12.1,0.8,22,1,22.6C532.9,788,534.2,789.6,534.2,789.6
			L534.2,789.6z M474.3,776.9c-3.8-0.7-14-2-22.5-2.9s-16.8-1.9-18.4-2.1l-3.9-0.4l2.7-2.4c0,0,1.3-1.1,1.6-2.4
			c0.7-2.5,0-26.2,0-26.2c0-26.7-0.4-30.8-2.6-34c-1.1-1.4-3-2.5-3-2.5s14.3-0.2,24.6-0.1c16.5,0.1,18.9-0.5,18.9-0.5l0,13.7
			c0,0-1.2-2.3-3.1-3.3c-1-0.4-5-0.3-10.8-0.2l-8.8,0.3v12.6v12.6l2.2-0.5c3.1-0.7,7.7-2.3,9.6-5.4c1.8-2.8,2.2-4.7,2.2-4.7
			l-0.2,21.1c0,0-1.2-2.1-1.9-3c-1.6-2-7.6-5-10-5H449l0.4,10.7c0.2,5.9,0.6,10.9,0.7,11.1c0.2,0.2,5.2,1,11.1,1.8
			c11.9,1.6,14.1,1.5,18.4-1.4c1.4-0.9,3-3.2,3-3.2l0,17.4C482.6,778.2,478.2,777.5,474.3,776.9L474.3,776.9z M335.4,780
			c-2.2-2.3-8.3-8.8-13.5-14.4c-5.3-5.7-11.7-12.5-14.3-15.2c-2.6-2.7-9.6-10.2-15.6-16.5l-10.9-11.5l-0.3,8.2
			c-0.2,4.5-0.3,14.1-0.3,21.3c0,12.6,0,13.1,1.6,15.1c0.9,1.2,2.8,2.9,2.8,2.9s-4.4-0.1-7.7,0.1s-7.8,0.5-10.1,0.7
			c-2.3,0.2-6,0.4-6,0.4s2.3-1.8,2.9-3.1c0.9-2.1,1.1-6.4,1.2-28.4l0.1-25.9l-1.5-3.9c-0.7-1.9-1.9-3-2.8-3.7c-0.9-0.8-2.9-2-2.9-2
			s25.1-0.2,26.5,0.4c0.4,0.2,4.9,4.8,9.9,10.3s11.1,12.1,13.5,14.7c2.4,2.6,7.1,7.7,10.5,11.5c3.4,3.7,6.3,6.8,6.4,6.8
			s0.2-7.6,0.3-16.9c0-15.8,0-17.2-1.3-20c-0.8-1.7-2-3.8-2.8-4.6l-1.8-1.5h25.6c0,0-1.1,0.1-1.1,0.3c0,0.2-0.7,1.6-1.5,3.1
			c-1.8,3.5-1.8,2.1-1.8,43.4c0,18-0.3,34.1-0.3,34.1S337.5,782.3,335.4,780L335.4,780z M409.7,769.9c-0.4-0.1-3.9-0.4-7.8-0.7
			l-7.6-0.4l0.5-2.5c0.4-1.9-1.6-5.1-7.7-15.4c-4.2-7.1-8-13.1-8.3-13.5c-0.3-0.3-2.1,0.8-4.3,2.6l-3.7,3.2l0.2,10.1
			c0.2,9.3,0.3,10.3,1.7,12.1c1.3,1.8,2.4,2.5,2.4,2.5s-7.7-0.4-12.9-0.5c-5.3-0.1-11.8,0.2-11.8,0.2s1.8-1.7,2.7-2.6
			c1.4-1.5,1.6-2.4,1.9-10c0.2-4.6,0.3-16.8,0.3-27c0-16.4-0.1-18.8-1.2-20.8c-0.6-1.2-1.7-2.6-1.7-2.6l23.9-0.1
			c0,0-1.4,0.1-1.4,0.2s-1.4,1.6-2.1,3.3c-1.2,2.7-1.3,4.2-1.2,13l0.2,9.9l4.6-4c18.4-16,20.2-17.8,20.2-20.1l-1.2-2.3H418l-1.5,0.6
			c0,0-5.9,5.5-12.8,11.5c-6.9,6-13,11.4-13.5,12c-1,1.2-1.8-0.3,12.7,23.3c4.7,7.7,9.4,14.9,10.6,16.1l2.6,2.5l-3.1-0.4
			C409.1,769.8,410.1,770.1,409.7,769.9L409.7,769.9z M202.8,781.2c-23.4-6.3-36-30.7-27.3-52.7c3.6-9.2,10.8-17.1,19.3-21.1
			c6.9-3.3,11.3-4.3,18.4-4.3c28.2,0.1,47.2,28.4,36.6,54.4c-4.7,11.5-15.2,20.6-27.6,23.7C217.2,782.4,207.3,782.4,202.8,781.2
			L202.8,781.2z M224,764.3c8.7-4.3,13.7-12.4,13.7-21.9c0-7.3-1.9-11.9-7-17c-12.3-12.3-31.9-8.9-39.7,7c-1.9,3.9-2.1,4.9-2.1,10.3
			c0,5.1,0.3,6.5,1.7,9.7c4.6,9.7,13,14.7,24,14.2C218.8,766.5,220.7,766,224,764.3L224,764.3z M192.8,942.1
			c-2-4.3-7.4-10.1-12.3-13.4c-2.3-1.5-6.5-3.3-6.5-3.3s3.1-1.8,4.2-2.7s2.3-3.5,2.8-4.4c0.7-1.2,1.2-3.6,1.2-4.9
			c0.1-2.3,0.1-12.7,0.1-12.7c-1.2-39.8-0.1-80-0.2-81.6c0-2.9,0.6-3.1-1.9-7c-0.6-0.9-1.8-2.5-3-3.1c-1-0.5-3.5-1.2-3.5-1.2
			l7.4-2.5c7.2-2.4,32.3-9.2,32.3-9.2s-1.5,1.9-2.5,3.7c-3.9,7.7-4,8.7-3.9,45.3c0.1,18.4,0.3,41.7,0.5,51.7c0.4,20,0.5,20.4,5,25.5
			c1.1,1.3,2.7,2,2.7,2s-2.6,1.4-4.4,2.3c-4.7,2.4-11.6,9.4-14,14.4c-1.1,2.3-2.3,4.7-2.3,4.7S193.8,944.2,192.8,942.1L192.8,942.1z
			 M66.7,870.9c-1.9-4.1-8.1-10.8-13-14.2c-2-1.4-4.7-2.8-4.7-2.8s2.4-1.5,3.1-2.2c2.6-2.7,3.5-3.8,4-7.9l0-32.6
			c0-45.8-0.7-82.6-1.5-85.7c-1.4-5.6-7.1-13-11.6-17.2c-1.6-1.4-2.7-2.2-4.4-2.8l31.4,0.1l9.6,17.2c5.3,9.5,13.8,24.8,18.9,34
			c5.1,9.2,9.5,16.7,9.7,16.7c0.4,0,8.3-16.5,25.1-52.4c4.2-8.9,8.3-17.2,8.3-17.2l33.7-0.1c0,0-2.1,1.4-3.9,2.4
			c-5.2,3-8.4,6-10.1,9.4l-1.6,3.2l0.2,49.7c0.1,29.2,0.5,50.5,0.8,51.7c0.3,1.1,1.8,3.2,3.2,4.7l2.9,2.7l-4,2.5
			c-4.6,2.9-8,7.6-11,14.1l-2.2,4.8c0,0-1.2-2.4-2.8-5.1c-1.6-2.7-3.6-6.7-9-11.6c-0.4-0.3-6.4-3.7-6.4-3.7s4-4.1,4.7-5.5
			c1.5-2.7,0.9-7.2,0.8-9l-0.9-49l-1.2,2.7c-2.1,4.6-11.8,25.9-18.4,40.9c-3.5,7.9-6.9,15.4-6.9,15.4s-7.2-13.8-15.5-29.5
			c-8.3-15.7-15.1-28.5-15.2-28.5c-0.2,0,0.2,54.2,0.5,67.3c0.2,11.3,0.8,13.1,5,17.8l2.9,1.9l-3.2,1.9c-6.4,3.8-10.4,9.7-13,14.7
			c-1.3,2.5-2.6,4.4-2.6,4.4S67.5,872.8,66.7,870.9L66.7,870.9z"/>
		<g>
			<path class="st1" d="M527.9,798.8c0,0,1.4,1.7,1.9,3.2c1.2,3.4,1.4,58.1,0.3,62.3c-0.4,1.4-1.6,3.5-2.7,4.6
				c-1.1,1.1-3.2,2.5-3.2,2.5s29.7,8.1,36.4,9.3c9.1,1.7,18.8-1.1,25.2-7c4-3.7,6.1-7.2,8-13.2c1.3-3.9,1.4-5.5,1.1-10.9
				c-0.6-10.7-4.4-18.9-12.4-27c-7.4-7.5-17-13.1-30.4-17.5C545.5,802.7,527.9,798.8,527.9,798.8L527.9,798.8z M547.4,809l3.5,1
				c1.9,0.5,6.3,2.4,9.7,4c10.5,5.1,17.1,13,20.6,24.3c4.7,15.2,0.6,29.4-10,35.2c-2.9,1.6-4.4,1.9-8.8,2.1
				c-2.9,0.1-4.7-0.1-5.3-0.3s-3.7-1-5.8-2l-3.8-1.7v-31.4L547.4,809L547.4,809z"/>
			<path class="st1" d="M503.2,865.3c-9.1-13.6-30.2-44.5-37.5-54.9l-2.9-4.2l-0.2,23.7c-0.1,20.1,0,24,0.8,25.7
				c1.3,2.5,3,3.3,3,3.3s-8-1.3-12.8-1.9s-10-1.1-10-1.1s1.4-1.4,1.9-2.8c0.7-2.1,0.9-8.4,1-31.6c0-17-0.2-29.7-0.6-30.6
				c-0.4-0.9-1.3-2.3-2.1-3.1l-1.5-1.5l5.9,0.4c3.2,0.2,9,0.8,12.7,1.2l7.4,0.8l15.2,23.9l15.8,23.9l0-19.1c0-15.4-0.2-19.5-1-21.4
				c-0.5-1.3-2.4-3-2.4-3l20.4,3.9c0,0-1.3,1.1-1.9,2.1c-0.8,1.5-1,9.1-1.3,41.6l0,40.3L503.2,865.3z"/>
			<path class="st1" d="M396.7,779.7c0,0-21.4,36.2-27.7,47.5c-7.1,12.8-10,17.5-12.5,20c-1.5,1.6-3.7,3.3-3.7,3.3s5,0.1,10.1,0.1
				h10.1c0,0-0.8-1-0.8-1.7c0.1-1,1.4-4.4,3.2-7.5l3.2-5.6l13.2,0.1c7.3,0.1,14.5,0.3,16.1,0.5l2.8,0.4l3.3,7c0.9,1.9,2,4.2,2.2,6
				c0.1,1.8-0.6,2.8-0.6,2.8s0.8,0.1,10.1,1c4.4,0.4,9.5,0.6,9.5,0.6s-0.8-1.7-2.2-4.1c-1.2-2.1-6.4-12.1-11.6-22.3
				C399.4,784.6,396.7,779.7,396.7,779.7L396.7,779.7z M396.2,805.6c0.2,0,2.9,5.6,6.1,12.3l5.8,12.3l-7.7-0.2
				c-4.2-0.1-10.1-0.3-12.9-0.5l-5.1-0.3l6.8-11.8C392.8,810.9,396,805.6,396.2,805.6L396.2,805.6z"/>
			<path class="st1" d="M296.8,852.3c0,0,1.8-1.7,2.6-3.1c1.5-2.6,2-60.4,0.5-64.8c-0.6-1.6-2.2-3.9-2.2-3.9l22.2,0.1
				c0,0-1.4,1.4-2.2,3.3c-0.9,2-1,7.1-1,33.4v30.9l6.5-0.4c10.6-0.6,18.4-4,25.1-10.9l3.2-3.5l-0.3,8.4c0,5.8,0,8.6,0,8.6
				s-7,0.1-13.6,0.2c-11.4,0.1-34.6,1.1-35.8,1.2C300.5,852,296.8,852.3,296.8,852.3L296.8,852.3z"/>
			<path class="st1" d="M246.9,860c-1.7-0.3-5.1-1.2-7.6-2c-2.4-0.8-6-1.6-7.8-1.7l-3.6-0.2c0,0,0-5.7,0.1-8.5
				c0.1-3.7-0.9-10-0.9-10s1,2.1,3.2,4.4c13,14.2,19.2,16.2,29.5,15c9.2-1.1,13.8-12.5,9.9-20c-2.9-5.6-9.2-9.7-21.5-14
				c-7.7-2.7-11-4.7-13.4-8.1c-2.7-3.9-3.5-7.9-2.6-13.1c0.9-5.5,3.2-9,7.7-11.8c7.3-4.6,12-5.3,29.6-4.2c0,0,1.6,0,3.9-0.5
				c2.2-0.5,3.7-1.4,3.7-1.4l0.2,7.1c0.1,3.2,0.1,7,0.1,7s-1.3-1.2-2.5-2.6c-6.2-7-18.6-8.6-24.9-3.1c-4.4,3.8-4.6,10.3-0.5,14.2
				c2.1,2,13.5,7.6,18.6,9.1c7.2,2.1,13.7,7.1,16.5,12.6c1.3,2.6,1.7,4.4,1.8,8.4c0.1,4.4-0.2,5.5-2.1,9.5
				c-3.7,7.5-9,11.5-17.9,13.3C261.3,860.7,252.2,860.8,246.9,860L246.9,860z"/>
			<path class="st1" d="M540.3,785.2c0,0-10.1-2.7-13.7-3.5c-3-0.7-8.9-2-8.9-2s2.6-2.1,2.9-2.8c0.3-0.8,0.6-8.2,0.7-18.7l0.2-19.2
				l-17.2-19.6c0,0-11.2-12.7-17.6-18.4c-0.6-0.6-2.4-1.6-2.4-1.6l25.9-0.1c0,0-1.5,1.1-1.8,2.7c-0.1,0.4-0.5,1.4,6.7,8.6
				c3.3,3.5,7.6,8.2,9.6,10.4l3.6,4l9.6-10.7c10.3-11.5,10.7-12.4,10.9-13.7c0.2-1.3-1.3-2.2-1.3-2.2l27,0c0,0-1.4,0-4.1,1.9
				c-1.1,1.2-15.2,16.6-29.4,33.3l-3.9,4.6l0.4,22c0.2,12.1,0.8,22,1,22.6C538.9,783.6,540.3,785.2,540.3,785.2L540.3,785.2z"/>
			<path class="st1" d="M480.4,772.4c-3.8-0.7-14-2-22.5-2.9c-8.6-0.9-16.8-1.9-18.4-2.1l-3.9-0.4l2.7-2.4c0,0,1.3-1.1,1.6-2.4
				c0.7-2.5,0-26.2,0-26.2c0-26.7-0.4-30.8-2.6-34c-1.1-1.4-3-2.5-3-2.5s14.3-0.2,24.6-0.1c16.5,0.1,18.9-0.5,18.9-0.5l0,13.7
				c0,0-1.2-2.3-3.1-3.3c-1-0.4-5-0.3-10.8-0.2l-8.8,0.3v12.6v12.6l2.2-0.5c3.1-0.7,7.7-2.3,9.6-5.4c1.8-2.8,2.2-4.7,2.2-4.7
				l-0.2,21.1c0,0-1.2-2.1-1.9-3c-1.6-2-7.6-5-10-5h-1.9l0.4,10.7c0.2,5.9,0.6,10.9,0.7,11.1c0.2,0.2,5.2,1,11.1,1.8
				c11.9,1.6,14.1,1.5,18.4-1.4c1.4-0.9,3-3.2,3-3.2l0,17.4C488.7,773.8,484.2,773.1,480.4,772.4L480.4,772.4z"/>
			<path class="st1" d="M341.5,775.6c-2.2-2.3-8.3-8.8-13.5-14.4c-5.3-5.7-11.7-12.5-14.3-15.2c-2.6-2.7-9.6-10.2-15.6-16.5
				l-10.9-11.5l-0.3,8.2c-0.2,4.5-0.3,14.1-0.3,21.3c0,12.6,0,13.1,1.6,15.1c0.9,1.2,2.8,2.9,2.8,2.9s-4.4-0.1-7.7,0.1
				s-7.8,0.5-10.1,0.7c-2.3,0.2-6,0.4-6,0.4s2.3-1.8,2.9-3.1c0.9-2.1,1.1-6.4,1.2-28.4l0.1-25.9l-1.5-3.9c-0.7-1.9-1.9-3-2.8-3.7
				c-0.9-0.8-2.9-2-2.9-2s25.1-0.2,26.5,0.4c0.4,0.2,4.9,4.8,9.9,10.3c5,5.5,11.1,12.1,13.5,14.7c2.4,2.6,7.1,7.7,10.5,11.5
				c3.4,3.7,6.3,6.8,6.4,6.8s0.2-7.6,0.3-16.9c0-15.8,0-17.2-1.3-20c-0.8-1.7-2-3.8-2.8-4.6l-1.8-1.5h25.6c0,0-1.1,0.1-1.1,0.3
				c0,0.2-0.7,1.6-1.5,3.1c-1.8,3.5-1.8,2.1-1.8,43.4c0,18-0.3,34.1-0.3,34.1S343.6,777.9,341.5,775.6L341.5,775.6z"/>
			<path class="st1" d="M415.8,765.5c-0.4-0.1-3.9-0.4-7.8-0.7l-7.6-0.4l0.5-2.5c0.4-1.9-1.6-5.1-7.7-15.4c-4.2-7.1-8-13.1-8.3-13.5
				c-0.3-0.3-2.1,0.8-4.3,2.6l-3.7,3.2l0.2,10.1c0.2,9.3,0.3,10.3,1.7,12.1c1.3,1.8,2.4,2.5,2.4,2.5s-7.7-0.4-12.9-0.5
				c-5.3-0.1-11.8,0.2-11.8,0.2s1.8-1.7,2.7-2.6c1.4-1.5,1.6-2.4,1.9-10c0.2-4.6,0.3-16.8,0.3-27c0-16.4-0.1-18.8-1.2-20.8
				c-0.6-1.2-1.7-2.6-1.7-2.6l23.9-0.1c0,0-1.4,0.1-1.4,0.2s-1.4,1.6-2.1,3.3c-1.2,2.7-1.3,4.2-1.2,13l0.2,9.9l4.6-4
				c18.4-16,20.2-17.8,20.2-20.1l-1.2-2.3h22.5l-1.5,0.6c0,0-5.9,5.5-12.8,11.5c-6.9,6-13,11.4-13.5,12c-1,1.2-1.8-0.3,12.7,23.3
				c4.7,7.7,9.4,14.9,10.6,16.1l2.6,2.5l-3.1-0.4C415.2,765.4,416.1,765.6,415.8,765.5L415.8,765.5z"/>
			<path class="st1" d="M219.2,698.7c-7.1,0-11.5,1-18.4,4.3c-8.5,4-15.6,11.9-19.3,21.1c-8.7,22,4,46.4,27.3,52.7
				c4.5,1.2,14.5,1.2,19.3,0c12.4-3.2,22.9-12.2,27.6-23.8C266.4,727,247.4,698.8,219.2,698.7L219.2,698.7z M219.5,713.6
				c6.1,0,12.3,2.4,17.3,7.4c5.1,5.1,7,9.7,7,16.9c0,9.6-5,17.7-13.7,21.9c-3.4,1.7-5.2,2.1-9.4,2.3c-11,0.5-19.4-4.5-24-14.2
				c-1.5-3.2-1.8-4.6-1.8-9.7c0-5.4,0.2-6.4,2.2-10.3C201.8,718.6,210.5,713.6,219.5,713.6L219.5,713.6z"/>
			<path class="st1" d="M198.8,937.7c-2-4.3-7.4-10.1-12.3-13.4c-2.3-1.5-6.5-3.3-6.5-3.3s3.1-1.8,4.2-2.7s2.3-3.5,2.8-4.4
				c0.7-1.2,1.2-3.6,1.2-4.9c0.1-2.3,0.1-12.7,0.1-12.7c-1.2-39.8-0.1-80-0.2-81.6c0-2.9,0.6-3.1-1.9-7c-0.6-0.9-1.8-2.5-3-3.1
				c-1-0.5-3.5-1.2-3.5-1.2l7.4-2.5c7.2-2.4,32.3-9.2,32.3-9.2s-1.5,1.9-2.5,3.7c-3.9,7.7-4,8.7-3.9,45.3
				c0.1,18.4,0.3,41.7,0.5,51.7c0.4,20,0.5,20.4,5,25.5c1.1,1.3,2.7,2,2.7,2s-2.6,1.4-4.4,2.3c-4.7,2.4-11.6,9.4-14,14.4
				c-1.1,2.3-2.3,4.7-2.3,4.7S199.8,939.8,198.8,937.7L198.8,937.7z"/>
			<path class="st2" d="M72.8,866.5c-1.9-4.1-8.1-10.8-13-14.2c-2-1.4-4.7-2.8-4.7-2.8s2.4-1.5,3.1-2.2c2.6-2.7,3.5-3.8,4-7.9
				l0-32.6c0-45.8-0.7-82.6-1.5-85.7c-1.4-5.6-7.1-13-11.6-17.2c-1.6-1.4-2.7-2.2-4.4-2.8l31.4,0.1l9.6,17.2
				c5.3,9.5,13.8,24.8,18.9,34c5.1,9.2,9.5,16.7,9.7,16.7c0.4,0,8.3-16.5,25.1-52.4c4.2-8.9,8.3-17.2,8.3-17.2l33.7-0.1
				c0,0-2.1,1.4-3.9,2.4c-5.2,3-8.4,6-10.1,9.4l-1.6,3.2l0.2,49.7c0.1,29.2,0.5,50.5,0.8,51.7c0.3,1.1,1.8,3.2,3.2,4.7l2.9,2.7
				l-4,2.5c-4.6,2.9-8,7.6-11,14.1l-2.2,4.8c0,0-1.2-2.4-2.8-5.1c-1.6-2.7-3.6-6.7-9-11.6c-0.4-0.3-6.4-3.7-6.4-3.7s4-4.1,4.7-5.5
				c1.5-2.7,0.9-7.2,0.8-9l-0.9-49l-1.2,2.7c-2.1,4.6-11.8,25.9-18.4,40.9c-3.5,7.9-6.9,15.4-6.9,15.4s-7.2-13.8-15.5-29.5
				c-8.3-15.7-15.1-28.5-15.2-28.5c-0.2,0,0.2,54.2,0.5,67.3c0.2,11.3,0.8,13.1,5,17.8l2.9,1.9l-3.2,1.9c-6.4,3.8-10.4,9.7-13,14.7
				c-1.3,2.5-2.6,4.4-2.6,4.4S73.6,868.4,72.8,866.5L72.8,866.5z"/>
		</g>
	</g>
</g>
</svg>
