<?xml version="1.0" encoding="utf-8"?>
<!-- Generator: Adobe Illustrator 19.0.0, SVG Export Plug-In . SVG Version: 6.00 Build 0)  -->
<svg version="1.1"
	 id="svg2" xmlns:cc="http://creativecommons.org/ns#" xmlns:dc="http://purl.org/dc/elements/1.1/" xmlns:rdf="http://www.w3.org/1999/02/22-rdf-syntax-ns#"
	 xmlns="http://www.w3.org/2000/svg" xmlns:xlink="http://www.w3.org/1999/xlink" x="0px" y="0px" viewBox="-217 383.3 175.3 26.7"
	 style="enable-background:new -217 383.3 175.3 26.7;" xml:space="preserve">
<style type="text/css">
	.st0{fill:#FFFFFF;}
</style>
<g>
	<path id="path14" class="st0" d="M-196.3,404.9c0-0.3-0.3-0.4-0.3-0.4l-0.8-0.1c-0.3,0-0.3-0.6-0.3-0.6v-14.7
		c0-0.6,0.5-0.7,0.5-0.7l0.7,0c0.3,0,0.1-0.6,0.1-0.6c0-0.1-0.2-0.3-0.2-0.3h-5.1l-3,9.5l-3-9.5h-5.1c0,0-0.2,0.1-0.2,0.3
		c0,0-0.1,0.6,0.1,0.6l0.7,0c0,0,0.5,0.1,0.5,0.7v14.7c0,0,0,0.6-0.3,0.6l-0.8,0.1c0,0-0.3,0.1-0.3,0.4c0,0-0.1,0.5,0.2,0.5h5.8
		c0,0,0.3,0,0.3-0.4c0,0,0-0.5-0.4-0.5l-0.8-0.1c0,0-0.3,0-0.3-0.5v-8.3l3.5,10.4l3.5-10.4v8.3c0,0.5-0.3,0.5-0.3,0.5l-0.8,0.1
		c-0.4,0-0.4,0.5-0.4,0.5c0,0.4,0.3,0.4,0.3,0.4h5.8C-196.2,405.4-196.3,404.9-196.3,404.9"/>
	<path id="path16" class="st0" d="M-85,404.9c0-0.3-0.3-0.4-0.3-0.4l-0.8-0.1c-0.3,0-0.3-0.6-0.3-0.6v-14.7c0-0.6,0.5-0.7,0.5-0.7
		l0.7,0c0.3,0,0.1-0.6,0.1-0.6c0-0.1-0.2-0.3-0.2-0.3h-5.1l-3,9.5l-3-9.5h-5.1c0,0-0.2,0.1-0.2,0.3c0,0-0.1,0.6,0.1,0.6l0.7,0
		c0,0,0.5,0.1,0.5,0.7v14.7c0,0,0,0.6-0.3,0.6l-0.8,0.1c0,0-0.3,0.1-0.3,0.4c0,0-0.1,0.5,0.2,0.5h5.8c0,0,0.3,0,0.3-0.4
		c0,0,0-0.5-0.4-0.5l-0.8-0.1c0,0-0.3,0-0.3-0.5v-8.3l3.5,10.4l3.5-10.4v8.3c0,0.5-0.3,0.5-0.3,0.5l-0.8,0.1c-0.4,0-0.4,0.5-0.4,0.5
		c0,0.4,0.3,0.4,0.3,0.4h5.8C-84.9,405.4-85,404.9-85,404.9"/>
	<path id="path18" class="st0" d="M-185.8,387.9c-0.4-0.4-1.4-0.5-1.4-0.5h-6c0,0-1,0.1-1.4,0.5c0,0-0.8,0.4-0.8,1.7v13.8
		c0,0,0,0.8,0.6,1.3c0,0,0.7,0.6,1.2,0.6h7c0.4,0,1.2-0.6,1.2-0.6c0.6-0.5,0.6-1.3,0.6-1.3v-13.8
		C-184.9,388.4-185.8,387.9-185.8,387.9L-185.8,387.9z M-188.3,402.5c0,0.2-0.2,0.4-0.4,0.4h-2.8c-0.2,0-0.4-0.2-0.4-0.4v-12.4
		c0-0.2,0.2-0.4,0.4-0.4h2.8c0.2,0,0.4,0.2,0.4,0.4V402.5"/>
	<path id="path20" class="st0" d="M-103.3,387.9c-0.4-0.4-1.4-0.5-1.4-0.5h-6c0,0-1,0.1-1.4,0.5c0,0-0.8,0.4-0.8,1.7v13.8
		c0,0,0,0.8,0.6,1.3c0,0,0.7,0.6,1.2,0.6h7c0.4,0,1.2-0.6,1.2-0.6c0.6-0.5,0.6-1.3,0.6-1.3v-13.8
		C-102.4,388.4-103.3,387.9-103.3,387.9L-103.3,387.9z M-105.8,402.5c0,0.2-0.2,0.4-0.4,0.4h-2.8c-0.2,0-0.4-0.2-0.4-0.4v-12.4
		c0-0.2,0.2-0.4,0.4-0.4h2.8c0.2,0,0.4,0.2,0.4,0.4V402.5"/>
	<path id="path22" class="st0" d="M-175.2,397.5c0,0,2,0.1,2-1.4v-6.9c0,0-0.1-1.7-2.1-1.7h-9.4c0,0-0.3,0.1-0.3,0.3
		c0,0-0.1,0.5,0.3,0.5c0,0,1.1,0,1.1,0.6v15c0,0-0.1,0.3-0.4,0.3l-0.7,0.2c0,0-0.4,0.1-0.4,0.4c0,0,0,0.5,0.3,0.5h5.8
		c0,0,0.3-0.1,0.3-0.3c0,0,0-0.6-0.3-0.6l-0.7,0c0,0-0.4-0.2-0.4-0.5v-6.7c0,0,3.8,1.7,5.5,5.7c0,0,0.1,0.5,0,1c0,0-0.2,0.6-1.1,0.6
		c0,0-0.4,0-0.4,0.4c0,0,0,0.4,0.3,0.4h3.5c0,0,0.7,0.1,0.8-0.6C-171.6,404.7-170.4,401.2-175.2,397.5L-175.2,397.5z M-176.4,395.3
		c-0.1,0.4-0.4,0.9-1.2,0.9c0,0-1.2,0.2-2.3,0.4c-0.2,0-0.4-0.2-0.4-0.4v-6.1c0-0.2,0.2-0.4,0.4-0.4h2.9c0.2,0,0.4,0.2,0.4,0.4
		L-176.4,395.3"/>
	<path id="path24" class="st0" d="M-160.8,390.2V388c0-0.5-0.4-0.5-0.4-0.5h-10.2c0,0-0.4,0-0.4,0.5v2.2c0,0,0,0.5,0.1,0.5h0.4
		c0,0,0.3,0.1,0.3-0.2c0,0,0.1-0.6,0.5-0.6h2.3v14c0,0-0.1,0.4-0.4,0.4l-0.6,0.1c0,0-0.4,0.1-0.4,0.3c0,0-0.1,0.5,0.1,0.5h6.1
		c0.2,0,0.1-0.5,0.1-0.5c0-0.3-0.4-0.3-0.4-0.3l-0.6-0.1c-0.3,0-0.4-0.4-0.4-0.4v-14h2.3c0.5,0,0.5,0.6,0.5,0.6
		c0,0.3,0.3,0.2,0.3,0.2h0.4C-160.8,390.7-160.8,390.2-160.8,390.2"/>
	<path id="path26" class="st0" d="M-45.7,390.2V388c0-0.5-0.4-0.5-0.4-0.5h-10.2c0,0-0.4,0-0.4,0.5v2.2c0,0,0,0.5,0.1,0.5h0.4
		c0,0,0.3,0.1,0.3-0.2c0,0,0.1-0.6,0.5-0.6h2.3v14c0,0-0.1,0.4-0.4,0.4l-0.6,0.1c0,0-0.4,0.1-0.4,0.3c0,0-0.1,0.5,0.1,0.5h6.1
		c0.2,0,0.1-0.5,0.1-0.5c0-0.3-0.4-0.3-0.4-0.3l-0.6-0.1c-0.3,0-0.4-0.4-0.4-0.4v-14h2.3c0.5,0,0.5,0.6,0.5,0.6
		c0,0.3,0.3,0.2,0.3,0.2h0.4C-45.7,390.7-45.7,390.2-45.7,390.2"/>
	<path id="path28" class="st0" d="M-145.5,404.7c0-0.2-0.3-0.3-0.3-0.3l-0.7-0.1c-0.3,0-0.4-0.6-0.4-0.6l-4.2-14.9
		c-0.1-0.4,0.4-0.4,0.4-0.4l0.5-0.1c0.4,0,0.3-0.4,0.3-0.4c0-0.3-0.3-0.3-0.3-0.3h-7.1c0,0-0.3,0-0.3,0.3c0,0-0.1,0.4,0.3,0.4
		l0.5,0.1l0.4,0.4l-4.2,14.9c0,0-0.2,0.6-0.4,0.6l-0.7,0.1c0,0-0.3,0.1-0.3,0.3c0,0-0.1,0.5,0.2,0.5h5.6c0,0,0.3-0.1,0.3-0.4
		c0,0,0.1-0.5-0.2-0.5l-0.6-0.1c0,0-0.4-0.2-0.2-0.5l1.4-4.6h3.7l1.4,4.6c0.1,0.3-0.2,0.5-0.2,0.5l-0.6,0.1c-0.3,0-0.2,0.5-0.2,0.5
		c0,0.3,0.3,0.4,0.3,0.4h5.6C-145.4,405.3-145.5,404.7-145.5,404.7L-145.5,404.7z M-155.2,397.3l1.3-5.7l1.4,5.7H-155.2"/>
	<path id="path30" class="st0" d="M-55.3,404.7c0-0.2-0.3-0.3-0.3-0.3l-0.7-0.1c-0.3,0-0.4-0.6-0.4-0.6l-4.2-14.9
		c-0.1-0.4,0.4-0.4,0.4-0.4l0.5-0.1c0.4,0,0.3-0.4,0.3-0.4c0-0.3-0.3-0.3-0.3-0.3h-7.1c0,0-0.3,0-0.3,0.3c0,0-0.1,0.4,0.3,0.4
		l0.5,0.1l0.4,0.4l-4.2,14.9c0,0-0.2,0.6-0.4,0.6l-0.7,0.1c0,0-0.3,0.1-0.3,0.3c0,0-0.1,0.5,0.2,0.5h5.6c0,0,0.3-0.1,0.3-0.4
		c0,0,0.1-0.5-0.2-0.5l-0.6-0.1c0,0-0.4-0.2-0.2-0.5l1.4-4.6h3.7l1.4,4.6c0.1,0.3-0.2,0.5-0.2,0.5l-0.6,0.1c-0.3,0-0.2,0.5-0.2,0.5
		c0,0.3,0.3,0.4,0.3,0.4h5.6C-55.2,405.3-55.3,404.7-55.3,404.7L-55.3,404.7z M-65,397.3l1.3-5.7l1.4,5.7H-65"/>
	<path id="path32" class="st0" d="M-133,404.4L-133,404.4l0.1-2.8c0,0,0-0.2-0.5-0.2h-0.4c0,0-0.3-0.1-0.3,0.2c0,0-0.1,1.7-1.8,1.7
		h-4.6v-14.4c0,0,0.1-0.3,0.4-0.3l0.7-0.1c0,0,0.4-0.1,0.4-0.4c0,0,0.2-0.5-0.4-0.5h-5.5l-0.4,0.4c0,0,0,0.5,0.2,0.5l0.8,0.1
		c0,0,0.4,0.1,0.4,0.4v14.9c0,0,0,0.5-0.4,0.5l-0.7,0.1l-0.4,0.3c0,0-0.1,0.5,0.2,0.5h11.5C-133.7,405.3-133,405.2-133,404.4"/>
	<path id="path34" class="st0" d="M-123.4,387.4h-5.5l-0.4,0.3c0,0-0.1,0.7,0.3,0.7l0.6,0.1c0,0,0.5,0.1,0.5,0.5v14.8
		c0,0-0.1,0.6-0.5,0.6l-0.6,0.1c0,0-0.4,0-0.4,0.3c0,0-0.1,0.6,0.3,0.6h5.6c0,0,0.4-0.1,0.4-0.4c0,0,0.1-0.5-0.4-0.5l-0.6-0.1
		c0,0-0.4-0.3-0.4-0.7v-4.8l1.2-1.5l3.8,6.4c0,0,0.5,0.6,0,0.6l-0.4,0.1c0,0-0.4,0-0.4,0.3c0,0-0.1,0.6,0.2,0.6h5.6
		c0,0,0.2-0.1,0.2-0.4c0,0,0.1-0.5-0.4-0.5c0,0-0.8-0.1-1.2-0.8l-5-8.3c0,0-0.3-0.4,0.1-0.9l4.5-5.4c0,0,0.4-0.5,0.7-0.5l0.7-0.2
		c0,0,0.3-0.1,0.3-0.5c0,0,0-0.5-0.3-0.5h-5.6c0,0-0.4,0.1-0.4,0.4c0,0,0,0.7,0.2,0.7l0.9,0.1l-4.8,5.7V389c0,0,0.1-0.6,0.6-0.6
		l0.5-0.1c0,0,0.2-0.1,0.2-0.6C-123,387.7-123,387.4-123.4,387.4"/>
	<path id="path36" class="st0" d="M-73.5,395.7c0,0,1.2-0.4,1.2-1v-5.6c0,0-0.2-1.8-2-1.8h-9.5c0,0-0.3,0.1-0.3,0.4
		c0,0,0,0.5,0.3,0.5c0,0,1.2,0,1.2,0.6v14.8c0,0,0,0.6-0.5,0.6l-0.7,0.1c0,0-0.4,0.1-0.4,0.4c0,0-0.1,0.5,0.4,0.5h9.3
		c0,0,2.3,0.1,2.3-2v-5.7C-72.3,397.5-72.2,396.1-73.5,395.7L-73.5,395.7z M-75.7,402.4c0,0.2-0.2,0.4-0.4,0.4h-2.8
		c-0.2,0-0.4-0.2-0.4-0.4v-5c0-0.2,0.2-0.4,0.4-0.4h2.8c0.2,0,0.4,0.2,0.4,0.4V402.4z M-75.7,394.2c0,0.2-0.2,0.4-0.4,0.4h-2.8
		c-0.2,0-0.4-0.2-0.4-0.4V390c0-0.2,0.2-0.4,0.4-0.4h2.8c0.2,0,0.4,0.2,0.4,0.4V394.2"/>
</g>
</svg>
