<?xml version="1.0" encoding="utf-8"?>
<!-- Generator: Adobe Illustrator 19.0.0, SVG Export Plug-In . SVG Version: 6.00 Build 0)  -->
<svg version="1.1" id="Layer_1" xmlns="http://www.w3.org/2000/svg" xmlns:xlink="http://www.w3.org/1999/xlink" x="0px" y="0px"
	 viewBox="0 0 304.9 117.9" style="enable-background:new 0 0 304.9 117.9;" xml:space="preserve">
<style type="text/css">
	.st0{fill:#FFFFFF;}
</style>
<g>
	<path class="st0" d="M95.6,77.7l-3.6-3.1c0,0-1.5-0.1-2.1-0.1s-3.6-3.2-3.6-3.2s1.9-4.4,2.7-5.9s1-5.1,1-5.1s1.2-0.4,1.7-0.7
		s-0.2-2.8-0.2-2.8s1.5-0.3,2-1s1.4-3.7,1.5-3.9s0.6-2.3,1.2-3.2s4.3-6.9,4.4-7.6s-1.6-5.6-1.8-6.6s-2.8-4.8-2.1-6.6
		s-0.8-1.8-2.4-3.5S90,21,87.6,19.9s-2.3-1.4-2.3-1.4l-1.6-0.2l-0.9-1.9l-3.3,0.3c0,0-0.5-1.4-2.6-2.4s-2.6-0.4-7.9-0.2
		s-7.2,0.2-17.6,5.6c-1.1-3-14.5-8.2-14.5-8.2L35.3,12l-2.8-1.8L31.8,11c0,0-5.6,2.4-6.5,2.4s0-0.8-0.6-0.5S16,17.6,16,17.6v1.9
		c0,0-1.8-0.1-2.2,0S7,25.3,6.7,26.2s-4.4,9-4.4,9l2.4,2.3L3.9,41c0,0-3.1-0.4-3.3,0s0,7.3,0,7.5s1.5,5.2,1.5,5.2h0.8
		c0,0-0.3,0.3,0,2.1s4.4,12.1,4.4,12.1l4.2-0.6l0.9,4.8l-2.8,1.7c0,0,1.9,1.6,2.1,2.5s6.1,13.4,7,14.5c0.8,1.2,1.5,2.5,0.8,3.2
		s-7,6.5-7,6.5l0.5,2.5c0,0-4.7,6.2-6.7,8s-3.7,6.5-1.7,5.3c2-1.2,10.3-9.3,10.3-9.3l15.5-9.7c0,0,0,0-0.1-0.6s-0.4-0.4-0.9-0.9
		s-1.1-0.9-0.2-1.8s0.3-0.7-0.3-1.2s-1.6-2.1-1.5-3.2s-0.2-5.4-0.8-6.4s-1.3-1.5-1.4-2.4s0.5-2.8,0.2-2.7s-2.4-0.4-2.7-1.1
		s0.1-0.8,1.1-1.4s0.1-0.8-0.6-1.8s0.2-2.3-0.1-2.9s-2.6-1.6-3.6-2.6s1.6-1.1,1.6-1.1s1.8,0.1,1.5-0.7s-4.8-17.5-4.6-18.2
		s0.6-12.7,0.5-13.3s1.5-1,1.5-1s-0.1-0.6-0.7-0.8s-0.7-1.5-0.7-1.5s1.1-1,1.4-1.4s1.2-3.6,1.9-3.8s5-4.2,6.2-4.6s5.1,0.3,6.1,0.9
		s5.4,3.8,5.4,3.8v1.6l0.9,0.4c0,0,0.1-0.5,0.8-0.3s2.8,3.1,2.8,3.1l-0.2,9.7l0.6,0.3l0.3,0.4l-0.9,0.8l-0.4,2.9c0,0,1,0.4,1.2,0.4
		s0.4,0.3-0.2,0.6s-0.6,10.5-0.6,10.5l1.8,0.2l-0.5,5.3l-1.1,1.3l0.1,10.1l0.4,3.8c0,0-1.5,1.4-1.9,2.5s-0.2,5.3-0.2,5.3l-3.2,3.3
		c0,0-0.3,0.9-0.7,2.1S35,94.9,36,94.8s3.4-0.7,3.4-0.7s12.9-4.9,14.3-5.5s3.6-1.1,5.8-1.7s2.4-1.1,1.5-2.3s-3.2-4.6-3.2-4.6
		s0.4-2.3,0.3-3.9s-0.4-1-0.8-1.9s-0.5-6.2,0-10.5c-1.9-0.3-2.4-1.8-2.4-1.8l1.6-1.8l0.4-22.9l0.8-0.2c0,0,0.6-3.2,0.3-4.5
		s1-3.5,1-3.5l1.2-0.8l0.1-1.5c0,0,2.9-2.3,4.3-3.2c1.4-0.9,3.6,0,3.6,0s1.8-1.6,5.3-0.7s6.4,4.7,8.8,8.3s1.9,5.9,1.9,5.9l2.7,0.1
		l-2.6,4.3l-0.3,3.3l1.7,1.6l-1.3,3.2l0.1,4.6l-2.3,3.3l0.4,3l-1.9,2.8l-0.8,2.5c0,0-0.6,0.8-1,1.6s-3.4,5.9-3.4,5.9
		s0.5,0.6,0.2,1.8s-1.8,0.6-1.8,0.6s-3.6,3.6-6.8,6.9c-3.2,3.3-1.8,3.3,0.9,2.4s8.3-3.2,8.3-3.2l6.2-1.2c0,0,6.2-0.1,17.3-1.5
		C98.1,78.6,95.6,77.7,95.6,77.7z"/>
	<path class="st0" d="M162.7,60.7c-0.3,0,0.3-2.8,0.3-3.8c0.1-1.1-1.5-1.6-2-2.5c-0.5-0.9,1-0.8,1.7-1.6c0.7-0.8-0.1-8.9-0.2-9.6
		c-0.1-0.7-1.6-1.8-1.9-2.3c-0.3-0.4,1.8-1.3,1.8-1.8s0.4-15.3,0.8-16.3c0.4-0.9,2.9-3.8,3.9-5s2.8-0.7,5.7-2.2
		c2.9-1.6,1.8-2.6,0.8-2.5c-1.1,0.1-14.6-0.2-15,0c-0.4,0.2,0.8,0.1,1,2.2s-3.6,4.5-3.8,1.9c-0.2-2.6-0.5-3.3-1.3-3.5
		c-0.8-0.2-22.8,0.2-23.7,0.6c-0.8,0.4,0,1.6,2,2.3c2,0.8,4.3,0.8,6.8,3.1c2.5,2.3,7.4,10.7,9,12.2s-1.2,2.9-1.6,4.4
		c-0.4,1.5,2,1.3,2.1,1.6c0.1,0.3-0.7,4.3,0.6,4.2s1.6,0.4,1.5,0.9c-0.1,0.5-2.3,2.5-2.3,2.8s0.7,4.8,0.6,5.4
		c-0.1,0.7-1.8,2.7-2.3,2.8c-0.6,0.1-1.7,0.7-1.7,0.7s0.7,0.8,0,1c-0.7,0.2-2.8,1.9-5.5,3.8c-2.7,1.8-7.8-0.2-9.5,0
		c-1.7,0.2-2.8-3.3-4.2-2.7c-1.4,0.6-1.8,0.4-3.2,0c-1.3-0.4-7.9-9.2-8.4-9.8c-0.5-0.6-0.3-21.5-0.1-21.8s0.4-0.8,0.4-0.8
		s-0.2-1.5,0.4-2.3c0.6-0.8,4.8-3.3,6.6-5.2c1.8-1.9-0.3-2.1-0.6-2.1c-0.3,0-6.6,0.3-6.6,0.3l-1.3-0.8h-7.3c0,0,0.5,3.5-0.3,3.1
		c-0.8-0.4-2.6-3.2-3.7-3.1c-1.1,0.1-13.9,0.8-12.4,0.8c2.5-0.1,11.4,5.1,11.8,5.7c0.4,0.7,1.1,0.6,1.8,0.8s3,3.8,3.7,4.8
		c0.7,1,0.1,3.1,0.7,4.1s0.3,1.8-0.4,2.4c-0.7,0.7-0.3,2.3-0.4,3.2c-0.1,0.9,2.3,2.4,0.8,3.4s-1.8-0.3-2.4-0.1
		c-0.6,0.3-3.3,7.1-3.6,7.8s0,4.3-0.3,5.5s-3.2,1.8-1.8,2.6s2.8-0.8,5.2,3.9c2.3,4.7,10.3,7.6,12.1,8s12.2,1.4,14.2,1.3
		c2-0.1,0.5-0.8,2.1-1.4c1.6-0.6,1,1.3,1.5,1.5c0.5,0.2,2.2-0.4,6-1.1c3.8-0.7,2.8-1.6,5.3-3.8c2.6-2.2,3-0.3,2.7,0.6
		c-0.3,0.8-1.8,2.8-1.8,3.3c0,0.4-0.3,1.6-0.5,2.3s0.2,1.5-0.2,2.8s-6.1,6.4-6.9,7.4c-0.8,1,0.8,0,0.4,1.8s-8.3,3.5-9,3.3
		s-0.5-1.2-1.3-0.5c-0.8,0.7-6.2,2.3-6.7,2.2c-0.5-0.2-0.9-0.6-2.3-0.2s-7.9,1-9.7,0.3c-1.8-0.7-0.9-0.8-1.9-0.4
		c-1,0.3-2.8-0.1-3.4-0.7s-0.4-0.6-2-0.6s-1.3,0.2-2.3-0.3c-1-0.4-1.4-1.1-2.5-1.1c-1.1,0-1.4-0.3-2.3-0.6c-0.8-0.3-0.9-0.8-3.5-0.3
		c-2.6,0.6,1.2,0.9,1.9,1.5s1.8,2.1,2.8,1.9c1-0.2,2.6,0.7,3.3,1.7c0.7,1,2.7,0.8,3.9,1.8c1.3,0.9,0.8,0,3.2,0.5s3.9,2.3,4.6,2.3
		c0.7,0,5.2,1.1,5.4,0.8s1.3-0.7,2.3-0.6c1.1,0.1,0.6,1,1.4,1s3.9,0.9,4.8,0c0.9-0.9,0.8-1.5,3.1-1.6c2.3-0.1,0.4,0.7,2.1,1.4
		s0.7-1.1,2.8-2.4s1.1-0.5,1.8-0.6c0.8-0.1,1.8,0.8,2.6,0.6s1.9-1.5,3.9-2.3s6-2.8,7.4-3.8s5.2-4.2,5.8-5.6c0.7-1.4,1.7-2.5,2.8-4
		c1.1-1.5,1.7-1.7,1.7-1.9s-1.3,0.1,1-4s-0.1-6.5,1.1-7.8C163.8,60.8,163,60.7,162.7,60.7z"/>
	<path class="st0" d="M232.9,66C233,66,233,65.9,232.9,66L232.9,66z"/>
	<path class="st0" d="M292.5,74.1c0.5-0.3,0.2-2.3,0.8-2.4c0.6-0.1,1,0.5,1.4,0s3.2-5.3,3.8-6.9c0.7-1.7,0.3-2,0.8-2.3
		c0.5-0.4,4.9-3.3,4.9-4.8c-0.1-1.5,1.3-1.6-1.9-7.4s-10.1-12.3-10.5-12.5c-0.4-0.3-1.9-0.1-2.4-0.3c-0.5-0.2,0.1,0-0.5-0.5
		c-0.6-0.5-0.8-0.9-1.5-0.9c-0.7,0-0.9,0.5-1.7,0.1c-0.8-0.4,0.2,0.3-0.8-0.4s-1.2-0.2-2.7-0.5c-1.5-0.3-2-0.2-3.1-0.5
		c-1-0.4-1-0.1-1.8,0.2c-0.7,0.3-1.9,0.3-2.7,0.3c-0.8,0-0.3,0.4-1,0.6c-0.7,0.2-1.8,0-2.3,0.1c-0.5,0.1,0.6,0.9-1.2,1.2
		c-1.8,0.3-3.6-0.1-4.2,0s-0.6,0.8-1.7,1.4c-1,0.6-2.1,1-2.8,1.4s-0.5,0.8-1.8,1s-1.1,0.3-2,0.3c-1,0-1.8,1.3-1.6-0.1
		c0.2-1.5,0.1-1.6,0.6-1.9c0.5-0.3,0.5-0.8,0.5-1.4c0-0.6-0.3-4.5-0.3-5.7s-0.6-4.4-0.2-4.8c0.5-0.5,1.2-1.3,1.3-2
		c0.1-0.7-0.2-1.6,0-1.8c0.2-0.3,1.1,0.4,1.6-0.8s-0.3-1.4,0.5-1.2c0.8,0.2,1.9,0,2.8-0.3c0.8-0.3,1.8-1.3,2.8-1.4
		c0.9,0,2.2,0,2.7-0.2c0.5-0.2,0.1-0.6,3.5-0.8c3.4-0.2,4.9-0.5,5-0.7s-0.4-1.1,0.2-1.3c0.6-0.2,2-0.5,2.6,0.4s2-0.4,2.8-0.5
		s3.2-0.4,3.5-0.7c0.3-0.3,1.3-2.1,1.3-2.1s-5.1,0.4-6,0s-1.4,0-2.1,0s-15.8-0.3-17-0.2c-1.3,0.2-2.3,0.8-3.3,1.2s-3-0.7-4.8-1.2
		c-1.8-0.5-12.4,0.3-12.4,0.3s0.1,0.3,0.2,0.7c-0.2-0.5-0.5-1-1.1-0.9c-2.2,0.2-5.7,0.9-6.1,0.9s-6,0.4-6.2,0.4s-0.4-1.3-0.9-1.3
		s-7.8,0.3-9.1,0.4s-1.9,0.2-2.5,0.1s-1.2-1.3-0.3-1.8s3.1-1.6,3.8-2.3s14.7-7.4,15.4-7.8s1.8-0.4,2.6-1.1s1.4-1.2-1.2-0.8
		s-1.6,0.4-3.5,0.6s-9.1,0-9.6,0.2s0.3,0.5-0.8,0.8s-0.8,1-2.1,0.3s-0.3-1.2-2.6-1.1s-5.7-0.1-6.4,0S210,2,209.5,2.5
		s-4.7,4.4-5.4,5.1c-0.7,0.7-3.8,4.6-5,5.3s-2.3,1.1-2.9,1.1l-12.9-0.9l-6.2,6.9c0,0,2.3,2.1,0.7,3.3s-3.1,0-3.1,0
		s-7.5,10.9-8.1,12.7s0,2.8,0,2.8s4.1-4.4,6.1-5.6s5.9-2.1,6.2-3s-0.2-1.8,0.3-2s7.6-2.7,8.5-2.3s-7.3,8.8-7.6,9.4s0.3,1.3-0.3,1.4
		s-3.5,1.7-3.8,3s-3.4,5.1-3.8,5.3s1.1,1.5,0.2,2.5s-1.6,1.5-1.6,1.9s-0.3,9.2,0.3,10.6s-0.1,2.2,2.6,0s1.6,2.4-0.2,3.3
		s-0.7,1.6,0,2.5s2.4,5.6,7.6,7.8s5.6,2.3,8.3,2.3s4.1,0.1,7.3,1.5s4,0.6,5.2,0.8s2.9,0.8,4.3,1.8s2.3-0.5,3.7,0s-0.1,0.6,0.9,0.9
		s1.3-0.1,2.6,0s1.1,0.8,2.5,0.9s2.3-0.5,3.1,0s0.1,0.8,1.6,1.3s2,2,2.8,0s2-4.6,1.6-5.4s-1.1-0.6-0.7-1.4s0.8-0.6,1.8-1.2
		s1.1-1.4,0.9-1.7s5.4-7.2,6-7.4c0,0,0.1,0,0.1,0c-0.2,0-0.5-0.1-0.4-0.7c0.1-1.1,1.4-1.9,1.9-1.5s2.5-4.1,3.3-4.9s2.7-3.9,3.4-4.4
		s1.3-2.6-1.3-1.1s-3.8,2.4-3.9,2.8s0.4,1.4-0.5,1.6s-1.4-0.4-2.4,0.1s-5.6,3.2-5.9,3.8s1.1,1.6,0.3,1.9s-2.5,0.1-3.1,0.3
		s-8.4,7.9-10.6,8.8s-3.6,0.9-5.8,0.3s-7.9-3.3-10.3-4.8s-6.1-5.6-6.1-5.6s-1.8,1-2.3,0.1s0.8-1.9,1.3-2.1s-2.1-4.1-2.6-6
		s-0.9-5-0.8-6s-0.1-2.3-0.1-2.3s2.1-1.4,1.8-1.9s-1.4-1.3-0.6-1.9s1.6-4.3,3.2-5.5s4.4-5.1,5.8-6.2s3.9-4.9,4.8-5s5.1-1.8,6.6-2.2
		s4.5-0.4,5.8-0.7s3.4-0.8,3.8-0.8s0.8,1.3,1.5,1.3s0.8-1.6,1.5-1.4s6.3-0.6,7.3-0.7s4.3-0.1,5.1-0.3s8.1-5.6,8.1-5.6s0-0.1,0-0.1
		c0.3,1.1,0.7,2.5,1.4,3.7c1.1,2,1.9,2.4,1.9,2.4s0.1,5.1-0.1,7.5s-0.8,2.6-0.3,3.6s1.4,2.4,0.5,2.9s-1.3,2.4-0.9,4.4
		s0.4,4.9,0.4,4.9s2.3,2,1.5,2.4s-1.9,1.9-2.1,2.9s0.1,9.9-0.4,13s0.3,5.9,0.3,5.9s2-0.3,1.3,1.1s-1.9,1.8-1.9,1.8s1.1,1.4-0.8,3.4
		s-3.8,4.5-5.8,5.5s-1.4,2.6-2.4,2.9s-3.1,0-3.1,0s-0.8,2,1.3,2.6c2,0.6,5.3,1.5,5.9,1.3c0.6-0.2-1.1-1.1,0.8-0.7
		c2,0.4,2.4,0.6,3,1.5s1.9,0.4,2.9,0.8c1,0.3,2.9,1.3,4.1,1.5c1.2,0.2,7,3.9,8.5,4.8s2,0,2.7,0.3c0.7,0.4,4.8,3,5.8,3.6
		c1,0.5,3,1.3,3.9,2.2c0.9,0.9,5.6,3.6,6.5,3c0.9-0.5,0.5-0.1-0.4-0.8s-5.5-5.1-6.3-5.7c-0.7-0.6-3-2.5-3.7-3.5
		c-0.7-1-0.9-3.5-1.7-4s-3.3-3.1-5.1-7.7c-1.8-4.5-3.2-13.6-3-16.3c0.2-2.6-0.8-1.8-2.1-2.2s1-1.7,1.7-1.8c0.6,0,0.4-7.2,0.4-8.2
		s0.2-4.2,0.2-4.2s2.8-1.9,4.5-2.3s3.6-1.8,5.8-2s2.8-0.7,3.6-0.2c0.8,0.5,1.8,0.7,2.5,0.6s0.5-0.6,1.5-0.1s1.3,0.8,2,1.1
		s1.6,0.2,2.6,1s1.5,1.3,2.2,1.3c0.7,0,2.1,0.3,3.8,2.3s2.1,2.5,2.2,4s0.9,1.3,0,4s-0.2,5.5-1.3,6c-1.1,0.4-1.3,0.8-1.3,1.6
		s0.8,3.1-0.1,3.4c-0.9,0.3-2.5-0.3-2.5,1.2c0,1.5,0.2,2.4-0.3,2.7c-0.5,0.3,0.5,2.4,0.5,3s0.6,6.2,0.4,7.2c-0.2,1,1.4,7.6,2.3,8.6
		c0.8,1,1.5,2.8,1.5,3.4c0,0.7,0.4-0.3,1.2,0.2c0.8,0.5,0.5,1,1.1,2.3c0.6,1.3,0.6,2.7,1.1,3.3c0.5,0.5,0.4,1.8,1.2,1.9
		c0.8,0.1-0.1-1.9,0.8-1.7c0.9,0.2,1.5,2.4,2.6,4.6s8.5,10.3,9.3,10.2c0.8-0.1,0.7-0.4,0-1.2s-4.1-7.4-5.3-10.1
		c-1.1-2.7-1.2-6.7-2.3-7.4c-1.1-0.7-2.3,0-2.5-0.3c-0.3-0.2-0.3-3.4-0.2-3.9c0.1-0.5-1.9-1.8-2.3-5.2c-0.4-3.5,0-8.6,0.7-10.2
		c0.7-1.6,1.6-2.9,1.3-3.8C292.7,74.4,292,74.4,292.5,74.1z"/>
</g>
</svg>
