<?xml version="1.0" encoding="utf-8"?>
<!-- Generator: Adobe Illustrator 19.0.0, SVG Export Plug-In . SVG Version: 6.00 Build 0)  -->
<svg version="1.1" id="Layer_1" xmlns="http://www.w3.org/2000/svg" xmlns:xlink="http://www.w3.org/1999/xlink" x="0px" y="0px"
	 viewBox="-178 109 254.1 576" style="enable-background:new -178 109 254.1 576;" xml:space="preserve">
<style type="text/css">
	.st0{fill:#FFFFFF;}
</style>
<g>
	<path class="st0" d="M-92.8,642.2v-82.7h16c9.3,0,15,5,15,16.6v12.3c0,7.5-2.3,11.3-5.5,13.2c3.2,2.2,5.5,5.9,5.5,12.2v12
		c0,11.3-6.1,16.4-15,16.4L-92.8,642.2L-92.8,642.2z M-81.8,606.3v25.5h4.2c3.8,0,4.8-2,4.8-5.9v-14c0-4.1-1.3-5.6-4.9-5.6
		L-81.8,606.3L-81.8,606.3z M-81.8,570v27.3h4.1c3.9,0,4.9-1.4,4.9-5.9v-15.9c0-3.8-1.2-5.6-4.8-5.6L-81.8,570L-81.8,570z
		 M-35.9,625.4h-10l-1.4,16.8h-11.1l10-82.7h15.8l9.6,82.7h-11.6L-35.9,625.4z M-40.8,568.8h-0.6c-0.7,10-2.1,27.4-2.5,33l-1.3,14.2
		h8.6l-1.3-14.2C-38.3,596.1-39.9,578.9-40.8,568.8 M-125.6,642.2h-9.6v-82.7h15.2l12.3,67.7c-1-16.2-2.4-35.8-2.4-52.5v-15.3h9.6
		v82.7h-14l-12.3-66.1c0.8,15.3,1.1,27.5,1.1,40.2L-125.6,642.2L-125.6,642.2z"/>
</g>
<path class="st0" d="M16.5,109h-134.9c-32.9,0-59.6,26.8-59.6,59.6v456.7c0,32.9,26.7,59.7,59.6,59.7H16.4
	c32.9,0,59.8-26.8,59.8-59.7V168.6C76.1,135.8,49.4,109,16.5,109z M-31.9,199.5c3.6-0.5,8.3-8.6,12.3-16.9c3.1,0.2,4.1-2.8,5.1-4.5
	c3.3-5.3,6.9-9.9,2.3-13c10.4-18.6,3.7-31.2-1.9-31.7c-2.4-4.7-6.3-7.6-13.3-10.1h43.6c25,0,45.5,20.5,45.5,45.6v220.5
	c-1.2-3.3-2.9-6.5-5.2-9.5c0-6.1-6.5-6-8.3-8.3c-1.6-1.9,1.7-3-9.7-5.6c-2.1-1.2-3.8-17.9-3.8-17.9c-1.6-10.8-5.5-18.1-11.2-29.5
	c-2.9-5.8-4.2-24-7.3-33.2c1.7-42.4-11.8-54.7-22.8-61.6c-4.1-2.7-6.2-4.6-10.3-7L-17,215c-3.2-3-9.6-6.3-15.1-8.8
	C-33.8,204.5-33,201-31.9,199.5z M-118.4,671c-25.2,0-45.6-20.4-45.6-45.6V168.7c0-25.2,20.4-45.6,45.6-45.6h77
	c-14.9,5.7-17,12.2-17.5,32.8c-2.5,0.2-7.8-2.1-6,10.4c0,0,1,8.3,4.3,6.9c-3.2,22,0.6,23.7-22.3,24.7l-1.1,1.6
	c-22.8,2.2-30-0.7-49.3,38.3c0,0-4.9,12.1-6.4,17.1c-4.8,10-16.2,31.9-19.7,46.1c-1.1,4.8-3.3,6.4-0.2,13.3c4.4,10-3,12.6,22.8,11.9
	v5.9c0,0-6.9,5.9-8.3,9.5c-1.4,3.6-5.4,21.4-5.2,29.7c0.5,22,18.4,40.4,23.8,62.4l11.8,1.7c6.8,15.2,35.9,56.4,41.8,61.9
	c1.4,3.9,8.8,8.6,13.1,13.3c3.6,3.4,24.6,26.4,49.3,40.6c-0.1-0.1,4,8.2,6,14.8c-8.2,6.6,7.7,18.7,12.5,38.6
	c0.3,2.6-4.6,5.4,2.7,11.9c-0.5,30.2-9.6,46.1,5.7,54.5H-118.4z M62.1,625.5c0,23-16.5,41.7-38.3,45.1h-0.4
	c20-12.1,7.6-35.1,3.8-48.6c-0.3-0.8,0.3-1.7,0.6-2.4c1.1-1.9-1.1-6.1-1.1-6.1c-2.3-2.1-3-13.5-4.3-18.5c-2.2-8.6,3.7-23.3,3.7-28.3
	c0-4.9-3.8-11.8-10.7-20.6c-1.7-1.9-6.6-44.7-11.1-55.6c-6.2-15-8.2-12.6-15.4-30.4c-5.8-12.6-1.3-31.1-14.1-74.1
	c0.1,0.1,2.9-2.7,2.9-2.7s-10.2-37.2-13.5-47.4C-39.1,325.8-45,325-45,325s0.1-4.1,0.3-5.2c0.5-1.6,12.4-32.7,13.4-33.7
	c0.1-0.7,17.3-12.4,17.6-10.7c1.4,7.7,8.1,46.3,10.9,52.5c2.9,6.3,12.8,25.3,17.5,37c-17.9,4.3-31.1,20.3-31.1,39.5
	c0,22.4,18.1,40.6,40.6,40.6c17.2,0,31.9-10.6,37.8-25.6h0.1V625.5z"/>
</svg>
