<?xml version="1.0" encoding="utf-8"?>
<!-- Generator: Adobe Illustrator 19.0.0, SVG Export Plug-In . SVG Version: 6.00 Build 0)  -->
<svg version="1.1" id="Layer_1" xmlns="http://www.w3.org/2000/svg" xmlns:xlink="http://www.w3.org/1999/xlink" x="0px" y="0px"
	 viewBox="-186 361.2 238 70.8" style="enable-background:new -186 361.2 238 70.8;" xml:space="preserve">
<style type="text/css">
	.st0{fill:#FFFFFF;}
</style>
<path class="st0" d="M48.9,374.5H32.6l-11.9,20.6h6.5l3.5-6h8.5l-3.5,6h6.5l3.3-5.7l0,0c1.1-2,1-2.9-1.3-3.1c2.9-0.3,4.2-2,5.6-4.4
	l1.7-2.9c0.4-0.6,0.6-1.3,0.6-2C52.1,375.5,50.9,374.5,48.9,374.5z M43.7,381.3l-0.7,1.2c-0.4,0.6-1,0.9-1.7,0.9H34l1.9-3.3h7.2
	C43.8,380.1,44.1,380.7,43.7,381.3z M25.1,374.5h-39.7l-11.9,20.6h6.5l3.2-5.6l1.5-2.6h6.1l6.5-4.3h-10.1l1.4-2.5H1.1l6.9-4.6
	l-8.1,14l-0.7,1.2c-1.4,2.4-0.3,4.4,2.5,4.4h11.4c2.8,0,6.2-2,7.6-4.4l6.8-11.8C29.1,376.5,27.9,374.5,25.1,374.5z M19.8,381.3
	l-4.2,7.3c-0.4,0.6-1,0.9-1.7,0.9h-6c-0.8,0-1-0.6-0.6-1.4l3.8-6.6c0.5-0.8,1.3-1.3,2.2-1.4h5.8C20,380.1,20.2,380.7,19.8,381.3z
	 M-10,407.3l13.9-9.2h-38.1L-53.8,432h36.4l5.3-9.2h-25.6l2.5-4.3h8.2l10.7-7.1h-14.8l2.4-4.1H-10z M-48.3,407.3l13.9-9.2h-38.1
	L-92.1,432h36.4l5.3-9.2H-76l2.5-4.3h8.2l10.7-7.1h-14.8l2.4-4.1C-67,407.3-48.3,407.3-48.3,407.3z M32.1,398.1h-28L-15.5,432h28
	c4.6,0,10.2-3.3,12.5-7.2l11.2-19.5C38.5,401.3,36.7,398.1,32.1,398.1z M23.3,409.3l-6.9,12c-0.7,0.9-1.7,1.5-2.8,1.5H0.5l8.9-15.5
	h12.9c0.9,0,1.4,0.4,1.4,1C23.6,408.6,23.5,409,23.3,409.3L23.3,409.3z M-23.2,361.2h-28l-19.6,33.9h28c4.6,0,10.2-3.3,12.5-7.2
	l11.3-19.5C-16.7,364.5-18.6,361.2-23.2,361.2z M-31.9,372.4l-6.9,12c-0.7,0.9-1.7,1.5-2.8,1.5h-13.1l8.9-15.5H-33
	c0.9,0,1.4,0.4,1.4,1C-31.7,371.8-31.8,372.1-31.9,372.4L-31.9,372.4z M-140.4,361.2l-12.3,21.3l-3.8-21.3h-9.9l-19.6,33.9h10.6
	l11.7-20.3l3.7,20.3h10.7l19.5-33.9H-140.4z M-128.8,411.4h-17.4l1-1.8c0.7-1.3,2.4-2.3,3.6-2.3h16.8l13.9-9.2h-30
	c-4.6,0-10.3,3.3-12.6,7.3l-3.4,5.9c-2.3,4-0.4,7.2,4.2,7.3h17.5l-1.6,2.7c-0.6,0.9-1.7,1.5-2.8,1.5h-17.2l-13.9,9.2h29.9
	c4.6,0,10.3-3.3,12.6-7.2l3.5-6.1C-122.4,414.7-124.2,411.4-128.8,411.4z M-82.9,398.1h-28l-19.5,33.9h10.6l5.8-10h17.3
	c4.6,0,10.2-3.3,12.6-7.2l5.5-9.5C-76.4,401.4-78.2,398.1-82.9,398.1z M-91.6,409.3l-1.2,2c-0.6,0.9-1.7,1.5-2.8,1.5h-13.1l3.2-5.5
	h12.8C-91.4,407.3-90.9,408.2-91.6,409.3L-91.6,409.3z M-65.3,370.4l13.9-9.2h-38.1l-19.6,33.9h36.4l5.3-9.2H-93l2.5-4.3h8.2
	l10.7-7.1h-14.9l2.4-4.1C-84.1,370.4-65.3,370.4-65.3,370.4z M-103.6,370.4l13.9-9.2h-38.2l-19.5,33.9h36.4l5.3-9.2h-25.6l2.5-4.3
	h8.2l10.7-7.1h-14.9l2.4-4.1C-122.4,370.4-103.6,370.4-103.6,370.4z"/>
</svg>
