<?xml version="1.0" encoding="utf-8"?>
<!-- Generator: Adobe Illustrator 19.0.0, SVG Export Plug-In . SVG Version: 6.00 Build 0)  -->
<svg version="1.1" id="Layer_1" xmlns="http://www.w3.org/2000/svg" xmlns:xlink="http://www.w3.org/1999/xlink" x="0px" y="0px"
	 viewBox="0 0 1206 430" style="enable-background:new 0 0 1206 430;" xml:space="preserve">
<style type="text/css">
	.st0{fill:#FFFFFF;}
</style>
<g>
	<path class="st0" d="M127,1c3.1,0.5,6.2,1,9.3,1.3c14.7,1.8,27.8,7.9,40.4,15c24.7,13.8,47.9,30,70.3,47.3
		c15.5,12,30.9,24.1,46.2,36.4c14.1,11.4,28,23,41.8,34.7c16.6,13.9,33,27.9,49.5,41.9c10.1,8.6,20.2,17.3,30.4,26
		c0.9,0.7,1.8,1.4,3.2,2.4c1-3.4,2-6.3,2.8-9.3c6-23.1,10.4-46.5,11.1-70.3c0.3-10.9-0.5-22-1.7-32.9c-1.2-10.7-3.4-21.3-5.2-32
		c-0.1-0.8-0.1-1.6-0.2-2.9c26.5-11.3,53-22.5,80.5-34.1c-1.5,6.8-2.5,12.6-4,18.3c-6.4,24.7-11.3,49.6-15.7,74.7
		c-1.6,8.8-2.8,17.7-3.8,26.6c-0.6,5-2.3,9-6.1,12.6c-7,6.7-13.5,13.8-20.2,20.8c-0.9,0.9-1.6,2-2.7,3.4c3.2,4.1,6.4,8.2,9.6,12.2
		c3.4,4.3,6.8,8.6,10.4,12.8c1.8,2.1,2.3,4.2,2.2,6.8c-0.7,17.3-1.4,34.6-2,51.9c-0.1,3.2-0.4,6.3-0.3,9.5c0.1,2.7-0.9,4.3-3.3,5.5
		c-7,3.5-13.8,7.3-20.7,11c-13.5,7.2-27,14.5-40.5,21.7c-1.6,0.9-3.2,1.7-5.2,2.7c-0.5-0.8-1-1.4-1.2-2.1
		c-5.9-18.9-16.7-35-28.9-50.3c-12.1-15.2-25.8-28.7-40-41.9c-19.4-18-39.9-34.8-61.1-50.6c-11.1-8.2-22.3-16.3-33.5-24.4
		c-1.2-0.9-2.5-1.6-4-2.6c-0.6,1-1.2,1.8-1.5,2.7c-9,27.8-17,55.8-23.7,84.3c-4.4,18.9-8.1,38-10.7,57.2c-2.8,20-4.6,40-3.7,60.1
		c0.4,9.2,2.2,18.4,3.4,27.6c0.2,1.6,0.6,3.2,1,5.2c-4.5,2-8.9,4-13.3,5.9c-33.1,14.3-66.2,28.7-99.3,43c-1,0.4-1.9,1.2-2.8,1.9
		c-0.7,0-1.3,0-2,0c0.1-0.6,0.2-1.3,0.5-1.9c9.1-27.1,18.6-54,27.2-81.2c11.1-35,22.2-70,32.2-105.3c12.5-44.2,23.9-88.7,35.8-133.1
		c1-3.8,0.8-4.3-2.5-6.6c-1.1-0.8-2.2-1.5-3.4-2.2c-15.8-9.9-31.6-19.8-47.3-29.8c-12.7-8-26.2-14.6-40.7-18.6
		C57.3,45,31.7,46.4,7.5,60.5c-0.8,0.5-1.8,0.7-3.9,1.5c2.6-2.9,4.3-5,6.1-6.9C21,43.2,33,32.3,46.8,23.2
		c16.4-10.8,34-18.1,53.5-20.4c3.9-0.5,7.8-1.2,11.7-1.8C117,1,122,1,127,1z"/>
	<path class="st0" d="M1003.8,264.6c3.2,7,5.7,13.7,9.3,19.9c7.8,13.5,18.5,24.2,31.3,33.2c9.7,6.8,19.6,13.1,30.7,17.5
		c16.8,6.8,33.6,7.2,50.6,0.7c13.9-5.3,21-15.3,21.5-30.4c0.5-14.5-4-26.5-14-37.1c-20-21.3-44.6-34.5-72.3-42.4
		c-13.8-3.9-27.8-7-41.5-11.1c-10.3-3.1-20.5-6.8-30.5-10.9c-8.9-3.6-16.4-9.6-22.8-16.7c-7.4-8.3-10.7-18.4-11-29.3
		c-0.2-6.4,1-12.9,1.5-19.3c0.1-0.9,0-1.9,0-3.5c-10,1.2-19.6,3-29.5,5c0,2.3-0.2,4.4,0,6.5c1.4,14.4,2.8,28.8,4.4,43.2
		c3.3,29.8,8.1,59.4,14.3,88.7c0.5,2.5,1,4.5-1.8,6.5c-13.2,9.1-26.2,18.4-39.2,27.6c-0.5,0.4-1.1,0.6-2.3,1.2
		c-0.5-5.2-1-10.1-1.4-14.9c-1.7-20.9-3.3-41.8-4.9-62.7c-1.5-19.4-2.9-38.9-4.3-58.3c-0.7-8.8-1.3-17.6-2-26.4
		c-0.3-3.8-0.9-4.4-4.1-3.8c-14.1,2.6-28.1,5.2-42.2,7.8c-0.8,0.1-1.5,0.5-2.9,1.1c3,44,7.6,87.8,13.1,132.2
		c-14.2,8.6-28.5,17.3-43.6,26.5c-0.4-2.8-0.8-4.8-0.9-6.9c-0.8-13.8-1.5-27.6-2.3-41.4c-0.6-10.6-1.4-21.3-2-31.9
		c-0.1-2.3-0.8-3.9-3.5-3.9c-14.1,0-28.3,0-42.9,0c0.4,6.2,0.7,12,1.1,17.7c0.8,12,1.6,23.9,2.4,35.9c0.1,2,0,3.7-2,5.2
		c-10.9,7.7-21.6,15.6-32.5,23.3c-0.6,0.5-1.4,0.7-2.7,1.3c-0.5-27.8-1.1-55-1.6-82.8c-7.8-1.4-15.1-0.5-22.7-0.8
		c0.6,3.6,1.2,6.5,1.4,9.5c0.6,8-1.3,15.5-4.8,22.7c-8,16.5-18.9,30.7-33.9,41.2c-18.4,12.9-38.5,14.4-58.9,5.4
		c-9.9-4.4-18-11.9-25.3-20c-16.9-18.7-23.6-41-21.9-65.8c0.9-13.2,5.3-25.2,13.3-36c16.4-22.3,38.7-35.6,65-42.7
		c15.5-4.2,29.3-0.3,41.3,10.3c5.9,5.2,5.6,12.3-0.6,17.1c-0.9,0.7-1.9,1.3-2.9,1.9c-9.6,6.1-19.1,12.1-29.1,18.4
		c-0.8-1.4-1.4-2.7-2.2-3.9c-3-4.8-5.6-9.9-9.2-14.1c-10.6-12.2-25-9.2-34.3,1.2c-5.4,6-7,13.6-7.3,21.3
		c-0.9,23.1,7.3,43.5,20.4,61.9c7.6,10.7,18.5,17.1,31.3,20c6.4,1.5,13,1.2,19-2c4.9-2.5,7.9-6.5,8.3-12.2
		c1.1-14.5-4.5-23-18.4-27.6c-4.6-1.5-9.4-2.2-14.1-3.2c-1.6-0.4-3.2-0.6-6-1.2c5.9-4.8,11-9.3,16.5-13.1
		c5.8-3.9,11.9-7.4,18.1-10.4c10.5-5.2,19.7-0.3,25.2,6.8c2.5,3.3,4.7,6.8,7.4,10.6c1.4-1.1,2.7-2,3.9-3c5.6-5,11.1-10,16.8-14.9
		c1.7-1.5,2.3-2.9,2.2-5.2c-0.8-10-1.2-19.9-2.1-29.9c-0.6-6.6-2.7-12.5-9.9-14.7c-1.7-0.5-3.5-0.6-5.9-1c1.4-1.3,2.3-2.2,3.3-3
		c10.6-8,21.3-16.1,31.9-24c1.2-0.9,2.5-1.7,3.9-2.2c3.3-1.2,6-0.1,7.4,3.1c0.8,1.8,1.3,3.8,1.4,5.8c1.2,15.8,2.2,31.6,3.3,47.4
		c0.4,5.7,0.7,11.3,1.2,16.9c0.3,3.5,0.9,4.2,4.2,4.2c13.5,0,27-0.1,40.5-0.2c0.3,0,0.6-0.2,0.9-0.4c0-3.1,0.2-6.2,0-9.3
		c-1.1-13.9-2.4-27.9-3.6-41.8c-1.4-15.2-2.9-30.5-4.3-45.7c-0.8-8-1.5-15.9-2.4-23.9c-0.3-2.3-0.8-4.6-1.5-6.8
		c-1.3-4.5-4.1-7.6-9.5-8.3c1.5-1.2,2.5-2.2,3.7-3c12.5-8.5,25-17.1,37.6-25.6c1.1-0.7,2.2-1.5,3.4-2.1c5.2-2.3,9-0.1,9.4,5.6
		c0.4,5.5,0.5,11,0.7,16.5c1.2,23.9,2.4,47.9,3.6,71.8c0.1,2.2,0.7,4.4,2,6.7c2.6-4.8,5.3-9.5,7.9-14.3c1.8-3.4,3.7-6.7,5.4-10.1
		c1-2,2.4-2.7,4.7-2.9c12.9-1.2,25.9-2.4,38.7-4.1c21.5-2.9,42.5-7.8,63.3-13.8c6.9-2,13.7-4,20.5-6.3c2.2-0.7,4.3-1.8,6.1-3.2
		c9-6.5,18.3-12,29.4-14.3c7.1-1.5,14-4.5,21.1-5.7c17.5-2.9,35.1-3.3,52.4,2.1c10.4,3.3,19.4,8.7,26.5,17.1c0.4,0.5,0.9,1,1.2,1.6
		c4.9,6.8,4.1,10.4-3.3,14.3c-13.4,7-26.8,14-40.3,20.9c-0.9,0.5-1.8,0.8-2.9,1.2c-2.1-3.3-4.2-6.5-6.3-9.7
		c-5.5-8.1-12.6-14.7-20.7-20c-7.6-4.9-15.8-5.1-23.8-1.2c-7.7,3.8-13.3,9.8-17.1,17.6c-3.1,6.4-2.9,12.8-0.8,19.4
		c3.6,11,10.9,18.9,20.6,24.8c11.2,6.8,23.5,10.8,36.2,13.9c29.1,7.1,57.7,15.8,85.7,26.3c13.2,4.9,25.1,12.4,36.1,21
		c12.6,9.9,18.7,23.9,22.5,39.1c3.8,15.7,2.9,31.1-2.3,46.3c-8.7,25.7-22.9,48-43.1,66.3c-16.1,14.6-35.1,23.1-56.3,27.7
		c-38.6,8.3-74.7,1-109.4-16.4c-11.1-5.6-21.5-11.9-30.8-20.2c-10.3-9.2-16.7-20.6-20.7-33.5c-1.9-6.2-1-11.8,3.9-16.9
		c10.3-10.8,21.9-20,34.2-28.3c7-4.7,14.5-8.9,21.7-13.2C1002.1,265.4,1003,265,1003.8,264.6z"/>
	<path class="st0" d="M470.5,181.3c15.9-15.5,31.2-30.3,46.8-45.5c16.6,14,32.9,27.8,49.6,41.8c-16.6,21.6-33,43-49.9,64.9
		C501.2,221.8,485.9,201.7,470.5,181.3z"/>
	<path class="st0" d="M500.1,239.7c6,7.2,12,14.4,18.5,22.1c4.9-6.9,9.3-13.2,14.4-20.5c0.4,3.2,0.8,5.1,1,7.1
		c1.3,12.4,2.8,24.8,3.9,37.2c0.6,6.4,0.4,5.5-4.6,7.8c-10.2,4.9-20.4,9.9-30.6,14.8c-1.6,0.8-3.3,1.5-5.8,2.6
		c0.8-24.1,1.5-47.4,2.2-70.8C499.4,240,499.8,239.8,500.1,239.7z"/>
</g>
</svg>
