<?xml version="1.0" encoding="utf-8"?>
<!-- Generator: Adobe Illustrator 19.0.0, SVG Export Plug-In . SVG Version: 6.00 Build 0)  -->
<svg version="1.1"
	 id="Layer_1" xmlns:rdf="http://www.w3.org/1999/02/22-rdf-syntax-ns#" xmlns:dc="http://purl.org/dc/elements/1.1/" xmlns:cc="http://creativecommons.org/ns#"
	 xmlns="http://www.w3.org/2000/svg" xmlns:xlink="http://www.w3.org/1999/xlink" x="0px" y="0px" viewBox="-172 365.3 248.5 63.8"
	 style="enable-background:new -172 365.3 248.5 63.8;" xml:space="preserve">
<style type="text/css">
	.st0{fill:#FFFFFF;}
</style>
<g>
	<path class="st0" d="M14.1,365.3c-0.3,0.1-0.4,0.1-0.7,0.2c-0.2,0.1-0.5,0.2-0.7,0.3c-0.2,0.1-0.4,0.4-0.5,0.5
		c-0.1,0.2-0.2,0.5-0.3,0.6c-0.1,0.3-0.1,0.8-0.2,1c0,0.2-0.1,0.4-0.1,0.6c-0.1,0.3-0.1,0.6-0.1,0.9c-0.1,0.4,0,0.9,0,1.2
		c0,0.3,0,0.6,0.1,0.9c0,0.2,0.1,0.3,0.1,0.6c0,0.1,0.1,0.3,0.1,0.4c0.1,0.2,0.1,0.5,0.4,0.7c0.3,0.2,0.2,0.4,0.5,0.6
		c0.1,0.1,0.3,0.4,0.4,0.5c0,0.2,0.2,0.4,0.4,0.5c0.1,0.2,0.4,0.3,0.6,0.4c0.1,0.1,0.4,0.2,0.5,0.2c0.3,0.1,0.6,0.1,0.8,0
		c0.2-0.1,0.5-0.3,0.5-0.5c0.1-0.2,0.1-0.6,0.1-0.8c0.2-0.2,0.2-0.4,0.3-0.6c0.2-0.1,0.2-0.4,0.5-0.4c0.1-0.1,0.4-0.3,0.5-0.5
		c0-0.2,0.3-0.2,0.3-0.4c0.1-0.3,0.3-0.5,0.4-0.8c0.1-0.4,0.1-0.8,0.1-1.2c0.1-0.3-0.1-0.5,0-0.7c-0.1-0.2-0.1-0.5-0.3-0.7
		c-0.1-0.1-0.1-0.3-0.3-0.3c-0.2-0.2-0.3-0.4-0.5-0.6c-0.2-0.2-0.1-0.4-0.2-0.7c0-0.4-0.3-0.7-0.5-1c-0.1-0.1-0.3-0.2-0.4-0.3
		c-0.2-0.1-0.4-0.1-0.6-0.2c-0.3-0.1-0.7-0.1-1-0.2C14.3,365.3,14.1,365.3,14.1,365.3L14.1,365.3z M-8.3,368.2
		c-0.5,0.2-1.2-0.1-1.7,0.4c-0.4,0.4-0.8,0.8-1,1.3c-0.2,0.9,0,1.8,0.1,2.6c0.2,0.5,0.3,1,0.2,1.4c-0.2,0.7,0.1,1.4,0,2.1
		c-0.1,0.7-0.4,1.5-0.4,2.2c0,0.6,0.3,1.2,0,1.7c-0.2,0.5-0.7,1.1-0.6,1.7c0.1,0.4,0.1,1.3-0.5,1c-0.7-0.3-1.3-1-2-1.4
		c-0.8-0.3-1.5,0.2-2.2,0.5c-0.4,0.1-0.8,0.1-1.1,0.4c-0.4,0.3-0.7,0.7-1.3,0.7c-0.6,0-0.7,0.6-0.9,1c-0.2,0.4-0.7,0.5-1.1,0.8
		c-0.3,0.2-0.7,0.3-0.9,0.6c-0.3,0.4-0.6,0.8-1,1c-0.5,0.3-0.8,0.7-1.1,1.2c-0.2,0.5-0.7,0.8-1,1.2c-0.5,0.3-0.5,0.9-0.9,1.3
		c-0.7,0.7-1.7,1.3-2.1,2.3c-0.2,0.6-0.5,1.1-0.9,1.6c-0.3,0.3-0.4,0.8-0.5,1.2c-0.1,0.5-0.3,1-0.4,1.5c-0.1,0.6,0,1.2-0.1,1.7
		c-0.2,0.6-0.5,1.2-0.3,1.8c0.2,0.4,0.7,0.6,1,1c0.9,1.1,1.7,2.3,2.9,3.2c0.7,0.4,1.4,0.5,2.1,0.6c0.4,0,0.8,0,1.2,0.1
		c0.5,0.2,1,0.3,1.4,0.1c0.8-0.2,1.5-0.7,2.3-0.9c0.5,0,1.1-0.1,1.4-0.6c0.3-0.3,0.6-0.8,1-0.9c0.6-0.3,1.3-0.6,1.8-1.2
		c0.3-0.4,0.7-0.8,1.1-1.1c0.4-0.4,0.8-0.9,1.4-1.2c0.5-0.2,0.6-0.7,0.7-1.2c0.2-0.8,1-1.3,1.4-2c0.2-0.3,0.5-0.9,1-0.8
		c0.5,0.3,0.8,0.9,1,1.4c0.3,0.6,0.5,1.3,1.1,1.7c0.6,0.5,1.3,0.9,1.8,1.5c0.7,0.7,1.2,1.5,2,2c0.5,0.2,1.1,0.2,1.5,0.6
		c0.3,0.3,0.7,0.5,1.1,0.4c0.9-0.1,1.8-0.5,2.6-0.9c1-0.7,2.2-0.8,3.2-1.5c0.5-0.4,0.8-1.1,1.5-1.2c0.4-0.1,0.8-0.3,1.1-0.6
		c0.4-0.5,1.1,0,1.4,0.3c0.6,0.4,1.3,0.6,1.9,0.8c0.6,0.2,1.3,0.4,1.8,0.1c0.4-0.3,0.9-0.4,1.4-0.6c0.9-0.8,2-1.5,2.7-2.4
		c0.5-0.4,1-0.7,1.4-1.2c0.7-1,1.1-2.1,1.8-3.1c0.3-0.4,0.3-1,0.5-1.5c0.5-1.3,1.2-2.5,1.6-3.9c0.2-0.5,0.2-1.1,0-1.6
		c-0.1-0.5,0.1-1,0-1.5c-0.4-0.9-0.6-1.9-1.1-2.7c-0.4-0.7-1.1-1.2-1.9-1.3c-1.2-0.2-2.5,0-3.6,0.3c-0.6,0.2-1,0.6-1.6,0.9
		c-0.7,0.3-1.4,0.4-1.9,1c-0.4,0.4-0.9,0.9-1.5,0.8c-0.5-0.1-0.7-0.8-1.2-0.7c-0.5,0-0.8-0.3-1.3-0.3c-0.5,0.3-0.8,0.7-1.2,1.1
		c-0.9,1.3-1.1,2.9-1.4,4.4c-0.3,1.1-0.7,2.2-0.5,3.3c0.1,0.7,0.3,1.4,0.2,2.1c0,0.4,0,0.7,0.1,1.1c0.1,0.6,0,1.3-0.5,1.7
		c-0.7,0.6-1.7,0.9-2.5,1.4c-0.8,0.4-1.6,0.9-2.6,0.9c-0.5-0.1-1-0.4-1.5-0.5c-0.9-0.2-1.6-0.9-2-1.7c-0.2-0.4-0.3-0.8-0.4-1.2
		c-0.4-0.4-1-0.7-1.1-1.3c-0.3-0.9-0.6-1.8-1-2.6c-0.3-0.7-0.4-1.5-0.4-2.3c-0.2-1.1,0.2-2.2,0.4-3.4c0.2-1.1,0.1-2.3,0.4-3.4
		c0.2-0.6,0.7-1,0.7-1.6c0.1-1.3-0.3-2.6-0.4-3.8c-0.1-0.5,0-1.1,0.2-1.5c0.2-0.4,0-0.8-0.2-1.1c-0.1-0.4-0.3-0.7-0.4-1.1v-1.6
		c-0.2-0.9-0.8-1.7-1.6-2.2C-7.7,368.3-8,368.2-8.3,368.2L-8.3,368.2z M25.7,369.8c-0.4,0-0.8,0-1.1,0.1c-0.2,0-0.3,0-0.5,0.1
		c-0.3,0.1-0.4,0.3-0.6,0.5c-0.1,0.1-0.1,0.3-0.3,0.4c0,0.2-0.2,0.4-0.2,0.6c-0.1,0.2-0.3,0.6-0.3,1c-0.1,0.5-0.2,0.9-0.2,1.4
		c-0.1,0.5-0.1,0.9-0.1,1.5c0,0.3,0,0.5,0,0.8c0,0.1,0,0.4,0.1,0.6c0,0.2,0.2,0.4,0.3,0.5c0.2,0.2,0.6,0.3,0.9,0.2
		c0.4,0,0.7-0.2,1-0.4c0.2-0.2,0.5-0.3,0.7-0.6c0.2-0.1,0.2-0.3,0.3-0.4c0.1-0.2,0.2-0.4,0.4-0.5c0.1-0.2,0.4-0.4,0.6-0.5
		c0.3-0.3,0.5-0.5,0.6-0.9c0.1-0.3,0.2-0.5,0.2-0.8c0-0.3,0.1-0.7,0.2-1c0.1-0.3,0.1-0.6,0-0.8c-0.2-0.3-0.2-0.5-0.5-0.7
		c-0.2-0.1-0.3-0.3-0.5-0.4C26.5,370.2,26.1,369.9,25.7,369.8L25.7,369.8z M24.9,369.9C24.9,369.8,24.9,369.8,24.9,369.9z
		 M64.7,370.2c-0.8,0.1-1.6,0.2-2.4,0.3c-1.2,0.3-2.2,1-3.3,1.5c-0.6,0.2-1.3,0.1-1.9,0.5c-0.5,0.3-1.1,0.5-1.5,1
		c-0.3,0.4-0.7,0.8-1.2,1.1c-0.5,0.2-0.9,0.6-1,1.1c-0.2,1.1-0.3,2.3-0.1,3.5c0,0.5,0.5,0.9,0.9,1.1c0.6,0.2,1,0.8,1.4,1.2
		c0.4,0.3,1,0.4,1.5,0.6c1,0.4,2,0.6,2.9,1.1c0.4,0.1,0.9,0.6,0.6,1c-0.5,0.5-1.2,0.5-1.8,0.8c-0.8,0.4-1.5,0.9-2.4,0.9
		c-0.4-0.1-0.8-0.3-1.3-0.2c-0.5,0.1-1.1,0.2-1.3,0.7c-0.2,0.8-0.2,1.8,0,2.6c0.2,0.5,0.5,1.1,1,1.3c1,0.2,2,0.3,3.1,0.4
		c0.6,0,0.7-0.6,1.1-0.9c0.5-0.4,1-0.9,1.6-1c0.4-0.1,0.9-0.3,1.2-0.6c0.4-0.3,0.8-0.7,1.3-0.9c0.4-0.2,0.8-0.5,1.1-0.8
		c0.4-0.5,1.3-0.6,1.6-1.3c0.2-0.5,0-0.9,0-1.4c-0.1-0.6,0.1-1.3-0.3-1.8c-0.5-0.8-1.5-0.8-2.1-1.5c-0.3-0.4-0.4-1-0.9-1.1
		c-0.7-0.1-1.4-0.2-2.1-0.3c-0.6-0.1-0.9-0.8-1.6-0.8c-0.4-0.1-0.9-0.1-1.3-0.4c-0.3-0.4,0.2-0.8,0.6-1c0.8-0.4,1.6-1,2.5-1.2
		c0.7-0.3,1.5-0.3,2.1-0.6c0.7-0.2,1.4-0.5,2.1-0.3c0.5,0.2,0.6,0.9,1.2,1c0.7,0.1,1.5,0.2,2.2,0c0.5-0.3,0.6-0.9,0.7-1.4
		c0.1-0.7,0.1-1.6-0.5-2c-0.4-0.3-0.7-0.6-1-1c-0.2-0.4-0.7-0.5-1.1-0.6c-0.6-0.2-1.1-0.6-1.8-0.6C64.9,370.2,64.8,370.2,64.7,370.2
		L64.7,370.2z M3,370.3c-0.2,0.1-0.4,0.2-0.6,0.3c-0.1,0.1-0.3,0.3-0.5,0.4c-0.2,0.2-0.6,0.4-0.8,0.7c-0.2,0.1-0.3,0.3-0.3,0.6
		c-0.1,0.2,0,0.5,0,0.7c0,0.2,0.2,0.3,0.2,0.5c0.1,0.1,0.2,0.3,0.3,0.4c0.1,0.2,0.2,0.3,0.2,0.5c0,0.2,0.2,0.4,0.2,0.6
		c0.1,0.2,0.2,0.5,0.4,0.7c0.2,0.2,0.4,0.4,0.4,0.7c0.1,0.2,0.1,0.6,0.3,0.7c0.2,0.1,0.4,0.2,0.7,0.3c0.2,0,0.3,0.2,0.5,0.3
		c0.1,0.1,0.4,0.3,0.4,0.4c0.2,0.1,0.4,0.2,0.6,0.3c0.3,0.1,0.6,0.2,1,0.2c0.3,0,0.7-0.1,1-0.1c0.2,0,0.3,0,0.5-0.2
		c0.3-0.3,0.2-0.6,0.3-1c0.1-0.1,0.1-0.3,0.2-0.5c0.1-0.1,0.1-0.3,0.2-0.4c0.1-0.2,0.1-0.6,0-0.7c0-0.1-0.1-0.4-0.2-0.5
		c-0.1-0.2-0.3-0.4-0.4-0.5c-0.1-0.2-0.2-0.4-0.2-0.6c-0.1-0.2-0.1-0.6-0.3-0.8c-0.2-0.3-0.5-0.5-0.7-0.8c-0.1-0.2-0.3-0.4-0.4-0.6
		c-0.3-0.2-0.5-0.5-0.7-0.7C5.1,371,5,371,4.9,370.9c-0.2-0.1-0.4-0.2-0.6-0.3c-0.2-0.1-0.3-0.1-0.6-0.2
		C3.5,370.3,3.3,370.3,3,370.3L3,370.3z M7.4,378.3C7.3,378.3,7.4,378.4,7.4,378.3z M42.6,372.5c-0.2,0.1-0.4,0.1-0.7,0.1
		c-0.2,0.1-0.3,0.1-0.5,0.2c-0.3,0.1-0.4,0.1-0.6,0.2c-0.5,0.2-1,0.3-1.4,0.5c-0.2,0.1-0.4,0.1-0.5,0.2c-0.2,0.1-0.4,0.2-0.6,0.4
		c-0.1,0.1-0.3,0.2-0.4,0.3c-0.2,0.1-0.3,0.2-0.5,0.3c-0.2,0.1-0.3,0.2-0.5,0.3c-0.1,0.1-0.2,0.1-0.4,0.1c-0.2,0.1-0.7,0.1-0.9,0.2
		c-0.3,0-0.5,0.4-0.6,0.6c-0.1,0.3-0.4,0.6-0.6,0.8c-0.3,0.1-0.5,0.5-0.8,0.5c-0.1,0.1-0.3,0.2-0.5,0.2c-0.2,0.1-0.5,0.2-0.7,0.2
		c-0.2,0.1-0.4,0.1-0.6,0.3c-0.1,0.1-0.2,0.3-0.3,0.4c-0.1,0.2-0.2,0.3-0.4,0.5c-0.2,0.3-0.5,0.3-0.7,0.6c-0.3,0.1-0.4,0.2-0.6,0.4
		c-0.3,0.3-0.6,0.5-0.8,0.8c-0.2,0.2-0.3,0.4-0.6,0.6c-0.2,0.3-0.4,0.5-0.6,0.7c-0.3,0.2-0.5,0.5-0.8,0.7c-0.2,0.3-0.6,0.5-0.6,0.8
		c-0.1,0.2-0.1,0.3-0.2,0.6c-0.1,0.2-0.1,0.5-0.2,0.7c-0.1,0.2-0.2,0.4-0.2,0.5c-0.1,0.3-0.2,0.5-0.2,0.9c0,0.4,0,0.8,0,1.2
		c-0.1,0.4-0.3,0.7-0.2,1.2c0,0.2,0.1,0.3,0.3,0.5c0.2,0.2,0.3,0.3,0.4,0.5c0.1,0.2,0.2,0.3,0.3,0.5c0.1,0.2,0.2,0.4,0.4,0.7
		c0.1,0.2,0.2,0.4,0.3,0.6c0.1,0.1,0.2,0.3,0.3,0.4c0.2,0.1,0.2,0.3,0.3,0.5c0.2,0.2,0.4,0.4,0.6,0.5c0.1,0.1,0.3,0.2,0.4,0.3
		c0.1,0,0.2,0.1,0.3,0.1c0.1,0.1,0.3,0.2,0.5,0.3c0.1,0.1,0.2,0.1,0.3,0.1c0.2,0.1,0.3,0.2,0.5,0.3c0.2,0.1,0.3,0.2,0.4,0.3
		c0.3,0.2,0.8,0.1,1.2,0.1c0.3,0,0.6-0.1,0.8,0c0.3,0,0.7,0.1,1,0.2c0.3,0.1,0.5,0.1,0.8,0c0.2-0.1,0.5-0.1,0.6-0.2
		c0.2,0,0.3-0.1,0.4-0.1c0.1,0,0.2-0.1,0.4-0.1c0.1-0.1,0.4-0.1,0.6,0c0.3,0,0.7,0,0.9-0.1c0.2-0.1,0.4-0.3,0.6-0.3
		c0.1-0.1,0.3-0.2,0.5-0.3c0.1-0.1,0.5-0.3,0.8-0.3c0.2-0.1,0.6-0.2,0.8-0.3c0.1-0.1,0.4-0.1,0.5-0.2c0.1-0.1,0.3-0.1,0.4-0.2
		c0.4-0.2,0.5,0.3,0.4,0.6c-0.1,0.3-0.1,0.7,0,1c0,0.6,0.1,1.1,0,1.7c0,0.3,0,0.7-0.1,1c-0.1,0.2,0,0.5-0.1,0.8
		c0,0.2-0.1,0.4-0.1,0.6c-0.1,0.4,0,0.7,0.1,1c0.1,0.4,0,0.8,0,1.1c0,0.5,0,1-0.1,1.5c0,0.4,0,0.9-0.1,1.3c-0.1,0.2-0.2,0.4-0.3,0.6
		c-0.1,0.3-0.4,0.5-0.6,0.7c-0.2,0.1-0.3,0.2-0.5,0.4c-0.2,0.1-0.3,0.2-0.5,0.4c-0.2,0.2-0.4,0.3-0.6,0.5c-0.2,0.2-0.5,0.5-0.7,0.7
		c-0.1,0.2-0.3,0.4-0.4,0.5c-0.1,0.1-0.1,0.4-0.2,0.5c0,0.2-0.1,0.3-0.2,0.4c-0.1,0.2-0.1,0.3-0.2,0.4c-0.1,0.1-0.1,0.2-0.2,0.3
		c-0.1,0.2-0.2,0.3-0.3,0.5c-0.1,0.1,0,0.4,0,0.6c-0.1,0.5-0.2,0.9-0.3,1.3c0.1,0.3,0.1,0.6,0.1,0.9c0.1,0.5,0.1,0.9,0.2,1.3
		c0.1,0.4,0.1,0.8,0.1,1.2c0,0.2,0.1,0.5,0.2,0.6c0.2,0.2,0.3,0.4,0.5,0.6c0.1,0.1,0.1,0.3,0.2,0.4c0,0.2,0.2,0.4,0.3,0.6
		c0,0.2,0.3,0.4,0.4,0.5c0.1,0.1,0.3,0.2,0.4,0.3c0.1,0.1,0.3,0.2,0.4,0.3c0.2,0.2,0.4,0.5,0.6,0.7c0.2,0.2,0.4,0.4,0.6,0.6
		c0.1,0.1,0.3,0.2,0.4,0.3c0.2,0.1,0.3,0.2,0.6,0.3c0.1,0.1,0.3,0.1,0.4,0.2c0.2,0.1,0.4,0.2,0.5,0.3c0.2,0.1,0.3,0.2,0.5,0.3
		c0.1,0,0.3,0.1,0.5,0.1c0.3,0,0.8,0.1,1.1,0c0.4,0,0.9,0,1.3-0.3c0.2-0.1,0.2-0.2,0.4-0.3c0.2-0.1,0.4-0.2,0.6-0.3
		c0.4-0.2,0.4-0.6,0.4-1.1c0-0.3,0.1-0.7,0.2-1c0.1-0.3-0.1-0.6,0-0.9c-0.1-0.2-0.1-0.4-0.1-0.6c-0.1-0.4-0.2-0.8-0.3-1.3
		c-0.1-0.3-0.1-0.7-0.1-1.2c0-0.4,0-0.9-0.1-1.2c0-0.3,0-0.7-0.1-1c0-0.3-0.1-0.5-0.2-0.7c-0.1-0.3-0.1-0.6-0.1-0.9
		c0-0.2-0.1-0.4-0.1-0.6c-0.1-0.3-0.2-0.4-0.1-0.7c0-0.4-0.1-0.6-0.1-1c0-0.3,0-0.6,0.1-0.9c0.1-0.3,0.2-0.5,0.3-0.7
		c0.2-0.2,0.3-0.4,0.6-0.5c0.1-0.1,0.4-0.2,0.5-0.3c0.2-0.1,0.4-0.1,0.5-0.2c0.3,0,0.6-0.1,0.9-0.2c0.2,0,0.5-0.2,0.7-0.2
		c0.1-0.2,0.3-0.3,0.4-0.5c0.3-0.3,0.4-0.2,0.7-0.3c0.3,0,0.5-0.1,0.7-0.2c0.2-0.2,0.4-0.4,0.6-0.5c0.3-0.2,0.6-0.2,1-0.1
		c0.4,0.1,0.7,0,1.2-0.2c0.1-0.1,0.3-0.1,0.4-0.1c0.1,0,0.3-0.1,0.5-0.2c0.3-0.1,0.7-0.1,1.1-0.1c0.5,0,1,0,1.5-0.1
		c0.4-0.1,0.7-0.1,1.1-0.2c0.3-0.1,0.4-0.2,0.6-0.2c0.1-0.1,0.4-0.2,0.5-0.3c0.5-0.2,1-0.2,1.5-0.1c0.4,0,1-0.1,1.4-0.1
		c0.3,0,0.5,0,0.8-0.1c0.3,0,0.6-0.2,0.9-0.2c0.2-0.1,0.5-0.3,0.7-0.1c0.2,0.1,0.5,0.1,0.7,0.2c0.2,0.1,0.6,0,1,0
		c0.3-0.1,0.6-0.1,0.9,0c0.3,0.1,0.6,0.1,0.8,0c0.1-0.1,0.2-0.1,0.3-0.1c0.1-0.1,0.3-0.1,0.4-0.2c0.3,0,0.7,0,1,0
		c0.3-0.1,0.6,0.1,1,0.1c0.3-0.1,0.6,0,0.9-0.1c0.3,0.2,0.7,0.3,1,0.1c0.1-0.1,0.4-0.1,0.5-0.2c0.3-0.2,0.6-0.1,1-0.1
		c0.2,0,0.4-0.1,0.6-0.1c0.1-0.1,0.3-0.2,0.5-0.2c0.2-0.1,0.3-0.2,0.5-0.3c0.2-0.2,0.5-0.3,0.6-0.6c0.1-0.3,0.2-0.6,0.1-1
		c-0.1-0.3-0.3-0.5-0.5-0.8c-0.1,0-0.3-0.2-0.4-0.3c-0.1,0-0.3-0.1-0.4-0.2c-0.2-0.1-0.4-0.2-0.6-0.2c-0.4-0.1-0.7-0.1-1.1,0
		c-0.2,0.1-0.6,0.1-0.9,0.1c-0.4,0-0.6-0.1-0.9-0.2c-0.2-0.1-0.6-0.1-0.9-0.2c-0.3,0-0.7,0-1,0.1c-0.1,0-0.3,0.1-0.4,0.1
		c-0.2,0-0.5,0.1-0.8,0.2c-0.2,0-0.4,0.1-0.7,0.1c-0.3,0-0.8,0-1.1-0.1c-0.2-0.1-0.6-0.1-0.7-0.2c-0.2,0-0.4-0.1-0.5,0.1
		c-0.2,0-0.4,0.1-0.5,0.2c-0.2,0-0.4,0.2-0.6,0.2c-0.3,0.1-0.7,0.2-1,0.3c-0.3,0-0.8,0.1-1.2,0c-0.3,0-0.7-0.1-1-0.1
		c-0.3-0.1-0.5,0-0.7,0.1c-0.2,0-0.3,0.2-0.6,0.2c-0.2-0.1-0.4-0.1-0.5-0.2c-0.1,0-0.2-0.1-0.4-0.1c-0.2,0-0.3,0.1-0.4,0.1
		c-0.2,0.1-0.4,0.1-0.6,0.3c-0.2,0.1-0.4,0.2-0.6,0.2c-0.3,0.1-0.8,0.2-1.2,0.2c-0.5,0.2-1.1,0.1-1.6,0.1c-0.2,0.1-0.3,0.1-0.4,0.2
		c-0.2,0-0.3,0.1-0.4,0.1c-0.4,0.2-0.8,0.2-1.2,0.2c-0.4,0-0.8,0-1.2,0c-0.3,0.1-0.7,0.1-1,0.2c-0.4,0.1-0.9,0.1-1.3,0.3
		c-0.2,0.1-0.5,0.2-0.7,0.4c-0.2,0.2-0.5,0.3-0.6,0.4c-0.3,0-0.4,0.1-0.6,0.1c-0.3,0.1-0.4,0.1-0.6,0.2c-0.2,0.1-0.4,0.3-0.8,0.4
		c-0.2,0.1-0.6,0-0.7-0.1c-0.3-0.3-0.2-0.7-0.1-1.1c0.1-0.4,0-0.9,0-1.3c0-0.5,0.1-1,0.2-1.5c0.1-0.3,0.2-0.6,0.3-1
		c0.2-0.3,0.2-0.7,0.2-1c0-0.3,0-0.6,0.1-0.9c0.1-0.2,0.1-0.4,0.2-0.6c0.1-0.2,0.1-0.4,0.2-0.6c0-0.2,0.1-0.3,0.2-0.5
		c0-0.2,0.2-0.3,0.2-0.6c0-0.4-0.1-0.8,0-1.1c0.1-0.2,0.3-0.5,0.4-0.7c0.1-0.2,0.2-0.3,0.2-0.5c0.1-0.2,0.1-0.5,0.2-0.6
		c0-0.2,0.1-0.3,0.2-0.5c0.1-0.2,0.3-0.4,0.5-0.4c0.3-0.1,0.6-0.1,0.9-0.1c0.2,0,0.4,0,0.6-0.1c0.1,0,0.3-0.1,0.4-0.2
		c0.3-0.2,0.4-0.5,0.5-0.9c0.1-0.5,0.2-1.1,0.1-1.6c0-0.3-0.1-0.6-0.1-0.9c-0.1-0.3-0.2-0.8-0.3-1.1c-0.1-0.4-0.2-0.8-0.2-1.3
		c0-0.4,0-0.9-0.1-1.3c-0.1-0.2-0.1-0.5-0.2-0.6c-0.1-0.2-0.2-0.4-0.2-0.6c-0.1-0.2-0.1-0.5-0.2-0.8c-0.1-0.3-0.1-0.5-0.3-0.7
		c-0.3-0.2-0.5-0.5-0.6-0.8c-0.1-0.3,0-0.8-0.3-1.2c-0.1-0.1-0.3-0.2-0.4-0.3c-0.1-0.1-0.3-0.2-0.4-0.3c-0.3-0.3-0.6-0.6-1-1
		c-0.2-0.1-0.2-0.2-0.4-0.3c-0.2-0.2-0.4-0.2-0.6-0.4c-0.2,0-0.2-0.2-0.4-0.2c-0.1-0.1-0.3-0.2-0.5-0.3c-0.1-0.1-0.3-0.1-0.4-0.2
		C43.4,372.6,43,372.5,42.6,372.5L42.6,372.5z M42.2,377.4c0.4,0,0.8,0.1,1,0.2c0.1,0.1,0.3,0.2,0.4,0.3c0.2,0.2,0.4,0.5,0.5,0.7
		c0.1,0.2,0.2,0.3,0.2,0.6c0.1,0.2,0.2,0.5,0.2,0.9c0.1,0.5,0.1,1.1-0.1,1.5c0,0.3-0.1,0.5-0.2,0.7c0,0.1-0.2,0.3-0.2,0.4
		c-0.1,0.1-0.2,0.3-0.2,0.4c-0.1,0.3-0.2,0.6-0.2,0.9c-0.1,0.2-0.1,0.4-0.1,0.7c0,0.3-0.2,0.5-0.2,0.7c-0.1,0.2-0.2,0.4-0.4,0.5
		c-0.2,0.1-0.4,0.2-0.5,0.3c-0.2,0.1-0.3,0.2-0.6,0.3c-0.3,0.2-0.5,0.4-0.7,0.7c-0.2,0.2-0.5,0.5-0.7,0.6c-0.1,0.1-0.3,0.2-0.3,0.3
		c-0.2,0-0.3,0.2-0.4,0.2c-0.1,0-0.3,0.1-0.4,0.2c-0.1,0-0.2,0.1-0.3,0.1c-0.1,0.1-0.4,0.1-0.5,0.3c-0.1,0-0.3,0.1-0.3,0.1
		c-0.2,0-0.4,0.1-0.7,0.1c-0.2,0.1-0.5,0.1-0.6,0.2c-0.2,0.1-0.4,0.1-0.5,0.2c-0.3,0-0.4,0.2-0.6,0.2c-0.2,0.1-0.6,0.2-1,0.2
		c-0.4,0-0.8,0-1.2,0c-0.4-0.1-0.7-0.1-1-0.1c-0.1,0-0.2-0.1-0.3-0.1c-0.1,0-0.3-0.2-0.5-0.3c-0.2-0.1-0.4-0.3-0.7-0.4
		c-0.2-0.1-0.5-0.2-0.6-0.3c-0.2-0.4,0-0.9-0.1-1.3c-0.1-0.5,0-0.9,0.1-1.3c0.1-0.1,0.1-0.3,0.2-0.4c0.1-0.2,0.2-0.2,0.2-0.4
		c0.1-0.1,0.2-0.3,0.3-0.4c0.1-0.2,0.3-0.4,0.5-0.5c0.2-0.3,0.5-0.4,0.7-0.6c0.2-0.1,0.3-0.2,0.4-0.4c0.2-0.2,0.3-0.4,0.5-0.6
		c0.2-0.2,0.4-0.4,0.6-0.5c0.2-0.1,0.3-0.3,0.6-0.4c0.2-0.1,0.4-0.3,0.5-0.3c0.1-0.1,0.2-0.2,0.4-0.2c0.1-0.1,0.2-0.1,0.3-0.2
		c0.2-0.1,0.5-0.3,0.6-0.6c0.3-0.2,0.4-0.5,0.8-0.6c0.1-0.1,0.4-0.1,0.5-0.2c0.2,0,0.3-0.1,0.5-0.1c0.2-0.1,0.4-0.1,0.6-0.2
		c0.2,0,0.4-0.2,0.6-0.3c0.3-0.3,0.6-0.6,0.9-0.9c0.2-0.1,0.4-0.3,0.7-0.3c0.2-0.1,0.5-0.1,0.8-0.2C41.9,377.5,42,377.5,42.2,377.4
		L42.2,377.4z M17.2,385.1c0.5,0,0.7,0.5,0.6,0.9c-0.1,0.7-0.5,1.4-0.5,2.1c0.1,0.5,0,1-0.3,1.3c-0.3,0.3-0.5,0.7-0.6,1.2
		c-0.1,0.5-0.2,1-0.6,1.4c-0.7,0.7-1.5,1.1-2.2,1.7c-0.4,0.2-0.9,0.8-1.3,0.4c-0.3-0.5-0.1-1.1-0.1-1.6c0.1-0.6,0.3-1.1,0.3-1.7
		c0.1-0.5,0.4-1.1,0.2-1.6c-0.2-0.7-0.1-1.5,0.3-2.1c0.3-0.3,0.8-0.5,1.1-0.8c0.3-0.4,0.7-0.7,1.2-0.8c0.3-0.1,0.6-0.3,1-0.3
		C16.6,385.1,16.9,385.1,17.2,385.1L17.2,385.1z M-16.3,386.9c0.5-0.1,0.9,0.3,1,0.8c0.3,0.9,0.6,1.9,0.3,2.8
		c-0.1,0.7-0.4,1.4-0.3,2.1c0.2,0.6,1.1,0.8,1.1,1.5c0,0.7-0.7,1.2-1.1,1.6c-0.4,0.3-0.8,0.7-1.2,1.2c-0.2,0.4-0.6,0.7-1,0.9
		c-0.7,0.4-1.2,1-1.8,1.4c-0.9,0.7-2,1-3.1,0.8c-0.7,0.1-1.5,0.1-2.1-0.3c-0.6-0.3-0.6-1.1-0.6-1.6c0-1,0.2-2,0.7-3
		c0.3-0.6,0.9-1,1.2-1.6c0.3-0.6,0.6-1.2,1.1-1.6c0.8-0.9,1.6-1.7,2.5-2.6c0.7-0.4,1.4-0.8,1.9-1.3
		C-17.3,387.5-16.8,387.1-16.3,386.9L-16.3,386.9z M-144.1,387.8c-1.2,0.6-1.7,2.1-1.3,3.3c0.3,0.7,0.7,1.2,1.1,1.8
		c0.3,0.4,0.6,0.8,1.1,1c0.6,0.3,1.2,0.6,1.8,1c0.7,0.4,1.4,0.8,2.1,1.1c0.5,0.3,0.8,0.8,1.4,0.9c1,0.4,2,0.9,3.1,0.8
		c0.7-0.1,1.3-0.9,1-1.6c-0.4-0.8-1.3-1.2-2-1.7c-0.5-0.3-0.8-0.8-1.2-1.2c-0.6-0.7-1.5-1.1-2.1-1.9c-0.6-0.9-1.1-1.8-1.6-2.7
		c-0.6-0.5-1.4-0.7-2.2-0.9C-143.3,387.9-143.7,387.8-144.1,387.8z M-95.1,390.5c-0.6,0.3-1.3,0.1-1.8,0.6c-0.2,0.4-0.1,0.9-0.3,1.4
		c-0.2,0.6,0.1,1.3,0.2,1.9c0.2,0.9,0.4,1.9,0,2.7c-0.1,0.4-0.6,0.5-1,0.6c-0.5,0.1-0.9,0.6-1.5,0.6c-0.6,0.1-1.3,0.2-1.9,0.4
		c-0.5,0.2-0.9,0.5-1.4,0.6c-0.5,0.1-1.1,0.4-1.6,0.1c-0.6-0.3-1.1,0.1-1.5,0.5c-0.3,0.3-0.8,0.2-1.2,0.2c-0.5,0-1.1-0.1-1.6,0.1
		c-1,0.3-2.1,0.8-2.8,1.6c-0.4,0.5-0.4,1.1-0.2,1.7c0.2,0.6,0.5,1.1,0.8,1.7c0.4,0.7,1,1.4,1.9,1.4c1.1,0,2.1-0.7,3.1-1.3
		c0.5-0.3,1-0.7,1.6-0.8c0.6-0.1,1.2-0.3,1.8-0.6c1.3-0.7,2.7-1.3,4.2-1.6c0.4-0.1,1-0.2,1.3,0.1c0.3,0.5,0.1,1.2,0,1.7
		c-0.2,0.5,0,1-0.1,1.5c-0.2,0.5-0.3,1,0,1.5c0.2,0.7,0.4,1.4,0.5,2.1c0.1,0.7,0.2,1.4,0.4,2c0.2,0.4,0,1,0.4,1.4
		c0.6,0.9,1,2,1.7,2.8c0.3,0.5,0.9,0.8,1.2,1.3c0.3,0.5,0.7,0.9,1.3,0.7c0.5-0.2,0.9-0.3,1.5-0.3c0.6,0,1.1-0.1,1.6-0.4
		c0.7-0.4,1.3-0.9,1.7-1.5c0.3-0.4,0.4-1.1,0-1.5c-0.5-0.6-1.3-0.5-2-0.4c-0.5,0.1-1.2,0.3-1.6-0.1c-0.4-0.4-0.6-0.9-1-1.4
		c-0.6-0.9-0.9-1.9-1.1-2.9c0-0.6,0.2-1.2,0-1.7c-0.2-0.6-0.5-1.1-0.4-1.8c0-0.9,0.3-1.8,0.2-2.7c0-0.9-0.1-2,0.6-2.7
		c0.7-0.8,1.8-1,2.7-1.3c0.7-0.2,1.2-0.7,1.9-0.9c0.6-0.1,1.1-0.5,1.5-0.9c0.7-0.5,1.6-1,1.9-1.8c0.2-0.5,0-1-0.4-1.3
		c-0.5-0.4-0.9-1-1.6-1c-0.6,0-1.2,0.2-1.5,0.7c-0.4,0.5-1,0.6-1.6,0.7c-0.6,0.2-1.1,0.7-1.7,0.8c-0.4,0.1-0.8,0.4-1.2,0.4
		c-0.5-0.2-0.4-0.9-0.3-1.4c0.1-0.7,0.4-1.3,0.2-2c-0.3-0.3-0.7-0.7-0.9-1.1c-0.4-0.4-1-0.5-1.6-0.5
		C-94.6,390.5-94.9,390.5-95.1,390.5L-95.1,390.5z M-71.8,391.3c-0.5,0.1-0.9,0.3-1.3,0.6c-0.5,0.4-1.2,0.7-1.8,0.9
		c-0.6,0.2-1.1,0.6-1.3,1.2c-0.6,1-1.1,2.1-1.8,3.1c-0.4,0.5-0.8,0.8-1.2,1.2c-0.5,0.3-1-0.3-1.4-0.5c-1-0.2-2,0.2-2.6,1
		c-0.5,0.8-0.3,1.8-0.1,2.7c0.1,0.5,0.3,1,0.3,1.6c0,0.5,0,1.1,0.3,1.6c0.2,0.4,0.7,0.5,1,0.8c0.4,0.6,0.1,1.4,0.6,2
		c0.4,0.6,1,1.1,1.4,1.7c0.6,0.9,1.2,1.9,2.3,2.2c0.6,0.2,1.2,0,1.8,0.2c0.5,0.1,1.1,0.3,1.6,0.2c0.9-0.1,1.8-0.2,2.6-0.5
		c0.7-0.3,1.3-0.5,2-0.8c0.5-0.1,1,0,1.5-0.3c0.5-0.2,1-0.5,1.5-0.6c0.5-0.2,1-0.3,1.4-0.5c0.3-0.2,0.6-0.5,1-0.5
		c0.3-0.1,0.6-0.1,0.8-0.3c0.7-0.4,1.5-0.6,2.2-1.1c0.5-0.4,1-0.5,1.6-0.7c0.4-0.3,0.6-0.7,1.1-0.9c0.6-0.3,1.3-0.5,1.9-0.9
		c0.4-0.3,0.8-0.7,1.3-0.7c0.6,0,0.8,0.6,1,1.1c0.3,0.6,0.6,1.1,0.8,1.7c0.4,1,0.9,2.1,1.9,2.5c0.6,0.3,1.3,0.2,1.9,0
		c0.8-0.4,1.3-1.1,1.6-1.9c0.3-0.5,0-1,0-1.5c0.1-0.5,0.5-1,0.4-1.6c0-0.5,0-1,0.3-1.4c0.3-0.3,0.4-0.7,0.5-1.1
		c0-0.4,0.3-0.8,0.5-1.1c0.5-0.7,1.1-1.6,2-1.9c0.9-0.3,2-0.2,2.8,0.4c0.7,0.5,1.3,1.2,2.1,1.6c0.6,0.4,1,0.9,1.4,1.5
		c0.3,0.6,0.5,1.2,1,1.6c0.4,0.4,0.7,0.9,0.8,1.5c0.2,0.8,0.9,1.2,1.3,1.8c0.7,0.6,1.6,0.9,2.5,0.9c0.5,0,1.1-0.3,1.3-0.8
		c0.5-1,0.5-2.2,0.1-3.2c-0.1-0.4-0.5-0.7-0.9-1c-0.5-0.5-0.3-1.5-0.9-2c-0.4-0.5-1.1-0.7-1.4-1.3c-0.2-0.4-0.2-0.9-0.6-1.2
		c-0.4-0.2-0.9-0.4-1.2-0.7c-0.4-0.3-0.7-0.6-1-1c-0.2-0.4-0.6-0.5-1-0.7c-0.5-0.3-0.9-0.8-1.5-0.9c-0.5-0.2-1-0.4-1.3-0.8
		c-0.4-0.5-1-0.4-1.5-0.5c-0.7,0-1.1-0.6-1.8-0.6c-0.5,0-1.1-0.1-1.6-0.2c-0.9,0.2-1.8,0.6-2.5,1.2c-0.4,0.4-0.6,0.9-1,1.3
		c-0.4,0.6-0.8,1.2-1.1,1.9c-0.4,0.3-0.2-0.6-0.3-0.9c0-0.5-0.2-1-0.4-1.4c-0.5-1-1.2-1.9-2.1-2.5c-0.7-0.4-1.5-0.3-2.2,0
		c-0.5,0.2-0.6,0.8-0.8,1.3c-0.2,0.8-0.4,1.6-0.2,2.4c0.2,0.9,0.4,1.9-0.1,2.7c-0.3,0.5-0.9,0.6-1.4,0.9c-0.4,0.2-0.6,0.7-0.9,1
		c-0.3,0.4-0.8,0.4-1.3,0.5c-0.9,0.3-1.5,1.2-2.4,1.5c-1.2,0.5-2.5,0.7-3.6,1.5c-1.1,0.6-2.2,1.3-3.5,1.3c-0.4,0-0.8-0.1-1.2,0.1
		c-0.4,0.2-0.7,0.7-1.2,0.7c-0.5,0-1,0-1.4,0.1c-0.5,0.2-1-0.4-0.4-0.7c0.8-0.6,1.8-0.8,2.6-1.4c0.4-0.6,1.1-1,1.5-1.5
		c0.6-0.8,0.8-1.9,1.2-2.8c0.5-1,1-2,1.2-3.1c0-0.8-0.3-1.6-0.5-2.4c-0.4-1.3-1.1-2.7-2.4-3.3C-70.4,391.4-71.1,391.2-71.8,391.3
		L-71.8,391.3z M-72.4,397.2c0.5,0,0.7,0.5,0.6,0.9c0,0.7-0.4,1.4-0.9,1.8c-0.5,0.4-0.9,0.8-1.2,1.3c-0.2,0.5-0.6,0.9-1.1,1
		c-0.5,0-0.5-0.5-0.5-0.9c0.3-1.4,1.1-2.9,2.3-3.7C-72.9,397.5-72.7,397.3-72.4,397.2z M-155,399.3c-0.5,0.1-1,0.3-1.3,0.6
		c-0.5,0.4-0.9,1-1.6,1.2c-0.5,0.2-1,0.4-1.1,0.9c-0.2,0.5-0.6,0.7-0.9,1c-0.4,1-1,2-1.6,2.9c-0.2,0.4-0.5,0.8-0.9,1
		c-0.3,0.2-0.7,0.4-0.7,0.8c-0.1,0.5-0.1,0.9-0.5,1.2c-0.3,0.3-0.5,0.7-0.6,1.1c-0.2,0.7-0.5,1.3-0.8,2c-0.3,0.4-0.7,0.8-0.9,1.3
		c-0.1,0.2-0.3,0.8-0.4,0.3c0-0.5,0-1.1-0.2-1.6c-0.2-0.5-0.1-1.1,0-1.7c0.1-0.5-0.1-0.9-0.3-1.2c-0.3-0.5-0.1-1.3-0.6-1.7
		c-0.4-0.3-1-0.3-1.4-0.6c-0.4-0.3-1-0.5-1.5-0.1c-0.6,0.4-1.1,0.9-1.6,1.5c-0.3,0.5,0,1.1,0.2,1.6c0.1,0.7,0.1,1.4,0.4,2
		c0.2,0.6,0.3,1.3,0.1,1.9c-0.2,0.6-0.1,1.1,0.2,1.7c0.3,0.7,0.5,1.4,0.3,2.1c-0.1,0.7-0.2,1.4,0,2.1c0.1,0.5,0.3,1,0,1.5
		c-0.4,0.8-0.1,1.7,0,2.6c0.1,0.5,0.2,1,0.1,1.4c-0.2,0.6,0.4,1,0.8,1.4c0.8,0.6,1.2,1.7,2.1,2.2c0.5,0.3,1.2,0.1,1.4-0.4
		c0.3-0.5,0.5-1,0.8-1.5c0.2-0.5,0.5-0.9,0.7-1.4c0.3-0.7-0.2-1.6,0.2-2.3c0.3-0.5,0.4-1,0.4-1.6c-0.1-0.5,0.1-1,0.3-1.5
		c0.3-0.8,0.6-1.6,0.9-2.5c0.2-0.5,0.2-1,0.5-1.4c0.5-0.9,1-1.8,1.4-2.7c0.3-0.6,0.6-1.2,0.9-1.8c0.4-0.5,0.7-1,1-1.5
		c0.6-1,1.2-2,1.9-3c0.2-0.3,0.4-0.7,0.7-0.9c0.4-0.3,0.6-0.6,0.9-1c0.4-0.5,1.1-0.7,1.7-0.6c0.6-0.1,1.3,0,1.3,0.7
		c0.1,0.6,0.5,1.1,0.8,1.7c0.3,0.5-0.1,1.2,0.2,1.8c0.2,0.6,0.6,1.1,0.6,1.8c0,0.9,0,1.8,0.4,2.6c0.3,0.7,0.4,1.4,0.4,2.1
		c0,0.6,0,1.2,0.3,1.7c0.2,0.3,0.2,0.7,0.3,1c0.1,0.6,0.4,1.1,0.4,1.7c0.1,0.7,0.1,1.4,0.2,2.1c0.2,0.5,0.8,0.7,1.1,1.2
		c0.6,0.7,1.1,1.4,2,1.7c0.7,0.2,1.3-0.4,1.7-0.9c0.8-1.2,1.1-2.8,0.5-4.2c-0.5-1-1.3-1.8-1.6-2.9c-0.1-0.4,0.3-0.8,0.1-1.3
		c-0.2-0.4-0.7-0.6-0.7-1.1c-0.2-1.1-0.8-2-0.9-3.1c0-0.6,0.1-1.2-0.1-1.8c-0.1-0.5-0.3-0.9-0.2-1.4c0.1-0.4-0.1-0.8-0.3-1.2
		c-0.4-1-0.6-2.1-1.1-3.1c-0.4-0.8-1-1.5-1.4-2.2c-0.3-0.6-0.4-1.3-0.9-1.6c-0.4-0.2-1-0.2-1.4-0.4c-0.4-0.2-0.9-0.4-1.4-0.4
		C-153.9,399.3-154.5,399.3-155,399.3L-155,399.3z M-119.5,399.6c-1,0.4-2.2,0.2-3.2,0.6c-0.6,0.3-0.7,1.1-0.9,1.7
		c-0.3,0.9-0.7,1.9-1.3,2.7c-0.2,0.4-0.7,0.5-0.9,0.1c-0.3-0.4-0.7-0.8-1.1-1c-0.8-0.3-1.8-0.5-2.7-0.1c-0.6,0.4-1.1,1.1-1,1.9
		c0.1,0.5,0.4,1,0.5,1.5c0,0.5-0.1,1,0.2,1.4c0.2,0.4,0.3,0.9,0.2,1.4c-0.1,0.5,0.1,0.8,0.3,1.2c0.4,0.6-0.2,1.3,0.1,1.8
		c0.2,0.5,0.6,0.9,0.6,1.4c-0.1,0.5-0.5,0.9-0.4,1.4c0.2,0.6,0.7,1,0.9,1.7c0.2,0.5,0.2,1.1,0.7,1.4c0.6,0.3,1.4,0.4,2.1,0.5
		c0.6,0,1.3,0,1.8-0.5c0.3-0.5-0.1-1.1,0.1-1.6c0.1-0.5,0.1-1.1,0.1-1.6c0-0.7,0.3-1.3,0.4-1.9c0.2-1.1,0.3-2.3,0.6-3.4
		c0.2-0.8,0.4-1.6,0.8-2.4c0.3-0.5,0.9-0.8,1-1.5c0.2-0.7,0.2-1.4,0.7-2c0.4-0.5,1,0,1,0.5c0.4,1.1,0.6,2.2,1,3.3
		c0.2,0.5,0.1,1.1,0.2,1.6c0.1,0.6,0.2,1.2,0.3,1.8c0.4,1.7,0.9,3.4,1.8,5c0.2,0.5,0.5,1,1.1,1.2c0.5,0.2,1.1,0.5,1.7,0.4
		c0.7-0.1,1-0.9,1.1-1.5c0.2-1.1,0.1-2.3-0.6-3.2c-0.6-0.8-1-1.8-1-2.8c0-0.7-0.1-1.5-0.1-2.2c-0.2-0.5-0.5-1.1-0.6-1.6
		c-0.1-0.7-0.1-1.4-0.4-2c-0.2-0.6-0.2-1.2-0.2-1.7c-0.2-0.8-0.9-1.3-1.4-1.9c-0.5-0.6-1-1.1-1.7-1.4
		C-118.4,399.8-118.9,399.6-119.5,399.6L-119.5,399.6z M-138.4,406.2c-0.5,0.2-1.2,0.1-1.5,0.6c-0.5,0.7-0.6,1.5-0.5,2.3
		c0.1,0.5,0.2,1,0.1,1.5c0,0.4-0.1,0.8,0,1.2c0.2,0.6,0.7,1.2,0.6,1.8c0.1,0.7,0.1,1.4,0.3,2.1c0.2,0.7,0.3,1.4,0.4,2.2
		c0,0.5,0.4,0.9,0.6,1.3c0.1,0.4,0.1,0.9,0.2,1.3c0.4,0.6,1.2,0.8,1.9,0.8c0.6-0.1,1.2-0.2,1.7-0.5c0.4-0.6,0.4-1.3,0.5-1.9
		c0.1-0.9,0.1-1.8-0.3-2.7c-0.4-0.9-0.9-1.8-1-2.9c0-0.6,0.2-1.1,0-1.7c-0.1-0.8,0-1.7,0.1-2.5c0.1-0.5,0.1-1.1-0.2-1.5
		c-0.6-0.4-1-0.8-1.6-1.2C-137.5,406.2-138,406.2-138.4,406.2L-138.4,406.2z M41.4,409c0.2,0.3,0.1,0.7,0.2,1
		c0.1,0.2,0.2,0.3,0.2,0.5c0.1,0.2,0.2,0.4,0.3,0.7c0.1,0.2,0.1,0.4,0.2,0.6c0,0.3,0,0.5,0,0.7c0,0.4,0,0.9-0.1,1.3
		c0,0.2-0.1,0.5-0.4,0.5c-0.4,0-0.6-0.3-0.8-0.5c-0.1-0.2-0.3-0.4-0.4-0.7c0-0.2-0.1-0.3-0.1-0.6c-0.1-0.3-0.1-0.8,0-1.2
		c0.1-0.4,0.1-0.8,0.2-1c0.1-0.2,0.1-0.4,0.2-0.6c0.1-0.2,0.2-0.4,0.4-0.6C41.3,409.1,41.4,409.1,41.4,409L41.4,409z"/>
</g>
</svg>
