<?xml version="1.0" encoding="utf-8"?>
<!-- Generator: Adobe Illustrator 19.0.0, SVG Export Plug-In . SVG Version: 6.00 Build 0)  -->
<svg version="1.1" id="Layer_1" xmlns="http://www.w3.org/2000/svg" xmlns:xlink="http://www.w3.org/1999/xlink" x="0px" y="0px"
	 viewBox="1056 92 2278 606" style="enable-background:new 1056 92 2278 606;" xml:space="preserve">
<style type="text/css">
	.st0{fill:none;}
	.st1{fill:#FFFFFF;}
</style>
<g id="Layer_2">
</g>
<path class="st0" d="M1280.7,226.7c2.9-0.7,5.7-1.3,8.4-1.8c39.6-7.5,73-3.3,98.6,11.6c25.9,15,43.6,40.7,51.6,75.8
	c0.5,2,0.9,4,1.3,6l0,0.1c1.4,7.3,1.9,14.8,1.6,22.3c-0.3,7.6-1.4,15.2-3.1,22.6c-9.2,38.5-37.5,74.7-76.4,85.3l-32.2,8.7l21,110.6
	l1.5,7.8l-7.8,1.6l-0.1,0h0c-14.8,2.9-29.7,5.9-44.5,9c-37.4,7.7-73.9,15.7-109.3,23.8l-8,1.8l-1.6-8l-67.8-330.6l-1.6-7.6l7.5-1.8
	l0.1,0v0c14.4-3.6,28.8-7.1,43.2-10.5C1202.2,244,1241.4,235.1,1280.7,226.7z M1914.2,315.8l129.4,70.9l6.4,3.5l-2.9,6.7l-1,2.1
	c-3.8,8.5-8.3,16.6-13.6,24.3c-5,7.3-10.7,14.1-17,20.3c-31.3,30.9-75.1,45-124.2,44.7c-0.9,0-1.7,0-2.4,0
	c-25.7-0.5-51.1-6.6-74.2-18c-57-28.3-95.6-86.8-95.6-155.2l0-2.3v0c0.6-47,18.4-89.5,47.7-120.4c29.5-31,70.6-50.2,117.7-50.5h2.3
	c9.1,0.1,18.1,1.3,26.9,3.5c7.8,2,15.5,4.8,23,8.3c36.9,17.3,67.7,51.4,90,85.7l4.5,7l-7.2,4.3L1914.2,315.8L1914.2,315.8z
	 M1539.9,178.4l237,317.5l8.2,11l-13.7,1.7c-0.2,0-0.1,0,0,0l-0.1,0c-34.9,4.3-69.9,9-104.7,13.9c-85.8,12.2-171.3,26.3-256.5,42.3
	l-13.3,2.5l4.3-12.9L1526,180.6l4.9-14.5L1539.9,178.4L1539.9,178.4z"/>
<path class="st0" d="M1522.9,188.9l216.5,286.2l14.5,19.1L1730,497l-0.1,0c-16,1.9-32.1,3.8-48.1,5.8c-18.9,2.4-34.8,4.4-47.5,6.1
	c-78.3,10.5-156.3,22.7-234.1,36.5l-22.8,4l7.5-22l114.1-334.7l8.3-24.4L1522.9,188.9L1522.9,188.9z M1898.2,296.8l131.3,56.4
	l12.6,5.4l-5.4,12.6v0.1c-4,9.2-8.7,18.1-14.1,26.4c-5.4,8.3-11.4,16.2-18,23.6c-33.9,37.5-82.9,60.4-135.2,60.4h0
	c-48.4,0-94.7-19.3-128.8-53.5c-34.2-34.1-53.5-80.5-53.5-128.8v-0.1c0-48.3,19.3-94.7,53.5-128.8c34.1-34.2,80.5-53.5,128.8-53.5
	h0.1c30.6,0,60.5,7.8,86.9,22.1c26.8,14.3,49.5,35.2,66.2,60.6l7.5,11.4l-11.5,7.5L1898.2,296.8L1898.2,296.8z M1251.7,219.9
	c1.6-0.4,3.2-0.7,4.8-1.1c42.1-8.5,77.7-4.7,105,10.1c28.1,15.2,47,41.5,55,77.8l0.1,0.1c0.3,1.3,0.5,2.3,0.6,3l0,0.1
	c1.5,7.4,2,14.9,1.7,22.5c-0.3,7.6-1.4,15.2-3.3,22.5c-9.6,38.1-39.3,74.2-80,84.9l-26.5,7l19.7,97.9l2.7,13.5l-13.6,2.6l-0.1,0
	c-14.7,2.8-29.4,5.8-44.1,8.7c-36.2,7.3-72.4,14.9-108.5,23l-13.4,3l-2.9-13.4l-67.4-309.9l-2.9-13.2l13.2-3v0
	c14.3-3.4,28.6-6.8,43-10.1C1173.7,236.7,1212.7,228.1,1251.7,219.9L1251.7,219.9z"/>
<g>
	<path class="st1" d="M1869.3,130.7c56.7,0,110.7,29,141.6,76.4l-141.6,92.2l154.8,66.5c-26.3,61.3-87.6,102.1-154.8,102.1
		c-92.9,0-168.6-75.7-168.6-168.6C1700.6,206.5,1776.4,130.7,1869.3,130.7 M1511.9,197.2l216.5,286.2
		c-110.7,12.8-220.9,29-330.6,48.6L1511.9,197.2 M1298.6,228.1c56.8,0,94.2,29.7,105.2,84.3c9,44.6-22.1,101-71.6,114l-39,10.3
		l22.2,110.5c-53.3,10.3-104.4,21-153.1,31.8L1095,269.2c53-12.7,106.2-24.7,159.5-35.9C1270.2,229.8,1285,228.1,1298.6,228.1
		 M1869.3,116.7c-100.7,0-182.6,81.9-182.6,182.6c0,100.7,81.9,182.6,182.6,182.6c35.6,0,70.4-10.5,100.4-30.4
		c29.9-19.8,53.2-47.5,67.2-80.2l5.5-12.9l-12.9-5.5l-130.8-56.2l119.7-77.9l11.7-7.6l-7.7-11.7c-16.4-25.2-39.4-46.2-66.3-60.7
		C1929.5,124.4,1899.4,116.7,1869.3,116.7L1869.3,116.7z M1507.2,167.7l-8.5,25l-114.1,334.7l-7.7,22.5l23.4-4.2
		c108.9-19.4,219.9-35.7,329.8-48.4l24.3-2.8l-14.8-19.5l-216.5-286.2L1507.2,167.7L1507.2,167.7z M1298.6,214.1v14V214.1
		c-14.7,0-30.5,1.9-47,5.5c-53.2,11.1-107,23.2-159.9,35.9l-13.3,3.2l2.9,13.4l67.4,309.9l3,13.8l13.7-3.1
		c49.6-11,101-21.7,152.7-31.7l13.8-2.7l-2.8-13.8l-19.6-97.6l26.2-6.9c26.9-7.1,50.4-25.4,66.1-51.5c15-24.9,20.7-53.6,15.6-78.8
		c-6.1-30.4-19.7-54.3-40.4-70.8C1356.6,222.5,1330.2,214.1,1298.6,214.1L1298.6,214.1z"/>
</g>
<g>
	<path class="st1" d="M2302.1,150.1l124.1,174.7l9.2,12.9L2447,327l151.9-139.5l-30,302.5c-54-7.3-103.5-13.4-151.2-18.7
		c-48.7-5.3-98.2-9.9-147.1-13.6L2302.1,150.1 M2836.7,220.7l94.8,343.6c-92.7-23.5-187.3-44-281.4-61.1
		c-15.8-2.8-31.9-5.6-47.7-8.3L2836.7,220.7 M3042.4,284.2l86.7,180.6l16.2,33.8l9.9-36.1l42.6-155.4c25.2,8.1,50.7,16.5,75.8,24.8
		l16.1,5.3c0.8,0.3,1.5,0.5,2,0.7c0.2,0.1,0.4,0.2,0.7,0.2c0.4,0.1,0.9,0.3,1.8,0.6c1.7,0.6,4.6,1.5,9.4,3.1l0.3,0.1L3217,647.3
		c-70.2-23.2-142.1-44.7-213.5-64.1c-12.2-3.3-24.6-6.6-36.8-9.8l-0.1,0l-1.1-0.3L3042.4,284.2 M2291.9,111.7l-35.2,345l-1.4,14
		l14,1.1c49,3.7,98,8.3,146.9,13.6c49.6,5.4,99.6,11.7,151.1,18.7l14.1,1.9l0-0.3l18.1,3l0.1,0c16,2.7,32,5.4,48,8.3
		c94.3,17.1,188,37.5,281,61l19.8,5l13.3,3.5l0.1,0c12.7,3.3,25.4,6.7,38.1,10.2c71.6,19.4,142.6,40.7,213,63.9l13.6,4.5l3.9-13.8
		l86.9-305.9l3.6-12.6l-12.5-4.2l-0.4-0.1l0,0c-9.5-3.2-11.6-3.9-11.6-3.9c0,0,1.3,0.4,1.3,0.4c0,0-0.8-0.3-3.6-1.2l-16.1-5.3
		c-25.4-8.4-50.8-16.8-76.2-25l-13.6-4.3l-3.8,13.8l-42.7,155.7L3038.6,244l-86.7,325.8l-2.2,8.2l-4.6-16.9L2850,216.4l-6.9-24.9
		l-16.7,19.6l-235.1,275.1h0l-9.1,10.6l0.5-5.1l33.7-339.4l-178.9,164.3L2291.9,111.7L2291.9,111.7z"/>
</g>
<path class="st1" d="M1266.6,315c12.2,0,22.1,9.9,22.1,22.1s-9.9,22.1-22.1,22.1c-12.2,0-22.1-9.9-22.1-22.1S1254.4,315,1266.6,315z
	 M1368.1,299.8c1.2,4.1,2.3,8.4,3.2,12.6c9,41.9-14,76.4-79.8,90.8c-13.9,3.6-27.3,6.4-41.2,10c7.4,36.8,14.6,72.2,22,109.1
	c-33,6.4-63.9,13.3-94.5,19.9l2.3,12.3c36.4-8,72.9-15.6,109.4-22.8l-22.2-110.4c13.9-3.6,27.3-6.4,41.2-10
	c59.6-15,84.7-57,75.7-98.9c-1.1-5.2-2.4-10.4-4-15.5L1368.1,299.8L1368.1,299.8z M1601.7,478.9c29.9-4.2,60.3-8.2,90.9-11.9
	l-9.1-12l-58-76.6l-16.5,2.4l57.5,76c-22.1,2.8-45.7,6.3-67.5,9.4L1601.7,478.9L1601.7,478.9z M1878,323.8l120.2,48.2l1,0.4
	l-0.4,0.9l0,0c-3.4,7.4-7.6,14.5-12.4,21.1c-12.6,17.1-29,30.9-48,40.3l-0.7,0.4l-0.5-0.6l-7.7-10l-0.8-1l1.1-0.5l0,0
	c6.1-2.8,12-6.1,17.7-9.7c13.9-9.2,25.7-20.9,34-34.4l-104.1-40l-0.6-0.2v-0.6l0-13.3v-1.5L1878,323.8L1878,323.8z M2458.8,455.8
	c28.4,3.3,57,6.9,86.2,10.8c3.2-32,6.3-64.1,9.5-96.1l-13.9-2l-8.2,83.2c-24.1-3.1-48.2-6-72.3-8.9L2458.8,455.8L2458.8,455.8z
	 M2808.7,514.8c30.8,6.8,61.1,13.9,90.8,21.2c-9.7-35.1-19.4-70.3-29.1-105.4l-13.9-2.9l25.1,90.9c-23.3-5.6-46.7-11-70.2-16.2
	L2808.7,514.8L2808.7,514.8z M3108.8,592.9c31.6,9.5,62,18.9,90.9,28.4l31.5-110.8l-14.3-4.1l-27.5,98.4
	c-25.7-8.3-51.5-16.3-77.4-24.1L3108.8,592.9L3108.8,592.9z M2795.4,391c12.2,0,22.1,9.9,22.1,22.1c0,12.2-9.9,22.1-22.1,22.1
	s-22.1-9.9-22.1-22.1C2773.3,400.9,2783.2,391,2795.4,391z M1544.7,366.4c12.2,0,22.1,9.9,22.1,22.1s-9.9,22.1-22.1,22.1
	c-12.2,0-22.1-9.9-22.1-22.1C1522.6,376.3,1532.5,366.4,1544.7,366.4z"/>
<path class="st0" d="M2093.7,255.5h116.5v78.8H2080v-78.8H2093.7L2093.7,255.5z"/>
<g>
	<path class="st1" d="M2196.5,269.2v51.4h-102.7v-51.4H2196.5 M2210.5,255.2h-14h-102.7h-14v14v51.4v14h14h102.7h14v-14v-51.4V255.2
		L2210.5,255.2z"/>
</g>
</svg>
