<?xml version="1.0" encoding="utf-8"?>
<!-- Generator: Adobe Illustrator 19.0.0, SVG Export Plug-In . SVG Version: 6.00 Build 0)  -->
<svg version="1.1" id="Layer_1" xmlns="http://www.w3.org/2000/svg" xmlns:xlink="http://www.w3.org/1999/xlink" x="0px" y="0px"
	 viewBox="0 0 395.2 158.2" style="enable-background:new 0 0 395.2 158.2;" xml:space="preserve">
<style type="text/css">
	.st0{fill:#FFFFFF;}
</style>
<g>
	<path class="st0" d="M69.7,28.7c2.2-2.9,4.3-5.8,6.5-8.6c1.9-2.5,3.8-5,5.9-7.4c3.3-3.7,3.4-3.7,2.2-8.5c1.3-0.1,2.5-0.4,3.8-0.4
		c4.5,0,9,0,13.5,0c3.4,0,7.1-0.9,9,2.1c-0.7,2.9-1.7,5.5-1.8,8.1c-0.2,9.3-0.1,18.7-0.1,28c0,1.9-0.2,4,3.2,4.5
		c-4.4,2.9-8.3,5.4-12.1,8c-2.8-1.9-3-4.6-2.8-7.5c0.2-5.8,0.2-11.7,0.5-17.5c0.2-2.8-1-3.9-3.4-4.4c-7.4-1.5-12.8,3.5-11.3,10.7
		c0.4,2,1.2,3.7,3.4,4.6c1.5,0.6,2.8,1.7,4.6,2.8c-4.1,3.7-8,7.2-11.8,10.7c-2.1,1.9-3.9,0.5-5.3-0.7c-2.5-2.3-4-5.2-4.3-8.7
		c-0.2-3.4-0.7-6.8-1.5-10.5c-6.8,12-17,19.6-29.8,24.3c1.1-7,5.1-12.1,8.4-17.7c3.5-6,5.6-12.4,5.1-19.5c-0.2-3-1.5-4.9-4.4-5.9
		c-10.8-4-21.6,3.5-21.7,15.1c0,18.5,0,37,0,55.5c0,1.5,0,3,0,4.7c2.4,0.9,4.6,1.8,7.2,2.8c-5.4,4.1-10.6,8-15.7,11.8
		c-2.6-1.9-2.8-4.3-2.8-7c0.1-21.7,0.2-43.3,0.3-65c0-1.8,0-3.6,0-6.3c-3.3,0-6.4-0.2-9.4,0.1c-2.7,0.3-4.3-0.6-5.2-2.7
		c4.7-3.7,9.4-7.3,14.3-11.1c1.9,1.8,3.9,3.6,6.1,5.7c3.9-6.2,9.4-10.6,15.2-14.9C40.7,0.1,45.9-1,51.9,1C59.2,3.4,64.5,8.3,68,15
		C70.2,19.2,69.8,23.7,69.7,28.7z M96.5,11.3c-4.5-0.3-6.9,2.2-7.9,8C92.6,19.1,95.5,16.1,96.5,11.3z"/>
	<path class="st0" d="M293.3,98.9c-2.9,4.7-4.9,9.3-8,13c-8.2,9.8-21.2,10.7-31.9,5.3c-10.1-5.1-16.2-16.6-12.6-27.7
		c4.4-13.7,12.6-22.6,29-21c8.1,0.8,14.6,4.9,19.8,10.9c1.5,1.8,2.1,4.4,3.1,6.6c0.4,0.9,0.8,1.8,2.2,2.6c0.2-0.9,0.3-1.8,0.6-2.6
		c2.5-8.9,8.7-13.9,17.2-16.4c2.6-0.8,5.6-0.7,8.3-1c8.9-0.9,15.9,2.9,21.4,9.5c5.3,6.4,5.1,13.8,3.2,21.3
		c-5.1,19.7-27.5,27.6-42.9,15c-3.8-3.1-6.7-6.9-8.1-11.7C294.3,101.5,293.8,100.3,293.3,98.9z M335.6,86c0.1-5.5-0.9-6.6-6.3-7.4
		c-0.7-0.1-1.3-0.3-2-0.2c-10.5,0.8-22.4,10.1-22.4,23.4c0,7.5,3.8,10.6,11.9,8.2c5.8-1.8,10.6-5.5,14.1-10.5
		C333.6,95.3,335.8,91.1,335.6,86z M251.5,100.8c-0.2,5.5,1.2,8.6,4.9,9.1c5.3,0.6,10.6,0.1,14.9-3.6c2.2-2,4.2-4.3,6-6.6
		c3.6-4.5,4.7-9.8,4.7-15.4c0-3.7-1-4.6-4.9-5.4c-1.1-0.2-2.3-0.5-3.4-0.4C263,79.2,251.6,88.8,251.5,100.8z"/>
	<path class="st0" d="M109.7,68.7c1.6,1.3,3.2,2.5,4.5,3.5c3.8-1.4,7.4-3.1,11.2-4.2c6.9-1.9,12.8,2.4,13.1,9.6
		c0.3,6.4-2.2,12-6.1,17c-2.8,3.6-2.8,3.6,0.1,7.2c0.1,0.1,0.2,0.2,0.3,0.4c2.6,5.4,6.9,6.5,12.6,4.6c-0.6-5.7,0-11.2,3.6-16
		c0.8-1.1,1.5-2.3,2.5-3.1c4.3-3.6,6.6-8.7,9.3-13.4C161.6,73,161,71,161,69c8.8,0.2,18.1-1.1,26.6,1.6c-0.6,3.4-1.5,6.5-1.5,9.6
		c-0.2,9-0.1,18-0.1,27c0,1.8-0.3,3.8,3.6,3.9c-4.9,3.2-8.9,5.8-13.7,8.9c-0.6-3.3-1.4-5.9-1.4-8.5c-0.2-5.7,0.1-11.3,0-17
		c-0.1-3.5-1.1-4.4-4.5-4.7c-6.6-0.6-10.9,3.4-10.2,9.6c0.3,2.6,1.2,4.7,3.9,5.8c1.5,0.6,2.7,1.8,4.2,2.9c-4,3.6-7.6,6.9-11.4,10.2
		c-1.9,1.7-4.9,1.3-6.4-0.8c-1.3-2-2.5-4.2-4-6.9c-3.8,3.1-7.5,6.2-11.7,9.7c-5.9-8.2-11.6-16.1-17.6-24.4c7.4-2.1,9.8-7.3,9.7-14
		c-0.1-5.1-3.3-6.8-7.7-4.3c-2.8,1.6-4.5,3.5-4.3,7.1c0.3,5.8,0.4,11.7,0,17.5c-0.2,3.9,1.5,5.9,5.3,7.3c-2.4,1.8-4.6,3.5-6.8,5.1
		c-2.1,1.6-4.3,3.1-7,5c-0.7-2.5-1.9-4.7-2-6.9c-0.2-10.5-0.1-20.9-0.1-31.5c-0.7-0.4-2.1-0.8-2.3-1.5c-0.3-0.9,0-2.4,0.6-3.1
		C104.5,73.9,107,71.4,109.7,68.7z M174.1,76.1c-5.1,0.2-7.6,2.9-7.6,7.9C169.3,81.6,173,80.6,174.1,76.1z"/>
	<path class="st0" d="M65.7,146.6c-1.2-1.1,3.3-3.2-1.3-3.5c1.2-1.9,2.2-3.8,3.5-5.4c8.2-9.9,11.4-21.9,14.5-34
		c1.4-5.7,0.8-11.2,0-16.8c-1.4-10-10.3-14.5-19.3-9.9c-2.9,1.5-3.9,3.4-3.9,6.7c0.1,15.3-0.1,30.7-0.1,46c0,6.2-0.2,12.3,0,18.5
		c0.1,2.4-0.7,4.1-2.8,5.4c-2.4,1.5-4.6,3.1-7,4.7c-2.6-5.9-2.2-11.9-2.3-17.8c-0.2-10.3,0.4-20.6,0.4-31c0-8.5-0.5-16.9-0.7-25.8
		c-2.5-0.1-4.8-0.3-7.4-0.4c-0.5-0.9-1.1-2-1.9-3.5c4.4-4.1,8.9-8.2,13.2-12.1c1.4,0.6,2.3,0.8,2.9,1.3c4.5,3.9,4.5,3.9,9.2,1.4
		c7.9-4.1,15.7-4.4,23,1.1c3.7,2.8,7.2,6,9.9,9.7c4.6,6,3.8,13.2,2.6,20.2c-1.9,11.3-7.6,20.8-15,29.4
		C78,136.7,72.3,142.1,65.7,146.6z"/>
	<path class="st0" d="M268.6,33.4c1.8,2.2,3.5,4,5,6c1.8,2.5,3.9,3.7,7.1,3.6c1.5,0,3.1,1.2,5.2,2.1c-4.3,3.8-8.1,7.2-12.5,11
		c-5.9-8.2-11.7-16.1-17.7-24.4c1.7-1.2,3.2-2.2,4.6-3.2c4.8-3.6,6.1-8.5,5.2-14.2c-0.1-0.8-1-1.8-1.7-2c-4.4-1.5-10.1,2.6-10.1,7.2
		c-0.1,7.8,0,15.6,0,23.5c1.6,0.8,3.2,1.5,5,2.4c-4.4,3.3-8.7,6.4-13.1,9.6c-4.7-3.4-2.6-8.2-2.7-12.5c-0.1-3.4,0.1-6.8,0-10.3
		c0-3.2-0.2-6.3-0.2-9.5c-0.1-3.4,0.8-7.1-4-9.1c2.8-2.6,5.1-4.7,7.4-6.8c2-1.9,4.2-1.9,5.8,0.2c1.6,2,3.1,1.4,4.8,0.5
		c1.8-0.9,3.5-1.9,5.2-2.8c3.8-1.9,7.4-2.7,11.2,0.2c3.9,3,5.1,6.9,4.4,11.5C276.5,22.9,273.6,28.4,268.6,33.4z"/>
	<path class="st0" d="M236.4,70.8c0.4,2.3,0.8,3.9,1.1,5.9c-3.1,2.1-6.2,4.2-9.7,6.6c-1.1-1.4-2.1-2.6-3-3.8
		c-3-4.1-6.6-4.9-11.3-2.8c-6.1,2.8-8.5,8.1-9.6,14.2c-0.7,4.3-0.1,8.4,2.3,12.4c2.6,4.4,11,7,16.5,4.8c2.8-1.1,3.2-3.2,3.5-5.4
		c0.2-2.5-2-2.6-3.7-3c-0.8-2.7,0-4.5,2.4-6c2.8-1.7,5.4-3.9,8.1-5.9c2.7,0.6,3.8,2.2,4.3,4.8c2.3,11-0.6,18-11.5,24.4
		c-9.1,5.4-19,3.7-26.3-4c-8.8-9.3-9.3-18.7-1.8-29.1c2.1-2.9,3.4-6.3,5.1-9.5c-1.5-1.8-2.7-3.3-4.5-5.4
		C211.3,69.2,223.8,68,236.4,70.8z"/>
	<path class="st0" d="M353.2,118.7c-3.9-3.8-2.6-8.2-2.5-12.3c0.1-3.5,0.5-6.9,0.5-10.4c0-3.3-0.7-6.6-0.6-9.9
		c0.1-3-0.5-5.5-2.9-7.5c-1.1-0.9-1.9-2.2-3-3.7c3.1-2.3,6-4.5,9.3-6.9c10.2,8.7,18,19.6,28.2,28.8c1.5-8.7,1.2-16.9-1.6-25
		c1.7-1.2,3.4-2.4,4.9-3.5c3.1,0.7,3.7,2.6,3.6,5.4c-0.2,8.3,0.1,16.7-0.1,25c-0.1,4.1,0.6,7.5,3.8,10.2c0.9,0.7,1.5,1.7,2.6,3
		c-3.1,2.2-6,4.3-9.3,6.6c-9.5-9.8-18.8-19.3-28.7-29.6c0,7.2,0,13.2,0,19.4c2,0.7,4,1.3,6.4,2.1
		C360.1,113.2,356.7,115.9,353.2,118.7z"/>
	<path class="st0" d="M153.3,4.2c2.4,1.4,3.5,2.8,3.5,5.5c-0.2,9.5,0.1,19-0.2,28.5c-0.1,4.2,1,7,4.9,8.5c0.4,0.2,0.6,0.7,1.2,1.4
		c-3,2.1-5.9,4.2-9.2,6.7c-9.3-9.6-18.6-19.2-28.6-29.6c0,6.7,0,12.4,0,18.5c1.8,0.8,3.9,1.7,6.4,2.9c-3.6,2.9-7,5.5-11.1,8.8
		c-0.6-2.6-1.6-4.8-1.6-7.1c-0.3-9-0.4-18-0.4-27c0-2.7-0.8-4.8-2.9-6.6c-1.1-0.9-2-2.2-3.3-3.8c3.4-2,6.5-3.9,9.9-5.9
		c9.2,9.8,18.2,19.3,27.1,28.8c0.3-0.2,0.7-0.3,1-0.5c0.1-1,0.4-2.1,0.4-3.1c-0.1-5.2-0.2-10.3-0.6-15.5c-0.2-2.1-1.2-4.1-2-6.6
		C149.5,7.1,151.3,5.7,153.3,4.2z"/>
	<path class="st0" d="M206.7,10.1c-0.8-1.9-1.5-3.3-2.5-5.5c9.8-0.3,19.1-0.7,28.3-0.8c1.5,0,3,1.4,4.9,2.4
		c-2.4,5.1-4.8,10.2-7.5,16.1c-1.1-2.4-1.9-4.1-2.7-5.9c-1.1-2.5-2.9-4.3-5.6-5.3c-4.6-1.7-9.1-0.1-10.8,4.7c-0.6,1.7-0.3,4,0.4,5.6
		c0.4,0.8,3.1,1,4.3,0.6c2.4-0.9,3.5,0.8,5.1,1.6c-1.3,6.3-7.4,5.7-11.5,7.8c0.5,8.8,4.1,10.1,10.8,9.5c2.6-0.2,5.4-0.9,7.5-2.4
		c2.1-1.5,2.2,1,3.4,1c0.3,0,1,1.7,0.9,2.4c-1,5.3-4.1,9.1-8.9,11.2c-13.7,6.1-23.8-1.9-24.2-14.9C198.1,27.9,200.5,18.6,206.7,10.1
		z"/>
	<path class="st0" d="M179.3,9.9c-5.9,1.1-8.6,6-11.7,10.7c-4.2-5-1.5-10.3-2-15.4c9-2.3,17.8-1.4,26.5-1.3c1.3,0,2.6,1.5,4.2,2.5
		c-4.9,9.7-9.8,19.5-14.7,29.2c-0.5,1-1.2,2-1.5,3.1c-1.3,4.2,0.3,6.6,4.7,6.5c2.4,0,4.9-0.7,7.1-0.4c0.9,0.3,1.8,0.6,2.7,0.9
		c-2.6,6.2-13.3,10.9-20.7,9.5c-5.4-1.1-10-8.4-7.8-13.5c3.1-7.3,6.8-14.4,10.3-21.5c1.5-3.1,2.9-6.1,4.4-9.2
		C180.1,10.5,179.7,10.2,179.3,9.9z"/>
</g>
</svg>
