<?xml version="1.0" encoding="utf-8"?>
<!-- Generator: Adobe Illustrator 19.0.0, SVG Export Plug-In . SVG Version: 6.00 Build 0)  -->
<svg version="1.1" id="Layer_1" xmlns="http://www.w3.org/2000/svg" xmlns:xlink="http://www.w3.org/1999/xlink" x="0px" y="0px"
	 viewBox="249 232.8 1110.8 328.3" style="enable-background:new 249 232.8 1110.8 328.3;" xml:space="preserve">
<style type="text/css">
	.st0{fill:#FFFFFF;}
</style>
<g id="Perfect_Dark_logo">
	<g id="logo">
		<g id="outline">
			<path class="st0" d="M467.2,282.8l-4.5-4.5l-44.3-43.8l-1.8-1.7H249l7.8,9.8l19,23.8l1.8,2.3h121.2l12.6,12.1l-26,23.4
				l-11.5,10.5h57.9l1.7-1.5l29-26L467.2,282.8z"/>
			<path class="st0" d="M380.1,276.5h-39l-1.2,4.5l-23,92.3l-1.9,7.5h40l1.1-4.6l22.3-92.3L380.1,276.5z"/>
			<path class="st0" d="M474.7,271.8l1.8,1.8H640l9.8,9.6l-10.2,6.9l-16.2,11h55.1l1.5-1l16.1-10.9l6-4.1l-5.1-5.2L664.2,247
				l-1.8-1.8H448.3l10.2,10.2L474.7,271.8z"/>
			<path class="st0" d="M600.8,373.6l0.9-4.9l14.5-82.4l1.2-7h-37.1l-0.9,4.9l-13.7,71.3l-8.1-8.1l-1.8-1.8h-50.9l4.4-26h28.2
				l1.8-1.8l16.3-16.3l10.2-10.3H514l0.9-5l1.2-7H479l-0.9,4.9l-15.8,83.5l-1.3,7.2l7.3-0.1l127.5-1.1L600.8,373.6z"/>
			<path class="st0" d="M753.5,279.3H717l-0.9,4.9L705,345.4l-22.3-32.3l-1.8-2.6h-58.8l-1,4.7l-3.8,17l-1.6,7.3h48.3l22.2,32.6
				l1.8,2.6H735l0.9-4.9l9.8-50.4h29.8l1.7-1.8l16.3-16.3l10.2-10.3h-52.5l0.9-4.9L753.5,279.3z"/>
			<path class="st0" d="M709.5,271.8l1.8,1.7h207.3l1.8-1.9l16.2-17.2l9.5-10.1H681.6l10.4,10.3L709.5,271.8z"/>
			<path class="st0" d="M907.5,373.3H922L911.8,363l-15.7-15.6l-1.8-1.8H843l4.8-25.6h28.7l1.8-1.8l16.7-16.8l10.2-10.2h-52l0.9-4.9
				l1.3-7.1h-38l-0.9,4.9l-14.8,82l-1.3,7.1H907.5z"/>
			<path class="st0" d="M985,279.3h-50.8l-1.8,1.8l-38,38l-4.3,4.3l4.3,4.2l45.8,44.9l1.8,1.7h86.8l-10.2-10.3l-16.9-16.9l-1.7-1.8
				h-36.9l-22.8-21.4l34.4-34.4L985,279.3z"/>
			<path class="st0" d="M954,273.5h198l1.8-2.4l12.8-17.3l7.1-9.6h-206l-1.8,1.9l-16.2,17.3l-9.5,10.1H954z"/>
			<path class="st0" d="M1091.9,279.3h-36.6l-0.9,4.9l-16,82.9l-1.3,7.1h37.8l0.9-4.9l15-82.9L1091.9,279.3z"/>
			<path class="st0" d="M789.9,484.1l-4.5-4.4L721,417.4l-1.7-1.7H555.2l7.6,9.7l18,23l1.8,2.3h119.8l31.8,31.8l-47,42.9H665l-1,4.8
				l-5,23.7l-1.5,7.2h49.1l1.7-1.6l77-71L789.9,484.1z"/>
			<path class="st0" d="M673.1,458.7h-38.3l-1.1,4.6L612,553.6l-1.8,7.4h38.3l1.1-4.6l21.7-90.3L673.1,458.7z"/>
			<path class="st0" d="M867,492l-1.8-1.8h-31.8l4.2-23.4l1.3-7.1h-37.4l-0.9,4.9l-15.5,85.3l-1.3,7.1h37.7l0.9-4.9l5.8-32.4h66.4
				l-10.2-10.3L867,492z"/>
			<path class="st0" d="M990,459.8h-29.8l-0.9,4.9l-9.5,51.2l-89.6-89.6l-1.8-1.8H746.3l10.2,10.3l17,17l1.8,1.8h66.2l101.2,101.7
				l1.8,1.8h35.8l0.9-5l14.8-85.3l1.2-7H990z"/>
			<path class="st0" d="M1003.9,481.8h55.5l1.5-1l15.9-10.9l6-4.1l-5.1-5.1l-34.4-34.4l-1.8-1.8H874.1l10.1,10.3l17.3,17.5l1.8,1.8
				h117.3l9.6,9.5l-10.6,7.4L1003.9,481.8z"/>
			<path class="st0" d="M1141.4,426h-36.9l-0.9,4.9l-16.3,87.9l-27.1-27.1l-1.8-1.8h-57.3l-0.8,5l-3,17.5l-1.2,7h48.9l35.5,35.7
				l1.8,1.8h36l0.9-5l21-119L1141.4,426z"/>
			<path class="st0" d="M1242.4,426h-39.6l-1.8,2l-49.5,56.3h-12.2l-1,4.8l-3.5,17l-1.5,7.2h21.4l40,40l1.8,1.8h42.7l-10.5-10.3
				l-48.2-47.3l53.3-61.5L1242.4,426z"/>
			<path class="st0" d="M1269,431.5l-5.9-5.9l-3.7,7.5l-8.3,16.9l-1.8,3.8l2.9,3l16.3,16.9l1.8,1.8h43.1l-10.3-10.2L1269,431.5z"/>
			<path class="st0" d="M1349.5,465.3l-47.8-47.5l-6-6l-3.7,7.6l-8.3,17.3l-1.8,3.9l3.1,3l30.8,30.3l1.8,1.7h42.2L1349.5,465.3z"/>
		</g>
	</g>
	<g id="logo-2">
		<g id="outline-2">
			<path class="st0" d="M467.2,282.8l-4.5-4.5l-44.3-43.8l-1.8-1.7H249l7.8,9.8l19,23.8l1.8,2.3h121.2l12.6,12.1l-26,23.4
				l-11.5,10.5h57.9l1.7-1.5l29-26L467.2,282.8z"/>
			<path class="st0" d="M380.1,276.5h-39l-1.2,4.5l-23,92.3l-1.9,7.5h40l1.1-4.6l22.3-92.3L380.1,276.5z"/>
			<path class="st0" d="M474.7,271.8l1.8,1.8H640l9.8,9.6l-10.2,6.9l-16.2,11h55.1l1.5-1l16.1-10.9l6-4.1l-5.1-5.2L664.2,247
				l-1.8-1.8H448.3l10.2,10.2L474.7,271.8z"/>
			<path class="st0" d="M600.8,373.6l0.9-4.9l14.5-82.4l1.2-7h-37.1l-0.9,4.9l-13.7,71.3l-8.1-8.1l-1.8-1.8h-50.9l4.4-26h28.2
				l1.8-1.8l16.3-16.3l10.2-10.3H514l0.9-5l1.2-7H479l-0.9,4.9l-15.8,83.5l-1.3,7.2l7.3-0.1l127.5-1.1L600.8,373.6z"/>
			<path class="st0" d="M753.5,279.3H717l-0.9,4.9L705,345.4l-22.3-32.3l-1.8-2.6h-58.8l-1,4.7l-3.8,17l-1.6,7.3h48.3l22.2,32.6
				l1.8,2.6H735l0.9-4.9l9.8-50.4h29.8l1.7-1.8l16.3-16.3l10.2-10.3h-52.5l0.9-4.9L753.5,279.3z"/>
			<path class="st0" d="M709.5,271.8l1.8,1.7h207.3l1.8-1.9l16.2-17.2l9.5-10.1H681.6l10.4,10.3L709.5,271.8z"/>
			<path class="st0" d="M907.5,373.3H922L911.8,363l-15.7-15.6l-1.8-1.8H843l4.8-25.6h28.7l1.8-1.8l16.7-16.8l10.2-10.2h-52l0.9-4.9
				l1.3-7.1h-38l-0.9,4.9l-14.8,82l-1.3,7.1H907.5z"/>
			<path class="st0" d="M985,279.3h-50.8l-1.8,1.8l-38,38l-4.3,4.3l4.3,4.2l45.8,44.9l1.8,1.7h86.8l-10.2-10.3l-16.9-16.9l-1.7-1.8
				h-36.9l-22.8-21.4l34.4-34.4L985,279.3z"/>
			<path class="st0" d="M954,273.5h198l1.8-2.4l12.8-17.3l7.1-9.6h-206l-1.8,1.9l-16.2,17.3l-9.5,10.1H954z"/>
			<path class="st0" d="M1091.9,279.3h-36.6l-0.9,4.9l-16,82.9l-1.3,7.1h37.8l0.9-4.9l15-82.9L1091.9,279.3z"/>
			<path class="st0" d="M789.9,484.1l-4.5-4.4L721,417.4l-1.7-1.7H555.2l7.6,9.7l18,23l1.8,2.3h119.8l31.8,31.8l-47,42.9H665l-1,4.8
				l-5,23.7l-1.5,7.2h49.1l1.7-1.6l77-71L789.9,484.1z"/>
			<path class="st0" d="M673.1,458.7h-38.3l-1.1,4.6L612,553.6l-1.8,7.4h38.3l1.1-4.6l21.7-90.3L673.1,458.7z"/>
			<path class="st0" d="M867,492l-1.8-1.8h-31.8l4.2-23.4l1.3-7.1h-37.4l-0.9,4.9l-15.5,85.3l-1.3,7.1h37.7l0.9-4.9l5.8-32.4h66.4
				l-10.2-10.3L867,492z"/>
			<path class="st0" d="M990,459.8h-29.8l-0.9,4.9l-9.5,51.2l-89.6-89.6l-1.8-1.8H746.3l10.2,10.3l17,17l1.8,1.8h66.2l101.2,101.7
				l1.8,1.8h35.8l0.9-5l14.8-85.3l1.2-7H990z"/>
			<path class="st0" d="M1003.9,481.8h55.5l1.5-1l15.9-10.9l6-4.1l-5.1-5.1l-34.4-34.4l-1.8-1.8H874.1l10.1,10.3l17.3,17.5l1.8,1.8
				h117.3l9.6,9.5l-10.6,7.4L1003.9,481.8z"/>
			<path class="st0" d="M1141.4,426h-36.9l-0.9,4.9l-16.3,87.9l-27.1-27.1l-1.8-1.8h-57.3l-0.8,5l-3,17.5l-1.2,7h48.9l35.5,35.7
				l1.8,1.8h36l0.9-5l21-119L1141.4,426z"/>
			<path class="st0" d="M1242.4,426h-39.6l-1.8,2l-49.5,56.3h-12.2l-1,4.8l-3.5,17l-1.5,7.2h21.4l40,40l1.8,1.8h42.7l-10.5-10.3
				l-48.2-47.3l53.3-61.5L1242.4,426z"/>
			<path class="st0" d="M1269,431.5l-5.9-5.9l-3.7,7.5l-8.3,16.9l-1.8,3.8l2.9,3l16.3,16.9l1.8,1.8h43.1l-10.3-10.2L1269,431.5z"/>
			<path class="st0" d="M1349.5,465.3l-47.8-47.5l-6-6l-3.7,7.6l-8.3,17.3l-1.8,3.9l3.1,3l30.8,30.3l1.8,1.7h42.2L1349.5,465.3z"/>
		</g>
	</g>
</g>
</svg>
