<?xml version="1.0" encoding="utf-8"?>
<!-- Generator: Adobe Illustrator 19.0.0, SVG Export Plug-In . SVG Version: 6.00 Build 0)  -->
<svg version="1.1"
	 id="svg31" sodipodi:docname="PGA Tour logo.svg" inkscape:version="0.92.4 (5da689c313, 2019-01-14)" xmlns:svg="http://www.w3.org/2000/svg" xmlns:rdf="http://www.w3.org/1999/02/22-rdf-syntax-ns#" xmlns:sodipodi="http://sodipodi.sourceforge.net/DTD/sodipodi-0.dtd" xmlns:inkscape="http://www.inkscape.org/namespaces/inkscape" xmlns:dc="http://purl.org/dc/elements/1.1/" xmlns:cc="http://creativecommons.org/ns#"
	 xmlns="http://www.w3.org/2000/svg" xmlns:xlink="http://www.w3.org/1999/xlink" x="0px" y="0px" viewBox="-217 284 164.1 225"
	 style="enable-background:new -217 284 164.1 225;" xml:space="preserve">
<style type="text/css">
	.st0{fill:#FFFFFF;}
</style>
<sodipodi:namedview  inkscape:current-layer="svg31" inkscape:window-maximized="1" inkscape:window-y="-8" inkscape:window-x="-8" inkscape:pageopacity="0" inkscape:window-height="705" inkscape:window-width="1366" inkscape:pageshadow="2" borderopacity="1" pagecolor="#ffffff" bordercolor="#666666" guidetolerance="10" showgrid="false" gridtolerance="10" inkscape:zoom="1.3258252" inkscape:cx="60.563355" inkscape:cy="161.08333" objecttolerance="10" id="namedview33">
	</sodipodi:namedview>
<path class="st0" d="M-81,284h-107.9c-15.5-0.4-28.1,12.2-28.1,27.7v169.2c0,15.5,12.6,28.1,28.1,28.1H-81
	c15.5,0,28.1-12.6,28.1-28.1V311.7C-52.9,296.2-65.5,283.6-81,284z M-59.4,480.9c0,12-9.7,21.7-21.7,21.7h-107.9
	c-12,0-21.7-9.7-21.7-21.7V311.7c0-12,9.7-21.7,21.7-21.7H-81c12,0,21.7,9.7,21.7,21.7V480.9z"/>
<g>
	<polygon class="st0" points="-138.6,324.8 -141.3,330.8 -136.1,330.8 	"/>
	<path class="st0" d="M-96.7,368.9c0,0-8.2,5.4-8.2,5.6c0.5,1.4,1.5,3.9,1.6,4.5c1.2-0.8,6.7-9.1,6.7-9.1
		C-96.6,369.3-96.7,368.9-96.7,368.9z"/>
	<path class="st0" d="M-181,322.4h-3v5.5h2.5c2.1,0,3.4-1,3.4-2.7C-178,323.5-179.3,322.4-181,322.4z"/>
	<path class="st0" d="M-131.4,483.8c-5.8,5.7-8.2,6.8-9.9,11c-0.2,0.4-1.6,4.2-1.9,4.3c-0.1,0.1-0.3,0.2-0.6,0.2h41.8
		c-1.2-1.8-1.1-5.1-0.7-7c0-3.2,1.1-15.4,2.3-27.2c-7.9,7.6-15.9,14.4-23.9,21.9C-127.3,486.3-128.6,484.6-131.4,483.8z"/>
</g>
<g>
	<path class="st0" d="M-170.4,473.6c0-0.9-0.4-1-1.2-1l-2.6,0l0,3.9c0,0,0,0.6,0.7,0.6l3,0c0-0.5,0-1.1,0-1.6
		C-170.4,475.5-170.4,473.9-170.4,473.6z"/>
	<path class="st0" d="M-168.7,397.4c0-9.2-2.3-9.2-4-9.2c-1.2,0-4,0-4,9.2c0,9.2,2.7,9.2,4,9.2C-170,406.6-168.7,403.5-168.7,397.4z
		"/>
	<path class="st0" d="M-81.2,293.3H-189c-10.2,0-18.4,8.2-18.4,18.4v169.2c0,10.1,8.2,18.4,18.4,18.4h44.6c-0.2,0-0.4-0.1-0.7-0.2
		c-2.5-1.1-3-5.2-2.5-7.3c0.4-4.1,2.8-8.3,4.9-10.7c0.5-0.5,1.2-2.6,1.3-2.8c0.8-2.4,3.3-2.3,5.2-2.9c4.8-4.3,26.1-20.7,29-21.8
		c0.4-4.1,4.3-3,2.7-4.8c0-0.1-4.2-12.6-7.2-18.2c-7.2-10.9-2.8-18.5-2.8-18.7c0.3-0.6,0-0.9-0.2-1.3c-1.1-2.1-4-8.1-9.1-15.7
		c-1.2-2.2-5.5-7.4-5.1-12.8c0-1.3,0.9-4.4,2.6-6.9c-2.7-1.6-7.9-5.6-8-9.3c-0.6-3.6,1.1-7.7,4.4-9.8c3.4-1.8,7.7-1.5,11.3-0.2
		c0.9,3.1,2.6,3.5,5.6,11.2c0,0,0,0.1,0,0.1s0.1-0.1,0.1-0.1c3.4-3.3,11.5-2.8,15.7-6.8c4.5-4.7,12.7-6.2,13.2-13.8
		c1.8-5.4-1.2-8.5-1.2-12.3c-0.1-0.1-0.4-2.4-0.3-2.5l-45.7-28.8c-1.6,2.5-3.6,9.7-7.9,6.9c-1-0.6-2.6-1.8-2.1-2.6
		c1.2-2.2,5.9-8.3,9.4-6.5l47.2,28.8h0c0.4-0.5,1.5-1.3,2.8-0.4c0,0,5.9,1.5,8.7,6.6c0,0-0.1,6.8-2.9,9.6l0,0
		c-2.2,7-7.3,20.1-10.6,26.5c-6.2,7.5-5.9,12-12.3,19.3c9.1,37.2,9.2,43.3,11.2,61.5c0.4,17.5,0.6,30.9,1.2,37.1
		c-0.5,0-2.9,0.4-5.2,0.9c1.7,1.1,3.9,3.9,4.8,4.5c2.7,2,2.3,3.6,2.1,4h3.7c10.2,0,18.4-8.2,18.4-18.4V311.7
		C-62.8,301.6-71,293.3-81.2,293.3z M-192.4,320h12.3c4.8,0,7.7,1.4,7.7,5.1c0,3.7-2.8,5.1-8.3,5.1h-3.2v4.3c0,0.7,0.4,1.1,1.1,1.1
		h2v2.4h-11.6v-2.4h1.8c0.7,0,1.1-0.4,1.1-1.1v-11.1c0-0.7-0.4-1.1-1.1-1.1h-1.8V320z M-151.5,487.4h-8.4c-3.5,0-6.3-1.1-8.2-3.2
		c0,0,0,2.9,0,2.9h-24.5l0-10c0,0,3,0,3.9,0c0-0.2,0.6,0.1,0.6-0.7c0-3.2,0-13.3,0-16.1c0.1-0.7-0.6-0.6-0.6-0.7c-0.9,0-3.9,0-3.9,0
		l0-10.1l9.2,0c-3.5-2.2-5-5.5-5-8.6v-16.6h-4.1V414h8.7c-5.6-3.1-8.8-8.9-8.8-16.6c0-8.4,3.6-13.6,8.6-16.4h-3.1v-9.5h7.2v-17
		c-1.6,0.1-2.7,1.7-2.8,4.2l-0.1,3.2l-9.9,0v-17.7h40.3v17.7l-9.9,0l-0.1-3.2c-0.1-2.5-1.2-4.2-2.8-4.3v17h7.2v9.5h-3.7
		c4.9,2.8,8.6,8,8.6,16.4c0,7.7-3.2,13.5-8.8,16.6h9.6l0.1,10.2h-4.1v15.6c0,4.8-1.7,8.3-5.2,10.3c2.5,0.8,4.4,2.2,5.7,4.4l0,0.1
		l0,0.1c0.9,1.8,1.4,3.8,1.4,5.8c0,2.9-1.1,5.3-3.1,7.1l-0.1,0l-0.1,0c-0.1,0.1-0.2,0.1-0.3,0.2c0.3,0.4,0.5,0.7,0.7,1.2
		c0.9,1.8,1.1,3.8,1.1,5.7l0,1.2c0,1.2,1,1.3,1.3,1.3l3.2,0V487.4z M-151.6,332v6.2h-2.6l-0.6-1.3c-1.7,1.2-3.9,1.7-5.8,1.7
		c-6.1,0-10.4-3.2-10.4-9.3c0-6.1,4.1-9.8,10.4-9.8c1.7,0,3.8,0.5,5.3,1.8l0.6-1.5h2.6l0,6.3h-2.7c-0.1-2.7-1.8-4.1-4.8-4.1
		c-3.4,0-5,2.3-5,7c0,4.7,1.6,7,5,7c1.1,0,2.5-0.4,2.5-1.7V332c0-0.7-0.4-1.1-1.1-1.1h-1.5v-2.4h10.7l0,2.4h-1.4
		C-151.2,330.9-151.6,331.3-151.6,332z M-139.7,320.2h4.4l5.8,13.4c0.7,1.6,0.8,2.1,2.8,2.4l0.3,0v2.1h-10.4V336
		c0.6-0.1,2.4,0,2.4-0.8c0-0.4-0.3-1-0.4-1.4l-0.4-0.9h-7l-0.3,0.9c-0.1,0.3-0.3,0.8-0.3,1.2c0,0.9,1.6,0.9,2.3,1l0.3,0v2.1h-8.8
		V336c2.5-0.2,3.1-1.6,3.9-3.4L-139.7,320.2z"/>
	<path class="st0" d="M-170.1,458.8l-4,0v4.2l4,0c0.9,0,1.9-0.8,1.9-2.2C-168.1,459.6-169,458.8-170.1,458.8z"/>
	<path class="st0" d="M-167.5,424.2l-5.9,0l0,0c0,0-0.6,0.1-0.6,0.5v15.4c0,1.1,1.2,2,3.7,2c2.4,0,3.4-0.9,3.4-2c0-2,0-15,0-15.4
		C-167,424.2-167.5,424.2-167.5,424.2z"/>
</g>
<path id="path22" inkscape:connector-curvature="0" class="st0" d="M-155.7,346.8H-190v12.4l4.7,0l0-0.6c0.2-4.7,2.9-6.8,5.6-6.8
	c1.7,0,2.6,0.3,2.6,1.1V372c0,1-0.7,2.2-1.6,2.2h-5.6v4.2h23.7v-4.2h-5.6c-1,0-1.6-1.1-1.6-2.2v-19.1c0-0.7,0.8-1.1,2.6-1.1
	c2.6,0,5.4,2.1,5.6,6.8l0,0.6l4.7,0v-12.4L-155.7,346.8z"/>
<path id="path24" inkscape:connector-curvature="0" class="st0" d="M-155,416.7h-14.1v4.9h2.6c0.9,0,1.5,0.1,1.8,0.5
	c0.3,0.3,0.3,0.8,0.3,1.6c0,0,0,0.4,0,0.4c0,0,0,17,0,17c-0.1,0.8-0.9,3.8-6,3.8c-4,0-6.3-1.5-6.3-4.1v-17c0-2,0.9-2.1,1.8-2.1h3.2
	v-4.9h-17.9v4.9h2c0.9,0,1.5,0.1,1.8,0.5c0.3,0.3,0.3,0.9,0.3,1.6c0,0,0,0.4,0,0.4v16.9c0,4.2,3.8,8.8,14.4,8.8
	c10.8,0,12.2-5.2,12.2-9.8v-16.2c0-2,0.9-2.1,1.8-2.1h2.3L-155,416.7z"/>
<path id="path26" inkscape:connector-curvature="0" class="st0" d="M-172.6,409.3c-2.9,0-6.6-1-6.6-11.9c0-8.2,2.2-11.9,6.6-11.9
	c4.7,0,6.6,3.3,6.6,11.9C-166,405.4-168.3,409.3-172.6,409.3 M-172.8,380.9c-8.2,0-17,4.1-17,16.5c0,10.5,6.4,16.5,17,16.5
	c10.6,0,17-6,17-16.5C-155.8,385.1-164.6,380.9-172.8,380.9"/>
<path id="path28" inkscape:connector-curvature="0" class="st0" d="M-176.7,456.1c1,0,4.4,0,6.8,0c2.2,0,3.8,1,4.3,2.7
	c0.3,1.1,0.3,2.7-0.2,4c-0.7,1.8-2.1,2.7-4.1,2.7c0,0-5.3,0-6.8,0V456.1z M-154.7,479.7c-1.2,0-3.9-0.1-3.9-3.8l0-1.3
	c0-1.5-0.1-3.1-0.8-4.5c-0.7-1.5-2.4-2.3-3.3-2.7c1.2-0.4,2.5-1.1,3.6-1.9c1.4-1.2,2.2-2.9,2.2-5.1c0-1.6-0.4-3.2-1.1-4.6
	c-1.5-2.5-4.1-3.7-8.2-3.7c0,0-23.6,0-23.6,0l0,4.8c0,0,1.7,0,3.1,0s1.5,1.3,1.5,1.3s0,15,0,19.8c0,0.8-0.7,1.6-1.4,1.6h-3.1l0,4.8
	h19.5l0-4.8h-4.9c-0.7,0-1.5-0.9-1.5-1.7c0,0,0-6,0-7.9c0.2,0,5.8,0,5.8,0c0.6,0,3.2,0.3,3.1,3.3l-0.1,2.1c0,1.8-0.2,3.3,0.6,5.3
	c1.3,2.7,3.7,4,7.3,4h5.7v-5L-154.7,479.7z"/>
</svg>
