<?xml version="1.0" encoding="utf-8"?>
<!-- Generator: Adobe Illustrator 19.0.0, SVG Export Plug-In . SVG Version: 6.00 Build 0)  -->
<svg version="1.1" id="Layer_1" xmlns="http://www.w3.org/2000/svg" xmlns:xlink="http://www.w3.org/1999/xlink" x="0px" y="0px"
	 viewBox="-200 377 202 40" style="enable-background:new -200 377 202 40;" xml:space="preserve">
<style type="text/css">
	.st0{fill:#FFFFFF;}
</style>
<g>
	<g>
		<g>
			<path class="st0" d="M-120.1,398.7L-120.1,398.7c-0.3-0.3-0.9-1.2-0.9-1.2s0.6-0.8,0.8-1.1l11.8-16.5c0.4-0.5,0.5-1.3,0.1-1.9
				c-0.3-0.6-1-1-1.6-1h-8.6c-0.3,0-0.6,0.1-0.8,0.2c-0.3,0.1-0.5,0.3-0.7,0.5l-10.6,14.3v-13.2c0-0.5-0.2-0.9-0.5-1.3
				c-0.4-0.4-0.8-0.5-1.3-0.5h-7.4c-0.5,0-0.9,0.2-1.3,0.5c-0.4,0.4-0.5,0.8-0.5,1.3v36.3c0,0.5,0.2,0.9,0.5,1.3
				c0.4,0.4,0.8,0.5,1.3,0.5h7.4c0.5,0,0.9-0.2,1.3-0.5c0.4-0.4,0.5-0.8,0.5-1.3v-12.2l11.4,13.4c0.2,0.2,0.4,0.4,0.6,0.5
				c0.3,0.1,0.5,0.2,0.8,0.2h9c0.7,0,1.4-0.4,1.7-1.1c0.3-0.7,0.2-1.4-0.3-2L-120.1,398.7z"/>
			<path class="st0" d="M-151,377L-151,377l-9,0c-0.5,0-0.9,0.2-1.3,0.5c-0.4,0.4-0.5,0.8-0.5,1.3v36.3c0,0.5,0.2,0.9,0.5,1.3
				c0.4,0.4,0.8,0.5,1.3,0.5h9c0.5,0,0.9-0.2,1.3-0.5c0.4-0.4,0.5-0.8,0.5-1.3v-36.3c0-0.5-0.2-0.9-0.5-1.3
				C-150,377.2-150.5,377-151,377z"/>
			<path class="st0" d="M-178.9,377h-19.3c-0.5,0-0.9,0.2-1.3,0.5s-0.5,0.8-0.5,1.3v36.3c0,0.5,0.2,0.9,0.5,1.3
				c0.4,0.4,0.8,0.5,1.3,0.5h8.2c0.5,0,0.9-0.2,1.3-0.5c0.4-0.4,0.5-0.8,0.5-1.3v-9h9.3c9.1,0,13.4-6.7,13.4-14.6
				S-170,377-178.9,377z M-176.2,394.6c-0.8,0.4-1.6,0.4-2.5,0.1c0.6,0.7,1,1.5,1,2.3l0,0c0,1.4-1,2.6-2.3,3.1
				c-1.3,0.5-2.9,0.4-3.8-0.7c-0.6-0.6-0.9-1.4-0.9-2.4c-0.5,0.8-1.1,1.4-1.9,1.7c-1.3,0.5-2.8-0.2-3.7-1.2
				c-0.9-1.1-1.3-2.6-0.6-3.9c0.4-0.8,1.1-1.3,2-1.6c-0.9-0.2-1.6-0.6-2.2-1.3c-0.8-1.1-0.7-2.7,0-3.9c0.7-1.2,2.1-2,3.5-1.7
				c0.8,0.2,1.5,0.7,2.1,1.4c-0.1-0.9,0.1-1.8,0.6-2.5c0.8-1.2,2.3-1.5,3.7-1.2c1.4,0.3,2.6,1.4,2.7,2.8c0.1,0.9-0.2,1.7-0.7,2.5
				c0.9-0.4,1.7-0.5,2.5-0.2c1.4,0.4,2.2,1.8,2.2,3.2C-174.3,392.5-174.9,394-176.2,394.6z"/>
			<path class="st0" d="M1.4,377.5c-0.4-0.4-0.8-0.5-1.3-0.5l0,0h-6.7c-0.5,0-0.9,0.2-1.3,0.5c-0.4,0.4-0.5,0.8-0.5,1.3v20.3
				l-12.4-21.2c-0.2-0.3-0.4-0.5-0.7-0.7c-0.3-0.2-0.6-0.2-0.9-0.2h-8.9c-0.5,0-0.9,0.2-1.3,0.5c-0.4,0.4-0.5,0.8-0.5,1.3v36.3
				c0,0.5,0.2,0.9,0.5,1.3c0.4,0.4,0.8,0.5,1.3,0.5h6.7c0.5,0,0.9-0.2,1.3-0.5c0.4-0.4,0.5-0.8,0.5-1.3v-18.7l11.8,19.6
				c0.2,0.3,0.4,0.5,0.7,0.7c0.3,0.2,0.6,0.2,0.9,0.2h9.5c0.5,0,0.9-0.2,1.3-0.5c0.4-0.4,0.5-0.8,0.5-1.3v-36.3
				C2,378.4,1.8,377.9,1.4,377.5z"/>
			<path class="st0" d="M-42.1,377L-42.1,377l-9,0c-0.5,0-0.9,0.2-1.3,0.5s-0.5,0.8-0.5,1.3v36.3c0,0.5,0.2,0.9,0.5,1.3
				c0.4,0.4,0.8,0.5,1.3,0.5h9c0.5,0,0.9-0.2,1.3-0.5c0.4-0.4,0.5-0.8,0.5-1.3v-36.3c0-0.5-0.2-0.9-0.5-1.3
				C-41.2,377.2-41.7,377-42.1,377z"/>
			<path class="st0" d="M-61.9,377h-9.3c-0.3,0-0.7,0.1-1,0.3c-0.3,0.2-0.5,0.5-0.7,0.8l-8.5,19.5l-8.5-19.5
				c-0.1-0.3-0.4-0.6-0.7-0.8c-0.3-0.2-0.7-0.3-1-0.3h-9.6c-0.5,0-0.9,0.2-1.3,0.5c-0.4,0.4-0.5,0.8-0.5,1.3v36.3
				c0,0.5,0.2,0.9,0.5,1.3c0.4,0.4,0.8,0.5,1.3,0.5h6.7c0.5,0,0.9-0.2,1.3-0.5c0.4-0.4,0.5-0.8,0.5-1.3v-18.4l7.8,17
				c0.1,0.3,0.4,0.6,0.7,0.8c0.3,0.2,0.7,0.3,1,0.3h3.5c0.3,0,0.7-0.1,1-0.3c0.3-0.2,0.5-0.5,0.7-0.8l7.4-16.1v17.6
				c0,0.5,0.2,0.9,0.5,1.3c0.4,0.4,0.8,0.5,1.3,0.5h6.7c0.5,0,0.9-0.2,1.3-0.5c0.4-0.4,0.5-0.8,0.5-1.3v-36.3c0-0.5-0.2-0.9-0.5-1.3
				C-61,377.2-61.4,377-61.9,377z"/>
		</g>
		<path class="st0" d="M-180.9,392.3c0.4-1.4-0.5-2.8-1.8-3.1c-1.4-0.4-2.8,0.5-3.1,1.9c-0.4,1.4,0.5,2.8,1.8,3.1
			C-182.7,394.6-181.3,393.7-180.9,392.3z"/>
	</g>
</g>
</svg>
