<?xml version="1.0" encoding="utf-8"?>
<!-- Generator: Adobe Illustrator 19.0.0, SVG Export Plug-In . SVG Version: 6.00 Build 0)  -->
<svg version="1.1" id="Layer_1" xmlns="http://www.w3.org/2000/svg" xmlns:xlink="http://www.w3.org/1999/xlink" x="0px" y="0px"
	 viewBox="0 0 1234.8 257.9" style="enable-background:new 0 0 1234.8 257.9;" xml:space="preserve">
<style type="text/css">
	.st0{fill:#FFFFFF;}
</style>
<g>
	<path class="st0" d="M379.7,178.1c-6,5.4-11.7,10.7-17.7,15.7c-20.8,17.3-48.8,14.3-65.4-7c-1.6-2.1-2.8-4.5-4.5-7.3
		c-1.2,1.1-2.3,2.2-3.5,3.2c-8,7-15.7,14.5-24.2,20.8c-4.8,3.6-10.9,6-16.7,7.5c-22.4,5.9-41.9-11-39.5-34.1
		c0.6-6.2,2.2-12.5,4.3-18.4c5.3-14.9,11-29.6,17-44.3c4.3-10.5,12.8-14.4,23.8-13.4c6.1,0.5,9.3,4.2,7.7,10.1
		c-2.6,9.3-5.8,18.4-8.9,27.6c-2.9,8.7-6.4,17.2-9,26c-1.5,5-2.6,10.5-2.3,15.6c0.6,11.2,10.3,17.4,21,14
		c11.2-3.6,19.1-11.9,27.2-19.8c0.7-0.7,0.9-2.5,0.7-3.6c-5.4-20.4-2.3-40.4,3-60.2c7.9-29.4,19.7-57,38.8-81
		c5.2-6.6,11.7-12.3,18.2-17.7c3.3-2.7,7.8-4.7,12.1-5.5c13.6-2.6,23.1,4.2,25.9,17.8c3.2,16.1-0.6,31.5-5.8,46.5
		c-8,23.2-21.8,43-37.8,61.4c-6.4,7.4-13.4,14.4-19.7,21.9c-1.5,1.8-1.6,5-2.2,7.5c-0.2,0.7,0.3,1.6,0.6,2.4
		c3.5,11.7,9,21.8,22.3,24.4c13.7,2.7,23.2-4.8,31.9-13.9c1.1-1.1,0.9-4,0.5-5.9c-5.7-25.8,5.7-55.5,27.4-69.9
		c12.2-8.1,25.7-11.8,40.4-9.7c13.3,1.9,22.2,9.5,26.6,22c3.1,8.6,3.6,17.6,2.4,26.6c-0.8,5.7,0.4,6.9,6.2,6.2
		c11.2-1.4,19.7-8.1,24-17.6c6.3-13.7,10.2-28.5,15.2-42.8c0.3-0.8,0.3-1.6,0.6-3.4c-12.5,0.6-24.6,1.2-36.9,1.8
		c3.6-18.5,15.7-29.1,33.5-29.7c0.3,0,0.7,0,1,0c9,0.5,15.1-1.9,18.5-11.9c4.2-12.5,15.2-17,28.3-14c4.3,1,6,3.6,4.7,8.2
		c-1.2,4.3-2.8,8.4-4.6,13.9c13-0.7,25-1.3,37.1-1.9c-1.9,16.5-12.1,27.2-28.1,29.4c-4.9,0.7-9.9,1-14.9,1.2c-3,0.1-4.9,1.1-5.9,4.2
		c-5.3,15.5-10.9,30.8-15.9,46.3c-3,9.4-5.1,19-3.2,29c1.8,9.5,7.8,14.6,17.4,14.5c14.1-0.3,24.9-7.5,34.3-17.2
		c0.8-0.9,1-2.7,0.9-4.1c-2.5-22.5,2.6-43.4,12.8-63.2c5-9.8,13.8-13.8,24.1-11.8c5.5,1,8.2,4.3,7.5,9.9c-0.5,3.4-1.9,6.7-2.8,10.1
		c-3.6,13.2-7.3,26.3-10.5,39.5c-0.8,3.4-0.2,7.3,0.6,10.9c1.4,6.8,7.2,9.9,13.2,6.3c4.3-2.5,8.3-6.3,11.2-10.3
		c8.9-12.5,13.6-27,18.6-41.3c2.4-6.8,4.6-13.6,7.4-20.1c3.5-8.2,11.3-11.6,19.7-9.3c4.6,1.3,5.2,5,4.3,8.8
		c-1.2,4.8-3.1,9.5-4.8,14.2c-4.2,12-8.3,24-8,36.9c0.1,3.1,0.5,6.4,1.5,9.3c3.2,9.3,12.1,11.9,19.4,5.5c3.9-3.5,7.8-7.6,10-12.3
		c7.1-14.7,13.4-29.7,20-44.6c2.1-4.7,3.8-9.6,6.5-14c4.8-8,16.4-11.7,25.1-8.7c3.6,1.3,5.2,4,5.2,7.7c0.1,5.6,3.6,9.5,9.4,10
		c9.5,0.8,17.1-2.4,21.8-11c4.6-8.5,11.7-12.3,21.3-12.1c7.9,0.2,11.2,4,9.1,11.5c-2.1,7.7-4.8,15.3-7.4,22.8
		c-3.7,10.5-7.7,21-11.2,31.6c-1.5,4.4-2.8,9-3,13.6c-0.9,14.7,13,24.4,25.8,18.3c1.5-0.7,3.1-2.5,3.6-4.1c1.6-4.9,2.3-10,4-14.8
		c7.5-21.4,15.2-42.7,22.8-64c0.9-2.5,1.9-5,3-7.4c4.3-9.7,15.2-14.7,25.4-11.9c4.6,1.3,7,4.6,6.1,9.4c-0.8,4.7-2.2,9.3-3.6,14.7
		c5.8-4.4,10.9-8.4,16.2-12.3c9.3-6.8,18.5-14.1,30.3-15.6c5.8-0.8,12.1-0.5,17.7,1.1c9.9,2.8,14.1,11,11,20.7
		c-3.6,11.2-8.5,22.1-12.3,33.3c-2.8,8.2-5.5,16.5-6.8,25c-1.8,12.2,7.4,18.8,18.6,13.7c4.4-2,8.1-5.6,12-8.8c1-0.8,1.6-2.6,1.6-3.9
		c0.8-24.3,11.9-43.7,29-60c15.2-14.5,32.4-25.6,53.3-30c8.8-1.9,17.5-1.9,26.1,0.9c11.9,3.9,19.9,15.5,17.9,27.9
		c-1.6,10-4.4,19.8-7.5,29.4c-3.3,10.1-7.6,19.8-10.5,30.4c8.6-7.3,17.1-14.6,25.7-21.8c23.7-20.1,43.2-43.9,60.6-69.5
		c1.9-2.9,3.1-6.5,3.7-10c1.2-7.4,4.7-12.4,10.5-13.8c7-1.6,13.7,0.7,16.6,8c7.8,19.8,13.4,40.2,5.2,61.2c-6.9,17.8-20,30.9-36,41.1
		c-1.6,1.1-3.3,2.1-5.2,3.2c8.1,4.7,23,3,33.4-2.2c10-5,19.4-11.2,29.4-17.1c-0.5,1-0.9,2.4-1.8,3.1c-9.1,7.5-17.7,15.9-27.7,22.1
		c-19.6,12.2-41,14.1-63,7c-9.6-3.1-17.6-8.7-21.5-19.4c-1.4,1-2.7,1.8-3.8,2.6c-9.8,7.8-19.7,15.4-29.3,23.4
		c-2.6,2.1-4.8,5.1-6.2,8.1c-5.6,12.6-10.5,25.6-16.3,38.1c-8.5,18.5-20.3,34.8-34.3,49.5c-3.9,4.1-9.2,7.3-14.4,9.6
		c-10,4.6-20.1,4.7-29-3.1c-9-7.9-11.9-17.9-9.5-29.4c2.7-12.6,9.4-23,19.7-30.4c14.9-10.6,30.3-20.7,46-30
		c10.1-6,17.3-13.5,20.6-24.9c2.3-7.9,5.6-15.6,7.8-24c-3.2,3.6-6.4,7.2-9.5,10.8c-9.9,11.2-21.1,20.9-34.4,27.8
		c-5.3,2.7-11.1,4.6-16.9,5.9c-11,2.6-23.9-4-27.4-14.9c-0.2-0.6-0.6-1.1-1-1.8c-4.9,4.1-9.6,8.4-14.6,12.1c-9.5,7-20.2,10.2-32,8.4
		c-13.3-2-20.6-11.6-18.4-24.9c1.3-7.8,3.7-15.5,6.2-23.1c3.3-10.1,7.2-20.1,10.6-30.2c0.7-2,0.3-4.4,0.5-6.7c-2.4,0-5.1-0.8-7,0.1
		c-17.3,7.8-32.2,18.8-43.7,34c-1.5,1.9-2.5,4.4-3.3,6.7c-3.7,10.2-7.3,20.4-11,30.6c-1.3,3.4-2.7,6.8-4.3,10.1
		c-4.8,10-19.6,15.7-28.2,1.7c-2.3,1.8-4.6,3.7-6.9,5.4c-14.3,10.9-36.2,9-47.2-4.4c-8.9-10.8-9.1-23.4-5.1-36
		c4.1-13,9-25.8,13.5-38.6c0.3-0.7,0.4-1.5,0.2-2.7c-8.5,9.1-18.4,11.2-30.1,6.6c-2.6,6.2-5,12.2-7.5,18.1
		c-8.1,18.9-17.2,37.2-31.1,52.7c-8.4,9.4-18.3,16.6-31,18.8c-13.3,2.4-23.1-3.2-27.1-16.1c-2.1-6.9-3.1-14.2-4.6-21.6
		c-2.1,4-4.1,8-6.3,12c-5.9,10.6-13,20.2-23.7,26.5c-13.9,8.3-27,5.6-36.1-7.9c-3.3-4.9-5.5-10.5-6.9-13.3
		c-5.4,4.4-11.9,9.3-18,14.7c-11.4,10.1-23.6,17.9-39.8,16.9c-16.3-0.9-27.5-10.9-29.5-27.1c-0.6-4.4-0.8-9-0.7-13.4
		c0.1-4.4,0.9-8.8,1.6-14.7c-2.2,2.1-3.5,3.4-4.9,4.7c-6.3,6-13.2,10.5-22.3,11.1c-1.6,0.1-3.8,2.4-4.5,4.2
		c-4.9,12.5-11.6,23.6-22.2,32.1c-11.5,9.3-24.7,13-39.3,11.2c-11.7-1.4-20.4-7.7-26.4-17.7c-0.4-0.7-0.8-1.4-1.3-2.1
		C380.6,178.8,380.3,178.6,379.7,178.1z M318.2,142.7c0.7,0.1,1.4,0.3,2.1,0.4c20.6-24.8,38.9-51.1,47-83c1.1-4.1,1.2-8.6,1.3-12.9
		c0.1-4.4-1.4-8.5-5.7-10.3c-4.4-1.8-8.4,0.2-11.2,3.5c-3.6,4.1-7.1,8.4-9.8,13.2c-11.3,19.6-18,40.8-21.2,63.1
		C319.3,125.2,318.9,134,318.2,142.7z M424.8,175.2c13.8-0.1,24.8-9.3,29.1-23.9c1-3.4,0.5-5.6-2.5-7.6c-8.3-5.5-13.2-13.3-15-23.2
		c-1.3-7.1-2.5-7.6-9.8-5.6c-16.3,4.3-26.1,21.9-25.6,36.7C401.5,165.9,411.5,175.3,424.8,175.2z M1010.5,117.5
		c0,8,4.7,12.3,10.8,11c3.7-0.8,7.6-1.8,10.6-4c7.7-5.5,15.3-11.1,22.2-17.6c9.2-8.7,17.3-18.5,22.3-30.3c3.1-7.3-0.8-12.8-8.8-12.2
		c-4.2,0.3-8.7,1.3-12.5,3.2c-18.5,9-32.7,22.6-41.8,41.3C1011.8,112,1011.1,115.6,1010.5,117.5z M1164.3,126.7
		c25.2-20,33.6-47.6,19.5-71.6c-14.2,17.2-28.4,34.3-42.6,51.5C1152.2,109,1156.3,120.3,1164.3,126.7z M1047.7,172.8
		c-16,10-32.1,19.7-45.4,33.2c-2.7,2.7-4.1,7.2-5.2,11.1c-1.1,3.9,0.3,7.6,3.8,10.1c3.5,2.6,7.2,2.5,10.8,0.5
		c2.3-1.3,4.6-2.9,6.3-4.8C1031.2,208.3,1040.7,191.4,1047.7,172.8z"/>
	<path class="st0" d="M58.3,152.9c-4.7-2.5-9.1-4.4-12.8-7c-10.8-7.5-11.3-18.1-1.3-26.6c10.9-9.3,24.1-13.9,37.8-17.4
		c2.4-0.6,5.3-2.3,6.6-4.4c9.9-16.8,19.5-33.8,29.1-50.7c0.5-0.8,0.9-1.7,1.8-3.6c-3.2,0.5-5.6,0.8-7.9,1.3
		C79,51.1,47.3,60.7,16.3,72.6c-3.9,1.5-7.9,2.7-11.8,3.9c-1.2,0.4-2.5,0.2-4.4,0.3c0.6-1.8,0.8-3.1,1.4-4.2
		c7.1-12,13.8-24.3,21.7-35.9c2.7-3.9,7.9-6.7,12.5-8.6C66.6,15.1,98.8,6.6,132.7,4.9c18.6-0.9,37.1-1.4,55.1,3.4
		c8.4,2.2,16.6,6,24,10.5C229,29.5,233.4,46,229.9,64.9c-4.9,26.4-20.9,45.3-42.8,59.6c-22.8,14.8-48.4,22.1-74.9,26.5
		c-6.4,1.1-12.9,1.6-19.3,2.7c-1.7,0.3-4.2,1.5-4.6,2.8c-3.2,10.5-6.5,21-8.7,31.7c-1.4,6.5,1.2,7.9,7.8,6.1c2.4-0.7,5-0.4,7.6-0.6
		c-0.5,2.5-0.2,5.7-1.6,7.5c-5.6,7-11.2,14-17.7,20.1c-5.4,5-12.3,7.7-19.8,4.1c-7.8-3.7-10.6-10.8-11.3-18.8
		c-1.3-14.7,3.2-28.3,8.5-41.7C54.7,160.9,56.5,157,58.3,152.9z M104.1,120.1c7.9,0,16.1,0.5,24.1-0.1c17.4-1.3,34.2-5.5,49.4-14.6
		c15.9-9.4,26.4-22.6,28.6-41.6c1-8.1-1.5-14.7-8.8-18.5c-4.5-2.4-9.5-4.7-14.5-5.1c-12.4-0.9-24.9-0.7-37.4-0.9
		c-3.8-0.1-5.9,1.9-7.5,5.4c-7.7,16.4-15.6,32.8-23.4,49.1c-0.7,1.4-1.1,3-1.9,5.2c5.8,0,10.9,0,16,0
		C118.4,103.8,104.4,103.5,104.1,120.1z"/>
	<path class="st0" d="M813.7,33.2c0.1-9.2,7.6-18.5,16.8-20.6c8.3-1.9,15.4,4.3,14.9,12.8c-0.6,8.7-7.7,17.4-16.1,19.7
		C820.8,47.3,813.7,41.8,813.7,33.2z"/>
	<path class="st0" d="M245.6,73.9c-0.1-10.4,9.2-20.6,19-20.9c7.5-0.3,12.7,4.9,12.6,12.3C277,74,270,83,261.7,85.5
		C252.8,88.1,245.7,82.9,245.6,73.9z"/>
</g>
</svg>
