<?xml version="1.0" encoding="utf-8"?>
<!-- Generator: Adobe Illustrator 19.0.0, SVG Export Plug-In . SVG Version: 6.00 Build 0)  -->
<svg version="1.1"
	 id="svg2" xmlns:svg="http://www.w3.org/2000/svg" xmlns:cc="http://creativecommons.org/ns#" xmlns:rdf="http://www.w3.org/1999/02/22-rdf-syntax-ns#" xmlns:dc="http://purl.org/dc/elements/1.1/"
	 xmlns="http://www.w3.org/2000/svg" xmlns:xlink="http://www.w3.org/1999/xlink" x="0px" y="0px" viewBox="99.6 312.5 751.7 175.5"
	 style="enable-background:new 99.6 312.5 751.7 175.5;" xml:space="preserve">
<style type="text/css">
	.st0{fill:#FFFFFF;}
</style>
<g>
	<polygon class="st0" points="514.8,424.3 538.9,424.3 527,393.5 	"/>
	<path class="st0" d="M174.1,364.5h-18v33.7h18c5.6,0,14.5-5.4,14.5-16.9C188.6,369.9,181.5,364.5,174.1,364.5z"/>
	<path class="st0" d="M99.6,312.5V488h751.7V312.5H99.6z M792.5,330.1h39.3v102.6h-39.3V330.1z M215,420.1
		c-11.2,10.7-26.5,13.5-45.6,13.5h-15.4V482h-39.3V330v0H132h22.1h15.4c19.9,0,35.6,3.6,46.3,14.6S228,370,228,381.8
		C228,394.7,226.2,409.3,215,420.1z M274,482h-39.3v-152H274V482z M381.3,365.8h-30.8V482h-39.3V365.8h-30.7V330h30.7h39.3h30.8
		V365.8z M425.3,482H386V330h16.4h22.9h44.8v35.8h-44.8v24.1h41.6v35.8h-41.6V482z M561.3,482.1l-10.6-27.4h-48l-10.9,27.4h-44.3
		l60.7-152.4v0l38.3,0.2l58.9,152.3H561.3z M689.7,482h-44.1h-14.3h-25V330h0h39.3v116.2h44.1V482z M778.2,482h-44.1h-14.3h-25V330
		h0h39.3v116.2h44.1V482z M812.1,484.9c-13.6,0-24.7-11-24.7-24.7c0-13.6,11-24.7,24.7-24.7c13.6,0,24.7,11,24.7,24.7
		C836.8,473.9,825.8,484.9,812.1,484.9z"/>
</g>
</svg>
