<svg xmlns="http://www.w3.org/2000/svg" width="3410" height="1276" viewBox="0 0 3410 1276">
  <defs>
    <style>
      .cls-1 {
        fill: #fff;
      }

      .cls-1, .cls-2 {
        fill-rule: evenodd;
      }

      .cls-2 {
        fill: none;
        stroke: #fff;
        stroke-width: 8px;
      }
    </style>
  </defs>
  <path class="cls-1" d="M1069,380l2,50,52-14,17,200s63.22,54.192,64,152c0.4,50.373-17.75,113.657-39,144,2.59,30.929,8,97,8,97l117-15-1-238,452,227V856s-97.31-14.615-146-57c-51.84-45.122-65-77-65-77l-178-70,189-200L1406,324,1268,518l-12-194Z"/>
  <path class="cls-1" d="M532,1162l125-40L580,827c0.006,0,83.975-50.717,125.743-113.761C720.141,691.508,747.418,656.205,758,616c10.762-40.889,18.807-94.9-4-137-22.476-41.487-44.282-65.674-74-84-31.324-19.316-74.687-48.535-165-48S335.413,366.2,287,385s-166,81-166,81l93,155,63-31ZM490,542l67,218s64.206-43.085,87-76c20.839-30.091,21.311-74.144,14-98s-30.09-50.891-65-60S514.716,523.9,490,542Z"/>
  <path class="cls-2" d="M545,570l36,115s32.315-29.551,34-59c1.073-18.759-2.616-26.873-5-34-3.972-11.872-20.469-21.823-31-23C555.213,566.341,545,570,545,570Z"/>
  <path class="cls-2" d="M39,446L190,701l57-29,253,564,230-74L649,853s41.8-32.253,53-45c-3.768,19.174.856,88.486,17,120s33.085,55.348,49,69,31.638,25.92,49,35,56.854,27.26,126,24,112.75-35.72,119-39,53.41-34.912,54-42,9,100,9,100l218-32V848l455,225V855s70.26-4.9,115-26,71-33,71-33l-17,116,245,39,14-88,64,118,39-75,15,124,279,49-15-94s33.18,5.743,73-3a328.092,328.092,0,0,0,70-24l-10,99,185,27,2,75,193,62,252-760-263-64-25,103-23-115-309-67,4,172,44,11-1,31s-57.77-35.733-129-26-131,50-131,50l-47-294H2288l-5,35H2068l-26,150s-69.42-119.677-228-123c208.87-110.19,181-99,181-99L1869,34,1637,301l40,49s-54.18,18.1-93,59c-30.76-30.755-199-175-199-175l-68,130,3-126-309,99,7,166,52-13,8,84s-50.54-29.177-123-18-130,51-130,51,26.362-115.848-50-207c-79.23-94.576-168.652-104.386-224-112s-160.213-1.6-249,29c-34.86,12.013-88.516,30.141-134,53C97.64,405.361,39,446,39,446Z"/>
  <path class="cls-1" d="M2806,922l-8,87,116,18,53-304,10,395,107,32,214-652-152-33-68,287-69-322-200-40-3,54,44,13-10,103s77.07,73.286,66,171S2840.91,891.715,2806,922Z"/>
  <path class="cls-1" d="M2029,687l-99-88s-38.93,50.745-88,59-51,4-51,4l189-199s-55.8-72.692-145-79-108.02,8.148-163,34c-54.18,25.473-97.93,87.551-107,130-4.29,20.089-7.57,49.07-5,75,2.83,28.567,11.01,54.408,19,68,10.51,17.868,38.74,82.634,155,104S1994.02,730.236,2029,687Zm-316-22,141-162s-84.98-78.7-163,5C1623.49,587.4,1713,665,1713,665Z"/>
  <path class="cls-2" d="M1712,608l86-96s-44.08-18.07-77,18S1712,608,1712,608Z"/>
  <path class="cls-2" d="M2034,498l-16,94-40-35Z"/>
  <path class="cls-2" d="M1502,575l-58,55,62,25s-6.45-29.473-6-43S1502,575,1502,575Z"/>
  <path class="cls-1" d="M1115.26,661.475c71.89,89.64,32.76,239.771-85.05,308.345-108.7,63.27-230.668,25.581-266.572-76.477-30.915-87.878,11.7-190.714,91.221-247.994C940.638,583.562,1054.4,585.577,1115.26,661.475ZM973.252,644.181a106.611,106.611,0,0,1,21.592,2.192C949.67,653,909.422,699.038,962,745c69.58,36.036,109.02-28.989,93.67-59.68a89.092,89.092,0,0,1,16.85,53.738c-0.95,51.566-46,92.942-100.642,92.942s-99.09-41.376-99.279-92.942C872.408,686.9,917.471,644.181,973.252,644.181Z"/>
  <path class="cls-1" d="M2819.95,613.184c69.07,84.719,32.55,226.311-78.69,292.329-102.92,61.076-221.12,28.511-258.45-67.069-32.56-83.373,6.86-182.927,83.91-239.057C2649.77,538.891,2760.61,540.408,2819.95,613.184ZM2682.49,597.5a104.454,104.454,0,0,1,21.02,1.977c-49.13-8.437-92.58,60.787-36.52,96.985,38.28,19,70.18,6.616,85.01-12.459,11.35-14.6,13.95-32.2,4.8-45.523a84.635,84.635,0,0,1,16.69,51.171c-0.46,48.97-37.22,86.69-89.75,87.454-52.76.767-96.65-38.03-97.81-87.4C2584.76,639.483,2628.09,597.852,2682.49,597.5Z"/>
  <path class="cls-1" d="M2490,602l-44-282H2342l-41,231-37-200H2119l-49,288,47,41-64,64-20,120,143,25,36-217,87,188,58-149,42,271,152,23-5-36s-94.31-39.661-115-127S2418.81,686.49,2490,602Z"/>
  <path class="cls-1" d="M1719,286l139-166,67,91-192,96Z"/>
</svg>
