<?xml version="1.0" encoding="utf-8"?>
<!-- Generator: Adobe Illustrator 19.0.0, SVG Export Plug-In . SVG Version: 6.00 Build 0)  -->
<svg version="1.1" id="Layer_1" xmlns="http://www.w3.org/2000/svg" xmlns:xlink="http://www.w3.org/1999/xlink" x="0px" y="0px"
	 viewBox="-135 368.5 339.9 56.5" style="enable-background:new -135 368.5 339.9 56.5;" xml:space="preserve">
<style type="text/css">
	.st0{fill:#FFFFFF;}
</style>
<path class="st0" d="M-104.5,408.9c2.6-1.8,5-3,7.8-4c0.7-0.2,1.9-0.5,2.5-0.5c0-2.1,0.2-5.5,0.4-8.2c0.2-3.1,1.4-8.8,2.4-11.5
	c1-2.8,0.9-2.9-1.3-4.4c-2.2-1.4-7.7-3.5-14.1-3.8c-5.6-0.2-8.5,1.3-10.7,2.2c-1.7,0.7-2,1.5-1.3,4.9c0.8,3.5,1,7.2,1.2,12.1
	c0.2,4.5,0.1,7.3-0.2,9.7c-0.2,1-0.4,1.9-0.4,1.9c-0.6-0.7-1.7-1-2.4-1.4c-1.9-0.5-3.5-0.3-4.2,0.9c-0.8,1.2,0,3.3,1.8,4.7
	c1.7,1.4,4,2.4,8.9,1.7C-110.3,412.8-107.6,411.1-104.5,408.9z M-112.1,386.1c-0.3-1-1.5-2-1.5-2s1.3-0.2,3.7-2
	c2.5-1.9,5.1-0.4,5.1,1.4c0,1-1.4,1.7-1.2,1.2c0.3-0.7-0.7-1.9-2.5-1.3c-1.6,0.5-1.9,1.7-2,2.3c-0.3,1.8,1.1,7.3,1.2,10.2
	c0,2.9-2.6,6.8-2.6,6.8c1.8-1.2,3.2-1.6,5-1.1c1.3,0.4,3,2,4.6,1.8c2-0.2,3-1.8,3.1-3.7c0.1-1.4-0.7-3.1-2.2-3.6
	c-1.3-0.4-2.5,0.2-2.9,1c-0.2,0.5-0.1,1.2,0.4,1.5c0.8,0.4,1.3-0.2,1.3-0.2s-0.4,1.6-2.4,1.1c-0.9-0.2-1.8-1.5-1.4-2.8
	c0.6-2.1,3.1-2.8,5.3-2c2,0.7,3.3,2.8,2.9,5.4c-0.4,2.5-2.3,4.7-5.6,4.4c-2.8-0.2-3.3-1.7-5.8-1.2c-1.6,0.3-3.5,1.3-3.5,1.3l-1.3-2
	c0,0,0.6-0.3,1.3-1.1c0.8-0.9,1-2.3,1-3.4C-112.1,397.1-111.4,388.6-112.1,386.1z"/>
<path class="st0" d="M176.4,370.5h-283.1h0.1c-14.5,0-26.3,11.8-26.3,26.3s11.8,26.3,26.3,26.3c0.4,0,0.8,0,1.2-0.1h281.8
	c14.5,0,26.3-11.8,26.3-26.3S190.9,370.5,176.4,370.5z M176.1,419.2H-87c-0.7,0-1.4-0.1-2.8-0.1c-0.8,0-1.1-0.6-0.7-1.2
	c0.2-0.3,0.6-0.7,1-1.2c5.6-4.8,9.2-12,9.2-19.9c0-7.7-3.4-14.7-8.7-19.5c-0.5-0.6-1.2-1.4-1.4-1.7c-0.4-0.6-0.1-1.2,0.7-1.2
	c1.4,0,2.1-0.1,2.8-0.1h262.3c12.4,0,23.5,10,23.5,22.4c0,12.4-10,22.4-22.4,22.4C176.5,419.1,176.1,419.2,176.1,419.2z
	 M-125.9,409.6c-3.1-4.6-3.9-9.3-3.9-12.8c0-6.2,2.4-12,6.8-16.4s10.2-6.8,16.4-6.8c12.8,0,23.2,10.4,23.2,23.2
	c0,4.8-1.5,9.4-4.1,13.1c-0.1-1-1.8-2.6-4-3.2c-1.7-0.5-3-0.4-3.9-0.3c-3.7,0.5-5.9,2.2-8.9,4c-2.4,1.4-4.7,3-9.5,3.8
	c-3.1,0.5-6.8-0.2-8.7-1.4C-123.7,412.1-125.3,410.5-125.9,409.6z M-121.2,416.2c0,0,1.3,0.5,3.1,0.4c6.3,0,11-3.1,13.8-4.2
	c3.2-1.3,6.3-2,8.5,0.4c0.5,0.6,1.3,1.1,2.1,1c-3.8,3.9-9.2,6.3-15.1,6.3C-116.2,420.3-121.2,416.2-121.2,416.2z"/>
<path class="st0" d="M100.3,403c-0.3-0.1-0.4,0-0.6,0.5c-0.4,0.9-1.4,3.5-2.1,4.2c-1.2,1.3-2.4,1.4-3.4,1.6c-0.4,0.1-1.5,0-2.5,0.1
	c-1.4,0-1.9-0.4-1.9-0.4c-0.7-1.6-0.3-9.5-0.2-18.1c0.1-7.6,0.2-8.6,0.4-8.9c0.2-0.3,0.4-0.3,1.4-0.4c0.9-0.1,1.3-0.1,1.7-1l0.2-1
	H80c0,0-0.2,1.2,0.8,1.8c0.1,0.1,0.7,0.1,1.1,0.1c0.9,0,1.4,0.7,1.6,1.5c0.2,0.7,0.9,8.7,0.8,18.8l-0.5,7.6c0,1-0.1,2.1-2.1,2.4
	c-0.2,0-0.7,0.2-0.9,0.4c-0.4,0.4-0.3,0.7,0,1.1c0.3,0.2,1.8,0.1,8.6,0.1c6.9,0,8.1,0,7.9,1.3c-0.1,0.6,0.2,0.9,0.4,0.9
	c0.8,0.2,1.2-1.2,1.2-1.2c0.5-2.1,1.8-9.5,1.8-10.8C100.8,403.2,100.5,403,100.3,403L100.3,403z M117.9,411.9c-1.1,0-1.9-2-3.5-8.1
	c-0.2-0.7-0.4-1.5-0.5-1.8c-0.1-0.2-0.3-1-0.5-1.8c-0.2-0.8-0.5-2-0.6-2.7c-0.4-1.6-1-4.4-1.5-7.2c-0.3-1.5-0.5-2.3-0.8-2.3
	c-0.1,0-0.8,0.6-1.6,0.8c-1.6,0.5-1.7,0.7-2,2.1c-0.3,1.3-0.8,3.8-1,4.4c-0.7,2.9-2.6,10.2-2.8,10.9c-0.4,1.5-0.9,3.2-1.1,3.8
	c-0.1,0.2-0.2,0.6-0.3,0.8c-0.7,1.2-0.9,1-1.4,1.2s-0.2,1.1-0.2,1.1h7.1c0,0,0.1-0.4,0.1-0.6c0-0.4-0.2-0.5-0.7-0.5
	c-1.4,0-1.5-1.3-1.5-2.1c0-1.2,0.2-3.4,0.6-3.8c0.6-0.7,4-0.3,4-0.3c1.2-0.1,1.5,0.7,1.9,2.4c0.2,0.9,0.3,1.6,0.3,2.1
	c0,0.9-0.1,1.3-0.4,1.5c-0.2,0.2-0.4,0.3-0.7,0.3c-0.4-0.1-0.7,0.2-0.7,0.7l0.1,0.3h8c0,0,0.2-0.4,0.2-0.7
	C118.4,411.9,118.4,411.9,117.9,411.9L117.9,411.9z M109.9,403.5c-1,0.4-2.8,0.3-3.1,0.3c-0.1,0-0.7-0.2-0.8-0.3
	c-0.3-0.4-0.3-0.8,0-1.9c0.1-0.5,0.5-2,0.8-3.3c0.4-1.5,0.7-2.5,0.9-2.6c0.4-0.3,0.7,0,0.9,0.6c0.1,0.3,1,3.4,1.5,5.5
	C110.3,402.4,110.4,403.3,109.9,403.5L109.9,403.5z M180.5,389.6c1,0.2,1.6,0.7,1.6,2.6c0,0.6,0.1,3.8,0.1,6.5v4.9
	c0,0.5-0.4,0-0.6-0.2c-0.3-0.3-0.7-0.7-1.9-2.6c-0.3-0.5-0.7-1.2-0.9-1.5c-1.1-1.8-3-6.2-3.7-7.7c-0.6-1.3-0.6-1.7,0-1.9
	c0.3-0.1,0.6-0.3,0.6-0.7v-0.5h-8.4c0,0-0.4,0.9,0.5,1.3c0.2,0.1,0.7,0.2,0.9,0.4c0.9,0.7,0.9,1.7,0.9,10.4c0,4.4-0.1,8.6-0.1,9.5
	c0,0.8-0.3,1.5-0.8,1.7c-0.2,0.1-0.7,0.2-0.9,0.4c-0.4,0.4-0.3,0.8-0.3,0.8h6.4c0,0,0-0.8-0.4-1c-0.6-0.2-1.1-0.3-1.6-1.4
	c-0.4-0.8-0.4-0.9-0.4-7.4v-7.7c0-0.4,0.6,0,0.6,0c0.3,0.5,0.7,1.4,1.8,3.5c0.2,0.4,4.7,8.7,5.8,10.2c0.5,0.7,1,1.5,1.2,1.8
	c0.6,0.9,1.2,1.9,1.8,2.7c0.3,0.4,0.7,0.9,1.2,0.9c0.2,0,0.6-0.2,0.5-0.8c0-0.4-0.1-2.4-0.2-4.6c-0.2-4.3,0-17.3,0.3-18.4
	c0.2-0.7,0.6-1.2,1.2-1.3s0.6-1,0.6-1h-7C179.5,388.5,179,389.3,180.5,389.6L180.5,389.6z M125.4,389.2c0,0.3,0.4,0.5,1,0.5
	c1.2,0,1.2,0.3,1.3,1.2c0.1,0.7-0.4,2.5-0.6,3.2c-0.6,2-1.9,4.1-2.3,4.2c-0.4,0-0.4-0.1-0.6-0.2c-0.3-0.3-0.5-0.6-0.6-1
	c-0.6-1.3-0.9-1.9-1.3-3.2c-0.4-1.3-1-3.3-0.9-3.7c0-0.3,0.2-0.4,0.6-0.4c0.6-0.1,0.8-1.2,0.8-1.2H115c0,0-0.3,1.2,0.4,1.3
	c0.3,0.1,0.7,0.2,0.8,0.4c0.3,0.3,1.5,3.8,2.3,5.3c0.9,1.6,2.7,4.7,2.8,5.1c0.3,0.7,0.6,1.9,0.5,4.9c0,1.8-0.1,3.9-0.1,4.6
	c-0.1,1.3-0.1,1.3-0.6,1.6c-0.3,0.2-0.7,0.2-1,0.3c-0.6,0.2-0.4,0.9-0.4,0.9h8.3l0.1-0.6c-0.1-0.5-0.5-0.4-0.9-0.5
	c-0.2,0-0.7,0.1-1.1-0.7c-0.4-0.8-0.4-1.1-0.5-5.4v-4.5c0,0,0-0.5,0.4-1.1c0.8-1.1,1.7-2.5,2.1-3.3c0.8-1.6,1.7-3.6,2.6-5.8
	c0.4-1,0.6-1.5,0.9-1.5c0.2,0,0.4-0.4,0.4-0.9v-0.2h-6.6C125.7,388.5,125.3,388.8,125.4,389.2L125.4,389.2z M-24.5,394
	c-0.6-1.4-1.7-2.7-2.6-3.5c-1.1-1-2.7-1.7-5-1.8c-0.7,0-2.3,0.1-3.4,0.7c-3.4,2-4.4,5.2-4.7,5.9c-0.5,1.3-0.8,3.1-1,5.1
	c-0.1,1.6,0.4,4.8,1,6.4c1.3,3.5,4,6.1,6.8,6.6c1.1,0.2,2.6,0.2,4-0.5c2.4-1.1,3.9-2.7,4.9-5.2c0.4-0.9,0.9-2.2,1.2-4
	c0.2-1.5,0.2-4.5-0.2-6.4C-23.7,396.4-24.1,395-24.5,394z M-27.6,405.2c-0.3,1.7-0.7,2.9-0.9,3.3c-0.8,1.4-2.2,2.4-2.7,2.5
	c-1.3,0.3-2.1,0.1-3.2-1c-0.6-0.6-1.2-1.4-1.6-2.2c-0.8-2.1-1.2-5.3-1-8.5c0.4-5,2.2-8.2,4.7-8.1c2,0,3.5,1.7,4.4,4.9
	C-27.4,397.7-27.3,403.1-27.6,405.2z M52.7,394c-0.6-1.4-1.7-2.7-2.6-3.5c-1.1-1-2.7-1.7-5-1.8c-0.6,0-2.3,0.1-3.4,0.7
	c-3.4,2-4.4,5.2-4.7,5.9c-0.5,1.3-0.8,3.1-1,5.1c-0.1,1.6,0.4,4.8,1,6.4c1.3,3.5,4,6.1,6.8,6.6c1.1,0.2,2.6,0.2,4-0.5
	c2.4-1.1,3.9-2.7,4.9-5.2c0.4-0.9,0.9-2.2,1.2-4c0.2-1.5,0.2-4.5-0.2-6.4C53.5,396.4,53.2,395,52.7,394z M49.6,405.2
	c-0.3,1.7-0.7,2.9-0.9,3.3c-0.8,1.4-2.2,2.4-2.7,2.5c-1.3,0.3-2.1,0.1-3.2-1c-0.6-0.6-1.2-1.4-1.6-2.2c-0.8-2.1-1.2-5.3-1-8.5
	c0.4-5,2.2-8.2,4.7-8.1c2,0,3.5,1.7,4.4,4.9C49.8,397.7,50,403.1,49.6,405.2z M14.9,398.4c-3.9-2.4-4.1-2.5-4.3-3.6
	c-0.4-1.7,0.3-3.1,1.8-3.5c1.7-0.4,3.4,0.5,4.4,2.9c0.3,0.7,0.3,1.6,0.4,1.8c0.2,0.5,0.9,0.4,1-0.1v-1.7c0-1.2,0.2-2.1,0.3-3.7
	c0.2-1.9-0.1-2.3-0.7-1.5c-0.5,0.6-1.1,0.8-1.5,0.6c-0.4-0.2-1.6-0.6-2.8-0.7c-0.5,0-2,0.1-2.8,0.5s-1.7,1.1-2.5,2.5
	c-0.6,1.1-0.8,2.5-0.8,3.7c0,1.3,0.3,2.4,0.9,3.5c0.4,0.9,2.1,2.5,4,3.7c0.9,0.6,1.7,1,2.1,1.3c1,0.6,1.7,1.3,2.1,2
	c0.4,0.8,0.7,1.6,0.6,2.5c-0.2,1.3-0.7,2-1.3,2.4c-0.7,0.4-1.4,0.5-2.3,0.5c-0.8,0-1.4-0.4-2.1-0.8c-1.3-0.9-2.1-2.2-2.6-3.5
	c-0.2-0.5-0.5-1.7-0.6-1.9c-0.2-0.4-0.8-0.3-1.1,0.1c-0.1,0.2,0,1.8,0.1,2.9c0.1,1.3-0.1,3.2-0.2,4.4c-0.1,1-0.6,1.5,0.1,1.9
	c0.3,0.2,0.8-0.8,0.9-1.4c0.1-0.4,0.4-1,0.7-1c0.2,0,0.6,0.1,0.7,0.2c0.4,0.3,1.7,1,2.5,1.2c1.6,0.4,3,0.1,3.6-0.1
	c2.6-1,4.3-3.7,4.3-7.1c0-1.4-0.3-2.8-0.8-3.8C18.2,400.7,17.3,399.9,14.9,398.4L14.9,398.4z M29.3,398.4c-3.9-2.4-4.1-2.5-4.3-3.6
	c-0.4-1.7,0.3-3.1,1.8-3.5c1.7-0.4,3.4,0.5,4.4,2.9c0.3,0.7,0.3,1.6,0.4,1.8c0.2,0.5,0.9,0.4,1-0.1v-1.7c0-1.2,0.2-2.1,0.3-3.7
	c0.2-1.9-0.1-2.3-0.7-1.5c-0.5,0.6-1.1,0.8-1.5,0.6c-0.4-0.2-1.6-0.6-2.8-0.7c-0.5,0-2,0.1-2.8,0.5s-1.7,1.1-2.5,2.5
	c-0.6,1.1-0.8,2.5-0.8,3.7c0,1.3,0.3,2.4,0.9,3.5c0.4,0.9,2.1,2.5,4,3.7c0.9,0.6,1.7,1,2.1,1.3c1,0.6,1.7,1.3,2.1,2
	c0.4,0.8,0.7,1.6,0.6,2.5c-0.2,1.3-0.7,2-1.3,2.4c-0.7,0.4-1.4,0.5-2.3,0.5c-0.8,0-1.4-0.4-2.1-0.8c-1.3-0.9-2.1-2.2-2.6-3.5
	c-0.2-0.5-0.5-1.7-0.6-1.9c-0.2-0.4-0.8-0.3-1.1,0.1c-0.1,0.2,0,1.8,0.1,2.9c0.1,1.3-0.1,3.2-0.3,4.4c-0.1,1-0.6,1.5,0.2,1.9
	c0.3,0.2,0.8-0.8,0.9-1.4c0.1-0.4,0.4-1,0.7-1c0.2,0,0.6,0.1,0.7,0.2c0.4,0.3,1.7,1,2.5,1.2c1.6,0.4,3,0.1,3.6-0.1
	c2.6-1,4.3-3.7,4.3-7.1c0-1.4-0.3-2.8-0.8-3.8C32.6,400.7,31.7,399.9,29.3,398.4L29.3,398.4z"/>
<path class="st0" d="M-39,414.4c-0.3,0.1-0.3,0.5-0.4,0.9c-0.2,0.7-0.9,1.3-1.4,1.3c-1.1,0-2.7-2.7-2.7-6.3c0.1-4.2-0.6-6.8-1.7-7.8
	c-1.4-1.2-1.8-0.8-2.2-1c-0.2-0.1-0.3-0.6,0-0.8c1.6-0.9,2.8-2.1,3.6-3.9c0.6-1.5,0.9-4,0.5-5.4c-0.3-0.9-0.6-1.7-1.4-2.2
	c-0.6-0.4-1.2-0.6-2.3-0.6c-0.8,0-1.1,0.1-2.5,0.2c-2.1,0.2-3.9,0.5-5.3,0.5H-57c0.6-2.1,0.8-4.9,0.3-6.6c-0.4-1.2-0.8-2.3-1.9-3.2
	c-0.8-0.6-1.7-0.8-3.2-0.8c-1.2,0-1.6,0.1-3.5,0.3c-3,0.3-5.5,0.7-7.4,0.7h-3.7l-0.2,0.4c-0.2,0.3-0.4,0.6-0.2,1
	c0.2,0.3,0.2,0.2,1.1,0.2c1.2,0,1.5,0.2,1.7,0.8c0.4,1,0.5,6.2,0.5,17.5v9.7c0,1.3-0.3,1.8-0.5,2c-0.3,0.3-0.7,0.3-1,0.3
	c-0.8,0-1.2,0.2-1.4,0.6c-0.3,0.5,0.2,0.9,0.2,0.9h11.9c0.2-0.3,0.1-1-0.1-1.1c-0.4-0.4-0.6-0.5-1.3-0.5c-0.4,0-1.5-0.2-1.8-0.7
	c-0.6-1.1-0.7-1.9-0.7-8.4v-5.5l1.3-0.1c4.3-0.4,7.8-2.5,9.6-6.4h0.5c0.8,0,1.1,0.1,1.2,0.6c0.3,0.7,0.4,4.4,0.3,12.4v6.9
	c0,0.9-0.2,1.3-0.3,1.4c-0.2,0.2-0.5,0.2-0.7,0.2c-0.6,0-0.8,0.1-1,0.4c-0.2,0.3,0.1,0.7,0.1,0.7h8.4c0.1-0.2,0.1-0.7-0.1-0.8
	s-0.3-0.2-0.9-0.2c-0.3,0-1.1-0.1-1.3-0.5c-0.4-0.8-0.5-1.3-0.5-5.9v-3.9h0.6c0.7,0.1,1.5,1.5,2.1,2.7c0.7,1.4,2.2,4.8,3.6,9.7
	c0.9,3,2.9,4.3,4.4,4.3c0.9,0,2.4-0.7,2.8-3C-37.9,414.7-38.5,414.2-39,414.4z M-60.9,387.9c-0.1,1.6-0.7,3-1,3.5
	c-0.6,0.9-1.1,1.4-1.7,1.9c-0.5,0.4-1.5,1.1-2.6,1.3c-0.5,0.1-1.2,0.1-1.7,0l-0.2-0.2v-10.9c0.1-1.2,0.3-1.3,0.8-1.5
	c0.8-0.4,2.8-0.5,3.7-0.1C-61.6,382.7-60.8,384.3-60.9,387.9z M-48.4,399c-0.4,0.3-1.1,0.8-1.8,0.9c-0.4,0.1-0.8,0.1-1.2,0l-0.2-0.1
	V392c0.1-0.9,0.2-0.9,0.6-1.1c0.5-0.3,2-0.3,2.6-0.1c1.6,0.6,2.2,1.7,2,4.3c0,1.1-0.5,2.2-0.7,2.5C-47.5,398.3-47.9,398.7-48.4,399z
	 M-10.3,395.7c0,0-0.9-0.4-1.3,0.4c-0.2,0.4,0.1,1.2-0.2,1.7c-0.3,0.6-2.2,0.6-2.9,0.6c-0.8,0-1.8,0.2-2.1-0.6
	c-0.3-0.9,0.2-4.9,0.2-5.2c0-0.2-0.1-0.4,0.4-0.6c0.5-0.1,3.3-0.2,4.2,0.2c0.9,0.4,0.2,1.2,0.7,1.6c0.5,0.4,0.9,0.3,1-0.5
	c0.1-0.8,0-1.4,0-2.1c0-3.3,0.3-3.9-0.1-3.9c-0.2,0-0.3,0.2-0.5,0.5c-0.4,0.6-0.4,1-6.5,1c-5,0-5.5,0-5.7,0.3
	c-0.1,0.2-0.2,0.4-0.2,0.6c0,0.3,0.3,0.3,0.9,0.4c0.5,0.1,0.8,0.2,0.9,0.2c0.8,0.3,0.6,12.9,0.6,12.9v6.8c0,0.9-0.2,1.3-0.3,1.4
	c-0.2,0.2-0.5,0.2-0.7,0.2c-0.6,0-0.9,0.1-1,0.4c-0.2,0.3,0.1,0.7,0.1,0.7h8.4c0.1-0.2,0.1-0.7-0.1-0.8c-0.2-0.1-0.3-0.2-0.9-0.2
	c-0.3,0-1.1-0.1-1.3-0.5c-0.4-0.8-0.5-1.3-0.5-5.9l0.1-0.8c0-2.5,0-3,0.2-3.2c0.3-0.3,4.7-0.4,5-0.1c0.1,0.1,0,0.6,0.3,1.1
	c0.2,0.3,0.3,0.6,0.9,0.8l0.5-0.1l-0.2-2.3C-10.3,399.1-10.3,395.7-10.3,395.7z M5.1,406.8c-0.6,0.1-0.7,0.7-1,1.4
	c-0.3,0.6-0.5,1.2-1.1,1.5c-0.9,0.6-4.7,0.6-5.1,0.5c-0.4-0.1-0.4-3.6-0.3-4.7l0.1-0.8c0-2.5,0-3,0.2-3.2c0.3-0.3,4.7-0.4,5-0.1
	c0.1,0.1,0,0.6,0.3,1.1c0.2,0.3,0.3,0.6,0.9,0.8l0.5-0.1l-0.2-2.3c-0.1-1.8-0.1-5.1-0.1-5.1s-0.9-0.4-1.3,0.4
	c-0.2,0.4,0.1,1.2-0.2,1.7c-0.3,0.6-2.2,0.6-2.9,0.6c-0.8,0-1.8,0.2-2.1-0.6C-2.5,397-2,393-2,392.7c0-0.2-0.1-0.4,0.4-0.6
	c0.5-0.1,3.3-0.2,4.2,0.2c0.9,0.4,0.2,1.2,0.7,1.6s0.9,0.3,1-0.5c0.1-0.8,0-1.4,0-2.1c0-3.3,0.3-3.9-0.1-3.9c-0.2,0-0.3,0.2-0.5,0.5
	c-0.4,0.6-0.4,1-6.5,1c-5,0-5.5,0-5.7,0.3c-0.1,0.2-0.2,0.4-0.2,0.6c0,0.3,0.3,0.3,0.9,0.4c0.5,0.1,0.8,0.2,0.9,0.2
	c0.8,0.3,0.6,12.9,0.6,12.9v6.8c0,0.9-0.2,1.3-0.3,1.4c-0.2,0.2-0.5,0.2-0.7,0.2c-0.6,0-0.8,0.1-1,0.4c-0.2,0.3,0.1,0.7,0.1,0.7H2.2
	c1.2,0.1,1,1.3,1,1.5c0,0.4,0.8,0.8,1,0.1c0.9-3.1,1.2-6.6,1.2-6.9C5.5,407.2,5.4,406.8,5.1,406.8L5.1,406.8z M72.9,414.4
	c-0.3,0.1-0.3,0.5-0.4,0.9c-0.2,0.7-0.9,1.3-1.4,1.3c-1.1,0-2.7-2.7-2.7-6.3c0.1-4.2-0.6-6.8-1.7-7.8c-1.4-1.2-1.8-0.8-2.2-1
	c-0.2-0.1-0.3-0.6,0-0.8c1.6-0.9,2.8-2.1,3.6-3.9c0.6-1.5,0.9-4,0.5-5.4c-0.3-0.9-0.6-1.7-1.4-2.2c-0.6-0.4-1.2-0.6-2.3-0.6
	c-0.8,0-1.1,0.1-2.5,0.2c-2.1,0.2-3.9,0.5-5.3,0.5h-2.6l-0.1,0.3c-0.2,0.2-0.3,0.5-0.2,0.7c0.1,0.2,0.2,0.2,0.8,0.2
	c0.8,0,1.1,0.1,1.2,0.6c0.3,0.7,0.4,4.4,0.3,12.4v6.9c0,0.9-0.2,1.3-0.3,1.4c-0.2,0.2-0.5,0.2-0.7,0.2c-0.5,0-0.8,0.1-1,0.4
	c-0.2,0.3,0.1,0.7,0.1,0.7H63c0.2-0.2,0.1-0.7-0.1-0.8c-0.2-0.1-0.3-0.2-0.9-0.2c-0.3,0-1.1-0.1-1.3-0.5c-0.4-0.8-0.5-1.3-0.5-5.9
	v-3.9h0.6c0.7,0.1,1.5,1.5,2.1,2.7c0.7,1.4,2.2,4.8,3.6,9.7c0.9,3,2.9,4.3,4.4,4.3c0.9,0,2.4-0.7,2.8-3
	C74,414.7,73.3,414.2,72.9,414.4L72.9,414.4z M63.5,399c-0.4,0.3-1.1,0.8-1.8,0.9c-0.4,0.1-0.8,0.1-1.2,0l-0.2-0.1V392
	c0.1-0.9,0.2-0.9,0.6-1.1c0.5-0.3,2-0.3,2.6-0.1c1.6,0.6,2.1,1.7,2,4.3c0,1.1-0.5,2.2-0.7,2.5C64.3,398.3,63.9,398.7,63.5,399
	L63.5,399z M147.8,388.3c-0.2,0.3-0.7,0.4-1.1,0.5c-0.1,0-0.5,0.1-1.6,0.1c-0.8,0-2.2-0.2-4.1-0.2c-1.1,0-1.6,0.1-2.4,0.2
	c-0.5,0-1.2,0.2-2,0.2c-1.2,0-1.9-0.1-2.4-0.6c-0.3-0.3-0.6-0.5-0.7-0.5c-0.3,0-0.5,0.3-0.3,1c0.1,0.3,0.2,2.1,0.2,3.9
	c0,1.8,0.1,3.4,0.2,3.5s0.3,0.2,0.5,0.2c0.5,0,0.4-0.3,0.7-2c0.2-0.8,0.1-1.3,0.6-1.6c0.7-0.5,1.6-0.7,2.7-0.8h0.9v13.4
	c0.1,1.8-0.1,3.9-0.1,4.6c-0.1,1.3-0.1,1.4-0.6,1.6c-0.3,0.2-0.7,0.2-1,0.3c-0.6,0.2-0.4,0.9-0.4,0.9h8.5l-0.1-0.6
	c-0.1-0.5-0.5-0.4-0.9-0.5c-0.2,0-0.7,0.1-1.1-0.7c-0.4-0.8-0.4-1.1-0.5-5.4V392h2c0.7,0,1.2,0.4,1.4,0.6c0.5,0.3,0.7,0.7,0.8,2.1
	c0.1,1.1,0.2,1.6,0.6,1.8c0.6,0.2,0.7-0.4,0.7-3.4c0-1.9,0-2.4,0.1-3.4v-1.4C148.7,387.6,148.3,387.7,147.8,388.3L147.8,388.3z
	 M166.1,393.7c-0.6-1.4-1.8-2.7-2.6-3.5c-1.1-1-2.7-1.7-5-1.8c-0.7,0-2.3,0.1-3.4,0.7c-3.4,2-4.4,5.2-4.7,5.9
	c-0.5,1.3-0.8,3.1-1,5.1c-0.1,1.6,0.4,4.8,1,6.5c1.3,3.4,4,6,6.8,6.6c1.2,0.2,2.6,0.2,4-0.5c2.4-1.1,3.9-2.7,4.9-5.2
	c0.4-0.9,0.9-2.2,1.2-4c0.2-1.5,0.2-4.5-0.2-6.4C166.8,396,166.5,394.6,166.1,393.7L166.1,393.7z M163,404.8
	c-0.3,1.7-0.7,2.9-0.9,3.3c-0.8,1.4-2.2,2.4-2.7,2.5c-1.3,0.3-2.1,0.1-3.2-1c-0.6-0.6-1.3-1.4-1.6-2.2c-0.8-2.1-1.2-5.3-1-8.5
	c0.4-5,2.2-8.1,4.7-8.1c2,0,3.5,1.7,4.4,4.9C163.2,397.4,163.3,402.8,163,404.8L163,404.8z"/>
</svg>
