<?xml version="1.0" encoding="utf-8"?>
<!-- Generator: Adobe Illustrator 19.0.0, SVG Export Plug-In . SVG Version: 6.00 Build 0)  -->
<svg version="1.1" id="Quake_4_Logo" xmlns="http://www.w3.org/2000/svg" xmlns:xlink="http://www.w3.org/1999/xlink" x="0px"
	 y="0px" viewBox="-37.8 347 391.5 100" style="enable-background:new -37.8 347 391.5 100;" xml:space="preserve">
<style type="text/css">
	.st0{fill:#FFFFFF;}
</style>
<title>Quake 4 Logo</title>
<desc>For more information see: http://commons.wikimedia.org/wiki/File:Quake_4_Logo.svg</desc>
<path id="Letter_Q" class="st0" d="M27.7,368.6c1.8,4.8,2.6,9.7,2.6,14.7c0,4.4-0.7,8.4-2,12c-2.3,6.1-5.9,11.3-10.8,15.4
	c-5.1,4.2-10.9,6.7-17.2,7.3v8.8c0,0.3-0.3,1.7-0.8,4.1c-1,4.7-2,10.1-2.8,16.1c-2.8-12.6-4.4-19.3-4.7-20.1v-9
	c-6.2-0.6-11.8-3-16.8-7.2c-8.7-7.2-13-16.3-13-27.5c0-4.7,0.8-9.2,2.3-13.7c1.4-4.2,3.6-8,6.5-11.4c3.1-3.7,6.7-6.3,10.6-7.7
	c-4.2,2.4-7.6,5.5-10.3,9.3c-3.7,5.1-5.5,11-5.5,17.5c0,2.4,0.2,4.8,0.7,7.1c1,4.9,3.3,9.4,7.1,13.7c3.9,4.4,8.2,7.1,12.9,8.3
	c2.4,0.9,4.3,1.3,5.6,1.4v-8.9c0-0.9,0-1.9-0.1-3.1c-0.4-1.9-1.5-3-3.2-3.2c-0.1-0.1-0.3-0.2-0.4-0.2H3.6c0.4,0,0.6,0.1,0.5,0.2
	c-2.1,0.3-3.3,1.4-3.7,3.2c-0.2,0.9-0.3,2-0.3,3.2v8.8c2.9-0.6,4.9-1.1,6-1.4c4.6-1.2,8.8-3.8,12.6-7.9c5.4-5.8,8-12.8,8-21.1
	c0-5.6-1.4-10.8-4.3-15.5c-2.8-4.7-6.7-8.5-11.7-11.3C18.7,353.5,24.3,359.5,27.7,368.6z"/>
<path id="Letter_U" class="st0" d="M52.2,357c-0.5-4-2.2-6.4-5-7.2h20.7c-4.2,1.4-6.1,3.9-5.6,7.3v44.2c0,3.1,0.4,5.8,1.2,8.1
	c3.2,6.4,7.9,9.7,14.1,10c-7.8-0.2-13.9-2.6-18.2-7.1c-4.8-4.9-7.2-10.5-7.2-16.5L52.2,357L52.2,357z M109.2,356.9
	c0.5-4,2.3-6.4,5.3-7.1H93.6c4.1,1.3,6,3.6,5.5,7.1v45.4c0,3-0.4,5.4-1.3,7.1c-3.3,6.4-7.9,9.8-14,10c4.7-0.1,8.8-1,12.1-2.7
	c1.8-0.9,3.8-2.4,6.1-4.4c4.7-4.2,7.1-9.6,7.1-16.4L109.2,356.9L109.2,356.9z"/>
<path id="Letter_A" class="st0" d="M176,413l-3.4-8.4c-1.9-4.8-4.5-7.7-7.8-8.7c-1.1-0.1-2.7-0.2-4.6-0.3c-0.5-0.1-0.8-0.1-0.9-0.1
	l1.4-0.4c3-0.9,4.4-2.3,4.4-4.3c0-0.6-0.2-1.5-0.7-2.6c-2.3-5.4-3.9-9.5-5-12.2c-2.1-4.9-3.7-7.7-4.8-8.3c-0.9-0.5-2.2,1.3-4.2,5.1
	c-2,4.2-3.4,6.9-3.9,8.4l-2.9,7.4c-0.4,1-0.6,1.9-0.6,2.6c0,2.6,1.8,4,5.4,4.2c-4.8,0-8.1,1.2-9.9,3.7c-1.9,3.3-3.6,7.2-4.9,11.7
	l-0.5,3c0.3,2.2,1.6,3.4,3.8,3.8h-13.7c2.5-1.1,5.5-5,9.1-11.4c1.9-3.4,4.3-8.2,7.1-14.3c4.2-9.1,6.6-14.5,7.3-16.3
	c2.8-6.6,4.7-11,5.6-13.2l5-13.2l12,28.5h-0.1c1.4,2.9,2.2,4.7,2.6,5.5c3,6.3,6.9,14.5,11.5,24.5c2.3,5.1,5.1,8.4,8.2,9.9h-20.1
	C175,417.6,176.3,416,176,413z"/>
<path id="Letter_K" class="st0" d="M223.2,410.8c0,3.8,1.6,6,4.8,6.7h-19.1c2.7-0.7,4.3-2.9,4.7-6.7v-54c0-3.9-1.5-6.1-4.6-6.8h19.1
	c-2.3,0.5-4,2.7-4.9,6.6v19c0,3.6,2.4,6.2,7.2,7.8c-4.8,1-7.2,4.1-7.2,9.1L223.2,410.8L223.2,410.8z M250.5,380.1
	c8.2-10.6,16.6-21.6,25.4-33.1l-39.1,36.5h0.1l-0.1,0.1h0.3c6.2,2.3,11.6,5.1,16.3,8.4c11.1,7.7,17.1,17.1,17.9,28.2
	c0.2-1.6,0.3-3.3,0.3-4.9c0-10.8-3-19.6-9-26.5C259,384.8,255,381.9,250.5,380.1z"/>
<path id="Letter_E" class="st0" d="M311.2,386c-1.6,1.3-2.4,3-2.4,5.2v5.9c0,1.7,0.5,5.2,1.5,10.5c0.7,1.6,1.7,3.2,3,4.7
	c2.8,3.2,6,5,9.7,5.2c-5.7-0.2-11-2.2-15.8-6c-5.4-4.1-8.1-8.9-8.1-14.4v-40.3c-1-4-2.7-6.5-5.2-7.3h20.1c-3.4,0.8-5,3.3-5,7.6v19.3
	c0,2.6,0.7,4.5,2.1,5.6c0.1,0.6,3.9,1,11.7,1.4C317.5,383.5,313.7,384.4,311.2,386z M326.9,349.4h23.1l0.1,23
	c-0.7-6.3-3.2-11.5-7.6-15.6C338.6,353.2,333.4,350.8,326.9,349.4z M330.9,417.7c7.8-0.6,15.4-8,22.7-22.2v22.2
	c-1.1-1.5-2.8-2.3-5.1-2.3c-1.7,0-3.6,0.4-5.8,1.1C340.5,417.3,336.6,417.7,330.9,417.7z"/>
</svg>
