<?xml version="1.0" encoding="utf-8"?>
<!-- Generator: Adobe Illustrator 19.0.0, SVG Export Plug-In . SVG Version: 6.00 Build 0)  -->
<svg version="1.1" id="Layer_1" xmlns="http://www.w3.org/2000/svg" xmlns:xlink="http://www.w3.org/1999/xlink" x="0px" y="0px"
	 viewBox="0 0 639 350" style="enable-background:new 0 0 639 350;" xml:space="preserve">
<style type="text/css">
	.st0{fill:#FFFFFF;}
</style>
<image style="display:none;overflow:visible;" width="639" height="350" xlink:href="../logo downloads/raiden.png" >
</image>
<g>
	<path class="st0" d="M570.3,9.2v94.5H447.3v12.1l-12.6-12.6h-101V30.5L268.8,120v42.5l-51.3-69.7l-37.2,48.3V99.9H6.6l40.6,40.8
		v202.8l66.8-81.8v-13h219.2V124.3l18.6,18.6v105.9h82.1l12.9-12.9v12.8H634V97.8L570.3,9.2z M170.2,233.3h-46.3v-34H98.2v56
		l-35.5,44V134.2L44.5,116h120.3v36.3l-23.3,23.3h28.6V233.3z M173.6,233.5v-57.8l43.5-57.1l84.8,115H173.6z M317.9,233.5h-11.1
		l-22.6-30.6V126l33.8-46.3V233.5z M456.2,204.8l-28.7,28.7h-59.8v-96.7L350.4,119h78.3l27.5,27.5V204.8z M532,153.2h-33.3v6.5h30.5
		v33.5h-30.5v7.3H532v33h-69.5V119H532V153.2z M619.2,233.5h-21.7l-24.2-37.8v37.8h-34.8V119h23.7l22.5,36.1V56.3l34.5,47.2V233.5z"
		/>
	<polygon class="st0" points="403.1,199.5 430.2,176.2 403.1,151.8 	"/>
	<polygon class="st0" points="195.6,199.1 237.1,199.1 216.6,172.9 	"/>
	<polygon class="st0" points="98.6,177.5 123,152.9 98.6,152.9 	"/>
</g>
</svg>
