<svg xmlns="http://www.w3.org/2000/svg" width="1396" height="444" viewBox="0 0 1396 444">
  <defs>
    <style>
      .cls-1 {
        fill: #fff;
        fill-rule: evenodd;
      }
    </style>
  </defs>
  <path id="Shape_317_1" data-name="Shape 317 1" class="cls-1" d="M378.175,169.209l-15.385-.321-9.3-1.284c-8.559,1.3-17.079,2.545-26.923,3.209V124.6c0.192-8.221-.285-17.434-7.693-17.972-8.583,3.526-6.134,17.993-9.3,26.638,0.62,2.527,2.081,5.213,2.244,8.665,0.423,8.982-1,19.18,2.564,25.033,3.72,6.117,10.952,10.247,16.667,14.442,12.458,9.146,27.12,19.283,36.219,31.773,6.44,8.84,8.046,18.916,10.256,32.415q0.161,8.343.321,16.689,0.16,17.007.32,34.019c0,31.781,1.787,61.227-10.256,80.876a24.474,24.474,0,0,1-11.859,9.949c-17.063,6.755-67.929,6.057-80.451-3.209-19.542-14.46-16.346-74.8-12.821-106.551l-2.244-7.061c-1.393-5.281-.674-14.838.641-19.577,13.871-.064,39.826-2.321,50.643.642q0.159,0.321.32,0.642v66.755c1.138,7.449-.323,15.327,7.693,15.726l3.846-1.284c2.325-7.118,2.885-16.149,2.885-26.638,0-13.337,1.87-46.5-2.885-54.238-2.975-4.844-8.97-7.831-13.462-11.233l-8.654-8.345c-11.372-8.307-24.535-14.895-32.052-26.958-12.454-19.989-8.654-60.389-8.654-92.109,0-15.218.466-30.848,5.128-41.722,2.816-6.568,8.5-13.235,15.065-16.047,16.3-6.982,68.939-6.8,81.412,2.568C383.524,74.29,378.293,131.783,378.175,169.209ZM242.6,107.589H214.069c0.038,23.711,0,45.352,0,69.322l28.206,0.321q0.159,27.438.32,54.881H214.069V333.529a89.167,89.167,0,0,1,14.423,1.284l13.783-.963q0.159,28.078.32,56.164l-56.411-.321c-7.932-.485-14.514,3.518-23.078,1.284q-0.161-120.822-.32-241.666V82.877c0-8.443-1.887-22.463,1.282-28.563,8.229-1.824,22.479-1.263,30.77,0l17.308-.963,29.808,0.321C243.557,71.73,242.6,88.433,242.6,107.589ZM451.254,53.671q0.16,167.994.321,336.022H409.266l-0.321,1.925-8.333-.32q-0.161-87.929-.321-175.874c0-38.548-3.022-84.266,1.923-119.389q-0.96-4.653-1.923-9.307V53.671h50.963Zm245.84,0c-0.013,18.609.309,35.334,0.32,53.918H669.529q-0.321,25.512-.641,51.029c0,5.355-1.234,15.46,1.6,18.293l26.6,0.321q0.159,27.438.32,54.881H669.529c-0.753,32.744-.423,68.507-0.321,101.737h27.886q0.159,27.918.32,55.843l-79.489.321c0.048-107.047-.039-223.332,0-336.343l42.309-.321c3.889,0.334,10.526,2.872,13.141,2.247C680.06,54,687.9,53.673,697.094,53.671Zm139.106,0v308.1c0.5,8.247,2.123,22.9-.962,29.527-9.622-3.574-38.144-1.624-51.283-1.605q-10.9-77.82-21.8-155.655-0.319,77.98-.641,155.976H718.889q-0.16-39.31-.321-78.63c-1.53-10.162,4.641-17.658,3.206-24.07-5.207-23.253-3.205-57.973-3.206-86.332,0-52.461.316-98.216,0.321-147.311H768.57q11.7,83.275,23.4,166.567h0.32V139.362c0-18.862-.525-39.1,1.923-54.56,0.545-3.443-1.419-6.16-1.923-8.665-1.18-5.865-.762-17,0.641-21.824C805.469,52.905,821.751,53.663,836.2,53.671Zm116.349,0c0.091,12.959,2.418,46.97-1.6,55.522-6.354-.834-15.558-2.491-23.4-0.962q-0.16,81.831-.321,163.678c0,39.5.645,80.622-.641,119.068l-5.769.641v-1.925H875.944V108.231H850.3q0.16-27.278.321-54.56c21.665-.012,48.17-1.79,66.668,1.926,1.136,0.228,6.4-1.88,8.654-2.247Zm-930.151,0c31.394-.177,86.113-4.83,103.529,8.986,15.978,12.675,13.461,48.265,13.462,76.7q-0.321,17.007-.642,34.019c-2,13.262-1.157,24.568-5.448,34.661-3.511,8.256-9.223,10.9-15.706,16.047,14.905,5.418,18.388,22.76,21.154,40.759q0.16,9.145.321,18.294,0.161,53.269.321,106.551H106.053q-0.319.963-.641,1.925c-5.185-1.3-12.812-.254-16.987-1.6V319.408c0-13.255,1.12-27.543-.962-38.834-1.946-10.559-1.847-20.377-10.577-24.07-1.329-.562-1.756-1.416-2.885-0.642C71.38,262.6,73.36,287.041,73.36,296.3v93.714l-31.411-.321-0.32,1.925-18.911-.32c-0.872-19.981-.865-43.157-1.923-61.941-0.275-4.875,5.832-5.636,4.808-10.912l-3.526-8.987q0.16-39.15.32-78.308V53.671Zm454.178,0c29.1-.1,93.946-4.822,105.452,10.591,18.153,24.318,12.5,96.322,12.5,139.608V288.6q-0.321,21.66-.641,43.326-0.16,7.542-.321,15.084c-2.331,14.589-4.975,27.667-14.423,34.982-13.229,10.243-42.754,7.7-65.707,7.7l-27.244.321c-2.847.479-5.879,1.86-9.295,0.963q-0.161-41.236-.321-82.481V291.165c0.686-3.628,3.976-6.382,2.885-11.233q-1.441-3.69-2.885-7.381v-110.4c0-8.543-.817-18.135,2.564-23.107-3.491-6.43-2.884-18.567-2.884-28.564Q476.416,82.077,476.575,53.671Zm517,0h79.165c0.03,15.535,3.41,43.448-.32,54.56-8.39,1.264-16.81-.6-27.56-0.642v69.643h27.88c0.06,18.281,1.65,39.022-.64,56.164l-9.61.321v-1.6h-17.63q-0.165,20.536-.32,41.08c-0.86,2.139-1.71,4.279-2.57,6.418,0.86,2.033,1.71,4.066,2.57,6.1V333.85l28.2,0.321V371.72c0,6.553.63,14.438-.96,19.578l-9.29.32v-1.925H1048.7q-3.36-1.123-6.73-2.247l-8.97,2.568-39.745-.321V144.5l3.846-11.875c1.039-5.659-3.563-9.052-3.846-14.442Q993.414,85.929,993.575,53.671Zm89.745,0h35.26c3.27,0,10.88-1.061,12.82.642q1.275,26.635,2.56,53.276,0.48,11.873.96,23.749-0.315,3.048-.64,6.1c1.67,7.682,1.58,17.665,3.21,25.675q0.315,9.306.64,18.614,0.48,8.987.96,17.973l0.96,18.293q1.29,25.351,2.57,50.708,5.76-107.5,11.54-215.028h48.07q-17.145,168.8-34.29,337.627h-10.58v-1.605h-46.47q-5.46-65.3-10.9-130.622-2.25-26.315-4.49-52.634l0.96-17.651q-1.755-6.258-3.52-12.517-2.73-34.5-5.45-69A347.252,347.252,0,0,1,1083.32,53.671Zm133.02,0h50.96V357.278c0,10.6,1.78,25.145-.96,34.02l-15.07.32c-0.82-2.752-4.85-2.174-8.33-1.925l-26.92.321V319.408c0-7.451,3.66-16.478,2.88-20.861l-2.88-10.27V207.721Q1216.17,130.7,1216.34,53.671Zm76.28,0h50.96V314.593c0,4.309-1.67,15.937.64,18.615l29.17,0.642c1.96,12.932,2.86,44.864,0,57.448-6.96.43-10.49-3.818-17.95-2.568-18.17,3.05-43.38,1.9-63.14.963Q1292.465,221.7,1292.62,53.671ZM73.681,108.552v85.69c4.544,0.057,9.918-.286,11.859-2.889,4.146-5.56,3.909-53.665,2.244-64.508-0.853-5.556.64-11.7-1.923-15.4C83.9,108.611,78.5,108.475,73.681,108.552Zm454.5,0.32q-0.16,112.8-.32,225.62c3.972,0.293,8.246.566,10.9-1.284,5.523-3.854,3.527-31.773,3.526-41.08V157.976c0-11.252,1.97-44.269-3.846-48.141C536.286,108.4,531.674,108.832,528.179,108.872Z"/>
</svg>
