<?xml version="1.0" encoding="utf-8"?>
<!-- Generator: Adobe Illustrator 19.0.0, SVG Export Plug-In . SVG Version: 6.00 Build 0)  -->
<svg version="1.1"
	 id="svg2" xmlns:sodipodi="http://sodipodi.sourceforge.net/DTD/sodipodi-0.dtd" xmlns:inkscape="http://www.inkscape.org/namespaces/inkscape" xmlns:svg="http://www.w3.org/2000/svg" sodipodi:docname="Rhythm Heaven Logo.ai"
	 xmlns="http://www.w3.org/2000/svg" xmlns:xlink="http://www.w3.org/1999/xlink" x="0px" y="0px" viewBox="27 148.6 666.7 496.4"
	 style="enable-background:new 27 148.6 666.7 496.4;" xml:space="preserve">
<style type="text/css">
	.st0{fill:#FFFFFF;}
</style>
<sodipodi:namedview  borderopacity="0.25" bordercolor="#000000" pagecolor="#ffffff" id="namedview4" inkscape:pageopacity="0.0" inkscape:showpageshadow="2" inkscape:deskcolor="#d1d1d1" inkscape:pagecheckerboard="0">
	</sodipodi:namedview>
<g id="g8" transform="matrix(1.3333333,0,0,-1.3333333,0,496.35467)" inkscape:label="Rhythm Heaven Logo" inkscape:groupmode="layer">
	<g id="g10">
		<g>
			<g id="g12">
				<path class="st0" d="M502.1,112.5c4.9,12.5,7.4,26,7.4,39.6c0,59.9-48.8,108.7-108.7,108.7c-34.9,0-67.1-16.7-87.3-44
					c-14,7-29.6,10.7-45.5,10.7c-21,0-41.1-6.3-58.3-18.4c-8.9-6.2-16.6-13.7-23-22.3c-17.2,10.8-37.3,16.7-57.8,16.7
					C69,203.6,20.2,154.9,20.2,94.9c0-24.1,7.7-46.9,22.3-66C52.8,15.6,66.1,4.8,81.1-2.6c-0.2-2.6-0.3-5.3-0.3-7.9
					c0-55.7,45.3-101,101-101c20.9,0,40.9,6.3,58,18.3c10.1,7.1,18.8,15.9,25.6,26c11.4-4.3,23.5-6.5,35.9-6.5
					c31.2,0,60.5,14.6,79.6,38.5c12.6-5.6,26.2-8.5,40.3-8.5c54.7,0,99.2,44.5,99.2,99.2C520.2,76.1,513.9,95.9,502.1,112.5z
					 M421.1-32.5c-15.6,0-30.5,4-43.8,11.7c-16.5-25.6-45.2-41.6-76.1-41.6c-14.2,0-28,3.3-40.5,9.6c-6.6-12.3-16-22.9-27.6-31.1
					c-15.1-10.6-32.9-16.2-51.5-16.2c-49.4,0-89.6,40.2-89.6,89.6c0,5,0.4,9.9,1.2,14.8C56.5,18.8,31.6,54.8,31.6,94.9
					c0,53.7,43.7,97.4,97.4,97.4c22.2,0,43.7-7.7,60.8-21.4c6.6,11.4,15.6,21.3,26.5,29c15.2,10.7,33.1,16.3,51.8,16.3
					c17.5,0,34.5-5.1,49-14.5c17.4,29.3,49.1,47.7,83.8,47.7c53.7,0,97.4-43.7,97.4-97.4c0-14.2-3.1-28.3-9.1-41.2
					c12.8-15.7,19.8-35.1,19.8-55.5C508.9,6.9,469.5-32.5,421.1-32.5z"/>
				<g>
					<path class="st0" d="M122.5,109.9c-13.4,0-13.6-7.6-13.6-14.9c0-9.2,4-12.9,10.9-11.1c10.4,2.7,16.3,10.6,16.3,15.7
						C136.1,105,132.1,109.9,122.5,109.9z"/>
					<path class="st0" d="M477.3,109.4c7.1,12.6,11.1,27.2,11.1,42.7c0,48.3-39.2,87.5-87.5,87.5c-36,0-66.9-21.7-80.3-52.7
						c-14.1,12.1-32.4,19.5-52.5,19.5c-34.3,0-63.6-21.5-75.2-51.7c-16,17.1-38.7,27.8-64,27.8c-48.3,0-87.5-39.2-87.5-87.5
						c0-40,26.8-73.7,63.4-84.1c-1.9-6.8-2.9-13.9-2.9-21.3c0-44.1,35.7-79.8,79.8-79.8c34.1,0,63.2,21.4,74.6,51.4
						c12.8-8.6,28.3-13.7,44.9-13.7c32.1,0,59.7,18.7,72.7,45.9c13.1-10,29.5-15.9,47.2-15.9c43.1,0,78,34.9,78,78
						C499.1,76.4,490.8,95.4,477.3,109.4z M270.5,157.7l44.7,10.3v-24.2l-6.6-1.5c-7.4-1.7-9.2-4.8-9.3-19.8V87.6l-12.5-2.9v37.7
						c0,8.5-1.5,9.4-5.7,8.4l-10.6-2.4V157.7z M167.2,124.2l10.9,2.5c0-10.1,0.2-14.9,0.5-18.3c0.9-7.7,13.9-4.6,14.7,2.7v22.7
						l15.9,3.7V67.5L198.3,65c0,8.5,0,12.7-0.4,15.3c-1.2,8.3-14.8,7.7-15.7-4V60l-15-3.5V124.2z M131.1,55.3
						c-9.7,10.9-13.7,14.2-15.7,15.4c-1.2,0.7-6.4,3.9-6.4-4.1V50.2L95.4,47v92c52.1,12.5,64.6-7.9,64.6-24.8
						c0-25.6-23.9-35.2-23.9-35.2l18-18.4L131.1,55.3z M214.5-45.2l-14.3-3.3c0.2,10.3-0.1,18.5-0.6,24.1c-0.4,3.8-3.2,5.6-7,5.6
						c-3.2-0.1-6.3-1.2-9.6-3.4c-2.8-1.9-5.6-5.1-6.6-8.9c-1.5-5.6-1.9-14.6-1.6-26.8l-19.2-4.4V33l14,3.2
						c-0.2-10.8,0.1-19.4,0.6-25.6c0.4-4,3.2-5.5,7-5.5c3.2,0.1,6.4,1.1,9.6,3.3c3.2,2.2,5.5,5.2,6.6,9c1.8,6.3,1.9,16,1.6,28.9
						l19.5,4.5V-45.2z M259.5-15.7l-36.6-8.5v64.8l35.9,8.3V22.7c0,0-17.4-3.8-21.3-6.3c-1.4-0.9-2-2-1.9-3.3c0.2-1.2,1-1.9,2.3-2.1
						c4.2-0.6,18,2.7,18,2.7V3.3l-12.1-3.2c-2.6-0.8-4.5-1.5-5.7-2.3c-1.4-0.9-2-2-1.9-3.3c0.3-2.1,3-2.2,3.4-2.2
						c3.5,0,10.1,1.3,19.9,3.5V-15.7z M256.9,79.2c-8.4-14.1-24.6-17.2-39.4-19.4l0,21.2c0,0,25.8,2.4,28.8,11.8
						c0.6,1.7,0.2,2.4-0.1,2.7c-0.2,0.1-0.4,0.1-0.6,0c-3.2-2.3-6-3.3-9.8-3.7c-15.9-2.1-19.2,7.3-19.2,34v6.9l16.1,3.7
						c0,0,0.1-14.5,0.5-21.9c0.8-14.5,16.1-10.1,16.9,4.2c0.5,10,0.8,23.5,0.8,23.5l13.4,3.1C264.3,95,260.1,84.4,256.9,79.2z
						 M299.3-13.2l-1.5,7c-0.4,2-1.9,3-3.2,2.8c-3-0.3-11.8-2.6-11.8-2.6c-3.1-0.9-5.1-2.9-5.6-6.1l-1.2-6.5l-11.4-2.6
						c0,0,4.5,34.5,8.6,50.9c3.9,15.6,7.7,17.8,11.9,19.2c3.2,1.1,9.5,3.1,15-6.9c6.9-12.7,14.6-51.7,14.6-51.7L299.3-13.2z
						 M341.7,14.3l-21.7-5c-7.2,17.3-12.5,46.9-13.5,57.8l11.2,2.6c2.5-15.9,6-28.3,7.1-31c3.2-7.4,5.6-2.2,6.6,1.2
						c3.4,11.8,7.3,37.4,7.3,37.4l17.3,4C354.4,57.7,349.6,35.4,341.7,14.3z M354.1,95.3c0,9,0,13.3-0.4,16.1
						c-1.3,8.7-15.6,8.1-16.5-4.3v-17l-15.7-3.6v71.1l11.5,2.6c0-10.6,0.2-15.6,0.5-19.2c1-8.1,14.6-4.8,15.4,2.9v23.9l16.8,3.9
						V97.9L354.1,95.3z M398.2,19l-36.6-8.5v64.8l35.9,8.3V59.3c0,0-17.4-3.8-21.3-6.3c-1.4-0.9-2-2-1.9-3.3c0.2-1.2,1-1.9,2.3-2.1
						c4.2-0.6,18,2.7,18,2.7V39.8l-12.1-3.2c-2.6-0.8-4.5-1.5-5.7-2.3c-1.4-0.9-2-2-1.9-3.3c0.3-2.1,3-2.2,3.4-2.2
						c3.5,0,10.1,1.3,19.9,3.5V19z M390.9,136.5c-1.8,2.9-3.6,2.5-4.2-0.4c-0.7-3.3-0.9-10.5-0.8-23l-13.7-3.2v76.8l16.6,3.8
						c6.7-16.2,10.6-25.1,13.4-29.7c2.4-3.9,7.7-9.4,12.7,4.6c3,8.2,6.4,17.9,12.4,37.8l11.3,2.6v-83l-14.3-3.3
						c0,12.7,0.1,20.4-0.6,24.2c-0.9,5.1-3.9,3.1-5.5,0.4c-1.9-3.4-4.7-10.2-9.8-23.9l-9.2-2.1C394.7,128.9,392.4,134.1,390.9,136.5
						z M456.2,26.2L440,22.5c-8.5,14.3-15.4,23.2-18.9,22.6c-0.5-0.1-1.1-0.4-1.4-0.9c-1-1.4-1.5-4.3-1.5-8.7l-0.2-21l-12.1-2.8
						v82.7l10,2.3c6.9-13.3,14.5-28.6,18.6-31.3c0.6-0.4,1.4-0.6,2.1-0.5c1.6,0.3,2.6,2.6,3,8.4c0.4,5.8,0.5,38.5,0.5,38.5l16.1,3.7
						V26.2z"/>
					<path class="st0" d="M293.5,14.3c-1.3,6.6-3.8,9.1-6.6,8.7c-2.2-0.3-4-2-5-6.1c-0.4-1.8-1.6-7.3-1.8-9.8
						c-0.2-2.7,0.9-3.8,2.8-3.5c2,0.4,5.9,1.4,7.7,1.7c2.7,0.7,3.8,2.9,3.5,5.1C294,12.4,293.7,13.7,293.5,14.3z"/>
				</g>
			</g>
		</g>
	</g>
</g>
</svg>
