<?xml version="1.0" encoding="utf-8"?>
<!-- Generator: Adobe Illustrator 19.0.0, SVG Export Plug-In . SVG Version: 6.00 Build 0)  -->
<svg version="1.1" id="Layer_1" xmlns="http://www.w3.org/2000/svg" xmlns:xlink="http://www.w3.org/1999/xlink" x="0px" y="0px"
	 viewBox="-155 300.4 300 192.6" style="enable-background:new -155 300.4 300 192.6;" xml:space="preserve">
<style type="text/css">
	.st0{fill:#FFFFFF;}
</style>
<g>
	<g>
		<path class="st0" d="M-33.3,364.2c4.5,0,8.2-1.7,11.1-4.8c3.1-3.4,4.6-7.5,4.6-12.3c0-5.2-1.5-9.4-4.6-12.7c-3-3.4-6.7-5-11.2-4.9
			c-4.5-0.1-8.3,1.6-11.3,4.8c-3.1,3.3-4.6,7.4-4.6,12.3c0,5.2,1.6,9.4,4.7,12.8C-41.7,362.5-37.8,364.2-33.3,364.2z M-45.7,346.7
			c0-2,0.3-3.9,0.9-5.6c0.7-1.6,1.6-3,2.8-4.4c1.2-1.3,2.5-2.1,3.8-2.8c1.5-0.7,3.1-0.9,4.8-0.9c1.8,0,3.4,0.2,4.7,0.9
			c1.5,0.7,2.7,1.6,3.8,2.9c1.3,1.3,2.2,2.9,2.8,4.5c0.7,1.8,1,3.6,1,5.7c0,2-0.3,3.8-1,5.4c-0.6,1.7-1.5,3.1-2.7,4.5
			s-2.4,2.2-3.8,2.8c-1.3,0.7-2.9,0.9-4.7,0.9c-1.7,0-3.4-0.2-4.7-0.9c-1.5-0.6-2.8-1.5-4-2.8s-2.1-2.9-2.8-4.6
			C-45.4,350.7-45.7,348.8-45.7,346.7z"/>
		<path class="st0" d="M-92,439.8l-3.1-0.4h-0.9h-2.4h-2.9v4.3h2.9h2.4h0.9l3.1-0.3c0.7-0.3,1-0.6,1.1-0.9c0.1-0.3,0.1-0.7,0.1-1
			c0-0.3,0-0.6-0.1-0.9C-91,440.2-91.5,439.9-92,439.8z"/>
		<path class="st0" d="M-92,411.2l-3.1-0.3h-0.9h-2.4h-2.9v4.2h2.9h2.4h0.9l3.1-0.3c0.7-0.2,1-0.6,1.1-0.9c0.1-0.2,0.1-0.6,0.1-1
			c0-0.2,0-0.6-0.1-0.8C-91,411.6-91.5,411.4-92,411.2z"/>
		<path class="st0" d="M-101.6,343.1h1.2c2.6-0.1,4.5-0.4,5.6-1c1.2-0.7,2.1-1.5,2.5-2.5c0.3-1,0.7-2.1,0.6-3.3
			c0.1-1.1-0.1-2.2-0.4-3.1c-0.4-0.9-1.3-1.8-2.6-2.4c-1.1-0.7-2.9-0.9-5.4-1h-1.3h-2.9h-3.5v13.2h3.4H-101.6z M-104.4,333.5h2.9
			h1.3l3.5,0.2c0.7,0.3,1.1,0.6,1.2,1c0.1,0.4,0.2,1,0.1,1.6c0.1,0.7,0,1.2-0.1,1.7c-0.1,0.6-0.6,0.8-1.3,1.1l-3.6,0.3h-1.2v0h-2.8
			V333.5z"/>
		<path class="st0" d="M-93.5,371.8l-5.3-6.1l-2.5-2.7l-6.6-0.1v24.2h10.8l14.2,0.9c1.9,0.4,3.6,1,5.2,1.6l-8.5-9.5L-93.5,371.8z
			 M-97.1,383.6h-7.3v-16.9h0.9h0.7l2.4,2.8l5.4,5.9l7.5,8.5L-97.1,383.6z"/>
		<path class="st0" d="M95.5,410.4h-1.6h-3.7h-3.9v33.3h3.9h3.6h1.5c4.9,0,8.6-1.5,11-4c2.4-2.6,3.5-6.7,3.5-12.3
			c-0.1-5.7-1.3-9.9-3.8-12.8C103.6,411.8,100.1,410.4,95.5,410.4z M104.8,435.4c-0.8,1.8-2,3-3.7,3.8c-1.6,0.7-3.6,0.9-5.8,0.9
			h-0.8h-2h-2.6v-26h2.6h2.1h0.9c2.4,0,4.2,0.3,5.3,0.9c1.1,0.7,2,1.3,2.5,1.9c1.9,2.2,2.9,5.7,2.9,10.4
			C106.2,430.9,105.7,433.5,104.8,435.4z"/>
		<path class="st0" d="M99.9,372.3l-7.3-8.2l-5-5.6v7v8v7.6v5.7h5.7c5,0,9.5,0.4,13.6,1.3c4,0.9,7.5,2.2,10.7,4l-9.1-10.2
			L99.9,372.3z M93.3,383.2h-2.1v-7.9V368l5.9,6.6l8.6,9.8L93.3,383.2z"/>
		<path class="st0" d="M-59.4,410.6l-7.5-8.6c0.8,2.5,1.2,5,1.2,8c-0.1,5.6-1.8,10.3-5.5,14.1c4.3,2.7,7.1,6.4,8.3,11.3l13-14.1
			l-3.6-3.9L-59.4,410.6z M-61.8,428.8c-1.1-1.9-2.5-3.7-4.3-5.3c2.1-3.3,3.4-6.8,3.8-10.8l7.5,8.5L-61.8,428.8z"/>
		<path class="st0" d="M55.1,379c-5.4,4.3-11.6,6.7-18.3,7.9h25v-5.9l-0.1-8.4C59.8,374.8,57.6,376.9,55.1,379z M58.3,383.2h-2.9
			l2-1.5l0.9-0.7V383.2z"/>
		<path class="st0" d="M143.6,303.1h-52l4.7,13.1l-5.2,6.4v-20H44.9l2,3c-5.2-2-10.9-3-17.3-3c-12.3,0-22.8,4.1-31.5,12.7
			c-8.6-8.5-19.2-12.7-31.7-12.7c-12.6,0-23.1,4.1-31.6,12.7l-1.9,1.9c-1.6-2.4-3.1-4.3-4.8-5.7c-1.6-1.6-2.9-2.6-4-3.3
			c-2.5-1.6-5.3-2.8-8.2-3.5c-2.2-0.5-6.7-1.4-9-1.7c-2.1-0.3-8.4-0.4-8.4-0.4h-51.4l8.4,10.3h-9.1l17,19.4v51.1h-7.4l13.8,18.7V452
			l-13.3,19.2h47.1c7.6,0,13.3-0.5,17-1.5c1.6-0.4,3.1-1.1,4.7-1.8l0.1,22.5l39.8-44.8V471h59.8v-25.3l40.2,46.9v-21.8h32.2
			c12.4,0,22.5-4.1,30.3-12.3c7.6-8.1,11.4-18.6,11.4-31.7l-0.2-5l3.1,3.6l1.2,1.3v-45.2l-32.6-36.6L143.6,303.1z M116.2,356.5
			l8,8.9l7.5,8.5l5.6,6.3l2.2,2.5v34.5l-2-2.4l-5.8-6.5c2.5,5.4,3.8,11.6,3.8,18.4c0,12-3.5,21.8-10.4,29.3
			c-7,7.5-16.3,11.2-27.7,11.2H61.6v15.6l-2.4-2.7l-6.1-7.1l-8.2-9.8l-9.1-10.5l-8.3-9.6l-6.1-7.2v7.4v8.3v7.7v5.7v2.2h-52.7v-2.2
			v-5.7v-7.6v-8.2v-7.3l-6.1,6.8l-8.3,9.2l-9,10.1l-8.3,9.3l-5.9,6.7l-2.4,2.6l-0.1-19.7c-2.8,2.4-5.8,4-9.2,4.9
			c-3.4,1-8.7,1.3-16,1.3h-40.3l0.9-1.2l2.4-3.4l2.8-4.1l2.6-3.7l1.5-2.1v-51.8l-2.1-2.8l-3.5-4.8l-3.3-4.5l-1.5-1.9h3.9v-56.1
			l-1.9-2l-3.3-3.8l-3.6-4l-2.8-3.3l-1.2-1.3h1.3h3h2.9h1.5l-2.1-2.6l-2.8-3.5l-2.5-3l-1-1.3h43.9c0,0,5.9,0.3,7.9,0.4
			c2.8,0.2,5.6,0.7,8.3,1.5c2.8,0.8,5.3,1.8,7.4,3.1l3.3,2.5c1.1,1,2.5,2.5,3.6,4.1c1.3,1.7,2.5,3.6,3.4,6.1c1.5-2.1,3.1-4.2,5-6.1
			c7.9-7.7,17.6-11.7,29.2-11.7c11.6,0,21.4,3.9,29.4,11.8l2.4,2.6l2.6-2.7c7.9-7.7,17.5-11.7,28.9-11.7c13.6,0,24.2,5,32,15V321
			l-1.3-2.1l-2.6-3.7l-2.8-4.1l-2.2-3.4l-0.9-1.5h35.8v1.8v4.8v6.3v7.1v6.4l5.4-6.6l4.6-5.6l2.8-3.4l-0.9-2.5l-1.3-3.4l-1-3.1
			l-0.5-1.3h39.6l-2,2.6l-5,6.5l-6.8,8.6l-7.1,8.9l-5.9,7.6l-3.5,4.3l3.8,4.2L116.2,356.5z"/>
		<path class="st0" d="M0.8,375.6l-2.5-2.7l-1.1,1.2l6.5,7.6l8.9,10.1l9.4,10.8l8.5,9.8l6.1,7.2v-32.8l-6.6,0.6
			C18.4,387.4,8.8,383.5,0.8,375.6z M33,410l-4.7-5.5l-6.6-7.6l-7.4-8.6c4.8,1.8,10.1,2.7,15.7,2.7l3-0.1V410z"/>
		<path class="st0" d="M-53.5,382.7l2.9,3.3l1.1,1.2v33.4l34.4-37.4c-5.6,2.8-11.9,4.2-18.6,4.2C-41,387.4-47.6,385.7-53.5,382.7z
			 M-45.7,411.5v-22.1c3.7,1.1,7.9,1.6,12.1,1.6l7.2-0.4L-45.7,411.5z"/>
		<path class="st0" d="M29.7,364.2c3.1,0,5.9-0.8,8.2-2.5c2.4-1.6,4.3-4,5.8-7.4l1-2.1h17l-0.1-10.3v0H44.5l-0.9-2.4
			c-1.1-3.1-3-5.6-5.6-7.5c-2.4-1.7-5.2-2.6-8.4-2.6c-4.3-0.1-7.9,1.6-10.9,4.7c-3,3.4-4.5,7.5-4.5,12.4c0,5,1.5,9.3,4.6,12.8
			C21.7,362.5,25.4,364.2,29.7,364.2z M17.8,346.7c0-2,0.3-3.9,0.9-5.6c0.6-1.6,1.5-3,2.6-4.5c1.2-1.2,2.5-2,3.8-2.7
			c1.3-0.7,2.8-0.9,4.5-0.9c2.5,0,4.6,0.6,6.5,2c1.9,1.3,3.3,3.3,4.1,5.8l1.8,4.6h16.1v3.3H42.4l-1.9,4c-1.3,2.7-2.8,4.7-4.6,6.1
			c-1.8,1.2-3.8,1.8-6.3,1.8c-1.6,0-3-0.2-4.5-0.9c-1.3-0.6-2.6-1.5-3.7-2.8c-1.3-1.3-2.2-2.9-2.8-4.6
			C18,350.6,17.8,348.7,17.8,346.7z"/>
	</g>
	<g>
		<g>
			<path class="st0" d="M65.2,335.2c-0.8-2.7-2-5.4-3.8-8.3c-7.3-11.4-17.8-17.2-31.7-17.2c-10.4,0-19.3,3.6-26.5,10.8
				c-1.9,1.8-3.6,3.8-5,5.9c-1.3-2-2.9-4.1-4.9-5.9c-7.2-7.2-16.2-10.8-26.8-10.8c-10.7,0-19.5,3.6-26.7,10.8c-4.2,4.1-7.2,9-9,14.4
				c-0.2-3.5-0.8-6.6-1.7-9.3c-1-2.7-2.4-4.9-3.9-6.7c-1.6-1.9-3.3-3.4-5-4.6c-1.9-1.2-4.3-2.1-6.8-2.8c0,0-5.9-1.1-7.9-1.3
				c-1.7-0.2-7-0.2-7-0.2h-36.3l8.5,10.2h-8.5l8.5,9.6v57.1h17.8v-27.5l11.9,0.1l46.7,52.9v-23.9l-27.7-31.1
				c0.6-0.2,0.9-0.3,0.9-0.3l1.6-1.2c1.1-0.8,2.2-1.9,3.6-3.6c1.3-1.6,2.6-3.6,3.6-5.9v0.7c0,10.3,3.6,19.1,10.9,26.1
				c7.2,7.2,16,10.7,26.6,10.7c10.7,0,19.6-3.6,26.8-10.7c2-1.9,3.7-3.9,5-6.2c1.6,2.1,3.3,4.1,5,6.1c7.3,7.2,16.1,10.8,26.7,10.8
				c8.6,0,16.3-2.6,23-7.6c5.9-4.7,10.1-10.7,12.3-18.1v28.7h18.6v-37.7l52.2,58.8v-23.8l-34.8-38.9l27.5-35h-27.1l2.6,7.5
				l-20.3,24.9v-32.8H58.4l6.8,10V335.2z M40.2,329.2c3,2.2,5.4,5.3,6.7,9.1h18.3l0.1,17.5H46.9c-3.9,8.1-9.5,12-17.3,12
				c-5.4,0-9.9-2-13.6-6.1c-3.6-4-5.5-9.1-5.5-15.1c0-5.8,1.8-10.8,5.5-14.8c3.6-3.9,8.1-5.9,13.5-5.9
				C33.5,325.8,37.1,326.9,40.2,329.2z M-100.3,346.6h-11.2v-20.3h11.4c8,0,12,3.4,12,10.1C-88.1,343.2-92.1,346.6-100.3,346.6z
				 M-19.6,331.9c3.7,4,5.6,9.1,5.6,15.1c0,5.7-1.9,10.7-5.5,14.7c-3.7,4-8.3,6.1-13.8,6.1c-5.6,0-10.2-2-14-6.1
				c-3.7-3.9-5.6-9-5.6-15.1c0-5.8,1.9-10.8,5.6-14.8c3.7-3.9,8.4-5.9,13.9-5.9C-27.9,325.8-23.3,327.8-19.6,331.9z"/>
			<path class="st0" d="M93.3,390.4H40.2v38.7l-42.4-48.8l0.1,83.4H18v-37.3l40.2,46.8v-9.5h39.3c10.4,0,18.8-3.4,25.1-10.1
				c6.3-6.7,9.4-15.7,9.4-26.8c0-8.9-2.2-16.4-6.6-22.5c-2.6-3.6-5.5-6.4-9-8.6C110.8,392.2,103,390.4,93.3,390.4z M82.7,406.9h12.7
				c5.8,0,10.2,1.8,13.2,5.3c3.1,3.6,4.6,8.6,4.6,15.1c0,13.2-5.9,19.9-17.9,19.9H82.7V406.9z M58.3,392.6l5.7,6.8v53.8l-5.8,8
				L58.3,392.6z"/>
			<path class="st0" d="M-83.5,391.6l-13.6-0.9h-32.8l6.8,9.3v54.1l-6.8,10h33.4c7,0,12-0.4,15.1-1.3c3.1-0.8,6.2-2.6,9-5
				c2-2,3.7-4.3,4.8-6.6v20.6l39.8-44.9v36.9h20.1l0.1-83.3l-58.3,63.3l0.2-1.9c0-8.6-4.2-14.2-12.2-17c5.7-3.3,8.5-8.2,8.5-14.8
				c0-6.4-2.2-11.6-7-15.1C-78.1,393.3-80.6,392.2-83.5,391.6z M-104.8,407.2h9.6c5.4,0,8,1.8,7.9,5.6c0.1,3.8-2.5,5.7-7.9,5.7h-9.6
				V407.2z M-87.3,441.4c0.1,3.8-2.5,5.7-7.9,5.7h-9.6v-11.3h9.6C-89.8,435.8-87.2,437.6-87.3,441.4z"/>
		</g>
	</g>
</g>
</svg>
