<?xml version="1.0" encoding="utf-8"?>
<!-- Generator: Adobe Illustrator 19.0.0, SVG Export Plug-In . SVG Version: 6.00 Build 0)  -->
<svg version="1.1" id="Layer_1" xmlns="http://www.w3.org/2000/svg" xmlns:xlink="http://www.w3.org/1999/xlink" x="0px" y="0px"
	 viewBox="0 0 2688.9 842.2" style="enable-background:new 0 0 2688.9 842.2;" xml:space="preserve">
<style type="text/css">
	.st0{fill:#FFFFFF;}
</style>
<g>
	<path class="st0" d="M2666.6,565.2c-13.9-20.8-31.6-38.2-50.1-54.8c-8.3-7.4-16.5-15-25.4-23.1c7.6-2.2,12.6-8.5,20.7-6.2
		c15.1,4.2,29.5,0.9,43.1-5.6c27.8-13.2,41.1-51.2,30.3-79.2c-5.9-15.4-16.5-25.8-33-29.9c-17.8-4.4-35.4-2.8-52.9,1.4
		c-12.6,3-25,6.5-36.8,9.6c-4.7-5-8.7-10.6-13.9-14.5c-13.9-10.4-29.9-13.2-46.9-11.1c-15.2,1.9-30.2,5.2-45.5,6.1
		c-41.9,2.5-83.9,3.9-125.7,6.4c-8.6,0.5-12.6-3.5-16.5-9.7c6.9-6.9,10.6-15.3,12.5-24.7c3.8-18.5-6.9-40.6-28.1-44.1
		c-17-2.8-35,6.1-39.7,24.3c-3.4,13.3-2.3,26,3.5,38.4c-15-1.1-25.1,4.4-28.9,15.7c-2.9,8.7-3.7,17.6-2.3,26.6
		c6.5,42,7.9,84.2,5.7,126.6c-1.1,19.8-8.3,36.2-24.4,48.2c-3.7,2.8-8.2,4.5-13.4,7.3c-1.8-14.5-3.9-27.5-4.9-40.5
		c-1.4-19.1-1.8-38.3,4.3-56.9c2.4-7.4,4-15.1,5.7-22.7c3.4-15.5,2.9-30.7-5.7-44.4c-20.7-32.9-64.6-36.5-89.4-5
		c-0.7,0.9-1.6,1.8-1.7,1.9c-6.6-7.5-12.4-15.3-19.4-21.8c-16.6-15.1-37.3-21.6-58.9-25c-30-4.8-60.1-3.5-90.2-0.4
		c-6.7,0.7-13.2,2.3-19.9,3.5c-0.2-1-0.3-1.4-0.4-1.9c-1.3-7.4-2.2-15-9-19.8c-6.4-4.6-13.4-5-20.8-2.5c-1.5,0.5-3.5-0.1-4.5-0.2
		c-1.5-8.9-2.5-17.2-4.4-25.2c-2.5-10.5-9.4-17.3-20.4-18.5c-10.1-1-19,2-24.5,11.1c-2.8,4.6-5.2,9.9-6,15.1
		c-1.9,11.8-3.4,23.7-4,35.7c-2.1,37.6-3.8,75.2-5.4,112.8c-0.5,12.6-0.1,25.2-0.1,37.8c-0.5,0.1-1,0.1-1.5,0.2
		c-0.4-0.6-0.9-1.2-1.3-1.9c-16.6-31.2-32.4-62.7-45-95.7c-4.1-10.7-7.9-21.3-8.3-33.2c-0.5-12.8-6.2-23.6-17.5-31
		c-15.1-10-42.8-9.4-58.5,1.3c-13.2,9-18.4,22.3-20.6,37.3c-0.8,5.2-1.2,10.5-1.8,15.8c-0.6-0.2-0.8-0.2-0.9-0.3
		c-0.6-1-1.2-2-1.8-2.9c-4.6-7.4-10.2-13.6-19.1-15.8c-7-1.7-13.9-3.6-21-4.4c-28-2.9-56-5.3-84-8.1c-2.2-0.2-4.8-1.3-6.4-2.8
		c-11.3-10.4-24.5-15.9-40-15.1c-15,0.8-27.9,6.9-39.7,15.9c-24.4,18.7-33,45.2-23.7,74.5c0.6,1.9,1.3,3.9,1.3,5.8
		c0.4,25.5,0.8,51,0.9,76.5c0,2-1.6,4.7-3.3,5.8c-10.8,7-21.7,13.6-32.7,20.3c-1.5,0.9-3.1,1.6-5,2.6c-0.1-1.6-0.2-2.4-0.2-3.2
		c0.2-29.1,0.3-58.3,0.6-87.4c0-3.6,0.6-7.3,1.5-10.8c4.1-15.4,6.7-30.9,4.1-46.9c-2.3-14.1-6.6-27.3-17.9-37
		c-14.8-12.7-32.2-14.9-50.7-11.6c-13.2,2.3-24.8,7.6-33.2,18.5c-12.9,16.7-15.4,36.1-12.3,56c3.7,23.9,7.1,47.8,6.2,72
		c-0.1,1.5-0.2,3.1-0.3,5c-7.1-4.9-13.7-9.3-20.1-13.7c0.1-0.5,0.1-0.8,0.3-1.1c0.7-1.2,1.4-2.3,2.1-3.4
		c8.8-15.8,13.9-32.5,10.9-50.7c-3.7-22.3-12.3-41.9-32.6-54.3c-15.2-9.2-32.2-12.5-49.6-13.6c-20.8-1.4-41.2,1.4-61.4,6
		c-2.3,0.5-4.9,0.6-7.3,0.1c-22.8-4.2-44.5-3.9-61.8,15.1c-2.7-3-5.2-6.1-8-8.9c-18.8-18.6-42-28.5-67.8-32.2
		c-27.7-4-55-1.3-82.2,5.3c-15.8,3.8-29.8,9.8-39.4,23.2c-4.2,5.7-6.9,12.4-10.4,18.8c-10.1-15.3-26.3-19.7-44.7-20.7
		c30.9-11.9,47.8-33.6,50.5-66.4c0.2,0.1-0.2-0.1,0,0c-0.5-8.7-1.4-17.1-4.4-25.1c-4-10.3-11.5-19-19.6-26.7c0,0,0,0-0.1,0.1
		c-19.6-13.9-41.1-19.1-64.8-13.1c-9.1-20.9-21.6-30.3-38.1-28.6c-16.4,1.7-29.4,12.7-33.1,31.1c-1.7,8.7-0.2,16.7,3,24.4
		c4.1,10,12.1,16.4,22.6,20.6c-3.7,9.8-2.8,19.5-1,29.2c1.2,6.4-0.5,11.4-6.3,14.8c-9.1,5.4-14.8,13.4-16.3,23.9
		c-1,7.2-1.2,14.5-1.7,21.7c-0.5-0.2-1.8-0.6-3-1c-44.5-16.7-88.2-14-130.9,5.9c-15.9,7.4-29.3,18.3-39.8,32.9
		c-17-14-37.1-19.7-57.9-22.1c-25.1-2.9-47,6.5-67,21c-20.7,15-36.4,34.5-50,55.9c-4.2,6.6-8,13.4-11.9,19.9
		c-7.7-4.1-14.9-8.6-22.6-12c-47.3-20.5-97.5-31.3-147.8-41.2c-9.1-1.8-16.5-8.7-17.4-17.9c-1.6-16.7-0.9-33.3,2.6-49.7
		c5.8-27.1,17.7-51.6,33.1-74.3c24.5-36.2,55.8-66.1,90.4-92.5c45.3-34.5,94.4-62.4,148.2-81.3c11.8-4.1,24.5-6,36.8-8.3
		c5.3-1,7.1,0.9,6.7,6.5c-0.5,6.1-1.3,12.3-3.5,18c-10.8,28.3-28.4,52.6-47,76.2c-8.2,10.5-17.3,20.3-25.3,30.9
		c-2.3,3.1-3.8,8.1-3.2,11.9c1.4,10.6,10.7,16,21.1,11.8c5.3-2.2,10.6-3.3,16-4.1c3.2-0.5,6.6-0.1,10.6-0.1c-1.4,3.8-2.4,6.1-3,8.5
		c-2.1,8.5-5.6,16.6-2.9,25.8c3.4,11.7,16.1,16.8,26,9.8c3.4-2.4,6.5-5.2,9.3-8.3c27.2-29.2,50.7-61.3,71.7-95.2
		c17.1-27.7,31.5-56.6,38.9-88.7c9.7-42.3-2.2-74.8-37.9-99c-26.3-17.9-56.2-21.7-87-19.6c-32.3,2.3-63.2,10.9-93.4,22.2
		c-48,18-92.5,42.6-134.8,71.2c-47.8,32.3-92.7,68.1-129.8,112.6c-38.7,46.6-69,98.3-88.3,156C0.4,400.5-5,438.8,5.7,478.4
		c11.9,44.2,38.3,73.4,83.7,83.8c15.4,3.5,31,6.4,46.4,9.9c36.6,8.2,72.8,17.6,107.3,32.8c15.6,6.9,30.9,14.4,42.6,27.2
		c8.2,8.9,8.6,15,0.8,24.1c-15.9,18.4-34.4,33.3-57.2,42.4c-7.3,2.9-14.7,4.1-22.5,3.6c-5.9-0.4-8.5-2.8-8-8.5
		c0.4-4.6,1.4-9.2,3.1-13.5c5.4-14.1,14.3-26.3,23.5-38.2c7.9-10.3,3.8-22.5-8.7-25.5c-3.4-0.8-4.5-2.4-5.2-5.5
		c-2.2-9.8-11.7-16-21.2-12.9c-7.5,2.4-14.4,6.5-21.9,10c-3.5-7.3-11.2-9.3-19.3-10.2c-3.9-0.4-7.9-0.1-11.9-0.2
		c-1.3,0-2.7,0.1-3.8-0.3c-11.8-4.4-18.9-2.4-26.3,8c-17.7,24.8-28.7,52.4-34.7,82.2c-4.9,24.1-4.1,48.1,5.1,70.8
		c17.8,43.8,51.3,69.9,96.8,80.5c27,6.3,54,3,80.7-2.8c41.5-9,77.9-27.8,108.7-57c25-23.7,43.5-52,55.9-84.2
		c1.5-3.8,3.3-5.3,7.4-5.5c11.4-0.8,23-1.4,34.3-3.3c33.7-5.8,66.1-15.6,95.1-34.5c4.5-3,9-6,13.9-9.4c0.5,6.6,0.7,12.5,1.5,18.4
		c1.8,12.8,4.1,25.5,13.1,35.5c14.7,16.3,33.7,19.4,54.3,16.5c14.1-2,25.2-9.3,31.4-22.1c3.6-7.5,5.5-16,6.9-24.3
		c1.1-6.7,0.2-13.7,0.2-20.6l1.5-0.7c4.2,4.2,8.3,8.4,12.5,12.6c5.6,5.7,10.6,12.2,16.9,16.8c10.7,7.7,22.4,14.1,33.6,21.3
		c7,4.5,14.7,7.3,23,7.6c14.2,0.6,22.4-8.9,20.5-20.7c-0.5-3.2-2.1-6.3,2.4-8.1c2.9-1.2,5.5-4.1,8.4-4.4c8.6-0.9,13.9-4.7,16.5-12.7
		c0.5-1.4,2.4-3.1,3.8-3.3c18.7-2.8,35.1-9.4,44.9-26.9c0.1-0.1,0.5,0,0.8,0c0.9,9.7,2.2,19.1,7.7,27.5
		c15.9,24.2,54.1,25.2,74.2,6.4c2.6-2.4,4.8-3.2,8.4-2.5c20.4,3.9,41,4.7,61.7,2.7c8-0.8,15.9-1.9,25-2.9
		c-9.6,10.1-13.1,22-13.5,34.4c-1.2,35,27.7,57.5,60,56.6c23.6-0.6,46.4-6.5,68.9-13.4c43.3-13.4,82.8-33.9,116.6-64.4
		c4.4-3.9,8.1-8.6,12.1-12.9c2.4,24.9,14.9,42.1,34.8,54.2c12.3,7.5,25.7,10.3,40.2,6.8c17.7-4.2,31.7-13.9,42.1-28.4
		c13.1-18.1,29-33.4,45.3-48.5c0.4-0.4,1.1-0.6,1.9-1c1,1.9,1.7,3.5,2.6,5.1c6,11.3,14,20.9,26.4,25.4c12.8,4.7,26.1,7,39.7,5.5
		c36.7-4.2,69.7-17.9,99.3-39.9c14.3-10.6,20.5-24.2,18.5-41.9c-2-17.6-10.1-27.9-27.5-31.5c-7.2-1.5-14.8-1.5-22.3-1.4
		c-5.7,0-11.3,1.2-18.1,2c2.6-1.6,4.4-2.5,5.9-3.7c4.2-3.3,8.9-6.1,12.2-10.1c10.6-12.5,11.5-26.9,7.4-42.4
		c-4.1-15.4-13.7-24.8-28.9-28.5c-8-2-16.3-3.1-24.6-4.6c-0.7-3.4,0.2-5.4,4.4-5.4c8.5-0.2,17-0.5,25.5-1.2
		c23.6-1.9,47.1-4.2,70.7-6.1c11.4-0.9,18.7-7.1,23.2-17.1c0.4-0.9,1-1.6,1.9-3.2c-0.5,34.9-0.6,68.9-1.8,102.8
		c-0.8,21.3-3.3,42.4-4.9,63.7c-0.6,7.8-1.6,15.7-0.8,23.3c4.2,38.1,32.1,55.1,64.7,49.5c25.4-4.3,41.6-18.6,46.4-44.2
		c1.7-9.2,1.8-18.8,2.6-28.2c0.1-1.5,0-3,0-5.5c7.2,12.7,13.5,24.2,20.3,35.5c12.3,20.4,25.4,40.3,43.1,56.7
		c16.6,15.4,35.1,22.7,58,15.9c20.8-6.2,34.4-19,39.5-40.1c1.9-7.8,2.8-15.9,4.2-24.1c1.9,0.5,4,1.1,6,1.7
		c30.4,8.8,61.2,13,92.8,9.6c7.5-0.8,14.7-2.2,22.7-0.3c21.1,5,40.3,0.7,55.7-15.8c0.3-0.3,0.9-0.3,1.3-0.5c0.3,0.3,0.6,0.5,0.8,0.8
		c1.3,1.9,2.6,3.9,4,5.8c10.8,15.2,24.8,26.5,42.5,32.6c32.9,11.3,65.6,7.8,96.3-6.4c39.2-18.2,65.3-49.9,80.7-90
		c12.1-31.6,16-64.8,15.3-98.6c0-2.1,0-4.2,0-6.1h7c0,2.8-0.1,5.2,0,7.7c0.6,24.8,0.7,49.6,2.1,74.4c1.3,23.1,4.5,46.1,6.1,69.2
		c1.5,22.8,1.3,45.6,3.1,68.4c1.6,20.7,5.6,40.9,25.3,53.4c-0.5,0.7-0.7,1.3-1.2,1.8c-11.4,13.3-13.8,28.5-8.3,44.8
		c7,20.5,28.8,28.6,48.5,18.3c14.3-7.5,20.9-28.7,17.1-43c-1.5-5.5-3.4-10.9-5.1-16.3c4.6-2.3,9.4-4.8,14.5-7.3
		c1.1,1.2,2.1,2.4,3.3,3.6c12.1,13,31.9,15.5,45.4,6.1c16.7-11.6,20.4-35.3,8.3-51.4c-7.7-10.2-17.2-18.9-25.7-28.5
		c-1.6-1.8-2.2-4.6-3.6-7.8c12.9,4.3,24.1,8.6,35.6,11.8c28.7,8,57.8,12.8,87.8,8.6c26.1-3.7,47.2-15,60.3-38.5
		c8.2-14.7,12.1-30.6,9.7-47.6C2681.4,592.4,2675.3,578.3,2666.6,565.2z M720.8,253.7c0.1-13.1,9-23.1,20.7-23
		c11.4,0.1,20.9,10.4,20.8,22.5c-0.1,12.6-9.4,23.3-20.6,23.4C730.4,276.8,720.7,266.2,720.8,253.7z M733.6,347.5
		c10.4-6.2,14-16.4,12.3-27.8c-4.7-31,11-56.7,40.1-61.9c33.7-6,70.3,17.5,62.4,60.6c-5.6,30.5-40.4,53.9-73.8,37.4
		c-3.3-1.6-6.4-3.4-11-5.7c-0.8,4.7-1.6,8.6-2.1,12.5c-0.5,3.6-0.5,7.3-0.9,10.9c-1.6,12.9-16,21.1-27.9,15.9
		c-6.8-3-10.1-8.9-10.6-15.8C721.3,363.1,723.3,353.6,733.6,347.5z M790.5,377.1c-5.6,3.5-11,6.9-16.8,10.5c1.1-4.5,2.1-9,3.2-13.7
		C781.7,375.1,786.1,376.1,790.5,377.1z M756.2,424.3c-4.4-5.8-8.7-11.4-13-17c7.5-2.7,14.7-5.2,21.2-7.6
		C761.9,407.1,759.1,415.5,756.2,424.3z M762.5,573.2c-5.5-3.8-10.3-7.2-15.4-10.7c4.4-8.7,8.6-16.9,13.5-26.4
		C761.3,548.9,761.8,560.5,762.5,573.2z M120.7,790c0.2-0.4,0.4-0.7,0.5-1.1c0.1,0.4,0.3,0.7,0.4,1.1L120.7,790z M852.4,598.7
		c-0.6,30.8-24.8,42.1-48.8,37.8c-4.4-0.8-8.4-3.8-12.5-5.8c2.2,6.9,4.5,14.2,6.8,21.4l-1.6,1.1c-3.4-2.8-6.8-5.6-10.5-8.7
		c0,2.7,0.4,4.9-0.1,6.9c-2.3,9.4-10.6,13.5-18.8,8.3c-7.8-5-14.5-11.5-21.7-17.5c-1.2-1-1.9-2.7-3.3-3.2c1.2,6,2.2,12.1,3.6,18.1
		c0.4,1.6,1.6,3.2,2.8,4.4c6.1,6.3,12.4,12.5,18.5,18.9c1.2,1.3,1.5,3.5,2.2,5.2c-1.9,0.4-4,1.5-5.5,1c-5.5-2.1-11.1-4.4-16.2-7.3
		c-9.1-5.2-18-10.6-26.6-16.5c-5.1-3.6-10-7.9-13.8-12.8c-12.1-15.7-28.3-25-46.4-31.7c-0.7-0.3-1.6-0.3-3.1-0.6
		c1.3,7.4,2.6,14.3,3.7,21.3c1.9,12.3,1.9,24.5-1.8,36.6c-4,13.2-13.2,20.7-26.9,21.2c-5,0.2-10.1,0.2-14.9-0.6
		c-16.6-2.9-27.2-12.4-29.4-36.3c-1.5-16.6-1.5-33.3-2.2-49.9c-0.1-1.4-0.2-2.9-0.4-5c-1.3,0.9-2.1,1.3-2.7,1.9
		c-23.7,28.2-54.8,44.4-89.3,55c-25.3,7.7-51.2,11.9-77.8,10.7c-4.3-0.2-6.1,1.4-7.4,5.3c-8.3,24.7-20.1,47.6-36.7,67.7
		c-4.9,5.9-11.1,10.7-16.8,15.9l-0.1-0.1c-0.4,0.5-0.8,1.1-1.1,1.6c-0.3,0.2-0.6,0.4-0.9,0.6c-1.5,0.7-3,1.5-4.6,2.2
		c-0.1,0.8-0.1,1.6-0.2,2.5l-0.1-0.2c-0.4,0-0.8,0-1.2,0c0,0,0.2,0.1,0.2,0.1c-0.9,1.1-1.9,2.2-2.8,3.4l-0.1-0.2
		c-0.4,0.5-0.7,1-1.1,1.5c-0.3,0.3-0.7,0.7-1,1c-0.5,0.4-1,0.8-1.6,1.2l0.2,0.1c-0.4,0.8-0.8,1.6-1.3,2.4c0,0,0-0.1,0-0.1
		c-1.7,0.3-3.3,0.5-5,0.8l0.2-0.1c-0.5-0.6-1.1-1.2-1.6-1.8c-3.4,2.1-6.8,4.4-10.3,6.3c-4.3,2.4-8.7,4.5-12.9,6.8
		c-21.4,11.7-44.2,19.5-68.3,22.7c-15.4,2-31.1,2.6-46.6,2.1c-20.7-0.6-39.4-8.3-56.1-20.5c-5.1-3.7-10.2-7.5-15.7-10.8
		c-2.2-1.3-5.2-1.5-7.8-2.1c0-0.1-0.1-0.2-0.2-0.3c-3,0.6-4.8-0.5-3.6-3.6c1.4-3.7,0.3-6-2.8-7.8c-0.2,0.3-0.5,0.6-0.7,0.9
		c-0.5,0.4-1.1,0.8-1.6,1.1l0.1,0.1c-0.8-0.4-1.6-0.8-2.4-1.2c-0.6,0-1.1,0-1.7,0l-0.1-0.2c0.9-1,1.8-1.9,2.7-2.9
		c-0.7-1-1.4-2.1-2.1-3.1l-3.9,0.7c0-0.7,0-1.4,0-2.1l-0.1,0.2c0.1-0.6,0.1-1.1,0.2-1.7c-0.5,0.1-1,0.3-1.5,0.4
		c-0.6-1-1.3-1.9-1.9-2.9c0-1.1,0-2.2,0-3.3l0,0.1c-0.2-0.1-0.3-0.2-0.5-0.3c-6.5-10.1-8.2-21.7-8.5-33.2
		c-1.2-39.5,11.5-74.9,33.6-107.3c1-1.5,2.9-2.5,4.4-3.8c1.4,1.8,2.8,3.7,4.4,5.8c6.3-3.6,13.6-4.2,21.2-2.9
		c4.3,0.7,6.6,3.1,5.8,7.1c-1.3,7.1-3.4,14.2-5.2,21.2c-0.4,1.4-1,2.7-2,5.3c9-7.7,16.8-14.7,25-21.4c5-4.1,10.5-7.7,15.9-11.2
		c1.6-1,4-0.8,6-1.1c0.4,2.3,1.6,5,0.9,7c-3,8.8-6.6,17.4-10,26.1c-0.5,1.2-1.1,2.4-1,4.3c8.7-6.5,17.4-13,26.1-19.5l1.2,1.3
		c-1.1,1.5-2.2,3-3.3,4.5c-10,13.2-19.3,26.8-24.1,42.9c-1.2,4.1-2.1,8.4-2.4,12.7c-0.8,14.3,8.2,24.2,22.5,25.3
		c9.8,0.8,19.3-0.9,28.4-4.4c26.8-10.3,48.8-27.3,66.4-49.8c11.8-15,10.7-28-2.1-42.2c-12.9-14.4-29.5-23.2-46.8-30.9
		c-35.6-15.8-73.2-25.4-111.1-33.9c-16.4-3.7-33-6.4-49.3-10.5c-38.2-9.6-60.5-35.2-70.1-72.5c-8.4-32.5-5.5-64.6,4.1-96.6
		c15.7-52.5,42.1-99.4,74.4-143.3c25.2-34.2,56.1-62.8,89.1-89.3C240.4,103,296.6,68.2,358.2,42.5c28.8-12,58.5-21.4,89.6-25.2
		c28.1-3.4,56.1-3,81.9,10.8c19.6,10.5,34.7,25.5,40.4,47.7c4.2,16.4,1.6,32.8-3.2,48.8c-6.5,21.7-16.1,42-27.3,61.5
		c-21.8,37.8-47.2,73-76.8,105.1c-2.4,2.6-5.1,5-7.7,7.4c-0.7-0.2-1.3-0.5-2-0.7c0.4-3.8,0.4-7.6,1.4-11.2
		c3.5-13.2,9.8-25.1,17.3-36.4c1.1-1.6,2.2-3.3,3.9-6c-10.6,3.7-19.9,8.4-30.6,7.5c-0.3-2.4-0.5-4.3-0.8-6.8
		c-5.2,2.4-9.9,4.6-15.1,7c-0.6-1.6-1.2-3-1.9-4.8c-3.9,2.5-7.7,4.8-11.5,7.2l-0.7-0.7c1.2-1.4,2.4-2.8,3.6-4.2
		c20.6-24.7,40.4-50,56.3-78.1c7.2-12.8,13.4-26.1,16.1-40.7c0.6-3.2,0.9-6.7,0.6-9.9c-0.9-10.9-6.6-22-22.7-20.9
		c-18.3,1.2-35.7,6.5-52.6,13.2c-75.4,29.6-142.5,72.3-199,130.6c-29.7,30.7-54,65-67.1,106.4c-7.3,23.2-10.2,46.8-8.4,71
		c1.1,16,12.4,31.6,33.8,35.3c49,8.5,97.6,19.6,143.1,40.6c11.3,5.3,21.5,13,32.6,19.9c0.6-1.3,1.9-3.7,3.2-6.2
		c12.2-24.6,26.5-47.8,46.3-67.1c15.3-14.9,32.4-26.7,53.8-30.8c19.2-3.7,37,1.6,54.1,9.5c11.6,5.3,21.2,13.1,27.2,25.1
		c7.6-26.1,26.4-40.8,49.7-50.6c37.2-15.6,75.2-17.4,112.7-1.7c31.5,13.2,51.1,37.3,56.9,71.3c3.6,21.4-1,42.3-9.7,61.9
		c-5.7,12.9-13.4,24.8-20.3,37.2c-0.6,1.1-1.3,2.2-2.2,3.7c26.4,8.9,43.7,28.3,60.3,49.6c-1.3-6.5-3-12.3-3.4-18.2
		c-1-13.9-1.2-27.9-2.1-41.9c-2.1-35.1-4.4-70.1-6.6-105.2c-0.9-13.9,0.3-27.6,5.1-40.8c5.6-15.1,19.3-23.5,35.3-22
		c4.1,0.4,8.4,0.1,12.5,0.6c17.8,2.5,29.5,15.4,29.4,33.5C853.5,482.8,853.5,540.8,852.4,598.7z M870,521.4
		c-0.2,4.1-0.4,8.3-0.6,12.4c-0.2,0-0.4,0-0.6,0v-98c3.3,2.7,5.3,5.2,5.1,9.3C872.5,470.5,871.3,495.9,870,521.4z M1647.3,440.1
		c-1.9,4.1-4.7,6.5-9.5,6.8c-33,2.4-66.1,4.9-99.1,7.3c-11.6,0.8-11.8,0.5-14.2,11.9c-1.7,8.1-2.8,16.3-4.3,25.1
		c5.9,0.3,10.9,0.2,15.8,0.8c7.9,0.8,15.9,1.4,23.7,3.1c10.7,2.4,16.5,9.8,18.4,20.6c1.9,10.5,0.4,20-7.9,27.4
		c-9.3,8.3-21.2,10.8-32.8,13.7c-7.3,1.8-14.5,3.6-21.8,5.4c-2.7,0.7-4.1,2.1-3.9,5.3c0.6,7.6,0.9,15.2,1.4,23.3
		c14.9-2.8,29.2-5.8,43.6-8.2c11-1.9,22-3.3,33.1-4.4c4.4-0.4,9,0.1,13.4,0.8c9.8,1.6,14.4,7.5,15.6,17.3
		c1.6,12.5-2.9,21.6-12.9,28.7c-29.6,21.1-61.7,35.5-98.7,36.5c-5.9,0.2-11.9-1-17.8-2.3c-11.1-2.5-19.2-9.1-23.9-19.4
		c-3.3-7.2-5.9-14.8-8.7-22.3c-0.7-1.8-1.3-3.6-1.9-5.6c-1,0.5-1.5,0.5-1.8,0.9c-19.3,19.6-38.7,39-57.8,58.8
		c-4.8,5-8.6,11-13.2,16.3c-5.7,6.5-13,10.9-21,14c-16.9,6.5-35.4,0.7-48.9-15.4c-7.2-8.6-11-18.2-10.6-29.8
		c0.7-20.6,0.5-41.3,0.6-62c0-0.4-0.2-0.8-0.4-1.3c-2.6,7.1-4.7,14.3-7.7,21c-12,26.7-32.3,46.3-55.8,62.8
		c-38.7,27.2-81.7,44.5-128.2,52.9c-12.2,2.2-24.7,4.5-37.2,1.6c-18.5-4.4-31.6-19.5-30.9-36.8c0.9-22.8,11.4-35.5,36.5-35
		c4.5,0.1,8.9,0.8,14.5,1.3c0.6-15,1.3-30.1,2-46.2c-2.1,1.3-3.2,1.9-4.2,2.7c-19.1,15.5-41.5,22.8-65.5,26.1
		c-25.1,3.4-50.1,2.6-75-2c-0.7-0.1-1.4-0.1-2-0.4c-5.7-2.7-9-1.2-12.6,4.5c-7,11-25.8,15-39.5,9.7c-12.6-4.9-18.7-17.1-17.3-32.7
		c1.9-21.2,3.4-42.5,4.8-63.7c2-31.6,3.8-63.2,5.5-94.8c0.5-8.5,0.6-17,0.6-25.5c0-1.8-1.1-3.7-2.1-5.3c-2.9-4.8-6.5-9.3-8.9-14.4
		c-9.6-20.9,4.2-40.8,22.6-47.1c24.1-8.2,49.3-11.6,74.8-10c27.9,1.8,53.4,10,73.3,30.7c14.9,15.5,22.3,33.8,18.9,55.5
		c-1.8,11.4-7.6,20.5-17.6,26.6c-0.8,0.5-1.5,1.2-2.8,2.3c14.6,6.2,27.3,14.2,38.2,26.7c0.3-2.3,0.6-3.5,0.5-4.7
		c-1-13.1-1.6-26.3-3.4-39.3c-0.8-5.8-3.8-11.2-5.8-16.8c-5.4-15-5.6-29.9,2.9-43.7c5-8.1,13.8-11.1,22.9-11.3
		c8.6-0.1,17.2,1.3,25.8,1.8c2.9,0.2,6,0.4,8.7-0.2c20.9-4.9,42-7.8,63.4-5.6c10.1,1.1,20.3,3.6,30,6.8
		c25.8,8.6,40.3,44.3,31.6,71.3c-3.7,11.5-10,21.3-17.2,30.8c-1.2,1.6-2.3,3.1-4,5.4c17.1,5.7,32,13.6,43.4,27.2
		c11.5,13.8,15.9,30,16.6,47.5c0-8.3-0.2-16.5,0.1-24.8c0.5-13.5,1.4-26.9,2-40.4c1-26.9-1.7-53.5-6.1-80
		c-1.6-9.7-0.7-20.4,1.3-30.2c3.8-18.5,17.2-28.9,36.3-29.7c4.6-0.2,9.4-0.3,13.9,0.4c16.5,2.7,27.1,13.5,30.4,31.4
		c2.9,15.7,1.6,31.1-3.4,46.3c-1.6,4.8-1.6,10.2-1.6,15.3c-0.1,21.3,0.5,42.6,0.1,64c-0.2,13.8-1.6,27.6-2.4,41.4
		c-0.2,3.3-0.3,6.5-0.6,11.3c11.8-6.4,22.8-12,33.3-18.2c12.6-7.5,24.8-15.6,37.3-23.3c3-1.9,4.6-4.1,4.5-7.7
		c-0.4-29.2-0.6-58.3-1.1-87.5c0-1.7-0.9-3.5-1.6-5.2c-7.2-19.9-4.3-37.8,10.8-52.9c10.3-10.3,22.3-18,37.5-18.8
		c12.5-0.6,22.9,4,30.4,14c1.9,2.5,3.6,3.6,6.7,3.9c24.1,1.7,48.2,3.4,72.2,5.6c10.7,1,21.4,2.9,32,5c10.6,2.1,16,8.2,17.7,18.9
		C1653.2,421.8,1651.3,431.1,1647.3,440.1z M2095.4,628.2c-9.6,5-20,6.6-30.1,3.6c-9.2-2.7-17.9-1.6-27-0.7
		c-44.4,4.3-87.3-1.6-128.2-19.9c2.2,7.7,5.3,15.4,6.4,23.5c1.2,9.3,1.4,18.9,0.7,28.2c-0.7,9.3-7.3,15.2-15.4,18.8
		c-16.9,7.5-33.1,7.4-48.3-4.9c-16.5-13.4-29.1-30.1-40.9-47.6c-23.3-34.7-42.3-71.7-59.9-109.5c-1-2.1-1.9-4.1-3.9-6
		c1.8,31,3.8,61.9,5.4,92.9c0.4,7.9,0,16-0.9,23.9c-0.9,8.7-7.1,14.1-14.1,18.4c-16.4,10-40.1,8.3-52-4.3
		c-10.1-10.7-12.4-24.1-11.2-38.1c1.2-13.2,3.5-26.4,4.7-39.6c1-10.9,1.4-21.9,1.6-32.9c0.5-39,0.7-78,1.3-117
		c0.2-13,1.2-25.9,1.6-38.9c0.4-11.3,6.6-18.2,16.5-22.2c9.2-3.8,18.9-4,28.5-1.4c10.1,2.7,16.7,9.8,17,19.9
		c0.8,20.9,9.1,39.5,17,58.1c19,44.8,41.7,87.8,66.9,129.5c1.9,3.1,4.3,5.8,7.4,9.9c0-3.2,0-4.9,0-6.7c0.1-36.3,0.1-72.6,0.4-109
		c0.2-18.2,0.5-36.3,1.6-54.4c1.6-26.2,3.9-52.4,5.9-78.6c0.2-2.5,0.9-4.9,1.4-7.3c1-4.2,3.4-6.7,8-7c4.7-0.3,7.6,2.2,8.5,6.2
		c1.4,6.3,2.5,12.7,2.8,19.2c0.4,7.8-0.3,15.6-0.4,23.5c0,3.3-1.1,7.1,4,8c0.9,0.2,1.5,2,2.2,3.1c1.9-3.7,3.4-7.6,5.6-11
		c4.2-6.3,7.7-6.4,12.5-0.7c0.5,0.6,1.1,1.2,2,2.2c0.5-1.9,0.6-3.4,1.3-4.6c0.7-1.3,2.3-3.6,2.8-3.4c1.7,0.6,3.2,1.9,4.4,3.3
		c0.7,0.8,0.9,2.2,0.9,3.3c-0.4,14.4-0.9,28.8-1.4,43.2c0.5-0.6,1.3-1.1,1.5-1.7c4.8-17.2,17.3-24.3,33.9-25.1
		c25.1-1.2,50.2-2.2,75.4-2c18.6,0.1,36.6,4.9,53.1,14c21.9,12,32.7,30.9,34.8,55.4c1.5,17.6-1.6,34.8-3.4,52.2
		c-2.3,22.3-5.4,44.7-2.7,67.3c0.6,4.8,2.8,9.5,4.3,14.2c3.1,10,6.9,19.8,9.1,30C2109.4,616.5,2105.5,622.9,2095.4,628.2z
		 M2432.8,791.7c-2.8,2-6.6,2.7-10,3.9c-8.3-0.7-15.2-7.2-17-16.4c-2.1-10.7,4.3-18.4,15.3-18.3c5.7,0,10.3,2.7,12.6,7.5
		c2.3,4.8,3.9,10.3,4.2,15.6C2438.1,786.5,2435.2,789.9,2432.8,791.7z M2644.4,656.8c-13,8.6-28,10.5-43.1,10.9
		c-38.9,1-76.2-6.7-111.6-22.8c-6.4-2.9-12.3-7.1-17.6-10.2c0.9,12.9,2.7,26.6,2.5,40.3c-0.1,8.1,2.7,13.4,8.1,18.7
		c7,6.9,13.8,14,20.4,21.3c2.2,2.4,4.2,5.2,5.6,8.2c4,8.7,1.5,13.6-9.3,15.7c-8.7,1.7-16-2.3-20.2-9.9c-2.5-4.5-3.5-10-4.5-15.1
		c-0.6-3.2-0.1-6.6-0.1-10.5c-3.4,5.4-6,10.6-9.5,15.1c-16.2,21.2-52.5,20.5-65.9-1.3c-5.4-8.7-6.9-18.8-7.5-28.8
		c-1-16.3-1-32.6-2.2-48.9c-1.8-25.6-3.8-51.1-6.3-76.6c-3-30.6-4.6-61.1-3.1-91.8c0.3-6,0-11.9,0-18.2h-42.8
		c0,16.5,0.3,32.4-0.1,48.3c-0.5,22.4-2.2,44.8-10.1,65.9c-15.1,40.7-42,71-83.3,86.2c-18.9,7-38.9,8.8-59.1,5.3
		c-26.8-4.7-45.5-20.1-57.5-44.1c-9.7-19.4-13.8-40.2-16-61.5c-3.1-30.8-0.2-61.6,1.5-92.3c0.5-9.5,0.7-19,1.3-28.4
		c1.1-16.4,10.7-26.6,25.1-32.4c14.1-5.8,26.8-1.7,38,7.9c12.4,10.7,14.2,24.7,11.6,39.7c-1.2,7-2.7,14.1-5,20.9
		c-8.3,24.6-7.9,49.8-5.1,75.2c1.2,10.6,3,21.1,4.6,31.6c1.6,10.7,7.7,15,18.3,12.7c16.4-3.6,28.2-14,37.3-27.4
		c9.9-14.5,14.3-31.1,16.1-48.3c3.7-34.8,1.7-69.5-1.2-104.3c-0.9-10.9-2.8-21.8-4.2-32.7c-1-7.5,0.2-10.3,5-11
		c6.1-0.8,12.1,3.4,12.5,9.4c0.4,6-0.2,12-0.4,17.9c-0.1,2-0.4,3.9-0.6,6.7c1.9-1,3.1-1.6,4.4-2.3c7.5-3.8,14-0.6,14.9,7.7
		c0.8,6.9,0.9,13.9,2,21c1.6-10.3,3.9-20.5,4.5-30.9c1-16.7,0.8-33.6,1.2-50.3c0.1-4-0.9-6.6-5.3-8.3c-9.4-3.8-14.8-15.9-11.3-25.5
		c1-2.9,4.3-5.7,7.2-7c7.2-3.1,14.5-2.3,20.6,3c5.9,5.1,8.2,12.2,6.4,19.4c-0.9,3.6-5.3,6.4-8,9.5c-1.1,1.3-2.9,2.6-2.9,4
		c-0.2,3.8,0.7,7.3-4.1,9.5c-1.1,0.5-1.1,6.6,0.4,8.7c5.7,7.9,12.2,15.3,18.5,22.7c0.7,0.8,2.8,0.7,4.2,0.7
		c30.1-1.1,60.3-2,90.4-3.5c22.1-1.1,44.2-2.8,66.3-4.6c6.8-0.5,13.5-1.8,20.2-3.3c11.3-2.5,22.5-2.5,33.5,1.5
		c11.9,4.3,19.4,12.5,21.3,25.4c0.1,0.9,0.5,1.8,0.9,3.3c7.6-2.7,14.9-5.5,22.3-7.9c18.1-6,36.4-10.9,55.6-11
		c4.8,0,9.7,0.2,14.4,0.8c20.9,2.5,30,21.6,29.3,38.5c-0.7,18.1-15.5,29.9-29.4,33.9c-10.6,3.1-21.3,3.3-31.9-0.8
		c-1.2-0.5-3.1-0.7-4.2-0.1c-11.3,6-22.8,11.8-33.6,18.6c-10.5,6.6-10.7,7.6-3,16.9c7.6,9.2,16.2,17.7,24.9,25.8
		c17.5,16.2,35.6,31.7,50.2,50.8c10.1,13.2,18.5,27.2,21.4,44C2671.3,629.9,2661.8,645.3,2644.4,656.8z"/>
	<path class="st0" d="M98.2,756c0.3,0.3,0.5,0.6,0.8,0.9c0.2,1.1,0.3,2.1,0.5,3.2c0,0,0.1-0.2,0.1-0.2c-0.4,0.4-0.8,0.7-1.1,1.1
		c0,0,0.1-0.1,0.1-0.1c-0.5,0.2-1.1,0.3-1.6,0.5c0,0,0.1,0,0.1,0c-0.6-1-1.3-1.9-1.9-2.9c0.1,0,0.3,0,0.4,0.1c-0.1,0-0.3,0-0.4,0.1
		c0-1.2,0-2.3,0-3.5c0.5,0.3,1,0.6,1.4,0.9c0,0-0.2-0.1-0.2-0.1C97.1,756,97.7,756,98.2,756z"/>
	<path class="st0" d="M337.2,774c0.1-0.1,0.2-0.3,0.3-0.4c0.7,0.2,1.4,0.4,2.1,0.5l-0.1-0.1c0.2,0.4,0.5,0.8,0.7,1.2
		c-0.4,0.8-0.8,1.6-1.3,2.4c-0.1,0-0.2,0-0.4-0.1c0.1,0,0.3,0,0.4-0.1c-1.7,0.3-3.3,0.5-5,0.8c0.9-0.7,1.7-1.4,2.6-2.1
		c0-0.4,0-0.8,0-1.2C336.8,774.6,337,774.3,337.2,774z"/>
	<path class="st0" d="M104.6,766.9c0,0,0.2,0,0.4,0c0.5,0.7,1.1,1.5,1.6,2.2c0,0-0.1-0.2-0.1-0.2c0,0.4,0,0.8,0,1.1
		c0,0,0.2-0.1,0.2-0.1c-0.2,0.4-0.4,0.9-0.6,1.3c-0.8-0.4-1.7-0.8-2.5-1.2c-0.1-0.4-0.2-0.8-0.3-1.3c-0.5,0.3-1,0.7-1.4,1
		C102.8,768.9,103.7,767.9,104.6,766.9z"/>
	<path class="st0" d="M336.5,776.1c-0.9,0.7-1.7,1.4-2.6,2.1c0,0,0.2-0.1,0.2-0.1c-0.5-0.5-1.1-0.9-1.6-1.4c1.6-0.9,3.1-1.9,4.7-2.8
		c-0.2,0.3-0.5,0.6-0.7,1l0.1,0c0,0.4,0,0.8,0,1.2L336.5,776.1z"/>
	<path class="st0" d="M99.8,761.9c0.4,0,0.8,0.1,1.2,0.1c0.6,0.6,1.1,1.1,1.7,1.7c0,0-0.2,0.1-0.2,0.1c-1.4,0.3-2.7,0.5-4.1,0.8
		c0.4-0.2,0.9-0.4,1.3-0.5c0,0-0.1,0.2-0.1,0.2c0-0.4,0-0.8,0-1.2l0.1,0.2c0-0.4,0-0.8,0-1.2L99.8,761.9z"/>
	<path class="st0" d="M101.9,769.8c0.5-0.3,1-0.7,1.4-1c0.1,0.4,0.2,0.8,0.3,1.3c0,0,0.1,0,0.1,0c-0.6,0-1.2,0-1.7,0L101.9,769.8z"
		/>
	<path class="st0" d="M332.6,776.8c0.5,0.5,1.1,0.9,1.6,1.4c-0.5-0.6-1.1-1.2-1.6-1.8C332.6,776.4,332.6,776.8,332.6,776.8z"/>
	<path class="st0" d="M114.9,780.8c0-0.1-0.1-0.3-0.3-0.4c0,0-0.1-0.3-0.1-0.3c0.8-0.2,1.5-0.4,2.3-0.6
		C116.2,779.9,115.5,780.4,114.9,780.8z"/>
	<path class="st0" d="M121.1,788.7c0.2,0.5,0.3,1,0.5,1.5C121.5,789.7,121.3,789.2,121.1,788.7z"/>
	<path class="st0" d="M99.7,764c-0.4,0.2-0.9,0.4-1.3,0.5c0,0,0.1,0.1,0.1,0.1C99,764.4,99.3,764.2,99.7,764z"/>
	<path class="st0" d="M97.2,761.4c0,0-0.1,0-0.1,0C97,761.4,97.2,761.4,97.2,761.4z"/>
	<path class="st0" d="M348.2,766c0,0-0.1-0.1-0.1-0.1c-0.1,0.8-0.1,1.6-0.2,2.5c-0.1-0.4-0.2-0.8-0.4-1.3
		C347.7,766.7,348,766.3,348.2,766z"/>
	<path class="st0" d="M352.6,763.7c0,0-0.1,0-0.1,0c0.4-0.2,0.8-0.4,1.2-0.5l-0.1,0C353.2,763.3,352.9,763.5,352.6,763.7z"/>
	<path class="st0" d="M346.7,768.3c0-0.4-0.1-0.8-0.1-1.2c0,0,0-0.1,0-0.1c0,0.4,0,0.8,0,1.1c0,0,0,0.1,0,0.1L346.7,768.3z"/>
	<path class="st0" d="M347.5,767.1c0.1,0.4,0.2,0.8,0.4,1.3c0,0-0.1-0.2-0.1-0.2s0-0.1,0-0.1c0-0.4,0-0.8,0-1.1
		C347.7,767,347.5,767.1,347.5,767.1z"/>
	<path class="st0" d="M95.3,758.6c0.1,0,0.3,0,0.4-0.1c-0.1,0-0.3,0-0.4-0.1C95.3,758.5,95.3,758.6,95.3,758.6z"/>
	<path class="st0" d="M347.7,768.2c-0.4,0-0.8,0-1.2,0c0,0,0-0.1,0-0.1C346.9,768.1,347.3,768.1,347.7,768.2L347.7,768.2z"/>
	<path class="st0" d="M102,770.1c0.6,0,1.2,0,1.7,0C103.2,770.1,102.6,770.1,102,770.1z"/>
	<path class="st0" d="M108.2,769C108.2,769,108.3,769.1,108.2,769c-0.1,0.4-0.4,0.7-0.6,1c0,0,0.1,0.1,0.1,0.1
		C107.8,769.7,108,769.4,108.2,769z"/>
	<path class="st0" d="M106.1,771.3c0.2-0.4,0.4-0.9,0.6-1.3c-0.2,0.4-0.5,0.8-0.7,1.1C106,771.1,106.1,771.3,106.1,771.3z"/>
	<path class="st0" d="M106,771.1c0.2-0.4,0.5-0.8,0.7-1.1c0,0-0.2,0.1-0.2,0.1c0.4,0,0.7,0,1.1,0c0,0-0.1-0.1-0.1-0.1
		C107.1,770.4,106.6,770.7,106,771.1z"/>
	<path class="st0" d="M96.7,756.1c-0.5-0.3-1-0.6-1.4-0.9c0,0,0,0.1-0.1,0.1C95.7,755.5,96.2,755.8,96.7,756.1z"/>
	<path class="st0" d="M343.8,771.7c0,0-0.1-0.2-0.1-0.2c-0.4,0.2-0.7,0.4-1.1,0.6c-0.7-0.4-1.5-0.7-2.2-1.1
		C341.6,771.2,342.7,771.4,343.8,771.7z"/>
	<path class="st0" d="M342.6,772.1c0.4-0.2,0.7-0.4,1.1-0.6c-0.4,0.5-0.7,1-1.1,1.5c0,0,0.1,0.1,0.1,0.1c0-0.4,0-0.7,0-1.1
		L342.6,772.1z"/>
	<path class="st0" d="M94.8,755.1c0,0-0.2-0.3-0.2-0.3C94.6,754.9,94.8,755.1,94.8,755.1z"/>
	<path class="st0" d="M99.7,761.6c0,0,0.2,0.3,0.2,0.3c0,0-0.2,0.1-0.2,0.1c-0.4,0.2-0.8,0.5-1.2,0.7c0.1-0.6,0.1-1.1,0.2-1.7
		c0,0-0.1,0.1-0.1,0.1C98.9,761.3,99.3,761.4,99.7,761.6z"/>
	<path class="st0" d="M342.6,772.9c-0.3,0.3-0.7,0.7-1,1c0,0,0.1,0.1,0.1,0.1c0.3-0.3,0.7-0.7,1-1L342.6,772.9z"/>
	<path class="st0" d="M340.2,775.2c-0.2-0.4-0.5-0.8-0.7-1.2c0.4,0,0.8,0,1.1,0c-0.2,0.4-0.4,0.8-0.6,1.2L340.2,775.2z"/>
	<path class="st0" d="M340,775.1c0.2-0.4,0.4-0.8,0.6-1.2l-0.1,0.1c0.4,0,0.7,0,1.1,0c0,0-0.1-0.1-0.1-0.1
		C341.1,774.4,340.6,774.7,340,775.1z"/>
	<path class="st0" d="M98.5,762.6c0.4-0.2,0.8-0.5,1.2-0.7c0,0.4,0,0.8,0,1.2c-0.4-0.2-0.8-0.4-1.1-0.7
		C98.6,762.5,98.5,762.6,98.5,762.6z"/>
	<path class="st0" d="M353.5,762.1c0.4-0.2,0.8-0.4,1.2-0.5c0,0-0.1-0.1-0.1-0.1C354.3,761.7,353.9,761.9,353.5,762.1z"/>
	<path class="st0" d="M339,777.5c-0.1,0-0.3,0-0.4,0.1c0.1,0,0.2,0,0.4,0.1C339,777.6,339,777.5,339,777.5z"/>
	<path class="st0" d="M114.8,780.4c-0.3-1.1-0.6-2.1-0.9-3.2c0.2,1,0.4,1.9,0.7,2.9c0,0,0.1,0.3,0.1,0.3S114.8,780.4,114.8,780.4z"
		/>
	<path class="st0" d="M353.5,762.1c0.4-0.2,0.8-0.4,1.2-0.7c-0.4,0.5-0.8,1.1-1.1,1.6c0,0,0.1,0,0.1,0c0-0.4,0-0.8,0-1.2
		L353.5,762.1z"/>
	<path class="st0" d="M120.6,790.2c0.2-0.5,0.5-1,0.7-1.4C121.1,789.2,120.8,789.7,120.6,790.2z"/>
	<path class="st0" d="M120.6,790.2c0.2-0.5,0.5-1,0.7-1.4c0,0-0.2,0-0.2,0c0.2,0.5,0.3,1,0.5,1.5c0,0,0.1-0.2,0.1-0.2
		c-0.4,0-0.8,0-1.2,0L120.6,790.2z"/>
	<path class="st0" d="M98.6,762.5c0.4,0.2,0.8,0.4,1.1,0.7c0,0-0.1-0.2-0.1-0.2c0,0.4,0,0.8,0,1.2c0,0,0.1-0.2,0.1-0.2
		c-0.4,0.2-0.8,0.4-1.2,0.7C98.6,763.9,98.6,763.2,98.6,762.5z"/>
	<path class="st0" d="M120.5,790c0.4,0,0.8,0,1.2,0C121.3,790,120.9,790,120.5,790z"/>
	<path class="st0" d="M577.6,554.3c-8.3-6.1-16.2-9-25.1-9.6c-11.6-0.7-20.7,3-28.8,11.7c-19.3,20.8-43,34.4-71,39.9
		c-4.3,0.8-9,0.4-13.4-0.2c-7.1-1-11.5-5.4-13.7-12.2c-6.2-18.9-3.7-36.5,8.1-52.5c4.7-6.4,10-12.5,15.4-18.3
		c6.3-6.7,11.8-7.4,20.2-3.6c12.2,5.5,24.9,8.6,38.3,5.6c19.2-4.4,31.1-17.9,33.5-38.3c6.1,10,15.1,11.9,25.3,11
		c1-0.1,2.9,2,3.1,3.3c2.6,17.8,5,35.6,7.3,53.4C577.2,547.3,577.3,550.2,577.6,554.3z M559.3,529.5c-1-7.4-1.7-14.3-2.9-21.1
		c-0.3-1.9-1.6-4.3-3.2-5.3c-3-1.9-4.2,1.2-5.6,3.1c-11.3,16.4-27.3,24.4-46.7,25.9c-12.7,1-24.7-2.6-36.4-7.3
		c-2.7-1.1-4.2-0.7-5.9,1.5c-3.1,3.9-6.4,7.6-9.7,11.4c-8.8,10.3-12.8,22-10.2,35.6c1.3,7,2.3,8.1,9.5,7.7c3.1-0.2,6.3-0.6,9.3-1.5
		c17.3-5.5,33.1-13.9,46.9-25.9c5.1-4.5,9.3-10,14.5-14.4C530.3,529.8,544,528,559.3,529.5z"/>
	<path class="st0" d="M642.3,532.7c0-25,0-48.7,0-72.5c0-2.8,1.1-3.8,3.7-4.1c13.8-1.9,26.8,3.6,32.8,14.2c8,14.1,7.1,27.8-2.7,39.4
		C667.2,520,655.8,526.6,642.3,532.7z M658.4,504.9c6.3-5.4,11-10.1,9.4-18c-1.2-5.7-3-11-9.4-13.7
		C658.4,483.7,658.4,493.7,658.4,504.9z"/>
	<path class="st0" d="M340.7,774c-0.4,0-0.8,0-1.1,0c0,0,0.1,0.1,0.1,0.1c0.2-1.1,0.3-2.1,0.5-3.2c0,0,0.3,0,0.3,0
		c0.7,0.4,1.5,0.7,2.2,1.1c0,0,0-0.1,0-0.1c-0.7,0.7-1.4,1.4-2.1,2.1C340.5,774.1,340.7,774,340.7,774z"/>
	<path class="st0" d="M114.6,780.1c-0.2-1-0.4-1.9-0.7-2.9c0,0,0.1-0.2,0.1-0.2c0.6,0.4,1.1,0.8,1.7,1.1c0,0-0.2-0.2-0.2-0.2
		c0.4,0.6,0.8,1.1,1.1,1.7c0,0,0.1-0.2,0.1-0.2C116.1,779.7,115.3,779.9,114.6,780.1z"/>
	<path class="st0" d="M99.6,760.1c-0.2-1.1-0.3-2.1-0.5-3.2C99.2,758,99.4,759.1,99.6,760.1z"/>
	<path class="st0" d="M340.2,771c-0.2,1.1-0.3,2.1-0.5,3.2c-0.7-0.2-1.4-0.4-2.1-0.5C338.4,772.7,339.3,771.8,340.2,771z"/>
	<path class="st0" d="M106.7,769.2c-0.5-0.7-1.1-1.5-1.6-2.2C105.6,767.7,106.1,768.4,106.7,769.2z"/>
	<path class="st0" d="M102.7,763.6c-0.6-0.6-1.1-1.1-1.7-1.7C101.6,762.5,102.1,763.1,102.7,763.6z"/>
	<path class="st0" d="M348.2,766c-0.2,0.4-0.5,0.8-0.7,1.1c0,0,0.2-0.1,0.2-0.1c-0.4,0-0.8,0-1.1,0c0,0,0,0.1,0,0.1
		C347.1,766.7,347.7,766.3,348.2,766z"/>
	<path class="st0" d="M107.7,770.1c-0.4,0-0.7,0-1.1,0c0-0.4,0-0.8,0-1.1c0.6,0,1.1,0,1.7,0C108,769.4,107.8,769.7,107.7,770.1z"/>
	<path class="st0" d="M98.2,756c-0.6,0-1.2,0-1.7,0C97.1,756,97.7,756,98.2,756z"/>
	<path class="st0" d="M353.7,761.9c0,0.4,0,0.8,0,1.2c-0.4,0.2-0.8,0.4-1.2,0.5C352.9,763.1,353.3,762.5,353.7,761.9z"/>
	<path class="st0" d="M99.7,761.6c-0.4-0.2-0.8-0.4-1.2-0.6c0.4-0.4,0.8-0.7,1.1-1.1C99.7,760.5,99.7,761.1,99.7,761.6z"/>
	<path class="st0" d="M115.7,778.1c-0.6-0.4-1.1-0.8-1.7-1.1C114.6,777.4,115.2,777.7,115.7,778.1z"/>
	<path class="st0" d="M116.7,779.6c-0.4-0.6-0.8-1.1-1.1-1.7C115.9,778.5,116.3,779.1,116.7,779.6z"/>
	<path class="st0" d="M944.6,548c0-9.8,0.1-19.7-0.1-29.5c-0.1-3.1,0.8-4.6,4.1-4.5c26.4,0.5,52.5,3.2,77.1,14
		c10.5,4.6,20.1,10.4,27.7,19.2c2.4,2.8,4.5,5.8,6.2,9c4.8,9.6,1.7,18.9-8.3,22.4c-9.2,3.1-18.9,5.5-28.5,6.7
		c-24.6,2.9-49.2,2.3-73.5-2.8c-3.4-0.7-4.7-1.8-4.6-5.5C944.9,567.3,944.7,557.7,944.6,548C944.7,548,944.6,548,944.6,548z
		 M1045.5,564.8c-9.1-21.2-55.2-35.3-84.6-33.4c0,12.4,0,24.8,0,37.6C989.3,571.8,1017.3,573.2,1045.5,564.8z"/>
	<path class="st0" d="M1152.6,646.8c0-18.3,0-35.7,0-53.2c0-1,0-2,0-3c0.1-12.2,0.1-12.5,12.4-14.7c14.4-2.5,28.9-4.9,43.4-6.4
		c6.1-0.7,12.7,0.2,18.8,1.5c6.9,1.5,8.9,5.8,8,12.7c-1.5,10.9-8,18.9-15.7,25.9c-12.4,11.1-26.7,19.2-41.7,26.3
		C1169.5,639.8,1161,643.2,1152.6,646.8z M1217.8,586.4c-16.4-1.5-32,1.6-47.6,4.6c-0.7,0.1-1.6,1.3-1.6,2
		c-0.1,9.7-0.1,19.4-0.1,29.9C1187.1,613.5,1205.9,604.8,1217.8,586.4z"/>
	<path class="st0" d="M1149.3,491.6c-0.2-4.1-0.4-7.4-0.5-10.7c-0.3-8.6-0.5-17.3-1-25.9c-0.2-3,0.6-4.5,3.8-5.1
		c15.1-2.7,30.3-4,45.7-2c5.2,0.7,6.2,2.9,3.3,7.4c-0.9,1.4-1.9,2.7-3.1,3.9c-12.4,12.5-26.2,23.1-42.4,30.3
		C1153.6,490.2,1152,490.7,1149.3,491.6z"/>
	<path class="st0" d="M944,454.5c0-8-0.2-14.2,0.2-20.2c0.1-1.1,2.2-3,3.3-3c14.1,0.4,28.2,1.1,42.3,1.9c1.8,0.1,3.5,2,5.2,3.1
		c-1.4,1.3-2.6,3.2-4.2,3.7C975.8,444.8,960.7,449.3,944,454.5z"/>
	<path class="st0" d="M2587,595.3c-12.1-3.8-24.1-6.2-34.8-11.2c-22-10.3-43.4-21.8-64.7-33.4c-5.9-3.2-10.9-8.2-16-12.7
		c-7-6.1-11.3-6.5-20-0.8c12.4,15.2,10.6,31-0.1,46.4c-1.4,0.2-3.4,0.5-5.8,0.8c-1.3-15.3-3-30.8-3.8-46.4
		c-1.1-21.8-1.8-43.6-2.3-65.4c-0.2-8.3,0.9-16.6,1.4-24.9c0.2-3,1.5-4.6,4.6-4.7c11.1-0.5,22.2-1.1,33.6-1.7
		c-0.9,4.4-1.7,8.4-2.7,12.3c-4.1,17.5,3.9,30,16.7,40.3c4.5,3.6,9.5,6.9,14.8,9.2c18.9,7.9,32.7,22,46.1,36.7
		c5.6,6.2,9.9,13.1,13.4,20.8C2572.9,572.1,2579.9,582.9,2587,595.3z M2456.2,517.9c11.8-2.6,20.1,2.3,27.4,9.4
		c13.9,13.7,32.4,19.6,49,29.1c-4.5-5.3-9.1-10.7-14.6-14.6c-7.8-5.5-16.4-10-24.7-14.8c-17.9-10.3-32.4-23.3-36.4-44.9
		c-0.1-0.8-0.5-1.6-0.6-2.1C2456.2,492.4,2456.2,504.8,2456.2,517.9z"/>
	<path class="st0" d="M1901,401.3c0.3,1.6,0.8,3.3,0.8,4.9c-1.2,21.8,19.7,39.7,44,37.6c12.3-1,23.2-5.4,33.6-11.7
		c12.4-7.5,25.7-11.8,40.5-8.8c12.8,2.6,21,11,19.5,21.9c-1.1,7.6-3.9,15.1-6.6,22.4c-0.5,1.4-3.6,2.7-5.4,2.6
		c-14.1-0.2-28.3-1.3-42.4-1.1c-25.3,0.5-49.3,6.1-69.9,21.7c-6.3,4.8-11.9,10.6-17.9,16c-0.1-0.2-0.4-0.6-0.5-1
		c-0.7-25.6-1.3-51.3-1.8-76.9c0-2.1,1.7-4.1,2.6-6.2c0.4-1,1.2-2,1.4-3C1899.6,413.6,1900.3,407.5,1901,401.3
		C1901,401.4,1901,401.3,1901,401.3z M2018.4,453.3c-5.1-4.6-17.9-5-24.6,0C2002.5,453.3,2010.6,453.3,2018.4,453.3z M1911.8,465
		c0.2,2.9,0.4,5.1,0.7,8.1c3-1.9,5.1-3.2,7.9-4.9C1917.3,467,1914.9,466.1,1911.8,465z"/>
	<path class="st0" d="M2029.1,536.6c0.8,10.8,1.4,21.6,2.4,32.3c0.3,3.2-0.5,4.9-3.5,5.2c-7.6,0.9-15.2,2-22.8,2.5
		c-15.7,0.9-31.3,0.3-46.6-3.6c-5.1-1.3-10.1-3.4-14.6-6.2c-6.8-4.3-8.3-11-5.4-18.4c1.5-3.7,2.7-7.4,4.1-11.2
		c2.5-6.6,7.5-10.8,13.7-13.9c10.2-5,21.4-6.6,32.5-6.9c12-0.3,24,0.6,35.9,0.9c4.1,0.1,6,1.8,5.4,6.2c-0.6,4.3-0.5,8.6-0.7,13
		C2029.4,536.6,2029.2,536.6,2029.1,536.6z M1953.6,552.6c0.2,0.8,0.5,1.6,0.7,2.4c17.9,7.1,36.5,6,55.2,5.4c0-5.7,0-10.7,0-16.1
		c-14.5-0.7-28.6-1.1-42.4,2.2C1962.4,547.5,1958.1,550.5,1953.6,552.6z"/>
	<path class="st0" d="M336.5,775c0,0.4,0,0.8,0,1.2c0,0,0.1,0,0.1,0c0-0.4,0-0.8,0-1.2L336.5,775z"/>
	<path class="st0" d="M336.6,774.9c0,0.4,0,0.8,0,1.2C336.6,775.8,336.6,775.3,336.6,774.9z"/>
	<path class="st0" d="M99.6,764.2c0-0.4,0-0.8,0-1.2C99.6,763.3,99.6,763.8,99.6,764.2z"/>
	<path class="st0" d="M346.5,767c0.4,0,0.8,0,1.1,0c0,0.4,0,0.8,0,1.1c-0.4,0-0.8,0-1.1,0C346.5,767.7,346.5,767.4,346.5,767z"/>
	<path class="st0" d="M340.5,774.1c0.7-0.7,1.4-1.4,2.1-2.1c0,0.4,0,0.7,0,1.1c-0.3,0.3-0.7,0.7-1,1
		C341.3,774.1,340.9,774.1,340.5,774.1z"/>
	<path class="st0" d="M1217.8,586.4c-11.9,18.4-30.7,27-49.4,36.5c0-10.5,0-20.2,0.1-29.9c0-0.7,1-1.9,1.6-2
		C1185.8,588,1201.4,584.9,1217.8,586.4z"/>
	<path class="st0" d="M2456.2,517.9c0-13.1,0-25.5,0-37.9c0.2,0.6,0.5,1.4,0.6,2.1c3.9,21.6,18.4,34.6,36.4,44.9
		c8.3,4.8,16.9,9.3,24.7,14.8c5.6,3.9,10.1,9.3,14.6,14.6c-16.5-9.5-35-15.4-49-29.1C2476.3,520.2,2468,515.3,2456.2,517.9z"/>
</g>
</svg>
