<?xml version="1.0" encoding="utf-8"?>
<!-- Generator: Adobe Illustrator 19.0.0, SVG Export Plug-In . SVG Version: 6.00 Build 0)  -->
<svg version="1.1" id="Layer_1" xmlns="http://www.w3.org/2000/svg" xmlns:xlink="http://www.w3.org/1999/xlink" x="0px" y="0px"
	 viewBox="18 250.6 648 293.4" style="enable-background:new 18 250.6 648 293.4;" xml:space="preserve">
<style type="text/css">
	.st0{fill:#FFFFFF;}
</style>
<g id="Layer_2">
	<g id="Layer_1-2">
		<g>
			<path class="st0" d="M268.3,368.6c0,0-13.4,25.4-13.6,30.7c0,0,12.7,3.8,14,4.7c0,0,2.7-22.5,11.6-29.1
				C280.3,374.8,277.6,368.8,268.3,368.6z M554.9,375.7c0,0-4.7,5.8-7.3,8.7h7.8L554.9,375.7z M461.9,376.4c0,0-11.1,28.9-11.9,30.3
				l13.8,6.2c0,0,2.2-23.6,11.6-29.8C475.3,383,473.5,376.8,461.9,376.4L461.9,376.4z M401.9,429.8c-15.6-26.7-5.8-35.6-8-40.9
				c-2.2-5.3-8.5-0.9-8.5-0.9c2.7,5.8,4.5,20.9,4.5,20.9c-8,17.4-14.7,16.9-14.7,16.9c-4-17.8-14.7-31.6-20-31.6s-9.3,8-9.3,8
				L321,433.8l-1.3-13.6c-3.3,3.4-7.4,5.7-12,6.9c-18.2,1.8-28.5-32.9-28.5-32.9c-26.7,42.3-32.9,38.3-36.5,37.8s-4.4-9.8-9.8-10.7
				c-5.3-0.9-9.3,8.9-9.3,8.9c-13.8-44.5-26.7-41.8-28.9-41.8s-5.3-1.3-16.4,20.5s-25.4,36.9-49.8,40.5S61.2,426.6,46.5,420
				s-25.4-28-25.4-28l11.6-15.6c72.9,48.9,113.9,42.7,113.9,42.7c-17.8-41.8-92.1-95.6-101.9-101.4s-16-20.5-7.1-32
				s36.9-24.9,44.9-29.8c8-4.9,16.9-7.1,24.9-3.1s48.5,25.4,48.5,25.4c3.1,3.1-0.4,8.9-8.9,16c-8.4,7.1-23.6-8.4-52.5-12.9
				c-28.9-4.5-36.5,7.1-36.5,7.1s27.6,35.1,56.5,52c28.9,16.9,48.9,48,48.9,48s-1.8-80.5,0-84.5s8.9-16.5,13.8-16.5
				s4.9,2.7,6.2,33.8s-0.4,59.2-0.4,59.2s12-16.9,27.6-16.9s24,28,24,28c16-28,32-42.7,38.7-48s9.8,2.2,13.8,2.7
				c2.2,0.3,4.4-0.1,6.2-1.3c0,57.4,25.4,61.2,25.4,61.2c-1.3-66.7,19.6-66.9,19.6-66.9v55.6c5.8-13.3,20.9-28,29.8-28
				s15.6,16.4,15.6,16.4c12-7.1,11.6-54.7,11.6-54.7l13.8-16c5.3,16.9,0.4,42.3,0.4,42.3c12.3,0.8,24.5,2.7,36.5,5.8l-13.3,17.3
				l-19.6,1.8c-2.7,28.5,0.9,32.9,0.9,32.9L401.9,429.8z M587.9,434.2c0,0-25.9,11.6-44.5,8.4s-24.9-16.9-24.9-16.9
				s-5.8,12.9-15.1,12.9c-9.3,0-23.1-9.8-31.6-31.1c0,0-19.1,35.1-32.5,35.1s-17.8-19.1-16.5-25.8s12.5-32,26.7-48.5
				c14.2-16.5,15.1-17.8,20.5-17.8s3.1,6.7,19.6,3.6c0,0-1.3,52.9,24.9,60.9c0,0-0.4-5.8-8.9-11.1c0,0,42.7-60.5,60.1-43.6
				s-13.8,47.1-20.5,45.8c0,0,8.9,13.8,54.7,9.3L587.9,434.2z"/>
		</g>
		<path class="st0" d="M152.1,372.3c3.6-2.1,7.3-4.2,11-6.3c-0.1-5.1-0.2-10.8-0.2-16.5c-7.5,3.8-14.8,7.7-21.9,11.6
			c1.6,1.6,3.1,3.1,4.5,4.7C147.8,368,150,370.2,152.1,372.3z M119.9,393c-4-4.1-8.2-8-12.4-11.9c-10.8,7-20.7,14-29.7,21
			c7.1,3.3,13.7,6,19.8,8.2C104.4,404.5,111.8,398.8,119.9,393z M664.3,299.8c-18.1-59.2-177.1-63-355.1-8.5
			c-39.9,12.1-78.9,26.8-116.9,44c0.2,5.3,0.3,10.4,0.3,15.3c38.8-18.8,79.1-34.5,120.4-46.9c157.5-48.2,298.2-44.8,314.2,7.5
			c7.1,23.3-11.7,52.4-48.7,81.8c-0.2,7.8-5.1,16.1-10.7,22.5c2.3,0.3,4.9,0.6,7.8,0.7C639.2,375.3,674.3,332.5,664.3,299.8z
			 M490.7,446.5c-38.6,18.6-78.7,34.2-119.7,46.7C213.4,541.4,72.8,538,56.8,485.6c-3.7-12.1-0.4-25.8,8.8-40.2
			c-4.6-2.4-8.4-4.4-11.3-5.7c-3.7-1.8-7.1-4.2-10.1-7.1c-21,23.3-30.3,45.5-24.5,64.3c18.1,59.2,177.1,63,355.1,8.5
			c43.8-13.3,86.6-29.7,128-49.2C498.1,453.9,494,450.6,490.7,446.5z"/>
	</g>
</g>
</svg>
