<?xml version="1.0" encoding="utf-8"?>
<!-- Generator: Adobe Illustrator 19.0.0, SVG Export Plug-In . SVG Version: 6.00 Build 0)  -->
<svg version="1.1" id="Layer_1" xmlns="http://www.w3.org/2000/svg" xmlns:xlink="http://www.w3.org/1999/xlink" x="0px" y="0px"
	 viewBox="0 0 3742 1130" style="enable-background:new 0 0 3742 1130;" xml:space="preserve">
<style type="text/css">
	.st0{fill:#FFFFFF;}
</style>
<g>
	<path class="st0" d="M0,965.1c1.9,2.9,4.3,5.7,5.6,8.9c10.2,24.6,32.2,37.3,58.4,33.4c10.7-1.6,19.4-6.6,26.6-14.6
		c2-2.2,3.8-4.6,6.9-8.3c2.1,2.8,3.5,5.4,5.6,7.4c19.8,18.8,39.7,37.5,59.4,56.4c8.1,7.7,18.3,10.8,28.4,13.7
		c2.8,0.8,6.5-0.4,9.5-1.5c58-20.6,110.5-51.1,159.3-88.2c29-22,56.3-45.9,82.6-71c2.4-2.3,4.8-4.4,7.9-7.2
		c44.9,65.4,69.2,138.8,90.5,213.5c1.8-0.2,2.9,0,3.5-0.4c61.7-42.5,119.2-89.8,167.4-147.6c40.6-48.7,75.3-101,98.8-160
		c5.1-12.9,11.9-24.3,20.4-35.2c25.8-33.1,51.3-66.5,76.9-99.8c2.1-2.8,4.5-5.4,7.8-9.4c0.9,11.4,0.7,19.9-6.1,28.4
		c-29.1,36.9-57.5,74.3-86.1,111.6c-2.8,3.7-5.7,7.5-7.3,11.8c-23.9,63.4-59.5,119.8-102.9,171.4c-37.9,45.1-80.1,85.6-128.1,120
		c-14.1,10.1-28,20.4-43.1,31.5c-1.4-3.8-2.7-7-3.7-10.3c-10.1-30.7-19.4-61.6-30.3-92c-13.2-36.8-31.4-71.3-52-104.5
		c-1.6-2.5-3.3-5-5.6-8.4c-2.9,2.7-5.6,5-8.1,7.5c-41.2,39.6-85.1,75.7-133.5,106.3c-34.5,21.8-70.9,39.6-109.4,53.1
		c-3.5,1.2-7.8,1.2-11.4,0.3c-10.9-2.4-20.4-7.7-28.6-15.5c-18.3-17.5-36.7-34.9-55.1-52.3c-2.4-2.3-4.8-4.6-8.7-8.4
		c-0.7,1.4-1.2,3.1-2.2,4.4c-19.8,27.9-64.2,23.7-81.8-4.4c-3.2-5-5-10.8-7.7-16.2c-1.1-2.3-2.6-4.4-3.9-6.5
		C0,977.1,0,971.1,0,965.1z"/>
	<path class="st0" d="M3742,691.1c-1.1,1.9-2.3,3.8-3.2,5.8c-38.2,82.7-81,162.8-133.9,237.2c-10.6,14.9-22.9,28.5-35.1,42.2
		c-7.1,8-16.1,13.9-26.7,16.8c-11.7,3.3-23.3,1.3-34.6-1.1c-27-5.7-46.6-21.9-60.5-45.4c-11.2-19-17.6-39.7-19.6-61.4
		c-2.3-24.3-8.4-47.8-12.9-71.6c-0.1-0.5-0.8-0.9-2.1-2.1c-2.2,2.7-4.3,5.6-6.6,8.2c-25.2,29.7-50.1,59.7-75.8,89
		c-8.7,10-18.8,18.9-29,27.4c-21.7,17.9-47.1,12.5-63.8,0.4c-9.9-7.2-17.1-16.7-22.8-27.4c-10.8-20.2-16.9-42.1-20.6-64.4
		c-5.5-33.5-9.6-67.2-14.1-100.8c-0.5-3.6-0.1-7.3-0.1-12.7c3.3,23.9,6.2,46,9.6,68.1c3.5,22.7,7.6,45.4,15.9,66.9
		c4.5,11.7,10.1,23.2,16.9,33.8c8.8,13.6,21.6,22.2,37.9,25.7c12.8,2.7,24.8,0.9,35.3-6.5c8.7-6.1,17-12.9,24.5-20.5
		c31.3-31.5,59.3-65.8,86.8-100.6c1.7-2.1,3.3-4.2,5.1-6.2c0.3-0.4,1.2-0.2,3-0.6c3.6,18.4,8.1,36.8,10.5,55.4
		c3.1,24.9,7,49.5,18.4,72.1c12.6,24.9,31.1,43.3,58.7,50.6c10.2,2.7,21,3.4,31.6,3.8c10.8,0.4,20.4-4.4,28-11.6
		c10.4-9.8,20.6-20,29.5-31.1c30.4-38.5,56.1-80.3,79.6-123.3c20.9-38.3,40.3-77.4,60.3-116.1c0.9-1.8,1.8-3.6,2.9-5.9
		c2.5,0.6,4.9,1.3,7.3,1.9C3742,688.5,3742,689.8,3742,691.1z"/>
	<path class="st0" d="M1405.3,691.6c-2.3,2.7-4.7,5.4-6.9,8.2c-67.8,83.2-132,169.2-194.5,256.5c-7.2,10-14.9,19.7-23.3,28.6
		c-7.6,8.1-17.3,13.4-28.8,14.6c-11.1,1.2-21.3-1.2-30-8.3c-12.8-10.4-20.4-23.7-24-40.2c-5.4-24.9-8.4-50.1-6.9-75.4
		c2-32.2,5.3-64.4,8.5-96.5c1.4-14.2,3.8-28.3,5.9-43.9c-2.5,1.3-4,1.6-5,2.5c-11.6,10.5-23.7,20.6-34.5,31.8
		c-6.6,6.8-12.4,14.9-16.8,23.3c-16.3,31.7-31.7,63.8-47.6,95.7c-2.4,4.7-5.1,9.5-8.4,13.5c-5.5,6.7-12.5,8.2-19.6,3.5
		c-24.1-16.2-41.5-37.8-42.6-67.6c-1.9-52.3-2-104.6-2.2-156.9c-0.1-19.6,1.6-39.3,2.5-58.9c0.1-1.9,0-3.7-1.6-6.5
		c-2.2,2.7-4.5,5.3-6.6,8c-35.2,45.7-70,91.7-105.7,136.9c-7.5,9.5-12.9,19.5-17.2,30.6c-24.3,61.8-60.5,116.2-103.6,166.4
		c-42,48.9-90.1,90.8-143,127.2c-1.3,0.9-2.8,1.6-5.5,3.1c-20.9-76.2-49.3-148.4-95.6-214c-3.2,3-6.1,5.6-8.8,8.3
		c-37.8,37.3-77.9,71.8-121.9,101.7c-36.8,25-75.7,45.7-117.3,61.7c-12.1,4.7-21.5,2.2-30.4-4.9c-11.2-8.9-21.9-18.5-32.4-28.3
		c-10.7-10.1-21-20.5-30.8-31.4c-5.6-6.2-12.3-9.7-20.3-12.7c-1.1,2-2.1,3.6-2.8,5.4c-12.3,29.4-47.4,24.9-61.5,9.3
		c-18.9-20.8-15-48.9,9.2-63.1c10.8-6.3,22.4-8.4,34.7-6.3c11.1,1.9,19.9,7.8,25.4,17.7c3.2,5.8,7.7,10.1,13.3,13.2
		c13,7.2,25.3,16.3,40.3,19.3c10.4,2.1,21,3.5,31.6,4.5c4.1,0.4,8.6-0.8,12.7-1.9c34.9-9.4,67.9-23.5,99.8-40.4
		c45.2-24,87.1-52.9,127.2-84.6c1.5-1.2,2.9-2.7,4.7-4.4c-1-1.6-1.7-3.1-2.7-4.3c-27.2-33.6-57.6-63.8-93.4-88.3
		c-17.4-11.9-35.8-21.8-56-28.1c-23.2-7.1-45.3-5-66.8,6c-17.7,9.1-32.9,21.4-47,35.3c-23.1,22.8-42.6,48.6-60.7,75.4
		c-2.2,3.3-4.5,6.5-8,9.2c0.6-2.7,1-5.4,1.7-8.1c9.1-35.8,23-69.6,43.8-100.2c8-11.8,17-23.2,26.9-33.4
		c38.6-39.9,85.2-52.4,138.9-38.4c30,7.8,57.3,21.5,83,38.5c33.3,22.1,62.6,48.7,89,78.4c2.2,2.5,4.4,5,6.7,7.4
		c0.4,0.4,1.2,0.5,3,1.2c10.6-10.1,21.3-21,32.7-31.1c11.1-9.8,18.3-23.7,31.4-31.3c9.4,8.8,11.8,23.6,4.9,32.7
		c-12.6,16.4-25.7,32.4-38.6,48.5c-2.7,3.3-5.5,6.6-8.9,10.6c34.3,45.8,61.2,95.4,82,149c1.8-0.9,3.4-1.2,4.5-2.2
		C648.9,914.4,698.7,858.4,733,790c16.8-33.6,29-68.8,33.7-106.1c2.5-19.7,0-39.2-5.9-58.2c-6.3-20.4-19.3-35.4-37.4-46.3
		c-16.7-10-34.9-16.4-53.3-22.2c-48.5-15.3-98.3-23.1-148.9-28.2c-58.6-5.9-115.4-20-168.8-45.8c-22.6-11-43.4-24.8-60.9-43.1
		c-30.8-32.1-42.7-70.5-38.4-114.5c6.6-66.7,35-124,77.1-174.7c60-72.2,135.6-120.1,227.1-142.4c22.7-5.6,45.9-8.3,69.3-8.3
		c25.1,0.1,46.9,8.9,64.5,27.1c10.6,10.9,16.6,24,17.3,39.4c0.9,17.5-1.6,34.6-6.9,51.2c-12.5,38.8-33.8,72.2-62.3,101.2
		c-1.4,1.4-3,2.7-4.5,3.9c-0.5,0.3-1.3,0.2-3.3,0.6c-0.2-2.8-0.7-5.6-0.6-8.3c1.3-24.6,2.5-49.3,4-73.9c1.1-18.4,0.7-36.6-2-54.8
		c-1-6.5-0.5-13.3-0.8-20c-0.1-3.2-0.3-6.5-0.5-10.1c-10.1-2-19.2,0.3-28.2,1.8c-35.5,5.8-67.5,20.3-97,40.4
		c-47.6,32.5-84.9,74.6-115.7,123c-17.3,27.1-31.7,55.6-39.8,86.9c-3.1,12.2-5,24.8-6.5,37.3c-1.6,12.9,3.1,24.2,10.9,34.3
		c9.4,12,21.3,21,34.2,28.8c24.7,15,51.6,24.7,79.3,32.3c30,8.2,60.5,13,91.8,12.6c21.7-0.3,43.3-0.4,65-0.1
		c32.1,0.5,63.9,3.1,94.6,13.6c20.4,6.9,39.3,16.4,56.3,29.7c36,28.3,54.2,65.9,57,111.1c1.1,17.7,0,35.3-2.9,52.8
		c-0.3,1.6-0.3,3.2-0.7,7.3c3.3-3.7,5.3-5.6,7-7.8c32.7-43.8,65.4-87.6,98.1-131.4c3.1-4.1,4.7-8.5,5.3-13.7
		c12.1-103.1,31.2-204.7,63.4-303.6c4.2-12.8,10.3-23.4,21.1-31.6c17-12.9,33.4-26.6,50.4-39.4c6.1-4.6,13.1-7.8,20-11.2
		c4.8-2.3,10.5-4.6,15-0.3c4.1,3.9,1.9,9.5,0.6,14.2c-1.9,6.7-4.3,13.3-6.8,19.8c-17.8,47.7-36.5,95.2-53.2,143.2
		c-10.7,30.8-18.6,62.5-27.7,93.9c-0.7,2.4-1,5,0,8.3c2-2.5,4.1-4.9,6-7.4c27.1-36.4,53.9-72.9,81.2-109.1
		c26.7-35.5,46.6-74.4,60.8-116.4c3.1-9.1,6.1-18.3,5.4-28.8c-1.4-0.1-2.9-0.8-3.7-0.3c-7.2,3.9-13.5,1.3-19.5-2.6
		c-7.5-4.9-15.5-9.3-22.3-15c-8.3-6.9-7.1-12.2,2.9-15.8c14.3-5.2,29.3-6.3,44.3-5c6.6,0.6,13.2,1.7,19.6,3.4
		c16.5,4.4,25.5,15.3,25.7,32.5c0.1,9.5-0.7,19.5-3.5,28.5c-5.4,17.4-11.9,34.7-19.2,51.4c-17,38.8-37.2,76-59.7,111.9
		c-7.1,11.3-15,22-23.1,32.6c-38.3,50.4-76.8,100.7-115.3,150.9c-4.2,5.5-6.4,11.2-7.5,18c-12.3,81.3-15.9,163.1-13.3,245.2
		c0.2,5,0.6,10,0.9,15c0.1,1.3,0.6,2.5,0.9,3.6c5.6,1.6,7.3-2.4,9.2-5.8c7.8-13.9,15.6-27.9,23.6-41.8
		c22.4-38.7,46.4-76.3,74.3-111.3c16.5-20.6,34.1-40.1,54.4-57.1c14.1-11.8,29.3-22,46.1-29.7c4.6-2.1,8.5-2.1,13.2,0.1
		c9.4,4.2,19.3,7.4,28.7,11.5c6.7,2.9,13.2,6.3,19.2,10.5c6.5,4.5,7.1,9.4,3.6,16.6c-0.9,1.8-1.9,3.6-3.1,5.1
		c-10.3,12.3-19.5,25.3-27,39.5c-5,9.4-11.1,18.2-15.3,27.9c-19.8,44.8-38.6,90-51.7,137.3c-6.2,22.5-10.9,45.3-12.5,68.7
		c-1.2,18.1,0.3,36,7.2,53c1.7,4.2,4.2,8,7.1,13.3c3.7-5,6.5-8.6,9.2-12.3c75.6-105.8,154.1-209.4,237.3-309.3
		c13.7-16.4,26.7-33.1,38.8-50.8c10.7-15.6,23.1-30.2,36-44c7.8-8.4,17.7-15.1,27.3-21.5c26.9-17.9,75.3-6.9,94.8,13
		c18,18.4,25.7,51.8,8.8,76.3c-23.6,34.5-56.2,56.2-96.8,65.8c-4.8,1.1-9.9,0.9-14.9,1c-26.3,0.3-39.8,11.1-43.3,40.6
		c-1.2,10.2-0.8,20.7-0.1,30.9c2.1,28.6,5.1,57.1,13.9,84.6c2.6,8.2,6.2,16.1,10,23.9c2,4.1,5,7.9,8.3,11.1c7.3,7.2,12.8,7.6,19.5,0
		c11.2-12.7,22.8-25.4,32-39.5c25-38.2,49-77,73.1-115.7c21.6-34.8,42.6-70.1,67.7-102.5c11.2-14.5,23.4-28.2,35.8-41.7
		c15.7-17.1,36-28.5,54.7-41.8c12.2-8.7,26.2-5.5,39.6-2.3c10.7,2.6,19.7,8,27.2,16c16.3,17.3,27.8,37,33.8,60.3
		c10.3,40.2,15.2,81.1,16.5,122.5c0.2,5.5-0.5,11.2,3.4,17.6c2.4-3.6,4.2-6.2,5.8-8.9c26.4-46.1,56.2-89.8,91.1-129.9
		c18-20.6,37.5-39.7,57.9-58c12.6-11.3,24.1-23.9,35.7-36.2c3.4-3.6,6.9-5.8,11.8-6.5c22.2-3.4,38.9,5,51.6,22.9
		c3.8,5.4,4.3,10.6,2,16.9c-13.7,37.2-26.5,74.7-40.8,111.6c-14.8,38.3-26.9,77.4-32.5,118.1c-4.8,35-7.9,70.1-4.9,105.6
		c0.8,9.5-0.5,19.3,3,28.8c4.8,0,6.5-3.7,8.6-6.3c14.9-19.2,30.1-38.2,44.3-58c53.2-74.3,101.7-151.6,149.6-229.4
		c12.5-20.3,28.1-38.1,46.6-53.2c8.6-7,17.9-12.7,29.5-13.3c16-0.8,27.8,6.2,33.6,21.3c2.6,6.8,4.3,14.1,4.9,21.3
		c3.2,40.2,6,80.4,8.8,120.6c0.5,7.2,1,14.4,1.4,21.6c0.7,0.2,1.4,0.4,2.1,0.7c2.3-2.7,4.6-5.3,6.8-8
		c34.7-44.8,70.5-88.7,111.1-128.5c6.2-6.1,12.4-12.1,19.1-17.6c4.3-3.5,9.2-7,14.4-8.6c17.1-5.2,32.3,6.4,32.4,24.9
		c0.4,35.5,4.5,70.9,4.1,106.5c-0.1,4.6,0.9,9.3,2.4,13.6c1.5,4.5,4.4,5.4,8.7,3c3.1-1.8,6.2-4.1,8.5-6.8
		c5.6-6.6,11.2-13.2,15.9-20.5c10.5-16.3,23.3-30.8,36.3-45.1c13.5-14.8,26.3-30.1,39.6-45c8.9-9.9,18-19.7,27.7-28.8
		c10.4-9.7,23.9-13.1,37.7-14.1c9.9-0.7,20-0.4,30-0.1c14.7,0.5,24,11.4,22,25.9c-0.6,4.6-2.1,9.1-3.6,13.5
		c-10.7,31.9-23.9,62.9-38,93.4c-5,10.9-9.5,22-14.5,32.9c-12.9,27.6-17.7,57.1-20.7,87c-1.8,18-1.9,35.9,0.4,53.9
		c0.9,6.9,0.6,14.4,9,17.4c7.6,2.7,12-3.1,16.2-7.4c10.2-10.5,20.5-21.1,29.3-32.7c23.3-30.9,45.6-62.4,68.5-93.5
		c19.2-26,38.6-51.9,58-77.7c2-2.7,4-5.5,6.7-7.4c9.8-6.9,16-16.8,23.2-25.9c16.9-21,34.1-41.8,51.6-62.3
		c4.5-5.3,10.3-9.4,15.7-13.9c8.5-7.2,18-7.9,28.1-4.2c13.7,4.9,24,14.1,31.6,26.4c3,4.9,2.3,8.8-1,13.6
		c-13.9,20.3-27.5,40.9-40.7,61.6c-5.6,8.7-8.2,18.7-10.8,28.8c-4.3,16.7-9.9,33.2-16.2,49.3c-7.8,19.7-10.9,39.8-9.2,60.7
		c0.5,6.2,2.1,12.5,4.5,18.3c3.3,7.8,9.1,9.3,16.2,4.6c5.5-3.7,10.9-7.8,15.4-12.6c10.7-11.4,21.9-22.6,31.2-35.1
		c24.4-32.9,47.9-66.5,71.7-99.9c1.5-2.1,2.8-4.6,3.6-7.1c6.1-20.7,16-39.6,28.4-57c12.9-18.1,26.5-36,41.2-52.7
		c14.7-16.6,34.5-18.9,55.2-14.1c9.7,2.2,10.7,5.2,6.3,14.2c-17.1,34.8-25.9,72-30.6,110.2c-0.7,5.8,0.8,11.9,1,17.9
		c1.2,36.6,2.5,73.3,3.5,109.9c0.6,24,1.6,48,6.7,71.5c2.1,10,4.3,20.2,12.5,29c3.6-3.1,7.5-5.7,10.4-9
		c13.4-15.3,27.7-29.9,39.6-46.3c27.6-38,54.1-76.8,80.8-115.5c4.7-6.8,7.6-14.8,11.8-21.9c5.4-9.2,10.5-18.7,17.1-26.9
		c28.2-35.4,62.9-63.2,102.8-84.4c20.7-11,42.4-14.7,65.8-10.8c27.3,4.6,45.9,25,47.3,52.6c0.7,14.8-2.1,28.8-10.3,41
		c-22.2,33.1-51.8,56.2-91.2,65.1c-17.9,4-35.7,2.7-54.1-3c-0.7,3.1-1.7,5.9-2,8.7c-3,31.5-6,63.1-4.6,94.8
		c0.8,19,2.8,37.9,8.2,56.2c3,10.3,7,20.1,13.9,28.6c3.7,4.5,7.6,6.4,13.9,4.9c13.7-3.2,25.5-8.4,34.5-20
		c27.2-35.4,55.2-70.2,82.5-105.5c26-33.8,51.5-68,77.2-102.1c1.8-2.4,3.5-5,5.8-6.8c1-0.8,3.3,0,5.9,0.1c-0.8,2.7-1.2,4.6-2,6.3
		c-36.3,77.3-76.5,152.4-125.5,222.6c-9.3,13.4-19.9,25.9-30.3,38.4c-4.2,5.1-9.4,9.4-14.6,13.6c-7.8,6.3-16.8,8.8-27,8.1
		c-31.3-2.2-53.9-17.4-68.8-44.6c-9.1-16.6-14.5-34.6-16.2-53.2c-2.4-26-9.5-51-13.4-76.7c-1.2-7.8-1.1-15.8-1.8-23.7
		c-0.2-1.6-1.6-3.1-3.2-5.9c-3,3.8-5.2,6.5-7.3,9.3c-29.5,40-61.1,78.3-95.1,114.5c-8,8.5-16.6,16.4-25.4,24
		c-18.5,15.8-39.9,8.9-52-1.6c-8.3-7.1-14-16.1-18.5-25.8c-9.2-19.5-13.9-40.2-18-61.2c-7.3-37.7-11.5-75.7-14.2-114
		c-0.7-10-1.5-19.9-2.4-29.9c-0.3-3.5-1.1-7-1.7-10.2c-5.5-0.7-6.5,3.2-8.2,5.7c-10.9,15.5-21.3,31.5-32.6,46.7
		c-20.5,27.5-40.9,55.1-62.5,81.8c-10,12.3-22.3,22.8-34.4,33.3c-8.1,7-17.8,11.6-29,12c-21.3,0.8-37.4-8.1-48.2-26.2
		c-6.4-10.7-9.4-22.7-10.8-35.1c-2.1-18.4,0.2-36.5,2.7-54.7c1.6-11.8,1.2-23.9,1-35.9c-0.1-4.4-2.2-8.7-3.9-15.1
		c-3.8,4.7-6.4,7.6-8.6,10.7c-30.9,43.1-61.5,86.3-92.6,129.2c-13.1,18.1-26.7,35.8-41,52.9c-8.5,10.1-18.3,19.4-28.5,27.9
		c-30.7,25.5-69.1,10.4-84.4-17.5c-6.6-12.1-10.8-24.9-10.2-39.1c0.3-6.6-1.5-13.2-2-19.9c-2.3-33.8-0.1-67.3,6.9-100.4
		c3.4-16,6.8-32,5.3-48.5c-0.4-4.6-0.4-9.3-5.6-13.7c-2.2,2.2-4.9,4-6.5,6.4c-20.9,32.9-42.4,65.4-62.2,99
		c-13,22-23.6,45.5-35.3,68.3c-1.2,2.4-2.2,4.9-3.7,7.1c-5,7.7-14,11.4-22.5,9.5c-8.6-1.9-15.5-8.8-16.6-17.9
		c-1.4-11.9-2.4-23.9-3.3-35.8c-2.3-29.2-4.5-58.5-6.7-87.7c-2.1-27.2-4.1-54.4-6.2-81.9c-4.8,0-6.7,3.5-8.9,6.1
		c-25.1,29.4-50.6,58.5-74.8,88.6c-19.2,23.9-37,48.9-55.2,73.6c-5.3,7.1-11.3,12-20.7,11.6c-10.3-0.5-18.5-7.1-20.2-17.3
		c-0.6-3.6-0.5-7.3-0.5-11c-0.9-36-1.9-71.9-2.7-107.9c-0.2-9.3,0.6-18.7,0-28c-0.8-11.2-2.5-22.4-4.1-33.5
		c-0.4-2.9-1.7-5.8-3.2-8.3c-3.9-6.7-9.2-8.4-14.8-3.2c-8.9,8.1-20,14.5-23.6,27.3c-0.4,1.6-1.5,2.9-2.4,4.4
		c-51.3,82.7-103.1,165.1-161.4,243.1c-14.7,19.7-31.2,38.1-47.4,56.7c-6.6,7.6-15.3,12.3-24.9,16.1c-7.4,2.9-13.3,1.8-18.4-2.8
		c-4.1-3.7-7.8-8.3-10.1-13.3c-10.2-22.3-15.9-45.8-20-69.9c-5-29.8-4.4-59.8-3.7-89.7c0.4-15.6,2.4-31.2,3-46.8
		c0.6-14,0.4-28,0.4-42c0-14.7-0.1-29.3-0.3-44c0-2.8-0.6-5.7-1.1-10.8c-4,3.3-6.4,5.2-8.7,7.3c-8,7.5-16.2,14.9-23.9,22.6
		c-4.5,4.4-8.8,9.2-12.4,14.3c-34.3,49.4-63.3,101.8-86.9,157.2c-2.6,6.1-5.5,12.2-9,17.8c-3.4,5.5-7.9,10.6-15.3,8.9
		c-7.4-1.7-12.1-6.9-14-14.2c-1.1-4.5-1.6-9.2-2.1-13.8c-4.1-35.7-6.7-71.6-12.5-107.1c-5.5-34.1-13.9-67.8-21.8-101.5
		c-2.2-9.6-6.5-18.9-11.1-27.7c-5.7-10.9-12.1-12.7-21.8-5.4c-10.6,7.9-21.1,16.5-29.8,26.4c-16.7,19-33.1,38.5-47.7,59.1
		c-33.6,47.2-65.9,95.4-99.1,142.9c-13.9,19.9-28.4,39.5-43.3,58.7c-6.7,8.6-14.7,16.3-22.9,23.7c-23.3,21-49.3,19.5-73.7,5.1
		c-13.6-8-23.1-20-30.6-33.6c-9.3-16.8-15.1-34.8-19-53.5c-7-32.7-10.3-65.8-10.7-99.2c-0.1-5.9,0.5-11.9,0.8-17.8
		C1406.7,692.1,1406,691.8,1405.3,691.6z M3515.4,669.6c2-0.3,4-0.3,5.9-0.9c33.4-9.6,58.5-29.7,74.2-60.8
		c6.9-13.7,2.6-21.2-12.3-24.4c-5.5-1.2-10.3-0.2-15.2,2.9c-18.2,11.6-33.8,26-46.7,43.2c-4.6,6.1-8.4,12.8-11.6,19.7
		c-1.8,4-2.1,9-2.1,13.6C3507.6,667.4,3510.2,670.4,3515.4,669.6z M1554.7,555.5c0-1.3,0.1-2.7,0-4c-0.3-4.5-1.4-8.9-6.2-10.4
		c-4.8-1.4-9.2,0-12.7,3.8c-0.9,1-1.9,2-2.5,3.1c-6,11.7-15.6,20.6-23.5,30.8c-4.7,6-8.7,12.5-12.4,19.2c-1,1.9-0.9,5.7,0.3,7.1
		c1.2,1.3,4.9,1.5,7,0.8c14.1-4.6,26.9-11.4,37.4-22.1C1549.8,576,1554.8,566.9,1554.7,555.5z"/>
	<path class="st0" d="M1394.9,768.8c1,2.2,2.6,4.3,2.9,6.6c3.6,25.8,8.4,51.3,18.2,75.6c6.4,15.9,14.6,30.8,26.8,43
		c19.8,19.7,43.3,29.4,71.5,25.4c11.9-1.7,22.5-6.9,31.2-14.9c11.7-10.8,23.6-21.8,33.3-34.4c17.9-23.2,34.5-47.4,51.4-71.4
		c34.6-49,68.6-98.4,103.8-146.9c12.5-17.2,27.7-32.3,42.1-48.1c4.4-4.8,10.1-8.4,16.4-13.6c2.9,6.6,6,11.8,7.5,17.3
		c4.6,17,8.9,34.1,12.6,51.4c5.1,23.8,10.1,47.6,14.1,71.5c2.6,15.1,3.5,30.4,5.1,45.6c2.1,19.8,3.6,39.8,6.5,59.5
		c0.9,6.2,4.4,12.8,8.4,17.7c13,15.7,31.8,15.4,44.4-0.5c4.7-5.9,8.2-13,11.2-19.9c23.2-54.1,51.1-105.5,84.6-153.9
		c4.9-7,11.2-13,17.1-19.4c1-1.1,2.6-1.5,5.7-3.2c0,6.6,0.3,11.8-0.2,17c-0.2,1.9-2,4.2-3.7,5.4c-8.5,6.2-14.6,14.5-20.4,23.1
		c-32.7,48.1-60.4,98.9-83.2,152.4c-2.9,6.7-6.2,13.4-10.6,19.1c-12.8,16.5-33.2,16.5-45.7-0.2c-3.8-5.1-6.8-11.8-7.5-18.1
		c-3.9-32.4-6.2-64.9-10.5-97.2c-2.7-20.8-7.5-41.2-11.7-61.8c-3.8-18.6-7.8-37.2-12.2-55.6c-2.3-9.6-5.2-19.1-12-28.5
		c-5,4-10.1,7.1-14.1,11.3c-13.6,14.6-28.1,28.7-39.9,44.7c-30.5,41.2-59.9,83.3-89.5,125.2c-19.6,27.8-38.6,56-58.2,83.7
		c-7.3,10.3-15.6,19.9-24,29.5c-5.2,6-11.1,11.5-17.2,16.7c-27.2,23.5-57.6,23.4-87.1,6.8c-16.8-9.4-28.5-23.8-37.6-40.5
		c-11.4-21-18-43.7-22-67.1C1399.2,804.4,1397.3,786.5,1394.9,768.8L1394.9,768.8z"/>
	<path class="st0" d="M240.5,369.1c8.7,43.8,32.9,76.9,68.2,102.6c30.5,22.2,64.9,36.5,100.8,47.3c41.9,12.6,84.5,21.1,128.2,24.6
		c50,4.1,98.7,14.9,145.9,31.7c10.6,3.8,20.9,8.6,30.9,13.8c19.7,10.4,32,26.9,36.4,48.7c1.9,9.6,2.5,19.4,3.8,29.1
		c-0.7,0.1-1.4,0.2-2,0.2c-0.2-1.2-0.3-2.5-0.5-3.7c-4.3-24.5-17.1-42.8-39.3-54.7c-21.9-11.7-45.5-18.6-69.3-25.2
		c-39.9-11.2-80.7-16.4-121.9-20.8c-64.2-6.9-126.6-21.9-184.3-52.2c-24.1-12.6-45.6-28.8-63.1-49.8c-18.9-22.6-30.1-48.5-33.7-77.7
		C240,378.5,240.5,373.8,240.5,369.1z"/>
	<path class="st0" d="M2007,848.7c1,2.2,2.6,4.3,3,6.6c4.3,26.4,11,52.1,21.7,76.6c5.9,13.5,16.2,21.7,30.2,25.4
		c2.4,0.6,5.3,0.9,7.6,0.2c14.7-4.7,28.6-11,39.2-22.9c10.6-11.9,21.6-23.7,31.4-36.2c38.8-49.2,73.6-101.3,107.6-154
		c25.8-40,50.8-80.6,76.3-120.8c3.3-5.2,7.5-9.9,12.3-16.2c4.7,10.8,5.5,20.3,4.2,30.4c-1-2.6-2-5.3-3.2-8.3
		c-6.5,3.9-10.1,9.7-13.8,15.6c-41.7,67.9-83.9,135.3-129.7,200.5c-21.8,31.1-45.2,61-68.1,91.3c-5.4,7.1-12.2,13.2-18.3,19.8
		c-10.3,11.1-23.7,16.9-37.7,21.7c-2.3,0.8-5.4,0.7-7.8,0c-13.8-4-24.4-11.8-30.3-25.4c-11-25.2-18.1-51.5-21.8-78.6
		C2008.8,865.8,2008,857.2,2007,848.7L2007,848.7z"/>
	<path class="st0" d="M407.6,835.1c-4.1,3.1-7.2,5.5-10.7,8.2c-2.8-3-5.3-5.6-7.7-8.2c-20.3-21.7-42.1-41.7-66.7-58.5
		c-16-11-32.8-20.2-51.3-26.4c-21.5-7.3-41.9-5-61.7,5.8c-17.1,9.4-31.8,21.8-45.3,35.7c-25.7,26.4-47,56.1-66.5,87.2
		c-5.1,8.1-10.2,16.3-15.5,24.7c-3.7-1-6.9-1.9-9.9-2.8c0.2-1.2,0.1-1.9,0.4-2.4c23.9-39.3,47.6-78.7,78.2-113.3
		c12.4-14,25.3-27.5,40.6-38.3c7.3-5.2,15-9.9,23-14c17-8.8,35-10.4,53.3-4.3c9.7,3.2,19.6,6.8,28.6,11.6
		C339.9,763.1,374.8,796.7,407.6,835.1z"/>
	<path class="st0" d="M1394.9,768.7c-0.3-6-0.6-11.9-0.9-18.3c-4.6,0.6-6,4.4-8.1,7c-55.5,69.1-108.7,140.1-160.3,212.2
		c-7.2,10-14.4,20-21.7,30c-7.4,10-15.9,18.9-26.6,25.4c-24,14.7-51.7,11.4-71.1-9.1c-11.2-11.8-19.1-25.5-21.4-42
		c-1.7-12.2-4-24.3-5.8-36.5c-0.7-4.6-0.6-9.3,0-14c2.3,11.9,3.8,24,6.9,35.6c5.7,21.1,17.2,38.3,37.2,48.4
		c17,8.7,34.1,7.4,50.8-1.4c13.3-7,23.1-17.8,31.8-29.8c25.9-35.6,51.3-71.4,77.8-106.6c33.1-43.9,66.9-87.2,100.5-130.8
		c2.4-3.1,5-6.1,7.7-9.5C1394.9,736.7,1396.5,757.6,1394.9,768.7C1394.9,768.8,1394.9,768.7,1394.9,768.7z"/>
	<path class="st0" d="M2952.7,708.4c0.7,14.3-2.7,24.3-9.8,34c-26.3,36.1-51.5,72.9-77.8,109c-12.5,17.2-25.7,34-39.8,50
		c-8.9,10.2-19.2,19.5-30,27.7c-33.3,25.1-74.5,11.3-94.1-14.8c-13.8-18.3-19-39.1-18-61.8c1,3.8,1.9,7.5,3.1,11.3
		c8,25.5,22.7,45.1,49,53.9c19.4,6.6,38.3,5,55.5-6.4c8.8-5.9,17.6-12.3,24.6-20.2c16.1-18.1,32-36.6,46.4-56.2
		c28.2-38.4,55.3-77.5,83-116.3C2946.9,715.6,2949.2,712.9,2952.7,708.4z"/>
	<path class="st0" d="M359.1,349.7c-2.3-9.9-0.6-19.5,2-28.7c4.5-15.3,8.7-30.9,15.2-45.3c29.3-64.2,71.8-118.1,128.5-160.4
		C536,92.1,570.4,76,609.2,70.1c2.9-0.4,5.9-0.6,9.8-1.1c0,7.1,0,13.6,0,19c-16.9,4.5-34.2,8-50.8,13.7
		c-27.3,9.4-51.7,24.5-74.1,42.6c-48.9,39.6-86.8,88-114.4,144.5c-8.9,18.3-15.7,37.4-19.7,57.4
		C359.8,347.5,359.4,348.6,359.1,349.7z"/>
	<path class="st0" d="M998.9,617.6c1.7-14.8,3.3-29.7,5-44.5c1.4-11.6,2.5-23.2,4.7-34.6c0.9-4.6,3.6-9.3,6.5-13.1
		c33.9-44.6,67.4-89.4,102.1-133.3c33.7-42.6,60.4-89.3,84.2-137.8c6.9-14,13.4-28.3,19.3-42.8c5.7-14.1,10.3-28.6,15.3-42.5
		c1.4,5.2,1.9,10.2-1,19.8c-5.4,17.5-10.7,35.1-17.8,51.9c-19,44.9-41.7,87.9-68.4,128.6c-13.8,21.1-29.8,40.9-45.1,61.1
		c-27.6,36.3-55.1,72.8-83.4,108.6c-8.5,10.7-12.9,22-14.1,35.3c-1.1,12.9-2.8,25.8-4.5,38.7C1001.4,614.4,999.8,615.9,998.9,617.6
		C998.9,617.5,998.9,617.6,998.9,617.6z"/>
	<path class="st0" d="M3178.1,694.2c0.8,10.1,1.4,18.2,2,26.4c-0.3,0-0.6,0.1-1,0.1c-0.5-1.4-1-2.7-1.9-5.1c-2.4,3.2-4.5,6-6.6,8.8
		c-22.6,30.5-44.7,61.4-67.9,91.5c-10.1,13.1-22.3,24.7-34.1,36.4c-5.4,5.3-11.9,9.6-18.4,13.7c-28.7,18.3-66.7,9.2-85.7-18.6
		c-10.7-15.7-14.6-33.4-16.3-51.8c-0.5-5.4-1.3-10.8-0.4-16.5c0.6,2.3,1.3,4.6,1.7,6.9c2,12.6,5.7,24.6,12,35.8
		c16.9,30,57.3,44.3,90.7,22.3c13.2-8.7,24.5-19.4,35.1-31c24.8-27.1,46.3-56.8,67.4-86.8c6-8.4,11.8-17,17.7-25.4
		C3173.8,699.1,3175.4,697.5,3178.1,694.2z"/>
	<path class="st0" d="M604.5,634.8c7.9-0.3,15.2,3.1,21.4,9.3c19.8,19.8,12.7,56.8-13,68.1c-8.4,3.7-16.7,3.6-25.1-0.1
		c-16.9-7.5-27.5-28.3-23.8-47.2C567.4,647.6,584.2,634.8,604.5,634.8z"/>
	<path class="st0" d="M626.1,300.8c-0.6,11.9-6.7,24.2-19.5,32.8c-8.8,5.9-18.4,7.2-28.5,3.3c-18.9-7.2-30.6-31.6-24.5-51
		c5.5-17.5,25-29.4,44-26.7C613.7,261.5,626.3,278.4,626.1,300.8z"/>
	<path class="st0" d="M2345.6,793.9c1.3,2.2,2.6,4.5,4,6.6c13.2,20,40.8,22,56.6,3.9c2.8-3.2,5.2-6.9,7.8-10.4
		c32.9-45.7,67.2-90.3,104.3-132.7c2.2-2.5,4.5-4.8,8.3-8.9c0.8,7.9,1.3,13.9,1.8,19c-4.9,5.3-9.3,9.8-13.4,14.5
		c-36,41.6-69.6,85.1-101.6,129.7c-2.1,3-4.2,6-6.5,8.8c-9.6,11.6-24.8,15.9-38.8,11.2c-14.5-4.9-23.8-17.7-24.1-33.3
		c-0.1-2.6,0-5.3,0-7.9C2344.5,794.3,2345,794.1,2345.6,793.9z"/>
	<path class="st0" d="M1635.4,575.7c1.6,11.5-0.8,21.2-4.7,30.7c-4.6,11.2-11.5,21.1-19.8,29.8c-25.3,26.7-55,46.1-91.5,53.7
		c-5.2,1.1-10.6,1.4-15.9,1.6c-21.1,0.7-23.7,2.4-32.1,21.6c-2-9.8,0.2-24.1,4.9-31.9c4.2-7,10.6-10.1,18.4-10.1
		c43.4,0.3,77.9-19.8,108.6-48c13.4-12.3,24-26.7,30-44.2C1633.6,578.1,1634.3,577.4,1635.4,575.7z"/>
	<path class="st0" d="M919,853.8c6.6,21.1,18,38.8,34.4,53.1c4.8,4.1,9.8,8.1,15.4,11c11.9,6.3,24.8,3.9,33.4-6.5
		c4.6-5.6,8.3-12.1,11.6-18.6c15.8-31.5,31.4-63.2,47-94.9c5.8-11.7,13.9-20.9,26.1-29.3c-0.6,11.7-1,22-11,30.4
		c-6.6,5.6-11.7,13.7-15.7,21.6c-16.1,31.4-31.3,63.2-47.2,94.8c-3.3,6.5-7.3,12.8-12.1,18.2c-7.7,8.6-19.8,11-30.2,6.1
		C944.4,927.3,914,886.1,919,853.8z"/>
	<path class="st0" d="M3500.6,750.5c-0.6,5.7-1,10.2-1.5,14.8c-0.4,0-0.8-0.1-1.3-0.1c0.9-11.8,1.9-23.6,2.9-36
		c35.6,5.9,67.2-2.4,95.9-21.6c27.9-18.7,51-41.6,61.1-75.5c1.7,6.3,2.2,11.4-0.4,19.9c-2.7,8.8-5.3,18.2-10.3,25.8
		c-25,38-59,63.9-104.5,72.3c-9.7,1.8-19.9,0.9-29.8,1.1C3509.1,751.3,3505.4,750.9,3500.6,750.5z"/>
	<path class="st0" d="M2539.2,832.7c1,1.2,2.3,2.2,2.8,3.6c5.8,14.9,16.6,23.5,32.5,23.8c16.4,0.4,26.9-8.5,34.2-23.1
		c14.4-28.9,29.2-57.6,45-85.7c10.7-19.1,23.2-37.3,35-55.8c0.7-1,1.5-1.9,3.2-2.6c-1.1,10-1.1,20.3-6.9,29
		c-29.5,44.1-55.1,90.3-77.5,138.3c-7,15.1-22.3,23.1-37.5,20.5c-16-2.7-27.5-15.2-29.4-32.2
		C2539.8,843.3,2539.6,837.9,2539.2,832.7L2539.2,832.7z"/>
	<path class="st0" d="M1160.9,875.4c-1.2-16.4,2.3-32.7,6.1-48.8c10.8-46.2,28.4-90.1,46.5-133.8c12.3-29.7,27.7-57.5,47.9-82.5
		c2.7-3.3,5-6.9,7.8-10.7c4.5,7.1,2.8,13.7-0.4,19.5c-3.4,6.4-7.9,12.3-12.3,18.1c-13.1,17.7-25.2,36-34.1,56.1
		c-19.7,44.8-38.5,90-51.2,137.4C1167.3,845.5,1164.3,860.5,1160.9,875.4z"/>
	<path class="st0" d="M636.7,239.4c42.8-39.6,72.4-86.8,84.8-144.2c-4,67.4-37.2,119.6-84.5,165.2c-6.6-2.8-12.3-5.3-18.4-8
		c0-6.4,0-12.6,0-20.4C624.8,234.6,630.4,236.9,636.7,239.4z"/>
	<path class="st0" d="M1125.4,143.2c11.9,6.7,23.3,13.2,35.7,20.2c-1.6,5.3-3.3,10.9-5.4,17.9c-10.8-6.2-20.5-11.8-30.6-17.6
		c-20.3,54.5-40.6,108.9-60.6,163.3c-2.6,7-5.9,13.2-12.5,19.5C1071.7,276.1,1100.8,210.8,1125.4,143.2z"/>
	<path class="st0" d="M540.6,312.5c9.4,22,22.4,37.9,46.3,39.1c26.3,1.3,40.6-15.5,50.6-38c4.3,16.2-5.1,38-21,49.9
		c-15.6,11.6-34.1,12.5-50.5,2.8C548.3,355.6,536,330.8,540.6,312.5z"/>
	<path class="st0" d="M551.2,687.4c10,22.6,23.4,39.6,48.6,39.9c25.6,0.3,39.4-16.1,49.9-37.9c0.2,2.6,0.7,5.2,0.6,7.8
		c-1,24.6-19.6,46.7-43.1,50.8c-14.1,2.5-27.2-1.4-36.5-11.6c-6.8-7.5-10.9-17.6-17.2-26.1C549.3,705,549.1,696.8,551.2,687.4z"/>
	<path class="st0" d="M3016.2,765.4c-0.2-14.3,1.8-28.1,7-41.2c8.4-21.4,16.8-42.8,20.8-65.6c0.5-2.9,2-5.6,3.3-8.3
		c12.1-24.6,27.7-47,44.3-68.7c0.5-0.7,1.5-1.1,2.9-2.1c3.9,7.6,4.5,13.8-1.2,21c-16.6,20.9-31.8,42.8-43.9,66.7
		c-3,5.9-4.8,12.3-6.7,18.7c-3.2,10.5-5.5,21.3-9,31.7C3028.3,733.5,3022.2,749.2,3016.2,765.4z"/>
	<path class="st0" d="M2162.8,526.5c3.6,6.8,1.8,12.5,0.1,18.3c-10.9,37-24.5,73.1-39.2,108.8c-17.3,42-29.4,85.5-35.5,130.5
		c-0.5,3.6-0.7,7.2-2.6,10.7c1-10.9,1.7-21.9,3.1-32.8c5.3-43.5,17.7-85.1,33.5-125.9c13.4-34.7,25.6-69.9,38.4-104.9
		C2161.1,530,2161.7,528.8,2162.8,526.5z"/>
	<path class="st0" d="M2832.5,571.6c2.8,9.4,0.9,16.4-1.5,23.1c-7.8,21.2-15.5,42.5-24.2,63.4c-9.9,24-20.5,47.7-31.4,71.3
		c-10,21.8-14.4,44.9-17.7,68.4c-0.2,1.2-0.3,2.4-0.9,3.5c-1.2-14.8,1.9-29.1,4-43.6c2.6-17.9,8.2-34.9,15.6-51.4
		c5.5-12.5,10.8-25.1,16.6-37.5c13.1-28.4,25.2-57.3,35.3-86.9C2829.2,578.9,2830.6,576.1,2832.5,571.6z"/>
	<path class="st0" d="M567.5,760.2c3.5,9.3,2.9,16.7-3.1,24c-11.7,14.4-22.7,29.3-34.8,45c-3.3-4.5-5.8-7.8-8.3-11.2
		C536.8,798.7,551.9,779.8,567.5,760.2z"/>
	<path class="st0" d="M3259.4,649.5c3.9-38.3,12.7-75.3,30.2-111.4c3.9,3.8,4.5,7.4,3.9,11.3c-0.3,1.9-1,3.9-1.9,5.6
		c-14.9,28.2-23.1,58.6-28.9,89.7c-0.3,1.6-0.7,3.2-1,4.8C3260.9,649.5,3260.2,649.5,3259.4,649.5z"/>
	<path class="st0" d="M620.5,111.3c0-4.9,0-9.9,0-14.8c0.4,0,0.7,0,1.1,0c0,4.8,0,9.6,0,14.4C621.2,111,620.8,111.2,620.5,111.3z"/>
	<path class="st0" d="M2531.2,712c0,4.2,0,8.4,0,12.7c-0.1,0-0.3,0-0.4,0c0-4.2,0-8.4,0-12.7C2531,712,2531.1,712,2531.2,712z"/>
	<path class="st0" d="M2533.2,737.2c0,4.4,0,8.7,0,13.1c-0.1,0-0.3,0-0.4,0c0-4.4,0-8.7,0-13.1
		C2533,737.2,2533.1,737.2,2533.2,737.2z"/>
	<path class="st0" d="M2529.3,686.8c0,4.1,0,8,0,12c-0.3,0-0.5,0-0.8,0c0-3.6,0-7.2,0-10.8c0-0.6,0.3-1.2,0.5-1.8
		C2529.1,686.4,2529.2,686.7,2529.3,686.8z"/>
	<path class="st0" d="M2537.2,787.7c0,4.4,0,8.9,0,13.3c-0.2,0-0.3,0-0.5,0c0-4.4,0-8.9,0-13.3
		C2536.9,787.7,2537,787.7,2537.2,787.7z"/>
	<path class="st0" d="M2539.2,832.6c-0.3-6.5-0.6-13-1-19.5c0.3,0,0.7,0,1,0C2539.2,819.7,2539.2,826.2,2539.2,832.6
		C2539.2,832.7,2539.2,832.6,2539.2,832.6z"/>
	<path class="st0" d="M998.9,617.5c0.4,5.8,0.7,11.6,1.1,17.5c-0.3,0-0.7,0-1,0c0-5.8,0-11.6,0-17.4
		C998.9,617.6,998.9,617.5,998.9,617.5z"/>
	<path class="st0" d="M2535.2,763.5c0,3.8,0,7.5,0,11.3c-0.1,0-0.2,0-0.3,0c0-3.8,0-7.5,0-11.3
		C2535,763.5,2535.1,763.5,2535.2,763.5z"/>
	<path class="st0" d="M996.9,658.8c0-3.1,0-6.1,0-9.2c0.1,0,0.2,0,0.3,0c0,3.1,0,6.1,0,9.2C997.1,658.8,997,658.8,996.9,658.8z"/>
	<path class="st0" d="M2007,848.6c-0.2-3.3-0.3-6.5-0.4-9.8c0-1,0.1-1.9,1-2.9C2007.4,840.2,2007.2,844.4,2007,848.6
		C2007,848.7,2007,848.6,2007,848.6z"/>
	<path class="st0" d="M2681.4,825.1c0,1.8,0,3.7,0,5.5c-0.2,0-0.4,0-0.6,0c-0.1-1.9-0.2-3.7-0.3-5.6
		C2680.8,825.1,2681.1,825.1,2681.4,825.1z"/>
	<path class="st0" d="M3585.2,598.6c-3.8,10.4-8.7,18.9-17.9,25c-7.6,5.1-14.6,11.5-21.1,18.1c-6.5,6.7-14.2,10.6-24.2,13.3
		c0.9-2.8,1.2-5,2.2-6.7c12.4-20.6,29.4-36.6,49.2-50C3577.1,595.9,3580.7,595.6,3585.2,598.6z"/>
</g>
</svg>
