<?xml version="1.0" encoding="utf-8"?>
<!-- Generator: Adobe Illustrator 19.0.0, SVG Export Plug-In . SVG Version: 6.00 Build 0)  -->
<svg version="1.1" id="Layer_1" xmlns="http://www.w3.org/2000/svg" xmlns:xlink="http://www.w3.org/1999/xlink" x="0px" y="0px"
	 viewBox="0 0 252.3 77" style="enable-background:new 0 0 252.3 77;" xml:space="preserve">
<style type="text/css">
	.st0{fill:#FFFFFF;}
</style>
<g>
	<path class="st0" d="M104.7,75.6c-2.2-1.4-4.4-2.9-6.7-4.1c-4.1-2.1-5.5-5.5-5.3-9.9c0.1-3.4,0-6.8,0-10.2c-0.3,0-0.7,0-1,0
		c-0.1,0.8-0.3,1.6-0.2,2.4c0.7,6.1-2.7,11.2-4.2,16.8c-0.5,2-2.8,3.5-4.3,5.1c-7.7-3.6-7.6-11.6-10.9-18c-1.1,1-2,1.7-2.6,2.5
		c-1.3,1.8-2.6,3.5-3.4,5.5c-2.3,5.8-6.6,8.8-13,9.8c-1-2.8-2.1-5.7-3.4-9.1c-6.4,5-13.8,7.3-21.2,9.6c-6.1,1.9-11.9,1.4-17-2.6
		C7.6,70.5,4,67.4,0,64.2c1.1-2.7,2-4.9,3.1-7.7c2,1.1,3.7,1.8,5.1,2.9c5.4,4.1,10.4,3.2,16-0.9c-3-1.5-5.7-2.9-8.4-4.1
		C4.3,49.3,0.5,38.7,6.3,25.5c2.6-5.8,6.8-10.2,11.6-14.2c6.2-5,13-8.6,20.7-10.6c1.3-0.3,2.6-0.6,3.9-0.7c6.2-0.4,6.9,0.1,8.7,6.2
		c0.9,3.1,1.1,3.3,5.2,5.6c0.5-1.4,1-2.7,1.4-4.1c0.6-2.2,2-3.3,4.2-3.7c3.3-0.5,6.5-1.3,9.8-1.9c2.3-0.4,4.7-1,6.5,1.2
		c1.9,2.4,2.5,4.8,1.1,7.8c-2.9,6.2-5.5,12.4-8.2,18.7c-0.8,1.8-1.3,3.7-2.3,6.6c3.6-1.8,6.1-3.2,8.7-4.4c1.5-0.7,3.1-1.1,4.7-1.3
		c3.1-0.3,5.6,0.6,6.5,4c0.2,0.6,0.6,1.2,1.1,2.1c1.1-0.9,2-1.7,3.1-2.3c3.9-2.4,7.7-5.4,11.9-7c5-1.9,6.5-1.9,9.7,3.7
		c1.9-0.8,3.7-1.7,5.7-2.3c1.9-0.6,3.9-1,5.8-1.4c4.4-0.8,7.1,1.1,8.3,5.6c0.2,0.6,0.4,1.2,0.6,1.9c3.2-0.5,6.3-1.4,9.3-1.3
		c3.3,0.2,6.8,1.6,8.4,4.7c1.4,2.7,1.6,6,2.6,10c0.3-3.4,0.8-6,0.5-8.5c-0.2-2.4,0.4-4.2,2.1-5.8c0.1-0.1,0.3-0.2,0.4-0.3
		c9.9-9.7,15.8-10.2,27.1-2c1.5,1.1,2.9,2.2,5,3.7c4.6-9.6,7.8-19.5,11.9-28.9c2.8-1.3,5.7-2.5,8.5-4c3.4-1.7,6-0.2,9.2,1.6
		c-3.1,11-6.3,21.9-9.7,34.1c3.2-2.1,5.3-3.6,7.8-5.3c2.4,1.3,4.8,2.6,7.7,4.2c1.3-1.1,2.8-2.3,4.3-3.6c3.9-3.4,8.2-6.2,13.4-7.3
		c3.7-0.8,5.9,0.2,6.6,3.9c0.5,2.9,0.4,6,0,8.9c-1.2,7.6-2.8,15-4.1,22.6c-0.3,1.6-0.4,3.3-0.6,4.9c-0.3,3.2-1.3,6.2-4.3,8.7
		c-3-2-6.3-3.9-9.3-6.1c-1.1-0.8-1.9-2.4-2.1-3.7c-0.5-2.9-0.6-5.9-0.9-8.9c-0.2-2.4-0.2-4.9-0.4-7.8c-2.3,1.1-2.5,2.8-3.1,4.2
		c-1.6,3.5-3.1,7-4.7,10.4c-5.2,11-19.2,15.9-29.6,0.2c-1.5-2.3-2.2-5.2-3.5-8.4c-0.8,1.4-1.6,2.6-2.2,3.7
		c-3.3,6-7.6,10.9-14.4,13.1c-5.6,1.9-11.1,2.8-15.3-2.7c-3.3,1.2-6.4,2.5-9.5,3.5c-6.1,1.9-9.2,0.1-10.6-6.1
		c-0.5-2.2-0.6-4.6-0.8-6.9c-0.1-1.6,0-3.3-0.9-5.2c-0.6,0.8-1.4,1.6-1.8,2.5c-1.1,3.1-2.4,6.2-3.1,9.5c-0.8,3.7-2.8,6.3-6.3,8.4
		c-2.8-1.7-5.8-3.5-8.7-5.4c-2.3-1.4-2.7-3.8-2.4-6.2c0.7-5.4,1.7-10.8,2.5-16.3c0.3-1.8,0.4-3.5,0.2-5.3c-2.3,4.7-2.9,9.7-3.8,14.7
		c-0.7,4.1-1.2,8.2-1.9,12.3C108,72.4,107.9,72.4,104.7,75.6z M4.1,61.9c-0.4,2.2,0.7,3.3,2.1,4.3c2.9,2.1,5.9,4.2,8.8,6.4
		c2.7,2.1,5.8,2.7,9,2.1c7.1-1.3,13.8-3.6,20.1-7.3c3.3-2,4.3-4.8,3.4-8.6c-1-4.3-3.3-7.4-7.6-9.2c-4.6-1.9-9.1-4.1-13.4-6.6
		c-4.5-2.6-4.8-5.5-1-9.1c5.8-5.5,13-8.6,20.8-10c0.4-0.1,0.9,0.2,1.4,0.3c0.8,1.9,1.5,3.8,2.7,6.8c2.9-5.8,3-11.1,4.4-16.6
		c-5.2-2-5.9-7.1-7.7-12c-2.6,0.3-5.1,0.3-7.5,0.8C30,5.8,21.8,10.8,14.9,17.8c-3.1,3.1-5.2,6.8-6.8,10.9C4.3,38.9,9,51,19.3,53.8
		c2.7,0.7,5.3,1.8,8,2.7c1.2,0.5,2.4,1.2,3.6,1.7c0,0.4-0.1,0.8-0.1,1.1c-4.7,2-9.3,5-14.2,5.6C12.8,65.6,8.6,63.2,4.1,61.9z
		 M81.9,72.5c6.8-7.6,8.2-28.1,3.1-38.2c-4.6-0.6-10.3,1.9-13.2,6c-2.3,3.3-4.3,6.7-6.4,10.1c-1,1.5-2,3-3,4.5
		c1.6-14.7,6.5-28,12.7-40.9c0.7-1.5,1.6-2.9,2.1-4.5c0.8-2.8-1.2-5.1-4-4.6c-4,0.7-8.1,1.7-12.3,2.7c-0.5,1.7-1.1,3.4-1.5,5.2
		c-2.2,10.5-4.5,21.1-6.6,31.6c-1.6,7.9-1.5,15.8,0.8,23.6c0.4,1.5,1.1,2.9,1.6,4.3c3.1-0.4,4.7-1.5,5.9-3.9
		c1.2-2.5,2.8-4.9,4.4-7.2c2.1-3.1,4.7-5.8,8-7.8C77.7,59.2,77.3,66.7,81.9,72.5z M216.7,7c-1.7-2.3-3.3-2.2-5.1-1.2
		c-1.4,0.8-2.9,1.6-4.5,2.1c-2.1,0.6-3.3,1.9-4,4c-2.5,7-5.5,13.9-7.8,21c-1.8,5.7-3.2,11.5-4.1,17.4c-1.1,7.6,1.8,14,7.8,18.9
		c4.7,3.9,10,3.8,14.3-0.6c6-6.2,9.6-13.7,10.5-22.5c0.5-4.5-1-7.4-5.5-8.7c-2.1,1.5-4.3,3-6.5,4.5c-2.7,1.8-2.9,2.8-1.8,5.7
		c0.5,1.3,1.2,2.9,1,4.1c-0.6,2.6-1.6,5.1-2.7,7.4c-0.6,1.2-1.7,2.1-2.6,3.1c-0.4-0.1-0.8-0.2-1.2-0.4c-0.3-2.1-0.8-4.1-0.9-6.2
		c-0.4-7.2,2.5-13.6,4.5-20.3C211,25.7,213.9,16.2,216.7,7z M137.4,46.4c0,3.5-0.2,6.5,0,9.4c0.3,4.1,0.6,8.3,1.5,12.4
		c0.7,3.3,2.3,4,5.5,3.2c2.2-0.6,4.5-1.3,6.6-2.3c2.6-1.2,3.2-2.7,1.5-4.6c-1.9-2-1.8-4.2-1.8-6.5c0.1-3.8,0.2-7.7,0.4-11.5
		c0.4-7.5-5-11.4-11.9-8.7c-2.7,1.1-5.4,2.2-8.8,3.5c0.5-2.5,0.8-4.1,1.1-5.7c0.6-3.6-0.7-5.2-4.3-4.8c-2.8,0.3-5.5,1.2-8.1,2.1
		c-3,0.9-4.2,3.1-3.6,6.2c0.9,0.8,1.9,1.6,2.8,2.3c-1.3,6.8-2.6,13.3-3.6,19.9c-0.3,2.1-0.1,5,1.1,6.6c1.6,2.1,4.4,3.2,7.2,5.2
		c1-2.5,1.9-4.4,2.7-6.3c1.7-4.3,3.2-8.8,5-13C132.1,50.8,133.9,48.3,137.4,46.4z M157,58.7c0.6,3.2,0.9,6.4,1.7,9.4
		c0.7,2.8,2.4,4,5.1,3.6c5.5-0.8,10.6-2.3,14.4-7c4.6-5.5,7.2-11.9,9-18.7c1.7-6.8,1.3-8.3-4.4-12.2c-10.8-7.4-13.5-5.3-21.4,1.5
		c-1.8,1.5-2.7,3.2-2.1,5.6c0.3,1.6-0.1,3.3-0.3,4.9C158.3,50.2,157.7,54.4,157,58.7z M104.6,72.5c0.4-1.3,1-2.5,1.1-3.7
		c0.2-1.9-0.1-3.9,0.3-5.8c1.8-8.9,3.7-17.8,5.5-26.7c0.5-2.4,0.3-4.6-2-6.6c-7.6,0.4-12.5,5.6-17.7,10.8c0.6,2.3,0.5,4.9,1.8,6.6
		c1.6,2.1,1.9,4.1,1.9,6.4c-0.1,2.2,0.2,4.3,0.1,6.5C95.1,66.4,98.3,70.2,104.6,72.5z M245.7,29.2c-5.7,0.6-10.2,3.7-14.2,7.5
		c-3.9,3.7-4.2,5.8-1.2,10.4c1.5,2.2,2,4.5,1.8,7.1c-0.1,2.5,0.1,5,0,7.4c-0.2,6.1,3.7,8.7,8.6,10.8c0.4-0.9,0.7-1.5,0.9-2.1
		c2.1-11.6,4.2-23.2,6.2-34.8C248.3,33,248,30.8,245.7,29.2z M45.3,26.6c-8,1.9-14.9,4.7-19.8,11.8c6.9,5.9,16.2,6.8,22.8,13.2
		c1.1-6.5,2.1-12.3,3.1-18.2c-1.5-0.4-2.7-0.8-3.9-1.1C46.8,30.4,46.2,28.8,45.3,26.6z"/>
	<path class="st0" d="M94.4,29.1c-1.4-2.4-2.6-4.4-3.8-6.4c2.5-5.5,4.7-11,7.3-16.3c1.6-3.3,12.5-5.3,15.3-2.8c1.1,1,1.9,2.7,2,4.2
		c0.3,2.9,0.1,5.9,0.1,9.2C108.6,20.9,101.8,24.9,94.4,29.1z M100.7,7.1c-2.1,4.6-4.2,9.1-6.3,13.6c-0.9,2-0.3,3.4,1.5,4.8
		c5.7-3.3,11.2-6.5,16.8-9.7c0-2.8,0.2-5.3-0.1-7.8c-0.2-2.4-1.8-3.4-4.2-2.9C105.8,5.7,103.3,6.4,100.7,7.1z"/>
	<path class="st0" d="M226.8,22.6c2.4-5.4,4.6-10,6.6-14.8c0.9-2.2,2.1-3.6,4.6-3.9c2.1-0.3,4.2-1.1,6.3-1.5
		c4.1-0.8,6.7,1.1,7.1,5.3c0.3,2.9,0.6,5.9,0.9,8.8c-7.3,4.3-14.3,8.3-21.7,12.6C229.3,26.9,228,24.7,226.8,22.6z M231.2,25.9
		c6-3.3,11-6,15.9-8.8c2.8-1.6,3.1-9.7,0.5-11.4c-0.8-0.6-2.2-0.7-3.3-0.5c-2.4,0.4-4.8,1.2-7.3,1.9c-2.1,4.6-4.4,9-6.2,13.6
		C230.3,22,231,23.7,231.2,25.9z"/>
	<path class="st0" d="M168.4,45c3.3,1.9,6.2,3.6,9.9,5.8c-2.1,2-3.7,3.9-5.7,5.2c-3.4,2.1-5.7,0.7-6-3.2
		C166.5,49.9,166.8,48.4,168.4,45z"/>
</g>
</svg>
