<svg xmlns="http://www.w3.org/2000/svg" width="1024" height="551" viewBox="0 0 1024 551">
  <defs>
    <style>
      .cls-1 {
        fill: #fff;
        fill-rule: evenodd;
      }
    </style>
  </defs>
  <path id="Shape_318_1" data-name="Shape 318 1" class="cls-1" d="M219.512,3h7.916c0.315,16.954,6.7,33.953,8.905,48.469,2.634,17.381-5.388,35.258-2.969,51.437,5.856,39.152,7.633,136.38-4.947,167.17-9-5.193-26.393-8.725-30.672-12.859-10.641-10.676-4.948-41.581-4.948-61.329V61.361c2.742-17.976-1.749-45.2,8.905-55.393,4.691,3.607,6.926,7.239,13.852,8.9l1.979-2.967Q218.523,7.452,219.512,3ZM1008.1,23.773c4.79,1.992,5.84,4.441,8.9,7.913-0.89,14.052-1.02,29.722-7.92,40.556h-0.98q-10.89-3.956-21.773-7.913c2.321-3.92,2.954-5.474,1.979-10.881l-6.926-.989c-3.169,1.6-4.144,1.829-5.936,4.946l-0.99,10.881-22.757.989v2.968c6.093,15.208-1.3,15.555.989,29.675,4.072,25.074,16.3,102.862,2.969,124.635-3.84,6.274-11.992,15.063-16.821,21.762h-3.957c-7.385-9.235-22.763-12.409-26.715-24.729-3.8-11.834.72-29.513,1.979-38.578q-1.485-54.892-2.969-109.8h-1.979c-13.822-3.854-26.466,16.153-32.651,24.729h-0.99c-2.068-7.862-6.529-6.56-9.894-11.87-10.02-15.811-8.332-37.808-4.947-56.383,41.2-8.233,107.519-3.6,148.419-1.978ZM555.921,25.751c10.859-.375,20.155.377,26.715,3.957,7.436,17.932,2.879,26.768-3.957,42.534-21.573-.09-40.085-2.578-57.388.989q-4.947,7.418-9.894,14.838c20.426,5.824,58.873,2.942,72.229,12.859-0.379,21.316,3.133,36.118-9.895,47.48-22.125-.543-58.339-4.859-71.239,7.913q-0.99,3.462-1.979,6.924l12.863,9.892c15.326,6.431,63.77-3.882,72.229,5.935,4.158,6.653,4.454,18.111,2.968,27.7l-75.2,6.924-19.789-.989c-8.062,2.089-13.027,5.917-25.726,5.935-14.456.021-19.82-7.577-30.672-5.935l-26.715,6.924L381.78,217.65c-9.155,1.917-18.09,9.187-25.725,11.87h-2.969l-26.714-7.914c-16.113-3.016-29.566,2.92-43.536,0-7.691-15.986-5.773-168.108.99-186.953,5.972-2.684,21.991-11.254,27.7-.989q1.979,69.235,3.958,138.484c20.282-.77,42.784,5.879,57.387-4.946l10.884,5.935,2.968-8.9c12.868,3.258,25.073-5,34.631-.99,0.719,18.962,8,19.694,22.757,24.73H445.1c5.142-59.762-7.95-110.222,2.969-158.267C472.346,29.874,538.14,34.283,555.921,25.751Zm99.934,0.989,21.767,2.967c3.386,10.608,17.666,26.368,29.684,28.686-3.715,16.473,25.578,25.239,32.651,34.621,9.409,12.48,7.4,30.257,19.789,39.567V130.6c11.617-25.473-2.386-71.733,4.947-99.906,8.487-1.483,22.511-3.875,30.673,0,11.485,8.856,6.654,33.594,16.82,44.513L807.239,85.1c8.51,16.066-1.423,27.13,2.968,48.469,4.363,21.2,2.158,48.851,1.979,75.177l-13.852,14.838-37.6-1.979c-5.513-15.779-62.506-100.215-74.208-106.83v1.979c-5.4,13.385-.592,55.266.99,67.263h0.989c4-3.243,4.968-6.01,10.884-4.946v8.9c-16.433,8.212-31.282,12.931-57.387,12.859l-11.874-10.881,0.99-21.762-4.947-14.837c1.237-7.613,8.172-20.035,10.883-26.708V82.134q0.5-25.716.99-51.437C642.467,26.461,652.011,29.819,655.855,26.74Zm-543.2,78.144c1.888-20.818-2.679-32.93-10.884-45.5,3.015-7.714,9.021-13.741,6.926-22.751,19.845,4.639,35.9,23.651,30.673,49.459-37.036,20.839,17.421,37.044,9.894,73.2-3.885,18.659-40.391,68.53-57.387,73.2-4.882-7.438-12.8-22.011-25.725-20.772l-18.8,1.978c-14.278-2.9-26.878-19.25-33.641-30.664-3.445-5.814-14.98-28.065-6.926-34.621l18.8-3.957C43.3,167.274,77.118,199.943,108.7,164.235c0.347-8.229-.2-14.309-2.968-18.8L83.959,133.57c-24.472-9.315-51.855-6.153-63.324-27.7q-0.495-13.353-.989-26.708c-9.12-35.556,26.641-55.271,66.292-45.5l0.99,1.978c-4.115,7.913-3.658,7.69-4.947,17.805-5.528,2.739-7.55,6.492-12.863,8.9l3.958-5.935-2.968-2.968H63.181C57.811,59.064,56.6,59.8,47.35,62.35c-1.213,6.895-2.5,15.086-.989,22.751,7.944,8.2,15.09,11.793,32.651,10.881L89.9,94.993C97.483,97.842,100.063,104.2,112.653,104.884Zm774.73,110.787c30.876,23.413,4.173,118.616,14.842,163.213,19.24-2.711,39.941,8.88,56.4,12.86,10.47,2.532,17.217-9.585,23.747-5.935l2.968,1.978q-1.483,10.385-2.968,20.773c-8.309,1.524-15.888-2.733-22.757-1.979-20.144,2.213-54.575,15.429-78.166,3.957-9.308-30.994,2.112-68.428-2.968-99.906-3.24-20.074-7.506-52.439-1.979-74.188C878.6,228.2,885.519,223.187,887.383,215.671Zm-78.165,4.946,0.989,1.979ZM633.1,322.5H628.15a302.5,302.5,0,0,1,5.937-58.361c14.9-10.7,32.25-19.729,46.5-30.664l20.778,3.956q0.495,0.99.989,1.979c-5.993,15.65-8.89,32.555-8.9,54.4l9.895,7.913c-3.862,5.465-3.465,7.835-4.947,14.838l-14.842,2.967c0.494,53.372,1.592,103.736-11.873,146.4-10.994-2.07-23.139-5.564-35.62-8.9q-0.5-.99-0.989-1.978c4.8-11.244-1.5-43.16-4.948-58.361Q631.614,359.6,633.1,322.5Zm87.07-74.188c4.406,1.348,3.869,1.572,5.937,4.946l-2.968,4.946-3.958-.989-0.99-2.968Q719.179,251.282,720.168,248.314Zm32.652,5.935c8.522,1.11,23.06,5.592,25.725,12.859,3.385,12.388,3.843,29.351,4.947,40.556l-4.947,2.968c2.06,17.957-2.048,38.772,2.969,56.382,12.151,0.116,21.17.4,28.693,2.968l1.979,0.989c6.149-1.939,10.383-5.478,19.789-5.935l10.884,9.892,7.915-2.968c1.536,9.625,2.986,19.148,2.969,31.654-11.839,3.352-22.844,8.192-31.662,14.837l-2.969-1.978q-0.495-2.967-.989-5.935c-15.124,2.468-55.313,5.342-68.272.989-3.351-49.054-5.283-87.85,0-127.6C751.313,272.931,749.59,263.941,752.82,254.249ZM430.263,484.726q-0.99-3.462-1.979-6.925-5.442-3.46-10.884-6.924c-0.022-23.105-8.168-29.661-12.863-46.491q1.485-18.792,2.969-37.588v-47.48c-4.02-20.992-10.367-54.879,0-76.166,11.345-3.7,37.523-7.771,50.461-1.979,6.732,19.873,3.163,70.246,27.7,71.221,7.454-4.059,13-12.858,18.8-18.8V312.61c-8.968-3.33-13.6-6.843-17.81-14.837,12.163,2.834,15.729-1.506,18.8-10.881l-10.884-4.946c4.129-13.207,13.952-18.592,23.747-25.719l49.472,2.968v8.9l-6.926,2.968c11.444,19.115.945,35.241,4.947,59.35,1.264,7.618,6.581,21.348,3.958,31.654q-3.463,8.9-6.926,17.805c-4.7,19.532,8.084,38.913,5.936,60.339-3.416,34.076-7.5,73.021-10.884,107.819-13.735-.221-19.868,1.192-29.683,2.968,2.443-12.506-9.582-16.951-16.82-22.751,0.3-26.138-12.741-62.736-3.958-81.112l-3.958-4.946c4.223-6.738,11.968-22.784,6.926-34.621a26.091,26.091,0,0,0-12.862-13.848c-8.675-2.475-19.514-.025-27.705.989,0.093,0.7-3.6,71.169-3.958,72.21L455,483.736C445.345,483.353,439.426,483.992,430.263,484.726Zm298.81-222.564,5.937,0.99-0.99,2.967-2.968,2.968-1.979-.99v-5.935Zm-0.989,10.881h2.968l8.9,10.881L736,285.9c-3.009-2.1-4.233-4.03-7.915-2.968l-4.947,1.978q0.989,11.374,1.978,22.751l-10.883,2.968c1.5,5.222.315,7.342-1.979,10.881l-2.969.989-1.978-1.979q-1.485-6.923-2.969-13.848c5.145-1.652,7.4-3.642,9.895-7.913v-0.989c-8.246-2.956-11.676-9.8-14.842-17.805l0.99-.99c7.2,0.3,7.89,2.012,11.873,4.946q0.989-4.945,1.979-9.892Zm-346.3,32.643c6.749,0.867,9.664,2.655,12.863,6.924V313.6h-3.958l-6.926-2.967C381.7,308.63,382.409,309.642,381.78,305.686Zm3.958,11.87c6.564-.063,6.513-0.021,8.9,3.957-5.462,7.272-7.941,13.944-5.937,26.707l-4.947-3.956c-3.194-8.047-6.377-14.911-4.947-25.719ZM728.084,331.4c12.833,4.242,6.253,23.368,2.968,32.643h-0.989v-1.978c-4.4-6.365-4.506-16.167-6.926-24.73-3.613-1.047-2.91-.8-4.948-2.967Zm102.9,12.86,3.958,2.967v0.989H830Q830.491,346.242,830.985,344.264Zm-112.8,5.935,1.979,1.978-1.979.989V350.2Zm-73.218,97.927c2.251,4.785,4.757,5.192,8.9,7.914,5.649-.824,8.953-2.467,11.873-5.935v-0.989Z"/>
</svg>
