<?xml version="1.0" encoding="utf-8"?>
<!-- Generator: Adobe Illustrator 19.0.0, SVG Export Plug-In . SVG Version: 6.00 Build 0)  -->
<svg version="1.1" id="Layer_1" xmlns="http://www.w3.org/2000/svg" xmlns:xlink="http://www.w3.org/1999/xlink" x="0px" y="0px"
	 viewBox="0 0 4158.8 825.2" style="enable-background:new 0 0 4158.8 825.2;" xml:space="preserve">
<style type="text/css">
	.st0{fill:#FFFFFF;}
</style>
<g>
	<path class="st0" d="M1023.1,22.1c62.8,0,125,0,187.6,0c4,10.5,7.9,21,11.8,31.5c33.4,90.1,66.7,180.3,100.1,270.4
		c4.2,11.2,8.3,22.5,12.4,33.7c0.6,1.6,1.1,3.4,2,4.9c2.1,3.4,5,3.3,6.8-0.3c1.3-2.7,2.1-5.6,3.2-8.4
		c33.7-90.3,67.4-180.6,101-270.8c6.9-18.5,13.8-37,20.7-55.4c0.7-1.8,1.5-3.6,2.3-5.5c56.9,0,113.6,0,171,0
		c37.9,257.7,75.9,515,113.7,772.3c-5.8,1.9-207,2.7-224.4,1c-0.8-5.1-1.7-10.4-2.4-15.7c-4-32.2-8-64.3-11.9-96.5
		c-4.2-34.9-8.4-69.8-12.6-104.7c-5.8-47.2-11.7-94.5-17.5-141.7c0-0.2,0-0.5,0-0.7c-0.4-2.4-0.2-5.4-3.5-5.8
		c-3.3-0.4-3.9,2.4-4.5,4.9c-1.3,4.8-2.7,9.6-3.9,14.5c-17.6,69.7-35.1,139.4-52.7,209.1c-10.6,42.1-21.2,84.2-31.9,126.3
		c-0.9,3.4-1.9,6.7-3,10.5c-46,0-91.9,0-138.4,0c-2.6-10.2-5.3-20.5-7.9-30.8c-19.8-78.4-39.5-156.8-59.3-235.2
		c-7.8-30.7-15.6-61.4-23.5-92.1c-0.8-2.9-0.5-7.5-5-7c-3.6,0.4-3.5,4.4-3.8,7.3c-3.6,29.7-7.2,59.4-10.9,89.1
		c-4.7,38.1-9.5,76.2-14.2,114.3c-3.3,26.5-6.5,53-9.7,79.4c-2.9,23.8-5.8,47.5-8.7,71.3c-0.1,1.2-0.6,2.4-0.9,3.9
		c-65.1,0-130,0-195.7,0C947.2,537.5,985.2,280,1023.1,22.1z"/>
	<path class="st0" d="M0,737.2c6.3-77,12.6-153.6,18.9-230.1c0.1-0.9,0.8-1.7,1.3-2.9c10,8.8,19.6,17.5,29.5,25.8
		c31.3,25.9,64.4,49,102.4,64.2c20.5,8.2,41.7,14.2,64.1,13c14.7-0.7,27.5-5.6,35.1-19.2c6.8-12.3,7.7-25.2,1.9-38.2
		c-6-13.3-15.9-23.6-27.3-32.3c-13.9-10.6-28.2-20.6-42.5-30.7c-20.3-14.2-41-27.6-60.9-42.3c-49.8-36.7-80-86.1-90.4-146.8
		c-8.8-51.1-4.8-101.6,14.7-150.1C71.8,85.3,117,43.2,179.4,19.2c29.8-11.5,60.9-16.8,92.8-18.6c27.6-1.6,54.8,0.3,82,4.5
		c31.5,4.9,61.6,14.7,90.9,27.1c26.5,11.2,52,24.3,77.4,39.1C510,136.9,497.5,202.4,485,268.8c-9.2-5.7-17.4-10.9-25.8-15.8
		c-26.5-15.7-53.9-29.4-84.3-36.4c-11.2-2.6-22.6-4.2-34.1-3.6c-11.1,0.5-20.5,4.6-28.9,12.3c-10.7,9.8-14.7,32.8-3.2,46.7
		c5.7,6.8,12.5,13.1,19.7,18.2c19.2,13.6,38.9,26.3,58.4,39.5c29.4,20,57.5,41.6,82.3,67.2c30.1,31,52.7,66.4,62.9,108.9
		c4.4,18.3,6.3,36.8,6.8,55.6c0.6,24.8-1.4,49.4-7.3,73.5c-9.9,40.3-28.2,76.2-56.6,106.7c-41.1,44.1-92.6,68.4-151.3,78.9
		c-28.2,5-56.6,5.9-85.1,4c-46.4-3.1-91.1-13.9-134.2-31.6C67.8,777.7,33.5,759,0,737.2z"/>
	<path class="st0" d="M2389.2,54.3c-23.4,77.4-46.4,153.5-69.6,230.5c-2.9-2.4-5.2-4.1-7.4-6c-20.2-17.6-43.3-29.5-69.9-33.8
		c-42.7-6.9-80.1,4.5-111.6,34.3c-25.6,24.2-39.4,54.4-42.7,89.2c-5.3,57.3,14.1,105.1,57.9,142.3c23,19.5,50.1,30.7,80.7,32
		c50.2,2.1,88.7-18.8,116.7-60c11.8-17.5,18.3-37,21.9-57.7c0.3-1.7,0.6-3.3,1.1-6.1c67.7,47.4,134.6,94.3,202,141.5
		c-3.8,9.1-7.1,17.7-10.8,26.1c-15.9,35.1-36.4,67.2-62.1,95.8c-37.3,41.4-82,72-134.2,91.6c-27.5,10.3-55.8,16.8-85.1,19.6
		c-63.9,6-124.8-4.9-182.8-32.1c-80-37.5-140.3-96.1-183.4-172.8c-24.9-44.4-41.1-92-49.3-142.2c-5.2-31.6-6.7-63.6-4.6-95.6
		c3.8-55.7,18-108.7,43.8-158.3c14.6-28.1,32.4-53.9,53.6-77.4c29.6-32.9,64.5-58.9,104.2-78.3c34.8-17,71.5-28,110.2-31.6
		c14.1-1.3,28.4-2.7,42.5-2.3c49.2,1.2,96.5,11.6,141.2,32.4C2364,41.2,2376,47.7,2389.2,54.3z"/>
	<path class="st0" d="M3904.4,795.6c-78.3,0-155.7,0-234,0c0-3.5,0-6.7,0-9.8c0-115,0-230,0.1-345c0-6.7-1.4-12.5-4.9-18.3
		c-57-97.4-113.8-195-170.7-292.5c-20-34.3-40-68.6-60-102.9c-0.7-1.3-1.4-2.6-2.4-4.6c2.4-0.3,4.2-0.7,6-0.7
		c78.7,0,157.5,0,236.2-0.1c4.7,0,7.1,1.8,9.3,5.7c26.9,46.7,54,93.4,81,140.1c7.6,13.2,15.3,26.4,22.9,39.5
		c0.5,0.9,0.9,1.8,1.5,2.6c2.6,3.5,5,3.7,7.7,0.2c2.9-3.7,5.4-7.8,8.1-11.7c38.2-56.5,76.4-113,114.5-169.6
		c3.3-4.9,6.8-6.8,12.7-6.8c72.5,0.2,145,0.1,217.5,0.1c2.5,0,4.9,0,8.8,0c-1.9,3.3-3.1,5.6-4.5,7.8
		c-43.6,69.9-87.2,139.9-130.8,209.8c-38.2,61.3-76.3,122.6-114.6,183.8c-3,4.9-4.5,9.6-4.5,15.4c0.1,115.5,0,231,0,346.5
		C3904.4,788.2,3904.4,791.4,3904.4,795.6z"/>
	<path class="st0" d="M2872.8,22.2c175.6,0,350.7,0,526.3,0c0,69,0,137.7,0,207.3c-3,0-5.9,0-8.8,0c-37.7,0-75.5,0-113.2,0
		c-2,0-4,0-6,0c-3.4,0-5,1.7-5,5.1c0,2.5,0,5,0,7.5c0,181,0,362,0,543c0,3.2,0,6.5,0,9.5c-5.7,1.6-224.4,2-234.1,0.4
		c0-187.9,0-376,0-565.1c-14-0.7-27.2-0.3-40.3-0.3c-13.2-0.1-26.5,0-39.7,0c-13,0-26,0-39,0c-13.2,0-26.4,0-40.1,0
		C2872.8,160.2,2872.8,91.6,2872.8,22.2z"/>
	<path class="st0" d="M2580,22.1c78.5,0,155.7,0,232.8,0c1.5,5.3,2.1,761.9,0.5,773.3c-77.3,0-154.6,0-232.2,0c0,0-0.2-0.2-0.4-0.3
		c-0.2-0.2-0.3-0.4-0.4-0.6c-0.1-0.5-0.3-1-0.3-1.5c0-237.7-0.1-475.4-0.1-713.1C2580,61,2580,42,2580,22.1z"/>
	<path class="st0" d="M849.1,795.6c-77.5,0-154.6,0-232.3,0c0-257.7,0-515.1,0-772.5c4.9-1.6,220.5-2.2,232.3-0.5
		C849.1,280,849.1,537.6,849.1,795.6z"/>
</g>
</svg>
