<?xml version="1.0" encoding="utf-8"?>
<!-- Generator: Adobe Illustrator 19.0.0, SVG Export Plug-In . SVG Version: 6.00 Build 0)  -->
<svg version="1.1" id="Layer_1" xmlns="http://www.w3.org/2000/svg" xmlns:xlink="http://www.w3.org/1999/xlink" x="0px" y="0px"
	 viewBox="0 0 1070.8 498.9" style="enable-background:new 0 0 1070.8 498.9;" xml:space="preserve">
<style type="text/css">
	.st0{fill:#FFFFFF;}
</style>
<g>
	<path class="st0" d="M492.6,13.6c0.2-1.9,0.4-3.3,0.6-5.2c7.7,0,15.2,0,23.1,0c1.3,10.2,2.6,20.2,3.9,29.8
		c5.3-6.4,10.2-13.1,15.9-19c8.1-8.3,18.3-12.5,29.9-13.4c11-0.9,22.2-1.1,32.4,3.3c13.4,5.7,21.6,16.2,24.3,30.8
		c1,5.6,2.4,11.1,3.6,16.7c0.5,0.1,1.1,0.2,1.6,0.3c1.2-2.5,3-4.9,3.5-7.5c2.2-10.9,6.6-20.7,14.2-28.7c8.2-8.6,18.7-14.3,30.3-16.5
		c11.8-2.3,24-2.7,35.8,1.3c11.4,3.9,19.3,11.5,24.5,23.3c4.4-9.2,8.3-17.4,12.3-25.8c10.9,0,21.6,0,32.2,0c14,0,28,0.3,42-0.1
		c10.4-0.3,19.1,3,26.9,10.4c2.6-2.8,4.8-5.9,7.6-8.3c1.8-1.5,4.5-2.9,6.8-2.9c26.3-0.5,52.5-0.8,78.8-1.1c5.1-0.1,10.1,0,15.5,0
		c0.1,2.3,0.2,4.2,0.3,6.1C961-1,967.4,1,973,0.9c23.3-0.3,46.6-0.8,69.9-0.9c15.4-0.1,24,10.5,26.9,22.5
		c2.4,10.1-0.2,19.7-1.5,29.5c-1.9,14.2-4.6,28.3-6.5,42.5c-0.9,6.7-3.4,12.3-8.1,17c-2,2-4.1,3.9-6.3,6.1
		c15,10.2,14.2,24.9,12.1,39.9c-1.5,10.6-3.3,21.1-4.8,31.6c-1.6,11.2-3.1,22.3-4.6,33.8c2.1,0.1,4,0.2,7.1,0.3
		c-1.3,6.8-2.5,13.3-3.9,19.8c-0.2,0.9-2,1.5-3.1,2.2c-9.9,5.6-19.8,11.2-29.7,16.7c-1.8,1-3.9,1.9-5.9,2c-15.3,0.5-30.6,0.8-45.9,1
		c-2.3,0-4.5-0.8-6.4-1.2c-6.6,0.8-13,1.8-19.4,2.1c-14.6,0.8-29.2,1.2-43.7,2c-4.4,0.3-8.7,1.6-13.1,2.1c-9.7,1.1-19.4,2-29,2.9
		c-13,1.3-25.9,2.6-38.9,3.8c-3.9,0.4-7.9,0.4-12.4,0.7c-0.3-10.5-1.3-21.2,9.6-27.4c4-35.5,8-70.2,12-105.1
		c-6.9,6.3-12.7,12.9-19.8,17.7c-6.9,4.6-15.1,7.3-23.4,11.2c-2.9,23.2-5.9,47.4-8.9,72.1c2.4-0.3,4.7-0.6,7.3-1
		c-0.3,9.9,0.3,19.4-7.4,27c-2.9,2.9-4.8,6.7-7.7,9.7c-1.9,1.9-4.5,3.8-7,4.2c-17.7,2.5-35.4,4.6-53.8,7c1.3-8.9-1-18.1,4.9-26.1
		c5.3-7.2,4.5-15.8,4.7-24.3c-0.5,0.7-1.2,1.4-1.3,2.2c-6.2,28.7-21.9,49.1-50.7,57.8c-11.7,3.6-23.8,3.7-35.8,1.4
		c-9.3-1.8-13.4-9.3-17.5-16.6c-1.9-3.3-3.3-6.9-5-10.5c-6.4,2.7-6.9,8.5-8.9,13.2c-8.1,18.2-21.8,29.7-41.1,34
		c-7.5,1.7-15.2,2.3-22.9,3.1c-16.4,1.6-29-10.7-34.1-24.5c-0.5-1.5-1.1-2.9-1.7-4.7c-2.1,5.9-3.7,11.4-6.1,16.6
		c-6.1,13.6-16.1,23.5-29.6,29.8c-11.3,5.2-22.6,8.9-35.4,9.1c-11.1,0.2-19.7-3.6-27.4-11c-3-2.8-6.5-5-9.6-7.8
		c-6.6-6-9.5-14.1-11.1-22.5c-2.4-13.1-1-26.3,0.7-39.5c1.1-8.3,1.4-16.8,2.3-25.1c1.2-12.6,2.6-25.2,3.9-37.8
		c0.8-7.9,1.3-15.8,2.1-23.6c1.2-11.6,2.6-23.2,3.9-34.8c0.8-7.7,1.3-15.4,2.1-23.1c1.2-10.8,2.5-21.5,3.7-32.3
		c1.1-9.3,2.3-18.6,3.2-27.9c1.7-16.5,5.3-32.3,17.4-44.5c7.9-8,17.7-12.8,28.6-15.9C462.2,2.8,477.5,5.3,492.6,13.6z M574.7,12.9
		C552,11.8,532.2,27,526,48.1c-3.9,13.4-4.4,27.8-6.2,41.8c-1.3,10.5-2.3,21-3.5,31.5c-1.5,13.1-3,26.1-4.6,39.2
		c-1.2,10.4-2.5,20.9-3.7,31.3c-1.1,10-2.2,20-3.3,29.9c-1.1,9.8-2.6,19.6-3.2,29.5c-0.7,11.5-1.7,23.2-0.4,34.5
		c1.6,13.6,10.5,21.1,23.3,21.2c14.9,0.1,29.2-2.4,42-10.9c12.9-8.5,22.1-19.7,24.8-35c2.2-12.2,3-24.6,4.4-36.9
		c1.5-13.3,3-26.6,4.6-39.9c1.1-9.5,2.3-19,3.4-28.5c1.5-13.6,3-27.3,4.5-40.9c1.2-10.5,2.3-21,3.5-31.5c0.8-7.4,1.6-14.8,2.7-22.2
		c1.5-10.1,2-20.1-2.7-29.5C604.4,17.2,591.7,12.7,574.7,12.9z M730.8,48.1c0-17.8-7.4-29.4-20.1-33.8c-15.2-5.3-30.5-4.7-45,2.6
		c-15,7.6-24.8,19.4-26.9,36.7c-1,8.7-2.1,17.4-3.1,26c-1.6,12.8-3.3,25.5-4.8,38.3c-1.4,11.6-2.7,23.3-4.2,34.9
		c-1.6,12.7-3.2,25.5-4.8,38.2c-1.2,9.5-2.8,19-3.5,28.5c-1.1,13.3-5.1,26.3-2.5,39.9c2.1,11,9.6,23.9,22,24.6
		c4.4,0.3,8.8-0.2,13.1,0c12.2,0.4,23.1-3.7,32.9-10.3c11.9-8,21.4-18.1,23.1-33.4c1.2-10.9,2.7-21.9,4.1-32.8
		c1.6-12.7,3.3-25.4,4.9-38.1c1.1-9,2-18,3.1-27c1.6-12.5,3.3-25,4.9-37.6c1.1-9.3,2-18.7,3.1-28C728.2,66.1,729.8,55.4,730.8,48.1z
		 M462.5,109.6c12.1-1.6,23.6-3.2,35.1-4.7c0.8-7.7,1.5-14.7,2.1-21.8c1.2-12.5,2.4-25,3.6-37.5c0.8-8.4,1.6-16.8,2.4-25.2
		c0.3-3.1-0.7-5.2-5.5-5.5c-0.7,4.2-1.4,8.5-2.2,13.2c-12.4-12.2-26.8-17.7-43.8-15.1c-17.8,2.7-31.7,11.5-40.3,27.7
		c-4.4,8.3-5.8,17.4-6.4,26.7c-0.8,11.5-2.4,23-3.7,34.5c-1.2,10.8-2.3,21.7-3.4,32.5c-1.2,11.2-2.4,22.3-3.6,33.5
		c-1.1,10.5-2,21.1-3.1,31.6c-1.2,11.8-2.6,23.6-3.9,35.5c-1.1,10.7-2.3,21.4-3.1,32.1c-1.1,14-2.8,28.1-2.5,42.1
		c0.2,9.4,5.1,17.5,14.3,22.1c11,5.6,22.2,3.6,33.3,0.6c27.6-7.5,45.2-29.6,47.2-58.6c0.7-10.7,2.6-21.3,3.8-31.9
		c0.6-5.1,0.7-10.2,1-15.4c-11.6,1.8-22.7,3.5-34.2,5.3c-1.3,9.1-2.6,18.2-3.7,27.3c-1.8,15.2-3.2,30.4-5.2,45.5
		c-0.6,4.6-2.2,9.1-3.9,13.5c-2,5-6.9,6.1-11.5,5.8c-4.4-0.3-7.4-3.5-7.4-7.9c-0.1-7,0.3-14.1,1-21.1c1.5-15.9,3.3-31.9,4.9-47.8
		c2-19,4.1-38,6-57c1.8-17.4,3.3-34.9,5-52.3c1.9-19.5,4.1-39,6-58.6c1.5-15.1,2.5-30.3,4.2-45.4c0.4-3.4,2.2-6.9,4.2-9.8
		c2.6-3.7,8.8-4.9,13.1-3.2c4.7,1.8,7.1,5,6.5,10.3c-0.6,5.3-0.6,10.6-1.1,15.9c-0.8,10.1-1.9,20.1-2.7,30.2
		C464.2,87.5,463.4,98.3,462.5,109.6z M1028.9,120.6c3.3-2,6.4-3.6,9.2-5.5c6.3-4.3,11.9-9.3,13.5-17c1.5-7.1,2.1-14.3,3.2-21.5
		c2.2-14.3,4.3-28.6,6.8-42.8c2.1-11.6-4.9-24.2-15.6-25.6c-7.8-1-15.9-0.6-23.8-0.6c-17.3-0.1-34.5,0-51.8,0
		c-2.4,2.7-2.2,5.8,0.9,7c4.1,1.6,4.6,4,3.5,7.6c-0.6,1.9-0.8,3.9-1,5.8c-2.1,14.2-4,28.4-6.2,42.6c-2.9,18.7-5.9,37.4-8.8,56.1
		c-2.1,13.8-4.2,27.7-6.3,41.5c-2.5,16.6-5.1,33.2-7.7,49.8c-0.9,5.6-1.9,11.3-2.8,17c-2.6,0.1-4.5,0.2-7.4,0.3
		c-0.2,2.2-1.2,5-0.2,6.4c1,1.3,3.9,1.5,6.1,1.7c2.6,0.2,5.3-0.2,8-0.3c12,0,23.9,0,35.3,0c2.9-6.7,1.6-8.7-5.6-10.8
		c4.9-34.9,9.9-69.9,14.8-105.2c6.6,0,13-0.1,19.3,0c4.8,0.1,8.1,3.4,7.5,7.3c-1.6,10.9-3.2,21.8-5,32.7
		c-3.6,21.9-7.3,43.8-10.9,65.7c-0.7,4.5,2.1,7.3,6.7,7c4.8-0.3,9.6-0.5,14.4-0.8c6.1-0.3,12.3-0.6,18.4-1c3.4-0.2,5.2-1.8,3.8-6
		c-2.7-0.5-5.4-1-8.2-1.6c1.6-11,3.1-22.1,4.8-33.1c2.2-14,4.7-27.9,6.7-41.9c0.8-5.7,1.7-11.7,0.6-17.2
		C1048.8,127,1040,122.5,1028.9,120.6z M760.4,21.1c-0.6,5.8-1.1,11.2-1.8,16.6c-1.6,12.6-3.2,25.2-4.8,37.8
		c-1.1,8.9-2.1,17.7-3.3,26.6c-1.6,12.3-3.2,24.5-4.7,36.8c-1.1,9.2-2.1,18.4-3.3,27.5c-1.5,12.3-3.2,24.5-4.7,36.8
		c-1.3,9.6-2.7,19.3-3.7,28.9c-1,8.7-1.6,17.5-2.5,27.7c-1.5,1.5-9.3-1.5-7.4,7.3c2.1,0.2,4.5,1,6.8,0.7c10.7-1.5,21.4-2.9,32-5
		c4.4-0.9,10.4,0.9,13.4-6.6c-3.4-1.5-6.7-2.9-10-4.4c4.8-36.9,9.6-74.4,14.3-110.9c7.2,0,13.6,0.8,19.7-0.2
		c6.8-1.1,14-2.6,19.8-6.1c11.2-6.8,17.6-17.1,18.8-30.6c1.2-13.6,3.2-27,4.9-40.6c1.2-9.4,2.8-18.8,3.9-28.2
		c1.2-10.2-2.5-21-15.3-23.2c-6.5-1.1-13.3-1-19.9-1c-12-0.1-24,0.1-36,0.2c-6.6,0-13.3,0-21.2,0C751.7,14.5,752.8,17.6,760.4,21.1z
		 M892.3,120c4.8-33.6,9.3-65.7,14-98.4c2.7,0.2,4.6,0,6.3,0c6.3,0.1,12.7-0.2,19,0.1c3.7,0.2,7.3,1.2,11.6,2
		c-1.8,11-3.3,20.8-5.1,31.8c2.1-0.3,4.2-0.6,6.4-0.9c-0.5-0.5-1-1-1.5-1.5c2.2-14.5,4.5-29.1,6.9-44.4c-28,0-55.5,0-83.3,0
		c-4.2,6.8-3.8,10.4,4.2,13c-10.7,73.5-21.4,147.1-32.1,220.4c-6.7,3.1-7.5,4.3-6.3,11.3c27.6-3.3,55.3-6.6,82.2-9.8
		c2.1-14.2,4.1-27.7,6-41.3c0.3-2-0.3-4.2-0.6-7.1c-2.1,1.1-3.8,1.5-4,2.2c-2.8,11.4-5.4,22.8-8,34.2c-10.6,1.3-21.3,2.7-32.8,4.1
		c5-35.2,9.9-69.9,14.8-104.2c11.3,0,22.3,0,33.7,0c0,6.3,0,12.2,0,18.7c2.2-0.2,3.9-0.4,5.8-0.6c0.4-4.1,0.8-7.7,1.2-11.2
		c1.2-9.7,2.9-19.3,3.6-29c0.3-4.4,3.5-9.2-0.9-13.9c-9,5.2-4.9,15.3-8.8,22.7C914.4,118.8,903.8,119.4,892.3,120z M459.9,128.5
		c-0.3,0-0.5,0.1-0.8,0.1c-2.7,31.3-5.4,62.6-8.2,94.8c14.7-2.7,28.8-5.2,42.7-7.8c1.4,2.6,2.4,4.6,3.8,7.2c3-27.4,6-54,9-81
		c-13.5,1.2-26.6,2.4-40,3.6C464.1,139.7,462,134.1,459.9,128.5z M917.7,174.9c-7.3,0-14.5,0-21.5,0c0-5.9,0-11.1,0-16.4
		c-0.5-0.1-0.9-0.1-1.4-0.2c-3.3,22.7-6.5,45.5-9.8,68.4c1.3,0,2.2,0,3.5,0c0.4-1.6,0.9-3.3,1.3-5.1c0.4-2.3,1.1-4.6,0.9-6.8
		c-1.4-10.5,7.5-14.2,13.2-19.9c2.4-2.4,5.2-4.9,8.3-5.7c3.1-0.8,4.1-2.6,4.6-4.9C917.2,181.4,917.3,178.4,917.7,174.9z M927.6,83.8
		c-7.4,0-14.3,0-21.8,0c-1.1,8.3-2.2,16.3-3.4,25.1c8.8-7.5,17.3-14.7,25.2-21.4"/>
	<path class="st0" d="M132.9,444.6c-15.7,21.5-32.9,38.5-61.9,36.5c0.3,6.5-5.4,7.6-9.3,10.6c-7.5,5.7-15.7,7.5-24.9,7.3
		c-12.1-0.3-24.3-0.1-36.9-0.1c3.9-53.8,7.7-107.3,11.6-161c9-3.4,17.5-6.7,26.1-9.9c6-2.2,11.9-4.6,18-6.4c2.9-0.9,6.2-0.5,10-0.8
		c0.3-12.5,5.5-26.6-1.1-40.1c-4-8.2-8.8-16.3-14.9-23c-20.2-22.4-30-48.1-27.8-78.3c1.5-20.5,3-40.9,5-61.3
		c1.6-16.9,3-33.9,6.1-50.5c3.1-16.5,11.1-31.2,24.5-41.8C72,14.4,88.1,10.6,105.8,17c3.5,1.3,6.6,3.4,10.4,5.4
		c0.4-1.9,0.7-3.4,1-5.1c6.4-0.4,12.8-1.2,19.2-1c2.6,0.1,5.1,2.2,8,3.5c0.2-1,0.4-2.5,0.8-4.9c21.7,0,43.6,0,66.3,0
		c2.5,3.2,5.6,7.3,9.3,12c1.6-5.1,3-9.3,4.5-14.2c21.4,0,42.7,0,64.5,0c7.1,11.6,14.6,23.7,22.2,36.2c2-4.7,1.3-8.3-0.2-12.8
		c-1.7-5.1-0.8-11.3-0.5-17c0.1-2.2,1.4-4.3,2.5-7.3c13.6,0,27.5,0,42.2,0c2.2,4.7,4.9,10.3,7.6,16c2.4,5.2,4.3,10.8,7.3,15.6
		c4.2,6.8,1.7,13.8,1.6,20.7c0,2.3-0.8,4.5-1.3,7.7c-2.2,0.7-5,1.6-7.9,2.5c-8,33.3-16,66.4-24,99.6c-7.1,29.7-14.4,59.3-21.4,89
		c-1,4.1-0.9,8.5-1.2,12.8c-1,15.8-1.9,31.7-3.1,47.5c-0.7,10.3-1.9,20.6-2.8,31.3c1.8,1.1,3.7,2.3,6.1,3.9
		c-0.4,7.2-0.8,14.4-1.2,22.3c-7.7,2.8-15.4,5.6-23.2,8.3c-11.7,4.1-23.3,8.4-35.2,11.9c-3.5,1-7.8-0.7-11.7-1.1
		c-0.8-0.1-1.5-0.4-2.5-0.7c-0.6,3.1-1.2,6-1.9,9.5c-7.8,3.4-16.1,7-24.3,10.5c-20.2,8.6-40.3,17.3-60.6,25.5
		c-3.9,1.6-8.6,1.3-13,1.4C139.7,445.8,136.2,445,132.9,444.6z M18.5,463.6c0.9,0.7,1.7,1.1,2.2,1.7c8.2,9.3,14.4,11.1,26.2,7.1
		c11.6-3.9,21-11.3,28.4-20.6c16.2-20.4,22.4-44.7,25.5-69.9c1.5-12.2,2.1-24.6,3.1-36.9c1.4-17.7,2.7-35.5,4-53.2
		c0.8-10.9,0.6-21.9,2.3-32.6c1.5-9.4-0.5-18-5.1-25.3c-7.8-12.4-17.2-23.8-25.5-35.9c-9-13.3-16.3-27.5-15.5-44.1
		c0.6-12.5,1.9-25,3-37.4c0.6-7.7,1.3-15.4,2-23.1c1.3-13.9,2.5-27.8,4-41.7c0.7-6.3,0.6-12.9,5.7-17.9c2.9-2.9,6.5-5.8,10.1-3.4
		c2.6,1.8,3.6,6.1,5.1,9.4c0.3,0.7,0.1,1.6,0,2.5c-0.7,8.6-1.4,17.2-2,25.7c-0.8,12.2-1.3,24.5-2.1,36.7c-0.4,6.8-1.4,13.5-1.9,20.3
		c-0.5,7.4-0.9,14.9-1,22.4c-0.1,4.9,2.1,6.5,6.9,5.8c2.9-0.4,5.9-0.6,8.8-1.1c6.5-1.2,12.9-2.5,19.2-3.7c0.4-7.7,0.6-14.3,1.1-20.9
		c0.5-6.6,1.5-13.1,1.9-19.6c0.8-12.7,1.3-25.4,2.1-38.1c0.4-6.4,1.4-12.8,1.8-19.2c0.6-8.7,0.9-17.4,1.3-26c-0.5-0.2-1-0.5-1.5-0.7
		c-1.8,2.1-4.1,4-5.4,6.4c-1.4,2.6-1.9,5.7-2.9,9c-1-1.2-1.8-2-2.4-3C109.2,23,96.4,18.4,81,21.8C62,26,51.5,39.1,43.8,55.5
		c-7.3,15.4-7.4,32.2-8.9,48.6c-1.3,14.1-2.1,28.3-3.1,42.4c-0.4,5.1-1.1,10.2-1.4,15.4c-0.6,11.6-1.8,23.3-1.4,34.9
		c0.6,17.6,7.7,33,18.2,46.9c6,8,12.6,15.6,18.5,23.6c6,8.3,8.4,18.1,9,28.1c0.4,6-1.3,12.1-1.8,18.1c-1.1,13.7-2,27.3-3,41
		c-1,14-2.1,28-3,42c-0.8,12.4-0.9,24.8-2.2,37.1c-0.8,6.9-3,13.7-5.5,20.2c-0.8,2.2-4.3,4.8-6.5,4.7c-2.1,0-4.9-3-5.9-5.3
		c-1.6-4-2.9-8.5-2.8-12.7c0.2-11.7,1.2-23.4,1.8-35.1c0.7-15.4,1.3-30.7,2-46.1c0.1-1.6,0.6-3.2,0.7-4.9c0.4-7,0.7-14.1,1-21.6
		c-6.5,2.4-12.6,5.2-19.1,6.8c-8.3,2-13.1,4.7-13.1,15.2c0.1,17.6-2.3,35.3-3.6,52.9c-0.7,10.1-1.4,20.1-2.1,30.2
		c-1,14.2-2,28.4-2.9,42.6c-0.1,1.7,0.9,3.5,1.6,6.3C19.4,480.4,13.9,470.5,18.5,463.6z M283.1,359.8c-6.8,1.4-8.4,0.1-8.4-5.9
		c0-1,0-2,0.1-3c1-9.3,2-18.6,2.9-27.9c0.8-8.7,1.3-17.4,2.1-26.1c1.2-12.6,2.6-25.1,3.9-37.7c0.5-5.1,0.1-10.3,1.2-15.3
		c3.9-17.5,8.2-34.8,12.5-52.2c3.7-15.3,7.6-30.6,11.3-46c4.7-19.6,9.1-39.3,13.7-59c3.5-14.9,6.9-29.8,10.5-44.7
		c1.3-5.4,3-10.7,4.4-15.5c3.3,0.6,5.5,1,8.2,1.6c0-3,0-4.9,0-7c-8.4-0.6-16.6-1.2-26.2-1.9c-0.6,2.2-1.3,4.9-2.1,7.5
		c0.5,0.1,0.9,0.1,1.4,0.2c1.8,1.6,3.6,3.2,5.4,4.8C311,85.4,298,138.7,285,192c-1.8-11.6-2.5-23-3.2-34.4
		c-0.3-5.4-0.6-10.9-1.1-16.3c-1.3-15.6-2.8-31.1-3.9-46.7c-0.9-12.2-1.3-24.4-2.1-36.6c-0.4-6.1-1.4-12.1-1.9-18.1
		c-0.3-3.6-0.1-7.2-0.1-11.1c3.3,0,5.9,0,9.2,0c-0.5-2.9-0.8-5.3-1.2-7.7c-16.9,0-33,0-50.3,0c-0.5,1.8-1.4,4.6-2.3,7.7
		c2.3,0.9,4,1.3,5.3,2.2c1.3,1,2.8,2.4,3.1,3.9c0.7,3.3,0.9,6.8,1.1,10.3c0.7,11,1.3,22.1,2,33.2c1,15.8,2.1,31.7,3,47.5
		c0.8,14.1,1.3,28.1,2,42.2c0.3,6.1,0.7,12.2,1.1,18.3c1.3,18.6,2.9,37.3,3.8,55.9c0.4,7.9-0.4,15.9-0.9,23.8
		c-0.5,8.6-1.3,17.1-2.1,25.7c-1.2,13.3-2.7,26.6-3.9,39.9c-0.8,9.4-1.3,18.8-2.1,28.2c-0.4,4.9-1.2,9.7-1.7,13.5
		c-3.5,1.7-6.1,2.9-8.8,4.1c1.4,3.4,2.3,5.5,3.2,7.7c17.5-5.8,34.3-11.5,51.9-17.3C284.5,364.9,283.8,362.3,283.1,359.8z
		 M162.4,394.5c0.5-4.9,1-8.9,1.4-13c1.4-15.6,2.7-31.1,4-46.7c1.3-15.7,2.7-31.5,4-47.2c1.3-16.1,2.7-32.1,4-48.2
		c1.3-15.9,2.7-31.8,4-47.7c1.3-16.1,2.7-32.1,4-48.2c1.3-16.2,2.7-32.5,4-48.7c1.1-14.3,1.9-28.6,3.1-42.9
		c0.5-6.7,1.4-13.3,2.3-20.7c3.4,0,6.5,0,10.3,0c-1.9-3.7-3.4-6.4-4.8-9.1c-13.7,0-27,0.2-40.3-0.1c-5.2-0.1-7.4,2.5-8.8,7.7
		c1.8,1.1,3.7,2.1,5.5,3.5c1.3,1,3.3,2.4,3.4,3.7c0.3,3.4-0.3,6.9-0.6,10.3c-1.3,15.5-2.7,31-3.9,46.4c-0.7,8.9-1.3,17.8-2.1,26.7
		c-1.3,14.8-2.7,29.6-3.9,44.4c-0.8,9.4-1.3,18.8-2.1,28.3c-1.2,14.5-2.7,28.9-3.9,43.4c-0.8,9.4-1.3,18.8-2.1,28.2
		c-1.3,15.5-2.6,30.9-3.9,46.4c-0.8,9.4-1.3,18.8-2.1,28.2c-1.2,14-2.7,28-3.9,41.9c-0.8,9.9-1.1,19.8-2.2,29.7
		c-0.5,3.9,0.3,9.5-6.5,9.8c-0.8,0-2,1.8-2.3,3c-0.7,3-0.9,6.1-1.5,10.4c29.2-12.2,57.2-24,84.9-35.6c0.6-4.8,1.2-9,1.5-13.3
		c1.4-17.4,2.6-34.8,4.1-52.2c0.4-5.4,1.5-10.7,1.8-16.1c0.2-3.3,1.7-7.5-3.5-10c-1.1,1.9-3,3.7-3.2,5.7c-1,7.9-1.5,15.8-2.1,23.7
		c-1.1,14.5-2,29.1-3.1,43.6c-0.1,1.4-1.2,3.5-2.3,3.9C184.8,387.3,174,390.7,162.4,394.5z M232.9,81.1c-0.3-0.1-0.6-0.1-0.9-0.2
		c-0.7,9.6-1.4,19.2-2.2,28.7c-0.7,7.9-1.4,15.8-2.2,23.7c-1.3,13.3-2.6,26.7-3.8,40c-0.8,8.7-1.4,17.5-2.2,26.2
		c-1.2,13.5-2.5,27-3.9,40.4c-0.9,8.9-2,17.7-2.7,26.6c-0.9,10.2-1.6,20.5-2.4,30.9c2.2-0.6,4.1-1.1,5.8-1.6
		c6.6,3.7,12.9,7.4,20.4,11.6c0-4.4-0.2-7.8,0-11.2c1.2-14.7,2.9-29.3,3.7-44c0.4-7.3-0.5-14.6-0.9-21.9c-0.7-14.1-1.3-28.2-2-42.2
		c-0.3-5.6-0.7-11.2-1.1-16.9c-1.3-18.7-2.6-37.4-3.8-56.1C234.1,103.9,233.6,92.5,232.9,81.1z M119.4,184.6
		c-2.1,12.7,6.9,32.2,17.1,37c0.9-12.4,1.8-24.7,2.7-37.3c-5.6,1.2-10.7,2.3-15.8,3.4C122.2,186.8,121,185.9,119.4,184.6z"/>
	<path class="st0" d="M532.3,283.2c1.5-12,3-23.9,4.4-35.9c1.2-10.5,2.1-21.1,3.2-31.6c1.2-11.2,2.5-22.3,3.7-33.5
		c1.1-10.3,2.2-20.7,3.3-31c1.1-10.8,2.3-21.7,3.5-32.5c1.2-11.2,2.3-22.4,3.5-33.5c1.2-10.9,2.5-21.7,3.7-32.5
		c0.8-7.2,1.4-14.5,2.3-21.8c1.1-8.4,9.4-14,17.1-10.6c2.7,1.2,5.4,5.6,5.7,8.7c0.5,6.2-0.5,12.5-1.2,18.8
		c-1.1,11.2-2.4,22.3-3.6,33.5c-1.2,11-2.5,22-3.7,32.9c-1.1,10.5-2.2,21-3.3,31.5c-1.2,11-2.6,22-3.8,33
		c-0.8,7.6-1.4,15.2-2.2,22.7c-1.2,11.5-2.6,23-3.8,34.5c-1.1,10.7-2,21.4-3.3,32.1c-0.7,6.4-1.6,12.7-3.1,18.9
		c-0.7,2.9-2.7,5.6-4.5,8.1c-2.4,3.3-5.7,5-10,3.4c-4.4-1.7-7-4.9-7.3-9.7c-0.1-1.8,0-3.7,0-5.5
		C532.6,283.3,532.4,283.2,532.3,283.2z M546.7,284.6c0.8,0.1,1.6,0.2,2.4,0.2c7.9-73.5,15.8-147.1,23.6-220.6
		c-0.5-0.2-1.1-0.4-1.6-0.6c-1.1,2-2.9,3.9-3.3,6c-1,6.5-1.5,13.1-2.2,19.6c-1.3,12.5-2.7,24.9-3.9,37.4c-0.8,8.4-1.4,16.8-2.2,25.2
		c-1.2,13-2.6,26-3.8,38.9c-0.8,8.2-1.4,16.5-2.1,24.7c-1.2,13-2.6,26-3.9,38.9c-0.8,7.9-1.4,15.8-2.2,23.7
		C547.4,280.3,547,282.4,546.7,284.6z"/>
	<path class="st0" d="M647.8,258.4c1.1-8.8,2.5-18.9,3.8-29c1.1-9.3,2.1-18.6,3.3-27.9c1.2-10.1,2.6-20.2,3.8-30.2
		c1.2-9.8,2-19.6,3.2-29.4c1.5-12.9,3.2-25.7,4.8-38.6c0.9-7.2,1.4-14.4,2.2-21.6c1.2-10.3,2.5-20.5,3.8-30.8
		c0.8-6.7,1.7-13.4,2.1-20.1c0.5-8.9,8.9-15.3,17.4-12.6c4.5,1.4,6.7,5.7,6.5,9.6c-0.4,8.9-2.1,17.7-3.2,26.5
		c-1.6,13.3-3,26.6-4.6,39.9c-1.1,9.2-2.2,18.3-3.3,27.5c-1.2,10-2.4,20-3.6,30c-1.6,13.3-3.3,26.5-4.8,39.8
		c-1.1,9.7-2,19.4-3.2,29.1c-1.6,12.9-3.3,25.8-5,38.7c-0.3,1.9-1.1,3.8-2,5.5c-2.8,5.8-8,9.4-12,8.6
		C651.6,272.4,647.8,266.6,647.8,258.4z M681,64.5c-0.6-0.1-1.3-0.1-1.9-0.2c-7.4,67.2-14.9,134.3-22.3,201.5c0.5,0.3,1,0.6,1.5,0.9
		c1.4-1.2,3.6-2.3,4-3.8c1.2-5.4,2.1-10.9,2.6-16.5c0.9-9.2,1.4-18.5,2.2-27.7c1.2-13.1,2.6-26.3,3.8-39.4
		c0.8-8.6,1.4-17.1,2.2-25.7c1.2-13.1,2.6-26.3,3.9-39.4c1-9.9,2-19.7,2.8-29.6C680.2,78,680.5,71.3,681,64.5z"/>
	<path class="st0" d="M993.7,117.5c5.3-34.7,10.5-69,15.8-103.6c5.5,0,10.7-0.4,15.8,0.1c4.6,0.4,4.9,4.3,4.5,7.9
		c-1.6,13.9-3.2,27.7-5,41.6c-1.9,15.6-3.9,31.2-6,46.9c-0.6,4.2-5.4,8.6-9.5,8.4C1004.2,118.6,999.2,118,993.7,117.5z"/>
	<path class="st0" d="M782.4,134.4c5.2-40,10.2-78.7,15.1-116.7c4,0.2,7,0.5,10,0.5c5.7,0.1,8.3,3.6,7.6,9.3
		c-1.3,10.5-2.1,21-3.3,31.5c-1.1,9.8-2.5,19.5-3.7,29.3c-0.9,7.5-1.5,15.1-2.3,22.6c-0.5,4.7-0.6,9.7-2.2,14
		c-1.1,2.9-4.3,5.8-7.3,7C792.3,133.5,787.7,133.5,782.4,134.4z"/>
</g>
</svg>
