<?xml version="1.0" encoding="utf-8"?>
<!-- Generator: Adobe Illustrator 19.0.0, SVG Export Plug-In . SVG Version: 6.00 Build 0)  -->
<svg version="1.1" id="Layer_1" xmlns="http://www.w3.org/2000/svg" xmlns:xlink="http://www.w3.org/1999/xlink" x="0px" y="0px"
	 viewBox="815 48 2209.9 698" style="enable-background:new 815 48 2209.9 698;" xml:space="preserve">
<style type="text/css">
	.st0{fill:#FFFFFF;}
</style>
<g id="キラリン">
	<path class="st0" d="M1743.3,84.3c10.1,0.3,21.1,2.3,21.1,17.1v133.3c0,13.6-1.9,23.9-5,31.6h23.6c1.9-9.6,2.9-20.1,2.9-31.4V102
		c0-14.7,12.7-16,22.7-15.6c2.5,0.1,3.4-1.4,3.4-4c0-3.5-1.2-4.6-3.3-4.6l-65.4-2.1c-2.2-0.1-3.4,0.9-3.4,4.5
		C1739.8,82.7,1740.7,84.3,1743.3,84.3L1743.3,84.3z M1592.4,79.8c10.5,0.3,23.1,2.8,23.1,17.8v135.6c0,11.9,1.5,23,4.4,33.1h65.2
		c-5-9.3-8.1-21.3-8.1-36v-131c0-14.9,12.3-16.6,22.6-16.3c2.6,0.1,3.5-1.5,3.5-4.1c0-3.6-1.2-4.6-3.4-4.7l-107.3-3.4
		c-2.3-0.1-3.5,0.9-3.5,4.5C1588.8,78.1,1589.7,79.7,1592.4,79.8L1592.4,79.8z M1757.4,270.5c-9.1,17.3-25.2,19-36.8,19
		c-12.6-0.1-24.8-6.5-33.1-19h-66.4c11.3,33.9,39.6,55.7,84.5,55.7c45,0,68-21.2,76.4-55.7H1757.4L1757.4,270.5L1757.4,270.5z
		 M1820.1,86.4c10.5,0,23.2,1.8,23.2,17.2v162.7h61.6v-42.7c56.8,17.9,109.9-17.4,109.9-78c0-49.6-45-68.3-84.5-68.3l-110.3,0
		c-2.3,0-3.5,1.1-3.5,4.8C1816.4,84.8,1817.4,86.4,1820.1,86.4L1820.1,86.4L1820.1,86.4z M1956.5,147.5c0,38.7-14.2,57.5-36.5,60.2
		c-1.2,0.1-14.7-0.9-15.2-4.7V89.4C1939.5,89.4,1956.5,110.5,1956.5,147.5L1956.5,147.5z M1928.1,316.9c-10.5,0-23.2-1.8-23.2-17.2
		v-29.2h-61.6v29.2c0,15.4-12.7,17.2-23.2,17.2c-2.7,0-3.6,1.6-3.6,4.3c0,3.7,1.2,4.8,3.5,4.8l108.2,0c2.3,0,3.5-1.1,3.5-4.8
		C1931.7,318.5,1930.7,316.9,1928.1,316.9L1928.1,316.9z M2458.7,318.6c-11.3,0.2-28.8-6.4-39.2-23.6c-2.2-3.6-6.7-12.9-12-24.5
		h-64.7c4.8,11.9,8.3,20.9,8.3,20.9c6.8,17.2,22.9,31.3,43.4,35.3c12.3,2.4,56,1.3,63.9,0.7c3-0.5,3.2-2.6,3.6-4.6
		C2462.3,321.1,2461.3,318.6,2458.7,318.6L2458.7,318.6z M2309.5,316.4c-9.5,0.1-20.1-1.6-20-17v-28.9H2227v29.9
		c0,14.9-10.7,16.7-19.3,16.7c-2.2,0-2.9,1.6-2.9,4.2c0,3.5,1,4.5,2.9,4.5l101.9-0.2c2.1,0,3.2-1.1,3.2-4.8
		C2312.8,318.1,2312,316.4,2309.5,316.4L2309.5,316.4z M2210.1,80.2c8.8-1.2,16.9-0.9,16.9,14.5v171.6h62.5v-66.9l3.8-0.3
		c7.9-0.5,20.4,2.3,25.9,13.3c1.7,3.5,13.2,32,21.9,53.8h64.5c-11-24.4-24.7-56.8-29.1-70.8c34-18.8,38.2-47.6,38.2-73.6
		c0-50-30.5-73.5-95.5-65l-111.6,14.3c-1.9,0.3-2.9,1.5-2.9,5.1C2204.7,79,2207.9,80.5,2210.1,80.2L2210.1,80.2z M2293.1,73.4l7.4-1
		c15.3-2,53.9,2.6,53.4,47.8c-0.4,37.6-16.2,60.2-38.6,61.9c-13.7,1-25.1-2.5-25.8-12.1V78.2C2289.5,74.7,2290.4,73.8,2293.1,73.4
		L2293.1,73.4z M2006.5,86.6c11.1,0,23.5,0.9,23.5,15.6v164.1h61.1v-68.8c0.5,0,1-0.1,1.7-0.1c5.5-0.1,21.1-1.4,29.8,2.1
		c14.6,5.9,21.4,27.7,24.6,40.4c0.5,2.2,1.3,2.6,2.7,2.7l2.6,0c1.3-0.1,1.7-1,1.7-2.5V137.8c0-1.5,0.1-3-1.7-3l-3.1,0.1
		c-1.1,0-1.6,0.8-2,2.6c-1.4,5.5-8.5,37.1-26,45.2c-4.9,2.2-24.4,4.1-28.6,4.2c-0.6,0-1.2,0-1.7,0.1V89.4c0-1,0.3-1.3,1.2-1.3
		l37.2-1c14.5-0.4,29.8,6.6,35.6,13.3c9.7,11.2,18.2,35.2,19.3,38.9c0.4,1.5,1.5,1.6,2.3,1.4l3-1.1c1.2-0.5,0.9-2.5,0.6-3.8
		l-6.8-58.2c0-3.9-1.2-5.8-6.9-5.7l-171.4,5.3c-2.4,0.1-3.7,1.1-3.7,4.6C2001.7,84.4,2002.3,86.6,2006.5,86.6L2006.5,86.6z
		 M2196.9,249.3c-1.1-0.2-3.1-0.4-4.4,2.8c-0.7,1.8-3.5,7.6-7,14.3h11.5c0.9-4.7,1.7-9.1,2.4-12.8
		C2200,250.4,2198.2,249.5,2196.9,249.3L2196.9,249.3z M2171.8,288.7c-5.5,6.7-19.4,22.2-35.8,22.7c-3.6,0.1-25.4,0.9-31,0.1
		c-11.1-1.5-13.9-4.3-13.9-19.1v-22h-61.1v30.2c0,14.7-13.4,16.4-24.5,16.4c-2.8,0-3.8,1.6-3.8,4.1c0,3.5,1.3,5,3.7,5l180,0
		c1.9,0,2.8-2,3-4.1c1.5-13.2,4.8-34.3,7.9-51.6h-12.9C2179.6,277.2,2175.4,284.3,2171.8,288.7L2171.8,288.7z"/>
	<path class="st0" d="M2446.4,576.8c8.8,20.6,22.4,38.5,39.6,52.4v-52.4H2446.4z M2486,417.9c-30.7,24.9-50.4,63-50.4,105.6
		c0,9.1,0.9,18,2.6,26.6h47.8V417.9z M2704.5,550.2c1.7-8.6,2.6-17.5,2.6-26.6c0-75.1-60.8-135.9-135.8-135.9
		c-5.6,0-11.2,0.4-16.6,1.1v161.5L2704.5,550.2L2704.5,550.2z M2554.8,658.4c5.5,0.7,11,1.1,16.6,1.1c56.1,0,104.2-34.1,124.9-82.6
		h-141.6V658.4z"/>
	<path class="st0" d="M1447.6,270.5h6.6v-4.1"/>
	<path class="st0" d="M1509.9,154.6c-29.2-11.7-48-23.2-58.2-35.2l-2.1,75.4c10.5,6.9,22.7,13.7,36.6,20.5
		c32.1,15.7,49.6,32.9,52.3,51.1h46.2c0.7-4.2,1-8.5,1-13.1C1585.3,210.9,1559.8,174.5,1509.9,154.6L1509.9,154.6z M1447.6,193.4
		v-79.8c-3.5-5.8-5.1-11.7-4.9-17.8c0.2-6.4,1.8-11.9,4.9-16.3V50c-33.5,6.4-52.4,28.3-52.1,58.4
		C1395.9,143.7,1412,169.5,1447.6,193.4L1447.6,193.4z M1453.1,73.6c8.7-6.7,22.8-9.2,42.2-6.2c30,4.7,67.3,35.4,79.7,71.6
		c0.7,2.1,1.3,3.8,3,4c0.6,0,2.6-0.3,3.3-0.7c1.1-0.6,0.9-1.4,0.3-4.3c-2.9-14.2-7.3-50.6-8.7-64c-0.5-4-1.6-5.7-3.9-6.2
		c-2.3-0.5-4.5,0.4-6.2,0.4c-2.8,0.2-4.6,0.3-8.4-0.3c-2-0.3-3.9-1-5.6-1.6c-11.4-4.9-38-13.5-52.6-15.9c-15.8-2.6-30-3-42.4-1.4
		L1453.1,73.6L1453.1,73.6L1453.1,73.6z M1374.9,220.2c4.2,11.5,8.5,29.1,12.1,46.1h33.9c-12.2-11.9-24.6-27.6-36.2-48.5
		c-2-3.6-2.3-4.9-5.1-5c-0.8,0-1.9,0.4-3,0.8c-1.8,0.8-2.9,1.7-2.5,3.9C1374.2,218.4,1374.8,219.3,1374.9,220.2L1374.9,220.2z
		 M1538.9,270.5c0,0.4,0,0.8,0,1.2c-0.3,23-22.1,35.2-53.6,29.5c-8.9-1.6-19.6-4.7-31.1-10.6v38.5c10.3,0.8,20.6,1,31.5,1
		c47.6,0,89.2-20.6,98.2-59.6L1538.9,270.5L1538.9,270.5z M1447.6,286.9c-7.2-4.3-14.7-9.7-22.2-16.5h-37.4
		c3.5,16.7,6.5,32.5,8.3,40.8c0.9,3.6,6.4,8.3,12.2,9.9c13.8,3.8,26.5,6,39.1,7.3V286.9L1447.6,286.9z M973.5,500.1
		c-58-17.1-79.9-35.8-79-61c1-26.4,21.5-44.1,65.1-44.4c32.4-0.2,79.2,31.5,95.7,76.3c0.9,3.1,1.7,4.8,4,4.7c0.8,0,1.9-0.5,3-1
		c1.9-0.5,2.2-1.4,2.1-3.2c0-0.9-0.1-1.8-0.1-2.6c-4.4-21.4-11.4-64.6-13.3-81.7c-0.6-5.1-1.4-6.8-4.4-6.8c-1.1,0-2.6,0.4-4.9,0.9
		c-3.7,0.9-9,1.3-14,1.3c-2.7,0-5,0-7.3-0.4c-14.8-3.8-43-9-61.1-9c-74.8,0-118.9,39.7-121.8,99.2c-3.1,63.8,32.2,95.1,106.1,120
		c45.3,15.2,67.9,41.8,67.5,68c-0.5,29.8-24.2,50.8-62.5,54.9c-29.2,3.1-86-23.9-122.2-96.3c-1.3-3.6-2.5-5.6-5.4-5.5
		c-0.9,0-2.1,0.6-3.3,1.1c-2,1.1-3.1,2.2-2.8,4.8l0.8,3.1c9.2,27.4,18.1,86,22.2,106.8c1,4.3,3.2,7.4,9.5,9.7
		c23.9,10.8,63.7,6.6,97,2.7c88.3-10.2,130.8-54.8,131-121.7C1075.8,556.2,1038,519,973.5,500.1L973.5,500.1z M1665,469.1
		c-43.8-15.3-59.9-30.3-59.2-48.7c0.7-19.5,16-30.1,49.5-30.1c26,0,61.2,29.4,73.9,63.7c0.7,2.3,1.3,3.7,3.2,3.7
		c0.6,0,1.5-0.3,2.5-0.6c1.5-0.3,1.8-0.9,1.8-2.3c0-0.7,0-1.3-0.1-2c-3.3-16.3-8.8-51.5-10.1-64.8c-0.4-4-1.1-5.3-3.6-5.4
		c-0.9,0-2.2,0.2-4,0.5c-3.1,0.5-7.4,0.7-11.4,0.5c-2.2-0.1-4-0.2-5.9-0.6c-11.8-3.5-32.1-8.4-46.4-9.1
		c-56.9-3.1-88.7,24.3-90.4,67.8c-1.7,45.4,23.2,69.8,76.9,91.5c34,13.7,51,33.6,50.3,51.7c-0.8,20.4-19,32.8-47.3,32.8
		c-21.1,0-61.1-22.9-82.1-70.8c-0.7-2.4-1.4-3.7-3.6-3.8c-0.6,0-1.5,0.3-2.4,0.6c-1.5,0.6-2.4,1.3-2.4,3l0.4,2
		c4.7,18,10.1,52.3,11.5,65.4c0.4,2.7,1.7,4.7,6.1,6.4c16.4,7.8,45.4,14.5,69.3,14.5c66-0.1,100.3-27.2,102-73.8
		C1745.3,515.5,1715.4,486.7,1665,469.1L1665,469.1z M1414.4,638.5c-21.6-2.7-30.1-8-30.1-18.1c0-2.5,0.7-5.9,2-9.2
		c3.8-11.8,7.6-23.5,11.3-35.2c18.2-1.3,33.3-2.5,49.9-3.7v-15.9c-15.1,1-28.2,2-44.8,3.1c10.6-32.5,17.8-55.6,28.4-87.4
		c5.9,17.4,11.1,32,16.4,46.7V372.3c-5.4,0.4-7.7,2.6-9.5,7.8c-25.2,75.2-50.4,152.2-75.7,231.6c-5.1,16.2-14.7,27.2-31.5,34.3
		c-0.3-0.1-0.6-0.1-0.8-0.1c-15.4-0.3-19.2-1.6-19.1-11.6V402.3c0.1-10,5.1-11.9,20.5-14.3c1.7-0.4,3-1.1,3.1-4.4
		c0-3.3-0.8-3.5-3.3-3.5c-23.5,0.1-52-0.1-75.5,0c-5.2,0-5.8,3.2-6.9,7.4c-15.1,61.7-27.7,118.8-42.8,183.5
		c-17.6-61.1-32.6-117.8-50.2-182.7c-1.1-4-2.2-8.3-6-8.2c-24,0.1-47.9-0.1-71.9,0c-2.5,0-3.3,1.4-3.3,5.2c0,3.8,1.4,4.6,3,5
		c15.4,3.7,22,14.8,21.9,34.3c-0.3,74.1,0.3,151.5,0,225.7c-0.1,17.9-7.8,31.9-23.1,39.8c-1.7,0.8-3,2-3,5.8c0,3.8,0.8,4.5,3.3,3.9
		c20.9-5,46.7-9.9,67.5-14.5c2.5-0.5,3.3-1.5,3.3-5.2c0-3.7-1.3-4.2-3-4.2c-15.1-0.8-26-10.3-26-28.5V458.5c0-2.5,1-3.7,1.6-3.8
		c0.5,0,1.4,1.2,1.9,3.2c20.7,79.3,36.5,132.9,57.2,206.7c3,9.8,4.9,11.1,12.6,9.8c7.4-1.2,10.2-2.5,12.7-13.8
		c17.2-75.9,34.4-149.7,51.5-221.6c0.3-1.5,2.5-1.6,2.5-0.1v202c-0.1,9.9-5,13.2-19.1,17.2c-1.7,0.6-3,1.6-3.1,5.1
		c0,3.5,0.8,4.1,3.3,3.7c29.2-4.4,58.4-8.5,87.6-12.2c0.8,0.3,2,0.3,3.8,0.1c25.5-2.8,56.5-5.4,82-7.9c3.8-0.4,5.1-0.8,5.1-4.1
		C1418.2,639.9,1417.3,638.9,1414.4,638.5L1414.4,638.5z M1954.4,618.3c-16.4-2.4-21-4.1-21.1-13.1c-0.1-68.7-0.2-137.5-0.4-206.2
		c0-8.9,4.6-10.6,20.9-12.5c1.7-0.3,3.2-1,3.2-4c0-3-0.9-3.8-3.5-3.8c-32.1,0-61.6,0-93.7,0c-2.6,0-3.5,0.8-3.5,3.8
		c0,3,1.5,3.6,3.2,4c14.8,1.6,19.5,4,19.5,12.5c0,30.3,0,60.6,0.1,90.9c-22.6-0.1-37.3-0.1-59.8-0.1c0-30.3,0-60.6,0-90.8
		c0-8.6,4.7-10.9,19.5-12.5c1.7-0.3,3.2-1,3.2-3.9c0-3-0.9-3.7-3.5-3.7c-32.1,0-61.6,0-93.7,0c-2.6,0-3.5,0.8-3.5,3.8
		c0,3,1.4,3.6,3.2,4c16.3,2,21,3.6,20.9,12.5c-0.1,68.6-0.2,137.3-0.3,205.9c0,8.9-4.7,10.6-21.1,13c-1.7,0.4-3.2,1.1-3.2,4
		c0,3,0.9,3.6,3.5,3.6c32.2-0.8,61.9-1.1,94.1-1.2c2.6,0,3.5-0.7,3.5-3.6c0-3-1.5-3.6-3.2-3.9c-14.9-1.6-19.6-3.9-19.6-12.4
		c0-32.5,0-64.9,0-97.4c22.6-0.1,37.3,0,59.9,0.1c0,32.5,0.1,65,0.1,97.5c0,8.6-4.7,10.8-19.6,12.4c-1.8,0.3-3.2,1-3.2,3.9
		c0,3,0.9,3.6,3.5,3.6c32.3,0.2,61.9,0.7,94.1,1.6c2.6,0.1,3.5-0.6,3.5-3.5C1957.7,619.4,1956.2,618.7,1954.4,618.3L1954.4,618.3z
		 M1576.2,625.9c-13.4-0.9-22.6-5.5-26-14.2C1520,536.2,1490,459.2,1460,380c-1.5-3.8-3.1-6-5.8-7v164.2c2.1,5.8,4.2,11.8,6.4,18.3
		c-2.2,0.1-4.3,0.2-6.4,0.4v15.9c3.8-0.3,7.7-0.5,11.7-0.8c5.8,16.9,11.7,33.7,17.5,50.4c0.6,1.3,0.6,2.4,0.6,3.5
		c0,4.2-4.5,5.6-16.6,8.3c-4.5,1.1-5.1,2.5-5.1,5.3c0,2.5,0.9,3.4,3.8,3.2c36.6-3,73.2-5.6,109.8-7.9c2.9-0.2,3.5-1.2,3.5-4.3
		C1579.4,627.1,1578.8,626.1,1576.2,625.9L1576.2,625.9z"/>
	<ellipse class="st0" cx="3001.4" cy="722.4" rx="23.5" ry="23.5"/>
	<path class="st0" d="M2842.9,498.7c-57.7-21.8-78.4-41.1-78.1-64.7c0.3-24.6,18.8-40.9,61.1-40.5c33.2,0.3,89.9,34.1,105.4,82
		c0.8,3.3,1.7,5.2,4.3,5.3c0.9,0,2.2-0.4,3.6-0.8c2.2-0.4,2.7-1.3,2.7-3.2c0-0.9,0-1.9,0.1-2.8c-3.6-23-8.3-68.8-9.3-86.9
		c-0.3-5.4-1.1-7.2-4.6-7.2c-1.3,0-3,0.4-5.6,0.9c-4.3,0.9-10.3,1.3-15.8,1.3c-3,0-5.5,0-8-0.5c-15.7-4-55.2-9.2-73.6-9.2
		c-70.6,0-108.1,35.6-109.4,89.1c-1.4,57.5,29.7,90.3,99.6,125.1c47,23.4,72.4,55.5,72.8,83c0.5,31.3-24.8,46.8-64.5,40.7
		c-28.7-4.4-83-44.7-100-112.1c-0.4-3.2-1-5.1-3.6-5.4c-0.8-0.1-1.9,0.2-3.1,0.6c-2,0.7-3.2,1.5-3.5,3.7c-0.1,0.9,0.2,1.8,0.1,2.7
		c2.2,24.4,1.9,71.7,1,90c0,3.8,1.2,6.8,6.4,10c19.3,14.1,66.7,30.6,99.3,35.9c94.9,15.7,144.1-20.2,141.7-94.5
		C2959.8,571,2913.6,525.4,2842.9,498.7L2842.9,498.7z M2469.7,650.1c-6.9,0-17.8-5.5-30.8-26.7c-18.1-29.5-55.6-92.9-64-116.2
		c27.2-7.9,40.3-28.5,40.3-64.9c0-40.2-30.3-63.7-77.9-63.7h-117.9c-1.9,0-3.8,1.5-3.8,4.6c0,3.1,1.6,3.8,3.4,4.1
		c17.5,2.1,22.5,3.8,22.5,13v215.8c0,9.3-5,10.7-22.5,11.7c-1.9,0.2-3.4,0.8-3.4,3.9c0,3.1,0.9,3.8,3.8,4l103.5,6.2
		c2.8,0.2,3.8-0.5,3.8-3.5c0-3.1-1.6-3.9-3.4-4.3c-15.9-2.7-20.9-5.4-20.9-14.3V513.4c0,0,13.2-1.1,20.1,13.4
		c13.4,28.2,33.9,65.6,49.3,92.8c12.4,22.1,38.4,34.7,69.1,37.4c11.9,1.1,16,1.1,26.8,0.4c1.9-0.2,4.7-0.8,5.3-3.7
		C2473.5,650.7,2471.6,650.1,2469.7,650.1L2469.7,650.1z M2325.4,496.6c-13.1,0-23.1-2.7-23.1-14.1v-90c0,0,8.1-0.7,17.2-0.7
		c21,0,38.1,19.9,38.1,49.8C2357.6,475.3,2344.5,496.6,2325.4,496.6L2325.4,496.6z M2163.3,500.6c-1.3-0.1-3.3-0.4-3.3-0.4
		s2.8-0.3,3.3-0.3c27.1,0.3,46.5-25.7,46.4-59.2c-0.2-40.4-28.5-62.1-72.8-62h-109.7c-1.7,0-3.5,0.8-3.5,3.8c0,3,1.5,3.7,3.2,4
		c16.3,2,21.3,3.7,21.3,12.7c0.2,69.2-0.2,138.4,0,207.6c0,9-4.4,10.5-20.7,12c-1.7,0.3-3.2,0.9-3.2,3.9c0,3,0.9,3.7,3.5,3.8
		c38.3,1.2,76.5,2.9,114.8,5.1c53.4,3.2,81.1-15.8,80.8-66.1C2223.1,531,2196.8,500.9,2163.3,500.6L2163.3,500.6z M2104.7,391.7
		c0,0,7.2-0.6,15.6-0.6c18.3,0,35.6,19.8,35.7,49.4c0.1,32.6-11.4,53.7-29.8,53.2c-3.5-0.1-21.6-1.9-21.6-1.9V391.7L2104.7,391.7z
		 M2129,616.5c-6.4-0.3-24.3-5.5-24.4-14.3v-95.7c0,0,1.8,0,4.1,0.1c5,0.1,12.8,0.3,17.2,1.5c27.4,6.1,41.2,27.1,41.3,56.7
		C2167.5,607.5,2149.8,617.6,2129,616.5L2129,616.5L2129,616.5z"/>
</g>
</svg>
