<?xml version="1.0" encoding="utf-8"?>
<!-- Generator: Adobe Illustrator 19.0.0, SVG Export Plug-In . SVG Version: 6.00 Build 0)  -->
<svg version="1.1" id="Layer_1" xmlns="http://www.w3.org/2000/svg" xmlns:xlink="http://www.w3.org/1999/xlink" x="0px" y="0px"
	 viewBox="0 0 3816.2 981.8" style="enable-background:new 0 0 3816.2 981.8;" xml:space="preserve">
<style type="text/css">
	.st0{fill:#FFFFFF;}
</style>
<g>
	<path class="st0" d="M47.1,650.6c13,3.3,25.5,6.8,38.1,9.5c11,2.3,22.2,4.8,33.5,5.3c49.2,2.4,83.9-25.6,97.5-70.9
		c8.4-27.9,8.4-56.6,5.2-85.3c-3.8-34.4-16.1-66.5-27.7-98.8c-12-33.5-25-66.8-35.7-100.7c-10.2-32.2-14.4-65.7-13.6-99.6
		c1.2-50.8,17-96.2,52-133.8c31.4-33.8,70.5-54.1,115-64.7c49.1-11.7,98.6-14.4,148.9-8.9c21.4,2.4,43.3,2.2,64.9,1.7
		c58.4-1.2,116.7-0.7,174.6,7.3c30.7,4.2,61.1,10.5,90.2,21.6C817.9,44,842.7,60,864.6,80.5c1.9,1.8,4,3.4,6.1,5
		c0.4,0.3,1.3,0,3.3,0c1.5-10.5,3-21.1,4.4-31.8c2-14.5,4.1-29,5.7-43.6c0.6-5.6,3.7-7.5,8.5-7.7c4-0.2,8,0.1,12,0.1
		c90,0.3,180,0.5,270,1c50.8,0.3,100.1,9.4,147.7,27.1c49.9,18.5,89.9,50.1,120.2,93.8c2.1,3,4.7,5.7,8.6,10.4
		c0.6-4.8,1.1-7,1.2-9.2c2-37.6,4-75.2,6-112.8c0.5-8.8,2-10.3,10.8-10.3c90.7,0.1,181.3,0.2,272,0.4c50.3,0.1,100.7-0.6,151,0.6
		c50.3,1.2,99.4,10.5,146.6,27.8c36.4,13.4,67,35.7,91.9,65.2c27.2,32.3,37.2,70,33.3,111.8c-1.4,14.5-2,29.2-3,44.5
		c32.1,0,63.5,0,95.7,0c0.1-2.7,0.5-5.3,0.4-7.8c-1.3-37-3-73.9-4.1-110.9c-1-33.7-0.6-67.3,3.8-100.8c1.2-9.2,2.8-18.3,4.4-28.1
		c78.1,0,155.6,0,234,0c25.9,72.3,50.9,145.1,76.9,217.6c0.8-0.1,1.7-0.2,2.5-0.3c14-72.7,28.1-145.4,42.2-218.6
		c78.7,0.6,156.7,1.2,235.7,1.8c10.6,89.6,20,179.4,30.6,268.9c0.8,0,1.6,0.1,2.4,0.1c0.5-2,1.3-4,1.5-6.1c2.7-27.5,5.4-55,7.8-82.6
		c4.2-49.5,8.7-98.9,22.2-147c3.3-11.8,7.3-23.4,11.1-35.5c70.3,0,139.8,0,210.1,0c14.9,42.1,29.8,84.4,45,127.6
		c3.8-4.1,3.7-7.8,2.5-11.6c-4.5-14.4-2-28.1,3-42c7.3-20,13.5-40.4,20.2-60.6c1.1-3.4,2.5-6.8,3.8-10.3c1.7-0.3,3-0.8,4.3-0.8
		c55.3,0.5,110.6,0.9,166,1.7c18.8,0.3,14.4-1,22.3,14.2c2.9,5.5,5.8,11.1,9.2,17.7c7.5-9.3,8.1-20.7,14.3-29.8
		c67.4,0,134.9,0,203.3,0c2.8,13,5.6,25.9,8.3,38.8c21.2,102,42.4,204.1,63.6,306.1c18.9,91,37.7,181.9,56.6,272.9
		c18.4,88.7,36.8,177.3,55.3,266c0.8,4.1,1.1,7.6-1.2,11.4c-15.5,25.3-30.8,50.7-46.6,76.8c-11.4-2.3-22.8-4.5-34.1-6.9
		c-53.1-11.1-106.2-22.4-159.4-33.4c-6.6-1.3-10.3-3.9-12.4-10.6c-4.1-13-9.2-25.7-14.6-40.5c-7.8,14.4-14.6,27.1-21.8,40.4
		c-132.2-23.4-264.2-46.8-397.2-70.4c-6.9-36.7-13.9-73.6-20.9-110.6c-0.8,0.1-1.7,0.1-2.5,0.2c-0.2,4.4-0.2,8.9-0.6,13.3
		c-0.6,5.3-0.8,10.8-2.5,15.7c-8.1,22.9-16.6,45.7-25.1,68.5c-0.6,1.5-1.4,3-2.5,5.3c-127.5-15.8-254.9-31.6-383-47.4
		c-2.1-40.2-4.3-79.5-6.4-118.9c-0.5,0-1.1,0-1.6,0c-9,38.1-18,76.3-27.3,115.5c-41.3-3.6-82-7.2-123.5-10.9
		c-7.9-21.9-13.1-44.8-21.3-66.6c-0.8,0.1-1.6,0.1-2.4,0.2c-4.1,21-8.2,41.9-12.5,63.8c-72.5-4.8-144.2-9.6-216.8-14.5
		c-4.2-99.7-8.3-198.5-12.5-297.9c-27.5-3.8-54.3-2-82.3-3c3.1,13.1,5.9,25,8.7,36.9c12.9,55.9,22,112.5,26.1,169.7
		c1.2,17.2-0.8,34.6-1.8,51.9c-0.6,9.6-2.1,19.2-3.2,28.8c-0.4,2.9-1,5.8-1.7,9.5c-73.7-1.8-146.9-3.6-220.9-5.4
		c-1.1-10.1-2.2-19.3-3.1-28.5c-2.8-29.5-5.2-59.1-8.5-88.5c-4.8-42.9-14-84.8-32-124.3c-2.2-4.7-4.6-9.3-8-16.1
		c-1.3,4.1-2.3,5.7-2.3,7.4c-0.2,8.7-0.1,17.3-0.1,26c0,70.3,0,140.7,0,211c0,3.6,0,7.2,0,11.6c-3.1,0.4-5.6,1.1-8.1,1.1
		c-21.7,0.4-43.3,0.7-65,1.2c-93.6,2.2-187.3,4.3-280.9,6.9c-46.3,1.3-92.6,3.7-138.9,5.6c-3.6,0.1-7.2,0-10.7,0
		c-4.6-24.2-18.4-80.1-9.4-144.5c-2.5,1-4.6,1.4-5.9,2.6c-1.7,1.5-2.7,3.7-4.1,5.6c-60.4,83.2-141.2,133.9-242.4,152.4
		c-43.6,8-87.6,13-131.6,17.9c-41.7,4.7-83.3,10-125,14.9c-25.1,3-50.3,6-75.5,8.6c-7.2,0.7-14.6,0.1-22.3,0.1
		c-1.1-2.6-2.4-4.9-3.2-7.3c-7.3-21.8-14.5-43.6-22-65.3c-2.5-7.1-2.9-14.2-2-21.6c5.2-39.3,10.2-78.6,15.2-117.9
		c5.8-45.6,11.7-91.2,17.5-136.8c2.1-16.2,4.2-32.4,6.2-48.6c0.5-4.1,0.5-8.3,0.8-13.2c-2.1,0.8-3.2,0.9-3.9,1.4
		c-38.3,27.4-81.2,45.6-125.2,61.4c-8.5,3-16.8,6.5-25.4,9c-5.1,1.5-6.8,4.5-7.4,9.2c-3.4,23.7-6.9,47.5-10.3,71.2
		c-6.3,43.2-12.6,86.3-19,129.5c-7,47.8-14.1,95.5-21.1,143.3c-0.8,5.6-1.8,11.1-2.8,17.9c-73.6,12.7-147.2,25.3-221.3,38.1
		c-8.9-18-17.4-35.2-26.3-53.1c-4.2,3.8-7.6,7-11.1,10.1c-48.8,43.5-104.3,74.9-167.8,91.4c-43.9,11.4-88.3,11.7-132.8,3
		c-7.1-1.4-11.6-4.7-15.2-11c-12.2-21-24.8-41.8-37.8-62.4C0,878.1-0.7,873,0.6,866.8c14.8-69.3,29.5-138.7,44.2-208.1
		C45.4,656.2,46.3,653.7,47.1,650.6z M2900.6,724.3c0-4.6,0.3-7.6,0-10.5c-2.8-26.1-5.6-52.3-8.5-78.4
		c-3.8-34.1-7.6-68.1-11.4-102.2c-3.6-32.4-6.9-64.9-10.5-97.3c-4.3-39-8.8-78-13.1-117.1c-4.4-39.7-8.5-79.4-12.8-119.2
		c-5.2-47.6-10.5-95.3-15.7-142.9c-0.9-8.5-2.1-16.9-3.2-25.5c-61.7,0-122.2,0-183.6,0c-19.3,102-38.5,203.5-58.1,307.2
		c-1.6-3.7-2.4-5.4-3.1-7.2c-34.5-97.3-68.9-194.5-103.4-291.8c-4.2-11.9-3.2-10.6-14.6-10.6c-53.7,0-107.3,0-161,0
		c-3.6,0-7.1,0-11.5,0c0,4.8-0.1,8.4,0,12c1.9,43.6,3.9,87.1,5.8,130.7c1,22,1.7,43.9,2.7,65.9c1.7,37.6,3.6,75.2,5.3,112.7
		c1,22,1.7,43.9,2.8,65.9c2.3,49.2,4.7,98.5,7,147.7c1.6,33.6,2.9,67.2,4.4,100.8c0.1,2.6,0.7,5.1,1.2,8.6
		c53,3.3,105.7,6.5,159.5,9.8c-6.9-66.8-12.9-132-20.7-197c-8.7-73-20.2-185.9-18.4-195.1c1,2.5,1.9,4.6,2.7,6.8
		c34.2,94.5,65.9,189.9,95.8,285.9c10.3,33,20.3,66.2,30.4,99.3c2.6,8.4,2.6,8.3,11.7,9.1c12.9,1.1,25.9,2.4,38.8,3.5
		c8.8,0.7,17.7,1.1,27.2,1.7c19.5-131.3,40.8-261.4,69.6-390.2c1.1,2.6,1.6,5.2,1.8,7.7c2,33.9,4,67.8,6,101.7
		c2.7,47.9,5.4,95.8,8,143.6c2.3,41.9,4.5,83.8,6.9,125.7c0.4,6.6,1.3,13.1,2,20.6C2793.8,712.3,2846.6,718.2,2900.6,724.3z
		 M3779.6,875.8c-57.8-281.4-115.1-560.7-172.6-840.5c-17.2-0.5-33.4-1.1-49.7-1.4c-16-0.3-32-0.5-48-0.2
		c-16.1,0.3-32.3-1.1-49.4,1.4c0.6,4.9,0.7,8.9,1.6,12.7c17.8,74.4,35.9,148.8,53.6,223.3c6.9,29.1,13,58.5,19.4,87.7
		c0.5,2.2,0.1,4.6,0.1,6.8c-0.8,0.1-1.6,0.3-2.3,0.4c-1.8-4.2-3.7-8.3-5.5-12.5c-44.6-105.5-93.4-209.1-143.7-312.1
		c-3.3-6.7-7.2-9-14.5-8.9c-38.7,0.3-77.3,0.1-116,0.2c-3.2,0-6.5,0.3-10.1,0.5c0,2.8-0.3,4.7,0,6.6c8.6,54.2,17.3,108.4,26,162.7
		c10.4,64.4,20.8,128.8,31.2,193.2c10.3,64.4,20.5,128.8,30.8,193.2c10.4,64.7,20.9,129.4,31.3,194.2c1.6,9.9,1.5,10.1,11.3,11.9
		c50.4,9.3,100.8,18.5,151.3,27.6c1.7,0.3,3.6-0.2,5.2-0.3c0.2-1,0.3-1.4,0.2-1.7c-34.2-162.2-68.4-324.3-102.6-486.5
		c-0.2-0.9-0.1-2,0-3c0-0.3,0.2-0.7,0.4-0.9c0.2-0.2,0.6-0.2,0.9-0.3c4.2,3.5,4.2,3.5,7.5,10.8c48.6,108.2,91.3,218.7,131.5,330.2
		c19.8,54.8,39.1,109.7,58.3,164.7c2.2,6.3,5.7,8.8,11.8,10.1c27.4,5.6,54.7,11.6,82.1,17.3C3739,867.3,3758.2,871.3,3779.6,875.8z
		 M1907.1,356.6c5.9,3,9.8,4.3,12.9,6.6c23,16.7,41.6,37.4,53.9,63.2c14.4,30.2,25.1,61.7,32.2,94.3c9.1,42.1,13.1,84.8,16.2,127.7
		c0.3,4.5,1.2,9,1.9,14.7c54,0.4,107.1,2.9,161.3,3.1c-0.5-7.1-0.5-13.1-1.5-18.9c-6.3-37.7-12.2-75.6-19.6-113.1
		c-6.8-34.6-14.9-69-27.6-102.1c-19.1-49.8-48.6-91.6-93.7-121.3c-1.3-0.9-2.4-2-4.4-3.6c4.8-2.7,8.8-4.9,12.8-7.1
		c16.7-9.1,32.4-19.9,46.6-32.6c22.2-19.8,34.9-44.5,36.3-74.2c1.9-40.3-14.2-73.4-43.9-99.8c-27.1-24-58.7-40.4-93.8-49.3
		c-39.1-10-79.1-15.3-119.5-16.5c-37-1.1-74-0.4-111-0.4c-2.5,0-5.1,0.6-8.3,1c-1.1,53.2-2.3,105.8-3.4,158.4
		c-1.1,52.6-1.9,105.3-3,157.9c-1.1,53-2.8,105.9-3.3,158.9c-0.6,52.4-3,104.9-2.5,157.5c54.3,0,107.1,0,161.1,0
		C1907.1,559.8,1907.1,459.3,1907.1,356.6z M1020.4,707.9c4.6,0,8.4,0.2,12.3,0c43.5-3.1,86.7-9,129.5-17.6
		c40.3-8.1,77.9-22.8,112.8-44.2c63.3-38.8,109-92.9,139.8-160.1c30.2-65.9,44.5-134.9,42.7-207.4c-0.8-30.2-4.5-59.7-14.5-88.3
		c-20.9-60-59.6-103.8-117.9-130.1c-36.6-16.5-75.4-23.7-114.8-29c-31.8-4.2-63.8-4.1-95.8-4.3c-8.2,0-16.6-0.5-25.2,3.5
		C1066.5,255.7,1043.5,481.1,1020.4,707.9z M3352.6,790.8c-68.8-259.1-146.5-513.1-236.3-762.8c-54.6,0-107.8,0-161.1,0
		c-0.6,2.2-1.1,3.8-1.3,5.4c-3.2,26.4-7,52.8-9.4,79.3c-4.5,49.7-8.3,99.5-12.1,149.3c-2.9,38.5-5.5,77-8,115.6
		c-2.8,44.5-5.5,89.1-8,133.6c-1.7,30.9-3.4,61.9-4.4,92.8c-1.2,36.6-1.7,73.3-2.5,109.9c-0.1,3.6,0.3,7.2,0.5,10.4
		c14.7,4.4,154,22.1,162.2,20.5c-2.1-53.3-4.1-106.7-6.3-161.5c29.3,2.7,56.9,5.3,84,7.9c0.9,2.2,1.4,3.1,1.6,4
		c10.1,52.3,20.3,104.5,30.3,156.8c2.3,11.9,2.3,11.9,14.4,13.9c39.8,6.4,79.5,12.9,119.3,19.3
		C3327.2,787,3338.6,788.7,3352.6,790.8z M389.9,799c8.3-1.3,14.5-2.1,20.7-3.2c45.3-7.7,90.5-15.3,135.8-23.1
		c11-1.9,11.1-2.1,12.8-12.8c6.5-41.1,13-82.1,19.3-123.2c11.6-75.6,23.2-151.3,34.6-226.9c1-6.4,3.4-10.5,10-11.8
		c2.3-0.5,4.5-1.2,6.8-1.7c29-6.4,57.1-15.8,84.6-26.9c64.7-26.3,114.1-70,148.5-130.8c28.4-50.3,16-112.1-26.5-147.6
		c-19.6-16.3-41.3-29.3-65.5-37.7c-42.5-14.8-86.6-21.7-131.2-23.7c-36.6-1.6-73.3-0.7-109.9-0.9c-2.3,0-4.6,0.4-8.1,0.7
		C477.8,285.3,434,541.2,389.9,799z M499.1,34.1c-20.2-5.2-39.7-7.6-59.2-8.7c-27-1.5-54-1.6-80.8,1.8c-22.2,2.8-44.1,6.4-65.3,14.1
		C253.4,56,220,79.8,198.7,118c-26.8,47.9-31.4,99.3-19.2,152c10.8,46.8,26.6,92.1,44.6,136.6c15.8,38.9,26.5,78.8,29.2,120.8
		c1.2,19.3,1.1,38.6-3,57.7c-14.3,65.7-65.3,107.5-132.5,108.3c-11.3,0.1-22.5-0.4-33.6-3.4c-12.1-3.3-14.1-1.6-16.7,11
		c-9,43.3-18,86.7-27,130c-1.9,9-3.5,18-5.3,27.6c5,1.2,8.9,2.3,12.7,2.9c21.6,3.7,43.1,3.5,64.6-0.2
		c97.4-16.8,176.2-64.2,235.3-143.6c36.9-49.7,59.9-105.2,64.6-167.4c4.1-54.2-3.3-107.1-20-158.6c-13.5-41.5-29.8-82-47.8-121.8
		c-8.2-18-14.8-36.6-16.5-56.3c-1.2-14.2-2-28.8-0.1-42.8c4.3-31.2,23.8-50.4,52.8-60.6c30.2-10.6,60.9-9.2,91.7-3.6
		c4.2,0.8,8.3,1.7,13.3,2.7C492,84.5,495.8,60,499.1,34.1z M1488.9,29c-3.9,27.9-36,635.8-33.9,645c21.1-0.9,42.4-1.7,63.6-2.7
		c38.6-1.7,77.2-3.5,115.8-5c28.3-1.1,56.6-1.5,84.9-2.3c1.9-0.1,3.8-0.6,6.7-1.1c0-34,0-67.8,0-102c-36-0.6-71.4,1-107.8,0.1
		c2.4-65.9,4.7-130.3,7-195.8c36.3-0.5,71.5,0.2,106.9-0.4c0-29,0-56.5,0-84.9c-4.2-0.2-7.7-0.5-11.3-0.5c-27,0-54,0-81,0
		c-3.5,0-7-0.4-11.2-0.6c2.2-59.3,4.3-117.4,6.4-176.7c34.9,0,68.7,0,103.2,0c0-25,0-48.8,0-73.1C1655.1,29,1572.2,29,1488.9,29z
		 M911.5,29.2C882.2,263,853.3,496.7,824,731.9c57.5-6.9,113.2-13.5,169.7-20.3c23.4-227.6,46.7-454.7,70-682.4
		C1012.6,29.2,962.7,29.2,911.5,29.2z M2147.5,281.9c1,26.6,1.9,51.9,3,77.1c0.1,2.5,1.4,4.9,2.1,7c14.5,1.8,122,1.2,129.3-0.6
		c2.2-13.9-0.7-72.3-4.3-83.5C2235,281.9,2192.2,281.9,2147.5,281.9z M460.2,212.3c-2.4-0.3-4.4-1.1-6.2-0.8
		c-11.7,2.2-23.7,3.5-35,7.2c-17.5,5.7-26.7,18.9-28.8,37.1c-1.7,14.4,0.1,28.5,3.4,42.5c6.6,28,19.6,53.6,29.9,80.3
		c0.8,2,3.1,3.5,4.6,5.2c0.8-0.2,1.6-0.5,2.4-0.7C440.3,326.4,450.2,269.6,460.2,212.3z M1655.2,532.5c20.6,0,40.7,0,61,0
		c0-20.2,0-39.7,0-59.7c-20.6,0-40.7,0-61,0C1655.2,493.1,1655.2,512.6,1655.2,532.5z M1722,253.9c1.9-12.9,1.4-33.1-0.8-39.8
		c-19.9,0-39.7,0-60,0c0,13.5,0,26.4,0,39.8C1681.5,253.9,1701.4,253.9,1722,253.9z"/>
	<path class="st0" d="M1920.8,267.3c0-52,0-103.2,0-154.4c34-0.4,69.9,36.8,70.8,73.1C1992.7,224.4,1957.8,264.8,1920.8,267.3z"/>
	<path class="st0" d="M1231,124.3c4.6,2,8,3.2,11.1,4.9c23.5,12.7,38.8,32.1,45.9,57.8c5.1,18.7,8.2,37.7,8.2,57.2
		c0.1,23.6,0.7,47.3-0.1,70.9c-1.6,45.4-8.4,90.2-20.5,134c-11.2,40.5-34.6,73.1-68.9,97.7c-2.9,2.1-6.1,3.6-9.4,5.4
		c-2.4-7.3,2.2-67.2,6.5-106.7c3.8-35.4,6.1-71,9-106.5c3-35.5,6-71,9-106.5C1224.8,196.9,1227.8,161.5,1231,124.3z"/>
	<path class="st0" d="M3123.9,474.5c-21.7,1.4-42-2.1-63.3-3.3c-0.5-4.7-1.1-8.8-1.3-13c-1.7-34.3-3-68.6-4.9-102.8
		c-3-54.2-6.2-108.4-9.5-162.6c-1.1-19-2.6-37.9-3.8-56.8c-0.2-3.6,0-7.2,0-11c5.7-2.2,8.4-0.4,9.6,5c3,14,6.1,28,9.1,42
		c18.5,86.9,37,173.8,55.5,260.8C3118.1,446.1,3120.8,459.7,3123.9,474.5z"/>
	<path class="st0" d="M657.8,117.9c41.5,7.3,72.4,53.3,54.5,98.4c-13.6,34.4-38,58.1-72.6,71.2c-1.5,0.6-3.1,1.1-4.7,1.5
		c-0.6,0.1-1.3-0.1-3.3-0.4C640.4,231.9,649,175.2,657.8,117.9z"/>
</g>
</svg>
