<?xml version="1.0" encoding="utf-8"?>
<!-- Generator: Adobe Illustrator 19.0.0, SVG Export Plug-In . SVG Version: 6.00 Build 0)  -->
<svg version="1.1" id="Layer_1" xmlns="http://www.w3.org/2000/svg" xmlns:xlink="http://www.w3.org/1999/xlink" x="0px" y="0px"
	 viewBox="0 0 957 404" style="enable-background:new 0 0 957 404;" xml:space="preserve">
<style type="text/css">
	.st0{fill:#FFFFFF;}
</style>
<path class="st0" d="M271,137l-57.7,76.3c0,0-17.6-12.7-21.3-15c-3.8-2.3-6.8-5.5-10.7-1.2c-3.8,4.3-3.3,7.7-2.2,10.7
	c1.2,3,10.3,19.2,20,28.7c9.7,9.5,37.5,41.7,44,51.8c6.5,10.2,15.3,46.5-0.3,68.7s-39.7,48.2-83.3,31.5s-50.7-31.3-50.7-31.3
	s-3.7-9.3-3.7-17.5c0-5.1,1.6-6.3,3.4-8.4c0.8-0.9,1.4-1.8,5.8-3.8c5.9-2.7,10.3-3.6,15.1-2.1c5.2,1.7,8.3,7.5,18.8,7.3
	c9.2-0.1,15.6,0.3,18.4-7.7c0.8-2.2,1-4.6,0.9-7c-0.4-8.9-3.7-14.9-19.5-28.1c-17.5-14.7-44.2-51.2-49.8-62.7
	c-5.7-11.5-18.5-37.3-17.5-59.7s5.3-37.8,16.8-51.7s27.8-26.5,42.7-31c14.8-4.5,32-9,53.7-3s39.2,17.8,48,25
	C250.8,114,271,137,271,137z"/>
<path class="st0" d="M367,141.2l36-27c0,0-7-7.5-27-12.2s-26.8-4.3-37.5-2.5s-31,4.8-54,13.3s-24.8,9.2-24.8,9.2l13.8,15l-8.2,11.7
	l-11.6,14.7l-1.5,144.5c0,0,0.9,6.8,0.9,11.4c0,3.7,0.6,8.1-0.2,15.9l-1.8,41l93.1-11.3l-10-81.4c0,0,33.3,0.5,65.8-25.8
	c32.5-26.3,33-41,33-41L367,141.2z M353.5,190.1c-2,15.1-30.1,17.9-30.1,17.9l-2-32.5c0,0,12.6-1.3,15.3-1S355.5,175,353.5,190.1z"
	/>
<polygon class="st0" points="438.8,88.9 370.9,141.9 447.4,229.3 412.5,385.8 518.6,350.3 517,244.4 612.3,168.4 554.3,97.6 
	493.6,167.3 "/>
<path class="st0" d="M680.5,271.8c0,0,64.3-12,63.3-59s-16.3-56.2-33.5-68.3c-17.2-12.2-50.3-23.5-73.2-25c-22.8-1.5-54,0-54,0
	l-0.8,10l32.7,39l-31,24.8l-12.3,11.1L556,353l80,22.8l6.8-61l59.7,62.7l54.2-66.3L680.5,271.8z M670.7,215.8
	c-10.9,14.1-29.6,3.9-29.6,3.9l1.7-34.2c8.2,0.6,15.3,2.6,19.4,4.9C666.3,192.8,681.6,201.8,670.7,215.8z"/>
<path class="st0" d="M948.5,232.9c-7.3-39.3-30.6-65.4-51.1-78.6s-43.5-24.6-77.3-21.1s-75.8,43.5-78.5,50.5c0,0,4.3,16.9,3.4,32.3
	s-6.5,28.9-27.4,43.6c2.9,24.6,4.6,33.1,4.6,33.1l36,18.1L740.1,333c0,0,25.8,32,43.9,37.3c17,7.6,52.1,22.4,92.4,2.3
	s53-42.1,60.6-58.4S955.8,272.1,948.5,232.9z M835,290c-17.5,0-31.7-14.2-31.7-31.7c0-17.5,14.2-31.7,31.7-31.7
	c17.5,0,31.7,14.2,31.7,31.7C866.7,275.8,852.5,290,835,290z"/>
<path class="st0" d="M110.2,248.2c0,0-8.5-0.5-15.4,3.2c-6.9,3.7-9.3,5.3-11.4,7.4c-2.2,2.1-3.3,3.7-4.6,3.7s-1.8-1.2-2.1-6.5
	c-0.3-5.3-0.8-11.3,1.3-20.5c2.1-9.2,5.7-16.7,3.8-21.8c-1.9-5.1-4-9.8-14.3-13.8s-22.3-5.8-28.7-5.5s-10.8,0.3-14.3,2.1
	s-3.9,1.2-3.3-3c0.7-4.2,2.7-13.8,7.8-19.7s16.3-16.8,18.7-20.3c2.4-3.5,9.5-9.7,10.1-15.4s1.8-12.5-3.8-21.5s-11-13.3-18.3-16.3
	S24.4,97.9,20.3,99s-5.8,2.9-8.2,2.5s-2.3-2.4,0-5.4S24,80,30.2,75.1c6.2-4.9,15.7-6.6,20.8-6.7c5.1-0.1,14.5-0.3,22.8,1.7
	c8.3,1.9,18.2,6.4,25.1,5.5c6.9-0.9,11.4-1.8,12.3-8.4c0.8-6.7,2.6-15.7-2-27.1C104.5,28.7,97.2,22,92.8,17.8c-4.3-4.2-8.2-5.5-8-8
	C85,7.3,94.3,8,99.8,8s18.4,2.3,32.4,12.8s20.8,21.4,22.9,24.5c2.1,3.1,13.3,18.3,19.8,22.5c6.5,4.2,12.6,6.5,19.8,1.3
	c7.2-5.2,15.9-12.3,17.3-17.1c1.3-4.8,3.2-14.3,1.9-20.8s-0.9-6.5-0.3-6.6c0.7-0.1,1.1-0.4,2.4,2.3s5,9.3,6.6,13.3
	c1.6,4,5.4,12,6.5,17.9c1.1,5.9,2.7,10.3,1.4,20.9s-2.9,16.3-2.9,16.3s-17.1-12.8-41.8-17.5s-53.8,6.8-57.8,9.2
	c-4,2.4-22.3,13.8-32.3,26.9s-13.3,24.6-14.1,28.6s-4,21.1-2.8,29.8c1.2,8.7,2.9,19.2,6.7,29.5s12.3,27.9,16.6,34
	C106.3,241.9,110.2,248.2,110.2,248.2z"/>
<path class="st0" d="M130.1,323.4c0,0,1.4-5-4.5-8.3s-7.6-3-7.6-3s-1.6-4.6-10-4.6c-5.1-6.3-13.5-9.8-17.6-9.6
	c-1.5-4.5-8.9-7.8-10.6-9.5c-1.7-1.8-3.9-6.4-6.4-7.9s-3.6-2.5-3.8-1.1s0.5,8,0,11.1s1.1,1.9,1.1,1.9s-1.3,10.1-0.4,12.8
	s3.9,6.8,3.9,6.8s-2.5,9.5,0.1,15s6.4,7.9,6.4,7.9s-0.6,7.8,1.8,12s6.3,8.9,12.5,10.6s12,0,12,0s-13.3-23.6,3.2-31.1
	S130.1,323.4,130.1,323.4z"/>
</svg>
