<?xml version="1.0" encoding="utf-8"?>
<!-- Generator: Adobe Illustrator 19.0.0, SVG Export Plug-In . SVG Version: 6.00 Build 0)  -->
<svg version="1.1" xmlns="http://www.w3.org/2000/svg" xmlns:xlink="http://www.w3.org/1999/xlink" x="0px" y="0px"
	 viewBox="944 132 2134 426" style="enable-background:new 944 132 2134 426;" xml:space="preserve">
<style type="text/css">
	.st0{fill:#FFFFFF;}
	.st1{opacity:0.3;}
</style>
<g id="Layer_1">
	<g>
		<path class="st0" d="M1035.2,522.4c-6.3,0-12.8-3.9-12.9-12.6c0-2.8,0-42,0-99.9c0-5.9,5.6-6.2,9.4-6.4c0.3,0,0.5,0,0.6-0.1
			c0.1-0.3,0.1-0.8,0.1-1.2c0-1.3,0-3.2,1.3-4.6c1.3-1.5,3-1.6,4.1-1.6c0.1,0,0.2,0,0.3,0c0.2-1.6-0.3-5.7-2.7-7.2
			c-0.9-0.6-2.5-1.1-4-1.7c-4-1.4-8.6-3.1-8.8-7c-0.2-4.7-0.1-9.8-0.1-14.7c0-2.2,0-4.3,0-6.3c0-2.9,1.4-5.1,2.5-6.9
			c0.4-0.7,1-1.7,1.1-2c0-0.3,0-0.3-0.3-0.8c-0.4-0.7-1.1-1.7-1.1-3.3c0-2.7,2.8-3.2,4.9-3.5c-0.3-0.3-0.7-0.5-0.9-0.7
			c-0.7-0.6-1.4-1.1-2.1-1.7l-0.2-0.2c-1.3-1.2-3.8-3.4-3.8-7.3c-0.4-38.7-0.1-71.1,0-83.3c0-2.5,0-4,0-4.3c-0.1-5-0.7-5.4-4.3-5.4
			c-5.2-0.1-19.3-0.1-20.8-0.1c-5.7,0-9.4-4.2-9.4-10.6c0-0.3,0-35.1,0.1-38.4c0.3-7.6,4.6-12,12.1-12.3c2-0.1,17.3-0.1,45.4-0.1
			c23.6,0,49.9,0,62,0l6.6,0c5.7,0,12.3,1.3,12.4,11.3c0.1,6.5,0.1,35.4,0.1,39.5c0,5.9-3.9,10.4-9.1,10.4c-2.2,0-7.4,0-12.4-0.1
			c-3.6,0-7.2-0.1-10.8-0.1c-3.3,0-4.2,0.4-4.2,3.6l0,122.6l0,142.9c0,4.2,0,14.1-11.4,14.1l-0.2,0c-1,0-2.4,0-4.2,0
			c-11.4,0-35.1,0.2-39,0.3L1035.2,522.4z M1165.5,486c-6.7,0-10.1-3.6-10.7-11.2c-0.2-1.9-0.2-20.7-0.2-55.7c0-1.4,1-5.7,4.1-5.8h0
			c0.4,0,0.7,0,1,0.1c0-0.7-0.1-1.3-0.2-1.9c-0.2-0.4-1.3-1.8-1.7-2.1c-0.2-0.1-0.3-0.3-0.5-0.4c-1-0.7-2.7-1.9-2.7-4.3
			c0-81.8,0.4-209.4,0.4-213.4c0.1-7.4,5.7-12.8,13.4-12.9c4,0,39.3,0,60.5,0l15.4,0c7.9,0,10.8,5.3,10.9,10.2
			c0.1,4.1,0.2,24.7,0.1,28.3c-0.1,6.1-5,11.2-10.9,11.4l-0.8,0c-0.7,0-1.5,0.1-2.4,0.1l-0.4,0c-2.3,0-3.4-2.1-4.3-3.6
			c-0.3-0.5-0.5-0.9-0.8-1.4c-0.1,0-0.3,0-0.4,0c-0.6,0-1,0.1-1.2,0.2c-0.1,0.2-0.1,0.4-0.2,0.6c-0.5,1.5-1.5,4.4-4.6,4.4
			c-3.4,0-6.4,0.1-7.9,0.1c-2.6,0-4,3.5-4,5.9c0,2.9,0,46,0.1,49.6c0.1,4.2,4.8,4.3,5.3,4.3c1.8,0,5.6,0.1,9.8,0.1
			c4.7,0.1,10,0.2,12.9,0.2c6,0,9.8,3.6,10.1,9.7c0.2,4.4,0,27.8-0.2,32.5c-0.3,6.7-6.4,11.9-11.7,12c-3.4,0.1-14,0.1-21.7,0.1
			c-1.7,0-2.3,0.6-2.5,0.8c-1.3,1.3-1.5,4.6-1.4,7.9l0,1.7c0.2,20.3,0.1,37.2-0.3,50c-0.1,3-2.6,4.3-4,4.9l-0.4,0.2
			c-0.1,0.9,0,2.7,0.2,3.5c0,0.1,0.1,0.2,0.1,0.2c0,0,0.3,0.1,0.6,0.1c0.8,0.2,3.4,0.9,3.4,3.9c0,6.9,0.1,13.4,0.1,14.6
			c0.1,3.1,0.8,3.8,4,3.8c3.8,0,18.1,0,22.3,0.1c6.5,0.1,11.1,5.5,11.1,13c0,4.2-0.1,22.3-0.1,27.1c-0.1,6.6-3.7,10.7-9.5,10.7
			c-2,0-19.6,0-37.9,0.1C1188.1,486,1168,486,1165.5,486L1165.5,486z M1290.8,488.3c-3.2,0-6.8-0.3-9-2.8c-1.5-1.7-2.1-4-1.7-7
			c0.3-2.3,34.2-280.8,34.8-284.5c0.9-5.4,4.9-13.5,12.4-13.8c1.8,0,3.7,0,5.5,0c11.6,0,36.9,0.2,40.9,0.3
			c8.6,0.1,13.2,4.3,14.9,13.8c0.7,3.7,14.5,101.8,25.5,180.6c7.1,50.7,13.3,94.5,13.8,97.5c0.9,6,1,10.5-1.4,13.4
			c-1.4,1.6-3.4,2.4-5.9,2.4h0c-5.7,0-34.5-0.4-39.8-0.5c-8.7-0.3-13.2-4.2-13.5-11.6c0-1.7,0-6.1,0-11.6
			c0.1-10.2,0.2-24.2-0.2-27.8c-0.6-5.9-1.5-8.7-6.8-8.7c-2.6,0-5.4,0-8,0c-2.3,0-4.4,0-6.1,0c-4.7,0-5.4,2.3-5.4,4.8
			c0,3.3-0.2,13.8-0.4,23.1c-0.1,7.8-0.3,15.2-0.3,17c0,11.9-6.5,14.3-10.4,14.7C1324.5,488.2,1303.1,488.3,1290.8,488.3
			L1290.8,488.3z M1353.2,301.3c-1.2,8.2-6.9,60.1-7.2,63.5c-0.2,3.1,0.8,4.7,3.3,5.1c2.9,0.5,5.5,0.3,8.6-0.5
			c1.2-0.3,1.8-0.5,1.5-5.2c-0.1-1.7-1-12-2-23.9c-0.3-3.9,3.8-4.8,6.3-5.4l0.4-0.1c-0.6-0.4-1.2-0.8-1.6-1.1
			c-2.4-1.6-4-2.7-4.7-3.8c-1.5-2.3-1.7-3.8-1.8-5.7l-0.1-0.7C1354.3,307.6,1353.5,302.8,1353.2,301.3L1353.2,301.3z M2310.9,488.1
			c-6.4,0-12.8-3.9-12.9-12.7c0-3.7,0-63.2,0.1-120.7c0.1-52.7,0.1-102.5,0.1-104.8c-0.1-5-0.7-5.4-4.3-5.4
			c-5.4-0.1-13.2-0.1-15.5-0.1c-6.1,0-9.4-6.4-9.4-12.4c0-4.6,0.4-37,0.5-40.1c0.3-7.6,4.6-12,12-12.3c1.5-0.1,9.4-0.1,20.3-0.1
			l4.5,0c3,0,3.8,2.7,4.2,3.7l0.1,0.2c1.5,0.2,3,0.4,4.7,0.7c2.9,0.5,5.9,1,8.7,1c1.5,0,2.7-0.1,3.9-0.4c0.2-0.1,0.7-1.1,1-1.6
			c0.8-1.5,2-3.7,4.5-3.7c19.4,0,39,0,48.2,0l5.3,0c5.7,0,12.3,1.3,12.4,11.3c0.1,4.5,0,19.5-0.1,30.4c0,3.6,0,7.1-0.1,10.7
			c0,5.1-3.2,12.1-9.1,12.1c-2.2,0-6.4,0-10.5-0.1c-3.8,0-7.4-0.1-9.1-0.1c-3.3,0-4.2,0.4-4.2,3.6l0,62.2c0,1.9-1,3.4-1.8,4.8
			c-0.5,0.9-1.1,1.8-1.1,2.4c0,0.4,0.4,1.3,0.8,2c0.6,1.2,1.2,2.6,1.2,4.1c0,0.5,0.2,1.1,0.4,1.8c0.3,0.9,0.6,2,0.6,3.2
			c0,12.2,0,24.9-0.1,37.6c-0.1,25.4-0.1,49.3,0.1,68.7c0,1.4-0.4,2.6-1.2,3.4c-0.5,0.5-1.5,1.2-3,1.2c-0.9,0-1.9-0.2-2.7-0.4
			c-0.3-0.1-0.8-0.2-1-0.2c-0.7,0-2.3,2-2.3,3.1c0.1,0.2,1,0.8,2.9,0.8c0.6,0,1.2-0.1,1.6-0.2c1.6-0.4,3,0,4,1
			c1.7,1.7,1.7,4.6,1.7,6.1l0,0.2l0,24.3c0,4.2,0,14.1-11.4,14.1h-0.2c-1,0-2.4,0-4.2,0c-11.3,0-34.9,0.2-39,0.3L2310.9,488.1z
			 M2614.8,486.1c-6.9,0-10.8-3.8-11.4-11.3c-0.6-7.3,0.2-281,0.2-283.4c0.1-7.2,6.2-12.8,14.1-12.9c3.9,0,39.4,0,60.6,0l15.4,0
			c6.6,0,10.8,3.9,10.9,10.2c0.1,4.1,0.2,24.6,0.1,28.3c-0.1,6.1-5,11.2-10.9,11.4c-4.1,0.1-18.8,0.4-23,0.4c-2.6,0-4,3.5-4,5.9
			c0,3.8,0,46.1,0.1,49.6c0.1,4.2,4.8,4.3,5.3,4.3c1.8,0,5.6,0.1,9.8,0.1c4.7,0.1,10,0.2,12.9,0.2c6,0,9.8,3.6,10.1,9.7
			c0.2,4.3,0,27.7-0.2,32.5c-0.3,6.7-6.4,11.9-11.7,12c-3.9,0.1-17.3,0.1-21.6,0.1c-1.7,0-2.3,0.6-2.5,0.8c-1.3,1.3-1.5,4.6-1.5,7.9
			c0,2-0.1,12.6-0.1,26c-0.1,21.1-0.3,49.9-0.2,53.3c0.1,3.1,0.8,3.8,4,3.8c4.1,0,18.1,0,22.3,0.1c6.5,0.1,11.1,5.5,11.1,13
			c0,4-0.1,22.3-0.1,27.1c-0.1,6.6-3.7,10.7-9.5,10.7c-2,0-19.6,0-37.9,0.1C2637.4,486,2617.2,486.1,2614.8,486.1L2614.8,486.1z
			 M1844.9,522.8c-2,0-12.4,0-23.2,0c-11.5,0-23.4,0-25.8,0c-6.9,0-10.8-3.8-11.4-11.3c-0.3-3.2-0.1-62,0-130.2
			c0.1-59.7,0.3-127.3,0.1-163.6c0-3.6,2.3-4.4,3.4-4.8l0.2-0.1l0-0.1c0,0,0-0.1,0-0.1c0,0-0.1,0-0.1,0c-0.9-0.3-3.3-1-3.4-4.2
			c-0.1-6.2-0.1-12.1,0.1-17.4l0-0.5c0.1-7.4,5.8-12.8,13.5-12.9c3.9,0,40.5,0,62.2,0c7.9,0,13.9,0,15.5,0c6.6,0,10.8,3.9,10.9,10.2
			c0.1,4.1,0.2,31.8,0.1,35.5c-0.1,6.1-5,11.2-10.9,11.4c-4,0.1-13.4,0.4-17.7,0.4c-2.6,0-4,3.5-4,5.9c0,3.5,0,56.8,0.1,60.3
			c0.1,2.5,1.8,3.7,5.3,3.7c1.8,0,4.2-0.1,6.8-0.1c3.1-0.1,6.2-0.1,9.3-0.1c6,0,9.8,3.6,10.1,9.7c0.2,4.2,0,32.3-0.2,37.3
			c-0.3,6.6-6,11.3-11.1,11.4c-3.7,0.1-9.8,0.1-15.7,0.1c-1.6,0-2.3,0.5-2.7,1c-1.3,1.3-1.9,4.1-1.9,8.3c0,3-0.1,7.3-0.1,12.2
			c-0.2,10.9-0.4,25.9,0.2,38.8c0.1,2.6-1.1,4-1.9,4.9c-0.6,0.7-0.9,1-0.8,2l0,0.2c2.2,0.9,2.1,3.5,2.1,4.6
			c-0.1,2.8-1.9,4.1-3.4,5.1c-1.3,1-2.7,1.9-3.6,4.3c-0.4,1-0.4,1.7-0.3,1.8c0,0,0.1,0,0.3,0c0.1,0,0.3,0,0.6-0.1
			c0.6-0.1,1.4-0.2,2.2-0.2c1.5,0,2.8,0.4,3.6,1.3c0.6,0.6,1.2,1.6,1.2,3.3c-0.1,31.4,0,60.9,0,61.2
			C1854.4,518.7,1850.7,522.8,1844.9,522.8L1844.9,522.8z M1628.6,485.5c-8.1,0-16.2,0-20.7,0l-3.2,0c-4.1,0-8.3-2.7-8.3-8.7V360.8
			c-2.1,10.9-7.7,43.2-12.1,67.7c-4.1,23.2-7.3,41.5-7.7,43.5l-0.3,1.5c-1.1,4.8-2.3,10.2-7.8,10.2c-2.1,0-6.3,0-10.4-0.1
			c-3.1,0-6.2,0-9.3-0.1c-4.6,0-8-2.9-9.3-8.1c-1.1-4.3-21.5-102.9-24.1-115.6c-0.4,13-0.6,105.5-0.6,114.6c0,5.8-2.6,8.7-8,8.7
			c-1.2,0-5.1,0.1-10,0.3c-8.1,0.3-19.3,0.6-25.3,0.6c-2,0-3.3,0-4-0.1c-6.9-0.7-6.9-6.5-6.9-9.3c0-1.4,0-2.9,0-4.3
			c-0.5-94.2-0.5-172.3-0.1-219.9c0-3.7,3.5-4.5,5.2-4.9c0.2,0,0.4-0.1,0.7-0.2c-1.2-0.7-3.5-2-3.3-4.7c0.1-2.8,2-3.8,3.4-4.3
			c-0.6-0.6-1.2-1.3-1.9-1.9c-2.7-2.6-4.1-4.1-4.1-5.8l0-35.4c-0.1-4.3,0.9-7.5,2.8-9.6c1.5-1.5,3.4-2.3,5.8-2.3
			c18.9-0.1,37.8-0.2,56.7-0.3c3.8,0,6,0,6.7,0c5.1,0.2,10.1,4.3,11.2,9.2c0.4,1.9,2.9,16,5.9,32.4c3.2,17.9,7.2,40.3,7.7,42.2
			c0,0.2,0.1,0.3,0.1,0.4c0-0.1,0-0.1,0.1-0.2c1.1-5,12.4-74,12.5-74.6c0.9-5.6,5.1-9.4,10.5-9.6c0.3,0,1.1,0,2.2,0
			c7.2,0,29.8,0.2,44.8,0.3c7.8,0.1,13.7,0.1,14.6,0.1c7.1,0,14.4,3.7,14.7,10.8c0.2,5.9,3.2,279.6,3.2,281.7
			c0,7.6-3.8,10.8-7.3,11.3C1651.8,485.3,1650.3,485.5,1628.6,485.5L1628.6,485.5z M2010,486.8c-22.3,0-51.9-0.1-58.6-0.3
			c-21.7-0.5-32.7-13-32.7-37.3c0-4.2,4.9-4.6,7.8-4.8l0.2,0c-0.5-0.4-0.9-0.7-1.4-1.1c-3.1-2.4-6.6-5.1-6.6-8.7
			c0.3-77.8,0.9-210.1,1.3-221.8c0.8-23.9,21.6-38.2,41.3-38.2c6.3,0,17.7,0,29.1,0.1c14.3,0,28.7,0.1,33,0.1h0.3
			c12,0,23.3,4.8,31.9,13.5c7.8,7.8,12.2,17.7,12.1,27.1c0,1.4,0,5.7,0,11c0,2.1-1.4,3.4-2.6,4.2c1.2,0.8,1.5,2,1.5,2.8l0,0.2
			c0,0.8,0.1,3.3-2.7,4.2c-0.5,0.2-1,0.2-3.9,0.3c-1.1,0-2.8,0.1-4.2,0.2c0.1,0.4,0.2,0.9,0.2,1.4c0,0.9-0.3,1.7-0.6,2.3
			c0,0.1-0.1,0.2-0.1,0.4c0.6,0.7,2.1,1.9,3.1,2.7c2.5,2,4,3.3,4.4,4.7c0.2,0.7,0.3,1.6,0.3,2.5c0,0.3,0,0.8,0,1.1
			c1.1,0,2.4,0.3,3.4,1.3c1.2,1.2,1.1,2.7,1.1,3.9c-0.1,3.4-1.1,4.8-2.1,6l-0.1,0.1l0.2,0.2c0.8,0.8,2,2.2,2,4.8c0,2.2,0,4.4,0,6.7
			c0,1.6-1.2,2.8-2.2,3.7c-0.2,0.2-0.6,0.6-0.7,0.8c-0.6,1.6-1.2,3.5-1.4,5c1.4,0.4,4.3,1.3,4.3,4.8c0,32.8-0.1,70.3-0.1,100.5
			c0,18.7-0.1,37.5,0,56.2c0.2,24.2-15.5,39-30.7,39.4C2033.4,486.7,2023.9,486.8,2010,486.8L2010,486.8z M1987.4,233.3
			c-3.9,0-4.9,1.1-4.9,5.1l0,7.9c0,20.7-0.2,83.7-0.1,129.2c0,2.6,0,5.2,0,7.7l0,5.7c0,31.7,0.2,37.7,0.3,38.4
			c0.4,3.5,1.7,3.6,3.9,3.7c1.9,0.1,4.1,0.1,6.3,0c1.1,0,2.2,0,3.1,0c1.5,0,3.1-0.3,3.6-4.2c0.6-5.1,1.2-180.4,1.2-189.2
			c0-4.1-3.8-4.2-4.2-4.2c-1.3,0-3,0-4.7-0.1C1990.2,233.4,1988.5,233.3,1987.4,233.3L1987.4,233.3z M2187.5,477.5
			c-0.2-0.1-0.3-0.2-0.5-0.3c-0.3-0.1-0.4-0.1-0.7,0c-0.3,0.1-3.1-0.2-3.2,0.9c0.4,3.1,2.2,6.3,7.2,6.4c0.3,0,1.8-1.4,1.7-1.7
			c-1.5-1.4-2.9,0.7-4.3-1.5C2187.1,480.5,2187.8,477.7,2187.5,477.5L2187.5,477.5z"/>
		<path class="st0" d="M2190.3,486.9L2190.3,486.9c-5.5-0.2-8.9-3.3-9.6-8.5l0-0.2l0-0.2c0.1-3.1,3.8-3.1,5-3.1l0.1,0
			c0.5-0.1,1.3-0.1,1.8,0.1l0.2,0.1c0.4,0.1,0.6,0.3,0.8,0.4c1.5,0.8,1.4,2.5,1.3,3.6c0,0.3-0.1,0.6-0.1,0.9
			c1.4-0.2,2.8,0.1,3.8,1.1l0.3,0.3l0.2,0.4c0.2,0.4,0.5,1.4-0.1,2.5C2193.8,484.7,2192.1,486.8,2190.3,486.9L2190.3,486.9
			L2190.3,486.9z"/>
		<path class="st0" d="M2235.4,486.4c-5.3,0-16.4-0.2-26.3-0.3l-9.7-0.2c-2.6-0.1-2.9-2.9-3-3.9c0-0.2,0-0.4-0.1-0.5
			c-0.4-0.6-1.3-1.4-2.1-2c-0.8-0.7-1.6-1.3-2.3-2.1c-0.2-0.3-0.6-0.6-0.9-1c-1.4-1.4-3-3-3.3-4.9c0,0,0-0.1,0-0.1
			c-0.5,0.2-0.9,0.6-1,1.1l-0.1,0.3c-0.3,1-1,3.2-3.3,3.2l-0.3,0c-0.6-0.1-2.4-0.5-2.4-3.4c0-3.3,0.1-26.8,0.2-49.4
			c0.1-22.4,0.2-43.6,0.2-46.5c0-6.8-1.7-6.8-3.9-6.8l-0.3,0c-1.7,0-3.4,0-5.1,0c-1.2,0-2.4-0.1-3.6-0.1c-4.1,0-4.1,2.1-4.1,3.2
			c0,2.2-0.1,26.4-0.2,49.7c-0.1,23.3-0.2,47.4-0.2,49.6c0,8.2-3.7,13.2-9.5,13.2c-1.4,0-4.4,0-8,0c-6.2,0-14.6,0.1-21.6,0.1
			c-6.5,0-10.5,0-12.2-0.2c-7.1-0.4-10.2-3.8-10.2-11.3c0-3.8,0.4-102.9,0.7-182.5c0.2-50.8,0.3-94.8,0.3-95.8
			c0-6.3,3.7-16.3,13.7-16.3c2.4,0,14.4,0.1,29.2,0.1c23.8,0.1,53.5,0.3,63,0.3c1.3,0,2.2,0,2.7,0l0.6,0c22.5,0,34.9,19,35.3,32.7
			c0.1,3.1,0.1,10.4,0.1,21.7c0,2-1.9,3-3.6,3.9c-0.3,0.2-0.7,0.3-1,0.5c0.3,0.3,0.8,0.6,1.1,0.8c1.6,1.1,3.4,2.3,3.4,4.4
			c0,21.7-0.1,48.8-0.3,53.1c-0.7,21.7-15.8,31.5-21.5,35.2c-0.6,0.4-1.2,0.8-1.5,1c-1.6,1.2-2.3,2.6-2.2,3.3c0.1,0.6,0.8,1,1.4,1.2
			c3.9,1.6,23.3,10,23.4,23.5c0.1,11.1,0.1,94.2,0.1,110.7c0,7.7-0.7,14.1-9.7,14.2C2237,486.4,2236.3,486.4,2235.4,486.4
			L2235.4,486.4z M2167.6,229.1v2.4c-0.7,0-2.3,0-2.3,6.5c0,0,0.1,57.2,0.1,61.3v0.5c0,4.9,0.4,5.7,1.5,5.7l0.4,0
			c3.9,0.1,7.1,0.1,11.7,0.1c2.1,0,5.3-6.1,6.3-13.8c0.7-5.5,0.4-33.5,0.3-44c0-2,0-3.5,0-4.3c0-4.4-9.3-11.6-12.1-11.7l-0.8,0
			c-1.9-0.1-1.9-0.1-3.1-0.1l-1.8,0L2167.6,229.1L2167.6,229.1z M2555.9,487c-5,0-15.8-0.2-25.3-0.3c-7.8-0.1-15.1-0.2-17.9-0.2
			c-7.3,0-11.5-4.8-11.5-13.2c0-3.2,0.1-26.7,0.2-49.4c0.1-22.4,0.2-43.6,0.2-46.5c0-6.8-1.7-6.8-3.9-6.8l-0.3,0c-1.9,0-3.5,0-5.1,0
			c-1.1,0-2.3-0.1-3.6-0.1c-4.1,0-4.1,2.1-4.1,3.2c0,2.2-0.1,26.4-0.2,49.7c-0.1,23.3-0.2,47.4-0.2,49.6c0,8.2-3.7,13.2-9.5,13.2
			c-1.4,0-4.4,0-8,0c-6.2,0-14.6,0.1-21.6,0.1c-6.5,0-10.5,0-12.2-0.2c-7.1-0.4-10.2-3.8-10.2-11.3c0-0.6,0-3.7,0.1-8.9
			c0.9-88.9,1.1-157.3,0.7-203.3c0-3.2,2.7-4,4.2-4.4c-0.3-0.2-0.6-0.5-0.8-0.7c-1.6-1.3-3.4-2.8-3.3-5c0-0.5,0-1,0-1.6
			c0-0.5,0-1,0-1.5c0-1.4,0.6-3,3.1-3.6c-0.3-0.5-0.7-1-1-1.5c-1-1.3-2-2.7-2-4.3l0.1-35.2l0-8.4c0-6.3,3.7-16.4,13.7-16.4
			c2.4,0,14.8,0.1,29.9,0.1c23.8,0.1,53.4,0.3,62.5,0.3c1.2,0,2,0,2.4,0l0.6,0c22.5,0,34.9,19,35.2,32.7c0.3,10.9,0.1,77-0.1,84.4
			c-0.7,21.7-15.8,31.5-21.5,35.2c-0.6,0.4-1.2,0.8-1.5,1c-1.6,1.2-2.3,2.6-2.2,3.3c0.1,0.6,0.8,1,1.4,1.2
			c3.9,1.6,23.3,10,23.4,23.5c0,3.7,0.1,15.7,0.1,35.6c0,1.7-0.4,2.8-0.8,3.7c-0.3,0.7-0.5,1.1-0.4,2c0.1,3.1-2,4.4-3.2,5.2
			c-1.1,0.7-1.4,0.9-1.4,1.9c0,0.8,0.1,1.1,0.4,1.6c0.3,0.7,0.7,1.6,0.7,3c0,1.2-0.6,1.9-0.9,2.5c-0.2,0.2-0.3,0.5-0.4,0.8
			c0.4,0.1,1,0.2,2.1,0.3c0.5,0,0.8,0,1.1,0.1l0.2,0c2.4,0.6,2.6,2.1,2.6,3.7l0,50.3c0,7.7-0.7,14.1-9.7,14.2
			C2557.1,487,2556.5,487,2555.9,487L2555.9,487z M2487.9,229.7v2.4c-0.7,0-2.3,0-2.3,6.5c0,0,0.1,57.2,0.1,61.3v0.5
			c0,4.9,0.4,5.7,1.5,5.8l1.6,0c3.4,0,6.4,0.1,10.4,0c2.1,0,5.3-6.1,6.3-13.8c0.7-5.5,0.4-33.3,0.3-43.8c0-2.2,0-3.8,0-4.6
			c0-4.4-9.3-11.6-12.1-11.7l-0.8,0c-1.9-0.1-1.9-0.1-3.2-0.1l-1.8,0L2487.9,229.7L2487.9,229.7z M2834,483.7c-11,0-25.5,0-38.7-0.1
			c-17.3,0-32.3-0.1-34.4,0l-0.4,0c-5.5,0-12.2-2.8-17.7-7.2c-6.4-5.2-9.8-11.6-9.8-18.1c0-3.5-0.1-25.6-0.1-46.3
			c-0.1-18.6-0.1-36.1-0.1-38.7c0-8.3,3-12.5,8.9-12.5h45.5c8,0,9.5,4.6,10,9.2c0.3,3.2,0.1,24.9-0.2,45c-0.1,5.1-0.1,8.9-0.1,10
			c0,2.6,0.7,6.9,3.1,6.9c1.4,0,2.7,0,3.9,0c2.1,0,3.9,0,6.1,0c1.6,0,3.1-2.7,3.4-6.1c0.4-4.1,0.7-50.3,0.7-58.1c0-4.7-0.6-5.3-3-7
			c-2.4-1.7-40-29.7-60.2-44.8c-3.8-2.8-7.6-5.7-11.4-8.5l-0.7-0.5c-2.8-2-6-4.4-6-11.4l0-3.2c0-4.1,0-11.4,0-20c0-2.3,1-3.4,1.6-4
			c-0.6-0.4-1.6-1.3-1.6-3.1c0-0.9,0.3-1.8,1-2.5c1.2-1.2,3-1.3,4.7-1.3l1.2,0c0.7,0,1.2,0,1.5-0.1c-0.1-0.7-0.4-1.1-0.8-1.7
			c-0.4-0.6-1-1.5-1-2.6c0-1.1,0.3-2.1,0.5-2.9c0.2-0.6,0.3-1.1,0.3-1.5c-0.1-0.6-0.9-1.5-1.6-2.1c-0.2-0.2-0.4-0.4-0.6-0.6
			c-0.4-0.2-0.8-0.4-1.3-0.5c-1.8-0.7-4.1-1.6-4.1-3.9c0-18.1,0-38.3,0-39.9c0.3-13.7,9.3-28.4,25.3-28.7c2.2,0,8.4-0.1,16.3-0.1
			c1.5,0,2.5,0.8,3.4,1.4c0.9,0.6,1.7,1.2,2.8,1.3c0.3-2.6,2.5-2.7,2.8-2.7h0.6c1.4,0,2.6,0,3.8,0c1.3,0,2.6,0,4.1,0h0.3
			c1.5,0,2.4,0.8,3.1,1.4c0.7,0.5,1.1,0.9,2.2,1c0.1,0,0.2,0,0.3,0c0.4,0,0.4,0,0.7-0.5c0.4-0.6,1.2-1.9,3-1.9l17.3,0
			c13.7,0,26.8,0,29.9,0.1c12.5,0.3,26.5,10.2,26.5,22.9c0,6.3,0.1,26.1,0.3,43.6c0.1,13.5,0.2,25.5,0.2,28.4c0,3.9,0,13.2-9.5,13.4
			c-5.8,0.2-38,0.2-38.4,0.2c-0.4,0-0.7,0-1.1,0c-0.4,0-0.8,0-1.2,0c-2.4,0-8.6,0-9.2-7.4c-0.3-3.9-0.2-19.1-0.1-30.2
			c0-5.4,0.1-10,0-11c-0.2-5-3.6-5.5-5.1-5.5h-7.6c-3.1,0-5.4,2.5-5.4,5.9c0,2.4-0.1,10.3-0.1,17.7c-0.1,6.7-0.1,13-0.1,14.7
			c0,3.4,0,4.5,2.5,7.4c2.3,2.6,37.7,28.2,52.8,39.1c6,4.3,10.4,7.5,11.6,8.4c5.1,3.8,11.2,9.9,11.2,16.7c0,1.5,0,10.4-0.1,22.6
			c-0.2,30.9-0.4,82.6-0.3,87.4c0.4,15.3-12.1,32-24.2,32.4C2849.8,483.7,2844.2,483.7,2834,483.7L2834,483.7z M3014.8,482
			c-11,0-25.5,0-38.7-0.1c-17.3,0-32.3-0.1-34.4,0l-0.4,0c-5.5,0-12.2-2.8-17.7-7.2c-6.4-5.2-9.8-11.6-9.8-18.1
			c0-3.5-0.1-25.5-0.1-46.3c-0.1-18.6-0.1-36.1-0.1-38.7c0-8.3,3-12.6,8.9-12.6h45.5c8,0,9.5,4.6,10,9.2c0.3,3.2,0.1,23.9-0.2,44.9
			c-0.1,5.2-0.1,9-0.1,10.1c0,2.6,0.7,6.9,3.1,6.9c1.4,0,2.7,0,3.9,0c1,0,2,0,3,0h0c1,0,2.1,0,3.2,0c1.6-0.1,3.1-2.7,3.4-6.1
			c0.4-4.1,0.7-50.3,0.7-58.1c0-4.7-0.6-5.3-3-7c-2.6-1.8-45.4-33.7-63.7-47.4l-8.5-6.3c-2.8-2.1-6-4.4-6-11.4
			c0-4.2-0.2-86.6-0.1-89.8c0.3-13.7,9.3-28.4,25.3-28.7c2.8-0.1,12.3-0.1,24.8-0.1c1.6,0,2.5,0.9,2.9,1.4c0.2,0.3,0.5,0.5,1.8,0.5
			c0.4-0.7,1.3-1.9,3.4-2l0.9,0c0.9,0,1.9,0,2.8,0c1.5,0.1,2.5,0.8,3.3,1.3c0.4,0.2,0.6,0.4,0.9,0.5c0.4-0.7,1.3-1.8,3.1-1.8h2.6
			c11.7,0,39.6,0,44.2,0.1c12.5,0.3,26.5,10.2,26.5,22.9c0,6.3,0.1,26.1,0.3,43.6c0.1,13.5,0.2,25.5,0.2,28.4c0,3.9,0,13.2-9.5,13.4
			c-5.8,0.2-38.1,0.2-38.4,0.2c-0.4,0-0.7,0-1.1,0c-0.4,0-0.9,0-1.2,0c-2.4,0-8.6,0-9.1-7.4c-0.3-3.9-0.2-19.1-0.1-30.1
			c0-5.4,0.1-10.1,0-11.1c-0.2-5-3.6-5.5-5.1-5.5h-7.6c-3.1,0-5.5,2.5-5.5,5.9c0,2.4-0.1,10.3-0.1,17.8c-0.1,6.7-0.1,13-0.1,14.7
			c0,3.4,0,4.5,2.5,7.4c2.3,2.6,37.7,28.1,52.7,39c6.1,4.4,10.5,7.5,11.7,8.5c5.1,3.8,11.2,9.9,11.2,16.7c0,1.5,0,10-0.1,21.6
			c-0.1,12.6-0.2,28.9-0.2,44.2c0,3.2-2.6,4.9-4.7,6.3c-1.1,0.7-2.3,1.5-2.6,2.2c-1.7,4-2.6,8.2-2,9.7c0.2,0.5,0.4,0.6,1.2,1
			c1,0.5,3,1.5,3,4.4c-0.1,3.6-2.2,4.6-3.4,5.1c-0.2,0.1-0.4,0.2-0.6,0.3c0,0-0.1,0.2-0.1,0.9c0,1.5,0.5,1.9,3.6,2.8
			c2.1,0.6,5.6,1.6,5.4,5.2c-0.2,3.1-0.1,4.7,0,5.7c0,0.3,0,0.5,0,0.7c0.4,15.4-12.1,32-24.2,32.4
			C3030.5,481.9,3024.9,482,3014.8,482L3014.8,482z"/>
	</g>
</g>
<g id="Layer_2" class="st1">
</g>
</svg>
