<?xml version="1.0" encoding="utf-8"?>
<!-- Generator: Adobe Illustrator 19.0.0, SVG Export Plug-In . SVG Version: 6.00 Build 0)  -->
<svg version="1.1" id="Layer_1" xmlns="http://www.w3.org/2000/svg" xmlns:xlink="http://www.w3.org/1999/xlink" x="0px" y="0px"
	 viewBox="0 0 1144.4 922.9" style="enable-background:new 0 0 1144.4 922.9;" xml:space="preserve">
<style type="text/css">
	.st0{fill:#FFFFFF;}
</style>
<g id="XMLID_1_">
	<path id="XMLID_221_" class="st0" d="M860.9,19.3c4.6,5,10.7,6.6,17.1,6.7c14.1,0.3,28.3,1.3,42.1-3.1c4.5-1.4,6.6,0,5.6,3.8
		c-3.7,14-1.2,28.2-1.4,42.3c-0.3,15.2-0.5,30.3-0.3,45.5c0.3,20.3,1.3,40.6,1.5,60.9c0.2,14.3-0.5,28.5-0.6,42.8
		c0,4.5,0.7,9,0.6,13.5c-0.1,20.5-0.7,40.9-0.5,61.4c0.3,27.4,1.1,54.9,1.6,82.3c0.2,9.3,0,18.7,0,28c-0.1,19.1-0.5,38.3-0.4,57.4
		c0,3.5,1.7,7.1,2.4,10.6c0.3,1.6,0.7,3.7-0.1,4.7c-0.7,0.8-3.1,0.8-4.5,0.3c-15.1-5.2-30.5-4.5-45.9-2.9c-3.3,0.3-6.7,1.9-9.8,3.4
		c-4.4,2.2-5.9,2-7.2-2.8c-1-3.8-1.7-7.8-1.8-11.8c-0.5-32-0.7-63.9-1.2-95.9c-0.3-22-1.2-44-1.4-65.9c-0.1-10.1,0.6-20.3,1.4-30.4
		c0.6-7.3-0.2-8.6-7.2-10.5c-4.6-1.2-9-3.1-14.8-5.1c-0.7,3.3-2,6.6-1.9,9.8c0.2,14.1,0.9,28.3,1.2,42.4c0.3,12.3,0.2,24.6,0.2,36.9
		c0,31.6-0.2,63.2,0.2,94.9c0.2,11.6,1.9,23.1,2.8,34.7c0.1,1.1,0,2.3,0,4c-1.9,0-3.7,0.4-5.4-0.1c-11.7-3-23.5-3.8-35.5-3.7
		c-7.1,0.1-13.5,1.9-19.5,5c-4,2-6.3,1-7-2.9c-1-5.7-1.8-11.5-1.9-17.3c-0.6-26.3-0.8-52.6-1.3-79c-0.7-35.9-1.4-71.9-2.1-107.8
		c-0.9-45-1.7-89.9-2.5-134.9c-0.2-13.8,0.2-27.6,0.1-41.4c-0.1-20.1-0.4-40.3-0.6-60.4c0-3.3,0.2-6.7,1.2-9.8
		c1.3-4.2,4.5-5.1,8.2-2.6c5.3,3.6,11.1,4.9,17.4,4.5c5.6-0.4,11.3-0.1,17-0.2c6.8-0.1,13.6,0.1,19.9-3.6c2.1-1.2,5-1.1,8.1-1.7
		c0,2.4,0,4,0,5.7c-0.3,15.1-0.7,30.2-1,45.3c-0.3,19.3-0.6,38.6-0.7,58c-0.1,19.1,0.1,38.3,0,57.4c0,3.9,1.8,6.2,4.9,6.4
		c5.3-1.5,10.6-2.7,15.7-4.5c1.2-0.4,2.5-2.6,2.5-3.9c0-3.3-1.1-6.6-1.1-9.9c-0.2-13.8-0.3-27.6-0.4-41.4
		c-0.2-34-0.5-67.9-0.7-101.9c0-4.9,0.6-9.6,4.9-12.9C859.5,19.3,860.2,19.3,860.9,19.3z"/>
	<path id="XMLID_220_" class="st0" d="M17.9,32.3c1.3-4.9,3.9-6.4,8.8-4.1c2,1,4.6,1.1,6.9,1.1c21.5-0.1,43-0.4,64.4-0.5
		c6.8,0,13.6,0.3,20.4,0.1c7.1-0.2,14.2-0.9,21.4-1.3c6.6-0.4,13.3-0.9,19.9-1.1c5-0.1,6.3,1.3,4.9,5.9c-4.9,16.3-4.2,32.5,0,48.7
		c0.4,1.6,0.3,3.2,0.4,5.6c-10.6-0.8-20.8,0.4-30.6-4.3c-9.6-4.6-11.8-3-11.6,7.9c0.3,16.8,1.3,33.6,1.7,50.4
		c0.3,12.6,0.1,25.3,0.2,38c0.3,26.6,0.7,53.3,0.9,79.9c0.3,43.3,0.4,86.6,0.5,129.9c0,18.3-0.5,36.7-0.2,55
		c0.2,10.1,1.8,20.1,2.8,30.2c0.1,1.4,0,2.8,0,4.9c-15.4-5.2-30.7-4.5-45.9-4.4c-4.7,0-8.7,0.7-12.4,3.9c-3.7,3.2-5.7,2.3-7.2-2.3
		c-0.7-2-1-4.2-1-6.3c-0.7-56.5-1.3-112.9-1.9-169.4c-0.4-35.4-1.1-70.9-1.5-106.3c-0.3-31.6-0.4-63.3-0.6-94.9c0-1,0-2,0.1-3
		c1-9.3,0-10.7-9.4-10.2C41,86,33.2,87.1,25.5,88.1c-3.6,0.4-6.1-1.6-6.4-6.5c-0.3-4.3,0.4-8.7,0.2-13c-0.4-11.8-1-23.5-1.5-35.3
		C17.9,33,17.9,32.7,17.9,32.3z"/>
	<path id="XMLID_219_" class="st0" d="M522.2,22.9c0,0.2,0.4,1.3,0.3,2.4c-0.3,10.8-0.8,21.5-1.1,32.3c-0.3,12.8-0.8,25.6-0.7,38.4
		c0.1,21.6,0.7,43.2,0.9,64.8c0.2,20.4,0.1,40.8,0.1,61.2c0,17.4-0.1,34.9,0.1,52.3c0.2,19.1,0.7,38.2,0.8,57.3
		c0.1,19.9-0.3,39.9-0.3,59.8c0,17,0.1,34,0.5,51c0.2,9.6,1.1,19.1,1.8,28.7c0.3,3.7-0.7,5.3-4.8,4.3c-13.5-3.5-27.3-4-41.1-3.2
		c-8.4,0.5-17,0.4-24.5,5.5c-3,2-6,0.3-7.1-4.3c-1.8-7.9-3.5-15.9-4.7-23.9c-3-18.7-5.9-37.4-8.6-56.2c-3.4-23.3-6.5-46.7-9.8-70
		c-2.3-16.6-4.8-33.2-7.3-49.8c-0.2-1.3-0.3-2.7-0.9-3.9c-0.9-1.6-2.2-3-3.3-4.4c-1.2,1.7-3.4,3.4-3.5,5.2c-0.4,7.5-0.3,15,0,22.5
		c0.4,11.5,1.3,22.9,1.5,34.4c0.2,9-0.8,17.9-0.6,26.9c0.3,18.5,1.3,36.9,1.5,55.4c0.2,15.5-0.4,31-0.3,46.5c0,4.9,1.4,9.9,2,14.8
		c0.3,2.3,0.5,4.5,0.7,7.2c-7.6-1.2-14.5-2.7-21.6-3.2c-9.5-0.6-19-0.7-28.4-0.3c-3.1,0.1-6.1,2.3-9.1,3.8c-5.6,2.8-8.8,1.1-8.9-5.1
		c-0.4-31.1-0.7-62.3-1.1-93.4c-0.2-12.5-0.6-24.9-0.8-37.4c-0.2-14.3,0-28.6-0.2-42.9c-0.4-20.2-1.4-40.3-1.5-60.5
		c-0.2-32.1,0.3-64.2,0.2-96.4c0-14.1-0.9-28.3-1.2-42.4c-0.3-11.1-0.3-22.3-0.4-33.4c-0.1-10.8-0.3-21.6-0.3-32.4
		c0-2.3,0.3-4.7,1.1-6.8c1.3-3.4,3.5-4.3,7.5-2.8c6,2.2,12.3,3.9,18.6,4.6c13.8,1.7,27.6,0.2,41.1-2.8c2.4-0.5,4.7-1.5,7.1-2.2
		c2.9-0.9,4.7-0.6,4.8,3.2c0.9,23.7,6.3,46.6,10.8,69.7c4.5,23.3,8.3,46.7,12.1,70.1c1.7,10.2,2.7,20.4,4.3,30.6
		c0.5,3.4,2,6.7,3.3,9.9c0.4,1,2.1,2.6,2.5,2.4c1.2-0.5,2.6-1.7,2.9-2.9c0.5-2.6,0.4-5.3,0.3-7.9c-0.3-8.3-0.8-16.6-1.1-24.9
		c-0.7-22.5-1.3-44.9-2-67.4c-0.5-15.3-1.4-30.5-1.6-45.8c-0.2-10.5,0.3-21,0.7-31.5c0.1-2.1,0.6-4.5,1.7-6.1
		c0.8-1.2,3.8-2.3,4.6-1.7c8.3,5.8,17.8,6.2,27.2,5.5C498.3,26.5,509.9,24.5,522.2,22.9z"/>
	<path id="XMLID_218_" class="st0" d="M1127.2,30.2c-0.3,4.7-0.8,8.5-0.8,12.3c-0.2,22.6-0.5,45.1-0.2,67.7
		c0.3,32.8,1.1,65.6,1.6,98.4c0.3,19.6,0.3,39.2,0.3,58.8c0,24.9-0.3,49.8-0.2,74.7c0.1,25.9,0.7,51.8,0.9,77.7
		c0.1,11.1-1.8,21.8-6.2,32.1c-6.5,15.2-18.7,22.1-34.4,23.3c-14.3,1.1-28.6,1.9-42.9,1.6c-13.4-0.3-27-1.1-40.1-3.8
		c-15.3-3.1-24.1-13.9-28.2-29.1c-6.1-22.5-5.4-45.5-5.9-68.4c-0.8-34.1-1.4-68.3-2-102.4c-0.3-17.3,0.5-34.8-1.4-51.9
		c-2.2-21,0.1-41.9-0.6-62.8c-1-29.1-1.6-58.1-2-87.2c-0.2-13.3,0.5-26.6,1-39.9c0.2-5.9,3.2-8.1,7.3-5.6
		c10.9,6.7,22.9,6.4,34.8,5.4c7.4-0.6,14.8-2.2,22.2-3.4c6.3-1,6.5,0,5.9,6.2c-1,10.2-0.9,20.5-1,30.8c-0.1,17.1-0.1,34.2,0,51.3
		c0.1,10,0.5,20,0.8,30c0.3,13.8,0.6,27.6,0.9,41.5c0.5,25.6,1.2,51.2,1.5,76.9c0.2,13.8-0.6,27.5-0.5,41.3
		c0.2,32.6,0.6,65.2,0.9,97.9c0.1,6,2.9,10.5,7.4,14c3.7,2.9,10.5,0.5,13.1-5.2c1.6-3.5,2.6-7.7,2.6-11.5
		c-0.3-41.8-0.8-83.6-1.3-125.5c-0.1-8.8-0.4-17.7-0.5-26.5c-0.4-40.8-0.7-81.6-1.2-122.4c-0.2-15-0.9-30-1.3-44.9
		c-0.3-15.3-0.5-30.6-0.5-45.8c0-2.4,0.7-5.1,1.9-7.1c0.7-1.1,3.5-2.2,4.6-1.7c18.5,8.4,37.7,8.5,57.2,4.5
		C1122.6,30.8,1124.4,30.6,1127.2,30.2z"/>
	<path id="XMLID_217_" class="st0" d="M634,236.4c0,36.7,0,73.3,0,110c0,17.4-0.1,34.9,0.1,52.3c0.1,4.8,0.3,9.9,2.1,14.2
		c1.3,3.1,5,5.7,8.3,7.1c1.6,0.7,5.2-1.5,6.8-3.4c1.9-2.3,3.5-5.5,3.7-8.4c0.7-10.9,1.1-21.9,1.1-32.9c0.1-19.5-0.1-39-0.1-58.5
		c0-8.3-0.1-16.7,0-25c0-2.1,0.6-4.3,1.3-6.3c0.9-2.6,2.8-3.7,5.5-2.3c1.5,0.7,3,1.4,4.5,2.1c10.9,5.7,22.6,5.6,34.3,4.1
		c7-0.9,14.1-2,21-3.6c3.7-0.9,4.3,0.9,4,3.5c-0.5,4.4-1.5,8.8-2.1,13.3c-0.4,3.1-0.8,6.3-0.8,9.4c0.2,26.1,0.9,52.2,0.7,78.3
		c-0.1,19.1-0.1,38.3-4.7,57.1c-3.8,15.6-12.9,25.8-29,28.5c-9.9,1.6-20,2.5-30.1,2.9c-14,0.5-28,0.6-41.9,0
		c-7.7-0.3-15.6-1.5-23-3.5c-17-4.6-23.2-18.7-26.4-33.9c-2.3-10.8-2.8-22.1-3.1-33.2c-0.7-32.1-0.7-64.3-1.3-96.4
		c-0.4-24.5-1.4-48.9-1.8-73.4c-0.2-18.8,0.3-37.6,0.3-56.4c-0.1-24.8-0.7-49.6-0.4-74.3c0.2-16.8,1.3-33.5,2.8-50.2
		C567,44.6,579.3,30.8,592,28c8.5-1.9,17.4-2.9,26.1-3.5c12.7-0.8,25.5-1.1,38.3-0.9c9.8,0.1,19.7,0.6,29.3,2.2
		c23,3.8,32.6,17.3,36,40.9c3.3,22.7,0,45.6,1.4,68.3c1,15.2-1.4,30.7,3.1,45.7c1.4,4.8-1.7,5-5.1,4.5c-8.4-1.1-16.7-2.8-25.1-3.2
		c-11.1-0.5-22.3-0.3-32.8,4.5c-1.4,0.6-4.8-0.6-5.7-1.9c-1.6-2.3-2.7-5.5-2.7-8.3c-0.2-11.5,0.1-22.9,0.1-34.4
		c0-13.3,0.2-26.6-0.2-39.9c-0.2-5.9-1.2-12.1-8.1-14.8c-5.4-2.1-9.7-0.8-11.8,4.6c-1.4,3.5-2,7.4-2,11.1
		c0.2,29.1,0.7,58.3,0.9,87.4c0.1,15.3,0,30.6,0,46C633.9,236.4,633.9,236.4,634,236.4z"/>
	<path id="XMLID_216_" class="st0" d="M305.8,90.5c-10.5,0-20.2,0.3-30-0.2c-3.3-0.2-6.5-2.3-9.6-3.8c-4.2-2.1-6-1.7-7.4,2.8
		c-0.8,2.5-1,5.2-1,7.8c0.6,21.4,1.6,42.9,2.1,64.3c0.2,10-0.2,20-0.4,30c-0.1,6.7,4.1,10.1,10.6,6.7c5.2-2.8,11.7-3.4,17.7-4.3
		c6-0.9,12.1-1,18.8-1.4c-0.2,2.2,0,3.7-0.4,5.1c-4.9,15.6-4.4,31.5-2.4,47.4c0.4,3.2,1.9,6.3,3,9.4c1.2,3.4,0.6,5.6-3.5,5.6
		c-11.9,0-24,0.9-35.1-5c-4.7-2.5-9.4,2-9.1,7.8c0.7,11.4,1.3,22.8,1.6,34.2c0.4,15.6,0.8,31.3,0.8,47c0,21.3-0.4,42.6-0.7,63.9
		c0,1.5-0.1,3,0.1,4.5c0.6,5.6,3.8,7.8,8.8,5.5c12.1-5.6,24.9-5.2,36.6-5.1c-0.9,11-2.5,21.8-2.3,32.6c0.2,10.6,2.2,21.1,3.4,31.3
		c-12.9,0-26-0.1-39,0c-4.3,0-8.6,0.5-12.9,0.6c-13.3,0.4-26.6,0.6-39.9,1.1c-2.4,0.1-4.9,0.9-7.3,1.5c-7.3,1.8-10.6-0.3-11.1-7.8
		c-0.6-8.8-0.9-17.6-0.9-26.4c0-16.6,0.3-33.3,0.3-49.9c-0.1-24.5-0.3-49-0.7-73.5c-0.4-26.1-1.6-52.2-1.8-78.4
		c-0.3-43.5,0-87-0.2-130.4c-0.1-18.3-1.3-36.6-1.6-54.9c-0.2-9.3,0.3-18.6,0.8-27.9c0.3-5.4,2.5-6.6,7.4-6
		c7.3,0.9,14.8,1.9,22.2,1.9c23.5-0.1,47-0.6,70.4-1c2.1,0,4.3-0.4,6.3-0.8c4.3-1,6.3,0.5,5.1,4.8c-3.7,12.9-3.4,26-2.7,39.2
		c0.3,5.9,2.1,11.7,3.2,17.5C305.4,87.6,305.6,89.2,305.8,90.5z"/>
</g>
<g id="XMLID_2_">
	<path id="XMLID_8_" class="st0" d="M1018.8,850.4c3.6,0,8.1,1.6,10.3,3.7c0.7,0.7,2.5,1.5,4,1.9c5.2,1,5.7,1.2,7.5,1.9
		c1.3,0.6,1.7,0.2,1.7-1.7c0-3-2-4.9-8.1-7.6c-2.5-1.2-5.2-2.8-5.9-3.7c-1.5-1.8-3.7-2-4.2-0.4c-0.3,0.9-0.9,0.9-2.5,0
		c-1.2-0.6-3.9-1.1-6.1-1.1c-2.4,0-4.5-0.6-5.3-1.6c-1.9-2.4-17.2-9.4-20.4-9.4c-1.6,0-5.7-1.4-9.3-3.1c-4-2-8.9-3.4-13-3.9
		c-8.4-1-15-3.8-20.3-8.7c-2.2-2.1-5.3-4.4-6.7-5.2c-1.5-0.8-2.9-1.7-3.2-2.1c-0.8-1.2-6.8-4-8.5-4c-0.9,0-3.9-2.1-6.7-4.7
		c-2.8-2.7-5.6-5.3-6.2-5.8c-0.6-0.6-2.8-1.9-4.8-3c-2.1-1.1-3.8-2.3-3.8-2.6c0-0.4-1.5-1.4-3.2-2.3c-1.8-0.9-4-2.1-4.8-2.6
		s-4.9-2.6-9-4.6c-13.7-6.6-16.9-8.3-23.2-12.7c-7.2-4.9-22-11.2-24.3-10.3c-0.8,0.3-1.5,1.2-1.5,1.9c0,1.5,7.2,7.7,8.9,7.7
		c2,0,1.1,1.8-1.1,2.3c-1.3,0.4-2.9,0-3.8-0.8c-0.9-0.9-4.3-2.8-7.6-4.4c-3.3-1.6-6.5-3.6-7.2-4.4c-1.9-2.3,0.2-3,4.2-1.6
		c3.8,1.4,6.6,0.1,6.6-3c0-1.4-10-7.1-12.4-7.1c-0.4,0-2.7-0.9-5.2-2c-2.4-1.1-5.7-2.3-7.4-2.6c-2.4-0.5-3.1-1.3-3.6-4.1
		c-0.9-4.9,0-12.8,1.9-15.6c1.4-2.2,2.6-2.5,14.4-3.6c7-0.6,15.8-1.6,19.5-2.2c4.9-0.8,7.2-0.8,8.9,0.1c1.3,0.8,3.7,1,6.3,0.5
		c7.3-1.2,15.9-2.5,23.4-3.5c7.3-1,7.5-1.1,13.4-7.1c5.9-6.1,6-6.3,5.4-10.6c-0.9-6.9-4-12.3-11-19.4c-5.2-5.2-6.6-7.3-6.6-9.7
		c0-2.9,3.1-14.7,5-18.7c1.9-4,4-15.8,4-21.8c0-7.6-0.7-10.5-2.7-10.9c-1.6-0.3-4.2-8-4.3-12.5c0-2.9-1.5-3.7-4-2.3
		c-1.5,0.8-2.5,0.8-3.4,0.1c-0.8-0.6-2.1-0.8-3-0.5c-1.5,0.6-1.4,1,0.9,4c1.4,1.8,2.5,4.2,2.5,5.2c0,1.1,0.4,2.2,0.9,2.4
		c0.5,0.1,1.3,1.5,1.6,3c1.1,4.5-1.6,3.4-5.2-2c-1.8-2.6-3.3-5.1-3.3-5.6c0-0.4-1-2.2-2.2-3.9c-1.3-1.7-3.2-4.9-4.3-7.1
		c-2.4-4.6-4-5.5-4.8-2.6c-0.3,1.1-1,2-1.6,2c-0.6,0-0.1-1.5,0.9-3.3c1.1-1.9,2.4-5.3,2.9-7.8c0.6-2.4,1.7-7.1,2.6-10.4
		c1.7-6.7,1.2-14.7-1.1-16.6c-0.8-0.6-1.4-2-1.4-3.1c0-2.2-8.6-11.8-10.6-11.8c-0.8,0-1.4-0.5-1.4-1c0-0.6-0.7-1-1.5-1
		c-0.7,0-1.8-0.6-2.2-1.4c-0.4-0.7-3.5-1.6-6.8-2c-3.3-0.4-8.5-0.9-11.6-1.3l-5.5-0.5l-3.5,4.8c-2,2.7-4.9,5.6-6.5,6.4
		c-6.9,3.4-8.4,5-8.4,8.6c0,3.2-0.4,3.7-4,5.2c-4,1.7-5,3.8-2.8,6c0.9,0.9,0.3,1.6-3,2.9c-3.3,1.2-4.2,2.1-4.2,4
		c0,1.5,0.6,2.3,1.8,2.3c1.3,0.1,1.1,0.4-0.8,1.5c-1.4,0.7-2.5,1.9-2.5,2.6c0,2.8-2.2,1.5-5.4-3.2c-4.9-7.1-10.3-11.2-16.3-11.9
		c-2.7-0.4-5.1-0.3-5.4,0.2c-0.3,0.4-1.6,0.5-2.8,0.2c-6.5-1.6-16.8,4.7-30.4,18.5c-7.3,7.5-9.3,11.1-7.5,14
		c0.8,1.2,0.5,1.8-1.1,2.6c-1.7,0.9-2.1,2-2,5.8c0,2.6-0.3,4.7-0.7,4.7c-0.4,0-1.5,0.7-2.4,1.6c-1.8,1.8-1.2,5.2,1.3,7
		c2.2,1.6,2.1,11.4-0.1,14.7c-0.9,1.5-1.7,3.3-1.7,4.2c0,0.8-0.4,1.5-1,1.5c-0.5,0-1,0.9-1,1.9c0,1.1-0.4,2.3-1,2.6
		c-0.5,0.3-3,4.8-5.5,10s-5.3,9.9-6.4,10.4c-1.8,1-8.1,2.8-13.5,3.8l-2.9,0.6l3.2-4.6c1.8-2.6,4-4.7,5.3-4.9s2.5-1.4,3.1-3.3
		c1.1-3.2,3.8-5.8,7.8-7.5c1.6-0.7,2.9-2.2,3.2-3.6c0.5-2.8-0.1-2.9-5-0.9c-1.9,0.8-3.7,1.5-3.8,1.5c-1.1,0,3.9-7.6,7.5-11.4
		c2.4-2.5,5.1-5.9,6.1-7.5c0.9-1.6,2.2-3.2,2.8-3.5c1.3-0.9,1.5-4.6,0.2-4.6c-0.6,0-1.6,0.8-2.3,1.8c-0.7,0.9-3,3-5,4.5l-3.8,2.8
		v-2.9c0-1.6,0.8-4.7,1.7-6.8c0.9-2.2,2-6.4,2.4-9.4c0.4-3,1-7.2,1.4-9.3c0.4-2,0.4-3.7-0.1-3.7c-1.8,0-3.5,1.7-3.8,3.6
		c-0.2,1-0.7,1.7-1.2,1.5c-0.5-0.2-1.5-0.6-2.3-0.9c-0.8-0.3-2.3,0.6-3.4,1.9c-1.3,1.5-2.1,2-2.4,1.2c-0.3-0.7-1.6-2.9-2.9-4.9
		c-1.4-2-3.7-5.8-5.1-8.5c-1.4-2.7-3.6-5.7-4.9-6.7c-1.4-0.9-2.6-2.9-2.7-4.3c-0.3-3.4-6.9-10.4-9.1-9.6c-2.1,0.8-2,2.3,0.2,4.5
		c3.4,3.4,5.2,6.6,5.2,9.2v2.5l-1.3-2.5c-0.9-1.7-2.5-2.7-5.5-3.3c-2.3-0.4-4.2-1.2-4.2-1.8c0-0.5-0.6-0.9-1.4-0.9
		c-0.7,0-2-0.7-2.7-1.6c-0.8-0.9-3.1-2.8-5.2-4.1s-4.6-3.1-5.6-4.1c-3.8-3.5-6.2-5.2-7.6-5.2c-2.6,0-1.7,2.1,2.8,6.4
		c2.3,2.3,4.9,5.6,5.7,7.2c0.8,1.6,2.2,4.1,3.2,5.6c2.5,3.6,2.3,4.6-0.4,2c-4.1-3.7-11.7-6-22.5-6.7c-6.6-0.4-7.3-0.3-7.3,1.3
		c0,1.9,5.4,4.2,9.9,4.2c2.3,0,6.3,2.9,5.5,4.1c-0.2,0.4-3,0.1-6.1-0.6c-4.4-1-6-1.1-6.5-0.2c-0.7,1.2-7.9,1.6-13.3,0.7
		c-2.3-0.4-3-0.1-3.3,1.4c-0.5,2.3,1.4,3.6,5,3.6c3.7,0,2.7,2.5-1.8,4.6c-1.9,0.9-3.2,1.9-2.9,2.2c0.2,0.3-0.4,1-1.4,1.6
		c-6.9,4-13.9,9.4-14.9,11.5c-1.5,3.1-0.8,3.8,2.1,2.3c1.2-0.7,4.2-1.9,6.6-2.7c4.9-1.7,6.9-0.9,5.6,2.2c-0.5,1.2-0.9,1.4-1.2,0.5
		c-0.3-0.6-1.1-1.2-1.8-1.2c-1,0-1.2,1.1-0.8,4c0.5,3.5,0.3,4-1.4,4c-2.4,0-5.3,3-5.3,5.3c0,1.8,2.5,2.3,3.5,0.7
		c0.3-0.6,1.3-1,2.1-1c1.7,0,1.9,2.7,0.2,3.2c-0.9,0.3-1.3,3.5-1.4,10.9c-0.1,6.3-0.6,11.4-1.3,12.8c-0.8,1.4-0.9,2.7-0.4,3.2
		c1.5,1.5,4.3-0.1,4.3-2.4c0-2,0.2-2,2.8,0.8c2.5,2.7,2.7,3.7,3,12.2c0.4,9.1,0.5,9.3,2.8,9.3c2.3,0,2.4-0.3,2.4-6.4
		c0-3.6,0.5-6.8,1-7.1c1.3-0.8,4.9,3.4,5,5.7c0,1,0.4,1.8,0.9,1.8s1.2,1.7,1.5,3.7c1.7,9,2.6,11.3,4.8,11.3c1.9,0,2-0.4,1.4-5.3
		c-0.4-2.8-0.7-6-0.9-7.1c-0.1-1,0.6-2.3,1.5-2.9c1.4-0.9,2.7,0,7.8,5.1c3.3,3.4,6.5,6.2,7,6.2c2.4,0,0.6,1.8-2.7,2.8
		c-2.1,0.7-11,4.8-19.7,9.2c-8.8,4.4-17.2,8-18.8,8c-1.5,0-2.8,0.4-2.8,0.8c0,1.4-6.5,4.6-8.7,4.3c-2.6-0.3-2.9,1-1.1,3.9
		c1.1,1.6,0.9,2.2-0.7,3.5c-1.9,1.4-2.8,1.4-8.9-0.1c-2.2-0.5-2.4-0.3-1.9,1.8c0.4,1.2,1.5,3.1,2.6,4c2,1.8,2,1.8-0.1,1.8
		c-2.8,0-3.8,3.9-2.3,9c1.4,4.6,1.4,6.1,0,3.7c-0.5-0.9-1.9-1.7-2.9-1.7c-2.7,0-2.7,4.1,0,6.5c1.1,1,2,3,2,4.5c0,2.7,4,9,7.6,12.1
		c2.9,2.5,10.5,6.4,15,7.7c9,2.6,18.2,0.6,24.8-5.4l3.9-3.6l1.8,2.3c2.7,3.5,2.3,5.6-1.3,7.5c-1.8,0.9-3.6,2.2-4,2.8
		c-1.4,2.1-0.8,10.2,1.1,15.6c1.1,3,1.8,5.7,1.5,5.9c-0.2,0.2-2.1-0.1-4.1-0.7c-9.8-2.8-12.8-3.2-22.7-3.2c-9.7,0-10.7,0.2-10.4,1.7
		c0.2,1.3,1.7,2,5.2,2.5c4.8,0.7,8.9,3.3,8.3,5.2c-0.2,0.6-2.3,1.3-4.8,1.6c-5.4,0.6-6.2,3.3-1.1,3.8c2.5,0.3,3.5,1,4.3,2.9
		c0.5,1.3,0.7,2.9,0.3,3.4c-0.8,1.4-7.8,1.1-10.9-0.5c-5.1-2.7-6.1-1-3.5,6c1.4,3.6,5.6,5.6,10.4,4.9c3.2-0.5,5.5-0.2,8.7,1.2
		c5.5,2.5,6.7,3.9,8.4,10.5c1.2,4.5,1.2,5.4,0,6.8c-0.8,0.9-1.5,3.4-1.5,5.6c-0.1,2.1-0.2,5.1-0.2,6.6c-0.1,3.5,2.1,8.8,3.7,8.8
		c0.6,0,2-0.9,3-2c1.9-2.1,3.5-2.6,3.5-1.1c0,1.2-2.5,3.8-4.2,4.3c-1.7,0.6,3.7,7.4,8.6,10.7c2.3,1.6,5.9,3.1,8.1,3.5
		c7.6,1.3,14,3,14.7,4c0.4,0.7,1.5,0.6,3-0.1c1.3-0.7,5-1.7,8.3-2.3c9.4-1.8,17.4-5,18-7.1c0.4-1,1.2-1.9,1.8-1.9
		c0.7,0,2.9-1.1,4.9-2.5c3.5-2.3,3.6-2.7,3.6-7.9c-0.1-4.5,0.4-6.1,2.6-8.6c1.4-1.7,2.6-3.5,2.6-3.8c0-0.4,0.4-1.4,1-2.2
		c0.7-1.2,1.3-1,3.4,1.3c1.5,1.6,3.6,2.7,5.1,2.7c1.4,0,3.3,0.9,4.2,2c2.2,2.5,4.9,2.6,6.3,0c0.8-1.5,1.9-1.9,4.8-1.6
		c5,0.5,8.9,2.1,7.4,3c-1.2,0.7-4.2,7-4.2,8.7c0,0.5,0.8,0.9,1.8,1c1.2,0,1.1,0.3-0.7,1c-1.8,0.7-3.2,0.5-5.8-1.1
		c-1.9-1.1-4.7-2-6.4-2c-1.6,0-2.9-0.3-2.9-0.8c0-0.8-5.7-4.2-7.1-4.2c-2.2,0,0.6,4.8,6.2,10.5c3.2,3.3,6.8,7.2,8.1,8.7
		s3.5,3.1,4.9,3.7c2.1,0.8,2.6,1.5,2.2,3.4c-0.4,2.1,0.1,2.9,2.5,4.1c4.5,2.3,6.6,2.1,5.2-0.5c-0.7-1.1-0.9-2.3-0.6-2.6
		c1-1,3.6,0.7,4.5,2.9c1.2,3.2,9.2,6.9,16.5,7.8c6.8,0.8,11.7,3,21.4,9.7c8.9,6.1,14.3,8.3,20.3,8.3c7.1,0,11-2,17.9-9.1
		c6-6.3,7-8.5,4.9-10.6c-0.8-0.8-0.5-1.9,1.2-4.2c1.8-2.4,2-3.4,1.1-4.3c-0.7-0.7-1.2-2.8-1.2-4.8c0-2.2-1.7-7.1-4.6-12.9
		c-2.7-5.4-4.6-10.7-4.6-12.6s-1.1-5.5-2.4-8.1c-1.5-3-2.4-6.5-2.4-9.4c0-2.6-0.9-7.3-2-10.4c-1.4-4.2-1.7-6.3-1-7.6
		c0.6-1,1-4.5,1-7.7c0-7,0.5-7.8,5-8.6c1.9-0.3,4-0.6,4.5-0.7c3.8-0.8,6.2,0.2,8,3.6c3.2,6,7.9,9.4,13,9.4c2.4,0,5,0.6,5.7,1.3
		c6.2,5.9,11.9,9.7,14.5,9.7c3.5,0,20.8,5.5,24.3,7.7c1.4,0.9,8,7.1,14.6,13.9c6.7,6.8,12.6,12.4,13.1,12.4s2,1,3.2,2.1
		c1.4,1.3,3.9,2.3,6.3,2.5c3,0.2,4.7,1,6.9,3.5c1.6,1.8,2.9,3.9,2.9,4.6s0.4,1.3,0.8,1.3c0.5,0,1.5,1.2,2.2,2.6
		c2,3.7,6,5.4,12.7,5.4c8.3,0,10.3-0.8,11-4.1c0.6-3.3,1.3-3.5,5.3-1.4c2.1,1.1,3.1,1.2,3.6,0.3c0.5-0.7,1-0.4,1.5,1
		c0.6,1.4,1.7,2.2,3.3,2.2c1.3,0,5.8,1.3,9.9,3c5.5,2.2,9.2,3,13.9,3c3.4,0.1,8.3,0.6,10.8,1.1c2.5,0.6,7.1,1.3,10.3,1.5
		c7.4,0.6,7.6-1.1,0.7-5.4c-2.7-1.7-5-3.8-5-4.7c0-2,4.3-2,6,0c1.9,2.3,3.2,1.9,6.9-2.2l3.3-3.6l-3.5-1.8c-1.9-1-3.7-2.5-4-3.4
		c-0.8-1.9-2.6-1.9-4.7,0c-1.6,1.4-1.8,1.4-2.3,0c-0.4-0.8-0.1-1.5,0.5-1.5c0.6,0,0.8-1.1,0.5-3
		C1015.4,850.5,1015.5,850.4,1018.8,850.4z M836.8,614.5c1.1-2.2,2.3-3.1,4-3.1c1.9,0,2.5-0.5,2.5-2.3c0.1-4.1,4.1-7.6,9.8-8.7
		c2.9-0.5,6.1-1.4,7-2c2.5-1.4,3.2-1.2,3.2,1c0,1.1,0.5,2,1,2c0.6,0,1,0.6,1,1.4c0,1.8,2.5,7.4,4.7,10.4c0.9,1.3,1.2,2.2,0.7,2.1
		c-3-0.5-3.6,0.1-2.1,2.4c1.9,3,2.6,8.9,1.1,9.4c-0.7,0.2-2.8-1.9-4.9-4.7c-2-2.7-4.6-5.7-5.8-6.5c-3.9-2.7-19.8-1.5-21.8,1.7
		C835.6,620.2,835.2,617.5,836.8,614.5z M821.5,673.4c0.5,0,0.8-0.6,0.8-1.3c0-1.5,9.3-7.3,13.3-8.2c1.5-0.4,2.7-1.1,2.7-1.6
		c0-0.4,1.9-1,4.3-1.2c2.3-0.2,6.8-0.4,10-0.5c5.7-0.2,5.7-0.2,5.7,2.7c0,1.6,0.5,3.1,1.1,3.3c2.2,0.7-1.2,5.3-5.2,7
		c-3.1,1.3-3.9,2.2-3.9,4.2c0,2.6,0,2.6-8.9,2.6c-5,0-9.2,0.4-9.5,0.9c-0.6,0.9-12.5,3.5-13.2,2.8
		C818.1,683.5,820.7,673.4,821.5,673.4z M636.7,727.2c-0.3-0.3,2.1-3.2,5.4-6.4c6.5-6.5,17.4-13.4,20.9-13.4c1.3,0,2.3-0.4,2.3-0.9
		s1.5-1.1,3.3-1.4c7.5-1.1,15.3-2.9,16.2-3.8c1.1-1.1,0.9-1.1,2.9-0.3c1.3,0.5,1.1,1.1-1,4c-2.1,2.7-3.3,3.4-6.1,3.4
		c-1.9,0-5.3,0.9-7.5,2c-2.3,1.1-5.3,2-6.7,2c-2.1-0.1-18.3,7.2-20.1,9S637.2,727.6,636.7,727.2z M757.3,837.4
		c-2.6,2.6-9.5,2.7-12.3,0.3c-1.8-1.7-2-1.7-3.9,0.7c-2,2.4-2,2.4-3.4,0.5c-1.3-1.7-2.7-2-10.2-2.1c-12-0.1-11.7-0.1-10.1-2.1
		c0.8-0.9,3.9-3.4,6.9-5.7c3-2.2,6.1-4.6,6.8-5.3c0.7-0.6,3.4-2.9,6-5c6.6-5.4,18.2-17.4,18.2-19c0-1.8,2.7-1.6,3.4,0.3
		c0.3,0.9,0.6,9.2,0.6,18.5C759.3,834.1,759.1,835.6,757.3,837.4z M759.4,740.3c-2.1,4-4.1,5.4-6.4,4.5c-0.8-0.3-1.8,0.6-2.5,2.1
		c-0.6,1.4-1.7,2.5-2.4,2.5c-0.7,0-4.6,3.3-8.5,7.4c-4,4.1-9,8.2-11.2,9.3c-3.3,1.5-4,2.4-4.4,5.7c-0.5,3.5-1.9,5.5-3.9,5.6
		c-0.3,0-0.4-0.9-0.1-2c0.7-2.8-1.3-2.5-4,0.6c-1.2,1.5-3.7,4.2-5.4,6.2c-1.8,2-3.3,4-3.3,4.4c0,0.4-0.4,0.8-1,0.8c-0.5,0-1-0.9-1-2
		c0-1.6-0.7-2-3-2s-3,0.5-3,1.9c0,1.1,0.4,2.2,1,2.6c1.4,0.9,0.2,3.1-2.6,4.3c-2.6,1.2-3.3,4.2-1,4.2c0.8,0,1.8,0.5,2.1,1
		c0.4,0.7-0.8,1-3.4,0.9c-2.3-0.2-4.1-0.6-4.1-0.9c0-0.8-6.2-3-8.4-3c-1,0-3.2-1-4.9-2.2c-1.8-1.3-3.8-2.2-4.5-2
		c-0.6,0.2-2-0.1-2.9-0.6c-1.4-0.8-1.3-1.1,0.8-1.7c1.3-0.4,3.8-2,5.4-3.5c1.7-1.5,4.5-3.1,6.3-3.5c1.7-0.4,3.2-1.3,3.2-2
		s0.5-1.5,1.2-1.7c0.6-0.2,1.3-2.9,1.6-6c0.4-4.7,0-6.3-2.1-9.8c-2.8-4.7-6.4-7-11.3-7c-1.9,0-3.7-0.6-4.1-1.5
		c-0.8-1.3-1.7-1.2-7.3,0.6c-3.6,1.2-7,2.6-7.7,3.1c-0.7,0.6-1.4,0.4-1.9-0.3c-0.8-1.4,3.2-5,9.1-8.1c2.2-1.1,4.7-2.6,5.5-3.2
		c0.8-0.7,3.5-1.8,6-2.5c6.4-1.9,8.5-3,12-6.4c1.9-1.8,3-3.9,3-5.7s1-3.4,3-5c1.7-1.3,3-2.9,3-3.5c0-0.7,0.7-1.8,1.5-2.5
		s1.5-2.5,1.5-4.1c0-1.8,0.5-2.9,1.4-2.9c0.8,0,1.7-1.5,2-3.4c0.5-2.5,1.3-3.6,2.9-3.9c1.2-0.2,2.5-0.5,2.9-0.6
		c1.7-0.3,1.6,1.9-0.2,3.2c-1.1,0.7-2.5,2.8-3.1,4.5c-0.6,1.8-1.5,3.2-2,3.2s-0.9,0.9-0.9,2s-0.4,2-0.9,2c-0.4,0-0.6,1.1-0.4,2.5
		c0.4,1.9,0,2.7-1.8,3.5c-3.4,1.6-6.6,9-3.9,9c0.6,0,1-0.5,1-1c0-0.6,0.5-1,1-1c0.6,0,1,0.7,1,1.5s-0.3,1.5-0.8,1.5
		c-0.8,0-4.2,7.3-4.2,9c0,0.6,1,1,2.3,1c1.7,0,2.8-1,4-3.5c0.9-2,1.7-4.3,1.7-5.1c0-0.9,0.8-2.6,1.9-3.9c2.6-3.4,4.1-1.5,2.8,3.4
		c-0.9,3.3-0.7,4.3,1.3,7.6c6.4,10.3,13,14.4,21.4,13.1c5.3-0.9,13-5.2,14.7-8.2c0.7-1.3,1.7-2.4,2.2-2.4s1.8-1.1,2.9-2.5
		s3-2.5,4.2-2.5s3.3-1.1,4.6-2.5C760.7,735.2,761.6,735.8,759.4,740.3z M765.9,697.3c-0.4,0.6-1.6,1.1-2.7,1.1
		c-1.1,0-3.9,0.9-6.2,2.1c-4.5,2.2-16.9,6.5-20.2,7c-2.1,0.3-7.9-2.3-9-4.1c-0.3-0.5,0.9-2.5,2.7-4.3c1.8-1.9,3.8-4.3,4.5-5.3
		c1.1-1.7,1.3-1.8,2.5-0.3c2.1,2.6,7.4,4.9,11.4,4.9c3.3,0,13.9-4.8,15.4-7c0.3-0.4,1.2-1,2-1.3s1.6-0.6,1.6-0.6
		C768.3,689.3,766.5,696.3,765.9,697.3z M779.8,630c-0.8,1-1.5,2.7-1.5,3.6c0,3.5-2.2,6.4-6.3,8.6c-2.3,1.2-4.6,2.2-5.2,2.2
		c-0.5,0-2.3,1.1-3.9,2.5c-1.6,1.4-3.1,2.3-3.4,2.1c-0.2-0.3,1.8-3.8,4.4-7.8c2.7-4,5.1-7.8,5.4-8.4c1.2-2.6,5-6.5,7.1-7.3
		c1.3-0.5,3-1,3.7-1C781.8,624.4,781.6,627.6,779.8,630z"/>
	<path id="XMLID_5_" class="st0" d="M382.3,495.4c0,0.5-0.4,1-1,1c-1.8,0-1,2.6,1.5,5c1.4,1.3,2.5,3,2.5,3.7c0,0.8,1.3,2.2,3,3.1
		c1.6,0.9,3,2,3,2.4c0,0.5,1.4,0.8,3.1,0.8c1.8,0,2.8,0.4,2.4,1c-0.7,1.1-3.1,0.7-11.4-1.7c-4.5-1.3-5.9-1.4-9.5-0.3
		c-4.6,1.5-13.6,6.2-18.2,9.7c-1.7,1.3-3.6,2.3-4.3,2.3c-0.6,0-2,0.5-3,1.2c-1.5,0.9-1.7,1.7-1.1,4c0.5,1.5,0.8,2.9,0.7,2.9
		c-0.1,0.1-4,0.3-8.7,0.4c-11,0.2-13,0.9-13,4.3c0,2.6-0.2,2.7-6.3,2.9c-3.4,0.2-7.2,0.8-8.5,1.5c-1.8,0.9-2.7,0.9-4.2,0
		c-3-1.8-6-1.5-6,0.6c0,1,0.5,2.3,1.1,2.9c1.7,1.7-7.7,5-10.1,3.5c-3.2-2-13.3,2.1-14.5,5.9c-0.9,2.6-7.8,5.8-12.7,5.9
		c-2,0-4,0.4-4.3,1c-0.3,0.5-1.8,1-3.3,1c-4.7,0-9.5,3.1-10.5,6.8c-0.7,2.8-1.6,3.7-5.8,5.4c-3.4,1.5-5.1,2.8-5.5,4.4
		c-0.4,1.3-1,2.4-1.5,2.4c-1.3,0-1.1,2.4,0.6,5.6c2.3,4.4,1.9,6.2-0.8,3.7c-3.5-3.3-7.7-2-13.2,3.8c-2.5,2.7-5.2,4.9-6,4.9
		s-1.5,0.4-1.5,1c0,0.5-2,0.7-4.8,0.3c-3-0.3-5.8-0.1-7.1,0.7c-3.2,1.7-3.5,0.7-1.2-3.1c3.3-5.4,2.8-10-1.7-14.4
		c-3.5-3.4-4-3.6-8.7-3.2c-4.1,0.4-5.4,1-7.7,3.8c-4.2,5-4.8,8.5-2.6,13.8c1,2.4,2.6,5,3.6,5.7c1.5,1.1,1,1.9-4.8,8.1
		c-3.6,3.7-7.9,8.4-9.5,10.4c-1.7,2.1-4.7,4.7-6.8,5.9c-2,1.2-3.7,2.5-3.7,2.8c0,0.4-1.1,2-2.5,3.6c-1.4,1.6-3,4.8-3.6,7
		c-0.6,2.3-1.5,5.5-2,7.2c-3.1,10.2,0.7,25.8,7.8,32.7c4.2,3.9,19.6,8.3,23.9,6.8c5.5-2,10.3-1.3,16.3,2.3
		c7.7,4.6,12.3,5.9,19.4,5.4c7.1-0.5,11.8-2.4,17.6-7.5c2.3-1.9,4.4-3.3,4.7-3c1.4,1.3-0.9,4.4-4.1,5.6c-2.1,0.7-3.5,1.9-3.5,2.9
		c0,1.8,12.1,14,17.6,17.9c4.4,3.1,16.2,6.5,21.1,6.1c2.4-0.2,4.2,0.1,4.2,0.7c0,3.1-1.6,6.6-5,11.1c-2.2,2.8-3.9,5.6-3.9,6.2
		c0,0.6-1.2,2.5-2.7,4.2c-2.4,2.9-3.1,3.2-6.6,2.7c-3.6-0.5-3.9-0.3-4.9,2.4c-0.5,1.6-1.4,2.9-1.9,2.9s-2.6,1.6-4.6,3.6
		c-5.8,5.5-8.9,6.7-16.8,6.7c-7.1,0-11.5,1.6-11.5,4.2c0,0.7-0.6,1.5-1.2,1.7c-1.9,0.7-3.8-0.2-3.8-1.8c0-2.3-4.7-1.7-5.3,0.7
		c-0.5,1.7-1,2-2.9,1.4c-1.3-0.4-4.3-1-6.8-1.2c-2.5-0.3-4.7-0.9-5-1.2c-0.3-0.4-3.6-2.9-7.5-5.4c-10-6.6-10.5-7.1-11.6-11.1
		c-0.8-2.9-0.6-4.3,1-7.6c1-2.2,1.5-4,1.1-4c-2.6,0-5.8,2.6-6.8,5.4c-1.6,4.4-1.5,5.5,0.8,10.1c1.8,3.5,1.8,4.2,0.6,7.9
		c-1.2,3.4-1.5,3.8-2.1,2.1c-2.5-7.5-4.8-8.6-5.3-2.4c-0.3,4,2.9,9.9,5.8,10.6c1.1,0.3,2.2,1.4,2.5,2.4c0.4,1.1,1.9,2.7,3.3,3.7
		c1.5,0.9,3.4,2.4,4.3,3.4c0.9,1,4,3,7,4.6c3,1.6,8.2,4.6,11.5,6.8c8.2,5.4,8.8,5.6,18.6,6c8.5,0.3,15.3-1.2,16.9-3.8
		c0.3-0.5,3.2-1.1,6.5-1.4l5.9-0.5l-5,2.1c-2.7,1.2-7.1,3.3-9.7,4.6c-2.7,1.3-5.5,2.4-6.3,2.4c-0.9,0-1.4,0.8-1.2,2.2
		c0.4,3.6-3.6,5-12.9,4.4c-4.4-0.3-9.4-1-11-1.7c-1.6-0.6-3.8-1.5-4.9-1.9c-3.8-1.5-5-2.1-7.4-3.5c-3.1-1.8-4.3-1.1-3,1.8
		c1.7,3.8,15.3,10.4,21.6,10.6c1.2,0.1,2.5,0.6,2.8,1.1c1,1.6,7.3,1.1,11.3-0.9c9.2-4.6,17.4-9,18.6-10c0.7-0.6,3.5-1.4,6.2-1.7
		c5.4-0.7,9.6-2.9,13.4-6.9c1.9-2,3-2.4,5.3-1.9c2.2,0.4,3.3,0.1,4.8-1.5c1.1-1.1,5.6-3.9,10.1-6.1c4.5-2.3,9.7-5.4,11.5-7.1
		c1.9-1.6,5.2-3.8,7.4-5c5-2.5,9.9-6.8,9.9-8.6c0-0.7,0.5-1.3,1-1.3c0.6,0,1-0.6,1-1.3c0.1-0.6,2.3-3.5,5-6.2c2.8-2.8,5-5.6,5-6.3
		c0-1.6,0-1.6,6.2,1.5c5.6,2.7,15,9.6,18.2,13.2c1.1,1.2,3.1,2.1,4.8,2.1c1.6,0,4.6,0.9,6.8,2c5.2,2.7,6.3,2.6,5.8-0.5
		c-0.6-3,0.3-3.2,2.5-0.7c2.1,2.3,2.1,3.2,0.2,3.2c-0.9,0-1.8,0.7-2.2,1.5c-0.6,1.7,1.6,3.9,5.5,5.5c1.2,0.5,2.6,2,3.1,3.3
		s2.5,3.8,4.5,5.5s4,4.2,4.5,5.5c0.6,1.6,2.5,2.8,6,4c5.7,1.8,10.3,5,16.9,11.5c2.4,2.3,4.7,4,5.3,3.7c1.2-0.8,1.2-4.2-0.1-5
		c-0.5-0.3-1-1.1-1-1.6c0-1.8,6.2,2.5,7.3,5.1c0.6,1.4,2,3.8,3,5.3c2.8,4.1,6.7,12,6.7,13.5c0,1.6,6,10.5,7.4,11.1
		c0.5,0.2,2,1.5,3.3,2.7c2.8,2.8,6.2,4.6,11.8,6.4c6.1,1.9,9.7,4.8,8.6,6.8c-1.3,2.7-0.2,4.2,3.1,4.2c1.6,0,4.1,0.9,5.5,2
		c1.5,1.1,5.1,2.8,8.2,3.6c7,2,8.1,2.9,8.1,6.4s1.3,4,10.3,4c7.3,0,12.4,1.7,14,4.6c1,1.7,7.2,1.8,15.1,0.3c5.5-1.2,5.8-1.1,8.4,1.4
		c13.7,12.9,39.2,12.1,44.6-1.4c2.2-5.5,2-12.1-0.6-18.1c-2-4.8-2.1-5.1-0.4-7.9c2.1-3.6,1.5-7.4-1.9-11.3c-1.4-1.6-2.5-3.9-2.5-5.1
		c0-2.6-4.9-7.5-7.6-7.5c-1,0-3.8-1.3-6.1-2.9l-4.2-2.8l2.4-2.3c3.1-2.9,3.1-4.3,0.1-8.3c-2-2.6-2.6-4.7-2.8-10.2
		c-0.3-6.5-0.4-6.8-2-5.1c-1.2,1.2-1.8,3.3-1.8,6.6c0,6.4-1.8,7.4-2.2,1.3c-0.3-5.1,2.6-17.8,4.7-20.3c0.7-0.9,1.3-5,1.4-9.9
		c0.1-5.5,0.7-9.1,1.7-10.5c0.8-1.2,1.7-1.9,2-1.7c0.3,0.1,2.7-0.6,5.4-1.8c4.9-2.1,7-4.4,7-7.6c0-2.1-3.3-1.5-10.3,2
		c-6,3.1-8.9,6.4-12.3,14.2c-2.3,5.4-2.9,6.1-5.3,6c-2.1-0.2-2.7,0.3-2.9,2.5c-0.2,1.5-1.6,4.1-3.3,5.7c-1.6,1.6-3,3.8-3.2,4.9
		c-0.5,3.1-3.8,7.5-4.8,6.5c-1.4-1.4,0-6.3,1.8-6.3c1,0,1.4-0.7,1-1.9c-0.3-1.3,0.1-2.1,1.4-2.4c2-0.5,2.6-3.2,0.9-4.2
		c-1.3-0.8,2-7.5,3.7-7.5c0.7,0,1.4-1,1.4-2.3c0.3-6.2,1.1-7.8,5.8-12.5c2.8-2.8,6.5-5.9,8.3-6.9s3.5-2.1,3.8-2.4
		c0.3-0.3,1.5-1.1,2.8-1.8c1.2-0.6,2.2-1.8,2.2-2.6c0-1.7-1.3-1.9-3.8-0.6c-0.9,0.5-3.4,1.7-5.5,2.7c-6.9,3.4-17.7,15.4-17.7,19.7
		c0,0.6-2.7,6.7-6.1,13.5c-3.3,6.8-6.2,13.2-6.4,14.2c-0.5,2.7-2.4,6-3.4,6c-0.5,0-1.1,1.7-1.4,3.7c-0.3,2.1-0.9,5.2-1.3,7l-0.6,3.2
		l-4.4-2.4c-2.6-1.5-6.1-2.5-8.4-2.5c-2.2,0-5.5-1-7.7-2.2c-3.7-2.2-26.3-24.4-26.3-25.9c0-0.4-1.4-2.3-3.1-4.1s-4.9-5.6-7.1-8.3
		c-2.2-2.8-5.2-6.4-6.7-8c-2.9-3.3-9.9-7.5-12.5-7.5c-0.9,0-4.9-3.2-8.9-7.1c-3.9-4-8.5-8-10.2-8.9c-2.1-1.2-3.1-2.6-3.5-5
		c-0.4-3-1.3-3.7-7-6.6c-3.6-1.8-7.7-3.6-9.2-3.9c-1.9-0.4-3-1.4-3.8-4c-1-3-1.7-3.6-5.2-4.1c-3.2-0.6-4.3-1.3-5.5-3.9
		c-0.8-1.8-2.9-4-4.7-5c-3.7-2.2-6.3-5-7.1-7.6c-0.4-1.1-2.4-2.8-4.5-3.9s-4.1-2.4-4.5-3c-0.3-0.5-1.5-1-2.6-1
		c-2.4,0-11.6-2.7-14.4-4.2c-1.1-0.6-4-1.2-6.5-1.3c-6.1-0.2-8.2-1.5-7.6-4.6c0.2-1.3,0.5-3,0.5-3.7c0.1-0.7,1.7-2.8,3.7-4.7
		c2.8-2.8,4.4-3.5,7.4-3.5c2.2,0,5.4-0.9,7.3-2c4.3-2.5,11.3-4.1,20.2-4.6c9.4-0.5,32.5-2.4,35.1-2.9c1.1-0.3,2.7-1.6,3.4-3.1
		c0.8-1.4,3.2-3.5,5.5-4.6c7.4-3.7,8.5-5.3,8.5-12.7c0-5.5-0.6-7.7-3.2-13c-3-5.8-10.9-14.1-13.5-14.1c-0.5,0-1.8-0.8-2.9-1.8
		c-1.9-1.7-10-5.6-13.9-6.6c-1.1-0.3-3.3,0.1-4.9,0.9c-4.9,2.6-9,1.9-13-2c-5.4-5.2-5.6-5-7.1,5c-0.3,2.2-0.8,4.8-1.1,5.8
		c-0.6,2.1-10.5,7.2-15.7,8.2c-2.1,0.4-4,1.1-4.3,1.6c-1,1.7-7.9,0.9-11.4-1.2c-1.9-1.2-5.1-3.8-7-5.9c-2-2-5.4-4.3-7.5-5
		c-5.3-1.7-7-3-5.3-4.1c1.8-1.2,10.7-3.7,16.9-4.9c2.9-0.6,5.7-1.8,6.4-2.7c1.3-1.7,6.7-2.8,20-3.9c3.9-0.3,8-1,9.2-1.6
		c2.4-1.2,7.9,0.6,13.5,4.4c1.5,1.1,4.4,1.8,7,1.8c5,0,15.8-3.3,17.3-5.4c0.6-0.7,3.8-1.6,7.3-1.9c8-0.9,10.9-2.4,18.2-9.7
		c8.5-8.5,13-15.9,13-21.6c0-8.8-7.5-18.9-20.5-27.7c-3.8-2.7-9.5-6.6-12.5-8.7c-3-2.2-6.1-4-6.7-4c-2.4,0-1.3-2,1.1-2
		c3,0,4.2-1.5,4.9-6.2c0.5-3.1,0.2-3.9-1.8-5.2c-1.3-0.9-3.1-1.3-3.9-1c-0.9,0.4-1.8-0.1-2.2-1c-0.3-0.9-1.7-1.6-2.9-1.6
		c-1.3,0-2.7-0.5-3-1c-0.3-0.6-1.7-1-3-1L382.3,495.4z M272.7,648.4c-0.5,0-2.1,1.1-3.6,2.5c-1.4,1.3-3.8,2.7-5.2,3
		c-8.3,1.7-7.7,1.7-6.4-0.4c0.6-1.1,2.2-2.4,3.5-3c2.7-1.2,3.2-5.1,0.6-5.1c-0.9,0-2.5,0.8-3.5,1.7c-1.8,1.6-1.8,1.6-1.1-0.4
		c0.4-1.2,2-3.5,3.6-5.2c1.5-1.7,2.7-3.5,2.7-4s1-1.6,2.3-2.4c1.2-0.9,2.9-1.6,3.7-1.6c1.1-0.1,1.2,0.2,0.3,0.7
		c-0.7,0.4-1.1,1.6-0.9,2.7c0.2,1.1-0.4,3.1-1.2,4.3c-1.3,2-1.3,2.5-0.1,3.3c0.8,0.5,1.9,0.9,2.5,0.9c0.6,0,1.7,0.7,2.4,1.5
		S273.1,648.4,272.7,648.4z"/>
	<path id="XMLID_4_" class="st0" d="M174.7,572c-4-1.5-9-0.6-11.7,2.2c-2.3,2.4-2.7,3.7-2.7,8.7c0,5.5,0.3,6.2,3.3,8.7
		c1.7,1.5,3.5,2.8,3.9,2.8c1.2,0,10.3-5.2,11-6.4c1.4-2,0.9-10.4-0.7-12c-0.8-0.8-1.5-1.9-1.5-2.4C176.3,573,175.6,572.3,174.7,572z
		"/>
	<path id="XMLID_3_" class="st0" d="M186.7,568.4c3.1-3.8,3.2-5.4,0.6-8c-1.4-1.4-3.3-2-6.5-2c-5.1,0-5.9,1.4-5.3,8.6
		c0.3,3.8,0.4,3.9,4.4,4.2C183.5,571.5,184.4,571.1,186.7,568.4z"/>
</g>
</svg>
