<?xml version="1.0" encoding="utf-8"?>
<!-- Generator: Adobe Illustrator 19.0.0, SVG Export Plug-In . SVG Version: 6.00 Build 0)  -->
<svg version="1.1" id="Layer_1" xmlns="http://www.w3.org/2000/svg" xmlns:xlink="http://www.w3.org/1999/xlink" x="0px" y="0px"
	 viewBox="995 -64.4 2357.9 848.2" style="enable-background:new 995 -64.4 2357.9 848.2;" xml:space="preserve">
<style type="text/css">
	.st0{fill:#FFFFFF;}
</style>
<g>
	<g>
		<path class="st0" d="M1808-9.5h-40v127.8h29.1v-19l33.7,0l9.7,19v0l32.5,0L1808-9.5z M1797,76.3V32.6l22.3,43.7L1797,76.3z"/>
		<path class="st0" d="M3066.1-9.5l-98.6,127.8h32.8l15.2-19.7h32l-6.1,20.1l30.6-0.4l38.8-127.8H3066.1z M3053.8,77.1h-22.1
			l36.5-47.2L3053.8,77.1z"/>
	</g>
	<g>
		<path class="st0" d="M1842,316.8c0,0,7.7-5.7,8-16.1c0.3-10.3-6-1.4-6-1.4c-4.3,10.9-4.6,11.2-19.7,25.2s-2.9,8.9-2.9,8.9
			L1842,316.8z"/>
		<path class="st0" d="M1953.6,418.6c-11.2,7.6-11.1,9.3-22,11.6c-4.6,0.6-7.9-1.1-9.3,2.3c0,1.8-0.3,3,1,4.2
			c4.9,1.8,6.1,2.3,8.8,3.7h0c10,4.2,7.6,11.2,17.9,10.5c1.9-5.9,0.9-13.4,10.7-25.6C1965.4,419.2,1958,418.5,1953.6,418.6z"/>
		<path class="st0" d="M1232.6,386.2c-5,2.5-4.3,4-1.5,12.9c-0.4,10.1-5.6,22.9-12.5,28.1c-3.9,2.9-7.7,2.5-6.7,4.8l0,0
			c9.7,4.8,25.9-24.7,26-32.1C1238,394.4,1239.2,388.3,1232.6,386.2z"/>
		<path class="st0" d="M1247.4,360.3c-3.8-0.2-3.3-6.3-9.1-3c-0.4,9.2,11.2,12.4,20.3,13.3C1267.2,367.5,1263.3,361.2,1247.4,360.3z
			"/>
		<path class="st0" d="M1333.2,326.1c-2.1,6.1,0.5,7.2,8.1,5.8c4.4-9.2,15-13.5,18.5-19.7C1358.8,309,1359.3,299,1333.2,326.1z"/>
		<path class="st0" d="M2017.7,508.7c3.7,5.1,3.3,7,5.2,6.7c1.8-0.6,2.5-1.7,2.2-3.5c-0.8-7.9-6.2-19.7-14.7-15.8v0
			c-2.3,1.1-3.3,3.8-2.3,6.2C2008.9,504.5,2014.4,504.1,2017.7,508.7z"/>
		<path class="st0" d="M2083.3,476.4c8.5,4.8,0.4,14.9,1.1,18.7c5.2,2.5,6.1-3.1,7.2-5.3c5.4-10.6,7.4-18.9,0.2-19.2
			c-2.9-0.1-4.3,0.8-9,0c-1.9-0.4-5.1-0.6-6.9-2.7c-0.9-1-2.7-0.7-3.1-0.5v0c-2.6,1.6-2.6,4.6-0.6,6.4
			C2074.4,474.7,2078.5,473.7,2083.3,476.4z"/>
		<path class="st0" d="M1821.7,337.6c-2.9,0.7-5.4,2.2-1.2,4.6c4,0,8.8,4.3,12.1,6.1c28.9,15.8,24.9,43.4,26.1,51.8
			c-0.6,0,1,5.7,5.8,1.2C1864.5,371.3,1852.9,341.6,1821.7,337.6z"/>
		<path class="st0" d="M1978.1,171.9c-5.7,0.5-2.5,7.6-4.6,11c-2.3,3.9-2.8,6.9-4.5,9.3c-21.1,29.4-21.4,33.3-21.2,33.2
			c0,6.1-1,6.9,3.8,7.6c0.7-0.8,3.8-17.2,10.8-24.4C1968.7,201.9,1995.4,177.3,1978.1,171.9z"/>
		<path class="st0" d="M1860.9,521.1c-6,17.4-12.9,4.8-11.5,15.6h0c18.3,0,20-17.7,13.9-31.3
			C1856.5,505.9,1862.6,515.9,1860.9,521.1z"/>
		<path class="st0" d="M1561.2,390.9c-3.2,8.9-6.4,17.4-14.2,22.9c-36.1,25-2.6,21.1-11.3,21.1c10-8.5,24.6-17.2,28.9-44
			C1562.4,388.1,1561.6,389.2,1561.2,390.9z"/>
		<path class="st0" d="M1516.1,301.7c-1.5-6.9,1-14.5-1.5-20.8c0-1.6-1.5-1.2-3-1.2c-3.2,1.8-3.3,6.1-3.2,6.9
			c1.4,8.4,2.9,16.7,4.3,25l4.7,7.4h0c2.8,0,9.3,0.7,4.9-3.7C1518.3,308.8,1517.2,307,1516.1,301.7z"/>
		<path class="st0" d="M1320.5,468c5.1-15.6,10.9-54-3.4-54c-2.8-0.4-5-0.7-2.3,5.8c0,0.7,3.2,8.5,3.9,11.9
			c0.5,7.9,0.9,15.8-1.6,22.9c-1.6,6-3.6,8.1-4.6,10.4v2.3C1313.2,468.8,1314.5,473,1320.5,468z"/>
		<path class="st0" d="M1346.4,306.4c-1.2-2.1-5.2-3.7-17.9,10.9c-6.3,8.8-11.9,17.7-18.2,26.5c-10.6,8.4-11.1,11.9-24.6,14.8
			c-5.6,5.7,3.1,6.9,6.1,6c-4.9,0.8,6.5-0.5,14.3-8.8c9.3-10.1,14.7-20.9,23.3-31C1335.1,318.5,1343.8,312.7,1346.4,306.4z"/>
		<path class="st0" d="M1356.7,583.7l28.4,36.5c5.5,7.9,11.1,16.6,14.4,25.7c1.6,4.4,2.2,9.3,4.3,13.6h3.5c0-4.8-2.7-8.9-4.1-13
			c-11.2-34.3-33.7-61.3-60.1-86.2c-3.9-3.6-5.7-15.3-9.9-10.8C1334.6,565.2,1345.8,570.3,1356.7,583.7z"/>
		<path class="st0" d="M1688.7,321.5c0,4.7,1.8,11,6.8,11.5c5.5-7-6-31.8-15-30l0,0C1677.6,303.5,1682.7,317.6,1688.7,321.5z"/>
		<path class="st0" d="M1319.4,493.6c-2.1,18.8-5.7,17.4-6,27.4c0.5,1.2,0.6,7.7,8.3,0.6C1323,506.7,1324.7,488.6,1319.4,493.6z"/>
		<path class="st0" d="M1233.7,444.1c-0.1,1.9,2.8,5.8,5.8,1.2v-4.6l0,0c0-8.4,12.4-16,14.5-26.2
			C1253.7,407,1235.7,421.3,1233.7,444.1z"/>
		<path class="st0" d="M1711.4,545.4c-20.1,8.3-20.1-19.2-23.3-30.6l-7.3-18.8c-1.1-4.4-3.1-9.7,3.3-15.7
			c11.3-10.7,12.5-22.1-4.7-0.4c-2.4,3.8-4.7,7.9-4.9,12.8c-0.4,7,15.4,50.8,19.7,54.2c5.4,4.2,13.6,3.5,19.9,1.6
			c6-1.9,9.9-4.2,11.5-10.8h-2.3C1723.3,539.7,1713.5,544.5,1711.4,545.4z"/>
		<path class="st0" d="M2817.2,523.1c-7.3-0.6-9.7,4-22.2,6.6C2789.1,536.2,2817.5,535.1,2817.2,523.1z"/>
		<path class="st0" d="M2786.1,545.5c13.6,7.8,65.3-17.5,67.1-24.3c1.4-5.8-2.3-5.1-5-4.2c-12,9.4-26.6,15.8-41.9,19
			c-6.9,0.6-12.9-0.6-20.6,1.9l0,0C2783.7,539.4,2783.9,544.2,2786.1,545.5z"/>
		<path class="st0" d="M2742.8,437.1c-4.9-1.3-3.9,3.2-3.9,6.3c-0.2,9.8-3.9,12.2-6.3,16.3c-5.8,10-12.2,18.4-7.8,19
			C2735.1,478.7,2754.6,440.6,2742.8,437.1z"/>
		<path class="st0" d="M2946.7,327.6L2946.7,327.6c6.3-3.3,15.5-26.1,9.4-28.8c-5.7-0.7-3.4,16.3-12.7,20.4c-4.5,2.1-12.5,2.1-9.5,8
			C2937.1,329.1,2942.4,329.8,2946.7,327.6z"/>
		<path class="st0" d="M2761.9,373.4c-4.2-2.2-12.3,11.6-17,17.2c-10.2,10.5-13.1,7.9-15.1,10.9c-5.1,14.1,18.2-3.1,21.3,13.1
			c2.1,10.9,3,26.2-0.6,36.3c-10.5,20.8-9.5,22.3-4.1,19.9c6.4-2.9,14.7-28.2,14.9-36.2c1.1-5.8,1.3-14.8,0.2-20.5l0,0
			c0-5.7-5.8-13.6-5.2-19.7C2757.8,378.6,2772.5,377.1,2761.9,373.4z"/>
		<path class="st0" d="M2848.2,302.9L2848.2,302.9c8.8,2.5,6.2-0.6,0.4-5.8c-4.8-4.4-9.5-18.2-12.8-21.3c-1.7-1.6-4.6-0.7-3.8,2.8
			C2832.6,288.5,2837.2,298.5,2848.2,302.9z"/>
		<path class="st0" d="M3087.8,305.2c-7.7,5.9-17.8,1.1-37.2,38.1c-3.1,4.6-8.5,15.7-23.4,18.5c-5.5,3.9-1.2,18.4,22.4-3.4
			c3.5-3.4,4.4-4.9,8.3-13c1.2-2.3,2.8-3.4,4.1-4.8c4.9-6,8.8-12.7,13.7-18.7c5.6-5.3,11.9-8.5,18.3-13.7v0
			C3096.7,304.3,3092.6,302.1,3087.8,305.2z"/>
		<path class="st0" d="M3145.7,644.3c-19.4,14.3-29.6,35.4-40.5,55.5c-1.9,2.1-1.9,6.9,1.9,2.9c7-5.2,9.7-13,13.7-20
			c3.3-5.7,7.2-11.1,11.5-16.1c5.8-7,14-10.9,19.2-17.8v0C3151.8,647.1,3153.8,643,3145.7,644.3z"/>
		<path class="st0" d="M3242.9,592.2h-2.3c-1.6,2,1.9,19.5-10.4,26.6c-1.8,9.9,2,7.6,4.6,6.9c1.7-2.5,4.9-3.9,6.6-6.4v0
			C3245.5,611.5,3249.4,593.2,3242.9,592.2z"/>
		<path class="st0" d="M3238,568c6.8,5.4,6-0.5,2.1-9.2c-6.5-14.3-21.2-22.7-21.7-40.8c-0.3-7.5,5.7-13.8,5.7-20
			c0-2-2.6-4.1-4.4-1.9c-2.7,1.9-5.4,3.9-8.1,5.8c-4.8,1.1-8.5-0.2-12.7-0.4c-5.7-0.6-15.6-10-20.7-5.8c-3.9,4.3,1.3,10.2-0.2,7.4
			c7.4,6.3,21.6,6.1,28.7,16.3h0c2,3.8,4.1,7.5,6.2,11.3c5.9,8.4,12.7,15.8,18.5,24.3C3233.9,558.9,3234.3,565,3238,568z"/>
		<path class="st0" d="M2788.3,337.6c-0.4,0-4.7,0.6-5.1,0.6c-7.9,5.2-11.8,10.6-18.8,16.1c-4,2.6-9.6,5.5-13.6,8.1
			c-6.1,6.1-6.8,14.3-12.9,19.9c-3.7,2-8.3,2.6-12.1,4.7c-1.7,1.2-2,2.7-0.3,3.8c-1,0,1.8,1.1,5.7,0.5c9.3-1.6,19.9-18.2,27.9-24.9
			c8.4-7.1,20.1-10.1,27-19.1l0,0C2788.4,344.4,2794.9,340.1,2788.3,337.6z"/>
		<path class="st0" d="M3076.2,392c-3.8,13.2,6,22.7,11.6,32.4c1.1,0.4,2.3,0.8,3.5,1.2l0,0c1.2,0.5,6.3,0.8,1.2-4.6
			C3081.8,414.8,3085.6,385.9,3076.2,392z"/>
		<path class="st0" d="M2215.8,239.1c-1.9,3-1.1,6.9,1.8,8.9c4.4,2.9,6.8,6.7,11,10.8c2.5,3.2,22.6,43.1-13.5,60.4
			c-8.7,5.9,1.9,8.2,10.3,1.5c19.8-16.2,26.6-50.8,7.3-70.1h0c-4.8-4.8-11.7-14.4-16.3-12.3C2216.2,238.5,2216,238.8,2215.8,239.1z"
			/>
		<path class="st0" d="M2198.6,437.4c-3.8,0.8-1.6,13.2-2.5,20.1c-2.3,4.1-4.2,11.7-3.8,14.4c4.7,4.2,6.1-6.9,7.7-10
			C2202.7,452.3,2208,436.6,2198.6,437.4z"/>
		<path class="st0" d="M2244.1,260.4c2.4,8.4,3.3,16.6,6.9,17.1c3.4,0.1,3.8-0.8,3.8-4.7c-0.2-10-4.4-21.5-12.4-26.5
			c-4.8-0.2-3.7,4.5-2.2,6.6L2244.1,260.4z"/>
		<path class="st0" d="M2003.4,382.9c-22.1,6.4-45.4,10-54.2,26.3c-4.2,12.4,10.4-2.8,7.5-0.3c12.7-11.2,28.9-17,45.6-20
			c9-1.7,12.6-2.8,20.9-4.2c3.8-0.4,5.2,0,6.8-3.1C2032.8,370.4,2005.1,382.7,2003.4,382.9z"/>
		<path class="st0" d="M2188.8,417.5c-3.3,9-4.2,18.1-6.9,28.6c-3.5,13-11.4,24.4-15.4,37.4c-0.1,0-2.3,3.9,0,5.3
			c3.7,0,6-8.3,7.5-10.7v0c3.6-6,12.3-11.2,13.4-18.2c3.5-24,6.4-34.7,8-41.2C2197.2,414,2190.5,415.7,2188.8,417.5z"/>
		<path class="st0" d="M2416.2,418.8c-0.7,0.1-1.6,2-2,5.2c-21.2,34-16.3,48-12.7,54.6c0-0.9,6.6,2.9,5.3-8.7
			c-1-8.5,2.4-20.7,5.6-28.1l0,0C2415.2,429.8,2429.8,417,2416.2,418.8z"/>
		<path class="st0" d="M1962,475.9c1.7,3.4,3.8,3.5,6.1,2.7c1.9-0.6,0.8-5-4.1-16.1c-0.9-5.2-0.2-11,0.4-15.8
			c0.7-6.2,15.9-19.2,5.4-21.1v0C1960.3,433.2,1949.2,456.5,1962,475.9z"/>
		<path class="st0" d="M2465.1,444.1c-5.7,0.9-6.4,7.5-8.5,10.7c-9.2,13.7-19.6,26.5-8.9,42.3c3.2,1.4,7,0.2,8.7-2.9h0
			c0-7.5-2.1-13.6,0.4-20.1C2460.8,463.8,2489.8,444.2,2465.1,444.1z"/>
		<path class="st0" d="M3352.2,574.1L3352.2,574.1c-0.1-2.3-0.2-4.6-0.3-6.8c-2-11.6,2.1-25.3-2.4-35.8c1.8,0,1-0.2,0.7-1.6
			c-0.9-3.4-2.8-6.9-3.6-10.2c-2.4-9.2-3.8-17.1-7.4-25.4l-6-10c-0.8-2.6-1.6-5.3-2.5-8c-1.5-5-10.8-18.8-14.7-22.5
			c-2.6-1.7-5.3-3.3-8-5c-3.3-2.3-6.4-5.3-4.9-9.9c0-2.2-2.3-1.9-3.7-3.2c-5.3-5-10.3-11-16.3-14.8c-22-14.3-22.9-15.9-23-16.3
			c5.2-6.3,5.3-6.1,13-15.3c5.7-6.9,21.7-27.9,28.9-39c7.3-11.3,13.5-26.1,15.6-39.9c0.9-6.3,0.6-13.8-1.6-19.1
			c-9.8-22.6-52.1-49.3-73.3-57.8l-19.5-7.3l-19.6-6c-3.1,3.9-4.4,4.7-6.6,3.3c-1-2.5-0.3-3-1.8-3.5c-16-5.5-59.7-11.6-71.4,2.6
			c-4.6,0-8.7-3.2-12.7-4.7c-8.5-3.1-23.8-6.2-32.4-1.1c-8.3,0-17.7,2.6-23.2,8.1c0-1.4,0.3-1.2-1.2-1
			c-10.2,1.6-34.5,17.2-41.6,25.3c-4.7,0-8.6-19.3-11.5-23.7c-2.2-3.3-5.2-6.1-8.6-8.1c-28.7-15.3-65.9-20.6-99-26.7
			c-13.4-2.5-27.3-6.9-41.7-5.7c-6.7,0.6-11.6,3.9-17.4,6.2c0-1.8-21.2-12.3-24.3-15h1.2l279.1-3.7L3238-64.1l-2004.1-0.3
			l146.8,238.5c0,0,54.5-0.2,69.6,0.1c69.9,1.1,138.5-1.4,208.4,0.8v1.2h1.2v1.2c-3.2,1.3-6.4,2.5-9.6,3.7
			c-14.6,5.4-29.3,8.7-37.3,28.9c-10.6,1.9-5.3-17.4-37.5-11.6c-19.3,2.3-47.3,6-63.4,13.2c-5.7,2.5-13.6,10.8-19.7,9.3
			c-13-3.3-45.9-10.8-77.8,17.8c-6.3,0-18.1-16.5-24-21c-11.2-8.5-23-14.8-37.4-16.6c-40.7-5-151.7,76.5-159.6,117.5
			c-21.1,0-34.4,12.6-49,25c-17.9,15.3-35.7,34-55.7,45.9c-11.7,6.9-27.8,13.7-42.3,14.2c-9.9,2.9-48.4-7.3-51.2,31.8
			c-1.5,19.5,8,34.2,20.2,47.2c10.3,11,21.1,21.2,34.7,27.6c7.6,2.3,15.1,4.6,22.7,6.9c22.2,6.8,49.2,7.5,73,2.1
			c21.3-6,29.7-9.7,62.7-24.8c5.5,13.1,13.9,32.1,12.2,28c10.1,23.9,24,52.9,19.2,44.2c2.6,7.4,10,27.1,12.8,33.2
			c12.1,25.9,27,73.4,26.8,71.9c4.8,15.7,10.6,31,14.3,47.2c4,18.2,6.1,41.9,20.7,54.7c6.5,5.8,24.1,17.5,56.3,3.3
			c12.4-5.4,46.2-30.4,52.1-36.1c6.8-8.6,13.5-17.2,20.2-25.7c6.4-4.7,16.3-4.4,24.6-5.1c16.2-1.4,27.1-11.9,34.4-25.1
			c20.4-36.9-7.2-73.7-28.9-100c-12.7-15.4-24.3-31.7-34.7-48.8c-1.5-2.4-6.4-7.8-5.4-10.6c0-0.4-53.6-82.6-69.1-123.5
			c-0.8-2.2-5.3-3.1-3.9-5.1c9.9-14.2,60.7-14,62.6-16.9c5.5-8.8,16.8,58.2,18.9,61.7c9.3,15.5,6.1,11.4,8,30.9
			c2.3,11.6,10.5,36.9,11.4,38.4c2,5.5,4,11.1,6.1,16.6c3.4,10,9.1,23.6,15,32.3c6.1,9,11,18.5,18,27c21.7,26.4,49.8,42.8,82.6,49.9
			c33.9,7.3,88.2-2.8,112.2-23.2c7.1-6,8.8-17.6,14-21.7c3.3-2.6,7.5-2.4,11.3-4c7.4-3.1,12.7-6.8,18.4-12.8
			c7.5-9.4,15-18.7,22.6-28.2c2.3-3.3,4.8-8.8,8.9-10.2c4.2-1.5,6.1,5.7,7.4,8c15,27.9,47.1,28.1,79.2,28.1
			c9.7-0.8,24.7-7.3,75.8-5.7c9.8,0.3,16.8-9.5,24.9-15.1h1.2c8,5.9,16.4,14.2,25.7,17.9l13.9,4.5c2.7,0.4,5.5,0.8,8.2,1.2
			c3.5,1.1,18.2,7.1,63.8-15.7c11.9-6.1,24.2-14.6,34-24.4c3.9-4.9,7.8-9.9,11.8-14.8v-1.1c2.2,0,5.6,3,7,4.6h1.2
			c0,10.8,16.9,22.5,27.8,19.7c0,3.3,15.6,0.9,18.5,1.1c6,0.3,13.1-2.5,18.7-3.9c16.2-4,32.3-8.2,48.6-11.3c11.1-2.1,22-2.9,33.3-4
			c4.7-0.9,9.4-1.9,14.1-2.9c3.7-0.6,7.3-1.3,11.1-2c7.9-2.9,12.9-8,18.9-14c0-3,2.1,1.8,2.4,2.3c6.2,12.7,14.9,23.9,26.7,32.2
			c22.1,15.2,54.2,11.7,81.9,15.8c17,2.5,33.9,7.2,51,9.7c11.7,1.8,24.4,4.7,58.6,18.6c7.3,3,31.2,16.7,38.6,15.2
			c3.5,0,4.4-0.8,6.9,1.2c0,2.2,6.4,0.6,8.1,0.4c7.1-1,15.1-4.9,19.9-10.5c3.3-4,9.1-16.3,14.8-15c0.5,0.6,16.9,7.5,37.5,5.8
			c21.5-1.8,57.5,0.1,80.6,2.3c37.5,3.5,81.2,17.2,110.5,37.6c14.1,9.8,33,30.5,49.4,34c8.8,1.9,18.7,0.7,26.2-3
			c2.8-1.8,5.5-3.5,8.3-5.3c0-1.9,0.7-1.2,2.3-1.2c0,1.4,10.2,8.6,11,13.1c0.8,4.7-0.4,9,1.6,13.2c6.1,12.6,16.7,22.5,28.4,30.1
			c3.9,3.3,7.8,6.5,11.7,9.7c12.2,5.9,24.4,11.8,36.6,17.8l23.8,4.8c10.1,3,21.4,5.5,32.7,6.1c6.8,0.3,15.3,0.7,21.8-0.6
			c4.3-0.9,8.1-3.5,12.8-2.9c4.8,0.6,8.9,6.7,13.2,8.9c5.9,3,17.1,3.4,24,3.7c80.3,3.8,146.9-47.9,178.9-114.6
			c6.3-13.2,10.8-31.4,14-46.1c1-4.7,1-9.5,2.7-13.8C3353.8,576.5,3352.7,575.4,3352.2,574.1z M1415.6,344c-3.4,5.1-9.2,4-14.1,6.4
			c-3.5,0.4-6.9,0.8-10.4,1.2c-10.7,0-57.9,25.6-81.5,37c-2.8,1.4-5-0.6-5.8,0.3s-1.1,3.6,0.4,5.4c4.8,0,10.7,5.5,14.1,9
			c11.2,11.2,16.8,31.2,12.8,48.6c-2,8.4-5.8,14.7-6.1,24.6c14.4,4.3,0.1-27.2,21.3-27c2.2,1.2,7.8,11.5,18.3,35
			c6.2,14.1,15.9,26.2,24,39.4c4.6,7.8,9.2,15.7,13.7,23.6c13.2,17.2,24.1,35.8,36.9,53.4c9,12.5,19.1,23.9,26.7,37.2l6.5,10.1h0
			c4.6,11.8,0,24.5-7.9,32.7c-10.4,10.7-32,19.5-46.3,10c-0.6-0.4-1.2-0.9-1.8-1.3l-2.1-1.5c-9.7-7.5-14.7-27-19.4-37.5
			c-6.3-14.1-14.4-27.4-23.2-40.3c-14-20.7-36.5-37.4-47.2-59.9c-0.4-1.1-0.8-2.2-1.3-3.3c-1.1-4.8-2.8-4.9-4.1-3.3
			c0-0.3-2,0-0.5,4.4c4.6,13.6-4.4,16.8-18.2,13.5c-2.1,1.1-4.6,5.1,3.8,6.9c6.5,1.3,13.9,2.9,19.5,6.4
			c27.1,16.9,35.6,34.9,42.6,41.9l12.5,17.4c2,3.9,3.9,7.7,5.8,11.6c1.9,2.7,3.7,5.4,5.6,8.1c1.9,4.3,13.2,29.5,14.1,34.5
			c0.7,4,2.5,9.5,1.3,13.8c-6,22.7-29.6,37.5-49.3,45.7l-1.3,0.7c-7.2,0-13.1-1.7-17.6-6.7c-6.1-6.8-7.8-18.1-10.1-27l-11.2-35.5
			c-11-31.4-22-62.9-33-94.4c-1.1-5.3,3-10.6,1.6-15.2c-0.5-1.6-9.9-6.2-12.2-10.5l-21.5-47.7c-5.9-12.5-11.5-25.1-17.4-37.6
			c-2.7-5.7-6-11-6.6-17.3c-2.7-24.1,13-33.2,5-33.6c-2.2-0.2-7.7,11-7.6,10.9c0,0,0-0.1,0-0.1c0,0,0,0.1,0,0.1
			c-9.7,17.7-29,33.1-45.9,43c-8.3,4.1-16.7,8.2-25,12.3c-3.5,1-6.2,2-15.8,3.6c-2.7,0.4-6.9,0.6-9.6,1c-39.1,0-63.7-2.8-89.8-30.6
			c-4.7-5-10.7-11.1-9-18.8c1.2-5.3,4.2-7.4,9.3-8.1c13.6-1.8,26.6,0.7,43.2-5.1c19.2-6.7,34-23.5,50.7-35c11.7-8.1,9-6.4,17.6-14.7
			c2,0,4.8-3.9,6.4-5.1c9.6-7.7,29.9-27.6,42.2-26.8c11.9,0.8,19,12.4,27.7,19.4c5.9,5.2,13.2,9.8,22.3,17.2
			c3.8,3.3,2.7,6.4,3.9,11.2c1.3,5.2,18.3,0.1,22.6-3.7c1.8-1.7,2.2-7,0.1-8.7c-4.9-3.9-15-4.4-21-6.3c-11.5-3.6-24.9-9.7-32.4-20.4
			c-5.1-7.2-9.2-18.2-5-27.2c11.2-23.8,102.1-84,98.7-82.1c16.1-8.7,24.9-12.8,35.3-11.5c25.4,1.6,52.6,31,33.9,56.2
			c-2.9,3.9-7.2,6-15.5,10.6c0.6,12.2,17.5-6,27.2-5.2C1407.8,299.4,1422.1,334.3,1415.6,344z M2986.8,452.1
			c5.1,6.2,9.9,12.1,15.9,17.6c4.3,4,34.4,23.2,34.7,24.1c0.5,2.1-0.4,3.5-2,4.6c-4.3,2.1-8.5,4.2-12.8,6.3
			c-8.7,5.1-18.7,11.8-29.5,12.9c0-19-1.7-27.9-18.8-35.3c-3.5-1.5-9.7-2.8-11.8-6.4c-2.3-4,9.8-31.7,13.2-34.7V440
			C2981.9,442.9,2982.8,447.2,2986.8,452.1z M1613.3,335.8c1.1-8.9,0.1-18.1,0.3-27.7l1.2-26.6c2.7-5.6,4.6,10.1,5.5,12.8
			c2.5,7.9,9.7,59.8,8.9,69.4c-1.3,11.6,4,56.7-2,78.9c-3.7,13.4-6.7,7.5-7.9,5.1c-3.7-7.6-2.9-21.3-3.5-22.2
			c-4.1-5.5-2.1-45.5-2-54.3c-2.1-4.3-6.4-11.5-8.2-13.4C1605.4,352.3,1612.3,342.8,1613.3,335.8z M1765.3,431.4
			c-5.6,37.5-12.4,74.6-31.8,105.1c-3.3,4-6.7,7.9-10.1,11.9c-5.1,6.4-15.4,19.3-25.1,13.5c-5.8-3.5-6.5-11.9-9.8-17.1
			c-1.4-1.9-4.3-2.9-4.3,0.6c0.2,6.1,1.6,5.4,1.5,7.6c-0.8,41.3-15.8,39.8-37.8,53.2c-9.1,3-17.1,3.1-26.6,4.6
			c-11.1,0-23.1,0.8-35.8-0.9c-54-9.5-87-57.7-98.7-107.9c-2.2-9.3-8.1-35.7-5.6-44.9c4.6-17.6,20.6-9.7,43.9-32.1
			c14.3-13.6,29.9-24,21.1-23.2c-6.7,0.4-21.7,17.9-22.1,17.9c0,3.2-29.2,16.2-34.8,16.6c-5.7,0.3-11.2-1.9-15.1-6.1
			c-10.6-10.9-10.8-35.8-14.1-51l-13-47.3l-11.4-30.1c-3.4-8.1-7.9-15.6-9-24.7c-0.6-5,2-9.9,5.4-13.1c7.2-7,18.6-7.9,28.2-10.4
			c54.9-14.7,41.4,52.6,27.1,80c-4.4,8.3-7.6,11.4-15.2,17.5c-12.8,4.7-1.2,26.7,24.7-18c4.9-7.1,17.8,5,17.6,1.3
			c-2-10.3-4.3-16.5-6.1-23.5c-3.4-14.7-6.4-49.5,5.1-60.2c6.3-5.9,16.2-9.2,24.6-10.9c11.1-2.3,25.8-7.3,37.6-2.9
			c3.9,1.4,7.6,4.3,8.9,8.4c2.2,6.7,1.3,14.5,0.9,21.7c-0.9,19.4-2.7,37.9-4.5,56.7c-0.6,6.3,0.8,13.9-2.5,19
			c-3,4.7-8.9,9-14.2,10.2c-1.8,0.3-3.7,0.6-5.6,0.9c-9.6,4.7-32-18.2-28.9-3.5c4.7,2.8,6.5,3.8,9.6,5c4.4,1.6,8.5,2.8,12.9,4.4
			c8.2,2.9,20,0.1,26.3,6.7c4.1,4.3,6.8,58.7,8.2,69.5c1.7,12.8,4.1,26.4,8,38.2c1.9,5.9,5.9,12.3,11.3,16.2
			c5.1,3.7,16.3,5.3,17.3,12.9c0.5,4.6-2.2,9.5-4.2,13c-5.5,9.9-20.4,32.3-14.8,45.3c3.9,7.7,6.6,2.4,8.6,2.9v-1.2h1.2
			c0-5.8-2-9.7-1.3-17.2c0.3-4.2,9.3-23.3,11.2-26.4c2.6-3.7,5.1-6.8,7.7-10.2c1.7-3.6,7.2-12.2,8.5-13.7c1.4-3.3,2.7-6.7,4-10
			c1.7-5.1,3.4-10.2,5.1-15.4c1.4-8,2.7-16,4.1-24c3.4-30.2,5.1-63.6,2.1-94.9c-2.6-26.8-7.1-52.6-13.1-77.4
			c-2.7-11.1-11-29.7-8.9-41.7c2.9-16.5,30.2-22.2,44.1-24.9c4.6-0.9,9.2-3.1,14-0.7c2.3,0,0.2,4.1-0.5,5.5c-3,4.9-6,9.7-9,14.6
			c-8.9,16.6-14.5,45.7-5.1,48.4c6.5,1.8,5.1-4,5.6-7.1c1.4-8.6,0.2-17.4,2.4-25.4c2.7-10.2,12.7-16.3,19.4-24.2
			c2.7-4.7,5.5-9.4,8.2-14.1l8-5.7c11.6,0.4,19.6,2.7,26,12c12.2,17.6,27.2,133.2,14.5,154.7c-4.7,7.9-11.4,5.7-18.5,9.3
			c-14.5,0-37.8,9-45.1-7c-11.9,0,0.1,13.8,6.9,25.5c1.7,2.7,5.8-1.4,12.7-5.2c12.4-7,19.6-6.7-1.2,5.2
			c-17.4,9.9-22.4,26.7-16.2,47.5h3.5c4.2-3.6-1.8-14.4,5.4-25.8c2.7-4.2,4.7-8.9,8.3-12.7c5.8-6.2,12.5-10.3,19.7-14
			c4.1-2.6,8.2-5.2,12.3-7.7c9.7-3.8,17.7,5.8,18.7,15.2h0C1769,406.5,1766.8,421,1765.3,431.4z M1401.4,145.1L1285.7-38.1
			l1901.2,0.3l-111.4,182.1L2585,145l-32.6-9.2c-8.7-1.3-16.1,3.1-24.1,2c-3.9-1.2-7.8-2.4-11.8-3.5c-12.7-3.4-25.5-6.8-38.2-10.2
			c-5-0.5-10-1-15-1.5c-4.3-0.1-8.5,0.9-12.4-0.1c-2.4-1.4-4.8-2.8-7.2-4.3h8.9L2440.5-9.5h-39.9l-34.4,110.9
			c-4.8-0.2-9.8-0.4-14.8-0.5l2.4-84.3h26.2V-9.5h-79.3v26.1h21.5l-2.4,84.8c-14.7,0.7-29.3,2.2-43.8,4.5c8.3-6.6,13.8-16.2,14.4-27
			h0.1V-9.5h-29.9l-0.3,86.6c0,5.8-5.1,10.4-11.4,10.4c-5.6,0-10.3-3.8-11.2-8.7V-9.5H2208v88.4h0.1c1.1,17.8,15.1,32.3,33.5,35.5
			l-45.7,14.7c-5.4,1.3-10.6-0.5-16.1-0.5c-9.1-0.1-20.7,2.4-27.7,6.7c-2.7,0.4-5.4,0.8-8.1,1.2c-2.7,0.4-5.4,0.8-8.1,1.2
			c-4.2,0-9.1-0.3-12.7,1.2c-4.2,0.4-8.5,0.8-12.7,1.2c-14.5,0-27.8-0.8-41.7-2.3c-5.9-0.7-11.9-2.9-18.3-1.6
			c-4.6,0.9-9.6,5.7-11.7,6.2c-49.4-35.9-196.8,3.5-196.8,3.5L1401.4,145.1z M2419.5,99.3l0.9,9l-1.4-0.5
			c-6.4-1.7-14.3-3.2-23.1-4.3l1.3-4.2L2419.5,99.3z M2404.6,75.4l9.7-31.2l3,31.2L2404.6,75.4z M2123.9,436.5v1.1
			c-1.6,0-1.2,0.4-1.2-1.1c-3.7,0-6.3-4.1-9.4-5.4c-7.9-3.3-33.5-10.7-39.6-14.9c-6.4-4.2,1.8-8.2,2.8-11
			c20.7,0,34.9-17.5,50.9-27.8c2.2,1.1,4.7-0.9,4.7,4.9C2132.1,388.9,2127,432.9,2123.9,436.5z M2292,224.6
			c-14.5-8-14.1-27.2-29.3-34c-11.8-5.3-25,2.6-39.4-6.8c-4.7-0.4-6.1,2.3-5.5,4.4c2.9,9.7,37.1,4.9,45.8,11
			c8.9,6.2,9.8,17.9,13.9,26.9c3.6,5.7,10.9,4.3,7.3,44.4c-1,35.2-6.3,83.8-4.4,73c-1.1,7.8-1.3,13.9-4.6,20.4
			c-5.1,10.1-13.9,16.4-21.8,18.2c-3.8,0.4-7.3,0.2-10.4,0.2c-4.8,0.3-5.4,4.6-3.1,5.5c15.2,1.9,26.3-0.1,28.4,1.2
			c4.3,2.6,4.6,5,6.7,11.5c2.9,9.1,3.2,19.7,4.5,29.8c1.7,13.4,10.5,47.1,4.2,54.8c-4.6,5.4-10.2,5.8-20.6,8.9
			c-19.2,3.7-28,2-63.7,12.7c-9.8,1.6-30.5,8.8-41.5-1.5c-4.1-3.8-3.7-10.1-3.5-15.9c0.4-12.7,3-24.1,5-35.8
			c3.6-22.2,6-45.2,8.5-67.3c1.7-15.4-1-33.7,5.6-46.7c2.7-5.5,13.3-5.5,19-6.5c3.8,0,12.6-7.1,4.6-9.3c-6.6,0-15.9,0.1-19.8-5.1
			c-2.1-2.7-2-6.2-1.7-10c0.6-7.6,1.5-18.1,3.2-28.9c2.7-17.5,7.6-32.7-12.5-25.5c-9.9,2.6-36.2,6.9-48.4,0.9
			c-5.2-3.6-10.7-7.7-15.8-11.3l-23.9-14.5c-2.3-1.3-16.2-10.9-19.2-10.9c-3.1,0.9-5.5,2.3,10.8,14l11,9.7
			c19.2,21.7,40.4,42.9,37.3,75.8c-3.3,34.2-29,58.3-60,68.1c-31.4,7.8-88.4,15-93.6,35c3.2,3.2,4.9,1.1,13-4.1
			c6.7-4.3,17.2-5,26.2-3.5c26.7,4.3,40.5,28.5,63,40.4c15,7.9,34.3,6.2,36.6,10c3.1,6.4,1.3,9.3-1.3,13.8
			c-9.6,16.1-36,57-57.7,56.7c-14.8-0.3-12.7-12.4-20.8-12.6c-4.5,2.7-3.1,5.3-3.4,8.4c0.3,6.3,6.9,9.2,4.6,15
			c-2,2.2-8.4,1.7-13.5-0.1c-20.1-6.9-36.9-25.2-51.4-40.8c-32.6-34.8-62.5-76.8-59.6-128.5c0.5-8.7,2-16.8,6.5-23.4
			c7.6-11.3,24.6-20.3,37.3-23.4c20.4-4.9,48-5.1,57.6-26.8l1.7-8.8c3.5-22.1-19.4-26.3-27.5-42c-2.6-5.1-5.4-12.1-5.9-19.1
			c-0.4-5.5-0.8-10.6,0.6-12.4c5-6.5,5.9-10.7,3.8-12.3c-3.3-2.9-7.1,6.8-7.3,7.4c-4.4,11.2-2.7,28.8-13.1,36.7
			c-13.1,10.1-40.3,13.2-58.8,11.4c-6.2-1-12.4-2.1-18.6-3.1c0-0.1-19.2-1.2-16.7,3.8c2.3,3.9,11,2,13.2,2.1
			c31.9,1.5,18.2,38.1,17.5,58.9c-0.3,8.3,2,24.3-0.8,31.3c-1.3,3.2-5.4,1.7-8.6,2.2v1.2h-1.2c0,5.7,5.9,10.8,8.7,15.4l5.4,13.8
			c5.2,19.7,2.1,43,6.7,63c0.9,2.4,1.8,4.9,2.6,7.3c0.8,8.5,3.6,17.8,6.9,25.3c5.8,13.3,14.6,22.3,13.3,39.4
			c-0.8,9.9-8.1,10.7-14.7,15.1c-5.7,0-12.1,0.6-16.8-1.3c-7.2-2.8-9.1-14.3-14.4-27.6c-3.1-2.6-4.7-0.8-4.7,2.3
			c-0.1,8,1.4,18.6-2.2,24.8c-6.3,10.6-35.2,6.8-45.1,3.5c-8.8-3-14.2-11.2-16.9-19.5c-3.9-11.8-3.2-25.9-3.6-38.9
			c-0.8-23.3,0.4-46.3,0-69.4l-1.6-24.3l-0.1-25.4c-0.2-7.4-1.3-14.9,0.7-21.8c2.6-9,9-9.3,14.8-15c25.8-25.7,19.8-36.9,19.3-37.2
			c-1.7,0-2,0.5-2.8,1.6c-4,6.2-8,12.3-11.9,18.5c-3.2,4.2-4.4,7.2-10.7,9.9c-3.8,0.6-5.7,1.7-8.1-1.6c-6-8.2-5.2-25.6-6-36.6
			c-0.7-8.5-2.3-17.8-3.7-26.5c-1.6-9.7-4.4-20.5-6.8-30.1c-1.8-7.1-6.3-16.2-4.4-24.1c0.1-0.3,0.2-0.6,0.2-0.9
			c0.2-0.4,0.4-0.8,0.6-1.2c8.4-15.5,144.7-33.1,171.7-33.9c50-1.6,71.5,19,70.8,18.4c9.5,8.2,15.4,29.1,21.6,19.1
			c3.8-9.3-6.5-26.6,4.3-30.2c5.9-2,11.1,0.8,15.7,1.4l34.6,2.1c14.1-0.7,29.8-2.1,43-5.8c7.6-2.1,13.7-5.2,21.9-5.9
			c7.6-0.7,13.9,0,14.3,2.9c0.8,6.7-4.2,34.4-1.6,45.4c1.5,1.9,3.9,2.2,6.6,1c1.9-5.7-0.2-9,0.2-12.3c1.2-12.5,2.5-25.2,10.3-34.4
			c7-8.2,18.3-10.5,27.8-14c23.3-8.8,48.5-14.3,74.3-18c16.3-2.3,51.3-1,48.5-1.2c21.8,1.9,54.5,6.8,48.9,5.4
			c10.8,2.3,24.2,3.7,29.8,14.4c0,0,0,0,0,0v0v0c2.2,4.2,1.9,14.3,1.3,19.7c-2.7,22-9.6,72.5-17.1,80.2c-8.9,1.2-12.4-2-26.9-7.7
			c-11.4-3.6-22.9-7.3-34.8-9.5c-9.9-1.8-19.9-3.8-30-4.8C2310.3,229.4,2300.2,229.1,2292,224.6z M1949.1,283.4
			c4.3-1,8.5-2.1,12.8-3.1c2.9,1.5,5,2.9,7,5.8c1.5,0,1.2-0.4,1.2,1.2v0c-1.9,0-3.6,3.7-5.3,4.8c-3.2,1.5-6.5,3-9.7,4.5
			c-3.5,0.4-7,0.8-10.4,1.2c-4.1,0-8.5,0.5-11.6,2.3c-5.1,0-9.9-1.5-10.3-6.9C1921.8,281.5,1941,284.3,1949.1,283.4z M2342.4,442.8
			c-3.1,1.4-15.6,41.6-20.6,31.1c-3-6.5-2.8-26.6-4.8-41.7c-3.2-25.5-1.1-34.2-8.4-45.5c-14.7-7.7,3.9-18.1,3.9-18.5
			c0.4-7.3-0.3-9.5-0.2-11.6c0.9-19.3-2-101,10.6-97.2c18.7,4.3,71.7,19.6,80.4,37.3c3,6.1,0.5,14.9,1.8,21.7c-1.6,0-1.5,0.2-2.5,1
			l0,0c-6.5,5.1-13,10.4-18.8,16.9C2372.7,348.5,2345.9,441.2,2342.4,442.8z M2616.2,496.6c-3.5,1-10.3,2.6-12.8-2
			c-1.4-2.8,0.4-3.9,6.5-5.9c6.3-2,11.6-10.9,6.8-20.3c-4.8-3.7-11.2,17.5-14.3,17.2c-13.2,2.1-16.9-4.6-28.5-5.6
			c-7.8-0.9-12.6-1.3-22.3,3.1c-4.1,1.5-3.2,3.3-1.2,4.7c0,1.9,9.8-1.5,25-0.1c0.1,0.5,2.2,1.4-0.7,1.5c-9.2,0.6-18.3,1.8-27.4,3.5
			c-10.2,0-14.9,0.7-23.4-3.3c-1.7,0.1-4-0.5-4,4.2c2,9.8,34.1,8.9,43.6,7.8c5.3-0.6,13-3.9,18.7-4c12.2-0.4,35.8,8.4,29.9,25.4
			c-4.3,12.2-13.7,39.6-27.8,43.5c-10.9,3-36.8-12.4-48.4-16.1c-18.3-5.8-36.3-11.2-55.5-15.2l-38.5-6.6c-18.5-2.2-71-2.2-80.7-15.9
			c-3.1-4.4-3.5-12.1-2-17.5c1.7-6.2,5.7-10.7,8.5-16.5l13.6-30.2c6-15.6,12.3-31,16.5-47.3c5-19.4,10-41.1,24.3-55.8
			c5.2-5.4,12.6-5.1,20.1-4.2c0-6.5-8.5-10.5-8.2-19.6c0.1-4.4,1.8-7,2.8-10.7c2.1-8.1,4.3-16.4,5.9-24.2c2.9-14,5.2-28.9,8.8-42.6
			c0.5-4.6,1-9.2,1.5-13.9c2.4-14.4,3.7-29.8,4.9-45.2c0.4-4.5,0.7-9.1,1.1-13.7c1.2-5.4,0.4-9.9,8.7-11.3
			c11.2,2.4,14.2,3.5,21.9,5.9c21.4,6.5,26.9,6.3,26.3,37.6c-0.2,8.3-6.1,16.9-4.4,23.2c17.4,1.5,8.5-41.2,16.7-50
			c3-3.3,6.3-2.8,11-2.9c13.2-0.2,73.4,20,77.6,30.3c2.6,6.3,0.3,14.6-2.7,20.1c-14.4,25.9-35.9,48.1-51,73.6
			c-7.7,13.5-15.4,27-23.2,40.5c-2.3,3.6-4.5,7.2-6.8,10.8c-3.7,3.4-6.8,5.3-12.3,5c-6.9-0.4-13.8-6-17.9-11.3
			c-3.5-4.6-8.1-9.7-9-15.5c-2.1-12.4,10.6-35.7,15.9-46.3c2.1-4.2,2.8-5.3,5.3-9.2c12.7-21.9-0.5-27.3-2.2-23.9
			c-9.2,47-14.6,13.7-27.3,52.1c-2,6.1-2.8,14.5-2.6,21.6c0.1,7.1,3.6,15.2-0.9,20.8c-2.5,3-6.3,3.9-10.1,4.4
			c-0.7,0.1-1.5,0.2-2.2,0.3c-7.6,1.8,1.5,5.6,0.9,9.3c-0.7,4.2-3.9,6.4-5.6,8c0,1.6-15.7,13.5-17.9,19.4
			c-4.7,26.5,23-17.2,25.2-18.9c7.4-5.7,15.7-13.5,26.2-12.8c7.2,0.4,13.8,6,18.9,10.7c17.3,15.7-10.2,66.1-22.2,79.3
			c-9.9,10.8-28,21-30.3,35.7c-0.4,4,6.5,2.9,9.5-0.4c4.5-5,9.7-15.1,25.7-20.4c21.8-7.3,49.4-11.7,95-5.1c-1.2-0.2,3.4,0.7,8.9,2
			c5.9,1.3,14.1,2,17.7,6.7l0,0C2629.1,470,2625.3,494,2616.2,496.6z M2549.3,413.9l4.2-14.7c3-10.5,1.2-28.1,9.8-34
			c2.4-1.7,9.4-17.2,11.5-21.9c13.9-32,29.6-48.7,49.9-77.5c11.8-16.8,26.8-31.2,33.8-50.4c2.9-8,0-20.3-4.5-26.4
			c-3-4.1-7.3-8.4-6.8-13.9h45.1v1.2c1.9,0,1,1.9,0.9,3.4l0,0c-0.9,7-1.9,13.9-2.7,20.9c-0.2,6.7,0.3,13.2-0.6,19.6l-3.3,34.8
			c-2.9,19.1-5.5,38-9.8,56.5c-4.9,20.5-14.8,53.3-16.8,74.4c-0.4,3.7-4,4.5-6.3,6.5c-8.2,7.2-13.6,17.1-15.3,27.8L2549.3,413.9z
			 M2811.4,403.1c-8.7-0.8-22.8,7.7-18.7,23.1c0.3,1,0.5,6.4-2,12c-2.7,6.2,0.8,14.9-1.4,21c-8.4,24-15.5,25.6-21,35.8
			c-1.1,2,1.8,3.1,3.7,3.2c10.9-0.8,3.9-12.7,24.5-18.3c11.6-3.2,35.6,3.6,47.2,5.5c8,1.2,17,1,24.3,3.7c1.3,1.3,3.5,3,4.8,4.4
			c1.6,13.9-5.8,10.4-7.8,15.5c-1.1,4.3,1.2,4.3,3,4.6c4.3,0,6.4-2,11.6-4.6c3.1-1.9,6.2-4,8.1-4.6c5.2-1.7,11.2-4.3,17.3-4
			c9.9,0.5,42.1,9.5,48.6,15.7c3.6,3.5,3.8,9.5,3,14.8c-2.6,15.6-32.7,81.2-47.1,86.3c-13.9,4.9-25.6-12.3-35.1-19.6l-20.3-12.2
			c-6.4-3.4-12-7.2-18.7-10.1c-24.7-10.7-50.6-17.8-78.8-21.5l-27.5-0.8c18.5,0.6-65.8-1-65.7-0.6c-2.1,0-7.1-2.4-3.9-6.3
			c4.2-1.5,4.1-1.3,6.1-2c13.3-4.2,17.2-9,28.1-17.1c2.7-2,4.8-3.7,9-6.7c9.7-3.3-0.3-14.8-5.8-8c-10.9,12.9-49.8,32.1-51.5,23
			c-2.1-10.7,8.5-20,35.5-117.6c2-5,5-11.2,7.7-16c5.4-9.7,22.7,12.3,33.1,4.4c1.3-2-1-4.4-1.9-5.2c-3-1.7-5.8-1.8-8.7-3.5
			c-9.7-6.5-11-15.5-11-27.3c0-11.3,4.7-22.3,6.8-32.6c2.7-15,5.3-30.1,7.8-45.2c1.7-17.3,3.4-34.7,5.2-52
			c0.4-9.7,0.1-19.6,2.2-28.7c1.3-5.7,0.3-6.3,5-8.4c0.8,0.2,7.3-0.6,8.1-0.4c23.7,4.5,50.1,3.2,72.6,10.5c4.3,1.4,8.1,4.2,11.3,7.9
			c2.6,3.1,5,16.4,9.7,16.9c8.1,0.9,10.8-14.8,23.4-17.8c18-4.3,40.9,3.4,57.7,5.9c13.1,1.9,25.4,5.5,38.1,8.5
			c8.2,1.9,17.2,2.4,24.1,7.2c3.3,2.3,4.9,6.2,5.6,10.1l0,0c0.8,5.1-0.8,9.1-1.7,13.8c-3,12.4-6,24.7-9,37.1
			c-1.7,8.3-2.6,16.8-6.2,24.3c-1.7,3.5-5.3,7.3-8.9,9.1c-10.8,5.4-23.9-2.3-34.1-4.2c-18.1-3.4-34.9-7-52.1-11.5
			c-7.2-1.9-13.9-2.7-20-6.5c-10.2-6.4-17.3-30.2-20.3-31.6c-3.2-1.2-2.8,5.8-3,9.2c-0.5,11.1,0.2,54.8-7.9,57.5
			c-6.2,2-18.4,1.2-18.9,4.4c-3,0.7-1.9,9.3,0.1,9.1c4.9,0.9,15.1,0.3,18.1,0.3c11.4-0.2,62.2-3.5,67.1,6c2.7,5.4-4.6,16-3.2,22.5
			c6.3,9.8,10.8-14.2,19.9-19.6c6.8-4.1,52.6,3.7,58.4,8.2c9.5,7.5-16.2,62.6-21.7,71.3c-2.8,4.4-5.3,9-10.5,10
			c-26.6,0-50.6-8.2-75.3-12.3c-9.8-1.6-21.3-1.2-30.1-4.8c-7.4-3-13.9-7.6-15.9-15.7c-1.1-4.6-0.5-10.8,3.4-14.7
			c2.5-2.4,6.3-2.1,8.6-3.6C2818.3,407.5,2819.3,403.7,2811.4,403.1z M3240.2,698.2c-11.3,6.6-24,12.8-36.8,16.2
			c-7.6,2.1-15.3,4.2-23,6.3c-2.7,0.4-5.4,0.8-8.1,1.1c-14,0-41.3-5.2-36.2-24c2.4-8.9,8.6-12.8,9.8-22.4c-1.1,0-1.3-3.3-6.3-1
			c0,0-8.4,10.3-9.3,12.1c-3.9,7.4-5.7,17.5-13.2,22.8c-16.8,11.8-59.2,5.2-76.4-2.1c-6-2.6-11.8-5.4-17.1-9.4l-5.5-4.6
			c-3.7-1.7-7.5-3.4-11.3-5.1c-9.8-6-22.2-17.2-25.5-28.2c-3.7-12.3,8.6-20.5,12.6-30c0.4-1.1,7.1-5.6,2.6-7.4
			c-3.6-1.4-15.6,13.5-19.3,15.2c-13.9-1.2-22.5-38-13.6-49.6c5.2-6.8,30.8-27.8,38.4-28.4c5.3-0.5,7.7,3.3,9.9,7.4
			c1.8,3.4,8.1,10.6,0.7,26.6c15.4-0.1,7.4-23,8.1-19c-1.2-6.7-8-12.3-7.7-19.2c0.3-8.1,27.6-21,35.3-19.1c2,0.5,4.3,3.5,5.2,5.4
			c1,4.4,0.3,8.7,1.2,13.1c1.8,9.3,3.7,20.1,8.9,27.8c18.4,27.2,50.3,40.8,84.4,39.8c8.5-0.3,16.8-0.3,23.8-3.6
			c9.6-4.6,17.2-14.1,24.8-22.1h1.2c0,15.6-14.9,37.3-27.8,45.1c0,0.8-1,4.2-1,5c-0.6,0.1,7.3,7.2,19.5-12.2
			c5.5-5.9,11-11.9,16.5-17.8c10-16.4,4.5-42.3-3.3-57.5c-10.3-20.1-28.3-31.8-47.4-42.1c-7.9-4.2-15.9-8.4-23.8-12.5
			c-15.1-6-34.8-11.9-42.9-27.7c-6.4-12.6-1.7-28.2-5-42.7c-1.1-4.5-1.7-9.1-3.6-13.2c-3.9-8.1-8.7-14.1-10.3-23.6
			c-2-11.3,6.9-20,5.4-25.9c-1.4-0.8-2.1-2-4.7-0.6c-3,2.1-9.2,21.4-6.2,33.3c5.5,22.7,26.7,37.3,1.5,60.4c-10,1-14.9-5-21.3-8.6
			c-22.2-12.8-49.7-37.7-45.1-67.6c0.8-5.1,2-9.5,4.8-13.4c2.2-3.2,13.4-8.7,13.2-13.1c-0.2-3.2-3.5-3.7-9.9-2.8
			c-4.1,0.6-7-1.4-9.2-4.8c-10.6-15.9,15-53.9,25.7-66c16.9-19.2,52.5-46.9,80-37.4c6.3,2.2,10.3,7.2,10.1,14.6
			c-0.3,7.1-3.9,13.9-8.8,18.6v3.5c0.2,2.7,2.5,1.8,4,2.2c6.5,3.3,15-19.8,22.5-37c3.3-3.3,4.2-4.4,11.9-6.2
			c20.8,1.3,41.3,5.2,60.9,9.6c19.1,4.2,68.5,27.5,78.4,44.5c2.4,4.2,2.5,9.7,1.2,14.6c-3.5,13.7-28.2,58.3-44.6,58.9
			c-6.9,0.2-26-11.2-32.7-14.4c-19.4-9.5-43.5-17.2-68-15.2c-18,1.4-40.3,19.2-22.4,37.1c12.5,12.5,40.7,19.2,47.2,21.9l15.9,5.3
			c3.5,1.8,7,3.6,10.6,5.4c17.4,6.4,34.4,13.7,51.1,21.8c7,3.4,13.5,6.1,19.8,10.9c3.6,2.8,6.1,7.4,7,11.9
			c3.8,19-24.7,19.6-24.9,28.9c2.2,4.5,5.5,1.9,10.6,0.2c8.1-3,15.7-7.5,25.4-7.1c11.1,0.4,23.8,22.8,28.4,31.5
			c6.9,13,10.2,27.7,11.5,43.7l0,0C3322.6,616.4,3288.4,670.3,3240.2,698.2z M3149.3,584.7v1.2h-8.1c0,1.9-6.4,0.1-8.1-0.2
			c-10.1-1.8-20.5-6.5-27.9-13.6c-11.8-11.4-22.7-33.8-5.6-45.2c4.2,2.1,21.2,9.7,23.2,12.7c5.5,0,11,5,15.4,7.5
			c6.9,3.8,14.7,7.5,20.5,13.3C3169.5,571.1,3160.8,581.1,3149.3,584.7L3149.3,584.7z"/>
	</g>
	<g>
		<g>
			<polygon class="st0" points="1726.2,-9 1697.2,-9 1712.1,44.8 1670,-9.5 1628.8,-9.1 1675,118.3 1707,118.4 1682.3,50.4 
				1730.9,113 1731.1,113.9 1731.5,113.8 1734.9,118.3 1734.9,118.3 1761.9,118.2 			"/>
			<polygon class="st0" points="1435.9,16.6 1419.1,-9.5 1323.4,-9.5 1340.3,16.6 1362.5,16.6 1421.8,118.3 1421.8,118.3 
				1458.2,118.3 1401.1,16.6 			"/>
			<polygon class="st0" points="1611.5,93.3 1597.3,61.2 1634.1,61.2 1625.8,38.3 1587.2,38.3 1577.7,16.6 1620.2,16.6 1609.4,-9.5 
				1531.2,-9.5 1588.2,118.3 1662.6,118.3 1651.6,93.3 			"/>
			<path class="st0" d="M1920.6,56.1l8.9,38.8c-7.5,0.1-15.6-2.1-23.2-6.8c-17.4-13.2-23.9-36.9-14.5-54.3c3.3-6,15.9-23.6,43.3-7.7
				l-9.6-30.7c-36.8-11.3-56.6,12.9-61.8,21.7c-17.9,30.2-5.5,71.4,27.5,94.3l0,0c25.3,14.1,72.8,5.1,72.9,5.1l-13.8-59.8
				L1920.6,56.1z"/>
			<polygon class="st0" points="1520.3,93.3 1504.4,61.2 1541.4,61.2 1531.8,38.3 1493.1,38.3 1482.3,16.6 1525.1,16.6 1512.8,-9.5 
				1434.3,-9.5 1498.3,118.3 1498.3,118.3 1572.9,118.3 1560.6,93.3 			"/>
			<polygon class="st0" points="2522.6,46.4 2503,-9.6 2472,-9.5 2458,118.3 2487.1,118.3 2493,64.3 2511.8,118 2538.7,118.3 
				2538.7,118.3 2558,-9.7 2531,-9.5 			"/>
			<path class="st0" d="M3021-9.5h-33.4l-39.9,88c0,0-17,26.6-32.5-5.3l-13.3,29.4c0,0,34.4,33.4,65.6,0c2.1-2.3,5.3-6.8,5.3-6.8
				L3021-9.5z"/>
			<polygon class="st0" points="2899.2,-9.5 2879,51.2 2869.9,-9.5 2839.8,-9.5 2797.2,118.3 2829.9,118.3 2849.2,60.2 
				2856.8,118.3 2889.3,118.3 2931.7,-9.5 			"/>
			<polygon class="st0" points="2006.2,93.3 2000.7,61.2 2036.3,61.2 2034.1,38.3 1996.8,38.3 1993.1,16.6 2034.2,16.6 2030.4,-9.5 
				1954.8,-9.5 1977.4,118.3 2049.2,118.3 2045,93.3 			"/>
			<polygon class="st0" points="2135,44 2113.4,-9.4 2078.7,-9.5 2078.7,118.3 2110.8,118.3 2110.8,63.3 2134.6,118.3 2157.7,63.3 
				2157.7,118.3 2189.8,118.3 2189.8,-9.5 2155.6,-9.5 			"/>
			<polygon class="st0" points="2563.2,16.6 2583.8,16.6 2565.8,118 2595.9,118.9 2614.1,16.6 2639.2,16.6 2639.2,16.6 2643.2,-9.5 
				2567.1,-9.5 			"/>
			<polygon class="st0" points="2787.9,-9.5 2749.2,118.3 2778.9,118.3 2817.6,-9.5 			"/>
			<polygon class="st0" points="2743.7,-9.5 2726.6,46.4 2714.2,-9.6 2681.4,-9.5 2647.6,118.3 2678.4,118.3 2692.7,64.3 
				2704.6,118.1 2704.6,118.1 2733,118.3 2772.3,-9.7 			"/>
		</g>
	</g>
</g>
</svg>
