<?xml version="1.0" encoding="utf-8"?>
<!-- Generator: Adobe Illustrator 19.0.0, SVG Export Plug-In . SVG Version: 6.00 Build 0)  -->
<svg version="1.1"
	 id="Layer_1" xmlns:rdf="http://www.w3.org/1999/02/22-rdf-syntax-ns#" xmlns:cc="http://creativecommons.org/ns#" xmlns:dc="http://purl.org/dc/elements/1.1/"
	 xmlns="http://www.w3.org/2000/svg" xmlns:xlink="http://www.w3.org/1999/xlink" x="0px" y="0px" viewBox="-144 382.1 314.9 55.2"
	 style="enable-background:new -144 382.1 314.9 55.2;" xml:space="preserve">
<style type="text/css">
	.st0{fill:#FFFFFF;}
</style>
<title>Microsoft Train Simulator logo</title>
<g transform="translate(-178 -470)">
	<g transform="matrix(.989 0 0 .987 4.41 6.06)">
		<g transform="matrix(.938 0 -.12 1.07 0 0)">
			<path class="st0" d="M140.9,852.7l9.3-43.8h-5.8l1.1-5.4h22l-1.1,5.4h-5.8l-9.4,43.8h-0.6H140.9z"/>
			<path class="st0" d="M169.9,852.7h-8.4l8.4-39.3h9l-0.4,1.4c1.7-1,3.1-1.6,4.2-1.9c1.1-0.2,2-0.4,2.7-0.4h0.6
				c1.4,0,2.3,0.3,2.7,1c0.4,0.7,0.7,1.5,0.7,2.4c0,0.2,0,0.3,0,0.5c0,0.2,0,0.4,0,0.5c0,0.4-0.1,0.7-0.2,1c-0.1,0.4-0.2,0.7-0.2,1
				l-1.8,8.2h-8.9l1.6-7.8c0-0.1,0-0.2,0-0.2c0-0.1,0-0.2,0-0.2c0-0.2-0.1-0.4-0.2-0.5c-0.1-0.2-0.3-0.3-0.6-0.4
				c-0.4,0.1-0.8,0.2-1,0.5c-0.3,0.3-0.4,0.5-0.5,0.8l-7.1,33.2L169.9,852.7L169.9,852.7z"/>
			<path class="st0" d="M191.9,825.7l1.5-6.8c0.4-1.8,0.9-3.1,1.8-4c0.8-0.9,1.7-1.5,2.6-1.9c0.7-0.3,1.5-0.4,2.2-0.5
				c0.7-0.1,1.3-0.1,1.8-0.1h7.8c1.4,0,2.4,0.4,3.2,1.1c0.8,0.7,1.1,1.8,1.1,3.3c0,0.3,0,0.6-0.1,0.9c0,0.4-0.1,0.7-0.2,1l-7.2,33.8
				h-8.9l0.3-1.5c-0.2,0.1-0.3,0.2-0.5,0.4s-0.4,0.3-0.6,0.4c-0.6,0.4-1.4,0.7-2.2,1c-0.9,0.3-1.8,0.5-2.8,0.5l-0.6,0.1
				c-1.5,0-2.5-0.4-3-1.1c-0.5-0.7-0.9-1.5-0.9-2.3v-0.3v-0.3c0-0.4,0.1-0.7,0.1-1c0-0.3,0.1-0.6,0.1-0.9c0-0.1,0-0.2,0.1-0.4
				c0-0.1,0.1-0.2,0.1-0.3l2.1-10c0.3-1.4,0.9-2.5,2-3.3c1.1-0.8,2.5-1.6,4.1-2.3c0.3-0.1,0.6-0.2,0.9-0.4s0.6-0.3,0.9-0.4
				c0.2-0.1,0.4-0.2,0.5-0.2c0.2-0.1,0.3-0.1,0.5-0.2c1.1-0.5,2.1-1.1,3-1.7c0.8-0.6,1.4-1.7,1.7-3.1l1.3-6.4v-0.3
				c0-0.3-0.1-0.5-0.3-0.7c-0.2-0.2-0.4-0.3-0.6-0.3c-0.1,0-0.2,0-0.3,0.1c-0.1,0-0.2,0.1-0.3,0.1c-0.2,0.1-0.3,0.3-0.4,0.4
				c-0.1,0.2-0.2,0.4-0.3,0.7l-1.5,6.8L191.9,825.7L191.9,825.7z M201.7,832.6c-1.1,0.4-1.9,0.9-2.2,1.4c-0.3,0.5-0.6,1.1-0.7,1.7
				c0,0,0,0.1,0,0.1c0,0.1,0,0.1,0,0.1l-2.2,10.4l-0.1,0.3c0,0.3,0.1,0.5,0.3,0.7s0.4,0.3,0.6,0.4c0.4,0,0.6-0.2,0.9-0.4
				c0.2-0.2,0.4-0.5,0.5-0.8c0,0,0-0.1,0-0.1c0,0,0,0,0-0.1L201.7,832.6L201.7,832.6z"/>
			<path class="st0" d="M210.9,852.7l8.4-39.3h9l-8.4,39.3h-0.6H210.9z M220,810.3l1.8-8.3h9l-1.8,8.3h-0.6H220z"/>
			<path class="st0" d="M224.9,852.7l8.4-39.3h9l-0.3,1.4c0.2-0.1,0.4-0.2,0.6-0.4c0.2-0.1,0.5-0.2,0.7-0.4c0.5-0.3,1.1-0.5,1.8-0.8
				c0.7-0.2,1.3-0.4,2-0.5c0.3-0.1,0.5-0.1,0.8-0.1c0.3,0,0.5,0,0.7,0h0.6c1.4,0,2.3,0.3,2.8,1c0.5,0.7,0.7,1.5,0.7,2.4
				c0,0.2,0,0.4,0,0.6c0,0.2,0,0.4-0.1,0.6c0,0.2,0,0.4-0.1,0.6c0,0.2-0.1,0.4-0.1,0.6c0,0.1-0.1,0.2-0.1,0.3c0,0.1,0,0.2,0,0.3
				l-7.1,33.6h-9l7.1-33.3v-0.2c0-0.2-0.1-0.5-0.2-0.7c-0.1-0.2-0.3-0.3-0.6-0.4c-0.4,0-0.7,0.2-0.9,0.4c-0.3,0.2-0.4,0.5-0.5,0.9
				l-7.1,33.3L224.9,852.7L224.9,852.7z"/>
		</g>
		<g transform="matrix(.936 0 -.115 1.07 0 0)">
			<path class="st0" d="M259.9,834.7h9.8l-2.3,10.7v0.3c0,0.3,0.1,0.5,0.3,0.7c0.2,0.2,0.4,0.3,0.7,0.4c0.1,0,0.2,0,0.3,0
				c0.1,0,0.2,0,0.3-0.1c0.2-0.1,0.4-0.2,0.6-0.4s0.3-0.5,0.4-0.8l2-9.5c0.1-0.2,0.1-0.4,0.1-0.6c0-0.2,0-0.3,0-0.5
				c0-0.4-0.1-0.8-0.2-1c-0.2-0.2-0.4-0.4-0.6-0.6c-0.2-0.2-0.3-0.3-0.5-0.4s-0.4-0.3-0.6-0.5l-5.6-5.5c-0.8-0.8-1.4-1.5-1.7-2.1
				c-0.3-0.6-0.4-1.2-0.4-1.7c0-0.4,0-0.8,0.1-1.3c0.1-0.4,0.2-0.9,0.3-1.4l2.2-10.5c0.1-0.4,0.2-0.7,0.2-1.1
				c0.1-0.4,0.2-0.8,0.3-1.2c0.4-1.5,1.2-2.9,2.3-4.2c1.1-1.3,3.1-1.9,5.9-1.9h8.3c2.5,0,4.2,0.5,5,1.4c0.9,0.9,1.3,2,1.3,3.1
				c0,0,0,0.1,0,0.1c0,0.1,0,0.1,0,0.1c0,0.4,0,0.8-0.1,1.3c-0.1,0.4-0.2,0.8-0.2,1.2c0,0.2-0.1,0.4-0.1,0.6c0,0.2-0.1,0.3-0.1,0.5
				l-1.6,7.6H276l2-9.2v-0.3c0-0.3-0.1-0.5-0.3-0.7c-0.2-0.2-0.4-0.3-0.7-0.4c-0.4,0-0.7,0.2-1,0.4c-0.3,0.2-0.5,0.5-0.6,0.9
				l-1.8,8.2c-0.1,0.3-0.1,0.7-0.2,1c0,0.3-0.1,0.6-0.1,0.8c0,0.3,0,0.5,0.1,0.8c0.1,0.2,0.2,0.4,0.3,0.6c0.1,0.2,0.3,0.4,0.4,0.6
				c0.2,0.2,0.4,0.4,0.6,0.6l5.8,5.8c0.2,0.2,0.4,0.4,0.6,0.6c0.2,0.2,0.4,0.4,0.5,0.5c0.4,0.5,0.8,1,1,1.5c0.3,0.5,0.4,1.1,0.3,1.9
				c0,0.2,0,0.5,0,0.8c0,0.3-0.1,0.6-0.1,0.9l-2.5,11.4c0,0,0,0.1,0,0.1c0,0,0,0.1,0,0.1c-0.1,0.3-0.2,0.7-0.2,1.1
				c-0.1,0.4-0.2,0.8-0.4,1.3c-0.4,1.4-1.3,2.6-2.5,3.7s-3.4,1.7-6.6,1.7l-0.6,0.1h-7.4c-2.2,0-3.7-0.5-4.5-1.4
				c-0.8-0.9-1.3-1.9-1.4-3c0-0.1-0.1-0.3-0.1-0.4v-0.4c0-0.4,0-0.8,0.1-1.1c0-0.3,0.1-0.7,0.2-1c0-0.2,0-0.3,0.1-0.4
				s0.1-0.2,0.1-0.3l2-9.3L259.9,834.7L259.9,834.7z"/>
			<path class="st0" d="M284.9,851.7l8.3-39.2h8.9l-8.3,39.2h-0.6H284.9z M293.9,809.4l1.8-8.3h8.9l-1.8,8.3h-0.6H293.9z"/>
			<path class="st0" d="M298.9,851.7l8.3-39.2h8.9l-0.2,1.3c0.7-0.5,1.5-0.9,2.4-1.3c0.9-0.4,1.9-0.7,2.8-0.8c0.2,0,0.3,0,0.5,0
				c0.2,0,0.3,0,0.5,0h0.6c0.2,0,0.5,0,0.7,0.1c0.2,0,0.5,0.1,0.8,0.2c0.4,0.2,0.8,0.4,1.1,0.7c0.4,0.3,0.7,0.8,1,1.4
				c1.7-1.1,3.1-1.8,4.3-2c1.2-0.2,2.1-0.3,2.8-0.3h0.6c1.5,0,2.5,0.4,2.9,1.3c0.5,0.8,0.7,1.8,0.7,2.8c0,0.1,0,0.2,0,0.3
				c0,0.1,0,0.2,0,0.3c0,0.4-0.1,0.9-0.1,1.3c-0.1,0.4-0.1,0.8-0.2,1.2l-7,33h-8.9l7-33.1v-0.3c0-0.2-0.1-0.5-0.2-0.7
				c-0.1-0.2-0.3-0.3-0.6-0.4c-0.3,0-0.5,0.1-0.7,0.3s-0.4,0.3-0.5,0.4c-0.1,0.1-0.1,0.2-0.2,0.4c-0.1,0.1-0.1,0.2-0.1,0.3
				l-7.1,33.1h-8.9l7-33.2l0.1-0.4c0-0.2-0.1-0.4-0.2-0.6c-0.1-0.2-0.3-0.3-0.6-0.3c0,0-0.1,0-0.1,0c0,0,0,0-0.1,0
				c-0.3,0.1-0.6,0.2-0.8,0.4c-0.3,0.2-0.4,0.5-0.5,0.8l-7.1,33.2L298.9,851.7L298.9,851.7z"/>
			<path class="st0" d="M354.9,812.7h8.3l-8.3,39.2H346l0.2-1.2c-0.9,0.6-2,1.1-3.1,1.4c-1.1,0.4-2.3,0.6-3.5,0.6l-0.6,0.1
				c-1.4,0-2.4-0.4-2.8-1.2c-0.4-0.7-0.7-1.6-0.7-2.5c0-0.4,0-0.9,0.1-1.3c0.1-0.4,0.1-0.8,0.2-1.2c0-0.1,0.1-0.2,0.1-0.2
				c0-0.1,0-0.2,0-0.2l7.1-33.4h8.9l-7,33.1l-0.1,0.4c0,0.3,0.1,0.5,0.2,0.6c0.1,0.2,0.3,0.3,0.6,0.4c0.3-0.1,0.6-0.2,0.8-0.4
				s0.4-0.3,0.5-0.5c0.1-0.1,0.1-0.2,0.2-0.2c0-0.1,0.1-0.2,0.1-0.2l7-33.1L354.9,812.7L354.9,812.7z"/>
			<path class="st0" d="M359.9,851.7l10.4-49h8.9l-10.4,49h-0.6H359.9z"/>
			<path class="st0" d="M379.9,824.7l1.5-6.8c0.4-1.8,0.9-3.1,1.8-3.9c0.8-0.9,1.7-1.5,2.6-1.9c0.7-0.3,1.5-0.4,2.2-0.5
				c0.7-0.1,1.3-0.1,1.8-0.1h7.8c1.4,0,2.4,0.4,3.2,1.1c0.8,0.7,1.1,1.8,1.1,3.3c0,0.3,0,0.6-0.1,0.9c0,0.3-0.1,0.7-0.2,1l-7.2,33.7
				h-8.9l0.3-1.5c-0.2,0.1-0.3,0.2-0.5,0.4c-0.2,0.1-0.4,0.3-0.6,0.4c-0.6,0.4-1.4,0.7-2.2,1c-0.9,0.3-1.8,0.5-2.8,0.5l-0.6,0.1
				c-1.5,0-2.5-0.4-3-1.1c-0.5-0.7-0.9-1.5-0.9-2.3v-0.3v-0.3c0-0.3,0.1-0.7,0.1-1c0-0.3,0.1-0.6,0.1-0.9c0-0.1,0-0.2,0.1-0.4
				s0.1-0.2,0.1-0.3l2.1-9.9c0.3-1.4,0.9-2.5,2-3.3c1.1-0.8,2.4-1.6,4.1-2.3c0.3-0.1,0.6-0.2,0.9-0.4s0.6-0.3,0.9-0.4
				c0.2-0.1,0.4-0.2,0.5-0.2c0.2-0.1,0.3-0.1,0.5-0.2c1.1-0.5,2.1-1.1,3-1.7c0.8-0.6,1.4-1.7,1.7-3.1l1.3-6.4v-0.3
				c0-0.3-0.1-0.5-0.3-0.7c-0.2-0.2-0.4-0.3-0.6-0.3c-0.1,0-0.2,0-0.3,0.1c-0.1,0-0.2,0.1-0.3,0.1c-0.2,0.1-0.3,0.3-0.4,0.4
				c-0.1,0.2-0.2,0.4-0.3,0.7l-1.5,6.8L379.9,824.7L379.9,824.7z M389.6,831.5c-1.1,0.4-1.9,0.9-2.2,1.4c-0.3,0.5-0.6,1.1-0.7,1.7
				c0,0,0,0.1,0,0.1c0,0.1,0,0.1,0,0.1l-2.2,10.3l-0.1,0.3c0,0.3,0.1,0.5,0.3,0.7c0.2,0.2,0.4,0.3,0.6,0.3c0.4,0,0.6-0.2,0.9-0.4
				c0.2-0.2,0.4-0.5,0.5-0.8c0,0,0-0.1,0-0.1c0,0,0,0,0-0.1L389.6,831.5L389.6,831.5z"/>
			<path class="st0" d="M405.9,817.7l1.1-5.1h3.3l2-9.7h8.9l-2.1,9.7h4.1l-1,5.1h-4.1l-5.5,25.8c0,0.2-0.1,0.3-0.1,0.5
				c0,0.2,0,0.3,0,0.5c0,0.7,0.3,1.3,0.7,1.6c0.4,0.4,1,0.6,1.5,0.6c0.1,0,0.1,0,0.2,0c0.1,0,0.1,0,0.1,0c0.1,0,0.1,0,0.2,0
				c0.1,0,0.1,0,0.1,0h0.6l-1.2,6h-6.1c-2.1,0-3.5-0.4-4.3-1.2c-0.8-0.7-1.3-1.6-1.4-2.5c0-0.2,0-0.3,0-0.5c0-0.2,0-0.3,0-0.5
				c0-0.3,0-0.7,0.1-1c0-0.3,0.1-0.6,0.1-0.8c0-0.1,0.1-0.2,0.1-0.2c0-0.1,0-0.1,0-0.2l6-27.9L405.9,817.7L405.9,817.7z"/>
			<path class="st0" d="M420.9,845.7l5.7-26.8c0.4-1.9,1-3.3,1.9-4.3c0.9-1,1.8-1.7,2.7-2.1c0.7-0.3,1.4-0.5,2.1-0.6
				c0.7-0.1,1.3-0.1,1.7-0.1h6.3c1.9,0,3.3,0.4,4.1,1.2c0.8,0.8,1.3,1.6,1.4,2.5c0,0.2,0.1,0.5,0.1,0.7c0,0.2,0,0.4,0,0.6
				c0,0.3,0,0.5,0,0.8c0,0.3,0,0.5-0.1,0.7c0,0.2-0.1,0.3-0.1,0.4c0,0.1,0,0.2,0,0.3l-5.7,26.8c-0.4,1.9-1,3.3-1.9,4.2
				c-0.9,1-1.8,1.6-2.7,2c-0.7,0.3-1.4,0.5-2.1,0.6c-0.7,0.1-1.3,0.1-1.8,0.1l-0.6,0.1h-5.7c-1.9,0-3.3-0.4-4.1-1.1
				c-0.8-0.7-1.3-1.5-1.5-2.4c0-0.2-0.1-0.5-0.1-0.7c0-0.2,0-0.4,0-0.6c0-0.3,0-0.5,0-0.8c0-0.2,0-0.4,0.1-0.6
				c0-0.1,0.1-0.2,0.1-0.4C420.9,845.9,420.9,845.8,420.9,845.7L420.9,845.7z M435.7,818.3l-5.9,27.9l-0.1,0.3
				c0,0.3,0.1,0.5,0.3,0.7s0.3,0.3,0.6,0.4c0.3-0.1,0.7-0.3,1-0.5c0.3-0.3,0.5-0.5,0.5-0.8l5.9-27.9v-0.2c0-0.3-0.1-0.5-0.2-0.7
				c-0.1-0.2-0.4-0.3-0.7-0.4c-0.3,0.1-0.6,0.2-0.8,0.4c-0.2,0.2-0.4,0.4-0.5,0.6c0,0.1-0.1,0.1-0.1,0.2
				C435.7,818.2,435.7,818.3,435.7,818.3L435.7,818.3z"/>
			<path class="st0" d="M452.9,851.7h-8.3l8.3-39.2h8.9l-0.4,1.4c1.7-1,3.1-1.6,4.2-1.9c1.1-0.2,2-0.4,2.7-0.4h0.6
				c1.4,0,2.3,0.3,2.7,1c0.4,0.7,0.7,1.5,0.7,2.4c0,0.2,0,0.3,0,0.5c0,0.2,0,0.4,0,0.5c0,0.3-0.1,0.7-0.2,1c-0.1,0.3-0.2,0.7-0.2,1
				l-1.8,8.2h-8.9l1.6-7.8c0-0.1,0-0.2,0-0.2c0-0.1,0-0.2,0-0.2c0-0.2-0.1-0.4-0.2-0.5c-0.1-0.2-0.3-0.3-0.6-0.4
				c-0.4,0.1-0.8,0.2-1,0.5c-0.3,0.3-0.4,0.5-0.5,0.8l-7.1,33.1L452.9,851.7L452.9,851.7z"/>
		</g>
	</g>
</g>
</svg>
