<?xml version="1.0" encoding="utf-8"?>
<!-- Generator: Adobe Illustrator 19.0.0, SVG Export Plug-In . SVG Version: 6.00 Build 0)  -->
<svg version="1.1" id="Layer_1" xmlns="http://www.w3.org/2000/svg" xmlns:xlink="http://www.w3.org/1999/xlink" x="0px" y="0px"
	 viewBox="-84.9 327.6 404.6 138.2" style="enable-background:new -84.9 327.6 404.6 138.2;" xml:space="preserve">
<style type="text/css">
	.st0{fill:#FFFFFF;}
</style>
<title>Valkyria Chronicles logo (International)</title>
<g transform="translate(34.13657 459.4094)">
	<g transform="matrix(.4185671 0 0 .4185671 -19.84812 -267.1157)">
		<g transform="matrix(.5721441 0 0 .5880767 -12.30965 -432.6555)">
			<g transform="translate(-15.207,-17.095)">
				<path class="st0" d="M-343.4,1302.5l-6.8,1.2c-14.1,2.4-25.7,9.1-27,15.4c2.4,2.9,4.4,6,6.3,9.2c9.1,5.9,28.6,18.1,32.1,19.9
					c2.6,1.3,3.2,2.5,4.3,7.7c0.9,4.5,2.7,8.2,6.7,14.1c8.2,12.1,8.5,12.8,8.5,22.8c0,7.2,0.7,11.6,3.9,23.3
					c2.1,7.9,4.2,15.9,4.6,17.7s2.5,7.7,4.6,13c2.2,5.3,4.4,11.7,4.9,14.2c0.5,2.5,1.8,8.5,2.9,13.4c1.1,4.9,2,10,2,11.4
					c0,1.3,1.5,6.3,3.4,11.1c1.9,4.7,5,13.1,7,18.6c2,5.5,4.7,12.5,6,15.5c2,4.6,3.3,10.9,5.1,24.7c0.3,2.4,3.3,7.1,5.9,9.2
					c1,0.8,1.6,3,1.6,5.9c0,3.4,0.3,4.1,0.9,2.6c1.3-3.3,0.1-7.9-3-11.5c-3.3-3.8-3.4-4.1-5-16c-1.6-11.6-1.5-11.3-2.4-13.3
					c-0.4-1-0.5-2.4-0.2-3.3s0.1-1.5-0.4-1.5c-0.6,0-1.7-1.7-2.5-3.8c-0.8-2.1-1.9-4.5-2.4-5.5c-0.5-1-1-2.9-1-4.3
					c0-1.4-0.4-2.5-1-2.5c-0.5,0-1.3-1.7-1.6-3.8c-0.4-2.1-1.2-4.4-1.8-5.2c-0.8-1.1-0.8-1.5,0.1-1.8c0.7-0.2,1.3-0.9,1.3-1.4
					c0-0.5-0.4-0.7-1-0.4c-1.3,0.8-2.9-2.4-5.1-10.1c-1.1-3.7-1.4-6.6-0.9-6.9c0.5-0.3,0.2-1.3-0.7-2.2c-1.5-1.5-1.5-1.7,0-2.8
					c1.5-1.1,1.4-1.4-0.4-3.7c-1.1-1.4-2.2-3.8-2.4-5.4c-0.2-1.6-0.7-3.7-1.2-4.8s-0.8-3.5-0.8-5.3s-0.4-3.3-0.9-3.3s-0.7-0.9-0.4-2
					c0.3-1.3,0-2-0.9-2c-0.8,0-1.5-0.4-1.5-1c-0.1-0.5-0.2-1.4-0.3-1.9c-0.1-0.5-0.5-1.3-0.9-1.7c-1.4-1.4-0.8-2.4,1-1.7
					c1.5,0.6,1.6,0.4,0.4-1c-0.7-0.9-1.8-1.4-2.3-1.1c-0.5,0.3-0.9,0.3-0.9,0.1c0-0.3-0.3-1.2-0.6-2.1c-0.4-1-0.1-1.6,1-1.6
					c0.9,0,1.6-0.5,1.6-1.1c0-0.6-0.8-0.8-1.9-0.5c-1.5,0.5-2,0-2.4-2.2c-0.3-1.5-0.9-3.6-1.3-4.6c-0.4-1-0.3-1.7,0.3-1.5
					c0.6,0.2,1-0.2,1-0.7s-0.3-0.9-0.8-0.8c-0.4,0.1-1.3-1.7-2-4c-0.7-2.3-1.7-5.5-2.1-7.1c-0.5-1.6-0.6-3.3-0.3-3.8
					c0.3-0.5,0.1-1.5-0.6-2.3c-0.8-0.9-0.8-1.6-0.1-2c0.6-0.4,0.3-1.4-0.9-2.7c-2-2.1-3.2-10.3-1.8-11.7c0.4-0.4,0.3-3.2-0.3-6.2
					c-0.6-3-1.2-6.3-1.3-7.3s-0.6-2.1-1.1-2.5c-2.5-1.8-7.3-10.3-6.7-11.8c0.4-1,0.2-1.4-0.4-1c-0.6,0.3-2-0.7-3.2-2.3
					c-1.5-2-1.8-3.1-1-3.6c0.8-0.5,0.6-1-0.5-1.6c-0.9-0.5-1.6-2.2-1.6-3.9c0-1.9-0.9-3.9-2.5-5.5c-1.4-1.4-2.5-3.2-2.5-4.1
					c0-1.2-0.3-1.3-1.3-0.5c-1,0.8-2.8,0.1-7.3-2.7c-3.3-2.1-6.4-4-7-4.2c-3.4-1.4-8.4-5.6-7.9-6.7c0.3-0.7,0-1-0.6-0.7
					c-1.5,0.9-7-2-10.3-5.5c-2.1-2.3-2.6-3.6-2.1-5.3c1-3.2,7.1-8.5,10.8-9.3c1.7-0.4,3.7-1.1,4.3-1.6c0.7-0.5,4.4-1.2,8.3-1.4
					c6.8-0.4,7.2-0.3,10,2.6c1.6,1.7,3,3.8,3,4.7c0,1.1-1.3,0.1-3.6-2.5c-2.7-3.2-4-4-5.3-3.3c-0.9,0.5-4.6,1.9-8.1,3.1
					c-7.3,2.6-16.3,7.3-16.8,8.9c-0.2,0.6,1.5,2,3.7,3.1c3,1.5,3.9,2.5,3.4,3.7c-0.5,1.3-0.2,1.5,1.2,1c2.3-0.9,6.5,1.8,6.5,4.1
					c0,1.1,0.3,1.3,0.8,0.5c1-1.6,12.2,5.2,12.3,7.5c0,1,0.3,1.2,0.6,0.4c0.4-0.9,1.9-0.5,5.5,1.3c7.1,3.6,8.7,5.5,8.3,9.8
					c-0.2,2,0.1,3.6,0.6,3.6c0.5,0,0.9,0.6,0.9,1.3c0,1.1,3.6,7.3,8.8,15.2c4.6,6.9,6.3,12.4,6.2,19.6c-0.1,6.8,3.2,23.8,6,31.3
					c0.5,1.4,0.8,2.5,0.6,2.5s1.6,5.7,4,12.6c2.4,6.9,4.2,13,3.9,13.4c-0.3,0.4,0.2,1,1,1.3s1.5,1.3,1.5,2.2s-0.5,1.3-1,1
					c-0.6-0.3-1-0.1-1,0.4c0,0.6,0.6,1.1,1.3,1.1c1.4,0,6,20.3,7.1,31.2c0.1,0.9,0.6,2.3,1.2,3c0.6,0.7,2.3,4.9,3.9,9.3
					c1.6,4.4,5.2,14.1,8.2,21.5c4.3,10.7,5.6,15.4,6.5,23.2c1.1,9.1,1.4,10.1,5,14.4c3,3.6,3.7,5.3,3.3,7.3
					c-0.3,1.4-0.6,6.4-0.7,11.1c-0.2,8.1,0,9,4.1,18c9.6,21.3,12.4,29.2,12.9,37c0.1,2.2,0.4,4.3,0.7,5.8c1.1,0.3,2.1,1.6,2.1,3.9
					c0,0.7,0,1.4,0,2.1c0,0.7,0,1.3,0,2c0,0.1,0,0.2,0,0.3c0.1,0.2,0.2,0.5,0.3,0.8c0,0.1,0,0.1,0,0.2c0,0,0,0,0,0
					c0,0.1,0,0.1,0,0.2c0.1,0.3,0.3,0.5,0.3,0.8c0,0,0,0.1,0.1,0.2c0.2,0.4,0.3,0.8,0.5,1.2c-0.4-0.6,0.4,1.4,0.3,1.8
					c0.1,0.7,0.1,0.6,0.1,1.4c0.1,0.4,0.4,1.1,0.1,0.3c0.1,0.3,0.2,0.5,0.3,0.8c0,0,0,0.1,0,0.1c0,0-0.1-0.1-0.1-0.1
					c0.1,0.1,0.2,0.3,0.2,0.4c1.1,0.9,1.7,2,1.7,3.6c0,0,0,0,0,0c0,0,0,0,0,0.1c0.1,0.3,0.1,0.6,0.2,1c0,0.1-0.1,0.2-0.1,0.4
					c0.4,0.5,0.6,1.1,0.8,1.4c0,0,0,0.1,0,0.2c0.1,0.1,0.1,0.2,0.1,0.3c0.4,0.6,0.3,0.6,0.6,1.2c0.3,0.7,0.5,1.5,0.4,2.3
					c0,0.1,0,0.2,0.1,0.3c0,0.1,0,0.2,0,0.3c0.1,0.2,0.3,0.4,0.4,0.6c-0.2-0.4-0.6-1.4,0.3,0.5c0,0,0,0.1,0,0.1
					c0.9,0.6,1.4,1.5,1.9,2.4c0.5,1.1,0.4,0.9,0.5,1.3c0.7,1.2,0.6,0.8,0.6,1.3c0,0,0.1,0.2,0.1,0.2c0,0,0,0,0.1,0
					c0.1-0.1,0.1,0.1,0.2,0.2c0.3,0.4,0.6,0.8,0.8,1.3c0.1,0.2,0.1,0.3,0.2,0.4c0.1,0,0.1,0,0,0.1c0.1,0.3,0.2,0.6,0.3,1.2
					c0,0.3,0.1,1,0,0.8c-0.2-0.3,0-0.6,0-0.9c0-0.1-0.1-0.2-0.1-0.2c0-0.1-0.1-0.2-0.1-0.2c-0.2,0.2-0.7,0.3-1.1,0.5
					c0.1,0.1,0.2,0.2,0.4,0.4c1.1,1.2,2.1,5.3,2.8,11.3c0.8,6.5,1.9,10.8,3.4,13.5c1.6,2.8,3,8.4,4.6,18.5
					c4,25.6,6.7,34.3,11.7,37.3c1.3,0.8,4.4,9.6,4.4,12.5c0,0.9-0.6,1.2-1.7,0.8c-1.6-0.6-1.5-0.5,0.1,1.3
					c2.4,2.7,2.2,21.1-0.3,21.2c-1,0-1.2,0.3-0.4,0.8c0.7,0.4,1.2,4.3,1.3,9.7c0.2,13.3,1,17.5,4.3,21.6c1.9,2.4,2.7,4.2,2.3,5.5
					c-0.5,1.4-0.4,1.6,0.3,0.6c0.7-1,1.7-0.3,4.3,3.5c3,4.3,3.4,5.7,3.8,13.2c0.5,9.8,1.6,11,10.6,11.9c6.3,0.6,8.5,2.2,3.4,2.4
					c-1.8,0.1-4.3,0.2-5.6,0.4s-2.5-0.2-2.9-0.7c-0.3-0.5-1.4-0.7-2.3-0.5c-1,0.2-2.8-0.3-4-1.3c-1.8-1.4-2.3-2.8-2.4-6.9
					c-0.1-2.8,0.2-5.2,0.6-5.2c0.4,0,0.8-0.5,0.8-1c0-0.6-0.7-1-1.6-1c-1,0-1.3-0.5-0.8-1.2c0.4-0.7,0.9-2.6,1-4.3s0-2.5-0.2-1.9
					c-0.7,1.7-4.1-1.4-6.5-5.9c-1.1-2.1-2.4-3.8-3-3.8s-0.8-0.7-0.5-1.5c0.3-0.9,0-1.5-0.9-1.5c-0.8,0-1.9-0.9-2.5-2s-0.7-2-0.3-2
					s0.2-0.5-0.5-1.2c-1.7-1.7-1.5-2.8,0.6-2.9c1.5-0.1,1.5-0.2-0.2-0.8c-1.3-0.5-1.6-1-0.8-1.5c1.6-1,1.5-3-0.1-2.3
					c-0.9,0.4-1.2-0.3-0.9-2.4c0.2-1.6,1-2.9,1.7-2.9c1,0,1-1.5,0-7.3c-0.7-4-1.1-10.2-1-13.7c0.1-3.6-0.2-10.8-0.7-15.9
					c-1-9.4-1-9.5-5.3-13.7c-2.4-2.3-4.7-5.5-5-7.1s-1.5-6-2.4-9.8c-1-3.9-2.3-10.6-2.9-15c-0.7-4.4-1.6-10.6-2-13.7
					c-0.5-3.3-2-7.4-3.5-9.6c-2.1-3.2-2.8-5.7-3.3-13.1c-0.3-4-0.4-7.3-0.1-9.5c-0.2-0.2-0.4-0.5-0.7-1c-0.3-0.5-0.3-0.8-0.4-1.2
					c-0.1,0-0.2-0.1-0.3-0.2c-0.3-0.2-0.2-0.1,0-0.1c-0.1-0.1-0.1-0.2-0.1-0.5c-0.1-0.1-0.2-0.2-0.3-0.3c-0.4-0.4-0.7-1-0.8-1.6
					c-0.2-0.2-0.3-0.5-0.5-0.8c-0.1-0.2-0.2-0.4-0.2-0.7c0,0,0-0.1,0-0.1c0,0,0,0,0.1,0c-0.1-0.2-0.3-0.4-0.4-0.6
					c-0.1-0.1-0.2-0.2-0.3-0.4c-0.1,0-0.1-0.1-0.2-0.1c-0.3-0.3-0.6-0.5-0.8-0.8c-0.2-0.3-0.4-0.7-0.6-1.1c0,0,0-0.1,0-0.1
					c0,0,0.1,0.1,0.1,0c-0.1-0.2-0.1-0.2-0.2-0.3c0,0-0.1-0.1-0.1-0.1c-0.5-0.6-1-1.5-1-2.3c0,0,0,0,0,0c0-0.8,0.1-1.7,0.1-2.5
					c0-0.2-0.2,0.4-0.2,0.7c0,0.1,0,0.3,0,0.4c0,0.1,0.1,0.1,0,0.2c0,0,0-0.1,0-0.1c0,0,0,0,0-0.1c0-0.1-0.1-0.2-0.1-0.3
					c0,0,0,0,0,0c0,0-0.1-0.1-0.3-0.5c-0.2-0.3-0.4-0.6-0.5-1c0-0.1-0.1-0.2-0.1-0.4l0,0c-0.3-0.3-0.5-0.6-0.7-0.9
					c-0.2-0.1-0.3-0.2-0.5-0.4c-1.1-0.9-0.8-0.6-1.4-1.3c-0.6-0.6-0.5-0.4-1.1-1.3c-0.1-0.1-0.1-0.2-0.1-0.3
					c-0.1-0.2-0.2-0.3-0.2-0.5c0,0,0-0.1,0-0.1c-0.2-0.4-0.4-0.7-0.6-1.1c-0.1-0.2-0.1-0.4-0.2-0.6c0,0,0,0,0-0.1
					c-0.1-0.4-0.3-0.8-0.5-1.2c-0.5-1.1-0.4-0.8-0.8-2.1c0-0.4-0.1-0.7-0.1-1.1c0-0.4,0-0.8,0-1.3c0-0.1-0.1-0.1-0.1-0.2h0
					c-0.9-1.4-1-2.6-0.7-3.5c-0.9-1.7-0.2-3.3,1.2-3.6l-2.1-1.5l-0.5-8.8c-0.4-8.4-0.8-9.6-7.8-24.8c-4-8.8-7.4-16.7-7.5-17.5
					c-0.1-0.8-0.7-2.6-1.3-4.1c-0.6-1.5-0.7-4.3-0.3-6.8c0.4-2.3,0.4-4.2,0-4.2c-0.4,0-1,2.2-1.4,4.8c-0.7,5.6,0.8,10.6,7.9,25.7
					c7.8,16.5,9.6,22.1,9.4,29c-0.1,3.3,0.2,7,0.8,8.1s1.3,3.9,1.6,6.3c0.6,5,6.5,17.8,10.5,23.1c2.2,2.8,2.7,4.5,2.5,7.6
					c-0.5,6.5,1.7,17.7,4.4,22.4c1.8,3.1,2.9,7.3,3.9,14.8c0.8,5.7,2.5,15.9,3.9,22.5c2.4,11.5,2.7,12.3,6.9,16.8
					c5.7,6.1,6.1,9.1,5.3,39c-0.7,25.5-0.8,24.9,7,35c6.9,9,7.2,9.8,7.8,18.7c0.4,7.5,0.6,8,4.1,11.2l3.7,3.4l13.2-0.4
					c15-0.4,17.8-1.5,23.3-8.6c4.7-6.2,6.9-13.2,8.8-28.2c1.2-9.6,3.6-20.3,8.3-37c3.6-12.9,8.1-28.9,9.9-35.5s4.7-16.3,6.3-21.5
					s3.6-12.1,4.4-15.2c0.8-3.1,3.3-11.3,5.5-18.2c2.2-6.9,4.9-17.6,5.9-23.8c1.4-8.9,2.9-13.8,6.9-22.8c2.8-6.3,5.9-13.9,7-17
					c2.8-7.7,10.3-34.7,16.2-58.5c2.7-11,6.8-26.1,9.1-33.5c2.7-9.1,4.6-17.8,5.6-26.5c0.9-7.4,2.6-16.1,4-20.1
					c1.3-3.9,2.4-8.2,2.4-9.7c0-1.4,2.6-6.7,6-11.9c8.4-13.1,8.7-13.6,10.3-21.4c0.8-3.8,3.5-14.4,6-23.5
					c8.5-31,14.7-54.6,15.8-60.6c2.4-12.8,9.6-23.7,18.9-28.4c2.3-1.2,9.4-3.2,15.7-4.5c17.4-3.6,18.9-5.1,18-18.3
					c-0.5-7.4-0.9-8.8-3.3-11.3c-2.8-2.9-8.2-3.9-11.1-2c-0.7,0.5,0.7,0.8,3.4,0.7c5.8-0.1,8.1,2.5,9,10.6
					c1.3,11.5-1.4,15.8-10.9,17.3c-7.9,1.2-17.2,3.8-21.7,6.1c-9.6,4.9-17.9,17.2-19.5,29.2c-0.9,6.3-6.2,26.6-8.1,31.3
					c-0.3,0.8-0.8,2.4-1,3.5s-0.7,2.7-1,3.5c-0.4,0.8-0.7,2.2-0.8,3c-0.3,4.3-2.9,12.9-3.8,12.3c-0.6-0.3-0.7-0.1-0.3,0.5
					c0.4,0.6,0,3.7-0.9,6.9c-0.9,3.2-3.1,11.4-4.9,18.3c-3.3,12.8-5.3,18-6.7,18c-0.5,0-0.8,0.6-0.8,1.4c0,0.8-0.7,1.7-1.5,2
					c-0.8,0.3-1.5,1.5-1.5,2.6s-0.9,2.5-2,3.1c-1.1,0.6-1.9,1.9-1.8,2.8c0.2,0.9-0.2,1.6-0.8,1.5s-1.2,0.3-1.2,1
					c-0.9,6.8-2,11.8-2.8,12.9c-1.7,2.2-4.7,16.9-5.9,28.8c-0.3,2.4-0.7,4.7-0.9,4.9c-1.3,1.3-1.5-1.2-0.6-7
					c0.5-3.5,1.5-9.9,2.1-14.2c0.6-4.3,1.8-9.7,2.7-12c0.8-2.3,2.1-6.5,2.8-9.3c0.7-3.1,3.7-9,7.4-14.6c3.4-5.2,6.5-11.2,7-13.3
					c0.9-3.5,4.5-17.3,11.7-43.9c6.8-25.2,8.7-32.7,11.1-43c3-12.9,7.2-21.2,14.5-28.5c5.3-5.3,11.2-7.7,24.9-10.1
					c9.2-1.6,12.8-3.3,13.6-6.4c1-4-0.1-12.5-1.9-14.3c-1.5-1.5-2.6-1.9-6.7,0.3c-4.3,2.3-3.4,1.7-11,1.7
					c-9.2,0-106.6-1.7-107.6-0.2c-0.3,0.6-1,0.8-1.5,0.5c-1.1-0.7-3,2.7-3,5.4c0,2.1,2.4,3.1,11.5,4.6c2.2,0.4,5.9,1.5,8.2,2.5
					c3.9,1.7,4.6,2.7,11.2,15.9c3.9,7.7,7.3,15.7,7.7,17.8c0.9,4.5,0,8.1-8.4,33.9c-6,18.4-6.4,20.4-5.7,25.5c1.1,8.4,1,9-3.4,17.9
					c-3.3,6.6-4.5,10.6-6,19.9c-1.5,9.6-2.9,13.9-7.5,24.2c-7.3,16.6-8.6,21.9-8.6,35.5c0,10.8-0.1,11.3-3.1,15.8
					c-1.7,2.6-4.3,5.9-5.8,7.4c-2.2,2.2-3,4.6-4.4,12.2c-3.8,20.7-4.8,25.1-7.1,32.6c-1.7,5.4-2.4,10.2-2.5,15.6
					c0,13.1-8.7,44.9-12.6,46.4c-0.7,0.3-1.1,1.1-0.8,1.8c0.6,1.6-3.1,8.8-4,7.8c-0.4-0.4-0.6,0.3-0.6,1.5c0,2-1.7,10-2.8,13.2
					c-0.3,0.8-0.7,2.8-0.9,4.5c-1.2,9-4.7,15.9-9,17.7c-7.3,2.9-10.8-0.6-11.7-11.9c-1.4-16.9-2.7-25.5-5-33.6
					c-1.3-4.6-3.1-15.2-4-23.5c-1.9-18.5-3.1-22.4-8.9-30.6l-4.6-6.4l-2-17.4c-1.5-13.3-3.4-23.1-8.1-41.9c-4-15.9-6.8-29.9-8.1-40
					c-2.7-21.3-4.6-27.2-11.6-35.7c-3.1-3.8-6.2-8-6.9-9.4c-0.9-1.7-1.5-8.1-1.8-19.5c-0.4-14.5-1-19.8-4.5-37.4
					c-5-25.2-5.6-30-4.2-30c0.6,0,1.1,1.8,1.1,4c0,2.2,0.9,7.5,1.9,11.8c5.4,21.8,7,31.9,7.6,49.2c0.8,19.6,0.8,19.6,9.6,29.7
					c5.2,6,8.4,13.8,9.4,23.3c1.9,17.3,4,29.9,7,41c1.8,6.9,4.1,16.1,5,20.5c0.9,4.4,2,8.9,2.5,10c1.4,3.3,2.2,7.6,2.7,15.5
					c0.3,4.1,0.9,9.5,1.3,11.9c0.4,2.4,0.6,5.6,0.4,7c-0.4,2.6,4.2,11,7.3,13.6c1.4,1.1,3.5,6,3.8,9c1.2,9.1,2.6,19.3,3,20.5
					c0.2,0.8,0.7,4,0.9,7c0.5,5.9,3.2,18.2,4.7,21.5c0.9,1.9,1.7,10.2,2.3,22.5c0.5,10.7,1.6,14.8,4.1,15.4c1.3,0.3,3,0.9,3.9,1.2
					c1.2,0.5,1.4,0.2,1-1c-0.4-1-0.1-1.6,0.7-1.6c1.8,0,5.6-9.1,6.4-15.3c0.4-2.8,1.3-5.1,2.1-5.4c1.1-0.4,1.2-0.7,0.2-1.3
					c-1.8-1.1-0.3-7.4,2.6-10.8c1.3-1.6,2.2-3.1,1.9-3.4s-0.1-1.6,0.4-2.9c0.5-1.3,0.9-2.8,0.9-3.3c0-0.5,0.4-1.2,0.9-1.5
					c0.8-0.6,1.5-1.9,5.2-10.1c0.6-1.4,1.5-5,1.9-8c0.6-4.3,1.2-5.5,2.5-5.4c2,0.2,2.1-0.1,0.5-2.5c-0.9-1.5-0.9-2.6,0.2-5.2
					c0.8-1.9,1.3-3.9,1.1-4.6s0.2-1.3,0.9-1.3c0.8,0,0.9-0.4,0.1-1.3c-1.2-1.4-1.1-17.2,0-18.3c1-1,0.9-2.4-0.1-2.4
					c-1.9,0-3.2,5.7-3.2,14.8c0,6.6-0.7,12-2,16.7c-1.1,3.8-2.4,9-2.9,11.5s-3.8,10.8-7.3,18.5c-4.3,9.5-6.8,16.4-7.7,21.5
					c-2.4,14-6,21.9-9.4,20.7c-1.4-0.5-3.5-14.3-3.6-23.7c-0.1-3.6-1.2-10.5-2.6-15.5c-2.5-8.8-4.4-20.2-6.5-38.6
					c-1.2-10.3-2.5-13.7-8.4-21.3l-4.1-5.3l-1.3-15.7c-1.1-13.5-2.2-19.2-7.8-40.8c-6.4-24.8-7-28.2-9.2-48.2
					c-1.7-15-4.1-21.8-10.7-29.5c-3-3.6-6.1-7.6-6.9-9.1c-0.9-1.8-1.5-8.1-1.9-20.5c-0.4-16.3-0.9-19.9-5.1-39.9
					c-2.5-12.1-4.6-23.3-4.6-25c0-4.9,1.9-10.4,4.8-13.7c2.6-2.9,3.4-3.1,14.2-4.3c17.3-1.9,20.8-4.6,21.7-16.5
					c0.4-6.3,0.3-6.8-2.9-11.1c-1.3,0-2.6,0-3.9,0c0.1,0.2,0.1,0.3,0,0.4c-0.5,0.4-1.8,0.1-2.8-0.4c-0.5,0-1,0-1.4,0
					c-0.6,0-1.2,0.1-1.7,0.1c-0.2,1.3-0.9,1.6-3.9,1.8c-0.8,0.1-1.1,0.4-0.7,0.8c1.1,1.1-8.1,4.2-14.3,4.9c-4.1,0.5-8,0-14.6-1.6
					c-4.9-1.2-10.7-2.4-12.9-2.7c-4.8-0.6-18.4,1.4-25.4,3.8c-2.9,1-5.3,1.6-5.3,1.3c0-0.3-0.7,0.2-1.6,1.1c-1.9,1.9-4.5,2-6.2,0
					c-1.1-1.2-0.9-1.7,1.3-2.7c2.1-1,2.8-0.9,3.5,0.3c0.6,1,0.9,1.1,0.9,0.2c0-0.7,0.7-1.3,1.4-1.3s1.6-0.5,1.8-1
					c0.4-1.1,1.6-1.4,12.8-3.5c8.8-1.7,14.9-1.8,18.4-0.5c1.4,0.5,4.3,1.2,6.4,1.4s5.7,0.9,7.8,1.5c4.8,1.3,10.6,1.7,11.9,1
					c0.5-0.3,2.8-1.1,5-1.8s4.5-1.7,5.2-2.2c0.4-0.3,0.8-0.5,1.2-0.5c-0.2,0-0.3,0-0.5,0c-1.3-0.1-2.7-0.2-4-0.4
					c-8.7,3.4-12.5,3.3-22.6,0.8c-5.7-1.4-12.6-2.6-15.4-2.7c-6.9-0.2-23.4,2.7-29.7,5.2c-7.4,2.9-22.7,4.8-28.8,3.7
					c-3.6-0.7-6.3-0.6-11.2,0.7c-9,2.3-10.5,2.1-12.3-1.3c-0.8-1.6-1.5-3.6-1.5-4.3s-1.8-3.1-4-5.3L-343.4,1302.5z M-231.9,1672
					c0-0.1,0,0-0.2-0.2c-0.1,0.1-0.2,0.2-0.3,0.2c0.1,0.1,0.2,0.2,0.2,0.3v0c0.1-0.1,0.2-0.1,0.3-0.2
					C-231.9,1672.2-231.9,1672-231.9,1672L-231.9,1672z M-231.9,1672.2c0,0.1,0,0.3,0.1,0.5c0,0,0,0,0,0
					C-231.8,1672.6-231.8,1672.4-231.9,1672.2C-231.8,1672.2-231.8,1672.2-231.9,1672.2C-231.8,1672.2-231.9,1672.2-231.9,1672.2
					L-231.9,1672.2z M-95.7,1306.9c-1.5,0-2.8,0.4-2.8,0.9c0,1.2,0.5,0,3.5,0C-10.6,1307.6,103.5,1307.3-95.7,1306.9z M7.4,1307
					c-0.9,0-1.8,0.1-2.6,0.2c-1.5,0.2-0.5,0.4,2.2,0.4c2.8,0,18.7-1.5,17.5-1.7C24,1305.8,8.3,1307,7.4,1307L7.4,1307z M-82.6,1307
					c-0.7,0-1.5,0.1-2.1,0.2c-1.2,0.2-0.5,0.4,1.7,0.5c2.2,0,3.2-0.2,2.3-0.4C-81.2,1307.1-81.9,1307-82.6,1307z M-63.4,1307
					c-0.6,0-1.3,0.1-1.8,0.2c-1,0.3-0.2,0.5,1.8,0.5s2.7-0.2,1.8-0.5C-62.2,1307.1-62.8,1307-63.4,1307z M-73.5,1307
					c-0.3,0-0.7,0-1.1,0.2c-0.8,0.3-0.6,0.6,0.6,0.6c1.1,0,1.6-0.2,1.3-0.5C-72.9,1307.1-73.2,1307-73.5,1307z M-47.5,1307
					c-0.3,0-0.7,0-1.1,0.2c-0.8,0.3-0.6,0.6,0.6,0.6c1.1,0,1.6-0.2,1.3-0.5C-46.9,1307.1-47.2,1307-47.5,1307z M-19.5,1307
					c-0.3,0-0.7,0-1.1,0.2c-0.8,0.3-0.6,0.6,0.6,0.6c1.1,0,1.6-0.2,1.3-0.5C-18.9,1307.1-19.2,1307-19.5,1307z M-34.6,1307
					c-0.5,0-1.1,0.1-1.6,0.2c-1,0.3-0.4,0.5,1.2,0.5s2.4-0.2,1.8-0.5C-33.5,1307.1-34,1307-34.6,1307z M-25.6,1307
					c-0.5,0-1.1,0.1-1.6,0.2c-1,0.3-0.4,0.5,1.2,0.5c1.6,0,2.4-0.2,1.8-0.5C-24.5,1307.1-25,1307-25.6,1307z M-89.4,1307
					c-0.5,0-0.9,0.1-1.3,0.2c-0.7,0.3-0.1,0.5,1.3,0.5s1.9-0.2,1.3-0.5C-88.5,1307.1-89,1307-89.4,1307z M-57.4,1307
					c-0.5,0-0.9,0.1-1.3,0.2c-0.7,0.3-0.1,0.5,1.3,0.5c1.4,0,1.9-0.2,1.3-0.5C-56.5,1307.1-57,1307-57.4,1307z M-97.2,1307.2
					c-0.2,0-4.3,3.3-4.6,4.2c-0.3,0.8-2.2,2.3-1.6,2.3c0.5,0,0.4,1.8,0.4,1S-97,1307.2-97.2,1307.2z M-208.9,1310.2
					c0.1,0,0.2,0.1,0.3,0.1c0.3,0.2,0.6,0.1,0.9-0.1C-208.1,1310.2-208.5,1310.2-208.9,1310.2z M-195.2,1311c0.1,0,0.4,0.1,0.7,0.5
					c0.7,0.6,1.5,2.6,2,4.5c0.4,1.9,0.4,4.5,0.1,5.9c-0.5,2.1-0.7,1.8-1.2-2c-0.3-2.5-0.9-5.6-1.3-7
					C-195.3,1311.7-195.4,1311.1-195.2,1311z M-102.8,1314.3c-0.1,0-0.1-2.2-0.3-1.9c-1.7,2.5-1.5,10.9,0.5,12.8
					c1,0.9,5.4,2.3,9.8,3.1c12.1,2.1,12.9,2.7,18.2,13c2.5,5,5.7,11.6,7,14.8c0.7,1.7,1.3,3,1.7,3.9c0.2-0.9,0.3-1.2,0.5-1.7
					c-2.5-7.4-11.9-26.3-14.7-28.1c-1.2-0.8-6-2.2-10.6-3c-10.3-1.9-13.2-4.4-12.3-10.1c0.3-1.7,0.3-2.6,0.2-2.7
					C-102.8,1314.3-102.8,1314.3-102.8,1314.3L-102.8,1314.3z M-65.4,1358.3c0,0.1,0.1,0.3,0.1,0.4c0.2-1.2,0.4-2,0.3-2
					C-65,1356.8-65.2,1357.7-65.4,1358.3z M-65.2,1358.7c-0.1,0.5-0.2,1.1-0.3,1.8c0.2,0.4,0.4,0.7,0.5,0.7
					C-64.6,1361.3-64.8,1360.3-65.2,1358.7L-65.2,1358.7z M-65.6,1360.5c-0.1-0.2-0.2-0.3-0.3-0.5c-2.5,9-9.4,34.9-12.7,47
					c0,0,0,0,0,0.1c2.7-8.9,7.4-23.8,7.5-23.8c0.1,0,0.2,0.2,0.3,0.5C-70.5,1384.2-67.1,1368.1-65.6,1360.5L-65.6,1360.5z
					 M-78.6,1407c-0.2,0.6-0.4,1.3-0.6,1.9C-79,1408.3-78.8,1407.7-78.6,1407c-0.1-0.1-0.1-0.1-0.2-0.1c-0.1,0-0.3,0-0.5,0.2
					c-0.7,0.6-1,2.2-1,5.3c-0.1,0.4-0.3,0.9-0.3,1c0,0.1,0.2-0.6,0.3-0.9c0,0.8,0,1.7,0.1,2.7c0.2,3.9,0.5,7.7,0.5,8.5
					c0,0.5-3.6,11.7-6.6,20.8c0.1-1.6,0-3.1-0.4-3c0,0-0.1,0-0.1,0.1c-0.4,0.4-0.9,3.2-1.2,6.2c-0.1,0.5-0.1,0.9-0.1,1.3
					c-1.3,2.8-3,7-4.8,12.7c-1.9,5.8-3.8,12.4-5.6,18.7c4.5-11.4,9.7-23.1,9.7-23.8c0-0.2,0-0.3,0-0.5c2.8,0.7,6.3-13,8.5-24.9
					c0.1-0.2,0.1-0.4,0.2-0.6c0.3-1.2,0.5-1.8,0.4-1.9c0,0-0.1,0-0.2,0.1c1.1-6.4,1.7-11.9,1.5-13.9
					C-78.8,1409.9-78.3,1407.5-78.6,1407L-78.6,1407z M-98.4,1480.7c-3.1,7.9-5.8,15.6-6.3,19.5c0.1-0.1,0.1-0.2,0.2-0.3
					c0.4-0.6,0.7-1,0.8-0.9c0.1,0,0.1,0.1,0.1,0.2C-102.5,1495.3-100.5,1488.2-98.4,1480.7L-98.4,1480.7z M-103.5,1499.2
					c-0.6,2.3-1,3.6-0.9,3.2c0.5-0.3,1-1.4,1-2.3C-103.5,1499.6-103.5,1499.3-103.5,1499.2z M-104.4,1502.4
					c-0.2-0.5,0.1,0.8,0.2-0.2c-0.5,0.8,0-0.4,0,0C-104.3,1502.7-105,1502.7-104.4,1502.4z M-337,1316.9c0.9,0,1.6,0.8,1.6,2
					c0,1.2,0.7,2,1.8,2.1c1,0,3.7,0.2,6,0.3c2.3,0.1,4.3-0.1,4.3-0.5s2.1-1.2,4.7-1.7c3.6-0.8,5.1-0.7,6.8,0.4
					c1.2,0.8,2.5,1.1,2.9,0.7c0.4-0.4,2.8-0.8,5.4-0.9s6.8-0.4,9.3-0.8c3.4-0.5,4.9-0.3,5.8,0.7c0.9,1.1,0.4,1.5-2.6,1.9
					c-7.4,1-26.3,0.6-26.3-0.5c0-0.6-0.6-0.4-1.3,0.5s-3.3,2.1-5.8,2.7c-5.5,1.2-6.5,1.3-7.4,0.3c-0.4-0.4-1.2-0.8-1.9-0.8
					s-2-1.5-3-3.3C-338.4,1317.3-338.4,1316.9-337,1316.9L-337,1316.9z M-193.9,1326.6c0.3,0,0.5,0.1,0.5,0.4c0,1.4-1.9,4.8-2,3.5
					c0-0.4-1.3,0.1-2.9,1.3c-3.5,2.5-7.1,2.7-7.1,0.5c0-1.2,0.7-1.5,2.5-1.1c1.4,0.3,2.6,0.2,2.8-0.1c0.2-0.3,1.7-1.6,3.5-2.9
					C-195.4,1327.2-194.4,1326.7-193.9,1326.6z M-211.6,1332.1c1.5,0,2.7,0.1,3.4,0.3c3,1.1,1.9,2.3-2,2.3
					c-9.8-0.1-17.9,4-20.5,10.2c-0.6,1.4-1.3,4-1.7,5.8c-0.3,1.8-0.9,3-1.3,2.7c-1-1,1.6-11,3.6-14c0.9-1.4,3.1-3.4,4.7-4.4
					C-222.9,1333.4-216,1332.2-211.6,1332.1L-211.6,1332.1z M-208.7,1376.9C-208.7,1376.9-208.8,1376.9-208.7,1376.9
					c-0.1,0-0.1,0.1-0.1,0.1c0,0,0,0,0,0C-208.8,1377-208.8,1377-208.7,1376.9L-208.7,1376.9z M-86.4,1397.3c0,0.1-0.1,0.1-0.1,0.2
					c-0.1,0.1-0.2,0.2-0.3,0.3c0.2-0.1,0.4-0.3,0.6-0.5C-86.3,1397.3-86.4,1397.3-86.4,1397.3L-86.4,1397.3z M-85.9,1444.6
					C-85.9,1444.7-85.9,1444.7-85.9,1444.6c0,0.2-0.1,0.4-0.2,0.8c0-0.1,0-0.2,0-0.3C-86.1,1444.8-86,1444.6-85.9,1444.6z
					 M-89,1456.3C-89,1456.3-89,1456.3-89,1456.3C-89,1456.3-89,1456.3-89,1456.3C-89,1456.3-89,1456.3-89,1456.3L-89,1456.3z
					 M846.7,1460.2c-14.6-0.1-55.5,1.6-75.6,3.2c-14.5,1.1-16.9,2.4-16.9,8.7c0,7.4,1.2,9.1,7.2,10.4c2.9,0.7,6.9,1.9,8.9,2.7
					l3.6,1.5l2.2,12.2c1.2,6.7,2.1,13.6,2,15.2c-0.1,1.6-0.1,7.2,0,12.4c0.1,5.2,0.2,12.4,0.2,16c0,3.6,0,15,0,25.4
					c0,11.4,0.4,19.7,1,20.9c0.8,1.4,0.7,3.2-0.2,6.4c-0.8,2.9-1,7.8-0.7,14.1c0.3,5.3,0.1,13.3-0.4,17.7
					c-0.5,4.4-1.3,12.3-1.7,17.6c-0.6,7.4-1.3,10.3-3,12.7c-1.6,2.2-1.9,3.2-0.9,3.6c1.9,0.8,1.9,0.7,1.3-0.3
					c-0.3-0.5,0.4-2.5,1.5-4.4c1.1-1.9,2.3-5.7,2.6-8.3c0.3-2.7,1-8,1.6-11.8c0.9-5.6,1.9-27.2,1.9-39.3c0-1.3,0.7-2.6,1.6-2.9
					c1.2-0.5,1.3-0.8,0.3-1.4c-1.6-1-1.8-6-2.4-50c-0.2-19.5-0.9-37.2-1.4-39.4c-0.5-2.1-0.8-4.4-0.5-5.1s0-1.6-0.6-1.9
					c-0.6-0.4-0.9-1-0.6-1.4c1.3-2-5-13.5-7.1-13c-2.8,0.7-13.1-2.7-11.9-3.9c0.3-0.3-0.1-1.4-1-2.4c-1.7-1.9-1.2-7.3,0.7-8.5
					c0.5-0.3,4-0.8,7.7-1c3.7-0.2,11.9-0.8,18.2-1.4c15.5-1.4,40-2.4,59.5-2.4c14.8,0,16.9,0.2,29,3.3c15.6,4,22.5,7.2,30.3,14.6
					c6.3,5.9,10.7,13.5,13.7,24.1c2.8,9.7,1.7,33.7-2.1,44.5c-2.3,6.5-8.4,15-16.7,23.3c-7.2,7.1-7.9,8.2-7.4,10.9
					c0.3,1.6,4.9,11,10.1,21c5.2,9.9,9.5,18.7,9.5,19.4c0,0.7,0.3,1.4,0.8,1.6c0.4,0.2,2.5,2.9,4.7,6.1c2.2,3.2,4.2,5.8,4.6,5.8
					c0.4,0,1.3,1.2,2.1,2.7c0.8,1.5,4.2,5.7,7.7,9.3c3.4,3.6,6.3,7.2,6.3,7.9c0,0.8,0.3,1.1,0.6,0.8c0.3-0.3,2.6,0.3,5.1,1.3
					c1.5,0.6,5,1.2,8.9,1.6c0.1,0.1,0.2,0.2,0.4,0.3c1.9,1.2,2.3,1.2,1.5,0c0,0-0.1-0.1-0.1-0.1c1.9,0.2,3.9,0.3,5.9,0.5
					c-0.2,0.2-0.3,0.4-0.3,0.7c0,0.5,0.2,1,0.4,1c0.2,0,0.7-0.5,1.1-1c0.1-0.2,0.2-0.4,0.1-0.6c4.9,0.2,9.3,0.3,10.8-0.1
					c0,0,0,0,0,0c1.8,1.3,1.7,1.6-1.2,7.8c-5.7,12.1-6.3,12.3-35.4,11.7c-26.1-0.5-27.3-1-42.6-16.3c-6.2-6.2-11.3-11.7-11.3-12.2
					c0-0.5-3.5-6.8-7.8-13.8c-13.3-22-21.1-36.7-21.2-40.1c0-0.7-1.2-2.3-2.7-3.7c-1.3-1.2-2.2-1.8-3.1-1.9c-0.1,0-0.2,0-0.4,0
					c-0.3,0-0.6,0.1-1,0.3c-1,0.5-6.2,0.9-11.7,0.9c-9,0-10,0.2-10.5,1.9c-1,3.8,1.3,38.8,3.2,49.1c1.7,9.2,2.3,10.8,5,13.3
					c1.7,1.5,3.6,2.7,4.3,2.7c0.7,0,0-0.7-1.5-1.5c-1.5-0.8-3.2-2.3-3.7-3.3c-1.9-3.6-5-28-5.6-43.8l-0.5-16.1l11.8-0.5
					c6.5-0.3,12.3-0.3,12.9-0.1c0.6,0.2,1.9,2.7,2.8,5.6c1.9,6,6.8,15.2,17,32.2c4,6.6,8.5,14.4,10,17.2c1.7,3.2,7.2,9.5,14,16.2
					c10.7,10.5,11.5,11,19.1,13.5c7.2,2.3,9.5,2.6,25.6,2.6c21.5,0.1,26.9-0.9,30.3-5.3c3.4-4.5,7.8-14.4,7.1-16.2
					c-0.3-0.8-1.6-1.5-2.8-1.5c-1.7,0-2,0.1-1.2,0.7c-5.3-0.7-24.3-1.9-25.8-2.3c-4.1-0.9-11.6-8-20.9-19.9
					c-7.6-9.8-12.7-18.5-25.1-42.8l-7-13.8l9.5-9.9c11.9-12.3,16.1-20.2,18.3-34.1c4-24.7-1-45.6-14.2-58.5
					c-8.3-8.1-13.8-10.8-30.1-15.1C862,1460.7,859.3,1460.3,846.7,1460.2L846.7,1460.2z M534.6,1460.7c-0.6,0-1.3,0.1-2.1,0.4
					l-2.8,0.8l2.8,0.4c1.5,0.2,2.8,0.7,2.8,1.1c0.8,7.3,0.5,9.7-1.4,11.3c-1.1,0.9-4.5,2-7.4,2.3c-6.9,0.8-12.8,3.2-15.2,6.2
					c-1,1.3-4.3,4.2-7.2,6.5s-6,4.9-6.6,5.8c-0.7,0.9-4.5,5.2-8.5,9.5c-7.1,7.8-12.6,13.3-30.8,31.1c-5.1,4.9-10.9,11.3-12.9,14
					c-2,2.8-4.5,5.6-5.4,6.4c-0.9,0.8-1.6,1.9-1.6,2.5c0,0.6,1.9-1.1,4.3-3.7c10.6-12.2,23.4-25.3,26.1-26.9
					c1.7-0.9,10.2-9.6,19-19.3c8.8-9.7,16.3-17.6,16.8-17.6c0.5,0,3.5-2.4,6.7-5.4c6.2-5.7,10.5-7.6,17.9-7.6c2.4,0,5.4-0.7,6.8-1.6
					c2.2-1.4,2.5-2.3,2.5-7.9C538.2,1463.1,537.2,1460.7,534.6,1460.7L534.6,1460.7z M37.6,1460.9c-3.3,0.1-4,0.6-5.5,2.2
					c-2.4,2.6-5.9,10.2-9.3,20c-1.1,3.3-3.5,9.6-5.3,14c-1.8,4.4-3.8,10.3-4.5,13c-0.7,2.7-2.6,8.1-4.2,12c-1.9,4.6-3.2,9.7-3.7,15
					c-0.7,7.3-1,8.3-4.2,11.6c-2.2,2.3-4.1,5.8-5.2,9.5c-4.8,16-21.9,65.6-27.7,80.4c-4.9,12.3-5.1,12.7-14,21.8
					c-8.5,8.7-9,9.4-8.4,12.5c0.3,1.4,0.6,2.5,1.1,3.4c2-1.1,2.7-1,3.3,2.7c2,0.6,5,0.8,9.7,0.7c58.3-0.5,57.4-0.3,57.4-8.5
					c0-5.1-1.8-7.1-9.8-11.1c-7-3.5-7.8-5.5-6.3-15.3c0.7-4.3,1.9-10.2,2.7-13.2c1.9-6.6,8-19,9.6-19.5c0.7-0.2,13.6-0.6,28.8-0.9
					l27.6-0.6l1.6,5.2c0.9,2.9,2.5,7.7,3.6,10.7c2.6,7.1,6.5,25.9,6,29c-0.3,1.8-1.4,2.7-5,4c-7.2,2.5-7.9,3.4-7.9,10.7
					c0,5.6,0.3,6.8,2.6,9c2.5,2.5,2.9,2.6,10.8,2c4.5-0.3,12.4-1.1,17.7-1.8c6.2-0.8,17-1,31.1-0.6c20.8,0.6,21.7,0.5,24.3-1.5
					c2.1-1.7,2.6-2.9,2.6-6.5c0-3.6-0.5-4.9-2.8-6.9c-1.5-1.3-4.3-2.7-6.1-3c-6.9-1.3-8.1-2.5-12.9-12.5
					c-5.1-10.7-8.3-19.4-8.3-22.4c0-1.1-1.1-3.4-2.4-5.1c-3.4-4.5-7.4-14.5-10.8-27.1c-1.6-6-4.8-16.2-7-22.5
					c-2.2-6.3-4.4-13.1-4.9-15.1c-0.5-2-2.9-7.8-5.4-12.9c-2.5-5.1-4.5-10.7-4.5-12.4c0-1.7-1.5-6-3.4-9.6
					c-1.9-3.6-3.9-9.2-4.4-12.6c-0.5-3.4-1.9-7.9-3-10c-2.7-5.2-12.2-30-12.2-31.7c0-2.5-3.8-4.9-8.2-5.2c-2.4-0.2-9.3-0.6-15.4-0.9
					c-2.7-0.1-4.7-0.2-6.3-0.2C38.6,1460.8,38.1,1460.9,37.6,1460.9L37.6,1460.9z M432.5,1461.5c-1.1,0-0.7,0.7,1.1,2.1
					c2,1.6,2.6,3,2.6,5.8c0,5.2-1.6,6.9-8.3,8.6c-10.3,2.7-11.1,3.8-13.7,20c-0.7,4.4-1.2,10.9-1.2,14.5c0.1,3.6-0.3,11-0.8,16.5
					c-0.6,6.5-0.6,11.6,0.1,14.8c0.6,2.6,1.2,4.8,1.4,4.8s0.3-3.3,0.3-7.3c-0.3-13.2,1-37.1,2.4-46.7c1.7-11.1,3.4-13.2,12.2-15.1
					c6.5-1.5,8.2-3.1,9.1-8.5c0.5-3.2,0.2-4.5-1.5-6.7C435,1462.8,433.3,1461.5,432.5,1461.5L432.5,1461.5z M468.2,1461.5
					c0.6,0-1.1,0.5-1.1,1c0,0.6,0.2,1,0.4,1s0.7-0.4,1.1-1C469,1462,467.6,1461.5,468.2,1461.5L468.2,1461.5z M1191,1461.5
					c-0.9,0-2,0.4-2.3,1c-0.8,1.3,0.5,1.3,2.5,0C1192.5,1461.7,1192.4,1461.6,1191,1461.5z M477.2,1461.6c-1,0-2,0.1-2.8,0.2
					c-1.5,0.2-0.3,0.4,2.8,0.4s4.3-0.2,2.8-0.4C479.2,1461.7,478.2,1461.6,477.2,1461.6z M1202.2,1461.7c-0.6,0-1.3,0.1-1.8,0.2
					c-1,0.3-0.2,0.5,1.8,0.5s2.7-0.2,1.8-0.5C1203.4,1461.7,1202.8,1461.7,1202.2,1461.7z M360.1,1461.7c-0.3,0-0.7,0-1.1,0.2
					c-0.8,0.3-0.6,0.6,0.6,0.6c1.1,0,1.6-0.2,1.3-0.5C360.7,1461.8,360.4,1461.7,360.1,1461.7z M497.1,1461.7c-0.3,0-0.7,0-1.1,0.2
					c-0.8,0.3-0.6,0.6,0.6,0.6c1.1,0,1.6-0.2,1.3-0.5C497.7,1461.8,497.4,1461.7,497.1,1461.7z M518.1,1461.7c0.3,0-0.7,0-1.1,0.2
					c-0.8,0.3-0.6,0.6,0.6,0.6c1.1,0,1.6-0.2,1.3-0.5C518.7,1461.8,517.7,1461.7,518.1,1461.7L518.1,1461.7z M428.2,1461.7
					c-0.5,0-0.9,0.1-1.3,0.2c-0.7,0.3-0.1,0.5,1.3,0.5s1.9-0.2,1.3-0.5C429.1,1461.7,428.6,1461.7,428.2,1461.7z M740.9,1461.7
					c-1.9,0-4.3,0.2-7.5,0.4c-12.1,1-15.5,1-37.3,0.4c-13.7-0.4-15.9-0.2-18.3,1.3c-4.3,2.8-3.1,8.9,2.4,12.1c4.7,2.8,6.3,5.9,5,9.7
					c-0.6,1.7-1.1,4.3-1.1,5.8c0,1.4-1.4,4.6-3,7.1s-3,5.4-3,6.5c0,1.1-1.1,3.8-2.5,6c-1.4,2.2-2.5,4.6-2.5,5.3c0,0.7-1.4,3.2-3,5.5
					s-3.5,6.1-4.2,8.4s-2.1,5-3.1,5.9c-2.1,1.9-2.4,3.9-0.7,5c0.7,0.4,0.9,0.3,0.5-0.4c-0.4-0.6-0.4-1.2,0.1-1.4
					c1.7-0.7,6.3-8.9,6.3-11.2c0-1.3,0.7-2.7,1.5-3c0.8-0.3,1.5-1.2,1.5-1.9c0-0.7,0.9-2.4,2-3.8s2-3.3,2-4.2s0.9-2.3,2-3.1
					c1.1-0.8,1.9-2.2,1.8-3.3c-0.1-1.1,0.2-3.3,0.6-4.9c0.6-2.3,1-2.6,1.7-1.5c0.7,1.1,0.9,0.8,0.7-1.1c-0.2-1.5,0.2-2.4,1-2.3
					c0.7,0.1,1-0.4,0.6-1.3c-0.3-0.8,0-2.2,0.7-3.1c0.7-0.9,1.5-3.2,1.7-5.2s0.8-4,1.4-4.3c0.7-0.5,0.7-0.9-0.1-1.3
					c-0.6-0.4-0.9-1.1-0.5-1.6c0.8-1.3-3-7.3-6.5-10c-4.1-3.3-2.8-4.2,2.1-1.4c5.1,2.9,7.9,7,7.9,11.5c0,4.7-2.3,13.1-5.3,19.4
					c-6.4,13.5-10.8,22.3-11.6,23.6c-0.5,0.8-1.9,3.8-3.1,6.5c-3,6.9-8.7,14.5-10.9,14.5c-2.6,0-8.2-5-7.6-6.7
					c0.3-0.8,0.1-1.2-0.4-0.8c-0.5,0.3-2.5-1.8-4.5-4.7c-1.9-2.9-6.7-10-10.6-15.8s-8.4-13.4-10.1-17c-1.7-3.6-3.5-7.2-4-8
					c-2.5-4.1-3.9-8.4-3.9-12.3c0-3.6,0.6-4.9,3.5-7.7c5.9-5.7,5.3-6-11.3-6.1c-13.4-0.1-37.2,0.2-44.8,0.7
					c-1.7,0.1-4.7,0.2-6.7,0.3c-3.4,0.1-3.7,0.4-3.6,3.1c0.1,2.2,0.4,2.7,1.3,2c1.3-1.1,7.2,0.6,11.4,3.2c1.2,0.7,5.5,6.1,9.5,11.8
					c4,5.8,11.4,15.9,16.4,22.5c5,6.6,9.8,13.4,10.6,15c0.8,1.7,3.4,6,5.8,9.7c2.3,3.7,6.7,10.7,9.7,15.5c3,4.8,6.7,10.6,8.3,12.8
					c8.6,12,8.1,10.2,8.5,29.5c0.2,9.6,0.8,18.8,1.3,20.4c1.2,3.7,1.3,15.6,0,15.6c-1.7,0-2.4-2.2-0.9-3.1c1-0.6,1-0.9,0.1-0.9
					c-0.9,0-1.1-1.4-0.9-4.5c0.2-2.5,0-4.8-0.4-5c-0.5-0.3-0.6-1.2-0.3-2c0.3-0.8,0.1-1.5-0.5-1.5c-0.6,0-1-2.8-0.9-6.8
					c0.2-13.9-0.6-29.3-1.5-29.3c-0.5,0-0.6-0.9-0.3-2c0.5-1.5,0.3-1.9-0.8-1.4c-0.9,0.4-1.7-0.2-2.1-1.5c-0.4-1.1-1.2-2.6-1.9-3.3
					c-3.2-3.3-7.5-9.5-8.2-11.7c-0.4-1.4-1.8-3.3-3.1-4.3c-2.5-2-3.2-4.7-1.1-4.8c0.8-0.1,0.7-0.3-0.2-0.7
					c-3.1-1.2-6.2-5.4-15.7-21.3c-3-4.9-7-10.5-11.8-16.1c-5.5-6.4-6.5-7.9-6.5-8.9c0-0.5-0.3-1-0.8-1c-0.7,0-4.4-5.8-4.5-7
					c0-0.3-1.1-1.8-2.4-3.3c-1.3-1.6-2.6-3.9-3-5.2c-0.4-1.6-2.3-3.3-6-5.1c-3-1.5-5.4-3.1-5.4-3.5s-0.6-0.5-1.4-0.2
					c-2.5,1-4.9-1.2-5.2-5c-0.5-4.6-0.2-4.7,19.9-4.9c8.7-0.1,15.8-0.6,15.8-1.1c0-0.5,1-0.6,2.3-0.4s4.7,0.1,7.8-0.3
					c3.3-0.5-4.5-0.6-19.4-0.4c-23,0.4-25.1,0.6-27,2.4c-1.2,1.1-2.1,3.2-2,4.8c0,3.2,2.4,7.3,4.2,7.3c0.7,0,3.7,0.9,6.8,2.1
					c5.2,2,5.9,2.6,12.2,12.1c3.7,5.5,10.1,14.4,14.3,19.7c4.2,5.3,8.8,11.6,10.2,14.1c6.1,10.9,21.5,35.1,26.4,41.5
					c2.9,3.8,5.9,8.3,6.6,10c0.7,1.7,1.6,11.3,2.1,21.5c1.6,33.5,1.8,37.5,2.4,42.1c0.5,3.7,0.1,5.5-1.9,9.5
					c-3.8,7.5-6.7,10-13.6,12c-8.4,2.3-11.1,4.6-11.1,9.2c0,2.2,0.8,4.4,1.9,5.7c1.9,2,2.8,2.1,41.9,2.1c38.2,0,40.1-0.1,42.1-1.9
					c1.7-1.6,2.1-2.9,1.9-6.5c-0.3-4.5-0.3-4.6-7-8.1c-3.7-1.9-7.4-4.5-8.2-5.7c-3.5-5.1-4.6-14.2-5.2-45.3
					c-0.8-39.4-0.4-42.2,7.8-53c3.8-5,8.1-12.6,11.9-21.1c3.3-7.3,7-14.4,8.3-15.8c1.3-1.4,3.6-5,5.1-7.9
					c4.9-9.9,15.5-26.9,18.8-30.5c2.2-2.4,4.9-3.9,8.1-4.7c2.6-0.7,6.1-2.3,7.7-3.7c2.4-2,2.9-3.2,2.9-6.7
					C747.2,1463.2,746.5,1461.7,740.9,1461.7L740.9,1461.7z M1025.8,1462.3l-14.7,1.1c19.7,0.1,70,0.4,75.6,0
					c-0.1,0-0.2-0.1-0.2-0.1C1083.5,1463.2,1038.1,1462.6,1025.8,1462.3L1025.8,1462.3z M1086.5,1463.3c0,0,0.3,0,0.3,0
					c0,0-0.1-0.1-0.1-0.1C1085.4,1462,1086.5,1464.2,1086.5,1463.3L1086.5,1463.3z M1086.8,1463.3c0,0,0.1,0.1,0.1,0.1
					C1087.4,1463.4,1087.4,1463.4,1086.8,1463.3C1086.9,1463.3,1086.8,1463.3,1086.8,1463.3L1086.8,1463.3z M1086.9,1463.4
					c0,0-0.2,0-0.2,0c0.1,0.1,0.2,0.1,0.3,0.1c1.8,1.9,3.2,5.2,2.7,8.7c-0.9,6.8-2.1,8.1-8.4,9.8c-9.1,2.5-10,3.1-12.6,8.2
					c-5.4,10.6-6.2,25.6-6.8,120.3c-0.1,24.6,0.1,29.4,1.6,35c2.7,9.7,8.4,14.8,18.3,16.5c5.7,1,7.3,2.7,6.2,6.6
					c-0.5,1.7-0.6,3.7-0.4,4.4c0.3,0.8-0.8,2-2.7,2.9c-2.7,1.3-7.2,1.6-27.6,1.6c-13.4,0-32.7,0.3-42.8,0.6
					c-15.7,0.6-18.9,0.5-21.7-0.9c-6.1-2.9-8.5-7.2-6.1-10.6c0.6-0.8,0.9-1.3,1-1.6c1.4-0.7,3.7-2,7.6-4.3c-0.2,0.2-0.3,0.4-0.3,0.7
					c0,0.6,0.4,1,1,1s1-0.4,1-1c0-0.5-0.4-1-1-1c-0.1,0-0.2,0-0.3,0.1c4.3-2.5,10-5.9,17.9-10.6c1-0.6,0.1,1,2.3-0.3
					c2.4-1.4,3-2.2,1.9-2.1c-0.2,0,1.4-1.9,2.7-3.4c0.8,1.8,1.2,1.3,1.1-1.4c0.2-0.3,0.3-0.4,0.1-0.4c0,0-0.1,0.1-0.1,0.1
					c0-0.8-0.1-1.8-0.2-3c-0.3-3.3-1.5-7.6-2.7-9.5c-1.1-1.9-2.2-5.1-2.4-7c-0.1-1.6-0.3-2.7-0.5-3.3c0.7-0.9,1.9-6.1,2.4-10.8
					c0.2-1.4,0.2-2.5,0.2-3.3c-1.4,5-3,10.7-3.1,12c0,0.6,0,1.1,0,1.5c-0.3,0.1-0.5,1.4-0.4,3.7c0,2.9,0.9,5.8,2.5,8.4
					c1.4,2.3,2.5,5.5,2.5,7.7c0,1.8,0.1,3.6,0.3,4.6c-6.7,4.1-34.2,21.7-34.2,22.5c-2.9,1.8-3.3,3.5-1.7,6.8c1.6,3,5.4,5.9,9.5,7.1
					c1.4,0.4,7.5,0.6,13.5,0.4c6-0.2,26.1-0.4,44.6-0.4l33.7,0l2.2-2.3c1.4-1.5,2.4-4.2,2.8-7.4c0.5-4.3,0.3-5.4-1.5-7.2
					c-1.4-1.4-3.4-2.1-5.7-2.1c-1.9,0-5.7-1.1-8.3-2.4c-11.4-5.8-11.5-6.2-11.3-77.1c0.1-31.3,0.4-59.3,0.7-62
					c1.5-14.3,3.8-25.2,6.1-29.2c2.3-3.9,2.9-4.3,8.4-5.4c3.3-0.6,7-2,8.3-3c5.3-4.2,5.2-17.9-0.2-17.9v0c-0.1,0-0.2,0-0.3-0.1
					C1087,1463.5,1087,1463.5,1086.9,1463.4L1086.9,1463.4z M1011.2,1463.4c-4,0-15-0.1-15-0.1c0.1,0.1-0.2,0.6-0.6,1.3l2.6-0.2
					c0.1-0.5,0.7-0.8,1.5-0.8c0.8,0,1.5,0.2,1.5,0.4c0,0.1,0,0.1-0.1,0.2L1011.2,1463.4z M1001.1,1464.2l-2.9,0.2c0,0.1,0,0.1,0,0.2
					c0,0.5,0.7,0.7,1.5,0.4C1000.3,1464.7,1000.8,1464.4,1001.1,1464.2L1001.1,1464.2z M995.6,1464.6l-0.2,0
					c-0.8-0.1-4.2,3.2-4.2,4.1c0,0.4,1-0.2,2.3-1.4C994.2,1466.6,995.6,1463.6,995.6,1464.6L995.6,1464.6z M398.7,1462.5
					c-0.9,0-1.3,0.4-1,1c0.3,0.5,0.8,1,1,1s0.7-0.5,1-1C400,1463,399.6,1462.5,398.7,1462.5z M628.1,1462.5c-1.9,0-1.9,0,0,2
					c2.9,2.9,2.5,5.6-1.5,10.3c-4.3,5-4.5,8.4-1,14.4c1.4,2.4,2.2,4.3,1.9,4.3s-0.1,0.7,0.6,1.5c0.7,0.8,1,1.8,0.7,2.1
					c-0.3,0.3,1.6,4.1,4.4,8.5c2.7,4.3,4.9,8.2,4.9,8.7s1,1.9,2.3,3.3s2.9,3.7,3.7,5.2c0.8,1.5,1.8,2.8,2.3,2.8
					c0.5,0,0.8,0.7,0.8,1.5s0.4,1.5,0.8,1.5s1.4,1.2,2.1,2.7s2.6,4.4,4.2,6.5s3.4,3.6,3.8,3.3c0.5-0.3-5.2-9.5-12.5-20.4
					c-7.3-10.9-13.8-21.6-14.5-23.7c-0.7-2.1-2.2-5.7-3.5-7.9c-4.1-7.2-4-8,0.4-12.8c4.2-4.5,5.1-7.9,3-11.7
					C630.6,1463.4,629.2,1462.5,628.1,1462.5L628.1,1462.5z M1218.8,1462.6c-1.9,0-1.9,0.1,0.4,1.3c1.4,0.7,3.1,2.9,3.9,5.2
					c0.8,2.2,4.3,11.4,7.7,20.5c3.5,9.1,6.6,18.3,7,20.5c0.9,5.5,3.3,12.7,4.9,14.5c1.2,1.4,1.6,2.7,3.2,12.2c0.3,2.1,1,3.5,1.4,3.3
					c0.8-0.5,4,7.2,4,9.8c0,0.9,0.4,1.7,0.9,1.7c1.3,0,4.1,7.5,4.1,10.8c0,1.5,0.5,3.2,1,3.8c1.1,1.1,6,14.7,6.5,17.9
					c0.2,1.1,0.6,2.9,1.1,4c0.5,1.1,0.8,3.5,0.8,5.3c0,1.8,0.4,3.3,0.9,3.3c0.5,0,0.7,1.7,0.3,3.8c-0.4,2.3-0.3,3.2,0.3,2.4
					c0.9-1.5,2.7,1.6,5.6,9.9c0.9,2.5,2.7,6.3,4.1,8.4c1.4,2.1,2.8,5.3,3,7c0.5,3.3,1.7,7.1,4,12.3c0.8,1.7,1.4,3.6,1.4,4.1
					c0,3.7,10.9,19.1,12.4,17.6c0.3-0.3,1.1-0.1,1.8,0.3c0.7,0.5,1.8,0.9,2.3,0.9c2.3,0.2,6.5,2.9,6.1,4c-0.3,0.7,0,1.7,0.6,2.2
					c1.6,1.6,0.1,6.2-2.2,6.2c-1.1,0-2.2,0.4-2.4,0.8c-0.5,0.9-1.2,0.9-13.6-0.3c-4.1-0.4-11.1-0.7-15.5-0.7c-9.5,0-30,1.5-30,2.2
					c0,0.5-14.1,0.8-15.7,0.3c-2.4-0.7-3.6-6-2.4-11.1c0.9-4.1,1.1-4.3,6.3-5.4c4.9-1.1,5.4-1.4,6-4.5c0.3-1.8,0.3-5.5-0.2-8.1
					c-0.4-2.6-0.8-5.2-0.9-5.7c0-0.6-0.4-1.6-0.9-2.3c-0.5-0.7-0.6-1.6-0.2-1.9s0.1-1.2-0.5-1.9c-0.6-0.7-0.9-2-0.6-2.7
					c0.3-0.8,0.3-1.7,0-2c-0.8-0.8-5.4-13.7-6-17.1c-0.3-1.6-1.2-3.6-1.9-4.3c-0.8-0.8-1.2-1.7-1-2c0.5-0.8-34-0.5-48.2,0.4
					c-10.8,0.7-15.2,2.5-15.3,6.3c0,0.9-0.9,2.8-2,4.2s-2,3.2-2,4.1c0,0.9-0.7,1.9-1.5,2.2c-0.8,0.3-1.2,1.2-0.9,2.1
					c0.3,0.8,0.1,3.1-0.6,5c-0.6,1.9-1.2,4.9-1.2,6.6c0,1.7-0.6,3.3-1.3,3.6c-0.8,0.3-1.1,2.1-0.9,5.2c0.6,8.5,2.7,11.3,12,16
					c4.1,2.1,6.3,6,4.2,7.3c-0.6,0.4-0.8,1.1-0.5,1.7c1.8,2.9-16.4,4.6-23.4,2.2c-1.5-0.5-11.5,0.3-18.4,1.5
					c-4.4,0.8-8.3,1.2-8.7,0.9c-0.4-0.3-3-0.5-5.7-0.6c-6.4-0.1-7.4-0.8-7.7-5.4c-0.3-3.5,0.2-4.3,5.2-9.2c3.3-3.2,6.1-5.2,6.9-4.8
					c0.8,0.3,1.4,0.1,1.4-0.4s-0.5-1-1.1-1s0-1.5,1.4-3.3c1.3-1.8,3.2-5.1,4.1-7.3c0.9-2.2,2.7-6,4-8.5s4.2-11,6.6-19
					s4.8-15,5.5-15.5c0.7-0.6,1-1.5,0.8-2.2c-0.2-0.7,0.2-2.2,0.9-3.5c0.7-1.3,1.4-3.2,1.6-4.3c0.2-1.1,0.8-2.4,1.3-2.9
					c0.5-0.5,1-1.8,1-2.8c0-1,2.3-8.5,5-16.6s5-15.5,5-16.5c0-1,1.3-3.1,2.9-4.7c1.6-1.6,2.6-2.9,2.2-2.9c-1.9,0-6.1,6-7,10
					c-0.6,2.5-2.8,9.4-5,15.5c-2.2,6-4,11.5-4,12c0,0.6-2,6-4.4,12c-2.4,6-5.6,15.5-7.1,21s-4.9,14.8-7.6,20.7
					c-2.7,5.9-4.9,11.3-4.9,11.9c0,0.7-4.1,5.1-9,9.8c-8,7.7-9,9-9,12.2c0,2.5,0.7,4.2,2.4,5.8c2.7,2.6,1.5,2.5,42.1,1.9
					c18-0.3,20.3-0.5,23.5-2.4c4.2-2.5,4.8-5.5,2.2-10.4c-1.2-2.3-2.9-3.7-4.9-4.2c-1.7-0.4-5-2.5-7.3-4.6l-4.3-3.8l1.7-8.9
					c1-4.9,2.2-10.7,2.8-12.9c1.4-5.3,7.9-19.5,9-19.6c7.6-1.1,56.9-1.8,56.9-0.8c0,0.6,1.3,4.5,2.9,8.7c3,7.8,9.1,31.6,9.1,35.3
					c0,2.1-0.2,2.3-6.5,3.9c-5.1,1.3-7.5,5.1-7.5,11.7c0,3.9,0.5,5.4,2.8,7.7c2.7,2.8,3,2.9,10.3,2.4c4.1-0.3,12-1,17.5-1.6
					s20-1,32.1-0.8c20.6,0.3,22.3,0.2,24.3-1.6c1.6-1.5,2.1-3.1,2.1-7.2c0-5.2,0-5.3-4.3-7.3c-2.3-1.1-6-2.6-8.1-3.3
					s-4.7-2.4-5.7-3.7c-2.3-2.9-10.9-24.8-10.9-27.6c0-1.2-1.6-4.6-3.5-7.6s-3.5-6-3.5-6.7c0-0.7-1.3-4.1-2.9-7.5
					c-1.6-3.4-3.7-9.9-4.6-14.3s-3.6-13.4-6-20c-2.4-6.6-4.6-13.4-5-15c-0.4-1.6-2.7-7.4-5.2-12.7c-2.5-5.4-4.7-11.7-5-14
					c-0.3-2.3-1.1-4.9-1.7-5.7c-2.3-2.9-5.5-11.6-6.5-17.4c-0.6-3.2-1.4-6.4-1.9-7c-1-1.2-13.1-32-13.1-33.2
					C1224.2,1465.3,1220.7,1462.5,1218.8,1462.6L1218.8,1462.6z M1211.1,1462.7c-0.3,0-0.7,0-1.1,0.2c-0.8,0.3-0.6,0.6,0.6,0.6
					c1.1,0,1.6-0.2,1.3-0.5C1211.7,1462.8,1211.4,1462.7,1211.1,1462.7z M382,1462.7c-0.5,0-1.1,0.1-1.6,0.2c-1,0.3-0.4,0.5,1.2,0.5
					c1.7,0,2.4-0.2,1.8-0.5C383.1,1462.8,382.6,1462.7,382,1462.7z M612.2,1462.7c-0.5,0-0.9,0.1-1.3,0.2c-0.7,0.3-0.1,0.5,1.3,0.5
					s1.9-0.2,1.3-0.5C613.1,1462.8,612.6,1462.7,612.2,1462.7z M618.2,1462.7c-0.5,0-0.9,0.1-1.3,0.2c-0.7,0.3-0.1,0.5,1.3,0.5
					s1.9-0.2,1.3-0.5C619.1,1462.8,618.6,1462.7,618.2,1462.7z M41.2,1463.5c6.2,0,14.9,0.5,20.5,1.2c2.1,0.3,5.7,3.2,4.9,4
					c-0.2,0.2,0.5,2.3,1.5,4.6c1.1,2.3,2,5.2,2,6.6c0,1.3,0.7,3,1.5,3.7c0.8,0.7,2,3.1,2.6,5.4c0.6,2.3,2.5,7,4.1,10.4
					c1.6,3.5,3.1,8.2,3.2,10.5c0.1,2.3,1.2,6.2,2.3,8.7c3.4,7.4,5.2,12.1,5.2,13.9c0,0.9,2,5.8,4.4,10.8c2.4,5,4.8,10.8,5.2,12.9
					c0.4,2.1,1.3,4.7,2,5.8s2.3,5.4,3.5,9.5s2.8,8.8,3.5,10.5c2.2,5.2,3.7,12.9,2.6,13.3c-1.2,0.4-0.3,3.4,1.3,4.4
					c0.6,0.4,1.1,1.1,1.2,1.5c0,0.4,0.5,1.7,0.9,2.7c0.5,1.1,0.9,3.4,0.9,5.1c0,2.1,0.5,3,1.3,2.7c0.7-0.3,1.5,0.4,1.9,1.4
					c1.5,4.5,2.9,7.4,3.7,7.4c1.3,0,3.7,6.7,4.2,11.7c0.2,2.6,0.8,4.9,1.3,5.2c1.5,1,3.3,5.1,2.8,6c-0.3,0.5,0.1,1.1,1,1.4
					c0.8,0.3,1.5,1.5,1.5,2.6s0.3,2,0.8,2s1.8,2,3.2,4.6c2.6,5,3.5,5.6,10.7,8c5.7,1.9,8.3,4.7,8.3,9c0,6.1-1.6,6.5-20.6,5.8
					c-10.5-0.4-17.2-1.1-17.6-1.8c-0.5-0.8-0.7-0.8-0.8,0c0,0.8-3.4,1.1-11.5,1c-6.3-0.1-11.6,0.2-11.8,0.7c-0.2,0.5-2.1,1-4.2,1.1
					c-2.2,0.1-5.3,0.5-7,0.9c-3.4,0.7-9.1-1.1-10.5-3.3c-0.5-0.8-0.7-3.7-0.5-6.4c0.4-5.4,1.2-6.3,7.5-8.2c2-0.6,4.1-2.2,4.9-3.6
					c1.3-2.3,1.2-3.5-0.7-11.6c-1.2-5-1.9-9.7-1.7-10.4c0.3-0.8-0.1-2.6-0.9-4.2c-0.8-1.5-2.7-6.6-4.2-11.1
					c-4.2-12.9-2.9-12.4-25.7-11.7c-23.8,0.7-23.8,0.7-24.9-0.5c-0.9-0.9,17.9-2,41-2.6l7.4-0.2l2.2,6.5c1.2,3.6,2.9,8.5,3.8,11
					c0.9,2.5,3,10.5,4.8,17.8c4.4,18.2,3.5,21.8-6.2,24.3l-5,1.3l0.3,4.5c0.3,4,0.6,4.6,3.1,5.2c1.6,0.4,5.4,0.3,8.5-0.3
					c3.1-0.6,18.9-1.2,35.1-1.4c17-0.2,29.8-0.7,30.3-1.3c2.1-2.1,0.2-4.5-5-6.3c-6.3-2.1-11.3-5-11.3-6.4c0-0.6-1.1-2.6-2.3-4.5
					c-2.8-4.1-8.3-18.3-9.2-23.7c-0.4-2.1-1.8-5.5-3.1-7.7c-3.2-4.9-9.3-19.1-10.3-23.6c-2.8-12.9-11.1-38.2-17.8-54
					c-2.4-5.8-4.7-12.1-5-14c-0.3-1.9-1.3-4.9-2.3-6.5c-2-3.4-5.2-12.6-6.9-19.9c-0.6-2.7-2.1-6.9-3.2-9.4
					c-4.5-9.8-8.8-22.1-8.3-23.5c0.3-0.8-0.2-1.7-1-2c-0.9-0.3-1.6-1.2-1.6-2c0-1.5-7-2.5-20-2.8c-8.5-0.2-8.8-0.1-9.9,3.4
					c-0.5,1.8-2.3,6.6-4,10.6c-1.7,4.1-3.1,8.1-3.1,9c0,0.9-0.4,2.1-0.9,2.6c-0.5,0.5-3.9,9.7-7.6,20.4c-4.6,13.4-7,21.9-7.5,27
					c-0.8,7.5-3.3,15.5-4.1,13c-0.8-2.5-2.7,0.1-4.8,6.7c-2.2,6.8-4.7,12.3-5.5,12.3c-0.7,0,0.7-8.3,1.6-9.5
					c0.4-0.5,1.1-2.7,1.5-4.8c0.5-2.5,2.1-5.3,4.8-8c2.2-2.3,3.9-4.9,3.8-5.9c-0.1-1,0.2-1.8,0.8-1.8c1.4,0,1.4-3.7-0.1-4.2
					c-0.8-0.3-0.8-1,0.1-2.7c0.7-1.3,1-2.9,0.7-3.7c-0.3-0.8,0.8-4.2,2.4-7.6c1.6-3.4,2.7-6.6,2.4-7c-0.3-0.5,0-0.8,0.5-0.8
					c0.6,0,1.1-1.6,1.1-3.5c0-1.9,0.5-3.5,1.1-3.5c0.6,0,0.9-0.7,0.5-1.5s0.8-4,2.4-7.1c1.6-3.1,3-6.3,3-7s0.5-1.4,1-1.4
					s1-1.5,1-3.4c0-1.9,0.7-5.1,1.6-7.3c3.5-8.3,7.4-16.3,8.4-16.9C34.8,1463.7,37.5,1463.5,41.2,1463.5L41.2,1463.5z M689.1,1463.8
					c1.1,0,2.7,0.1,5.3,0.4c4,0.4,7.6,1.2,8,1.8c0.5,0.8,0.7,0.8,0.8,0c0-0.6,1.7-1.2,4-1.2c2.2,0,4,0.3,4,0.7
					c0,0.8,8.3,0.7,9.7-0.1c0.5-0.3,3.1-0.5,5.8-0.6s5.9-0.2,6.9-0.4c1-0.2,2.1,0.2,2.3,0.8c0.2,0.6-2.2,1.6-5.4,2.3
					c-5.3,1.2-10,1.2-35,0.3c-7.5-0.3-8.3-0.5-8.3-2.3C687.2,1464.3,687.3,1463.9,689.1,1463.8L689.1,1463.8z M180.6,1464
					c-5.5,0.1-8.1,1.6-10.6,4.9c-5.2,7.2-3.5,11.4,5.6,13.6c8.2,2,13.3,5.5,14.3,9.8c2.9,12.3,4.1,20.7,3.1,21.9
					c-1.1,1.3-1.3,8.9-0.4,13.2c0.3,1.3,0.8,18,1.1,37c0.5,26.3,0.3,36.7-0.7,43.1c-1.4,8.9-1.9,43.1-0.7,42.4
					c0.4-0.2,0.5-6.2,0.3-13.2c-0.3-8.4,0.1-16.6,1.2-24.2c1.2-8.8,1.6-20.1,1.7-48.5c0-20.4-0.3-39.6-0.6-42.7
					c-0.4-3.3-0.3-6,0.3-6.3c0.5-0.3,0.7-1,0.4-1.5s-0.1-1.1,0.5-1.5c0.6-0.4,0.8-1.1,0.5-1.6c-0.3-0.5-0.8-1.9-1-3.2
					c-1.4-6.8-2.4-11.9-2.3-12.6c0.4-2.6-0.6-4.6-3.7-7.7c-3.8-3.8-10.7-7.5-13.7-7.5c-3.9,0-5.7-1.8-5.4-5.6
					c0.4-5.4,3.3-7.7,9.8-7.5c8.5,0.2,63.7,1.1,81.9,1.4l16.5,0.2l0.3,2.8c0.6,5.1-4.2,8.6-14.3,10.7c-7.3,1.5-16.3,5.7-18.1,8.5
					c-1.7,2.6-5.1,22.4-5.9,34c-0.3,4.9-0.8,11.7-1.1,15c-0.3,3.3-0.1,9.2,0.6,13c2.2,13.5,2.3,19.9,0.6,28.2
					c-1.3,6.6-1.5,12-1.1,30.2l0.6,22.1l3.5,9.7c1.9,5.3,3.7,10.1,4.1,10.6c1.8,2.9,0.8-1.3-2.7-11.6l-4-11.8l0.4-23.2
					c0.2-12.7,1-26.7,1.7-31.1c1.1-6.9,1-9.2-0.5-18.2c-1.6-9.3-1.6-12-0.5-26.6c1.3-17.6,4.5-37.4,6.3-39.6
					c2-2.5,10.1-5.9,17.8-7.6c9.9-2.2,14.9-6,14.9-11.5c0-2.1-0.5-4.3-1.2-4.9c-0.9-0.9-11.4-1.2-41.3-1.2c-22,0-43.9-0.5-48.5-1
					C186.2,1464.1,183.1,1463.9,180.6,1464L180.6,1464z M740.1,1464.1c2.7,0.8,3.3,0.4,3.9,3.5c0.9,4.5-1.5,7.2-6.8,7.5
					c-2.1,0.1-3.9,0.7-4.2,1.4c-0.2,0.6-0.9,1.1-1.6,1.1c-1.8,0-7.2,5.3-9.1,8.8c-0.9,1.7-2,3.2-2.5,3.2c-0.5,0-1.1,1.1-1.5,2.5
					c-0.3,1.4-1.1,2.5-1.6,2.5c-0.5,0-1,0.6-1,1.3s-0.9,2.2-2,3.2s-2,2.7-2,3.8s-1.3,4-3,6.4c-1.7,2.4-3,5-3,5.7s-1.5,2.9-3.3,5
					c-2.4,2.8-3.6,3.4-4.7,2.7c-1.3-0.8-1.2-1.3,0.7-3.3c2-2.2,3.9-5.3,10.5-17.8c1.6-3,3.4-5.4,3.9-5.2c0.6,0.2,0.8-0.2,0.4-0.7
					c-0.9-1.5,4.7-10.3,10.4-16.3c3.9-4.1,10.1-7.1,12.7-6.1c1,0.4,1.4,0.2,1.1-0.4c-0.3-0.6,0.5-1.5,1.8-2.1c3.3-1.5,3.2-4.2,0-4.2
					c-1.4,0-2.5-0.6-2.5-1.3C736.9,1464.5,738.2,1463.6,740.1,1464.1L740.1,1464.1z M457.4,1464.1l-0.1,5.7
					c-0.2,6.9,1.3,8.2,10.1,9.2c3.2,0.4,6,1.1,6.3,1.6c0.3,0.5,1.1,0.9,1.6,0.9c0.7,0,0.6-0.5-0.1-1.4c-0.7-0.8-4.1-2.1-7.8-2.9
					c-3.6-0.8-7-2-7.6-2.6c-0.6-0.6-1.4-3.2-1.7-5.8L457.4,1464.1z M1010.1,1464.7c-0.3,0-0.7,0-1.1,0.2c-0.8,0.3-0.6,0.6,0.6,0.6
					c1.1,0,1.6-0.2,1.3-0.5C1010.7,1464.9,1010.4,1464.8,1010.1,1464.7z M1186.9,1464.8c0-0.1-0.4,0.4-1.2,1.3
					c-0.9,1.1-1.6,2.4-1.6,2.9c0,1.3,0.5,0.7,1.9-2.4C1186.6,1465.4,1186.9,1464.8,1186.9,1464.8L1186.9,1464.8z M682.3,1464.8
					c0,0.5,0.6,0.3,0.3,1.1c-0.3,0.8-1.5,1.5-2.5,1.4c-1.9-0.1-2.8-1.7-1-1.7c0.5,0,1.6-0.3,2.5-0.6
					C681.9,1464.9,682.3,1464.6,682.3,1464.8z M348.6,1465c-0.1,0-0.5,0.2-0.9,0.6c-0.8,0.7-1.5,2.9-1.5,5.1c0,4.6,2.7,7.9,6.6,7.9
					c4.4,0,11.2,2.1,12.9,4c2.6,2.9,4.5,11.8,4.5,21.9c0,5.2,0.3,9.1,0.6,8.8c1.4-1.4,0.4-20.3-1.4-25.6c-2.2-6.8-4.9-8.8-13.7-10.4
					c-6.1-1.1-7-1.6-7.8-4c-0.6-1.7-0.5-3.8,0.2-5.8C348.6,1465.8,348.8,1465.1,348.6,1465L348.6,1465z M846.2,1465.3
					c-21.3,0-83.7,3.4-85.7,4.7c-0.8,0.5-0.9,1.6-0.4,5.9c0,0.4,2.7,1.2,5.8,1.9c7.2,1.6,10.8,3.3,12.7,6.3
					c3.4,5.3,5.6,29.6,5.2,58.7c-0.4,28.9,0.1,42.6,1.6,45.5c1.3,2.4,1.3,3.4,0.4,5c-0.7,1.2-1.4,8.9-1.8,19
					c-0.9,24.9-2.7,41.2-5.1,46.4c-2.5,5.2-9,9.7-15.4,10.7c-3.9,0.6-4.3,0.9-3.7,2.8c0.4,1.2,0.9,2.4,1.1,2.6
					c0.4,0.5,18.7,0.6,43.3,0.3c6.3-0.1,18.2-0.1,26.3,0c12.2,0.1,15-0.1,15.7-1.4c1.9-2.9,0.5-4.5-5.6-6.1
					c-12.4-3.3-17.1-7.6-18.4-16.5c-0.5-3.2-1.4-8.1-1.9-10.9c-0.6-2.8-1.2-15.1-1.3-27.5l-0.2-22.5l15-0.7
					c8.3-0.4,15.8-0.4,16.8-0.2c1.1,0.3,2.9,3,4.3,6.2c5.1,11.8,14.5,29.3,25.8,48.2c5.7,9.5,19.3,24.7,24.6,27.5
					c3.2,1.7,13.6,5.2,17,5.7c1.4,0.2,9.9,0.2,19,0c14.7-0.4,17-0.7,21-2.7c5-2.5,8.1-6.8,6.2-8.6c-0.8-0.8-2.5-0.8-6.2,0.1
					c-3.9,0.9-6.3,1-10.3,0c-13.5-3-14.8-3.8-23.5-12.7c-9.2-9.5-16.7-19.8-23.2-31.7c-10.7-19.7-20.1-38.7-20.1-40.5
					c0-1.1,2.1-3.9,4.6-6.3c6.8-6.3,16.9-18.3,19-22.6c2.7-5.5,4.1-11.5,5.5-22.7c1.6-13.6,0.3-22.2-5-33.1
					c-4.4-8.8-8.8-13.8-16.6-18.8c-6.3-4-8.2-4.7-23-8.7C859.4,1465.7,856,1465.2,846.2,1465.3L846.2,1465.3z M685.2,1465.6
					c0.6,0,1,0.4,1,1s-0.4,1-1,1s-1-0.5-1-1C684.2,1466.1,684.6,1465.6,685.2,1465.6z M530.9,1465.9L530.9,1465.9
					c-0.5,0.1-1.1,0.2-2,0.4c-1.8,0.4-17,0.8-33.8,0.9c-37,0.2-34.2-0.1-33.8,2.7c0.3,1.9,1.3,2.4,6.5,3.4c7,1.3,10.2,3,12.2,6.7
					c1.3,2.3,1.1,3.1-1.4,8.4c-5.1,10.6-13.9,20.6-38.3,43.8c-1.2,1.1-8.3,8.4-15.9,16.3c-7.6,7.8-14.4,14.3-15,14.3
					c-0.8,0-1.2-2.2-1.3-6.3c-0.1-3.4-0.3-12.3-0.4-19.7c-0.2-7.6,0.1-14.2,0.7-15.3c0.7-1.2,0.6-3.2-0.1-5.8
					c-0.9-3.2-0.6-6.8,1.1-17.7c2.9-18.2,5-21.2,16.4-23.7c4.7-1,5-1.3,5-4.1v-3h-10.5c-5.8,0-14.1,0.4-18.5,0.8
					c-4.8,0.5-15.4,0.4-26.6-0.3c-14.9-0.9-19.1-0.9-21.5,0.2c-4.2,1.8-3.8,4.1,1.1,5.2c9.5,2.1,11.4,2.7,13.9,4.7
					c5.5,4.3,7,16.8,5.5,46.7c-0.2,5.1,0,9.1,0.7,10.4c0.7,1.4,0.8,3.2,0.3,5.2c-0.5,1.7-0.9,12.5-0.9,24.1
					c0,17.6,0.3,21.4,1.6,23.3c1.5,2.1,1.4,2.5-0.1,4.8c-1.4,2.1-1.7,5.1-1.6,17.7c0.1,17.7-2.2,41.3-4.5,46.2
					c-2.5,5.4-6.1,8.3-11.5,9.4c-2.7,0.6-5.6,1.1-6.4,1.1c-1.5,0-1.9,2.7-0.7,4.6c0.4,0.6,1.6,1.4,2.7,1.6s3.1,0.4,4.5,0.2
					c5.7-0.8,45-0.8,50.6,0c3.4,0.5,10.5,0.5,15.8,0.1c7.9-0.6,9.8-1.1,10.6-2.6c1.6-3.1,0.1-4.6-5.8-6
					c-10.9-2.5-16.6-6.8-17.6-13.3c-0.3-1.7-1.2-7.4-2-12.6c-1.5-9.7-3-56-1.7-56c1.5,0.1,15.6,12.2,17.7,15.2
					c1.2,1.8,3.5,3.9,5.1,4.7s4.4,2.7,6.2,4.2c4,3.4,6.2,3.6,6.2,0.5c0-2.2,0.1-2.2,2.1,0.5c1.1,1.5,2.8,2.8,3.8,2.8
					c1.9,0,6.3,2.9,4.4,3c-0.7,0-2.3-0.4-3.6-0.9c-1.3-0.5-3-0.6-3.6-0.1c-0.9,0.5,0.3,1.9,3.6,4.3c2.7,2,6.6,5.4,8.8,7.8
					c2.2,2.3,8.3,7.9,13.5,12.5c13,11.3,15.8,14,22.1,20.8l5.4,5.8l-2.3,1.9c-1.3,1-3.2,1.9-4.3,1.9c-1.5,0-1.9,0.6-1.6,2.7l0.3,2.7
					l66.5,0v-2.2c0-4.1-1.1-5.3-4.5-5.3c-8.3,0-24.7-12.2-48-35.6c-3.9-3.9-8.4-7.8-10-8.7c-1.6-0.9-6.6-5.3-11-9.9
					s-10.2-9.8-13-11.7c-6.3-4.2-21.5-18-22.4-20.3c-0.4-0.9-4.7-5.4-9.6-10c-5-4.6-9.2-8.7-9.4-9.2s1.6-3,4.1-5.6s5.6-6.2,7-8.2
					c3.5-4.8,21.5-22.7,23.6-23.5c0.9-0.4,4.6-3.9,8.2-7.8c11.5-12.8,26.4-28,32.4-33.1c7.3-6.2,12.3-8.5,19.1-9
					c6.7-0.4,7.5-0.9,7.5-4.7c0-1.8,0-2.5-0.8-2.6v0C531.2,1465.9,531.1,1465.9,530.9,1465.9L530.9,1465.9z M1201.2,1466.7
					c-1,0-1.9,0-2.7,0c-3.3,0.1-5.5,0.4-5.9,1c-0.3,0.6-1,0.8-1.4,0.5c-0.9-0.6-6.4,12.3-11.1,26c-6.7,19.6-9.8,28.3-12.4,35
					c-1.8,4.8-2.5,8.1-2.1,10.5c0.7,4.8-2.3,13.5-4.8,13.5c-1.5,0-2.8,2.7-6.3,13c-2.5,7.1-5.2,15.5-6,18.5c-0.8,3-1.8,6-2.2,6.5
					c-0.4,0.6-1.3,3-2.1,5.5c-0.7,2.5-2.3,7-3.6,10c-1.2,3-3.9,10.9-6,17.5c-3.6,11.6-13.8,34.5-15.3,34.5
					c-1.6,0-13.1,12.5-12.9,13.9c0.5,2.5,9.7,3.4,18.7,1.7c5.6-1,10.7-1.2,19.6-0.6c10.9,0.7,20.7,0.1,22.1-1.3
					c1.2-1.2-1.8-4.6-4.9-5.7c-5.1-1.7-11.6-8.8-11.8-13.1c-0.6-10.7,6.2-35.2,12.3-44.1l1.8-2.6l25.8-0.5
					c14.2-0.3,28.7-0.8,32.3-1.1l6.5-0.6l3.3,9.3c3.7,10.3,10.2,36.5,10.2,40.8c0,6.1-1.8,7.9-10.5,10.5c-2.6,0.8-3,1.4-3.3,5.1
					c-0.3,3.6,0,4.4,2,5.2c1.3,0.5,3.9,0.8,5.8,0.5c17.5-2.2,28.8-2.7,47.7-2.3c14.9,0.3,21.6,0.2,22.3-0.6c1.3-1.5,0.8-6.4-0.5-5.9
					c-0.6,0.2-4.1-0.8-7.7-2.2c-6-2.4-6.9-3.1-9.9-8.3c-1.8-3.1-3.8-7-4.4-8.7c-4.1-10.7-5.7-15.4-6.4-18c-0.7-2.7-2.2-5.8-5-10.5
					c-2.4-4-7.3-17.5-9.5-26c-3.4-13.4-12.2-39-16.7-48.6c-2.1-4.5-4-9.9-4.3-12c-0.3-2.1-1.8-6.3-3.5-9.4c-1.6-3-3.7-8.7-4.6-12.5
					c-0.9-3.8-3.2-10.8-5.2-15.5c-2-4.7-5.2-12.8-7.1-18.1l-3.5-9.6l-6.7-0.6C1207.6,1466.9,1204.1,1466.7,1201.2,1466.7
					L1201.2,1466.7z M182.4,1469.4c-4.8,0.1-8,1.4-9.1,3.7c-1.2,2.7-0.7,3.5,2.4,3.5c6.4,0,17.5,7.7,19.3,13.3
					c2.1,6.6,4.2,24.9,3.1,26.3c-0.7,0.9-0.9,4.5-0.5,10.6c0.3,5.1,0.9,23.9,1.2,41.8c0.6,28,0.4,34.3-1.1,45.5
					c-1.2,8.6-1.6,16.2-1.2,22.5c0.7,11.8-0.8,17.8-5.3,22.5c-3.2,3.3-10.3,6.5-14.5,6.5c-3.4,0-8.5,3-8.5,4.9c0,3.6,8.7,4.4,56.5,5
					c98,1.2,103.1,1.2,104.3-0.2c1.8-2.2,7.3-13.7,9.4-19.7c2.3-6.8,8.8-28.7,8.8-29.8c0-0.5-2.1-1.4-4.6-2.1c-4-1.1-4.9-1-6.3,0.3
					c-0.9,0.8-2.2,1.5-2.8,1.5c-1.8,0-4.8,4.5-10.1,15.5c-4.4,9.1-5.7,10.8-9,12.5c-4.5,2.3-13.2,4.3-28.6,6.6
					c-6,0.9-11.8,1.8-12.9,2c-1,0.2-4.2,0-7-0.5c-2.8-0.5-8.4-1.4-12.4-2c-4-0.6-7.9-1.7-8.6-2.5c-0.7-0.7-3-6.3-5-12.4l-3.7-11.1
					l0.5-28.8c0.3-15.8,0.8-31.5,1.2-34.8c0.5-4.3,0.1-8-1.1-13.1c-1.7-6.7-1.7-8.1,0-28.5c1.9-23.6,3.9-36.3,6.6-40.6
					c2.1-3.5,10.3-7.6,19.5-9.8c8.4-2,12.5-4,12.5-6c0-1.3-5.5-1.5-40.8-1.6c-22.4,0-43.5-0.4-46.8-0.8
					C185.8,1469.4,184,1469.3,182.4,1469.4L182.4,1469.4z M1085.4,1469.4l-43.7,0.3c-24,0.2-44.1,0.5-44.6,0.8
					c-0.5,0.3-1.2,1.7-1.5,3.2c-0.6,2.5-0.3,2.7,5.5,4.7c6.8,2.3,9.1,4.4,12.2,11.2c1.1,2.5,2.7,5.2,3.4,6c0.7,0.8,2,5.1,2.8,9.5
					c0.8,4.4,1.9,9.7,2.5,11.9c0.6,2.4,0.8,15.8,0.4,34.5c-0.7,37.5-0.7,33.7,0.7,39.1c0.6,2.5,0.9,6.5,0.6,9
					c-0.9,7.4-2.3,17.3-3.1,21.2c-0.6,3-0.2,4.6,1.9,8.4c1.4,2.6,2.7,6.3,2.7,8.3c0.3,15.5-0.2,17.8-3.7,16.4
					c-2-0.8-5.4,1.5-5.4,3.6c0,3.6-3.7,6.8-8.7,7.6c-2.6,0.4-6.5,1.2-8.5,1.8c-3.2,0.9-3.8,1.5-3.8,3.9c0,1.6,0.7,3.2,1.8,3.8
					c1,0.6,2.6,0.8,3.7,0.4c1.1-0.3,19.9-0.6,42-0.7l40.1-0.1l1.3-2.8c1.8-3.7,1.1-4.4-4.6-5.1c-5.2-0.7-15.6-6.5-16.7-9.4
					c-5.1-12.5-4.8-7.9-4.6-74.2c0.1-33.8,0.4-64,0.7-67c1.9-18.2,6-31.2,10.9-34.4c1.4-0.9,4.8-2.1,7.7-2.6
					c6.1-1.2,6.5-1.5,7.4-5.8L1085.4,1469.4z M991.6,1471c-0.1,0-0.3,0.1-0.5,0.3c-1.1,1.1-0.6,6.6,0.9,9c0.4,0.7,3.7,2.3,7.2,3.5
					c6,2.1,6.6,2.6,8.9,7.4c1.4,2.8,3.1,5.9,3.9,6.8c1.4,1.6,3.3,10,3.2,14c0,1,0.6,3.2,1.5,4.8c1.3,2.4,1.5,7.5,1.4,29.6
					c-0.1,14.2-0.1,26.6-0.1,28.7c-1.2,2.7-1.9,11.4-0.4,15.1c0.8,2,1.5,5.7,1.5,8.2c0,1.1,0,2,0.1,2.6c0.6-1.6,1.1-2.9,1.3-3.1
					c-0.2-1.9-0.7-4.6-1.7-8.8c-0.6-2.8-1-6.1-0.8-7.4c0.1-1.1,0-1.8-0.4-1.8c-0.1,0,0.2-1.6,0.5-3.1c0.1,0.5,0.3,0.8,0.5,0.6
					c1-1,0.6-59.9-0.4-61.1c-0.5-0.6-1.5-4.6-2.2-8.7c-0.8-4.7-2.3-9.2-4-12c-1.5-2.5-3-5.5-3.4-6.6c-0.9-2.9-3.4-4.9-8.1-6.4
					c-7.1-2.2-8.5-3.6-8.5-8.2C992.2,1472,992,1471,991.6,1471L991.6,1471z M1020.6,1597.9c0,0.2,0,0.3,0,0.4
					C1020.7,1597.9,1020.7,1597.7,1020.6,1597.9z M1020.6,1598.3c0,0.7-0.5,2-0.9,3.6c0.1,0,0.3-0.1,0.5-0.4
					C1020.6,1600.9,1020.6,1596.7,1020.6,1598.3z M1019.7,1601.9c0-0.2-0.3-0.4-0.4-1c-0.4,0.9-0.6,1.6-1.2,3.1c0.1,0,0.1-0.1,0.2,0
					c0.2,0.1,0.3,0.6,0.4,1.5C1019,1604.2,1019.7,1603,1019.7,1601.9z M687.7,1475.6c-0.2,0-0.7,0.4-1.1,1s-0.1,1,0.4,1
					s1.1-0.5,1.1-1C688.2,1476,688,1475.6,687.7,1475.6z M1181.9,1475.6c0-0.3-1.1,1.4-2.3,4.3c-0.8,2-1.3,3.7-1.1,3.7
					c0.7,0,3.5-5.7,3.5-7.1C1182.2,1475.9,1181.9,1475.8,1181.9,1475.6L1181.9,1475.6z M835.7,1482.6c9.5,0,11.7,0.3,16.1,2.4
					c10.4,4.8,15.4,11.1,22.9,28.1c4.8,11,4.8,11,4.2,19.3c-0.6,8.3-3,18.5-5.9,25.2c-3,6.9-12.3,14.1-21.4,16.4
					c-3.4,0.9-6.7,1.5-7.5,1.4c-0.7-0.1-6.2-0.4-12-0.8c-5.9-0.3-11-0.9-11.4-1.3c-1.4-1.4-1.9-12.4-1.3-23.3
					c0.4-6,0.7-12.6,0.6-14.5c-0.4-22.4,1.5-50.9,3.5-52.2C824.2,1482.9,829.6,1482.6,835.7,1482.6L835.7,1482.6z M1178,1484.6
					c0,0-0.1,0-0.2,0.1c-0.4,0.3-1,2.7-1.5,5.3c-0.5,2.6-0.5,4.4-0.1,3.9C1177.1,1493,1178.6,1484.9,1178,1484.6L1178,1484.6z
					 M832.1,1485.7c-6.9,0.1-7.2,2.2-8,13c-0.4,5.7-1.1,12.9-1.5,15.9c-0.9,6.8-0.6,15.8,0.6,18.1c0.5,0.9,0.6,1.9,0.3,2.2
					c-0.3,0.3-0.5,3.1-0.5,6.1c0,3.1-0.3,5.6-0.6,5.6c-1,0-0.8,19.1,0.3,21.5c0.5,1.1,1.2,2.3,1.7,2.6c0.5,0.3,6.2,0.5,12.8,0.5
					c8.7,0,12.3-0.4,13.3-1.4c1.1-1.1,0.9-1.2-1.2-0.6c-2.6,0.8-22.8,0.7-24.2-0.2c-1.1-0.7-1-10.7,0.3-24.1c0.7-7.5,0.7-12.4,0-15
					c-1.4-5.4,1.1-40.2,3-41.4c2.2-1.4,13.3-1,18,0.6c10.3,3.6,15.2,9.3,22.7,26.3c5,11.2,5.3,16,1.8,30c-1.4,5.8-1.8,8.7-1,7.6
					c0.7-1,1.8-4.2,2.4-7.1c0.6-2.9,1.4-5.5,1.8-5.8c1.2-0.7,1.4-17.3,0.3-18c-0.6-0.4-0.8-1.3-0.5-2.1c0.3-0.8,0.1-1.5-0.4-1.5
					c-0.5,0-2-2.6-3.3-5.8c-5.1-12.6-9.9-18.8-18.9-24c-3.7-2.2-5.9-2.7-13.5-3c-1.6-0.1-2.9-0.1-4.1-0.1
					C833.1,1485.7,832.6,1485.7,832.1,1485.7L832.1,1485.7z M-105,1506.5c2.1-10.9-0.2,2.2-0.2,6.9c-0.1,5.9-2.4,14.1-3.7,18.6
					c-0.8,0.7-1.5,1.7-1.5,2.2c0,0.5,0.1,0.8,0.2,0.7c-2.6,4.7-6.9,12.7-7.3,12.5c-0.1-0.1-0.2-0.1-0.4-0.1c-0.1,0-0.2,0-0.2,0v0
					c-0.2,0-0.3,0.2-0.3,0.5c0,1.6-2.8,19.6-3.5,22.7c-0.7,2.8-0.6,2.9,1,1.3c1.2-1.2,1.8-3.4,1.9-7.2c0.1-3,0.4-5.8,0.8-6.2
					c0.4-0.4,0.4-1.3,0.2-2c-0.3-0.7,8-19.6,9.6-23.9c0,0,0-0.1,0.1-0.1c0.7-0.9,1-1.4,1-1.5c0-0.1-0.3,0.1-0.6,0.4
					c2-5.1,4.9-13.2,4.6-13.4c-0.5-0.3-1-3.7-1.2-7.5C-104.8,1507.9-103.5,1499.2-105,1506.5L-105,1506.5z M1168.5,1510.9
					c0.1,0.1-0.3,0.3-0.3,1.1c0,1.1,0.2,1.6,0.5,1.3c0.3-0.3,0.4-1.2,0.1-1.9C1168.7,1511.1,1168.4,1510.9,1168.5,1510.9
					L1168.5,1510.9z M370,1515.2C370,1515.2,369.9,1515.2,370,1515.2c-1.2,0.7-1,19.2,0.3,21.5c1.5,2.9,1.9,1.9,1-2.3
					c-0.5-2-0.8-7.2-0.7-11.6C370.6,1518.6,370.4,1515.4,370,1515.2L370,1515.2z M40,1516.1l1.6,3.7c0.9,2.1,1.5,4.1,1.4,4.5
					c-0.1,0.4,0.5,1.9,1.5,3.3c2.6,3.8,7,16.8,6.3,18.5c-0.3,0.9-0.2,1.2,0.4,0.9c0.5-0.3,1,0.1,1,0.9c0,0.9-0.5,1.6-1,1.6
					c-1.3,0-2.8-4.1-3.1-8.4c-0.1-1.9-0.9-3.7-1.6-4c-0.8-0.3-1.1-1.2-0.8-2c0.4-0.9,0-1.5-1-1.5c-1.1,0-1.4-0.6-1.1-1.9
					c0.3-1.1-0.1-2.2-0.9-2.5c-1.5-0.6-5.3,1.3-5.3,2.7c0,0.4-0.9,0.8-2,0.8c-2.6,0-2.6-0.5,1.4-9.1L40,1516.1z M1167.7,1516.8
					c-0.7,0.2-2.9,5.3-3.9,8.9c-0.3,1.3,0.5,0,1.9-3c1.4-3,2.3-5.6,2.1-5.9C1167.8,1516.8,1167.7,1516.8,1167.7,1516.8z
					 M1196,1517.1c0,0,0.1,0,0.1,0c0.4,0.5,1.3,2.7,2.1,4.9c0.7,2.2,2.2,5.8,3.3,8c1.1,2.2,4.8,12.6,8.3,23
					c3.5,10.5,7.5,22.1,8.9,25.9c1.4,3.8,2.6,7.1,2.6,7.3c0,0.2-12,0.4-26.6,0.4c-24.9,0-26.6-0.1-25.9-1.8c0.4-1,1.5-4.7,2.4-8.3
					c0.9-3.6,2.5-7.9,3.4-9.7c0.9-1.8,1.7-4.2,1.7-5.4c0-2.7,3.6-14.5,5.5-17.9c0.8-1.4,4.1-8.1,7.5-14.9
					C1192.4,1522.3,1195.3,1517.3,1196,1517.1L1196,1517.1z M-64.1,1530.9c0.5,0,0.6,0.8,0.3,1.7c-0.4,0.9-1.1,3.5-1.6,5.8
					c-0.5,2.2-1.6,5.9-2.4,8s-1.9,4.1-2.5,4.3c-0.8,0.3-0.8-0.3-0.2-2c0.5-1.3,1.9-5.8,3.2-10.1
					C-66.1,1534.4-64.7,1530.9-64.1,1530.9L-64.1,1530.9z M697.6,1523.6c0.4,0,0.6,0.5,0.6,1.7c0,1.6-3.8,10.3-4.9,11.3
					c-0.3,0.3-0.6,1-0.6,1.5c-0.1,2.3-1.7,6.5-2.4,6.5c-0.4,0-1,1.4-1.4,3c-0.4,1.9-1.2,3-2.2,3c-1,0-1.4,0.5-1.1,1.5
					c0.7,1.8-1,3-1.7,1.3c-0.4-0.9-0.8-0.8-1.6,0.5c-0.6,1-1.6,1.8-2.2,1.8s-0.2-1,0.9-2.3c2-2.2,3-4,11.2-21
					C694.9,1526.6,696.7,1523.6,697.6,1523.6L697.6,1523.6z M1162.9,1529.1c-0.1,0.1-0.4,1-1.1,3c-0.8,2.2-1.4,6.2-1.5,8.9
					s0.2,4.6,0.6,4.2c0.4-0.4,0.8-2.8,0.8-5.4s0.4-6.3,0.8-8.2C1162.8,1529.8,1163,1529,1162.9,1529.1L1162.9,1529.1z
					 M1195.2,1529.9c-0.4-0.1-0.8,0.2-1.2,0.7c-4.4,7-10.1,18.1-11,21.4c-0.6,2.2-1.7,5.2-2.4,6.6c-0.7,1.4-1.5,4.1-1.9,6
					c-0.3,1.9-1.5,6.1-2.7,9.4c-1.9,5.2-1.9,6.1-0.6,8.1c1.4,2.1,2.1,2.2,17.4,2.4c8.8,0.1,17-0.3,18.3-0.8c1.6-0.6-3.5-1-16.4-1
					c-10.3,0-18.8-0.3-18.8-0.7c0-1.8,3.3-11.5,4.1-11.9c0.5-0.3,0.9-2.2,1-4.3c0-2,0.9-5.7,2-8.1c1.1-2.4,2-5.1,2-6
					c0-0.9,0.6-2.6,1.3-3.7c0.7-1.2,3-5.4,5.1-9.4c2.1-4.1,4.2-6.9,4.7-6.4c0.5,0.5,3.8,9.7,7.4,20.5c7.1,21.4,10.4,29.8,11.8,29.8
					c1.3,0,1.1-0.8-1.7-8.5c-1.4-3.9-4.1-11.1-5.9-16s-4.3-12.4-5.5-16.5C1200.1,1534.8,1197.1,1530.3,1195.2,1529.9L1195.2,1529.9z
					 M40.4,1531.5c0.4,0,0.8,0.8,0.8,1.8s0.7,2.6,1.4,3.6c0.8,1,1.9,3.9,2.5,6.5c2.2,8.9,12.5,36.5,13.9,37c1,0.3,1.2-0.1,0.6-1.8
					c-0.5-1.5-0.4-2,0.4-1.6c0.6,0.4,1.1,0.2,1.1-0.4c0-0.6-0.7-1.1-1.6-1.1c-1.1,0-1.5-0.6-1.1-2c0.3-1.1,0.1-1.8-0.3-1.5
					s-1.2-1.2-1.5-3.2s-1.1-4.3-1.6-4.9c-0.5-0.6-0.8-1.5-0.7-2c0.2-0.9-1.4-5.1-3.2-8.5c-0.9-1.7-0.8-2,0.6-1.7
					c1.2,0.2,3.6,5.5,7.9,17.6l6.3,17.3H48c-13.9,0-17.9-0.3-17.5-1.3c0.4-1.3,6.6-1.8,7.4-0.5c0.3,0.4,1.2,0.4,2.2,0
					c0.9-0.4,5-0.7,9.1-0.6s8.1-0.2,9-0.6c2.7-1.5-4.8-2.2-21.3-1.8L21,1582l0.6-4c0.3-2.2,1.5-5.4,2.6-7.1c1.1-1.7,2-4.8,2-6.8
					c0-2,0.9-5.4,2-7.6c1.1-2.2,2-4.6,2-5.4C30.2,1549.2,39.4,1531.5,40.4,1531.5L40.4,1531.5z M32.7,1535c1.4,0,0.7,2.8-1.1,4.1
					c-0.8,0.6-1.4,1.6-1.4,2.3c0,0.6-0.5,1.1-1,1.1s-1,0.9-1,1.9s-0.5,2.2-1,2.6c-0.6,0.3-0.7,1.1-0.4,1.6s0.3,2.2-0.1,3.6
					c-0.5,2.1-0.9,2.3-1.6,1.2c-0.7-1.1-0.9-0.6-0.9,1.8c0,1.8-0.5,3.3-1.1,3.3s-0.8,0.5-0.4,1s0.1,1.7-0.6,2.5
					c-0.9,1.1-0.9,1.5,0,1.5c1.4,0,1.1,1.9-1.8,9.7c-2.4,6.6-1.9,11.5,1.1,11.2c4.4-0.3,7.6,0.1,7.6,1.1c0,0.6-3.4,1-8.1,1
					c-8,0-8.1,0-7.4-2.3c0.4-1.2,1.4-4.7,2.2-7.8c0.8-3,2.1-6.7,2.9-8.2c0.8-1.5,1.5-4.1,1.5-5.8c0-3.4,3.5-11.1,5-11.1
					c0.5,0,1-0.5,1-1.1c0-0.6-0.5-0.7-1.1-0.4c-0.8,0.5-1-0.1-0.5-1.9c1-3.8,4.6-9.7,6.1-9.7c0.7,0,1.2-0.8,1.2-1.8
					S32.1,1535,32.7,1535L32.7,1535z M-70.2,1551.9c0.1,0,0.2,0.1,0.3,0.2c0.4,0.4-0.1,1.7-0.9,2.9c-1,1.5-1.6,1.8-1.6,0.8
					C-72.4,1554.1-71.1,1551.9-70.2,1551.9L-70.2,1551.9z M371,1540.4c-0.7,0.1-1.8,9.4-1.8,16.3c0,2.7,0.5,4.9,1,4.9
					c0.6,0,0.8-1.5,0.6-3.3c-0.2-1.8-0.1-6.3,0.3-10c0.4-3.7,0.4-7.2,0-7.8C371.1,1540.4,371,1540.4,371,1540.4L371,1540.4z
					 M-72.4,1557.4l-0.6,4.5c-0.3,2.5-1,4.9-1.5,5.5c-1.3,1.3-1.2-0.2,0.6-5.5L-72.4,1557.4z M-75.4,1568.9c0.6,0,0.8,0.5,0.4,1
					c-0.3,0.6-0.8,1-1.1,1s-0.4-0.4-0.4-1C-76.4,1569.3-75.9,1568.9-75.4,1568.9L-75.4,1568.9z M679.1,1556.8c0,1.1,2,0.9,1.5,2.3
					c-0.3,0.8-0.9,1.5-1.4,1.5c-1.5,0-2.2-2.1-1.2-3.2C678.3,1557,679.1,1556.4,679.1,1556.8z M-76,1572.2c0.4,0,0.6,0.3,0.6,0.8
					c0,0.7-0.5,2-1,2.8c-0.8,1.2-1,1.1-1-0.7c0-1.2,0.4-2.5,1-2.8C-76.3,1572.3-76.2,1572.3-76,1572.2L-76,1572.2z M676.9,1560.5
					c1.1,0,1.3,0.6,0.8,2.3c-0.4,1.2-1.4,4.8-2.3,8s-1.9,5.8-2.4,5.8c-1.1,0-1.1,3.4-0.1,4.4c1.1,1.1,0.9,30-0.3,30.8
					c-0.6,0.5-0.5,0.7,0.3,0.8c0.8,0,1.3,1.6,1.3,4.4c0,2.6-0.5,4.6-1.3,4.9c-1,0.4-1,0.5,0,0.6c1.5,0.1,1.7,4.1,0.3,4.1
					c-0.6,0-1,0.7-1,1.6s0.4,1.3,0.9,1c0.5-0.3,1.1,3.5,1.5,8.3c0.3,4.9,1.1,10,1.6,11.5c0.6,1.5,1.2,3.8,1.5,5.3
					c0.7,3.6,4.2,7.1,9.6,9.5c2.5,1.1,5.3,2.7,6.3,3.6c2.3,2,2.2,5.5-0.2,7.7c-2.3,2-14.9,3-18.8,1.5c-1.3-0.5-5.6-0.7-9.8-0.5
					c-5.4,0.3-7.5,0.1-7.5-0.8c0-0.8-0.3-0.8-0.8-0.2c-0.9,1.2-13.3,1.5-12.6,0.3c0.3-0.4,0-0.8-0.5-0.8c-0.6,0-1.2,0.4-1.5,0.9
					c-0.9,1.5-15.4,1.1-16.6-0.4c-0.9-1.1,3.9-1.3,27.9-1.4c19,0,29.2,0.3,29.7,1c0.4,0.6,1.2,0.7,1.8,0.3c0.6-0.4,2.1-0.6,3.3-0.5
					c2.4,0.3,4.9-2.2,3.9-3.9c-0.4-0.6-3-2.2-5.8-3.4c-5.6-2.5-7.5-4.2-10.2-9.5c-3.7-7.2-4.5-16.1-4.5-49.5
					C671.2,1569.5,672.3,1560.5,676.9,1560.5L676.9,1560.5z M439.9,1560.6C439.9,1560.6,439.8,1560.6,439.9,1560.6
					c-0.3,0.3,2.8,4,6.9,8.3c4.1,4.3,7.4,8.3,7.4,8.8c0,0.5,2.1,3,4.6,5.5c3.7,3.6,4.3,4.8,3.3,5.5c-1.1,0.7-1,0.8,0.4,0.4
					c1.2-0.4,3.6,0.9,7,3.7c2.9,2.3,7,5.6,9.1,7.2s5.1,4.3,6.5,5.9c5.9,6.6,10.4,10.5,13.4,11.7c3.4,1.3,8.7,5.7,8.7,7.2
					c0,0.9,5.8,6.7,6.7,6.7c1.5,0,9.3,7.7,8.9,8.7c-0.3,0.7-0.2,1.2,0.2,1.1c1.7-0.4,4,1.5,3.5,2.8c-0.3,0.8-0.1,1.4,0.5,1.4
					c1.6,0,7.2,5.3,7.2,6.8c0,0.7,0.4,1.1,0.9,0.8c0.5-0.3,3.4,1.3,6.5,3.4c3.1,2.2,6.1,4,6.6,4s1,0.3,1,0.8c0,0.4,1.3,0.8,2.8,0.8
					c7.3,0.3,10.7,3.7,10,10.1c-0.3,2.5-0.8,2.8-5.3,3.5c-2.8,0.4-5.1,0.4-5.3,0c-0.1-0.4-1.9-0.6-3.9-0.3c-2.3,0.3-3.9-0.1-4.5-1
					c-0.5-0.8-0.9-0.9-0.9-0.4c0,0.6-5.1,1.1-12.8,1.2c-7,0.1-18.4,0.4-25.3,0.6c-6.9,0.2-13.3,0-14.2-0.5c-2-1-2.3-8.4-0.5-10.9
					c0.6-0.8,0.1-0.6-1.1,0.4c-2.9,2.4-2.9,7.4-0.2,11l2.1,2.6h35.8c40.5,0,38.6,0.4,38.6-8.1c0-6-2.9-9.4-8.6-10.2
					c-9.4-1.3-17.6-7.5-45.5-34.7c-4.5-4.3-9.7-8.7-11.7-9.6c-2-0.9-6-4.7-9-8.3c-3-3.6-8-8.4-11.1-10.6
					c-7.8-5.4-22.4-18.4-23.1-20.4C455.1,1574.8,441.3,1560.9,439.9,1560.6L439.9,1560.6z M862.7,1561.5c-0.2,0-0.7,0.5-1.1,1
					c-0.3,0.6-0.1,1,0.4,1c0.6,0,1.1-0.4,1.1-1C863.2,1562,863,1561.5,862.7,1561.5z M188.2,1561.6
					C188.2,1561.6,188.2,1561.6,188.2,1561.6c-0.1,0.1-0.2,0.1-0.3,0.2c0.2,0.2,0.4,0.5,0.6,0.7c0.1,0,0.1,0,0.2,0c0,0-0.1,0-0.1,0
					c0-0.1-0.1-0.2-0.1-0.3C188.4,1562,188.3,1561.7,188.2,1561.6L188.2,1561.6z M188.5,1562.1c0,0.1,0.1,0.2,0.2,0.3c0,0,0,0,0,0
					c-0.1-0.3-0.2-0.8-0.3-0.9C188.4,1561.8,188.5,1561.9,188.5,1562.1L188.5,1562.1z M370.3,1562.5c-0.7,0-0.7,4.8-0.1,11l0.2,2.5
					l0.7-2.3C371.8,1570.9,371.3,1562.5,370.3,1562.5L370.3,1562.5z M-122.7,1575.1C-122.7,1575.1-122.7,1575.1-122.7,1575.1
					c-0.2,0.1-0.4,0.3-0.6,0.8c-0.5,0.8-1.2,2.5-1.5,3.8c-0.4,1.2-0.3,2.3,0.3,2.3c1.2,0,2.2-2.5,2.1-5.3
					C-122.5,1575.6-122.5,1575.1-122.7,1575.1L-122.7,1575.1z M-77.4,1577.9c0.6,0,0.8,0.5,0.4,1c-0.3,0.6-0.8,1-1.1,1
					s-0.4-0.4-0.4-1C-78.4,1578.3-77.9,1577.9-77.4,1577.9L-77.4,1577.9z M855.5,1566.6c-0.5,0-1.3,0.3-2.3,0.9
					c-1.3,0.8-1.3,1,0.2,1c0.9,0,2-0.4,2.3-1C856.1,1566.9,855.9,1566.6,855.5,1566.6z M-78.5,1580.8c0.2,0,0.5,0.1,0.7,0.3
					c0.3,0.3,0.4,1.2,0.2,1.9c-0.3,1-0.6,1-1.2,0C-79.5,1582-79.2,1580.9-78.5,1580.8L-78.5,1580.8z M-79.3,1584.8
					c0.1,0,0.2,0,0.3,0.2c0.4,0.9,0,3.2-0.7,5.1c-0.8,1.9-1.4,4.7-1.4,6.2c0,1.5-0.5,3.3-1.1,3.9c-1.5,1.5-1.4,0.7,0.8-8.8
					C-80.6,1587.2-79.8,1584.9-79.3,1584.8L-79.3,1584.8z M-5.6,1572.5c0.5,0,0.6,1,0.3,2.2c-1.1,3.4-3.4,8.4-3.4,7.5
					C-8.9,1580-6.5,1572.5-5.6,1572.5L-5.6,1572.5z M370.3,1576.7c-0.2,0.3-0.7,1.8-0.5,5.6c0.1,3.2,0.3,5.9,0.3,6
					c0.1,0.1,0.4,0.3,0.9,0.3c0.4,0,0.6-2.7,0.4-6C371.1,1578.7,370.5,1576.4,370.3,1576.7L370.3,1576.7z M-70.9,1589.8l0.4,0.2
					C-70.1,1589.9-70.8,1589.9-70.9,1589.8z M273,1578.7c-0.1,0.3-0.1,0.4-0.1,0.6C273.2,1579.2,273.2,1579,273,1578.7z
					 M-10.6,1587.5c0.4,0-5.7,17.4-7.9,23.6s0.2,0.7-0.3,2.9c-1.2,5.8-3.8,13.2-6.9,19.5c-1.5,3-3.3,7.2-4,9.2
					c-0.7,2.1-1.6,4-2.1,4.3c-1.5,0.9-1.2,0.1,3.6-11.1c2.5-5.8,4.5-11.1,4.5-11.9s0.8-3.1,1.7-5.2c0.9-2.1,1.8-4.3,1.8-4.9
					c0.1-1-0.6-1.1,0.6-4.2c0.3-0.8,0.6-1.7,0.7-2C-18.2,1604.9-11.2,1587.5-10.6,1587.5L-10.6,1587.5z M-83.2,1601.9
					c0.4,0,0.5,1.5,0.2,3.3c-0.7,3.6-3.2,9-3.3,7C-86.4,1609.8-84,1601.9-83.2,1601.9L-83.2,1601.9z M370.1,1592.8
					c0,0-0.1,0-0.2,0.1c-0.9,1.4-1,11.1-0.1,12c0.4,0.4,0.7,0.7,0.8,0.7c0.1,0,0.1-3.1,0.1-6.9
					C370.7,1595.3,370.5,1592.9,370.1,1592.8L370.1,1592.8z M378.3,1593.5c-0.6,0,0.8,0.5,0.4,1c-0.3,0.6-0.8,1-1.1,1
					s-0.4-0.4-0.4-1C377.2,1594,378.8,1593.5,378.3,1593.5L378.3,1593.5z M415.9,1593.5c-1.8,0,11.4,13.7,14,14.4
					c1.2,0.4,2.4,1.3,2.7,2.1c0.3,0.8,2,2.2,3.8,3.1c4.1,2.1,12.1,8.9,20.8,17.4c3.6,3.6,9.7,9.1,13.6,12.1c3.8,3.1,9.7,8.3,13,11.7
					s6.3,6.1,6.7,6.1c1.6,0.2-0.6-4-3-5.6c-5.1-3.3-32.3-29.9-31.4-30.7c0.3-0.3-0.1-0.6-1-0.6s-1.7-0.4-1.7-0.8
					c0-0.5-1.1-1.3-2.4-1.9c-1.3-0.6-3.9-2.4-5.8-4c-3.3-2.9-5.7-4.5-12.9-8.7c-3.3-1.9-4.6-3.1-11.8-10.9
					C418.6,1595.1,416.6,1593.5,415.9,1593.5L415.9,1593.5z M413.1,1595c-1.4,0.2-0.2,36,1.4,42.8c0.9,3.7,1.7,8.6,1.7,10.8
					c0,3.2,0.6,4.6,3.1,6.9c2.8,2.6,11,5.9,14.6,5.9c0.8,0,2.4,1,3.6,2.3c2.8,2.8,2.5,9.2-0.5,10.8c-2.5,1.3-31.8,2.4-31.8,1.1
					c0-0.5-2.6-0.8-5.8-0.7c-37.5,1.5-45.3,1.7-47.5,1.1c-2.8-0.7-5.3-5.5-4.9-9.5c0.1-1.4-0.2-2.1-0.8-1.7
					c-0.6,0.4-1.1,2.2-1.1,4.2c0,2.6,0.8,4.3,2.9,6.4l2.9,2.9l21.3-0.7c11.7-0.4,22.9-0.6,24.8-0.5s9,0.5,15.8,0.8
					c13.7,0.7,24.1,0,26.7-2c1.1-0.8,1.9-3.1,2.2-6.5c0.7-6.8-0.9-8.5-9.9-10.7c-9.4-2.3-13.3-5-13.7-9.5c-0.1-1.9-0.8-5.5-1.3-8
					c-2-8.2-3.4-22.4-2.8-27.5C415,1608.4,414.3,1595.7,413.1,1595C413.2,1595,413.2,1595,413.1,1595L413.1,1595z M-124.9,1613.9
					c-0.2,0-0.7,0.5-1.1,1c-0.3,0.6-0.1,1,0.4,1s1.1-0.4,1.1-1C-124.4,1614.3-124.6,1613.9-124.9,1613.9L-124.9,1613.9z
					 M-86.6,1613.9c0.1,0,0.2,0.3,0.2,1c0,0.8-0.4,2.2-1,3c-0.9,1.3-1,1.3-1,0c0-0.8,0.4-2.2,1-3
					C-87,1614.2-86.7,1613.9-86.6,1613.9z M16.3,1606.6c4.6,0.5,6.9,0.4,6.9,1.2c0,0.7-1.6,1.1-4.3,1.1c-6.8-0.2-10.9,3-13.3,10.6
					c-0.1,0.3-0.7,1.8-1.4,3.5c-2.6,6.1-5,15.1-5,18.9c0,3-0.3,3.7-1.5,3.3c-0.8-0.3-1.5-0.1-1.5,0.4s0.5,1,1,1s1,1.3,1,2.9
					s-0.7,3.5-1.7,4.3c-1.5,1.2-1.6,1.1-1-1.5c0.5-1.9,0.4-2.6-0.3-2.2c-0.6,0.4-1-0.7-1-2.9c0-1.9,0.4-3.8,0.9-4.1
					c0.5-0.3,1.2-2.9,1.6-5.7c1.2-8.7,6.1-21.9,10.3-27.5C9.3,1606.8,9.7,1606,16.3,1606.6L16.3,1606.6z M-88.6,1620.7
					c0.1,0,0.1,0.2,0.1,0.5c0,1.8-2.4,10.2-3.2,11.3c-0.5,0.7-1.2,2.4-1.6,3.8c-0.4,1.4-1,2.4-1.3,2c-0.3-0.3,0.7-4.2,2.2-8.6
					C-90.3,1623.8-89,1620.7-88.6,1620.7L-88.6,1620.7z M370.7,1610.2c-0.1-0.1-0.2,0.5-0.4,1.8c-0.5,3.3-0.9,10.2-1,15.4
					c-0.1,5.2,0.1,9.3,0.4,9c0.3-0.3,0.7-7.2,1-15.4C370.8,1613.9,370.9,1610.3,370.7,1610.2L370.7,1610.2z M338.1,1617.5
					c-0.6,0-0.8,0.5-0.4,1c0.3,0.6,0.8,1,1.1,1s0.4-0.4,0.4-1C339.2,1618,338.7,1617.5,338.1,1617.5L338.1,1617.5z M333.7,1618.6
					c-0.5,0-1.7,0.4-2.5,1c-0.8,0.5-1,1-0.5,1s1.7-0.4,2.5-1C334,1619,334.2,1618.6,333.7,1618.6z M343.4,1618.6
					c-1,0,0.3,0.8,2.8,1.8c4.3,1.7,4.5,1.9,4.4,5.7c-0.3,8.9-7.2,31.5-13.5,44c-2.2,4.4-4.5,8.4-5,9c-1,1-80.7,1-127.4-0.1
					c-24.7-0.5-33.2-1.5-37.4-4.1c-2.1-1.3-2.3-2.1-1.8-6.1c0.5-4.2,0.4-4.4-0.9-2.7c-0.8,1.1-1.4,3.5-1.4,5.5c0,7,5.3,8.1,40.5,9
					c15.4,0.4,50.7,0.8,78.5,0.9l50.5,0.2l1.4-2.3c3.8-6,9.1-18.4,12.4-28.8c8.4-27,8.5-28.1,2.7-30.4
					C347,1619.3,344.4,1618.6,343.4,1618.6L343.4,1618.6z M-95.7,1640.3c0.1,0,0.3,0,0.4,0.1c1.3,0.8,0.2,4.7-1.7,5.8
					c-0.8,0.4-1.1,1.2-0.8,1.7s-0.5,2.8-1.7,5.2c-1.2,2.4-2.3,4.5-2.4,4.8c-0.1,0.3-0.6,1.7-1.3,3.3c-1.2,2.8-2.2,3.6-2.2,1.7
					c0-0.6,0.4-1.8,0.9-2.8c0.5-1,1.6-3.5,2.4-5.7c3.2-8.3,4.2-10.5,4.9-10.5c0.4,0,0.8-0.9,0.8-2.1
					C-96.4,1640.9-96.1,1640.4-95.7,1640.3L-95.7,1640.3z M638.7,1631.5c0,0.9,1.3,0.5,1,1.1c-0.4,0.6,0.3,2.1,1.5,3.4
					c1.7,1.8,2,2.9,1.4,5.2c-0.4,1.6-0.8,3.3-0.8,3.9c0,0.5-0.7,1.1-1.6,1.3c-1.3,0.2-1.6-0.8-1.7-5.4c-0.1-3.1-0.4-6.5-0.7-7.5
					C637.3,1632.1,638.7,1630.4,638.7,1631.5L638.7,1631.5z M331.1,1632.8c0.1,0,0.2,0.1,0.2,0.3c0,0.6-0.6,1.9-1.4,3
					c-0.8,1.1-1.5,1.5-1.5,0.9s0.6-1.9,1.4-3c0.5-0.7,1-1.1,1.2-1.1C331,1632.8,331,1632.8,331.1,1632.8L331.1,1632.8z
					 M751.5,1633.4L751.5,1633.4c0.2,0,0.4,0,0.5,0H751.5z M320.6,1634.9c-0.1,0.1-0.2,0-0.3,0.1c-0.5,0.3-1,1-1,1.6
					c0,1.4,0.7,1.1,1.4-0.6C320.9,1635.3,320.8,1634.7,320.6,1634.9L320.6,1634.9z M368.6,1637.9c0.2,0-0.3,0.3-0.3,1.1
					c0,1.1,0.2,1.6,0.5,1.3c0.3-0.3,0.4-1.2,0.1-1.9C368.8,1638,368.5,1637.9,368.6,1637.9z M327.9,1638.9c0.2,0,0.4,0.2,0.4,0.5
					c0,0.6-0.5,1.3-1,1.6s-1,0.2-1-0.4c0-0.5,0.5-1.3,1-1.6c0.1-0.1,0.3-0.1,0.4-0.2C327.7,1638.9,327.8,1638.9,327.9,1638.9z
					 M-239.8,1654.7C-239.8,1654.7-239.8,1654.7-239.8,1654.7C-239.7,1654.7-239.7,1654.7-239.8,1654.7
					C-239.7,1654.7-239.8,1654.7-239.8,1654.7z M367.7,1643.3c0,0.1-0.2,0.7-0.2,1.7c0,1.7,0.2,2.4,0.5,1.8c0.3-0.7,0.3-2,0-3
					C367.8,1643.4,367.7,1643.2,367.7,1643.3L367.7,1643.3z M-239.2,1658.1L-239.2,1658.1C-239.2,1658.1-239.1,1658.1-239.2,1658.1
					C-239.2,1658.1-239.2,1658.1-239.2,1658.1z M374.6,1645.9c-0.1,0,0.2,0.2,0.3,0.5c0.3,0.7,0.3,1.6-0.1,1.9
					c-0.3,0.3-0.6-0.3-0.5-1.3C374.4,1646.2,374.8,1645.9,374.6,1645.9z M639.3,1648.4c0.1,0,0.2,0,0.3,0.1
					c1.3,1.3-1.7,6.9-6.6,12.5c-3,3.5-4.9,4.5-10.2,6c-7.4,2-9.5,3.7-7.6,6.1c0.7,0.8,2.5,1.4,4.1,1.3c1.6-0.1,3,0.2,3.1,0.8
					c0.2,0.5-1.6,1.1-3.8,1.3c-5.1,0.4-7.5-1.6-6.7-5.6c0.7-3.8,1.4-4.4,9.7-7.2c6.8-2.4,7.5-2.9,12.2-9.3
					C636.5,1650.5,638.5,1648.5,639.3,1648.4L639.3,1648.4z M322.9,1648.9c0,0,0.1,0,0.1,0.1c0.3,0.3-0.2,1.4-1.2,2.3
					c-1.7,1.7-1.8,1.6-0.6-0.6C321.8,1649.6,323.2,1648.7,322.9,1648.9L322.9,1648.9z M-34.5,1650.6c0.2,0,0.3,0.4,0.5,1.3
					c0.4,1.8-0.9,3.6-10.5,13.3c-6.3,6.4-5.8,8,2.7,8.8c3.8,0.4,7.4,0.4,8.1,0c0.6-0.4,6.9-1.1,14.1-1.5c10.6-0.7,13.7-0.6,17.2,0.6
					c3.5,1.2,5,1.3,8.7,0.3c2.5-0.7,4.8-1.4,5.2-1.6c1.6-0.8-0.7-3.4-4.6-5.3c-5.7-2.7-10.9-7.5-10.5-9.6c0.5-2.6,2-2.1,3.9,1.4
					c0.9,1.7,1.9,2.9,2.2,2.6s2.8,0.7,5.6,2.2c9.5,4.9,8.7,13.3-1.3,13.5c-11.7,0.3-21.9-0.7-22.4-2.1c-0.2-0.5-0.8-1-1.3-1
					s-0.7,0.4-0.4,0.9c0.3,0.5-1,1-2.9,1c-6.3,0.2-7,0.3-8,1.1c-1.8,1.4-9,1.8-13,0.8c-2.2-0.6-4.7-1.1-5.5-1.2
					c-3.7-0.4-5.2-2.3-4.5-5.5c0.4-1.7,1.3-3.1,2.1-3.1c0.8,0,1.4-0.6,1.4-1.3s2.6-3.8,5.8-6.8s6.2-6.4,6.7-7.5
					C-34.9,1651.1-34.7,1650.6-34.5,1650.6L-34.5,1650.6z M374.2,1652.5c0.5,0,0.7,0.7,0.4,1.5c-0.3,0.8-0.8,1.5-1,1.5
					c-0.2,0-0.4-0.7-0.4-1.5C373.3,1653.2,373.7,1652.5,374.2,1652.5z M-105.9,1665.2c0,0,0.1,0,0.1,0c0.1,0,0.3,0.2,0.5,0.4
					c0.8,0.8,0.8,1.6,0,2.9c-0.9,1.6-1.1,1.5-1.1-1.1C-106.3,1666-106.2,1665.3-105.9,1665.2z M-235.6,1665.9c0,0.1,0,0.2,0,0.2
					C-235.6,1666.2-235.6,1666-235.6,1665.9C-235.6,1666-235.6,1665.9-235.6,1665.9z M254.1,1654.7c-0.5,0-1.1,0.1-1.6,0.2
					c-1,0.3-0.4,0.5,1.2,0.5s2.4-0.2,1.8-0.5C255.2,1654.7,254.7,1654.7,254.1,1654.7z M-234.8,1667.2c0,0.1,0.1,0.3,0.2,0.4
					C-234.6,1667.7-234.8,1667.3-234.8,1667.2C-234.8,1667.2-234.8,1667.2-234.8,1667.2z M1010.2,1657.7c-0.3,0-0.7,0-1.1,0.2
					c-0.8,0.3-0.6,0.6,0.6,0.6c1.1,0,1.6-0.2,1.3-0.5C1010.8,1657.8,1010.5,1657.7,1010.2,1657.7z M-106.1,1670.9
					c0.5,0,0.7,0.8,0.4,1.8c-0.3,1-1,4.4-1.5,7.7c-1.4,9-2.1,11.8-3.4,13.4c-0.7,0.8-1.1,1.6-0.9,1.8c0.1,0.2,0.3,1.2,0.3,2.3
					c0,1.1-0.5,2-1,2c-1.5,0-1.2-3,0.9-9.6c1-3.3,2.4-9,3.1-12.7S-106.7,1670.9-106.1,1670.9L-106.1,1670.9z M-232.4,1670.9
					c0,0.1,0,0,0,0.1c0,0,0,0,0,0C-232.3,1671-232.4,1670.9-232.4,1670.9L-232.4,1670.9z M370.9,1658.9c0,0.1,0.3,0.1,0.4,0.2
					c0.5,0.3,1,0.8,1,1.1c0,0.2-0.5,0.4-1,0.4s-1-0.5-1-1.1C370.3,1659,370.9,1658.5,370.9,1658.9L370.9,1658.9z M357.4,1659.5
					c0.6,0-1.1,0.4-1.1,1c0,0.5,0.2,1,0.4,1s0.7-0.5,1.1-1C358.1,1660,356.8,1659.5,357.4,1659.5L357.4,1659.5z M170.5,1660.5
					c-0.5,0-1.6,0.7-2.2,1.5c-0.7,0.8-0.8,1.5-0.2,1.5c0.5,0,1.6-0.7,2.2-1.5C171,1661.2,171.1,1660.5,170.5,1660.5L170.5,1660.5z
					 M769.8,1661.1c-0.5,0-1.4,0.4-2.4,0.9c-1.6,0.8-4,1.5-5.4,1.5c-1.3,0-3.6,0.9-5,2.1c-5.1,4-2.4,14.1,4.1,15.3
					c1.5,0.3,10.8,0.2,20.7-0.2c19.5-0.7,22.6-0.7,47.7-0.3c15.8,0.3,16.9,0.2,19.8-1.9c2.7-1.9,3.1-2.8,3.1-6.9
					c0-5.4-1.6-7.5-6.5-8.6l-3-0.6l3.1,1.4c3.5,1.6,4.4,3.3,4.4,8.1c0,2-0.8,4-2.1,5.2c-1.9,1.7-3.7,1.9-15.8,1.9
					c-7.5,0-17.2-0.2-21.6-0.4s-16.5,0-26.8,0.4c-14.4,0.6-19.7,0.5-22.7-0.5c-2.2-0.7-3.7-1.7-3.4-2.1c0.3-0.5,0-0.9-0.5-0.9
					c-0.6,0-1.1-1.8-1.1-4c0-4.4,1.1-5.3,9.8-8c2.3-0.7,4.3-1.7,4.3-2.2C770.3,1661.2,770.1,1661.1,769.8,1661.1L769.8,1661.1z
					 M-231.1,1673.8c0,0-0.1,0-0.1,0c0.1,0,0.2,0.1,0.3,0.1c0,0,0,0,0,0c0,0,0,0,0,0C-231,1673.9-231.1,1673.8-231.1,1673.8
					L-231.1,1673.8z M-230.9,1673.9c-0.1,0-0.3,0-0.5-0.1c0,0,0,0,0,0c-0.1,0.2-0.3,0.4-0.5,0.6c0.7,0.1,1.3,0.1,1.4,0
					c-0.1-0.1-0.1-0.2-0.2-0.3c0,0,0,0,0,0c0.1,0.2,0.2,0.3,0.2,0.3c-0.2-0.1-0.2-0.2-0.2-0.3
					C-230.8,1674.1-230.8,1674-230.9,1673.9C-230.9,1673.9-230.9,1673.9-230.9,1673.9L-230.9,1673.9z M-236.8,1673.8
					c0.1,0.5,0.3,0.8,0.4,0.5C-236.5,1674.2-236.6,1674-236.8,1673.8z M369.8,1661.6c0-0.4,0,0.8-1.4,2.3c-1.2,1.3-3.2,2.7-4.4,3
					c-1.7,0.4-1.4-0.1,1.3-2.4C367.7,1662.5,369.8,1662.1,369.8,1661.6L369.8,1661.6z M-235.1,1674.5c-0.2,0.2-0.2,0.2-0.3,0.3
					c0,0,0,0,0,0.1C-235.3,1674.7-235.3,1674.7-235.1,1674.5C-235.1,1674.5-235.1,1674.5-235.1,1674.5L-235.1,1674.5z
					 M-235.5,1674.8C-235.7,1675-235.8,1675.1-235.5,1674.8C-235.5,1674.9-235.5,1674.8-235.5,1674.8z M-60.3,1667.1
					c-0.1,0.1-0.3,0.2-0.4,0.3C-60.2,1667.4-60.1,1667.3-60.3,1667.1z M-112.9,1701c0.8,0.1,0.2,2.2-2,7.5c-1.3,3.1-2.4,4.3-2.4,2.6
					c0.1-2.5,2.9-9.7,3.9-10.1C-113.2,1701-113,1701-112.9,1701L-112.9,1701z M-92.5,1706c0,0.1,0.1,0.2,0.1,0.3c0-0.1,0-0.1,0-0.2
					C-92.4,1706.1-92.5,1706-92.5,1706z M427.2,1708.1c-3.3,0-6.6,0.4-10.1,1.1c-8.5,1.7-18.2,6.3-22.6,10.6
					c-3.4,3.4-8.2,12.2-9.8,18.2c-2.1,7.7-1,21.3,2.2,28.1c5.1,10.9,12,17.5,23.4,22.3c5.3,2.2,7,2.4,18.3,2.2
					c12.3-0.3,12.6-0.4,20.3-4.2c8.4-4.2,12.4-8.3,17-17.1c3.8-7.4,5-14.2,4.2-23.2C468,1723,450.1,1707.8,427.2,1708.1
					L427.2,1708.1z M-28.7,1708.6c-3.8,0.1-9.6,0.9-13,1.8c-3.4,0.9-6.9,1.8-7.9,2c-2.2,0.5-9.7,6.3-9.7,7.6c0,0.5-0.8,0.9-1.8,1
					c-1.1,0-2.9,2.4-5,6.8c-9.5,19.5-6.2,40.8,7.9,52.2c6.8,5.5,13.9,9.2,19.3,10.1c11,1.8,31.8-0.2,35.4-3.5
					c2.7-2.4,5.2-12.3,4.9-18.6l-0.3-5.5h-3.4c-3.3,0-3.5,0.2-4.6,5.4c-2,9-7.6,11.7-21.8,10.7c-5-0.4-9.3-1-9.6-1.4
					c-0.3-0.4-1.9-1.4-3.5-2.2c-8.6-4.4-13.2-25.7-8.9-40.8c2.1-7.3,4.3-9.6,11.7-12.1c7.2-2.4,14.4-2.6,21.4-0.5
					c4.5,1.3,5.4,2.1,7.2,5.9c1.2,2.4,2.1,5,2,5.7c-0.4,3,0.2,3.8,3,3.8c5,0,5.7-1.7,6-13.8c0.1-6.1-0.1-11.2-0.6-11.5
					C-1.8,1710.5-22,1708.4-28.7,1708.6L-28.7,1708.6z M709.8,1709.1c-3.3,0-5.7,0.1-6.3,0.3c-1.2,0.4-1.8,1.6-1.8,3.8
					c0,2.6,0.5,3.4,2.9,4.3c5.3,2,6.3,5.9,7.1,25.9c0.4,9.9,0.3,20-0.1,22.5c-0.4,2.4-0.5,5.9-0.2,7.6c0.8,4.2-1.8,8.1-6,9.2
					c-2.6,0.7-3.2,1.4-3.4,4c-0.2,2.5,0.2,3.4,1.7,3.9c1.1,0.4,8.9,0.6,17.3,0.5c12.9-0.2,15.5-0.5,16.6-1.9
					c2.1-2.8,1.4-4.3-3.2-6.3c-3.3-1.4-4.7-2.7-5.3-4.7c-0.4-1.5-0.7-13.9-0.5-27.5c0.3-28.3,0.9-31.7,5.9-33.1
					c2.4-0.7,3.4-1.6,3.8-3.9c0.4-1.6,0.4-3.2,0.1-3.5C737.8,1709.6,719.7,1709.1,709.8,1709.1L709.8,1709.1z M1280,1709.2
					c-11.5,0.1-15.8,1.8-21.6,7c-4.6,4.2-7.8,10.8-7.3,15.2c1.4,11.8,4.1,14.9,20.5,23.4c18.3,9.5,21.5,12.9,18.3,19.9
					c-2.1,4.5-6.6,6.4-13.4,5.7c-6.2-0.7-12.8-3.1-14.4-5.2c-2.4-3-4.6-8.1-3.9-9.1c0.3-0.5,0.4-1.7,0-2.5c-0.7-1.8-6.9-2.2-8-0.5
					c-1.3,2-0.7,18.5,0.7,21.4c1.6,3.2,6.3,5.2,15.4,6.4c12.5,1.7,21.5,0.6,29.6-3.5c11-5.6,15.3-15.4,11.9-27.6
					c-1.4-5-5-7.7-19.2-14.8c-14.7-7.3-18.3-9.9-19.8-14.5c-1-2.9-0.9-4,0.4-5.9c1.6-2.4,8.7-4.8,12.2-4.1c1.1,0.2,4.1,0.7,6.7,1
					c5.3,0.7,6.9,2.6,8.2,9.7c0.6,3.6,0.9,3.8,4.5,3.8c3.2,0,3.9-0.4,4.4-2.3c0.7-2.9,1.2-21.6,0.5-22.2c-0.3-0.3-7.6-0.7-16.3-1.1
					C1285.7,1709.2,1282.6,1709.2,1280,1709.2L1280,1709.2z M270.1,1709.2c-2.7,0-5.6,0-8.8,0.2c-7.7,0.4-15.6,0.8-17.4,1
					c-6,0.6-6.3,4.6-0.5,6.5c2.4,0.8,3.6,1.9,4.1,3.8c1,3.7,1,56,0,59.4c-0.5,1.6-2.4,3.8-4.7,5.2c-4.6,2.9-4.5,5.2,0.3,5.7
					c5.4,0.5,29.5,0,30.6-0.7c2.3-1.4,0.9-3.7-3.4-5.5c-4.3-1.8-4.4-2.1-5.1-7.2c-0.4-2.9-0.7-8.2-0.8-11.8l-0.2-6.5l10.3-0.6
					l2.4,5.3c3.7,8.1,10.6,19,14.1,22.2c4.6,4.3,8.7,5.6,17.4,5.6c8.5,0,12.3-1.6,12.3-5.1c0-1.6-0.7-1.9-3.9-1.9
					c-2.1,0-5.2-0.5-6.8-1.1c-4.1-1.5-10.7-9.9-16.2-20.6l-4.7-9.2l4.6-4.9c9.4-10,9-26-0.7-34.1
					C288.3,1711.1,281.6,1709.3,270.1,1709.2L270.1,1709.2z M93,1709.8c-5.9,0-12.2,0.3-15.3,1c-4.9,1-5.1,3.9-0.6,7
					c2,1.4,3.7,3.5,4.1,5.1c0.3,1.5,0.7,14.7,0.7,29.3c0.1,29.3,0,30-6.2,33.2c-3.1,1.6-3.9,3.9-1.7,4.8c2.4,1,29.9,0.7,31.8-0.4
					c2.9-1.6,2.4-3.9-1.1-4.6c-4.3-0.9-5.8-4.5-6.4-15.4c-0.3-5.1-0.8-10-1.1-11c-0.3-0.9,0.2-2.5,1.2-3.5c1.5-1.5,3.2-1.7,13.7-1.2
					c8.2,0.4,13.2,0.2,16.2-0.7l4.2-1.3l0.6,6.6c1.4,14.6-0.4,23-5.4,25.6c-3.4,1.8-3.8,4-1,5.4c1.1,0.6,7.6,1,14.6,1
					c12.5,0,16.5-0.8,16.5-3.4c0-0.7-1.3-1.9-3-2.6c-5.1-2.1-5.6-5.3-5.4-35.8c0.1-29.5,0.4-31.1,5.5-33.2c3.9-1.6,4.5-3.8,1.4-5
					c-1.4-0.5-9.1-1-17-1c-17,0-18.2,0.7-11.5,6.8c4.1,3.7,4.2,3.8,5.7,14.6c0.8,6,1.3,11.1,1,11.4c-0.7,0.7-33.3,0.3-35.2-0.4
					c-1.1-0.4-1.4-2.6-1.3-9.2c0.1-11.4,0.7-13.1,5.7-16.5c4.8-3.2,5.1-4.1,2-5.8C104.3,1710.1,98.9,1709.8,93,1709.8L93,1709.8z
					 M617.4,1709.8c-8.4-0.1-14.2,0.2-14.8,0.9c-1.7,1.7,0,4.9,3.7,7.1c3.1,1.8,3.5,2.5,3.5,6.3c0,2.4,0.4,10.4,0.9,17.8
					c0.4,7.4,0.6,15.2,0.3,17.2c-0.4,3.3-0.7,3.6-2.4,2.7c-1-0.6-1.9-1.5-1.9-2c0-1.8-9.4-11.9-11.2-11.9c-1,0-1.6-0.7-1.6-1.8
					c0.1-1.6-15.9-24.2-18.9-26.8c-0.6-0.5-2.4-2.9-3.8-5.3l-2.6-4.3h-12.9c-7.1,0-13.6,0.3-14.5,0.6c-0.9,0.4-1.6,1.8-1.6,3.4
					c0,2.5,0.4,2.9,4,3.5c8,1.4,7.8,0.6,8.6,31c0.4,18.2,0.3,27.9-0.4,29.7c-0.6,1.6-2.8,3.6-5.1,4.8c-3,1.5-4,2.7-4,4.4
					c0,1.3,0.3,2.6,0.7,3c1.2,1.2,29.8,0.8,31.1-0.5c2.3-2.3,1.3-4.8-2.3-6.4c-6-2.5-6.6-4.3-7.1-23.6c-0.3-9.5-0.7-19.4-1-21.9
					l-0.6-4.5l4.6,4.5c2.5,2.5,5.2,5.8,5.9,7.5c0.8,1.7,3.9,5.8,7,9.2c3.1,3.4,5.6,6.6,5.6,7.1s1,1.8,2.1,2.8s5.3,5.6,9.1,10.2
					c13.8,16.4,14.8,17.1,22.6,15.6l3.1-0.6v-32.4c0-21.4,0.4-33.2,1.1-34.6c0.6-1.2,3-3.8,5.3-5.9c3.7-3.3,4-3.9,2.7-5.2
					C631.5,1710.3,628.3,1709.9,617.4,1709.8L617.4,1709.8z M1140.9,1709.8c-23.5-0.1-27.6,0.1-29.8,1.5c-3.2,2.1-3.1,3.2,0.6,5.1
					c3.9,2,5.2,5.4,4.1,10.5c-0.5,2.1-0.6,4.1-0.3,4.4c1.1,1.1,1.8,18.3,1.5,37.7l-0.2,12.6l-4.1,2.7c-2.6,1.7-3.9,3.3-3.7,4.4
					c0.3,1.5,2.4,1.8,16.8,2.2c39.2,1.3,39.6,1.3,41.9-1.6c4-5.1,7.1-19.4,4.6-21.5c-2-1.7-5.1-0.3-6.4,2.9
					c-0.6,1.6-2.7,4.4-4.7,6.2c-3.5,3.4-3.6,3.4-12.9,3.4c-8,0-9.8-0.3-12.2-2.1c-2.8-2.1-2.8-2.2-2.5-11.5
					c0.2-5.2,0.6-9.7,0.8-10.1c0.3-0.4,4.5-0.8,9.4-0.8c9.1,0,13.1,1.1,15.8,4.4c0.7,0.9,2.4,1.6,3.7,1.6c3,0,3.4-1.7,3.7-14
					c0.2-9.3,0.2-9.5-2.2-9.8c-1.6-0.2-3.2,0.6-5.2,2.8l-2.8,3.1h-23.1l0.2-11.5l0.2-11.5l11.9,0.3c11.1,0.3,12,0.5,13.8,2.7
					c1.1,1.3,2.2,3.6,2.5,5.2c0.3,1.7,1.2,2.8,2.2,2.8c2.8,0,4.1-2.2,4.1-6.9c0-2.5,0.4-6.2,0.9-8.3
					C1171.2,1709.8,1171.6,1709.9,1140.9,1709.8L1140.9,1709.8z M852.9,1709.9c-6,0.1-10.1,0.8-19,2.5c-1.3,0.3-4.4,2.4-7,4.7
					c-2.6,2.3-5.6,4.7-6.6,5.3c-3.3,1.8-7.8,10.4-9.2,17.3c-2.3,11.9-1.4,20.4,3.2,29.2c5.6,10.8,16.3,18.5,28.9,20.9
					c8.8,1.6,20.2,0.9,31.6-2.1c4.1-1.1,6.4-5.2,7.5-13.7c0.8-6.3-0.8-11-4.4-12.4c-3.3-1.3-5.2,0.5-5.2,4.8c0,3.8-1.9,8.2-4.6,10.4
					c-2.4,2-25,2.9-26.4,1.1c-0.3-0.4-2.2-2-4.3-3.5s-3.8-3.4-3.8-4.2c0-0.8-1-3.1-2.2-5.2c-2.7-4.5-3.9-15.4-2.7-23.1
					c0.8-5.3,5.3-16.1,6.7-16.3c1.5-0.2,3.8-0.9,8.2-2.4c6.5-2.4,12.9-2.9,18-1.4c2.5,0.7,5,1.2,5.7,1.1c1.9-0.3,5.2,5.2,5.5,9.4
					c0.3,3.6,0.6,4,3.3,4.2c1.7,0.1,3.6-0.1,4.2-0.6c1.5-1,2.9-23.7,1.5-24.6c-0.5-0.3-8.2-0.9-17-1.3c-3.8-0.2-6.8-0.3-9.4-0.3
					C854.6,1709.9,853.7,1709.9,852.9,1709.9L852.9,1709.9z M975.2,1711c-12.9-0.1-15.4,0.6-15.4,2.9c0,0.5,1.5,1.5,3.3,2.2
					c6.4,2.7,6.3,2.1,6.2,33.8c0,31.9,0.1,31.1-6.7,33.3c-2.5,0.8-3.3,1.7-3.6,3.8c-0.4,3.2,0.8,3.6,11.8,4.1
					c4.1,0.2,17.5,0.4,29.7,0.5l22.2,0.2l3-7.8c1.6-4.3,3.3-9.4,3.7-11.5c0.6-3.4,0.4-3.8-2-4.9c-3.4-1.6-5.3-0.5-8.2,4.8
					c-3,5.3-4.1,6.4-5.8,5.8c-0.8-0.3-2.1-0.1-2.7,0.4c-0.7,0.5-5.5,0.9-10.7,0.9l-9.5-0.1l-1.4-4.5c-1-3.2-1.2-7.4-0.8-14.5
					c0.3-5.5,0.7-15.8,1-23c0.2-7.1,0.7-13.9,1.1-15.1c0.4-1.2,2.8-3.2,5.4-4.6c3-1.6,4.7-3.2,4.7-4.4c0-1.8-1.2-1.9-18.9-2.2
					C979.1,1711.1,977,1711,975.2,1711L975.2,1711z M-117.3,1713.8c0.1,0,0.1,0,0.2,0c0.1,0,0.3,0.1,0.4,0.2
					c0.5,0.5-0.5,4.3-2.2,8.8c-0.3,0.8-0.6,2.1-0.7,2.9c-0.1,0.8-0.7,1.6-1.5,1.9c-1,0.3-1.2,0-0.7-1.3c0.4-1,1.2-3.8,1.8-6.4
					C-119.2,1716.2-118.2,1714-117.3,1713.8L-117.3,1713.8z M835.7,1713.9c0.8,0-0.1,0.9-2.1,1.9c-2,1-4.2,2.6-4.9,3.5
					c-0.7,0.9-1.8,1.6-2.3,1.6s1-1.6,3.4-3.5C832.2,1715.5,834.9,1713.9,835.7,1713.9z M846.6,1715c0.3,0,0.6,0.1,0.8,0.3
					c0.3,0.3-0.3,0.6-1.3,0.5c-1.2,0-1.4-0.3-0.6-0.6C845.9,1715,846.3,1715,846.6,1715z M269.4,1719.6c0.3,0,0.6,0,0.9,0
					c13.1,0.8,18.6,20.6,7.5,27c-2.5,1.4-5.6,2.3-8.5,2.3h-4.6l0.1-12.3C265,1721.3,265.2,1719.5,269.4,1719.6L269.4,1719.6z
					 M425.6,1720.4c7,0,9.1,0.4,10.5,1.8c1,1,2.6,1.8,3.6,1.8c2.2,0,10,10,10.4,13.3c0.1,1.2,0.8,4.8,1.5,8.1
					c2.2,10.4-0.5,23.5-5.9,29.4c-1.2,1.2-2.7,2.3-3.4,2.3s-2.6,0.7-4.2,1.5c-2.7,1.4-12.8,1.8-19.5,0.8c-3.7-0.6-8.8-6.2-12.8-14.1
					c-2.4-4.7-5.1-17-5.1-23.1c0-5.1,5.4-14.9,8.9-16.2c1.5-0.5,3.7-2,5-3.2C416.6,1720.7,418,1720.4,425.6,1720.4L425.6,1720.4z
					 M826.2,1721.7l-2.5,2c-2.4,2-4,2.6-4,1.6c0-0.3,1.5-1.2,3.3-2.1L826.2,1721.7z M827.3,1723.3c0.1,0,0.2,0,0.3,0.1
					c0.3,0.3,0,1.1-0.7,1.8c-1,1-1.1,0.9-0.6-0.6C826.6,1723.8,827,1723.3,827.3,1723.3L827.3,1723.3z M-121.5,1728.9
					c0.3,0.1-0.3,2.1-2.4,9.4c-1.6,5.4-3.4,9.2-3.4,7.1c0-1.8,4.3-15.2,5.2-16.1C-121.8,1729.1-121.6,1728.9-121.5,1728.9
					L-121.5,1728.9z M820.3,1729.3c0.1,0,0.2,0,0.3,0.1c0.3,0.3,0,1.1-0.7,1.8c-1,1-1.1,0.9-0.6-0.6
					C819.6,1729.8,820,1729.3,820.3,1729.3L820.3,1729.3z M252.7,1729.9c0.5,0,1,0.4,1,1c0,0.5-0.5,1-1,1s-1-0.5-1-1
					C251.7,1730.3,252.2,1729.9,252.7,1729.9z M288.5,1740.4c0.3-0.1,0,1.2-1.1,3.7c-0.8,1.9-1.9,3.7-2.4,4c-0.5,0.3,0-1.4,1.1-3.8
					C287.3,1741.8,288.2,1740.5,288.5,1740.4z M279.5,1747.9c1.3,0,1.2,0.3-0.4,1.5c-2.5,1.9-4,1.9-2.4,0
					C277.4,1748.5,278.7,1747.9,279.5,1747.9z M-127.7,1748.2C-127.6,1748.2-127.6,1748.2-127.7,1748.2c0.2,0.1,0.3,0.4,0.3,1.2
					c0,1.1-0.6,3.3-1.4,5l-1.4,3l0.6-3.5C-129.1,1750.8-128.2,1748.3-127.7,1748.2L-127.7,1748.2z M-130.9,1759.3
					c0.4,0.1,0.6,0.5,0.6,1.3c0,1-0.5,2.5-1,3.3c-0.8,1.2-1,0.9-1-1.2c0-1.5,0.4-3,1-3.3C-131.1,1759.3-131,1759.3-130.9,1759.3z
					 M253.1,1760.7c0.1,0,0.2,0.1,0.3,0.5h0c0.3,1,0.2,2.3,0,3c-0.3,0.7-0.5-0.1-0.5-1.8C252.9,1761.3,253,1760.7,253.1,1760.7
					L253.1,1760.7z M-207.3,1764.9c-0.6,0-1,0.7-1,1.6s0.4,1.3,1,0.9c0.6-0.3,1-1,1-1.6C-206.3,1765.3-206.7,1764.9-207.3,1764.9
					L-207.3,1764.9z M-133.2,1767.9c0.6,0,0.8,0.5,0.4,1c-0.3,0.6-0.8,1-1.1,1s-0.4-0.4-0.4-1
					C-134.3,1768.3-133.8,1767.9-133.2,1767.9L-133.2,1767.9z M-134.7,1772.3c0.1,0.1,0.1,0.8,0,2.1c-0.1,1.7-0.8,4.2-1.4,5.8
					c-1.8,4.3-2.1,3.2-0.6-2C-135.4,1774-134.9,1772.2-134.7,1772.3z M-206.1,1776.3c-0.1,0-0.1,0-0.2,0c-0.7,0.4-0.8,4.8-0.1,6.3
					c0.5,1,0.8-0.3,0.9-3.3C-205.4,1777.6-205.7,1776.4-206.1,1776.3z M870.7,1777.9c0.1,0.1-0.3,0.5-0.9,1.3
					c-1.3,1.7-2.1,2.2-2.1,1.4c0-0.2,0.8-1,1.8-1.8C870.3,1778.1,870.7,1777.8,870.7,1777.9L870.7,1777.9z M-206.7,1783.9
					c-0.9,0-1.6,0.5-1.6,1c0,0.6,0.4,1,0.9,1s1.2-0.4,1.6-1C-205.4,1784.3-205.8,1783.9-206.7,1783.9L-206.7,1783.9z M-137.5,1785.2
					c0.2,0,0.3,0.2,0.2,0.4c0,0.4-0.5,1.7-0.9,2.8c-0.8,1.9-0.9,1.9-0.9-0.2c0-1.2,0.4-2.5,0.9-2.8
					C-138,1785.2-137.7,1785.1-137.5,1785.2L-137.5,1785.2z M-140.9,1794.2c0.1,0,0.2,0.2,0.3,0.5c0.3,0.7,0.3,1.6-0.1,1.9
					c-0.3,0.3-0.6-0.3-0.5-1.3C-141.1,1794.6-141,1794.2-140.9,1794.2z M-141.1,1797.9c1.2,0,1.1,1.7-0.2,2.5
					c-0.6,0.4-0.8,1.3-0.6,2s-0.2,1.9-1.1,2.6c-1.4,1.1-1.5,1.1-0.9-0.5c0.4-1,1-2.9,1.3-4.3C-142.3,1799-141.6,1797.9-141.1,1797.9
					z M-144.2,1806.9c0.7,0,0.8,1.4,0.4,3.8c-0.9,5.2-2.5,7.7-2,3.3c0.2-1.9,0.4-4.3,0.5-5.3S-144.8,1806.9-144.2,1806.9
					L-144.2,1806.9z M-146.9,1824.8c0.2-0.1,0.2,1.1,0,3.5c-0.3,2.8-0.7,5.2-0.9,5.4c-0.7,0.9-0.2-6.5,0.6-8.4
					C-147.1,1825-147,1824.9-146.9,1824.8z M-148.9,1836.2c0.1,0,0.2,0.2,0.3,0.5c0.3,0.7,0.3,1.6-0.1,1.9c-0.3,0.3-0.6-0.3-0.5-1.3
					C-149.1,1836.6-149,1836.2-148.9,1836.2L-148.9,1836.2z M-149.2,1840.9c1.2,0,0.2,2.7-2.1,6.1c-1,1.4-1.5,2.9-1.2,3.3
					c0.4,0.4,0.4,0.6,0,0.6c-1.5,0-1.3-1.8,0.5-5.8C-151,1842.8-149.7,1840.9-149.2,1840.9L-149.2,1840.9z M-157.3,1854l-0.8,2.2
					c-0.5,1.3-1.5,2.1-2.6,1.9c-1.1-0.2-1.5,0.1-1,0.9c0.5,0.9,0.2,1-1,0.6c-1-0.4-2.4-0.2-3.2,0.5c-1.1,0.9-1.4,0.8-1.4-0.5
					c0-0.9,0.8-1.6,1.8-1.6c1,0,3.2-0.9,5-2L-157.3,1854z"/>
			</g>
		</g>
	</g>
</g>
</svg>
