<?xml version="1.0" encoding="utf-8"?>
<!-- Generator: Adobe Illustrator 19.0.0, SVG Export Plug-In . SVG Version: 6.00 Build 0)  -->
<svg version="1.1" id="Layer_1" xmlns="http://www.w3.org/2000/svg" xmlns:xlink="http://www.w3.org/1999/xlink" x="0px" y="0px"
	 viewBox="0 0 1264.4 244.1" style="enable-background:new 0 0 1264.4 244.1;" xml:space="preserve">
<style type="text/css">
	.st0{fill:#FFFFFF;}
</style>
<g>
	<path class="st0" d="M528.5,33.1C541.4,29,554.1,25,566.7,21c16.2-5.1,32.5-9.4,49.2-12.6c6.6-1.3,13.5-1.8,20.2-2.5
		C641,5.5,646,5.1,651,5.1c8.4-0.1,16.5,1.2,24.4,4.1c9.4,3.5,16.7,9.5,21.3,18.5c2.4,4.7,3.2,9.7,3.4,14.9c0.1,3.3,0,6.6,0,10.4
		c17.3-0.9,33,2.8,47.8,12c0.7-4.5,0-8.8,0.5-13.6c17,9.6,32.7,20.6,49.8,30.5c0.3-1.4,0.8-2.6,0.9-3.8c0.6-9.4,3.6-17.9,8.8-25.6
		c7-10.4,18.8-13.2,29.9-8.6c3.7,1.5,7.2,3.3,10.2,6.1c2.1,2,4.9,3.3,7.5,4.9c7.4-3.8,6.6-11.3,9.3-17.6c3.4,0.5,7,1.3,10.7,1.6
		c3.6,0.3,7.3,0.1,11.4,0.1c0.5,12.8,0.8,25.2-3.5,37.8c4.7,0,8.9,0,13.3,0c1.3,6.6,1.4,12.9,1.7,19.1c0.4,8.6,1.2,17.2,1.8,25.8
		c0.1,1.3,0,2.7,0.1,4c0.4,6.9,0.7,13.7,2,20.8c15.1-34.7,30.1-69.4,45.2-104.3c8.8,2.2,17.3,4.3,25.8,6.4c4.5,1.1,9,2.3,13.5,3.5
		c2.4,0.6,5,1.1,6.1,4.1c54.6-9.7,109-19.4,163.4-29c4.1,10.6,7.1,34.7,5.6,45.2c-15.3,6.5-30.8,13.2-46.6,19.9
		c0.1,7-0.2,13.7,0.7,20.5c0.7,5.2,0.9,10.6,1.1,15.9c0.1,3,0,5.9,0.6,9.1c28.2-35.2,55.2-71.1,83-106.8
		c13.9,6.8,27.6,13.5,41.4,20.2c1.1,6.4,2.1,12.8,3.2,19.2c1.5,9,3,18,4.6,26.9c1.8,10.8,3.6,21.5,5.4,32.3c1.4,8.7,2.8,17.3,4.3,26
		c1.5,8.8,3.4,17.6,4.5,26.4c0.7,5.4,0.1,10.9,0.1,16.9c-20.6,6.5-41.2,12.4-62.3,18.5c-0.6-3-1.2-5.5-1.5-8.1
		c-1.3-9.3-2.6-18.7-3.8-28.1c-0.8-6.4-1.5-12.8-2.3-19.2c-0.6-4.8-1.2-9.5-1.9-14.6c-6.9-2.4-13.6-4.8-20.4-7.2
		c-16,19.3-32,38.6-48.1,57.9c-1.2-0.5-2.2-1-3.6-1.6c0,4.8,0,9.3,0,14.3c-2.9,0.1-5.5,0.3-8.1,0.2c-6.1-0.2-12.3-0.7-18.4-1
		c-10-0.4-19.9-0.6-29.9-1.1c-3.6-0.2-7.2-0.8-11.1-1.2c-0.1-1-0.5-2.1-0.4-3.2c0.3-9.8,0.5-19.6,1.1-29.4
		c0.7-11.4,1.9-22.8,2.9-34.2c0.7-8.9,1.4-17.8,2.1-26.8c0.3-4.1,0.8-8.2,1.3-13c-7.7,0.6-14.7,1.8-21.7,2.6
		c-7.1,0.9-14.1,1.5-21.9,2.2c1.2,3.1,2.1,5.7,3.3,8.1c7.9,17,15.9,34,23.9,51c1.3,2.9,2.7,5.7,3.9,8.6c0.5,1.1,1,2.2,1,3.3
		c0.1,4.5,0,9,0,13.7c-19,10.8-37.9,21.6-57.3,32.6c-1.3-3-2.5-5.4-3.5-8c-6.8-17.5-13.6-35-20.5-52.5c-0.6-1.7-1.7-3.2-2.4-4.6
		c-6.9-0.5-13.3-1-20.1-1.5c-11.3,23.4-22.5,46.5-33.9,70.3c-4.6-2.4-9-4.6-13.3-6.9c-4.8-2.6-9.7-5.2-14.4-7.9
		c-2.3-1.4-4.6-1.7-7.1-0.6c-2.9,1.2-5.6,0.6-8.4-1.1c-12.9-8.2-26-16.1-39-24.2c-12.6-7.8-25.2-15.6-37.7-23.4
		c-1.3-0.8-2.5-1.6-4.1-2.6c-0.5,3.7-0.2,7,0.3,10.4c0.8,5.6,1.7,11.1,2.1,16.7c0.6,8.2,2.3,16.4,0.9,25.2
		c-10.9,0.7-21.7,1.4-33.2,2.2c-0.2-3.4-0.3-6.5-0.4-9.6c-0.4-8.6-0.3-17.3-1.1-25.9c-0.9-9.9-1.8-19.8-1.9-29.8
		c-0.1-6.6-0.5-13.3-1-19.9c-0.3-3.8-0.8-7.5-1.3-11.7c-2.5,1.2-4.8,2.4-6.5,3.3c-11.9,32.8-23.6,64.9-35.3,97.3
		c-10.9,0.9-21.4-2.2-32.3-1.9c-0.1-1.8-0.3-3.1-0.3-4.4c-0.1-10.1,0-20.2,1.7-30.3c0.2-1.1,0-2.3,0.1-3.5
		c0.4-9.8,0.7-19.6,1.2-29.4c0.5-10.1,1.3-20.2,2-30.3c0.1-1.9-0.1-3.8-0.6-6c-10.9,14.9-22.8,28.7-36.3,40.9
		c-13.5,12.2-27.8,23.7-42.3,36c2.4,10.1,2.7,21,2.1,32.6c-13.1,3.9-26.5,7.4-40.4,10.8c-0.9-3.7-1.7-6.9-2.3-10
		c-3.3-17.1-6.4-34.2-9.7-51.2c-2.7-13.8-5.6-27.6-8.3-41.4c-3.3-16.9-6.6-33.8-9.9-50.7c-1.7-8.8-3.8-17.5-4.9-26.4
		C527.8,47.2,528.5,40.5,528.5,33.1z M535.4,38.2c11.1,57.4,22.2,114.6,33.3,172.3c9.9-2.7,19.3-4.7,28.5-7.8
		c-0.1-1.6,0-2.6-0.2-3.6c-1.3-7-2.2-14.1-4-21c-1.1-4.1,0.4-6,3.3-8.3c12.1-9.4,24.4-18.5,35.8-28.6c12.3-10.9,24-22.6,34.1-35.7
		C672.1,98,677.5,90,682,81.5c5.5-10.3,9.3-21.1,10.8-32.9c1.5-12.1-1.9-21.5-11.7-28.7c-6.8-5-14.7-7.1-22.8-7.7
		c-10.4-0.9-21-0.6-31.3,1.1c-14.4,2.3-28.6,5.5-42.6,9.7c-8.3,2.4-16.6,4.7-24.8,7.3C551.6,32.7,543.7,35.4,535.4,38.2z
		 M756.6,64.2c-0.8,7.5-0.7,7.6,2,13.6c2.5,5.4,2.6,10.9,0,16.4c-1.1,2.4-1.7,4.6-0.8,7.2c0.3,0.8,0.4,1.6,0.4,2.4
		c-0.1,10.3,0.8,20.5,1.8,30.8c0.7,6.8,0.8,13.6,1.1,20.4c0.4,8.8,0.8,17.6,1.1,26.4c0.1,2.2-0.1,4.3,0.1,6.5
		c0.2,1.7,0.8,3.4,1.2,5.3c6.4-0.5,12.3-1,18.7-1.5c-2-20-4-39.6-6-60.4c32.7,20.2,64.4,39.9,96,59.4c8.5-1.9,16.9-2.5,24.9-5
		c-0.3-1.7-0.6-2.9-0.6-4c-0.4-6.1-0.7-12.2-1-18.3c-0.4-8.3-0.8-16.6-1.2-24.9c-0.1-2.3,0-4.7-0.1-7c-0.6-8.4-1.3-16.8-1.8-25.3
		c-0.5-7.2-0.8-14.5-1.2-21.6c-6.1-1.2-16.4-0.8-19.9,1c1.5,17.2,3.1,34.6,4.7,52.9c-20.6-12.4-40.1-24.9-59.8-37.1
		C796.5,89.1,776.8,76.8,756.6,64.2z M1151.6,35.6c-0.9-0.2-1.4-0.5-1.8-0.4c-49.4,8.7-98.8,17.5-148.7,26.3
		c3.2,7.9,6.4,15.6,9.6,23.5c19.2-2.3,38.2-4.5,57.4-6.8c0,2.3,0.1,4.2,0,6c-0.6,6.3-1.3,12.5-1.8,18.8c-0.4,5.1-0.7,10.3-1.1,15.4
		c-0.6,7.1-1.3,14.2-1.9,21.3c-0.7,8.6-1.3,17.2-2.1,25.8c-0.5,5.7-1.3,11.5-1.8,17.2c-0.1,1.2,0.3,2.5,0.5,4.1
		c17.8,0.9,35.3,1.8,53,2.3c0.3-5.2-0.1-9.8-0.5-14.4c-0.8-8.6-0.8-17.2-1.2-25.9c-0.3-8-0.6-15.9-1.1-23.9
		c-0.5-8.9-1.3-17.8-1.8-26.8c-0.4-6.5-0.7-12.9-1-19.4c-0.1-1.8,0-3.6,0-5.5c16.1-6.9,31.8-13.6,47.4-20.3
		C1153.6,46.8,1152.6,41.2,1151.6,35.6z M1235.8,55.8c-10.8-5.2-21.8-10.5-33-15.9c-1,1.1-1.9,1.8-2.6,2.7
		c-3.7,4.9-7.4,9.8-11.1,14.7c-9,11.7-17.9,23.5-26.9,35.2c-14,18.1-28.1,36.3-42.1,54.4c-1.4,1.8-2,3.7-1.9,6
		c0.4,5.5,0.8,10.9,1,16.4c0.1,2.3,1,3.7,3.5,4.5c15.6-18.9,31.3-37.8,47-56.7c10,3.5,19.6,7,29.1,10.4c1.4,11.4,2.3,22.4,4.1,33.3
		c1.8,10.9,2.2,21.9,4.6,32.9c16.5-4.9,32.5-9.6,49.1-14.6C1249.7,137.9,1243,97.1,1235.8,55.8z M970.3,137.2
		c8,20.3,15.9,40.5,24.1,61.2c15.2-8.7,29.9-17,44.7-25.4c-17.7-38.1-35.2-75.8-52.9-113.7c-11.4-2.9-22.9-5.8-34.5-8.8
		c-16.5,38.1-32.9,75.9-48.9,112.8c0.2,5.4,0.7,9.9,0.4,14.3c-0.3,4.6,2.3,9.1,0.3,13.8c-3.6,0.9-7.2,1.8-11.6,2.8
		c5.7,3,10.1,6.3,15.6,7.8c10.9-22.5,21.7-44.8,32.6-67.2C950.4,134.9,960.3,136.2,970.3,137.2z M704.1,197.2
		c10.1-27.6,19.9-54.6,29.8-81.7c-9.5-2.3-40.8-4.9-45.2-3.7c-0.4,4-1,8.1-1.2,12.2c-0.8,12.2-1.4,24.5-2.1,36.7
		c-0.4,8.4-0.8,16.9-1.1,25.3c-0.1,3.1,0,6.2,0,9.6C690.4,196.2,696.9,196.7,704.1,197.2z M698.4,60.8c-4.7,10.7-9.1,20.8-13.6,31.1
		c3.4,4.2,8.2,7,13.6,8.8c7.1,2.5,14.5,3.1,22,3.2c2.5,0,4.9-0.8,7.4-0.7c6.7,0.1,12.7-2,18.4-5.3c8.4-4.8,9.1-14.1,4.4-20.5
		c-3.6-4.8-8.2-8.3-13.4-10.8c-10.8-5.2-22.3-7.5-34.3-6.7C701.1,60.1,699.4,60.7,698.4,60.8z M815.9,83.8c0.5-1.8,1-3.4,1.4-5
		c1.4-5,3.2-6.3,8.2-5.9c1.1,0.1,2.3,0.3,3.4,0.8c3.8,1.7,7.6,3.4,11.2,5.4c4.1,2.3,8.1,4.6,13.1,3.8c6.3-1.1,11.8-3.8,16-8.5
		c5.8-6.5,8.8-14.4,10.1-22.9c0.3-1.7,0-3.5,0-5.2c-3.5-0.4-6.4-0.7-9.4-1c-0.9,2.6-1.6,4.9-2.6,7.2c-3.8,9.3-12.6,10.6-19.1,6
		c-1.4-1-2.7-2-3.9-3c-5.7-4.7-12-7.7-19.7-6.5c-1.8,0.3-3.8,0.6-5.1,1.7c-2.7,2.4-5.4,5-7.4,8c-4.2,6.2-5.6,13.4-6.7,20.7
		c-0.2,1.4,0.1,2.8,0.2,4.5C809.1,83.8,812.3,83.8,815.9,83.8z M824.6,93.7c-1.3,4.1-1.3,4,1.6,5.8c9.7,6.1,19.5,12.1,29.2,18.2
		c3.3,2.1,6.7,4.1,10.5,6.4c1.2-7.8-1-14.8-0.9-22.4c-1.8,0.4-2.9,0.5-4,0.9c-8.1,3.3-15.7,2.6-23.2-2.3
		C833.8,97.9,829.3,96.1,824.6,93.7z"/>
	<path class="st0" d="M505.9,183.4c-17.1,12.1-35.4,23.2-53.6,35.5c-1.1-1.7-2.2-3.3-3.1-5c-7.7-15.3-15.4-30.7-23.1-46
		c-0.7-1.5-1.5-2.9-2.4-4.6c-5.1-0.4-10.1-0.8-15.6-1.3c-7.6,21.8-15.2,43.2-22.6,64.5c-4.3,0.4-17.3-2.8-31.9-8
		c0.2-6.4-0.9-12.9,1.2-19.4c6.6-20.6,12.9-41.2,19.3-61.8c0.5-1.5,0.7-3.1,0.4-4.9c-24.4,36-48.8,72.1-73.6,108.7
		c-19.3-42.3-38.4-84-57.5-125.7c-0.3,0-0.6,0.1-0.9,0.1c-6.9,28.1-13.8,56.2-20.7,84.4c-12,0-23.4,0-35.3,0
		c-0.4-4.4-1.1-8.6-1.1-12.9c-0.2-9.1-0.6-18.2-1.8-27.3c-0.3-2.1,0-4.3-0.1-6.5c-0.4-9.5-0.7-18.9-1.2-28.4
		c-0.3-6.6-0.6-13.3-1-19.9c-0.1-2-0.5-3.9-1-5.9c-0.2-0.9-1-1.6-1.9-2.9c-1.3,2.2-2.1,3.4-2.8,4.7c-10.8,21.2-21.6,42.5-32.4,63.7
		c-9,17.7-18,35.3-27,52.9c-4.5,8.7-9.1,17.4-14,26.7c-1.7-2.5-3.2-4.5-4.6-6.6c-12.7-19.7-25.5-39.4-38.1-59.1
		c-13.2-20.6-26.4-41.2-39.6-61.8C14,107.5,8.1,98.4,2.1,89.4c-1.4-2.2-2.2-4.4-2.1-7c0.2-3.8,0-7.6,0-12
		C22.8,61.2,45.6,52,68.8,42.6c13,18.9,24.3,38.6,37.6,58.1C118.3,67,130,34.1,142,0c11.8,17.8,22.3,35,33.4,51.7
		c3.9-2.7,7.4-5.4,11.3-7.7c6.2-3.7,13.3-4.9,20.4-6c12.7-2.1,24.4,0.8,35.6,6.3c9,4.4,14.5,11.5,15.7,21.6c0,0.3,0.3,0.6,0.7,1.3
		c10.7-2.6,21.5-5.8,32.5-8.9c9.3,17.9,18.5,35.7,28.1,54.3c5.6-9.7,9-19.6,13.6-28.9c4.7-9.5,9-19.3,13.5-28.9
		c4.3-9.5,8.6-18.9,13.4-29.5c10.1,20.1,19.7,39.2,29.7,59c4.4-10.8,6.6-21.7,10.7-32.3c13.9,1.9,27.5,3.7,41.6,5.6
		c1.8,3,3.8,6.4,5.7,9.8c9.3,16,18.6,31.9,27.8,47.9c8.3,14.4,16.5,28.9,24.8,43.3c0.2,0.4,0.4,0.9,0.7,1.3
		C506.9,166.6,506.8,174.5,505.9,183.4z M10.2,73.9c30.3,46.9,60.3,93.3,90.2,139.6c0.1,0.1,0.3,0.2,0.4,0.3c0.1,0,0.3,0,1.1,0
		c0.7-1.2,1.7-2.7,2.5-4.3c7.1-14,14-28,21.1-41.9c6.2-12.2,12.6-24.2,18.8-36.4c8-15.7,16-31.5,23.9-47.2c0.4-0.7,1-1.4,1.3-2.1
		c2.4-4.7,4.8-9.5,7.2-14.4c-10.9-17.2-21.7-34.1-32.9-51.6c-6.1,17.3-11.8,33.8-17.8,50.4c-5.9,16.5-11.5,33.2-18.1,50.7
		C93.7,94.4,80,72.9,66.2,51.3C47.4,58.9,29,66.3,10.2,73.9z M302.6,211.2c27.6-40.7,55-81.2,82.4-121.8
		c-8.3-15.9-15.4-31.9-24.6-47.8c-3.7,7.9-7,14.9-10.3,22c-3.3,7.1-6.5,14.2-9.8,21.3c-3.2,7.1-6.4,14.3-9.8,21.3
		c-3.3,7-6,14.3-10.4,21.4c-1.1-1.8-1.9-2.9-2.5-4c-9-17.6-18.1-35.3-27.1-52.9c-0.7-1.4-1.6-2.9-2.4-4.4c-11,3.1-21.7,6-31.1,8.6
		c-4.5,4.7-8.2,8.4-11.8,12.1C248.5,96.3,299.6,207.3,302.6,211.2z M496.7,166.5c-0.7-1.7-1.2-3-1.9-4.3
		c-5.4-9.4-10.7-18.8-16.2-28.1c-6.8-11.8-13.7-23.6-20.5-35.4c-6.2-10.8-12.5-21.6-18.7-32.4c-1.2-2.1-2.7-3-5.2-3.2
		c-4.6-0.4-9.2-1.2-13.8-1.8c-5.1-0.6-10.2-1.1-15.5-1.7c-14.4,46.4-28.6,92.7-43,139.3c6.5,2.1,12.3,4.2,18.9,5.3
		c7.5-21.2,14.8-42.2,22.1-63c6.9,0,13.4,0.2,19.9-0.1c3.7-0.2,5.7,1.3,7.3,4.5c7.5,15.1,15.2,30,22.8,45c0.6,1.1,1.3,2.2,2.1,3.5
		C469,184.8,482.7,175.7,496.7,166.5z M215.8,182.9c6.8-27.7,13.5-55,20.2-82.6c-16.4,0-32.3,0-48.5,0c-0.3,4.2,0.4,8.1,0.5,12
		c0.3,10.8,1,21.5,2,32.2c0.8,8.9,0.9,17.9,1.2,26.8c0.1,2.2-0.1,4.3,0.1,6.5c0.2,1.7,0.7,3.4,1.1,5.1
		C200.5,182.9,208,182.9,215.8,182.9z M181.5,74.7c4.2,4.9,9,8,14.7,9.8c6.4,2,12.8,2.8,19.5,2.8c8.7,0,16.7-2,24.3-6.1
		c3.7-2,6.9-4.6,9.1-8.3c3.1-5,3.2-10.4-0.5-14.8c-2.4-2.9-5.3-5.5-8.5-7.5c-7.2-4.6-15.4-6-23.8-6.4c-8-0.4-15.9,1.3-23.3,4.2
		c-5.1,2-9.6,5.2-12.9,10.2c1.7,3,3.4,6,4.9,8.8C183.7,70,182.6,72.2,181.5,74.7z"/>
	<path class="st0" d="M584.3,125.4c-0.7-5.6-1.4-11.1-1.9-16.7c-0.8-9.6-1.4-19.2-2.3-28.7c-0.7-6.9-1.6-13.8-2.6-20.7
		c-0.5-3.8,0.1-5.2,3.8-6.3c8.4-2.5,17-4.3,25.9-4c12.5,0.5,17.7,11.1,15.1,20.6c-2.8,10.3-8,19.2-13.9,28
		c-6.2,9.1-13.8,17-20.8,25.4c-0.7,0.9-1.5,1.8-2.2,2.7C585.1,125.6,584.7,125.5,584.3,125.4z"/>
	<path class="st0" d="M1199.1,65.9c1.7,15.5,3.5,30.9,5.2,46.4c0,0.4-0.3,0.9-0.6,2c-9.8-4.3-19.5-8.5-29.8-13
		c8.3-12.3,16.3-24,24.2-35.7C1198.4,65.6,1198.8,65.7,1199.1,65.9z"/>
	<path class="st0" d="M937,120.5c6-14.7,11.8-28.9,17.8-43.7c0.8,1,1.5,1.4,1.7,2c5,14.2,10,28.5,15,42.7c0.1,0.3,0.1,0.7,0.1,1
		C968.3,123.2,944.5,121.9,937,120.5z"/>
	<path class="st0" d="M427.6,125c-9.5-0.7-18.1,1.7-27.5,0.6c3.2-12.7,6.4-25,9.8-38.5C416.3,100.1,422.1,112.1,427.6,125z"/>
</g>
</svg>
