<?xml version="1.0" encoding="utf-8"?>
<!-- Generator: Adobe Illustrator 19.0.0, SVG Export Plug-In . SVG Version: 6.00 Build 0)  -->
<svg version="1.1" id="Layer_1" xmlns="http://www.w3.org/2000/svg" xmlns:xlink="http://www.w3.org/1999/xlink" x="0px" y="0px"
	 viewBox="0 0 2311 712" style="enable-background:new 0 0 2311 712;" xml:space="preserve">
<style type="text/css">
	.st0{fill:#FFFFFF;}
</style>
<g>
	<path class="st0" d="M173.4,617c-6,8.4-12,16.8-17.9,25.2c-9.3,13.4-18.5,26.8-27.8,40.2c-4.8,6.9-9.9,13.7-14.7,20.7
		c-2.4,3.4-5.1,5.1-9.5,5C69,707.9,34.5,708,0,708c0-6.7,0-13.3,0-20c0.8-1.8,1.7-3.6,2.3-5.5c5.3-18.9,10.6-37.8,15.7-56.8
		c3.7-13.5,7.1-27,10.8-40.5c5.4-19.6,10.9-39.1,16.2-58.7c3.1-11.2,5.8-22.6,8.9-33.8c5-18.1,10.1-36.2,15.1-54.3
		c3-11.1,5.7-22.2,8.8-33.3c5.3-19.4,10.8-38.8,16.1-58.2c4-14.6,7.6-29.3,11.6-43.9c6.4-23.9,12.9-47.9,19.4-71.8
		c4-14.8,8.2-29.5,12.2-44.3c3.6-13.3,3-25.8-6.4-37.1c-7.4-8.9-15.1-17.2-24.8-23.6c-1.1-0.7-2.1-1.6-3.6-2.8
		c9.1-1,178.5-0.6,182.5,0.4c-0.5,1.7-1.1,3.4-1.6,5.1c-3.5,11.9-9.5,22.9-11.9,35.3c-1.3,6.6-4.7,12.9-5.8,19.5
		c-1.8,10.9-7.6,20.6-9.1,31.5c-0.1,0.5-0.3,1-0.4,1.4c-2.6,8.8-5.4,17.5-7.9,26.3c-2,7-3.6,14.1-5.7,21.1c-2.6,8.6-5.6,17-8.3,25.6
		c-2.9,9.3-5.7,18.7-8.5,28c-2.9,10.1-5.8,20.2-8.6,30.2c-3.4,12.1-6.7,24.3-10.3,36.3c-2.3,7.9-5.1,15.7-7.5,23.7
		c-2.8,9.7-5.4,19.5-8.1,29.2c-0.2,0.8,0,1.7,0,3.2c0.8-0.9,1.2-1.2,1.5-1.6c14.4-20.4,28.8-40.8,43.1-61.2
		c6.1-8.7,12.1-17.5,18.3-26.2c12.9-18.2,25.9-36.2,38.8-54.4c11.3-16,22.5-32.2,33.9-48.2c11.2-15.7,22.5-31.4,33.7-47.1
		c7.9-11.1,15.7-22.3,23.7-33.4c12-16.8,24.1-33.5,36.1-50.2c10.2-14.2,20.3-28.4,30.6-42.5c7-9.5,14.2-18.9,21.2-28.3
		c4.6-6.3,5.1-15.4,1.3-20.1c-3.3-4.1-6.9-8.4-11.3-11.2c-6.8-4.4-14.3-7.7-21.6-11.3c-3.7-1.8-7.6-3.2-11.5-4.7c59,0,118,0,177,0
		c-17.9,25.5-35.8,50.9-53.6,76.4c-10.4,14.8-20.7,29.8-31.1,44.6c-14.5,20.7-29.1,41.3-43.7,62c-7.6,10.8-15,21.6-22.6,32.3
		c-14.5,20.7-28.9,41.5-43.5,62.2c-11,15.6-22.2,31.1-33.2,46.8c-12,17-23.8,34.1-35.7,51.1c-10.3,14.7-20.5,29.5-30.8,44.1
		c-6.5,9.2-13.1,18.4-19.6,27.6c-4.9,6.9-9.8,13.9-14.6,20.8c-9.5,13.6-19.1,27.2-28.6,40.9c-6.9,10-13.7,20-20.7,30
		c-5.6,8-11.6,15.8-17.2,23.8c-5.3,7.6-10.4,15.4-15.7,23"/>
	<path class="st0" d="M423.2,583.6c0.8-1.2,1.5-2.5,2.4-3.6c9-11.8,16.9-24.2,23.8-37.4c8.2-15.6,17-30.9,25.5-46.4
		c6.3-11.5,12.6-23.1,18.9-34.6c7-12.7,14-25.3,20.9-38.1c3.9-7.2,7.6-14.5,11.4-21.6c9.9-18.3,19.9-36.5,29.8-54.8
		c5.4-10,10.7-20,16-29.9c9-16.7,18-33.4,27-50.1c7.4-13.8,14.8-27.6,22.2-41.4c7.9-14.7,15.7-29.4,23.5-44.1
		c1.6-3.1,3.3-6.2,4.5-9.5c1.7-5,1.2-10.2-0.7-15.1c-4.2-10.7-11.7-18.9-20.4-26.1c-2.1-1.8-4.3-3.5-6.8-5.6
		c1.1-0.6,1.7-1.2,2.4-1.3c1.3-0.2,2.7-0.2,4-0.2c107.8,0,215.6,0,323.4,0c6.7,0,13.4,0.6,19.3,4.1c12.5,7.5,19.7,18.5,20.7,33.2
		c0.2,3,0.3,6-0.1,9c-0.3,2.7-1.1,5.5-2,8.1c-1.3,3.6-2.6,7.2-4.4,10.5c-8.1,15.9-16.3,31.6-24.6,47.4c-4.5,8.5-9,17-13.5,25.5
		c-3.3,6.2-6.8,12.2-10.1,18.4c-5.5,10.2-10.8,20.6-16.5,30.7c-6.4,11.3-12.6,22.7-19.8,33.4c-10.8,15.9-24.7,28.8-41.8,37.7
		c-10.7,5.6-22.2,9-34.5,8.8c-5-0.1-10,0-15,0c-4.5,0-5.2,0.7-5.8,5c-0.4,3.1-0.7,6.3-1,9.4c-1,11.1-1.9,22.1-3.1,33.2
		c-1.4,13.4-3.2,26.7-4.6,40c-0.9,7.8-1.5,15.5-2.3,23.3c-1.1,11.1-2.4,22.1-3.5,33.2c-0.9,8.6-1.6,17.2-2.5,25.7
		c-0.3,3.1-0.9,6.2-1.4,9.4c-0.8,5.4-1.5,10.8-2.3,16.8c-3.1,0-6.2,0-9.3,0c-31.2,0-62.3,0-93.5,0c-1.2,0-2.3,0.1-3.5,0
		c-3.1-0.2-4.1-0.9-3.8-4c0.5-6.4,1.1-12.9,2.2-19.3c4.3-23.4,9-46.6,13.4-70c3.8-20.2,7.3-40.5,11-60.8c2.3-12.4,4.7-24.8,7-37.2
		c0.2-1.3,0.3-2.6,0.5-4.3c-1.4-0.2-2.6-0.4-3.9-0.4c-17.5,0-35,0.1-52.5-0.1c-3.3,0-5,1.2-6.5,4.1c-8.6,16.5-17.4,32.9-26.1,49.4
		c-2.4,4.6-4.5,9.3-7,13.8c-5.5,10.2-11.3,20.4-16.8,30.6c-4,7.4-7.9,15-11.8,22.4c-5,9.4-10,18.8-15,28.2
		c-3.9,7.3-7.9,14.6-11.9,21.9c-3.2,6-6.5,12-9.5,18.1c-2,3.9-4.5,5.7-9.3,5.7c-35.7-0.2-71.3-0.1-107-0.1c-1.8,0-3.6,0-5.3,0
		C423.5,584.6,423.3,584.1,423.2,583.6z M871.9,202.4c-42,0-83.1,0-124.1,0c-10.2,18.9-20.3,37.4-30.4,56
		c-10.1,18.6-20.6,36.9-30.1,56.5c2.1,0.1,3.4,0.2,4.7,0.2c35.7,0,71.3-0.1,107,0.1c7.3,0,12.5-3.3,15.9-9.2
		c6.1-10.5,11.8-21.2,17.6-31.9c5.2-9.7,10.3-19.4,15.6-29C855.8,230.9,863.6,217.1,871.9,202.4z"/>
	<path class="st0" d="M1111.8,126.7c1.2-0.2,2.4-0.6,3.6-0.7c28.2-1.3,196.7-0.4,201.4,1.2c-1,5.1-1.8,10.2-2.9,15.4
		c-4.9,22.4-9.9,44.8-14.8,67.2c-5.4,24.5-10.7,49.1-16.2,73.6c-4.2,18.6-8.5,37.3-12.7,55.9c-3.2,14.1-6.4,28.2-9.5,42.3
		c-5.5,24.7-10.9,49.3-16.3,74c-3.5,16.2-6.9,32.5-10.5,48.8c-4.3,19.3-8.7,38.6-13.1,57.9c-1.6,7-3.2,13.9-4.7,20.9
		c-0.8,3.5-0.9,3.7-4.6,3.9c-1.3,0.1-2.7,0-4,0c-40.3,0-80.7,0-121,0c-1.9,0-3.9-0.1-6.9-0.2c2.7-3.4,4.6-5.9,6.6-8.5
		c7.8-10,14.6-20.7,18.8-32.8c2.6-7.5,4.4-15.3,6.2-23.1c4.6-18.9,9-37.9,13.5-56.8c0.2-1,0.3-2,0.5-3.4c-1.8-0.1-3.4-0.2-5-0.2
		c-37.3,0-74.7,0-112-0.1c-3.4,0-5.7,0.9-7.9,3.8c-9.5,12-19.4,23.6-29,35.5c-10.7,13.1-21.2,26.4-31.9,39.6
		c-8.1,9.9-16.3,19.7-24.4,29.6c-3.8,4.6-7.6,9.2-11.3,14c-1.4,1.7-2.9,2.7-5.1,2.6c-1.2,0-2.3,0-3.5,0c-33,0-66,0-99,0
		c-1.9,0-3.8-0.2-6.8-0.3c3.7-4.7,6.6-8.5,9.7-12.1c7.3-8.4,14.7-16.7,22-25.2c6.9-8.1,13.7-16.3,20.6-24.3
		c5-5.8,10.1-11.5,15.1-17.3c4.9-5.7,9.6-11.4,14.5-17.1c3.2-3.8,6.6-7.5,9.9-11.3c7.6-8.8,15.1-17.7,22.7-26.5
		c6.9-8.1,14-16,20.9-24.1c6.9-8.1,13.8-16.2,20.7-24.3c3-3.5,6.1-7,9.2-10.5c4.7-5.4,9.4-10.8,14-16.2c3.2-3.8,6.4-7.6,9.7-11.4
		c7.9-9.2,15.8-18.4,23.7-27.6c7.1-8.2,14.2-16.2,21.3-24.4c6.6-7.7,13-15.6,19.5-23.3c5.3-6.2,10.8-12.2,16.1-18.4
		c4.9-5.7,9.6-11.4,14.5-17.1c5.1-5.9,10.3-11.8,15.3-17.7c9.4-11,18.7-22,28.1-33c4.9-5.7,9.8-11.3,14.7-16.9
		c4.2-4.9,8.7-9.6,12.6-14.8c3.5-4.7,3-10.3,0.7-15.2c-1.9-4-4.6-7.7-7.5-11.1c-6.4-7.6-14.8-12.8-23.3-17.9c-0.7-0.4-1.4-0.9-2-1.4
		C1111.9,127.6,1111.9,127.4,1111.8,126.7z M1071.2,384c9.2,0,16.9,0,24.7,0c13.5,0,27,0,40.4,0c4.5,0,4.7-0.1,5.7-4.5
		c1.8-7.9,3.5-15.9,5.2-23.8c5.4-24.2,10.8-48.3,16.1-72.5c0.6-2.7,1-5.4,1.7-9.2c-1.6,1.3-2.4,1.8-3,2.5
		c-7.4,8.3-14.6,16.8-22.1,24.9c-4.8,5.2-8.4,11.3-13.7,16.2c-6,5.6-10.9,12.5-16.2,18.8c-2.5,3.1-4.8,6.4-7.4,9.3
		c-4.9,5.4-10,10.7-14.9,16c-1.3,1.5-2.3,3.2-3.4,4.9c-1.1,1.6-2.2,3.3-3.4,4.8C1077.9,375.5,1074.8,379.3,1071.2,384z"/>
	<path class="st0" d="M1812.7,588.5c0.3-1,0.3-1.3,0.5-1.5c14.4-13,25.2-28.7,34.2-45.7c8-15.2,16.1-30.2,24.2-45.4
		c6.6-12.4,13-24.8,19.6-37.1c3.9-7.3,8-14.6,11.9-21.9c2.5-4.7,4.7-9.5,7.2-14.2c6.6-12.5,13.4-24.9,19.9-37.5c1-2,1.5-4.4,1.8-6.7
		c0.5-4.4,0.8-8.9,1.1-13.4c0.4-6.3,0.6-12.6,1.1-18.9c0.8-9.6,1.9-19.1,2.8-28.7c0.5-5.3,0.7-10.6,1.2-15.9
		c0.5-5.8,1.1-11.5,1.7-17.3c0.1-1,0.2-2,0.3-3c1-12.1,2-24.1,2.9-36.2c0.5-6,0.7-11.9,1.1-17.9c0.5-6.4,1.7-12.9,1.6-19.3
		c-0.1-8.1,2.7-16.2,0.3-24.3c-0.8-2.9-1.6-5.9-3-8.4c-4.3-7.5-9.3-14.6-15.8-20.4c-5.5-4.8-11.3-9.3-17.1-13.7
		c-6.2-4.7-12.7-9-20-14.1c3.5-0.4,6-0.9,8.6-0.9c31.7-0.1,63.3,0,95,0c22.7,0,45.3,0,68,0c1.3,0,2.7-0.1,4,0.1
		c2.7,0.3,3.6,1.3,3.3,3.9c-0.7,5.9-1.5,11.8-2.3,17.8c-0.9,6.6-1.7,13.2-2.6,19.7c-1.2,9.7-2.5,19.4-3.7,29.1
		c-0.8,6.3-1.5,12.5-2.3,18.8c-0.9,7.1-1.8,14.1-2.7,21.2c-0.8,6.8-1.6,13.5-2.3,20.3c-0.7,6.8-1.4,13.5-2.2,20.3
		c-0.8,6.6-1.7,13.1-2.7,20.5c1.4-1.2,2.4-1.9,3.3-2.7c8.5-8.5,17-16.9,25.4-25.5c25.2-25.5,50.3-50.9,75.5-76.5
		c7.9-8.1,15.7-16.3,23.5-24.5c5.6-5.9,6-15.6,0.7-21.9c-5.3-6.2-10.9-12-16.4-18.1c-0.3-0.4-0.5-0.8-1-1.7c1.2-0.3,2.2-0.7,3.2-0.8
		c1-0.1,2,0,3,0c46.2,0,92.3,0,138.5,0c2.1,0,4.2,0.3,7.1,0.5c-1.1,1.6-1.6,2.6-2.4,3.4c-6.9,6.9-13.8,13.8-20.7,20.8
		c-20.5,20.5-41,40.9-61.4,61.5c-5.9,5.9-11.4,12.1-17.3,18c-24.8,24.9-49.6,49.7-74.4,74.7c-4.4,4.5-8.5,9.2-12.9,13.7
		c-3.1,3.2-6.6,6.1-9.8,9.2c-7.6,7.4-15.2,14.9-22.7,22.5c-4.9,5-9.5,10.2-14.3,15.2c-6.5,6.9-13.1,13.7-19.8,20.5
		c-2.5,2.6-5.5,4.8-8,7.4c-4.7,4.9-9.3,9.9-12.5,16c-5.1,9.9-10.5,19.6-15.7,29.5c-7.2,13.8-14.2,27.8-21.5,41.6
		c-5.8,11-12.1,21.8-18,32.8c-3.4,6.3-6.8,12.6-10.1,18.9c-6.9,13.1-13.8,26.2-20.7,39.3c-1.6,2.9-3.5,5.7-5.1,8.5
		c-0.7,1.1-1.3,2.3-1.7,3.5c-1.7,4.9-2.5,5.6-8,5.6c-28.2,0-56.3,0-84.5,0c-10.5,0-21,0-31.5,0
		C1816.3,589,1814.6,588.7,1812.7,588.5z"/>
	<path class="st0" d="M1711,127c4.1-0.4,7.1-0.9,10-0.9c51.7-0.1,103.3,0,155,0c2.4,0,5-0.6,7.7,1.9
		c-68.1,126.6-136.2,253.3-204.8,380.8c2.7,0.1,4.6,0.2,6.5,0.2c48.7,0,97.3,0,146,0c1.5,0,3-0.1,4.5,0c4,0.3,4.8,1.8,2.6,5
		c-4.3,6.5-8.8,12.9-13.2,19.4c-2.7,4-5.3,8-8,12c-8.4,12.4-17.1,24.5-25.1,37.1c-2.4,3.8-4.8,4.5-8.8,4.5c-88-0.1-176-0.1-264-0.1
		c-1.9,0-3.9,0-7,0c1.4-2.4,2.1-3.8,3.1-5c5.8-7.2,12.1-14.2,17.5-21.7c5.4-7.5,10.4-15.5,15-23.6c10.2-18.1,20-36.5,29.9-54.8
		c4.1-7.6,8-15.4,12.1-23c11-20.4,22-40.7,33-61.1c3.2-5.9,6.2-11.8,9.4-17.6c10.6-19.8,21.2-39.7,31.7-59.5
		c6.1-11.5,12.1-23,18.3-34.4c9.9-18.5,19.8-37,29.7-55.5c7-13.1,13.8-26.2,20.8-39.3c2.9-5.4,6-10.8,9.2-16c1.8-2.9,2.5-5.8,1.6-9
		c-1.2-4.6-2.9-9-6.4-12.6c-5.1-5.3-9.4-11.2-14.4-16.5C1719.5,133.9,1715.6,131,1711,127z"/>
	<path class="st0" d="M1390.3,508.6c6.3,2,11.9,1.4,17.5,1c2.8-0.2,5.6,0,8.4,0c5.8,0,11.6,0.1,17.4,0c1.8,0,3.6-0.6,5.4-0.5
		c17.8,0.1,35.5-0.1,53.3,0c17.8,0,35.7,0,53.5,0c1.9,0,3.7,0.4,6.5,0.8c-2.2,3.6-3.9,6.3-5.7,9c-9.5,13.9-19.2,27.8-28.7,41.8
		c-2.5,3.7-4.6,7.7-7.1,11.4c-2.9,4.4-6,8.8-9.1,13.1c-0.7,0.9-2.1,1.6-3.3,1.8c-1.4,0.3-3,0.1-4.5,0.1c-87.6,0-175.3,0-262.9,0
		c-2.1,0-4.3,0-7.3,0c1.1-1.7,1.5-2.8,2.2-3.5c12.7-14.6,24.6-29.6,33.7-46.9c9.4-17.8,19-35.5,28.6-53.2
		c9.5-17.6,18.9-35.2,28.4-52.8c7.6-14.1,15.1-28.2,22.6-42.3c9.8-18.3,19.6-36.7,29.5-55c5.3-9.8,10.8-19.5,16.1-29.3
		c6.8-12.8,13.5-25.6,20.3-38.4c11.8-22.4,23.7-44.7,35.6-67.1c4.1-7.8,8.4-15.5,12.6-23.3c2.4-4.3,2.1-8.4,0-12.9
		c-3.5-7.7-8.3-14.3-14.4-20.1c-5.2-4.9-10.2-10-15.6-15.3c2.1-1.3,4.5-1.1,6.9-1.1c21.7,0,43.3,0,65,0c29.2,0,58.3,0,87.5,0.1
		c3.9,0,7.8,0.8,12.5,1.2c-1.4,2.9-2.3,5.1-3.5,7.3c-9.3,16.7-18.7,33.3-27.9,50c-2.1,3.8-3.3,8-5.2,11.9c-2.4,4.7-5.2,9.3-7.8,13.9
		c-1.4,2.4-2.7,4.9-4.1,7.3c-3.7,6.6-7.5,13.2-11.2,19.8c-1.5,2.7-3,5.5-4.4,8.3c-4.9,9.4-9.6,19-14.7,28.3
		c-5.2,9.6-10.9,18.9-16.3,28.4c-3.4,5.9-6.6,11.9-9.7,18c-5.8,11.6-11.3,23.2-18.1,34.2c-2.3,3.8-3.9,8-5.8,12
		c-0.2,0.4-0.3,1-0.7,1.3c-5.9,6-8.3,14-12.6,20.9c-1.8,2.9-2.5,6.6-4.4,9.4c-3.6,5.3-5,11.7-8.1,17.2c-2.2,3.9-4.9,7.5-7.3,11.2
		c-0.9,1.4-1.6,2.9-2.3,4.3c-0.4,0.7-0.3,1.8-0.8,2.3c-3.2,2.8-3.7,6.9-5.3,10.5c-0.1,0.3-0.2,0.7-0.4,0.9
		c-6.1,5.6-7.1,14.1-11.4,20.8c-7.6,11.8-13.7,24.6-20.4,37C1391.8,504.4,1391.2,506.3,1390.3,508.6z"/>
	<path class="st0" d="M299.9,459.8c0.9-1.9,1.3-3.2,2-4.1c14.7-19.5,29.4-39,44.2-58.4c2.9-3.8,5.8-7.7,8.7-11.5
		c2.2-2.9,5.1-3.8,8.7-3.7c17.8,0.2,35.6,0.1,53.5,0.1c31.8,0,63.6,0,95.4,0c2,0,3.9,0,6.5,0c-0.7,2-1,3.2-1.6,4.3
		c-6,10.7-12.1,21.4-18,32.2c-5.8,10.6-11.4,21.4-17.1,32c-1.3,2.5-2.6,5-4.2,7.3c-0.7,1-2,1.7-3.1,2c-1.4,0.4-3,0.1-4.5,0.1
		c-54.5,0-108.9,0-163.4,0C304.9,460,302.8,459.9,299.9,459.8z"/>
	<path class="st0" d="M178.7,712c-0.9,0-1.9-0.4-3.5-0.8"/>
</g>
</svg>
