<?xml version="1.0" encoding="utf-8"?>
<!-- Generator: Adobe Illustrator 19.0.0, SVG Export Plug-In . SVG Version: 6.00 Build 0)  -->
<svg version="1.1" xmlns="http://www.w3.org/2000/svg" xmlns:xlink="http://www.w3.org/1999/xlink" x="0px" y="0px"
	 viewBox="110 210.3 831.7 372.7" style="enable-background:new 110 210.3 831.7 372.7;" xml:space="preserve">
<style type="text/css">
	.st0{display:none;}
	.st1{display:inline;fill:none;stroke:#FFFFFF;stroke-width:5;}
	.st2{display:inline;}
	.st3{fill:none;stroke:#FFFFFF;stroke-width:5;}
	.st4{fill:#FFFFFF;}
	.st5{display:none;fill:none;stroke:#FFFFFF;}
</style>
<g id="Layer_3">
</g>
<g id="Layer_2">
	<g class="st0">
		<polygon class="st1" points="125.4,334.8 148.4,386.3 163.3,379 270.9,582.5 285.8,444.7 291.5,443.6 340.9,582.5 380.2,313.7 
			400.7,313.7 408.9,256.2 339.2,235.4 326.3,408.9 259.2,274.3 242.2,423.7 179.7,277 		"/>
	</g>
	<g class="st0">
		<polygon class="st1" points="443.5,263.7 345.4,527.2 405.4,545.2 441.4,394.3 443.5,395.4 461.1,460.5 433.4,465.2 421.9,518.2 
			464.5,501 481.9,549.7 524.8,531.6 524.8,508.1 		"/>
	</g>
	<g class="st0">
		<polygon class="st1" points="766.9,279.2 661.4,294.2 663.4,344.2 702.1,352.3 657,545.9 701.7,556.6 		"/>
	</g>
	<g class="st0">
		<g class="st2">
			<path class="st3" d="M530.9,331.8l-23,6.9l-4.2-55.5c46.7-17,82.4-14.5,82.4-14.5c54.2,7,83.3,35.6,79.8,67.5
				c-3.5,31.8-32.4,63.8-32.4,63.8L653,536.1l-34.1,13l-39.5-128.1l-12,112.3l-50.5-4L530.9,331.8z M596.8,386.9
				c25.8-17,17.8-41.1,17.8-41.1c-6.3-22.7-22.7-22.2-22.7-22.2l-3.1,4.1l-7.5,69C588.4,394.3,596.8,386.9,596.8,386.9z"/>
		</g>
	</g>
	<g class="st0">
		<g class="st2">
			<path class="st3" d="M935.2,472.7c-21.5,72.3-68.4,117.5-127.4,109.4c-53-7.3-84.1-89.5-65.7-161.8
				c18-70.9,78.2-115.2,131.4-101.9C925.2,331.2,955.9,403.2,935.2,472.7z M847,415.4c-22.9-8.8-50.1,13.1-55.1,44.2
				c-5,31.2,0.2,61.6,23.4,69.5c25.8,8.7,51.4-14,57.6-46.4C879,450.5,869.6,424.1,847,415.4z"/>
		</g>
	</g>
	<g>
		<polygon class="st4" points="153.9,360.8 139.2,367.9 114.2,313.5 172.5,253 230.4,385.4 246.7,244.8 311.8,372 323.7,215 
			398.8,239.3 390.4,294.8 370.4,294.3 332.4,558.7 278.2,421.6 278,421.7 261,561.1 		"/>
		<path class="st5" d="M326.9,219.7l68,22l-7.5,49.5l-20-0.5l-36.5,254.5l-50.5-127.5l-5.5,1l-16,131L155.4,356.2l-14.5,7l-22.5-49
			l53-55l61,139.5l16.5-142l65.5,128L326.9,219.7 M320.5,210.3l-0.7,8.9l-10.6,140.2l-54.2-105.9l-10.5-20.6l-2.7,22.9l-13.5,116.3
			l-50.6-115.8l-4.2-9.6l-7.3,7.5l-53,55l-3.3,3.4l2,4.3l22.5,49l3,6.5l6.4-3.1l8.5-4.1L252.7,553l10.4,19.5l2.7-22l14.1-115.1
			l44.5,112.3l9.7,24.5l3.7-26.1l35.6-248.3l13.8,0.3l6.2,0.2l0.9-6.1l7.5-49.5l0.9-5.9L397,235l-68-22L320.5,210.3L320.5,210.3z"/>
	</g>
	<g>
		<polygon class="st4" points="457.3,483.2 414.1,498.6 426.9,440.4 448.6,434.3 432.8,375.7 432.7,375.7 397.4,524.1 340.9,507.5 
			435.4,229.2 519.9,483.6 519.9,510 474.3,529.3 		"/>
		<path class="st5" d="M435.4,240.2l81,244v23.5l-40,17l-17-46l-40.5,14.5l11-50l23-6.5l-17.5-65l-5.5,1l-35,147l-49.5-14.5
			L435.4,240.2 M435.4,218.2l-6.7,19.7l-90,265l-2.3,6.9l7,2.1l49.5,14.5l7.1,2.1l1.7-7.2L433,389.8l11.3,42l-16.3,4.6l-4,1.1
			l-0.9,4.1l-11,50l-2.7,12.4l11.9-4.3l34-12.2l14.6,39.5l2.5,6.9l6.8-2.9l40-17l4.3-1.8v-4.6v-23.5v-1.1L523,482l-81-244
			L435.4,218.2L435.4,218.2z"/>
	</g>
	<g>
		<polygon class="st4" points="650,527.4 673,326.3 654.7,324.2 664.4,275.6 755.4,262.5 692.5,537.4 		"/>
		<path class="st5" d="M750.9,266.7l-61,266.5l-36-8.5l23-201.5l-18-2l8.5-42.5L750.9,266.7 M760,258.3l-10.1,1.5l-83.5,12l-4.9,0.7
			l-1,4.9l-8.5,42.5l-1.5,7.5l7.6,0.8l11,1.2l-22.2,194.5l-0.7,6.2l6.1,1.4l36,8.5l6.9,1.6l1.6-6.9l61-266.5L760,258.3L760,258.3z"
			/>
	</g>
	<g>
		<path class="st4" d="M571.9,400.3l-13,114.7l-39.1-3.6l-1-198.4l-16.8,5.4l-3.4-62.1l2.4-0.9c33.3-12.2,57.7-14,69.2-14
			c4.7,0,7.3,0.3,7.4,0.3c49.8,6.5,78.4,33.4,76.6,72.1c-1.4,29.7-24.6,60.3-29.8,66.9L644.7,517l-34.2,12.2L571.9,400.3z
			 M574.4,367.1c5.7-2.9,11.8-6.8,11.8-6.8c23.1-15.2,16.6-36.1,16.3-37l-0.1-0.3l0-0.3c-2-13-16-17-22.6-18.1L574.4,367.1z"/>
		<path class="st5" d="M570.3,244.9c4.6,0,7,0.3,7,0.3c54,7,75,36.5,73.5,68.5s-30,66-30,66l20,135l-28,10l-38.5-128.5h-5.5l-13,115
			l-32.5-3l-1-200l-17,5.5l-3-55C535.3,246.6,559.2,244.9,570.3,244.9 M570.4,372.7c7-2.5,17.8-9.5,17.8-9.5
			c25.8-17,17.8-41,17.8-41c-3-20-29.2-21.5-29.2-21.5L570.4,372.7 M570.3,237.9c-11.8,0-36.5,1.8-70.4,14.2l-4.9,1.8l0.3,5.2l3,55
			l0.5,9.1l8.6-2.8l7.9-2.6l1,190.4l0,6.4l6.3,0.6l32.5,3l6.8,0.6l0.8-6.8l10.7-94.3l32.7,109.1l2.1,7.1l6.9-2.5l28-10l5.4-1.9
			l-0.8-5.7l-19.6-132c6.8-8.7,28.3-38.5,29.6-67.7c0.9-18.9-5.3-35.8-17.9-48.8c-13.9-14.4-34.6-23.4-61.7-27
			C577.9,238.2,575.2,237.9,570.3,237.9L570.3,237.9z M578.4,360.9l4.5-52c6.2,1.7,14.7,5.5,16,14.3l0.1,0.7l0.2,0.5
			c0.4,1.2,5.5,19.4-15,33C583.1,358.1,580.9,359.5,578.4,360.9L578.4,360.9z"/>
	</g>
	<g>
		<path class="st4" d="M816,562.7c-8.7,0-17.4-1.5-25.8-4.4c-53.5-18.3-79.6-88.2-60.7-162.8c7.5-29.7,23-57.1,43.6-77.3
			c20.7-20.3,44.7-31.4,67.6-31.4c8.4,0,16.7,1.5,24.4,4.5c25.5,9.9,44.5,30.1,54.8,58.5c10,27.6,11.5,61.8,4.4,98.9
			C911.6,514.8,866.1,562.7,816,562.7z M826.8,393.3c-18.6,0-38,19.1-44.2,43.4c-7.6,29.9,2.8,58,24.1,65.3
			c3.3,1.1,6.7,1.7,10.1,1.7c19.8,0,37.7-19.1,42.8-45.4c5.9-31.2-3.1-55.4-23.6-63.3C833.1,393.8,830,393.3,826.8,393.3z"/>
		<path class="st5" d="M840.7,290.4c7.8,0,15.6,1.4,23.2,4.3c50.5,19.5,71.2,79.8,57,153.5c-12.2,63.6-56.3,111-104.8,111
			c-8.2,0-16.4-1.3-24.7-4.2c-51.8-17.7-76.8-86.4-58.4-158.6C748.2,336.1,795.5,290.4,840.7,290.4 M816.9,507.2
			c21.5,0,40.9-20.6,46.2-48.3c6.1-32.2-3.2-58.6-25.8-67.2c-3.4-1.3-6.9-1.9-10.5-1.9c-20.1,0-40.9,19.8-47.6,46.1
			c-8,31.5,3.3,61.6,26.4,69.4C809.4,506.6,813.2,507.2,816.9,507.2 M840.7,283.4v7V283.4c-23.8,0-48.7,11.5-70,32.4
			c-21.1,20.6-36.9,48.6-44.6,78.9c-9.2,36.3-8.1,73.2,3.1,103.9c11.5,31.4,32.8,53.8,59.8,63.1c8.8,3,17.9,4.5,27,4.5
			c25.3,0,50.6-12,71.1-33.9c20-21.3,34.4-50.7,40.6-82.8c7.3-37.8,5.7-72.6-4.5-100.8c-10.7-29.4-30.3-50.3-56.8-60.6
			C858.2,285,849.6,283.4,840.7,283.4L840.7,283.4z M816.9,500.2c-3,0-6-0.5-8.9-1.5c-9.1-3.1-16.4-10.8-20.6-21.7
			c-4.4-11.5-4.8-25.5-1.3-39.4c5.8-22.9,23.7-40.8,40.8-40.8c2.8,0,5.4,0.5,8,1.5c18.8,7.2,27,30,21.4,59.4
			c-2.3,12.1-7.7,23.1-15.2,31C833.9,496,825.3,500.2,816.9,500.2L816.9,500.2z"/>
	</g>
</g>
</svg>
