<?xml version="1.0" encoding="utf-8"?>
<!-- Generator: Adobe Illustrator 19.0.0, SVG Export Plug-In . SVG Version: 6.00 Build 0)  -->
<svg version="1.1" id="Layer_1" xmlns="http://www.w3.org/2000/svg" xmlns:xlink="http://www.w3.org/1999/xlink" x="0px" y="0px"
	 viewBox="0 0 612 165.3" style="enable-background:new 0 0 612 165.3;" xml:space="preserve">
<style type="text/css">
	.st0{fill:#FFFFFF;}
</style>
<polygon class="st0" points="5.7,0 26,165.3 44.8,165.3 50.5,119.9 56.5,165.3 74.8,165.3 93.5,0 66.3,0 61.5,42.7 56,0 42,0 
	37.4,42.4 31,0 "/>
<path class="st0" d="M142,0h-40.8l-19,165.3h31.3l2.8-25.4h9.8l3.5,25.4H161L142,0z M118.8,111.8l2.9-23.2l2.3,23.2H118.8z"/>
<polygon class="st0" points="192.2,111.8 162,111.8 162,150.2 178.2,165.3 213.7,165.3 228,149.8 228,85 206.2,66.2 192.2,66.2 
	192.2,24.7 196,24.7 196,52.7 226.7,52.7 226.7,16.8 209.8,0 178.7,0 161,18.8 161,75.7 176.7,96.7 196.2,96.7 196.2,140.7 
	192.1,140.7 "/>
<polygon class="st0" points="228,0 228,24.5 243.5,24.5 243.5,165.3 274.3,165.3 274.3,25 288,25 288,0 "/>
<polygon class="st0" points="291.8,0 291.8,165.3 338.8,165.3 338.8,139.7 319.5,139.7 319.5,101.7 337,101.7 337,71.9 318.8,71.9 
	318.8,25.7 338.8,25.7 338.8,0 "/>
<polygon class="st0" points="344.3,0 344.3,165.3 397.8,165.3 397.8,139.9 374.8,139.9 374.8,0 "/>
<path class="st0" d="M456.3,0h-37.8l-19,165.3h30l1.8-24.7h9.5l1.5,24.7H473L456.3,0z M433.9,111.6l2.6-29.5l2.6,29.5H433.9z"/>
<polygon class="st0" points="475.5,165.3 475.5,0 498.8,0 509.7,46.8 509.7,0 540.3,0 540.3,165.3 516.7,165.3 505.5,120.2 
	505.5,165.3 "/>
<path class="st0" d="M588.3-0.5L544.8,0v165.3h44.5l20.8-19.7V21.2L588.3-0.5z M578.1,140.8h-5V24.5h5V140.8z"/>
</svg>
