<?xml version="1.0" encoding="utf-8"?>
<!-- Generator: Adobe Illustrator 19.0.0, SVG Export Plug-In . SVG Version: 6.00 Build 0)  -->
<svg version="1.1"
	 id="svg1160" xmlns:rdf="http://www.w3.org/1999/02/22-rdf-syntax-ns#" xmlns:cc="http://creativecommons.org/ns#" xmlns:dc="http://purl.org/dc/elements/1.1/" xmlns:svg="http://www.w3.org/2000/svg" xmlns:inkscape="http://www.inkscape.org/namespaces/inkscape" xmlns:sodipodi="http://sodipodi.sourceforge.net/DTD/sodipodi-0.dtd" sodipodi:docname="Watch_Dogs_(2014).svg" inkscape:version="1.0.1 (3bc2e813f5, 2020-09-07)"
	 xmlns="http://www.w3.org/2000/svg" xmlns:xlink="http://www.w3.org/1999/xlink" x="0px" y="0px" viewBox="262 304.7 1135.1 184.3"
	 style="enable-background:new 262 304.7 1135.1 184.3;" xml:space="preserve">
<style type="text/css">
	.st0{fill:#FFFFFF;}
</style>
<sodipodi:namedview  id="base" inkscape:window-x="-8" inkscape:window-y="-8" inkscape:window-maximized="1" inkscape:current-layer="layer1" inkscape:guide-bbox="true" inkscape:pageshadow="2" inkscape:document-rotation="0" inkscape:pageopacity="0.0" inkscape:window-height="706" inkscape:window-width="1366" inkscape:document-units="mm" bordercolor="#666666" inkscape:cy="92.163465" borderopacity="1.0" pagecolor="#ffffff" showguides="true" showgrid="false" inkscape:cx="567.54359" inkscape:zoom="0.60876381">
	</sodipodi:namedview>
<g id="layer1" transform="translate(76.283183,-132.46398)" inkscape:groupmode="layer" inkscape:label="Layer 1">
	<g id="g1755">
		<path id="rect1347" sodipodi:nodetypes="cccccccccccccccccccccccccccccccccccccccc" class="st0" d="M185.7,437.1l14.4,79.2H211
			V573h7.7v22.6l-11.7,0v3.5H240V573h16.3l0-56.6h2.9L265,479h0.4l5.3,33.9l0,33h10.4v57.4h21.6v-7.3h3.7v-23.1H320v-34.7h-20.9v-4
			h23.6v-17.8h7.5l14.4-79.2h-29.5l-10.9,72.6h-12.8l-11.6-72.6h-29.5l-11.6,72.6h-12.8l-10.9-72.6L185.7,437.1z"/>
		<path id="path1384" sodipodi:nodetypes="cccccccccccccccccccccccccccccccccccccccc" class="st0" d="M386.1,441.1l-21,79.2h-10.8
			v52.4h-9.8v24.4h-2.1v3.5h24.1v-27.5h16.6v-17.4h41.2v40h29.9v-10.5h-14v-5h14v-63.9h-10.3l-19.9-75.3H386.1z M354.3,520.3v-4
			h-18.3v4H354.3z M404.9,467.6h0.4l10.5,48.8h2.8v17.4h-28L404.9,467.6z M424.4,598.4v4.8h37.2v-4.8H424.4z"/>
		<path id="path1283" sodipodi:nodetypes="cccccccccccccccccccccc" class="st0" d="M451.1,441.1v25.2h34v137.4h28V601h-8.7v-5.9
			h10.8v-16.5h-15.1V574h15.1V466.3h33.3v-25.2H451.1z M515.2,574v4.6h29.1V574H515.2z"/>
		
			<path id="path1287" sodipodi:nodetypes="scccscccccccccccccccccccccccccccsccccccccccscccccccccccccccccccccccccccc" class="st0" d="
			M612.2,438.2c-11.5,0-20.7,2-27.6,6c-6.8,3.8-12.1,9.3-15.8,16.2c-3.6,7-5.9,15.4-7.1,25.2c-1,9.4-1.5,19.6-1.5,30.8v9.6h-10.6
			v27.7h14.8v26.3h21.7v5.6h-13.4v14.7h16.7v3h14.9v-3h43.5V573h11.9V524h-28.6v48.6H591v-51.2H580v-5H591
			c0.1-9.4,0.3-17.5,0.8-24.1c0.6-7.5,1.6-13.6,3-18.2c1.4-4.7,3.3-8,5.8-10c2.6-2.1,5.8-3.2,9.6-3.2c7,0,11.7,2.6,14.3,7.7
			c2.7,5,4.1,13,4.1,24.1h30.8c0-5.6-0.4-11.5-1.3-17.7c-0.1-0.9-0.2-1.7-0.4-2.5h-21.1v-5.8h19.8c-1-3.3-2.3-6.4-4-9.4
			c-3.1-5.6-7.9-10.1-14.3-13.7C631.8,439.9,623.1,438.2,612.2,438.2z M656.4,466.5c0.6,1.9,1,3.8,1.4,5.8h27.5v44h5.7v85.9h27.2
			v-63.7h38.2v63.7h24.5v-58.5h-11.5v-5h11.5v-97.7H752v58.3h-35.9v-58.3h-30.8v25.4H656.4z M780.9,538.8v5h13.3v-5H780.9z"/>
		<path id="rect1546" class="st0" d="M755.1,608.4v6.4v6.6H827v-6.6h11.7v-6.4H827H755.1z"/>
		<path id="path1291" class="st0" d="M1012.9,437.4c-11.5,0-20.7,2-27.6,6c-6.8,3.8-12.1,9.3-15.8,16.2c-3.6,7-5.9,15.4-7.1,25.2
			c-1,9.7-1.5,20.3-1.5,31.8v38.7h-18.2v5.9h22.7v-5.9h11.5v5.9h-11.5V573H983v23.1h5.4v7.2h52.9v-7.2h10.8v-22.9h12.7v-51.8h-25.3
			v-4.8h25.3c0-11.4-0.6-22.2-1.7-31.8c-1-9.8-3.3-18.2-7.1-25.2c-3.6-7-8.8-12.4-15.6-16.2C1033.7,439.4,1024.5,437.4,1012.9,437.4
			L1012.9,437.4z M1064.8,516.6v3.8h15.4v-4.3h-15.4V516.6z M942.8,561.2h-41.6v4.3h-14.3v3.1h14.3v4h-28.5v-11.4h-32.2v7.1h-5.1
			v4.7h5.1v30h32.2v-2.9h42.7v-27.5h27.4L942.8,561.2z M840.5,561.2v-5.9h-14.4v5.9H840.5z M872.7,561.2h28.5v-5.9h-28.5V561.2z
			 M872.7,555.3v-39h-3.5V463h13c5.8,0,10.5,1.1,13.9,3.4c3.6,2.1,6.2,5.4,7.9,9.8c1.9,4.4,3.1,9.9,3.6,16.5
			c0.6,6.4,0.9,14,0.9,22.6c0,0.3,0,0.7,0,1h6.2v35.2h-13.5v3.8h41.6v-39h-3.5c0-0.6,0-1.2,0-1.9c0-11.3-0.6-21.4-1.9-30.6
			s-3.8-16.9-7.5-23.3c-3.6-6.6-8.6-11.5-15.2-15c-6.6-3.6-15.2-5.3-25.9-5.3h-48.3v76h3.7v39L872.7,555.3z M1012.9,460
			c4.6,0,8.2,1.1,10.9,3.2c2.8,2,5,5.3,6.4,9.8c1.6,4.6,2.6,10.4,3,17.5c0.6,7.1,0.9,16.1,0.9,26.3v48.6h-12.3v7h-30v-51.4h-10.7
			v-4.5h10.7c0-10.1,0.2-19,0.6-26c0.6-7.1,1.6-13,3-17.5c1.6-4.6,3.7-7.8,6.4-9.8C1004.7,461.1,1008.4,460,1012.9,460L1012.9,460z"
			/>
		<path id="path1293" class="st0" d="M1145.6,437.4c-9.8,0-18,1.6-24.6,4.9c-6.6,3.3-11.8,8.2-15.8,14.7c-4,6.4-6.8,14.5-8.5,24.1
			c-1.6,9.7-2.3,20.9-2.3,33.8v9.7h-7.6v21.1h16.6v15.6h-10.8v4.4h-7v3.1h17.8V596h21.7h41.7h16.4v-40.7h-8.3v-9.5h17.5v-11.6V522
			h10.5v-5.6h-10.5h-9.8h-37.4v17.9h13.7v38.3h-28.2v-26.9h-5.7v-32.3c0-19.1,1.6-32.8,4.9-41c3.3-8.3,8.6-12.4,16-12.4
			c3.1,0,5.8,0.9,7.9,2.6c2.3,1.6,4.1,3.6,5.6,6.2c1.4,2.4,2.4,5.2,3,8.3c0.7,3,1.1,5.8,1.1,8.5h29.5c0-15.5-3.7-27.4-11.1-35.7
			C1174.6,441.6,1162.4,437.4,1145.6,437.4L1145.6,437.4z M1127.1,598.4v4.8h26.3v-4.8H1127.1z"/>
		<path id="path1295" class="st0" d="M1261.6,437.4c-14.7,0-26.2,3.7-34.6,11.1c-8.4,7.4-12.6,18.7-12.6,33.8
			c0,6.3,0.8,11.8,2.3,16.7c1.6,4.7,4,8.9,7.3,12.6c1.6,1.7,3.5,3.3,5.5,4.8h-7.8v4h28.7v18.5h25.4v34.3h-26.1v-27.5h-33.2v2.9h8.9
			v4.3h-8.9v20.3h13.1v30h70.2v-30h11.7v-46.4h-6.6v-5.2h-32.7v-5.2h25.8c-3.6-2.7-8-5.2-13.4-7.6l-23.7-10.3
			c-6.6-2.7-10.8-5.6-12.8-8.8c-2-3.3-3-7.3-3-12c0-2.3,0.2-4.5,0.6-6.6c0.6-2.1,1.5-4,2.8-5.6c1.4-1.7,3.3-3.1,5.6-4.1
			c2.3-1,5.1-1.5,8.5-1.5c6,0,10.3,2,12.8,6c2.6,3.8,3.8,9.4,3.8,16.7h29.5v-4.3c0-7.3-1.2-13.5-3.6-18.6c-2.3-5.3-5.6-9.5-9.8-12.8
			c-4.1-3.4-9.1-5.8-15-7.3C1274.7,438.2,1268.4,437.4,1261.6,437.4L1261.6,437.4z M1216.4,552.9v-4.3h-12.7v4.3H1216.4z
			 M1305.4,516.3v3.9h15.4v-3.9H1305.4z"/>
	</g>
</g>
</svg>
