<?xml version="1.0" encoding="utf-8"?>
<!-- Generator: Adobe Illustrator 19.0.0, SVG Export Plug-In . SVG Version: 6.00 Build 0)  -->
<svg version="1.1" id="Layer_1" xmlns="http://www.w3.org/2000/svg" xmlns:xlink="http://www.w3.org/1999/xlink" x="0px" y="0px"
	 viewBox="0 0 760 392.7" style="enable-background:new 0 0 760 392.7;" xml:space="preserve">
<style type="text/css">
	.st0{fill:none;}
	.st1{fill:#FFFFFF;}
</style>
<g>
	<path class="st0" d="M347,6.3c4.2,0,8.4,0,12.6,0c0.6,0.1,1.3,0.2,1.9,0.3c5.7,0.2,11.5,0.6,17.2,1.3c3.6,0.5,7.2,1,10.7,2.4
		c6.5,2.5,12.9,5.5,18.8,9.2c1.8,1.1,3.3,2.6,4.3,4.4c1.7,3,3.5,5.9,5.2,8.9c0.7,1.2,1.6,2.3,2.8,3.1c2.3,1.7,4.6,3.3,7,4.9
		c5.4,3.7,9.7,8.5,13.1,14.1c1.5,2.4,2.6,5.1,3.2,7.9c0.4,2.2,0.4,4.4-0.2,6.5c-0.2,0.8-0.7,1.1-1.5,1.2c-1.4,0.1-2.9,0.2-4.3,0.3
		c-2,0.2-4,0.4-6.2,0.6c0,3.4,0.5,6.5,1.9,9.4c2.6-0.5,5.1-1,7.7-1.5c-0.2,1.3-0.3,2.3-0.5,3.5c0.6,0,1.1,0,1.5,0
		c0.8,0,1.6-0.1,2.4-0.1c1.8,0,2.5,0.5,3.2,2.1c0.2,0.6,0.4,1.1,0.6,1.7c0.4,1.6,0.8,3.3,1.2,5c0.7,3.3,1.4,6.5,2.1,9.8
		c0.1,0.3,0.3,0.5,0.5,1.1c0.9-7,1.8-13.7,2.7-20.3c1.9-0.3,31.7-0.2,32.9,0.1c2.2,7.4,4.3,14.9,6.5,22.3c0.5,0,0.9,0,1.3,0
		c5.1-0.6,10.2-1.3,15.3-1.9c4.5-0.6,8.9-1.1,13.4-1.7c1-0.1,1.9,0.1,2.6,0.8c0.9,1,1.8,2,2.5,3.2c2,3.2,3.1,6.8,3.9,10.5
		c0.2,0.8,0.3,1.6,0.5,2.5c0.4,0,0.7,0,1,0c2.6-0.2,5.2-0.5,7.8-0.7c7.1-0.6,14.1-1.3,21.2-1.9c9.3-0.9,18.6-1.8,27.9-2.6
		c1-0.1,1.4-0.5,1.7-1.3c1.4-3.7,2.8-7.5,4.3-11.2c0.2-0.5,0.4-1,0.6-1.5c0.4,0,0.8-0.1,1.1-0.1c7.9-0.2,15.8-0.2,23.7,0.3
		c4.7,0.3,9.5,0.8,14.1,1.9c3.9,1,3.3,0.1,5.1,4.4c1.8,4.2,2.9,8.6,3.9,13.1c1.7,7.9,2.9,15.8,3.5,23.9c0.4,5.5,0.4,11.1-0.8,16.6
		c-1.1,5.4-3.3,10.2-7.3,14.2c-1.8,1.8-3.8,2.7-6.3,3.1c-5.8,0.8-11.7,1-17.5,0.8c-5.4-0.2-10.9-0.7-16.2-1.9
		c-1.1-0.3-1.7-0.7-2-1.8c-1.2-3.6-2.6-7.1-4-10.7c-0.6-1.5-1.6-2.9-2.4-4.3c-0.6-0.9-1.4-1.5-2.5-1.7c-1.2-0.2-2.4-0.6-3.6-0.8
		c-7.6-1.5-15.3-1.9-23-2c-8.6-0.2-17.2,0.2-25.8,0.9c-1.6,0.1-3.2,0.4-5,0.6c0,0.7,0,1.2,0,1.6c-0.1,1-0.1,2-0.3,3
		c-0.8,3.9-3,6.9-5.7,9.6c-0.5,0.5-1.1,0.4-1.7,0.4c-6.1-0.8-12.2-1.7-18.3-2.5c-3.1-0.4-6.1-0.9-9.2-1.3c-1.4-0.2-1.8,0-2.1,1.1
		c-0.6,2.3-0.5,4.6,0.1,7.1c0.7-0.2,1.3-0.3,1.8-0.5c3.2-0.8,6.3-1.4,9.6-0.8c4,0.7,6.8,2.8,8.1,6.7c0.8,2.3,1,4.8,0.8,7.2
		c0,0.5-0.1,1-0.1,1.5c0.5,0,0.8,0,1.2,0c2.9-0.1,5.9-0.3,8.8-0.4c10.5-0.2,21,0.2,31.5,0.8c7.9,0.5,15.9,0.9,23.8,1.2
		c5.9,0.2,11.9,0.2,17.8-0.5c2.2-0.2,4.3-0.5,6.6-0.8c2,4.1,4,8.2,5.9,12.2c2.1,0,3.5-0.7,4.3-2.4c0.2-0.4,0.5-0.7,0.6-1
		c0.4-0.8,1.1-1.2,2-1.4c15.9-3.4,31.7-6.8,47.6-10.3c17.8-3.8,35.6-7.7,53.5-11.6c2.9-0.6,5.8-1.3,8.8-1.9c0.2,0.3,0.4,0.5,0.5,0.7
		c7,10.7,14,21.3,20.9,32c0.4,0.7,0.5,1.4,0.6,2.1c0.5,13.9,0.9,27.9,1.4,41.8c0.2,6.7,0.4,13.5,0.7,20.2
		c0.4,12.9,0.9,25.8,1.3,38.7c0,0.5,0,1,0,1.5c-2.3-0.3-4.3-0.6-6.5-1c0.2,0.5,0.4,0.8,0.5,1.1c0.8,2,1.8,4,2.5,6.1
		c3.1,9.1,4.4,18.6,4.7,28.1c0.3,9.1,0.3,18.3-0.5,27.4c-0.1,1.2-0.5,1.9-1.5,2.4c-9.2,5.2-18.3,10.4-27.4,15.7
		c-1.1,0.6-2.1,0.8-3.3,0.6c-5.1-0.8-10.3-1.5-15.4-2.3c-7.2-1.1-14.4-2.1-21.6-3.2c-7.1-1-14.1-2.1-21.2-3.1
		c-7.3-1.1-14.5-2.1-21.8-3.2c-2.3-0.3-4.6-0.7-7-1c-0.4,1.1-1.4,1.1-2.4,1.2c-7.2,0.3-14.4,0.7-21.6,1c-9.8,0.5-19.7,1-29.5,1.4
		c-5,0.2-10.1,0.5-15.1,0.8c-0.7,0-1.5,0-2.4,0c-0.9-8.7-1.8-17.4-2.7-26.1c-0.1,0-0.2,0-0.3-0.1c-9.8,12.6-19.7,25.1-29.5,37.7
		c-0.2-0.1-0.3-0.1-0.3-0.2c-2.8-4.1-5.6-8.2-8.4-12.3c-0.1-0.1-0.2-0.2-0.3-0.3c0,0-0.1,0-0.1,0c0,0-0.1,0-0.1,0
		c-0.1,0.6-0.3,1.2-0.4,1.9c-0.6-0.2-1-0.3-1.5-0.4c-11.8-3.4-23.5-6.8-35.3-10.2c-2.1-0.6-4.3-0.9-6.5-1c-9.1-0.3-18.2-0.7-27.3-1
		c-15.4-0.6-30.8-1.2-46.2-1.8c-1,0-2.1-0.1-3.2-0.2c-0.3-1.9-0.5-3.6-0.8-5.5c-1,0-1.8,0.1-2.6,0.1c-0.5,1.6-1,3.2-1.5,4.8
		c-20.4-2.8-40.7-5.5-61.2-8.3c0.2-2.9,0.4-5.7,0.6-8.8c-0.7,0.4-1.1,0.7-1.6,1c-5.4,3.7-10.8,7.4-16.2,11.1
		c-0.5,0.3-1.1,0.6-1.8,0.7c-1.3,0.2-2.6,0.2-3.9,0.4c-4.9,0.4-9.9,0.9-14.8,1.3c-6.4,0.6-12.8,1.1-19.3,1.7c-5,0.4-10,0.9-14.9,1.3
		c-6.3,0.6-12.6,1.1-19,1.7c-5.1,0.5-10.3,0.9-15.4,1.4c-1.1,0.1-2-0.1-3-0.6c-8.9-4.7-17.9-9.4-26.8-14.1c-0.5-0.3-1-0.7-1.6-0.6
		c0,0.1-0.1,0.2-0.1,0.2c-0.1,10.2-0.2,20.4-0.3,30.6c0,0.1,0,0.3-0.1,0.4c0,0,0,0.1-0.1,0.1c0,0-0.1,0.1-0.2,0.2
		c-28.1-0.3-56.3-0.7-84.5-1c-2.2-6.1-4.1-12.1-6.3-18c-0.1,0-0.2,0-0.3,0c-2.4,8.3-4.8,16.7-7.2,25.1c-25.2-2.8-50.3-5.6-75.4-8.3
		c1.2-38.3,2.4-76.4,3.6-114.5c-0.3-0.2-0.4-0.3-0.6-0.4c-7-3.5-14.1-6.9-21.1-10.3c-0.3-0.2-0.7-0.2-1.1-0.3c0-0.6,0-1.2,0-1.8
		c0.2-0.8,0.5-1.5,0.5-2.3c0.4-6.1,0.9-12.3,1.3-18.4c0.4-6.5,0.9-13.1,1.3-19.6c0.5-7.9,1.1-15.9,1.7-23.8
		c0.5-6.6,0.9-13.2,1.3-19.7c0-0.5,0.1-1.1,0.2-1.7c22.7,6,45.2,12,67.7,18c0.3,4.3,0.6,8.5,0.9,12.6c0.3,4.1,0.6,8.2,0.8,12.3
		c0.3,4.1,0.5,8.2,0.9,12.2c0.1,0,0.2,0,0.3,0c1.6-4.2,3.2-8.4,4.8-12.7c19.2,2,38.3,4.1,57.6,6.1c-0.3-9.5-0.6-18.9-0.8-28.4
		c2.7,0.4,5.2,0.8,7.7,1.2c2.5,0.4,4.9,0.8,7.4,1.2c2.5,0.4,4.9,0.9,7.4,0.9c-1.9-0.7-3.9-0.7-5.9-1.3c0.3-0.6,0.6-1,0.8-1.4
		c3.5-5.6,6.9-11.2,10.4-16.8c1-1.6,2-3.1,2.8-4.8c1.2-2.3,3-3.9,5.6-4.4c1.9-0.4,3.8-0.7,5.8-0.9c4.9-0.5,9.8-0.9,14.6-1.3
		c6.4-0.6,12.7-1.1,19.1-1.7c2-0.2,4.1-0.4,6.1-0.6c1.3-7.2,2.7-14.2,4-21.4c19.2-0.3,38.3-0.5,57.5-0.8
		c5.5-26.8,11.1-53.5,16.6-80.2c3.5-0.5,6.9-0.9,10.2-1.4c3.4-0.5,6.7-0.9,10.1-1.4c1.4-0.2,1.7-0.6,1.6-1.9
		c-0.2-1.9-0.4-3.9-0.7-5.8c-0.4-2-1-3.9-2.2-5.7c-1.2,0.9-2.4,1.7-3.6,2.7c-2.5-5.7-5-11.2-7.5-16.8c0.6-0.6,1.2-1.3,1.9-1.8
		c1.9-1.7,4.2-2.9,6.6-3.8c3.3-1.2,6.7-2.2,10.1-3.3c0.4-0.1,0.8-0.3,1.3-0.5c-0.3-0.5-0.6-0.9-0.8-1.3c-0.9-1.5-1.4-3.1-1.4-4.8
		c-0.1-2.7,1.4-4.7,4-5.5c0.4-0.1,0.9-0.3,1.3-0.3c3.1-0.3,6.2-0.6,9.2-0.9C344.8,6.5,345.9,6.4,347,6.3z M382.5,237.1
		c0.9-0.1,1.6-0.2,2.3-0.3c5.5-0.9,10.9-1.9,16.4-2.9c9.6-1.8,19.2-3.5,28.5-6.3c0.6-0.2,1.2-0.4,1.9-0.6c0.8-0.2,1.2-0.8,1-1.6
		c-0.1-0.8-0.3-1.7-0.6-2.5c-1.3-3.6-3.3-6.9-5.6-10.1c-0.2-0.3-0.5-0.5-0.8-0.9c-2,2-3.7,4.3-5.9,6c0.2-0.6,0.4-1.1,0.7-1.7
		c3.2-6.3,6.5-12.5,9.6-18.8c1.1-2.1,1.8-4.5,2.5-6.7c0.4-1.2,0.4-2.6,0-3.8c-0.8-2.9-2-3.6-4.9-2.5c-2.5,0.9-4.9,2.1-7,3.6
		c-4.4,3.2-8.8,6.3-13,9.7c-11.2,8.9-22.2,17.8-33.3,26.8c-0.4,0.4-0.9,0.7-1.5,1.2c0-0.4,0-0.5,0-0.5c1-1.6,2.1-3.2,3.1-4.8
		c0.8-1.2,0.8-1.2-0.2-2.3c-10.3-11.6-19.3-24.1-26.8-37.7c-8-14.3-14.2-29.2-17.9-45.1c-2.3-9.6-3.5-19.3-3.4-29.1c0-3,0.2-6,0.6-9
		c0.2-1.6,0-2.8-1.4-3.7c-0.1-0.1-0.1-0.3-0.2-0.5c5.4-1,10.8-2,16.2-2.6c-0.8,0.9-1.7,1.8-2.5,2.7c0.1,0.3,0.2,0.5,0.2,0.7
		c5.9,13,13.5,24.8,21.9,36.2c0.3,0.4,0.6,0.8,1,1.2c1.7,1.9,3.7,3.3,6,4.4c2.8,1.3,5.6,2.7,8.3,4.1c3.2,1.7,6.4,3.5,9.6,5.2
		c4.3,2.2,8.7,4.4,13.4,5.6c1.3,0.3,2.7,0.5,4,0.5c1.7,0,3-0.8,3.7-2.4c0.5-1.2,0.9-2.5,1-3.7c0.2-2.2,0.1-4.5-0.5-6.7
		c-0.3-1.1-0.1-2.1,0.4-3.2c3.6-7.7,7.2-15.4,10.7-23.1c0.3-0.6,0.6-1.3,0.8-1.9c0.6-3,1.3-6.1,1.7-9.1c0.3-2.4,0.1-4.8-0.9-7.2
		c-3.9,0-7.8,0-11.8,0c-0.4-1.8-0.7-3.5-1.1-5.1c-0.1-0.1-0.3-0.1-0.4-0.2c-0.6,0.8-1.2,1.6-1.8,2.5c-7.4-6.2-14.5-12.2-21.7-18.3
		c2-4.4,3.9-8.6,5.9-13c-0.3-0.2-0.5-0.4-0.6-0.5c-7.4-5.4-15.1-10.5-23.4-14.6c-2.4-1.2-4.9-2-7.5-2.6c-3.2-0.7-6.3-0.3-8.8,2.1
		c-0.5,0.5-1.1,0.9-1.5,1.5c-2.2,2.7-4.5,5.2-6.5,8c-5.8,8.3-10.9,17.1-15.9,26c-0.1,0.2-0.2,0.5-0.3,1c1.8-0.7,3.5-1.3,5.1-1.9
		c-0.1,0.4-0.3,0.7-0.6,0.9c-4.4,4-8.9,7.9-13.3,11.9c-0.5,0.5-1.1,0.9-1.6,1.4c-0.9,1-1.3,2.1-1,3.4c0.2,0.8,0.5,1.5,0.8,2.3
		c0.6,1.4,1.3,2.8,1.8,4.3c1.7,4.3,3.4,8.5,5.1,12.8c0.4,1,0.7,1.9,1.2,3.1c-1.3-0.6-1.7-1.8-3-2.4c-0.1,1.2-0.3,2.2-0.4,3.3
		c-0.3,6.3-0.1,12.5,0.6,18.7c0.8,7.9,2.1,15.7,3.9,23.5c1.8,7.9,3.7,15.7,7.4,22.9c0.2,0.5,0.2,1.1,0.3,1.6c0,0.5-0.1,1.1-0.1,1.6
		c0,4.3,0.1,8.6,0.2,12.9c0.2,6.9,1.2,13.7,2.4,20.5c0.1,0.3,0,0.7,0,1.1c-0.1,0-0.2,0-0.2,0.1c-1.2-2-2.5-3.9-3.8-6.1
		c-2.9,3-5.6,5.8-8.4,8.6c-0.1-0.1-0.2-0.1-0.2-0.2c1.1-2.9,2.8-5.6,3.9-8.6c-1.6-0.8-3.1-1.6-4.5-2.3c-4.5-2.3-9.1-4.6-13.6-7
		c-0.9-0.5-1.7-0.5-2.5,0.1c-1.1,0.9-2.3,1.6-3.4,2.5c-7.7,6.5-14.6,13.7-20.9,21.6c-0.2,0.3-0.4,0.6-0.7,1.1
		c0.8,0.1,1.5,0.3,2.2,0.3c5,0.5,9.9,1.1,14.9,1.5c5,0.4,10,0.9,14.9,1.1c8.9,0.3,17.8,0.2,26.7-0.8c5.9-0.7,11.8-1.4,17.7-2.3
		c8-1.2,16-2.5,24-3.8c0.3-0.1,0.7,0,1.2-0.1C382.5,231.2,382.5,234.1,382.5,237.1z M388.9,157c-0.3-0.1-0.5-0.1-0.7-0.2
		c-4.6-0.7-9.3-1.4-13.9-2.1c-1.2-0.2-2-0.5-2.6-1.8c-2-4.5-4.2-9-6.3-13.4c-0.5-1-1.1-1.9-1.7-2.8c-0.8-1.2-1.8-2.4-2.6-3.7
		c-5.7-8.8-11.4-17.6-17-26.5c-0.3-0.5-0.6-1-1.1-1.6c-2.6,3.3-5.1,6.3-7.7,9.6c5,3.1,9.8,6.1,14.7,9.1c-2.2,5.4-4.6,10.7-6.8,16.1
		c3.8,1.9,7.5,3.8,11.2,5.6c-0.4,8.4-0.7,16.7-1.1,25.3c4.4-0.9,8.5-1.8,12.7-2.6c0.3,0.8,0.6,1.4,0.8,2.1c0.5,2.5,1.2,5.1,1.5,7.6
		c0.5,4.1,0.8,8.2,1.2,12.4c0,0.3,0.1,0.5,0.3,1c5.7-2.6,10.9-5.7,15-10.8c0.8,2.9,1.5,5.6,2.2,8.2c0.8,2.6,1.3,5.4,2.3,8.2
		c3.1-3,6-5.8,8.9-8.6c2.7,2,5.3,3.9,8,5.9c4.1-3.6,8-7.1,12.1-10.8c-2.3-3.7-4.5-7.4-6.8-11.1c-3.9,2.4-7.7,4.7-11.5,7
		C395.3,172.1,390.9,165.2,388.9,157z M340.6,140.8c0.2-0.5,0.4-1,0.6-1.5c2-4.5,4-9,6-13.6c0.6-1.3,0.6-1.4-0.6-2.1
		c-4.1-2.5-8.2-5-12.3-7.5c-0.5-0.3-0.9-0.6-1.4-0.9c0.4-0.7,0.7-1.2,1.1-1.8c2.2-3.5,4.4-7,6.6-10.5c0.5-0.7,0.5-1.3,0-2
		c-0.9-1.4-1.8-2.9-2.7-4.3c-0.2-0.4-0.5-0.8-0.9-1c-1.3-0.7-2.7-1.2-4.2-1.9c-0.4,1-0.8,1.8-1.1,2.7c-1.1,3.2-1.5,6.6-1.6,10
		c-0.1,8.2,1.3,16.2,3.2,24.2c3.3,13.5,8.1,26.6,13.8,39.2c5.1,11.2,10.9,22,18,32.1c3.4,4.8,7.1,9.3,11.4,13.3
		c0.9,0.8,1.8,1.5,2.8,2.4c8.4-7.5,16.7-14.9,25.1-22.4c-2.2-1.8-4.2-3.4-6.3-5.1c-3.2,3.1-6.2,6-9.5,9.2c-0.8-2.7-1.5-5.2-2.3-7.7
		c-0.8-2.5-1.3-5-2.3-7.5c-0.3,0.1-0.3,0.1-0.4,0.1c-5.6,3.9-11.3,7.8-16.9,11.6c-0.1,0.1-0.3,0.1-0.4,0.2c0,0-0.1,0-0.1,0
		c0,0-0.1,0-0.2-0.1c0.1-1.4,0.1-2.8,0.2-4.3c0.3-5.4,0.4-10.8-0.4-16.2c-0.3-1.7-0.6-3.4-1.7-4.9c-0.3,0-0.5,0-0.8,0.1
		c-3.8,0.7-7.6,1.4-11.4,2.1c-0.5,0.1-0.9,0.1-1.4,0.1c0-0.4,0-0.5,0-0.7c0.9-7.7,1.7-15.5,2.6-23.2c0.2-1.7,0.2-1.7-1.3-2.4
		c-3.3-1.7-6.6-3.4-9.9-5C341.7,141.4,341.2,141.1,340.6,140.8z M393.6,61.5c-0.1,0.1-0.1,0.2-0.2,0.2c0.3,0.4,0.5,0.7,0.8,1.1
		c3.6,4.7,7.2,9.3,10.8,14c2,2.5,3.9,5.1,5.9,7.6c0.3,0.3,0.7,0.8,1,0.8c1.3-0.1,2.6-0.3,3.9-0.8C410.2,74.8,402,68.1,393.6,61.5z"
		/>
	<path class="st1" d="M382.5,237.1c0-3.1-1.9-4.6-1.9-7.6c-0.6,0,1-1.4,0.6-1.4c-8,1.3-16,2.6-24,3.8c-5.9,0.9-11.8,1.6-17.7,2.3
		c-8.9,1-7.8,6-16.7,5.7c-5-0.2-19.9-5.5-24.9-5.9c-5-0.4-9.9-1-14.9-1.5c-0.7-0.1-1.4-0.2-2.2-0.3c0.3-0.4,0.4-0.8,0.7-1.1
		c6.3-7.9,13.2-15.2,20.9-21.6c1.1-0.9,2.3-1.6,3.4-2.5c0.8-0.6,1.5-0.6,2.5-0.1c4.5,2.4,9.1,4.7,13.6,7c1.5,0.7,2.9,1.5,4.5,2.3
		c-1.1,3-2.8,5.7-3.9,8.6c0.1,0.1,0.2,0.1,0.2,0.2c2.8-2.8,5.5-5.7,8.4-8.6c1.3,2.1,2.6,4.1,3.8,6.1c0.1,0,0.2,0,0.2-0.1
		c0-0.4,0.1-0.7,0-1.1c-1.2-6.8-2.2-13.6-2.4-20.5c-0.1-4.3-0.1-8.6-0.2-12.9c0-0.5,0.1-1.1,0.1-1.6c0-0.5,0-1.1-0.3-1.6
		c-3.6-7.3-5.6-15.1-7.4-22.9c-1.7-7.8-3-15.6-3.9-23.5c-0.7-6.2-0.9-12.5-0.6-18.7c0-1,0.2-2.1,0.4-3.3c1.2,0.5,1.7,1.8,3,2.4
		c-0.4-1.2-0.8-2.2-1.2-3.1c-1.7-4.3-3.4-8.5-5.1-12.8c-0.6-1.4-1.3-2.8-1.8-4.3c-0.3-0.7-0.6-1.5-0.8-2.3c-0.3-1.3,0.1-2.5,1-3.4
		c0.5-0.5,1-0.9,1.6-1.4c4.4-4,8.9-7.9,13.3-11.9c0.2-0.2,0.5-0.5,0.6-0.9c-1.6,0.6-3.2,1.2-5.1,1.9c0.2-0.5,0.2-0.7,0.3-1
		c4.9-8.9,10.1-17.6,15.9-26c2-2.8,4.3-5.4,6.5-8c0.4-0.5,1-1,1.5-1.5c2.6-2.3,5.6-2.7,8.8-2.1c2.6,0.5,5.1,1.4,7.5,2.6
		c8.3,4.1,15.9,9.2,23.4,14.6c0.2,0.1,0.3,0.2,0.6,0.5c-1.9,4.3-3.9,8.6-5.9,13c7.2,6.1,14.3,12.1,21.7,18.3
		c0.7-0.9,1.3-1.7,1.8-2.5c0.1,0.1,0.3,0.1,0.4,0.2c0.3,1.7,0.7,3.3,1.1,5.1c4,0,7.9,0,11.8,0c1,2.4,1.3,4.8,0.9,7.2
		c-0.4,3.1-1.1,6.1-1.7,9.1c-0.1,0.7-0.5,1.3-0.8,1.9c-3.6,7.7-7.1,15.4-10.7,23.1c-0.5,1-0.7,2-0.4,3.2c0.5,2.2,0.7,4.5,0.5,6.7
		c-0.1,1.3-0.5,2.6-1,3.7c-0.7,1.5-2,2.4-3.7,2.4c-1.3,0-2.7-0.2-4-0.5c-4.7-1.2-9.1-3.4-13.4-5.6c-3.2-1.7-6.4-3.5-9.6-5.2
		c-2.7-1.4-5.5-2.8-8.3-4.1c-2.3-1.1-4.3-2.5-6-4.4c-0.3-0.4-0.7-0.7-1-1.2c-8.4-11.4-16.1-23.3-21.9-36.2c-0.1-0.2-0.1-0.4-0.2-0.7
		c0.8-0.9,1.7-1.8,2.5-2.7c-5.4,0.7-10.8,1.6-16.2,2.6c0.1,0.3,0.1,0.5,0.2,0.5c1.4,0.9,1.6,2.1,1.4,3.7c-0.4,3-0.6,6-0.6,9
		c-0.1,9.8,1.1,19.5,3.4,29.1c3.8,15.9,10,30.9,17.9,45.1c7.6,13.5,16.5,26.1,26.8,37.7c0.9,1.1,0.9,1.1,0.2,2.3
		c-1,1.6-2.1,3.2-3.1,4.8c0,0.1,0,0.2,0,0.5c0.6-0.5,1-0.8,1.5-1.2c11.1-8.9,22.2-17.9,33.3-26.8c4.2-3.4,8.6-6.5,13-9.7
		c2.1-1.6,4.5-2.8,7-3.6c2.9-1,4-0.4,4.9,2.5c0.4,1.3,0.4,2.6,0,3.8c-0.7,2.3-1.4,4.6-2.5,6.7c-3.1,6.3-6.4,12.5-9.6,18.8
		c-0.3,0.5-0.5,1-0.7,1.7c2.2-1.8,3.9-4,5.9-6c0.4,0.4,0.6,0.6,0.8,0.9c2.3,3.1,4.2,6.4,5.6,10.1c0.3,0.8,0.4,1.6,0.6,2.5
		c0.1,0.8-0.2,1.4-1,1.6c-0.6,0.2-1.2,0.4-1.9,0.6c-9.4,2.7-19,4.5-28.5,6.3c-5.5,1-10.9,1.9-16.4,2.9
		C384.1,237,383.4,237,382.5,237.1z M404.1,109.4c0-0.7,0-1.1,0-1.5c0-1.4,0-2.8-0.1-4.2c-0.2-2.2-0.7-4.3-1.9-6.3
		c-1.8-2.9-4.6-4-7.8-3.1c-1,0.3-1.9,0.6-2.7,1.2c-1.4,0.9-2.7,1.9-3.9,3c-3.6,3.4-6,7.5-8,12c-2.5,5.8-3.9,11.7-3.5,18.1
		c0.1,1.9,0.5,3.8,1.3,5.5c1.9,4.4,5.7,5.9,10.1,3.9c0.8-0.4,1.6-0.8,2.3-1.3c1.4-1.1,2.7-2.2,3.9-3.5c2-2.1,3.5-4.5,4.9-6.9
		c0.2-0.4,0.5-0.7,0.7-1c0.3,1,0.3,2,0.5,2.9c0.2,1.2,0.5,2.4,1,3.4c0.9,1.8,2.6,2.5,4.6,1.8c0.8-0.3,1.7-0.7,2.3-1.3
		c1-0.9,2.1-1.9,2.9-3c2.9-3.9,4.6-8.4,5-13.3c0.2-2.3-0.2-4.5-1.3-6.5c-1.6-3-4.4-3.8-7.3-2c-0.7,0.4-1.3,1-2,1.6
		C404.8,108.9,404.5,109.1,404.1,109.4z"/>
	<path class="st1" d="M388.9,157c1.9,8.2,6.4,15.1,11,22.1c3.9-2.4,7.6-4.6,11.5-7c2.3,3.7,4.5,7.3,6.8,11.1c-4,3.6-8,7.1-12.1,10.8
		c-2.6-1.9-5.2-3.9-8-5.9c-2.9,2.8-5.8,5.6-8.9,8.6c-1-2.8-1.6-5.5-2.3-8.2c-0.7-2.6-1.4-5.3-2.2-8.2c-4.1,5-9.3,8.1-15,10.8
		c-0.1-0.5-0.2-0.7-0.3-1c-0.4-4.1-0.7-8.3-1.2-12.4c-0.3-2.6-0.9-5.1-1.5-7.6c-0.1-0.7-0.5-1.3-0.8-2.1c-4.2,0.9-8.3,1.7-12.7,2.6
		c0.4-8.6,0.7-16.9,1.1-25.3c-3.7-1.9-7.4-3.7-11.2-5.6c2.2-5.4,4.6-10.7,6.8-16.1c-4.9-3-9.7-6-14.7-9.1c2.6-3.2,5.1-6.3,7.7-9.6
		c0.4,0.7,0.8,1.2,1.1,1.6c5.7,8.8,11.4,17.7,17,26.5c0.8,1.3,1.7,2.4,2.6,3.7c0.6,0.9,1.2,1.8,1.7,2.8c2.2,4.5,4.3,8.9,6.3,13.4
		c0.6,1.3,1.4,1.6,2.6,1.8c4.6,0.7,9.3,1.4,13.9,2.1C388.4,156.9,388.6,156.9,388.9,157z"/>
	<path class="st1" d="M340.6,140.8c0.5,0.3,1,0.6,1.5,0.8c3.3,1.7,6.6,3.4,9.9,5c1.5,0.7,1.5,0.8,1.3,2.4
		c-0.9,7.7-1.7,15.5-2.6,23.2c0,0.1,0,0.3,0,0.7c0.5,0,0.9-0.1,1.4-0.1c3.8-0.7,7.6-1.4,11.4-2.1c0.2,0,0.5-0.1,0.8-0.1
		c1.1,1.5,1.4,3.2,1.7,4.9c0.8,5.4,0.7,10.8,0.4,16.2c-0.1,1.4-0.1,2.9-0.2,4.3c0.1,0.1,0.2,0.1,0.2,0.1c0,0,0.1,0,0.1,0
		c0.1-0.1,0.3-0.1,0.4-0.2c5.6-3.9,11.3-7.8,16.9-11.6c0,0,0.1,0,0.4-0.1c0.9,2.4,1.5,5,2.3,7.5c0.8,2.5,1.5,5,2.3,7.7
		c3.2-3.1,6.3-6.1,9.5-9.2c2.1,1.7,4.1,3.3,6.3,5.1c-8.4,7.5-16.7,14.9-25.1,22.4c-1-0.9-2-1.6-2.8-2.4c-4.3-4-8-8.5-11.4-13.3
		c-7.1-10.1-12.9-20.9-18-32.1c-5.8-12.7-10.5-25.7-13.8-39.2c-1.9-7.9-3.3-15.9-3.2-24.2c0.1-3.4,0.4-6.8,1.6-10
		c0.3-0.9,0.7-1.7,1.1-2.7c1.5,0.7,2.9,1.2,4.2,1.9c0.4,0.2,0.7,0.6,0.9,1c0.9,1.4,1.8,2.9,2.7,4.3c0.5,0.7,0.4,1.3,0,2
		c-2.2,3.5-4.4,7-6.6,10.5c-0.3,0.5-0.7,1.1-1.1,1.8c0.5,0.3,0.9,0.6,1.4,0.9c4.1,2.5,8.2,5,12.3,7.5c1.2,0.8,1.2,0.8,0.6,2.1
		c-2,4.5-4,9-6,13.6C341,139.8,340.9,140.3,340.6,140.8z"/>
	<path class="st1" d="M393.6,61.5c8.3,6.6,16.6,13.3,22.2,22.8c-1.3,0.5-2.6,0.7-3.9,0.8c-0.3,0-0.7-0.5-1-0.8c-2-2.5-3.9-5-5.9-7.6
		c-3.6-4.7-7.2-9.3-10.8-14c-0.3-0.4-0.5-0.7-0.8-1.1C393.5,61.7,393.6,61.6,393.6,61.5z"/>
	<path class="st0" d="M404.1,109.4c0.5-0.4,0.7-0.6,1-0.8c0.7-0.5,1.3-1.1,2-1.6c2.9-1.8,5.7-1,7.3,2c1.1,2,1.4,4.3,1.3,6.5
		c-0.4,4.9-2.1,9.3-5,13.3c-0.8,1.1-1.8,2.1-2.9,3c-0.7,0.6-1.5,1-2.3,1.3c-1.9,0.7-3.7,0.1-4.6-1.8c-0.5-1.1-0.8-2.3-1-3.4
		c-0.2-0.9-0.2-1.9-0.5-2.9c-0.2,0.3-0.5,0.7-0.7,1c-1.4,2.5-2.9,4.9-4.9,6.9c-1.2,1.3-2.6,2.4-3.9,3.5c-0.7,0.6-1.5,1-2.3,1.3
		c-4.4,2-8.2,0.5-10.1-3.9c-0.8-1.8-1.1-3.6-1.3-5.5c-0.4-6.3,1-12.3,3.5-18.1c1.9-4.5,4.4-8.6,8-12c1.2-1.1,2.5-2.1,3.9-3
		c0.8-0.5,1.8-0.9,2.7-1.2c3.3-0.9,6.1,0.2,7.8,3.1c1.2,1.9,1.7,4,1.9,6.3c0.1,1.4,0.1,2.8,0.1,4.2
		C404.1,108.3,404.1,108.8,404.1,109.4z M392.9,112.3c0.3,1.2,0.4,2.5,0.9,3.6c0.8,1.9,2.7,2.5,4.4,1.4c0.9-0.6,1.8-1.4,2.5-2.4
		c1.9-2.6,2.7-5.6,2.5-8.9c-0.1-0.8-0.3-1.7-0.6-2.4c-0.9-2-2.7-2.6-4.5-1.4c-0.9,0.6-1.8,1.5-2.4,2.4
		C393.9,106.8,393.1,109.4,392.9,112.3z M414.6,114c-0.3-1.1-0.5-2.2-0.9-3.1c-0.7-1.3-1.8-1.5-3-0.5c-0.2,0.2-0.4,0.4-0.6,0.7
		c-1.5,2.4-2,5-1.1,7.7c0.3,0.9,0.7,1.7,1.8,1.8c1,0.1,1.7-0.6,2.2-1.3c0.3-0.4,0.6-0.9,0.8-1.4C414,116.6,414.3,115.4,414.6,114z"
		/>
	<path class="st1" d="M392.9,112.3c0.2-2.9,1-5.5,2.7-7.8c0.7-0.9,1.5-1.8,2.4-2.4c1.8-1.2,3.7-0.6,4.5,1.4c0.3,0.8,0.5,1.6,0.6,2.4
		c0.2,3.3-0.6,6.2-2.5,8.9c-0.6,0.9-1.5,1.8-2.5,2.4c-1.8,1.2-3.6,0.6-4.4-1.4C393.3,114.7,393.2,113.5,392.9,112.3z"/>
	<path class="st1" d="M414.6,114c-0.3,1.3-0.6,2.6-0.9,3.8c-0.1,0.5-0.4,1-0.8,1.4c-0.5,0.8-1.2,1.4-2.2,1.3c-1-0.1-1.5-0.9-1.8-1.8
		c-0.8-2.7-0.4-5.3,1.1-7.7c0.2-0.2,0.4-0.5,0.6-0.7c1.1-1,2.3-0.8,3,0.5C414.1,111.9,414.3,113,414.6,114z"/>
</g>
<polygon class="st1" points="243,278 243.8,309.3 270.1,311.5 267,279.8 "/>
<g>
	<polygon class="st1" points="480.6,312.5 480.6,297.4 448.1,307.2 	"/>
	<polygon class="st1" points="393.7,279.1 395.3,290 409.6,286.9 405.7,273.8 	"/>
	<path class="st1" d="M748.5,307c5.6,0.8,6.5,1,6.5,1s-3.4-101.6-3.4-102.2c0-0.6-0.1-1.4-0.6-2.2c-0.5-0.8-21.4-32.6-21.4-32.6
		s-110.4,23.6-111.5,23.9s-1.3,2-2.9,4.2c0,0-4.1,5.5-5.8,6l-82.2,5.7l-2.5,9l-5.2-23.1L450,208.2v20.2l-7.5-3L383,236.8l-0.7-9.6
		c0,0-50.1,7.3-52.3,7.6c-2.2,0.3-4.3-1.2-7.5,4.5c-4-2.7-14.8-5.8-14.8-5.8l-79.5-6.2c0,0-23.5,6.2-23.8,6.2s0-33.5,0-33.5
		l-59.5-9.6l0.8,28.4l-57.6-6.1l-4.8,12.7l-3-37.1l-67.7-18l-6.3,87.3l22.8,11l-3.6,114.5l75.4,8.3l7.2-25.1l6.6,18
		c0,0,83.4,1,83.8,1s1,0.5,1.1-1.2s0.3-30.1,0.3-30.1l0.5-0.3c0,0,27.3,14.6,28.3,15c1,0.3,2,0.5,4.2,0.2c2.3-0.2,83.8-7.2,85.1-7.5
		c1.3-0.3,1.8-0.4,3-1.3c1.2-0.8,17.1-11.6,17.1-11.6l-0.6,8.8l61.2,8.3l1.5-4.8l2.6-0.1l0.8,5.5c0,0,73.8,2.9,75.7,3
		c2,0.1,5.1,0.4,8.7,1.4c3.5,1,35.4,10.2,35.4,10.2l0.4-1.9l0.3,0l9,12.8l29.5-37.7l0.3,0.1l2.7,26.1c0,0,68.1-3.1,69.1-3.2
		s1.5-0.2,1.9-1.2c2.5,0.4,84.3,12.6,86.4,12.7c2.1,0.1,2.9,0.1,4.8-1s25.1-14.3,26.6-15.2c1.5-1,1.5-2,1.6-3S759.8,334.3,748.5,307
		z M188.3,374.5l-67.7-2.3l-13.5-42.9l-13.1,48.5l-60.5-6.3l5-105.3l-21-8.9l6.2-74.6l45,11.6c0,0,7.8,47.7,10.3,64
		c8.6-8.9,17-36.2,17-36.2l47.6,4.2l11.3,30l-0.5-53.3l39,5.4L188.3,374.5z M313.7,354.6l-81,6.8l-28.3-16.6l2.7-102.3l24.1-5.6
		l73.2,4.9l30.2,12.1l1.8,85.1L313.7,354.6z M744.2,357.9l-25.7,15.3l-87.8-13.1l-9.8-9.8v13.6l-48.9,2.1c0,0-1.9-25.5-2.8-36.4
		c-6.4,2.1-36.1,45.1-36.1,45.1l-20.6-42.6l2.8,33.8l-20.6-5.8l-88.7-3.4l-1.9-26.2l-9.1,0.9v22.9l-46.1-5.9l3.5-57.2l-15.3,1.7
		c0,0,0.2-40.1,0.3-42.3s0.6-5.3,3.9-5.8s34-5.5,34-5.5l0.3,9.9l63.1-12.6l27,6.3l-1-21.3l48.3-7.5l14.8,45.3l11.6-36.3l82.7-5.2
		l5.4-10.1l94-20.5l18.4,27.5l3.5,82.7l-39.6,1.6c0,0,7.3,1.1,29.9,3.9C748.1,325.9,744.2,357.9,744.2,357.9z"/>
	<polygon class="st1" points="619.9,316.2 626.5,313.5 619.7,305.4 	"/>
	<polygon class="st1" points="664.5,291.9 682.3,292.6 687.9,247.5 666.6,253.2 	"/>
	<polygon class="st1" points="651.1,320.9 646.2,331.1 681.4,336.8 677.8,324.6 	"/>
</g>
<g>
	<polygon class="st1" points="30.5,198.2 27,257.7 43.7,261.4 43.7,363.7 90.7,365.7 60.2,201.4 	"/>
	<polygon class="st1" points="135.2,233.9 100.2,230.8 77.7,280.9 96.7,348.6 106.5,314.1 121.4,362.5 172,359.9 158.7,296.4 	"/>
	<polygon class="st1" points="162.9,215.1 162.9,218.8 158.7,285.2 178.4,352.4 179.3,351.4 182.4,218.1 	"/>
</g>
<g>
	<polygon class="st1" points="237.6,246.6 214.9,251.4 211.4,338.9 232.5,353.2 252.7,351.6 252.9,319.1 236.5,317.6 238.4,271.7 
		253.3,272.8 253.9,251.4 253.6,247.9 	"/>
	<polygon class="st1" points="295.9,250.3 260.1,248.1 259.8,251.1 260.4,273.3 271.7,274.2 279.7,320.8 262.9,319.7 263.8,351.6 
		304.9,348.2 326.6,336.3 328.1,260.3 	"/>
</g>
<g>
	<polygon class="st1" points="369.2,257.7 369.2,251.7 346.9,255.2 344.3,288.6 348.7,288.3 359.7,286.5 354.8,341.8 388.2,346.1 
		385.7,254.3 	"/>
	<path class="st1" d="M476.5,315.5l-46.2-8.7l43-12.7l-8.5-41.8l-28.5-7.1l-47.3,8.7l1.3,19.2l20.5-5.7c0,0,3.1,4.4,3.7,8.1
		s2.8,18,2.8,18l-25.5,2.8l1.1,29.2l15.9-0.3l2.9,23.6l71.9,3.2L476.5,315.5z"/>
</g>
<g>
	<polygon class="st1" points="542.8,232.3 529.1,282.3 514.7,243.8 506.8,225.6 473.7,229.8 472.9,280 474.5,280.6 487.7,283.8 
		508.6,314.8 533.2,361.1 566.9,320.9 556.3,230.9 	"/>
	<polygon class="st1" points="487.5,296.6 487.1,347.9 509.1,355.3 506.9,315.4 	"/>
	<polygon class="st1" points="611.4,226.3 563.4,230.5 563.9,233.9 574.1,356.3 612.9,356.1 	"/>
</g>
<g>
	<polygon class="st1" points="638.9,321.3 638.6,319.9 623.1,321 623.2,340.2 635,352.7 655.5,356.6 658.8,339.7 638.3,338 	"/>
	<path class="st1" d="M736.5,333.5c-1.2-7.5-2-12.5-4.5-17c-2.6-4.4-4.3-7.6-6.5-8.9c-3-0.4-69.2-8.8-69.2-8.8l4.3-58.5l21.6-1.2
		l2.8-34.5l-53,11.4l-9.5,17l1.4,63.7l8,13.1l60,8.8l2.8,23l-28.6-0.9l-4.5,16.3l52,7.2l23-12.8C736.5,351.6,737.7,341,736.5,333.5z
		"/>
	<polygon class="st1" points="690,295.8 736.6,291 733.9,222.5 716.1,197.6 691.6,202.9 691.4,207.1 687.3,238.8 693.7,238.2 	"/>
</g>
<path class="st1" d="M649.6,147c-0.3-11.1-2.1-22.1-4.8-32.9c-0.9-3.6-2-7.1-3.6-10.5c-0.5-1.1-1.3-1.7-2.5-2.1c-4-1-8.1-1.6-12.3-2
	c-6.7-0.6-13.5-0.8-20.2-0.7c-2.7,0-5.5,0.1-8.2,0.1c-1.8,4.7-3.6,9.4-5.4,14c-19.8,1.8-39.4,3.6-59,5.4c-0.1-0.4-0.1-0.7-0.2-1
	c-0.6-4.3-1.9-8.5-4.2-12.2c-0.7-1.2-1.7-2.2-2.6-3.2c-0.6-0.6-1.3-0.8-2.2-0.7c-2.9,0.4-5.8,0.7-8.6,1.1
	c-6.7,0.8-13.5,1.7-20.2,2.5c-0.4,0.1-0.9,0-1.3,0c-2.2-7.6-4.4-15.1-6.6-22.5c-11.1,0-21.9,0-32.9,0c-0.9,6.7-1.8,13.4-2.6,20.1
	c-0.4-0.3-0.5-0.5-0.5-0.8c-0.6-2.8-1.1-5.6-1.8-8.3c-0.6-2.7-1.3-5.3-2-8c-0.4-1.6-1.6-2.2-3.2-2.2c-1.2,0-10.2-2.4-11.5-2.3
	c0,0.1-0.1,0.1-0.1,0.1c0-0.1,0.1-0.1,0.1-0.1c-1-2.9-1.8-5.8-1.6-8.9c3.5-0.3,6.9-0.6,10.3-0.9c1.2-0.1,1.3-0.1,1.7-1.3
	c0.7-2.2,0.6-4.3,0.2-6.5c-0.7-3.6-2.4-6.9-4.5-9.9c-3.5-5.1-7.8-9.4-13-12.9c-2.2-1.4-4.3-3-6.3-4.6c-0.7-0.6-1.4-1.3-1.8-2.1
	c-1.9-3.2-3.8-6.4-5.7-9.7c-0.9-1.6-2.1-2.9-3.7-3.8c-5.1-3.1-10.3-5.9-15.8-8.1c-4.1-1.7-8.2-3-12.7-3.5c-5.3-0.5-10.5-1-15.8-1.4
	c-2.3-0.1-4.6-0.2-6.9-0.3c-2.6,0-5.2,0-7.8,0c-0.3,0.1-0.5,0.3-0.8,0.3c-1.8,0-3.6,0-5.4,0c-2.1,0.1-4.2,0.2-6.3,0.5
	c-1.4,0.1-2.8,0.4-4.1,0.7c-2.7,0.8-4.1,3.1-3.9,5.8c0.1,1.7,0.7,3.3,1.6,4.8c0.2,0.3,0.4,0.6,0.6,1c-0.4,0.1-0.8,0.3-1.1,0.4
	c-3.2,1-6.4,1.9-9.6,3c-2.7,0.9-5.2,2.2-7.3,4.1c-0.7,0.6-1.3,1.2-1.9,1.8c2.6,5.7,5,11.2,7.5,16.8c1.3-1,2.5-1.8,3.8-2.8
	c0.6,1.5,1.3,2.7,1.6,4c0.5,2.3,0.8,4.7,1.2,7.1c0.2,1.8,0,2.1-1.8,2.3c-4.9,0.7-9.7,1.3-14.6,1.9c-1.8,0.2-3.6,0.5-5.5,0.8
	c-5.5,26.8-11,53.5-16.6,80.2c-19.2,0.3-38.4,0.5-57.5,0.8c-1.3,7.3-2.7,14.3-4,21.3c-0.4,0.1-0.5,0.1-0.7,0.1
	c-4.6,0.4-9.2,0.8-13.7,1.2c-7.7,0.7-15.3,1.4-23,2.1c-2.4,0.2-4.8,0.5-7.1,0.9c-3,0.5-5.4,2.1-6.7,5c-0.2,0.4-0.4,0.8-0.7,1.2
	c-4.1,6.6-8.2,13.3-12.3,19.9c-0.4,0.6-0.7,1.2-1,1.8c1.8,0.3,3.5,0.6,5.3,0.9c0.3,0,0.5,0.2,0.8,0.3c0.4,0.1,0.9,0.1,1.3,0.2
	c0.2,0.1,0.4,0.1,0.6,0.2c0.4,0,0.8,0.1,1.2,0.1c0.8-0.2,1.1-0.8,1.4-1.4c1.4-2.4,2.8-4.7,4.1-7c0.1-0.2,0.3-0.3,0.4-0.4
	c1.2-2.1,2.4-4.2,3.6-6.4c0.2-0.4,0.5-0.8,0.7-1.2c1.7-3.5,4.9-4.8,8.4-5.6c4.1-0.9,8.3-1.5,12.5-2.1c2.3-0.3,4.7-0.4,7-0.7
	c3.1-0.3,6.2-0.8,9.3-1.1c2.3-0.3,4.6-0.4,6.8-0.7c2.3-0.2,4.5-0.5,6.8-0.8c2.1-0.2,4.2-0.5,6.4-0.7c1.1-0.1,2.3-0.2,3.8-0.4
	c-0.8-0.4-1.2-0.6-1.7-0.8c-1.7-0.8-3.3-1.5-5-2.3c-0.7-0.2-1.3-0.4-2-0.6c1-5.5,2.1-11,3.1-16.5c1.3-0.1,2.6-0.3,3.9-0.4
	c4.2-0.2,8.4-0.2,12.6-0.4c5-0.2,10-0.4,15-0.6c5-0.2,10.1-0.4,15.1-0.6c4.9-0.2,9.9-0.4,14.8-0.6c2.4-0.1,4.8-0.3,7.3-0.5
	c-3.5-1.9-7.2-3.2-10.9-5c-0.2-1.4,0.3-2.7,0.6-4.1c2.7-13,5.3-26,8-39.1c2-9.8,4-19.5,6-29.3c0.2-0.8,0.5-1.2,1.1-1.7
	c2.5-1.6,5.3-2.6,8.2-3.2c5.3-1.2,10.6-1.8,16-1.7c1-1.5,2-3,3-4.5c-0.7,0-1.5,0-2.2,0c-2-0.1-3.3-1.2-3.6-3.2
	c-0.2-1.5-0.3-3-0.5-4.5c-0.1-0.6-0.1-1.3-0.2-1.9c-0.3-1.9,0.2-3.4,2-4.5c1.4-0.9,2.7-1.8,4.1-2.7c0.2-0.1,0.4-0.3,0.5-0.6
	c-4.7,0.5-9.4,0.9-14.2,1.4c-1.2-3-2.3-5.9-3.5-9c4.9-2.6,10.1-4.4,15.3-6.1c5.2-1.7,10.6-2.8,15.9-3.9c-0.4,0-0.9,0-1.3-0.1
	c-3.2-0.1-6.4-0.2-9.6-0.3c-1.2,0-2.1-0.5-2.4-1.6c-0.5-1.4-0.9-2.9-1.2-4.3c-0.3-1.4,0.5-2.6,1.9-3c0.7-0.2,1.4-0.3,2.1-0.4
	c4.3-0.1,8.6-0.3,12.9-0.4c5.4-0.1,10.8,0.3,16.1,0.9c7.1,0.7,14,1.9,20.9,3.7c4.7,1.3,9.4,2.8,13.6,5.3c0.9,0.5,1.7,1.1,2.4,1.8
	c2.4,2.3,4.3,4.9,5.9,7.7c0.3,0.6,0.6,1.2,1.1,2.2c-2.8-0.6-5.2-1.2-7.7-1.8c0.2,0.8,0.7,1,1.2,1.3c3,2,6.1,4,9.1,6.1
	c5.4,3.7,10.6,7.6,15.2,12.4c3,3.1,5.7,6.5,7.3,10.5c0.7,1.7,1.1,3.5,1.7,5.3c0.1,0.4,0.1,0.8,0.1,1.4c-6.7,1.5-13.4,2.9-20.1,4.4
	c0,0.1,0,0.1,0,0.2c2.6,0.3,5.3,0.7,8.1,1.1c0.3,1.8,0.5,3.6,0.8,5.6c-2.4,0.3-4.6,0.6-7.1,0.9c2.7,1.2,5.1,2.2,7.5,3.3
	c2.7,0.1,16.5,5,17.1,7.3c1.1,4.2,2.2,8.4,3.4,12.6c1.6,5.4,3.3,10.7,5,16c0.2,0.6,0.4,1.1,0.9,1.7c1.3-10.8,2.6-21.5,3.9-32.3
	c9,0,17.9,0,26.9,0c3.2,8.3,6.4,16.7,9.7,25.4c0.4-1.1,0.7-1.8,0.9-2.5c0.2-0.6,0.5-0.9,1.1-1c8.8-1.5,17.6-2.9,26.4-4.5
	c1.2-0.2,1.9,0.1,2.6,1.1c1.8,2.7,2.7,5.7,3.5,8.7c0.2,1,0.5,1.9,0.7,3c-0.6,0.2-1.2,0.5-1.7,0.6c-3.5,1-7.1,2-10.7,3
	c-1,0.3-2,0.7-3,1.3c1,0.3,1.9,0.2,2.8,0.1c2-0.1,4-0.4,6-0.5c3.8-0.2,7.6-0.4,11.4-0.7c3.5-0.2,7-0.5,10.4-0.8
	c1.9-0.1,3.8-0.2,5.7-0.4c4-0.3,8-0.6,11.9-0.9c1.5-0.1,3.1-0.2,4.6-0.3c3.8-0.2,7.6-0.4,11.4-0.7c3.4-0.2,6.9-0.5,10.3-0.8
	c0.7-0.1,1.4,0,2.3,0c0.2,1.8,0,3.6,0.1,5.5c0.8-0.5,1.1-1.1,1.4-1.8c1.3-2.8,2.5-5.7,3.7-8.5c1.1-2.4,2.2-4.8,3.2-7.2
	c0.4-0.9,1.1-1.5,2-1.9c2.7-1.2,5.5-1.8,8.3-2.3c3.4-0.5,6.8-0.8,10.3-0.6c4.5,0.2,9,0.8,13.1,2.7c1.3,0.6,2.5,1.3,3.7,2
	c0.8,0.4,1.2,1.1,1.6,1.9c2.2,4.7,3.7,9.6,4.2,14.7c0.2,2.1,0.5,4.2,0.7,6.2c0.3,1.9,0.6,3.8,0.8,5.7c0.3,3.3,0.6,6.5,0.9,9.8
	c0.1,1.6,0,3.3,0,4.9c0.1,5.3-0.7,10.4-3,15.3c-0.5,1.1-1.2,2.2-1.9,3.2c-1.1,1.5-2.8,2.3-4.5,2.8c-2.4,0.6-4.9,1.3-7.4,1.5
	c-3.7,0.3-7.4,0.4-11.1,0.3c-3.4-0.1-6.8-0.5-10.3-0.8c-0.8-0.1-1.7-0.3-2.5-0.3c-0.8,0-1.2-0.4-1.6-1.1c-1.1-2.4-2.1-4.9-3.3-7.2
	c-2.1-4-4.3-8-6.5-12c-0.3-0.5-0.5-1.1-0.8-1.6c-1-1.5-1.9-3-2.9-4.5c-0.1-0.1-0.2-0.2-0.3-0.3c-0.1,0-0.2,0-0.3,0.1
	c0.1,1.4,0.2,2.8,0.4,4.2c0.4,1.4,0.2,2.8,0.1,4.4c-0.7-0.1-1.2-0.2-1.8-0.2c-2.6-0.3-5.1-0.6-7.7-0.9c-6.2-0.7-12.3-0.9-18.5-0.9
	c-2.1,0-4.3-0.2-6.4-0.2c-3.2,0-6.4,0.1-9.6,0.3c-6,0.4-12,0.8-17.9,2.1c-2.2,0.5-4.3,1.1-6.5,1.7c0,0.1,0,0.2,0,0.4
	c0.7,0.1,1.5,0.2,2.2,0.3c1.9,0.1,3.8,0.2,5.7,0.4c0.9,0.1,1.2,0.3,1.1,1.2c-0.3,2.6-0.9,5.2-2.3,7.5c-0.8,1.3-1.9,1.9-3.5,1.7
	c-2.4-0.3-4.8-0.7-7.2-1c-3.4-0.5-6.7-0.9-10.1-1.4c-2-0.3-3.9-0.6-5.9-0.8c-1-0.1-2.1-0.1-3.3-0.2c0-2.4,0-4.8,0-7.2
	c-0.1,0-0.2-0.1-0.3-0.1c-0.3,0.3-0.5,0.6-0.8,1c-2.2,3.4-3.1,7.2-3.8,11.1c-0.2,0.9-0.3,1.9-0.4,2.8c-0.2,2.5-0.3,5.1-0.5,7.6
	c0,0.5,0,1,0,1.6c0.4-0.1,0.8-0.1,1.1-0.2c2.7-0.7,5.4-1.5,8.1-1.9c2.5-0.4,5-0.3,7.3,0.8c3.2,1.4,3.9,4.6,3.4,7.1
	c-0.5,2.1-1.3,4.1-2.5,5.8c-0.6,1-1.3,2.1-2,3.3c1.3-0.2,2.4-0.5,3.6-0.7c2.5-0.4,5-0.8,7.5-1.1c4.4-0.6,8.9-0.9,13.4-0.9
	c5.1,0,10.2-0.2,15.3-0.2c2.9,0,5.8,0.2,8.7,0.3c3.7,0.2,7.5,0.4,11.2,0.6c3.2,0.2,6.4,0.4,9.5,0.6c3.3,0.2,6.6,0.4,9.8,0.6
	c4.6,0.4,9.1,0.6,13.7,0.5c0.7,0,1.4,0,2.1-0.2c0.7-0.2,1.1,0.1,1.4,0.7c0.8,1.7,1.6,3.4,2.4,5.2c0.5,1.1,1,2.2,1.5,3.3
	c0.4,0.8,0.4,1.5-0.2,2.2c-0.3,0.4-0.5,1-0.7,1.5c0.7,0,1.4-0.1,2.1-0.1c1.4,0.1,2.5-0.6,3.2-1.5c1.1-1.4,1.9-3,2.9-4.5
	c-0.9,0.1-1.8,0.3-2.8,0.4c-2-4.1-4-8.3-5.9-12.4c-0.7,0.1-1.2,0.2-1.7,0.3c-7.6,1.2-15.3,1.4-23,1.1c-7.4-0.3-14.9-0.7-22.3-1.1
	c-4.8-0.2-9.6-0.6-14.4-0.7c-7.9-0.3-15.9-0.4-23.8,0.1c-1.4,0.1-2.9,0.1-4.4,0.2c0-0.4,0-0.6,0-0.8c0.3-1.9,0.2-3.8-0.1-5.7
	c-0.8-5.1-4-8.2-9.1-9c-2.7-0.4-5.4,0-8,0.5c-1,0.2-2,0.5-3.1,0.8c-0.6-2.4-0.7-4.6-0.1-6.9c0.3-1.1,0.7-1.4,1.8-1.2
	c1.6,0.2,3.3,0.4,4.9,0.7c7.1,1,14.2,1.8,21.2,3c2.3,0.4,3.6-0.3,4.9-2c2.8-3.5,4.6-7.2,4.3-11.8c0-0.2,0.1-0.5,0.2-0.9
	c4.6-0.3,9.2-0.8,13.8-1c10.5-0.5,21-0.5,31.5,0.5c4,0.4,7.9,1,11.8,2c1.2,0.3,2.1,0.9,2.7,1.9c1,1.8,2.1,3.5,2.9,5.4
	c1.3,3.2,2.5,6.5,3.6,9.8c0.2,0.7,0.6,1.1,1.3,1.2c1,0.2,2,0.5,3.1,0.6c7.6,1.4,15.2,1.7,22.8,1.4c3.4-0.2,6.8-0.7,10.1-1.1
	c1.2-0.1,2.2-0.7,3.2-1.5c4.1-3.4,6.7-7.8,8.1-12.8C649.4,156.9,649.8,151.9,649.6,147z"/>
</svg>
