<?xml version="1.0" encoding="utf-8"?>
<!-- Generator: Adobe Illustrator 19.0.0, SVG Export Plug-In . SVG Version: 6.00 Build 0)  -->
<svg version="1.1" id="Layer_1" xmlns="http://www.w3.org/2000/svg" xmlns:xlink="http://www.w3.org/1999/xlink" x="0px" y="0px"
	 viewBox="0 0 1186.1 580.5" style="enable-background:new 0 0 1186.1 580.5;" xml:space="preserve">
<style type="text/css">
	.st0{fill:#FFFFFF;}
</style>
<g>
	<path class="st0" d="M53.3,11.3c1.3-1.4,2.4-2.6,3.5-3.8c9.6-10.1,24.8-10,34,0.6c6,6.9,11.3,14.4,16.9,21.7
		c38.3,50,76.5,100.1,114.8,150.1c1.2,1.5,2.6,2.9,4.5,5.1c1.4-2.7,2.6-4.6,3.5-6.6c22.9-51.5,45.7-103,68.6-154.4
		c6-13.4,17.7-18.8,30-14c6.7,2.6,10.7,7.5,13.5,13.9c15.5,35.4,31.1,70.8,46.6,106.2c7.2,16.5,14.5,33,21.8,49.4
		c0.7,1.6,1.7,3.1,2.9,5.4c1.9-2.1,3.5-3.5,4.7-5.2c42.7-55.7,85.3-111.4,128-167.1c1.5-2,3.1-4,4.8-5.7C560.9-2.6,576-2,584.8,8
		c1.2,1.3,2.3,2.7,3.8,4.5c1.3-1.5,2.3-2.6,3.2-3.7C599,0,611-2.5,620.6,2.7c9.8,5.4,14.4,16.4,10.5,27.4
		c-6.4,18.4-13.4,36.6-20.1,54.9c-1,2.8-1.9,5.6-3,8.9c5.1-0.3,9.5-0.9,13.9-0.9c65.8-0.1,131.7,0,197.5-0.1
		c8.9,0,17.2,2.1,25.1,5.9c3,1.4,5.3,0.9,8.3-0.6c4.8-2.4,10.2-4.8,15.3-4.9c31-0.4,62-0.3,93-0.2c16.8,0.1,26.6,12.4,23.4,29
		c-0.5,2.4-0.8,4.8-1.4,8.6c2.4-1.8,3.8-2.7,5-3.7c10.5-9,21-18.1,31.4-27.2c5.3-4.6,11.2-6.8,18.3-6.8c41.3,0.1,82.7,0,124,0.1
		c11.3,0,19.5,5.4,22.9,14.5c3.6,9.7,1.2,19-7.7,26.3c-24.5,20-49.3,39.8-73.9,59.6c-19.5,15.7-38.9,31.4-58.4,47
		c-5.4,4.3-5.4,4.6-0.5,9.5c38.6,37.5,77.1,75.1,115.8,112.6c7,6.8,10.4,14.6,7.5,24.4c-2.6,8.6-8.4,13.9-17.2,15.6
		c-3.6,0.7-7.3,0.9-10.9,0.9c-38,0.1-76-0.1-114,0.1c-10.7,0.1-19.1-3.3-26.6-11.2c-17.4-18.4-35.3-36.3-53.1-54.4
		c-1.5-1.5-3.1-2.8-5.4-4.9c-0.8,2.4-1.5,4-1.9,5.7c-3.2,14.8-6.3,29.7-9.5,44.5c-2.8,12.8-10.3,19.9-23.2,20
		c-33.2,0.2-66.3-0.2-99.5-0.4c-5.1,0-10.3,0.6-15.4,0.6c-56.8,0-113.7,0-170.5,0c-1.8,0-3.7,0.1-5.5,0c-3.3,0-4.4,1.3-3.6,4.7
		c1.5,6.6,0.5,12.8-2.4,18.9c-10.7,22.2-21.2,44.6-31.9,66.8c-5,10.3-14.4,14.4-26.9,12.2c-11.5-2-23-4.1-34.5-6.1
		c-8.4-1.4-16.8-2.5-25.2-3.9c-3.4-0.6-5.1,0.6-6.5,3.8c-6,14-15.2,19.9-30,19.3c-3.8-0.2-4.9,1.9-6,4.6
		c-5.4,13.8-10.7,27.7-16.3,41.4c-4.6,11.3-14.9,16.7-26.6,14.1c-8.2-1.8-13.2-7.3-16.4-14.8c-9.9-22.9-20.1-45.8-29.7-68.8
		c-2.3-5.6-5.4-7.6-11.3-7.2c-17.1,1.2-34.2,2.2-51.4,3.1c-4.8,0.3-7.3,2.6-9.2,6.9c-10,22.7-20.1,45.4-30.6,67.9
		c-6.5,14-23.5,18.1-34.8,8.5c-3.6-3.1-6.3-7.8-8.2-12.3c-6.4-15.6-12.3-31.3-18.3-47.1c-3.6-9.4-3.6-9.4-13.7-7.6
		c-50.9,8.8-100.3,23.1-149.1,39.6c-8.2,2.8-15.8,2.7-23.1-3c-11.4-9.1-12.1-25.6-1-35.4c17-15,35.9-27,56.1-37.2
		c28.5-14.4,58.3-25.5,88.7-35.2c10.6-3.4,10.4-1.6,6-13.1c-25.7-66.5-51.9-132.9-77-199.6C57.8,160.7,35.1,96.4,11.9,32.3
		C7.6,20.4,11.1,9.2,20.7,3.4c9.8-5.9,21.1-3.9,29.8,5.4C51.3,9.6,52.2,10.3,53.3,11.3z M203.7,475.1c1.2,2.7,2.5,5.5,3.6,8.2
		c8.8,22.7,17.5,45.4,26.3,68.1c0.7,1.9,1.7,3.8,3.1,6.9c1.6-2.9,2.6-4.5,3.3-6.2c10.8-24.2,22-48.2,32.3-72.6
		c2.9-6.9,7.1-9.1,13.9-9.4c25.1-1.2,50.2-2.7,75.3-4.1c5.7-0.3,6.4-1.2,4.2-6.2c-4.9-11.2-10-22.2-14.7-33.4
		c-1.8-4.2-4.4-5.2-8.6-4.6c-11.2,1.7-22.4,3.1-33.7,4.6c-4,0.5-8.1,0.9-13.9,1.6c10-22.7,19.3-43.8,29.3-66.3
		c29.1,66.1,57.6,130.8,86.1,195.6c0.5-0.1,1-0.1,1.4-0.2c1.1-2.6,2.3-5.1,3.3-7.7c9.8-25.2,19.6-50.3,29.3-75.5
		c1.6-4.1,3.6-5.7,8.2-5.1c9.1,1.3,18.3,1.5,27.3,3c24,3.8,48,8,71.9,12.1c3.1,0.5,5.4,0.5,7-2.8c9.5-20.2,19.1-40.4,28.6-60.6
		c0.7-1.4,0.9-3,1.6-5c-2.3-0.3-3.9-0.8-5.5-0.8c-29-0.5-58-1-86.9-1.4c-8.3-0.1-16.6,0.5-25,0.5c-5.7,0.1-6.1-0.6-4-6.1
		c0.3-0.8,0.6-1.6,0.9-2.3C517.4,281.5,562.3,156,607.7,30.6c0.6-1.8,1.1-3.6,1.6-5.4c-0.4-0.1-0.8-0.3-1.2-0.4
		c-67,136.9-133.9,273.8-200.9,410.8c-0.5-0.1-1-0.2-1.5-0.3c-27.4-68.1-54.8-136.3-82.2-204.4c-0.7,0-1.3,0.1-2,0.1
		c-27.4,68.2-54.8,136.3-82.3,204.5c-0.5,0-1,0.1-1.5,0.1C170.9,299.2,104,162.8,37.2,26.4c-0.5,0.2-1,0.4-1.5,0.6
		c0.7,2.3,1.4,4.6,2.2,6.9c43,120.5,86.5,240.9,134.1,359.7c7.5,18.7,14.4,37.6,21.6,56.5c-2.3,0.2-4.6,0-6.8,0.6
		c-31.9,8.5-63.1,19.3-93.1,33c-21.6,9.8-42.2,21.3-60.8,36.2c-2.3,1.8-4.4,3.9-6.6,5.9c3.1,0.2,5.5-0.5,7.9-1.3
		c54-17.9,108.7-33,164.8-42.1C203.7,481.5,204.8,479.3,203.7,475.1z M706.1,300.9c0-0.4-0.1-0.9-0.1-1.3c1.6-0.8,3.2-1.7,4.8-2.5
		c31.8-15.8,63.5-31.7,95.4-47.2c16.2-7.8,25.5-20.3,28.6-37.8c1.1-6.1,2.3-12.1,3.6-18.1c3.2-16,7.1-31.9,9.5-48
		c2.9-19.4-7.4-30.8-27-30.8c-10.2,0-20.3,0.7-30.5,0.8c-28.3,0.1-56.7,0.1-85,0c-27.5-0.1-55-0.4-82.5-0.8
		c-20.3-0.3-37.7,13.2-42.1,33c-4.4,19.7-8.7,39.4-13,59.1c-1.8,8.2-1.3,8.8,7.3,8.8c15.8,0,31.7,0,47.5,0c8.2,0,16.3-0.1,24.5,0
		c4.2,0.1,6.5-1.6,7.2-5.9c0.6-3.8,1.4-7.5,2.1-11.3c1.4-7.3,1.8-7.6,9.1-7.6c23.5,0,47,0,70.5,0c3.5,0,7,0,10.5,0.1
		c3.6,0,4.7,1.8,4.7,5.4c-0.1,6.8-4.9,9.3-9.7,12c-62.9,35.1-125.7,70.2-188.6,105.2c-3.7,2-5.7,4.6-6.6,8.7
		c-3.6,17.3-7.5,34.5-11.2,51.8c-1.3,6.1-0.7,6.9,5.3,6.9c83.3,0,166.6,0,249.9,0.1c4.9,0,7.2-1.9,8.1-6.6c4.5-21.7,9.3-43.3,14-65
		c1.7-8,1.2-8.7-7-8.7c-31.2,0-62.3,0-93.5,0C710,300.9,708,300.9,706.1,300.9z M947.4,190.7c-0.3-0.2-0.7-0.4-1-0.6
		c0.3-1.9,0.5-3.8,0.9-5.7c4.4-20.5,8.8-41.1,13.1-61.6c1.5-7.1,0.9-7.8-6.5-7.8c-26.7,0-53.3,0-80,0c-7.6,0-8.1,0.4-9.7,7.8
		c-18,83.9-36,167.8-54,251.7c-1.3,6-0.8,6.6,5.5,6.6c27.5,0,55-0.1,82.5,0.1c5.3,0,7.7-1.7,8.8-7.1c5.4-26.6,11.1-53.2,16.8-79.7
		c0.4-2,1.2-4,2-6.9c2.3,2,3.9,3.3,5.4,4.8c27.3,28,54.7,56,82,84.1c3,3,6,4.8,10.4,4.8c37.8-0.1,75.6-0.1,113.5-0.1
		c1.7,0,3.3-0.4,6.1-0.8c-2.5-2.6-4-4.3-5.6-5.9c-43-42-86.1-84-129.1-126c-4.6-4.5-4.6-4.7,0.4-8.7
		c49.1-39.7,98.2-79.4,147.3-119.1c1.5-1.2,2.7-2.6,5.1-4.8c-3.2-0.3-4.9-0.6-6.7-0.6c-37.8,0-75.6,0-113.5-0.1
		c-4.4,0-8,1.4-11.3,4.3c-23.5,20.5-47,40.9-70.5,61.3C955.4,184,951.4,187.4,947.4,190.7z M321.2,116c0.5,0,1,0,1.4,0
		c28.1,73.1,56.2,146.1,84.3,219.2c0.6,0,1.3-0.1,1.9-0.1c52.8-103.4,105.6-206.8,158.4-310.2c-0.5-0.3-1-0.6-1.4-0.9
		C513.9,92,462.1,159.9,409.4,228.9c-29.3-66.9-57.9-132.3-86.5-197.7c-0.7,0.1-1.4,0.1-2,0.2c-28.9,65.4-57.8,130.8-87.3,197.4
		C181,159.8,129.3,91.9,77.5,24c-0.5,0.3-0.9,0.6-1.4,1c52.5,103.5,105.1,206.9,157.6,310.4c0.6-0.1,1.3-0.2,1.9-0.4
		C264.1,262,292.7,189,321.2,116z"/>
	<path class="st0" d="M460.4,493.2c-1.6-3.2,0.7-8.4-4.3-8c-1.7,0.1-3.2,3.6-5.8,6.8c1.3-3.2,1.5-6.4,3.1-7.3c1.7-1,5.2-0.5,6.9,0.7
		C462.6,487.1,462.8,490,460.4,493.2z"/>
</g>
</svg>
