<?xml version="1.0" encoding="utf-8"?>
<!-- Generator: Adobe Illustrator 19.0.0, SVG Export Plug-In . SVG Version: 6.00 Build 0)  -->
<svg version="1.1" id="Layer_1" xmlns="http://www.w3.org/2000/svg" xmlns:xlink="http://www.w3.org/1999/xlink" x="0px" y="0px"
	 viewBox="0 0 912 224" style="enable-background:new 0 0 912 224;" xml:space="preserve">
<style type="text/css">
	.st0{fill:#FFFFFF;}
</style>
<polygon class="st0" points="168.3,213.3 105.1,108.5 165.3,10.5 133.3,10.5 89.2,82.1 46,10.5 13,10.5 72.9,108.6 8.5,213.3 
	40.8,213.3 88.9,134.8 136.8,213.3 "/>
<g>
	<path class="st0" d="M306.3,191.7c-33.9,0-67-17.8-78.4-52.3h-33c14.1,48.8,64.5,79.5,108.5,78.7c51.7-1,83-35,89-43.3
		c-14.3-11-21.3-16-21.3-16S348.3,191.7,306.3,191.7z"/>
	<path class="st0" d="M225.1,96c8-42.1,47.2-63.7,77.9-63.7c34.3,0,59.3,25,59.3,25l21.3-17c0,0-28.3-34.8-80.7-34.8
		c-47.9,0-101.9,35.1-110.7,90.5H225.1z"/>
</g>
<g>
	<path class="st0" d="M531.5,35c36.8,0,67.5,25.7,75.3,60.1V95h29.6c-8.1-50.6-51.9-89.3-104.8-89.3c-54.1,0-98.8,40.5-105.3,92.9
		h29.4C461.9,62.5,493.5,35,531.5,35z"/>
	<path class="st0" d="M606.8,131.7v-2.5c-7.8,34.4-38.5,60.1-75.3,60.1c-35.7,0-65.7-24.2-74.5-57.1h-29.7
		c9.5,48.9,52.5,85.8,104.2,85.8c51.9,0,95-37.2,104.3-86.4H606.8z"/>
</g>
<g>
	<polygon class="st0" points="722.5,94.7 752.3,94.7 711,10.5 701.3,10.5 688.5,94.7 713.4,94.7 	"/>
	<polygon class="st0" points="856.1,94.7 883.8,94.7 872,10.5 862.3,10.5 819.8,94.7 848.5,94.7 	"/>
	<polygon class="st0" points="860.9,131.3 871.3,212 900.3,212 888.9,131.3 	"/>
	<polygon class="st0" points="683,131.3 670.8,212 700.8,212 709.4,131.3 	"/>
	<polygon class="st0" points="801.2,131.3 785.5,162.5 770.2,131.3 740.7,131.3 780.8,212 792.8,212 831.1,131.3 	"/>
</g>
</svg>
