<?xml version="1.0" encoding="utf-8"?>
<!-- Generator: Adobe Illustrator 19.0.0, SVG Export Plug-In . SVG Version: 6.00 Build 0)  -->
<svg version="1.1" id="Layer_1" xmlns="http://www.w3.org/2000/svg" xmlns:xlink="http://www.w3.org/1999/xlink" x="0px" y="0px"
	 viewBox="472 263 1556.1 268" style="enable-background:new 472 263 1556.1 268;" xml:space="preserve">
<style type="text/css">
	.st0{fill:#FFFFFF;}
</style>
<title>Xenoblade logo</title>
<g>
	<path class="st0" d="M603.3,387.3L539.6,263h92.9l26.8,68.9l55.2-68.8h101.4L700.4,387.3l67.2,139.9h-96l-30.7-74l-64.1,74H472
		L603.3,387.3z"/>
	<path class="st0" d="M909,482.6c-4.3,10.3-15.8,48.4-85.5,48.4c-57,0-79.9-30.4-79.9-67.6c0-69.9,56.4-93.2,96.3-93.2
		c35.6,0,78.7,18.9,78.7,67c0,8.3-0.3,17.1-3.1,26.5H800.8c0,16.2,6.2,29.8,25.1,29.8c13.3,0,20.8-5.3,24.2-10.9L909,482.6z
		 M860.6,433.4c0.3-1.7,0.5-3.3,0.6-5c0-11.5-7.4-20.6-23.2-20.6c-16.4,0-27.3,9.1-31.9,25.7L860.6,433.4z"/>
	<path class="st0" d="M934,374.1h59.2l-4.6,19.5h0.6c12.1-13.9,30-23.3,49.9-23.3c28.2,0,52.3,11.2,52.3,41.3
		c0,6.8-1.8,17.7-4.3,29.2l-19.5,86.4h-61.3L1022,457c2.2-9.1,5-19.2,5-25.4c0-9.7-7.4-14.8-17.4-14.8c-19.2,0-26.3,13.6-29.7,29.2
		l-18,81.1h-61.4L934,374.1z"/>
	<path class="st0" d="M1183.7,370.2c47.1,0,78.1,20.6,78.1,67c0,39.2-22.9,93.8-97,93.8c-44.3,0-80.2-20.4-80.2-71.7
		C1084.6,410.6,1118,370.2,1183.7,370.2z M1167.6,488.5c24.2,0,32.8-33.9,32.8-47.2c0-18.6-5-28.6-21.4-28.6
		c-24.5,0-33.1,35.4-33.1,51C1145.9,476.4,1150.2,488.5,1167.6,488.5L1167.6,488.5z"/>
	<path class="st0" d="M1290.9,316.5h64.3l-16.6,72.6h0.7c10.7-12.7,28.6-18.9,46.7-18.9c22.4,0,57.8,11.2,57.8,61.7
		c0,27.1-14,99.1-84.4,99.1c-19.1,0-41.5-3.5-50-23.6h-0.7l-4.9,19.8h-61L1290.9,316.5z M1320.8,464.9c0,11.8,7.5,23.6,21.7,23.6
		c26,0,37-28.3,37-50.7c0-15.3-7.5-26-24-25.1C1329.5,412.7,1320.8,444.6,1320.8,464.9z"/>
	<path class="st0" d="M1471.2,316.5h63.1l-47.2,210.6H1424L1471.2,316.5z"/>
	<path class="st0" d="M1517.5,420.4c9.9-41,42.4-50.2,82.1-50.2c29.1,0,78.1,3.8,78.1,40.7c0,23.9-19.5,92.9-19.5,102.7
		c-0.1,4.6,0.8,9.3,2.5,13.6h-60.1c-1.6-4.7-2.4-9.7-2.2-14.8h-0.6c-10.5,12.4-31.9,18.6-49.6,18.6c-27.6,0-52-11.2-52-40.7
		c0-40.4,31.9-51.3,77.8-54.6c17.3-0.9,44.9,0.9,44.9-17.7c0-10.6-9.6-13.3-19.2-13.3c-12.4,0-21.1,4.1-24.5,15.6H1517.5z
		 M1577,496.5c20.8,0,29.1-14.5,32.8-37.2c-9.9,4.7-21.4,5.9-32.5,6.8c-10.2,0.9-19.8,5.6-19.8,17.1
		C1557.5,493.9,1567,496.5,1577,496.5z"/>
	<path class="st0" d="M1772.5,509.8h-0.6c-10.2,14.2-24.5,21.2-42.8,21.2c-52,0-58.8-43.7-58.8-62.3c0-58.1,31.9-98.5,79.9-98.5
		c18.6,0,35.6,5,46.5,22.7l16.7-76.4h61.3l-45.8,210.6h-60.1L1772.5,509.8z M1786,441c0-17.4-6.2-28.3-22-28.3
		c-24.5,0-32.5,28.6-32.5,50.7c0,13.9,6.5,25.1,22.6,25.1C1777.7,488.5,1786,459,1786,441z"/>
	<path class="st0" d="M2018,482.6c-4.5,10.3-16.6,48.4-89.6,48.4c-59.7,0-83.7-30.4-83.7-67.6c0-69.9,59.1-93.2,100.9-93.2
		c37.3,0,82.4,18.9,82.4,67c0,8.3-0.3,17.1-3.2,26.5h-120.1c0,16.2,6.5,29.8,26.3,29.8c14,0,21.7-5.3,25.3-10.9L2018,482.6z
		 M1967.4,433.4c0.3-1.6,0.6-3.3,0.7-5c0-11.5-7.8-20.6-24.3-20.6c-17.2,0-28.6,9.1-33.4,25.7L1967.4,433.4z"/>
</g>
</svg>
