<svg xmlns="http://www.w3.org/2000/svg" width="658" height="358" viewBox="0 0 658 358">
  <defs>
    <style>
      .cls-1 {
        fill: #fff;
      }

      .cls-1, .cls-2 {
        fill-rule: evenodd;
      }

      .cls-2 {
        fill: none;
        stroke: #fff;
        stroke-width: 3px;
      }
    </style>
  </defs>
  <path class="cls-1" d="M18,37l82-6s23.292,64.988,32,88c5.114,13.514,10.4,3.636,11,0s18-94,18-94l86-5L220,85s-21.839,7.038-51,46-33.1,84.738-32,115,17.828,50.4,28,58,14,10,14,10v10l-48,6L101,182Z"/>
  <path class="cls-1" d="M597,92l45,16L609,335l-35-13Z"/>
  <path class="cls-1" d="M431,80l53,3s-11.5,62.859-11,67,4,4,4,4,30.5,11.378,33,12,6.631-1.62,7-4,10-71,10-71l52,26L516,329l-24-14s13.187-81.574,14-87c0.382-2.546,2.138-7.636-7-11-12.915-4.755-19.9-8.045-28-11s-7.758,7.332-8,11-13,86-13,86l-24-9Z"/>
  <path class="cls-1" d="M404,55V98s-41.556-14.794-49,21,12.779,47.084,18,53,28.554,32.616,33,52,6.174,49.378-16,74-56,26-56,26l-4-30s47.852-13.037,29-62c-6.451-16.754-26-27-26-27s1.638-28.97-7-53-11.245-28.563-15-35-15-19-15-19,9.209-26.065,29-38S355.966,40.11,404,55Z"/>
  <path class="cls-1" d="M188,121s28.748-26.266,46-32,37.5-3.637,52,12c-25.029-7.69-31.2,18.868-32,26s1.391,42.128,22,58,46.417,5.682,46-9c1.851,21.28,7.391,62.525-9,91s-23.931,44.622-66,53c-15.271,3.041-40.808-3.786-52-8s-37.595-17.348-47-53c-4.309-16.334-5.114-40.548-1-49,8.743,0.4,25.884.753,42-24S196.049,127.842,188,121Zm39.527,77.8c24.1-6.438,50.055,11.291,58.442,40.217,8.617,29.714-4.358,60.365-29.479,67.8-25.44,7.535-52.592-11.847-60.156-42.594C188.974,234.319,203.14,205.318,227.527,198.8Z"/>
  <path class="cls-2" d="M414.138,277.839c-15.1,32.175-35.18,49.7-88.173,56.232-4.009-12.4-4.319-31.006-6.509-46.749,16.937-6.439,30.85-10.925,34.154-28.306-0.007-22.144-7.95-31.143-18.11-40.516a3.292,3.292,0,0,0-3.075,1.351C331.01,237.379,325.3,262.339,318.6,275.6c-10.167,19.5-23.385,35.948-43.846,45.177-25.206,12.127-60.272,8.3-86.308-2.195,0.321,5.211.2,13.857-4.949,14.86C167.2,335.83,144.737,339.4,127,341c-3.867.479-4.018-3.891-5-7-2.239-8.064-1.824-6.511-3.838-14.5-6.107-30.333-12.43-60.667-18.689-92-2.55-11-4.419-22-6.722-34.647-5.144-17.211-14.568-27.266-21.5-41.611C49.448,112.906,26.135,72.765,4.379,31.379c-0.684-1.559,1.6-3.063,5.121-3.734,23.667-1.3,47.333-3.434,72.239-5.7,13.919-1.238,23.8-5.536,28.709,9.428,4.845,12.68,8.005,21.289,12.052,31.125a10.592,10.592,0,0,0,.58,3.792C127.151,75.878,129.588,85.15,134,96c0.388,0.825,2.494,1.835,3,0,0.633-3,5.21-28.5,8.614-44.5A315.127,315.127,0,0,0,151,19c0.536-2.705,4.572-3.136,6.54-3.562,13.053-2.827,29.142-2,44.96-2.871,17-.733,34-1.444,52-3.067,3.427-.247,5.237,3.412,4.7,4.949C249.151,39.454,242.433,55.677,233.5,77.5c-0.833,1.833,1.333.667,2.776,1.619,16.73-8.831,43.514,1.293,51.6,10.2,5.113-6.221,6.792-15.185,11.848-19.593A82.284,82.284,0,0,1,326.5,46.833c25-12.456,50-11.369,75.384-2.832A73.132,73.132,0,0,1,415,50c0.027,1.75-1.1,45.09-3,61-11.166-4.983-38.479-9.652-43.663,2.669-5.526,5.181-6.595,21.239-2.627,32.368,6.436,14.18,18.784,22.333,27.4,33.691,8.382,12.156,15.914,21.861,24.257,44.525,0.1-18.055-.026-37.322.778-56.753,1.688-28,1.963-62.518,3.851-90.5,0.643-8.736,3.2-8.039,14-8,15.723,0.668,45.293,1.9,57.968,6.5-2.245,23.667-7.894,47.333-8.212,71.07,4.824,1.648,11.262,4.017,18.744,6.93a4.046,4.046,0,0,0,3.12-1c2.673-12.333,3.377-24.667,5.682-38.237,3.468-10.935,2.521-26.438,8.2-34.763,1,0,2,0,4.161.093,20.65,9.9,36.036,17.365,57.839,27.908,0.667,0.833,2.833-1.333,1.9-3.088,0.235-7.137.737-15.957,2.808-23.368,5.227-.993,57.377,17.762,63.135,19.887,0.339,8.391-14.835,111.909-20.888,154.569-2.216,15-4.178,30-6.829,46-0.4,7.333-1.777,14.667-2.907,23.189-2.124,6.457-.658,16.978-5.544,22.436-16.782-5.642-30.657-11.219-51.345-20.625,4.9-57,11.287-114,16.669-172-0.333-.667.833-2.833-1.864-2.1-5.878,21.752-12.187,40.581-18.136,59.1,0-.013-2.4,9.407-2.5,9.5-4.924,17.337-12.345,42.967-17.816,61.49-3.679,11.9-5.7,17.721-9.517,31.242-0.882,3.619-2.512,10.056-3.859,13.922-2.464,4.11-1.735,12.9-7.792,13.76C507.064,335.276,489.863,326.512,486,324c-2.135-1.441-2.868-4.977-2.686-6.724,1.445-13.816,4.408-27.98,5.7-42.776,1.881-15.667,5.527-31.333,6.277-48.034-7.426-2.777-14.411-5.791-22.447-8.776-5.29,31.1-8.227,61.023-13.844,92.31-0.937,2.325-2.538,5.822-4.893,4.874-12.405-5.068-28.486-9.105-38.607-16.374v-21S413.5,277.5,414.138,277.839Z"/>
</svg>
