<svg xmlns="http://www.w3.org/2000/svg" width="1925" height="771" viewBox="0 0 1925 771">
  <defs>
    <style>
      .cls-1 {
        fill: #fff;
        stroke: #fff;
        stroke-width: 1px;
        fill-rule: evenodd;
      }
    </style>
  </defs>
  <path class="cls-1" d="M1039,8l11,6V71l-12,6h66V40l-17,30h-16V14l12-6h-44Z"/>
  <path class="cls-1" d="M1345,77h37l-11-7V33l47,44V14l12-6h-37l11,6V40L1371,8h-26l11,6V71Z"/>
  <path class="cls-1" d="M1632,8l12,7V71l-12,6h44l-11-6V47h8l11,10V29l-11,10h-8V15h20l15,19V8h-68Z"/>
  <path class="cls-1" d="M1591,28l10,15-10,13-9-13Z"/>
  <path class="cls-1" d="M1247,10l9-3V32s-15.6-19.278-24-19c-13.42.445-22.84,5.713-23,22-0.1,9.922,0,.7,0,17,0,8.848,9.85,19,16,19h7s6-.263,6-2V44l-11-6h41l-11,6V79l-9-4s-8.68,4-15,4h-12c-5.6,0-20.54-6.054-27-14s-7-12.77-7-23,0.7-12.988,5-20,13.78-12,17-13a63.96,63.96,0,0,1,20-3A43.8,43.8,0,0,1,1247,10Z"/>
  <path class="cls-1" d="M1433,8l11,6V71l-11,6h33c12.03,0,49-6.618,49-33s-26.55-36-48-36h-34Zm32,7V70c3.67,0,28-1.07,28-27S1470.74,14.968,1465,15Zm67,67"/>
  <path class="cls-1" d="M1552,43c0-25.095,18.46-37,40-37s40,12.262,40,37c0,26.96-22.93,36-40,36C1578.79,79,1552,74.7,1552,43Zm21,6c0,3.237,1.2,23,18,23s19-17.98,19-22,0.96-16.947-1-23-9.17-13-18-13c-6.49,0-15.53,5.442-17,16A131.888,131.888,0,0,0,1573,49Z"/>
  <path class="cls-1" d="M745,8V35l14-20h12V71l-10,6h42l-10-6V15h13l13,21V8H745Z"/>
  <path class="cls-1" d="M825,8h43l-12,6V37h26V14L871,8h43l-12,6V71l13,6H871l11-6V45H856V71l11,6H825l11-6V14Z"/>
  <path class="cls-1" d="M918,8h67V34L970,15H949V38h10l10-9V54l-10-9H949V70h21l15-25V77H918l11-6V14Z"/>
  <path id="Shape_34_copy" data-name="Shape 34 copy" class="cls-1" d="M1110,8h67V34l-15-19h-21V38h10l10-9V54l-10-9h-10V70h21l15-25V77h-67l11-6V14Z"/>
  <path id="Shape_34_copy_2" data-name="Shape 34 copy 2" class="cls-1" d="M1268,8h67V34l-15-19h-21V38h10l10-9V54l-10-9h-10V70h21l15-25V77h-67l11-6V14Z"/>
  <path class="cls-1" d="M1465,628.781h183L1595,584l31-119h89l27,121-55,43h236l-69-50L1736,124.781,1585,124l62,50L1531,578ZM1640,413h63l-29-125Z"/>
  <path class="cls-1" d="M81,8L6,205,180,73H479L21,764H615l51-136,556,0.77s114.57,4.052,160-4.77,71.62-20.487,102-46,38.69-44.867,54-86,20.19-107,18-136-8.01-76.942-19-101-24.28-52.545-51-79-55.74-34.861-66-39-23.98-6.805-29-8-21.68-3.772-27-4-163,0-163,0l65,49V578l-45,34V386l-76,193h-48V174l65-49.228H611L676,174V576L537,698H216L673,8H81ZM1362,171V582s19.89-2.908,39-20,39.94-49.565,50-93,8.64-63.27,9-88-1.51-63.225-6-83-11.26-45.229-21-64-29.27-45.232-44-53A104.45,104.45,0,0,0,1362,171ZM387,280v41l44-21L556,70Zm-72,95,48-19,7,45-50,21ZM253,477l45-22-2,43L127,708ZM940,617l52-38V174l-52-38V326L865,167H775V345h50l52-64V466l-52-70H775V579h90l74.766-195Z"/>
</svg>
