<?xml version="1.0" encoding="utf-8"?>
<!-- Generator: Adobe Illustrator 19.0.0, SVG Export Plug-In . SVG Version: 6.00 Build 0)  -->
<svg version="1.1" id="Layer_1" xmlns="http://www.w3.org/2000/svg" xmlns:xlink="http://www.w3.org/1999/xlink" x="0px" y="0px"
	 viewBox="0 0 263 145.3" style="enable-background:new 0 0 263 145.3;" xml:space="preserve">
<style type="text/css">
	.st0{fill:#FFFFFF;}
</style>
<g>
	<path class="st0" d="M257,137.3c-10.5,0.1-20.9,0.3-31.4,0.4c-1.9,0-3.9-0.2-6.1-0.3c0-16.3,0-32.2,0-48.6c11.7,0,23.4,0,35.4,0
		c0,2.6,0,5,0,8c-8.4,0-16.7,0-25.3,0c0,3.8,0,7,0,10.7c7.8,0,15.4,0,23.4,0c0,3,0,5.4,0,8.5c-7.7,0-15.4,0-23.4,0
		c0,4.6,0,8.5,0,12.9c9.4,0.1,18.5,0.2,27.6,0.3C257,132,257,134.7,257,137.3z"/>
	<path class="st0" d="M254.3,44.8c-0.6,4.3-0.9,9.1-2.1,13.8C248.8,72,239.3,80,225.5,81.1c-4.9,0.4-10,0.1-14.9-0.7
		c-11.4-1.9-19.1-8.7-22.4-19.6c-3.8-12.2-3.8-24.7,1-36.7c4.3-10.8,12.7-16.8,24.2-18.4c3.8-0.5,7.7-0.5,11.5-0.2
		c14.6,1.2,24.9,11,27.8,26.4C253.5,35.9,253.7,40.1,254.3,44.8z M239.9,43.6c-0.9-4.5-1.4-9.2-2.9-13.5c-2.9-8.2-9-12-17.6-11.8
		c-8.3,0.2-14.5,4.7-17.1,12.8c-2.6,8.1-2.7,16.3-0.4,24.5c2.1,7.4,7.7,12.1,14.9,12.8c9.2,0.9,15.9-2.4,19.6-9.7
		C238.6,54,239.4,49,239.9,43.6z"/>
	<path class="st0" d="M125.6,7.9c0.5-0.1,1.2-0.4,1.8-0.4c11.7,0,23.3-0.3,35,0C177.2,8,186.2,20.5,182,34.4
		c-1.1,3.8-2.3,5.2-8.4,10.5c6.6,3,7.6,8.6,7.4,15c-0.2,6.1,0,12.3,0,18.8c-4.8,0-9.2,0-14.2,0c-0.1-2.9-0.2-5.9-0.2-8.8
		c-0.1-3.7,0.1-7.3-0.2-11c-0.4-5-2.5-7.4-7.5-7.6c-6.1-0.3-12.3-0.1-18.9-0.1c0,9.2-0.3,18.4-0.3,27.6c-4.7,0-9.5,0-13.6,0
		 M139.6,38.5c7.8,0,15.1,0.3,22.3-0.1c4.6-0.3,7.3-4.5,7.1-9.3c-0.1-4.9-3.1-8.7-7.7-8.9c-7.1-0.3-14.2-0.1-21.8-0.1
		C139.6,26.3,139.6,32.2,139.6,38.5z"/>
	<path class="st0" d="M68.5,7.8c17.3,0,34.4,0,51.8,0c0,3.9,0,7.7,0,12c-12.3,0-24.6,0-37.2,0c0,5.3,0,10,0,15.5
		c11.3,0.4,22.5,0,34.2,0.3c0,3.9,0,7.6,0,11.9C106,48.3,94.7,47.3,83.1,48c0,6,0,11.7,0,18c4.1,0.7,8.4,0.2,12.7,0.3
		c4.2,0.1,8.3,0,12.5,0c4.3,0,8.6,0,13.4,0c0,4.2,0,8.1,0,12.3c-17.7,0-35.3,0-53.2,0C68.5,55.2,68.5,31.8,68.5,7.8z"/>
	<path class="st0" d="M46.1,20.1c-12.1,0-23.3,0-35.1,0c0-4.3,0-8.1,0-12.3c17.8,0,35.6,0,53.7,0c0,3.9,0,7.6,0,12.1
		C53,34.7,40.9,50,28,66.4c13,0,24.7,0,36.7,0c0,4.4,0,8.1,0,12.3c-18.1,0-36.2,0-54.8,0c-0.2-6-1.4-11.8,3.4-17.5
		c10.3-12,19.9-24.6,29.8-36.9C44,23.1,44.8,21.9,46.1,20.1z"/>
	<path class="st0" d="M86.5,102.8c-3.4,0-6.2,0-8.9,0c-3.3-6.1-6.5-8.1-12.2-7.4c-3.7,0.5-6.8,1.8-7.2,6.2c0.9,3.9,4.1,4.9,7.4,5.8
		c4.5,1.3,9,2.5,13.4,3.8c5.7,1.8,8.8,5.5,9.1,11.7c0.3,6.6-1.9,11.6-8,14.2c-8.6,3.7-17.3,3.4-25.5-1.1c-4.6-2.5-6.6-6.8-6.4-12.4
		c3.1,0,6,0,8.9,0c3.5,6.9,9.7,9.4,16.5,6.8c2.7-1,4.5-2.8,4.6-5.9c0.1-3.2-1.9-4.8-4.6-5.7c-2.1-0.7-4.2-1.1-6.3-1.7
		c-3-0.8-6.1-1.6-9.1-2.7c-6.9-2.6-9.3-6.2-9.2-13.2c0.1-6.6,3.1-11,9.5-13.1c6.7-2.3,13.5-2.1,19.9,1.2
		C83.5,92,86.3,96.3,86.5,102.8z"/>
	<path class="st0" d="M10.2,137.8c0-16,0-32.8,0-49c11.8,0,23.5,0,35.5,0c0,2.6,0,5,0,8.1c-8.5,0-16.9,0-25.6,0c0,3.7,0,6.8,0,10.6
		c7.9,0,15.6,0,23.5,0c0,3.1,0,5.5,0,8.6c-7.8,0-15.5,0-23.5,0c0,4.4-0.1,8.7-0.1,13c8.8,0,17.4,0.4,26.8,0.4c0.1,2.4,0.3,6,0.4,8.2
		C42.7,137.7,16.1,137.8,10.2,137.8z"/>
	<path class="st0" d="M177.6,137.4c-4.1,0-7.3,0-11,0c-1-3-2.1-6.1-3.2-9.5c-5.9,0-11.8,0-18,0c-1.2,3.1-2.5,6.3-3.7,9.5
		c-3.5,0-6.8,0-10.7,0c5.9-16.5,11.6-32.6,17.3-48.7c4.1,0,7.9,0,12.1,0C166.2,104.7,171.8,120.8,177.6,137.4z M154.8,101.1
		c-0.4,0-0.8,0-1.2,0c-1.8,5.7-3.6,11.7-5.5,17.8c4.4,0,7.8,0,12.2,0C158.4,112.9,156.6,106.8,154.8,101.1z"/>
	<path class="st0" d="M133.7,104.2c-3.3,0-6.4,0-9.7,0c-0.7-1.2-1.3-2.5-2.2-3.7c-4.8-7-15.2-6.4-19,1.2c-3.5,7.1-3.3,14.5-0.7,21.8
		c1.6,4.4,5,6.9,9.9,7c4.9,0.1,8.3-1.9,10.4-6.2c0.4-0.9,0.9-1.8,1.4-2.9c3.1,0,6.2,0,9.6,0c-0.9,6.5-3.9,11.5-9.1,14.9
		c-12,7.8-28.9,1.7-33-12c-2.2-7.5-2.2-15.2,0.3-22.6c4.7-14.1,22.4-19.6,34.5-10.8C130.6,94,133.2,98.3,133.7,104.2z"/>
	<path class="st0" d="M190,120c0,5.9,0,11.4,0,17.3c-3.4,0-6.3,0-9.2,0c0-3.8-0.5-42.3-0.3-48.5c8.2,0,16.5-0.6,24.7,0.2
		c6.3,0.6,12.8,6.1,11.8,17.5c-0.6,7.5-5.6,12.6-13.7,13.2C199,119.9,194.7,119.9,190,120z M190.3,111.5c3.1,0,5.8,0,8.4,0
		c1.2,0,2.3,0,3.5-0.2c3.9-0.6,6.1-3.4,6.1-7.2c0-3.6-2.2-6.5-5.9-6.8c-3.9-0.4-7.8-0.1-12.1-0.1
		C190.3,101.9,190.3,106.3,190.3,111.5z"/>
</g>
</svg>
