<?xml version="1.0" encoding="utf-8"?>
<!-- Generator: Adobe Illustrator 19.0.0, SVG Export Plug-In . SVG Version: 6.00 Build 0)  -->
<svg version="1.1" id="Layer_1" xmlns="http://www.w3.org/2000/svg" xmlns:xlink="http://www.w3.org/1999/xlink" x="0px" y="0px"
	 viewBox="0 0 2370.2 1083.1" style="enable-background:new 0 0 2370.2 1083.1;" xml:space="preserve">
<style type="text/css">
	.st0{fill:#FFFFFF;}
</style>
<path class="st0" d="M22.6,751.2l5.3-54.3c0,0,401.5-447.3,467.5-515.7c-192,32.1-363,147.6-376.5,234.6c-27,10.5-57,16.5-57,16.5
	l31.5-219c0,0,513-147,729-156c0,22.5,0,30,0,30S430.8,515.7,371.3,551.7c172-30.5,334-83.5,343-224c69-11.8,81-13.2,81-13.2
	s-11.3,288-8,295.3C603.3,599.9,22.6,751.2,22.6,751.2z"/>
<path class="st0" d="M1547,212.9c-28.3-71.3-105.3-125-148.7-143.7c-43.3-18.7-108.7-35.7-162-39.7c-53.3-4-162.3,1.7-220.3,24.7
	s-91,50.7-106.3,67.3c-15.3,16.7-50.9,66.5-58.3,95c-19,73.3-11,148.7,13,211s92.7,115.3,125,134c32.3,18.7,87.3,39.3,156,49
	c68.7,9.7,156.3,5.3,215.7-10c59.3-15.3,118.3-51.3,147.3-83.3s58-85.3,62.3-134.3S1575.3,284.2,1547,212.9z M1372.8,357.7
	c-1,13-4,62.5-23,101s-37,53-60,63.5s-45.5,19-100.5,13.5s-80-24.5-99.5-51s-30-61-35-83s-10-69-6.5-117.5c0.5-7.6,6-48.5,11-63.5
	s20.5-47.5,32.5-60.5s29.5-27.5,59-37.5s77.5-10.5,106-3.5s51,19.5,71,44s32,61.5,38,90.5S1373.8,344.7,1372.8,357.7z"/>
<path class="st0" d="M2346.8,336.2c-8-29-34.5-79.5-64.5-110.5s-88-74-151.5-100s-125-35.5-178.5-39.5s-127.5,2-174,16.5
	s-78.5,37.5-97.5,56s-45.5,58-51.5,80s-10.3,31-12,57.8c-2.8,43,3.5,87.3,8.3,108.8s28.8,94.5,91.3,147s98,65,141,82
	s144.5,33.5,198,35.5c53.5,2,133-3.5,194.5-42.5s75-67,96.5-115.5S2354.8,365.2,2346.8,336.2z M2149.8,479.7
	c-3,18-16.5,77.5-62.5,97.5c-46,20-101,11-130.5,3s-60-23-86.5-57.5s-37.5-83-41.5-112s-6.3-104.8,10-152c5.5-16,10.5-27,24-43.5
	s40.5-35.5,65-38.5s54-3.5,98,7c44,10.5,101,49.5,120,129S2152.8,461.7,2149.8,479.7z"/>
<path class="st0" d="M112.3,824.6c-0.1,11.3-0.7,40.7,0,45.3c0.7,4.7,3.3,5,12,3.7c8.7-1.3,19.7-3.3,24.7-5c5-1.7,4-5.7,6.3-10.3
	s10-24.3,22.3-29.3c12.3-5,33.7-11.3,40.3-12.3c0,15.7,5.3,191,5.3,202c0,11-11,14-16,17s-10.3,6.7-10.7,10.3
	c-0.3,3.7-3,11.7,12.3,7.7s125-29.2,130.3-30.8c5.3-1.7,8-1.5,8.7-6s0.5-8.8-4.5-9.8s-16,1.2-20.8-3.3c-1.8-3.7-2.3-7.2-2.2-14.7
	s-4.8-194.7-4.8-194.7s31.3-8.5,41.3-7.2c10,1.3,15.5,9.2,18,12.8c2.5,3.7,4.2,11,8.5,12.2c4.3,1.2,33.7-5.7,35.8-7
	c2.2-1.3,2.9-2.3,3.2-7c0.3-4.7,0.2-41.8,0-45.5c-0.2-3.7-1.6-5.5-5.7-4.3c-4.2,1.2-209.3,52.2-218.3,54.2s-64.5,11.7-71.2,12.5
	C120.6,815.7,112.3,818.9,112.3,824.6z"/>
<path class="st0" d="M553.3,867.5c0,0-73.3-91.5-82.8-99.3s-20.8-6-25.5-6.3s-6.3-2.8-6.3-7.8s-0.8-8.5,7.8-9.5S579,725.2,587,724.5
	s7.8,2.5,7.5,5.8s4,10.3-10.8,11.8s-23.8,7-19.3,11.3s58.8,71.8,58.8,71.8s55.8-76,59-82s-0.5-12-12-11.3s-16.5-1-16.5-5
	s-2.3-10.8,6-12.5s107.8-15.8,115-16.3s6.5,3,6.5,5.5s2.5,5.5,0,7.8s-37,15.3-44,24s-87.3,121-87.3,121s-2,75-1.8,83.3
	s18,7.8,23.3,10.8s4.5,9.3,2.8,12s-0.8,3.5-8,4.5s-134,18.3-139,18.8s-4.5-4.8-4.8-8.5s8-7.3,10.3-9s17.8-6.8,18.5-17
	S553.3,867.5,553.3,867.5z"/>
<path class="st0" d="M1074.8,685.2l-3.5,51c0,0,2,4.5-7,6s-24.8,2.3-29.7,1.5s-6.7-3.2-10-7.7c-3.3-4.5-13.8-27.5-43.5-33.3
	s-59,1.8-73,16.5c-20,21-24,51.8-24.8,54.5c-0.9,2.7-4,21.7-5.2,38.3c-0.3,16,0,41.5,1.7,50.3c1.7,8.8,7.7,28.5,14.8,34.7
	c7.2,6.2,19.3,16.8,32.3,17.3s33.5,3.3,58-6.3c24.5-9.7,40.8-32.5,44-42.3c38.3-1.7,48.2-1.8,48.2-1.8s-1.7,23.2-26.8,39.7
	c-25.2,16.5-50.3,23.7-75,28.3c-24.7,4.7-52.7,5.8-72,5.7c-19.3-0.2-61-3.8-84.7-18c-23.7-14.2-39.2-32.8-44.7-47.7
	c-5.5-14.8-9.3-38.3-5-63.2c4.3-24.8,24.8-69.3,66-91.8c41.2-22.5,41.5-22.2,73-28c31.5-5.8,37.2-6.8,72-6.2
	c34.8,0.7,36.2,6,45.2,4.3c9-1.7,10.3-5.3,17.8-5.8s23.3-1.3,28-1.5C1075.6,679.6,1075,682,1074.8,685.2z"/>
<path class="st0" d="M1426.6,742.9c-14-25-29-37.7-47-46.3c-18-8.7-42-19.7-96.3-23.3c-54.3-3.7-80,5.7-110.3,18.3
	c-30.3,12.7-45.3,27.7-58.3,52c-13,24.3-15.6,65.2-10.5,83.8c8.2,29.9,25.8,64.9,62.1,83.9c36.3,19,104.7,28.3,180.3,12
	s89.3-75,93.3-99S1440.6,767.9,1426.6,742.9z M1332.3,846.2c-1.7,16.7-3.7,33-13.7,50s-43,20-65.7,14.7c-22.7-5.3-31.7-25-35.7-34.7
	s-7.5-38.7-8.7-64.7c-0.9-18.9,3-64.7,7-79c4-14.3,5.7-26.7,22.3-34.3c16.7-7.7,49-11.3,66,2.7s28.3,38.3,30,69
	C1335.6,800.6,1334,829.6,1332.3,846.2z"/>
<path class="st0" d="M1829.5,839.2c-0.8-22.5-7.9-59.8-28.3-84c-20-23.8-50.3-43.5-89.8-55c0,0-40.3-12.5-84-11.3
	s-58.8,6.8-73.3,13.3s-38.5,23.8-45.5,37.3s-16.5,26.5-17,66.8c-0.6,47.5,17.5,73,45,98s65.5,38.5,114.5,46s125,1.5,152-34.5
	S1830.3,861.7,1829.5,839.2z M1718,898.1c-4.2,20.5-9,30.3-38,35.3s-47.8-9.3-63.8-26.2s-16.7-76.3-17.2-93.8s4.3-60.2,4.3-60.2
	c0.8-7.3,2.1-11.8,4.1-19.1s8-15.8,19-21.3s26.2-3.7,37.8-3c11.7,0.7,24,3.5,39.8,26.3s19,58.5,19.3,80
	C1723.8,837.7,1722.1,877.6,1718,898.1z"/>
<path class="st0" d="M1895.3,757.9c0,0,6,188.3,5.3,195.2c-0.7,6.8-4,9.2-16,11.8c-12,2.7-9,3.7-9.7,6.7c-0.7,3-1.7,10,5,10.7
	c6.7,0.7,94.7,12.7,101.7,13.7s4-5,4.7-8c0.7-3,1-6-3.7-6.7s-23-11.3-24-16.3s-4-158-4-158l173,206.3c0,0,3.7,4.3,15,6s24,3,28,2.7
	c4-0.3,5-2.7,4.3-8.3c-0.7-5.7-7-213-7.3-219s8.7-11,14.7-11.3s10.7-1.3,11.3-5.7c0.7-4.3,1.7-10.3-7.3-11.7
	c-9-1.3-85.3-13-94.7-13.3c-9.3-0.3-9.3,4-9.3,6.7s-1.8,4.8,3.3,8.2c5.2,3.3,23.7,9.2,23.7,15.3s3.5,113.7,3.5,113.7
	s-130.7-154.7-133.5-157.7c-2.8-3-3.3-2.2-12.2-3.5s-90.2-12.5-94.7-13.2c-4.5-0.7-4.2,3.2-4.2,6c0,2.8-2.3,6.5,5.2,10.2
	s13.8,6.3,17.2,9.2C1894,750.2,1895.2,753.2,1895.3,757.9z"/>
</svg>
