<svg xmlns="http://www.w3.org/2000/svg" viewBox="0 0 4947 1185">
  <g fill="#ffffff" transform="translate(0 935) scale(1 -1)">
    <path transform="translate(0 0)" d="M88 0Q78 0 70.0 7.5Q62 15 62 26V674Q62 685 70.0 692.5Q78 700 88 700H570Q581 700 589.0 692.5Q597 685 597 674V547Q597 537 589.0 529.0Q581 521 570 521H273V411H550Q561 411 569.0 403.5Q577 396 577 385V259Q577 248 569.0 240.5Q561 233 550 233H273V26Q273 15 265.5 7.5Q258 0 247 0Z"/><path transform="translate(632 0)" d="M213 -10Q158 -10 114.5 11.0Q71 32 46.5 67.5Q22 103 22 147Q22 219 80.5 260.5Q139 302 237 318L353 336V343Q353 374 343.0 389.5Q333 405 303 405Q282 405 269.0 397.0Q256 389 245 374Q235 363 219 363H78Q68 363 61.5 369.0Q55 375 56 385Q57 403 71.0 427.5Q85 452 114.5 475.5Q144 499 191.0 514.5Q238 530 304 530Q371 530 419.0 515.0Q467 500 498.0 473.0Q529 446 544.0 407.5Q559 369 559 322V26Q559 15 551.5 7.5Q544 0 533 0H388Q377 0 369.0 7.5Q361 15 361 26V58Q348 38 326.5 23.0Q305 8 276.5 -1.0Q248 -10 213 -10ZM271 121Q296 121 315.0 131.5Q334 142 344.5 164.0Q355 186 355 219V226L283 212Q246 205 231.0 192.0Q216 179 216 162Q216 150 223.0 141.0Q230 132 242.5 126.5Q255 121 271 121Z"/><path transform="translate(1238 0)" d="M240 0Q225 0 218.0 8.0Q211 16 206 25L15 489Q14 493 14 497Q14 506 21.0 513.0Q28 520 37 520H179Q193 520 200.0 512.5Q207 505 210 498L306 227L403 498Q406 505 413.0 512.5Q420 520 434 520H575Q585 520 591.5 513.0Q598 506 598 497Q598 493 597 489L407 25Q403 16 395.5 8.0Q388 0 373 0Z"/><path transform="translate(1850 0)" d="M313 -10Q225 -10 164.5 16.0Q104 42 72.0 92.5Q40 143 36 214Q35 235 35.0 260.0Q35 285 36 306Q40 378 74.0 428.0Q108 478 168.5 504.0Q229 530 313 530Q397 530 457.5 504.0Q518 478 552.0 428.0Q586 378 590 306Q592 285 592.0 260.0Q592 235 590 214Q586 143 554.0 92.5Q522 42 461.5 16.0Q401 -10 313 -10ZM313 131Q350 131 364.0 153.0Q378 175 380 219Q381 234 381.0 260.0Q381 286 380 301Q378 344 364.0 366.5Q350 389 313 389Q277 389 263.0 366.5Q249 344 246 301Q245 286 245.0 260.0Q245 234 246 219Q249 175 263.0 153.0Q277 131 313 131Z"/><path transform="translate(2476 0)" d="M78 0Q67 0 59.5 7.5Q52 15 52 26V494Q52 505 59.5 512.5Q67 520 78 520H223Q234 520 241.5 512.5Q249 505 249 494V457Q279 486 317.5 503.0Q356 520 402 520H447Q458 520 466.0 512.5Q474 505 474 494V365Q474 354 466.0 346.5Q458 339 447 339H335Q299 339 280.0 320.0Q261 301 261 265V26Q261 15 253.5 7.5Q246 0 235 0Z"/><path transform="translate(2962 0)" d="M78 0Q67 0 59.5 7.5Q52 15 52 26V494Q52 505 59.5 512.5Q67 520 78 520H226Q237 520 245.0 512.5Q253 505 253 494V26Q253 15 245.0 7.5Q237 0 226 0ZM80 585Q69 585 61.5 592.5Q54 600 54 611V716Q54 727 61.5 735.0Q69 743 80 743H224Q235 743 243.0 735.0Q251 727 251 716V611Q251 600 243.0 592.5Q235 585 224 585Z"/><path transform="translate(3266 0)" d="M346 0Q278 0 226.5 20.0Q175 40 146.5 85.5Q118 131 118 206V367H39Q28 367 20.5 374.5Q13 382 13 393V494Q13 505 20.5 512.5Q28 520 39 520H118V684Q118 695 125.5 702.5Q133 710 144 710H289Q300 710 307.5 702.5Q315 695 315 684V520H441Q452 520 459.5 512.5Q467 505 467 494V393Q467 382 459.5 374.5Q452 367 441 367H315V223Q315 194 327.0 177.5Q339 161 365 161H449Q460 161 467.5 153.5Q475 146 475 135V26Q475 15 467.5 7.5Q460 0 449 0Z"/><path transform="translate(3766 0)" d="M307 -10Q182 -10 108.5 54.5Q35 119 33 252V272Q36 355 69.5 412.5Q103 470 163.5 500.0Q224 530 306 530Q398 530 458.5 493.5Q519 457 549.0 396.5Q579 336 579 261V233Q579 223 571.0 215.0Q563 207 552 207H244V201Q244 177 250.5 158.5Q257 140 271.0 129.5Q285 119 305 119Q318 119 327.0 123.0Q336 127 343.0 133.5Q350 140 355 146Q364 155 369.5 157.5Q375 160 387 160H544Q553 160 559.5 154.0Q566 148 565 139Q564 121 548.0 95.5Q532 70 500.5 46.0Q469 22 420.0 6.0Q371 -10 307 -10ZM244 319H368V321Q368 348 361.0 367.0Q354 386 340.0 395.5Q326 405 306.0 405.0Q286 405 272.0 395.5Q258 386 251.0 367.0Q244 348 244 321Z"/><path transform="translate(4375 0)" d="M281 -10Q213 -10 165.0 4.5Q117 19 86.5 41.0Q56 63 42.0 86.5Q28 110 27 128Q26 139 33.5 146.5Q41 154 50 154H195Q196 154 198.0 153.5Q200 153 202 151Q215 147 226.5 138.0Q238 129 252.5 122.0Q267 115 287 115Q304 115 317.5 122.5Q331 130 331 144Q331 156 323.5 165.0Q316 174 292.0 182.5Q268 191 215 201Q166 211 125.5 230.5Q85 250 61.5 283.0Q38 316 38 364Q38 405 65.0 443.0Q92 481 145.5 505.5Q199 530 277 530Q336 530 381.5 516.0Q427 502 458.5 481.0Q490 460 506.5 436.0Q523 412 524 393Q525 382 518.0 374.5Q511 367 502 367H371Q368 367 364.5 367.5Q361 368 359 370Q345 373 333.5 381.5Q322 390 309.0 397.5Q296 405 276 405Q259 405 248.5 397.0Q238 389 238 376Q238 365 245.0 356.0Q252 347 277.0 339.0Q302 331 356 322Q426 311 468.0 285.5Q510 260 528.0 226.0Q546 192 546 158Q546 107 515.5 69.0Q485 31 425.5 10.5Q366 -10 281 -10Z"/>
  </g>
</svg>
