<?xml version="1.0" encoding="utf-8"?>
<!-- Generator: Adobe Illustrator 19.0.0, SVG Export Plug-In . SVG Version: 6.00 Build 0)  -->
<svg version="1.1" id="Layer_1" xmlns="http://www.w3.org/2000/svg" xmlns:xlink="http://www.w3.org/1999/xlink" x="0px" y="0px"
	 viewBox="-73 291.3 463.4 211.8" style="enable-background:new -73 291.3 463.4 211.8;" xml:space="preserve">
<style type="text/css">
	.st0{fill:#FFFFFF;}
</style>
<path class="st0" d="M390.3,434c-0.3-2.5-1.2-4.6-3.8-5.5c-1.1-0.4-2.2-0.7-3.3-0.7c-8.6-0.1-17.1-0.2-25.7,0h-6.6
	c-9.2-0.2-18.5-0.1-27.7,0c-1.1,0-2.3,0.5-3.4,0.9c-0.8,0.3-1.4,1.3-2.2,1.4c-0.8,0.1-1.7-0.6-2.6-0.8c-4.8-1.5-9.8-1.8-14.8-1.3
	c-4.6,0.4-8.9,1.6-12.9,3.8c-2.4,1.3-4.6,2.9-6.3,5.1c-2.2-2.9-5.1-4.8-8.4-6c-6.1-2.3-12.3-2-18.4-0.1c-0.7,0.2-1.3,0.2-1.9-0.2
	c-1.8-1-3.7-1.3-5.7-1l-15,2.7c-0.5,0.1-1.1,0.1-1.5-0.2c-6.1-3.4-12.3-3.9-18.7-0.9c-0.5,0.2-0.8,0.2-1.3-0.1
	c-1.9-1.2-3.9-1.7-6.1-1.4l-17.4,2.7c-2.1,0.3-4.1,0.8-5.8,2.2c-0.2,0.1-0.7,0-1-0.1c-2.7-1.7-5.6-2.9-8.7-3.8
	c-5.2-1.4-10.4-1.8-15.8-1.3c-4.8,0.4-9.5,1.5-13.8,3.8c-2,1-3.8,2.3-5.8,3.5c-2.5-2.4-5.9-2.3-9.4-2.2c0.3-0.9,0.3-1.8,0.7-2.2
	c4.3-3.1,7.5-7.2,10.1-11.8c1.4-2.5,1.6-5.1,0.6-7.7c-0.1-0.3,0-0.7,0.1-1c0.4-1,1.1-2,1.2-3.1c0.5-3.4,0.6-6.8-0.1-10.1
	c-1.4-7.2-5.2-12.8-11.2-17c-6.5-4.6-13.8-6.3-21.7-6.1c-4.8,0.2-9.4,1.1-13.8,3.1c-3.2,1.4-6.1,3.4-8.7,5.8
	c-1.9-1.7-3.9-2.9-6.2-3.8c-3.8-1.5-7.9-2.1-12-2.4c-1.4-0.1-2.9-0.1-4.3-0.2c0.3-18.8-7.6-33.2-23.3-43.4
	c10.6-14.5,21.2-28.9,31.8-43.4c-0.2,0-0.4,0.1-0.5,0.2c-7.1,6.1-14.1,12.2-21.2,18.4c-7.3,6.4-14.7,12.7-22,19.1
	c-0.6,0.6-1.2,0.6-1.9,0.4c-8.4-1.9-16.7-1.5-24.9,1.1c-3.9,1.2-7.5,3-10.9,5.1c-15.2-11.7-30.6-23.3-46-35l-0.2,0.2
	c11.5,15.1,23,30.3,34.5,45.4c-0.1,0.1-0.1,0.2-0.2,0.3c-9.1,12.2-12,25.7-8.6,40.6c0.1,0.3-0.1,0.8-0.3,1.1
	c-1.9,2.4-3.8,4.8-5.8,7.1l-33.3,41.4c-0.4,0.5-0.8,0.9-1.2,1.3v0.2c0.2-0.1,0.5-0.3,0.7-0.4c13.4-10.9,26.8-21.7,40.3-32.6
	c1.8-1.4,3.6-2.9,5.4-4.4c2.1,3.3,4.5,6.3,7.2,9c0.2,0.2,0.2,0.6,0.1,0.9c-1,2.2-2,4.4-3,6.5c-0.2,0.4-0.7,0.7-1.1,0.8
	c-2.1,0.6-3.8,1.8-5.1,3.6c-1.7,2.4-1.8,5.1-1.6,7.9c0.4,4.6,4.3,8.1,8.9,8.1h19.1c0.4,0,0.8,0,1.2-0.1C1.5,437,3.5,436,5,434
	c0.1,0.1,0.3,0.2,0.4,0.3c1.9,2.2,4.4,3.3,7.4,3.2c3.9-0.1,7.9,0,11.8,0h1.1c-0.2,0.4-0.3,0.7-0.4,1c-3.7,8.6-7.5,17.1-11.2,25.7
	c-2.6,5.9-5.3,11.8-7.9,17.7c-0.2,0.5-0.6,0.8-1.1,0.9c-2.2,0.6-3.9,1.8-5.2,3.6c-1.5,2.1-1.6,4.5-1.6,7c0.1,5,4,9,9,9h19
	c2.4,0,4.4-0.8,6.1-2.4c0.4-0.4,0.8-0.8,1.1-1.2c1.8,2.2,4.1,3.5,7,3.6H71c4.4,0,8.1-3.3,8.6-7.7c0.3-2.5,0.3-5-0.9-7.5
	c6.5-0.6,12.2-3,16.8-7.7c2.4,3.1,5.6,5,9.2,6.2c4.9,1.6,9.9,2,15,1.5c4.8-0.5,9.1-2.1,12.9-5c0.9-0.7,1.7-1.4,2.6-2.1
	c2.1,1.8,4.5,3.2,7,4.4c4.4,2,9.1,2.9,13.9,3.2c7.2,0.4,14.3-0.2,21-3c0.3-0.1,0.7-0.1,1,0.1c1.8,1.3,3.7,1.8,5.9,1.8h29.3
	c0.7,0,1.5,0,2.2-0.2c2.3-0.4,4.1-1.7,5.6-3.7c2.3,3.1,5.4,3.8,9,3.7c7.2-0.1,14.4,0,21.6-0.1c2.7,0,5.4-0.1,8.1,0
	c6.9,0.1,13.9,0,20.8,0.1c3.2,0,6-0.6,8.2-3.2c5,2.4,10.3,3.6,15.8,3.6s10.9-0.4,16.1-2.6c-0.1,0.3-0.1,0.5-0.1,0.8
	c-0.9,5.6,0.4,10.4,4.8,14.1c2.9,2.5,6.4,3.6,10.2,3.9c4.6,0.3,8.6-0.8,12.2-3.8c2.4-2,4.2-4.4,5.5-7.1c1.7-3.4,3.3-7,5-10.4
	c5.1-10.4,10.3-20.7,15.3-31.1c1.2-2.6,2.9-4.2,5.5-5.3s5.2-2.5,7.6-4C389.5,439.5,390.7,437,390.3,434 M383,437.8
	c-1.5,1.5-3.4,2.2-5.2,3c-1.8,0.8-3.6,1.6-5.4,2.5c-0.5,0.3-1,0.8-1.2,1.3c-4.9,9.9-9.7,19.7-14.5,29.6c-2.5,5.1-4.9,10.2-7.4,15.3
	c-1.3,2.7-3.1,5.1-5.7,6.8c-4.9,3.1-12.6,1.9-15.8-2.4c-4.4-6.1-1.1-13.8,6.1-15.2c2.2-0.4,4.3-0.1,6.4,0.6c0.4,0.1,0.9,0.3,1.5,0.5
	c0.6-1.5,1.3-2.9,1.9-4.4c0.1-0.2-0.1-0.5-0.2-0.7c-4-7.2-8.1-14.4-12.2-21.6c0-0.1-0.1-0.1-0.3-0.3v4.9c0,2.8-1.5,4.3-4.3,4.3
	c-0.5,0-1,0-1.6,0.1c0.9,0.4,1.9,0.9,2.8,1.4c1.9,1,2.7,3.3,1.7,5.2c-2.1,3.6-4.6,6.9-7.9,9.5c-2.6,2-5.7,2.8-8.9,3.2
	c-4.8,0.6-9.6,0.8-14.3-0.2c-4-0.8-7.6-2.5-10.9-4.8c-0.2-0.2-0.5-0.3-0.7-0.5c0,0-0.1,0-0.3-0.1v1.6c0,2.4-1.6,4-4,4h-23.5
	c-0.9,0-1.8-0.7-2.6-0.7c-0.9,0-1.7,0.7-2.6,0.7c-8.3,0.1-16.6,0-24.8,0c-2.5,0-3.9-1.6-4-4.1c-0.2-3.8,1-5.1,4.5-5.7
	c1.6-0.3,1.4-0.2,1.4-1.7V453c-1.2,0.9-2.4,2.1-3.8,2.8c-4,1.9-9,0.8-12.1-2.7c-0.6-0.6-1.1-0.8-1.9-0.5c-2.5,0.7-3.6,2.1-3.6,4.7
	v12.5c0,1,0.5,1.6,1.4,1.8c1.1,0.3,2.3,0.5,3.5,0.6c2.2,0.2,3.8,1.7,3.8,3.9v2c-0.1,1.8-1.6,3.4-3.4,3.5h-29.1
	c-3.8,0-4.4-0.4-5.6-3.9c-2.7,2-5.7,3.2-8.9,4c-4.5,1.1-9.1,1.3-13.7,1.1c-3.6-0.2-7.2-0.8-10.6-2c-4.5-1.6-8.4-4.2-11.1-8
	c-1.7,1.7-3.2,3.5-4.9,5.1c-3.3,2.9-7.3,4.2-11.6,4.6c-4.7,0.3-9.3-0.1-13.8-1.9c-4.6-1.9-6.9-5.4-7.6-10.2c-0.1-0.4-0.1-0.7-0.2-1
	c-1.3,1.8-2.5,3.7-3.9,5.4c-4.1,5-9.5,7.5-15.9,7.8c-4.1,0.2-8.2-0.3-12.3-1.8c0.1,0.3,0.2,0.5,0.3,0.7l2.4,4.2
	c0.8,1.3,1.9,2.1,3.6,2.1c1.5,0,3,1.2,3.2,2.8c0.2,1.2,0.2,2.5,0.1,3.7c-0.3,2-1.9,3.2-4.1,3.2H41.9c-3,0-4.5-1.5-4.5-4.5v-1.4
	c0.1-2.2,1.6-3.7,3.8-3.9c1.3-0.1,2.5-0.3,3.9-0.4c-0.2-0.6-0.4-1.1-0.6-1.5c-0.7-1.7-1.4-3.3-2-5c-0.2-0.5-0.4-0.7-1-0.7H26.3
	c-0.3,0-0.7,0.1-0.8,0.4c-1,2.1-1.9,4.3-2.9,6.6c1.6,0.2,3,0.5,4.4,0.6c2.3,0.3,3.7,1.8,3.7,4c0,0.7,0.1,1.5,0,2.2
	c-0.2,2-1.8,3.4-3.9,3.5h-19c-2.3,0-3.9-1.7-3.9-4v-1.7c0-2.1,1.2-3.7,3.3-4c1.6-0.3,2.8-1,3.5-2.5c2-4.4,4.1-8.9,6.1-13.3
	c5.6-12.8,11.2-25.6,16.8-38.3c0.1-0.3,0.2-0.6,0.4-1H13.3c-2.9,0-4.4-1.5-4.4-4.4v-1.6c0.1-2.1,1.6-3.6,3.7-3.7
	c1.3-0.1,2.6-0.3,4.1-0.4c-0.4-0.9-0.7-1.7-1-2.5c-0.5-1.3-1.1-2.6-1.6-4c-0.2-0.5-0.4-0.7-0.9-0.7H-2.1c-0.3,0-0.7,0.2-0.8,0.4
	c-1,2.1-1.9,4.3-2.8,6.5c1.6,0.2,3,0.5,4.5,0.7c2.2,0.3,3.6,1.8,3.6,4v1.8c0,2.2-1.6,3.9-3.8,3.9h-19.2c-2.2,0-3.8-1.7-3.8-3.9v-1.9
	c0-2,1.2-3.6,3.2-3.9c1.7-0.3,3-1.1,3.7-2.7c2.2-4.9,4.5-9.7,6.6-14.6c4.5-10.3,9.1-20.6,13.6-31c0.3-0.7,0.5-0.9,1.4-0.8
	c1,0.2,2,0,3.2,0c-0.8,1.8-1.5,3.4-2.2,5c-5.8,13.3-11.6,26.5-17.5,39.8c-0.6,1.4-1.3,2.7-2.1,4.1c-1.1,1.9-2.7,3.3-4.9,3.7
	c-1,0.2-1.3,0.6-1.1,1.5v0.6h19c0-0.1,0.1-0.1,0.1-0.2c0.1-1.1-0.4-1.8-1.5-1.9c-1.2-0.2-2.5-0.3-3.7-0.6c-0.7-0.2-1.4-0.5-2-0.9
	c-0.9-0.7-1.4-1.7-0.9-2.8c1.4-3.4,2.8-6.8,4.2-10.3c0.1-0.2,0.5-0.4,0.8-0.4H16c0.3,0,0.7,0.3,0.8,0.6c1.4,3.4,2.8,6.8,4.2,10.3
	c0.8,1.9,0.3,3.1-1.8,3.5c-2,0.4-4.1,0.6-6.2,0.9v1.8h30.1v-1.9c-0.6-0.1-1.3-0.2-2-0.4c-2.1-0.6-3.6-2.1-4.6-3.9
	c-1.7-3.1-3.4-6.2-4.9-9.4c-5.2-11.1-10.3-22.2-15.4-33.4c-0.2-0.3-0.3-0.7-0.5-1.2c0.3,0.2,0.5,0.3,0.7,0.4
	c1.8,1.6,3.7,3.2,5.5,4.8c0.5,0.4,0.9,1,1.1,1.6L33.2,407c0.1,0.2,0.3,0.5,0.5,1c0.2-4.3,0.7-8.3,2.6-12c0.9,0.8,1.9,1.5,2.7,2.3
	c0.2,0.2,0.2,0.7,0,1c-1.6,4.4-1.9,8.8-1,13.3c1.2,5.4,4.6,9.3,9.5,11.6c8.8,4.2,17.8,4.4,26.6-0.1c2.6-1.3,4.8-3.3,6.7-5.5
	c0-0.1,0-0.1-0.1-0.2c-1.4-1.2-1.5-1.3-2.9-0.1c-4.9,4.1-10.5,4.5-16.4,2.8c-4.1-1.2-6.9-3.8-8.3-7.8c-2.1-6.2-2.1-12.4,0.3-18.5
	c1.6-4,4.7-5.8,8.9-5.6c2.7,0.2,4.7,2.2,4.9,4.9c0,0.5,0.1,1.1,0.1,1.6c0.2,2.4,1.2,3.6,3.6,4.1c1.9,0.4,3.7,0.3,5.6-0.2
	c3.2-0.9,4.4-4.1,2.7-7.3c-0.9-1.7-2.3-2.7-4-3.5c-2.6-1.2-5.4-1.6-8.2-1.8c-4-0.3-7.9-0.3-11.8,0.3c-5.5,0.9-10.4,3.1-13.9,7.6
	c-0.2,0.3-0.5,0.7-0.7,1.1c1.4,1.7,2.9,3.4,4.3,5l-0.2,0.2c-1-0.8-2-1.7-3-2.5l-17.4-15c-5.1-4.4-10.3-8.9-15.4-13.3
	C8.4,370,8,369.8,7.3,370c-2.2,0.8-4.4,0.8-6.7,0.1c-0.3-0.1-0.8,0-1,0.2L-16,384.5l-0.5,0.5c1.5,1.9,3,3.9,4.6,5.7
	c0.9,1,1,2.1,0.3,3.3c-2.5-2.2-4.5-4.8-6.4-7.7c-9.3,8.4-18.6,16.7-27.8,25.1l-0.2-0.2c0.9-1,1.7-2,2.6-3
	c6.8-7.7,13.7-15.5,20.5-23.2c0.8-0.9,1.6-1.7,2.3-2.6c0.2-0.3,0.3-0.7,0.2-1c-4.3-12.5-2.4-23.9,6.1-34.2c0.1-0.1,0.2-0.3,0.3-0.5
	c-5.8-6.7-11.6-13.5-17.3-20.2l0.2-0.2c0.4,0.3,0.9,0.7,1.3,1c5.9,5.4,12.1,10.5,18.4,15.7c0.5,0.4,0.8,0.5,1.3,0
	c9.9-7.3,20.7-8.8,32.3-4.7c0.5,0.2,0.9,0.1,1.3-0.2c3.7-3.2,7.4-6.3,11.1-9.4c0.2-0.1,0.3-0.2,0.5-0.4l0.2,0.2
	c-3.1,3.8-6.2,7.7-9.2,11.5c1.8,1.3,3.7,2.4,5.4,3.8c7.3,6,11.3,13.8,12.1,23.1c0.5,5.2-0.4,10.2-2.3,15.1c-0.3,0.9-0.8,1.6-1.6,2.1
	s-1.6,1.1-2.5,1.6c4.3-7.8,5.6-16.1,3.2-24.7c-2.4-8.7-7.8-15-15.7-19.3c-1.4,1.8-2.9,3.5-4.3,5.3l-7.5,9.3
	c-0.3,0.4-0.4,0.7-0.2,1.3c0.8,2.2,0.8,4.4,0.1,6.7c-0.1,0.3,0,0.9,0.2,1.1c4.8,5.6,9.7,11.2,14.5,16.7c3.1,3.6,6.2,7.1,9.3,10.7
	c0.1,0.1,0.2,0.3,0.1,0c1.3-1.1,2.5-2.1,3.8-3.2c3.6-3,7.8-4.8,12.5-5.6c6.8-1.2,13.5-1.1,20.2,0.6c2.4,0.6,4.7,1.7,6.6,3.4
	c1.6,1.5,2.6,3.4,3,5.6c0.1,0,0.2,0,0.2-0.1c3.3-6.1,8.5-9.8,15-11.6c8.9-2.4,17.6-1.8,25.6,3.2c5.3,3.3,9,8,10,14.2
	c0.5,2.7,0.3,5.5,0.2,8.2c-0.1,1.9-1.7,3.1-3.7,3.1h-27.7c0.1,3.5,2.3,5.9,5.8,6.5c6.1,1.1,11.4-0.5,15.9-4.9
	c1.3-1.3,2.9-1.5,4.6-0.8l2.4,1.2c1.9,1,2.7,3.2,1.7,5c-2.3,4.1-5,7.8-8.8,10.5c-1,0.7-2.1,1.2-3,1.7c0.1,1.1,0.3,2.2,0.4,3.2
	c0.1,2.1,0,4.2,0,6.5h8.2c2.6,0,4.2,1.5,4.2,4.2v3.2c0.8-1.2,1.4-2.1,2.2-3c3.6-4.5,8.2-7.2,13.7-8.5c8.2-2,16.4-1.8,24.3,1.6
	c3.2,1.3,6,3.3,8.4,6.2v-1.8c0-1.9,1.3-3.4,3.2-3.7c5-0.8,10.1-1.6,15.1-2.4l3.6-0.6c2.5-0.3,4,0.7,4.7,3.2c0,0.1,0.1,0.2,0.1,0.3
	c1.4-0.8,2.8-1.8,4.2-2.4c5.5-2.4,10.7-1.9,15.5,1.8c0.2,0.2,0.5,0.3,0.8,0.3c5.4-1,10.8-2,16.2-2.9c1-0.2,2.1-0.3,3.1-0.2
	c1.4,0.2,2.3,1.2,2.7,2.3c2.3-0.7,4.6-1.6,6.9-2.1c4.9-1,9.8-0.7,14.3,1.7c3.6,1.9,6,4.9,7.2,8.8c0.1,0.2,0.1,0.4,0.2,0.5l0.1,0.1
	c0.4-0.6,0.7-1.2,1-1.8c3.6-5.7,8.9-9.1,15.4-10.5c6.6-1.4,13.2-1.1,19.6,1.3c0.7,0.3,1.3,0.6,2,0.9c0.6,0.3,1.2,0.7,1.9,1
	c0.1-2.5,1.8-4.1,4.4-4.1h25.6c1.7,0,3,0.4,4.1,2c1.2-2,3-2,4.9-2h21.7c1.3,0,2.3,0.4,2.8,1.6C384.2,435.8,383.9,436.8,383,437.8
	 M14.8,408.3H-4.5c3.2-7.5,6.4-14.8,9.7-22.4C8.4,393.4,11.6,400.8,14.8,408.3 M276.9,470.3c0-6.8,0.1-13.6-0.1-20.4
	c-0.1-4.9-2.5-8.5-7-10.4c-3.4-1.4-6.9-1.4-10.4-0.8c-3.1,0.5-6.1,1.6-8.3,3.9c-1,1.1-1.9,2.3-3,3.5v-7.6c-5.9,1-11.6,2.1-17.3,3.1
	v1.4c3.2,1,3.4,1.3,3.4,4.6v22c0,0.6,0,1.2-0.1,1.9c-0.2,1.7-1,2.9-2.7,3.4c-0.7,0.2-1.4,0.5-2.2,0.5c-1,0.1-0.8,0.8-0.8,1.4
	c0,0.8,0.6,0.6,1,0.6h24.1v-1.7c-0.4-0.1-0.8-0.2-1.2-0.2c-2.8-0.5-4.2-2.2-4.2-5v-20.6c0-1,0.3-1.7,1-2.4c2.1-2.2,4.8-3.4,7.8-3.6
	c3.3-0.3,5.3,0.8,6.2,3.4c0.3,0.9,0.6,1.9,0.6,2.9v20.8c0,2.1-1,3.5-3,4.2c-0.7,0.3-1.5,0.4-2.2,0.6v1.7h23.7v-1.7
	c-0.4-0.1-0.7-0.1-1-0.2C278.1,474.8,276.9,473.5,276.9,470.3 M62.2,483.1c-6.5-13.9-13-27.9-19.5-41.9l-3.6-7.8
	c-0.9,0-1.7-0.2-2.1,0.9c-5.8,13.5-11.7,26.9-17.6,40.3c-1.9,4.2-3.8,8.4-5.8,12.6c-1,2.1-2.8,3.4-5,3.8c-1,0.2-1.2,0.6-1.1,1.5
	c0,0.2,0,0.4,0.1,0.7h19v-0.9c0.1-0.8-0.2-1.1-1-1.2c-1.5-0.1-3-0.4-4.4-0.7c-2.5-0.6-3.3-2.2-2.4-4.6c1.2-3.1,2.6-6.2,3.9-9.3
	c0.1-0.3,0.5-0.5,0.8-0.5H44c0.3,0,0.7,0.3,0.8,0.6c0.5,1.1,0.9,2.2,1.4,3.3c1,2.4,2,4.9,2.9,7.4c0.6,1.5,0.2,2.5-1.4,3
	c-0.8,0.3-1.6,0.4-2.5,0.6c-1.4,0.2-2.8,0.3-4.2,0.5v1.9h30v-1.9c-2.8-0.3-4.5-1.3-6.1-3.6C63.9,486.3,62.9,484.7,62.2,483.1
	 M23.9,473c3.2-7.5,6.4-14.8,9.7-22.4c3.3,7.6,6.5,14.9,9.7,22.4C43.3,473,23.9,473,23.9,473z M183.8,456.5
	c-0.6-7-3.9-12.2-10.1-15.5c-6.7-3.7-14-3.2-14.1-3.3c-2.9,0.4-5.8,0.6-8.7,1.3c-4.8,1.1-9,3.4-12,7.4c-4.2,5.5-4.8,11.7-3.2,18.2
	s6.2,10.2,12.3,12.4c4.6,1.6,9.3,1.9,14.1,1.7c3.2-0.1,6.3-0.5,9.4-1.5c5.7-1.8,9.7-5.4,11.4-11.2
	C183.9,462.9,184.1,459.7,183.8,456.5 M167.7,470.3c-1,2.6-2.5,4.8-5.3,5.8c-4.4,1.4-8.8-0.6-10.8-5c-1.1-2.5-1.6-5.2-1.8-7.9
	c-0.3-4.3-0.3-8.7,0.7-12.9c0.6-2.8,1.6-5.5,3.6-7.6c3.5-3.6,9.2-3,12.1,1.1c1.6,2.3,2.3,4.9,2.6,7.6c0.3,2.4,0.4,4.8,0.5,6
	C169.2,462.6,169.1,466.6,167.7,470.3 M102.7,427.2c4.2,0.8,8.5,0.6,12.8,0c2.4-0.3,4.7-0.9,6.6-2.3c3.2-2.3,5.3-5.4,7.3-8.8
	c-0.8-0.4-1.6-0.8-2.4-1.1c-0.7,0.6-1.4,1.2-2,1.8c-4.8,3.8-10.2,5.2-16.3,4.4c-7.8-1-10.6-6.2-10.3-14.3h31.9
	c0.3-2.2,0.4-4.4-0.1-6.6c-1.2-6-4.8-10.1-10.1-12.8c-6.6-3.4-13.5-3.8-20.5-1.9c-5.2,1.3-9.4,4.1-12.3,8.7
	c-2.2,3.5-3.1,7.4-3.3,11.5c-0.2,3.6,0.3,7.1,2.1,10.3C89.8,422.3,95.6,425.8,102.7,427.2 M100.2,393.8c2.1-4.2,6.6-6.2,10.8-4.8
	c1.8,0.6,3.1,1.8,4,3.4c2,3.3,2.4,7,2.6,10.8H98.4C98.4,399.9,98.8,396.7,100.2,393.8 M326.6,451.6c-0.9-5-4-8.7-8.3-11.2
	c-6.9-4.1-14.3-4.6-21.9-2.5c-5,1.3-9.1,4-11.8,8.5c-2.1,3.5-2.9,7.4-3,11.5c0,3.2,0.5,6.3,2.2,9c3.9,6.4,9.9,9.5,17.1,10.6
	c3.3,0.5,6.7,0.3,10,0c4.2-0.4,8-1.7,10.8-5.1c1.5-1.8,2.9-3.7,4.3-5.6c-1.5-0.9-2.8-0.8-3.9,0.1L322,467
	c-4.9,3.9-10.5,5.3-16.7,4.4c-7.3-1.1-9.9-6.4-9.5-13.5h29.9c0.3,0,0.5,0.1,0.7,0c0.2-0.1,0.6-0.3,0.6-0.5
	C326.8,455.5,327,453.5,326.6,451.6 M295.6,454.7c0.2-4.7,0.7-9.3,4.8-12.4c3.4-2.5,8.8-2.2,11.4,2.1c1.9,3.2,2.4,6.7,2.5,10.3
	L295.6,454.7L295.6,454.7z M358.5,436.7c-0.3,0-0.6,0-0.9,0.1v2c1.5,0.2,2.9,0.3,4.2,0.7c1.7,0.4,2.3,1.4,1.8,3.1
	c-0.2,0.7-0.5,1.4-0.8,2.1c-1.8,3.8-3.6,7.7-5.4,11.5c-0.7,1.5-1.4,3-2.2,4.6c-0.2-0.4-0.4-0.6-0.5-0.8c-2.1-3.7-4.2-7.4-6.2-11.1
	c-1.2-2.1-2.3-4.3-3.4-6.4c-0.5-1.1-0.2-2,0.9-2.6c0.4-0.2,0.9-0.4,1.3-0.5l3.6-0.6v-2h-26.7v2c0.1,0.1,0.3,0.1,0.4,0.2
	c2.4,0.5,4.1,1.8,5.2,4c1,2,2.2,3.9,3.2,5.8c4.8,8.5,9.6,17,14.3,25.5c0.2,0.3,0.3,0.7,0.2,0.9c-1,2.2-1.8,4.5-3,6.6
	c-1.1,2-2.6,2.3-4.7,1.4c-1.7-0.7-3.4-1-5.2-0.9c-2,0.1-4.3,1.9-5,4c-0.7,1.9,0,4.6,1.6,5.9c2.6,2.2,7.4,2.5,10.3,0.6
	c1.8-1.2,3.1-2.9,4-4.9c2.2-4.4,4.3-8.9,6.4-13.3c5.2-10.6,10.4-21.1,15.5-31.7c0.8-1.6,1.9-2.8,3.6-3.5c1.4-0.5,2.9-1,4.3-1.5
	c0.4-0.1,0.6-0.6,0.9-0.9c-0.3-0.1-0.7-0.4-1-0.4C369.7,436.8,364.1,436.8,358.5,436.7 M89.5,467c-1.7,1.5-3.3,3.1-5.5,4
	c-2.1,0.9-4.3,0.4-5.5-1.3c-0.7-1.1-1-2.3-1-3.5v-18.3c0-0.3,0-0.5,0.1-0.9h12.2v-3.5H77.4v-11.3c-5.6,1.6-11.1,3.1-16.6,4.6v6.8
	h-7.4v3.5h7.4v20.1c0,0.9,0.1,1.8,0.2,2.7c0.5,3.5,2.2,5.9,5.5,7.2c2.7,1,5.5,1.4,8.3,1.5c5.9,0.3,11-1.3,14.9-5.8
	c1.3-1.5,2.4-3.2,3.7-4.9c-1.3-0.6-2.4-1-3.5-1.5C89.9,466.5,89.7,466.8,89.5,467 M129.2,467.4c-1.6,1.5-3.2,3-5.3,3.7
	c-2.7,1-5.3-0.3-6-3.1c-0.2-0.7-0.2-1.5-0.2-2.2v-18.9h12.2v-3.5h-12.3V432c-0.3,0.1-0.6,0.1-0.8,0.2c-4.9,1.3-9.8,2.7-14.7,4
	c-0.9,0.2-1.2,0.6-1.1,1.5c0.1,1.8,0,3.7,0,5.6h-7.4v3.5h7.4v1.3c0,6.5-0.1,13,0,19.6c0.1,5.6,2,7.9,6.4,9.4
	c4.5,1.5,9.2,1.8,13.8,0.8c5.8-1.3,9.5-5.3,12.3-10.3c-0.6-0.3-1.2-0.5-1.7-0.7C130.3,466.3,130.4,466.3,129.2,467.4 M225.3,439.8
	c-3-1.7-6.1-2.1-9.3-0.9c-3.4,1.3-6,3.6-8.4,6.2c-0.7,0.8-1.4,1.7-2.1,2.5c-0.1,0-0.1,0-0.2-0.1v-9.1c-0.3,0-0.4,0-0.6,0.1
	c-5.7,0.9-11.4,1.8-17.2,2.7c-1.3,0.2-1.4,0.3-1,1.5c0.8,0.3,1.5,0.4,2.1,0.8c0.9,0.4,1.4,1.2,1.4,2.3v25c0,2.3-1,3.5-3.2,4.2
	c-1.1,0.3-2.1,0.6-3.2,0.8v1.7h30.1c0.2-1.1-0.2-1.7-1.1-1.8c-0.9-0.1-1.9-0.3-2.8-0.5c-3.4-0.9-4.7-2.8-4.6-6c0.1-4,0-8.1,0-12.1
	c0-0.7,0.1-1.4,0.2-2c0.9-4.4,4.3-6.4,8.5-6.9c1.1-0.1,1.8,0.3,2.5,1.1c0.9,1,2,2,3.2,2.7c3.4,1.9,7,0.5,8.1-3
	c0.4-1.4,0.6-2.9,0.5-4.4C228.2,442.5,227.1,440.9,225.3,439.8 M80.6,402c-1,0.5-1.9,1-2.8,1.4c-2.9,1-5.9,1.1-8.9,0.3
	c-2.9-0.7-4.8-2.5-5.5-5.5c-0.2-1.1-0.3-2.2-0.4-3.2c-0.1-1.1-0.4-1.6-1.5-1.6c-1.7-0.1-3.2,0.4-4.1,1.9c-0.5,0.9-1,1.8-1.3,2.8
	c-1.2,4-1.2,8-0.5,12c0.4,2.2,1.2,4.3,3,5.8c3.5,2.9,7.5,3,11.7,2.2c2.2-0.4,3.8-1.9,5.5-3.1c1.8-1.4,3.6-1.7,5.6-0.3
	C80,410.3,80,406.2,80.6,402 M-6.1,357.5c0.1-0.3,0-0.9-0.2-1.1c-1.3-1.5-2.6-3-3.9-4.6c-0.9-1.1-1.9-2.1-2.8-3.2
	c-8.1,8.8-9.9,21.5-6.1,31.6c0.2-0.3,0.4-0.5,0.6-0.7c4.1-4.6,8.2-9.3,12.3-13.9c0.3-0.4,0.3-0.7,0.2-1.2
	C-6.8,362.2-6.8,359.9-6.1,357.5 M81.3,432.1v7.6h1.2c3,0.2,6-0.4,9,0.4c0.1,0,0.3,0,0.4-0.1c0.7-0.1,1.5-0.3,2.2-0.3
	c1-0.1,1.9,0,3,0V437c0-2.1,1-3.4,3.1-4c1.5-0.4,3-0.9,4.6-1.3c-8.5-1.1-15.5-4.7-20.7-11.4c-3.5,4.6-8.1,7.7-13.5,9.7
	c1.9-0.5,3.8-1,5.8-1.5C79,427.7,81.2,429.4,81.3,432.1 M21.1,340.1c-10.1-4-22.6-1.6-30,4.8c2.7,2.2,5.3,4.4,8,6.5
	c0.2,0.2,0.6,0.1,0.9,0c2.3-0.8,4.6-0.8,6.9-0.1c0.3,0.1,0.9,0,1.1-0.2c2.3-1.9,4.5-3.8,6.8-5.7C16.8,343.8,18.9,342,21.1,340.1
	 M91.5,450.4c-1.2,0.1-2.3,0.3-3.5,0.4c-2.2,0.1-4.4,0-6.7,0v15.7c0.1,1.1,0.5,1.3,1.5,0.8c0.4-0.2,0.8-0.4,1.1-0.7
	c1.1-1,2.3-1.9,3.4-3c1-1,2.3-1.6,3.6-1.1c2.3,0.8,4.9,1.2,6.2,3.7v-15.3c-1.9-0.2-3.7-0.4-5.4-0.6
	C91.6,450.3,91.6,450.4,91.5,450.4 M260,470.1v-18.7c0-0.9-0.1-1.7-0.3-2.6c-0.2-0.9-0.8-1.3-1.7-1.2c-1.9,0.1-3.7,0.6-5.2,1.8
	c-0.5,0.4-0.7,0.8-0.7,1.4v19.4c0,0.9,0.3,1.2,1.1,1.4c0.9,0.2,1.7,0.5,2.6,0.8c0.2,0.1,0.5,0,0.7-0.1c0.7-0.2,1.4-0.6,2.2-0.7
	C259.9,471.5,260,471.3,260,470.1 M49.5,446.3v-2.7c0.1-2.6,1.6-4.1,4.2-4.1H57v-2.7c0-2.1,1-3.4,3.1-4c2.7-0.8,5.4-1.5,8.1-2.3
	c-7.4,1.3-14.7,0.8-21.7-2.2c-0.2,2.3-1.3,3.6-3.6,4c2.2,4.7,4.3,9.3,6.4,13.9C49.4,446.3,49.4,446.3,49.5,446.3 M129.4,450.8h-7.8
	v15.7c0,1.2,0.5,1.4,1.5,0.8c1-0.6,1.9-1.4,2.8-2.1c0.3-0.3,0.7-0.6,1-0.9c1.2-1.4,2.6-2.1,4.6-1.7c-0.6-4.4-0.1-8.5,1.3-12.8
	C131.6,450.5,130.5,450.8,129.4,450.8 M304.1,467.3c4.5,1.2,8.9,0.9,13-1.5c1.8-1.1,3.4-2.5,5.2-3.8h-22.5
	C299.9,464.4,301.6,466.6,304.1,467.3 M354.9,452.5c1.5-3.3,3-6.4,4.5-9.6c-2.1-0.1-4,0-5.2-2.1c-1.1,1.8-2.8,2-4.8,2.1
	C351.4,446.1,353.1,449.3,354.9,452.5 M51.1,450.3c1.9,4.2,3.9,8.3,5.9,12.7v-12.2C55,450.5,53,451.1,51.1,450.3 M8.9,404.4
	c-1.3-2.9-2.5-5.8-3.8-8.8c-1.3,3-2.5,5.9-3.8,8.8C1.3,404.4,8.9,404.4,8.9,404.4z M29.8,469.1h7.6c-1.3-2.9-2.5-5.8-3.8-8.7
	C32.3,463.5,31.1,466.3,29.8,469.1 M162.5,445.6c-1.8-1.9-4.4-1.8-5.9,0.2c-0.6,0.7-1,1.6-1.4,2.4c-1.4,3.5-1.7,7.2-1.8,10.9
	c0.2,2,0.3,4,0.5,6c0.3,2,0.8,3.9,2,5.6c1.9,2.6,5.5,2.6,7.3-0.1c0.6-0.9,1.1-1.9,1.3-3c1.4-5.6,1.3-11.3,0.3-17
	C164.4,448.8,163.8,447,162.5,445.6 M108.4,392.4c-3.1,0-6.1,3.8-5.6,7h10.5c0-1.9-0.9-4.3-2-5.6
	C110.5,392.9,109.6,392.4,108.4,392.4 M302,446c-1.4,1.3-1.9,3.1-2.2,4.9h10.4c-0.4-1.3-0.7-2.6-1.3-3.7
	C307.6,444.3,304.3,443.8,302,446"/>
</svg>
