<svg xmlns="http://www.w3.org/2000/svg" width="761" height="504" viewBox="0 0 761 504">
  <defs>
    <style>
      .cls-1 {
        fill: #fff;
        fill-rule: evenodd;
      }
    </style>
  </defs>
  <path class="cls-1" d="M6,217l58,12,57-86,34,5-2,92,57,5,6-222L139,10ZM163,66l2,41-25-5Z"/>
  <path class="cls-1" d="M235,55l49-5-9,129,69-10-10,37L222,223Z"/>
  <path class="cls-1" d="M303,27l94-10,1,28-56,7,1,23,57-6,2,30-57,7,1,24,59-6,1,28-92,11Z"/>
  <path class="cls-1" d="M418,115l18-46,37,30,44-81,45,19-50,94,68,59-28,40-64-55-36,64-48-6,46-90Z"/>
  <path class="cls-1" d="M415,315l46-7,13,129-43,21Z"/>
  <path class="cls-1" d="M494,311l3,153s97.9-21.153,113-73-30.611-77.331-43-79S539.562,302.042,494,311Zm35,35,2,62s42.654-14.216,38-39S529,346,529,346Z"/>
  <path class="cls-1" d="M617,274l11,146s75.7-12.985,106-52,0.858-69.388-14-82S666.919,268.052,617,274Zm43,37,4,59s45.892-11.591,43-36S660,311,660,311Z"/>
  <path class="cls-1" d="M323,334l79-87,36,26-86,89,52,81-36,25-54-79s-15.433,68.209-13,90c-18.989,0-47-4-47-4s28.918-194.663,53-234c34.986-1.167,44,0,44,0S325.726,306.346,323,334Z"/>
</svg>
