<?xml version="1.0" encoding="utf-8"?>
<!-- Generator: Adobe Illustrator 19.0.0, SVG Export Plug-In . SVG Version: 6.00 Build 0)  -->
<svg version="1.1" id="Layer_1" xmlns="http://www.w3.org/2000/svg" xmlns:xlink="http://www.w3.org/1999/xlink" x="0px" y="0px"
	 viewBox="-246.9 365.9 103.8 62.6" style="enable-background:new -246.9 365.9 103.8 62.6;" xml:space="preserve">
<style type="text/css">
	.st0{fill:#FFFFFF;}
</style>
<path class="st0" d="M-231.3,380.9c0,0,1.6-2,5-4.1c0,0,0.1,4,1,7.9c4.7-2.8,3.8-6.6,3.2-7.5c-0.6-0.9-3.9-4.3-13.4,1.6l0.5-5.5
	c6.8-3.2,14.7-2.4,17.5,3.3c2.8,5.7-4.7,12.6-6,13.4c0.4,1.7,3.5,4.3,5,5l-5.2,3.6C-227.7,393.4-230.9,385.9-231.3,380.9
	 M-211.2,391.3c2.4,0.1,9.2-1,13.8-6.8l-3-4.6c-2.1,4.9-6.6,7.5-7.8,6.3c-1-0.9,0.4-5,6.3-7.8l0.1-4.4c-2.4,0.3-6.1,2.3-7.8,3.5
	l-0.3-5c1.4-1.1,4.5-1.4,9.4-1l1.8-5.2c-3.6-0.7-10.4-0.8-16.9,1.7C-216,373.4-215.1,382.5-211.2,391.3 M-239.3,406.8
	c1.7-1.2,6.9-4.4,16.9-4.3l0.2,5.7c-4-0.5-8.5-0.2-10.5,1.9l1.1,4.3c1.8-1.8,4-3.7,7.2-4.3l0.6,3.6c-3.6,1.6-6.5,5.9-4.8,7.6
	c1.7,1.7,6.2-3.6,6.5-6.1l3,3.8c-2.2,4.6-7,8-11.6,9.5C-233.8,425.6-237.8,416.5-239.3,406.8 M-207.4,393.1l0.9,7
	c-2,0.8-7.6,5.4-6.7,6.8s5.6,0.8,7.2,4.3c0.6,1.4-0.3,6.5-7.4,10.7l-4-4.2c2.1-0.8,7.3-3.4,6.3-5.4c-0.8-1.6-6.4,0.1-8.6-3
	C-222.1,406.1-216.6,396.2-207.4,393.1 M-190.8,391.6l0.3,6.3c-5.6,1.6-12,9.1-10.3,12.4c0.7,1,6.3-0.6,9.5-3.9l1.1,4.9
	c-1.7,2.1-8.7,6.5-12,3.5s-3-9-1.5-12.9C-202.3,398-196.8,392.3-190.8,391.6"/>
<path class="st0" d="M-176.5,392.8l0.7-5.6c4.5-1.9,13.5-1.4,15.4,4.3c1.9,5.6-1.8,9.4-6.7,13.3c0,0,0.7,2.7,1.9,4.2l-3.8,3.3
	c-2.2-3.8-4.7-12.4-5.1-17.5c0,0,0.9-1.8,5-3.2c0,0,0.3,4.9,1.1,7.3c2.5-1.3,4.4-4.2,3.6-6.1S-166.7,389.1-176.5,392.8 M-159,385.4
	c2.2-1.4,8.7-3.2,13.5-3.2l-0.3,5.7c-2.7-0.3-5.4,0.1-7.6,1l0.1,4.7c2.5-1.7,4.2-2.5,6.5-3.2v3.6c-3.8,2.3-6.5,5.8-5.6,7.4
	c0.6,1.1,5.3-0.9,6.8-5.2l2.5,4.1c-1.9,3.8-7.9,6.4-11.9,7.7C-156.6,404.3-158.7,392.7-159,385.4"/>
<path class="st0" d="M-241,378.2l-5.9,1.7c-0.1,3.2,0.1,19,2.9,26h5c-1.4-3.2-1.8-7.8-1.8-7.8c3.3-0.4,6.1-2.5,6.1-2.5l2.9,4.9
	l2.6-4.4C-232.5,388.5-238.9,380.3-241,378.2z M-241.7,394.1c-0.5-2.8-0.5-8.7-0.5-8.7c2.5,1.8,5.2,6.4,5.2,6.4
	C-238.1,393.2-241.7,394.1-241.7,394.1z"/>
<path class="st0" d="M-180,390.5c-2.5-1.1-6.5-0.5-6.5-0.5c-1.6,5.7-2.5,19.1-0.9,24.3l3.6,1.6c-0.6-5.4-0.6-8.7-0.6-8.7
	c0.4,0,4.1-0.5,5.3-1.2c1.4,4.2,1.5,7.2,1.5,7.2l3.4-4.1C-174.4,403.2-177.7,394.3-180,390.5z M-184.5,403.4
	c-0.1-2.1,0.2-6.2,0.9-7.7c1.5,1.2,3.2,6.5,3.2,6.5C-181.4,403-183.6,403.5-184.5,403.4z"/>
</svg>
