<?xml version="1.0" encoding="utf-8"?>
<!-- Generator: Adobe Illustrator 19.0.0, SVG Export Plug-In . SVG Version: 6.00 Build 0)  -->
<svg version="1.1" id="svg2" xmlns:svg="http://www.w3.org/2000/svg"
	 xmlns="http://www.w3.org/2000/svg" xmlns:xlink="http://www.w3.org/1999/xlink" x="0px" y="0px" viewBox="-126.3 352 357.5 106.3"
	 style="enable-background:new -126.3 352 357.5 106.3;" xml:space="preserve">
<style type="text/css">
	.st0{clip-path:url(#SVGID_2_);}
	.st1{fill:#FFFFFF;}
</style>
<g id="g11" transform="matrix(1.25,0,0,-1.25,-196.56125,609.25887)">
	<g id="g15">
		<g>
			<defs>
				<rect id="SVGID_1_" x="-174.4" y="-354.8" width="744.1" height="1052.4"/>
			</defs>
			<clipPath id="SVGID_2_">
				<use xlink:href="#SVGID_1_"  style="overflow:visible;"/>
			</clipPath>
			<g id="g17" class="st0">
				<g id="g31" transform="translate(356.5488,415.1709)">
					<path id="path33" class="st1" d="M-100-249.6c-0.1,1.4-0.1,25.3,0,26.7c0.1,1.5,0.6,2.8,3,3.3h-10.7c2.4-0.6,3-1.8,3-3.3
						c0.1-1.4,0.1-25.3,0-26.7c-0.1-1.5-0.7-2.8-3-3.3H-97C-99.4-252.4-99.9-251.1-100-249.6"/>
				</g>
				<g id="g35" transform="translate(391.7461,445.207)">
					<path id="path37" class="st1" d="M-100-249.6c0,0,3.6,0,4-5.2v-18.9c-7.9,7.6-25.7,24.7-25.7,24.7v-28.7
						c-0.4-5.2-4.1-5.2-4-5.2h12.3c0,0-4.6,0.3-4.6,5.8l0,0.4v17.6c1.8-1.9,25.2-23.9,25.7-24.3l0,27.8l0,0.4c0,5.5,4.6,5.7,4.6,5.8
						H-100z"/>
				</g>
				<g id="g39" transform="translate(203.1577,407.3535)">
					<path id="path41" class="st1" d="M-100-249.6l-18.3,45.8l-20.1-50.1c-1.4-3.4-7.2-4-7.1-4.1h11l14.6,38.9l14.6-38.9h14.8
						C-90.4-257.9-96.2-257.7-100-249.6"/>
				</g>
				<g id="g43" transform="translate(286.5151,417.4238)">
					<path id="path45" class="st1" d="M-100-249.6l-12.2,30.6l-13.5-33.5c-0.9-2.3-4.8-2.7-4.8-2.7h7.4l9.8,26l9.8-26h9.9
						C-93.6-255.2-97.4-255-100-249.6"/>
				</g>
				<g id="g47" transform="translate(408.373,438.1533)">
					<path id="path49" class="st1" d="M-100-249.6c-0.2,1.4-1.1,7.6,4.3,11.7c-2.1,0.8-0.4,3.6-0.4,3.6S-102.2-238.9-100-249.6"/>
				</g>
				<path id="path51" class="st1" d="M95.6,163.3H69.8V161h25.8V163.3z"/>
				<path id="path53" class="st1" d="M182.1,172.6h-17.2v-1.4h17.2V172.6z"/>
				<g id="g55" transform="translate(213.1738,375.1885)">
					<path id="path57" class="st1" d="M-100-249.6c-2.9,2.6-3.7,5.9-3.7,8.8c0,2,0.6,5.5,3.5,8.1c2.1,2,5,3.1,9.4,3.1
						c1.8,0,2.9-0.1,4.3-0.3c1.1-0.1,2.1-0.4,3-0.5c0.3,0,0.4-0.2,0.4-0.4c0-0.2-0.1-0.6-0.1-1.6c-0.1-1,0-2.6-0.1-3.2
						c0-0.4-0.1-0.7-0.4-0.7c-0.2,0-0.3,0.2-0.3,0.7c0,0.9-0.4,2-1.2,2.7c-1,1-3.3,1.8-6,1.8c-2.6,0-4.3-0.7-5.6-1.8
						c-2.2-2-2.7-4.8-2.7-7.7c0-7.1,5.4-10.6,9.3-10.6c2.6,0,4.2,0.3,5.4,1.7c0.5,0.6,0.9,1.4,1,2c0.1,0.5,0.1,0.6,0.4,0.6
						c0.2,0,0.3-0.2,0.3-0.4c0-0.4-0.4-2.9-0.7-3.9c-0.1-0.5-0.3-0.7-0.8-0.9c-1.2-0.5-3.4-0.7-5.3-0.7
						C-93.9-252.8-97.3-251.9-100-249.6"/>
				</g>
				<g id="g59" transform="translate(257.7588,383.8506)">
					<path id="path61" class="st1" d="M-100-249.6c0-0.3,0.1-0.4,0.3-0.5c0.6-0.2,1.5-0.3,2.3-0.3c1.2,0,1.6,0.1,2.1,0.5
						c0.9,0.7,1.8,2,1.8,4.4c0,4.2-2.8,5.4-4.5,5.4c-0.7,0-1.3,0-1.6-0.1c-0.2-0.1-0.3-0.2-0.3-0.4V-249.6z M-103.5-247.3
						c0,4.5,0,5.3-0.1,6.3c-0.1,1-0.3,1.5-1.3,1.7c-0.2,0.1-0.7,0.1-1.2,0.1c-0.3,0-0.5,0.1-0.5,0.3c0,0.2,0.2,0.3,0.7,0.3
						c1.6,0,3.4-0.1,4.1-0.1c1,0,3.3,0.1,4.2,0.1c1.9,0,3.9-0.2,5.5-1.3c0.8-0.6,2-2.1,2-4.1c0-2.2-0.9-4.2-3.9-6.6
						c2.6-3.3,4.7-6,6.4-7.8c1.7-1.7,2.9-1.9,3.3-2c0.3-0.1,0.6-0.1,0.8-0.1c0.2,0,0.4-0.1,0.4-0.2c0-0.2-0.2-0.3-0.6-0.3h-2.8
						c-1.7,0-2.4,0.1-3.2,0.6c-1.3,0.7-2.4,2.1-4.1,4.4c-1.2,1.6-2.6,3.7-2.9,4.1c-0.1,0.2-0.3,0.2-0.5,0.2l-2.6,0.1
						c-0.1,0-0.2-0.1-0.2-0.2v-0.4c0-2.8,0-5.1,0.1-6.3c0.1-0.9,0.3-1.5,1.2-1.6c0.4-0.1,1.1-0.1,1.5-0.1c0.2,0,0.4-0.1,0.4-0.2
						c0-0.2-0.2-0.3-0.6-0.3c-1.7,0-3.9,0.1-4.4,0.1c-0.6,0-2.4-0.1-3.6-0.1c-0.4,0-0.6,0.1-0.6,0.3c0,0.1,0.1,0.2,0.5,0.2
						c0.4,0,0.8,0.1,1.1,0.1c0.6,0.1,0.7,0.8,0.9,1.6c0.1,1.2,0.1,3.6,0.1,6.3V-247.3z"/>
				</g>
				<g id="g63" transform="translate(294.4531,386.1943)">
					<path id="path65" class="st1" d="M-100-249.6c0,4.5,0,5.3-0.1,6.3c-0.1,1-0.3,1.5-1.3,1.7c-0.2,0.1-0.7,0.1-1.2,0.1
						c-0.3,0-0.5,0.1-0.5,0.3c0,0.2,0.2,0.3,0.7,0.3c0.8,0,1.7,0,2.4,0c0.8,0,1.5-0.1,1.9-0.1c0.9,0,6.9,0,7.4,0
						c0.6,0.1,1,0.1,1.3,0.2c0.1,0,0.3,0.1,0.5,0.1c0.2,0,0.2-0.1,0.2-0.3c0-0.2-0.1-0.6-0.2-1.9c0-0.3-0.1-1.6-0.1-2
						c0-0.1-0.1-0.3-0.3-0.3c-0.2,0-0.3,0.1-0.3,0.4c0,0.2,0,0.7-0.2,1.1c-0.2,0.5-0.5,0.9-2,1.1c-0.5,0.1-3.6,0.1-4.2,0.1
						c-0.1,0-0.2-0.1-0.2-0.3v-7.5c0-0.2,0-0.3,0.2-0.3c0.7,0,4.1,0,4.7,0.1c0.7,0.1,1.2,0.1,1.4,0.4c0.2,0.2,0.3,0.4,0.5,0.4
						c0.1,0,0.2-0.1,0.2-0.2c0-0.2-0.1-0.7-0.2-2.2c0-0.6-0.1-1.8-0.1-2c0-0.2,0-0.6-0.3-0.6c-0.2,0-0.3,0.1-0.3,0.3
						c0,0.3,0,0.7-0.1,1.1c-0.1,0.6-0.6,1-1.7,1.2c-0.6,0.1-3.5,0.1-4.2,0.1c-0.1,0-0.2-0.1-0.2-0.3v-2.3c0-1,0-3.7,0-4.6
						c0.1-2,0.5-2.5,3.6-2.5c0.8,0,2,0,2.8,0.4c0.8,0.4,1.1,1,1.3,2.2c0.1,0.3,0.1,0.4,0.3,0.4c0.2,0,0.2-0.2,0.2-0.5
						c0-0.7-0.2-2.7-0.4-3.3c-0.2-0.8-0.5-0.8-1.6-0.8c-2.2,0-3.9,0.1-5.1,0.1c-1.3,0.1-2.2,0.1-3.1,0.1c-0.3,0-1,0-1.7,0
						c-0.7,0-1.5-0.1-2-0.1c-0.4,0-0.6,0.1-0.6,0.3c0,0.1,0.1,0.2,0.5,0.2c0.4,0,0.8,0.1,1.1,0.1c0.6,0.1,0.7,0.8,0.9,1.6
						c0.1,1.2,0.1,3.6,0.1,6.3V-249.6z"/>
				</g>
				<g id="g67" transform="translate(331,386.1943)">
					<path id="path69" class="st1" d="M-100-249.6c0,4.5,0,5.3-0.1,6.3c-0.1,1-0.3,1.5-1.3,1.7c-0.2,0.1-0.7,0.1-1.2,0.1
						c-0.3,0-0.5,0.1-0.5,0.3c0,0.2,0.2,0.3,0.7,0.3c0.8,0,1.7,0,2.4,0c0.8,0,1.5-0.1,1.9-0.1c0.9,0,6.9,0,7.4,0
						c0.6,0.1,1,0.1,1.3,0.2c0.1,0,0.3,0.1,0.5,0.1c0.1,0,0.2-0.1,0.2-0.3c0-0.2-0.1-0.6-0.2-1.9c0-0.3-0.1-1.6-0.1-2
						c0-0.1-0.1-0.3-0.3-0.3c-0.2,0-0.3,0.1-0.3,0.4c0,0.2,0,0.7-0.2,1.1c-0.2,0.5-0.5,0.9-2,1.1c-0.5,0.1-3.6,0.1-4.2,0.1
						c-0.1,0-0.2-0.1-0.2-0.3v-7.5c0-0.2,0-0.3,0.2-0.3c0.7,0,4.1,0,4.7,0.1c0.7,0.1,1.2,0.1,1.4,0.4c0.2,0.2,0.3,0.4,0.5,0.4
						c0.1,0,0.2-0.1,0.2-0.2c0-0.2-0.1-0.7-0.2-2.2c0-0.6-0.1-1.8-0.1-2c0-0.2,0-0.6-0.3-0.6c-0.2,0-0.3,0.1-0.3,0.3
						c0,0.3,0,0.7-0.1,1.1c-0.1,0.6-0.6,1-1.7,1.2c-0.6,0.1-3.5,0.1-4.2,0.1c-0.2,0-0.2-0.1-0.2-0.3v-2.3c0-1,0-3.7,0-4.6
						c0.1-2,0.5-2.5,3.6-2.5c0.8,0,2,0,2.8,0.4c0.8,0.4,1.1,1,1.3,2.2c0.1,0.3,0.1,0.4,0.3,0.4c0.2,0,0.2-0.2,0.2-0.5
						c0-0.7-0.2-2.7-0.4-3.3c-0.2-0.8-0.5-0.8-1.6-0.8c-2.2,0-3.9,0.1-5.1,0.1c-1.3,0.1-2.2,0.1-3.1,0.1c-0.3,0-1,0-1.7,0
						c-0.7,0-1.5-0.1-2-0.1c-0.4,0-0.6,0.1-0.6,0.3c0,0.1,0.1,0.2,0.5,0.2c0.4,0,0.8,0.1,1.1,0.1c0.6,0.1,0.7,0.8,0.9,1.6
						c0.1,1.2,0.1,3.6,0.1,6.3V-249.6z"/>
				</g>
				<g id="g71" transform="translate(371.2539,382.9316)">
					<path id="path73" class="st1" d="M-100-249.6c0-3.1,0-5.4,0.1-6c0-0.7,0.1-1.9,0.3-2.3c0.4-0.6,1.5-1.2,3.9-1.2
						c3,0,5,0.6,6.8,2.1c1.9,1.6,2.5,4.3,2.5,7.4c0,3.8-1.6,6.2-2.8,7.4c-2.7,2.6-6.1,3-8.4,3c-0.6,0-1.7-0.1-1.9-0.2
						c-0.3-0.1-0.4-0.3-0.4-0.6c0-1,0-3.6,0-5.9V-249.6z M-103.7-246.3c0,4.5,0,5.3-0.1,6.3c-0.1,1-0.3,1.5-1.3,1.7
						c-0.2,0.1-0.7,0.1-1.2,0.1c-0.3,0-0.5,0.1-0.5,0.3c0,0.2,0.2,0.3,0.7,0.3c1.6,0,3.4-0.1,4.3-0.1c0.9,0,2.8,0.1,4.6,0.1
						c3.7,0,8.7,0,11.9-3.4c1.5-1.5,2.9-4,2.9-7.5c0-3.7-1.6-6.6-3.2-8.3c-1.4-1.4-4.5-3.5-9.9-3.5c-1.1,0-2.3,0.1-3.4,0.2
						c-1.1,0.1-2.2,0.2-2.9,0.2c-0.3,0-1,0-1.7,0c-0.7,0-1.5-0.1-2-0.1c-0.4,0-0.6,0.1-0.6,0.3c0,0.1,0.1,0.2,0.5,0.2
						c0.4,0,0.8,0.1,1.1,0.1c0.6,0.1,0.7,0.8,0.9,1.6c0.1,1.2,0.1,3.6,0.1,6.3V-246.3z"/>
				</g>
				<g id="g75" transform="translate(429.5156,429.46)">
					<path id="path77" class="st1" d="M-100-249.6l-1.9,1.5c-5.8,4.6-7.4,7.2-7.4,10.6c0,4.4,3.1,7.7,8.3,7.6
						c8.6-0.3,10.4-9.7,10.5-9.6v11.6c-0.1,0-0.2,0.1-0.4,0.1c-1.8,0.5-4.7,1.3-9.2,1.3c-9.6,0-16-5.8-16-13.9
						c0-6,3.4-10.2,11.1-16.6l0.1-0.1l1.9-1.5c5.8-4.6,7.4-7.2,7.4-10.6c0-4.4-3.1-7.6-8.3-7.6c-9.7,0-12.9,9.9-13,9.8v-11.6
						c0.1,0,0.2-0.1,0.4-0.1c1.8-0.5,7.2-1.5,11.7-1.5c9.6,0,16,5.8,16,13.9C-88.8-260.3-92.4-255.9-100-249.6"/>
				</g>
				<g id="g79" transform="translate(333.0957,431.1758)">
					<path id="path81" class="st1" d="M-100-249.6l-1.3,1c-3.7,3-4.8,4.7-4.8,6.8c0,2.9,2,5,5.3,4.9c5.6-0.2,6.7-6.3,6.8-6.2v7.5
						c-0.1,0-0.1,0.1-0.2,0.1c-1.2,0.3-3,0.8-6,0.8c-6.2,0-10.4-3.8-10.4-9c0-3.9,2.2-6.6,7.2-10.7l0.1-0.1l1.3-1
						c3.7-3,4.8-4.7,4.8-6.8c0-2.9-2-4.9-5.3-4.9c-6.3,0-8.3,6.4-8.4,6.3v-7.5c0.1,0,0.2-0.1,0.2-0.1c1.2-0.3,4.7-1,7.6-1
						c6.2,0,10.4,3.8,10.4,9C-92.8-256.5-95.1-253.7-100-249.6"/>
				</g>
				<g id="g83" transform="translate(307.9434,431.1758)">
					<path id="path85" class="st1" d="M-100-249.6l-1.3,1c-3.7,3-4.8,4.7-4.8,6.8c0,2.9,2,5,5.3,4.9c5.6-0.2,6.7-6.3,6.8-6.2v7.5
						c-0.1,0-0.1,0.1-0.2,0.1c-1.2,0.3-3,0.8-6,0.8c-6.2,0-10.4-3.8-10.4-9c0-3.9,2.2-6.6,7.2-10.7l0.1-0.1l1.3-1
						c3.7-3,4.8-4.7,4.8-6.8c0-2.9-2-4.9-5.3-4.9c-6.3,0-8.3,6.4-8.4,6.3v-7.5c0.1,0,0.1-0.1,0.2-0.1c1.2-0.3,4.7-1,7.6-1
						c6.2,0,10.4,3.8,10.4,9C-92.8-256.5-95.1-253.7-100-249.6"/>
				</g>
				<g id="g87" transform="translate(246.2202,431.1758)">
					<path id="path89" class="st1" d="M-100-249.6l-1.3,1c-3.7,3-4.8,4.7-4.8,6.8c0,2.9,2,5,5.3,4.9c5.6-0.2,6.7-6.3,6.8-6.2v7.5
						c-0.1,0-0.1,0.1-0.2,0.1c-1.2,0.3-3,0.8-6,0.8c-6.2,0-10.4-3.8-10.4-9c0-3.9,2.2-6.6,7.2-10.7l0.1-0.1l1.3-1
						c3.7-3,4.8-4.7,4.8-6.8c0-2.9-2-4.9-5.3-4.9c-6.3,0-8.3,6.4-8.4,6.3v-7.5c0.1,0,0.1-0.1,0.2-0.1c1.2-0.3,4.7-1,7.6-1
						c6.2,0,10.4,3.8,10.4,9C-92.8-256.5-95.1-253.7-100-249.6"/>
				</g>
				<g id="g91" transform="translate(221.0684,431.1758)">
					<path id="path93" class="st1" d="M-100-249.6l-1.3,1c-3.7,3-4.8,4.7-4.8,6.8c0,2.9,2,5,5.3,4.9c5.6-0.2,6.7-6.3,6.8-6.2v7.5
						c-0.1,0-0.1,0.1-0.2,0.1c-1.2,0.3-3,0.8-6,0.8c-6.2,0-10.4-3.8-10.4-9c0-3.9,2.2-6.6,7.2-10.7l0.1-0.1l1.3-1
						c3.7-3,4.8-4.7,4.8-6.8c0-2.9-2-4.9-5.3-4.9c-6.3,0-8.3,6.4-8.4,6.3v-7.5c0.1,0,0.1-0.1,0.2-0.1c1.2-0.3,4.7-1,7.6-1
						c6.2,0,10.4,3.8,10.4,9C-92.8-256.5-95.1-253.7-100-249.6"/>
				</g>
			</g>
		</g>
	</g>
</g>
</svg>
