<?xml version="1.0" encoding="utf-8"?>
<!-- Generator: Adobe Illustrator 19.0.0, SVG Export Plug-In . SVG Version: 6.00 Build 0)  -->
<svg version="1.1" id="Layer_1" xmlns="http://www.w3.org/2000/svg" xmlns:xlink="http://www.w3.org/1999/xlink" x="0px" y="0px"
	 viewBox="0 0 1172 475" style="enable-background:new 0 0 1172 475;" xml:space="preserve">
<style type="text/css">
	.st0{fill:#FFFFFF;}
</style>
<g>
	<path class="st0" d="M391.2,229.9c22.8,0,45.6-0.1,68.5,0.1c4.4,0,8.8,1.3,13.2,2.1c12.1,2,24.3,3.9,36.4,6.1c8.1,1.5,8.7,4,4,10.6
		c-8.2,11.3-16.2,22.8-24.2,34.3c-4.3,6.2-4.9,6.5-11.7,3.1c-13.8-7-27.3-14.8-41.5-20.9c-11.5-5-23.8-8.6-36-11.7
		c-18.6-4.7-36.7-0.7-54.3,5.9c-5.4,2-10.7,4.5-16,7.1c-23,11.1-41.1,28.1-51.2,51.3c-16.5,37.6-10.7,70.3,17.4,101.8
		c15.7,17.6,36.7,27.3,60.1,28.1c22.4,0.8,44.5-3.6,61.5-20.1c10.9-10.7,19.1-23.4,16.7-39.9c-1.2-8.3-5.8-14.8-12.9-19.4
		c-16.1-10.5-48.1-12.3-63.6,3.4c-2.4,2.4-5.5,4.4-8.6,5.9c-1.6,0.8-4.7,1-5.8,0c-1.1-1-1.3-4-0.7-5.7c7.9-22,22.8-36.8,44.8-45
		c15.9-5.9,32-8.2,48.5-5.1c27.9,5.1,49.2,20,58.4,47.2c6.3,18.6,6.2,38.2-6.1,55.6c-8.5,12.1-18.9,22.4-31.2,30.6
		c-13.7,9.2-29.5,11.2-45.4,11.9c-19.5,0.8-39,0.2-58.4,0.8c-20.9,0.7-41.7-1.1-62.3-3.8c-9.7-1.3-19.3-5.1-28.3-9.1
		c-20.4-9.1-36.6-23.5-44.5-44.7c-4.3-11.7-6.3-24.5-7.4-37c-2.4-26,0.4-51.6,11.8-75.6c12.5-26.4,31.9-46,58.7-58.2
		c15.6-7.1,32-9.9,49-9.8c20.3,0.2,40.7,0,61,0C391.2,229.7,391.2,229.8,391.2,229.9z M220.5,337.4c0,11.8-0.6,23.6,0.1,35.2
		c0.9,15.7,3.6,31.3,12.6,44.6c3.6,5.4,8.8,9.7,13.6,14.2c3.7,3.5,7.6,7.2,12.1,9.3c9.9,4.6,20.3,8.3,30.5,12.4
		c5.5,2.2,10.9,5.6,16.6,6.5c26.1,4,52.4,4.1,78.7,2.7c6.8-0.4,13.8-2.1,20.4-1.1c12.1,1.9,23.5-0.6,34.8-3.7
		c19.2-5.4,32.1-19,43.8-34.1c9-11.5,11.8-24.8,9.9-39.1c-0.3-2.1-1-4.1-1.6-6.1c-0.4,0.1-0.9,0.2-1.3,0.2c0,2,0.1,3.9,0,5.9
		c-0.1,3.8-0.2,7.6-0.6,11.4c-0.3,2.7-1.5,4.4-4.7,3.1c-0.9-0.4-2.2-0.1-4.7-0.1c0-5.8-0.3-11.6,0.1-17.3c0.4-5.7-1.5-10.5-5.3-14.6
		c-4.1-4.3-8.2-8.7-12.5-12.7c-18.8-17.7-41.2-19.5-65-14.1c-4.7,1.1-9.5,1.8-13.9,3.5c-3.9,1.6-7.3,4.4-11,6.6
		c0.4,0.8,0.8,1.7,1.2,2.5c4.9-8.9,14.1-4.9,20.4-7.9c1,0.7,2,1.8,3.1,2c8,1.5,16,2.1,23.5,6.4c26.1,14.8,30,34.5,24.8,56.6
		c-4,17.1-15.5,29.8-29.6,40.1c-11.7,8.5-25.8,8.6-39.1,9.4c-16,0.9-32.2-0.6-48.2-1.4c-6.3-0.3-13.3,0.3-18.6-2.2
		c-8.9-4.2-17.3-10-24.8-16.4c-8.2-7-15.7-15-20.5-25.1c-1.3-2.7-3.5-6-6.7-1.4c-0.4-4.4,0.2-9-1.2-12.9c-3.5-9.5-6.9-19-8-29.2
		c-0.2-2.3-0.7-4.7-0.9-5.9c2.1,0.4,3.5,0.9,4.8,0.8c1.3-0.1,2.5-1.1,3.8-1.5c3.8-0.9,10.3-7.4,9.5-10.7c-1.3-5.9,0.4-11.3,2.1-16.6
		c3.4-10.9,5.6-23,12-32c16.3-22.5,36.5-41.1,64-49.8c4.2-1.3,8.2-3.2,12.3-4.9c-0.1-0.4-0.2-0.9-0.2-1.3c-1.5,0-3.2-0.4-4.5,0.1
		c-8.9,3.6-17.8,7.3-26.7,11.1c-21.1,9-36,25.3-49.8,42.7c-1.7,2.2-2.4,5.2-4,8.7c-0.8-0.8-2.4-1.7-2.9-3c-1.9-4.5-4.5-9.2-0.2-13.8
		c6.8-7.3,13.2-15,20.6-21.7c7.9-7.2,16.7-13.5,25.3-20.3c-0.5-0.4-1.3-0.9-1.9-1.6c-0.8-0.9-1.2-2.1-2.1-2.7
		c-1-0.7-2.5-1.5-3.6-1.3c-25.2,4.2-45.4,16.9-61.6,36.4c-8.4,10.2-14.1,22-18.5,34.5c-0.5,1.3-1.3,3.3-2.3,3.6
		c-9.3,2.3-6.9,10.4-9.3,17C217.5,337.9,219.1,337.6,220.5,337.4z M490,250.9c-6.3-1-11.1-2.1-16.1-2.6c-8.7-0.9-17.5-1.5-26.3-2.2
		c-3.1-0.3-6.2-0.6-9.3-1.2c-10.8-1.9-21.6-5.5-32.3-5.5c-26,0-51.9,1.5-77.9,2.8c-5.3,0.3-10.5,2.5-16.7,4.1
		c6.1,6.1,11.2,4.5,16.7,2.1c4-1.7,8.4-3.4,12.7-3.5c23.1-0.5,46.3-0.8,69.4-0.5c13.8,0.2,27,3.3,39.2,10.2
		c6.5,3.7,13.4,6.6,20,10.3c3.5,2,7.1,1.4,9.3-0.6C482.8,260.6,485.9,255.9,490,250.9z M476.1,346c-3.5,2.3-5.5,3.6-8.7,5.6
		c3.7,1.6,6.8,2.9,9.9,4.3c0.4-0.3,0.9-0.7,1.3-1C477.7,352,476.9,349.1,476.1,346z M365.6,234.5c0,0.2,0,0.4,0.1,0.6
		c9,0,18.1,0,27.1,0c0-0.2,0-0.4,0-0.6C383.7,234.5,374.7,234.5,365.6,234.5z M358.8,363.8c6.4-2.5,12.8-5.1,19.1-7.6
		C370.3,355.3,364.2,358.7,358.8,363.8z M487.5,367.3c0.5-0.3,0.9-0.6,1.4-0.8c-1.7-2.7-3.5-5.4-5.2-8.1c-0.5,0.3-1,0.6-1.5,1
		C484,362,485.8,364.6,487.5,367.3z"/>
	<path class="st0" d="M160.3,266.4c-16.4-0.8-28.4-1.5-40.4-2c-3.8-0.2-7.6,0.4-11.5,0.4c-16.9,0-33.9-0.2-50.8,0.1
		c-6.6,0.1-13.2,1.2-19.9,1.7c-7.1,0.5-14.3,0.9-21.4,1.1c-3.8,0.1-5.9-2-5.8-5.9c0-2.1,0.1-4.4,0.8-6.4c8.7-25,11.4-50.9,12.1-77.2
		c0.7-26.4,2.2-52.9,2.3-79.3c0.1-21.4-1-42.9-1.9-64.3c-0.2-3.7-2.1-7.6-4-11c-2.5-4.6-1.4-7.3,3.9-7.7c18.9-1.3,37.9-2.6,56.8-4
		c4.2-0.3,5.6,1.8,6.1,5.5c1.3,10.6,1.4,10.8,11.5,7.2c18.8-6.7,38.2-10,58.2-10.6c11.8-0.4,23.6-2.4,35.3-2.6
		c13.1-0.1,26.1,2.1,37.7,8.3c20.9,11.2,33,27.9,34.3,52.8c1,19.2-7.6,32.6-20.5,44.9c-13.5,13-29.6,20.7-47.5,25.2
		c-2.2,0.6-4.2,2.1-6.3,3.2c2.2,1.2,4.3,2.8,6.6,3.5c10.5,3.2,21.2,5.7,30.1,12.9c25.2,20.5,24.9,59.1-0.7,79.1
		c-11.1,8.7-22.2,17.6-36,20.9C178.6,265,167.2,265.5,160.3,266.4z M122.9,25.8c0.2,0.4,0.5,0.9,0.7,1.3c0.6,0.1,1.3,0.4,1.9,0.2
		c14.5-4,29.3-1.7,44-2.5c3.7-0.2,8.2,0,11,2c7.6,5.4,14.8,11.2,18.7,20.6c5.8,14.2,8.8,28.3,3.5,43.1c-3.8,10.7-9,20.9-17.5,28.7
		c-6.7,6.1-14.6,11.1-21.7,16.8c-7.6,6-16.3,2.9-24.6,3.5c0.4-0.4,0.9-0.8,0.4-0.4c-12.7,1.2-26,2.6-39.3,3.8
		c-13.3,1.2-26.7,2.4-40.2,3.6c-0.6-6,4.7-12.5-4.8-15.7c1.7-9.9,3-20.2,5.4-30.1c4.7-19.1,12.9-36.6,26.9-50.9
		c2.9-3,5.4-5.8,3.8-10.4c-0.2-0.5,0.5-1.4,1.3-3.1c0.7,2.8,1.1,4.5,1.6,6.9c1.6-2.3,2.8-4,4.8-6.8c-2.2-0.6-4.3-1.9-6-1.6
		c-4,0.9-7.9,2.4-11.8,3.9c-8.5,3.2-10.5,2.9-13.9-5.3C64.8,28,63,23.7,56,27c-0.8,0.4-1.9-0.4-2.9-0.3c-6.6,0.4-13.3,0.9-19.6,1.4
		c2.2,33.2,3.1,65.6-0.7,98.7c-0.6-2-1-3.2-1.4-4.4c-0.5,0.1-1,0.1-1.5,0.2c0,14.6,0,29.2,0,43.9c0.8-1.2,1.5-2.2,2.7-4.1
		c-0.6,15.9-0.5,30.9-2,45.7c-1.5,14.8-4.6,29.3-7,44.3c2.8-0.3,5.5-0.9,8.2-0.7c10.7,0.8,21.4,2,32.2,2.7c16.9,1.2,33.8,2.3,50.7,3
		c15.1,0.6,30.1-0.1,44.9-4.2c16.9-4.7,32.8-10.7,47.1-21.5c14.7-11.1,20.5-30.7,13.8-45.5c-1.9-4.3-3-9.6,2.2-13.4
		c1.3-0.9,2.2-2.4,4.1-4.5c-3.3-2-6.3-3.9-9.4-5.3c-0.7-0.3-3.1,1.2-3.4,2.3c-1.4,5.3-2.7,6.1-8,4.5c-6.7-2.1-13.5-3.7-20-6.2
		c-6.4-2.5-15.3-3-14.1-13.7c0.1-0.6-2.2-1.5-3.4-2.2c-3.8-7.3-3.4-8.7,3.8-13.2c1.8-1.1,3.4-2.7,5.2-3.8c2.1-1.3,4.2-2.9,6.5-3.4
		c14.8-3.1,28.1-9.4,39.3-19.5c10.4-9.3,18.6-19.2,19.3-34.9c0.8-16.8-13-37.3-27.6-42.6c-7-2.5-14.4-4-21.7-5.5
		c-10.7-2.3-21.4-5.1-32.5-3.9c-3.6,0.4-7.2,0.8-10.9,1.1c-7.9,0.6-15.8,0.9-23.6,1.6C125.2,23.6,124.1,25,122.9,25.8z M99.6,138.3
		c14.5,0.4,29.3-2.7,44.3-6.6c18.1-4.7,32.4-13.9,42.4-30c9-14.5,12.6-28.6,4.8-45.2c-6-12.6-29.3-25.9-45.9-19.2
		c-16.5,6.6-30.7,16.1-42,29.6C86.9,86,81.7,109.3,78.8,133.4c-0.4,3.4,1.6,4.9,4.8,4.9C88.6,138.3,93.6,138.3,99.6,138.3z
		 M132.5,38.2c-0.2-0.6-0.4-1.2-0.6-1.8c-2.1,0.5-4.3,0.6-6.2,1.5c-3.2,1.6-6.1,4-9.4,5.6c-9,4.4-16,11-22.2,18.6
		C86,72.1,81.9,83.7,79.4,96c-2,9.7-4,19.5-5.8,29.2c-0.3,1.7,0,3.5,0,5.2c0.5,0,1.1,0.1,1.6,0.1c3.8-18.4,6.6-37.2,16.6-53.6
		C101.9,60.5,116.2,48.3,132.5,38.2z M258.3,77.6c-0.7,4.4-0.4,9.2-2.1,13.1c-8.2,17.7-22,29.7-39.8,36.9c-3.8,1.6-9,5-12.8-1.1
		c-0.3-0.4-1.7-0.6-2.4-0.3c-5.2,1.7-10.4,3.6-15.6,5.4c0,0.4,0,0.8,0,1.1c3.1,0.5,6.2,1,9.3,1.5c0.7,0.7,1.4,1.4,2,2.1
		c-1.6,0.9-3.2,1.9-4.3,2.6c0.3,0,1.5,0.1,2.6,0c1.3-0.2,2.6-0.6,3.9-0.9c22.3-5.3,39.7-18,53.4-35.9
		C257.8,95,260.8,86.9,258.3,77.6z M78,143.1c0.2-0.5,0.4-0.9,0.6-1.4c-2.9-1.4-6.3-2.3-8.5-4.5c-2.8-2.8-3.7-2-4.6,1
		c-0.5,1.5-0.9,3-1.6,5.4C69.1,143.5,73.5,143.3,78,143.1z M100.6,35.9c7.8-3.2,14.7-6,21.5-8.8C116.5,25.1,101.8,31.3,100.6,35.9z
		 M135.1,34.1c0.2,0.9,0.5,1.8,0.7,2.8c4.3-1.4,8.5-2.9,12.8-4.3c-0.2-0.6-0.4-1.2-0.6-1.8C143.7,31.9,139.4,33,135.1,34.1z
		 M238.3,213.7c0.4,0,0.9,0.1,1.3,0.1c0.5-3.8,0.9-7.6,1.4-11.4c-0.5-0.1-1-0.1-1.6-0.2C239,206.1,238.7,209.9,238.3,213.7z
		 M206.7,19.1c0-0.5,0-0.9,0-0.9c-3.7-0.5-7.3-0.9-11-1.4c0,0.5-0.1,1-0.1,1.5C199.3,18.6,203,18.8,206.7,19.1z M61.9,113.2
		c-0.6,0-1.2,0-1.8-0.1c0,2.4,0,4.7,0,7.1c0.5,0,0.9,0,1.4,0C61.6,117.9,61.8,115.5,61.9,113.2z M73.4,105.5
		c-0.4-0.1-0.8-0.1-1.2-0.2c-0.6,3.5-1.2,7.1-1.8,10.6c0.5,0.1,1,0.2,1.6,0.2C72.4,112.7,72.9,109.1,73.4,105.5z"/>
	<path class="st0" d="M694.7,115.6c-4.4,1.1-8.8,2.3-13.2,3.3c-6,1.5-7.9-0.2-6.5-6.3c1.1-4.9,2.6-9.7,4.2-14.4
		c1.3-3.7,3.6-6.3,8.2-5.7c26.7,3.5,53.2,0.3,79.7-2.1c2.8-0.3,5.7-0.9,8.4-0.6c2.2,0.2,4.2,1.7,6.3,2.6c-1.3,1.8-2.2,4.2-3.9,5.2
		c-7.3,4.3-14.7,8.5-22.4,12.2c-16,7.8-28.6,18.7-35,35.8c-5.7,15.1,0.4,35.2,14,43.9c11.2,7.3,21.8,3.3,31.8-3
		c13.1-8.3,20.2-20.8,24.7-35.2c4.8-15.3,4.1-30.9,2.4-46.5c-0.1-0.5-0.1-1-0.2-1.5c-1.1-11.3-0.8-11.1,10.4-11.5
		c9.4-0.4,18.8-2,28.1-3.5c7.3-1.2,9.2,0.2,7.4,7.3c-7.1,28.7-10,57.8-8.4,87.2c0.4,7.7,3.3,15.5,5.8,22.9c1.8,5.2,0.9,7.3-4.6,7.2
		c-11.8-0.2-23.6-0.5-35.4-0.5c-4.7,0-6.9-1.6-6.5-6.4c0.4-4.2-1.5-4.4-5.2-3.6c-9.7,2.1-19.5,3.6-29.3,5.6
		c-6.5,1.3-12.8,3.7-19.3,4.6c-12.4,1.9-25,3.5-36.6-3c-15.6-8.8-23.3-22.7-23.3-40.3c0-9.4,1.3-18.9,3.1-28.2
		c1.9-10,8.5-17.5,15.6-24.4C695.1,116.5,694.9,116,694.7,115.6z M709,120c1-1.5,2-2.9,3-4.4c2.1-3.3,2-5.1,0.6-6.4
		c-2.5,4-5.1,8.2-7.7,12.4c-1.3,1.1-2.5,2.2-3.8,3.3c-12.4,7.9-13.4,21-14.7,34c0.7-0.7,1.4-1.5,2.3-2.4c0,3.8-0.1,7.5,0,11.1
		c0.7,18.8,13.4,34.1,31.4,35.5c11.6,0.9,23.5-1,35.2-1.6c7.5,1.8,14.9-0.3,22.3-0.9c4-0.4,9.6-1.4,11.3-4.2
		c3.8-5.9,9.2-4.5,14.1-6.2c0.3,2.5,0.1,4.6,0.9,6.3c0.6,1.3,2.3,3,3.5,3c4.8,0,9.5-0.6,14.1-0.9c0-11.6-0.3-23,0.1-34.4
		c0.2-6.7,1.5-13.3,2.3-19.9c0.3-2.5,0.8-5,0.7-7.5c-0.1-2.5-1.4-5.1-1.2-7.6c0.5-5.3,1.8-10.5,2.6-15.7c0.6-3.8,1-7.7,1.6-11.8
		c-4.6,0.3-8.2,0.8-11.9,0.7c-8.4-0.2-9.3,0.6-8.6,8.9c0.1,1,0.4,2,0.5,3c0.2,6.1,4.1,12.8-2.9,17.8c-0.5,0.4-0.4,1.6-0.6,2.4
		c-3.2,10.6-6.5,21.2-9.4,31.9c-0.8,3-0.6,6.3-0.9,9.4c-1,3-3.1,5.8-5.2,8.5c-4,5.1-8.9,8.8-15.6,9.9c-4.9,0.8-9.7,2.1-14.4,3.3
		c-2.1,0.5-4.6,0.9-3.3,4.1c-3.1-3-6.6-2.8-10.6-1.9c-8.5,1.8-16.7,1-22.4-6.8c-1.6-2.2-2-5.7-3.9-7.1c-6-4.4-7.6-10.7-8.7-17.2
		c-2.7-16.4-1.3-32,11-44.8c-1.9,3.6-3.8,7.3-5.7,10.9c0.4,0.2,0.8,0.4,1.1,0.6c3.8-5.6,7.6-11.2,11.4-16.7
		c-0.2-0.2-0.4-0.5-0.6-0.7c-0.9,0.5-1.9,0.9-2.8,1.4c5.4-5.2,10.9-10.4,16.6-15.8c-0.8-0.4-1.5-1-2.2-1
		c-14.8-0.6-29.6-1.2-44.4-1.5c-1.1,0-2.2,1.5-3.3,2.3c1.2,0.7,2.5,1.9,3.7,2c5.2,0.2,10.3-0.1,15.5,0.1c5.1,0.2,7.1,3,5,7.6
		C713.8,115.5,711,117.6,709,120L709,120z M797,208.5c11.6,0,23.2,0,34.9,0C820.2,207.6,808.7,204.2,797,208.5z"/>
	<path class="st0" d="M1040.3,171.3c5.5,0,11,0,16.5,0c4.3,0,6.4,2.1,6.4,6.5c0,2.7,0.1,5.3,0.5,8c0.8,5.1,3.9,8.5,8.5,10.3
		c12.5,4.9,32.8-3.3,38.8-15.5c5.9-12,0.6-21.3-12.9-21.4c-10.5-0.1-20.9,1.1-31.4,1.5c-11.2,0.4-22.4,0.8-32.8-4.5
		c-19.3-10-22-32.1-5.9-46.8c13.6-12.5,30-17.2,48.1-17.8c10.8-0.4,21.5-1.8,32.3-3.1c10.4-1.2,20.8-0.7,30.6,2.9
		c11,4.1,17.2,12.7,18.6,24.5c0.5,4-1.7,5.9-5.4,6.2c-11.3,0.8-22.6,1.8-33.9,2.1c-2.3,0.1-5.7-2-6.7-4.1c-4-7.9-10.8-11-18.9-12
		c-8.4-1-15.8,2-22.4,6.9c-4.1,3.1-6.3,7.6-5.2,12.7c1.1,5,4.8,8.4,9.7,8.8c7.7,0.6,15.6,0.7,23.3,0.3c10.3-0.5,20.5-2.2,30.8-2.6
		c21.7-0.7,32.2,15.7,29.5,35.1c-3.2,23.7-27.3,40.9-48.7,42.4c-15.6,1.1-31.2,1.8-46.8,2c-10.7,0.2-21.3-0.9-30.7-7.1
		c-10.9-7.2-16.5-17.1-15.2-30.4c0.4-4,2.6-5.5,6.3-5.6c5.7,0,11.3,0,17,0C1040.3,171,1040.3,171.2,1040.3,171.3z M1081.3,148.4
		c0.3,0.5,0.5,1.1,0.8,1.6c1.6,0,3.2,0,4.8,0c9.3,0,18.5,0,27.8,0.1c9.9,0.1,16.4,6,17.1,15.9c0.3,4.5,0.4,9.1-0.4,13.4
		c-1.4,8-5.1,15.2-13.1,18.2c-6.4,2.4-13.4,4-20.3,4.5c-9.1,0.6-18.3-0.4-27.4-0.4c-7.6,0-10.4-1.4-13.1-8.5
		c-1.4-3.8-2-7.9-2.9-11.7c-6.4-1-12.7-2.2-19.1-3.1c-5.3-0.7-7.1,0.9-5.9,6.1c2.1,9.8,8,17.3,17.1,21.2c5.2,2.2,11.4,3.2,17,3.1
		c11.8-0.2,23.6-1,35.2-2.5c7-0.9,13.9-3,20.5-5.6c5.5-2.1,10.3-5.7,15.5-8.7c2-1.1,4.8-1.8,5.8-3.5c4.7-7.9,10.1-15.5,10-25.5
		c-0.1-9.2-5.6-17-14.7-17.3c-17.1-0.4-34.2,0-51.2,0.3C1083.6,145.9,1082.5,147.5,1081.3,148.4z M1079.2,145.4
		c-10.5,1.1-15.8-2.1-20.8-11.8c-5.8-11.4,3-29,15.6-30.7c4.8-0.7,9.5-1.2,14.3-1.6c7.3-0.6,14.6-1.1,21.9-1.5
		c7-0.3,12.7,2.2,16.3,8.6c0.6,1,1.9,2.4,2.8,2.3c5.3-0.2,10.7-0.7,16-1.2c0.2-0.5,0.4-1.1,0.6-1.6c-2.6-2.1-4.8-5-7.7-6.3
		c-19.9-8.3-40.5-5.7-60.9-2.6c-7.3,1.1-14.1,5.5-21.4,6.3c-10.2,1.1-17.2,6.4-23.3,13.7c-1.5,1.8-2.9,4.3-3.1,6.6
		c-1.8,18.9,11.7,26.8,27.6,26.5c6.3-0.1,12.5-1.3,18.8-2.1c1.5-0.2,4.1-0.7,4.3-1.6c1.4-4.9,5.2-4.3,8.9-4.6c2.8-0.2,5.6-0.7,8.3-1
		c0-0.2-0.1-0.4-0.1-0.6c-7.1,0-14.3,0-21.5,0C1076.8,143.2,1077.6,144,1079.2,145.4z"/>
	<path class="st0" d="M688.9,319.7c-4.9,0.6-9.1,1.3-13.3,1.7c-5.8,0.7-7.6-0.7-7.1-6.4c0.5-5.4,1.7-10.7,3.2-15.9
		c0.9-3,3.6-4.6,7.2-3.8c1.8,0.4,3.7-0.2,5.5,0.3c11.3,3.2,16.5-2.7,21.1-12.1c4.3-8.7,10.8-16.4,16.7-24.1c1.4-1.8,4.4-2.9,6.8-3.2
		c15.4-1.9,30.8-3.5,46.2-5c4.8-0.5,9.7-0.5,14.5-0.2c1.6,0.1,3.8,1.5,4.5,2.9c0.4,0.9-1.2,3.3-2.5,4.3c-2.4,1.7-5.2,2.9-7.9,4.3
		c-13.9,7.2-26.1,16.6-36.5,28.3c-1,1.1-1.8,2.5-3.1,4.4c3.4,0,5.8,0.2,8.2,0c13.3-1.1,26.5-2.4,39.8-3.4c1.6-0.1,4,0.3,4.8,1.4
		c0.8,1,0.7,3.5,0,4.9c-2.7,5.9-5.8,11.6-8.6,17.5c-1.5,3-3.8,3.8-6.9,3.7c-14.7-0.3-29.3-0.2-44-0.7c-4.6-0.1-6.5,1.7-7.6,5.9
		c-5,17.4-4.9,34.9-0.1,52.2c2.4,8.6,7.7,15.4,14.5,21.1c3.5,2.9,7.6,3.8,11.6,1.5c8.3-4.8,16.5-9.9,24.7-14.9
		c3.4-2,6.8-4.2,10.4-5.8c1.3-0.6,4-0.2,4.9,0.8c0.9,0.9,0.8,3.4,0.2,4.9c-3,8.4-6.5,16.7-9.5,25.2c-1.5,4.2-4.1,6.6-8.4,6.5
		c-20.7,0-41.3,0.3-61.9-0.5c-13.5-0.5-22-9.5-26.3-22.3c-5-14.8-7.7-29.7-6.2-45.1c0.7-7.9,2.7-15.7,4.1-23.5
		C688.2,323.1,688.4,321.9,688.9,319.7z M712.1,296.9c-0.9,9.5-8.1,9.9-15.6,10.1c0.9,1,1.5,1.8,2.1,1.7c5.1-0.1,5.8,2.7,4.9,6.8
		c-1.8,7.9-3.4,15.8-5.2,23.7c-2.8,12.3-3.2,24.6,0.8,36.8c1.3,3.8,3.1,7.5,8.3,6.1l-0.1-0.1c-0.9,1.5-1.9,3-2.7,4.6
		c-0.7,1.2-1.8,2.8-1.5,3.8c1.7,5.4,3.9,10.7,9.7,13.1c1.4,0.6,2.8,1.4,4.7,2.3c-2.7,0.3-4.5,0.5-6.3,0.8c-0.1,0.7-0.2,1.3-0.3,2
		c2.4,0.7,4.8,2,7.3,2.1c19.6,0.4,39.3,0.5,58.9,0.6c1.6,0,3.3-0.9,4.9-1.5c-0.1-0.4-0.2-0.8-0.4-1.2c-1.5,0-3.1,0-4.6,0
		c-0.4-0.3-0.8-0.7-1.3-1c7.5-3.9,10.8-10.3,12.5-17.8c-2.7,2.5-5.4,4.6-7.7,7.1c-1.9,2.1-7.1,1.6-5.1,6.6
		c-12.2,5.1-17.1,4.3-28.8,3.9c-5.4-0.1-11.6-0.5-15-5.4c-4.3-6.2-8.3-12.8-11.2-19.8c-2.3-5.7-3.3-12.2-3.8-18.4
		c-0.7-8.2-0.8-16.5-0.2-24.7c0.5-6.7,1.9-13.4,3.6-20c1.7-6.4,4.1-11.3,12.6-10.6c7.1,0.6,14.2,0.6,21.3,1c1.9,0.1,4.6-0.4,4.7,3.1
		c0,0.7,1.5,1.8,2.4,1.8c5.6,0.2,11.1,0.1,15.4,0.1c1.6-3.4,2.8-5.9,4.5-9.3c-7.7,0-14.6-0.1-21.5,0c-5.7,0.1-11.4,1-17.1,0.6
		c-12.1-0.9-14.5-6.2-7.8-16.3c3.9-5.9,8-11.7,12.1-17.5c3,1.2,6.7-1.2,9.3-6.8c-8.2-2.1-15.6,1.8-23.3,2.8
		c-0.1-1.2-0.2-2.4-0.4-3.6c-1.3,0.5-2.9,0.6-3.7,1.6c-4.1,4.6-8.1,9.2-11.8,14.1c-2.7,3.7-5.1,7.8-7.1,11.9
		C709.1,293.8,706.2,297.9,712.1,296.9z M743.7,314.2c-3.6-2.2-12.9-3.6-14.5-1.6c-1.9,2.4-2.8,5.7-4.2,8.6c0.5,0.4,0.9,0.9,1.4,1.3
		C727.7,309.6,737.1,316.1,743.7,314.2z"/>
	<path class="st0" d="M588.8,94.1c-28.8-25.4-62.6-38.5-97-50.9c0.2-1.3,0.4-2.4,0.6-3.7c-0.9,0.1-1.7,0.2-2.5,0.3
		c-0.2-0.5-0.4-0.9-0.6-1.4c1.6-0.8,3.3-2.1,4.9-2.2c4-0.1,8,0.7,11.9,0.7c21.4,0.2,42.9,0.2,64.3,0.4c2.3,0,5.2,0.6,6.9,1.9
		c8.6,6.9,17,13.9,25.2,21.2c11.7,10.4,23.1,21.1,34.5,31.8c12.1,11.3,22.3,24.1,25.8,40.7c8.1,37.6-14.4,65.9-46.4,74.2
		c-16.9,4.4-34.8,5-52.3,6.6c-6.7,0.6-13.6-0.4-20.3-1.4c-11.6-1.7-20-8.8-27.1-17.5c-10.1-12.3-14.7-26.6-14.5-42.5
		c0.1-6.1-0.7-12.6,1-18.4c6.2-21.7,20.9-35.2,42.8-40.1c12.9-2.9,26.1-3.4,39.1-0.2C586.1,94.1,586.9,94,588.8,94.1z M616.5,109.2
		c-8.4-2.6-16-5.2-23.8-7.2c-20-5.2-39-1.8-57.5,7c-9.7,4.6-16.4,11.4-21.1,20.6c-1.2,2.5-2.6,5.3-2.5,7.9
		c0.1,9.7,0.6,19.4,1.2,29.2c0.1,1.3,1.2,2.7,2.1,3.9c0.7,0.9,2.2,1.4,2.6,2.4c4.1,8.7,8.9,17,17.1,22.3
		c12.7,8.2,27.3,12.5,42.1,12.2c23.4-0.5,44.2-9.5,61.5-25.3c9.1-8.3,15.3-18.6,15.2-31.5c-0.1-6.5-2.2-13.2-1.7-19.6
		c0.8-9.6-5.2-15.5-10.5-21.5c-5-5.7-11.4-10.1-17.2-15c-6.1-5.2-12.3-10.2-18.2-15.6c-9.4-8.5-18.5-17.4-27.8-25.9
		c-1.9-1.7-4.2-4-6.5-4.2c-7.2-0.5-14.4-0.2-22.9-0.2c1.4,1.8,1.7,2.4,2.1,2.8c13.4,9.2,26.7,18.5,40.2,27.5
		C602.3,86.3,609.7,96.7,616.5,109.2z M655.9,169.6c-6.3,8.3-13.2,15.8-23,19.9c-0.4,0.2-0.9,0.5-1.2,0.9c-5.2,7-13.1,9.3-20.8,12
		c-3.8,1.3-7.7,2.4-11.5,3.7C623.1,205.8,646.3,191.5,655.9,169.6z"/>
	<path class="st0" d="M800.7,362.2c-2.8-41.3,29.7-67.5,63-70.9c16-1.6,31.9-5,48.2-2.7c14.2,2,26.6,7.2,35.4,19.2
		c9.6,13.1,9,27.4,5,42c-1,3.8-4.1,5.4-7.8,4.6c-16.1-3.7-32.1-0.8-48.2-0.3c-16,0.6-32,0.1-48-0.4c-4.6-0.1-5.6,1.5-5.6,5.7
		c0.1,22.5,13.1,37.1,35.6,39.2c1.6,0.2,3.4,0.1,5-0.2c22.1-4.2,43.2-10.9,61.5-24.8c4.9-3.7,10.4-6.6,15.9-9.3
		c1.8-0.9,4.6,0.2,6.9,0.5c-0.4,2.1-0.2,4.6-1.3,6.2c-8.9,13.6-17.9,27.2-27.2,40.6c-1.2,1.8-4.4,3.1-6.6,3.1
		c-13.1,0.3-26.3,0-39.4,0.2c-15.1,0.2-30.3,1.3-45.4,1.2c-18.5-0.2-33.3-7.5-41.8-24.8C801.2,381.8,799.6,371.5,800.7,362.2z
		 M819.7,390.1l0.2,0.2c0.8,1.7,1.3,4.4,2.6,5c7.6,3.6,15.3,6.9,23.1,10c3.8,1.5,7.9,2.3,11.8,3.4c-0.1,0.4-0.2,0.9-0.3,1.3
		c-9.5-1.9-19-3.8-28.5-5.7c-0.2,0.7-0.4,1.3-0.5,2c1.5,0.8,2.9,2.2,4.5,2.5c8,1.2,16.1,3.3,24.1,3c20.6-0.7,41.1-2.5,61.7-4
		c5.2-0.4,10.5-0.4,13.8-5.8c1.5-2.5,4.3-4.1,6.5-6.2c0.3,0.4,0.6,0.8,0.8,1.2c-7,4.8-9.8,16.1-22,13.4c4.4,0.5,8.7,0.4,12.9,0.5
		c3.3,0.1,5-1.2,6.6-4c4.3-7.7,8.9-15.2,13.6-22.7c1.5-2.4,3.4-4.4,5.1-6.6c-0.4-0.4-0.8-0.8-1.3-1.2c-2.9,2.5-6,4.8-8.8,7.4
		c-2,1.8-3.3,4.6-5.5,5.9c-4.1,2.5-8.6,4.2-13,6.3c-3.7,1.8-7.5,3.5-11.3,5.2c0.2,0.4,0.4,0.8,0.5,1.2c1.1,0.3,2.2,0.5,3.3,0.8
		c-1.3,1.3-2.7,1.9-4,2c-6.5,0.2-12.9,0.1-19.4,0.4c-2.2,0.1-4.3,1.5-6.4,1.4c-2.9-0.1-5.7-1.4-8.6-1.6c-4.6-0.3-9.3,0.1-13.9-0.1
		c-10-0.6-15.5-8.5-22.2-14.2c-0.7-0.6-0.5-2.1-0.7-3.2c-0.2-1.1-0.2-2.2-0.7-3.1c-2-3.8-4-7.5-6.2-11.1c-1.5-2.7-3.2-5.3-4.6-7.5
		c0.2-2.4,0.9-4.9,0.7-7.3c-0.9-8.6,1.6-11.9,10.1-11.8c9.8,0,19.6,0.6,29.4,0.4c11.2-0.2,22.5-0.9,33.7-1.4
		c8.5-0.4,16.9-0.7,25.4-1c2.9-0.1,3.9-1.3,4.3-4.2c0.5-4.1,1.7-8,2.6-12c0.4,0,0.9,0,1.3,0.1c1.2,2.3,2.4,4.6,3.8,7.3
		c0.8-1.1,1.2-1.4,1.3-1.8c3.3-14.4-5.7-27.7-19.9-32.3c-14-4.6-28.1-4.6-42.4-4.2c-6.7,0.2-13.9-0.2-20.1,1.8
		c-13.4,4.4-25.9,11-36.5,20.8c-6.2,5.7-11.9,11.5-14.6,19.7c-1.3,4-3.1,7.9-4.4,12c-0.3,1,0.6,2.4,0.6,3.6c0.1,2.3,0,4.5,0,6.8
		c-0.5,0-1,0-1.5,0c-0.3-1.5-0.6-3-0.9-4.5c-0.8,2.4-0.9,4.9-0.2,7.1c1.4,4.4,2.6,9,4.9,13C813.2,382.4,816.7,386.1,819.7,390.1z
		 M813.5,329.5c-0.5-0.2-0.9-0.4-1.4-0.6c-1.8,4.6-3.6,9.1-5.4,13.7c0.6,0.2,1.1,0.4,1.7,0.7C810.1,338.7,811.8,334.1,813.5,329.5z
		 M930.6,389.7c0.2,0.4,0.5,0.8,0.7,1.2c3.7-2.1,7.5-4.2,11.2-6.3c-0.3-0.5-0.6-1.1-1-1.6C937.9,385.3,934.3,387.5,930.6,389.7z"/>
	<path class="st0" d="M367.1,203.7c-10.6,6.3-21.3,6.7-32.2,7c-10.8,0.3-21.5,2.1-32.3,2.3c-19.4,0.3-33.4-8.8-42-26
		c-4.6-9.1-5.5-19.1-5-29.2c0.9-19.4,5.8-37,21.4-50.3c12.6-10.8,27-16.1,43.4-16.3c14.3-0.3,28.6-1,42.9-0.9
		c5.5,0,11.3,1.1,16.6,2.9c7.9,2.7,15.4,3.5,23.2-0.4c3.9-1.9,8.1-3.1,12.2-4.4c4.5-1.4,6.9,0.7,5.8,5.4c-1,4-2.6,7.9-3.9,11.9
		c-7.2,23.3-10.9,47.1-9.4,71.4c0.6,9.3,2.5,18.5,4.2,27.6c1.3,6.7,0.2,8.9-6.7,8.4c-10.6-0.9-21.2-1.7-31.7,0.9
		c-3.2,0.8-5.5-0.8-5.7-4.5C368,207.8,367.6,206.2,367.1,203.7z M396.8,199.4c-5.1-30.1-2-59.8,4.2-89.6c1.2,0.9,2.1,1.6,3.5,2.6
		c0.7-2.2,1.3-3.8,1.8-5.5c-0.5,0.1-1.1,0.2-1.6,0.3c-0.7-3-1.3-5.9-2-8.9c-3.4,1.8-8.6,1-9.9,6.6c-0.1,0.3-1.1,0.7-1.7,0.7
		c-3.9-0.3-8.1,0.1-11.8-1.1c-18-5.6-36.3-8.2-55.1-5c-3.4,0.6-6.7,1.8-10.1,2c-17.4,0.9-30.2,10.3-40.2,23.1
		c-11.2,14.5-11.5,32.1-8.4,49.3c1.9,10.8,8.6,20.2,19.4,23.8c30.2,10,59,7.6,84.8-12.9c2-1.6,4.3-2.8,6.5-4.2c0,7.3,0,13.8,0,19.9
		C382.6,200.1,389.2,199.8,396.8,199.4z"/>
	<path class="st0" d="M884.6,184.9c0,3.2-0.2,5.8,0,8.3c0.4,4.6,1.1,9.3,1.5,13.9c0.4,5-1,6.4-5.8,6.4c-9.6,0.1-19.3,0.2-28.9,0.4
		c-3.5,0.1-4.9-1.6-4.7-4.9c1.1-21.6,2.5-43.2,3.2-64.8c0.3-10.5,0.4-21.2-4.9-31.2c-2.3-4.3-3.1-9.4-4.2-14.3
		c-0.8-3.4,0.9-5.3,4.4-5.7c10.4-1,20.8-2.1,31.2-3.3c3.9-0.4,6,1,6.9,4.8c0.6,2.6,1.2,5.1,1.7,7.2c9.3-2.6,17.8-6,26.7-7.3
		c17.8-2.5,35.4-7,53.8-4.9c24.2,2.8,38,28.1,28.4,49.9c-7.2,16.6-20.4,26.7-36.8,33.2c-1.5,0.6-3,1-5.2,1.8c4.9,3.2,9,6,13.2,8.4
		c10.8,6.2,21.7,12.2,32.6,18.2c3.1,1.7,6.3,3.1,9.2,5c1.2,0.8,2.4,2.8,2.2,3.9c-0.2,1.1-2.3,2.6-3.6,2.7c-17.5,0.5-35,1.8-52.4,0.6
		c-7.7-0.5-15.4-5.3-22.4-9.3c-13.6-7.9-27.7-14.6-42.9-18.7C887.1,185.4,886.5,185.3,884.6,184.9z M973.6,101.6
		c-7.7-1.2-15.4-2.9-23.1-3.6c-17.2-1.6-34-0.1-49.7,7.9c-4.7,2.4-9.6,4.5-14.3,6.8c-2.8,1.4-5.1,1.1-6.8-1.7
		c1.9,2.2,3.6,2.2,5.2-0.4c-1.9-1.3-3.6-2.5-6.3-4.3c0.6,2.4,0.9,3.7,1.2,4.9c-1.1-2.6-3-5.2-3.3-7.9c-0.6-6.8-3.6-8.6-9.4-4.9
		c-3.4,2.1-6.5,3-10.2,0.9c-1.2-0.7-2.9-0.7-4.7-1c2.7,12.2,6.2,23.5,7.4,35c1.3,11.8,0.3,23.7,0.3,34.8c0.5-0.8,1.3-2.3,2.2-3.9
		c0.8,8.2,1,16.4-0.1,24.3c-1.5,11.2-1,12.3,10.1,12.4c1.1,0,2.2-0.1,3.8-0.2c-0.3-5.9-0.5-11.5-0.8-17.1c-0.2-4.1,1.2-6.2,5.6-4.9
		c6.3,2,12.7,3.8,18.8,6.3c8.8,3.5,17.5,7.2,26.1,11.2c8.6,4,16.8,8.9,25.6,12.2c4.6,1.8,10.1,1.2,16.3,1.7
		c-2.1-3.4-3.3-5.5-4.8-7.9c4.7-0.4,8.7-0.7,12.8-1c-4.6-3.8-9.2-6.4-13.8-9c-4.6-2.7-9.4-5-13.6-8.2c-3-2.3-5.2-5.8-7.4-9
		c-0.6-0.9-0.2-3.2,0.6-4c6.2-6.5,14.1-9.9,22.8-11.9c2.6-0.6,6-1.1,7.5-2.9c4.7-5.8,9.8-11.7,12.8-18.5c8.3-18.6,3.1-26.5-10-36.4
		c1.4-0.2,2.9-0.4,4.9-0.7c-4.9-5.2-12.4-7.3-18.3-4.6C965.9,98.4,969.7,100,973.6,101.6z"/>
	<path class="st0" d="M477.4,211.7c-5.7-1.3-11.4-2.9-17.2-3.9c-2.1-0.4-4.5,0.3-6.7,0.8c-7.4,1.9-14.7,4.2-22.1,5.8
		c-4.8,1-6.5-1.5-5.8-6.4c1.9-13.7,4.2-27.3,5.1-41.1c1.2-18.9,1.7-37.9,1.5-56.9c-0.2-17.3-1.4-34.6-2.8-51.8
		c-0.4-5-2.7-9.9-4.4-14.7c-2.2-6.2-0.7-8.1,5.7-8.6c12.3-0.8,24.5-1.8,36.7-3c6.3-0.6,7.7,0.7,7,6.9c-2,17.9-4.3,35.7-5.5,53.6
		c-1.2,18.6-1.8,37.2-1.6,55.9c0.1,11.6,2.3,23.1,3.7,34.7c0.4,3.7,2.5,5.1,6.3,4.2c6.8-1.5,13.7-2.8,20.6-4.1
		c6.8-1.3,8.7,0.8,6.7,7.5c-0.7,2.4-1.9,4.7-2.2,7.2c-1.2,8.8-7.2,11.8-15,12.4c-3.1,0.3-6.3,0-9.5,0
		C477.6,210.8,477.5,211.2,477.4,211.7z M457,133.8c0.5-1.4,1.5-2.9,1.5-4.4c0.1-4.6-0.3-9.2-0.2-13.8c0-1.2,1-2.4,1.6-3.6
		c0.5,0.1,1,0.2,1.6,0.3c0,3.6,0,7.3,0,10.9c1-4.8,1.9-9.7,0.7-14.1c-1.2-4.3-4.5-8-7.1-12.2c6.5-1.2,4.3-5.3,3.1-8
		c-2.1-4.6-2.6-8.5,1.7-12.3c-1-0.3-2-0.4-2-0.5c-0.1-10.6-0.1-21.1-0.1-32.3c-6,0.5-13,1-19.8,1.5c1,7.1,2.6,13.5,2.8,19.9
		c0.6,19.4,0.7,38.8,1.1,58.2c0.1,7.7,1.1,15.5,0.5,23.1c-1.1,16.4-2.9,32.7-4.4,49.1c-0.1,1.4,0,2.8,0,4.9
		c4.5-1.7,8.4-2.9,12.2-4.6c3.9-1.8,7.4-1.4,10.8,1.1c6.9,5,14.3,4.6,22,2.5c2.6-0.7,5.2-1.7,7.8-2.5c-0.1-0.5-0.3-1-0.4-1.5
		c-1.8,0.1-3.5,0.3-5.3,0.4c-4.1,0.2-8.3,0.9-12.4,0.6c-12.2-0.7-18.3-10.4-14-22.9c0.5,2.8,0.9,5,1.3,7.1c0.3-0.1,0.6-0.1,0.8-0.2
		C459.4,164.9,458.2,149.2,457,133.8z M498.4,188.8c-1.8,2.3-4.8,4.4-5.1,6.9c-0.7,5.4-3.7,7.5-8.2,8.6c-2.7,0.7-5.5,0.9-9.5,1.6
		C489.9,209.7,499,203,498.4,188.8z"/>
	<path class="st0" d="M612.8,410.2c-1.2,0.5-2.2,1.2-3.2,1.4c-6.7,1.6-13.4,3.4-20.2,4.7c-5.2,1-10.5,1.4-15.8,1.7
		c-10.6,0.5-21.3,1.7-31.8,1c-20.8-1.4-34.7-17.7-38.3-36.6c-3.3-16.8-1.7-33.7,5.7-49.4c8.9-18.9,24.3-31.2,44.8-33.8
		c20.2-2.5,40.8-1.9,61.3-2.1c4.8,0,9.7,2.2,14.4,3.5c6.3,1.8,12.3,2,18.4-1.1c3.8-1.9,8-3.4,12.1-4.6c1.8-0.5,4.7-0.6,5.8,0.5
		c1.1,1.1,1.1,4,0.6,5.8c-3.4,13.5-7.6,26.9-10.3,40.6c-4.7,23.3-4.1,46.7,1.8,69.8c1.5,6.1,0.5,7.6-5.8,7.6
		c-4.6-0.1-9.3-1-13.9-0.9c-4.8,0-9.6,0.5-14.3,1.3c-9,1.5-9.2,1.5-10.4-7.4C613.5,411.7,613.2,411.1,612.8,410.2z M654.3,308.7
		c-0.8-0.4-1.1-0.8-1.3-0.7c-1.3,0.4-2.6,0.6-3.7,1.4c-7.9,5.3-16.1,4-24.8,1.9c-10.6-2.5-21.5-4.6-32.4-5
		c-11.8-0.4-23.8,0.7-35.6,2.2c-7.6,1-15,3.8-22.4,6c-1,0.3-1.7,1.5-2.5,2.3c-2.9,2.9-5.3,6.6-8.8,8.6c-7.3,4.2-10.4,11.2-13.4,18.3
		c-0.2,0.4,0,1,0.1,1.7c1.1-0.2,2-0.4,3.5-0.7c-0.6,2.7-1.1,4.7-1.4,6.8c-2,12.1-6.1,24.3,3.3,35.6c4.6,5.5,7.1,12.8,14.2,16.2
		c4.1,2,8.2,4,12.2,5.9c-3.6-0.3-7.2-0.7-10.8-1c-0.1,0.6-0.3,1.2-0.4,1.8c1.4,0.7,2.6,1.7,4.1,2.2c9.2,2.8,18.6,3.6,28.1,2.3
		c6.6-0.9,13.2-1.4,19.7-2.3c7.7-1,15.4-1.9,23-3.4c3.7-0.8,5.9-3.6,4.5-8c-0.3-0.9,0.1-2.5,0.7-3c4.3-3.2,8.8-6.1,13.9-9.6
		c0.5,5.7,0.2,10.3,1.4,14.6c1.6,5.6-3.9,7.9-5.1,11.7c10.8,0,21.3,0,31.7,0c-3.8-6-10.5-3.8-15.9-6c2.7-0.2,5.4-0.4,8.3-0.6
		c-0.4-12.1-4.3-23.9-0.3-35.5c0.8-0.1,1.5-0.1,2.3-0.2c1.1,8.1,2.2,16.3,3.3,24.4c0.7-0.8,0.9-1.6,0.8-2.3
		c-1.2-20.1-1.6-40.2,2.7-60.2c0.3-1.3-0.6-3-1.4-4.4c-2.8-5-4.9-9.8-0.9-15.2C652.4,312.8,653.2,310.7,654.3,308.7z"/>
	<path class="st0" d="M1017.7,56.7c6.6,4.3,13.3,8.5,19.8,13c0.8,0.6,0.8,3.2,0.3,4.5c-5.7,13.1-11.4,26.2-17.4,39.2
		c-0.9,2-2.7,4.1-4.6,5.1c-1.8,1-4.6,1.2-6.5,0.5c-1.3-0.5-2.3-3.1-2.4-4.8c-0.3-5.8-0.5-11.7-0.1-17.5c0.3-5.5-1.6-9.6-5.4-13.3
		c-5.7-5.6-5.5-8.5,0.1-14.2c3.1-3.1,6-6.2,9.3-9C1012.4,58.8,1014.7,58.2,1017.7,56.7z M1024.1,82.6c3.9-5.7,4-8.1,0.6-10.3
		c-3.9-2.6-6-0.8-7.7,2.6C1019.4,77.5,1021.6,79.9,1024.1,82.6z"/>
	<path class="st0" d="M220.5,337.4c-1.4,0.3-3,0.5-5.5,1c2.4-6.6-0.1-14.7,9.3-17c1-0.2,1.8-2.2,2.3-3.6c4.4-12.5,10-24.2,18.5-34.5
		c16.1-19.5,36.4-32.2,61.6-36.4c1.1-0.2,2.6,0.6,3.6,1.3c0.9,0.6,1.3,1.9,2.1,2.7c0.6,0.7,1.4,1.2,1.9,1.6
		c-8.6,6.8-17.4,13.1-25.3,20.3c-7.3,6.7-13.8,14.4-20.6,21.7c-4.3,4.6-1.7,9.3,0.2,13.8c0.6,1.3,2.1,2.2,2.9,3
		c1.6-3.5,2.3-6.5,4-8.7c13.8-17.5,28.7-33.8,49.8-42.7c8.9-3.8,17.7-7.5,26.7-11.1c1.3-0.5,3-0.1,4.5-0.1c0.1,0.4,0.2,0.9,0.2,1.3
		c-4.1,1.6-8.1,3.6-12.3,4.9c-27.5,8.8-47.7,27.3-64,49.8c-6.4,8.9-8.6,21.1-12,32c-1.7,5.2-3.4,10.7-2.1,16.6
		c0.7,3.3-5.7,9.8-9.5,10.7c-1.3,0.3-2.5,1.3-3.8,1.5c-1.3,0.1-2.6-0.4-4.8-0.8c0.2,1.3,0.6,3.6,0.9,5.9c1.1,10.2,4.5,19.7,8,29.2
		c1.4,3.9,0.9,8.5,1.2,12.9c3.2-4.7,5.4-1.3,6.7,1.4c4.9,10,12.3,18.1,20.5,25.1c7.5,6.4,15.9,12.2,24.8,16.4
		c5.3,2.6,12.3,1.9,18.6,2.2c16.1,0.7,32.2,2.3,48.2,1.4c13.3-0.8,27.4-0.8,39.1-9.4c14.1-10.3,25.6-23,29.6-40.1
		c5.2-22.1,1.3-41.8-24.8-56.6c-7.5-4.3-15.5-4.9-23.5-6.4c-1.1-0.2-2.1-1.3-3.1-2c-6.3,3-15.5-0.9-20.4,7.9
		c-0.4-0.8-0.8-1.7-1.2-2.5c3.6-2.3,7.1-5.1,11-6.6c4.4-1.8,9.3-2.5,13.9-3.5c23.9-5.4,46.2-3.6,65,14.1c4.3,4.1,8.4,8.4,12.5,12.7
		c3.8,4.1,5.6,8.8,5.3,14.6c-0.4,5.7-0.1,11.5-0.1,17.3c2.5,0,3.7-0.3,4.7,0.1c3.2,1.4,4.4-0.4,4.7-3.1c0.4-3.8,0.4-7.6,0.6-11.4
		c0.1-2,0-3.9,0-5.9c0.4-0.1,0.9-0.2,1.3-0.2c0.5,2,1.3,4.1,1.6,6.1c1.9,14.3-0.9,27.6-9.9,39.1c-11.7,15.1-24.6,28.7-43.8,34.1
		c-11.3,3.2-22.7,5.6-34.8,3.7c-6.6-1-13.6,0.7-20.4,1.1c-26.3,1.4-52.6,1.3-78.7-2.7c-5.7-0.9-11.1-4.2-16.6-6.5
		c-10.2-4.1-20.6-7.8-30.5-12.4c-4.5-2.1-8.3-5.9-12.1-9.3c-4.8-4.5-10-8.8-13.6-14.2c-9-13.4-11.7-28.9-12.6-44.6
		C219.9,361,220.5,349.2,220.5,337.4z"/>
	<path class="st0" d="M490,250.9c-4.1,5-7.2,9.7-11.3,13.3c-2.2,2-5.8,2.6-9.3,0.6c-6.5-3.7-13.4-6.7-20-10.3
		c-12.2-6.8-25.5-10-39.2-10.2c-23.1-0.3-46.3,0-69.4,0.5c-4.3,0.1-8.7,1.8-12.7,3.5c-5.5,2.4-10.5,4-16.7-2.1
		c6.2-1.6,11.4-3.8,16.7-4.1c25.9-1.3,51.9-2.8,77.9-2.8c10.8,0,21.6,3.6,32.3,5.5c3.1,0.5,6.2,0.9,9.3,1.2
		c8.8,0.8,17.5,1.3,26.3,2.2C478.9,248.8,483.7,249.9,490,250.9z"/>
	<path class="st0" d="M476.1,346c0.9,3.1,1.7,6,2.5,8.9c-0.4,0.3-0.9,0.7-1.3,1c-3.1-1.3-6.2-2.7-9.9-4.3
		C470.6,349.6,472.6,348.2,476.1,346z"/>
	<path class="st0" d="M365.6,234.5c9.1,0,18.1,0,27.2,0c0,0.2,0,0.4,0,0.6c-9,0-18.1,0-27.1,0C365.6,234.9,365.6,234.7,365.6,234.5z
		"/>
	<path class="st0" d="M358.8,363.8c5.4-5.1,11.5-8.5,19.1-7.6C371.6,358.7,365.2,361.3,358.8,363.8z"/>
	<path class="st0" d="M487.5,367.3c-1.8-2.6-3.5-5.3-5.3-7.9c0.5-0.3,1-0.6,1.5-1c1.7,2.7,3.5,5.4,5.2,8.1
		C488.5,366.7,488,367,487.5,367.3z"/>
	<path class="st0" d="M122.9,25.8c1.2-0.8,2.3-2.2,3.6-2.3c7.9-0.7,15.8-1.1,23.6-1.6c3.6-0.3,7.3-0.7,10.9-1.1
		c11.1-1.2,21.8,1.6,32.5,3.9c7.3,1.6,14.7,3,21.7,5.5c14.6,5.3,28.3,25.8,27.6,42.6c-0.7,15.7-9,25.6-19.3,34.9
		c-11.2,10.1-24.5,16.4-39.3,19.5c-2.3,0.5-4.4,2.1-6.5,3.4c-1.8,1.1-3.4,2.7-5.2,3.8c-7.2,4.5-7.7,5.9-3.8,13.2
		c1.2,0.7,3.5,1.6,3.4,2.2c-1.2,10.7,7.7,11.2,14.1,13.7c6.5,2.5,13.3,4.1,20,6.2c5.4,1.7,6.6,0.9,8-4.5c0.3-1.1,2.7-2.6,3.4-2.3
		c3.2,1.4,6.1,3.4,9.4,5.3c-1.9,2.2-2.8,3.6-4.1,4.5c-5.2,3.8-4.1,9.1-2.2,13.4c6.7,14.8,0.9,34.4-13.8,45.5
		c-14.3,10.8-30.2,16.8-47.1,21.5c-14.8,4.2-29.8,4.8-44.9,4.2c-16.9-0.6-33.8-1.8-50.7-3c-10.7-0.7-21.5-1.9-32.2-2.7
		c-2.7-0.2-5.4,0.4-8.2,0.7c2.4-15,5.5-29.6,7-44.3c1.5-14.8,1.4-29.8,2-45.7c-1.3,1.9-2,2.9-2.7,4.1c0-14.7,0-29.3,0-43.9
		c0.5-0.1,1-0.1,1.5-0.2c0.4,1.2,0.8,2.4,1.4,4.4c3.8-33.1,2.9-65.5,0.7-98.7c6.3-0.5,13-1,19.6-1.4c1-0.1,2.2,0.7,2.9,0.3
		c6.9-3.3,8.8,1.1,11,6.4c3.4,8.2,5.4,8.5,13.9,5.3c3.9-1.5,7.8-3,11.8-3.9c1.7-0.4,3.8,0.9,6,1.6c-2,2.8-3.2,4.5-4.8,6.8
		c-0.6-2.4-1-4.1-1.6-6.9c-0.7,1.7-1.4,2.6-1.3,3.1c1.6,4.6-0.9,7.4-3.8,10.4c-14,14.3-22.2,31.8-26.9,50.9
		c-2.5,9.9-3.7,20.2-5.4,30.1c9.5,3.2,4.2,9.7,4.8,15.7c13.5-1.2,26.8-2.3,40.2-3.6c13.3-1.2,26.6-2.6,39.3-3.8c0.4-0.4,0,0-0.4,0.4
		c8.3-0.6,17,2.5,24.6-3.5c7.2-5.7,15-10.6,21.7-16.8c8.5-7.7,13.7-17.9,17.5-28.7c5.2-14.8,2.3-29-3.5-43.1
		c-3.9-9.4-11-15.2-18.7-20.6c-2.8-2-7.3-2.2-11-2c-14.7,0.8-29.5-1.6-44,2.5c-0.6,0.2-1.2-0.1-1.9-0.2
		C123.3,26.6,123.1,26.2,122.9,25.8z M123.4,254.3c0-0.1,0-0.3,0-0.4c3,0,6.1,0.4,9-0.1c8.1-1.3,17-1.4,24.1-5
		c12.5-6.4,20.7-18,26-30.8c2.7-6.6,2.1-14.7,2.4-22.1c0.2-4.5-0.3-9.3-1.3-13.7c-2.8-12.3-12.6-19.7-21-27.8
		c-2.9-2.8-7.4-5.4-11.3-5.7c-12.9-0.9-25.9-1.1-38.8-0.8c-16.4,0.4-32.8,1.6-49.3,2.3c-3,0.1-4.8,0.8-5.1,3.9
		c-0.7,9.2-2,18.5-1.9,27.7c0.1,13.8-1.9,27.7,1.3,41.5c2.9,12.1,9.9,20.8,19.8,27.6c1,0.7,2.5,1,3.7,1
		C95.2,252.7,109.3,253.5,123.4,254.3z"/>
	<path class="st0" d="M132.5,38.2c-16.3,10.1-30.6,22.3-40.7,38.7c-10.1,16.4-12.8,35.2-16.6,53.6c-0.5,0-1.1-0.1-1.6-0.1
		c0-1.7-0.3-3.5,0-5.2c1.9-9.8,3.9-19.5,5.8-29.2c2.5-12.3,6.6-23.9,14.7-33.8c6.2-7.6,13.3-14.2,22.2-18.6c3.3-1.6,6.1-4,9.4-5.6
		c1.8-0.9,4.1-1,6.2-1.5C132.1,37,132.3,37.6,132.5,38.2z"/>
	<path class="st0" d="M258.3,77.6c2.6,9.3-0.4,17.4-5.9,24.5C238.7,120,221.3,132.7,199,138c-1.3,0.3-2.6,0.7-3.9,0.9
		c-1.1,0.1-2.3,0-2.6,0c1.2-0.7,2.8-1.6,4.3-2.6c-0.7-0.7-1.4-1.4-2-2.1c-3.1-0.5-6.2-1-9.3-1.5c0-0.4,0-0.8,0-1.1
		c5.2-1.8,10.4-3.7,15.6-5.4c0.7-0.2,2.1-0.1,2.4,0.3c3.8,6,9,2.6,12.8,1.1c17.8-7.3,31.7-19.3,39.8-36.9
		C257.9,86.8,257.6,82,258.3,77.6z"/>
	<path class="st0" d="M78,143.1c-4.5,0.2-9,0.4-14.2,0.6c0.7-2.4,1.1-3.9,1.6-5.4c0.9-3,1.8-3.8,4.6-1c2.2,2.2,5.6,3,8.5,4.5
		C78.4,142.2,78.2,142.7,78,143.1z"/>
	<path class="st0" d="M100.6,35.9c1.2-4.6,15.8-10.8,21.5-8.8C115.3,29.9,108.5,32.7,100.6,35.9z"/>
	<path class="st0" d="M135.1,34.1c4.3-1.1,8.6-2.2,12.9-3.4c0.2,0.6,0.4,1.2,0.6,1.8c-4.3,1.4-8.5,2.9-12.8,4.3
		C135.6,36,135.4,35.1,135.1,34.1z"/>
	<path class="st0" d="M238.3,213.7c0.4-3.8,0.7-7.6,1.1-11.4c0.5,0.1,1,0.1,1.6,0.2c-0.5,3.8-0.9,7.6-1.4,11.4
		C239.2,213.8,238.7,213.7,238.3,213.7z"/>
	<path class="st0" d="M206.7,19.1c-3.7-0.2-7.4-0.5-11.1-0.7c0-0.5,0.1-1,0.1-1.5c3.7,0.4,7.3,0.9,11,1.4
		C206.8,18.2,206.7,18.6,206.7,19.1z"/>
	<path class="st0" d="M61.9,113.2c-0.1,2.3-0.3,4.7-0.4,7c-0.5,0-0.9,0-1.4,0c0-2.4,0-4.7,0-7.1C60.7,113.1,61.3,113.2,61.9,113.2z"
		/>
	<path class="st0" d="M73.4,105.5c-0.5,3.6-0.9,7.1-1.4,10.7c-0.5-0.1-1-0.2-1.6-0.2c0.6-3.5,1.2-7.1,1.8-10.6
		C72.6,105.4,73,105.5,73.4,105.5z"/>
	<path class="st0" d="M755.4,201.6c-1.3-3.3,1.2-3.7,3.3-4.2c4.8-1.2,9.6-2.5,14.4-3.3c6.7-1.1,11.6-4.8,15.6-9.9
		c2.1-2.7,4.2-5.6,5.2-8.5c0.3-3.1,0-6.4,0.9-9.4c2.9-10.7,6.3-21.2,9.4-31.9c0.2-0.8,0.1-2,0.6-2.4c7.1-5,3.1-11.7,2.9-17.8
		c0-1-0.4-2-0.5-3c-0.7-8.3,0.2-9.1,8.6-8.9c3.6,0.1,7.3-0.4,11.9-0.7c-0.5,4.1-1,8-1.6,11.8c-0.8,5.3-2.1,10.5-2.6,15.7
		c-0.2,2.5,1,5,1.2,7.6c0.1,2.5-0.4,5-0.7,7.5c-0.8,6.6-2.1,13.3-2.3,19.9c-0.4,11.4-0.1,22.8-0.1,34.4c-4.6,0.3-9.3,0.9-14.1,0.9
		c-1.2,0-2.9-1.7-3.5-3c-0.7-1.7-0.6-3.8-0.9-6.3c-5,1.7-10.4,0.3-14.1,6.2c-1.7,2.7-7.3,3.8-11.3,4.2
		C770.3,201.2,762.9,203.3,755.4,201.6C755.3,201.5,755.4,201.6,755.4,201.6z"/>
	<path class="st0" d="M720.7,123.7c-12.3,12.8-13.7,28.4-11,44.8c1.1,6.5,2.7,12.9,8.7,17.2c2,1.4,2.4,4.9,3.9,7.1
		c5.7,7.8,13.8,8.6,22.4,6.8c4-0.9,7.5-1.1,10.6,2c0,0-0.1-0.1,0-0.1c-11.7,0.6-23.6,2.5-35.2,1.6c-18-1.4-30.6-16.7-31.4-35.5
		c-0.1-3.6,0-7.2,0-11.1c-0.9,0.9-1.6,1.6-2.3,2.4c1.3-13,2.2-26,14.6-34c-2.4,3.8-4.9,7.6-7.3,11.3c0.2,0.1,0.4,0.3,0.6,0.4
		c4.8-5.6,9.7-11.1,14.5-16.7c2.1-2.4,4.8-4.4,6.1-7.2c2.1-4.6,0.1-7.4-5-7.6c-5.2-0.2-10.3,0.1-15.5-0.1c-1.3-0.1-2.5-1.3-3.7-2
		c1.1-0.8,2.2-2.4,3.3-2.3c14.8,0.4,29.6,0.9,44.4,1.5c0.7,0,1.4,0.6,2.2,1c-5.7,5.4-11.1,10.6-16.6,15.8
		C723.1,120.6,721.9,122.2,720.7,123.7z"/>
	<path class="st0" d="M797,208.5c11.7-4.3,23.3-0.9,34.9,0C820.2,208.5,808.6,208.5,797,208.5z"/>
	<path class="st0" d="M720.7,123.7c1.2-1.5,2.3-3.1,3.5-4.6c0.9-0.4,1.9-0.9,2.8-1.3c0.2,0.2,0.4,0.5,0.6,0.7
		c-3.8,5.6-7.6,11.2-11.4,16.7c-0.4-0.2-0.8-0.4-1.1-0.6C716.9,131,718.8,127.3,720.7,123.7z"/>
	<path class="st0" d="M709,119.9c-4.8,5.6-9.7,11.1-14.5,16.7c-0.2-0.1-0.4-0.3-0.6-0.4c2.4-3.8,4.8-7.6,7.3-11.3
		c1.3-1.1,2.6-2.2,3.8-3.3C706.3,121.1,707.7,120.6,709,119.9C709,120,709,119.9,709,119.9z"/>
	<path class="st0" d="M709,120c-1.4,0.5-2.7,1-4.1,1.5c2.6-4.2,5.2-8.3,7.7-12.4c1.4,1.3,1.5,3.1-0.6,6.4
		C711.1,117.1,710,118.6,709,120z"/>
	<path class="st0" d="M1081.3,148.4c1.1-0.9,2.3-2.5,3.4-2.5c17.1-0.3,34.2-0.7,51.2-0.3c9.2,0.2,14.7,8.1,14.7,17.3
		c0.1,10-5.3,17.6-10,25.5c-1,1.7-3.8,2.4-5.8,3.5c-5.1,3-10,6.6-15.5,8.7c-6.6,2.6-13.5,4.7-20.5,5.6c-11.7,1.5-23.5,2.3-35.2,2.5
		c-5.7,0.1-11.8-0.9-17-3.1c-9.1-3.9-15-11.4-17.1-21.2c-1.2-5.2,0.6-6.8,5.9-6.1c6.4,0.8,12.8,2,19.1,3.1c0.9,3.8,1.5,7.9,2.9,11.7
		c2.7,7.1,5.5,8.5,13.1,8.5c9.1,0,18.3,1,27.4,0.4c6.9-0.5,13.9-2.1,20.3-4.5c8-3,11.7-10.2,13.1-18.2c0.8-4.4,0.7-9,0.4-13.4
		c-0.7-10-7.2-15.9-17.1-15.9c-9.3-0.1-18.5-0.1-27.8-0.1c-1.6,0-3.2,0-4.8,0C1081.8,149.5,1081.6,148.9,1081.3,148.4z"/>
	<path class="st0" d="M1079.2,145.4c-1.5-1.4-2.4-2.2-3.4-3.1c7.3,0,14.4,0,21.5,0c0,0.2,0.1,0.4,0.1,0.6c-2.8,0.4-5.5,0.8-8.3,1
		c-3.6,0.3-7.4-0.3-8.9,4.6c-0.3,0.9-2.8,1.4-4.3,1.6c-6.2,0.8-12.5,2-18.8,2.1c-15.9,0.3-29.4-7.6-27.6-26.5
		c0.2-2.3,1.6-4.8,3.1-6.6c6.1-7.3,13-12.6,23.3-13.7c7.3-0.8,14.1-5.2,21.4-6.3c20.4-3.1,41-5.7,60.9,2.6c2.9,1.2,5.2,4.1,7.7,6.3
		c-0.2,0.5-0.4,1.1-0.6,1.6c-5.3,0.4-10.7,1-16,1.2c-0.9,0-2.3-1.3-2.8-2.3c-3.6-6.4-9.3-8.9-16.3-8.6c-7.3,0.3-14.6,0.9-21.9,1.5
		c-4.8,0.4-9.6,0.9-14.3,1.6c-12.5,1.7-21.4,19.3-15.6,30.7C1063.4,143.3,1068.7,146.5,1079.2,145.4z"/>
	<path class="st0" d="M732.8,268.2c7.7-0.9,15-4.8,23.3-2.8c-2.7,5.6-6.4,8.1-9.3,6.8c-4.1,5.9-8.2,11.7-12.1,17.5
		c-6.7,10.1-4.3,15.4,7.8,16.3c5.6,0.4,11.4-0.5,17.1-0.6c6.9-0.1,13.8,0,21.5,0c-1.6,3.4-2.8,5.9-4.5,9.3c-4.2,0-9.8,0.1-15.4-0.1
		c-0.9,0-2.4-1.2-2.4-1.8c-0.2-3.4-2.8-2.9-4.7-3.1c-7.1-0.5-14.2-0.4-21.3-1c-8.5-0.7-10.9,4.3-12.6,10.6c-1.7,6.5-3.1,13.3-3.6,20
		c-0.6,8.2-0.5,16.5,0.2,24.7c0.5,6.2,1.5,12.7,3.8,18.4c2.8,7,6.8,13.6,11.2,19.8c3.4,4.9,9.5,5.3,15,5.4
		c11.8,0.3,16.6,1.2,28.8-3.9c-1.9-5,3.3-4.5,5.1-6.6c2.3-2.5,4.9-4.6,7.7-7.1c-1.6,7.5-4.9,13.8-12.5,17.8c0.4,0.3,0.8,0.7,1.3,1
		c1.5,0,3.1,0,4.6,0c0.1,0.4,0.2,0.8,0.4,1.2c-1.6,0.5-3.3,1.5-4.9,1.5c-19.6-0.1-39.3-0.3-58.9-0.6c-2.4,0-4.9-1.3-7.3-2.1
		c0.1-0.7,0.2-1.3,0.3-2c1.8-0.2,3.6-0.4,6.3-0.8c-2-1-3.3-1.7-4.7-2.3c-5.8-2.5-8-7.7-9.7-13.1c-0.3-1,0.9-2.6,1.5-3.8
		c0.8-1.6,1.8-3.1,2.7-4.6c1.6-4.1-1.3-10-5.7-11.1c2,3.9,4,7.5,5.9,11.2c-5.3,1.3-7.1-2.3-8.3-6.1c-4-12.1-3.6-24.4-0.8-36.8
		c1.8-7.9,3.4-15.8,5.2-23.7c0.9-4.1,0.2-7-4.9-6.8c-0.6,0-1.2-0.7-2.1-1.7c7.4-0.3,14.6-0.7,15.6-10.1c0,0-0.2,0.2-0.2,0.2
		c3.9-6.4,7.8-12.8,11.6-19.2C726.7,274.7,729.7,271.5,732.8,268.2z"/>
	<path class="st0" d="M732.8,268.2c-3.1,3.2-6.2,6.5-9.3,9.7c-3.9,6.4-7.8,12.8-11.6,19.2c0,0,0.2-0.2,0.2-0.2c-5.9,1-3-3.1-2.3-4.7
		c2-4.2,4.4-8.2,7.1-11.9c3.6-4.9,7.7-9.5,11.8-14.1c0.8-0.9,2.5-1.1,3.7-1.6C732.6,265.8,732.7,267,732.8,268.2z"/>
	<path class="st0" d="M743.7,314.2c-6.6,1.9-16-4.6-17.3,8.3c-0.5-0.4-0.9-0.9-1.4-1.3c1.3-2.9,2.2-6.1,4.2-8.6
		C730.8,310.6,740.1,312,743.7,314.2z"/>
	<path class="st0" d="M616.5,109.2c-6.8-12.4-14.2-22.9-25.5-30.3c-13.6-8.9-26.8-18.3-40.2-27.5c-0.5-0.3-0.7-0.9-2.1-2.8
		c8.4,0,15.7-0.3,22.9,0.2c2.3,0.2,4.6,2.5,6.5,4.2c9.3,8.6,18.5,17.4,27.8,25.9c5.9,5.4,12.1,10.4,18.2,15.6
		c5.8,5,12.3,9.4,17.2,15c5.3,6,11.2,11.9,10.5,21.5c-0.5,6.4,1.6,13.1,1.7,19.6c0.1,12.9-6.1,23.2-15.2,31.5
		c-17.3,15.8-38.1,24.8-61.5,25.3c-14.8,0.3-29.4-4-42.1-12.2c-8.2-5.3-13-13.6-17.1-22.3c-0.5-1-1.9-1.5-2.6-2.4
		c-0.9-1.2-2-2.5-2.1-3.9c-0.6-9.7-1.1-19.4-1.2-29.2c0-2.7,1.3-5.5,2.5-7.9c4.7-9.2,11.5-16.1,21.1-20.6c18.5-8.8,37.4-12.2,57.5-7
		C600.4,103.9,608.1,106.6,616.5,109.2z M625.1,118.6c-7.6-3.4-15-7.1-22.7-10c-15.6-6-31.6-7-47.6-1.4c-2.7,1-7.2,2.8-4.8,7.9
		c0.2,0.5-0.2,1.7-0.7,2.2c-2.4,2.7-5.1,5.2-7.4,7.9c-2.7,3.3-6.4,6.5-7.2,10.2c-1.9,8.5-2.2,17.3-3.2,25.9
		c3.9,0.3,7.5,8.6,6.5,12.7c-0.7-0.5-1.3-0.9-3-2c6.9,14.1,15,25.6,29.7,30c12.5,3.8,24.6-1.3,36.8-3.2c2.9-0.4,6-1.4,8.3-3.1
		c8.2-6.3,16-12.6,16.8-24.6c0.4-5.7,3.7-11.1,5.6-16.7c0.8-2.3,1.7-4.8,1.5-7.2c-0.5-5.9-1.5-11.8-2.3-17.7
		C629.3,125.9,627.2,122.2,625.1,118.6z"/>
	<path class="st0" d="M655.9,169.6c-9.6,21.9-32.8,36.3-56.5,36.4c3.9-1.2,7.7-2.3,11.5-3.7c7.7-2.7,15.6-5,20.8-12
		c0.3-0.4,0.8-0.7,1.2-0.9C642.7,185.3,649.7,177.9,655.9,169.6z"/>
	<path class="st0" d="M819.7,390.1c-3-4-6.5-7.7-8.9-12.1c-2.2-4-3.5-8.6-4.9-13c-0.7-2.2-0.6-4.6,0.2-7.1c0.3,1.5,0.6,3,0.9,4.5
		c0.5,0,1,0,1.5,0c0-2.3,0.1-4.5,0-6.8c-0.1-1.2-1-2.6-0.6-3.6c1.3-4,3.1-7.9,4.4-12c2.6-8.3,8.3-14,14.6-19.7
		c10.7-9.8,23.1-16.4,36.5-20.8c6.2-2.1,13.4-1.6,20.1-1.8c14.3-0.4,28.4-0.4,42.4,4.2c14.2,4.6,23.1,17.9,19.9,32.3
		c-0.1,0.4-0.5,0.8-1.3,1.8c-1.4-2.7-2.6-5-3.8-7.3c-0.4,0-0.9,0-1.3-0.1c-0.9,4-2.1,8-2.6,12c-0.4,2.9-1.3,4.1-4.3,4.2
		c-8.5,0.2-16.9,0.6-25.4,1c-11.2,0.5-22.5,1.2-33.7,1.4c-9.8,0.2-19.6-0.3-29.4-0.4c-8.5,0-11,3.2-10.1,11.8
		c0.3,2.4-0.4,4.9-0.7,7.3c1.4,2.2,3,4.8,4.6,7.5c2.1,3.7,4.2,7.4,6.2,11.1c0.5,0.9,0.5,2.1,0.7,3.1c0.2,1.1,0,2.6,0.7,3.2
		c6.8,5.7,12.3,13.6,22.2,14.2c4.6,0.3,9.3-0.2,13.9,0.1c2.9,0.2,5.7,1.5,8.6,1.6c2.1,0.1,4.3-1.3,6.4-1.4
		c6.5-0.3,12.9-0.2,19.4-0.4c1.4,0,2.7-0.7,4-2c-1.1-0.3-2.2-0.5-3.3-0.8c-0.2-0.4-0.4-0.8-0.5-1.2c3.8-1.7,7.5-3.5,11.3-5.2
		c4.4-2,8.9-3.8,13-6.3c2.2-1.3,3.5-4.1,5.5-5.9c2.8-2.6,5.9-5,8.8-7.4c0.4,0.4,0.8,0.8,1.3,1.2c-1.7,2.2-3.7,4.3-5.1,6.6
		c-4.6,7.5-9.3,15-13.6,22.7c-1.6,2.9-3.4,4.2-6.6,4c-4.2-0.2-8.5,0-12.9-0.5c12.3,2.7,15-8.5,22-13.4c-0.3-0.4-0.6-0.8-0.8-1.2
		c-2.2,2-5,3.7-6.5,6.2c-3.4,5.4-8.7,5.5-13.8,5.8c-20.5,1.5-41.1,3.2-61.7,4c-8,0.3-16.1-1.8-24.1-3c-1.6-0.2-3-1.6-4.5-2.5
		c0.2-0.7,0.4-1.3,0.5-2c9.5,1.9,19,3.8,28.5,5.7c0.1-0.4,0.2-0.9,0.3-1.3c-4-1.1-8-1.9-11.8-3.4c-7.8-3.1-15.5-6.4-23.1-10
		c-1.4-0.7-1.8-3.3-2.6-5C819.9,390.4,819.7,390.1,819.7,390.1z M919.8,337.8c0-5.6-0.2-10.2,0.1-14.7c0.2-4.1,0.9-8.2,1.2-12.3
		c0.1-1-0.4-2.8-1-3.1c-5.6-1.9-11.2-4-17-5.1c-4.3-0.8-9-0.2-13.5-0.2c-11.4-0.1-22.9-2.2-33.8,3.6c-8.5,4.5-16.9,8.5-22.3,17.4
		c-3.6,5.9-1.4,10.5,0.8,14.8c0.8,1.6,6.1,1,9.3,1.4c1,0.1,2-0.1,3-0.1c12.8-0.1,25.6-0.2,38.4-0.3c6.3-0.1,12.6-0.3,18.9-0.6
		C909.2,338.4,914.4,338.1,919.8,337.8z M883.1,409.8c0-0.3,0-0.5,0-0.8c-4,0-7.9,0-11.9,0c0,0.3,0,0.5,0,0.8
		C875.2,409.8,879.2,409.8,883.1,409.8z"/>
	<path class="st0" d="M813.5,329.5c-1.7,4.6-3.4,9.2-5.1,13.8c-0.6-0.2-1.1-0.4-1.7-0.7c1.8-4.6,3.6-9.1,5.4-13.7
		C812.6,329.2,813,329.4,813.5,329.5z"/>
	<path class="st0" d="M930.6,389.7c3.7-2.2,7.3-4.5,11-6.7c0.3,0.5,0.6,1.1,1,1.6c-3.7,2.1-7.5,4.2-11.2,6.3
		C931.1,390.5,930.8,390.1,930.6,389.7z"/>
	<path class="st0" d="M396.8,199.4c-7.7,0.4-14.2,0.7-20.5,1c0-6.1,0-12.6,0-19.9c-2.3,1.4-4.6,2.6-6.5,4.2
		c-25.8,20.5-54.6,22.9-84.8,12.9c-10.8-3.6-17.4-13-19.4-23.8c-3.1-17.2-2.8-34.8,8.4-49.3c9.9-12.9,22.8-22.2,40.2-23.1
		c3.4-0.2,6.7-1.4,10.1-2c18.8-3.2,37-0.7,55.1,5c3.7,1.1,7.8,0.8,11.8,1.1c0.6,0,1.7-0.3,1.7-0.7c1.2-5.6,6.5-4.8,9.9-6.6
		c0.7,3,1.3,6,2,8.9c0.5-0.1,1.1-0.2,1.6-0.3c-0.6,1.7-1.1,3.4-1.8,5.5c-1.3-1-2.3-1.7-3.5-2.6C394.8,139.6,391.7,169.3,396.8,199.4
		z M300.2,121.1c-0.4,0.5-0.8,1-1.2,1.5l0.2-0.2c-0.7,1.3-1.5,2.6-2.2,3.9l0.2-0.1c-0.7,1.4-1.3,2.9-2,4.3l0.2-0.2
		c-1.8,2-4.5,3.8-5.2,6.1c-2.4,7.8-6.2,15.6-2.6,24.1c0.5,1.3,0,3,0.2,4.5c0.7,4.7,1.2,9.5,2.4,14.1c1.8,7.4,6.4,13.4,12.8,17
		c9.9,5.6,21.1,3.3,31.6,2.4c13.8-1.2,22.2-11.1,29.5-21.8c8-11.9,12.1-25.5,16-39.1c0.4-1.5,0.6-3.7-0.1-4.8
		c-3.7-5.4-7.6-10.8-11.7-15.9c-1.9-2.3-4.6-3.9-6.6-6c-0.4-0.4,0.3-2,0.5-3c3.4,3.6,6.9,7.2,10.3,10.8c0.4-0.5,0.9-1,1.3-1.5
		c-3.9-3.1-7.8-6.2-11.7-9.2c-2.6-1.6-5.2-4.3-8-4.5c-9.2-0.7-18.5-1.5-27.6-0.3c-9.8,1.4-18.3,6.3-23.3,15.7c-0.6,1-2,1.6-3,2.4
		L300.2,121.1z"/>
	<path class="st0" d="M879.6,111.1c1.7,2.8,4,3,6.8,1.7c4.8-2.3,9.6-4.4,14.3-6.8c15.7-8,32.5-9.5,49.7-7.9
		c7.7,0.7,15.4,2.4,23.1,3.6c0.3,0,0.6,0,0.9,0c13.1,9.9,18.3,17.8,10,36.4c-3,6.7-8.1,12.7-12.8,18.5c-1.5,1.8-4.9,2.3-7.5,2.9
		c-8.7,2-16.6,5.4-22.8,11.9c-0.8,0.8-1.2,3.2-0.6,4c2.2,3.2,4.4,6.6,7.4,9c4.1,3.2,9,5.6,13.6,8.2c4.6,2.7,9.2,5.2,13.8,9
		c-4.1,0.3-8.1,0.6-12.8,1c1.5,2.4,2.7,4.4,4.8,7.9c-6.2-0.6-11.7,0-16.3-1.7c-8.8-3.4-17-8.3-25.6-12.2c-8.6-4-17.3-7.7-26.1-11.2
		c-6.1-2.4-12.5-4.3-18.8-6.3c-4.3-1.4-5.8,0.8-5.6,4.9c0.3,5.6,0.5,11.2,0.8,17.1c-1.6,0.1-2.7,0.2-3.8,0.2
		c-11.1-0.1-11.6-1.2-10.1-12.4c1.1-8,0.9-16.1,0.1-24.3c-0.9,1.5-1.7,3.1-2.2,3.9c0-11.1,1-23.1-0.3-34.8
		c-1.2-11.6-4.8-22.9-7.4-35c1.8,0.3,3.5,0.3,4.7,1c3.7,2.2,6.9,1.3,10.2-0.9c5.8-3.7,8.8-1.9,9.4,4.9c0.2,2.7,2.1,5.3,3.3,7.9
		C879.8,111.3,879.6,111.1,879.6,111.1z M960.7,141.8c3.8-8.8,5.2-17.4,1.5-24.6c-3.7-7.2-7.1-17.5-19.2-14.8
		c-0.3,0.1-0.7-0.1-1-0.1c-12.9-0.6-25.5,0.3-37.2,6.7c-2.2,1.2-5,1.8-4.4,5.6c0.1,0.7-2.2,2.7-2.5,2.5c-2.9-1.7-3.5,0.9-4.7,2.3
		c-11.5,13-14.5,29.3-17.4,45.6c-1.5,8.2,0.4,9.9,8.8,9.9c0.7,0,1.3-0.1,2-0.1c8.1,0.3,16.2,0.4,24.3,1c8.4,0.6,16.6-0.2,23.6-5.2
		c5.9-4.3,11.4-9,17.1-13.6c0.5-0.4,0.9-1,1.3-1.5c0.2-0.4,0.2-0.8,0.4-1.4c-1.1,0.3-2,0.5-3,0.7c3.4-8,6.7-15.7,10-23.4
		c0.5,0.1,1,0.2,1.5,0.3C961.4,134.7,961.1,137.6,960.7,141.8z M863.1,120.1c-0.1,0-0.3,0-0.4,0c0,5.6,0,11.2,0,16.8
		c0.5,0,1-0.1,1.4-0.1C863.8,131.3,863.4,125.7,863.1,120.1z"/>
	<path class="st0" d="M974.5,101.6c-0.3,0-0.6,0-0.9,0c-3.9-1.6-7.7-3.3-12.6-5.3c5.9-2.7,13.4-0.6,18.3,4.6
		C977.4,101.2,975.9,101.4,974.5,101.6z"/>
	<path class="st0" d="M879.6,111.1c0,0,0.2,0.2,0.2,0.2c-0.3-1.3-0.6-2.5-1.2-4.9c2.8,1.9,4.4,3,6.3,4.3
		C883.2,113.3,881.6,113.3,879.6,111.1z"/>
	<path class="st0" d="M457,133.8c1.2,15.4,2.4,31.1,3.6,46.7c-0.3,0.1-0.6,0.1-0.8,0.2c-0.4-2.2-0.8-4.4-1.3-7.1
		c-4.3,12.4,1.8,22.2,14,22.9c4.1,0.2,8.3-0.4,12.4-0.6c1.8-0.1,3.5-0.3,5.3-0.4c0.1,0.5,0.3,1,0.4,1.5c-2.6,0.8-5.2,1.8-7.8,2.5
		c-7.6,2.1-15.1,2.6-22-2.5c-3.4-2.5-6.8-2.9-10.8-1.1c-3.7,1.7-7.7,2.9-12.2,4.6c0-2-0.1-3.5,0-4.9c1.5-16.3,3.3-32.7,4.4-49.1
		c0.5-7.7-0.4-15.4-0.5-23.1c-0.4-19.4-0.4-38.8-1.1-58.2c-0.2-6.4-1.7-12.8-2.8-19.9c6.9-0.5,13.8-1,19.8-1.5
		c0,11.2,0,21.7,0.1,32.3c0,0.1,1.1,0.3,2,0.5c-4.3,3.8-3.8,7.7-1.7,12.3c1.2,2.6,3.4,6.8-3.1,8c2.6,4.2,5.9,7.9,7.1,12.2
		c1.2,4.4,0.3,9.3-0.7,14.1c0-3.6,0-7.3,0-10.9c-0.5-0.1-1-0.2-1.6-0.3c-0.6,1.2-1.6,2.4-1.6,3.6c-0.1,4.6,0.3,9.2,0.2,13.8
		C458.5,130.9,457.5,132.4,457,133.8z"/>
	<path class="st0" d="M498.4,188.8c0.5,14.2-8.5,20.9-22.8,17.1c4-0.7,6.8-1,9.5-1.6c4.5-1.1,7.5-3.3,8.2-8.6
		C493.6,193.2,496.6,191.1,498.4,188.8z"/>
	<path class="st0" d="M654.3,308.7c-1.1,2-1.9,4.1-3.2,5.9c-4,5.4-1.9,10.2,0.9,15.2c0.7,1.3,1.7,3.1,1.4,4.4
		c-4.3,19.9-3.9,40-2.7,60.2c0,0.8-0.1,1.5-0.8,2.3c-1.1-8.1-2.2-16.3-3.3-24.4c-0.8,0.1-1.5,0.1-2.3,0.2c-4,11.6-0.2,23.5,0.3,35.5
		c-3,0.2-5.6,0.4-8.3,0.6c5.4,2.1,12.1,0,15.9,6c-10.4,0-20.9,0-31.7,0c1.2-3.8,6.7-6.1,5.1-11.7c-1.2-4.2-0.9-8.8-1.4-14.6
		c-5.1,3.5-9.6,6.4-13.9,9.6c-0.7,0.5-1,2.1-0.7,3c1.4,4.4-0.8,7.2-4.5,8c-7.6,1.6-15.3,2.4-23,3.4c-6.6,0.9-13.2,1.3-19.7,2.3
		c-9.6,1.3-18.9,0.5-28.1-2.3c-1.4-0.4-2.7-1.4-4.1-2.2c0.1-0.6,0.3-1.2,0.4-1.8c3.6,0.3,7.2,0.7,10.8,1c-4-1.9-8.1-3.9-12.2-5.9
		c-7.1-3.4-9.6-10.7-14.2-16.2c-9.4-11.3-5.3-23.5-3.3-35.6c0.4-2.1,0.9-4.2,1.4-6.8c-1.5,0.3-2.4,0.5-3.5,0.7
		c-0.1-0.7-0.3-1.3-0.1-1.7c3-7.1,6.1-14,13.4-18.3c3.4-2,5.9-5.7,8.8-8.6c0.8-0.8,1.5-2.1,2.5-2.3c7.4-2.2,14.8-5,22.4-6
		c11.8-1.5,23.8-2.6,35.6-2.2c10.8,0.4,21.7,2.5,32.4,5c8.7,2,16.9,3.4,24.8-1.9c1.1-0.7,2.4-1,3.7-1.4
		C653.2,308,653.5,308.3,654.3,308.7z M551.6,326.7c-3.2,6.9-6.3,13.8-9.5,20.6c-0.3,0.6-0.8,1.5-1.2,1.5c-5.4,0.2-5.3,5.1-5.5,8
		c-0.5,11.4-0.8,23,4.2,33.8c0.7,1.4,0.2,3.4,0.4,6.5c5.9,3,12.4,7.8,19.6,9.7c6.6,1.7,14.4,1.5,21.1-0.1
		c6.8-1.7,13.9-3.5,18.5-10.9c5.2-8.4,13.3-14.9,16.9-24.5c2.3-6.2,4.5-12.5,7-18.6c2.9-7,2.6-13.6-1.4-20c-1.2-1.9-2.2-4.1-3.8-7.2
		c2.2,1.1,3,1.6,4,2.1c-9.1-19.3-39.6-22.3-59-12.5c-5.5,2.8-9.9,7.6-14.9,11.5c0.3,0.4,0.6,0.8,1,1.2
		C549.9,327.4,550.8,327,551.6,326.7z"/>
	<path class="st0" d="M1024.1,82.6c-2.5-2.7-4.7-5.1-7.1-7.8c1.7-3.4,3.8-5.2,7.7-2.6C1028.1,74.5,1028,76.9,1024.1,82.6z"/>
	<path class="st0" d="M123.4,254.3c-14.1-0.8-28.2-1.5-42.3-2.4c-1.3-0.1-2.7-0.3-3.7-1c-9.9-6.8-16.9-15.5-19.8-27.6
		c-3.3-13.8-1.2-27.7-1.3-41.5c-0.1-9.2,1.2-18.5,1.9-27.7c0.2-3.1,2-3.8,5.1-3.9c16.4-0.6,32.8-1.9,49.3-2.3
		c12.9-0.3,25.9-0.1,38.8,0.8c3.9,0.3,8.3,2.9,11.3,5.7c8.4,8.1,18.1,15.5,21,27.8c1,4.4,1.5,9.1,1.3,13.7
		c-0.3,7.4,0.3,15.5-2.4,22.1c-5.3,12.7-13.4,24.4-26,30.8c-7.1,3.6-16,3.6-24.1,5c-2.9,0.5-6,0.1-9,0.1
		C123.5,254,123.4,254.1,123.4,254.3z M117.5,156c-8.6,0.5-19.1,0.9-29.6,1.7c-6.5,0.5-8.2,1.9-8.2,8.2c0.1,17.1,0.4,34.3,1.2,51.4
		c0.3,7.9,4.8,14.3,11.3,18.6c8.9,5.8,19.1,9.7,29.6,9.6c20.4-0.3,37.6-8.3,48.9-26.2c8.4-13.3,6.1-34.7-4.9-45.8
		C153,160.5,137,156.1,117.5,156z M126,152.1c0-0.4,0-0.8,0-1.2c-3.5,0-7.1,0-10.6,0c-13.8,0.2-27.5,0.3-41.2,0.9
		c-1.8,0.1-4.8,2.7-4.9,4.3c-0.5,7.5-0.4,15.1,0,22.7c0.1,2.1,1.7,4.1,2.7,6.2c0.6-0.1,1.1-0.3,1.7-0.4c-0.2,0.9-0.6,1.9-0.7,2.8
		c-0.1,1.4-0.2,2.8-0.1,4.3c0,0.1,1.6,0.4,1.7,0.3c0.5-1.3,1.1-2.7,1.2-4.1c0.4-7.3,0.7-14.6,0.8-21.9c0.1-8.4,2.7-11.5,11-12
		c8.8-0.5,17.6-0.7,26.4-1.1C117.9,152.6,121.9,152.3,126,152.1z"/>
	<path class="st0" d="M707.4,382.2c-1.9-3.6-3.8-7.3-5.9-11.2c4.4,1.1,7.3,7,5.7,11.1C707.3,382.2,707.4,382.2,707.4,382.2z"/>
	<path class="st0" d="M711.9,297.1c3.9-6.4,7.8-12.8,11.6-19.2C719.7,284.3,715.8,290.7,711.9,297.1z"/>
	<path class="st0" d="M631.4,129.6c0.8,5.9,1.9,11.8,2.3,17.7c0.2,2.3-0.7,4.9-1.5,7.2c-1.8,5.6-5.2,11.1-5.6,16.7
		c-0.8,11.9-8.6,18.3-16.8,24.6c-2.3,1.7-5.4,2.7-8.3,3.1c-12.2,1.9-24.3,7-36.8,3.2c-14.7-4.4-22.8-15.9-29.7-30
		c1.7,1.1,2.3,1.6,3,2c1-4.1-2.6-12.4-6.5-12.7c1-8.7,1.3-17.5,3.2-25.9c0.8-3.8,4.6-7,7.2-10.2c2.3-2.8,5-5.3,7.4-7.9
		c0.5-0.6,1-1.7,0.7-2.2c-2.4-5.1,2.1-6.9,4.8-7.9c15.9-5.7,31.9-4.7,47.6,1.4c7.7,3,15.1,6.7,22.7,10c-0.4,1-1.4,2.1-1.1,2.9
		c1.3,4.4,2.8,8.7,4.4,13c0.4,1.1,1.2,2,1.9,3c0.4-0.1,0.7-0.2,1.1-0.3C631.4,134.6,631.4,132.1,631.4,129.6z M583.2,111.6
		c-13.2,0.6-24.2,5.2-31.5,16c-16.7,24.6-6.7,60.3,28.5,69c2.4,0.6,5.4,0.3,7.8-0.7c18.6-7.7,30.4-21.2,34-41.2
		c3.3-18.6-4.8-34.2-20.8-39.6C595.4,113.1,589.2,112.7,583.2,111.6z M549.3,121.5c0.3,0.4,0.7,0.7,1,1.1
		c6.4-4.8,12.7-9.6,19.1-14.4c-0.3-0.4-0.6-0.8-0.9-1.2C562,111.8,555.7,116.7,549.3,121.5z"/>
	<path class="st0" d="M631.4,129.6c0,2.5,0,5,0,7.6c-0.4,0.1-0.7,0.2-1.1,0.3c-0.6-1-1.5-1.9-1.9-3c-1.6-4.3-3.1-8.6-4.4-13
		c-0.2-0.8,0.7-1.9,1.1-2.9C627.2,122.2,629.3,125.9,631.4,129.6z"/>
	<path class="st0" d="M919.8,337.8c-5.3,0.3-10.6,0.6-15.8,0.8c-6.3,0.3-12.6,0.5-18.9,0.6c-12.8,0.2-25.6,0.2-38.4,0.3
		c-1,0-2,0.2-3,0.1c-3.3-0.3-8.5,0.3-9.3-1.4c-2.2-4.4-4.4-8.9-0.8-14.8c5.4-9,13.8-12.9,22.3-17.4c10.9-5.8,22.4-3.7,33.8-3.6
		c4.5,0,9.1-0.6,13.5,0.2c5.8,1.1,11.4,3.2,17,5.1c0.6,0.2,1.1,2,1,3.1c-0.3,4.1-1,8.2-1.2,12.3
		C919.6,327.7,919.8,332.3,919.8,337.8z M845.3,328.8c0.8,0.4,1.2,0.9,1.6,0.9c19.2-0.1,38.5-0.2,57.7-0.6c1.1,0,3.2-2.2,3.2-3.3
		c0-3.7-0.8-7.3-4.7-9.2c-2.5-1.3-5-2.6-7.6-3.8C874.1,302.9,858.1,310.6,845.3,328.8z"/>
	<path class="st0" d="M883.1,409.8c-3.9,0-7.9,0-11.8,0c0-0.3,0-0.5,0-0.8c4,0,7.9,0,11.9,0C883.2,409.2,883.1,409.5,883.1,409.8z"
		/>
	<path class="st0" d="M819.7,390.1c0,0,0.2,0.2,0.2,0.2C819.9,390.4,819.7,390.1,819.7,390.1z"/>
	<path class="st0" d="M297.1,126.3c0.7-1.3,1.5-2.6,2.2-3.9c0,0-0.2,0.2-0.2,0.2c0.4-0.5,0.8-1,1.2-1.5c0,0-0.2,0.2-0.2,0.2
		c1-0.8,2.5-1.3,3-2.4c5-9.4,13.6-14.4,23.3-15.7c9-1.3,18.4-0.4,27.6,0.3c2.7,0.2,5.3,3,8,4.5c0,0,0.1-0.1,0.1-0.1
		c-0.2,1-1,2.6-0.5,3c2.1,2.2,4.8,3.7,6.6,6c4.1,5.1,8,10.4,11.7,15.9c0.8,1.1,0.6,3.3,0.1,4.8c-3.9,13.6-8,27.2-16,39.1
		c-7.2,10.7-15.7,20.6-29.5,21.8c-10.5,0.9-21.7,3.2-31.6-2.4c-6.4-3.6-11-9.6-12.8-17c-1.1-4.6-1.7-9.4-2.4-14.1
		c-0.2-1.5,0.3-3.2-0.2-4.5c-3.6-8.6,0.3-16.3,2.6-24.1c0.7-2.4,3.4-4.1,5.2-6.1c0,0-0.2,0.2-0.2,0.2c0.7-1.4,1.3-2.9,2-4.3
		C297.3,126.1,297.1,126.3,297.1,126.3z M301,163.3c1.5,3.9,3.4,11.2,6.8,17.7c3.1,6.1,15.6,12.2,20.5,10
		c7.5-3.4,15.1-7.2,21.6-12.2c13.1-10,16.6-25.6,21-40.4c0.6-2.1,0-5.1-1-7.1c-5.5-10.4-14.7-16.1-25.8-18.9
		c-2.3-0.6-5.2-0.7-7.4,0.1C315.8,120,303.4,135.3,301,163.3z"/>
	<path class="st0" d="M361.9,108c3.9,3.1,7.8,6.2,11.7,9.2c-0.4,0.5-0.9,1-1.3,1.5C368.9,115.1,365.4,111.5,361.9,108
		C362,107.9,361.9,108,361.9,108z"/>
	<path class="st0" d="M295.3,130.4c0,0,0.2-0.2,0.2-0.2S295.3,130.4,295.3,130.4z"/>
	<path class="st0" d="M297.1,126.3c0,0,0.2-0.1,0.2-0.1C297.3,126.1,297.1,126.3,297.1,126.3z"/>
	<path class="st0" d="M299.1,122.6c0,0,0.2-0.2,0.2-0.2C299.3,122.4,299.1,122.6,299.1,122.6z"/>
	<path class="st0" d="M300,121.3c0,0,0.2-0.2,0.2-0.2C300.2,121.1,300,121.3,300,121.3z"/>
	<path class="st0" d="M960.7,141.8c0.4-4.2,0.7-7.1,0.9-10.1c-0.5-0.1-1-0.2-1.5-0.3c-3.3,7.7-6.6,15.5-10,23.4c1-0.2,1.9-0.5,3-0.7
		c-0.1,0.6-0.1,1.1-0.4,1.4c-0.3,0.6-0.8,1.1-1.3,1.5c-5.7,4.6-11.2,9.3-17.1,13.6c-7,5.1-15.1,5.8-23.6,5.2
		c-8.1-0.6-16.2-0.7-24.3-1c-0.7,0-1.3,0.1-2,0.1c-8.4-0.1-10.3-1.8-8.8-9.9c3-16.2,5.9-32.6,17.4-45.6c1.3-1.4,1.8-4,4.7-2.3
		c0.3,0.2,2.7-1.8,2.5-2.5c-0.7-3.7,2.1-4.3,4.4-5.6c11.6-6.4,24.3-7.3,37.2-6.7c0.3,0,0.7,0.2,1,0.1c12.2-2.6,15.5,7.6,19.2,14.8
		C965.9,124.4,964.5,133,960.7,141.8z M888.4,171.1c12.8-0.9,23.9-3.7,34.5-8.5c10.8-4.9,18.4-13.1,23.1-23.9
		c4.2-9.6,2.5-18.9-5.1-24.3c-9.2-6.6-17.2-8.5-26.1-1.5c-5.3,4.2-10.5,8.8-14.8,14c-9.1,11.2-12.6,24.7-15,38.7
		C884.2,169.9,885,171.9,888.4,171.1z"/>
	<path class="st0" d="M863.1,120.1c0.3,5.6,0.7,11.2,1,16.8c-0.5,0-1,0.1-1.4,0.1c0-5.6,0-11.2,0-16.8
		C862.8,120.1,863,120.1,863.1,120.1z"/>
	<path class="st0" d="M551.6,326.7c-0.8,0.4-1.7,0.7-2.5,1.1c-0.3-0.4-0.6-0.8-1-1.2c4.9-3.9,9.4-8.7,14.9-11.5
		c19.4-9.8,49.9-6.8,59,12.5c-1-0.5-1.9-1-4-2.1c1.7,3.1,2.6,5.3,3.8,7.2c4,6.4,4.3,13,1.4,20c-2.6,6.1-4.8,12.4-7,18.6
		c-3.5,9.6-11.6,16.1-16.9,24.5c-4.6,7.4-11.7,9.2-18.5,10.9c-6.7,1.6-14.5,1.8-21.1,0.1c-7.3-1.9-13.8-6.7-19.6-9.7
		c-0.1-3.2,0.3-5.1-0.4-6.5c-5-10.8-4.7-22.4-4.2-33.8c0.1-2.9,0-7.8,5.5-8c0.4,0,1-0.9,1.2-1.5
		C545.3,340.5,548.4,333.6,551.6,326.7z M546.4,362.8c0.5,10.5,2,18.3,7,25c4.1,5.6,16,11.6,20.9,9.4c7.5-3.4,15-7.3,21.6-12.2
		c11.2-8.3,14.5-21.4,19.4-33.7c3.2-8.1,1.5-14.2-4.1-20.4c-11.2-12.5-25.9-15.2-40.6-7.1C554.4,333,548.7,348,546.4,362.8z
		 M538.6,374.1c-0.6,0.1-1.2,0.3-1.8,0.4c0.8,3.4,1.7,6.7,2.5,10.1c0.4-0.1,0.8-0.2,1.2-0.2C539.8,380.9,539.2,377.5,538.6,374.1z"
		/>
	<path class="st0" d="M126,152.1c-4,0.2-8.1,0.5-12.1,0.7c-8.8,0.4-17.6,0.6-26.4,1.1c-8.4,0.5-10.9,3.5-11,12
		c-0.1,7.3-0.4,14.6-0.8,21.9c-0.1,1.4-0.7,2.8-1.2,4.1c0,0.1-1.7-0.1-1.7-0.3c-0.1-1.4-0.1-2.8,0.1-4.3c0.1-0.9,0.4-1.9,0.7-2.8
		c-0.6,0.1-1.1,0.3-1.7,0.4c-0.9-2.1-2.6-4.1-2.7-6.2c-0.3-7.6-0.5-15.2,0-22.7c0.1-1.6,3.1-4.2,4.9-4.3c13.7-0.6,27.5-0.7,41.2-0.9
		c3.5-0.1,7.1,0,10.6,0C125.9,151.3,125.9,151.7,126,152.1z"/>
	<path class="st0" d="M549.3,121.5c6.4-4.8,12.8-9.7,19.1-14.5c0.3,0.4,0.6,0.8,0.9,1.2c-6.4,4.8-12.7,9.6-19.1,14.4
		C550,122.2,549.6,121.9,549.3,121.5z"/>
	<path class="st0" d="M538.6,374.1c0.6,3.4,1.3,6.8,1.9,10.2c-0.4,0.1-0.8,0.2-1.2,0.2c-0.8-3.4-1.7-6.7-2.5-10.1
		C537.4,374.3,538,374.2,538.6,374.1z"/>
</g>
</svg>
