<?xml version="1.0" encoding="utf-8"?>
<!-- Generator: Adobe Illustrator 19.0.0, SVG Export Plug-In . SVG Version: 6.00 Build 0)  -->
<svg version="1.1" id="Layer_1" xmlns="http://www.w3.org/2000/svg" xmlns:xlink="http://www.w3.org/1999/xlink" x="0px" y="0px"
	 viewBox="-58 303.4 494.1 187.6" style="enable-background:new -58 303.4 494.1 187.6;" xml:space="preserve">
<style type="text/css">
	.st0{fill:#FFFFFF;}
</style>
<g>
	<path class="st0" d="M94,427c-0.6-10.2-2.3-16.1-13.4-22.8c-11.1-6.7-24.6-10.2-40.3-0.6c0,0,4.1-13.4-10.2-21.9S2.9,381.1-4.1,387
		c-7,5.8-25.1,27.5-25.1,27.5l12.3,20.2l5.8-11.4L55,458.1l-0.9,6.7l27.8-1.2c0,0,0-7.3,3.2-13.4C88.2,443.9,94.6,437.2,94,427z
		 M19.8,416.4l-19.6-9c0,0,6.3-16.2,16.7-11.1C28.8,402.1,19.8,416.4,19.8,416.4z M66.3,439.2L40,426.1c0,0,8.2-18.7,23.7-9.1
		C76.6,425.1,66.3,439.2,66.3,439.2z"/>
	<path class="st0" d="M122.4,396.3l15.2-5l-68.4-47.9l-23.4,10.2l3.5,17l5.8-4.4l51.5,58.8l3.5-13.4l-15.2-21l8.5-7.3L122.4,396.3z
		 M87.3,382.8l-17.2-22.2l24.3,16.1L87.3,382.8z"/>
	<polygon class="st0" points="89.7,336.6 88.8,351.2 105.7,346 126.5,376.4 146.4,382.8 116.3,343.4 125,341 117.4,329.3 	"/>
	<polygon class="st0" points="131.2,326.1 127.7,340.1 140.5,338.4 148.1,369.1 162.4,379.3 147.5,336.6 154,336 149.3,324.3 	"/>
	<polygon class="st0" points="155.4,324.6 166.8,374.6 177.6,374.6 176.5,364.7 170.3,364.7 163.6,324.3 	"/>
	<polygon class="st0" points="175.6,322.9 170.9,332.2 174.7,332.2 181.2,374 194.6,373.8 194.3,364.7 186.7,364.1 186.4,352.1 
		191.7,352.1 191.1,342.8 185.2,343.1 185.5,332.8 195.8,332.5 196.1,322.3 	"/>
	<polygon class="st0" points="204.3,322.3 198.4,332.8 206.6,332.5 196.9,365.3 202.5,376.4 213,332.5 219.5,333.1 221.5,323.2 	"/>
	<path class="st0" d="M264.5,331.9l-11.7,7.3l6.1,1.5L220.3,384l8.8,0.9l8.5-10.8l7.3,1.2l-6.4,13.7l5.8,7l33-61.1L264.5,331.9z
		 M248.7,370.2l-5-2.3l11.1-11.7L248.7,370.2z"/>
	<path class="st0" d="M316.2,358c-2.9-12.3-17.5-16.7-17.5-16.7l-13.7,7l6.1,1.2l-43.9,46.2c0,0,6.1,12,17.2,13.7
		c11.1,1.8,28.4-4.7,38-14.3C312,385.5,319.1,370.2,316.2,358z M304.8,366.4c-0.6,9.9-16.7,26.6-27.2,28.9c-10.5,2.3-14-2.6-14-2.6
		l37.7-34.2C305.7,361.2,304.8,366.4,304.8,366.4z"/>
	<path class="st0" d="M298.4,410.6c0,0-12.9,1.5-17.8,3.5c0,0-5,22.8,6.1,35.1c11.1,12.3,23.7,15.2,34.8,12.9
		c11.1-2.3,25.4-17.5,20.2-40.6c-5.3-23.1-3.2-32.2,9.6-33.9c12.9-1.8,22.5,11.1,24.3,19s0.9,14-8.8,17.5l3.5,12.9
		c0,0,21.6-0.3,22.8-22.5s-19.4-39.9-34.1-43.1c-14.6-3.2-40.2,1.9-38.4,24.1s11,41.9-9.9,44.4C291.7,442.2,298.4,410.6,298.4,410.6
		z"/>
	<path class="st0" d="M237,326c0,0-12.3-2.6-22.9,21c-10.6,23.5-1,29.3,0.2,30c1.2,0.6,11.2,2.2,22.3-18
		C247.7,338.8,241.7,326.4,237,326z M234.1,343.5c-3.3,6.6-8.6,7.5-10.2,6.6c-1.6-0.9-4.7-4.4-0.4-12c4.9-8.6,9.8-6.4,9.8-6.4
		C235.2,332.8,237.4,336.9,234.1,343.5z"/>
	<path class="st0" d="M299.3,326.6c-2.2-2.6-4.8-6.5-10.1-9.6c-11.3-6.5-25.1-4-35.3-0.6c0,0-9.9-11-25.5-5.2c0,0-9.4-8.8-25.7,0.2
		c0,0-13.6-13.5-28.1-0.3c0,0-11.4-10.7-25.4-0.2c0,0-15.1-6.5-25.6,6c0,0-26.2-14.4-45.7,9.7c0,0-35.1-14.4-54.2,17.9
		c0,0-40.1-6.6-63.5,24.9s-8.2,62.8,4.3,79.5c12.5,16.8,53.8,46,109.1,39.4c55.4-6.6,53.4-49.5,50.7-55c0,0,30.8-3.1,26.9-28.8
		c0,0,8.6,1.2,12.1-8.2c0,0,8.7,0.7,11.7-6.2c0,0,5.1,3.5,10.1-0.8c0,0,3.5,3.1,7.8-0.4c0,0,3.1,4.7,10.5,1.6c0,0,1.2,6.2,10.9,5.5
		c0,0,2.7,9.7,12.5,8.6c0,0-3.1,24.4,28.1,29.2c0,0-8.6,30.1,22.2,47.2c30.8,17.1,91.2,5.8,117.3-14.4c10.8-8.4,41.4-33.7,36.3-66.3
		c-4.5-28.7-35.4-53.5-76.4-56.2C341.7,321.9,313.4,319.4,299.3,326.6z M383.1,462.7c-30.8,21.8-93.9,24.2-111.5,5.1
		c-17.5-19.1-9.7-37.4-9.7-37.4c-34.3-3.1-27.7-30-27.7-30c-13.6,0.8-16.4-9.4-16.4-9.4c-9.4,0.4-12.9-7-12.9-7
		c-5.8,3.1-11.7-1.2-11.7-1.2c-4.3,2.3-8.6,0-8.6,0c-4.7,4.3-12.1,1.2-12.1,1.2c-2.3,7.4-12.5,7-12.5,7c-3.9,9.7-16.4,9-16.4,9
		c5.1,29.6-26.9,30-26.9,30c4.3,21.8-5.1,49.9-56.9,51.1C8,482.3-26,454.2-38,428.9c-12.1-25.3-3.5-49.1,16-64.7s49.9-14,49.9-14
		C43.2,319.3,79,331.8,79,331.8c19.5-23.8,46.4-9.7,46.4-9.7c8.6-13.6,24.6-7,24.6-7c13.6-8.6,24.6,0.8,24.6,0.8
		c17.2-12.9,28.5,0.4,28.5,0.4c14-9.7,24.9-0.4,24.9-0.4c16.4-7.8,24.2,6.2,24.2,6.2c32-12.5,46.6,9.9,46.6,9.9s12.3-5.7,29.8-0.2
		s20.7,18.7,20.7,18.7c56.5-1.2,70.9,33.9,71.7,51.8C421.7,420.2,413.9,440.9,383.1,462.7z"/>
</g>
</svg>
