<?xml version="1.0" encoding="utf-8"?>
<!-- Generator: Adobe Illustrator 19.0.0, SVG Export Plug-In . SVG Version: 6.00 Build 0)  -->
<svg version="1.1" id="Layer_1" xmlns="http://www.w3.org/2000/svg" xmlns:xlink="http://www.w3.org/1999/xlink" x="0px" y="0px"
	 viewBox="1235 92 3081 610" style="enable-background:new 1235 92 3081 610;" xml:space="preserve">
<style type="text/css">
	.st0{fill:#FFFFFF;}
</style>
<path class="st0" d="M4069,92v610h160c48,0,87-39,87-87V179c0-48.1-38.9-87-87-87H4069z M4150,625V169h60c13.8,0,25,11.2,25,25v406
	c0,13.8-11.2,25-25,25H4150z M2716,92v610h200v-77h-119V431h119v-77h-119V169h119V92H2716z M3309,92h81v610h-81V92z M3018,92v610h81
	V431h119v-77h-119V169h119V92H3018z M3505,92v610h200v-77h-119V431h119v-77h-119V169h119V92H3505z M2454,92v610h201v-77h-120V92
	H2454z M3807,92v610h201v-77h-120V92H3807z M1938,169v533h81V169h79V92h-238v77H1938z M2231,169v533h81V169h79V92h-238v77H2231z
	 M1535,702h82.1l21.5-153h97.3l21.6,153h82.1L1737.7,92h-100.8L1535,702z M1649.2,474l38-270.1l38.1,270.1H1649.2L1649.2,474z
	 M1235,625v77h164c45.3,0,82-36.7,82-82V453.8c0-37.3-36.8-61.8-41.4-61.8h-0.9c8.5,0,39.3-22,39.3-65V170c0-43.1-34.9-78-78-78
	h-165V625z M1316,625V431h59c13.8,0,25,11.2,25,25v144c0,13.8-11.2,25-25,25H1316z M1316,356V169h56c13.8,0,25,11.2,25,25v137
	c0,13.8-11.2,25-25,25H1316z"/>
</svg>
