<?xml version="1.0" encoding="utf-8"?>
<!-- Generator: Adobe Illustrator 19.0.0, SVG Export Plug-In . SVG Version: 6.00 Build 0)  -->
<svg version="1.1" id="Layer_1" xmlns="http://www.w3.org/2000/svg" xmlns:xlink="http://www.w3.org/1999/xlink" x="0px" y="0px"
	 viewBox="0 0 3555.1 957.9" style="enable-background:new 0 0 3555.1 957.9;" xml:space="preserve">
<style type="text/css">
	.st0{fill:#FFFFFF;}
</style>
<g>
	<path class="st0" d="M1358,188c8.1-7.7,6.3-18.5,12.7-26.2c15.7-1.6,32.2-3.2,48.7-5c16.8-1.8,33.6-3.9,50.5-5.6
		c17.9-1.8,35.8-3.3,53.6-5.2c18.5-1.9,36.9-4.1,55.4-5.9c17.2-1.7,34.4-3,51.6-4.6c8.6-0.8,17.1-2.2,25.7-3.1
		c19.5-1.9,39.1-3.6,58.6-5.4c26.8-2.5,53.6-4.8,80.4-7.5c16.2-1.6,32.3-3.8,48.4-5.9c6.1-0.8,11.4-0.6,16.9,3.3
		c3.7,2.7,9.3,2.8,14.2,3.7c16,2.9,31.7,6.3,45.3,15.9c1.8,1.3,4.1,2,5.8,2.7c2.7-2.7,5-4.9,7.2-7.3c2-2.1,4.2-4.2,5.9-6.6
		c4.5-6.5,10.6-10.5,17.8-13.5c12.5-5.1,25.3-7.5,38.8-7.2c15.6,0.4,31.3,0.3,46.8-2.6c7.4-1.4,15.3-0.7,22.9-1.1
		c6.9-0.4,13.9-1,20.8-2c9.5-1.4,18.4,1.4,27.4,3.5c3.2,0.7,6.1,2.5,9.9,4c0.4,1.3,1.2,3.1,1.4,5c2.7,28.5,5.2,57,8,85.4
		c2,20.5,4.3,41,6.2,61.5c2,22.2,3.4,44.5,5.4,66.7c2.2,25.5,4.8,51,7,76.5c2.9,32.8,5.6,65.6,8.5,98.4c2,22.2,4.5,44.4,6.6,66.5
		c0.5,5.6,0.3,11.3,0.8,17c0.6,7.1,2.5,13.7,10.1,18.1c2.6-4.7,2.2-9.7,2.4-14.4c1.7-40.6,3.1-81.2,4.8-121.7
		c0.9-20.6,2.1-41.2,3.1-61.8c1.6-32.9,3-65.8,4.8-98.7c1.6-28.9,3.6-57.8,5.2-86.7c0.6-11.6,0.2-23.3,0.7-35
		c0.3-5.6,0.8-11.4,2.6-16.6c4.5-13.2,9.7-26.2,15-39.1c1.4-3.5,4.4-6.4,6.7-9.6c2.6-3.5,6.3-6.5,7.8-10.3
		c6.4-17.2,20.5-22.2,36.7-24.4c24.4-3.2,49-5.3,73.7-4.8c4.9,0.1,9.8-1.8,14.7-2.2c21.2-1.8,42.4-4.2,63.6-4.6
		c8.4-0.2,18.1-0.5,25.6,6.2c1.7,1.5,5.1,1,7.1,1.4c2.1,13.1,6.6,25.1,11.3,38.6c3.4-2.9,5.8-4.6,7.7-6.6c3.6-3.9,7.2-7.8,10.4-12
		c2.3-3.1,3.5-6.8,5.7-10c2.7-4,5.6-8,8.8-11.7c9.1-10.6,20.9-14.5,34.6-14.2c6.3,0.2,12.5-1.2,18.8-1.7c18.9-1.6,37.7-3.4,56.6-4.6
		c13.3-0.9,26.6-1,39.9-1.3c6.9-0.2,13.1,2.1,18.8,5.9c2.4,1.6,5,2.9,8,4.7c8.1-13.1,21.5-14.8,33.9-16.3
		c21.7-2.6,43.7-3.2,65.6-4.6c10.2-0.7,20.5-0.5,30.6-2.1c10-1.5,18.8,1.4,27.6,4.8c4.5,1.7,7.5,1.4,10.8-1.3
		c8.6-7.1,18.8-8.5,29.6-8.9c14.3-0.5,28.5-1.8,42.7-3.3c29.4-3.3,59-4.7,88.5-6.2c16.6-0.8,33.2-1.5,49.8-2.5
		c3.9-0.2,7.8-2.1,11.6-2c19.9,0.7,39.8,2.6,58.9,8.8c15.4,5,26.8,15.7,37.6,27c3.6,3.8,7.3,7.6,11.2,11.7
		c6.4-9.1,11.9-17.7,18.1-25.7c8.9-11.6,21.4-19.1,34-25.6c8.3-4.3,18.2-5.6,27.5-7.5c11.1-2.2,22.2-4.2,33.4-5.3
		c17.1-1.8,34.6-1.6,51.5-4.7c15.8-2.9,30.3,0.7,45.2,3.6c6,1.2,11.5,0.2,16.3-2.7c9.8-5.9,20.1-3,30-2.1c6.9,0.6,13.6,3.1,20.3,5
		c23.3,6.4,39.7,21.6,53.2,40.9c14.6,20.9,19.3,45,22,69.4c3.5,32.4,5.5,64.9,8.2,97.4c0.4,4.6,0.7,9.3,1.8,13.8
		c2.1,8.3-1.2,15.9-3.5,23.2c-1.7,5.6-6.2,11.8-11.2,14.6c-9.6,5.5-15.1,13.6-21.2,23.7c3.6,3.2,7.4,6.4,10.9,9.8
		c17.2,16.9,26.8,37.7,30.6,61.3c2.3,14.4,5.7,28.7,6.9,43.2c3.2,37.4,5.2,75,8.2,112.4c1.1,13.5,3.5,27,2.2,40.6
		c-2.5,25.7-8.1,50.2-24.3,71.6c-8.5,11.1-18.2,19.9-30.2,26.8c-2.1,1.2-3.3,3.9-5,5.9c-5.1,6-10.2,12.2-15.5,18
		c-2,2.2-5.1,3.4-6.9,5.8c-7.6,10.3-19.9,11.8-30.6,15.2c-10.9,3.4-23,3.5-34.6,4.5c-29.8,2.6-59.7,4.9-89.5,7.2
		c-4.6,0.4-9.3,0.4-14,0.7c-14.9,0.9-29.9,2.2-44.8,2.6c-20.7,0.5-39.5-5.6-55.6-19c-3.5-2.9-10-4.7-10.6-7.8
		c-1.1-6.6-7.1-9.1-9.1-14.4c-0.6-1.5-1.7-2.8-2.3-3.7c-8.2,2-10,8.3-13.3,13c-11.8,17-26.9,28.8-46.5,36.8
		c-17,6.9-34.3,7.9-51.5,9.5c-40.8,3.9-81.7,6.2-122.5,9.2c-25.2,1.9-50.4,3.9-75.7,5.7c-5.8,0.4-11.7,1.5-17.4-2.3
		c-2.2-1.4-7-1.1-9.4,0.3c-8.1,5-16.9,5.7-25.9,6.3c-26.2,1.8-52.5,3.4-78.8,5.3c-16.3,1.1-32.5,2.3-48.7,4
		c-7.2,0.8-13.8,0.7-19.9-3.8c-3.1-2.3-5.6-1.5-8.9,0.7c-3.9,2.7-8.8,5.1-13.4,5.5c-36.8,3.2-73.7,5.7-110.5,8.7
		c-27.5,2.2-55.1,4.8-82.6,6.9c-25.9,2-51.8,3.9-77.7,5.2c-7,0.4-13.8-1.4-17.6-8.7c-1.4-2.7-4.1-4.8-7-8c-1.8,3.5-3.1,5.7-4,8.1
		c-2.9,7.8-8.5,11.5-16.6,12c-6.6,0.4-13.3,1.4-19.9,1.9c-30.2,2.2-60.4,4.3-90.6,6.6c-37.8,2.9-75.6,5.9-113.4,8.9
		c-12.6,1-25.2,1.8-37.8,2.7c-18.9,1.4-37.8,2.9-56.8,4.2c-20.9,1.4-41.9,2.4-62.8,3.9c-28.5,2.1-57,4.6-85.6,6.7
		c-42.8,3.2-85.6,6.1-128.4,9.3c-14.3,1.1-28.5,2.8-42.7,3.8c-17.6,1.2-35.3,1.8-52.9,3.1c-20.9,1.6-41.7,3.9-62.6,5.6
		c-24.9,2-49.8,3.5-74.8,5.4c-28.9,2.1-57.8,4.3-86.6,6.4c-6.6,0.5-13.3,0.8-19.9,1c-6.5,0.2-11.3-2.5-15.1-8
		c-4.4-6.4-8.7-12.6-8.4-20.8c0-1.5-0.9-3-1.9-5.9c-2.8,2.3-4.7,3.8-6.4,5.4c-7.8,7.2-15.3,14.6-23.3,21.6c-2.9,2.5-6.7,4-10.2,5.7
		c-11.8,5.7-24,8.9-37.2,9.7c-31.2,1.9-62.4,4.9-93.6,7.4c-22.9,1.9-45.7,3.9-68.6,5.5c-15.9,1.1-31.9,1.2-47.9,2.3
		c-17.5,1.3-35,3.5-52.5,4.9c-19.3,1.5-38.5,2.5-57.8,3.9c-44.2,3.1-88.3,6.2-132.5,9.5c-27.6,2.1-55.1,4.8-82.6,6.9
		c-14.9,1.1-29.8,1.7-44.4,2.5c-7.4-7.1-12.1-15.6-14-26.3c-18.5,14-38.6,21.9-58.1,30.7c-8.1,3.7-18.2,3.1-27.5,3.9
		c-20.9,1.9-41.8,3.7-62.7,5.1c-21.3,1.5-42.5,2.6-63.8,4c-13.9,0.9-27.9,2.5-41.8,2.7c-12.2,0.2-23.3-5-33.2-11.6
		c-7.1-4.8-13.4-10.8-19.6-16.6c-8.7-8.1-16.4-7.5-23.1,2.2c-7.9,11.4-19,19.3-30.5,26.7c-12.5,8.1-26.7,9.6-40.8,11
		c-21.2,2.1-42.4,3.3-63.7,4.9c-15.3,1.1-30.5,2.2-45.8,3.4c-20.6,1.6-41.1,3.3-61.7,4.8c-13.3,1-26.6,1.5-39.9,2.4
		c-4.6,0.3-10.3-1.3-12,5.6c-4.1-0.1-9,1.2-12.2-0.5C53.8,950.2,46,940.2,45,924.7c-1.3-19.6-3.5-39-4.2-58.7
		c-0.7-20.9-3.5-41.7-5.4-62.5c-0.5-5.6-0.7-11.3-1.1-16.9c-1.4-21.5-2.6-43-4.3-64.5c-2.5-32.5-5.2-64.9-7.8-97.4
		c-2.4-29.8-4.9-59.6-7.2-89.4c-2.6-34.1-3.8-68.4-7.8-102.4c-2.3-19.2-1-38.7-4-57.6c-2.5-15.6-2.9-31-3.3-46.6
		c-0.3-11.6,3.5-20.9,11.9-29.5c9-9.2,16.8-19.7,24.3-30.1c8.3-11.4,18.1-18.1,33-18.8c24.6-1.1,49-4.3,73.6-6
		c43.8-3.1,87.6-6.3,131.5-8.4c13.5-0.6,27.2,2.1,40.7,3.6c1.8,0.2,3.4,2.4,5.1,3.6c1.5,1.1,3.1,3.1,4.6,3
		c11.8-0.6,20.1,6.9,28.2,13.2c7.5,5.9,16.4,7.5,24.3,11.7c1.4,0.7,4.8-1.2,6.6-2.7c17.3-15.5,35.4-30.1,56-41
		c7.3-3.9,16.3-5.3,24.7-6.4c17.4-2.4,34.9-5.1,52.4-5.3c11.9-0.1,23.6-1.4,35.4-2.1c20.9-1.2,41.8-2.5,62.7-3
		c14.3-0.4,28.1,2,41.4,8.2c8.9,4.2,18.7,6.7,27.8,10.4c6.7,2.7,12.2,0.8,17.7-2.7c7.6-4.8,15.1-9.6,22.8-14.2
		c5.2-3.1,10.7-4.7,17-5c16.6-0.9,33.1-2.6,49.7-4c4-0.3,8-0.1,12-0.5c25.8-2.3,51.6-4.9,77.4-7c26.2-2.1,52.4-4.3,78.7-5.5
		c16.3-0.7,32,4.3,47.2,9.8c2.9,1.1,5.2,4,7.7,6.3c5.7,5.2,10.9,4.1,13.5-3.2c0.7-1.9,0.3-4.2,1.2-5.8c4.2-7.2,8.6-14.2,18.5-14.6
		c17.9-0.8,35.9-2,53.8-3.3c23.5-1.6,47.1-3.5,70.6-5.2c8-0.6,16-0.7,23.9-1.1c24.9-1.3,49.9-2.7,74.8-4.1
		c5.3-0.3,10.6-1.2,15.8-1.9c14-1.9,28-1,41.5,2.4c7.1,1.8,13.2,7.5,19.6,11.5C1350.7,183,1353.9,185.3,1358,188z M3236.1,117.1
		c-3.2-5.8-3.2-5.8-10.1-3c4.5,1.2,7.4,2,10.3,2.8c0.3,0.6,0.8,1.1,1,1.7c1,2.6,3.5,5.9,2.7,7.7c-1.9,4.3-4,0-6-0.9
		c-0.4-0.2-1.4,0.3-1.6,0.7c-1.6,3.6-3.1,1.7-5.2,0.4c-1.3-0.8-3.4-0.1-5.6-0.1c0.6,3,1.1,5.1,1.8,8.4c-8.5-2.8-10.9,3.4-13.6,8.4
		c-0.8,1.5-0.1,4.7,1.1,6.2c0.8,1.1,3.6,1.2,5.4,0.9c2.5-0.4,4.9-1.7,7.3-2.6c-6.9,7.6-6.9,7.6-6.8,19.5c0,2.2-0.7,4.3-1,6.3
		c-12.8,0.6-13.7,1.3-13.2,13.6c0.5,13.6,0.9,27.3,2.4,40.8c1.9,17.8,4.4,35.6,7.6,53.2c2.2,11.8,7.1,22.9,14.6,32.5
		c6.7,8.6,14.6,15.8,25.5,20.4c0.3-2.3,0.6-3.6,0.6-4.8c-0.6-20.9-1.3-41.8-1.8-62.8c-0.2-7.6,0.6-15.3,0.1-22.9
		c-2.7-36.8-1.2-73.6-0.5-110.5c0.1-8.3-2.4-15.8-5.7-23.6C3244.6,115.3,3241,117,3236.1,117.1z M1184.6,561.3l0.2,0.2
		c-0.2-6,4.5-8,8.7-9.7c7-2.8,14.3-4.8,21.6-7.1c1.1-10.4,1-10.8-1.9-17.9c-0.4-1-0.8-3-0.3-3.3c3.8-2.6,1.6-6.2,1.5-9.2
		c-0.6-9.9-1.9-19.6-8.8-28.1c5.5-2.4,6.4-6.3,6-11c-1.8-22.2-3.4-44.4-5.3-66.6c-0.6-7.5-2.4-15-2.7-22.6
		c-0.2-7.2,1.4-14.5-2.9-21.1c-0.6-0.9-0.1-2.5,0-3.7c0.3-4.9,1.2-9.9,1-14.8c-0.6-13-1.7-25.9-2.5-38.9c-0.5-8.5,0.4-9.2,8.6-9.3
		c2.3,0,4.6-0.1,7-0.3c10.3-0.6,17.6,3.4,21.1,12.9c2.3,6.2,4.2,12.7,4.8,19.2c1.2,12.5,1.3,25,1.9,37.6c0.1,1.9,0.6,3.9,0.8,5.6
		c10.2,4.2,21.7,2.8,30.2,10.8c-9.9-2-19.7-4-30.5-6.3c1.9,32.7,4,64.5,8.4,97.8c5.4-2.7,9.4-4.8,14-7.1c4.4,4.8,9.6,3.1,14.9,0.6
		c4.3-2,8.7-3.7,13-5.5c0.3,0.7,0.5,1.4,0.8,2.1c-8.7,9-20.4,9.9-32.3,10.6c4,9.3,5.4,10.1,13.3,7.2c3.7-1.4,7.2-3.4,11-4.7
		c1.4-0.5,3.2,0.3,6.5,0.7c-2.5,2.3-3.5,3.5-4.8,4.3c-8.7,5.1-19.3,5.2-28,10.5c-0.3,0.2-1.1-0.5-2.1-1c0.3-2.2,0.5-4.5,0.9-7.6
		c-8.4,5.7-8.8,17.6-1.8,29.7c1.4,0,3.1,0.3,4.7,0c12.3-2.5,24.6-5.1,37-7.8c3.2-0.7,6.4-1.9,9.6-2.5c13.9-2.9,27.8-5.9,41.7-8.5
		c5.3-1,10.8-1.2,17.2-1.8c-2.7,5.9-6.6,6.4-10.6,6.5c-3,0.1-6,0-8.9,0.6c-9.7,2.1-19.3,4.7-29.1,6.6c-5.4,1.1-11.7,0.1-12,8.6
		c0,1-3.9,1.9-6.9,3.2c0.4-3.6,0.7-5.4,1-8.1c-15.7,3.4-30.8,6.6-46.6,10c0.4,6.6,0.7,12.1,1.2,19.1c9.2-3.3,17-6.1,26.3-9.4
		c-2.9,7.2-7.9,7.9-12.6,9c-3.2,0.7-6.7,1-9.6,2.4c-1.4,0.7-1.7,3.6-2.5,5.5c1.8,0.4,3.7,1.4,5.2,1c3.5-0.8,7.3-1.8,10.3-3.7
		c8.5-5.5,20.2-6.9,24.4-18.4c0.3-0.9,3.4-1.1,5.3-1.1c3.2,0,6.6,1.1,9.5,0.4c9.1-2.2,18-4.8,26.9-7.6c2.2-0.7,5-2.6,5.6-4.5
		c1.8-5.7,5.4-6.4,10.1-4.7c5.8,2,11.1,0.6,16.6-1.1c7.2-2.2,7.9-2.9,7.4-10.6c-1.1-15.9-2.4-31.8-3.6-47.8
		c-1.6-20.9-2.8-41.9-4.9-62.7c-2-20.3,0-41.4-10.8-60.2l-0.2,0.1c1.6,0,3.2,0,6.1,0c-1-7.1-2.1-13.5-2.9-20
		c-0.4-3.2-0.5-6.5-0.7-9.8c-0.1-3.3,0.4-6.7-0.2-9.9c-2.2-11.8-4.4-23.5-7.2-35.2c-2.6-10.8-8-20.3-15.5-28.7
		c-3.6-4-7.3-6.2-13-5.2c-5.4,0.9-9.8-2.4-11.7-7.1c-3.8-9.3-3.8-9.3-13.4-9c-1,0-2.1,0.2-2.9-0.2c-10.4-5.5-21.6-2.3-32.4-3.1
		c-4.1-0.3-8.7,0.3-14.1,3.9c6.8,1.2,11.8,1.6,16.5,2.9c4.6,1.3,8.9,3.6,13.3,5.5c-4.5,1.8-9.2,0.4-12.4,2.1
		c-6.9,3.6-13.8,3.3-21,3.3c-0.5,0-1,0.8-1.8,1.5c0.2,1.9,0.4,4.1,0.7,7.9c-2.7-2.8-4.2-4.4-5.7-6c-6.5-7.2-13.3-7.9-22.2-4.5
		c-5.2,2-9.8,5.5-16.2,5.3c-4.3-0.2-9,3-13.1,5.4c-1.2,0.7-1.9,5.1-0.9,6.1c4.6,4.8,5.3,10.7,5.7,16.7c-8.3,4.3-8.2,4.8-3.9,13.3
		c1.7,3.4,2.8,7.7,2.5,11.4c-0.4,5.3-2.4,10.4-3.7,15.6c-5.6-3.8-5.8-3.8-5.4-11c0.4-8.3-0.3-15.9-10.2-18.5
		c5.8-9.5,3.5-15.8-5.6-19.2c-4.4-1.6-8.5-4.2-12-6c0-5.8,6.4-8.2,3-13.8c-4.9,2.3-9.8,4.5-14.3,6.6c-3.8-3-6.8-5.3-10.6-8.1
		c-2.1,3.5-3.9,5.9-5,8.5c-2.7,6.2-2.3,13.7-7.8,18.7c-0.6,0.5-0.9,2.4-0.5,2.7c4.4,4.4-0.3,12.7,7.7,16.1c-2.8,2-6.2,4.4-7.6,3.6
		c-5.8-3.3-10.5-1.7-14.5,1.9c-4.8-3.1-8.8-5.7-13.5-8.7c-1,3.5-1.6,5.9-2.3,8.5c-6.3-0.7-12.1-1.3-19-2c0.3,6.6,0.8,11.8,0.7,17
		c-0.2,8.7,6.3,16,4.5,25.1c-0.3,1.2,2.5,3.5,4.3,4.7c1.3,0.9,3.3,0.8,5,1.2c-1.7,3.6-3,6.4-4.5,9.5c6.1,2.5,11.2,4.6,17.2,7
		c-2.7,2.1-4.1,3.3-5.7,4.6c0.8,5.5,1.6,11.1,2.3,16c-4.9-0.3-8.9-0.6-12.8-0.9c1.3-3.1,2.7-6.2,4.2-9.6c-6.6,2.8-6.6,2.9-4,9.4
		c-4.9,5.2-6.2,10.7-2,17c4.5-5.2,10.3-2.8,15.4-2.4c3.3-6.3,4.1-6.9,12.8-8.8c-3.7,6-6.7,11.5-12.8,14.6
		c-5.4,2.7-6.8,11.9-15.9,8.4c1.4,21.8,2.5,42.6,4,63.5c1.7,23.9,3.7,47.8,5.8,71.7c1.1,13,2.6,26,4.1,41.2
		c9.6-7.5,21.7-6.4,26.8-17.4c0.3-0.7,1.6-1.1,2.5-1.4c7.6-2.4,15.1-5,22.8-7c1.6-0.4,3.8,1.2,7.3,2.5c-10.7,8.3-24.7,6.1-33,16.4
		c5.7,2.4,9.9,0.5,14.1-1.4c4.9-2.2,9.7-4.5,14.7-6.2c1.8-0.6,4,0.2,6.6,0.5c-1.6,5.9-4.6,8.4-9.5,8.4c-8.7-0.1-16.4,3.3-23.1,8.2
		c-5.1,3.7-10,4.7-16.1,2.2c-0.2-1.7-0.4-3.5-0.6-5.4c-12.1,2.7-11,6.6-11.8,14.5c-0.6,5.6-0.9,11.7,0.9,16.8
		c2.1,5.9,0.3,11.2,0.6,16.8c2.2,34.7,6.1,69.3,7.8,104.1c1.1,22.3,3.5,44.5,5.3,66.7c0.9,10.8,1.7,21.7,2.6,33.4
		c3.9-0.3,6.8-0.3,9.7-0.8c13.3-2.4,26.7-4,40.3-4.7c35.2-1.8,70.4-4.1,105.6-6.7c22.9-1.7,45.8-3.6,68.1-9.6
		c34.1-9.1,54.3-32.6,56.3-67.7c0.9-16.3,1-32.7,0-48.9c-2.7-41.9-6.2-83.7-9.4-125.5c-0.6-7.1-1.6-14.2-2.5-22.4
		c-6,1.8-10.6,3.3-15.4,4.6c-1.8,0.5-4.3,1.6-5.6,0.8c-5.1-2.8-9.4-2.2-13.8,1.3c-1.1,0.9-3.2,0.8-4.8,0.9
		c-10.8,0.1-11.9,1.1-11.7,12.2c-3.7-0.4-7.2-0.9-11.5-1.4c2.8-3.3,4.6-5.4,6.8-8c-5.6-2.3-9.5-0.7-13.5,1c-14.4,6-28.8,12-43.1,18
		c-9.6,4-10,4.1-9.2,14.4c2.6,31.9,5.6,63.7,8.1,95.5c0.6,7.9,0.3,15.9,0,23.8c-0.3,7.6-4.9,12.6-11.9,14.3
		c-7.3,1.8-14.9,2.2-21.5,3.1c-2.8-5.5-4.8-9.5-6.9-13.5c4.1-1.6,2.9-5.4,2.7-8.5c-2.6-35.9-5.4-71.7-8.2-107.6
		c-0.6-7.8-1.6-15.5-2.6-24.3c-3.8,1.3-6.2,2.2-8.6,3C1200.3,556.2,1192.4,558.8,1184.6,561.3z M670.3,388.8c1.5-1,3-1.9,4.9-3.1
		c-2.4-3.2-4.3-5.8-6-8.1c2.4-6.2,7.2-5.1,10.4-4.7c0.8-5.5,1.5-10.4,2.4-16.4c-12.3,0.9-24.8,1.7-38.2,2.6c4.2-5.8,9.3-7.6,15.1-8
		c6.6-0.4,11.9-2.2,12.1-10.2c0-0.6,1.4-1.1,2.5-1.9c1.3,1.8,2.5,3.3,3.6,4.9c2,3,0.8,9.4,6.9,7.8c5.6-1.5,3-7.3,2.5-10.4
		c-1.1-6.6,1.3-14.1-4.6-20.1c2-0.6,3.7-1.2,5.7-1.8c0-1.3,0.5-2.9-0.1-3.9c-4.2-6.3-3.2-14.8-8.9-20.5c-0.7-0.7-0.1-2.5-0.3-3.7
		c-0.6-2.9-0.7-6-2-8.6c-7-13.6-18.4-23.4-32.2-28.5c-16.3-5.9-33.9-6.9-51.2-6.1c-29.2,1.5-58.4,3.2-87.5,5.7
		c-18.9,1.6-37.7,4.3-55.9,10c-26.7,8.3-41.8,26.2-44.5,54.1c-0.8,8.3-1,16.7-0.6,25c1.1,25.6,2.3,51.2,4.1,76.8
		c3,43.9,6.4,87.7,9.8,131.6c2,25.6,4.4,51.1,6.2,76.7c2.7,37.2,5,74.5,7.8,111.7c0.5,6.8,4.4,13.9,3.3,20.3
		c-2.3,13.8,1.9,26.4,5,39.1c1.5,6.3,5,12.1,7.6,18.1c0.6,1.5,1.1,3.1,1.9,4.5c2.2,4,4,8.3,6.9,11.7c10.2,11.6,22.8,19.5,38.5,20.9
		c10.2,0.9,20.5,0.9,30.8,1.2c3.2,0.1,6.4-0.2,9.6-0.5c8.1-0.8,16.6-0.5,24.2-2.9c4-1.3,7.3-1.7,11.2-1.3c4.9,0.6,9.9,1.8,14.7,1.3
		c23.9-2.3,47.7-4.9,71.5-7.8c6.9-0.8,13.7-2.7,20.4-4.6c22.6-6.4,46.6-40.9,42-61.8c-0.3-1.3-0.5-2.8-0.2-4
		c3.7-12.4,1.4-25.1,0.9-37.6c-1.2-28.9-3.6-57.8-5.6-86.6c-0.4-5.6-1-11.3-1.4-16.9c-0.2-3-1.4-5.8-4.5-5.4
		c-6.9,1-13.9,2.1-20.3,4.6c-2.3,0.9-3.2,5.5-5.1,9.1c-0.8-1.6-1.5-2.6-2-3.7c-3.8-8.7-3-10.8,6.1-13.7c4.4-1.5,9.1-2.1,13.5-3.4
		c10.3-3,11-3.3,10.3-13.7c-1.2-16.2-3.3-32.3-5.2-48.4c-0.3-2.2-1.1-4.3-1.5-5.6c-4.4-3.4-9,2.2-13.2-2.2c1.8-1.3,2.9-2.6,4.4-3.2
		c8.2-3.1,10.4-8.8,9.4-17.4c-2.4-22.5-3.9-45-5.7-67.6c-0.5-6-0.6-12.2-8.8-12.8c3.1-2.9,7.7-5.3,7.7-7.7c0.1-6.4-0.3-13.6-3.3-19
		c-2.6-4.7-3-8-1.8-12.8c1-3.9,2.1-9.6,0.2-12.2c-3.6-4.7-2.1-8.3-0.2-11.9c-3.1-2.4-5.6-4.3-9.1-7c0.3,4.3,0.5,7.8,0.7,11.3
		c-1.8,1-3.7,1.9-5.6,2.9c2.5,4.4,2.6,4.6,2.5,8.8c-2.6-1.4-5.1-3.6-7.9-4.2c-7.5-1.5-7.8-1.9-3.7-9.4
		C670.5,388.5,670.3,388.8,670.3,388.8z M2522.1,102.2c0.8,11.9,1.5,22.5,2.3,33.1c1.7,22.3,3.4,44.5,5.1,66.8
		c3.1,40.8,5.8,81.7,9.7,122.5c1.5,15.4-0.5,31.4,5.9,46.3c0.6,1.3-0.1,3.2-0.2,4.8c-0.1,6-0.5,12-0.1,17.9
		c2.2,31.5,4.8,63.1,7,94.6c1.9,27.6,3.4,55.1,5.4,82.7c2.4,33.2,5,66.4,7.6,99.6c0.7,9.2,1.7,18.3,2.7,28.2
		c35.1-2.6,69.1-5.1,103.9-7.7c0-4.4,0.2-7.7,0-10.9c-0.8-11.3-1.9-22.6-2.7-33.9c-3.1-40.2-6.5-80.3-9.3-120.5
		c-2.2-31.9-6.6-63.5-11.6-95.1c-3.9-25-8.2-49.9-12.2-74.9c-1-6.2-1.6-12.5-2-18.8c-0.2-3.9,1.9-6.1,6-6.5c4.2-0.4,6.2,1.8,6.8,5.6
		c0.8,4.9,1.3,9.9,1.9,14.9c6.6,51.9,16.8,103.1,30.7,153.6c14.6,52.9,28.9,106,43.3,159c2.1,7.6,4.1,15.2,6.4,23.4
		c42.8-3.2,84.5-6.4,126.4-9.6c0-7.8,0.4-14.7-0.1-21.6c-1.5-21.2-3.6-42.4-5.2-63.6c-3.2-42.8-6.2-85.7-9.5-128.5
		c-2-26.6-4.5-53.1-6.4-79.7c-1.8-23.9-3.1-47.9-4.8-71.8c-1.7-22.6-3.7-45.1-5.5-67.7c-2.5-31.9-4.9-63.8-7.3-95.6
		c-1-13.3-1.7-26.6-2.8-39.8c-0.7-9.2-1.9-18.4-3-28.9c-36.3,2.7-71.6,5.3-108,8c2.3,31.3,4.4,61.5,6.7,91.6
		c2.3,30.2,4.3,60.5,7.3,90.7c3,30.5,7.2,60.8,10.8,91.2c3.6,29.9,10.2,59.4,13.7,90c-4.9,0-8.3,0-11.8,0
		c-1.3-7.3-2.5-13.8-3.7-20.3c-5.7-31.4-10.2-63.1-17.5-94.1c-11.2-47.6-24.3-94.7-36.7-142c-2.8-10.6-6.2-21.1-9-31.7
		c-5.5-20.9-10.6-41.8-16.1-62.7c-2-7.8-2.3-7.8-10.1-7.2c-24.2,1.7-48.5,3.4-72.7,5.2C2550.3,99.6,2537.1,100.9,2522.1,102.2z
		 M116.4,884.2c3.6-0.4,5.9-0.5,8.2-0.8c6.2-1,12.4-2.8,18.6-3.2c18.6-1.1,37.2-1.5,55.8-2.3c11.3-0.5,22.6-0.9,33.9-1.8
		c18.5-1.5,37-3.7,55.6-4.8c19.7-1.2,39.1-4.4,58-9.8c9.8-2.8,19.2-7.5,26.7-15.2c12.8-13.2,20.2-29.5,21.8-47.2
		c1.8-19.5,0.9-39.3,0-58.9c-0.9-19.6-3.5-39.1-4.9-58.6c-2.1-29.2-3.8-58.4-12.4-86.8c-6.3-20.5-17.2-36.5-38.3-44
		c-3.6-1.3-7-3.3-11.7-5.5c2.9-2.4,4.4-4.1,6.3-5.1c21.1-11.1,31.9-29.3,36.2-52.2c5.2-27.3-0.2-54.4-1.2-81.6
		c-0.4-11.6-2.6-23.2-3.2-34.8c-1-19.4-3.7-38.5-10.9-56.6c-3.2-8-7.6-15.3-14.4-21.2c-22.3-19.5-48.9-20.4-76.2-17.8
		c-3.7,0.4-6.8,0.3-10.4-0.1c-7.5-0.9-16.4-2.6-22.6,0.4c-9.7,4.7-18.6,2.6-28,2.1c-1.6-0.1-3.3,0.1-4.9,0.2
		c-13.9,0.9-27.9,1.7-41.8,2.6c-20.9,1.4-41.8,2.9-62.7,4.5c-6.9,0.5-13.7,1.7-20.7,2.6c0,9.3-0.3,17.8,0.1,26.4
		c0.4,9.3,1.4,18.6,2,27.9c0.5,9.2,5.2,18,2.2,27.6c-0.5,1.4,0.3,3.3,0.5,4.9c0.8,6.6,1.8,13.1,2.2,19.7
		c2.7,39.9,4.9,79.8,7.8,119.6c2,27.9,5,55.7,7.1,83.6c2.2,29.5,3.9,59.1,5.8,88.6c0.6,9.6,1.4,19.3,2.3,28.9
		c1.2,13.2,2.5,26.4,3.6,39.6c1.1,12.6,1.8,25.2,2.9,37.7c1.2,13.5,2.9,27,3.9,40.6c0.9,13.2,1,26.5,1.6,39.8
		C115.1,876.7,115.8,879.9,116.4,884.2z M1878,465.8c6-3.4,10.8-4.6,13-7.7c4.6-6.4,10.9-9.5,17.6-12.5c10.2-4.6,17.2-12.2,22-22.2
		c5-10.3,7.6-21.3,8.9-32.6c2.9-26.2,0-52.3-1.9-78.4c-1.4-18.9-3.4-37.8-4.1-56.7c-0.2-5.9-1.5-10.1-6-13c1.2-4.1,3.5-7.9,2.9-11.1
		c-2.5-14.1-4.6-28.5-11.9-41c-4.4-7.6-9.6-14.8-17.5-20.1c-9.5-6.4-20-8.9-30.6-11.3c-15.4-3.4-31-3-46.7-3
		c-7.4,0-13.7,0.2-16.3,7.5c-5-1.7-9.3-4.5-13.5-4.3c-22.6,0.8-45.2,2.5-67.8,3.4c-5.9,0.3-9.8,2.4-11.9,8.3
		c-2.4-1.2-4.1-2.2-5.8-2.9c-2.9-1.1-5.9-3-8.9-2.9c-15.3,0.5-30.6,1.5-45.9,2.6c-4.8,0.3-9.6,1.4-14.9,2.1
		c1.1,17.4,2.1,33.6,3.3,49.7c2.3,32.5,4.5,65,6.9,97.5c1.6,21.9,3.5,43.8,5.4,65.7c0.5,6.3-0.1,13.1,2.2,18.6
		c1.8,4.4,2.2,7.9,1.3,12.2c-0.6,2.6-0.7,5.3-0.5,7.9c1,14,2,27.9,3.3,41.8c0.6,6.2,2.1,12.4,2.6,18.6c0.6,8.3,0.3,16.6,0.8,24.8
		c0.7,12.9,1.8,25.8,2.7,38.8c0.8,11.6,1.6,23.3,2.5,34.9c2,22.9,4.4,45.7,6,68.7c2.2,30.6,3.8,61.2,5.8,91.7
		c0.5,7.9,1.5,15.8,2.4,24.5c41.7-3.1,82.6-6.1,124.6-9.1c-2.9-40.6-5.9-80-8.6-119.5c-2.7-39.4-7.7-78.6-8.5-119.5
		c8,0,14.9-0.6,21.7,0.1c8.4,0.9,14.1,5.9,15.6,14.5c1.6,9.2,3.5,18.4,4.3,27.6c2.2,25.9,3.9,51.8,5.7,77.7
		c2.2,31.6,4.2,63.1,6.4,94.7c0.5,6.9,1.7,13.7,2.7,21.3c41.1-3.2,81.4-6.3,122.6-9.5c0-4.2,0.2-7.5,0-10.7
		c-0.8-10.9-1.7-21.9-2.5-32.8c-1-13.6-1.9-27.2-2.9-40.8c-2.3-30.2-4-60.5-7.1-90.6c-2.2-21.5-5.2-43-10-64
		c-5.9-25.8-21.4-43-49.8-46.6c-2.3,3.9-4.6,7.8-7.4,12.6C1886.5,469.4,1883.1,467.9,1878,465.8z M2862.4,77
		c15,198.8,29.9,397,44.9,596c16.3-1.2,31.2-2.2,46-3.4c26.2-2.2,52.3-5.1,78.6-6.6c29.3-1.6,58.5-3.3,87.4-8.2
		c6.9-1.2,13.8-2.6,20.3-4.9c25.2-8.9,41.3-26.2,46.2-52.8c4.6-24.8,2.8-49.8,1.1-74.7c-1.4-20.6-3.7-41.1-5.2-61.7
		c-1.8-24.2-3-48.5-4.8-72.7c-2.2-28.8-4.9-57.6-7.1-86.5c-2.1-27.2-3.6-54.5-5.7-81.7c-1.5-18.9-3.5-37.7-5.2-56
		c-11.6-3.7-12.8-6.6-8.1-15.9c1-2.1,2.3-4.2,2.6-6.4c0.5-3.2,0.9-6.8,0-9.8c-0.6-2-3.5-3.2-5.9-5.2c4-2.3,4.3-5.1,2.8-9.2
		c-2.6-6.8-6.4-12.9-9.5-19.4c-7.8-15.8-20.2-25.8-36.1-31.1c-9-3-18.9-4.1-28.4-4.5c-11.5-0.5-23.1,0.5-34.4,0.8
		c-1.9,10.4,0.9,15.7,9.9,19.7c6,2.7,8,6.9,6.3,13.2c-0.4,1.5-0.5,3-0.9,4.8c2,0.9,3.4,1.7,4.9,2.2c1.8,0.6,3.7,0.9,5.7,1.3
		c-5.6,9.5-5.7,9.5,3.2,15.9c1.8,1.3,3.8,2.3,5.4,3.3c-5.3,6.9,2.7,14.4-0.9,21.4c-5.9-0.8-10.3-3.5-12.6-11.2
		c-4.4,8.8-10.4,8-16.9,6.4c-6-1.5-11.2,0.8-15.8,4.3c-7.2,5.5-16.2,6.6-24,10.7c-2,1-4.7,0.5-9.2,0.8c8-7,15.3-10.3,23.2-12.8
		c5.7-1.8,11.3-4,16.5-6.8c3.9-2.1,8.2-4.5,9.3-10.8c-7,1-11.8-4.7-18.9-3.4c-4.1,0.7-5.8-4.4-3.3-8c1-1.3,2.4-2.3,3.6-3.5
		c3.1-2.8,4.2-6.1,1.8-9.8c-2.4-3.7-5.9-5.2-10.3-4.2c-2.2,0.5-4.6,2.1-6.6,1.8c-8.5-1.6-16.4-0.2-24.5,4.9c-3.9-6.6-8.8-8-15.2-4
		c-1.4,0.9-4,0.5-5.7-0.1c-4.2-1.5-8.1-3.6-12.9-5.8c4.4-3.4,4.6-9.4,11-10.3c5.8-0.8,10.2,1.1,13.8,4.5c9.4-4.2-0.8-8.3,0.6-12.5
		c6.4-2.2,8.4,5.6,14.3,4.8c-2.2,2.9-3.7,4.8-5.8,7.5c7.4,2.3,13.5,6.6,19.8-0.1c1-1,3.1-1.9,4.4-1.6c5.1,1.3,8.8-1.4,13-3.5
		c9.3-4.7,10.6-7.4,7.3-19.1C2976.4,70.8,2919.4,68.9,2862.4,77z M977.1,525.6c0-0.9,0-1.9-0.1-2.8c4-1.2,7.9-3.1,11.9-3.5
		c14.2-1.5,23.2-10.5,31.1-21.1c7.6-10.2,10-22.2,11.9-34.5c4.8-31.6,0.1-63.1-1.6-94.7c-0.1-1.9-1.4-3.6-1.9-5.5
		c-0.4-1.3-0.7-2.8-0.6-4.2c0.3-2.9,1.3-5.7,1.2-8.6c-0.2-6.7-0.7-13.3-1.4-19.9c-0.7-6.5-1.8-12.9-2.9-20.2
		c-4.6,1.1-8,1.9-12.5,2.9c-3.3-4.2-7.6-5-13.6-3.2c-3.8,1.1-8.6-1.7-13.6-2.8c0.8-3.7,1.3-6.5,1.9-9.3c6.1-0.2,10.7,0,16,2.7
		c5.9,3,12.9,5.5,20.9,2.4c-0.4-2.2-0.8-4.5-1-5.8c-7.4-1.7-13.5-3-20.4-4.6c3-6.1,5.9-5.8,9.9-2.8c1.8,1.3,4.6,1.3,6.9,1.9
		c0.4-2.5,1.5-5.1,1-7.3c-1.8-6.7-4-13.3-6.5-19.8c-7.4-19.3-22.5-29.5-41.5-35.2c-1.8,2.2-3.2,3.9-4.8,5.9
		c-3.9-3.1-4.4-9.1-11.2-8.9c-18.3,0.5-36.6-0.6-54.8-0.1c-11.9,0.3-23.6,2.2-35.6,2.4c-15.8,0.3-32.1-0.6-47.3,5.8
		c-1.4,0.6-3.1,0.6-4.6,0.5c-3.8-0.4-7.6-1.4-11.5-1.4c-20.7-0.3-41.1,5.2-61.9,4.1c-2.7-0.2-5.5,1.4-9.3,2.4
		c1.2,9.7,2.1,18.9,3.7,27.9c0.3,1.9,3.3,4.1,5.4,4.7c7.3,2,14.9,3.4,22.6,5.1c-0.4,4.5-2.9,4.2-6.2,3.3c-6.3-1.8-12.7-3.5-19.5-5.3
		c-0.5,2.6-1.2,4.5-1.1,6.4c0.5,12.3,1,24.6,2,36.9c0.3,3.7,2.7,7.2,3.6,10.9c0.5,2.3,0,4.9-0.3,7.3c-0.6,4.5-2.3,9.1-2,13.6
		c2.1,28.8,4.8,57.6,7,86.5c3.1,42.2,5.8,84.4,8.9,126.5c0.6,8.5,2,16.9,3.1,25.8c7.8,2.9,14.6-8.1,23.5-2.1
		c-3.8,2.8-7.1,5.2-10.9,7.9c13.7,3.9,25.1-1.6,36.9-4.6c4.1-1,6-3.9,4.9-8.4c-0.4-1.7-0.5-3.4-0.7-4.9c3.8,1.7,6.9,3.5,10.2,4.5
		c2,0.6,5.5,1.1,6.4,0c4.1-5,9.9-4,15-5.7c16.2-5.7,33.8-7.5,48.8-16.8c1.6-1,4.1-0.5,7.7-0.9c-1.7,2.4-2.2,3.9-3.1,4.4
		c-10.1,4.7-20.3,9.3-30.9,14.1c1.8,4.8-1.9,5.3-5.9,6c-8.2,1.4-16.4,2.5-24.5,4.6c-6.9,1.8-14.1,3.4-18.9,10.2
		c7.2,6.6,18.5-3.9,24.4,7.3c-8.6,0-16.8,0-25,0c-6.2,0-12.7,0.8-18.6-0.5c-4.4-1-7.3-1.3-10.7,1.9c-1.7,1.6-4.9,1.7-7.4,2.3
		c-4.9,1.1-9.8,2-14.6,3.2c-3.8,1-5.2,3.5-4.7,7.5c0.6,4.6,0.6,9.2,0.9,13.8c1.5,25.5,4.8,50.9,5.9,76.5c1.3,30.6,4.1,61.1,6.4,91.6
		c0.7,9.2,2,18.3,3,27.7c2.8,0.2,4.7,0.7,6.6,0.5c10.2-1.1,20.4-2.3,30.6-3.5c2-0.2,4-0.6,5.9-1c6.3-1.4,12.3-4.7,19.1-0.7
		c1.9,1.1,5.3,0.3,7.8-0.5c7.1-2.1,13.7-0.5,20.2,2.2c10.3-7.2,22.8-1,34.7-5.4c-0.4-4.2-0.6-8.4-1.3-12.6c-0.6-4.1-2.1-8-2.4-12.1
		c-0.8-12.9-0.9-25.9-1.8-38.8c-0.3-4.3-2.2-8.4-3.5-13c0.6-2.8,2.1-6.4,2-9.8c-0.2-9.3-0.9-18.6-1.7-27.9
		c-0.8-9.9-1.9-19.8-2.7-29.8c-1.1-13.3-2-26.5-3.1-39.8c-0.4-4.2-1.2-8.4-1.9-13.1c-3,0-5.3-0.4-7.4,0.1c-9.4,1.9-18.8,4-28.3,6
		c-2.4,0.5-4.8,2-8-2.1c15.4-3.7,29.8-7.1,44.2-10.5c-0.6-10.4-1.2-19.5-1.7-28.7c10.6-2.6,19.8-3.5,28.8,0.3
		c8.6,3.7,7.9,13.1,11.3,19.9c1.5-0.1,2.5,0,3.4-0.4c11.2-4.3,22.5-8.2,34.8-7c0.6,0.1,1.3-0.2,1.9-0.4c22-7.4,45.1-11.4,66.5-20.9
		c1-0.5,2.7,0.5,4.3,0.8c-0.6,1.4-0.7,2.4-1.1,2.5c-21.7,7.1-43.2,15.5-65.4,20.5c-13.2,3-25.6,10.1-39.7,9
		c-1.1-0.1-2.3,1.1-3.7,1.8c-0.1,1.4-0.3,2.7-0.2,4c2.9,43.2,5.4,86.4,9,129.5c1,12-0.8,24.8,5.6,36.1c0.2,0.4-0.2,1.3-0.5,1.8
		c-3.6,4.9-1.5,10.3-1.1,15.4c1.5,18.7,2.9,19.9,21.5,18.9c25.6-1.5,51.2-3.2,76.7-5c8.9-0.6,17.8-1.4,27.1-2.2
		c0-5.1,0.2-9.7,0-14.3c-0.3-6.6-0.9-13.3-1.3-19.9c-1.4-20.3-2.8-40.5-4.3-60.8c-1.4-18.6-3-37.1-4.7-55.7
		c-1.9-20.2-4.3-40.4-6.2-60.6c-0.5-5-1.7-9-6.8-10c1.4-2.3,3.8-4.5,3.4-5.9c-2.4-9.3-4.6-18.8-8.5-27.5c-3-6.6-6.2-14-13.8-17.5
		c-6.2,5.9,1.4,6.2,2.8,8.5c-2.3,3.4-4.6,6.8-7.1,10.5c-6.7,1.7-6.7,1.7-11.9-0.8c2.7-1.6,5-2.9,8.1-4.7c-5.8-2.5-9.3,0.3-13.2,1.9
		c-9.8,4-19.7,7.9-29.8,11.4c-3.8,1.3-8.2,2.6-13-1.8c3.5-2.2,6-4.8,8.9-5.4c9.5-2,16.8-8.6,25.6-12.1c5.2-2.1,9.5-4.2,14.8,1.6
		c2.8-5.6,5-10.1,7.4-14.9c-6-2.9-10.8-5.9-16-7.7c-5.1-1.7-10.5-4.9-16.1-0.7C980.4,527.6,978.4,526.2,977.1,525.6z M3517.3,512.2
		c-4.5-12.3-1.8-25.8-4.4-38.5c-2.9-13.8-3-27.6-3.3-41.4c-0.6-24-2.7-47.8-8.2-71.2c-3.5-15.2-11.1-28.3-22.6-39.1
		c-16.6-15.6-37.2-24.4-57.1-34.3c-22.9-11.4-46.5-21.6-69.8-32.2c-13-5.9-20.1-16-21.2-30.1c-1.5-18.6-3.1-37.2-4.2-55.8
		c-0.4-6.6,0.5-13.3,1.3-19.9c0.7-6,4.7-9.3,10.2-11.1c11.7-3.7,19.7,0.4,22.6,12.5c2,8.4,3.3,17,4,25.6c1.7,19.9,2.8,39.9,4.3,59.8
		c0.2,3.2,1,6.3,1.6,10c42.2-3.3,83.5-6.5,125.1-9.7c-0.6-9.6-1.1-18.3-1.8-26.8c-2.7-32.5-5.3-65-8.3-97.5
		c-0.9-10.2-3.1-19.7-12.1-27.2c-17.1-14.2-33.2-29.7-49.9-44.4c-2.1-1.9-5.1-3.5-7.8-3.7c-9.6-0.8-19.3-1.5-28.9-1.1
		c-19.6,0.8-39.2,2.4-58.7,3.6c-8.9,0.6-10.2,1.7-13.3,10.4c-0.5,1.4-1.6,2.6-2.7,4.4c-4.7-4.3-11.8-2.6-15-9.3
		c-1.5-3.1-6-1.8-8.7,0.7c-4.7,4.3-3.4,8.8-1.7,11.2c-1.2,7.7-2.3,13.4-2.9,19.1c-0.4,4.6,0.1,9.3-0.2,14c-0.2,2.9-2.1,4-5.2,2.1
		c0.3-2.8,0.7-5.7,1-8.6c0.4-5.3-1.1-9.2-7.2-9.7c-0.2,0-0.4-1.1-0.8-2.3c2.7-0.7,5.3-1.5,8.6-2.4c0-3,0.5-5.8-0.1-8.2
		c-0.6-2.3-2.5-4.4-3.3-5.7c1.8-3.2,3-5.5,4.6-8.2c-13.8-1.8-21.5,2.3-22.5,12.8c-0.8,8.4,0.4,16.9,0.8,26.8
		c-0.8,2.1-3.3,5.8-3.4,9.5c-0.4,10.3,0.2,20.6,0.4,30.9c0,2.3,0.2,4.6,0,6.8c-0.9,8.8-2.8,17.6-2.7,26.4
		c0.2,22.6,1.4,45.2,1.9,67.8c0.8,33.9,1.7,67.9,2,101.9c0.1,6.8,2.7,10.1,8.5,12.8c31,14.5,61.7,29.8,92.9,43.8
		c12.8,5.8,20.8,13.9,22.3,27.9c0.3,3,1.1,5.9,1.4,8.9c2.7,31.2,5.4,62.4,7.7,93.6c0.4,5.2-0.6,10.6-1.9,15.7
		c-1.7,6.8-6.6,10.5-13.5,11.8c-7.1,1.3-12.7-1.5-16.3-7.3c-2.4-3.8-4.2-8.5-4.8-12.9c-2-14.5-3.8-29.1-4.9-43.7
		c-1.6-20.9-2.4-41.8-3.8-62.7c-0.5-6.9-1.6-13.7-2.5-21.9c-27.7,2.1-54.7,4.2-82,6.2c5.4,70.9,9.3,140.7,18.7,209.9
		c-3.4-11.8-7.4-23.6-8.1-35.6c-0.9-16.6-2.3-33-6.6-49.1c-0.6-2.2-1.5-4.8-0.8-6.8c3.8-11.7-0.5-23.1-1.1-34.6
		c-1.2-21.8-3.4-43.6-5.4-65.4c-0.5-5.8-1.5-11.6-2.3-18.4c-12.6,1.2-24.1,2.4-35.7,3.5c0,2.9-0.1,4.9,0,6.8
		c2.4,32.9,4.5,65.8,7.3,98.6c2.1,24.2,4.8,48.3,7.6,72.5c2,16.9,10.5,30.8,22,42.8c5.6,5.9,12.1,11.1,21.4,12.3
		c0.2-2.6,0.2-4.6,0.7-6.5c0.4-1.8,1.3-3.4,2.1-5.7c1.2,1.4,2.4,2.1,2.4,2.9c0.4,11.8,8.3,14.5,18.1,14.9c3,0.1,6,0.5,9,0.6
		c28.7,1,57.2-2.4,85.7-4.9c15.2-1.3,30.4-3.1,45.5-5.3c11.3-1.6,22.9-3,34.2-11.8c-7.4,0-12.9,0.4-18.4-0.1
		c-5.4-0.6-11.3,2.8-17.7-1.7c3-1.6,4.9-3.2,7-3.5c10.2-1.4,20.4-3.3,30.7-3.5c13.4-0.2,24.1-4.5,30.8-16.3
		c8.7-15.5,10.5-32.6,10.5-50c0-5.3-0.5-10.7-0.9-17.7c-8.2,12.7-8.2,12.7-16.9,11.8c-2.1,2.8-4.2,5.6-6.4,8.6
		c-4.8-2.2-8.8-4-13.1-5.9c18.6-6.7,18.9-7,26.7-21.5c-3.4,1.4-6.7,2.8-10.5,4.4c-0.3-4.7-0.4-8-0.6-11.5
		C3502.6,514.6,3508.8,513.6,3517.3,512.2z M2542.4,700.6c-40.1-197.9-79.9-394.1-119.9-591.3c-52.3,4-103.5,8-155.2,12
		c-1.3,26.3-2.6,51.2-3.8,76.1c-1.2,25.3-2.3,50.6-3.5,75.8c-1.2,24.9-2.5,49.9-3.7,74.8c-1.2,24.9-2.4,49.9-3.7,74.8
		c-1.3,25.3-2.7,50.6-3.9,75.8c-1.2,25-2.2,49.9-3.5,74.9c-1.2,25.3-3.4,50.5-3.8,75.8c-0.4,24.7-3.7,49.4-2.7,74.5
		c3.2,0,5.2,0.1,7.2,0c21.2-1.8,42.4-3.7,63.6-5.3c12.3-0.9,24.6-1.3,36.9-2.1c8.3-0.6,8.7-1.4,8.7-9.8
		c-0.1-33.6-0.3-67.3-0.3-100.9c0-2.8,0.9-5.6,1.4-8.8c14.4-1.2,28-2.2,41.6-3.4c7.9-0.7,9.2,0,10.5,8.1
		c4.2,26.6,8.2,53.2,12.4,79.8c1.5,9.4,3.2,18.8,4.8,28.6C2464.9,706.7,2502.9,703.7,2542.4,700.6z M2098.3,136.2
		c-21.8,1.6-41.7,3-61.6,4.5c-17.2,1.3-34.5,2.5-51.7,4.2c-9.6,0.9-11,2.6-10.4,12c1,17.6,2.7,35.2,3.5,52.8
		c0.8,17.9,5,35.4,4.3,53.4c-0.2,5,1.2,11,4.1,14.9c5.4,7.3,6.3,14,2.7,22.2c-1.8,4.1-2.8,8.9-2.6,13.3c1.1,21.6,2.6,43.2,4.2,64.8
		c1.9,26.5,3.9,53.1,6.2,79.6c2.9,33.4,3.1,67.1,9.2,100.3c0.2,1.3-0.2,2.7-0.1,4c0.5,12.3,0.7,24.6,1.7,36.9
		c1.5,19.6,3.9,39.1,5.2,58.6c1.7,24.9,2.6,49.8,4,74.7c0.2,3.2,1.3,6.3,2.1,9.8c66.8-5,132.7-9.9,199.8-14.9
		c-2.4-32.4-4.9-64.6-7.3-96.6c-2.3-0.6-3.3-1.1-4.2-1c-20.2,1.5-40.5,2.8-60.7,4.8c-9.7,1-10.8,0.9-11.6-9.4
		c-1.9-24.9-3.6-49.8-5.5-74.7c-1.7-21.9-3.5-43.8-5.2-65.7c-1.7-21.9-3.4-43.8-5-65.7c-1.1-15.3-2-30.5-3.1-45.8
		c-1.5-19.9-3.1-39.8-4.5-59.8c-1.8-24.9-3.7-49.8-5.4-74.7c-1.6-22.2-3.1-44.4-4.8-66.7C2100.7,160.4,2099.4,148.6,2098.3,136.2z
		 M1641.6,769c-2.9-32.6-5.7-64.9-8.6-97.1c-2.4-0.2-3.7-0.5-5-0.4c-16.9,1.4-33.8,2.7-50.7,4.5c-11.8,1.2-14.1-0.3-15.1-12.3
		c-0.7-9-0.8-18-1.5-26.9c-2.4-30.8-4.9-61.6-7.4-92.4c-1.1-14.2-2.3-28.5-3.5-42.7c-0.6-7.2,0.8-9,7.9-9.5c8.6-0.7,17.2-1.3,25.9-2
		c11.5-0.9,23-1.8,34.3-2.6c0.5-2,1.1-2.9,1-3.9c-1.9-28.5-3.8-57.1-5.8-85.6c-0.3-5-3.1-6.7-8.1-6.3c-12.3,0.9-24.6,1.3-36.9,2.1
		c-8.1,0.6-16.2,1.6-24.1,2.5c-0.9,12-0.3,23.1-7.1,32.6c-0.6-3.8,1.1-8,0-11.1c-2.2-6-1.2-11.8-1.6-17.7c-0.2-3-1.4-6.4-3.3-8.7
		c-2.6-3.2-6.4-5.6-9.5-8.4c-5.3-4.8-5.2-7.6,0.7-11.5c1.6-1,3.3-1.8,4.8-2.5c-0.5-4-1.9-7.4-1.1-10.4c0.7-2.6,3.7-4.6,6.5-7.8
		c-6.9-0.7-11.2,1.8-15.3,5.1c-0.6,0.5-1.7,0.2-3.2,0.4c0.7-2.9,1.3-5.3,1.9-7.7c-4.3-1.2-8.7-1.4-7.6-7.3
		c10.8,2.7,15.4,2.7,23.3-0.1c-0.4-3.1-1-6.4-1.1-9.6c-0.1-3.5,1.6-7.8,0.1-10.4c-1.6-2.6-6-3.6-9.1-5.3c-0.3-0.2-0.1-1.2-0.3-2.4
		c7.4,0.3,9.8-4,11.4-10.8c1.9-8-5-9.8-8.7-14.6c3.1-1.8,5.7-3.3,8.8-5.1c-10-11-18.6-22.1-32.1-29.4c11.9-5.8,5.2-15,6.7-22.7
		c-14.5,0.4-14.5,0.4-19.1,13.3c-1.8-4-3.1-7.1-4.2-9.5c-8.9-0.6-17.2-1.2-25.5-1.8c-3.8-9.1-3.8-9.1-0.1-14.4
		c0.9,3.5,1.7,6.5,2.8,10.7c4.7-1.6,8.8-3,14.7-4.9c-9.2-10.2-17.2-19.1-25.1-27.9c5,1.9,8.3,7,15,5c-0.2-1.5,0-3.1-0.7-3.9
		c-6.3-7.6-13.3-13.9-24.4-12.7c-5.9,0.6-12,0.3-17.9,0.8c-6.9,0.6-13.7,1.8-21.4,2.8c1,11.3,2,21.7,2.8,31.1
		c6.6,1.9,12.3,2.6,16.9,5.3c4,2.3,2.6,7.1-3.1,14.4c-3.3-3.7,2-11.4-6.9-13c-0.2,3.4-0.4,6.3-0.6,9.4c-1.3,0-2.6,0-4,0
		c0.2,1.6,0.5,2.9,0.4,4.2c-0.9,6.3-0.2,11.2,7.7,12.2c1.8,0.2,3.3,3.1,4.9,4.7c-0.4,0.6-0.8,1.1-1.2,1.7c-3.6-0.7-7.2-1.3-12.7-2.3
		c2.8,7.1-0.1,14,4.7,19c4,4.1,9.1,7.2,15.5,12.2c-6.7,0.7-11.1,1.1-16.4,1.6c0.5,3.3,0.8,6,1.2,9c4.7,0,8.5,0,12.2,0
		c0.1,0.5,0.2,1,0.3,1.5c-4.1,1.7-8.2,3.5-12.1,5.1c-0.6,22.4,5.3,92.2,8.2,99c4.9,3.4,9.3-5.1,15.8,0.1c-4.4,1.9-7.5,3.7-10.8,4.7
		c-5.2,1.5-6.8,4.7-6.1,9.8c0.6,5,1.2,9.9,1.6,14.9c2.3,31.2,4.5,62.4,6.9,93.6c3,40.2,6.2,80.3,9.2,120.5
		c2.9,38.8,5.6,77.7,8.5,116.5c0.5,6.6,1.4,13.1,2.2,20.3C1512,779,1576.2,774.1,1641.6,769z M1569.1,176.6c0.8,2.5,1,4.2,1.8,5.5
		c4.1,6.8,2.7,12.4-2.6,18c-2.4,2.5-4.1,6-5,9.3c-2,7.3-7,10.7-14.6,9.1c-7.6-1.6-9.6-0.3-10.1,7.4c-0.4,6.6-0.6,13.3-0.6,20
		c0,7.9,0.4,15.8,0.7,25.2c21.8-1.4,42.4-2.8,64.5-4.2c-3.3-31.9-3.2-62.7-8.7-93.1C1585.5,173.3,1577.6,172.6,1569.1,176.6z
		 M3237.1,67.1c3.5,3.1,5.1,5.9,2.4,10.4c-1.3,2.1,0.1,6.2,0.8,9.3c0.8,3.8,2.1,7.5,3.2,11.2c0.5,1.7,1.1,3.4,1.8,5.3
		c8.7-6.5,8.5-6.5,7.5-15c-0.6-4.6-0.4-9.3-0.2-13.9c0.2-4.6,1-9.2,1.2-13.9c0.1-3.2,0.6-7.4-4.6-6.9c-4.4,0.5-3.8,3.7-2.8,6.8
		c0.2,0.9-0.1,1.9-0.3,3.3C3243.3,64.8,3240.6,65.8,3237.1,67.1z M3430.4,40.9c5.9,10.2,13.7,15.3,20.8,21.1
		c7,5.8,11.6,14.9,23.5,17.7C3464.4,60.7,3452.4,46.7,3430.4,40.9z M1515.5,239.3c-3.6,9-1,15.7,4.9,21.4c1.6,1.5,5.2,3.2,6.3,2.5
		c1.7-1.2,3.2-4.5,2.9-6.7C1528.3,248.7,1525.1,242,1515.5,239.3z M1485.3,225c6.6-7.5,7.2-11.6,4.9-27.7c-8.3,5.7-8.3,5.7-9.4,13.6
		c-1.7,0.7-3.4,1.3-6.4,2.5C1478.4,217.5,1481.6,221,1485.3,225z M1067.6,213c-0.9,7.9-1.4,14.1,5.9,17.3c3.6,1.6,7.8,0,7.5-3.3
		c-0.3-4-1.4-8.6-3.8-11.7C1075.6,213.4,1071.1,213.8,1067.6,213z M1501,201.3c-0.1,8.4-5.9,14.7-2.8,22.9
		C1509,215.3,1510.1,208.4,1501,201.3z M3037.2,101.5c1.9,10.5,8.8,11.8,18.7,4.4C3050.4,101.8,3044.2,102.6,3037.2,101.5z
		 M3203.9,162c5.3-6.6,1.7-11.6,0.7-18.1C3199.2,150.2,3200.6,155.4,3203.9,162z M821.3,831.5c-0.1-0.9-0.2-1.9-0.3-2.8
		c-5.7,0.6-11.4,1.3-17.1,1.9c0.1,0.3,0.1,0.6,0.2,0.9C809.8,831.5,815.5,831.5,821.3,831.5z M3205.7,131.7c1.7-3.2,1.5-5.8-2-7.2
		c-0.6-0.3-2.7,1-2.9,1.8C3200,129.9,3201.6,131.8,3205.7,131.7z M1233.4,210.1c1-0.5,1.9-0.9,2.9-1.4c1-1.7,2.1-3.4,2.8-5.2
		c0.1-0.3-2.3-2.1-2.7-1.9c-1.7,1-3.7,2.3-4.5,4C1231.4,206.7,1232.8,208.6,1233.4,210.1z M1077.3,244.8c4.6-0.6,7.1-0.9,10.4-1.3
		C1082.8,237.8,1082.8,237.8,1077.3,244.8z M854.1,828.9c0-0.3-0.1-0.6-0.1-0.9c-4.5,0-9,0-13.5,0c0,0.7,0.1,1.4,0.1,2.1
		C845.1,829.7,849.6,829.3,854.1,828.9z M1150.5,212.3c1.3,4.7,3.5,5,6.2,3.8c0.4-0.2,0.5-1.1,1-2.5
		C1155.5,213.2,1153.5,212.9,1150.5,212.3z M1104.2,258.7c-1.7-1.4-2.5-2.7-3.4-2.8c-1,0-2,1.1-3.1,1.8c0.7,0.9,1.3,2.3,2.2,2.5
		C1100.8,260.5,1102,259.5,1104.2,258.7z M3209.9,118.8c0.3-0.8,0.6-1.5,0.9-2.3c-2.1-0.7-4.2-1.5-6.2-2.2c-0.2,0.5-0.4,0.9-0.6,1.4
		C3206,116.8,3208,117.8,3209.9,118.8z M1103.8,244.8c-0.9-1.6-1.2-2.8-1.8-3c-0.7-0.3-1.9-0.1-2.6,0.4c-0.3,0.2-0.2,2.1,0.1,2.2
		C1100.6,244.7,1101.8,244.6,1103.8,244.8z M788.5,834.1c-0.1-0.4-0.2-0.8-0.3-1.2c-1.4,0.1-2.8,0.2-4.2,0.4c0,0.3,0,0.6,0.1,0.8
		C785.5,834.1,787,834.1,788.5,834.1z"/>
	<path class="st0" d="M1498.2,224.2c-3.1-8.3,2.6-14.5,2.8-22.9"/>
	<path class="st0" d="M2634.8,142.8c2.3,3.5,4.9,6.8,6.9,10.4c1.2,2.2,2.5,5.5,1.7,7.4c-1,2.6-3.8,5.7-6.3,6.3
		c-3.4,0.8-4.8-2.5-4.7-6c0.2-6,0.3-12.1,0.5-18.1C2633.5,143,2634.1,142.9,2634.8,142.8z"/>
	<path class="st0" d="M2559,413.7c-1.2,1.6-1.8,3-2.7,3.3c-0.7,0.2-2.5-1-2.6-1.7c-0.1-0.9,0.8-2.4,1.7-2.8
		C2556.1,412.1,2557.4,413,2559,413.7z"/>
	<path class="st0" d="M2778.6,209.6c0.4,0.7,0.7,1.2,1,1.6c-0.5,0.3-1,0.8-1.5,0.8c-0.4,0-0.9-0.5-1.3-0.8
		C2777.3,210.6,2777.9,210.1,2778.6,209.6z"/>
	<path class="st0" d="M233.3,779.3c-0.1-3.1-0.2-5.9-0.4-8.8c-1.8-28.5-3.4-57.1-5.5-85.6c-1.6-21.9-3.9-43.7-5.5-65.6
		c-0.7-9.9,0.3-10.9,9.9-12.3c17.8-2.4,26.4,4.5,28.3,20c1.1,9.2,1.7,18.5,2.4,27.8c1.8,25.2,3.7,50.4,5.4,75.6
		c0.6,8.9,1.8,17.9,1,26.7c-1.1,12.3-5.6,16-17.4,18.1C245.6,776.3,239.9,777.8,233.3,779.3z"/>
	<path class="st0" d="M210.6,365.3c3,5.6,7.6,6.8,13.4,6.8c9.2-0.1,14.2,3.9,16.5,12.8c1.7,6.7,3.2,13.7,3.7,20.6
		c1.6,22.2,2.9,44.5,4,66.7c0.7,15.7-4.1,22.5-18.7,27.9c-0.9,0.3-1.9,1.4-2.7,1.2c-4.2-0.7-8.3-1.8-13.3-2.9
		c-0.5-3-1.2-6.2-1.4-9.4c-1-11.6-0.8-23.4-3.2-34.7c-1.7-8.3-0.1-16.5-1.3-24.6c-1.2-8.2-1.4-16.5-2-24.8
		c-0.6-8.6-1.9-17.3-1.6-25.9c0.1-4.5,2.7-9,4.2-13.5C209,365.4,209.8,365.3,210.6,365.3z"/>
	<path class="st0" d="M250.6,861c-3.4-6.3-7.5-12.3-10.2-18.8c-10.4-25.2-20.3-50.6-30.4-75.9c-1.6-4-2.8-8.2-3.7-12.3
		c-0.2-1.1,1.4-3.8,2.1-3.8c1.7,0,3.9,0.8,4.8,2.1c2.6,3.7,4.8,7.8,6.9,11.8c0.8,1.4,1.5,3.2,1.3,4.7c-1.1,8.1,1.3,15.1,5.7,21.7
		c1.2,1.8,0.9,4.5,2,6.5c1.3,2.5,2.7,5.6,4.9,6.7c4.4,2.1,5,5.1,5.3,9.5c0.4,7.5,0.8,15.3,7.7,20.5c1,0.7,1.7,2.2,1.9,3.4
		c1.4,7.7,2.6,15.5,3.9,23.2C252.2,860.3,251.4,860.7,250.6,861z"/>
	<path class="st0" d="M178.5,388.8c-4.2-11.6-1.2-23-0.6-34.5c0-0.4,1.6-0.7,3.1-1.3C186.4,365.6,179.4,377.1,178.5,388.8z"/>
	<path class="st0" d="M181.8,646.3c2.2-0.1,4.1-0.1,5.9-0.4c1.5-0.3,2.9-1,4.7-1.6c-2.6,8.8-3.1,9-15.1,5c-1.2-4.4-2.7-8.9,2.9-13.8
		C180.8,639.8,181.3,642.8,181.8,646.3z"/>
	<path class="st0" d="M317.9,353c1.6,8.4,0.2,14.5-4.8,20.3C310.5,365,311.7,359.2,317.9,353z"/>
	<path class="st0" d="M367.5,805.6c-6.4,6.3-11.6,3.1-19.2,2.4c4.6-3.6,7.2-5.7,10.5-8.3C361.4,801.5,364,803.3,367.5,805.6z"/>
	<path class="st0" d="M115.3,312.1c8,7.3,7.3,13.6,0,17.6C115.3,323.8,115.3,317.9,115.3,312.1z"/>
	<path class="st0" d="M117.6,338.8c8.1,8.9,7.7,12.4-0.7,15.3C117.2,349.5,117.4,345.1,117.6,338.8z"/>
	<path class="st0" d="M218.4,348.9c-2.8,2.1-4.6,3.7-6.6,4.7c-0.4,0.2-2.9-2.6-2.8-2.9c1.3-2,2.9-3.8,4.7-5.2
		C214,345.2,215.9,347,218.4,348.9z"/>
	<path class="st0" d="M226.8,524.4c-5,3.5-8.7,5.2-14.9,0.6C217.7,524.7,220.9,520.4,226.8,524.4z"/>
	<path class="st0" d="M185.9,609c-7.8-5.2-1.2-7.8-0.5-11.7c0.7,0.1,1.5,0.2,2.2,0.4C187.1,601.5,186.5,605.3,185.9,609z"/>
	<path class="st0" d="M214.5,547.6c-2.9-1.2-5.9-2.4-9.4-3.8c0.6-2.3,1.1-4.2,2-7.3c3.4,4,5.9,7.1,8.5,10.1
		C215.2,547,214.8,547.3,214.5,547.6z"/>
	<path class="st0" d="M103.9,310.7c-0.2,3.9-1.5,6.8-7,6.9C98.2,313.6,100.3,311.5,103.9,310.7z"/>
	<path class="st0" d="M314.5,381c0,2.6,0,5.2,0,9c-5.7-3.3-3.9-6.1-2.5-8.9C312.8,381.1,313.6,381.1,314.5,381z"/>
	<path class="st0" d="M225.4,301c-2.7,0.7-4.1,1.5-5.5,1.4c-1-0.1-1.8-1.4-3.7-3c2.7-0.7,4.1-1.5,5.5-1.3
		C222.6,298.1,223.4,299.4,225.4,301z"/>
	<path class="st0" d="M206.3,322.8c-2.2,1.4-3.7,2.5-5.3,3.1c-0.3,0.1-2.1-2.4-1.9-2.6c1.1-1.3,2.5-2.5,4.1-3.2
		C203.6,319.8,204.8,321.4,206.3,322.8z"/>
	<path class="st0" d="M216.1,305.1c1,2.4,2.1,3.9,1.8,4.7c-0.7,1.5-2.2,2.8-3.7,3.7c-0.3,0.2-2.7-1.8-2.6-2
		C212.3,310,213.5,308.7,216.1,305.1z"/>
	<path class="st0" d="M172.2,441c0.6-2.7,1.2-5.5,2.3-10.3C178.4,436.9,175.4,438.9,172.2,441z"/>
	<path class="st0" d="M320.8,338.9c-1.8,1.2-2.9,2.3-4.1,2.5c-0.6,0.1-2.3-2-2.1-2.4c0.6-1.2,1.8-2.4,3-2.9
		C318,335.9,319.2,337.5,320.8,338.9z"/>
	<path class="st0" d="M123.1,376.5c0.1-3.1,0.3-6.1,0.4-9.2c0.5,0,1,0,1.5,0c0,3.1,0,6.2,0,9.3C124.4,376.5,123.8,376.5,123.1,376.5
		z"/>
	<path class="st0" d="M200.1,471.4c0.6-5.3,0.9-8.3,1.4-12.9C204.2,464.8,204.2,464.8,200.1,471.4z"/>
	<path class="st0" d="M127.9,394.5c0.7,2.5,1.3,5,2.2,8.4C124.2,400.7,128.2,397.1,127.9,394.5z"/>
	<path class="st0" d="M115.3,722.3c-1.7-1.1-3.3-2.1-5-3.2c0.4-0.7,0.7-1.3,1.1-2c1.8,0.8,3.6,1.6,5.5,2.5
		C116.3,720.5,115.8,721.4,115.3,722.3z"/>
	<path class="st0" d="M155.5,502.2c-3.2,2.7-6.1,3.1-10-1.4C150,501.4,152.8,501.8,155.5,502.2z"/>
	<path class="st0" d="M173.1,665c1.3,1.2,2.7,2.4,3.9,3.7c0.2,0.2-0.9,1.4-1.4,2.1c-1.5-1.1-3.1-2.1-4.6-3.2
		C171.8,666.9,172.4,666,173.1,665z"/>
	<path class="st0" d="M152.8,609.2c0.6-1.9,1.3-3.9,2.3-7C158.6,606.6,156.9,608.4,152.8,609.2z"/>
	<path class="st0" d="M271.6,293c-1,1.3-1.8,2.6-2,2.5c-1.3-0.5-2.4-1.3-3.5-2.1c0.6-0.6,1.3-1.7,1.9-1.7
		C269,291.7,270.1,292.4,271.6,293z"/>
	<path class="st0" d="M181.2,325.4c0.3,1.5,0.7,3.1,0.8,4.6c0,0.1-1.7,0.4-2.6,0.6c0-1.7,0-3.3,0-5
		C180,325.5,180.6,325.5,181.2,325.4z"/>
	<path class="st0" d="M185.8,776.7c-1.7,4-4.6,4.5-8.5,1.5c2.9-0.4,5.9-0.8,8.8-1.3L185.8,776.7z"/>
	<path class="st0" d="M311.2,405.4c-1.2-2-2.3-3.1-2.1-3.8c0.2-0.9,1.5-1.7,2.4-2.3c0.2-0.1,1.7,1.2,1.6,1.8
		C313.1,402.2,312.3,403.2,311.2,405.4z"/>
	<path class="st0" d="M117,610.6c-1.7-0.2-3.3-0.4-5-0.5c0.1-0.6,0.1-1.8,0.2-1.8c1.6-0.2,3.3-0.2,5-0.3
		C117.1,608.9,117,609.8,117,610.6z"/>
	<path class="st0" d="M179.1,841.9c-1.1-1.2-2.1-2.4-3.2-3.6c1.1-0.6,2.1-1.2,3.2-1.8c0.5,1.5,1,3.1,1.4,4.6
		C180.1,841.3,179.6,841.6,179.1,841.9z"/>
	<path class="st0" d="M307.4,418c0-1.7,0-3.3,0-5c0.5-0.1,1-0.1,1.5-0.2c0.3,1.7,0.6,3.4,0.9,5.1C309,418,308.2,418,307.4,418z"/>
	<path class="st0" d="M131.5,424.4c-0.2-1.7-0.3-3.4-0.5-5.1c0.6-0.1,1.2-0.2,1.8-0.3c0.4,1.7,0.8,3.4,1.1,5.1
		C133.1,424.2,132.3,424.3,131.5,424.4z"/>
	<path class="st0" d="M186.1,777c1-2.3,1.4-5.3,5.7-4.6c0.1,4.6-3.2,4.1-5.9,4.4C185.8,776.7,186.1,777,186.1,777z"/>
	<path class="st0" d="M143.2,486.7c-0.5-2.5-1-5-1.4-7.5c0.7-0.1,1.4-0.3,2.1-0.4c0.5,2.5,1.1,5,1.6,7.5
		C144.7,486.4,143.9,486.5,143.2,486.7z"/>
	<path class="st0" d="M214.3,676.4c0.3,1.4,0.8,2.4,0.5,3c-0.4,0.7-1.4,1.1-2.1,1.6c-0.3-0.8-0.9-1.7-0.7-2.4
		C212.1,677.9,213.1,677.4,214.3,676.4z"/>
	<path class="st0" d="M197.7,478.7c1.9-1,2.9-1.6,3.9-2.1c0.5,1,1.3,2.1,1.4,3.1c0,0.5-1.5,1.7-2.1,1.6
		C200,481.1,199.3,480,197.7,478.7z"/>
	<path class="st0" d="M172.3,331.1c0.9,1.6,1.4,2.6,2,3.5c-0.8,0.4-1.7,1.3-2.2,1.1c-0.7-0.2-1.6-1.2-1.7-2
		C170.3,333.2,171.3,332.5,172.3,331.1z"/>
	<path class="st0" d="M251.6,528.6c1.7,0,3.3,0,5,0c-0.2,0.9-0.5,2.4-0.7,2.4c-1.5,0-3-0.4-4.5-0.6
		C251.5,529.8,251.5,529.2,251.6,528.6z"/>
	<path class="st0" d="M198.3,495.4c-0.8,1-1.4,2.3-1.8,2.2c-1-0.1-1.9-0.9-2.8-1.4c0.6-0.6,1.2-1.6,1.9-1.8
		C196.2,494.2,197.1,494.9,198.3,495.4z"/>
	<path class="st0" d="M253,571.9c1.5,1.2,2.2,1.7,2.9,2.2c-0.8,0.7-1.5,1.6-2.4,1.8c-0.4,0.1-1.6-1-1.7-1.7
		C251.8,573.6,252.6,572.8,253,571.9z"/>
	<path class="st0" d="M200.5,865.7c-0.6,1-1,1.8-1.5,2.5c-0.7-0.7-1.7-1.3-2.1-2.2c-0.2-0.4,0.9-1.7,1.5-1.8
		C198.9,864.1,199.7,865.1,200.5,865.7z"/>
	<path class="st0" d="M155.2,577.5c1-1.3,1.7-2.2,2.5-3.2c0.8,0.7,2.3,1.6,2.2,2c-0.3,1-1.2,2-2.1,2.7
		C157.4,579.2,156.3,578.2,155.2,577.5z"/>
	<path class="st0" d="M152.5,621c-0.7-0.6-1.5-1.1-1.5-1.4c0.1-0.8,0.6-1.5,1-2.2c0.4,0.4,1.2,0.7,1.2,1.1
		C153.2,619.2,152.8,620,152.5,621z"/>
	<path class="st0" d="M212.4,321.7c0.8-0.9,1.7-2.1,1.9-2c0.9,0.4,1.6,1.3,2.4,2c-0.7,0.6-1.3,1.6-2,1.6
		C214.1,323.4,213.4,322.4,212.4,321.7z"/>
	<path class="st0" d="M203.7,830.5c-0.9-0.8-1.5-1.3-2.1-1.9c0.6-0.6,1.1-1.7,1.7-1.7c0.7,0,1.4,0.9,2.1,1.4
		C205,828.9,204.4,829.5,203.7,830.5z"/>
	<path class="st0" d="M105.9,334.4c-0.9,0.8-1.5,1.3-2.1,1.9c-0.4-0.7-0.9-1.4-1-2.2c-0.1-0.4,0.9-1.3,1-1.3
		C104.4,333.2,105,333.7,105.9,334.4z"/>
	<path class="st0" d="M208.4,703.4c-0.2,0.6-0.5,1.1-0.7,1.6c-0.7-0.4-1.3-0.7-2-1.1c0.4-0.4,0.8-1.1,1.3-1.3
		C207.3,702.5,207.9,703.1,208.4,703.4z"/>
	<path class="st0" d="M184.6,682.2c-0.6-1.2-1-1.9-1.4-2.6c0.8-0.3,1.5-0.9,2.3-0.9c0.3,0,1.2,1.1,1.1,1.3
		C186.2,680.6,185.5,681.2,184.6,682.2z"/>
	<path class="st0" d="M302.4,802.1c-0.2-0.8-0.6-1.6-0.6-2.4c0-0.2,1-0.5,1.5-0.7c0.3,0.8,0.7,1.5,1,2.3
		C303.9,801.5,303.3,801.7,302.4,802.1z"/>
	<path class="st0" d="M379.4,814.3c0.6-0.7,1.1-1.4,1.8-1.9c0.1-0.1,1.3,0.8,1.3,0.9c-0.4,0.8-1,1.4-1.5,2.2
		C380.5,815.2,380.1,814.9,379.4,814.3z"/>
	<path class="st0" d="M194.9,663c1.3,3.3,2,4.3,1.8,4.7c-0.3,0.5-1.4,0.8-2.1,0.9c-0.2,0-0.8-0.9-0.8-1.4
		C193.8,666.3,194.2,665.5,194.9,663z"/>
	<path class="st0" d="M202.6,840.3c-2.5,0.7-3.5,1.3-3.9,1c-0.6-0.4-0.8-1.4-1.2-2.2c0.5-0.2,1.1-0.8,1.6-0.7
		C200,838.7,200.7,839.3,202.6,840.3z"/>
	<path class="st0" d="M232.6,847.4c-0.3,0.8-0.5,1.3-0.7,1.9c-0.7-0.4-1.5-0.7-2.1-1.2c-0.2-0.1,0.3-1,0.5-1.5
		C231.1,846.8,231.9,847.1,232.6,847.4z"/>
	<path class="st0" d="M167.7,522c-0.8-0.4-1.3-0.6-1.8-0.9c0.5-0.6,0.9-1.4,1.6-1.8c0.3-0.2,1,0.4,1.6,0.6
		C168.6,520.6,168.2,521.3,167.7,522z"/>
	<path class="st0" d="M168.5,504.6c-0.6-1.2-1-1.9-1.4-2.7c0.7-0.4,1.4-0.9,2.2-1c0.2,0,1,1,0.9,1.3
		C170,503,169.3,503.6,168.5,504.6z"/>
	<path class="st0" d="M106,631.3c0.6,0.3,1.1,0.5,1.7,0.8c-0.3,0.5-0.8,1.4-1,1.4c-0.8-0.2-1.5-0.8-2.2-1.2
		C105.1,631.9,105.5,631.6,106,631.3z"/>
	<path class="st0" d="M174.4,787.3c0.5-0.2,1.2-0.7,1.3-0.5c0.4,0.4,0.6,1,0.9,1.5c-0.5,0.2-1.2,0.7-1.4,0.6
		C174.8,788.5,174.6,787.9,174.4,787.3z"/>
	<path class="st0" d="M358,787.5c-0.6,0-1.1,0.1-1.7,0.1c0.1-0.5,0.1-1.1,0.3-1.6c0-0.1,0.8-0.2,0.9,0
		C357.7,786.4,357.8,786.9,358,787.5z"/>
	<path class="st0" d="M177.2,412.3c-0.5,0.3-1,0.5-1.5,0.8c-0.2-0.5-0.7-1.1-0.6-1.5c0.1-0.4,0.9-0.5,1.4-0.8
		C176.7,411.3,176.9,411.8,177.2,412.3z"/>
	<path class="st0" d="M268.1,409.9c-0.3,0.5-0.5,1.2-1,1.4c-0.3,0.1-0.9-0.5-1.4-0.8c0.3-0.5,0.5-1.2,1-1.4
		C266.9,409,267.6,409.6,268.1,409.9z"/>
	<path class="st0" d="M298.1,300.6c-0.3,0.5-0.6,1-0.9,1.3c-0.1,0.1-0.8-0.1-0.8-0.2c0-0.5,0-1.1,0.1-1.6
		C297,300.3,297.5,300.4,298.1,300.6z"/>
	<path class="st0" d="M265.1,561.9c-0.8,0.4-1.5,1-2.4,1.2c-0.2,0.1-1-1.3-1-1.3c0.6-0.6,1.4-1.1,2.1-1.6
		C264.2,560.6,264.6,561.1,265.1,561.9z"/>
	<path class="st0" d="M322.9,673.9c0.5,0.3,1,0.6,1.4,1c-0.4,0.5-0.7,1.2-1.1,1.3c-0.4,0.1-0.9-0.5-1.4-0.9
		C322.2,674.8,322.6,674.4,322.9,673.9z"/>
	<path class="st0" d="M1828.6,374.8c-4.2,0.3-6.4,0.4-9.2,0.6c-0.6,5.1-0.9,10.3-1.9,15.4c-2.3,11.6-7,15.8-18.6,17.4
		c-15.6,2.1-16,2.2-17.5-13.3c-2.1-20.8-3.5-41.7-5.1-62.5c-1.8-23.5-3.4-47.1-5-70.6c-0.1-1.6,0-3.3,0-4.8
		c15.5-9.2,32.8-3,37.3,13.7c2.2,8,3,16.3,3.9,24.6c1.1,9.9,1.5,19.8,2.4,29.7c0.8,8.4-0.3,17,6.3,24.3c2.4,2.7,3.6,8.3,0.5,13.1
		c-3.9,6.1-3.5,6.3,3.3,9.2C1825.7,371.8,1826.2,372.6,1828.6,374.8z"/>
	<path class="st0" d="M1809.1,233.3c1.3-2.1,3.2-5.1,5.2-8.4c5.1,0.8,6.9,3.4,6.2,8.3c-0.5,3.7-0.1,7.5,1.8,11.7
		c1.2-1.4,2.2-3.2,3.7-3.9c1.5-0.8,4.2-1.2,5.2-0.4c1.1,0.9,0.8,3.4,1,5.2c0,0.3-0.2,0.7-0.5,0.9c-9.7,6.7-10.2,17.2-10.8,27.5
		c-0.2,2.8,0.3,5.8,1.1,8.5c1.6,5.2,1.8,5.1-5.3,10.9c-0.5-6.2-1.1-11.6-1.5-17c-0.2-2.6-0.2-5.3-0.4-7.9
		c-0.6-6.8-4.1-13.1-1.5-20.7C1814.6,244.3,1810.9,238.9,1809.1,233.3z"/>
	<path class="st0" d="M1787,244.8c-4,1.8-7.6,4-11.6,5c-4.9,1.2-10.1,1.4-15.7,2.1c-0.7-3.7,0.2-7.2,4.1-9.4
		c5.2-2.9,6.9-7.5,7.7-13.1c0.3-1.9,1.8-4.2,3.5-5.2c1-0.6,3.8,0.7,4.9,2c2.3,2.4,1.2,5-1.1,6.8c-3,2.2-3.5,4.6-0.8,8.2
		C1780,243.1,1784.8,237.1,1787,244.8z"/>
	<path class="st0" d="M1813.1,210.4c-5.3-3.7-8.9-6.2-14.2-9.9c4.3-1.7,6.5-2.5,9.2-3.6c0.4-1.8,0.9-4.2,1.7-8c2.6,3,4.3,4.8,6,6.8
		c2.7,1.5,7.5-5.7,9.4,2.7C1819.2,199.4,1813.9,201.6,1813.1,210.4z"/>
	<path class="st0" d="M1895.5,319.3c-11.7-10.1-13.3-15.2-7.2-21.4C1898.5,305.1,1900.1,309.6,1895.5,319.3z"/>
	<path class="st0" d="M1866.4,496.7c-4.8,1.5-9.5,3.8-14.4,4.4c-3,0.4-6.4-1.7-10.6-3c2.1-2.4,2.9-3.8,4.2-4.6c1-0.7,2.5-1.1,3.6-1
		c5.8,0.9,11.5,2,17.3,3C1866.5,495.8,1866.4,496.2,1866.4,496.7z"/>
	<path class="st0" d="M1721.9,432.2c-8.5,4.6-16.1,6-24.2,2.8C1705.1,432.5,1712,425.3,1721.9,432.2z"/>
	<path class="st0" d="M1833.9,316.4c-3.2-2.8-6.1-4.6-7.7-7.2c-0.9-1.4-0.4-4.6,0.7-6c2-2.4,4.8-2,6.8,0.5
		C1836.3,307,1837.4,310.6,1833.9,316.4z"/>
	<path class="st0" d="M1750.6,511.3c5.7,0,10.4,0,15.3,0c2.3,3.5,0.2,5.7-2.9,6.5C1757.7,519.2,1754,516.3,1750.6,511.3z"/>
	<path class="st0" d="M1782.8,652.8c-4,1.2-8.1,2.3-12.8,3.7C1771.9,648.5,1775.8,646.9,1782.8,652.8z"/>
	<path class="st0" d="M1673.5,341.9c5.9,2.4,7.6,6.2,8,11.1C1674.2,353.3,1673.3,352.1,1673.5,341.9z"/>
	<path class="st0" d="M1728,579.5c7.4,2.3,10.3,7.3,10.1,16.2C1731.6,591.1,1733.2,583.1,1728,579.5z"/>
	<path class="st0" d="M1834.4,480.7c4-3.9,8.2-5.8,14.1-3.6C1841.3,483.8,1839.9,484.2,1834.4,480.7z"/>
	<path class="st0" d="M1849.6,192.7c-0.4-5.9,4.1-7.6,7.8-10.8C1856.1,190.1,1856.1,190.1,1849.6,192.7z"/>
	<path class="st0" d="M1909,327.7c6.5,0.3,7.4,3.3,7.2,8C1910.2,336.5,1910,332.7,1909,327.7z"/>
	<path class="st0" d="M1802.8,169c0.7,4.6,1.4,9.3,2.1,14.2c-7.2-3.5-7.5-5.7-2-14.1L1802.8,169z"/>
	<path class="st0" d="M1731.5,332.9c-1.7-1.8-2.8-3.1-4-4.3c1.1-1,2.4-2.9,3.4-2.7c1.5,0.3,2.7,1.9,4,3
		C1734,329.9,1733.1,331.1,1731.5,332.9z"/>
	<path class="st0" d="M1712.9,669.1c-2.5,5.5-8.3,2.1-12.5,3.2c3.7-1.8,7.5-3.7,11.2-5.5C1712,667.6,1712.4,668.4,1712.9,669.1z"/>
	<path class="st0" d="M1909.8,378c2.5-0.3,5-0.6,8.4-1C1914.6,382.4,1914.6,382.4,1909.8,378z"/>
	<path class="st0" d="M1831.4,345.3c4.4-1.8,7.2-3,10-4.1C1840.7,346.7,1838.5,349,1831.4,345.3z"/>
	<path class="st0" d="M1852.4,539.8c-2.1,0.8-4.2,1.7-6.9,2.8C1847,537,1847,537,1852.4,539.8z"/>
	<path class="st0" d="M1896.6,371.6c-0.7-3.7,0.2-5.8,3.6-5.9c0.7,0,2,1.1,2,1.6C1902.2,370.5,1900.6,372,1896.6,371.6z"/>
	<path class="st0" d="M1818.7,340.4c0.4-2.2,0.7-4.4,1.1-6.6c0.4-2.2,0.8-4.4,1.3-7.4C1822.3,335.6,1822.3,335.6,1818.7,340.4z"/>
	<path class="st0" d="M1734.9,721.5c-1.9-1.9-3.8-3.7-5.7-5.6c0.6-0.7,1.1-1.3,1.7-2c2.1,1.6,4.2,3.2,6.3,4.8
		C1736.4,719.7,1735.7,720.6,1734.9,721.5z"/>
	<path class="st0" d="M1859.9,338.1c-3.1,2.7-5,4.3-8.1,6.9C1851.6,338.5,1853.2,336.6,1859.9,338.1z"/>
	<path class="st0" d="M1903.4,478.1c-1.6,1.6-3.2,3.2-6,5.9c-0.5-5.3,1.4-6.7,4.2-7.6C1902.2,477.1,1902.8,477.6,1903.4,478.1z"/>
	<path class="st0" d="M1720.9,199.4c-2.1-1.5-4.3-2.9-6.4-4.4c0.4-0.7,0.8-1.3,1.2-2c2.3,1.2,4.6,2.5,6.9,3.7
		C1722,197.6,1721.5,198.5,1720.9,199.4z"/>
	<path class="st0" d="M1882.4,212.2c1.5,1.7,2.5,2.8,3.5,3.8c-1,0.7-2,1.9-3,1.8c-1-0.1-2.4-1.2-2.8-2.2
		C1879.9,215,1881.3,213.8,1882.4,212.2z"/>
	<path class="st0" d="M1829.2,484.7c-2.1,1.2-3.4,1.9-4.7,2.6c-0.5-1-1.6-2.2-1.4-3.1c0.2-0.9,1.7-1.9,2.7-2
		C1826.7,482.1,1827.6,483.4,1829.2,484.7z"/>
	<path class="st0" d="M1861.7,396.1c-2.4,0.8-4.8,1.5-7.2,2.3c-0.2-0.7-0.5-1.4-0.7-2.2c2.4-0.9,4.7-1.9,7.1-2.8
		C1861.1,394.2,1861.4,395.1,1861.7,396.1z"/>
	<path class="st0" d="M1911,213.5c-1.5,0.7-2.7,1.7-3.1,1.5c-1.1-0.8-1.8-2.1-2.7-3.2c0.7-0.6,1.7-1.7,2.1-1.6
		C1908.4,210.6,1909.1,211.7,1911,213.5z"/>
	<path class="st0" d="M1889.3,193.3c-1.7,1.5-2.7,3.1-3.5,3c-1.3-0.2-2.5-1.4-3.7-2.2c0.7-0.9,1.5-2.6,2.2-2.6
		C1885.6,191.4,1887,192.4,1889.3,193.3z"/>
	<path class="st0" d="M1726.4,663.7c1.8-0.7,3.5-1.5,5.3-1.9c0.2,0,0.9,2,1.3,3.1c-1.8,0.7-3.7,1.4-5.5,2
		C1727.2,665.8,1726.8,664.7,1726.4,663.7z"/>
	<path class="st0" d="M1836.3,420.5c-1.1-1.4-2.3-2.5-2.1-2.7c0.9-1.2,2.1-2.2,3.2-3.3c0.6,0.6,1.9,1.6,1.8,1.9
		C1838.5,417.7,1837.5,418.8,1836.3,420.5z"/>
	<path class="st0" d="M1826,209.9c-1,0.4-2.3,1.4-2.9,1.1c-0.8-0.5-1.3-1.9-1.4-3c0-0.5,1.3-1.4,2-1.4c1.2,0,2.4,0.6,3.6,1
		C1826.9,208.4,1826.5,209.2,1826,209.9z"/>
	<path class="st0" d="M1822.4,222.4c1-1.3,2-2.5,2.9-3.8c0.7,0.6,2,1.5,1.9,1.6c-0.8,1.4-1.8,2.6-2.8,3.9
		C1823.8,223.5,1823.1,223,1822.4,222.4z"/>
	<path class="st0" d="M1759.5,719.4c-0.8,2-1.6,3.9-2.3,5.9c-0.7-0.3-1.3-0.5-2-0.8c0.7-2,1.5-4,2.2-5.9
		C1758.1,718.8,1758.8,719.1,1759.5,719.4z"/>
	<path class="st0" d="M1845.7,627.2c0.8,2.4,1.7,3.7,1.5,4.8c-0.1,0.9-1.4,2.2-2.2,2.3c-0.9,0-2.4-1-2.6-1.9
		C1842.2,631.7,1843.5,630.6,1845.7,627.2z"/>
	<path class="st0" d="M1768.1,637.5c-1.3,1.7-2.5,3.4-3.8,5.2c-0.5-0.4-1-0.8-1.5-1.1c1.3-1.7,2.6-3.4,3.8-5.1
		C1767.1,636.7,1767.6,637.1,1768.1,637.5z"/>
	<path class="st0" d="M1871.1,490.2c-0.5-1-1.3-1.9-1.1-2.5c0.2-0.7,1.3-1.1,2-1.7c0.6,0.9,1.2,1.8,1.8,2.6
		C1873,489.1,1872.2,489.6,1871.1,490.2z"/>
	<path class="st0" d="M1796.5,440.7c-0.9-0.6-1.6-1.1-2.2-1.6c0.8-0.7,1.5-1.6,2.4-2.1c0.2-0.1,1.6,1.1,1.6,1.6
		C1798.2,439.2,1797.2,439.8,1796.5,440.7z"/>
	<path class="st0" d="M1898.7,436.8c0.9,1.3,2,2.5,1.8,2.7c-0.7,0.9-1.7,1.7-2.8,2.1c-0.3,0.1-1.8-1.5-1.7-1.8
		C1896.5,438.8,1897.5,438,1898.7,436.8z"/>
	<path class="st0" d="M1779.6,714.8c-1.5,1.2-2.3,2.3-2.8,2.2c-1.1-0.2-2-1.2-3-1.8c0.6-0.6,1.3-1.7,1.9-1.8
		C1776.8,713.4,1777.8,714.1,1779.6,714.8z"/>
	<path class="st0" d="M1745.6,696.8c-2.7,1.2-3.8,2.1-4.3,1.8c-0.9-0.4-1.5-1.6-2.3-2.4c0.7-0.5,1.4-1.4,2.1-1.5
		C1741.9,694.7,1742.8,695.5,1745.6,696.8z"/>
	<path class="st0" d="M1858.8,384.7c-0.9-0.7-1.6-1.1-2.3-1.6c0.8-0.8,1.6-1.6,2.3-2.4c0.6,0.6,1.7,1.2,1.7,1.9
		C1860.5,383.2,1859.5,383.9,1858.8,384.7z"/>
	<path class="st0" d="M1857.2,368c0.5,0.7,1.2,1.2,1.5,1.9c0.1,0.2-0.7,0.8-1.1,1.2c-0.6-0.5-1.2-1.1-1.8-1.6
		C1856.2,369.1,1856.6,368.6,1857.2,368z"/>
	<path class="st0" d="M1863.4,258c-0.7-0.8-1.7-1.7-1.5-2c0.3-0.7,1.2-1.5,2-1.6c0.5-0.1,1.2,1,1.8,1.5
		C1865,256.5,1864.3,257.1,1863.4,258z"/>
	<path class="st0" d="M1720.7,600.2c1,0.9,2,1.8,3,2.7c-1,0.2-2.1,0.5-3.1,0.4c-0.3,0-0.6-1-0.9-1.6
		C1720.1,601.2,1720.4,600.7,1720.7,600.2z"/>
	<path class="st0" d="M1949.4,604.3c-3.6,1-4.6,1.7-5.1,1.4c-0.6-0.4-0.8-1.5-0.9-2.3c0-0.1,1.1-0.7,1.6-0.6
		C1945.9,602.9,1946.7,603.3,1949.4,604.3z"/>
	<path class="st0" d="M1830.9,331.1c-0.6-1.2-1.4-2-1.3-2.6c0.2-0.8,1.1-1.3,1.8-2c0.5,0.7,1.4,1.4,1.3,2
		C1832.6,329.2,1831.7,329.9,1830.9,331.1z"/>
	<path class="st0" d="M1858.2,211c-1.3,0.8-2.6,1.7-3.8,2.5c-0.3-0.5-0.7-1-1-1.5c1.3-0.8,2.6-1.7,3.8-2.5
		C1857.5,210,1857.8,210.5,1858.2,211z"/>
	<path class="st0" d="M1795.2,468c1.1,2.6,1.4,3.3,1.8,4.1c-0.7,0.3-1.5,0.7-2.2,0.7c-0.3,0-0.9-0.9-0.9-1.4
		C1794,470.6,1794.5,469.9,1795.2,468z"/>
	<path class="st0" d="M1685,676c-0.6,0.7-1.2,1.4-1.9,1.9c-0.1,0.1-1.4-0.9-1.3-1c0.4-0.8,1-1.5,1.5-2.2
		C1683.8,675,1684.3,675.4,1685,676z"/>
	<path class="st0" d="M1720.2,541.4c-2.5,1.1-3.4,1.7-4.3,1.8c-0.8,0.1-1.6-0.5-2.4-0.9c0.5-0.7,0.9-1.8,1.6-2.1
		C1715.9,539.9,1716.9,540.5,1720.2,541.4z"/>
	<path class="st0" d="M1745.7,425.5c-0.7,0.9-1.4,2.3-1.7,2.2c-0.9-0.3-1.7-1.1-2.5-1.7c0.6-0.7,1.1-1.7,1.8-1.8
		C1743.9,424,1744.7,424.9,1745.7,425.5z"/>
	<path class="st0" d="M1835.5,491.3c-0.9,0.6-1.9,1.3-2.8,1.8c-0.1,0-1-1.2-0.9-1.2c0.7-0.9,1.6-1.6,2.5-2.4
		C1834.5,490,1834.8,490.4,1835.5,491.3z"/>
	<path class="st0" d="M1752.5,496.8c0.7,0.4,1.7,0.7,1.7,0.9c-0.1,0.9-0.5,1.7-0.8,2.5c-0.7-0.4-1.9-0.7-1.9-1.1
		C1751.4,498.3,1752.1,497.6,1752.5,496.8z"/>
	<path class="st0" d="M1796.5,496.6c0.6,1.1,1.5,2.1,1.2,2.5c-0.4,0.8-1.4,1.4-2.2,2c-0.3-0.8-1-1.6-0.9-2.4
		C1794.7,498.1,1795.7,497.5,1796.5,496.6z"/>
	<path class="st0" d="M1861.2,249.7c-0.6-0.6-1-0.9-1.4-1.3c0.6-0.6,1.1-1.3,1.7-1.8c0.1-0.1,1.2,0.8,1.1,1
		C1862.2,248.4,1861.7,249,1861.2,249.7z"/>
	<path class="st0" d="M1727,187.9c-0.5,0.4-1,1.1-1.4,1c-0.5-0.1-0.9-0.8-1.3-1.3c0.6-0.5,1.2-0.9,1.8-1.4
		C1726.4,186.7,1726.7,187.3,1727,187.9z"/>
	<path class="st0" d="M1955,621.2c-1.3,0.5-2.2,1.2-2.8,1c-0.6-0.2-1.1-1.2-1.3-2c-0.1-0.4,0.6-0.9,0.9-1.4
		C1952.5,619.3,1953.1,619.8,1955,621.2z"/>
	<path class="st0" d="M1842.9,318.9c1.2,0.8,2.2,1.2,2.6,1.9c0.2,0.3-0.8,1.9-1.3,1.9c-0.8,0-2-0.6-2.4-1.3
		C1841.6,321.1,1842.4,320,1842.9,318.9z"/>
	<path class="st0" d="M1820.4,319.9c-0.8-1.8-1.3-2.8-1.6-3.9c0-0.1,1.6-1.1,2-0.8c0.7,0.4,1.4,1.4,1.5,2.1
		C1822.3,317.9,1821.4,318.5,1820.4,319.9z"/>
	<path class="st0" d="M1759.8,314c1,0.9,2.1,1.4,2,1.9c0,0.6-0.9,1.3-1.5,1.8c-0.2,0.1-1.3-0.6-1.3-0.9
		C1759,316,1759.4,315.3,1759.8,314z"/>
	<path class="st0" d="M1779.3,614.5c0.8,0.4,1.7,0.9,1.7,1c-0.3,0.8-0.7,1.6-1.2,2.3c-0.1,0.1-1.4-0.6-1.4-0.7
		C1778.5,616.2,1778.9,615.3,1779.3,614.5z"/>
	<path class="st0" d="M1733.2,283.3c0.9-0.9,1.6-1.5,2.3-2.1c0.6,0.7,1.6,1.4,1.6,2c-0.1,0.7-1,1.7-1.7,1.9
		C1734.9,285.2,1734.1,284,1733.2,283.3z"/>
	<path class="st0" d="M1784.2,415.1c-1.1,0.3-2.2,0.6-3.3,0.8c-0.1,0-0.5-1.4-0.4-1.5c0.9-0.6,2-1,3-1.5
		C1783.6,413.4,1783.8,414,1784.2,415.1z"/>
	<path class="st0" d="M1676.3,495.8c-0.6-0.7-1-1.2-1.4-1.6c0.6-0.6,1.2-1.2,1.9-1.6c0.1-0.1,1.2,1,1.1,1.2
		C1677.5,494.6,1676.9,495.2,1676.3,495.8z"/>
	<path class="st0" d="M1762.3,621.3c0.6,0.7,0.9,1.1,1.3,1.6c-0.5,0.4-0.9,1-1.4,1.1c-0.5,0.1-1.1-0.4-1.6-0.7
		C1761.1,622.7,1761.7,622,1762.3,621.3z"/>
	<path class="st0" d="M1861.6,473.9c-1.1,0.8-1.8,1.7-2.4,1.7c-0.6,0-1.2-1.1-1.8-1.7c0.7-0.6,1.3-1.5,2-1.6
		C1859.9,472.3,1860.6,473.2,1861.6,473.9z"/>
	<path class="st0" d="M1889.5,182.9c-0.5-0.2-1.1-0.4-1.6-0.7c0.4-0.6,0.7-1.2,1.1-1.9c0.4,0.4,1.1,0.7,1.2,1.2
		C1890.3,181.9,1889.7,182.4,1889.5,182.9z"/>
	<path class="st0" d="M1845.3,254.1c0.3-0.4,0.7-0.7,1-1.1c0.2,0.4,0.5,0.9,0.6,1.4c0,0.1-0.5,0.6-0.5,0.6
		C1846,254.6,1845.6,254.3,1845.3,254.1z"/>
	<path class="st0" d="M1716.1,530.9c-0.3-0.4-0.6-0.8-0.9-1.1c0.4-0.2,0.8-0.5,1.3-0.7c0.1,0,0.5,0.5,0.4,0.6
		C1716.7,530.1,1716.4,530.5,1716.1,530.9z"/>
	<path class="st0" d="M1738.7,172.4c0.5,0.4,0.9,0.8,1.4,1.2c-0.6,0.5-1.2,1-1.8,1.4c-0.3-0.5-0.9-1.1-0.8-1.5
		C1737.5,173.1,1738.3,172.7,1738.7,172.4z"/>
	<path class="st0" d="M1802.8,169.2c2,0,4,0,8,0C1806.3,172.9,1804.6,170.7,1802.8,169.2C1802.8,169,1802.8,169.2,1802.8,169.2z"/>
	<path class="st0" d="M2954.8,227.4c2.1-2.4,4.2-5,6.4-7.3c2.6-2.7,2.6-2.6,2.8-9c-8.7,0-17.5,0-26.1,0c-1.4-6,2.9-5.7,5.4-7.4
		c2.1-1.5,3.4-4.3,5.5-7.1c6.3,6,13.7,5.9,22,0.3c-4.8-4.5-10.5-4.7-15.7-6.2c-3.8-1.1-7.6-1.9-11.3-3.2c-3.8-1.4-7.3-3.1-11.3-0.3
		c-4.1,2.8-6.6,0.6-7.4-3.7c-4.1,1.6-7.5,3.1-10.9,4.3c-4.8,1.7-9.5,4.8-14.3-1.1c-1.3-1.6-5.7-0.8-8.6-0.9c-2,0-4.1,1-5.8,0.5
		c-1.5-0.5-2.6-2.4-3.9-3.8c1.3-1.2,2.6-3.5,3.9-3.5c5.3-0.1,10.6,0.9,15.9,0.8c7.5,0,15.1-0.6,22.6-0.8c5.2-0.1,10.7-1,15.6,0.1
		c10.1,2.4,20.2,5.4,29.9,9.1c4.8,1.8,9.2,3,14.4,2.9c3.8,0,7.6,1.6,12.1,2.6c0-10.1,0-19.5,0-29.4c6.7-2.7,13.7-3.3,20.5-2.8
		c8.3,0.6,14.5,5.1,16.6,13.6c1.4,5.5,2.6,11.1,3,16.7c3.5,44.1,6.8,88.3,10.1,132.4c1.5,20.2,2.9,40.5,4.3,60.8
		c1.9,26.7,3.9,53.5,5.9,80.2c1.9,24.6,4,49.1,5.9,73.7c0.2,2.3,0.1,4.7-0.1,7c-1.1,12.9-6.1,18.5-18.9,20.5
		c-5.5,0.9-11.1,0.8-17.5,1.3c-0.7-5.3-1.5-9.5-1.8-13.7c-2.7-34.2-5.3-68.3-7.8-102.5c-1.6-21.6-2.9-43.1-4.3-64.7
		c-0.9-14.3-1.7-28.5-2.6-42.8c-0.1-1.3,0.2-2.8-0.3-4c-4-10.2-3.1-20.9-3.8-31.5c-1.1-18.3-2.5-36.5-3.8-54.8
		c-0.5-7.3-1-14.6-1.7-21.9c-0.2-2.6-0.5-6.1-4.2-5.4c-4.3,0.7-2.1,3.9-1.5,6.3c0.1,0.5-0.2,1.2-0.4,1.9c-11.2,0.2-22-1.1-32.3-6.3
		c-2-1-4.5-0.8-6.8-1.1L2954.8,227.4z M2980.5,200.4c4.3,7.5,9.4,9.4,16.9,9.1C2994,202.4,2988.9,200.7,2980.5,200.4z"/>
	<path class="st0" d="M2947.4,132.6c-5.4,4.5-9.6,6.6-15.4,5.8c-5.1-0.7-10.5,0.4-15.7,0.3c-2.2,0-4.4-1-7.7-1.9
		C2918.8,129.3,2912.5,132,2947.4,132.6z"/>
	<path class="st0" d="M3064.6,174.2c-7.2-4.9-2.1-9.5-0.5-14.1c6.7-1,13.4-3.4,20.1,0.5C3077.6,165.2,3071.3,169.6,3064.6,174.2z"/>
	<path class="st0" d="M2954.6,227.2c-9.2,9.8-22.1,12.3-33.2,18.2c-0.5-0.5-1.1-1-1.6-1.5c0.8-1.8,1.2-4.6,2.5-5.1
		c10.7-4.1,21.7-7.7,32.5-11.5C2954.8,227.4,2954.6,227.2,2954.6,227.2z"/>
	<path class="st0" d="M3142.1,281.6c1.1,3.5,2.2,7,3.6,11.3c-4.1,1.3-7.4,2.4-10.7,3.5c1.6-5.5,2.9-10.1,4.3-14.8
		C3140.2,281.6,3141.2,281.6,3142.1,281.6z"/>
	<path class="st0" d="M2952.4,102.2c0.9,1.9,1.9,3.8,3,6.1c-3.6,1.5-6.7,2.8-9.8,4.1C2942.7,106.5,2942.7,106.5,2952.4,102.2z"/>
	<path class="st0" d="M2952.8,141.3c1.6,7.8-2.2,10.1-7.3,12.3C2943.2,146.7,2947.4,144.6,2952.8,141.3z"/>
	<path class="st0" d="M2987.7,266.9c-9.8-4.4-9.8-4.4-8.9-12C2982,259.2,2984.4,262.4,2987.7,266.9z"/>
	<path class="st0" d="M2893.9,168.3c3.4-5.3,5.8-5.1,8.7,1.1C2898.3,168.9,2896.1,168.6,2893.9,168.3z"/>
	<path class="st0" d="M2956.1,310.3c0.6,2.1,1.1,4.2,2.1,7.8C2953.3,315.9,2952,314,2956.1,310.3z"/>
	<path class="st0" d="M2899.3,147c0-2,0-4,0-7.1C2903.5,142.7,2902.9,144.8,2899.3,147z"/>
	<path class="st0" d="M2986.4,286.8c3.8,1.1,5.8,1.6,9.4,2.7C2990.9,292.6,2989.1,291.7,2986.4,286.8z"/>
	<path class="st0" d="M2951.7,262.3c1.9-1.4,3.8-2.9,6.7-5c-0.2,2.1,0.1,3.4-0.4,3.7c-1.7,1.1-3.6,1.9-5.5,2.8
		C2952.2,263.2,2951.9,262.7,2951.7,262.3z"/>
	<path class="st0" d="M2940.2,280.8c0.8,1.7,1.5,3.3,2.2,5c0.1,0.1-1.4,1.1-1.4,1c-1.3-1.3-2.5-2.8-3.8-4.2
		C2938.2,282,2939.2,281.4,2940.2,280.8z"/>
	<path class="st0" d="M3141.8,151.4c-1.2-1.7-2.4-3.4-3.6-5.1c0.5-0.4,1-0.9,1.5-1.3c1.4,1.5,2.8,3,4.2,4.5
		C3143.3,150.1,3142.5,150.8,3141.8,151.4z"/>
	<path class="st0" d="M3051.2,176c2.7-1.4,3.4-1.8,4.2-2.2c0.3,0.8,0.8,1.6,0.8,2.4c0,0.4-0.9,1.1-1.4,1
		C3054,177.2,3053.1,176.7,3051.2,176z"/>
	<path class="st0" d="M2941.1,157.7c0.8,0.7,1.5,1.2,2.1,1.7c-0.7,0.8-1.4,1.6-2,2.4c-0.6-0.6-1.7-1.2-1.7-1.8
		C2939.5,159.4,2940.4,158.7,2941.1,157.7z"/>
	<path class="st0" d="M2937.2,151.1c-1.1,0.6-2.1,1.6-2.6,1.3c-0.8-0.4-1.4-1.5-2-2.3c0.8-0.4,1.6-1,2.4-1
		C2935.7,149.4,2936.3,150.3,2937.2,151.1z"/>
	<path class="st0" d="M2970.1,267.2c-0.4-0.4-1.1-0.8-1.1-1.2c0-0.4,0.7-0.8,1.1-1.3c0.4,0.4,0.8,0.8,1.2,1.3
		C2970.9,266.3,2970.5,266.8,2970.1,267.2z"/>
	<path class="st0" d="M2960.7,163.6c-0.3-0.7-0.8-1.3-0.7-1.6c0.2-0.5,0.8-0.9,1.4-1c0.3-0.1,0.8,0.6,1.2,0.9
		C2961.9,162.5,2961.3,163,2960.7,163.6z"/>
	<path class="st0" d="M875.1,479c-1.8-24.8-3.4-48.1-5.3-71.3c-1.6-19.9-3.8-39.8-5.4-59.7c-0.6-7.2-0.1-14.4-0.1-21.8
		c8.4-3,16.4-2.8,24.2-1.2c7.4,1.5,11.1,7.2,12.3,14.2c1.4,7.5,2.5,15.1,3.3,22.7c2.4,25.9,4.8,51.7,6.7,77.6c0.5,6.9,0,14-1,20.9
		c-1.4,9.4-5.8,15.9-16.7,16.7C887.6,477.5,882,478.2,875.1,479z"/>
	<path class="st0" d="M993.6,414.8c-10.7-0.6-18.5-1-27.3-1.5c1-2.5,1.2-4.9,2.1-5.1c5.4-1.6,9.6-6.9,16.6-4.1
		c3.1,1.2,7.6-0.9,12.4-1.7c-3.4-6.2-9-6.1-13.3-6.8c-10.1-1.6-20.3-2.2-30.5-2.8c-3.6-0.2-7.4,0.1-10.8,1.1
		c-4.4,1.4-7.9,2.2-11.9-1.3c-1.6-1.4-5.6-0.5-8.5-0.1c-5.6,0.8-5.9,0.6-7.5-7.7c12.6-3.8,25.2,5,37.5,1c1.2-7.4-7.8-5.6-9.2-11.6
		c1.7,0,3.3-0.5,3.9,0.1c11.3,10.4,25.9,13.1,39.9,16.9c7.8,2.1,14.9,6.7,23.9,5.4c4.9-0.7,6.7,1.7,9.4,6.6
		c-4,5.7-11.1-4.2-15.1,3.4c4.3,6.1,10.8,8.4,18.3,10.6c-2.2,1.1-4.3,2.1-6.1,3c-0.6,4.9-1.2,9.6-1.8,14.9c-3.2-0.5-5.6-0.9-8.8-1.4
		c1.4-2.7,2.4-4.6,3.5-6.9c-1.5,0-2.6-0.3-3.3,0.1c-2,1.2-3.7,3-5.7,3.9c-2.4,1-5.9,2.4-7.5,1.4c-6.8-4.2-12.7-1.5-19.1,1.2
		c0.7-3.2,3.8-3.3,5.9-4.7c2.5-1.7,5-3.3,7.1-5.4C989.7,421.1,991,418.6,993.6,414.8z"/>
	<path class="st0" d="M882.6,577.1c12.1-10,26.6-7.9,38.2-15.5c0.7,5.7-2.2,6.4-5.1,7.4c-3.1,1-6.2,2.2-8.8,4.1
		C898.5,579,896.4,579.6,882.6,577.1z"/>
	<path class="st0" d="M974.7,342.1c-4.1,4.4-8.2,7.4-14.7,5c-2.9-1.1-7,0.4-10.5,1c-3.3,0.6-6.5,1.2-8.6-3.4
		C952,338.7,963.4,341.5,974.7,342.1z"/>
	<path class="st0" d="M833.2,629.5c-6,4.4-38.3,9.9-46.8,7.4C803.1,632,818.4,632.3,833.2,629.5z"/>
	<path class="st0" d="M969.1,528c-7.3-0.6-14.3,0-20.6,4.2c-0.8,0.5-3.1-1.2-4.7-1.9c1.1-1.4,1.9-3.7,3.2-3.9
		c6.1-1.2,12.3-2.1,18.5-2.7c1.2-0.1,2.6,1.2,3.9,1.9C969.3,526.3,969.2,527.2,969.1,528z"/>
	<path class="st0" d="M804.3,580.7c-5,6.5-12.3,8.8-18.2,5.9C791.3,578.7,795.7,577.2,804.3,580.7z"/>
	<path class="st0" d="M864,603.3c-14,3.5-14.5,3.5-16.9-1.1c3-0.9,6.4-1.2,8.8-2.9C861.9,595.1,862,600,864,603.3z"/>
	<path class="st0" d="M946.7,443.5c6.8-2.8,13.5-5.6,20.3-8.4C963.1,441.2,955.7,444.4,946.7,443.5z"/>
	<path class="st0" d="M911.4,535.4c6.3-5.8,11.9-4.8,17.5-3.5C924.5,536.4,919.2,536.7,911.4,535.4z"/>
	<path class="st0" d="M865.2,744.7c-6.2,5.6-6.2,5.6-13.1-1.9C856.9,741.5,856.9,741.5,865.2,744.7z"/>
	<path class="st0" d="M970.9,360.2c2.5-2.6,5-5.2,8.6-8.9c0.7,3,1.9,5.6,1.4,6c-2.8,2.2-5.1,7.2-9.8,2.8
		C971.1,360.1,970.9,360.2,970.9,360.2z"/>
	<path class="st0" d="M920.5,571.8c4.1-0.7,8.3-1.4,12.4-2.1c0.2,0.7,0.3,1.5,0.5,2.2c-4.1,1-8.1,2-12.2,3
		C920.9,573.9,920.7,572.8,920.5,571.8z"/>
	<path class="st0" d="M992.1,603.3c3.9-1.1,7.8-2.3,13.1-3.8C1000.9,605.1,1000.9,605.1,992.1,603.3z"/>
	<path class="st0" d="M837.2,799.5c4.9-3.7,7.9-3,10.6,1.2C842.7,802.3,842.7,802.3,837.2,799.5z"/>
	<path class="st0" d="M948.4,570.2c-2.6,2.6-5.3,5.1-8.5,8.3C938.7,571.9,938.7,571.9,948.4,570.2z"/>
	<path class="st0" d="M795,712c2,2,3.9,4,7.4,7.4c-7,0.2-7.5-3.3-8.8-5.9C794,713,794.5,712.5,795,712z"/>
	<path class="st0" d="M773.5,674.1c4.7,2.8,4.7,2.8,2.9,7.4c-1-1.2-2-2-2.4-3C773.5,677.2,773.6,675.6,773.5,674.1z"/>
	<path class="st0" d="M933.3,376.9c-3.6-1-5.9-1.5-9.6-2.5C929.7,371.3,929.7,371.3,933.3,376.9z"/>
	<path class="st0" d="M814.2,413.9c3.2-1.1,6.2-4,10.5-0.8C821,416.2,817.5,414.8,814.2,413.9z"/>
	<path class="st0" d="M834.6,741c-2.7,0.2-4.3,0.6-5.6,0.2c-0.5-0.2-1-2.6-0.6-3.2c0.6-0.7,2.4-1,3.4-0.7
		C832.7,737.6,833.2,739.1,834.6,741z"/>
	<path class="st0" d="M982.6,539.3c1.9-0.2,3.7-0.3,5.6-0.5c0.1,0.7,0.3,1.3,0.4,2c-1,0.5-2,1.2-3.1,1.5c-0.8,0.2-1.8-0.4-2.6-0.6
		C982.7,540.9,982.7,540.1,982.6,539.3z"/>
	<path class="st0" d="M1011.4,600.6c1.3-3.1,3-4.8,6-2.9c0.5,0.3,0.8,2,0.4,2.6C1015.8,603.7,1013.7,602.5,1011.4,600.6z"/>
	<path class="st0" d="M964.3,373.2c-2,1.5-2.9,2.7-3.8,2.7c-0.9,0-1.8-1.2-2.7-1.9c0.6-0.7,1.2-1.8,2-1.9
		C960.8,372,961.9,372.6,964.3,373.2z"/>
	<path class="st0" d="M768.4,280.3c2.2,0.6,4.3,1.3,8.3,2.5C770.9,284.5,770.9,284.5,768.4,280.3z"/>
	<path class="st0" d="M769.4,638.9c3.5-0.8,5.6-1.3,7.8-1.8c0.2,1.4,0.5,2.2,0.3,2.5C775.7,641.8,773.7,642.9,769.4,638.9z"/>
	<path class="st0" d="M888.4,537.2c-0.8,1-1.3,2.2-1.8,2.2c-0.9-0.1-1.8-0.8-2.8-1.3c0.6-0.6,1.1-1.6,1.8-1.8
		C886.3,536.2,887.2,536.8,888.4,537.2z"/>
	<path class="st0" d="M750.4,265.3c0.9,1.4,1.4,2.4,2,3.3c-0.8,0.4-1.6,1.2-2.3,1.1c-0.7-0.2-1.7-1.1-1.8-1.9
		C748.3,267.3,749.3,266.6,750.4,265.3z"/>
	<path class="st0" d="M971.1,360.1c-3.1,0.8-6.1,1.7-9.4-0.9c4.2-4.7,6.4,0,9.1,1.1C970.9,360.2,971.1,360.1,971.1,360.1z"/>
	<path class="st0" d="M971.4,482.4c-1.2,0.8-2.2,1.9-2.6,1.7c-1.1-0.5-1.8-1.6-2.7-2.4c0.9-0.7,1.9-2.2,2.6-2.1
		C969.6,479.8,970.3,481.2,971.4,482.4z"/>
	<path class="st0" d="M815.5,725.9c-1.4-1.1-2.9-2.2-4.2-3.4c-0.1-0.1,0.7-1.5,0.8-1.5c1.7,0.5,3.4,1.2,5.1,1.8
		C816.6,723.9,816,724.9,815.5,725.9z"/>
	<path class="st0" d="M761.7,339.7c-0.7,1-1.2,1.7-1.7,2.5c-0.8-0.8-1.7-1.5-2.2-2.5c-0.1-0.2,1.1-1.7,1.7-1.7
		C760.1,338,760.8,339,761.7,339.7z"/>
	<path class="st0" d="M787.4,288.6c-1.2,0.7-1.9,1.1-2.6,1.6c-0.3-0.8-0.8-1.5-0.9-2.3c0-0.4,1-1.2,1.3-1.1
		C785.9,287.1,786.4,287.8,787.4,288.6z"/>
	<path class="st0" d="M1004.6,574.8c-1-0.8-1.7-1.3-2.4-1.8c0.7-0.5,1.3-1.2,2-1.4c0.4-0.1,1.5,0.6,1.5,0.8
		C1005.6,573.1,1005.2,573.8,1004.6,574.8z"/>
	<path class="st0" d="M968.3,368.8c1.2-0.6,2.3-1.2,3.5-1.7c0.3,0.5,0.5,1.1,0.8,1.6c-1.2,0.5-2.3,1.1-3.5,1.6
		C968.8,369.8,968.5,369.3,968.3,368.8z"/>
	<path class="st0" d="M968.4,612.7c0.9,0.9,1.9,1.8,2.8,2.7c-0.6,0.6-1.1,1.1-1.7,1.7c-0.8-1.1-1.5-2.3-2.3-3.4
		C967.7,613.4,968.1,613.1,968.4,612.7z"/>
	<path class="st0" d="M777.1,694c0.8,2.7,1.5,3.7,1.2,4c-0.4,0.6-1.4,0.8-2.2,1c-0.1,0-0.7-1-0.6-1.5
		C775.6,696.7,776.1,696,777.1,694z"/>
	<path class="st0" d="M815.5,614.1c-0.7,0.9-1.2,1.6-1.7,2.3c-0.9-0.7-1.8-1.3-2.7-2c0.6-0.6,1.2-1.7,1.8-1.8
		C813.6,612.5,814.4,613.4,815.5,614.1z"/>
	<path class="st0" d="M978.9,498c0.6,1.4,1.3,2.4,1.2,3c-0.2,0.6-1.3,1.2-2,1.4c-0.4,0.1-1-0.6-1.5-0.9
		C977,500.8,977.5,500.1,978.9,498z"/>
	<path class="st0" d="M849,554.6c-1.1,0.7-1.8,1.5-2.4,1.5c-0.6-0.1-1.2-1.1-1.8-1.6c0.6-0.6,1.2-1.5,1.9-1.5
		C847.4,552.9,848,553.8,849,554.6z"/>
	<path class="st0" d="M895.9,249.2c-1.2,0.3-2.4,0.6-3.6,0.9c-0.1-0.5-0.3-1.1-0.4-1.6c1.2-0.3,2.4-0.6,3.6-0.9
		C895.6,248.1,895.7,248.6,895.9,249.2z"/>
	<path class="st0" d="M783,702.2c0.5,1,1.3,1.9,1.1,2.3c-0.3,0.7-1.3,1.3-2,1.4c-0.3,0.1-1.4-1.3-1.3-1.6
		C781.2,703.6,782,703.1,783,702.2z"/>
	<path class="st0" d="M971.2,319.1c-0.5-0.6-1-1.3-1.5-2c0.7-0.4,1.7-1.2,2.1-1c0.6,0.3,0.9,1.4,1.3,2.2
		C972.6,318.5,972.1,318.7,971.2,319.1z"/>
	<path class="st0" d="M996.9,465.9c-0.7-0.5-1.5-1-1.5-1.1c0.3-0.8,0.8-1.5,1.3-2.2c0.6,0.4,1.2,0.9,1.8,1.3
		C998,464.6,997.5,465.2,996.9,465.9z"/>
	<path class="st0" d="M770.8,663.9c-0.7,0.5-1.4,1-2.1,1.3c-0.2,0.1-0.7-0.7-1.1-1.1c0.6-0.5,1.3-1.1,2-1.6
		C769.6,662.5,770.2,663.3,770.8,663.9z"/>
	<path class="st0" d="M794,420.1c-0.5,0.4-0.9,1.1-1.4,1.1c-0.4,0-0.9-0.7-1.3-1.1c0.6-0.5,1.2-1.1,1.8-1.6
		C793.4,419.1,793.7,419.6,794,420.1z"/>
	<path class="st0" d="M974.5,578.3c-1.3,0.9-1.9,1.7-2.6,1.8c-0.6,0-1.2-0.8-1.8-1.3c0.4-0.4,0.8-1,1.3-1.1
		C972.2,577.7,973,578,974.5,578.3z"/>
	<path class="st0" d="M782.6,751.4c-0.3,0.5-0.6,0.9-1,1.4c-0.5-0.4-1.1-0.9-1.6-1.3c0.4-0.4,0.9-1,1.3-1
		C781.7,750.4,782.2,751.1,782.6,751.4z"/>
	<path class="st0" d="M1010.4,496.7c-0.3,0.5-0.7,0.9-1,1.4c-0.5-0.3-1.3-0.6-1.3-1c-0.1-0.4,0.6-0.9,0.9-1.4
		C1009.4,496.1,1009.9,496.4,1010.4,496.7z"/>
	<path class="st0" d="M749.3,283c0.3,1.2,0.6,2.4,0.9,3.7c-0.4,0.1-0.8,0.2-1.3,0.3c-0.3-1.2-0.6-2.4-0.9-3.7
		C748.5,283.2,748.9,283.1,749.3,283z"/>
	<path class="st0" d="M607.3,632.6c-2.4,1.1-3,1.7-3.6,1.6c-10.8-0.2-13.5,1.7-14.2,12.5c-0.4,6.6,0.7,13.2,1.2,19.9
		c0.8,9.3,1.6,18.5,2.5,28.1c6.7,1.8,10.5,6.4,14.6,11.4c3.5,4.2,10,5.9,15.2,8.7c3,1.6,6,3.2,9,4.9c-0.2,0.7-0.4,1.3-0.6,2
		c-3.1,0.2-6.1,0.4-9,0.6c-6.1,13.8-6.1,13.8,10.7,26.5c-8.7,5.9-17.1,11.7-25.5,17.4c5.2,8.8,11.6,9.8,27.5,3.3
		c2,1.5,4.3,3.3,7.1,5.5c5.1-7.3,12-9.2,20.1-7.9c0.3,0.1,0.8,0.1,1-0.1c8.2-7.4,18.9-3.6,28.2-6.5c3.6-1.1,7.8-0.2,12.4-0.2
		c-0.2,1.3-0.4,2.7-0.6,4.1c4.4,1.4,8.7,2.9,13.1,4.3c-0.2,0.9-0.4,1.9-0.6,2.8c-5.4-0.6-11.1-0.5-16.2-2.1
		c-9.4-3.1-18.4-0.4-27.5,0.6c-0.3,0-0.7,0.1-1,0.3c-12.2,5.2-12.2,5.2-23.1,5.2c-7.7,9.8-8.4,9.8-17.7,0.6
		c-3.4,3.5-6.7,9.2-12.6,3.5c-6.2,1.4-12.7,2.2-18.6,4.5c-3.2,1.2-5.7,3.3-9.3,0.3c0.9-4,1.8-8.2,2.9-13.2c3.7,1.7,7.1,3.3,13,6.1
		c-2.7-7.4-4.7-12.7-7.1-19.3c-1.8-1.1-4.9-2.9-8.1-4.7c-0.5,0.1-1.3,0.1-1.8,0.4c-17.9,10.9-30.5-4.2-31.5-19.5
		c-1.5-22.6-3.3-45.1-4.8-67.7c-1.1-16.3-2.1-32.5-3.3-48.8c-0.7-9.3-1.8-18.5-2.5-27.8c-1.8-22.2-3.4-44.4-5.1-66.6
		c-2.4-31.2-4.4-62.4-7.4-93.6c-0.5-5.5-0.4-10.9-0.7-16.4c-0.7-11.2-1.8-22.4-2.8-33.8c-3.5-3.8-7.9-5.1-13.3-4.4
		c-4.6,0.6-9.3,0.3-14,0c-2-0.1-4-1.3-7.2-2.5c11.5-8.8,23-1.1,34.1-3.5c2-9.3,2.6-19.6,15.4-21.1c13.4-1.5,17.5,8.5,23.1,18.5
		c14.7-6.3,30.3-5.8,45.7-7.7c0.3,0.7,0.5,1.3,0.8,2c-1.6,1.8-3.2,3.6-4.9,5.5c0.6,1.6,1.3,3.3,1.9,5.1c-8.1-6.1-16-3.8-24.9-0.3
		c6,7.9,11.7,15.4,17.3,22.8c-5.1,7.6-5.2,15.6-0.4,22.4c-4.3,7.4-9.5-1.4-15.3,0.3c1.3-4.1,2.7-8.3,4-12.4
		c-13-0.9-19-1.5-21.7-14.8c-0.3,3.7-1.1,7.4-0.9,11.1c1.7,23.6,3.5,47.1,5.3,70.7c2.2,28.5,4.6,57,6.4,85.6
		c0.5,7.7,2.1,14.2,8.5,19.3c5,4,5,6.5-0.2,10.1c-3.7,2.5-4.4,5.5-4.4,9.3c0,4.3,0.1,8.7,0.4,13c0.3,6.2,1.8,11.3,8.8,14
		C599.6,624.2,602.8,628.7,607.3,632.6z M600.4,741.1c-0.6,0.4-1.3,0.7-1.9,1.1c1.5,8.4,4.5,11.6,12.7,12.6
		C607.2,749.8,603.8,745.4,600.4,741.1z M595.4,394c0.2-0.7,0.4-1.4,0.6-2.1c-3-0.6-5.9-1.3-8.9-1.9c-0.1,0.5-0.3,1.1-0.4,1.6
		C589.6,392.4,592.5,393.2,595.4,394z M600.2,733.6c-0.5-0.3-1.1-0.8-1.5-0.7c-0.5,0.1-0.8,0.8-1.2,1.3c0.7,0.4,1.3,0.8,2,1.1
		C599.7,734.7,599.9,734.2,600.2,733.6z"/>
	<path class="st0" d="M669.4,406.2c-4.2-0.8-7.2-1.4-11.2-2.2c1.4,5.1,3.9,6.3,8.1,6.1c4.7-0.3,5.3,2.8,4.4,6.9
		c-4.1,1.3-10.1-2.5-12.1,4.5c-1.9-2.5-3.8-5-5.7-7.5c-6.2,4.3,1.7,8.7-0.8,12.8c-9.5-5.8-10.9-10.6-5.7-20.3
		c-2.3-0.5-4.4-1-6.4-1.5c-2-0.5-4.1-1.2-6.1-1.8c1.8-8,12.9,1.5,12.3-9c5.8,2.4,10.2,5.6,16.5,3.1
		C666.1,395.8,669.6,399.9,669.4,406.2z"/>
	<path class="st0" d="M643.5,633.3c-3.8,0-6.5-0.5-8.9,0.1c-2.3,0.6-5.3,1.9-6.2,3.8c-1.5,3.3,1.7,4.3,4.2,5.2
		c0.9,0.3,1.6,0.9,2.9,1.7c-3.7,7.5-10.4,2.8-16,5.3c1.2-10.1,4.4-17,13.2-21.1C638.7,625.5,638.5,625,643.5,633.3z"/>
	<path class="st0" d="M517.6,806.7c12.4-3.4,35.3-2.1,41.3,1.9c-0.8,1-1.7,2.7-2.3,2.7C544.2,810.3,531.6,812.4,517.6,806.7z"/>
	<path class="st0" d="M611,403.2c0.4,1.2,0.7,2.6,1.3,3.7c3.5,6.7,7.1,13.4,10.8,20.1c2.9,5.3,3,5.2,0.6,15.3
		c-3.5-13.3-13.3-22-15.8-34.3c-0.2-1,0.5-2.3,0.8-3.4C609.5,404.2,610.2,403.7,611,403.2z"/>
	<path class="st0" d="M650.8,491.9c-4.1-1.9-8-4.9-12.2-5.3c-3.9-0.4-8.1,2-13,3.4c2.4-11.1,10.6-9.9,18.2-11.6
		c2.8,3.7,5.8,7.7,8.8,11.7C652,490.7,651.4,491.3,650.8,491.9z"/>
	<path class="st0" d="M566.2,790.6c10.4,1,19.6,1.7,28.7,2.8c1.4,0.2,2.6,2.3,3.8,3.5c-1.5,1-3.1,2.9-4.5,2.8
		c-6.2-0.3-12.4-1-18.5-1.9C572.1,797.3,567.7,797.1,566.2,790.6z"/>
	<path class="st0" d="M625.3,314.5c6.6,2.4,13.6-1.3,19.6,5.3c-2.9,1.1-5.4,3-7.3,2.5c-6.4-1.7-10,1.6-13.5,6.7
		C618.7,323.4,624.2,319.7,625.3,314.5z"/>
	<path class="st0" d="M649.7,447.7c-7.1,4.2-12.3,8.4-21.2,9.8c4.2-5.1,6.8-9.1,10.2-12.2C642.1,442.2,645.2,444.7,649.7,447.7z"/>
	<path class="st0" d="M664.9,508.9c-1,3.8-1.6,5.9-2,8c-0.3,1.9-0.3,3.8-0.5,6.4c-6.4-1.1-10-4.4-11.8-10.4
		C654.9,511.8,659.1,510.6,664.9,508.9z"/>
	<path class="st0" d="M621.9,789.3c-6.6,13.7-6.6,13.7-14.4,11.4C615.3,788,615.3,788,621.9,789.3z"/>
	<path class="st0" d="M518.6,739.3c-6.4,2.6-12.4,1.2-19.8,0.5C508.4,731.5,514.2,731.6,518.6,739.3z"/>
	<path class="st0" d="M677,614c8.4-1.5,16.7-3,25.1-4.5c0.3,0.8,0.7,1.5,1,2.3c-1.5,1.2-3,3.4-4.6,3.5c-7.1,0.4-14.2,0.2-21.3,0.2
		C677.1,615,677,614.5,677,614z"/>
	<path class="st0" d="M645.3,467.5c-4.4,4.1-7.8,5.9-11.7,3.3c-1.4-0.9-2.7-4-2.2-5.4c0.5-1.3,3.6-2.7,5.2-2.4
		C639.4,463.6,641.7,465.5,645.3,467.5z"/>
	<path class="st0" d="M635.9,380.6c7-5.1,12.4-1.3,17.6-1.6c0.7,0,1.6,2.9,3.3,6.1C649.3,383.5,643.5,382.3,635.9,380.6z"/>
	<path class="st0" d="M598.3,549.9c-6.7-0.8-6.7-0.8-10.5-8.5C597.4,540,597.4,540,598.3,549.9z"/>
	<path class="st0" d="M701.3,703.7c-3.7-3.9-2.2-8.2-2.3-12.6C707.8,693.4,708,694.8,701.3,703.7z"/>
	<path class="st0" d="M659.2,673.3c-2.4,2-4.1,4.2-5,3.9c-2.2-0.6-4-2.5-6-3.8c1.6-1.4,3.1-3.7,4.8-3.8
		C654.6,669.4,656.4,671.5,659.2,673.3z"/>
	<path class="st0" d="M673.8,443.8c5.4,3.3,7.1,6.1,3.9,9.7c-1,1.1-4.2,1.8-4.9,1.2C669,451.1,673.3,448.5,673.8,443.8z"/>
	<path class="st0" d="M651.4,749.2c3.9,1.3,7.8,2.6,13.3,4.4C656.2,757.4,656.1,757.3,651.4,749.2z"/>
	<path class="st0" d="M641.3,729.1c-3.6,7.6-6.9,8.7-15.4,4.3C631.4,731.9,636.4,730.5,641.3,729.1z"/>
	<path class="st0" d="M607.8,560c9.6,4.2,9.6,4.3,5.6,12.5C611.3,567.7,609.6,563.9,607.8,560z"/>
	<path class="st0" d="M633.3,682.6c7.1,4.9,7.1,4.9,0.5,10.3C633.7,688.8,633.5,685.7,633.3,682.6z"/>
	<path class="st0" d="M636,806.1c-3.5-1.4-8.5-1.2-9-7.6C632.4,798.5,634.7,801.6,636,806.1z"/>
	<path class="st0" d="M631.5,355.8c-5.6-0.5-6.7-5.4-9.9-9.2c7.2,0.9,8,1.7,9.8,9.3L631.5,355.8z"/>
	<path class="st0" d="M584.2,785.7c-5.6,3.2-8.2,1.4-11-2.7C577.5,781,580.3,782.2,584.2,785.7z"/>
	<path class="st0" d="M611.4,452.3c-5.2,0.4-5.2,0.4-5.3-8.4c3,2.6,5,4.3,7.1,6.1C612.6,450.7,612,451.5,611.4,452.3z"/>
	<path class="st0" d="M664.5,619.2c2.6,0.5,5.3,0.9,9.5,1.6c-4.7,4.9-7.3,3.3-9.9,1.2C664.2,621.1,664.3,620.1,664.5,619.2z"/>
	<path class="st0" d="M594.7,352.5c-3.9-0.4-6.3-0.7-9.5-1.1C589.2,347,589.2,347,594.7,352.5z"/>
	<path class="st0" d="M641.8,528.7c4.7-2.1,7.7-2.4,11.4,0.8C649.1,532.2,646.2,530.8,641.8,528.7z"/>
	<path class="st0" d="M665.7,538c-3,0.5-5.9,0.9-10.2,1.6c3.1-5.5,6.5-4.4,9.7-3.9C665.3,536.5,665.5,537.3,665.7,538z"/>
	<path class="st0" d="M512.2,784.6c-3.4-0.1-7.4,1.7-9.1-3.2c6.4-4.3,7.3-4,8.8,3.4L512.2,784.6z"/>
	<path class="st0" d="M670.5,388.5c-2.8,0.4-5.6,0.8-10.1,1.5c1.6-2.9,2.4-4.4,3.2-5.9c2.2,1.6,4.4,3.2,6.6,4.7
		C670.3,388.8,670.5,388.5,670.5,388.5z"/>
	<path class="st0" d="M672.8,469c2.6-2.3,5.3-4.7,9.7-8.5C678.8,467.1,678.8,467.1,672.8,469z"/>
	<path class="st0" d="M672.5,308.2c-2,2.7-3.7,5-5.7,7.8C666.2,308.7,666.2,308.7,672.5,308.2z"/>
	<path class="st0" d="M610.9,347c-0.1,2-0.2,4-0.3,7.2C606.3,351.3,606.1,349.2,610.9,347z"/>
	<path class="st0" d="M574.9,255.2c1.6,1.9,3.4,3,3.3,4.1c0,1-1.8,2.3-3,2.8c-0.6,0.2-2.7-1.3-2.6-1.9
		C572.7,258.8,573.7,257.5,574.9,255.2z"/>
	<path class="st0" d="M627.8,276.7c2.6-1.6,4.3-2.7,6.1-3.8c0.7,0.9,1.5,1.4,1.4,1.8C634.6,279.7,632.2,279.5,627.8,276.7z"/>
	<path class="st0" d="M651.5,701.6c-0.5,1.8-0.9,3.6-1.5,5.3c0,0.1-1.6-0.1-1.6-0.3c-0.1-1.8-0.1-3.6-0.1-5.5
		C649.4,701.3,650.5,701.4,651.5,701.6z"/>
	<path class="st0" d="M662.8,431.4c2.4,0.5,4.9,1,9.1,1.8c-2.3,1.5-3.1,2.4-3.6,2.3c-2-0.5-4-1.4-5.9-2.1
		C662.5,432.7,662.6,432.1,662.8,431.4z"/>
	<path class="st0" d="M610.9,259.4c1.2-0.5,2.4-1.1,3.6-1.4c1.1-0.3,2.3-0.2,4-0.3c-0.4,4.8-3,4.6-5.5,4.5
		C612.3,261.3,611.6,260.3,610.9,259.4z"/>
	<path class="st0" d="M630.9,497.2c-2.5,3.3-3.8,4.9-5.9,7.6C623.6,499.3,625.9,498.5,630.9,497.2z"/>
	<path class="st0" d="M617.6,515.8c-1.1,3.4-1.6,5.1-2.2,6.8c-1.2-0.4-2-0.3-2.3-0.7C610.9,518.3,612.1,516.7,617.6,515.8z"/>
	<path class="st0" d="M664.9,547.4c1.4-1,2.9-2,4.3-3.1c0.5,0.7,1.6,2,1.4,2.2c-1.1,1.2-2.5,2.3-3.8,3.4
		C666.2,549.1,665.6,548.2,664.9,547.4z"/>
	<path class="st0" d="M621.1,292.7c-0.4-1-1.4-2.3-1.1-2.8c0.6-0.8,1.9-1.3,2.9-1.3c0.5,0,1.4,1.3,1.4,2c0,1.2-0.6,2.4-0.9,3.7
		C622.7,293.7,621.9,293.2,621.1,292.7z"/>
	<path class="st0" d="M556.1,794.5c-1.9-0.6-3.9-1.2-7.2-2.3C553.5,789,555.2,790.5,556.1,794.5z"/>
	<path class="st0" d="M611.2,655.8c-1.3,1.1-2.2,2.2-2.7,2c-1.1-0.4-2-1.4-3-2.1c0.6-0.6,1.3-1.9,1.8-1.8
		C608.6,654,609.6,654.9,611.2,655.8z"/>
	<path class="st0" d="M568.8,804.6c1.1,1.4,2.4,2.4,2.2,3c-0.3,1-1.4,2.2-2.4,2.4c-0.6,0.1-2.4-1.3-2.3-1.9
		C566.4,807.1,567.6,806.2,568.8,804.6z"/>
	<path class="st0" d="M608.9,789.1c-2,0.9-3.2,2-4,1.7c-0.8-0.2-1.4-1.7-1.6-2.8c-0.1-0.4,1.5-1.6,2-1.5
		C606.4,786.8,607.2,787.7,608.9,789.1z"/>
	<path class="st0" d="M695.7,590.2c0.9,0.8,1.6,1.3,2.3,1.9c-0.8,0.7-1.5,1.6-2.4,2c-0.3,0.1-1.6-1.1-1.6-1.8
		C693.9,591.7,695,591,695.7,590.2z"/>
	<path class="st0" d="M511.9,784.9c1,0.2,2,0.1,2.8,0.5c1,0.6,1.7,1.6,2.5,2.4c-0.6,0.6-1.5,1.8-1.9,1.7c-1.1-0.3-2.2-1.1-2.8-2
		c-0.5-0.7-0.3-1.9-0.4-2.8C512.2,784.6,511.9,784.9,511.9,784.9z"/>
	<path class="st0" d="M650.6,639.2c-0.9,1.2-1.7,2.5-1.8,2.5c-1.2-0.6-2.3-1.4-3.4-2.1c0.6-0.6,1.2-1.8,1.8-1.7
		C648.2,637.8,649.3,638.6,650.6,639.2z"/>
	<path class="st0" d="M657.4,295.2c-0.5-1.3-1-2.5-1.5-3.8c0.4-0.2,0.8-0.5,1.2-0.7c0.8,1.1,1.5,2.2,2.3,3.3
		C658.8,294.5,658.1,294.8,657.4,295.2z"/>
	<path class="st0" d="M632.8,592.3c-1,1-1.6,2-2.3,2.1c-0.8,0.1-1.7-0.6-2.5-1c0.5-0.7,1-1.8,1.6-2
		C630.4,591.2,631.3,591.8,632.8,592.3z"/>
	<path class="st0" d="M671.9,676.9c-1.3-0.5-2.5-0.9-3.7-1.4c-0.1,0,0.3-1,0.5-1.6c1.3,0.5,2.6,1,3.9,1.5
		C672.4,675.9,672.2,676.4,671.9,676.9z"/>
	<path class="st0" d="M675.2,330.6c-0.6-1.3-1.4-2.3-1.2-2.8c0.2-0.6,1.4-1,2.2-1.2c0.2-0.1,1.1,1.1,0.9,1.4
		C676.8,328.8,676.1,329.4,675.2,330.6z"/>
	<path class="st0" d="M670.2,653.5c0.7,0.6,1.1,1,1.5,1.3c-0.7,0.4-1.3,1-2,1.2c-0.3,0.1-0.8-0.7-1.2-1
		C669,654.5,669.6,654,670.2,653.5z"/>
	<path class="st0" d="M612.6,675.7c-0.7,0.5-1.4,1.1-2.2,1.3c-0.2,0.1-1.1-1.1-1.1-1.2c0.5-0.6,1.2-1.2,1.9-1.7
		C611.3,674.1,611.9,675,612.6,675.7z"/>
	<path class="st0" d="M616.7,475.3c1.6-0.9,2.7-1.8,3-1.6c0.9,0.6,1.5,1.7,2.2,2.6c-0.5,0.3-1.1,1.1-1.5,1
		C619.4,476.9,618.5,476.3,616.7,475.3z"/>
	<path class="st0" d="M561.1,316.6c-0.9-1.3-1.8-2.7-2.7-4c0.4-0.3,0.9-0.6,1.3-0.9c1,1.3,2.1,2.6,3.1,3.9
		C562.3,315.9,561.7,316.2,561.1,316.6z"/>
	<path class="st0" d="M706.8,781.2c-0.3-0.8-0.6-1.6-0.7-2.4c0-0.1,1.4-0.7,1.5-0.5c0.5,0.6,0.8,1.4,1.1,2.2
		C708.2,780.7,707.7,780.9,706.8,781.2z"/>
	<path class="st0" d="M638.1,830.5c-1.3,1-2.2,1.6-3.1,2.3c-0.4-0.7-1.3-1.5-1.2-2.2c0.1-0.7,0.9-1.7,1.6-1.9
		C636,828.4,636.8,829.5,638.1,830.5z"/>
	<path class="st0" d="M627.5,448.1c0.6-0.6,1.1-1.4,1.8-1.8c0.1-0.1,1.3,0.9,1.3,1c-0.4,0.7-0.9,1.4-1.4,2.1
		C628.6,449,628.2,448.7,627.5,448.1z"/>
	<path class="st0" d="M640.6,434.8c-0.6,0.1-1.3,0.5-1.7,0.2c-0.4-0.3-0.4-1.1-0.6-1.6c0.8-0.1,1.6-0.3,2.3-0.4
		C640.6,433.6,640.6,434.2,640.6,434.8z"/>
	<path class="st0" d="M616.5,314.2c1,0.9,2.1,1.4,2.1,1.9c0,0.6-0.9,1.4-1.5,1.8c-0.2,0.1-1.3-0.6-1.4-0.9
		C615.7,316.2,616.1,315.5,616.5,314.2z"/>
	<path class="st0" d="M666.9,606.9c0.1,1,0.2,1.9,0.4,2.8c-0.6,0-1.4,0.3-1.6,0c-0.4-0.4-0.6-1.2-0.4-1.7
		C665.3,607.6,666.1,607.4,666.9,606.9z"/>
	<path class="st0" d="M588.5,278c-0.2,0.5-0.4,1.1-0.5,1.6c-0.8-0.3-1.5-0.5-2.3-0.8c0.5-0.6,1-1.3,1.4-1.9
		C587.6,277.3,588,277.6,588.5,278z"/>
	<path class="st0" d="M666.5,488c-0.5,0.4-0.9,0.8-1.4,1.3c-0.4-0.7-0.7-1.4-1.1-2.1c0.6-0.2,1.2-0.7,1.7-0.6
		C666,486.6,666.2,487.5,666.5,488z"/>
	<path class="st0" d="M686.6,576.2c0.6-0.3,1.3-0.7,1.9-1.1c0.2,0.5,0.8,1.3,0.6,1.5c-0.4,0.6-1.1,1-1.7,1.5
		C687.2,577.6,686.9,577,686.6,576.2z"/>
	<path class="st0" d="M651.8,472.7c-0.6,0.1-1.2,0.1-1.8,0.2c0-0.8-0.1-1.6-0.1-2.5c0.6,0.2,1.4,0.2,1.7,0.5
		C652,471.3,651.8,472.1,651.8,472.7z"/>
	<path class="st0" d="M686.2,600.7c-0.3,0.4-0.6,1.1-1,1.1c-0.4,0.1-0.9-0.5-1.3-0.8c0.3-0.4,0.6-1.1,1-1.1
		C685.3,599.9,685.8,600.4,686.2,600.7z"/>
	<path class="st0" d="M657.8,501.9c-0.9,0.2-1.7,0.5-2.4,0.5c-0.3,0-0.6-0.8-0.9-1.3c0.7-0.3,1.5-0.7,2.2-0.8
		C657,500.2,657.3,501.1,657.8,501.9z"/>
	<path class="st0" d="M512.7,752.1c0.5,0.2,1,0.4,1.4,0.6c-0.3,0.4-0.6,0.8-1,1.1c-0.1,0.1-0.7-0.2-0.7-0.3
		C512.4,753,512.6,752.6,512.7,752.1z"/>
	<path class="st0" d="M577.3,769c-0.6-0.2-1.1-0.5-1.7-0.7c0.4-0.7,0.8-1.3,1.1-2c0.5,0.4,1.2,0.7,1.3,1.2
		C578.2,767.9,577.6,768.5,577.3,769z"/>
	<path class="st0" d="M631.4,355.9c0.1,1.7,0.3,3.5,0.4,5.2c-0.7-0.1-1.4-0.1-2.1-0.2c0.6-1.7,1.2-3.4,1.8-5.1
		C631.5,355.8,631.4,355.9,631.4,355.9z"/>
	<path class="st0" d="M512.1,344.9c-0.1,0.3-0.4,0.8-0.4,0.8c-0.5-0.2-1-0.4-1.5-0.6c0.1-0.3,0.4-0.8,0.4-0.8
		C511,344.4,511.5,344.6,512.1,344.9z"/>
	<path class="st0" d="M627.1,336.9c-0.5-0.3-1-0.5-1.5-0.8c0.3-0.5,0.6-1.1,0.9-1.6c0.7,0.4,1.3,0.8,2,1.2
		C628,336,627.5,336.4,627.1,336.9z"/>
	<path class="st0" d="M632.7,307.9c-0.5,0.4-0.9,0.8-1.4,1.1c-0.4-0.7-0.7-1.3-1.1-2c0.6-0.2,1.2-0.6,1.6-0.5
		C632.3,306.6,632.5,307.4,632.7,307.9z"/>
	<path class="st0" d="M530.9,294.2c-1.3,0.5-2.2,1.1-2.7,0.9c-0.6-0.2-0.9-1.3-1.1-2c0-0.1,1.1-0.9,1.4-0.7
		C529.3,292.5,529.8,293.2,530.9,294.2z"/>
	<path class="st0" d="M1140,465.9c12.5,5.4,18.3,14.5,21.1,26c3.9,0.4,7.6,0.8,12.7,1.4c-4.4,5.5-9,4.9-12.3,2.9
		c-6.3-3.8-11.1-3.7-15.2,4.3c-2.5-4.5-4.3-7.8-6.2-11.3c1.2-0.8,1.9-1.5,2.7-1.9c7.5-3.4,8.4-6.7,3.4-13.3
		C1144.4,471.6,1142.6,469.2,1140,465.9z"/>
	<path class="st0" d="M1149,357.7c4.2-4.4,7.2-7.5,9.1-9.6c5.4-1.4,10-2.6,15.5-4c0.4,4.9,0.8,9.9,1.3,17.1
		c-5.2-3.2-8.8-5.4-12.3-7.5c-7.6,8-7.7,8.4-2.2,14.4c-2.5,2-5,3.9-9,7C1150.4,367.7,1149.6,361.8,1149,357.7z"/>
	<path class="st0" d="M1139.6,233.2c2.6,1.7,5.2,3.3,7.6,5.3c2.5,2.1,4.7,4.7,7.2,6.8c4.4,3.7,7,11.8,4.5,16.6
		c-0.8,1.6-3.3,2.3-6.8,4.5c1.6-9-4.1-12-7.9-16.2c-2.7-2.9-6.3-4.7-4-9.8c0.6-1.4-1.1-3.9-1.8-5.9
		C1138.7,234,1139.1,233.6,1139.6,233.2z"/>
	<path class="st0" d="M1176.9,533.8c1.1-2.2,1.8-5.8,3.4-6.3c6.6-1.9,13.4-3,20.3-4c1.7-0.3,3.7,0.8,6.9,1.5c-2.4,2-3.5,3.5-5,4
		c-3.4,1.3-5.6,2.9-7.8,6.3c-2.8,4.2-8.7,6.3-13.5,9c-0.7,0.4-3.4-1-3.7-2c-0.4-1.1,0.6-3.4,1.7-4c2.5-1.3,5.3-1.9,7.9-4.8
		c-3.4,0-6.8,0-10.2,0L1176.9,533.8z"/>
	<path class="st0" d="M1317.8,394.6c-12.3-1.6-25.1-1.3-35.2-10.7c6.1,1.3,12.4,2,18.2,4C1306.5,389.9,1314.2,386.6,1317.8,394.6z"
		/>
	<path class="st0" d="M1159.5,305.9c-0.7,5.4-1.3,9.7-1.8,14.2c-6.1,1.8-6.1,1.8-11.1-8.3c2-1.2,4.1-2.4,6.6-3.8
		c-0.5-2.2-1-4.4-1.8-7.7C1154.7,302.5,1157.2,304.3,1159.5,305.9z"/>
	<path class="st0" d="M1157.4,292.7c-1-3.8-2-5.9-2-8c-0.3-8.1-0.1-8.1-7.6-10c4.3-4.9,8.6-4.5,11.6,0.9c1.8,3.3,3.7,6.6,6.1,10.7
		C1163.7,287.6,1161.3,289.6,1157.4,292.7z"/>
	<path class="st0" d="M1117.9,486.7c5.8,2.3,9.8,3.5,13.4,5.5c1.7,0.9,3.7,3.5,3.5,5c-0.2,1.7-2.6,4.2-4.4,4.5
		c-2.2,0.3-5.6-0.7-6.8-2.4C1121.4,496.4,1120.4,492.5,1117.9,486.7z"/>
	<path class="st0" d="M1138.5,254.5c0.7,7.6,1.3,15.2,2,22.8c-0.7,0.3-1.4,0.5-2,0.8c-1.2-1.1-3.6-2.6-3.4-3.3
		c1.6-5.8-0.5-11-1.7-16.5c-0.3-1.3,1.4-3,2.1-4.5C1136.5,254.1,1137.5,254.3,1138.5,254.5z"/>
	<path class="st0" d="M1176.8,533.6c-6,4.4-12.1,3.2-19.2,0.8c3.9-5.4,8.3-6.1,13.3-4.1c2.1,0.8,4,2.3,6,3.5
		C1176.9,533.8,1176.8,533.6,1176.8,533.6z"/>
	<path class="st0" d="M1187.6,689.8c6.6,0,13.1,0,19.7,0c-6.6,3.4-13.2,2.9-19.8,2.2C1187.5,691.3,1187.5,690.6,1187.6,689.8z"/>
	<path class="st0" d="M1113.8,543.1c-6.3,0.7-12.7,1.5-19,2.2c5.1-4.8,13.1-6.2,18.9-4.5C1113.7,541.6,1113.8,542.3,1113.8,543.1z"
		/>
	<path class="st0" d="M1248.4,322c4.4,1.5,8.8,3,13.5,4.6C1257.2,331.1,1257.2,331.1,1248.4,322z"/>
	<path class="st0" d="M1276,502.7c-4.5,7.2-9,7.5-15.1,6C1264.2,502.3,1268.8,501.9,1276,502.7z"/>
	<path class="st0" d="M1127.5,286.3c3.9,0,7.3,0,11.1,0c-0.1,5.6-4.1,5.7-7.3,5.9C1128.4,292.4,1126.4,290.6,1127.5,286.3z"/>
	<path class="st0" d="M1184.6,561.3c-4.8,7.8-11.5,2.2-18.3,2.6c6.1-6.1,12.3-4.2,18.5-2.4C1184.8,561.6,1184.6,561.3,1184.6,561.3z
		"/>
	<path class="st0" d="M1161,386.8c-6.1-5.3,1.4-6.7,1.1-10C1166.6,380.6,1164.4,383.4,1161,386.8z"/>
	<path class="st0" d="M1280.4,326.7c-3.6-1-8.8,0.1-8.8-8.8c4.2,2.8,7.2,4.7,10.1,6.7C1281.3,325.2,1280.8,326,1280.4,326.7z"/>
	<path class="st0" d="M1358.8,327.9c-2-4.5-4-9-6.4-14.5c7.9,4.6,9.3,8.3,6.3,14.5C1358.6,328,1358.8,327.9,1358.8,327.9z"/>
	<path class="st0" d="M1106.6,590.8c4.7-1.3,9.3-2.5,14-3.8c0.2,0.7,0.4,1.5,0.6,2.2c-4.7,1.3-9.3,2.6-14,3.8
		C1107.1,592.2,1106.8,591.5,1106.6,590.8z"/>
	<path class="st0" d="M1198.9,488.3c-3.6,2.5-5.9,4.2-8.9,6.3C1190.3,488.6,1190.3,488.6,1198.9,488.3z"/>
	<path class="st0" d="M1136.4,317.8c-1.9,6.3-1.9,6.3-10.1,5C1130.5,320.7,1133,319.5,1136.4,317.8z"/>
	<path class="st0" d="M1124.4,784.8c-0.2-1.9-0.4-3.9-0.4-5.8c0-0.2,1.6-0.6,1.6-0.5c0.7,1.9,1.4,3.8,2,5.7
		C1126.6,784.3,1125.5,784.5,1124.4,784.8z"/>
	<path class="st0" d="M1316.6,466.9c-2.2,1-4.4,2-8.2,3.7c1.7-5.8,3.7-7.2,7.2-6.2C1315.9,465.3,1316.2,466.1,1316.6,466.9z"/>
	<path class="st0" d="M1342.2,483.1c1.9,0,3.7,0,5.6,0.1c0.1,0,0.2,1.6,0.1,1.7c-1.8,0.6-3.6,1-5.4,1.5
		C1342.3,485.3,1342.3,484.2,1342.2,483.1z"/>
	<path class="st0" d="M1335.5,257c1.1,1,1.7,1.6,2.4,2.1c-1,1-2,2-3.1,2.9c-0.6-0.7-1.7-1.6-1.6-2
		C1333.6,259,1334.6,258.2,1335.5,257z"/>
	<path class="st0" d="M1358,452.9c1.6,0.9,3.1,1.8,4.7,2.7c-0.4,0.7-1.2,2.2-1.2,2.1c-1.6-0.7-3.1-1.7-4.7-2.5
		C1357.1,454.4,1357.5,453.7,1358,452.9z"/>
	<path class="st0" d="M1120,456.9c2.1-0.7,3.3-1.6,4.2-1.4c0.9,0.3,1.5,1.7,2.3,2.5c-1,0.5-2,1.6-2.9,1.5
		C1122.6,459.5,1121.8,458.3,1120,456.9z"/>
	<path class="st0" d="M1098.1,501.3c1.3,1.4,2,2.2,2.8,3.1c-0.9,0.8-1.7,2.1-2.6,2.2c-0.9,0-2.4-1.1-2.6-2
		C1095.6,503.8,1097,502.8,1098.1,501.3z"/>
	<path class="st0" d="M1129.8,688.9c3.3-0.2,6.7-0.3,10-0.5c0,0.6,0.1,1.2,0.1,1.9c-3.3,0.2-6.6,0.5-9.9,0.7
		C1130,690.3,1129.9,689.6,1129.8,688.9z"/>
	<path class="st0" d="M1168.3,464.5c1.3-0.7,2.6-1.3,4-2c0.2,0.5,0.8,1.5,0.7,1.6c-1.2,0.8-2.5,1.4-3.8,2.1
		C1168.9,465.6,1168.6,465.1,1168.3,464.5z"/>
	<path class="st0" d="M1111.7,285c-1.3,0.9-2,1.5-2.7,2c-0.7-1-1.6-1.9-1.9-2.9c-0.1-0.4,1.5-1.8,1.7-1.7
		C1109.8,283,1110.5,283.9,1111.7,285z"/>
	<path class="st0" d="M1198.1,498c1.1,0.7,1.8,1.2,2.5,1.7c-0.6,0.9-1.2,1.8-1.8,2.7c-0.7-0.6-1.7-1.1-1.9-1.9
		C1196.7,499.9,1197.6,499,1198.1,498z"/>
	<path class="st0" d="M1181.4,509.3c-1.2,0.3-2.3,1-2.6,0.7c-0.7-0.5-0.9-1.6-1.3-2.5c0.7-0.3,1.7-1.1,2.1-0.9
		C1180.3,507,1180.7,508.1,1181.4,509.3z"/>
	<path class="st0" d="M1160.9,688.2c1.6,0.2,3.2,0.4,4.7,0.5c-0.1,0.6-0.1,1.1-0.2,1.7c-1.6-0.2-3.2-0.3-4.8-0.5
		C1160.8,689.3,1160.9,688.7,1160.9,688.2z"/>
	<path class="st0" d="M1153.5,433.9c0.4,0.8,0.9,1.5,1.1,2.2c0,0.2-1.2,1-1.3,0.9c-0.6-0.6-1-1.3-1.5-2
		C1152.3,434.8,1152.8,434.5,1153.5,433.9z"/>
	<path class="st0" d="M1114.5,480.4c1.6-0.4,3.1-0.8,4.7-1.2c0.2,0.6,0.3,1.1,0.5,1.7c-1.6,0.4-3.1,0.8-4.7,1.2
		C1114.8,481.6,1114.6,481,1114.5,480.4z"/>
	<path class="st0" d="M1203.2,771c1.5-0.9,3-1.8,4.5-2.6c0.1-0.1,0.9,1.3,1.4,2c-1.6,0.9-3.1,1.8-4.7,2.7
		C1204,772.5,1203.6,771.8,1203.2,771z"/>
	<path class="st0" d="M1137.6,380.5c-0.5,0.8-0.9,1.7-1.2,1.6c-0.8-0.1-1.6-0.6-2.4-1c0.3-0.5,0.7-1.3,1-1.3
		C1135.8,379.9,1136.7,380.3,1137.6,380.5z"/>
	<path class="st0" d="M1198.2,542.1c1.1-0.8,1.8-1.8,2.5-1.8c0.7,0,1.8,1.2,1.7,1.8c-0.1,0.7-1.1,1.7-1.8,1.8
		C1199.9,543.9,1199.2,542.9,1198.2,542.1z"/>
	<path class="st0" d="M1268.7,257.5c-0.6,0.7-1,1.5-1.6,2c-0.2,0.1-0.9-0.5-1.4-0.7c0.5-0.7,0.9-1.5,1.4-2.1
		C1267.2,256.6,1268,257.1,1268.7,257.5z"/>
	<path class="st0" d="M1136,584.2c-1.7,0.7-3.3,1.4-5,2c-0.2-0.4-0.4-0.8-0.7-1.2c1.6-0.9,3.1-1.7,4.7-2.6
		C1135.4,583,1135.7,583.6,1136,584.2z"/>
	<path class="st0" d="M1304.9,461.8c0.4,0.4,0.8,0.8,1.2,1.1c-0.5,0.3-1,0.6-1.5,0.7c-0.2,0-0.7-0.5-0.7-0.5
		C1304.2,462.7,1304.6,462.2,1304.9,461.8z"/>
	<path class="st0" d="M1135.3,428.1c0.9-0.1,1.7-0.4,2.4-0.3c0.3,0,0.4,1,0.6,1.5c-0.8,0.2-1.5,0.5-2.3,0.6
		C1135.8,429.9,1135.6,429,1135.3,428.1z"/>
	<path class="st0" d="M1327.3,768.2c-0.4,0.9-0.6,2-0.8,2c-0.8-0.1-1.7-0.4-2.5-0.7c0.2-0.6,0.4-1.6,0.6-1.6
		C1325.5,767.8,1326.3,768.1,1327.3,768.2z"/>
	<path class="st0" d="M1163.2,507.8c0.3,0.3,1,0.7,1,1.1c0,0.4-0.7,0.8-1.1,1.2c-0.4-0.4-0.8-0.8-1.1-1.2
		C1162.4,508.6,1162.8,508.2,1163.2,507.8z"/>
	<path class="st0" d="M1130.8,518.8c-0.4-0.4-0.7-0.8-1.1-1.2c0.5-0.4,0.9-1,1.5-1.1c0.2-0.1,0.7,0.7,1.1,1.1
		C1131.8,518,1131.3,518.4,1130.8,518.8z"/>
	<path class="st0" d="M1164.4,326.8c-0.4,0.4-0.9,1.1-1.3,1.1c-0.4,0-0.9-0.7-1.3-1.1c0.4-0.4,0.9-1.1,1.3-1.1
		C1163.6,325.7,1164,326.4,1164.4,326.8z"/>
	<path class="st0" d="M1098.8,318c-0.2-0.5-0.5-1-0.6-1.5c0-0.1,0.6-0.5,0.7-0.4c0.5,0.3,0.8,0.7,1.3,1
		C1099.7,317.4,1099.2,317.7,1098.8,318z"/>
	<path class="st0" d="M1247.9,313.4c-0.5,0-1.1,0.1-1.6,0.1c0.1-0.5,0.1-1,0.3-1.5c0-0.1,0.8-0.1,0.8,0
		C1247.6,312.4,1247.7,313,1247.9,313.4z"/>
	<path class="st0" d="M1148.4,290.4c0.5,0.2,1,0.4,1.6,0.7c-0.4,0.6-0.7,1.3-1.1,1.9c-0.4-0.4-1.1-0.7-1.2-1.2
		C1147.6,291.4,1148.1,290.8,1148.4,290.4z"/>
	<path class="st0" d="M3382.5,620.4c17.2-8.5,23.9-7.9,43.2,2.4c-5.2,4.2-9-2.2-13.8-1.2c-4.7,1.1-9.9,0.2-14.8-0.1
		C3392.2,621.3,3387.4,620.8,3382.5,620.4z"/>
	<path class="st0" d="M3430.4,194.7c1.2,5.4,1.9,8.9,3.1,14.2c-4.5-0.8-7.5-1.3-12.3-2.1C3424.4,202.6,3426.7,199.5,3430.4,194.7z"
		/>
	<path class="st0" d="M3279.9,122.1c-5.8-6.4-1.6-11.2,1.1-18C3282.9,111.2,3284.4,116.3,3279.9,122.1z"/>
	<path class="st0" d="M3278.7,165.5c-0.5-7-0.9-12.2-1.4-18.2C3282.1,152.6,3282.3,155.2,3278.7,165.5z"/>
	<path class="st0" d="M3469.7,599c3,0,5.9,0,8.7,0c0.3,0.6,0.6,1.1,0.8,1.7c-1.4,1.3-2.6,3.5-4.2,3.7
		C3471.9,604.9,3469.7,603.1,3469.7,599z"/>
	<path class="st0" d="M3474.1,592.2c0.5-4,0.9-8,1.5-13.3C3479.5,585.2,3479.5,585.2,3474.1,592.2z"/>
	<path class="st0" d="M3430.2,175.8c0.6,1.5,1.9,3.2,1.6,4.4c-0.4,1.5-2.1,2.8-3.6,3.6c-0.4,0.3-2.8-1.5-2.7-1.9
		c0.4-1.6,1.4-3.1,2.2-4.7C3428.5,176.8,3429.4,176.3,3430.2,175.8z"/>
	<path class="st0" d="M3423.5,100.8c0.1,3.5,3,6.7-0.5,12.3c-0.6-5.1-1-8.5-1.5-11.9C3422.2,101.1,3422.9,101,3423.5,100.8z"/>
	<path class="st0" d="M3485.7,493.2c0,3.2,0,6.4,0,10.8c-5.1-3.8-2.7-7.3-3-10.5C3483.7,493.4,3484.7,493.3,3485.7,493.2z"/>
	<path class="st0" d="M3446.9,578.6c-0.5-1.9-0.9-3.9-1.4-5.8c0.7-0.2,1.3-0.4,1.9-0.6c0.6,2,1.3,3.9,1.9,5.9
		C3448.6,578.3,3447.7,578.4,3446.9,578.6z"/>
	<path class="st0" d="M3453.8,487.1c3.5,5-0.1,8.3-0.6,11.9C3451.6,495.3,3450.7,491.6,3453.8,487.1z"/>
	<path class="st0" d="M3490,472.5c-1.6,1.1-2.5,2.3-3.4,2.3c-1,0-2-1.1-3-1.7c1-1,1.8-2.4,2.9-2.9
		C3487.1,469.9,3488.4,471.3,3490,472.5z"/>
	<path class="st0" d="M3403.4,518.2c0.5,2,1.1,4.1,1.6,6.1c-0.7,0.2-1.4,0.5-2.1,0.7c-0.8-2-1.6-3.9-2.4-5.9
		C3401.4,518.8,3402.4,518.5,3403.4,518.2z"/>
	<path class="st0" d="M3417.3,602.7c0.9,2.1,1.9,4.3,2.9,6.8c-1.4,0-2.3,0.2-2.4,0c-0.9-2-1.6-4.1-2.3-6.1c-0.1-0.2,0.3-0.6,0.6-0.7
		C3416.3,602.5,3416.7,602.6,3417.3,602.7z"/>
	<path class="st0" d="M3427.7,155.7c-1.4-1.7-2.2-2.6-2.9-3.5c0.9-0.7,1.7-1.7,2.7-2c0.5-0.1,2,1,2,1.6
		C3429.5,152.9,3428.6,153.9,3427.7,155.7z"/>
	<path class="st0" d="M3490,561.9c-0.3,1.4-0.7,2.9-1,4.3c-0.6-0.2-1.6-0.5-1.6-0.7c0-1.4,0.2-2.7,0.3-4.1
		C3488.5,561.6,3489.2,561.7,3490,561.9z"/>
	<path class="st0" d="M3409.5,544.8c-1,1.6-1.5,2.4-2,3.1c-0.8-0.8-1.7-1.6-2.2-2.6c-0.1-0.3,1-1.7,1.6-1.8
		C3407.8,543.5,3408.6,544.3,3409.5,544.8z"/>
	<path class="st0" d="M3424.9,134.8c-1,1.1-1.6,1.7-2.1,2.3c-0.8-0.8-1.7-1.6-2.3-2.5c-0.2-0.2,0.7-1.5,0.8-1.5
		C3422.4,133.5,3423.4,134,3424.9,134.8z"/>
	<path class="st0" d="M3421.2,198.7c0.4-1.3,0.9-2.7,1.3-4c0.5,0.1,0.9,0.3,1.4,0.4c-0.4,1.4-0.8,2.7-1.1,4.1
		C3422.2,199,3421.7,198.9,3421.2,198.7z"/>
	<path class="st0" d="M3422.1,74.1c-1,0.9-1.6,1.5-2.2,2c-0.4-0.6-1-1.2-1.1-1.9c-0.1-0.4,0.7-1.4,1-1.3
		C3420.4,73,3421.1,73.5,3422.1,74.1z"/>
	<path class="st0" d="M3300.7,61.4c-0.4,0.7-0.8,1.6-0.9,1.6c-0.8-0.3-1.6-0.7-2.4-1.1c0.3-0.5,0.7-1.4,0.9-1.4
		C3299.1,60.7,3299.9,61.1,3300.7,61.4z"/>
	<path class="st0" d="M3490.6,443.9c-0.7,0.6-1.2,0.9-1.7,1.3c-0.5-0.7-1-1.4-1.4-2.2c-0.1-0.1,1.1-1.1,1.3-1
		C3489.5,442.6,3490,443.3,3490.6,443.9z"/>
	<path class="st0" d="M3451.5,556.8c-1,1.1-1.5,2.2-2.1,2.3c-0.6,0.1-1.4-0.9-1.9-1.6c-0.1-0.2,0.6-1.4,1.1-1.4
		C3449.3,556,3450.1,556.4,3451.5,556.8z"/>
	<path class="st0" d="M2393.5,503.4c-2.5-0.4-5-0.7-7.5-1.1c-0.3,0.6-0.6,1.3-1,1.9c2.6,1.7,5,3.5,7.7,5c9,5.3,8.9,8.7-1.6,16.2
		c0.5-3.9,0.9-6.8,1.3-9.6c-4.8-1-9.6-1.4-14-3.1c-4.4-1.7-8.1-4.8-6.1-10.9c-8.3,2.4-14.5,0.8-17.3-5.7c-2.5-5.7-6.5-7.1-11.8-7.1
		c-3.3,0-6.7,0.2-10,0.1c-3.6-0.1-7.4-0.3-9.5-5.5c9.2-4.9,19.6-1.9,28.7-4.3c2.8-9.7,2.5-98.9,1-125.6c-2.3-41.8-3.4-83.6-5-125.4
		c9.8-3,11.2-2.1,12,7.3c2.7,32.2,4.9,64.4,9.9,96.3c3.7,23.6,5.2,47.6,8.4,71.3c2,14.8,5.5,29.3,8,44.1c1.1,6.5,1.1,13.2,2.1,19.8
		c1.1,7.2,3.1,8.2,10.3,6.4c3.2-0.8,6.4-1.6,9.7-2.2c0.8-0.1,1.8,0.5,3.8,1.2c-6.5,5-14,5.4-20.2,8.4c0.3,7.8,0.6,15.2,1,22.6
		L2393.5,503.4z"/>
	<path class="st0" d="M2474.6,461c-7.4,13.5-20.7,6.6-29.8,12.8c2.3-7.5,5.2-10.1,12.2-11C2462.1,462.2,2467.2,461.8,2474.6,461z"/>
	<path class="st0" d="M2466.8,505.3c8.2-3.1,10-9,6.7-16.9c5.9-0.3,6.9,3.3,7.5,6.8c1.3,7-5.4,9.2-8.6,13.4
		c-0.5,0.7-3.5-0.5-5.3-0.8C2467,507.1,2466.9,506.2,2466.8,505.3z"/>
	<path class="st0" d="M2318.6,486.6c-6.5,0-12.9,0.3-19.3-0.1c-3-0.2-4.1-2.8-2.7-6.7c7.4,2.8,15.9-2.3,22.6,3.4
		C2318.9,484.3,2318.7,485.5,2318.6,486.6z"/>
	<path class="st0" d="M2325.7,574.3c-1.1-6.7,1.7-9.9,5.5-12.5c4.6,1.3,5.4,4.4,4.4,7.9C2334.3,574.3,2330,573.3,2325.7,574.3z"/>
	<path class="st0" d="M2351.5,530.3c2.5,0,5,0,8.9,0C2356.6,535.3,2354,535.3,2351.5,530.3z"/>
	<path class="st0" d="M2463.7,510.7c1.1,1.5,2,2.6,2.6,3.8c0.1,0.2-1.6,1.6-1.8,1.5c-1.1-0.8-2.1-1.9-2.9-3
		C2461.6,512.9,2462.7,511.9,2463.7,510.7z"/>
	<path class="st0" d="M2490.3,473.7c-1.3,0.9-2.5,2-2.6,1.9c-1.1-1-2-2.1-2.7-3.4c-0.1-0.2,1.6-1.8,1.8-1.7
		C2487.9,471.3,2488.9,472.4,2490.3,473.7z"/>
	<path class="st0" d="M2446.4,523.3c-0.4,1.6-0.9,3.1-1.3,4.7c-0.6-0.1-1.2-0.2-1.9-0.3c0.2-1.6,0.3-3.3,0.5-4.9
		C2444.7,523,2445.6,523.1,2446.4,523.3z"/>
	<path class="st0" d="M2393.2,503.6c2,0.1,4,0.2,6,0.4c-0.2,0.7-0.5,1.4-0.7,2.1c-1.7-0.9-3.3-1.8-5-2.7
		C2393.5,503.4,2393.2,503.6,2393.2,503.6z"/>
	<path class="st0" d="M2011,287.9c3.5-2.4,8.8-3.6,5-11.9c4.3,2.4,7.1,3.7,6.9,4c-1.3,3.9-2.7,8-5,11.4c-0.5,0.8-4.3-0.5-6.6-0.9
		C2011.3,289.7,2011.2,288.8,2011,287.9z"/>
	<path class="st0" d="M2029.7,544.9c-1.7-3.1-1-6.3,3.5-6.1c5.1,0.2,10.3,1.6,13.4,7.2C2040.8,545.6,2035.6,545.3,2029.7,544.9z"/>
	<path class="st0" d="M2011.1,554.9c1.1-6.1,1.8-10,2.6-14.6C2020.7,546.3,2020.5,547.6,2011.1,554.9z"/>
	<path class="st0" d="M2041.4,396.4c9.3-6.1,10.3-5.6,11.6,3.8C2049.3,399,2046.3,398,2041.4,396.4z"/>
	<path class="st0" d="M2030.1,497.1c3-3,4.8-4.9,7.3-7.5C2038.8,496.6,2038.8,496.6,2030.1,497.1z"/>
	<path class="st0" d="M2041,295.4c-1,1.3-1.7,2.6-2,2.5c-1.3-0.4-2.5-1.3-3.8-1.9c0.6-0.7,1.3-1.9,1.9-1.9
		C2038.3,294.2,2039.4,294.9,2041,295.4z"/>
	<path class="st0" d="M2096.4,458.5c-1.7-1.5-3.4-3.1-5.2-4.6c0.5-0.6,0.9-1.2,1.4-1.8c1.9,1.4,3.8,2.8,5.6,4.2
		C2097.7,457.1,2097,457.8,2096.4,458.5z"/>
	<path class="st0" d="M2067.5,655.9c-1.6,0.3-3.1,0.6-4.7,0.9c-0.1-0.8-0.1-1.6-0.2-2.5c1.6,0,3.1,0,4.7,0
		C2067.4,654.9,2067.5,655.4,2067.5,655.9z"/>
	<path class="st0" d="M2050.6,688c-0.2,0.6-0.4,1.1-0.6,1.7c-0.7-0.4-1.3-0.8-2-1.1c0.4-0.5,0.7-1.2,1.1-1.4
		C2049.5,687.1,2050.1,687.7,2050.6,688z"/>
	<path class="st0" d="M2074.7,217.4c-0.7,0.5-1.3,1.1-2.1,1.4c-0.2,0.1-0.8-0.6-1.1-0.9c0.6-0.6,1.1-1.2,1.8-1.6
		C2073.4,216.1,2074.1,216.8,2074.7,217.4z"/>
	<path class="st0" d="M2089,508.2c-0.5,0.2-0.9,0.4-1.4,0.6c-0.1,0-0.5-0.6-0.4-0.7c0.2-0.4,0.6-0.8,1-1.2
		C2088.4,507.3,2088.7,507.8,2089,508.2z"/>
	<path class="st0" d="M1999.3,308c-0.4,0.3-0.9,0.6-1.3,1c-0.3-0.7-0.6-1.4-0.9-2.1c0.5-0.1,1.2-0.5,1.6-0.4
		C1999,306.7,1999.1,307.5,1999.3,308z"/>
	<path class="st0" d="M2036.3,283.4c-0.5,0.2-1,0.4-1.6,0.7c-0.2-0.7-0.4-1.4-0.7-2c0.6-0.1,1.3-0.4,1.7-0.1
		C2036.1,282.1,2036.2,282.9,2036.3,283.4z"/>
	<path class="st0" d="M2081.4,493.8c-0.4-0.3-0.9-0.5-1.3-0.8c0.4-0.3,0.7-0.7,1.1-1c0.1-0.1,0.7,0.3,0.7,0.4
		C2081.8,492.9,2081.6,493.3,2081.4,493.8z"/>
	<path class="st0" d="M1585.1,447.9c-15.3,6.8-30.9,7.4-45.3,12.3c-3.5-4.1-6.6-7.8-9.1-10.8c-0.5-4.7-1-8.6-1.4-12.8
		c2.5,0,6,0,10.1,0c-0.8,5.2-1.4,9.8-2.3,15.9c5.9-0.3,10.6,0.1,14.9-0.9c6.7-1.6,13-4.5,19.7-6.1
		C1575.5,444.7,1580.3,442.1,1585.1,447.9z"/>
	<path class="st0" d="M1463.5,289.5c-12.3,3-11.7-8.1-18.1-10.5c4.3-5.1,8,0.7,11.4-0.8c3.4-1.5,6.8-3.2,10.3-4.9
		C1470.1,281.2,1454.5,280.8,1463.5,289.5z"/>
	<path class="st0" d="M1452.2,267.5c-0.8-0.3-2.7-0.3-3-1.1c-3.4-8.6-1.3-16.6,6.1-20.3c1.3-0.6,4.1-0.8,4.3-0.3
		c0.7,1.5,0.9,3.6,0.6,5.3c-0.3,1.5-1.8,2.7-2.5,4.2C1456,258.9,1454.4,262.5,1452.2,267.5z"/>
	<path class="st0" d="M1498,344.7c-9.5-6.6-12.9-15.5-16.8-23.8c-0.4-1,1.4-3,3-6.1c2.6,6.3,5.2,11,6.3,15.9
		C1491.6,335.9,1500.1,336.1,1498,344.7z"/>
	<path class="st0" d="M1465.1,315.1c8.2,2.8,9.7,10.2,14.2,15.3C1471.1,333.2,1466.3,328.2,1465.1,315.1z"/>
	<path class="st0" d="M1512.2,540.6c3.3-4.2,5.4-7,7.8-10.1c4.9,0.6,9.9,0.8,10.6,8C1524.8,539.1,1519.4,539.7,1512.2,540.6z"/>
	<path class="st0" d="M1459.4,337c-6.7-2.9-7.9-8.1-10-12.3c2.1-3.7,5.1-4.6,7.8-2.5C1461.9,325.8,1460.4,330.9,1459.4,337z"/>
	<path class="st0" d="M1471.4,550c4.9-6,14.3-8.4,19.5-4.6C1484.2,547,1478.2,548.4,1471.4,550z"/>
	<path class="st0" d="M1423.6,191.3c3.9,7.7,3.9,7.7-7.7,11.8C1419,198.3,1421.3,194.8,1423.6,191.3z"/>
	<path class="st0" d="M1580.4,703.1c4.2-3.9,8.8-5.7,14.9-3.1C1591.4,708.9,1585.1,701.9,1580.4,703.1z"/>
	<path class="st0" d="M1436.4,259.1c-0.1,6.5-0.1,6.5-12.3,10.9C1426.3,264,1431.6,263.1,1436.4,259.1z"/>
	<path class="st0" d="M1500,353.4c4.4,1.8,6.8,4.4,5.4,9.5C1498.3,361.1,1498.3,361.1,1500,353.4z"/>
	<path class="st0" d="M1434.6,337.1c2.7,3.2,4.1,6.2-2.4,9.3c0-3.6,0-6.4,0-9.2C1433,337.2,1433.8,337.1,1434.6,337.1z"/>
	<path class="st0" d="M1425,206.4c2,2.2,4.1,4.4,6.9,7.6c-6.5-0.4-6.5-0.4-8.8-5.6C1423.7,207.7,1424.4,207,1425,206.4z"/>
	<path class="st0" d="M1475.6,389.3c3.3-1.1,6.7-2.2,10-3.4c0.2,0.6,0.5,1.3,0.7,1.9c-3.6,0.7-5.6,5.3-9.9,4.5
		C1476.2,391.3,1475.9,390.3,1475.6,389.3z"/>
	<path class="st0" d="M1500,717c1.2,1.8,2.6,3.1,2.3,3.6c-0.9,1.4-2.3,2.5-3.5,3.7c-0.8-0.9-2.4-2-2.2-2.5
		C1497.2,720.3,1498.5,719.1,1500,717z"/>
	<path class="st0" d="M1578.1,463.8c-1.5,1.6-2.2,3-3.1,3.2c-0.8,0.1-2.5-1.1-2.7-2c-0.1-0.9,1-2.5,1.9-2.8
		C1575,461.9,1576.2,463,1578.1,463.8z"/>
	<path class="st0" d="M1446,241c-1.1-1.2-2.1-2-2.6-3c-0.1-0.3,1.4-2,1.7-1.9c1.1,0.4,2.1,1.3,2.9,2.1
		C1448.1,238.4,1447,239.7,1446,241z"/>
	<path class="st0" d="M1499.3,316.3c0.8,1.6,1.5,2.8,1.8,4.1c0.1,0.2-1.9,1.4-2.1,1.3c-1-1-1.8-2.3-2.4-3.5
		C1496.7,318.1,1498,317.3,1499.3,316.3z"/>
	<path class="st0" d="M1439.9,400.9c1.7-1,3.5-2,5.2-3.1c0.4,0.4,0.8,0.7,1.1,1.1c-0.8,1-1.4,2.3-2.4,3c-0.9,0.6-2.3,0.3-3.4,0.4
		C1440.3,401.9,1440.1,401.4,1439.9,400.9z"/>
	<path class="st0" d="M1503.8,541.6c-2.1,0.9-4.2,1.7-6.3,2.6c-0.2-0.5-0.5-1-0.7-1.4c2-1,4-2.1,5.9-3.1
		C1503.1,540.3,1503.4,540.9,1503.8,541.6z"/>
	<path class="st0" d="M1537.3,568.3c1-0.9,1.9-1.7,2.9-2.6c0.4,0.6,0.9,1.2,1.3,1.8c-1.1,0.7-2.2,1.4-3.3,2.1
		C1537.9,569.2,1537.6,568.7,1537.3,568.3z"/>
	<path class="st0" d="M1486.3,359.1c0.8,1.1,1.6,2.2,2.4,3.3c-0.8,0.7-1.5,1.4-2.3,2.1c-0.8-1-1.6-2.1-2.5-3.1
		C1484.8,360.6,1485.5,359.8,1486.3,359.1z"/>
	<path class="st0" d="M1476.5,248.1c-0.8,0.3-1.5,0.6-2.3,0.9c-0.2-0.8-0.6-1.5-0.6-2.3c0-0.3,1-0.8,1.5-0.8c0.9,0,1.8,0.3,2.6,0.5
		C1477.3,247.1,1476.9,247.6,1476.5,248.1z"/>
	<path class="st0" d="M1432.7,227.9c-0.7-1-1.6-1.7-1.5-2.3c0.1-0.7,1.1-1.6,1.7-1.7c0.5-0.1,1.7,1.1,1.6,1.6
		C1434.5,226.3,1433.5,226.9,1432.7,227.9z"/>
	<path class="st0" d="M1555.3,471.8c-1.2,0.6-2,1-2.7,1.4c-0.4-0.7-0.9-1.4-1-2.1c0-0.3,1-1,1.3-0.9
		C1553.7,470.4,1554.3,471,1555.3,471.8z"/>
	<path class="st0" d="M1449,297.9c-0.6-0.8-0.9-1.2-1.2-1.7c0.7-0.5,1.4-1,2.1-1.4c0.1,0,1,1.1,0.9,1.3
		C1450.3,296.8,1449.6,297.3,1449,297.9z"/>
	<path class="st0" d="M1532.7,646.1c-0.7,0.4-1.4,0.9-2.2,1.1c-0.1,0-0.9-1.1-0.8-1.2c0.6-0.6,1.3-1,1.9-1.5
		C1532,645,1532.2,645.4,1532.7,646.1z"/>
	<path class="st0" d="M1465.4,730.8c-0.1-1.4-0.1-2.8-0.2-4.1c0.8,0,1.7,0,2.5-0.1c0,1.4,0,2.9,0,4.3
		C1466.9,730.9,1466.1,730.8,1465.4,730.8z"/>
	<path class="st0" d="M1513.4,491.2c-0.4-0.5-0.8-0.9-1.2-1.4c0.7-0.4,1.4-0.8,2.1-1.2c0.2,0.6,0.6,1.2,0.5,1.7
		C1514.7,490.7,1513.9,490.9,1513.4,491.2z"/>
	<path class="st0" d="M1458.7,399.5c-1.1-1-1.7-1.5-2.4-2c0.8-0.8,1.5-1.8,2.4-2.3c0.3-0.2,2,1.1,1.9,1.3
		C1460.3,397.4,1459.5,398.2,1458.7,399.5z"/>
	<path class="st0" d="M1471.2,393.6c-2.3,1.1-3.1,1.8-3.9,1.8c-0.6,0-1.2-0.9-1.8-1.4c0.4-0.5,0.7-1.2,1.2-1.3
		C1467.4,392.6,1468.2,393,1471.2,393.6z"/>
	<path class="st0" d="M1560.5,691.8c-0.4,0.4-0.9,0.7-1.3,1.1c-0.3-0.6-0.7-1.3-1-1.9c0.5-0.2,1.1-0.6,1.5-0.5
		C1560.1,690.5,1560.3,691.3,1560.5,691.8z"/>
	<path class="st0" d="M1467,257.6c-0.3,0.5-0.5,0.9-0.8,1.3c-0.3-0.4-0.7-0.7-1-1.2c-0.1-0.1,0.3-0.7,0.4-0.7
		C1466.1,257.2,1466.5,257.4,1467,257.6z"/>
	<path class="st0" d="M1569.2,706.2c-1,0.9-1.7,1.9-2.4,1.9c-0.6,0-1.7-1.2-1.7-1.8c0.1-0.7,1-1.7,1.8-1.9
		C1567.4,704.4,1568.2,705.4,1569.2,706.2z"/>
	<path class="st0" d="M1482,616.2c0.5,0.3,1.1,0.5,1.6,0.8c-0.3,0.5-0.7,1.4-0.8,1.4c-0.7-0.2-1.4-0.7-2.1-1.1
		C1481.1,616.9,1481.5,616.5,1482,616.2z"/>
	<path class="st0" d="M1564.1,472.9c-0.3-0.4-0.7-0.8-1-1.2c0.5-0.3,0.9-0.6,1.4-0.8c0.1,0,0.5,0.5,0.5,0.7
		C1564.8,472,1564.4,472.4,1564.1,472.9z"/>
	<path class="st0" d="M1496.8,485.7c-0.2-0.4-0.4-0.9-0.5-1.3c0-0.1,0.6-0.5,0.7-0.4c0.4,0.2,0.8,0.6,1.2,0.9
		C1497.7,485.2,1497.2,485.4,1496.8,485.7z"/>
	<path class="st0" d="M1456.7,554.1c-0.5-0.8-1.2-1.6-1.2-1.7c0.6-0.6,1.3-1.1,2.1-1.5c0.1,0,1.1,1.1,1,1.3
		C1458,552.9,1457.3,553.4,1456.7,554.1z"/>
	<path class="st0" d="M3239.6,163.2c-0.3-6.2-4.1-12.3-0.2-20.6C3242.6,150.8,3239.7,157.1,3239.6,163.2z"/>
	<path class="st0" d="M595.4,394c-2.9-0.8-5.8-1.6-8.7-2.3c0.1-0.5,0.3-1.1,0.4-1.6c3,0.6,5.9,1.3,8.9,1.9
		C595.7,392.6,595.6,393.3,595.4,394z"/>
</g>
</svg>
