<?xml version="1.0" encoding="utf-8"?>
<!-- Generator: Adobe Illustrator 19.0.0, SVG Export Plug-In . SVG Version: 6.00 Build 0)  -->
<svg version="1.1" id="Layer_1" xmlns:v="https://vecta.io/nano"
	 xmlns="http://www.w3.org/2000/svg" xmlns:xlink="http://www.w3.org/1999/xlink" x="0px" y="0px"
	 viewBox="185.5 312.6 951.4 168.4" style="enable-background:new 185.5 312.6 951.4 168.4;" xml:space="preserve">
<style type="text/css">
	.st0{fill:#FFFFFF;}
</style>
<path class="st0" d="M469.1,312.6h-46.4V481h78.9v-31.8h-32.5V312.6z M555.9,312.6h-46.4V481h78.9v-31.8h-32.5
	C555.9,449.2,555.9,312.6,555.9,312.6z M276.1,314.5c-1.2-1.3-3-1.9-4.8-1.9h-62.6c-1.8,0-3.6,0.6-4.8,1.9c-6,6.4-11.7,13.1-17.1,20
	c-0.9,1.2-1.3,2.7-1.3,4.2v116.1c0,1.5,0.4,3,1.3,4.2c5.8,7.5,12.8,15.4,17.1,20c1.2,1.3,3,1.9,4.8,1.9h62.6c1.8,0,3.6-0.6,4.8-1.9
	c4.3-4.6,11.3-12.5,17.1-20c0.9-1.2,1.3-2.7,1.3-4.2v-46.6h-42.4v44.7h-24.3V340.7h24.3v44.7h42.4v-46.6c0-1.5-0.4-3-1.3-4.2
	C287.4,327.1,280.4,319.1,276.1,314.5L276.1,314.5L276.1,314.5L276.1,314.5L276.1,314.5z M394.8,314.5c-1.2-1.3-3-1.9-4.8-1.9h-62.6
	c-1.8,0-3.6,0.6-4.8,1.9c-4.3,4.6-11.3,12.5-17.1,20c-0.9,1.2-1.3,2.7-1.3,4.2V481h42.4v-49.6h24.3V481h42.4V338.8
	c0-1.5-0.4-3-1.3-4.2C406.1,327.1,399.1,319.1,394.8,314.5L394.8,314.5L394.8,314.5L394.8,314.5z M346.6,403.4v-62.7h24.3v62.7
	H346.6z M881.7,452.9h-24.3V312.6H815v142.2c0,1.5,0.4,3,1.3,4.2c5.8,7.5,12.8,15.4,17.1,20c1.2,1.3,3,1.9,4.8,1.9h62.6
	c1.8,0,3.6-0.6,4.8-1.9c4.3-4.6,11.3-12.5,17.1-20c0.9-1.2,1.3-2.7,1.3-4.2V312.6h-42.4L881.7,452.9L881.7,452.9z M786.8,314.5
	c-1.2-1.3-3-1.9-4.8-1.9h-85.8V481H782c1.8,0,3.6-0.6,4.8-1.9c4.3-4.6,11.3-12.5,17.1-20c0.9-1.2,1.3-2.7,1.3-4.2V338.8
	c0-1.5-0.4-3-1.3-4.2C798.1,327.1,791.1,319.1,786.8,314.5C786.8,314.5,786.8,314.5,786.8,314.5z M762.9,411.8v41.1h-24.3V340.7
	h24.3C762.9,340.7,762.9,411.8,762.9,411.8z M1097.3,312.6h39.6V386c0,1.4-0.5,2.8-1.4,3.9l-27.8,33.6V481h-45.6v-57.5l-27.7-33.6
	c-0.9-1.1-1.4-2.5-1.4-3.9v-73.4h39.5v62.6l10.3,12.2h4.3l10.2-12.2V312.6z M620.2,347.1c-0.5-0.6-1.3-0.9-2.1-0.9h-31.7
	c-0.8,0-1.6,0.3-2.1,0.9c-1.9,2.1-3.5,4.1-6.1,7.4c-0.4,0.5-0.6,1.2-0.6,1.9v52.5c0,0.7,0.2,1.4,0.6,1.9l6.1,7.4
	c0.5,0.6,1.3,0.9,2.1,0.9H618c0.8,0,1.6-0.3,2.1-0.9c1.9-2.1,3.5-4.1,6.1-7.4c0.4-0.5,0.6-1.2,0.6-1.9v-52.5c0-0.7-0.2-1.4-0.6-1.9
	C626.3,354.5,620.2,347.1,620.2,347.1z M608,390v13.3h-11.5v-41.4H608C608,361.9,608,390,608,390z M635,419h18.9v-24h20.3v-16.9
	h-20.3v-15h22.9v-16.9H635C635,346.2,635,419,635,419z M1024.7,312.6h-24.6h-42.4h-24.6v34.5h24.6V481h42.4V347.1h24.6L1024.7,312.6
	L1024.7,312.6z"/>
</svg>
