<?xml version="1.0" encoding="utf-8"?>
<!-- Generator: Adobe Illustrator 19.0.0, SVG Export Plug-In . SVG Version: 6.00 Build 0)  -->
<svg version="1.1" id="Layer_1" xmlns="http://www.w3.org/2000/svg" xmlns:xlink="http://www.w3.org/1999/xlink" x="0px" y="0px"
	 viewBox="0 0 1689.5 741.1" style="enable-background:new 0 0 1689.5 741.1;" xml:space="preserve">
<style type="text/css">
	.st0{fill:#FFFFFF;}
</style>
<g>
	<path class="st0" d="M808.7,189.4c3.4-0.6,6.3-1,9.2-1.7c24.5-5.5,49-11,73.4-16.5c31.1-7,62.2-14,93.4-21c35.7-8,71.3-16,107-24
		c47.1-10.6,94.3-21.2,141.4-31.8c40-9,80.1-18,120.1-27c47.6-10.7,95.3-21.3,142.9-32c35.7-8,71.3-16,107-24
		c16-3.6,32-7.5,48.2-10.7c16.9-3.4,30.5,5,36.2,21.6c1.3,3.8,1.8,8.1,1.8,12.2c0.1,124,0,248,0.2,372c0,17.5-11.8,39.2-35,43.9
		c-23.3,4.7-46.4,10.1-69.6,15.2c-27.1,6-54.2,12-81.2,17.9c-49.8,11-99.6,22-149.4,33c-38.7,8.6-77.5,17.2-116.2,25.8
		c-37.6,8.3-75.2,16.6-112.9,25c-48.3,10.7-96.7,21.3-145,32c-37.6,8.3-75.2,16.7-112.9,25c-19.3,4.3-38.6,8.3-57.9,12.7
		c-20,4.5-35-8.6-38.3-25.1c-1-4.8-1-9.9-1.1-14.9c-0.2-6.6,0-13.2,0-20.5c-3.2,0.6-5.8,0.9-8.3,1.5c-24.1,5.4-48.3,11-72.4,16.4
		c-37.8,8.5-75.5,16.8-113.3,25.3c-32.1,7.2-64.1,14.6-96.2,21.8c-42,9.4-84,18.7-125.9,28.1c-44.2,9.9-88.5,19.9-132.7,29.8
		c-38.6,8.7-77.1,17.3-115.7,25.9c-22.2,5-44.4,9.9-66.6,14.9c-19.2,4.4-34.5-9.1-37.8-25.2c-0.6-2.8-1-5.6-1-8.4
		c0-123.5,0-247,0-370.5c0-14.9,9.2-33.9,27.4-40.5c5.4-2,11.2-3.1,16.9-4.3c48.9-11,97.9-22,146.8-32.9
		c40.2-9,80.4-18.1,120.6-27.1c41.5-9.3,83-18.4,124.5-27.7c49.1-11,98.2-22.2,147.3-33.2c34-7.7,68.1-15.2,102.1-22.8
		c27.9-6.2,55.8-12.3,83.6-18.7c19.1-4.3,33.5,7.1,38,23.6c0.8,2.8,1.1,5.9,1.1,8.9c0.2,7.3,0,14.7,0.1,22
		C808.4,185.2,808.6,186.9,808.7,189.4z M788.3,369.8c2.2-0.3,3.7-0.4,5.1-0.7c5.9-1.2,11.7-2.5,17.6-3.7c6.8-1.4,11.3,0.3,14.8,6.3
		c1.6,2.7,2.5,5.8,3.7,8.7c0.5,1.2,0.9,2.4,1.4,3.6c4.2-0.3,8.1-0.6,12.5-0.8c0.1-1.7,0.3-3.5,0.3-5.3c0-12.3,0-24.7,0-37
		c0-21.8,0-43.7,0-65.5c0-15.1,11.4-32.2,28.1-35.9c30.7-6.8,61.3-14,92-20.9c11-2.5,21.2,2.6,26.4,12.5c0.8,1.6,1.6,3.2,2.3,4.8
		c1.4,0.3,2.5,0.7,3.6,0.9c9.5,1.5,15.8,7,18.8,15.9c1.2,3.7,1.6,7.8,1.7,11.8c0.2,16.3,0,32.7,0,49c0,1.9,0.2,3.8,0.4,6.4
		c1.7-1.1,2.6-1.8,3.6-2.3c3.9-1.9,7.6-4.5,11.6-5.5c31.1-7.4,62.2-14.6,93.4-21.7c12.9-2.9,22.9,2.4,28.6,14.4
		c0.4,0.9,0.9,1.7,1.4,2.7c1.2,0.2,2.3,0.5,3.5,0.7c12.2,2.6,19.7,11.3,20.5,23.7c0.2,2.7,0.2,5.3,0.2,8c0,41.8,0,83.7,0,125.5
		c0,2.3,0,4.7-0.1,7c-0.9,17.7-12.3,31.3-29.4,35.2c-31.8,7.3-63.6,14.5-95.4,21.7c-21.4,4.9-42.8,9.8-64.3,14.7
		c-11.7,2.6-22.6-2.3-28.3-12.8c-0.9-1.6-1.7-3.2-2.4-4.4c-0.8-0.4-1-0.6-1.3-0.6c-12.2-1.7-19.2-8.9-22.5-20.4
		c-2.6-9.1-5.5-18.2-8.3-27.2c-0.4-1.3-1-2.6-1.6-3.8c-0.8,1.2-1,2.1-1,3c0,15.8,0.1,31.7,0,47.5c0,3.7-0.1,7.4-0.8,10.9
		c-2.6,13.1-9.7,23-22.1,28.3c-13.3,5.8-26.4,0.7-32.7-12.3c-0.6-1.2-1.2-2.3-1.8-3.5c-1.3-0.3-2.4-0.6-3.5-0.8
		c-6.1-0.8-10.9-3.8-14.7-8.6c-4.1-5.1-5.9-11.1-5.8-17.7c0-25.7,0-51.3,0-77c0-1.9-0.2-3.9-0.3-6.7c-18.7,4.3-36.8,8.4-55.1,12.6
		c-0.2,2.4-0.5,4.2-0.5,6c0,48.8,0,97.7,0,146.5c0,3.1,0.4,6.3,1.1,9.4c1.1,4.8,4.5,7.3,9.4,7.3c1.6,0,3.3-0.3,4.9-0.6
		c17.9-3.9,35.8-7.9,53.6-11.8c72.8-16.1,145.6-32.2,218.5-48.3c79.3-17.5,158.6-35.1,238-52.6c69.7-15.4,139.5-30.9,209.2-46.3
		c42.3-9.4,84.5-18.7,126.8-28c5.4-1.2,9.9-3.8,13.6-7.8c5.8-6.3,8.7-13.6,8.7-22.2c-0.1-36,0-72,0-108c0-87.2,0-174.3,0-261.5
		c0-12-5-16-16.6-13.4c-37.4,8.4-74.7,16.7-112.1,25.1c-66.1,14.8-132.2,29.7-198.4,44.6c-76.5,17.2-153.1,34.3-229.6,51.5
		c-63.4,14.2-126.7,28.4-190.1,42.7c-38.3,8.6-76.7,17.3-115,25.8c-6.5,1.5-11.5,5.1-15.5,10.2c-5,6.5-6.6,14.1-6.6,22.1
		c0,40.8,0,81.7,0,122.5C787.9,365.4,788.1,367.2,788.3,369.8z M790.7,194c0-10.7,0-21.8,0-33c0-1.7,0-3.4-0.3-5
		c-1.3-7.8-6.1-11.1-13.9-9.4c-7.2,1.5-14.3,3.1-21.5,4.7c-71.2,15.9-142.3,31.9-213.5,47.8c-66.5,14.9-132.9,29.8-199.3,44.8
		c-71.3,16-142.6,32-214,48c-29.4,6.6-58.8,13.2-88.2,19.8c-4.9,1.1-9,3.4-12.5,6.8c-7,6.8-9.7,15.2-9.7,24.8c0,121,0,242,0,363
		c0,1.8,0,3.7,0.2,5.5c1.3,9.1,5.9,12.3,14.9,10.3c55.1-12.3,110.1-24.7,165.2-37C306.1,661,414,636.8,521.8,612.7
		c80.1-18,160.2-35.9,240.3-53.9c2.4-0.5,4.7-1.3,7.3-2c0.1-1.8,0.4-3.3,0.4-4.7c0-30.7,0-61.3,0-92c0-1.6-0.3-3.1-0.6-5.2
		c-7,1.5-13.3,2.9-19.6,4.3c-6.6,1.4-11-0.2-14.5-5.9c-1.7-2.7-2.7-5.7-4-8.6c-0.6-1.3-1-2.7-1.6-4.2c-4,0.4-7.6,0.7-11.7,1
		c-0.1,2-0.3,4.1-0.4,6.3c0,24.3-0.1,48.7,0,73c0,3.4-0.9,6-3.1,8.6c-7.6,9-17.6,13.6-29,15.2c-9.5,1.3-18.2-0.4-25.5-7.6
		c-0.3-3.2-0.6-6.4-1-10c-3.1-0.2-5.9-0.5-9-0.7c-0.5,1.9-1,3.5-1.4,5c-4.2,14.8-13.2,24.8-28.6,28.2c-7,1.6-14,3.2-20.9,4.8
		c-22.9,5.3-45.8,10.5-68.6,15.8c-13.4,3.1-25.9-3.8-29.6-15.1c-0.2-0.6-0.6-1.2-0.9-1.8c-1-0.3-1.9-0.7-2.8-0.9
		c-15-3.7-20.9-11.2-20.9-26.6c0-6,0.4-12,0.4-18c0-64.8,0-129.7,0-194.5c0-15.2,0-30.3,0.2-45.5c0.1-7.5,3.5-13.5,9.3-18
		c9.9-7.6,21.3-10.2,33.5-8.5c7.3,1,12.4,5.3,14.3,12.9c0.4,1.6,1,3.1,1.5,4.6c2.1,0.2,3.8,0.2,5.4,0.4c7.8,1.1,14,4.5,16.4,12.5
		c0.8,2.7,0.7,5.6,0.7,8.4c0.1,17.7,0,35.3,0.1,53c0,2.1,0.3,4.2,0.5,6.9c2.1-0.3,3.7-0.4,5.2-0.7c11.2-2.5,22.4-5.2,33.7-7.4
		c11.4-2.2,21.2,3.1,26.3,13.6c0.6,1.3,1.3,2.6,2,4c3.4,0.6,6.5,1.2,10.4,1.9c0-2.4,0-4.2,0-6c0-11.7,0.1-23.3,0-35
		c-0.1-4.7,1.6-8.4,4.7-11.7c6.5-6.9,14.6-10.9,23.8-12.8c6.8-1.4,13.6-1.3,20.1,1.3c5.4,2.2,9.4,5.7,9.3,12.3
		c0,1.1,0.5,2.2,0.7,3.4c3.2,0.5,6.2,0.8,9.1,1.4c9.8,1.9,13.9,7,14,17c0,16,0,32,0,48c0,2.1,0.3,4.2,0.4,7.1
		c17.6-3.6,34.5-7.4,51.9-11.6c0-2.8,0-5,0-7.3c0-44.5,0-89,0-133.5c0-10.4,3.1-19.7,9.5-27.8C782.5,201.9,786.4,198.5,790.7,194z
		 M908.5,397.7c0.9,2.5,1.5,4.2,2,6c3.4,11,6.7,22,10.1,33c6.9,22.6,14.1,45.2,20.7,67.9c3.4,11.6,13.3,17.9,25.3,14.9
		c17.9-4.4,36-8.3,54-12.4c34.9-8,69.8-16,104.7-23.9c7.5-1.7,13.3-5.7,17.8-12c4.8-6.7,6.4-14.1,6.4-22.2c0-43,0-86,0-129
		c0-2-0.2-4-0.3-6c-1-11.3-9.9-20.5-24.5-17c-30,7.1-60,13.9-90,20.8c-6.8,1.6-12.2,5.1-16.5,10.5c-5.4,6.8-7.5,14.7-7.4,23.3
		c0,33.7,0,67.3,0,101c0,2.4-0.3,4.9-0.4,7.6c-10,2.3-19.5,4.4-29.5,6.7c-8.3-26.9-16.5-53.2-24.8-80c3-0.9,5.4-1.5,7.8-2.2
		c12.7-3.7,21.7-15.1,22.3-28.3c0.3-6.3,0.4-12.7,0.4-19c0-29.3,0-58.7,0-88c0-2.7-0.1-5.3-0.5-8c-1.8-12.3-11.2-18.9-23.3-16.1
		c-29.9,6.8-59.7,13.6-89.6,20.4c-6.2,1.4-11.4,4.6-15.5,9.4c-6,6.9-8.3,14.9-8.3,23.9c0.1,72.5,0.1,145,0,217.5
		c0,3.8-0.3,7.7-0.3,11.5c0.1,6.2-0.1,12.4,0.7,18.4c1.7,11.8,12.9,18.6,24.2,14.5c3.8-1.4,7.5-3.7,10.5-6.5
		c7.2-6.7,10.3-15.3,10.3-25.1c0-33.8,0-67.7,0-101.5c0-2.3,0.3-4.5,0.4-7.2C899.6,399.7,903.8,398.8,908.5,397.7z M528.6,364.6
		c0-2.9,0-4.8,0-6.8c0-24,0-48,0-72c0-5,0.1-10-0.1-15c-0.3-8.4-4.8-12.7-13.2-13.1c-5.8-0.3-11.3,1-16.6,3.1
		c-11.3,4.3-15.9,11-16,23.2c0,1,0,2,0,3c0,83,0,165.9-0.1,248.9c0,1.5,0,3,0,4.5c0.2,6.4,3.3,11.1,8.7,14.2
		c4.5,2.6,9.4,3.1,14.5,1.9c9.4-2.2,18.8-4.3,28.2-6.5c20.6-4.7,41.2-9.5,61.8-14.2c6-1.4,11.2-4.2,15.3-8.8
		c6-6.6,8.8-14.3,8.8-23.2c-0.1-32.5,0-65,0-97.4c0-12.8,0.2-25.7-0.1-38.5c-0.3-13.9-10.4-21.5-24-18.4c-16.1,3.6-32.1,7.3-48.2,11
		C541.7,361.7,535.8,363,528.6,364.6z M642.5,515.6c3.1,3.2,6.4,4.9,10.1,5.2c11.5,1.1,21.7-2.1,30.5-9.7c3.5-3,4.9-6.5,4.9-11.3
		c-0.2-61.8-0.1-123.6-0.1-185.3c0-1.3,0-2.7,0-4c0-2.6-1.2-4.5-3.4-5.6c-1.8-0.9-3.6-1.7-5.6-2.1c-11.1-2.4-20.6,1.3-29.5,7.5
		c-4.7,3.2-6.9,7.3-6.9,13.4c0.2,62.1,0.1,124.2,0.1,186.3C642.5,512,642.5,514,642.5,515.6z M824.5,393.9
		c-0.3-5.9-1.3-11.4-3.8-16.6c-2.5-5.1-5-6.4-10.4-5.1c-29.4,6.6-58.8,13.2-88.1,19.8c-3.6,0.8-5.9,2.7-7.4,6
		c-2.5,5.4-3.7,11.1-3.7,16.9c0,5.5,1.4,10.9,4.3,15.7c2.6,4.4,4.6,5.2,9.6,4.1c2.4-0.5,4.9-1.1,7.3-1.7
		c26.9-6.1,53.9-12.2,80.8-18.1c4.6-1,7.5-3.6,8.7-7.9C822.9,402.7,823.6,398.3,824.5,393.9z M1005.6,401.3
		c-6.2,3.2-11.3,5.9-16.5,8.6c0,0.2-0.2,0.5-0.1,0.8c4.3,14,8.5,28,12.9,41.9c0.3,0.9,1.3,1.5,2.6,2.8c0.6-1.8,1.2-2.9,1.2-3.9
		C1005.6,435,1005.6,418.4,1005.6,401.3z"/>
	<path class="st0" d="M1550.4,399.4c-4.6-0.4-8.9-0.7-13.5-1c-0.5,1.3-1,2.5-1.4,3.7c-4.7,14-13.8,23.1-28.5,26.5
		c-83.2,19.2-166.4,38.5-249.6,57.8c-4.7,1.1-9.4,1.9-14.3,0.7c-8.2-2-14.1-6.5-17.5-14.2c-0.5-1.1-1-2.1-1.6-3.3
		c-1.4-0.3-2.9-0.5-4.3-0.8c-11.1-2.1-19-12.3-19-22.5c0.2-86.2,0.2-172.3,0.2-258.5c0-11.5,5.2-19.8,15.3-24.9
		c8.3-4.2,17.2-6.2,26.6-4.9c7.9,1.1,13.1,5.4,15.2,13.1c0.4,1.4,0.9,2.8,1.4,4.5c1.7,0.2,3.3,0.3,4.9,0.5
		c10.1,0.7,16.4,6.5,17.7,16.4c0.3,2.6,0.4,5.3,0.4,8c0,16.5,0,33,0,49.5c0,2.1,0.2,4.2,0.4,7c2.2-0.3,4-0.5,5.7-0.9
		c10.4-2.3,20.8-4.8,31.2-7c13-2.8,22.9,2.3,28.5,14.3c0.4,0.9,0.9,1.8,1.4,2.7c4,1.1,8,2.1,12.4,3.2c0.3-1.3,0.7-2.6,0.8-3.8
		c1.5-16.3,12.8-29.5,28.7-33.2c30-7,60-13.9,90.1-20.7c10.3-2.3,19.6-0.6,26.4,8.4c1.9,2.5,3.1,5.5,4.6,8.1
		c4.6,1.5,9.2,2.9,14.4,4.6c0.2-1.8,0.6-3.6,0.6-5.5c0.1-15.3,0-30.7,0-46c0-22.8,0.1-45.7-0.1-68.5c-0.1-6.1,2.1-10.7,7-14.1
		c11.4-7.9,24-11.3,37.8-10.4c2.1,0.1,4.3,0.9,6.2,1.6c4.5,1.8,6.8,5.2,7,10c0.1,1.9,0,3.9,0,6c4.4,0.4,8.2,0.6,12,1.1
		c1.9,0.3,3.9,0.9,5.7,1.8c3.4,1.7,5.4,4.4,5.6,8.3c0.1,2,0.1,4,0.1,6c0,64-0.1,128,0.2,192c0,8.5-3.2,14-10.2,17.8
		c-4.1,2.2-8.3,4.2-12.8,6.5c0,1.4,0,3,0,5c1.9,0.2,3.7,0.4,5.5,0.5c2.2,0.2,4.4,0.1,6.5,0.6c8.7,2,11.1,5.9,11,13.5
		c-0.3,11.7-0.3,23.3,0,35c0.1,6.2-2.3,10.7-7.2,13.9c-11.8,7.7-24.5,11.7-38.9,9.1c-7.2-1.3-12.6-5.2-12-13.8
		C1550.9,402.1,1550.6,401.1,1550.4,399.4z M1343.1,386.6c0-2.8,0-4.8,0-6.7c0-33.3,0-66.7,0-100c0-2.2,0-4.3-0.1-6.5
		c-0.8-13.4-10.6-20.9-23.6-18c-20.1,4.5-40.2,9.2-60.4,13.8c-2.2,0.5-4.4,0.9-7.4,1.6c0-3,0-5.1,0-7.3c0-28.3,0-56.7,0-85
		c0-10.1-5.3-15.2-15.4-14.6c-7.2,0.4-14.2,2.1-20.4,6.1c-6.2,4-9.5,9.6-9.6,17.1c-0.1,8.5-0.4,17-0.4,25.5c0,39.8,0,79.7,0,119.5
		c0,37.5,0,75-0.1,112.5c0,5.4,1.4,10.2,5.6,13.9c5.5,4.9,11.9,5.6,18.7,4c17.8-4.1,35.7-8.2,53.5-12.4
		c65.8-15.3,131.6-30.8,197.5-45.6c14.9-3.3,25.5-18.1,25.2-31.8c-0.4-17.8-0.1-35.7-0.1-53.5c0-27.3-0.1-54.7,0-82
		c0.1-12.6-9.8-22.8-24.3-19.3c-30.1,7.3-60.3,14-90.5,21c-7.1,1.6-12.7,5.6-17,11.5c-4.9,6.7-6.7,14.3-6.7,22.6
		c0,33.7,0,67.3,0,101c0,2.3-0.2,4.6-0.3,7.3C1359.4,382.9,1351.8,384.6,1343.1,386.6z M1578.6,200.9c0-32.3,0-64.6,0-96.9
		c0-7-2-8.9-8.8-9.3c-10.4-0.6-20.1,2-29.2,7c-5.5,3-8,7.2-7.9,13.7c0.3,20,0.1,40,0.1,60c0,43.8,0,87.6,0,131.4
		c0,7.2,0.9,8.3,8,9.5c11.1,1.9,21-1.5,30.4-7c5.2-3,7.5-7.1,7.5-13.4C1578.5,264.2,1578.6,232.6,1578.6,200.9z M1578.6,358.3
		c0-5.7,0.1-11.3,0-17c-0.1-5.3-1.2-6.6-6.4-7.8c-1.6-0.4-3.3-0.6-4.9-0.7c-10.9-0.5-20.5,3.1-29.4,9.2c-3.5,2.3-5.1,5.4-5,9.7
		c0.1,10.8,0,21.6,0.1,32.4c0,5.9,1.2,7.6,6.8,8.5c13,2.1,24.7-1.2,35.2-9.1c2.7-2,3.9-4.8,3.8-8.3
		C1578.5,369.6,1578.6,363.9,1578.6,358.3z M1537.5,322.1c-0.9,4.2-1.3,7.8,0.4,12c4.4-2,8.6-3.9,13-5.8c-0.2-1.9-0.4-3.5-0.6-5.1
		C1545.8,322.8,1541.9,322.5,1537.5,322.1z"/>
	<path class="st0" d="M98.8,653.1c-1.8-0.4-3.3-0.8-4.7-1.1c-10.9-2.4-18.4-11-19.3-22.1c-0.2-2.3-0.2-4.7-0.2-7
		c0-78.7,0-157.3-0.1-236c0-9.7,2.3-18.4,8.3-26.1c5-6.4,11.4-10.8,19.3-12.6c20.7-4.8,41.5-9.7,62.3-14.3
		c14.4-3.2,24,1.8,30.1,15.5c0.3,0.6,0.6,1.2,1,1.9c1.8,0.7,3.7,1.3,5.6,2c13.8,5.5,21.1,18.9,18.1,33.5
		c-3.1,14.8-12.3,24.1-26.9,27.8c-10.1,2.6-20.4,4.8-30.6,7.1c-1.8,0.4-3.5,1-4.9,1.4c-1.4,5.4-1.2,146.1,0.3,150.8
		c23.4-5.4,46.8-10.9,70.8-16.5c0-2.8,0-5.3,0-7.7c0-70.3,0.1-140.6-0.1-211c0-8.7,3.2-15,9.7-20.2c9.4-7.6,20.1-11.1,32.1-9.5
		c6.6,0.9,12.7,3.3,15.4,10.3c0.8,2.1,0.9,4.5,1.4,7c3,0.5,5.9,0.9,8.8,1.6c10.2,2.3,14.4,7.5,14.4,17.9c0,17.2,0,34.3,0,51.5
		c0,2,0.2,3.9,0.3,6.6c2.7-0.5,4.9-1.2,7.1-1.3c5-0.2,10-0.8,14.9,0c10,1.6,14.5,5.9,20.3,17.2c4,1.2,8.4,2.6,13.3,4.1
		c0.1-2.5,0.3-4.4,0.3-6.4c0-11.5,0.1-23,0-34.5c-0.1-5.6,1.8-10.1,5.8-13.8c11-10,23.9-14.2,38.7-12c2.6,0.4,5.2,1.4,7.4,2.7
		c3.7,2.1,6,5.2,6,9.7c0,1.5,0.3,2.9,0.5,4.7c1.7,0.2,3.1,0.4,4.5,0.6c2.8,0.4,5.6,0.7,8.3,1.5c7,2.1,10.4,6.7,10.4,14
		c0,23.3,0,46.7,0,70c0,40,0,80,0,120c0,2.3,0,4.6,0,6.3c-8.6,12.6-20.4,18.3-34.5,19.8c-7.5,0.8-15.5-0.9-23.1-8
		c-0.2-3.1-0.5-6.3-0.8-10c-4.4-0.5-8.4-0.9-13.3-1.4c-0.1,3.2-0.6,6.1-0.2,9c0.5,4.8-1.2,8.3-4.5,11.6
		c-10.8,10.9-23.9,15.3-39.1,13.3c-5.4-0.7-9.3-3.1-14.1-7.5c-0.2-2.9-0.4-6-0.6-9.7c-2.4-0.3-4.6-0.5-7-0.8c-0.6,1.6-1.2,2.8-1.6,4
		c-4.1,14.9-13.2,24.5-28.6,28.1c-49.5,11.4-98.9,23.1-148.3,34.5c-3.4,0.8-6.9,1.3-10.4,1.3c-8.7-0.1-15.3-4.1-19.7-11.6
		C100.7,657.3,99.9,655.3,98.8,653.1z M300.5,464.9c0,43,0,85.3,0,126.9c4.2,4.3,8.7,6,13.7,5.9c10.2-0.1,19.3-3.2,27.1-9.9
		c3.5-3,5-6.6,4.9-11.3c-0.2-35.8-0.1-71.7-0.1-107.5c0-2.8,0.2-5.7,0.2-8.5c0-11.2,0.3-22.3,0-33.5c-0.2-9.4-5.1-15.3-14.3-17.2
		c-4.1-0.9-8.7-1-12.8-0.2c-11.6,2.2-23.1,5.1-34.6,7.7c-1.4,0.3-2.8,0.4-4.8,0.6c0-2.5,0-4.5,0-6.4c0-27.8,0-55.7,0-83.5
		c0-7-2-9.6-8.7-11.3c-11.3-2.8-21,1-29.7,8c-4.9,3.8-7,8.6-7,15.1c0.2,72.2,0.1,144.3,0.1,216.5c0,2.3,0,4.6,0,7.1
		c-9.5,2.2-18.4,4.3-27.3,6.4c-8.9,2.1-17.8,4.1-26.8,6.2c-8.9,2.1-17.8,4.2-26.8,6.2c-8.8,1.9-17.5,4.7-26.5,5.7
		c-1.3-10.1-0.7-183.7,0.6-187.5c1.7-0.4,3.4-0.9,5.2-1.3c10.9-2.5,21.7-5.4,32.6-7.5c13.6-2.6,24-15.7,24.5-29.1
		c0.1-3.4-0.4-7.1-1.5-10.3c-3.2-9.1-11.2-13.6-20.6-11.5c-21.5,4.8-42.8,9.8-64.3,14.7c-5.5,1.3-10,4.3-13.9,8.4
		c-6.7,7.1-9.1,15.7-9.1,25.2c0,78,0,156,0,234c0,2.5,0.2,5,0.5,7.5c1.9,12.4,11.2,18.7,23.5,15.9c50.9-11.8,101.8-23.7,152.8-35.4
		c10.2-2.3,22.6-16,22.4-28.6c-0.7-35.3-0.2-70.7-0.2-106c0-2.1,0.2-4.2,0.3-6.7C286.9,468,293.3,466.6,300.5,464.9z M372.5,577.2
		c3.1,2.8,6.1,4.6,9.7,5c11.7,1.4,22-2,30.9-9.6c3.3-2.8,4.8-6.2,4.8-10.9c-0.2-46.5-0.1-92.9-0.1-139.4c0-16.2,0-32.3,0-48.5
		c0-6.2-1.4-7.9-7.3-9.4c-1.6-0.4-3.3-0.6-4.9-0.7c-10-0.9-18.6,2.9-26.5,8.5c-4.5,3.2-6.7,7.2-6.6,13.1
		c0.2,62.1,0.1,124.2,0.1,186.3C372.5,573.5,372.5,575.3,372.5,577.2z"/>
	<path class="st0" d="M354.3,291.4c6-1.4,11.5-2.7,17-4c16.9-3.9,33.8-7.7,50.7-11.7c3.6-0.8,6.5-0.6,9.5,2.2
		c0.3,1.2,0.7,2.6,1.1,4.3c1.4,0.1,2.8,0.2,5,0.4c0,19.9,0,39.8,0,60c-24.2,5.7-47.9,11.3-72,16.7c-0.5-2.2-0.9-3.6-1.3-5.3
		c-1.8-0.1-3.6,0-5.3-0.4c-1.6-0.4-3-1.4-4.7-2.2C354.3,331.5,354.3,311.8,354.3,291.4z M359.1,345.2c21-4.8,41.5-9.5,61.8-14.2
		c1.3-6.1,1-45.5-0.4-49.6c-20.4,4.7-40.9,9.4-61.4,14.1C359.1,312.3,359.1,328.4,359.1,345.2z"/>
	<path class="st0" d="M624.8,222.1c1.9-0.6,3.3-1,4.8-1.4c20.8-4.8,41.6-9.5,62.3-14.4c3.6-0.9,6.9-0.9,10.1,2.1
		c0.3,1,0.7,2.4,1.2,3.9c1,0.4,2,0.9,3.2,1.4c0,19.7,0,39.4,0,59.7c-23.7,5.8-47.5,11.1-71.6,16.7c-0.6-2-1-3.5-1.3-4.7
		c-3-1.2-5.9-2.2-8.7-3.3C624.8,261.8,624.8,242.2,624.8,222.1z M629.6,275.7c21.3-4.9,41.8-9.6,62.1-14.3c0-16.8,0-32.9,0-49.6
		c-21,4.8-41.5,9.5-62.1,14.3C629.6,242.7,629.6,258.8,629.6,275.7z"/>
	<path class="st0" d="M1103.4,352.5c0,28.4,0,56,0,84.3c-15.4,3.5-30.6,7.1-46.4,10.7c0-28.5,0-56,0-84.3
		C1072.3,359.6,1087.6,356.1,1103.4,352.5z M1097.8,431.5c1.3-5.9,1.1-42.9-0.2-47.4c-3.2,0.8-6.5,1.5-10.2,2.4
		c0,15.8-0.1,31.2,0.1,47.3C1091.5,432.9,1094.6,432.2,1097.8,431.5z"/>
	<path class="st0" d="M939.7,342.3c-14.5,3.3-29.3,6.7-44.6,10.2c0-20.8,0-40.7,0-61.2c14.9-3.4,29.8-6.8,44.5-10.2
		C941,285.7,941,337.1,939.7,342.3z M925.9,314.3c0,8.5,0,16.1,0,24.5c3.4-0.8,6.2-1.5,8.8-2.1c1.5-6,1.2-19.9-0.5-24.1
		C931.6,313.2,928.9,313.7,925.9,314.3z"/>
	<path class="st0" d="M529.2,416c14.8-3.5,29.5-7.1,44.9-10.2c0,27.5,0,54.3,0,81.5c-14.9,3.4-29.7,6.9-44.5,10.3
		C528.4,493.5,528,423.9,529.2,416z M567.5,436.5c-3.7,0.9-6.5,1.7-9.4,2.4c0,14.9,0,29.3,0,44.5c3.5-0.7,6.4-1.4,9.4-2
		C567.5,466.4,567.5,452,567.5,436.5z"/>
	<path class="st0" d="M925.9,314.3c3-0.6,5.7-1.2,8.3-1.7"/>
	<path class="st0" d="M934.7,336.7c-2.6,0.6-5.4,1.3-8.8,2.1"/>
	<path class="st0" d="M1252.5,317.8c14.5-3.3,29.3-6.8,44.1-10.2c1.3,4,1.7,77,0.6,85.8c-14.6,3.8-29.6,7-44.5,10.4
		C1251.3,399.1,1251.1,323.6,1252.5,317.8z M1283.2,390.1c2.9-0.6,5.8-1.3,8.7-2c0.3-1.8,0.6-3,0.6-4.1c0-13.5,0-27,0-40.5
		c0-1.4-0.5-2.8-0.8-4.6c-3.4,0.9-6.2,1.6-8.8,2.2C1281.3,347.5,1281.6,385.6,1283.2,390.1z"/>
	<path class="st0" d="M1414.2,284c15.1-3.5,30.3-7,45.4-10.5c1.4,4.1,1.6,77.7,0.3,83.6c-14.9,3.4-30,6.9-45.1,10.4
		C1413.2,363.6,1412.8,292.3,1414.2,284z M1445,307.2c-1.8,5.4-1.5,42.5,0.4,46.7c3.2-0.8,6.5-1.6,9.4-2.4
		c1.6-7.2,1.1-42.7-0.6-46.5C1451,305.8,1447.9,306.5,1445,307.2z"/>
	<path class="st0" d="M378.8,329.4c-1.3,0.4-2.5,0.8-4.4,1.4c-1.3-9.2-0.3-18-0.6-27c1.8-0.5,3.2-0.9,4.3-1.2
		C379.5,303.6,379.9,320.6,378.8,329.4z"/>
	<path class="st0" d="M402.4,297.6c1.7-0.2,3.1-0.4,4.8-0.6c0,8.3,0,16.2,0,24.6c-1.4,0.4-2.8,0.8-4.8,1.3
		C402.4,314.2,402.4,306.2,402.4,297.6z"/>
	<path class="st0" d="M644.3,234.3c1.3-0.4,2.6-0.8,4-1.2c1.4,3.8,1.7,20.8,0.5,27.1c-1.3,0.3-2.7,0.5-4.5,0.9
		C644.3,252.2,644.3,243.7,644.3,234.3z"/>
	<path class="st0" d="M677.7,252.2c-1.8,0.5-2.9,0.7-3.8,1c-1.6-1.2-1.9-16.6-0.8-24.5c1-0.4,2.1-0.9,3.9-1.7
		C678.5,235.6,677.6,243.7,677.7,252.2z"/>
</g>
</svg>
