<?xml version="1.0" encoding="utf-8"?>
<!-- Generator: Adobe Illustrator 19.0.0, SVG Export Plug-In . SVG Version: 6.00 Build 0)  -->
<svg version="1.1" xmlns="http://www.w3.org/2000/svg" xmlns:xlink="http://www.w3.org/1999/xlink" x="0px" y="0px"
	 viewBox="0 0 920 402.2" style="enable-background:new 0 0 920 402.2;" xml:space="preserve">
<style type="text/css">
	.st0{display:none;}
	.st1{display:inline;fill:#FFFFFF;}
	.st2{fill:#FFFFFF;}
</style>
<g id="Layer_2">
	<g id="Layer_3" class="st0">
		<path class="st1" d="M218.7,322.2L218.7,322.2l0-101.7l-23.6,1v100.7h-15.3L206,455.5l27.3-133.3H218.7z M199.3,345.5l-5.7-20H205
			v-51.7h3.6v51.4h12l-5.1,20.3H199.3z"/>
		<path class="st1" d="M227.8,202.1c0,7.3-3.6,13.8-9.1,17.7c-3.6,2.5-7.9,4-12.6,4c-12,0-21.8-9.7-21.8-21.8
			c0-12,9.7-21.8,21.8-21.8S227.8,190.1,227.8,202.1z"/>
	</g>
	<path class="st2" d="M677.3,43.4c0,0,39,66.4,41.1,69.9s3.8,3.4,3.8-1.6s0-52.5,0-57.6s-5.5-10.6-5.5-10.6h46.5
		c0,0-5.1,5.3-5.1,9.9s0,127.8,0,131.5s5.1,7.4,5.1,7.4h-39.9c0,0-40.1-69.4-42-72.8s-3-6.3-3,1.5s0.3,56.4,0.3,61
		s5.4,10.3,5.4,10.3h-47.3c0,0,5-3,5.6-11.5s0-123.6,0-128s-5.6-9.3-5.6-9.3H677.3z"/>
	<g>
		<path class="st2" d="M447.9,192.1c0,0,0.2,0.1,0.6,0L447.9,192.1z"/>
		<path class="st2" d="M489,173.1c0-8.3-7.6-22-12.9-32.1c-5.1-14.6-27.5-20.9-27.5-20.9s17.5-0.5,17.5-32.4S442,47,438.3,45.1
			s-16-5.4-21.9-5.5s-24.5,5.3-32,5.3s-11.9-3.6-11.9-3.6s0,135.8,0,140.5s-5.1,10.4-5.1,10.4h46.3c0,0-5.1-4.4-5.1-11
			s0-46.5,0-46.5c16.8,0,29.6,15.4,30.8,16.9s11.8,12.1,11.8,27.3c0,10.9-1.6,13-2.5,13.4l48.8,0.1C497.3,192.2,489,188.8,489,173.1
			z M407.6,104.5V72.4c0,0,21.5-2,21.5,16.1C429.1,106.9,407.6,104.5,407.6,104.5z"/>
	</g>
	<path class="st2" d="M206,402.2c-93.2,0-206-73.9-206-199.7C-1.3,49.5,144,0,195.5,0S276,13,276,13v30.5h21c0,0-5.7,4-5.7,9.7
		c0,5.7,0,48.3,0,48.3H323c0,0,0-44,0-48.1s-4.9-9.9-4.9-9.9H365c0,0-5.1,6-5.1,9s0,125.8,0,129.6s1.9,10,4.4,10s-45.6,0-45.6,0
		s4.9-3.8,4.9-9.3s0-49.3,0-49.3h-32.4c0,0,0,45.1,0,49s5.4,9.5,5.4,9.5h-46.3c0,0,4.8-4.6,4.8-9.3s0-102.4,0-102.4
		s-28.7-12.3-59.3-12.3s-129,30-129,134.3S158,336.8,205.3,336.8s71-23.7,71-23.7s0,59.9,0,76.7C254.8,398,224.6,402.2,206,402.2z"
		/>
	<path class="st2" d="M837,40.7c-45.8,0-83,34.7-83,77.5c0,42.8,37.2,77.5,83,77.5c45.8,0,83-34.7,83-77.5
		C920,75.4,882.8,40.7,837,40.7z M837,162.1c-25.5,0-46.3-19.7-46.3-44c0-24.3,20.7-44,46.3-44s46.3,19.7,46.3,44
		C883.3,142.4,862.6,162.1,837,162.1z"/>
	<path class="st2" d="M560.7,40.2c-45.8,0-83,34.7-83,77.5c0,42.8,37.2,77.5,83,77.5s83-34.7,83-77.5
		C643.7,74.9,606.5,40.2,560.7,40.2z M560.7,161.6c-25.5,0-46.3-19.7-46.3-44c0-24.3,20.7-44,46.3-44s46.3,19.7,46.3,44
		C606.9,141.9,586.2,161.6,560.7,161.6z"/>
</g>
<g id="Layer_1" class="st0">
	
		<image style="display:inline;overflow:visible;" width="1796" height="632" xlink:href="chrono.png"  transform="matrix(1 0 0 1 -116.9909 -113.5)">
	</image>
</g>
</svg>
