<?xml version="1.0" encoding="utf-8"?>
<!-- Generator: Adobe Illustrator 19.0.0, SVG Export Plug-In . SVG Version: 6.00 Build 0)  -->
<svg version="1.1" id="Layer_1" xmlns="http://www.w3.org/2000/svg" xmlns:xlink="http://www.w3.org/1999/xlink" x="0px" y="0px"
	 viewBox="0 0 1876.2 719.5" style="enable-background:new 0 0 1876.2 719.5;" xml:space="preserve">
<style type="text/css">
	.st0{fill:#FFFFFF;}
</style>
<g>
	<path class="st0" d="M317.2,0c3.2,1,6.3,2,9.5,2.9c3.1,0.9,5.1,2.7,6.3,5.8c3.9,10,14.7,14.5,24.5,10c4.2-1.9,8.4-4.2,12.2-6.9
		c6.3-4.3,13.2-6,20.6-6.9c7.8-0.9,14.4,1.9,20.6,6.2c4,2.8,7.8,5.7,11.8,8.4c6.5,4.4,13.7,5.8,21.4,4.6c7.9-1.2,15.7-2.9,23.6-3.8
		c5.3-0.6,10.6-0.4,15.9-0.3c3.4,0.1,6,1.9,7.6,4.9c4.1,7.8,10.6,11.1,19.2,10.9c2.6-0.1,5.3,0.7,7.9,1.2c5.6,1.2,9.8,4,11.4,9.9
		c0.4,1.5,1.4,2.9,2.4,4.9c3.7-0.2,7.5,0.1,11-0.6c4.7-1,8.2,0.5,11,4.1c1.8,2.2,3.3,4.6,4.9,6.9c3.1,4.7,6.2,9.4,9.8,14.7
		c3.3-8.1,5-15.2,0.2-22.5c-1.8-2.6-3.6-5.2-5.3-7.9c-1.4-2.3-2.4-4.8-0.7-7.7c3.9-1.3,8.2-2.2,11.8-4.3c3.6-2.1,6.5-5.5,9.5-8
		c3.9,0.7,5.6,2.9,6.4,5.8c1.3,4.5,2.2,9,3.5,13.5c1.4,5.1,2.7,10.3,4.6,15.3c1.1,2.9,3.2,5.5,5.2,7.8c2.9,3.3,5.1,6.9,6.4,11.2
		c2.6,8.3,6.2,11.1,15.1,11.8c4,0.3,8,0.7,11.9,0.8c5,0.1,9.9,0.8,14.7,2.5c3.7,1.3,5.4,0.4,7.2-3.2c1.2-2.4,2-4.9,3.1-7.4
		c1.6-3.4,3.5-6.5,7.6-7.6c7.3,0.7,12.4,5.2,16.4,10.9c5.9,8.5,9,18.1,10.9,28.2c0.5,2.6,1.1,4.9,3.6,6.4c0.5,0.1,1.1,0.3,1.8,0.3
		c10.4,0.1,16.3,8.2,17.1,17.4c0.3,3.3-0.9,6-3.6,8.3c-17.1,14.3-34.3,28.5-51.1,43.2c-7.7,6.8-14.5,14.6-21.6,22.1
		c-9.2,9.6-18.2,19.4-27.5,29c-1.3,1.4-3.2,2.6-5,3c-12.3,3.1-24.8,5.6-37.5,3.1c-4-0.8-8-2.4-11.6-4.4
		c-10.7-5.9-20.1-13.7-29.5-21.3c-1.2-1-2-2.6-2.8-4c-0.7-1.3-1.1-2.8-1.5-4.2c-2.3-7.3-6.9-11.9-14.5-13.6
		c-7.2-1.6-13.2-5.2-18.2-10.7c-11.7-12.9-23.8-25.6-35.6-38.5c-4.7-5.2-10.1-8.4-17.1-9.4c-8.6-1.2-17.1-3.1-24.5-7.9
		c-5.4-3.5-11.2-3.7-17.3-2.1c-3.5,0.9-7.2,1.4-10.7,2.4c-4,1.2-7.7,0.5-11.1-1.5c-6.5-4-12.6-3-18.9,0.3
		c-6.2,3.3-12.4,6.8-19.4,7.7c-8.1,1-16.2,1.7-24.3,2.1c-10.1,0.6-19.2,3.8-27.2,9.9c-4.5,3.4-8.8,7.2-13.1,10.8
		c-5.3,4.6-11.8,6.9-18.4,8.7c-3.8,1.1-7.7,2.3-11.7,2.6c-5.1,0.4-7.8,3.2-9.7,7.4c-0.7,1.5-1.2,3.1-1.9,5.1
		c-2.8,0.3-5.8,0.7-8.7,0.9c-12.7,0.7-22.5,7.3-31.7,15.4c-6.6,5.8-13.4,11.5-20.1,17.2c-2.5,2.1-3.7,4.8-3.6,7.9
		c0.1,4.9,1.3,9.5,5.2,13.1c3.2,3,5.9,6.3,6.8,10.8c1.3,6.3-1.6,11.2-8.1,13.1c-1.7-1.7-3.2-3.9-5.2-5c-1.6-0.9-3.8-0.6-6.3-0.9
		c-5.4,5.6-10.9,11.2-16.3,16.8c-0.8,0.8-1.5,1.8-2.2,2.7c-3.7,4.4-4.4,10.2-1.7,15.3c1.2,2.2,2.4,4.3,4,7c-1.5,2.1-2.9,4.1-4.4,6.3
		c-1.5-0.7-2.5-1.2-3.6-1.7c-2.7,3-5.1,5.9-7.7,8.6c-4,4.2-8.9,6.8-14.9,7.4c-5.5,0.6-7.7,2.8-7.5,8.1c0.2,7.3-2.8,12.4-9.1,15.9
		c-1.3,0.7-2.4,1.7-4,2.9c0,3.2-0.4,6.5,0.1,9.8c0.6,4.5,2.9,8.3,7.4,9.9c4.4,1.6,7.3,4.6,8.9,8.8c2,5,5,8.2,10.9,7.4
		c0.4-0.1,0.9,0.3,2.1,0.8c1,3.4,1.8,7.3,3.4,10.8c1.6,3.6,3.9,6.9,5.8,10.3c-1.6,4.5-6.9,4.2-9.4,7.7c-1.2,3.4,0.7,5.8,3.4,7.7
		c2.6,1.8,5.4,3.2,8.1,4.9c1.7,1.1,3.3,2.3,4.8,3.5c2.7,2.2,3.8,4.9,2.8,8.4c-0.7,2.4-1.1,4.8-1.7,7.8c2.1,2.4,4,5.1,6.5,7.2
		c5.7,4.8,8.5,11.1,9.7,18.1c1.1,6.6-2.2,11.4-8.1,15.6c-0.3-2.7-0.6-4.9-0.9-7.1c-1-7-3.2-9.1-10-10c-4.4-0.6-8.4-2-11.4-5.5
		c-2.2-2.5-4.6-4.8-6.5-6.7c-3.5-1.2-5.5-0.1-7.1,2.2c-1.5,2.2-3,4.4-4.5,6.6c-2.2,3.4-4.4,6.6-8,8.8c-2.5,1.5-3.6,3.8-3.5,6.8
		c0.4,10.7,2.1,20.8,9.6,29.2c9.8,10.9,19.3,22.1,29.1,32.9c12.1,13.5,24.3,27,35.2,41.5c0.9,1.2,1.9,2.3,2.7,3.3
		c3.5-0.1,4.5-2.5,5.8-4.6c2.2-3.8,4.5-7.4,8.2-10c1.1-0.2,2.2-0.3,3.4-0.5c2.4-0.4,4.2-1.7,4.5-4.1c1-6.8,5.9-10.4,11.3-13
		c7.6-3.6,15.8-3,24.7-2.5c-0.8,2.3-1.2,4-1.9,5.6c-3,6.4-1.8,11.6,3.9,15.8c3.9,2.9,7.9,5.6,11.9,8.3c2.3,1.5,4.1,3.3,4.9,6.1
		c1,3.2,3.1,5.4,6.3,6.6c3.9,1.4,7.7,3.2,11.6,4.6c5.2,1.8,9.5,4.7,13.2,8.7c5,5.4,11.1,8.3,18.5,8.4c2.5,0,5,0.4,7.4,1.1
		c2,0.5,3.8,1.7,5.8,2.7c-0.9,6.8,1.6,11.9,6.4,15.8c3.4,2.8,6.6,3.5,11.2,2.8c1.9-2.3,4.6-11.8,5.8-20.3c1.3,0.1,2.8-0.1,4.1,0.3
		c9.4,2.6,17.4,7.3,23.6,15c3.2,4,6.7,7.9,9.7,12.1c2.5,3.5,5.7,5.6,9.5,6.9c4,1.4,7.5,3.5,10.5,6.5c1.6,1.6,3.6,2.9,5.7,4
		c6.2,3.2,16.5-2.3,18.4-7.3c0.6-1.5,0.4-3.5,0.1-5.2c-0.3-1.6-1.2-3-2.2-5.2c7.9-0.1,14.4,2.6,21,4.9c7.1,2.5,10.8,9.3,17.1,12.9
		c2.3-1.1,4.4-2.2,6.5-3.1c2.7-1.3,5.4-1.5,8.2-0.2c8.7,4,17.2,2.9,25.6-0.8c5.5-2.4,10.9-4.9,16.5-7.2c5.2-2.1,10.5-3.1,16.1-2
		c11.7,2.4,22.8,0.1,33.6-4.4c2-0.8,4-1.7,5.7-3.1c9.4-7.8,20.4-9.6,32-7.8c6,0.9,10.4-0.9,14.6-4.6c1.5-1.3,2.9-2.8,4.2-4.3
		c9.1-10.4,23.5-14,36.2-8.8c2.8,1.1,5.5,2.5,8.1,3.8c8.7,4.4,17.5,6.2,26.9,2.4c1.6-0.7,3.4-1,5.1-1.4c1.6,5.9-0.5,10.5-5.8,11.4
		c-5,0.9-10.2,0.9-15.4,0.8c-6.6,0-13.3-0.5-19.9-0.7c-1.3,0-2.7,0.3-3.8,1c-3.6,2.1-7.4,2.7-11.5,2.1c-4-0.6-7,1.2-9.3,4.5
		c-3.1,4.4-6.3,8.6-9.5,12.8c-3.7,4.7-8.5,6.7-14.5,5.9c-0.7-0.1-1.3-0.2-2-0.2c-5.2,0.1-10.3-0.2-14.9-3.1
		c-0.7-0.4-1.6-0.5-2.9-0.9c-1.4,0.8-3.2,1.6-4.8,2.8c-1.9,1.3-3.7,2.8-5.4,4.4c-4.2,3.9-8.8,5.9-14.5,3.5c-0.7-0.3-1.6-0.4-3.2-0.7
		c-1.1,1-2.8,2.1-3.9,3.6c-3.6,4.6-6.9,9.4-10.4,14c-3.9,5.2-7.9,6.4-14,4.5c-4.1-1.3-8.2-2.7-12.3-4.1c-5.5-1.9-10.6-0.6-15.1,2.6
		c-4.9,3.5-9.5,7.3-14.2,11c-2.5,2-5.3,2.8-8.4,2.5c-5.1-0.6-10.3-0.7-15.3-1.9c-7.3-1.7-14.6-1.4-21.9-1.1c-4.4,0.2-7.6,3.2-10.7,6
		c-3.1,2.8-5.9,5.9-8.9,8.8c-6,5.9-12.9,5.9-19,0.1c-2.7-2.5-5.1-5.3-7.7-7.8c-4.5-4.4-9.6-6.2-15.9-4.8c-7.4,1.6-9.5,0.5-13.6-6
		c-1.1-1.8-2.2-3.8-3.7-5.3c-3.1-3.1-6.9-4.7-11.4-3.4c-3.8,1.1-7.7,2.2-11.4,3.5c-5.3,1.9-9.8,4.8-12.3,10.3
		c-0.8,1.8-2.1,3.4-3.5,4.9c-4.3,4.7-12.7,4.9-17.1,0.2c-2-2.2-3.7-4.8-4.9-7.5c-1.7-4.1-4.4-6.5-8.9-6.8c-1.1-0.1-2.2-0.6-3.1-0.8
		c-2-2-2.1-4.2-1.7-6.6c0.9-6-1.2-9.1-7.1-10.6c-5.2-1.3-8.9-3.7-9.9-9.7c-0.9-5.6-5-8.3-10.7-8.6c-5.3-0.2-10.3,0.5-15,3.1
		c-2.8,1.5-5.8,2.6-8.6,4c-3,1.5-5.7,1.2-8.4-0.7c-2-1.5-4.1-2.8-5.9-3.9c-5,0.4-9.5,0.8-13.9,1.2c-4.8,0.4-8.9-0.8-11.5-5.3
		c-0.8-1.4-1.8-2.8-2.5-4.3c-3.4-6.6-10.5-9.9-17.9-8.4c-5.2,1-9.6,3.6-13.4,7.3c-0.9,0.9-1.9,1.8-2.9,2.7c-4.4-1.3-6.6-4.7-7.8-8.5
		c-1.1-3.6-1.5-7.5-2-11.2c-0.3-2,0.1-4-0.1-6c-0.3-4.2-1.9-7.4-5.6-10c-10.9-7.9-21.3-16.5-30.2-26.8c-2.9-3.4-6.4-6.3-9.8-9.7
		c-3.8-0.9-7.5-0.2-11.2,1.9c-2.4,1.4-5,2.7-7.7,3.6c-5.9,1.9-11.5,0.8-16.7-2.5c-5.9-3.8-10.5-8.6-11.5-16.1
		c-0.6-4.5,0.8-8.5,2.5-12.6c0.9-2.2,2.1-4.2,2.6-6.5c0.5-2.2,0.6-4.7,0.1-6.8c-0.9-3.4-3.7-4.8-8.6-4c-6,0.9-11.5-0.6-17.1-2.5
		c-0.8-0.3-1.5-0.6-2.3-1.1c-4.4-2.7-4.8-6.4-0.8-9.6c3.1-2.4,6.5-4.6,10-6.6c7.4-4.2,12.3-9.9,13.5-18.6c0.4-2.9,1.4-6,3.1-8.3
		c5.3-7.3,4-14.3,0.5-21.7c-2-4.2-3.9-8.4-5.6-12.8c-1.7-4.5-2.5-9.2-2.6-14.2c-0.1-9.3-0.4-18.6-1-27.9c-0.6-8.8-3.8-16.8-7.7-24.6
		c-0.6-1.3-1.8-2.3-2.7-3.4c-3.1,1.6-5.7,3.6-8.6,4.3c-2.7,0.6-5.8-0.3-9-0.5c-0.4,3.5-0.9,6.9-1.2,10.3c-0.9,8-3.3,15.7-6.8,22.9
		c-3.4,7-3.1,14.2-2.4,21.5c0.1,0.9,0.1,1.9,0.3,3.2c-3-0.9-3.7-3.3-4.9-5.1c-5-8.3-7.6-17.3-9-26.8c-0.1-1-0.5-1.9-0.8-2.8
		c0-14,0-28,0-42c0.3-0.8,0.7-1.5,0.7-2.3c1.3-13.7,4.6-27,9.5-39.7c5.9-15.1,10.6-30.5,15.1-46c2.8-9.5,3.8-19.2,3.6-29.1
		c-0.1-4.1-1.8-7-5.7-8.5c-4.1-1.7-7.8-1.3-11.1,1.8c-1.4,1.4-2.6,2.9-4.1,4.5c-1.9-1.8-2.2-3.8-1.9-6.1c0.5-3.2,1.9-6,4-8.5
		c3-3.5,6.9-5.8,11.3-7.1c8.2-2.4,15.2-6.5,20.8-13.1c1-1.1,2.1-2.1,3.3-3.1c5.2-4.5,10.4-8.9,16.9-11.3c2.8-1,5.6-2.3,8-4.1
		c10-7.8,19.6-16.1,25.5-27.7c4.1-7.8,9.5-14.3,17.2-18.9c4.9-2.9,8.9-7,11.9-11.9c1.3-2.2,2.3-4.5,1.1-8.2
		c-6.9-6.4-17.9-7.4-26.1-13.8c3.2-3.5,6.9-5.7,11.1-6.7c4-1,6-3.2,6.4-7c-3.2-5-9.7-9.6-14.4-10c-6-0.5-12-0.7-17.9-1.2
		c-3-0.2-6-0.8-9.1-1.1c0.2-1,0.1-1.4,0.3-1.6c1-0.9,2-1.7,3.1-2.5c8.8-6.2,18.5-10.5,28.6-14c12.8-4.4,25.8-7.7,39.3-9
		c9.7-1,19.5-2.4,28.8-5.9c7.4-2.8,15.2-4.8,21.1-10.9c1.2-1.3,3.6-1.8,5.4-1.9c2.8-0.2,5.6,0.2,8.5,0.3c2.6,0.1,5.3,0.3,7.5,0.5
		c4.7-2.9,6.1-7.1,5.4-11.5c-0.8-4.8-2.8-9.3-8.2-11c-7.1-2.3-14.2-4.7-21.3-7.2c-2.3-0.8-4.5-1.8-7.1-2.9
		c5.7-7.7,12.9-11,21.5-11.3c13.1-0.5,26.3-0.8,39.4-1.2c1.4,0,2.9-0.5,4.3-0.7C273.9,0,295.5,0,317.2,0z"/>
	<path class="st0" d="M1876.2,567c-19.8,0.1-39.7,0.1-59.5,0.2c-4.7,0-9.3,0-14.4,0c-15-19.3-29.9-38.6-45-58.1
		c-32.2,0-64.4,0-97.2,0c0,1.6,0,3.4,0,5.2c0,15.5,0,31,0,46.5c0,1.9-0.4,3.9-0.5,5.6c-4.9,1.1-62.7,1.1-67.1-0.1
		c-0.1-1.5-0.3-3.1-0.3-4.7c0-54.7-0.4-109.3,0.2-164c0.2-20.4,7.7-38.9,21.9-53.9c9.8-10.4,22.4-15.8,36.8-17.1
		c9.4-0.8,18.6-0.1,27.7,1.9c12.4,2.7,22.2,9.3,29.9,19.4c21.7,28.5,43.6,56.8,65.5,85.1c18.9,24.5,37.8,49.1,56.7,73.6
		c14.3,18.6,28.6,37.2,42.9,55.8c0.7,0.9,1.6,1.6,2.5,2.4C1876.2,565.7,1876.2,566.3,1876.2,567z M1713.3,452.5
		c-0.9-1.4-1.3-2.1-1.8-2.7c-6.5-8.5-13-16.9-19.5-25.3c-7-9.1-14-18.2-21.1-27.2c-3.1-4-5.8-4.2-10.3-1.5
		c-1.1,5.6-0.8,53.1,0.4,56.7C1678.2,452.5,1695.3,452.5,1713.3,452.5z"/>
	<path class="st0" d="M1268.1,393.9c-0.3-2.5-0.8-4.3-0.8-6.1c-0.1-18.8,0-37.7,0-56.5c0-1.5,0.2-2.9,0.4-4.8c1.9-0.2,3.5-0.5,5-0.5
		c63.7,0,127.3,0,191,0c6.9,0,13.5,2,19.9,4.5c16.2,6.3,30.1,15.7,40.5,29.8c8,10.9,12,23.3,12.3,36.8c0.2,11.9-0.5,23.7-4.9,34.9
		c-1.6,4.2-3.7,8.2-5.8,12.6c0.6,0.9,1.2,2.1,2,3.1c9.1,12,13.5,25.5,13.6,40.5c0.1,24.2,0,48.3,0,72.5c0,1.9-0.3,3.9-0.6,6.5
		c-22.5,0.1-44.6,0.1-67.2,0c-0.2-2.4-0.4-4.3-0.4-6.2c0-21.7-0.2-43.3,0.1-65c0.1-9-2.5-15.4-15.4-15.7c-17.7-0.4-35.3-0.1-53-0.1
		c-21,0-42,0-63,0c-1.8,0-3.6,0-6.1,0c-0.1,2.2-0.4,4.1-0.4,6c0,24.8,0,49.7,0,74.5c0,1.9-0.2,3.9-0.3,6.2c-22.5,0-44.5,0-66.5,0
		c-1.6-4.7-1.5-149.3,0.2-154c1.9,0,4,0,6.1,0c59.8,0,119.6,0,179.5,0c2.6,0,5.3-0.2,7.9-0.8c4.7-1.2,6.5-4.4,6.1-9.9
		c-0.3-4.5-2.9-7.4-7.5-7.9c-2.1-0.2-4.3-0.2-6.5-0.2c-59.7,0-119.3,0-179,0C1273.1,393.9,1271,393.9,1268.1,393.9z"/>
	<path class="st0" d="M917.2,485.7c8.3-1.2,10-5.6,10-12c-0.1-46.8,0-93.6,0-140.5c0-2.1,0.2-4.2,0.3-6.1c4.1-1.3,60.8-1.6,66.6-0.4
		c0.1,1.3,0.4,2.7,0.4,4.1c0,55.8,0.5,111.7-0.3,167.5c-0.3,23.6-11.4,42.6-32.6,54.3c-8.4,4.6-17.6,6.7-27.2,7.5
		c-12,1-23.6-0.3-34.8-4.6c-18.5-7.1-34.2-18.1-45.9-34.1c-26.3-35.8-52.4-71.8-78.6-107.8c-2.9-4-5.9-8.1-9-12
		c-2.8-3.5-4.9-3.5-8.7-0.2c0,54.5,0,109.5,0,164.8c-4.8,1.2-9.2,0.5-13.7,0.6c-4.5,0.1-9,0-13.5,0c-4.3,0-8.7,0-13,0
		c-4.5,0-9,0-13.5,0c-4.4,0-8.9-0.1-13.7-0.1c-0.2-2.4-0.6-4.1-0.6-5.9c0-58-0.2-116,0.1-174c0.1-16,5.1-30.9,15.7-43.3
		c9-10.5,20.6-15.8,34.4-17.1c19.5-1.9,36.8,3.6,52.8,14.3c9.5,6.4,16.6,15.3,23.6,24.2c16.6,21.1,33.3,42,50,62.9
		c10.9,13.7,21.6,27.5,32.7,41c3.7,4.5,7.8,8.6,12,12.6C912.5,483.6,915.3,484.6,917.2,485.7z"/>
	<path class="st0" d="M501.3,567.2c-20.7,0-41.3-0.2-62,0.1c-16.7,0.2-31.4-5.3-44.5-15.1c-15.7-11.8-25.4-27.5-29.2-46.7
		c-0.8-4.2-1.3-8.6-1.3-12.9c-0.1-30.3-0.2-60.6,0-91c0.1-18.7,6.6-35.1,18.9-49.2c11.7-13.4,26.4-21.7,43.8-24.9
		c4.9-0.9,9.9-1.2,14.9-1.2c39.8-0.1,79.6-0.1,119.4,0c26.7,0,48.1,10.8,63.7,32.3c9.3,12.7,14,27.1,14.1,42.9c0.1,29.5,0,59,0,88.5
		c0,22.9-8.2,42.3-25.1,57.7c-13.7,12.6-29.9,19.6-48.9,19.6C543.9,567.1,522.6,567.2,501.3,567.2z M501.7,393
		c-18.7,0-37.3,0.1-56-0.1c-8.2-0.1-14.7,6.8-14.6,14.4c0.3,26.3,0.1,52.7,0.2,79c0,1.9,0.3,4,1.1,5.8c2.7,6.2,7.8,8.7,14.4,8.7
		c36.5-0.1,73-0.2,109.5,0.1c9.2,0.1,16.5-6.4,16.1-16.2c-0.4-12.3-0.1-24.7-0.1-37c0-13.3,0.1-26.7-0.1-40c0-2.6-0.5-5.4-1.7-7.6
		c-2.6-4.9-7-7.2-12.8-7.1C539,393.1,520.3,393,501.7,393z"/>
	<path class="st0" d="M1154.1,566.6c0-57.4,0-114.7,0-172.4c-2.6-0.1-4.5-0.3-6.4-0.3c-37.8,0-75.7,0-113.5,0
		c-2.1,0-4.2-0.3-6.1-0.4c-1.2-4-1.5-60.2-0.4-66.8c1.7-0.2,3.6-0.6,5.5-0.6c14.8-0.1,29.7,0,44.5,0c45.5,0,91,0,136.5,0
		c2.1,0,4.2,0,6.1,0c1.3,4.2,1.6,234.8,0.5,240.2C1217.4,567.3,1162.3,567.7,1154.1,566.6z"/>
</g>
</svg>
