<?xml version="1.0" encoding="utf-8"?>
<!-- Generator: Adobe Illustrator 19.0.0, SVG Export Plug-In . SVG Version: 6.00 Build 0)  -->
<svg version="1.1" xmlns="http://www.w3.org/2000/svg" xmlns:xlink="http://www.w3.org/1999/xlink" x="0px" y="0px"
	 viewBox="0 0 612 792" style="enable-background:new 0 0 612 792;" xml:space="preserve">
<style type="text/css">
	.st0{fill:none;}
	.st1{fill:#FFFFFF;}
	.st2{fill:none;stroke:#FFFFFF;stroke-width:6;stroke-miterlimit:10;}
</style>
<g id="Layer_1">
	<g>
		<path class="st0" d="M416,364.7c0.1,0.4,0.1,0.6,0.1,0.8c-0.1,1.3-0.1,2.6-0.3,3.9c-0.5,3.1-2.1,4.9-5.3,5.4
			c-1.7,0.3-3.5,0.1-5.3,0.1c-0.6,0-1.2-0.3-1.8-0.6c-1.3-0.6-2-1.6-2.9-2.6c-0.9-1-1.9-1.9-3.2-2.3c-1.7-0.5-3.2-0.1-4.5,1.2
			c-1.1,1.2-1,2.6-0.4,4c0.6,1.4,1.6,2.5,2.8,3.4c3.2,2.5,7,3.5,10.9,3.8c3.2,0.2,6.4,0,9.5-0.7c2.2-0.5,4.3-1.5,6-3
			c2.2-2,3.3-4.7,3.7-7.6c0.3-2.4,0.5-4.8,0.5-7.2c0.1-4.9,0-9.8,0-14.8c0-3.2-0.1-6.5-0.2-9.7c-0.1-1.8-0.7-3.5-2.5-4.3
			c-2.2-1-5.3-0.7-6.3,2.5c-0.2,0.5-0.2,1.1-0.4,1.7c-0.3-0.3-0.6-0.5-0.8-0.7c-1.5-1.2-3-2.4-4.8-3c-2.7-1-5.5-1.2-8.4-0.6
			c-3,0.6-5.5,2-7.5,4.3c-3.1,3.5-3.9,7.8-3.9,12.3c0,1.8,0.3,3.7,0.7,5.4c0.8,3.7,2.6,6.9,5.7,9.2c1.5,1.1,3.1,2.2,5,2.5
			c1.9,0.4,3.8,0.7,5.8,0.4c1.9-0.3,3.7-0.8,5.2-1.9C414.2,366.1,415,365.4,416,364.7z M315.1,353.8c0.3,0.4,0.5,0.6,0.7,0.8
			c1.9,3.1,3.8,6.3,5.8,9.4c1,1.5,2.2,3,3.3,4.4c1.1,1.4,3.7,1.7,5.7,0.2c1.6-1.3,2.1-3.8,1.1-5.5c-1.7-2.7-3.5-5.5-5.2-8.2
			c-1.4-2.2-2.8-4.3-4.3-6.5c-0.5-0.7-0.5-0.9,0.2-1.5c0.9-0.8,1.9-1.6,2.8-2.5c1.4-1.2,2.8-2.5,3.8-4.1c0.6-1,0.8-2,0.4-3.1
			c-0.9-2.6-4.8-3.9-7.1-2c-0.9,0.7-1.7,1.5-2.6,2.3c-2.5,2.6-5,5.2-7.5,7.7c-0.3,0.3-0.6,0.6-1.1,1c0-0.6,0-1,0-1.4
			c0-5.9,0-11.8,0-17.8c0-2.4-1-4.3-3.4-5.1c-2.7-0.9-5.2,0-6,2.9c-0.2,0.8-0.3,1.7-0.3,2.5c0,12.2,0,24.3,0,36.5c0,0.4,0,0.7,0,1.1
			c0.2,2.8,3.3,5.6,6.5,4.3c1.9-0.7,3-2.4,3.1-4.6c0.1-2,0-4.1,0-6.1c0-0.4,0.1-1,0.4-1.3C312.6,356.1,313.8,355,315.1,353.8z
			 M255.9,351.9c-0.1-1.2-0.2-2.4-0.4-3.6c-1-5.8-4.2-10-9.6-12.4c-5.2-2.3-10.5-2.4-15.8-0.3c-3.1,1.2-5.6,3.3-7.3,6.2
			c-2.5,4.3-3.1,8.9-2.2,13.7c0.7,3.9,2.5,7.1,5.5,9.7c3,2.6,6.5,4,10.4,4.3c2.1,0.1,4.2,0,6.3-0.5c4.4-1,7.9-3.3,10.4-7.1
			C255.2,358.8,256,355.5,255.9,351.9z M295.1,351.8c-0.1-1.2-0.2-2.5-0.4-3.7c-0.6-4.1-2.6-7.5-5.9-10.1c-2.7-2.1-5.7-3.3-9.1-3.7
			c-4.2-0.5-8.1,0-11.9,2c-4.6,2.4-6.9,6.3-7.9,11.1c-0.5,2.2-0.6,4.5-0.3,6.8c0.4,2.9,1.2,5.6,3,8c3.3,4.5,7.9,6.9,13.5,7.3
			c3.8,0.2,7.4-0.4,10.8-2.2c3.1-1.7,5.2-4.2,6.6-7.3C294.6,357.3,295.1,354.6,295.1,351.8z M362.9,338.4c-0.1-0.1-0.2-0.1-0.2-0.1
			c0-0.1-0.1-0.2-0.1-0.3c-0.3-1.5-1.2-2.5-2.5-3.2c-2.3-1.3-6-0.5-6.4,2.9c-0.1,0.7-0.2,1.3-0.2,2c0,5.6,0,11.2,0,16.8
			c0,2.4,0,4.7,0,7.1c0,1.8,0.6,3.4,2,4.7c2.6,2.3,6.7,1.2,7.5-2.2c0.2-1,0.3-2.1,0.3-3.1c0.1-4.8-0.2-9.7,0.2-14.5
			c0.3-3.9,3.5-7.2,7.6-6.8c2.5,0.2,3.2,0.7,3.9,3c0.5,1.7,0.6,3.4,0.7,5.1c0.1,4.8,0,9.5,0,14.3c0,1.3,0.3,2.4,1.1,3.5
			c1.3,1.6,3.3,2.4,5.2,1.9c2.1-0.6,3.3-2.3,3.3-4.7c0-6.3,0-12.6,0-18.8c0-0.9-0.1-1.8-0.3-2.7c-0.5-2.3-1.6-4.4-3.4-5.9
			c-2.7-2.1-5.7-3.1-9.1-3c-3.4,0.1-6.4,1.3-8.9,3.6C363.5,338,363.2,338.2,362.9,338.4z M199.6,334.2c-2.5-0.2-4.9,0.3-7.2,1.2
			c-2.7,1-5,2.6-6.7,4.9c-2,2.7-3.1,5.6-3.5,8.9c-0.4,3.6-0.1,7.2,1.4,10.6c1.8,4.2,5,6.9,9.1,8.5c2.9,1.1,5.8,1.4,8.9,1.1
			c2.7-0.2,5.3-0.8,7.7-2c2.9-1.5,5.2-3.6,6.2-6.8c0.7-2,0.2-3.6-1.3-5c-1.6-1.3-4.2-1.9-6,0.4c-0.4,0.5-0.7,1.1-1.1,1.6
			c-0.7,0.9-1.4,1.9-2.2,2.7c-2.4,2.3-5.2,2.3-8.2,1.4c-1.9-0.6-3.1-2.2-3.8-4c-1.1-2.7-1.3-5.6-0.7-8.5c0.3-1.6,0.9-3,1.8-4.4
			c2-2.8,4.7-3.3,7.8-2.9c1.3,0.2,2.5,0.8,3.4,1.8c0.6,0.7,1.1,1.4,1.7,2c0.7,0.7,1.4,1.4,2.1,2.1c1.1,1,2.3,1,3.6,0.6
			c1.9-0.6,3.1-2.5,2.8-4.4c-0.1-0.6-0.3-1.2-0.6-1.8c-1.4-2.9-3.8-4.7-6.6-6.1C205.6,334.7,202.7,334,199.6,334.2z M346.1,352.1
			c0-4.2,0-8.4,0-12.6c0-3.5-3-5.6-5.9-5.3c-1.3,0.1-2.3,0.8-3,1.9c-0.6,1.1-0.9,2.2-0.9,3.4c0,5.9,0,11.8,0,17.8c0,2.2,0,4.3,0,6.5
			c0,2.3,1,4,3,5.1c2,1.1,4.7,0.5,5.9-1.3c0.6-1,1-2.1,1-3.4C346.1,360.2,346.1,356.1,346.1,352.1z"/>
		<path class="st0" d="M234.3,389.8c-0.2-0.5-0.4-0.8-0.5-1.1c-0.7-1.5-3.2-2.8-5.3-2c-1.5,0.6-2.4,1.9-2.4,3.9c0,7.1,0,14.2,0,21.4
			c0,2.7,1.9,4.4,3.9,4.9c1.5,0.4,3.4-0.5,4.1-1.8c0.7-1.2,0.8-2.4,0.8-3.7c0-3.8,0-7.6,0-11.4c0-1.8,0.4-3.5,1.3-5.1
			c0.2-0.3,0.4-0.7,0.7-0.9c1.2-0.8,2.5-1.1,3.9-1c1.2,0.1,2,0.6,2.2,1.8c0.2,1,0.4,2,0.4,2.9c0,4.6,0,9.3,0,13.9
			c0,2.3,0.9,4,3.1,4.9c1.7,0.8,3.8,0.2,4.9-1.4c0.7-1.1,0.9-2.3,0.9-3.5c0-4,0-8,0-12c0-2.2,0.5-4.2,2.4-5.6c1.3-1,2.9-1.4,4.4-0.7
			c1.4,0.6,1.5,1.9,1.6,3.2c0,0.3,0,0.6,0,0.8c0,1,0,2.1,0,3.1c0,3.6,0,7.2,0,10.8c0,2.1,0.7,3.9,2.6,5c2,1.1,4.7,0.5,5.7-1.7
			c0.4-0.8,0.5-1.6,0.5-2.4c0-5.1,0-10.2,0-15.2c0-1-0.1-1.9-0.2-2.9c-0.2-2.7-1.6-4.6-3.8-5.9c-3.9-2.5-9.3-2.4-13.1,0.5
			c-0.6,0.5-1.2,1-1.9,1.5c-2.1-2.6-4.8-3.7-8-3.8C239.6,386.4,236.8,387.6,234.3,389.8z M316.7,389.8c-0.8-2.2-2.3-3.2-4.5-3.3
			c-1.9,0-3.3,1.2-3.6,3.2c-0.1,1-0.2,2-0.2,3c0,5.4,0,10.8,0,16.2c0,1.3,0.1,2.5,0.2,3.8c0.1,2.3,2,3.9,3.8,4.2
			c1.2,0.3,2.4,0,3.3-0.9c1-1,1.5-2.1,1.5-3.5c0-3.6,0-7.1,0-10.7c0-1.2,0.1-2.3,0.3-3.5c0.1-0.7,0.3-1.5,0.5-2.2
			c0.7-2.4,2.8-3.3,5.4-3c1.6,0.2,2.1,0.9,2.3,2.5c0.1,1.2,0.2,2.5,0.2,3.7c0,4.1,0,8.2,0,12.2c0,0.8,0.1,1.5,0.3,2.2
			c0.6,2.4,4.6,4.7,7.2,1.9c0.8-0.9,1.2-1.9,1.2-3c0.1-4.7-0.2-9.4,0.2-14c0.3-2.9,1.7-5.1,4.6-5.5c2.2-0.3,3.2,0.6,3.5,2.3
			c0.2,0.9,0.3,1.9,0.3,2.9c0,4.6,0,9.1,0,13.7c0,2.7,1.4,4.2,3.8,4.9c1.9,0.5,4.1-0.6,4.6-2.5c0.3-0.9,0.4-1.8,0.4-2.7
			c0.1-2.2,0.1-4.4,0-6.6c-0.1-3.4,0.1-6.8-0.2-10.2c-0.3-3.4-2-5.8-5-7.2c-4.1-2.1-9.5-1.5-12.9,1.9c-0.3,0.3-0.7,0.5-1,0.7
			C328.8,385.3,321.7,385.4,316.7,389.8z M295.3,413.3c0.3,0.4,0.6,0.8,0.9,1.2c0.9,1.1,1.8,2,3.2,2.4c2,0.6,4.5-1.2,4.4-3.3
			c0-0.8-0.2-1.6-0.5-2.3c-0.5-1.6-0.8-3.2-0.8-4.9c0-3.6,0.2-7.3-0.2-10.9c-0.3-2.4-1-4.6-3-6.2c-1.4-1.1-2.9-1.8-4.6-2.2
			c-2.9-0.7-5.9-0.6-8.8-0.4c-2.3,0.1-4.4,0.8-6.4,2c-1.8,1.1-3.2,2.5-3.8,4.5c-0.9,2.9,1.2,4.5,3.1,4.9c1.3,0.3,2.6,0,3.4-1.4
			c0.3-0.6,0.7-1.1,1.1-1.6c0.7-0.9,1.4-1.6,2.5-2c2.1-0.8,4.3-0.7,6.5-0.1c0.6,0.2,1,0.6,1.2,1.2c0.4,0.9,0.6,1.9,0.6,2.9
			c-0.3,0.1-0.5,0.2-0.8,0.3c-3.2,0.7-6.4,1.5-9.6,2.2c-1.8,0.4-3.6,0.8-5.2,1.6c-3.3,1.7-4.8,5.1-4,8.8c0.6,2.7,2.3,4.5,4.7,5.8
			c3.9,2,7.9,1.7,11.8,0C292.4,415,293.8,414.1,295.3,413.3z M377.6,413.2c0.9,1,1.7,1.9,2.6,2.7c1.9,1.7,4,1.1,5.4-0.4
			c0.7-0.7,1-1.6,0.7-2.6c-0.2-0.6-0.3-1.3-0.5-2c-0.5-1.7-0.8-3.5-0.8-5.3c0-3,0-5.9,0-8.9c0-1.4-0.3-2.8-0.7-4.1
			c-0.4-1.3-1.1-2.3-2.1-3.2c-1.5-1.3-3.2-2.1-5.1-2.5c-2.3-0.5-4.7-0.5-7-0.5c-2.3,0-4.5,0.5-6.5,1.3c-2,0.8-3.7,1.9-4.7,3.9
			c-1.4,2.7-1,4.6,1.3,5.9c1.5,0.8,3.1,0.6,4.2-0.7c0.4-0.4,0.7-0.9,1-1.4c1-1.6,2.4-2.7,4.3-2.9c1.5-0.2,3.1-0.2,4.6,0.1
			c0.7,0.2,1.3,0.5,1.5,1.2c0.3,0.8,0.5,1.6,0.7,2.4c0.1,0.5-0.1,0.9-0.7,1c-2.8,0.6-5.6,1.3-8.4,1.9c-1.7,0.4-3.5,0.7-5.1,1.2
			c-5.1,1.8-7.1,7-4.5,11.5c1.2,2.1,3,3.5,5.3,4.3c2,0.7,4,0.8,6.1,0.5c2.4-0.3,4.6-1.2,6.7-2.5C376.4,414,377,413.6,377.6,413.2z"
			/>
		<path class="st1" d="M416,364.7c-1,0.7-1.8,1.4-2.6,2c-1.6,1.1-3.4,1.6-5.2,1.9c-2,0.4-3.9,0-5.8-0.4c-1.9-0.4-3.5-1.4-5-2.5
			c-3.1-2.3-4.8-5.5-5.7-9.2c-0.4-1.8-0.7-3.6-0.7-5.4c0-4.5,0.9-8.8,3.9-12.3c2-2.3,4.5-3.7,7.5-4.3c2.8-0.6,5.6-0.4,8.4,0.6
			c1.8,0.7,3.4,1.8,4.8,3c0.3,0.2,0.5,0.5,0.8,0.7c0.1-0.6,0.2-1.2,0.4-1.7c1-3.2,4.1-3.5,6.3-2.5c1.9,0.8,2.4,2.5,2.5,4.3
			c0.1,3.2,0.2,6.5,0.2,9.7c0,4.9,0.1,9.8,0,14.8c0,2.4-0.2,4.8-0.5,7.2c-0.4,2.9-1.5,5.6-3.7,7.6c-1.7,1.6-3.8,2.5-6,3
			c-3.1,0.7-6.3,1-9.5,0.7c-4-0.3-7.7-1.3-10.9-3.8c-1.2-0.9-2.2-2-2.8-3.4c-0.6-1.4-0.6-2.8,0.4-4c1.2-1.4,2.7-1.7,4.5-1.2
			c1.3,0.4,2.3,1.3,3.2,2.3c0.9,1,1.7,2.1,2.9,2.6c0.6,0.3,1.2,0.6,1.8,0.6c1.8,0.1,3.5,0.2,5.3-0.1c3.1-0.5,4.8-2.3,5.3-5.4
			c0.2-1.3,0.2-2.6,0.3-3.9C416.1,365.3,416.1,365.1,416,364.7z M408.2,361.4c0.7-0.1,1.5-0.1,2.2-0.3c2.8-0.9,4.6-2.9,5.4-5.6
			c0.5-1.7,0.7-3.5,0.4-5.3c-0.2-1.6-0.4-3.1-1-4.5c-1.3-2.8-3.5-4.2-6.5-4.2c-3.2,0.1-5.6,1.6-6.9,4.9c-0.5,1.3-0.7,2.6-0.8,4
			c-0.2,2.1-0.1,4.2,0.6,6.2C402.7,359.5,404.7,361.5,408.2,361.4z"/>
		<path class="st1" d="M315.1,353.8c-1.3,1.2-2.5,2.3-3.7,3.4c-0.3,0.3-0.4,0.9-0.4,1.3c0,2,0,4.1,0,6.1c-0.1,2.2-1.2,3.8-3.1,4.6
			c-3.1,1.2-6.3-1.5-6.5-4.3c0-0.4,0-0.7,0-1.1c0-12.2,0-24.3,0-36.5c0-0.8,0.1-1.7,0.3-2.5c0.8-2.9,3.3-3.8,6-2.9
			c2.4,0.8,3.4,2.7,3.4,5.1c0,5.9,0,11.8,0,17.8c0,0.4,0,0.8,0,1.4c0.5-0.5,0.8-0.7,1.1-1c2.5-2.6,5-5.2,7.5-7.7
			c0.8-0.8,1.7-1.6,2.6-2.3c2.3-2,6.2-0.6,7.1,2c0.4,1.1,0.2,2.1-0.4,3.1c-1,1.6-2.4,2.9-3.8,4.1c-0.9,0.8-1.9,1.6-2.8,2.5
			c-0.7,0.6-0.7,0.8-0.2,1.5c1.4,2.2,2.9,4.3,4.3,6.5c1.8,2.7,3.5,5.4,5.2,8.2c1.1,1.7,0.6,4.3-1.1,5.5c-2,1.5-4.6,1.2-5.7-0.2
			c-1.1-1.4-2.3-2.9-3.3-4.4c-2-3.1-3.9-6.2-5.8-9.4C315.6,354.3,315.4,354.1,315.1,353.8z"/>
		<path class="st1" d="M255.9,351.9c0,3.6-0.8,6.9-2.7,10c-2.4,3.8-5.9,6.2-10.4,7.1c-2.1,0.5-4.2,0.6-6.3,0.5
			c-3.9-0.3-7.4-1.8-10.4-4.3c-3-2.6-4.8-5.8-5.5-9.7c-0.9-4.8-0.3-9.4,2.2-13.7c1.7-2.9,4.1-4.9,7.3-6.2c5.3-2.1,10.6-2.1,15.8,0.3
			c5.4,2.4,8.6,6.6,9.6,12.4C255.8,349.5,255.8,350.7,255.9,351.9z M246,351.7c0-2.4-0.3-4.8-1.5-6.9c-0.7-1.3-1.6-2.3-3-2.8
			c-4.4-1.6-9-0.1-10.6,5.2c-0.8,2.5-0.9,5.1-0.5,7.7c0.3,1.7,0.9,3.4,1.9,4.8c0.6,0.8,1.2,1.5,2.1,1.9c3.4,1.6,8.2,0.5,10.1-3.4
			C245.6,356.1,246,354,246,351.7z"/>
		<path class="st1" d="M295.1,351.8c0,2.8-0.5,5.5-1.6,8.1c-1.4,3.1-3.6,5.6-6.6,7.3c-3.4,1.8-7,2.5-10.8,2.2
			c-5.6-0.4-10.1-2.7-13.5-7.3c-1.7-2.4-2.6-5.1-3-8c-0.3-2.3-0.2-4.6,0.3-6.8c1-4.8,3.4-8.7,7.9-11.1c3.8-1.9,7.7-2.4,11.9-2
			c3.4,0.4,6.4,1.6,9.1,3.7c3.3,2.6,5.3,5.9,5.9,10.1C294.9,349.4,295,350.6,295.1,351.8z M285.1,351.7c0.1-2.1-0.2-4.1-1-6
			c-0.9-2-2.2-3.5-4.6-4c-3.9-0.9-7.8,0.7-9.3,5c-1.1,3.2-1.1,6.4-0.3,9.6c0.5,1.9,1.3,3.5,2.9,4.7c2.1,1.6,5.9,1.6,8.3,0.1
			c1.8-1.2,2.9-2.9,3.5-4.9C285,354.8,285.2,353.2,285.1,351.7z"/>
		<path class="st1" d="M362.9,338.4c0.2-0.2,0.5-0.4,0.8-0.6c2.5-2.3,5.5-3.5,8.9-3.6c3.4-0.1,6.5,0.9,9.1,3
			c1.9,1.5,2.9,3.6,3.4,5.9c0.2,0.9,0.3,1.8,0.3,2.7c0,6.3,0,12.6,0,18.8c0,2.4-1.2,4.1-3.3,4.7c-1.9,0.5-3.9-0.3-5.2-1.9
			c-0.8-1-1.1-2.2-1.1-3.5c0-4.8,0-9.5,0-14.3c0-1.7-0.1-3.4-0.7-5.1c-0.7-2.2-1.4-2.7-3.9-3c-4.1-0.4-7.3,2.9-7.6,6.8
			c-0.4,4.8-0.1,9.7-0.2,14.5c0,1,0,2.1-0.3,3.1c-0.8,3.4-4.9,4.5-7.5,2.2c-1.4-1.3-2-2.9-2-4.7c0-2.4,0-4.7,0-7.1
			c0-5.6,0-11.2,0-16.8c0-0.7,0.1-1.4,0.2-2c0.5-3.5,4.1-4.3,6.4-2.9c1.3,0.7,2.2,1.7,2.5,3.2c0,0.1,0.1,0.2,0.1,0.3
			C362.8,338.3,362.8,338.4,362.9,338.4z"/>
		<path class="st1" d="M199.6,334.2c3.1-0.2,6,0.5,8.7,1.8c2.7,1.4,5.2,3.2,6.6,6.1c0.3,0.6,0.5,1.2,0.6,1.8
			c0.3,1.9-0.8,3.7-2.8,4.4c-1.3,0.4-2.5,0.4-3.6-0.6c-0.7-0.7-1.4-1.4-2.1-2.1c-0.6-0.6-1.1-1.3-1.7-2c-0.9-1.1-2.1-1.7-3.4-1.8
			c-3.1-0.4-5.9,0.1-7.8,2.9c-1,1.3-1.5,2.8-1.8,4.4c-0.6,2.9-0.4,5.7,0.7,8.5c0.7,1.9,1.9,3.4,3.8,4c2.9,0.9,5.8,0.9,8.2-1.4
			c0.8-0.8,1.5-1.7,2.2-2.7c0.4-0.5,0.7-1.1,1.1-1.6c1.9-2.3,4.5-1.8,6-0.4c1.6,1.3,2,3,1.3,5c-1.1,3.2-3.3,5.3-6.2,6.8
			c-2.4,1.2-5,1.8-7.7,2c-3.1,0.3-6.1-0.1-8.9-1.1c-4.2-1.5-7.3-4.3-9.1-8.5c-1.5-3.4-1.8-6.9-1.4-10.6c0.4-3.3,1.5-6.3,3.5-8.9
			c1.7-2.3,4-3.9,6.7-4.9C194.8,334.5,197.2,334,199.6,334.2z"/>
		<path class="st1" d="M346.1,352.1c0,4,0,8.1,0,12.1c0,1.3-0.4,2.4-1,3.4c-1.1,1.8-3.9,2.4-5.9,1.3c-2-1.1-3-2.9-3-5.1
			c0-2.2,0-4.3,0-6.5c0-5.9,0-11.8,0-17.8c0-1.2,0.2-2.4,0.9-3.4c0.7-1.1,1.8-1.8,3-1.9c3-0.3,5.9,1.8,5.9,5.3
			C346.1,343.7,346.1,347.9,346.1,352.1z"/>
		<path class="st1" d="M234.3,389.8c2.5-2.2,5.3-3.4,8.5-3.3c3.2,0.1,5.9,1.3,8,3.8c0.7-0.5,1.3-1,1.9-1.5c3.7-3,9.1-3,13.1-0.5
			c2.2,1.4,3.6,3.3,3.8,5.9c0.1,1,0.2,1.9,0.2,2.9c0,5.1,0,10.2,0,15.2c0,0.9-0.2,1.7-0.5,2.4c-1,2.2-3.8,2.8-5.7,1.7
			c-2-1.1-2.6-2.9-2.6-5c0-3.6,0-7.2,0-10.8c0-1,0-2.1,0-3.1c0-0.3,0-0.6,0-0.8c-0.1-1.3-0.3-2.7-1.6-3.2c-1.5-0.6-3-0.3-4.4,0.7
			c-1.9,1.4-2.3,3.5-2.4,5.6c-0.1,4,0,8,0,12c0,1.2-0.2,2.5-0.9,3.5c-1.1,1.6-3.2,2.1-4.9,1.4c-2.2-1-3.1-2.6-3.1-4.9
			c0-4.6,0-9.3,0-13.9c0-1-0.2-2-0.4-2.9c-0.3-1.2-1.1-1.7-2.2-1.8c-1.4-0.1-2.7,0.2-3.9,1c-0.3,0.2-0.6,0.6-0.7,0.9
			c-0.9,1.6-1.3,3.3-1.3,5.1c-0.1,3.8,0,7.6,0,11.4c0,1.3-0.2,2.5-0.8,3.7c-0.8,1.3-2.6,2.2-4.1,1.8c-2-0.5-4-2.3-3.9-4.9
			c0-7.1,0-14.2,0-21.4c0-2,0.9-3.3,2.4-3.9c2.1-0.8,4.5,0.5,5.3,2C233.9,389,234.1,389.3,234.3,389.8z"/>
		<path class="st1" d="M316.7,389.8c5-4.4,12.1-4.4,16.6,0.5c0.3-0.2,0.7-0.5,1-0.7c3.4-3.4,8.8-4,12.9-1.9c2.9,1.5,4.7,3.8,5,7.2
			c0.3,3.4,0.1,6.8,0.2,10.2c0,2.2,0.1,4.4,0,6.6c0,0.9-0.2,1.8-0.4,2.7c-0.6,1.8-2.8,3-4.6,2.5c-2.4-0.7-3.8-2.2-3.8-4.9
			c-0.1-4.6,0-9.1,0-13.7c0-1-0.1-1.9-0.3-2.9c-0.4-1.7-1.4-2.6-3.5-2.3c-2.8,0.4-4.3,2.6-4.6,5.5c-0.4,4.7-0.1,9.3-0.2,14
			c0,1.2-0.4,2.2-1.2,3c-2.7,2.8-6.6,0.5-7.2-1.9c-0.2-0.7-0.3-1.5-0.3-2.2c0-4.1,0-8.2,0-12.2c0-1.2-0.1-2.5-0.2-3.7
			c-0.2-1.6-0.8-2.2-2.3-2.5c-2.6-0.4-4.7,0.6-5.4,3c-0.2,0.7-0.4,1.5-0.5,2.2c-0.2,1.1-0.3,2.3-0.3,3.5c0,3.6,0,7.1,0,10.7
			c0,1.4-0.5,2.6-1.5,3.5c-1,0.9-2.1,1.2-3.3,0.9c-1.8-0.4-3.7-1.9-3.8-4.2c-0.1-1.3-0.2-2.5-0.2-3.8c0-5.4,0-10.8,0-16.2
			c0-1,0.1-2,0.2-3c0.2-1.9,1.6-3.2,3.6-3.2C314.4,386.5,315.9,387.6,316.7,389.8z"/>
		<path class="st1" d="M295.3,413.3c-1.5,0.8-2.9,1.7-4.4,2.4c-3.9,1.7-7.9,2.1-11.8,0c-2.3-1.2-4.1-3.1-4.7-5.8
			c-0.8-3.7,0.7-7.1,4-8.8c1.7-0.8,3.5-1.2,5.2-1.6c3.2-0.7,6.4-1.4,9.6-2.2c0.3-0.1,0.5-0.2,0.8-0.3c0-1-0.2-2-0.6-2.9
			c-0.2-0.6-0.6-1.1-1.2-1.2c-2.2-0.5-4.3-0.6-6.5,0.1c-1,0.4-1.8,1.1-2.5,2c-0.4,0.5-0.8,1-1.1,1.6c-0.8,1.4-2,1.7-3.4,1.4
			c-1.9-0.4-4-2-3.1-4.9c0.7-2.1,2-3.5,3.8-4.5c2-1.1,4.1-1.8,6.4-2c2.9-0.2,5.9-0.3,8.8,0.4c1.7,0.4,3.3,1.1,4.6,2.2
			c2,1.6,2.7,3.7,3,6.2c0.4,3.6,0.2,7.3,0.2,10.9c0,1.7,0.3,3.3,0.8,4.9c0.2,0.8,0.4,1.6,0.5,2.3c0.1,2.1-2.4,3.9-4.4,3.3
			c-1.4-0.4-2.3-1.3-3.2-2.4C295.9,414,295.6,413.6,295.3,413.3z M293.9,402.8c-2.2,0.5-4.3,0.9-6.3,1.5c-1,0.3-2.1,0.5-3,1
			c-1.7,0.8-2,2.4-1.4,4.2c0.3,0.9,1,1.5,2,1.7c2.1,0.4,4,0.1,5.7-1c1-0.6,2-1.4,2.5-2.5C294.1,406,294.1,404.4,293.9,402.8z"/>
		<path class="st1" d="M377.6,413.2c-0.6,0.4-1.2,0.8-1.7,1.1c-2,1.3-4.2,2.1-6.7,2.5c-2.1,0.3-4.1,0.2-6.1-0.5
			c-2.3-0.8-4.1-2.2-5.3-4.3c-2.6-4.5-0.5-9.8,4.5-11.5c1.6-0.6,3.4-0.8,5.1-1.2c2.8-0.6,5.6-1.3,8.4-1.9c0.6-0.1,0.9-0.5,0.7-1
			c-0.2-0.8-0.4-1.6-0.7-2.4c-0.3-0.7-0.8-1-1.5-1.2c-1.5-0.3-3.1-0.3-4.6-0.1c-1.9,0.2-3.3,1.3-4.3,2.9c-0.3,0.5-0.6,0.9-1,1.4
			c-1.1,1.3-2.7,1.5-4.2,0.7c-2.3-1.3-2.7-3.2-1.3-5.9c1-2,2.8-3.1,4.7-3.9c2.1-0.8,4.3-1.3,6.5-1.3c2.4,0,4.7,0,7,0.5
			c1.9,0.4,3.6,1.2,5.1,2.5c1,0.8,1.7,1.9,2.1,3.2c0.4,1.3,0.7,2.7,0.7,4.1c0,3,0,5.9,0,8.9c0,1.8,0.3,3.6,0.8,5.3
			c0.2,0.6,0.3,1.3,0.5,2c0.3,1,0,1.9-0.7,2.6c-1.4,1.5-3.5,2.1-5.4,0.4C379.3,415.1,378.5,414.2,377.6,413.2z M376.5,402.7
			c-1.9,0.4-3.7,0.8-5.4,1.2c-1.1,0.3-2.2,0.5-3.2,0.8c-0.9,0.3-1.8,0.7-2.2,1.7c-1,2.1,0.2,4.4,2.5,4.7c2.4,0.3,4.6-0.3,6.4-1.9
			C376.5,407.5,376.6,405.2,376.5,402.7z"/>
	</g>
</g>
<g id="Layer_2">
	<g>
		<path class="st1" d="M306,315.7c1.6,0,3.1,0.3,4.6,1c3.3,1.5,5.2,4.2,5.9,7.7c0.2,1.2,0.3,2.4,0.4,3.6c2.3-1.2,4.5-1.8,6.6-1.8
			c3.5,0,6.6,1.7,9.4,5.3c0.3-0.2,0.7-0.4,1-0.7c1.9-1.7,4.2-2.4,6.7-2.4c0.1,0,0.2,0,0.3,0c2,0,3.9,0.4,5.7,1.5
			c1,0.6,1.9,1.4,2.9,2.2c0.1,0,0.3-0.1,0.4-0.3c1.2-1.5,2.8-2.5,4.6-3c1.2-0.3,2.4-0.5,3.6-0.5c1.6,0,3.3,0.4,4.8,1.3
			c0.5,0.3,0.9,0.4,1.4,0.4c0.4,0,0.8-0.1,1.3-0.3c2.4-0.9,4.9-1.4,7.4-1.4c2.1,0,4.2,0.3,6.4,0.9c3.7,1.1,6.7,3.4,8.9,6.6
			c0.2,0.2,0.3,0.4,0.6,0.7c0.3-0.2,0.5-0.4,0.7-0.6c3.3-4.1,7.5-6.5,12.7-7.3c1.2-0.2,2.4-0.3,3.6-0.3c2.7,0,5.4,0.5,7.9,1.5
			c0.3,0.1,0.5,0.2,0.8,0.2c0.3,0,0.6-0.1,1-0.3c1.4-0.9,2.8-1.4,4.5-1.4c0.1,0,0.2,0,0.3,0c1,0,2.1,0,3.1,0.2
			c4.1,0.8,6.6,3.3,7.6,7.3c0.5,1.9,0.8,3.9,0.8,5.8c0.1,8,0.1,15.9,0,23.9c0,3.7-0.6,7.3-1.9,10.8c-1.6,4.1-4.4,7.2-8.4,9.1
			c-3.1,1.5-6.3,2.3-9.7,2.5c-1.5,0.1-3.1,0.2-4.6,0.2c-0.3,0-0.6,0-0.9,0c-5.2-0.2-10.1-1.4-14.5-4.4c-2.9-2-4.9-4.7-5.7-8.1
			c-0.1-0.3-0.2-0.7-0.4-1.1c-1.7,0.9-3.5,1.3-5.3,1.3c-0.6,0-1.2,0-1.8-0.1c-2.5-0.4-4.5-1.6-6.3-3.4c-1.8-1.8-2.4-4.2-2.9-6.6
			c-0.1,0-0.2,0-0.3,0c-0.1,0.4-0.2,0.9-0.3,1.3c-0.9,4.3-3.3,7.2-7.5,8.4c-1.2,0.3-2.3,0.5-3.4,0.5c-2.8,0-5.4-1.1-7.6-3.4
			c-0.2-0.2-0.5-0.5-0.7-0.8c-0.8,0.7-1.6,1.4-2.4,2.1c-1.7,1.3-4.1,2-6.4,2c-2,0-4-0.5-5.6-1.6c-0.4-0.3-0.8-0.4-1.1-0.4
			c-0.3,0-0.7,0.1-1.1,0.4c-1.6,1.1-3.7,1.6-5.7,1.6c-2.4,0-4.8-0.8-6.7-2.4c-1.3-1.2-2.3-2.8-3.5-4.3c-0.2-0.3-0.4-0.6-0.8-1.1
			c-1.9,4.9-5.3,7.7-10.5,7.8c-0.1,0-0.1,0-0.2,0c-5.2,0-8.4-2.8-10.2-7.7c-0.3,0.2-0.6,0.4-0.8,0.6c-3.5,3.6-7.8,5.9-12.7,6.7
			c-1.6,0.3-3.2,0.4-4.9,0.4c-1.1,0-2.2-0.1-3.4-0.2c-3-0.3-5.7-1.1-8.3-2.5c-2.9-1.5-5.4-3.5-7.4-6.1c-0.1-0.2-0.3-0.3-0.6-0.6
			c-4.9,6.4-11.3,9.2-19.1,9.4c-0.2,0-0.4,0-0.7,0c-7.5,0-13.8-2.7-18.8-8.6c-0.2,0.2-0.5,0.4-0.7,0.6c-1.3,1.8-3.1,3.1-5,4.3
			c-2.6,1.6-5.5,2.7-8.5,3.1c-2.2,0.3-4.4,0.2-6.6,0.3c-0.2,0-0.4,0-0.6,0c-3.4,0-6.7-0.9-9.8-2.4c-5-2.5-8.4-6.5-10.4-11.7
			c-0.6-1.6-0.9-3.3-1.2-5c-0.3-1.5-0.3-2.9-0.4-4.4c-0.1-1.5,0.3-2.9,0.5-4.4c0.6-3.6,1.8-6.9,3.9-9.8c2.9-4.1,6.8-6.9,11.6-8.3
			c2-0.6,4-0.9,6.1-1c0.7-0.1,1.5-0.1,2.2-0.1c3.8,0,7.4,0.8,10.9,2.4c2.5,1.2,4.8,2.8,6.6,4.9c0.3,0.3,0.6,0.6,0.9,1
			c0.1,0.1,0.2,0.1,0.4,0.2c0.2-0.2,0.5-0.4,0.7-0.6c3.4-4.1,7.9-6.5,13.1-7.4c1.9-0.3,3.7-0.5,5.6-0.5c4,0,7.9,0.8,11.6,2.8
			c2.7,1.4,5,3.3,6.9,5.7c0.2,0.3,0.5,0.5,0.8,0.8c0.5-0.6,1-1.1,1.5-1.6c1.5-1.9,3.5-3.4,5.6-4.6c3.6-2,7.5-3,11.7-3
			c0.1,0,0.2,0,0.4,0c3.7,0,7.2,0.5,10.6,1.9c2.5,1.1,4.8,2.6,6.7,4.5c0.2,0.2,0.4,0.4,0.6,0.6c0.1,0,0.1,0.1,0.2,0.1
			c0.4-0.3,0.3-0.8,0.3-1.2c0-2.4,0-4.8,0-7.2c0.1-3.4,1.2-6.4,3.7-8.8c1.5-1.4,3.4-2.1,5.4-2.4C304.9,315.7,305.5,315.7,306,315.7
			 M306,310.2c-0.8,0-1.7,0.1-2.5,0.2c-3.3,0.5-6.1,1.7-8.3,3.8c-3.2,2.9-5,6.7-5.5,11.1c-0.1,0-0.2-0.1-0.3-0.1
			c-3.8-1.6-7.9-2.4-12.8-2.4l-0.4,0c-5.1,0-9.9,1.3-14.3,3.7c-1.7,0.9-3.2,1.9-4.5,3.1c-1.5-1.3-3.2-2.5-5.1-3.4
			c-4.3-2.2-9.1-3.4-14.1-3.4c-2.1,0-4.3,0.2-6.5,0.6c-5,0.9-9.3,2.8-12.8,5.8c-1.6-1.4-3.5-2.5-5.5-3.4c-4.2-2-8.7-2.9-13.2-2.9
			c-0.9,0-1.7,0-2.6,0.1c-1.9,0.2-4.5,0.4-7.2,1.2c-6.1,1.8-11,5.3-14.6,10.5c-2.4,3.5-4,7.5-4.8,12.1c0,0.3-0.1,0.5-0.1,0.8
			c-0.2,1.3-0.5,3-0.4,4.9c0,0.3,0,0.6,0,0.9c0.1,1.3,0.1,2.7,0.5,4.3c0.1,0.4,0.2,0.7,0.2,1.1c0.3,1.4,0.6,3,1.2,4.6
			c2.4,6.7,6.8,11.6,13.1,14.8c4,2,8.1,3,12.2,3c0.3,0,0.5,0,0.8,0c0.5,0,1.1,0,1.6,0c1.8,0,3.6-0.1,5.5-0.3
			c3.7-0.5,7.3-1.8,10.6-3.9c0.9-0.5,1.8-1.1,2.8-1.9c5.2,4.2,11.5,6.4,18.8,6.4c0.3,0,0.5,0,0.8,0c7.5-0.2,13.8-2.5,18.9-6.9
			c1.6,1.4,3.5,2.6,5.5,3.6c3.3,1.6,6.7,2.7,10.2,3c1.3,0.1,2.6,0.2,3.9,0.2c2,0,3.9-0.2,5.8-0.5c4.1-0.7,7.9-2.2,11.2-4.5
			c2.9,3.2,6.9,4.9,11.6,4.9l0.2,0c4.2,0,7.8-1.4,10.7-4c0.1,0.1,0.2,0.2,0.3,0.2c2.8,2.5,6.4,3.9,10.3,3.9c2.4,0,4.7-0.5,6.8-1.5
			c2,0.9,4.3,1.4,6.7,1.4c3.2,0,6.2-0.9,8.7-2.4c2.5,1.6,5.4,2.5,8.4,2.5c1.6,0,3.3-0.2,4.9-0.7c2.5-0.7,4.7-1.9,6.5-3.6
			c2.5,2.2,5.3,3.6,8.4,4.1c0.9,0.1,1.8,0.2,2.6,0.2c0.6,0,1.3,0,1.9-0.1c1.4,2.8,3.6,5.2,6.4,7.1c4.9,3.4,10.6,5.2,17.4,5.4
			c0.4,0,0.7,0,1.1,0c1.2,0,2.4-0.1,3.6-0.1c0.4,0,0.9-0.1,1.3-0.1c4.2-0.2,8.2-1.2,11.8-3.1c5.2-2.6,8.9-6.7,11-12.1
			c1.5-3.8,2.2-8,2.3-12.7c0.1-7.3,0.1-15.1,0-24c0-2.3-0.3-4.7-0.9-7.1c-1.5-6.1-5.7-10.1-11.8-11.3c-1.2-0.2-2.3-0.2-3.2-0.2
			c-0.3,0-0.5,0-0.7,0c-0.2,0-0.4,0-0.5,0c-2,0-3.9,0.4-5.8,1.3c-2.7-0.9-5.5-1.3-8.4-1.3c-1.4,0-2.9,0.1-4.4,0.3
			c-4.7,0.7-8.8,2.5-12.3,5.3c-2.4-2.1-5.1-3.6-8.2-4.5c-2.6-0.8-5.3-1.2-7.9-1.2c-2.9,0-5.7,0.5-8.5,1.4c-2-0.9-4.2-1.4-6.4-1.4
			c-1.6,0-3.3,0.2-5,0.7c-1.3,0.4-2.6,0.9-3.8,1.6c-2.4-1.5-5.3-2.3-8.4-2.3c-0.1,0-0.3,0-0.4,0c-2.5,0-4.8,0.6-6.9,1.6
			c-3-2.5-6.4-3.7-10.1-3.7c-0.8,0-1.5,0.1-2.3,0.2c-1.5-4.2-4.3-7.3-8.3-9.1C310.7,310.7,308.4,310.2,306,310.2L306,310.2z"/>
	</g>
</g>
<g id="Layer_3">
	<g>
		<path class="st1" d="M371.3,381.3c1,0,2,0,3,0.1c2.6,0.2,5.2,0.6,7.6,1.7c1,0.4,1.9,0.9,2.7,1.5c1.3,0.9,2.4,2,3.2,3.3
			c0.6,0.9,1.2,2,1.6,3.2c0.8,2.2,1.2,4.5,1.2,6.9c0,2.9,0,5.8,0,8.8c0,1.1,0.2,2.1,0.5,3.1c0.3,1.1,0.5,2.2,0.8,3.3
			c1,4.9-2.8,9.6-7.3,10.6c-0.7,0.1-1.3,0.4-1.9,0.5c-0.2,0-0.5,0-0.7,0c-1.9,0-3.6-0.8-5.3-1.8c-0.3-0.2-0.6-0.3-0.9-0.3
			c-0.2,0-0.4,0.1-0.7,0.2c-1.6,0.8-3.3,1.1-5,1.4c-1.2,0.2-2.3,0.4-3.5,0.4c-0.2,0-0.4,0-0.6,0c-3.2-0.2-6.2-1-9-2.7
			c-0.2-0.1-0.3-0.2-0.5-0.3c-0.5-0.3-0.8-0.5-1-0.5c-0.3,0-0.5,0.2-0.9,0.7c-0.5,0.5-1.1,0.9-1.6,1.2c-1.7,1-3.5,1.7-5.4,1.7
			c-0.4,0-0.8,0-1.2-0.1c-2.7-0.4-5.2-1.5-7-3.8c-0.2-0.2-0.3-0.4-0.6-0.7c-2.2,3-5,4.6-8.6,4.6c0,0-0.1,0-0.1,0
			c-3.5,0-6.5-1.6-8.7-4.7c-1.4,1.6-2.6,3.1-4.5,3.8c-1.4,0.5-2.9,1.1-4.3,1.1c-0.4,0-0.8,0-1.3-0.1c-1.8-0.4-3.7-1-5.3-2.3
			c-1.4,1.2-3,1.8-4.7,2.2c-0.6,0.1-1.1,0.2-1.7,0.2c-0.6,0-1.1-0.1-1.7-0.2c-1.4-0.3-2.9-0.8-4-1.7c-0.1-0.1-0.2-0.1-0.4-0.1
			c-0.2,0-0.3,0-0.5,0.1c-2.1,1.1-4.5,1.4-6.8,1.8c-0.7,0.1-1.5,0.2-2.2,0.2c-0.9,0-1.8-0.1-2.8-0.4c-1.4-0.4-2.8-0.6-4.1-1.2
			c-1.4-0.6-2.7-1.4-4.1-2.2c-2,2.4-4.7,3.6-7.8,3.6c-0.2,0-0.3,0-0.5,0c-3.3-0.1-6.1-1.6-8.2-4.6c-1.5,1.9-3.2,3.3-5.4,4
			c-1.1,0.4-2.3,0.6-3.4,0.6c-1,0-2.1-0.2-3.1-0.5c-2.2-0.8-4-2.1-5.5-4.1c-0.3,0.3-0.6,0.6-0.8,0.8c-1.2,1.7-3,2.7-4.9,3.3
			c-0.9,0.3-1.9,0.6-2.9,0.6c-0.2,0-0.3,0-0.5,0c-3.5-0.4-6.5-1.7-8.5-4.9c-1.1-1.7-1.5-3.6-1.5-5.6c0-7.4,0-14.8,0-22.2
			c0-5.6,4.1-10,10-10c0.3,0,0.6,0,1,0c1.2,0.1,2.5,0.6,3.7,1c0.3,0.1,0.6,0.2,1,0.2c0.2,0,0.5,0,0.7-0.1c2-0.7,4-1.1,6.1-1.1
			c0.2,0,0.3,0,0.5,0c2.5,0.1,5,0.5,7.3,1.7c0.3,0.2,0.6,0.2,0.9,0.2c0.3,0,0.5-0.1,0.8-0.2c2.4-1.1,4.9-1.8,7.5-1.8
			c0.2,0,0.4,0,0.6,0c3.5,0.2,6.8,0.9,9.7,3.1c0.7,0.5,1.3,1.2,2,1.8c0.3,0.3,0.6,0.6,1,1c0.6-0.4,1.1-0.8,1.5-1.2
			c3.2-2.7,6.9-4,11-4.3c1.6-0.1,3.2-0.2,4.8-0.2c0.5,0,1,0,1.6,0c3.3,0.2,6.6,0.7,9.6,2.4c1,0.6,1.9,1.3,2.9,2
			c0.3-0.3,0.6-0.7,0.9-1c2-2.3,4.5-3.4,7.4-3.4c0.6,0,1.2,0.1,1.9,0.1c1,0.2,2,0.5,3,0.9c0.3,0.1,0.7,0.2,1,0.2
			c0.2,0,0.5,0,0.7-0.1c2-0.7,4-1.2,6.1-1.2c0,0,0.1,0,0.1,0c2.8,0,5.6,0.6,8.1,1.9c0.2,0.1,0.3,0.1,0.4,0.1c0.2,0,0.4-0.1,0.7-0.2
			c2.4-1.1,5-1.8,7.6-1.8c0.2,0,0.3,0,0.5,0c3,0.1,6,0.6,8.6,2.2c1.2,0.8,2.2,1.8,3.3,2.7c0.3,0.2,0.6,0.5,0.9,0.8
			c0.3-0.2,0.5-0.3,0.7-0.4c2.8-2.8,6.3-4.2,10.1-4.9C367.5,381.5,369.4,381.3,371.3,381.3 M371.3,375.8c-2.5,0-4.7,0.2-6.7,0.6
			c-3.7,0.7-6.8,1.9-9.4,3.6c-0.5-0.4-1-0.7-1.5-1.1c-3.1-2-6.7-2.9-11.3-3.1c-0.2,0-0.4,0-0.6,0c-2.7,0-5.5,0.5-8.2,1.6
			c-2.6-1-5.5-1.6-8.5-1.6l-0.2,0c-2.2,0-4.4,0.4-6.7,1.1c-0.9-0.3-2-0.7-3.2-0.9c-0.9-0.1-1.8-0.2-2.7-0.2c-3.3,0-6.3,1-8.9,2.9
			c-4.2-2.3-8.6-2.7-11.6-2.9c-0.6,0-1.2,0-1.8,0c-1.9,0-3.8,0.1-5.2,0.3c-4.4,0.4-8.3,1.7-11.7,3.9c-3.4-2.5-7.6-3.9-12.7-4.1
			c-0.3,0-0.6,0-0.9,0c-2.7,0-5.4,0.5-8.2,1.6c-2.4-1-5.1-1.5-8.1-1.6c-0.2,0-0.4,0-0.6,0c-2.3,0-4.6,0.4-6.8,1.1
			c-1.2-0.4-2.6-0.9-4.2-1c-0.5,0-0.9-0.1-1.4-0.1c-4.2,0-8.2,1.6-11,4.5c-2.9,2.9-4.5,6.8-4.4,11.1c0,5.4,0,10.9,0,16.2
			c0,2,0,4,0,6c0,3.1,0.8,6,2.3,8.5c2.7,4.3,6.9,6.8,12.5,7.5c0.4,0,0.7,0.1,1.1,0.1c1.7,0,3.1-0.4,4.1-0.7l0.3-0.1
			c1.5-0.5,2.9-1.1,4.1-1.9c1.1,0.7,2.3,1.3,3.6,1.8c1.6,0.6,3.3,0.9,5,0.9c1.7,0,3.4-0.3,5.1-0.9c1.3-0.4,2.5-1,3.6-1.7
			c2.4,1.6,5.1,2.4,8.1,2.6c0.2,0,0.5,0,0.7,0c3.1,0,6-0.9,8.5-2.5c0.4,0.2,0.9,0.4,1.4,0.6c1.2,0.5,2.3,0.7,3.3,1
			c0.5,0.1,0.9,0.2,1.3,0.3c1.4,0.4,2.9,0.6,4.4,0.6c1,0,2.1-0.1,3.2-0.3l0.7-0.1c1.6-0.3,3.4-0.6,5.2-1.2c1.2,0.6,2.5,0.9,3.6,1.2
			c0.9,0.2,1.9,0.3,2.9,0.3c1,0,2.1-0.1,3-0.4c1.1-0.3,2.3-0.6,3.4-1.1c1.6,0.7,3,1,4,1.3c0.8,0.2,1.7,0.3,2.5,0.3
			c2.4,0,4.4-0.7,6-1.3l0.2-0.1c1-0.4,1.8-0.8,2.6-1.3c2.5,1.7,5.4,2.6,8.6,2.6l0.2,0c3.2,0,6.1-0.9,8.6-2.5c1.9,1.2,4.1,2,6.7,2.4
			c0.7,0.1,1.4,0.2,2.1,0.2c2.7,0,5.3-0.8,8.1-2.4c0.1,0,0.2-0.1,0.2-0.1c2.9,1.4,6.2,2.3,9.8,2.5c0.3,0,0.6,0,0.9,0
			c1.7,0,3.2-0.3,4.5-0.5l0.3-0.1c1.3-0.3,2.7-0.5,4.1-1c1.8,0.9,3.9,1.6,6.4,1.6c0.4,0,0.8,0,1.2-0.1c0.9-0.1,1.6-0.3,2.2-0.4
			c0.1,0,0.3-0.1,0.4-0.1c7.7-1.7,13-9.5,11.5-17c-0.2-1.1-0.5-2.4-0.9-3.7c-0.2-0.6-0.3-1.1-0.3-1.5c0-2,0-4,0-6c0-0.9,0-1.9,0-2.8
			c0-3-0.5-6-1.6-8.8c-0.6-1.6-1.3-3.1-2.2-4.4c-1.2-1.8-2.8-3.4-4.6-4.7c-1.1-0.8-2.3-1.5-3.7-2c-2.8-1.2-5.9-1.9-9.4-2.1
			C373.4,375.9,372.3,375.8,371.3,375.8L371.3,375.8z"/>
	</g>
</g>
<g id="Layer_4">
	<path class="st2" d="M255.9,373.5l-1.6,3l6.2,0.9c0,0-0.4-3.4-1.1-3.5C258.7,373.8,255.9,373.5,255.9,373.5z"/>
</g>
</svg>
