<?xml version="1.0" encoding="utf-8"?>
<!-- Generator: Adobe Illustrator 19.0.0, SVG Export Plug-In . SVG Version: 6.00 Build 0)  -->
<svg version="1.1" id="Layer_1" xmlns="http://www.w3.org/2000/svg" xmlns:xlink="http://www.w3.org/1999/xlink" x="0px" y="0px"
	 viewBox="0 0 911.4 325.5" style="enable-background:new 0 0 911.4 325.5;" xml:space="preserve">
<style type="text/css">
	.st0{fill:#FFFFFF;}
</style>
<g>
	<path class="st0" d="M4.6,223.1c0.2-2.5,0.4-5.1,0.7-7.6c1.5-14.8,5-29.1,10.3-43c9.6-25.3,23.8-47.9,41.4-68.4
		c16.7-19.4,36.7-34.4,60.5-44c20.8-8.4,42.6-11.9,64.8-12.9c9.6-0.4,19.2-0.5,28.8-0.5c11,0,21.7-1.7,31.6-6.5
		c7-3.4,13.8-7.4,20.7-11c6.1-3.2,12.1-6.6,18.3-9.5c7.9-3.6,16.2-5.8,25-6.2c0.6,0,1.2-0.3,1.8-0.4l6.2,0c0.6,0.2,1.2,0.4,1.8,0.4
		c8.2,0.2,15.7,2.7,22.9,6.5c3.7,1.9,7.3,4,10.9,6c4.6,2.5,9.3,4.7,14.4,5.8c7.3,1.6,14.5,0.9,21.6-1.2c4.4-1.3,8.8-3,13.3-4.5
		c-0.4,0.3-0.8,0.7-1.2,0.9c-13.1,8.4-27.4,12-42.9,10.7c-9-0.8-17.6-3.3-25.7-7.3c-4.9-2.4-10-3.7-15.5-3.4
		c-6,0.3-11.5,2.1-16.2,5.7c-10.6,8.2-10.7,22.3-0.3,30.7c4.3,3.4,9.3,5.3,14.6,6.4c7.6,1.5,15.3,1.5,22.9,0.6
		c19.6-2.3,37.6-8.9,54.2-19.7c1.7-1.1,3.4-2.4,5.1-3.7c5.6-4.4,11.3-8.5,17.6-11.8c13.4-7.1,29.1-8.1,43.5-3.3
		c5.5,1.9,10.9,4,16.3,6c5.3,2,10.7,3.7,16.3,4.6c9.2,1.4,17.8-0.3,26-4.6c0.6-0.3,1.1-0.6,1.7-0.9c0.5-0.3,1-0.5,1.7-0.6
		c-0.2,0.3-0.4,0.7-0.7,0.9c-12.1,10.6-26,16.6-42.4,15.9c-4.5-0.2-8.9-1.1-13.2-2.4c-5.6-1.7-11.3-2.9-17.2-3.1
		c-3.9-0.1-7.8,0.3-11.6,1.7c-7.4,2.7-12.2,9.9-11.9,17.7c0.1,3.6,1.7,6.6,4.2,9.1c3.8,3.8,8.6,5.8,13.7,7.2
		c6.3,1.7,12.8,2.3,19.3,1.9c17.2-0.9,31.9-7.4,44.7-18.4c4.2-3.7,8.5-7.3,12.6-11.1c8.3-7.6,18.1-12.2,29.1-14.2
		c9.9-1.8,19.4-0.8,28.7,2.8c4.6,1.8,9.1,3.8,13.7,5.8c4.1,1.7,8.3,3.3,12.8,4c7.8,1.4,15.3,0.3,22.6-2.6c0.9-0.4,1.8-0.7,2.7-1.1
		c0,0,0.1,0.1,0.4,0.2c-3.5,2.5-7.3,4.3-11.2,5.8c-9.1,3.4-18.3,3.4-27.6,1.2c-6.4-1.6-12.8-3.5-19.2-5.2c-4.1-1.1-8.3-1.7-12.6-1
		c-3.7,0.6-7.1,2.1-9.9,4.6c-2.1,1.9-4,3.9-5.7,6.1c-3.2,4.4-3.2,9.1-0.4,13.7c1.9,3.1,4.6,5.3,7.7,7.1c5.6,3.2,11.8,4.6,18.1,4.7
		c9.2,0.2,17.9-2.1,26.2-5.9c11.3-5.2,22-11.4,32.6-17.8c3.2-1.9,6.5-3.8,9.7-5.6c10.3-5.8,22-8.8,33.8-8.8c4.2,0,8.5,0,12.7,0.4
		c5.2,0.5,9.9,2.6,14.4,4.9c3.9,2,7.8,4.1,11.7,6.1c6.9,3.4,14.1,5.6,21.9,5.4c6-0.1,11.7-1.4,17.3-3.4c0.7-0.3,1.5-0.5,2.3-0.5
		c-0.4,0.3-0.9,0.6-1.3,0.9c-7.7,4.2-15.9,7.2-24.6,8.2c-8.3,0.9-16.4-0.1-24.1-3.9c-8.4-4.1-17.4-5.1-26.6-4.4
		c-3.9,0.3-7.8,1.1-11.4,2.7c-4.3,1.9-7.8,4.7-9.3,9.4c-1,3-0.5,5.6,1.5,8.1c2.2,2.6,4.9,4.5,7.9,6.2c6.2,3.4,12.8,5.3,19.8,6.1
		c17.2,2,33.2-1.9,48.5-9.4c5.2-2.5,10.1-5.5,15-8.5c9.5-5.9,19.4-11.2,30.2-14.5c8.5-2.6,17.2-3.7,26-3.1
		c8.4,0.6,16.6,2.7,24.4,5.9c8.2,3.4,16.3,7.1,24.4,10.5c8.5,3.7,17.3,6.7,26.5,8.1c8.1,1.3,16.2,1.2,24.4,0
		c0.7-0.1,1.4-0.2,2.2,0.1c-2.7,0.6-5.4,1.3-8.1,1.8c-7.1,1.3-14.2,2.2-21.4,2.1c-10.6-0.1-20.7-2.5-30.5-6.6
		c-6.6-2.7-13.2-5.7-20-8c-12.2-4.3-24.7-4.6-37.3-1.3c-4.2,1.1-8.1,2.9-11.6,5.6c-4.4,3.4-7.4,7.7-8.2,13.4
		c-0.7,4.9,0.5,9.4,3.2,13.5c4.1,6.4,10.2,10,17.4,11.8c8.9,2.2,17.7,1.2,26.3-1.5c4.8-1.5,9.5-3.5,14-5.9
		c7.1-3.7,14.4-6.7,22.2-8.2c6.7-1.2,13.4-1.5,19.9,0.7c1.2,0.4,2.3,0.9,3.3,1.7c-1.6-0.3-3.3-0.6-4.9-0.9
		c-6.6-1.1-12.9-0.1-18.9,2.8c-3.9,1.9-7.6,4.2-11.2,6.5c-4.2,2.7-8.1,5.7-12.3,8.4c-6.5,4.3-13.4,7.8-21,9.6
		c-9.6,2.3-19.2,1.7-28.7-0.8c-3.7-1-7.3-2.2-11-3.2c-9.9-2.7-19.6-2.4-29.1,1.7c-4.2,1.8-8,4.4-10.9,8c-2.6,3.2-4.1,6.8-3.9,11
		c0.4,6.3,6.9,12.6,13.1,13.6c3.8,0.7,7.5,0.1,11.1-1.2c4.3-1.7,8.5-3.7,12.7-5.7c5.3-2.5,10.5-5.4,15.9-7.8c6.8-3,14-4.4,21.5-4.1
		c4.5,0.2,8.9,1.1,13.1,2.8c0.4,0.2,0.8,0.4,1.1,1c-2-0.1-4-0.1-6-0.3c-9.4-0.7-18.1,1.1-26.1,6.3c-1.7,1.1-3.5,2.2-5.2,3.4
		c-5.4,4.1-10.8,8.2-16.2,12.4c-7.3,5.8-14.8,11.5-22.8,16.4c-16.1,9.9-33.5,16.6-52.2,19.7c-11.5,1.9-23,2.4-34.7,1.8
		c-12.6-0.7-24.9-3.1-37.2-5.7c-13.5-2.9-27.1-4.5-41-4.1c-9.7,0.3-19.3,1.6-28.4,5.2c-4.5,1.8-8.7,4.1-12.2,7.4
		c-2.3,2.2-4.2,4.6-5.2,7.7c-0.9,2.9-0.8,5.7,0.6,8.4c4.2,7.9,10.4,10.3,19,9.1c6-0.9,11.6-3.1,17.1-5.4c7.1-2.9,14.1-6,21.5-8.1
		c10.3-2.8,20.7-3.9,31.3-2.6c3.8,0.5,7.5,1.1,11.1,2.6c-2.7-0.5-5.3-1-8-1.4c-8.5-1.2-16.8,0-24.7,3.3c-5.3,2.2-10.4,4.9-15.5,7.6
		c-6.4,3.4-12.7,7.1-19.2,10.4c-5.7,2.9-11.7,5-18.1,6.1c-8,1.4-15.9,0.7-23.8-1.2c-9.6-2.3-18.6-6.3-27.2-11.1
		c-7-3.9-13.9-7.9-20.7-12.1c-11.9-7.2-24.9-11.6-38.7-13.5c-11.8-1.6-23.6-1.3-35.1,2.3c-5,1.6-9.7,3.8-13.7,7.2
		c-4.5,3.8-7.5,8.4-8.4,14.4c-0.4,2.7,0.3,4.9,1.9,6.9c1.7,2.1,3.8,3.6,6.2,4.8c4.9,2.4,10.1,3.3,15.5,3.5
		c8.3,0.2,16.2-1.6,23.7-5.1c9.6-4.5,19.6-6.2,30.1-5.1c9.6,1,18.5,4,27,8.7c0.2,0.1,0.4,0.3,0.5,0.5c0,0,0,0.1,0,0.3
		c-2.9-0.9-5.8-1.9-8.7-2.5c-4.2-0.9-8.5-1.8-12.7-2.2c-7.5-0.7-14.7,0.9-21.4,4c-5.3,2.4-10.5,5.1-15.7,7.7
		c-9,4.4-18.4,7.6-28.3,9.5c-14.2,2.7-27.8,0.9-40.9-5.1c-6.9-3.1-13.2-7.1-19.6-11.1c-7.4-4.7-14.7-9.4-22.2-13.8
		c-11.2-6.5-23.5-9.8-36.4-11.4c-8.6-1.1-17.2-1-25.7,1c-7.8,1.9-14.8,5.1-20.4,10.9c-3.1,3.2-5.4,6.9-6.3,11.4
		c-1.4,6.7,1.2,12.9,7,16.5c3.5,2.2,7.3,3.2,11.3,3.5c7.4,0.6,14.6-0.6,21.7-3.1c6.2-2.2,12.3-4.4,18.6-6.2
		c14.7-4.1,29-2.5,42.9,3.2c0.2,0.1,0.4,0.3,0.6,0.7c-0.7-0.1-1.4-0.2-2.1-0.3c-0.7-0.1-1.4-0.2-2.1-0.3c-17.1-2-32.5,2.3-46.4,12.2
		c-1.3,0.9-2.5,1.9-3.8,2.9c-8,6-16.6,10.5-26.4,12.5c-8.4,1.7-16.7,1.5-25-0.5c-6.8-1.6-13.5-3.8-20.3-5.7c-3.6-1-7.3-1.9-10.9-2.6
		c-7-1.3-13.7,0.1-20.2,2.6c-8.1,3.1-15.6,7.3-23.1,11.7c-10.4,6-21.2,11.2-32.7,14.8c-8.8,2.7-17.9,4.4-27.1,4.4
		c-24.6-0.1-43.8-10.2-57.1-31.2C11.6,270.4,7.9,259,6.1,247c-0.6-4.3-0.9-8.6-1.4-12.9l-0.3-3.3c-0.1-1.5-0.1-3.1,0-4.7L4.6,223.1z
		 M135.5,118c0.1,0.3,0.1,0.5,0.2,0.8c-0.8,0.3-1.5,0.7-2.3,1c-5.9,2.1-11.6,4.7-16.8,8.1C97,140.3,84,157.4,79.9,180.7
		c-1.1,6.4-1,12.7,0.8,19c2.7,9.8,10,15.2,20.1,15.3c4.7,0.1,9-1.1,13.2-3.1c7.4-3.5,13.5-8.8,19.1-14.7c9.4-10,16.8-21.3,23-33.5
		c6.6-12.8,12-26.2,14.3-40.5c0.5-3.2,1-6.5,0.5-10c-1-0.4-2-0.9-3.1-1.2c-8.7-2.4-17.5-2.6-26.4-0.9c-10.2,1.9-19.7,5.5-28.1,11.7
		c-0.9,0.7-1.8,1.5-2.6,2.2C118.7,121.5,126.7,118.4,135.5,118z M281.9,187.3c8,0,15.5,0,23.3,0c2.5-12.5,4.9-24.8,7.4-37.2
		c0.6,0,1-0.1,1.3-0.1c0.7,0.1,1.4,0.2,2.1,0.4c1.5,0.4,2,1,2,2.5c0,1.4-0.1,2.9-0.3,4.3c-1.2,6.6-2.6,13.2-3.8,19.8
		c-0.7,3.4-1.3,6.7-1.9,10.1c2.2,0.6,19.5,0.5,21.5,0c0.6-2.9,1.2-5.9,1.8-8.9c1.4-7.5,2.9-15.1,4.1-22.6c0.8-5.1-1.3-8.5-6-10.4
		c-0.7-0.3-1.3-0.6-2.4-1.1c1.7-0.4,2.9-0.7,4-1c3.4-1,6-3,7.4-6.3c2.8-6.7,4.3-13.6,3.7-20.8c-0.4-5-3.8-9-8.7-10.3
		c-2-0.5-4.1-0.9-6.1-0.9c-10.4-0.2-20.8-0.4-31.2-0.5c-0.5,0-0.9,0.1-1.7,0.1C292.8,131.9,287.4,159.4,281.9,187.3z M556.7,187.1
		c3.2,0.5,22.2,0.4,24.1-0.1c1.4-4.8,2.8-9.7,4.1-14.4c2.8,0,5.2,0,7.8,0c-0.5,5-1.1,9.8-1.6,14.7c8,0,15.7,0,23.4,0
		c0.7-3.5,3.5-81.3,3-83c-10.9,0-21.8,0-32.9,0C575.3,131.9,566.1,159.4,556.7,187.1z M372.6,187.2c4.1,0.5,21.8,0.3,23.5-0.2
		c0.7-4.6,3.3-80.5,2.8-82.7c-10.9,0-21.8,0-32.7,0c-1.9,4.1-27.7,81.2-27.7,83c7.8,0,15.6,0,23.7,0c1.4-5,2.8-9.9,4.2-14.7
		c2.8,0,5.2,0,7.8,0C373.7,177.6,373.1,182.3,372.6,187.2z M285.5,140.6c0.4-2,0.8-3.7,1.2-5.5c1-5.4,2.1-10.8,2.1-16.4
		c0-5.1-2.1-9.1-6.4-11.9c-1.6-1-3.3-2-5.1-2.5c-10.1-2.9-19.9-2.4-29.3,2.5c-5,2.6-8.9,6.6-11.2,11.8c-1,2.3-1.8,4.8-2.3,7.3
		c-2.3,11.1-4.5,22.2-6.7,33.4c-1,5.1-1.7,10.3-1.4,15.5c0.3,4.3,2.1,7.9,5.8,10.2c1.9,1.2,3.9,2.2,6,2.8c2.2,0.7,4.5,1,6.8,1.3
		c9.1,0.9,17.7-0.8,25.2-6.3c3.8-2.7,6.8-6.2,8.2-10.7c1.4-4.6,2.6-9.2,3.8-13.9c0.3-1.3,0.5-2.6,0.7-3.9
		c-2.8-0.6-21.3-0.5-23.2,0.1c-0.5,2.7-1,5.4-1.6,8.1c-0.6,2.8-1.2,5.6-2,8.4c-0.3,1-0.9,2.1-1.6,2.9c-0.9,1-3.1,1.3-4.2,0.7
		c-1.4-0.6-1.3-1.9-1.3-3.1c0.1-1,0.1-2.1,0.3-3.1c2.8-14.5,5.6-29,8.5-43.5c0.4-1.9,0.9-3.7,1.6-5.5c0.7-1.9,2.7-2.9,4.6-2.5
		c1.3,0.2,2,0.9,2,2.2c0,0.9,0,1.8-0.2,2.6c-1.1,5.7-2.2,11.5-3.2,17.2c-0.1,0.5-0.1,1-0.1,1.7C270.2,140.6,277.7,140.6,285.5,140.6
		z M672.3,187.3c0-0.8,0-1.5,0-2.1c-0.4-5.8-0.8-11.6-1.2-17.5c-0.6-8.3-1.2-16.6-1.7-24.9c-0.1-1.2,0.2-2.6,0.7-3.7
		c4.5-10.7,9-21.3,13.5-32c0.4-0.9,0.7-1.7,1.1-2.8c-6.6,0-13,0-19.4,0c-3,7.1-5.9,14.1-8.8,21.1c-0.2,0-0.4-0.1-0.6-0.1
		c0-7,0-14,0-21c-7.6,0-15,0-22.4,0c0,1,0,1.9,0,2.8c0.4,10.5,0.8,21.1,1.2,31.6c0.1,1.6-0.2,3-0.8,4.4
		c-5.3,13.7-10.5,27.5-15.7,41.2c-0.3,0.9-0.6,1.8-1,2.9c7.7,0,15.1,0,22.6,0c1.6-4.7,3.3-9.4,4.9-14c1.6-4.7,3.3-9.3,5-13.9
		c0.4,9.4,0.3,18.6,1.4,28C658.2,187.3,665.1,187.3,672.3,187.3z M87.9,219c0.4,0.9,0.6,1.5,0.8,2.1c0.5,1.6,1.1,3.2,1.5,4.8
		c1.2,5.5,0.4,11-1.2,16.3c-2.7,9.3-7.7,17.4-14.3,24.4c-10.8,11.3-23.7,18-39.6,18.2c-0.5,0-1,0.2-1.9,0.3c0.8,0.9,1.3,1.6,2,2.2
		c13,12.4,28.7,17.1,46.4,15.8c2.8-0.2,5.7-0.8,8.4-1.7c9.7-3.2,17-9.6,22.9-17.8c4.7-6.5,7.6-13.7,8.2-21.7
		c0.8-11.5-3.2-21.3-11.1-29.6c-5.5-5.8-12.3-9.7-19.6-12.6C89.6,219.4,88.9,219.3,87.9,219z M458.1,104.3c-13.5,0-26.8,0-40.3,0
		c-1.1,5.6-2.2,11-3.3,16.8c5.2,0,10.1,0,15.3,0c-0.5,1.1-0.9,1.9-1.3,2.7c-7.9,15.3-15.8,30.7-23.9,46c-2,3.8-3.4,7.7-4.1,11.9
		c-0.3,1.8-0.7,3.6-1,5.6c14.2,0,28.1,0,42.2,0c1.1-5.5,2.4-10.9,3.2-16.8c-2.9,0-5.5,0-8.2,0c-2.7-0.1-5.3,0.3-8.2-0.2
		c0.5-1,0.9-1.8,1.3-2.6c7.2-13.5,14.4-27.1,21.8-40.6c2.2-4,3.9-8,4.5-12.5C456.7,111.2,457.4,107.9,458.1,104.3z M482.5,187.3
		c1.6-7.9,3-15.5,4.6-23.1c0.7-3.5,1.3-7,3-10.3c8.2-15.7,16.1-31.4,24.2-47.1c0.4-0.8,0.7-1.5,1.1-2.5c-7.2,0-14.2,0-21.3,0
		c-4,10.1-8,20.2-12.2,30.7c0.4-10.5,0.6-20.6,0.6-30.7c-7.2,0-14,0-21.1,0c0.1,1.3,0.1,2.5,0.2,3.7c0.5,5.2,1.1,10.3,1.7,15.5
		c1.1,10.3,2.2,20.7,3.3,31c0.2,1.5,0.2,3.1-0.1,4.5c-1.3,6.8-2.7,13.6-4,20.5c-0.5,2.6-1,5.1-1.5,7.9
		C468.3,187.3,475.3,187.3,482.5,187.3z M547.9,187.3c4.4-22.2,8.7-44.1,13.1-66.3c4.6,0,9,0,13.5,0c1.1-5.6,2.2-11.1,3.2-16.6
		c-3-0.6-48.5-0.4-50.3,0.2c-1,5.3-2.1,10.7-3.2,16.4c4.5,0,8.8,0,13.4,0c-0.2,1.1-0.3,2-0.4,2.8c-4,20.4-8.1,40.9-12.1,61.3
		c-0.1,0.7-0.1,1.3-0.2,2.1C532.6,187.3,540.1,187.3,547.9,187.3z M222.3,139.9c0-2.6,0.1-4.9,0-7.2c-0.2-2.9-0.5-5.9-0.8-8.8
		c-1.3-10.7-4.4-20.8-9.6-30.2c-8.3-15-20.4-25.2-37-29.9c-7.4-2.1-14.9-2.7-22.5-3c-0.2,0-0.4,0.2-0.6,0.3c2.3,1,4.7,1.7,6.9,2.8
		c7,3.7,10.9,9.9,13.1,17.3c1.9,6.6,2.5,13.3,2,20.2c-0.2,2.6-0.3,5.3-0.5,7.9c0,0.5,0.1,0.9,0.2,1.5c0.7,0.2,1.3,0.4,1.9,0.4
		c1.8,0.2,3.7,0.3,5.5,0.5c8.4,1.1,16.4,3.3,23.8,7.5c8.1,4.5,14.1,10.9,17.1,19.9C221.8,139.3,222,139.4,222.3,139.9z M698.9,187.3
		c2.7-10.6,16.2-80.8,16-83c-7.6,0-15.1,0-22.8,0c-5.4,27.7-10.9,55.2-16.3,83C683.7,187.3,691.3,187.3,698.9,187.3z M39.1,206
		c-2.6-2.4-4.4-5-5-8.4c-0.6-3.4,0.3-6.6,1.3-9.8c-2.3-0.5-4-0.4-6.4,0.4c-6.1,2.2-10.1,6.6-12.7,12.3c-2.8,6.1-4,12.7-4.2,19.3
		c-0.2,5.7,0,11.5,0.4,17.2c0.7,9.7,2.7,19.2,6.3,28.2c1.4,3.5,3.4,6.8,5.2,10.2c0.4,0.8,1,1.5,1.8,1.8c-0.1-0.6-0.3-1-0.5-1.4
		c-4.8-9.6-5.2-19.4-1.2-29.4c2.8-6.9,7.1-12.7,12.2-17.9c1-1,2-2,3.1-3.1C37.1,219,36.1,212.6,39.1,206z M124.2,65.7
		c-0.5,0.2-1,0.3-1.5,0.5c-4.8,2-9.7,3.8-14.3,6.1C95.8,78.5,84,86,73.7,95.7c-3.7,3.5-6.9,7.3-9.2,11.9c-1.9,3.6-2.7,7.5-2.2,11.6
		c0.2,1.6,0.5,3.1,1.8,4.5c4.7-4.3,10.2-7.1,15.6-10c0.3-4,2.1-6.9,4.7-9.5c4.8-4.8,10.8-6.9,17.5-7.4c6-0.4,11.6,1,16.9,3.6
		c0.4,0.2,0.7,0.4,1.1,0.5c0.4,0.2,0.7,0.3,1.1,0.4c-3.8-2.9-7.9-4.9-12.2-6.6c-0.8-0.3-1.5-0.7-2.4-1.2
		C107.9,81.3,114.1,72.3,124.2,65.7z M106.3,115c-0.3-0.1-0.6-0.2-0.8-0.2c-9.6-1.5-18.8-0.4-27.6,3.6c-11.8,5.2-20.3,14-26.9,24.8
		c-0.1,0.2-0.1,0.5-0.2,1.1c0.9-0.7,1.6-1.1,2.2-1.6c4.1-3,8.4-5.6,13-7.6c6.7-2.9,13.6-4.7,21-3.5c2.2,0.4,4.3-0.3,6.1-1.6
		c1.4-1.1,2.8-2.4,4-3.8c1.4-1.7,2.7-3.6,4-5.4C102.4,118.6,104,116.6,106.3,115z M48.6,167.9c1.1-0.9,1.7-1.4,2.4-1.9
		c4.7-3.8,9.7-7.1,15.4-9.1c3.3-1.2,6.8-2.1,10.3-1.6c2.6,0.4,4.6-0.4,6.3-2.2c1-1.1,2-2.3,2.8-3.6c2.6-4.4,4.2-9.1,5.4-14
		c0.1-0.3,0-0.6,0-0.9c-0.4-0.1-0.6-0.1-0.8-0.2c-0.6,0-1.1,0-1.7,0c-8.5,0.4-16,3.6-22.6,8.9c-7.8,6.2-13,14.2-17.1,23.1
		C48.8,166.7,48.8,167,48.6,167.9z M80.6,159.8c-1.8,0.4-3.1,0.6-4.4,0.9c-7.2,2-12.2,6.7-15.9,12.9c-2.9,4.8-4.6,10.2-5.7,15.7
		c-0.1,0.3,0,0.6,0.1,1.1c0.9-0.9,1.6-1.7,2.4-2.3c3-2.6,5.9-5.3,9-7.8c2.1-1.6,4.4-2.9,7.1-3.2c1.4-0.1,2.5-1.1,3.2-2.3
		C79.2,170.3,80,165.3,80.6,159.8z M61.2,166.9c-0.2-0.1-0.3-0.2-0.4-0.2c-0.2,0-0.5,0.1-0.7,0.2c-6.1,2.7-11.8,6.1-16.5,10.9
		c-3.5,3.4-6.1,7.4-7.2,12.2c-0.7,2.9-0.4,5.7,1.2,8.3c1,1.6,2.4,2.7,4.6,2.5C45.2,187.6,51.9,176.6,61.2,166.9z M50.5,191.1
		c-3.9,4.5-6.7,9.4-8.5,14.9c-1.1,3.3-1.7,6.7-1.4,10.1c0.2,2.3,0.4,4.5,1.7,6.8c3.4-3,7.1-5.2,11.4-6.5
		C48.5,208.4,48.7,199.9,50.5,191.1z M56.2,215.6c5.6-2.1,11.2-2.7,17-2.6c-0.2-0.4-0.4-0.6-0.7-0.7c-4.2-2.6-5.9-6.5-6-11.3
		c0-3.3,0.7-6.5,1.8-9.6c0.3-0.9,0.6-1.7,1-2.9C60.4,196.1,54.8,208.4,56.2,215.6z M96,105.3c10.3,0.2,16.4,3.5,17.3,9.9
		c-0.9,0.5-1.8,1-2.8,1.6c2.4,0,4.7,0,7.2,0c0-2.7-1.1-4.7-2.7-6.4C109.8,104.5,103.1,104,96,105.3z"/>
	<path class="st0" d="M315.1,136.6c1.2-6,2.3-11.8,3.5-17.8c0.6,0,1-0.1,1.5-0.1c3.6,0.3,4.6,1.4,4.1,4.9c-0.4,2.8-0.9,5.5-1.6,8.2
		C321.6,135.8,319.9,136.9,315.1,136.6z"/>
	<path class="st0" d="M595.2,157.3c-2.5,0-4.8,0-7.4,0c3.1-10.8,6.6-21.2,10.4-31.6C597.2,136.2,596.2,146.6,595.2,157.3z"/>
	<path class="st0" d="M379.5,126.6c-1,10.2-2,20.4-2.9,30.7c-2.5,0-4.7,0-6.9,0C369.5,155.2,377.2,130.3,379.5,126.6z"/>
</g>
</svg>
