<?xml version="1.0" encoding="utf-8"?>
<!-- Generator: Adobe Illustrator 19.0.0, SVG Export Plug-In . SVG Version: 6.00 Build 0)  -->
<svg version="1.1" id="Layer_1" xmlns="http://www.w3.org/2000/svg" xmlns:xlink="http://www.w3.org/1999/xlink" x="0px" y="0px"
	 viewBox="0 0 1681.3 673.5" style="enable-background:new 0 0 1681.3 673.5;" xml:space="preserve">
<style type="text/css">
	.st0{fill:#FFFFFF;}
</style>
<g>
	<path class="st0" d="M211.2,0c5.2,4.3,10.5,8.5,15.7,12.8c2.8,2.3,5.3,5.1,8.4,7.1c2.7,1.8,3.2,3.9,2.8,6.7
		c-2.4,14.7-5,29.3-6.9,44.1c-2.2,17.4-3.8,34.8-5.6,52.2c0,0.5,0.1,1,0.2,2.2c6.2-4.9,11.7-10.1,18-14.1
		c18.9-12.2,38-24.3,57.3-35.8c15.8-9.5,32.3-18,44.8-31.9c6.2-6.8,11.1-14.8,16.8-22.6c0.2,0.5,0.7,1.1,0.8,1.8
		c2.1,12,11.4,16.8,21.2,19.9c21.4,6.9,43.1,13,64.6,19.6c13.8,4.2,28,7.3,40.3,15.3c5.9,3.8,8.4,8.6,5.7,14.8
		c-3.9,9.2-8.5,18.4-14.4,26.4c-17.6,24.3-35.9,48.1-54.5,72.8c-6.6-5-12.7-9.6-19-14.4c4.1-5,8.4-9.4,11.8-14.4
		c3.3-4.9,6.2-10.3,8.1-15.8c2.7-8.4,1-11.2-6.7-15.8c-12.9-7.8-27.2-12.1-41.7-15.6c-18.3-4.5-37.1-7.1-56-6.4
		c-11.9,0.4-23.2,3.5-34.1,8.1c-1.3,0.6-2.7,2.9-2.7,4.4c-0.2,19.7-0.2,39.3-0.1,59c0.1,13.6,0.6,27.3,0.8,40.9
		c0.3,18.3,0.5,36.6,0.9,54.9c0.4,18.3,0.9,36.5,1.6,54.8c0.5,14.3,0.9,28.5,1.9,42.7c1.9,27.7,3.8,55.5,6.2,83.1
		c1.7,18.4,4.4,36.7,6.5,55.1c0.6,4.9,2.6,6.8,7.7,7.3c16.8,1.6,33.5,4,50.3,5.7c12.3,1.2,23.4-2.8,33.2-9.7
		c26.1-18.5,51.9-37.4,77.9-56.1c1.9-1.4,3.7-2.7,6.1-4.4c5.4,6.2,10.7,12.2,15.6,17.9c-25.6,21.1-51.6,40.9-75.7,62.8
		c-24.2,21.9-46.4,46-69.6,69.1c-8.8-11.4-23.9-10.3-36.9-14.1c-22-6.4-44.6-10.9-66.4-17.7c-23.3-7.3-46.3-15.7-69-24.8
		c-35-14.1-67.6-32.5-96.9-56.6c-28.7-23.6-51.4-51.7-65.9-86c-7.1-16.9-12.3-34.4-13.4-52.8c-1-16.9-1.8-34-0.8-50.8
		c1.4-22.6,7.2-44.6,17.1-65c7.7-15.9,16.2-31.7,26.3-46.1c18.8-26.7,42.2-49,68.4-68.6c26.8-20.1,55.8-36.4,86.6-49.7
		c2.9-1.2,3.7-2.8,4.1-5.8c2.3-21.7,4.9-43.4,7.4-65.1C210.3,1,210.6,0.7,211.2,0z M199.5,106.6c-1.7,0.4-2.1,0.5-2.6,0.7
		c-16.3,6.7-31.6,15.3-46,25.5c-21.3,15-38.5,33.8-52.1,55.9C80.1,219.3,70.6,253,69.3,288.8c-0.8,20.6,0.8,40.9,6.8,60.9
		c9,29.6,25,55,46,77.2c14.4,15.2,30.9,28,48.7,39.1c8.4,5.2,16.9,10.2,26.4,15.9c0-3.3,0-5,0-6.8c-0.3-16.6-0.9-33.2-0.9-49.9
		c-0.1-56.2-0.1-112.3-0.2-168.5c0-2.5-0.5-5.6-2-7.3c-12.9-13.9-26.2-27.4-43.7-35.7c-5.2-2.5-10.3-5.1-16-7.9
		c1.5-1.2,2.6-2,3.8-2.9c7.3-5.1,15.2-9.5,21.8-15.3c9.9-8.8,18.8-18.8,28.4-28c5.7-5.4,10.9-10.6,8.8-19.4
		c-0.2-0.7,0.3-1.6,0.3-2.4C198.2,127.7,198.8,117.4,199.5,106.6z M261.9,216.5c-15.7,7.6-28.6,16.8-39.2,28.9c-1,1.1-1.5,3-1.5,4.5
		c0.2,34.9,0.4,69.9,1,104.8c0.3,17.2,1.2,34.5,2.6,51.7c1.3,16.2,3.3,32.4,5.3,48.5c1.8,14.9,4,29.7,6,44.3
		c9.3,3.1,17.8,6,25.8,8.6C261.9,410.5,261.9,313.9,261.9,216.5z M261,132.4c-9,3.9-26.9,21.1-28.7,30.6c-0.4,2.2-0.6,4.5-0.5,6.7
		c0.9,11.7,8.5,19.4,16.4,26.8c3.6,3.3,7.9,5.9,12.7,9.4C261,180.6,261,156.7,261,132.4z"/>
	<path class="st0" d="M870.4,384.6c10,2.2,21.5-1.8,26.7-11.1c8.9-16,17.2-32.5,24.8-49.2c8.9-19.8,16.8-40,25.1-60.1
		c3.7-9,7.2-18.2,11-27.2c1.7-4.1-1.5-5.7-3.9-6.9c-3.2-1.5-6.9-2.1-10.5-2.7c-3.9-0.6-7.9-0.7-12.2-1.1c0-5.2,0-10.1,0-15.3
		c31.8,0,63.6,0,95.6,0c0,5,0,9.9,0,14.6c-6.7,1.4-13.3,2.7-20.5,4.2c4.6,11.7,8.6,22.2,12.8,32.6c9.9,24.5,19.7,49.1,29.9,73.5
		c4.7,11.5,9.5,23,15.3,33.9c8.6,16.3,22.7,17.2,37.3,10.2c5.2-2.5,6.4-8.5,7.2-13.6c1.2-8.2,1.8-16.5,2-24.7
		c0.5-17.8,1-35.6,0.7-53.4c-0.2-14.9-1.5-29.8-2.6-44.7c-0.4-6.3-3.4-11.2-9.9-12.8c-7.7-1.9-15.4-3.5-23.7-5.3c0-4.3,0-9.2,0-14.8
		c3.5,0,7,0,10.4,0c27.8-0.3,55.6-1,83.4-0.7c27.7,0.3,54.9,4.5,79.8,17.8c21.5,11.5,37.5,28.1,44.2,51.9c5.5,19.4,5.1,39-2.8,57.9
		c-15.3,36.6-44,56.2-82,63.1c-11,2-22.4,2.9-33.6,2.8c-22.9-0.3-45.7-2.3-68.6-2.4c-38.6-0.2-77.3,0.4-115.9,0.7c-1.5,0-3,0-4.9,0
		c0-5.2,0-10.1,0-15.3c5.5-0.8,11.2-1.3,16.6-2.6c12.7-3,12.6-4.6,10.8-17.1c-0.8-5.7-3.1-11.1-5-16.6c-1.9-5.5-3.9-10.9-6.3-16.2
		c-0.7-1.5-3-3.1-4.6-3.1c-15.7-0.2-31.3-0.2-47,0c-1.5,0-4,1.8-4.4,3.3c-3.8,12.3-7.4,24.7-10.8,37.1c-1.5,5.5,1.1,10.6,6.6,12.1
		c4.4,1.2,9.1,1.6,13.7,2c4.1,0.3,6.6,1.4,6,6.2c-0.4,3.1-0.1,6.3-0.1,9.8c-31.4,0-62.3,0-93.8,0c0-4.3,0-8.7,0-13.7
		c-31.5,20.8-63.9,21.9-98.1,8.5c-2.7,8.3-9.8,5.3-16.8,5.5c-1.5-22-3-43.9-4.6-66.2c5.4-0.7,10.1-1.3,15.1-2
		c2.2,6.8,3.8,13.5,6.4,19.9c4.7,11.8,11.5,21.9,23.8,27.3c14,6.1,36.8,3.6,45.6-9.8c7.8-11.8,4.6-29-7.6-36.2
		c-9.7-5.7-19.9-10.6-29.6-16.2c-9.4-5.5-19.1-10.8-27.6-17.5c-11-8.7-16.4-21.1-17.6-35c-2.8-30.7,19.4-50.1,45.8-56.1
		c17.9-4.1,35.6-2.2,52.9,3.3c3.3,1,5.2,0.7,8.3-1.6c2.9-2.2,8-1.5,12.4-2.1c0.6,3.8,1.2,6.7,1.4,9.6c0.5,13,0.8,25.9,1.2,38.9
		c0,1,0.1,2,0.1,3c-0.1,2.6,0.1,7.3-0.5,7.4c-4.6,0.9-9.4,0.9-14.2,0.9c-0.4,0-1-1.9-1.3-3c-1.7-5.9-3-11.9-5.2-17.6
		c-8.3-21.2-35.2-24.8-50.3-14.7c-9.6,6.4-11.7,26.1,0.5,34c11.2,7.2,23.1,13.5,35,19.8c11.9,6.3,24,12.1,33,22.5
		c16,18.5,16.7,47,1.6,66.6C874.7,379.5,872.5,382,870.4,384.6z M1156.5,230.8c-0.4,8.9-1.2,17.3-1.2,25.7
		c-0.2,23.6-0.2,47.3-0.1,70.9c0.1,12.8,0.4,25.6,1,38.3c0.3,6.1,3,11.1,8.7,13.9c9,4.4,18.4,4.7,28,3.1
		c11.4-1.9,22.3-5.4,31.1-13.3c22.5-20.3,25.9-46.9,21-74.4c-4.1-23.2-18.8-40.3-39.2-52.4C1190.6,233.4,1174,231,1156.5,230.8z
		 M990.9,305.8c-6.3-14.5-12.2-28.4-18.8-43.6c-5.8,15.3-11,29.3-16.4,43.6C967.4,305.8,978.7,305.8,990.9,305.8z"/>
	<path class="st0" d="M719.5,585.5c-4.4,0-9.2,0-14.6,0c0-38.7,0-77.4,0-116.4c5,0,9.8,0,14.7,0c1.2,6.3,2.1,12.6,3.5,18.8
		c2.7,11.8,7,15.2,19.2,16.1c11.6,0.8,23.1,1.5,35.1,2.3c0-10.6,0.1-20.4-0.1-30.1c0-2.8-0.9-5.5-1.3-8.3c-1.1-8.3-6.4-12.5-14.1-14
		c-6.5-1.3-13.1-2.2-19.9-3.3c0-4.8,0-9.6,0-14.7c38.8,0,77.4,0,116.4,0c0,4.8,0,9.6,0,14.7c-6.1,1-12.1,1.8-18.1,3.1
		c-12.6,2.8-15.9,6.9-16.6,19.7c-0.5,8.9-1.2,17.8-1.8,26.7c-0.1,1.6,0,3.3,0,5.2c10,0,19.6,0.2,29.2-0.1c4.9-0.2,9.9-1.2,14.7-2.2
		c4.6-0.9,7.9-3.5,8.9-8.3c1.9-8.4,3.6-16.8,5.5-25.7c4.6,0,9.7,0,15.2,0c0.1,1.9,0.3,3.7,0.3,5.5c0,35.5,0,71,0.2,106.5
		c0,4.8-1.3,6.4-6.1,6.2c-9.4-0.3-9.4,0-11.1-9.2c-0.7-3.7-1.1-7.5-1.9-11.2c-2.1-9.8-5.7-13.5-15.4-14.6c-8.7-1-17.6-1.2-26.3-1.7
		c-4.4-0.3-8.8-0.5-12.9-0.8c0,25.9-0.2,51.1,0.1,76.3c0.1,6.7,1.8,13.3,3.2,19.9c1,4.8,4.6,7.5,9.3,8.4c7.9,1.6,15.9,3.1,24,4.7
		c0,4.7,0,9.3,0,14.2c-39.2,0-78.3,0-117.6,0c0-4.8,0-9.4,0-14.4c5.4-0.9,10.8-1.7,16.1-2.6c13.7-2.5,19.1-8,19.5-21.9
		c0.7-27.3,0.7-54.6,1-81.9c0-0.8-0.2-1.6-0.5-3.8c-14.6,1.3-29.1,2.4-43.5,4c-5.5,0.6-8.5,4.8-9.6,10.1
		C722.6,570.4,721.1,577.8,719.5,585.5z"/>
	<path class="st0" d="M1447.4,211.1c1.7-0.2,2.3-0.3,3-0.3c30.6-0.3,61.2-1.2,91.8-0.7c17.9,0.3,35.4,3.8,51.7,12.4
		c30.2,15.7,32.8,56.9,5.4,77.4c-4.6,3.4-9.5,6.5-15.1,10.2c3.1,5.3,6,10.8,9.3,16c11.4,17.8,24,34.6,42.3,46.1
		c12,7.6,25,12,39.1,13.3c1.9,0.2,3.9,0.6,6.2,0.9c0,3.8-0.2,7.3,0.1,10.7c0.3,3.3-1.2,4.5-4.2,4.7c-11.2,0.6-22.5,2.1-33.7,1.7
		c-21.9-0.7-42.7-5.9-60-20.2c-10.3-8.5-18.8-18.8-24.8-30.9c-4.2-8.5-8.4-16.9-12.2-25.5c-1.3-3.1-2.8-3.6-5.6-2.8
		c-4.6,1.3-9.3,2.4-14.8,3.8c0.3,5.1,0.6,10.3,0.9,15.5c0.4,6.4,0.6,12.9,1.3,19.3c0.4,3.6,1.6,7,2.5,10.5
		c2.3,8.5,10.1,8.6,16.5,10.4c4.9,1.3,10.1,1.9,15.4,2.9c0,4.9,0,9.7,0,14.9c-38.1,0-76.3,0-115,0c0-4.7,0-9.6,0-14.7
		c6.3-1.3,12.6-2.7,18.9-3.9c9.1-1.7,14.6-6.8,15-16.3c0.7-15.1,1.4-30.2,1.6-45.3c0.2-19.3,0.2-38.7-0.1-58
		c-0.1-6.8-1.3-13.5-2.3-20.2c-0.9-6.1-4.6-10.4-10.4-12.1c-6.4-1.8-12.9-3.1-19.4-4.2c-2.7-0.4-3.8-1.3-3.7-4
		C1447.5,218.9,1447.4,215.1,1447.4,211.1z M1526.8,230.8c0,23.7,0,46.7,0,69.6c2.8,0.5,5.8,0.5,8.3,1.5c8.7,3.4,16.1,0.7,22.3-5.1
		c3.8-3.6,7.1-8,9.4-12.7c6.7-13.3,5.2-32.6-5.4-42C1551.9,233.5,1539.9,232.2,1526.8,230.8z"/>
	<path class="st0" d="M426.1,323.6c-5.5,1.2-11.8,2.6-18.4,4.1c0.8,12,1.6,23.9,2.4,35.8c0.8,12.2,5.9,17.9,18.2,20.2
		c4.4,0.8,8.8,1.8,13.2,2.2c2.8,0.3,3.6,1.6,3.5,4.2c-0.2,3.6,0,7.3,0,11.4c-38.5,0-76.6,0-115.5,0c0-4.3-0.3-8.7,0.2-13.1
		c0.1-1,2.5-2.2,4-2.6c5-1.2,10.1-1.8,15.1-3c10.5-2.4,14.5-7.3,15.1-18.1c0.4-6.5,0.8-13,0.9-19.4c0.3-22,0.7-44,0.5-66
		c-0.1-11.9-1.3-23.9-2.3-35.8c-0.5-6.1-4.2-10.7-10-12.4c-6.5-2-13.2-3.3-19.9-4.4c-2.8-0.5-3.7-1.4-3.7-4.1c0.1-3.8,0-7.6,0-11.5
		c1.6-0.2,2.5-0.3,3.5-0.4c30.5-0.3,60.9-1.3,91.4-0.7c20,0.4,39.5,4.1,56.7,15.7c22,14.8,26.2,47.2,7.8,66.4
		c-6.5,6.8-14.4,12.3-22.1,18.8c13.6,24.1,28.9,48.1,54.6,63.4c11,6.6,23.1,9.8,35.7,11.1c2.3,0.2,4.5,0.6,7,1c0,4.8,0,9.3,0,14.3
		c-3.4,0.6-6.7,1.3-10.1,1.7c-20.7,2.1-41.4,2.4-61.5-4.3c-21.9-7.3-38.4-21.3-49.5-41.5C437.1,345.9,431.9,335,426.1,323.6z
		 M408.6,300.1c4.2,0.9,8,2,11.9,2.4c3.5,0.3,7.6,0.9,10.5-0.5c20.1-9.6,26.3-32.7,18.8-51c-6.3-15.4-25.9-19.7-41.2-19.7
		C408.6,254.2,408.6,277.1,408.6,300.1z"/>
	<path class="st0" d="M619.3,435.9c31.6,0,62.3,0,93.5,0c0,5.1,0,10,0,15.2c-4,0.4-7.9,0.8-11.8,1.3c-13.7,1.6-25.7,7.2-35.2,16.9
		c-14.5,14.9-28.1,30.6-42.5,45.6c-3.5,3.7-2.1,5.9,0.3,8.7c6.6,7.7,13,15.5,19.8,23c13.4,15.1,27.1,30,40.4,45.2
		c10.5,11.9,23.5,17.9,39.2,18.6c1.1,0,2.2,0.3,3.6,0.5c0,4.9,0,9.6,0,14.7c-33.9,0-67.5,0-101.4,0c0-5,0-9.9,0-14.5
		c5.1-1,9.9-2,16.1-3.3c-19.9-22.8-38.9-44.5-57.9-66.2c-0.5,0.2-1.1,0.5-1.6,0.7c0.4,7.7,0.9,15.4,1.1,23.1c0.2,6-0.1,12,0.2,18
		c0.2,4.4,1.1,8.8,1.5,13.2c0.5,5.6,4.1,8.7,8.9,10c6.2,1.6,12.6,2.4,18.9,3.9c1.4,0.3,3.2,2.1,3.4,3.5c0.5,3.6,0.2,7.3,0.2,11.4
		c-38.3,0-76.4,0-114.8,0c0-4.7,0-9.4,0-14.3c6.4-1.1,12.8-2,19-3.4c12.1-2.8,15.3-6.7,16.3-19.1c0.4-5.3,0.8-10.6,0.8-15.9
		c0.4-25.6,0.8-51.3,0.8-76.9c0-9.1-1.1-18.2-1.7-27.3c-0.5-7.6-4.5-12.5-11.7-14.3c-5.6-1.4-11.4-2.1-17.2-2.6
		c-3.1-0.3-4.6-1-4.4-4.4c0.2-3.6,0-7.3,0-11.2c36.9,0,73.2,0,109.9,0c0,4.9,0,9.7,0,14.8c-4.3,0.7-8.5,1.2-12.7,2.1
		c-11.9,2.5-15.7,6.8-16.4,18.9c-0.5,9.4-0.7,18.9-1,28.4c-0.3,9.1-0.6,18.2-0.9,27.4c0,0.6,0.1,1.2,0.3,3
		c11.2-13.7,21.9-26.3,32.1-39.1c6.6-8.3,13.2-16.6,19-25.5c6.3-9.7,4.8-12.4-6.5-14.2c-7.7-1.2-7.7-1.2-7.7-8.9
		C619.3,440.8,619.3,438.6,619.3,435.9z"/>
	<path class="st0" d="M952.1,496.9c0,22.4-0.3,43.3,0.1,64.3c0.2,11.4,1.5,22.8,2.2,34.2c0.4,5.6,3,9.3,8.7,10.5
		c7.1,1.5,14.2,2.9,21.2,4.6c1.4,0.3,3.3,1.8,3.4,3c0.4,3.9,0.2,7.9,0.2,12.1c-32.5,0-64.4,0-96.8,0c0-4.2-0.3-8.2,0.2-12.1
		c0.1-1.1,2-2.7,3.3-3c6.9-1.7,13.8-3.1,20.7-4.7c4-1,6.9-3.6,7.5-7.7c1.3-8.5,2.9-17,3.1-25.5c0.7-25.3,0.8-50.6,1.3-75.9
		c0.1-7.1,0.7-14.3,0.7-21.4c0-1.9-1-4.1-2.3-5.6c-9.2-11.3-21-17.6-35.7-18.1c-3.2-0.1-4.4-1.5-4.2-4.7c0.2-3.5,0-7,0-10.8
		c33.4,0,66.4,0,99.8,0c0,5,0,9.7,0,14.8c-4.4,0.7-8.9,1.4-15,2.3c33.7,35.6,66.4,70.1,99.1,104.6c0.4-0.1,0.9-0.3,1.3-0.4
		c0-4.4,0.1-8.7,0-13.1c-0.2-5.6-0.5-11.3-0.8-16.9c-0.9-18.4-1.6-36.8-2.8-55.2c-0.8-12.6-3.9-15.9-16.4-18.7
		c-5.3-1.2-10.8-1.8-16.5-2.8c0-4.7,0-9.5,0-14.7c31.2,0,62.6,0,94.3,0c0,4.9,0,9.8,0,14.9c-4.5,0.5-8.9,0.8-13.3,1.5
		c-14,2.4-17.8,6-18.4,20.1c-0.9,23.6-1.2,47.2-1.5,70.8c-0.2,11.6-0.2,23.2-0.1,34.8c0.1,15.6,0.3,31.2,0.7,46.9
		c0.1,3.7-1.5,3.8-4.4,4.7c-10.8,3.4-17.2-1.8-23.9-9.4c-12.8-14.6-26.6-28.4-40-42.5c-19.3-20.4-38.5-40.9-57.7-61.3
		C964.4,510.4,958.8,504.2,952.1,496.9z"/>
	<path class="st0" d="M1304.4,436.4c-1.6,23.3-3.1,45.4-4.6,68.3c-4.3,0-8.8,0.2-13.1-0.2c-0.8-0.1-1.8-2.3-2.1-3.7
		c-2.2-8.3-3.6-16.8-6.4-24.9c-3.4-10-11.4-15.8-21.1-18.8c-21.3-6.6-41.9-5.3-61.1,6.7c-16.4,10.2-24.5,25.9-28.7,44.2
		c-4.4,19.4-2,38.1,6.1,55.7c11.8,25.6,31.8,40.8,60.4,44.1c9.8,1.2,19.4,0.9,28.9-1.5c0-13.4,0.5-26.6-0.2-39.7
		c-0.5-10.1-3.2-12.5-12.9-14.6c-3.2-0.7-6.5-1.3-9.8-1.7c-3.3-0.4-6.6-0.7-10.3-1c0-4.9,0-9.8,0-15.1c32.2,0,64.6,0,97.6,0
		c0,4,0.4,7.8-0.2,11.5c-0.2,1.5-2.4,3.2-4.1,3.9c-2.1,0.9-4.6,0.7-6.8,1.1c-7.3,1.2-9.8,3.4-10.1,10.7c-0.4,13.3-0.1,26.6-0.1,40.7
		c4.2,0,8.1,0,11.6,0c0.5,1.1,0.7,1.4,0.7,1.7c-0.3,4.6,1.1,10.6-1.3,13.3c-2.4,2.7-8.6,2-13.1,2.8c-15.9,2.9-31.7,6.6-47.7,8.7
		c-32.5,4.4-64,1.2-93.1-15.5c-24.8-14.2-42-34.6-47.4-63.1c-5.6-29.8,2.1-56.5,22.1-79.3c17.4-19.9,39.9-30.8,65.5-35.7
		c23.8-4.6,47.4-2.4,71,2.4c3.1,0.6,6.1,1.6,9.2,2.2c2.6,0.4,4.7,0.5,7.6-1.4C1293.9,435.8,1299.1,436.8,1304.4,436.4z"/>
	<path class="st0" d="M517.2,225.5c0-4.4,0-9.2,0-14.3c38.4,0,76.8,0,115.9,0c0,4.2,0.3,8.4-0.2,12.5c-0.1,1.1-2.1,2.6-3.5,2.9
		c-6.2,1.3-12.4,2.2-18.6,3.3c-8.4,1.6-12.9,6.8-13.6,15.3c-0.4,4.8-0.8,9.6-1,14.4c-0.4,11.8-1.1,23.6-0.8,35.4
		c0.4,14.9,1,29.9,2.8,44.6c2.7,22.1,14.7,32.6,35.8,36.6c11.6,2.2,23.5,2.7,35.1-0.9c15.1-4.7,23.2-15.6,25.8-30.5
		c1.4-7.8,1.8-15.8,1.9-23.7c0.2-18,0.2-36-0.2-54c-0.2-7.6-1.5-15.1-2.5-22.6c-1.2-9-7.3-13.5-15.5-15.3
		c-5.8-1.3-11.8-1.9-17.7-2.3c-3.1-0.2-4-1.4-3.9-4.3c0.2-3.6,0-7.3,0-11.3c33.3,0,66.2,0,99.9,0c0,4.3,0.2,8.5-0.2,12.7
		c-0.1,1-2,2.3-3.3,2.6c-5.6,1.2-11.4,2-17.1,3.2c-7.7,1.6-11.3,7.1-12.3,14.4c-0.7,4.6-1,9.2-1,13.8c-0.4,25.5,0,50.9-1.3,76.4
		c-1.3,26.2-11.9,47.8-35.5,61.3c-10.3,5.9-21.8,8.8-33.6,10.1c-15.7,1.6-31.3,0.8-46.7-2.9c-26.2-6.3-45.5-20.5-52.5-47.8
		c-1.7-6.7-2.4-13.7-2.5-20.6c-0.3-22.3,0-44.7-0.2-67c-0.1-8.3-0.9-16.6-1.9-24.8c-0.7-5.7-3.7-10.3-9.9-11.8
		C532.1,229,525.1,227.4,517.2,225.5z"/>
	<path class="st0" d="M1279.2,210.8c8.7,0,16.7,0,24.7,0c35.8,0,71.6,0,107.5,0c4.8,0,9-0.6,13.2-4.1c2.6-2.1,7.8-1,11.9-1.4
		c0,21.4,0,41.9,0,63.3c-5,0-9.4,0.2-13.8-0.1c-0.9-0.1-2-1.9-2.3-3.1c-0.9-4-1.5-8.1-2.3-12.2c-1.8-9.1-7.5-14.4-16.3-16.9
		c-13.9-3.8-28-2.5-42.5-2.7c0,20,0,39.7,0,60.5c12-0.8,23.7-1.6,35.3-2.6c1.4-0.1,3.1-2,3.7-3.5c1.6-4.3,3-8.8,3.9-13.3
		c0.8-4.2,2.7-6,7-5.5c2.8,0.3,5.6,0.1,8.7,0.1c0,25.4,0,50.1,0,75.7c-4.2,0-8.5,0.3-12.7-0.2c-1.1-0.1-2.4-2.4-2.7-3.9
		c-0.8-3.4-0.9-6.9-1.6-10.3c-2.2-10.6-4-12.8-14.6-13.7c-9.1-0.7-18.3-0.2-27.3-0.2c0,13-0.1,25.6,0,38.2c0,4.1,0.5,8.3,0.9,12.4
		c0.7,6.4,4.2,10.5,10.5,11.5c19,2.9,36.9,1.4,50.8-13.8c7.8-8.5,12.1-18.9,15.4-29.8c0.7-2.3,1.5-4.7,2.3-7.2
		c5.3,1,10,1.9,16.3,3.1c-5.6,22.4-10.9,44.1-16.3,65.7c-1,3.9-3.1,5.3-7.4,5.3c-48.8-0.2-97.6-0.1-146.5-0.1c-1.8,0-3.6,0-5.7,0
		c0-5.3,0-10,0-15.2c6-1.3,12.1-2.2,18.1-3.9c12.5-3.5,15.1-6.3,15.4-19.1c0.9-35.3,0.9-70.6,1-105.9c0-5.2-1.2-10.5-2.1-15.7
		c-1-6.1-4.8-9.8-10.5-11.3c-6.1-1.6-12.2-3-18.4-4.1c-2.8-0.5-4.1-1.3-4-4.3C1279.4,218.7,1279.2,215.1,1279.2,210.8z"/>
	<path class="st0" d="M1331.9,560.2c4.4-0.6,8-0.6,11.2-1.6c4.2-1.2,5.2,0.9,5.9,4.3c2.1,11.3,6.4,21.8,13.3,30.8
		c13.2,17.4,41,20.2,57.7,5.6c9.3-8.2,11.1-32.6-3.9-39.8c-10.3-4.9-20-11-30.1-16.3c-13.6-7.1-27.4-14.1-36.2-27.2
		c-14.5-21.5-13.1-51.3,9.4-68.7c19.8-15.4,42.3-17.4,66-13.2c4.9,0.9,9.6,2.2,14.4,3.5c3.1,0.9,5.1,1.2,8.2-1.7
		c2.3-2.2,7.7-1.2,12.7-1.6c0.9,20,1.8,39.3,2.7,59c-3.8,0.4-7.4,0.7-10.9,1.3c-3.8,0.6-5.1-1.1-5.9-4.7c-2.1-9.2-4-18.4-10.6-25.8
		c-10.1-11.4-30.8-14.6-43.3-6.3c-12,8-13,26.6-1,34.7c11,7.3,22.8,13.4,34.5,19.6c14,7.4,28.2,14.4,37.6,27.9
		c12.2,17.7,11.3,44.1-3,62.3c-11.5,14.7-27.2,21.9-44.9,25.3c-22.4,4.3-36.2,2.6-61.7-6.7c-5.9,6.3-7.4,6.8-17,5.2
		C1335.3,604.4,1333.7,582.6,1331.9,560.2z"/>
</g>
</svg>
