<?xml version="1.0" encoding="utf-8"?>
<!-- Generator: Adobe Illustrator 19.0.0, SVG Export Plug-In . SVG Version: 6.00 Build 0)  -->
<svg version="1.1" id="Layer_1" xmlns="http://www.w3.org/2000/svg" xmlns:xlink="http://www.w3.org/1999/xlink" x="0px" y="0px"
	 viewBox="0 0 5668 414.5" style="enable-background:new 0 0 5668 414.5;" xml:space="preserve">
<style type="text/css">
	.st0{fill:#FFFFFF;}
</style>
<g>
	<path class="st0" d="M19.3,394.4c2.4-1.7,4.7-3.7,7.2-5.2c18-11,29.4-26,33.8-47.5c15.5-74.3,32.3-148.2,48.2-222.4
		c7.2-33.5-3.5-60.7-30.5-81.5c-8.7-6.7-18.1-12.3-27.2-18.5c-1-0.7-2.2-2.1-2-2.9c0.2-1,1.7-2.2,2.8-2.4c2.3-0.5,4.6-0.5,6.9-0.5
		c124.5,0,248.9-0.1,373.4,0c15.8,0,31.7,0.3,47.3,2.1c24.9,2.9,48.8,9.9,70.4,23.2c25.2,15.5,39,38.3,43.7,67.2
		c4.2,25.8,2.7,51.5-2.6,76.9c-6.4,31-15.7,61.1-28.1,90.3c-20.1,47.3-52.9,81.4-99.6,103c-29.7,13.7-59.9,21.5-92.9,21.3
		c-109.6-0.8-219.3-0.5-328.9-0.6c-4.6,0-9.3,0.8-13.9,0.8c-2.7,0-5.4-0.9-8.1-1.4C19.3,395.7,19.3,395.1,19.3,394.4z M247.7,301.9
		c1.3,0.4,1.8,0.6,2.3,0.6c33.3,0.2,66.6,0.3,99.9,0.3c1.2,0,3.2-2,3.5-3.4c2.1-9.5,4-19.1,5.8-28.7c8.6-45.2,17.1-90.4,25.6-135.5
		c1.7-9.2,3.4-18.5,5.1-28.4c-2.5,0-4.3,0-6.1,0c-29.5,0-58.9,0-88.4,0c-10.3,0-10.3,0-12.4,9.9c-0.5,2.4-1,4.9-1.5,7.3
		c-8.9,47-17.9,94-26.8,141C252.3,277.2,250,289.4,247.7,301.9z"/>
	<path class="st0" d="M1316.7,398.1c9.7-48.5,19.3-96.1,29-144.4c-2.2-0.2-3.8-0.4-5.3-0.4c-36.2,0-72.3,0-108.5,0
		c-3.5,0-5.1,0.7-5.9,4.7c-8.9,44.5-18.1,89-27,133.5c-1,5-2.8,6.6-8.1,6.6c-168.1,0.2-336.3,0.5-504.4,0.9
		c-16.3,0-32.6,0.6-48.9,0.7c-13.5,0-26.3-2.3-35.6-13.5c-7.3-8.9-9.1-19.5-8.4-30.5c1.7-26.7,9.5-52.3,15-78.3
		c9.8-46.6,20.4-93.1,30.6-139.6c6.2-28.2,12.3-56.4,18.5-84.6c3.8-17.2,15-28.2,31.3-33.2c10.5-3.2,21.7-5.7,32.7-5.7
		c117.6-0.4,235.3-0.2,352.9-0.2c2.5,0,5,0.7,7.5,1c0.2,0.5,0.4,1.1,0.5,1.6c-2.8,2.7-5.5,5.5-8.5,7.9c-4.5,3.6-7.1,7.9-8.2,13.7
		c-6,30.3-12.4,60.6-18.7,90.8c-0.4,1.7-0.9,3.4-1.7,5.9c-1.9-1.4-3.1-2.2-4-3.2c-8.1-9.2-18.3-15.6-29.2-20.6c-4.4-2-9.6-3-14.5-3
		c-56.5-0.2-113,0-169.5,0c-2.4,0-4.8-0.6-5.6,3.2c-3.3,15.9-6.9,31.8-10.6,48.4c2.6,0,4.7,0,6.8,0c51,0.1,102,0.1,153,0.3
		c3.4,0,6.7,0.6,10.1,0.9c0.4,0.8,0.8,1.6,1.3,2.4c-1.7,1-3.4,2.1-5.1,3.1c-6.2,3.8-8.4,9.7-10.2,16.4c-7.1,27-23.7,47.4-46.3,63
		c-9.2,6.4-20.1,8.6-31.3,8.6c-30.8-0.1-61.7,0-92.5-0.2c-4.2,0-5.7,1.3-6.6,5.3c-2.6,12-5.5,24-8.3,36c-1.3,5.5-0.2,7.6,5.4,8
		c8.1,0.6,16.3,0.6,24.4,0.5c65.8-0.5,131.6-1.4,197.4-1.5c24.3-0.1,42.8-9.9,57.3-28.8c5.6-7.4,6.6-16.2,8.4-24.8
		c14.8-68.6,29.5-137.3,44.2-205.9c3.5-16.2,14.1-25.6,32-28.1c4.8-0.6,9.6-1,14.4-1c100.6,0,201.3,0,301.9,0.1
		c13.6,0,26.8,1.8,39.3,7.5c21.1,9.7,32.9,30.9,28.3,53.5c-17.5,87-35.4,174-53.3,260.9c-3.1,14.9-8.3,29.1-15.9,42.3
		c-8,13.8-19.5,21-36,20.7c-36-0.6-72-0.5-108-0.7C1321.3,398.1,1319.5,398.1,1316.7,398.1z M1375.8,108.5c-2.7,0-4.5,0-6.3,0
		c-29.5,0-58.9,0-88.4,0c-6.3,0-12.7-0.1-19,0.1c-1.3,0-3.4,1.2-3.6,2.2c-3.3,15-6.3,30.1-9.5,46c39.7,0,78.7,0,118,0
		C1369.9,140.9,1372.8,125.1,1375.8,108.5z"/>
	<path class="st0" d="M2486.6,414.5c-31.9-0.9-69.9-2.4-106.9-12c-25.2-6.5-48.9-16.3-69.6-32.6c-28-22.1-44.4-51.2-47-86.5
		c-6.1-82.4,19.5-154,76.7-213.7c21.5-22.4,49.1-35.7,78-46c35.9-12.8,73-20.2,111-22.3c26.1-1.4,52.3-2,78.3-0.8
		c43.7,2,86.5,9.6,126.8,27.8c38.2,17.2,62.8,45.4,71.5,86.9c3.8,18,3.5,36.1,1.4,54.1c-3.3,27.5-9.4,54.4-20.3,80
		c-35.3,82.3-97.2,132.8-184.1,153C2566.4,411,2529.7,414.4,2486.6,414.5z M2493.4,106.7c-11.8,65.5-23.5,130.8-35.2,196.5
		c2,0.2,3.3,0.4,4.6,0.4c33.5,0.1,66.9,0.1,100.4,0.5c4.3,0,4.9-2.2,5.5-5.3c3.1-16.3,6.1-32.6,9.2-48.9
		c6.2-32.6,12.5-65.2,18.7-97.8c2.8-15,5.5-30,8.3-45.3C2567.6,106.7,2530.7,106.7,2493.4,106.7z"/>
	<path class="st0" d="M1553.8,14.9c2.6-0.6,4.1-1.2,5.6-1.4c2.1-0.2,4.3-0.1,6.5-0.1c120.8,0,241.6-0.2,362.4,0.1
		c31.5,0.1,62.1,6.1,91,19.2c13.2,5.9,25.1,13.8,34.3,25.2c9.6,11.9,14,26.2,16,40.9c8.4,60.4,0.8,119-23.6,174.8
		c-12.9,29.5-35,52.5-58.7,73.8c-23.2,20.8-49.4,37-80,44.3c-11.5,2.8-23.6,4.5-35.5,4.5c-115.5,0.2-231,0-346.4-0.1
		c-5.3,0-10.7-0.2-16-0.4c-1.4,0-2.8-0.4-4.2-0.6c-0.4-0.6-0.9-1.3-1.3-1.9c1.3-0.7,2.9-1.1,3.9-2c5.3-4.8,10.4-9.9,15.7-14.6
		c16.7-14.7,21.5-34.5,25.6-55.3c11.6-57.8,24.2-115.3,36.2-173c3.4-16.3,7-32.6,8.7-49.1c1.6-16.1-3.2-31.6-9.9-46.3
		c-6.3-13.8-15.4-25.7-27.6-34.9C1556,17.4,1555.4,16.6,1553.8,14.9z M1729.1,301.9c1.2,0.2,1.8,0.4,2.5,0.4
		c33.1,0.1,66.3,0.1,99.4,0.2c2.7,0,3.6-1,4.1-3.6c8.9-44.9,18-89.8,26.9-134.7c3.7-18.7,7.3-37.5,11.1-56.9c-7.4,0-14.2,0-21,0
		c-27.8-0.1-55.6-0.3-83.4-0.5c-3,0-4.5,0.5-4.9,3.9c-0.5,4.8-1.8,9.5-2.6,14.2c-9.3,50.7-18.5,101.4-27.8,152.1
		C1732,285.2,1730.6,293.4,1729.1,301.9z"/>
	<path class="st0" d="M3203.7,245.8c41.4,43.8,73.7,93.1,95.3,150.2c-2.6,0.1-4.5,0.3-6.4,0.3c-60.3,0-120.6,0-180.9-0.1
		c-8.5,0-8.4-0.2-10.7-8.2c-11.4-40.2-32.3-74-67.3-97.9c-11.9-8.2-25.1-13.5-39.5-17.6c-9.1,42.1-18.1,84-27.3,126.3
		c-2,0-3.8,0-5.6,0c-53-0.1-106-0.2-158.9-0.3c-1,0-2,0-3,0c-5-0.4-6.1-1.8-5-6.8c4.1-19.2,8.2-38.3,12.2-57.5
		c14.2-67.2,28.3-134.5,42.4-201.8c7.7-36.7,15.4-73.4,23.1-110.1c1.5-6.9,3.2-8.3,10.6-8.6c2.7-0.1,5.3-0.1,8-0.1
		c143.4,0,286.9,0,430.3,0c9.8,0,10.6,1.2,9.4,11.2c-1.7,14-2.2,28.3-4.6,42.1c-8.2,46.6-24.6,89.7-55.1,126.7
		c-17.3,21-38.3,37.4-62.6,49.6c-1,0.5-2.1,1-3.1,1.5C3204.6,244.8,3204.4,245.1,3203.7,245.8z M3013.4,180.2
		c13.6,1.6,26.1,0.3,38.6-1.8c22.1-3.7,43.4-10.1,62.1-22.9c14.1-9.6,25.6-21.7,33.2-37.2c2.2-4.5,1.3-5.8-3.4-5.8
		c-37.1,0-74.3,0-111.4-0.1c-3.4,0-4.6,1.2-5.3,4.3c-2.5,12-5.3,24-8,36C3017.2,161.7,3015.4,170.6,3013.4,180.2z"/>
	<path class="st0" d="M3799.4,253.4c-40.6,0-80.7,0-121.1,0c-3.1,15.3-6.3,30.4-9.3,45.5c-6.4,31.8-12.8,63.5-19.1,95.3
		c-0.7,3.5-2.1,4.4-5.6,4.4c-53.5-0.2-107-0.2-160.5-0.3c-2,0-4-0.6-7.4-1c2.6-2.7,3.9-4.6,5.7-5.9c14.1-10.5,21.3-25,24.8-41.9
		c19.9-95.6,39.9-191.1,60-286.6c1.5-7.3,3.3-14.5,5.1-21.8c3.3-12.9,17.3-23.9,32.6-25.7c4.9-0.6,9.9-0.9,14.9-0.9
		c95.8-0.3,191.6-0.5,287.4-0.6c16.8,0,33.5,1.3,49.5,7.4c27,10.2,37.9,30.9,32.3,58.7c-15.7,77.7-32.1,155.3-48.2,232.9
		c-3.1,15.1-6.2,30.3-9.7,45.4c-3.5,14.9-10.8,27.7-24.1,35.9c-5,3.1-11.6,5.1-17.4,5.1c-37.5,0.1-75-0.5-112.5-0.8
		c-4.1,0-4.8-2.1-4.1-5.5c7.5-38.5,15-76.9,22.4-115.4C3796.7,269.8,3798,261.9,3799.4,253.4z M3700.4,155.5c2.8,0,4.6,0,6.4,0
		c34.3,0.2,68.6,0.4,102.9,0.6c11.8,0.1,12,0.1,14.5-11.2c2.9-12.9,5.6-25.8,8.4-39.2c-2.4,0-4.2,0-6.1,0c-33.5,0-66.9,0-100.4,0
		c-4.8,0-10.8-1.3-13.9,1.1c-2.9,2.2-2.9,8.4-3.9,12.9C3705.7,131.4,3703.2,143,3700.4,155.5z"/>
	<path class="st0" d="M5649.3,13.1c-9.1,41.6-18,82.4-26.9,123.3c-0.5,0.1-1.1,0.2-1.6,0.3c-1.2-1.6-2.6-3.2-3.7-4.9
		c-10.3-16.3-26.1-23.6-44.3-23.8c-58.2-0.6-116.3-0.2-174.5-0.2c-0.3,0-0.6,0.1-1.8,0.4c-3.1,16.6-6.3,33.4-9.6,51
		c52.9,0,105.2,0,158.5,0c-1,6.8-1.5,13-2.9,19.1c-4.4,19.6-11.6,37.9-26.5,52.2c-15.3,14.7-33.7,22.5-54.9,22.7
		c-30.2,0.3-60.3,0.2-90.5,0c-4,0-5.5,1.1-6.1,5.1c-2.1,14.1-4.6,28.1-7,43c79.8,0,158.7,0,238.2,0c-3.4,16.3-6.5,31.9-9.8,47.4
		c-3.3,15.3-6.9,30.5-10,45.8c-0.8,3.7-2.4,4.4-5.7,4.4c-12-0.1-24,0-36,0c-92.5,0.1-185,0.1-277.5,0.2c-13.2,0-26.3,0-39.5-0.1
		c-12-0.2-23-3.7-32.7-10.7c-14-10.1-18.1-24.3-14.7-40.6c10.1-47.9,20.5-95.8,30.7-143.7c10.6-49.5,20.7-99.1,31.8-148.5
		c6.2-27.9,25.7-42.4,54.4-42.3c28.8,0,57.7,0.1,86.5,0.1c89,0,178,0,267,0C5642.8,13.1,5645.4,13.1,5649.3,13.1z"/>
	<path class="st0" d="M4697,13.5c2.2,0,4,0,5.8,0c51.2,0,102.3-0.1,153.5-0.1c11.2,0,14.2,2.4,16.3,13.2
		c13.8,69.8,27.5,139.6,41.3,209.4c1.3,6.5,2.7,13,4.3,20.6c1.6-2.4,2.8-4.1,3.9-5.9c38.5-61.9,76.7-123.9,115.5-185.6
		c20.7-32.9,50.6-50.8,89.8-51.5c29-0.5,58-0.2,87,0c2.2,0,4.8,1.1,6.5,2.5c0.5,0.5-0.8,3.9-1.9,5.5
		c-73.7,112.4-147.4,224.7-221.3,337c-8.9,13.5-20.8,24.2-34.5,32.8c-6.8,4.3-14.2,6.1-22.3,6.1c-49.3,0.2-98.6,0.5-147.9,0.9
		c-3.5,0-4.8-0.9-5.6-4.4c-16.5-69.6-33.2-139.2-49.8-208.9c-13.2-55.4-26.4-110.8-39.6-166.2C4697.6,17.3,4697.4,15.7,4697,13.5z"
		/>
	<path class="st0" d="M4011.5,15.5c0.9-0.2,2.6-1,4.4-1c42.3,0,84.6-0.1,127,0.2c14,0.1,27.7,2.5,40.9,7.7
		c29.8,11.6,45.7,40.4,39.3,71.8c-10.1,49.9-20.5,99.6-30.3,149.6c-1.5,7.5-0.9,15.7,0.5,23.3c2.7,15.1,19.1,27.5,35.1,27.5
		c53.7,0.2,107.3,0.4,161,0.6c8.9,0,9.2,0.2,7.3,8.5c-6.4,28.4-12.9,56.7-19.5,85c-1.9,8-4.4,9.9-12.5,9.9
		c-128.1-0.1-256.3-0.1-384.4-0.2c-3,0-6-0.1-9,0c-3.3,0-6.5-0.3-7.6-4.2c-1.1-3.8,1-6.2,3.8-8.5c4.3-3.4,8.8-6.6,12.4-10.7
		c14.5-16.5,21.6-36.5,25.7-57.6c10.1-51.3,20.2-102.6,29.7-154.1c3.8-20.4,7.2-41,8.5-61.7c1.6-25.3-2.4-49.9-18.8-70.7
		C4020.9,25.7,4016.2,20.8,4011.5,15.5z"/>
	<path class="st0" d="M4412.4,398.2c27.2-128.4,54.3-256.1,81.4-384.2c1.6-0.1,3-0.3,4.5-0.3c53,0,106,0,158.9,0c1,0,2,0,3,0.1
		c5.8,0.5,7.7,2.7,6.6,8.6c-2.9,15.3-6,30.7-9.2,46c-19,92.1-38.2,184.2-57.2,276.4c-3.1,15.1-7.8,29.3-18.4,40.8
		c-8,8.7-17.9,13.2-29.7,13.2c-45.3,0-90.6-0.1-135.9-0.2C4415.4,398.4,4414.2,398.3,4412.4,398.2z"/>
</g>
</svg>
