<?xml version="1.0" encoding="utf-8"?>
<!-- Generator: Adobe Illustrator 19.0.0, SVG Export Plug-In . SVG Version: 6.00 Build 0)  -->
<svg version="1.1" id="Layer_2" xmlns="http://www.w3.org/2000/svg" xmlns:xlink="http://www.w3.org/1999/xlink" x="0px" y="0px"
	 viewBox="88 278.6 787.5 237.4" style="enable-background:new 88 278.6 787.5 237.4;" xml:space="preserve">
<style type="text/css">
	.st0{fill:#FFFFFF;}
</style>
<g id="Design">
	<g>
		<path class="st0" d="M681.1,409.9H556.9v5.9c5.9,0,11,3.1,13.9,7.8l0,0v67.5c0,13.7,11.1,24.8,24.8,24.8h85.5
			c13.7,0,24.8-11.1,24.8-24.8v-15.4h-28v15.4c0,2.9-2.3,5.2-5.2,5.2H604c-2.9,0-5.2-2.3-5.2-5.2v-37l-5-5v-19.6h78.9
			c2.9,0,5.2,2.3,5.2,5.2v15.4h28v-15.4C705.9,421,694.8,409.9,681.1,409.9L681.1,409.9z"/>
		<path class="st0" d="M802.6,344v-24.7c0-22.4-18.2-40.6-40.6-40.6H657.8V371c-2.8,4.7-8,7.8-13.9,7.8v5.9h118
			C784.3,384.6,802.6,366.4,802.6,344z M685.8,365v-66.8h67.7c11.6,0,21,9.4,21,21v24.7c0,11.6-9.4,21-21,21L685.8,365L685.8,365z"
			/>
		<rect x="336.2" y="278.6" class="st0" width="124.3" height="19.6"/>
		<path class="st0" d="M460.5,365h-96.3v-23.6h76.3v-19.6h-76.6l-8.4-8.4h-19.2v57.5l0,0c-2.8,4.7-8,7.8-13.9,7.8v5.9h138.2V365
			C460.6,365,460.5,365,460.5,365z"/>
		<path class="st0" d="M161,292.3v92.3h104.1c22.4,0,40.6-18.2,40.6-40.6v-24.7c0-22.4-18.2-40.6-40.6-40.6h-118v5.9
			C153,284.5,158.1,287.7,161,292.3z M256.7,298.2c11.6,0,21,9.4,21,21v24.7c0,11.6-9.4,21-21,21h-41.5l-5,5h-21.3v-71.8h67.8V298.2
			z"/>
		<path class="st0" d="M401.7,434.7c0-13.7-11.1-24.8-24.8-24.8H273.3v92.3l0,0c-2.8,4.7-8,7.8-13.9,7.8v5.9h41.9v-33.4h75.6
			c13.7,0,24.8-11.1,24.8-24.8V434.7L401.7,434.7z M373.7,457.7c0,2.9-2.3,5.2-5.2,5.2h-67.2v-38.4h21.9l5,5h40.3
			c2.9,0,5.2,2.3,5.2,5.2V457.7L373.7,457.7L373.7,457.7z"/>
		<path class="st0" d="M216.7,409.9H88v5.9c5.9,0,11,3.1,13.9,7.8l0,0v24.3c0,13.7,11.1,24.8,24.8,24.8h81.6c2.9,0,5.2,2.3,5.2,5.2
			v13.2c0,2.9-2.3,5.2-5.2,5.2h-73.2c-2.9,0-5.2-2.3-5.2-5.2v-5.6h-28v30.4h114.8c13.7,0,24.8-11.1,24.8-24.8v-13.2
			c0-13.7-11.1-24.8-24.8-24.8h-81.6c-2.9,0-5.2-2.3-5.2-5.2v-18.4h78.4c2.9,0,5.2,2.3,5.2,5.2v6h28v-6
			C241.5,421,230.4,409.9,216.7,409.9L216.7,409.9z"/>
		<path class="st0" d="M765.3,496.3v-23.6h76.3v-14.6h-26.3l-5-5h-45v-23.6h96.3v-19.6H737.3v92.3c-2.8,4.7-8,7.8-13.9,7.8v5.9
			h152.1v-19.6H765.3L765.3,496.3z"/>
		<path class="st0" d="M439.2,409.9v5.9c5.6,0,10.5,2.8,13.4,7.1l-50.4,93h28.9l10.1-18.6h28.3l5-5h43.1l6,11
			c-2.9,4.1-7.7,6.8-13.2,6.8v5.9h48.8l-57.5-106L439.2,409.9L439.2,409.9z M507,472.7h-52.5l23.4-43.2h5.6L507,472.7z"/>
		<path class="st0" d="M524.6,378.8c-5.4,0-10.2-2.7-13.2-6.8l6-11h43.1l5,5h28.3l10.1,18.6h28.8l-50.4-93c2.9-4.3,7.8-7.1,13.4-7.1
			v-5.9h-62.6l-57.5,106h48.8v-5.8H524.6L524.6,378.8z M551.4,298.2h5.6l23.4,43.2h-52.5L551.4,298.2z"/>
		<g>
			<path class="st0" d="M869.6,409.9v1.2h-1.5v4.8h-1.3v-4.8H865v-1.2H869.6z"/>
			<path class="st0" d="M875.5,409.9v6h-1.2v-3.5h-0.2l-0.8,2.2h-0.6l-0.8-2.2h-0.1v3.5h-1.2v-6h1.4l1,2.8h0.1l1-2.8H875.5
				L875.5,409.9z"/>
		</g>
	</g>
</g>
</svg>
