<?xml version="1.0" encoding="utf-8"?>
<!-- Generator: Adobe Illustrator 19.0.0, SVG Export Plug-In . SVG Version: 6.00 Build 0)  -->
<svg version="1.1" id="Layer_1" xmlns="http://www.w3.org/2000/svg" xmlns:xlink="http://www.w3.org/1999/xlink" x="0px" y="0px"
	 viewBox="0 0 1863.8 498" style="enable-background:new 0 0 1863.8 498;" xml:space="preserve">
<style type="text/css">
	.st0{fill:#FFFFFF;}
</style>
<g>
	<path class="st0" d="M2.5,113.3c-0.2-0.3-1-1.1-1.9-2c0.4-2.2,0.9-4.5,1.3-6.6c-0.8-0.8-1.4-1.4-2.1-2.1c0-0.4-0.1-0.9-0.1-1.4
		c0-27.3,0-54.7,0-82c0-2.1-0.3-4.3,1.3-5.9c1.5-1.5,0-3.2,1.2-5.2c0.7,0,2,0,3.3,0c13.8,0,27.7,0,41.5,0c2.3,0,4.5,0.3,6.2,2
		c1.6,0,3.3,0,5,0c1.6-1.5,3.5-2,5.7-2C74.7,8,85.6,7.9,96.4,8c2.4,0,4.7,0.7,7.1,0.9c2.3,0.2,4.9-0.5,6.9,0.2
		c2.9,1,5.8,0.3,8.6,0.9c6.1,1.4,12.3,2,18.4,3.7c6.4,1.7,12.3,4.1,18,7.3c1.8,1,3.5,2.2,5.1,3.3c6,4.2,10.2,9.9,14.3,16
		c4.5,6.7,7.2,14.1,9.7,21.5c1.3,4.1,2.5,8.6,2.3,13.1c0,0.5,0.5,1.1,0.9,1.7c-1.3,2.5-2.6,5.1-4,7.9c1.5,2.9,3.1,5.9,5,9.6
		c0,22.5,0,45.8,0,69.2c-2.1,2.7-4.3,5.3-2,9.3c1,1.8,0.7,4.4,1.2,6.5c0.3,1.5,1.1,2.9,1.6,4.4c-2.3,1.6,1,3.1,0.4,5
		c-0.5,1.8-0.1,4-0.1,6.4c-0.5,0.5-1.2,1.2-2.2,2.2c0.6,1.3,1.3,2.8,2.2,4.9c0,26.8,0,54.3,0,81.8c0,16.3,0,32.7,0,49
		c0,2.5-0.5,5.1-1,7.6c-0.3,1.1-1.2,2.2-2.1,3.1c-1.2,1.4-2.6,2.6-3.9,3.9c0,3,0,6,0,9c0.6,0.6,1.2,1.1,1.7,1.7
		c1.1,5.6-0.5,10.7-3,15.6c-2.8,5.6-6.2,10.8-11,14.9c-1.5,0.5-2.9,1-4.4,1.5c-1,3.5-3.3,6-6.6,7.6c-5.9,2.9-12,5-18.4,6.3
		c-5,1-10,2.3-15.2,1.8c-2.4-0.2-4.3,1.2-6.6,1.1c-2.3-0.1-4.7,0-6.6,0c-1.9-1-3.6-1.9-5.6-2.9c-2.3-0.3-4.8,0-7.4,1.4
		c-1.8,1-4,1.6-6.4,1.6c-31-0.1-62-0.1-93.2-0.1c0-12.8,0-25.5,0-38.8c0.4-0.3,1.2-0.9,1.7-1.3c0-3.7,0-7,0-10.1
		c0.8-1.4,1.4-2.7,2.2-4.1c-1.2-1.2-2.3-2.3-3.4-3.5c1.2-1.7,1.8-3.1,0.3-4.9c-1.4-1.7-1.3-3.9-0.9-6c2.4-4.1,2.6-4.4,0.8-8.8
		c-0.5-1.3-0.9-2.4-0.9-3.6c0-44,0-88,0-132c0-1.1-0.4-2.3,0.6-3.3c0.4-0.3,0.5-1.4,0.3-1.8c-1.8-2.7-0.9-5.8-0.9-8.6
		c-0.1-12.3,0-24.7-0.1-37c0-4,0.1-8,1.9-11.7c0.3-0.7,0.1-1.6,0.2-2.4c0-2.3-0.1-4.7,0-7C1.9,119.4,2.2,116.7,2.5,113.3z
		 M81.9,77.1c0,87.2,0,173.9,0,260.6c0.6,0.5,1.1,1,1.4,1.3c1.4-0.3,2.6-0.7,3.8-0.9c1.1-0.2,2.1-0.5,3.2-0.8
		c2.9-0.8,5.4-2.6,8.2-3.1c2.4-0.5,3.3-1.7,4.5-3.7c3-5,3.7-10.5,3.7-15.9c0.2-39.5,0.1-78.9,0.1-118.4c0-34,0-68,0-101.9
		c0-3.9-1.1-7.3-2.9-10.8c-1.4-2.8-4-4.2-5.5-6.3C92.7,77.1,87.4,77.1,81.9,77.1z"/>
	<path class="st0" d="M1463.8,80.8c0.8-1.5,1.4-2.6,2-3.7c-3.3-5.9-1.6-12.4-2-17.8c1.6-5.3,5.4-8,8.5-11.3c19.7,0,39.3,0,59.4,0
		c0.7,3.7,1.2,7.6,2.2,11.4c1.3,4.8,2.2,9.7,3.4,14.6c1.1,4.5,2.6,9,3.6,13.5c0,0.2-0.1,0.4,0,0.5c3.2,4.5,1.7,9.7,2,14.7
		c0.1,2.3,0,4.6,0,6.8c5.2,4.9,7.6,10.9,9.1,17.5c0.8,3.4,1.1,6.8,1.9,10.2c0.8,3.2,1.4,6.4,2.2,9.6c1.2,4.7,2.6,9.3,3.8,13.9
		c1.1,4.4,2,8.8,3.3,13.1c1.4,4.6,2.3,9.4,3.7,14c1.6,5.4,2.9,10.8,4.4,16.2c0.5,1.8,1.5,3.6,1.5,5.3c0,5.4,2.5,10,4.4,14.7
		c0.2-0.1,0.3-0.1,0.4-0.2c0.1-0.1,0.2-0.3,0.2-0.4c0-49,0-98,0-146.8c0.7-0.7,1.3-1.3,2-2c-0.3-2,0.6-4.4-1-6.4
		c0-5.3-0.1-10.7,0.1-16c0.1-1.4,1.3-2.8,2-4.1c14.6,0,28.9,0,43.2,0c1.4,0,2.9,0.4,4,1c0.9,0.5,1.6,1.1,2.6,0.9
		c1.2-0.3,2.4-0.8,3.6-1c1.3-0.2,3.1,0.4,3.9-0.2c2.4-1.9,4.8,0,7.5-1.4c0,2.1,0,3.5,0,5c0,35,0,70,0,105c0,2.3,0.1,4.5-1.4,6.4
		c-1.1,1.4-0.9,2.8,0.1,4.5c1,1.8,2.5,3.8,0.4,6.1c-0.5,0.6-0.6,2.3-0.1,2.8c1.4,1.6,0.9,3.4,0.9,5.2c0,43,0,86,0,129
		c0,2.1,0,4.2-1,6.1c-1.5,2.9-0.9,6-0.5,8.9c0.6,1.9,1.3,3.8,2,5.9c-1.1,0.7-1.9,1.2-2.1,1.3c0.7,2.8,1.6,4.9,1.6,7
		c0.1,35.3,0.1,70.6,0.1,106.4c-5.9-0.3-12,1.4-16.9-3.4c-1.2,0.6-2,1-2.8,1.3c-2.8,1.1-5.5,2.1-8.7,2.1
		c-13.7-0.1-27.3-0.1-41.5-0.1c-1.3-4.4-2.8-9-4.1-13.5c-1.6-5.6-2.2-11.5-3.1-17.2c-0.4-2.7-1.5-5.4-2.3-8c-0.6-2.3-1-4.6-1.7-6.8
		c-1.1-3.8-0.7-7.9-2.5-11.4c-0.3-0.5-0.5-1.2-0.4-1.8c0.6-4.3-1.3-8.1-2.4-12c-0.2-0.7-0.6-1.5-0.6-2.2c0.1-2.8-0.9-5.2-2-7.7
		c-1.1-2.4-1.6-5-2.2-7.6c-1.4-7-2.6-14.1-4.6-21c-1.7-5.8-2.9-11.8-4.3-17.7c-1.5-6-2.9-12.1-4.6-18.1c-1.1-3.6-1.5-7.4-2.3-11.1
		c-1.1-4.5-2.3-9-3.4-13.6c-0.4-1.5-0.6-3.1-0.8-4.6c-0.4-0.5-0.8-1-1.2-1.5c-0.4,0.4-0.8,0.8-1.3,1.3c0,55.2,0,110.7,0,166.5
		c-1.8,0.9-3.6,1.7-5.4,2.6c-0.2-0.2-0.3-0.4-0.5-0.6c-1.3,2-2.5,3.9-4,6.1c-19.1,0-38.5,0-58.3,0c0-1.7,0-3.3,0-4.9
		c0-25.8,0-51.7,0-77.5c0-1.9-0.6-3.9,0.6-5.7c1-1.6-0.4-3.8,1.3-5.5c0.5-0.5,0.1-1.9,0.1-2.8c-0.7-0.7-1.3-1.3-2-2
		c0-3.9-0.2-7.9,0-11.8c0.2-3.9-1.1-7.9,1-11.7c-0.3-0.6-0.9-1.3-1-2c-0.2-1.1,0-2.3,0-3.5c0-47,0-94,0-141c0-1.7-0.7-3.6,0.9-5.1
		c0.4-0.4,0.4-1.8,0-2.4c-1.6-2.4-0.9-5.1-0.9-7.6C1463.7,135.8,1463.8,108.3,1463.8,80.8z"/>
	<path class="st0" d="M1004.8,455.8c-2,1.6-4.2,3.3-6.3,5c-15.4,0.8-29.7,0.4-32.5-0.8c-0.9,0.3-1.7,1-2.6,1
		c-11.5,0.1-22.9,0-34.6,0c0-1.9,0-3.5,0-5.2c0-50,0-100,0.1-150c0-4.1-1-7.9-2.4-11.5c-2.2-5.8-6.5-9.5-12.5-11.4
		c-3.2-1-6.4-1-9.6-0.9c-0.1,0.1-0.2,0.2-0.3,0.3c-0.1,0.1-0.2,0.3-0.2,0.4c0,59.3,0,118.6,0,178.1c-4.6,0-9.1,0-14,0
		c-0.3-0.4-0.9-1.2-1.4-1.8c-0.4,0-0.7-0.1-0.8,0c-1.2,1.6-3.3,0.3-4.5,1.3c-1.3,1-2.5,0.7-3.7,0.7c-18.3,0-36.7,0-55,0
		c-0.5,0-0.9-0.1-1.7-0.2c0-6.7-0.2-13.3,0.1-20c0.1-2.7,1.3-5.4,2.1-8.4c-0.8-0.5-1.7-1.1-2.2-1.4c0-45.9,0-91.2-0.1-136.6
		c0-2.7,1.5-4.8,2.3-7.3c-0.8-1-1.5-2-2.4-3.2c0.3-0.9,0.7-1.9,1.2-3.4c-0.5-0.6-1.3-1.4-2.2-2.3c1.7-3.8,1.1-7.9,1.1-11.9
		c0-51.7,0-103.3,0.1-155c0-3.7,1.4-7.5,0.8-11.1c-1.1-5.7-0.7-11.4-0.8-17.1c-0.1-5.8,0-11.7,0-17.5c0-0.8,0-1.6,0-2.7
		c1.1,0,2.1,0,3.1,0c31.3,0,62.7,0,94,0c2.5,0,5,0.8,7.6,0.9c2.7,0.2,5.5-0.5,8,0.2c2.2,0.6,4.4,0.7,6.6,0.9c2,0.2,4.1,0.5,6.1,1
		c1.8,0.5,3.4,1.4,4.9,2.8c1.5,0,2.9,0,4.6,0c0.5,0.7,1.1,1.5,1.9,2.6c1.1-0.9,1.9-1.6,2.8-2.3c15.1,8.6,11.6,6.5,22.3,17.2
		c1.7,3.4,2.7,5.8,4.1,8.1c2.8,4.5,5.2,9,7.3,14c1.8,4.5,3.3,9,4.7,13.6c1.5,4.9,2.4,10.2,2.9,15.2c0.4,4.5,1.4,9,1.3,13.6
		c-0.2,9.2-0.3,18.3,0,27.5c0.3,7.1-0.6,14.1-1.3,21.1c-0.3,3.4-0.5,6.7-0.9,10.1c-0.2,1.7-1.1,3.3-1,5.1c0.1,1.6-1.3,2.9-1,4.6
		c0.1,0.4-0.8,1-1,1.5c-0.7,1.7-1.9,3.5-1.8,5.2c0.3,5.9-2.9,10-6.4,13.9c-4.8,5.3-10.8,8.5-17.7,10.3c-3.7,1-7.3,2.4-11,3.7
		c0,0.2,0,0.5,0,0.8c5.5,1.7,10.6,4.1,15.5,7.2c3.6,2.3,7.3,4.4,10.3,7.6c1.5,1.6,3,3.4,4.1,5.3c2.1,3.4,4.1,6.9,5.8,10.6
		c2.1,4.7,3.3,9.6,4.4,14.7c1.3,5.9,0.7,11.7,0.8,17.6c0.2,5.5,0,11,0,16.5c0,3.5-0.8,6.9-1.8,10.3c-0.4,1.6-0.8,3.4,0.6,5.1
		c0.9,1.1,1.3,2.8,2.2,4.8C1004.8,387.5,1004.8,421.5,1004.8,455.8z M905.3,220c4.2-0.4,8.5-1,12.6-3c6.4-3.3,9.7-8.6,9.8-15.6
		c0.2-16.8,0.1-33.6,0.1-50.5c0-2-0.4-3.8-1-5.6c-1.8-5.4-6.2-10.3-12.6-12.6c-3.6-1.3-6.9-0.5-10.2-0.6c0,29.1,0,57.9,0,86.5
		C904.4,219.2,904.8,219.5,905.3,220z"/>
	<path class="st0" d="M1831.9,28.6c2.2,2.6,4.9,4.1,8.2,3.3c4.2,3.7,6.1,8.4,8.8,12.7c4.1,6.5,5.7,14,8.8,20.9
		c-0.2,4,2.4,7.6,2.1,11.7c-0.1,1.7,0.7,3.4,0.9,5.1c0.2,1.6-0.4,3.3,1,4.6c0.1,0.1,0,0.3,0,0.5c-0.7,4.8,1,9.4,1.1,14.1
		c0.2,7.9,1.3,15.7,1,23.6c-0.3,7.8-0.1,15.7-0.1,23.5c-3.1,1.4-4.9,4.3-7.5,6.5c-24.3,0-48.7,0-73.5,0c0-1.7,0-3.3,0-5
		c0-20,0-40,0-60c0-5.6-1.5-11.3-4.6-17.1c-2.8-5.4-7.3-7-13.1-4.9c-0.4,0.2-1,0-1.8,0c-4.9,4.3-7.3,10.1-7.4,16.6
		c-0.1,4.1-1.7,8.1-1.1,12.1c1.9,12.7,0.7,25.4,0.9,38.1c0.2,12.8,0.1,25.7,0.1,38.5s0,25.7,0,38.5c0,12.7,0,25.3,0,38
		c0,12.8,0,25.7,0,38.5s0,25.7,0,38.5c0,4,0.8,7.9,2,11.7c1.3,4.1,3.4,7.8,7.9,9c2.3,0.6,4.8,0.6,7,0.9c6.2-3.1,8.4-8.4,10.2-14.4
		c1.9-6.5,2-13.1,1.9-19.7c0-18.7,0-37.3,0-56c0-1.6,0-3.3,0-5.1c-5.3,0-10.5,0-15.8,0c0-19.7,0-39.3,0-59.1c10.2,0,20.4,0,30.5,0
		c0.9,0,1.8,0.6,2.7,0.8c0.8,0.2,1.8,0.4,2.4,0.1c3.4-1.7,7.1-0.9,10.6-0.9c14.7-0.1,29.3,0,44,0c1.5,0,2.9,0,4.7,0
		c-0.3,6.9,1,13.8-3.3,20.1c3,3.5,3.3,7.6,3.3,12c-0.1,26.5,0,53-0.1,79.5c0,2,0.6,4.1-0.8,6.2c-0.5,0.7,0.5,2.3,0.9,3.8
		c-0.6,0.5-1.4,1.1-2.2,1.7c2.2,1.5,0.7,3.6,1.5,5.4c-0.9,0.6-1.7,1.2-2.5,1.8c0.4,0.7,0.6,1.1,0.8,1.5c1.5,3,2.5,6,2.5,9.5
		c-0.1,21.3-0.1,42.7-0.1,63.4c-2,1.7-3.6,3.2-5.7,5.1c-2.1-0.1-4.6,0-6.7,1.9c-12.8,0-25.5,0-38.2,0c-2.6-8.4-5.3-16.6-8-25.2
		c-0.8,0.6-1.9,1-2.3,1.7c-4,8.8-10.3,15.9-17.4,22.2c-2.1,1.9-4.4,4-7.6,4.4c-1.6,0.2-3.1,1.3-4.6,2c-1.9,0.9-3.4,3.3-5.8,1
		c-1.9,1-4,1.5-6.1,2c-3.3,0.8-8.7,1.2-11.4,0.5c-0.9-0.3-1.8-0.5-2.8-0.5c-8.9-0.3-20.7-4.1-27.8-9c-0.1-0.1-0.3-0.2-0.4-0.3
		c-2.2-3.2-5-5.8-8-8.1c-0.3-0.2-0.2-0.9-0.3-1.6c-2-0.4-4-0.9-6.8-1.5c-4.6-5.9-10.6-11.8-14-19.7c-0.8-1.8-1.9-3.6-3-5.3
		c-1.7-2.5-2.2-5.4-3.3-8.2c-1.1-2.8-1.8-5.6-2.9-8.3c-1.9-4.7-1.6-9.9-3.7-14.5c-0.1-0.3-0.1-0.6-0.1-1c-0.3-4.4-0.3-8.8-1.1-13.1
		c-1.8-9.5-0.6-19.1-0.9-28.6c-0.2-9.5,0-19,0-28.5c0-55.7,0-111.3,0-167c0-2.2-0.1-4.4,0.9-6.6c0.9-2-0.1-4.3,0.9-6.6
		c1-2.4,0.8-5.3,1-8c0.9-8.3,3.9-16.2,5.3-24.4c0.3-2,1.9-3.9,3.2-5.6c1.1-1.5,2.6-2.6,3.8-3.9c2.2-2.3,4.9-4.3,5-7.9
		c0-0.8,0.7-1.8,1.4-2.4c1.4-1.3,2.9-2.4,4.4-3.6c-0.8-2.4,2.2-3.1,2.2-5.1c2.6-2,4.4-4.7,7.3-6.5c2.9-1.9,5.4-4.4,8.4-6.2
		c4.9-3,10-5.5,15.3-7.7c4.7-1.9,9.6-2.7,14.4-4c5.7-1.6,11.4-0.4,17.1-0.8c0.9-0.1,1.7,0.7,2.6,0.8c3.4,0.5,6.6,2.5,10.2,0.3
		c1-0.6,2.8-0.5,3.9,0c2,0.8,4,0.8,6.1,1c2.2,0.2,4.3,0.9,6.4,1.4c1.9,0.5,3.9,1,5.8,1.8c6.1,2.7,12.7,4.3,17.9,8.7
		c3.5,0.8,6.1,3.2,8.9,5.1C1830.1,21.1,1831.5,24.5,1831.9,28.6z"/>
	<path class="st0" d="M521.9,45c3,1.5,5.4,3.4,8.5,4.4c2.4,0.8,4.4,3.2,6.1,4.5c0.4,5.3,0.4,10.1,1.4,14.7c0.6,2.7,0.5,5.4,0.9,8.1
		c0.9,6,2.1,12,1.9,18.2c2,4.2,0.6,8.7,0.9,13.1c0.1,1-0.6,2.1-0.9,3.2c0.6,1.1,1.3,2.4,2.1,3.9c-0.6,0.7-1.3,1.6-2.1,2.5
		c0,1.5,0,3.2,0,4.7c1.7,2,3.4,4,5,5.8c0,2.4-0.1,4.6,0,6.7c0.2,2,0.6,4.1,1,6.1c0.4,1.9-0.9,4,1,5.6c0.2,0.1,0,0.6,0,1
		c0.3,4.7,0.6,9.4,1,14.1c0.2,1.9,0.7,3.7,1,5.6c0.3,1.9-0.6,3.9,1,5.6c0.1,0.1,0,0.3,0,0.5c-0.8,4.4,1.2,8.7,1,13.1
		c-0.1,1.5,1,3.3,0.5,4.4c-0.7,1.5-0.4,2.9-0.5,4.3c-0.1,1.7,0,3.3,0,5c0,1.5,0,3,0,4.1c1,2,1.9,3.6,3,5.8c0,1-0.6,3,0.1,4.3
		c1,1.8,0.8,3.4,0.8,5.2c0.1,1.6-0.2,3.3,1,4.6c0.1,0.1,0,0.3,0,0.5c-0.7,4.6,1.3,9,1.1,13.6c-0.1,2.2,0.6,4.4,0.9,6.6
		c0.3,2-0.7,4.3,1,6.1c0.2,0.2,0,0.6,0,1c0.3,4.2,0.5,8.4,1.1,12.6c0.2,1.9,1,3.6,1,5.6c0,1.9-0.5,3.7,0.7,5.7
		c0.9,1.5-0.3,4.1,0.3,5.9c1.1,3.2,0.8,6.4,0.9,9.6c0.1,1.9,1.4,3.5,1.1,5.6c-0.2,1.7-0.6,3.6,0.9,5.1c0.2,0.3,0,1,0,1.5
		c0.3,4.4-0.1,9,1.2,13c1.3,3.9-0.4,8.1,1.7,11.8c0.5,0.9,0.3,2.4,0,3.4c-0.6,2-1.5,3.7-0.1,5.8c0.4,0.6-0.6,2.3-1,3.8
		c0.9,1.5,1.9,3,3.1,5c-0.6,4.3,1.8,8.8,1,13.6c1.4,2.6,0.4,5.5,1.1,8c0.7,2.6,0.3,5.2,1,7.6c0.9,3.1,0.3,6.2,1,9.1
		c0.7,3.1,0.5,6.1,1,9.1c0.3,1.9,0.9,3.7,0.9,5.6c0.1,1.9-0.4,3.7,0.8,5.7c0.9,1.5-0.4,4.1,0.3,5.9c1.1,2.9,0.1,6,1.1,8.6
		c1,2.8,0.1,5.6,0.9,8.1c1.1,3.4,0.8,6.7,0.9,10.2c-1.8,1.7-3.6,3.4-5.9,5.5c-2.1,0-4.9,0-7.7,0c-2.8,0-5.7,0-8.5,0c-3,0-6,0-9,0
		c-2.8,0-5.7,0.2-8.5,0c-2.7-0.2-5.5,1-8-0.8c-2.5,1.8-5.4,0.6-8.1,0.8c-3,0.2-6,0.1-9,0.1c-2.8,0-5.7,0-8.5,0c-2.8,0-5.6,0-8.7,0
		c0-1.8,0.1-3.4,0-5c-0.3-8.4-0.1-16.8-1.2-25.1c-0.7-5.1,0-10.2-0.9-15.1c-1.1-6.1-0.5-12.1-1-18.1c-0.2-2.5-1.2-4.9-0.7-7.7
		c-9.2,0-18,0-26.8,0c-1.3,0-2.7,0.7-4.3,1.1c0,1.6-0.1,3.2,0,4.9c0.4,8.2-1.7,16.3-1,24.6c-1.8,5.8-0.1,11.8-1.2,17.6
		c-1,5.4-0.4,10.8-0.9,16.5c-1.6,1.3-3.5,2.7-5.5,4.3c-0.9,0-1.9,0-2.9,0c-0.5,0.6-1.1,1.2-1.7,1.9c-24.8,0-49.5,0-74.5,0
		c-0.2-1.3-0.7-2.7,0.4-4c0.3-0.3,0.4-0.9,0.4-1.3c-0.7-5.3,1.4-10.3,1.1-15.6c-0.1-2.3,0.6-4.7,0.9-7.1c0.3-2.2-0.8-4.6,1-6.6
		c0.1-0.1,0-0.3,0-0.5c-0.7-4.9,1.2-9.7,1-14.6c-0.1-5,1.7-10,1-15.1c1.7-2.5,0.7-5.4,1-8.1c0.2-2,0.7-4.1,1-6.1
		c0.3-1.9-0.6-3.9,1-5.6c0.2-0.3,0-1,0-1.5c0.3-3.5,0.5-7.1,1.1-10.6c0.2-1.3,1.1-2.5,1.9-4.1c-0.2-1.8,0.6-4.1-1.4-6.6
		c1-0.3,2-0.6,2.4-0.7c0-4.1,0.2-7.1,0-10c-0.5-7.1,0.5-14.1,1.2-21.1c0.3-3.4,0.2-6.8,1-10.1c0.7-3.2,0.1-6.6,1-9.6
		c1-3.3,0-6.6,0.9-9.6c1-3.2,0.3-6.5,1-9.6c0.8-3.4,0.3-6.8,1-10.1c0.7-3.1,0.3-6.2,1-9.1c0.7-3.1,0.2-6.2,1-9.1
		c0.9-3.4,0.1-6.9,1-10.1c1-3.7,0.6-7.4,0.9-11.1c2-1.8,3.2-3.9,2.9-6.8c-0.7-0.8-1.4-1.7-2.2-2.6c0.8-2,1.8-3.8,2.1-5.7
		c0.4-2.1,0.1-4.3,0.1-6.5c1.4-1.8,2.7-3.5,4-5.2c0-3.8,0.3-7.5-1.7-11c-0.6-1-0.8-2.9-0.2-3.8c1.3-2.2,0.6-4.4,0.9-6.6
		c0.3-2.2,0.7-4.4,1-6.6c0.3-2.2,0.3-4.4,0.8-6.6c0.8-3.3,0.4-7,0.1-10.4c-0.1-2.3,0.6-4.4,1-6.6c0.4-2.2-0.8-4.6,1-6.6
		c-0.5-2.8,0.9-5.4,0.9-8.1c0-2.4,0.5-4.7,1-7.1c0.5-2.3-0.6-4.9,1-7.1c0.2-0.2,0.1-0.7,0-1c-0.7-6.1,1.3-12,1.1-18.1
		c-0.1-2.2,0.6-4.4,0.9-6.6c0.3-2-0.9-4.3,1-6.1c0.2-0.2,0.1-0.6,0-1c-0.7-5.3,1.1-10.4,1.1-15.6c0-1.9,0.7-3.7,0.9-5.6
		c0.2-2-0.1-4,0.1-6c0.1-1,0.8-2,1.3-3.1c2.6,0,5.2,0,8,0c4.3,2.7,8.7,2.9,13.4-0.1C466.9,45,494.6,45,521.9,45z M463.5,302
		c9.1,0,17.5,0,25.8,0c0.8-0.8,1.6-1.6,2.7-2.7c-0.3-2.1-0.6-4.5-1-7c0.2-0.3,0.6-0.8,0.7-1c-0.4-1.3-0.9-2.1-0.9-3
		c-0.2-4-0.1-8-0.9-12.1c-0.8-4.4-0.1-9-1.1-13.6c-0.8-3.9,0.7-8.2-1.1-12.1c0.6-5.7-0.7-11.4-1-17.1c-0.2-3.2,0.9-6.5-1-9.6
		c0.1-4.8-0.2-9.5-0.9-14.3c-0.6-3.7,0.3-7.4-0.9-11.1c-0.7-1.9-0.4-4.3,0-6.4c0.4-2.4-1.1-4.3-1.1-6.6c-0.1-4,0.7-8.2-1-12.1
		c0.7-6.6-1.3-13-0.9-19.6c0.2-3.7-1.4-7.1-1.7-10.7c-0.4,1.6-0.3,3.3-0.4,4.9c-0.2,1.7-0.8,3.4-0.9,5.1c-0.4,5.4-0.7,10.7-1,16.1
		c0,0.3,0.1,0.8,0,1c-1.6,2-1.1,4.4-0.9,6.6c0.2,2.4-0.9,4.4-1.1,6.6c-0.2,3-0.1,6-0.8,9.1c-0.8,3.4-0.4,7-1,10.6
		c-0.9,4.9-0.8,10-1.1,15.1c0,0.3,0.1,0.8,0,1c-1.5,2-1.1,4.4-0.9,6.6c0.2,2.4-0.8,4.4-1,6.6c-0.3,3,0.1,6-0.9,9.1
		c-0.8,2.6,0,5.6-0.2,8.4c-0.2,2.7-0.6,5.4-1,8.1c-0.3,2.7,0.3,5.4-0.8,8.2c-0.8,2,0,4.6-0.2,6.9c-0.2,2.4-0.7,4.7-1,7.1
		c-0.4,3-0.1,6-0.8,9.1C464.1,293.1,465.2,297.5,463.5,302z"/>
	<path class="st0" d="M1144.1,435.4c0.8-2.2,2.6-3.9,0.9-7c-1.2-2.2-0.9-5.3-1.3-8.1c-0.5-0.5-1.1-1.1-2-2c0.2-1.3,0.5-2.8,0.8-5
		c-0.8-2-2.1-4.8-1.7-7.9c0.4-3.6-1.5-6.9-1.1-10.6c0.4-3.8,0.1-7.7,0.1-11.5c0-3.7,0-7.3,0-11s0-7.3,0-11c1.8-1.7,2.1-3.8,2-6.2
		c-0.1-2.4-0.4-4.9,1.5-7.3c3.4,0,7.2,0,11,0c3.7,0,7.3-0.1,11,0c3.7,0.1,7.5-0.6,11.7,0.8c0.6-0.2,1.8-0.7,3-0.7
		c10.5-0.1,21,0,31.5,0c1.3,0,2.6,0,4.3,0c0,1.7,0,3.4,0,5c0,19.8,0,39.7,0,59.5c0,2.1,0.2,4.1,1,6.1c0.5,1.3,0.6,2.7,1.1,4.1
		c0.9,2.8,2.4,5.2,5.3,6.4c1.1,0.5,2.2,1.2,3.5,2c2.7,0,5.7,0,8.9,0c0.4-0.4,0.8-1,1.3-1.4c4.6-3.3,7-7.5,8.2-12.6
		c1.5-6.7,2.2-13.4,2-20.2c-0.2-4.3,0.1-8.7-0.1-13c-0.2-4.9-0.1-9.8-1.1-14.6c-1.3-6.3-2.3-13-6.9-18.1c-3.2-3.5-6.5-6.8-9.8-10.2
		c-0.5-0.5-1.4-0.8-1.9-1.3c-4.4-4-8.6-8.1-13.1-12c-5.7-4.9-11.3-9.8-16.9-14.8c-5.1-4.5-10.2-9.1-15.4-13.4
		c-6.4-5.3-11.9-11.5-17.9-17.1c-4.4-4.1-7.5-9-9.9-14.4c-0.6-1.4-0.9-3-1.6-5.2c-1.1-1.5-3.8-2.8-4.8-5.6c-0.7-1.9-1.8-3.6-2.4-5.5
		c-0.3-1.1-0.1-2.5,0.3-3.7c0.5-1.6,0.4-2.8-0.4-4.5c-1.8-3.9-4.3-7.6-4.4-12.2c0-0.9-0.8-1.8-0.7-2.7c0.6-4.8-0.8-9.4-1.2-14.1
		c-0.2-2.3-0.7-4.7-0.9-7.1c0-0.4-0.6-0.7-0.8-0.9c0.3-1.9,0.8-3.6,0.8-5.3c0.1-10.3,0.1-20.7,0-31c0-2.2,0.6-4.1,1.1-6.1
		c0.4-1.9-0.1-3.7,0.7-5.7c1.1-2.7,1.1-5.9,1.2-9c0.3-7.3,2.2-14.2,5.1-20.9c2.8-6.6,6.4-12.6,11.5-17.7c0.4-0.4,0.5-1.1,0.8-1.9
		c1.4,0,2.8,0,4.5,0c1.9-1.6,3.9-3.3,5.9-5c2.9,0,5.1-1.5,6-4.3c1.4-4.7,5-6.4,9.2-7.8c2.9-1,5.8-2.1,8.7-3.2c1.9-0.8,4-0.2,5.9-1.6
		c1.4-1.1,4-0.6,5.4-1.3c3-1.5,6.2-0.5,9.3-1.6c3-1.1,6.6-0.2,9.9-0.2s6.7,0,10,0c0.5,0,1.3-0.2,1.4,0.1c1.6,2.2,4.7-0.4,6.2,2
		c0.9-0.4,2-1.2,2.6-1c2.5,1,5.5,0.1,7.5,1.1c2.3,1.2,5-0.4,6.8,1.8c7.4,0.9,13.8,4.4,20.4,7.4c8.8,4.1,16,10.2,22.2,17.5
		c4.9,5.8,8.9,12.4,11.1,19.9c0.8,2.7,0.9,2.7-0.3,5.3c2,2.9,2.5,6.3,3,9.7c0.3,2,0.7,4.1,1,6.1c0.3,2,0.8,4,1,6.1
		c0.2,2.2-0.5,4.5,0.1,6.5c1.7,5.4,0.8,10.8,0.8,16.1c0,7.1,1.8,14,1.1,21.1c-0.1,1,0,2,0,2.9c-1.8,1.9-5,2.2-5.2,5.4
		c-23.6,0-47,0-70.8,0c0-3,0-6,0-8.9c0-11,0-22,0-33c0-4-1-7.9-2.1-11.7c-1.1-3.8-3.7-5.9-7.3-7.4c-3.1-1.3-5.8-0.3-8.5,0.6
		c-2.7,0.9-4.7,3.1-6.1,5.8c-2.4,4.5-3.9,9.2-4,14.4c0,6.3,0.2,12.7-0.1,19c-0.3,7.6,1.9,14.8,4.2,21.8c1.6,4.7,5.4,8.4,9.5,11.4
		c1,0.7,2,1.5,3,2.3c1.9,1.5,3.8,3,5.6,4.6c1.9,1.7,3.6,3.7,5.9,5c2.1,1.2,3.4,3.4,5.6,4.7c2.4,1.4,4.5,3.7,6.6,5.6
		c5.5,5.1,11.5,9.7,17.1,14.6c3.9,3.4,7.1,7.6,11.7,10.1c0.8,0.4,1.2,1.5,1.8,2.2c1.7,1.7,3.4,3.4,5.1,5c0.6,0.6,1.4,0.9,1.8,1.5
		c2.4,3.7,5.6,6.7,8.3,10c3.2,3.8,6,7.9,8.6,12c2.2,3.4,3.9,7,5.7,10.6c1,2.1,1.8,4.4,2.2,6.5c0.6,3.2,0.9,6.8-1,10
		c0.7,1.4,1.3,2.6,2.2,4.2c-0.8,2.8,1,5.4,2.5,8c1.1,1.9,1.4,3.8,1.6,5.9c0.5,4.4,0.4,8.9,1.9,13.2c0.3,0.9,0,2,0,3
		c0,19.3,0,38.7,0,58c0,1.9-0.1,3.8-0.9,5.6c-0.7,1.5,0.7,3.6-1.1,5.1c0.3,4.6-1.9,8.6-3.1,12.7c-1.4,4.8-3.1,9.5-6.8,13.2
		c-0.5,0.5-0.8,1.3-1.1,2c-1.4,3.5-2.6,7.2-6.6,8.7c-0.7,0.3-1.3,1.1-1.8,1.7c-1.6,2-3.2,4.1-4.6,6c-1.6,0-2.9,0-4.4,0
		c-1.6,2.3-4.9,2.6-6,5.8c-1,3-1.6,3-5.7,5.2c-7,3.7-14.4,6.4-22.2,8c-4.4,0.9-8.8,1.3-13.1,2.2c-4.1,0.8-8.1,0.6-12.1,0.8
		c-4,0.1-8,0.1-12,0c-1.7-0.1-3.4-0.7-5.1-0.9c-1.7-0.3-3.6,0.5-5.1-1c-3.6,0.2-6.8-1.3-10.2-1.8c-3.9-0.5-7.3-2-10.6-3.5
		c-5.4-2.4-11-4.9-15-9.7c-1.1-1.3-2.8-2.1-4.2-3.1c-1-0.7-2.6-1.3-3-2.3c-1-2.4-3.1-3.7-4.7-5.5c-0.5-0.5-1.3-1.1-2-1.1
		c-1.5,0.1-2.1-0.9-2.8-1.8c-5.6-7.4-10.2-15.2-12.9-24.2C1146,440.6,1145,438.2,1144.1,435.4z"/>
	<path class="st0" d="M720.7,280.1c0.8,0,1.1-0.1,1.8-0.1c0.1,3.9,1.1,7.9-1.7,11.5c0.8,1.2,1.6,2.5,2.8,4.4c0,1.1,0,2.9,0,4.7
		c1.2,0.4,1.3-0.7,2.2-1.1c-2.5-16-0.7-32,1.1-47.8c3.3-5.2,1-11,2.1-16.8c1,0.5,1.9,0.9,2.6,1.2c0.1,1.4,0.1,2.6,0.2,3.6
		c2.4,1.4,1.4-1.7,3.2-1.7c0.4,0.6,0.9,1.4,1.5,2.2c3.2,4.5,6.4,9,9.5,13.6c0.7,1,0.9,2.3,1.5,3.8c-0.9,1.7-1.9,3.7-3,5.9
		c3.3,3.6-0.6,7.3,0.4,10.9c-0.7,0.7-1.3,1.3-2,2c0,0.7,0,1.5,0,2.7c1-0.8,1.8-1.5,2.4-2c1.8,0.4,3.4,0.8,5.4,1.3
		c-2.7,1.4-4.5,3.3-4.9,6.7c2.4-1.3,3.5-3.6,5.8-4.5c1-0.4,1.8-2.2,2.1-3.5c0.6-2.1,1-4.4,1-6.6c0-2-0.2-4.3-1.2-6
		c-0.7-1.3-0.7-2.5-0.7-3.7c0-3.6-1.2-6.8-3.3-9.6c-0.6-0.7-1.2-1.5-1.4-2.4c-2-7.8-5.5-15.1-7.5-22.9c-1.7-6.6-4-13.4-8.4-19
		c-1.1-1.5-1.1-3.6-1.6-5.3c-0.6-1.8-1-3.1,0-4.9c0.5-0.9,0.2-2.2,0.2-3.4c0-7.5,0-15,0-22.5c0-2.3,0.1-4.5,2-6.2
		c0-5.6-0.2-11.3,0.1-16.9c0.1-2.8-1.5-4.8-2.2-7.1c-0.2-0.6-0.8-1.1-1.4-1.4c-2.3-1-3-3.6-4.9-4.9c-0.6-0.4-1.5-0.2-2.6-0.4
		c0-6.7-0.1-13.3,0.1-19.9c0.1-2.1,0.8-4.2,2.4-6c1.4-1.6,2.3-3.6,3.4-5.5c0-0.1-0.4-0.5-0.8-0.8c0.7-0.9,1.4-1.9,2.2-2.9
		c-1-0.5-1.6-0.8-1.9-0.9c0.3-3.8,0.7-7.4,1.1-12c-2.2-5.6-8.8-7.2-13.8-11.2c-1.2,0.8-2.2,1.5-3.5,2.4c-0.6,0-1.6,0-2.8,0
		c-1.7,2.2-3.5,4.4-5.4,6.8c0,0.7,0,1.6,0,2.8c-0.7,0.6-1.7,1.4-2.7,2.2c-0.1-0.1-0.4-0.4-0.9-0.9c-0.8,2.6-1.6,4.9-2.4,7.3
		c-0.3,1-1.1,2.1-0.9,3.1c0.6,4.7-1.1,8.7-3.6,12.6c-3.8,1.1-7.2-1.4-11.2-2.1c0.4,1.4,0.6,2.5,0.9,3.6c-4.2,2.2-6.9,2.3-9.9,0.5
		c0.3-0.8,0.6-1.6,0.9-2.4c0.4-0.8,0.9-1.6,1.5-2.6c1.3,0.7,2.6,1.4,4,2c0.1-0.1,0.3-0.2,0.3-0.4c0-2.3,0-4.7,0-6.6
		c-1.5-2-2.9-3.8-4.4-5.7c-1.5,0-3.2,0-4.6,0c-4.3-2-7.5-6-11.7-5.2c-4.3,2.7-8.1,4.6-11.5,7.2c-3,2.3-6.6,3.5-9.6,5.8
		c-4.4,3.5-8.3,7.2-11.3,11.7c0.8,3,2.7,4.6,5.1,6.1c2.7,1.6,5.1,3.7,7.7,5.6c1,6.5,2.5,12.8,5.5,19.2c0.5-1.1,0.8-1.8,1.2-2.5
		c0.4,0,0.7,0,1.3,0c0,1.7,0,3.5,0,5.4c1,0.8,1.9,1.5,3.3,2.6c1.7,0,4.2,0,6.4,0c1.5,1.8,3,3.3,4,5.1c1.4,2.4,2.8,5,2.5,8
		c-0.6,5.1,1.6,9.7,2.2,14.6c0.1,0.7,0.8,1.4,0.8,2.2c0.1,4.5,0.7,9.1-0.2,13.5c-0.8,4.1-0.6,8.1-0.8,12.3c0.6,0.5,1.2,1,1.9,1.5
		c0,1.6,0,3,0,3.9c1.6,2.1,2.9,3.8,4.1,5.4c0,1.4,0,2.7,0,4.1c-0.7,0.8-1.5,1.6-2.3,2.5c0.9,1.1,1.7,1.9,2.5,2.9
		c-1.3,1.6-1.9,3.3-0.2,4.9c-0.4,1.1-0.9,2.2-1,3.2c-0.1,10.8-0.1,21.7,0,32.5c0,1.9,0.7,3.7,0.9,5.6c0.2,1.7,0.2,3.3,0,5
		c-0.2,1.5-0.7,3-1.1,4.5c0.8,0.3,1.4,0.5,2.2,0.8c-0.4,2.4,0.2,4.9-0.9,7.5c-0.9,2.2-0.2,4.9-0.2,7.4c2.4,1.9-0.4,5.3,1.7,6.9
		c-1.2,3.9-2.4,7.8-3.7,11.7c0.3,1.3,1.6,2.3,0.5,4.2c-1.1,1.9-1.5,4.4-1.6,6.8c-0.2,3.6-1.2,7.1-2.1,10.6c-1,4.3-3.3,8.2-2.8,12.8
		c-1.3,2.2-0.8,4.7-1,7.1c-0.2,2.2-0.6,4.4-1,6.6c-1.3,6.6-2.5,13.3-4.1,19.8c-0.4,1.7-1.8,3.2-2.9,5c0.4,1.3,1.5,2.5,0.2,4.6
		c-1.1,1.6-0.4,4.2-1,6.5c-1,3.5-1,7.3-1.1,11c-0.2,3.7-0.1,7.3,0,11c0,1.2,0.6,2.3,1,3.7c-12.3,0-24.4,0-36.7,0
		c-1.7-1.8-3.9-3.3-6.8-4c-0.6,0.8-1.2,1.6-1.7,2.2c-2.3,0-4.3,0-6.4,0c-0.8-0.8-1.6-1.7-2.5-2.5c0-34.6,0-69.2,0-103.9
		c0-1.4-0.5-2.9,0.9-4.2c0.4-0.4,0.4-1.8,0-2.4c-1.7-3.1-0.5-6.4-1-9.5c0.7-0.7,1.3-1.3,1.9-1.9c0-1.1,0-2.2,0-3.2
		c-0.7-0.7-1.3-1.3-2-2c0.5-3.4-0.9-7.1,1-10.5c0.2-0.4,0.2-1.2,0-1.4c-1.6-1.3-0.9-3.1-0.9-4.6c0-66.3,0-132.6,0-199
		c0-1.5,0.3-3.1,0.5-5.3c-0.2-0.1-1-0.6-2.2-1.4c1.1-1.2,1.8-2,2.6-2.8c0.2-2.1,0.2-4.3-1.1-6c-0.8-1.1-0.9-2-0.9-3.2
		c0-7.7,0-15.3,0-22.9c2-0.9,3.7-1.8,4.1-4.3c0.2-1.2,1.7-2.2,2.8-3.1c0.8-0.7,1.8-1.3,2.9-2c32,0,64.4,0,96.7-0.1
		c2.5,0,4.7,1,7.1,1.1c2.4,0.1,5-1,7.1,0.9c5.7-0.5,10.9,1.9,16.2,3.2c5.6,1.3,11.1,3.6,16.3,6.4c4.1,2.2,8.1,4.3,11.3,7.6
		c3.3,3.4,7,6.3,9.7,10.4c4.7,7.1,8.6,14.3,10.5,20.7c0.2,0.6,0.3,1.3,0.2,1.9c-0.2,1.4-0.9,2.7-0.9,4.1c0,1.4,0.7,2.7,0.9,4.1
		c0.1,0.3-0.5,0.8-0.7,1c1.6,3.4,3.2,6.7,4.6,10.1c0.4,1,0.2,2.3,0.2,3.4c0,9,0,18,0,27c0,2.4-0.1,4.7,0.8,7.1
		c1.1,2.9-0.4,5.7-3.2,7.8c0.8,1,1.4,1.9,2.3,2.9c0,3.4,0,7,0,10.9c0.7,0.5,1.5,1.1,2,1.5c0.6,2.8-2.7,5.2-0.1,7.3
		c-0.3,2-0.7,3.7-0.7,5.4c-0.1,17,0,34,0,51c0,28.7,0,57.3,0,86c-1.9,15.7-0.6,31.4-1,47.1c-1.4,3.8-0.3,7.9-1.2,11.5
		c-0.9,3.4-0.9,6.9-1.5,10.3c-0.6,3.2-2.7,6.2-2.3,9.6c-2.4,4.9-4.4,9.9-7.8,14.3c-2,2.6-4.2,4.9-6.4,7.3c-4.7,5.1-10.8,8.2-17,10.8
		c-3.3,1.4-7.1,2-10.6,1.3c-2,1.1-3.8,2-5.9,3.1c-6-0.5-12.3,1.5-18.7,1.1c-6.3-0.4-12.6-0.1-19-0.1c-0.4-0.9-0.9-1.7-1.5-2.9
		c0-1.4,0.1-3.2,0-5c-0.2-3.9,0-7.7-0.8-11.6c-1-4.8,1.2-9.6,2.3-14.4c0.4-1.8,0.9-3.6,1.6-5.4c0.2-0.4,1-0.6,1.6-1
		c1.7-6,2.2-12.4,4.3-18.5c2.1-6,3.5-12.2,5.3-18.7c1.2,0.8,2,1.3,2.5,1.6c1.5,3.1-3,6.1,1,9c0.1-1,0.3-1.9,0.3-2.7
		c0-3.5-0.1-7,0.1-10.5c0.2-3.4,0.5-6.7,1-10.1c0.3-2-0.7-3.7-1-5.6c-0.4-1.9,0.7-3.9-0.8-5.7c-0.5-0.6-0.2-1.9-0.2-2.9
		c0-4.5,0.2-9-0.1-13.5c-0.2-2.4,1-4.3,1.2-6.6c0.1-1.3,1.5-2.4,1.8-3.7c0.3-1.4,0.1-3,0.1-4.1c1.8-2.8,2.6-5.6,3.4-8.5
		C719,285.5,721.4,283.2,720.7,280.1z"/>
	<path class="st0" d="M215.9,66.3c1.4-0.9,2.8-1.9,4.4-3c1.2,0.4,2.6,0.9,4.2,1.5c1.5-0.9,3.2-1.8,5.4-1.8c26,0.1,52,0,78,0.1
		c1.1,0,2.1,0.2,3.3,0.5c1.7,0.5,3.8,0.1,5.7,0c0.9-0.1,1.8-0.5,2.8-0.5c10.6,0,21.3,0,32.3,0c0,4.4,0,8.7,0,13
		c0,5.3-0.2,10.7,0.1,16c0.1,2.7-1,5-1.1,7.6c-0.1,2.5-0.5,5.1,0.1,7.5c1.4,5.4,0.7,10.7,0.9,16.1c0.1,5.5,0,11,0,16
		c-0.6,1.2-1.1,2.1-1.5,2.9c-17.3,0-34.7,0-52,0c-0.4,0.5-0.9,0.9-1.4,1.5c0,25.1,0,50.2,0,75.4c14.4,0,28.7,0,42.6,0
		c2.4,0.7,2.9,3.9,5.8,3.1c1.1,1.2,2.2,2.4,3.5,4c0,18.5,0,37.5,0,56.6c-0.6,0.6-1.3,1.4-2,2.1c-0.6,3.1,4.4,5.8,0.8,9.2
		c-2.5-0.9-29.8-1.3-49.8-0.6c-0.3,0.7-0.8,1.5-1,2.4c-0.2,0.6,0,1.3,0,2c0,28,0,56,0,83.9c0.5,0.5,1,1,1.6,1.6
		c19.6,0,39.4,0,59.3,0c0,1.8,0,3.4,0,5.3c-1,1.7-2.1,3.6-2,6c0.1,1.3-1,2.8-0.8,4.1c0.2,1.3,1.1,2.6,1.9,3.6c1.1,1.3,1,2.7,1,4.1
		c0,11.8,0,23.7,0,35.5c0,1.7-0.3,3.5-1,5.1c-1.4,3-1.2,5.4,1.1,7.8c0,2,0,4,0,6.5c-1.3,0-2.5,0-3.8,0c-12,0-24,0-36,0
		c-1.8,0-3.7,0.1-5.5,0c-1.5-0.1-3.4-0.2-4.5-1.1c-2.1-1.5-3.9-0.8-5.7,0.1c-2,1.1-4,0.9-6.1,0.9c-12.8,0-25.7,0-38.5,0
		c-2.2,0-4.6,0.8-6.6-0.9c-0.3-0.2-1.1-0.2-1.4,0c-2.2,1.7-4.7,0.9-7.1,0.9c-8.8,0.1-17.6,0-26.7,0c0-4.3,0-8.4,0-12.6
		c0-6,0-12,0-18c0-3.7,0-7.3,1.7-10.8c1.2-2.5-0.1-4.9-1.7-7.3c0-3.2-0.1-6.7,0-10.2c0.1-1.6-0.7-3.3,0.9-4.6c0.2-0.2,0.2-1.1,0-1.4
		c-2-3.6-0.9-7.4-0.9-11.1c-0.1-40.7-0.1-81.3,0-122c0-1.9-0.4-3.7,0.8-5.7c0.8-1.4,0.6-3.8-1.4-5.6c1.1-0.7,1.9-1.2,2.5-1.6
		c0-4.1,0-7.8,0-11.8c-0.6-0.5-1.4-1.1-2-1.5c0-32.1,0-64,0-95.8c0-4.2,1.9-8.3,1-12.6c-2-10.1-0.7-20.4-0.9-30.6
		c-0.2-10.2-0.1-20.3,0-30.5C215.8,67,215.8,66.7,215.9,66.3z"/>
	<path class="st0" d="M1113.8,158.9c-1.1,2.4-2.6,4.3-2.9,6.3c-0.3,1.9,0.6,4,1.1,6.5c0.4,0.3,1.1,0.9,1.7,1.4c0,42.3,0,84.3,0,126
		c-1,1.5-1.9,2.9-2.8,4.2c-0.6,2.7,0,5,1.8,7.2c0,1.8,0.2,3.9,0,5.8c-0.2,1.7-0.8,3.3-1.2,4.9c0.8,0.8,1.4,1.4,2.1,2.1
		c0,40.3,0,80.8,0,121.6c-2.2-0.3-4.4,0.8-6.4-0.9c-1.4,0.3-2.7,0.9-4.1,0.9c-21,0.1-42,0-63.1,0c-2.4-1.7-4.9-3.4-7.6-5.3
		c-0.2-3.4-1.4-7.1-0.4-10.1c1-3,0.6-5.8,0.6-8.7c0-1.4-1-2.9-0.8-4.6c0.6-0.6,1.2-1.2,1.9-1.9c0-1.1,0.5-2.9-0.1-3.7
		c-1.6-2.1-0.1-4.6-1.2-6.5c-1.2-2.1-0.7-4.2-0.7-6.2c-0.1-45.8,0-91.7,0-137.5c0-1.7-0.8-3.7,0.9-5.1c0.2-0.1,0.1-0.7,0-1
		c-1.9-4.4-0.8-9.1-0.9-13.6c-0.2-4.7,0-9.3,0-14c0-1.2,0-2.3,0-3.1c0.8-1.4,1.4-2.5,2-3.6c-0.3-1-0.5-2.2-1-3.1
		c-1.1-1.8-1-3.7-1-5.6c0-40,0-80,0-120c0-1.7-0.6-3.5,0.9-5.2c0.6-0.6,0.5-2.5,0-3.4c-1.5-2.8-0.9-5.8-0.9-8.6c-0.1-9,0-18,0-27.4
		c5,0.4,10-1,15,0.8c1.4,0.5,3.5,0.7,5.2-0.5c0.8-0.6,2.2-0.4,3.3-0.4c16.7,0,33.3,0,50,0c2.1,2.4,4.2,4.5,4.6,8.1
		c0.2,2,2.3,3.7,3.8,6C1113.8,93.5,1113.8,126.5,1113.8,158.9z"/>
	<path class="st0" d="M1431.6,204.7c-0.7,1.1-1.6,2.4-2.8,4.2c-0.2,4.3,0,9,1.8,13.6c0.4,1,0.1,2.3,0.1,3.4c0,7,0,14,0,21
		c0,1.5,0.5,3.2-0.8,4.7c-0.6,0.6-0.5,2.5,0,3.4c1.5,2.8,0.9,5.8,0.9,8.6c0,53,0,106,0,158.9c0,2-0.4,4-0.7,6.2
		c-2,0.7-4.1-0.2-5.6,1.9c-0.8,1.1-2.9,1.5-4.8,1.5c-23.1-0.1-46.3,0-69.9,0c0-6.5-0.1-12.9,0-19.4c0-1.2,0.9-2.4,0.9-3.6
		c0-1-0.8-2-0.9-3.1c-0.7-5.1,1-9.7,3.5-14c0.2-0.3,0.3-0.5,0.4-0.8c0.1-0.1,0-0.3,0-1.4c-0.1-1.3-2.5-2.8-2-5.3
		c-2.6-2.5-2-5.7-2-8.7c0-74.5,0-148.9,0-223.4c0-1.7,0-3.3,0-4.9c1-1.4,1.9-2.7,2.9-4.3c0-1-0.1-2.3-0.7-3.8c-1-2.4-0.9-5.3-1.3-8
		c-1.7-10.5-0.6-21.1-0.8-31.6c-0.2-10.8-0.1-21.7-0.1-32.5c0-10.7,0-21.3,0-31.9c0.5-0.5,1-1,1.5-1.5c17.1,0,34.3,0,51.4,0
		c1,0,2.2-0.2,2.8,0.3c3.4,2.7,7,1.9,10.4,0.5c1.6-0.6,3-0.9,4.6-0.9c3.6,0,7.3,0,11.1,0C1431.6,90.9,1431.6,147.7,1431.6,204.7z"/>
	<path class="st0" d="M660.8,404.1c1,0,1.6-0.1,2.5-0.1c1,1,2.2,2.2,3.6,3.6c0.7-1.1,1.1-1.9,1.6-2.8c0.7,0.4,1.3,0.7,1.9,1.1
		c1.3-1.8,0.9-4.1,1.6-5.8c0.8-2,0.5-4.1,1-6c0.6,0,0.9-0.1,1.6-0.1c0.1,1.3,0.3,2.7,0.4,4c0.6,0,0.9,0,1.3,0
		c0.2-0.2,0.5-0.5,0.5-0.8c0-5.2,0-10.3,0-14.1c1.3-4,2.3-6.8,3-9.6c1.5-6.3,2.7-12.7,4.8-19c1.3-3.9,2.4-8,3.3-12.1
		c0.2-0.9,0.8-1.7,1.7-3.5c0.6,3.3,0.7,5.7,1.6,7.8c1,2.3,0.4,4.2-0.3,6.3c-0.7,2.2-0.3,8.4,1.1,10.4c1.5,2.3,1.3,4.8,0.6,6.6
		c-1,2.8-0.7,5.4-0.7,8.1c-0.1,3.9-0.7,7.5-1.9,11.2c-0.6,1.9-0.7,4-1,6c-0.8,5-2.3,9.7-3.6,14.5c-0.1,0.4-0.5,0.9-0.5,1.3
		c0.4,4-1.5,7.3-2.6,10.9c-0.7,2.2-0.5,4.7-2.7,6.7c-4.5,0-9.3,0-14.4,0c-2.3-3.4-4.3-7.1-4.3-11.8
		C660.8,412.8,660.8,408.7,660.8,404.1z"/>
	<path class="st0" d="M661.8,111.2c3.6-0.9,3.4-4,4.7-7c0,2.3,0,3.8,0,5.5c-0.4,0.5-1.1,1.2-1.9,2c0.6,0.1,1.2,0.5,1.4,0.3
		c1.3-1.1,2.4-2.2,3.8-3.5c0-1,0-2.1,0-3.4c0.4,0.2,0.7,0.3,0.9,0.4c1.6,1.1,1.5,3.1,0.8,3.9c-1.2,1.4-0.5,2.8-1,4.5
		c-3.5,0-7.1,0.2-10.7,0c-3.5-0.2-7-0.7-10.5-1.1c-0.8-0.4-1.7-0.9-2.9-1.5c2.9-3.2,5.8-6.3,8.6-9.3c1.8,0,3.5,0,4.8,0
		c1.3,1.5,2.5,2.8,4,4.5C663.3,107.6,662.7,109.2,661.8,111.2z"/>
	<path class="st0" d="M716.9,114.1c1.3,0,2.5,0,3.6,0c0.7,11.3,0.5,15.1-1,17.7c-0.8-0.4-1.7-0.8-2.7-1.3c0-1,0-2,0-3
		c-1.7-1.6-3.4-3.1-5-4.6c0-1.2,0-2.2,0-3.4C713.2,117.5,716.1,116.7,716.9,114.1z"/>
</g>
</svg>
