<?xml version="1.0" encoding="utf-8"?>
<!-- Generator: Adobe Illustrator 19.0.0, SVG Export Plug-In . SVG Version: 6.00 Build 0)  -->
<svg version="1.1" id="Capa_1" xmlns="http://www.w3.org/2000/svg" xmlns:xlink="http://www.w3.org/1999/xlink" x="0px" y="0px"
	 viewBox="0 0 503.3 283.5" style="enable-background:new 0 0 503.3 283.5;" xml:space="preserve">
<style type="text/css">
	.st0{fill-rule:evenodd;clip-rule:evenodd;fill:#FFFFFF;}
</style>
<g>
	<path class="st0" d="M14.5,246.1c0,0,0.2-1.4,0.7-1.7c0.5-0.4,1.2-0.5,1.2-0.5s0.2-0.4,0.7,0.4c0.5,0.7,1.1,1.1,0.5,1.6
		c-0.6,0.4-0.5,0.7-0.3,0.7c0.3-0.1,1.9-0.1,1.9-0.1l0.1,0.7l-0.6,0.2c0.2,0.7,0.9,1.1,1.5,1.6c0.6,0.4,0.9,0.4,1-0.1
		c0.1-0.4,0.5,0,0.1-1c-0.5-1-1.2-1.3-1.3-1.6c-0.1-0.3,1.8-0.9,2.6-1c0.7-0.1,0.9,0,0.9,0l0.2-0.8c0,0,6.1-2.1,10-7.1
		c3.9-5,7.5-11.7,8.6-16.2c1.1-4.5,2.1-18.7-0.9-25.3c-3-6.7-10.3-15.8-10.9-16.1c-0.6-0.3-0.7,0.9-1.5,1.2c-0.7,0.3-1.2,0.4-1.2,0
		c0-0.4,1.7-1.7,1.7-2c0-0.3-3.1-3.5-9.9-4.2c-6.8-0.7-17.4-0.2-17.4-0.2l0.2,3.5h2.1c0,0,0.1,0.7-0.3,0.9c-0.4,0.2-1.7,0.4-1.7,0.4
		l-0.1,2.3l0.2,11.5c0,0,0.4,0.8,0.4,1.1c-0.1,0.3-0.5,0.6-0.5,0.6s0,1.8,0.2,2.3c0.2,0.4,0.4,19.5,0.4,19.5l0.7,0.4L3,217.5v6.4
		c0,0-0.1,0.9-0.4,1.4c-0.3,0.4-0.9,1.3-0.9,1.3s1-0.7,1.2-0.6c0.3,0.1,0.1,1.1,0.3,1.2c0.2,0.2,1.1,0.1,1.1,0.1l0.1,0.7l-1.1,0.1
		l0.1,5.6c0,0-0.8-0.1-0.9,0.1c-0.1,0.2,0.2,1.5-0.2,1.4c-0.4-0.1-0.3-0.7-0.6-1.1c-0.3-0.5-1.1,0.1-1,0.5c0.1,0.5,0.2,0.4-0.3,0.5
		c-0.4,0-0.8,1-0.2,1.1c0.6,0.1,0.5,0.2,0.9,0.4c0.3,0.1,1-0.4,1.3-0.4s0.8,0.4,0.8,0.9c0,0.5,0,1.4,0,1.4l-1.6,0.1
		c0,0,0.2,0.8,0.5,1c0.3,0.2,0.3,0.6,0,0.6c-0.3,0-0.3-0.1-0.6-0.4c-0.3-0.3-0.6-0.3-0.7-0.1c-0.1,0.2,0.6,0.6,0.6,0.6l-0.1,2
		c0,0,1,1.1,1.2,1.1c0.2,0,0.4-1.1,0.8-1.3c0.4-0.2,1.2,0.1,1.9,0.1c0.7,0,1.2,0.1,1.2,0.8c0,0.7,0.2,1.4-0.2,1.4
		c-0.4,0-0.7,0.2-0.9-0.2c-0.2-0.4-0.1-0.5-0.4-0.4c-0.3,0,0.2,0.4,0,0.7c-0.2,0.3-0.2,1.2,0.5,1.2c0.7,0.1,0.6-1,1.2-1
		c0.6,0,0.9,0.4,0.9,0.8c0,0.5-0.1,0.5-0.1,0.5l0.4,0l0,1.8c0,0,0.5-0.5,1.7-0.5c1.2,0,1.2,0.7,0.9,0.8c-0.3,0.2-0.7,0.3-0.7,0.3
		s-0.4,0.8,0,0.8c0.4,0,1.3,0.5,1.4,0.8c0,0.3,0.5,0.7,1.6,0.8c1.1,0.1,2.1-0.5,2.1-0.5l0.2,0.1v1.5l1.2,0c0,0,3,3.5,3.3,4.1
		c0.3,0.6,0.3,0.7,0.3,0.7l0.4-0.1c0,0-0.2-0.7,0.4-0.7c0.5,0,1.6-0.5,1.6-1.2c0-0.7-0.5-0.4-0.5-0.4s0.7,0.4-0.5,0.4
		c-1.3,0-1.3-0.1-1.3-0.1v-0.9l0.5,0l-0.1-2.4c0,0-1.2-0.5-1.6-0.5c-0.3,0-0.7-0.4-0.3-0.5c0.3-0.1,0.8-0.1,0.8-0.1
		s-1.1-1.5-1.9-1.9c-0.8-0.5-1.6-0.3-1.6-0.3s0.4-0.9-0.1-1.1C15.1,246.5,14.5,246.1,14.5,246.1L14.5,246.1z M32.6,183
		c0,0-0.1,1.4,0.1,1.4c0.2,0,0.3-0.2,0.3-0.6C32.9,183.4,32.6,183,32.6,183L32.6,183z M29.8,182.1c-0.4,0.2-0.3,0.6-0.5,0.6
		c-0.2,0.1,0.1,0.4,1,0.4c0.9-0.1,0.6-0.5,0.4-0.7C30.4,182.2,29.8,182.1,29.8,182.1L29.8,182.1z M27.1,179.6
		c-0.3-0.3-0.4-0.5-0.5-0.6c-0.2-0.2-0.4,0.3-0.4,1c0,0.7,0.2,1.2,0.5,1.1c0.4-0.1,0.5-0.6,0.5-0.8C27.1,180,27.1,179.6,27.1,179.6
		L27.1,179.6z M18,224.3c0,0,0.6,1.6,2.5,1.6c1.9-0.1,6.5-6.3,7.2-10.1c0.7-3.8-0.3-14.3-0.4-14.7c-0.2-0.4-2.6-5.5-5-7.1
		c-2.4-1.6-4.4-0.6-4.4-0.6L18,224.3L18,224.3z M6.9,222.7c0,0-0.2-0.3-0.7-0.6c-0.5-0.2-1-1.2-0.6-1.2c0.4,0,0.9-0.1,1,0.1
		c0.1,0.2-0.1,0.5,0.6,0.6c0.6,0.1,0.8,0.3,0.9,0.9c0.1,0.6-0.1,1.1-0.6,1S6.9,222.7,6.9,222.7L6.9,222.7z M10.8,246.6
		c0,0-0.4-0.1-0.8-0.4c-0.4-0.3-0.1-0.7,0.4-0.7c0.5,0,1.8,0.1,1.8,0.1s0,0.3-0.5,0.5C11.3,246.2,10.8,246.6,10.8,246.6L10.8,246.6z
		"/>
	<path class="st0" d="M26.3,255.3l-2-0.1c0,0,0.2-1.5-0.1-1.7c-0.4-0.2-1.8,0-2.1-0.4c-0.3-0.4,0.3-1.5-0.2-1.8
		c-0.6-0.4-1.2-0.4-1.2-0.4v-0.6c0,0,0.2,0.2,0.5-0.3c0.4-0.5,1.2-1.4,1.6-1.4c0.5,0,0.8,0.3,0.8-0.3c0-0.6-0.1-0.7-0.1-0.7l-1-0.1
		v-1.2c0,0,1.5,0.1,2.1-0.4c0.5-0.5,1.7-1.3,2.3-1.6c0.7-0.2,1.2-0.2,1.3-0.5c0.1-0.3,0.6-0.3,0.6-0.3s-0.5,1.1,1,1.5
		c1.5,0.4,2.2,0.1,2.4,1.3c0.2,1.2-0.3,1.7-0.3,1.7h1c0,0,0,0.4-0.5,0.5c-0.5,0.1-0.5,0.5-1.3,0.5c-0.8,0-1.4-0.5-1.5,0.1
		c-0.1,0.7,0.8,0.4,0.8,0.9c0,0.4-0.1,0.4-0.3,0.2c-0.2-0.2-0.4-0.1-0.2,0.2c0.2,0.3-0.5,0.2-0.5-0.2c-0.1-0.4-0.9-0.2-1.1,0.4
		c-0.2,0.6-1.1,2.7-1.7,2.8c-0.5,0.1-0.7,0.3-0.3,0.8c0.4,0.5,0.3,1,0.3,1s0.3,0.2,0.8,0c0.5-0.2,1-0.4,1.2,0.2
		c0.2,0.6-0.2,1.4-0.7,1.5c-0.5,0.1-1.6,0.1-1.6-0.4C26.4,256,26.3,255.3,26.3,255.3L26.3,255.3z"/>
	<path class="st0" d="M15.4,257.5c0.2-0.2,0.9-1,0.5-1.1c-0.4-0.2-0.1-0.3-0.8-0.8c-0.7-0.4-1.6,0.6-1.6,1.1
		c0.1,0.5,0.6,1.1,0.9,1.1C14.6,257.9,15.4,257.5,15.4,257.5L15.4,257.5z"/>
	<path class="st0" d="M19.7,258.8c0,0-0.6,0.1-0.5,0.7c0.1,0.7,0.6,1.5,1,1.2c0.4-0.3,0.6-0.9,0.3-1.2
		C20.2,259.3,19.7,258.8,19.7,258.8L19.7,258.8z"/>
	<path class="st0" d="M28.9,257.7c0,0-0.5,0.7,0,1.1c0.6,0.5,1.2,0,1.2-0.4c0-0.4-0.2-0.7-0.5-0.8C29.2,257.6,28.9,257.7,28.9,257.7
		L28.9,257.7z"/>
	<path class="st0" d="M31.6,260.1c0,0-1.1,0.6-1.1,1.2c0,0.5,0.7,1.2,1.3,1.2c0.7,0,1.3-0.2,1.3-0.8
		C33.2,261.2,31.6,260.1,31.6,260.1L31.6,260.1z"/>
	<path class="st0" d="M34.9,264.2c0,0-0.4-0.4-1-0.4c-0.7,0-0.6,0.5-0.3,0.9c0.3,0.4,0.2,1.2,0.8,1.2c0.6,0,1.4-0.2,1.3-0.7
		C35.5,264.7,34.9,264.2,34.9,264.2L34.9,264.2z"/>
	<path class="st0" d="M36.2,266c0,0-1.1,0.3-1.1,0.9c0,0.6,0.9,1.4,1.4,1.4c0.5,0,1.5-1,1.1-1.5C37.2,266.3,36.2,266,36.2,266
		L36.2,266z"/>
	<path class="st0" d="M38.3,265.9c0,0-0.5-0.1-0.2,0.8c0.3,0.9,0.8,1,1.2,0.9c0.4-0.1,0.9-0.5,0.5-1.1
		C39.5,265.9,38.3,265.9,38.3,265.9L38.3,265.9z"/>
	<path class="st0" d="M38.7,269c0,0,0.1,0.5-0.3,0.5c-0.4,0-1.2,0.2-1.1,0.9c0.2,0.6,1,0.9,1.2,1.6c0.2,0.7,0.2,0.7,0.5,0.7
		c0.3,0,0.3-0.8,0.7-0.8c0.3,0,0.7-1.2,0.2-2C39.3,269.2,38.7,269,38.7,269L38.7,269z"/>
	<path class="st0" d="M33.8,240c0,0-0.6,0.1-0.7,0.8c-0.1,0.7,0.4,0.7,1.1,0.7c0.8,0,1.2-0.1,1.2-0.5c0-0.5-0.5-0.3-0.8-0.7
		C34.5,239.8,33.8,240,33.8,240L33.8,240z"/>
	<path class="st0" d="M39.9,240.5c0,0-1.3,0.6-1.4,1.5c-0.1,0.9-0.4,1.8,0.9,2.7c1.3,0.8,1.9,0.8,2.8,1.8c0.9,0.9,1.9,0.3,1.9,0.3
		s-1.1-0.3-1.3-0.9c-0.2-0.6,0.4-3.3-0.2-4c-0.5-0.8-1.1-0.4-1.5-0.7C40.6,241,39.9,240.5,39.9,240.5L39.9,240.5z"/>
	<path class="st0" d="M48.2,236.1l1,0.2l0.1,1.1l4.8,0.1c0,0,0.5-1.1,1-1.2c0.5-0.1,1.4,1,1.4,1l7.7-0.1l-0.1-1.6l0.9,1.6l13.1-0.1
		c0,0,0.7-0.5,0.7-2.4c0-1.9,1.1-6.7,1.7-7.6c0.6-0.9,1.3-6.3,1.3-7.3c0-1-0.3-1.5-0.3-1.5l-18,0.6c0,0-0.4-1-0.7-2
		c-0.4-1-0.3-4.3,0.3-5c0.6-0.7,0.6-1,0.6-1h6.1c0,0,0.2-0.7,0.8-0.7c0.7-0.1,1.3,0,1.3,0l0.1-1.8c0,0,0.5,0,0.5-0.2
		c0-0.2,0.5-0.2,0.5-0.2l0,3.3l1.7,0l0.1-10.4l-1.7,0c0,0,0.9-0.5,1.2-0.9c0.3-0.4,0.3-0.8,0.3-0.8s-1.1,0.3-1.3,0
		c-0.2-0.2,0.1,0-0.2-0.2c-0.3-0.2-0.7-0.4-0.7-0.4s0.5-0.3,0.8-0.7c0.3-0.4,0.4-0.9,0.2-1c-0.1-0.1-1.9,0-1.9,0l0.2-1.7
		c0,0,1.9-1.1,2.2-1.7s0.4-1.3,0.4-1.3l-9.2-0.2c0,0-0.2,0.4-0.7,0.4c-0.5,0-0.8,0.2-1.1-0.5c-0.3-0.7-0.2-2.8-0.6-3.5
		c-0.4-0.7-0.9-1.2-0.9-1.2s1.2-2.5,1.7-4.3c0.6-1.8,1.8-1,1.8-1l11.1,0.6h4c0,0-1.4-12.2-1.8-13.6c-0.5-1.4-0.5-3.1-0.5-3.1
		l-2.6-0.3l-0.1,0.7c0,0-2-0.7-3.1-0.7c-1.1,0-2.9,0.2-2.9,0.2l-1.1,0.6l-1.7,0.2l-0.5-0.7l-1-0.2l-17-0.5L48,212l0.3,0.5
		L48.2,236.1L48.2,236.1z M72.2,205.7c0,0-0.5,0.6-0.4,0.8c0.2,0.2,0.2,0.6,0.6,0.5c0.4,0,0.6-0.4,0.6-0.4l-0.3-0.6L72.2,205.7
		L72.2,205.7z M68.1,205.2c0,0-0.7,0.7-0.3,0.9c0.4,0.2,0.8,0.3,0.9-0.1C68.7,205.6,68.1,205.2,68.1,205.2L68.1,205.2z M51.2,184.9
		c0,0-0.7,0.6-0.7,1c0,0.3,0.4,0.7,0.7,0.7c0.3,0,0.7-0.6,0.9-0.7C52.2,185.7,51.2,184.9,51.2,184.9L51.2,184.9z M59,186.1
		c-0.1,0.1-0.4,1.3,0.1,1.6c0.4,0.3,0.6-0.4,0.4-0.7C59.3,186.7,59,186.1,59,186.1L59,186.1z"/>
	<path class="st0" d="M81.3,243.3l3.1,0.3c0,0,0.1,0.5,0.5,0.5c0.5,0,1.7-1,1.7-1h2.8l0.6,0.9l1.7-1l4.6,0.1l3-8.1l14.9,0.2
		l-0.1-0.7h1.1l0.2,0.7c0,0,1.9-0.8,2.6-0.2c0.7,0.6,2.3,3.5,2.6,4.8c0.3,1.3,0.3,3,0.3,3l6.8,0.1c0,0,1.2-0.6,2.2-0.5
		c1,0.1,1.2,0.6,1.2,0.6l6.1-0.3c0,0-0.7-3.8-1.1-4.1c-0.4-0.3-0.5-1.3-0.5-1.3l-0.5-2.2l-1.1-2.1L134,231c0,0-1.6-4.1-1.9-6.4
		c-0.3-2.3-1.1-5.7-1.8-6.7c-0.7-1-0.9-1.5-0.9-1.5s-0.1-3.7-0.9-4.8c-0.8-1.1-1.1-1.4-1.1-2.5c0-1.1-4.6-18.3-5.4-19.8
		c-0.8-1.5-0.9-2.1-0.8-2.4c0.1-0.3,0.3-0.3,0.3-0.3s0.4-0.6-0.1-1.3c-0.5-0.7-0.9-1.4-0.9-1.9c0-0.5-1-3.7-2.4-4
		c-1.4-0.3-1.6-0.2-1.6-0.2s0-3.9,0.2-4.1c0.2-0.3,0.3-0.3,0.3-0.3l-0.1-2.6h-1.5c0,0-1.1,1.2-1.4,1.2c-0.3,0-0.3-2-1.4-2.2
		c-1.1-0.2-1.1,0.1-1.1,0.1l-0.5,0.3l-0.4-0.7l-11-0.2l-4.6,19.5l0.9,0.3v1.1h-0.7v1.1l-1,0.1l-6.5,24.8L81.3,243.3L81.3,243.3z
		 M103.8,216.7h9.6l0.1-5l-5-13.2l-4,14.4L103.8,216.7L103.8,216.7z"/>
	<path class="st0" d="M140.5,242.4l4.4,0.1l-0.6-0.8l1.9-0.1c0,0,0.3,0.4,1.7,0.4s5.9-1.2,7.2-1.5c1.3-0.3,4.2-0.3,4.2-0.3
		s11.4-4.4,17.9-16.5c6.5-12.1,3.5-28.1,3-31.2c-0.5-3.1-1.5-4.6-1.5-4.6s0.1,0.7-0.4,0.8c-0.5,0.1-0.5-0.2-0.5-0.2l-0.2-3.4
		c0,0-4-7.6-9-11.2c-5-3.6-7.8-4.4-7.8-4.4s0.8,0.6,0.5,0.8c-0.2,0.2-1.1,0.1-1.1,0.1v0.3l0.4,0.2c0,0,0.1,2-0.3,1.8
		c-0.4-0.2-0.9-1.7-0.9-2.4c0-0.7,1.8-1.6,1.8-1.6s2.5-0.7,3.1-0.7c0.5,0,0.9-0.2,0.9-0.2s-3.1-0.1-3.3,0c-0.2,0.1-0.5,0.5-0.5,0.5
		l-1.8,0.7l-1.9,0.1l-0.2-0.6l1-0.1v-0.7c0,0-1.1,0.4-1.3-0.1c-0.2-0.6,0.8-0.6,0.8-0.6L158,166l-1.7,0c0,0,0,0.9-0.3,0.9
		c-0.3,0-0.8-0.2-0.8-0.2l-2.3,0l-0.6,0.8h-0.8l0-0.9h-0.7l-0.5-0.8h-0.6l-0.2,1.9l-0.5-1.3c0,0,0.1,0.6-0.2,1
		c-0.3,0.4-0.8,0.6-1.2,0.3c-0.4-0.3-0.6-0.3-0.6-0.9c0-0.6-0.5-1-0.5-1.6c0-0.5-0.6,0.2-0.5,0.8c0,0.6-0.3,1.1-1,1.1
		c-0.7,0-2.4,0-3.3-0.1c-0.9-0.1-0.8,0.1-0.7,0.6s0,2.1,0,2.1l-1.7,1.6l-0.6-0.1v-0.7l-0.8,1.3c0,0,0.1,0.4,0.8,0.8
		c0.7,0.3,1,0.6,0.2,1c-0.8,0.4-1.1,0.6-1.1,0.6s0.5,0.3,1,0.2c0.5-0.1,1.6-0.3,1.6-0.3s0.3,1.2-0.4,1.3c-0.7,0.1-2-0.2-2-0.2
		s0.3,0.8,0.8,1.2c0.5,0.3,2.2,0.4,2.2,0.4s0.3,4.4,0.1,5.5c-0.2,1.1-0.5,3.2-0.5,3.2l-0.2,27.9l0.8,0.8v0.5l-0.5,0.7L140.5,242.4
		L140.5,242.4z M156.3,187.5c0,0,2.9-0.8,5.2,2.3c2.3,3.2,4.3,8.1,4.3,8.1s0.9,11-1.1,15.5c-2.1,4.4-5.4,6.3-5.4,6.3l-2.7,0.1
		L156.3,187.5L156.3,187.5z"/>
	<path class="st0" d="M161.8,192.7c0,0-1.1-1-1.9-0.8c-0.9,0.2-0.8,0.8,0.5,1.7c1.3,0.9,1.6,0.1,1.6-0.2
		C162,193.1,161.8,192.7,161.8,192.7L161.8,192.7z"/>
	<path class="st0" d="M146.1,162.8c0,0,0,0.6,0.8,0.7c0.8,0.1,1.2,0,0.8-0.8c-0.4-0.8-0.5-1.4-0.5-1.6s-0.7,0.4-0.7,0.6
		C146.4,162,146.1,162.8,146.1,162.8L146.1,162.8z"/>
	<path class="st0" d="M215.6,269.3c0,0-5.4,1-7.2,1.4c-1.8,0.4-1.9,0.8-2.6-0.1c-0.7-0.8-0.3-2.5-0.3-2.5h-1.3c0,0,0.7-0.2-0.6-1.3
		c-1.3-1.1-1.3-1.9-1.3-1.9s0.6,1-1.3,0.7c-1.9-0.3-2.6-0.9-2.6-1.7c0-0.7,0-1.3,0-1.3s-3-0.1-3.3-0.4c-0.3-0.3,0.2-1.4,0.3-1.5
		c0.2-0.2,0.1-0.5,0.1-0.5s-1-0.2-1,0.3s0.3,1.8,0.2,2.2c-0.2,0.4-0.4,0.8-1.2,0.8c-0.8,0-2.2-0.3-2.2-0.3s-1.2-0.6-1.2-1.3
		c0-0.7,1-0.9,1.4-0.9c0.4,0,2.4-0.7,2-2.7c-0.4-2-2.3-1.1-3-1.7c-0.7-0.6-1.2-0.4-1.4,0.2c-0.2,0.6-1.2,0.7-1.2,0.7
		s-0.3,2.2-0.1,2.3c0.2,0.1-7-6.4-7-6.4l6.9,7.4c0,0-0.1,0.5,0.1,0.8c0.2,0.3,1.1,0.2,1.1,0.2s0,0.7-0.2,0.7c-0.2,0-0.3,0.5-0.3,0.7
		c0,0.2-0.6,0.6-1.2,0.6c-0.5,0-0.5-0.4-0.5-0.4l-1.8-0.3c0,0-2.3,0.4-2.7,0c-0.4-0.4-0.7-1.1-1.5-1.3c-0.8-0.2-1,0.1-0.6,0.4
		c0.5,0.4,1.6,1,1.5,1.4c-0.1,0.5-0.4,0.9-0.2,1c0.3,0.1,2.5-0.3,3,0.3c0.5,0.6,0.3,1.2-0.3,1.2s-1.8-0.3-2.6-0.8
		c-0.8-0.5-1.3-0.8-1.3-0.8s0.4,1.4,0.9,1.6c0.4,0.2,3,0.6,3,0.9c0.1,0.3-0.1,0.6-0.9,1c-0.9,0.4-1.4,0.7-1.4,0.7l-9.2-0.3
		c0,0,1,1,1.5,1c0.5,0,6.6,0.3,6.7,0.5c0.2,0.3-0.5,1.4-2.5,1.4s-15.3,0.3-15.3,0.3l-0.3,0.7h-4l-0.2-0.6c0,0-48.2,2.3-53.7,3.1
		c-5.5,0.8-18.9,0.7-18.9,0.7s-5.1,0.9-9.5,2.4c-4.4,1.5-6.3,2.6-7.3,2.6c-1,0,2,0.2,3.3,0.7c1.4,0.5,119.3,0.6,119.3,0.6l83.7,0.8
		h79.8c0,0,6.4,0,6.9,0.6s1.8-0.2,3.7-0.2c1.8-0.1,10.8-0.1,12.6-0.6c1.8-0.5,2.3-1.2,2.3-1.2s0.5,0.6,0.5,0.9
		c0,0.3,0.8-0.1,0.6-0.9c-0.2-0.8-1.6-3.1-2.4-3.7c-0.9-0.5-0.9-0.3-0.9-0.3s0.1-1.2-0.1-1.2s-2.8,0-2.8,0l-0.2-1.7
		c0,0-0.9,0.4-1.9-0.2c-0.9-0.7-2-0.6-2-0.6s-2.1-0.2-2.7,0.2c-0.6,0.4-1,1.5-2.4,1.4c-1.4-0.1-2.7-0.9-2.7-0.9l0-0.9
		c0,0-0.3,0.7-0.7,0.8c-0.4,0.1-1.2-0.1-1.6-0.4c-0.4-0.3-1-0.4-1.3,0.2c-0.2,0.6-1,0.8-3.4,0.8c-2.4,0-4.2-0.3-4.2-0.3l-1.7-0.8
		c0,0,0.8,0.4,0.4,0.7c-0.5,0.3-2.7,0.1-3.3,0.1c-0.5,0-0.8-0.5-0.8-0.5l-45.9-1.1l-0.3,0.5l-2.3-0.1l-1-0.6c0,0-27.9-1.4-31.9-1.4
		c-4.1,0-18.2-1.6-18.2-1.6s1.5-6.2-1.8-10c-3.2-3.8-7.7-3.1-7.7-3.1s-2.8-5.1-4.8-6.1c-2-1-2.6-1.3-2.6-1.3s-1.5-6.8-5-12.2
		c-3.5-5.4-3.5-6.4-3.5-6.4l1.4-0.1c0,0,0.3-0.3-1.3-0.9c-1.6-0.6-1.8-0.5-1.9-0.9c0-0.4,0-0.7,0.6-0.7c0.6,0,0.7-0.2,1-0.5
		c0.3-0.3,0.5-0.8-0.2-1.2c-0.7-0.4-3.5-0.4-3.5-0.4s0.3-1-0.4-1.5c-0.7-0.5-0.6-0.5-0.6-0.5l0.1-1.2c0,0,1.6,0.3,1.7,0.8
		c0.1,0.5,0.4,1.2,0.4,1.2l0.4-0.2c0,0,0.2-1.5-0.1-1.9c-0.3-0.4-3.5-0.7-3.5-0.7s1.8-2,1.8-2.5c0-0.5-0.3-4-0.3-4l-5.7,0.3l0.4,2
		l4.2,0l0.1,2l-6,0.3l0.1,0.6l0.7,0.3l-1.8,0.5l-0.4-1.1l-1-0.2v-0.7l4.8-0.4l-4.4-0.7v-5.8l6.9-0.2l-0.4-0.6l-1.1-0.2l-0.2-0.4
		h-0.7l-0.2-0.3l3.1-0.2l-1.9-0.6l-0.1-0.3l-7.8-0.1c0,0,0-3.4,0.1-4.5c0.1-1.1-0.4-2.1-0.5-2.5c0-0.3,2.3-0.3,2.3-0.3
		s0.7-0.2,1.5,0.1c0.8,0.3,2.1,1.1,3.1,0.9c1-0.2,1-1.2,0.7-1.9c-0.3-0.7-1.5-0.6-1.8-0.4c-0.3,0.3-0.2,0.7-0.6,0.7
		c-0.5,0.1-0.4-1.5-0.4-1.5l-1.7-0.1l-0.5-0.4l-0.8-0.1l-0.3-0.4l0.1-0.6l0.7,0.1l0.3-0.2l1.5,0v0.3c0,0,1.7,0.2,2,0.2
		c0.3,0,0.9,0.2,0.1-1.1c-0.8-1.3-7-0.7-7-0.7l-0.3-0.6l-0.7,0l-0.1-0.6l7.4,0l0.2-0.6l-0.1-1l-2.1-0.5l-0.2-0.7
		c0,0,1.8-1.8,0.8-3.9c-1-2.1-0.7-3-0.7-3l4.4-0.2c0,0,1.6-2.6,0.4-6.6c-1.3-4.1-5.4-6.9-5.4-6.9s1.2-1.3,0.8-2.1
		c-0.5-0.8-2.4-0.8-2.4-0.8s1.5-0.5,1.7-0.7c0.2-0.2-0.6-7.3,0.5-12.3c1.1-5,3.1-10.8,3.1-10.8s2.7-0.6,2.9-2.3
		c0.2-1.7-0.1-5.5,1.1-5.7c1.1-0.2,2.1,1.3,2.1,1.3l1.8-0.1l-1.2-1.6v-0.7l2.2-0.1c0,0,0.9-0.5-1-3.2c-1.9-2.8-3.3-4.5-3.6-6
		c-0.3-1.6-0.4-3.1-0.4-3.1l-2.3,0.1c0.1-0.4,0.3-1,0.6-1.6c0.6-1,2.6-4,4.5-6.1c1.9-2.1,1.7-0.9,1.7-0.9l0.1,1.8c0,0,0,0,1-0.1
		c1-0.1,1.6-0.9,1.6-0.9v-2.3c0,0,0.3-1.2,1.4-1.1c1.2,0.1,0.4,1.7-0.2,4.2c-0.7,2.4,1.4,2.7,1.4,2.7s0.1-3.2,0.9-2.9
		c0.8,0.3,1.1,2.8,1.1,2.8s0.7-1.7,1.3-2.9c0.6-1.2,1.8-1.4,2.4-0.2c0.6,1.2-0.4,3.2-0.4,3.2s-0.1,0.7,0.8,0.3
		c0.9-0.3,1.2-2.2,1.2-2.7c0.1-0.6,0.8-0.4,1.8,0.3c1,0.7,0.8,1,1.5,1c0.7,0,0.4-0.5,1.7-0.5c1.3,0,1.4,0.7,2,1.9
		c0.7,1.2,1.9,0.1,1.9,0.1l0,4.9l-0.5,24.7c0,0-1.3-1.8-2.6-2.1c-1.4-0.3-3.8-0.2-5.2,0.8c-1.4,1-1.3,3.3-0.9,4
		c0.4,0.7,2.1,1.9,2.2,2.5c0.2,0.5,2.8,3.1,3.4,3.1c0.6,0,1,0.5,1,0.8c0,0.3-2.3,5.5-3.3,6.6c-1,1.1-1.9,5-2,8.5
		c-0.1,3.5-0.8,7.1,0.2,9.7c1,2.7,1.7,4.7,1.6,5.7c-0.2,1-0.9,1.9-0.9,1.9l0.3,9.1c0,0,0.5,2.8,0.8,2.8c0.4,0,1,1.1,1,2
		c0,0.9,1.1,4.8,2.2,7.9c1.1,3.1,1.9,10.5,1.6,12.6c-0.3,2.1-0.6,6.3-1,7.3c-0.5,1-3.3,4.1-3.3,4.1s-0.5,0-0.5,0.9
		c0,0.9,0.4,1.6,0.7,1.6c0.4,0,1.4-1.4,2-1.5c0.6-0.1,2.8-0.9,2.8-0.9s0.5,1.5,0.2,1.7c-0.3,0.2-1.6,1.2-2,2.1
		c-0.4,0.9,0.6,1.7,0.6,1.7s0.6,0.9,1.3,1.1c0.7,0.2,4-0.9,6.7-3.7c2.8-2.8,3.6-4,3.9-4.2c0.3-0.3,0.8-2,0.4-2.8
		c-0.4-0.8-1.5-2.3-1.4-4.8c0.2-2.5,2.4-6.9,1.4-11.3c-1-4.3-1.6-6.2-2-6.3c-0.4-0.2-0.3-0.5-0.3-0.5l0.2-4.8l1.3-0.3
		c0,0-0.3-5,0.1-5.6c0.3-0.7,0.7-0.7,1.1-0.3c0.4,0.5,0.4,0.9,0.8,0.7c0.4-0.3,0.7-0.9,0.7-2.8c0-1.9,0-8.5,0-8.5s1-2.2,1.4-4
		c0.4-1.8,0.4-1.8,0.4-1.8s0.3-17.4-1.7-21c-2-3.5-2.7-5.7-4.6-6.3c-1.9-0.6-4.2-1.4-4.2-1.4s1.1-0.8-0.1-1.5
		c-1.1-0.7-1.7-0.7-1.7-0.7l-0.5-3l-0.5-0.3l0.5-23.4V122l0.2-2.8c0,0,2.2,1.8,3.3,1.8c1.1-0.1,2.3-1.9,2.3-1.9h-1.7
		c0,0,0.1-1.7,1-2.1c0.8-0.4,2.1-0.2,3.3,1.1c1.1,1.3,1.4,1.8,1.4,1.8s0.6-0.3,0.9-0.9c0.3-0.6,0.7-1.5,1.3-0.8
		c0.6,0.8-0.1,2.9-0.1,2.9s-0.1,0.4,0.9,0.1c1-0.3,1.8-3,2.7-3.9c0.9-0.9,2.2,0.1,2.2,0.1l0.2-0.7l-1.2-1.1c0,0-0.4-1.2,0.4-1.4
		c0.8-0.2,2.7,1.8,2.7,1.8l0.2-2.6c0,0,1.4-0.2,2.8,0.9c1.4,1.1,3.5,5,3.5,5s0.3-1.3-0.5-2.7c-0.8-1.4-3.5-4-3.5-4l0.1-0.4l3.9-0.2
		c0,0,0.2,2,1.2,2.7c1,0.7,1.2,0,1.2,0s-0.7-1.2-0.6-1.8c0.1-0.6,1.2-1.7,1.2-1.7l-0.5-0.3l0.1-0.6l1.2,0.2c0,0,1.2,2.9,4,3.6
		c2.7,0.7,3.8-1.9,3.8-1.9s-0.6,0-1.3-0.4c-0.7-0.4-0.8-0.9-0.8-0.9s1.6-0.5,4.4,1.5c2.8,1.9,5.3,2.7,5.3,2.7l-0.1-1l0.6-0.2
		c0,0,1.1,1,1.5,1.3c0.4,0.3,1.2,0.2,1.5,0c0.3-0.2,0.1-0.5-0.4-0.8c-0.5-0.4-0.7-1-0.7-1s2.6,0.3,4.2,1.6c1.6,1.3,2.3,1,2.3,1
		l-0.1-0.7c0,0,1,0.5,1.1,1c0.2,0.4,0.8,1,0.8,1l0.1-2.1l2.5-0.3c0,0,0,0.9,0.3,1.8c0.3,0.9,2.3,1.3,3.1,0.9c0.8-0.4,1-2.1,1-2.1
		l1.7-0.3c0,0,0.5,1.4,0.7,2.2c0.2,0.8,1.8,2.2,2.3,2.3c0.5,0.1,0.7-1,2.8,0.3c2.1,1.3,2.3,4.7,2.3,4.7l0.4-0.9c0,0,0.6-0.5,0.7-1.9
		c0.1-1.4-0.2-3.9-1.8-6.1c-1.6-2.2-7.2-8-7.2-8s2.6,1.1,7.1,4.7c4.5,3.6,6.6,8.8,6.6,8.8s1.2-1.1,2-1.2c0.8-0.1,0.9-0.5,0.5-2.3
		c-0.4-1.7,0.4-3.5,0.4-3.5l-7.8-3.4l7.1,2.1l2.4-0.4l-9.1-3.5l5.9,1.1v-0.5l-0.5-0.2l-0.8-0.4l0.9-0.5l-0.4-0.7c0,0-4.7-0.4-6-0.4
		c-1.3-0.1-2.9-0.5-3-0.9c-0.1-0.4,0.6-0.5,1.8-0.2c1.2,0.4,7.8,0.3,7.8,0.3s-0.1-0.9-1.4-1.9c-1.3-1-5.2-0.5-5.7-0.5l0-0.4l7.1-0.1
		l-2.5-0.9l-6.3,0c0,0-0.3-0.4,0.6-0.4c0.9,0,4.8-0.5,4.8-0.5s-0.2-0.3-1-0.6c-0.8-0.3-9.4-0.8-9.4-0.8l-0.6-0.3l-0.4-0.7
		c0,0-9.2,0.3-9.5,0.1c-0.3-0.2,0.5-0.5,0.5-0.5s11.1-0.5,12.2-0.7c1.1-0.2,1.6-0.6,1.6-0.6l-15.2,0.7l0.3-0.9c0,0,6.4-0.6,10.3-1
		c4-0.4,2.4-0.3,2.4-0.8c0-0.5-1.9-0.8-1.9-0.8l-1,0.5l-7,0.6l0.2-0.6l7.6-1.1l-0.2-0.6l-5.1-0.2l4.6-1.4l-7.8,0.8l1.6-1l-8.5,0.6
		l6.1-2.2l0.2-0.5l-9,2l4.2-2.1c0,0-7.8,1.6-9.4,2c-1.6,0.5-16.4,2.9-18.9,2.9c-2.6,0-14.2,2.7-18.5,3.2c-4.2,0.5-15.1-1.1-15.1-1.1
		l14.5-0.6l-1.8-0.1l0.2-0.5l2.7-1.1l-7-0.5c0,0,7.6-1,9.5-1.1c1.9-0.1,2.6-1,2.6-1s-19.1,0.5-19.4,0.5c-0.3,0,0.8-1,0.8-1l17.8-1.4
		l-5.1-0.5l0.3-0.5l8.8-1.1l2.9,0.3c0,0,6.2,4.8,6.5,4.7c0.3-0.1,0.3-0.9,0.3-0.9l-1-1.8l0-1.6c0,0,0.8-0.1,1.6,0.6
		c0.8,0.7,1.1,1.6,1.2,2.7c0.1,1,0.5,1.7,1.1,2c0.7,0.3,1.1-0.5,1.1-1.4s-0.8-1.7-1.7-2.4c-0.9-0.8-1.9-2.4-1.9-2.4s1.3-0.2,2.3,0.4
		c1,0.6,1.2,1.1,1.2,1.1l0.4-0.1l0.1-1.7l-5.2-3.7c0,0-0.1-0.4,0.7-0.4c0.7,0,1.4,1,1.4,1l3.3-0.3c0,0-0.4-1-1.2-1.5
		c-0.8-0.4-3.1-1-4.3-1.3c-1.2-0.3-1.5-1.4-1.5-1.4s0.3-0.1,1.7-0.1s2.6,0.5,3.2,0.9c0.6,0.4,0.9-0.2,0.9-0.2l-2.3-1.3l-3.4-0.2
		c0,0-0.3-0.3,0.2-0.6c0.5-0.3,8.2-0.5,8.2-0.5l-0.3-0.8h-1.7c0,0-0.6,0-1,0.4c-0.4,0.3-3.1,0-2.9-0.4c0.2-0.4,0.8-0.5,4.2-0.5
		c3.4,0.1,3.8-0.6,3.8-0.6s-2.6-0.3-3-0.3c-0.4,0-1.5-0.5-1-0.7c0.6-0.2,3.4-0.2,5.3-0.9c1.9-0.7,12.6-1.6,12.6-1.6l-7.6-1.3
		c0,0,5.3,0.1,6.2,0.5c0.9,0.5,4.9,0,4.9,0s-1.7-0.3-2.9-0.3c-1.2,0-4.5-1.6-7.9-1.8c-3.4-0.2-9.1-1.4-9.6-1.5
		c-0.5-0.2-0.5-0.5,0.5-0.5c1,0,8.6,1.4,9.8,1.5c1.2,0.1,8.6,0.7,8.6,0.7s-8.8-1.5-9.7-1.6c-0.9-0.1-8.9-1.1-10.3-1.5
		c-1.4-0.4-3.6-0.8-4.9-0.6c-1.3,0.1-6,1.8-8.6,2.7c-2.7,0.9-5.5,1.5-5.5,1.5s2.5-2.4,5.8-3.9c3.3-1.5,7.5-0.9,9.5-0.9
		c2,0,5.6,0.4,8.9,0.8c3.2,0.3,12.2,2.3,18.1,3.7c5.9,1.4,16.4,2.4,18.4,2.4c2,0,3.5,0.7,3.5,0.7s-3.7-2.3-4.1-2.6
		c-0.4-0.3-0.2-1,0.4-1.1c0.6-0.1,1.9,1,2.2,1c0.3,0,0.4-0.2,0.4-0.2l-2.9-1.7l-3.3-0.1l-1.2-1.6c0,0-2.3,0.2-2.6-0.1
		c-0.3-0.3,1.8-1,2-1.1c0.2-0.2,0.2-0.4-0.6-0.3c-0.8,0.1-4-0.8-4-0.8l-0.3-0.3l-2.8-0.1l-0.1-0.7c0,0,0.5-0.3,1.2-0.2
		c0.7,0.1,1.6-0.5,1.3-1.2c-0.2-0.6-1-1.1-1.8-1.2c-0.7,0-2.7,1-3.6,1c-0.9,0-0.6-0.3-0.6-0.3s3.8-0.9,4.6-1.6
		c0.7-0.7,2.7-1.5,2.7-1.5s-0.6-0.1-1.7,0c-1.1,0.1-4.2,1.5-5.5,2c-1.3,0.5-1.5,0.5-1-0.2c0.5-0.7,5.9-2.2,5.9-2.2s-4.2,0.5-5.7,1.3
		c-1.5,0.9-4.6,0.6-4.6,0.6s2.3-0.9,4.2-2.3c1.9-1.4,2.4-2.5,2.4-2.5s-4.2,0.7-10,3.3c-5.8,2.6-11,6.3-11,6.3l-2.3,0.2l-0.4-0.3
		c0,0-0.8-0.5-1.5-0.6c-0.7-0.1-2.4,0.7-2.4,0.7l1.8,0l0.1,0.8c0,0-0.4,0.1-1.2,0.1c-0.9,0-2.8-0.3-3.3-0.7
		c-0.5-0.4,0.3-0.7,1.5-0.8c1.2-0.1,1-0.5,4.7-1.4c3.7-0.9,8.1-3,11.2-4.6c3-1.6,4.4-3,4.4-3L276.3,61l-0.5-0.2l7.6-6.6l-1-1.2
		c0,0-7,5.9-8,6.7c-1,0.7-1.7,1.1-1.9,0.7c-0.2-0.4,0.7-1.1,1.2-1.4c0.5-0.3,1.6-1.5,1.5-1.9c-0.2-0.4-0.8-0.2-0.9-0.7
		c-0.1-0.5,1.2-0.3,2-0.3s4.4-3.5,4.4-3.5l0-0.4c0,0-0.7,0-1.2,0.3c-0.5,0.3-3.4,2.9-3.4,2.5c-0.1-0.4,2.2-2.4,2.2-2.6
		c0-0.2,0.1-0.4-0.4-0.3c-0.4,0-3,2.3-3,2.3s-4.3,5.3-5.3,6c-1,0.7-0.9,0.6-0.9,0.1c0-0.5,0.7-1.8,0.7-1.8s4.8-5.1,4.9-5.8
		c0.1-0.6-0.4-0.9-1.4,0.5c-1.1,1.4-1.8,1.8-1.9,1.5c-0.1-0.4,0.7-1,1-1.2c0.2-0.3,0-0.6-0.3-0.5c-0.3,0-1.1,0.7-2.1,2.4
		c-1,1.6-2.2,2.3-2.2,2.3l-0.1-1.4l3-3.9c0,0-1.2,0.8-2.5,2.1c-1.3,1.3-3.8,3.6-3.8,3.6v-1l3.6-3.6l0.1-1.5c0,0,0-0.1-0.5,0.3
		c-0.5,0.4-5.2,7-5.2,7l-1.1,0.1l3.2-7l0.1-1.2c0,0-3.3,3.1-3.8,3.6c-0.6,0.5-3.1,5.1-3,5.9c0.1,0.8-0.2,2-0.8,2
		c-0.7,0-0.6-1.5-0.6-2.6c0-1.1,0.3-0.3,0.9-1.2c0.6-0.9,1-4,0.8-4.7c-0.3-0.7-0.8-0.1-0.8-0.1l0.1,2.2l-1.4,0l0.2-2.9l2.9-0.2
		l-0.1-0.7c0,0,0.7-0.5,1.4-0.8c0.8-0.2,0.6-1.1,1.4-1.5c0.7-0.4,15.6-0.5,15.6-0.5s-4.3-1.4-5.7-1.7c-1.5-0.3-10.5-0.7-20.6,1.9
		c-10.1,2.7-14.2,5.8-14.2,4.8c0-1,2.3-2.9,2.3-2.9s-0.9,0-1.4-0.4c-0.5-0.5-0.1-3.7-0.1-3.7s-0.8-0.2-0.9,0.2
		c-0.1,0.4-0.5,1-1.1,1.6c-0.6,0.6,0.1,2.1-0.1,2.8c-0.1,0.7-0.6,0.7-0.6,0.7s-0.2-0.3-0.6-0.5c-0.4-0.2-0.5-1.2-0.4-2.2
		c0.1-1,0.8-1.6,0.8-1.6l0.1-2.9c0,0,0,0-0.5,0.1c-0.5,0.1-1.4,1.4-1.4,2.2c0.1,0.8-0.6,3.3-1.1,3.9c-0.5,0.6-1.6,0.3-1.6,0.3
		s0.6-2,0.4-3.1c-0.3-1.1-0.4-2.8-0.4-2.8s-3.6,3.2-6.1,5.2c-2.5,2-4.1,3.5-4.7,3.3c-0.5-0.2-1.3-2.5-1.3-2.5s-4.7,2.9-7,5
		c-2.2,2.1-2.2,3.2-2.4,3.7c-0.2,0.5-0.3,0.7-0.6-0.2c-0.3-0.9,0.5-3.2,2.8-5.8c2.2-2.6,3.7-5.6,3.7-5.6s0.3,0,1-0.2
		c0.7-0.1,3.9-2.2,4.1-2.6c0.2-0.4,1.7-0.5,1.7-0.5l-1-0.1l-1.4-1.2L218,45l-0.2,1c0,0-1,0.7-3,1.8c-2,1.1-3,0.8-3,0.8l0-0.8
		l2.3-3.2H213l-2.9,3.3h-0.9l2-3.5l-0.8,0.1l-2.7,3.5l-0.7,0.2c0,0-0.3-0.5-0.2-1.4c0.1-0.9,2.2-3.9,2.2-3.9l-1.4,1.3
		c0,0-1.3,0.4-1.6-0.3c-0.2-0.7,0.4-1.8,0.4-2.2c0-0.4-0.4-0.7-0.6-0.6c-0.2,0.1-1,1.4-1,1.4l-0.7,0.2c0,0-1,0-0.7-0.8
		c0.3-0.8,1.3-1.9,1.3-1.9l-3.9-0.1l0.1,0.6l0.9,0.2l0.1,1c0,0,0,0.3-0.6,0.3c-0.6,0-1.1-1.5-1.1-1.5s0-1.8-0.3-2.5
		c-0.3-0.7-1.6-1.7-4.3-2.2c-2.7-0.5-3.3-1.3-3.3-1.3l-0.1,1.3l-0.6,0.1c0,0,0.1-2.1,0.4-2.8c0.3-0.6-2.3,0-2.3,0l0,3.1l-1.2,0
		l-0.1-3.8c0,0-2.3,0.4-3.1,0.1c-0.8-0.3-1.8-0.3-1.8-0.3l0.1,1.1c0,0-0.4,0.1-0.8,0.1c-0.4,0-0.3-0.1-0.5-1.2
		c-0.2-1.1-0.2-0.8-0.5-0.6c-0.3,0.2-0.3,2-0.3,2h-0.3l-0.2-0.6l-0.9-0.6c0,0-0.5,0-1.4-0.1c-0.9-0.1-0.8-0.5-1-1.2
		c-0.2-0.7,0.2-1.2-0.4-0.9c-0.5,0.3-1.3,2.8-1.3,2.8h-0.9l-0.2-1l-1.9,0c0,0-0.4-0.4-1.4-1c-1-0.7-4-1.4-4.5-0.1
		c-0.5,1.3,0.4,1.5,0.9,1.7c0.5,0.2-0.2,0.4-1.5,0.4c-1.3,0.1-2.4-0.1-3.7-0.7c-1.4-0.5-3.2-1.1-3.8-0.9c-0.5,0.3-0.1,0.5,1.1,1.8
		c1.1,1.3,3.4,2.3,4.3,2.7c0.9,0.4,2.1,1.5,2.1,1.5s-2-0.4-3.1-0.9c-1.1-0.5-1.6,0.4-1.6,0.4s2.4,0.6,3.1,1.2
		c0.7,0.7-0.2,1.5-0.2,1.5s0.4-0.2,1.1-0.7c0.7-0.5,0.5-0.2,1.4-0.2s0.1,0.9,0.8,1.5c0.7,0.6,4.2,1.3,4.2,1.3s-0.9,0.2-2.1,0.1
		c-1.2,0-3-1.3-3-1.3l-1.5-0.2c0,0,0,0.9,0.5,1.5c0.5,0.6,1.4,1.4,3.5,2.4c2.1,1,4.3,0.2,4.3,0.2l0.1,1.8c0,0,0.3,0,0.9,0.7
		c0.6,0.7,1,0.8,2.8,1.2c1.7,0.4,0.3,1.2-0.6,1.2s-1.6-0.7-2.2-1c-0.6-0.3-1.4,0.3-1.4,0.3s0.3,0.5,1.2,0.5c0.9,0,0.8,0.8-0.1,1
		c-0.9,0.3-1.3-0.6-3.1-1.2c-1.8-0.5-1.8,0.6-1.8,0.6s-0.1,0,0.9,0c1,0,2.8,0.8,2.8,0.8s0.2,0.7-0.5,0.7c-0.7,0-0.9-0.5-1.5-0.7
		c-0.6-0.2-1.3,0.1-1.3,0.1s2.3,1.3,3.5,2c1.2,0.7,4.9,4.2,4.9,4.2v1l-1.1-0.2c0,0-0.8-1-1.4-1.6c-0.7-0.5-1.5-0.7-1.7-0.4
		c-0.2,0.3-0.8,0.2-0.7,0.4c0.1,0.3,0.5,0.6,1,0.7c0.5,0.2,1,0.3,1,0.3l0.2,0.8l-2.2-0.4l-2.3-1.4c0,0-1.6-4.2-5.3-9.1
		c-3.7-5-3.6-3.8-5.4-5.3c-1.8-1.5-2.3-1.4-2.1-0.8c0.1,0.6,1,1.6,1.3,2.1c0.4,0.4,2.5,1.5,3,2.8c0.6,1.3-0.1,0.9-0.8,1.5
		c-0.8,0.6-1.2,0.6-0.4,0.4c0.8-0.1,1.2-0.3,1.5-0.6c0.3-0.4,1.1,0,1.1,0s0.7,1.4,1.2,2.7c0.5,1.3,4.5,7,5.3,8.6
		c0.8,1.6-0.1,1-0.9,1s-1.6-0.6-2.2-1c-0.6-0.4-4.6-2.7-5.5-3.1c-0.9-0.4-2.4-0.1-2.4-0.1s0.8,0.2,1.7,0.4c0.9,0.2,5.4,2.9,5,3.1
		c-0.3,0.2-0.6,0-1.4-0.3c-0.8-0.3-1.5,0.1-1.5,0.1s1.2,0.4,2.3,0.8c1.1,0.4,1.1,0.2,2,0.4c0.8,0.2,0.6,0.9-0.5,1.1
		c-1.1,0.2-1.7-0.4-3.1-0.6c-1.4-0.2-1.9,0.2-1.9,0.2s0.3,0,1.1,0.4c0.8,0.4,1,1,1.3,0.9c0.3-0.1,1.5,0.4,1.5,0.4s0,0.4-0.8,0.5
		c-0.8,0.1-2.5,0-3.2-0.4c-0.7-0.4-2.8,0.1-2.8,0.1s0.7,0.2,1,0.8c0.3,0.6,0.8,0.5,1.3,0.9c0.5,0.3-0.4,0.7-1.6,0.7
		c-1.2,0-2.5,0.6-2.5,0.6l1-0.1c0,0,0.1,0.5-0.3,0.9c-0.4,0.4-1.8,0.9-3.3,0.3c-1.5-0.5-3.9-2-4.4-2.4c-0.5-0.3-2.9,0-4.5,0.4
		c-1.6,0.4-1.5,0.5-4.2-1c-2.7-1.5-5.8,0.1-6.8,1c-1,0.9-0.3,0.9-1.1,1.1c-0.8,0.2-1.6-0.4-3.6-0.3c-2,0.1-4.7,0.8-4.7,0.8
		s0,0,0.9,0.3c0.9,0.3,5,2.9,6.1,3.9c1.1,0.9,2.8,1,2.8,1s-0.9,0.2-1.5,0.2c-0.7,0-5.8-1.5-7.9-2.6c-2.1-1.1-5.6-0.1-5.6-0.1
		s0.4,0,1.4,0.3c1,0.3,3.1,2,2.4,2.3c-0.7,0.3-2.8-0.4-4.1-0.9c-1.3-0.4-2.7,0.4-2.1,0.3c0.6-0.1,2.5,0.7,3.9,0.8
		c1.4,0.1,1.8,0.6,1.4,0.9c-0.4,0.3-3,0.4-4.4-0.4c-1.5-0.8-7.5-0.4-6.8-0.4c0.7,0,1.5,0.4,1.5,0.4l-0.1,0.9c0,0,2.2,0.2,2.2,0.5
		c0,0.3-1.4,0.3-3.7,0.4c-2.3,0.1-2.6,0.8-2.6,0.8s1.3-0.4,4.1-0.3c2.8,0.1,6.7,0.9,3.9,0.9c-2.8,0-7.8,0.8-7.8,0.8s3.9-0.2,4.5,0
		c0.6,0.2,0.4,1.4-1.2,1.1c-1.6-0.2-5.9,0.2-5.9,0.2s1,0.3,1.7,0.6c0.8,0.3,0.1,0.7-0.7,0.9c-0.8,0.3-2,1-2,1l2.3,0.1l0.3,0.4
		l-1.1,0.2l-1.3,1c0,0,0.1,0.8-0.1,1.7c-0.2,1-0.4,0.7-0.4,0.7l-0.3,1.2l1.6,0.3c0,0,2.2-0.8,2.2,0c0,0.7-2.4,2.8-2.4,2.8
		s-0.1,1.4,0.3,1.4c0.3,0.1,3-0.8,4.6-4c1.6-3.2,4.9-4.7,4.9-4.7s0.3,0.5-0.4,1.7c-0.7,1.3-3.7,3.8-3.7,3.8l0.6,1.3l-0.4,0.6
		l-0.4,2.7h1.4l3.3-2.8l1.5-0.2l0.1,1.1l2.3,0.1c0,0,1.2-0.4,2.2-0.9c1-0.5,3.3-0.1,3,0.4c-0.3,0.5-3.6,0.8-3.6,0.8s0.6,0.2,1,0.8
		c0.5,0.6,0.2,1.2-0.7,2.7c-0.9,1.5-5.5,7.6-5.5,7.6l-0.3,2.1c0,0,1.8-1.1,2.3-1.7c0.5-0.6,4.3-6.2,4.5-6.6c0.2-0.3,1.1-0.3,1.8,0.7
		c0.7,1,0.7,6.7,0.7,6.7s0.8-1.5,2.7-4.7c1.9-3.2,3.6-3.8,3.9-3.2c0.3,0.6-1.2,2.5-1.2,2.5s0.9,0,2.2-0.8c1.2-0.8,4.8-5.7,6.7-8
		c1.9-2.3,4.2-2.5,4.2-2.5l-0.1,2l-5,6.2l-0.4,3.7l0.4,0.3c0,0,3.6-2.1,4.5-1.9c0.9,0.2,0.9,0.6,0.9,0.6s0.8-0.8,3.5-2.1
		c2.7-1.3,6.1-0.1,5.5,1.6c-0.6,1.8-2.7,1.6-2.7,1.6l0.1,0.7l1,0.5l1.4-0.9c0,0,1.8-1.1,1.8,0c0,1.1-2.6,2.1-2.6,2.1l0.1,1.2
		c0,0,0.6-0.4,2.4-1.6c1.7-1.2,10.8-3.1,10.8-3.1l-9.4,3.9l2.4,0.1l5.5-2.5c0,0,2.1-0.3,1.7,0.5c-0.4,0.7-5.4,2.9-5.4,2.9l-0.1,1.3
		l1,0.2c0,0,2.8-1.8,3.2-2c0.4-0.2,2.6,0.3,2.6,0.3l-4.1,1.5l1.2,0.8c0,0,0.4,0,0.7-0.4c0.2-0.4,2.7-1.3,2.6-0.6
		c-0.2,0.7-3.6,2.6-3.6,2.6s2.9-0.5,3.6-0.3c0.7,0.2-0.8,1.1-0.8,1.1s0.4-0.7,3.7-0.5c3.3,0.1,3.7,4.3,3.7,4.3s1.8,0.3,5.5-0.7
		c3.6-1,5.6-1.2,5.6-1.2l-6.6,2.4l6.3,0.3c0,0,5.7-1.1,5.8-0.7c0.1,0.3-2.5,1.3-3.2,2.5c-0.6,1.2,0.2,1.3,0.2,0.9
		c0-0.4,0.9-0.5,0.9-0.5s0.2,0.2-0.3,1.2c-0.5,1-1.5,2.7-2.2,2.1c-0.7-0.5-7.5-2.9-9.9-2.9s-30.2-4.3-30.2-4.3s-21-2.5-28.6-1.9
		c-7.6,0.6-7.4,1.8-7.4,1.8s4.2-0.3,4.9-0.3c0.7,0,2,0.1,0.9,0.7c-1.1,0.6-9.1,0.8-10.9,1.1c-1.7,0.3-3.2,1.9-3.2,1.9
		s2.1-0.4,2.1,0.2c0,0.6-3,1.2-4.4,1.6c-1.4,0.3-2.1,0.9-2.1,0.9s6.7-0.9,6.6-0.1c-0.2,0.7-1.5,0.5-3.1,0.5c-1.6,0-2.5,1.1-2.5,1.1
		s4.4-0.4,4.2,0.2c-0.3,0.6-3.6,1-5.1,1.1c-1.5,0.2-3.2,1.7-3.2,1.7s4.5-0.9,6.6-0.8c2.1,0.1,1,0.6-0.1,0.7c-1,0.1-6.1,0.9-5.7,0.9
		c0.3,0,2.4,0,2.7,0.6c0.2,0.6-1.1,0.8-3.1,0.9c-2,0.2-2,0.9-2,0.9s5.2-0.9,5.5-0.7c0.3,0.2-0.8,1.1-1.9,1.2
		c-1.1,0.1-6.7,1.3-6.7,1.3s6.9-1,6.2-0.4c-0.8,0.6-4.3,1.1-4.3,1.1l1.3,0.2l-4.1,1.7l3.9-0.8c0,0,0.1,0.3-0.8,1.1
		c-0.9,0.8-3.7,2.2-3.7,2.2s0.1,0.1,0.7,1c0.6,0.9-0.6,4.3-0.6,4.3l5-0.8v-1l1.5,0.2l0.3,0.8l-3.4,1.6c0,0,0.5,0.7,1.4,1.5
		c0.9,0.9,0.5,2.2,0.5,2.2s1.4-1.2,3.2-1.2c1.8-0.1,2.4,0.7,2.4,0.7s0.1-0.4,0.4-1.2c0.3-0.8,3.1-4.7,3.7-4.3
		c0.6,0.4-0.5,1.3-1.4,2.8c-1,1.5-1.9,6.1-1.9,6.1s1.3-1,1.5-1.2c0.1-0.2,0.4-2.1,0.4-2.1s0.8-0.5,2,0.2c1.2,0.7,0.7,3.5,0.7,3.5
		s0.8-0.6,0.9-0.9c0-0.3-0.8-1.9-0.8-1.9s0.2-0.3,1.2-0.1c1,0.2,2.4,2.9,2.8,3.1c0.4,0.2,0.7-0.2,1.3-1.1c0.6-1,0.4-3.2,0.4-3.2
		l3.7-0.1c0,0-0.2-0.9-0.3-2.4c-0.1-1.5,0.9-2,1.4-1.8c0.4,0.2,0.3,4,0.3,4s0.8-0.8,1.1-1.4c0.3-0.6,0.5-3.7,0.5-3.7s0.1,0,1.3,1.3
		c1.3,1.3,0.4,4.6,0.4,4.6s0.8-0.1,0.8-1.5c0-1.4,0.8-2,0.8-1.8c0,0.2,0.7,1.9,0.7,1.9s0.1-1.2,0.8-2.2s0.6-0.7,1.5-0.7
		c0.9,0,0.5-0.2,0.5-0.4c0-0.3-1.1-0.3-1.1-0.3s0.2-0.4,2.1-2.2c1.9-1.8,4.9-3.8,4.9-3.8s0.8,1.4,2.3,2c1.5,0.6,3.3-1.7,3.5-2.1
		c0.2-0.3,1.2-0.8,1.4-0.4c0.1,0.4-1.3,1.9-1.3,1.9s1,0.1,3.3-0.9c2.2-1,3-2.6,3-3c0-0.5,0.2-0.8,0.7,0.2c0.5,1,1.5,1.1,1.5,1.1
		l-0.3-0.8c0,0,0.7-0.5,1.6,0.3c0.9,0.8-0.3,3-0.3,3s1.8-2,2.5-3.3c0.7-1.2,1-1.5,1.4,0.1c0.4,1.6-0.6,3.2-0.2,3.2
		c0.4-0.1,3.4-4.3,3.7-4.7c0.3-0.3,0.8-0.1,0.8-0.1l-0.7,3.7l0.8,0.1l-0.1-2.1l1.1,0l0.1,2.4c0,0,0.5,0.2,1.2-0.1
		c0.8-0.3,3.3-3.6,3.6-4.4c0.4-0.8,2.3-2.1,2.3-1.2c0,0.8-1.8,2.2-1.8,2.2l-0.3,2l0.8,0.1c0,0,2.6-3.3,2.9-3.7
		c0.3-0.4,1.7-0.5,1.9-0.2c0.2,0.3-0.1,0.9-0.5,1.4c-0.5,0.4-0.4,1.2-0.4,1.2s1.1-1.3,1.9-0.7c0.7,0.6,1.1,2,1.1,2s1.5-1.5,2-1.1
		c0.4,0.4-0.4,1.3-0.4,1.3s0.4,0.3,1.3-0.5c0.9-0.8,1.9-3.1,2.4-3.2c0.6-0.1,1.6,0.3,1.5,1.4c-0.2,1.1-1,1.6-1,1.6v1.6l2.9-1.3
		c0,0-0.9-0.4-1.1-0.9c-0.3-0.4,0.3-1,1.1-0.7c0.8,0.4,0.2,0.8,0.2,0.8s0.8-0.8,1.7-2.1c0.9-1.4,0.9-4.2,1.8-2.8
		c0.9,1.4-0.9,3.2-0.9,4.1c0,0.9,0.7,1.5,1.9,1c1.2-0.5,2.1-7.1,2.4-6.9c0.3,0.2,0.1,8.2,0.1,8.2s0.3-0.1,1-1
		c0.8-0.9,1.3-4.3,1.6-3.2c0.4,1.1,0.3,2.8,0.3,2.8s0.5-2.1,0.5-2.9c0-0.8,0.8,0.1,1.1,1.6c0.3,1.6,0.4,2,0.9,2c0.5,0,0.2-2.2,0.3-3
		c0.1-0.8,1.4-1.1,1.5,0.1c0.1,1.2,0.8,2.2,1.4,2.2c0.6,0,0.5-2.1,0.5-2.1h0.6l0,1.8l-0.6,1.1l-0.1,2.8l1.5,0.1c0,0,2.9-2.6,3.3-2.4
		c0.4,0.2,0,1,0,1s-0.3,0.7,0,1.2c0.2,0.3,0.1,0.6,0,0.9l-1.6,0.4c0,0-1.6,0.5-2.1,0.7c-0.5,0.2-1,0.5-1,0.5s0.3,0.4,0.6,0.5
		c0.3,0.1,1.7-0.7,2.7-0.6c0.9,0.1,2.2,0.7,1.6,2.1c-0.6,1.4-0.9,1.4-1.7,1.4c-0.9,0-1.6,0-1.6,0l0.2,2.2c0,0,3,3.5,2.7,4.1
		c-0.2,0.6-2.9,7.1-3.2,8.7c-0.3,1.6-0.2,1.2-0.2,1.2s3.9-1.2,4.2-0.5c0.3,0.8-2.1,4.1-2.4,4.9c-0.3,0.8,0.1,2.9,0.1,2.9
		s0.4,0.3,1.8-1.1c1.4-1.4,2.3-2.5,2.6-1.9c0.3,0.6,0.7,6.1,0.4,9c-0.3,2.9-2.5,11.2-3,13.8c-0.5,2.6-1.2,6,0.5,8.4
		c1.7,2.4,3.4,1.6,3.4,1.6l0.1,4.1h0.8l-0.3,2.3l0.1,1.9l0.7,0.3c0,0,0.3,6.5,3,17.6c2.7,11.1,3,12.6,3,12.6l2-0.1
		c0,0,0.8,2.3,0.4,3.3c-0.4,0.9-0.6,3.1-0.6,3.1s2.6,10.9,3.7,14.9c1.1,4,1.3,5.7,1.3,5.7s-1.9,0.9-2.3,3.3
		c-0.4,2.4,2.1,4.4,2.1,4.4s1.1,0.3-0.7,0.8c-1.7,0.5-1.7,1.9-0.9,4C214,268.1,215.6,269.3,215.6,269.3L215.6,269.3z M152.8,67
		l-3.3-1.4l-0.8,0.1l0.6,0.8c0,0,1.5,0.7,2.2,1c0.7,0.3,1.2,0.4,1.2,0.4l-1.9,0.1c0.2,0.2,2.3,0.4,2.6,0.6c0.4,0.2,2.3,1.4,2.8,2
		c0.5,0.6,1.9,0.5,1.9,0.5s-1.5-0.9-1.5-2c0-1.1,0.1-0.9,0.1-0.9s-2.3,0.3-2.9-0.2c-0.7-0.5-0.6-0.7-0.6-0.7L152.8,67L152.8,67z
		 M156,66.4c0,0-2.9-0.8-3.8-1.4c-0.9-0.6-1.7-0.9-2.5-0.9c-0.8,0-1.5,0.1-1.5,0.1s1.5,0.8,2.2,1.1c0.8,0.3,3.1,1.8,3.7,1.8
		c0.6,0,1.8,0,1.8,0L156,66.4L156,66.4z M307,105.4l0.4,0.8l-0.5,0.3h-1.4c0,0-1.1-1-3-1.9c-1.9-0.9-4.6-2.5-4.6-2.5
		s-0.4-0.2,0.9-0.1c1.3,0.1,3.4,1.3,3.4,1.3l3.4,1.9L307,105.4L307,105.4z M235.3,56.1l-2.8,0.2l-0.2,1.6c0,0,1.5,0.1,2.5-0.5
		c1-0.5,1.2-1.4,1.2-1.4L235.3,56.1L235.3,56.1z M212.8,109.2c-0.2-0.7-1.4-1.3-1.8,0.3c-0.4,1.6-1,3.1-1,3.1l0.9-0.1
		c0,0,1-0.4,1.4-1.4C212.8,110.1,212.8,109.2,212.8,109.2L212.8,109.2z M199.4,69.1c0,0-2.5-12-7.1-18.2c-4.6-6.3-8.5-7.8-8.5-7.8
		l0.1,1.1c0,0,3.7,3.1,4.1,3.9c0.4,0.8,0.1,1.2,0.1,1.2l-2,0.2c0.3,0.3,2.2,0.1,2.2,0.1s0.6-0.6,0.8-0.3c0.3,0.3,0.2,2.6,1.8,4.8
		c1.6,2.2,4.5,6.6,4.5,6.6l0.1,1l-1.1,0.1c0,0-6-3.7-7.3-4.1c-1.2-0.4-2.8-0.4-2.8-0.4s8.8,3.8,10.7,6.1
		C197.1,65.7,199.4,69.1,199.4,69.1L199.4,69.1z M174.3,61.6l2.7,0.3l-5.8-5.4l0.3,1.8l0.8,0.8l0,0.7c0,0-0.1,0.2,0.2,0.3
		c0.3,0.1,1.8,0.2,1.8,0.2L174.3,61.6L174.3,61.6z M169.1,78.2c0,0-3.4-3-2.7-6.5c0.7-3.5,2.5-5.3,5.7-5.4c3.2-0.1,5.2,1,5.2,1
		l5.9,2.2l-2.2,0.2c0,0-5.3-2.6-6.4-2.6c-1.1,0-1.1,0.4-1,0.6c0.2,0.2,7.2,2.9,7.2,2.9l1,0.5h-1.8c0,0-4.6-2.2-5.4-2.2
		c-0.8,0-0.2,0.8,0.4,1.2c0.6,0.4,3,0.8,3,0.8s-3.1-0.3-3.5,0.3c-0.3,0.5-1.1,1.7-1.1,1.7s0.7-1.8,0.2-2.6c-0.5-0.8-1.2,0.2-1.6,1.4
		s-0.4,1.8-0.4,2.5c-0.1,0.8-0.3,4.6-0.3,4.6s-0.8-0.2-0.9-1.2c-0.1-1,0.2-6.8-0.3-7.6c-0.4-0.8-0.6-0.9-1-0.3
		c-0.3,0.6-0.8,3.3-0.6,4.9C168.9,76.1,169.1,78.2,169.1,78.2L169.1,78.2z M145.9,83.3c-0.6,0-1.4-0.5-0.6-0.6
		c0.9-0.1,1.1,0.1,1.5-0.6c0.4-0.7,0.6-1,0.6-1s-0.4,0.7,0.1,0.7c0.5,0,1.8-0.1,2.5-0.5c0.7-0.5,3-0.4,3.3-0.4
		c0.3,0.1,0.3,0.6-0.2,0.8c-0.4,0.2-0.9,0.3-1.2,0.4c-0.3,0.1-3.7,0.2-3.7,0.2s-0.7,0.3-0.6,0.8c0.1,0.5-0.1,1.3-0.3,1
		c-0.2-0.3,0.2-1-0.2-1.1C146.8,82.9,145.9,83.3,145.9,83.3L145.9,83.3z"/>
	<path class="st0" d="M177,261.9c0,0-0.4,0.1-0.5,0.6c0,0.5-0.3,1-0.3,1l-0.8,0.2c0,0-0.4-0.2,0-1c0.3-0.9,0.8-1.2,0.2-1.3
		c-0.5-0.2-1.2-0.1-1.2-0.1v-0.9c0,0,1.3-0.3,1.7,0.3c0.4,0.6,1.3,0.6,1.8,0.7c0.5,0.1,0.3,0.6,0.9,0.6c0.6,0.1,0.7,0.3,0.7,0.5
		c0,0.2-0.5,0.4-0.9,0C178.3,262.1,177,261.9,177,261.9L177,261.9z"/>
	<path class="st0" d="M191.8,248.8c0,0-1-1.1-1.6-0.3c-0.6,0.8-0.1,1.1-0.6,1.5c-0.5,0.4-0.8,0.8-0.5,1.4c0.2,0.6,0.5,1.1,0.9,1.4
		c0.4,0.3,1.4,0.3,2.1-0.6c0.7-0.9,0.6-2,0.4-2.5C192.4,249.2,191.8,248.8,191.8,248.8L191.8,248.8z"/>
	<path class="st0" d="M221.1,11.3c0,0-0.2-0.7-0.9-0.8c-0.7-0.1-0.8-0.6-0.8-0.8c0-0.2,2.5,0.2,3.3-0.5c0.7-0.7,0.1-0.9,0.1-0.9
		s-6.1-3.5-8.2-5.5c-2.1-2-2.2-2.2-1.6-2.4c0.5-0.2,3.4,0.9,4.7,1.8c1.4,0.9,6.1,3.9,7.1,4.1s2.6,0.5,4,1.2c1.4,0.7,2.5,1.9,2.5,1.9
		s2.2-0.2,2.9,0.1c0.7,0.2,8.4,3.2,8.4,3.2s4.4,0.2,5.3-0.2c0.9-0.3,1.2-0.4,1.2-0.4s-0.4,0.9-1.8,1.4c-1.4,0.5-9.3,0.4-10,0.1
		c-0.7-0.3-5.6-2.2-9.6-2.1C223.7,11.5,221.1,11.3,221.1,11.3L221.1,11.3z"/>
	<path class="st0" d="M143.5,20.3c0,0,1.3,0.8,2.6,1.1c1.4,0.4,2,0.4,3.3-1.5c1.3-1.9,1.2-4.4,1.7-4.6c0.5-0.3,0.1,0.5,2.1-1.6
		c2-2.2,3.5-3,4.3-3.1c0.9-0.1,2.9-1,2.9-1l0.4-0.9c0,0,3.3-1.8,4.1-3.6c0.8-1.8,0.2-1.7,0.2-1.7l-14.3,10.3c0,0-0.4,0.3-0.7,0.2
		c-0.3-0.1,0.1-0.3-0.5-0.6c-0.6-0.3-1.5,0.5-1.8,1c-0.3,0.5-0.6,0.6-0.6,0.6s-2.5-0.1-2.6-0.1c-0.2,0-0.9,0.1-1.5-0.3
		c-0.6-0.4-8.1-3.7-9.3-4.3c-1.2-0.6-3.3-0.8-3.3-0.8s2.7,2,3.7,2.5c1,0.5,7.4,2.5,8.9,4.4c1.5,1.8,1.4,1.5,1.1,2
		C144.1,18.9,143.5,20.3,143.5,20.3L143.5,20.3z"/>
	<path class="st0" d="M128.6,6.7c0,0-0.3-0.4-1-0.7c-0.7-0.3-0.2,0.6,0.1,0.8c0.3,0.2,0.7,0.5,0.7,0.5L128.6,6.7L128.6,6.7z"/>
	<path class="st0" d="M338.5,57.5c0,0,0.7,1.6,0.1,1.7c-0.7,0.1-2.2,1.5-2.2,1.5s-0.1,1,0.6,1.5c0.7,0.5,1.7,1.5,1.7,1.5
		s3.2,0.9,4.4,0.6c1.3-0.3,3-3.4,3-3.4l-1.3-1.1c0,0-0.3-0.7,0.1-0.8c0.4,0,2.5,0.8,5,1.1c2.5,0.3,4.8,0.1,4.8,0.1l2.3-0.5l-2-0.6
		l2.2-0.5l-2.3-0.4l1.2-0.4c0,0-2-0.1-3.3-0.7c-1.3-0.6-6.6-2.7-6.6-2.7l-4.4-0.2V53c0,0-0.6,0.7-0.6,0.3c0-0.4,0.4-1.1,0-1.1
		c-0.4,0-0.9,0.8-1.4,0.9c-0.5,0.1-1.8,0.1-3.1-0.7c-1.3-0.8-5.5-1.9-5.5-1.9l-5.4-0.5l1.2,0.6l-1.8-0.1l1.8,0.7h-1.9l1.7,0.5
		l-1.1,0.7c0,0,1.3-0.1,1.7,0.3c0.4,0.3,2.4,1.4,3.7,2c1.3,0.7,4.4,2,5.3,2.3C336.9,57.4,338.5,57.5,338.5,57.5L338.5,57.5z"/>
	<path class="st0" d="M291.7,187.9c0,0-3.8-0.8-4.6-1.6c-0.8-0.7-0.3-1-2-1c-1.7,0-2,0.4-2,0.4v0.9l-1.8,1.4v1.1l-1.8,0.3
		c0,0-0.6,0.3,0.3,1.4c0.9,1,1,1.1,1,1.1l-1,0.5v0.6l0.6,0.1l-1.7,0.4l0.2,2.1l0.8-0.2l0.2-1.3h1.4c0,0,0.2,1.5,5.9,7.8
		c5.7,6.3,6.3,9.6,6.4,12.4c0.2,2.8-0.3,9.9-0.3,9.9l-3.1,9.5l-1.4,0.3c0,0-0.5,0.2-0.3,0.4c0.3,0.2,0.7,0.5,0.7,0.5
		s-2.6,0.4-3.4,1.1c-0.7,0.6-0.7,1-0.7,1l1.1,0.4c0,0-0.2,0.8-0.5,1.1c-0.3,0.3-1.5,0.8-1.5,0.8s-0.3-0.2-0.5-0.4
		c-0.2-0.2-0.4,0.5-0.4,0.5s-1.8,1.7-2.5,1.7c-0.7,0-1.4,1-1.4,1l-1,0.1l-0.2-1.6c0,0-1.5,0.7-1.6,0.9c-0.1,0.3-0.7,0.1-0.7,0.1
		l-0.6,0.5l-0.3-1.5l-3.3,0.1l-0.2-0.8c0,0,1.1,0.6,1.3-0.1c0.2-0.7-0.8-0.9-0.8-0.9s-0.9-0.3-0.9-0.9c0-0.6-1.5-1.1-1.5-1.1
		s0.8-0.1,1.2-0.4c0.4-0.3,0.3-0.6,0.3-0.6s-2.3,0.1-2.7,0.6c-0.4,0.6-0.3,1.7-0.3,1.7s-1.3-0.5-1.7-1.1c-0.3-0.7-1.3-0.7-1.3-0.7
		l-0.2,1.5l-0.3-0.5l0.1-13.6l8.2-0.1c0,0,2.4-0.8,3.3-3.2c0.9-2.4-0.3-4.1-0.3-4.1l-8.3-10.8c0,0-0.6,0.9-0.7,1.3
		c-0.1,0.4-0.8-0.6-0.8-1.6c0-1,0.6-2.1,0.7-2.9c0.1-0.8-2-1.4-2.1-3.8c-0.1-2.4,0.1-2.6,0.1-2.6s1.5-0.3,2,0.2c0.6,0.5,1.1,0,1.1,0
		l-0.1-0.6c0,0-1.2-0.5-2.1-0.5s-1.5,0-1.5,0s-0.1-9.3,0.2-10.4c0.3-1.1,0.3-0.9,0.3-0.9h1l0-0.3l-0.6-0.2c0,0,0.9-4.3,1.9-5.7
		c1-1.4,1-2.1,1-2.1s2.3-2.4,2.6-2.5c0.4-0.1,0.8,0.6,0.8,0.6h0.3c0,0-0.1-0.8-0.3-1c-0.2-0.1,1.3-1.4,1.8-1.8
		c0.5-0.4,0.7-0.2,0.7-0.2l0.1,0.6c0.3,0,0.4-1,0.4-1s1-0.2,0.9,0c0,0.2,0.1,0.8,0.1,0.8s0.6-1.5,2.2-1.6c1.5-0.1,1.6,0,1.6,0l0,0.5
		l0.6,0l0.9-1.5l0.3,0.9c0,0,1.3,0.3,1.5-0.3c0.2-0.6,0.4-0.6,0.4-0.6s0.3,1.2,0.6,1c0.3-0.2,0.8-0.5,0.8-0.5s0.9,0.2,2,0.8
		c1.1,0.6,4.9,0.3,4.9,0.3l0.1,13.2c0,0,0.3,0.6,0,0.6c-0.3,0.1-0.7,0.4-0.7,0.5c0,0.1,0.8,1.1,0.8,1.7
		C291.8,187,291.7,187.9,291.7,187.9L291.7,187.9z"/>
	<path class="st0" d="M296.8,246.3l1.9-0.1v-1l0.8-0.1l-0.4-0.5l-0.2-0.5l1.3-0.1l-0.1,0.9l0.5,0.4l0.5,0.3l0.1,0.6l0.3-0.1
		c0,0,0.4-1.5,0.4-2.3c0-0.8,0.8-0.8,0.9-0.7c0.1,0.1,0.7,1.6,0.7,1.6l0.3,0.9c0,0,0.3-0.5,0.6-0.6c0.3-0.1,1.1-0.4,1.1-0.4l0.9-0.4
		l-0.1,0.7c0,0-1,0.5-1.2,0.7c-0.2,0.2-0.3,0.5-0.3,0.5l0.3,0.1l2.4-0.2l-0.5-0.4l0.6-0.2c0,0,0.9,0.2,1,0.4c0,0.1,0.1,0.4,0.1,0.4
		l1.4,0.1l0-1.2l1.5,0.6l0.3,0.7l13.2-0.2c0,0,1.8-1.2,1.9-2c0.1-0.8,0.1-4.4,0.1-4.4l1.2-1.6l0.2-2.7l0.7-3.1c0,0,0-1.3,0-1.5
		c0-0.3,1.1-1.4,1.1-1.4v-1.9l0.7-0.6v-0.6l-18.5,0.5l-1.5-1.9l-0.1-22.9l-0.5-6.6l0.4-3.8l0.4-11.6v-6.8l-14.9,0.2l0.3,28.4
		c0,0,0.1,1.2,0.3,1.3c0.2,0.1,0.7,1.3,0.3,1.5c-0.4,0.2-0.4,0.4-0.4,0.4l0.1,4.1l1.2,0.7l0.3,1.1h0.8c0,0,1.1,1,0.9,1.8
		c-0.2,0.8-0.6,1.1-0.6,1.1h-2.6L296.8,246.3L296.8,246.3z"/>
	<path class="st0" d="M345.6,238l-4.5,0.2l-0.7-0.3l-1.4,1.6c0,0-0.2-0.6-0.2-0.9c0-0.3-0.8-0.3-0.8-0.3l-2.6,0.3l-5.3,0l3.5-14
		l0.7-0.4l-0.1-0.6l0.8-5.3l2.2-7.8l0.3-3.1c0,0,1.8-2.2,1.9-4.2c0.2-2,0.8-5.4,0.8-5.4l1.4-1.7c0,0,1.1-8.5,1.8-10
		c0.7-1.5,1-2.3,1-2.3s0,2.2,0.5,2.2c0.4,0,0.8,0,0.8-0.5c0-0.4-0.2-2.6-0.2-2.6l-0.9,0c0,0,0.4-1.7,0.5-2.9
		c0.1-1.1,0.6-1.4,0.6-1.7c0-0.3,0.4,0.2,0.5,0.5c0,0.3-0.5,3.5-0.1,3.8c0.4,0.3,1.8,0.2,1.8,0.2l-0.5-2.3l0.2-2.3l0.7,0.6
		c0,0,0.3-0.9,0.1-1c-0.2-0.2-1.2-0.4-1.5-0.9c-0.3-0.5-0.4-0.7-0.5-0.2c-0.1,0.4-0.6,0.6-0.6,0.3c0-0.2,0.8-1,0-1.4
		c-0.8-0.4-2.6-0.5-2.6-0.5s0.4-0.3-0.6-1.4c-1-1.1-2.4-1.7-3.5-2.6c-1-0.9-1.8-1.2-2.2-1.1c-0.4,0.1-0.4,0.7-0.4,0.7l-0.9,0.4
		l-0.4-0.4l0.5-0.5c0,0,0.6-0.3,0.1-0.7c-0.5-0.4-1.4-1.5-1.5-2.2c-0.1-0.7-0.5-0.2-0.6-0.8c-0.1-0.6,1.3,0.3,1.4-0.3
		c0.1-0.6,0.1-1.1,0.6-1.1c0.6,0-0.2,1,0.4,1.4c0.5,0.4,2.4,0.4,2.4,0.4l0.7,0.3c0,0,1.8,1.4,2.2,2.1c0.5,0.7,0.5,1.3,0.5,1.3
		l1.4-0.1c0,0-0.1,0.8,0.4,1.3c0.4,0.5,1.4,2.3,1.9,2.3c0.5,0,1.4,0,1.3-0.5c0-0.5-0.1-0.9,0.5-1.3c0.6-0.4,0.7-0.6,0.6-1.3
		c-0.1-0.7-0.3-1.7-0.3-1.7l-1,0c0,0-0.4-0.7,0-0.9c0.4-0.2,1.3,0.1,1.6-0.8c0.3-0.9,0.2-2.4,0.2-2.4l1-0.2l0.5,0l0.1,0.6l15.7,0
		l5.5,19l0.6,0.3l0.5,0.1l-0.1,0.7l-0.8,0.1L377,204c0,0-0.4,0.2-0.4,0.7c0,0.5,1.2,1.9,1.3,2.6c0.1,0.8,0.6,4.2,0.6,4.2
		s0.7-0.1,1.4,3c0.7,3.1,1.4,6.7,2,7.8c0.7,1.1,1.2,2.8,1.2,3.8c0,1,0.4,2.8,0.4,2.8l0.6,0.1c0,0,0.5,3,0.8,3.8
		c0.3,0.7,0.7,3.4,0.7,4.1c0,0.6,0,0.9,0,0.9l-6.6,0.2c0,0-0.5-0.6-0.7-0.6c-0.2,0-0.7,0-0.7,0l-0.3,0.3l-0.5,0.2l-6.8-0.1
		c0,0-0.3-5.3-1.5-6.5c-1.2-1.2-1.9-1.5-1.9-1.5l-2.4,0.1l-1.7-0.2c0,0-0.5,0.5-1.4,0.6c-0.9,0.2-12.5,0.1-12.5,0.1L345.6,238
		L345.6,238z M339.7,223.6c0,0-0.6,0.9-0.3,2.2c0.3,1.4,0.8,1.2,0.8,1.2l1-0.7l-1-1L339.7,223.6L339.7,223.6z M363.7,223.6
		c0,0-0.6,1.1,0,1.6c0.6,0.5,1.1-0.1,0.8-0.5C364.2,224.3,363.7,223.6,363.7,223.6L363.7,223.6z M372.4,233c0,0-1.5,0.6-1.3,0.9
		c0.2,0.4,1.9,0.6,1.6-0.2C372.4,233,372.4,233,372.4,233L372.4,233z M369.8,223.4c0,0-0.7,1.2-0.1,1.7
		C370.4,225.5,369.8,223.4,369.8,223.4L369.8,223.4z M353,211.9c0,0,0.3-2.6,0-2.8c-0.3-0.2-1-0.5-1.1-1.1c-0.1-0.6-0.7-1.1,0.2-1.8
		c0.9-0.7,1.5-0.9,1.5-0.9l-0.1-2.3c0,0-0.7,0.2-0.7-1c0-1.1,0-0.9,0-0.9s0.6,1.1,1,1.4c0.5,0.3,1.3,0.1,1.4-0.3
		c0.1-0.4,0-1.3-0.2-1.7c-0.2-0.3-0.6-0.5-0.6-0.5h-0.8c0,0-0.2-0.9-0.2-1c0-0.1,0.4-0.8,1-0.8c0.5,0,1.6,0.2,1.7-0.2
		c0.2-0.4,0.7-4.6,1.2-4.7c0.5-0.1,1.5,0.8,1.5,0.8s0.2,4.9,0.8,5.8c0.6,0.9,1.7,3.1,2.1,4c0.4,0.9,0.8,2.9,0.8,4.2
		c0,1.4-0.1,3.4-0.1,3.4L362,212l-0.1,0.4h-0.7l-0.1-0.4L353,211.9L353,211.9z"/>
	<path class="st0" d="M375.6,187.5c-0.9-0.2-1.4-0.2-1.4-0.2l-0.1,0.7l1.3,1.5l0.6-0.1c0,0,0.6-0.3,0.3-1
		C375.9,187.7,375.6,187.5,375.6,187.5L375.6,187.5z"/>
	<path class="st0" d="M373.2,185.8c-0.4,0.3-0.6,0.7-0.3,0.9c0.3,0.2,0.5,0.1,0.6,0c0.1-0.1,0.3-0.4,0.3-0.7
		C373.7,185.9,373.2,185.8,373.2,185.8L373.2,185.8z"/>
	<path class="st0" d="M333.7,168.3c0,0-1.6-0.4-2-0.4c-0.3,0-0.2,0.6,0.4,0.4c0.6-0.2,0.7,0.4,1.4,0.3c0.7-0.1,0.8-0.2,0.8-0.2
		L333.7,168.3L333.7,168.3z"/>
	<path class="st0" d="M336.9,171.8c0,0-0.3-0.1-0.2,0.6c0,0.7,0.2,0.7,0.6,0.7c0.4,0,0.8,0.1,0.7-0.5c-0.1-0.6-0.2-0.8-0.4-0.8
		C337.4,171.7,336.9,171.8,336.9,171.8L336.9,171.8z"/>
	<path class="st0" d="M332.2,179.7c0,0-1.5,0.5-0.7,1.4c0.8,0.8,1.5,1.2,1.7,0.4c0.2-0.8,0-1.4-0.5-1.6
		C332.2,179.7,332.2,179.7,332.2,179.7L332.2,179.7z"/>
	<path class="st0" d="M335.6,176c-0.1,0-1,0.8-0.5,1c0.5,0.1,0.7,0.7,1.1,0c0.4-0.7,0.5-1,0.2-1C336.1,175.9,335.6,176,335.6,176
		L335.6,176z"/>
	<path class="st0" d="M333.8,162.8c-0.6-0.1-0.9,0-0.8,0.3c0.2,0.3,0.4,0.9,0.7,0.9c0.4,0,0.6,0.1,0.7-0.2c0.1-0.4,0.2-0.7-0.1-0.9
		C334.1,162.7,333.8,162.8,333.8,162.8L333.8,162.8z"/>
	<path class="st0" d="M344.3,161.8c-0.2,0.2-0.7,0.6-0.2,1c0.5,0.4,0.7,0.7,1.1,0.4c0.4-0.3,0.8-0.5,0.4-1
		C345.2,161.7,344.3,161.8,344.3,161.8L344.3,161.8z"/>
	<path class="st0" d="M409.8,234.5l-1.5,0.1l-0.9,0.5l-1.5-0.3l-1.3,0.9l-0.7,0.1l-0.5-9.7l-0.7-1.1c0,0,0.4-0.5,0.6-0.8
		c0.2-0.3,0.3-0.9,0.3-0.9l-0.2-5.3c0,0-0.3-0.3-0.6-0.6c-0.3-0.3-0.6-0.6-0.4-0.9c0.2-0.3,0.9-0.1,1-0.4c0.1-0.3,0.1-1.4,0.1-1.4
		l-0.4,0c0,0,0.4,0.9-0.1,0.9c-0.5,0-0.7-0.7-0.7-0.7l0.1-0.7l0.7,0l-0.7-0.5v-2.4l0.4-0.1l0.5,1.3c0,0,0.3-1,0.3-1.1
		c0-0.1,0.5-0.3,0.5-0.3s0.2,0.8,0.7,1.6c0.6,0.8,3.9,4.1,4.6,4.8c0.6,0.7,1.6,3.2,2.8,3.9c1.2,0.7,4.6,4.6,4.6,4.6l13.9,18.4
		c0,0,1,2.1,3.4,2.1c2.4,0,2.6-0.8,2.6-0.8l0.1-16.1l-0.4-0.7l-0.5-51.8c0,0,0.5-0.3,1-0.5c0.5-0.3,0.5-1,0.5-1s0.9,0.3,1.4-0.1
		c0.5-0.4,0.8-1,0.8-1.3c0-0.3-0.4-0.1-0.4-0.1s-0.3,0.7-0.5,0.6c-0.3-0.1,0.2-0.8,0.2-0.8l0.9-0.3l0.8,0l0-0.9l-0.6-0.1
		c0,0,0.2,0.4,0,0.5c-0.2,0-0.1-0.3-0.3-0.6c-0.2-0.4,0-0.4-0.6-0.7c-0.6-0.2-1.8-0.1-2.2,0.2c-0.4,0.3-1.1,0.9-1.2,1.1
		c-0.1,0.2-0.2,0.7-0.2,0.7l-5.1,0.2l0,0.4l-3.5,0.4l-2.1,0.5l-1.9,0.2l0,7.7l0.7,0.1l-0.1,4.4l-0.5,0.1l0,19.6l0.4,0.2l-0.6,1.1
		v0.8l-23.2-27.5c0,0-2.6-4.2-4.9-5.7c-2.2-1.5-4.6-3.2-4.6-3.2s-0.3,1.3-0.2,2.2c0.1,0.9,0.1,32.6,0.1,32.6l0.3,0l0.1,8h-0.4V236
		c0,0,0.6-0.4,0.7,0.3c0.1,0.7-0.7,0.9-0.7,0.9s0.4-0.2,0.7,0.4s0.7,1.8,0.1,1.8c-0.6,0-0.8,0.6-0.5,1.2c0.3,0.6,0.9,1.1,0.9,1.4
		c0,0.3-0.2,0.8-0.2,0.8l-1.3-0.6c0,0,1,0.9,1,1c0,0.1,0,1.5,0,1.5l2.4,0.1l0.7,1.3c0,0,1.2-0.3,1.3-0.3c0.1,0,0.9,1,0.9,1
		s1.4,0.4,1.5,0.9c0,0.4,0.2-0.6,1.1-0.7c0.9-0.2,1.9,1,1.9,1s0.4,0.1,0.9,0c0.5-0.1,1.2-0.7,1.8-0.8c0.5,0,0.4-1.2,0.4-1.2
		s2.8-0.1,3.1-0.1c0.4,0,0.2,0.9,0.2,0.9l-1.8,1.4v1.8l3.6-0.2l0.2-2.6c0,0,2.9,0.6,4.3,1.4c1.4,0.8,1.4,0.8,1.4,0.8s-0.4-1-3.1-1.8
		c-2.7-0.8-3.1-1.1-3.1-1.1s-0.2-0.2-0.6-0.6c-0.4-0.4-0.4-0.8-0.3-1.1c0.1-0.3,0.3-1,0.3-1s0.3-0.1,0.6-0.1c0.3,0,0.1,0.8,0.1,0.8
		s0.4-1,1.2-1c0.7,0,2.8-0.5,2.8-0.5s-1.4,0.1-1.4-0.3c-0.1-0.4,1.2-0.5,1.2-0.5s-1.5-0.1-2.1,0.1c-0.6,0.2-1.1,0.1-1.1-0.1
		c-0.1-0.2-1.5-0.5,1.1-0.6c2.6-0.1,2.8,0.1,2.8,0.1s-0.4-0.6-2.4-0.6c-2,0-2,0-2,0s1-0.9,0.9-1c-0.1-0.1-0.2-0.9,0.3-1.1
		c0.5-0.1,6-2,7.3-2.2c1.2-0.2,1.2-0.2,1.2-0.2s-0.7-0.5-3.8,0.4c-3.1,0.9-4.4,1.2-4.4,1.2s0-0.8,0.4-1c0.4-0.1,1-0.5,1-0.5
		l-0.1-0.5c0,0-0.1,0.3-0.5,0.4c-0.4,0.1-1.1-0.4-1-0.6c0.1-0.3,0.6,0.1,0.9-0.5c0.3-0.5,0.2-0.9,0.1-1
		C410.3,234.3,409.8,234.5,409.8,234.5L409.8,234.5z M400.6,204.3c0,0-0.6,0.5-0.6,1c0,0.5,0.4,0.2,0.4,0.6c0.1,0.3,0.6,0.4,0.5-0.1
		C400.9,205.2,400.6,204.3,400.6,204.3L400.6,204.3z M414.1,207.6c0,0-0.4,1.4-0.9,1.7c-0.6,0.3-0.2,1.3,0.3,1.3c0.5,0,1-0.5,1-1.1
		C414.4,208.8,414.1,207.6,414.1,207.6L414.1,207.6z"/>
	<path class="st0" d="M413.6,242.8c0,0,1.1,0.2,1.4-0.5c0.2-0.7,0.7-1,1.1-0.8c0.4,0.2-0.9,1,0.2,1c1.1,0,1.7,0.1,1.1,0.3
		c-0.6,0.2-1,0.5-1.7,0.3c-0.6-0.2-1.6,0.2-1.8,0.1C413.7,243.1,413.6,242.8,413.6,242.8L413.6,242.8z"/>
	<path class="st0" d="M413.4,234.1c0,0-1-0.4-1.5,0.1c-0.4,0.5-0.9,0.8-0.2,0.8c0.7,0,0.1-0.4,0.6-0.5
		C412.9,234.3,413.4,234.1,413.4,234.1L413.4,234.1z"/>
	<path class="st0" d="M408.3,253.6c0,0,1.9,0.5,2.1-0.1c0.2-0.5,0.1-0.7-0.8-0.8C408.5,252.7,408.3,253.6,408.3,253.6L408.3,253.6z"
		/>
	<path class="st0" d="M449.1,242.7c0,0,3.1,0.4,4.2-0.4c1.1-0.8,6.5-1.1,8.9-2c2.5-0.8,8.4-3.8,13.9-11c5.5-7.3,7.6-18.1,7.6-22.2
		c0.1-4.1-0.5-6.7-0.7-7.7c-0.3-1-0.3-1.3,0.3-1c0.6,0.3,0.9,0.3,0.9,0.5c0,0.2,0.6,0.5,1,0.5c0.4-0.1,1-1.4,0.9-1.9
		c-0.2-0.5-0.6-0.7-0.6-1.1c0-0.4,0.2-0.3-0.4-0.5c-0.6-0.2-1-0.2-1.3,0.3c-0.3,0.5-0.1,0.7-0.6,0.7c-0.4,0-0.5-0.2-0.5-0.2
		s-0.1-1.3-0.6-1.8c-0.4-0.5-0.3-0.3-0.3-1.2c0-0.9,0.1-1,0.7-1.3c0.6-0.3,1-0.4,1-0.7c0.1-0.3-0.3-0.4-0.3-0.4l0.1-0.3l1.6-0.4
		c0,0-1.8,0.1-1.8-0.1c0-0.2,1.3-0.8,1.3-0.8s-0.1-1.1,0.9-1.7c1-0.7,3.8-2.8,3.8-3.7c0-0.9-0.4-0.9-1-0.8c-0.6,0.1-0.9,1.1-1.6,1.1
		c-0.8,0.1-1.3-0.2-0.9-0.7c0.4-0.5,2.6-2.7,2.6-2.7s-0.4-0.4-1,0.2c-0.7,0.5-2,1.7-2.8,2.2c-0.8,0.4-2.2,0.3-2.2,0.3
		s-0.2-0.9,0.1-1c0.3-0.1,1.3-0.3,1.5-0.4c0.2-0.1,0.9-0.4,1.1-0.9c0.2-0.5,0,0.2-0.9,0.4c-0.9,0.2-1.4-0.6-1.4-0.8
		c0-0.1,0.1-1.5,0.1-1.5s-1.6,0.1-1.8,0c-0.2-0.1-0.9,0.3-0.9-0.9c0-1.1-0.6-1.6-0.6-1.6s-0.1,1.4,0.1,1.8c0.2,0.5,0.4,0.9-0.2,1
		c-0.7,0.1-0.5,1.1-1.2,0.9c-0.7-0.2-0.8-8.6-0.8-8.6l-1.4,7.6c0,0-3-3.1-3-3.4c0-0.2,0-1.1,0-1.1l-0.9-0.1c0,0-0.2-1.4,0.1-2.2
		c0.3-0.8-1.6-0.8-1.8-0.8c-0.1,0-0.5,0.5-0.1,0.8c0.4,0.3,0.9,0.9,0.5,1c-0.3,0.1-2.7-1.7-2.7-1.7l1.5-1.1l-0.4-0.3l-0.1-0.7
		l-0.5,0c0,0,0,1.3-0.4,1.5c-0.5,0.2-0.7,0.5-0.7,0.5l-0.4,0.4h-1l0.2,0.8l-0.8-0.1c0,0-1.2,0.1-1.2-0.4s-0.4-0.8,0.1-0.9
		c0.5-0.1,1.7-0.3,1.9-0.8c0.1-0.5-2.2-0.4-2.2-0.4s-0.7-0.1-0.5-0.7c0.2-0.7,0-2.5,0-2.5s-0.1,1.2-0.5,1.3
		c-0.4,0.1-0.5,0.4-0.2,0.5c0.4,0.1,0.4,0.6,0.4,0.6l-3.2,0.3l0.2,0.8h-2.4c0,0,2.2,0.6,2.3,1c0.1,0.4-1.7,0.5-1.9,0.4
		c-0.2-0.1-1-0.7-1-0.7l-0.3-2.6l-10,0.1l0.1-1.8h-0.8l0.1,0.9c0,0-0.5-0.4-1.1-0.4c-0.5,0-0.8,0.3-0.4,0.5c0.4,0.2,1,0.5,1,0.6
		c0,0.2-2.8,0.4-2.8,0.4l-0.3,20.4l0.6,1.1l-0.3,6.2l-0.1,0.5h-0.3c0,0,0.1-0.1-0.4-0.5c-0.4-0.3-0.6-0.3-0.7-0.5
		c-0.1-0.2-0.7-0.3-0.9,0.2c-0.2,0.5-0.5,1.3-0.3,2.1c0.2,0.8,0.6,0.8,0.7,1.1c0.1,0.3,0.3,0.7,0.4,0.6c0.1-0.1-0.2-1.2,0.3-1.5
		c0.5-0.3,0.6-0.2,0.6-0.5c0.1-0.4,0.5-0.4,0.5-0.4l0.1,7.9l0.4,0.4l-0.2,15.2c0,0,1.3-0.1,1.6,0.2c0.3,0.3,0.5,0.5,0.1,0.5
		c-0.3,0-1.2,0.1-1.2,0.1l0.2,5.4l-0.3,0l1,13.7c0,0,1.6,0.3,2,0.3c0.4,0-0.3-0.5,0.3-0.6c0.6-0.1,1.4,0.1,1.3,0.4
		c-0.1,0.3,0.8-0.1,1,0.1C449.2,242.2,449.1,242.7,449.1,242.7L449.1,242.7z M458.3,220c0,0,0.8,1.2,2.6,0.4
		c1.8-0.8,6.3-7.1,6.6-10.2c0.3-3.1,0.2-7.5,0.2-7.5s1-5-1.9-9.4c-2.9-4.4-4.5-5.1-5.8-5.4c-1.3-0.3-2.1-0.1-2.1-0.1L458.3,220
		L458.3,220z M453.1,215.3c0,0-0.4,0.4-0.1,0.7c0.4,0.3,0.8,0.1,0.8-0.1c-0.1-0.2-0.1-0.3-0.3-0.4
		C453.3,215.3,453.1,215.3,453.1,215.3L453.1,215.3z M450.8,215.5c-0.1,0-0.5,0.4-0.5,0.7c0,0.3-0.9,0.6-0.5,0.9
		c0.5,0.4,0.2,0.2,0.6-0.2c0.5-0.4,0.9-0.3,0.8-0.8C451.2,215.7,450.8,215.5,450.8,215.5L450.8,215.5z M448.3,241.3
		c0,0,0.3-0.7-0.1-1c-0.4-0.3-0.5-0.1-0.5-0.5c0-0.5,0.1-0.5,0.1-0.5l0.8,0.1c0,0-0.5,0.1,0,0.3c0.5,0.3,1,0.8,1,0.8
		s0.4,0.3,0.2,0.5c-0.1,0.3-0.4,0.6-0.6,0.5C449.1,241.5,448.3,241.3,448.3,241.3L448.3,241.3z"/>
	<path class="st0" d="M448.3,241.3c0,0,0.3-0.7-0.1-1c-0.4-0.3-0.5-0.1-0.5-0.5c0-0.5,0.1-0.5,0.1-0.5l0.8,0.1c0,0-0.5,0.1,0,0.3
		c0.5,0.3,1,0.8,1,0.8s0.4,0.3,0.2,0.5c-0.1,0.3-0.4,0.6-0.6,0.5C449.1,241.5,448.3,241.3,448.3,241.3L448.3,241.3z"/>
	<path class="st0" d="M450.8,215.5c-0.1,0-0.5,0.4-0.5,0.7c0,0.3-0.9,0.6-0.5,0.9c0.5,0.4,0.2,0.2,0.6-0.2c0.5-0.4,0.9-0.3,0.8-0.8
		C451.2,215.7,450.8,215.5,450.8,215.5L450.8,215.5z"/>
	<path class="st0" d="M453.1,215.3c0,0-0.4,0.4-0.1,0.7c0.4,0.3,0.8,0.1,0.8-0.1c-0.1-0.2-0.1-0.3-0.3-0.4
		C453.3,215.3,453.1,215.3,453.1,215.3L453.1,215.3z"/>
	<path class="st0" d="M462.6,199.1c0,0,1.6,0.1,2.2-0.4c0.6-0.5,1-1.9,0.8-2.2c-0.2-0.3-1.9-0.2-2.6,0.2c-0.7,0.4-1,1.1-1,1.5
		C462,198.7,462.6,199.1,462.6,199.1L462.6,199.1z"/>
	<path class="st0" d="M492.5,183.2c0,0,0.9,0.8,1.8,0.7c0.9-0.1,1.8-1,1.6-1.6c-0.3-0.6-0.6-0.8-1.1-0.5c-0.5,0.2-0.6,0.4-0.9,0.4
		s0-0.3-0.6-0.5C492.5,181.6,492.5,183.2,492.5,183.2L492.5,183.2z"/>
	<path class="st0" d="M500.1,182.1c0.2,0,0.3,0.3,1.3-0.3c1-0.5,1.6-0.4,1.6-1.1c0-0.7,0.8-1.2-0.1-1.1c-0.8,0.1-0.4,0.6-1.3,0.9
		c-0.9,0.3-1.4,0.9-1.4,0.9L500.1,182.1L500.1,182.1z"/>
	<path class="st0" d="M452.6,168.5c-0.1,0-0.6,0.3-0.6-0.3c0-0.6,0.1-0.5,0.7-0.8c0.5-0.3,0.5-0.7,1-0.4c0.6,0.4,1.3,0.9,0.9,1.1
		c-0.4,0.2-0.7,0.4-0.6,0.5C454,168.7,452.6,168.5,452.6,168.5L452.6,168.5z"/>
	<path class="st0" d="M459.1,169.1c0,0-0.2,0.5,0.2,0.5c0.3,0,0.2-0.9,0.7-0.7c0.5,0.2,0.8,0.8,0.8,0.2c0-0.6-0.2-0.4-0.3-1
		c-0.2-0.7-0.5-1.2-0.7-0.7c-0.2,0.6-0.2,1-0.4,1.3C459.1,169.1,459.1,169.1,459.1,169.1L459.1,169.1z"/>
	<path class="st0" d="M460.3,166.2c0,0-0.3,0.2-0.2,0.4c0.1,0.2,0,0.5,0.2,0.6c0.2,0,0.4,0.1,0.5-0.1c0.1-0.2,0.2-0.5-0.1-0.7
		C460.6,166.3,460.3,166.2,460.3,166.2L460.3,166.2z"/>
	<path class="st0" d="M442.1,194.2c0,0-0.2,0-0.3-0.4c-0.2-0.4,0-0.9-0.9-0.3c-0.9,0.6-0.8,1.1-0.5,1.6c0.4,0.4,0.4,1,1,0.5
		C442,195,442.1,194.2,442.1,194.2L442.1,194.2z"/>
	<path class="st0" d="M478.4,164.8c0-0.3,0.3-1.8,0-2.3c-0.4-0.4-0.4,0.3-0.4,1.1c0,0.8,0.2,1.4,0.2,1.4L478.4,164.8L478.4,164.8z"
		/>
	<path class="st0" d="M490.3,189.5c-0.1,0-0.6,0.3-0.4,0.7c0.2,0.4,0.5,0.3,0.7,0.1C490.8,190,490.3,189.5,490.3,189.5L490.3,189.5z
		"/>
	<path class="st0" d="M493.7,187.5c-0.7,0.2-1.2,0.6-0.7,0.8c0.5,0.2,1.1,0.3,1.3-0.2C494.5,187.6,493.7,187.5,493.7,187.5
		L493.7,187.5z"/>
	<path class="st0" d="M496.1,186.3c0,0-0.9,0.6-0.4,0.7c0.5,0.2,1,0.1,1.2-0.4C497.1,186.1,496.1,186.3,496.1,186.3L496.1,186.3z"/>
</g>
</svg>
