<?xml version="1.0" encoding="utf-8"?>
<!-- Generator: Adobe Illustrator 19.0.0, SVG Export Plug-In . SVG Version: 6.00 Build 0)  -->
<svg version="1.1"
	 id="Layer_1" xmlns:cc="http://creativecommons.org/ns#" xmlns:dc="http://purl.org/dc/elements/1.1/" xmlns:rdf="http://www.w3.org/1999/02/22-rdf-syntax-ns#"
	 xmlns="http://www.w3.org/2000/svg" xmlns:xlink="http://www.w3.org/1999/xlink" x="0px" y="0px" viewBox="-221 376.1 168 40.9"
	 style="enable-background:new -221 376.1 168 40.9;" xml:space="preserve">
<style type="text/css">
	.st0{fill:#FFFFFF;}
</style>
<path class="st0" d="M-98.9,399.5h0.3h3.8h0.4c0.1-0.1,0.2-0.1,0.3-0.3l1.5-1.4c0.2-0.2,0.4-0.3,0.5-0.3h0.1c0.1,0,0.1,0,0.2,0.1
	c0.1,0.1,0.2,0.3,0.1,0.4v0.1c-0.1,0-0.1,0.1-0.1,0.1v0.1l-1.6,3.8c0,0-0.1,0.1-0.1,0.1c-0.1,0.1-0.1,0.3-0.2,0.3
	c-0.1,0.1-0.3,0.2-0.4,0.1c-0.1-0.1-0.2-0.1-0.3-0.3l-0.5-0.4c-0.2-0.2-0.2-0.3-0.4-0.3h-0.2h-3.5h-1.5h-1.2h-2.8h-0.1h-0.1
	c-0.3,0-0.6-0.1-0.6-0.5c0-0.6,0.6-0.6,1-0.6c0.4,0,0.8-0.1,1-0.2c0.1-0.2,0.2-0.5,0.2-1.1V392c0-0.6-0.1-0.9-0.3-1
	c-0.3-0.2-0.6-0.3-1.1-0.3h-0.1c-0.3,0-0.7,0-0.7-0.6c0-0.4,0.2-0.6,0.4-0.6h0.2h0.1h4.5h2.3c0.1,0,0.3,0,0.4,0.1
	c0.1,0.1,0.3,0.3,0.3,0.6s-0.2,0.5-0.5,0.6c-0.2,0.1-0.4,0.1-0.5,0.1c-0.6,0-0.9,0.1-1,0.2c-0.1,0.1-0.1,0.5-0.1,1.1v3.6v1.1v2.4
	L-98.9,399.5L-98.9,399.5z M-149.2,389.8L-149.2,389.8c0.2,0.2,0.4,0.3,0.6,0.4c0.2,0.1,0.4,0.3,0.6,0.4c1,0.8,1.8,1.6,2.5,2.6
	c0.2,0.2,0.3,0.4,0.5,0.7c0.1,0.3,0.3,0.6,0.4,0.8c0.7,1.3,1.1,2.8,1.2,4.5v0.9c-0.1,0.3-0.1,0.6-0.1,0.9c-0.2,1.5-0.6,3.1-1.3,4.5
	c-0.8,1.7-1.9,3.1-3,4.2c-1.1,1.1-2.4,1.9-3.5,2.6c-0.2,0.1-0.3,0.2-0.4,0.2h-0.2c-0.1,0-0.1-0.1-0.2-0.1c0-0.1-0.1-0.1-0.1-0.1
	v-0.1v-0.1c0.1,0,0.1-0.1,0.1-0.1c0.1-0.1,0.1-0.2,0.3-0.3c1-1,1.8-2,2.4-3.1c0.7-1.1,1.2-2.2,1.5-3.5c0.3-0.9,0.4-1.9,0.6-2.8
	c0.1-1,0.2-1.9,0.2-2.9v-0.3c0-0.1,0-0.3-0.1-0.3c0-0.6-0.1-1.3-0.1-1.9c-0.1-0.6-0.1-0.6-0.6-0.6h-0.3h-3.3c-0.8,0-1.1,0-1.2,0.5
	v1.2c0.1,0.3,0.1,0.7,0.1,1.1v0.3c0,1.3,0,1.9,1,1.9c0.1,0,0.1,0,0.1,0.1c0.1,0,0.2,0.1,0.3,0.1c0.1,0.1,0.3,0.3,0.3,0.6
	c0,0.3-0.1,0.4-0.3,0.6c-0.1,0.1-0.3,0.1-0.4,0.1h-3.4h-3.4c-0.4,0-0.8,0-0.8-0.6c0-0.3,0.1-0.5,0.3-0.6c0.2-0.1,0.3-0.1,0.5-0.1
	c0.4,0,1-0.1,1.3-0.4c0.3-0.2,0.5-0.6,0.5-1.3v-1.2c0-0.3,0.1-0.6,0.1-0.8s0.1-0.5,0.1-0.8c0.3-1.3,0.8-2.6,1.7-3.6
	c0.1-0.2,0.3-0.4,0.4-0.6c0.1-0.2,0.3-0.4,0.5-0.5c0.8-1,1.9-1.8,2.9-2.4c0.1-0.1,0.2-0.1,0.3-0.2c0.1-0.1,0.3-0.1,0.4-0.1
	c0.2-0.1,0.3,0,0.5,0.1C-149.6,389.6-149.4,389.6-149.2,389.8z M-148.2,394L-148.2,394c-0.1-0.1-0.1-0.3-0.2-0.3
	c-0.1-0.1-0.1-0.3-0.2-0.3c-0.3-0.5-0.6-1-1-1.3c-0.2-0.1-0.3-0.3-0.4-0.3c-0.1-0.1-0.1-0.1-0.1-0.1s-0.1,0-0.1,0.1
	c-0.1,0.1-0.3,0.2-0.4,0.3c-0.3,0.3-0.6,0.6-0.9,1c-0.3,0.4-0.4,0.7-0.6,1c-0.1,0.1-0.1,0.3-0.1,0.4c0.1,0,0.1-0.1,0.2-0.1h0.3h3.3
	h0.3c0.1,0.1,0.2,0.1,0.2,0.1C-148,394.2-148.1,394.1-148.2,394z M-128.4,389.7h5.8h0.1c0.3,0,0.5,0,0.8,0.1
	c0.3,0.1,0.4,0.1,0.7,0.2c1.2,0.4,1.9,1.4,1.9,2.5v0.1c0,0.1,0,0.2-0.1,0.3c0,0.1,0,0.2-0.1,0.3c-0.1,0.6-0.4,1.1-1.1,1.6
	c0,0.1-0.1,0.1-0.1,0.1c0.2,0.1,0.4,0.2,0.6,0.3c0.2,0.1,0.4,0.3,0.6,0.4c0.8,0.8,1.2,1.7,1.1,2.8c0,0.3-0.1,0.6-0.1,0.8
	c-0.1,0.3-0.2,0.6-0.4,0.8c-0.7,1.3-2.3,2.1-4.5,2.1h-0.1h-1.1h-1.2h-5.8h-0.2h-0.1c-0.3-0.1-0.4-0.2-0.4-0.5c0-0.1,0.1-0.1,0.1-0.2
	c0-0.1,0.1-0.1,0.1-0.2c0.1-0.1,0.1-0.1,0.2-0.1c0.1-0.1,0.4-0.1,0.6-0.1c0.7,0,1.1-0.1,1.3-0.2c0.1-0.1,0.1-0.4,0.1-0.9v-7.9
	c0-0.9-0.3-1-0.6-1.2c-0.1,0-0.1,0-0.1-0.1c-0.1-0.1-0.3-0.1-0.4-0.2c-0.3-0.1-0.5-0.3-0.9-0.5c-0.2-0.1-0.3-0.3-0.4-0.4
	c-0.1-0.1-0.1-0.1-0.1-0.2c0-0.1,0.1-0.2,0.1-0.3c0,0,0.1-0.1,0.1-0.1h0.1h0.1c0-0.1,0.1-0.1,0.1-0.1c0.1,0,0.3,0.1,0.6,0.1
	c0.3,0.1,0.6,0.3,1.2,0.4C-129.7,389.6-129.1,389.7-128.4,389.7L-128.4,389.7z M-126.3,396.7v2.3c0,0.3,0,0.6,0.1,0.8
	c0.1,0.2,0.3,0.3,0.6,0.3h1.7c0.5,0,0.8-0.3,1.1-0.6c0.3-0.3,0.4-0.8,0.4-1.2v-0.1c0-0.8-0.3-1.7-1-2c-0.1-0.1-0.3-0.1-0.4-0.2
	c-0.2-0.1-0.3-0.1-0.5-0.1h-0.1h-1.1c-0.2,0-0.4,0-0.6,0.1C-126.1,396.2-126.3,396.4-126.3,396.7z M-126.2,391.3
	c0,0.1-0.1,0.1-0.1,0.3v2c0,0.2,0,0.4,0.1,0.4c0.1,0.1,0.2,0.1,0.4,0.1h1.7h0.1c0.3-0.1,0.5-0.2,0.6-0.4c0.1-0.2,0.2-0.4,0.2-0.8
	v-0.3c-0.1-0.5-0.3-1-0.8-1.3c-0.1-0.1-0.2-0.1-0.3-0.1h-0.3h-1.2C-125.8,391.3-126.2,391.3-126.2,391.3z M-180.1,387.6
	c0.1,0.2,0.2,0.3,0.3,0.4c0.1,0.1,0.3,0.3,0.4,0.4c0.6,0.6,1.5,1.2,2.5,1.5c0.6,0.2,1.3,0.3,2,0.4c0.8,0.1,1.5,0,2.5-0.1h0.1h0.1
	h0.1c0.3,0.1,0.3,0.3,0.4,0.4v0.1c0,0.1-0.1,0.3-0.1,0.3c-0.1,0.1-0.1,0.2-0.3,0.2c0,0-0.1,0.1-0.1,0.1c-0.9-0.1-1,0.6-1,1.1v0.1
	v7.4c0,0.6,0.1,1,0.3,1.2c0.2,0.2,0.5,0.3,1.2,0.3h0.1c0.3,0,0.7,0.1,0.7,0.6c0,0.3-0.1,0.4-0.3,0.5c-0.1,0.1-0.3,0.1-0.4,0.1h-2.4
	h-4.5h-0.1h-0.2c-0.3-0.1-0.4-0.2-0.4-0.6c0-0.6,0.4-0.6,0.7-0.6h0.1c0.5,0,0.8-0.1,1.1-0.3s0.4-0.5,0.4-1.1v-7.7
	c0-0.9-0.3-1-0.6-1.2c-0.1,0-0.1-0.1-0.1-0.1c-0.7-0.4-1.3-0.8-1.7-1.3c-0.4-0.5-0.8-1-1.3-1.6c-0.2-0.3-0.2-0.5-0.1-0.6
	c0-0.1,0.1-0.2,0.1-0.3c0.1,0,0.2-0.1,0.3-0.1C-180.5,387.3-180.3,387.4-180.1,387.6L-180.1,387.6z M-207.4,385.4
	c-0.3,0.3-0.5,0.7-0.5,1.6v16.3c0,0.6,0.1,1.2,0.4,1.5c0.2,0.3,0.5,0.5,1,0.5h3.6c1.6,0,3.1-1.5,4.2-3.4c1.1-2,1.9-4.5,1.9-6.5
	c0-2.5-0.7-5.1-1.8-7c-1.2-1.9-2.8-3.2-4.7-3.2h-2.7C-206.6,385.2-207.1,385.2-207.4,385.4L-207.4,385.4z M-214.2,381.8h11.6
	c4.1,0,6.8,2,8.5,4.6c1.6,2.6,2.2,5.8,2.2,8.4c0,4.5-1.2,8.1-3.1,10.6c-2,2.5-4.7,3.8-7.9,3.8h-6.5c-0.9,0-2.3,0.1-3.6,0.6
	c-0.3,0.1-0.4,0.1-0.6,0.3c-1,0.5-1.9,1.3-2.4,2.4l-0.1,0.1c0,0,0,0.1-0.1,0.1c0,0.1,0,0.1-0.1,0.1c-0.1,0.1-0.3,0.2-0.4,0.2v-0.1
	c-0.1,0-0.2-0.1-0.3-0.1c-0.1-0.1-0.1-0.2-0.1-0.3c0.2-1,0.4-1.9,0.7-2.5c0.3-0.7,0.6-1.2,0.9-1.7c0.4-0.8,1-1.2,1.5-1.7
	c0.8-0.7,1.5-1.3,1.5-3.3v-17.6c0-0.3,0-0.5-0.1-0.8c0-0.1-0.1-0.3-0.1-0.5c-0.3-0.8-0.8-1.4-1.6-1.5h-0.1c-0.1,0-0.2,0-0.3-0.1
	c-0.1-0.1-0.1-0.1-0.1-0.2c-0.1-0.1-0.1-0.3-0.1-0.4v-0.1l0.1-0.1C-214.5,382-214.3,381.8-214.2,381.8L-214.2,381.8z M-69.2,380.1
	c3.5,0,6.5,1.3,8.7,3.8c2.1,2.4,3.4,6,3.5,10.6c-0.1,3.5-1.1,7-3.1,9.8c-2,2.7-5.1,4.5-9,4.5c-3.3,0-6.4-1.4-8.6-3.9
	c-2.2-2.5-3.6-6.1-3.6-10.4c0-4,1.3-7.7,3.5-10.2C-75.6,381.7-72.5,380.1-69.2,380.1L-69.2,380.1z M-69.7,383.6
	c-0.1,0-0.3,0-0.4,0.1c-1.7,0.1-3.2,1.2-4.3,2.8c-1.2,1.7-1.9,4.1-1.9,6.8c0,0.4,0,0.8,0.1,1.2c0.3,4.6,2.3,8.2,4.8,9.9
	c0.5,0.3,1,0.5,1.5,0.7c0.5,0.1,1,0.3,1.5,0.3c0.1,0,0.3-0.1,0.4-0.1c1.9-0.1,3.5-1.4,4.5-3.3c1.1-1.9,1.7-4.2,1.7-6.5
	c0-0.3,0-0.6-0.1-1c-0.3-4.2-2.2-8-4.7-9.9c-0.5-0.3-1-0.6-1.5-0.8C-68.6,383.7-69.1,383.6-69.7,383.6L-69.7,383.6z"/>
</svg>
