<?xml version="1.0" encoding="utf-8"?>
<!-- Generator: Adobe Illustrator 19.0.0, SVG Export Plug-In . SVG Version: 6.00 Build 0)  -->
<svg version="1.1"
	 id="svg10" xmlns:cc="http://creativecommons.org/ns#" xmlns:dc="http://purl.org/dc/elements/1.1/" xmlns:inkscape="http://www.inkscape.org/namespaces/inkscape" xmlns:svg="http://www.w3.org/2000/svg" xmlns:sodipodi="http://sodipodi.sourceforge.net/DTD/sodipodi-0.dtd" xmlns:rdf="http://www.w3.org/1999/02/22-rdf-syntax-ns#" inkscape:version="0.92.1 r15371" sodipodi:docname="doto-logo-fr.svg"
	 xmlns="http://www.w3.org/2000/svg" xmlns:xlink="http://www.w3.org/1999/xlink" x="0px" y="0px" viewBox="27 330.4 665 97"
	 style="enable-background:new 27 330.4 665 97;" xml:space="preserve">
<style type="text/css">
	.st0{fill:#FFFFFF;}
</style>
<sodipodi:namedview  inkscape:cx="652.76427" id="namedview12" borderopacity="1" showgrid="false" objecttolerance="10" inkscape:zoom="0.70710678" bordercolor="#666666" inkscape:cy="84.932017" guidetolerance="10" gridtolerance="10" pagecolor="#ffffff" inkscape:pageshadow="2" inkscape:window-y="-8" inkscape:pagecheckerboard="true" inkscape:window-x="-8" inkscape:window-maximized="1" inkscape:window-height="1017" inkscape:pageopacity="0" inkscape:current-layer="svg10" inkscape:window-width="1920">
	</sodipodi:namedview>
<g id="g22" transform="translate(4.448465,-4.8604929)">
	<path id="path2" inkscape:connector-curvature="0" class="st0" d="M29.5,418.1h-0.1l-1.8,1.5h27.3c22.9,0,38.2-10.2,43.1-28.7
		c0.8-3.1,5.8-6.3,7.3-6.3h0.3v-1.9h-0.4c-2.1,0-6.6-2.7-7.3-5.9c-3.4-17-20.6-28.9-41.8-28.9H27.5l1.8,1.5h0.1c4.2,0,7,5.8,7,11.2
		v46.3c0,5.4-2.8,11.1-7,11.1 M55.8,412.6h-3.3c-4.3,0-5.5-1.3-5.5-5.7v-49.1l-7.3-3h15.8c19.3,0,30.5,10.7,30.5,28.9
		C86,400.8,74,412.7,55.8,412.6 M114.4,354.4l1.7,70.1l9-26.8l1.8-43.3c0-2,1.5-5,3.6-5h0.1l1.8-1.5h-23.4l1.8,1.5h0.1
		C112.8,349.4,114.3,352.4,114.4,354.4"/>
	<path id="path4" inkscape:connector-curvature="0" class="st0" d="M260.9,425.1h-1.8c-2.1,0-3.5-1.4-3.5-3.5v-75.8
		c0-2.1,1.5-3.5,3.6-3.5h0.9l417.5-4.8l5.2-2.3H224.3l2.7,0.8c8.3,2.3,17.2,5.5,17.2,6.7v37.5h-32.8l-10.3,3.5v-41.1
		c0-1.2,9.2-4.4,17.6-6.7l2.8-0.8H27l5.2,2.3l153.2,4.8h0.9c2.2,0,3.6,1.4,3.6,3.5v75.8c0,2.1-1.4,3.5-3.5,3.5h-0.8L32.2,430
		l-5.2,2.3h194.6l-2.8-0.8c-8.5-2.3-17.6-5.5-17.6-6.7v-37.4h43v37.4c0,1.2-8.9,4.5-17.2,6.7l-2.7,0.8h458.4l-5-2.3L260.9,425.1
		L260.9,425.1z"/>
	<path id="path6" inkscape:connector-curvature="0" class="st0" d="M157.7,413.3c-12.5,0-21.7-15-21.8-15.1l-1.5-2.7l0.8,2.9l4.1,15
		l0.1,0.4l0.4,0.2c2.6,1.7,9.6,6.1,17.8,6.1c5.1,0,10.6-2,14.6-5.3c3.4-2.8,7.4-7.7,7.4-15.6c0-11-9.6-17.1-17.3-21.6
		c-0.7-0.4-1.4-0.8-2.1-1.2c-6.8-4-12.1-6.8-12.1-13.3c0-4.7,2.5-8.8,9.4-8.8c9.2,0,19.7,13,19.8,13.2l1.8,2.3l-7.1-17.7l-0.5-0.2
		l-1.7-0.8c-4.2-1.9-7.9-3.6-11.9-3.6c-12.1,0-20.2,8.7-20.2,16.9c0,11.8,9.5,18.1,17.1,22.6l2.1,1.3c6.7,4,11.9,7,11.9,14
		c0,6.8-4.3,11.2-11.1,11.2 M411.5,357.2c0-3.4,2.9-7.6,5.2-7.6h0.2l1.7-1.5h-22l1.8,1.5h0.2c3.2,0,4.8,5.4,4.8,7.7v32l4.1,10.5
		L356,348h-14.2l1.8,1.5h0.1c5.2,0,7.6,7,7.7,11.8v49.2c0,2.3-1.6,7.7-4.7,7.7h-0.1l-1.7,1.4H366l-1.2-1.5h-0.1c-2.2,0-5-4.3-5-7.7
		v-34.5l-4.1-11.4l56.1,55.2v-62.6L411.5,357.2z M521,388.8c1.5,0,2.9,0,3.8-0.1l19.2,26.9l17.2,10l-1-1.5
		C560,424,535.7,386,535.7,386c7.2-3.6,11.5-10.1,11.5-17.6c0-11.7-10.3-20.5-24.1-20.5h-23.2l1.8,1.5h0.2c2.2,0,4.8,4.2,4.8,7.8
		V410c0,3.7-2.5,8-4.7,8h-0.1l-1.8,1.5h23.8l-1.7-1.5H522c-1,0-4.8-3.2-4.8-8.3v-21h4L521,388.8z M509.8,354.9h10
		c11,0,16.9,4.9,16.9,14c0,5-3.3,8.6-5.3,10.4c-3.2,2.7-7.3,4.1-13.4,4.1h-0.9v-25.1L509.8,354.9L509.8,354.9z M562.2,418.1H562
		l-1.8,1.5h46.9l0.2-1c0.7-3.5,1.2-13.1,1.2-13.5l0-0.4h-1.4l-0.1,0.3c0,0.1-3.2,7.8-7.4,7.8h-17.2c-3.3,0-5.2-1.9-5.2-5.2v-21h10.3
		l11.1-5.6h-21.4v-22.3l-7-3.9h28c2.9,0,4.7,1.8,4.7,4.8v0.2l1.4,1.8l0.1-1.9c0,0,0.1-6.7-0.2-10.5l-0.1-1.1h-43.9l1.8,1.5h0.2
		c2.8,0,4.8,4.7,4.8,7.8v53c0,3.2-2,7.8-4.7,7.8 M614.5,418.2L614.5,418.2l-1.8,1.5H640c22.9,0,43.1-13,43.1-35.8
		c0-22.8-20.8-35.9-42-35.9h-28.6l1.8,1.5h0.1c4.2,0,7,5.8,7,11.2V407c0,5.4-2.8,11.1-7,11.1 M640.7,412.7h-3.2
		c-4.3,0-5.5-1.3-5.5-5.7v-49.2l-7.3-3h15.8c19.3,0,30.5,10.7,30.5,28.9C670.9,400.8,658.9,412.7,640.7,412.7"/>
	<path id="path8" inkscape:connector-curvature="0" class="st0" d="M338.7,378.6c-2.5-18.6-18.3-31.2-35.6-31.2
		c-16.7,0-33,12.9-35.6,31.1c-0.7,1.5-2.3,4-5.7,4v1.9c2.6,0,4.6,2.3,5.7,4.5c2.5,18.8,18.5,31,35.6,31c17.5,0,33.2-12.2,35.6-31
		c1-2.3,3-4.6,5.7-4.6v-1.8C341,382.6,339.4,380.1,338.7,378.6 M304.5,413c-15.1,0-26.3-13.7-26.3-29.9c0-18.9,11.9-28.6,23.2-28.6
		c17.2,0,26.5,14.3,26.5,30.8c0,16.8-10,27.6-23.5,27.6 M494.3,378.5c-2.5-18.7-18.3-31.2-35.6-31.2c-16.7,0-33,12.9-35.6,31.2
		c-0.7,1.5-2.3,4-5.7,4v1.9c2.6,0,4.6,2.3,5.7,4.5c2.5,18.8,18.5,31,35.6,31c17.5,0,33.1-12.2,35.6-31c1-2.2,3-4.6,5.7-4.6v-1.8
		C496.6,382.5,495,380,494.3,378.5 M460.1,413c-15.1,0-26.3-13.7-26.3-29.9c0-18.8,11.9-28.6,23.2-28.6c17.3,0,26.5,14.3,26.5,30.9
		C483.6,402.2,473.5,413,460.1,413"/>
</g>
</svg>
