<?xml version="1.0" encoding="utf-8"?>
<!-- Generator: Adobe Illustrator 19.0.0, SVG Export Plug-In . SVG Version: 6.00 Build 0)  -->
<svg version="1.1"
	 id="svg2" xmlns:cc="http://creativecommons.org/ns#" xmlns:dc="http://purl.org/dc/elements/1.1/" xmlns:svg="http://www.w3.org/2000/svg" xmlns:rdf="http://www.w3.org/1999/02/22-rdf-syntax-ns#"
	 xmlns="http://www.w3.org/2000/svg" xmlns:xlink="http://www.w3.org/1999/xlink" x="0px" y="0px" viewBox="534 -38.2 1680 869.2"
	 style="enable-background:new 534 -38.2 1680 869.2;" xml:space="preserve">
<style type="text/css">
	.st0{fill:#FFFFFF;}
</style>
<g id="layer1" transform="translate(-7.1328025,-565.73124)">
	<path id="path3347" class="st0" d="M2010.3,1289.6l-0.3-292.5l-46.8,163.4l-46.7-162.7l-0.3,222l-152.5-114.4l11.6-8.7l-0.5-569.3
		l144.9,0.4l43.4,152.2l43.5-152.4l214.4,0.7l-70.4,52.6l-0.1,814.4L2010.3,1289.6z M612.3,580.9l-71.2-53.3l401.3,0.5l45.9,35.1
		l0,533.5l12.2,8.8l-388.1,291.3L612.3,580.9z M847.8,997.1l-0.2-307.9l-10.8-8.8l-83.4,0.4l-0.2,387.2L847.8,997.1z M1000.2,1079.9
		l-0.1-516.8l47.1-35.3l281.7,0l47,35.4l0.2,598l-133.2,100.2L1000.2,1079.9z M1223.4,680.1l-71,0.5l-11.1,8.5l0.2,308.1l93.3,70
		l0.2-377.9L1223.4,680.1z M1388.2,1161.8l-0.3-598.8l46.9-35.2l282.1,0.3l47.2,35.3l-0.3,515.6l-241.3,182.5L1388.2,1161.8z
		 M1622.8,997l0-308l-11.9-9.1l-70.9,0.2l-11.4,8.8l0.7,377.3L1622.8,997z"/>
</g>
</svg>
