<?xml version="1.0" encoding="utf-8"?>
<!-- Generator: Adobe Illustrator 19.0.0, SVG Export Plug-In . SVG Version: 6.00 Build 0)  -->
<svg version="1.1" id="Layer_1" xmlns="http://www.w3.org/2000/svg" xmlns:xlink="http://www.w3.org/1999/xlink" x="0px" y="0px"
	 viewBox="0 0 2328.1 331.4" style="enable-background:new 0 0 2328.1 331.4;" xml:space="preserve">
<style type="text/css">
	.st0{fill:#FFFFFF;}
</style>
<g>
	<path class="st0" d="M902.8,157.2c49.5,0,98.8,0,148.1,0c1.6-6.5,2.6-12.8,4.6-18.7c14.8-45.4,46.5-72.7,92.3-82.9
		c42.3-9.4,81.8-1.2,115.4,27c32.4,27.2,45.2,63.1,41.4,104.8c-5.6,61.3-55.3,104.1-113.1,109.2c-43,3.8-80.3-8.8-110.2-40.5
		c-15-15.9-24.1-34.9-28.6-56.5c-8.4,0-16.7,0-25.6,0c-0.1,1.7-0.3,3.5-0.4,5.2c-0.1,15.7-0.2,31.3,0,47c0,3.5-1,5.9-3.5,8.3
		c-22.1,21.6-48.5,33.6-79.1,36.5c-37.4,3.6-71.3-5.7-99.8-30.5c-32.4-28-45-64.3-40.4-106.6C810.2,100,858.2,58.9,915,53.1
		c36.8-3.7,70,5,99.2,28c1.2,0.9,2.3,1.9,3.4,2.9c0.6,0.5,1.2,1.1,2.3,2.1c-17.5,18.1-35,36.2-53.3,55.2c-1.4-3.3-2.8-5.8-3.6-8.5
		c-0.5-1.5-0.2-3.3-0.1-5c1.1-14.1,2.3-13.1-12.4-17.8c-42.6-13.5-82.9,15.5-84.3,60.3c-0.6,18.9,3.2,36.5,15.7,51.3
		c19.9,23.4,60.1,28.2,85.2,10.2c1.4-1,2.6-3.4,2.7-5.2c0.3-7.7-0.1-15.3,0.2-23c0.1-3.4-0.9-5.4-4.1-6.9
		c-18-8.7-35.8-17.7-53.8-26.4C906.7,167.7,902.7,164.3,902.8,157.2z M1115.5,157.3c24,0,47.4,0,71,0c-0.2,6.8-3.9,10.3-9.3,12.9
		c-20,9.7-40,19.6-61,29.9c4,6.9,7.1,13.8,11.7,19.6c15.8,19.9,37.2,25.5,61.3,21.8c25.5-3.9,41.8-19.2,49.4-43.7
		c3.5-11.4,4.2-23.3,2.3-35.1c-3.8-23.7-15.2-42.2-38.2-50.9c-23.3-8.9-45.9-6.6-66,9.3C1125.3,130.1,1118.6,142.4,1115.5,157.3z"/>
	<path class="st0" d="M2163.5,157c55,0,109.6,0,164.6,0c0.1,5.8-2.2,9.8-6.8,12.1c-19.7,10-39.6,19.7-59.5,29.4
		c-1.8,0.9-4.2,0.9-6.3,0.9c-28.8,0-57.7,0-86.5,0c-1.8,0-3.6,0-5.7,0c0,13.7,0,26.8,0,40c0.6,0.2,1.2,0.5,1.8,0.5
		c21.5-0.5,43-0.8,64.4-1.8c9.3-0.4,18.3-3.1,26.3-8.5c3-2,7-2.3,11.1-3.6c0,23,0,44.9,0,67.1c-59.7,0-119.1,0-179.7,0
		c0.9-3.7,1-7.5,2.7-10.1c6.2-9.2,8.8-19.5,9.4-30.1c1.1-17.6,1.3-35.2,2-53.1c-13.8,0-26.6,0-40.1,0c0,1.7,0,3.5,0,5.2
		c0,15.3-0.2,30.7,0,46c0.1,4.3-1.4,7.1-4.3,10c-20.6,19.9-45.3,31.6-73.5,35.2c-38.3,5-73.2-3.8-103.3-28.6
		c-25.4-20.9-39.3-48.2-42.3-81c-6.5-69.7,41.6-123.2,105-132.6c39.3-5.8,75.1,2.7,106.5,27.5c1.2,0.9,2.3,1.9,3.4,2.9
		c0.5,0.4,0.9,1,1.7,2c-17.5,18.1-34.9,36.1-52.6,54.4c-4.2-3.5-5.3-7.8-4.7-12.6c1.7-13.1,1.5-13.9-11-17.7
		c-41.1-12.5-82.1,10.6-85.1,58.3c-1.3,21.5,3.4,41.1,19.2,56.8c19.9,19.7,58.3,22.8,80.9,6.4c1.5-1.1,2.7-3.7,2.8-5.7
		c0.3-7.5,0-15,0.2-22.5c0.1-3.5-1-5.3-4.2-6.9c-18.3-8.9-36.4-18-54.6-26.9c-5.2-2.5-8.5-6.2-8.7-12.7c54.6,0,108.8,0,162.7,0
		c0.6-0.7,1-1,1-1.2c0.1-20.1,1.8-40.3-2.6-60.2c-2.5-11.2-7.4-20.9-17.3-27.6c-3.9-2.6-6.1-6.4-6-11.7c58.5,0,116.9,0,175.7,0
		c0,22.2,0,44.2,0,67.6c-14.5-4.8-27.3-13.3-42.4-13.3c-14.6,0-29.2,0-44.3,0C2163.5,125.5,2163.5,140.9,2163.5,157z"/>
	<path class="st0" d="M391.2,292.9c1.1-3.8,1.4-7.8,3.3-10.6c6.5-9.5,8.3-20.3,9.3-31.2c0.9-9.4,1.1-19,1.1-28.4
		c0.1-33.5,0.4-67-0.2-100.5c-0.2-10.5-2-21.2-4.2-31.5c-2-9.1-7.3-16.7-15.3-22.1c-4-2.7-6.8-6.3-6.3-12.1c1.7-0.1,3.3-0.2,4.9-0.2
		c34.7,0,69.3-0.2,104,0c23.1,0.2,45.5,3.9,65.8,15.6c23.7,13.7,36.2,34.6,39.5,61.4c1.5,12.2,1.1,24.3-1.7,36.2
		c-4.9,20.9-16.8,36.7-35.2,47.6c-1,0.6-2,1.2-3,1.8c-0.1,0.1-0.2,0.3-0.6,0.9c11.1,18.2,22.4,36.5,34.1,55.7
		c38.5-78.9,76.7-157.3,115.5-236.7c41.6,85.2,82.7,169.5,124.1,254.5c-4.9,0-8.8,0-12.7,0c-15.8,0-31.7-0.1-47.5,0.1
		c-3.1,0-4.7-0.9-5.9-3.9c-3.6-9.7-7.6-19.2-11.3-28.8c-1-2.6-2.3-3.4-5.1-3.4c-27.7,0.1-55.3,0.1-83,0c-3.3,0-4.6,1.3-5.7,4.1
		c-3.6,9.3-7.5,18.5-10.9,27.9c-1.2,3.3-2.9,4.1-6.2,4.1c-35.2-0.1-70.3-0.1-105.5,0c-3.8,0-5.6-1.4-7.4-4.5
		c-9.3-16.3-18.9-32.5-28.1-48.9c-1.6-2.9-3.4-3.8-6.7-3.7c-7.6,0.3-15.2,0.1-23.3,0.1c0,19,0,37.5,0,56.4
		C442,292.9,417.3,292.9,391.2,292.9z M467.3,188.2c8.8,0,16.9,0.1,25.1,0c3.6-0.1,7.3-0.6,10.9-1c18.5-2.4,29.5-11.7,32.1-28.3
		c1.1-7.1,1-14.7,0.1-21.9c-1.9-13.6-9.9-23.2-23.3-26.4c-9.6-2.3-19.7-2.6-29.6-3.5c-5-0.4-10.2-0.1-15.3-0.1
		C467.3,134.6,467.3,161.2,467.3,188.2z M730.8,215.1c-9.5-23.9-18.8-47.2-28.6-71.8c-9.8,24.7-19.1,48-28.5,71.8
		C693,215.1,711.5,215.1,730.8,215.1z"/>
	<path class="st0" d="M97.1,331c-0.8-6,1.2-10.6,4.5-14.9c4.5-6,9.2-11.8,13.2-18.1c6.9-10.8,10.2-22.7,10.1-35.5c-0.1-19,0-38,0-57
		c0-1.8,0-3.6,0-5.9c-2.1-0.1-3.9-0.3-5.7-0.3c-14.5,0-29,0.3-43.5-0.2c-4.8-0.1-10-1.3-14.3-3.4c-17.8-8.4-35.3-17.3-52.9-25.9
		c-5-2.5-8.1-6.1-8.5-12.5c41.6,0,82.9,0,124.9,0c0-2.4,0-4.2,0-6c0-18.8-0.4-37.7,0.1-56.5c0.4-12.6-4-22.9-13.6-30.2
		c-10.5-8-22.1-14.8-33.3-21.9c-4.2-2.7-8.8-4.7-13.2-7.1c-4.6-2.6-7.4-6.5-7.8-12.6c1.9-0.2,3.6-0.4,5.4-0.4
		c52.7,0,105.3-0.2,158,0c39.2,0.2,75.5,10.1,106.6,34.9c32.4,25.9,49.7,60.1,54,101.1c3.3,31.3-0.8,61.6-15.1,89.9
		c-21.3,42.2-56.3,67.1-101.7,77.6c-13.5,3.1-27.7,4.7-41.5,4.9c-40.5,0.6-81,0.2-121.5,0.2C100.1,331.2,98.8,331.1,97.1,331z
		 M187.2,276.1c18.5-1,36.6-0.7,54.3-3.3c28.8-4.2,51.4-18.7,64.3-45.8c11.5-24.2,12.7-49.9,7.8-75.7c-6.4-34.1-25.8-57.4-59.7-67.6
		c-21.6-6.5-43.8-5.2-65.9-4.8c-0.3,0-0.5,0.4-0.7,0.6c0,25.7,0,51.4,0,77.5c4,0,7.7-0.3,11.3,0.1c3.9,0.4,8.2,0.6,11.6,2.2
		c18.9,9,37.7,18.4,56.4,27.8c4.6,2.3,7.1,6.2,6.8,12.1c-28.9,0-57.4,0-86.3,0C187.2,224.8,187.2,249.7,187.2,276.1z"/>
	<path class="st0" d="M1876.4,331.3c-12.1,0-23,0-34,0c-11.3,0-22.7-0.2-34,0.1c-3.7,0.1-5.3-1.2-6.5-4.5
		c-3.8-10.1-7.9-20.1-11.7-30.2c-0.9-2.4-2.1-3.3-4.7-3.3c-36.5,0.1-73,0.1-109.5,0c-2.6,0-3.8,1-4.7,3.3
		c-3.9,10.4-7.9,20.8-12.2,31.1c-0.6,1.5-2.9,3.4-4.4,3.4c-22.2,0.2-44.3,0.1-66.5,0.1c-0.6,0-1.2-0.2-2.7-0.5
		c8-18.4,15.9-36.4,24-54.9c-1.4-0.9-2.6-1.7-3.9-2.3c-13.9-6.8-27.8-13.6-41.7-20.4c-6.5-3.2-8.6-5.8-9.3-13
		c1.8-0.1,3.5-0.3,5.2-0.3c20.2,0,40.3-0.1,60.5,0.1c3.7,0,5.5-1.2,7-4.6c33.2-75.7,66.4-151.4,99.7-227.1c1.1-2.4,2.2-4.7,3.8-8.3
		C1779.5,110.8,1827.7,220.6,1876.4,331.3z M1767.8,239.6c-12.3-31.5-24.5-62.6-37-94.7c-12.6,32.1-24.7,63.1-37,94.7
		C1718.7,239.6,1742.9,239.6,1767.8,239.6z"/>
	<path class="st0" d="M1315.4,293c0.9-3.6,1-7,2.6-9.5c9.9-14.8,10.7-31.7,10.8-48.5c0.4-38.2,0.2-76.3,0.1-114.5
		c0-7.3-0.8-14.6-2.1-21.8c-2.1-12.5-7.1-23.5-18.3-30.8c-3.8-2.5-5.8-6.3-5.6-11.6c11.4,0,22.7-0.1,34,0.1c1.5,0,3.1,1.7,4.5,2.9
		c40.8,36.1,81.5,72.3,122.3,108.4c1.3,1.2,2.7,2.3,4.1,3.5c0.5-0.6,0.8-0.9,0.8-1.1c-0.2-20.8-0.1-41.6-0.9-62.4
		c-0.4-11.2-3.4-22.1-10.5-31.3c-2.4-3.1-5.7-5.6-8.8-8.1c-3.7-3-6-6.6-6.1-11.8c29.5,0,58.7,0,88.2,0c0,78.9,0,157.4,0,236.3
		c-4.8,1.1-8.8,0.8-12.8-2.8c-40.9-36.5-81.9-72.8-122.9-109.2c-1-0.9-2-1.7-3.6-3.1c0,38.8,0,76.8,0,115.2
		C1366.1,293,1341.4,293,1315.4,293z"/>
</g>
</svg>
