<?xml version="1.0" encoding="utf-8"?>
<!-- Generator: Adobe Illustrator 19.0.0, SVG Export Plug-In . SVG Version: 6.00 Build 0)  -->
<svg version="1.1" id="Layer_1" xmlns="http://www.w3.org/2000/svg" xmlns:xlink="http://www.w3.org/1999/xlink" x="0px" y="0px"
	 viewBox="0 0 1775.9 350.3" style="enable-background:new 0 0 1775.9 350.3;" xml:space="preserve">
<style type="text/css">
	.st0{fill:#FFFFFF;}
</style>
<path class="st0" d="M275.6,15.1h60.2c0,0-52.9,231.3-55.6,242.6s1.8,17.8,3.7,19.3c1.8,1.5,6.2,5.8,15.2,2
	c9-3.8,11.3-16.3,12.2-19.8s52.5-244.1,52.5-244.1h61.8c0,0-53.2,250.9-55,259.8c-1.8,8.8-12.9,31.2-20,39.3s-19,20-30.2,25.3
	c-11.2,5.3-25.3,9.3-40.5,10.5c-15.2,1.2-29.2-2.5-40.3-8.2c-11.2-5.7-23.8-21.7-26-38.2c-2.2-16.5,0.7-40.2,2.8-50.2
	C218.5,243.6,275.6,15.1,275.6,15.1z"/>
<path class="st0" d="M244.1,29.4c-7-8.3-12.5-12.8-23-12.6s-104.8,0-104.8,0L9.6,341.9h85c0,0,41.5,1,66-18.3s31.8-42.5,31.8-42.5
	s52.3-199.8,56.3-215.3S251.1,37.6,244.1,29.4z M182.4,93.4l-43.8,158.7c0,0-2.2,9.2-11.7,21c-9.5,11.8-33.3,11-33.3,11l61-208.2
	c0,0,14,0,18.2,0c4.2,0,7.8,2.5,9.7,6.5C184.2,86.4,182.4,93.4,182.4,93.4z"/>
<path class="st0" d="M437.3,15.1l-60.9,326H441c0,0,19.9-102,20.9-106.6s8.8-9.9,8.8-9.9L491,341.1h74.3l-45.3-197l80.8-129h-66.6
	l-50.6,82.4l12.1-82.4H437.3z"/>
<path class="st0" d="M612.2,15.1l-36.5,326h147.7l2.7-74.1h-78.5c0,0,3.8-42,4.2-46.3c0.3-4.3,8.7-3.5,8.7-3.5l69,0.3l5-78.8h-72.5
	l4.7-51.3h70.8l4.5-72.3H612.2z"/>
<polygon class="st0" points="806.9,341.1 816.7,15.1 874.7,15.1 913.5,143.4 912.4,14.1 972.5,13.1 983,341.1 917.5,341.1 
	874,199.4 874.2,341.1 "/>
<path class="st0" d="M985.8,14.2h58.2c0,0,15.5,246.9,16.8,250.3c1.3,3.4,3.8,11.4,9.8,13.7s15.6,1.7,18.4-6.4
	c2.8-8.1,1.7-21.3,1.7-21.3l-17.7-236.3h58.7c0,0,19.8,210.5,20.3,218.2c0.5,7.7,3.2,40.8,3,47.7c-0.2,6.8-0.5,30.3-10.8,43.8
	c-10.3,13.5-19.2,19.3-33.5,22.7c-14.3,3.3-36.5,3.3-53.3-2.2s-35-16.5-43.2-29.2c-8.2-12.7-15-26.5-16-36.5S984.7,18.9,985.8,14.2z
	"/>
<path class="st0" d="M1146.1,14.2h59.5l7.5,76.8l30.2-76.8h63.7l-37.6,128.8l103.2,198.1h-75.3c0,0-51.7-111.8-54-116.1
	s-6.7,8-6.7,11.3c0,3.3,9.3,104.8,9.3,104.8h-66.3L1146.1,14.2z"/>
<path class="st0" d="M1324.2,14.2h128.5c0,0,13.5,58.5,14.5,62.7s2.2,8-5.5,8s-62.2-0.2-64.3,0c-2.2,0.2,8.5,51.8,8.5,51.8h75.8
	l17.7,79.2h-74l8.2,50.3h79.2l18.2,73.7H1381L1324.2,14.2z"/>
<polygon class="st0" points="1465.9,14.2 1544.8,14.2 1592.4,124.1 1578.4,14.2 1657.3,14.2 1763.4,338.8 1694.4,339.7 
	1662.7,233.8 1674.4,339.4 1631.5,339.4 1586.8,238.6 1613.6,339.7 1547.5,339.9 "/>
</svg>
