<?xml version="1.0" encoding="utf-8"?>
<!-- Generator: Adobe Illustrator 19.0.0, SVG Export Plug-In . SVG Version: 6.00 Build 0)  -->
<svg version="1.1"
	 id="svg6" xmlns:cc="http://creativecommons.org/ns#" xmlns:dc="http://purl.org/dc/elements/1.1/" xmlns:svg="http://www.w3.org/2000/svg" xmlns:rdf="http://www.w3.org/1999/02/22-rdf-syntax-ns#"
	 xmlns="http://www.w3.org/2000/svg" xmlns:xlink="http://www.w3.org/1999/xlink" x="0px" y="0px" viewBox="98 347 808.2 100"
	 style="enable-background:new 98 347 808.2 100;" xml:space="preserve">
<style type="text/css">
	.st0{fill:#FFFFFF;}
</style>
<g id="g3335" transform="scale(4.6988065,4.6988065)">
	<path id="path2" class="st0" d="M136.9,82.5c-1.3-1-4-1.7-5.3-2.2c-1-0.4-2.5-0.8-2.5-2.4c0-1.6,1.4-3.1,3-3.1
		c2.1,0,3.1,3.4,3.5,4.3c0.1,0.2,0.3,0.2,0.4,0c0-0.1,2.5-3.6,2.6-3.8c0.1-0.2,0.2-0.5,0-0.7c-0.3-0.2-0.6,0-0.7,0.1
		c-0.1,0.1-1.3,1.7-1.3,1.7s-1.6-2.7-4.5-2.7c-2.6,0-4.8,2.1-4.9,4c-0.2,1.8,1,3.3,4,4.6c3,1.3,4.8,1.9,4.8,3.7
		c0,1.6-1.3,3.7-3.4,3.7c-2,0-3.4-2.1-3.6-3.4c-0.1-0.5,0-1.1,0.3-1.5c0.5-0.7,0.8-1.2,0.9-1.3c0.2-0.3-1-0.5-1.5,0.2
		c-0.5,0.7-4.6,6.5-4.8,6.9c-0.2,0.4-0.2,0.7,0,0.9c0.2,0.2,0.6,0.2,1-0.3c0.2-0.2,1.1-1.6,2.1-3l0.3,0.2c0,0,2.6,2.4,5.3,2.4
		c2.8,0,5.3-2.1,5.9-3.8C139,85.5,138.5,83.7,136.9,82.5 M67.3,80.5c0-1.7,1.7-5.6,4.2-5.6c2.9,0,3.9,3.6,4.2,4.8
		c0,0.2,0.2,0.2,0.3,0.1c0.1-0.1,3.3-3.7,3.8-4.4c0.5-0.6-0.1-1.1-0.5-0.7c-0.5,0.6-2.5,2.7-2.5,2.7s-2.1-3.5-5.6-3.5
		c-2.7,0-6.9,2.4-6.9,8.7c0,5.5,3.7,8.1,7.1,8.1c2.1,0,3.6-1.1,3.9-1.4c0.3-0.4,0-0.5-0.2-0.4c-0.7,0.4-1.2,0.8-2.6,0.8
		c-2.5,0-3.9-2.2-4.5-3.6c-0.5-1.2-0.7-3.1-0.7-3.1h9.8c0.4,0,0.5,0.2,0.5,0.5l0,11.1c0,0.4,0.2,0.7,0.6,0.7c0.4,0,0.7-0.6,0.7-1
		V81.7c0-0.5-0.2-0.8-0.8-0.8H67.7C67.3,80.9,67.3,80.5,67.3,80.5 M54.2,81.5c0.5,0.5,0.8,1.1,0.8,1.9c0,0.3-0.2,0.4-0.4,0.5
		c-0.3,0.1-4.4,1.4-5.2,1.7c-0.3,0.1-0.5,0.2-0.5,0.4c0,0.4,0.2,0.9,0.7,1.6c0.5,0.7,1.6,1.3,2.7,1.3c1.1,0,1.8-0.3,2.2-0.9
		c0.1-0.1,0.2-0.3,0.3-0.3c0.1,0,0.2,0.2,0.2,0.3c0,0.2-0.1,0.5-0.2,0.6c-0.9,1.2-2.1,1.8-3.5,1.8c-2.6,0-4.4-2-4.4-4.7
		c0-1.9,1-3.8,2.9-4.7c0.6-0.3,1.4-0.4,1.8-0.4C52.6,80.6,53.6,80.9,54.2,81.5 M48.8,84.5c0,0.1,0.1,0.3,0.2,0.3
		c0.3,0,1.6-0.5,2.7-1c1-0.4,1.4-0.7,1.4-1.1c0-0.7-0.5-1.4-1.6-1.4C50.1,81.2,48.9,83.1,48.8,84.5 M109.1,87.8
		c-0.1,0-0.2,0.1-0.3,0.3c-0.4,0.6-1.1,0.9-2.2,0.9c-1.2,0-2.2-0.6-2.7-1.3c-0.5-0.7-0.7-1.2-0.7-1.6c0-0.2,0.1-0.3,0.5-0.4
		c0.8-0.3,4.9-1.6,5.2-1.7c0.2-0.1,0.4-0.2,0.4-0.5c0-0.8-0.3-1.4-0.8-1.9c-0.6-0.6-1.6-0.9-2.4-0.9c-0.4,0-1.2,0.1-1.8,0.4
		c-1.9,0.9-2.9,2.8-2.9,4.7c0,2.8,1.8,4.7,4.4,4.7c1.4,0,2.7-0.6,3.5-1.8c0.1-0.1,0.2-0.4,0.2-0.6C109.3,88,109.3,87.8,109.1,87.8
		 M103,84.5c0.1-1.4,1.2-3.3,2.7-3.3c1.1,0,1.6,0.8,1.6,1.4c0,0.5-0.4,0.7-1.4,1.1c-1.1,0.5-2.4,1-2.7,1
		C103.1,84.8,103,84.7,103,84.5C103,84.5,103,84.5,103,84.5 M83.2,75.4c1.1-0.4,1.9-0.5,2.5-0.9c0.1,0,0.2,0.1,0.2,0.2
		c-0.1,0.6-0.2,2.1-0.2,5.2c0,3.5-0.1,8.1,0.1,8.7c0.1,0.5,0.2,0.8,1.2,1c0.4,0.1,0.4,0.2,0.4,0.3c0,0.2-0.2,0.2-0.5,0.2
		c-0.6,0-1.6-0.1-2.1-0.1c-0.6,0-1.6,0.1-2.1,0.1c-0.5,0-0.6,0-0.6-0.2c0-0.2,0.2-0.2,0.4-0.3c1.1-0.2,1.2-0.8,1.2-1.9
		c0-0.9,0.2-3.5,0.2-7.2c0-1.8-0.1-3-0.1-3.7c0-0.2,0-0.5-0.6-0.7c-0.5-0.1-0.5-0.4-0.5-0.5C82.9,75.6,83,75.5,83.2,75.4
		 M100.2,89.3c-0.2,0-1,0.1-1.3,0.1c-0.1,0-0.3-0.1-0.4-1c0-0.5-0.1-0.6-0.1-5.4c0-7.3,0.1-6.9,0.2-8.2c0-0.2-0.1-0.4-0.2-0.4
		c-0.1,0-0.2,0-0.3,0.1c-0.6,0.2-1.9,0.6-2.5,0.7c-0.1,0-0.4,0.2-0.4,0.4c0,0.1,0.2,0.2,0.5,0.3c0.8,0.2,0.9,0.8,0.9,0.9
		c0.1,0.6,0.1,3,0,3.6c0,0.1-0.1,0.3-0.2,0.3c-0.3,0-0.7-0.1-1.6-0.1c-0.7,0-2.1,0.2-3.2,0.9c-1.2,0.7-2.6,2-2.6,4.4
		c0,1.2,0.4,2.4,1.2,3.3c0.8,0.8,1.9,1.3,3,1.3c0.8,0,2-0.2,3.2-1.2c0,0,0.1,0,0.1,0.1c0,0.3-0.1,0.8-0.1,1c0,0.1,0.1,0.2,0.2,0.2
		c0.1,0,0.3,0,0.9-0.2c0.5-0.2,1.7-0.3,2.2-0.4c0.1,0,0.4-0.4,0.4-0.6C100.3,89.4,100.3,89.3,100.2,89.3 M96.7,87.1
		c0,0.8-0.3,1.5-0.4,1.6c-0.4,0.3-1,0.6-1.8,0.6c-2.1,0-3.5-2.2-3.5-4.1c0-1.3,0.6-2.5,1-3c0.4-0.4,1.1-0.8,1.9-0.8
		c0.5,0,1.4,0.3,2.1,0.9c0.3,0.3,0.5,0.7,0.5,0.9C96.7,84.3,96.7,85.6,96.7,87.1 M112.1,81.4c0.8-0.3,1.3-0.4,1.5-0.6
		c0.3-0.2,0.4-0.3,0.5-0.3c0.1,0,0.2,0.2,0.2,0.3c0.2,0.4,0.2,1,0.2,1.4c0,0.1,0.1,0.1,0.2,0.1c0.9-0.9,2-1.5,2.8-1.5
		c1,0,1.2,0.6,1.2,0.8c0,0,0.1,0.1,0,0.2c-0.3,0.4-0.7,0.9-0.9,0.9c-0.1,0-0.3,0-0.3-0.1c-0.3-0.2-0.8-0.5-1.3-0.5
		c-0.4,0-1.1,0.4-1.4,0.6c-0.2,0.2-0.2,0.4-0.2,0.5c0,0.5,0.1,4.5,0.1,4.9c0.1,0.7,0.2,1,0.6,1.3c0.2,0.1,0.3,0.1,0.7,0.2
		c0.4,0.1,0.4,0.2,0.4,0.3c0,0.1-0.2,0.2-0.6,0.2c-0.6,0-1-0.1-2.4-0.1c-0.7,0-1,0.1-1.6,0.1c-0.3,0-0.5-0.1-0.5-0.3
		c0-0.1,0.3-0.2,0.5-0.2c0.9-0.3,1-0.6,1-2.1v-4.5c0-0.4-0.3-0.9-0.4-1c-0.4-0.2-0.7-0.3-0.7-0.4C111.8,81.6,111.9,81.5,112.1,81.4
		 M151.3,81.4c0.8-0.3,1.3-0.4,1.5-0.6c0.3-0.2,0.4-0.3,0.5-0.3c0.1,0,0.2,0.2,0.2,0.3c0.2,0.4,0.2,1,0.2,1.4c0,0.1,0.1,0.1,0.2,0.1
		c0.9-0.9,2-1.5,2.8-1.5c1,0,1.2,0.6,1.2,0.8c0,0,0.1,0.1,0,0.2c-0.3,0.4-0.7,0.9-0.9,0.9c0,0-0.3,0-0.3-0.1
		c-0.3-0.2-0.9-0.5-1.3-0.5c-0.4,0-1.1,0.4-1.4,0.6c-0.2,0.2-0.2,0.4-0.2,0.5c0,0.5,0.1,4.5,0.1,4.9c0.1,0.7,0.2,1,0.6,1.3
		c0.2,0.1,0.3,0.1,0.7,0.2c0.4,0.1,0.4,0.2,0.4,0.3c0,0.1-0.2,0.2-0.6,0.2c-0.6,0-1-0.1-2.4-0.1c-0.7,0-1,0.1-1.6,0.1
		c-0.3,0-0.5-0.1-0.5-0.3c0-0.1,0.3-0.2,0.5-0.2c1-0.3,1-0.6,1-2.1v-4.5c0-0.4-0.3-0.9-0.4-1c-0.4-0.2-0.7-0.3-0.7-0.4
		C151,81.6,151.1,81.5,151.3,81.4 M148.4,81.2c0.2,0.2,0.4,0.6,0.4,0.7c0,0.4-0.7,0.9-0.8,0.9c-0.1,0-0.6-0.2-0.9-0.5
		c-0.8-0.6-1.2-0.9-2-0.9c-0.4,0-1.1,0.3-1.5,0.8c-0.7,0.7-1,1.7-1,2.7c0,1.4,0.5,2.2,0.6,2.4c0.6,1,1.8,1.6,3.1,1.6
		c0.9,0,1.5-0.3,2.2-0.7c0.3-0.2,0.5-0.1,0.5,0c0,0.3-0.1,0.5-0.3,0.7c-0.9,0.9-2.2,1.5-3.5,1.5c-1.5,0-2.8-0.8-3.6-1.9
		c-0.4-0.7-0.8-1.8-0.8-2.8c0-1.7,0.9-3.2,2.4-4.1c0.9-0.7,2.5-1,3.2-1C146.9,80.7,148,80.9,148.4,81.2 M164,80.6
		c-1.6,0-2.8,0.7-3.6,1.3c-0.9,0.8-1.7,1.9-1.7,3.7c0,1.2,0.8,2.8,1.8,3.6c0.9,0.7,2.1,1.2,3.2,1.2c1.1,0,2-0.3,3-0.9
		c0.9-0.6,2.1-2.1,2.1-4.1C168.8,82.4,166.4,80.6,164,80.6 M165.7,89c-0.7,0.7-1.2,0.8-1.5,0.8c-1.2,0-2.6-0.9-3.2-2.6
		c-0.2-0.6-0.3-1.3-0.3-2.1c0-1.2,0.6-2.5,1.2-3c0.5-0.4,1.1-0.7,1.6-0.7c0.6,0,1.5,0.4,2,0.9c0.9,1,1.2,2.4,1.2,3.6
		C166.8,86.9,166.3,88.4,165.7,89 M186.1,84.9c-1.7-0.9-2.5-1.5-2.5-2.3c0-0.5,0.4-1.5,1.4-1.5c0.8,0,1.4,0.5,2,1.6
		c0.1,0.3,0.3,0.4,0.4,0.4c0.2,0,0.3-0.2,0.3-0.4c0-0.2-0.1-1-0.2-1.4c0-0.1-0.2-0.3-0.2-0.3s-0.5-0.2-0.8-0.3
		c-0.4-0.1-0.8-0.1-1.3-0.1c-0.8,0-1.5,0.2-1.9,0.5c-0.9,0.5-1.3,1.3-1.2,2.1c0.1,1.1,0.9,1.9,1.7,2.4c0.8,0.5,0.9,0.6,1.5,1
		c0.8,0.5,1.1,1,1.2,1.6c0,0.5-0.1,1-0.5,1.3c-0.3,0.2-0.6,0.4-0.9,0.4c-0.9,0-1.4-0.1-2.1-1.4c-0.2-0.3-0.3-0.4-0.5-0.4
		c-0.1,0-0.2,0.2-0.2,0.5c0,0.3-0.4,1.4-1.8,1.1h0c-1-0.3-1.1-0.6-1.2-1c-0.1-0.6-0.1-5.3-0.1-8.8c0-3.2,0.1-4.6,0.2-5.2
		c0-0.1-0.1-0.3-0.2-0.2c-0.7,0.4-1.4,0.5-2.5,0.9c-0.3,0.1-0.3,0.2-0.3,0.3c0,0.1,0.2,0.2,0.6,0.3c0.3,0.1,0.5,0.4,0.5,0.6
		c0,0.7,0.1,2.2,0.1,4c0,3.8-0.1,6.5-0.2,7.4c-0.1,1.2-0.1,1.5-1.2,1.7c-0.2,0-0.7,0-1,0c-1-0.3-1.1-0.4-1.2-0.9
		c-0.1-0.6-0.1-5.3-0.1-8.8c0-3.2,0.1-4.6,0.2-5.2c0-0.1-0.1-0.3-0.2-0.2c-0.7,0.4-1.4,0.5-2.5,0.9c-0.3,0.1-0.3,0.2-0.3,0.3
		c0,0.1,0.2,0.2,0.6,0.4c0.4,0.1,0.5,0.3,0.5,0.5c0,0.7,0.1,2.2,0.1,4c0,3.8-0.1,6.5-0.2,7.4c-0.1,1.2-0.1,1.6-1.2,1.9
		c-0.3,0-0.4,0.1-0.4,0.3c0,0.2,0.1,0.2,0.6,0.2c0.5,0,1.6-0.1,2.1-0.1c0.4,0,1.5-0.1,2.1-0.1h1.2c0.5,0,1.6,0.1,2.1,0.1
		c0.4,0,1.4,0.1,2,0.1c1.4,0.1,3.9,0.2,4.5,0.2c0.8,0,1.6-0.3,2-0.5c0.6-0.4,1.3-1.2,1.3-2.3C188.1,86.5,187.5,85.7,186.1,84.9
		 M45.5,89.7c-0.6-0.1-0.9-0.3-0.9-0.9c0-1.4-0.1-3-0.1-4.5c0-1-0.2-1.9-0.7-2.6c-0.5-0.7-1.4-1.1-2.6-1.1c-1,0-2.1,0.5-3.1,1.4
		c0,0-0.2,0-0.2-0.1c0-0.7,0.1-5.4,0.3-7.1c0-0.1,0-0.3-0.1-0.3c-0.1,0-0.4,0.1-0.5,0.2c-0.5,0.3-1.3,0.7-2.4,0.8l-9.5,0
		c-2.1,0-3.7-0.1-4.5,0.7c-0.7,0.7-0.5,1.3-0.5,1.8c0.1,0.5,0.8,0.5,0.9,0c0.1-0.5,0.1-0.6,0.2-0.8c0.1-0.2,0.3-0.4,0.9-0.4H27v10.3
		c-0.1,1.7,0,2.1-1.9,2.6c-0.3,0.1-0.5,0.2-0.5,0.4c0,0.2,0.2,0.3,0.8,0.3c0.4,0,1.6-0.2,3-0.2c1.3,0,2.8,0.1,3,0.1
		c0.3,0,0.7,0,0.7-0.3c0-0.2-0.3-0.3-0.6-0.4c-1.8-0.4-1.7-0.7-1.8-2c-0.1-0.5-0.1-1.4-0.1-2.5v-8.3h5.5c0.5,0,1.1,0.2,1.2,0.7
		c0.1,0.7,0.1,1.3,0.1,2.1c0,6.1-0.2,7.8-0.2,8.8c-0.1,0.9-0.3,1.1-0.9,1.4c-0.5,0.1-0.6,0.2-0.6,0.3c0,0.2,0.3,0.3,0.5,0.3
		c0.4,0,1.3-0.1,1.9-0.1c0.6,0,1.8,0,2,0c0.3,0,0.5,0,0.5-0.2c0-0.1-0.1-0.2-0.5-0.3c-0.6-0.1-0.9-0.3-0.9-1.1c0-0.9,0-4.1,0-5.1
		c0-0.7,0.3-1.1,0.4-1.2c0.1-0.1,0.9-0.5,1.9-0.5c0.9,0,1.6,0.3,2,0.8c0.3,0.3,0.4,1.1,0.4,2.4c0,0.4,0.1,3.1,0,3.6
		c-0.1,0.9-0.2,1-0.5,1.2c-0.3,0.1-0.5,0.1-0.5,0.3c0,0.2,0.1,0.2,0.4,0.2c0.7,0,0.9,0,1.5,0c0.8,0,1.1,0.1,1.9,0.1
		c0.5,0,0.6,0,0.6-0.3C46.2,89.9,46,89.8,45.5,89.7 M191.2,80.9c-0.9,0-1.7,0.8-1.7,1.7c0,0,0,0,0,0c0,0.9,0.8,1.7,1.7,1.7
		c0.9,0,1.7-0.8,1.7-1.7c0,0,0,0,0,0C192.9,81.6,192.1,80.9,191.2,80.9 M191.2,84c-0.8,0-1.4-0.6-1.4-1.4c0-0.8,0.6-1.4,1.4-1.4
		c0.8,0,1.4,0.7,1.4,1.4C192.6,83.4,192,84,191.2,84"/>
	<path id="path4" class="st0" d="M191.4,82.7c0.2-0.1,0.4-0.2,0.4-0.5c0-0.3-0.3-0.6-0.6-0.6h-0.6v1.9h0.3v-0.8h0.3l0.4,0.8h0.3
		L191.4,82.7z M190.9,82.5v-0.7h0.3c0.2,0,0.4,0.1,0.4,0.3c0,0.2-0.1,0.3-0.4,0.3L190.9,82.5L190.9,82.5z"/>
</g>
</svg>
