<?xml version="1.0" encoding="utf-8"?>
<!-- Generator: Adobe Illustrator 19.0.0, SVG Export Plug-In . SVG Version: 6.00 Build 0)  -->
<svg version="1.1" id="Layer_1" xmlns="http://www.w3.org/2000/svg" xmlns:xlink="http://www.w3.org/1999/xlink" x="0px" y="0px"
	 viewBox="3629 -1130 7647 3053" style="enable-background:new 3629 -1130 7647 3053;" xml:space="preserve">
<style type="text/css">
	.st0{fill:#FFFFFF;}
</style>
<title>Fallout logo</title>
<path class="st0" d="M5053-40h-568l178-678h735l106-411H4327l-698,2661h444l305-1161h568L5053-40 M5896-428c-426,0-616,138-682,388
	l-59,228h446c0,0,17-75,55-216c37-141,88-150,155-150c29,0,124,2,84,177c-11,48-46,195-90,369c-60,2-99,0-214,0
	c-187,0-507,57-603,406c-96,350-179,552-68,688c105,128,403,124,631-128l-52,198h452L6363-39C6409-217,6280-428,5896-428z
	 M5611,1105c-36,66-83,114-145,114c-164,0-83-214-38-371c15-55,34-232,213-232l98-2L5611,1105z M6811-1130l-698,2661h444l698-2661
	H6811 M7416-1129l-698,2661h444l698-2661H7416 M7550,668l940-1094c-23-2-48-3-73-3c-426,0-613,137-679,387L7550,668z M8202,385h575
	c49-180,82-326,107-425c35-148-53-298-199-342l117-407L8202,385z M8114,690h-569l-126,466c-42,162,63,352,374,384L8114,690z
	 M7648,1923l426-389c295-37,436-167,491-377l206-751L7648,1923z M9828-360c-21,95-361,1365-385,1451c-36,73-85,128-151,128
	c-157,0-80-226-36-383l314-1196h-443L8823,790c-96,349-160,536-49,672c105,129,377,124,605-131l-54,201h444c0,0,459-1715,505-1893
	L9828-360z M11270-1125l-530,219l-147,546h-169l-66,256h167l-240,894c-96,349-177,545-55,672c92,96,241,83,554,70l81-313h-94
	c-155,0-78-213-34-371l257-952h216l66-256h-212L11270-1125z"/>
</svg>
