<?xml version="1.0" encoding="utf-8"?>
<!-- Generator: Adobe Illustrator 19.0.0, SVG Export Plug-In . SVG Version: 6.00 Build 0)  -->
<svg version="1.1"
	 id="svg924" xmlns:dc="http://purl.org/dc/elements/1.1/" xmlns:cc="http://creativecommons.org/ns#" xmlns:rdf="http://www.w3.org/1999/02/22-rdf-syntax-ns#" xmlns:svg="http://www.w3.org/2000/svg" xmlns:sodipodi="http://sodipodi.sourceforge.net/DTD/sodipodi-0.dtd" xmlns:inkscape="http://www.inkscape.org/namespaces/inkscape" sodipodi:docname="Far_Cry_(2017).svg" inkscape:version="1.0.1 (3bc2e813f5, 2020-09-07)"
	 xmlns="http://www.w3.org/2000/svg" xmlns:xlink="http://www.w3.org/1999/xlink" x="0px" y="0px" viewBox="341.9 246.6 1266 296"
	 style="enable-background:new 341.9 246.6 1266 296;" xml:space="preserve">
<style type="text/css">
	.st0{fill:#FFFFFF;}
</style>
<sodipodi:namedview  showguides="true" showgrid="false" inkscape:cy="150.69236" inkscape:cx="640.00001" inkscape:zoom="0.53984375" bordercolor="#666666" pagecolor="#ffffff" borderopacity="1.0" id="base" inkscape:snap-smooth-nodes="true" inkscape:window-maximized="1" inkscape:window-y="-8" inkscape:window-x="-8" inkscape:window-height="706" inkscape:window-width="1366" inkscape:guide-bbox="true" inkscape:document-rotation="0" inkscape:current-layer="layer1" inkscape:pageopacity="0.0" inkscape:pageshadow="2" inkscape:document-units="mm">
	</sodipodi:namedview>
<g id="layer1" transform="translate(4.4571712,-92.060389)" inkscape:label="Layer 1" inkscape:groupmode="layer">
	<g id="g1470" transform="matrix(4.8383531,0,0,4.8383531,17.108197,-353.36025)">
		<g id="g1430">
			<path id="path995" class="st0" d="M66.2,143.8v59.4h14.9v-22.7h17.4V167H81.1v-9.8h25.2v-13.5H66.2z"/>
		</g>
		<g id="g1434">
			<path id="path1270" class="st0" d="M118.9,143.8l-28.1,59.4h16.4l5.5-11.6h14.1v11.6h15v-59.4H118.9z M126.8,161.8v18.7H118
				L126.8,161.8z"/>
		</g>
		<g id="g1438">
			<path id="path1249" class="st0" d="M146.1,143.8v59.4h15v-25.1l16.4,25.1h16.5l-15.7-23.8c6.9-2.9,11.7-9.4,11.7-16.8
				c0-4.7-1.6-8.7-4-11.8c-3.6-4.6-8.6-7.1-14.7-7.1L146.1,143.8z M161.2,157.2h7.8c2.6,0,4.7,1.4,4.7,4.9c0,3.5-2.1,5-4.7,5h-7.8
				V157.2z"/>
		</g>
		<g id="g1442">
			<path id="path1377" class="st0" d="M232.3,143.8v23.3h-12.6v-9.7c-3.3,0.4-6.4,1.8-8.6,4c-2.8,2.7-4.6,7.3-4.6,11.9
				c0,5.5,2.4,9.7,5.4,12.5c3,2.7,6.6,4,9.5,4h10.9v13.5h-11.6c-7.5,0-14.2-2.9-19.4-7.5c-6-5.4-9.7-13-9.9-21.7
				c0-7.7,2.5-14.2,6.6-19.1c5.9-7.3,14.5-11.1,22.9-11.1L232.3,143.8z"/>
		</g>
		<g id="g1446">
			<path id="path1278" class="st0" d="M236.9,143.8v59.4h15v-25.1l16.4,25.1h16.5l-15.7-23.8c6.9-2.9,11.7-9.4,11.7-16.8
				c0-4.7-1.6-8.7-4-11.8c-3.6-4.6-8.6-7.1-14.7-7.1L236.9,143.8z M251.9,157.2h7.8c2.6,0,4.7,1.4,4.7,4.9c0,3.5-2.1,5-4.7,5h-7.8
				V157.2z"/>
		</g>
		<g id="g1450">
			<path id="path1417" class="st0" d="M294.4,203.2v-26.8l-18.3-32.6h16.5l9.2,18.8l9.7-18.8h16.2l-18.4,32.6v26.8H294.4z"/>
		</g>
	</g>
</g>
</svg>
