<?xml version="1.0" encoding="utf-8"?>
<!-- Generator: Adobe Illustrator 19.0.0, SVG Export Plug-In . SVG Version: 6.00 Build 0)  -->
<svg version="1.1"
	 id="svg3069" xmlns:dc="http://purl.org/dc/elements/1.1/" xmlns:cc="http://creativecommons.org/ns#" xmlns:rdf="http://www.w3.org/1999/02/22-rdf-syntax-ns#" xmlns:svg="http://www.w3.org/2000/svg" xmlns:sodipodi="http://sodipodi.sourceforge.net/DTD/sodipodi-0.dtd" xmlns:inkscape="http://www.inkscape.org/namespaces/inkscape" sodipodi:docname="easports fifa logo.svg" inkscape:version="0.48.1 "
	 xmlns="http://www.w3.org/2000/svg" xmlns:xlink="http://www.w3.org/1999/xlink" x="0px" y="0px" viewBox="-73.4 372.1 143.4 49.9"
	 style="enable-background:new -73.4 372.1 143.4 49.9;" xml:space="preserve">
<style type="text/css">
	.st0{fill:#FFFFFF;}
</style>
<sodipodi:namedview  objecttolerance="10" guidetolerance="10" gridtolerance="10" showgrid="false" inkscape:cy="39.966322" inkscape:cx="172.04279" inkscape:zoom="3.2848307" bordercolor="#666666" pagecolor="#ffffff" borderopacity="1" id="namedview3147" inkscape:window-maximized="1" inkscape:window-y="0" inkscape:window-x="0" inkscape:window-height="657" inkscape:window-width="1280" inkscape:current-layer="svg3069" inkscape:pageopacity="0" inkscape:pageshadow="2">
	</sodipodi:namedview>
<g id="g3153" transform="matrix(2.4230506,0,0,2.4230506,2.2436885,1.584983)">
	<path id="path3131" inkscape:connector-curvature="0" class="st0" d="M-22.7,157.4h9.7l0.8-4.5h-15.4l-3.6,20.6h5.7l1.4-7.8h7.8
		l0.8-4.5h-7.8L-22.7,157.4z"/>
	<path id="path3133" inkscape:connector-curvature="0" class="st0" d="M-10.2,152.9l-3.6,20.6h5.7l3.6-20.6H-10.2z"/>
	<path id="path3135" inkscape:connector-curvature="0" class="st0" d="M9.5,161.2H1.7l0.7-3.8H12l0.8-4.5H-2.5l-3.6,20.6h5.7
		l1.4-7.8h7.8L9.5,161.2L9.5,161.2z"/>
	<path id="path3137" inkscape:connector-curvature="0" class="st0" d="M17.6,152.9L6.8,173.5h5.5l1.7-3.6h7.1l0.5,3.6h5.7L24,152.9
		H17.6L17.6,152.9L17.6,152.9z M16.1,165.6l3.5-7.4h0.1l1,7.4H16.1L16.1,165.6z"/>
</g>
</svg>
