<svg xmlns="http://www.w3.org/2000/svg" width="3773" height="716" viewBox="0 0 3773 716">
  <defs>
    <style>
      .cls-1 {
        fill: #fff;
        fill-rule: evenodd;
      }
    </style>
  </defs>
  <path class="cls-1" d="M2465.35,391.125V52.657c0-2,.05-4-0.02-6-0.42-11.491-3.66-21.147-16.83-24.4V2.7h86.43V20.479c-11.93,6.509-13.96,18.925-15.04,31.2-1.14,12.9-1.11,25.922-1.12,38.891q-0.12,159.389-.04,318.776V710.687H2450.7q-33.675-219.554-67.32-438.865l-1.77.027v13.1q0,183.872-.01,367.742c0,6.326-.33,12.651-0.36,18.977-0.08,14.617,3.92,19.526,18.2,22.618a31.809,31.809,0,0,1,3.37,1.191c0.17,2.422.42,4.978,0.52,7.54,0.09,2.291.02,4.587,0.02,8.361-32.67.033-64.77,0.027-97.49,0,0-3.182-.1-5.42.03-7.644,0.13-2.3.48-4.583,0.7-6.465a7.721,7.721,0,0,1,1.84-1.647c15.39-4.915,20.56-11.475,21.26-27.345,0.21-4.654.08-9.323,0.08-13.985q0.015-296.292.02-592.584c0-4.328.12-8.657,0.22-12.985,0.36-14.28-3.7-20.491-17.04-26.015-1.82-.753-3.65-1.477-5.58-2.259V2.346h101.64q27.3,194.63,54.58,388.949ZM540.391,20.485V3.8C547.842,1.447,615.544.589,642.54,2.544c9.513,63.682,18.015,127.846,27.13,191.916,9.083,63.836,17.865,127.716,26.779,191.576l2.059,0.056c0.113-3.632.322-7.264,0.323-10.9q0.033-76.445.016-152.89V56.425c0-2.665-.035-5.33-0.007-7.994,0.126-12.247-2.876-22.6-16.631-26.394V2.556h87.476c0,4.7.308,9.249-.142,13.723a8.494,8.494,0,0,1-3.061,5.527,25.161,25.161,0,0,0-10.618,17.46c-1.731,11.478-3.557,23.087-3.613,34.649-0.3,62.952-.045,125.907-0.037,188.861q0.028,217.344.006,434.687V710.8H684.392q-33.418-217.876-66.908-436.218l-2.118.027V286.7q0,183.868-.01,367.736c0,3.994.06,8-.251,11.981-1.479,18.9,2.249,24.227,21.145,29.008v15.444H539.363c0.31-5.114.586-9.661,0.875-14.43,2.742-.983,5.172-1.871,7.613-2.728a20.447,20.447,0,0,0,13.926-15.7,86.031,86.031,0,0,0,1.736-17.8q0.127-297.285.08-594.568,0-7.991.224-15.982c0.444-14.929-4.2-22.035-18.1-27.47C544.194,21.6,542.6,21.188,540.391,20.485ZM3357.91,422.73c-1.11,22.129-2.13,42.392-3.16,62.654-2.15,42.593-3.31,85.211-.72,127.807,0.7,11.549,3.05,23.082,5.67,34.386a19.73,19.73,0,0,0,7.61,11.028c12,7.9,21.81,2.865,23.97-11.908a579.073,579.073,0,0,0,6.44-94.582,647.442,647.442,0,0,0-11.93-113.056c-2.4-12.23-7.55-23.306-14.31-33.8-26.53-41.171-51.71-83.115-71.5-128.043-3.76-8.519-7.07-17.244-10.31-25.977a131.331,131.331,0,0,1-8.3-46.849c0.16-37.962-.53-75.932-1.2-113.893-0.83-46.209,32.89-83.089,78.93-84.926a118.557,118.557,0,0,1,33.58,3.273c25.34,6.46,40.44,24.309,49.17,48.262,6.84,18.75,8.16,38.354,9.14,57.978,1.28,25.278,2.03,50.582,3.35,75.857,0.25,4.908-.88,7.9-5.2,10.6-20.9,13.056-41.58,26.462-62.35,39.714a24.519,24.519,0,0,1-3.72,1.383c0-9.418.03-18.248-.01-27.077-0.17-45.3-.26-90.59-0.66-135.883-0.06-6.582-1.37-13.2-2.61-19.7a21.049,21.049,0,0,0-3.67-8.081c-6.24-8.623-17.68-8.212-21.68,1.6a70.339,70.339,0,0,0-4.63,24.221c-0.54,20.3-.08,40.633.14,60.951,0.28,25.642.86,51.282,0.98,76.925a30.53,30.53,0,0,0,4.64,15.9c24.26,41.724,48.77,83.313,72.15,125.525,15.99,28.859,29.47,58.949,35.53,91.8,6.25,33.884,8.26,68.1,7.07,102.434-0.8,22.928-2.6,45.851-4.85,68.688-1.51,15.261-6.01,29.972-12.04,44.146-19.68,46.3-59.62,58.932-101.39,48.025-23.2-6.059-40.14-20.439-51.69-41.127-13.25-23.739-19.53-49.641-20.03-76.544-0.76-40.96-.04-81.945-0.35-122.916-0.05-6.621,1.96-10.083,7.95-13.036,20.31-10,40.27-20.687,60.38-31.088C3350.91,426.033,3353.59,424.816,3357.91,422.73ZM3021.42,4.023h74.49c1.2,14.2,2.41,28.068,3.52,41.94q5.835,72.656,11.61,145.317c2.9,36.5,5.64,73.015,8.6,109.511q5.565,68.669,11.38,137.316c2.81,33.835,5.43,67.687,8.52,101.5,4.27,46.729,9.23,93.4,13.16,140.152,1.07,12.666,5.44,21.041,18.89,23.113V712.6H3061.41c0.52-4.008-.11-8.368,1.65-11.282,7.19-11.876,9.35-25.135,9.79-38.319,0.9-26.6.36-53.242,0.37-79.867,0-.921-0.56-1.843-1.04-3.31h-34.34c-0.52,2.593-1.43,5.382-1.59,8.212-1.44,26.257-3.53,52.522-.69,78.807,1.28,11.915,2.82,23.724,9.67,34.228,1.9,2.918,1.67,7.226,2.55,11.586h-93.82c-0.14-3.141-.26-5.969-0.37-8.352a6.219,6.219,0,0,1,1.35-1.059c15.16-3.2,20.13-13,21.16-27.932,4.09-59.426,9.53-118.759,13.82-178.173,4.42-61.092,8.14-122.234,12.05-183.362q5.145-80.727,10.02-161.473,4.11-67.287,8.09-134.582C3020.34,13.42,3020.91,9.136,3021.42,4.023Zm32.26,294.984c-6.46,48.381-14.82,210-12.69,217.6h26.19C3062.65,443.6,3058.17,371.3,3053.68,299.007Zm-968.1,413.546c0.95-4.69.77-8.713,2.52-11.54,6-9.7,7.9-20.533,9.08-31.386a449.8,449.8,0,0,0,.46-87.751,7.893,7.893,0,0,0-1.13-2.164h-34.15c-0.54,5.314-1.24,10.49-1.55,15.69-1.63,26.933-3.21,53.927,1.06,80.713,1.33,8.342,5.4,16.231,7.99,24.4,1.15,3.621,1.76,7.416,2.81,12.007H1978.5v-8.653a30,30,0,0,1,4.36-1.894c10.87-2.859,16.51-9.09,17.38-21.038,2.76-37.834,6.68-75.581,9.65-113.4,3.31-42.144,6.18-84.323,9.05-126.5,2.43-35.87,4.6-71.759,6.88-107.639q4.635-72.753,9.24-145.5c2.28-36.882,4.36-73.776,6.55-110.664q2.055-34.4,4.18-68.788a37.509,37.509,0,0,1,.81-4.259h74.19c0.85,9.062,1.78,17.6,2.45,26.158,3.59,46.126,7.02,92.264,10.69,138.384,4.3,54.08,8.82,108.144,13.21,162.218,2.89,35.5,5.6,71.014,8.58,106.505q5.565,66.168,11.48,132.308c2.68,30.166,5.54,60.314,8.39,90.464,0.75,7.952,1.93,15.867,2.54,23.827,0.74,9.439,5.3,15.461,14.55,17.838a43.509,43.509,0,0,1,4.33,1.66c0.15,2.708.3,5.554,0.49,9.013H2085.58Zm6.55-195.277c-4.45-72.013-8.82-142.659-13.19-213.3h-2.29c-4.2,70.867-8.62,141.721-12.47,213.306h27.95ZM940.385,4.07h74.705c0.85,8.723,1.83,17.53,2.54,26.359q5.91,73.637,11.7,147.284c2.86,36.164,5.59,72.337,8.52,108.494q5.64,69.651,11.49,139.283c2.87,34.826,5.5,69.673,8.65,104.473,4.56,50.371,9.72,100.688,14.1,151.072,1.09,12.433,6.38,19.946,19.18,21.83v9.695H982.153a11.176,11.176,0,0,1,.557-11.985c5.475-8.36,7.252-17.9,8.444-27.439,3.855-30.83,3.3-61.734.973-93.272h-35.6c-0.568,7.123-1.236,14-1.644,20.886-1.42,23.944-2.318,47.888.745,71.788,1.276,9.954,3.39,19.551,8.779,28.35,1.861,3.04,1.686,7.326,2.587,11.763h-93.75c-0.226-3.069-.432-5.878-0.646-8.778,4.246-1.665,8.006-2.954,11.605-4.593,5.86-2.668,9.238-6.9,9.834-13.76,1.584-18.231,4.144-36.382,5.507-54.626q8.145-109.022,15.724-218.086c3.3-48.146,5.955-96.337,8.951-144.5q5.516-88.7,11.1-177.386C937.079,62.37,938.655,33.812,940.385,4.07Zm32.855,297.1c-6.459,71.623-10.4,143.352-14.685,215.324h27.951C982.051,444.175,977.646,372.674,973.24,301.174ZM0,21.45V4.3H219.259V239.019h-19.1c-2.1-17.455-3.934-34.61-6.263-51.7-3.506-25.732-7.917-51.3-15.776-76.142-4.135-13.069-9.393-25.611-17.442-36.837C146.974,55.229,128.292,45.4,104.15,43.969V287.614c9.148,3.1,15.387,1.867,20.873-5.777a68.037,68.037,0,0,0,8.931-17.67c5.368-15.863,7.168-32.434,8.185-49.083,0.667-10.917,1.3-21.837,1.978-33.132h19.117V476.57H144.206c-0.193-3.617-.445-7.15-0.56-10.688-0.771-23.64-1.954-47.243-7.813-70.305-2.712-10.677-6.166-21.118-12.891-30.08-4.647-6.192-10.116-11.3-19.514-12.958v10.513q0,144.862.048,289.724a156.211,156.211,0,0,0,1.2,22.908c1.975,13.215,5.121,15.61,18.821,15.96,0.351,6.115.706,12.295,1.1,19.136H4.073L2.287,691.911c2.265-.259,4.091-0.613,5.925-0.655,8.979-.2,13.624-3.458,15.5-12.236a86.014,86.014,0,0,0,1.857-17.811q0.139-252.7.069-505.4,0-51.937.006-103.876c0-1.665,0-3.331-.033-4.995C25.334,34.708,21.792,24.681,4.8,22.566,3.492,22.4,2.22,21.976,0,21.45ZM1869.87,3.612V239.13c-3.42.162-6.63,0.368-9.84,0.45-2.94.075-5.88,0.016-9.53,0.016-1.6-13.848-2.97-26.992-4.66-40.095-4.19-32.355-9.02-64.584-19.88-95.563-4.89-13.959-11.46-26.946-21.71-37.8-13.42-14.223-29.97-21.34-50.1-22V287.81c11.48,3,17.57.675,23.8-9.341,7.19-11.557,10.21-24.625,11.7-37.858,1.94-17.177,2.79-34.477,4.12-51.723,0.18-2.265.43-4.524,0.68-7.2h17.79c2.31,7.85,3.28,271.988,1.19,294.628h-19.26q-0.21-7.8-.42-15.639c-0.6-22.671-2.33-45.217-8.16-67.239-2.81-10.661-6.5-21.049-13.74-29.654-4.46-5.308-9.31-10.313-18.26-10.711v10.2q0,144.872.06,289.742a143.043,143.043,0,0,0,1.45,22.869c2.2,13.339,4.84,15.3,18.59,16.034,0.51,6.043,1.03,12.176,1.61,18.925H1654.22c-0.4-6.583-.77-12.732-1.13-18.59,1.25-.614,1.82-1.133,2.37-1.128,13.07,0.123,17.42-3.241,19.55-15.874a77.52,77.52,0,0,0,.74-12.939q0.045-305.227.01-610.455c0-1.332-.07-2.668.01-4,0.84-14.256-5.87-23.891-20.73-25.278a43.1,43.1,0,0,1-4.63-1.023c-0.21-2.8-.5-5.651-0.62-8.506-0.11-2.637-.02-5.281-0.02-9.407C1723.07,3.552,1795.85,3.63,1869.87,3.612Zm793.82,249.764h-19.3V0h199.57c1.87,7.13,2.61,235.157.68,253.355-3.63.143-7.48,0.35-11.33,0.43-3.63.075-7.27,0.016-12,.016-0.53-6.771-1.12-12.949-1.48-19.141-1.99-34.593-4.93-69.124-12.7-102.937-3.4-14.814-8.96-29.188-14.31-43.474-1.98-5.29-6.17-9.753-9.36-14.593-0.76.219-1.53,0.438-2.3,0.656-0.15,3.785-.45,7.57-0.45,11.356q-0.03,114.405-.02,228.811V651.2c0,3,.01,6,0.01,8.993-0.05,21.606,8.43,37.361,30.83,43.928v10.05h-131.9c-1.81-8.806-1.81-8.807,4.65-11.555,18.62-7.915,25.71-18.542,25.7-38.442l-0.15-578.52V71.872c-3.27,2.977-5.31,4.427-6.83,6.3-9.68,11.851-14.92,25.907-19.2,40.3-8.86,29.79-13.03,60.455-16.19,91.269C2666.15,223.962,2665.04,238.226,2663.69,253.376ZM1196.75,22.959V2.559h130V21.436a10.947,10.947,0,0,1-2.93,1.444c-15.33,3.2-22.06,13.794-24.02,28.215a127.6,127.6,0,0,0-.89,16.938q-0.075,125.9-.02,251.807,0.12,167.845.39,335.691c0.01,3.615,0,7.23,0,11.1a18.262,18.262,0,0,0,15.92-6c6.09-6.5,12.21-13.3,16.67-20.934,13.93-23.809,21.11-50.243,27.59-76.773,10.21-41.747,16.95-84.138,22.47-126.732,0.55-4.262,1.33-8.5,2.09-13.317,3.28-.243,6.18-0.588,9.09-0.636,2.62-.042,5.24.242,8.55,0.419v289.97H1195.69c-0.22-3.316-.51-6.5-0.62-9.68-0.1-2.959-.02-5.925-0.02-9.124,2.62-.911,4.72-1.833,6.92-2.377,12.37-3.064,19.28-11.3,21.83-23.372a67.83,67.83,0,0,0,1.39-13.857q0.09-294.274-.04-588.549a83.514,83.514,0,0,0-2.28-18.749c-2.77-11.933-9.71-20.274-22.33-22.834C1199.26,23.831,1198.03,23.348,1196.75,22.959ZM3719.34,691.716v17.77h-103.1c-0.12-3.344-.28-6.523-0.34-9.7-0.06-2.953-.02-5.909-0.02-9.186,14.86-3.486,18.37-14.687,19.64-27.182a179.281,179.281,0,0,0,.54-17.966c0.03-72.943.39-145.888-.22-218.825-0.17-19.89-2.95-39.8-5.17-59.622-4.18-37.374-8.82-74.7-13.29-112.039q-7.575-63.45-15.22-126.894c-1.97-16.175-3.99-32.363-6.67-48.429a91.131,91.131,0,0,0-12.84-33.36,61.191,61.191,0,0,0-9.3-11.657c-7.97-7.664-8.14-7.488-8.02-19.364,7.07-2.018,84.68-2.789,105.06-.964V29.437c-13.64,1-18.39,11.087-19.2,23.056-1.05,15.547-2.35,31.384-.58,46.759,6.13,53.553,13.54,106.96,20.45,160.425,1.1,8.547,2.15,17.1,4.68,25.894a37.364,37.364,0,0,0,1.66-5.735q9.81-81.279,19.44-162.579,2.715-23.3,4.18-46.745a89.77,89.77,0,0,0-1.27-18.845c-1.47-9.8-5.98-17.625-16.61-20.92V14.306H3773v16.9c-1.04.574-1.86,1.376-2.77,1.481-13.78,1.6-18.76,10.544-20.41,23.124q-13.125,99.974-26.65,199.9c-7.65,56.725-15.54,113.418-23.13,170.151a207.927,207.927,0,0,0-1.84,26.852q-0.225,99.921-.06,199.842c0,3.985.17,7.983,0.52,11.952C3699.83,677.816,3704.88,688.345,3719.34,691.716ZM323.814,712.589V693.8c12.718-1.215,16.18-10.638,17.884-20.817a145.486,145.486,0,0,0,1.792-23.857q0.158-297.226.111-594.451c0-1,.016-2-0.022-3C343.061,37.822,340,25.6,323.965,22.264V2.525h109.7c0,3.82-.059,7.074.013,10.325,0.128,5.788-1.069,9.871-7.875,11.821s-10.462,8.138-11.734,15.043a88.225,88.225,0,0,0-1.485,15.863q-0.108,296.809.06,593.618a139.45,139.45,0,0,0,2.867,25.709c1.965,10.347,7.58,17.781,19.675,18.526v19.159H323.814Z"/>
</svg>
