<?xml version="1.0" encoding="utf-8"?>
<!-- Generator: Adobe Illustrator 19.0.0, SVG Export Plug-In . SVG Version: 6.00 Build 0)  -->
<svg version="1.1" id="Layer_1" xmlns="http://www.w3.org/2000/svg" xmlns:xlink="http://www.w3.org/1999/xlink" x="0px" y="0px"
	 viewBox="-230 337.9 142.3 119.1" style="enable-background:new -230 337.9 142.3 119.1;" xml:space="preserve">
<style type="text/css">
	.st0{fill:#FFFFFF;}
	.st1{fill:none;stroke:#FFFFFF;stroke-width:1.5;}
</style>
<path class="st0" d="M-194.4,356.6c-2-2.8-5.3-4.7-9.1-4.7c-6.1,0-11.1,5-11.1,11.1c0,6.1,5,11.1,11.1,11.1c4.4,0,8.3-2.6,10.1-6.4
	h-9.8v-5h15.6c0,0.1,0,0.2,0,0.4c0,1.6-0.2,3.2-0.7,4.7c-2,6.5-8.1,11.2-15.2,11.2c-8.8,0-15.9-7.1-15.9-15.9
	c0-8.8,7.1-15.9,15.9-15.9c6.5,0,12.1,3.9,14.6,9.5L-194.4,356.6L-194.4,356.6z M-170.6,347.4L-170.6,347.4l-20.1,30.3h6.2l4.3-6.5
	h9.6v6.5h5.2v-30.3L-170.6,347.4L-170.6,347.4z M-176.8,366l6.1-9.3v9.3C-170.6,366-176.8,366-176.8,366z M-124.8,347.4
	L-124.8,347.4l-13.9,20.9v-20.9h-5.2v0l-20.1,30.3h6.2l13.9-20.9v20.9h5.2v0l13.9-20.9v20.9h5.2v-30.3L-124.8,347.4L-124.8,347.4z
	 M-99.7,352.5v-5.2h-15.8v30.3l5.2,0h10.6v-5.2h-10.6v-7.1h10.6v-5.2h-10.6v-7.7L-99.7,352.5L-99.7,352.5z M-150.3,402.6
	c1.7-3.7,4.2-9.4,4.2-9.4h-5.1l-2.7,6l-4-3.7c1.8-1.5,3.4-3.3,3.4-6.4c0-1.7-0.7-3.2-1.8-4.4c-1.4-1.4-3.3-2.1-5.2-2.1
	c-3.4,0-7,2.4-7,6.5c0,2.9,1.6,4.7,3.1,6.1c-2.9,2-5.4,4.2-5.4,8.7c0,2.6,0.9,4.9,2.6,6.5c1.7,1.7,4,2.6,6.6,2.6
	c4.9,0,7.4-2.4,9.2-6.1l6,5.6l3.2-3.4L-150.3,402.6L-150.3,402.6z M-163.4,388c0.4-0.4,1.1-0.7,1.8-0.7c0.7,0,1.5,0.3,1.9,0.8
	c0.3,0.3,0.5,0.7,0.5,1.1c0,1.3-0.6,2-2.3,3.3c-1.5-1.2-2.4-2-2.4-3.3C-163.9,388.7-163.7,388.3-163.4,388 M-156,404
	c-1.6,3.6-2.7,4.5-5.6,4.5c-1.4,0-2.5-0.4-3.4-1.3c-0.8-0.8-1.2-1.9-1.2-3.3c0-2.4,1.3-3.4,4.4-5.6c0,0,0,0,0,0l5.8,5.4
	C-155.9,403.8-156,404-156,404z M-171.4,416.9l-20.1,30.3h6.2l4.3-6.5h9.6v6.5h5.2v-30.3H-171.4L-171.4,416.9z M-177.6,435.5
	l6.1-9.3v9.3H-177.6z M-213.9,447.1L-213.9,447.1l13.9-20.9v20.9h5.2v0l20.1-30.3h-6.2l-13.9,20.9v-20.9h-5.2v0l-13.9,20.9v-20.9
	h-5.2v30.3H-213.9L-213.9,447.1z M-102.7,416.9V429h-9.4v-12.2h-5.2v30.3h5.2v-12.9h9.4v12.9h5.2v-30.3H-102.7z M-147.3,416.9h-16.9
	v5.2h5.9v25.1h5.2V422h5.9L-147.3,416.9L-147.3,416.9z"/>
<path class="st0" d="M-124.6,439c-2,2.2-4.9,3.6-8.1,3.6c-6,0-10.9-4.9-10.9-10.9c0-6,4.9-10.9,10.9-10.9c3.2,0,6,1.4,8,3.6h6.1
	c-2.7-5.1-8-8.6-14.1-8.6c-8.8,0-15.9,7.1-15.9,15.9c0,8.8,7.1,15.9,15.9,15.9c6.2,0,11.5-3.5,14.1-8.6H-124.6L-124.6,439z"/>
<path class="st1" d="M-229.3,347.1v101.6c0,0,0,7.5,8.5,7.5h124.1c0,0,7.5,0,7.5-7.5V347.1c0,0,0-8.5-7.5-8.5h-124.1
	C-220.8,338.7-229.3,338.7-229.3,347.1z"/>
</svg>
