<?xml version="1.0" encoding="utf-8"?>
<!-- Generator: Adobe Illustrator 19.0.0, SVG Export Plug-In . SVG Version: 6.00 Build 0)  -->
<svg version="1.1" id="Layer_1" xmlns="http://www.w3.org/2000/svg" xmlns:xlink="http://www.w3.org/1999/xlink" x="0px" y="0px"
	 viewBox="0 0 1676.9 256.1" style="enable-background:new 0 0 1676.9 256.1;" xml:space="preserve">
<style type="text/css">
	.st0{fill:#FFFFFF;}
</style>
<g>
	<path class="st0" d="M179.2,247c-11,0-21,0.1-30.9-0.1c-1.3,0-2.9-0.9-3.9-1.8c-7-6.7-13.9-13.4-20.7-20.3
		c-0.8-0.8-1.2-2.3-1.4-3.6c-0.3-1.3-0.1-2.7-0.1-4c0-40.3-0.1-80.6,0-120.9c0.1-24.1,0.5-48.3,0.8-72.4c0-1.6,0.3-3.2,0.5-5.2
		c11.2,0,21.9,0,33.1,0c3.6,3.8,7.4,7.8,11.2,11.9c0.4-0.1,0.7-0.2,1.1-0.3c0.2-3.7,0.4-7.3,0.6-11.7c5.6-0.4,11.1-0.2,16.5-0.2
		c5.5,0,11,0,16.8,0c1.3,1.1,2.7,2.2,3.9,3.5c5.4,5.6,10.7,11.4,16.2,17c2.2,2.2,3.1,4.5,3.1,7.6c-0.1,8.2-0.1,16.3,0,24.5
		c0.2,56.3,0.5,112.6,0.7,168.8c0,2.1-0.3,4.2-0.4,6.7c-1.8,0.2-3.2,0.6-4.7,0.6c-8.2,0.1-16.3-0.1-24.5,0.1c-3.3,0.1-5.7-1-7.9-3.4
		c-2.6-2.8-5.3-5.3-8.8-8.7C180,239.5,179.6,243,179.2,247z M199.5,220.5c0.2-2.6,0.4-4.5,0.4-6.5c0.3-32.1,0.7-64.3,0.9-96.4
		c0.1-30.2,0-60.3,0-90.5c0-1.9-0.5-3.8-0.7-5.5c-6.9-1.3-23.6-1-27.9,0.7c0,25.8,0,51.9,0,78.1c-6.2,0-11.8,0-17.8,0
		c-0.1-2.5-0.4-4.6-0.4-6.7c0-22,0-44,0-66c0-2.1-0.4-4.1-0.6-6.6c-9.5-0.2-18.4-0.6-27.8,0.3c0,3.1,0,5.6,0,8.1
		c0.1,61.5,0.3,123,0.4,184.5c0,1-0.1,2,0.1,3c0.1,1.1,0.5,2.2,0.9,3.7c8.7,0.4,17.3,0.5,26.2,0c0-2.2,0-3.6,0-5.1
		c0-27.5,0-55,0-82.5c0-2.1,0.4-4.2,0.6-6.3c6.5-1.3,12.5-2.6,19.2-0.4c0,31.3,0,62.4,0,94.1C182.1,221.1,190.6,221,199.5,220.5z
		 M203.7,25.2c0,2.2,0,4.3,0,6.5c0,58.8,0,117.6,0,176.3c0,4.8-1,10.2,0.8,14.3c1.9,4.3,6.5,7.3,10.1,10.8c2.3,2.3,4.8,4.4,7.2,6.6
		c0.4-0.2,0.8-0.3,1.3-0.5c0-65.3,0-130.6,0-196.1C216.7,37.1,210.4,31.3,203.7,25.2z M169.1,223.5c0-2.6,0-4.7,0-6.9
		c0-22.5,0-45,0-67.4c0-2.6-0.2-5.4-1.2-7.7c-1.3-2.9-8.2-8.3-10.7-9.4c-0.1,0.9-0.3,1.7-0.3,2.5c0,28.1,0,56.3-0.1,84.4
		c0,2.5,0.8,4.5,2.7,6.2c4.6,4.3,9.2,8.7,13.8,13.1c0.8,0.7,1.7,1.2,2.7,1.9C178.8,232.4,174.4,227.9,169.1,223.5z M157.6,23.9
		c-1.3,7.3-1,69.6,0.3,73.7c3.4,0,6.9,0,10.6,0c0.3-1.5,0.6-2.6,0.6-3.8c0-18,0-35.9,0-53.9c0-1.3-0.1-2.9-0.8-3.8
		C165.1,32.2,161.6,28.5,157.6,23.9z M173.2,244c-0.9-1.7-1.1-2.3-1.5-2.8c-5.4-5.2-10.8-10.4-16.3-15.5c-0.9-0.9-2.3-1.7-3.5-1.7
		c-7.3-0.1-14.6,0.1-21.9,0.3c-0.2,0-0.4,0.5-0.6,0.7c0.1,0.3,0,0.7,0.2,0.9c5.4,5.5,10.7,10.9,16.2,16.3c0.9,0.9,2.3,1.7,3.5,1.7
		C157,244.1,164.6,244,173.2,244z M219.9,244c-0.6-1.4-0.6-2-0.9-2.3c-5.6-5.4-11.2-10.9-16.9-16.2c-1.1-1-3-1.5-4.5-1.5
		c-6.1-0.2-12.3-0.1-18.5,0c-1,0-2,0.6-3.9,1.1c6.7,6.4,12.8,12.2,19,18c0.6,0.5,1.5,0.9,2.3,0.9C204.1,244,211.7,244,219.9,244z
		 M159.3,129.2c-0.2,0.4-0.4,0.7-0.5,1.1c3.1,3.2,5.8,6.8,10.1,9.6c0-3.9,0-7.1,0-10.7C165.4,129.2,162.4,129.2,159.3,129.2z"/>
	<path class="st0" d="M869.2,246.6c-2,0.2-3.6,0.5-5.3,0.5c-9,0-18-0.1-27,0.1c-3.7,0.1-6.3-1.3-8.6-4.1
		c-4.2-5.1-8.6-10.1-13.6-15.9c-1.7,6.8,0,13-1.4,19.1c-1.4,0.3-2.6,0.7-3.9,0.7c-7.8,0.1-15.7,0-23.5,0.1c-2.7,0-4.8-1-6.6-2.9
		c-5.7-6.3-11.7-12.4-17.3-18.7c-1.2-1.4-1.8-3.5-2.1-5.3c-0.3-2.3-0.1-4.7-0.1-7c0-39.1,0-78.3,0-117.4c0-24,0.2-48,0.3-71.9
		c0-1.5,0.2-2.9,0.2-4.3c3.9-1.3,22.4-1.7,35.2-0.8c6.4,6.8,13.2,14,20,21.2c0.4-0.2,0.9-0.3,1.3-0.5c0-6.7,0-13.3,0-20.5
		c10.3-1,19.9-0.3,29.9-0.5c3.1,3,6.3,6.1,9.4,9.2c3.1,3,6,6.2,9.2,9.2c2.8,2.6,3.9,5.6,3.8,9.3c-0.2,13.2-0.5,26.3-0.4,39.5
		c0.2,51.5,0.4,102.9,0.6,154.4C869.7,242,869.4,244.1,869.2,246.6z M844.8,220.6c-0.5-67,0.8-132.8,0.2-199.4
		c-8.5-0.5-16.3-0.7-24.9,0.1c0,31.4-0.1,62.2-0.1,93.8c-3.5-1.2-3.5-3.5-4-5.5c-6.9-27.8-13.8-55.6-20.8-83.3
		c-0.4-1.7-1.1-3.4-1.8-5.4c-10,0.1-19.8-0.5-29.9,0.4c0,3,0,5.4,0,7.7c0.1,61.5,0.3,123,0.4,184.4c0,1.2-0.1,2.3,0.1,3.5
		c0.1,1.1,0.5,2.2,0.9,3.5c7.4,0.4,14.7,0.8,22.4-0.3c0.2-2.6,0.5-4.8,0.5-7.1c0-24.7,0-49.3,0-74c0-1.8-0.1-3.7,0.2-5.5
		c0.2-0.9,1.1-1.7,2.4-3.6c1.2,3,2.2,4.8,2.6,6.8c6,24.8,12,49.6,17.9,74.3c0.7,3,1.6,6,2.6,9.6C823.9,220.9,833.8,221,844.8,220.6z
		 M848.3,24.7c-0.1,3.1-0.3,5.2-0.3,7.3c0,61,0,121.9,0,182.9c0,1.8-0.2,3.7,0.1,5.5c0.4,1.9,1,4,2.2,5.4c4,4.7,8.2,9.2,12.4,13.7
		c0.7,0.7,1.7,1.2,3.3,2.2c0-2.9,0-4.8,0-6.8c0-47,0-94,0-140.9c0-15.8,0-31.7,0-47.5c0-1.9,0-4.5-1.2-5.7
		C859.8,35.5,854.4,30.6,848.3,24.7z M810.5,240.9c0.4-7.1,0.8-13.6-0.8-20.2c-5.4-22.3-10.7-44.6-16-66.9c-0.4-1.5-0.8-3-1.2-4.5
		c-1.1,0.9-1.4,1.6-1.4,2.3c0,22.3,0,44.6,0.1,66.8c0,1.7,0.2,4,1.3,5.1C798,229.3,803.9,234.7,810.5,240.9z M844.4,223.9
		c-8.8,0.2-17.5-0.6-27.5,0.6c6.2,7.2,11.5,13.4,16.5,19.1c9.2,1,24.1,0.7,28.1-0.8C855.8,236.6,850.3,230.5,844.4,223.9z
		 M815.8,96.3c0.3,0,0.6,0,0.9,0c0.1-0.5,0.4-0.9,0.4-1.4c0-15.5,0.1-31-0.1-46.4c0-1.8-1.1-3.9-2.3-5.2c-4-4.7-8.3-9.1-12.5-13.6
		c-0.7-0.8-1.7-1.3-2.5-1.9c-0.2,0.2-0.5,0.3-0.7,0.5C804.5,50.9,810.2,73.6,815.8,96.3z M805.9,243.9c0.1-0.4,0.3-0.9,0.4-1.3
		c-5.5-5.7-11-11.5-16.7-17c-1.1-1.1-3.3-1.5-5-1.6c-4.7-0.2-9.3-0.1-14-0.1c-1.2,0-2.5,0.3-4.7,0.6c3.4,3.8,6.6,6.8,9.1,10.2
		c5.4,7.6,12.4,11.1,21.8,9.5C799.7,243.7,802.8,244,805.9,243.9z"/>
	<path class="st0" d="M110,109.5c-2,0.2-3.6,0.4-5.2,0.4c-7.5,0-15-0.1-22.5,0.1c-3.4,0.1-6.1-0.9-8.4-3.5c-1.4-1.5-3.1-2.8-5.5-5
		c0,5.7,0,10,0,15c2.6,0.2,5,0.3,7.5,0.4c4.8,0.2,10.1-0.9,14.3,0.8c4.1,1.7,7.2,6.3,10.6,9.6c2.7,2.7,5.3,5.5,8.1,8.2
		c2.1,2,3,4.1,3,7c-0.1,33.1,0,66.3-0.1,99.4c0,1.3-0.3,2.6-0.5,4.3c-5.5,1.2-11,1.1-16.3,0.1c-1.4-0.2-2.6-2-3.7-3.1
		c-1.9-1.8-3.6-3.8-5.5-5.8c-0.9,0.8-1.5,1.2-1.9,1.7c-4,6.4-9.9,8.4-17.1,7.9c-4.3-0.3-8.7-0.1-13-0.1c-7,0-13-2.6-17.9-7.5
		c-6.6-6.6-13.1-13.3-19.7-19.9c-4.2-4.2-6.3-9.3-6.3-15.3c0-37.3,0-74.6,0-111.9c0-17.8,0.2-35.6,0.4-53.5
		c0.1-9.3,4.3-16.2,12.1-18.8c3.1-1.1,6.5-1.6,9.8-1.7c13.3-0.2,26.6-0.1,40-0.1c6,0,11.5,1.8,16,5.9c5.5,5.1,10.9,10.3,16.2,15.6
		c4.2,4.3,5.4,9.9,5.6,15.6c0.2,5.3-0.1,10.7,0,16c0.2,10.6,0.5,21.3,0.7,31.9C110.6,105.3,110.2,107.2,110,109.5z M86.5,220.5
		c1.7-5.4,1.6-94.6,0-99c-9.9-1.5-19.9-2.4-29.7,0.1c-0.4,0.8-0.7,1.2-0.7,1.7c-0.1,6.7-0.2,13.3-0.1,20c0,1.2,0.7,2.7,1.5,3.6
		c2,2.1,2.4,4.6,2.4,7.4c-0.1,10.8,0,21.7-0.1,32.5c0,1.8-0.1,3.7-0.7,5.4c-1.4,4.2-5.3,6.4-9.9,5.9c-4.1-0.5-6.8-3.1-7.3-7.6
		c-0.2-2.1-0.2-4.3-0.2-6.5c0.1-25.8,0.3-51.6,0.4-77.5c0.1-14.7,0-29.3,0-44c0-3-0.1-6,0.1-9c0.2-3.2,1.7-5.7,4.7-7.1
		c4.2-2,11.9-0.1,12,7c0,8.3,0.1,16.7,0.2,25c0,2.1,0.4,4.2,0.6,6.2c6.3,1.4,24.6,1,28.5-0.6c0-1.6,0-3.4,0-5.2
		c0-12.8,0-25.7,0-38.5c0-12-5.4-17.8-17.2-19c-1.7-0.2-3.3-0.2-5-0.2c-10.2,0-20.3,0-30.5,0c-2.3,0-4.7,0.1-7,0.4
		c-9.6,1.3-14.9,6.9-15.6,16.5c-0.1,1.7-0.1,3.3-0.1,5c0.3,21.5,0.7,42.9,0.9,64.4c0,6-0.9,12-0.8,17.9c0.1,13.6,0.7,27.3,0.8,40.9
		c0.2,11.8,0,23.7,0,35.5c0,1.7,0,3.3,0.2,5c0.9,7.3,5.1,11.8,12.3,13.3c2.4,0.5,4.9,0.8,7.4,0.8c5.8,0.1,11.7,0.1,17.5,0
		c2.1,0,4.3-0.4,6.4-0.7c5.3-0.9,9-4,11.3-8.9c0.5-1.1,1.2-2.2,2.2-3.9c2.2,4.9,4.2,9,6.1,13.2C80.5,220.5,83.5,220.5,86.5,220.5z
		 M91.5,123.9c-0.3,2.2-0.6,3.4-0.6,4.7c0,30.3,0,60.6-0.1,90.9c0,2.7,0.8,4.8,2.6,6.7c3.3,3.5,6.4,7.2,9.7,10.7
		c1.2,1.3,2.5,2.4,4.2,4c0.4-1.4,0.7-2,0.7-2.6c0.1-1.3,0.1-2.7,0.1-4c0-29.6,0-59.3-0.1-88.9c0-2.2-0.1-5.1-1.4-6.6
		C102.2,133.9,97.1,129.3,91.5,123.9z M56.1,88.1c0-10,0-19.8,0-29.6c0-1.8,0.1-3.7-0.3-5.5c-0.5-2.8-2.4-4.2-5.3-4.3
		c-2.7-0.1-4.5,1.2-5.1,3.8c-0.4,2.1-0.6,4.3-0.6,6.4c0,41.6,0,83.3,0,124.9c0,1.8,0,3.7,0.3,5.5c0.6,3.6,2.5,5.2,5.7,5.1
		c3.1-0.2,4.8-2,5.1-5.6c0.1-1.5,0.1-3,0.1-4.5c0-8.7-0.1-17.3,0-26c0.1-4.6,0.2-9.1-4-12c0.2-9.8-0.5-19.2,0.5-28.7
		c4-0.4,7.6-0.7,11.4-1.1c0-7,0-13.5,0-20.1C61.5,93.8,59,91.2,56.1,88.1z M105.5,103.4c0.5-0.2,1-0.4,1.5-0.6c0-1.8,0-3.6,0-5.4
		c0-13.1-0.6-26.3,0.2-39.4C108,44.8,99,38.4,90.9,30.6c0,4.6,0,8.5,0,12.5c0,13.1,0,26.3,0,39.4c0,1.9-0.1,4.4,1,5.7
		C96.2,93.5,100.9,98.4,105.5,103.4z M26.8,224.1c-0.2,0.5-0.4,0.9-0.6,1.4c5.3,5,10.2,10.5,15.9,14.8c3.1,2.3,7.6,3.3,11.6,3.8
		c5.1,0.6,10.3,0.3,15.4,0.1c7.2-0.2,11.1-3.5,13.1-11c-2-2.3-4.4-4.7-6.3-7.4c-2-2.8-3.4-5.9-5.3-9.3c-6,6.8-13.5,7.8-21.6,7.5
		c-6-0.2-12-0.1-18,0C29.6,223.9,28.2,224,26.8,224.1z M61.7,87.9c0.7,1.7,0.8,2.2,1.1,2.6c4.8,4.9,9.5,9.8,14.4,14.5
		c1,1,2.6,1.7,3.9,1.8c7.6,0.1,15.3,0,22.9-0.1c0.4,0,0.8-0.5,1.2-0.8c-0.2-0.5-0.2-1.1-0.5-1.4c-4.4-4.8-8.6-9.7-13.2-14.2
		c-1.4-1.3-3.8-2-5.8-2.2c-5.1-0.3-10.3-0.1-15.5-0.1C67.7,87.9,65.1,87.9,61.7,87.9z M80.6,224.4c-0.3,0.4-0.5,0.8-0.8,1.2
		c5.3,5.7,10.5,11.5,15.9,17c2.2,2.3,7.1,2,10.8-0.1c-4.4-5-9-9.8-13.2-15C89.7,223,85.3,223.4,80.6,224.4z"/>
	<path class="st0" d="M1043.3,110c-5.3,0-9.9,0-14.6,0c-4.3,0-8.7-0.1-13,0c-3.6,0.1-6.5-1.1-8.8-3.8c-1.1-1.3-2.5-2.5-4.2-4.2
		c-1.6,5.2-0.9,9.5-0.6,14.3c2,0.2,3.8,0.6,5.5,0.7c4.3,0.1,8.7,0.1,13,0c2.5,0,4.4,0.8,6.2,2.6c5,5.2,10,10.3,15.1,15.2
		c2.7,2.6,3.8,5.6,3.8,9.3c-0.1,22.3,0,44.6,0,67c0,9.7,0,19.3,0,29c0,2-0.2,3.9-0.4,6.3c-6.1,1-11.7,2-16.2-3.5
		c-2.2-2.7-4.8-5-7.6-7.8c-1.1,1.3-2,2.2-2.6,3.3c-3.8,6-9.2,8.9-16.3,8.7c-4.2-0.1-8.3-0.2-12.5,0c-9.2,0.6-16.5-3.1-22.7-9.5
		c-4.3-4.4-8.2-9.3-12.9-13.3c-8.6-7.2-11.1-16-11-27c0.5-33.1,0.1-66.3,0.2-99.4c0-19.3,0.5-38.6,0.2-58
		c-0.2-12.6,8.6-22,21.9-21.7c12.3,0.3,24.7,0.2,37,0c9-0.1,16.6,2.4,22.8,9.2c3.6,3.9,7.7,7.4,11.5,11.1c4.2,4.2,6.5,9.2,6.6,15.2
		c0.1,17,0.2,34,0.3,51C1043.9,106.2,1043.6,107.7,1043.3,110z M1021.2,84.9c0.4-1.1,0.7-1.4,0.7-1.7c0.1-15.5,0.4-31,0-46.5
		c-0.2-8.4-5.7-13.7-14.1-15c-2.5-0.4-5-0.6-7.5-0.6c-10.5-0.1-21-0.1-31.5,0c-2.2,0-4.3,0.1-6.5,0.4c-10,1.4-15.3,7.4-15.7,17.5
		c-0.1,1.5,0,3,0,4.5c0.1,31.2,0.3,62.3,0.4,93.5c0.1,19.8,0,39.7,0,59.5c0,2.7,0.1,5.3,0.4,8c1.3,11.1,6.5,16,17.6,16.4
		c7,0.3,14,0.1,21,0c1.8,0,3.6-0.4,5.4-0.8c4.9-0.9,8.5-3.5,10.8-8c0.5-1.1,1.3-2.1,2.3-3.7c2.6,3.4,4.8,6.3,7.1,9.1
		c3,3.7,4.1,4,9,2.5c1.4-4.5,1.4-93.6-0.2-98.5c-9.9-1-20-2.7-30.6,0.2c0,7.8,0,15.1,0.1,22.4c0,0.9,0.6,2,1.2,2.7
		c2.2,2.4,2.6,5.3,2.6,8.4c0,10.3,0,20.7,0,31c0,1.7-0.1,3.4-0.4,5c-0.9,4.4-4.1,6.9-8.5,7.1c-4.5,0.2-7.7-2-8.9-6.4
		c-0.6-2.2-0.8-4.6-0.8-6.9c-0.1-6.7-0.1-13.3,0-20c0.3-36.1,0.6-72.3,1-108.4c0-1.3,0-2.7,0.2-4c0.8-4.7,4.9-7.4,9.5-6.6
		c4.7,0.8,6.8,3.2,6.9,8.3c0.1,8.3,0,16.7,0.1,25c0,1.9,0.4,3.8,0.6,5.9C1003,84.9,1012.1,84.9,1021.2,84.9z M1041.6,241.9
		c0.3-2,0.4-2.7,0.4-3.3c0-31.6,0-63.2,0-94.8c0-2.5-0.9-4.4-2.6-6.2c-3.5-3.5-6.9-7.2-10.4-10.7c-0.9-0.9-2-1.6-3.8-3
		c-0.2,2.8-0.4,4.7-0.4,6.6c0,26.8,0.3,53.6-0.2,80.3c-0.1,8.5,1.1,15.6,7.9,21.3C1035.7,234.6,1038.1,238,1041.6,241.9z
		 M986.1,146.6c0-9.6-0.3-19.2,0.1-28.9c4.3-0.4,7.8-0.7,11.8-1.1c0-6.3,0.2-12.1-0.1-17.9c-0.1-1.5-1.1-3.3-2.3-4.2
		c-5.2-3.8-6.2-9-5.6-15c0.2-1.8,0-3.7,0-5.5c0-6.3,0.1-12.6-0.1-19c-0.1-3.9-1.6-5.7-4.5-6.1c-3.7-0.6-6.2,1.4-6.5,5.7
		c-0.3,4-0.2,8-0.2,12c0,39.3,0,78.5,0,117.8c0,2.3,0.2,4.7,0.8,6.9c0.6,2.4,2.6,3.3,5,3.2c2.4-0.1,4.2-1.2,4.8-3.6
		c0.4-1.8,0.5-3.6,0.5-5.4c0.1-9.8-0.1-19.6,0.1-29.5C990.1,152.4,989.5,149.4,986.1,146.6z M1005.5,215.5c-0.7,0.4-1.2,0.5-1.5,0.8
		c-4.8,5.9-11.2,7.8-18.6,7.6c-7.1-0.2-14.3-0.1-21.4,0c-1.2,0-2.3,0.3-4.4,0.7c4.6,4.7,8.4,8.9,12.4,12.8
		c4.7,4.6,10.5,6.8,17.1,6.8c4.3,0,8.6,0.1,13,0c8.3-0.1,14.3-4.6,16.9-13.1C1014.5,225.9,1010,220.7,1005.5,215.5z M1024.8,30.9
		c0,3.8,0,7.2,0,10.6c0,10.5,0.6,21-0.2,31.5c-0.8,9.8,1.7,17.6,9.1,23.9c2.1,1.8,3.7,4,5.6,6c0.4-0.1,0.7-0.2,1.1-0.4
		c0.1-1.9,0.4-3.8,0.4-5.7c0-12.5-0.6-25,0.2-37.5C1042,45.7,1033.7,38.5,1024.8,30.9z M995.2,88.5c5.8,6.1,11,11.6,16.4,16.9
		c1,1,3,1.3,4.6,1.4c6.7,0.1,13.3,0.1,20,0c1,0,2-0.6,3.5-1c-4.9-5.7-9.2-10.9-13.8-15.9c-1.2-1.2-3.5-1.8-5.4-1.9
		c-7.1-0.2-14.3-0.1-21.5-0.1C998,88,996.9,88.3,995.2,88.5z M1039.8,244.2c0.2-0.5,0.5-1.1,0.7-1.6c-5.2-5.8-10.2-11.6-15.5-17.2
		c-1.9-2-4.3-1.8-7.4-0.2c5.9,6.3,11.3,12.3,17,18C1035.6,244.1,1038,243.8,1039.8,244.2z"/>
	<path class="st0" d="M457.2,110c-2.9,0-5.2,0-7.5,0c-6.5,0-13-0.2-19.5,0c-3.7,0.1-6.7-0.9-9.4-3.7c-2.4-2.5-5.2-4.6-7.8-6.8
		c-0.4,0.2-0.7,0.4-1.1,0.7c0.5,1.4,0.8,2.8,1.6,4c0.6,0.9,1.6,1.7,2.6,2.3c13.6,7.6,23.6,19.4,34.7,29.9c6.7,6.4,9.9,14.5,9.9,23.8
		c0,21.2,0.1,42.3,0,63.5c0,14.6-8.7,23.2-23.4,23.3c-12.3,0.1-24.7-0.1-37,0.1c-7.9,0.1-14.2-2.8-19.7-8.2
		c-6.3-6.2-12.4-12.5-18.8-18.7c-4.6-4.4-6.9-9.8-6.9-16c-0.1-18.3,0-36.6,0-55c0-1.4,0.3-2.9,0.6-5c11.5-0.6,22.8-0.2,33.5-0.2
		c4.3,2.9,6.6,7.3,11,9.3c2.8-9.5,0.5-16.3-7.4-21.2c-7.7-4.7-15.4-9.4-23.1-13.9c-9.8-5.8-14.4-14.6-14.5-25.7
		c-0.1-17.8,0.1-35.6,0.3-53.5c0-2.5,0.4-5,1.2-7.3c2.6-8.3,9.2-13.2,17.9-13.3c14.2-0.1,28.3-0.1,42.5,0c5.4,0,10.2,2.2,13.9,5.9
		c7.4,7.4,14.7,15,21.8,22.7c3.4,3.7,4.9,8.4,4.9,13.3c0.2,14.8,0.3,29.6,0.3,44.5C457.8,106.2,457.5,107.6,457.2,110z M386.2,148
		c-9.4,0.2-18.1-0.7-27,0.5c-0.2,2.4-0.4,4-0.4,5.7c0,16.3-0.1,32.7,0,49c0.1,11.2,5.5,17.2,16.7,17.6c13.8,0.4,27.7,0.5,41.5,0
		c11.8-0.4,18.1-7.4,18.6-19.3c0-1,0-2,0-3c0-19.5-0.2-39,0.1-58.5c0.2-10.7-4.1-18.5-12.9-24.3c-7.9-5.2-15.5-11-23.7-15.8
		c-9.1-5.4-13.1-12.7-12.1-23.2c0.5-5.1,0.1-10.3,0.1-15.5c0-2.7-0.1-5.4,0.1-8c0.4-3.6,2.2-6.3,5.8-7.4c3.3-1,6.7-0.5,8.7,2.2
		c1.6,2.1,2.5,5.1,2.6,7.8c0.3,8,0.1,16,0.2,24c0,1.7,0.3,3.5,0.5,5.2c9.5,0,18.4,0,27.8,0c0.1-2.3,0.4-4.3,0.4-6.2c0-13,0-26,0-39
		c0-11.8-5.7-18.3-17.4-18.6c-13.5-0.4-27-0.3-40.5,0c-10.2,0.3-16.7,6-16.9,16.1c-0.5,19.1-0.1,38.3,0,57.5c0,0.5,0.2,1,0.2,1.5
		c0.8,7.9,5.1,13.7,11.5,17.9c7.8,5.1,15.8,10,24,14.4c7.7,4.1,11,10.3,10.9,18.7c0,13.2,0,26.3,0,39.5c0,1.7-0.1,3.4-0.5,4.9
		c-1.1,4.2-5.2,6.8-9.5,6.4c-4.4-0.5-7.3-3.2-7.9-7.7c-0.2-1.6-0.2-3.3-0.2-5c0-10.2,0-20.3,0-30.5
		C386.7,152.7,386.4,150.8,386.2,148z M372.6,224c-0.2,0.5-0.4,1-0.6,1.6c3.5,3.5,7.1,7,10.5,10.5c5.2,5.5,11.6,8.1,19.2,8.1
		c11-0.1,22,0,33,0c1.8,0,3.7-0.1,5.5-0.4c11.5-1.8,16.9-8,16.9-19.7c0-21-0.2-42,0.1-63c0.2-9-3.2-16.1-9-22.5
		c-2-2.2-4.2-4.3-6.4-6.3c-0.6-0.6-1.5-0.9-2.9-1.6c0,1.8,0,2.9,0,4c0,9.7,0,19.3,0,29c0,13.3,0,26.7,0,40c0,8.5-4.1,14.7-11.9,18
		c-3.1,1.3-6.7,2-10.1,2.1c-13,0.3-26,0.1-39,0.2C376.1,224,374.3,224,372.6,224z M436.9,34.1c-0.5,1.4-0.8,1.7-0.8,2
		c0,16-0.1,32-0.1,48c0,2.3,1,4.1,2.7,5.7c4.1,3.9,8.1,7.9,12.2,11.9c0.8,0.7,1.7,1.3,2.8,2.1c0.3-0.9,0.6-1.3,0.6-1.8
		c0-14,0.1-28-0.1-42c0-2.7-0.6-5.8-2-8.1C448.3,45.1,442.6,40,436.9,34.1z M401.2,87.8c0-1.5,0-3.4,0-5.2c0-9,0-18,0-27
		c0-4.8-1.7-7-5.1-7.2c-3.5-0.2-5.4,1.8-6,6.5c0,0.3-0.1,0.7-0.1,1c0,8.5-0.3,17,0.2,25.5c0.2,3.2,1.3,6.7,3,9.3
		c3.3,4.9,9,7.1,13.9,10.3C410.3,94,404.2,91.8,401.2,87.8z M408.4,88.4c-0.1,0.5-0.3,1-0.4,1.5c4.2,3.8,8.3,7.6,12.5,11.3
		c1.6,1.4,3.2,2.9,5,4.2c0.9,0.7,2.1,1.3,3.1,1.3c7.5,0.1,14.9,0,22.4-0.1c0.4,0,0.8-0.5,1.9-1.1c-3.5-3.4-7-6.4-9.9-9.9
		c-4.5-5.4-9.6-8-16.8-7.3C420.3,88.8,414.3,88.4,408.4,88.4z M390.6,150.2c-0.3,1.8-0.6,2.6-0.6,3.4c0,10.7,0,21.3,0,32
		c0,1.6,0.2,3.3,0.7,4.9c0.9,3.1,3.6,4.4,6.7,3.5c2.9-0.9,3.7-3.1,3.7-5.8c0-8.5,0.1-17-0.1-25.5c0-1.5-0.8-3.3-1.8-4.4
		C396.8,155.7,394,153.3,390.6,150.2z"/>
	<path class="st0" d="M1497.1,228.2c0,5.9,0,11.7,0,18c-2.3,0.3-3.9,0.8-5.4,0.8c-7.3,0.1-14.7,0-22,0.1c-3.1,0-5.4-1-7.5-3.2
		c-5.5-6-11-12-16.7-17.9c-2.2-2.3-2.5-4.9-2.5-7.8c0-21,0-42,0-63c0-19-0.1-38,0-57c0-9,0.6-18,0.6-26.9c0-15.7-0.3-31.3-0.4-47
		c0-1.6,0-3.3,0-4.7c3.8-1.6,22.4-2,36-1c6.2,6.7,12.8,13.8,20.1,21.7c1.9-7.7,0-14.5,1.4-21.6c9.7-1.1,19.5-0.1,29.7-0.5
		c3.2,3.2,6.5,6.5,9.7,9.8c2.8,2.8,5.5,5.9,8.4,8.5c3.1,2.8,4.1,6.1,4,10.2c-0.2,12.5-0.2,25-0.1,37.5c0.1,51.5,0.2,102.9,0.3,154.4
		c0,2.4-0.2,4.9-0.3,7.7c-1.9,0.3-3.3,0.6-4.7,0.6c-9.3,0.1-18.7-0.1-28,0.1c-3.3,0.1-5.7-1.1-7.8-3.6c-2.9-3.6-6-7.2-9-10.7
		c-1.5-1.7-3-3.3-4.6-5C1497.9,227.9,1497.5,228.1,1497.1,228.2z M1446.4,21.1c0,2.4,0,4.4,0,6.4c0.2,50,0.3,99.9,0.5,149.9
		c0,12.3,0,24.7,0,37c0,1.9,0.3,3.8,0.5,5.6c5.4,1.4,18.7,1.3,23.1-0.2c0.1-1.9,0.4-4,0.4-6.1c0-25,0-50,0-75c0-1.7-0.1-3.4,0.2-5
		c0.2-0.9,1.1-1.7,2.4-3.6c1.1,3,2.1,4.9,2.5,6.9c6.3,25.9,12.5,51.8,18.8,77.7c0.5,1.9,1.2,3.7,1.7,5.3c5.4,1.5,26.7,1.3,30.8-0.2
		c0.1-1.1,0.5-2.4,0.5-3.7c0.3-32.5,0.5-64.9,0.7-97.4c0.1-7.8,0.1-15.6,0.1-23.4c0-22.3,0-44.6,0-67c0-2.3-0.4-4.5-0.6-6.9
		c-8.4,0-16.2,0-24.6,0c-0.2,2.7-0.4,5-0.5,7.3c0,17,0,34,0,51c0,10,0,20-0.1,30c0,1.7,0.5,3.7-2.2,5.3
		c-7.8-31.4-15.6-62.5-23.4-93.7C1466.9,21.1,1457.1,21.1,1446.4,21.1z M1547.9,242.6c0.3-0.1,0.7-0.3,1-0.4
		c0.1-1.9,0.2-3.8,0.2-5.7c0-28.3,0-56.6,0-85c0-34.7-0.1-69.3,0.1-104c0-4.2-1.1-7.3-4.1-10.1c-3.5-3.3-6.7-7-10-10.4
		c-0.9-0.9-1.9-1.6-3.7-3.1c-0.2,3.1-0.4,5.2-0.4,7.2c0,23.8,0,47.7,0,71.5c0,38.3,0,76.6,0,115c0,3.9,0.9,7.1,3.6,9.9
		c3.4,3.6,6.5,7.6,9.7,11.4C1545.4,240.1,1546.7,241.3,1547.9,242.6z M1492.4,242.3c0.5-0.2,1.1-0.4,1.6-0.6
		c-0.3-6.6,0.4-13.4-1-19.7c-5.3-23.9-11.2-47.6-17-71.4c-0.2-0.8-0.8-1.5-1.1-2.3c-0.8,1.5-1,2.8-1,4.1c0,20.8,0.3,41.6-0.1,62.4
		c-0.1,6.6,1.6,11.4,6.6,15.7C1484.8,234,1488.5,238.3,1492.4,242.3z M1545.2,243.7c0.2-0.4,0.4-0.8,0.6-1.3
		c-5.4-6.2-10.7-12.5-16-18.7c-9.9,0-19.2-0.3-28.5,0.2c-0.2,0.4-0.4,0.8-0.6,1.3c5.3,6.2,10.7,12.5,15.8,18.5
		C1526.5,243.7,1535.9,243.7,1545.2,243.7z M1499.3,98.7c0.4-0.1,0.9-0.2,1.3-0.3c0.1-1.1,0.2-2.3,0.2-3.4c0-12.7-0.4-25.3,0.1-38
		c0.3-7.3-1.1-13.2-6.9-18.2c-4.2-3.6-7.7-8.1-11.5-12.2c-0.3,0.2-0.6,0.3-1,0.5C1487.5,51,1493.4,74.8,1499.3,98.7z M1449.7,224.3
		c0.2,0.8,0.2,1.4,0.5,1.7c4.9,5.4,9.8,10.8,15,16c1.1,1.2,3.2,1.9,4.8,2c5.8,0.2,11.6,0.1,17.4,0c1,0,2-0.5,3.9-1.1
		c-6.4-6.4-12.2-12.3-18.2-18c-0.9-0.9-2.7-1.1-4.2-1.1c-5.5-0.1-11-0.1-16.4,0C1451.7,223.8,1450.8,224.1,1449.7,224.3z"/>
	<path class="st0" d="M575.6,144.2c11.6,0,22.7,0,33.7,0c3.4,3.2,6.7,6.2,10.1,9.3c3.6-7.3,1-16.5-5.8-20.8
		c-8.3-5.2-16.8-10.2-25.3-15.2c-6.9-4.1-10.8-10.2-12.7-17.8c-0.5-1.9-0.7-3.9-0.7-5.9c0.1-18.5,0.1-37,0.3-55.5
		c0.1-10.1,5.9-17.4,15.3-19.6c1.4-0.3,3-0.4,4.5-0.4c13.3,0,26.7,0,40,0c6.1,0,11.6,2,15.9,6.2c7,6.9,13.8,14,20.5,21.2
		c3.3,3.5,5.2,7.7,5.5,12.6c0.2,4.3,0.4,8.6,0.5,13c0.2,10.7,0.3,21.3,0.4,32c0,1.9-0.3,3.9-0.4,6.2c-2,0.2-3.6,0.5-5.2,0.5
		c-7.7,0-15.3-0.1-23,0c-3,0-5.4-0.9-7.6-3c-2.9-2.7-5.9-5.2-9.4-8.2c-0.6,3.3,0.5,5.2,2.4,6.7c1.2,0.9,2.5,1.7,3.7,2.5
		c5.9,3.5,11.3,7.6,16.1,12.6c4,4.2,8.4,8.1,12.8,12c9.5,8.5,13.8,18.7,13.2,31.9c-0.9,20.1-0.2,40.3-0.2,60.5
		c0,3.9-0.2,7.6-2.3,11.1c-4,6.7-10,10.5-17.6,10.7c-14.7,0.4-29.3,0.3-44,0c-5.5-0.1-10.3-2.8-14.2-6.6c-7.5-7.3-15-14.7-22.3-22.2
		c-3.1-3.2-4.7-7.4-4.7-11.8c-0.1-19.3-0.1-38.7,0-58C574.9,147.1,575.3,146,575.6,144.2z M652.7,85c0.2-2.3,0.4-4.1,0.4-5.9
		c0-13.2,0.1-26.3,0-39.5c0-11.9-6.2-18.1-18.1-18.7c-0.8,0-1.7,0-2.5,0c-11.5,0-23,0-34.5,0c-2.5,0-5,0.3-7.4,0.8
		c-6.3,1.3-10.2,5.4-11.9,11.5c-0.6,2.4-0.8,4.9-0.9,7.4c-0.1,16.3,0.1,32.7-0.1,49c-0.1,11.7,4.4,20.5,14.9,26.2
		c7.9,4.3,15.4,9.2,23.2,13.8c4.8,2.8,7.5,7,8.4,12.4c0.3,2,0.5,4,0.6,6c0,12.8,0,25.7,0,38.5c0,1.5,0,3-0.4,4.5c-1,4.5-5,7.3-9.7,7
		c-4.5-0.3-7.5-3.2-8-8.1c-0.2-1.7-0.1-3.3-0.1-5c0-10.2,0-20.3,0-30.5c0-1.9-0.4-3.8-0.6-5.6c-6.1-1.5-22.9-1.2-27,0.5
		c-0.1,1.8-0.3,3.7-0.3,5.7c0,15.8,0,31.7,0,47.5c0,1.3,0,2.7,0.1,4c0.6,7,4.2,11.5,10.9,13.3c2.2,0.6,4.6,1,6.9,1
		c12.8,0.1,25.7,0.1,38.5,0c2.1,0,4.3-0.3,6.4-0.8c8.5-2,13.4-8.1,13.4-16.9c0.1-22.5,0-45,0.1-67.5c0-6.4-2.4-11.9-7.2-15.8
		c-5.4-4.4-11.2-8.3-16.9-12.3c-5.5-3.8-11.2-7.2-16.6-11c-4.9-3.5-7.3-8.5-7.2-14.6c0.1-8.7,0-17.3,0-26c0-1,0-2,0.1-3
		c0.9-6.3,7.1-9.5,12.7-6.5c3.2,1.7,4,4.7,4,8c0,8,0,16,0.1,24c0,2.1,0.4,4.2,0.6,6.5C634.1,85,643,85,652.7,85z M591.6,224.3
		c1.2,1.6,1.7,2.6,2.4,3.4c2.9,3,5.9,5.9,8.8,8.9c5,5.2,11.1,7.6,18.4,7.6c11.2-0.1,22.3,0,33.5-0.1c2,0,4-0.1,6-0.5
		c10.9-1.8,16.3-8,16.3-19.2c0.1-21.8,0.1-43.6,0-65.4c0-13.1-8.8-20.7-18.3-29.1c0,2.2,0,3.3,0,4.5c0,23,0.1,46,0,68.9
		c0,9.8-5.4,16.8-14.8,19.5c-2.8,0.8-5.9,1-8.9,1.1c-12.5,0.1-25,0.1-37.5,0.1C595.9,224,594.1,224.2,591.6,224.3z M656.9,33.8
		c-0.6,1.7-1,2.1-1,2.6c0,16-0.1,31.9,0.1,47.9c0,1.7,1.2,3.8,2.4,5.1c3.9,4.1,8,8,12.1,11.9c0.8,0.7,1.8,1.2,3,2
		c0.2-1.1,0.5-1.7,0.5-2.3c0-14,0.2-28-0.1-41.9c-0.1-2.9-0.9-6.2-2.5-8.4C667.1,45,662.2,39.8,656.9,33.8z M621.1,87.9
		c0-7.2,0-14.9,0-22.5c0-3.8,0.1-7.7-0.1-11.5c-0.2-3.6-2.5-5.5-5.9-5.4c-3.2,0.1-5,2.2-5.1,6.7c-0.2,9-0.1,18,0,27
		c0.1,4.2,1.6,8,4.9,10.6c3.8,2.9,7.9,5.3,12.1,8C630,93.9,624.1,91.9,621.1,87.9z M655.4,88.7c-9.4,0-18.4,0-28.1,0
		c0.8,1.1,1.1,1.7,1.5,2.1c5.1,4.6,10.1,9.2,15.3,13.6c1.5,1.3,3.8,2.2,5.8,2.3c6.5,0.3,13,0.1,19.5,0.1c0.9,0,1.8-0.4,3.9-0.9
		C666.9,99.9,661.3,94.4,655.4,88.7z M621,160.2c-3.2-3.1-6.4-6.2-9.5-9.2c-0.4,0.2-0.7,0.3-1.1,0.5c-0.2,1.6-0.5,3.1-0.5,4.7
		c0,9.6,0,19.3,0,28.9c0,1.3,0,2.7,0.3,4c0.6,3.6,2.5,5.2,5.6,5.1c3.1-0.1,5.1-1.9,5.2-5.5C621.1,179.3,621,169.8,621,160.2z"/>
	<path class="st0" d="M1563.4,144.5c2.1-0.2,3.8-0.5,5.6-0.5c8-0.1,16,0.1,24-0.1c3.7-0.1,6.4,1.1,8.7,3.8c1.7,2,3.6,3.9,5.5,5.9
		c3.3-7.2,0.5-16.8-5.7-20.6c-7.2-4.5-14.4-9-21.9-13c-12.7-6.9-18-17.2-16.9-31.7c0.7-9.9,0.1-20,0.1-30c0-6.2-0.1-12.3,0.1-18.5
		c0.1-3.1,0.4-6.4,1.4-9.3c2.2-7.1,9.1-12,16.6-12.1c14.3-0.1,28.7,0,43,0c5.8,0,10.8,2.1,14.8,6.1c6.9,7,13.6,14.2,20.4,21.3
		c3.6,3.8,5.4,8.3,5.5,13.6c0.3,15.7,0.5,31.3,0.7,47c0,0.9-0.4,1.9-0.7,3.3c-1.9,0.2-3.6,0.4-5.4,0.5c-6.5,0-13-0.3-19.5,0.1
		c-5.2,0.3-9.4-1.1-13.1-4.8c-1.9-1.9-4.3-3.4-7-5.4c-0.4,3.2,0.8,4.6,2.5,5.8c1.8,1.2,3.7,2.3,5.4,3.6c4.7,3.7,9.5,7.3,14,11.2
		c5.1,4.5,10,9.3,14.9,14c7.6,7.4,11.7,16.1,11.4,27.2c-0.4,20.6-0.5,41.3,0,62c0.3,14.1-9.5,23.6-23.3,23.4
		c-12.7-0.2-25.3-0.1-38,0c-6.9,0-12.7-2.5-17.5-7.2c-7.1-7-14.2-14.1-21.3-21.1c-3.2-3.2-5.1-7.1-5.1-11.6
		c-0.1-19.7-0.1-39.3-0.1-59C1562.8,147.2,1563.1,146.2,1563.4,144.5z M1640.2,86c0.2-1.1,0.6-2.1,0.6-3.1c0-15,0.3-30-0.1-45
		c-0.2-10.1-6.2-15.8-16.2-16.9c-1.2-0.1-2.3-0.1-3.5-0.1c-11.8,0-23.7-0.1-35.5,0c-2.5,0-5,0.3-7.4,0.8c-6.1,1.3-10,5.1-11.6,11.1
		c-0.6,2.2-0.9,4.6-0.9,6.9c-0.1,17.2-0.1,34.3,0,51.5c0,10.5,3.9,18.6,13.4,23.9c8.3,4.6,16.3,9.7,24.4,14.6
		c4.3,2.6,7.4,6.3,8.2,11.4c0.5,3.3,0.8,6.6,0.8,10c0,12.2,0,24.3-0.1,36.5c0,1.2-0.1,2.3-0.4,3.5c-1.1,4.4-4.3,6.9-8.6,6.9
		c-4.3,0-7.8-2.5-8.8-6.7c-0.5-2.1-0.6-4.3-0.6-6.4c-0.1-10.2,0-20.3-0.1-30.5c0-1.9-0.4-3.8-0.7-6.2c-9.1-0.3-17.6-0.6-26.5,0.2
		c-0.3,1.8-0.6,3.2-0.6,4.7c0,16.8-0.2,33.7,0.1,50.5c0.2,11.1,6.1,17,17.2,17.2c13.3,0.3,26.7,0.3,40,0
		c12.9-0.3,19.6-7.3,19.6-20.1c0-21-0.1-42,0.1-63c0.1-7.7-2.8-13.9-8.5-18.9c-8.7-7.7-18.6-13.4-28.5-19.2c-6.9-4-10.9-9.6-11-17.6
		c-0.1-6.5-0.1-13,0-19.5c0-3.3-0.1-6.7,0.2-10c0.5-5.1,4.5-7.9,9.5-7.1c4.4,0.7,6.9,3.5,7,8.3c0.1,8.8,0,17.7,0.1,26.5
		c0,1.9,0.3,3.9,0.4,5.6C1616.9,87.3,1635,87.4,1640.2,86z M1647.2,129.9c-0.6,1.6-0.8,1.9-0.8,2.2c0.1,23.6,0.2,47.3,0.1,70.9
		c0,10.5-6.3,18.2-16.5,20.3c-2.9,0.6-6,0.6-8.9,0.6c-12.2,0.1-24.3,0-36.5,0c-1.6,0-3.1,0-5.1,0c0.4,1.2,0.4,1.8,0.7,2.1
		c4.3,4.4,8.6,8.9,13.1,13c3.5,3.2,8,4.9,12.8,4.9c13,0.1,26,0.2,39,0c6.2-0.1,11.8-2.1,15.7-7.3c3.1-4.1,3.9-8.7,3.9-13.7
		c0-21,0-42,0-62.9c0-6.2-1.7-12-5.5-16.8C1655.8,138.8,1651.6,134.7,1647.2,129.9z M1644,89c5.5,4.9,11,9.8,17.1,15.3
		c0.4-1.8,0.8-2.7,0.8-3.6c0-13.5,0.3-27-0.2-40.5c-0.1-3.6-1.4-7.8-3.6-10.6c-3.8-5.2-8.7-9.6-13.1-14.3c-0.1-0.1-0.6,0.1-1.1,0.2
		C1644,53.2,1644,70.9,1644,89z M1609,89.9c0-2.1,0-4.1,0-6.1c0-8.6,0-17.3,0-25.9c0-1.7,0-3.4-0.3-5c-0.6-2.9-2.5-4.4-5.3-4.4
		c-2.8-0.1-4.6,1.4-5.3,4.3c-0.2,1-0.3,2-0.3,3c0,8.8-0.3,17.6,0.1,26.4c0.1,3,1.3,6.3,3,8.7c3.4,4.8,8.8,7.1,14.6,10.6
		c-0.3-2.9-0.4-4.6-0.6-6.5C1612.9,93.3,1611,91.6,1609,89.9z M1616,89.8c-0.1,0.5-0.3,1-0.4,1.5c5.9,4.8,11.7,9.7,17.7,14.4
		c1.2,0.9,3.1,1.1,4.7,1.1c6.1,0.1,12.3,0.1,18.4,0c1.1,0,2.2-0.3,4.5-0.7c-3.9-3.5-7.4-6-10.2-9.2c-5.1-6-11.3-8-19-7.2
		C1626.6,90.2,1621.3,89.8,1616,89.8z M1599.5,150.2c-0.4,0.2-0.9,0.5-1.3,0.7c-0.1,0.9-0.4,1.9-0.4,2.8c0,11.2,0,22.3,0,33.5
		c0,1,0.1,2,0.3,3c0.7,2.6,2.3,4,5,4c2.6,0,4.5-1.1,5.3-3.7c0.4-1.3,0.5-2.6,0.5-3.9c0.1-7.5,0.1-15,0-22.5c0-1.7-0.4-3.8-1.4-5.1
		C1605,155.9,1602.2,153.1,1599.5,150.2z"/>
	<path class="st0" d="M344.8,143.4c0,26.3,0,52.7,0,79c0,2.3,0.1,4.7-0.2,7c-1.2,10.4-8.6,17.3-19,17.6c-6.8,0.2-13.7,0.1-20.5,0.1
		c-8.8,0-17.7-0.1-26.5,0c-6.8,0.1-12.4-2.6-16.8-7.5c-6.4-7-12.5-14.3-18.7-21.5c-3.9-4.5-5.1-10-5.1-15.8c0-16.7,0-33.3,0-50
		c0-18.8,0-37.7,0-56.5c0.1-18.7,0.3-37.3,0.3-56c0-11,6.8-21.9,21.5-21.5c12.8,0.4,25.7,0,38.5,0.1c9.2,0.1,17.4,2.8,23.8,9.7
		c5.6,5.9,11.3,11.8,16.7,17.9c4,4.5,5.7,9.9,5.7,16.1c-0.1,27.2-0.1,54.3-0.1,81.5C344.6,143.4,344.7,143.4,344.8,143.4z
		 M241.9,163.5C241.9,163.5,241.9,163.5,241.9,163.5c0,13-0.1,26,0,39c0.1,12.2,5.9,18,18.1,18.4c3.3,0.1,6.7,0,10,0
		c8.5,0,17,0,25.5,0c14.8-0.1,20.3-5.6,20.3-20.2c0.1-33.2,0.3-66.3,0.4-99.5c0.1-20.7-0.1-41.3,0.1-62c0.1-9.9-5.3-18-17.9-18.3
		c-12.8-0.2-25.7-0.2-38.5,0c-12.8,0.1-19.1,7.7-18.6,19.1c0.1,1.3,0,2.7,0,4c0.2,26.8,0.3,53.6,0.5,80.4
		C241.9,137.5,241.9,150.5,241.9,163.5z M319,29.1c0.2,8,0.5,15,0.5,21.9c0,50,0,100,0,150c0,2.6-0.2,5.3-0.7,7.9
		c-1.4,8-6.6,12.4-14.1,14.5c-2,0.6-4.3,0.5-6.5,0.5c-13.2,0-26.3,0-39.5,0c-1.6,0-3.2,0-4.8,0c-0.2,0.3-0.4,0.7-0.6,1
		c3.1,3.6,6.2,7.2,9.2,10.9c4.6,5.7,10.5,8.4,17.9,8.3c13.8-0.1,27.7,0,41.5-0.1c2.3,0,4.7-0.3,6.9-0.8c7-1.7,11.5-7,12.1-14.1
		c0.2-1.8,0.1-3.7,0.1-5.5c0-27.5,0-55,0-82.5c0-26.8,0-53.7-0.1-80.5c0-2.9-0.2-6.3-1.6-8.6C334.2,43.2,326.4,36.6,319,29.1z"/>
	<path class="st0" d="M463.6,48.8c0-11.1,0-20.4,0-30c26.5,0,52.5,0,78,0c7.8,7.3,15.3,14.4,22.7,21.4c0,9.7,0,19,0,28.8
		c-7.3,1.6-14.6-0.2-22.3,1.2c-0.2,2.4-0.4,4.8-0.4,7.2c0.1,54,0.2,108,0.3,162c0,2.1,0,4.3,0,6.8c-1.7,0.4-2.9,0.9-4.2,0.9
		c-8.5,0.1-17,0.2-25.5-0.1c-2-0.1-4.3-1-5.7-2.4c-7-6.9-13.8-14-20.7-21.1c0-2.6,0-5.3,0-7.9c0-40.8,0-81.7,0-122.5
		c0-6.2,0.1-12.3,0.3-18.5c0.1-3.1-0.9-5.5-3-7.6c-5-4.9-9.9-9.9-14.9-14.8C466.4,50.7,464.6,49.5,463.6,48.8z M488.3,44.2
		c0.1,2.6,0.3,4.2,0.3,5.8c0.1,22.8,0.3,45.6,0.4,68.5c0.1,31.7,0,63.3,0.1,95c0,2.2,0.3,4.5,0.6,7.3c9.1-0.1,17.7,0.5,26.6-0.4
		c0.2-2.8,0.5-4.9,0.5-7c0.2-39.7,0.3-79.3,0.4-119c0-14.7,0-29.3,0-44c0-1.9,0.3-3.8,0.5-6.5c7.7,0,15,0,22.5,0
		c1.1-7.9,1.1-15.1,0.1-22.1c-5.8-1.6-69.7-1.3-74.1,0.4c0,6.9-1,14.1,0.7,21.9C474.1,44.2,480.9,44.2,488.3,44.2z M521.3,49.8
		c-0.5,0.1-1,0.3-1.5,0.4c0,1.9,0,3.9,0,5.8c0,36.7,0,73.3,0,110c0,17.7,0.1,35.3-0.1,53c0,3.4,0.9,6,3.4,8.4
		c4,3.8,7.7,7.9,11.5,11.8c0.7,0.8,1.7,1.3,3.4,2.5c0-2.9,0-4.8,0-6.8c0-46,0-92,0-137.9c0-8.7,0.1-17.3-0.1-26
		c0-1.9-0.2-4.3-1.4-5.6C531.7,60,526.4,55,521.3,49.8z M491.9,223.8c0.7,1.7,0.8,2.2,1.1,2.5c5,5.1,9.9,10.3,15.1,15.3
		c1.3,1.3,3.4,2.2,5.2,2.3c6.5,0.3,13,0.1,19.5,0c1,0,1.9-0.6,3.6-1.2c-3.8-3.8-7.4-6.8-10.1-10.5c-5.2-7.1-11.8-9.5-20.3-8.4
		C501.6,224.3,497.1,223.8,491.9,223.8z M522.1,46.8c-0.2,0.4-0.5,0.9-0.7,1.3c3,3,5.9,6,8.9,9c10.9,10.9,10.9,10.9,26.1,9.7
		c1.1-0.1,2.1-0.5,4.1-1c-6.1-6.3-11.7-12.2-17.4-17.9c-0.6-0.6-1.8-1-2.7-1C534.3,46.8,528.2,46.8,522.1,46.8z M560.4,63.8
		c0.5-0.2,0.9-0.3,1.4-0.5c0-6.6,0.1-13.1-0.1-19.7c0-1.3-1.3-2.6-2.3-3.7c-4-4.2-8.1-8.3-12.2-12.5c-0.8-0.8-1.7-1.3-3.2-2.3
		c0,7.6,0,14.5,0,21.7C549.4,52.4,554.9,58.1,560.4,63.8z M468.7,47.2c-0.1,0.4-0.3,0.8-0.4,1.2c5.4,5.3,10.7,10.6,16.1,15.8
		c0.4-0.2,0.8-0.4,1.2-0.6c0.7-5.4,0.9-10.9-0.2-16.5C479.4,47.2,474,47.2,468.7,47.2z"/>
	<path class="st0" d="M1267.4,134.2c0.8,1.3,1.4,2.3,2,3.3c3,4.7,4.6,9.8,4.5,15.6c-0.1,23-0.3,46,0.1,69c0.2,12.4-8.3,24.7-24.8,25
		c-10.3,0.2-20.7,0.1-31,0.1c-7.2,0-14.3-0.2-21.5,0.1c-3.8,0.1-6.6-1.1-9.1-4.1c-4.3-5.3-8.9-10.4-13.6-15.3
		c-2.4-2.5-3.4-5.1-3.4-8.5c0.1-14.8,0-29.7,0-44.5c0-27.5-0.1-55-0.1-82.5c0-22.3,0.1-44.6,0.2-66.9c0-2.4,0.3-4.9,0.4-7.7
		c2.3-0.1,4-0.3,5.8-0.3c17.3,0,34.6,0,52,0c5.7,0,10.7,1.6,15.4,4.8c8.9,6.2,16.1,14,22.2,22.7c2.6,3.8,4,7.9,4,12.6
		c0,17.7,0.2,35.3,0.2,53C1271,118.6,1271.9,126.9,1267.4,134.2z M1253.9,125c-0.3,1-1,2-1,3c0.1,3.1,0.6,6.3,0.7,9.4
		c0.1,8.5,0,17,0,25.5c0,12.7,0.1,25.3,0,38c-0.1,10.6-5.9,18.6-16,21.7c-3.6,1.1-7.5,1.4-11.3,1.4c-14.5,0.2-29,0.1-43.5,0.1
		c-1.9,0-3.8,0.4-6.2,0.6c1.1,1.5,1.5,2.4,2.2,3.1c3.6,4.1,7.5,8.1,10.9,12.4c2.3,2.9,5,4,8.6,4c15.7-0.1,31.3-0.1,47,0
		c16.4,0,25.8-8.2,25.5-25.4c-0.3-20.6-0.3-41.3,0-62c0.1-9.1-2.4-16.6-9.2-22.8C1258.7,131.3,1256.4,128,1253.9,125
		c3,2.7,6,5.4,9.2,8.4c3.6-4,4.8-8.4,4.9-13.2c0.1-3.2-0.1-6.3-0.1-9.5c0-17.3-0.1-34.6,0-51.9c0-5-1.2-9.6-4.4-13.5
		c-3.4-4.1-6.9-8.1-10.4-12.1c-0.5-0.6-1.4-1-2.4-1.6c0,21.3-0.1,42.1,0.1,62.9c0,6.2-1.8,11.4-5.8,16c-0.6,0.7-1.1,1.6-1.7,2.4
		C1247,117,1250.4,121,1253.9,125z M1237.8,112.5c1.4-1.4,2.9-2.9,4.5-4.3c4.1-3.5,5.7-8,5.7-13.3c0-19,0.1-38-0.1-57
		c-0.1-10.2-5.4-16-15.4-17.6c-1.6-0.3-3.3-0.4-5-0.4c-15.8,0-31.6,0-47.5,0c-1.9,0-3.9,0.4-6.4,0.7c0,2.7,0,5,0,7.3
		c0.1,36.6,0.3,73.3,0.4,109.9c0.1,25.1,0,50.3,0,75.4c0,2.3,0.3,4.5,0.6,7.1c2.3,0.2,4.1,0.4,5.9,0.4c15.3,0,30.6,0,46,0
		c2.5,0,5-0.3,7.4-0.9c10.5-2.4,16-9.2,16-19.9c0.1-22,0-44,0.1-66c0-5.5-1.9-10.1-5.4-14.1C1242.4,117.7,1240.3,115.4,1237.8,112.5
		z"/>
	<path class="st0" d="M1336.4,194.7c2.6,0.2,4.7,0.4,6.8,0.4c2.4,0.1,4.6,0.5,6.3,2.4c5.4,5.9,10.9,11.7,16.2,17.7
		c1.1,1.3,2,3.2,2,4.9c0.2,7.8,0.1,15.7,0,23.5c0,0.8-0.3,1.6-0.6,2.8c-1.6,0.2-3.2,0.6-4.8,0.6c-18.5,0-37,0-55.5,0.1
		c-3.1,0-5.4-0.9-7.4-3.3c-5.1-5.9-10.3-11.8-15.6-17.6c-2-2.1-2.7-4.4-2.7-7.2c0.1-34.2,0.1-68.3,0.3-102.5
		c0.1-30.3,0.3-60.6,0.5-90.9c0-2.1,0.2-4.3,0.3-6.2c3.9-1.3,24.9-1.6,33.1-0.6c6.1,7,12.6,14.2,18.7,21.7c1.2,1.5,1.6,4,1.7,6
		c0.2,7.8,0,15.7,0,23.5c0.1,39.2,0.2,78.3,0.3,117.5C1335.9,189.8,1336.2,192,1336.4,194.7z M1312.7,199.2c0-20.5,0-40.2,0-59.8
		c0.1-19.6,0.3-39.3,0.3-58.9c0-19.6,0.3-39.2-0.3-59.3c-9.7-0.3-18.7-0.7-28.2,0.3c0,2.7,0,4.7,0,6.6c0.1,61.8,0.3,123.6,0.4,185.4
		c0,0.8-0.1,1.7,0,2.5c0.2,1.3,0.4,2.5,0.6,3.6c5,1.6,53.2,1.6,57.9-0.1c0.3-6.5,0.9-13.2-0.5-20.4
		C1332.9,199.2,1323.1,199.2,1312.7,199.2z M1317.3,25.6c-0.4,0.2-0.7,0.4-1.1,0.5c0,56.2,0,112.4,0,169.1
		c5.6,0.1,10.8,1.3,16.3-0.4c0.1-2.7,0.3-5.2,0.3-7.6c0-45.3,0-90.6,0.1-135.9c0-5.3-0.9-9.7-4.8-13.5
		C1324.2,34.1,1320.9,29.7,1317.3,25.6z M1304.3,244.1c19.1,0,37.8,0,56.4,0c0.7,0,1.4-0.6,2.5-1.1c-1.4-1.6-2.4-2.9-3.5-4
		c-3.8-4-7.7-7.8-11.4-11.9c-2.1-2.3-4.4-3.2-7.4-3.2c-16,0.1-32,0-47.9,0.1c-1.6,0-3.1,0.3-5.1,0.5c0.6,1.2,0.8,1.9,1.2,2.3
		C1293.9,232.5,1299,238.2,1304.3,244.1z M1348.4,201.6c-0.7,1.5-1.1,1.9-1.1,2.3c-0.1,6.1-0.2,12.3,0,18.4c0,1.3,1,2.8,1.9,3.9
		c3.8,4.2,7.7,8.3,11.6,12.3c0.8,0.8,1.9,1.4,3.8,2.6c0-7.6,0-14.2,0-20.8c0-0.8-0.4-1.7-0.9-2.3
		C1358.7,212.7,1353.8,207.4,1348.4,201.6z"/>
	<path class="st0" d="M1431.2,246.7c-11,0.6-21.6,0.3-32.4,0.2c-6.8-7.8-13.6-15.5-20.4-23.2c0-68.2,0-136.3,0-204.2
		c3.9-1.4,23.3-1.8,34.2-0.8c5.4,6.1,11.2,12.5,16.7,19.2c1.2,1.5,1.5,4,1.5,6.1c0.2,9,0.1,18,0.1,27c0.2,56.3,0.5,112.6,0.7,168.8
		C1431.6,241.9,1431.3,244,1431.2,246.7z M1382.1,21.8c0,66.1,0,132,0,197.7c4.9,1.8,21.8,1.8,27-0.1c-1.2-65.6,1.9-131.6,0.6-197.4
		C1404.8,20.5,1387,20.5,1382.1,21.8z M1414.1,24.9c-0.5,0.1-0.9,0.2-1.4,0.4c0,2,0,3.9,0,5.9c0,28.6,0,57.3,0,85.9
		c0,33.6,0.1,67.3-0.1,100.9c0,4.3,1.1,7.7,4.2,10.7c2.6,2.6,4.9,5.4,7.4,8.1c0.8,0.9,1.9,1.6,3.8,3.3c0-3.1,0-5.1,0-7
		c0-54.5,0-108.9,0-163.4c0-8.3,0.1-16.7-0.1-25c0-1.7-0.3-3.9-1.3-5.2C1422.7,34.5,1418.4,29.8,1414.1,24.9z M1428.6,243.3
		c-6-6.7-11.2-12.6-16.6-18.2c-1-1-3.1-1.2-4.6-1.2c-6.5-0.1-13-0.1-19.5,0c-1,0-2.1,0.4-4.1,0.8c5.7,6.5,10.7,12.4,16.1,18
		c0.9,1,3,1.3,4.6,1.3c6.5,0.1,13,0.1,19.5,0C1425,244.1,1426.1,243.8,1428.6,243.3z"/>
	<path class="st0" d="M1160.9,143.3c0,26.5,0,53,0,79.5c0,1.5,0,3,0,4.5c-0.3,11.8-7.5,19.5-19.4,19.7c-16,0.3-32,0.1-48,0
		c-6,0-11-2.5-15-6.9c-4.7-5.2-9.1-10.6-13.7-15.9c-0.6-0.8-1.2-1.7-1.9-2.3c-6.9-6-8.5-13.6-8.4-22.5c0.4-21.5,0.1-43,0.1-64.5
		c0.1-31.8,0.2-63.6,0.4-95.4c0-2.6,0.1-5.4,0.8-7.9c2.2-8,8.8-13.1,17.4-13.2c15.2-0.2,30.3-0.3,45.5,0.1
		c7.4,0.2,13.8,3.7,19.1,8.9c5.6,5.5,10.9,11.2,16.4,16.9c4.8,4.9,6.7,10.7,6.7,17.6c-0.2,27.1-0.1,54.3-0.1,81.4
		C1160.8,143.3,1160.8,143.3,1160.9,143.3z M1057.6,121c0.1,0,0.3,0,0.4,0c0,1.8,0,3.7,0,5.5c0,24.3,0,48.6,0,72.9c0,2,0,4,0.2,6
		c1.2,9.5,6,14.3,15.5,15.3c1.2,0.1,2.3,0.2,3.5,0.2c12.2,0,24.3,0,36.5,0c2.3,0,4.7-0.3,6.9-0.9c6.4-1.6,10.6-6.5,11.3-13.1
		c0.2-1.8,0.1-3.7,0.1-5.5c0.3-26.3,0.7-52.6,0.9-78.9c0.2-27.8,0.1-55.6,0-83.4c-0.1-11.3-6.3-17.8-17.6-18.1
		c-13.1-0.3-26.3-0.3-39.5,0c-12.1,0.3-18.1,6.9-18.1,19.1c0,18,0,36,0,54C1057.6,103,1057.6,112,1057.6,121z M1070.6,224
		c-0.2,0.4-0.5,0.8-0.7,1.2c3.1,3.6,6.1,7.3,9.2,10.9c4.7,5.6,10.7,8.2,18,8.1c13.2-0.2,26.3,0,39.5-0.1c15.3,0,21.1-5.8,21.1-21.2
		c0-53.8,0-107.6,0.1-161.4c0-5.5-1.5-10.2-5.1-14.2c-5.1-5.5-10.2-11-15.4-16.4c-0.7-0.7-1.7-1.3-2.3-1.7
		c0.2,6.4,0.6,12.7,0.7,18.9c0.1,50.5,0,100.9,0,151.4c0,2.2,0.1,4.3-0.1,6.5c-0.7,10-7.7,17-17.6,17.7c-1.5,0.1-3,0.1-4.5,0.1
		c-12.7,0-25.3,0-38,0C1073.9,224,1072.3,224,1070.6,224z"/>
	<path class="st0" d="M705.2,17.7c9,0,17.8,0,26.7,0c5.8,6.4,11.6,12.7,17.4,19.1c0,14.5,0.2,28.8-0.1,43.1c-0.1,4.4-1.3,9-3.1,13
		c-4.6,10.2-13.3,14.3-24.8,14.6c-5.6-6-11.4-12.1-17-18.1c0-6.4,0-12.3,0-18.4c7.4-2.4,11.9-6.8,10.4-15.7c-3-0.3-6-0.6-9.6-1
		C705.2,42,705.2,30.2,705.2,17.7z M722.5,103.9c9.8,0.1,17.6-5,21.4-13.6c1.8-4.2,2.3-8.6,2.3-13.1c0-11.8,0-23.6,0-35.4
		c0-1.5,0.2-3.3-0.6-4.4c-3.2-4.8-7.3-8.7-11.9-12.5c-0.6,2-0.7,3.7-0.8,5.5c-0.1,11.5,0.2,23-0.2,34.4c-0.5,12.2-8,20.8-19.8,23.9
		c-0.9,0.2-1.7,0.7-3.3,1.3C714.4,95.1,718.6,99.7,722.5,103.9z M707.5,86.2c7.2,0,12.5-2.2,16.6-7.1c4-4.7,6-10.3,6.1-16.5
		c0.1-12.5,0.1-24.9,0-37.4c0-1.3-0.2-2.6-0.4-3.8c-5-1.6-16.5-1.6-21.9,0.1c0,9.9,0,19.8,0,30c3.4,0.5,6.4,0.9,9.2,1.3
		c1.9,10.4-0.6,15.8-9.7,20.9C707.5,77.4,707.5,81.5,707.5,86.2z"/>
	<path class="st0" d="M287.9,122c0,20.8,0,41.7,0,62.5c0,2,0,4-0.3,6c-0.7,4.4-3.7,7.1-8.1,7.4c-4.1,0.3-8-2.2-9.1-6.3
		c-0.5-1.9-0.6-4-0.6-5.9c0-23.2-0.1-46.3,0-69.5c0.1-19.8,0.2-39.7,0.4-59.5c0-1.8,0.2-3.7,0.7-5.4c1.1-4,4.2-6.1,8.2-6
		c4.1,0.1,7.4,2.7,8.2,6.7c0.3,1.4,0.2,3,0.2,4.5c0,11.8,0,23.7,0,35.5c0,10,0,20,0,30C287.7,122,287.8,122,287.9,122z M273.5,121.2
		C273.5,121.2,273.5,121.2,273.5,121.2c0,21,0,42,0,63c0,1.7-0.1,3.3,0.2,5c0.4,3.3,2.2,5,5.2,5c2.9,0,4.8-1.5,5.5-4.7
		c0.3-1.5,0.4-3,0.4-4.5c0-42.5,0-85,0-127.5c0-1.8-0.2-3.7-0.7-5.4c-0.7-2.6-2.8-3.6-5.4-3.6c-2.8,0-4.3,1.6-4.8,4.2
		c-0.3,2-0.3,4-0.3,6C273.5,79.6,273.5,100.4,273.5,121.2z"/>
	<path class="st0" d="M1203.2,197c0-24.3,0-48.5,0-72.6c7-2.5,12.6-0.1,14.7,6.3c0.7,2.2,1,4.6,1,6.8c0.1,15.3,0.1,30.6,0,45.9
		c0,2-0.2,4-0.7,5.9C1216.3,196.7,1211.4,199.3,1203.2,197z M1207.1,193.7c4.4,0.4,6.1-0.3,7.2-4c0.7-2.2,0.9-4.6,0.9-6.9
		c0.1-14.8,0.1-29.6,0-44.4c0-2.4-0.3-5-1.1-7.3c-1.1-3.3-2.9-4-7-3.6C1205.4,132,1205.5,189.5,1207.1,193.7z"/>
	<path class="st0" d="M1203.4,101.7c0-18.6,0-37,0-55.3c7.5-2.5,12.5,0.1,14.3,7.1c0.2,0.6,0.4,1.3,0.4,1.9
		c0.2,12.3,1,24.6,0.4,36.8C1218.1,101.1,1212.5,104.2,1203.4,101.7z M1206,98.9c5.9,0.2,7.7-0.9,8.7-5c0.4-1.4,0.5-3,0.5-4.4
		c0-10.3,0.1-20.6,0-30.9c0-1.8-0.2-3.7-0.8-5.4c-1.2-3.7-3.3-4.7-8.4-3.9C1205.8,65.7,1205.9,82.2,1206,98.9z"/>
	<path class="st0" d="M1104,121.2c0,22.5,0,44.9,0,67.4c0,0.3,0,0.7,0,1c-0.4,4.9-3.1,7.7-7.8,8.2c-4.4,0.5-8.3-1.9-9.5-6.3
		c-0.5-1.9-0.7-3.9-0.7-5.9c0-19-0.1-37.9,0-56.9c0.2-24.1,0.6-48.2,0.9-72.3c0-1.2,0-2.3,0.1-3.5c0.5-4.9,3.6-7.7,8.2-7.6
		c5,0.1,8.1,3,8.4,8c0.2,3.5,0.1,7,0.1,10.5c0,19.1,0,38.3,0,57.4C1103.8,121.2,1103.9,121.2,1104,121.2z M1089.7,121
		c0,21.1,0,42.3,0,63.4c0,1.8,0,3.7,0.3,5.5c0.5,2.5,2,4.2,4.7,4.3c2.8,0.2,4.9-1.1,5.6-3.9c0.4-1.6,0.5-3.3,0.5-4.9
		c0-42.8,0-85.6,0-128.3c0-1.3,0-2.7-0.3-4c-0.6-3.1-2.6-4.6-5.7-4.5c-2.7,0-4.6,1.5-5.1,4.5c-0.3,1.8-0.2,3.6-0.2,5.5
		C1089.7,79.3,1089.7,100.2,1089.7,121z"/>
</g>
</svg>
