<svg xmlns="http://www.w3.org/2000/svg" width="440" height="263" viewBox="0 0 440 263">
  <defs>
    <style>
      .cls-1 {
        fill: #fff;
        fill-rule: evenodd;
      }
    </style>
  </defs>
  <path class="cls-1" d="M81.781,78.04c0-1.4-.1-2.8-0.1-4.1l-2.4,2.4c-3.1,3.2-5.9,6.4-8.6,9.693l1.2,3.2C74.983,85.335,78.282,81.638,81.781,78.04Zm42.291-33.475c23.494-14.389,51.188-25.98,81.781-33.375A287.462,287.462,0,0,1,273.738,3C349.121,3,410.307,34.773,422.8,86.334a84.586,84.586,0,0,1-.1,39.071l1.8,5.1c4.3-15.289,4.8-30.377,1.3-44.866-6.2-25.781-24.294-47.564-52.388-62.952C346.321,7.793,311.829,0,273.838,0a299.494,299.494,0,0,0-68.585,8.294c-29.593,7.095-57.187,18.286-81.081,32.675v3.6h-0.1Zm219.35,175.267a284.205,284.205,0,0,1-79.682,32.076,287.457,287.457,0,0,1-67.885,8.194c-35.492,0-67.784-7-93.378-19.885l-0.4.9-0.9-1.6c-22.7-11.691-39.991-27.978-49.189-47.963v6.695c9.2,16.687,24.195,31.076,44.29,42.068C123.372,255.207,157.864,263,195.855,263a299.494,299.494,0,0,0,68.585-8.294,284.7,284.7,0,0,0,81.282-32.875l-1-1Zm11.4-7.294c-0.6,1.8-1,3.4-1.4,4.6a210.642,210.642,0,0,0,26.594-20.384c-1.6.3-3.5,0.7-5.8,1.1C368.216,202.846,361.718,207.842,354.819,212.539Zm-4.8,13.689v-0.2l-0.1-.1ZM114.674,76.641l-0.3-4,3.9,0.9,2.6,0.6h0.1V42.967H83.981V57.056h0c0.6,17.787,1.1,33.475,1.6,48.064,0.4,12.191.7,22.383,0.8,30.377L49.289,39.27l-0.9-2.3-2.1,1.4L1.5,68.348l-1.5,1,0.9,1.6,21.1,39.27L15.6,217.735l-0.1,1.7,1.7,0.3,29.393,5.9,2.4,0.5V145.29l50.389,85.435,2.1,3.6,1.5-3.9c4.6-12.191,8.8-34.174,12.5-65.55,1.2-10.492,2.3-20.285,3.1-29.378l-3.7-55.958Zm11.7,132.3c0.1,0,.3-0.1.4-0.1h0.3c0.4,0.1.7,0.1,1.1,0.2l0.9,0.6a9.841,9.841,0,0,1-.2-1.7c-0.1-.5-0.1-1-0.2-1.5h-0.9a5.381,5.381,0,0,0-2.2.4,4.009,4.009,0,0,0-1.8,1c-0.1.3-.1,0.7-0.2,1a8.731,8.731,0,0,0-.2,1.6,5.37,5.37,0,0,1,2,1,3.625,3.625,0,0,1,1.3,1.9h-0.5a4.423,4.423,0,0,1-1.6-.6,2.544,2.544,0,0,1-1.2-1c0.3,1.3.7,2.5,1,3.8,0.3,0,.6.1,0.9,0.1a7.569,7.569,0,0,0,1.5-.1,5.578,5.578,0,0,0,1.2-.4l0.6-.3a0.53,0.53,0,0,1,.3-0.2,17.211,17.211,0,0,0,.5-2.2c-1.2-1.1-2.4-2.1-3.6-3.1A1.06,1.06,0,0,1,126.371,208.941Zm8.8-2c-0.6-.1-1.1-0.1-1.6-0.2s-1.2-.3-1.7-0.4a31.684,31.684,0,0,1-1.6,3.2h1.9a1.268,1.268,0,0,1,.6.1v6.2c1,0.1,1.9.1,2.8,0.2v-6.5h1.8c0.2-1.1.3-2.1,0.5-3.1A8.574,8.574,0,0,1,135.169,206.943Zm5.2,0.1a4.048,4.048,0,0,0,.5.9c0.1,0.3.3,0.6,0.4,0.9a2.182,2.182,0,0,1-.5.8c-0.3.5-.7,1.1-1,1.6a6.345,6.345,0,0,0-.8,1.4c-0.2.4-.4,0.9-0.6,1.3a6.129,6.129,0,0,1-.5,1.2c0.6,0.5,1.2,1,1.9,1.5a1.421,1.421,0,0,0,.2-0.6c0.1-.2.2-0.5,0.3-0.7,0.8-.1,1.5-0.1,2.2-0.2h0.9l0.6,2.1c0.9-.8,1.8-1.5,2.6-2.3-1.2-3-2.4-5.7-3.6-8.594C142.168,206.543,141.268,206.843,140.368,207.043Zm0.7,5.895c0.3-.9.7-1.8,1-2.8,0.3,1,.5,1.9.8,2.8A5.432,5.432,0,0,1,141.068,212.938Zm12.4,0.2a4.805,4.805,0,0,0,1.2-1.6,4.192,4.192,0,0,0,.4-1.6c0-.2-0.1-0.6-0.1-0.8-0.2-.4-0.4-1-0.6-1.4a1.524,1.524,0,0,0-1-1h-6c0.4,1.3.7,2.6,1.1,4-0.2,2-.4,4-0.7,6.1,1,0.1,2,.1,3,0.2,0-.4-0.1-1.1-0.1-1.6,0-.3-0.1-0.7-0.1-1v-0.6h0.8l1.5,3.9c1-.9,1.9-1.7,2.8-2.6a3.1,3.1,0,0,1-1.3-.6C154.165,214.237,153.765,213.638,153.465,213.138Zm-1.4-1.4a1.283,1.283,0,0,1-1,.4c-0.2,0-.3-0.1-0.5-0.1v-1.5c0-.4.1-1.1,0.1-1.5,0.2,0,.3.1,0.5,0.1a2.348,2.348,0,0,1,.8.2,1.612,1.612,0,0,1,.4.7,1.262,1.262,0,0,1,.1.6,1.108,1.108,0,0,1-.4,1.1h0Zm10.6,1.7a4.809,4.809,0,0,0,1.2-1.6,4.7,4.7,0,0,0,.4-1.7c0-.2-0.1-0.6-0.1-0.9-0.2-.4-0.4-1-0.6-1.4a1.524,1.524,0,0,0-1-1h-6c0.4,1.4.7,2.7,1.1,4.2-0.2,2.1-.4,4.2-0.7,6.4,1,0.1,2,.1,3,0.2,0-.4-0.1-1.2-0.1-1.6s-0.1-.8-0.1-1.1v-0.6h0.8c0.5,1.4,1,2.7,1.5,4.1,1-.9,1.9-1.8,2.8-2.7a2.09,2.09,0,0,1-1.3-.7C163.363,214.537,162.863,213.938,162.663,213.438Zm-1.4-1.5a1.283,1.283,0,0,1-1,.4c-0.2,0-.3-0.1-0.5-0.1v-1.6c0-.4.1-1.1,0.1-1.6,0.2,0,.3.1,0.5,0.1a2.353,2.353,0,0,1,.8.2,1.612,1.612,0,0,1,.4.7,1.48,1.48,0,0,1,.1.6A1.247,1.247,0,0,1,161.263,211.939Zm5.6,5.9c0.8,0,1.5.1,2.3,0.1,0.5-3.6.9-6.8,1.4-10.293-1.2-.5-2.4-1-3.7-1.4v11.591Zm10.7-10.292c0,1.1.1,2.1,0.1,3.1a17.664,17.664,0,0,0,.1,2.3v0.4c-1.1-2.4-2.1-4.6-3.2-6.895-1.2.7-2.3,1.3-3.5,1.9,0.6,0.9,1.1,1.7,1.6,2.6-0.2,2.3-.3,4.6-0.5,7.095,0.8,0.2,1.5.3,2.3,0.5v-5.695c1.4,2.1,2.8,4.1,4.2,6.295a21.6,21.6,0,0,0,1-4.4,28.056,28.056,0,0,0,.4-5v-2.9h-2.5v0.7h0Zm8.3,1.8a1.1,1.1,0,0,1,1,.6,5.651,5.651,0,0,1,.3,1.8c1-1.2,2-2.4,2.9-3.6-1.7-.6-3.3-1.2-5.1-1.8-0.7.8-1.3,1.5-1.8,2.2a8.974,8.974,0,0,0-1.2,2.4,10.3,10.3,0,0,0-.4,3c0,0.3.1,0.8,0.1,1.1,0,0.1.1,0.4,0.1,0.6a6.651,6.651,0,0,0,.9,1.9c0.4,0.4.9,1.1,1.3,1.5,0.8-.8,1.7-1.5,2.5-2.2,0.4,1.1.9,2.1,1.3,3.2a8.1,8.1,0,0,0,1-2.1,10.847,10.847,0,0,0,.4-2.5c0-.3-0.1-1-0.1-1.4a8.994,8.994,0,0,0-.3-1.6c-1.1,1.1-2.1,2.1-3.2,3.1a1.813,1.813,0,0,1-1-1.1,7.7,7.7,0,0,1-.2-1.5,5.86,5.86,0,0,1,.4-2.3A1.4,1.4,0,0,1,185.858,209.341Zm16.1,5.8a2.29,2.29,0,0,1,2.3,1.4,11.412,11.412,0,0,1,.6,4.5c2.3-3,4.5-5.8,6.7-8.693-3.9-1.5-7.7-2.9-11.6-4.4a51.8,51.8,0,0,0-4.2,5.1,21.253,21.253,0,0,0-2.7,5.7,24.408,24.408,0,0,0-1,7.594c0.1,1,.1,1.9.2,2.9,0.1,0.5.2,1.1,0.3,1.6a14.825,14.825,0,0,0,2.1,5.4c1,1.5,1.9,3,2.9,4.7,1.9-2.3,3.8-4.4,5.7-6.595,1,3.1,2,6.1,3,9.593a21.33,21.33,0,0,0,2.3-6.395,28.209,28.209,0,0,0,.9-7.095c0-1.2-.1-2.4-0.2-3.7s-0.4-2.8-.6-4.1c-2.5,2.7-4.9,5.4-7.4,8.194a5.474,5.474,0,0,1-2.3-2.9,10.467,10.467,0,0,1-.5-3.9,22.521,22.521,0,0,1,.8-5.8C199.955,216.036,200.754,215.137,201.954,215.137Zm29.693,2.1c-0.2-.6-0.4-1.6-0.6-2.5a4.75,4.75,0,0,0-1.8-2.6,32.418,32.418,0,0,0-4.7-2.8,26.382,26.382,0,0,0-3.8-1.8c-0.2,0-1,1-2.6,3.2a40.586,40.586,0,0,0-2.9,4.3c-0.4.9-.7,1.7-1.1,2.6a12.884,12.884,0,0,0-.8,2.8c-0.1.6-.3,1.8-0.4,3,0,0.6-.1,2.1-0.1,2.7a26.125,26.125,0,0,0,.5,4.8,21.777,21.777,0,0,0,1.1,4.4c3.2,2.4,6.4,4.7,9.6,7.194,0.2,0,.8-1.2,2.1-3.4s2.1-3.8,2.6-4.8a30.49,30.49,0,0,0,1.3-3.2c0.4-1.1.6-2.1,0.9-3.1,0.1-.4.3-1.5,0.4-1.9a6.882,6.882,0,0,0,.2-1.3c0.1-.6.2-2,0.3-2.6,0-.4.1-1.6,0.1-2a6.593,6.593,0,0,0-.1-1.4A8.742,8.742,0,0,0,231.647,217.235Zm-6.4,8.294a15.94,15.94,0,0,1-.6,3c-0.2.5-.7,1.9-0.9,2.4-0.4.9-.7,1.3-0.9,1.3l-0.6-.3c-0.4-.2-1-0.6-1.4-0.8a3.335,3.335,0,0,1-1.3-2.3,15.789,15.789,0,0,1-.4-3.8,27.9,27.9,0,0,1,.8-5.795c0.5-2.4,1.1-3.4,1.9-3.4a3.414,3.414,0,0,1,2,1.3,4.884,4.884,0,0,1,1.4,1.8c0,0.4.2,1.2,0.2,1.6s0.1,1.1.1,1.4A21.827,21.827,0,0,1,225.249,225.529Zm20.3-16.588c-1.2.1-2.3,0.1-3.5,0.2s-2.1-.1-3.2-0.1a22.6,22.6,0,0,1-2.6-.1c-0.5,1.1-.9,2.1-1.4,3.2-0.7,1.5-1.3,2.9-2,4.4h1l2.2-.3c0.6-.1,1.1-0.1,1.7-0.2,0,0.1.1,0.2,0.1,0.3v23.482l10.9-.6c0.5-3.8.9-7.095,1.4-10.393,0.2-1.3.4-2.5,0.6-3.7a13.124,13.124,0,0,1-3.1,5.2,6.293,6.293,0,0,1-3.9,1.9,0.367,0.367,0,0,0-.3.1c-0.1-.1-0.3-0.1-0.4-0.2v-6.595h0.9a2.272,2.272,0,0,1,1.3,1,8.628,8.628,0,0,1,1,1.6c0.1-1.4.3-2.8,0.5-4.4s0.5-2.8.7-4.2c-1.5,0-2.9.1-4.4,0.1v-4.3c0.5-.1.9-0.1,1.4-0.2a4.952,4.952,0,0,1,2.6,1.3,11.073,11.073,0,0,1,2.5,3.2c0.3-2,.7-3.8,1-5.7q0.9-4.947.9-5.1v-0.6h-0.5A33.15,33.15,0,0,1,245.544,208.941Zm24.9-1.1c-1.8,4.5-3.6,8.894-5.5,13.89-1.4-4.8-2.8-8.993-4.3-13.49-2.3,1.5-4.5,3-6.9,4.6,0.4,1,.9,1.9,1.3,2.9a20.264,20.264,0,0,1,1.4,3.4c-1.2,5.8-2.3,11.891-3.5,19.285l5.9,1.2c0.2-2.5.3-4.7,0.5-6.894,0.3-3.7.5-6.4,0.6-8.694,0-.1.1-0.2,0.1-0.3,1.3,3.8,2.5,7.595,3.8,11.891,1.5-4.7,2.9-8.793,4.4-12.69a0.2,0.2,0,0,0,.1.2,0.2,0.2,0,0,1,.1.2c0.3,2.5.5,4.9,0.7,7.594v7.294c2.3-1.4,4.4-2.7,6.7-3.9a112.484,112.484,0,0,0-2-14.189A55.885,55.885,0,0,0,270.439,207.842Zm27.093,7.495c-0.2-.6-0.4-1.3-0.6-2a4.1,4.1,0,0,0-1.8-2.1,29.162,29.162,0,0,0-4.7-2.3,25,25,0,0,0-3.8-1.5c-0.2,0-1,.9-2.6,2.8a22,22,0,0,0-2.9,3.9c-0.4.8-.7,1.6-1.1,2.4a10.417,10.417,0,0,0-.8,2.5c-0.1.6-.3,1.6-0.4,2.7,0,0.6-.1,1.8-0.1,2.3a18.379,18.379,0,0,0,.5,4.1,16.484,16.484,0,0,0,1.1,3.6q4.8,2.249,9.6,4.2a16.051,16.051,0,0,0,2.1-3c1.3-1.9,2.1-3.2,2.6-4.1s0.9-1.7,1.3-2.6,0.6-1.7.9-2.5c0.1-.4.3-1.1,0.4-1.5s0.1-.7.2-1c0.1-.6.2-1.5,0.3-2a9.14,9.14,0,0,0,.1-1.6,4.091,4.091,0,0,0-.1-1.1A5.02,5.02,0,0,1,297.532,215.337Zm-6.4,6.994a11.334,11.334,0,0,1-.6,2.5c-0.3.7-.6,1.4-0.9,2a2.113,2.113,0,0,1-.9,1.1,1.417,1.417,0,0,1-.6-0.2c-0.5-.2-0.9-0.3-1.4-0.5a2.648,2.648,0,0,1-1.3-1.8,10.982,10.982,0,0,1-.4-3.1,27.418,27.418,0,0,1,.8-5c0.5-2,1.1-3,1.9-3a3.478,3.478,0,0,1,2,1,4,4,0,0,1,1.4,1.5,5.835,5.835,0,0,1,.2,1.3c0,0.3.1,0.9,0.1,1.2Zm23-12.49c0.1,1.9.2,3.7,0.3,5.6s0.1,3.1.1,4.1v0.6c-2.4-3.9-4.8-7.894-7.2-12.291-2.7,1.3-5.2,2.5-7.9,3.9,1.3,1.7,2.5,3.3,3.8,4.9-0.4,4.7-.8,9.393-1.1,14.789l5.2-.3V219.833a108.752,108.752,0,0,0,9.6,9.593,35.556,35.556,0,0,0,2.2-7.894,48.16,48.16,0,0,0,1-8.494v-4.9c-2,0-3.9.1-5.8,0.1A4.14,4.14,0,0,0,314.129,209.841ZM156.364,32.175c-2.7,7.794-5.2,14.189-7.8,20.285-2.1-5.4-4.1-10.392-6.2-15.488-3.3,3-6.5,5.7-9.9,8.294,0.6,0.9,1.3,1.7,1.9,2.6a34.457,34.457,0,0,1,2,3.2c-1.7,6.4-3.3,11.991-5,17.787,2.9,0.4,5.7.8,8.5,1.3,0.2-2,.5-4,0.7-6,0.4-3.4.7-6.2,0.9-8.494,0.1-.1.1-0.2,0.2-0.3,1.8,3.9,3.6,7.694,5.5,11.791,2.2-4.3,4.2-8.593,6.4-13.49a0.2,0.2,0,0,0,.1.2l0.2,0.2c0.4,2.9.7,5.7,1.1,8.593v7.394c3.2-1.1,6.3-2.1,9.6-3.3a146.648,146.648,0,0,0-2.9-17.387A113.874,113.874,0,0,0,156.364,32.175Zm31.893-5.7c-1.8,8.394-3.6,15.288-5.4,21.883a55.286,55.286,0,0,0-2.9-10.592c-1.4-3.6-3.2-6.1-5.5-7.594-1-.6-1.9-1.1-2.9-1.7-1.7,5.5-3.3,10.292-4.9,14.989,0.8,0.2,1.6.3,2.5,0.5a15.569,15.569,0,0,1,2.8,1.6c1.2,0.8,2.5,2.5,3.9,5.3s2.2,4.9,2.2,6.6V69.147c2.8,0,5.6,0,8.4-.1V57.056c3.6-7.994,7.1-16.487,10.7-27.08A74.647,74.647,0,0,0,188.257,26.479Zm21.295,11.191a3.1,3.1,0,0,1,1.3-.6h1.1a7.487,7.487,0,0,1,3.6.7,8.335,8.335,0,0,1,3,2.9c-0.4-3.3-.6-6.3-0.8-9.193s-0.4-5.9-.5-9.193c-1,.1-2,0.1-3,0.2-2.1.2-4.5,1.3-7.3,3.5a20.627,20.627,0,0,0-6,6.795c-0.2,2-.4,3.9-0.5,5.8-0.4,3.7-.6,6.3-0.8,8.294,2.2,0.5,4.3,2,6.5,4.5a18.234,18.234,0,0,1,4.3,8.394h-1.8c-1.3,0-3-.7-5.2-2.3s-3.5-3-4-4.5c1.1,6,2.2,11.491,3.3,17.187h3a13.578,13.578,0,0,0,4.9-1.2,15.3,15.3,0,0,0,4-2.1c0.6-.5,1.3-1,1.9-1.5a2.018,2.018,0,0,0,.9-1.2c0.6-3.4,1.2-6.695,1.8-10.392-4-4.8-7.8-9.593-11.8-14.789A23.75,23.75,0,0,0,209.552,37.671Zm23.5-14.089a39.973,39.973,0,0,1-5.7-2.3c-1.7,7.095-3.4,13.19-5.1,19.086,1-.1,2.1-0.1,3.1-0.2,1.2-.1,2.3-0.1,3.4-0.1a7.491,7.491,0,0,1,2.1.2V68.747h9.3V38.77c2,0,4,0,6,.1,0.5-5.4,1-10.992,1.5-17.387-4,2.2-7,3.3-9.2,3.3A26.206,26.206,0,0,1,233.047,23.581Zm19.7,45.166h7.4c1.6-12.191,3.1-23.982,4.7-40.07-4.1-2.6-8-5.2-12.1-7.994V68.747h0Zm25.694-11.391a17.989,17.989,0,0,1-1.4-7.594c0-3.9.3-6.695,1-8.394s1.3-3.1,1.5-3.5a1.8,1.8,0,0,1,.8-0.9c1.5,0.2,2.8,1.6,4.3,4.3a15,15,0,0,1,2.1,7.095c2.5-4.6,4.9-9.093,7.4-14.089a68.357,68.357,0,0,0-8-6.2,21.631,21.631,0,0,0-8.5-3.7c-0.5,0-1.4,1.2-2.9,3.9s-2.5,4.6-3.1,6a45.812,45.812,0,0,0-1.7,4.8,41.441,41.441,0,0,0-1.1,4.8c-0.2,1.4-.4,2.8-0.6,4.5-0.1,1.1-.1,2.2-0.2,3.3a22.492,22.492,0,0,0,3.4,12.391,12.758,12.758,0,0,0,9.2,6.2c3.8-3.9,7.4-7.494,11.2-11.192-2.9.5-5.7,0.9-8.6,1.4A4.375,4.375,0,0,1,278.437,57.356Zm22.5-26.38c0.5,1.6,1,3,1.6,4.5,0.9,2.6,1.4,3.9,1.4,4.1a24.056,24.056,0,0,1-1.5,3.3c-1.1,2.2-2.2,4.3-3.3,6.5-1.2,2.4-2.1,4.1-2.7,5.5s-1.2,2.9-2,5a35.281,35.281,0,0,0-1.5,4.6c2.1,1.9,4,3.6,6.1,5.4,0.3-.8.5-1.5,0.8-2.3a18.59,18.59,0,0,1,1-2.5c4.3-.7,6.6-1,7.3-1a28.28,28.28,0,0,1,2.9-.2c0.7,2.5,1.4,4.8,2.1,7.195,2.9-2.8,5.8-5.4,8.7-7.994a311.5,311.5,0,0,1-11.9-33.575A70.393,70.393,0,0,0,300.932,30.976Zm2.3,25.481c1.1-3.5,2.2-6.995,3.2-10.692,0.9,3.9,1.8,7.494,2.7,11.092a39.013,39.013,0,0,0-5.9-.4h0Zm33.393,5.5c-0.3,0-.5-0.1-0.8-0.1a2.353,2.353,0,0,1-.8-0.2c1.2-7.794,2.4-15.188,3.6-22.883q-6.9-1.2-13.8-1.8a29.247,29.247,0,0,1,3.1,6.995,25.928,25.928,0,0,1,.6,5.6c-0.5,6.795-1,13.09-1.5,19.585,5.7,0.1,11.2.1,17,.2,0.1-1.5.1-2.9,0.2-4.4a30.643,30.643,0,0,1,.7-6,9.361,9.361,0,0,1-4,2.5A15.8,15.8,0,0,1,336.624,61.952ZM153.265,98.425l-2.7-3.1,3.8-1.6,2.6-1,11.2-4.8L120.273,77.041l-2.6-.6,0.1,2.7,7.6,113.815,0.1,2,2-.2,29.193-1.9,1.7-.1,0.2-1.7,8.9-76.143-12.4-14.389ZM277.237,79.639H240.245v9.793c0.6,11.091,1.1,20.884,1.6,30.077,0.4,7.394.7,13.69,0.8,18.586L205.353,77.541l-0.9-1.5-1.6.7-44.79,18.686-2.5,1.1,1.8,2.1,20.795,24.181-6.4,66.65-0.2,1.9,1.9,0.2,29.393,3.7,2.3,0.3V144.69l50.689,53.659,1.8,1.9,1.4-2.3c2.5-4.2,4.8-9.993,7.1-17.487l-0.2-.2c-11.5-11.491-13.5-13.49-13.9-13.789l-5.2-4.5-7.8-6.8,10.2,1.6,6.8,1.1,14.9,2.3c0.2-1.1.5-2.3,0.7-3.5,3.7-19.585,5.6-35.573,5.6-47.564V94.928l-2.2-1.8,2.2-.7V79.639h0Zm59.487,96.227a81.2,81.2,0,0,1-5.4,8.894c-1.9,2.9-4.9,5.4-8.8,7.794-0.1.6-.3,1.1-0.4,1.6l-0.3,1.1,0.8,0.8,24.094,22.783,2.4,2.3,0.9-3.2c0.5-1.8,1.5-5.1,3-9.993,1.2-4.1,2.4-7.394,3.3-9.792,15.9-3.1,25.094-4.9,27.594-5.3,2.2-.3,5.5-0.8,9.6-1.3,2.7,10.392,5.3,20.884,8,31.276l0.9,3.6,2.5-2.8L439.2,185.259l0.8-.9-0.5-.9-46.689-134.4-0.7-1.9-1.9.7L355.119,59.954l-1.9.7,0.7,1.9c0.3,0.8,1.2,3.2,6.2,14.789,4.2,9.892,5.1,12.59,5.3,13.39-0.2.7-1.2,3.3-5.7,12.59-3.9,8.094-8.3,17.087-13,26.88-1.6,3.3-3,6.3-4.4,9.093-1,10.692-1.9,18.486-2.6,23.183C338.923,168.972,337.923,173.268,336.724,175.866Zm40.59-54.458,8.3,35.373h-18.3ZM345.522,78.34l0.3-3-2.9.8L284.935,93.229l-3.6,1.1,2.9,2.4a48.814,48.814,0,0,1,15.2,20.685,69.429,69.429,0,0,1,4.6,23.882,34.6,34.6,0,0,1-4.4,16.887c-2.7,5.1-6.6,7.494-11.9,7.594l-32.193-5-6.8-1.1,5.2,4.5c0.6,0.5,3.5,3.3,14,13.99,8.6,8.593,14.2,14.089,16.7,16.187,3.6,3,4.9,3.6,6,3.6a17.31,17.31,0,0,0,3.2-.3,50.877,50.877,0,0,0,20.3-4.5c7.2-3.1,12-6.5,14.6-10.292a91.726,91.726,0,0,0,5.2-8.493c1.1-2.2,2-6.4,2.9-12.691,0.9-6.095,2.1-17.487,3.6-33.874,1.5-16.588,2.4-25.481,2.6-27.18Z"/>
</svg>
