<svg id="Group_1_copy_2" data-name="Group 1 copy 2" xmlns="http://www.w3.org/2000/svg" width="1846" height="1496" viewBox="0 0 1846 1496">
  <defs>
    <style>
      .cls-1 {
        fill: #fff;
      }

      .cls-1, .cls-2, .cls-3 {
        fill-rule: evenodd;
      }

      .cls-2, .cls-3 {
        fill: none;
      }

      .cls-3 {
        stroke: #fff;
        stroke-width: 8px;
      }
    </style>
  </defs>
  <path id="Shape_11_copy_2" data-name="Shape 11 copy 2" class="cls-1" d="M848.563,1056.3v22.53h-28.03v89.12h28.03V1370s5.742,46,66.437,46h122s61-5.49,61-38V1189.98H987.714V1326H959.1V1167.95h139.34v-89.12H959.1V1056.3H848.563Z"/>
  <path class="cls-1" d="M329,161.021V588s-4.417,44-59,44H78V543H217V520H130s-52-4.982-52-43V202s4.233-40.979,62-40.979H329ZM190.564,430.313h26.584V250.862H190.564V430.313Z"/>
  <path class="cls-1" d="M1050.15,183V161.021H938V519.439h112.15V250.862H1076V519.439h112V204c0-6.224-14.58-59.978-99-39C1076.32,168.152,1064.55,172.853,1050.15,183Z"/>
  <path class="cls-1" d="M365,161.021V520H477.1V385h26.418V582s2.073,51,59.482,51h88v377.68H763V733h27v277.68H902V686c0-8.562-10.583-43.362-56-43s-83,0-83,0V543H614.84V364s-0.2-24-25.84-24c31.234,0,25.84-29.826,25.84-49V205s-3.135-43.979-55.84-43.979H365Zm112.1,89.841h26.418V295.53H477.1V250.862Z"/>
  <path class="cls-2" d="M763,385.754v44.559h26.872V385.754H763Z"/>
  <path class="cls-1" d="M763,273.129V250.862h26.872V295.53H706c-13.8,0-54,15.48-54,41.47V469c0,19.591,9,51,67,51H902V200c0-12.777-20.071-39-62-39s-128.372.021-141,.021S652,181.694,652,200v73.129H763Zm0,112.625h26.872v44.559H763V385.754Z"/>
  <path id="Shape_7_copy" data-name="Shape 7 copy" class="cls-1" d="M370,1168.13v-22.27h26.872v44.67H313c-13.8,0-54,15.48-54,41.47v132c0,19.59,9,51,67,51H509V1095c0-12.78-20.071-39-62-39s-128.372.02-141,.02-47,20.67-47,38.98v73.13H370Zm0,112.62h26.872v44.56H370v-44.56Z"/>
  <path id="Shape_7_copy_2" data-name="Shape 7 copy 2" class="cls-1" d="M1188,826.248v-132c0-19.591-9-51-67-51S1008.45,643,991,643c-33.879,0-53,22.312-53,52V971.248c0,9.6,20.071,39,62,39s128.37-.02,141-0.02,47-20.676,47-38.982V890.12H1077v22.267h-26.87V867.718H1188v-41.47ZM1077,777.5h-26.87v-44.56H1077V777.5Z"/>
  <path class="cls-1" d="M1474,519.439V71H1363v90.021h-79c-5.17,0-59,.117-59,47.979V474s-2.71,45.439,63,45.439h186ZM1335.94,250.862h26.9V430.313h-26.9V250.862Z"/>
  <path class="cls-1" d="M366.563,643.3v22.53h-28.03v89.12h28.03V957s-0.258,53.68,60.437,53.68,123,0.32,123,.32,66,0.36,66-43V776.975H505.714V913H477.1V754.946H616.444v-89.12H477.1V643.3H366.563Z"/>
  <path id="Shape_11_copy" data-name="Shape 11 copy" class="cls-1" d="M1523.56,642.3v22.53h-28.03v89.12h28.03V956s-0.25,53.68,60.44,53.68,123,0.32,123,.32,66,0.36,66-43V775.975H1662.71V912H1634.1V753.946h139.34v-89.12H1634.1V642.3H1523.56Z"/>
  <path class="cls-1" d="M1335.94,845H1475V754.946H1335.94V734H1475V643.3H1282c-12.89,0-57,8.234-57,47.7v319.68h110.94V845Z"/>
  <path class="cls-1" d="M545,1056.29V1374c0,19.49,23.7,41,59,41H746c-18.2,0,48,2.32,48-40V1056.29H683V1326H656V1056.29H545Z"/>
  <path class="cls-1" d="M1136,1101v269c0,39.5,52.26,46,60,46h125c29.67,0,66-15.65,66-47V1095c0-10.48-23.69-39-60-39H1191C1177.97,1056,1136,1065.84,1136,1101Zm111,45h28v180h-28V1146Z"/>
  <path id="Shape_316_1" data-name="Shape 316 1" class="cls-3" d="M1310.79,19h215.05V571.119H1342.8c-35.74,0-76.93,2.822-103.03-7v7l-425.092,1v19c50.939-.962,75.654,7.88,105.024,25.006,12.386-8.651,25.361-17.487,42.009-22,20.617-5.6,50.009-3,75.019-3,41.65,0,92.98-5.045,127.03,5,17,5.017,29.38,14.2,43.01,22,45.61-31.425,100.68-27.007,178.04-27.006l301.06-1v23h139.04V902.19c0,55.175,3.18,104.64-27.01,129.03a141.291,141.291,0,0,1-58.01,28c-29.77,6.85-70.59,3-105.03,3q-37.995-.99-76.01-2c-16.08-3.48-32.21-9.69-44.01-18-40.41-28.42-43.56-74.319-43.01-145.031h-84.02c-0.23,18.205-4.27,116.891,2,124.031,15.48,16.05,34.62,25.47,44.01,48.01,9.69,23.26,5,65.82,5,97.02v153.03c0,22.94,2.97,51.36-2,71.02-4.11,16.22-12.83,29.61-22.01,41-32.01,39.77-97.45,37.01-170.03,37.01-25.54,0-54.82,2.32-76.02-3q-17.505-6.495-35.01-13-7.5-5.5-15-11-16.005,8.49-32.01,17l-35.01,9q-28.005.51-56.011,1c-44.151.01-98.4,4.84-131.029-8-16.463-6.48-27.935-17.44-41.01-27.01-14.721,11.11-27.888,22.81-48.011,29.01-41,12.64-175.82,8.11-215.048-2v7H391.583c-45.947,0-95.1,2.75-127.029-11-23.39-10.07-42.658-30.86-52.012-55.01-11.676-30.16-9.018-136.31-5-177.04q-0.5-68.505-1-137.03c9.317-52.86,55.271-83.49,119.027-83.02-21.113-44.7-11.074-134.512-11-197.04H286.559q-0.5-62.007-1-124.027l-260.059,1V300.061c0-64.525-6.491-130.284,28.006-160.035,12.337-10.639,27.639-20.715,45.01-26.006,25.507-7.769,62.6-5,95.021-5h178.04c78.618,0,226.737-14.924,262.059,27.006,15.5-10.006,30.146-21.12,51.012-26.005l58.013-1c47.177,0,107.994-5.727,143.032,8v-8H1140.75c21.82,1.439,65.15,25.792,68.02,23,35.84-15.769,46.21-22.963,102.02-23V19ZM380.58,572.119v19H451.6v-19H380.58Z"/>
</svg>
