<?xml version="1.0" encoding="utf-8"?>
<!-- Generator: Adobe Illustrator 19.0.0, SVG Export Plug-In . SVG Version: 6.00 Build 0)  -->
<svg version="1.1" id="Layer_1" xmlns="http://www.w3.org/2000/svg" xmlns:xlink="http://www.w3.org/1999/xlink" x="0px" y="0px"
	 viewBox="-227 385.8 156.4 23.2" style="enable-background:new -227 385.8 156.4 23.2;" xml:space="preserve">
<style type="text/css">
	.st0{fill:#FFFFFF;}
</style>
<path class="st0" d="M-91.7,386.4L-91.7,386.4c3.1,0.3,6,1,8.5,2c0.5,0.2,0.9,0.4,1.4,0.6c0.5,0.2,0.9,0.4,1.3,0.7h0l0,0h0
	c2.1,1.2,3.8,2.6,4.8,4.3c0.2,0.3,0.4,0.6,0.5,1c0.2,0.3,0.3,0.7,0.4,1v0c0.1,0.3,0.2,0.6,0.4,0.7c0.2,0.2,0.5,0.3,0.9,0.3h3v1.5h-3
	c-0.4,0-0.6,0.1-0.8,0.3c-0.2,0.1-0.3,0.4-0.4,0.6c-0.5,1.8-1.7,3.4-3.5,4.8h0c-0.3,0.3-0.7,0.5-1.1,0.8c-0.4,0.2-0.8,0.5-1.2,0.7
	l0,0c-1.6,0.9-3.4,1.6-5.5,2.2c-0.4,0.1-0.8,0.2-1.2,0.3c-2.5,0.6-5.3,0.9-8.2,0.9h0c-0.1,0-0.3,0-0.4,0c-0.1,0-0.3,0-0.4,0l-0.4,0
	l-0.1-0.3l-0.2-0.6c-2.6-0.1-5-0.5-7.2-1.1c-0.4-0.1-0.9-0.3-1.3-0.4c-0.4-0.1-0.8-0.3-1.2-0.5l0,0l0,0l-0.6-0.3l0.4-0.5l1.4-1.7
	l0.2-0.3l0.3,0.1c1.4,0.5,2.8,0.8,4.2,1.1c0.2,0,0.5,0.1,0.8,0.1c0.3,0,0.6,0.1,0.8,0.1l0,0c3.4,0.3,7.1,0.1,10.4-0.9
	c0.6-0.2,1.3-0.4,1.9-0.7c0.6-0.3,1.2-0.5,1.8-0.9l0,0c1-0.6,1.9-1.2,2.5-1.9c0.1-0.1,0.2-0.3,0.3-0.4c0.6-0.8,1-1.7,1-2.6v0
	c0-1.5-1-2.9-2.6-4.1c-0.3-0.2-0.7-0.5-1.1-0.7c-0.4-0.2-0.8-0.4-1.2-0.6l0,0c-4-1.9-8.8-2.4-13.3-1.9c-0.9,0.1-1.8,0.2-2.6,0.4
	c-0.9,0.2-1.7,0.4-2.5,0.6c0,0-0.1,0-0.1,0v0c-2.6,0.8-5,1.9-6.2,3.7c-0.2,0.3-0.4,0.7-0.5,1.1c-0.2,0.5-0.2,1-0.2,1.5v0
	c0,0,0,0.1,0,0.1v0c0,0,0,0,0,0.1l0,0.5h-3.7l-0.1-0.2l-1.1-1.8l-0.4-0.8h2.8c1-2.4,3.5-4.4,6.8-5.8c0.7-0.3,1.4-0.6,2.1-0.8
	c0.6-0.2,1.2-0.3,1.8-0.5l-0.2-0.5l-0.2-0.5l0.6-0.1c2.6-0.6,5.3-0.8,8-0.8c0.5,0,1.1,0,1.6,0.1C-92.8,386.3-92.3,386.4-91.7,386.4
	L-91.7,386.4z"/>
<path class="st0" d="M-96,395.3L-96,395.3c0.7,0,1.3,0.1,1.8,0.3c0.1,0,0.2,0.1,0.3,0.1l0,0c0.4,0.2,0.8,0.4,1.1,0.7
	c0.1,0.1,0.2,0.2,0.3,0.3c0.2,0.2,0.2,0.3,0.8,0.3h2v1.4h-2c-0.3,0-0.5,0-0.6,0c-0.1,0-0.2,0.2-0.4,0.4l0,0c0,0,0,0,0,0
	c-0.1,0.1-0.2,0.2-0.3,0.3c-0.1,0.1-0.2,0.2-0.4,0.2c-0.7,0.4-1.6,0.6-2.6,0.6h0c-1,0-1.9-0.2-2.5-0.6c-0.8-0.4-1.2-1-1.2-1.7v0
	c0-0.7,0.5-1.3,1.2-1.7C-97.9,395.5-97,395.3-96,395.3L-96,395.3L-96,395.3z"/>
<path class="st0" d="M-146.1,387.9h8.7v1.1h5.5v1.5h-1.6c-0.6,0-0.9,0.2-1.2,0.4c-0.2,0.2-0.3,0.5-0.3,0.8v10.7h14.1
	c0.4,0,0.9-0.2,1.2-0.6c0.3-0.3,0.5-0.7,0.5-0.9v-0.5h1.5v5.3h-2c-0.1,0.2-0.1,0.3-0.2,0.5c-0.2,0.4-0.6,0.6-0.9,0.6H-140v-1.7h-5.6
	v-1.6h2.3c0.4,0,0.7-0.2,0.9-0.5c0.2-0.4,0.3-0.9,0.3-1.3v-10.8c0-0.6-0.1-0.9-0.3-1.2c-0.2-0.2-0.5-0.3-0.9-0.3h-3.2v-1.5H-146.1z"
	/>
<path class="st0" d="M-169.6,387l16,17.1h3.9v1.7h-4.3v0.7h-4.9l-0.1-0.2l-0.5-0.6h-2.9v-1.7h1.1l-4.5-5h-8l-3.9,4.4
	c-0.1,0.2-0.3,0.3-0.3,0.5c0,0,0,0.1,0,0.1c0,0,0,0,0,0c0.1,0,0.2,0.1,0.4,0.1h3.2v1.7h-6.7l-0.5,0.6l-0.1,0.2h-6.6v-2.4h2.4
	l6.3-7.1l0.1-0.2h2.2l1-1.2l0.1-0.2h7l-2.9-3.2l-0.7,0.9l-0.2,0.2h-3.5l0.7-0.8l2.2-2.5l0.4-0.4l0.3,0.3l2.5-2.8l0.4-0.4
	C-169.9,386.6-169.6,387-169.6,387z"/>
<path class="st0" d="M-226.5,385.8h9v9h15.7v-6.7h0.5c1,0,1.9,0.2,2.8,0.5c0.2,0.1,0.4,0.2,0.6,0.2c1,0.4,1.9,1,2.4,1.5
	c0.7,0.7,0.7,1.1,0.7,1.8c0,0.1,0,0.2,0,0.2v12h2.2v1.5h-2.2v0.8h-4.7v-0.8h-2.3v-8h-13.5v5c0,0.8,0.5,1.2,1,1.6
	c0.6,0.4,1.4,0.5,1.8,0.6h1.3v2.1h-2.1l-0.2,0.3l-0.1,0.2h-7.6v-1h-5.2V405h2.1c0.3,0,0.4-0.1,0.5-0.2c0.1-0.2,0.2-0.6,0.2-1.1
	v-13.5c0-0.9-0.2-1.6-0.5-2c-0.3-0.4-0.6-0.5-1-0.5h-2v-1.9C-227,385.8-226.5,385.8-226.5,385.8z"/>
<g>
	<path class="st0" d="M-91.7,386.9c-3.7-0.4-7.4-0.2-11,0.6l0.3,1c-5.6,1.3-9.8,4-11,7.2h-2.3l1.1,1.8h2.9c0-0.1,0-0.1,0-0.2
		c0-3.6,3.5-5.6,7.3-6.8c6-1.8,13.1-1.8,18.9,0.8c3.2,1.5,5.1,3.6,5.1,5.9c0,2.1-1.5,4-4.1,5.4c-4.3,2.4-9.6,2.9-14.4,2.5
		c-2.1-0.2-4.1-0.6-6-1.3l-1.4,1.7c2.8,1.1,6.2,1.9,9.9,2l0.3,1c0.3,0,0.5,0,0.8,0c5.7,0,10.9-1.3,14.6-3.3c2.9-1.6,4.8-3.7,5.5-6
		c0.2-0.8,0.8-1.2,1.7-1.3h2.6v-0.5h-2.5c-1.1-0.1-1.5-0.6-1.7-1.4c-0.6-2.3-2.6-4.4-5.5-6C-83.7,388.5-87.5,387.3-91.7,386.9
		L-91.7,386.9z"/>
	<path class="st0" d="M-96.1,395.8c1.2,0,2.3,0.4,2.9,0.9c0.6,0.6,0.5,0.7,1.4,0.7h1.5v0.4h-1.5c-0.8,0-0.8,0-1.4,0.6
		c-0.5,0.6-1.6,1-2.9,1c-1.8,0-3.3-0.8-3.3-1.8C-99.3,396.6-97.9,395.8-96.1,395.8L-96.1,395.8z"/>
	<path class="st0" d="M-146.1,388.4h8.2v1.1h5.5v0.5h-1.1c-1.4,0-2,0.9-2,1.7V403h14.6c1.2,0,2.2-1.3,2.2-2h0.5v4.3h-1.9
		c0,0.4-0.4,1.1-0.7,1.1h-18.8v-1.7h-5.6v-0.6h1.8c1.3,0,1.7-1.3,1.7-2.4v-10.8c0-1.4-0.6-2-1.7-2h-2.7V388.4z"/>
	<path class="st0" d="M-169.9,387.4l16.1,17.2h3.6v0.7h-4.3v0.7h-4.2l-0.7-0.7h-2.7v-0.7h1.7l-5.4-6h-8.5l-4,4.6
		c-0.6,0.7-0.7,1.4,0.5,1.4h2.7v0.7h-6.4l-0.6,0.7h-5.8v-1.4h2.2l6.4-7.3h2.2l1.2-1.4h7.9l-4-4.5l-1.1,1.3h-2.1l2.2-2.5l0.3,0.3
		C-172.8,390.6-169.9,387.4-169.9,387.4z"/>
	<path class="st0" d="M-226.5,386.3h8.5v9h16.7v-6.7c2.3,0,4.5,1.2,5.5,2.1c0.6,0.6,0.5,1,0.5,1.7v12.5h2.2v0.5h-2.2v0.8h-3.7v-0.8
		h-2.3v-8h-14.5v5.5c0,2,2.4,2.5,3.3,2.7h0.8v1.1h-1.8l-0.3,0.5h-6.8v-1h-5.2v-0.6h1.6c0.9,0,1.1-0.6,1.1-1.8v-13.5c0-2.1-0.9-3-2-3
		h-1.5C-226.5,387.2-226.5,386.3-226.5,386.3z"/>
</g>
</svg>
