<?xml version="1.0" encoding="utf-8"?>
<!-- Generator: Adobe Illustrator 19.0.0, SVG Export Plug-In . SVG Version: 6.00 Build 0)  -->
<svg version="1.1" id="Layer_1" xmlns="http://www.w3.org/2000/svg" xmlns:xlink="http://www.w3.org/1999/xlink" x="0px" y="0px"
	 viewBox="0 0 470.6 204.4" style="enable-background:new 0 0 470.6 204.4;" xml:space="preserve">
<style type="text/css">
	.st0{fill:#FFFFFF;}
</style>
<g>
	<path class="st0" d="M171.7,199.8c-7.2,1.1-14,2.2-20.8,3.3c-2.4-2.7-2.2-5.9-2.8-8.7c-2.6-11.8-4.8-23.8-7.3-35.6
		c-0.2-1.1-0.8-2.1-1.5-3.9c-12.2,16.5-23.1,33.2-35.3,49.7c-8.4-17.4-14.7-35.2-23.5-52.9c-5.2,12.6-10.1,24.3-15,36.2
		c-2.5-1.4-4.8-2.7-7.5-4.3c8.9-22.6,17.9-45.1,27.1-68.4c10.1,20.4,19.9,40.1,30,60.5c8.3-10.3,15.1-20.6,22.4-30.6
		c7.3-10,14.5-20.2,22.1-30.6C163.5,142.8,167.5,170.9,171.7,199.8z"/>
	<path class="st0" d="M45.7,4.3c3.6,0,7.1,0,10.5,0c0.2,0.7,0.5,1.2,0.5,1.6c0.4,8,0.7,15.9,1.2,23.9c0.6,10.5,1.2,20.9,1.8,31.3
		c0,0.5,0,1,0.1,1.5c0.4,10.5,0.7,20.9,1.2,31.4c0.4,9.3,1.1,18.6,1.7,27.8c0,0.5-0.2,1-0.3,1.8c-2.9,0-5.8,0-9.1,0
		c-1-9.8-1.9-19.4-2.9-28.9c-3.9-1-21.5-1.2-28.2-0.4c-1.3,9.6,1.9,19.2,1.6,29.1c-4.5,0.9-8.7,0.6-13.4,0.3
		C6.9,88.4,3.5,53.1,0,17.3c2.6-0.1,4.7-0.1,6.8-0.1c2,0,4,0,6.2,0c0.3,1.4,0.6,2.5,0.7,3.6c0.1,2.5,0,5,0.1,7.5
		c0.4,10.6,0.7,21.3,1.1,31.9c0,0.8,0.3,1.6,0.5,2.8c10.7-0.5,21.2-1.7,32-3.3c1.3-6.2-0.8-12.2-0.6-18.3c0.2-6.1-0.5-12.3-0.8-18.4
		C45.9,16.9,45.8,10.8,45.7,4.3z"/>
	<path class="st0" d="M335.1,158.7c1.4,13.1,2.8,25.4,4.1,38c-2.8,0-5.5,0-8.9,0c-0.4-1.7-1-3.6-1.2-5.5c-0.5-5.3-0.7-10.6-1.2-15.9
		c-0.5-6.4-1.2-12.9-1.8-19.3c-0.5-5.3-0.8-10.6-1.2-15.9c-0.5-6.4-1-12.8-1.5-19.9c13.5,8.1,26.8,15.8,39.9,23.9
		c16.9,10.5,36.4,21.8,40.1,22.7c-1.2-12.5-2.4-24.8-3.6-37.4c3.5,0,6.4,0,9.6,0c2.2,21,4.4,41.8,6.6,62.9
		c-3.9,0.9-7.2,1.8-10.6,2.5c-2.7,0.6-5.2,0.1-7.7-1.4c-10.1-5.8-20.2-11.6-30.3-17.4c-9.4-5.3-18.8-10.6-28.2-15.9
		C338.2,159.6,337,159.3,335.1,158.7z"/>
	<path class="st0" d="M228.7,95.5c-4.2,4.9-8.2,9.6-12.4,14.5c-18-11.3-35.8-22.4-53.5-33.5c-5,2-9.8,3.9-14.7,5.8
		c-0.6,3.8-1.2,7.3-1.8,11.2c-2.9,0-5.8,0-9.2,0c2.4-23.1,4.7-45.9,7.1-69.2c6.3-0.4,12.4-0.6,18.5-0.1c7.1,0.6,14.2,1.7,21.2,2.9
		c3.9,0.7,7.8,1.8,11.6,3c2,0.6,4,1.7,5.7,3c3.6,2.7,4.6,6.6,2.6,10.6c-1,2.1-2.3,4.1-4,5.7c-5,4.9-10.2,9.5-15.4,14.2
		c-0.6,0.5-1.4,0.8-1.6,0.9c0.1,2.9,1.7,3.3,2.9,4.1c9,5.6,18.1,11.3,27.1,16.9C218.1,88.8,223.3,92.1,228.7,95.5z M178.8,40.5
		c-0.7-3.5-2.7-5.5-5.5-6.3c-3.8-1-7.7-1.6-11.6-2.2c-1.7-0.2-3.5,0.1-5.7,0.2c-1.7,10.6-3.4,20.9-5,31.2c-0.1,0.7,0.3,1.5,0.5,2.2
		c0.6-0.1,1,0,1.2-0.1c6.8-4.1,13.3-8.8,19.1-14.2C174.9,48.3,177.8,45.1,178.8,40.5z"/>
	<path class="st0" d="M327.8,86.8c0.7-1.1,1.4-2.2,2-3.2c0.6,0.1,1,0.1,1.2,0.2c8,6.9,17.6,9.9,27.8,11.1c4.7,0.5,9.3-0.6,13.7-2.2
		c2.2-0.9,4.2-2.1,4.9-4.8c-0.2-4.5-2.8-7.7-6.5-9.8c-5.4-3-10.9-5.6-16.6-8.1c-7-3-14.3-5.3-20.8-9.7c-4.4-3-8.6-6.2-11.6-10.8
		c-4.3-6.4-3.5-13.6,0.3-20.2c2.9-5,7.6-7.9,13-9.5c6.3-1.9,12.7-2,19.2-1.2c11.1,1.4,21.9,4,32.5,7.5c2.8,0.9,5.6,2,8.6,3.1
		c-1.7,7-3.4,13.7-5.2,20.9c-3.5-1-6.6-1.9-9.8-2.7c-7.8-1.8-15.5-3.7-23.3-5.2c-2.7-0.5-5.7-0.3-8.5-0.1c-2.6,0.2-4.8,1.2-6,4
		c0.4,3.6,3,5.9,5.8,7.6c5.1,3,10.4,5.9,15.9,8.3c6.5,2.9,13.1,5.7,18.7,10.2c4,3.3,7.6,6.8,9,12.2c1.7,6.2-1.2,12.2-6,15.2
		c-4.1,2.6-8.7,4.1-13.6,4.4c-13.4,0.9-25.3-3.2-36.3-10.3C333.4,91.7,330,90.2,327.8,86.8z"/>
	<path class="st0" d="M275,193.3c-13.3,0.4-25.6-9-28-23.5c-2-11.9,1.2-22.4,8.6-31.7c5.4-6.7,12-12,20.6-14.2
		c9-2.3,17.8-2.2,25.8,3.2c5.7,3.8,9.5,9.1,11.3,15.9c3.6,14-0.6,25.9-9.4,36.5c-5.5,6.7-12.7,11.1-21.4,12.8
		C279.9,192.8,277.5,193,275,193.3z M280.6,163c10.3-0.4,17-7.6,16.9-15.6c-0.2-11.7-8.8-17.8-17.8-17.5
		c-9.7,0.3-16.8,7.7-16.7,16.3C263,155.9,271.4,162.7,280.6,163z"/>
	<path class="st0" d="M275.3,20.8c3.7,6.8,7,13.1,10.5,19.5c-14.6,22.2-29.1,44.2-44,66.9c-11.9-23.5-23.4-46.3-35.3-69.6
		c7.6-2.5,14.5-5,22.3-6.8c7.9,12.1,14.7,24.9,22.9,37.5c1-1.4,1.8-2.4,2.3-3.5c6.2-13,12.4-26.1,18.7-39.1
		C273.3,24.4,274.1,23,275.3,20.8z"/>
	<path class="st0" d="M239.3,154.5c-0.5,10-4.1,18.5-10.9,25.7c-6.1,6.5-13.3,10.8-22.3,12.3c-12.6,2-26.8-5-30.2-20.4
		c-3.5-15.8,6.1-33,18.2-40.2c5.6-3.3,11.6-5.4,17.9-5.4c12,0,22.1,5.8,25.6,18.7C238.5,148.2,238.7,151.4,239.3,154.5z
		 M207.1,164.1c9,0.9,16.2-7.7,16-15c-0.3-9-6-15.5-15.9-15.8c-8.9-0.3-15.9,6.3-16.3,15.5C190.5,157.3,197.9,164,207.1,164.1z"/>
	<path class="st0" d="M468.3,45.2c0.8,1.6,1.5,2.8,2,4c0.2,0.4,0.1,0.9,0.3,1.8c-10.1,3.7-20.7,5.6-31.2,9.5
		c5.2,18.4,11,36,16.3,54.3c-8.4,1.9-16.9,2.3-25.7,3.8c-1.9-9.1-2.7-18.3-4.2-27.4c-1.5-9.1-2.8-18.3-4.3-27.8
		c-11.6,1-23.1,1.9-34.8,2.9c-1.3-2.6-2.5-4.9-4-7.9c9.9-2.1,19.4-3.3,28.9-4.5c9.4-1.2,18.7-2.8,28-4.2
		C449,48.2,458.5,46.7,468.3,45.2z"/>
	<path class="st0" d="M133.6,79.9c-5.7,3.6-11.3,7.2-17.3,10.9c-3-4.2-4.4-9-6.6-13.4c-2.1-4.3-4-8.7-6-13.1c-5.7-0.6-11-2-16.8-1
		c-4.7,10.3-9.4,20.7-14.2,31.3c-1.9-0.6-3.5-1.1-5.5-1.7c8.5-22,17.5-43.5,26.5-65.5c4.4,0.6,8.8,1.2,13.6,1.9
		C116.1,46.1,124.8,62.9,133.6,79.9z M88.8,56.1c4.2,1.2,7.6,1.2,11.7,0.3c-1.2-5.6-4-11.8-6.7-14.2C92.1,46.9,90.5,51.3,88.8,56.1z
		"/>
	<path class="st0" d="M318.1,90.7c-7.7,0.6-14.6,1.1-21.7,1.7c-1.2,4,0.6,7.4,1.2,11.1c6,1.5,11.7-0.5,17.6-0.4
		c0.5,2.2,0.9,4.1,1.4,6.4c-7.4,1.3-14.7,2.7-22.5,4.1c-1.6-10-3.4-19.7-4.8-29.5c-1.4-9.8-3.4-19.5-4.3-29.5
		c11-1.4,21.5-2.7,32.3-4.1c0.9,3.2,0.2,6.4,0.6,9.9c-8.1,1.9-16.2,1.9-24.1,3.2c-1.8,3.6,0,6.7,0.4,10.1c6.7,1.7,13.3-1.5,20.3-0.3
		C316.2,78.7,316.6,84.4,318.1,90.7z"/>
</g>
</svg>
