<?xml version="1.0" encoding="utf-8"?>
<!-- Generator: Adobe Illustrator 19.0.0, SVG Export Plug-In . SVG Version: 6.00 Build 0)  -->
<svg version="1.1" id="Layer_1" xmlns="http://www.w3.org/2000/svg" xmlns:xlink="http://www.w3.org/1999/xlink" x="0px" y="0px"
	 viewBox="0 0 7304 2912" style="enable-background:new 0 0 7304 2912;" xml:space="preserve">
<style type="text/css">
	.st0{fill:#FFFFFF;}
</style>
<g>
	<path class="st0" d="M66,60c9.3,0.3,18.6,0.9,27.9,0.9c542.7,0,1085.3,0,1628,0.1c8.5,0,17.2-0.7,24.2,0.6
		c4.9,4.2,4.3,8.4,4.3,12.3c0.1,26,0.1,52,0.1,78c0,12.7-0.1,25.3,0.2,38c0.1,3.1,1.3,6.3,2.1,9.5c3.3,0.6,5.9,1.3,8.4,1.4
		c7.3,0.2,14.7,0.1,22,0.1c312.7,0,625.3,0,938,0c8.6,0,17.2-0.5,24.4,0.5c3.8,2.4,4.5,4.9,4.6,7.6c0.2,5.3,0.3,10.7,0.3,16
		c0,110,0,220-0.1,330c0,7.2,1.2,14.6-2,22.3c-2.5,0.5-5,1.4-7.5,1.5c-5.3,0.3-10.7,0.2-16,0.2c-61.3,0-122.7,0-184,0
		c-7.3,0-14.7,1.1-21.7-1.3c-3.6-4-3.3-8.8-3.3-13.4c-0.1-20.7,0-41.3-0.2-62c0-6.6,0.9-13.3-1.3-19.3c-2.5-4.1-5.3-6.6-9.8-6.3
		c-0.7,1-2,1.9-2.1,2.9c-0.4,5.3-0.8,10.6-0.8,15.9c0,77.3-0.1,154.7,0,232c0,5.8-1.3,11.9,1.7,17.5c9.8-2.2,9.9-2.3,26.5-17.7
		c0.3-3.8,0.8-8.4,0.8-13c0.1-19.3,0.1-38.7,0.2-58c0-4.6-0.8-9.3,1.6-13.6c1.7-2.6,4.3-3,7-3.1c5.3-0.2,10.7-0.2,16-0.2
		c62,0,124-0.1,186,0c7.2,0,14.6-1,20.6,1.1c4.2,4.1,3.4,8.3,3.4,12.1c0.1,25.3,0.1,50.7,0.1,76s0,50.7,0.1,76
		c0,4.5-0.8,9.3,2.2,13.4c1.2,0.7,2.2,1.7,3.4,1.9c2.6,0.5,5.3,0.8,7.9,0.7c18-0.2,36,0.8,53.2-0.6c6.2-3.9,7.8-9.9,10.4-15.2
		c27.1-54.2,54.2-108.5,81.2-162.8c54.7-109.7,109.4-219.4,164.1-329.1c0.9-1.8,1.8-3.6,2.6-5.4c8.9-18.5,8.9-13,8.9-38.1
		c0-18,0-36,0-54c0-4.6-0.4-9.4,3.7-13.8c3.3-0.3,7.3-0.8,11.2-0.9c106.9-1.8,450.6-0.9,471.7,1.1c3.3,2,3.7,5.4,3.7,8.7
		c0.1,20,0.5,40,0.1,60c-0.3,12.3,2.2,23.5,7.2,34.7c74.8,166.5,149.4,333.2,224,499.8c1.9,4.2,4,8.4,6.4,13.3
		c2.9,0.7,6,2.1,9.2,2.1c42.7,0.2,85.3,0.2,128,0.2c4.7,0,9.5-0.1,13-6.9c0.2-3.4,0.8-8.7,0.8-13.9c0-120,0-240,0-360
		c0-4,0.1-8.1-0.6-12c-0.4-2.4-2.2-4.6-3.4-6.8c-12.4-2.9-24.4-1.2-36.4-1.5c-11.3-0.3-22.7,0-34-0.1c-11.9-0.1-23.9,0.4-36.4-0.6
		c-0.9-3-2.1-5.4-2.3-7.8c-0.4-4.6-0.3-9.3-0.3-14c0-58,0-116,0-174c0-6.6-1-13.3,2.1-20.5c2-0.5,4.5-1.6,7-1.7c6-0.3,12-0.2,18-0.2
		c266,0,532,0.1,798-0.1c13.5,0,26.3,2.1,39.1,6.2c64.7,20.8,129.5,41.1,194.2,61.8c6.9,2.2,14.4,3.3,20.5,8.2
		c3,6.9,1.7,14.3,1.7,21.5c0.3,73.3,0.4,146.7,0.5,220c0,16,0.1,32,0.1,48c0,5.3-0.5,10.6-0.7,16.4c-3,1.7-5.7,3.6-8.6,4.8
		c-15,5.6-30,10.9-45.1,16.3c-3.2,1.1-6.2,2.5-7.7,6.7c27.1,10.9,55.7,17.6,81.9,27.7c4.4,5.7,3.1,11.3,3.2,16.4
		c0.1,43.3,0.1,86.7,0.1,130c0,7.3,0.2,14.6,0.3,20.8c5.2,7.3,12.1,10.2,19.7,14.7c31.3,1.4,63.9-0.3,97.1,0.9
		c1,2.8,2.3,5.1,2.6,7.5c0.5,4,0.3,8,0.3,12c0,60,0,120,0,180c0,5.3-0.5,10.5-0.8,16.5c-2.8,0.8-5.2,2-7.7,2.2
		c-5.3,0.4-10.7,0.3-16,0.3c-108.7,0-217.3-0.1-326,0.1c-12.9,0-24.8-2.3-36.8-7.2c-53.7-21.7-107.7-42.8-161.6-64.1
		c-5.5-2.2-11.5-3.5-16.2-8.8c-2.1-6.5-1.2-13.9-1.2-21.2c-0.3-52.7-0.4-105.3-0.7-158c0-7.3-0.3-14.6-0.5-20.9
		c-4.9-6.5-11.3-9-16.8-12.5c-5.6-3.6-11.4-6.8-17.7-10.5c-23,0-46.3,0-69.6,0.1c-1.9,0-3.7,1.1-6.4,1.9c-0.6,2.3-1.7,4.8-1.7,7.2
		c-0.2,20.7-0.3,41.3,0,62c0.1,3.7,2,7.4,2.8,10.2c6.1,3.4,11.5,2.8,16.8,2.8c21.3,0.1,42.7,0,64,0c6.6,0,13.3,0.1,18.6,0.2
		c4.5,3,4.8,6.3,4.9,9.7c0.1,2.7,0.1,5.3,0.1,8c0,61.3,0,122.7-0.1,184c0,4.6-0.5,9.2-0.7,14.5c-2.8,0.9-5.2,2.1-7.6,2.2
		c-8,0.3-16,0.3-24,0.3c-900,0-1800,0-2699.9,0c-8,0-16,0-24,0.2c-2.5,0.1-5,0.9-6.8,1.3c-4.6,5.4-3.3,10.9-3.4,16.1
		c-0.1,32.7,0,65.3-0.1,98c0,6.6,1,13.3-1.8,20.5c-2,0.6-4.5,1.9-7,2c-8,0.3-16,0.3-24,0.3c-541.3,0-1082.6,0-1624,0.1
		c-9.2,0-18.7-1.7-27.7,1.8c0-88,0-176,0-264c5,2.4,10.4,1.8,15.7,1.8c38,0,75.9,0.1,113.9,0c4.6,0,9.2-0.7,13.7-1
		c3.7-3.5,7.2-6.5,10.4-9.9c2.3-2.4,4.3-5.1,6.1-7.2c1.6-18.1,1.5-543.7-0.1-560.6c-4.9-6.3-10.7-12.6-18.8-18.3
		c-6.5-0.1-13.8-0.3-21-0.4c-40-0.2-79.9-0.3-119.9-0.5C66,233.3,66,146.7,66,60z M925.6,945c-4.6,6.7-3.5,12.2-3.5,17.4
		c-0.1,57.3-0.1,114.7,0,172c0,2.7-0.1,5.4,0.2,8c0.3,2.5,1.2,4.9,1.9,7.8c3.1,0.6,5.6,1.4,8.2,1.5c6,0.2,12,0.2,18,0.2
		c248.6,0,497.3,0,745.9,0c6,0,12,0.1,18-0.2c2.6-0.1,5.1-0.9,7.6-1.4c4.1-6.5,3-13.3,3-19.8c0.1-54.7,0.1-109.3,0-164
		c0-4,0.2-8-0.3-12c-0.4-3.1-1.7-6.1-2.9-10.1c-39.8-0.9-79,0.2-117.9-0.6c-12.5-11-23.8-22.2-34.4-34.2c-0.1-8.5-0.4-16.5-0.4-24.4
		c0-177.3,0-354.6,0-531.9c0-4-0.2-8,0.1-12c0.3-4.6,0.9-9.2,1.3-13.7c11.3-11,21.5-22.4,33.9-32.2c7.2-0.1,14.5-0.4,21.8-0.4
		c28-0.1,56,0,84-0.1c4.6,0,9.5,0.6,13.9-4.6c0.3-4.1,0.9-9.4,0.9-14.6c0.1-56.7,0-113.3,0-170c0-2.7,0.2-5.4-0.2-8
		c-0.5-3.1-1.7-6.1-2.5-8.9c-8.8-2.2-16.8-1.3-24.7-1.3c-249.3,0-498.6,0-747.9,0c-6,0-12,0-18,0.2c-2.6,0.1-5.4,0.2-7.1,2.5
		c-2.6,2.9-2.2,6.4-2.3,9.6c-1.7,53.3-0.7,176.2,1.6,191.7c4.4,4.2,9.9,3.4,15.1,3.4c26.7,0.1,53.3,0.1,80,0.2
		c5.9,0,12-0.8,18.4,2.7c10,10.4,21.5,20.6,30.2,32.1c0.4,1.7,0.7,2.3,0.7,3c0.1,47.3,0.3,94.6,0.3,142c0,2.5-1.1,5-1.8,7.7
		c-7.6,2.4-15,1.5-22.2,1.5c-88.7,0.1-177.3,0-266,0c-5.3,0-10.7,0.1-16-0.3c-2.5-0.2-4.9-1.3-7.9-2.2c-1.2-13.2-0.5-25.8-0.7-38.4
		c-0.1-12.7,0-25.3,0-38s-0.2-25.3,0-38c0.2-12.6-1-25.3,1.1-37.8c11.1-11.7,22.1-23.2,34.2-34c7-0.2,13.7-0.5,20.3-0.5
		c25.3-0.1,50.7,0,76-0.1c4.6,0,9.4,0.8,13.9-3.9c2.7-6.1,1.5-13.5,1.5-20.7c0.1-52.7,0.1-105.3,0.1-158c0-5.3,0.1-10.7-0.4-16
		c-0.2-2.5-1.5-4.9-2.2-7.1c-7.7-2.9-15.2-1.8-22.4-1.8c-251.3-0.1-502.6-0.1-753.9,0c-5.3,0-10.7-0.1-16,0.3
		c-2.5,0.2-4.8,1.4-6.9,2c-2.6,17.5-3.2,88.7-1.8,188.6c0.1,4.6,0.7,9.1,1.1,13c5.4,4.4,10.9,3.6,16.1,3.6c28.7,0.1,57.3,0,86,0.1
		c6.6,0,13.4-0.8,21.4,2.3c9.6,9.8,20.3,20.8,31.4,32.1c0,193.4,0,386.7,0,579.6c-10.9,12.7-22.1,24-34.1,35.1c-6.9,0-13.5,0-20.2,0
		c-28.7,0-57.3,0-86,0.1c-4.5,0-9.4-0.9-14.1,3.3c-2.8,5.4-1.5,12.2-1.5,18.7c-0.1,54.7-0.1,109.3-0.1,164c0,4,0.1,8,0.2,12
		c0.1,3.4,0.7,6.6,5.6,9.6c6.3,0.1,14.2,0.2,22.2,0.2c249.3,0,498.6,0,747.9,0c6,0,12,0.1,18-0.2c2.5-0.1,4.9-1.1,6.3-1.5
		c3.8-4.5,3.4-8.6,3.4-12.5c0.1-59.3,0.1-118.7,0-178c0-2.7,0-5.4-0.5-8c-0.3-1.9-1.4-3.6-2.1-5.2c-5.1-3.5-10.6-2.4-15.8-2.4
		c-24.7-0.1-49.3,0-74-0.1c-6.6,0-13.3-0.3-20.2-0.4c-11.8-11-23.3-22-33.9-33.7c-0.2-6.5-0.5-12.5-0.5-18.5c0-52,0-104,0-156
		c0-4.7,0-9.3,0.2-14c0.1-2.6,0.3-5.3,3.4-7.6c1.2-0.3,3.1-1.1,4.9-1.1c100,0,200,0.1,299.9,0.3c1.2,0,2.4,1,5.6,2.4
		c1.2,12,0.5,25.2,0.6,38.4c0.1,12.7,0,25.3,0,38c0,13.3,0,26.7,0,40c0,12.7,0.2,25.3,0,38c-0.2,13.3,1,26.6-1.1,40.1
		c-10.6,11.8-21.4,23.5-33.6,34.1c-18.4,0-36.3-0.2-54.3,0C961.6,944.3,943.6,943.1,925.6,945z M2473.5,424.3
		c-5.1-0.4-8.4-0.9-11.7-0.9c-36,0.1-72,0.2-108,0.5c-3.2,0-6.5,0.9-9.9,1.4c-4,5.6-7.9,11-11.7,16.5c-15.5,22.5-31,45-46.5,67.5
		c-2.6,3.8-5.7,7.2-8.3,10.4c-7.4,1.7-13.8,2.5-20.2-1.1c-0.6-2-1.6-3.9-1.6-5.8c-0.1-37.3,0-74.6,0.1-112c0-1.8,1.4-3.6,2-5
		c1.7-0.8,2.8-1.8,4-1.8c59.3-0.1,118.6-0.1,178.4-0.1c2.5,1.6,5.5,3.1,8.2,5.1c28.9,21.5,57.7,43,86.5,64.6c2.6,1.9,4.7,4.5,7.2,7
		c0,7,0,13.7,0,20.3c0,16.7,0,33.3,0.1,50c0,3.3-0.2,6.7,2.5,9.3c1.2,0.6,2.3,1.8,3.5,1.8c54,0.3,107.9,0.5,161.9,0.7
		c3.9,0,7.9-0.7,12.2-1.1c0.9-2.8,2.2-5.2,2.4-7.7c0.4-5.3,0.4-10.7,0.4-16c0-92,0-184,0-276c0-4.7,0.2-9.4-0.3-14
		c-0.3-3.1-1.7-6.1-2.6-9.3c-4.1-0.4-7.3-0.9-10.6-0.9c-313.9,0.1-627.9,0.2-941.8,0.4c-1.2,0-2.4,1-3.7,1.6
		c-4,5.2-2.8,11.4-2.8,17.3c-0.1,38.7-0.1,77.3-0.1,116c0,6.7-0.1,13.3,0.3,20c0.2,3.1,1.5,6.1,2.4,9.4c15.3,2.3,30,0.9,44.6,1.2
		c15.3,0.3,30.6,0.1,45,0.1c9.1,6.7,15.9,13.9,22.1,22c0,3.6,0,7,0,10.3c0,129.3,0,258.6,0,387.9c0,4.6-0.6,9.2-0.9,13.8
		c-6.9,6.8-13.5,13.3-20.2,20c-15.1,0-29.8-0.2-44.4,0.1c-15.2,0.3-30.6-1.5-45.2,1.2c-4.2,5.1-3.5,10.6-3.5,15.8
		c-0.1,44,0,88,0,132c0,3.3,0.1,6.7,0.6,10c0.3,1.8,1.5,3.5,2.4,5.3c8,2.6,16,1.5,24,1.5c307.3,0.1,614.6,0.1,921.9,0
		c6,0,12,0,18-0.3c2.5-0.1,4.9-1.1,7.9-1.7c2.3-8.4,1.5-16.3,1.5-24.2c0.1-98.7,0-197.3,0-296c0-5.3,0.1-10.7-0.2-16
		c-0.1-2.6-1-5.1-1.5-7c-5.4-4.1-10.9-3.1-16.1-3.1c-48.7-0.1-97.3-0.1-146,0c-2.7,0-5.3,0.1-8,0.2c-3.4,0.1-6.6,0.7-9.4,4.5
		c-2.2,22.9,0.4,46.9-1.6,71.5c-14.7,12.4-30.4,23.6-45.6,35.4c-15.8,12.2-31.7,24.4-47.7,36.4c-15.4,11.6-30.3,23.9-45.1,33.9
		c-35.7,1.4-144.1,1-159.5-0.6c-3.3-3-3.2-7.1-3.3-11.1c-0.1-16-0.1-32-0.1-48c0-30.7,0-61.3,0.1-92c0-3.9-0.7-8.1,2.8-11.5
		c5.4-2.9,11.2-2.2,17.6-0.4c5,4.1,8,10.1,11.6,15.7c16,24.6,31.8,49.3,47.8,73.9c2.8,4.4,6.3,8.4,9.6,12.8
		c9.8,0.2,19.1,0.5,28.4,0.6c29.3,0.4,58.7,0.7,88,0.9c4.5,0,9.5,0.8,13-4.3c2.1-6.7,1.1-14.1,1.1-21.4c0.1-104,0.1-208,0-312
		c0-5.3,0-10.7-0.2-16C2475.1,430.9,2474.3,428.4,2473.5,424.3z M4918.7,297.3c-5.8-6.3-13.4-6.9-20.3-9.1
		c-56.5-18.1-113.1-35.6-169.5-54c-14.2-4.6-28.2-6.9-43-6.9c-223.3,0.2-446.6,0.1-669.9,0.1c-34,0-68-0.1-102,0
		c-6.6,0-13.3-1-19.9,1.6c-4.1,5.2-3.1,11.4-3.1,17.2c-0.1,40-0.1,80,0,120c0,6-0.1,12,0.3,18c0.2,2.5,1.4,4.9,2.5,8.5
		c30.1,1.4,60-0.2,90.3,1c7.6,6.3,14.8,13.2,21.1,21.6c0,4.6,0,9.3,0,13.9c0,127.3,0,254.6,0,382c0,5.3-0.5,10.5-0.8,15.9
		c-6.8,6.8-13.4,13.4-20.4,20.4c-14.8,0-29.4-0.2-44,0.1c-15.3,0.3-30.6-1.3-45.5,1.1c-4.6,5.5-3.5,11.7-3.5,17.6
		c-0.1,38.7-0.1,77.3,0,116c0,7.3,0,14.7,0.3,22c0.1,2.5,1.4,5,2,7.3c8.3,3.2,16.4,1.9,24.3,1.9c182,0.1,364,0.1,545.9,0
		c6,0,12,0,18-0.3c2.5-0.1,4.9-1.3,7.6-2c1.9-7.2,1.4-13.8,1.4-20.4c0-35.3,0-70.7,0-106c0-9.3,0-18.7-0.3-28
		c-0.1-2.5-1.1-4.9-1.8-7.7c-9.8-2.6-19.1-1.3-28.3-1.5c-9.3-0.2-18.7,0.1-28-0.1c-9.3-0.2-18.6,0.8-28.1-0.9
		c-7.3-6.6-15-12.9-20.6-21.8c0.1-35.9-0.9-71.9,0.5-107.9c0-1.2,1.2-2.3,2.1-3.7c1.6-0.5,3.4-1.4,5.3-1.6c14.1-1.1,94-0.4,107.2,1
		c15.8,10.1,33.6,19.1,49.9,31.5c0.2,6.8,0.6,13.4,0.6,20c0.2,54,0.3,108,0.6,162c0,5.9-1.2,12,2.9,18.8c5,2.2,11.1,4.9,17.2,7.3
		c45.8,18.2,91.8,36,137.5,54.5c12,4.9,24,6.9,36.9,6.9c98-0.2,196-0.1,294-0.1c5.3,0,10.7,0.1,16-0.3c2.5-0.2,4.9-1.2,7.5-1.9
		c2.1-7.1,1.6-13.8,1.6-20.3c0.1-35.3,0-70.7,0-106c0-9.3,0-18.7-0.2-28c-0.1-2.6-0.1-5.4-2.7-7.4c-0.3-0.3-0.8-1.1-1.3-1.1
		c-25.3-0.5-50.6-1-76.4-1.5c-12.9-7.5-26.2-15.1-37.8-24.5c-2.4-7.7-1.4-15.1-1.5-22.4c-0.1-42-0.1-84-0.2-126
		c0-5.2,1.1-10.7-3.5-16.5c-5-1.8-11.2-4.1-17.5-6.1c-36.7-11.9-73.5-23.8-110.3-35.6c-3.7-1.2-7.7-1.8-10-6.5
		c4.4-1.7,8.6-3.5,13-5.1c30.1-10.8,60.2-21.6,90.2-32.5c4.9-1.8,10.4-2.6,14.2-7.7c0.4-1.5,1.3-3.4,1.3-5.3
		c-0.3-84.7-0.6-169.3-1-254C4919.7,302.1,4919,299.5,4918.7,297.3z M1595.4,339.9c-1.5,23.9-1.2,542.8,0.2,558.4
		c4.5,7.1,11,12.7,17,17.8c13.7,1.9,89.3,3,114.6,1.6c2.6-0.1,5.1-1.1,8-1.8c0.7-2.8,1.8-5.2,2-7.8c0.3-6,0.2-12,0.3-18
		c0.1-20,0.1-40,0.2-60c0-3.4,0.7-6.6,5.7-9.3c5,0,11.6,0,18.3,0c24,0,48,0.1,72-0.1c4.5,0,9-1,13.9-1.6c1.2-3,2.7-5.3,2.9-7.8
		c0.5-6.6,0.4-13.3,0.4-20c0-88.6,0-177.3,0-265.9c0-28,0-56,0-84c0-5.9,0.9-12-2.4-18.5c-1.7-0.8-4-2.6-6.4-2.8
		c-6-0.6-12-0.5-18-0.5c-24.7-0.1-49.3,0-74-0.1c-3.9,0-8.1,0.6-11.3-3.2c-2.2-6.2-1.3-12.9-1.4-19.5c-0.1-21.3-0.1-42.6-0.1-64
		c0-4,0-8.1-5.7-12.4c-17.9-0.3-37.8-0.3-57.7-0.1c-19.9,0.2-39.9-1.2-60.2,1.1C1607.7,327.7,1601.6,333.8,1595.4,339.9z
		 M3811.9,846.4c-3-6.2-5.4-10.9-7.6-15.7c-77.6-173.2-155.2-346.5-233-519.6c-4.5-10-6.6-20.1-6.3-30.9c0.3-13.3,0.2-26.7-0.2-40
		c-0.1-3.8-1.5-7.5-2.3-11c-8.7-2.8-16.7-1.7-24.7-1.7c-128-0.1-255.9-0.1-383.9,0c-6,0-12,0-18,0.2c-3.4,0.1-6.6,0.6-9.6,5.4
		c-1.1,20.3,0.4,42.3-0.9,63.8c-3.5,7.1-6.6,13.7-9.9,20.2c-60.1,120.4-120.1,240.8-180.2,361.2c-25.6,51.3-51.1,102.5-76.7,153.8
		c-2.6,5.3-4.2,11.3-11.3,15.5c-5.2,0-11.9,0-18.5,0c-13.3,0-26.7,0-40,0.1c-3.3,0-6.7,0.1-10,4.5c-1.5,5-0.9,11.7-0.9,18.2
		c-0.1,38.7,0,77.3,0,116c0,6-0.1,12,0.3,18c0.1,2.5,1.3,4.9,1.9,7c7.8,3.4,15.2,2.1,22.4,2.1c125.3,0.1,250.6,0.1,375.9,0.1
		c4.7,0,9.3,0,14-0.2c3.3-0.1,6.7-0.4,9.6-5.1c0.1-5.2,0.4-11.8,0.4-18.4c0.1-30.7,0-61.3,0-92c0-13.3,0-26.7-0.1-40
		c0-3.3-0.3-6.7-4.3-9.5c-16.9-1.9-34.9-0.4-52.8-0.9c-17.9-0.4-35.9,0.9-53.7-0.8c-5.4-5.5-9.8-11.2-12.1-18.4
		c5-11.1,8.2-22.7,15.8-32c7.7-1.8,15.1-1.2,22.4-1.2c72,0,143.9,0,215.9,0c9.3,0,18.7-0.1,28,0.1c3.9,0.1,7.7,1.1,11.2,1.7
		c5.9,10.6,9.8,21.2,12.9,31.7c-3.2,7.3-6.8,13.5-13.8,18.8c-11.2,0-23.2,0-35.1,0c-23.3,0.1-46.6,0.1-70,0.3
		c-3.9,0-8.1-0.4-11.8,4.5c-0.3,4-0.8,9.2-0.9,14.5c-0.1,21.3-0.1,42.7,0,64c0,23.3,0,46.6,0.1,70c0,4-0.2,8.1,3.4,11.4
		c7.5,2.6,15.5,1.4,23.4,1.4c191.3,0.1,382.5,0.1,573.8,0c6,0,12-0.1,18-0.2c3.4-0.1,6.7-0.5,9.4-5.2c0.1-5.2,0.4-11.8,0.4-18.5
		c0-36,0-72,0-108c0-8-0.1-16-0.1-24c0-3.4-0.5-6.7-4.4-9.2C3857,846.1,3835,848.6,3811.9,846.4z M781.5,899.8
		c5.7,6.5,11,12.5,18.2,17.2c3,0.3,6.3,0.8,9.6,0.8c68,0,135.9,0.1,203.9,0c3.9,0,7.8-0.9,14-1.7c2.5-3,6-7.1,9.4-11.2
		c1.7-2,3.3-4.2,5.4-6.9c0.1-6.1,0.4-12.8,0.4-19.4c0-21.3,0-42.6,0-64c0-20.7,0-41.3-0.1-62c0-3.9,0.7-8.1-3.7-12.4
		c-5.8-2-13.1-1.1-20.3-1.1c-71.3-0.1-142.6,0-213.9,0c-4.7,0-9.4-0.2-14,0.2c-3.1,0.3-6.1,1.6-8.8,2.4
		C779.7,758.7,779.6,881.2,781.5,899.8z M1023.5,321.4c-4.5-0.4-6.5-0.8-8.5-0.8c-68.6,0-137.2-0.1-205.8,0c-3.3,0-6.5,0.8-10.1,1.3
		c-6.1,6.1-12.2,12.2-17.2,17.2c-0.8,3-1.4,4.3-1.4,5.6c0,35.3-0.1,70.6,0.1,105.8c0,1.8,1.4,3.5,2.4,5.9c7.1,2.1,14.4,1.4,21.6,1.4
		c71.3,0,142.5,0,213.8,0c4.7,0,9.3,0,14-0.2c3.3-0.1,6.6-0.6,9.6-5.5c0.9-16.9,0.4-35.5,0.3-54c-0.1-19.2,1-38.5-0.9-58.3
		C1035.4,333.7,1029.5,327.5,1023.5,321.4z M2329.9,811.8c-4.5-6.6-8.3-12-11.9-17.5c-9.5-14.5-18.8-29-28.3-43.5
		c-1.5-2.2-3.3-4.2-7.3-2.9c-1.5,21.5-0.6,43.3-0.4,65.2c0,1.8,1.1,3.7,1.8,5.7c2,0.7,3.8,1.7,5.6,1.9c12,1,108.3,0.3,119.9-0.7
		c1.3-1.7,4.4-2.9,0.6-7.1c-12.1-0.8-25.4-0.4-38.6-0.6C2358,812,2344.7,811.9,2329.9,811.8z M2282.9,421.3
		c-1.7,14.3-1.5,26.6-0.4,38.7c1.5,0.2,2.3,0.6,2.8,0.4c6.4-2.9,8.8-9.5,12.3-14.8c4.9-7.5,12-13.9,14.1-24
		C2301.9,418.5,2293.2,419.6,2282.9,421.3z"/>
	<path class="st0" d="M1334,2856c0.3-7.3,0.9-14.6,0.9-21.9c0.1-70.7,0-141.3,0.1-212c0-7.3-0.9-14.6,1-21.4
		c2.5-3.5,5.9-3.7,9.2-3.7c10-0.1,20-0.1,30-0.1c25.3,0,50.7,0,76,0c6.6,0,13.3,0,20,0c7.7-5.1,13.5-11.3,18.6-18.2
		c0.4-2.2,1-4.1,1-6.1c0.1-182,0.1-364,0.1-545.9c0-2.6-0.5-5.3-0.9-8.7c-5.2-5.4-10.7-11.1-16.7-17.3c-5.1-0.3-10.4-0.9-15.6-1
		c-33.3-0.1-66.7,0-100-0.1c-6.6,0-13.3,0.9-20.6-1.7c-0.6-2-1.7-4.4-1.9-6.9c-0.4-4.6-0.2-9.3-0.2-14c0-71.3,0-142.7,0-214
		c0-6.6,0.4-13.1,0.6-18.3c2.7-3.9,5.3-4.3,7.9-4.4c6-0.1,12-0.2,18-0.2c274.6,0,549.3,0,823.9,0c7.9,0,16-1,23.6,1.2
		c3.5,4.1,3,8.9,3.1,13.5c0.1,14.7,0,29.3,0,44c0,20-0.1,40,0,60c0,5.9,0.5,11.9,0.7,18.5c3.7,1,6.8,2.3,9.9,2.5
		c7.3,0.4,14.7,0.2,22,0.2c250,0,500,0.1,749.9-0.1c14.9,0,28.9,2.2,43,6.8c64,20.8,128.2,40.9,192.3,61.2c6.3,2,12.7,3.7,18.4,6.5
		c0.9,2.5,1.9,4.3,2.1,6.2c0.4,4,0.4,8,0.4,12c0.4,90.7,0.8,181.3,1.2,272c0,5.9-0.4,11.9-0.6,18.3c-12.5,7.4-25.9,10.4-39,13.8
		c-6.1-7.9-6.1-7.9-8.9-22.7c3.4-1.5,7-3.2,10.6-4.7c3-1.3,6.1-2.5,9.8-3.9c0.6-3.3,1.3-6.4,1.8-9.6c0.2-1.3,0.1-2.7,0.1-4
		c-0.1-81.3-0.3-162.7-0.5-244c0-3.9-0.6-7.8-0.9-11.1c-5.2-6.3-12.2-6.8-18.4-8.8c-38-12.3-76.2-24.3-114.2-36.4
		c-19.7-6.3-39.4-12.3-59-18.9c-12.8-4.3-25.6-6.3-39.2-6.2c-52.7,0.4-105.3,0.1-158,0.1c-203.3,0-406.6-0.1-609.9,0
		c-8.6,0-17.2-0.7-26.5,1.2c-0.8,2.5-1.9,4.8-2.4,7.3c-0.4,2.6-0.3,5.3-0.3,8c0,44.7,0,89.3,0,134c0,4,0.6,7.9,0.9,12.7
		c3.1,0.9,6.1,2.5,9.2,2.5c20,0.3,40,0.2,60,0.3c7.3,0,14.6,0,22.1,0c3.7,3.3,7.3,6.3,10.6,9.5c3.3,3.3,6.3,6.8,8.8,9.6
		c0.6,1.6,0.8,2.2,1,2.8c0.2,0.6,0.4,1.3,0.4,2c0.1,2.7,0.3,5.3,0.3,8c0,131.3,0,262.6-0.1,394c0,2-0.4,4-0.7,7.2
		c-5.3,7.4-12.7,13.9-20.5,20.9c-10,0-19.9,0.1-29.9,0.1c-10,0-20-0.2-30,0.1c-9.8,0.2-19.8-1.1-30.2,1.5c-0.7,2.9-1.7,5.4-1.8,7.9
		c-0.3,9.3-0.3,18.7-0.3,28c0,35.3,0,70.7,0,106c0,6.6-0.7,13.3,1.7,20.4c2.4,0.7,4.9,1.8,7.4,1.9c5.3,0.3,10.7,0.3,16,0.3
		c182.6,0,365.3,0,547.9,0c7.3,0,14.6-0.2,20.2-0.3c4.9-3,5.3-6.3,5.4-9.7c0.1-4.7,0.2-9.3,0.2-14c0-40,0-80,0-120
		c0-6.5,0.6-13.2-1.2-18.7c-2.2-1.3-3.3-2.1-4.5-2.5c-1.2-0.4-2.6-0.6-3.9-0.6c-24.7,0-49.3,0-73.1,0c-10-5.5-16.2-13.3-22.2-20.3
		c-1.7-15-2.5-75-1.3-104.7c0.1-3.3,0.9-6.5,1.3-9.3c1.7-1.1,2.8-2.2,4-2.4c8.6-1.2,89.7-1,107.5,0.2c15.8,9.6,32.9,20,49.3,29.9
		c3.9,7.1,2.6,13.9,2.6,20.4c0.3,53.3,0.4,106.7,0.7,160c0,7.2-1.3,14.7,2.4,22.3c3.8,1.8,7.8,4,12.1,5.7
		c49.5,19.7,99.1,39.2,148.6,59c8.8,3.5,17.7,5.1,27.2,5c102-0.2,204-0.1,306-0.1c4.6,0,9.2-0.4,12.6-0.5c4.5-2.6,5.2-5.9,5.2-9.2
		c0.1-48.7,0.1-97.3,0-146c0-2.5-1-5.1-1.7-8.3c-3.4-0.6-6.6-1.7-9.7-1.7c-15.3-0.2-30.7-0.1-46-0.2c-7.3,0-14.6,0-22.4,0
		c-6.7-4.1-13.6-8.2-20.3-12.5c-6.1-3.9-12-8.1-18.5-12.5c-0.2-6.9-0.6-13.5-0.7-20.2c-0.2-41.3-0.3-82.7-0.6-124
		c0-6.6,0.8-13.3-2.6-20.3c-22.5-9.1-46.3-15.3-69.6-23.2c-22.7-7.7-45.8-13.9-69.2-23c1.5-1.9,2.3-3.8,3.6-4.3
		c22.4-8.4,71-24.6,92.6-32.5c7.5,2.5,3.4,6.6,6.8,10.4c2.8,1.9-0.7,10.4,2.1,12.3c-1.5,2.7-20.3,9.5-22.1,12.7
		c13.5,6.9,27.8,9.8,41.4,14.6c13.2,4.6,26.6,8.7,39.1,12.8c4.6,6.1,3.3,12.3,3.3,18.2c0.2,42.7,0.3,85.3,0.5,128
		c0,7.3,0.3,14.6,0.4,21.3c5,7.9,12.7,10.8,20.5,15.5c22.9,0.5,46.7,0.6,70.9-0.2c1.1-3.5,2.4-5.9,2.6-8.4c0.4-6.6,0.3-13.3,0.3-20
		c0.1-141.3,0.2-282.6,0.4-424c0-7.9-0.6-15.9,0.7-22.4c1.2-1.9,1.4-2.6,1.9-3c0.5-0.5,1.1-0.8,1.7-1.1
		c92.8-46.8,185.6-93.6,278.4-140.4c5.3-2.7,10.8-5.2,16.1-7.9c185.5,0,370.8,0,557,0c12.7,5.5,26.1,11.3,39.5,17.3
		c57.9,25.6,115.7,51.3,173.7,76.7c5.3,2.3,10.3,6.5,17.4,5c0.7-1.4,2.1-3,2.1-4.7c0.4-6.6,0.4-13.3,0.5-20c0-60.7,0-121.3,0-182
		c0-7.2-0.6-14.5,0.7-20.2c2.7-3.8,5.4-4.1,8-4.2c6-0.1,12-0.2,18-0.2c239.3,0,478.6,0,717.9,0c7.9,0,15.9-0.6,22.4,0.7
		c4.4,3.2,4.3,6.6,4.3,9.9c0.1,20.7,0.1,41.3,0.1,62c0,7.3,0.2,14.6,0.3,22.2c4.3,4.6,8.3,9.1,12.4,13.3
		c141.7,143.4,346.9,347.6,359.9,358.2c3.4-0.2,4.2-2.5,4.5-5.3c0.2-2.7,0.3-5.3,0.3-8c0-54,0-108,0-162c0-4-0.6-7.9-1-12.6
		c-5.8-5.9-11.9-12-18.2-18.3c-6.9-0.1-13.5-0.4-20.1-0.4c-39.3,0-78.7,0-118-0.1c-5.8,0-11.9,1.1-18.2-2.3
		c-0.4-2.4-1.1-4.9-1.2-7.4c-0.2-7.3-0.2-14.7-0.2-22c0-67.3,0-134.7,0-202c0-7.3,0.1-14.6,0.2-20.5c2.8-4.7,6.1-5,9.4-5.1
		c6-0.1,12-0.1,18-0.1c189.3,0,378.6,0,567.9,0c8,0,16,0,22.3,0c4.9,2.8,5.4,6.1,5.5,9.5c0.1,3.3,0.2,6.7,0.2,10
		c0,73.3,0,146.7,0,220c0,5.9,1.1,11.9-1.7,17.3c-4.2,3.9-9.1,2.7-13.6,2.7c-33.3,0.1-66.7,0.1-100,0.1c-6.6,0-13.3,0-19.1,0
		c-8.5,6.2-15.2,12.6-20.6,20.2c-1.6,8.8-0.9,17.5-0.9,26.1c0,261.3,0,522.6,0,783.9c0,8.6-0.3,17.3-0.4,25.9
		c-170.7,0-341.3,0-512,0c0.6-2.6,1.7-5.1,1.7-7.7c0.1-24,0-48-0.1-71.9c0-1.9-0.8-3.9-1.4-6.8c-5-5.2-10.5-10.9-16.1-16.6
		c-148-147.7-296.1-295.5-444.1-443.2c-3.8-3.8-7.6-7.5-11.5-11.1c-2.1-1.9-4.6-2.3-6.9,0c-1.4,16.6-1.5,234.5,0,251.5
		c12.5,19.8,25,36.1,35.8,46.4c6.5,0.1,13.8,0.2,21.1,0.2c44,0,87.9,0,131.9,0.1c5.2,0,10.7-1.2,15.9,2.2c0.6,1.5,1.7,3.3,1.8,5.1
		c0.3,6,0.4,12,0.4,18c0,71.3,0,142.5,0,213.8c0,6.7-0.3,13.3-0.4,20c-218.7,0-437.3,0-656,0c0.3-6,0.9-11.9,0.9-17.9
		c0.1-68.6,0-137.3,0-205.9c0-4.7,0-9.3-0.4-14c-0.1-1.7-1.3-3.4-2.3-5.6c-7.2,0.6-12.7,4.5-18.5,7.5
		c-64.3,32.3-128.5,64.7-192.8,97.1c-6.5,3.3-13.1,6.5-19.4,9.6c-185,0-369.6,0-553.7,0c-7.2-3.1-14-6-20.7-8.9
		c-75.6-33.3-151.2-66.6-226.7-99.8c-6.7-3-13.4-6-20.2-8.7c-2.3-0.9-5-0.6-8-1c-0.7,3.4-1.5,5.9-1.6,8.4c-0.2,7.3-0.2,14.7-0.2,22
		c0,22.7,0,45.3-0.1,68c0,3.9,0.6,8.1-4.6,11.7c-4,0.2-9.2,0.6-14.5,0.6c-111.3,0-222.6-0.1-333.9,0.1c-10.2,0-19.7-1.8-29.1-5.6
		c-56.3-22.4-112.7-44.6-169-66.9c-4.2-1.7-9-2.6-12.4-6.9c-2.9-5.9-1.7-12.6-1.8-19.2c-0.6-54.6-1-109.3-1.5-163.9
		c-0.1-6.6,1-13.4-2-20.2c-10.1-8-21.6-14.6-33.2-20.5c-23.1,0-45.8,0-68.4,0c-2.6,0-5.4,0.2-7.2,2.8c-2.6,3.4-2.1,7.5-2.2,11.4
		c-0.1,17.3-0.1,34.7,0,52c0,2.7,0.1,5.3,0.4,8c0.5,4.3,2.5,7.5,8.3,9.8c5,0.1,11.6,0.3,18.2,0.3c23.3,0.1,46.6,0,70,0.1
		c3.3,0,6.7,0,9.7,4.2c0.2,4.8,0.5,10.7,0.6,16.6c0,58.6,0,117.3,0,175.9c0,4.7,0.1,9.4-0.3,14c-0.2,2.4-1.6,4.7-2.7,7.7
		c-8.5,0.1-16.5,0.2-24.4,0.2c-183.9,0-367.9,0-551.8,0c-7.3,0-14.7-0.1-22,0.3c-2.4,0.1-4.8,1.6-7.2,2.4c-0.4,3.3-1.1,5.9-1.1,8.5
		c-0.1,38.7-0.1,77.3,0,116c0,3.2,1.1,6.5,1.8,9.7C1920.7,2856,1627.3,2856,1334,2856z M4487.1,2828.2c2.1,0.7,4.5,2.1,7,2.3
		c6.6,0.4,13.3,0.4,20,0.4c182,0,363.9,0,545.9,0c6,0,12,0,18-0.1c3.3-0.1,6.7-0.5,9.3-3.7c2.8-5.9,1.7-12.7,1.7-19.2
		c0.1-54,0.1-108,0-162c0-4,0.2-8-0.3-12c-0.4-3.1-1.6-6.1-2.4-9c-7.4-2.2-14.1-1.4-20.7-1.5c-40-0.1-80,0-120-0.1
		c-5.9,0-11.9-0.4-17.1-0.6c-13.6-16.1-38.7-50.4-47.6-65.1c0-4.5,0-10.4,0-16.4c0-96,0-192,0-287.9c0-4.7,0.1-9.3,0.3-14
		c0.1-2.8,0.9-5.2,4.4-5.3c1.1,0.7,2.3,1.3,3.3,2.2c2.9,2.7,5.8,5.5,8.6,8.3c171.2,170.9,342.5,341.8,513.7,512.8
		c0.5,0.5,0.8,1.1,1.1,1.6c0.3,0.6,0.6,1.2,1.1,2.3c2.3,21.8-1.4,44.5,2.2,67.2c3.2,0.8,5.7,1.9,8.2,2c6,0.3,12,0.3,18,0.3
		c134.6,0,269.3,0,403.9,0c6,0,12,0,18-0.4c2.5-0.2,4.9-1.5,7.2-2.2c3.3-9.1,2-17.8,2-26.4c0.1-253.9,0.1-507.9,0.1-761.8
		c0-6.7-0.2-13.3,0.1-20c0.2-4.6,0.9-9.2,1.3-13.4c11.2-11.4,21.5-22.8,33.2-32.4c8.9-1.8,17.6-1,26.2-1c27.3-0.1,54.7,0,82-0.1
		c3.9,0,8,0.5,12.1-4.2c0.3-2.6,1-6.5,1-10.3c0.1-58.7,0.1-117.3,0.1-176c0-2-0.1-4-0.2-6c-0.2-3.3-0.6-6.6-5-9.3
		c-6.6-1.4-14.7-0.7-22.6-0.7c-172,0-343.9,0-515.9,0c-6,0-12,0.1-18,0.2c-3.4,0.1-6.7,0.5-9.2,4.7c-0.2,3.6-0.6,8.2-0.6,12.8
		c0,56.7,0,113.3,0,170c0,3.3-0.1,6.7,0.3,10c0.3,2.5,1.3,4.9,2,7.3c7.1,2.3,13.8,1.6,20.4,1.7c34,0.1,68,0,102,0.1
		c5.9,0,11.9,0.4,17.3,0.6c12.6,11.4,23.7,22.8,33.7,34.6c1.5,19.6,1.4,247-0.2,262.3c-4.1,1.3-6-1.9-8.2-4.1
		c-17.5-17.4-34.9-34.9-52.3-52.3c-117.4-117.4-234.7-234.7-352-352.1c-5.1-5.1-11.2-9.5-15.1-17.8c-0.1-11.3,0.2-23.9-0.3-36.6
		c-0.5-13.1,2.2-26.5-2.5-40.1c-8-2.1-16-1.3-23.9-1.3c-221.9,0-443.9,0-665.8,0c-6,0-12,0.1-18,0.2c-2.6,0.1-5.4,0.2-8.4,4.4
		c-1.7,4.5-0.8,11.2-0.8,17.8c-0.1,52.7,0,105.3,0,158c0,6-0.1,12,0.3,18c0.2,2.4,1.6,4.8,2.3,6.7c7.4,2.3,14.1,1.5,20.7,1.6
		c28,0.1,56,0,84,0.1c4.6,0,9.2,0.5,13.6,0.8c12.7,11.6,24.8,22.9,35.8,36.3c0,7.2,0,14.5,0,21.8c0,58,0,116,0,174
		c0,110.6,0,221.3-0.1,331.9c0,7.9,1.1,16-1.7,24.2c-15,19.8-29.2,40.7-45.6,60.5c-6.8,0.2-13.5,0.5-20.1,0.6
		c-25.3,0.1-50.7,0-76,0.1c-3.9,0-8.1-0.6-12.2,3.9c-1,2.5-1,6.5-1.1,10.4C4483.8,2712.9,4484.6,2810.5,4487.1,2828.2z
		 M1363.4,2624.5c-2.8,19.6-3.6,108.3-1.9,191.8c0.1,3.9,0.8,7.8,1.3,12c3,0.9,5.4,2,8,2.2c6,0.4,12,0.3,18,0.3
		c256.7,0,513.3,0,770,0c6,0,12,0,18-0.4c2.5-0.2,5-1.4,7-2c3.4-7,2.2-13.7,2.2-20.3c0.1-54,0.1-108,0-162c0-4.7,0.1-9.4-0.3-14
		c-0.2-2.5-1.5-4.9-2.5-8.2c-13.6-1-26.9-0.5-40.1-0.6c-13.3-0.1-26.7,0-40,0c-13.3,0-26.6-0.1-39.4-0.1
		c-12.7-11.2-23.8-22.6-34.3-35.1c-0.1-8.1-0.3-16.1-0.3-24.1c0-176.7,0-353.3,0-530c0-4.7-0.2-9.3,0.1-14c0.3-4.6,1-9.1,1.5-13.7
		c11.6-10.7,20.8-23,34.1-33.1c6.5,0,13.8,0,21.1,0c28.7,0,57.3,0,86-0.2c4.5,0,9.5,0.8,13.5-4.9c0.2-4.8,0.7-10.7,0.7-16.6
		c0.1-54.7,0-109.3,0-164c0-4,0.1-8-0.3-12c-0.3-2.5-1.4-4.9-2.1-7.4c-7.7-2.6-15.1-1.7-22.3-1.7c-258.7,0-517.3,0-776,0
		c-4.7,0-9.3,0.1-14,0.2c-3.4,0.1-6.7,0.5-9.3,4.8c-0.2,4.2-0.6,9.5-0.6,14.8c0,55.3,0,110.7,0,166c0,4-0.1,8,0.3,12
		c0.2,2.5,1.3,4.9,1.9,6.9c7.2,3.1,14,2,20.5,2c28,0.1,56,0,84,0.1c5.3,0,10.5,0.6,15.4,0.9c12.1,11.6,23.7,22.5,33.9,35.6
		c0,3.2,0,6.5,0,9.8c-0.1,188.7-0.2,377.3-0.4,566c0,0.7-0.2,1.3-0.4,1.9c-0.2,0.6-0.4,1.3-1.1,3.2c-5.6,5.8-12,12.6-18.6,19.2
		c-4.2,4.3-8.5,8.4-13.4,13.2c-19.6,0.5-39.6,0-59.5,0.3C1404.2,2623.7,1384.3,2622.4,1363.4,2624.5z M2071.9,2595
		c2.2,0.8,2.9,1.2,3.5,1.2c29.3,0.1,58.6,0.3,87.8,0.2c1.8,0,3.5-1.4,5.7-2.4c1.8-5.8,1.3-11.8,1.3-17.7c0.1-22,0.1-43.9,0.1-65.9
		c0-3.3,0.1-6.7,4.3-9.7c4.8-0.2,10.7-0.5,16.7-0.5c23.3-0.1,46.6,0,69.9-0.1c5.9,0,12,1,18.9-2.4c0.9-2,2.9-4.8,3.3-7.9
		c0.7-5.2,0.5-10.6,0.5-15.9c0-116.5,0-233.1,0-349.6c0-5.3,0.2-10.7-0.5-15.9c-0.4-3-2.6-5.7-4.3-9c-7.2-0.1-13.8-0.3-20.4-0.4
		c-25.3-0.1-50.6,0-75.9-0.1c-3.9,0-8.1,0.5-12-4.2c-0.1-5.4-0.4-12-0.4-18.6c-0.1-21.3,0-42.6-0.1-63.9c0-3.9,0.4-8.1-4.2-11.6
		c-9.6-1.8-20.3-0.7-30.8-0.9c-10-0.2-20-0.2-30,0c-10.6,0.2-21.2-0.9-31.7,1c-3.7,3.5-7.2,6.6-10.3,10c-3.1,3.4-5.8,7.2-8,10
		c-1.6,30.6-1,541,0.6,557.2C2059.9,2584,2065.7,2589.5,2071.9,2595z M3396.2,2574.4c5,6.1,11.1,7.4,16.5,9.8
		c82.3,36.3,164.6,72.3,246.8,108.9c11.9,5.3,23.6,7.7,36.6,7.7c167.9-0.2,335.9-0.2,503.8-0.2c6.6,0,13.3,0,20,0
		c91.2-46.1,182.2-92,273.1-138c1.7-0.9,3.1-2.4,4.7-3.7c2.7-7.8,1.6-15.9,1.6-23.8c0.1-162.6,0.1-325.2,0.1-487.8
		c0-4.7,0.2-9.3-0.1-14c-0.3-3.9-1.2-7.7-1.9-11.4c-4.8-2.3-8.9-4.5-13.2-6.4c-83.4-37-166.9-73.8-250.3-111
		c-10.1-4.5-20.2-5.9-31-5.9c-170.6,0.1-341.2,0.1-511.8,0.2c-6,0-11.9,0.4-17.5,0.5c-24.4,12.2-48.2,24.2-72,36.2
		c-61.9,31.1-123.8,62.2-185.7,93.4c-6.4,3.2-13.7,5.4-19,11.9c-0.3,4.1-0.8,8.7-0.9,13.3C3394,2202.8,3394,2550.7,3396.2,2574.4z
		 M4580.8,2596.7c7.8-7.6,12.9-15.5,18.4-23c5.5-7.5,11.6-14.6,15.6-22.3c1.3-16.5,2.2-480.4,1-522c-0.1-3.3-0.7-6.6-1.1-10.4
		c-6.4-6.4-12.1-13.7-19.2-18.3c-30.7-2.1-57.7-1.5-70.5,1.2c0,1.2-0.1,2.4,0,3.7c0.1,2,0.4,4,0.6,6c0.1,1.3,0.1,2.7,0.1,4
		c0,179.8,0,359.6,0,539.4c0,3.3,0,6.7,0,10c0,2-0.1,4-0.2,6c0,0.7-0.3,1.3-0.4,1.9c-0.2,0.6-0.4,1.2-1,3c-4.4,2.4-9.6,5.4-14.9,8.1
		c-11.3,5.9-11.4,5.9-15.8,12.9C4522.8,2596.9,4551.3,2597.1,4580.8,2596.7z"/>
	<path class="st0" d="M7254,1000c-7.1,3.7-14.1,7.6-21.2,11.2c-112,56-224.1,112.1-336.1,168.1c-5.9,3-12,5.8-19.1,9.2
		c-5.7,0-12.3,0-19,0c-173.3,0-346.7-0.1-520,0.1c-12.2,0-23.7-1.5-35.1-6.1c-15.4-6.2-31.2-11.6-46.9-17.3c-3.7-1.4-7.5-3-12.1-0.8
		c-1.1,3.3-2.4,7-3.6,10.7c-1.1,0.8-2.1,2-3.2,2.1c-3.9,0.5-7.9,0.9-11.9,0.9c-78.7,0.1-157.3,0.1-236,0c-5.2,0-10.7,1.1-16.3-3.1
		c-0.4-1.7-1.3-4.2-1.5-6.7c-0.3-4.6-0.2-9.3-0.2-14c0-143.3,0-286.7,0-430c0-5.3-0.1-10.7,0.3-16c0.2-2.5,1.4-4.9,2.2-7.6
		c13.7-2.5,27-1,40.3-1.2c12.7-0.2,25.3,0.1,38,0c13.3,0,26.6,0.3,41-0.2c-1.5-2.7-1.9-4.9-3.3-5.8c-3.9-2.5-8.2-4.5-12.3-6.5
		c-29.2-14.6-58.5-29.1-87.6-43.7c-5.9-3-12.3-5.1-17.4-10.6c-0.7-6.9-1.5-14-2.2-21.7c-3-0.9-5.4-2.1-7.9-2.3c-6-0.4-12-0.3-18-0.3
		c-58,0-116,0-174-0.1c-7.3,0-14.6,0.8-21.6-1.1c-4-3-3.6-7.2-3.6-11.1c-0.1-24-0.1-48-0.1-72c0-7.3,0-14.6,0-20.9
		c-9.6-13.5-44-48-57.3-57.7c-1,1.5-2.6,2.9-2.7,4.5c-0.4,5.3-0.4,10.6-0.4,16c0,110,0,220,0,330c0,6.6-0.9,13.3,1.8,20.7
		c1.6,0.9,3.7,3.1,6,3.4c5.3,0.7,10.6,0.6,16,0.6c34.7,0,69.3,0,104,0.1c6.6,0,13.3-0.9,20.6,1.5c0.7,2,2.1,4.4,2.3,6.9
		c0.4,5.3,0.4,10.7,0.4,16c0,56.7,0.1,113.3,0,170c0,7.2,1,14.6-1.9,22.5c-2.4,0.6-4.8,1.5-7.3,1.6c-6,0.3-12,0.2-18,0.2
		c-226.7,0-453.3,0-680,0c-7.9,0-15.9,0.8-24.5-1.2c-0.7-2.5-1.4-5-2-7.4c-0.3-1.3-0.2-2.7-0.2-4c0-64.7,0-129.3,0-194
		c0-3.2,0.7-6.4,0.9-8.7c4.8-4.6,9.7-3.4,14.2-3.4c36.7-0.1,73.3,0,110-0.1c6.6,0,13.2-0.3,18.1-0.4c5.8-2.6,8.1-5.7,8.3-10
		c0.3-5.3,0.4-10.7,0.4-16c0-110,0-220,0-330c0-6-0.3-11.9-0.5-17.2c-3-3.1-5.5-2.1-7.5-0.3c-17.8,17.1-35.3,34.4-52.4,52.5
		c-0.3,4.7-0.8,9.3-0.8,13.9c-0.1,25.3,0,50.7-0.1,76c0,5.2-0.4,10.5-0.6,14.2c-2.6,4-5.2,4.4-7.9,4.5c-2,0.1-4,0.2-6,0.2
		c-70.7,0-141.3,0-212,0c-4.5,0-9.3,0.8-13.3-2.4c-0.6-1.2-1.7-2.3-1.7-3.5c-0.7-9.3-1.3-18.6-1.6-27.9c-0.2-6.7,0-13.3,0-20
		c0.1-80,0.3-160,0.5-240c0.1-32.7,0.4-65.3,0.7-98c0-4.5-0.9-9.3,3-14.4c1.6-0.3,4.1-1.1,6.6-1.2c5.3-0.2,10.7-0.2,16-0.2
		c328,0,656,0,984,0c7.9,0,15.9-1.1,23.2,1.3c5.3,8.5,0.5,17.9,4.6,26.2c1.7,0.1,3.9,0.9,5.5,0.2c4.9-2,9.7-4.4,14.5-6.8
		c107.2-53.8,214.4-107.6,321.5-161.5c7.1-3.6,14.9-6.1,20.2-12.5c165.3,0,330.7,0,496,0c0.6,4.1,4.1,4.9,7.1,6
		c23.9,8.2,47.9,16.3,71.9,24.3c1.7,0.6,3.8,0.1,5.6,0.1c5.1-4.4,0.5-12.2,7.4-17c6.1-0.1,13.3-0.4,20.6-0.4c72.7,0,145.3,0,218,0
		c5.3,0,10.7-0.1,16,0.2c2.5,0.1,5,0.9,8,1.4c0.6,3.1,1.5,5.6,1.6,8.1c0.3,5.3,0.2,10.7,0.2,16c0,125.3,0,250.7,0,376
		c0,5.3-0.1,10.7-0.1,16c-0.1,3.4-0.4,6.7-5,9.6c-5.3,0.1-11.9,0.2-18.5,0.3c-6.7,0-13.3,0-20,0c-7.3,0-14.7,0-22,0
		c-6.7,0-13.3-0.1-20,0c-6.4,0.2-13-1-19.8,1.4c0.8,5.7,5.1,6.7,8.4,8.4c49.5,24.6,99,49.2,148.5,73.8
		C7254,714.7,7254,857.3,7254,1000z M6238.3,789.5c-2.6-1.6-12-22.5-15.5-24.7c-3.6-8.8-7.3-18-11.2-27.2c-1.5-3.6-3.7-6.9-5.6-10.5
		c-5.1-0.4-9.8-0.9-14.4-1c-57.3-0.4-114.7-0.8-172-1.2c-4.7,0-9.3,0.1-14,0.5c-1.9,0.2-3.6,1.4-6,2.4c-2.6,7.6-1.5,15.6-1.5,23.4
		c-0.1,124.7-0.1,249.3,0,374c0,6-0.1,12,0.4,18c0.2,2.4,1.6,4.8,2.4,7c2.7,0.6,4.6,1.3,6.5,1.3c66,0.1,132,0.1,198,0.1
		c2.6,0,5.2-0.6,8-1c1-1.9,2.5-3.5,2.8-5.4c0.7-4.6,0.7-9.3,1.1-13.9c0.3-2.6,0.6-5.3,5.1-6.6c4.5,1.6,10.2,3.5,15.8,5.5
		c21.9,8,44,15.5,65.6,24.1c15.2,6,30.5,8.4,46.7,8.4c167.3-0.2,334.6-0.1,502,0.1c12.4,0,23.5-2.4,34.5-8
		c33.2-17.1,66.6-33.6,100-50.3c74.5-37.3,149-74.5,223.5-111.8c6.5-3.2,13.6-5.6,19.3-11.5c0.3-2.9,0.8-6.1,0.8-9.4
		c-0.1-126-0.3-252-0.5-377.9c0-1.2-0.9-2.5-1.7-4.6c-3.9-2.2-8.5-4.9-13.2-7.2c-17.9-9-35.8-17.9-53.7-26.8
		c-54.3-27-108.6-54-162.8-81.1c-5.8-2.9-12.7-4.4-16.4-10.5c0,0-0.4,0.5-0.4,0.5c7.3-0.4,14.6-1.2,21.9-1.2
		c48.7-0.1,97.3-0.1,146-0.1c6,0,12,0,18-0.4c2.5-0.2,4.9-1.4,7.3-2.2c2.9-7.7,1.9-15.1,1.9-22.3c0.1-108.7,0-217.3,0-326
		c0-5.3,0.1-10.7-0.4-16c-0.2-2.5-1.6-4.9-2.3-7c-17-2.4-94.5-3-198.4-1.7c-4.6,0.1-9.1,0.7-13.2,1c-5.3,6.5-3,13.5-3.9,20
		c-0.4,2.6-0.7,5.2-4.6,7c-5.4-1.6-11.8-3.4-18-5.5c-27.8-9.3-55.6-18.6-83.2-28.3c-10.8-3.8-21.7-5.7-33.2-5.6
		c-148.7,0.2-297.3,0.1-446,0.1c-6,0-11.9,0.3-17.9,0.5c-117.5,59.1-234.8,118.1-352,177.1c-1.7,0.9-3,2.5-4.4,3.7
		c-2,17.1-3.1,290.1-1.3,350c0.1,3.3,0.7,6.5,1,9.1c6,6.1,13.1,8.4,19.6,11.6c111.5,55.6,223,111.2,334.6,166.6
		c28.5,14.1,18.7,12.1,51.4,12.2c72.7,0.1,145.3,0.2,218-0.1c11.6,0,22.4,1.8,33.1,6c26,10.2,52.3,20,78.4,30.1
		c4.9,1.9,9.6,4.2,14,6.1c2.5,18.8,2.3,48.2-0.2,62.2c-15.2,11-57.9,36.4-73,43.3c-58.3,0-117.6,0.1-177-0.1
		c-85.5-53.6-170.8-106.9-255.7-160.9C6240.7,792.6,6239.6,790.9,6238.3,789.5 M5958.6,228.8c-8.3-2.1-15.6-1.4-22.9-1.4
		c-310.6,0-621.1,0-931.7,0c-6,0-12-0.1-18,0.3c-2.5,0.2-4.8,1.4-7.4,2.2c-0.5,3.3-1.1,5.9-1.1,8.4c0,112.6,0.2,225.2,0.3,337.9
		c0,1.2,0.9,2.4,1.4,3.6c3.9,3.5,8.7,3,13.3,3c53.3,0,106.6,0,159.9,0c1.3,0,2.7-0.1,4-0.1c3.4-0.2,6.6-0.7,9.4-4.8
		c1.9-28.8-0.5-58.7,1.4-89.2c10.7-10.7,21.5-21.6,32.3-32.4c10.4-10.4,20.6-20.9,31.1-31.1c11-10.6,20.7-22.5,33.4-31.7
		c5.2,0.6,10.8-1.8,15.8,4.5c0.2,4.8,0.6,10.7,0.6,16.6c0.1,30.7,0,61.3,0,92c0,99.3,0,198.6-0.1,297.9c0,7.2,1.2,14.7-1.8,22.2
		c-6.3,7.2-12.9,14.6-21.6,20.8c-11.8,0-23.7,0-35.7,0c-26.7,0-53.3,0-80,0.1c-3.9,0-8.1-0.5-11.7,3.8c-1.8,5.6-1.1,12.3-1.1,18.9
		c-0.1,38.7,0,77.3,0,116c0,6,0,12,0.3,18c0.1,2.5,1.2,4.9,1.9,7.8c8.4,2.2,16.4,1.4,24.3,1.4c209.3,0,418.5,0,627.8,0
		c6,0,12,0,18-0.3c2.6-0.1,5.4-0.3,8.3-4.8c1.6-4.4,0.7-11.1,0.7-17.6c0.1-38.7,0-77.3,0-116c0-6,0.1-12-0.3-18
		c-0.1-2.5-1.2-4.9-1.9-7.3c-6.4-2.7-12.4-1.9-18.3-1.9c-30-0.1-60,0-90,0c-6.6,0-13.3-0.1-19.3-0.2c-8.4-6.9-15.7-13.6-21.6-22.1
		c0-5.5,0-10.8,0-16.1c0-131.3,0-262.6,0-393.9c0-5.3,0.2-10.7,0.5-16c0.1-1.2,1.1-2.3,2-4.2c4.6-2,9.7-2.2,16.4,0.6
		c9.3,9.2,19.7,19.5,30,29.8c10.9,10.8,21.8,21.5,32.5,32.6c10.1,10.5,21.5,19.9,30.6,32c0.1,6.6,0.4,13.2,0.4,19.9
		c0.1,20,0,40,0.1,60c0,3.9-0.2,8.1,3.6,11.3c5.9,3,12.7,1.8,19.3,1.8c48,0.1,96,0.1,143.9,0c4.7,0,9.3,0.1,14-0.4
		c2.5-0.2,4.9-1.5,6.8-2.2c3.5-7.9,2.2-15.3,2.2-22.5c0.1-102,0.1-203.9,0.1-305.9c0-5.3,0-10.7-0.3-16
		C5960.5,234.1,5959.6,232.2,5958.6,228.8z M6722.3,867.8c-3.4-1.7-6.8-3.8-10.4-5.2c-19.2-7.5-38.7-14.5-57.7-22.3
		c-13.8-5.7-27.8-8-42.7-8c-73.3,0.4-146.5,0.2-219.8,0.2c-7.3,0-14.6,0-21.1,0c-8.8-4.3-16.4-8.3-24.3-11.9
		c-7.7-3.5-14.8-8.4-23.9-10.1c0.9,1.7,1.2,3.1,2.1,3.7c59.7,38.7,120.5,75.9,180,113.6c56.3,0,111.5,0,166.7,0
		c17.4-10.3,34.9-19.7,51.1-31.3C6724.3,886.8,6724.1,877.6,6722.3,867.8z"/>
	<path class="st0" d="M2886.3,2602.1c-1.5-22.9-0.7-44.2-0.9-65.5c-0.2-22-0.2-44-0.3-66c-0.1-21.3-0.2-42.6-0.3-63.9
		c-11.4-10.4-24.8-16.7-37.1-24.4c-12.4-7.8-25-15.2-37.1-22.5c-49.4,0-98,0-146.6,0.1c-1.2,0-2.3,1-3.9,1.8
		c-0.5,1.5-1.6,3.3-1.6,5.1c-0.1,50-0.1,99.9-0.1,150.4c5.2,7.7,12.5,13.6,18.9,20.2c6,6.2,12.3,12.1,18.4,18.2
		c22.2,2.5,44.3-0.5,66.8,1.9c0.9,2.4,2.6,4.7,2.6,7.1c0.2,30,0.1,60,0,90c0,1.3-0.6,2.6-0.9,3.8c-2.2,3.1-5.6,3.4-8.9,3.5
		c-4.7,0.1-9.3,0.2-14,0.2c-163.3,0-326.6,0-489.9,0c-5.3,0-10.7,0.1-16-0.3c-2.5-0.2-5-1.4-7.6-2.2c-0.4-3.1-1-5.7-1-8.3
		c0-29.3,0.2-58.6,0.4-88c0-1.2,0.9-2.4,1.8-4.6c1.8-0.5,4.3-1.7,6.7-1.7c14.7-0.2,29.3-0.2,44-0.2c7.3,0,14.6,0,21.9,0
		c14.3-11.7,25.9-25.4,38.7-38.2c0.3-4.9,0.9-9.5,0.9-14.1c0-136.6,0-273.3,0-409.9c0-4,0-8,0-12c-11.5-14.3-24.4-26.8-37.6-39.4
		c-5.4-0.3-10.6-0.8-15.9-0.9c-16-0.1-32,0-48-0.2c-3.8-0.1-7.6-1.2-11.2-1.9c-2.4-15.4-2.5-83.9-0.2-101.2c2-0.7,4.4-1.9,6.9-2.1
		c5.3-0.4,10.7-0.3,16-0.3c244.6,0,489.2,0.1,733.8,0c14.9,0,28.9,2.3,43,6.9c48.1,15.6,96.5,30.6,144.7,46.1
		c6.9,2.2,14.4,3.1,20.7,8.7c0.3,2.7,0.8,6,0.9,9.2c1.3,54.1,0.8,196.1-0.7,213.9c-2.6,4.3-7.3,5.3-11.6,6.9
		c-48.3,17.4-96.5,34.7-144.7,52.2c-8,2.9-16.4,4.8-23.4,9.7c0.7,3.5,3.2,4.4,5.8,5.3c25.3,8.2,50.7,16.4,76,24.6
		c36.1,11.7,72.3,23.3,108.4,35c4.4,1.4,8.5,3.4,12.9,5.1c2.1,17.9,0.8,35.2,1.1,52.4c0.3,17.3,0.1,34.7,0.2,52
		c0.1,17.3,0.2,34.6,0.2,52.1c5.7,6.3,13,9.7,19.5,14.1c6.1,4.1,12.3,8,18.5,11.9c6.7,4.3,13.5,8.5,21,13.3
		c18.6,1.4,37.9-0.2,57.7,1c1,2.9,2.6,5.3,2.6,7.7c0.2,30,0.1,60,0,90c0,1.3-0.6,2.6-1,3.8c-2.2,3.1-5.6,3.2-8.8,3.4
		c-4.7,0.2-9.3,0.2-14,0.2c-86,0-172-0.1-257.9,0.1c-12.9,0-24.9-1.9-36.9-6.8c-37.6-15.3-75.5-30-113.3-45
		C2899.7,2607.9,2893.6,2605.2,2886.3,2602.1z M2883.3,2072.9c-4.4-2.1-7.9-3.9-11.5-5.4c-15.3-6.4-30.9-12.4-46-19.2
		c-10-4.5-20.2-6.1-31-6c-37.9,0.2-75.9,0-113.8,0c-4.7,0-9.3,0-14,0.3c-2.6,0.1-5.4,0.2-8.3,4.7c-1.4,4.4-0.6,11.1-0.6,17.6
		c-0.1,53.3,0,106.5,0,159.8c0,6.7-0.1,13.3,0.2,20c0.1,2.5,1.2,5,1.9,7.8c3.7,0.5,7,1.3,10.2,1.3c43.9,0.1,87.9,0,131.8,0
		c6.8,0,13.1-1.7,19.3-4.3c17.2-7.2,34.5-14.1,51.7-21.3c3.6-1.5,7-3.7,10.1-5.4C2885.2,2206.8,2885.3,2092.1,2883.3,2072.9z"/>
	<path class="st0" d="M2766.6,1701.9c-0.1-157.4-0.2-314.6-0.2-471.9c0-2.6,0.6-5.2,0.9-7.5c13.1-8.5,225.9-115.9,256.8-129.6
		c4.5,0,10.5,0,16.5,0c140.6,0,281.3,0.1,421.9-0.1c13,0,24.8,2.1,36.6,7.6c34.5,15.8,69.4,30.9,104.1,46.2
		c35.3,15.6,70.7,31.2,106,46.8c4.2,1.8,8.1,4.7,13.1,3.4c3.6-2.1,3-5.7,3-8.8c0.1-23.3,0-46.7,0.2-70c0-5.2-1.1-10.6,2.8-16.3
		c1.8-0.3,4.3-1,6.9-1.1c5.3-0.2,10.7-0.2,16-0.2c261.3,0,522.5,0,783.8,0c7.9,0,15.9-1,24.2,1.5c0.6,2.8,1.4,5.3,1.5,7.8
		c0.3,4.7,0.2,9.3,0.2,14c0,94.6,0,189.3,0,283.9c0,6.6-0.1,13.3-0.2,18.5c-3,4.5-6.3,4.8-9.7,4.9c-9.3,0.1-18.7,0.1-28,0.1
		c-44,0-88,0-132,0c-6.6,0-13.1,0.5-20.3,0.7c-1,3-2.3,5.4-2.4,7.8c-0.4,6.6-0.4,13.3-0.4,20c0,52.7,0,105.3-0.1,158
		c0,6.6,1,13.3-1,18.3c-2.6,3.9-5.4,3.9-7.9,3.9c-8-0.2-16-0.6-24-0.8c-4.6-0.1-9.2,0-14.6,0c-1,3.6-2.5,6.6-2.6,9.7
		c-0.3,14-0.2,28-0.2,42c0,33.3,0,66.6,0,100c0,5.9-0.5,11.8-0.8,18.3c-3.2,0.8-5.6,1.9-8.1,2c-6,0.3-12,0.2-18,0.2
		c-179.3,0-358.6,0-537.9,0c-7.9,0-15.9,0.5-22.8-0.6c-5-3.3-4.6-7.5-4.6-11.4c-0.1-26,0-52-0.1-78c0-6.6,1-13.3-1.9-20.6
		c-2.2,0-5-0.7-7.2,0.1c-5.6,2.2-10.9,5-16.2,7.7c-64.2,32.4-128.5,64.8-192.7,97.2c-6.5,3.3-13.1,6.5-20.8,10.4
		c-5.6,0.1-12.2,0.5-18.8,0.5c-143.3,0-286.6-0.1-429.9,0.1c-11.6,0-22.2-2.1-32.8-6.8c-73-32.5-146.2-64.6-219.3-97
		C2779.9,1710.1,2773.3,1708.3,2766.6,1701.9z M4532.8,1402.7c2.8-8.2,1.8-15.5,1.8-22.8c0.1-76,0.1-151.9,0-227.9
		c0-5.3,0.1-10.7-0.2-16c-0.1-2.5-1.1-5-1.8-7.7c-9-2.7-17.7-1.7-26.2-1.7c-242.6-0.1-485.2,0-727.8,0c-6,0-12-0.1-18,0.2
		c-2.5,0.1-4.9,1.2-6.9,1.7c-4,7-2.7,13.8-2.7,20.3c-0.1,34.7-0.1,69.3-0.1,104c0,4.7-0.1,9.4,0.4,14c0.3,2.5,1.6,4.9,2.5,7.8
		c5,0.3,9.6,1,14.1,0.9c16-0.4,32-1,48-1.5c5.3-0.2,10.7-0.9,17.3,2.4c2.9,3.2,6.8,7.6,10,11.1c0.5,2.7,1,4,1,5.3
		c0.1,4.7,0.2,9.3,0.2,14c-0.1,104-0.2,207.9-0.3,311.9c0,0.6-0.3,1.3-0.4,1.9c-0.2,0.6-0.4,1.3-1,3.5c-3.1,3.2-7.3,7.3-11.4,11.5
		c-7.2,0.2-13.8,0.4-20.5,0.4c-16,0.1-32,0-48,0.1c-3.3,0-6.7-0.1-10.3,3.6c-2.3,4.4-1.6,10.5-1.6,16.4c-0.1,30,0,60,0,90
		c0,9.3-0.1,18.7,0.3,28c0.1,3.1,1.6,6.1,2.4,8.8c8.1,2.7,15.5,1.6,22.7,1.6c163.3,0.1,326.6,0.1,489.8,0c5.3,0,10.7,0.1,16-0.3
		c2.5-0.2,4.9-1.2,6.9-1.8c3.3-7.2,2.2-13.9,2.2-20.5c0.1-31.3,0.1-62.6,0-94c0-7.3,0-14.7-0.2-22c-0.1-3.4-0.6-6.6-5.3-9.5
		c-5.1-0.1-11.7-0.5-18.3-0.5c-24-0.1-48,0-72-0.1c-5.3,0-10.6-0.5-16.2-0.7c-4.2-4.4-8.3-8.7-12.9-13.4c0.1-30.6-0.4-61.2,0.4-91.9
		c0-1,1.3-1.9,2.1-2.8c4.2-0.3,5.4,3.3,7.1,5.9c12.7,19.5,25.3,39.2,38,58.8c3.6,5.5,7.5,10.9,10.6,15.4c7.7,3,14.5,2,21,2
		c22.7,0.2,45.3-0.1,67.9,2.2c6.6,0.7,13.3,0.7,20,0.6c2.4-0.1,4.7-1.5,6.7-2.2c2.5-8.1,1.5-15.5,1.5-22.8
		c0.1-82.6,0-165.3,0.1-247.9c0-6.7,0-13.3,0.3-20c0.1-1.7,1.2-3.3,1.8-5c13.5,6.5,18.2,9.9,29.2,21.8c0.1,19.3,0.2,39.3,0.4,59.3
		c0,1.3,0.2,2.7,0.6,3.9c0.4,1.2,1.3,2.2,2,3.4c2.7,2.3,6.1,1.9,9.4,2C4433.7,1406,4515.7,1405.1,4532.8,1402.7z M2794.1,1238.3
		c-2.4,7.1-1.4,14.5-1.4,21.8c0.1,135.3,0.2,270.6,0.4,405.9c0,3.3-0.2,6.7,0.1,10c0.3,3.9,1,7.7,1.6,11.6
		c5.4,2.6,10.1,5.1,14.9,7.2c30.4,13.5,60.9,27,91.4,40.4c37.8,16.6,75.7,33.1,113.4,49.9c8.7,3.9,17.5,6.3,27,5.8
		c3.3-0.2,6.7,0,10,0c132.6,0,265.3,0.1,397.9,0.1c5.3,0,10.7-0.2,16,0c8.9,0.4,16.9-1.8,24.9-5.9c70.1-35.6,140.4-70.9,210.5-106.3
		c3.5-1.8,6.6-4.2,10.3-6.6c0.2-6.3,0.6-12.2,0.7-18.1c0.2-20,0.2-40,0.3-60c0.3-118,0.6-236,0.8-353.9c0-2,0.1-4-0.1-6
		c-0.3-3.2-0.9-6.4-1.3-10c-19-10.7-39-18-58.3-26.8c-19.4-8.9-39-17.3-58.5-25.9c-20.1-8.9-40.2-17.9-60.3-26.7
		c-19.5-8.6-39-17.1-56.8-24.9c-151.3,0-300.5,0-450.5,0c-75.8,38.1-151.9,76.4-228.1,114.8
		C2797.3,1235.4,2795.9,1236.9,2794.1,1238.3z M3740.9,1607.7c1.5,0.5,3.3,1.7,5.1,1.8c21.3,0.2,42.5,0.2,63.8,0
		c2.4,0,4.7-1.6,7.1-2.4c2-7.9,1.2-15.3,1.2-22.5c0.1-86.4,0-172.9,0-259.3c0-5.3,0.1-10.7-0.3-15.9c-0.2-2.5-1.3-4.8-2.2-7.8
		c-23.2-2.1-45.6,0.1-68.1,1c-2.5,0.1-4.9,1.3-8,2.2c-0.5,5-1.3,9.5-1.3,14c-0.2,91.8-0.2,183.5-0.3,275.3c0,3.3,0.2,6.6,0.7,9.9
		C3739,1605.1,3740.1,1606.1,3740.9,1607.7z"/>
	<path class="st0" d="M2692.7,259.5c-9.5-2.5-18.2-1.6-26.7-1.6c-281.3,0-562.5,0-843.8,0c-6,0-12,0-18,0.2
		c-3.3,0.1-6.6,0.3-8.9,3.3c-0.2,0.6-0.6,1.3-0.7,1.9c-0.1,31.3-0.2,62.6-0.1,93.9c0,1.7,1.7,3.4,2.9,5.7
		c24.5,1.8,49.1-0.5,73.7,1.3c12.4,12.6,24.9,24.4,36.3,38.4c0.1,7.1,0.4,14.4,0.4,21.7c0,77.3,0,154.6,0,231.9c0,54,0,108-0.1,162
		c0,7.3,1.1,14.7-2,22.8c-11.2,11.9-22.9,24.6-35.6,35.7c-7.1,1.9-13.8,1.3-20.5,1.3c-15.3,0.1-30.7,0.1-46,0.2
		c-3.3,0-6.6,0.3-8.6,3.5c-0.3,0.7-0.7,1.3-0.7,1.9c-0.1,30.6-0.3,61.3-0.2,91.9c0,2.3,1.7,4.7,2.5,6.9c8.1,1.5,15.4,1,22.7,1
		c287.9,0,575.9,0,863.8,0c5.3,0,10.7,0,16-0.1c3.4,0,6.7-0.4,9-3.8c1.8-6.2,1-12.9,1-19.5c0.1-80,0-160,0-239.9
		c0-5.3,0.1-10.7-0.3-16c-0.2-2.4-1.7-4.7-2.4-6.7c-13-1.2-92.8-2-110.7-1c-1.9,0.1-3.8,0.9-6.3,1.6c-0.6,3.8-1.5,7.7-1.6,11.6
		c-0.3,12-0.1,24-0.3,36c-0.1,3.9-0.8,7.8-1.1,10.9c-15.7,13.8-144.7,112-158.8,120.9c-2.6,0.2-5.9,0.6-9.2,0.6
		c-59.3,0-118.6,0-178,0c-2,0-4,0-6-0.2c-2.6-0.3-5.4,0.1-8.6-4.7c-1.1-4.2-0.6-10.8-0.6-17.4c0-60.7,0-121.3,0-182
		c0-4.7-0.1-9.3,0.3-14c0.2-2.4,1.4-4.8,2.1-6.8c16.5-1.6,46.9-1.6,65.8,0.1c3,4.2,6.5,9,9.7,14c16.3,25.2,32.5,50.4,48.9,75.5
		c2.9,4.4,5,9.5,9.7,12.2c14.6,1.4,61.6,2,78,0.8c1.2-0.1,2.2-1.2,3.4-1.8c0.6-1.2,1.6-2.3,1.6-3.5c0.2-96,0.3-191.9,0.4-287.9
		c0-1.9-0.9-3.7-1.2-5.1c-0.9-0.8-1.4-1.6-1.9-1.7c-17.9-2.9-35.9-0.6-53.8-0.8c-9.2-0.1-18.6-1.1-28.3,1.6
		c-3.4,4.7-7,9.4-10.4,14.3c-16.3,23.6-32.5,47.2-48.8,70.8c-2.6,3.7-5.8,7-8.8,10.5c-20,0-39.3,0.1-58.6-0.1
		c-2.4,0-4.8-1.6-7.7-2.6c-0.1-7.2-0.2-13.8-0.2-20.4c0-27.3,0-54.7,0-82c0-23.3,0-46.7,0.1-70c0-3.9-0.8-8,2.3-11.2
		c0.6-0.5,1.1-1.1,1.7-1.3c1.3-0.4,2.6-0.6,3.9-0.7c3.3-0.1,6.7-0.2,10-0.2c67.3,0,134.6,0,202,0.1c1.3,0,2.7,0.2,4,0.3
		c0.7,0.1,1.3,0.3,1.9,0.4c0.6,0.2,1.3,0.4,1.9,0.6c40,27.5,108.1,79.3,119.7,91c0.1,5.4,0.4,11.4,0.4,17.4c0.1,12.7,0,25.3,0.1,38
		c0,3.2-0.2,6.7,3.1,9.5c1.4,0.4,3.3,1.3,5.2,1.3c34.7,0.1,69.3,0.1,104,0c2.4,0,4.9-1.4,7.1-2.1c0.5-2.7,1.2-4.6,1.2-6.6
		c0.1-82,0.1-164,0-245.9C2693.9,265.2,2693.3,263.2,2692.7,259.5z"/>
	<path class="st0" d="M282.9,921.9c0.3-2.1,0.9-4.7,0.9-7.4c0-196.6,0-393.2,0-589.9c0-2.6-0.6-5.3-1-8.2c-2.1-2.5-4-5.1-6.3-7.5
		c-14.4-14.8-28.9-29.5-43.4-44.3c-5.7-0.2-11-0.6-16.3-0.6c-23.3-0.1-46.7,0-70-0.1c-5.3,0-10.6-0.5-15.2-0.7
		c-4.8-5.1-3.6-10.7-3.6-15.8c-0.1-34-0.1-68-0.1-102c0-8,0.2-15.9,0.2-22.3c3-4.8,6.3-5.2,9.6-5.3c6-0.1,12-0.1,18-0.1
		c228.6,0,457.2,0,685.8,0c8.6,0,17.3-0.8,24.8,1c4.8,4.6,3.7,9.5,3.7,14c0.1,34.7,0.1,69.3,0,104c0,7.9-0.2,15.9-0.2,22.4
		c-3.1,4.6-6.5,4.8-9.8,4.8c-20,0.1-40,0.1-60,0.1c-7.3,0-14.6,0-21,0c-12.4,9.4-40,36.4-55.4,54.1c-1.7,15.4-0.6,31.4-0.8,47.3
		c-0.2,16.7,0,33.3,0,50c0,16,0,32,0,48c0,16,0.2,31.9,0.2,46.3c2.9,4.8,6.2,5.2,9.6,5.3c4.7,0.1,9.3,0.1,14,0.1
		c109.3,0,218.6,0,327.9-0.1c7.2,0,14.6,1.1,22.3-1.5c0.6-2.8,1.6-5.2,1.7-7.7c0.3-5.3,0.2-10.7,0.2-16c0-50.7,0-101.3,0-152
		c0-6.6,0-13.3,0-19.6c-7.7-10.3-16.6-18.3-24.8-27c-8.2-8.7-16.7-17.2-25.5-26.2c-4.4-0.3-9-1-13.5-1c-19.3-0.1-38.7,0-58-0.1
		c-6.6,0-13.2-0.3-18.6-0.4c-4.5-2.7-4.8-6-4.8-9.4c-0.1-24-0.1-48-0.1-72c0-16-0.1-32,0-48c0-4.6,0.6-9.2,1-14.2
		c2.9-0.8,5.4-1.9,7.9-2c6-0.3,12-0.3,18-0.3c229.3,0,458.6,0,687.8,0c7.9,0,15.9-1,24.3,1.8c0.6,2.6,1.6,5,1.6,7.5
		c0.1,42,0.1,84,0.1,126c0,2.6-0.6,5.2-0.8,6.9c-2.9,3.9-6.3,3.9-9.6,3.9c-24,0.1-48,0.1-72,0.1c-6.6,0-13.3,0-20.1,0
		c-18.2,17.3-35.7,34.6-52.3,51.4c-1.6,17.7-1.6,590-0.2,606.9c12.9,14.7,41,42.6,53.5,52.8c15.5,0,32.2-0.2,48.8,0
		c16.6,0.2,33.2-1,48.8,0.8c4.4,3.8,3.7,8,3.7,11.9c0.1,31.3,0.1,62.7,0.1,94c0,8.7,0,17.3-0.1,26c0,3.2-0.4,6.5-0.7,10.4
		c-2.8,0.8-5.2,2-7.7,2.2c-6,0.3-12,0.3-18,0.3c-229.3,0-458.6,0-687.8,0c-7.9,0-15.9,0.6-22.4-0.7c-4.2-3.3-4-6.8-4-10
		c-0.1-22.7-0.1-45.3-0.1-68c0-16.7-0.1-33.3,0-50c0-4.6,0.5-9.2,0.6-12.6c3-4.2,6.4-4.1,9.7-4.1c20-0.1,40-0.1,60-0.1
		c7.3,0,14.6,0,21,0c12.5-9.3,35.9-32.7,52.9-52.8c1.4-14.8,2.3-194,1-229.8c-0.1-2.6-0.7-5.1-0.8-6c-2.7-4.2-5.6-4.1-8.1-4.2
		c-6-0.2-12-0.3-18-0.3c-107.3,0-214.6,0-321.9,0c-7.9,0-16-0.9-24.4,1.5c-0.8,2.5-2,4.9-2.3,7.4c-0.4,4-0.2,8-0.2,12
		c0,68,0,136,0,204c0,4.6,0,9.3,0,12.9c10,13,30.8,34.1,53.3,54.2c3.7,0.3,8.3,0.9,12.9,1c20,0.1,40,0,60,0.1c6,0,11.9,0.3,18.6,0.5
		c0.9,3.5,2.3,6.6,2.3,9.7c0.2,20,0.2,40,0.2,60c0,18.7,0,37.3,0,56c0,5.3-0.4,10.6-0.6,16.6c-2.6,0.9-4.9,2.4-7.3,2.5
		c-6,0.4-12,0.3-18,0.3c-230.6,0-461.2,0-691.8-0.1c-7.3,0-14.7,1.2-22.4-1.7c-0.6-2.2-1.8-4.7-1.8-7.2c-0.1-42.7-0.1-85.3,0-128
		c0-1.9,0.9-3.8,1.2-5.2c3.4-4,7.5-3.3,11.4-3.3c23.3-0.1,46.7-0.1,70-0.1c6.6,0,13.3,0,19.1,0C242.1,966.1,269.7,938.3,282.9,921.9
		z"/>
	<path class="st0" d="M2692.7,259.5c0.6,3.8,1.3,5.7,1.3,7.7c0,82,0,164,0,245.9c0,1.9-0.7,3.9-1.2,6.6c-2.3,0.7-4.7,2.1-7.1,2.1
		c-34.7,0.1-69.3,0.1-104,0c-1.9,0-3.8-0.9-5.2-1.3c-3.3-2.8-3.1-6.2-3.1-9.5c-0.1-12.7,0-25.3-0.1-38c0-6-0.3-11.9-0.4-17.4
		c-11.6-11.8-79.7-63.5-119.7-91c-0.6-0.2-1.3-0.4-1.9-0.6c-0.6-0.2-1.3-0.4-1.9-0.4c-1.3-0.1-2.7-0.3-4-0.3
		c-67.3,0-134.6-0.1-202-0.1c-3.3,0-6.7,0.1-10,0.2c-1.3,0.1-2.7,0.3-3.9,0.7c-0.6,0.2-1,0.8-1.7,1.3c-3.1,3.1-2.3,7.3-2.3,11.2
		c-0.1,23.3-0.1,46.7-0.1,70c0,27.3,0,54.7,0,82c0,6.6,0.2,13.3,0.2,20.4c3,1.1,5.4,2.6,7.7,2.6c19.3,0.2,38.6,0.1,58.6,0.1
		c3-3.5,6.2-6.8,8.8-10.5c16.3-23.5,32.5-47.2,48.8-70.8c3.4-4.9,7-9.6,10.4-14.3c9.7-2.7,19.1-1.7,28.3-1.6
		c17.9,0.2,35.9-2.1,53.8,0.8c0.6,0.1,1,0.8,1.9,1.7c0.3,1.4,1.2,3.3,1.2,5.1c-0.1,96-0.2,191.9-0.4,287.9c0,1.2-1.1,2.3-1.6,3.5
		c-1.1,0.6-2.2,1.7-3.4,1.8c-16.4,1.1-63.4,0.6-78-0.8c-4.7-2.7-6.8-7.8-9.7-12.2c-16.4-25.1-32.6-50.4-48.9-75.5
		c-3.2-5-6.8-9.7-9.7-14c-18.9-1.7-49.3-1.8-65.8-0.1c-0.7,2-1.9,4.4-2.1,6.8c-0.4,4.6-0.3,9.3-0.3,14c0,60.7,0,121.3,0,182
		c0,6.6-0.5,13.2,0.6,17.4c3.2,4.8,6.1,4.4,8.6,4.7c2,0.2,4,0.2,6,0.2c59.3,0,118.6,0,178,0c3.3,0,6.6-0.4,9.2-0.6
		c14.1-8.9,143.1-107.1,158.8-120.9c0.3-3.1,1.1-7,1.1-10.9c0.2-12,0-24,0.3-36c0.1-3.9,1.1-7.7,1.6-11.6c2.6-0.7,4.4-1.5,6.3-1.6
		c17.9-1,97.7-0.2,110.7,1c0.8,2,2.2,4.3,2.4,6.7c0.4,5.3,0.3,10.7,0.3,16c0,80,0,160,0,239.9c0,6.6,0.7,13.3-1,19.5
		c-2.3,3.4-5.6,3.8-9,3.8c-5.3,0.1-10.7,0.1-16,0.1c-287.9,0-575.9,0-863.8,0c-7.3,0-14.6,0.6-22.7-1c-0.8-2.2-2.5-4.5-2.5-6.9
		c-0.1-30.6,0.1-61.3,0.2-91.9c0-0.6,0.4-1.3,0.7-1.9c2-3.2,5.4-3.5,8.6-3.5c15.3-0.1,30.7-0.1,46-0.2c6.6-0.1,13.3,0.6,20.5-1.3
		c12.7-11.1,24.4-23.8,35.6-35.7c3.1-8.1,2-15.5,2-22.8c0.1-54,0.1-108,0.1-162c0-77.3,0-154.6,0-231.9c0-7.3-0.3-14.6-0.4-21.7
		c-11.4-14-23.9-25.8-36.3-38.4c-24.6-1.8-49.3,0.5-73.7-1.3c-1.2-2.3-2.9-4-2.9-5.7c-0.1-31.3,0-62.6,0.1-93.9
		c0-0.6,0.4-1.3,0.7-1.9c2.3-3,5.6-3.2,8.9-3.3c6-0.1,12-0.2,18-0.2c281.3,0,562.5,0,843.8,0C2674.5,257.8,2683.2,257,2692.7,259.5z
		"/>
	<path class="st0" d="M4888.3,317.6c2.2,21.5,3,124.2,1.7,213.9c-0.1,3.9-0.6,7.9-0.8,11.2c-5.5,5.6-12.4,6.6-18.5,8.9
		c-45.1,16.4-90.2,32.5-135.3,48.8c-6.9,2.5-13.8,5.1-20.5,7.8c-1.6,0.7-2.9,2.2-4.2,3.3c0.9,1.5,1.3,3.1,2.2,3.4
		c12.5,4.5,25.1,9,37.7,13.1c48.8,15.9,97.6,31.6,146.4,47.4c5,1.6,9.9,3.6,15.5,5.6c0.4,5.7,1,10.9,1,16.1c0.1,40.7,0,81.3,0.1,122
		c0,6.6-0.8,13.3,1.6,21.1c18.3,12.7,38.2,24.7,58.1,37.4c10.1,0.1,20,0.1,30,0.3c9.2,0.2,18.5-0.8,26.9,1.1
		c1.3,2.1,2.6,3.2,2.6,4.3c0.3,30,0.5,59.9,0.6,89.9c0,2.5-0.8,5.1-1.4,8.3c-2.9,0.7-5.3,1.6-7.8,1.7c-5.3,0.3-10.7,0.2-16,0.2
		c-85.3,0-170.6-0.2-255.9,0.2c-13.7,0.1-26.2-2.5-38.8-7.5c-37.7-15.2-75.6-29.9-113.3-45c-6.1-2.4-12.9-3.7-17.7-8.9
		c-2.7-6.3-1.6-13.1-1.6-19.7c-0.5-52-0.9-104-1.4-156c-0.1-6.6-0.4-13.2-0.6-19.1c-12.4-10.3-38.8-26.9-74.9-47.1
		c-23.6-0.3-48.9-0.1-74.2-0.1c-24.5,0-49-0.2-71.6,0.1c-5.2,5-4.4,9.2-4.5,13.1c-0.1,27.3-0.1,54.7-0.1,82c0,16,0,32,0,48
		c0,5.3,0.3,10.6,0.5,16c11.3,13.4,24.3,24.8,36.4,37.2c22.1,3.2,44.2-0.3,66.8,2.3c0.9,2.3,2.7,4.6,2.7,6.9c0.2,30,0.1,60,0,90
		c0,1.9-1.2,3.7-2.1,6.2c-2.4,0.5-4.9,1.3-7.4,1.4c-5.3,0.2-10.7,0.1-16,0.1c-162,0-323.9,0-485.9,0c-7.9,0-15.9,0.8-23.7-1.1
		c-1-2.4-2.4-4.1-2.4-5.9c-0.1-30.7-0.1-61.3,0-92c0-1.3,0.8-2.5,1.4-4.4c12-4,24.7-1.7,37.2-2.1c12-0.4,23.9-0.3,35.2-0.4
		c8.4-5.2,13.7-12.1,19.8-18.2c6.1-6.1,12.1-12.4,18.4-18.9c0.5-3.8,1.3-7.7,1.5-11.6c0.3-4,0.1-8,0.1-12
		c0-131.3-0.1-262.6-0.2-393.9c0-7.3,0.9-14.7-2-23.6c-10.5-10.7-22.1-22.5-34.1-34.8c-4.5-0.4-9.1-1.1-13.7-1.1
		c-16.7-0.1-33.3,0-50-0.1c-3.9,0-8,0.7-12.5-3c-0.3-1.4-1.2-3.9-1.3-6.4c-1.5-41-0.7-80.1,1.9-94.3c3.6-0.5,7.5-1.5,11.3-1.6
		c10.7-0.2,21.3-0.1,32-0.1c143.3,0,286.6,0.1,429.9,0.1c95.3,0,190.6,0.3,285.9,0.1c13.5,0,26.4,2,39.2,6.1
		c49.4,16,99,31.6,148.4,47.4C4876.5,313.4,4882.1,315.5,4888.3,317.6z M4354.5,571.9c4.4,3.7,7.9,3.2,11.1,3.2
		c43.2,0,86.5-0.1,129.7,0.1c6.8,0,13.1-1.5,19.3-4.1c18.4-7.6,36.9-15.2,55.3-22.9c2.9-1.2,5.6-3.2,7.9-4.6
		c0.5-2.8,1.1-4.8,1.1-6.8c0-45.2,0.1-90.5,0-135.7c0-2.6-1-5.1-1.7-8.2c-19.7-8.2-39.4-16.2-58.9-24.6c-8.1-3.5-16.3-5-25.1-5
		c-35.3,0.2-70.5,0-105.8,0c-8.6,0-17.3-0.1-25.9,0.2c-2.4,0.1-4.8,1.5-7.2,2.2c-0.3,3.4-0.8,6-0.8,8.6c0,63.9,0,127.7,0.1,191.6
		C4353.5,568,4354.2,570,4354.5,571.9z"/>
	<path class="st0" d="M3074.7,764.7c-11.4,22.7-20.6,44.7-30,66.7c8,16.5,19.2,29.7,28.3,44.8c5,0.6,9.5,1.6,14,1.6
		c21.3,0.2,42.7,0,64,0.1c5.9,0,11.9,0.4,18.4,0.6c1,3,2.4,5.4,2.4,7.8c0.2,29.3,0.2,58.6,0,88c0,2.5-1.3,5-1.9,7.4
		c-2.5,0.6-4.4,1.4-6.3,1.4c-116,0-231.9-0.1-347.9-0.2c-1.2,0-2.4-0.9-4.2-1.7c-0.6-1.3-1.9-3.1-1.9-4.8c-0.1-30.7-0.1-61.3,0-92
		c0-1.3,0.8-2.5,1.5-4.3c9.2-3.9,19.3-1.7,29.1-2.1c9.3-0.4,18.6-0.2,26.1-0.3c7.7-3.9,9-10.2,11.6-15.4
		c31.3-62.5,62.5-125.2,93.7-187.8c58.6-117.4,117.1-234.9,175.7-352.3c3.3-6.5,6.4-13.2,9.1-18.6c2.2-15.1-0.9-29.2,2.2-43.1
		c2.1-0.8,3.9-1.9,5.8-2c4.6-0.4,9.3-0.4,14-0.4c111.3,0,222.6,0,333.9,0c6.6,0,13.3-0.9,20.5,2.2c3,13.6,0.2,27.6,2.1,43.7
		c27.6,61.8,56.1,125.6,84.7,189.4c28.6,63.8,57.3,127.6,85.9,191.5c28.6,63.7,56.9,127.6,85.6,190.8c11.1,2.9,21.1,1.5,31,2
		c9.2,0.4,18.5-0.4,26.8,1.3c1.4,2.3,2.6,3.4,2.6,4.5c0.3,30,0.5,59.9,0.6,89.9c0,2.6-0.9,5.1-1.5,8.3c-2.8,0.6-5.3,1.5-7.7,1.6
		c-6,0.3-12,0.2-18,0.2c-170.6,0-341.3,0-511.9,0c-7.9,0-15.9,0.6-24.7-0.9c-0.9-2.2-2.6-4.6-2.6-6.9c-0.2-30-0.2-60,0-90
		c0-1.8,1.1-3.7,1.6-5.2c5.2-3.4,10.7-2.4,15.9-2.5c22.7-0.3,45.3-0.3,68-0.6c6.6-0.1,13.2-0.4,19.9-0.7
		c6.5-6.6,10.4-14.4,15.2-21.5c4.8-7.2,9.4-14.5,14.2-21.9c-7.1-23.4-17.5-44.9-25.5-66.4c-7.6-3.9-14.4-2.6-20.9-2.6
		c-70.7-0.1-141.3-0.1-212-0.1c-23.3,0-46.7,0-70,0C3086.7,764.1,3081.4,764.4,3074.7,764.7z M3239.8,398.7
		c-5.8,4.7-7.2,11.6-9.9,17.5c-21.6,48-42.9,96.1-64.4,144.1c-12.5,28-25,56-37.4,84c-1.6,3.5-4,7-2.1,11.5c5.3,3.5,11.5,2,17.3,2
		c50.7,0.1,101.3,0.1,152,0c12.7,0,25.3-0.1,38-0.5c3.9-0.1,7.7-1.2,11.3-1.8c0.2-2.1,0.7-3.6,0.3-4.7
		c-33.9-82.6-67.8-165.1-101.8-247.6C3242.5,401.6,3241,400.3,3239.8,398.7z"/>
	<path class="st0" d="M5663.8,2346.1c1.7-17.2,2.2-319.1,0.7-348.6c-6.6-9.9-16.4-18-25.2-27.1c-8.3-8.6-17.2-16.7-27-26.2
		c-3.7-0.2-9-0.9-14.2-0.9c-30.7-0.1-61.3,0-92-0.1c-5.2,0-10.4-0.6-15.5-0.9c-1-2.6-2.3-4.4-2.3-6.3c-0.1-44-0.2-88-0.1-131.9
		c0-1.8,1.2-3.7,1.8-5.3c1.5-0.7,2.7-1.7,3.8-1.7c165.3-0.2,330.6-0.2,495.8-0.3c1.9,0,3.7,0.9,5.1,1.3c4.2,4.3,3.1,9.1,3.1,13.6
		c0.1,37.3,0.1,74.6,0,112c0,5.3-0.4,10.6-0.5,14.9c-2.6,4.3-5.9,4.6-9.3,4.6c-24.7,0.1-49.3,0.1-74,0.1c-6.6,0-13.2,0.3-19.7,0.4
		c-18.1,16.7-34.5,34.1-51.1,50.5c-2.1,8.1-1.3,15.5-1.3,22.7c-0.1,65.3,0,130.6,0,195.9c0,186.6,0,373.2,0,559.9
		c0,8-0.1,15.9-0.2,24.4c-3,1.1-5.3,2.5-7.8,2.6c-6,0.4-12,0.3-18,0.3c-115.3,0-230.6,0-345.9,0c-7.2,0-14.5-0.3-20.3-0.4
		c-4.6-3.2-4.5-6.6-4.6-9.9c-0.1-13.3,0-26.6,0-38.7c-3.6-8.2-9.7-12.7-14.8-17.8c-61.8-61.7-123.6-123.4-185.4-185
		c-125-124.7-250.1-249.5-375.1-374.2c-5.1-5.1-10.5-10.1-16.3-15.8c-1.5,2.2-3.2,3.6-3.3,5c-0.4,5.3-0.3,10.7-0.3,16
		c0,123.3,0,246.6,0,369.9c0,6.6,0,13.3,0,18.7c11.2,17.9,52,72.6,63.5,85.3c5,0.3,10.9,0.8,16.8,0.8c35.3,0.1,70.6,0,106,0.1
		c6.6,0,13.4-1.3,19.5,2.1c0.6,1.3,1.7,2.4,1.7,3.6c0.2,43.3,0.3,86.6,0.4,129.9c0,2.6-0.7,5.1-1.1,8.4c-2.8,0.7-5.2,1.7-7.7,1.8
		c-6,0.3-12,0.2-18,0.2c-163.3,0-326.6,0-489.9,0c-7.3,0-14.6-0.2-20.6-0.3c-4.4-3-4.7-6.4-4.7-9.6c-0.1-16-0.2-32-0.2-48
		c0-23.3-0.1-46.7,0.1-70c0-5.2-1.1-10.7,1.8-15.3c3.4-3.5,7.6-2.8,11.5-2.8c21.3-0.1,42.7,0,64-0.1c5.9,0,12,1,19-2.7
		c19.9-25.8,39.7-53.3,60.1-80.7c0.3-4.7,0.8-9.3,0.8-13.9c0-182.6,0-365.2,0-547.9c0-3.3,0-6.6,0-9.1c-9-12.5-33.1-37.2-54-55.5
		c-16.7-1.7-34-0.3-51.3-0.8c-16.5-0.5-33.1,1.3-49.5-1.2c-0.9-2.5-2.2-4.4-2.2-6.2c-0.1-44-0.1-88,0-131.9c0-1.8,1.3-3.7,2-5.7
		c2-0.5,3.9-1.4,5.7-1.4c214.6,0,429.2,0.1,643.8,0.3c1.2,0,2.3,1,3.5,1.5c0.7,1.1,1.5,2.1,1.9,3.3c0.4,1.2,0.6,2.6,0.6,3.9
		c0,17.3,0,34.6,0,52.3c4.2,4.5,8.1,9,12.3,13.2c31.1,31.1,62.2,62.2,93.3,93.3c122.1,122.1,244.1,244.1,366.2,366.1
		C5650.8,2336,5655,2342.2,5663.8,2346.1z"/>
	<path class="st0" d="M1395.4,1797.2c6-0.2,12-0.5,17.9-0.5c256.3-1,722.8-0.3,737.6,1.1c3.4,2,3.8,5.3,3.8,8.7
		c0.1,21.3,0.1,42.7,0.1,64c0,18,0.1,36,0,54c0,5.3-0.5,10.6-0.8,16.5c-3.6,0.9-6.7,2.2-9.8,2.2c-24.7,0.2-49.3,0.2-74,0.2
		c-6.6,0-13.3,0-18.8,0c-13,10.6-41.3,39.7-52.5,53.6c-1.3,18.6-1.2,587.6,0.2,603.7c10.6,12.9,36,39.1,50.9,52.2
		c4.3,0.3,9.6,0.9,14.8,0.9c24,0.1,48,0,72,0.1c5.2,0,10.4,0.7,16.1,1.1c0.7,3.2,1.7,5.7,1.7,8.2c0.1,42,0.1,84,0,126
		c0,2.6-0.6,5.2-1,8.5c-2.6,0.7-5,1.9-7.4,2c-6,0.3-12,0.2-18,0.2c-236.6,0-473.3,0-709.9,0c-7.9,0-16,1-24.5-1.5
		c-0.6-3-1.8-6.2-1.8-9.4c-0.1-42-0.1-84,0-126c0-1.9,0.7-3.9,0.9-5.5c3.1-4,7.2-3.6,11.2-3.6c24-0.1,48,0,72-0.1
		c6.6,0,13.3-0.3,18.9-0.5c12.5-9.9,38-35.8,51.5-52c0.3-1.7,1.1-3.6,1.1-5.5c0.1-197.3,0.1-394.6,0.1-591.9c0-2.6-0.6-5.3-0.8-7.4
		c-10.1-12.6-36.4-39.8-50.7-52.5c-16.8-1.6-34.1-0.3-51.4-0.8c-16.6-0.4-33.3,1-50.5-1c-0.8-3.3-2.1-6.4-2.2-9.6
		c-0.3-10.7-0.2-21.3-0.2-32c0-28.7-0.1-57.3,0.1-86C1391.9,1809.5,1390.9,1804,1395.4,1797.2z"/>
	<path class="st0" d="M3683.9,1928.9c175.4,0,351.3,0,529.2,0c83.6,37,168.9,74.7,254.4,112.5c0.6,4.4,1.5,8.2,1.7,12.1
		c0.3,4.6,0.1,9.3,0.1,14c0,149.3,0,298.5,0,447.8c0,7.9,0.6,15.9-0.6,23c-5,6.3-11.6,8.2-17.4,11.2c-60,30.4-120.1,60.6-180.2,90.9
		c-14.3,7.2-28.8,13.9-42.7,21.8c-10.9,6.2-22.1,8.8-34.4,7.9c-2-0.1-4,0-6,0c-159.9,0-319.9,0-479.8,0c-0.7,0-1.3,0-2,0
		c-15,1.2-28.7-2.2-42.4-8.6c-31.4-14.6-63.3-28-95-42c-42.1-18.5-84.1-37-126.1-55.7c-5.4-2.4-11.5-3.8-15.6-9
		c-0.3-1.7-0.8-3.7-0.8-5.6c0.1-161.3,0.2-322.5,0.3-483.8c0-2,0.5-3.9,0.8-5.3c1.7-4,5-5.1,7.9-6.6c80.3-40.5,160.6-80.8,241-121.2
		C3678.4,1931.1,3680.9,1930.2,3683.9,1928.9z M3782.8,2480.4c16.7,19.1,63.5,65.9,75.3,75.4c20.4,1.5,164.5,1.2,179.6-0.3
		c17.3-14.9,66.9-65,75.7-76.5c1.4-27.3,0.9-346.5-0.5-361.5c-16.3-18.5-63.7-65.2-76.3-75.1c-14.2-0.1-29.5-0.2-44.8-0.2
		c-14.7,0-29.3,0-44,0c-15.3,0-30.6-0.2-46,0.1c-15.3,0.3-30.6-1-46.7,1.4c-23.9,24.3-48.2,49-71.9,73
		C3781.8,2132.7,3781.4,2452.9,3782.8,2480.4z"/>
	<path class="st0" d="M6487.7,984.2c66.7,0,132.7,0,200.1,0c15-8.9,31-18.3,47-28c15.3-9.3,31.1-17.9,45.1-27.6
		c1.9-17.9,1.5-83.1-0.4-99.7c-2.5-1.4-5.2-3.4-8.2-4.6c-39.2-15-78.5-29.7-117.6-44.9c-7.8-3-15.5-3.3-23.5-3.3
		c-72.6,0-145.3,0-217.9,0c-9.3,0-18.6,0-27.8,0C6267.6,718,6151.4,660,6035.1,602c-1.7-0.9-3.1-2.4-5.1-4
		c-0.3-3.7-0.8-7.6-0.8-11.6c-1.5-92.4-0.8-289.8,1.1-310.3c4.7-5.5,11.9-7.7,18.3-10.9c91-45.8,182.1-91.5,273.2-137.2
		c13.1-6.6,26.2-13.1,39.9-19.9c4.1-0.2,8.8-0.8,13.4-0.8c148,0,295.9,0,443.9-0.1c9.5,0,18.4,1.6,27.4,4.6c41,14,82,27.7,123,41.6
		c5.7,1.9,11.2,4,16.7,4.4c3.3-1.8,3.5-4.5,3.5-7.1c0.3-9.9,0.5-19.9,0.7-28.9c4.7-4.7,9.6-3.9,14.1-3.9c30.7-0.1,61.3-0.1,92-0.1
		c12,0,24-0.1,36,0.1c3.9,0.1,7.8,1,11.1,1.4c0.9,2,2,3.2,2,4.4c0.1,100,0.2,199.9,0.2,299.9c0,1.9-0.8,3.8-1.2,5.2
		c-4.2,4.3-9.1,3.1-13.6,3.1c-35.3,0.1-70.6,0.1-106,0.1c-7.3,0-14.6,0-22.4,0c-2.4-3.6-4.9-6.6-6.7-10
		c-5.5-10.6-10.8-21.4-15.7-31.4c-14-10.2-191.3-114.4-228.1-134.2c-15.4-1.4-210.3-1.6-235.3-0.2c-21.4,13.5-43.8,27.8-66.2,42
		c-3.1,9-1.6,17.7-1.8,26.2c-0.2,9.3-0.1,18.7,0,28c0.1,8.6-0.6,17.3,0.9,26.6c3.4,1.8,6.6,4,10.2,5.3
		c37.2,14.5,74.6,28.7,111.8,43.3c8.3,3.3,16.7,4.1,25.4,4.1c72.6-0.1,145.3,0,217.9,0c10,0,20,0,29.7,0
		c116.7,58.2,233,116.1,349.2,174.1c1.7,0.9,3.1,2.5,5,4c0.3,2.4,1,5,1,7.6c0.1,114.6,0,229.2,0,342.4c-3.7,7.4-9.9,8.9-15.1,11.5
		c-58.3,29.3-116.7,58.5-175.1,87.7c-41.7,20.8-83.4,41.7-125.2,62.5c-6.6,3.3-13.1,6.5-20.9,10.3c-4.9,0-10.9,0-16.8,0
		c-162.6,0-325.3,0-487.9-0.1c-4.7,0-9.4-0.3-14,0c-9.6,0.7-18.4-1.7-27.3-4.9c-37.5-13.8-75-27.5-112.6-41.1
		c-5.5-2-10.8-5.4-17.6-4.3c-3.6,11.5,0.2,23.8-2.5,35.1c-2.2,3.5-5.6,3.7-8.9,3.7c-22.7,0.1-45.3,0.1-68,0.1c-20,0-40,0.1-60,0
		c-5.3,0-10.5-0.4-16.5-0.7c-0.9-2.7-2.1-5.1-2.3-7.5c-0.4-4.6-0.3-9.3-0.3-14c0-106.6,0-213.3,0-319.9c0-6.6-0.9-13.3,1.2-19.3
		c2.7-3.4,6.1-3.2,9.4-3.2c19.3,0,38.7,0,58,0c23.3,0,46.7,0.1,70,0.2c5.3,0,10.6,0.3,16.7,0.5c1.9,3.4,4.2,6.6,5.7,10.1
		c5.7,13.5,11.2,27,16.9,40.8C6300.6,867.1,6394.4,925.6,6487.7,984.2z"/>
	<path class="st0" d="M6982.3,463.8c-6.4,0.5-11.4-3.3-16.7-5.9c-30.4-15-60.7-30.2-91.1-45.4c-4.2-2.1-8.5-3.9-12.5-6.2
		c-7.2-4.1-14.8-5.6-23-5.3c-6,0.2-12,0-18,0c-71.2,0-142.4-0.2-213.6,0.1c-13.6,0.1-26.2-2.2-38.8-7.3
		c-25.3-10.2-50.8-19.7-76.3-29.6c-4.2-1.7-8.2-3.9-12.5-6c-0.3-3.9-0.8-7.1-0.8-10.4c-0.1-10,0-19.9,0.1-29.1
		c11.3-9.8,29.4-21.7,50.1-32.7c69.5,0,140.1,0,211.8,0c2.5,1.2,6.3,2.6,9.7,4.6c66.1,38.6,132.1,77.2,198.2,115.8
		c2.3,1.3,4.4,2.9,7.3,4.9c8.6,17.2,18.2,34.7,25.7,53.1L6982.3,463.8z M6736.3,312.3c-36.6-1.4-186.4-0.8-202.2,0.7
		c-9.2,5.7-19.4,10.6-27.2,18.1c-0.4,2.1-1,3.4-0.9,4.6c0.3,1.9,1.1,3.7,1.8,5.8c4.3,1.9,8.4,3.9,12.7,5.6
		c19.2,7.4,38.6,14.4,57.7,22.2c10.7,4.3,21.4,6.2,33,6.2c69.1-0.2,138.3,0,207.4,0c4.6,0,9.3-0.3,13.9-0.8c0.7-0.1,1.3-1.8,2-2.8
		c-0.7-1.1-1.2-2.6-2.2-3.1C6800.2,349.8,6768.1,331,6736.3,312.3z"/>
	<path class="st0" d="M5928.7,259.5c0.6,3.8,1.3,5.7,1.3,7.7c0,92,0,183.9,0,275.9c0,1.9-0.7,3.8-0.9,5.4c-3.1,4.2-7.4,3.5-11.3,3.5
		c-27.3,0.1-54.7,0.1-82,0.1c-8,0-16,0-24-0.2c-2.5-0.1-5-0.8-6.3-1c-1.5-1.5-2.2-1.9-2.4-2.5c-0.4-1.3-0.8-2.6-0.8-3.9
		c0-22,0-44,0-66c-2.3-2.9-4.1-5.7-6.4-8c-33.9-34-67.8-67.9-101.8-101.8c-1.4-1.4-3.1-2.6-5.3-4.4c-17.2-1.8-35.1-0.8-53.1-0.5
		c-1.8,0-3.6,1.2-5.9,2.1c-0.5,2.6-1.2,5.1-1.3,7.6c-0.2,5.3-0.2,10.7-0.2,16c0,142.6,0,285.3,0,427.9c0,7.3,0.3,14.6,0.4,21.5
		c11.6,14,24.6,25.4,35.2,36.5c8.3,3.4,15,2.4,21.6,2.5c25.3,0.1,50.7,0,76,0.1c5.2,0,10.7-0.9,16.1,2.8c0.4,2.1,1.1,4.7,1.2,7.2
		c1,24.8,0.3,78.5-1.3,92.7c-2,0.7-4.3,2.2-6.7,2.4c-5.3,0.4-10.7,0.3-16,0.3c-190.6,0-381.2,0-571.8,0c-7.2,0-14.5,0.8-20.9-1.1
		c-1.3-2-2.5-3.1-2.5-4.2c-0.3-28.6-0.6-57.3-0.7-85.9c0-3.9,0.7-7.8,1-11c5.5-4.2,11-3.2,16.2-3.3c24.7-0.1,49.3-0.1,74-0.1
		c6.6,0,13.3,0,19.8,0c15.4-11.7,27.3-26.1,39.8-38.2c2-23.8,2.7-313.6,1.1-459.2c0-4.6-0.5-9.2-0.7-14.5c-2.7-0.8-5.1-2.2-7.5-2.3
		c-17.3-0.2-34.6-0.1-52.1-0.1c-14.1,11.5-26,25.1-38.8,37.6c-12.4,12.1-24.6,24.5-36.8,36.7c-12.7,12.7-25.5,25.3-37.6,37.8
		c-2.6,25.4,0.7,50.1-2.1,75c-4.4,0.6-7.6,1.3-10.8,1.3c-52,1.4-98.5,0.7-114.3-1.6c-0.6-2.3-1.6-4.8-1.8-7.4c-0.4-4-0.3-8-0.3-12
		c0-84.6,0-169.3,0-253.9c0-5.3,0.5-10.5,0.7-14.8c3-4,6.3-4.2,9.7-4.3c6-0.1,12-0.1,18-0.1c288.6,0,577.2,0,865.8,0
		C5910.5,257.8,5919.2,257,5928.7,259.5z"/>
	<path class="st0" d="M2852.2,2093.5c2,16.5,2.1,91.8,0.1,109c-14.7,8.4-31.3,13.3-46.9,20.4c-37.4,0-74.7,0-111,0
		c-4.3-2.3-5-5.5-5.1-8.9c-0.1-3.3-0.2-6.7-0.2-10c0-37.3-0.1-74.6,0-111.9c0-5.8-1.1-12,2.3-17.2c14.2-3.1,50.1-3.7,113.2-1.8
		C2819.8,2079.3,2836.8,2085.1,2852.2,2093.5z M2825.7,2111c-14.4-8.4-28.6-12.8-44.5-12c-16.6,0.8-33.3,0.1-49.9,0.2
		c-4.6,0-9.1,0.7-13.4,1c-3.9,10.5-3.9,10.5-3.3,75.8c0.1,6.5-1.7,13.4,3.4,19.6c2.3,0.4,4.9,1.1,7.5,1.1c22,0.1,44,0.1,65.9,0.1
		c13.2,0,24.2-5.9,34.5-12.2C2827.9,2167.5,2827.9,2127.8,2825.7,2111z"/>
	<path class="st0" d="M4500.9,1157.7c4.2,5.6,3.2,11.1,3.2,16.3c0.1,27.3,0.1,54.7,0.1,82c0,32.7,0.1,65.3-0.1,98
		c0,5.9,1.2,12-1.9,17.4c-1.3,0.8-2.4,1.9-3.6,2c-20.1,1.6-78.5,1-91.6-0.8c-3-2.4-3-5.7-3.1-9.1c-0.1-9.3,0-18.7-0.1-28
		c-0.1-5.3-0.4-10.6-0.6-15.6c-1.5-2-2.5-3.9-4-5c-31.4-23.7-62.8-47.3-94.5-71.2c-18.6-0.8-37.3,0.1-55.9,0.1c-18,0-36,0.1-54,0.3
		c-18.5,0.2-37.1-0.5-53.4,0.4c-4.7,3.2-4.9,5.9-5,8.5c-0.2,4.7-0.3,9.3-0.3,14c0,40.7-0.1,81.3,0,122c0,6.6-1.2,13.3,2.5,20.5
		c15.2,3.5,31,2,47.2,1.9c3-3.8,6-7.3,8.6-11c13-18.6,25.8-37.3,38.7-55.9c3-4.3,6.4-8.4,9.9-12.9c21.6-0.5,42.8-0.4,64.6-0.1
		c1.1,2.9,2.5,5.2,2.7,7.7c0.4,5.3,0.3,10.7,0.3,16c0,67.3,0,134.6,0,202c0,6.6,0.7,13.3-1.3,20.3c-1.5,0.7-3.3,2.2-5,2.2
		c-20,0-39.9-0.1-60.4-0.3c-3-3.8-6.2-7.2-8.6-11c-12.7-19.5-25.3-39.2-38-58.8c-3.2-5-6.7-9.8-9.7-14.2c-15.5-2.8-32.3-3-48.2-0.6
		c-2.5,1.6-2.9,4.2-3.1,6.9c-0.2,2.7-0.3,5.3-0.3,8c0,38,0,76,0,114c0,4,0.6,7.9,1,12.8c6.2,6.3,12.6,12.9,19.2,19.5
		c3.8,3.7,7.7,7.2,11.8,11c30.1,1,60.1-0.2,89.8,0.8c1.2,2.6,2.7,4.4,2.7,6.1c0.2,24.7,0.2,49.3,0.1,74c0,1.2-0.9,2.4-1.7,4.4
		c-2.1,0.5-4.6,1.6-7.1,1.8c-5.3,0.3-10.7,0.3-16,0.3c-143.3,0-286.6,0-429.9,0c-7.3,0-14.6,0.7-21.9-1.4c-0.8-2.1-2.1-3.9-2.2-5.6
		c-0.2-24-0.2-48-0.1-72c0-1.8,1-3.7,1.4-5.1c1.6-0.9,2.7-2,3.9-2c18.6-0.5,37.3-0.8,55.2-1.1c7.3-4,11.5-10.1,16.7-15.3
		c5.1-5.2,10-10.6,14.2-15.1c1.5-19.5,1.4-345.2-0.1-362.3c-4.4-4.6-9.4-9.9-14.3-15.2c-4.5-4.9-9-9.9-12.7-14.1
		c-21.4-2.9-41.4,0.8-60.8-1.4c-1.2-1.5-2.7-2.5-2.8-3.5c-1.8-26.6-0.5-53.2-0.8-80.2c3.3-1.2,5.6-2.6,8.1-2.7c6-0.4,12-0.3,18-0.3
		c223.3,0,446.6,0,669.9,0C4485.8,1156.7,4493.8,1155.8,4500.9,1157.7z"/>
	<path class="st0" d="M4167.6,1377.3c-1-12-1.6-77.2-0.8-93.6c0.1-1.9,0.9-3.8,1.2-5c4.2-4.4,9-3.7,13.5-3.7
		c30.6-0.5,61.1-1,91.7-1.4c6-0.1,11.9,0,17.3,0c15.5,8.6,23.3,14.5,31.5,23.9c-0.2,0.6-0.4,1.6-0.6,1.6
		c-31.2,0.6-62.3,1.2-92.5,1.8c-6.3,3.7-9,9.3-12.4,14.1c-12.9,18.5-25.7,37.2-38.7,55.7c-1.9,2.7-4.2,5-6.7,7.1
		C4170.6,1378.2,4168.8,1377.4,4167.6,1377.3z"/>
	<path class="st0" d="M3680.5,1243.7c0.6,2.7,1.3,4.6,1.3,6.5c-0.1,132.6-0.2,265.2-0.3,397.8c0,1.9-0.9,3.8-1.3,5.6
		c-13.4,8.4-182.1,94-209.3,106.1c-145.2,0-291.1,0-438.2,0c-67.3-29.8-135.5-59.9-203.6-90.2c-1.8-0.8-3.2-2.4-5.1-3.9
		c-0.3-3.7-0.8-7.7-0.9-11.6c-1.6-92.1-1.1-375.2,0.7-396.6c2.8-1.8,6-4.3,9.4-6c63.7-32,127.4-63.9,191-96c8-4,16.1-5.7,24.9-5.7
		c41.3,0.2,82.6,0.1,123.9,0.1c89.3,0,178.6,0,267.9,0c4.7,0,9.3,0.2,14,0c10.2-0.6,19.6,1.8,29,6c31.5,14.3,63.3,28.1,95,42.1
		c29.2,12.9,58.5,25.8,87.7,38.8C3671.6,1238.8,3676.1,1241.4,3680.5,1243.7z M3389.9,1306.5c-21.5-21.3-41.9-42.2-62.6-62.3
		c-3.5-0.3-6.1-0.8-8.7-0.8c-44,0-88-0.1-131.9,0c-3.3,0-6.5,0.7-8.8,1c-24.3,22.5-51.1,50.1-60.5,62.4c-2,20.3-2.7,177.4-1.2,283.7
		c0.1,4.6,0.6,9.2,0.9,13.1c15,18.1,50.7,54.1,62.2,62.9c25.4,1.4,132.7,1,147.7-0.5c13.1-11,50.9-48.9,62.9-63.3
		C3389.9,1505.3,3389.9,1406.8,3389.9,1306.5z"/>
	<path class="st0" d="M4386.2,542.9c-0.9-2-2-3.8-2.3-5.6c-0.5-3.3-0.5-6.6-0.5-9.9c0-39.3,0-78.5,0-117.8c0-4.6-0.8-9.3,3.1-14.5
		c1.5-0.4,4-1.5,6.4-1.5c32.6-0.1,65.2-0.2,97.8,0c4.6,0,9.4,0.9,13.6,2.5c14.2,5.5,28.3,11.5,42.8,17.5c0.6,3.6,1.7,6.8,1.7,9.9
		c0.1,31.3,0,62.6-0.1,93.8c0,1.3-0.4,2.6-0.7,4c-1.9,3.8-5.7,5.1-9.4,6.6c-9.8,4-19.7,7.9-29.5,12.2c-5.6,2.4-11.2,3.8-17.4,3.8
		c-32.6-0.1-65.2,0-97.8-0.1C4391.5,543.9,4388.9,543.3,4386.2,542.9z M4521.2,432.5c-7-5-13.9-7.4-20.8-9.7
		c-4.3-1.5-9-2.7-13.5-2.8c-22.7-0.2-45.3-0.1-68,0.1c-2.5,0-4.9,1.2-7,1.8c-2.6,13.8-3.5,60.9-1.8,88.4c0.1,1.8,1.3,3.6,2.3,6.1
		c4.5,0.5,9,1.3,13.5,1.3c18,0.1,36-0.4,54,0.2c15.3,0.5,28.5-4.5,40.8-11.9C4523.1,490.5,4523.3,452.4,4521.2,432.5z"/>
	<path class="st0" d="M3172.5,626.1c-0.2-1.5-0.8-3-0.3-4.1c21-47.4,42.1-94.8,63.3-142.1c0.4-1,2-1.4,3.1-2.1c1,0.7,2.6,1.1,2.9,2
		c19.6,47.3,39,94.7,58.4,142c0.4,1-0.3,2.5-0.4,3.8c-1.2,0.5-2.4,1.3-3.6,1.3c-39.3,0.2-78.5,0.2-117.8,0.3
		C3176.2,627.2,3174.3,626.5,3172.5,626.1z M3236.1,544c-9,15.2-14.8,31.4-21.9,46.9c-1,2.3-1.1,5-1.5,7.3c1.7,1,2.8,2.1,3.9,2.2
		c13.2,0.1,26.4,0.1,39.6-0.1c1.5,0,3.1-1.7,5.2-2.9c-1.4-4.1-2.5-7.9-4-11.5c-5.3-12.8-10.6-25.6-16.2-38.3
		C3240.6,546.1,3238.2,545.4,3236.1,544z"/>
	<path class="st0" d="M3813.4,2129.7c17.4-17.7,33.8-34.4,50.1-51c1.8-1.9,4-3.4,5.6-4.8c16.9-1.6,122.7-2.1,154.5-0.7
		c11.5,8.2,44.8,40.9,58.5,57.6c0.2,2.1,0.8,4.7,0.8,7.4c0,107.3,0.1,214.6,0,321.9c0,2.6-0.6,5.3-1,8.8
		c-18.4,19.3-38,38.2-56.3,56.6c-16.8,1.4-130.4,1.7-154.1,0.5c-10.7-7.3-19-17.9-28.5-27.1c-9.5-9.3-18.8-18.9-27.4-27.7
		c-3.5-7.3-2.6-14-2.6-20.7c-0.1-32,0-64,0-96c0-67.3,0-134.6,0-201.9C3813,2145.4,3813.3,2138.1,3813.4,2129.7z M4056.3,2457.2
		c1.7-18.7,1.7-298.5,0.1-315.1c-10.3-12.8-29.6-32-42.2-42c-18.3-1.5-117.8-1.3-133.6,0.3c-15.6,13.1-33,31.2-41.3,42.8
		c-1.5,23-1.2,298.1,0.5,314.5c12.5,14.4,26.6,28.3,40.6,41.3c16.7,1.7,114,1.9,133.9,0.2
		C4028.2,2486.2,4042.3,2472.2,4056.3,2457.2z"/>
	<path class="st0" d="M3313.4,1274c15.4,14.2,29.7,29,44.2,43.9c0.4,4,1.3,7.9,1.3,11.8c0.1,83.9,0.1,167.7,0,251.6
		c0,3.3-0.5,6.6-0.7,10.5c-12.8,14.9-27.6,28.3-41.8,42.8c-3.1,0.4-6.3,1.2-9.6,1.2c-36.6,0.1-73.2,0-109.8,0c-2,0-4-0.4-5.8-0.6
		c-11.8-9.5-31.1-29.1-43.4-44c-1.5-15.2-1.8-247.9-0.4-271.4c9.3-12.1,30.2-33.5,44.4-45.5C3207.1,1273,3281.3,1272.6,3313.4,1274z
		 M3332.8,1580c1.5-20.8,0.5-41.5,0.7-62c0.2-20.6,0-41.3,0-61.9c0-21.3,0.1-42.6,0-63.9c-0.1-20.6,0.6-41.2-0.5-61.1
		c-9.7-11.5-19.7-21.1-29.2-29.9c-16.9-1.7-82.2-1.9-102-0.3c-9.4,8.9-19.7,18.2-28,28.8c-0.2,3.5-0.6,6.1-0.6,8.8
		c0,77.9,0,155.7,0,233.6c0,3.3,0.6,6.6,1,10.4c8.8,8.8,17.6,17.8,26.2,26.4c18.1,2.1,35.4,1,52.6,1c17.2,0,34.5,1.1,51.2-0.8
		C3314.7,1599.5,3324.5,1590.5,3332.8,1580z"/>
</g>
</svg>
