<?xml version="1.0" encoding="utf-8"?>
<!-- Generator: Adobe Illustrator 19.0.0, SVG Export Plug-In . SVG Version: 6.00 Build 0)  -->
<svg version="1.1" id="Layer_1" xmlns="http://www.w3.org/2000/svg" xmlns:xlink="http://www.w3.org/1999/xlink" x="0px" y="0px"
	 viewBox="0 0 2232.2 366" style="enable-background:new 0 0 2232.2 366;" xml:space="preserve">
<style type="text/css">
	.st0{fill:#FFFFFF;}
</style>
<g>
	<path class="st0" d="M1105.1,106.9c-1,6.3-2,12.6-2.9,18.9c-2.3,16-4.5,32.1-6.7,48.1c-1.8,13.3-3.5,26.5-5.3,39.8
		c-1.8,12.9-3.6,25.8-5.4,38.8c-1.5,10.6-3.1,21.2-4.6,31.9c-1.2,8.7-2.5,17.3-3.6,26c-0.6,4.7-2,10,1.9,13.7
		c2.6,2.4,6.5,3.5,10.4,5.4c0,0.6,0,2,0,3.9c-14.5,0-28.8,0.1-43.1-0.1c-1.1,0-2.1-1.5-3.2-2.3c0.8-0.9,1.6-1.9,2.5-2.6
		c0.6-0.4,1.6-0.5,2.4-0.6c9.9-2,12.3-4.3,13.8-14.4c3.1-21.6,6-43.1,9.1-64.7c3.2-22,6.6-44,9.8-66c2.5-17.5,4.7-35,7.2-52.5
		c2.1-14.9,4-29.8,6.9-44.6c2.2-11.3-10.1-31.5-24.1-32.3c-1-0.1-2.2,0.1-2.9-0.4c-1.3-0.9-2.3-2.3-3.5-3.4c1.3-0.7,2.6-2.1,3.9-2.1
		c16.5-0.1,33-0.2,49.5,0.1c1.7,0,4.2,1.9,4.9,3.6c13.1,29.6,25.9,59.3,38.9,89c16.4,37.7,32.9,75.4,49.3,113.1
		c2.6,6.1,5.3,12.1,7.9,18.2c0.6,1.3,1.3,2.5,2.5,5c4-8.9,7.4-16.7,10.8-24.5c18.3-41.9,36.7-83.8,55-125.8
		c10.9-24.8,21.8-49.6,32.5-74.5c1.3-2.9,2.5-4.4,6-4.4c14.3,0.2,28.6,0.1,42.8,0.1c1.7,4.3-0.3,5.5-3.7,6
		c-12,1.6-18.3,8.3-17.6,20.3c0.8,13.4,2.4,26.7,4,40c1.6,13.1,3.9,26.1,5.8,39.2c1.8,13.1,3.3,26.2,5.2,39.3
		c1.8,12.9,3.9,25.8,5.7,38.7c1.8,13.1,3.4,26.2,5.2,39.3c1.8,13.1,3.9,26.1,6,39.2c0.4,2.6,1.3,5.1,2,7.6c1.8,6.5,6,10,12.7,10.7
		c4.3,0.5,4.4,0.7,3.9,5.7c-21.9,0-43.9,0-67.1,0c1-2,1.4-4.2,2.5-4.7c3.4-1.5,8.3-1.1,9.2-5.6c0.9-4.6,0.9-9.5,0.4-14.2
		c-1.5-13.1-3.5-26.2-5.3-39.3c-2.1-15.4-4.2-30.8-6.4-46.1c-1.8-13.2-3.8-26.5-5.6-39.7c-1.8-12.8-3.5-25.5-5.3-38.3
		c-1.5-11-3.1-21.9-4.7-32.9c-0.3-2.1-0.9-4.1-1.6-7.4c-1.4,2-2.2,3-2.7,4c-19.3,44-38.6,88.1-57.9,132.1
		c-13.1,29.8-26.2,59.6-39.4,89.3c-0.5,1.2-2.4,2.8-3.3,2.6c-1.4-0.3-3.1-1.7-3.8-3.1c-6.6-14.6-13-29.3-19.4-44
		c-13.3-30.1-26.5-60.2-39.8-90.2c-12.4-28-24.7-55.9-37.1-83.9c-0.8-1.7-1.7-3.4-2.6-5.1C1106.2,106.8,1105.7,106.9,1105.1,106.9z"
		/>
	<path class="st0" d="M22.5,333c-0.1-1.5-0.1-2.8-0.2-4.3c2.4-0.4,4.6-0.7,6.9-1.2c8.9-1.9,13.1-7.1,13.1-16.4c0-35.5,0-71,0-106.5
		c0-42.3,0-84.7,0-127c0-4.8-0.4-9.6-1-14.4c-0.8-6.6-5-9.7-13.1-10.1c-3.4-0.2-6.9-0.4-5.3-5.7c25.3,0,50.6,0,75.8,0
		c1.7,4-0.4,5.3-3.7,5.7c-1.5,0.2-3,0-4.5,0.3c-9,2-12.3,6.6-12.3,17.5c0,27.2,0,54.3,0,81.5c0,9.3,0,18.7,0,28.4
		c51.6,0,103,0,155.1,0c0-1.7,0-3.4,0-5.2c0-34.5,0-69-0.1-103.5c0-3.5-0.5-7-1.3-10.3c-1.2-5.2-5.1-8-10.7-8.7
		c-2.9-0.3-7.6,0.6-7.4-3.6c0.3-4.2,4.9-2.2,7.5-2.2c20.8-0.2,41.7-0.1,62.5-0.1c2,0,3.9,0,5.7,0c1,3.2,0.7,5-2.7,5.3
		c-3.1,0.3-6.2,0.9-9.2,1.7c-4.6,1.1-6.8,4.7-7.4,9c-0.7,5.1-1,10.3-1,15.4c-0.1,74.2-0.1,148.3,0,222.5c0,5,0.4,10,0.9,14.9
		c0.7,6.4,5.8,10.6,12.4,11.5c2.9,0.4,8.4-1.4,7.2,5.5c-1.6,0.1-3.1,0.3-4.6,0.3c-22.2,0-44.3,0.1-66.5-0.1c-1.7,0-3.5-1.5-5.2-2.3
		c1.6-1.1,3.1-2.9,4.9-3.2c11.9-2.5,14.7-5.1,14.8-17c0.2-39,0.1-78,0.1-117c0-0.6-0.2-1.3-0.3-2.1c-51.4,0-102.7,0-154.8,0
		c0,1.7,0,3.5,0,5.2c0,35.7,0,71.3,0,107c0,4.3,0.5,8.6,1,12.9c0.7,5.4,6,10.1,11.5,10.7c2.6,0.3,5.2,0.7,8.1,1.1c0,1.6,0,3,0,4.6
		C73.4,333,48.1,333,22.5,333z"/>
	<path class="st0" d="M2203.2,336.6c-2-1.1-3.5-1.6-4.5-2.6c-17.9-18.8-35.8-37.6-53.7-56.4c-12.6-13.3-25.4-26.4-38-39.6
		c-27.2-28.5-54.5-57.1-81.6-85.6c-15.1-15.9-30.2-31.9-45.3-47.8c-1.4-1.5-3.1-2.8-5.8-5.3c0,3.4,0,5.3,0,7.2c0,67.5,0,135,0,202.4
		c0,12.7,3.2,16.6,15.7,18.3c3.6,0.5,5.2,1.7,4,5.6c-0.9,0.1-1.8,0.4-2.8,0.4c-16.7,0-33.3,0.1-50-0.1c-1.5,0-2.9-1.3-4.4-2.1
		c1.3-1.1,2.6-2.3,4-3.3c0.5-0.4,1.3-0.4,1.9-0.4c13.3-0.2,15.3-5.9,15.6-17.9c0.5-17.6,0.1-35.3,0.1-53c0-52.2,0-104.3,0-156.5
		c0-10.7-2-21-5.8-31c-3.8-9.9-11.4-14.6-21.5-15.8c-3.1-0.4-6.3-0.4-9.4-1c-1.1-0.2-2-1.7-3-2.5c1-0.8,2.1-2.3,3.1-2.3
		c17.3-0.1,34.7-0.1,52,0c1.2,0,2.8,1,3.7,1.9c21.2,22.1,42.3,44.3,63.4,66.5c26.9,28.2,53.7,56.4,80.6,84.6
		c21.2,22.3,42.4,44.7,63.6,67c0.6,0.7,1.6,1,3.5,2.2c0-2.7,0-4.6,0-6.5c0-63,0-126,0-189c0-15.3-3.8-20.6-17.1-21.4
		c-1.1-0.1-2.2-0.5-3.6-0.9c0-1.4,0-2.8,0-4.7c4.4,0,8.5,0,12.6,0c13.7,0,27.3-0.1,41,0.1c1.6,0,3.1,1.5,4.7,2.4
		c-1.4,1.1-2.7,2.7-4.3,3.3c-1.6,0.7-3.6,0.2-5.4,0.6c-9.1,2.4-11.9,6.6-12.9,19.7c-0.2,2.2-0.1,4.3-0.1,6.5c0,83.3,0,166.6,0,249.9
		C2203.2,331.7,2203.2,333.7,2203.2,336.6z"/>
	<path class="st0" d="M831.8,333c-26.8,0-53.4,0-79.9,0c-1.6-3.7,0.2-5.1,3.3-5.6c1.6-0.2,3.4,0.1,5-0.3c10.6-2.6,12.6-5.6,13-17.9
		c0.6-18.5,0.2-37,0.2-55.5c0-63,0-126,0-189c0-2,0-3.9,0-6.1c-1.4-0.1-2.4-0.3-3.3-0.3c-22.5,0-45-0.1-67.5,0
		c-3.8,0-7.7,0.3-11.4,0.9c-3.7,0.6-5.1,3.3-4.5,7c0.3,2.1,0.6,4.2,0.9,6.2c-0.4,0.4-0.8,0.8-1.2,1.3c-1.6-1-4.1-1.6-4.7-3
		c-4.3-9.6-8.2-19.5-12.2-29.3c-0.3-0.7,0-1.6,0-3.5c2,0.5,4.7,0.4,5.2,1.5c4.6,9,13.3,7.4,20.6,7.5c23.5,0.5,47,0.2,70.5,0.2
		c36.5,0,73,0,109.5,0c7.6,0,15.3-0.1,22.9-1.1c3-0.4,5.8-3.1,8.7-4.9c1.8-1.1,3.3-2.5,5-3.7c0.5,0.4,1,0.9,1.4,1.3
		c-0.3,1.3-0.5,2.7-1,4c-3.6,9-7.2,18.1-11.2,27c-0.7,1.5-2.9,2.3-4.4,3.4c-0.5-1.6-1.5-3.2-1.4-4.8c0.6-6.8-0.5-8.8-7.4-9.2
		c-11.9-0.6-23.9-0.8-35.9-0.9c-14-0.1-28,0-42.6,0c-0.1,2-0.2,3.7-0.2,5.5c0,80,0,160,0.1,240c0,5.1,0.8,10.2,2.1,15.2
		c1.4,5.7,5.5,8.2,11.4,8.4c2,0.1,3.9,0.8,5.9,0.8C832,328.1,832.8,329.6,831.8,333z"/>
	<path class="st0" d="M446.6,50.3c1.2-1,2.5-2.9,3.7-2.9c25.1-0.1,50.3,0,75.4,0c0.3,0,0.6,0.2,1.1,0.5c0,1.2,0,2.4,0,3.7
		c-4.3,0.9-8.5,1.4-12.6,2.6c-6.5,1.9-8.8,5.2-9.2,11.9c-0.1,1,0,2,0,3c0,80.5,0,160.9,0,241.4c0,10.2,4.2,17.1,15.2,17
		c1.1,0,2.3,0.5,3.4,0.7c3.2,0.7,3.2,0.7,3.2,4.8c-26.4,0-52.8,0-79.4,0c0-1.5,0-2.7,0-4.4c3.2-0.4,6.3-0.9,9.3-1.2
		c7.1-0.8,11.3-5.8,11.4-14.3c0.4-22.1,0.8-44.2,0.9-66.4c0.1-55,0.1-109.9,0-164.9c0-5-0.1-10-1-14.9c-2.2-11.6-4.5-13.1-15.4-14.6
		c-1.6-0.2-3.3-0.2-4.9-0.3C447.5,51.4,447,50.9,446.6,50.3z"/>
	<path class="st0" d="M1789.9,327.7c-10.6-1-16.5-7.9-20.6-16.6c-4-8.3-7.4-16.9-10.9-25.4c-18.7-45.6-37.4-91.3-56.2-136.9
		c-14-34.1-28-68.1-41.9-102.2c-1-2.6-2.4-4.1-5-3.3c-1.8,0.5-4.2,1.5-4.7,3c-30.4,75.3-60.6,150.6-91,225.9
		c-5.9,14.5-11.9,29-18.4,43.2c-3.1,6.8-8.3,11.6-16.3,12c-0.6,0-1.4,0.2-1.9,0.5c-1.2,0.9-2.2,2-3.3,3c1.3,0.8,2.5,2.1,3.8,2.2
		c3.8,0.3,7.7,0.1,11.5,0.1c10,0,19.9,0,29.6,0c1.7-4.1-0.3-5.4-3.3-5.8c-3.6-0.4-5.5-2.2-5-5.9c0.3-1.9,0.8-3.9,1.6-5.7
		c14.8-36.9,29.7-73.7,44.5-110.6c1.1-2.7,2.9-3.1,5.4-3.1c24.5,0.1,49,0.1,73.5,0c3.5,0,4.9,1.3,6.1,4.3
		c9.4,23.3,19,46.4,28.4,69.7c5.7,14.2,11.2,28.5,16.7,42.8c1.8,4.6,0,7.3-4.7,8.4c-3.2,0.7-4.5,2.3-2.9,5.9c22,0,44,0,65.9-0.1
		c1,0,2-1.6,3-2.5C1792.5,329.6,1791.3,327.8,1789.9,327.7z M1608,191.4c11.8-29.4,23.5-58.4,35.2-87.5c0.5,0,1.1,0,1.6,0
		c11.7,29,23.4,58,35.3,87.5C1656.1,191.4,1632.5,191.4,1608,191.4z"/>
</g>
</svg>
