<svg xmlns="http://www.w3.org/2000/svg" width="752" height="292" viewBox="0 0 752 292">
  <defs>
    <style>
      .cls-1 {
        fill: none;
      }

      .cls-1, .cls-2 {
        stroke: #fff;
        stroke-width: 4px;
        fill-rule: evenodd;
      }

      .cls-2 {
        fill: #fff;
      }
    </style>
  </defs>
  <path class="cls-1" d="M562,75c6.488-10.512,17.935-20.065,31.719-24.813,12.19-5.7,29.869-1.923,38.19,3.97,7.451,6.395,14.681,12.518,16.006,28.738A10.913,10.913,0,0,0,648,86c12.07-20.3,23.4-40.408,55.047-44.912,17.634-1.768,30.478,6.842,36.713,14.683,5.813,5.834,12.9,23.519,6.837,39.826-23.808,40.526-49.512,79.155-74.344,119.656-12.022,19.978-24.984,39.016-44.131,52.9-9.445,6.28-18.332,12-34.622,16.157-16,3.762-32,6.143-49.2,2.017-13.334-6.068-20.549-10.653-25.369-24.962-2.9-10.743-.963-24.871,5.564-33.862-1-1.833-2-.667-3.662.34-13.86,9.226-50.045,24.07-79.6,16.658-9.482,7.677-27.858,10.2-41.235,6.358-11.579-5.076-18.456-9.427-23.037-22.2l-2.348.9c-6.937,12.349-16.894,20.8-30.85,26.446-20.873,6.365-39.721.357-46.056-9.275a34.073,34.073,0,0,0-4.209-.233c-7.665,7.579-14.145,12.665-27.95,16.338-14.706,5.275-30.183-3.077-36.164-6.609-11.278,7.9-36.972,17.345-54.591,9.6-24.451-12.028-34.323-33.767-51.988-49.757,0.693-.571-1.971-0.241-1.971-0.241-4.788,29.087-13.231,44.477-26.991,54.862-11.665,9.982-37.776,22.939-62.48,15.367-14.537-5.629-22.974-10.786-27.45-23.817C1.862,231.339,40.262,86.347,48,58c4.579-17.346,19.194-32.063,34-39,19.567-11.291,61.323-4.251,72,17,2.471,5.188,4.79,15.482,7.02,19.81,4.579-2.278,29.974-22.483,44.327-33.462,12.447-9.38,37-24.718,63.479-16.361,14.207,5.8,20.837,14.033,26.428,25.894C299.163,39.725,296.534,48.545,298,55c35.927,0.367,31.915,12.47,40,23,12.879-8.4,41.41-14.647,51.023-1.479,7.262-4.959,25.233-4,23.469-18.294,2.639-11.169,6.362-21.9,11.162-27.335,9.724-12.8,24.829-26.133,52.455-24.237,16.457,4.487,22.778,10.415,28.34,22.529,4.36,8.327,2.53,18.061,2.213,26.233,10.838-1.629,19.838.3,28.838,2.345,10.517,4.222,18.918,8.821,25.251,15.488C560.5,73.5,561.532,74.533,562,75Z"/>
  <path class="cls-2" d="M124,113c-1.735,1.533,42.4-34.352,117-87,27.428-19.358,43.952,27.054,30,38s-97,74-97,74l52,61s-6.581,29-5,32c2.144,4.065-15.092,20.343-32,18s-45.258-45.933-62-61-22,7-22,7-2.89,8.849-13,46c-12.621,36.314-73.576,33.24-71,8S65,70,65,70c10.31-40.466,78.764-38.044,74-18Z"/>
  <path class="cls-2" d="M113-154"/>
  <path class="cls-2" d="M253,159c-9.449,36.345-8.55,33.015-16,63s41.913,28.8,49-1,10.367-43.555,16-63S262.449,122.655,253,159Z"/>
  <path class="cls-2" d="M269,92c-15.664,21.979,2.527,31.9,5,33a35.438,35.438,0,0,0,40-13c20.385-27.113-1.878-35.9-6-37S284.664,70.021,269,92Z"/>
  <path class="cls-2" d="M337,108c-8.05,28.339-23.351,90.924-29,113s43.351,21.419,49,0,14.686-48.321,16-52,6.156-20.542,24-28c8.147-3.405,26.832-13.824,38-20,26.07-12.663,5.7-47.39-19-31-16.686,9.592-28.69,14.845-31,16C379.137,80.581,344.09,83.043,337,108Z"/>
  <path class="cls-2" d="M577,98c3.5,25.149,16.859,104.619,17,108s-6.545,13.175-15,14-24.609-8.85-37,18c-3.474,7.528-8.931,19.213,1,27,5.492,2.934,23.7,12.227,63-6,17.014-9.655,23.085-18.6,30-27,1.258-2.226,85.359-135.584,93-148,6.368-21.329-31.9-33.419-44-14s-48,72-48,72-8.816-49.083-12-65S573.5,72.851,577,98Z"/>
  <path class="cls-2" d="M412,152c-1.151,3.166-9.472,28.322-17,59s36.228,21.778,42,9c61.7,20.719,95.575-25.679,100-32s27.892-27.72,25-70c-4.088-59.764-78.273-38.371-84-35,2.712-12.943,4.682-19.861,9-39s-38.653-28.2-47-1-8.28,25.841-9,28C480.652,81.217,466.833,142.215,412,152Zm72.531-32.531c6.585,2.415,7.722,10.382,14.969,14.031,5.069-.154,15.148.327,16.5,2.5-0.607,5.708-5.776,11.558-9.8,16.5,1.256,6.333,2.638,12.9,1.825,19.25-6.111,3.742-11.384-1.8-19.026-1.75-4.086,2.914-11.261,8.738-18,10-3.822-4.248-1.267-12.586-1.337-18.663-4.158-4.885-10.478-7.522-12.875-14.6,3.636-3.811,13.192-6.516,18-10.879C477.5,130.346,480,122.389,484.531,119.469Z"/>
</svg>
