<?xml version="1.0" encoding="utf-8"?>
<!-- Generator: Adobe Illustrator 19.0.0, SVG Export Plug-In . SVG Version: 6.00 Build 0)  -->
<svg version="1.1"
	 id="svg2" xmlns:cc="http://creativecommons.org/ns#" xmlns:dc="http://purl.org/dc/elements/1.1/" xmlns:inkscape="http://www.inkscape.org/namespaces/inkscape" xmlns:rdf="http://www.w3.org/1999/02/22-rdf-syntax-ns#" xmlns:sodipodi="http://sodipodi.sourceforge.net/DTD/sodipodi-0.dtd" xmlns:svg="http://www.w3.org/2000/svg" sodipodi:docname="20110505132230!Tloftr-logo.svg" inkscape:version="0.48.4 r9939"
	 xmlns="http://www.w3.org/2000/svg" xmlns:xlink="http://www.w3.org/1999/xlink" x="0px" y="0px" viewBox="66.3 344.2 483.4 101.1"
	 style="enable-background:new 66.3 344.2 483.4 101.1;" xml:space="preserve">
<style type="text/css">
	.st0{display:none;fill:#FFFFFF;}
	.st1{fill:#FFFFFF;}
</style>
<sodipodi:namedview  id="namedview3308" bordercolor="#666666" borderopacity="1" pagecolor="#ffffff" inkscape:window-height="951" inkscape:pageshadow="2" inkscape:current-layer="svg2" inkscape:window-width="1513" inkscape:window-y="0" fit-margin-bottom="0" fit-margin-right="0" inkscape:window-x="0" inkscape:window-maximized="0" inkscape:cy="-78.770266" inkscape:cx="110.53141" fit-margin-top="0" guidetolerance="10" gridtolerance="10" showgrid="false" fit-margin-left="0" inkscape:zoom="1.53" objecttolerance="10" inkscape:pageopacity="0">
	</sodipodi:namedview>
<g id="layer1" transform="matrix(0.27139621,0,0,0.27139621,105.53784,-102.59591)">
	<rect id="rect4083" x="-388.9" y="1493.9" class="st0" width="2255" height="686.4"/>
	<g id="g4086" transform="matrix(3.5433071,0,0,3.5433071,-515.40071,106.23231)">
		<path id="_58098968" inkscape:connector-curvature="0" class="st1" d="M195.1,434.8l-2.3-0.1l-1.6,0.1h-7.8l-0.8,0.6l0.6,0.2
			l0.4,0.3c0.4,0.3,0.5,0.5,0.5,1v1.1l0.1,0.9c0.3,0.1,0.4,0.4,0.3,0.8l-0.3,0.9l0.4,0.8c-0.2,0.4-0.2,0.6,0,1.1l-0.2,1.5l-0.2,5
			c0,0.5-0.1,1-0.5,1.5l-0.8,0.2l-0.5,0.6l0.5,0.1l11.3,0.1l0.2-0.1c0.5-0.1,0.9-0.3,1-0.9l0.3-1.3l0.3-2l-0.3-0.1h-0.3l-0.3,0.4
			l-0.2,0.4l-0.8,1l-1,0.8l-1.4,0.2h-2.4c-1-0.1-1.5-0.4-2-1c-0.2-0.3-0.3-0.5-0.2-0.9v-0.9l0.2-0.9v-1.1c-0.3-0.1-0.3-0.4,0-0.5
			l0.1-0.8l0.1-0.1h0.3h3.8c0.1,0.1,0.1,0.1,0.4,0.1l1.2,0.6l0.5,0.6l0.6-0.2l0.2-4.1l-0.2-0.3l-0.6,0.3l-0.2,0.8
			c-0.4,0.2-0.9,0.4-1.4,0.5l-4.8-0.1c-0.2-0.3-0.3-0.8-0.2-1.2c0.2-0.3,0.2-0.8,0-1.2l0.3-1.4l-0.3-1.5c0.3-0.3,0.6-0.3,1.1-0.3
			l3.3,0.2l0.6-0.2h0.5l0.4,0.3c0.4,0,0.6,0.4,0.9,0.9l0.4,1.2l0.4-0.1l0.2-2.8l0.3-0.5C195.5,435.1,195.4,435,195.1,434.8
			L195.1,434.8z"/>
		<path id="_69891472" inkscape:connector-curvature="0" class="st1" d="M179,436.9l0.8-1c0.2-0.3,0.6-0.5,1.1-0.5l0.2-0.2V435
			l-1.8-0.3l-1.6,0.1l-2.6-0.1l-1.1,0.4c0.3,0.3,0.6,0.4,1.1,0.5l0.6,0.9l0.3,1l0.4,3.1c0.1,0.8,0,1.3-0.4,1.7l-1.8-0.4H169
			c-0.5,0.2-1,0-1.4-0.2v-2.8l0.4-2.6l1-0.6l0.4-0.1l0.4-0.3l-0.4-0.4c-0.1,0-0.2,0-0.2-0.1l-6.1,0.3l-0.4,0.5l1,0.3l0.5,0.4
			c0.2,0.4,0.5,1,0.5,1.4l0.1,2.5l-0.1,1.1c0.3,0.4,0.3,1,0.1,1.5l-0.1,2.7c-0.1,0.2-0.1,0.5,0.1,0.9c0.2,0.1,0.2,0.4,0.2,0.9
			l-0.2,1.4l-0.4,1.3c-0.1,0.5-0.4,0.6-0.8,0.6l-0.6,0.3l-0.3,0.4l2.6,0.1l0.2-0.1l3.8,0.1l0.6-0.4l-0.9-0.3c-0.6-0.2-1-0.8-1.1-1.4
			l-0.3-1.7l0.1-1.9l-0.2-0.8l0.1-0.9l0.8-0.5l5.5,0.1l2.1-0.8l0.1,1.1l-0.1,0.9l0.1,1c0.2,1.2,0.2,2.5-0.2,3.8c0,0.4-0.3,0.8-0.8,1
			l-0.9,0.4v0.4h6.5l0.1-0.4l-0.8-0.3l-0.5-0.4c-0.4-0.9-0.6-1.7-0.6-2.9l-0.1-3c-0.1-0.3-0.1-0.6,0-1l0.1-1.8v-1.2
			c-0.2-0.4-0.2-1-0.1-1.4C179.2,438.1,179.2,437.6,179,436.9L179,436.9z"/>
		<path id="_69815768" inkscape:connector-curvature="0" class="st1" d="M157.8,434.8l-0.3,0.3l-6.4-0.4l-1.2,0.1l-1-0.1l-0.3,0.4
			l-0.1,0.3l-0.3,2.9l-0.2,0.5c-0.1,0.3-0.1,0.5,0,0.8c0.5-0.2,0.8-0.3,1-0.8l0.2-1c0.3-1,0.9-1.4,1.7-1.4h2.4v1.4
			c0,0.9,0.3,1.4,0.8,1.8l-0.4,0.1l-0.3,7c0.1,0.6,0.1,0.9,0,1.3l-0.1,1.6c-0.3,0.4-0.6,0.8-1.1,0.9c-0.5,0-1,0.2-1.3,0.6
			c0.1,0.1,0.3,0.2,0.8,0.2l6.8-0.1l0.3-0.1c0.1-0.2,0.1-0.4-0.1-0.6l-1.6-0.2l-0.4-1.6l-0.3-1.3c0.1-0.4,0.1-1.1,0-1.6l-0.1-1.6
			c0.1-0.9,0.2-1.9,0.1-3l-0.1-3.1c0.1-0.2,0.1-0.6,0.1-1.2l0.5-0.4l2.8-0.2c0.4,0,0.8,0.5,0.9,1.4v0.8l0.3,0.8l0.4-0.2l0.1-4.2
			l-0.1-0.1l-2.8,0.1L157.8,434.8L157.8,434.8z"/>
	</g>
	<g id="g4091" transform="matrix(3.5433071,0,0,3.5433071,-515.40071,106.23231)">
		<path id="_69863352" inkscape:connector-curvature="0" class="st1" d="M339,493.2l-4.8,0.2l-0.5,0.3l-9.5-0.4l-1.6,0.1l-1.6-0.1
			l-0.3,0.3c0,0.1-0.1,0.2-0.2,0.5l-0.6,4.3c0,0.3-0.1,0.6-0.3,1c-0.1,0.4,0,0.6,0.2,1c0.8-0.1,1.2-0.3,1.2-1l0.5-1.6
			c0.3-0.9,0.9-1.5,1.4-1.6l4.5-0.1l0.2,1.7c0,0.5,0,1,0.2,1.6l0.6,1.4c0,0-0.2,0.1-0.3,0.1h-0.1l-0.4,12.3c-0.3,0.5-0.3,1.3-0.3,2
			l-1.6,1.4l-1,0.2l-0.8,0.5c0.1,0.4,0.4,0.6,0.9,0.4l10.1-0.1l0.4-0.3c0.3-0.3,0.3-0.4,0-0.8l-2.4-0.2c-0.3-0.3-0.3-0.4-0.3-1.1
			l-0.4-1.6l-0.3-1.8l0.1-2.1l-0.4-2.5l0.4-4.5l-0.4-4.5c0.3-0.5,0.4-1.2,0.3-1.8l0.8-0.6l4.2-0.4c0.5,0.1,1,0.9,1.2,2.1l0.1,1.2
			c-0.1,0.3,0,0.8,0.1,1.1c0.4,0.1,0.6,0,1-0.3v-3c-0.2-1.2,0-2.3,0.2-3.2L339,493.2z"/>
		<path id="_58764928" inkscape:connector-curvature="0" class="st1" d="M351.8,493.4l-0.8-0.1l-9,0.1c-0.2,0.2-0.4,0.4-0.4,0.9
			c0.4,0.3,0.9,0.4,1.3,0.4l0.8,0.8c0.5,0.6,0.9,1.2,0.9,2v2.1l0.1,1.5l-0.1,1.6l0.4,1.1l-0.3,1.3l-0.1,4c-0.3,0.4-0.1,0.8,0.1,1.2
			c0.3,0.2,0.5,0.9,0.3,1.4c-0.3,0.6-0.3,1.2-0.4,1.9l-0.4,2l-1,0.9c-0.6,0.1-0.9,0.2-1.3,0.4c-0.3,0.1-0.3,0.2-0.3,0.6h3.9l0.2-0.1
			l5.6,0.3l0.6-0.3l0.4-0.4l-1.4-0.3c-1-0.5-1.4-1.1-1.7-2.1c-0.1-0.8-0.2-1.7-0.2-2.7l-0.2-1.4l0.2-1.3l-0.3-1v-0.8
			c0-0.3,0-0.5,0.1-0.8l0.6-0.5l0.6-0.1h8c1.1-0.2,2.1-0.4,3.1-1.1l0.2,1.6c-0.2,0.3-0.2,0.8,0,1.3l0.1,1.5c0.3,1.7,0.1,3.8-0.4,5.5
			c0,0.8-0.3,1.2-1.1,1.3c-0.5,0-1,0.3-1.4,0.8l0.1,0.5h9.4l0.4-0.5c-0.3-0.2-0.5-0.2-1-0.3l-1.1-0.8c-0.5-1.3-0.9-2.7-1-4.2V507
			c-0.2-0.4-0.2-0.9-0.2-1.2l0.4-2.9v-1.8c-0.4-0.8-0.4-1.5-0.2-2.3c0.2-0.6,0.4-1.5,0.2-2.3l0.9-1.6c0.5-0.5,1.1-0.8,1.6-0.9
			c0.2-0.1,0.3-0.3,0.4-0.1l0.2-0.4l-1.3-0.4l-4,0.2l-4.1-0.1c-0.5-0.1-1,0.1-1.3,0.5l0.6,0.4l0.9,0.3c0.4,0.3,0.9,0.5,1,1.2
			l0.4,1.3l0.3,2.4c0,0.6,0.1,1.5,0.3,2.6c0.2,1,0.1,1.7-0.4,2.5l-2.9-0.8h-8.6l-1-0.3c-0.2-1.3-0.2-2.6,0-4c0-1.4,0.1-2.7,0.5-4
			c0.3-0.4,0.9-0.9,1.4-0.9l1.4-0.5L351.8,493.4L351.8,493.4z"/>
		<path id="_69784960" inkscape:connector-curvature="0" class="st1" d="M373.8,493.3l-1.6,0.1c-0.8-0.1-1.1,0-1.2,0.8l1.7,0.9
			c0.4,0.3,0.6,0.8,0.8,1.3v1.7c-0.1,0.2,0,0.3,0,0.4l0.1,1c0.4,0.1,0.6,0.5,0.4,1l-0.4,1.2c0,0.2,0.2,0.8,0.6,1l-0.3,1.1l0.3,0.9
			c-0.2,0.4-0.3,1.2-0.4,2.1v3c-0.2,1.1,0,1.7,0,2.3c-0.2,0.5-0.2,1.4-0.2,2.3c0.2,0.8-0.1,1.5-0.9,1.9l-1,0.6
			c-0.4,0-0.8,0.3-0.9,0.8l0.9,0.3l1-0.2l15.8,0.3l0.1-0.1c0.8-0.3,1.2-0.8,1.4-1.3l0.5-1.9c0.3-0.5,0.4-1,0.4-1.6
			c-0.1-0.5-0.1-1,0-1.4c0-0.3-0.1-0.4-0.4-0.3H390c-0.2,0.1-0.4,0.4-0.4,0.6l-0.2,0.6l-1.3,1.5l-1.4,1.3l-1.9,0.1h-3.6
			c-1.1-0.1-2.1-0.5-3-1.6c-0.1-0.2-0.3-0.6-0.1-1.1v-1.1l0.2-1.4l-0.1-1.5c-0.3-0.4-0.3-0.8-0.1-1l0.4-1.1c0,0,0-0.1,0.2-0.1
			l0.3-0.1l5.7,0.1l1,0.3c0.4,0,1.1,0.2,1.3,0.5l0.9,1.3c0.3,0,0.6-0.1,0.9-0.4l0.3-6l-0.1-0.5c-0.6-0.1-0.9,0-1.1,0.5l-0.4,1
			l-1.8,0.9l-7.3-0.1c-0.2-0.6-0.4-1.1-0.2-1.7s0.2-1.2,0-1.8c0.4-0.5,0.5-1.1,0.4-2l-0.4-2.1c0.4-0.5,0.9-0.8,1.4-0.5l4.9,0.3
			l0.5-0.3h0.6l1.2,0.4c0.6,0.1,1.3,0.5,1.3,1.3c0.1,0.8,0.2,1.3,0.6,1.9l0.8-0.3l0.3-4.1l0.3-1c0.1-0.3,0-0.6-0.4-0.8h-6
			c-1.6,0.3-3.1,0.1-4.9,0C377.2,493,375.3,493,373.8,493.3L373.8,493.3z"/>
	</g>
	<g id="g4096" transform="matrix(3.5433071,0,0,3.5433071,-515.40071,106.23231)">
		<path id="_69898864" inkscape:connector-curvature="0" class="st1" d="M331.6,460.8l-1.3,1.1c-0.9,1.2-1.4,2.4-1.6,3.5l-0.1,1.8
			l-0.6,1.5v0.6l0.2,0.3l0.4,1.9c0.1,0.2,0.1,0.9,0.1,1.4c0.2,0,0.3,0.3,0.2,0.4l0.1,0.6l0.5,1c0.3,0.1,0.6,0.5,0.8,0.9l0.3,1.3
			l0.6,1.2l1.1,1.2l1.3,0.8c0.5,0.6,1.3,1,2.1,1.1c0.8,0.2,1.6,0.4,2.4,1.1l0.9,0.3h5.9c2.1-0.2,4.1-0.6,5.8-1.5
			c-0.1-0.3-0.4-0.3-0.9-0.3l-1,0.2l2.7-1.6l2.3-2.5l1-2.5c0-0.8,0.1-1.3,0.5-1.9c0.2-0.5,0.3-1.1,0.2-1.9c0.2-0.9,0.2-1.8,0-2.5
			l-0.4-2.5c-0.4-1.5-1.2-2.8-2-4.1c-0.4-0.9-1.2-1.4-1.7-1.9c-0.9-0.4-1.6-1-2.3-1.5l-1.7-0.8l-1.4-0.1c-0.6-0.5-1.2-0.6-1.9-0.6
			l-2,0.1l-1.6-0.1l-1.7,0.1l-2.6,1l-1.6,0.2c-0.5,0-1,0.2-1.4,0.6l0.5,0.1l1.1-0.4l1.1,0.1l-0.2,0.3l-2.5,1
			C332.5,460,332,460.4,331.6,460.8L331.6,460.8z M336,460.9l2.7-1.7l4-0.2l0.2,0.2l3.1,1c1,0.8,1.8,1.7,2.5,2.8l1.7,3.3
			c0.4,1.7,0.8,3.6,0.5,5.6c0.2,1.4-0.1,2.5-0.5,3.5c-0.2,0.5-0.3,1-0.6,1.4l-1.5,2l-1,0.6l-1.9,0.9l-3.3,0.1l-1.1-0.1l-3.3-1.5
			l-0.3-0.5l-2.3-2c0-0.6-0.1-1.1-0.3-1.5l-0.4-1.3l-0.8-1.2l-0.4-1l0.3-0.9c0-0.3,0-0.8-0.1-0.9l0.1-1.7c0-0.6,0.1-1.2,0-1.8
			c0.3-0.2,0.4-0.4,0.4-0.6v-0.9c-0.1-0.8,0.1-1.5,0.8-1.9C334.9,462.1,335.6,461.6,336,460.9L336,460.9z"/>
		<path id="_69832296" inkscape:connector-curvature="0" class="st1" d="M358.8,457.6l-0.9-0.3c-0.4,0-0.8,0-1.1,0.4v0.6l0.4,0.2
			c0.4-0.1,0.9,0.2,1.1,0.6l0.9,1.2l0.2,0.6v0.6c0.3,0.9,0.8,1.7,0.8,2.7c0.2,1.1-0.1,1.9-0.8,2.7c0.3,0.5,0.3,1,0.3,1.7l-0.1,1.6
			c0.1,1.1,0.3,2.3,0.1,3.4v3.3l-0.8,2.6l-0.6,0.8l-0.8,0.4l-0.3,0.3l-0.2,0.5l1.3,0.1l1.1-0.1h4.7l3.4,0.1l0.4-0.1l0.3-0.4
			l-2.7-0.9c-0.5-0.1-1-0.5-1.3-1.2l-0.4-1.7l0.2-0.9v-0.8c-0.3-0.8-0.3-1.6,0-2.1c0.2-0.8,0.4-1.5,0.2-2.1c0.3-0.4,0.8-0.6,1.2-0.4
			l1.5-0.2l4.7,0.2c0.8,0.2,1.2,0.6,1.3,1.4l0.3,1.1c0,0.2,0.3,0.4,0.8,0.4l0.4-0.4l0.4-5.3l-0.2-2.1c-0.5,0-0.9,0.1-1,0.4
			c-0.1,0.5-0.4,1-0.8,1.3l-1.3,0.8h-7.6v-2.9c0.4-0.9,0.5-1.7,0.2-2.5c-0.2-0.9-0.2-1.6,0-2.5c0.3-0.8,0.8-1.1,1.5-0.9l4.5-0.2
			l2.6,0.3l1.2,1.6l0.4,1.9h0.5l0.4-0.5l0.3-0.5v-2.5c0.1-0.8,0.1-1.6,0-2.5l-1.9-0.2l-8.7,0.1C363.1,457.7,361,457.7,358.8,457.6
			L358.8,457.6z"/>
		<path id="_58491952" inkscape:connector-curvature="0" class="st1" d="M329,495.7l-0.1,0.2c0.5,0,1.1-0.1,1.8-0.1L329,495.7z"/>
	</g>
	<path id="_58783888" inkscape:connector-curvature="0" class="st1" d="M564.5,1741.1c-7.6-4.6-14.8-7.6-22.4-10.3l-28.5-6.1
		l-42.2-0.4l-1.5,0.4l-17.9,1.1l-4.2,3.4c-1.9-0.4-3.4-0.8-4.9-1.9h-5.3l-4.2,2.7l-1.5,3.8c-0.8,1.1-1.5,1.1-1.9,0.8
		c-2.7-3-5.3-5.3-8.4-5.7h-11.8l-1.9,0.4l-1.1,0.8l-0.4,0.8l-2.7,0.8l-2.7-2.7h-1.5l-1.9,0.4h-4.6l-4.6,0.8l-1.5,0.8l-1.1,4.2
		c0,0,0,0.4,0.4,1.1l7.6,0.8h0.8c2.3,0.8,4.6,1.1,7.2,3.4l4.6,2.3l1.9,5.3c2.3,2.7,3.8,4.9,4.2,8l0.4,9.5c1.5,1.9,2.7,3.8,2.7,6.5
		l-0.4,4.2l-0.8,2.7l-0.4,1.9v3.8l0.4,1.9l-0.4,0.4v0.8v3l1.5,3.8c0.4,2.3,0.4,3.8-0.4,5.3v0.4v0.8l-0.8,0.4v1.1v1.5v1.5v1.5
		l0.8-0.4l0.4,5.3l-1.1,7.2c1.1,1.5,1.1,3.8,0.8,5.7l-0.8,5.7l1.1,1.9c0.4,2.3,1.1,4.6,0.4,6.8c-0.8,1.9-0.8,4.2-0.8,6.1l0.4,9.1
		c-1.1,2.3-1.5,4.2-1.1,6.8v6.5c1.1,2.3,1.5,3.8,1.1,5.7l-0.4,4.6c-0.8,1.1-1.1,2.7-0.8,4.2l0.8,8.4l-0.8,8.7
		c-1.5,0.8-1.9,2.3-1.5,3.4l1.5,3.4c0.8,1.1,0.8,2.7,0,4.2c-0.8,1.5-0.8,3,0,4.6c1.1,1.5,0.8,3.4-0.4,4.9c0,2.3-0.4,5.3-1.9,7.6
		l-2.7,7.6l-5.7,4.2c-1.1,0.4-1.5,0.4-1.9,0l-5.3-1.1l-5.7-3l-4.6-1.1l-13.3-13.3l-13.7-20.5l-20.1-35.4l-4.2-9.1
		c-1.9-3-3.4-6.1-3.4-9.9l5.7-4.6l14.8-16l4.6-7.6l1.1-1.9l0.8-2.7l2.7-6.1l3.8-25.1v-0.8l-1.1-3.4v-4.6l-5.7-15.6
		c-1.9-4.9-5.7-9.5-10.3-13.7c-4.9-4.6-10.6-8.4-16.3-11.4l-5.3-1.9h-0.8l-2.3-0.4l-0.8-0.8l-4.9-0.8v-0.8l-4.6-0.4l-0.4-0.8h-0.4
		l-8-0.8c-0.8,0-1.9,0-2.3-1.1l-15.6-0.4h-3.4l-37.6,1.5l-10.6,1.5l-22.4,0.4l-6.8,1.1c-3-0.4-4.9,0.4-6.1,2.7l1.1,4.6l5.3,0.4
		l5.7,2.3h0.8l1.9,0.4l4.6,4.2l1.1,1.5l1.9,6.1l0.8,6.1v1.9l0.8,2.7l1.1,2.3l1.5,16.3l-1.1,0.4v0.4l-0.4,2.3l0.4,13.7
		c1.1,1.5,2.3,3,2.3,5.3v1.5l-2.7,8c-1.1,3-1.1,6.8,0.4,10.3c0.8,1.5,1.1,3,0,4.6l-0.4,5.3l0.4,3.4v16.7l1.1,3.4l0.4,0.4l2.7,2.7
		l-3,6.1c-1.5,2.7-1.5,5.3-1.1,7.6v15.2l1.1,3l-1.1,3.8v2.7l-0.4,4.6v6.8c0,2.7-0.4,4.6-1.1,6.5c0.8,2.7,0.8,5.3,0,8l-1.9,7.2
		l-4.6,5.3l-5.3,4.6l-6.1,1.1c-2.7,0-4.6,1.1-6.1,2.7v1.9l0.4,3l4.6,1.1l15.2-0.4l3-0.8l28.1-0.8h0.4l3.8,0.8h3l6.5,0.8l13.3,0.4
		l9.5-0.4l3.4-0.8H290l1.5-2.3v-3l-4.2-1.5l-6.1-1.1l-4.6-2.3l-6.5-3.4l-4.9-6.1l-0.4-3.8c0.4-3,0-4.9-0.8-7.6
		c-1.5-1.9-1.9-4.6-1.9-7.2l0.4-2.3l-1.1-2.7l-0.4-8.4v-0.8v-7.2v-1.1c0.4-4.6,0.4-8.7,0.4-12.9l-1.5-14.8l0.8-0.4l1.5-1.5l3-1.1
		h0.4l0.8,0.4l6.8,1.1h1.1l11.8-1.5h1.5h6.1h2.3l1.9,1.5l5.7,13.3l12.9,24.3c1.9,4.6,4.6,9.5,8,14.1l9.5,14.4l11,12.2l5.7,5.3
		l6.1,3.4h0.8l0.4,0.8l4.9,1.5l5.3,2.3h4.9l3.8,1.1l1.5-0.4c0.4,0.4,1.5,1.1,2.7,1.1h0.4l3-1.1h18.6l17.9,1.1h0.4l2.7-1.1h1.5h1.5
		l1.9,0.4h1.9l3-0.4h18.6l3.8,1.1h39.9l2.3-0.8h0.4l9.1-0.4l11.8-1.5l1.5-0.8l5.7-0.8h1.5l3.8-0.8h0.8l0.8-0.8h1.9h0.4v-0.8
		c2.7,0,5.3-0.4,8-1.9l3.4-1.5l4.2-1.1l4.9-3.4l1.1-0.8l6.5-3.8c5.3-2.3,9.5-5.7,12.9-9.9l11.8-13.3l11-20.1l7.6-22.4v-1.5l1.9-9.1
		v-1.5l1.1-8.4l0.4-8.7c1.1-2.7,1.1-4.9,0.8-7.6v-1.5l-0.8-2.7l0.8-6.1l-3.4-12.9c-0.8-4.6-1.9-8.7-3-13.3l-4.9-13.3
		c-1.5-4.6-4.2-9.1-7.6-12.9l-8.7-10.6C578.6,1750.6,571.7,1745.2,564.5,1741.1L564.5,1741.1z M526.1,1752.5l4.2,1.9l10.3,6.8
		c1.1,1.9,2.7,3.4,4.2,4.9c1.9,1.1,3,2.7,3.4,5.3c3.8,3,6.8,7.2,8.7,12.2c2.3,1.5,2.7,3,2.3,5.7l3.8,4.9l1.5,5.3v0.4l-0.4-0.4
		c0.4,1.5,1.1,3,2.3,4.2l1.9,1.9c-0.4,1.5,0,3,1.1,4.2l2.3,3.4l0.8,0.8c0,0.8,0,1.9-1.1,3c-0.4,1.5,0.4,3,1.9,3.4h6.5l6.1-0.8
		l4.6,0.8h0.4l1.1-0.4h3l4.2,0.4l3.4,1.1l1.1,0.4l-0.4,1.5h-0.8l-3,1.1l-0.4,0.4H598h-1.1h-1.5c0,0-0.4-0.4-0.8-0.4h-2.7l-18.6,1.9
		l-2.3,1.9l-0.8,0.4l-0.8,2.7l2.3,3.8c0.8,1.1,0.8,2.7,0,4.2l-0.4,4.2v0.4c-0.4,1.5,0,3,0.4,4.6l0.8,1.1l-1.1,4.2v0.4v1.1v0.4
		l0.4,2.7l-0.4,1.5l-1.5,3.8v-0.8l-1.9,15.6c-0.8,4.6-2.3,9.1-4.9,12.5c-2.3,4.2-4.6,8.7-6.1,12.9l-8,10.3c-3.8,1.5-7.2,4.2-9.9,6.8
		c-3,2.3-6.5,4.6-10.3,5.3l-4.9,1.5c-1.5,1.1-3,1.9-5.7,1.1l-17.9,2.7l-42.6-4.2l-5.7,0.4l-7.2-1.9h-0.4l-1.1-1.9l2.7-3l2.3-1.5
		l4.2-1.1c1.5-0.4,2.3-1.1,2.3-2.3l-1.9-4.9l-0.4-8.4l-0.4-3v-2.3l0.8-4.9v-0.4v-2.7l-0.8-1.9c-0.8-2.7-0.8-5.3,0-7.2l0.4-16
		c-0.4-3.4-0.4-6.5,0-9.5l-1.1-60.1c1.1-2.7,1.5-5.3,0.8-7.2c-0.8-2.7-0.8-5.3,0-7.6c0.4-2.7,0.4-5.7,0-8.4v-0.4l0.4-6.1l-0.4-1.1
		v-1.9c-0.8-3.4-0.8-6.5,0.4-9.5v-3.4l0.4-1.5h0.8l6.1-1.5l6.1-0.8l12.9-1.9l15.2,0.4l12.9,2.3l1.5-0.8l5.3,1.1l0.4,1.1
		c1.5,0.4,3.4,1.5,4.9,1.5l1.1,0.4L526.1,1752.5L526.1,1752.5z M315.9,1764.3l1.5,3.4l4.9,8.7l0.8,3l1.1,1.1l1.1,4.6
		c0.8,2.7,0.8,5.7,0.4,8.7l-1.1,9.9c-1.5,2.7-1.9,4.9-1.9,8c0,3-1.1,6.5-2.7,8.4v1.9l-6.5,8.4c-2.3,2.7-4.2,4.2-7.2,4.9l-9.1,5.3
		l-11,1.9l-5.7-0.8l-5.3,0.4c-2.7-1.1-4.9-1.1-6.8,0c-1.9,0.4-4.2,0-5.7-1.9v-1.1v-1.1l-1.5-11.8v-3.4l1.1-3c0-2.7,0-4.2-0.8-6.5
		c-0.4-1.5,0-3.4,1.9-4.9l-1.1-3l0.4-3v-0.8l0.8-3c0.4-0.8,0.4-1.9-0.8-3l-1.1-3.4l-0.4-1.5l1.1-2.3l1.1-13.7v-0.4v-0.8l0.4-9.1
		c0.4-1.1,0.4-1.9,0.4-3v-0.8l-0.4-0.4l1.1-2.7l-0.8-6.5l0.8-6.1c0.4-1.1,1.5-1.5,2.3-1.5c1.1,0,2.3,0,3-0.8l17.1,0.8l8.7,1.9h0.4
		l9.9,5.7l4.6,4.6L315.9,1764.3L315.9,1764.3z"/>
	<path id="_58360592" inkscape:connector-curvature="0" class="st1" d="M-124,1651.3c-2.3,0.8-3.8,0.8-5.7,0l-4.6,1.1h-4.6
		c-1.5,0-1.9,0.4-1.5,1.5l-1.1,2.7v2.3l1.1,1.9h0.8l-0.8,0.4l14.1,1.5l4.9,5.7l1.5,4.2l1.1,0.4l4.2,4.6v0.4l-0.8,1.5l-0.8,2.7
		l-0.8,1.1l-0.4,1.5l0.4,2.7l2.3,2.3l0.4,2.3v1.5v0.4v0.8l-0.4,0.4l-1.1,4.6l1.1,4.6l0.4,2.3c0.4,1.5,0.4,3.4,0,5.3l1.9,17.5v0.8
		l0.8,1.9v0.4l-1.5,9.5v0.4l0.8,2.7v1.5l-0.8,4.9v1.5l0.4,2.3l3,10.3c1.5,1.9,1.9,3.8,1.9,6.1l-0.4,20.5c1.1,3.4,1.1,7.2,0.4,10.6
		l0.8,5.3c0.4,1.9,0,3.4-0.8,4.6l-0.4,5.7l1.1,17.1l-0.8,5.7l0.8,3c0.4,1.5,0,3,0,4.6v2.3l-2.7,9.1c0,2.7,0.4,5.3,1.9,7.6v1.1
		l-0.8,4.2l-0.8,0.4l0.8,4.6l0.4,1.1l0.4,1.1v-0.8c0.8,2.7,0.8,5.3,0,8l-1.9,9.1v8.7c0.4,2.7-0.4,5.7-1.5,7.6
		c-0.4,3.4,0,7.6,1.1,11.8c0.8,4.2,1.5,7.6,1.5,11.8c-0.8,3.4-2.3,7.2-6.1,10.3c-1.1,2.7-0.8,4.6,0.8,6.8l2.3-0.8l1.5,0.8
		c0,1.5,0.4,1.9,1.5,2.3l0.8,2.7l-3.4,3.4c-1.1,1.9-2.7,2.3-4.6,1.9l-0.4,1.5l0.4,1.5c-0.4,2.3,0,4.6,1.1,6.5
		c1.5,1.5,1.5,4.2,0.8,6.8l-4.9,6.1c-0.8,1.9-1.5,4.2-3.8,5.7l-8,4.9c-0.8,0.8-1.1,0.8-2.3,0.8c-0.4,0.4-0.8,0.4-1.9,0.4l-1.9,1.1
		l-5.3,0.8h-0.4l-1.5,4.6v0.8h-0.8v2.7l4.9,0.8l-4.9,0.8l10.3,1.5l70.3,0.8l3,1.1h3l9.5-1.1l90.1,1.5c1.5-0.4,2.7-1.9,3-3.4l3-7.2
		c1.5-1.9,1.9-4.6,1.5-7.2l4.6-16l-0.8,2.7l5.3-19.4l2.3-4.6v-2.3l1.1-0.4h9.5l1.1,1.1l10.3,0.4l29.7-1.9l2.7-1.1l3-1.1l2.7-0.4h1.9
		c1.5-0.4,3-1.5,4.6-2.3l5.3-1.5l3-1.5l2.3-1.5l11.8-4.9c2.3-1.1,4.9-2.7,6.8-4.2l3.4-4.2c2.3,0,4.2-0.8,5.7-3l9.9-10.3
		c1.1-1.9,2.7-3,4.6-3.4l5.3-7.6l3.4-9.5l1.5-1.5l3-4.2l0.4-2.3l3.8-3.8c0-3.4,0.4-6.1,1.9-8.7c1.5-2.3,2.3-5.7,1.5-9.1l1.5-3.4
		l2.7-11.8v-6.8v-1.5v-1.5l0.4-3.4c-0.4-2.3-0.4-4.2-1.5-6.5l-0.4-3v-3c0.4-7.6,0-14.4-2.7-20.5l-1.9-7.2c-0.4-2.3-1.5-4.6-3.8-6.1
		c-0.8-4.9-2.3-9.5-6.1-13.3c-3-7.2-7.2-13.3-12.5-19.4l-2.3-2.7l-26.6-22c-1.9-1.5-4.6-2.7-6.5-2.7l-6.5-1.9
		c-1.5-1.5-3-1.9-4.6-1.5l-6.1-2.7c-0.4,0-1.5,0-1.9-0.4l-2.3-1.5l-16-4.2l-28.1-0.4l-4.2,0.4h-4.6l-25.1,4.2l-6.1,2.7l-6.5,1.5
		l-15.2,7.6c-1.5,1.9-4.6,3.4-7.6,4.9l-6.1,3c-1.5,1.1-3,2.3-5.7,2.3l-3,2.7l-1.5,3.8c-0.4,1.1-1.5,2.3-3,2.7l-3.4,1.1l-2.7,2.3
		l0.8,3.4c0,0.8,0,1.9-0.4,3l-3.4-0.8v2.7c-1.5,4.2-3.8,8.4-6.1,11.4c-3.4,3.4-5.3,7.2-6.5,11c0,2.7-0.8,5.7-2.3,8.4
		c0,1.9,0,4.2-0.8,6.1l-1.9,3l-0.4,0.8v0.4v0.4l-0.8,0.8v1.9v1.9l-0.4,1.1v2.3l-0.8,1.9v0.4l0.8,9.9l-0.8,1.5l1.1,10.6l-0.4,1.5
		l-0.8,4.6v2.3l1.1,4.6v1.5l0.8,3.4l6.1,18.6c1.5,5.7,3.8,11.4,7.2,16.3l1.5,3l3.4,5.7v0.4l18.6,21.3c6.5,6.5,14.1,11.8,22.4,16
		c3,0.4,6.5,1.9,10.3,4.6c3,1.5,7.2,2.3,10.6,3.4l8.4,3.8c-0.8,3.8-3,8-6.1,11.8l-9.5,10.3c-3,3.4-7.2,6.1-11,6.8l-12.9,2.7
		c-3,2.3-5.7,3-7.6,3.8l-25.9-2.7c-1.5,0.4-2.3,1.1-2.3,2.7l-2.3,2.3c-4.2-3.8-9.1-4.9-14.8-3.8l-16.3-1.5l-4.2-14.1v-0.4l-0.4-1.1
		l0.4-1.1v2.3c0-2.3,0.4-3.8,2.7-5.3c1.1-1.5,2.7-3.4,3-5.7l-4.2-20.5l-0.4-0.8l-1.1-4.2l1.1,0.4h0.4c0.8-1.5,1.1-3.4,1.1-4.9v-5.3
		v-1.5l-0.4-0.8l-1.1-0.8v0.8c0,0.4,0,1.5-0.8,1.9l-0.8-3l-1.1-4.2l1.1-7.6v-7.6v-2.3v-4.6l1.5,15.6v-1.1v-15.6l-1.5-6.1l0.4-79.8
		c0-2.7,0-5.3-1.5-7.2l1.5-14.4l-1.5-13.7c1.1-2.3,1.5-4.2,1.5-6.8c0-1.9-0.4-4.6-1.5-6.1c1.5-3,1.9-6.1,1.1-9.1
		c-1.1-3-0.8-5.7,0.8-8.7c-0.8-7.2-0.8-14.4-0.4-22l1.1-21.7l1.5-4.6l1.1-8l2.3-8l2.3-3.4l3-3c1.9-3.8,4.6-5.7,8-6.1l8-3.8h5.3
		l1.1-0.4h2.3l3-1.1h1.9c1.5,0.8,3,0,4.2-1.1l-1.5-0.4l0.8-3.4l-0.4-3.8l-14.4-0.4l-32.3,2.7H-73l-4.6,0.4L-124,1651.3L-124,1651.3z
		 M114,1748.3l4.6,3l13.3,11l6.8,7.6l1.1,0.4c2.3,3,3.8,6.1,5.3,9.9c2.3,3,4.2,7.2,5.7,11l5.7,11.8l3,11.4c1.9,3.8,2.7,7.6,1.9,12.2
		c1.9,2.3,2.3,4.9,2.3,8c-0.4,3-0.4,5.7,0.4,8c1.1,1.1,1.1,2.7,1.1,3.8l-1.1,3.8c-0.4,1.9-0.4,3.4,0.8,4.9c0.4,0.8,0,2.3,0,3.4
		l-0.8,4.2c-1.5,1.5-1.9,3.4-1.5,4.9c1.1,2.3,1.1,4.2,1.1,6.5l-1.1,3.8c0,1.1-0.4,2.7-1.9,3l-2.3,9.9l-3,3.4
		c-0.8,1.9-1.5,3.4-1.5,5.3c-1.9,4.6-4.9,9.1-8.7,13.3c-3.4,4.6-7.6,7.6-12.2,10.6c-4.2,3.8-8.4,6.8-12.2,8.4l-14.4,4.2
		c-1.1,0.8-2.7,1.5-4.6,1.5l-16,0.4l-10.3-1.1l-6.1-1.5l-6.1,0.8l-6.5-1.5l-1.5-1.5l-2.3-0.8l-4.9-4.9c-1.9-1.5-3.4-2.7-6.1-3
		l-1.9-3l-3-0.8l-3-0.4c-1.5-1.1-2.3-3-2.3-5.3c0.8-1.5-0.8-3-3-3.4l-6.5-8.4l-14.4-24.3l0.4-1.1v-1.9l-0.4-2.3l-3.8-5.7l-0.4-1.5
		l0.4-1.5l0.8-0.8v-0.8c0-1.5-0.8-3-1.1-4.2c-1.1-1.5-1.5-2.3-1.1-3.8v-0.8l-0.4-0.4l-2.7-8.4c-0.4-1.5,0-3,1.1-4.9
		c-0.4-2.3-1.1-4.6-1.9-6.8c-1.5-2.3-1.5-4.6-0.8-7.2c1.5-3,1.5-6.1,0-8.4l0.8-4.9c0.4-1.5,0.4-2.3,0.4-3.8l2.7-5.3
		c0.4-1.9,0.4-3.4,0.4-6.1c1.5-2.7,2.7-5.3,1.5-8.4c1.5-1.5,2.7-3.4,3-5.3c0.8-2.7,2.3-4.9,3.8-6.5c0-0.8,0-2.3,0.8-3.4l1.5-1.5
		l3-4.2l0.8-0.4l1.1-2.7l3.8-5.3l3.8-0.8v-0.8l0.8-3l1.9-0.8l4.9-2.3l4.9-4.2c3.8-1.9,6.8-3,10.3-3.8l3.4-1.5c0.8,0,1.9-0.8,3.4-1.1
		h1.1l3-0.4l3-1.1h1.1l13.3-1.5h4.6l16,3L114,1748.3L114,1748.3z M-104.2,1752.5l0.8-11.4l0.8,15.6L-104.2,1752.5L-104.2,1752.5z
		 M-65,1893.9l-1.5-5.7l0.8-10.3L-65,1893.9L-65,1893.9z"/>
	<path id="_58850360" inkscape:connector-curvature="0" class="st1" d="M1634.3,1782l-10.4,1.9h-12.3l-25.4-2.3
		c-1.2-1.2-2.3-1.2-3.8-1.2h-3.5l-5.8,1.2c-0.4-1.2-1.5-1.2-1.9-1.2l-2.7,1.2l-3.1,0.4h-3.1l-2.3,0.4l-1.5-0.4l-5,1.2l-5.4,0.4
		l-15.8,8.8l-9.6,6.9c-1.9,0.8-3.5,2.3-4.6,3.8l-1.5,5.8h-1.9l-1.2-1.9c-1.9,0-3.1,1.2-3.5,1.9l-6.5,7.3c-1.5,1.5-1.9,3.1-1.5,4.6
		c-1.5,2.7-1.9,4.6-1.9,7.7c-0.4,2.7-1.5,5-3.5,6.9v3.1c0,1.2,0.8,1.5,1.9,1.9l-1.2,3.5c-0.4,0.8-0.4,2.3,0.8,3.8
		c0.8,1.2,0.8,2.7,0,4.2c-0.8,1.2-0.8,2.3,0.4,3.8c1.9,2.3,2.7,6.2,1.9,9.6c0,1.5,0,2.7,1.2,3.8l3.1,1.9c0.4,0.4,1.2,1.5,0.4,3.1
		l5.4,6.9c1.5,1.9,3.5,3.8,6.2,5l0.4,1.2h-0.4l1.5,1.5l3.1,2.7l4.6,2.3l1.5,0.8c2.7,3.1,5.8,5,8.8,6.2l4.2,1.5l6.2,4.2
		c2.3,1.5,4.2,3.1,7.3,3.5c2.7,0.8,4.6,2.3,7.3,3.8c1.5,0.8,3.1,1.5,5.4,2.3l5.4,2.3l13.5,6.5l3.8,2.7l1.2,1.2
		c1.5-0.8,3.1,0.4,4.6,1.9l3.1,4.2h1.2l3.1,1.9l1.9,3.8c2.7,0.8,3.5,3.1,4.6,5.8c0.4,1.9,1.5,3.8,3.1,6.2v1.5l1.5,10.8l-3.1,5.4
		c-1.5,1.9-1.9,3.8-1.5,6.2l-1.9,3.1l-1.5,3.1c-1.5,4.2-3.1,7.3-5.4,8.8c-1.5,1.5-3.5,1.9-5.8,1.9l-5.4,1.2
		c-2.7,0.4-5.8,1.5-8.1,2.7l-6.2,4.6c-1.9-1.2-4.6-1.9-8.8-2.7l-10.8-0.4l-1.5-1.2h-2.3l-10.4-1.5l-1.9-1.5
		c-5.8-0.4-11.5-1.9-16.2-4.6l-3.5-2.3c-1.5-0.8-3.1-1.9-4.2-2.3c-3.5-1.5-6.2-4.2-7.7-7.7l-6.9-9.6c-0.8-1.9-1.9-4.2-1.5-7.3
		c0-2.3-0.4-5-1.5-7.7c-0.8-1.5-0.8-3.1-0.4-4.2c0.4-1.5,0.4-3.1,0-5l-0.4-3.1l-1.2-3.1l-1.5,0.4v-0.4c-2.3,0-3.8,0.4-4.2,1.5
		l-0.4,0.4l-1.2,5.8l-0.4,1.9v5.4l0.4,1.9l-0.4,19.6l1.5,10v2.7l1.9,7.3c0,2.3,0.4,5,1.2,7.7v0.4l0.4,0.8c1.5,1.5,2.7,1.9,4.6,2.3
		l31.5,9.6c2.3,0.4,3.8,0.4,5.4,0c1.5-1.2,1.9-2.3,1.9-3.1l-3.1-0.8l-2.3-1.5c0-1.2,0.8-1.5,1.5-1.5l2.3-1.2l7.3,1.5
		c2.7,0.8,4.2,1.5,6.2,3.5v1.5l-0.8,0.8l-1.2,1.5v1.2l1.5,1.5l23.5,0.4l26.9-3.8l15.4-6.5c2.3-1.5,3.8-2.3,5.8-3.5l10.8-8.8l8.8-10
		l3.1-6.5l1.2-3.1l3.1-6.9l1.2-5l1.9-6.9l-0.8-11.2v-0.8l-1.5-10.8c-0.8-3.8-1.5-6.9-3.5-9.2l-4.6-8.8c-5-6.9-11.2-11.9-18.1-16.5
		c-6.5-5-13.5-8.8-20-11.9l-22.3-10l-6.9-2.7l-16.5-10.4c-5.8-3.1-10.4-7.7-15-13.5c0-1.9-1.2-4.2-2.3-5.8l-0.8-3.1l-2.7-12.7
		l0.4-1.2l1.5-4.6c0-2.7,1.2-4.2,3.1-5.4v-0.4l1.2-0.8l5.8-6.9l8.5-5.8l1.5-0.8l0.8,0.8h0.8l1.9-1.2l4.6-0.4
		c0.8-1.2,2.3-1.5,3.1-2.3l7.3,0.8l7.3-1.2c1.2-0.4,2.7-0.4,3.5,0l1.2,0.4h0.8h2.3l4.6,0.8l3.8,0.8c3.5,0.8,6.5,2.3,9.2,4.2l3.1,2.3
		l5.8,5l3.1,3.5l6.2,13.1l0.8,2.3l0.4,5v0.4l1.2,3.8v1.5c-0.8,1.9,0,3.5,0.8,5h4.2c1.5,0.8,2.7-0.4,3.8-1.5l0.4-19.6
		c-0.4-5.8,0-11.5,1.2-16.5c-0.8-5.4,0-10,0.8-13.8l0.8-3.5v-10.8l-3.1-1.5v0.4l-1.2-0.4H1634.3L1634.3,1782z"/>
	<path id="_58772120" inkscape:connector-curvature="0" class="st1" d="M1421.9,1781.3h-12l-1.4,0.9c-0.9-0.3-1.1,0-1.4,0.9l-6,0.3
		l-8.3,2c-1.7,0-2.9,0-3.2,0.9l-3.2,1.1c-1.1-1.7-2.3-2-3.4-1.1l-3.2,2.6l-3.7,0.3l-8.3,8.9l-6.6,4.9c-0.3,0.6-0.6,1.7-0.6,3.4
		c-0.6,1.1-0.9,2-2,2l-3.2,0.3c-0.3,0.3-0.9,0-1.1-0.3l-0.3-0.9c-0.9,0-2,0.9-3.2,2.3l-11.2,16.6c-1.7,3.2-2.9,6.3-2.9,9.7
		c-1.1,1.1-1.4,2.6-1.4,4.6l-0.9,4.6v-0.9l-0.3,1.1l-0.9,2c-0.6,2-1.1,4-1.1,6.3v0.3c-0.3,3.2-0.3,6.3,0,9.2c-0.3,2-0.3,4,0,6.3
		c0,2,0,4.3-0.6,6.3l0.6,2.6l0.9,7.7l0.9,0.9v0.3c0,0.3,0,0.9,0.6,1.1l1.7,4c-0.6,1.4,0,2.3,0.3,3.4l5.2,12.3l9.2,13.8
		c3.4,4.9,7.7,8.6,12.6,11.2c3.2,3.7,6.6,6,10.6,7.5c3.7,2,7.7,3.4,11.5,5.7l8.6,3.2l4.3,0.9l1.4,0.9l7.2,1.4l5.2,0.3l11.8,0.9
		l0.9,0.3h1.7l4-0.3h4.6l0.9-0.9l9.2-0.3l0.9-0.9h0.6l2-0.3h2.3l6.6-1.7l2.3-0.3l2-0.3l0.9-0.6l3.4-1.1l2-0.3l2.3-0.3l0.6-0.9
		l1.7-0.3l2.3-1.1l0.3-0.6l-0.3-3.2v-0.6l-0.3-5.7l0.3-2c-0.9-2.3-0.9-4.3-0.9-6.3v-0.3c0.6-2.3,0-4.6-0.9-6.6
		c-0.3-1.1-0.3-2,0.6-2.6v-16.6l0.9-0.6l0.3-11.2l1.1-2c0-2.9,0.3-5.4,2-7.2l1.1-3.4h0.3v-3.7v-1.1H1467l-2.6-0.6h-2.3l-4,0.6h-4
		l-2,0.6c-0.6-0.6-1.4,0-2.3,0.6l-12.3-1.7l-16.6,0.6c-0.9,0-1.1,0.6-1.4,1.7v0.3h-0.6v2l2,2h8.9h3.4l5.7,2.6c1.1,0,2,0.3,2.9,2
		l1.1,3.2c0,0.6,0.3,1.7,1.1,1.7l0.9,0.6c0.3,0.3,0.6,1.1,1.1,1.7l0.6,2.9v0.3l0.6,1.7v1.1l0.6,6.9l-0.6,3.7l-0.6,12l0.9,2l0.3,0.9
		c0.9,1.4,0.6,2.9-0.6,4.9v1.1l0.3,1.1l0.3,3.2c0,1.1,1.4,2,3.2,2.3l2,1.7v-0.6v1.1l-0.3,2.9c-0.6,1.1,0,1.7,0.6,2.9l-3.7,1.4
		l-2.3,0.6l-0.6,0.6l-0.6,0.3h-6.6l-10.9-1.4l-17.5-4.3l-4.6-0.6l-7.2-3.7l-4-0.9l-12.3-10.9l-2.9-4l-2.9-4c-0.6-2-1.1-3.7-2.9-4.9
		c-2-1.7-3.2-3.2-3.4-5.2c-1.4-0.9-2-1.4-2-2.6l-0.3-3.2l-0.3-1.7l-0.9-2.9l-2-4.3v-1.1v-0.9l-1.4-8.6l-1.7-3.7l0.9-7.7
		c-0.9-1.7-1.1-3.4-1.1-5.4l0.9-6.3v-2.9c0-1.1,0-2.3,0.6-3.2c-1.1-2-1.1-4,0-5.4l1.4-5.4l3.4-10.9l2.3-2.6l0.3-3.4
		c0.3-1.1,1.1-2,2.3-2.9l2.9-4.9c0.6-2,2.3-3.2,4-4l3.7-2.3c0.6-1.1,1.7-2,2.9-2.3c1.7-2,3.7-3.4,6-4.3l8-3.2h2
		c1.4-0.6,2.9-1.1,4.9-1.4l6.6-1.4l22.1,0.3l2.6,0.9l8.9,1.7l6,3.7c1.4,0,2.3,0.6,3.4,1.4l3.2,2l10,12.6c-0.6,1.7,0,3.2,0.3,4.6
		l0.9,2l-0.9,7.7v1.7l2.3,1.4l3.4-0.9c1.1,0,2.3-0.6,2.9-1.7c0.3-2,0.3-3.7-0.9-5.2v-1.4c0-1.1,0.3-2.9,2-3.7l-0.6-2.3l-1.1-0.6
		l-0.3-1.1v-0.9c-0.3-0.9,0-2,0.3-2.9l1.7-2.9c-1.1-0.9-1.7-2-1.1-2.9v-0.3l0.6-2.9v-2.6l-0.3-0.3v-1.7l0.9-1.1l0.3-4.3l1.1-4.9
		c0-2,0-3.4,0.3-4.6v-0.9v-0.3l-0.3-0.6v0.6l-0.3-0.6v-0.3l-2-0.3l-2,0.3h-0.3l-1.4-0.9l-5.4,0.6l-8.3-0.9l-3.7-0.9l-32.1-1.1
		l-2.3,0.3L1421.9,1781.3L1421.9,1781.3z"/>
	<path id="_69785648" inkscape:connector-curvature="0" class="st1" d="M1335.7,1783.8h-7.2l-4.6,0.6h-4.9l-3.4,0.6l-15.8-1.7
		l-13.5,0.6c-0.9,0.3-1.1,1.1-0.9,1.7v2.3l0.3,1.1h-0.3l0.9,0.9h1.1l2.3,0.9l2.3,0.3l3.7,2l1.7,1.1c1.4,1.1,2.6,2.6,3.4,5.2l1.1,6
		l0.9,6.3v0.3l0.3,0.9l0.3,1.4v0.3c-0.3,1.4-0.3,2-0.3,3.2l-0.3,1.1c-0.6,1.1-0.6,2.9,0.3,4.3l0.3,0.9l0.6,1.4v1.1l-0.6,2
		c-0.3,0.9-0.6,1.4-0.6,2.3v0.9l0.3,1.1l0.3,2l0.6,1.1l0.3-0.6v2l-0.9,2.6l0.9,11.5c0.3,1.4,0.9,2.6,0.3,4l-1.1,4.3
		c1.1,1.7,1.7,3.4,1.7,5.7c-0.6,2.6-0.6,4.3,0.3,6.3c0.9,1.4,0.9,3.2,0,4.3c-0.9,1.1-0.9,2.6-0.9,4.3c1.4,1.4,1.7,3.4,1.4,5.4
		c-0.9,1.7-0.9,3.7-0.6,5.7l0.6,6c-0.6,2.6,0,4.3,0.6,6.6l-0.6,1.1l-1.7,0.9l-4.6-5.7l-5.4-5.4l-2,1.1c-1.4-1.1-2.3-2.3-2.6-3.7
		l-0.3-4.9c-2-2.9-4.9-5.7-7.7-8l-1.7-2l-2.6-1.4c-0.6-2-1.1-4-3.2-5.4l-4.6-4.6h-2.3l-2,1.1c-2,0-3.4-1.1-3.4-2.3v-8.9l-8.3-10
		c-3.4-3.4-5.7-6.6-8-10.6l-35.8-50.2c-1.1-1.1-2.3-1.4-4.3-1.4l-10.6,1.4h-22.7l-4.3-1.1l-4.6,0.3l-3.2-0.6l-3.4,0.6
		c-1.1,0-2,0.9-2,2v3.4l0.9,0.6l0.3,0.3h0.6h1.1c4.6,0,8.3,0.9,12.6,2.3c3.2,1.1,5.7,2.6,8.6,4.9l2,2l0.6,0.9l-0.3,0.9l-0.9,2.6
		l-0.3,0.3v1.7v1.1l0.9,1.4v3.4l0.6,3.7v2.3h-0.3v4.9v0.3l0.9,2.9l-0.6,15.5l0.9,5.7v-0.3l0.3,1.4l-0.3-1.1l0.3,16.9v0.9l-0.3,1.1
		v0.9l0.9,2.3l-0.6,7.5c-0.6,1.1-0.3,2.6,0.6,4c0.6,1.7,0.6,2.9,0,4.9l0.6,2.9c0,1.1,0,2.3-0.3,3.7l-0.3,2.3v2.3
		c0.6,1.1,0.6,2.3,0.6,4.3l-0.6,3.7c1.1,2,1.4,4.3,1.4,6.6l-1.1,7.7l-0.3,0.9v1.1c-1.1,1.4-1.1,2.9-0.6,4.9c0,1.7-0.3,3.4-1.1,4.6
		c-0.3,2.3-1.4,4.3-2.6,6l-4.6,4.6c-2,0-3.4,0.9-4.9,2c-1.4,0.6-3.4,1.4-4.9,1.4l-2,2.3l-0.9,2v0.3l0.6,1.7l1.1,0.3l10.3-0.9
		l0.6-0.3h3.4l6-0.9h6l1.7,0.9h2.3l3.2-0.9h1.1l2.9,1.1l4.3-0.3l4,0.3h6.6h2.3h0.9c0.9,0.6,1.4,0,2-1.1l0.3-3.2l-1.1-1.7
		c-3.4,0-6.6-0.9-8.9-2l-7.5-5.7l-2.9-10.6c-0.9-3.7-0.9-7.2-0.6-11.2l-0.3-4.3l0.3-4.6l-1.1-12.6l0.6-3.7v-0.6l-0.6-2.9v-3.7
		l0.6-5.7l-0.6-9.7c-1.1-2.9-0.6-5.4,0-8v-0.6l-0.3-2.6v-1.1l0.3-2.9v-2.6l-1.1-5.2l0.9-1.7v-0.9l0.3-1.1c0.6-1.7,0.6-2.3-0.3-3.4
		l-0.3-3.4c0.3-1.7,0.3-2.9,0-4l-1.1-3.4c-0.6-2.3,0-4,1.4-5.4c1.4,0,2.6,0.3,2.6,1.4l0.9,1.1l0.3,2c0.6,1.1,1.1,1.7,2.9,2.3
		c0,2.3,0.9,4,3.2,5.2c1.7,1.1,3.4,2.6,4.6,4.3c1.4,1.4,2.6,2.9,3.4,4.9c0.3,1.7,2,3.2,3.7,4.3l2.9,4c1.4,1.7,3.2,3.7,4.3,5.7
		l1.4,2.3l9.7,10.9c2.6,2.3,4.6,4.6,6,8c2,1.4,4,3.7,5.2,6.3l5.2,6.3c0.6,2,1.7,3.7,3.4,4.9c1.7,1.1,2.9,2.6,3.7,4.6l8,7.7
		c2,4.3,4.9,7.7,8.6,10l2,3.2v0.3v0.3l2,1.7l1.7,2.3l0.9,0.3c1.1,0.6,2,1.7,2.3,3.2l13.5,15.5c0.6,1.4,1.7,2.3,2.9,3.4l1.1,0.3
		l2.6,2.9l6.6,1.1l0.9-0.3h3.4l4.3-1.7l-0.3-2c0.3-4,0.3-8,0-12.3V1914l0.3-1.4v-0.6l-0.3-1.4l-1.4-13.5l0.9-1.7v-4.3l-0.3-0.6v-2
		l-0.6-0.3l0.6,0.3v-2.6c0-0.9,0-1.1,0.3-2l-0.9-26.7l0.6-3.4v-0.9l-0.9-11.2l-0.3-4.3c0-2.6,0-4.9,0.3-7.5l0.9-3.4v-13.8l1.4-5.2
		c0.6-1.1,0.6-2.3,1.1-3.4l2-4.3l0.9-1.1l0.3-2c0.3-0.6,1.1-1.4,2-1.7l1.1-0.9l2.6-2.3l1.7-0.9h1.7l0.9-0.3h3.2
		c0.3-0.9,0.9-0.9,1.4-0.9l0.6-0.3l0.3-1.1l0.3-1.7l-0.3-2.3L1335.7,1783.8L1335.7,1783.8z"/>
	<path id="_58847072" inkscape:connector-curvature="0" class="st1" d="M1293.2,1891.1v-1.4l-0.9-0.9c-1.1,0.9-1.4,1.7-1.4,2.9
		l1.1,0.9l0.9-0.6L1293.2,1891.1L1293.2,1891.1z"/>
	<path id="_39474488" inkscape:connector-curvature="0" class="st1" d="M1106.3,1785.4l-2.9,0.3l-12.6,0.3h-0.9h0.3
		c3.4,0.6,7.2,1.9,10.6,4.4c2.3,1.6,3.7,6.6,4.6,14.8c0.3,8.2,0.3,17.3,0,28.1l-2.3,30.3v4.7l-0.9,1.3v1.9c-0.3,0.6-0.9,1.3-0.3,2.2
		c0.6,0.9,0.6,2.2,0.3,3.2c-1.1,1.3-1.1,1.9-0.3,3.2c0.6,0.9,1.1,1.9,1.4,3.5c-0.9,1.6-0.9,3.8-0.3,6c0.6,1.6,0.6,3.5,0.3,5.7
		l-1.4,3.2c0.6,1.9,0.6,3.8,0,6l-1.7,6l1.7,3.8l2.3,3.5l0.3,2.8c0,0.9,0,1.9-0.9,3.2c1.1,1.6,1.7,3.8,1.1,5.4l-0.6,6l-5.7-0.6
		l-0.9,1.9l-0.3,2.5l-1.7,2.2l-2.3,1.3l-6.9,2.2l-2.3-0.3c-0.6,0.6-0.9,0.6-1.7,0.6l-1.7,2.5v2.2c0.3,0.3,0.6,0.9,0.6,1.9
		c0.6,0.3,0.9,0.3,1.1,0.3l13.2-0.3c2.3,0.3,5.2,0.3,7.7,0l5.7-0.6l2,0.6l4.3-0.9h1.1l3.2,0.9l8.3-0.9l18.4,0.9l1.4,0.3h0.6l1.4-0.3
		c1.1-0.6,2-0.9,1.4-2.2c-0.3-1.3,0-2.2,0.9-3.5c-1.1-0.9-2-0.9-3.2-0.9h-2.6l-7.7-2.8c-2.3-1.3-4.3-3.5-5.4-6l-2.3-8.8
		c-0.9-6.6-1.1-13.2-0.9-20.2v-20.2l-0.3-2.8c0.6-2.5,0.6-5.4,0.6-8.5v-8.8l-0.3-3.5l0.9-43.2l1.1-5v-1.3l1.4-6.9
		c0.6-2.8,1.7-6,3.4-8.2l1.1-2.5l0.6-0.6l1.4-0.9l8.3-2.2h0.3l2.3-0.3l0.3-0.9l0.6-0.9l0.6-4.1l-43.3,0.3L1106.3,1785.4
		L1106.3,1785.4z"/>
	<path id="_69785216" inkscape:connector-curvature="0" class="st1" d="M1099.9,1813.1c0.3,1.4,0.6,2.9,1.7,4l2.9,3.7v1.1v1.1v0.3
		l2.3,5.2v0.3l-0.3,2.3l0.3,0.6c0.9,1.1,1.4,2.3,1.1,3.7l-0.3,4.3l0.3,4.3v3.4l0.9,3.4l-0.9,8.3l1.1,1.7l0.3-18.4
		c0-9.5-0.3-16.6-1.4-22.7c-0.9-6-2.3-9.5-4.6-11.2l-8.9-5.7c-2.3-1.4-4.6-2.3-6.9-2l-1.1,2v2.3l0.6,0.3l2.9,0.9
		c1.1,0,2.3,0.3,3.4,1.7c1.1,0,2.6,0.3,3.4,1.4L1099.9,1813.1L1099.9,1813.1z"/>
	<polygon id="_69788496" class="st1" points="1108.8,1869.3 1108.8,1871 1108.8,1869.9 1108.8,1868.1 	"/>
	<path id="_69809472" inkscape:connector-curvature="0" class="st1" d="M1011.5,1735.7l-3.4-0.9l-9.7-2c-1.1-0.6-2.6-1.1-4-1.1
		l-5.2,0.6c-0.9-0.6-1.4-1.1-2.6-1.1s-2,0.6-2.9,1.1l-18.1-1.1l-20.1,1.1l-8.6-0.6l-34.7,2.3l-6.3,1.4c-2.3-0.6-4.3,0.3-6.3,1.4
		l-0.3,1.1v2l1.4,2.6l7.2,0.9l4.3,1.1c2.3,0.3,4.6,1.4,6.9,3.4l3.2,3.4l0.6,2.3l0.6,0.6v0.3l0.3,0.3l1.1,2.9v-0.6l0.3,2.3l0.6,6.6
		c-0.6,2.6,0,4.3,1.1,6.3l-0.6,2l0.6,2.6c0.3,0.9,0.9,1.7,0.9,2.9l-0.6,1.4v0.3l-0.3,1.7v1.7v3.2v1.7v2.3l-0.9,2v0.3l0.9,2.6v8.3
		v0.6l0.3,8.9l-0.9,10.9l0.6,5.4c0.3,5.4,0.9,11.2,0,16.6l0.3,54.8l-0.3,5.2l-1.1,12.9l-1.7,4l-2.3,4.9l-4.6,4.9
		c-1.1,2-3.2,3.2-5.4,3.4c-3.4,2.3-6.9,3.2-10.9,3.2c-1.4,0.3-1.7,1.1-2.3,2.3v4.3l0.9,0.3l2.3,0.9l3.2-0.9h16.9l0.9-0.3h1.1l4-0.9
		h0.6l3.2-0.3h13.2v0.3l20.1,0.9l0.9,0.3l13.8,1.1l2.3-0.3h0.9l1.1-1.1l0.9-5.2l-0.9-0.6h-1.1v-0.6l-2.3-0.3l-2-0.3l-5.7-1.7
		l-16.9-1.1l0.3-1.1h0.3l1.7-1.1l0.3-0.3l1.4-0.6l2.6-1.4v-2.3l-1.1-4.3v-2.3v-2l-0.9-3.4l-2-4.6c0.9-2,0.9-4,0.9-6.3v-6
		c0.3-2,0-3.2-0.9-4.6c-0.3-4-0.3-7.7,0-11.8c0.9-3.4,0.9-7.2,0-11.2l0.9-3.7v-0.6l-0.9-4.3l0.9-1.1l2.3,0.6l8.9-0.6l2.3,0.6h0.9
		l0.6-0.6h4.3l22.1,0.6h0.9l1.1,0.3h0.3l0.6,0.3l1.7,2c1.7,0.3,2,1.1,2.3,2.3l0.6,3.2c0,0.9,0.6,1.4,1.7,2.3
		c-0.3,1.4-0.3,3.2,0.6,5.2l1.4,3.4l0.6,1.1l1.7,1.4h2.9l9.2-2.3h4c1.4,0.3,2.6,0.3,4,0h0.6h0.3l2.9,1.4l0.6,0.9
		c0.6,1.1,0.9,2,0.6,3.2v-0.3l-0.6,1.4v0.9l-0.3,0.3h-1.7l-1.7-2.3l-1.1,0.9l-0.9,1.4l1.4,1.1l1.1,0.3h0.6c0.6,0.6,0.6,0.9,0.6,2
		l-0.3,1.7v0.3l-0.3,0.9h-0.9l-0.9-0.6l-0.6-1.7l-1.1-2l-0.9-0.9l-1.4-1.1l-1.1-1.1l-2.6,2l-2.3,0.6h-0.3l-1.4-1.7
		c-0.9-0.9-1.7-1.1-2.6-0.6l-0.6,1.1l0.6,2.9v2.6c0.9,2.3,2,4,3.2,4.6c1.7,0.9,2,1.7,2.3,2.9v0.3l0.6,1.1l2.3,2.3l2,2l0.3,0.9
		l0.3,0.3l-0.3,1.7l-0.3,0.6v0.9h0.3l0.3,0.9l2.3,1.7c0.9,0.6,1.7,0.9,2.3,2l0.6,0.9l-0.6,3.2l1.1,1.7v0.9l1.4,0.3l0.6,0.9l0.9,3.2
		l1.1,1.1l0.9,0.9v0.3h0.3v0.3c-0.3,1.1,0.3,2.9,1.4,3.7l2.3,2.3l0.6,0.6l0.3,2.3l0.9,2l8,12.3l2,3.2c1.4,1.4,3.2,3.2,4.3,5.2
		l2.6,3.4l0.9,0.6l0.9,1.1c1.7-0.3,2.9,0.6,4,2l3.7,4l0.3,1.4l1.1,0.9l3.2,0.3h2h0.6l0.9-0.3v-0.6l-2.9-1.1l3.7-0.3l1.4,0.3l1.4,0.9
		h2l2.3-0.3l1.1,0.3l0.6,0.3l0.3,0.9l-1.1,0.9v2.6c1.1,1.1,3.2,2,4.9,2l6,0.3v-1.1c-0.6-0.3-1.1-0.3-1.7-0.3l-1.1-2l-1.7-1.4
		l3.4-0.6c0.3,0.6,0.3,0.9,0.3,1.4l-0.3,0.6l0.3,0.6c2.3,2.6,4.6,3.7,7.5,2.9l18.1-3.7l1.4-1.7l0.6-1.4v-0.9l0.3-2.6
		c-0.9-0.9-2-0.9-3.2-0.9h-3.4l-3.7-1.7l-16.6-10.6l-3.2-3.2c-1.1-1.1-2.3-1.1-4-0.3c-1.1,1.4-1.4,3.4-1.1,5.7l-3.7-4.3v-2.9
		c0.3-0.9,0.9-1.1,1.4-1.7l2.3-0.9c-0.6-1.7-2.3-4-4.6-6.9l-6-6.6c0-1.1-0.6-2.6-1.7-3.4l-4.6-6.6c-1.4-0.6-2-2-1.4-3.7
		c-3.2-3.4-5.4-7.5-7.2-11.8l-3.7-5.7c-0.9-2.3-2-4.6-4-6.3l-3.7-6.3c-0.3-1.7-1.1-3.2-2.3-4.9c-1.7-1.1-2.3-2.9-2.3-4.6l-4.3-7.2
		c-0.9-2.9-2.3-5.2-4.6-7.5c-0.9-2.9-2-5.4-4-7.5l-5.7-9.5v-1.1v-0.6l1.1-1.1l2.6-2.6c0.9-0.6,2-1.1,3.2-1.1l5.4-4.9
		c2-1.4,3.2-3.7,4-5.7l3.7-4.3l4-5.2l2.3-4l5.7-15.5l2.3-13.8v-4c-0.3-2.3-0.3-4.3-1.1-6.3l-1.1-6.3l-0.3-0.6l-2-11.2v-0.3l-0.9-0.6
		l-1.4,0.6l-0.9-0.6h-0.9l-1.1-1.4h-1.7c-0.9,0-1.7,0.3-2,1.1l2,2.9l-0.9,2.3l-1.1,1.4l-1.1-1.1l-0.9-1.4l-0.9-0.9l-0.6-1.7h-1.1
		l-4.3,0.6c-0.9,0-1.1,0.3-1.1,0.9l0.3,0.3v0.3l-0.3,0.9l-2.9-0.3l-2.3,0.3l-2-1.1v-0.3l0.9-2l2.9-0.9l0.3-0.9l13.2-6.9l1.1-2v-1.7
		v-0.6l-0.3-0.3l-10.3-8.6c-3.7-3.2-7.7-4.9-11.5-6l-3.4-1.7l-2.3-0.3c-0.6-0.3-0.9-0.9-2-0.9L1011.5,1735.7L1011.5,1735.7z
		 M1004.9,1756c2.3,1.7,4.3,4,6,6.6c3.4,4.3,5.7,9.5,8,14l1.4,7.2c0.9,2.6,1.1,6,0.9,10.6c-0.9,3.7-0.9,6,0.3,6.9l2,1.7l1.4,0.3
		l-1.1,0.9c-0.6,0-1.1,0.3-1.4,0.6l-1.1,5.4c0,2-0.9,3.4-1.1,4.6l0.3,2.9c-0.6,1.1-1.1,2.6-1.1,4.3c0,1.7-0.6,2.9-1.4,4
		c-1.1,0.9-1.1,1.7-1.1,2.6c0.3,1.1,0.3,1.7,0,2.6l-2.9,2.6l-7.7,10c-2.3,2.6-5.4,3.7-8.9,4l-1.1,0.9l-1.4,0.6l-2,1.1l-2.3,0.6
		l-4.9,2.3h-12l-8.3-0.3c-1.7-0.9-3.4-0.9-4.9,0l-5.4-0.9h-0.3l0.3-0.6l-3.2-1.1c-1.4,0.6-2.3,0-2.3-1.1l-1.1-2.9v-25.5
		c-0.3-0.6-0.3-1.1,0-2c0.3-0.9,0.9-1.7,0.9-2.9v-2.6c-1.1-2.3-1.7-4.6-1.1-6.9c0.3-2.3,0.3-4.9,0.3-7.2l1.1-3.7v-6.6l-0.9-0.9
		l-0.6-3.4v-2.3l0.3-2l1.1-2.9l-0.3-1.4v-14.6c1.1-1.4,1.1-3.4,1.1-5.4c-0.6-1.7-0.6-3.7-1.1-5.4l1.1-2.3l1.1-0.3l4.6-1.4l14.1-1.1
		l6.6,0.3h0.6v0.3h0.6h2.6l2.3,0.6l0.3,0.3l1.7,0.3h0.3l8.3,2c1.1,0.3,1.7,0.9,2.9,1.4l2.9,1.4l0.3,0.3h0.3L1004.9,1756L1004.9,1756
		z"/>
</g>
</svg>
