<?xml version="1.0" encoding="utf-8"?>
<!-- Generator: Adobe Illustrator 19.0.0, SVG Export Plug-In . SVG Version: 6.00 Build 0)  -->
<svg version="1.1" id="Layer_1" xmlns="http://www.w3.org/2000/svg" xmlns:xlink="http://www.w3.org/1999/xlink" x="0px" y="0px"
	 viewBox="0 0 2425 1134" style="enable-background:new 0 0 2425 1134;" xml:space="preserve">
<style type="text/css">
	.st0{fill:#FFFFFF;}
</style>
<g>
	<path class="st0" d="M1493.4,214.2c0-3.2,0-5.7,0-9.1c49-1.1,97.9-2.3,147.9-3.5c-2.1,11.7-3.2,22.8-6.1,33.4
		c-6.3,23.4-13.5,46.5-20.3,69.7c-5.6,19-7.7,38.4-5,58c4.8,34.9,9.9,69.8,15.2,104.6c3.7,24,5.7,48,6.4,72.2
		c0.9,31-7.1,60.1-18.4,88.4c-9.9,24.8-25,46.1-44.9,63.9c-19.3,17.3-41.8,29.3-66.5,37c-16.8,5.2-34,8.3-51.6,10
		c-35.5,3.5-69.7-3-103.5-12.4c-37.6-10.5-73.7-24.8-108.8-41.5c-3.8-1.8-4.7-3.9-3.9-7.7c7.2-36.8,20.9-70.6,45.4-99.5
		c1.3-1.5,2.5-3.1,3.8-4.6c1.1-1.2,2.4-2.3,3.1-3c9.9,6.2,19.4,12.6,29.3,18.2c20.5,11.8,42.6,19.2,65.8,23.7
		c20.6,4,41.4,5.7,62.3,5.4c40-0.6,66.6-22.5,74.7-61.9c0.7-3.4,1.1-6.8,1.7-10.3c-4,3.9-7.8,7.8-11.9,11.4
		c-13.5,11.8-29.9,17.7-47.1,21.3c-15.5,3.3-31.3,4.5-47,3.6c-23-1.3-46-3.1-68-10.6c-45.1-15.4-73.2-46.3-84.3-92.4
		c-5.2-21.7-13.8-41.9-22.9-62.1c-8.3-18.5-17.7-36.6-24.7-55.6c-4.3-11.6-5.6-24.5-7.1-36.9c-3.1-25.8,8.3-46.5,25.2-64.5
		c30.6-32.5,69.7-49,112.3-58.6c24.6-5.5,49.6-7.5,74.7-6.2C1444.9,196.2,1470,201.3,1493.4,214.2z M1484.8,403.1
		c-0.9-10.6-1.6-21.2-2.6-31.7c-0.8-8.5-1.7-16.8-7.9-24c-9.7-11.3-21.3-19.5-35-24.7c-19.9-7.6-40.2-12.2-61.7-7.7
		c-18.1,3.8-29.5,13.5-32.2,29.5c-1.9,11.6,1,23.1,4.3,34.3c6.9,23.3,18.2,44.3,34.3,62.4c13.6,15.2,29.2,27.6,50.9,29.3
		c17.7,1.4,32.1-6.2,40.1-21C1482.7,434.9,1484.4,419.2,1484.8,403.1z M1389.2,257.6c18.8-1,37.1-13.9,42-29.8
		c3-9.8-2.6-17.6-13-17.9c-18.3-0.5-31.7,8.3-42,22.4c-2.2,3-3.5,6.9-4.2,10.5C1370.5,251.8,1378.2,258.2,1389.2,257.6z
		 M1451.4,268.3c16,0.6,38.1-15,41.9-29.6c2.6-10-2.6-17.7-13-18.1c-18.4-0.6-31.7,8.4-42.1,22.5c-2.2,2.9-3.5,6.9-4.1,10.6
		C1432.6,262.7,1440.1,268.9,1451.4,268.3z"/>
	<path class="st0" d="M470.2,1097.7c-11.9,1-23.3,2.1-34.6,3c-13.5,1.1-27.1,2.2-40.6,3.3c-4,0.3-7.9,0.5-11.9,1
		c-3,0.4-3.7-1.6-4.1-3.8c-3.1-20.6-6.1-41.2-9.1-61.8c-2.1-14.4-4.4-28.7-6-43.2c-1-9.7-1.2-19.6-1.2-29.4
		c0-20.1,0.5-40.3,0.7-60.4c0-1.5-0.1-2.9-1.3-4.8c-1.1,3-2.2,5.9-3.3,8.9c-9.9,26.8-19.8,53.6-29.7,80.4
		c-6.5,17.4-12.7,35-19.5,52.3c-9.1,23.3-23.7,41.7-48.2,50c-25.3,8.6-47.5,2.5-67.3-14.9c-20.7-18.1-31.9-41.7-40.7-66.9
		c-6.9-19.6-13.3-39.3-20-59c-0.4-1.2-1.2-2.3-1.8-3.4c-0.5,0-1-0.1-1.5-0.1c-0.7,4.2-1.5,8.4-1.9,12.6c-1.5,16-2.9,32-4.2,48
		c-1,11.5-1.9,23.1-3,34.6c-1.3,14.3-2.9,28.6-4.2,43c-0.7,7.8-1.3,15.5-2,23.3c-0.2,2.8-0.7,5.5-1.1,8.9c-9-1.5-17.6-2.7-26.2-4.3
		c-25.4-4.7-50.7-9.5-76.1-14.1c-4.8-0.9-5.5-2.5-4.7-7.3C15,1048.3,23,1003,31.2,957.7C37.9,921,45,884.3,51.6,847.5
		C57,817.7,62.2,787.9,67,758c2.9-17.6,4.8-35.4,7.5-53.1c0.2-1.5,2.5-3.6,4-3.7c15.7-1.2,31.4-2,47.2-3c12.4-0.8,24.8-1.6,37.2-2.6
		c3.9-0.3,5.2,1.3,5.7,4.9c7,44.3,13.6,88.6,21.5,132.7c5.3,29.6,12.1,59,19,88.3c4.1,17.6,9.2,35,18,51c2.5,4.6,5.3,9.5,11.3,9.2
		c5.8-0.3,9-5.1,10.9-9.9c6.2-15.2,12-30.6,17.9-45.9c12.1-31.5,23.6-63.2,36.4-94.3c13-31.7,27.3-62.8,41-94.2
		c8.1-18.6,16.3-37.1,24.3-55.8c1.5-3.4,3-4.3,6.7-3.2c28.6,7.9,57.3,15.6,85.9,23.5c1.4,0.4,3.1,2.4,3.2,3.8
		c1.1,9.4,2.4,18.7,2.7,28.2c1.1,27.6,2.2,55.2,2.5,82.7c0.1,11.7-1.9,23.4-3,35.1c-1,10.9-2,21.8-3,32.6
		c-1.1,11.9-2.3,23.7-3.4,35.6c-1,10.4-2.3,20.8-2.7,31.2c-0.7,14.6-1.6,29.3-0.8,43.9c1.1,19.5,3.4,38.9,5.8,58.3
		C464.8,1068,467.6,1082.5,470.2,1097.7z M228.4,1031.5c-11,0-19.4,8.2-19.4,18.9c0,11,8.5,19.7,19.4,19.6
		c10.5-0.1,19.3-9,19.3-19.4C247.6,1039.9,239.2,1031.6,228.4,1031.5z M271.9,1061.1c10.9,0,18.9-7.9,18.9-18.7
		c0-10.4-8.7-19-19.1-19c-10.5,0.1-18.7,8.5-18.7,19.2C253,1053.7,260.6,1061.1,271.9,1061.1z"/>
	<path class="st0" d="M2092.7,625.5c0-12.7,0-25,0-37.3c0-1.5,0.3-3,0.3-4.5c0.3-23,0.7-46,1-68.9c0.1-8.9,0.1-9.1,8.8-7.6
		c25,4.2,50.1,6.1,75.3,5.2c29.4-1,58.1-5.4,85.3-17.3c2.3-1,4.4-2.4,7.8-4.3c-8.3-1-15.2-1.6-21.9-2.6c-19.3-2.9-38.6-5.6-57.8-9.2
		c-20.8-3.9-41.6-8.4-62.2-13.2c-35.8-8.5-61.1-37-64.9-73.4c-3.9-36.9,2-72.2,20.5-104.8c13.8-24.3,33.5-42.7,57.6-56.6
		c26.1-15.1,54.4-24.1,84.2-27c20.8-2.1,41.9-2.4,62.8-1.8c21.5,0.6,43,3.1,63.6,9.7c22.1,7,42.2,17.1,55.6,37.3
		c8.6,12.9,12.3,27.5,14,42.6c3.3,28.9-1.8,56.8-10.8,84.2c-0.7,2-1.6,3.9-2.3,5.6c-39.4-5.7-78.3-11.4-117.4-17
		c1.8-7,3.7-13.7,5.2-20.6c1.1-5.3,1.9-10.8,2.3-16.2c0.7-8.9-6-15.2-16.2-15.5c-23-0.7-44.8,4.8-66,12.7c-8.9,3.3-17,8.8-25.5,13.4
		c-0.7,0.4-1.4,0.9-2,1.5c-6.9,7.7-9.2,14.7,2.5,18.4c15.4,4.9,31,10,46.8,13c25.3,4.8,51,7.8,76.4,12c26.4,4.3,51.4,12.4,72.3,29.9
		c20.6,17.3,33.1,39.3,35.5,66.3c2.5,28.2-8.5,52-26.7,72.6c-24.3,27.5-56.4,42-90.6,52.8c-25.7,8.1-52,13.4-78.7,16.2
		c-17.1,1.8-34.3,3.8-51.4,4.5c-25.6,0.9-51.2,0.7-76.8,0.9C2097,626.4,2094.7,625.8,2092.7,625.5z"/>
	<path class="st0" d="M502,182.3c1.9-0.1,3.2-0.2,4.5-0.2c36.5-0.3,73-0.6,109.4-1c13-0.1,26-0.5,38.9-0.9c3.7-0.1,5.4,0.4,4.5,5
		c-1.1,5.8-1.1,11.9-1.3,17.8c-0.6,23.4-5.4,46-11.4,68.4c-10,37.7-20.3,75.2-30.1,112.9c-4.9,18.8-6.4,37.9-0.1,56.8
		c5.5,16.7,18.1,25.2,35.7,25.7c25.5,0.7,43.2-11.7,56.1-32.5c9.2-14.9,13.4-31.5,16.7-48.6c4-20.5,9.1-40.7,14.5-60.9
		c7.9-29.8,16.5-59.4,24.7-89.2c4-14.4,3.6-29.2,3.5-44c0-2.6,0-5.3,0-8.3c45.9,0,91.3,0,137.6,0c-1.8,8.2-3,16.2-5.4,23.8
		c-5.5,17.8-12.1,35.2-17.3,53c-5.4,18.4-10.6,37-14,55.8c-2,11.4-1.4,23.6-0.3,35.2c1.7,17.4,4.1,34.9,7.8,52
		c4.1,19.3,10.8,38,14.7,57.3c3.8,18.4,5.6,37.3,7.9,56c0.9,7.7,0.5,15.6,1,23.4c0.3,3.8-1.2,5.4-4.8,5.8c-11.5,1.5-23,3-34.5,4.6
		c-18,2.5-36,5-54.1,7.6c-18,2.5-35.9,5.1-54.8,7.8c0-8,0-15.5,0-24.1c-4.5,2.9-8,5-11.4,7.3c-27.1,17.4-56.1,30.7-88,36
		c-30.9,5.1-61.7,3.7-90.8-9.4c-29-13-47-36.1-57.6-65.5c-5.9-16.3-9.1-33.2-10-50.6c-0.5-10.6-1.9-21.2-1.6-31.8
		c0.5-16.9,2-33.8,3.3-50.6c0.8-11.1,1.7-22.1,2.8-33.2c1.2-12,3-23.9,4.2-35.9c0.9-8.9,1.7-17.8,2-26.8c0.5-15.8,1.2-31.6,0.8-47.4
		c-0.4-15.6-2-31.1-3.1-46.7C501.9,185.5,502,184.2,502,182.3z M628.6,249.1c-1.2-3.4-2.6-10.2-5.9-15.9c-8.3-14.4-27-14.6-36.3-0.8
		c-7.7,11.3-8,23.5-2.5,35.4c7.6,16.4,26.2,19.3,37.6,5.1C626.3,266.9,628,260,628.6,249.1z M569.4,259.6c-1.2-4.1-2.1-10-4.7-15.1
		c-6.6-13.1-22.3-17.8-33.3-6.5c-11.6,11.8-12.3,32.8-1.3,45.5c7.9,9.1,20.3,9.5,29.2,1.4C566.4,278.4,568,270,569.4,259.6z"/>
	<path class="st0" d="M211.6,36.7c-3.9,13.4-7.8,26.1-11.4,38.8c-13,46.9-24.6,94.2-32.5,142.3c-3.6,21.9-6.9,43.8-9.7,65.8
		c-1.9,14.9-3,30-3.9,45c-1.2,19.5-1.9,39.1-2.6,58.7c-0.5,11.9,2.5,23.3,6.4,34.5c4.2,12,13.1,16.8,24.9,18
		c23.4,2.5,45.7-3.3,68.2-8.1c43.5-9.3,87.1-18.6,130.6-27.9c11.5-2.4,23-4.6,34.5-7.3c3.9-0.9,4.6,0.3,4.7,3.8
		c0.2,17.1,0.6,34.3,1,51.4c0.6,25.3,1.1,50.6,2,75.8c0.1,3.7-0.9,5-4.4,5.5c-36,5.6-71.9,11.4-107.8,16.9
		c-39.2,6.1-78.5,11.9-117.7,18c-23.3,3.6-46.6,6.8-70.3,5.5c-34.9-2-66.2-12.5-90.1-39.4C19,517.5,10,497.9,6.3,476.2
		c-2.5-14.5-3.1-29.3-3.7-44c-0.6-14-0.3-28-0.1-42C2.9,370.6,3,351,4.4,331.4c2.1-30.4,4.5-60.8,8.2-91
		c6.2-50.8,15.4-101.1,29.7-150.3c6.1-21.2,14.2-41.8,20.9-62.8c2-6.1,6.1-5.5,10.5-5c20.2,2,40.5,4.1,60.7,6.2
		c16.3,1.7,32.5,3.6,48.8,5.3c7.2,0.8,14.5,1.3,21.8,2C206.9,35.9,208.9,36.3,211.6,36.7z M83.3,129.2c14.2-0.2,26.4-13.3,25-28.9
		c-1.3-14.2-14.7-25.7-29-24.2C63.9,77.8,54.6,89.6,55,103.7C55.4,119.4,68.3,130.4,83.3,129.2z M119.1,98.8
		c-0.1,14.1,12,26.6,26.3,26.4c14.6-0.2,26.3-10.3,26.5-26.1c0.2-16.2-11.6-26.3-26.3-26.7C131.5,72.1,119.2,84.8,119.1,98.8z"/>
	<path class="st0" d="M814.7,917.8c0.9,0.2,1.4,0.5,1.8,0.4c11.1-0.8,11.6-0.9,14.4,9.8c5.8,22.3,11.8,44.5,16.1,67.1
		c3.2,16.5,2.1,33.5-0.8,50.1c-2.5,14.2-6.4,28.1-9.4,42.1c-1,4.6-3.6,5.8-8.1,6.1c-17.8,1.2-35.6,2.9-53.5,4.4
		c-14.8,1.2-29.7,2.2-45.6,3.3c1.9-11.1,3.7-21.9,5.8-33.8c-5.7,3.6-10.4,6.5-15.2,9.4c-23.9,14.7-50.1,23.4-77.8,25.4
		c-31.4,2.2-61.4-3.4-86.7-24c-19.8-16.1-31.3-37.2-35.9-62.1c-6.8-37.6,2.4-71,27.1-100.3c18.5-21.9,41.1-38.5,66.1-52.2
		c29.5-16.1,60.7-27.7,93.5-35.2c14.8-3.4,29.8-5.4,44.9-4.2c15.8,1.3,31.1,5.2,45.4,12c10.2,4.9,19.8,10.8,29.8,16.1
		c3.1,1.7,3.8,3.8,2.9,7.3c-4.7,17.8-9.2,35.6-13.7,53.5C815.4,914.6,815.1,916.2,814.7,917.8z M771.5,935.3
		c0.3-0.6,0.5-1.1,0.8-1.7c-1.1-0.8-2.2-1.5-3.2-2.3c-16.8-12.7-35.9-15.9-56.1-12.4c-22,3.8-41.6,13.8-59.3,27.1
		c-11.3,8.4-21.6,18.2-27.1,31.8c-8.3,20.5,4.7,42.8,30.7,41.9c12.7-0.4,24.5-5.3,35.9-10.9c21.7-10.6,34.6-28,40.2-51
		c1.8-7.2,2.3-14.6,3.5-22.5C748.4,935.3,759.9,935.3,771.5,935.3z M676.9,872.1c-0.9,10.7,7.3,19.5,18.9,20.1
		c10.9,0.5,19.6-8.4,19.7-19.4c0-11.9-7.9-19.5-19.5-20C685.7,852.4,675.4,863.1,676.9,872.1z M744.7,899.6
		c10.9,0,19.2-8.2,19.3-19.1c0.1-10.6-9.1-19.7-19.7-19.5c-10.7,0.2-19,8.7-19,19.6C725.3,891.3,733.7,899.6,744.7,899.6z"/>
	<path class="st0" d="M2203.8,850.1c0.9,6.5,1.7,12.3,2.5,18.6c8-4.6,14.9-8.8,22.1-12.5c29.2-15.2,60.5-20.8,93.1-18.4
		c23.2,1.7,44.7,8.5,62.3,24.6c13.6,12.5,22.3,28.2,26,46.2c2.4,11.8,3.9,23.9,4.6,35.9c0.9,16.8,1.3,33.6,0.8,50.4
		c-0.5,19.1-1.8,38.1-3.4,57.1c-1.6,18.6-4.1,37.1-6.1,55.7c-0.3,2.6-1,3.9-3.9,3.8c-31-0.4-61.9-0.6-92.9-0.9c-0.5,0-0.9-0.3-2-0.6
		c0.3-4.1,0.6-8.4,0.9-12.6c1.4-17.2,2.9-34.3,4.3-51.5c1.6-20.1,2.8-40.3,4.8-60.4c1.3-12.8,0.7-25.1-3.7-37.2
		c-5.2-14.3-19-22.4-34-19.3c-8.9,1.8-18,3.3-26.3,6.7c-15.3,6.3-23.7,18.7-26.9,34.7c-2.3,11.6-1.5,23.3-0.3,35.1
		c1,9.4,1.4,18.8,2.1,28.2c1.1,14.4,2.3,28.7,3.4,43.1c0.8,11.1,1.6,22.1,2.4,33.2c0.3,3.6-2.4,3-4.4,3.1c-9.3,0.1-18.7,0-28,0.1
		c-17,0.2-33.9,0.6-50.9,0.9c-6.3,0.1-12.6,0.4-18.9,0.9c-3.1,0.2-4.6-1-5.1-3.9c-2.7-18-5.6-35.9-8.2-53.9c-3-20.4-6-40.9-8.7-61.4
		c-2-14.9-4.2-29.9-5.4-44.9c-1.5-18.8-2.2-37.7-2.8-56.6c-0.3-7.8,0.4-15.6,1-23.4c0.1-1.3,2-3.4,3.3-3.7
		c12.5-2.3,25.2-4.1,37.7-6.3c18.9-3.4,37.7-7,56.6-10.5C2201.1,850.2,2202.4,850.2,2203.8,850.1z"/>
	<path class="st0" d="M881.1,814.3c29.4-1.9,58.2-3.8,87.6-5.7c0,8.7,0,16.7,0,25.9c3.2-2.4,5.4-4.2,7.7-5.9
		c14.7-10.6,31.4-15.4,49.4-16.3c20.9-1.1,41,2.2,60.2,10.9c21.5,9.7,37.5,25,49.4,45.4c20.3,34.8,39.4,70.2,54.2,107.7
		c7.3,18.4,13.7,37.2,15.1,57c0.7,9.1-1,18.5-2.7,27.6c-3.1,16.4-8.6,32-16.4,46.8c-3.3,6.3-7.8,5.6-12.8,5.4
		c-10.4-0.4-20.9-1.3-31.3-1.6c-14-0.5-27.9-0.5-41.9-1c-5.7-0.2-11.5-0.8-17.8-1.3c3.1-5.9,6.1-11.2,8.8-16.7
		c9.5-18.8,16.2-38.4,14.6-59.8c-2.5-33.7-11.4-65.5-32-92.8c-8.3-11-18.9-20-33.3-22.1c-6.9-1-14.3-2.1-20.7,2.6
		c-6.5,4.8-9.2,11.7-8.8,19.1c0.6,10.7,2.4,21.3,4,31.9c3.1,20.3,7.6,40.6,5.6,61.2c-1.2,12.6-3.4,25.3-6.3,37.6
		c-2.6,11.1-6.9,21.8-10.4,32.8c-0.8,2.4-1.6,4-4.7,3.9c-33.8-0.2-67.7-0.2-101.5-0.2c-0.6,0-1.3-0.2-2.7-0.3
		c0.5-1.7,0.8-3.2,1.4-4.7c8.9-25,17.7-50.1,21.3-76.5c1.5-11.2,1.3-23-0.4-34.2c-3.2-21.2-7.3-42.4-12.2-63.3
		c-5.8-24.7-13.4-48.9-19.4-73.5C881.6,841.5,880.1,828.3,881.1,814.3z M1085,840.2c-9.8,0-13.9,4.1-14,11.6
		c-0.1,14.4,14.2,29.9,28.2,30.5c5.3,0.2,9.9-3.2,11.5-8.4c1.9-6-0.3-11.2-3.1-16.1C1102.2,848,1094.3,841.6,1085,840.2z
		 M1020.9,851.7c0,13.3,12.1,26.8,26,29.1c8.7,1.5,15.2-4.5,14.2-13.1c-1.3-12-12.6-25.3-24.5-28.1
		C1027.1,837.4,1020,842.3,1020.9,851.7z"/>
	<path class="st0" d="M1273.3,1114.8c13.4-28.2,16.7-57.2,12.8-88.4c46.4,10,91.9,9.1,137.5,4.9c0.2-0.6,0.4-1.1,0.6-1.7
		c-5.1-2.4-10-5.6-15.3-7c-17.9-4.6-35.9-9.3-54.1-12.5c-24.4-4.3-49.3-6.3-72.5-16.1c-16.4-6.9-31.8-15.5-44.3-28.1
		c-10.2-10.3-19.2-21.8-21.5-36.8c-2.7-17.5,2.8-32.6,14.6-45.3c13.7-14.9,31.7-22.8,50.6-28.7c24.3-7.5,49.1-11,74.6-10.3
		c12.3,0.4,24.6-0.7,36.9,0.2c33.5,2.5,66.4,7.8,94.6,28c23,16.5,35.7,38.8,36,67.6c0,4.5,0,9-0.2,13.5c-0.1,1.7-0.9,3.5-1.4,5.4
		c-33.6-3.6-66.9-7.1-100.4-10.7c-0.5-5-0.6-9.8-1.5-14.5c-1.9-9-7.7-14.7-16.6-16.7c-15.2-3.5-30.4-2.2-45.5,0.3
		c-9.6,1.6-19.1,4.2-28.3,7.1c-3.6,1.2-6.4,4.6-9.6,7.1c3.1,2.1,6,5.4,9.4,6.2c9.6,2.4,19.5,3.6,29.2,5.7c20.1,4.2,40.1,8.5,60.2,13
		c19.7,4.4,39.4,9,59,13.5c14.3,3.3,27.7,8.9,38.3,19.3c17.6,17.3,20.6,35.9,12,59.4c-7.5,20.5-22.3,34.7-40.8,45.4
		c-24.1,13.9-50.5,20.9-77.9,24.1c-13.8,1.6-27.8,2.6-41.7,2.4c-15.7-0.2-31.4-2-47.1-3.1c-10.1-0.7-20.2-1.3-30.3-2
		C1285.2,1115.6,1280,1115.2,1273.3,1114.8z"/>
	<path class="st0" d="M1884.1,1134c-32.6,0.3-62-3-90.9-10c-30.6-7.4-53.7-33.8-57.4-64.9c-2.8-23.1-0.1-45.6,6.6-67.8
		c8.5-28.4,20.2-55.3,36.9-79.8c20.2-29.6,45.8-52.8,80-65.6c34.9-13.1,68.4-9.9,100.6,8.4c25.1,14.2,45.3,33.5,60.3,58.2
		c13.1,21.6,21.2,45,24.4,70c1.6,12.3,2.4,24.8,2.5,37.2c0.2,25.1-9.5,46.7-24.8,66.3c-16.2,20.7-38.8,30.8-62.9,38.1
		C1934,1131.7,1907.9,1134.6,1884.1,1134z M1942.5,1005.1c-0.4-4.1-0.7-8.3-1.3-12.3c-2.4-15.6-6.8-30.4-15.9-43.6
		c-5.5-7.9-12-14.2-22-15.5c-11.8-1.6-22.4,2.1-32.2,7.9c-22.6,13.7-36.6,34.6-45.6,58.7c-8.2,22,0.5,39.4,22.2,48.3
		c17.7,7.2,35.9,7.9,54.6,4.1C1927.9,1047.6,1943.2,1026.9,1942.5,1005.1z M1916.1,872.1c0.9-11.9-9.1-19.9-19.5-20.1
		c-10.5-0.2-20,9.3-19.8,19.7c0.2,11.6,10.2,20,19.7,19.7C1908,891.2,1916.1,883.5,1916.1,872.1z M1941.2,900.4
		c11.3,0,19.8-8.2,19.9-19.1c0-10.3-8.9-19.2-19.4-19.4c-10.6-0.2-19.2,8.4-19.3,19.2C1922.3,892.4,1930.1,900.4,1941.2,900.4z"/>
	<path class="st0" d="M1140.4,203.9c-1.3,2.5-2.2,4.2-3.1,5.9c-11.7,21.2-20.8,43.4-23.9,67.7c-2.5,19.7,0,39.2,6.8,57.7
		c7,19,15.8,37.3,24,55.8c7.6,17,14.8,34.4,12.7,53.2c-2.3,20.5-6.3,40.9-11,61c-5.2,22.2-13.4,43.4-23.6,63.9
		c-1.7,3.5-3.3,4.7-7.6,4c-40.4-6.9-80.9-13.5-121.4-20.2c-1.3-0.2-2.5-0.8-4.2-1.3c1.9-8,4.1-15.8,5.7-23.6
		c3.6-17.3,7.5-34.6,10.3-52.1c2.7-17.3,0.5-34.3-5.5-50.9c-9.6-26.3-18.4-52.8-24.2-80.4c-7.3-34.9-3.9-68.2,10.4-100.5
		c6-13.5,12.9-26.6,19.4-39.9c1.7-3.5,3.7-4.8,8-4.3c9.7,1,19.6,0.9,29.4,1.1c16.1,0.4,32.3,0.5,48.4,1
		C1107.2,202.4,1123.3,203.2,1140.4,203.9z"/>
	<path class="st0" d="M1758.4,220.5c43.3,2.1,87.1,4.1,131.2,6.2c0.5,4.9,1.3,9.1,1.2,13.4c-0.2,18.1,0,36.3-1,54.4
		c-1.2,21.4-5.7,42.1-13.2,62.4c-10.9,29.4-20.5,59.3-25.5,90.4c-2.4,14.7-4.2,29.5-5,44.3c-1.5,28.4-2,56.8-2.9,85.2
		c0,1.1-0.3,2.2-0.3,2.5c-44.4,3-88.3,6.1-133.1,9.1c-0.2-0.7-0.9-2.5-1-4.4c-0.4-8-0.9-15.9-1-23.9c-0.4-39.3-1.3-78.6-0.7-117.9
		c0.3-22.7,1.6-45.5,5-67.9c4-26.5,14.2-51.4,24.2-76.2c5.3-13.1,11.5-25.9,15.5-39.3C1755.4,246.9,1756.2,234.2,1758.4,220.5z"/>
	<path class="st0" d="M1554,1119c3.4-7.3,6.5-14,9.5-20.8c12.7-28.6,21.5-58.5,27.5-89.2c2.9-14.7,5.4-29.4,4.4-44.4
		c-1-15.5-2.5-31-4.4-46.4c-2.8-22.1-6.2-44.2-9.4-67.4c38.2-1.9,76.6-3.8,116-5.7c0.7,6.3,1.9,12.4,2,18.6
		c0.3,16.2,0.9,32.4-0.1,48.5c-1.8,29.2-0.9,58.8-9.8,87.2c-7.1,22.6-15.1,45-22.2,67.6c-4.8,15.2-8.8,30.6-12.9,45.9
		c-1.1,4.3-1.4,8.8-2.1,13.7C1619.8,1124.1,1587.2,1121.5,1554,1119z"/>
	<path class="st0" d="M2005.1,2.5c37.5,8.1,74.9,16.1,112.2,24.1c-15.2,38.5-24.7,77.6-34.1,116.8c-3.6,14.8-7,29.7-8.8,44.8
		c-1.8,15.5-1.5,31.2-2.1,46.8c-0.1,1.9,0,3.9,0,6.3c-14.3-2.5-27.8-4.9-41.3-7.3c-14.5-2.6-29-5.2-43.4-8c-1.7-0.3-4.2-2.4-4.5-4
		c-1.7-9.6-2.9-19.3-4.1-29c-0.6-4.6-1-9.3-0.9-13.9c0.3-36.4,3.9-72.4,11.9-108c5-21.8,9.4-43.7,14.1-65.6
		C2004.4,4.7,2004.7,4,2005.1,2.5z"/>
	<path class="st0" d="M1904.2,112.1c0.7,13.9-1.2,27.5-6.8,40.4c-8.9,20.4-24.6,33.2-46.5,36.4c-33.5,4.9-64.4-3.2-91.4-23.6
		c-14.3-10.8-21.7-26.1-24.8-44c-5.6-31.8,19.2-69.4,46.6-83c18.3-9.1,37.3-13.9,57.7-12.4c13.7,1.1,25.5,6.8,35.6,16.2
		c16.7,15.4,26.9,34,29.5,56.6C1904.7,103.1,1904.2,107.6,1904.2,112.1z M1802.2,106.6c12.9,0.6,25.7-9.4,25.7-25.4
		c0-14.9-10.9-25.6-25.7-25.7c-14.5-0.1-25.1,11-25.2,24.8C1776.8,95.8,1787.3,106.6,1802.2,106.6z M1861.2,119.1
		c14.6,0,26-11,26.1-25.1c0.1-13.9-11.7-26-25.5-26c-14,0-25.7,11.6-25.7,25.7C1836.1,107.8,1847.2,119.1,1861.2,119.1z"/>
	<path class="st0" d="M1075.6,15c28.4-0.2,52,11.3,73.1,29.5c12.1,10.4,22.2,22.3,29.2,36.8c11,22.9,6.8,46.7-9.6,65.9
		c-13.8,16.2-32.8,22.7-52.7,26.7c-29.9,5.9-55.7-3.3-76.6-24.7c-17.4-17.8-29.1-39.4-32.4-64.4c-3.2-24.5,6.7-44.1,26.3-58.8
		c10.1-7.6,22.1-9.4,34.1-10.9C1069.9,14.7,1072.8,15,1075.6,15z M1051.2,72.3c0,15.8,14,32.7,29.6,35.8
		c14.6,2.9,23.9-4.6,23.5-18.9c-0.4-14.9-16.5-32.8-31.2-34.8C1059.4,52.7,1051.2,59.4,1051.2,72.3z M1116.8,39.1
		c-11.8,0-17.8,6-17.9,17.7c0,16.1,13.8,32.9,29.7,36.1c12.2,2.4,20.7-2.4,22.9-13.6c0.7-3.4,0.3-7.3-0.6-10.7
		C1147.1,52.6,1131.3,39.2,1116.8,39.1z"/>
	<path class="st0" d="M1643.6,832.2c-15.6-0.4-30.6-3.1-44.6-10.4c-22.5-11.8-31-37.8-11.8-59.7c16.7-19.1,37.3-31.6,62.4-36.4
		c13.4-2.5,26.8-2,39,3.6c13.2,6.1,21,17.7,24.4,31.8c6.4,26.9-6.2,46.6-27.3,59.5C1673.3,828.2,1661.5,832.5,1643.6,832.2z
		 M1622.6,772.9c11.8,0,24.9-9.5,28-20.3c1.7-6-0.9-10.6-6.9-12c-11-2.7-27.3,6.4-31.6,17.7C1608.7,767,1612.9,772.9,1622.6,772.9z
		 M1667.6,786.3c12.1,0,24.8-9.3,28-20.4c1.6-5.7-1.1-10.3-6.7-11.9c-11.7-3.3-28.1,7.6-32,17.8
		C1653.6,780.6,1657.9,786.3,1667.6,786.3z"/>
</g>
</svg>
