<?xml version="1.0" encoding="utf-8"?>
<!-- Generator: Adobe Illustrator 19.0.0, SVG Export Plug-In . SVG Version: 6.00 Build 0)  -->
<svg version="1.1" id="svg2" xmlns:svg="http://www.w3.org/2000/svg"
	 xmlns="http://www.w3.org/2000/svg" xmlns:xlink="http://www.w3.org/1999/xlink" x="0px" y="0px"
	 viewBox="118.2 281.8 745.3 232.2" style="enable-background:new 118.2 281.8 745.3 232.2;" xml:space="preserve">
<style type="text/css">
	.st0{fill:#FFFFFF;}
	.st1{fill:#FFFFFF;stroke:#FFFFFF;stroke-width:3.6354;}
</style>
<g id="layer1">
	<path id="text3244" class="st0" d="M280.8,495.7V333.2c-9.2,9.9-15.9,20.3-19.9,31.1c-4,10.9-6.1,26-6.1,45.3v11.9v74.2h-52.5
		v-86.1c0-19.4-2-34.5-6.1-45.3c-4-10.9-10.7-21.2-19.9-31.1v162.5h-52.8V281.8h70.5c7.3,7.3,13.9,15.8,19.7,25.3
		c5.8,9.5,10.8,20,15.1,31.4c3.9-11.1,8.8-21.5,14.6-31.1c5.9-9.6,12.5-18.2,19.9-25.6h70.5v213.9H280.8z M413.4,420.2h25.8
		c-0.3-20.3-1.6-38.3-3.8-54.1c-2.2-15.8-5.2-29.2-9.1-40.1c-4,10.9-7.1,24.3-9.2,40.1C414.9,381.9,413.7,399.9,413.4,420.2
		L413.4,420.2z M360.8,495.7v-41.9c0-40.3,3.4-74.1,10.1-101.5c6.7-27.4,17.3-50.9,31.8-70.5h47.4c14.5,19.8,25.1,43.4,31.9,70.8
		c6.8,27.4,10.2,61.2,10.2,101.2v41.9h-53v-35.3h-25.8v35.3H360.8z M519.6,495.7V281.8h105.5v40.7h-52.7v36.4h50.5v40.4h-50.5v96.5
		H519.6z M648.9,281.8h52.8v213.9h-52.8V281.8z M783.5,420.2h25.8c-0.3-20.3-1.6-38.3-3.8-54.1c-2.2-15.8-5.2-29.2-9.1-40.1
		c-4,10.9-7.1,24.3-9.2,40.1C785.1,381.9,783.8,399.9,783.5,420.2L783.5,420.2z M731,495.7v-41.9c0-40.3,3.4-74.1,10.1-101.5
		c6.7-27.4,17.3-50.9,31.8-70.5h47.4c14.5,19.8,25.1,43.4,31.9,70.8c6.8,27.4,10.2,61.2,10.2,101.2v41.9h-53v-35.3h-25.8v35.3H731z"
		/>
	<path id="path3248" class="st1" d="M118.2,508.3h745.3"/>
</g>
</svg>
