<?xml version="1.0" encoding="utf-8"?>
<!-- Generator: Adobe Illustrator 19.0.0, SVG Export Plug-In . SVG Version: 6.00 Build 0)  -->
<svg version="1.1" id="Layer_1" xmlns="http://www.w3.org/2000/svg" xmlns:xlink="http://www.w3.org/1999/xlink" x="0px" y="0px"
	 viewBox="-21.2 83.9 1000 402.5" style="enable-background:new -21.2 83.9 1000 402.5;" xml:space="preserve">
<style type="text/css">
	.st0{fill:#FFFFFF;}
</style>
<g>
	<polygon class="st0" points="290.3,348.4 324.4,348.4 307,204 	"/>
	<path class="st0" d="M453.6,176.4c-0.1,0-0.2,0-0.3,0v108.7c4.8,0,9.7-1.1,14.4-3.4c14.2-6.9,26.4-24.1,26.4-51.5
		C494,177.9,458.4,176.4,453.6,176.4z"/>
	<path class="st0" d="M-21.2,83.9v402.5h1000V83.9H-21.2z M825.1,315.7h-54.7v77.5h54.7V454H709.8V147.7L661.3,454l-71.1,0.2
		c0,0-36.2-216.9-36.3-217.4v0c5.9,35-16.2,71.7-35.7,86.1L556.7,454h-0.1h-0.1l0,0.1h-0.1h-59.6h-0.1l-29.3-111.8l-14.2,2.1V454
		h-0.1h-0.1v0.1h-0.1L337.6,454l-7.1-52h-47.4l-7.1,52H158.3V291.1L130.9,454H98.4L70.7,291.1V454h-61V116.1h77.5l27.2,174.6
		l27.9-174.6h77.5l0,310.8l46.6-310.8l81,0l45.1,300l0.2-300c0,0,61.5,0,61.9,0c55.7,0,81,40.8,88.1,54.9l-6.9-54.9h61.8l27.9,205.8
		l28.2-205.8h171.4v61.6h-54.7V254h54.7V315.7z M948,454H835.6V116.1h60.5v277.1H948V454z"/>
</g>
</svg>
