<?xml version="1.0" encoding="utf-8"?>
<!-- Generator: Adobe Illustrator 19.0.0, SVG Export Plug-In . SVG Version: 6.00 Build 0)  -->
<svg version="1.1" id="Layer_1" xmlns="http://www.w3.org/2000/svg" xmlns:xlink="http://www.w3.org/1999/xlink" x="0px" y="0px"
	 viewBox="35 325 681 144" style="enable-background:new 35 325 681 144;" xml:space="preserve">
<style type="text/css">
	.st0{fill:#FFFFFF;}
</style>
<path id="Layer_2_1_" class="st0" d="M649.8,355.7c4-10.5,7.5-19.8,7.5-19.9c0.4-1.1,0.2-2.3-0.4-3.2c-0.6-0.7-1.5-1.2-2.4-1.1
	c-1.5,0-18.5,0-19.2,0h-0.4c-1.6-0.3-3.3,0.6-4,2.1c-0.7,1.2-4.5,10.1-5.6,12.7c-2.3-2.5-11.2-12.5-11.9-13.3
	c-0.8-1-2.1-1.5-3.4-1.4h-11.2c-1.1,0-3.2,0.5-4.4,3.5c0,0.1-3.8,9.7-8,20.7h-15.3c-0.3-9.8-0.6-18.1-0.7-18.8
	c-0.3-3.3-1.7-4.7-4.6-4.7l-9.4-0.1l-10.4-0.3c-3.2,0-4.8,1.6-6.2,3.4l-0.7,0.9c-3.6,5.4-8.2,12.3-13,19.5H506
	c0.2-1.1,0.5-2.3,0.7-3.3c1.7-8.3,2.9-15.2,2.9-15.2l0.1-0.4c0.4-1.1,0.3-2.4-0.4-3.4c-0.9-1.1-2.7-1.1-3.9-1.1h-0.2
	c-1.2,0-6.8-0.1-11.7-0.1l-7.9-0.1c-1.8,0-4.3,1.6-5.6,2.5c-0.1,0.1-13.7,10-15.3,11.3l0,0c-0.2,0-0.3,0-0.4-0.1
	c-0.4-0.6-6-8.4-6.6-9.1L457,336c-1-1.4-1.9-2.5-4.1-2.5h-1.3c-2.8,0-8.7-0.1-9.7-0.1c-2.9,0.1-3.9,2.2-5,4.7l-0.3,0.6
	c0,0.1-0.1,0.1-0.1,0.2l-6.4,16.8h-21.6c-0.3-9.5-0.5-17.1-0.5-17.9c0-1.6-0.6-3.2-1.8-4.3c-1.4-1.2-3.2-1.8-5-1.6
	c-1.1,0.1-6.8,0-11.9,0c-4.1,0-8,0-9,0c-3.9,0.1-6.1,2.6-7.5,4.7c-0.2,0.3-5.5,8.6-12.2,19.2h-18.3c-0.5-4.3-1.7-8.4-3.7-12.2
	c-3.4-6.3-10.2-13.6-24-13.6c-11.8,0-24,6.5-33.5,17.8c-2.1,2.5-4,5.1-5.7,7.9h-1.7c0.5-0.7,0.9-1.5,1.2-2.3l0.3-0.6
	c3.4-8.2,5.3-12.9,5.6-14c0.6-1.7,0.3-3.7-0.9-5.1c-1.2-1.2-2.8-1.9-4.5-1.7h-57.1c-4.3,0-7.1,1.9-8.6,5.8
	c-0.3,0.8-2.9,8.1-6.4,17.9H200c3.4-9.6,5.9-16.7,6.4-18c0.6-1.4,0.5-3-0.2-4.3c-0.7-0.9-1.8-1.4-3-1.3c-5.1,0-26.1,0.2-26.8,0.2
	c-0.5,0-1,0.1-1.4,0.4l-30.7,17.1c-0.2,0.1-0.5,0.1-0.7-0.2c-3.2-5.2-6.9-11.1-7.4-12.2c-1.5-3-2.5-3.9-6.1-3.9h-12.9
	c-3.6,0-5.7,0.7-7.9,5l-9.1,17.3H39.6L81,392.5l-14,26.6l-0.4,0.8c-0.6,1.1-1.6,3-1.6,3c-0.8,1.5-1.5,3.3-0.1,5.3c0.6,0.9,3,1,4.7,1
	c0.9,0,1.6,0,1.8,0c2.9,0,21.8-1.2,24.5-1.5c3.3-0.4,5.9-2.8,8-7.5c0.4-0.8,1.4-2.7,2.6-5.2l52.3,46.2l319-61l2.2-0.1
	c6.3-0.4,13.5-0.8,14-0.9c2.3-0.2,3.6-1.2,4.2-2.9l2.6-0.5c0.1,0.3,0.1,0.5,0.2,0.7c0.4,1,1.4,1.7,2.5,1.8l0,0
	c0.8,0,18.8-1.1,19-1.1c1.3-0.1,2.4-0.8,3.1-1.9c1-1.4,2.6-3.9,3-4.7c0-0.1,0.1-0.2,0.2-0.2l1.7-0.3c1.4-0.1,4.1-0.2,7-0.3
	c3.2-0.1,6.8-0.3,9.2-0.4v3.1c0.2,2.2,1.4,2.6,3.7,2.6c1.4,0,17.8-1.1,19.3-1.3c1.1-0.1,3-0.8,2.9-4c0-0.1-0.1-3.1-0.2-7.5l4.4-0.8
	c-1.5,4-2.5,6.6-2.7,6.9c-0.6,1.2-0.5,2.6,0.2,3.7c0.6,0.8,1.6,1.3,2.6,1.3l0,0c2.4,0,18.3-1,20.3-1.1c1.8,0.1,3.4-1.1,3.8-2.8
	c0.5-1.4,3.1-7.3,4.5-10.5h0.2l8.8,9.4l0.3,0.3c0.9,1.1,2.2,1.8,3.6,1.7c1.4,0,13.9-0.4,15-0.5c3.4-0.2,4.2-2,5.1-4.1l0.4-0.9
	c0.4-0.8,3.1-7.9,6.3-16.4l65.8-12.6L649.8,355.7z M171.6,421.4c-0.3,0-26.1,1.8-29.6,1.8c-2.2,0-3.2-0.1-3.7-0.8
	c-0.5-0.7-0.4-1.4,0.2-3.4c0.1-0.5,0.3-1,0.4-1.5c0.2-0.8,1.4-4,2.8-7.9c1.9-5.3,4.2-11.8,5.6-16.2c0.1-0.3,0-0.5-0.3-0.6
	c-0.1-0.1-0.3,0-0.4,0c-3.8,2.1-9.2,5.1-14,7.8c-5.4,3-10.1,5.6-10.9,6c-0.3,0.1-0.5,0.2-0.7,0.4c-0.4,0.3-0.9,0.5-1.4,0.6
	c-0.6-0.1-1.2-0.6-1.4-1.2c-0.1-0.3-0.9-1.6-1.8-3.1s-1.7-2.9-2.2-3.8c-0.1-0.2-0.3-0.2-0.4-0.2c-0.2,0-0.3,0.1-0.4,0.3l-4,7.9
	c-2.9,5.5-5.6,10.8-6.3,12.3c-2,4.4-4.4,6.6-7.3,7c-2.7,0.3-21.6,1.5-24.4,1.5l0,0c-2.3,0.2-5.2-0.1-5.5-0.5c-1-1.6-0.5-2.9,0.2-4.3
	c0-0.1,1-1.9,1.6-3l42.7-81.5c2-3.8,3.7-4.4,7-4.4l12.7,0.1c3.1,0,3.8,0.7,5.2,3.4c0.7,1.4,5.9,9.8,7.5,12.3c0.4,0.7,1.3,0.9,2,0.5
	l30.7-17.1c0.3-0.2,0.6-0.3,1-0.3c0.7,0,21.7-0.2,26.8-0.2c0.8-0.1,1.6,0.2,2.2,0.9c0.5,1.1,0.6,2.3,0.1,3.4
	c-1,2.9-13.3,37.5-21.4,60.4c-3.7,10.3-6.5,18.2-6.9,19.5C176.4,419.8,174.2,421.5,171.6,421.4z M260.2,366.2
	c-0.6,1.7-4.5,12.3-5.8,15.5c-1.3,3.2-3.8,3.4-6,3.5l-15.9,0.7l-8.3,0.3c-1.3,0-2.5,0.8-3,2l-0.2,0.5c-0.3,0.7-0.5,1.4-0.8,2.1
	c-0.1,0.4,0,0.8,0.2,1.1c0.4,0.4,0.9,0.6,1.4,0.5c4.6-0.2,32.2-1.2,34.2-1.3c1.2-0.2,2.4,0.2,3.3,1c0.6,0.9,0.8,2.1,0.4,3.1
	c0,0.1-4.5,13.7-5.1,15.5c-1.3,4.1-5.2,5.3-6.4,5.5c-1.2,0.2-35,2.4-51.3,3.5l-10.7,0.7c-1.1,0.2-2.2-0.1-2.9-0.9
	c-1.2-1.5-0.4-3.8,0.2-5.4l0.2-0.5c0.1-0.2,0.2-0.5,0.2-0.7c0.2-0.5,25.3-72,26.5-74.9c1.4-3.5,3.9-5.2,7.7-5.2h57.1
	c1.4-0.2,2.8,0.3,3.8,1.4c1,1.1,1.3,2.7,0.7,4.1c-0.2,0.7-1.3,3.7-5.6,13.9L274,353c-1.6,3.9-3.2,4.1-5.6,4.3
	c-2,0.2-24.6,0.2-33.2,0.2h-1.8c-1.1,0-1.5,0.3-2.1,1.4c-0.3,0.6-0.5,1.3-0.7,2c-0.1,0.3,0,0.7,0.2,1c0.4,0.4,0.9,0.6,1.4,0.5h7.5
	l17-0.1h0.3c0.9,0,2.3-0.1,3,1C260.5,364.3,260.5,365.3,260.2,366.2L260.2,366.2z M295.2,417.1c-7.1,0-27.5-5.9-27.5-32.2
	c0-12.3,5.3-25.9,14.2-36.5c9.3-11.1,21.3-17.4,32.8-17.4c13.2,0,19.8,7.1,23,13c3.9,7.3,4,17.1,4,17.5c0,2-0.6,2.8-2,2.8
	c-0.4,0-1.3,0-2.6,0c-4.4,0-12.5,0.1-20.1,0.1c-1.1,0-2-0.9-2.7-2.6c-0.7-2-2.6-3.4-4.7-3.4c-5.3,0-13.7,9.8-13.7,21.4
	c0,2.9,2.2,6.9,6.3,6.9c1.6,0,5.1-1.1,5.9-2.8l0.2-0.3l-0.1-0.3c-0.2-0.3-0.3-0.4-2.4-0.3h-0.2h-0.9c-1.2,0-1.8,0-2.2-0.6
	c-1-1.4-0.4-3.1,0-4.3V378l0.1-0.4l0.3-1c0.3-0.8,0.9-2.3,1.4-3.8s1.2-3,1.5-3.9s0.8-1.3,2.8-1.3l9.9-0.1l19-0.2
	c1.8-0.2,3.3,1.2,3.5,2.9c0,0,0,0,0,0.1c0,1-0.5,3.5-3.1,10.3C334.7,389.3,322.1,417.1,295.2,417.1L295.2,417.1z M406.3,403.8
	l-1.4,0.1c-4.4,0.4-18,1.5-20.4,1.5c-1.7-0.1-2.4-0.8-2.4-2.3c0-0.8,0-1.3,0-1.7s0-0.5,0-0.8v-0.2c0.1-0.6-0.1-1.2-0.4-1.6
	c-0.3-0.3-0.7-0.4-1.1-0.4l-19,1.1c-0.9,0.1-1.7,0.6-2.1,1.4c-0.4,0.6-1.3,2.1-2.1,3.3l-1.1,1.7c-1.1,1.8-2.1,1.9-5,2.1
	c-0.8,0.1-16.9,0.9-18.2,0.9c-1.6,0-2.6-0.5-3-1.7c-0.5-1.6,1.1-3.9,2.8-6.4l0.3-0.4c0.3-0.4,39.8-62.4,40.4-63.3
	c2-2.9,4-4.2,6.7-4.2h2.2h6.8c5.3,0,10.8,0,11.9,0c1.5-0.1,3.1,0.3,4.2,1.3c1,0.9,1.5,2.2,1.5,3.6c0,1.5,0.8,25.7,1.3,43.4
	c0.3,10.4,0.6,18.5,0.6,19.4C408.8,402.1,407.7,403.5,406.3,403.8L406.3,403.8z M497.4,395c-0.3,2.1-1.3,3-3.6,3.3
	c-0.5,0-7.9,0.5-13.9,0.9l-9.6,0.6c-0.6,0-1.1-0.2-1.5-0.6c-0.5-0.6-0.6-1.4-0.4-2.1c0.2-1.1,2.5-12.5,3.7-19.4c0-0.2,0-0.4-0.2-0.5
	c-0.2-0.1-0.4-0.1-0.5,0c-4.5,2.6-10.1,6.2-13.5,8.3c-1.7,1-2.8,1.8-3.2,1.9c-2,1.1-2.3,0.8-3.3-0.2c-0.2-0.3-0.8-1.1-1.5-2
	c-0.7-0.9-1.5-2-2.1-2.8c-0.2-0.2-0.5-0.3-0.7-0.1c-0.1,0.1-0.1,0.1-0.2,0.2c-0.6,1.6-1.4,3.7-2.2,5.8c-1.7,4.7-3.5,9.5-3.9,10.4
	c-1.4,3.2-2.2,3.4-4.8,3.7c-0.8,0.1-18.3,1-19.8,1l0,0c-0.8,0.1-1.7-0.2-2.2-0.8c-0.4-0.9-0.4-2,0.1-2.9c0.6-1.3,23-59.9,23.2-60.4
	l0.3-0.7c1.1-2.4,1.9-4.1,4.1-4.1h0.9c2,0,6.6,0,8.8,0.1h1.3c1.7,0,2.3,0.8,3.3,2.1l0.5,0.6c0.6,0.8,6.2,8.5,6.5,9.1
	c0.4,0.5,1.1,0.7,1.7,0.5c0,0,0.1,0,0.1-0.1c0.8-0.7,11.6-8.6,15.3-11.4c2-1.4,3.9-2.3,5.1-2.3l7.9,0.1c4.9,0.1,10.5,0.1,11.7,0.1
	h0.2c1,0,2.5,0,3.1,0.8c0.4,0.8,0.5,1.7,0.2,2.5l-0.1,0.4c0,0.1-1.3,6.9-2.9,15.2C502.5,367.5,497.5,393.8,497.4,395L497.4,395z
	 M569.4,392.8c-1.4,0.1-17.9,1.3-19.2,1.3c-2.2,0-2.6-0.4-2.7-1.6V389c0-0.1-0.1-0.3-0.2-0.4c-0.1-0.1-0.2-0.1-0.4-0.1l-9.7,0.5
	c-3.9,0.2-7.2,0.3-7.8,0.4c-0.7,0-1.4,0.4-1.8,1c-0.5,0.8-2,3.3-3,4.6c-0.5,0.9-1.4,1.4-2.4,1.5c-0.2,0-18,1.1-18.8,1.1
	c-0.7-0.1-1.3-0.5-1.6-1.2c-0.4-1-0.3-2.2,0.4-3.1c0.4-0.6,5.6-8.4,12.2-18.2c8.2-12.3,18.7-27.9,25.5-38c0.1-0.1,0.6-0.8,0.6-0.8
	c1.6-2,2.9-3,5.4-3l10.5,0.1l9.4,0.1c2.4,0,3.4,1,3.6,3.8c0.1,1.6,1.7,49.5,1.8,52.8C571.4,392.6,569.9,392.8,569.4,392.8
	L569.4,392.8z M637.9,384.3c-0.1,0.3-0.3,0.6-0.4,0.9c-0.9,2.1-1.5,3.3-4.3,3.5c-1,0.1-13.5,0.5-14.9,0.5c-1.1,0-2.2-0.5-2.9-1.4
	l-0.3-0.4l-8.8-9.4c-0.4-0.4-1.1-0.4-1.5,0c-0.1,0.1-0.2,0.2-0.2,0.3c-1.5,3.2-4,9.1-4.6,10.5c-0.3,1.4-1.6,2.3-3.1,2.2
	c-2,0.1-17.8,1.1-20.2,1.1c-0.7,0-1.4-0.3-1.8-0.9c-0.5-0.9-0.5-1.9,0-2.7l20.6-53.3c0.9-2.3,2.4-2.8,3.5-2.8h11.2h0.1
	c1-0.1,1.9,0.3,2.5,1.1c0.7,0.9,11.9,13.4,12.4,13.9c0.1,0.1,0.3,0.2,0.5,0.2s0.3-0.1,0.4-0.3c0-0.1,5.1-11.9,5.9-13.3
	c0.6-1.2,1.8-1.8,3.1-1.5h0.4c0.2,0,17.7,0,19.2,0c0.6,0,1.2,0.2,1.6,0.7c0.4,0.7,0.5,1.5,0.2,2.3
	C656.2,335.8,638.8,382.2,637.9,384.3L637.9,384.3z M302,377.9L302,377.9L302,377.9L302,377.9z M200,337.5c-0.7-0.9-1.8-1.4-3-1.4
	c-2,0-6.8-0.1-18.3,0.1c-1.6,0.1-3.2,0.7-4.6,1.5c-1.6,0.9-29.2,17.4-30.4,18.2c-0.9,0.5-2.1,0.2-2.7-0.7c-0.9-1.5-8-13.7-9-15.7
	c-0.6-1.2-1.8-1.8-3.7-1.8h-10.6h-0.5c-1.3-0.1-2.2,0.1-3.5,2.5l-42.2,80c-0.4,0.9-0.3,2,0.2,2.9c0.6,0.8,1.6,1.2,2.6,1.1h0.2
	c2.3,0,17.8-0.6,20.6-0.9c2-0.2,4.3-2.7,5.5-4.9c1.3-2.5,7.7-15,10.8-21c1-2,1.7-3.4,1.8-3.6l0.1-0.3c0.4-0.7,0.6-1.2,1.1-1.2
	s0.5,0.1,0.9,0.8l0.2,0.3c0.1,0.2,0.4,0.8,0.8,1.5c1,1.9,2.7,5,3.5,6.3c0.3,0.5,0.8,0.9,1.4,1c0.9,0.1,1.9-0.2,2.6-0.7
	c0.9-0.4,5.9-3.2,11.7-6.4c4.9-2.7,10.5-5.8,14.7-8.1c0.2-0.1,0.5-0.3,0.8-0.5c2-1.3,2.6-1.4,2.7-1.3s0.2,0.8-0.7,3.2
	c-0.1,0.2-0.2,0.5-0.2,0.7l-0.9,2.8c-2.1,6.3-6.9,21.1-7.7,23.7c-0.3,0.9-0.1,1.9,0.4,2.6c0.7,0.8,1.8,1.2,2.9,1
	c4.4-0.1,20.3-1.4,22-1.7l0.6-0.1c1.7-0.3,3.1-0.5,4.2-3.3c1.5-3.9,25.1-69.4,26.3-73C200.9,339.9,200.7,338.5,200,337.5z
	 M253.3,365.9h-15.7h-9.1c-0.6,0.1-1.2-0.2-1.6-0.7c-0.7-1-0.5-2.6-0.1-3.8c0.2-0.7,1.6-4.1,1.6-4.2c0.7-1.6,1.7-3.2,4.3-3.2
	c15.5,0,33.3-0.3,34.8-0.4c1.7-0.2,3.1-0.5,3.9-2.4c0.3-0.6,3.5-8.6,4.4-10.5c0.5-0.9,0.4-2-0.1-2.9c-0.8-1-2-1.5-3.2-1.4h-25.4h-29
	c-2,0-3.7,1.2-4.4,3c-0.8,2.1-24.3,68.8-25.9,73.6c-0.4,0.9-0.2,1.9,0.3,2.7c0.5,0.7,1.3,1,2.2,1h0.2l56.1-3.6
	c3.6-0.2,4.4-2.5,5.3-4.9l0.1-0.2c0.5-1.5,2.3-6.5,3.4-10.1c0.3-0.8,0.2-1.8-0.5-2.5c-0.7-0.6-1.7-0.9-2.6-0.8
	c-2,0.1-33.1,1.5-34.2,1.5c-0.7,0.1-1.3-0.2-1.8-0.7c-0.5-0.6-0.5-1.8,0-3.3c0.6-2.1,1.9-5.9,1.9-5.9l0,0c0.8-1.7,1.5-3.3,4.9-3.5
	c0.7,0,2.5-0.1,5-0.2h0.6c2.6-0.1,6-0.2,9.2-0.3c5-0.2,9.4-0.3,10.4-0.4c1.9-0.2,3.6-1.6,4-3.5c0.5-1.2,1.3-3.8,2-6.1
	c0.4-1.4,0.8-2.6,1.1-3.5c0.2-0.7,0.1-1.5-0.3-2.1C254.6,366.2,254,365.9,253.3,365.9z M334.2,370.6H329c-5.4,0-13.5-0.1-18-0.1
	c-1.1,0-2.1,0.6-2.4,1.7l-0.6,1.6c-0.6,1.5-1.3,3.4-1.6,4.2c-0.3,0.6-0.3,1.4,0.1,1.9c0.5,0.6,1.2,0.9,2,0.9h3.3h2.7
	c-0.2,0.4-0.5,1-1.2,2.1c0,0.1-5.2,7.7-11.8,7.7c-6.3,0-9.7-5.6-9.7-10.9c0-13.9,10.8-25.1,17.8-25.1c3.3-0.1,6.4,1.8,7.8,4.8
	c0.3,0.7,0.9,1.2,1.7,1.2h17c0.4,0,0.8-0.1,1.1-0.4c0.4-0.5,0.5-1.1,0.5-1.6v-0.2c0-0.1,0.1-10-6.3-16.9c-4-4.3-9.6-6.4-16.7-6.4
	c-21.3,0-43,25.2-43,50c0,23,17.4,28.2,23.5,28.2c25.5,0,37.4-27.9,39.5-33.5c0.5-1.2,1-2.6,1.4-3.7c0.3-0.8,0.6-1.5,0.7-1.9
	c0.3-0.8,0.2-1.6-0.2-2.3C335.9,370.9,335.1,370.6,334.2,370.6z M335.4,405.7v-1l0,0V405.7z M399.8,336.3c-0.2,0-17.4,0-19.9,0.1
	c-1.5,0-3,0.8-3.8,2.1l-40.2,63.8c-0.5,0.7-0.6,1.6-0.3,2.4c0.2,0.4,0.6,0.6,1,0.5l0,0c1.2,0,2.8-0.1,4.7-0.2l2.5-0.1
	c3.5-0.2,6.5-0.3,7.4-0.3c1.4-0.2,2.6-1.1,3.3-2.3c0.5-0.8,1-1.6,1.4-2.3c0.6-1,1.1-1.7,1.2-2.1c0.5-1,1.5-1.6,2.6-1.6l0,0l24.6-1.3
	c0.2,0,0.3,0,0.4,0.2c0,0.3,0,1,0,1.9s0,1.8,0,2.1c0,1.5,1.2,2.6,2.7,2.6c2.8,0,12.9-0.6,15-0.8c1.7-0.2,2.9-1.7,2.8-3.3
	c-0.1-3-1.8-56.1-1.9-57.9C403.3,337.7,401.7,336.2,399.8,336.3z M384.3,376.9c-0.2,0.2-0.6,0.4-1.5,0.4h-0.1l-10,0.2
	c-0.2,0-0.4,0-0.7,0c-0.5,0-2,0.1-2.2-0.2c-0.2-0.3,0.1-0.8,1.3-2.6l0.2-0.4l11.3-18.3c0.7-1.2,1.1-1.3,1.2-1.3l0,0
	c0.3,0.1,0.3,1.1,0.4,1.8l0.3,19.1v0.1C384.6,376.1,384.6,376.6,384.3,376.9L384.3,376.9z M375,373.9h6.7l-0.2-10.3L375,373.9z
	 M503.4,336.3c-2.3,0-6.4,0-10-0.1h-2.2h-3.8c-1.8,0.1-3.6,0.8-5,1.9c-5.5,4.1-14.4,10.7-15.1,11.3c-0.8,0.9-1.9,1.4-3.1,1.6
	c-1,0-2.4-1.6-3.3-3c-0.1-0.2-1-1.4-2.6-3.4c-1.8-2.3-4.5-5.8-4.7-6.2l-0.1-0.1c-0.7-0.7-1.7-1.1-2.8-1.1c-0.2,0-1.4,0-2.7,0.1
	c-1.5,0-3.2,0.1-3.8,0.1l0,0c-0.9,0-2.6,0.4-3.6,3.1c-0.4,1.1-5.6,14.6-10.8,28.4l-11.3,29.6c-0.2,0.4-0.1,0.9,0.2,1.3
	c0.3,0.4,0.7,0.6,1.1,0.6l0,0c2,0,5.3-0.2,8.3-0.3l4-0.1c1.5,0,2.6-0.1,3.1-0.1c1.6-0.2,2.9-1.3,3.4-2.8c0.7-2,6.8-18.7,7.1-19.5
	c0.2-0.5,0.6-0.9,1.2-1c0.5-0.1,1.1,0.5,1.4,0.9l1.4,1.8c1.3,1.8,2.7,3.6,3.2,4.1c0.6,0.4,1.4,0.4,1.9,0c1.4-0.9,17-10.1,20.1-11.9
	c0.2-0.1,0.7-0.3,0.9-0.1c0.2,0.2,0.3,0.5,0.3,0.9c0,0.2-0.3,1.5-0.6,3.4c-1.1,6-3,17.3-3.2,18.6c-0.1,0.7,0,1.3,0.5,1.9
	c0.4,0.4,0.9,0.5,1.4,0.5c0.6,0,6.1-0.4,10.5-0.6l6.2-0.4c2-0.1,3.7-1.6,4-3.6c0.1-0.7,1.8-9.5,5.6-29l2.4-12.8l2.3-11.7
	c0.1-0.5,0-0.9-0.3-1.3C504.3,336.5,503.8,336.3,503.4,336.3z M650.1,335.2c-1.5,0-13.2,0-13.6,0c-1.5,0-2.8,0.9-3.2,2.3
	c-0.7,1.5-3.8,8.8-5.7,13.1c-0.2,0.6-0.7,1-1.3,1.3c-0.5,0.1-1-0.1-1.3-0.4c-0.6-0.6-3.5-3.8-6.6-7.2c-3.1-3.4-6.5-7.1-7.2-7.8
	c-0.6-0.7-1.5-1.1-2.4-1h-0.1H600c-0.7,0-1.5,0.9-2.5,2.8l0,0c-5,12.9-17.9,46.6-18.4,48c-0.3,0.6-0.3,1.4,0.1,2
	c0.3,0.4,0.9,0.6,1.4,0.6h0.1c2.4-0.1,12.8-0.8,14.8-1.1c1.2-0.3,2.2-1.2,2.6-2.5c1-2.3,5.3-12.1,5.3-12.1c0.2-0.4,0.6-0.7,1-0.7
	c0.4-0.1,0.8,0.1,1.2,0.4l10.4,11c1.7,1.4,2.5,2.1,4.4,2.1c1.3,0,10.5-0.4,11.6-0.5c1.4-0.1,2.8-1.6,3.3-3
	c0.7-1.7,9.2-24.2,13.8-36.6c1.2-3.3,2-5.3,2.5-6.5c0.2-0.6,0.4-0.9,0.5-1.1c0.3-0.7,0.2-1.5-0.2-2.1
	C651.4,335.5,650.8,335.1,650.1,335.2z M566.6,338.6c0.1-1.4-1.1-2.6-2.5-2.7c-0.1,0-0.1,0-0.2,0h-8.5H546c-1.6,0.2-3,1.1-3.7,2.5
	l0,0c-1.9,2.8-30.7,46-35.8,53.6c-0.4,0.6-0.2,1.3,0.3,1.7c0.2,0.1,0.4,0.2,0.7,0.2l0,0c2.4,0,12.3-0.3,12.4-0.3
	c1.2-0.1,2.3-0.7,3-1.7c0.5-0.9,1.5-2.2,2.1-3.2l0.7-1c0.8-1.2,0.9-1.4,2.7-1.4l22-1.1v2.8c0,1.7,0.9,2.8,2.2,2.8s7-0.3,10.3-0.5
	l2.5-0.1c1.5,0,2.8-1.1,2.8-2.6c0.1-1.5-0.6-20.8-1.2-35C566.8,345.2,566.6,339.2,566.6,338.6z M549.7,369.9
	c-0.1,0.1-0.3,0.2-0.5,0.2l-12.4,0.2 M536.9,370.2L536.9,370.2l11.8-18.8c0.1-0.3,0.4-0.6,0.7-0.6h0.1c0.2,0,0.3,0.3,0.3,0.7
	l0.1,17.9c0,0.2-0.1,0.3-0.2,0.4L536.9,370.2z M546.9,360c-0.2-0.1-0.4,0-0.6,0.2l-4.2,6.4c-0.1,0.2-0.1,0.4,0,0.5
	c0.1,0.2,0.3,0.3,0.4,0.3h4.3c0.1,0,0.3-0.1,0.3-0.1c0.1-0.1,0.2-0.2,0.2-0.4l-0.1-6.4C547.3,360.3,547.1,360.1,546.9,360z"/>
</svg>
