<?xml version="1.0" encoding="utf-8"?>
<!-- Generator: Adobe Illustrator 19.0.0, SVG Export Plug-In . SVG Version: 6.00 Build 0)  -->
<svg version="1.1" id="Layer_1" xmlns="http://www.w3.org/2000/svg" xmlns:xlink="http://www.w3.org/1999/xlink" x="0px" y="0px"
	 viewBox="0 0 2251 1021.3" style="enable-background:new 0 0 2251 1021.3;" xml:space="preserve">
<style type="text/css">
	.st0{fill:#FFFFFF;}
</style>
<g>
	<path class="st0" d="M272,143.4c-7.9,0-14.6-0.6-21.1,0.2c-8.2,1-12.6-3.8-17.1-9.1c-0.6-0.7-1.2-1.8-1.2-2.7
		c0.1-8.2-1.2-16.2,3.5-24.2c17.7-30.2,34.6-60.8,51.9-91.3c1.2-2.2,2.5-4.4,4-6.3c4.8-6.3,10.5-9.3,19.1-9.2
		c61.7,0.4,123.3,0.2,185,0.2c11.1,0,17.5,6.4,17.5,17.5c0,9,0,17.9,0,26.9c0.4,0.2,0.8,0.3,1.2,0.5c1-1.4,2-2.7,2.9-4.1
		c5.2-8.9,10.2-18,15.7-26.7c2.9-4.6,6.7-8.7,10.5-12.6c1.5-1.5,4.5-2.3,6.8-2.4C606.2,0,661.7,0,717.2,0c6.6,0,14.4,8,14.4,14.6
		c0,38,0,76,0,114c0,6.6-7.8,14.5-14.4,14.6c-4.8,0.1-9.7,0.3-14.5-0.1c-4.8-0.4-6.3,1.7-5.9,6.1c0.1,1.2,0,2.3,0,3.5
		c0,83.3,0,166.7,0,250c0,0.3,0,0.7,0,1c0,9.4,0,9.4,9.2,9.4c2.7,0,5.4,0.2,8-0.1c5-0.5,9.2,0.8,12.3,4.9c2.7,3.6,5.6,3.9,8.3,0.1
		c3.2-4.5,7.9-4.1,12.6-4.2c12.4,0,11.8,1.5,11.8-11.9c0-34.2,0-68.3,0-102.5c0-8-0.1-8.1-8.1-8.2c-2,0-4,0-6,0
		c-9.5,0-16.6-7-16.6-16.5c0-37.3,0-74.7,0-112c0-8.2,7.5-15.7,15.8-15.7c113.2,0,226.3,0,339.5-0.1c4.8,0,8.4,1.7,11.3,5.2
		c2.4,2.9,4.7,2.8,6.9,0c3.5-4.5,8.1-5.5,13.6-5.5c121.2,0.1,242.3,0.1,363.5,0c5.8,0,10.7,1.1,13.9,6c1.8,2.8,3.6,6.1,3.6,9.2
		c0.2,43.5,0.2,87,0.1,130.5c0,8.6-7,15.8-15.7,15.8c-33,0.1-66,0-99,0c-7,0-7.1,0-7.1,6.7c0,30,0,60,0,90c0,8,0.2,8.1,8.1,8.1
		c6.5,0,13,0.3,19.5-0.1c4.9-0.3,8.8,1,11.8,4.9c2.6,3.4,5.2,3.8,7.9,0.1c3-4,7-5.1,11.8-4.9c9.3,0.3,18.7,0.3,28-0.1
		c2.1-0.1,5-1.5,5.9-3.2c22-38.5,43.8-77.1,65.6-115.7c0.5-0.8,0.8-1.8,1.3-3.1c-1.1-0.3-2-0.8-2.9-0.8
		c-10.1-0.7-15.6-6.9-16.2-16.9c-0.5-9.1,2-16.7,6.6-24.5c17.3-29.4,34-59.3,51.2-88.8c4.7-8.1,10.9-13.2,21.9-13.2
		c82,0.5,164,0.3,246,0.1c6.5,0,11.8,1.2,15.7,6.5c2.6,3.6,5.4,3.6,8,0c4.1-5.7,9.7-6.5,16.2-6.5c63,0.2,126,0.1,189,0.1
		c10.2,0,17.1,6.8,17.1,16.9c0,36.7,0,73.3,0,110c0,9.3-6.9,16.3-16.2,16.3c-3,0-6,0-9,0c-6.5,0.1-6.8,0.3-6.8,6.7
		c0,22.7,0,45.3,0,68c0,13.8,0.1,27.7-0.1,41.5c-0.1,4.6,1.6,6.3,6.1,6.2c7.3-0.2,14.7-0.1,22,0c4,0,5.8-1.6,5.6-5.7
		c-0.2-4,0-8,0-12c0-11.4,6-17.3,17.5-17.3c42.5,0,85,0,127.5,0c10.5,0,16.7,6.1,16.7,16.6c0,48.7,0,97.3,0,146
		c0,10.7-6.3,17-16.9,17c-82.8,0-165.7,0-248.5,0c-2.4,0-4.9,0-8.9,0c2,2.6,2.9,4.2,4.2,5.2c4.1,3.2,5.1,7.3,5.1,12.3
		c-0.1,49.7,0,99.3-0.2,149c0,4-1.2,7.9-2,12.8c-0.2-0.1,0.8,0.5,1.6,1.1c5.9,4.5,9.4,9.5,9.4,17.9c-0.4,82.8-0.2,165.7-0.2,248.5
		c0,10.2-6.8,17.1-16.9,17.1c-88.3,0-176.7,0-265,0c-19.8,0-37.6-6.9-54.5-16.2c-33.7-18.5-59.6-44.1-72.7-81.1
		c-1.4-4-2.1-8.4-2.1-12.7c-0.1-64-0.1-128-0.1-192c0-2.3,0-4.6,0-6c-7.7,0-14.8,0.3-21.9-0.1c-5.2-0.3-6.9,1.9-6.6,6.7
		c0.1,2,0,4,0,6c0,62.2-0.4,124.3,0.2,186.5c0.2,21.2-6.4,39-20.4,54.1c-9.3,10-19,19.7-29.5,28.4c-17.9,14.7-39.3,21.4-62,24.5
		c-5.9,0.8-11.9,1-17.9,1c-43,0.1-86-0.4-129,0.2c-41.3,0.5-75.2-15.5-104.6-43.4c-15-14.2-25.1-30.9-29.4-51.2
		c-0.1-0.6-0.4-1.3-0.7-1.8c-0.1-0.2-0.5-0.3-1.6-0.9c-0.1,2.2-0.3,4.1-0.3,5.9c0,24.8,0,49.7,0,74.5c0,11-6.1,17-17.2,17
		c-127.3,0-254.7,0-382,0c-4.7,0-9.3,0-14,0c-10.5,0-17-6.5-17-16.9c0-10.8,0-21.7,0-32.5c0-1.1-0.3-2.1-0.7-4.5
		c-3.8,4-6.9,7.1-9.8,10.5c-19.3,22-44.1,33.7-72.4,38c-18.6,2.8-37.4,4.9-56.1,5c-77,0.6-154,0.2-231,0.2c-11.7,0-18-6.3-18-18
		c0-40.5,0-81,0-121.5c0-10.5-0.4-21-0.6-31.4c-0.2-8.9,7.1-16.4,16.1-16.4c24.3,0,48.7,0,73,0.1c12.2,0,24.3,0,36.5,0
		c1.7,0,3.5-0.2,5.6-1.4c-1.6-1.2-3.2-2.6-4.9-3.7c-20.8-13.6-42.1-26.4-62.2-41c-21.7-15.7-39.6-35.2-50.3-60.3
		c-2.3-5.3-4.2-11.1-4.4-16.8c-0.4-18.3-1.3-36.7,0.6-54.8c2-19.6,12-35.9,25.7-50.2c25.8-26.9,57.2-41.9,93.9-46.5
		c4.9-0.6,9.8-0.6,16.3-0.9c-2.4-2.8-3.7-4.8-5.4-6.3c-3-2.6-4-5.8-4-9.7c0.2-12.8,0.1-25.7,0-38.5c0-1.8-0.2-3.5-1.4-5.8
		c-0.9,1.2-1.8,2.4-2.6,3.7c-7.9,13.5-15.9,27-23.8,40.5c-1.2,2-2.4,4-3.8,5.9c-5,6.5-11,9.8-19.9,9.6c-29.3-0.6-58.7-0.2-88-0.3
		c-10.1,0-16.4-6.3-16.4-16.3c0-29,0-58,0-87c0-2.1-0.2-4.2-0.3-6.2c-0.4-0.2-0.8-0.3-1.3-0.5c-1,1.4-2.1,2.6-2.9,4.1
		c-17,29.6-33.9,59.3-51.1,88.9c-2.7,4.7-6.6,8.7-9.9,13c-2.5,3.1-5.8,4.1-9.7,4c-16.7-0.2-33.3-0.1-50-0.1c-59.8,0-119.7,0-179.5,0
		c-10.3,0-16.1-6.3-16.7-16.7c-0.5-8.7,1.9-16.1,6.3-23.6c17-29.3,33.3-58.9,50.3-88.1c2.9-4.9,7.2-9.1,11.4-13.1
		c1.4-1.4,4.3-1.7,6.5-1.7c13.3-0.1,26.7-0.3,40,0c4.4,0.1,6.9-1.3,9-5.2c37.1-66.3,74.4-132.4,111.7-198.6
		c11-19.6,22.1-39.2,33.1-58.8C269.3,148.8,270.2,146.9,272,143.4z M525.5,369.8c0.4,0.1,0.8,0.3,1.2,0.4c0,19.3,0,38.6,0,57.9
		c0,3.3-2,4.2-4.9,4.2c-5.7,0-11.3,0-17,0c-8.6,0-8.7,0-8.7,8.6c0,29.2,0.1,58.3,0.1,87.5c0,8.9,0.4,9.2,9.4,9.2
		c52.8,0,105.7,0,158.5,0c13.8,0,27.7-0.1,41.5,0c4.2,0,6.5-1.3,6.5-6c0-31.5,0.1-63,0.2-94.5c0-3.7-1.4-5-5.1-4.9
		c-8,0.2-16,0-24,0.2c-4,0.1-5.6-1.3-5.5-5.5c0.2-48.5,0.3-97,0.3-145.4c0-50,0-100,0.1-150c0-7.1,0.7-7.7,7.7-7.8
		c6.8,0,13.7-0.1,20.5,0c4,0,5.7-1.8,5.8-5.7c0-31.2,0.1-62.3,0.2-93.5c0-3.5-1.2-5.1-5-5.1c-8.8,0-17.7-0.5-26.5-0.5
		c-39.3-0.1-78.7-0.1-118-0.3c-5.1,0-8.2,1.6-10.8,6.1c-18,31.2-36.2,62.2-54.3,93.3c-0.8,1.3-1.6,2.5-2.4,3.8
		c-1.1-2.3-1.1-4.1-1.1-5.9c0-29.3,0-58.7,0-88c0-7.5-0.5-8.1-7.9-8.1c-56.5-0.1-113-0.1-169.5-0.4c-4.6,0-7.3,1.5-9.5,5.5
		c-17.5,31.4-35.2,62.8-52.8,94.2c-0.7,1.2-1.2,2.6-2.4,5.1c18.6,0,36.2,0,55.1,0c-2.6,5-4.5,8.6-6.5,12.2
		c-23.1,41.1-46.4,82.1-69.5,123.2c-31.3,55.8-62.6,111.6-93.8,167.5c-2,3.6-4.5,5.3-8.7,5.2c-13.8-0.2-27.7,0.4-41.5-0.3
		c-6.9-0.3-10.4,2.3-13.6,8c-16.9,30.5-34.1,60.7-51.3,91c-0.9,1.7-1.6,3.4-2.6,5.6c1.9,0.3,3,0.5,4.1,0.5
		c35.7,0.1,71.3,0.2,107,0.2c33.3,0,66.7-0.1,100,0.1c7.9,0.1,12.8-2.3,16.9-9.7c29.2-51.6,59-102.9,88.6-154.3
		c0.8-1.3,1.6-2.6,2.4-3.8c1.1,2.6,1.1,4.8,1.1,6.9c-0.1,51.2-0.1,102.3-0.2,153.5c0,7.3,0,7.4,7.1,7.5c24.7,0.1,49.3,0,74,0.1
		c4.2,0,6.8-1.5,8.8-5.2c5.3-9.5,10.8-18.8,16.3-28.1c20.6-35,41.3-70,62-105.1C513.8,389.6,519.7,379.7,525.5,369.8z
		 M1841.5,1002.2c0,0,0-0.1,0-0.1c41.8,0,83.6,0,125.5,0c7.8,0,8.1-0.3,8.2-8.2c0.3-41.3,0.7-82.6,0.8-124
		c0.1-35.6-0.3-71.3-0.5-106.9c0-6.9-0.2-7.2-7.4-7.2c-60.3-0.1-120.6-0.2-181-0.2c-6.7,0-7.1,0.4-7.1,7c0,29.3,0.1,58.7,0.2,88
		c0,6.2,0.4,6.4,6.6,6.4c16.2,0,32.3,0,48.5,0c5.9,0,6.7,1,6.8,6.7c0.1,5.5-0.1,11,0.2,16.5c0.2,4.7-1.8,6.6-6.5,6.6
		c-18.7-0.1-37.3,0.2-56-0.1c-15.2-0.2-27.8-5.9-36.6-18.9c-4.3-6.4-8.9-12.6-8.9-20.8c0-38-0.2-76,0.2-114
		c0.2-18.8,17.1-37.1,35-37.7c20.5-0.7,41-0.2,61.5-0.3c3.2,0,4.5,1.4,4.5,4.5c-0.1,5-0.1,10,0.1,15c0.3,7.3,0.8,7.7,7.9,7.7
		c38.5,0,77,0,115.5-0.1c8,0,8.4-0.3,8.4-8.5c0.1-42.2,0.1-84.3,0.2-126.5c0-10.3,0-10.3-10.1-10.3c-76.3,0-152.6,0.1-229-0.2
		c-23.5-0.1-45.2,6.2-65.6,17c-27,14.3-43.7,38-56.1,65c-3,6.4-4.3,14.2-4.4,21.3c-0.3,73.6-0.2,147.3,0,221c0,4.4,0.8,9,2.2,13.2
		c10.8,32.4,31.9,55.9,62.1,71.8c20.6,10.8,41.7,17.3,65.5,16.7C1768.5,1001.4,1805.1,1002.2,1841.5,1002.2z M1537.1,806.7
		c0.1,0,0.1,0,0.2,0c0-34.8,0-69.7,0-104.5c0-8.8,0.4-9.2,9.4-9.2c5.7,0,11.3,0.1,17,0.3c6.7,0.2,7.3-0.2,7.3-6.7
		c0-34.2,0-68.3,0-102.5c0-6.5-0.7-7.2-7.2-7.2c-13.5-0.1-27,0-40.5-0.1c-46-0.1-92-0.1-138-0.2c-6.8,0-7.4,0.5-7.4,6.3
		c0,35,0.1,70,0.1,105c0,4.2,1.8,5.7,5.7,5.5c4.5-0.2,9-0.5,13.5-0.5c7,0,7.7,0.7,7.7,7.8c0.1,55,0.2,110,0.2,165
		c0,10.5-4.2,14.9-14.8,15c-21.2,0.2-42.3,0.2-63.5,0c-11.1-0.1-14.7-3.9-14.7-14.8c0-49.2,0.1-98.3,0.1-147.5c0-6.7,0.2-13.3,0-20
		c-0.1-3.8,1.4-5.6,5.2-5.5c5,0.1,10-0.1,15,0.1c4.2,0.2,5.9-1.3,5.9-5.7c-0.1-34.7-0.1-69.3-0.1-104c0-5.9-0.8-6.7-6.6-6.7
		c-10.8-0.1-21.7-0.1-32.5-0.1c-48.7-0.1-97.3-0.1-146-0.2c-4.1,0-7.2,0.3-7.2,5.6c0.1,35,0.2,70,0.1,105c0,4.3,2.1,5.9,6.2,5.8
		c6.2-0.1,12.3,0,18.5,0c9.1,0,9.1,0.1,9.1,9.3c0.1,66.2,0.1,132.3,0.2,198.5c0,3.5,0,7,0.6,10.5c4.2,24,14.6,44.3,34.9,59.1
		c26.2,19.1,54.5,31,87.5,30.7c38.2-0.3,76.3,0.1,114.5-0.1c40-0.2,73.7-14.7,100.2-45.1c12.7-14.6,19.8-31.1,19.5-51
		C1536.8,872,1537.1,839.4,1537.1,806.7z M482.5,1000.9c31.8,0,63.7,0.1,95.5-0.1c9.6,0,19.3-0.4,28.9-1.1
		c22.5-1.6,44.8-5,65.5-14.5c19.1-8.7,34.5-21.5,44.3-40.7c8.9-17.4,11.2-35.5,10.7-54.7c-0.7-23.6-7.5-44.7-20.5-64.2
		c-11.5-17.2-27.1-29.7-44-40.9c-39.7-26.3-79.7-52.2-119.6-78.2c-3.9-2.5-8-4.8-11.8-7.5c-1.2-0.9-2.5-3.2-2.2-4.4
		c0.3-1.1,2.8-2.3,4.3-2.3c12.8-0.2,25.7-0.1,38.5-0.1c3.3,0,4.9,1.6,5,4.9c0,5,0.1,10,0.1,15c0,8.7,0,8.8,9,8.8
		c38.8,0,77.6,0,116.5,0c9.1,0,9.4-0.3,9.4-9.7c0.1-41.2,0.1-82.3,0.2-123.5c0-10.8,0-10.8-10.7-10.8c-68.8,0-137.6,0-206.5,0
		c-21.7,0-42.4,4.7-61.9,13.9c-16.4,7.7-32,16.8-43.7,31c-19.7,23.9-25.1,51.8-19.7,81.3c5,27.7,21.5,49.4,44.3,64.9
		c47.4,32.2,95.9,62.8,143.8,94.2c6.1,4,12.1,8.3,17.7,12.9c1.7,1.4,2.9,4.8,2.5,6.8c-0.3,1.4-4,2.8-6.1,2.8c-25,0.2-50,0.1-75,0.2
		c-4.1,0-5.6-1.9-5.5-5.8c0.1-6.5,0.1-13,0-19.5c-0.1-5.9-0.7-6.7-6.7-6.7c-39.5-0.1-79-0.1-118.5-0.4c-4.2,0-5.5,1.6-5.5,5.6
		c0.2,9.8,0.1,19.6,0.1,29.5c0.1,34.8,0.1,69.7,0.2,104.5c0,8.7,0.4,9.1,9,9.1C407.5,1000.9,445,1000.9,482.5,1000.9z M1687.8,308.3
		c0.5,0.1,1.1,0.2,1.6,0.3c0,2.8,0,5.5,0,8.3c0.2,36,0.4,72,0.5,108c0,7.1-0.6,7.6-7.8,7.6c-16.8,0-33.7,0.1-50.5-0.1
		c-4.1,0-6.8,1.2-8.9,4.9c-17.3,31.7-34.8,63.4-52.2,95.1c-2.4,4.5-1.8,5.3,3.5,5.5c1,0,2,0,3,0c85.3,0,170.6,0,256,0c1,0,2-0.1,3,0
		c4.3,0.2,6-1.9,6-6c-0.1-6.8,0-13.7,0-20.5c0.1-23.7,0.2-47.3,0.1-71c0-6.4-0.6-6.8-6.9-6.9c-5.3,0-10.7,0-16,0
		c-9.3,0-9.3,0-9.3-9.6c0-7.7,0-15.3,0-23c0-40.3,0.1-80.7,0.1-121c0-8.9,0.3-9.1,9.4-9.2c4.7,0,9.3,0,14,0c8.2,0,8.6-0.3,8.6-8.4
		c0-29,0-58,0-87c0-8.5-0.2-8.7-8.7-8.8c-77.5-0.1-155-0.1-232.5-0.3c-4.5,0-7.2,1.3-9.5,5.4c-17.6,31.2-35.5,62.3-53.2,93.4
		c-0.9,1.5-1.4,3.2-2.3,5.5c2.6,0.2,4.4,0.4,6.1,0.5c7.7,0,15.3-0.1,23,0c5.6,0.1,6.1,1,3.4,5.8c-28.3,50.2-56.7,100.4-85,150.6
		c-2.1,3.7-4.7,5.2-8.8,5.1c-10.2-0.2-20.3-0.1-30.5-0.1c-7.6,0-7.9,0.3-7.9,7.8c0,30,0.1,60,0.1,90c0,6.8,0.7,7.6,7.4,7.6
		c34.8,0,69.7-0.1,104.5,0.1c4.9,0,7.9-1.6,10.4-5.9c37.1-64.4,74.4-128.7,111.6-193C1676.1,328.7,1681.9,318.5,1687.8,308.3z
		 M945.1,1001.7c61.3,0,122.7,0,184,0c2,0,4-0.1,6,0c4.3,0.1,5.9-2.2,5.7-6.3c-0.3-5.5-0.5-11-0.5-16.5c0.2-43.7,0.6-87.3,0.8-131
		c0-7.1-0.7-8-7-8c-41.7-0.1-83.3-0.1-125-0.3c-4.8,0-6.4,1.9-6.3,6.5c0.2,9.3,0,18.7,0.1,28c0,3.8-1.5,5.5-5.3,5.5
		c-23.3,0-46.7,0-70,0c-3.8,0-5.5-1.7-5.4-5.5c0.1-4.7,0-9.3,0-14c0.1-52,0.1-104,0.2-156c0-6.8,0.6-7.5,7.4-7.5
		c7.5-0.1,15-0.1,22.5,0c4.2,0,6-1.7,6-6c-0.1-36-0.1-72,0-108c0-3.8-1.4-5.3-5.3-5.3c-20.3,0-40.7-0.4-61-0.5
		c-45.2-0.1-90.3-0.1-135.5-0.2c-7.4,0-7.7,0.3-7.7,7.5c0,35,0.1,70,0.1,105c0,6.6,0.7,7.3,7,7.4c7.7,0.1,15.3,0,23,0.1
		c6.4,0.1,7.1,0.9,7.2,7.3c0.2,57.5,0.4,115,0.7,172.5c0,4.4-1.9,5.9-6,5.9c-8.2-0.2-16.3-0.1-24.5-0.1c-7.3,0-7.4,0-7.4,7.4
		c0.1,34.3,0.1,68.7,0.2,103c0,8.7,0.3,9,9,9C820.5,1001.7,882.8,1001.7,945.1,1001.7z M914.1,166.6c0-0.1,0-0.1,0-0.2
		c-22.7,0-45.3,0-68,0c-30.8,0-61.7,0-92.5-0.2c-4.6,0-6,1.4-6,6c0.2,30.8,0.2,61.7,0.3,92.5c0,6.5,0.6,7.1,7.2,7.1
		c4.8,0,9.7,0,14.5,0c7.8,0,8.2,0.4,8.2,8.2c0.1,46.8,0.1,93.7,0.2,140.5c0,2.3-0.1,4.7,0,7c0.1,3.6-1.7,5.1-5.2,5.1
		c-5.3,0-10.7,0-16,0c-8.3,0-8.6,0.2-8.6,8.7c0,29,0.1,58,0.1,87c0,9.4,0.1,9.5,9.5,9.5c93.8,0,187.6,0,281.5,0
		c11.2,0,22.3,0,33.5,0c7.9,0,8.1-0.5,7.8-8.2c-0.3-10.2-0.1-20.3-0.1-30.5c0.2-28.8,0.4-57.6,0.6-86.5c0-3.9-1.7-5.8-5.7-5.8
		c-37-0.1-74-0.1-111-0.3c-3.6,0-5.2,1.6-5.2,5.1c0,5-0.2,10-0.1,15c0.1,4.3-1.8,5.9-6,5.9c-15.3-0.1-30.7-0.2-46,0
		c-4.5,0.1-5.8-1.9-5.7-6c0.3-7,0.5-14,0.6-21c0.1-9.6,0.2-9.8,9.8-9.8c20.8,0,41.7,0,62.5,0c3.7,0,7-0.3,7-5.4
		c0-29.2,0-58.3,0.1-87.5c0-3.5-1.4-4.6-4.8-4.6c-15.2,0-30.3-0.2-45.5-0.3c-8-0.1-16-0.1-24-0.1c-4,0-5.8-1.6-5.5-5.7
		c0.3-4.3,0.3-8.7,0.4-13c0.2-6.4,0.9-7.3,7.2-7.3c13.7-0.1,27.3,0,41,0c8.5,0,8.8,0.3,8.9,8.6c0.1,7.8,0.5,8.3,8.2,8.3
		c35,0,70,0,105,0c8.3,0,8.8-0.5,8.8-8.8c0-34.8,0.1-69.7,0.1-104.5c0-8.6-0.2-8.8-9.1-8.8C1019.4,166.6,966.8,166.6,914.1,166.6z
		 M1297.4,165.7c0-0.1,0-0.2,0-0.2c-57.7,0-115.3,0-173,0c-7.5,0-7.6,0.1-7.6,7.5c0.1,35.8,0.1,71.7,0.2,107.5
		c0,7.8,0.5,8.3,8.2,8.3c30.8,0,61.7,0,92.5,0c9,0,9,0,9.4-8.9c0.1-3,0.4-5.9,4.4-5.9c4.1,0,4.2,3,4.2,6c0,12.7,0.1,25.3,0.1,38
		c0.1,35.3,0.1,70.7,0.1,106c0,7.4-0.5,7.9-8,7.9c-8.5,0-17-0.1-25.5,0c-6.8,0-7.4,0.5-7.4,7.5c0,30.5,0.1,61,0.2,91.5
		c0,6.2,0.8,7,6.9,7c63.7,0,127.3,0,191,0c6.5,0,7.1-0.7,7.2-7.2c0.1-30.7,0.1-61.3,0.2-92c0-6.2-0.4-6.7-6.9-6.7
		c-10.3-0.1-20.7-0.1-31,0c-4.4,0.1-6.3-1.7-6.3-6.2c0.1-49.8,0.1-99.7,0-149.5c0-4.4,1.5-6.4,6.1-6.4c4.5,0,5.8,2.4,5.6,6.3
		c-0.1,1.5,0,3,0,4.5c0.1,7.7,0.4,8.2,8.3,8.2c31.2,0,62.3,0,93.5,0c8,0,8.4-0.4,8.4-8.6c0-35.2,0.1-70.3,0.1-105.5
		c0-8.9-0.1-9-8.8-9C1412,165.7,1354.7,165.7,1297.4,165.7z M2056.6,537.9c55.8,0,111.7,0,167.5,0c7.1,0,7.9-0.7,8-7
		c0.1-42.3,0.2-84.7,0.2-127c0-6.5-0.7-7.1-7.3-7.1c-36.8-0.1-73.7-0.1-110.5-0.3c-4.9,0-6.5,1.9-6.4,6.5c0.2,7.5-0.1,15,0.1,22.5
		c0.1,4.5-1.8,6.2-6.3,6.2c-19.7-0.1-39.3,0-59,0c-5.9,0-6.7-0.7-6.7-6.6c-0.1-13.3-0.1-26.7,0-40c0.1-35.3,0.2-70.7,0.3-106
		c0-7.3,0.7-7.9,8.1-8c5.5,0,11,0,16.5,0c7.3,0,7.3,0,7.3-7.1c0-30.2,0-60.3,0-90.5c0-6.4-0.2-6.6-6.8-6.7c-58-0.1-116-0.1-174-0.3
		c-4.9,0-6.8,1.3-6.8,6.5c0.2,30.5,0.2,61,0.2,91.5c0,5.7,0.9,6.6,6.8,6.6c7.2,0.1,14.3,0.1,21.5,0c3.7,0,5.6,1.6,5.4,5.4
		c-0.1,3,0,6,0,9c0.1,46.8,0.1,93.7,0.2,140.5c0,7.4-0.4,7.7-7.5,7.8c-6,0-12,0-18,0c-8.3,0-8.4,0.1-8.4,8.3
		c0,28.8,0.1,57.7,0.2,86.5c0,9.4,0.2,9.6,9.5,9.6C1945.9,537.9,2001.3,537.9,2056.6,537.9z M1184,556.6c-1.2-1.9-1.7-3.2-2.6-3.9
		c-4.7-3.5-5.4-8.3-5.3-13.7c0.2-11.3,0.1-22.7,0.1-34c0-25.3,0-50.7,0-76c0-9.3,6.7-15.8,15.9-15.8c6,0,12-0.3,18,0.1
		c5,0.3,6.6-1.3,6.6-6.4c-0.2-30.3-0.1-60.7-0.1-91c0-8-0.1-8.1-8.1-8.1c-31,0-62-0.1-93,0.1c-5.1,0-9.5-0.8-12.8-5.1
		c-2.4-3.1-4.9-3.1-7.3,0c-3.3,4.3-7.7,5.1-12.8,5.1c-25.2-0.2-50.3,0-75.5-0.1c-4.9,0-6.6,1.5-6.6,6.6c0.3,21,0,42,0.1,63
		c0.1,11.5-1.9,10.8,10.6,10.8c24.2,0,48.3,0,72.5,0c9.6,0,16.1,6.5,16.1,16.1c0,45.5,0,91,0,136.5c0,9.9-6.8,16.7-16.8,16.7
		c-36.2,0-72.3,0-108.5,0c-1.9,0-3.8,0.2-6.1,0.4c2.6,5.9,9.7,7.9,8.9,15.2c-0.7,5.8-0.2,11.6-0.2,17.5c0,36.5,0,73,0,109.5
		c0,9.4-6.5,15.8-15.9,15.8c-5,0-10,0.1-15,0.1c-3.1,0-4.7,1.4-4.5,4.6c0,0.7,0,1.3,0,2c0,44,0,88,0,132c0,3.5-0.2,6.8,4.9,6.7
		c10.7-0.1,21.3-0.1,32,0c3.7,0,4.9-1.7,4.9-5.2c-0.1-6,0-12,0-18c0-9.9,6.8-16.7,16.7-16.7c46.8,0,93.6,0.1,140.5-0.1
		c6.6,0,12.1,1,16.2,6.6c0.7,1,2,1.5,3.8,2.8c0.2-3.1,0.5-5.4,0.6-7.6c0-25.3,0-50.7,0-76c0-9.3-0.1-18.7,0-28c0.1-4.3-1.7-6.1-6-6
		c-4.7,0.1-9.3,0.1-14,0c-6.6-0.2-13.9-7.3-13.9-13.8c0-42.5,0-85,0.1-127.5c0-6.9,7.7-14.2,14.6-14.2c11.8,0,23.7,0,35.5,0
		C1179.4,557.1,1181.3,556.9,1184,556.6z M638.2,740c-0.1,0.5-0.2,1-0.3,1.5c2,1.4,3.9,2.9,5.9,4.3c23.2,16.1,47.4,31,67.1,51.8
		c14.6,15.4,25.4,32.9,31.9,53c1.3,4,1.2,9.7,4,11.7c2.9,2.1,8.3,0.9,12.6,0.9c8.1,0,8.1,0,8.1-7.9c0-42.8,0-85.6,0-128.4
		c0-11,2-11-11-11.1c-8.3-0.1-17.2,2-23.6-5.7c-0.1-0.1-0.6,0.1-1.9,0.3c0,4.4,0,9,0,13.6c0,9-6.5,15.6-15.5,15.7
		c-23.6,0-47.3,0-70.9,0C642.3,739.6,640.3,739.8,638.2,740z M1895.6,352.8c0-17,0-34,0-51c0-12.7,1.6-11.5-11.5-11.3
		c-7.6,0.2-14.5-0.3-19.4-7.2c-2.1-3-4.7-2.8-6.9,0.1c-4,5.4-9.4,7-15.8,6.3c-1.8-0.2-3.7,0-5.5,0c-7.2,0.1-7.6,0.4-7.6,7.7
		c0,36.2,0,72.3,0,108.5c0,8.3,0,8.5,8.2,8.3c8.3-0.2,16.4-0.7,21.7,7.6c1.8,2.8,4.3,2.1,6.1-0.3c4.4-5.9,10.3-7.3,17.2-6.6
		c2.5,0.3,5-0.1,7.5,0.1c4.5,0.3,6.1-1.5,6-6.1C1895.4,390.1,1895.6,371.5,1895.6,352.8z M1331.1,788.6c0,22.8,0,45.7,0,68.5
		c0,6.1,0.8,7,6.9,7c13.8,0.1,27.7-0.1,41.5,0.1c4.7,0.1,6.6-1.9,6.5-6.5c-0.1-46-0.1-92,0-138c0-5-2-7-6.9-6.3
		c-7.2,1.1-13-1-17.3-7.2c-2.2-3.2-4.7-3.2-7.2,0c-4,5.1-8.7,8-15.8,7.4c-7.6-0.7-7.8-0.1-7.8,7.6
		C1331.1,743.6,1331.1,766.1,1331.1,788.6z M1700.7,559.1c-0.3-0.5-0.6-1-0.8-1.4c-39.1,0-78.3,0-118.2,0c1.2,1.8,1.7,3.2,2.7,3.9
		c4.9,3.8,5.7,8.7,5.6,14.6c-0.3,19.1-0.1,38.3-0.1,57.4c0,1.9,0.2,3.8,0.3,5.6c0.4,0.2,0.8,0.4,1.3,0.7
		C1616.7,598,1649.3,566,1700.7,559.1z M1817.9,736.6c-0.6-6.3-1.3-11.9-1.5-17.5c-0.1-4-1.7-5.7-5.7-5.6c-9.7,0.2-19.3-0.3-29,0.2
		c-11.2,0.6-21.3,3.8-25.1,15.9c-1.7,5.3-3.3,10.9-3.4,16.5c-0.3,28.6-0.2,57.3-0.1,85.9c0,3,0.1,6.1,0.9,8.9c1.1,4,3,7.8,4.5,11.6
		c0.6-0.1,1.2-0.3,1.8-0.4c0.1-1.9,0.2-3.8,0.2-5.6c0-31.3,0-62.6,0-93.9c0-8.2,7.2-15.4,15.5-15.5c12.3,0,24.6,0,37,0
		C1815.1,737,1817.1,736.7,1817.9,736.6z M1670.4,385.3c-0.6-0.2-1.3-0.5-1.9-0.7c-5.3,9.1-10.5,18.3-16.5,28.6
		c6.2,0,10.7,0.2,15.1-0.1c1.1-0.1,3-1.8,3.1-2.9C1670.5,401.9,1670.4,393.6,1670.4,385.3z M740.1,558.1c-3.7-3.4-6.6-8-9.4-8
		c-2.8,0-5.7,4.6-8.6,7.1c2.7,2.9,5.2,7.6,8.3,8.2C732.8,565.9,736.2,561.2,740.1,558.1z M1869.9,557.7c0.3-0.5,0.6-0.9,0.8-1.4
		c-3.1-2.6-6.2-7.2-9.4-7.4c-3.6-0.2-6.8,4.2-8.7,8.8C1858.9,557.7,1864.4,557.7,1869.9,557.7z M1367.7,557.9c-6.8,0-12.2,0-19,0
		c3.2,3.3,5.4,5.8,7.8,7.9c0.6,0.6,2.5,0.7,3,0.2C1362.1,563.7,1364.5,561.1,1367.7,557.9z M1411.3,556.7c5,0,9.4,0,14.1,0
		C1420.1,547.8,1417.3,547.7,1411.3,556.7z M520.8,865.7c0.2-0.7,0.4-1.5,0.6-2.2c-3.2-1.9-6.4-3.8-9.6-5.7
		c-0.4,0.3-0.8,0.6-1.2,0.9c0.3,2,0,5.4,0.9,5.8C514.4,865.5,517.7,865.4,520.8,865.7z"/>
</g>
</svg>
