<svg xmlns="http://www.w3.org/2000/svg" width="2488" height="580" viewBox="0 0 2488 580">
  <defs>
    <style>
      .cls-1 {
        fill: #fff;
        fill-rule: evenodd;
      }
    </style>
  </defs>
  <path id="Shape_319_1" data-name="Shape 319 1" class="cls-1" d="M11.964,10H190.34c-3.091,8.847-22.8,19.089-21.212,28.931l59.78,113.8c7.809,14.461,13.108,35.831,25.069,46.289v-1.928L336.9,39.9c2.12-10.685-17.309-20.531-20.248-29.9H494.062L459.351,52.432q-0.964,69.428-1.928,138.869v328.85l37.6,42.433H323.4l1.929-1.929,34.711-39.539q-0.483-162-.964-324.028l-1.929.964L253.977,397.676l-1.928-.964Q199.987,295.945,147.916,195.159h-0.964V523.044l35.675,38.575v0.965L11,563.548l0.964-2.893c47.826-36.1,35.677-79.846,35.675-159.121V50.5C36.685,42.305,17.01,23.112,11.964,10Zm832.1,0.964V158.513l-1.928-.965q-17.836-23.623-35.676-47.254l-154.271.965q0.964,57.857,1.928,115.724l154.272,0.964q-0.483,49.66-.964,99.33H652.19V462.289H807.426L844.065,416q-0.482,73.285-.964,146.585H519.131v-0.965l1.928-1.929,33.747-38.574V51.468C544.113,43.42,523.342,23.316,519.131,10Zm27-.964H1199.85q-0.48,73.767-.96,147.548c-0.97-.642-1.93-1.285-2.89-1.928q-17.355-22.661-34.71-45.326l-77.14.965V522.08q18.315,20.731,36.64,41.468H948.2l11.57-11.572,27-31.825q-0.481-204.907-.964-409.857l-76.172.965-36.639,47.254-1.929-.965V10ZM1356.05,110.294V522.08q17.835,19.767,35.68,39.539v0.965h-169.7v-0.965q2.9-2.892,5.78-5.786,15.435-17.839,30.86-35.682V52.432q-18.315-20.732-36.64-41.468V10l242.98,1.929c68.47,16.649,119.08,88.735,110.88,181.3-1.91,21.541-4.95,42.889-12.54,59.791-14.24,31.742-35.38,48.58-54.95,73.292q32.3,96.428,64.6,192.874,26.025,22.177,52.06,44.361l-188.98-.964v-0.965l27-40.5q-45.315-135.481-90.64-270.988c0.97-.321,1.93-0.643,2.9-0.964l57.85-1.929q23.13-34.232,46.28-68.47-23.145-33.75-46.28-67.506ZM1772.59,10l86.77,0.964c34.34,6.259,60.11,32.2,72.32,60.755,14.53,33.986,8.67,110.9,8.68,157.192,0,63.7,7.12,141.009-1.93,200.589q-0.975,29.411-1.93,58.826c-10.55,36.394-39.28,67.216-79.07,74.257l-79.06.964c-40.65,0-92.52,3.981-118.6-11.572-23.29-13.9-43.86-40.954-51.1-70.4V271.344c0-58.563-10.75-167.65,10.61-206.375,13.61-24.668,36.36-48.2,68.46-54Zm170.66,0h169.7c-5.7,17.276-30.19,25.243-35.68,41.468V523.044c10.52,7.816,30.59,26.452,34.71,39.54l-170.66.964c0.96-.964,1.93-1.929,2.89-2.893q17.355-19.768,34.71-39.539V52.432C1973.46,36.428,1946.3,25.945,1943.25,10Zm192.84,0h256.47l32.79,15.43c19.03,12.709,35.74,36.043,42.42,60.755q0.96,36.642,1.93,73.292v224.7c0,66.112,4.99,111.914-26.03,147.549-10.72,12.3-30.87,26.038-48.21,30.86l-259.37.964c0.64-.643,1.28-1.286,1.93-1.929l35.67-40.5V51.468Q2154.895,30.736,2136.09,10Zm-363.5,101.259q-33.75,26.517-67.5,53.04V341.743c0,20.046-5.31,57.058,2.89,71.363q31.815,24.59,63.64,49.183c11.11-2.961,65.31-43.931,70.39-53.04q0.48-122.945.96-245.914C1840.78,158.454,1779.66,113.063,1772.59,111.259Zm499.45,0v351.03l100.27-38.575V149.834Z"/>
</svg>
