<?xml version="1.0" encoding="utf-8"?>
<!-- Generator: Adobe Illustrator 19.0.0, SVG Export Plug-In . SVG Version: 6.00 Build 0)  -->
<svg version="1.1" id="Layer_1" xmlns="http://www.w3.org/2000/svg" xmlns:xlink="http://www.w3.org/1999/xlink" x="0px" y="0px"
	 viewBox="-93 301.4 424 190.6" style="enable-background:new -93 301.4 424 190.6;" xml:space="preserve">
<style type="text/css">
	.st0{fill:#FFFFFF;}
</style>
<path class="st0" d="M32.7,346.4c7.4-2.5,5.8,23.8,4.5,27.7c-3.5,10.4-7.5-2-8-6.9c-0.5-4.9-0.3-9.8,0.8-14.5
	C30.3,351.3,32.8,347.1,32.7,346.4L32.7,346.4z M219.2,331.1c1.2-1.4,2.3-3,3-4.8c1.2,0.2,0.4,19.2,0.1,20.9c-1-1.1-1.5-3.3-2.6-4.2
	c-2.2-1.8-4.9-1-7.6-1s-6.1,0.5-8.4-0.2c-0.8,8.1,0,15.1-0.1,23.1c0,2.8-2.4,26.7,3.8,25.5c-3.7-0.1-7.5-0.1-11.2,0
	c-0.9,0-8.2-0.5-8.5-0.3c5.2-3.8,3.9-8.7,4.3-14.7c0.5-7.4-0.3-14.7-0.3-22.3c0-2.5,1.1-7.8,0-10c-0.9-1.9-1.1-1.3-4.1-1.3
	c-3.3,0-9.1-1.2-11.7,0.6c-1.3,0.9-2.1,3.4-3,4.8c-0.5-3.8,0.4-7.7-0.4-11.5c-1.3-0.2-6.9,14.6-8.1,17.3c-2-3.2-1.7-5.7-5.3-8
	c-2.2-1.5-4.6-2.6-7.2-3.2c-4-1-8.8-1.2-12.7,0.4c-4.6,1.8-7.7,7.5-1.6,10.1c1.6,0.7,3.7,0.7,5.4,0.9c4.5,0.6,9.1,0.8,13.6,1.9
	c2.7,0.7,5.1,2,7.1,3.8c1.3,1.1,3.1,1.6,4.3,2.7c2.8,2.6,3.5,8.3,3.3,11.7c-0.1,1.4-0.4,2.9-0.9,4.2c0,0.1-2.5,3.8-2.5,4.1
	c0,0.8,0.7,0.4,1,0.5c-3.9,9.4-19.9,10.5-28.4,9.1c-2.7-0.4-5.3-1.2-7.8-2.1c-2.4-0.9-5.7-3.7-8.2-3.8c-0.8,0-3.4,0.9-3.7,1.7
	c-0.6,1.6,1.4,2.5,2.8,3.6c-5.8,0.2-13.6,1.3-19.3,0c-0.2-0.1,2.1-3,2.1-3.3c0-1.1-1.1-2.4-1.8-3.3c-2.5-3.3-4.8-7.4-7.3-10.4
	c-0.6-0.8-2.3-1.8-3.1-2.7l-4.6-5.3c-1.6-1.8-8.3-13.2-10.8-12.7c0.6,0.2-0.1,19.9-0.1,21.5c0,3.3-2.2,15.4,3.8,16.1
	c-6.1,0.6-12.6-0.8-18.6,0.1c1.4-1.3,2.6-2.8,3.7-4.3c0.9-2.5-0.1-6.2,0.1-8.7c0.3-4.7,0.1-6.7,0.1-11.4v-20.8
	c-0.1-2.5,0.9-7.3-0.1-9.6c-0.8-2-3.6-2.4-4.9-4.1c8.1,0.3,16.2-0.1,24.3,0c-0.2,0.8-3.4,2-3.8,2.5c-1.9,2.3-0.9,3,1.1,5.4
	c3.1,3.7,6.1,7.5,9,11.5c1.8,2.5,3.8,4.9,6,7c1.4,1.4,7,10.6,8.9,10.5c0.6,0,0.3-18.8,0.3-20.3c0-3.6,0.7-7.8,0-11.4
	c-0.6-3-1.9-2.5-3.8-5.2h19.2c-2.1,2.1-3.7,2.2-4.5,5.3c-0.4,1.7,0.1,4,0.1,5.8l-0.1,12.7c-0.1,10.3-0.5,20.7,0.4,31.1
	c1.9-0.7,4.3-10.1,4.9-11.7c0.9-2.4,2.3-4.9,2.9-7.5c0.5,0.3,0.9,3.8,1.2,4.5c0.6,1.9,1.9,3.6,3.6,4.6c5.1,3.4,12.9,5.3,18.9,4
	c8.1-1.9,11.7-11,1.9-12.9c-4.5-0.9-9.1-1.1-13.6-1.7c-11.2-1.7-19.9-10.5-16-22.5c0.8-2.7,2.3-5.1,4.3-7.1c1.4-1.2,2.8-1.2,4.1-2
	c0.9-0.5,1-1.4,2-1.9c1.9-0.8,3.9-1.4,5.9-1.6c2.8-0.4,4.4,0.7,7,0.9c2.6,0.3,5.2-0.6,7.8-0.3c4.3,0.6,8.4,4.7,12.6,4.9
	c1.5,0.1,4.5-0.5,5.5-2.2c0.4-0.7-0.6-8.4,0.3-8.4c0.8,7.6,11.5,6.7,16.7,6.7c4.3,0,8.6-0.8,13-0.8S215.6,333.6,219.2,331.1
	L219.2,331.1z M304.2,372.8c-0.3-1-2.5-5.6-3.5-6.1c-1-0.5-5.9,0-7.1,0c-4.6,0.1-3.6-0.8-4.8,2.6c-0.9,2.7-1.2,14.3,0.1,17.2
	c0.4,0.9,3.9,3.3,3.8,3.9c-3.8,1.3-10.4-0.1-14.4,0c-6.4,0.1-3.6-0.4-5,5c-1.3-1.7-2.7-3.4-4.2-4.9c-2.6-1.1-6.6,0.2-9.4-0.3
	c-2-0.3-3.2-0.9-5.1-0.8c-3.2,0.2-6.9,0.8-10.4,0.9c-7.3,0.2-14.6-0.1-21.9,0c2.8-2.6,3.8-2.7,4.1-6.5c0.5-4.3,0.1-8.9,0.1-13.2
	c0-6.2-0.2-12.3,0.7-18.4c0.2-1.1,0.3-2.2,0.3-3.3c-0.1-1-0.8-1.6-0.8-1.9c-0.4-3.1,0.5-7.3-0.3-10.5c-0.5-2.3-1.7-3-3.1-4.9
	c11.7-0.4,23.4,0.5,34.9,0.8c4.7,0.1,13.8-0.1,14.2-6.9c0.6,2.6-0.9,4.8,1.4,5.8c2,0.9,6.4,0.1,8.5,0.1h12.8c2.6,0,5.2,0.2,7.8,0.5
	c6.7,1,13.3-2,19.3,3.8c4.8,4.7,5.5,13.6,3.7,19.6c-0.5,1.9-1.5,3.6-2.9,4.9c-0.8,0.8-2.6,3-3.1,3.4c-1.3,0.9-5.3,1.5-6.1,2.4
	c-0.2,3.5,5.7,10,7.7,13c2.6,4.2,5.8,8,9.6,11.3c-0.6-0.9-20-0.9-21.5,0.1c0.9-1,1.8-2,2.6-3.1c0.4-2.4-3.1-6.5-4.2-8.3
	C306.6,377.1,305.4,374.9,304.2,372.8L304.2,372.8z M272.8,331.9c-0.7,4.7,0.1,10.9-0.4,15.8c-0.6-1.3-2-4.7-3.3-5.5
	c-2.8-1.6-10.8-0.3-13.9-0.3l-12.9,0.1c-3.4,0-2.9-0.5-3.9,2c-0.5,1.4-0.1,5.1,0,6.6c0,2.2-0.4,3.4,1.3,4.3c1.4,0.7,4.4,0.1,6,0.1
	c2.8,0,9.8,1.2,12.2-0.2c1.8-1,2.5-3.8,4-5.4c0.9,3,0.1,7.4,0.1,10.5c0,1.6,1.2,9.8-0.1,11.1c-1.5-3.7-2.7-5.7-6.5-6.1
	c-4.2-0.4-8.6,0-12.8,0c-0.6,0-3.3-0.4-3.7,0c-1.1,0.9-0.6,6.4-0.5,8c0,2.7-0.6,6.1,1.6,7.1s7,0,9.3,0l13.4-0.1c1.7,0,5.7,0.8,7.3,0
	c1.9-1,2.4-4.3,3.7-5.7v8.1c0,2.1-1.1,7.2,1.3,6.4c5.4-1.6,1.8-16,1.8-19.6c0.1-2.9,0.8-5.9,0.9-8.8c0.2-3.7-0.5-7.6-0.5-11.4
	C277.1,343.8,279.5,333.6,272.8,331.9L272.8,331.9z M304.6,342c-2.4-0.1-14.4-1.5-15.8-0.1s-0.1,12.5,0.1,14.4
	c6.9-0.8,23,4.3,25.6-4.9C316.4,344.8,310.8,341.3,304.6,342L304.6,342z M61.6,350.2c0.7,3.3,3.4,6.4,4.1,9.9
	c0.6,2.8,0.6,5.7,0.3,8.6c-0.5,3.8-1.9,7.3-4.2,10.4c-8.4,11.6-22.4,13.8-35.1,8.8c-13-5.1-24.2-14.9-23.7-30.6
	c0.4-14.6,14.3-24.1,28.2-24C43.4,333.4,54.2,340.4,61.6,350.2L61.6,350.2z M26.1,341.4c-7.9,0.6-13.7,7.8-12.3,15.3
	c1.7,9.1,7.5,16.4,15,21.8c7.2,5.2,16,5.6,22.9-0.4c6.4-5.6,4.1-13.1,0.3-19.7C47.1,349.5,37.3,339.7,26.1,341.4L26.1,341.4z"/>
<path class="st0" d="M254.2,395.5c0.7-0.8,1.1-1.9,1.7-2.8c0,7.2,0.6,5.9,7.6,5.9l9.7,0.4c7.3,0.6,14.7-1.3,22.2,0
	c8.5,1.5,12.9,8.4,13.1,16.7c0.1,3.9-0.4,8-2.8,11.3c-1.1,1.4-2.1,1.7-3.3,2.5c-0.4,0.3-1.4,1.7-2,2c-1.2,0.7-3.7,0.9-4.8,1.7
	c-0.2,2.2,2.2,4.8,3,6c1,1.4,2.6,3.2,3.3,4.9c0.4,0.9,0.1,2.3,0.6,3c0.3,0.4,1.7,1.3,2.3,2c1,1.2,1.6,2.8,2.6,4c1,1.2,4.5,3,5,4.4
	h-11c-1.9,0-8.6-1.2-10.2,0c1.8-2.9,2.7-2,2.2-4.7c-0.3-1.9-2.3-4.1-3.3-5.8c-1.9-3.3-3.8-6.6-5.7-9.9c-1.5-2.7-1.1-2.5-3.7-3.3
	c-2-0.7-9.4-0.6-10.3,0.6c-1.5,1.9,0,11.2,0,13.6c0,1.9-0.4,4.2,0.5,5.9c0.7,1.6,2.6,2,3.4,3.5c-2.9,0-15.7-1.8-17.5,0.3
	c-0.2,0.2-0.2,5.1-0.5,4.8c-1.2-1.1-1.4-3.5-2.8-4.4c-2.2-1.5-8.1-0.5-10.8-0.5h-15.9c-7.1-0.1-14.3,0-21.4,0c3-3.9,4.2-3.1,4.2-8
	v-40.1c0-1.7,0.4-4.2,0-5.9c-0.1-0.6-2.2-4.5-2.8-3.1v14.4c-0.9-0.1-2.2-4-2.8-4.5c-1.5-1.4-0.3-0.7-2.5-1.3
	c-2.5-0.7-6.1-0.1-8.7-0.1h-2.5c-2.5-0.8-3.4,0-2.5,2.6c-1.5,4.1-0.1,11.5-0.1,16c0,6.5-0.3,12.9,0,19.2c0.1,2.8-0.5,5.9,0.9,8.2
	c0.6,0.9,2.8,1.7,3,2.8h-11c-1,0-8.4-0.5-8.6-0.4c6.2-4,4-12.4,4-19l0.1-22.5c0-1.1,0.7-5.8-0.3-6.7c-0.5-0.5-4.9,0-5.6,0
	c-2.2,0-4.6-0.4-6.8-0.2c-5.1,0.5-3.1,2.9-6.5,5.7c-0.4-4.7,0.1-9.4-0.3-14.1c-4.3-0.5-2.4,25.6-2.4,28.1v19.8c0,1.5-0.5,4.1,0,5.5
	c0.6,1.7,2.5,2.3,3.7,4h-19.4c4.1-4.1,0.8-6.4-2.1-10l-5.4-6.6l-6.9-8.5c-1.7-2.1-8.5-12.8-10.8-12.7c-0.2,7.8-0.1,15.6-0.1,23.4
	c0,2.7-1,8,0,10.5c0.3,0.8,3.6,4,4,4c-1.8,0-19-0.2-19-0.3c6.9-2.9,4.1-15.8,4.1-22v-9.7c-0.2-2.8-0.2-5.5,0-8.3
	c0.3-1.8,1.6-4.8,1.5-6.5c-0.2-0.2-1.5,0-1.6-0.3c-0.1-1.1-0.1-2.2,0-3.4c0-1.8,0.4-4.1-0.8-5.6c-2.5-3.1-4.7-1-5.5,1.9
	c-1.2,4.4,0,10.7,0,15.2c0,8.3,1.2,17.6-0.7,25.7c-1.1,4.8-2.9,6.6-6.7,9.3c-1.3,1-1.4,2.1-3.4,2.7c-2,0.6-3.8,0.4-5.7,0.9
	c-7.4,2.1-16.8,2.1-24-1.5c-6.2-3.1-8.4-8.7-9.1-15.3c-0.9-10-0.3-20.3-0.3-30.3c0-2.9,1-7.7-1.8-9.6c-4.8-3.2-5.9,4.8-5.9,8.2
	c0,2.5,0.4,5.4,0,7.8c-0.3,1.6-1.2,1-1.3,2.9c0,1,1.1,2.5,1.3,3.6c0.5,2.9,0,6.3,0,9.2c0,8.5,0.2,17-1.2,25.1
	c-0.6,3.4,1,8.9,1.1,12.8c0,1.2-0.8,2.6-0.7,4.1c0,2,0.8,4.4,0.8,6.8c0,3.1-0.6,5.5,1.7,7.3c1.6,1.3,6.6,1.1,7.4,2.9
	c-5.2-0.5-11.2,0.3-16.4,0.3c-1.7,0-14.4-1.2-15.1-0.5c1.8,0.3,6.3-3.4,7-4.8c1.6-3.3,0.2-11.6,0.2-15.2v-15.4
	c0-5.6,0.4-4.7-4.3-5.4c-1-0.3-2.1-0.5-3.2-0.7c-4,0-8.8,0.8-13.2,0.8h-15.2c-0.6,0-4.2-0.5-4.8,0c-1.3,1.1-0.4,9.5-0.4,11.3
	c0,5.1,0,10.2,0,15.3c0,2.8-1,8,0.8,10.5c0.9,1.2,7.1,2.5,7.3,3.8c-4.7-0.5-10.3,0.3-15.1,0.3c-1.5,0-13,1.3-13.8-0.4
	c7.6-3.7,5.7-10.3,5.8-18.1v-38l0.3-24.1c0-2.4,0.3-6.4-1.2-8.6c-1.2-1.8-4.7-2.7-6.3-4c2.8,0.1,30.1-0.5,30.2,0.1
	c-1.3-0.2-5.4,2.3-6.3,3.3c-1.7,2-1.5,2.7-1.5,5.9c-0.1,4.9-0.1,9.7-0.1,14.6c0,2.3-1.2,12.2,0.3,13.4c1,0.8,3.3-0.2,4.5,0.1
	c1.5,0.4,2.4,1.7,4,1.9c2.3,0.3,3.5-2.7,5-2.8c0.4,0,1.5,1.4,2,1.4c1.8,0,3.2-0.5,5.2-0.5c4.6,0.2,8.7,0,13.8-0.1
	c2.6,0,5.1,0.5,6.2-1.2c0.7-1.1,0.1-4.1,0.1-5.6l0.2-11.6c-0.1-5.4,2-17.6-5.9-18.8c3.8-0.1,44.6-0.1,44.6,0.1
	c-7.4,4-4.1,17.3-4.1,24.4c0,5.3-0.7,11.2,0.6,16.4c1.9,7.7,10.3,8.6,15.9,8.3c12.2-0.7,10.4-14.2,10.4-23.1
	c0-5.4,0.5-10.6,0.1-15.6c-0.2-2,0.6-5.2-0.3-7.1c-0.3-0.7-3.6-3.4-3.3-3.5c4.7-1.8,14.2,0,19.1,0h18.5c-2,3.7-3.2,2.4-1.2,6.4
	c0.5,1.2,1.2,2.4,1.9,3.6c0.9,1,1.5,0.8,2.4,1.7c4.3,3.9,7.8,9.5,11.4,14c3,3.8,6.3,7.6,9.1,11.5c2.1,0.6,0.5-16.6,0.5-16.1
	c0-4.4,1.5-12.5-0.1-16.7c-0.7-1.9-2.7-2.6-3.7-4.3h12.3c2,0,4.3,0.8,5.3-0.9c0.1-0.2-0.6-5,0.1-4.9c3.4,7.2,6.9,5.8,14.4,5.8
	c3.9,0,7-0.2,10.9,0c5,0.4,10.1-0.1,15.3-0.1c3.9,0,4.5,0.4,6.7-2c0.4-0.4,1.8-3.6,2.3-3.3c1.2,3.5-1.5,4.7,3.3,5.3
	c2.2,0.1,4.3,0.1,6.5,0c6.1,0,12.3-0.3,18.5,0C241.7,398.9,250.2,401.7,254.2,395.5L254.2,395.5z M254.9,444.4
	c0.8-0.7,1.1-2,1.9-2.8c0,2.6-1.2,10.4,0.1,12.6c1.1,2,1.6-0.1,2-2.2c1.3-6.5,0-13.8-0.1-20.1c-0.1-5.7,0.2-11.4,0.2-17.1
	c0-1.4,0.6-16.1-2.6-14.6c-1.5,0.7,0.6,14.6-0.6,14.6c-1.2-8.9-14.5-5.8-20.6-5.8c-2.3,0-12.1-1.2-13.5,0.5c-0.8,1-0.2,7.2-0.1,8.7
	c0.1,4-0.3,3.3,2.7,3.8c2.8,0.5,6.2,0,9,0c1.8,0,4.4,0.4,6.1,0.1c3.7-0.7,3.4-3.3,5.8-5.8c0.1,6.9,0.4,15-0.1,21.6
	c-2.1-4.3-2-5.4-6.2-5.9c-4.2-0.5-10.5-1-14.6,0c-3.3,0.8-2.5,0.9-2.6,4.3c-0.2,2.6-0.2,5.2,0,7.8c0.6,4.4,1.2,3,6.2,3
	C231.3,447.2,255.5,449.5,254.9,444.4L254.9,444.4z M291.3,409.2c-5.5-0.5-12.8-1.3-18.3-0.2c-3.1,0.6-1.6-0.5-2.4,1.7
	c-0.5,1.2,0,3.4,0,4.7c0,1.8-0.9,5.9,0.1,7.3c1.2,1.6,5.6,0.8,7.9,0.8c4.8,0,8.8,1.5,13.8-0.4C298.4,420.7,298.1,410.3,291.3,409.2
	L291.3,409.2z M-60.5,302.6c-3.8,3.5-2.5,6-0.8,9.9l3,6.8c1,2.4,0.8,4.7,1.5,7.1c0.9,2.9,4,5.4,5.6,8.8c1.7,3.6,3.2,7.3,4.8,10.9
	c0.7,1.6,1.3,3.1,2,4.7c1,2.2,1.3,4.8,2.9,3.8c1.4-0.8,3.9-8.5,4.5-9.8l9.5-20.7c2.1-4.6,4.3-8.8,6-13.3c0.5-1.3,1.6-2.9,1.5-4.3
	c-0.1-0.9-3.6-4.9-3.5-5H6.8c-1.9,2.3-3.9,2.6-4.9,5.9c-0.5,1.5-0.8,3.1-1.1,4.7c-0.2,2.7,0.7,5,0.9,7.7c0.7,9.2,0,18.6,0,27.9v30.2
	c0,1.7-0.5,4.1,0,5.7c1.2,4.2,5.7,4.2,8.3,6.7c-1.1-1.1-13.1,0.2-15.3,0.2c-4.7,0-12.4,1.7-16.8-0.1c4.7-0.6,7.7-5.3,7.9-9.3
	c0.5-7.6,0-15.4,0-23c0-1.7-0.7-5,0-6.6c0.5-1.1,1.9-0.5,2.4-1.8c0.6-1.6-1.5-3.3-1.8-4.4c-0.4-1.6-0.6-3.3-0.5-4.9
	c0-1.2,0.9-9.8-0.7-9.7c-3,4.3-5,10.9-7.4,15.8c-1.3,2.8-2.4,5.8-4,8.4c-0.6,1.1-6.8,8-6,8.5c0.7-0.3,1.4-0.5,2.1-0.5
	c0.4,2.2-4.5,9.7-5.2,11.1c-1.1,2.4-2.3,4.7-3.4,7.1c-0.3,0.6-3.5,9.5-4.8,9.7l-14.3-32.4l-4.7-11.1l-5.8-13.2
	c-0.3-0.8-1.3-4.5-2.1-5.1c-0.3-0.2-0.7,8.9-0.7,10.3v15.4c0,5.4-0.5,10.8-0.9,15.8c-0.2,2.6,0.4,4.6,0.8,7.2s-0.4,5.2,0.8,7.6
	c1.5,2.8,4.8,3.1,6.6,5.2c-2.2,0.8-28.6,1.3-29.1,0c2.2,0.3,6.7-4.3,7.3-6.4c0.1-1.1,0.1-2.3,0-3.5v-18c0-4.2-1-9.9,0-14
	c0.3-1.1,1.3-0.4,1.5-1.3c0.4-2,0-4.7,0.1-6.7c0,0.8,1-2.2,1.2-1.7c-0.1-0.2-0.9-0.9-0.8-0.6c0.3,0.9-1.8-1.1-2-1.4
	c-1.7-3.5,0-11.8-0.1-15.7c0-4.2,0.9-9.7-0.1-13.9c0-0.2-4-6.4-4.4-5.8c10.3-0.2,20.6-0.2,30.9,0C-59.8,301.9-60.1,302.3-60.5,302.6
	L-60.5,302.6z"/>
</svg>
