<?xml version="1.0" encoding="utf-8"?>
<!-- Generator: Adobe Illustrator 19.0.0, SVG Export Plug-In . SVG Version: 6.00 Build 0)  -->
<svg version="1.1" xmlns="http://www.w3.org/2000/svg" xmlns:xlink="http://www.w3.org/1999/xlink" x="0px" y="0px"
	 viewBox="0 0 1093 287" style="enable-background:new 0 0 1093 287;" xml:space="preserve">
<style type="text/css">
	.st0{fill:#FFFFFF;}
	.st1{fill:none;}
	.st2{display:none;}
</style>
<g id="Layer_1">
	<g>
		<path class="st0" d="M8,40c9.2-0.1,18.3,0,27.5-0.2c2.4-0.1,3.5,1.1,4.5,3C47.6,57.2,55.3,71.6,63,86
			c10.3,19.2,20.5,38.5,30.8,57.7c0.2,0.4,0.4,0.9,0.7,1.3c1.6,2.7,2,2.8,3.4,0.1c2.3-4.4,4.4-8.9,6.6-13.4
			c13-26.3,25.9-52.5,38.9-78.8c1.7-3.4,3.4-6.9,5-10.3c0.8-1.8,1.9-2.8,4.2-2.8c8.2,0.1,16.3,0.1,24.5,0c2.3,0,3.4,0.7,3.2,3.1
			c-0.1,1,0,2,0,3c0,64.3,0,128.6,0,192.9c0,1.2-0.1,2.3,0,3.5c0.1,1.9-0.7,2.7-2.6,2.7c-7.3-0.1-14.7-0.1-22,0
			c-1.9,0-2.7-0.7-2.6-2.6c0.1-1.3,0-2.7,0-4c0-43.6,0-87.3,0-130.9c0-1.6,0-3.2,0-4.8c-0.3-0.1-0.6-0.2-1-0.3
			c-19.7,34.8-39.3,69.6-59.3,104.9c-19-35.3-37.7-70.1-56.4-104.8c-0.3,0.1-0.7,0.2-1,0.3c0,1.6,0,3.2,0,4.8c0,43.6,0,87.3,0,130.9
			c0,1.2-0.1,2.3,0,3.5c0.2,2.5-1,3.1-3.2,3.1c-8-0.1-16,0-24,0C8,176.7,8,108.3,8,40z"/>
		<path class="st0" d="M1088,245c-9.2,0-18.3-0.2-27.5,0c-2.9,0.1-4.4-0.8-5.9-3.3c-16.5-27.4-33.1-54.7-49.6-82
			c-1.6-2.6-3.1-3.8-6.2-3.7c-5.2,0.3-10.3,0.1-15.5,0c-2.1,0-3.1,0.8-3,2.9c0,1.2,0,2.3,0,3.5c0,25.8,0,51.7,0,77.5
			c0,5.2,0,5.2-5.1,5.2c-6.3,0-12.7-0.1-19,0c-2.3,0-3.4-0.7-3.2-3.1c0.1-1,0-2,0-3c0-64.3,0-128.6,0-193c0-1.2,0.1-2.3,0-3.5
			c-0.2-2.2,0.9-2.9,3-2.8c3.7,0.1,7.3,0,11,0c28.2,0,56.3-0.1,84.5,0c12.1,0,21.7,7.6,25,19.2c0.8,2.6,0.8,5.3,0.8,7.9
			c0,20.7-0.3,41.3,0.1,62c0.4,16.8-14.1,28.1-27.5,27.2c-3.6-0.2-7.3-0.1-11,0c-3.4,0.1-3.6,0.2-1.7,3.3c4.4,7.6,9,15.2,13.5,22.8
			c11.6,19.4,23.2,38.9,34.8,58.3c0.7,1.2,1.2,2.7,2.6,3.5C1088,244.3,1088,244.7,1088,245z M1015,65.8c-10.2,0-20.3,0-30.5,0
			c-5.9,0-6.3,0.4-6.3,6.2c0,17.6,0,35.3,0,52.9c0,5.4,0.6,6.1,6,6.1c20.5,0,40.9,0,61.4,0c5.3,0,5.6-0.3,5.6-5.7c0-18,0-36,0-53.9
			c0-5.3-0.2-5.5-5.8-5.5C1035.3,65.8,1025.1,65.8,1015,65.8z"/>
		<path class="st0" d="M763.1,142.6c0,32,0,64,0,96c0,1.3-0.1,2.7,0,4c0.1,1.7-0.7,2.4-2.4,2.4c-7.5,0-15,0-22.5,0
			c-1.7,0-2.4-0.7-2.3-2.4c0-1.2,0-2.3,0-3.5c0-29.7,0-59.3,0-89c0-5.2,0-5.2-5-5.2c-24.7,0-49.3,0-74,0c-4.8,0-4.8,0-4.8,4.9
			c0,30,0,60,0,90c0,5.1,0,5.1-5.1,5.1c-6.3,0-12.7-0.1-19,0c-2.4,0-3.4-0.8-3.1-3.2c0.1-1,0-2,0-3c0-64.3,0-128.6,0-192.9
			c0-0.7,0.1-1.3,0-2c-0.5-3.3,0.9-4.3,4.2-4.2c6.3,0.2,12.7,0.3,19,0c3.4-0.1,4.1,1.1,4.1,4.3c-0.1,21.8-0.1,43.7-0.1,65.5
			c0,7.7,0,7.7,7.5,7.7c23.8,0,47.7,0,71.5,0c4.8,0,4.8,0,4.8-5c0-22.5,0-45,0-67.5c0-4.9,0-4.9,4.8-5c5.8,0,11.7,0,17.5,0
			c4.9,0,4.9,0,4.9,4.8c0,19.3,0,38.7,0,58C763.1,116,763.1,129.3,763.1,142.6z"/>
		<path class="st0" d="M805.8,142.6c0-32.3,0-64.6,0-97c0-6.5-0.6-5.8,6-5.8c35.5,0,71,0,106.5,0c5.5,0,5.5,0,5.5,5.3
			c0,5.8,0,11.7,0,17.5c0,4.3-0.1,4.4-4.5,4.4c-26.2,0-52.3,0-78.5,0c-1.7,0-3.3,0.1-5,0c-2.3-0.2-2.8,0.9-2.8,3
			c0.1,17.3,0.1,34.7,0,52c0,3.1,1.7,3,3.8,3c14.3,0,28.7,0,43,0c7.4,0,7.4,0,7.4,7.4c0,5.3-0.2,10.7,0.1,16c0.1,3.2-0.9,3.9-4,3.9
			c-15-0.1-30-0.1-45-0.1c-6,0-5.3-0.4-5.3,5.5c0,18.5,0,37,0,55.5c0,4.8,0,4.8,5,4.8c26.8,0,53.7,0,80.5,0c5.3,0,5.3,0,5.3,5.5
			c0,5.7,0,11.3,0,17c0,4.6-0.1,4.7-4.7,4.7c-29.7,0-59.3,0-89,0c-6.7,0-13.3,0-20,0c-4.2,0-4.3-0.1-4.3-4.4c0-28.2,0-56.3,0-84.5
			C805.8,151.6,805.8,147.1,805.8,142.6z"/>
		<path class="st0" d="M550.9,156.1c0,28,0,56,0,84c0,4.9,0,4.9-4.8,4.9c-6.5,0-13-0.1-19.5,0.1c-2.6,0.1-3.7-0.8-3.4-3.4
			c0.1-1.2,0-2.3,0-3.5c0-54.7,0-109.3,0-164c0-1.2-0.1-2.3,0-3.5c0.3-2.8-0.8-3.7-3.6-3.7c-10.8,0.1-21.7,0.1-32.5,0.1
			c-4.7,0-9.3-0.1-14,0c-2.3,0.1-3.3-0.6-3.3-3.1c0.1-7,0.1-14,0-21c0-2.4,0.8-3.4,3.1-3.1c0.3,0,0.7,0,1,0c42,0,84,0,126-0.1
			c3.2,0,4.4,0.8,4.2,4.2c-0.2,6.5-0.2,13,0,19.5c0.1,2.9-0.9,3.7-3.7,3.6c-14.8-0.1-29.7-0.1-44.5,0c-5.5,0-5.1-0.6-5.1,5.1
			C550.9,100.1,550.9,128.1,550.9,156.1z"/>
	</g>
	<g id="XMLID_1_">
		<path id="XMLID_350_" class="st0" d="M339,6.4c0.5,0,1,0,1.5,0c3.3,0.2,6.6,0.4,9.8,0.6c10.1,0.7,20,2.7,29.7,5.8
			c9.5,3,18.6,7,27.3,12c8.9,5.1,17.1,11.1,24.6,18c6.2,5.7,11.9,11.9,16.9,18.7c7.7,10.2,13.9,21.2,18.4,33.2
			c5.7,15.1,9,30.6,9,46.8c0,0.3,0.2,0.7,0.2,1c0,1.2,0,2.5,0,3.7c-0.1,0.5-0.2,0.9-0.2,1.4c-0.4,5.4-0.5,10.8-1.3,16.1
			c-2.3,15.7-7.1,30.5-14.5,44.5c-5.5,10.3-12.2,19.8-20.1,28.5c-5.5,6-11.4,11.5-17.9,16.4c-9.2,7-19.1,12.9-29.8,17.3
			c-16.5,6.9-33.6,10.8-51.5,10.8c-0.7,0-1.4,0.2-2.1,0.2c-0.7,0-1.5,0-2.2,0c-0.3-0.1-0.6-0.2-0.9-0.2c-5.8-0.5-11.7-0.8-17.5-1.5
			c-14.2-1.8-27.6-6.3-40.4-12.6c-11.6-5.7-22.1-12.9-31.6-21.6c-8.2-7.5-15.5-15.9-21.6-25.1c-5.8-8.8-10.7-18.1-14.4-27.9
			c-5.5-14.7-8.6-29.8-8.7-45.5c0-0.6-0.2-1.2-0.2-1.8c0-1.1,0-2.2,0-3.3c0.1-0.6,0.2-1.2,0.2-1.8c0.4-5.3,0.5-10.6,1.3-15.9
			c2.3-15.7,7.2-30.6,14.7-44.6c5.5-10.2,12-19.7,19.9-28.1c5.6-5.9,11.6-11.4,17.9-16.4c9-7.2,19-12.9,29.7-17.4
			c16.5-6.9,33.7-10.8,51.7-10.8C337.7,6.6,338.3,6.5,339,6.4z M408.2,47.7c-1.7-0.2-2.8-0.2-3.8-0.5c-1.9-0.8-3.8-1.4-5.9-1.7
			c-2.9-0.5-5.2-5.1-4.9-9.3c1.1,0.8,2.2,1.5,3.2,2.2c0.2,0.2,0.5,0.4,0.8,0.4c1.8,0.5,3.7,1,5.6,1.4c0.9,0.2,1.8,0,2.7,0
			c1.7-0.1,3.5-0.5,5.1-0.1c2.6,0.6,5.2,1.5,6.9,3.9c0.8,1.2,1.6,2.9,3.8,2c0.3-0.1,0.8,0.3,1.1,0.5c0.7,0.3,1.3,0.7,2,1
			c-12.2-11.1-26-19.5-41.5-25.1c-0.3,0.8-0.5,1.5-0.9,2.4c-0.9-0.3-1.8-0.3-2.6-0.7c-1.2-0.7-2.2-1.8-3.5-2.2
			c-2.5-0.9-4-3.6-6.9-3.7c-0.6,0-1.3-0.3-1.9-0.4c-7-1-14-2.5-21.1-2.9c-7.1-0.4-14.4,0.1-21.5,0.7c-5,0.4-9.9,1.2-14.8,2.3
			c-10,2.2-19.5,5.7-28.7,10.2c-7.4,3.7-14.4,8.1-21,13.2c-1.6,1.3-3.7,2.4-4.6,4c-1,1.8-2.5,2.5-3.9,3.7c-0.1,0.1-0.1,0.2-0.2,0.4
			c1.9,1.8,3.6-1.6,5.4-0.3c-0.2,0.7-0.7,1.5-0.6,2.2c0.2,1.7-0.7,2.5-2,3c-2.2,0.9-4.5,1.7-6.8,2.5c0.3,0.4,0.7,0.9,1.1,1.4
			c-1.7,1.8-3,4-5,5.2c-1.8,1.1-2,2.3-2.1,4c0,0.5,0,1.1-0.1,1.5c-1.5,0.4-2.9,0.7-4.5,1.1c1.5,2.4,2.7,2.9,5.1,2.6
			c1.4-0.2,2.9,1.4,2.6,2.9c-0.2,1.2-0.2,2.4-0.3,3.7c2.3-0.1,4.4-0.1,6.4-0.4c2.3-0.3,4.8-0.7,7-1.5c2.3-0.9,4.6-2.2,6.5-3.8
			c1.5-1.2,2.6-3,3.3-4.8c0.6-1.3,1-2.5,2.5-3c0.2,0.7,0.5,1.5,0.7,2.2c0.3,0,0.5,0,0.8,0c2,0,4,0.3,5.3-1.9
			c0.3-0.5,1.6-0.7,2.3-0.6c2.6,0.4,5.1,1.1,7.7,1.7c0.7,0.1,1.6,0.3,2.2,0c2.7-1.5,5.3-3.1,8-4.7c1.8,1.6,1.8,2.3,0.3,3.9
			c-0.8,0.8-1.6,1.7-2.2,2.6c-1.2,1.6-2.6,2.1-4.3,1.2c-2.2-1.1-4.3-1.3-6.2,0.5c-1.1,1-2,2.1-3.1,3.2c-1.1-1.3-2.2-2.6-3.2-3.7
			c-1.2,0.6-1.2,1.2-0.6,2.2c0.3,0.6,0.2,1.4,0.3,2.1c0.3,1.9-1.9,3.9,0.2,5.8c0.7-0.3,1.5-0.7,2.2-1.1c0.2-2.9,0.2-2.8,3-3.2
			c0.9-0.1,1.8-1.1,2.5-1.9c0.4-0.5,0.4-1.3,0.6-2.1c1.4,0.2,2.8,0.3,4,0.4c-0.1,1.3-0.4,2.1-0.2,2.9c0.4,1.8,0,2.6-1.7,3.3
			c-2.2,1-4.3,2.1-6.4,3.1c0,0.3,0,0.6,0.1,0.8c0.7,0.1,1.4,0.2,2.3,0.4c0.3,0.4,0.9,1,1.5,1.7c0.8-1,1.6-1.8,2.2-2.8
			c1.4-1.9,2.3-2,5-0.4c0.7-1.1,1.3-2.3,2-3.3c1.5-2,3.4-3.8,4.5-6.1c1.2-2.5,3.2-4.1,5.2-5.7c0.7-0.5,2.4-0.7,2.9-0.2
			c1.6,1.2,3.2,0.6,4.7,0.7c0.3,0,0.6,0,0.9,0c-0.9,1.4-2.1,2.4-3.1,3.5c-1.9,2.2-3.6,4.4-5.3,6.7c-0.2,0.3,0.1,1.1,0.3,1.5
			c0.2,0.3,0.8,0.5,1.1,0.4c2.2-0.7,4.4-1.4,6.5-2.1c-0.6-1.4-1.1-2.8-1.6-4c2.6-1.9,4.8-3.6,7.3-5.4c0.6,1.1,1.3,2.2,2.2,3.9
			c0.5-1.7,0.7-3.1,1.2-4.3c0.5-1.2,1.1-2.5,2-3.4c0.9-0.8,2.2-1.2,3.4-1.6c1.6-0.6,2.4-1.6,1.6-3.6c1.4-0.3,2.6-0.6,3.8-0.9
			c-1.1-1.9-1.1-2.6-0.1-3.6c1.1-1,3.6-1.1,4.7-0.1c1.1,1,1.8,2.2,0.8,3.7c-3-0.1-4.2,0.6-4.2,4.1c0,1-0.2,1.9-0.4,2.9
			c-0.3,1.7-1.4,2.6-3.2,2.7c-1.2,0-2.4,0.2-3.7,0.3c0.3,1,0.8,1.6,0.7,2.3c-0.1,1-0.1,2.3-0.8,2.8c-1.7,1.2-3.6,2-5.4,2.8
			c-2,0.9-2.9,0.2-2.9-2c0-0.6,0-1.2,0-2.1c-1.7,0.8-3.1,1.5-4.4,2c0.9,2.9,1.7,5.5,2.5,8c-8.3-0.1-10.5,0.5-11.1,3
			c1.2,0.5,2.3,1,3.6,1.5c0.4-0.4,0.8-0.9,1-1.2c1.5,1.6,2.9,3.2,4.9,5.3c-0.7-2.2,0.4-2.3,1.5-2.6c1.7-0.5,3.3-1,4.8-1.5
			c1.8,1.3,1.7,2.9,1.2,4.4c0.7,0.4,1.2,0.7,1.7,1.1c-0.9,1.1-1.8,2.2-2.8,3.4c-2.2-2.3-4.2-3.6-6.9-1.6c1.1,0.2,2.1,0.4,3.6,0.7
			c-0.2,0.9-0.2,2.3-0.8,2.7c-0.8,0.5-2.1,0.4-3.2,0.3c-0.9-0.1-1.7-0.4-2.6-0.7c-0.9-0.3-1.8-0.7-3.1-1.2c2.6-1.6,2.6-1.6,2.1-2.8
			c-1,1.3-2.2,1.6-3.7,1c-0.3-0.1-0.9,0-1.2,0.2c-2.6,2.3-2.8,5.3-0.2,8.4c1.2,1.4,2.4,1.5,3.6,0.3c0.5-0.5,0.6-1.4,0.9-2.2
			c0.2,0,0.5,0,0.8,0c1.1-0.1,2.1,0.1,2.1,1.4c-0.1,1.1-0.4,2.4-2.1,2.3c-0.6,0-1.2,0.6-1.8,0.9c-0.4,0.3-0.8,0.6-1.2,0.9
			c-0.9,0.5-1.8,1.1-2.8,1.6c-0.6,0.3-1.2,0.5-1.8,0.6c-1.1,0.3-2.3,0.5-3.7,0.7c1.3,1.4,2.1,2.3,2.8,3.1c1.8-1.3,3.5-2.6,5.2-3.7
			c0.3-0.2,1.2,0.4,1.8,0.6c-1,2.1-2.2,3.7-4.4,4.4c-1.5,0.5-2.4,3.7-1.7,5.1c0.3,0.5,0.4,1.4,0.2,1.9c-0.6,1.3,0,1.7,1.1,2.3
			c0.8-1.6,1.6-3.2,2.3-4.5c2.3-0.7,2.3,0.7,2,1.8c1.8,0.2,3.4,0.4,5,0.6c0.8,0.1,1.6,0.3,2.4,0.4c0.9,0.2,2.3,0,2.7,0.5
			c0.7,0.9,1.3,2.2,0.1,3.4c-0.2,0.2-0.1,1,0.2,1.3c0.3,0.5,0.8,1,1.2,1.4c1.5-0.7,3.2-1,4.3-2c1.6-1.6,3-1,4.5-0.5
			c1,0.3,2,0.7,3,1.1c1.6,0.6,3,0.7,4.2-0.8c0.9-1.1,2-2,3-3c1-1,2-0.9,3.1,0c1.1,0.9,2.2,1.6,3.3,2.5c0.6-2.2,1.1-2.5,3-1.9
			c0.6,0.2,1.3,0.3,1.9,0.3c2.2,0,4.4,0,6.5,0c0.2,0.8,0.3,1.4,0.4,1.8c-0.8,0.8-2.1,1.4-2.2,2.2c-0.3,2.1-0.2,4.3-0.2,6.4
			c0,0.5,0.5,1,0.8,1.7c0.2-1.1,0.2-2,0.6-2.7c0.5-0.9,1.3-1.6,2.3-2.8c-1.3-0.1-1.9-0.1-3-0.2c1.1-0.8,1.8-1.5,2.5-1.7
			c1.7-0.3,3.4-0.5,5.1-0.4c4.9,0.3,8.7,2.7,11.5,6.6c-0.9,1.1-1.3,2.7-3.2,2.6c-0.1,0-0.5,0.8-0.4,1.1c0.6,1.5,1.3,2.9,3.1,3.4
			c0.4,0.1,1,0.6,1.1,1c0.1,1.6,1.1,2.2,2.6,2.2c0.6-1.8,1.2-3.6,1.8-5.3c-1.1,0.2-2.1-1.7-1.8-4.3c1.5,0.5,2.9,1,4.4,1.5
			c0.1-0.7,0.1-1.4,0.2-2c2.4,0.7,4.8,1.3,7.2,2c0.4,2.3,0.4,2.3-1,3c1.1,3.9,3.4,6,5.5,5.8c0.6-1.5,1.1-2.7,1.8-3.9
			c0.1-0.2,1.3,0.2,2,0.4c-0.9,2.3,0,6.5,1.6,7.2c3,1.4,3.7,3.9,3.9,6.9c0.1,1.9-0.9,2.3-2.3,2.6c-0.5,0.1-1.2-0.2-1.8-0.3
			c-2.4-0.3-4.1,0.5-3.2,3.3c0.5,1.6,0.8,3.3-0.7,4.7c-1.2-0.8-2.4-1.7-3.8-2.6c0.2,2.1,0.4,3.9,0.6,5.8c0.4,0.5,1.4,1,2.3,0.9
			c2.8-0.3,5.1,0.5,6.7,2.5c-0.5,1.2-1,2.4-1.5,3.7c1.9-0.3,3.2-0.6,4.8-0.9c-0.2,0.5-0.2,0.9-0.4,1c-1.5,0.8-2,1.9-2.1,3.7
			c-0.2,2.5-3.1,3.8-5.6,3.4c-2.7-0.5-5.4-1.3-8.2-0.5c-2.5,0.7-4.8-0.4-5.3-3.3c1-0.8,2.1-1.3,2.3-2.1c0.1-0.7-0.7-1.7-1.3-2.8
			c-0.9,1.3-1.5,2.1-2.4,3.3c-0.4-0.9-1-1.6-1-2.3c0-1.8-1.1-2.3-2.5-2.7c-0.1,0.7-0.2,1.2-0.4,2c-2.2-1.2-0.3-3.6-2.3-4.8
			c1.3,0.2,2.2,0.4,3,0.5c0.8,0.2,1.8,0.1,2.4,0.5c1,0.8,1.8,0.6,2.6,0c-0.7-3.4-3-4.4-6.2-4.7c-1.5-0.1-2.9-1.5-4.3-2.4
			c-0.1-0.1-0.1-0.5-0.1-0.7c0-1.2,1.7-3.5,2.8-3.4c2.2,0.2,2-1.3,2.1-2.4c-1.4-0.1-2.6-0.2-3.8-0.3c-0.1-2.2-0.1-2.2,2.4-1.6
			c0.4-0.4,0.7-0.9,1.1-1.3c2.2,1.7,5.3,1.9,6.1,5.3c0.6,2.6,2.5,5.1,0.8,7.8c1.4,1.6,2.6,3.3,4.2,4.5c1.8,1.3,1.8,2.8,1.4,4.6
			c-0.3,1-0.4,2.1-0.6,3.1c0.2,0.1,0.4,0.2,0.6,0.2c0.6-1.3,1.2-2.6,1.7-4c0.5-1.3,0.9-2.6,2.8-2c0.2-0.6,0.3-1.2,0.5-1.9
			c-0.8,0-1.5,0-2.2,0c-3.3,0-3.3-0.1-4.3-3.3c-1-3.3-2.1-6.5-3.1-9.9c0.2-0.1,0.7-0.1,1.1-0.4c0.8-0.6,1.5-1.3,2.2-2
			c-0.7-0.6-1.3-1.4-2.1-1.9c-1-0.7-2-1.3-3.2-2c-0.4,0.2-1.1,0.5-1.9,0.9c-1-2.1-2.9-4-0.2-6.3c-1-0.1-1.9-0.4-2.5-0.2
			c-1.5,0.5-2.9,1.4-4.3,2c-0.9,0.4-2,0.9-2.9,0.7c-0.9-0.1-1.8-1-2.7-1.6c-0.3,0.4-0.7,1-1.1,1.5c2.3,2.5,2.3,2.9,0.6,5.7
			c-0.3,0.5-0.3,1.3-0.3,1.9c0.1,1.2,0.2,1.2-1.1,1.5c-0.6-1.3-1.2-2.5-1.9-4c-1.4,3.8-2.8,6.9-7.2,6.6c-0.5,0-1,0.7-1.5,1
			c0.3,0.4,0.7,0.8,1.3,1.6c-0.9,0.8-1.9,1.7-3,2.6c0.8,2.7-0.4,5-3.5,5.7c-1.3,0.3-2.4,0.6-2.6,2.3c1.3-0.2,2.4-0.3,3.1-0.4
			c0.2,1.7,0.2,3.2,0.7,4.5c0.5,1.4,1.4,2.7,2.2,4c-0.2,0.2-0.3,0.3-0.5,0.5c-0.9-0.7-1.8-1.4-2.7-2.1c-0.2-0.3-0.6-0.3-1.1-0.3
			c-4.1,0-3.9,1.1-3.2,3.9c0.1,0.5-0.2,1.2-0.3,1.8c-1.9-2.7-2.8-5.4-1.7-8.2c-0.9,0.1-2.1,0-3.1,0.3c-0.7,0.2-1.4,0.9-1.8,1.5
			c-0.4,0.9,1.3,4.7,2.3,4.9c1.3,0.3,1.9,1.2,1.8,2.4c0,0.8-0.3,1.7-0.8,2.4c-0.2,0.2-1.2-0.2-2-0.3c0.3-0.8,0.6-1.3,0.6-1.4
			c-1.6-2.1-3-3.9-4.4-5.7c0.1,2.1-0.1,3.8-2.5,4c-0.1,2.6,0.9,4.3,3.6,4.4c-0.4,0.8-0.7,1.5-1.1,2.4c1,0.2,1.8,0.3,2.5,0.6
			c0.6,0.3,1.5,0.8,1.5,1.2c0,2.1,1.6,2.8,3,3.8c1.1,0.8,1.7,1.7,1.3,3.1c-0.4,1.3,0,2.4,1,3.4c0.6,0.5,1,1.1,1.6,1.7
			c1.2-0.9,1.9-2.6,3.4-1.9c0.2,1.2,0.3,2.3,0.7,3.1c0.7,1.7,1.5,3.3,2.4,4.8c1,1.6,0.9,3.2,0,4.8c-0.3,0.5-0.5,1.1-0.9,1.9
			c0.9,0.2,1.6,0.3,2.3,0.4c1.5,0.1,3,0.2,4.5,0.3c0.6,0,1.2,0.1,1.8-0.1c2.3-0.8,4.5-1.8,6.7-2.7c0.9-0.4,1.7-0.8,2.5-1.3
			c-0.4-0.5-0.6-0.5-0.8-0.6c-1.8-0.5-2.9-2.2-2.2-3.9c0.3-0.6,1.2-0.8,1.8-1.2c0.2,0.4,0.4,0.9,0.7,1.3c0.3,0.5,0.7,0.9,1.3,1.7
			c0.3-1.5,0.2-2.8,0.8-3.3c2.1-1.8,1-3.7,0.7-5.7c0-0.3-0.2-0.6-0.1-0.9c0.8-3.6,1.6-7.1,3.5-10.3c1.3-2.1,2.7-3.9,5.6-3.9
			c2.6,0,5.3-0.2,7.9-0.4c0.3,0,0.6-0.7,1-0.9c1.2-0.7,2.4-1.6,3.7-2.1c1.1-0.4,2.3-0.3,3.5-0.4c0-0.2,0-0.4,0-0.5
			c0.3,0.6,0.7,1.1,1.2,2c2.6-1.3,5.2-2.5,8.3-4c-0.2,1-0.1,2.4-0.5,2.5c-1.9,0.7-1.7,1.9-1.4,3.4c0.6,0,1.1-0.2,1.5,0
			c1.4,0.7,2.8,0.9,4.4,0.4c0.4-0.1,1.2,0.7,1.6,1.3c0.2,0.3,0,1.1-0.3,1.4c-0.6,0.7-1,1.2-0.7,2.3c0.4,1.8-0.9,2.8-2.7,2.3
			c-0.4-0.1-0.9-0.2-0.8-0.2c-1.5,1.8-2.9,3.2-4.2,4.8c-0.5,0.6-0.7,1.4-0.9,2.1c0,0.1,0.9,0.4,1.9,0.9c-1.7,1.5-3.3,2.8-4.8,4.1
			c2.2,0.3,4.1,0.5,5.5-1.4c0.4-0.5,1.2-0.8,1.8-1.1c1-0.5,2.1-0.8,2.9-1.6c1.4-1.3,2.5-3,3.9-4.4c0.8-0.7,2.1-1.4,3.1-1.3
			c1.1,0.1,2.5,0.5,2.4,2.3c0,1.2,1.4,1.8,2.4,1.1c0.9-0.7,1.5-1.6,2.3-2.4c0.5-0.6,1.1-1.2,1.8-1.5c2.1-0.9,4.6-1.2,5.5-3.9
			c0.4-1.3,0.7-2.2-0.7-2.9c-1.8,2.4-3.8,3.9-6,4.2c1-1.2,1.2-2.3-0.1-3.2c-1.7,1.5-3.2,3-4.9,4.2c-0.6,0.4-2,0.2-2.6-0.3
			c-0.9-0.8,0-4.5,1.1-5.3c0.9-0.7,1.6-1.6,2.3-2.4c0.4-0.4,0.6-1.1,1-1.2c1.6-0.5,1.7-1.6,1.6-3c-0.2-1.8-0.4-3.6-0.5-5.2
			c-3.1-1.5-6.1-1.3-9.2,1c0-1.7,0-2.9,0-4.7c-1.6,0.5-3,0.8-4.4,1.4c-1.8,0.8-3.7,0.3-4.6-1.5c-1-2.1-0.9-4.6-2.7-6.3
			c-0.1-0.1,0-0.2,0-0.4c0.1-3.4,0-6.7,0.2-10.1c0.2-2.8,0.2-5.5-1.6-7.9c-1.3-1.7-2.7-3.2-3.1-5.5c-0.3-1.6-0.3-2.7,1.5-3.6
			c1.1,0.9,2.3,1.8,3.1,2.5c1-0.3,2-0.6,3-0.9c0.3-0.1,0.7-0.3,0.9-0.5c2.2-1.6,4.4-3.2,6.6-4.7c0.1-0.1,0.2-0.3,0.6-0.8
			c-1.6,0.2-2.8,0.3-4.5,0.5c0.1-1.3,0.2-2.8,0.3-4.3c-1.1-0.6-2.2-1-3.4,0.1c-0.5,0.4-1.3,0.5-2,0.5c-1.2,0-2.6-0.5-3.7-0.1
			c-2.9,1.1-5.8,2.5-9.1,4c-0.8-0.9-1.9-2.1-3-3.4c-2-2.3-2.4-6-6-7.1c-1.4-0.4-2.4-1.9-3.8-3c-1.5,2.8-4.3,3.1-7,3.8
			c-0.3-0.6-0.6-1.3-1-2c1.4-0.5,2.8-0.9,4.2-1.4c-0.4-0.8-0.7-1.5-1.1-2.1c-0.5-0.8-0.8-1.7,0-2.2c0.6-0.4,1.5-0.4,2.3-0.2
			c1.2,0.2,2.3,0.6,3,0.8c-0.1-1-0.3-2-0.2-2.9c0-0.2,1-0.6,1.5-0.5c2.7,0.9,5.3-0.2,7.9-0.7c-0.4-0.3-0.9-0.5-1.4-0.5
			c-1.4,0.1-2.9,0.2-4.3,0.5c-6.8,1.3-12.8-0.5-18.6-4c-0.3-0.2-0.9-0.2-1.2-0.1c-2.2,1.2-4.3,0.5-6.1-0.5c-1.3-0.8-2.3-1.2-3.1-0.8
			c-1.5-1.1-2.7-2.2-4.1-2.8c-1.7-0.7-3.7-1.1-5.5-1.4c-2-0.3-3-1.4-3.6-3.1c-0.4-1.3-0.7-2.7-1.1-4c0.6-0.3,1.6-0.6,1.6-1
			c0.4-3.1,3.1-2.8,4.8-3.8c0.5,0.6,1,1.1,1.4,1.6c0.8-0.4,1.5-0.7,2.5-1.2c0.6,1.2,1.2,2.4,1.8,3.6c0.8-0.1,1.9-0.1,3-0.2
			c0.8-0.1,1.8-0.2,2.4-0.6c1.1-0.8,1.6-0.4,2.2,0.6c-1,0.6-1.9,1.2-2.8,1.8c-1.7,1-1.7,2.8,0,3.8c0.8,0.5,1.6,0.9,2.3,1.5
			c1.5,1.1,3.4,1,4.6-0.5c0.9-1.2,1.6-2.6,3.6-2.2c0.4,0.1,0.9-0.6,1.2-0.9c0.6,0.2,1.1,0.3,1.9,0.6c-0.3-0.9-0.6-1.6-0.8-2.2
			c1.3-1.2,2.5-2.4,3.7-3.5c0.4,0.4,0.8,0.9,1.2,1.3c1.9-1.8,1.7-6.2-0.3-7.6c-0.2,0.9-0.2,2-0.8,2.7c-1.5,2-3.1,3.9-4.9,5.6
			c-0.9,0.8-2.3,1.1-3.4,1.5c-0.4,0.1-0.9,0.1-1.1,0.4c-1.3,1.4-1.3,1.4-3.7,0.6c2.4-1.4,4.4-2.5,6.3-3.6c-0.6-1.5-1.1-3.3-2.1-4.7
			c-1.7-2.6-2.2-3.7-1.2-4.8c0.4,0.3,0.8,0.7,1.3,1c0.9-1.5,1.6-3,4.2-2.3c-0.3-1.7-0.5-3.1-0.9-4.5c-0.6-1.9,0.1-3.1,2.5-3.3
			c-0.1,1.4-0.2,2.8-0.3,4.1c0.2,0.1,0.3,0.2,0.5,0.3c0.6-0.7,1.2-1.4,1.7-2.2c0.4-0.7,0.6-1.4,1-2.1c0.4-0.8,0.4-1.3-0.3-2
			c-1.2-1.2-2.1-2.5-1.8-4.3c0.1-0.5,0.4-1.1,0.8-1.2c0.4-0.1,1.3,0,1.5,0.3c0.9,1.3,1.8,2.7,2.4,4.1c1.4,3.6,3.1,6.7,7.1,8.1
			c1.9,0.6,3.9,1.7,5.1,3.2c1.6,2,2.5,4.2,4.9,5.6c1.9,1.1,3,3.3,4.6,4.8c0.5,0.5,1.6,0.4,2.4,0.3c0.2,0,0.2-1,0.4-1.5
			c0.2-0.6,0.2-1.5,0.6-1.7c0.7-0.4,1.7-0.6,2.4-0.4c3.6,1.3,7.3,2.6,9.9,5.8c1.8,2.2,4.4,1.1,6.6,1.7c0.1-0.2,0.2-0.4,0.3-0.6
			c-0.7-0.6-1.5-1.3-2.4-2c0.9-0.2,1.8-0.4,2.6-0.7c0.4-0.2,1-1,0.9-1.2c-0.9-2.6,0.7-3.1,2.7-3.3c0.2,0,0.3-0.2,0.5-0.3
			c-1.3-0.6-2.6-1.2-3.7-0.9c-2.8,0.7-5.8-0.4-8.3,1.2c-0.1,0.1-0.4,0-0.6-0.1c-2.2-0.4-4.5-1.6-6.6,0c-0.4-0.8-0.6-1.4-0.9-1.9
			c-3.4,1.4-4.6-1.9-6.8-2.7c0.2-0.7,0.4-1.2,0.6-1.7c0.3,0,0.6,0,0.9,0c3.3,0.5,6.6,1,10,1.4c0.6,0.1,1.2,0.2,1.7,0
			c4.4-1.7,8.6-3.9,11.6-7.7c0.3-0.4,0.4-0.8,0.6-1.3c-0.1-0.2-0.2-0.4-0.2-0.5c-1.6,2.1-3.1,1.2-4.5,0c-0.4,0.8-0.8,1.4-1.1,2
			c-1.1,2.7-3.9,4.4-6.7,3.8c-3.2-0.6-6.4-1.5-9.7-1.7c-2.9-0.2-4.5-1.9-6.2-3.7c-0.4-0.4-0.5-1.3-0.3-1.9c0.4-1.2-0.1-1.9-1-2.8
			c-0.2,1.2,0.2,2.5-1.8,2.1c-1.7-0.4-3.4-0.5-4.4-2c-0.9-1.5-1.6-3.1-2.3-4.6c-0.1-0.2,0.1-0.7,0.3-1c1.1-2.8,3.2-4.3,6.4-4.3
			c-0.2-0.5-0.3-0.9-0.6-1.2c-1-1.1-1.9-2.3-2.9-3.3c-1.6-1.7-3.3-3.4-5-5c-1.1-1.1-2.1-2.3-3.9-1.4c-0.2,0.1-0.6-0.1-0.8-0.3
			c-0.8-1.1-1.8-0.8-2.9-0.8c-1.2,0-2.7,0.1-3.1-1.8c-0.1-0.6-1-1.1-1.6-1.5c-1.5-0.9-3-1.8-4.6-2.6c0-0.3,0.1-0.6,0.1-0.9
			c1.9-0.6,3.8-1.2,5.6-1.8c0.2-0.1,0.6,0.2,0.7,0.4c0.7,1.6,1.7,1.3,2.9,0.6c-0.2-0.8-0.5-1.7-0.8-2.5c2.9-0.4,6,1,7.5,3.2
			c0.2,0.2,0.4,0.5,0.6,0.6c2.9,1.1,4.7,3.1,5.2,6.3c0,0.3,0.1,0.6,0.2,0.9c1.2,1.9,2.4,3.9,3.6,5.9c0.8-0.4,1.5-0.7,2.1-1
			c1.9,1.4,0.2,2.7-0.1,4.4c0.8,0.2,1.5,0.5,2.3,0.6c1.2,0.2,2,0.7,2.1,1.9c0.2,1.7,1.1,2.5,2.7,2.9c0.9,0.3,1.8,1,2.8,1.6
			c-2.7,1.9-3.5,3.5-2.9,5.7c0.8-0.5,1.6-1,2.4-1.4c2.5,2.1,5.3,2,8.7,1c-1.1-0.6-1.8-0.9-2.5-1.3c0.5-1.9,1.6-2.9,3.3-3.1
			c1.9-0.2,3.8-0.4,5.6-0.3c1.3,0.1,2.2-0.5,2.4-1.6c0.2-0.7-0.3-1.5-0.6-2.3c-0.2-0.6-0.6-1.2-0.9-1.7c-0.9-1.3,0.1-2.1,1.1-2.4
			c0.9-0.3,2.2-0.7,2.5,1.1c0.2,0.9,1,1.7,1.2,2.6c0.8,2.5,2.4,4.9,1,7.8c-0.2,0.5,0.5,1.6,1,2.2c0.7,0.8,1.7,1.3,2.5,2
			c0-0.5,0-1.2,0-1.9c0.6-0.2,1.1-0.3,1.7-0.5c0.8,2,1.4,4,2.4,5.7c0.8,1.4,1.2,2.7,1.1,4.3c-0.2,2.8-0.6,5.7,0.9,8.4
			c0.2,0.4,0.1,1,0,1.4c-0.6,1.9,0,3.5,1.9,4.8c0.5-1.1-0.5-2.8,1.2-3.2c1.5,2.5,1.9,5.1,0.8,8c1-0.3,1.6-0.4,2.2-0.5
			c0.1-0.9,0.1-1.6,0.2-2.4c0.2-0.1,0.3-0.2,0.5-0.3c0.2,2.4,1.6,3.7,3.5,3.8c2.3,0.1,3-2,3.5-4.1c0.9,0.3,1.7,0.4,2.3,0.8
			c0.6,0.4,0.9,1.2,1.3,1.8c0.6-0.5,1.1-0.9,1.5-1.4c0.5,0.6,0.9,1.2,1.4,1.7c0.8-0.9,1.5-1.7,2.6-3c0.9,2.4,1.9,4.4,2.5,6.5
			c0.4,1.3,0.2,2.8,0.4,4.2c0.1,0.7,0.6,1.3,0.9,1.9c0,0.1,0.5-0.2,0.9-0.3c-0.1,0.6-0.3,1.3-0.3,1.9c-0.1,1.7-0.6,3.4,1,4.7
			c1.3,1,1.9,2.4,1,3.8c-1,1.5-0.6,2.7,0.4,4c0.6-0.2,1.2-0.5,1.8-0.7c-4-30.9-17.4-56.9-39.8-78.8c0,0.9,0,1.5,0,2.2
			c-1.4-0.1-2.6-0.2-3.9-0.2c-1.3,1.2-0.9,2.8-0.8,4.3c0.1,1.5-0.7,2.2-2.1,2.5c-1.3,0.2-2.1-0.7-2.1-1.6c0.1-1.9-0.6-3.3-2.2-4.3
			c-0.2-0.2-0.4-0.5-0.6-0.7c-0.5-0.6-1.1-1.2-1.7-1.8c-0.7-0.7-1.4-1.3-2.1-2.1c-1.8-2.3-4.1-3.5-6.9-3.5
			C406.4,45.2,407.1,46.2,408.2,47.7z M442.5,191.2c1.7-2.1,0.7-5.6,3.8-6.7c0.1,0,0-0.5,0.2-0.7c0.3-0.5,0.6-1.1,1-1.5
			c1.3-1.3,2.8-2.4,4.1-3.8c3-3.3,6-6.7,8.8-10.2c1.4-1.8,2.3-3.9,3.7-6.2c0.4,0.9,1.2,1.6,1,2.2c-1.1,3.5-0.2,7.6-3.1,10.6
			c-0.2,0.2-0.1,0.7-0.1,1.1c-0.1,2-0.3,4-1.4,5.8c-0.8,1.3-1.1,2.8-1.8,4c-1.1,1.9-2.4,3.7-3.7,5.8c-0.4-0.7-0.8-1.5-1.2-2.3
			c-1.4,1.8-1.4,1.8-1.4,4c0,0.4-0.3,0.8-0.6,1.1c-1.2,1.2-2.1,0.3-3.1-0.5c-0.4,0.9-0.7,1.8-1.2,2.5c-1.8,2.1-1.9,2.2,0.1,4.5
			c-1.3,0.2-2.3,0.3-3.3,0.5c-1.5,0.4-3.4,0.4-4.3,1.4c-2.8,3.1-6.3,5.3-9.7,7.6c-1.9,1.2-3.9,2.7-6.5,2.5c-0.4,0-0.9,0.4-1.1,0.7
			c-1.3,1.9-3.1,2.9-5.3,3.3c-0.7,0.1-1.8,0.5-2,1c-0.9,2.7-3.2,3.3-5.5,4c-0.5,0.2-1,0.7-1.5,1c-0.7,0.5-1.3,1-2.1,1.4
			c-2.4,1.2-4.9,2.2-7.4,3.4c-0.4,0.2-1.1,0.6-1.1,1c-0.2,1.4-1.2,1.5-2.2,1.7c-1.8,0.4-3.4,1-5.4,0.6c-2.1-0.4-5.3-0.9-6.6,1.5
			c-0.9,1.7-2.1,2.3-3.6,2.8c-0.9,0.3-1.9,0.3-2.8,0.4c-0.4,0.1-1,0.1-1.3,0.4c-1.9,2-3.7,4.1-5.6,6.1c-1,1.1-2,2.6-3.9,1.6
			c-0.1,0-0.3,0.1-0.1,0c0,1.1,0.2,2.1-0.1,2.9c-0.4,1.3-0.3,2.3,0.7,3.2c1.2-0.2,2.1-2.5,3.4-1c-0.5,1.5-1,2.8-1.5,4.1
			c4.1,0.8,4.5,1.8,2.1,4.8c-0.7,0.9-1.5,1.9-2.4,3c3.5-1.1,6.6-2.3,9.8-3.2c3.3-1,6.6-1.8,9.9-2.6c1.2-0.3,2.4-0.4,3.6-0.6
			c0.1,2.9,0.1,2.9-4.5,3.3c-0.3,1.8-1.5,3.1-3,2.8c-2.3-0.5-3.9,0.7-5.7,1.8c1,2,2.3,1.3,3.7,0.5c0.1,0.7,0.3,1.3,0.4,1.8
			c-3.4,1.1-6.5,2.2-9.7,3.2c-2.5,0.8-5.1,1.8-7.7,2.5c-1.9,0.5-3.8,1.1-5.9,0.2c0.6-0.4,1-0.6,1.6-1c-1.1-0.5-2.1-0.9-3.2-1.4
			c0.8-0.9,1.2-1.9,2.5-1.2c0.5,0.2,1.1,0.2,1.6,0c2.5-0.9,5-2,7.5-3c-1.4-0.2-2.9-0.2-4.3,0.1c-1.6,0.4-2.9,0.3-4.2-1
			c0.5-1.3,1-2.7,1.6-4.1c-1.5-1.1-2.9-0.2-4.3,0.5c-1.4,0.7-2.8,1.3-4.3,1.9c-0.4-0.7-0.8-1.2-1.1-1.8c1.1-0.7,2.1-1.4,2.9-1.9
			c-0.8-0.7-1.8-1.1-2-1.7c-0.2-0.9,0.3-1.9,0.4-2.7c-1,0.2-2.2,0.9-3.1,0.6c-2.2-0.8-4.1-2.1-6.2-3.2c-0.2-0.1-0.4-0.4-0.4-0.6
			c0.3-2.9-2.1-2.7-3.8-3.4c-0.7-0.3-1.2-0.9-1.6-1.2c0.7-0.7,1.2-1.2,1.9-2.1c-0.9,0.1-1.3,0-1.7,0.1c-3.5,1.1-6.9,2.4-10.4,3.3
			c-1.7,0.5-3,1.3-4.3,2.4c-0.8,0.7-1.9,1.2-3,1.4c-2.5,0.6-4.4,1.8-5.7,4c-0.3,0.5-0.9,0.9-1.3,1.4c-0.6,0.6-1.4,1.1-1.7,1.8
			c-0.5,1.1-1.1,1.3-2.2,1.4c-1.6,0.1-3.6-0.3-4.4,2c-0.1,0.2-1,0.3-1.5,0.3c-2-0.2-4.1-1.7-5.5,0.8c0.3,1.1,0.6,2.1,0.9,3.1
			c0.5,1.8,1.5,3.1,3.5,3.4c2.1,0.4,4.1,0.9,6.1,1.3c3.4,0.7,6.8,1.4,10.2,1.9c0.9,0.1,1.8-0.7,2.8-0.6c3.5,0.1,7,0.5,10.5,0.7
			c0.6,0,1.2,0,1.9,0c1.1,0.1,2.2,0.1,3.4,0.2c0,0.2,0,0.4,0,0.6c-1.4,0.1-2.7,0.2-4.1,0.4c24.8,1.2,47.9-4.9,69.3-17.2
			c-1,0.2-1.8,0.7-2.7,1c-1.2,0.4-2.8,0.9-3.4-0.5c-0.6-1.3,0.8-2,1.8-2.7c1.1-0.7,2.3-1.5,3-2.5c1.4-2.2,2.9-3,5.5-3.3
			c-0.3,1.9-0.7,3.8-1,6c0.7-0.3,1.1-0.3,1.3-0.5c7.4-4.8,14.4-10.1,20.7-16.3c3.7-3.6,7.1-7.5,10.4-11.5
			c5.8-6.8,10.6-14.3,14.7-22.2c3.6-6.9,6.5-14,8.8-21.4c3-9.7,4.8-19.7,5.5-29.9c0.4-5.4,0.1-10.9,0-16.4c0-1.3-0.5-2.6-0.8-3.9
			c-0.2,0-0.5,0.1-0.7,0.1c1.3,4.2-0.3,7.6-2.6,10.9c-0.5,1.9,3.1,2.2,1.9,4.5c-0.8,1.5-0.4,4-3.5,4c0.2,1.3,0.5,2.5,0.6,3.7
			c0.1,0.5-0.1,1.1-0.4,1.5c-0.3,0.4-0.9,0.6-1.3,0.9c-2,1.3-2.3,2.3-2,4.6c0.1,1.1,0,2.5-0.6,3.5c-1.1,1.7-2.5,3.1-3.8,4.7
			c-2.4,2.9-4.9,5.6-7,8.6c-1.6,2.3-3.3,4.2-5.6,5.8C440.2,186.2,440.2,189.5,442.5,191.2z M249.8,107.4c0.2,0,0.4,0.1,0.7,0.1
			c-0.1,0.5,0,1.1-0.3,1.4c-0.8,0.8-1.5,1.4-1,2.7c0.4,0.9,0.2,2,0.5,3c0.7,2.5,1.5,5,2.3,7.8c1.7-2,1.1-3.6,0.4-5.2
			c-1.4-2.8,0.1-5.3,1-7.8c0.3-0.7,1.6-1,2.4-1.5c0.6-0.4,1.1-0.9,1.7-1.3c1.9-1.4,3.6-3.5,6.4-2.9c0.1,3.6-4.3,3.4-5.2,6.7
			c0.8,0,1.5-0.1,2.1-0.1c0.7-0.1,1.5-0.2,2.2-0.2c1.3,0.1,2.6,0.4,4.3,0.6c0,0,0.1,0.4,0.2,1c-2.2-0.2-3.6,0.6-3.9,2.1
			c-0.2,1-0.5,2.1-0.7,3.1c-0.1,0.4-0.2,0.9,0,1.1c1.2,1.7,2.5,3.2,3.7,4.9c0.8,1.1,2.2,2.2,2.3,3.4c0.2,1.6,1.2,2.1,2.5,2.8
			c0.1-1.5,0.3-3.5-0.5-4.3c-1.9-1.7-1.7-4.1-2.8-6.1c1.7,2,3.3,0.6,5.1-0.3c0.4,1.4,0.7,2.7,1.1,4.4c0.9-1.8,1.6-3.3,2.4-4.9
			c0.3,0.7,0.6,1.3,1,2.2c2-1,4-1.9,6-2.9c-0.3-0.7-0.4-1-0.6-1.2c-0.8-1-1.6-2-2.4-3c-1.5-1.9-1.3-2.7,0.7-3.9c0.6,2,0.6,2,1.8,1.8
			c-0.2-1.6-0.4-3.2-0.6-4.8c0.3-0.1,0.5-0.2,0.8-0.3c1,2.3,1.9,4.6,2.9,6.9c2.7-0.8,5.2-1.5,7.6-2.2c0-0.2,0-0.4,0.1-0.6
			c-0.5-0.1-1-0.3-1.6-0.4c-1-0.2-2.2-0.2-3.1-0.6c-2.5-1.2-3.4-3.7-1.6-5.6c-2.2-0.7-4.2-1.3-6.4-1.9c-0.1,0.5-0.2,0.8-0.2,1.1
			c0.1,2.1-0.8,3.6-2.7,4.7c-1,0.5-1.8,1.4-2.6,2.1c-0.9,0.8-1.8,1.6-2.7,2.5c-0.1-0.1-0.3-0.3-0.4-0.4c1.5-2.4,3.1-4.8,4.5-7
			c-1.4-3-2.7-6-4.1-9.1c0.9-0.2,1.5-0.2,2.1-0.3c0.9-3.1-1.2-6.6-4.4-7.1c0.9,1.8,0.5,3.2-1.2,4.1c-2.2-1.5-4.5-2-6.9-1.2
			c-0.1,1.7-0.2,3.3-0.3,5c-0.2,0.1-0.5,0.2-0.7,0.3c-0.5-0.7-1-1.5-1.5-2.2c-0.5-0.7-1-1.5-1.8-2.5c0,2.7,0,4.8,0,6.9
			c-1.1,0.3-2.3,0.5-3.4,0.8c-1.7,0.6-2.3,0.2-2.5-1.6c-0.3-1.9-0.3-4.1-2.3-5.1c-1.7-0.9-3.6-1.7-5.5-1.9c-1.7-0.2-2.6-1.1-3.5-2.2
			c0.9-1.2,2-1.3,2.9-0.2c1,1.2,1.7,0.6,2.5-0.2c-1.8-1.6-3.6-3.2-5.5-5c-0.2,0.8-0.4,1.5-0.5,1.9c-1.2,0.3-2.2,0.6-3.3,0.9
			c0.7,1.1,1.2,1.8,1.9,2.8c-5.1,2.2-5.8,7-6.4,11.7c-2.8-1.5-5.2,0-7.5,0.3c-1.9,0.3-2.2,1.5-1.3,3.2c0.5,0.9,0.9,2,1,3
			c0.4,2.4,1.9,4.2,4,4.4c0-0.7,0-1.3,0-2.2c3.2,2.2,1.6,6.3,3.9,8.9c0.8-0.6,1.6-1.2,2.1-1.6c1.2,3.4,1.5,7.4,5.3,9.5
			c0.2,0.1,0.4,0.5,0.5,0.7c2,3,4,6,6,9c2,3.1,5.1,5,7.8,7.4c1.6,1.4,3.3,2.6,4.9,3.9c1.6,1.4,2.9,3.4,5.5,2.4
			c0.2-0.1,0.7,0.2,0.9,0.4c2.6,2.3,5.2,4.6,7.7,7c0.7,0.6,1.2,1.4,1.7,2.1c-0.1-1.1-0.4-2-0.6-2.9c-0.7-4.5-3-7.3-7.6-8.2
			c-0.2,0-0.4-0.3-0.6-0.4c-2.3-1.4-4.6-2.7-6.9-4.1c-0.7-0.5-1.3-1.2-2-1.7c-0.6-0.5-1.2-1-1.8-1.5c-1.3-0.9-2.9-1.4-3.8-2.5
			c-2.2-2.9-4.2-6-6.2-9.1c-0.3-0.4-0.5-0.9-0.7-1.4c-0.5-1.1-0.9-2.1-1.4-3.2c-0.3-0.7-0.8-1.3-0.8-2c-0.2-2.4-0.5-4.9-0.4-7.3
			c0.1-2.7,2.4-6.3,5.8-5.2C249,108.8,249.4,108.1,249.8,107.4z M251.6,200.7c-0.9-0.5-1.7-1.2-2.5-1.2c-2.2,0-3.6-1.2-4.1-3.2
			c-0.4-1.6-1.6-1.8-2.7-2.4c-0.6-0.3-1.5-0.3-1.8-0.7c-0.4-0.6-0.3-1.5-0.3-2.2c0-2.1,0.6-4.3-0.1-6.1c-0.7-1.9-2.6-3.3-4-4.8
			c-0.1-0.1-0.3,0-0.5,0.1c0.2,0.7,0.4,1.4,0.7,2.3c-1.9,0.4-3.7,0.9-5.5,1.2c-1.6,0.2-3.9,2.8-3.2,4.1c1.1,2,1.5,4.5,3.9,5.7
			c0.8,0.4,1.9,1,2,1.6c0.2,2.2,1.3,3.8,2.9,5c2.1,1.7,4.4,3.2,6.7,4.7c0.1,0.1,0.4,0,0.7,0c2.2-0.5,4.4-1,6.6-1.5
			c0.5,0.6,1,1.1,1.4,1.5c-0.6,0.5-1.2,0.9-2,1.5c0.8,0.2,1.2,0.3,2,0.5c-0.4,0.8-0.7,1.5-1.2,1.9c-1.3,1-1.6,2.1-0.6,3.6
			c1.7-1.8,3.3-1.8,5.2-0.2c0.5,0.4,1.5,0.2,2.3,0.3c0.7,0.2,1.8,0.4,1.9,0.7c0.2,0.8-0.1,1.8-0.4,2.6c-0.4,1-1.1,2-1.7,2.9
			c1.6,0.4,2.8,0.8,4,1c0.4,0.1,1.2-0.2,1.4-0.6c1-1.5,1.9-3.1,2.8-4.6c0.7-1.3,3.4-1.8,4.3-0.8c0.7,0.8,0.8,5.1,0.1,6.2
			c-0.6-0.2-1.3-0.4-2-0.6c-0.2,0.5-0.3,1-0.6,1.8c6.1,1,10.8,6,17.3,5.9c0-0.5,0.1-1.1,0.1-1.8c0.8-0.1,1.4-0.2,2.1-0.3
			c0.1-0.2,0.1-0.4,0.2-0.6c-1.1-0.8-2.2-1.6-3.4-2.3c-1.6-0.9-2.7-2.1-2.6-3.7c2.4,0.4,4.8,0.9,7.2,1.2c1.5,0.2,3-0.2,4.4,0.1
			c1.8,0.4,3.3,0.6,4.8-0.7c0.1-0.1,0.4-0.1,0.5-0.1c3.6-0.9,7.2-1.9,10.8-2.8c0.6,0.6,1.2,1.1,1.9,1.7c0.3-0.6,0.6-1.2,0.6-1.3
			c-0.8-1.3-1.5-2.4-2.2-3.5c-0.5-0.9-2.2-1-2.8-0.1c-0.4,0.6-0.8,1.3-1.1,2c-0.8-0.2-1.4-0.4-2.1-0.6c0.3-1.4,0.6-2.7,1-4.2
			c-2.5,1-4.8,1.8-7.1,2.7c-0.2,0.1-0.4,0.3-0.5,0.5c-1.5,1.3-3.2,2.2-5.3,2c-2.3-0.3-4.1,0.6-5.6,2.3c-0.3,0.3-0.6,0.5-1.1,0.9
			c-0.4-1.8-0.8-3.4-1.3-5c-0.1-0.4-1-1-1.2-0.9c-1.3,0.8-1.6-0.2-2.1-1c-0.9-1.6-1.9-2.5-3.9-1.8c-1.3,0.4-2.7,0.5-4.1-0.6
			c-1.9-1.5-3.4-0.8-4.1,1.4c-0.9,3-1.8,3.4-4.7,2.4c-0.2-1.1-0.3-2.2-0.5-3.4c-0.8,0.5-1.3,1.1-1.8,1.1c-0.9-0.1-2.5-0.5-2.5-0.8
			c0.2-2.7-1.7-4-3.3-5.6c-0.8-0.8-1.3-1.6-1.3-2.8c0-0.6-0.6-1.3-1-1.9c-0.2,0.1-0.3,0.2-0.5,0.2
			C251.9,199.7,251.7,200.2,251.6,200.7z M440.5,140.3c-0.7-0.4-1.2-0.6-1.6-0.8c0.1,0.2,0.1,0.4,0.2,0.5c-0.7,0.5-1.4,1.1-2.2,1.4
			c-1.1,0.5-2.4,0.8-3.5,1.3c-1.3,0.5-1.7,1.3-0.7,2.5c4.2-1.3,5.1-1,5.1,1.6c-2.6-0.2-5,0.8-7.8,0.1c-3.5-0.9-3.6-0.6-5.3,2.6
			c-0.8,1.6-2.1,2.2-3.5,2.4c-1.1,0.2-2.2-0.1-2.7,1.3c-0.4,1-1.5,2.1-1.3,2.9c0.5,1.9-0.5,3-1.8,4.2c0.6,0.4,1.2,1.2,1.5,1.1
			c1.4-0.4,2.8-0.9,4-1.6c1.2-0.7,0.9-2.6-0.6-4.5c2.3-1.9,3.9-4.9,7.5-4.9c1.1-1.6,2.3-0.9,3.3,0.1c1.3,1.3,2.6,1.2,3.9,0.3
			c1.4-1,2.7-1.5,4.6-1.7c2.7-0.3,5.3-1.8,7.8-3c1.5-0.7,1.7-2.1,0.8-3.6c-0.5-0.9-1-1.8-1.6-2.9c0.9,0,1.6,0,2.3,0
			c0.7,2.5,2.6,3.5,5,4c0.7-1.1,0.8-2,0.6-3.4c-0.2-1.5-1.6-3.1-0.4-4.9c0.3-0.5-0.2-1.6-0.4-2.4c-2.7,0.7-3.7,2.4-4.1,4.7
			c-2.4-1.1-2.6-2.3-1-4.1c0.7-0.9,1.2-2,1.9-3c-0.9-0.4-1.5-0.8-2.1-1.1c-0.7,0.9-1.3,1.8-2.1,2.8c-0.5-1-0.9-1.6-1.2-2.2
			c-0.7,0.3-1.3,0.5-2,0.8c-0.4-2.3-2-3-4.1-3.4c0.1,0.8,0.1,1.4,0.3,1.9c0.6,1.5,1.7,3,1.9,4.6C441.3,135.9,440.7,138,440.5,140.3z
			 M406.2,100.8c-1.6,0.4-3.1,0.7-4.5,1c-0.1,0.1-0.1,0.3-0.2,0.4c1.7,0.8,3.5,1.6,5.3,2.4c-0.5,1.4-1.6,1.8-3.6,1.3
			c-0.6-0.2-1.7-0.1-2,0.3c-0.4,0.5-0.4,1.5-0.2,2.2c0.2,0.7,0.7,1.4,1.2,2.2c-1.1,0-2,0.1-2.8,0c-2.3-0.3-3.3,0.7-3,2.9
			c0.1,0.5,0,1,0,1.7c1.8,0,3.4,0,5,0c0.4,0.7,0.7,1.4,1,1.9c1.5-0.6,2.8-1.2,4.2-1.6c1.2-0.4,2.5-0.8,3.8-1.1
			c0.6-0.1,1.3-0.1,1.8,0.2c1.9,0.9,3.8,1.9,5.8,2.8c0.3-3.2,1-3.5,3.7-2.2c1.1,0.6,2.3,1.1,3.6,1.6c-0.4-1.5-0.9-2.6-0.8-3.7
			c0.2-1.6-0.6-2.7-1.7-3.5c-0.9-0.6-1.9-1-2.9-1.5c-3-1.6-6-3.2-9.1-4.7c-1.4-0.6-2.3-1.5-2.9-2.9c-0.4-1-1.2-1.8-1.8-2.7
			c-0.2,0.1-0.3,0.2-0.5,0.3C405.8,99.1,405.9,99.7,406.2,100.8z M275.5,248.6c1.1-3.1,0.9-5.9-1.3-8.3c-0.2-0.2-0.5-0.7-0.4-0.8
			c1-2-0.6-2.8-1.9-3.6c-3.1-2-6.7-3.1-9.4-5.7c-0.9-0.8-2.5-1.2-3.8-1.3c-1.5-0.1-2.1,1.4-2,2.6c0.1,1,0,2.7,2,2.3
			c-0.1-0.2-0.1-0.3-0.2-0.4c-0.3-0.9-0.6-2,0.6-2.4c0.6-0.2,1.8-0.2,2.1,0.2c0.4,0.5,0.4,1.5,0.2,2.2c-0.3,1.1-0.8,2.2-1.2,3.1
			c0.9,1.4,2.1,2.8,2.6,4.4c0.4,1.4,0.9,2.1,2.7,2.4c-0.5,1.2-0.9,2.3-1.3,3.6C267.6,248.9,271.8,247.6,275.5,248.6z M386.1,193.4
			c0.9,2,1.7,4,2.7,5.8c0.9,1.8,4.2,2.8,6,2.1c0.9-0.3,1.8-0.4,2.7-0.6c1.2-0.2,2.9,0,3.6-0.7c4-4.2,4.1-5.8,1.6-10.8
			c-0.6-1.2-1.4-1.5-2.6-1c0.8,2.6,0,4.5-2.2,5.2c-0.2-0.8-0.4-1.6-0.6-2.4c-1.5-0.1-1.5-0.1-2.1,1.2c-0.5,1.1-1.8,1.4-2.4,0.4
			c-1-2-2.7-1.7-4.4-1.7c-2.5,0-3.6,0.8-4.3,3.3C384.7,194,385.2,193.8,386.1,193.4z M328.6,231.4c0.6,0,1.3,0.2,1.9,0
			c0.7-0.3,1.7-0.9,1.8-1.4c0.1-1.7,1.2-2.8,2.5-2.9c1.8,0,4,0.2,5.4,1.1c1.4,0.9,3.8,2.1,5.3,0.8c-2.4-3.7-2.4-3.7-2.5-6.3
			c3.3,2.2,6.6,3.9,10,0.3c-1-2.1-1.9-4.2,0-6c-1.3-1.7-3-1.4-4.7-1.5c-1.6-0.1-2.1,0.9-2,2.2c0.1,1.3,0.2,2.9,1.9,2.9
			c1.6,0,2.3,0.6,2.3,2.1c-2.3,0.4-3.5,0.7-6.8-1.4c-1.7-1.1-3.5-0.1-3.4,1.9c0.1,1.9-1.4,2-2.4,2.4c-0.9,0.4-2,0.7-3-0.5
			c-1.6-1.9-3.6-1.4-4.6,0.9c-0.4,0.9-0.9,1.9-1.6,2.6C328,229.5,327.9,230.3,328.6,231.4z M322.7,183.9c0.8-1.5,0.8-2.5-0.9-3.2
			c-1.5-0.6-2.7-1.4-3-3.2c-0.1-0.4-0.6-0.9-0.9-0.9c-2.2-0.4-2.1-2.1-2.3-3.6c-0.1-0.7,0-1.4,0-2.1c-1.5-0.3-1.9,0.2-1.9,1.4
			c0,1.2-0.2,2.4-0.3,3.6c-0.6,0-1,0-1.3,0c-0.3,0-0.7,0.1-1,0.2c0.2,2.1,0.2,2.1,1.6,2.9c1.4,0.9,1.4,2.2,0.8,3.7
			c-0.6,1.3-0.8,3.1-0.5,4.5c0.1,0.6,2,0.8,3,1.1c0.4,0.1,0.8,0,1.2,0C318,184,318.9,182.2,322.7,183.9z M317.2,194.3
			c-1.2,3.1-1.2,3,1.6,4.6c0.5,0.3,1,0.7,1.4,1.1c0.9,1,1.6,2.1,2.6,3c1,1,2.2,1.7,3.2,2.6c3.6,3.5,4.7,3.3,6.4-1.3
			c0-0.1,0-0.2,0-0.4c-3.8-0.5-4.5-3.8-5.6-6.8c-0.4,0.1-0.7,0.2-1.1,0.3c-4.4,1.1-5.8,0.4-6.2-3.2
			C318.6,194.3,317.9,194.3,317.2,194.3z M365.9,136.1c0.7-0.4,1-0.6,1.4-0.9c1.5-1.1,1.5-2.1-0.2-3.1c-0.7-0.4-1.6-0.7-2.4-1.1
			c0.4-0.7,0.8-1.4,1.2-2.1c-0.8-0.4-1.4-0.8-2.1-1.2c-0.1,0.1-0.1,0.2-0.2,0.3c0.3,0.4,0.5,0.8,0.8,1.2c-2.6,2.2-0.1,3.8,0.4,5.7
			c-2.2,1.1-3.7-0.8-5.7-1.6c0.1,0.4,0.1,0.7,0.2,0.9c1,1.9,2.2,3.7-0.1,5.6c-0.3,0.2-0.3,0.9-0.5,1.7c1.4,0.1,2.7,0.3,4,0.2
			c2-0.2,3.9-0.6,5.8,0.3c0.6,0.3,1.6-0.4,2.4-0.6c0-0.2,0.1-0.4,0.1-0.6C369.5,139.2,367.8,137.8,365.9,136.1z M418.5,135.1
			c1.4,0.6,2.5,1.3,3.7,1.6c4.3,1.2,9.5-1.6,10.8-5.7c0.6-2.1-0.1-3.4-1.9-3.9c-2.1,1.5-4.6,2.5-5.8,4.4
			C423.6,134,420.8,133.3,418.5,135.1z M314.6,205.7c0.3-1.4,0.4-2.6,0.9-3.6c1.1-2.3-1-2.2-2-2.7c-1.3-0.6-3.2-1.9-4,0.1
			c-0.6,1.5-1.4,2.1-2.6,2.7c-1.5,0.8-3,1.6-4.2,2.8c-1.4,1.4-2.5,1.9-4,0.2c-0.2,0.6-0.4,1.1-0.5,1.6c5.1,1.8,9,0.5,10.3-3.7
			c0.6,0.3,1.7,0.6,1.7,0.9c0.2,2.1,1.2,2.2,2.8,1.6C313.6,205.5,314.2,205.7,314.6,205.7z M334.1,185.4c-1.7-1.8-3.4-3.6-5.1-5.3
			c-0.2,0-0.3,0-0.5-0.1c0.2,1.5,0.4,3,0.6,4.7c-2-0.5-4.3-1.1-5.5,1.1c-1.3,2.4-0.9,4.1,0.4,5c3-1.7,6.1-0.8,9.7-0.8
			c-0.6-1.1-1.1-2.2-1.6-3.2C332.6,186.4,333.2,186,334.1,185.4z M443.6,157.7c0.9-0.4,1.7-0.7,2.3-1.2c0.7-0.5,1.2-1.3,1.8-2
			c2.4,1.2,4.5,1.3,6.8-0.2c0.7-0.4,1.7-0.4,2.6-0.5c-0.1-0.2-0.4-0.9-0.8-1.5c-1.4-1.9-1.4-2.9,0.2-4.8c1.5-1.9,1.9-3.3,1.2-5.1
			c-1.5,2.2-3,4.4-4.4,6.5c-1.1,1.8-2,3.7-4.3,4.2c-1.5,0.4-3,0.9-4.4,1.4C443.4,155,443,156,443.6,157.7z M349.2,211.4
			c-1.2-1.1-2-2.4-1.8-4.1c0.1-0.7-0.2-1.5-0.5-2c-0.7-1-1.6-1.9-2.3-2.8c-1.6,1.5-2.8,2.6-4.2,3.9c0.1,0.2,0.4,1.1,0.5,1.1
			c1.3-0.2,2.6-0.5,4-0.8c1.2,1.6,0.9,3-0.5,4c-1,0.8-1.9,1.8-2.8,2.7c0.1,0.2,0.2,0.4,0.4,0.6c1.6-0.2,3.2-0.5,4.9-0.5
			C348,213.4,349.2,213.4,349.2,211.4z M308.4,184.1c0.2-0.2,0.4-0.4,0.7-0.6c-2-2.7-3.9-5.3-5.9-8c-1.1-1.6-2.7-1.6-4.3-1.4
			c-1.5,0.2-1.5,1.5-1.8,2.8c1.6,0.6,3.1,1.4,4.7,1.8c1.7,0.4,2.8,1.2,3.7,2.7C306.2,182.5,307.4,183.2,308.4,184.1z M316.5,210.8
			c0.9,1.9,4.5,4.8,6,4.8c0.4,0,1.1-1.2,1.1-1.3c-1.2-1.5-0.3-2.4,0.8-3.3c-0.4-0.6-0.8-1.1-1.2-1.7c-0.4-0.6-0.8-1.2-1.2-1.8
			c-0.9,1.1-1.3,1.7-2,2.1C318.8,210.2,317.6,210.4,316.5,210.8z M325.4,236.9c1.1,2.2,2.5,2.8,4.7,2c0.6-0.2,1.3-0.3,1.9-0.4
			c1.2-0.1,2.4-0.2,3.8-0.3C334.2,234.4,329.3,234,325.4,236.9z M339.6,236.4c0.5,0.6,0.7,1,0.9,1c2.1-0.1,4.2,1.4,6.2-0.5
			c0.6-0.6,1.8-0.6,2.8-0.9c0.2,0.2,0.3,0.5,0.5,0.7c-0.9,1.1-1.8,2.3-2.9,3.7c1-0.1,2.1,0.1,2.4-0.3c1-1.2,1.6-2.7,1.3-4.4
			c-0.3-1.2-0.6-2.3-0.9-3.7c-1.7,0.9-3.4,1.8-5.2,2.7c0,0.6-0.1,1.3-0.1,2.1C342.9,236.7,341.5,236.6,339.6,236.4z M426.8,158.3
			c-0.8,1.2-1.3,2-1.9,2.7c-0.8,1.2-1.4,2.3-0.7,3.8c0.5,1.1,0.9,2.2,1.4,3.2c-0.5,0.4-1,0.8-1.4,1.1c0,0.2,0,0.4,0,0.6
			c0.9,0.1,1.9,0.3,3.4,0.5c-0.6-2-1.3-3.3-1.5-4.8c-0.2-1.1,0-2.4,0.5-3.5c0.5-1.1,1.5-2,2.5-3.2
			C427.9,158.5,427.1,158.3,426.8,158.3z M246.9,215.6c-0.3-0.1-0.6-0.4-0.8-0.3c-0.5,0.2-1.5,0.5-1.5,0.8c0,0.6,0.3,1.5,0.8,1.7
			c1.1,0.5,2.4,0.7,4.1,1.1c-0.2-2.1-0.4-3.6-0.5-5.1c-0.2,0-0.4,0-0.6,0C247.9,214.3,247.5,214.8,246.9,215.6z M303.4,82.8
			c-1.3,1-2.6,1.9-3.9,2.9c2.2,2.6,3.5,3.1,5.9,1.8C302.9,86.6,303,84.8,303.4,82.8z M431,185.2c0.2-0.1,0.4-0.1,0.7-0.2
			c-0.5-4,2.7-2.5,4.3-3.2c0-0.7,0-1.3,0-1.9c-3.2-1.6-4.1,1.8-6.5,2.7C430.1,183.7,430.5,184.5,431,185.2z M342.8,241.8
			c2.4,1.9,2,6.1,6,6.2C348.5,245.2,345.7,242.1,342.8,241.8z M441.5,115.5c-2.8,2.5-3.4,4.2-2.3,5c0.6-0.7,1-1.7,1.7-2
			c0.9-0.3,2.1-0.1,3.1-0.1C444.1,118,444.1,118,441.5,115.5z M369.2,224.1c-0.1,0.2-0.1,0.4-0.2,0.5c1.4,0.9,2.8,1.8,4.3,2.8
			c0.3-0.6,0.6-1,0.7-1.4c0.1-0.5,0.4-1.3,0.2-1.5c-0.4-0.4-1.2-0.6-1.8-0.6C371.3,223.9,370.3,224,369.2,224.1z M360.4,247.6
			c0.2-0.2,0.3-0.4,0.5-0.6c-2.5-2.2-5.1-4.3-7.6-6.5c0.6,2,0.9,4.3,3.6,4.5c0.4,0,0.7,0.4,1,0.7C358.7,246.3,359.5,247,360.4,247.6
			z M386.1,212.7c2.1-0.5,3.6-2,3.2-3c-0.3-0.6-1.1-1.3-1.7-1.3c-0.5,0-1.4,0.8-1.6,1.3C385.8,210.6,386,211.6,386.1,212.7z
			 M449.3,159.1c-0.8-0.6-1.7-1.2-2.3-1.7c-1.5,2.2-2.8,4.1-4.4,6.4C445,162.1,447.1,160.7,449.3,159.1z M281.4,125.6
			c1.4,0.9,2.5,0.9,3.5-0.1c1-1,1.1-2.2,0-3.2C283.8,123.4,282.7,124.4,281.4,125.6z M461.5,148.6c0.8-1.1,1.7-2.2,0.5-3.5
			c-0.4-0.4-1.2-0.5-1.8-0.7C459.7,146.3,459.4,147.8,461.5,148.6z M288,97.6c1.4-1.9,0.8-3.7,0.4-5.7
			C286.3,94.5,286.2,96.1,288,97.6z M388.8,152.1c2.4-1.8,4.4,0.3,6.8,0.6c-2-2.8-4.9-1.9-7.4-3
			C388.5,150.6,388.6,151.2,388.8,152.1z M315.1,122.6c-0.7,1.4-1.3,2.5-1.9,3.5c0.2,0.2,0.4,0.3,0.6,0.5c1.1-0.8,2.2-1.6,3.5-2.6
			C316.5,123.5,316,123.2,315.1,122.6z M288.3,86.6c0,2.9,1.2,4.7,4.2,5.3C291.1,90,289.8,88.4,288.3,86.6z M273.6,72.1
			c0.9,0.7,1.8,1.3,2.7,2c0.3-2.2-0.7-3.7-2.1-3.2C274,71.3,273.8,71.6,273.6,72.1z M282.6,96.5c1.2,2.5,1.2,2.5,3.7,0.9
			C284.9,97,283.7,96.8,282.6,96.5z M374.5,265.3c0.8-0.4,1.4-0.8,2.1-1.2c0-0.1-0.1-0.2-0.1-0.4c-0.9-0.1-1.8-0.2-3.1-0.4
			C373.9,264.3,374.1,264.8,374.5,265.3z"/>
		<path id="XMLID_328_" class="st1" d="M408.2,47.7c-1.1-1.4-1.9-2.4-2.6-3.4c2.8,0,5.1,1.2,6.9,3.5c0.6,0.8,1.4,1.4,2.1,2.1
			c0.6,0.6,1.1,1.2,1.7,1.8c0.2,0.2,0.3,0.6,0.6,0.7c1.6,1,2.3,2.4,2.2,4.3c0,0.8,0.8,1.8,2.1,1.6c1.4-0.2,2.2-1,2.1-2.5
			c-0.1-1.5-0.5-3.1,0.8-4.3c1.3,0.1,2.5,0.2,3.9,0.2c0-0.7,0-1.3,0-2.2c22.3,21.8,35.8,47.8,39.8,78.8c-0.6,0.2-1.2,0.4-1.8,0.7
			c-1-1.3-1.4-2.5-0.4-4c0.9-1.4,0.3-2.7-1-3.8c-1.6-1.2-1.1-3-1-4.7c0.1-0.6,0.2-1.3,0.3-1.9c-0.4,0.1-0.9,0.4-0.9,0.3
			c-0.4-0.6-0.8-1.2-0.9-1.9c-0.2-1.4,0-2.8-0.4-4.2c-0.6-2.1-1.5-4.1-2.5-6.5c-1.1,1.2-1.8,2.1-2.6,3c-0.4-0.5-0.9-1.1-1.4-1.7
			c-0.5,0.4-1,0.8-1.5,1.4c-0.4-0.6-0.8-1.4-1.3-1.8c-0.6-0.4-1.4-0.5-2.3-0.8c-0.5,2-1.1,4.2-3.5,4.1c-1.9-0.1-3.3-1.5-3.5-3.8
			c-0.2,0.1-0.3,0.2-0.5,0.3c-0.1,0.8-0.1,1.5-0.2,2.4c-0.6,0.1-1.1,0.3-2.2,0.5c1.1-3,0.8-5.5-0.8-8c-1.7,0.3-0.7,2.1-1.2,3.2
			c-1.9-1.3-2.5-2.9-1.9-4.8c0.1-0.4,0.2-1,0-1.4c-1.4-2.7-1-5.6-0.9-8.4c0.1-1.6-0.2-2.9-1.1-4.3c-1-1.7-1.6-3.7-2.4-5.7
			c-0.6,0.2-1.2,0.4-1.7,0.5c0,0.7,0,1.4,0,1.9c-0.9-0.6-1.8-1.2-2.5-2c-0.5-0.6-1.2-1.7-1-2.2c1.4-2.9-0.2-5.3-1-7.8
			c-0.3-0.9-1.1-1.7-1.2-2.6c-0.4-1.7-1.6-1.4-2.5-1.1c-1,0.3-1.9,1.1-1.1,2.4c0.3,0.5,0.7,1.1,0.9,1.7c0.3,0.7,0.8,1.6,0.6,2.3
			c-0.2,1.1-1.1,1.6-2.4,1.6c-1.9-0.1-3.8,0.1-5.6,0.3c-1.7,0.2-2.8,1.3-3.3,3.1c0.7,0.4,1.4,0.7,2.5,1.3c-3.3,1-6.2,1.1-8.7-1
			c-0.8,0.5-1.6,0.9-2.4,1.4c-0.5-2.3,0.3-3.9,2.9-5.7c-1-0.6-1.8-1.4-2.8-1.6c-1.6-0.4-2.5-1.3-2.7-2.9c-0.1-1.3-1-1.8-2.1-1.9
			c-0.7-0.1-1.5-0.4-2.3-0.6c0.4-1.6,2-3,0.1-4.4c-0.6,0.3-1.3,0.6-2.1,1c-1.2-2-2.4-3.9-3.6-5.9c-0.1-0.2-0.2-0.6-0.2-0.9
			c-0.5-3.1-2.3-5.2-5.2-6.3c-0.3-0.1-0.5-0.4-0.6-0.6c-1.5-2.2-4.5-3.6-7.5-3.2c0.3,0.9,0.5,1.7,0.8,2.5c-1.1,0.6-2.2,1-2.9-0.6
			c-0.1-0.2-0.5-0.5-0.7-0.4c-1.9,0.6-3.8,1.2-5.6,1.8c0,0.3-0.1,0.6-0.1,0.9c1.5,0.9,3.1,1.7,4.6,2.6c0.6,0.4,1.5,0.9,1.6,1.5
			c0.4,1.8,1.9,1.7,3.1,1.8c1.1,0,2.1-0.3,2.9,0.8c0.1,0.2,0.6,0.4,0.8,0.3c1.8-0.9,2.8,0.3,3.9,1.4c1.7,1.7,3.3,3.3,5,5
			c1,1.1,2,2.2,2.9,3.3c0.2,0.3,0.3,0.7,0.6,1.2c-3.2,0-5.3,1.5-6.4,4.3c-0.1,0.3-0.4,0.8-0.3,1c0.7,1.6,1.4,3.2,2.3,4.6
			c1,1.6,2.7,1.7,4.4,2c2.1,0.4,1.6-0.9,1.8-2.1c0.9,0.9,1.4,1.6,1,2.8c-0.2,0.5-0.1,1.5,0.3,1.9c1.7,1.8,3.3,3.5,6.2,3.7
			c3.3,0.2,6.5,1.1,9.7,1.7c2.8,0.5,5.5-1.1,6.7-3.8c0.3-0.7,0.7-1.3,1.1-2c1.4,1.2,2.9,2.2,4.5,0c0.1,0.2,0.2,0.4,0.2,0.5
			c-0.2,0.4-0.3,0.9-0.6,1.3c-3.1,3.8-7.2,6-11.6,7.7c-0.5,0.2-1.2,0.1-1.7,0c-3.3-0.5-6.6-1-10-1.4c-0.3,0-0.6,0-0.9,0
			c-0.2,0.5-0.3,1-0.6,1.7c2.3,0.8,3.5,4.1,6.8,2.7c0.2,0.5,0.5,1.1,0.9,1.9c2.2-1.5,4.4-0.4,6.6,0c0.2,0,0.5,0.2,0.6,0.1
			c2.6-1.7,5.6-0.6,8.3-1.2c1.1-0.3,2.4,0.3,3.7,0.9c-0.2,0.1-0.3,0.3-0.5,0.3c-2,0.2-3.6,0.7-2.7,3.3c0.1,0.3-0.5,1-0.9,1.2
			c-0.8,0.4-1.7,0.5-2.6,0.7c0.9,0.8,1.6,1.4,2.4,2c-0.1,0.2-0.2,0.4-0.3,0.6c-2.2-0.6-4.8,0.4-6.6-1.7c-2.6-3.2-6.3-4.5-9.9-5.8
			c-0.7-0.2-1.7,0-2.4,0.4c-0.4,0.2-0.4,1.1-0.6,1.7c-0.2,0.5-0.2,1.5-0.4,1.5c-0.8,0-1.9,0.1-2.4-0.3c-1.6-1.5-2.8-3.8-4.6-4.8
			c-2.4-1.4-3.4-3.7-4.9-5.6c-1.2-1.5-3.2-2.6-5.1-3.2c-4-1.4-5.7-4.5-7.1-8.1c-0.6-1.5-1.5-2.8-2.4-4.1c-0.2-0.3-1.1-0.4-1.5-0.3
			c-0.4,0.1-0.7,0.7-0.8,1.2c-0.4,1.8,0.6,3.2,1.8,4.3c0.7,0.7,0.8,1.2,0.3,2c-0.4,0.7-0.6,1.5-1,2.1c-0.5,0.8-1.1,1.5-1.7,2.2
			c-0.2-0.1-0.3-0.2-0.5-0.3c0.1-1.4,0.2-2.7,0.3-4.1c-2.3,0.1-3.1,1.4-2.5,3.3c0.4,1.3,0.6,2.7,0.9,4.5c-2.6-0.7-3.4,0.8-4.2,2.3
			c-0.4-0.4-0.9-0.7-1.3-1c-1,1.2-0.5,2.2,1.2,4.8c1,1.5,1.5,3.3,2.1,4.7c-1.9,1.1-3.9,2.2-6.3,3.6c2.5,0.8,2.4,0.8,3.7-0.6
			c0.2-0.2,0.7-0.2,1.1-0.4c1.2-0.5,2.6-0.7,3.4-1.5c1.8-1.7,3.4-3.6,4.9-5.6c0.5-0.7,0.5-1.8,0.8-2.7c2,1.4,2.2,5.8,0.3,7.6
			c-0.4-0.5-0.8-0.9-1.2-1.3c-1.2,1.2-2.4,2.3-3.7,3.5c0.2,0.6,0.5,1.3,0.8,2.2c-0.8-0.2-1.3-0.4-1.9-0.6c-0.4,0.3-0.9,1-1.2,0.9
			c-1.9-0.4-2.6,1-3.6,2.2c-1.2,1.5-3.1,1.6-4.6,0.5c-0.7-0.5-1.5-1-2.3-1.5c-1.7-1-1.7-2.8,0-3.8c0.9-0.5,1.8-1.2,2.8-1.8
			c-0.6-1-1.1-1.4-2.2-0.6c-0.6,0.5-1.6,0.5-2.4,0.6c-1.1,0.1-2.1,0.2-3,0.2c-0.6-1.2-1.2-2.4-1.8-3.6c-1,0.5-1.7,0.8-2.5,1.2
			c-0.4-0.5-0.8-1-1.4-1.6c-1.7,1-4.5,0.7-4.8,3.8c0,0.4-1,0.7-1.6,1c0.3,1.3,0.7,2.7,1.1,4c0.6,1.7,1.6,2.8,3.6,3.1
			c1.9,0.3,3.8,0.6,5.5,1.4c1.4,0.6,2.5,1.7,4.1,2.8c0.8-0.4,1.8,0,3.1,0.8c1.8,1.1,3.9,1.8,6.1,0.5c0.3-0.2,0.9-0.1,1.2,0.1
			c5.7,3.5,11.8,5.3,18.6,4c1.4-0.3,2.9-0.4,4.3-0.5c0.5,0,0.9,0.2,1.4,0.5c-2.6,0.6-5.1,1.6-7.9,0.7c-0.4-0.1-1.4,0.2-1.5,0.5
			c-0.1,0.9,0.1,1.8,0.2,2.9c-0.8-0.2-1.9-0.7-3-0.8c-0.7-0.1-1.7-0.1-2.3,0.2c-0.8,0.5-0.6,1.4,0,2.2c0.4,0.6,0.7,1.4,1.1,2.1
			c-1.4,0.5-2.8,0.9-4.2,1.4c0.4,0.8,0.7,1.4,1,2c2.7-0.6,5.5-0.9,7-3.8c1.4,1.1,2.4,2.6,3.8,3c3.7,1.1,4,4.8,6,7.1
			c1.1,1.3,2.3,2.6,3,3.4c3.4-1.5,6.2-2.9,9.1-4c1.1-0.4,2.5,0.1,3.7,0.1c0.7,0,1.6-0.1,2-0.5c1.2-1.2,2.4-0.8,3.4-0.1
			c-0.1,1.6-0.2,3-0.3,4.3c1.6-0.2,2.9-0.3,4.5-0.5c-0.4,0.5-0.5,0.7-0.6,0.8c-2.2,1.6-4.4,3.2-6.6,4.7c-0.3,0.2-0.6,0.4-0.9,0.5
			c-1,0.3-2,0.6-3,0.9c-0.9-0.7-2-1.6-3.1-2.5c-1.8,0.9-1.7,2-1.5,3.6c0.4,2.3,1.8,3.8,3.1,5.5c1.8,2.4,1.8,5.1,1.6,7.9
			c-0.2,3.4-0.2,6.7-0.2,10.1c0,0.1,0,0.3,0,0.4c1.8,1.7,1.7,4.3,2.7,6.3c0.9,1.8,2.7,2.3,4.6,1.5c1.3-0.6,2.8-0.9,4.4-1.4
			c0,1.7,0,3,0,4.7c3.1-2.3,6-2.5,9.2-1c0.2,1.6,0.3,3.4,0.5,5.2c0.1,1.3,0.1,2.5-1.6,3c-0.4,0.1-0.7,0.8-1,1.2
			c-0.8,0.8-1.5,1.7-2.3,2.4c-1,0.9-2,4.6-1.1,5.3c0.6,0.5,2,0.7,2.6,0.3c1.7-1.2,3.2-2.7,4.9-4.2c1.4,0.8,1.1,1.9,0.1,3.2
			c2.2-0.3,4.2-1.8,6-4.2c1.4,0.7,1.1,1.6,0.7,2.9c-0.9,2.7-3.4,3-5.5,3.9c-0.7,0.3-1.2,1-1.8,1.5c-0.8,0.8-1.4,1.8-2.3,2.4
			c-1,0.7-2.5,0.1-2.4-1.1c0.1-1.9-1.3-2.3-2.4-2.3c-1,0-2.3,0.6-3.1,1.3c-1.4,1.3-2.5,3-3.9,4.4c-0.8,0.7-1.9,1-2.9,1.6
			c-0.6,0.3-1.4,0.6-1.8,1.1c-1.4,2-3.3,1.8-5.5,1.4c1.5-1.3,3.1-2.6,4.8-4.1c-1-0.4-2-0.8-1.9-0.9c0.2-0.7,0.4-1.5,0.9-2.1
			c1.2-1.6,2.6-3,4.2-4.8c0,0,0.4,0,0.8,0.2c1.8,0.5,3.1-0.5,2.7-2.3c-0.3-1.1,0.1-1.6,0.7-2.3c0.3-0.3,0.5-1.1,0.3-1.4
			c-0.4-0.6-1.2-1.4-1.6-1.3c-1.6,0.5-2.9,0.2-4.4-0.4c-0.4-0.2-1,0-1.5,0c-0.3-1.5-0.5-2.8,1.4-3.4c0.4-0.1,0.3-1.5,0.5-2.5
			c-3,1.5-5.6,2.8-8.3,4c-0.5-0.8-0.8-1.4-1.2-2c0,0.2,0,0.4,0,0.5c-1.2,0.1-2.4,0-3.5,0.4c-1.3,0.5-2.5,1.3-3.7,2.1
			c-0.4,0.2-0.6,0.9-1,0.9c-2.6,0.2-5.3,0.4-7.9,0.4c-2.9,0-4.3,1.8-5.6,3.9c-2,3.2-2.7,6.7-3.5,10.3c-0.1,0.3,0.1,0.6,0.1,0.9
			c0.3,1.9,1.4,3.9-0.7,5.7c-0.6,0.5-0.4,1.8-0.8,3.3c-0.6-0.8-1-1.2-1.3-1.7c-0.3-0.4-0.5-0.9-0.7-1.3c-0.6,0.4-1.6,0.7-1.8,1.2
			c-0.7,1.6,0.4,3.4,2.2,3.9c0.2,0.1,0.4,0.1,0.8,0.6c-0.8,0.4-1.7,0.9-2.5,1.3c-2.2,0.9-4.5,1.8-6.7,2.7c-0.5,0.2-1.2,0.2-1.8,0.1
			c-1.5-0.1-3-0.2-4.5-0.3c-0.7-0.1-1.5-0.2-2.3-0.4c0.4-0.8,0.6-1.4,0.9-1.9c0.9-1.6,0.9-3.1,0-4.8c-0.9-1.6-1.7-3.2-2.4-4.8
			c-0.4-0.9-0.4-1.9-0.7-3.1c-1.5-0.7-2.3,1-3.4,1.9c-0.6-0.6-1-1.2-1.6-1.7c-1-0.9-1.4-2.1-1-3.4c0.4-1.4-0.2-2.3-1.3-3.1
			c-1.3-1-2.9-1.7-3-3.8c0-0.4-0.9-1-1.5-1.2c-0.7-0.3-1.5-0.3-2.5-0.6c0.4-0.9,0.7-1.6,1.1-2.4c-2.7-0.1-3.7-1.8-3.6-4.4
			c2.4-0.2,2.6-1.9,2.5-4c1.4,1.8,2.8,3.7,4.4,5.7c0,0.1-0.3,0.6-0.6,1.4c0.7,0.1,1.8,0.5,2,0.3c0.5-0.6,0.8-1.6,0.8-2.4
			c0.1-1.2-0.5-2-1.8-2.4c-1-0.3-2.8-4-2.3-4.9c0.3-0.7,1.1-1.3,1.8-1.5c1-0.3,2.1-0.3,3.1-0.3c-1.1,2.8-0.2,5.5,1.7,8.2
			c0.1-0.6,0.5-1.3,0.3-1.8c-0.7-2.8-0.9-3.9,3.2-3.9c0.4,0,0.9,0,1.1,0.3c0.9,0.7,1.8,1.4,2.7,2.1c0.2-0.2,0.3-0.3,0.5-0.5
			c-0.7-1.3-1.7-2.6-2.2-4c-0.5-1.4-0.5-2.9-0.7-4.5c-0.7,0.1-1.8,0.2-3.1,0.4c0.2-1.7,1.2-2,2.6-2.3c3.1-0.7,4.4-2.9,3.5-5.7
			c1.1-1,2.1-1.8,3-2.6c-0.7-0.8-1-1.2-1.3-1.6c0.5-0.4,1-1.1,1.5-1c4.5,0.3,5.9-2.8,7.2-6.6c0.7,1.5,1.3,2.8,1.9,4
			c1.3-0.3,1.2-0.3,1.1-1.5c-0.1-0.6-0.1-1.4,0.3-1.9c1.7-2.7,1.7-3.2-0.6-5.7c0.4-0.5,0.8-1.1,1.1-1.5c1,0.6,1.8,1.5,2.7,1.6
			c0.9,0.1,2-0.3,2.9-0.7c1.5-0.6,2.8-1.4,4.3-2c0.7-0.2,1.5,0.1,2.5,0.2c-2.7,2.3-0.8,4.2,0.2,6.3c0.7-0.4,1.4-0.7,1.9-0.9
			c1.1,0.7,2.2,1.3,3.2,2c0.7,0.6,1.4,1.3,2.1,1.9c-0.7,0.7-1.4,1.4-2.2,2c-0.4,0.3-1,0.4-1.1,0.4c1.1,3.4,2.2,6.6,3.1,9.9
			c1,3.2,1,3.3,4.3,3.3c0.7,0,1.3,0,2.2,0c-0.2,0.7-0.3,1.2-0.5,1.9c-1.9-0.5-2.3,0.7-2.8,2c-0.5,1.4-1.1,2.6-1.7,4
			c-0.2-0.1-0.4-0.2-0.6-0.2c0.2-1,0.3-2.1,0.6-3.1c0.5-1.8,0.4-3.3-1.4-4.6c-1.6-1.2-2.7-2.9-4.2-4.5c1.8-2.8-0.1-5.2-0.8-7.8
			c-0.8-3.3-3.8-3.6-6.1-5.3c-0.4,0.4-0.7,0.9-1.1,1.3c-2.5-0.6-2.5-0.6-2.4,1.6c1.2,0.1,2.5,0.2,3.8,0.3c-0.2,1.1,0,2.6-2.1,2.4
			c-1.1-0.1-2.9,2.2-2.8,3.4c0,0.2,0,0.6,0.1,0.7c1.4,0.8,2.8,2.2,4.3,2.4c3.2,0.3,5.5,1.3,6.2,4.7c-0.8,0.6-1.6,0.8-2.6,0
			c-0.6-0.5-1.6-0.4-2.4-0.5c-0.8-0.2-1.6-0.3-3-0.5c2,1.2,0.1,3.6,2.3,4.8c0.2-0.8,0.3-1.4,0.4-2c1.4,0.4,2.5,0.9,2.5,2.7
			c0,0.7,0.6,1.3,1,2.3c0.8-1.1,1.4-2,2.4-3.3c0.6,1.1,1.4,2,1.3,2.8c-0.1,0.7-1.3,1.3-2.3,2.1c0.4,2.9,2.8,4,5.3,3.3
			c2.9-0.8,5.5,0,8.2,0.5c2.5,0.4,5.4-0.9,5.6-3.4c0.1-1.7,0.6-2.9,2.1-3.7c0.2-0.1,0.2-0.4,0.4-1c-1.6,0.3-2.9,0.5-4.8,0.9
			c0.5-1.3,1-2.5,1.5-3.7c-1.6-2-3.9-2.8-6.7-2.5c-0.9,0.1-1.9-0.4-2.3-0.9c-0.2-1.8-0.4-3.7-0.6-5.8c1.4,1,2.6,1.8,3.8,2.6
			c1.5-1.4,1.2-3.1,0.7-4.7c-0.8-2.8,0.9-3.6,3.2-3.3c0.6,0.1,1.2,0.4,1.8,0.3c1.3-0.3,2.4-0.7,2.3-2.6c-0.2-3-0.9-5.5-3.9-6.9
			c-1.6-0.7-2.4-4.9-1.6-7.2c-0.7-0.1-1.9-0.6-2-0.4c-0.7,1.1-1.1,2.4-1.8,3.9c-2.1,0.2-4.3-2-5.5-5.8c1.4-0.7,1.4-0.7,1-3
			c-2.4-0.7-4.7-1.3-7.2-2c-0.1,0.6-0.1,1.3-0.2,2c-1.5-0.5-2.9-1-4.4-1.5c-0.2,2.6,0.8,4.5,1.8,4.3c-0.6,1.7-1.2,3.4-1.8,5.3
			c-1.5,0-2.4-0.5-2.6-2.2c0-0.4-0.6-0.8-1.1-1c-1.8-0.5-2.5-1.9-3.1-3.4c-0.1-0.3,0.3-1.1,0.4-1.1c1.8,0.1,2.3-1.4,3.2-2.6
			c-2.9-3.9-6.6-6.3-11.5-6.6c-1.7-0.1-3.4,0.1-5.1,0.4c-0.8,0.1-1.4,0.9-2.5,1.7c1.2,0.1,1.8,0.1,3,0.2c-1,1.2-1.8,1.9-2.3,2.8
			c-0.4,0.7-0.4,1.6-0.6,2.7c-0.3-0.7-0.8-1.2-0.8-1.7c0-2.1-0.1-4.3,0.2-6.4c0.1-0.8,1.4-1.4,2.2-2.2c-0.1-0.4-0.2-1-0.4-1.8
			c-2.1,0-4.3,0-6.5,0c-0.6,0-1.3-0.1-1.9-0.3c-2-0.6-2.5-0.3-3,1.9c-1.2-0.8-2.3-1.6-3.3-2.5c-1.1-0.9-2.1-0.9-3.1,0
			c-1,1-2.1,1.9-3,3c-1.2,1.5-2.7,1.4-4.2,0.8c-1-0.4-2-0.8-3-1.1c-1.6-0.5-3-1-4.5,0.5c-1,1-2.8,1.3-4.3,2
			c-0.4-0.4-0.9-0.9-1.2-1.4c-0.2-0.4-0.4-1.1-0.2-1.3c1.2-1.2,0.6-2.5-0.1-3.4c-0.4-0.5-1.8-0.4-2.7-0.5c-0.8-0.1-1.6-0.3-2.4-0.4
			c-1.6-0.2-3.3-0.4-5-0.6c0.3-1.2,0.3-2.5-2-1.8c-0.7,1.4-1.5,2.9-2.3,4.5c-1.1-0.5-1.7-1-1.1-2.3c0.2-0.5,0.1-1.3-0.2-1.9
			c-0.7-1.4,0.2-4.6,1.7-5.1c2.2-0.8,3.4-2.3,4.4-4.4c-0.7-0.3-1.5-0.8-1.8-0.6c-1.8,1.1-3.4,2.4-5.2,3.7c-0.7-0.7-1.5-1.7-2.8-3.1
			c1.4-0.3,2.6-0.5,3.7-0.7c0.6-0.1,1.2-0.3,1.8-0.6c1-0.5,1.9-1,2.8-1.6c0.4-0.3,0.8-0.6,1.2-0.9c0.6-0.4,1.2-1,1.8-0.9
			c1.7,0.1,2-1.2,2.1-2.3c0.1-1.3-1-1.5-2.1-1.4c-0.3,0-0.6,0-0.8,0c-0.3,0.8-0.4,1.7-0.9,2.2c-1.2,1.1-2.4,1.1-3.6-0.3
			c-2.6-3.1-2.4-6,0.2-8.4c0.3-0.2,0.9-0.4,1.2-0.2c1.5,0.6,2.7,0.3,3.7-1c0.5,1.2,0.5,1.2-2.1,2.8c1.3,0.5,2.2,0.9,3.1,1.2
			c0.8,0.3,1.7,0.6,2.6,0.7c1.1,0.1,2.4,0.2,3.2-0.3c0.6-0.4,0.6-1.8,0.8-2.7c-1.5-0.3-2.6-0.5-3.6-0.7c2.7-2,4.7-0.8,6.9,1.6
			c1-1.2,1.9-2.3,2.8-3.4c-0.5-0.3-1-0.6-1.7-1.1c0.5-1.5,0.6-3.1-1.2-4.4c-1.5,0.5-3.1,1-4.8,1.5c-1.1,0.3-2.2,0.4-1.5,2.6
			c-2-2.1-3.4-3.7-4.9-5.3c-0.3,0.3-0.7,0.8-1,1.2c-1.2-0.5-2.4-1-3.6-1.5c0.5-2.4,2.8-3.1,11.1-3c-0.8-2.5-1.6-5.1-2.5-8
			c1.2-0.6,2.6-1.2,4.4-2c0,0.9,0,1.5,0,2.1c0,2.2,0.9,2.9,2.9,2c1.9-0.8,3.8-1.6,5.4-2.8c0.6-0.4,0.7-1.8,0.8-2.8
			c0-0.7-0.4-1.3-0.7-2.3c1.3-0.1,2.5-0.3,3.7-0.3c1.8-0.1,3-0.9,3.2-2.7c0.2-0.9,0.4-1.9,0.4-2.9c-0.1-3.5,1.2-4.2,4.2-4.1
			c1.1-1.5,0.4-2.7-0.8-3.7c-1.2-1-3.6-0.9-4.7,0.1c-1.1,1-1,1.6,0.1,3.6c-1.2,0.3-2.4,0.6-3.8,0.9c0.8,2,0,3-1.6,3.6
			c-1.2,0.4-2.5,0.8-3.4,1.6c-0.9,0.9-1.5,2.2-2,3.4c-0.5,1.2-0.7,2.6-1.2,4.3c-0.9-1.6-1.6-2.8-2.2-3.9c-2.5,1.8-4.8,3.5-7.3,5.4
			c0.5,1.2,1.1,2.6,1.6,4c-2.1,0.7-4.3,1.4-6.5,2.1c-0.3,0.1-1-0.1-1.1-0.4c-0.3-0.4-0.5-1.2-0.3-1.5c1.7-2.3,3.4-4.6,5.3-6.7
			c1-1.2,2.2-2.1,3.1-3.5c-0.3,0-0.6,0-0.9,0c-1.6-0.1-3.2,0.6-4.7-0.7c-0.6-0.5-2.3-0.3-2.9,0.2c-2,1.6-4,3.2-5.2,5.7
			c-1.1,2.2-3,4-4.5,6.1c-0.8,1.1-1.4,2.2-2,3.3c-2.7-1.6-3.6-1.5-5,0.4c-0.7,0.9-1.4,1.8-2.2,2.8c-0.6-0.7-1.1-1.3-1.5-1.7
			c-0.9-0.1-1.6-0.3-2.3-0.4c0-0.3,0-0.6-0.1-0.8c2.1-1,4.2-2.2,6.4-3.1c1.7-0.8,2.1-1.6,1.7-3.3c-0.2-0.8,0.1-1.7,0.2-2.9
			c-1.2-0.1-2.6-0.3-4-0.4c-0.2,0.8-0.2,1.7-0.6,2.1c-0.7,0.8-1.6,1.8-2.5,1.9c-2.8,0.4-2.9,0.3-3,3.2c-0.7,0.4-1.5,0.8-2.2,1.1
			c-2.2-1.9,0.1-3.9-0.2-5.8c-0.1-0.7,0-1.5-0.3-2.1c-0.5-1-0.6-1.7,0.6-2.2c1,1.2,2,2.4,3.2,3.7c1.1-1.1,2-2.2,3.1-3.2
			c1.9-1.9,4-1.6,6.2-0.5c1.7,0.9,3.2,0.4,4.3-1.2c0.7-0.9,1.5-1.8,2.2-2.6c1.5-1.6,1.5-2.3-0.3-3.9c-2.6,1.6-5.3,3.2-8,4.7
			c-0.6,0.3-1.5,0.1-2.2,0c-2.6-0.5-5.1-1.2-7.7-1.7c-0.7-0.1-2,0.1-2.3,0.6c-1.3,2.2-3.3,1.9-5.3,1.9c-0.2,0-0.5,0-0.8,0
			c-0.2-0.7-0.5-1.4-0.7-2.2c-1.6,0.5-2,1.7-2.5,3c-0.7,1.8-1.9,3.6-3.3,4.8c-1.9,1.6-4.2,2.9-6.5,3.8c-2.2,0.9-4.6,1.2-7,1.5
			c-2,0.3-4.1,0.3-6.4,0.4c0.1-1.4,0.1-2.6,0.3-3.7c0.2-1.4-1.2-3.1-2.6-2.9c-2.4,0.4-3.6-0.2-5.1-2.6c1.5-0.4,2.9-0.7,4.5-1.1
			c0-0.4,0.1-1,0.1-1.5c0-1.7,0.2-2.9,2.1-4c2-1.2,3.3-3.3,5-5.2c-0.4-0.5-0.8-1-1.1-1.4c2.3-0.8,4.6-1.6,6.8-2.5
			c1.3-0.5,2.2-1.3,2-3c-0.1-0.7,0.4-1.5,0.6-2.2c-1.8-1.3-3.5,2-5.4,0.3c0.1-0.2,0.1-0.4,0.2-0.4c1.4-1.1,2.9-1.9,3.9-3.7
			c0.9-1.7,3-2.8,4.6-4c6.6-5.1,13.6-9.5,21-13.2c9.1-4.5,18.7-8,28.7-10.2c4.9-1.1,9.8-1.9,14.8-2.3c7.2-0.5,14.4-1.1,21.5-0.7
			c7.1,0.4,14,1.9,21.1,2.9c0.7,0.1,1.3,0.4,1.9,0.4c2.9,0.2,4.4,2.8,6.9,3.7c1.3,0.5,2.3,1.6,3.5,2.2c0.7,0.4,1.7,0.5,2.6,0.7
			c0.3-0.9,0.6-1.6,0.9-2.4c15.5,5.6,29.3,14,41.5,25.1c-0.7-0.3-1.3-0.7-2-1c-0.4-0.2-0.9-0.6-1.1-0.5c-2.1,1-3-0.8-3.8-2
			c-1.7-2.4-4.3-3.2-6.9-3.9c-1.6-0.4-3.4,0.1-5.1,0.1c-0.9,0-1.9,0.2-2.7,0c-1.9-0.4-3.7-0.9-5.6-1.4c-0.3-0.1-0.5-0.3-0.8-0.4
			c-1-0.7-2.1-1.4-3.2-2.2c-0.3,4.2,2,8.8,4.9,9.3c2.1,0.3,4,1,5.9,1.7C405.4,47.5,406.6,47.4,408.2,47.7z M357.6,194.7
			c2.4,0.4,2.4,1.9,2.4,3.7c0,2.4-0.6,3.4-2.9,3.5c-1.6,0.1-2.5,1.3-2.3,2.8c0.1,0.8,0.1,1.6,0.4,2.3c0.8,2,1.6,4,2.6,5.8
			c0.3,0.5,1.3,0.7,2,0.7c1.3-0.1,2.6-0.3,3.9-0.6c0.5-0.1,1.1-0.4,1.4-0.9c1.1-1.7,2.1-3.4,3.2-5.2c0.7-1.2,0.4-2.2-0.6-2.8
			c-1-0.6-2.3-1.4-3.4,0c-0.9,1-1.6,1-2.6,0c0.3-0.7,0.6-1.5,1-2.1c1.2-2.1,1.8-4.2,0.6-6.7c-0.9-2-0.1-3.4,1.9-4.5
			c0.9-0.5,1.7-1.1,2.5-1.7c-2.3-1.9-2.5-1.9-0.6-5.3c0.9-1.7,2-3.3,3.1-5.3c-1.4-0.3-2.4-1-3.1-0.7c-1.4,0.5-1.8-0.2-2.5-1
			c-1.8-2.2-2.2-2.5-4.8-1.8c0,0.7,0,1.4,0.2,2.1c0.8,3.4,2.1,6.9-0.8,10c0,0,0.1,0.2,0.1,0.3c1.9,0.2,2.5,0.7,1.9,2
			c-0.4,0.9-1.3,1.7-2.2,2.1c-3,1.4-3.7,2.1-3.5,4.4C356.4,195.6,357,195.1,357.6,194.7z M413,68.9c0.7,0,1.4,0.1,1.9,0
			c1.1-0.3,1.9-0.6,1.5-2.2c-0.8-3.5-1.2-7.1-3.1-10.2c-1.6-2.6-3.5-4.7-6.7-5.1c-2.6-0.3-3.4,0.6-2.8,3.5c0.1,0.4,0.5,0.7,0.6,1.1
			c1.1,3.2,4.7,5.1,4.6,8.9c0,0.2,0.2,0.3,0.2,0.5c0.5,1.7,0.9,3.3,1.4,5c-0.1,0.1-0.3,0.2-0.4,0.3c0.8,0.2,1.6,0.4,2.4,0.7
			C412.7,70.3,412.8,69.6,413,68.9z M349.6,64.9c0.8,1.3,1.3,2.4,2.1,3.1c1.6,1.5,3.5,2.8,5.2,4.1c0.2,0.2,0.6,0.3,0.8,0.2
			c1.9-0.8,3.7-1.7,5.9-2.7c-1.3-1.4-2.6-2.7-3.7-4c-0.5-0.6-0.9-1.4-1.3-2.1c-0.4-0.7-0.5-1.4-1-2c-2.1-2.4-4.9-3.1-8-2.9
			c-0.2,0.5-0.3,1.1-0.4,1.4c2.7,1.6,5.2,3.1,7.8,4.6C355.5,65.4,355.5,65.4,349.6,64.9z M450.1,96.6c0.6,1.4,1.2,2.7,1.8,4.2
			c1.7,0.5,2.9-0.2,2.8-1.9c0-0.6-0.3-1.2-0.3-1.7c-0.2-4-3.9-8-7.9-8.3c0.6,1.1,1.1,2.2,1.9,3.8c-1.4-0.4-2.4-0.7-3.6-1.1
			c0,1.3-0.1,2.4,0,3.6c0.2,2.2,2.1,3.2,3.9,2.1C449.1,97.1,449.4,97,450.1,96.6z M376.7,183.7c-0.9,2.5-0.9,2.5-3.3,4
			c-0.7,0.4-1.4,1.1-1.7,1.8c-0.3,0.7,0,1.7-0.3,2.4c-0.8,1.9,0.6,2.3,1.7,2.9c1.2,0.7,2.3,0.6,2.8-1c0.1-0.4,0.6-0.8,1-1.1
			c2.8-2.1,3-2.9,2.4-6.5C378.9,184.7,378.4,183.9,376.7,183.7z M323.6,84.1c1.3,0.5,1.8,1.2,1.2,2.6c-0.4,1,0.9,2.4,2,2.4
			c3.4,0,5.7-1.7,7.7-5.1c-1.7,0.3-2.9,0.6-4.2,0.9C328,82.9,326.4,82.7,323.6,84.1z M444.2,82.7c0.7,2.7,3.8,3.6,6.1,1.8
			C449,81.8,448.4,81.6,444.2,82.7z M368,118.5c-3.6-2.2-5.5-2.7-7.1-1.1C363.4,119.6,366.5,120.1,368,118.5z M388,42.4
			c-0.4,0.5-0.7,1.1-1.1,1.6c1.6,1,3.1,1.9,4.6,2.8C392.9,44.7,392.4,44.1,388,42.4z M356.5,87.2c1.4-1.5,1.7-2.9,0.9-4.1
			c-0.4-0.6-1.8-0.6-2.7-0.9c-0.1,0.2-0.2,0.3-0.4,0.5C355,84.2,355.7,85.6,356.5,87.2z M417.6,184.5c-0.1-0.3-0.1-0.5-0.2-0.8
			c-0.9-0.2-2.2-0.8-2.7-0.4c-1.1,0.8-1.6,2.2,0,3.9C415.7,186.3,416.6,185.4,417.6,184.5z M376.3,179.7c-3-0.3-3.5,0.7-2,4.3
			C375.7,182.9,377.1,181.9,376.3,179.7z M320.2,85.5c0.8-1.1,1.3-1.8,2.1-2.8c-1.8-0.2-3.1-0.4-4.5-0.6c-0.1,0.2-0.2,0.4-0.3,0.6
			C318.3,83.5,319.1,84.4,320.2,85.5z M380.1,178.9c-0.2,0.1-0.4,0.2-0.6,0.2c-0.2,1.1-0.4,2.3-0.6,3.6c1.3-0.3,3.1,0.5,3.1-1.4
			C381.9,180.5,380.7,179.7,380.1,178.9z M252.8,68.9c1.7-1.5,1.4-3.3,1.1-5.4C252.2,65.3,251.5,67,252.8,68.9z M360.8,58.2
			c0.1-0.3,0.2-0.6,0.4-0.9c-1.2-0.5-2.3-1-3.5-1.5c-0.1,0.3-0.3,0.7-0.4,1C358.5,57.3,359.6,57.7,360.8,58.2z"/>
		<path id="XMLID_322_" class="st1" d="M442.5,191.2c-2.3-1.7-2.3-5,0.1-6.6c2.3-1.5,4-3.5,5.6-5.8c2.1-3,4.7-5.8,7-8.6
			c1.3-1.6,2.8-3,3.8-4.7c0.6-0.9,0.8-2.4,0.6-3.5c-0.3-2.3,0-3.3,2-4.6c0.5-0.3,1-0.5,1.3-0.9c0.3-0.4,0.4-1,0.4-1.5
			c-0.1-1.2-0.4-2.4-0.6-3.7c3.1,0,2.7-2.5,3.5-4c1.2-2.3-2.4-2.6-1.9-4.5c2.3-3.2,3.9-6.7,2.6-10.9c0.2,0,0.5-0.1,0.7-0.1
			c0.3,1.3,0.8,2.6,0.8,3.9c0.1,5.5,0.4,10.9,0,16.4c-0.7,10.1-2.5,20.1-5.5,29.9c-2.3,7.4-5.2,14.6-8.8,21.4
			c-4.1,7.9-8.9,15.4-14.7,22.2c-3.3,3.9-6.7,7.9-10.4,11.5c-6.3,6.2-13.3,11.5-20.7,16.3c-0.2,0.2-0.6,0.2-1.3,0.5
			c0.4-2.2,0.7-4.1,1-6c-2.6,0.3-4.1,1.2-5.5,3.3c-0.7,1-1.9,1.8-3,2.5c-1,0.7-2.4,1.4-1.8,2.7c0.6,1.4,2.2,0.9,3.4,0.5
			c0.9-0.3,1.8-0.8,2.7-1c-21.4,12.4-44.5,18.4-69.3,17.2c1.4-0.1,2.7-0.2,4.1-0.4c0-0.2,0-0.4,0-0.6c-1.1-0.1-2.2-0.2-3.4-0.2
			c-0.6,0-1.2,0-1.9,0c-3.5-0.2-7-0.6-10.5-0.7c-0.9,0-1.9,0.8-2.8,0.6c-3.4-0.5-6.8-1.2-10.2-1.9c-2-0.4-4.1-1-6.1-1.3
			c-2-0.3-3-1.6-3.5-3.4c-0.3-1-0.6-2.1-0.9-3.1c1.4-2.5,3.6-1,5.5-0.8c0.5,0.1,1.4,0,1.5-0.3c0.8-2.3,2.7-1.8,4.4-2
			c1.1-0.1,1.7-0.3,2.2-1.4c0.3-0.7,1.1-1.2,1.7-1.8c0.4-0.5,1-0.8,1.3-1.4c1.3-2.2,3.2-3.4,5.7-4c1.1-0.2,2.2-0.7,3-1.4
			c1.3-1.1,2.5-2,4.3-2.4c3.5-0.9,6.9-2.2,10.4-3.3c0.4-0.1,0.8-0.1,1.7-0.1c-0.8,0.8-1.2,1.4-1.9,2.1c0.4,0.3,1,0.9,1.6,1.2
			c1.7,0.7,4,0.6,3.8,3.4c0,0.2,0.2,0.4,0.4,0.6c2,1.1,4,2.3,6.2,3.2c0.8,0.3,2-0.4,3.1-0.6c-0.2,0.9-0.6,1.9-0.4,2.7
			c0.1,0.6,1.1,1,2,1.7c-0.8,0.5-1.8,1.2-2.9,1.9c0.3,0.5,0.7,1.1,1.1,1.8c1.5-0.7,2.9-1.2,4.3-1.9c1.4-0.7,2.8-1.6,4.3-0.5
			c-0.5,1.4-1,2.8-1.6,4.1c1.3,1.3,2.6,1.3,4.2,1c1.4-0.3,2.9-0.3,4.3-0.1c-2.5,1-5,2-7.5,3c-0.5,0.2-1.2,0.2-1.6,0
			c-1.4-0.6-1.8,0.4-2.5,1.2c1.1,0.5,2.1,0.9,3.2,1.4c-0.6,0.4-1.1,0.7-1.6,1c2.1,0.9,4.1,0.3,5.9-0.2c2.6-0.6,5.1-1.6,7.7-2.5
			c3.2-1,6.3-2.1,9.7-3.2c-0.1-0.4-0.2-1.1-0.4-1.8c-1.4,0.7-2.7,1.5-3.7-0.5c1.7-1.1,3.3-2.3,5.7-1.8c1.5,0.3,2.7-1,3-2.8
			c4.6-0.4,4.6-0.4,4.5-3.3c-1.3,0.2-2.5,0.3-3.6,0.6c-3.3,0.8-6.6,1.6-9.9,2.6c-3.2,0.9-6.3,2.1-9.8,3.2c0.9-1.2,1.7-2.1,2.4-3
			c2.4-3,2-4-2.1-4.8c0.5-1.3,0.9-2.6,1.5-4.1c-1.3-1.6-2.2,0.8-3.4,1c-1-0.9-1.1-1.9-0.7-3.2c0.3-0.8,0.1-1.8,0.1-2.9
			c-0.2,0.1,0-0.1,0.1,0c1.9,1,2.9-0.5,3.9-1.6c1.9-2,3.7-4.1,5.6-6.1c0.3-0.3,0.8-0.3,1.3-0.4c0.9-0.2,1.9-0.2,2.8-0.4
			c1.5-0.5,2.6-1.1,3.6-2.8c1.4-2.4,4.5-2,6.6-1.5c2.1,0.4,3.7-0.2,5.4-0.6c1-0.2,2-0.4,2.2-1.7c0.1-0.4,0.7-0.8,1.1-1
			c2.4-1.2,4.9-2.2,7.4-3.4c0.7-0.4,1.4-0.9,2.1-1.4c0.5-0.3,0.9-0.8,1.5-1c2.3-0.7,4.5-1.3,5.5-4c0.2-0.5,1.3-0.8,2-1
			c2.2-0.4,4-1.4,5.3-3.3c0.2-0.3,0.8-0.7,1.1-0.7c2.6,0.2,4.6-1.2,6.5-2.5c3.4-2.2,6.9-4.5,9.7-7.6c0.9-1,2.8-1,4.3-1.4
			c1-0.2,2-0.3,3.3-0.5c-2-2.2-1.9-2.3-0.1-4.5c0.6-0.6,0.8-1.6,1.2-2.5c0.9,0.7,1.9,1.7,3.1,0.5c0.3-0.3,0.6-0.7,0.6-1.1
			c0-2.2,0-2.2,1.4-4c0.4,0.8,0.9,1.7,1.2,2.3c1.3-2,2.6-3.8,3.7-5.8c0.7-1.3,1-2.8,1.8-4c1.1-1.8,1.3-3.8,1.4-5.8
			c0-0.4-0.1-0.9,0.1-1.1c2.9-3,2-7.1,3.1-10.6c0.2-0.5-0.6-1.3-1-2.2c-1.3,2.3-2.3,4.4-3.7,6.2c-2.8,3.5-5.8,6.9-8.8,10.2
			c-1.2,1.4-2.7,2.5-4.1,3.8c-0.4,0.4-0.7,1-1,1.5c-0.1,0.2,0,0.6-0.2,0.7C443.2,185.6,444.2,189.1,442.5,191.2z M307.9,266
			c2.3-0.1,4.7-0.2,7-0.4c1.9-0.2,3.8-0.7,5.7-0.7c2.9,0.1,5.7,1.3,8.7,0.7c0.7-0.1,1.6,0.7,2.4,0.6c1.8-0.2,3.5-0.8,5.3-0.9
			c1.4-0.1,3.1-0.9,4,0.7c1,1.7,2.6,1.7,4.1,2.1c2.1,0.5,4.4,0.5,6.3,1.4c2,1,3.1,0.4,4.4-0.8c-0.7-2.9-3.4-4.6-6.3-4.3
			c-0.8,0.1-1.7-0.1-2.5-0.2c-2.9-0.4-5.7-2.7-8.7-0.6c-0.2,0.1-0.6-0.1-0.8-0.2c-3-0.9-6-2-9-2.8c-1.3-0.4-2.8-0.3-4.2-0.5
			c-0.1,0.2-0.3,0.5-0.4,0.7c-0.5-1.1-0.9-2.2-1.4-3.4c-0.8,0-1.8,0.1-2.7-0.2c-1.2-0.4-2.1-0.3-3.1,0.6c-0.8,0.7-1.8,1.1-2.8,1.4
			c-1,0.3-1.7,0.8-2.2,1.8c-0.4,0.8-1.3,2.1-1.9,2.1C307.6,263.3,307.6,264.3,307.9,266z M418.6,233.1c1.6,1.7,3.6,1.4,5.7-0.5
			c-0.2-0.5-0.3-1-0.6-1.8C421.9,231.5,420.3,232.2,418.6,233.1z M405.4,237c0.2-1,0.4-1.9,0.6-2.7c-1.1-0.2-2.1-0.3-3.1-0.5
			C402,236.3,403.6,236.5,405.4,237z M415.5,245c0.1,0.2,0.2,0.5,0.3,0.7c1.1-0.3,2.3-0.5,3.7-0.9c-0.4-0.8-0.7-1.3-1-2
			C417.3,243.7,416.4,244.4,415.5,245z"/>
		<path id="XMLID_321_" class="st1" d="M249.8,107.4c-0.4,0.7-0.8,1.4-1.3,2.1c-3.5-1-5.7,2.5-5.8,5.2c-0.1,2.4,0.2,4.9,0.4,7.3
			c0.1,0.7,0.5,1.3,0.8,2c0.5,1.1,0.9,2.1,1.4,3.2c0.2,0.5,0.4,1,0.7,1.4c2,3,3.9,6.2,6.2,9.1c0.9,1.1,2.5,1.7,3.8,2.5
			c0.6,0.4,1.2,1,1.8,1.5c0.7,0.6,1.3,1.3,2,1.7c2.3,1.4,4.6,2.7,6.9,4.1c0.2,0.1,0.4,0.3,0.6,0.4c4.5,0.9,6.9,3.7,7.6,8.2
			c0.1,0.9,0.5,1.8,0.6,2.9c-0.6-0.7-1.1-1.5-1.7-2.1c-2.5-2.4-5.1-4.7-7.7-7c-0.2-0.2-0.7-0.5-0.9-0.4c-2.7,1-3.9-1-5.5-2.4
			c-1.6-1.4-3.3-2.6-4.9-3.9c-2.7-2.4-5.8-4.3-7.8-7.4c-1.9-3-4-6-6-9c-0.2-0.2-0.3-0.6-0.5-0.7c-3.8-2.1-4.1-6.1-5.3-9.5
			c-0.6,0.4-1.3,1-2.1,1.6c-2.3-2.5-0.7-6.6-3.9-8.9c0,0.8,0,1.5,0,2.2c-2.1-0.2-3.7-2-4-4.4c-0.2-1-0.5-2.1-1-3
			c-0.9-1.7-0.6-2.9,1.3-3.2c2.4-0.4,4.7-1.8,7.5-0.3c0.7-4.7,1.3-9.5,6.4-11.7c-0.7-1-1.2-1.7-1.9-2.8c0.7-0.2,1-1.3,1.6-1.4
			c0.4-0.1,1.2,0.6,1.7,0.5c0.1-0.4,0.3-1.1,0.5-1.9c1.9,1.8,3.7,3.4,5.5,5c-0.8,0.8-1.5,1.4-2.5,0.2c-1-1.1-2-1-2.9,0.2
			c0.9,1.1,1.8,2,3.5,2.2c1.9,0.2,3.8,1,5.5,1.9c2,1,2,3.2,2.3,5.1c0.3,1.8,0.9,2.2,2.5,1.6c1.1-0.4,2.3-0.6,3.4-0.8
			c0-2,0-4.1,0-6.9c0.7,1,1.3,1.8,1.8,2.5c0.5,0.7,1,1.5,1.5,2.2c0.2-0.1,0.5-0.2,0.7-0.3c0.1-1.6,0.2-3.2,0.3-5
			c2.4-0.8,4.7-0.3,6.9,1.2c1.7-0.9,2.1-2.3,1.2-4.1c3.2,0.5,5.3,4,4.4,7.1c-0.5,0.1-1.1,0.2-2.1,0.3c1.4,3.1,2.8,6.1,4.1,9.1
			c-1.4,2.2-3,4.6-4.5,7c0.1,0.1,0.3,0.3,0.4,0.4c0.9-0.8,1.8-1.7,2.7-2.5c0.8-0.7,1.6-1.6,2.6-2.1c1.9-1,2.8-2.5,2.7-4.7
			c0-0.3,0.1-0.6,0.2-1.1c2.1,0.6,4.1,1.3,6.4,1.9c-1.8,1.9-0.9,4.4,1.6,5.6c0.9,0.4,2.1,0.4,3.1,0.6c0.5,0.1,1.1,0.3,1.6,0.4
			c0,0.2,0,0.4-0.1,0.6c-2.4,0.7-4.9,1.4-7.6,2.2c-1-2.3-2-4.6-2.9-6.9c-0.3,0.1-0.5,0.2-0.8,0.3c0.2,1.6,0.4,3.2,0.6,4.8
			c-1.2,0.2-1.2,0.2-1.8-1.8c-2,1.3-2.2,2.1-0.7,3.9c0.8,1,1.6,2,2.4,3c0.2,0.2,0.2,0.5,0.6,1.2c-2,1-3.9,1.9-6,2.9
			c-0.4-0.9-0.7-1.5-1-2.2c-0.8,1.6-1.5,3.1-2.4,4.9c-0.4-1.7-0.7-3-1.1-4.4c-1.8,0.9-3.4,2.3-5.1,0.3c1.1,2,0.9,4.4,2.8,6.1
			c0.9,0.8,0.6,2.8,0.5,4.3c-1.3-0.7-2.2-1.2-2.5-2.8c-0.2-1.2-1.5-2.3-2.3-3.4c-1.2-1.6-2.5-3.2-3.7-4.9c-0.2-0.3-0.1-0.8,0-1.1
			c0.2-1.1,0.5-2.1,0.7-3.1c0.3-1.5,1.7-2.2,3.9-2.1c-0.1-0.5-0.2-1-0.2-1c-1.6-0.2-2.9-0.5-4.3-0.6c-0.7-0.1-1.5,0.1-2.2,0.2
			c-0.6,0-1.3,0.1-2.1,0.1c0.8-3.3,5.3-3.2,5.2-6.7c-2.8-0.6-4.4,1.5-6.4,2.9c-0.6,0.4-1.1,0.9-1.7,1.3c-0.8,0.5-2.1,0.8-2.4,1.5
			c-1,2.5-2.5,4.9-1,7.8c0.8,1.6,1.3,3.2-0.4,5.2c-0.8-2.8-1.6-5.3-2.3-7.8c-0.3-1-0.1-2.1-0.5-3c-0.6-1.3,0.1-2,1-2.7
			c0.3-0.3,0.2-0.9,0.3-1.4C250.3,107.5,250.1,107.5,249.8,107.4z"/>
		<path id="XMLID_320_" class="st1" d="M251.6,200.7c0.2-0.5,0.4-1,0.6-1.5c0.2-0.1,0.3-0.2,0.5-0.2c0.4,0.6,1,1.3,1,1.9
			c0,1.2,0.4,2,1.3,2.8c1.6,1.5,3.5,2.9,3.3,5.6c0,0.2,1.6,0.7,2.5,0.8c0.5,0,1-0.6,1.8-1.1c0.2,1.2,0.3,2.2,0.5,3.4
			c2.9,1,3.7,0.6,4.7-2.4c0.7-2.2,2.1-2.8,4.1-1.4c1.4,1.1,2.8,1,4.1,0.6c2-0.7,3.1,0.3,3.9,1.8c0.4,0.8,0.8,1.7,2.1,1
			c0.2-0.1,1,0.5,1.2,0.9c0.5,1.6,0.8,3.2,1.3,5c0.5-0.4,0.8-0.6,1.1-0.9c1.5-1.7,3.3-2.5,5.6-2.3c2,0.2,3.8-0.6,5.3-2
			c0.2-0.2,0.3-0.4,0.5-0.5c2.3-0.9,4.6-1.8,7.1-2.7c-0.3,1.5-0.6,2.8-1,4.2c0.6,0.2,1.3,0.4,2.1,0.6c0.4-0.7,0.7-1.3,1.1-2
			c0.6-0.9,2.3-0.8,2.8,0.1c0.7,1.1,1.4,2.1,2.2,3.5c-0.1,0.2-0.3,0.7-0.6,1.3c-0.6-0.6-1.2-1.1-1.9-1.7c-3.6,0.9-7.2,1.9-10.8,2.8
			c-0.2,0-0.4,0-0.5,0.1c-1.4,1.3-3,1.2-4.8,0.7c-1.4-0.3-3,0.1-4.4-0.1c-2.4-0.3-4.8-0.8-7.2-1.2c-0.1,1.6,1,2.8,2.6,3.7
			c1.2,0.7,2.3,1.5,3.4,2.3c-0.1,0.2-0.1,0.4-0.2,0.6c-0.7,0.1-1.3,0.2-2.1,0.3c0,0.7-0.1,1.3-0.1,1.8c-6.5,0.1-11.2-4.8-17.3-5.9
			c0.3-0.8,0.4-1.3,0.6-1.8c0.7,0.2,1.4,0.4,2,0.6c0.7-1,0.6-5.4-0.1-6.2c-0.9-1-3.5-0.5-4.3,0.8c-0.9,1.6-1.8,3.1-2.8,4.6
			c-0.2,0.4-1,0.7-1.4,0.6c-1.2-0.2-2.4-0.6-4-1c0.5-0.9,1.2-1.8,1.7-2.9c0.3-0.8,0.6-1.8,0.4-2.6c-0.1-0.4-1.2-0.6-1.9-0.7
			c-0.7-0.2-1.8,0.1-2.3-0.3c-1.9-1.6-3.6-1.5-5.2,0.2c-1-1.5-0.6-2.6,0.6-3.6c0.5-0.4,0.7-1.2,1.2-1.9c-0.7-0.2-1.2-0.3-2-0.5
			c0.8-0.6,1.4-1,2-1.5c-0.4-0.4-0.9-0.9-1.4-1.5c-2.2,0.5-4.4,1-6.6,1.5c-0.2,0-0.5,0.1-0.7,0c-2.2-1.6-4.6-3-6.7-4.7
			c-1.5-1.2-2.7-2.8-2.9-5c-0.1-0.6-1.2-1.3-2-1.6c-2.4-1.1-2.8-3.7-3.9-5.7c-0.7-1.4,1.6-3.9,3.2-4.1c1.8-0.3,3.6-0.8,5.5-1.2
			c-0.3-0.9-0.5-1.6-0.7-2.3c0.2,0,0.5-0.1,0.5-0.1c1.4,1.6,3.3,3,4,4.8c0.7,1.8,0.1,4.1,0.1,6.1c0,0.8-0.1,1.6,0.3,2.2
			c0.3,0.4,1.2,0.4,1.8,0.7c1.1,0.5,2.3,0.8,2.7,2.4c0.5,2,1.8,3.1,4.1,3.2C249.9,199.5,250.6,200.2,251.6,200.7z"/>
		<path id="XMLID_319_" class="st1" d="M440.5,140.3c0.3-2.3,0.8-4.4,0.6-6.5c-0.1-1.6-1.2-3-1.9-4.6c-0.2-0.5-0.2-1.2-0.3-1.9
			c2.1,0.4,3.7,1.1,4.1,3.4c0.7-0.3,1.3-0.5,2-0.8c0.3,0.6,0.6,1.2,1.2,2.2c0.8-1.1,1.4-1.9,2.1-2.8c0.6,0.3,1.3,0.6,2.1,1.1
			c-0.7,1.1-1.2,2.2-1.9,3c-1.6,1.8-1.4,3,1,4.1c0.4-2.2,1.4-4,4.1-4.7c0.1,0.8,0.7,1.9,0.4,2.4c-1.2,1.8,0.2,3.4,0.4,4.9
			c0.2,1.4,0,2.3-0.6,3.4c-2.4-0.5-4.2-1.5-5-4c-0.7,0-1.3,0-2.3,0c0.6,1.1,1,2,1.6,2.9c0.9,1.5,0.7,2.9-0.8,3.6
			c-2.5,1.2-5.1,2.8-7.8,3c-1.9,0.2-3.2,0.7-4.6,1.7c-1.2,0.9-2.6,1-3.9-0.3c-0.9-1-2.1-1.7-3.3-0.1c-3.6,0.1-5.2,3-7.5,4.9
			c1.6,1.9,1.9,3.8,0.6,4.5c-1.2,0.7-2.6,1.2-4,1.6c-0.4,0.1-0.9-0.6-1.5-1.1c1.2-1.2,2.2-2.3,1.8-4.2c-0.2-0.8,0.9-1.9,1.3-2.9
			c0.5-1.4,1.6-1.1,2.7-1.3c1.5-0.3,2.7-0.9,3.5-2.4c1.6-3.2,1.8-3.4,5.3-2.6c2.7,0.7,5.2-0.3,7.8-0.1c0-2.6-0.9-2.8-5.1-1.6
			c-1-1.2-0.6-2,0.7-2.5c1.2-0.4,2.4-0.8,3.5-1.3c0.8-0.4,1.5-1,2.2-1.4c-0.1-0.2-0.1-0.4-0.2-0.5
			C439.3,139.7,439.7,139.9,440.5,140.3z"/>
		<path id="XMLID_318_" class="st1" d="M406.2,100.8c-0.3-1.1-0.5-1.8-0.7-2.4c0.2-0.1,0.3-0.2,0.5-0.3c0.6,0.9,1.4,1.7,1.8,2.7
			c0.6,1.4,1.5,2.2,2.9,2.9c3.1,1.5,6.1,3.1,9.1,4.7c1,0.5,2,0.8,2.9,1.5c1.1,0.8,1.9,1.9,1.7,3.5c-0.1,1.1,0.5,2.2,0.8,3.7
			c-1.2-0.6-2.4-1.1-3.6-1.6c-2.7-1.3-3.4-1-3.7,2.2c-2-1-3.9-2-5.8-2.8c-0.5-0.2-1.2-0.3-1.8-0.2c-1.3,0.3-2.6,0.7-3.8,1.1
			c-1.4,0.5-2.7,1.1-4.2,1.6c-0.3-0.5-0.6-1.2-1-1.9c-1.6,0-3.2,0-5,0c0-0.7,0.1-1.2,0-1.7c-0.3-2.2,0.7-3.2,3-2.9
			c0.8,0.1,1.7,0,2.8,0c-0.5-0.8-1.1-1.5-1.2-2.2c-0.2-0.7-0.2-1.7,0.2-2.2c0.3-0.4,1.4-0.4,2-0.3c2,0.5,3.1,0.1,3.6-1.3
			c-1.8-0.8-3.5-1.6-5.3-2.4c0.1-0.1,0.1-0.3,0.2-0.4C403.2,101.5,404.6,101.2,406.2,100.8z"/>
		<path id="XMLID_317_" class="st1" d="M275.5,248.6c-3.7-1.1-7.9,0.2-11.4-1.7c0.5-1.3,0.9-2.3,1.3-3.6c-1.8-0.3-2.3-1.1-2.7-2.4
			c-0.5-1.6-1.7-3-2.6-4.4c0.4-0.9,0.9-2,1.2-3.1c0.2-0.7,0.2-1.7-0.2-2.2c-0.3-0.4-1.5-0.4-2.1-0.2c-1.2,0.4-0.9,1.5-0.6,2.4
			c0,0.1,0.1,0.2,0.2,0.4c-2,0.4-2-1.3-2-2.3c-0.1-1.3,0.5-2.7,2-2.6c1.3,0.1,2.9,0.5,3.8,1.3c2.8,2.6,6.3,3.7,9.4,5.7
			c1.3,0.8,2.8,1.5,1.9,3.6c-0.1,0.2,0.2,0.6,0.4,0.8C276.5,242.8,276.6,245.6,275.5,248.6z"/>
		<path id="XMLID_316_" class="st1" d="M386.1,193.4c-0.8,0.4-1.4,0.6-2,0.9c0.8-2.5,1.9-3.3,4.3-3.3c1.7,0,3.3-0.3,4.4,1.7
			c0.5,1,1.9,0.7,2.4-0.4c0.6-1.3,0.6-1.3,2.1-1.2c0.2,0.8,0.4,1.6,0.6,2.4c2.2-0.7,3-2.6,2.2-5.2c1.2-0.5,2-0.2,2.6,1
			c2.5,5.1,2.4,6.7-1.6,10.8c-0.7,0.7-2.4,0.4-3.6,0.7c-0.9,0.2-1.9,0.3-2.7,0.6c-1.8,0.7-5.1-0.3-6-2.1
			C387.8,197.4,387,195.4,386.1,193.4z"/>
		<path id="XMLID_315_" class="st1" d="M328.6,231.4c-0.7-1.1-0.6-1.8,0.3-2.7c0.7-0.7,1.2-1.7,1.6-2.6c1-2.3,3.1-2.8,4.6-0.9
			c1,1.2,2.1,0.8,3,0.5c1-0.4,2.5-0.5,2.4-2.4c-0.1-2,1.7-3,3.4-1.9c3.3,2.1,4.5,1.8,6.8,1.4c-0.1-1.5-0.7-2.1-2.3-2.1
			c-1.7,0-1.8-1.7-1.9-2.9c-0.1-1.2,0.3-2.2,2-2.2c1.6,0.1,3.3-0.2,4.7,1.5c-1.9,1.9-1,3.9,0,6c-3.4,3.6-6.7,1.9-10-0.3
			c0.1,2.6,0.1,2.6,2.5,6.3c-1.5,1.3-3.9,0.1-5.3-0.8c-1.4-1-3.6-1.2-5.4-1.1c-1.3,0-2.3,1.2-2.5,2.9c0,0.5-1.1,1.1-1.8,1.4
			C330,231.6,329.2,231.4,328.6,231.4z"/>
		<path id="XMLID_314_" class="st1" d="M322.7,183.9c-3.7-1.6-4.7,0.1-5.6,4.5c-0.4,0-0.8,0.1-1.2,0c-1.1-0.3-2.9-0.6-3-1.1
			c-0.3-1.4-0.1-3.1,0.5-4.5c0.7-1.5,0.7-2.9-0.8-3.7c-1.4-0.8-1.4-0.8-1.6-2.9c0.3-0.1,0.7-0.2,1-0.2c0.4,0,0.7,0,1.3,0
			c0.1-1.3,0.3-2.4,0.3-3.6c0-1.2,0.4-1.7,1.9-1.4c0,0.7-0.1,1.4,0,2.1c0.2,1.6,0.1,3.3,2.3,3.6c0.4,0.1,0.9,0.6,0.9,0.9
			c0.3,1.7,1.6,2.6,3,3.2C323.5,181.3,323.5,182.4,322.7,183.9z"/>
		<path id="XMLID_313_" class="st1" d="M317.2,194.3c0.7,0,1.4,0,2.1,0c0.5,3.6,1.8,4.2,6.2,3.2c0.3-0.1,0.7-0.2,1.1-0.3
			c1.2,2.9,1.8,6.2,5.6,6.8c0,0.2,0.1,0.3,0,0.4c-1.7,4.6-2.8,4.8-6.4,1.3c-1-1-2.2-1.7-3.2-2.6c-0.9-0.9-1.7-2-2.6-3
			c-0.4-0.4-0.9-0.8-1.4-1.1C316,197.4,316,197.4,317.2,194.3z"/>
		<path id="XMLID_312_" class="st1" d="M365.9,136.1c1.9,1.7,3.6,3.1,5.2,4.6c0,0.2-0.1,0.4-0.1,0.6c-0.8,0.2-1.8,0.9-2.4,0.6
			c-2-0.9-3.9-0.5-5.8-0.3c-1.3,0.1-2.6-0.1-4-0.2c0.2-0.8,0.2-1.4,0.5-1.7c2.2-1.9,1.1-3.7,0.1-5.6c-0.1-0.2-0.1-0.5-0.2-0.9
			c2,0.7,3.5,2.6,5.7,1.6c-0.6-1.8-3.1-3.5-0.4-5.7c-0.3-0.4-0.6-0.8-0.8-1.2c0.1-0.1,0.1-0.2,0.2-0.3c0.7,0.4,1.3,0.7,2.1,1.2
			c-0.4,0.7-0.8,1.3-1.2,2.1c0.9,0.4,1.7,0.7,2.4,1.1c1.6,1,1.7,1.9,0.2,3.1C367,135.5,366.6,135.7,365.9,136.1z"/>
		<path id="XMLID_311_" class="st1" d="M418.5,135.1c2.3-1.8,5.1-1.1,6.8-3.5c1.3-1.8,3.7-2.8,5.8-4.4c1.7,0.4,2.5,1.8,1.9,3.9
			c-1.2,4.1-6.5,6.9-10.8,5.7C421,136.4,419.9,135.7,418.5,135.1z"/>
		<path id="XMLID_310_" class="st1" d="M314.6,205.7c-0.4,0-1.1-0.2-1.6,0c-1.6,0.6-2.7,0.5-2.8-1.6c0-0.3-1.1-0.6-1.7-0.9
			c-1.2,4.2-5.2,5.5-10.3,3.7c0.2-0.5,0.3-1,0.5-1.6c1.5,1.7,2.6,1.2,4-0.2c1.1-1.2,2.7-2,4.2-2.8c1.2-0.7,2-1.3,2.6-2.7
			c0.8-2,2.7-0.7,4-0.1c1,0.5,3.1,0.4,2,2.7C315,203.1,314.9,204.3,314.6,205.7z"/>
		<path id="XMLID_309_" class="st1" d="M334.1,185.4c-0.9,0.6-1.5,1-1.9,1.4c0.5,1.1,1.1,2.1,1.6,3.2c-3.5,0.1-6.7-0.8-9.7,0.8
			c-1.3-0.9-1.8-2.7-0.4-5c1.2-2.2,3.5-1.5,5.5-1.1c-0.2-1.6-0.4-3.2-0.6-4.7c0.2,0,0.3,0,0.5,0.1
			C330.7,181.8,332.4,183.6,334.1,185.4z"/>
		<path id="XMLID_308_" class="st1" d="M443.6,157.7c-0.6-1.6-0.3-2.6,1-3.1c1.4-0.6,2.9-1.1,4.4-1.4c2.3-0.6,3.2-2.5,4.3-4.2
			c1.4-2.2,2.9-4.3,4.4-6.5c0.7,1.8,0.3,3.2-1.2,5.1c-1.5,1.9-1.5,2.9-0.2,4.8c0.4,0.6,0.7,1.3,0.8,1.5c-0.9,0.2-2,0.1-2.6,0.5
			c-2.2,1.5-4.4,1.4-6.8,0.2c-0.6,0.7-1.1,1.4-1.8,2C445.4,157,444.5,157.2,443.6,157.7z"/>
		<path id="XMLID_307_" class="st1" d="M349.2,211.4c0.1,2-1.1,2-2.5,2c-1.6,0-3.2,0.3-4.9,0.5c-0.1-0.2-0.2-0.4-0.4-0.6
			c0.9-0.9,1.8-1.9,2.8-2.7c1.4-1.1,1.7-2.4,0.5-4c-1.3,0.3-2.7,0.6-4,0.8c-0.1,0-0.4-0.9-0.5-1.1c1.4-1.3,2.6-2.4,4.2-3.9
			c0.7,0.9,1.6,1.8,2.3,2.8c0.4,0.5,0.6,1.3,0.5,2C347.2,209,348,210.3,349.2,211.4z"/>
		<path id="XMLID_306_" class="st1" d="M308.4,184.1c-1-0.9-2.2-1.7-2.9-2.8c-0.9-1.4-2-2.3-3.7-2.7c-1.6-0.4-3.1-1.2-4.7-1.8
			c0.3-1.3,0.3-2.6,1.8-2.8c1.6-0.2,3.2-0.1,4.3,1.4c1.9,2.7,3.9,5.4,5.9,8C308.8,183.7,308.6,183.9,308.4,184.1z"/>
		<path id="XMLID_305_" class="st1" d="M316.5,210.8c1.2-0.4,2.4-0.7,3.4-1.2c0.7-0.3,1.1-1,2-2.1c0.4,0.6,0.8,1.2,1.2,1.8
			c0.4,0.5,0.8,1.1,1.2,1.7c-1.1,0.9-2,1.8-0.8,3.3c0.1,0.1-0.7,1.3-1.1,1.3C320.9,215.6,317.4,212.7,316.5,210.8z"/>
		<path id="XMLID_304_" class="st1" d="M325.4,236.9c3.9-2.8,8.9-2.5,10.4,1.2c-1.4,0.1-2.6,0.2-3.8,0.3c-0.6,0.1-1.3,0.2-1.9,0.4
			C327.8,239.6,326.5,239.1,325.4,236.9z"/>
		<path id="XMLID_303_" class="st1" d="M339.6,236.4c1.9,0.2,3.3,0.3,4.9,0.4c0-0.8,0.1-1.5,0.1-2.1c1.8-0.9,3.5-1.8,5.2-2.7
			c0.4,1.4,0.7,2.5,0.9,3.7c0.4,1.7-0.3,3.2-1.3,4.4c-0.3,0.4-1.4,0.2-2.4,0.3c1.1-1.4,2-2.6,2.9-3.7c-0.2-0.2-0.3-0.5-0.5-0.7
			c-0.9,0.3-2.1,0.3-2.8,0.9c-2,1.9-4.2,0.4-6.2,0.5C340.3,237.4,340.1,237,339.6,236.4z"/>
		<path id="XMLID_302_" class="st1" d="M426.8,158.3c0.3,0.1,1.1,0.3,2.3,0.5c-1,1.2-2,2.1-2.5,3.2c-0.5,1-0.6,2.4-0.5,3.5
			c0.2,1.4,0.8,2.8,1.5,4.8c-1.6-0.2-2.5-0.3-3.4-0.5c0-0.2,0-0.4,0-0.6c0.4-0.4,0.9-0.7,1.4-1.1c-0.4-1.1-0.9-2.2-1.4-3.2
			c-0.7-1.5-0.1-2.6,0.7-3.8C425.5,160.3,426,159.5,426.8,158.3z"/>
		<path id="XMLID_301_" class="st1" d="M246.9,215.6c0.6-0.7,1-1.3,1.5-1.9c0.2,0,0.4,0,0.6,0c0.2,1.5,0.3,3,0.5,5.1
			c-1.6-0.4-2.9-0.6-4.1-1.1c-0.5-0.2-0.8-1.1-0.8-1.7c0-0.3,0.9-0.6,1.5-0.8C246.3,215.2,246.6,215.4,246.9,215.6z"/>
		<path id="XMLID_300_" class="st1" d="M303.4,82.8c-0.4,2.1-0.5,3.8,2,4.7c-2.4,1.3-3.7,0.9-5.9-1.8
			C300.9,84.7,302.1,83.8,303.4,82.8z"/>
		<path id="XMLID_299_" class="st1" d="M431,185.2c-0.5-0.8-0.9-1.5-1.5-2.4c2.3-1,3.2-4.3,6.5-2.7c0,0.6,0,1.2,0,1.9
			c-1.7,0.7-4.9-0.8-4.3,3.2C431.4,185.1,431.2,185.2,431,185.2z"/>
		<path id="XMLID_298_" class="st1" d="M342.8,241.8c2.9,0.3,5.7,3.3,6,6.2C344.8,247.9,345.3,243.7,342.8,241.8z"/>
		<path id="XMLID_297_" class="st1" d="M441.5,115.5c2.6,2.5,2.6,2.5,2.5,3c-1.1,0-2.2-0.3-3.1,0.1c-0.7,0.3-1.1,1.3-1.7,2
			C438.1,119.8,438.7,118.1,441.5,115.5z"/>
		<path id="XMLID_296_" class="st1" d="M369.2,224.1c1-0.1,2.1-0.2,3.1-0.2c0.6,0,1.3,0.2,1.8,0.6c0.2,0.2,0,1-0.2,1.5
			c-0.1,0.5-0.4,0.9-0.7,1.4c-1.5-1-2.9-1.9-4.3-2.8C369.1,224.5,369.2,224.3,369.2,224.1z"/>
		<path id="XMLID_295_" class="st1" d="M360.4,247.6c-0.8-0.6-1.6-1.3-2.5-1.9c-0.3-0.2-0.7-0.6-1-0.7c-2.7-0.2-3-2.4-3.6-4.5
			c2.5,2.2,5.1,4.3,7.6,6.5C360.7,247.2,360.5,247.4,360.4,247.6z"/>
		<path id="XMLID_294_" class="st1" d="M386.1,212.7c-0.1-1.1-0.3-2.1-0.1-3c0.1-0.6,1-1.4,1.6-1.3c0.6,0,1.5,0.7,1.7,1.3
			C389.7,210.7,388.2,212.2,386.1,212.7z"/>
		<path id="XMLID_293_" class="st1" d="M449.3,159.1c-2.3,1.6-4.3,3-6.7,4.7c1.6-2.3,2.9-4.2,4.4-6.4
			C447.7,157.9,448.6,158.6,449.3,159.1z"/>
		<path id="XMLID_292_" class="st1" d="M281.4,125.6c1.3-1.2,2.4-2.2,3.4-3.3c1.1,1,1.1,2.1,0,3.2
			C284,126.5,282.8,126.6,281.4,125.6z"/>
		<path id="XMLID_291_" class="st1" d="M461.5,148.6c-2.1-0.8-1.8-2.3-1.3-4.3c0.6,0.2,1.4,0.3,1.8,0.7
			C463.2,146.4,462.3,147.5,461.5,148.6z"/>
		<path id="XMLID_290_" class="st1" d="M288,97.6c-1.8-1.5-1.7-3.1,0.4-5.7C288.8,93.9,289.4,95.8,288,97.6z"/>
		<path id="XMLID_289_" class="st1" d="M388.8,152.1c-0.2-0.9-0.4-1.5-0.6-2.4c2.5,1.1,5.5,0.3,7.4,3
			C393.3,152.4,391.3,150.3,388.8,152.1z"/>
		<path id="XMLID_288_" class="st1" d="M315.1,122.6c0.9,0.6,1.4,0.9,2.2,1.4c-1.3,1-2.4,1.8-3.5,2.6c-0.2-0.2-0.4-0.3-0.6-0.5
			C313.8,125.1,314.3,124,315.1,122.6z"/>
		<path id="XMLID_287_" class="st1" d="M288.3,86.6c1.4,1.8,2.8,3.5,4.2,5.3C289.5,91.2,288.4,89.4,288.3,86.6z"/>
		<path id="XMLID_286_" class="st1" d="M273.6,72.1c0.3-0.5,0.5-0.8,0.6-1.1c1.4-0.6,2.4,0.9,2.1,3.2
			C275.3,73.4,274.5,72.8,273.6,72.1z"/>
		<path id="XMLID_285_" class="st1" d="M282.6,96.5c1.1,0.3,2.3,0.6,3.7,0.9C283.8,99,283.8,99,282.6,96.5z"/>
		<path id="XMLID_284_" class="st1" d="M374.5,265.3c-0.3-0.6-0.6-1-1.1-1.9c1.3,0.1,2.2,0.3,3.1,0.4c0,0.1,0.1,0.2,0.1,0.4
			C375.9,264.5,375.2,264.9,374.5,265.3z"/>
		<path id="XMLID_283_" class="st0" d="M357.6,194.7c-0.6,0.4-1.2,0.8-1.9,1.3c-0.2-2.3,0.4-3,3.5-4.4c0.9-0.4,1.8-1.3,2.2-2.1
			c0.6-1.2,0-1.8-1.9-2c0-0.1-0.2-0.3-0.1-0.3c2.9-3.1,1.6-6.6,0.8-10c-0.2-0.7-0.1-1.4-0.2-2.1c2.5-0.7,3-0.4,4.8,1.8
			c0.7,0.8,1.1,1.6,2.5,1c0.7-0.3,1.8,0.4,3.1,0.7c-1.2,1.9-2.2,3.6-3.1,5.3c-1.8,3.5-1.7,3.4,0.6,5.3c-0.9,0.6-1.7,1.2-2.5,1.7
			c-2,1.1-2.8,2.5-1.9,4.5c1.1,2.5,0.6,4.5-0.6,6.7c-0.4,0.7-0.7,1.4-1,2.1c1,1,1.7,1,2.6,0c1.1-1.3,2.4-0.6,3.4,0
			c1,0.6,1.4,1.6,0.6,2.8c-1.1,1.7-2.1,3.5-3.2,5.2c-0.3,0.4-0.9,0.7-1.4,0.9c-1.3,0.3-2.6,0.6-3.9,0.6c-0.7,0-1.7-0.2-2-0.7
			c-1-1.9-1.8-3.8-2.6-5.8c-0.3-0.7-0.3-1.5-0.4-2.3c-0.2-1.5,0.7-2.7,2.3-2.8c2.4-0.1,3-1.1,2.9-3.5
			C360,196.6,360,195.1,357.6,194.7z"/>
		<path id="XMLID_282_" class="st0" d="M413,68.9c-0.1,0.8-0.3,1.5-0.4,2.3c-0.8-0.2-1.6-0.4-2.4-0.7c0.1-0.1,0.3-0.2,0.4-0.3
			c-0.5-1.7-0.9-3.3-1.4-5c0-0.2-0.2-0.3-0.2-0.5c0.1-3.8-3.5-5.8-4.6-8.9c-0.1-0.4-0.5-0.7-0.6-1.1c-0.6-2.9,0.2-3.8,2.8-3.5
			c3.2,0.4,5.1,2.5,6.7,5.1c1.9,3.1,2.4,6.7,3.1,10.2c0.3,1.6-0.4,2-1.5,2.2C414.3,69,413.7,68.9,413,68.9z"/>
		<path id="XMLID_281_" class="st0" d="M349.6,64.9c5.9,0.4,5.9,0.4,7.2-0.3c-2.6-1.5-5.1-3-7.8-4.6c0.1-0.3,0.3-0.9,0.4-1.4
			c3.1-0.2,5.9,0.4,8,2.9c0.5,0.5,0.7,1.3,1,2c0.4,0.7,0.8,1.5,1.3,2.1c1.2,1.4,2.4,2.6,3.7,4c-2.2,1-4,1.9-5.9,2.7
			c-0.2,0.1-0.6-0.1-0.8-0.2c-1.8-1.3-3.6-2.6-5.2-4.1C350.8,67.3,350.4,66.2,349.6,64.9z"/>
		<path id="XMLID_280_" class="st0" d="M450.1,96.6c-0.8,0.3-1.1,0.4-1.3,0.6c-1.8,1.2-3.7,0.2-3.9-2.1c-0.1-1.1,0-2.3,0-3.6
			c1.2,0.4,2.1,0.6,3.6,1.1c-0.8-1.6-1.4-2.7-1.9-3.8c4,0.4,7.7,4.3,7.9,8.3c0,0.6,0.3,1.2,0.3,1.7c0.1,1.7-1.1,2.4-2.8,1.9
			C451.3,99.4,450.7,98,450.1,96.6z"/>
		<path id="XMLID_279_" class="st0" d="M376.7,183.7c1.7,0.2,2.2,1,2.5,2.6c0.6,3.6,0.4,4.5-2.4,6.5c-0.4,0.3-0.8,0.6-1,1.1
			c-0.5,1.6-1.5,1.7-2.8,1c-1.1-0.6-2.6-1-1.7-2.9c0.3-0.7,0-1.7,0.3-2.4c0.3-0.7,1-1.4,1.7-1.8
			C375.8,186.2,375.8,186.2,376.7,183.7z"/>
		<path id="XMLID_278_" class="st0" d="M323.6,84.1c2.8-1.5,4.4-1.2,6.7,0.8c1.3-0.3,2.5-0.5,4.2-0.9c-2,3.3-4.3,5.1-7.7,5.1
			c-1.2,0-2.5-1.4-2-2.4C325.4,85.3,324.9,84.6,323.6,84.1z"/>
		<path id="XMLID_277_" class="st0" d="M444.2,82.7c4.2-1.1,4.8-0.9,6.1,1.8C448,86.3,444.9,85.4,444.2,82.7z"/>
		<path id="XMLID_276_" class="st0" d="M368,118.5c-1.5,1.6-4.6,1.1-7.1-1.1C362.5,115.8,364.4,116.3,368,118.5z"/>
		<path id="XMLID_275_" class="st0" d="M388,42.4c4.4,1.7,4.8,2.2,3.6,4.4c-1.5-0.9-3-1.8-4.6-2.8C387.3,43.5,387.7,43,388,42.4z"/>
		<path id="XMLID_274_" class="st0" d="M356.5,87.2c-0.8-1.7-1.5-3.1-2.2-4.4c0.1-0.2,0.2-0.3,0.4-0.5c0.9,0.3,2.3,0.2,2.7,0.9
			C358.2,84.3,357.9,85.8,356.5,87.2z"/>
		<path id="XMLID_273_" class="st0" d="M417.6,184.5c-1,0.9-1.9,1.8-2.9,2.7c-1.6-1.6-1.1-3,0-3.9c0.5-0.4,1.8,0.2,2.7,0.4
			C417.4,184,417.5,184.3,417.6,184.5z"/>
		<path id="XMLID_272_" class="st0" d="M376.3,179.7c0.7,2.2-0.7,3.2-2,4.3C372.9,180.4,373.4,179.4,376.3,179.7z"/>
		<path id="XMLID_271_" class="st0" d="M320.2,85.5c-1.1-1.1-1.9-2-2.7-2.9c0.1-0.2,0.2-0.4,0.3-0.6c1.4,0.2,2.7,0.4,4.5,0.6
			C321.5,83.7,321,84.4,320.2,85.5z"/>
		<path id="XMLID_270_" class="st0" d="M380.1,178.9c0.6,0.8,1.8,1.6,1.8,2.4c0,1.9-1.7,1.1-3.1,1.4c0.2-1.3,0.4-2.4,0.6-3.6
			C379.7,179.1,379.9,179,380.1,178.9z"/>
		<path id="XMLID_269_" class="st0" d="M252.8,68.9c-1.3-2-0.6-3.6,1.1-5.4C254.2,65.7,254.5,67.5,252.8,68.9z"/>
		<path id="XMLID_268_" class="st0" d="M360.8,58.2c-1.2-0.5-2.4-1-3.6-1.4c0.1-0.3,0.3-0.7,0.4-1c1.2,0.5,2.3,1,3.5,1.5
			C361.1,57.6,360.9,57.9,360.8,58.2z"/>
		<path id="XMLID_267_" class="st0" d="M307.9,266c-0.3-1.7-0.3-2.7,1.7-2.7c0.7,0,1.5-1.2,1.9-2.1c0.5-1,1.2-1.5,2.2-1.8
			c1-0.3,2-0.7,2.8-1.4c1-0.9,1.9-1,3.1-0.6c0.9,0.3,1.9,0.2,2.7,0.2c0.5,1.2,1,2.3,1.4,3.4c0.1-0.2,0.3-0.5,0.4-0.7
			c1.4,0.2,2.8,0.1,4.2,0.5c3,0.8,6,1.9,9,2.8c0.3,0.1,0.7,0.3,0.8,0.2c3.1-2.1,5.8,0.2,8.7,0.6c0.8,0.1,1.7,0.3,2.5,0.2
			c2.9-0.3,5.5,1.4,6.3,4.3c-1.3,1.2-2.4,1.8-4.4,0.8c-1.9-0.9-4.2-0.9-6.3-1.4c-1.5-0.4-3.1-0.4-4.1-2.1c-0.9-1.6-2.7-0.8-4-0.7
			c-1.8,0.2-3.5,0.7-5.3,0.9c-0.8,0.1-1.6-0.7-2.4-0.6c-3,0.6-5.8-0.7-8.7-0.7c-1.9-0.1-3.8,0.5-5.7,0.7
			C312.6,265.8,310.2,265.9,307.9,266z"/>
		<path id="XMLID_266_" class="st0" d="M418.6,233.1c1.8-0.8,3.3-1.6,5-2.4c0.3,0.9,0.5,1.3,0.6,1.8
			C422.2,234.4,420.1,234.7,418.6,233.1z"/>
		<path id="XMLID_265_" class="st0" d="M405.4,237c-1.8-0.5-3.4-0.7-2.5-3.2c0.9,0.2,2,0.3,3.1,0.5
			C405.8,235.1,405.6,235.9,405.4,237z"/>
		<path id="XMLID_264_" class="st0" d="M415.5,245c0.9-0.7,1.9-1.3,3-2.1c0.3,0.7,0.6,1.2,1,2c-1.4,0.3-2.5,0.6-3.7,0.9
			C415.7,245.5,415.6,245.3,415.5,245z"/>
	</g>
</g>
<g id="Layer_2" class="st2">
	
		<image style="display:inline;overflow:visible;" width="1080" height="275" xlink:href="../logo downloads/mother.png"  transform="matrix(1 0 0 1 8 5.2588)">
	</image>
</g>
</svg>
