<?xml version="1.0" encoding="utf-8"?>
<!-- Generator: Adobe Illustrator 19.0.0, SVG Export Plug-In . SVG Version: 6.00 Build 0)  -->
<svg version="1.1" id="Capa_1" xmlns="http://www.w3.org/2000/svg" xmlns:xlink="http://www.w3.org/1999/xlink" x="0px" y="0px"
	 viewBox="-62 264.2 455.7 265.8" style="enable-background:new -62 264.2 455.7 265.8;" xml:space="preserve">
<style type="text/css">
	.st0{fill:#FFFFFF;}
</style>
<g>
	<g>
		<g>
			<path class="st0" d="M-14.5,287.3c6.8-12.8,22.7-23.1,35.4-23.1h89.3L50.4,377.3H-62L-14.5,287.3z"/>
			<path class="st0" d="M167.9,320.9c4.8-9,16-16.3,25-16.3H254l-29.5,56.5c-4.8,9-16,16.3-25,16.3h-61.1L167.9,320.9z"/>
			<path class="st0" d="M270.3,273.1c2.6-4.8,8.5-8.6,13.3-8.6h32l-17.1,31.9c-2.6,4.8-8.5,8.6-13.3,8.6h-32L270.3,273.1z"/>
			<polygon class="st0" points="50.3,377.3 138.6,377.3 91.4,465.4 3.2,465.4 			"/>
			<path class="st0" d="M91.4,465.4h61.9L125.1,518c-3.5,6.6-11.8,12-18.4,12H56.8L91.4,465.4z"/>
		</g>
		<path class="st0" d="M259,405.4l-16.9,31.9c-1.1,2.1,0.3,3.6,2.4,3.8c1.5,0.1,3.1,0,5.2-0.9l-6.8,12.8c-2.4,0.6-3.7,1-6,1
			c-10,0-14.7-6.8-10.3-15.2l28.5-53.6c1.9-3.5,6.2-6.3,9.7-6.3h8.3l-6.7,12.6h8.6l-7.3,13.8L259,405.4z M173.3,407.8l-0.3,0.6
			l-7,13.2l-13.1,24.7c-1.1,2.1-3.1,3.9-5.3,5.1c-1.5,0.8-3.1,1.3-4.5,1.3h-8.5l16.5-31.1l7.3-13.8c0-0.2,0.1-0.4,0.2-0.5
			c0.7-1.9-0.1-3.3-2-3.3c-2.1,0-4.7,1.7-5.9,3.8l-7.3,13.8l-13.1,24.7c-1.9,3.5-6.3,6.4-9.8,6.4H112l23.9-44.9
			c5.1-10.5,11.1-17.7,28.4-17.7h22.5c8.6,0,15.8,5,9.1,17.7l-20.5,38.5c-1.9,3.5-6.3,6.4-9.8,6.4h-8.5l16.5-31.1l7.3-13.8
			c1.1-2.1,0.3-3.8-1.8-3.8C177.1,404,174.5,405.7,173.3,407.8z M349.9,405.1l-5.3,10h-14.4l4.3-8.1c1.1-2.1,0.3-3.8-1.8-3.8
			c-2.1,0-4.7,1.7-5.8,3.8l-14.5,27.2l-1.3,2.4c-1.1,2.1-0.3,3.8,1.8,3.8c2.1,0,4.7-1.4,6.9-5.9l2-3.7h-3.6l5.8-10.9h18l-9.9,18.6
			l-0.1,0.2c-4.5,8.4-16.2,15.2-26.3,15.2c-10,0-14.6-6.8-10.1-15.2l2.4-4.6l15.6-29.4c4.5-8.4,16.2-15.2,26.3-15.2
			c10.1,0,14.6,6.8,10.1,15.2L349.9,405.1z M269.1,436.7c-1.1,2.1-0.3,3.8,1.8,3.8c2.1,0,4.7-1.7,5.8-3.8l15.7-29.5
			c1.1-2.1,0.3-3.8-1.8-3.8c-2.1,0-4.7,1.7-5.8,3.8L269.1,436.7z M307.8,405.3L290,438.6l-0.1,0.2c-4.5,8.4-16.2,15.2-26.3,15.2
			c-10,0-14.6-6.8-10.1-15.2l18-33.9c4.5-8.4,16.2-15.2,26.3-15.2c10.1,0,14.6,6.8,10.1,15.2L307.8,405.3z M200.9,436.7
			c-1.1,2.1-0.3,3.8,1.8,3.8c2.1,0,4.7-1.7,5.8-3.8l15.8-29.5c1.1-2.1,0.3-3.8-1.8-3.8c-2.1,0-4.7,1.7-5.8,3.8L200.9,436.7z
			 M239,405.3l-17.8,33.3l-0.1,0.2c-4.5,8.4-16.2,15.2-26.3,15.2c-10,0-14.6-6.8-10.1-15.2l18.1-33.9c4.5-8.4,16.2-15.2,26.3-15.2
			c10.1,0,14.6,6.8,10.1,15.2L239,405.3z M369,407.1l-0.7,1.3l-6.3,11.9h2.5c2.8,0,6.3-2.3,7.8-5.1l4.3-8.1c1.1-2.1,0.3-3.8-1.8-3.8
			C372.7,403.3,370.1,405,369,407.1z M354.9,433.6l-6.8,12.8c-1.9,3.5-6.2,6.3-9.7,6.3h-8.5l18.2-34.2l5.5-10.3
			c7.8-15.2,17.3-18.5,28.4-18.5c12.6,0,14.2,8.3,8.7,18.6l-0.4,0.7l-4.8,9l-0.3,0.6c-4.5,8.5-16.5,15.4-26.8,15.4
			C357.2,433.9,356,433.8,354.9,433.6z"/>
	</g>
</g>
</svg>
