<?xml version="1.0" encoding="utf-8"?>
<!-- Generator: Adobe Illustrator 19.0.0, SVG Export Plug-In . SVG Version: 6.00 Build 0)  -->
<svg version="1.1" id="Layer_1" xmlns="http://www.w3.org/2000/svg" xmlns:xlink="http://www.w3.org/1999/xlink" x="0px" y="0px"
	 viewBox="0 0 1232 242" style="enable-background:new 0 0 1232 242;" xml:space="preserve">
<style type="text/css">
	.st0{fill:#FFFFFF;}
</style>
<g>
	<path class="st0" d="M72.8,144.5c2.6,12.1,4.9,22.8,7.1,33.1C62.3,183,45.2,188.3,27,193.8c-7.4-47-14.7-93.9-22-141
		c15.3-3.3,30-6.5,45-9.7c7,8.8,14,17.6,21.8,27.4c3.1-10.6,5.9-20,8.6-29.1c15-5.9,29.6-11.6,45-17.6c5.7,24.4,11.3,48.5,17,72.9
		c12.4-0.5,23.3-5.8,35-10c3.1,6.7,6.2,13,9.9,21c1.7-7.8,3.2-14.3,4.7-21.1c10,3.2,19.6,6.2,29.3,9.3
		c12.2-16.9,30.4-18.6,48.3-20.6c5-0.5,10-0.7,15.5-1.1c0-5.9,0-11.6,0-17.6c4.5-0.4,8.5-0.7,13-1c0.9-5,1.7-9.8,2.6-14.8
		c16.9-4.4,33.7-8.8,51.4-13.4c0,8.2,0,16.3,0,25.1c6-0.9,11-1.7,16.5-2.5c-0.8,9.3-1.6,17.9-2.3,27c28.5-9.8,54.1-12,71.2,20.2
		c0-16.7,0-31.8,0-47.6c23.6,5.7,47.3,8.3,71.2,5.8c3.3,9.8,6.6,19.3,10,29.2c6.7-1.2,12.3-2.3,18.6-3.4c1.9,7.1,3.8,14.1,6.1,22.5
		c3.1-7.2,5.6-13.2,8.6-20.2c15.7,9.6,31.8,17.8,51.2,22.2c-5.4-21.9-10.7-42.8-16-64.2c15.6-7.9,32.5-12.9,50.3-15.1
		c11-1.4,22-1.3,32.7,1.4c25.1,6.5,38.1,24.1,43.5,48.4c0.9,4.2,1.4,8.5,2.2,13c10,0.1,19.5,0.9,29.2-1.6c11.1-2.8,22.6-3.6,34-5.3
		c1-0.1,1.9-0.6,3.4-1.1c-0.7-4-1.5-8-2.2-12.1c19.4-1.2,38.6-2.3,58-3.5c0.3,1,0.6,2.2,0.7,2.7c8.8,1.1,17.5,1.3,25.8,3.3
		c9,2.2,14.4,9.1,17.5,17.7c5.5-2.8,10.5-6.1,16.1-7.8c5.4-1.7,11.3-1.7,17.5-2.5c0.1-1.9,0.3-4.4,0.5-7.1c13.8,0,27.5,0,41.7,0
		c14.6-20.6,35.9-23.4,58.1-16.5c27.6,8.6,30,33,31,57.3c27-19.8,53.9-18.8,81.2-0.2c2.6-12.7,1.3-25.6,0.5-38.5
		c19.3,1.9,38.2,3.7,57.6,5.6c0.2,0.9,0.5,2.3,0.8,3.7c0.4,0.2,0.8,0.5,1.2,0.6c3.5,0.4,7,0.5,10.4,1.1c21.2,4,30.8,17.4,27.7,38.8
		c-3.2,21.2-6.6,42.4-9.9,63.6c-0.2,1.4-0.7,2.8-1,3.8c-14.4-3.1-28.4-6.9-42.7-9c-14.1-2.1-28.5-2.5-43.1-3.7
		c-15.3,18.6-34.9,26.3-58.8,20.3c-24.7-6.2-35.6-23.9-37.7-48.5c-22.9,6.3-45.2,8.3-66.4-6.5c-0.4,6.2-1.1,11.6-1,17
		c0.2,22-10.1,36.9-30.1,45.6c-10.9,4.7-21.8,9.3-32.9,7.5c-9.6-11.7-18.5-22.6-27.8-34c3.8-1.1,7.3-2.2,10.9-3.2
		c0.1-0.5,0.3-1,0.4-1.4c-2-1.1-3.8-3-6-3.3c-18.5-3-37-4.3-55.7-1.6c-8.7,1.3-17.6,0.9-27.1,1.3c0,6.8,0,13.2,0,19.5
		c-16.9-1.3-33.1-2.5-50.3-3.8c0.1,0.2-0.6-0.9-1.4-2.1c-2.7,0.3-5.3,0.8-8,0.9c-5.1,0.1-10.4,0.8-15.3-0.3
		c-12.2-2.5-19.4-11.4-20.4-23.9c-0.5-6.4-0.9-12.8-1.4-20.4c-12.2,15.3-26.7,25.2-44.7,29c-14.5,3-29.3,3.5-43,2.3
		c-2.9-20.9-5.7-41.2-8.5-61.5c-0.7-0.1-1.4-0.3-2.1-0.4c-13.7,17.9-25.7,36.9-38.1,55.6c-12.5,18.9-24.7,37.9-36.9,56.7
		c-17.7-5.8-35.4-11.5-53.6-17.5c5.4-6.5,11.4-13.1,16.9-20.1c5.4-7,10.3-14.3,15.6-21.6c-5-17.3-9.8-34.3-14.7-51.3
		c-0.7,0.1-1.4,0.2-2.1,0.3c0.8,16.4,1.6,32.8,2.4,49.9c-3.8-0.5-7.5-1-11.3-1.4c-11.8-1.1-23.5-2.3-35.3-3.1
		c-1.9-0.1-4,1.2-5.8,2.3c-19.2,11.3-39.5,15.7-61.2,9.1c-10-3.1-18-9.3-23.8-18.1c-0.6-0.9-1.4-1.8-2.6-3.3
		c-4.3,4.6-8.4,8.9-12.7,13.4c-12.8-4.3-25.5-8.9-35.7-19.5c-3.9,27.6-24.3,33.8-46.3,37.4c-8.6,1.4-17.5,1.5-26.3,2.2
		c-1.3-10.1-2.6-19.5-3.9-29c-0.8-0.1-1.5-0.2-2.3-0.3c-10.6,25.3-21.1,50.6-31.6,75.8c-18.3-2.5-36.8-5-55.9-7.6
		c9-15.2,18.4-30.6,24.5-48.6c-19.8,2.2-38.5,4.2-57.9,6.3c-2.1-12-4.1-23.2-6.2-35.6C89.5,143.4,81.5,143.9,72.8,144.5z
		 M64.3,168.5c-4.4-22.3-8.6-43.6-12.8-64.8c0.5-0.2,1-0.4,1.5-0.5c6.9,9.7,13.8,19.3,20.4,28.6c5.9-0.5,10.8-0.9,16.2-1.4
		c3.8-11.7,7.5-23.3,11.2-34.9c0.5,0,1,0.1,1.5,0.1c4,22.7,7.9,45.4,12,68.6c10-0.5,19.5-0.8,29.4-3.7c-9.2-40-18.2-79.2-27.3-119.1
		c-8.9,3.4-17,6.5-25.8,9.9c-4.2,15.1-8.5,30.3-13,46.7C66.2,84,55.7,70.9,44.9,57.5c-8.3,1.8-16.5,3.6-25.4,5.5
		c5.9,38.2,11.8,75.9,17.7,114.3C46.7,174.2,55.3,171.4,64.3,168.5z M626.1,160.7c14.2-0.2,29.1-0.9,42.7-8.2
		c26.8-14.4,39.3-43.4,32.3-74.4c-4.6-20.3-15.6-34.7-36.9-38.4c-8.5-1.5-17.6-1.2-26.3-0.5c-12.1,1.1-23.9,4-34.6,9
		C611,85.7,618.4,122.6,626.1,160.7z M928.5,94.8c-3.4-0.5-6.2-0.9-9-1.4c-20.5-3.5-32.6,4-36.1,23.6c-1.5,8.3-1.9,17-1.1,25.3
		c2.2,22.2,18.3,32.9,39.7,27.1c1.5-0.4,3-0.7,5.6-1.3c-5.7,13.4-18.4,14.3-28.7,19.4c3.6,4.9,7,9.3,11.2,14.8
		c7.6-2.9,15.2-5.6,22.6-8.7c13.6-5.7,20-16.2,20.1-30.9c0.2-24,0.7-47.9,1-71.9c0-1.7-0.4-3.5-0.7-5.6c-8.2,0-15.9,0-23.7,0
		C929.1,88.5,928.9,91.3,928.5,94.8z M870.6,157.4c0.3-2.3,0.9-4.4,0.9-6.4c0.1-15.7,0.2-31.3,0.2-47c0-2.6-0.3-5.3-0.8-7.9
		c-1.3-7.3-5.6-12-13-13.4c-3.2-0.6-6.7-1-9.9-0.6c-7,0.8-14,2.1-21.3,3.2c-0.4-1.7-1-3.7-1.6-6c-9.6,0.7-18.9,1.4-28,2.1
		c1.5,25.9,3,51.1,4.6,77.3c9-0.4,18.2-0.9,27.9-1.4c-0.8-18.8-1.6-36.5-2.3-54c2.3-0.9,3.6-1.5,5-2c8.5-2.7,10.9-1,10.8,8
		c0,13.7-0.1,27.3-0.1,41c0,1.6,0.2,3.2,0.4,5.1C852.4,156,861.1,156.7,870.6,157.4z M1163.9,168.9c2-18.9,3.9-36.4,5.9-54.4
		c5.5,0,10.1,0,16.2,0c-2.8,18.9-5.5,36.5-8.2,54.6c8.9,2.1,17.7,4.1,27,6.2c0.7-3,1.4-5.4,1.8-7.8c1-6.1,2-12.2,2.8-18.3
		c1.6-11.7,3.4-23.4,4.4-35.1c0.6-6.9-3.3-11.8-9.6-14.3c-3.3-1.3-7-2.4-10.6-2.6c-7.1-0.4-14.2-0.1-21.4-0.1
		c-0.2-1.7-0.5-3.7-0.8-5.9c-9.4-0.8-18.6-1.6-27.9-2.4c-2.5,25.9-5,51.2-7.5,77.1C1145.2,166.9,1154.4,167.9,1163.9,168.9z
		 M758.4,175c8.4,0.6,16.3,1.2,24.2,1.8c2.3-3.4,3.3-75.9,1-82.1c-9,1.5-18.1,3-27.2,4.5c0,18.3,0,35.9,0,55
		c-3.9,0.4-8.2,2-11.6,0.9c-1.8-0.6-2.7-5.9-2.8-9.1c-0.3-12.5-0.2-25-0.3-37.5c0-1.9-0.4-3.8-0.6-5.7c-9.6,0-18.7,0-28.3,0
		c0,3.2-0.1,5.8,0,8.4c0.3,9.2,0.7,18.3,1.1,27.5c0.3,7.7,0.4,15.3,1.1,22.9c0.7,8,5.6,12.3,13.5,12.5c3.3,0.1,6.7-0.2,9.9-0.7
		c5.9-0.8,11.8-1.8,17.7-2.8C757,172.1,757.7,173.4,758.4,175z M537.9,145c-0.6-0.1-1.2-0.3-1.8-0.4c-2.5-16.1-4.9-32.1-7.4-48.1
		c-10,0.8-18.7,1.5-28.1,2.2c6.6,22.9,13,45.2,19.4,67.8c-7.6,10.9-15,21.6-22.7,32.6c8.5,3.1,16.4,6,24.5,8.9
		c20.7-31.3,41.3-62.5,62.1-93.9c-9-4-17.2-7.8-25.8-11.6C551.4,116.8,544.7,130.9,537.9,145z M185,214.2
		c14.7-34.5,29.3-68.8,44.2-103.6c-9.6-2.3-18.4-4.5-27.4-6.7c-4.2,15.5-8.3,30.4-12.4,45.3c-0.6,0-1.3-0.1-1.9-0.1
		c-5.3-15.3-10.6-30.5-15.9-45.8c-9.6,2.5-18,4.7-27.2,7.1c10.5,21.2,20.9,42,31.4,63.1c-5.5,12-10.9,23.9-16.6,36.3
		C168,211.3,176.4,212.7,185,214.2z M1126.9,145.1c0.1-11.2-3.3-19.3-10.7-25.2c-13.7-11-41-11.7-55.2-1.3
		c-12.8,9.3-15.8,22.6-14,37.3c1.8,14.4,9.6,24.7,23.5,29.5C1099.7,195.3,1126.6,176.1,1126.9,145.1z M1032.9,112.3
		c2.7-12.2-0.7-28.9-8.1-36.6c-4-4.1-9.6-7.6-15-9c-6.2-1.6-13.2-1.3-19.8-0.8c-10.9,0.8-18.5,7-22.9,16.9c-1.8,4.1-3,8.5-3.8,12.9
		c-4,22.6,5.2,38.8,25.2,44.5c13.6,3.9,27.1,2.1,40.3-2.4c1.6-0.5,3-1.9,4.8-3c-2.1-4.8-4-9.1-6-13.5c-4.9,0.8-9.3,1.8-13.7,2.3
		c-6.5,0.8-13,1.1-18.9-2.5c-4.9-3.1-6.4-6.4-5.1-11.9C1004.1,110.3,1018.4,111.3,1032.9,112.3z M425.9,136.5
		c-5.6,1.5-10.7,2.9-15.9,4.1c-5.8,1.4-11.6,1.9-17-1c-4.1-2.2-7.3-5.1-6.6-11.1c14.7-0.7,29.3-1.4,45.5-2.1
		c-2.3-8.8-3.5-16.4-6.2-23.4c-5.3-14.1-16.3-20.6-31.3-19.6c-2.3,0.1-4.6,0.5-7,0.7c-15.4,1.7-25.3,10.9-27.6,26.3
		c-0.8,5.2-1.1,10.6-0.8,15.9c0.9,17.3,11.4,29.3,28.3,32.8c14.3,2.9,27.7-0.5,40.8-6.3c1.7-0.7,3-2.4,4.7-3.9
		C430.5,144.7,428.3,140.8,425.9,136.5z M312.1,51.2c-1,5.7-2,11-3,16.3c-3.9,0.5-7.3,0.9-11.4,1.4c0.6,5.6,1.2,10.6,1.7,15.7
		c3.5,0.2,6.2,0.3,9.4,0.4c0,12-0.4,23.5,0.2,34.9c0.2,4.6,1.7,9.7,4.3,13.4c5.3,7.4,13.8,10.5,21.9,13.3c6.2-5.5,12-10.6,18.2-16.1
		c-4.1-1.9-7.6-3.1-10.7-5.1c-2.3-1.5-5.2-3.6-5.7-5.8c-2.2-11.7-1-23.4,0.3-35.9c5.5,0,10.6,0,16,0c0-6.2,0-11.5,0-17.2
		c-4.9,0-9.4,0-14.2,0c0-7.4,0-14.4,0-21.8c-1.4,0.1-2.4,0.1-3.3,0.3C328.2,47.1,320.5,49.1,312.1,51.2z M284.9,87.3
		c-5.3,0.3-10.1,0.3-14.8,0.8c-10.4,1.1-21,1.7-30.3,7.2c-9.4,5.5-11.7,16.9-4.6,25.2c2.8,3.3,6.7,5.9,10.4,8.3
		c4,2.7,8.6,4.5,12.4,7.4c2.1,1.5,3.3,4.3,4.8,6.6c-7.1,7.4-16.3,3.7-23.5,7.6c1.1,5.9,2.2,11.5,3.4,17.5
		c13.8-0.4,26.9-2.1,38.4-9.8c7.6-5.1,10.3-13.2,8.1-22.3c-1.7-6.7-6-11.5-11.6-15c-4.4-2.7-9.1-4.9-13.5-7.4
		c-1.5-0.9-2.8-2.2-4.2-3.4c0.1-0.7,0.2-1.4,0.3-2c8.7-1.2,17.4-2.4,26.6-3.7C286.1,98.7,285.5,93.3,284.9,87.3z M450.1,66.2
		c0,26.7,0,52.7,0,79.3c8.5,0.7,17.4,1.4,27,2.3c0.2-2.6,0.6-4.8,0.6-7c0-11.7-0.4-23.3-0.2-35c0.2-10.4,2.1-12.5,12.2-14.9
		c3.7-0.9,7.6-1.2,11.3-1.7c1.7-0.3,3.4-0.6,5.6-0.9c-2.6-6.6-4.9-12.6-7.5-19.4c-6.8,1.8-13.4,3.6-20.2,5.5
		c-0.6-1.9-1.1-3.6-1.7-5.5C468.4,67.9,459.7,67.1,450.1,66.2z"/>
	<path class="st0" d="M637.1,61.1c14.2-3.2,24,0.7,29,11.7c7.3,16.1,8.4,32.8,2,49.6c-2.6,6.7-6.8,12.1-15.4,14.3
		C647.4,111.3,642.3,86.3,637.1,61.1z"/>
	<path class="st0" d="M926.9,113.8c0,11.9,0,23.9,0,36c-3.4,3.4-7.8,4.9-11.4,2.9c-2.4-1.3-4.1-5.4-4.6-8.5
		c-0.9-6.5-1.1-13.2-1-19.8C910.2,113.8,916.2,110,926.9,113.8z"/>
	<path class="st0" d="M1095.9,138c3.1,6.5,3.5,14,1.4,21c-0.4,1.4-0.9,2.8-1.5,4.2c-3,6.7-9.7,7.7-15.2,2.8
		c-7.5-6.8-9.4-23.8-3.5-32c3.8-5.2,13-4.9,17.2,1.3C1094.9,136.1,1095.4,137,1095.9,138z"/>
	<path class="st0" d="M1008,95.7c-5.8-0.4-11.7-0.7-17.6-1.1c0.1-7.9,5.5-13.9,10.9-13.2C1006.2,82,1009.2,87.8,1008,95.7z"/>
	<path class="st0" d="M403.5,113c-6.1,0.3-11.9,0.6-17.6,0.8c-1.2-7.1,3.2-13.7,8.6-14.3C399.6,99,403.4,104.1,403.5,113z"/>
</g>
</svg>
