<?xml version="1.0" encoding="utf-8"?>
<!-- Generator: Adobe Illustrator 19.0.0, SVG Export Plug-In . SVG Version: 6.00 Build 0)  -->
<svg version="1.1" id="Layer_1" xmlns="http://www.w3.org/2000/svg" xmlns:xlink="http://www.w3.org/1999/xlink" x="0px" y="0px"
	 viewBox="5 352.1 500 89.7" style="enable-background:new 5 352.1 500 89.7;" xml:space="preserve">
<style type="text/css">
	.st0{fill:#FFFFFF;}
</style>
<g transform="matrix(1.35292 0 0 1.35292 8.06234 1.35089)">
	<path class="st0" d="M132,324.3l-2.7-37l-8.9,37l-10.3-0.1l14.7-63.8l14.5,0l2.7,36.4l8.4-36.4l11.5,0l-13.2,56.3l24.6-57.5H108
		l-14.6,66.3h51.5l0.5-1.3L132,324.3z"/>
	<g>
		<path class="st0" d="M12.4,259.3l-14.6,66.3h4.7l14.6-66.3H12.4z"/>
		<path class="st0" d="M28.4,259.3l-14.6,66.3h5.9l14.6-66.3H28.4z"/>
		<path class="st0" d="M44.2,259.3l-14.6,66.3h7l14.6-66.3H44.2z"/>
		<path class="st0" d="M60.1,259.3l-14.6,66.3h10.1l14.6-66.3H60.1z"/>
		<path class="st0" d="M75.7,259.3L61,325.6h12.1l14.6-66.3H75.7z"/>
	</g>
	<path class="st0" d="M91.8,259.3l-14.6,66.3h12.6l14.6-66.3H91.8z"/>
	<path class="st0" d="M232.3,324.4l-5.7-8.4l11.2-46.3l9.8-8.8l0.4-1.6H174l-0.5,1.3h16.3l-3.4,63.7l-11.6,0l0.6-11.2l-12.8,0
		l-5.1,11.1l-11,0l-0.5,1.3h86.3l0.3-1.2L232.3,324.4L232.3,324.4L232.3,324.4z M214.6,324.3l-20.1,0.1l-6.3-8.9l1.7-9l11.2,0.1
		l-0.8,5.4l13.6-0.1l3.4-13.3l-17.3-0.1l-5.8-8.7l4.9-20.2l10-9l20.8-0.1c0,0,3.9,6.2,5.8,8.7l-2.3,9.3l-11.4-0.1l0.9-5.3l-12.9,0.1
		l-3.3,13.1l15.9-0.1l7.2,8.1l-5.3,21.6L214.6,324.3z"/>
	<path class="st0" d="M176.4,281l-8.7,20.6h7.8L176.4,281z"/>
	<path class="st0" d="M145.4,324.3l-0.5,1.3h1l0.5-1.3L145.4,324.3z"/>
	<g>
		<path class="st0" d="M347.9,317.1c-0.2-0.1-0.6-0.2-1.1-0.2H346l-0.3,1.8h0.8c0.4,0,0.7-0.1,0.9-0.1c0.4-0.1,0.6-0.4,0.7-0.8
			C348.1,317.5,348.1,317.2,347.9,317.1L347.9,317.1z"/>
		<path class="st0" d="M248.2,259.3l-0.3,1.3l0.1-0.1l18.7,0l7.2,10l-3.3,13.3l-11.3,0.1l2.2-10.4l-13.4-0.1l-8.7,39.1l13,0
			l3.4-14.4l11.5,0l-4.7,18.4l-9.4,7.8l-19.2,0l-0.3,1.2h119.1l14.6-66.3H248.2z M325.6,324.4l4.9-22h-13.7l-4.8,22l-22.7,0
			l0.6-11.8h-12.2l-5.3,11.8l-11.5,0.1l26.8-63.9l16.7-0.1l-2.1,54.9l13.1-54.8l27.7,0l6.6,9.2l-4.9,19.9l-5.4,5.1l3.2,5.6l-5.5,24
			L325.6,324.4L325.6,324.4z"/>
		<path class="st0" d="M320.4,289.6l12.5,0l3.9-16.6h-12.3L320.4,289.6z"/>
		<path class="st0" d="M347.4,314.8c-1.1,0-2.1,0.4-3.1,1.2c-0.9,0.8-1.4,1.7-1.7,2.9c-0.2,1.1,0,2.1,0.7,2.9
			c0.6,0.8,1.5,1.2,2.6,1.2s2.1-0.4,3.1-1.2c0.9-0.8,1.5-1.7,1.7-2.9c0.2-1.1,0-2.1-0.7-2.9C349.4,315.3,348.5,314.8,347.4,314.8
			L347.4,314.8z M349,317.8c-0.1,0.4-0.3,0.8-0.7,1c-0.2,0.1-0.5,0.2-0.8,0.2c0.4,0.1,0.7,0.2,0.8,0.5c0.1,0.3,0.2,0.5,0.1,0.8
			l-0.1,0.4c0,0.1,0,0.2,0,0.4c0,0.1,0,0.2,0,0.3l0,0h-0.8v0v-0.1v-0.1l0.1-0.4c0.1-0.6,0-1-0.3-1.2c-0.2-0.1-0.5-0.1-1-0.1h-0.7
			l-0.3,2h-0.9l0.9-5.1h1.8c0.6,0,1.1,0.1,1.4,0.2C348.9,316.7,349.1,317.2,349,317.8L349,317.8z"/>
		<path class="st0" d="M290.2,301.6L291,281l-8.7,20.6H290.2z"/>
		<path class="st0" d="M247.9,260.6l0.3-1.3H248l-0.4,1.6L247.9,260.6z"/>
		<path class="st0" d="M232.5,324.4l-0.3,1.2h1.3l0.3-1.2L232.5,324.4z"/>
	</g>
</g>
</svg>
