<?xml version="1.0" encoding="utf-8"?>
<!-- Generator: Adobe Illustrator 19.0.0, SVG Export Plug-In . SVG Version: 6.00 Build 0)  -->
<svg version="1.1" id="Layer_1" xmlns="http://www.w3.org/2000/svg" xmlns:xlink="http://www.w3.org/1999/xlink" x="0px" y="0px"
	 viewBox="1286.3 -743.7 1804.9 2279.4" style="enable-background:new 1286.3 -743.7 1804.9 2279.4;" xml:space="preserve">
<style type="text/css">
	.st0{fill:#FFFFFF;}
</style>
<g>
	<path class="st0" d="M2051.5,1077.5c0,15.1,0,51.2-23.3,62.8c-23.3,11.6-27.9,26.7-25.6,36c2.3,9.3,12.8,19.8,31.4,25.6
		c18.6,5.8,53.5,17.5,157,93c18.6,11.6,37.2,4.6,43-2.3c5.8-7,8.2-26.7-7-44.2c-16.5-19-33.7-48.8-33.7-93V721.6h105.8
		c25.6,0,51.2,7,59.3,51.2c7,29.1,47.7,33.7,47.7,2.3V541.4c0-25.6-45.4-23.3-51.2,2.3c-5.8,25.6-7,71-41.9,71h-119.8V379.7h130.2
		c19.8,0,39.5,7,51.2,23.3c11.6,16.3,47.7,59.3,72.1,48.8c11.6-4.6,17.4-16.3,11.6-38.4l-54.7-147.7h-375.6
		c-23.3,0-34.9,8.1-37.2,18.6c-2.3,10.5,4.7,30.2,20.9,38.4c16.3,8.1,39.5,24.4,39.5,61.6V1077.5z"/>
	<path class="st0" d="M2519,978.6c0,16.3,0,55.8-23.3,74.4c-23.3,18.6-80.3,72.1-55.8,104.6c9.3,12.8,34.9,9.3,67.5-2.3
		c32.6-11.6,127.9-15.1,162.8-14c34.9,1.2,200,31.4,265.2-164c43-134.9-17.5-294.2-138.4-296.6c-68.6-1.2-102.3,33.7-108.2,83.7
		c-5.8,50,34.9,124.4,122.1,110.5c24.4-4.6,30.2,3.5,30.2,23.3c0,19.8-7,139.6-120.9,139.6c-18.6,0-46.5,1.2-59.3,1.2V400.6
		c0-30.2,36-72.1,60.5-88.4c18.6-11.6,17.4-46.5-4.7-46.5h-248.9c-16.3,0-32.6,18.6-9.3,43c23.3,24.4,60.5,43,60.5,96.5V978.6
		L2519,978.6z M1450.3,265.7c-17.4,0-34.9,8.1-38.4,23.3c-2.9,12.7,0,32.6,18.6,40.7c18.6,8.1,46.5,24.4,46.5,67.5v518.7
		c0,19.8-2.3,47.7-29.1,44.2c-26.7-3.5-33.7,9.3-34.9,17.4c-1.2,8.2,3.5,62.8,80.2,112.8c25.6,16.3,97.7,64,126.8,40.7
		c14-10.5-1.2-60.5-15.1-76.7c-14-16.3-23.3-36.1-23.3-64v-407l200,522.2c14,34.9,58.1,68.6,90.7,58.1c32.6-10.5,37.2-36,37.2-57
		V384.4c0-20.9,1.2-39.5,41.9-61.6c20.9-9.3,29.1-57-8.1-57h-208.2c-24.4,0-40.7,30.2-17.4,48.8c23.3,18.6,70.9,41.9,70.9,80.3
		v336.1l-155.9-405.9c-12.8-31.4-34.9-59.3-59.3-59.3L1450.3,265.7L1450.3,265.7L1450.3,265.7z"/>
	<path class="st0" d="M2080.3-28c5.1-2.1,7.6-7.9,5.6-13.1L2071-77.8c-2.1-5.1-7.9-7.6-13.1-5.6c0,0,0,0,0,0l-2.2,0.6
		c-5.1,2.1-7.6,7.9-5.6,13.1L2065-33c2.1,5.1,7.9,7.6,13.1,5.6L2080.3-28L2080.3-28z M2115.8-42c5.1-2.1,7.6-7.9,5.6-13.1
		c0,0,0,0,0,0l-14.8-36.7c-2.1-5.1-7.9-7.6-13.1-5.6l-2.3,0.6c-5.1,2.1-7.6,7.9-5.6,13.1c0,0,0,0,0,0l14.8,36.7
		c2.1,5.1,7.9,7.6,13.1,5.6c0,0,0,0,0,0L2115.8-42L2115.8-42z M2151.2-55.9c5.1-2.1,7.6-7.9,5.6-13.1l-14.8-36.7
		c-2.1-5.1-7.9-7.6-13.1-5.6l-2.2,0.6c-5.1,2.1-7.6,7.9-5.6,13.1c0,0,0,0,0,0l14.8,36.7c2.1,5.1,7.9,7.6,13.1,5.6L2151.2-55.9
		L2151.2-55.9z M2186.7-69.9c5.1-2.1,7.6-7.9,5.6-13.1l-14.8-36.7c-2.1-5.1-7.9-7.6-13.1-5.6l-2.2,0.6c-5.1,2.1-7.6,7.9-5.6,13.1
		c0,0,0,0,0,0l14.8,36.7c2.1,5.1,7.9,7.6,13.1,5.6L2186.7-69.9L2186.7-69.9z M2222.2-83.8c5.2-2.1,7.7-7.9,5.6-13.1c0,0,0,0,0,0
		l-14.9-36.7c-2.1-5.1-7.9-7.6-13.1-5.6l-2.2,0.6c-5.1,2.1-7.6,7.9-5.6,13.1c0,0,0,0,0,0l14.9,36.7c2.1,5.1,7.9,7.6,13.1,5.6
		L2222.2-83.8z M2257.6-97.8c5.1-2.1,7.6-7.9,5.6-13.1l-14.9-36.7c-2.1-5.1-7.9-7.6-13.1-5.6l-2.3,0.6c-5.1,2.1-7.6,7.9-5.6,13.1
		l14.9,36.7c2.1,5.1,7.9,7.6,13.1,5.6c0,0,0,0,0,0L2257.6-97.8z M2293.1-111.7c5.1-2.1,7.6-7.9,5.6-13.1l-14.8-36.7
		c-2.1-5.1-7.9-7.6-13.1-5.6l-2.2,0.6c-5.2,2.1-7.7,7.9-5.6,13.1c0,0,0,0,0,0l14.9,36.7c2.1,5.1,7.9,7.6,13.1,5.6c0,0,0,0,0,0
		L2293.1-111.7L2293.1-111.7z M2328.6-125.7c5.1-2.1,7.6-7.9,5.6-13c0,0,0,0,0-0.1l-14.8-36.7c-2.1-5.1-7.9-7.6-13.1-5.6l-2.3,0.6
		c-5.1,2.1-7.6,7.9-5.6,13.1l14.8,36.7c2.1,5.1,7.9,7.6,13.1,5.6c0,0,0,0,0,0L2328.6-125.7L2328.6-125.7z"/>
	<path class="st0" d="M2188.7-743.7L2188.7-743.7c-104.7,241.9-537.3,432.6-902.5,176.8v1588.6c0,248.9,207,286.1,316.3,286.1
		c381.4,0,518.7,158.1,583.8,227.9c65.1-69.8,207-227.9,588.5-227.9c109.3,0,316.3-37.2,316.3-286.1V-566.9
		C2726-311.1,2293.4-501.8,2188.7-743.7z M2717.5-340.6l19.4-59.7l19.5,59.7h63.3l-51.2,37.1l19.5,59.8l-50.8-37l-51.1,37.1l19.5-60
		l-51.1-37.1H2717.5z M2717.5-138.2l19.4-59.7l19.5,59.7h63.3l0,0h0h0l-51.2,37.1l19.5,59.8l-50.8-37L2686-41.2l19.5-60l-51.1-37.1
		H2717.5z M2717.5,61.8L2737,2.1l19.5,59.7h63.3l-51.2,37.1l19.5,59.8l-50.8-37l-51.1,37.1l19.5-60l-51.1-37.1H2717.5z
		 M2571.6,158.7l-50.8-37l-51.1,37.1l19.5-60l-51.1-37.1h63.1l19.5-59.7l19.5,59.7h63.3l-51.2,37.1L2571.6,158.7z M2571.6-41.3
		l-50.8-37l-51.1,37.1l6.3-21.6c27.9-43,45.9-81.4,51.6-113.7l12.6,38.3h63.3l-51.2,37.1L2571.6-41.3z M2501.2-340.6l19.5-59.7
		l19.5,59.7h63.3l-51.2,37.1l19.5,59.8l-50.8-37l-10.7,7.1l0,0c-7.8-5.7-16.2-12.1-24.1-16.9l3.3-13.1l-51.1-37.1H2501.2z
		 M2304.4-400.2l21.2,60.3c-13.8-1.1-27.6-1.6-41.4-1.5L2304.4-400.2z M2174.6-540.6l19.4-59.7l19.4,59.7h63.1l-51.1,37.1l19.5,60
		l-51-37.1l-50.8,37l19.4-59.8l-51.2-37.1H2174.6z M2053.7-340.6l19.5-59.7l19.4,59.7h63.1l-49.9,34.7c-36.4,13.2-64.1,27.6-74,33.5
		l9.9-31.1l-51.2-37.1H2053.7z M2112-282c195.4-80.2,365.2,1.2,387.3,36.1l-160.5,65.7l10.5,26.7L2512-218
		C2494.6-87.8,2406.6,0,2274.8,69.2c-137.2,72.1-331.4,54.7-396.6-32.6l164-66.3l-11.6-27.9L1865.4,8.7
		C1861.9-57.5,1932.9-218,2112-282z M2355.3,158.7l-50.8-37l-51.1,37.1l19.5-60l-0.2-1.5c19.5-8.8,38.3-19.2,56.2-31
		c1-0.6,5.5-4.2,6.5-4.9l51.7,0.4L2335.8,99L2355.3,158.7z M2124.1,158.9l-29.4-20.5c6.3-0.4,17.4-0.9,23.6-1.5L2124.1,158.9z
		 M2052.1,138.6L2052.1,138.6C2052.1,138.6,2052.1,138.6,2052.1,138.6l-29.9,20.1l7.2-22.2C2037.2,137.2,2044.3,138.3,2052.1,138.6
		L2052.1,138.6z M1774.1-138.2h63.3l19.5-59.7l19.4,59.7l13,0.6c-13.2,20.3-23.2,41.2-30.8,59.9l-52.6,36.4l19.4-59.8L1774.1-138.2z
		 M1837.4-340.6l19.5-59.7l19.4,59.7h63.1l-51.1,37.1l19.5,60l-51.1-37.1l-50.8,37l19.4-59.8l-51.2-37.1H1837.4z M1837.4,61.8
		l7.1-25.2c11.6,27.9,32.6,40.7,54.1,55v0l-10.3,7.3l19.5,60l-51.1-37.1l-50.8,37l19.4-59.8l-51.2-37.1H1837.4z M1621.1-340.6
		l19.5-59.7l19.4,59.7h63.1l-51.1,37.1l19.5,60l-51.1-37.1l-50.8,37l19.4-59.8l-51.2-37.1H1621.1z M1557.8-138.2L1557.8-138.2h63.3
		l19.5-59.7l19.4,59.7h63.1l-51.1,37.1l19.5,60l-51.1-37.1l-50.8,37l19.4-59.8L1557.8-138.2L1557.8-138.2L1557.8-138.2z
		 M1621.1,61.8l19.5-59.7l19.4,59.7h63.1L1672,98.9l19.5,60l-51.1-37.1l-50.8,37l19.4-59.8l-51.2-37.1H1621.1z M1404.8-340.6
		l19.4-59.7l19.5,59.7h63.1l-51.1,37.1l19.5,60l-51.1-37.1l-50.8,37l19.5-59.8l-51.2-37.1H1404.8z M1341.5-138.2L1341.5-138.2h63.3
		l19.4-59.7l19.5,59.7h63.1l-51.1,37.1l19.5,60l-51.1-37.1l-50.8,37l19.5-59.8L1341.5-138.2L1341.5-138.2L1341.5-138.2z
		 M1341.5,61.8h63.3l19.4-59.7l19.5,59.7h63.1l-51.1,37.1l19.5,60l-51.1-37.1l-50.8,37l19.5-59.8L1341.5,61.8z M3002.8,1000.8
		c0,169.8-90.7,218.6-255.9,218.6c-321,2.3-481.5,114-558.2,186.1c-76.8-72.1-237.2-183.7-558.2-186.1
		c-165.1,0-255.9-48.9-255.9-218.6V214.6h1628.2V1000.8z M2984.7,98.9l19.5,59.8l-50.8-37l-51.1,37.1l19.5-60l-51.1-37.1h63.1
		l19.4-59.7l19.5,59.7h63.3L2984.7,98.9z M3036-138.2L3036-138.2l-51.2,37.1l19.5,59.8l-50.8-37l-51.1,37.1l19.5-60l-51.1-37.1h63.1
		l19.4-59.7l19.5,59.7H3036L3036-138.2L3036-138.2z M2984.7-303.4l19.5,59.8l-50.8-37l-51.1,37.1l19.5-60l-51.1-37.1h63.1l19.4-59.7
		l19.5,59.7h63.3L2984.7-303.4z"/>
</g>
</svg>
