<?xml version="1.0" encoding="utf-8"?>
<!-- Generator: Adobe Illustrator 19.0.0, SVG Export Plug-In . SVG Version: 6.00 Build 0)  -->
<svg version="1.1" id="Layer_1" xmlns="http://www.w3.org/2000/svg" xmlns:xlink="http://www.w3.org/1999/xlink" x="0px" y="0px"
	 viewBox="0 0 1026.1 356.6" style="enable-background:new 0 0 1026.1 356.6;" xml:space="preserve">
<style type="text/css">
	.st0{fill:#FFFFFF;}
</style>
<g>
	<path class="st0" d="M441.9,122.8c0,2.8,0,4.9,0,7.1c0.2,58.3,0.3,116.7,0.5,175c0,4.8,0.1,9.8,1.2,14.4c1,4.6,2.7,9.4,5.3,13.3
		c5.8,8.7,13.5,15.6,23.1,20c0.8,0.3,1.5,0.7,2.2,1.2c0.2,0.2,0.4,0.5,1.1,1.6c-79.7,0.8-158.9,0.4-238-0.4
		c-0.1-0.4-0.1-0.8-0.2-1.2c1.1-0.6,2.2-1.3,3.3-1.8c14.6-6.1,22.5-18.2,28.5-31.9c0.6-1.3,0.5-2.9,0.5-4.4
		c0.3-29.8,0.5-59.7,0.9-89.5c0.1-4.1-1.3-6.7-4.3-9.3c-44-38.1-87.8-76.3-131.7-114.4C112.6,83.4,91,64.7,69.4,45.9
		c-1-0.9-2-1.7-3.5-2.9c-0.2,1.1-0.5,1.8-0.5,2.5c-0.1,85.5-0.1,171-0.1,256.5c0,4.8,0.5,9.6,0.7,14.5c0.3,11.2,6.3,19.5,14.1,26.5
		c4.9,4.4,10.7,7.8,15.9,11.4c-4,1.7-75.2,2.4-95.9,0.6c2.1-1.1,3.5-1.8,4.9-2.5c13.1-6.6,22.5-16.5,27.1-30.5
		c1.4-4.4,2.1-9.1,2.3-13.7c0.5-16.5,0.8-33,0.7-49.5c-0.1-70.2-0.1-140.3-0.7-210.5C34.1,29,24.9,14.2,7.5,5.1
		c-2-1-3.9-2.2-6.3-3.5c7.4-2.1,90-2.1,96.9,0c-1.9,1-3.5,1.8-6,3.1c2.4,2.7,4.2,5.2,6.5,7.2c16.8,14.9,33.7,29.8,50.7,44.6
		c36.8,32,73.8,64,110.7,95.9c2.6,2.3,5.3,4.4,8.8,7.3c0.3-2.4,0.6-4,0.6-5.5c0-38.3,0.1-76.7,0-115c0-1.4-0.4-3-1-4.3
		c-6.1-14.1-14.7-25.7-29.5-31.6c-1-0.4-1.8-1.2-2.5-2.7c42.2,0,84.3,0,127.8,0c-3.1,1.8-5.2,3-7.3,4.2c-12,6.6-20.3,16.5-25.5,29.1
		c-0.7,1.6-0.9,3.5-0.9,5.3c0,92.5,0,185,0,277.5c0,2.4,0.8,4.9,1.7,7.1c5.6,13.3,15,23,28.1,29.4c10.6-4.5,19.3-11.5,24.8-21.9
		c2-3.7,3.9-7.4,5.6-11.2c0.8-1.8,1.2-3.8,1.2-5.8c0.1-48.8,0.1-97.7,0-146.5c0-1.3,0-2.7-0.5-3.9c-5.9-15.6-15.5-27.4-32.1-32.4
		c-0.3-0.1-0.5-0.4-1.6-1.2c2.2-0.7,3.9-1.6,5.6-1.7c16.9-1.5,33.9-2.9,50.8-4.3c7-0.6,13.9-1.1,20.9-1.6
		C437.1,122.7,439.1,122.8,441.9,122.8z"/>
	<path class="st0" d="M1018.5,350.2c-10.5-6.2-18.8-14.2-22.4-26.3c-2.7-9.1-5.9-18-8.8-27.1c-9.4-29.9-20.1-59.4-36.8-86.1
		c-12.6-20.2-26.6-39.5-39.9-59.2c-1.6-2.4-3.3-4.9-5.2-7.7c2.3-1.3,3.9-2.4,5.7-3.3c9.2-4.7,18.5-9.2,27.6-14.1
		c15.1-8.1,29.1-17.5,39.6-31.4c11.4-15.2,17.4-31.6,13.4-50.9c-1.6-7.5-5.1-13.6-10.6-18.8c-10-9.4-21.7-16-34.5-20.7
		c-5.1-1.9-10.6-3.9-15.9-3.9c-78.5-0.2-157-0.2-235.5-0.1c-1.8,0-3.5,0.3-6.4,0.5c5.6,3.4,10.3,5.6,14.3,8.8
		c9.3,7.4,16.9,16.2,18.3,28.7c0.6,5.6,1.1,11.3,1.1,16.9c0.3,63.2,0.6,126.3,0.8,189.5c0,20.8-0.4,41.7-0.8,62.5
		c-0.4,20.6-10.3,35.3-28.8,44.3c-1.2,0.6-2.4,1.3-3.5,2c0.1,0.4,0.2,0.8,0.3,1.2c42,0,84,0,127,0c-2.4-1.4-3.9-2.4-5.5-3.1
		c-12.1-5.8-20.8-14.8-26-27.2c-1.2-2.8-2-6-2-9.1c-0.1-41-0.1-82-0.1-123c0-1.8,0-3.6,0-5.1c10.7-5,73.9-26.5,81.9-27.9
		c0.8,0.9,1.7,1.9,2.5,2.9c15.3,22.3,29.9,44.9,42.4,68.8c16.7,31.8,24.4,65.7,24.8,101.4c0,1.8-0.4,4.3-1.6,5.3
		c-6.4,5-13.2,9.5-19.8,14.2c-0.8,0.6-1.8,1.1-3.1,1.9c9.8,2,109.7,2.1,115.3,0.2C1023.4,352.9,1020.9,351.6,1018.5,350.2z
		 M847.8,127.7c-18.8,7.1-37.9,13.4-56.9,20c-2.2,0.8-4.4,1.3-7.2,2.1c-0.1-2.2-0.3-3.5-0.3-4.8c0-31.8-0.1-63.6,0-95.4
		c0-4,0.6-8,0.9-11.9c0.5-6.7,4.3-10.9,10.6-12.2c9.3-1.9,18.6-3.9,28-4.6c15.2-1.2,30.6-2.2,45.9-2c12.1,0.2,24.2,2.1,36.2,3.8
		c14,2,21.1,12,24,24.3c3.3,14,3.1,28.1-5.5,40.8c-5.5,8.2-12.9,14.1-21.6,17.9C884,113.5,866,120.9,847.8,127.7z"/>
	<path class="st0" d="M695.3,270.1c-0.8-0.4-2.5,0.2-3.3,1c-1.2,1.1-1.9,2.7-2.7,4.1c-2.7,5.1-4.8,10.7-8.2,15.4
		c-10.6,14.8-23.5,27.1-40.8,34.1c-12,4.8-24.2,8.4-37.1,9.3c-10.8,0.8-21.8,1.1-31.9-3.7c-24.2-11.5-41.2-30-52.1-54.2
		c-0.3-0.7-0.4-1.5-0.8-2.9c58.3-19.4,116.3-38.8,174.9-58.3c-0.5-3.1-0.8-6.1-1.6-8.9c-4.3-15.5-11.9-29.3-22.1-41.5
		c-22-26.4-50.1-41.7-84.8-43.6c-9.8-0.5-19.9-0.8-29.4,1.1c-33.2,6.3-60.5,23-78.7,51.8c-24.5,38.7-27,79.5-5.1,120.3
		c14.3,26.7,36.7,44.9,65.2,55.2c14.7,5.3,30.3,6.2,45.7,7.1c21.9,1.2,43.5-1.1,65-5.4c10.1-2,20.4-2.8,31-4.3
		c0.2-0.6,0.6-1.9,0.9-3.1c4.6-18.7,9.2-37.4,13.8-56.2c1.1-4.7,2.3-9.3,3.3-14.1C696.8,272.3,696.1,270.5,695.3,270.1z
		 M506.7,235.4c-2.4-20.3-1.7-40.3,6.8-59.2c7.5-16.9,18.6-30.5,38.1-34c13.1-2.4,25.8-0.3,37.7,6.2c21,11.6,35.1,29.5,46,50.6
		c-7.9,5.1-115.7,41-127.1,42.4C507.6,239.4,506.9,237.4,506.7,235.4z"/>
	<path class="st0" d="M469.7,65.9c3.4-0.9,4.1-2.8,4.1-5.7c0-3.3-0.9-5.5-4.4-6.9c-5.1-2.1-5.5-5.2-1.5-9c2-1.9,3.1-3.7,1.9-6.5
		c-1.3-3-2.7-5.4-6.7-5.5c-6.3-0.2-7.3-2-5-7.8c0.9-2.2,1.3-4.2-0.6-5.9c-2.1-1.8-4-3.8-7.4-2.8c-7.3,2.2-8.7,1.1-8.8-6.1
		c0-4.1-3.3-4.5-5.8-5.9c-2.3-1.3-3.8-0.4-5.5,1.6c-3.6,4.3-7.2,3.8-9.6-1.2c-1.4-2.9-3.2-3.9-6.2-3.9c-3.1,0-5.2,0.9-6.8,3.9
		c-2.6,5.1-5.7,5.5-9.6,1.2c-2.2-2.4-4.3-2.1-6.7-1c-2.4,1.1-4.8,1.8-4.7,5.5c0.2,6.2-2.2,8-7.9,6c-2.8-1-4.7-0.4-6.7,1.6
		c-2.1,2.1-2.9,4-1.9,7.1c1.8,5.5-0.2,8-6.3,7.9c-2.2,0-3.4,0.8-4.4,2.6c-1.9,3.4-2,6.3,0.6,9.6c2.7,3.5,2.3,6.6-0.9,7.9
		c-5.9,2.4-5.5,6.7-4.5,11.8c1.6,0.6,3.3,1.2,5,2c3,1.4,3.8,4.1,2,7c-0.6,1-1.5,1.8-2.4,2.6c-2.2,1.8-2.1,3.7-0.9,6.2
		c1.6,3.2,4.3,4.3,7.5,5.1c4.7,1.2,5.6,3,4.2,7.6c-0.2,0.8-0.7,1.5-0.8,2.3c-0.5,3.4,4.3,8,7.6,7.4c7.7-1.4,7.6-1.4,10.2,5.6
		c0.4,1.1,1,2.1,1.7,3c3.2,3.6,6.8,3.5,10-0.1c3-3.4,6-3.2,8.4,0.6c0.7,1.1,1.1,2.4,1.8,3.5c2.2,3.5,7.2,3.7,9.7,0.4
		c0.8-1.1,1.3-2.3,2-3.5c2.9-4.4,5.6-4.9,9-0.8c2.7,3.3,5.4,2.1,8.5,1.1c3.1-1,3.3-3.2,3-6c-0.5-5.8,2.7-7.9,7.9-5.1
		c2.6,1.4,4.4,1.6,6.6-0.6c2.2-2.3,4.3-4.3,2.2-7.7c-0.4-0.7-0.7-1.5-0.9-2.3c-1-3.3-0.4-4.6,2.9-5.6c1.1-0.3,2.3-0.6,3.4-0.6
		c3.9,0.1,5.3-2.7,6.8-5.7c1.5-3-1-4.2-2.5-5.8C463.7,71,464.4,67.2,469.7,65.9z M388.6,28.6c5.8-6,13.4-8.3,21.5-9.2c1-0.1,2,0,3,0
		c8.5-0.1,16.5,1.9,23.6,6.5c7.4,4.8,7.4,11.3,0.2,16.3c-2.1,1.4-4.2,2.7-6.3,4c-3.4,2-6.5,3.2-10.6,0.8c-4.1-2.4-9.1-1.8-13.5,0.3
		c-2.8,1.4-5.4,1.4-8-0.4c-3.2-2.1-6.6-3.9-9.5-6.3C384.6,36.8,384.5,32.8,388.6,28.6z M409.3,92.6c-0.6,4.3-2.8,6.1-7.2,5.9
		c-2.1-0.1-4.3-0.6-6.2-1.5c-14.8-7.4-24.3-25-22.6-41.4c0.5-4.7,3.3-7.6,7.2-9.4c1.3-0.6,3.3-0.2,4.7,0.4c3.4,1.7,7,3.4,9.8,5.8
		c2,1.7,3.5,4.4,4.1,7c1.2,5.2,3,9.8,7.8,12.7c1.2,0.7,2.1,2.5,2.4,4c0.5,2.4,0.4,5,0.6,7.6C409.9,86.6,409.8,89.6,409.3,92.6z
		 M407.3,59.1c0-3,3.4-5.6,6.4-5.6c3,0,6.5,2.6,6.5,5.6c0,2.9-2.1,6.3-6.3,6.3C410,65.4,407.3,62.3,407.3,59.1z M454.9,63.4
		c-2.2,13.9-8.2,25.1-20.6,32.3c-2,1.1-4.2,2.1-6.4,2.6c-5.8,1.4-9.4-1-10.4-6.8c-0.6-3.4-0.6-6.9-0.9-10.4
		c-0.3-4.2,1.2-7.2,4.7-9.8c4.2-3.2,6.9-7.4,7.3-13c0.1-1.9,1.8-4.4,3.5-5.5c4.4-2.9,9.2-5.2,13.7-7.7
		C454.2,49.2,456.2,55.1,454.9,63.4z"/>
</g>
</svg>
