<?xml version="1.0" encoding="utf-8"?>
<!-- Generator: Adobe Illustrator 19.0.0, SVG Export Plug-In . SVG Version: 6.00 Build 0)  -->
<svg version="1.1" id="Layer_1" xmlns="http://www.w3.org/2000/svg" xmlns:xlink="http://www.w3.org/1999/xlink" x="0px" y="0px"
	 viewBox="-53 239.1 475.2 315.9" style="enable-background:new -53 239.1 475.2 315.9;" xml:space="preserve">
<style type="text/css">
	.st0{fill:#FFFFFF;}
</style>
<g>
	<g>
		<path class="st0" d="M217.8,272c0.1,0.1,0.1,0.3,0.2,0.4C217.9,272.3,217.9,272.1,217.8,272z M216.4,273.5
			c0.1,0.1,0.1,0.3,0.2,0.4h-0.4L216.4,273.5z M198.4,275.5l0.2,0.4L198.4,275.5z M208.7,275.7h0.4
			C208.8,275.9,209.1,275.9,208.7,275.7z M208.1,276.5l0.2,0.4h-0.4L208.1,276.5z M213.1,276.5l0.2,0.4L213.1,276.5z M212.6,276.9
			h0.4C212.7,277.2,213,277.1,212.6,276.9z M207.5,277.2c-0.1,0.5-0.2,0.8-0.8,1.2L207.5,277.2z M212,277.6
			c-0.1,0.4,0.1,0.4-0.4,0.8L212,277.6z M215.5,278h0.6l-0.8,0.6L215.5,278z M218.8,278.2l0.2,0.4h-0.4L218.8,278.2z M202.1,278.4
			l0.2,0.6l-1.9,2.3h-0.2l0.6-0.8L202.1,278.4z M206.3,278.4h0.4l-1.4,1.7C205.6,279.5,205.9,278.9,206.3,278.4z M213.5,278.6
			l0.2,0.4L213.5,278.6z M204.8,280.3c0.3,0.6-0.8,1.4-1.4,1.8l0.6-0.8L204.8,280.3z M216.8,282.9c0.4,0.5,0,0.3-0.4,0.6
			C216.5,283.3,216.6,283.1,216.8,282.9z M213.5,283.5c0.1,0.1,0.1,0.3,0.2,0.4h-0.4L213.5,283.5z M216.1,283.5
			c0.4,0.5,0,0.3-0.4,0.6L216.1,283.5z M215.3,284.4c0.5,0.7,0,0.6-0.6,0.8L215.3,284.4z M200.5,284.8c-0.1,0.4,0.1,0.4-0.4,0.8
			C200.2,285.3,200.4,285.1,200.5,284.8z M199.5,286l0.2,0.4h-0.4L199.5,286z M193.5,286.4l0.2,0.4h-0.4
			C193.4,286.7,193.4,286.5,193.5,286.4z M195.6,287.6c0.2,0.6-0.5,1.5-1,2.1l-0.4-0.4L195.6,287.6z M208.1,287.6h0.4
			C208.2,287.8,208.5,287.8,208.1,287.6z M207.7,288.1c0.4,0.5,0.1,0,0.2,0.6l-0.4-0.2L207.7,288.1z M193.5,289.9l0.6,0.2l-0.4,0.6
			L193.5,289.9z M205.6,289.9l0.4,0.2L205.6,289.9z M189.2,292.8l0.2,0.4L189.2,292.8z M188.8,293.4l0.2,0.4h-0.4L188.8,293.4z
			 M209.8,293.4l0.4,0.4l-1,0.8C209.4,294.2,209.6,293.8,209.8,293.4z M185.1,296.5h0.4c-0.1,0.1-0.3,0.3-0.4,0.4V296.5z
			 M206.5,296.5c-0.7,1.4-0.5,1.1-1.6,1.8l0.2,0.4c0.8-0.2,0.1-0.3,0.8,0c1.1-0.5,1-0.9,1.4-2.1L206.5,296.5z M82.2,300l1,0.2v0.2
			C82.4,300.3,82.6,300.4,82.2,300z M92.7,300.6c-0.1,0.2,0.2,0.1-0.2,0.4C92.6,300.9,92.6,300.8,92.7,300.6z M90.4,300.8h0.4
			l-0.6,0.4L90.4,300.8z M88.8,301H90l-0.2,0.4C89,301.3,89.2,301.4,88.8,301L88.8,301z M87.6,301.2l0.2,0.4
			C87.7,301.4,87.9,301.5,87.6,301.2z M14.8,301.8c0.4,0.4,0,0.1,0.6,0.4L14.8,301.8z M95,301.8l0.6,0.2v0.2
			C95,302.1,94.6,302.4,95,301.8z M15.8,302.1c0.4,0.4,0,0.1,0.6,0.4L15.8,302.1z M92.1,302.1h2.1v0.2h-0.4
			C93.2,302.6,92.5,302.5,92.1,302.1z M17.4,302.3c0.4,0.5,0.7,0.5,1.4,0.6l0.2-0.4L17.4,302.3z M208.3,302.9l0.2,0.6h-0.2V302.9z
			 M106.7,304.3l0.8,0.6c0.1-0.6-0.2-0.1,0.2-0.6l0.2,0.8l-0.6,0.2C106.9,304.9,106.9,305.1,106.7,304.3L106.7,304.3z M-9.3,305.3
			l0.2,0.4h-0.4L-9.3,305.3z M106.3,309.7h0.6l-0.6,0.8h-0.2l-0.2-0.6L106.3,309.7z M104.4,309.9c0.1,0.6,0,0.5-0.2,1l-0.2-0.2h-1
			v-0.6L104.4,309.9z M104.9,309.9c0.6,0.3,0.3,0,0.6,0.4h-0.2L104.9,309.9z M101.8,310.5h0.4l-0.4,0.4V310.5z M100.9,311.9h0.4
			l-0.4,0.4V311.9z M100.9,312.8l0.2,0.4L100.9,312.8z M94.4,314H95c-0.3,0.6-0.3,0.1-0.2,0.8C94.3,314.4,94.6,314.7,94.4,314z
			 M92.3,314.2h0.6c-0.1,0.1-0.3,0.3-0.4,0.4L92.3,314.2z M92.9,314.8h0.8c-0.1,0.1-0.1,0.3-0.2,0.4L92.9,314.8z M418.6,482.5
			l1.4,0.4c-1.1,3.4-2.2,4.7-2,9.1c-2.1,1.8-4.4,4.6-7.2,5.5c-1.6,0.5-6-2.1-7-0.2c-2.4-1.3-5.2-0.1-9,0.8c0.2,0.9,0.3,0.6,0.6,1.2
			c-2.8,0.3-5.5,0.7-8.2,1.4c-0.3,1.7-0.8,3.3-1.4,4.9c-4.5,0.1-8.9-1.4-11.5-4.7l0.4-0.4c-3.9,0.4-9.4-3.6-14-3.7
			c-0.1-3.2-5.3-6.5-6.6-9.9c-1.8-4.7,2-7.3,4.1-10.7c0.8-1.3,0.1-2.4,0.4-3.7c0.3-1.5,2.5-3.8,3.5-4.7c0.4-0.4,13.9-3.5,15.2-3.9
			c0.9-6.4,0-13.3,0.8-19.8l0.4,0.6c-0.9-5.4,0.8-10.5,0.4-17.3l0.4,0.2c0.1,3,0.3,5.9,0.4,8.9l0.4-0.6c0.1-1.3,0.1-2.6,0.2-3.9
			l0.4,0.2l0.2,1c0.9-0.5,0.9-0.1,1.2-0.4c0.9-2.1-0.6-9.4-1-11.9c-0.9-5.2-2.4-18.2-1.6-20.8h-0.6l0.6-0.6c-2-2.8,0.4-9.3-1.2-11.7
			H378c-0.1,2.4-0.4,2.8,0,4.9l-0.4-0.2c0-2.1,0.3-9.5-1-10.3c0.4,1.5,0.2,5.3-0.6,6.4c0.3-7.3,0.7-14.5,1-21.8
			c-1.3-7.3-2.3-10-4.7-14.8c-4.6-0.2-10.6-2.9-13.8-4.9c-0.4-0.3-3.3,0.1-4.1-0.4c-0.1-2.6-2.4-3.5-3.5-5.1
			c-0.8-1.2-2.3-8.8-1-10.3c0.5-0.3,0.7,0,1.6-0.2c3.8-9.5,14.9-12.5,24.7-8.9l8,0.6c1,0.3,13.8,1,13.8,1c0.6-0.2,0.4-1.4,1.6-1
			c1.8,0.5,3.5,1.8,5.1,2.3c2.5,0.7,4.2,0.2,6.2,1.6c0.5,0.3,2.8,3.9,2.5,3.9c2.8,2.2,8.1,9.4,2.9,14.2c-2.3,2-6.9,2-9.7,3.1
			c-0.9,0.4-0.7,1.4-2,1.6c0.1,1.2,0.1,0.8,0.6,1c0.5,0.9,0.5,0.1,1.2,0.6c-0.1,1,0.4,1.2,0.8,2.3H407c-2.2-1.4-11-4-13.8-1.9
			c-0.4,0.4-0.1,0-0.4,0.6c0.4,0,0.9,0.1,1.2,0.4v0.2h-1.2c-1.2,0.1-2.4,0.5-3.5,1v0.6l0.8,0.2l0.2-0.4c-0.5,2.4-2.2,3.5-2.9,5.6
			c0.8,0.8-0.2,3.8-0.4,5.8c-0.4,3.8-1.6,10.6-2.7,16.3c-0.3,4.2-0.6,8.4-0.8,12.5v-4.8l-0.4,0.2c-0.9,7.4-1,14.8-0.4,22.2h-0.2
			v-0.4c-0.3-5.9-0.5-11.8-0.8-17.7h-0.4v0.2l-0.2,7c-0.7,6.8-0.4,18.4,1.2,25.3c0.2,1.6,0.4,3.3,0.6,4.9h0.2
			c0.1-0.8,0.3-1.6,0.4-2.5c0,1.7,0.3,3.5,0.8,5.1c1.5,4.8-0.8,10.4,0.2,14c0,0-0.6,4.7-0.6,5.6c0.1,2.9,0.3,6.9,1.6,9.5
			c2.1,0.5,2.7,0.9,4.7,0.6c-0.1,0.5-0.3,1-0.6,1.4c2.8,0.2,8.6,0.9,10.7,1.6c1.3-1.4,3.8-0.5,6-1.2c2.5-0.8,14.5-6.4,15.4-5.6
			c-1.8,0.3-3.8,2-6,3.1v0.6l0.2,0.2c1.1-0.1,1.3-0.5,1.9,0h0.4v0.2c-1.8,0.6-3.3,1.7-4.5,3.1h0.4l0.2,0.8l2.9-0.8
			c-1.1,2.1-2.2,1.7-3.7,3.9c0.1,0.1,0.3,0.3,0.4,0.4l6.4-2.7l-0.2,0.6c-1.7,0.4-3.6,1.3-4.3,2.7c2.1-0.5,4.3-1.2,6.4-1.9
			c-0.1,0.2-0.3,0.4-0.4,0.6c-1.7,0.5-3.2,1.7-4.1,3.3c1.9,0,2.2,0.2,3.5-0.4c-0.4,0.7-0.8,1.4-1.2,2l1-0.6
			C419.5,477.3,418.7,479.8,418.6,482.5L418.6,482.5z"/>
		<path class="st0" d="M387.9,321.8h0.8v0.2L387.9,321.8z M199.5,322.2l0.2,0.6h-0.2V322.2z M198.7,323.9h0.4l-0.2,0.6
			C198.8,324.3,198.7,324.1,198.7,323.9z M356.6,324.3l0.4,0.2L356.6,324.3z M197.4,325.1l0.2,0.4L197.4,325.1z M196.2,325.7
			l0.2,0.4L196.2,325.7z M197.4,325.7l0.4,0.4L197.4,325.7z M197,326.5l0.4,0.8l-0.4-0.2V326.5z M195.8,326.7c0.2,0.6,0.1,0.5-0.2,1
			L195.8,326.7z M78.5,328.8h0.4C78.6,329,78.9,329,78.5,328.8z M80,328.8h0.6v0.2C79.9,329,80.3,329.1,80,328.8z M195.4,329
			c0.3,0.7,0.4,0.2,0,0.8V329z M74.4,331.1h0.4C74.5,331.3,74.8,331.3,74.4,331.1z M75,331.3l0.2,0.4L75,331.3z M350.3,331.5
			l0.4,0.2L350.3,331.5z M71.7,332.5v0.8l-0.4-0.2L71.7,332.5z M70.3,332.7l0.2,0.6h-0.6L70.3,332.7z M69.7,333.3l0.2,0.4
			L69.7,333.3z M22,334.8c-0.3,0.5-0.2,0.2-0.8,0.6C21.4,335.1,21.6,335,22,334.8z M23,335h0.8l-0.8,0.4V335z M191.9,335.4
			c0.1,0.1,0.1,0.3,0.2,0.4C192,335.6,191.9,335.5,191.9,335.4z M191.7,336h0.4C191.7,336.2,192,336.2,191.7,336z M62.9,336.4h0.4
			c-0.4,0.4,0,0.1-0.6,0.4L62.9,336.4z M191.5,336.4c0.1,0.2,0.1,0.4,0.2,0.6h-0.2V336.4z M-2.7,337.8l0.6,0.4l0.2,1.2
			c-0.1-0.1-0.3-0.3-0.4-0.4C-2.9,338.5-2.8,338.6-2.7,337.8z M-4.2,338.1l0.2,0.4L-4.2,338.1z M190.4,338.7l0.2,0.4L190.4,338.7z
			 M3.8,338.9l0.2,1h0.2v-1H3.8z M-3.2,339.1l0.2,0.4L-3.2,339.1z M-1.7,339.1c0.4,0.4,0.2,0,0.4,0.6L-1.7,339.1z M1,339.9
			c0,0.3,0.1,0.2-0.2,0.6L1,339.9z M352.1,341.5l-0.2,0.2l0.4,0.4l0.4-0.2l-0.2-0.4H352.1z M157.3,343.2l0.2,0.4L157.3,343.2z
			 M357.9,346.7l0.4,0.2L357.9,346.7z M184.5,347.3c0.3,0.7,0.4,0.2,0,0.8V347.3z M405.2,350.2l0.4,0.4L405.2,350.2z M179.5,350.6
			v0.6h0.4C179.7,350.6,179.9,351,179.5,350.6z M7.8,351.6c-0.1,0.2,0,0.3-0.4,0.2L7.8,351.6z M6.1,351.8h0.6
			c-0.1,0.2-0.3,0.4-0.4,0.6H6.1L5.3,352L6.1,351.8z M177.9,353.3l-0.2,0.8l0.4,0.2C178.1,353.3,178.3,353.7,177.9,353.3z
			 M1.4,355.3l0.4,0.2l-2.3,0.8C0,355.8,0.7,355.7,1.4,355.3z M174.2,357l0.2,0.4l0.2-0.4H174.2z M-4.6,359.1l0.4,0.2L-4.6,359.1z
			 M20.9,359.9l-0.6,0.4l0.2,0.4c2.7,0,6.4,0.7,8.2,0.2l-0.2-0.4L20.9,359.9z M31.4,359.9l0.8,0.2v0.2
			C31.5,360.1,31.8,360.3,31.4,359.9z M29.2,360.7c0.7,0.8,1.5,1,2.7,1.4l0.4-0.2c-0.1-0.1-0.1-0.3-0.2-0.4L29.2,360.7z M23.6,362.3
			l1,0.2v0.2C23.9,362.6,24,362.6,23.6,362.3z M38,362.3l2.1,1.4L38,362.3z M140.4,362.3c0,0.8-0.3,0.9-1,1.4l0.4-0.8L140.4,362.3z
			 M25.2,362.7h1.2l-0.4,0.6h-0.2L25.2,362.7z M40.1,363.8l0.6,0.4L40.1,363.8z M139,365.2h0.4l-0.4,0.4V365.2z M141.1,365.2v0.4
			C141.3,365.3,141.2,365.6,141.1,365.2z M140.6,365.8l0.2,0.4l0.2-0.4H140.6z M135.7,366.8h0.4
			C135.8,367.1,136.1,367.1,135.7,366.8z M135.1,367.3c0.1,0.8-1.8,4-2.7,4.7l0.4-0.8l-0.8-0.6C133.2,370,134.3,368.3,135.1,367.3z
			 M166,367.5c0,0.3,0.1,0.2-0.2,0.6L166,367.5z M-20.4,369.9l0.4,0.2L-20.4,369.9z M134.3,370.5l0.4,0.8l-1.4,1.2
			C133.6,371.9,133.9,371.2,134.3,370.5z M378.9,371.6l0.4,0.2L378.9,371.6z M130.8,371.8h0.6l-0.6,0.6V371.8z M130.6,372.4
			c-0.1,0.4,0.1,0.4-0.4,0.8L130.6,372.4z M132.2,372.4c0.2,0.6-1.2,3.1-2.1,4.1l-0.4-0.4c0.6-0.8,1.5-2.7,1.6-2.9L132.2,372.4z
			 M152.2,373l-0.2,0.6l0.2,0.2l0.4-0.8H152.2z M129.5,373.2h0.6l-1.2,1.2c-0.5,0.6-0.4,0.7-0.8,0L129.5,373.2z M128.9,375.3h0.4
			l-1,1.2v-0.8h0.4L128.9,375.3z M211.4,376.1l0.2,0.4L211.4,376.1z M128.9,376.7l0.2,0.4h-0.4L128.9,376.7z M127.5,377.8h0.6
			l-0.8,0.8L127.5,377.8z M125.4,379.6c0.5,0.2-0.5,1.5-1,2l-0.6-0.2C124.3,380.8,124.9,380.2,125.4,379.6z M264.3,427.1
			c0.1,0.3,0.3,0.5,0.4,0.8v-1.2l-4.9-7.8c0.5-0.4,0.2-0.2,0.8-0.2c-1.5-8.8-5.6-17.3-8.4-26.1c-0.6-4.2-1.2-8.5-1.9-12.8
			c-0.5-1.4-2.6-11.2-1.2-11.9c-6.6-9.4-15.5-14.5-28-15.2c-1.8,2-2.9,4.5-3.3,7.2c-0.1,0.9,1,1.4,0.4,2.7c-4.9,11-9.8,20-14.4,30.2
			l-3.9,9.7c-1.9,3.1-9.4,16-9.3,17.9c0.4,4.8,2.3,17.3,8.6,13.2c5.3-3.5,10.3-13.8,11.5-22.2c1.8-0.9,3,0.3,4.5,0.4
			c0.3,0.4,0.4,1,0.2,1.4l0.2,0.4c3.1-0.1,6.1-0.6,9-1.4c3-1,5.5,0.5,9.3-1.2c3.7,2.6,3.9,7.6,7,10.7c0.7,0.7,5,2.5,6.2,3.5
			c3.9,3.1,6.7,7.8,11.1,10.3l0.4-0.6l2.7,2.1c-1.1-1.3-1.8-2.9-2.3-4.5c1.5,0.7,2.2,1.7,3.7,2.5c-0.3-0.4-0.5-0.8-0.8-1.2v-0.2
			l2,1.9v0.4h0.2l-0.6-1.4c0.5,0.1,0.3,0.1,0.8,0.4h0.2c-0.9-2.3-1.9-6.4-2.7-8.8l0.6-0.2L264.3,427.1z M217.4,368.5l-0.4-0.4
			c0.1-1.9,0.7-2.5,1.2-3.9c1,0.3,1.2,0.8,1.6,1.6l-1.2,2.5L217.4,368.5z M219.8,394.8c-0.3-0.1-0.5-0.3-0.8-0.4l1.4-3.9
			c0.9-0.3,0.3-0.2,1,0c0.2-3.8,2.5-7.1,3.7-10.9h0.4c1.8,2.2,3.1,8.1,3.1,12.5C226,393,222.3,393.9,219.8,394.8L219.8,394.8z
			 M376.8,379.8v0.4C377,379.9,377,380.2,376.8,379.8z M377,380.4l-0.2,0.4h0.4L377,380.4z M376.8,381.3v0.6l0.4-0.2L376.8,381.3z
			 M123.4,381.5h0.4C123.4,381.7,123.7,381.6,123.4,381.5z M128.3,383.3c0.4,0.6-0.1,0.5,0.6,0.4l-0.2-0.4H128.3z M119.3,385.4
			l0.2,0.4H119L119.3,385.4z M142.3,387l-0.4,0.6l0.4,0.4l0.4-0.2l0.2-0.4l-0.2-0.4L142.3,387z M383.2,387.4l0.4,0.4L383.2,387.4z
			 M141.3,388.4l0.4,0.2L141.3,388.4z M376,389.1l0.2,0.4L376,389.1z M139.8,390.3c-0.1,0.5,0,0.6-0.8,1
			C139.3,391,139.6,390.6,139.8,390.3z M377.8,390.3l0.4,0.4l-0.4,0.2V390.3z M112.9,391.5h0.4C112.9,391.7,113.2,391.7,112.9,391.5
			z M133.9,391.5l0.4,0.2L133.9,391.5z M376,391.9c0.1,0.1,0.3,0.3,0.4,0.4C376.3,392.2,376.1,392.1,376,391.9z M137.8,392.1h0.4
			C137.8,392.4,138.1,392.3,137.8,392.1z M115.6,392.4c0.5,0.6-0.4,1.4,1.4,1.2l-1.9,2.5l-0.6-0.2
			C115.4,394.2,114.9,393.7,115.6,392.4z M117.2,393c0.3,0.6,0.2,0.2-0.2,0.6C117.1,393.4,117.1,393.2,117.2,393z M136.3,393h0.4
			l-0.4,0.4V393z M376,393.2c0.1,0.3,0.3,0.5,0.4,0.8C376,393.6,376.2,393.9,376,393.2z M117.8,394.2h0.6l-0.2,0.6l-1,0.6
			C117.4,395.1,117.6,394.6,117.8,394.2L117.8,394.2z M377.6,394.4c0.6,0.3,0.4,0,0.2,0.6C377.8,394.8,377.7,394.6,377.6,394.4z
			 M383.6,394.6l0.4,0.2c-0.1,0.7-0.3,1.4-0.4,2.1V394.6z M118.8,394.8h0.4c-0.6,1.7-1.5,1.8-1.9,3.3h-0.2c-0.1-0.3-0.1-0.7-0.2-1
			L118.8,394.8z M133.9,394.8h0.4l-0.6,0.4L133.9,394.8z M136.5,395.1c0.4,0.4,0.1,0,0.4,0.6C136.8,395.4,136.7,395.2,136.5,395.1z
			 M116.8,395.6h0.4l-0.8,0.8L116.8,395.6z M376.2,395.9c0.1,0.1,0.1,0.3,0.2,0.4C376.3,396.1,376.3,396,376.2,395.9z M378,395.9
			c0.4,0.7,0.3,1.5-0.2,2L378,395.9z M116.2,396.5c-0.1,0.5,0.2,0.4-0.6,0.8L116.2,396.5z M111.2,397.3c0.1,0.1,0.1,0.3,0.2,0.4
			C111.4,397.6,111.3,397.4,111.2,397.3z M116.6,397.3l0.2,0.4L116.6,397.3z M376.2,397.5c0.1,0.1,0.3,0.3,0.4,0.4l-0.2,0.2
			L376.2,397.5z M110.8,397.7h0.4C110.9,397.9,111.2,397.9,110.8,397.7z M133.2,397.7l0.4,0.4l-0.2,0.2L133.2,397.7z M114.5,397.9
			l0.2,0.4L114.5,397.9z M383.6,397.9l0.2,0.4L383.6,397.9z M112.5,398.1h0.4l-0.4,0.4V398.1z M114.1,398.3c0,0-2,4.6-2.9,5.3H111
			c0.3-0.9,0.9-0.8,0-1.2l-1.9,4.5H109v-0.6c0.5-0.8,1.3-1.5,1-2.5l-0.6,0.4c-0.4,0.9-0.3,0.7-0.8,0.6l0.6-1.4
			C110,403.6,113.1,399.5,114.1,398.3L114.1,398.3z M111.8,398.5h0.6l-0.4,0.8c-0.2,0.4-0.6,0.7-1,0.8l-0.4-0.4v-0.2L111.8,398.5z
			 M378,398.7h0.4l-0.2,1.2H378V398.7z M132.2,398.9h0.4c-0.3,0.6-0.7,1.2-1,1.8l-0.4-0.4L132.2,398.9z M122.8,399.3l0.4,0.4
			L122.8,399.3z M384.8,400.4c0.1,0.1,0.1,0.3,0.2,0.4C385,400.7,384.9,400.5,384.8,400.4z M107.9,401c0.1,0.1,0.1,0.3,0.2,0.4
			C108.1,401.3,108,401.1,107.9,401z M376.2,401.4c0.1,0.1,0.1,0.3,0.2,0.4C376.3,401.7,376.3,401.5,376.2,401.4z M378,401.4
			l0.2,0.4L378,401.4z M378.5,401.4l0.4,0.4L378.5,401.4z M383.6,401.4l0.2,0.4L383.6,401.4z M109.6,401.6l0.2,0.6h-0.2V401.6z
			 M379.3,402.1v0.6l0.2-0.6H379.3z M376.2,402.4l0.4,0.8C376.2,402.9,376.4,403.2,376.2,402.4z M378,402.8c0.4,0.6,0.4,1.4,0,2.1
			V402.8z M126.9,403.1h0.4C126.9,403.3,127.2,403.3,126.9,403.1z M113.5,403.5l0.2,0.4L113.5,403.5z M122.1,403.9h0.4
			c-0.4,1.2-1.3,2.2-2.5,2.7l1-1L122.1,403.9z M376.2,404.1h0.4l-0.4,0.6V404.1z M112.9,404.3c-0.1,0.4,0.1,0.4-0.4,0.8
			C112.6,404.8,112.7,404.6,112.9,404.3z M119.7,404.3l0.2,0.4L119.7,404.3z M119.3,404.9l0.2,0.4L119.3,404.9z M108.4,405.1
			l0.4,0.8h-0.6L108.4,405.1z M119,405.3l0.2,0.4L119,405.3z M378.2,405.5c0.2,0.4,0.1,0.4-0.2,0.8h-0.2v-0.2L378.2,405.5z
			 M107.9,405.9l-0.2,1h-0.2L107.9,405.9z M292.3,407l-0.2,0.6l0.6-0.6H292.3z M378,407.2v0.8h-0.2L378,407.2z M108.6,407.4h0.4
			c-0.1,0.5-0.3,1.1-0.4,1.6h-0.2l-0.6-0.4C108.3,408.1,108.3,408.3,108.6,407.4z M379.3,407.4l0.2,0.4L379.3,407.4z M115.6,407.6
			l-1,1.4h0.2l0.4-0.2l0.6-1.2H115.6z M376.6,408l0.2,0.6h-0.2V408z M105.9,408.2l0.2,0.4L105.9,408.2z M378,408.2l0.2,0.4
			L378,408.2z M105.7,408.6c0.3,0.6,0.2,0.2-0.2,0.6L105.7,408.6z M118.4,408.6l0.2,0.6l-0.4-0.2L118.4,408.6z M380.3,408.8v0.6
			l0.2-0.6H380.3z M107.3,409c0.2,0.7,0.1,0.6-0.4,1C107,409.7,107.2,409.4,107.3,409z M117.6,409.4c0.4,0.4,0.3,0.3,0.4,1.2
			l-0.4-0.2l-0.4,0.2C117.3,410.3,117.5,409.8,117.6,409.4z M106.5,410.3l0.4,0.4l-0.4,0.2V410.3z M115.3,410.5
			c0.2,0.4,0.1,0.4-0.2,0.8C115.2,411,115.3,410.7,115.3,410.5z M104.4,410.7c0,0.8-0.4,0.4,0.4,0.8
			C104.6,410.9,105,411.1,104.4,410.7z M116.8,411.1c0.2,0.6,0.2,0.7-0.2,1.2h-0.2v-0.2C116.5,411.8,116.6,411.4,116.8,411.1z
			 M97.6,411.7l0.2,0.6h-0.2V411.7z M382.6,412.3l0.2,0.6h-0.2V412.3z M97.2,412.5l0.2,0.4L97.2,412.5z M377,412.5l0.2,0.6H377
			V412.5z M116.2,412.7c0.6,0.7-3.1,8-3.9,9.5l-0.4-0.2v-0.2C113.3,418.8,114.7,415.7,116.2,412.7L116.2,412.7z M379.5,412.9
			l0.2,0.4L379.5,412.9z M114.5,413.1l0.2,0.4L114.5,413.1z M383.4,413.5c0.1,0.2,0.1,0.4,0.2,0.6h-0.2V413.5z M377.2,414
			c0.1,0.1,0.1,0.3,0.2,0.4C377.4,414.2,377.3,414.1,377.2,414z M113.9,414.6l0.2,0.4L113.9,414.6z M112.9,414.8l0.2,0.4
			L112.9,414.8z M106.7,415l-0.2,0.4l0.2,0.2h0.2c0.1-0.2,0.1-0.4,0.2-0.6H106.7z M377.2,415l0.2,0.4L377.2,415z M382.6,415.4
			c0.5,0.5,0.4,0.4,0.2,1V416L382.6,415.4z M112.3,416.2l0.2,0.4H112L112.3,416.2z"/>
		<path class="st0" d="M248.6,416.6c0.5,0.3,0,0.2,0.6,0H248.6z M112.7,417.3c0.1,0.1,0.1,0.3,0.2,0.4
			C112.8,417.5,112.7,417.4,112.7,417.3z M279.7,417.3v0.6l0.2-0.6H279.7z M112.5,417.7l0.2,0.4L112.5,417.7z M377.6,418.3l0.2,0.6
			h-0.2V418.3z M382.8,418.3h0.4l-0.4,0.6V418.3z M383,418.9l0.2,0.4L383,418.9z M377.8,419.5l0.4,0.4l-0.4,0.4
			c-0.1-0.1-0.1-0.3-0.2-0.4L377.8,419.5z M380.1,419.5c0.1,0.4,0.3,0.7,0.4,1l-0.4-0.2V419.5z M382.8,419.5l0.2,0.6h-0.2V419.5z
			 M109.2,420.1l0.2,0.4L109.2,420.1z M111.4,420.5l0.2,0.4L111.4,420.5z M382.8,420.8c0.1,0.3,0.3,0.5,0.4,0.8l-0.4-0.2V420.8z
			 M377.8,420.9l0.4,0.4L377.8,420.9z M380.1,420.9l0.4,0.8l-0.4-0.2V420.9z M319,421.2h0.4c-0.4,0.6,0,0.3-0.8,0.6l0.4-0.2V421.2z
			 M378,422.2c0.4,0.4,0.5,1.1,0.2,1.6L378,422.2z M382.8,422.2c0.1,0.3,0.3,0.7,0.4,1l-0.4,0.2V422.2z M317.6,422.4
			c0.4,0.5,0.1,0,0.2,0.8l-1-0.2L317.6,422.4z M319.2,423l0.2,0.4L319.2,423z"/>
		<path class="st0" d="M317.8,423.2h0.4C317.8,423.4,318.1,423.4,317.8,423.2z M318.6,423.6c-0.1,0.2,0.2,0.1-0.2,0.4L318.6,423.6z
			 M108.1,424.3v0.4C108.3,424.3,108.3,424.6,108.1,424.3z M383,424.4c0.2,1.4,0.4,2.7,0.6,4.1l-0.4-0.2
			C383.1,427.1,383,425.7,383,424.4L383,424.4z M319.8,425.3c0,0.6-0.2,0.3,0.2,0.8l0.4-0.8H319.8z M319.2,426.1
			c-2.2,2.3-4.1,4.9-5.8,7.6h0.2c2.6-1.8,6.1-4.1,5.8-7.6H319.2z M378.7,426.3c0.1,0.1,0.3,0.3,0.4,0.4l-0.2,0.2
			C378.8,426.7,378.7,426.5,378.7,426.3L378.7,426.3z M380.9,426.5l0.2,0.4L380.9,426.5z M312.6,427.1l0.2,0.4L312.6,427.1z
			 M264.9,428.1c0.3,0.4,0.3,0.3,0.4,1h-0.2C265,428.8,265,428.5,264.9,428.1z M381.1,428.1l0.2,0.4L381.1,428.1z M381.1,429.2
			l0.2,0.4L381.1,429.2z M70.1,430c0,0.3,0.1,0.2-0.2,0.6L70.1,430z M312.2,430l0.2,0.4L312.2,430z M381.1,430h0.4
			c0.1,0.8,0.1,1.6,0.2,2.5l-0.4-0.2l-0.2-0.4L381.1,430z M263.3,431.4l0.6,0.6v-0.6H263.3z M380.3,431.4l0.2,0.4L380.3,431.4z
			 M308.9,432.7l-0.4,0.2v0.2L308.9,432.7z M69.7,432.9h0.4l-0.6,1.2C69.5,433.7,69.6,433.3,69.7,432.9z M261.4,433.3l0.4,0.2
			L261.4,433.3z M381.7,433.5c-0.1,1.2-0.2,1.7,0.2,2.3h0.2C382.3,435,382.1,434.2,381.7,433.5z M264.7,433.7l0.6,0.6L264.7,433.7z
			 M265.3,434.3l0.4,0.4L265.3,434.3z M69.1,434.5h0.4C69.1,434.7,69.4,434.7,69.1,434.5z M182.2,438.4l0.2,0.4l0.2-0.4H182.2z
			 M288.1,442.1l0.2,0.4L288.1,442.1z M288.8,443.8c0.6,0.5,1,1.3,1,2.1l-0.4-0.2C289.2,445,289,444.4,288.8,443.8L288.8,443.8z
			 M378.2,445.6v0.6l0.2-0.6H378.2z M101.1,448.7c0.1,0.1,0.1,0.3,0.2,0.4C101.3,448.9,101.5,449,101.1,448.7z M105.3,451
			c-0.2,0.6-0.4,1.2-0.6,1.9h0.2l0.2-0.4C105.4,452,105.5,451.5,105.3,451L105.3,451z M62.1,453.3l0.2,0.4L62.1,453.3z M263,456.8
			l0.2,0.4l0.2-0.4H263z M378.9,456.9l-0.2,0.2c0.1,0.1,0.1,0.3,0.2,0.4l0.4-0.2v-0.2L378.9,456.9z M102.2,459.8l0.4,0.2
			L102.2,459.8z M417.3,461.5l-0.2,0.4l0.4-0.4H417.3z M399,464.6l1.6,0.6v0.4l-2.5-0.8L399,464.6z M418.1,465.2h0.4l-0.2,0.6
			L418.1,465.2z M415.3,466.2l0.8,0.2v0.2l-0.6,0.2l-0.4-0.2C415.1,466.5,415.2,466.3,415.3,466.2z M416.7,466.2l0.2,0.4
			L416.7,466.2z M37.8,468.9l-0.6,0.2l0.2,0.4l1-0.4H38L37.8,468.9z"/>
		<path class="st0" d="M343.3,337.2c-22.5-55.2-74.5-99.3-153.9-98.1l-11.5,0.9c-8,1.3-15.8,2.2-23,4.3c-29,8.6-51.2,22.2-69.9,40.9
			c-4.3,4.3-9.4,8.7-12.6,14c-9.6-0.1-19.1,0.7-28.6,2.3l-11.3-0.2c-9,1.2-18.5,0.4-26.1-0.4l-11.8,1.4c-1,1-2.4,2-3.3,3.1l0.4-0.2
			c-0.8,2.9-7,2.3-8.2,6l-2.3-1c0.5,0.8,1.1,1.5,1.6,2.3v0.6l-1.9,1.8l-3.1-0.2l-0.2,0.4c2.2,5.9,6.1,10.5,10.1,15.2
			c0.5,0.6,0.8-0.1,1.2,0.2c2.6,1.9,4.6,4.5,6,7.4l1.2,0.2c0.1-0.8,0.2-1.7,0.4-2.5h0.2c0.9,1.1,2,1.9,3.3,2.5v1l-1,0.2
			c0.9,0.8,0.8,0.5,1.4-0.4l2.1,0.6l-0.2-1c1,0.3,0.2,0.6,1,0l0.2,0.2c-0.3,0.9-0.9,1.7-1.6,2.2c0.7,0.5,0.4-0.3,0.8,0.6
			c0.8-0.7-0.2-0.3,0.6-1c0.1-0.1,0.3-0.3,0.4-0.4v1c0.6-0.5,1.4-0.7,2.1-0.4v-1.9h0.4c0.1,0.3,0.3,0.7,0.4,1v-0.8
			c1.3-0.2,1.6-0.5,1.7,0.6l1.2-1c-0.5-0.1-0.3,0-0.8,0.2c0.4-0.9,1.7-1.4,2.5-2.5v1c1.6-0.7,0.9-1.6,2.7-2l-0.6,1
			c1-0.2,1.9-0.6,2.7-1.3c2-0.4,1.5-0.3,3.1,0.2l-0.4-0.6l4.9-0.6c0.5,0.5,0.1,0.5,0.6,0.8v0.4l0.4-0.2c0.4-0.1,0.3-0.1,0.8-0.6
			c0.4,0.6,0.1,0,0.2,0.8c9.2,0.2,11.9,5.5,23.7,3.7v0.2c-3.1,6.6-7.2,18.2-7.6,26.5l-0.6,0.2c-1.4-2-4-2.8-6-3.7
			c-0.5,0.5-0.5,0.4-0.6,1.4l4.7,2.9c-0.6,0.1-0.4,0.2-0.8-0.2l-0.6,0.2c0.3,0.6,0,0.2,0.4,0.6l-0.2,0.6c-0.7-0.4-0.9-0.4-1.2-1.2
			l-1.2-0.2l0.4,0.4l-0.2,0.2c-0.6-0.4-0.5,0.1-0.4-0.6c-3.3,0-5.7-1.2-11.1-1.6c-0.1-0.6-0.4-1.1-0.8-1.4c0.2-1.5-1.2-1.4-2.9-1
			l-0.4-0.6c2.9-2.1,11.4,0.5,14,2.1h0.2l-1.4-1.9l0.6,0.4h0.2c-0.9-2.8-11.4-3.1-14.4-2.7c0.7-2.5,6.4-0.6,9.5-0.4
			c-2.6-1.2-12.1-0.2-12.6-3.3l-1.7,0.4c-0.7-1.2-1.3-2.2-0.8-3.3c-2.2-0.3-2.8-0.9-4.9-1c0.6,0.5,1.3,0.8,2.1,0.8v1.2l-3.5,2.7
			c-1.2-0.1-2.2,0-2.7-0.6c-2.5-0.1-4.8,2.8-7.4,1.4c-0.9,1.1-2,2-3.3,2.7c-0.7,0.1-0.6,0-1.2-0.4c-0.1,1.9-11.7,9.2-15,10.1
			c-0.1,0.3-0.3,0.6-0.4,0.8l1-0.2l0.2,0.2c-1.3,1-6.1,1.7-7.8,3.7l0.2,1.4l-4.5,3.9h-0.6l1.2-0.8l-0.2-0.6c-1.9,1.2-7.3,4.8-7,7.2
			c-2-0.4-7.7,13.6-8.8,17.1c-6.3,19.2-5.5,37.5,4.9,54.3c0.5,0.6,0.2,0.3,1,0.2c-1.3,2.9,3.1,4.1,4.1,6c0.1,0.7,0.1,1.4,0.2,2
			c3.7,3.7,8.2,6.4,13.2,8c1.6,0.6,2.9-0.1,3.9,0.6c0.6,0.4,0.5,0.2,0.6,1.2c0.7,0.1,4.7-0.4,6,0.2c2,0.9,3.6,1.9,6.2,1.2
			c0.8,0.6,1,0.7,1,2h0.8c0.5-1,8.3,1.6,10.5,1c1.2-0.3,4.4-1.3,6-1.2l0.8,0.6c1.1-1.4,18.6-5.8,22.4-5.8c0.6-0.7,0.8-1.2,1.8-1.4
			c-0.2-0.3-0.4-0.5-0.6-0.8c3.6-1.1,6.7-2.6,10.5-3.9c0.9-0.3,0.9,0.5,2.1,0l5.1-3.3c0.3-0.3,0.7-0.7,1-1l4.5,9.3
			c-3,3.8-12.4,6.1-14.8,10.9c0.7,3.2-1,8.1-2.5,10.5c1.9,4.3,14.7,8.9,18.9,7l0.4,0.4c2.4,2.5,7.8-3.2,10.1-4.7
			c0.1,0.2,0.3,0.4,0.4,0.6l2.5-1.9c5,5.5,9.5,11.4,14.8,16.5c18,17.2,39.6,30.2,66.7,38.3c6.9,2,14.1,3,21.6,4.3
			c7.2,1,14.5,1.4,21.8,1l17.9-0.6c27.5-4.9,47.1-11,66.6-23.3c8.6-5.4,15.6-12.3,23.2-18.5c9-7.2,16.3-16.9,22.8-26.5
			c1.5-2.2,3.6-4.3,4.5-7c0.8-0.3,1.6-0.4,2.5-0.2c1.5-2.8,3.5-6.6,4.3-9.3c0.2-0.8-0.6-1.3-0.2-2.5l4.3-9c3.2-8,5.8-16.1,7.8-24.5
			C359,401.4,353.4,362,343.3,337.2L343.3,337.2z M-49.2,431.6l-0.2-0.4C-49.1,431.5-49.3,431.5-49.2,431.6z M-48.8,447.5l0.2-0.4
			c0.1,0.1,0.1,0.3,0.2,0.4H-48.8z M39.4,394.6h-0.2L39,394C39.4,394.4,39.2,394,39.4,394.6z M-26.4,438.2l-0.4,0.2
			c-0.9-1.3-0.9-2.1-0.2-3.9h0.6C-26.7,435.7-26.7,437-26.4,438.2z M23.8,445.6l-2.3-0.4c-2.3,0.8-2.7,1.8-5.2,2.3
			c-0.8,0.1-2.7,0.7-3.9,0.8l-2-0.8c-2.8,1.2-6.6,1.8-9,1c-5.3-1.6-10.6,0.4-14.6-2.5v0.8l-1.4-0.2c-0.5-0.5,0-0.4-0.6-0.8v-0.4
			c-0.3,1.3-5.4-0.4-7-1.2c-0.2-0.1-0.2-1-0.6-0.4l-0.2,0.2c-2.6-2.4-2.8-10.8-1.5-17.9c-0.1,1.1-0.5,2.2-1.1,3.1v0.4H-26l-0.6-0.2
			c-0.6-4,5-18.2,7.4-20.4c2.1-1.8,5.5-2.7,7.4-4.1l0.2-1c0.7-0.5,4.1-1.1,4.3-1.2c0.1-0.3,0.1-0.7,0.2-1c1.1-0.6,1.4,0.4,2.3,0.2
			c5.8-1.3,7.2,0,14,0l0.6-1.2c2.4,0.2,3.9-0.1,5.8,0.4c2.3-3.4,2.2-4.9,6.8-6l0.2,0.8c4.9-1.9,6.8-4.5,13.2-1.9
			c-0.7-0.8-1.3-0.9-1.6-2.1c1.6,0.4,3,1.4,4.3,1.2c1.9,4-0.1,11.5,0.6,16.3c1.3,8.5,2.6,16.8,3.7,24.5
			C37.7,440.5,31.2,443.8,23.8,445.6L23.8,445.6z M49.3,417.3c-0.2,1.7-0.9,3-0.4,4.3l-0.4,0.2h-0.2c-1.4-6.1-2-12.3-2.1-18.5
			C48.1,406,49.8,413.2,49.3,417.3L49.3,417.3z M346.1,416.4c-2.3,12.5-5.6,23.4-8.8,34.1l-0.4,0.2c0.4-2.4,0.6-4.8,0.6-7.2
			c-0.1-0.9-0.1-1.8-0.2-2.7c1-2.5,2.2-3.5,2.7-6.4h1.4c-1.2-2.7,1.6-6.5-0.4-9c-2.8-3.5-6.4-7-11.1-8.6c-1.7-0.6-3.5-0.2-4.7-0.8
			c-2.1,1.9-2.4,1.6-2.3,5.1c-0.5,0.1-1,0.3-1.4,0.6l0.4,0.6c-1.9,2.3-3.9,4.4-6,6.4V428l-4.7,5.4l-0.4-0.8c0.4-0.3,0.7-0.8,0.8-1.2
			v-0.8l-1.6,1.2c0.1-0.3,0.1-0.7,0.2-1c-1.8,1.9-3.5,4.4-6,6.2H304c-2.1-4.9-3.5-16.2-1.9-21.4l1.4-3.7c0.3-2.4-5-16.9-6.2-18.3
			c-3.3-3.9-6.1-2.5-9.7-3.9l-1.6,1.7c0.2,0.7,0.3,1.5,0.2,2.3c-1.2,0.4-2.1,1.3-2.9,1.4c-0.3,1.8-1,3.4-2.1,4.9
			c0.6,0.7,0,6.4-0.6,7c0.3,0.9,0.5,0.7,1,1.2l-0.8,0.6c1.5,2.9-3.7,11.6-4.9,15.4c0.7,2-5,10.4-6.2,12.5
			c-4.8,8.7-9.1,17.8-15.2,25.3c-2.3,2.8-6.3,5.1-8.6,7.2l-1.4,2.7c-0.7,0.5-0.2,0.2-1,0c-0.1,0.5-0.1,1.1-0.2,1.6
			c-1.4,0.2-0.9,0.6-2.1,1.2c-0.1,0.3-0.3,0.5-0.4,0.8l-0.4-0.8c-2.1,2.2-2.7,4.9-6.2,6.4c-2.3,3.6,0.3,7.3,2.3,10.1
			c3,0.7,13.1,0.2,16.3-1.9c0.6-0.4,0.1-0.6,0.8-0.2c1.5-0.8,5-3.8,6.2-3.1c1.7-3.1,5-3.6,7.2-6s1.4-5.6,2.9-8.6
			c1.9-3.9,7.5-10.3,8-14.8c0.5,0,0.1,0,0.8,0.2c1.3-3.4,4.3-6.3,5.8-9.5c0.6-2.4,1.2-4.8,1.9-7.2c0.4-0.6,0-0.4,0.8-0.6
			c0.7,2.3,2.6,4.2,3.7,7l-1-0.6c0.6,3.4,5.5,12.2,8.8,13.4s5.5,0.7,8.6,2.1c1.5-0.8,3.2-1.3,4.9-1.2c2.6-3.6,6.8-7.6,7.8-12.6h-0.2
			c-0.3,0.8-0.3,0.3-0.4,1l-0.6,0.2h-0.2c-0.2-2.6,3.9-8.4,4.7-9.1c2.6,2.9,1.6,6.3,2.9,10.7c0.9,3,2.6,16.9,1.9,20.2l-2.1,3.1
			c-3.5,5.7-7.3,11.3-11.3,16.7c-19.1,25.7-46.6,42.9-81.7,52.7c-5.6,1.6-11.9,2.6-18.1,3.7l-11.3,0.8l-8,0.4c-10.3-1.7-20-1-29-3.3
			c-25.7-6.4-45.7-16.1-63.8-29.8c-5.9-4.5-12.4-10.1-17.1-15.8l-6.6-7.8v-0.8c3.1-1.3,7.7-3.3,9.1-6.4l0.6-0.4l0.2,1l3.1-7.2
			c1.1,0.4,0.6,0.2,0.6,1.2c1.7-1.4,1-5.7,2.9-7.8c0.4-0.1,0.1-0.2,0.4,0.2l1-1.2v0.6c1.2-1,0.9-2.6,1.6-3.9c0.5-0.9,1-1.7,1.6-2.5
			h-0.3v-0.6l0.4,0.6c1.4-2,2.7-4.1,3.9-6.3l-0.8-0.4l3.7-8.2c0.6-0.5,1.6,0.1,2.1-1.2c8.1,3.2,15-2.4,23-1l1.4-1.6l3.5,0.4
			c0.3-1,0.4-0.8,0.2-1.4c0.5-0.6,2.9-1,3.9-0.8c0.3-0.9,0.3-1.2,0.8-0.4c1.5-2.1,4.6-3.1,7.2-5.1c1.7,0.7,4,0.6,5.6,2
			c1.8,1.6,3.7,4.8,5.8,6.8c1.6,1.5,3.8,2.1,6,3.9l1.6,2.1c2.5,1.3,3.9,0.7,6.6,1.8c2,0.8,4.7,2.1,7.6,1c1.8-0.1,6.4-6.8,5.4-8.6
			c-0.8-1.5-1.5-3.1-2.1-4.7c-0.7-2.1-6.3-8.2-8.9-9.3c-0.7-0.3-1.9,0.1-2.7-0.4c-2.3-1.4-3.2-3.8-6-4.3c0-1,0.1-0.6-0.2-1.2
			c0.1-0.2,0.1-0.4,0.2-0.6l0.8,0.8c0.2-0.7,0.2-1.4,0-2.1c2.8-1.2,10.1-7,11.3-9.5c0,0,0.6-10,0.4-11.7c-0.5,0.4-0.3,0.4-1,0.6
			c-1.1-5.5-6.6-5.3-11.7-4.9c-1.9,0.2-4.2-0.5-6,0.2c-5.5,2.1-10.9,4.6-16,7.6c-1.4,0.8-3.1,0.4-4.7,1.2c-4.4,2.3-8.1,5.5-12.3,6.2
			c-0.6,0.6-0.4,0.3-0.4,1c-0.7,0.5-6.8,2.6-8,2.3l-0.2,1.6c-1.6,0.4-8.6,3.2-9.1,4.1l-0.6-0.2l0.8-1.4v-0.6h-0.2
			c-0.5,0.7-0.9,1.6-1,2.5l-0.4,0.2h-1.6l0.6-1.6l-0.6,0.4c-0.1-0.2-0.1-0.4-0.2-0.6c0.4-0.5,0.1-0.3,0.6-0.2
			c1.1-1.5,1.7-4.5,2.7-6.8l4.3-6.6h0.6c-0.2,0.4-0.4,0.8-0.6,1.2v0.6c1.8-2,3-4.5,3.5-7.2c0.1-0.1,4.4-2.6,4.7-2.7l-0.4-1
			c1-0.2,0.8-0.1,1.2-0.8l1-0.8c0.1,0.1,0.1,0.3,0.2,0.4l-2.9,5c3.9-1.6,7.2-7.8,11.3-10.1c0.1,0.5,0,0.3-0.2,0.8
			c2.4-0.8,4.3-2.6,5.4-4.9c0.7,0.4,0.9,0.3,1.2,1c1.6-1.1,2.7-2.7,3.1-4.5l0.4-0.2c0.5,0.5,0.2,0.5,0.2,1.4l0.4,0.2
			c2.9-3.7,5.5-6.5,9.1-8.6v0.8c1.7-1.2,4.4-3.5,5.1-5.5h1.4c1.2-1.5,2.4-5.1,4.1-6.8c1.3-1.3,3.3-2.3,4.5-4.1l0.6-0.4h0.2l-2.1,3.3
			l-1.5,1.5l0.4,0.2c1.6-2,4.1-5.7,6.2-7.2c-0.1-0.5-0.3-1-0.4-1.4c0.5-0.1,0.3-0.1,1-0.4l0.2-0.6l-0.2,2.3c1-0.8,1.7-1.9,2.1-3.1
			c0.3-0.3,0.5-0.6,0.8-0.8v1h0.2c0.9-2.9,4.1-5,6-7c1.6-1.7,1.9-4.7,3.3-6.4l0.4,0.2c-0.6,1-1,2-1.4,3.1l0.6,0.4
			c1.6-2.3,2.6-5,2.9-7.8c0.9-0.5,0.2-0.4,1-0.2c0.8-4.2,3.3-7.4,4.9-10.9c1.1-2.3,1.1-4.3,2.5-6.4l0.2-0.4c0.4,0.8,0.6,1.8,0.4,2.7
			h0.2c0.1-1.1-0.6-2.6-0.4-3.3c3.6-2.9,5-13.3,9.5-16c-0.2-2.5,1.9-4.7,2.5-7c-1.2,1.1-1.4,2.5-2.9,3.5l-0.4-0.4
			c0.1-0.9,2.4-4.8,3.3-6.2v-0.2l-1,0.6l-0.2-0.4c2-3.8,5.2-6.2,6.6-9.7l-1.4,1.2l2-2.9c-2.3,1.5-4.4,3.2-6.4,5.1h-1.9v-0.4l8-8.9
			v-0.2c-4.4,1.8-8.5,8.7-12.4,11.5h-0.2l-0.2-0.6l1.4-1.4c-0.1-0.9,0.3-0.5-0.6-1c0.7-1.1,1.1-0.9,1-2.5c0.9,0,2.1-1.3,3.1-2.5
			v-0.2l-2.7,1.6l0.6,0.2c-0.9,0.3-1.8,0.4-2.7,0.4c-1.6,1-2.2,3.1-4.3,3.7c0.2-0.5,0.4-1,0.6-1.4l-4.9,6l-0.6,0.4l-0.2-0.2
			c0.3-0.8,0.6-1.5,0.8-2.3c-0.4-0.5-0.1-0.1-0.2-0.6c-2.4,0.8-3.1,4.8-5.4,5.8c-0.7,0.3-0.6-0.4-1.2,0.2c-1.5,2.1-3.5,6.6-5.1,9.9
			l0.4,0.4c0.5-0.5,0.8-1.2,0.8-1.9l1.2-0.6h0.2c-0.7,3.8-9.7,13-12.1,17.3c-1.1,1.9-1.5,5-3.5,5.4c0.1,0.3,0.3,0.5,0.4,0.8
			c-1.8,2.6-10.7,16.9-12.6,17.1c-1.7,2.1-2.1,6.4-6,6.8c-0.7,2.9-2.3,6.2-5.3,7.8c0.1,0.5,0.3,1.1,0.4,1.6c-0.4,0.2-0.7,0.6-0.8,1
			c-0.9,0-0.5,0.2-1-0.4c-2.2,1-3.9,3-4.5,5.4l0.8-0.8l0.2,0.4l-1.6,1.4l-0.2,0.4c-0.4-0.6-0.2-0.2-0.2-1c-1.3,0.6-3.5,1.3-3.9,3.3
			c1-0.4,0.8-0.1,1.6-0.2l-0.2,2.1c-5,3.8-16.4,15.4-18.3,20.4c2.7-2,7.1-5.7,8.4-8.8h0.4l0.4,0.8c-3.1,2.6-5.9,5.6-8.4,8.8
			c0.5,0.6,0.6,0.3,0.8,1.2c0.8-0.6,1-0.8,1.9-1.4l-0.8-0.2l1.4-2.3l0.6-0.2l0.2,0.2c-0.3,0.6-0.6,1.2-0.8,1.9
			c2.1-0.3,2.9-1.4,3.7-2.9l0.6,0.2c0.4,0.5,0.1,0,0.2,0.6l0.2,0.4c1.2-1.1,1.6-3.4,3.9-4.1v0.2c-1.7,3.6-4.9,5.3-7,8H123l0.2,1
			l2.3-2.3l0.4,0.4l-2.1,1.9l0.4,0.6c-0.1,0.3-0.3,0.5-0.4,0.8c-0.7-0.1-1.4,0-2.1,0.2c0.1-0.6,0.5-1.1,1-1.4v-0.8l-0.6,0.2
			c-1.4,1.8-2.7,5.6-4.3,7.8l0.6-0.2c-0.3,1.4-1.1,2.7-2.3,3.5H116c0.5-0.7,0.7-1.6,0.8-2.5c-0.4-0.4-0.2-0.1-0.4-0.8l-8.9,10.3
			c0.9-3.7,3.3-5.4,4.5-8.4c-2.7,2.2-4.1,5.9-6.8,8l0.8-2.1c-0.5,0-0.2,0-0.8,0.2h-0.2c0.1-0.5,0.3-1.1,0.4-1.6v-0.8h-0.2
			c-1.9,1.3-3.3,3.2-4.1,5.3l-0.4,0.2h-0.2c0.2-0.7,0.4-1.4,0.6-2c-3.2,2.8-4.6,11-5.8,11.9l-0.2,0.8H95c0-0.7-0.3-0.3,0.2-0.8v-0.6
			c-1.6,0.8-4.1,3.4-3.3,5.4h-0.8c0.2,0.7-0.1,0.4,0.4,0.6c-5,9.5-9.9,20.2-16.7,28.6c-1.6,1.9-9.5,7.8-9.7,9l-0.8,0.6
			c-1.9-4-3.8-8-5.8-11.9c1.5-2.5,3.9-3.4,5.3-5.8c-0.8,0.3-0.4,0-0.8,0.6h-0.2c0.4-1.2,0.8-0.9,1.4-1.6l0.4-0.4l-1.7,0.6l0.2-0.8
			c0.8-0.5,0.6-0.5,1.6-0.4c-0.4-0.4,0-0.1-0.6-0.4c0.5-0.8,0.3-0.8,1.4-1c0.8-3.9,2.1-7.7,3.7-11.3v-0.2l-0.8,0.4
			c-1.3-2.6,2-13,1-17.7c-3.1-15-5.5-34.3-17.3-42.4c-1.1-0.8-2-3.4-3.9-4.3c0.2-7.2,6.9-29.7,10.1-34.2c1.3-1.9,9.7-1.9,10.9-4.7
			h0.4c-0.4-0.8-0.7-0.9-1.7-1v-1c2.7-0.6,7.2-1.5,8.6-1.2c1.1-1.4,1.3-2.4,3.1-2.5l0.6-0.6l-2.3-0.3v-0.2c0.6-0.2,4-2,3.3-2.5
			l0.2-1l-1.4-0.6l-0.2-0.4c0.9-0.1,0.8,0,1.2-0.4h-0.8l-0.2-0.4c0.3-0.6,0-0.3,0.4-0.6s0.1-0.1,0.6-0.2l0.4,0.2l-0.6,0.4l0.8,0.2
			c0.7-1,1.6-1.9,2.7-2.5c1.1,0.5,0.9,1.1,2.3,0.8c0.9-0.4,0.2-0.3,0.8-0.8c2.7-1.7,8.8-2.4,13.4-2.9v-0.8c-3.1,2-8.7,0.3-13.8,1.7
			h-0.2c0.2-0.5,0.4-1,0.6-1.4l0.6-0.2c0.5,0.6,0.3,0.4,0.4,1l2.7-0.2l0.2-1.4c3.2-0.2,5-1.7,7.8-1.9v0.2l-1.4,0.2
			c-0.1,0.1-0.1,0.3-0.2,0.4l1.9-0.2c0.3-1,0.4-1.1,1.2-1.4c-0.5-0.8-8.3,0.1-10.1,0.6l-0.4-0.4l1.9-0.4c-0.1-0.6-0.3-0.3,0.2-0.6
			l-0.8-1c2.1-1,12.6-2.2,14.2-3.9l0.6-0.4c-2-1-6.5,0.2-8.6,0.6l-19.6,0.8l-0.6-0.6c2.5-1.1,5.3-1.4,8-1c0.4-0.6,0.1,0,0.2-0.8
			c2.9-0.1,3.7-1.6,5.6-1v-0.4l0.4-0.2v-0.2c-3.6-0.5-5.6-1.1-10.7-1v-0.2c5.5-8.5,14.3-15.6,22.2-21.6
			c26.8-20.3,70.6-41,119.8-30.5c11.2,2.2,22.1,5.5,32.7,9.9c40.6,17.4,70.5,49.4,84.3,93.6C345.5,369.3,350.2,394.1,346.1,416.4
			L346.1,416.4z M95.8,459.4c1.4,1.3,0.2,7.3-0.2,9h-0.2C93.6,465,94.7,463,95.8,459.4L95.8,459.4z M-21.2,414.8
			c-1.9,1.7-2.5,6.4-3.1,10c0.9-4.1,2.2-7.6,3.9-9.1C-21,414.6-21,415.4-21.2,414.8L-21.2,414.8z M359.1,472.4l0.2,1l0.2-0.4
			l-0.2-0.6L359.1,472.4z M421.4,474.4c-0.1,0.2,0.2,0.1-0.2,0.4L421.4,474.4z M44.6,480.8L45,481L44.6,480.8z M358.9,489.7l0.4,0.2
			L358.9,489.7z M394.1,498.3v0.6l0.4-0.4L394.1,498.3z M56.9,500.6l0.4,0.2L56.9,500.6z M386.9,504.5h0.8l-0.4,0.6L386.9,504.5z"/>
	</g>
</g>
</svg>
