<?xml version="1.0" encoding="utf-8"?>
<!-- Generator: Adobe Illustrator 19.0.0, SVG Export Plug-In . SVG Version: 6.00 Build 0)  -->
<svg version="1.1" id="Layer_1" xmlns="http://www.w3.org/2000/svg" xmlns:xlink="http://www.w3.org/1999/xlink" x="0px" y="0px"
	 viewBox="194 235.8 1000 322.2" style="enable-background:new 194 235.8 1000 322.2;" xml:space="preserve">
<style type="text/css">
	.st0{fill:#FFFFFF;}
</style>
<g>
	<path class="st0" d="M616,328.5c-4.9-1.5-8.1,1.6-11.1,8.1c-3,6.6-2.9,17.3,1.1,21c4.6,4.3,9.4-2.5,13-11.8
		C621.5,339.4,620.9,330,616,328.5z"/>
	<path class="st0" d="M660,334.7c-6.1,0.7-7.9,20.4-7.5,27.2c0.4,6.9,10.6,3.5,12.6-0.6C668.3,354.8,666.1,334,660,334.7z"/>
	<path class="st0" d="M564.2,328.8c-5.2-1.1-8.2,2.4-10.6,9.5c-2.5,7.1-1.4,18.4,3,21.8c5.1,4.1,9.4-3.5,12.3-13.6
		C570.9,339.7,569.4,329.9,564.2,328.8z"/>
	<path class="st0" d="M940.6,348.5c7.5-8.5,12-23.5,5.2-28.5c-6.8-5-13.4-2-21.8,6.5c-8.4,8.6-14.4,25.4-10.5,33.2
		C918.3,369,929.5,361,940.6,348.5z M922.5,356.9c0.3-4.3,3.3-13.3,9.4-19.5c3.9-4,6.3-5.5,7.6-5.9c0.1,0.1,1,0.2,1.4,0.4
		c0.1,0.6-0.6,1.1-1,3c-0.9,3.8-3.1,8.2-5.8,11.3C929.5,351.4,925.5,355,922.5,356.9z"/>
	<path class="st0" d="M497.4,341.3c-6.6,1.6-5.8,24.4-4.4,32.2c1.4,7.8,12.1,2.5,13.7-2.4C509.3,363.2,504,339.7,497.4,341.3z"/>
	<path class="st0" d="M272.2,294.5c-11.4,0.8-15.4,9.7-16.2,26c-0.8,16.2,8.1,38.9,19.2,43.5c13,5.4,17.3-12.7,17.3-35.4
		C292.5,313.1,283.5,293.6,272.2,294.5z M286.8,332.6c0,11.1-1.1,19.8-3.1,24.6c-0.5,1.1-0.9,1.8-1.1,2.2
		c-5.2-2.2-13.6-19.5-12.8-34.4c0.8-16.2,4.4-16.5,7.2-16.7c0.2,0.1,0.6,0.3,1.2,0.7c1.1,0.9,2.6,2.6,4,5.2
		C285,319.4,286.8,326.5,286.8,332.6z"/>
	<path class="st0" d="M340.3,370.7c-7.3,3.2-1.6,27.6,1.6,35.7c3.2,8.1,14.6,0,15.4-5.7C358.7,391.5,347.6,367.4,340.3,370.7z"/>
	<path class="st0" d="M972,401.5c-6.4-0.8-14.1,14.5-15.8,20.1c-1.6,5.6,9.8,5.2,13.1,2.4C974.5,419.4,978.5,402.3,972,401.5z"/>
	<path class="st0" d="M434.8,282.7c-9.4-1.3-14.3,5.3-17.8,18.4c-3.5,13.1-0.1,33.3,8.1,39c9.7,6.7,16.4-7.4,20.3-26
		C448.1,301.5,444.2,284,434.8,282.7z M438.4,316.9c-1.9,9-4.2,15.5-6.5,18.9c-2.8-4.1-5.9-16.8-3.1-27.4c1.6-6.2,3.3-9.3,4.5-10.6
		c0.5-0.6,0.8-0.9,2.6-0.7c0.6,0.7,1.2,2.4,1.9,4.6C439.1,306.3,439.4,312.2,438.4,316.9z"/>
	<path class="st0" d="M1160,486.5c-3.1-2.4-6.6-1.5-11.1,1.6c-4.6,3.1-8.4,9.7-6.8,13.1c1.9,4,7.8,1.3,13.9-3.3
		C1160.1,494.8,1163.1,488.9,1160,486.5z"/>
	<path class="st0" d="M1167.2,472.5c-3.3-3.3-7.4-5.9-12-7.3c-3.6-1-7-1.3-10.3-0.9c-2-3.7-6.2-7.2-13.2-10.8
		c-3.3-3.1-8.3-6.1-15.4-9.1c-5-2.1-9.4-2.8-13.5-2.4c-3.1-5.9-8.4-11.1-15.2-13.8c-4.1-4.1-9.5-7.2-15.8-8.3
		c-4.8-0.8-9.1-0.5-13,0.7c-3.3-4.9-8.3-9.2-14.3-11.9c-4.6-4.4-10.8-7.7-17.5-8.9c-6.5-1.1-12.1-0.2-17,2.1
		c-1.3-7.4-5.4-14-14.1-16.7c-3-3.8-7.6-6.6-14.2-7.5c-5.7-0.8-11.1-0.1-16.2,1.5c5.6-6,10.9-13.9,15.3-24
		c6.9-15.8,3.3-49.3-21.9-61.1c-4.8-4.4-11-7.8-18.6-9.5c-34.1-7.6-59.5,27.5-74.9,60.6c-1.4-0.9-3-1.7-4.8-2.4
		c-3.8-4.5-10.9-8.1-23.1-9.8c-7.1-1-13.2,0.8-18.2,4.2c-1.3-3.8-3.9-8.3-9.3-9.1c-0.6-0.1-1.1-0.1-1.6-0.1c-1.5-3-4-5.7-8.1-6.4
		c-5.9-0.9-10,3.5-12.3,6.8c-0.6,0.8-1.1,1.7-1.7,2.7c-1.5-3.1-4.1-5.9-8.3-6.9c-0.6-0.2-1.3-0.3-1.9-0.4c-1.4-2.4-3.4-4.5-6.5-5.7
		c3.9-0.4,8.3-1,12.7-1.9c6.9-1.4,14.2-3.5,20-6.9c5.8-3.4,11-8.7,11.3-16.5c0.5-12.9-9.1-21.9-20.4-28c-3.7-3.1-8-5.7-12.5-7.9
		c-12.9-6.2-29.3-10-43.9-11.6c-14.7-1.7-33.8-1.4-50.1,1.7c-15.4,2.9-31.6,8.9-35.8,21.3c-3,9,0.2,16.4,5.8,21.9
		c2.9,2.8,6.6,5.2,10.5,7.2c5.3,4.8,12.7,8.2,19.7,10.7c4.2,1.5,8.5,2.6,12.5,3.6c-1.8,4.8-3.9,10.9-5.7,17.9
		c-3.1-6.5-7.8-12.3-14.9-14.5c-4.4-5-10.5-8.2-18.7-7.3c-9.5,1-16.4,6-21.6,13c-2.6-2.6-5.8-4.7-9.3-6.1
		c-5.9-5.9-14.4-9.6-24.6-8.4c-9.1,1.1-15.2,6-19.3,12.6c-2.1-1.6-4.5-3-7-4.1c-6.7-6.5-16.4-10.4-27.6-8
		c-11.2,2.4-17.2,10.2-20.6,19.5c-3.4-5-7.8-9.3-13.4-11.1c-5.2-5.6-12.1-9-21.2-6.8c-3.6,0.9-6.8,2.3-9.7,4.2
		c-0.1-3-0.2-6.2-0.6-9.5c-1.4-13.9-13.2-34-31.3-43.4c-11.3-9.3-26.2-14.7-43.4-9.8c-37.5,10.9-43,59.7-39.6,101.4
		c-3.4-3.2-7.2-5.9-11.2-7.8c-6.7-5.8-14.6-9.9-23.1-8.9c-0.3-8.2-1.5-17.2-3.8-27c-4.2-18.1-15.4-32.3-30-39.9
		c-17.1-14.1-41.8-17.8-66-4.8c-41.3,22.1-39.3,85.9-28.6,136.2c7.6,35.8,36,81.6,65.2,97.8c14.3,11.1,29.4,16,42.7,9.7
		c10.5-4.9,13.3-15.3,12.9-25.8c-0.3-7.4-2.2-15.6-4.9-23.7c3.1,6.9,6.7,13.3,10.8,17.7c2.5,2.7,5.6,5,9.2,5.9l0.5,0.6
		c4.3,4.6,10.6,8.3,17.7,5.1c7.3-3.3,8.8-11.2,8.8-17c0-1.8-0.1-3.6-0.3-5.4c2.3,2.1,4.9,3.7,7.7,4.4c4.7,5.4,11.2,8.7,19,5.9
		c3.2-1.1,5.2-3.7,6.3-6.2c1.2-2.5,1.8-5.5,2.2-8.5c0.2-1.8,0.3-3.7,0.4-5.6c1.7,1.1,3.4,2.1,5.2,2.8c6.2,6.1,13.7,9.4,22.7,7.2
		c7.3-1.7,11.5-7.2,13.5-13.5c0.7-2.3,1.2-4.7,1.5-7.3c1.6,1.1,3.4,2,5.3,2.6c5.7,6.1,13.3,9.5,23.4,5.8c4.8-1.7,7.7-5.4,9.5-9.6
		c2.4,3.1,5.8,5.6,10.5,5.1c9.4-1.2,13-7.3,13.6-13.8c0.1-0.8,0.1-1.5,0.1-2.3c1,0.4,2,0.8,3,1c3.6,4.9,9.2,7.5,16.2,7
		c6.5-0.5,9.4-6.5,10.8-10.9c0.4-1.2,0.7-2.5,1-3.8c1.9,1.5,4,2.7,6.4,3.2c3.3,3.8,7.8,7.2,13.5,6.7c7.6-0.6,11.6-5.8,13.2-11.6
		c1.4-5.4,0.9-11.9,0-17.6c-1.1-6.7-3.1-13.4-4.6-17.8c0.9-0.4,2-0.9,3.1-1.4c0.6,4.5,1.4,8.8,2.5,12.8c1.6,6.1,3.9,11.9,6.8,16.1
		c2.4,3.4,5.8,6.7,10.3,7.3c2.9,3.8,7.1,7.2,12.8,6.5c7.5-0.9,12-5.4,14.1-11.1c2-5.3,2-11.5,1.5-17c-0.6-5.5-1.8-11-3-15.1
		l-0.3-1.2c1.9-0.6,4.1-1.5,6.4-2.8c0.2,4.2,0.6,8.5,1.1,12.4c0.8,6.1,2.1,12,4,16.4c1.7,4,5.1,9.3,11.2,9.3c2,3.3,5,6.5,9.8,6.5
		c7.5,0,11.4-4,12.9-8.8c0.8,0.2,1.6,0.4,2.5,0.6c2.3,3.9,6.1,6.6,12.2,6.6c3.1,0,5.4-1.8,6.8-3.3c1.5-1.6,2.7-3.6,3.7-5.7
		c0.7-1.5,1.4-3.2,2.1-4.9c2.3,4.3,5.9,7.8,11.2,8.9c2.6,3.6,6.3,6.3,11.4,6.7c8.3,0.8,15.4-3.3,21.1-9.3c1.9,3.1,4.9,5.6,9.4,6
		c2,3.5,5.2,6.3,10.3,6.5c6.2,0.3,10.7-3,13.8-7l0.5-0.7c1.8,3.2,4.9,5.6,9.5,6c1.9,3.5,5.2,6.3,10.3,6.5c5.6,0.3,9.9-2.3,13-5.8
		c1.7,1.4,3.7,2.4,6,3.2l0.6,0.2c2.3,2.8,5.2,5.1,9.2,6.3c10.6,3.3,21.9,1.1,30-4.8c2.4,5.5,6.5,9.8,13,11.9
		c2.6,3.1,6.1,5.5,10.7,6.8c8.9,2.5,16.1-1.5,21.6-7.4c1,3.1,2.5,5.9,4.4,8.2c2.3,2.7,5.3,4.4,8.6,4.9c0.4,0.5,0.8,1.1,1.2,1.6
		c4.3,5,10.4,6.5,17.4,3.8l0.7,0.5c1.9,1.3,3.9,1.9,5.7,1.9c0.9,1.8,2.2,3.4,4,4.6c5.3,3.6,10.5,1.4,13.8-1.2
		c1.8,1.8,4.3,2.9,7.4,3.2c1.8,3.8,5.4,6.3,10.6,6.6c3.2,0.1,6.2-1.3,8.8-3.1c1.6,2.8,4.1,5.1,7.7,6.2c0.8,0.3,1.5,0.4,2.2,0.5
		c1.6,2.7,4,4.8,7.5,6c5.7,1.8,10.6-0.3,14-3.6c3.2-3.1,5.6-7.4,7.2-11.2c1.7-3.9,2.9-8,3.8-11.5c1.5,0.1,3.2,0.2,5.2,0.1
		c-1.9,4.9-3.1,9.9-3.6,14.6c-0.9,8.1,0.4,18.9,10,21.9c0.8,0.2,1.5,0.4,2.3,0.5c1.6,2.7,4,4.8,7.5,6c5.6,1.8,10.3-0.3,13.6-3.4
		c3.1-3,5.4-7.1,7-10.8c1.6-3.7,2.8-7.5,3.5-10.4l1.7,0.2c-6.4,14.2-5.2,28.1,8.4,34.8c0.8,0.4,1.7,0.8,2.5,1.1
		c1.8,2.1,4.2,3.9,7.2,5.4c5.5,2.7,11.6,4,17.4,3.7c1.4,1.8,3.6,3.3,6.5,4.3c0.7,0.2,1.4,0.4,2.1,0.6c1.4,2.5,3.8,4.6,7.6,5.9
		c3.5,1.2,6.7,1.1,9.5,0.3c2.3,3.6,5.6,6.7,10.3,7.3c2.8,4.1,7.2,7.4,13.5,6.4c12.6-1.9,14-13,13.2-20.3c-0.4-3.4-1.2-6.7-2-9.5
		c6.9-1.2,15.1-4.3,21.5-13.7C1190,497,1181.9,478.3,1167.2,472.5z M522.9,429.1c-8.5,0.6-14.6-4.8-14.7-15.4
		c-0.2-10.6,0-19.6,0-19.6s-1.6,1.2-6.6,1.6c-5,0.5-6.3,0.2-6.3,0.2s1.8,9.4,2.4,17.8c0.6,8.4,5,21.9-8,23.5
		c-5.5,0.7-9.7-8.3-12.8-20.3c1,12-1,22.5-8.3,25.2c-24.3,8.9-31.4-36.1-40.6-57.6c5.8,20.7,17.7,65-2.4,69.8
		c-16,3.8-27.9-15.2-35.8-40.1c4.5,22.4,6.5,47.8-1.5,50.6c-9.5,3.4-17.9-7.3-20.3-18.7c-2.4-11.4-1.6-16.2-1.6-16.2
		s-1.6,1.6-7.3,3.2c-5.7,1.6-7.3,1.6-7.3,1.6s1.6,4.9,4.1,13.8c2.4,8.9,5.4,24.5-3.2,28.4c-16.2,7.3-30.8-42.2-35.7-66.5
		c-2.8-13.9-2.4-30.4,1.2-43.7c-10.4,26.7-31.2,36.4-31.2,36.4s50.3,79.5,19.5,94.1c-30.8,14.6-80-46.2-90.9-97.4
		c-10.9-51.1-11.5-110.5,26-130.6c34.9-18.7,70.6,0,78.7,34.9c5.4,23.1,4.3,41.4,0.3,55.6c3.5-8.7,8.8-15.3,15.9-17.4
		c19.4-5.9,39.7,25.1,47,47c-2.3-11.1-3.9-22.3-4.8-32.4c-4.2-43.5,1.4-90.3,35.5-100.2c31.8-9.2,56.4,22.6,58.3,42.2
		c3.4,34.1-9.3,53.2-21.9,63.6c5.3,4.3,7.4,6.9,14.1,15.4c3.2,4.1,6.5,11.6,8.9,20.1c-1.2-9.1-1.9-18.2-1.9-25.3
		c-0.1-24.8,7.3-52.8,27.2-57.6c21.2-5.1,28.9,29.4,31.5,50.3C532.6,386.4,534.2,428.3,522.9,429.1z M556.8,379
		c0,0,17.2,43.6-2.3,45.2c-13.1,1.1-24.4-34-22.8-58.1c1.7-24.1,2.5-48.3,21.9-52.4c18.1-3.9,31.6,12.1,30.9,25.6
		C582.5,375.1,556.8,379,556.8,379z M604.5,375.6c0,0,14.9,40.5-6.2,43c-12.7,1.5-20.5-34.6-16.8-57.4c3.7-22.8,6.5-45.6,25.5-47.9
		c17.8-2.2,29.5,14.1,27.6,26.8C629.7,373.9,604.5,375.6,604.5,375.6z M671.3,414.5c-7.7,0-10.6-7.3-9.6-16.5
		c1-9.1,2.2-16.8,2.2-16.8s-1.6,0.8-6.1,0.7c-4.5-0.1-5.7-0.5-5.7-0.5s0.6,8.3,0.2,15.6c-0.4,7.3,2.8,19.1-8.5,19.1
		c-10.6,0-12.9-37.6-10.5-57.1c2.6-21.3,10.8-42.3,29.1-44.3c19.6-2.2,24.4,26,24.3,44.2C686.7,377.2,679.4,414.5,671.3,414.5z
		 M707,416.1c-17.9-1.6-13-43-9.7-67.3c3.2-24.3,13-43.8,13-43.8s-61.7-6.5-52.7-33.3c6.1-18.3,51.9-22.7,80.3-19.5
		c28.4,3.2,63.3,14.6,62.5,35.7c-0.8,21.1-53.5,21.1-53.5,21.1s0,33.2-4.1,56.8C738.7,389.3,724.9,417.7,707,416.1z M827.1,387.7
		l-4.9,11.4c0,0,25.3,1.3,23.5,11.4c-2.4,13.8-18.7,22.7-34.1,17.8c-11-3.5-13.3-19-11.4-34.6c-3.1,14.7-7.4,31.2-18.6,30.6
		c-15.4-0.8-2.4-35.7-2.4-35.7l-13.8-3.2c0,0-2.3,34.9-17.9,34.1c-15.4-0.8-5.7-41.4-2.4-62.5c3.2-21.1,10.5-35.7,23.5-32.4
		c13,3.2,2.4,35.7,2.4,35.7l12.2,2.4c0,0,7.3-35.7,17.9-34.1c9.8,1.5,7,31,3.3,46.9c6.5-19.4,16.2-38,34-35.6
		c23.2,3.2,23.5,13,21.9,19.5c-1.6,6.5-22.7,0-22.7,0l-5.7,8.9c0,0,26.8,2.4,21.1,16.2C847.4,398.3,827.1,387.7,827.1,387.7z
		 M959.4,468.5c-8.2-0.3-8.2-8.9-4.5-16c3.7-7.1,7.2-13,7.2-13s-1.9,0.3-6.4-0.8c-4.6-1.1-5.7-1.7-5.7-1.7s-1.9,6.8-4.4,12.5
		c-2.6,5.7-9.5,15.3-15.3,11.3c-4.4-3-4.5-11.2-2.5-20.4c-2.6,5.8-6.7,10.6-12.6,12.9c-20.7,8-18.7-34.3-16.6-54.6
		c-4.4,18.3-15.6,48.3-33.3,43.4c-24.4-6.7-10.1-55.3,4.9-89.2c15.5-35,39.9-68.4,70.7-61.5c28.7,6.4,34.1,41.1,27.1,57
		c-12.1,27.5-30.1,36.8-44.4,39.3c2.3,5.5,6,15.7,7.5,25c0.8,4.9,0.9,10.7-0.1,16.5c1.8-5.1,4.1-10.1,6.4-14.3
		c9-16.5,25.9-32.9,45.3-30.3c20.7,2.8,14.9,27.9,9.4,42.5C986.7,441.6,968.7,468.9,959.4,468.5z M1006.4,451.3
		c0,0-5.7,31.5-19.4,27.1c-11.3-3.6-7.3-27.8,3-43.4c10.3-15.6,19.9-31.6,37.8-28.4c16.7,2.9,25.5,18.7,19.9,27.4
		C1032.9,457.3,1006.4,451.3,1006.4,451.3z M1051.9,469.3c0,0-5.5,30.1-18.7,25.9c-10.9-3.5-7-26.5,2.9-41.5
		c10-14.9,19.2-30.1,36.4-27.1c16.1,2.8,23.5,20,18.1,28.4C1076.4,477.4,1051.9,469.3,1051.9,469.3z M1078,512.3
		c-12.6-6.2-12.4-22.4,1.5-40.1c10.2-13,17.5-29.4,36.4-21.4c18.9,8,18.3,13.7,15.7,18.3c-2.6,4.6-21.4-4.4-21.4-4.4l-5.7,8.1
		c0,0,23.6,4.6,16.1,14.1c-7.5,9.5-23.4-2.7-23.4-2.7l-6.4,8.7c0,0,22,5.1,18.6,12.5C1104.8,515.4,1090.7,518.5,1078,512.3z
		 M1171.1,498.9c-7.3,10.7-17.1,11.8-24.3,12.2c0.9,2.4,11.4,26.8-4.9,29.2c-10.8,1.6-14.5-18.3-12.5-26.5
		c-3.1,7.3-9.7,15.5-18.3,12.7c-11.8-3.9-2.7-19.6,6.3-32.8c9.4-13.6,23.1-26.1,38.1-21.8C1169.4,475.9,1175.3,492.7,1171.1,498.9z"
		/>
	<path class="st0" d="M1031.2,419.9c-4-2.3-7.8-0.9-12.5,3.1c-4.7,4-7.9,11.9-5.5,15.5c2.8,4.3,9.2,0.6,15.4-5.3
		C1032.8,429.2,1035.2,422.2,1031.2,419.9z"/>
	<path class="st0" d="M1078,442.5c-3.9-2.2-7.5-0.9-12,3s-7.6,11.3-5.3,14.8c2.7,4.1,8.9,0.5,14.9-5.1
		C1079.6,451.4,1081.8,444.7,1078,442.5z"/>
</g>
</svg>
