<?xml version="1.0" encoding="utf-8"?>
<!-- Generator: Adobe Illustrator 19.0.0, SVG Export Plug-In . SVG Version: 6.00 Build 0)  -->
<svg version="1.1" id="Layer_1" xmlns="http://www.w3.org/2000/svg" xmlns:xlink="http://www.w3.org/1999/xlink" x="0px" y="0px"
	 viewBox="1185.7 -105.5 2732.8 1009.1" style="enable-background:new 1185.7 -105.5 2732.8 1009.1;" xml:space="preserve">
<style type="text/css">
	.st0{fill:#FFFFFF;}
</style>
<g transform="translate(0.000000,1124.000000) scale(0.100000,-0.100000)">
	<path class="st0" d="M32087,12275c-23-12-41-28-39-35c1-6-2-9-7-6c-9,6-63-68-94-130c-74-145-130-395-162-724c-13-130-14-856-2-905
		c3-11,8-65,11-120c4-55,8-111,11-125c2-14,7-61,10-105s9-93,12-110c3-16,5-37,5-45c0-17,35-292,42-330c3-14,12-70,20-125
		c9-55,19-113,24-130c17-61,18-61-171-59c-95,1-176,2-182,3s-10,66-11,174c0,156-11,431-19,499c-2,14-6,68-10,120
		c-3,51-8,100-10,108s-7,49-10,90s-8,82-10,90s-7,44-10,80c-4,36-9,68-11,71c-2,4-6,27-9,50c-12,98-72,377-92,429c-3,8-8,24-10,36
		c-3,20-43,139-77,229c-51,139-142,284-212,342c-40,32-54,38-95,38c-64,0-96-25-136-105c-51-102-62-188-58-455c3-207,19-373,48-510
		c3-11,8-40,12-65c11-69,61-282,95-405c17-60,37-135,46-165c32-119,122-402,144-455c18-43,62-171,63-185c2-12-30-14-213-15h-215
		l-2-277c-1-234-4-280-16-293c-9-8-18-15-21-15c-13,0-197-139-285-215c-46-39-195-188-246-245c-61-67-175-216-175-228c0-6-4-12-8-14
		c-16-6-129-194-189-314c-108-217-192-465-227-669c-36-206-46-352-42-555c4-166,12-246,37-385c6-33,13-71,15-85c3-14,18-75,34-137
		c58-217,140-416,253-613c33-58,64-107,69-108c4-2,8-8,8-14c0-13,131-198,140-198c4,0,12-10,17-23c29-63,443-457,481-457
		c6,0,12-4,12-9c0-13,206-144,323-205c90-48,167-82,327-146c50-20,286-86,339-95c19-3,37-7,40-9s26-7,51-10s56-8,69-11
		c103-20,518-28,661-13c59,6,208,30,270,42c167,35,430,126,600,210c105,52,291,161,320,188c11,10,22,18,24,18c22,0,232,176,346,290
		c238,238,391,460,541,785c62,135,151,416,173,545c3,19,8,46,10,60c26,148,31,209,31,425c0,210-8,386-19,404c-2,3-7,26-10,51
		c-6,42-10,67-20,115c-43,211-149,494-258,695c-48,89-176,284-189,288c-5,2-9,8-9,14c0,32-327,381-425,453c-22,17-42,33-45,37
		c-8,10-139,106-187,136l-42,27l-1,280v280h-300c-165,0-300,4-300,9c0,4,21,51,46,104s57,123,70,156c14,34,35,81,46,106
		c43,94,196,498,240,634c168,521,225,971,152,1201c-9,30-21,55-25,55c-5,0-9,5-9,11c0,16-26,38-62,53c-136,54-310-160-476-581
		c-29-73-54-140-55-150c-2-10-7-25-10-33c-44-116-130-468-162-662c-3-18-7-44-10-58s-7-40-10-57c-3-18-7-48-10-65c-3-18-7-44-10-58
		c-11-58-17-97-20-135c-3-22-6-51-9-65s-7-47-11-75c-3-27-8-63-10-80c-4-31-10-98-21-225c-3-41-8-77-11-80c-2-2-51-5-110-5l-105-1
		l5,41c3,22,14,90,25,150c11,61,28,160,37,220c9,61,18,120,20,131c2,12,6,48,10,80c4,33,9,70,11,84s6,50,9,80s8,69,10,85
		c2,17,9,86,15,155s13,139,15,155c24,173,24,829,1,975c-3,14-7,52-11,85c-5,53-14,112-30,195C32400,12160,32248,12362,32087,12275z
		 M32345,8285c182-19,412-88,585-175c514-259,869-769,938-1345c14-122,7-375-14-490c-67-361-228-670-479-920
		c-106-106-161-155-174-155c-5,0-11-3-13-8c-7-16-109-83-231-151c-165-92-407-165-627-190c-102-11-339-6-430,9c-36,6-76,13-90,15
		s-59,13-101,24c-433,116-807,399-1041,786c-44,72-128,258-157,345c-85,260-107,555-61,826c23,135,79,321,128,423c17,36,28,69,25,74
		c-3,6-1,7,5,3c6-3,14,4,18,16c19,61,186,297,267,378c19,19,33,38,30,43c-2,4-1,6,4,5c5-2,29,16,53,39c25,23,70,61,100,84
		c30,24,57,46,60,49c14,15,135,89,208,127c143,76,369,154,487,169c21,3,42,7,46,10c4,2,47,7,96,10c48,4,89,7,90,8
		C32072,8299,32287,8291,32345,8285z"/>
	<path class="st0" d="M32098,7585c-2-1-31-5-64-8c-149-14-321-78-457-170c-63-42-247-220-247-238c0-5-8-18-18-29
		c-26-28-96-165-121-235c-47-136-67-328-48-465c59-442,399-798,837-875c19-3,85-8,145-10c167-6,300,21,453,91
		c113,53,271,164,264,187c-1,5,2,6,6,3c11-6,90,82,146,163c75,109,143,278,163,411c9,59,9,252,0,315c-40,271-211,537-442,688
		c-44,29-91,58-105,64s-47,21-75,33c-59,27-168,56-240,65C32243,7582,32102,7589,32098,7585z"/>
	<path class="st0" d="M20501,11320c-57-12-191-75-191-90c0-6-4-9-9-6c-7,5-75-62-117-116c-26-33-68-130-80-183
		c-48-220,56-456,250-565l58-33l-6-51c-4-28-9-86-11-129c-3-42-7-90-9-105c-3-15-7-67-11-117c-3-49-8-101-10-115s-6-61-10-105
		c-3-44-8-93-10-110c-2-16-7-70-10-120c-4-49-8-103-10-120c-2-16-6-66-10-110c-3-44-8-98-10-120s-7-67-10-100c-3-32-8-61-11-64
		c-5-5-15-6-174-15c-134-8-222-14-282-21c-27-3-72-7-100-10c-61-7-259-33-303-41c-181-30-274-48-350-65c-49-12-97-22-105-24
		c-145-32-424-124-554-182c-44-20-83-38-85-39c-3-3,68-91,104-130c6-6,28-32,50-59s54-65,71-84c17-20,86-101,154-181
		c67-80,141-167,164-194c22-27,45-55,49-62c6-11,20,1,53,45c86,115,238,235,420,332c43,24,81,47,82,51c2,4,7,6,12,3s37,8,72,24
		s79,34,98,41s44,16,55,20c42,17,150,50,164,50c12,0,16-12,17-53c1-81,15-465,19-527c1-30,6-120,10-200c3-80,8-167,10-195
		c2-27,7-102,10-165c4-63,8-133,10-155s7-83,10-135c12-195,15-246,20-285c3-22,7-80,10-130c3-49,9-144,15-210s13-149,15-185
		c3-36,7-85,10-110c2-25,7-79,10-120s8-91,10-110s7-69,10-110c4-41,8-86,10-100s6-65,10-115c3-49,8-101,10-115s6-56,10-95
		c3-38,8-88,10-110c10-90,26-243,30-285c6-57,15-135,20-180c2-19,7-66,11-105c3-38,8-77,9-85c2-8,6-44,9-80c4-36,9-81,11-100
		c9-77,77-616,80-635c1-11,6-47,9-80c4-33,9-67,11-75s7-37,10-65c4-27,13-93,21-145c13-90,16-108,30-190c3-19,8-51,10-70s7-48,11-65
		c3-16,7-39,8-50c2-17,27-161,39-220c70-349,127-529,176-555c18-10,26-8,47,12c25,23,51,66,59,96c2,10,15,50,29,90
		c21,60,61,215,81,317c2,11,6,31,9,45c9,43,25,128,40,217c2,16,7,39,9,53c3,14,7,41,10,60s14,94,25,165c11,72,23,150,26,175
		s8,56,10,70s7,48,10,75c3,28,8,66,10,85c7,53,35,279,41,330c3,25,7,59,9,75c2,17,7,62,10,100c4,39,9,78,11,88s6,48,9,85
		s8,85,11,107c8,69,13,118,19,180c3,33,7,76,10,95c2,19,7,71,10,115c4,44,8,94,10,110c5,35,10,92,25,265c6,69,12,145,15,170
		c2,25,7,79,10,120s8,100,10,130c3,30,7,89,10,130s8,98,10,125c12,151,27,351,40,545c3,47,7,117,10,155c3,39,7,115,11,170
		c3,55,7,123,9,150c6,101,21,371,30,565c3,74,8,171,10,215c5,103,16,424,20,588c1,70,5,130,8,133c11,11,260-72,346-116
		c23-11,41-18,41-16c0,8,185-96,266-150c100-67,205-161,259-235l41-56l80,95c43,52,84,100,89,106c6,6,33,38,60,71c28,33,55,66,62,73
		s29,34,50,60s43,52,49,57c24,22,216,256,213,259c-13,9-120,55-219,92c-213,81-597,179-820,209c-25,3-52,8-60,10s-39,7-69,10
		c-30,4-61,8-70,10c-17,3-102,14-161,20c-19,2-57,6-85,9c-27,3-86,8-130,11s-100,8-125,10c-25,3-82,5-128,7c-46,1-85,5-88,9
		c-2,5-7,39-9,76c-3,37-7,86-10,108c-2,22-7,76-10,120s-8,91-10,105s-7,63-10,110c-4,47-8,100-10,118s-7,68-10,110s-8,93-10,112
		s-7,76-11,125c-3,50-8,97-9,105c-2,8-6,58-9,110c-4,52-9,111-12,131c-5,35-4,37,51,68c117,66,214,194,249,327c25,94,10,280-25,319
		c-5,5-9,15-9,23c0,23-76,126-126,171c-49,44-163,105-219,116C20681,11327,20546,11329,20501,11320z M20731,11044
		c155-78,190-289,68-414c-57-59-105-78-200-82c-79-2-183,62-222,138c-25,48-42,170-25,180c5,3,8,13,8,23c0,30,57,109,100,137
		C20543,11081,20645,11088,20731,11044z M21062,8483l26-12l-28-78c-46-128-74-191-175-395c-148-299-250-458-285-443
		c-38,15-208,311-316,550c-10,22-23,43-28,47c-6,4-8,8-4,8c3,0-13,44-37,98c-54,124-78,199-71,218c3,8,9,13,13,11c5-3,26-1,48,3
		C20268,8503,21030,8496,21062,8483z"/>
	<path class="st0" d="M38461,9235c-9-17-149-431-156-460c-1-5-5-17-8-25c-9-21-58-172-62-190c-2-8-4-16-5-17c-2-2-3-6-5-10
		c-1-5-4-15-8-23c-3-8-97-289-208-625c-111-335-242-731-291-880c-50-148-91-274-92-280c-1-5-4-14-7-20c-5-8-68-198-74-225
		c-1-3-5-12-8-20s-15-44-27-80c-11-36-24-71-28-77c-5-8-203,573-487,1425c-263,790-482,1439-487,1440c-4,2-6,7-3,12c3,4,0,22-7,41
		l-11,32l-32-94c-57-164-427-1284-429-1294c-1-5-4-14-7-20c-7-10-29-77-33-98c-2-7-6-21-10-32c-32-84-38-101-38-105c0-3-2-9-4-15
		c-18-51-197-592-199-600c-1-5-5-17-8-25c-8-20-540-1622-543-1635c-1-5-25-77-53-160c-28-82-52-152-52-155c-2-6-3-8-40-120
		c-17-52-32-99-34-105c-1-5-5-17-8-25c-9-23-78-224-79-230s5,11-69-210c-34-102-62-189-63-195c-1-5-5-16-9-22c-5-7-6-16-3-21
		c5-8,712-10,719-2c2,3,138,408,301,900c164,492,300,902,303,910s7,20,9,25c10,38,375,1119,378,1122c2,2,12-20,21-49
		c10-29,20-57,24-63c3-5,6-14,7-20c2-11,301-912,311-935c3-8,7-19,8-25c12-51,211-631,217-633c4-2,6-7,3-12s0-21,6-37
		c7-15,13-32,15-38c3-14,84-256,91-275c3-8,7-19,9-25c4-18,104-320,111-335c3-8,7-19,9-25c1-5,38-117,82-247c66-200,80-234,89-215
		c5,12,112,333,237,712c126,380,230,697,233,705c78,223,646,1935,647,1950c1,8,4,17,7,20c5,4,51,140,65,190c2,8,56,170,119,360
		c297,887,396,1192,390,1198c-4,4-166,7-360,7C38480,9255,38470,9255,38461,9235z"/>
	<path class="st0" d="M11857,9244c-3-4,208-652,230-704c3-8,7-19,8-25c4-15,225-678,232-695c3-8,7-21,9-28c1-8,6-21,10-30s8-21,9-27
		c6-23,66-199,72-209c4-6,8-17,9-26c2-19,142-438,151-454c4-6,8-17,9-26c1-13,176-544,191-580c3-8,7-17,8-20c4-19,29-87,33-95
		c3-5,7-16,8-25c1-17,723-2177,734-2200c7-13,56-15,363-15c196,0,358,3,361,6s-133,421-302,928l-308,924l80,52
		c94,60,431,271,461,288c11,7,34,21,50,33c17,11,77,49,135,84s107,68,108,72c2,4,8,8,13,8c6,0,40,19,77,43c66,43,439,277,477,300
		c11,7,34,22,52,34c17,13,35,23,38,23c10,0,199,123,203,132c2,5,9,8,15,8c7,0,50,25,96,55s85,55,86,55c4,0,497,310,526,330
		c15,11,32,20,38,20s11,5,11,10c0,6,4,10,9,10c8,0,67,36,215,130c13,8,42,26,65,39c22,14,41,28,41,32c0,5-1956,662-2005,674
		c-5,1-17,5-25,8c-18,7-1280,428-1295,432c-5,1-17,5-25,8c-19,8-562,189-575,192c-5,1-17,5-25,8c-16,7-558,187-575,191
		c-11,3-39,13-72,26C11872,9245,11860,9247,11857,9244z M13046,8119c49-17,96-32,104-34s130-42,270-90c140-47,260-87,265-89
		c38-9,1171-389,1177-394c4-4-45-40-110-80c-386-241-738-462-747-469c-5-4-27-17-47-28c-21-11-38-23-38-27c0-5-5-8-10-8
		c-9,0-302-181-336-207c-9-8-22-15-86-52c-15-9-29-13-31-11c-5,5-507,1507-507,1516C12950,8152,12950,8152,13046,8119z"/>
	<path class="st0" d="M23632,9224c-7-14-10-29-7-34s2-10-2-12c-6-2-73-189-79-220c-1-5-2-9-3-10c-2-4-112-332-115-343
		c-2-5-6-17-9-25c-21-53-560-1688-561-1700c-1-8-4-17-7-20c-5-4-125-360-134-395c-1-5-7-23-14-38c-6-16-9-32-6-37s1-10-4-12
		c-6-2-142-398-156-453c-1-5-5-17-8-25c-9-23-59-174-62-185c-1-5-5-17-8-25c-9-24-148-441-153-459c-4-19-306-927-329-991
		c-9-25-24-70-34-100l-17-55h359c309,0,361,2,368,15c17,29,69,193,64,200c-3,5-1,10,3,12c9,3,144,399,146,427c1,9,3,18,6,21
		c9,8,163,473,164,493c0,9,3,17,7,17c3,0,14,27,24,60c10,34,22,63,26,65c3,3,85-22,180-56c96-33,219-75,274-94c55-18,164-56,243-84
		c78-27,142-47,142-44s6,1,13-4c6-6,75-31,152-57s149-51,160-56c11-4,35-13,53-20c17-7,32-15,33-19c0-3,67-202,147-441l147-435h363
		c200,0,366,3,368,7c3,4-63,209-145,455c-217,645-688,2045-694,2063c-3,8-132,395-288,860C23610,9351,23644,9253,23632,9224z
		 M23859,6410c115-344,208-626,206-628s-56,15-122,38c-65,23-127,44-138,47c-11,2-29,9-40,13c-27,12-285,101-310,107
		c-11,2-29,8-40,13s-41,16-67,26c-26,9-46,19-44,23c2,3,74,220,161,481c175,528,176,529,181,515C23648,7040,23744,6754,23859,6410z"
		/>
	<path class="st0" d="M24763,9236c3-7,389-1162,857-2567c469-1405,856-2561,861-2569c6-13,59-15,364-15c196,0,358,2,360,6
		c3,4-105,340-138,429c-3,8-20,60-37,115s-35,109-40,120c-17,39-390,1170-390,1182c0,10,241,169,300,198c11,5,20,13,20,17
		c0,5,5,8,10,8c6,0,41,20,78,43c37,24,85,54,107,67s42,26,45,29c9,10,45,31,63,37c9,4,17,10,17,15s5,9,12,9c6,0,26,11,44,25
		s35,25,38,25s38,21,78,46c127,81,142,90,198,126c30,19,119,75,198,124s169,106,200,126c31,21,64,40,72,44c18,9,103,65,110,73
		c3,3,11,7,18,9c8,1,26,11,40,21c31,22,321,205,367,231c84,49,403,250,421,266c12,11,27,20,33,22c11,2,90,51,101,62c3,3,21,14,40,24
		c19,11,70,42,113,70l78,50l-158,53c-86,29-159,50-162,48c-2-3-10,0-16,5c-13,11-909,312-935,315c-9,0-21,4-27,8
		c-10,6-3191,1068-3301,1102C24767,9246,24759,9246,24763,9236z M25991,8109c68-22,133-44,144-49c19-8,1469-490,1490-495
		c6-1,23-7,38-14c16-6,48-16,73-22c24-6,44-14,44-18c0-6-156-107-201-129c-15-7-36-22-47-33c-12-10-24-19-27-19c-4,0-30-15-58-34
		c-29-18-148-94-266-167c-224-140-245-153-332-207c-168-103-235-145-241-156c-4-6-8-7-8-2s-8,2-17-6c-24-20-201-128-210-128
		c-8,0-23,44-187,535c-145,436-166,500-173,515c-3,8-7,20-9,25c-1,6-34,107-73,225s-71,216-71,218C25860,8152,25864,8151,25991,8109
		z"/>
	<path class="st0" d="M17360,8593c-118-356-215-649-216-652c0-3-4-13-7-21c-4-8-236-706-517-1550c-280-844-537-1616-570-1715
		c-34-99-63-187-65-195s-31-95-64-192c-33-98-56-179-53-179c19-4,699-5,709-1c6,2,25,47,43,100c17,53,34,104,37,112s7,20,9,25
		c19,68,355,1060,361,1066c5,5,81-16,168-47c88-31,171-60,185-64s138-47,275-95c138-48,322-111,410-141s172-59,186-65
		c22-9,32-26,59-112c19-56,36-106,39-112c3-5,6-14,7-20c2-10,100-306,111-335c3-8,7-19,8-25c2-5,24-73,50-150l46-140h367
		c329,0,367,2,366,16c-1,16-163,499-741,2219c-151,448-278,829-283,845c-8,31-156,468-167,495c-3,8-7,21-9,28c-1,8-6,21-10,30
		s-8,22-9,27c-4,14-64,197-72,215c-3,8-7,20-9,25c-6,25-146,442-154,460c-4,11-66,192-135,403c-70,210-130,384-134,386
		C17577,9237,17478,8948,17360,8593z M17686,6743c53-164,100-302,103-308c3-5,6-14,7-20c5-27,198-602,206-612c21-27-19-19-168,33
		c-88,31-163,57-169,58c-5,2-17,6-25,9c-46,20-103,36-110,32c-5-3-10-1-12,3c-1,5-60,28-130,52s-132,46-138,50
		c-11,7,317,1000,330,1000C17584,7040,17632,6906,17686,6743z"/>
</g>
</svg>
