<?xml version="1.0" encoding="utf-8"?>
<!-- Generator: Adobe Illustrator 19.0.0, SVG Export Plug-In . SVG Version: 6.00 Build 0)  -->
<svg version="1.1" id="Layer_1" xmlns="http://www.w3.org/2000/svg" xmlns:xlink="http://www.w3.org/1999/xlink" x="0px" y="0px"
	 viewBox="0 0 604 426.3" style="enable-background:new 0 0 604 426.3;" xml:space="preserve">
<style type="text/css">
	.st0{fill:#FFFFFF;}
</style>
<g>
	<path class="st0" d="M211.5,299.6c-1.5-1.2-2.1-2-3-2.4c-3.5-1.7-3.5-4.2-3-7.8c1.2-7.3,0.7-14.6-1.8-21.6
		c-2.8-7.6-9.9-12.5-18-12.7c-4.8-0.1-9.5,0-14.1,2.1c-7.3,3.4-12,15.1-5.5,23.4c3.3,4.2,7.4,7.7,12,10.3c7.2,4.2,14.6,7.9,21.8,12
		c11,6.3,20.9,14,29,24c5.7,7.1,10.2,14.8,13.3,23.2c3.3,9,5.1,18.4,3.7,27.9c-0.8,5.3-3,10.6-5.2,15.5c-3.2,7-7.5,13.3-13.2,18.5
		c-6.6,6-14.5,9.9-23.2,12c-5.7,1.4-11.4,2-17.2,2c-16.1,0.1-29.7-5.8-41.7-16.3c-8.4-7.4-13.6-16.6-17.1-27
		c-0.6-1.8-1.2-3.7-2.1-6.3c-1.3,2.3-1.9,3.9-2.9,5.1c-0.5,0.7-1.6,1.3-2.4,1.2c-2.1-0.2-5.6-4.1-5.6-6.3c0.2-10.5,2.3-20.3,10-28.4
		c7.2-7.6,16.3-10.5,26.1-12.2c2.4-0.4,3.4,0.5,3.9,2.8c0.8,3.3,0.9,6.1-1.7,9.1c-4.4,5-6.4,11.3-7.1,17.8
		c-0.7,6.1,1.1,11.7,4.7,16.4c3.3,4.3,7.3,8.1,12.2,10.9c11.8,6.8,23.4,5.5,35-0.7c8.4-4.4,13-11.4,14.2-20.4
		c1.2-8.6-0.2-16.8-5.2-24.2c-2.5-3.8-6-6.7-9.6-9.3c-7.5-5.5-15.4-10.5-22.8-16.1c-7.3-5.5-14.3-11.4-21.2-17.3
		c-6.4-5.5-10.6-12.7-13.8-20.4c-5.5-13.3-2.5-26.3,6.8-35.9c9.7-10,21.5-14.4,35.3-14.9c10.6-0.4,20.4,1.9,29.9,7.8
		c0.1-1.7,0.3-3.1,0.3-4.5c0-2,0-4-0.1-6c-0.1-2.2,0.6-4,2.7-4.9c1.6-0.7,4.2,0.6,5.3,2.8c1.6,3.1,3.1,6.3,4.4,9.5
		c1.2,2.8,2,5.8,3.1,8.9c0.6-4.5,0.9-8.6,1.6-12.7c0.3-1.8,1.1-3.5,2.1-5c1.4-2.3,3.3-2.5,5.4-0.8c1.1,1,2.1,2.1,3.2,3.2
		c1.8,1.9,4,2.8,6.7,2.8c16.7,0,33.3-0.1,50,0c3.9,0,6.6-1.7,8.6-5c0.6-1,1-2.1,1.7-3c0.9-1.3,2.1-2.3,3.8-1.7
		c1.6,0.6,3.1,1.2,3.5,3.2c1.5,8,3.9,15.8,3.1,24.1c-0.3,3.5-0.6,6.9-1.2,10.4c-0.3,1.6-0.8,3.3-3.4,4c-1.8-1.8-4-3.7-6-5.9
		c-2.2-2.5-4.7-4.1-8.2-4c-3.8,0.1-7.6,0-11.7,0c-0.2,1.4-0.6,2.5-0.6,3.6c0,32.5,0,65-0.1,97.5c0,2.8,0.7,5.3,2.8,7.2
		c3.1,2.7,3.8,6.1,2.9,10.2c-0.9,0.2-1.8,0.6-2.8,0.6c-9.5,0-19,0.1-28.5,0c-1.3,0-2.7-0.3-3.7-0.9c-4.7-3.1-4.9-5.5-0.8-9.4
		c2.9-2.7,4.1-5.7,4.1-9.7c-0.1-31.3-0.1-62.6-0.1-94c0-1.5-0.2-2.9-0.3-4.9c-4.2,0-8.2-0.3-12.1,0.1c-2.7,0.3-5.4,1.6-6.9,4.3
		c-1.1,2-2.7,3.7-4,5.5c-5.3-2.2-6.5-6.8-8.1-11.3C229.2,272.9,222.3,286.7,211.5,299.6z"/>
	<path class="st0" d="M517.1,106.9c-2.3,6.4-4.9,11.6-8.9,15.9c-2.8,3-5.9,5.8-8.9,8.6c-1.2,1.1-2.3,0.8-3.6-0.1
		c-4-2.8-4.5-3.9-2.8-8.8c2.1-6.3,2.8-12.6,0.2-18.9c-1.8-4.4-4.8-7.5-9.2-9.3c-5.9-2.3-12-3-18.1-1.4c-5.3,1.4-9,4.5-10.3,10.3
		c-1.3,5.7,0.6,10.4,4.7,13.9c4.1,3.6,8.8,6.5,13.5,9.3c7.8,4.7,16,8.9,23.8,13.6c7.4,4.5,14,10.2,19.5,16.9
		c1.9,2.2,3.1,5.1,4.3,7.9c2.9,6.6,4.6,13.7,4.5,20.8c-0.3,14.8-5.8,27.3-22.9,33.9c-13.7,5.3-27,3.8-40.1-2.3
		c-1.3-0.6-2.7-1.2-4.9-2.2c0.4,2.1,0.7,3.5,0.8,4.9c0,0.9-0.2,2.3-0.8,2.6c-0.8,0.4-2.3,0.5-3.1,0c-6.5-3.8-10.4-9.7-12.8-16.6
		c-2.9-8.6-3.1-17.4-0.9-26c1.4-5.7,4.6-10.7,9.3-14.5c3.7-3,6.3-2.1,7.5,2.6c0.6,2.4,0.6,4.7,0.1,7.2c-0.9,4-0.9,8.2-0.9,12.3
		c0,1.3,0.9,2.9,1.8,4c6.1,7.1,11.3,9.2,21.3,7.1c6.5-1.4,11.7-4.7,13.7-11.6c1.9-6.7,0.5-12.8-3.9-18.1c-3.8-4.6-9-7.4-13.9-10.4
		c-9.2-5.4-18-11.4-25.7-18.8c-9.7-9.3-15.5-20.5-15.6-34.4c0-5.9,0.6-11.5,3.4-16.9c4.8-9,12-14.6,21.7-17
		c12.9-3.2,25.1-1.1,36,6.8c2,1.4,3.7,3.3,5.6,5c1,0.9,1.9,1.7,3.5,3.1c0-2.4,0-4.1,0-5.7c0-2.1,1-3.5,2.9-4.2
		c2.1-0.7,3.5,0.5,4.6,2.1c0.6,1,1.2,2,2.3,4.1c-0.6-4.5-1.7-7.7-3.1-10.7c-1.2-2.6-2.5-5.1-3.8-7.6c-0.8-1.7-1.6-3.4-0.1-5.1
		c1.1-1.3,3.3-1.3,5.5-0.1c5.8,3.2,10.4,7.7,13.7,13.4c3.6,6.2,6.2,12.9,8,19.8c1.9,7.7,3.6,15.5,6,23.1c1.8,5.9,4.8,11.2,10.4,14.8
		c3.3,2.1,5.9,2.1,9.2,0.2c5.9-3.5,10.9-8,15-13.6c7.2-9.7,10.6-20.7,10.2-32.7c-0.3-7.4-0.9-14.8-4.7-21.9
		c-1.5,1.6-2.8,3.1-4.2,4.4c-2.2,2-3.3,1.9-5.7,0.3c-2.9-2.1-3.7-4.9-3.2-8.3c0.8-5.2,0.1-10.2-1.9-15c-0.6-1.5-1.4-3.1-1.7-4.7
		c-0.6-2.7,1.8-5.2,4.4-4.2c3.4,1.2,6.9,2.7,9.8,4.8c11.1,7.8,17.5,18.9,20.9,31.8c2.6,10.1,4.9,20.4,4.4,30.9
		c-0.5,12-4.1,23.1-11.3,32.9c-6.4,8.7-14.2,15.6-23.4,21.6c-0.1,1.5-0.2,3-0.2,4.5c0,13.2,0.1,26.3-0.1,39.5
		c-0.1,3.9,0.7,7.2,3.8,9.8c0.4,0.3,0.9,0.7,1,1.1c0.7,2.3,2.1,4.9,1.6,7c-0.5,2.6-3.6,1.6-5.7,1.6c-7.7,0.1-15.3-0.2-23,0.1
		c-3.7,0.1-5.7-2.3-8.1-4.2c-0.7-0.5-0.5-2.5-0.2-3.6c0.2-0.9,1.2-1.5,1.8-2.3c3.4-4.6,5.6-9.3,3.8-15.3c-0.6-2.2-0.2-4.6-0.2-7
		c0-7.8,0-15.7,0-23.5c0-1.8,0.2-3.7,0.5-5.4c0.5-2.2,0.1-3.6-2-5c-3.2-2.3-6.2-5-9.1-7.7c-6-5.4-9.1-12.6-11.5-20.1
		C520.1,120.1,518.9,114,517.1,106.9z"/>
	<path class="st0" d="M328.7,102.7c-9.8-2.4-15.5,3.3-21.1,9.4c-1.4-0.6-2.7-1.2-4.3-1.9c-0.1,1.7-0.3,3-0.3,4.3c0,29.3,0,58.7,0,88
		c0,3,0.6,5.5,2.6,7.8c2.2,2.6,3,5.8,2.1,9.5c-1.2,0.1-2.4,0.3-3.5,0.3c-5.5,0-11,0.1-16.5,0c-1.3,0-2.7-0.2-3.8-0.8
		c-4.5-2.6-4.9-4.1-2.5-8.9c2.5-4.9,2.4-10,0.3-14.9c-5.1-12.1-10.4-24.1-15.6-36.2c-0.7-1.5-1.5-2.9-2.7-5.3c-0.2,2-0.3,3-0.3,4.1
		c0,14.8,0,29.7,0,44.5c0,2.2,0,4.3,1.7,6c2.7,2.7,3.6,6.2,4.1,10.5c-1,0.3-2.2,1-3.3,1.1c-6.8,0.1-13.7,0.2-20.5,0
		c-5.8-0.2-8.5-5.3-5.2-10c1.7-2.5,2.3-5,2.3-7.9c0-39.5-0.1-79,0-118.5c0-3.7-0.9-6.9-2.9-9.8c-0.9-1.2-1.7-2.4-2.5-3.7
		c-0.9-1.5-1.1-3.3,0.1-4.6c1.4-1.4,3.2-1.6,5-0.5c3.5,2,6.4,4.6,9.1,7.7c8,9.4,12.6,20.6,17.2,31.8c5.3,12.9,10.7,25.8,16,38.7
		c0.3,0.7,0.8,1.4,1.6,3.1c0.1-2.3,0.3-3.6,0.3-5c0-23,0-46,0-69c0-14.2,6.5-24.8,18.3-32.2c3.2-2,6.7-3.8,10.2-5.1
		c5.8-2.2,7.8-0.9,8.7,5.3c0.1,0.6,0.3,1.3,0.4,1.9c-3.6,3.2-7.1,6.2-10.8,9.6c4.6,4.3,3.2,9.6,3.3,14.6c0.1,2.7-0.2,5.4,1.5,7.7
		c2.8,4,6.1,6.5,11.5,6.3c10.1-0.5,20.3-0.4,30.5,0c5.7,0.2,10.4-1.5,14.7-5c3.7-2.9,6.1-2.1,7.5,2.4c0.6,2.1,1,4.2,1.3,6.3
		c0.7,7.1,0.5,14.2-0.1,21.3c-0.2,2.2,0.1,5.2-3.3,6.4c-2.4-1.9-5.5-3.2-7.1-6.4c-1.1-2.2-3.5-2.8-5.5-2.9
		c-4.1-0.3-8.2-0.1-12.9-0.1c0,2.2,0,4,0,5.8c0,30.2,0.1,60.3-0.1,90.5c0,4.6,1,8.6,4.1,11.8c2,2,2,4.5,2.8,6.8
		c0.5,1.5-0.5,2.5-2.1,2.8c-1,0.2-2,0.1-3,0.1c-8.2,0-16.3,0-24.5,0c-1.8,0-3.5,0-5.1-1.4c-3.9-3.4-4.2-5-0.7-9
		c2.3-2.7,3.7-5.7,3.7-9.5c-0.1-31.2-0.1-62.3-0.1-93.5C329,105.5,328.8,104.2,328.7,102.7z"/>
	<path class="st0" d="M49,137.2c0,2.3,0,4,0,5.6c0,19.8,0.3,39.7-0.2,59.5c-0.2,8.9,3.9,14.8,10.3,19.8c2.9,2.3,5,4.7,5.5,8.4
		c0.4,2.4-0.2,3.3-2.8,3.6c-1,0.1-2,0-3,0c-15.3,0-30.7-0.2-46,0.1c-4.1,0.1-6.5-1.9-8.8-4.5c-1.6-1.8-1.3-3,0.8-4.5
		c1.9-1.4,3.9-2.6,5.8-3.9C18.1,216.2,22,209.3,22,200c-0.1-54.6-0.1-109.3,0-163.9c0-7.6-2.5-14-7.9-19.2C10.4,13.2,6.4,10,2.6,6.5
		c-1-0.9-1.8-2.1-2.6-3C1.1,0.8,2.7,0.1,4.9,0c11-0.2,21.9,0.6,32.6,3.5c7,2,8.5,3.3,9.5,12c0.3,2.3,0.4,4.5,0.6,7.4
		c2.6-1.2,4.2-2.4,5.8-3.7c5.6-4.7,11.3-9.2,17-13.8c1.2-0.9,2.5-1.7,3.8-2.3c9.2-4.1,9.1-1.9,13.9,2.6c9.8,9.4,17.2,20.7,24.3,32
		c2.3,3.7,3.1,8.8,3.3,13.3c0.4,13,0.1,26,0.2,39c0,4.5-1.7,8.1-4.7,11.1c-10.1,10.2-20.1,20.4-30.4,30.4c-4.3,4.2-8.9,8-13.6,11.6
		c-4.1,3.1-7,2.8-11.2-0.4C53.9,141.3,51.9,139.6,49,137.2z M59.4,108.9c1.6-1.1,3.3-2,4.5-3.3c6.5-6.7,12.9-13.4,19.2-20.2
		c2-2.2,3-4.9,3-8.2c-0.3-9.1-0.2-18.3,0-27.5c0-3-0.6-5.7-2.3-8c-3.1-4.1-6.3-8.1-9.7-12c-3-3.3-3.7-3.5-7.1-0.9
		c-6,4.6-11.8,9.6-17.7,14.5c-1.7,1.4-2.2,3.2-2.1,5.3c0.1,15.3,0.1,30.6,0,45.9c0,2.4,0.7,4.1,2.5,5.6
		C52.8,103.1,56,105.9,59.4,108.9z"/>
	<path class="st0" d="M417,320.1c-4.1,3.5-7.8,6.8-10.4,11.1c-1,1.6-1.6,3.7-1.6,5.6c-0.2,7.3,0,14.7-0.1,22c0,2.5,0.7,4.6,2.5,6.3
		c4,3.8,4,3.8,5.2,10.1c-1.1,0.3-2.3,1-3.5,1c-9.3,0.1-18.7,0-28,0.1c-3.3,0-5.1-2.2-6.5-4.6c-0.5-0.8-0.3-2.4,0.2-3.2
		c3-5,3.1-10.4,3.1-15.9c-0.1-33.8,0-67.6,0-101.5c0-5.1,0.3-10.3-1.7-15.3c-0.2-0.5-0.3-1-0.3-1.5c0-2.8,2.4-4.5,5.1-3.5
		c0.8,0.3,1.5,0.7,2.2,1.1c6.9,3.5,13.8,4.3,21.2,1.4c3.4-1.4,7-2.2,10.5-3.1c9.8-2.6,18.7-0.9,26.6,5.8c3.5,3,6.1,6.6,7.6,10.9
		c3.9,11.3,4.7,22.6-0.9,33.9c-3.5,7.2-7.7,14-12.6,20.3c-2.4,3-2.3,3,0.6,5.4c4.5,3.6,7.8,8.1,10.7,13
		c7.6,12.6,11.3,26.5,13.9,40.8c2.6,14.3,9.9,25.6,21.4,34.2c3.6,2.7,6.7,5.4,6,10.8c-2.3,2.2-5.4,1.5-8.1,0.6
		c-5.1-1.6-9.7-4.4-13.9-7.6c-10.7-8-18.4-18.5-24.7-30.2c-5.5-10.3-9.7-21.1-13.8-32C425.7,329.9,422.6,324.5,417,320.1z
		 M404.5,303.5c1.3-1,2.1-1.5,2.8-2.2c2-2.2,3.8-4.6,5.9-6.7c5-5,8.5-11,11.3-17.5c2.6-6.1,3.2-12.5,1.4-19
		c-0.6-2.2-1.8-3.6-4.2-4.3c-4.9-1.5-9.2,0.2-13.6,1.6c-3.7,1.1-4,1.7-4,5.8c0,12.6,0,25.3,0,37.9
		C404,300.3,404.3,301.6,404.5,303.5z"/>
	<path class="st0" d="M117.2,165.5c-0.1,1.7-0.3,3.2-0.3,4.6c0,10.3,0.1,20.7-0.1,31c0,3.7,0.9,6.5,3.8,9.2c1.9,1.7,2.4,4.8,3.4,7.1
		c-1.4,2.3-3.1,2.7-5,2.7c-8.3,0-16.7,0-25,0c-3.3,0-5.1-2.2-6.7-4.4c-0.6-0.8-0.2-2.6,0.2-3.7c0.4-1,1.5-1.8,2.3-2.5
		c2.8-2.3,3.8-5.3,3.8-8.8c0-19.7,0-39.3,0-59c0-3.6-1.3-6.3-4-8.6c-3.2-2.6-3.3-4.1-0.4-6.9c3.7-3.7,7.8-7.2,11.6-10.8
		c2.4-2.3,4.7-4.7,7.1-7c3.7-3.5,6.6-2.8,7.7,2.1c0.6,2.4,0.9,4.9,1,7.3c0.1,7.7,0,15.3,0.1,23c0,3.5,0.2,3.3,3.4,4.4
		c4.2,1.5,8.2,3.3,12.6,5.1c0-1.3,0-2.6,0-3.9c0-17.3,0-34.7,0-52c0-2.9-0.3-5.5-2.1-8c-1.8-2.5-1.4-4.2,0.9-6.6
		c6.6-7.1,12.3-14.8,16.6-23.5c0.3-0.6,0.6-1.2,0.9-1.8c1-1.4,2.2-2.6,4.1-2.3c2,0.3,3.3,1.6,3.6,3.6c0.4,2.8,1,5.6,1,8.4
		c0.1,45.1,0.1,90.3,0,135.4c0,4,0.5,7.4,3.3,10.6c1.5,1.7,1.9,4.5,2.5,6.9c0.4,1.5-0.5,2.6-2,2.9c-1,0.2-2,0.1-3,0.1
		c-7.2,0-14.3,0.1-21.5,0c-1.4,0-3.1-0.2-4.2-0.9c-5.2-3.4-5.5-5.7-1.3-10.3c2.9-3.1,4.1-6.7,4.1-10.9c0-6-0.1-12,0-18
		c0.1-3.5-1.2-5.9-4.1-8C127.4,169,123,166.3,117.2,165.5z"/>
	<path class="st0" d="M186.1,167.8c0,1.7-0.1,3.5,0,5.3c0.7,9.1,3,17.6,8.4,25.2c1.3,1.8,2.4,3.6,3.5,5.4c2.8,4.5,5.3,9.2,5.6,15.3
		c-0.9,0.3-2.1,1-3.2,1c-8.5,0.1-17,0-25.5,0.1c-3.3,0-4.6-2.8-6.5-4.7c-0.5-0.5,0.2-3.2,1.1-3.9c3.1-2.7,2.2-5.5,0.9-8.5
		c-5.8-13.3-7.4-27.2-6.3-41.5c0.8-9.4,2.3-18.7,5.8-27.6c2.7-7,6.7-13.3,11.1-19.4c4.7-6.4,10.1-12.4,15.9-17.8
		c7.2-6.7,15.1-12.4,23.6-17.4c1.9-1.1,3.7-2.2,5.6-3.2c1.9-1,4.6-0.6,5.2,1.2c0.9,2.5,2,5.2,0.6,8.1c-4.1,8.7-5.4,18-5.9,27.5
		c-0.2,3.5,0.1,7-0.1,10.5c-0.8,16,1.8,31.4,6.5,46.6c3.3,10.6,5,21.3,4.6,32.4c-0.1,3.8,0.2,7.7-0.2,11.5c-0.5,5.4-2.2,6.5-6.9,6.4
		c-5.3-0.1-10.7-0.3-16,0.1c-3.3,0.2-5.4-1.6-7.4-3.5c-1.5-1.4-0.9-3.4,0-5.1c0.9-1.8,1.8-3.5,2.7-5.3c2.4-5.2,1.4-10.8,1.6-16.2
		c0.2-3.3-0.8-6.1-2-9.1c-2.5-6.1-7.3-9.4-13-11.6C190.4,167.1,190.2,167.2,186.1,167.8z M205.4,113.9c-9.3,8.4-14.8,18.9-18.1,31
		c3.3,1.2,6.3,2.1,9.2,3.3c2.9,1.2,5.8,2.7,9.2,4.3C204.7,139.1,204.4,126.6,205.4,113.9z"/>
	<path class="st0" d="M387.6,167.2c-0.3,1.1-0.5,1.5-0.5,2c0.7,10.9,2.2,21.4,9.4,30.4c3.8,4.8,6.7,10.3,8,16.5
		c0.6,3.1,0.1,4-3.1,4.1c-8.2,0.1-16.3,0.1-24.5,0c-3.2,0-4.8-2.7-6.5-4.7c-0.6-0.8,0-3.5,0.9-4.5c1.9-2.1,2-4.1,0.8-6.4
		c-6.5-12.7-7.8-26.4-7-40.3c0.5-9.2,1.3-18.5,4.7-27.3c4-10.3,9.5-19.7,16.8-28.1c2.8-3.2,5.6-6.6,8.7-9.6
		c9.2-9,19.5-16.5,30.8-22.7c1-0.6,2.2-1.1,3.3-1.1c1,0,2.8,0.6,3,1.2c0.7,2.9,2.4,5.8,0.8,9.1c-3.7,7.2-4.8,15-5.4,23.1
		c-0.6,7.5-0.8,14.9-0.7,22.4c0.1,10.7,2,21.1,4.7,31.4c2.2,8.5,4.7,17,5.9,25.7c0.7,5.4,2.1,11,0.6,16.8c-1,3.8-0.9,7.9-1.2,11.9
		c-0.2,2.3-1.5,3.2-3.7,3.2c-6.5,0-13,0.2-19.5,0c-5.8-0.2-7.8-5-5.2-10.2c5.6-10.8,6.1-21.8-0.5-32.6c-1.9-3.2-4.9-5-8-6.5
		C396.3,168.9,392.4,167.2,387.6,167.2z M407.3,152.5c-2.4-13.2-1.3-26.4-0.7-39.7c-8.6,9.5-15,20-18.3,32
		C394.8,147.4,400.7,149.8,407.3,152.5z"/>
	<path class="st0" d="M321.2,323.4c-0.7,9.8,0.2,18.8,5.4,27.1c3.2,5.1,6.4,10.1,9.2,15.4c1.5,2.9,2.7,6.1,1.9,9.8
		c-1.1,0.2-2.2,0.5-3.3,0.5c-7.8,0-15.7-0.2-23.5,0.1c-3.4,0.1-5.3-1.8-7.3-3.7c-1.4-1.4-1-3.6,0.5-5c2.7-2.6,2.1-5.2,0.6-8.2
		c-3.8-7.5-5.2-15.7-5.7-24c-0.3-6.3-0.2-12.7-0.1-19c0.1-10.3,2.8-20,7-29.3c4.4-9.6,10.4-18,17.3-26c7.3-8.4,16-14.9,24.9-21.1
		c2.6-1.8,5.2-3.6,7.9-5.2c1.7-1,3.5-1.9,5.4-2.5c1.9-0.6,3.9-0.2,4.5,2c0.8,2.8,1.7,5.6,0.2,8.7c-3.7,7.4-4.8,15.4-5.2,23.6
		c-0.2,4-0.7,7.9-0.9,11.9c-0.6,14.2,1.8,28.1,5.4,41.8c1.4,5.3,2.7,10.6,4,15.9c2,8.1,2.7,16.4,2.5,24.7c-0.1,3.8-0.6,7.6-1,11.4
		c-0.3,3.2-1.2,4-4.4,4c-6.3,0.1-12.7-0.1-19,0.1c-3.1,0.1-4.6-2.4-6.9-3.5c-0.5-0.3-0.6-2.2-0.2-3.1c0.8-2.2,2-4.2,2.9-6.3
		c3.4-8.2,3.9-16.5,0.5-24.7c-2.3-5.5-5.5-10.2-11.6-12.3c-2.5-0.8-5-1.9-7.5-2.6C323.8,323.4,322.6,323.5,321.2,323.4z
		 M339.8,269.3c-0.7,0.6-1.6,1.1-2.2,1.8c-5.8,7.1-10.8,14.7-13.9,23.4c-2.2,6.4-2.2,6.2,3.9,8.5c4.1,1.5,8,3.5,12.6,5.6
		C339,295.4,338.6,282.6,339.8,269.3z"/>
</g>
</svg>
