<?xml version="1.0" encoding="utf-8"?>
<!-- Generator: Adobe Illustrator 19.0.0, SVG Export Plug-In . SVG Version: 6.00 Build 0)  -->
<svg version="1.1" xmlns="http://www.w3.org/2000/svg" xmlns:xlink="http://www.w3.org/1999/xlink" x="0px" y="0px"
	 viewBox="0 0 2902.2 2016.4" style="enable-background:new 0 0 2902.2 2016.4;" xml:space="preserve">
<style type="text/css">
	.st0{fill:#FFFFFF;}
</style>
<g id="Layer_2">
</g>
<g id="Layer_1">
	<g>
		<path class="st0" d="M2394.6,1250.2c-2.1-1.9-2.7-4.2-2.5-6.7c-1.7,1.4-4.2,2.7-3.2,5.2c1.4,3.4,2.5,7.5,7.2,8
			C2397.8,1253.6,2396.3,1251.7,2394.6,1250.2z"/>
		<path class="st0" d="M1416.8,1156.8c-8.6,0.1-15.7,3.7-18.4,12.5c-1.8,5.7-2.5,11.6-3.4,16c0.4,8.5,1.6,15.5,4.9,21.5
			c3.2,5.9,8.5,10.3,15.2,11.9c5.8,1.4,11.3,0.2,15.6-4.3c5.7-6,9-13.8,9.3-21.5c0.3-8.4-1.1-17.2-4.9-25.2
			C1430.5,1158.2,1424.6,1156.6,1416.8,1156.8z"/>
		<path class="st0" d="M2395.7,1194.6c-7.2-0.5-12.7-2.2-19.9,1.2c5,1.7,8.3,2.8,11.7,4C2388.2,1195.8,2391.8,1196.3,2395.7,1194.6z
			"/>
		<path class="st0" d="M1836.8,977.1c-3.6,7.2-3,14.5-3.1,21.8c-0.1,5.7,1,10.4,5.9,14.1c11.1,2,20.1-1.6,26.3-11.3
			c3.7-5.8,3.7-13.4,8.9-18.6c0.5-0.5,0.2-1.9,0.1-2.9c-0.4-2.9-1.1-5.8-1.4-8.8c-0.6-5.8-3.8-9.7-8.3-12.9
			c-7.9-5.6-20.5-6.4-30.8-1.6c2.5,4.9,2.6,9.8-1.2,14C1834.6,973.4,1835.7,975.3,1836.8,977.1z"/>
		<path class="st0" d="M1637.4,1031.3c-0.7-5.4-2.5-9.7-1.4-13c1.4-4.2,1.2-7.5-0.5-11.3c-1.8-3.9-3-8.1-4.5-12.1
			c-2.5-6.8-5-13.6-7.5-20.5c-0.8-2.1-2.2-3.7-4.3-3.4c-1.7,0.3-3.6,1.6-4.7,3c-1.2,1.5-1.6,3.6-2.3,5.5
			c-5.8,14.8-11.7,29.6-17.4,44.4c-0.9,2.3-2.3,4.9-0.5,7.3C1608.7,1031.3,1622.9,1031.3,1637.4,1031.3z"/>
		<path class="st0" d="M804.9,1015.6c0.3,0.3-1,1.6-1.3,2.5c-1,3.8,0.1,5.8,3.7,6.7c12.4,3.2,25-1,30.8-10.6
			c2.3-3.9,5.3-7.4,5.6-12.4c0.1-1.8,0.4-4.3,3.5-5.3c2.9-1,2.4-3.5-0.1-5.3c-0.7-0.5-1.1-1.5-1.8-2.7c0.8-1.1,1.6-2.1,2.4-3
			c2.8-3.2,2.9-7.8,1.2-10.3c-4.4-6.6-7.8-14.2-16.2-17.8c-8.7-3.7-17.3-4.6-26.2-2.6c-1.4,0.3-2.4,1.9-3.9,3
			c1.3,1.8,2.3,3.1,2.9,3.8c-1.1,4.7-2.3,8.2-2.5,11.7c-0.4,7.6-0.6,15.3-0.2,22.9C803.2,1002.7,800.4,1009.5,804.9,1015.6z"/>
		<path class="st0" d="M1387.3,1331.5c0.1-1.6,0.9-3.1,1.3-4.6c0.4-1.6,1.1-3.3,0.9-4.8c-2-13.8-7.8-25.7-20.6-32.3
			c-12.8-6.6-26.8-7.4-40.9-4.4c-4.9,1-6,2.4-6,7.6c0,8.6-0.6,17.2,0.7,25.8c0.3,2.2,0.1,4.5-0.2,6.8c-1,8.8,0.6,25.8,2.9,35.1
			c0.7,2.7,1.1,5.6-1.1,8.5c-1.2,1.5-1.3,4.4-0.8,6.4c1,4.1,2.8,8,4.5,12.7c15.8,5.8,37.2-0.5,47.6-16.1c6.3-9.4,8.4-20.2,12.5-30.2
			C1389.7,1338.1,1387.1,1334.9,1387.3,1331.5z"/>
		<path class="st0" d="M2416.8,1278.9c2.9,3,5.4,5.6,8,8.2c0.2-3.5-0.4-6.4-1.8-8.9C2421.6,1275.8,2419.3,1275.5,2416.8,1278.9z"/>
		<path class="st0" d="M2389.8,1225.9c-0.7,5.4-1.2,10.1-1.7,14.4c1.2,0.9,2.6,1.8,4,2.8c0,0,0,0,0-0.1c1.2,0.6,2.3,1.1,3.8,1.9
			c1.7-2,3.4-3.8,5.1-5.9c-2.1-2.1-6.6-0.3-6.9-4.7c2.3-1.4,4.6-2.8,8.7-5.3C2396.8,1228.5,2393.8,1224.2,2389.8,1225.9z"/>
		<path class="st0" d="M2894.7,1441.6c-8.1-6.9-16.2-13.9-24.2-20.9c-23.8-20.7-47.4-41.8-71.7-62.1c-6.3-5.3-10.6-11-11.9-18.8
			c-0.8-5-2.9-8.3-7-11.4c-5.9-4.5-10-10.2-10.1-18.4c-0.1-8.3-1.1-16.6-1.6-24.8c-1.3-22.9-5.4-45.7-3.5-68.7
			c0.9-10.7,1-21.1-0.6-31.7c-0.8-5.5-2.3-10.1-6.4-14c-14.5-13.8-28.8-27.7-43-41.8c-2.3-2.2-4.4-5-5.5-8
			c-8.2-21-16.9-41.9-23.9-63.4c-4.3-12.9-12.6-22-23-29c-21.7-14.7-46.9-21.8-71.3-30.4c-1.2-0.4-2.5-0.2-4.8-0.4
			c-2.1,5.2-4.4,10.3-6.3,15.5c-4.5,12.5-9.6,24.9-13.2,37.6c-5,17.6-14.9,31.5-28.4,43.5c-3.8,3.4-7.1,5.3-12.2,5.3
			c-18-0.2-36-0.1-54-0.1c-2.2,0-4.5-0.5-7.3-0.8c-2.9-14.6-5.9-28.9-8.7-43.3c-4.8-24.8-4.5-50.3-12-74.7
			c-5.1-16.5-8.2-33.7-14.1-49.9c-10.4-29.1-22.4-57.7-33.2-86.7c-3-8-6.6-14.3-14.7-17.6c-7.1-2.9-10.2-8.7-12.1-15.9
			c-4-15.1-8-30.2-12.8-45.1c-23.4-72.9-47-145.6-70.6-218.4c-0.7-2.2-1.4-4.7-2.9-6.2c-9-9.3-17.6-19.2-27.7-27.3
			c-13.1-10.5-27.4-19.8-41.4-29.2c-31.6-21.3-65.7-37.7-101.7-50c-2.1-0.7-4.5-0.9-6.8-1c-8.5-0.5-9.8,0.4-11.8,8.4
			c-2.8,11.3-5.3,22.7-8,34c-2.9,11.9-5,24.2-9.4,35.5c-3.5,9-6.9,17.9-8.9,27.4c-1.6,7.8-3.8,15.5-6.1,23.1
			c-2.3,7.9-5.3,15.7-7.6,23.6c-5.6,19.5-10.1,39.3-16.6,58.5c-5.1,15-11.5,29.6-15.6,45c-1.6,5.9-4.6,11.9-8.6,16.5
			c-7.5,8.8-16.1,16.7-24.4,24.8c-3.3,3.2-4.7,6.7-5.5,11.2c-6.4,35.7-13,71.3-19.9,106.8c-1.9,9.7-4.8,19.1-7.3,28.8
			c-19,0-37.2,0-55.9,0c-0.9-2.7-1.9-5.1-2.5-7.6c-3.3-12.2-6.4-24.5-10-36.6c-2.3-7.7-5.4-15-14.3-17.7c-2.1-0.6-4.1-2.3-5.6-4
			c-8.3-9.8-18.8-16.8-29.6-23.4c-4.5-2.8-9-5.6-13.7-8.4c-1-16.2-1.8-32.1-3-48c-0.3-3.9-1.2-7.8-2.5-11.5
			c-4-11.6-9.2-22.9-12.5-34.7c-12.8-46.1-25.1-92.4-37.6-138.6c-11.3-41.9-23.3-83.7-33.7-125.9c-7-28.3-17.5-55-29.6-81.4
			c-10.9-23.5-20.9-47.5-30-71.8c-8.2-22.1-14.5-44.9-21.8-67.3c-6.8-20.8-14.7-41.4-20.4-62.5c-4.6-16.8-11-32.7-18.1-48.4
			c-1.5-3.4-4.5-6.9-7.8-8.4c-11.4-5.3-23.1-10.1-34.9-14.4c-10.6-3.8-21.8-6.2-32.3-10.3c-5.7-2.2-11.7-5.8-15.4-10.4
			c-3.4-4.2-7-6.4-11.7-8.4c-24.5-10.3-48.9-20.8-73.5-31.1c-5.5-2.3-11.2-4.2-17-5.6c-7.4-1.7-9.5-0.8-12.9,5.9
			c-5.2,10.3-10.6,20.6-14.7,31.3c-8.2,21.4-15.5,43.2-23.3,64.7c-0.8,2.1-1.7,4.5-3.3,5.9c-8.8,8.1-17.6,16.2-26.9,23.7
			c-3.4,2.7-5.4,5.5-6.1,9.7c-8.5,49.8-17,99.6-25.6,149.4c-0.9,5.2-1.9,10.5-2.4,15.8c-1.5,15.2-1.7,30.6-4.4,45.6
			c-2.3,13-7,25.6-11,38.2c-3,9.4-7.1,18.4-10.2,27.8c-2.9,8.8-5,17.9-7.7,26.9c-4.8,15.9-10.2,31.7-14.5,47.7
			c-10.3,37.9-19.6,76-34.3,112.6c-4.2,10.5-7.5,21.6-13.5,31c-9.7,15.3-15.5,30.8-16.5,49.2c-2.2,39.8-6.1,79.5-9.6,119.3
			c-1.5,17.2-3.9,34.3-5.9,51.5c-0.6,5.1-2.8,8.6-7.9,10.4c-7.5,2.7-14.8,6.1-22.4,8.5c-4.2,1.3-8.9,3.5-14.5-0.9
			c0-6.7,0.5-14.4-0.1-22c-1.3-14.5-3.2-29-4.9-43.5c-0.3-2.6-0.8-5.3-2-7.5c-3.4-6.4-7.8-12.4-10.9-18.9
			c-24.4-51.7-43.6-105-51.9-161.9c-0.4-2.8-2.6-6.2-5-7.8c-15-9.8-30.1-19.5-46.8-26.4c-0.9,0.6-1.8,1-2.6,1.5
			c-19.9,14.3-37.5,31-49.4,52.6c-9.1,16.3-21.7,29.1-35.8,41c-17.1,14.3-29,31.7-30.1,55c-0.3,5.6-1.8,11.2-3,16.7
			c-8.2,39-16.5,78.1-24.8,117.1c-0.5,2.2-1.4,4.3-2.2,6.5c-20,1.2-39.6,2.3-59.6-0.5c-0.6-7.6-1.3-14.8-1.7-22.1
			c-1-14.9-1.5-29.9-2.8-44.8c-0.5-5.5-3.2-10.8-3.7-16.3c-0.8-7.9-0.4-15.9-0.7-23.9c-0.9-31.9-1.7-63.9-2.8-95.8
			c-1.1-34.3-3-68.5-12-101.8c-1-3.7-2.8-7.6-5.3-10.3c-13.8-14.9-28.2-29.2-41.9-44.2c-20.3-22.3-41.7-43.9-53.8-72.4
			c-12.1-1.4-12.1-1.4-22.6,4.4c-18.7,10.2-37.3,20.5-56.2,30.5c-15.9,8.4-31.8,16.7-48.1,24.3c-8.1,3.8-12.1,10.2-14.2,18.1
			c-5,19.1-14.6,35-32.4,44.2c-10.2,5.2-14.5,12.7-14.9,23.5c0,1.3-0.4,2.6-0.6,3.9c-6.7,44.8-16.5,88.9-29,132.4
			c-1.1,3.8-2.3,7.6-3.4,11.5c-2.1,7.6-4,15.3-6.1,22.9c-1.2,4.4-4.1,7.4-8.3,9.4c-7.2,3.5-14.2,7.4-21.3,10.9
			c-7,3.4-11.6,8.3-13.2,16.3c-2.5,12.4-5.3,24.7-8.7,36.9c-14.3,51.9-29,103.8-43.3,155.7c-3.3,12-7.9,23.1-16.4,32.6
			c-2.7,3-3.9,7.6-5,11.6c-3.3,12.5-6.3,25-9.3,37.4c-11.8,0.9-15.7,12.7-25.1,17c-6.8-14.7-11.4-29.5-15.1-44.7
			c-3.7-15.4-9.2-30.4-14.1-46.2c-8.8,2.3-16.6,4.1-24.1,6.5c-3,1-6.5,2.7-8.2,5.1c-9.8,14.2-19.2,28.6-28.6,43
			c-12.1,18.3-24.1,36.7-36.1,55c-0.9,1.4-2.1,2.8-3.4,3.6c-7,3.9-7.9,10.7-9.3,17.6c-7.1,33.8-14.2,67.7-21.9,101.4
			c-5,21.7-11,43.1-16.7,64.7c-0.6,2.2-1.4,4.5-2.8,6.3c-10.2,13.3-16.3,28.9-23.8,43.7c-3.3,6.5-5.3,14.2-10.1,19.3
			c-9.8,10.3-21.1,19.3-31.8,28.7c-18,15.9-35.9,31.7-53.9,47.6c-1,0.9-1.6,2.3-3.6,5.4c92.9-21.8,185-35.6,277.3-49.9
			c10,13.9,12.3,29.2,13.4,45.1c-29.9,4.9-58.7,9.3-87.6,14.3c-28.8,5-57.7,9.9-86.3,15.9c-28.3,5.9-57.1,9.5-84.8,18.7
			c10.4,4.4,20.7,8,31.2,11.2c11.4,3.5,23,6.6,34.5,9.8c11.8,3.3,23.7,6.6,35.5,10c25.9,7.4,51.8,14.5,77.6,22.4
			c6.8,2.1,13.5,5.7,19.3,10c22.7,16.9,44.9,34.4,67.4,51.5c3.4,2.6,5.7,5.5,6.4,9.6c1.8,10.9,10.1,17.2,16.3,25.5
			c3.1-4.1,5.4-7.1,8-10.5c6.3,5,12.7,8.9,17.5,14.2c8.1,9.1,15.8,8.6,26.1,3.5c23.5-11.6,49.1-16,75.3-18.1
			c9.4,15.2,17.3,31.1,30.3,43.6c2.1-0.4,4.1-0.6,6-1.2c6.2-2,11.1,0,15,4.8c2.3,2.8,4.8,5.5,7,8.5c9,12,17.8,24.1,26.8,36.2
			c2.1,2.9,4.6,5.5,6.7,8c3.5-1.7,6.1-3.3,8.9-4.1c7-1.8,11.2-6.4,14.4-12.6c3-5.8,6.8-11.3,10.3-17c4.8,1.2,8.9,2.3,12.7,3.2
			c9.6-6.9,17.1-16,28.7-20.5c10.2,13.7,17.8,29.1,33.4,38.2c3-6.1,5-11.5,8.1-16.1c2.5-3.7,5.8-8.7,9.5-9.4
			c7.1-1.5,11-5.2,13.3-11.5c1.8-0.1,3.1-0.1,4.4-0.2c4.3-0.6,9.1,0.2,8.3-7.2c-0.3-2.7,3.6-5.2,7.8-3.5c11.9,5.1,23.9,10,35.9,15
			c1.2,0.5,2.2,1.5,3.1,2.5c7.4,7.7,17.1,11.5,26.9,14.7c4,1.3,6,3,7.4,6.8c4,10.5,8.5,20.8,13,31.7c18-7.1,30.7-20,44.4-31.9
			c18.6,7.6,37.3,15.5,56.1,22.8c11.7,4.5,22.5,11.8,35.8,11.6c2.2,0,4.5,1.3,6.5,2.4c16.9,9.3,33.9,18.4,50.6,28
			c9.2,5.3,17.6,12.1,27.1,16.8c23.9,11.9,48,23.2,72.2,34.2c37.9,17.2,75.7,34.7,111.6,55.8c3.8,2.3,8.7,3.4,13.2,3.7
			c6.5,0.5,12.3,2.2,17.9,5.5c27.1,16.2,54.3,32.3,81.5,48.3c6.3,3.7,12.8,7.2,19.3,10.4c15.8,7.9,31.8,15.2,47.4,23.5
			c24.1,12.9,47.8,26.3,71.6,39.7c3.1,1.7,5.5,4.7,8.2,7.1c0.7,0,1.3,0,2,0c7.5-5.3,14.7-11.1,22.6-15.7c11.8-6.8,24.6-12,34.7-21.6
			c1.4-1.3,3.5-1.8,5.2-2.9c17.5-11,35.4-21.3,52.2-33.2c8.5-6.1,17.2-11.3,26.5-15.6c7.2-3.3,14.9-5.7,22.2-8.7
			c18.4-7.6,34.7-19.4,54.5-24.3c10.1-2.5,19.2-8.8,28.6-13.5c17.5-8.8,35.1-17.4,52.4-26.7c10.8-5.8,21-12.8,31.4-19.2
			c1.7-1,3.4-2.1,5.2-3c18.6-9.6,37.2-19.2,55.9-28.7c17.2-8.7,34.5-17.2,51.6-25.9c18-9.2,36-18.6,54.1-27.7
			c2.5-1.3,5.9-2.4,8.4-1.8c13.4,3,28.4,0.2,40.1,10.7c3.8-2.6,7.3-4.5,10.2-7.1c6.5-5.7,12.6-11.8,19.1-17.7
			c3.9-3.6,7.6-8.5,12.3-9.8c3.2-0.9,7.7,4.5,11.9,5.4c7.7,1.7,11.5,7.4,15.9,12.8c4.7,5.9,9.6,11.8,14.3,17.5
			c3.8-2.4,6.6-5.3,9.9-5.9c5.8-1.2,8-5.3,10.7-9.6c5-7.9,8.7-17.3,15.6-22.9c7.7-6.2,12.3-13.5,16.3-21.9c1.4-3,2.3-6.3,4-9.1
			c1.9-3,3.9-6.7,6.8-8.1c15.1-7,30.4-13.4,45.8-19.8c4.2-1.7,8.5-1.9,12.3,1.1c3.6,2.9,7.2,2.3,11.1,0.5c6-2.7,12.1-5,18.8-7.8
			c1.9,3.7,3.4,6.7,5.2,10.1c7.6-2.7,15-5.3,23.2-8.2c6.4,14.9,12.5,29.3,18.7,43.6c0.9,2.1,1.5,4.5,3,6c8.4,7.9,17,15.5,26.9,24.4
			c0.6-1.1,1.2-2.8,2.3-4c9.1-10.2,19.3-19.1,30.5-27.1c12.7-9,24.5-19.3,32.4-33.4c4.2-7.5,9.5-14.7,15.6-20.7
			c12.7-12.6,26.2-23.5,46.4-19.2c22.1,4.7,44.4,8.2,66.6,12.6c3.8,0.7,6.7,1.3,10.2-1.1c11.8-8.5,24-16.5,35.9-24.9
			c13.6-9.6,27.1-19.3,40.4-29.3c14.1-10.6,28.7-20.7,41.6-32.5c7.2-6.6,14.7-8.9,23.6-11c14.8-3.5,30.1-7,43.7-13.5
			c18-8.7,36.7-13.5,56-16.7c8.5-1.4,17.2-1.4,25.7-3c12-2.3,23.9-5.7,35.9-8.2c5.1-1.1,8.8-3.5,12.7-8.1c-3.2-1.1-5.2-2-7.4-2.6
			c-14-4.1-28-8.6-42.1-12.3c-31.9-8.3-63.9-16.2-95.8-24.2c-1.6-0.4-3.3-0.5-4.9-0.8c-7.2-1.3-14.4-2.4-21.5-4
			c-8.4-1.9-16.8-4.2-25.2-6.2c-8.7-2-17.4-3.8-26-5.6c1.9-11.6,13.2-33.9,20.2-41.8c2.9-3.3,5.7-2.4,9-1.6
			c10.4,2.5,20.7,4.9,31.1,7.2c26.9,6.2,54,11.9,80.8,18.6c34.2,8.5,68.2,17.9,102.3,26.8c11,2.9,21.9,5.8,33,8
			c5.4,1,11.1,0.7,16.6,0.4c3.5-0.2,5.1-2.7,4.9-6.9C2899.9,1445.7,2897.2,1443.7,2894.7,1441.6z M633,1463.4
			c-4.2,18.3-11.5,35.5-18.6,52.7c-4.1,9.8-8.8,19.3-13.3,29.3c-6.2,0.1-11.8,0.3-17.4,0.2c-5.9-0.2-11.9-0.6-17.8-1
			c-3-0.2-6-0.3-8.8-1.2c-2.7-0.9-4.9-1.8-7.1,1c-0.4,0.6-1.8,0.5-2.8,0.5c-21.6-0.2-43.3-0.4-64.9-0.6c-12.8-3.8-25.6-1.4-38.5-0.6
			c-3,0.2-5.9-0.4-8.9-0.5c-2.2-0.1-4.5,0-6.7,0.2c-6.6,0.5-13.3,1.5-18.2-6.8c-1,3.2-1.6,4.9-2.2,6.7c-4.5,0-9,0-13.2,0
			c-1-1.6-1.7-2.7-2.5-4.1c-3.9,1.3-6.6,5-11.7,3.6c-3.9-1.1-8.5,0.7-12.8,0.7c-14.6-0.1-29.1,0.7-43.7,1.1c-1.6,0-3.3,0.4-4.9,0.8
			c-5.9,1.6-11.2,0.3-15.8-3.4c-0.3-0.7-0.7-1.3-0.7-1.9c-0.3-7.7,1.2-9.4,8.5-10.7c6.9-1.2,13.7-2.5,20.5-4
			c9.2-1.9,15.8-6.9,17.5-16.3c2.4-1.3,4.3-2.4,6.8-3.8c-1.8-2.7-3.3-5.1-5-7.6c6.7-7.1,2.7-13.9-1.2-20.5c3-6.8,3.8-13.5,1.7-20.6
			c-0.7-2.4-1-5.5-0.2-7.8c1.1-3.3,1.7-6-0.3-9.3c-0.7-1.1-0.5-3.6,0.3-4.8c3.4-5.3,1.7-10-0.8-14.9c-0.3-0.5-0.2-1.3-0.3-2.7
			c1.1-0.6,2.5-1.1,3.7-2c1.7-1.2,2.8-2.8,2.2-5.1c-1.3-4.5-2-9.2-4-13.3c-1.5-3-2.4-6.1-0.8-8.5c2.7-4,0.5-7.2,0.1-11
			c-1.3-14.1-3.8-28.4,3.6-41.8c0.3-0.5,0.2-1.3,0.4-2.8c-1.2-0.9-2.7-2.2-4-3.2c0.4-3.6,0.7-6.8,1.1-10.2c2.1-1.9,4.3-3.9,7-6.3
			c-2.5-1.9-4.6-3.6-7-5.5c1.5-2,2.8-3.8,5.2-7c-3.1,0.6-4.5,0.9-6,1.3c-0.7-0.5,2-15.7,1.5-23.4c-0.5-8.6,3.7-16.5,1.4-25.4
			c2.1-0.6,4-1.1,7.3-2c-3.9-1.5-6.3-2.2-8.6-3.4c-4.3-2.3-5.5-5.9-2.4-9.7c3.3-4.1,2.7-8.7,3-13.1c0.2-2.3-2-3.8-4-5.2
			c-4.5-3.2-9.4-6.1-11.6-11.6c-7.6-3.9-15.7-2.7-23.5-2.9c-4.5-0.1-8.3-1.4-12-4c-3.1-2.2-2.9-5.1-2.4-8c0.5-3.2,3.1-4,6-4.1
			c1.7,0,3.3-0.1,5,0c19,0.3,38,0.5,57,0.8c12.6,0.2,25.3,1,37.9,0.9c29.3-0.2,58.6-0.9,87.9-1.2c35-0.3,70-0.5,104.9-0.6
			c3.9,0,7.9,0.2,12.4,0.4c-3.7,8.7-3.8,16.7-2.6,25.1c1.9,13.8,2.9,27.7,2.4,41.7c-0.2,6.3-2.2,9-7.6,10.1
			c-1.7,0.4-4.1,0.1-5.6-0.8c-4.7-2.9-9-5.8-11.8-11.4c-3.8-7.6-9.3-14.5-14.9-21.1c-2.7-3.1-7.1-4.8-10.8-6.9
			c-9-5-18.6-8.7-28.7-11c-2.2-0.5-4.3-1.8-6.4-2.7c-1.2-0.5-2.7-1.7-3.6-1.3c-8.4,2.8-16.4-1.6-24.7-1.3c-17.3,0.6-34.6-0.1-51.7,3
			c-3.1,0.6-6.4-0.1-11.5-0.2c-0.4,0.2-1.2,2.8-4.4,3.1c-5.5,0.5-7.4,2.8-7.4,7.4c0,9.9-1.8,19.8,0.2,29.7c0.3,1.6,0.1,3.3,0,5
			c-0.1,11.3-0.1,22.5-0.5,33.8c-0.1,3.6,0.3,6.5,3.4,8.7c-3.6,4.6-1.6,10-2.4,15c-0.9,5.6,2.1,9.4,5.4,13.7c-2,1-3.6,1.8-5.9,2.8
			c0.2,3.4,0.3,7,0.6,10.6c0.5,6.4,2.2,8.1,8.6,8.3c5,0.2,10,0,15-0.3c22.9-1.3,45.9-0.7,68.6-4.9c1-0.2,2-0.2,3-0.4
			c15.2-3,25.2-11.5,28.2-27.2c0.4-2,0.9-3.9,1.4-5.8c0.7-2.8-0.3-6.4,3-8c3.9-1.9,8-3.6,12.5-2c1.8,0.6,3.5,1.8,5.7,2.9
			c-5.9,10-9.3,20.3-6.3,31.7c-1.4,9,1.2,18.2-1.4,27.2c-0.7,2.5,1.2,5.7,1.4,8.6c0.5,10.2,0.8,20.4,1.2,30.5c0,0.7,0.2,1.4-0.1,2
			c-2.5,5.6-2,11.5-1.4,17.3c0.1,1.3-0.1,2.6-0.2,4.3c-2.4,0.4-4.6,0.9-6.6,1.2c-2.4-4.2-4.8-8-6.6-12c-1.2-2.7-2.7-6-2.1-8.5
			c1.6-6.5-2.6-11.1-5.2-15.5c-2.6-4.4-6.1-9.8-12.6-10.3c-13.1-8.1-28-7.1-42.4-8c-12.2-0.8-24.6-0.8-36.8-1
			c-7.9-0.1-15.9,0-23.6,0c-2.9,2.4-4.4,5.1-4.1,8.8c0.7,7.2,1.1,14.5,1.5,21.7c0.1,1,0.1,2.1-0.2,3c-3.1,10-2.2,20.1-0.9,30.3
			c0.5,3.9-0.2,7.9-0.1,11.8c0.1,4.1-1.6,8.6,2.3,12.1c0.4,0.4,0.3,1.8,0,2.5c-3.2,7.7-2.5,15.6-1.7,23.6c0.4,3.9-0.6,8.2,0.7,11.6
			c1.2,3.1,5.2,5,7.1,8c9.1,14.5,23.3,18.3,39.1,19.8c8.3,0.8,16.5,0.9,24.7,0.6c48.2-1.6,83.9-27.9,105.3-59.4
			c4.9-7.1,9-14.8,13.5-22.2c1-1.7,2.1-3.3,3.4-5.2c8.8,1.6,17.1,3.3,22.5,12.2C635.9,1454.8,634,1458.8,633,1463.4z M2205.3,958.7
			c1.8-3.4,6.6-5.3,10.2-7.4c1-0.6,2.9,0.5,5.3,0.9c-2,3.8-3.1,6.9-2.7,10.7c0.5,4.3-2.2,6.8-6.5,7.1c-2.2,0.2-4.6-0.5-6.9-0.8
			c-4.3,1-5.8,7-11.9,6.7c1.2-2.2,1.8-3.7,2.7-5C2198.5,966.7,2202.7,963.6,2205.3,958.7z M2171.9,968.6c3.9-8.3,7.9-16.7,16-23
			c2.3,1.2,3.8,1.9,5.1,2.8c0.8,0.5,1.3,1.4,2.2,2.6c-4,6-7.7,12.2-12,18c-2.6,3.4-6.2,5.8-11.7,5.4
			C2171.6,972.2,2171.2,970.1,2171.9,968.6z M2008.2,1052.1c3.2-3.2,6.5-3.7,11-2.4c-3.1,7.9-1.4,14.3,4.7,19.8
			c2.4,2.2,3.8,5.4,5.5,8.2c10.5,16.8,29.5,17.6,42.2,12.3c6.5-2.7,10.9-7.4,12.9-14.4c1.3-4.4,2.9-8.8,3.8-13.3
			c0.4-1.8-0.1-4.1-1-5.7c-4.4-7.3-8.7-14.9-17.6-18.2c-2.1-0.8-3.5-3.6-5.3-5.4c1.2-2.4,2.1-4.1,3.2-6.3c-1.9-0.8-3.7-1.5-6-2.5
			c-1.2,2.1-2.3,3.9-3.5,6c-19.9-7.2-34.8-20.2-45.6-38.2c-2.8-4.7-3.1-9.5-1.6-14.3c2.5-8,6.6-15,13.6-20.3
			c8.2-6.1,17.4-9.5,27.4-11.3c21.7-3.9,42.2,0.2,62.3,9c0.9,7.3,2.3,13.8-0.6,20.7c-1.1,2.6,0.6,6.3,1.1,10.2
			c-2.7,1.3-5.4,2.7-8.8,4.5c-0.3-3.4,0.4-6.7-0.9-8.1c-2.3-2.4-0.2-4.2-0.5-6.2c-0.3-2.5-1.6-5.1-3.1-7.2
			c-6.6-9.5-15.7-15.2-27.2-16.8c-8-1.1-15.9-0.4-23.7,1.9c-9.9,2.9-14.4,10.2-15.8,19.8c-0.5,3,0.4,5.9,3.5,7.6
			c1.2,0.6,2.5,1.3,3.2,2.3c8.4,12.1,21.5,17.5,33.7,24.1c11.7,6.4,23.3,13,32.8,22.5c4.6,4.6,8.1,9.7,8.7,16.4
			c0.1,1.3,0.3,2.7,0,3.9c-1.7,6.7-3.7,13.4-5.4,20.1c-1.1,4.4-3.5,7.7-6.8,10.8c-9.6,9-21.6,12.8-33.8,16.2
			c-15.7,4.3-30.3-0.3-44.8-5.1c-5.3-1.8-10.4-4.1-15.8-6.3C2008.1,1074.9,2008,1063.4,2008.2,1052.1z M1792.7,947.3
			c14.3-0.1,28.7,0,43,0c9.6,0,19.3-0.6,28.9,0c6.6,0.4,13.1,2,19.5,3.7c6.2,1.7,11.5,5.3,15.7,10.2c3.5,4.2,5.9,8.8,3.2,14.6
			c-1,2-1,4.5-1.3,6.8c-1.5,10-5.7,18.4-15,23.4c-4.4,2.3-9,4.1-13.5,6.2c-1.7,0.8-3.3,1.8-6,3.4c12.7,5,18.8,14.8,24.7,24.8
			c2.9,4.9,5.9,9.7,8.8,14.5c1.5,2.5,3.5,4.8,3.1,8.2c-0.1,1,1,2.9,1.8,3c3.8,0.8,5.2,4.1,6.9,6.8c4.9,7.4,10.7,13.6,19.1,17
			c1.1,0.4,1.8,1.8,3.2,3.3c-2,1-3.3,2.1-4.7,2.2c-6.6,0.4-13.3,0.3-19.9,0.7c-8,0.5-14.3-2.5-19-8.9c-3.9-5.4-7.8-10.8-11.1-16.5
			c-8.2-14.4-18.1-27.8-24.7-43.2c-2.5-5.8-13.6-9.2-19.3-6.8c-3.5,1.5-5,4.7-4.8,8.1c1,11.5,2.3,23.1,3.7,34.6
			c0.5,4.2,2.1,8,1.7,12.6c-0.6,5.6,4.6,10.9,10.7,12.8c3.4,1.1,6.9,2.2,10.3,3.4c0.2,0.1,0.3,0.5,0.8,1.5c-1.2,0.7-2.4,2.1-3.7,2.1
			c-4,0-8-0.2-11.9-0.8c-13.6-2.2-27.1-1.5-40.6,0.1c-4,0.5-7.9,1-11.9,1.4c-1.8,0.2-3.5-0.5-3.5-2.5c0-1,1.3-2.3,2.3-2.8
			c1.8-0.8,3.9-1,5.8-1.5c8.6-2.3,13.8-9.4,13.6-18.3c0-1-0.2-2-0.3-3c-0.7-5.2-2-10.5-2.1-15.7c-0.1-4.8,1.1-9.6,1.4-14.5
			c0.2-3.1-1.7-7.3-0.2-9.2c3-3.9-1.6-5.3-1.4-7.8c0.3-3.4,0.3-7.3,2-10.1c2.9-4.7,2.7-9.1,0-13c-1.8-2.6,0.3-3.3,0.7-4.9
			c2.2-9.9,1.4-19.8-0.1-29.6c-0.9-5.6-4.6-8.7-10.1-9.5c-3-0.4-6-0.6-8.8-1.4c-1.6-0.4-2.8-2-5.9-4.3
			C1787.8,947.9,1790.3,947.3,1792.7,947.3z M1548,1091.7c1.6-1.1,3.5-1.8,5.4-2.5c6.5-2.6,11.1-6.9,13.6-13.6
			c5.9-15.6,12.2-31,18.2-46.4c8.8-22.6,17.7-45.3,26.3-68c2.1-5.5,5.5-8.7,10.9-10.7c6.5-2.3,12.8-5.3,20.7-6.5
			c-0.4,6.6,5.3,11.7,1.5,18.3c-0.6,1.1,0.1,3.2,0.6,4.7c0.9,3.1,1.9,6.2,2.9,9.3c0.3,0.9,0.6,2.2,1.2,2.5c9,3.8,7.2,13.5,11.2,20
			c-1.5,5-0.5,9.8,1.3,14.3c1.2,3.1,3.2,5.8,4.8,8.7c4.8,8.5,6.5,18,9.6,27.1c3.1,9.1,6.5,18.1,9.7,27.2c2.5,7.1,7.1,11.9,14.4,14.1
			c2.1,0.6,4.8,1,4.2,4.5c-2.5,2.7-5.6,1.5-8.4,1c-20.3-3.5-40.4-2-61,1.9c-0.3-1-1.1-2.2-1-3.2c0.2-1.1,1.2-2.5,2.2-3
			c1.8-0.9,3.8-1.3,5.7-1.7c9.1-2,11.3-8.2,10.4-17.5c-0.1-0.9-1.2-1.9-1.1-2.7c2-10.5-3.2-19.3-6.5-29.2c-2.1-0.4-4.3-1-6.5-1
			c-13.7,0-27.3,0.1-41,0.1c-7.4,0-7.6-0.1-10.7,7.6c-4.2,10.6-6.7,21.5-6.8,32.3c4.2,6.7,9.7,9.8,16.7,10.8
			c2.4,0.3,4.8,1.4,7.6,2.3c-1.7,4.2-4.7,4.5-7.6,4.5c-2,0-3.9-0.7-5.9-1.1c-11.9-2.4-23.8-2.5-35.7,0c-1.9,0.4-4,0.6-5.9,0.5
			c-0.7,0-1.6-1.2-1.8-2C1547.1,1093.6,1547.4,1092.1,1548,1091.7z M1521.9,1154.2c0.4,5,0.6,9.6-2.9,13.5c-1.2-0.5-2.2-0.6-2.3-1
			c-1.7-6.2-6.2-8.2-12-8.4c-5.6-0.2-11.2-1.3-16.5,1.7c0,8.2,0,16,0,23.6c12.9,2.7,15.9,1.8,23.8-7.1c0.6,1.2,1.3,2.2,1.6,3.2
			c0.2,0.6,0,1.3-0.1,2c-0.6,4.9-1.1,9.9-1.9,16.2c-1.5-1.9-2.5-2.8-3.1-3.9c-1.6-3-4.4-4.1-7.4-4.3c-3.6-0.2-7.3-0.1-11.3-0.1
			c-2.2,7.9-2,15.4-0.8,22.9c0.5,3,2.8,4.3,5.4,5.3c2,0.8,4.9,0.5,4.8,4.4c-5.8,0-11.5,0.1-17.3,0c-5.5-0.1-11-0.4-18.7-0.7
			c4.1-2.7,6.3-4.2,9-6c1-18.3,1.4-36.9,0.3-56.6c-3.1-1-5.8-1.8-8.6-2.7c0.5-1.1,0.8-2.2,1.1-2.2
			C1483.7,1154.2,1502.5,1154.2,1521.9,1154.2z M1355.6,1032c-0.1-15.6-0.4-31.2-0.3-46.8c0-4.9,1.5-9.8,1.9-14.7
			c0.9-9.9,2.5-15.5-12.9-16.9c-2.3-0.2-4.6-0.7-6.7-1.4c-1-0.3-1.5-1.8-2.5-3c1.4-0.8,2.2-1.6,3-1.6c22.3-0.2,44.6-0.3,66.9-0.4
			c0.8,0,1.6,0.8,3.2,1.7c-1.4,1.4-2.4,2.9-3.6,3.3c-3.2,0.9-6.5,1.5-9.8,1.8c-5.7,0.5-9.6,3.4-10.7,8.8c-1.3,6.7-4.7,13.3-1.9,20.4
			c0.6,1.5,0.5,3.3,0.3,5c-1.7,19.2,2,38.4-0.3,57.6c-0.2,1.6,0.6,3.4,0.2,5c-0.7,3.5,4.2,5.9,2.2,9.1c-2,3.2-0.9,6.5-1.6,9.7
			c-1.3,5.7-0.3,10.5,4.5,14.2c0.7,0.6,1,1.7,1.4,2.4c8.9,2.7,17.9,2.8,26.9,2.3c17-0.9,30.6-8.4,40.5-22.3c3.1-4.3,6-8.7,8.8-12.8
			c4.3-0.3,6.8,1.6,9.1,5.1c-6,4.7-7,12.1-9.9,18.6c-2.7,6.1-4.9,12.3-9.6,18.2c-20.3-0.5-40.9,1.6-61.5-0.4
			c-14.6-1.4-29.2-1.7-43.8,0.8c-4.5,0.8-9.1,1.4-15,1c1.4-2.4,1.9-4.5,3.2-5.1c2.3-1.1,5.1-1.3,7.7-2c7.9-2.1,9.6-4.5,9.6-12.6
			c0-10.6,0.3-21.3,0.5-31.9C1355.6,1040.7,1355.6,1036.4,1355.6,1032z M1455.8,1189.8c-0.4,2.3-0.6,4.6-1.2,6.9
			c-1.6,7-4.9,13-11.1,17.1c-2.2,1.5-4.5,2.8-6.7,4.3c-12.2,8.1-24.6,6.3-37,0.7c-1.7-0.8-3.2-2.3-4.4-3.8c-2.9-3.6-5.4-7.4-8.2-11
			c-6.1-7.9-6.2-7.9-6.5-13.3c-1.5-14.5,3.1-22,10.1-28.2c14.4-12.6,39.9-13.2,54.6-1C1454.1,1168.6,1457.8,1178.3,1455.8,1189.8z
			 M1120.3,948c1.7-0.8,3.9-0.8,5.8-0.8c20.3,0,40.6,0,60.9,0c1,0,1.9,0.4,3.7,0.8c-1.1,1.5-1.7,3-2.8,3.7c-1.3,0.9-3,1.8-4.6,1.8
			c-5.4-0.1-9.9,1.7-13.1,6c-3.2,4.2-3.5,9.2-3.5,14.3c-0.2,14.6-0.5,29.2-0.6,43.8c-0.1,18.6-0.1,37.1-0.1,55.7
			c0,0.7,0.1,1.3,0.2,2c1.3,10.7,1.7,11.6,12.6,12.4c8.9,0.7,18,0.8,26.9-0.1c13.6-1.4,24.3-8.5,32.6-19.3c3.7-4.7,7-9.7,10.6-14.8
			c4.1-0.8,6.7,1.3,9.3,4.9c-4.9,4.7-7.7,10.4-9.9,16.7c-1.9,5.3-4.8,10.2-7.3,15.3c-1.3,2.6-3.4,4.3-6.2,4.6
			c-3.6,0.4-7.8,1.4-10.8,0.1c-4.2-1.9-7.8-0.6-11.6-0.1c-12,1.3-23.9,1.1-35.9,0.3c-14.2-1-28.6-1.5-42.8,0.8
			c-3.9,0.6-7.9,1.2-11.9,1.4c-0.9,0.1-2.5-1.2-2.7-2.1c-0.2-1,0.6-2.9,1.4-3.2c2.7-1.1,5.7-1.9,8.6-2.4c6.3-1,9.2-4.9,9.4-11
			c0.1-4.6,0-9.2,0-15.5c2.5,1.4,3.8,2.1,5.1,2.8c0.2-0.6,0.7-1.2,0.6-1.8c-0.6-3.7-4.6-7-1.2-11.1c0.2-0.2,0.2-0.7,0.1-1
			c-0.7-5.1-3-10.1-0.9-15.3c-3.3-2.5-1.5-6.5-2.5-9.7c-1-3.1-1.3-6.5-1.3-9.7c-0.1-13.9,0-27.9-0.1-41.8c0-4.3-0.5-8.7,3.4-11.5
			c-1.5-6.7-5.9-9.1-11.6-9.8c-3.9-0.4-7.7-0.8-12.6-1.3C1118.9,950.4,1119.2,948.4,1120.3,948z M962.9,1091.3
			c1.9-0.7,3.9-0.9,5.8-1.5c9.1-2.5,10.1-4.6,11.5-13.7c2-12-0.3-23.8,0-35.7c0.3-8.9,0.7-17.8,1-26.7c0.1-1.9,0.4-4-0.2-5.7
			c-2.1-6.4-0.7-11.7,4.9-16.2c-1.4-7.1-2.8-14.2-4.3-21.9c2.7-2.4,3.6-5.8,1.4-9.9c-2-3.9-5.2-6-9.4-6.5c-3.9-0.4-7.9,0.7-11.3-1.5
			c-0.8-3.7,1.3-4.7,3.8-4.8c5.3-0.2,10.6-0.1,16-0.1c13.6,0,27.3-0.1,40.9-0.1c2.3,0,4.5,0,8.5,0c-2,2.5-2.8,4.4-4.1,5
			c-3.4,1.4-6.9,2.1-10.5,3.1c-4.8,1.3-7.6,4.7-8.1,9.1c-1.1,9.5-2.4,19.3-1.5,28.7c0.6,7,1.1,13.8,1,20.8
			c-0.1,7.6-0.5,15.3-0.5,22.9c0,11.9,0.2,23.9,0.4,35.8c0.1,3.3,0.3,6.5,0.5,10.5c3.9,1.9,7.9,4,12.2,5.8c4.1,1.7,9.1,0.9,13.5,5.1
			c-2.1,1-3.4,2-4.8,2.1c-2.3,0.3-4.7,0.3-6.9-0.1c-18.2-3.2-36.4-2.4-54.5,0.5c-2,0.3-4,0.4-5.9,0.5c-0.3,0-0.6-0.3-1.1-0.5
			C959.4,1094.1,960.1,1092.3,962.9,1091.3z M756.4,947.5c2.3-0.4,4.6-0.3,7-0.3c21.3-0.2,42.6-0.3,63.9-0.5
			c10.1-0.1,19.9,1.3,29.2,5.4c11.8,5.2,19.2,14.1,21.1,27c0.4,2.5,0.7,5.9-0.6,7.7c-3,4.3-3.6,9.3-5,14
			c-3.6,12.2-11.3,20.7-23.1,25.7c-11.3,4.7-23,6.2-35.1,6.1c-3.6-0.1-7.3-0.8-10.3,1.7c-2.6,13.4-1.7,26.7-1.2,39.8
			c0.3,6.8,5.6,11.8,12.2,14.4c2.8,1.1,5.8,1.4,8.7,2.2c1.5,0.4,3,1,5.6,2c-1.9,1.6-3,3.2-4.1,3.3c-3.6,0.2-7.3,0-10.9-0.4
			c-15.2-1.6-30.4-2-45.7,0.2c-2.9,0.4-5.9,0.2-8.9-0.1c-1-0.1-1.8-1.3-3.9-2.9c3.6-1.2,6-2.1,8.4-2.8c8.4-2.5,9.5-3.4,10.2-12.4
			c0.5-6.9,0.3-13.9,0.6-20.9c0.2-5.3,0.7-10.6,0.8-15.9c0.1-3-0.1-5.9-0.4-8.9c-0.3-3-0.8-5.8,1.7-8.4c1.6-1.8,2.3-4.7,0.3-6.4
			c-2.9-2.5-2.9-5.5-1.7-8.1c1.9-4-2.7-9,2.3-12.6c0.7-0.5-0.2-3.7-0.7-5.6c-0.5-1.9-1.8-3.6-2.1-5.5c-0.7-4.6,1-6.8,5.5-7.7
			c2.2-0.5,4.4-0.8,7.8-1.4c-4.8-6.3-9.1-11.6-13-17.1c-2.6-3.7-6-5-10.2-5.3c-3.6-0.3-7.1-0.8-10.2-1.1
			C753.3,949.6,754,947.9,756.4,947.5z M810.6,1331.4c0.1,4.3-0.2,8.7,2.4,12.6c0.7,1,1.1,2.8,0.6,3.8c-3.1,7.4-1.1,15.3-2.6,22.9
			c-2.6,13.7-2,27.6-1.5,41.5c0.5,13.8-0.4,27.7-0.4,41.6c-0.1,11.9,0.2,23.8,0.3,35.7c0,4.3-0.2,8.6-0.4,12.9
			c-0.4,13,1.6,16.2,13.6,21.1c6.5,2.7,13.4,3.8,20.3,4.6c2.3,0.3,4.8,0.3,6.8,1.3c1.4,0.7,2.1,2.8,3.4,4.6c-4.4,2.1-6.9,6.2-12,5.2
			c-2.6-0.5-4.5-0.5-5.9-3.9c-1.8-4.5-6-6.7-11.1-4.3c-1.4,5.1,6.5,2.1,5.3,6.9c-2.2,2.5-5.4,1.5-8.3,1.5c-9-0.1-18-0.6-27-0.6
			c-9.6-0.1-19.3,0-28.9,0.1c-14,0.2-28,0.6-41.9,0.8c-3.6,0.1-5.4-1.5-5.6-4.3c-0.2-3,1.2-5.5,3.9-6.2c3.5-0.9,7.2-1.4,10.8-2.1
			c2.9-0.6,5.8-1.5,8.8-1.9c9.3-1.5,13.9-8.3,15.5-16.2c2-9.9,5-20,2.6-30.5c-0.8-3.7-1.5-7.5-1.4-11.3c0.1-3.6,1.4-7.1,2-10.3
			c-5.4-7.3-5.3-8.1,2-10.6c-2-2.9-4.8-5.5-5.7-8.6c-1-3.1-0.1-6.7,4.4-8c-7.3-8.3-1.6-16.1-0.8-24.4c-0.9-1.1-2.2-2.6-3.7-4.5
			c1.6-0.9,3.9-1.5,4.4-2.7c0.6-1.5-0.4-3.6-0.9-6c1.5-0.6,3.5-1.3,5.4-2.3c1.7-0.9,3.1-2.3,4.8-3.5c-4.2-1-9.6,3.8-13.6-2.5
			c4.4-7.8,1.8-17.6,5.3-26.2c-2.8-3.9-3.9-7.9-2.8-13c0.6-2.9,2.2-7.3-1.9-9.9c2.3-3.7-3.3-8.8,1.9-12c-0.1-4.5,1.2-9.6-0.5-13.4
			c-2.5-5.6-2.2-10.8-1.6-16.3c0.1-1.3,0.3-2.5,0.5-3.5c-2.8-2.8-5.9-2.4-8.8-2.3c-14,0.6-28,0.4-41.8,2.1
			c-9.4,1.1-18.9,2.9-27.4,8.4c-6.5,4.2-11.1,9.3-13.8,16.4c-1,2.5-2.3,4.8-3.6,7.5c-4.1,0.8-8,3.1-13,0.3c0-1.8-0.3-3.7,0.1-5.5
			c2.8-12.2,5.5-24.5,8.6-36.7c1.7-6.7,4.1-13.1,6-19.7c1-3.4,3.3-5,6.5-5.2c3.3-0.1,6.7,0.1,9.9,0.7c1.4,0.3,3.3,1.7,3.6,2.9
			c1.7,7.8,7.9,9.4,14.3,10.2c7.2,1,14.6,1.6,21.9,1.7c26,0.4,52,0.7,77.9,0.7c25.3,0,50.6-0.3,75.9-0.7c6.3-0.1,12.6-0.8,18.9-1.7
			c5.1-0.7,9.8-3,12-7.9c2.3-5.1,6.2-6.4,11.3-6.3c3.9,0.1,7.9-0.3,13.3,2.9c-6.1,3.6-7.6,8.6-8.5,13.9c-2.1,12.8-4.1,25.6-6.3,38.4
			c-0.9,5.2-2,10.3-3,15.8c-3.6,0-6.5,0-10,0c-1.6-5.7-3.3-11.3-4.8-17c-3.4-12.6-8.5-17.4-21.3-18.8c-8.9-1-17.9-1.5-26.9-2
			c-10-0.6-19.9-1.1-29.9-1.3c-6.5-0.2-9,2.6-8.8,9.1C810,1307.5,810.2,1319.4,810.6,1331.4z M754,1193c8.5-5.6,9.5-5.5,17.1,1.4
			C765.1,1195.3,759.9,1196.4,754,1193z M824,1194.1c1.5-0.7,3-1.9,4.6-2c2.9-0.2,5.9,0.4,8.9,0.4c7.3,0.1,14.5,1.1,21.7-0.9
			c1.9-0.5,4.1-0.7,5.9-0.2c11.1,2.6,22.4,1.1,33.7,1.7c1.9,0.1,3.9,0.3,5.8,0.4c0,0.6,0,1.1,0,1.7c-26.7,0-53.4,0-80.2,0
			C824.3,1194.8,824.1,1194.4,824,1194.1z M925.6,1637.4c-0.9,0.1-2,0-3.1-0.3c-12.4-2.9-24.9-5.7-37.3-8.5c0.1-1,0.2-1.9,0.3-2.9
			c0.3,0.1,0.7,0.1,1,0.2c0-0.1,0-0.1,0-0.2c5.5,0.8,10.9,1.9,16.4,2.4c0.8,0.1,1.6,0.1,2.4,0.1c2.2,0,4.4-0.3,6.4-0.9
			c2.3-0.7,4.5-1,6.6-1c5.7-0.2,10.6,2.2,15.7,6.1C931.6,1635.9,929.1,1637.6,925.6,1637.4z M1201.6,1483.2
			c-2.9,8.4-5.1,17.1-9.6,25.1c-3.6,6.2-5.4,13.4-8,20.3c-7,1.8-14.3,1.8-20,8c-1.2-2.4-2-4-3-6.3c-5.8,0-10.5,2-13.6,8.3
			c-2-1.6-3.7-3-5.4-4.3c-0.7,0-1.6-0.3-2,0c-5.4,4.8-11.9,5.5-18.6,5.3c-10.6-0.3-21.3-0.8-31.9-1.1c-7.3-0.2-14.6,0-21.9-0.4
			c-7.9-0.5-15.8-2.6-23.8-0.9c-15.6-2.5-31.1,1.7-46.7,0.6c-3.3-0.2-6.6,0.5-9.9,0.7c-6.6,0.3-13.3,0.3-19.9,1
			c-5.8,0.6-10.1-1.5-14-5.5c-0.1-2.7,1.3-4.4,3.9-5c2.9-0.7,5.9-1.2,8.8-1.7c2-0.3,4-0.4,5.9-0.8c10.4-2.3,19-8.5,17.9-21.3
			c0-0.6,0.5-1.2,0.9-1.9c0.9,0,1.8,0,3.1,0c-0.3-3.7-4.8-6.8-1.7-11c0.3-0.4,0.1-1.4-0.1-1.9c-4.7-9.4-2.8-19.4-2.9-29.2
			c0-9.6-0.5-19.3-0.4-28.9c0-11.9-0.5-23.9,3-35.6c0.3-1.1,0.3-3.1-0.4-3.5c-3.5-2.4-2.4-6-2.4-9.1c-0.1-15.6-0.6-31.2,0-46.7
			c0.4-10.4,0.7-20.9,1.3-31.3c0-0.3,0.1-0.7,0.1-1c0.5-13.5-5.3-17.6-15.7-20.6c-5.4-1.5-11.2-1.8-16.8-2.6c-1.9-0.3-3.9-0.5-6-0.8
			c-0.4-1.6-1-2.8-1-4.1c-0.1-5.3,2-7.4,7-7.3c11.3,0.3,22.6,0.9,33.9,0.9c46.6,0.1,93.3,0.1,139.9-0.1c15.6-0.1,31.3-0.8,46.9-1.2
			c3.2-0.1,6.7-0.8,9.4,1.4c0.3,8.5,0.4,16.7,1,25c0.5,7.9,1.4,15.7,2.1,23.4c-3.6,5.6-7.4,10.7-15.7,9.3
			c-3.1-4.9-6.3-10.3-9.7-15.5c-6.3-9.9-15.4-16.3-26.2-20.2c-12.9-4.6-26.2-7.3-40.1-7.2c-14,0.1-28,0.5-41.8,2.7
			c-1.6,0.3-3.3,0.6-4.9,1c-8.6,2-12.2,8.1-8.3,16.2c3.7,7.6,3.5,14.3,0.1,21.6c-1.1,2.3-1.2,5.2-1.2,7.8c-0.1,15.2,0,30.5,0.1,45.7
			c0,3.3,0.7,6.5,1,9.3c2.9,2.6,5.8,3.1,8.8,3c20.7-0.1,41.3-0.6,61.7-3.8c3.3-0.5,6.5-1.4,9.6-2.7c7.3-3,11.5-8.8,13.6-16.3
			c1-3.8,1.8-7.7,2.6-11.4c8.9-4,8.9-4,15.8,0.6c-0.6,1.7-1.4,3.5-1.9,5.4c-1.6,5.7-2.8,11.3-1.5,17.5c0.8,3.5,2.7,7.6-0.2,11.3
			c-0.5,0.7-0.7,2.1-0.4,2.9c3.7,7.9,1.2,16.4,2.2,24.5c0.9,7.2,0.5,14.5,0.6,21.8c0,2.6-0.4,5.1-0.7,8.1c-2.9,0.4-5.1,1.1-7.3,0.9
			c-7.4-0.4-8.7-2-8-9.2c1.4-13.6-6.8-23.3-19.8-27.9c-12.9-4.6-26-4.6-39.2-5.1c-3.3-0.1-6.6-0.5-9.9-0.9
			c-8.3-1.1-16.6-1.1-25.5,1.9c-0.8,2.4-2.6,5.2-2.6,7.9c0.1,6.1-1,11.8-3,17.5c-0.9,2.6,0,5,1.7,7.4c1.3,1.7,2.1,4.2,2.1,6.3
			c0.3,8.9,0.3,17.9,0.3,26.8c0,6.6-0.2,13.3,0,19.9c0.1,4.3,0.9,8.5,1.3,12c2.9,1.8,5.8,2.7,7,4.6c4.5,7.1,11.5,10.3,19.1,11.6
			c35,5.7,67-0.5,93.6-25.5c10-9.4,17.3-21,24.3-32.8c0.8-1.4,1.6-2.9,2.3-4.1c8.4-0.5,11.3,0.7,16.2,6.3
			C1205.3,1473.4,1203.3,1478.3,1201.6,1483.2z M1214.4,1190.1c-9.6-0.1-19.1-0.4-28.7,0c-13.3,0.6-26.6,0.8-40,0.8
			c-15.7,0-31.3-0.4-47-0.5c-42-0.1-84,0.1-125.9-0.1c-11.3-0.1-22.6,0.5-33.8-1.7c-2.8-0.5-5.9,0.4-8.9,0.6
			c-5.6,0.3-11.3,0.7-16.9,0.5c-6.3-0.2-12.6-1.1-18.9-1.3c-9.3-0.4-18.7-0.9-28-0.5c-14.3,0.6-28.7-0.3-42.9,0.8
			c-13,1-25.9,1.3-38.8,1.4c-5.2,0-10.5-1.4-15.7-2c-4-0.4-7.9-0.9-11.9-0.8c-5.6,0.1-10.6,1.6-11.9,7.8c-9.9,0.2-11.3-1.5-7.6-8.8
			c-14.1,4.8-28.4,0.3-43.2,1.7c4.1,5.8,12,1.2,16,6.7c-7.9,0.6-15.7,1.3-23.6-0.2c-2.1-0.4-4.5,0.1-6.7,0.4
			c-5.7,0.7-7.8,0.1-13.1-3.7c0.6-2.7,1.3-5.5,1.9-8.2c4.3-2.7,8.8-1.8,13-1.8c41.7-0.1,83.3,0,125,0c71,0,142,0,213,0
			c97.7,0,195.3,0,293,0c7.3,0,14.7,0.1,22,0.2c1.9,0,3.7,0.4,6,0.7c-1.9,4.5-3.5,8.3-5.4,12.8c-2.3,0.1-4.8,0.3-7.9,0.5
			c-0.3-3-0.6-5.5-0.9-7.9c-0.6,0-1.5-0.4-1.9-0.1c-3.1,2.4-6.5,2.9-10.3,2.9C1281,1190.2,1247.7,1190.7,1214.4,1190.1z
			 M1491.3,1536.7c-13.9,1.7-27.7,3.5-41.6,5c-10.2,1.1-18.4-3.2-24.5-10.8c-7.8-9.9-15.2-20.2-22.1-30.8
			c-7.3-11.1-13.9-22.6-20.8-33.9c-1.2-2-2.7-3.9-3.5-6c-3.5-9.5-9.2-17.6-14.5-26.1c-2.4-4-4.4-8.2-6.9-12.2
			c-2.4-3.9-4.9-8-7.9-11.4c-3.7-4.2-8.7-6.2-14.3-5.8c-4.3,0.3-8.5,1-13.3,1.6c-0.3,9-0.6,17.8-0.9,26.6c-0.3,7.6-1.4,15,0.1,22.8
			c1.2,6.1,0,12.6,0,18.9c0,2.6,0.2,5.3,0.7,7.9c0.9,4.3,1.3,8.4,0.1,12.7c-1.3,4.6-1.1,9.1,3.3,12.6c1.4,1.1,2.3,3.2,2.9,5.1
			c2.3,6.8,7.4,10.1,13.8,11.9c4.1,1.2,8.5,1.8,12.7,2.7c2.9,0.6,5.9,1.1,8.7,2.3c1,0.4,2.2,2.7,1.9,3.9c-0.9,4-3.8,6.4-7.8,6.3
			c-8-0.1-16-0.2-23.9-0.8c-11.9-0.8-23.7-2.1-35.6-3c-2.3-0.2-4.7,0.1-6.9,0.6c-8.2,1.6-16.4,2.8-24.4-0.9c-4,1.4-8.4-0.8-12.2,1.4
			c-5.6,3.3-11.7,1.8-17.6,2c-2.5,0.1-3.9-2.5-3.3-5.1c0.7-2.9,2.4-4.7,5.3-5.3c5.2-1.1,10.5-1.9,15.6-3.3
			c9.8-2.5,12.5-5.8,13.4-15.9c0.3-3,0-6,0.1-9c0.2-10,0.2-10,7.2-17.6c-2-0.9-3.9-1.7-6.2-2.8c1.3-7.4,2.6-14.5-0.2-21.7
			c-1-2.5,2-5.4-0.4-8.9c-1.4-2,0.8-6.2,0.9-9.5c0.2-7.2,0.9-14.5-0.1-21.6c-0.8-5.5,0.4-9.7,3.7-13.4c-7.3-15.3-7-30.1,0.8-44.8
			c-6.5-4.3-6.5-4.3-0.8-12.2c-2.3-7.6-3.2-15.7-0.5-23.9c0.5-1.5-0.1-3.3-0.1-4.9c0-5.5-1.4-10.9-1.3-16.5
			c0.1-7.9-4.9-13.8-12.6-16.3c-6.3-2.1-12.9-3.3-19.3-4.9c-1.6-0.4-3.3-0.3-4.9-0.6c-2.6-0.6-3.9-2.5-4-5c-0.2-2.8,1.7-5.5,4.2-6.1
			c1.6-0.3,3.3-0.2,4.9-0.1c19.6,0.5,39.3,1.3,58.9,1.3c15,0,29.9-1.1,44.9-1.7c22.7-0.8,45.3,0.2,67.1,7.4
			c10,3.3,18.9,8.2,26.2,15.8c2.8,3,4.3,5.8,4,10.5c-0.4,5.6-0.7,11.5,2.7,17.1c2.7,4.4,3.7,9.9,2.2,15.3c-0.4,1.6-0.6,3.3-0.7,4.9
			c-1.2,19.8-12.8,32.4-29.3,41c-7.6,4-16.2,5.8-24.3,8.8c-2.6,0.9-6.1,0.6-7.1,5c12,3.9,19.6,13,27,22.5
			c11.9,15.3,21.9,31.8,32,48.3c6.9,11.4,14.2,22.6,21.5,33.7c8.6,13.1,19.4,23.7,35.5,28.4
			C1498.4,1532.9,1496.2,1536.1,1491.3,1536.7z M1831.5,1279.8c-0.8,1.1-2.8,1.6-4.4,2c-3.2,0.8-6.5,1.3-9.8,2.1
			c-12.9,3.5-22.9,11.4-25.2,28.5c-1.9,14-1.1,27.9-2.3,41.8c-0.1,1.6,0.1,3.3-0.2,4.9c-2.1,12.5-1.5,24.9,0.4,37.3
			c0.2,1.3,0.6,2.8,0.2,4c-3.4,12.2,1.1,24.3,0.6,36.5c-0.2,3.8-1.3,8.1,1.8,11.5c0.3,0.4,0.5,1.4,0.2,1.8
			c-4.5,6.7-1.6,14.2-2.3,21.3c-0.6,7.3-0.4,14.6-0.3,22c0.1,15.6,0.3,31.3,0.4,46.9c0,0.6-0.5,1.2-0.8,1.8
			c-12.4,3.7-20,1.2-26.9-8.3c-2.9-4-6.5-7.5-9.7-11.2c-4.3-5-7.6-10.7-13.3-14.5c-2.8-1.9-4.4-5.7-6.6-8.6c-2-2.6-3.7-6-6.4-7.3
			c-9.2-4.7-15.4-12.5-22.3-19.7c-8.1-8.3-16.3-16.6-24.5-24.9c-7.7-7.8-15.7-15.2-22.6-23.8c-6.4-8-14.1-15-21.3-22.4
			c-5.1-5.2-10.3-10.3-15.3-15.6c-1.9-2.1-3.3-4.7-5-7.1c-4-5.8-9.3-9.9-15.1-13.8c-4.3-2.9-7.6-7.3-11.5-10.9c-2.7-2.5-5.4-5-8.4-7
			c-3.7-2.4-7.7-0.3-7.7,4.2c0,7.9,0.6,15.9,1,23.8c0.3,4.6,0.2,9.3,1.5,13.6c1.3,4.3,1.8,8.2-0.2,12.3c3.4,4.2-2.7,9.4,1.3,13.7
			c0.4,0.5-0.6,2.3-1.1,3.5c-0.9,2-1.2,3.7,0.9,5.2c2.7,2,1.8,4.6,0.9,7.2c-1.9,5.3-2.8,10.5,0,16.1c2.9,5.7,1.1,12.2,1.4,18.4
			c0.1,2.5-0.5,4.9,0.1,7.6c0.4,2.2-1,4.9-1.8,7.9c3.1,4.4,3.5,9.9,2.4,15.6c-1.6,8.9,2.2,16.3,7,23.1c1.9,2.7,5.9,4.3,9.3,5.2
			c5.7,1.7,11.7,2.4,17.6,3.7c2.2,0.5,4.2,1.3,6.1,1.9c0.8,4.8-3.4,6-4.1,9.6c-11.5-0.4-22.4-1-33.4-1.2c-12-0.2-24-0.6-35.9,0
			c-7.4,0.3-14.6,0.5-21.9-0.6c-1.6-0.2-3.2-0.8-4.7-1.5c-1.1-0.5-2.2-1.2-3-1.7c-0.5-3.4,1-5.1,3.5-5.7c3.9-0.9,7.9-1.4,11.8-2.2
			c14.3-3.2,20-5.2,20.6-24c0.3-10.6-0.8-21.3,2.2-31.7c1.5-0.9,2.9-1.7,4.5-2.7c-4.5-17.4-7.4-34.8,0.3-52.5c-2-2-5.3-3-4.8-7.2
			c0.6-4.9,0.1-9.9,0.3-14.9c0.8-16.2,1.7-32.4,2.5-48.6c0.1-1.3,0.1-2.7-0.3-3.9c-1.2-3.4-1.1-6,1.4-9.2c2.3-2.9,1.7-6.2-0.3-10.1
			c-4.1-8-11.7-12.1-17.5-18.3c-11.1-11.9-25.5-17.6-41.4-19.7c-2-0.3-4.1-0.5-5.7-1.5c-1.5-0.9-3-2.8-3.2-4.5
			c-0.3-2.3,0.9-4.8,3.7-5.2c4.9-0.8,9.9-1.7,14.9-1.8c21.7-0.4,43.3-0.5,65-0.9c4.7-0.1,8,1.5,11.3,4.9
			c27.8,29.2,55.8,58.2,83.7,87.3c8.7,9.1,17.2,18.5,25.9,27.7c1.6,1.7,3.4,3.2,5,4.8c9.3,9.5,18.5,19,27.8,28.5
			c4.6,4.8,9.2,9.6,13.9,14.3c4.4,4.4,9.2,8.5,13.2,13.2c2.5,2.9,3.9,6.6,6,10.2c4-0.1,4-0.1,10.6,3.7c0.2-2.2,0.6-4,0.5-5.9
			c-0.3-12.3-0.8-24.6-1.2-36.9c0-1-0.2-2,0-3c2.2-10.5,0.1-20.9-0.5-31.3c-0.4-7.3,0.2-14.6,0.7-21.9c0.2-3.6,0.4-6.9-1.1-10.6
			c-1.3-3.3-1.2-8,0-11.5c3.5-10,0.7-19.7-0.3-29.6c-0.2-2.3-0.6-4.5-0.5-6.8c0.6-11.5-3.4-18.3-13.9-23c-2.7-1.2-5.6-2-8.5-2.8
			c-4.7-1.3-9.5-2.5-15.1-3.9c0.4-2.6,0.2-5.1,1.3-6.7c0.9-1.3,3.4-1.9,5.2-2.1c2.3-0.3,4.7-0.2,7,0c21.6,1.9,43.2,2.2,64.9,1.2
			c6-0.3,11.9-1,17.9-1.2c5.5-0.2,8,1,8.4,3.5C1836.9,1276.5,1833.1,1277.5,1831.5,1279.8z M1989.8,1536.7c-2.2,2-4.4,3.7-7.9,3.6
			c-18.6-0.7-37.3-1.5-55.9-1.6c-14.3-0.1-28.6-1.3-42.9,0.3c-6.6,0.7-13.3,0.4-19.9,0.5c-1,0-2-0.2-3-0.4c-2-0.4-3.9-1.2-4.1-3.6
			c-0.3-2.5,0.5-5,3-5.8c3.4-1.2,7.1-1.6,10.7-2.4c4.2-1,8.5-1.8,12.6-3.1c5.2-1.6,8.4-5.5,9.3-10.8c0.7-4.5,1.6-9,1.7-13.7
			c0-4.4-1-9.3,1.7-13.6c0.6-1,0.5-2.7,0.1-3.8c-2.2-6.8-1.3-13.7-1.8-20.6c-0.6-9.3-0.3-18.6-0.6-27.9c-0.2-6.9,0.8-13.8,1.3-20.8
			c0.1-1,0.6-2,0.3-2.9c-3.2-11.8-0.4-23.8-1.5-35.7c-0.7-7.2-0.2-14.6-0.1-21.9c0-2.3,0-4.8,0.9-6.8c1-2.1,0.5-3.6,0.1-5.6
			c-0.8-3.9-1.9-8.1-1.1-11.7c1.4-6.4,2.4-12.9,3.5-19.4c1.6-10.2-3.5-20.8-13.3-23.6c-7.9-2.3-16.2-3.3-25.2-5.1
			c-1.5-8.9,0.3-11.1,8.6-10.7c30.6,1.4,61.3,1.6,91.9,0.7c7-0.2,14-0.9,20.9-1.2c2-0.1,4,0.1,5.9,0.6c2.3,0.6,3.5,3.6,2.3,5.6
			c-1.9,3.1-3.7,6.2-8.2,6.5c-3.6,0.2-7.3,1-10.8,2c-3.5,1-7.1,2-10.2,3.8c-5.1,2.8-8.7,6.7-9.7,13c-2,12.5-3.2,24.9-1.8,37.6
			c0.9,7.9,0.2,15.9,0.2,23.9c-0.1,16-0.3,31.9-0.4,47.9c0,4.1-0.1,8-3,11.2c1.1,1.9,2.3,3.5,2.8,5.2c0.5,1.9,0.5,4,0.5,6
			c-0.2,22.9-0.4,45.8-0.8,68.7c-0.1,5.2,1,9.9,4,14c0.9,1.3,2.3,2.2,3.6,3.1c7.6,5.1,16,7.9,25.1,8.8c3.3,0.3,6.6,1,9.8,2
			C1991.4,1530.3,1992.2,1534.5,1989.8,1536.7z M1967.5,1190.1c-38.7,0.1-77.3,0.3-116,0.4c-23,0-46-0.2-68.9-0.1
			c-51.3,0-102.6,0.2-153.8,0.2c-19.6,0-39.2-0.6-59.3-0.9c-0.4,1.6-0.9,3.4-1.5,5.6c-4.7,0-9.7,1.7-14.6-2.8
			c0.9-3.2,1.8-6.6,2.7-9.9c5.1-1.9,9.8-1.3,14.4-1.3c28-0.1,56,0,84,0c104.6,0,209.3,0,313.9,0c13.7,0,27.3,0,41,0
			c56.3,0,112.5,0,168.8,0c13.3,0,26.6,0.3,39.9,0.5c1.3,0,2.6,0.3,4.9,0.5c-0.4,6.5-2,11.1-8.6,13.6c-1.5-3.5-2.8-6.6-4.3-10.3
			c-12.8,6.1-27,4-40.7,4.5c-26.3,0.9-52.6-0.1-78.9-0.2c-16.3,0-32.6,0.4-48.9,0.4C2016.8,1190.2,1992.2,1190,1967.5,1190.1z
			 M2279.4,1262.4c4.4,6.7,4.4,6.7,3.2,15.4c-1.8,13.5-3.7,27.1-5.6,40.6c-0.2,1.6-0.4,3.3-0.9,4.9c-0.8,2.2-2.7,3.1-4.8,2.2
			c-4.4-1.9-8.3-4.4-8.9-9.8c-0.6-5.7-2.7-10.9-5.5-15.8c-2-3.6-4.8-6.2-8.9-7.5c-7.3-2.2-14.7-4.2-22.4-4.3
			c-14.3-0.2-28.6-0.7-42.9-0.9c-2,0-4.1,0.1-5.8,0.8c-1.3,0.6-3.1,2.9-2.8,3.5c2.1,4.1-2.1,7.7-0.9,11.2c1.4,4.2-2.4,7.3-1.1,11.5
			c1.1,3.6,0.5,7.8,0.6,11.8c0.1,4,0.3,8,0,12c-0.2,2.5-1.1,5.2-2.4,7.3c-2,3-1.5,5.9-0.2,8.4c1.1,2.1,3.1,3.9,2,6.2
			c-0.9,1.9-3,3.3-4.6,5c1.4,4.6,3.3,9.2,4.2,13.9c0.5,2.7-1.1,5.7-1,8.6c0.2,2.4,1.8,4.7,2.3,7.2c0.3,1.9,0.2,4.2-0.5,5.9
			c-1.9,4.4-1.6,8.8-0.4,13.2c-4.5,3-10.7-2-14.2,4.5c4.8,1.9,12.6-2,14.9,6.5c-12.3-1.2-14.1-0.5-14.6,5.4c1.9-1,3.5-1.8,5.1-2.6
			c0.3,0.6,1,1.2,0.9,1.6c-0.5,1.9-1.2,3.7-2,5.5c-0.8,1.8-1.8,3.5-3.2,6.4c4.5-1.8,7.7-5.3,12.8-3.3c2.9,7.6-6.2,11.7-6.2,19.1
			c1.8,1.1,4,2.3,6.8,4c0.3,9,0.6,18.3,0.8,27.6c0.1,4.7-0.2,9.3,0.1,14c0.2,3.5-1.4,5.5-4.3,7.1c6.8,2.3,7,2.1,11.6,8.2
			c3.3,4.2,7.3,6.7,12.4,7.6c5.9,1.1,11.8,2.1,17.6,3.4c1.8,0.4,3.4,1.5,6,2.6c-2.5,3.2-4.5,5.7-6.5,8.2
			c-17.9,0.1-35.6,0.8-53.1-1.9c-11.1-1.7-21.8-0.6-32.7,0.5c-13.8,1.4-27.7,1.9-41.5,1.7c-2.9-7.2-1.9-9.7,4.4-11.2
			c3.6-0.8,7.2-1.2,10.8-1.9c13.8-2.4,18-6,22.4-19.3c0.5-1.5,0.7-3.1,1.4-4.6c0.5-1.2,1.4-2.2,2.2-3.3c-0.8-2-1.2-4-2.2-5.7
			c-5.3-9.4-3.2-19.5-3.1-29.4c0-0.6,0.1-1.5,0.5-1.9c1.6-1.6,4.5-2.2,4.1-5.1c-0.5-3.8-0.8-7.8-2.3-11.2c-2.3-4.9-2.4-9.8-0.7-14.5
			c2.2-6.3,1.4-13,4-19.3c0.8-2.1,0.3-5.8-1.1-7.5c-3.2-3.9-2.6-8.4-2.2-12.4c0.6-6,1.8-11.7-2-17.2c-0.7-1-0.6-2.6-0.6-3.9
			c0-6-0.2-12,0.1-18c0.1-2.9,1-5.8,1.5-8.8c0.7-4.8,1.2-9.5,1.8-14.3c0.1-1,0.1-2.3-0.4-2.9c-4.7-5.8-1.1-11.3,0.7-17.3
			c-4.2-6.4-5.1-13.3,0.1-20.7c-2.3-0.9-4-2.2-5.7-2.2c-20,0.1-39.9,0.2-59.6,4.2c-10.7,2.2-19.1,7.7-25.1,16.7
			c-2.5,3.8-3.9,8.4-6,13c-4.2,0.8-8.4,3-13.4,1.7c-1.4-4.9-0.3-9.5,0.8-14c2.7-11.3,5.6-22.6,8.8-33.8c2.9-10.3,3-10.3,13.4-10.6
			c-1.8-1.4-3.2-1.9-6.6-2.1c0.3-1.9,0-4.2,1-5.4c1.1-1.3,3.3-2.1,5.1-2.4c3.6-0.5,7.2,0.1,10.8,1.7c0,1.8,0,3.4,0,5.4
			c4.7,2.6,9,6.4,14.9,6.9c7,0.6,13.9,1.6,20.9,1.6c47.6,0.2,95.3,0.2,142.9,0.1c8.6,0,17.3-1.1,25.9-1.2c8.2-0.1,14.5-3,19.8-9.6
			c5.2-6.5,12.5-6.9,21.1-2.5C2286.9,1261.3,2286.9,1261.3,2279.4,1262.4z M2533,1593.6c-3.2,0.7-6.1,0.5-8.1,1.8l10.5-6
			c1.2-1.9,2.9-3.4,6-3.5l-6,3.5C2534.4,1590.8,2533.7,1592.4,2533,1593.6z M2627.5,1201.8c-1.6,0.6-5,1.8-8.5,2.9
			c-16.7,5-30.6,13.9-41.5,27.9c-12.7,16.3-24.7,33-36,50.2c-9.6,14.7-20.1,28.7-29.7,43.4c-4.3,6.6-10,12-12.8,19.9
			c-2,5.7-6.9,10.4-10.5,15.5c-4.8,6.9-8.8,13.9-7.3,23.1c0.7,4.3-0.9,9-1.6,14.4c-2.3-0.6-4.6-1.3-7.3-2c-1.2,1.3-2.4,2.7-4.4,4.9
			c-0.9-1.4-1.8-2.7-2.9-4.4c-2.1,1.9-4,3.6-5.8,5.3c0.3,2.9,0.5,5.5,0.8,8.3c0.9,0.1,2.1,0.7,2.7,0.3c2.8-1.7,5.5-3.6,8.8-5.8
			c3,4.5,5.8,8.8,8.8,13.3c-6.5,1.6-8.1,7-6.4,10.8c2.3,5.1-0.3,8.1-1.7,11.9c-0.1,0.3,0.1,0.6,0.4,1.8c1.5,0,3.3-0.2,5,0.1
			c1.3,0.2,2.5,1.2,5.7,2.8c-5.3,1.1-8.4,1.8-11.5,2.4c-1,10.5,0.7,16,7.2,24c1,1.2,1.8,2.8,1.9,4.3c0.3,3.3,0.1,6.6,0.1,10.1
			c-1.6-0.2-3.1-0.5-5.2-0.7c-0.5,1.8-1,3.7-1.6,6c2,0.4,3.5,0.7,5.8,1.2c-0.1,1.4-0.2,3-0.2,4.5c0,3.6,1.4,6.3,4.5,8.3
			c1.9,1.2,3.9,2.5,5.1,4.3c3.4,5.4,8.5,8.5,14.4,10c7.1,1.8,14.3,3,21.5,4.4c3.9,0.7,8,0.6,11.3,4.7c-2.9,3-5.1,6.4-4.9,10.7
			c-5.9,2.5-11.6,1.1-17.1,1.1c-5.9,0-11.9-0.6-17.8-0.7c-20.6-0.4-41.2-0.6-61.9-0.9c-2.3,0-4.7,0-7,0.1c-17,0.7-33.9,1.5-50.9,2.2
			c-2.6,0.1-5.3-0.2-8-0.4c-5.6-0.5-7.7-4.6-9.1-9.2c-0.4-1.2,0.6-3.5,1.7-4.3c1.8-1.3,4.2-1.9,6.4-2.4c7.4-1.7,14.9-3.2,22.3-4.8
			c5.7-1.3,10.6-3.9,14.5-8.2c1.1-1.2,2.1-1.9,4-2.2c2.8-0.4,3.3-2.6,2-5.1c-0.7-1.4-2.3-3.3-1.9-4c2.9-4.8-0.4-9.8,0.8-14.6
			c1.3-5,1.5-10.3,2.4-15.5c0.2-1.1,1.2-2.5,2.2-2.9c3.9-1.7,0.9-5.2,2.2-7.5c-6.3-5.5-2.7-10.3,1-15.1c0.4-0.5,0.4-1.3,0.7-2.4
			c-5.5-2.1-3.6-8-6-12c2.1-3.9-1.8-5.8-3.1-8.9c1.5-1.7,3.1-3.4,5.1-5.6c-0.9-0.8-1.8-1.6-2.8-2.5c1.2-0.9,2.3-1.9,3.5-2.8
			c-7.2-11.1-8.5-23.3-3.4-32.7c-2.1-8.7-7.6-15.9-11.9-23.7c-3.1-5.5-6.3-11-9.4-16.4c-1.7-2.9-3.3-5.7-5-8.6c-1.2-2-2.8-3.9-3.5-6
			c-3-10.1-9.6-18.1-15.5-26.5c-3.8-5.3-5.6-11.8-10-16.8c-0.6-0.7-0.7-1.9-1.4-2.6c-4.7-4.7-7.4-10.6-10.7-16.2
			c-3.2-5.4-6.7-10.7-10-16c-3.5-5.7-6.7-11.5-10.5-17c-2.2-3.2-5-6.2-7.8-8.9c-3.3-3.2-7-6.1-10.5-9.2c-5.4-4.7-11.2-8.2-18.6-8.6
			c-4-0.2-7.6-2-10.9-4.5c-2.9-2.2-3.6-4.7-2.9-7.8c0.7-3.1,2.9-5,6.5-5c6.3-0.1,12.7,0.3,19,0.4c25,0.4,49.9,1.2,74.9,1
			c22.3-0.1,44.6-1.3,66.9-1.9c3.5-0.1,7.5-1.1,9.4,3.6c-2.7,4.1-5.3,8.2-8.3,12.9c-11.3,1.2-22.3,5.7-33.7,11.3
			c0,0.9,0.2,2.8-0.1,4.6c-0.3,2-1.1,3.8-1.6,5.8c-2.8,10.6,0,19.4,9,26.3c-0.4,3.2-0.9,6.6-1.5,10.7c1.8,1.1,4.1,2.4,6.2,3.9
			c1.3,0.9,3.3,2.4,3.2,3.4c-0.5,5.2,3,7.9,6.5,10.1c3.5,2.3,4.5,5.5,5.7,9c1.4,3.9-0.2,6.4-4.9,8.2c2.9,1.4,5,3.4,6.9,3.2
			c6.3-0.7,8.7,3.4,11.3,7.7c7.4,12.3,14.8,24.5,22.3,36.6c0.7,1.1,1.8,1.8,3,2.9c4.4-2,6.3-6.1,8.6-9.6
			c11.1-17,22.1-34.1,32.9-51.3c4.4-7,7.9-14.6,12.1-21.8c7.3-12.5,10.3-26.6,15.5-39.9c1.1-2.8,0.5-5.7-1.9-8.2
			c-5.2-5.5-11-9.4-18.6-10.7c-4.8-0.8-9.6-2.5-14.3-3.8c-1.5-5.5-1.6-9.3,0.4-13.8c6.8-1.2,13.7-0.8,20.6-0.7
			c22,0.5,43.9,1.1,65.9,1.2c11.3,0,22.6-1.1,33.9-1.4c2.1-0.1,4.1,0.9,6.6,1.4C2632.8,1191.7,2630.6,1195.9,2627.5,1201.8z
			 M2751.8,1258.7c-5.2,0.9-6.8-2.6-8.2-5.8c-0.6-1.4,0-3.3,0-5.4c4.5,1.2,3.4,5,5.5,7.7c1.8-1,3.1-1.7,5.5-3.1
			C2753.3,1255.1,2752.5,1257,2751.8,1258.7z"/>
		<path class="st0" d="M2392,1212.1c-0.6,2.2-1.1,4.1-1.6,6.1c7.3-3.7,7.3-3.7,13.2-5c-0.7-1.1-1.4-2.2-2.1-3.4
			C2398.3,1210.6,2395.2,1211.3,2392,1212.1z"/>
	</g>
</g>
</svg>
