<?xml version="1.0" encoding="utf-8"?>
<!-- Generator: Adobe Illustrator 19.0.0, SVG Export Plug-In . SVG Version: 6.00 Build 0)  -->
<svg version="1.1" id="Layer_1" xmlns="http://www.w3.org/2000/svg" xmlns:xlink="http://www.w3.org/1999/xlink" x="0px" y="0px"
	 viewBox="-235 374 134.5 45" style="enable-background:new -235 374 134.5 45;" xml:space="preserve">
<style type="text/css">
	.st0{fill:#FFFFFF;}
</style>
<g>
	<g>
		<path class="st0" d="M-156.8,407.5c-0.1,0-0.2-0.1-0.2-0.2v-17.2h-6.4c-0.1,0-0.2-0.1-0.2-0.2v-2.7c0-0.1,0.1-0.2,0.2-0.2h16.9
			c0.1,0,0.2,0.1,0.2,0.2v2.7c0,0.1-0.1,0.2-0.2,0.2h-6.5v17.2c0,0.1-0.1,0.2-0.2,0.2C-153.2,407.5-156.8,407.5-156.8,407.5z"/>
	</g>
	<g>
		<path class="st0" d="M-199.5,374c5.7,0,9.1,4.6,10.4,13.8c0,0.6,0.1,1.7,0.2,3.3c0,8.8-3,16.7-9,23.7c-2.8,2.8-5.6,4.2-8.4,4.2
			c-4.3,0-7.6-3.2-10-9.7c-0.7-2.2-1.1-4.7-1.1-7.5c0-7.8,2.3-15.3,7-22.5h0.2v0.3c-1.3,2.2-2.1,4.1-2.6,5.7v0.2h0.2
			C-208.7,377.9-204.3,374-199.5,374z M-213.6,402.9c0,7.7,2.6,12.3,7.9,13.7h0.9c1.1,0,2-0.4,2.5-1.1h-1.4c-4,0-6.5-3.3-7.7-9.8
			h0.3c1.6,5.1,3.9,7.6,6.9,7.6c4.7,0,8.3-4.5,11.1-13.5c0.7-2.9,1.1-5.8,1.1-8.6v-0.5c0-1.9-0.2-4-0.7-6.4h-0.3v0.2
			c0.1,1,0.2,1.8,0.2,2.4v0.4c0,3.9-0.6,6.5-1.8,8v-0.2c0.6-2.1,0.9-4.1,0.9-5.9c0-5.5-1.6-9.3-4.8-11.3l-1.7-0.2
			c-4.7,0-8.7,5.2-12,15.6C-213.1,397-213.6,400.2-213.6,402.9z"/>
	</g>
	<path class="st0" d="M-100.8,404.2h-8.8v-17.1h-1.1h-1.4h-1.6c-0.1,0-0.2,0.1-0.2,0.2v19.9c0,0.1,0.1,0.2,0.2,0.2h13
		c0.1,0,0.2-0.1,0.2-0.2v-2.8C-100.6,404.3-100.7,404.2-100.8,404.2z"/>
	<g>
		<path class="st0" d="M-235,407.5V387h6.4c2.6,0,4.6,0.6,5.8,1.7c1.3,1.1,1.9,2.7,1.9,4.7c0,1.2-0.2,2.3-0.7,3.4
			c-0.5,1.1-1.3,1.9-2.5,2.6c-1.2,0.7-2.7,1-4.7,1h-1.8v7.3h-4.4V407.5z M-230.6,396.6h1.5c1.2,0,2.1-0.2,2.8-0.7s1.1-1.3,1.1-2.5
			c0-0.9-0.3-1.6-0.8-2.1c-0.6-0.5-1.4-0.8-2.6-0.8h-2V396.6z"/>
	</g>
	<path class="st0" d="M-169.3,407.3l-6.1-8.3c1.3-0.3,2.4-1,2.4-1c0.8-0.4,1.4-1,1.9-1.7c0.7-0.9,1.1-2,1.1-3.4c0-4-2.7-6-8.2-6
		h-6.5v20.5h4.5v-7.9h1.3l4.4,7.7L-169.3,407.3L-169.3,407.3z M-180.2,390.4h1.9c1.3,0,2.2,0.2,2.9,0.7c0.6,0.5,0.9,1.1,0.9,2.1
		c0,1.1-0.3,1.9-1,2.4c-0.6,0.5-1.6,0.7-2.8,0.7h-1.9C-180.2,396.3-180.2,390.4-180.2,390.4z"/>
	<path class="st0" d="M-130.1,387.3h-3.4l-7.8,20.1h4.2l1.1-3l0,0l1-3h5.5l1,2.7l1.3,3.2h4.9L-130.1,387.3z M-130.2,399.1l-0.3-0.7
		L-130.2,399.1L-130.2,399.1z M-132.8,395.3c0.2-0.7,0.4-1.4,0.6-2h0.2c0.2,1,0.4,1.7,0.7,2.3c0.2,0.6,0.4,1.1,0.6,1.6l0.4,1.1h-3.4
		l0.3-0.9C-133.3,396.8-133,396.1-132.8,395.3z"/>
</g>
</svg>
