<?xml version="1.0" encoding="utf-8"?>
<!-- Generator: Adobe Illustrator 19.0.0, SVG Export Plug-In . SVG Version: 6.00 Build 0)  -->
<svg version="1.1" id="Layer_1" xmlns="http://www.w3.org/2000/svg" xmlns:xlink="http://www.w3.org/1999/xlink" x="0px" y="0px"
	 viewBox="0 0 1200 209" style="enable-background:new 0 0 1200 209;" xml:space="preserve">
<style type="text/css">
	.st0{fill:#FFFFFF;}
</style>
<g>
	<path class="st0" d="M1,188c14.2-27.2,23.7-55.9,27-86.5c1.9-18,3.9-36.1,5.9-54.1c0.2-2.3,0.3-4.6,0.4-7.3
		c-8.9-1.4-16.9-4.1-17.4-15c-0.3-5.5,0.5-10.6,6.8-13.6c2.4,9,9.6,8.5,16.1,7.8C54,17.7,68,15.1,82.2,13.5
		c31-3.6,61.8-3.6,92.2,4.6c5.5,1.5,10.9,4.1,15.7,7.3c7.5,4.9,7.9,13.2,0.2,18c-8.1,5-16.9,9.3-25.9,12.4
		c-22.2,7.5-45.1,11.4-68.4,13.6c-2.4,0.2-4.8,0-7.2,0c-0.2-0.6-0.3-1.1-0.5-1.7c2.1-1.1,4-2.6,6.2-3.2c10-2.7,20.1-4.7,29.9-7.7
		c6.1-1.9,11.9-4.9,17.6-8c3.8-2.1,6-6,5.6-10.5c-0.5-4.7-4.4-7-8.4-7.5c-12.2-1.6-24.4-2.8-36.6-3.5c-5.4-0.3-10.9,0.9-16.4,1.3
		c-2.8,0.2-3.9,1.4-4.4,4.2C77.3,54.5,72.9,76.2,68,97.7C59.3,136,39.6,167.1,7.6,190c-1.9,1.4-4.4,2-6.6,3C1,191.3,1,189.7,1,188z"
		/>
	<path class="st0" d="M728.9,11.2c0.9,6.5,5,8.4,10.1,8c11.2-1,22.5-2,33.6-3.7c34.4-5.2,68.6-6.4,102.7,1.7
		c6.7,1.6,13.3,4.5,19.2,8.1c8.2,5,8.5,13.5,0.3,18.5c-8.6,5.2-17.9,9.6-27.4,12.7c-21.7,7.2-44.2,10.9-67,13c-2.2,0.2-4.5,0-6.8,0
		c-0.2-0.6-0.3-1.2-0.5-1.7c2.2-1.1,4.3-2.7,6.6-3.4c8.3-2.3,16.8-4.1,25.1-6.3c5.3-1.4,10.6-2.9,15.6-5.2c3.6-1.7,7.2-4.4,9.8-7.4
		c4.2-4.9,2.9-10.5-3-13.1c-4-1.8-8.5-3.4-12.9-3.5c-14.3-0.4-28.5-0.1-42.8-0.1c-3.3,0-4.4,1.6-5,4.7c-4.7,22.5-9.3,45-14.5,67.3
		c-8.7,37.4-28.8,67.3-60,89.7c-1.1,0.8-2.2,1.5-3.3,2.2c-0.5,0.3-1.2,0.3-3,0.6c0.6-3,0.7-5.6,1.7-7.9c3-7.2,6.1-14.4,9.5-21.4
		c8.6-17.6,12.1-36.6,14.8-55.7c3-21.3,4.9-42.7,7.3-64c0.1-1.3,0-2.6,0-4.3c-9.1-1.2-16.8-4.3-17.4-15
		C721.3,19.4,722.4,14.3,728.9,11.2z"/>
	<path class="st0" d="M858,154.2c12.2-20.6,16.6-43.7,22.1-66.4c-8.8-5-10.1-8.3-6.5-15.8c10.2,6.4,20.6,1.3,30.9,0.5
		c12.8-0.9,25.5-2.7,38.2-3.3c4.5-0.2,9.2,1.3,13.5,2.9c7,2.5,8.8,8.7,3.6,14.1c-3.9,4-9.1,7.1-14.3,9.6c-6.2,3-13,5-19.9,7.6
		c8.6,21,19.3,40.1,37.1,54.4c-0.2,0.4-0.4,0.8-0.6,1.2c-1.7-0.1-3.4,0.2-4.9-0.3c-22.5-6.8-40-20-51.2-40.9
		c-0.5-0.9-0.8-1.8-1.2-2.8c-4-10.7-3-12.6,7.3-17.1c7-3,13.9-6.5,20.3-10.5c4.9-3.1,4.2-6.5-1.2-8.4c-8.9-3.2-17.8-0.8-26.6,1
		c-0.9,0.2-1.7,2.6-2,4.1c-2.9,13.3-5.8,26.6-8.5,40c-1.6,7.9-5.1,14-12.8,17.8c-5.6,2.8-10.6,6.9-15.9,10.3c-2,1.3-4.2,2.1-6.4,3.2
		C858.6,154.9,858.3,154.6,858,154.2z"/>
	<path class="st0" d="M135.5,103.5c8.5,21,19.3,40,37,54.4c-0.2,0.4-0.4,0.8-0.6,1.1c-1.8-0.2-3.8,0-5.5-0.5
		c-21.5-6.5-38.2-19.2-49.4-38.7c-2.2-3.9-3-8.7-4.1-13.2c-0.8-3.4,0.7-5.3,4.1-6.7c7.5-3,15-6.4,22.1-10.2c2.6-1.4,4.1-4.7,6.1-7.1
		c-2.9-1.6-5.8-4.4-8.8-4.5c-6.9-0.2-13.9,0.6-20.8,1.6c-1.3,0.2-2.9,2.8-3.3,4.6c-3,13.1-5.7,26.3-8.4,39.5
		c-1.6,7.8-4.8,14.1-12.6,17.9c-6.2,3.1-11.7,7.6-17.6,11.3c-1.6,1-3.4,1.5-5.6,1.8C80,133.7,84.6,110.5,90,87.7
		c-8.6-4.5-10.2-8.4-6.4-15.9c7.6,6.1,15.9,2.3,23.9,1.7c15.1-1.3,30.1-3.3,45.1-4.2c4.6-0.3,9.5,1.4,14,3.1c6.3,2.5,8,7.9,3.5,13.1
		c-3.4,3.9-7.9,7.1-12.6,9.4C150.6,98.2,143.1,100.5,135.5,103.5z"/>
	<path class="st0" d="M239.8,115.5c-0.5,8.3-0.9,16.7-1.3,24.5c-8.1,4.8-16.3,9.6-24.4,14.5c-0.4-0.3-0.9-0.6-1.3-0.9
		c0.6-2.2,0.9-4.6,1.8-6.7c6.3-14.8,10.6-30.1,11.8-46.2c0.4-5.9,2.8-12.5-7.1-15.6c12.2-4.4,22.6-8.2,34.4-12.4
		c-4.9,26.2,8.2,43.2,28,57.6c5-15.5,9-30.5,8.1-46.3c-0.1-2.2-2.3-4.2-3.7-6.5c9.5-5.7,19.7-11.8,30.7-18.3
		c-0.3,1.6-0.3,2.6-0.7,3.3c-9,16.6-11.5,34.9-14,53.2c-1.2,8.7-2.5,17.5-4,26.2c-0.9,5.2-2.2,6-7.1,4.4c-19-6-36.5-14.6-49.1-30.8
		C241.1,115.5,240.4,115.5,239.8,115.5z"/>
	<path class="st0" d="M987.4,121.9c-2.1,1.9-4.2,3.6-6.1,5.6c-2.3,2.4-2,4.6,1,6.5c7.7,5.2,24.3,3.8,31-2.7
		c4.5-4.4,4.1-11.6-1.9-14.2c-6-2.6-12.7-3.6-19.1-5.1c-5.6-1.4-11.6-1.9-16.9-4c-9.1-3.4-10.8-11.3-3.3-17.2
		c11.1-8.7,23-16.4,34.7-24.2c1.7-1.1,5.1-1,7.1,0c8.4,4.1,16.6,5.7,25.1,0.7c0.7-0.4,1.9-0.2,2.8-0.3c0.9,9.2-5,18.4-13.3,21.1
		c-10.5,3.5-15.3,1.3-22.5-10.6c-4.4,2.9-9,5.7-13.1,8.9c-3.6,2.8-1.7,5.9,1.2,7.1c5.4,2.3,11.2,4,17,5.4c6.6,1.6,13.5,2.3,20,4.2
		c9.2,2.7,11.5,9.2,6.5,17.4c-1.8,2.9-4.1,5.8-6.7,7.9c-14,11.4-29.9,18.6-47.8,20.8c-9.3,1.1-17.3-2.7-24.2-8.7
		c-4.6-4.1-4.3-7.3,1.3-9.9c8.7-3.9,17.6-7.2,26.5-10.8C986.8,120.5,987.1,121.2,987.4,121.9z"/>
	<path class="st0" d="M375.1,146.8c-6.9,3.6-13.1,2.7-19,2.1c-27.9-3.1-45-28.3-38.1-55.6c1-3.9,2.9-6.3,6.8-7.7
		c12.2-4.4,24.4-8.9,33.9-18.4c1.1-1.1,4.1-1.1,5.9-0.6c3.2,0.9,6.1,2.5,9.2,3.8c5.2,2.2,10.2,3.3,14.6-1.7c0.7-0.8,2-1,3.3-1.5
		c0.5,1.1,1.3,2,1.2,2.8c-0.9,7.6-3.7,14.4-10.7,18.1c-6.8,3.6-13.8,2.6-19.7-2.2c-2.8-2.3-4.9-2.1-7.9-0.9
		c-16.4,6.6-20.2,14.4-14.1,31.1c5,13.8,14.9,22.9,28.6,28.1C370.8,144.7,372.4,145.6,375.1,146.8z"/>
	<path class="st0" d="M849.2,108.5c-4.1,1.3-8.1,3.5-12.2,3.8c-7.8,0.6-15.6,0.2-23.5,0.2c-1.8,0-3.6,0.3-5.5,0.5
		c-0.7,11.6,3.4,20.4,13.3,25.7c5.5,3,11.7,4.8,17.5,7.2c1.9,0.8,3.7,1.7,5.5,2.6c0,0.4,0,0.9-0.1,1.3c-1.3,0.4-2.5,1.2-3.8,1.2
		c-12.3,0.3-24.3-1-35.5-6.3c-12.8-6.1-18.3-16.4-17-30.3c-2.4-1.2-4.7-2.2-7.6-3.6c1.5-1.3,2.3-2.6,3.2-2.6
		c5.6-0.3,6.3-4.5,7.5-8.6c1.5-5,4.4-8.6,9.5-10.8c9-3.9,17.6-8.7,26.6-12.5c3.2-1.4,7.6-1.8,10.9-0.9c7.3,1.9,14.2,4.8,21.7,0.7
		c0.6-0.3,1.6,0.1,2.3,0.1c0.4,9.9-8.2,18.5-17.5,17.3c-4.2-0.5-8.4-1.9-12.3-3.7c-10.4-4.9-22.9,1.9-24.3,13.6
		c-0.1,0.7,0,1.3,0,2.5c13.6,0,27,0,40.5,0C848.8,106.8,849,107.6,849.2,108.5z"/>
	<path class="st0" d="M402.3,113.1c-0.4,12.7,4.5,21.6,15.4,26.8c5.1,2.4,10.5,4.1,15.8,6.1c1.9,0.7,3.7,1.7,5.4,3.8
		c-1.3,0.4-2.6,1.2-3.9,1.2c-12.8,0.3-25.3-1.1-36.9-7c-10.7-5.5-16-14.3-15.9-26.2c0-3-0.3-4.7-3.7-5.1c-1-0.1-1.8-1.6-2.6-2.5
		c0.9-0.8,1.8-2.4,2.8-2.4c4.9-0.2,5.4-3.7,6.4-7.2c1.6-5.7,4.7-9.9,10.5-12.3c8.9-3.7,17.3-8.5,26.2-12.2c3.2-1.3,7.6-1.7,10.9-0.7
		c7.3,2.1,14.3,4.6,21.7,0.7c0.5-0.3,1.3,0,1.9,0c1.3,9.5-7.9,18.7-17.5,17.4c-4-0.6-8.1-1.9-11.8-3.6c-10-4.6-21.7,0.9-24.2,11.8
		c-0.3,1.3-0.4,2.6-0.6,4.1c13.7,0,27.1,0,40.5,0c0.2,0.5,0.4,1.1,0.5,1.6c-3.2,3-6.9,5.1-11.7,5.1c-7.7,0-15.3,0-23,0
		C406.6,112.5,404.7,112.9,402.3,113.1z"/>
	<path class="st0" d="M629.1,101.1c12.2,0.3,23.1-2.1,34.7,0.9c-5,5.1-10.4,6.4-16,6.9c-5.5,0.4-11,0.4-16.4,0.2
		c-2.9-0.1-4.4,0.7-5.4,3.6c-3.6,10.8-8.4,21.1-16.4,29.4c-3.6,3.7-8.1,6.6-13,9.1c5.6-13.6,11-26.8,12.5-41.4
		c-1.8-0.8-3.6-1.7-5.4-2.6c0.4-1,0.5-1.8,0.8-1.8c7.3-1.9,7.1-8.1,7.5-13.7c0.2-3.4,1.8-4.9,5-5.8c12.8-3.6,24.5-9.4,34.4-18.4
		c1.3-1.2,4.4-1.5,6.3-0.9c3.8,1.1,7.3,3.2,11,4.6c7.6,2.9,10.9,1.4,14-6.1c3.9,1.2,4.1,4.4,3.9,7.6c-0.6,7.6-4.1,13.5-11.3,16.3
		c-7.4,2.9-14.4,1.4-20.3-4.1c-1.5-1.3-2.6-3-3.8-4.4c-6.3,3.4-12.9,6.1-18.5,10.3C630.2,92.5,630.2,97.2,629.1,101.1z"/>
	<path class="st0" d="M172.1,147c0.7-2.6,0.8-4,1.5-5.2c7.4-13.2,7.7-28,9.6-42.4c0.2-1.5-2.6-3.3-4.9-6.1
		c9.2-9,21.2-16.2,33.9-24.2c-0.2,2.4-0.1,3.6-0.4,4.8c-3.6,14.6-7.2,29.2-10.7,43.9c-0.4,1.6-1,3.5-0.5,4.9c2,6.4-1.6,9.5-6.3,12.4
		c-5.3,3.2-10.4,6.5-15.7,9.6C177,145.6,175.1,146,172.1,147z"/>
	<path class="st0" d="M1044.3,146.7c0-1.8-0.4-3,0.1-3.6c6.8-10.3,7.1-22.3,9.4-33.8c0.3-1.6,0.4-3.3,0.7-4.9c0.7-4.4,2.2-9.3-6.8-9
		c11.5-10.9,23.4-18.3,36.5-26.5c-0.5,2.7-0.7,4-0.9,5.2c-3.7,15.5-7.4,30.9-11.1,46.4c-0.1,0.5-0.3,1.1-0.1,1.5
		c2.9,8.2-3.1,11.2-8.4,14.6c-4.5,2.8-9,5.7-13.6,8.3C1048.4,145.7,1046.5,146,1044.3,146.7z"/>
	<path class="st0" d="M820,46c-3.5,2.9-6.8,5.6-10.4,8.5c-2.9-3.7-5.7-7.2-8.6-10.8c3.6-3,6.9-5.7,10.5-8.6
		C814.3,38.8,817,42.2,820,46z"/>
	<path class="st0" d="M104.7,54.6c-3-3.9-5.7-7.3-8.5-10.9c3.6-2.9,6.9-5.6,10.4-8.5c2.9,3.7,5.6,7.1,8.5,10.9
		C111.8,48.8,108.5,51.5,104.7,54.6z"/>
	<path class="st0" d="M1187.8,149.2c-6-7.5-12.6-14.6-18.3-22.4c-2.9-3.9-4.6-8.8-7-13.7c4.5,0,7.9,0.4,11.1-0.1
		c4.3-0.7,8.6-2.1,12.8-3.6c1.1-0.4,1.7-2.2,2.5-3.3c-1.4-0.7-2.7-2-4.1-2c-5.7,0-11.3,0.2-17,0.5c-8.3,0.5-8.6,0.4-11.6-7.4
		c-3.4-8.8-6.5-17.8-10.4-26.4c-3.5-7.8-9.6-13.2-18.1-15.3c-5.3-1.3-10.7-1.5-16,2.5c1.8,0.9,2.9,1.5,4.1,2c7.1,3,8.4,4.9,5.9,12.2
		c-3.3,9.2-7.4,18.2-11,27.3c-1.8,4.6-4.7,6.6-9.9,6.1c-4.1-0.3-8.2,0.7-12.4,1.1c-0.1,0.7-0.1,1.5-0.2,2.2
		c4.4,1.3,8.8,2.6,14.5,4.3c-12.4,12.3-24.3,24.1-36.2,35.9c0.2,0.4,0.4,0.7,0.6,1.1c5.4-0.6,10.9-2.4,16.1-1.6
		c8.6,1.3,13.8-2.7,17.6-9.2c4.2-7.3,8-14.9,11.5-22.7c1.4-3.1,2.9-4.2,6.3-4c5.8,0.3,11.7,0.3,17.5,0c3.3-0.2,4.8,1,6.2,4.1
		c9.4,21.9,25.4,37.1,47.5,45.9c2.3,0.9,4.8,1.2,7.2,1.8c0.3-0.5,0.7-1,1-1.6C1194.7,158.4,1191.4,153.7,1187.8,149.2z
		 M1118.7,104.9c3.6-7.9,7.2-15.6,11-23.8c2.8,7.9,5.5,15.5,8.4,23.8C1131.6,104.9,1125.4,104.9,1118.7,104.9z"/>
	<path class="st0" d="M568.5,78.5c-3.5-1-7.2-1.5-10.8-1.4c-12,0.5-23.9,1.6-35.9,2c-4,0.1-8-1.2-12-1.9c-0.4-0.6-0.8-1.2-1.2-1.9
		c-0.9,2.9-2.6,5.9-2.4,8.8c0.3,4.6,3.8,7.1,8.6,8.3c-7.8,7.2-13.2,15.7-15.4,25.9c-2.8,12.5,1.9,22.4,13.5,28.1
		c21.6,10.7,55.9,3.2,70.8-15.6C600,110.2,592.8,85.2,568.5,78.5z M558.9,135.5c-4.8,7.9-13.1,9.9-21.9,9.1c-7-0.6-11-5.2-12.8-11.7
		c-0.9-3.2-1-6.5-1.3-8.6c0.5-10.7,2.1-19.9,7.1-28.1c4-6.5,9.4-11.2,17.5-11.8c7-0.5,12.8,2.2,15.3,8.8
		C568.2,107.9,566.9,122.3,558.9,135.5z"/>
</g>
</svg>
