<?xml version="1.0" encoding="utf-8"?>
<!-- Generator: Adobe Illustrator 19.0.0, SVG Export Plug-In . SVG Version: 6.00 Build 0)  -->
<svg version="1.1" id="Layer_1" xmlns="http://www.w3.org/2000/svg" xmlns:xlink="http://www.w3.org/1999/xlink" x="0px" y="0px"
	 viewBox="0 0 1297.4 522" style="enable-background:new 0 0 1297.4 522;" xml:space="preserve">
<style type="text/css">
	.st0{fill:#FFFFFF;}
</style>
<g>
	<path class="st0" d="M364.2,207.5c0,71.8,0,143.5,0,216.1c-13.4,2.2-26.6,4.4-40.5,6.8c0-125.9,0-251.2,0-377.3
		c14,1.3,28.1,2.6,42.5,3.9c17.7,71.9,35.2,143.2,52.7,214.5c0.4-0.1,0.8-0.1,1.2-0.2c0-69.8,0-139.6,0-210
		c13,0.9,25.9,1.8,39.3,2.7c-0.5,116.7-0.9,232.8-1.4,349.6c-13,1.3-26.2,2.5-39.6,3.9c-17.6-70.2-35.1-140.1-52.6-210
		C365.1,207.4,364.7,207.4,364.2,207.5z"/>
	<path class="st0" d="M258.3,45.8c15.4,1.8,29.9,3.5,44.8,5.2c0.1,2.4,0.3,4.5,0.3,6.6c0,109.8-0.2,219.6,0.3,329.5
		c0.1,31.2-19.2,50.7-45.9,56.1c-18.5,3.7-36.9,2.9-54.3-5.2c-16.3-7.5-24.9-21-27.9-38.3c-0.9-5.4-1.2-10.9-1.2-16.4
		c-0.1-80.8-0.1-161.6-0.2-242.5c0-32.8-0.3-65.6-0.5-98.5c0-1.9,0-3.9,0-6.8c16.2,2.3,31.5,4.5,47.3,6.7c0,5,0,9.5,0,14
		c0,108.5,0.1,217,0.1,325.5c0,2,0,4,0.4,6c2.1,12.3,11.6,18.5,23.8,15.4c6.4-1.6,11.4-7.1,12.2-13.7c0.5-4,0.8-8,0.8-12
		c0-107.3,0-214.6,0-322C258.3,52.6,258.3,49.8,258.3,45.8z"/>
	<path class="st0" d="M77.1,309.9c0-16,0-31.6,0-46.6c6.1-3.7,12.5-6.5,17.7-10.7c10.1-8.3,15.3-20,18.6-32.4
		c6.7-24.6,7.3-49.7,5.1-74.9c-1.4-16.4-5-32.2-13.2-46.7C97.3,84.3,86,73.8,69.9,68.9c-2.5-0.7-5.1-0.9-8.5-1.5
		c0,142,0,283.2,0,425.2c-15.9,4.8-31.4,9.6-47.6,14.5c0-164.8,0-329,0-493.8c6.6,0.6,13,0.9,19.4,1.9c15.1,2.4,30.4,4.1,45.2,7.9
		c29.2,7.5,50.1,26.1,64.3,52.3c10.1,18.6,15.1,38.7,17.3,59.6c3.2,30.2,2.3,60.2-4.9,89.9c-6.5,26.6-18.3,50.4-39.9,68.2
		c-9.5,7.8-20.3,13.3-32.3,16.3C81.2,309.8,79.4,309.7,77.1,309.9z"/>
	<path class="st0" d="M913.5,58.4c15.3-1.4,30-2.7,45.5-4.1c0,2.1,0,3.8,0,5.6c0,100,0,200,0,299.9c0,5.9,0.1,11.7,3.1,17
		c3.2,5.8,9.9,8.9,17.5,8c7.8-0.9,12.5-4.7,14.1-11.9c0.9-4.2,1.6-8.5,1.6-12.8c0.1-100.6,0-201.3,0-301.9c0-2.4,0-4.9,0-7.6
		c15.5-1.6,30.3-3.2,45.8-4.8c0,2.7,0,4.4,0,6.2c0,104.8,0.1,209.6-0.1,314.4c0,21.1-7.4,39.2-25.3,51.7c-9.8,6.9-21.1,9.7-33,10.1
		c-14.2,0.6-27.9-1-40.7-7.9c-14.3-7.6-22.8-19.7-26.4-35.1c-1.4-5.8-1.9-11.8-1.9-17.8c-0.2-99.3-0.2-198.6-0.2-297.9
		C913.5,66.1,913.5,62.6,913.5,58.4z"/>
	<path class="st0" d="M893.1,238.9c0,37.5,0,75,0,112.5c0,34.4-24.1,59.2-58.6,60.6c-18.4,0.8-35.5-2.7-50.1-14.7
		c-11.8-9.7-18.2-22.2-18.2-37.8c0-78.6-0.1-157.3,0-235.9c0-27,16.2-49.1,42.1-56.5c8.3-2.4,17.4-2.8,26.1-2.7
		c10.1,0.1,20.2,2.2,29.4,6.9c17.5,8.9,25.8,23.9,28.1,42.7c0.8,6.8,1,13.6,1,20.4C893.2,169.3,893.1,204.1,893.1,238.9z
		 M848.5,239.3C848.5,239.3,848.5,239.3,848.5,239.3c0-36.3,0-72.6-0.1-108.9c0-3-0.4-6-0.9-8.9c-1.5-8-6.1-12.5-13.9-13.5
		c-9.3-1.3-17,1.6-19.8,9c-2.1,5.5-3.2,11.6-3.2,17.5c-0.2,70.5-0.2,140.9-0.1,211.4c0,3.3,0.3,6.7,0.9,9.9
		c1.8,9.4,8.7,14.6,19.2,14.5c9.8,0,15.4-4.6,17.1-14.5c0.5-2.8,0.7-5.6,0.7-8.4C848.6,311.2,848.5,275.3,848.5,239.3z"/>
	<path class="st0" d="M720.4,404.4c-14.7,0-28.8,0-43.6,0c0-53.2,0-105.9,0-159.1c-12.3,0-23.9,0-36.2,0c0,53,0,105.7,0,159.1
		c-15.5,0-30.2,0-45.3,0c0-111.2,0-222.4,0-334.1c15,0,29.7,0,45.2,0c0,42.8,0,85.2,0,128.1c12.5,0,24.2,0,36.6,0
		c0-42.9,0-85.3,0-128.1c14.8,0,28.9,0,43.4,0C720.4,181.6,720.4,292.9,720.4,404.4z"/>
	<path class="st0" d="M1051.6,88.2c0-14.6,0-28.4,0-43.3c34.2-4.4,68.4-8.7,103.2-13.2c0,15.6,0,30.6,0,46.2
		c-9.4,1.2-18.8,2.3-28.7,3.5c0,125.8,0,251.2,0,377.4c-16-3.5-31.2-6.8-46.7-10.1c0-120.9,0-241.1,0-362.1
		C1069.9,87.1,1061,87.6,1051.6,88.2z"/>
	<path class="st0" d="M584.9,112.9c-3,0.7-5.7,1.3-8.4,2.1c-22,6.4-36.3,21.5-46.1,41.5c-7.5,15.3-11.2,31.7-13,48.5
		c-3.5,32.4-2.3,64.6,5.9,96.2c4.2,16.1,10.7,31.2,22.6,43.4c9.5,9.7,20.7,16.1,34.3,17.7c1.5,0.2,2.9,0.7,4.6,1.1
		c0,13.8,0,27.6,0,42.5c-7.6-0.9-14.9-1.2-21.9-2.7c-34.7-7.3-58.2-28.6-73.3-59.9c-9.9-20.5-14.6-42.3-17.2-64.8
		c-2.5-22.4-2.7-44.9-0.8-67.3c2.6-30.1,8.5-59.3,23.5-86c12.7-22.7,30.3-39.9,54.6-49.8c9.3-3.8,19.1-5.9,29.1-6.2
		c1.9-0.1,3.9,0.2,6.1,0.3C584.9,84.1,584.9,98.4,584.9,112.9z"/>
	<path class="st0" d="M1280.4,406.2c-12-2.8-22.8-5.3-33.9-7.8c-0.3-3.3-0.6-6.3-0.7-9.2c-1.1-35.8-2.2-71.6-3.4-107.4
		c-1-30.8-2-61.6-3-92.4c-1.7-49.4-3.3-98.9-5-148.3c-0.2-6.8-0.6-13.5-1-20.7c18.8-2.6,36.8-5,55.9-7.6
		C1286.3,143.9,1283.4,274.5,1280.4,406.2z"/>
	<path class="st0" d="M1174.7,378.9c-2.7-116.2-5.3-232.2-8-349.1c17.4-2.3,34.6-4.7,53-7.1c-2.9,121.5-5.7,242.1-8.6,362.8
		c-1.4,0.1-2.3,0.3-3.1,0.1C1197.1,383.4,1186.2,381.2,1174.7,378.9z"/>
	<path class="st0" d="M1290.3,461.2c-0.1,8.8-2.1,16.8-7,23.8c-11.5,16.7-31.4,16.9-43.3,0.5c-10.4-14.3-9.4-37.7,2.1-51.2
		c10.3-12.1,27.2-12.4,38-0.7C1287.4,441.6,1290.1,451.1,1290.3,461.2z"/>
	<path class="st0" d="M1163.2,442.1c0-11.8,3-21.5,10.8-29.5c9.2-9.3,22.9-10.1,33.1-2.1c17.6,13.9,17.8,47.1,0.3,61.3
		c-10.8,8.7-25.3,7.5-34.4-3C1166.1,460.9,1163.1,451.6,1163.2,442.1z"/>
	<path class="st0" d="M753.8,243.7c-6.7,0-13,0-19.7,0c0-14.9,0-29.4,0-44.6c6.7,0,13,0,19.7,0C753.8,213.8,753.8,228.5,753.8,243.7
		z"/>
</g>
</svg>
