<?xml version="1.0" encoding="utf-8"?>
<!-- Generator: Adobe Illustrator 19.0.0, SVG Export Plug-In . SVG Version: 6.00 Build 0)  -->
<svg version="1.1" id="Layer_1" xmlns="http://www.w3.org/2000/svg" xmlns:xlink="http://www.w3.org/1999/xlink" x="0px" y="0px"
	 viewBox="0 0 1129 366.1" style="enable-background:new 0 0 1129 366.1;" xml:space="preserve">
<style type="text/css">
	.st0{fill:#FFFFFF;}
</style>
<path class="st0" d="M198.9,52.9c-7.1-2.3-45.3-13.4-59.9-18.3S92.1,17.5,84.3,14.4S70.5,11,68.2,23C66.5,31.5,13.3,311.7,12,317.7
	c-1.3,6,0,13.3,8.7,14.3s38.3,2.6,41.2,2.5s9.5-5.8,11-12.4s11.5-66.4,11.5-66.4s26,3.4,47.4-9.9s34.5-27.6,47.4-50.3
	c9.3-16.9,12.3-35.6,13.5-43.3s11.9-76.5,12.6-82.3S206,55.1,198.9,52.9z M132.8,151.9c0,0-2.8,9.8-8.8,15.9s-12,10.5-17.1,11
	s-8.8,0-8.8,0l14-75.3c0.4,0.3,27.5,7.5,27.5,7.5L132.8,151.9z"/>
<path class="st0" d="M227.5,61.6c-5.6-1.3-11,2.3-12.4,10.8s-37.9,246-38.5,252.1s2.4,11.9,7.3,12.1s41.6,0.3,44.5,0
	s9.5-4.3,10.5-11.1s31.8-237.8,32.3-242s0-11-5.1-12.9S227.5,61.6,227.5,61.6z"/>
<path class="st0" d="M251.1,281c0,0-6.6,55.3-7.9,58.5s-4.1,7.3-11.9,9c12.3,1.1,28.1-0.9,37.6-4.4s24.9-9.1,38.5-20.6
	s26.8-29.3,31.3-41.1s6.9-19,9.4-46.6s12.4-122.9,12.9-127.1s-1.9-11.1-7.4-11.9s-34.8-5.8-38.3-5.9s-10.5,2.5-11.3,10
	c0,0-17.4,142.9-18.3,148.8s-2.3,11.9-8.3,19.3s-13.6,10.3-16.5,11S251.1,281,251.1,281z"/>
<path class="st0" d="M450.5,255.5c0,0-1.8,15.5-10.3,21s-6.5,6-15,7.3s-45.5,0-51.8,0s-10.8-0.3-14.3,4s-3.3,10.8-4,15
	s-3.3,27-3.3,32.8s3.3,10.6,11.3,10.5s52.5-0.4,58.8-1.2c6.3-0.8,30.9-4.4,51.4-19.2s37.2-40.2,38.7-68.3
	c1.5-28.2,0.8-46.2,0.8-51.2s-5.7-8.8-9.3-8.8c-3.7,0-79-3-79-3s4.3-27.6,30.3-27.6s47.4,2.4,51.2,1.7s7.7-3,8.4-9.4
	s0.9-36.3,0.6-40.8s-2.1-8.8-9.1-9s-44.3-2.5-55.2-2.6s-32.9,4.3-46.9,16s-22.5,22-26.5,30s-9.8,22.7-11,34
	c-1.2,11.3-5.2,53.2-5.4,55.7s0.1,9.7,10.3,10.8C381.5,254.3,450.5,255.5,450.5,255.5z"/>
<path class="st0" d="M586.9,200.5c0,0-0.4-75.4-0.4-77.8c0-4.9-3.6-9.1-7.9-9.4s-39.3-0.9-41.3-0.6s-5.8,3-6.9,6.3s-1.3,7-1.3,8
	s-3.9,203.5-4.1,208.6s3.1,11,9.5,11s39.9,0,44.4,0s9.4-4.1,9.4-10.8s-0.6-77-0.6-77s63.8,0.9,67.5-0.1s7.5-3.5,7.8-8
	s-1.3-38.8-1.5-43s-6.6-8-11.4-8.3S586.9,200.5,586.9,200.5z"/>
<path class="st0" d="M625.7,267.3c0,0,1.8,70.8,2,78.7c0.2,7.8,8.3,10,11.2,10c2.8,0,38.3,0.2,42,0c3.7-0.2,10.2-2.3,10-9.4
	c-0.2-7.1-11.5-213.1-11.8-218.6s-6.2-8.8-9-8.7c-2.8,0.2-36.3,1.3-39.3,1.8s-8.5,4.5-8.7,9.8c-0.2,5.3,1.8,67.5,1.8,67.5
	s22.7-0.8,27.5-0.5c4.8,0.3,10.9,3,11.7,10.5c0.8,7.5,2.1,39.3,2.1,44c0,4.7,3,14.5-10.3,14.7C641.5,267.3,625.7,267.3,625.7,267.3z
	"/>
<path class="st0" d="M692.8,111.8c0,0,13,211.3,13.7,219c0.7,7.7,6.7,10.7,11.5,11.2s38.5,0.8,44,0s7.2-3.2,7.2-9.5
	s-15-174.2-15-174.2s29.7,2.3,31.8,26.3s13.3,139.8,14.2,146.2c0.8,6.3,5.2,10.7,11.2,11.7c6,1,37.3,1.2,43,1.3
	c5.7,0.2,9.5-6.8,9-11.3S847.7,211,847.5,206.8c-0.2-4.2-2-27.3-5-37.2c-3-9.8-5-15.3-5-15.3s14.7-2.8,23.7,5.7s11.7,17,14.2,37.3
	s16.5,124.8,17.3,131.3c0.8,6.5,5.8,15.2,15.2,15.2c9.3,0,33.5,0.2,39.5,0c6-0.2,9.3-4.7,8.5-12.8c-0.8-8.2-22.2-148.8-24.2-160.8
	s-8-33.5-27-56s-41-28-67.2-26s-41.7,17.3-41.7,17.3c-13.5-5-21.7-10-40.3-9.2c-18.7,0.8-47.8,4.5-54,5.2S692.6,108.8,692.8,111.8z"
	/>
<path class="st0" d="M1117,269c-1-6-39.7-210.7-42.7-223.7s-10.7-21-18-25c-7.3-4-22.3,3-44.7,10.3C989.3,38,963.9,46.3,956,50
	c-8,3.7-22.6,22.3-19,45s29.7,193.3,33,210.7c2.7,13.7,18.3,32.3,36.7,32c12.7-0.2,89-0.7,94.3-3c5.3-2.3,20-13.3,20-33.7
	S1118,275,1117,269z M1024.3,259.8l-25.8-148l28-7.8l27.3,152.3L1024.3,259.8z"/>
</svg>
