<?xml version="1.0" encoding="utf-8"?>
<!-- Generator: Adobe Illustrator 19.0.0, SVG Export Plug-In . SVG Version: 6.00 Build 0)  -->
<svg version="1.1" id="Layer_1" xmlns="http://www.w3.org/2000/svg" xmlns:xlink="http://www.w3.org/1999/xlink" x="0px" y="0px"
	 viewBox="0 0 3125 798.3" style="enable-background:new 0 0 3125 798.3;" xml:space="preserve">
<style type="text/css">
	.st0{fill:#FFFFFF;}
</style>
<g>
	<path class="st0" d="M3125,109c-16.3,59.3-32.5,118.5-48.9,177.8c-11.3,40.9-22.9,81.8-34.4,122.7c-6.9,24.2-21,43.2-42.2,56.9
		c-1.6,1.1-3.2,2.2-5.3,3.5c23.5,30.3,31.5,63.6,21.4,100.4c-7.3,26.6-22.9,47.6-45.9,62.7c-17.8,11.7-37.5,17.9-58.9,18
		c-21.5,0.1-41.4-5.4-59.8-16.8c-18.2-11.3-31.5-26.9-41.6-46c-1.3,1-2.3,1.5-3,2.3c-7.6,9.6-16.5,17.9-27,24.2
		c-3.6,2.1-3.1,3.8-0.9,6.6c16,21.1,23.6,45,22.5,71.5c-1,26.1-10.5,49-27.8,68.6c-18.4,20.8-41.7,33.3-69.2,36.3
		c-32.2,3.5-61.1-4.9-85.7-26.6c-21-18.5-33.7-41.6-36.8-69.4c-3.7-32.4,5-61.4,26.6-86.2c10.5-12.1,23.2-21.4,37.8-28.1
		c0.4-0.2,0.7-0.7,1.5-1.4c-10.7-17-17.1-35.5-16.5-56.4c-49.7,78-119.4,118.1-211.8,106.6c-92.4-11.5-150.3-67.4-179.5-155.4
		c-1,1.4-2,2.6-2.8,3.9c-28.3,46.5-56.7,93.1-84.9,139.7c-15.5,25.5-37.6,41.2-67.2,45.3c-25.7,3.5-48.9-3.1-69.2-19.5
		c-3.6-2.9-7.3-6-10.2-9.5c-2.7-3.2-4.3-3.1-7-0.3c-11.7,12.2-25.2,22.3-39.8,30.8c-25.8,15.1-53.7,24.1-83.5,27.1
		c-35.1,3.6-69.2-0.7-101.9-14c-38.6-15.7-69.8-40.6-92.1-76c-19.3-30.6-29.2-64.1-30.1-100.2c-0.3-12.1,0-24.2,0-36.3
		c-0.6-0.2-1.1-0.3-1.7-0.5c-2.2,1.6-4.4,3.3-6.5,4.9c-29.4,23.2-62.6,37.8-99.7,43.4c-18.7,2.8-37.5,3.6-56.2,0.9
		c-4.3-0.6-5.7,0.7-5.7,4.9c0.1,16.5,0.1,33,0,49.5c-0.3,46-35,84.4-80.9,89.4c-48.4,5.2-92.2-28.7-99.4-76.9
		c-0.4-2.6-0.8-5.2-1.4-8.7c-59.9,54.2-128.7,74.4-206.4,52.3c-77.8-22-125.8-75.4-148.7-153.3c-3.2,5.3-6,9.9-8.8,14.5
		c-26.9,44.9-53.4,90-80.9,134.5c-16.9,27.4-42.3,41.7-74.8,42.6c-29.3,0.8-52.9-11.1-71.9-33c-0.6-0.7-1.3-1.5-2.3-2.7
		c-5,4.6-9.8,9-14.7,13.4c-30.5,27.3-66.3,43.2-106.5,48.9c-46.4,6.6-90.8-0.5-132.1-22.9c-53.9-29.2-86.4-74.4-98.1-134.5
		c-3.8-19.7-4-39.7-4-59.7c0-2.5,0-4.9,0-9.2c-49.7,41.3-105.5,57.3-168.5,50c-0.2,2.4-0.4,4.3-0.4,6.2c0,16,0.1,32,0,48
		c-0.3,46.3-35.4,85.2-81.4,90.1C52.5,669,8,635,0.9,588.3c-0.2-1.1-0.6-2.2-0.9-3.3c0-97.7,0-195.3,0-293
		c0.8-5.2,1.5-10.5,2.4-15.7c8.7-50.5,32.2-92.8,71-126.3c35.5-30.7,76.9-47.6,123.5-50.8c40.1-2.7,78.2,5.3,113.8,24.5
		c38.7,20.9,68.1,50.9,88.5,89.8c12,22.8,19.2,47.1,22,72.8c0.4,3.6,1.2,6,5.8,5.5c5.9-0.6,12-1,17.9-0.8
		c23.4,1.1,43.4,10.3,59.5,27.1c16.9,17.7,25.2,39.1,25,63.9c-0.3,38-0.1,76,0,114c0,3.8,0.6,7.6,1.2,11.4c0.7,4.2,3.2,7.1,7.2,8.9
		c7.6,3.5,15.6,3.5,23.5,1.9c10.5-2.1,13.4-6.1,13.9-16.9c0.3-6.8,0.7-13.6,0.7-20.5c0.1-32.8,0-65.7,0-98.5c0-4.3-0.2-8.7,0.3-13
		c4.3-38.7,33.9-70.4,72.2-77.6c2.8-0.5,5.7-1,9.1-1.6c-2.1-4.3-4-8.1-5.8-11.8c-19.4-39.5-9.8-84.1,24.2-111.8
		c41.8-34.2,106.9-23,133.7,23.8c14.3,24.8,26.6,50.7,39.9,76.2c1.3,2.6,2.9,5.1,4.7,8.1c1.5-2.2,2.4-3.5,3.3-4.9
		c14.7-24.6,29.4-49.2,44.1-73.8c18.9-31.5,46.3-47.7,83.4-47.2c33.2,0.5,67.1,23.2,79.3,54.2c3.5,8.9,5.6,18.3,8.6,28.1
		c38.9-15,79.5-18.7,121-10.1c41.5,8.6,77,28.6,108,58.9c1.4-6.7,2.4-12.3,3.7-17.7c14.8-59.1,48.2-104.5,101-134.9
		c50.8-29.3,105-35.7,161.6-20.3c30.7,8.4,57.9,23.3,82,44.2c21.5,18.6,38.4,40.7,51,66c10.7,21.5,17.6,44.2,20.2,68.2
		c0.6,5.7,1.1,5.8,6.9,5.4c6.6-0.5,13.4-1.2,19.9-0.6c48.8,4.9,82.1,46,81.3,91.3c-0.7,37.8-0.2,75.7-0.1,113.5c0,3,0.1,6,0.6,8.9
		c1.8,10.6,6.6,15,17.3,16c1,0.1,2,0.3,3,0.3c20.7,0.1,25.7-6.6,25-22.5c-0.1-2.5,0-5,0-7.5c0.3-39-0.1-78,1-116.9
		c1.2-42.3,35.1-78.1,77.3-83.3c1.2-0.1,2.4-0.5,4.1-0.9c-1.3-2.6-2.3-4.7-3.4-6.8c-8.3-14.9-12.8-30.6-12.2-47.8
		c1.3-36.1,18.1-62.8,49.8-79.1c42.7-22,94.7-6.4,118.5,35.2c14.1,24.7,26.7,50.3,40,75.5c0.9,1.7,1.9,3.4,3.2,5.8
		c1.4-1.8,2.3-2.8,3.1-4c14.1-23,27.9-46.2,42.2-69.1c5.3-8.4,10.6-17.2,17.5-24.2c20.4-20.8,45.6-30.3,74.8-26.7
		c34.5,4.3,59.2,22.7,73.2,54.6c3.5,8,5.3,16.7,7.9,25.5c67.7-22.1,132.6-16.2,192,24.7c59.2,40.7,89.2,98.5,92.7,170.6
		c0.6-1.6,1.2-2.9,1.6-4.2c10.5-37.4,20.9-74.8,31.4-112.1c8.8-31.3,16.7-62.8,26.8-93.7c22.5-68.6,111-88.8,161.5-37.4
		c6.9,7,12.4,15.5,18.8,23.6c0.6-2,1.4-4.2,2-6.3c11.5-40.7,22.6-81.6,34.4-122.2c8-27.6,24.8-48.6,51-60.9
		c9.4-4.4,19.8-6.7,29.7-10c8.7,0,17.3,0,26,0c1.4,0.4,2.9,0.8,4.3,1.1c32.3,6.4,56.5,23.9,70.8,53.7c4.6,9.5,6.6,20.1,9.8,30.2
		C3125,93,3125,101,3125,109z M1433.9,455.5c2.4,0.9,3.6,1.3,4.8,1.8c29.6,15,61,19.7,93.7,15.5c44.2-5.7,80.4-26.4,107.8-61.4
		c27.7-35.2,38.8-75.5,33.7-119.9c-5.2-44.8-25.9-81.6-61.2-109.5c-35.4-28-76-39-120.8-33.9c-42.3,4.8-77.3,24.1-105,56.1
		c-27.4,31.7-39.7,69.2-39.7,110.9c0,83.8,0,167.6,0,251.4c0,4.6,0.3,9.3,0.9,13.9c3.3,27.7,34.3,44.9,59.5,33.2
		c17.6-8.1,26-22.4,26.2-41.4c0.3-36.5,0.1-73,0.1-109.5C1433.9,460.7,1433.9,458.6,1433.9,455.5z M134.2,455.1
		c3,1.3,5.2,2.2,7.4,3.2c28.8,13.7,59.1,18.4,90.5,14.2c38.3-5.1,71-21.7,97.7-49.9c27.7-29.1,42.6-63.9,44.8-103.7
		c2.2-41-9.1-78.3-35.2-110.3c-38.2-46.8-87.9-67.6-147.9-61.1c-42.3,4.6-77.5,24.1-105.3,56.6c-25.7,30.1-38.9,65.2-39.1,104.5
		c-0.5,87.8-0.2,175.6-0.1,263.4c0,4.4,0.7,9,1.8,13.3c4.5,17.5,20.6,30.3,39,31.4c17.7,1.1,36-9.9,41.8-26.7
		c2.7-7.8,3.7-16.6,3.8-24.9c0.4-34.3,0.2-68.7,0.2-103C133.8,460.2,134.1,458.1,134.2,455.1z M2608.9,427.1
		c0-90.3-73.2-163.9-163.1-164.1c-90.8-0.2-164.5,72.8-164.6,163.6c0,90.7,72.4,163.8,163.6,164
		C2536.6,590.9,2608.8,516.6,2608.9,427.1z M987,427.7c-1.3,87.4,69.9,163.6,162.7,164.1c92.4,0.5,164.4-75.4,164.5-163.6
		c0.1-87.5-70.9-163.6-163.1-164.1C1059,263.6,985.6,339.7,987,427.7z M2150.9,368.6c-1.4-2.2-2.3-3.4-3-4.6
		c-18.4-35-36.7-70-55-104.9c-8-15.2-15.7-30.6-24.2-45.4c-11.7-20.3-39.4-26.5-59-14c-19.5,12.5-26.2,35.7-15.5,56.4
		c20.8,40.4,42,80.7,63.1,121c12,23,23.9,46.2,36.4,68.9c3.6,6.5,3.7,11.2-0.3,17.6c-19.5,31.3-38.5,62.8-57.4,94.4
		c-8.4,14-8.5,28.8-0.7,42.9c8,14.5,21,22.2,37.7,22c18-0.2,30.3-9.8,39.4-24.9c33.9-56.1,68-111.9,102-167.9
		c23-37.7,45.9-75.4,68.9-113.2c11.4-18.8,22.9-37.5,34.2-56.4c11.2-18.8,7.3-43.1-8.8-55.7c-22.2-17.3-50.8-12.1-65.5,12
		c-24.9,40.8-49.7,81.7-74.5,122.6C2163,348.8,2157.3,358.1,2150.9,368.6z M851,372.2c-1.3-2.2-2.1-3.3-2.7-4.4
		c-16.6-32.1-33.1-64.3-49.7-96.4c-9.2-17.9-18.3-35.9-27.9-53.7c-8-14.8-20.7-23-37.5-23.5c-32.4-0.9-53.7,32.9-39.4,62.2
		c7.7,15.7,15.9,31.2,23.9,46.7c26.2,50.8,52.4,101.6,78.7,152.3c1.7,3.2,2.1,5.7,0,9.2c-18.5,30.3-36.7,60.7-55.1,91.1
		c-6,9.9-7.8,20.6-5.5,31.7c3.7,18,17.6,30.8,36.3,34c16.3,2.8,33.7-5.6,43.1-21.2c8.7-14.4,17.2-28.9,25.9-43.4
		c50.6-84.5,101.2-168.9,151.8-253.4c9.2-15.3,19-30.2,27.1-46.1c14.1-27.5-7.3-61.3-38.1-61.3c-18.8,0-31.3,9.8-40.6,25.5
		c-28.7,48.5-57.7,96.7-86.6,145.1C853.7,368.3,852.6,369.9,851,372.2z M1698,442.3c0,18.8,0.1,37.7,0,56.5
		c-0.1,15.4,1.8,30.6,6.1,45.4c12.5,43.5,39.6,74.5,80.6,93.2c29.9,13.6,61.3,17.7,93.7,12.4c39.9-6.4,73.3-24.6,98.3-56.9
		c20.1-26,29.3-56.1,29.9-88.4c0.9-42.3,0.5-84.6,0.1-127c-0.2-26.5-25.9-45.8-51.6-39.5c-19.1,4.7-32,21-32,40.7
		c-0.1,37.7,0,75.3-0.1,113c0,6.6-0.2,13.4-1.1,19.9c-2.3,17-9.6,31.6-23.7,41.9c-18.5,13.6-39.5,17.1-61.7,13
		c-18.3-3.3-33.5-12-43.8-27.9c-7.9-12.1-10.9-25.6-10.9-39.9c0.1-39.3,0.1-78.6,0-118c-0.1-24.7-18.4-43.3-42.3-43.3
		c-23.7,0-41.4,18.5-41.5,43.3C1698,401.3,1698,421.8,1698,442.3z M398,443.1c0,16.7-0.2,33.3,0.1,50c0.2,10.8,0.4,21.7,2.1,32.3
		c7.2,46.9,31.7,82.2,73.2,105.1c32.6,18,67.8,23.4,104.4,18.2c33.4-4.7,62.9-18.4,87-42.4c27.6-27.4,40.8-61.5,41.8-99.9
		c1.1-42.6,0.4-85.3,0.2-128c-0.1-16.5-11.3-32.2-26.1-37.7c-28.9-10.8-57.6,9-57.7,39.9c-0.1,39.2,0,78.3-0.1,117.5
		c0,4.8-0.4,9.7-1.1,14.4c-2.3,15.2-8.6,28.4-20.9,38.1c-19,14.9-40.8,18.9-64.2,14.8c-16.7-2.9-31.3-10-42-23.9
		c-8.9-11.6-12.9-24.8-13-39.2c-0.2-40.7,0-81.3-0.1-122c-0.1-23.5-18.8-42.2-41.8-42.2c-23.5,0-41.8,18.5-41.9,42.5
		C398,401.4,398.1,422.3,398,443.1z M2897,378.5c0,37.1,28.9,61,59.7,54.6c21.8-4.5,34.3-18.7,40.2-39.8
		c18.3-65.8,36.8-131.5,55.2-197.3c7.8-27.9,15.8-55.8,23.5-83.7c9.4-34.3-15.1-66-50.1-65.1c-22.5,0.6-40.9,16.2-47.4,39.7
		c-24.3,87.1-48.8,174.2-73.2,261.3C2901.6,359.9,2898.7,371.8,2897,378.5z M2860,245.4c-0.3-0.1-0.6-0.2-1-0.3
		c-0.1-2.5,0-5-0.4-7.5c-0.4-2.6-1.1-5.2-1.8-7.8c-6.6-22.6-29.9-38-53-35c-23.2,3-37.9,16.4-44.7,40.4
		c-25.8,92.2-51.7,184.4-77.6,276.6c-2.6,9.2-4.3,18.3-2.6,28c4.2,23.3,24,41.7,50.4,41.5c22.9-0.1,41.8-15.7,48.5-39.7
		c25.2-91,51-181.9,76.5-272.8C2856.5,261.3,2858.2,253.3,2860,245.4z M2847,540.2c-1.7,32.6,26,63.2,62.1,63.2
		c35,0,62.8-27.6,62.9-62.1c0.1-35.3-27.4-62.9-62.3-63.2C2873.3,477.7,2845.4,509.2,2847,540.2z M2628.1,688.3
		c0,34.4,28.2,62.7,62.7,62.5c34.5-0.1,63.2-26.9,62.7-63.5c-0.5-37.2-29.9-62-62.6-62.2C2656.3,625,2628.1,653.6,2628.1,688.3z"/>
	<path class="st0" d="M1433.9,310.3c0-42.7,34.9-77.4,77.7-77.4c42.4,0,77.6,35.4,77.5,77.9c-0.1,42.5-35.2,77.3-78,77.3
		C1468.4,388.1,1433.8,353.3,1433.9,310.3z"/>
	<path class="st0" d="M133.8,309.7c-0.9-38.6,30.6-77,77.2-77.2c43-0.1,77.9,33.7,77.7,78c-0.2,43.4-34.3,77.4-78,77.2
		C164,387.4,132.6,348.7,133.8,309.7z"/>
	<path class="st0" d="M2367.5,426.4c0.1-41.8,33.9-77.6,78.1-77c45.3,0.6,77.7,36.1,77,78.7c-0.7,45.3-37.1,77-78.1,76.5
		C2401,504,2366.5,468.4,2367.5,426.4z"/>
	<path class="st0" d="M1150.5,505.3c-42.9,0-77.5-34.6-77.6-77.4c-0.1-40.5,31.9-77.6,77.5-77.6c44.7,0,77.4,35.6,77.6,77.5
		C1228.2,470.5,1193.3,505.3,1150.5,505.3z"/>
</g>
</svg>
