<?xml version="1.0" encoding="utf-8"?>
<!-- Generator: Adobe Illustrator 19.0.0, SVG Export Plug-In . SVG Version: 6.00 Build 0)  -->
<svg version="1.1" id="Layer_1" xmlns="http://www.w3.org/2000/svg" xmlns:xlink="http://www.w3.org/1999/xlink" x="0px" y="0px"
	 viewBox="0 0 1427.3 846.6" style="enable-background:new 0 0 1427.3 846.6;" xml:space="preserve">
<style type="text/css">
	.st0{fill:#FFFFFF;}
</style>
<g>
	<path class="st0" d="M1259.8,846.6c-8,0-16,0-24,0c-0.8-0.5-1.5-1.3-2.4-1.6c-4.9-2-9.9-3.8-14.8-5.8c-4.3-1.7-9.1-2.8-12.8-5.4
		c-5.4-3.9-11.4-6.2-17.5-8.3c-8.4-2.9-15.9-7.1-21.7-13.7c-4.1-4.6-7.3-10.1-11.2-15.6c0.2,2.3,0.5,4.3,0.5,6.2
		c0.1,3.8,0.6,7.8-0.1,11.4c-2.1,10.2-4.4,12.3-14.3,13.6c-2,0.3-4,0.1-6,0.1c-4.8,0.1-9.6-0.3-14.3,0.5c-4.5,0.7-8.5,0.6-11.9-1.5
		c-3.4,0.5-6.2,1.2-9,1.2c-9.2,0.1-17.9,3.6-26.9,4.7c-4.1,0.5-8.4,1.7-12.3,0.9c-8.6-1.8-17.1-1.8-25.8-1.4
		c-3.4,0.2-7.4-0.1-10.1-1.8c-7-4.4-14.4-8.3-19.1-15.7c-1.3-2-4-4.3-6.2-4.5c-8.6-0.8-17.2-0.8-25.8-1c-0.4,0-0.8,0.4-0.5,0.2
		c-0.5,5.4-0.9,10.3-1.5,15.2c-1,7.5-8.7,10.2-14.3,9.1c-2.3-0.5-4.5-1.2-5.9-1.6c-4.6,2-8.5,3.8-12.5,5.2c-1.3,0.5-3,0.4-4.4,0
		c-3.9-1.2-7.8-1.4-11.8-0.6c-1.7,0.3-3.6-0.1-5.4-0.4c-3-0.4-6-0.6-8.9-1.4c-3.3-0.9-7-1.7-9.5-3.8c-6.5-5.3-11-12.3-14.1-20.9
		c-4.7-0.2-9.8-0.4-15.7-0.7c-1.8,2.9-3.8,6.1-5.9,9.2c-1.1,1.6-2.1,3.4-3.6,4.7c-7.4,6.8-16.8,10.4-25.7,13.8
		c-9.1,3.5-19.5,4.3-29.4,4.6c-16.3,0.5-32.7-0.3-49-0.8c-5.3-0.2-10.5-1.2-15.7-1.9c-4-0.5-7.1-2.7-9.8-5.5c-2.5-2.5-5.2-5-7.8-7.5
		c-4.7,3.3-9.1,7-14.1,9.5c-6.6,3.3-13.7,5.2-21.7,0.9c-3,0.5-7,0.5-10.4,1.9c-6.6,2.7-13.3,4.3-20.3,4.5c-9,0.2-15.6-5.4-16.7-14.3
		c-0.3-2.2-0.6-4.4-0.8-6.6c-5.1,1.7-9.5,3.3-13.9,4.8c-4.4,1.4-9,2.3-13.3,4c-9.6,3.8-19.3,6.2-29.6,5.4c-2.6-0.2-5.4-0.2-8,0.2
		c-6.8,1.1-12.7,0.2-16.3-7.6c-3.7,0.8-7.5,1.2-11,2.5c-7,2.5-13.7,5.6-20.7,8.2c-2.4,0.9-5.2,1.2-7.9,1.2c-3.3,0-6.6-0.5-9.9-0.8
		c-5.5,3.8-11.3,3.7-17.4,2.3c-5-1.1-10.2-1.9-15.2-1.8c-5.5,0.1-8.9-1.7-11-6.8c0.9-7.7,1.9-15.5,2.9-24c-1.8,0.6-3,0.9-4,1.5
		c-4.8,2.6-9.5,5.5-14.4,8c-6,3.2-12,6.5-18.2,9.1c-4.4,1.9-9.2,2.9-13.9,4.1c-3,0.7-6.2,1.1-9.3,1.5c-6.1,0.7-12.4,0.2-18,3.4
		c-7.9,4.7-15.6,4.3-23.8,0.3c-3.1-1.5-7-1.6-10.6-2.2c-2.9-0.5-5.9-0.5-8.8-1.1c-7.9-1.8-15.8-3.8-24.1-3.3c-2,0.1-4.2-0.8-6.2-1.5
		c-1.4-0.4-2.7-1.7-4.1-1.7c-6.8,0-12.3-3.6-18.8-6.5c-7,3.2-14.7,6-21.8,10c-6.6,3.8-13.6,5-20.8,6.2c-8.2,1.3-16.3,2.8-24.5,4.4
		c-4.7,0.9-9.3,2.1-14.3,0.6c-4.7-1.4-9.6-2.5-14.5-3.1c-4.4-0.6-9,0.1-13.4-0.6c-3.8-0.6-7.1-0.3-10.7,0.7
		c-5.2,1.5-10.5,1.8-15.4-1.3c-1-0.7-2.5-1-3.8-1c-13,0-26-0.4-38.9,0.5c-10.3,0.7-20.2-0.2-30.5-2.5c-10.9,2.8-16.2-2.3-14.2-13.9
		c0.3-1.5,0.2-3,0.3-4.4c0.3-7-2-13.7-1.3-20.8c0.9-9.1,0.4-18.3,0.5-27.4c0-3.7,1.2-6.7,3.7-9.5c2.2-2.6,4.2-5.6,5.8-8.6
		c3-5.6,5.5-11.3,8.4-16.9c1.5-2.9,3.4-5.7,4.9-8.6c1-1.9,2.2-3.9,2.4-6c1.1-9,5.3-16.7,9.3-24.6c4.4-8.8,9.3-17.4,10-27.5
		c0.1-0.8,0.3-1.7,0.7-2.4c5.3-9.6,10.6-19.2,16.1-28.6c1.3-2.2,3.9-3.6,5.3-5.8c4-6.3,7.8-12.7,11.3-19.3c3-5.9,5.4-12.1,8.5-19.1
		c-2.8,0.4-4.6,0.7-6.3,0.8c-4.1,0.3-8.5,1.5-12.2,0.4c-6.3-1.8-12.5-1.7-18.7-1.9c-2.2-0.1-4.4-0.7-7.7-1.2
		c-15.7,2.4-16.4,4.3-25,0.6c-3.5,0.4-6.7,0.9-10,1.2c-6.8,0.4-12-4.8-10.3-11.4c2.4-9.2,0.7-18.2-0.5-27.3
		c-0.6-4.2-2.1-8.3-5.2-11.7c-4.1-4.6-5.4-10.2-4.5-16.3c0.4-3.1,1-6.2,1.4-8.9c-8.5-1.6-16.5-3.2-25.2-4.9c2.4-9,4.5-17.3,6.7-25.5
		C24.6,474.2,13.3,460,0,446c9.9,0.5,18.3,0.9,26.8,1.4c-7.6-22.3-10.9-35.3-10.3-40.8c4.3,1.4,8.5,2.8,13.4,4.4
		c-0.4-10.2-0.5-19.9,2-29.6c3.7,1.5,6.8,2.9,9.9,4.1c8-13.1,16.7-24.5,33.8-24.8c11.5-17.2,29.4-17,47.8-16.8
		c-3.5-71.3-9.1-142-14.1-212c-7.4-1.7-14.1-2.8-20.5-4.8c-6.7-2.1-12.3-6.3-17.9-11.1c2.2-2.4,4.2-4.7,6.5-7.4
		c-2.7-1-4.8-1.8-7-2.6C62.5,103,56,98.2,51.3,91.2c-6.6-9.9-8.2-20.9-7-32.5c1.3-12.7,5-24.8,10.4-36.3c3.6-7.6,7.8-14.9,11.8-22.3
		C67,0.1,67.4,0,67.8,0c4.9,21.9,16.9,39,35,52.6c1.6-4.2,3.2-8.1,4.9-12.6c4.7,2.5,9.1,4.8,13.6,7.1c6.1-3.9,12.9-5.5,19.9-6.2
		c3.1-0.3,6.3-0.6,9.4-1c33.2-4.1,66.4-5.7,99.7-1.3c22.1,2.9,43.5,8.2,63.3,18.9c6.2,3.4,12.3,7.2,18.4,10.8
		c10.4-10.9,15-12.8,30.3-12.7c20.7,0,41.3,0.1,62-0.1c12.7-0.1,22.6,4.9,30,15c5.7,7.9,13.4,12.3,23,13.4
		c12.4,1.4,23.5-2.5,33.6-8.8c7.2-4.5,14.8-6.7,23.1-7.1c24.3-1.2,48.6-2.2,72.9-3.6c13.6-0.8,24.3,4.1,32.6,14.8
		c9.6,12.4,25.1,15.8,39.6,6.4c4.7-3.1,10-4.6,15.6-4.8c16.6-0.7,33.3-1.3,50-1.9c9-0.3,17,2.1,24.2,7.6c6.3,4.8,13.3,5.5,20,1.3
		c3.2-2,6.1-4.8,8.2-7.9c7.5-11,17.4-16.3,30.9-15.6c10.1,0.5,20.3,0.1,30.2,0.1c0.6-0.8,1.1-1.4,1.4-1.9
		C867.2,50.5,878,45,892,45.6c11,0.5,22,1.2,33,1.5c22.8,0.7,45.6,1.9,68.4,1.8c31-0.2,62-1.4,93.8-2.2c0.3-0.2,1.3-1,2.3-1.9
		c8.3-7.3,17.8-12.7,28-17c14.7-6.2,30.2-9.4,46-10.6c26.3-2.1,52.3,0,77.7,7.1c10.6,3,20.8,7.6,31.7,11.6
		c8.2-7.2,10.1-18.7,15.1-28.8c3.4,3.7,6.5,6.9,9.4,10.3c10.2,12,19.8,24.4,20.4,40.7c8.9,5.6,17.5,10.8,26,16.4
		c8.5,5.6,16.4,11.9,23.9,19.2c-10.5,14.3-24.7,21-42.1,22.1c0.3,3.5,0.7,6.6,0.9,9.7c1.3,15.5,0,31-2.2,46.3
		c-2.7,18.8-19.9,33-37.8,31.3c-6-0.5-11.9-1.5-17.8-2.3c-7.5-1-15.1-2.1-23.6-3.4c1.8,1.5,2.8,2.4,3.8,3.1
		c15.4,10.7,29.5,22.8,41.3,37.4c10.2,12.5,18,26.4,22.4,42c4.9,17.4,5.2,35.2,3.2,53c-0.4,3.6-0.9,7.2-1.4,11.6
		c8.7-5.1,16.8-9.8,25.6-14.9c-0.5,10.6-0.9,20.4-1.3,31c15.2-8.6,31.1-7.8,47.6-9.5c-4.5,12.3-8.7,23.7-13,35.7
		c14.1-2.7,25.7,3.8,38.4,7.8c-4.2,7.7-8.2,14.9-12.3,22.2c6.6,1.3,13.3,2.7,20,4c0,0.3-0.1,0.6-0.1,0.9
		c-13.5,6.6-27,13.2-40.1,19.5c2.7,5.2,5.2,10,7.6,14.9c2.4,5.1,4.6,10.2,7.3,16.3c-9,0-17.2,0-25.7,0c0.3,1.7,0.3,2.8,0.7,3.6
		c3.4,6.6,3.4,13.8,3.7,21c0.2,5.5,0.1,11.1,1.3,16.3c2,8.3,2.6,16.4-0.7,24.5c-2.1,5.2-0.9,9.7,3,13.7c0.6,0.6,0.9,1.3,1.4,2.1
		c-1.1,1-2,1.8-3,2.7c0.2,0.1,0.5,0.2,0.7,0.3c-0.9,3.6-1.9,7.1-2.8,10.7c-0.2,2.4,0.5,5,1,7.6c1.3,7-2.1,13.9-8.4,15.6
		c-5.9,1.6-12,2.4-18.1,3.5c-2.8,0.5-5.8,0.3-8.3,1.4c-7.3,3.2-15.1,3.7-22.9,5c-5.1,0.8-10.1,2.3-15.8,3.6c2.6,2.1,4.5,3.4,6.1,5.1
		c4,4.3,8.5,8.3,10.6,14.1c0.5,1.4,2,2.7,3.4,3.6c6.6,4.8,13.5,9.2,19.9,14.1c3.3,2.6,6.5,5.7,8.8,9.2c3.6,5.5,6.7,11.5,9.5,17.5
		c4.4,9.4,8.8,19,8.9,29.7c0.1,10.3-0.1,20.6-0.6,30.9c-0.8,15.8-1.8,31.6-3.2,47.4c-0.6,7,0.1,14.3-2.9,21.1
		c-2.6,5.9-4.4,12.2-7.1,18.1c-1.9,4-4.1,8.2-7.4,11c-8.2,7-17.5,12.8-27.5,16.9c-2.1,0.9-4.5,1.4-6.7,1.5c-3.5,0.1-7-0.8-10.4-0.5
		c-3.3,0.3-6.6,1.6-9.9,2.4c-2,0-4,0-6,0c-4.6-1.3-9.1-2.5-14-3.9C1268,843.9,1263.1,842.7,1259.8,846.6z M127.7,498.7
		c-3.2-2-6.5-4-9.4-5.7c-7.5,1.3-14.6,2.3-21.6,3.7c-7.1,1.5-14.5,0.2-22.2,2.9c3,10.3,0,20.1-0.9,29.6c3.1,5.2,6.9,9.6,6.7,16
		c-2.1,0.3-3.9,0.5-5.4,0.7c1.9,11.9,3.1,23.8,1.1,35.3c6.8,2.7,10.2-3.4,15.7-5.3c-0.8,1.7-1.3,2.8-1.7,3.9
		c1.7,2.7,3.9,3.2,6.6,2.8c3-0.4,5.9-1.1,8.9-1.2c10-0.1,20-0.1,29.7-0.1c5.2,3.5,10.2,3.2,15.4,0.4c5.6,1.5,12.7-2.4,17.4,4.2
		c-0.3,1.2-0.3,2.2-0.7,3.1c-3.4,8.3-6.9,16.6-10.3,24.9c-1.5,3.7-4.7,7-3.1,11.6c-1.7,0.7-3,1.3-4,1.8c-2.8,3.9-5.2,7.4-7.7,10.9
		c-2,2.7-4.3,5.1-6.1,7.8c-2.2,3.3-4.1,6.8-5.9,10.4c-2.1,4.3-4.8,8.6-5.8,13.2c-1.7,8.1-4.1,15.7-7.8,23.1
		c-1.2,2.3-2.2,4.7-3.5,7.6c1.7-0.1,2.7-0.2,3.7-0.2c0.9,0,1.8-0.1,3.3-0.2c-1.5,3.1-2.9,5.6-3.9,8.2c-1.6,3.8-3.3,7.7-4.3,11.7
		c-1,4.2-2.3,8.2-4.4,12.1c-7,13-13.7,26.2-21.1,40.4c-0.5,5.3-1,11.9-1.6,18.5c-2.1,0.1-3.7,0.2-5.1,0.3c0.2,2.7,0.9,5.1,0.3,7.2
		c-1.9,7.2,0.8,13.9,1.7,20.7c-0.8,2.3-1.5,4.7-2.5,7.7c5.4-1.1,9.6-2,14.4-3c-0.8,1.5-1.3,2.3-2.1,3.8c7.6,0.3,14.5,2.1,21.7,1
		c1.5-0.2,2.9-0.5,4.4-0.4c3.5,0.1,6.9,0.4,10.4,0.4c9-0.1,17.9-0.6,26.9-0.5c3.3,0,6.6,1.2,9.9,1.9c0,0.6,0,1.1,0.1,1.7
		c4.6-1.2,9.2-2.3,13.7-3.4c4,0.5,8,1.3,12.1,1.3c7.8,0.1,15.6,0.2,23,3.3c3.2,1.4,6.2,1.3,9.2,0.3c8.2-2.8,16.8-3.9,25.3-4.9
		c1.3-0.1,2.5-0.4,3.9-0.6c-0.8-6-1.5-11.6-2.3-17.6c1.2-3.3,1.9-7.1,0.5-11.3c-1.7,0.4-3.1,0.7-4.5,1c-2.3-7.6-4.6-15.2-7.1-23.4
		c-7.7,0-16.1-0.1-24.5,0.1c-1.4,0-3.1,0.6-4.1,1.6c-3.4,3.5-7.8,3.5-12,3.7c-6.6,0.2-13.4-0.4-19.8,0.6
		c-11.5,1.8-21.1-2.8-31.5-7.1c1.8-2.5,3.2-4.8,4.9-6.8c5-5.8,7.8-12.7,10.4-19.7c1.2-3.3,2.5-6.6,4.2-9.6
		c5.7-9.8,11.7-19.4,17.6-29c5.2-8.5,10.1-17.2,12.4-27.1c0.4-1.6,1-3.3,2.1-4.4c8.1-7.9,12.5-18,17.5-27.7
		c4.2-8.1,8.7-16.1,15-22.9c1.3,0.9,2.5,1.6,3.9,2.5c5.1-6.9,9.7-13.8,13.4-21.3c1.7-3.4,3.8-6.6,6-9.7c6.5-9.4,14-18.2,12.9-30.9
		c-0.4-4.7,0.4-9.6,0.7-14.6c-2.2,0-3.8,0-5.5,0c-2.2-9-3.2-17.7,2.1-25.7c2.1-3.1,3.3-6.3,3.2-9.8c-0.3-9.1-1-18.1-1.6-27.2
		c-1.8,0-2.9-0.1-4.1,0c-9,0.6-17.9,1.4-26.9,1.6c-11.3,0.3-22.7,0.1-34,0.1c-3.7,0-7.1,0.6-10.7,2c-3.5,1.4-7.4,1.9-11.2,2.1
		c-6.4,0.3-12.9,0.1-19.9,0.1c-0.3-0.3-1.1-0.8-1.7-1.6c-2.6-3.6-6.1-4.8-10.4-4.5c-3.6,0.2-7.3-0.1-11,0.2c-3.9,0.3-7.7,0.9-12,1.4
		c1.4,2.6,2.4,4.5,3.4,6.4L127.7,498.7z M1304.8,40.7l0,0.2c-3.7-7.3-8-14-13.8-19.5c-3.5,5.7-6.1,11.6-10.1,16.4
		c-5.4,6.5-12,11.9-14.9,20.4c-9.6-5.6-19-9.6-29-12.6c-12.4-3.6-25-5.5-37.8-6.5c-23.9-1.7-47.7-1-70.5,7.7
		c-25.7,9.8-42.4,28-49.7,54.7c-2.8,10.4-4.2,20.9-4.5,31.6c-0.4,13.6,1.5,26.9,6.2,39.7c6.8,18.4,18.2,33.7,32.8,46.4
		c11,9.6,22.8,18.4,34.6,27.1c14.1,10.4,28.2,20.7,40,33.8c8.3,9.3,14.1,19.9,14.6,32.6c0.5,9.9-1.2,19.6-4.2,29
		c-4.5,14.2-13.7,19.5-28.5,16.6c-0.5-0.1-1-0.2-1.5-0.3c-9.8-2-16.1-7.7-18-17.7c-0.9-4.6-1.8-9.3-1.5-13.8
		c0.7-11.3,1.6-22.6,3.2-33.8c1.5-10.6-4.8-16.3-13.4-17.1c-8.5-0.8-16.9-1.8-25.3-2.6c-12.4-1.2-24.9-2.4-37.3-3.3
		c-7.7-0.6-13.2,4.1-14.2,11.7c-1.8,14.5-3.5,29.1-2.1,43.8c1.1,12.2,3.6,24,8.6,35.3c1.1,2.4,2.5,4.6,4,7.2c4,0,7.8-0.1,11.6,0
		c11.2,0.5,15.9,3.6,18.6,12.2c7.7-1.5,14.1,1.9,20.7,5.3c7.2,3.7,9.7,10.5,12.8,17.9c10.7-9.3,20.7-18,30.7-26.7
		c0.4,0.2,0.8,0.4,1.2,0.6c0,7.1,0,14.2,0,21.3c11-12.6,21.6-24.7,37.8-29.8c0.5,3.9,1,7.6,1.6,11.8c2.9-2,5.4-3.8,8.6-6
		c2,2.6,3.7,4.9,6,8c5.6-12.2,11.6-22.7,20.5-31.2c8.3,3,14.9,7.6,19.4,15.4c2.6-3.6,4.8-6.5,7.4-10.1c1.5,2.5,2.5,4.1,3.8,6.2
		c4.4-4.9,6.2-11.4,11.6-15.1c1.6,1.5,3.1,2.9,5.1,4.8c1.1-5.2,2.3-9.9,3.1-14.5c2.4-13.5,3.1-27.2,1.2-40.8
		c-2.8-20.7-13-37.9-27.4-52.7c-12.1-12.5-26-22.8-40.5-32.4c-15.2-10-30.3-20.1-43-33.2c-7.1-7.4-13.1-15.5-15.8-25.6
		c-2.1-7.9-1.9-15.9-0.7-23.8c1.1-7.2,2.6-14.4,6.2-21c7.9-14.2,28.1-17.4,39.9-6c2,1.9,3.5,4.5,4.5,7c2.5,6.1,2.8,12.7,2.1,19.2
		c-1,9.3-2.3,18.5-3.7,27.7c-1.7,10.3,1.4,15.3,11.7,16.8c19.8,3,39.6,5.6,59.3,8.5c7.7,1.1,14.4-4.6,15.6-11
		c3.9-21.2,5.1-42.3-0.7-63.4c-0.4-1.5-0.7-3.1-1.1-5c28.3,12.5,48.2,3,56.6-7.8c-14.5-12.5-29.6-24.1-48.2-31
		C1312,54.9,1309,47.7,1304.8,40.7z M68,94.8l-0.2-0.1c3.4,1.6,6.7,3.7,10.2,4.8c4.9,1.6,10.1,2.4,15.7,3.7
		c-3.9,4.3-7.4,8-10.8,11.7c3.4,4.1,7.7,6.6,14.5,7.7c12.1,2,22.6-1.5,32.4-9.8c0.4,4.7,0.8,8.6,1.1,12.6
		c0.8,11.5,1.5,22.9,2.3,34.4c1.5,19.8,3.2,39.5,4.6,59.3c1.2,17.3,2,34.6,3.4,51.8c2.2,27.7,4.1,55.5,4,83.3c0,4,0,7.9,0,12.1
		c8.3,2.5,16.2,4.8,21.9,11.1c5.8,6.3,7.1,14.3,8.2,22.5c5.1-0.7,9.9-2.2,15.2-0.4c0.2,4.3,0.4,8.5,0.5,12.8c0.2,4.3-1.2,8.7-0.1,13
		c3.5-0.3,3.5-2.6,3.6-4.4c0.7-9.5,3.8-18.2,9.3-26c2.7-3.9,5.6-7.8,11.5-9.3c2.9,6.5,5.6,12.8,8.5,19.2c2.2-1.9,4.4-3.8,6.9-5.9
		c0.7,2.1,1.2,3.7,1.9,5.7c3.7-3.2,7-6,10.7-9.1c-3.6-21.5-7.2-43.1-10.8-65.2c2.1-0.3,3.7-0.6,5.3-0.8c23.3-2.9,45.7-8.8,66.4-20.4
		c14.3-8,26.7-18.2,36.6-31.3c15.1-20,22.3-43,24.1-67.8c1.5-20.6-0.6-41-5.6-61c-4-16-10.7-30.8-20.9-43.9
		c-11.2-14.4-25.4-24.8-42-32.1c-20.7-9.1-42.6-13.1-65-14.5c-24.3-1.5-48.6-0.7-72.8,2.3c-8.7,1.1-17.4,2.5-26.9,3.9
		c-5.3-4.8-11.7-9.8-19.3-13.3c-2.5,4.3-3,9.7-8.9,11.5c-8.1-5.4-15.2-12-21.9-19.3C75,36.4,69.9,28.1,65.5,19c-1,2-1.7,3.1-2.2,4.3
		C56.1,38.4,51.3,54,53.1,71C54.2,81.3,58.1,90,68,94.8z M694.1,710.6c0-7.5-0.7-15.2,0.1-22.8c1.5-13.3,0.5-26.2-3.2-39.1
		c-2.1-7.5-2-15.1-0.7-22.8c1.3-7.7,2.4-15.5,0.6-23.3c-0.3-1.3-0.2-2.7-0.2-4c-0.1-11-0.2-22-0.3-33c0-1.3-0.1-2.7-0.2-4
		c-0.7-6.8-1.5-13.5-2.3-20.3c-0.2-1.7-0.3-3.4-0.5-5.7c-4.3,0.9-7.8,1.8-11.4,2.5c-6.5,1.4-13.1,3.2-19.5-0.4
		c-3.2,0.6-6.3,1.1-9.3,1.8c-3.2,0.7-6.4,1.7-9.6,2c-3.2,0.4-6.5,0.1-10,0.1c-3.1,8.2-6.1,15.8-8.9,23.4c-0.4,1.1-0.5,2.3-0.5,3.4
		c0.1,8.8,0.5,17.6,0.2,26.5c-0.1,4.1-1.4,8.1-2.2,12.2c-0.9,4.5-2,9.1-2.7,13.6c-1.2,7.2-1.7,14.6-3.2,21.7
		c-3.2,15.2-6.4,30.3-7.5,45.8c-0.5,6.3-4.5,10.8-7.8,15.7c-2.1-0.2-3.7-0.3-5-0.4c-6.9-7.3-10.2-15.8-10.5-25.5
		c-0.3-8.5-0.3-17-0.8-25.5c-0.4-7.1-0.5-14.4-2.1-21.3c-2.8-11.6-5.1-23.1-5.3-35c-0.1-4.4-0.9-8.6-3.6-12.2
		c-0.9-0.3-1.8-0.6-3.2-1c1.5-0.6,2.5-1,3.8-1.4c-0.3-8.3,1.4-16.6-1.6-24.7c-0.5-0.1-1-0.3-1.5-0.3c-9.3,0.2-18.2-1.4-26.8-5.2
		c-1-0.4-2.2-0.4-3.4-0.5c-5.6-0.5-11.3-0.6-16.8-1.6c-3.9-0.7-7.5-0.4-11,0.9c-2.7,17.5-5.5,34.7-8.3,52.5c3.5,4.3,3.3,10,3.1,15.9
		c-0.2,6.2-3.1,11-6.5,15.7c1.6,1.3,2.7,2.2,4.3,3.6c0,4.9,0.2,10.1-0.1,15.2c-0.3,6.3-1.6,12.6-1.5,18.9c0.1,5.2,0.1,10-3.7,14
		c-0.5,0.6-0.8,1.5-1,2.3c-0.8,5.1-1.5,10.2-2.4,15.3c-0.2,1.5-0.7,3-1.1,4.3c-4.9-0.3-4.2-3.8-4.9-6.7c-0.4,4.9-1,9.3-1.2,13.8
		c-0.2,4-0.4,8.1,0.2,11.9c1,5.7,1.4,11.3,0.3,16.9c-1.2,5.7-2.7,11.4,0.2,16.1c-1.5,4-3.2,7.2-3.8,10.5c-0.7,4.2-0.7,8.5-0.7,12.8
		c0,11-2.3,21.7-4.4,32.5c-0.9,4.7-1.8,9.4-2.6,13.7c9.4,1.5,18.2,2.9,26.6,4.2c1.7-1.5,2.9-2.6,4-3.7c7.2-0.7,14.6,3.1,21.3-1
		c2.3-11.7,5.1-22.9,6.4-34.2c1.4-11.5,1.3-23.2,1.8-34.4c-2-1.4-3.4-2.2-5-3.3c0.2-2.3,0.4-4.5,0.6-6.7c0.4-0.2,0.8-0.3,1.2-0.5
		c1.3,1.1,2.7,2.3,4,3.3c0.2-3.2,0.4-6.9,0.6-11.5c0.6-2.4,1.6-5.7,2.2-9.2c0.6-3.6,0.8-7.2,1.2-10.8c0.7-6.2,2.6-12,5.8-17.3
		c0.5-0.8,1.7-1.2,2.5-1.7c5.7,15.7,5.2,32,7.4,47.9c1.9-0.2,3.4-0.3,5.2-0.5c1,3.2,2,6.3,3.2,9.9c-2.5-0.2-4.2-0.3-5.9-0.5
		c0,13.8,2.4,26.7,8.2,38.6c-1.3,5,0.5,23.2,2.9,28.8c6.3,0,12.9,0.5,19.4-0.1c5.8-0.5,11.4-2.1,17.1-3.4c1.6-0.4,2.9-1.5,4.6-2.3
		c0.6-2.6,1.6-5.2,1.8-7.8c1.1-10.9,5.6-21.3,4.2-32.5c-0.1-1.1,0.5-2.2,0.8-3.4c1.5-6.2,3-12.4,4.5-19.1c-2.3,0.5-3.9,0.9-6.1,1.5
		c1.3-4,2.4-7.3,3.6-11c2,1.1,3.2,1.8,4.4,2.4c1.1-4.6,2.5-9,3.2-13.5c0.8-5.1,0.9-10.3,1.3-15.4c0.8-10.5,0.2-21.3,5.3-31.1
		c0.5-0.9,1-1.8,1.7-3.1c2.7,4.1,5,7.6,6.4,9.7c-0.7,18.9,3.9,35.5,5,52.1c2.2,0.1,3.9,0.2,6.4,0.3c-0.4,3.6-0.7,6.5-1,10
		c-2.2-1-3.6-1.6-4.9-2.2c-3.8,12.6-1.9,25.5-3,37.7c1.3,1.7,2.2,2.8,3.2,4.1c1.1,9.7,2.2,19.4,3.3,29.2c1.6,1.5,3.1,2.9,4.9,4.5
		c6,0.4,11.9-1,17.7-3.3c3.5-1.4,7.3-1.9,11-2.5c2.2-0.4,4.6-0.1,6.4-0.1c1.8-1.9,3-3.3,4.3-4.7c-0.7,2.6-1.1,4.7,0.9,6
		c3.7-0.4,6.8-0.7,10.4-1.1c-1.5-19.1-2.9-37.6-3.8-49.7c-0.9-28-1.6-49.7-2.3-71.4c-0.5-0.1-0.9-0.3-1.4-0.4
		C696.1,707.8,695.1,709.2,694.1,710.6z M887,372.7c0-9,0-18.3,0-27.6c0-32.5-0.2-65,0.1-97.5c0.2-29.8,1-59.6,1.5-89.5
		c0.3-19.2,0.9-38.3,1.1-57.5c0.1-11-3.9-14.8-14.8-14.7c-16,0.1-32,0.2-48,0.4C818,86.4,814.6,90,815.1,99c0.1,1,0.1,2,0.2,3
		c1.5,19.6,3.2,39.2,4.4,58.8c1.6,26.3,2.9,52.6,4.3,78.8c0.6,10.3,1.2,20.6,1.6,30.9c0.2,4.3,0,8.7,0,13c-1.5-1.3-2.2-2.8-2.8-4.2
		c-8.9-23.5-17.9-47-26.6-70.6c-11.9-32.3-23.6-64.7-35.3-97.1c-2.8-7.7-7.7-11.4-15.8-11.1c-16.1,0.6-32.3,1.4-48.4,2
		c-5.4,0.2-8.8,3-10.5,7.8c-0.9,2.6-1.2,5.5-1.2,8.3c0.4,29.2,1.2,58.3,1.5,87.5c0.3,32.8,0.5,65.7,0.3,98.5
		c-0.1,12.3,1,24.2,4.3,36c0.5,1.9,1.2,3.7,1.5,4.8c11.5,0.5,22.4,0,33,1.6c10.5,1.5,20.7,5.1,31.4,7.9
		c-2.2-45.4-7.5-89.9-8.6-134.7c0.4-0.1,0.9-0.1,1.3-0.2c20.2,52.2,40.4,104.3,60.7,156.8c4.2-2.9,7.6-5.3,11.1-7.6
		c0.5,0.3,0.9,0.5,1.4,0.8c0,7.3,0,14.7,0,22.5c3-0.7,5-1.1,7.7-1.7c-0.9-11.8-2.1-23.3,1.3-35c10.7,4.3,19.5,10.9,29.3,16.8
		c0.6-4.6,1-8.5,1.5-12.5c0.5-4,1.6-7.7,4.5-10.5C878.5,353.9,881.7,364.5,887,372.7z M357.7,497.7c-6.1-3.6-12.1-4.2-18.6-2.8
		c-11.4,2.5-22.2,6-30.2,15.1c-0.9,1-2.1,1.9-2.5,3.1c-2.1,5.6-4.8,11.1-5.9,16.9c-2.1,10.4-3.5,21-4.6,31.6
		c-0.9,8.1-1.1,16.3-1.5,24.4c-0.4,8.7-2.9,17.5,1.1,26c0.1,0.3,0.1,0.7,0,1c-0.1,0.2-0.5,0.4-0.9,0.7c-0.7-1.1-1.3-2.2-2-3.3
		c-0.8,1.2-1.6,2.4-2.4,3.6c0.6,5.7,1.2,11.3,1.5,14.2c-0.9,12.8-1.7,23-2.4,33.3c0,0-0.1,0-0.1,0c-0.3,5.6-0.6,11.1-0.9,17.7
		c-3,5.6-3.9,12.8-4.3,20.2c-0.1,1.4,0.3,3.1,1.1,4.2c2.5,4,2,7.9,0.3,11.9c-0.5,1.1-1.1,2.2-1.2,3.3c-0.1,7.8-0.3,15.6-0.1,23.4
		c0.2,6.5,0.9,12.9,1.2,19.4c0.3,6.3-0.8,12.6,1.6,18.8c0.7,1.7,0.1,3.9,0.1,5.9c0,1.8-0.6,3.6-0.2,5.3c0.7,3.2,1.8,6.4,2.9,9.5
		c3.6,9.6,13.6,16.6,23.7,16.5c2.4,0,4.6,0.2,6.1,2.5c0.5,0.7,1.6,1,2,1.3c2.8,0,5.1-0.3,7.4,0.1c7.5,1.3,15,2.8,22.5,4.2
		c0.8,0.2,1.7,0.4,2.5,0.3c6.7-0.8,12.8,1.5,18.9,3.7c2.5,0.9,5.8,1.6,8.2,0.8c5.5-1.8,11.1-3.6,15.4-7.8c0.2-0.2,0.6-0.2,1-0.3
		c0.3,0.9,0.6,1.8,1,3c2.8-0.6,5.6-1.7,8.3-1.5c6.7,0.5,12.6-2.5,18.9-3.7c9.7-1.9,14.1-8.6,16.9-17c1.1-3.5,1.7-7.1,2.4-10.7
		c0.3-1.4,0-3,0-3.9c1.2-1.7,2.1-3,2.6-3.8c1-6.4,2.1-12.3,2.8-18.3c1.6-12.8,4.7-25.5,3.6-38.6c-0.1-1.3,0.3-2.6,0.5-3.9
		c0.4-2.6,1.1-5.2,1.3-7.8c0.6-7,1.4-13.9,1.6-20.9c0.2-7.9,2.3-15.9,0.4-23.9c-0.2-1.1,0.2-2.3,0.3-3.4c0.5-2.7,1.3-5.5,1.4-8.2
		c0.1-3.5-0.5-7-0.6-10.5c-0.3-8.6-1.1-17.3,1.5-25.8c-0.6,0.6-1.2,1.3-1.9,2.1c-1.1-0.5-2-1-3.1-1.6c0.2-4.8,0.8-9.1,3.8-12.8
		c0.8-1,1.5-2.3,1.6-3.5c0.8-8.1,1.5-16.2,2.2-24.3c0.8-8.4,1.6-16.9,2.3-25.3c0.1-1.6,0.2-3.3-0.1-4.9c-1.7-11-2.3-21.9,0.9-32.7
		c0.3-0.9,0.3-1.9,0.4-2.7c-6.2-9.2-11.4-9.7-23.2-2.4c-0.3,2.2-0.6,4.7-1,7.5c-3.2,2-6.6,4.1-9.6,6c-2.3,7.2-4.5,14.1-6.5,20.6
		c-1.2-6,1.5-11.9,2.7-18c0.6-2.7,2.3-5.5,5.6-6.5c2.6-0.8,4.2-2.8,4.3-5.6c0.1-2.8,1.6-4.6,3.6-6.2c2.2-1.8,4.4-3.7,6.4-5.3
		c-4.2-1.5-8-3.1-11.9-4.2c-3.8-1.1-7.7-2.1-11.7-2.4c-6.1-0.4-12.3,0-18.5-0.2c-5-0.2-10.2,0-14.9-1.3c-7.7-2.2-15.3-3.9-23.4-4
		C364.7,495.5,361.2,495.1,357.7,497.7z M1195.7,797.3c0.4,2.6,0.2,4.6,0.9,6.2c4.6,10.9,11.4,20,22.2,25.4c6,3,12.5,5.1,18.8,7.7
		c3,1.2,5.8,1,8.5-1c0.6-0.5,1.4-0.7,2.4-1.2c0.8,1.2,1.5,2.3,2.5,3.7c3-0.9,5.4-1.6,7.9-2.3c1.6-0.5,3.2-0.9,4.8-1.3
		c6.5-1.5,12.8-0.7,19.1,1.2c2.6,0.8,5.5,0.7,8.3,0.5c4.4-0.2,8.8-0.9,13.2-1.4c4.7-0.5,9.6,1.2,14-1.4c7.1-4.3,14.2-8.7,21-13.4
		c1.6-1.1,2.9-3.1,3.7-5c3.2-7.3,6.3-14.7,9.2-22.1c0.8-2,1.4-4.1,1.5-6.3c0.6-12.5,1-24.9,1.4-37.4c-1.9,1.1-3.9,2.3-6.1,3.6
		c0-1.6,0-3,0-4.3c0-10.1,2.7-20.2,0.9-30.4c-0.2-0.9,0.6-1.9,0.6-2.9c-0.1-7.6,0.7-15.4-0.5-22.9c-2.2-13.4-11.6-23.7-16.6-35.8
		c-2.2-0.4-4-0.7-4.6-0.8c-4.6-4.1-8.2-7.9-12.3-10.8c-7.9-5.6-15.2-11.5-17.4-21.2c-5.3-3.5-10.5-6.5-15.3-10.1
		c-3.8-2.9-7.2-6.4-10.6-9.8c-2.6-2.6-4.7-5.6-7.2-8.3c-5-5.6-8.6-11.9-10-19.3c-0.9-4.5-2-9.1-0.2-13.9c1.5-0.2,2.9-0.4,4.4-0.6
		c1.5-5.4,2.9-10.6,4.3-15.5c-1.2-1.4-2-2.4-2.6-3.1c1-5.5,5-8.5,8.3-12c5.5-5.8,10.2-6.8,17.4-3.5c1.2,0.6,2.3,1.4,3.6,1.8
		c4.8,1.4,7,4.9,7.8,9.4c0.5,3.3,0.8,6.6,1.1,9.9c0.2,2-0.3,4.2,0.3,6c1.9,5.7,1.1,11.2-0.4,16.7c-0.9,3.1-0.7,5.9,1,8.6
		c1.3-0.2,2.7-0.7,3.9-0.4c7.3,1.7,14.4,0.8,21.7,0.1c7.4-0.6,14.9,1.9,22.5,2.3c4.8,0.3,9.5,0.2,14.2,0.3c0.6-1.2,1.6-2.2,1.4-3
		c-1.6-8,1.1-15.8,1-23.7c0-1.3-0.6-2.5-1-3.7c-1.9,0.3-3.5,0.5-5.6,0.9c-2.8-5.3-4-11-2.2-16.2c2.5-7.4,3.5-14.4,1-21.8
		c-0.1-0.3-0.1-0.7-0.1-1c-0.7-8.8-1.4-17.6-2.1-26.4c-0.3-3.9-1.5-7.2-5.3-8.9c-0.7-0.3-1.4-0.9-2-1.5c-4-4.6-9.3-6.8-15.1-8.3
		c-6.1-1.6-12.5-2.6-18.2-5.2c-9.6-4.4-19.8-4.4-29.8-5.4c-8.4-0.9-16.9-0.6-25.4-0.1c-10,0.6-19.4,4.1-29.1,7.8
		c0.6,5.8,1.5,11.7-3,15.8c2.1,10.4,8,17.8,17.4,22.2c1.8,0.9,3.7,1.5,5.5,2.5c3.2,1.7,5.3,4.3,6.1,8.8c-1.2-0.9-1.9-1.2-2.1-1.7
		c-2.2-5.2-6.6-7.1-11.6-8.5c-4-1.1-8.1-2.6-10.4-6.4c-3.1-5.1-5.8-10.4-8.8-15.9c1.7-2.5,3.3-4.8,5.1-7.5c-0.8-2.2-1.7-4.6-2.7-7.2
		c-2.7,0.9-4.9,1.6-7.2,2.3c-6.5,1.8-11,5.7-14.3,11.5c-7,12.4-10.3,25.5-9.9,39.7c0.1,2.3,0,4.7-0.4,7c-1.3,8.3-1.6,16.5-1,24.9
		c0.5,6.9,0.3,13.9,0,20.9c-0.3,7.8-1.1,15.6-1.5,23.4c-0.2,3.6,1.4,6.7,3.8,9.5c2,2.4,4.2,4.9,5.6,7.6c3.7,7,8,14,5.3,22.9
		c1.3,1.1,2.6,2.8,4.2,3.2c3,0.7,4,3.2,5.8,5c3,3,6,6.1,9.4,8.7c2.8,2.3,6.3,3.7,9.2,6c8.6,6.7,18.2,12.2,25.8,20.3
		c0.4,0.5,1.1,0.7,1.7,1c0.5-1.9,1-3.6,1.7-6c10.1,8.4,19.4,16.9,26.6,25c1.4,7.4,2.5,13.1,3.7,19.4c-3.2,4.7-2.8,10.5-2.6,16.4
		c0.2,6.6,0.4,13.3,0,19.9c-0.2,3-2.4,6-2.4,9c-0.1,11.8-11.3,18.7-21.2,17.6c-6-0.7-11.2,0.3-16.2,3.4c-0.5,0.3-1.2,0.4-2,0.7
		c-1.3-2-2.6-3.9-3.9-5.9c-5.2-1.4-10.5-2.8-15.6-4.2c0.7-4.1,1.8-7.9,1.9-11.6c0.1-8.1-0.6-16.3-0.7-24.4c-0.1-8.3,0-16.6,0-25.1
		c-6.6-0.9-13.4,0-18.5,1.2c-5.7-1-9.7-1.6-14.7-2.4c0,4.2,0.1,7.8,0,11.4c-0.1,3.5,0.2,7.1-0.8,10.4c-2,6.7-2,13.5-1.6,20.3
		c0.1,1.7,0,3.5,0,5.5c-1.8,0-3.2,0-5.1,0c0.4,8.9,0.6,17.7,1.3,26.5C1192.4,791.9,1192.4,795.5,1195.7,797.3z M681.2,349.2
		c-0.3-1.8-0.4-2.6-0.6-3.4c-7.4-32.5-14.8-64.9-22.1-97.4c-6-26.5-11.8-53-17.6-79.5c-4.1-18.9-8.1-37.8-12.2-56.6
		c-1.2-5.5-2.5-11-4.5-16.3c-2.8-7.6-8.4-10.7-16.4-10.2c-24.3,1.3-48.6,2.7-72.8,3.9c-10.8,0.6-17.5,6.7-18.9,17.5
		c-2.1,16-4.2,32-6.4,48c-3.9,28.4-7.9,56.7-11.9,85c-3.4,23.4-6.9,46.7-10.4,70.1c-0.8,5.2-1.3,10.4-1.9,15.5
		c8.6-0.5,16.6-1.2,24.5-1.3c8.3-0.1,15,3.7,20,10.4c4.6,6.2,4.9,13.1,4.7,20.4c-0.3,9.9-0.1,19.8-0.1,29.8c1.2-0.8,2.5-1.6,3.7-2.3
		c1.2-0.7,2.5-1.4,3.7-2.1c0.5,1.5,0.9,2.6,1.3,3.9c4.4-3.7,6-6.1,6.3-11.2c0.6-9.1,0.9-18.3,1.3-27.4c0.1-1.9,0.3-3.9,0.5-6.4
		c18.3-0.5,36.2-0.9,54.5-1.4c3.3,12.4,1.6,24.6,3.5,37.3c2.1-1.7,3.6-2.8,5-4.1c6.2-5.6,12.4-11.2,18.4-16.8
		c2.3-2.2,4.9-3.2,8.1-3.1c8,0.1,16,0.1,24-0.3C670.2,350.9,675.4,349.9,681.2,349.2z M830.7,536.3c-8.5-1.8-13.4-7.4-18.1-13
		c-3.3-0.4-6.4-0.9-9.6-1.2c-8.9-1-17.8-2.1-26.8,0c-3.2,0.8-6.7,0.9-9.9,0.4c-10.9-1.6-21.6,0.4-32.4,1.1c-1.3,0.1-2.5,0.6-4.1,1
		c0,2.2,0,4.2,0,6.2c0.1,10.5,0.2,21,0.1,31.5c0,2.4-0.8,4.7-1.1,6.8c-2.4,0.7-3.9,1.1-6,1.7c-0.3,3-0.7,6.1-1,9.1
		c5.5,5.3,11.9,3.3,17.5,4.1c1.9-1.6,3.5-3,6-5c-0.4,8.9-0.6,16.7-1,24.5c-0.2,3.4,0.4,6.4,1,9.7c1.5,7.6,2.1,15.3,2.5,23.1
		c0.3,4.8-0.7,9.6-0.4,14.3c0.4,8.3,1,16.6-0.8,24.7c-1.6-0.4-2.9-0.7-4.7-1.1c-0.4,1.8-0.8,3-0.9,4.3c-0.3,6.5-0.6,13-0.9,19.4
		c-0.1,1.5,0,3.1-0.6,4.4c-2.3,5.1-1.6,10.4-0.9,15.6c0.2,1.3,0.4,2.7,0.1,3.9c-2.9,12.6-3.4,25.3-1.6,38.1
		c0.9,6.7,1.8,13.4,2.2,20.2c0.4,6.8,0.1,13.6,0,20.4c0,6.3-0.1,12.6-0.2,18.9c0,2.9,0,5.9,0,8.9c1.1,0.5,1.9,1.1,2.9,1.2
		c6.2,0.8,12.4,1.7,18.7,2.1c7.5,0.5,15,0.7,22.5,0.7c9.8,0,19.6-0.4,29.4-0.7c2.8-0.1,5.6-0.4,8.3-0.9c3.9-0.7,8-1.1,11.7-2.5
		c4.1-1.5,7-4.7,8-9.8c1,1.9,1.6,3.1,2.6,4.9c4.4-2.7,8.4-5.1,12.5-7.6c-0.3-0.3-0.6-0.6-0.8-0.9c1.8-2.7,3.8-5.3,5.5-8.1
		c1.1-1.8,2.3-3.7,2.6-5.7c0.6-4.4,0.7-8.9,0.9-13c3.3-6.4,2-12.8,1.7-19c-1.2-0.8-2.1-1.5-2.8-2c-0.4-2.7-1-5.1-1.1-7.4
		c-0.2-3.5,0.2-7-0.1-10.4c-0.7-7.2-0.2-14.4,2.3-21.2c2.9-7.8,1.8-15.7,1.2-23.6c-1.7-1.2-3.2-2.2-4.7-3.3c0.2-0.1,0.4-0.3,0.5-0.4
		c-1.9-3.2-3.7-6.5-5.8-10c0.3-0.6,0.7-1.6,1.1-2.5c-1.9-2.8-3.8-5.4-5.9-8.5c2.6-2.4,4.6-4.2,6.7-6c1.3-2.1,2.9-3.9,4.8-5.3
		c4.6-3.6,8-7.7,5.5-14c-0.1-0.4,0.2-0.9,0.3-1.4c1.4-0.6,2.8-1.1,4.5-1.8c2.8-8.2,2.5-16.8,3.8-25.1c-2.4-0.8-4.1-1.3-6.3-2
		c0-2.7-0.2-5.3,0-7.9c0.9-9.6,1.9-19.2,2.9-28.8c0.7-7,1.1-13.9-2.6-20.4c-1.2-2-1.9-4.2-2.9-6.5c0.3-1.7,0.5-3.5,0.8-5
		c-1.8-3.3-3.9-6.2-4.9-9.4c-1.1-3.7-3.1-6.1-6.5-7.6c-3.3-1.5-6.9-2.7-9.9-4.8c-3.9-2.7-8.2-4.2-12.8-5.3
		c-3.7-0.9-7.2-2.5-10.7-3.8c-1.5-0.5-3-0.9-5.1-1.5c5.2,8.2,14.3,10.8,19.3,17.9c0.7,1,2.6,1.4,4,1.8c1.9,0.6,3.9,0.8,5.8,1.4
		c0.7,0.2,1.2,1.1,1.9,1.6c-0.2,0.4-0.5,0.7-0.7,1.1C841.1,544.9,833.6,544.8,830.7,536.3z M951.9,385.2c2,0,4.1,0,5.7,0
		c5.5-5,9.7-10.9,18.3-11.4c3.6,7.5,7.3,15.1,10.9,22.6c9.2-7.7,10-8,16.2-7c2,5.1,4.1,10.5,6.5,16.5c2-1.4,3.7-2.2,4.8-3.6
		c3.7-4.5,7.1-9.2,10.7-13.9c0-0.5,0-1.2,0-1.8c0.1-49.7-1.7-99.3-4.3-148.8c-0.8-15.3-1.8-30.6-2.6-45.9
		c-0.8-16.6-1.5-33.3-2.2-49.9c-0.1-2.2,0.3-4.5,0.4-7.3c15.8,1,30.9,1.9,46,2.8c4.2-42.8,4.6-41.3,19.2-68.4
		c-5.4,0-10.5-0.1-15.6,0c-55.1,1.5-110.2,3.2-165.3-1.1c-4-0.3-8-0.4-12-0.2c-5.9,0.3-9.9,3.8-11,9.7c6.9-3.5,12-0.2,16.6,4.4
		c4.9,4.8,6.4,10.9,6.3,17.3c0,9.8-0.3,19.6-0.5,29.5c0,1.8,0,3.5,0,5.5c16.1-0.4,31.5-0.7,47.6-1.1c0,2.5,0,4.4,0,6.4
		c-0.6,23.3-0.8,46.6-1.8,69.9c-1.1,24.9-2.7,49.9-4.3,74.8c-0.8,12.5-2,24.9-3,37.3c-1.2,14.4-2.5,28.8-3.6,43.3
		c-0.1,1.3,0.2,2.5,0.2,3.8c5.6,0.7,11.1-1.1,15.8,1.9C951.3,375.4,951.6,380.1,951.9,385.2z M1001.9,551.1c-2.1,0.6-3.8,1-5.9,1.6
		c-0.1,3.2-0.3,6.3-0.4,9.2c1.6,1.2,2.8,2.1,4,3c0.1-0.2,0.2-0.4,0.2-0.7c4.6,0.9,9.3,1.8,14.2,2.7c1-0.9,2.4-2.2,4.3-3.8
		c0.3,1.5,0.5,2.2,0.6,3c0.7,10.3,1.8,20.6,1.9,30.9c0.1,11-0.9,22-0.9,32.9c0,10.7,0.8,21.5,1.2,32.5c-0.9,0.4-2,1-3.7,1.8
		c0.9,3.1,1.8,6,3,9.8c0,0.8-0.3,2.7,0,4.5c1.4,7.9,1.5,15.9,1,23.9c-0.8,13.8-2.5,27.7,0.6,41.5c3.2,14.9,0.8,30.3,3.6,45.3
		c1.6,8.4,0.8,17.2,1.1,25.9c0,0.3,0.1,0.7,0.3,1.6c0.7,0.5,1.7,1.2,2.6,1.8c-0.1,1.4-0.2,2.3-0.4,3.8c2.3,0.1,4.2,0.4,6.2,0.3
		c9.5-0.6,18.9-0.6,28.3,1.6c4,0.9,7.8-0.3,9.9-2.4c2.7,0.1,4.4,0.4,5.9,0.1c4.1-0.7,8.1-1.8,12.1-2.5c4.2-0.7,8.5-1.1,12.7-1.6
		c0.4-1.2,0.7-2.1,1.1-3.1c1.7,0.7,3.3,1.2,4.8,2c3.3,1.7,6.6,2.6,10.4,2.1c4.6-0.7,9.2-0.8,13.8-1c3.3-0.1,6.5,0,9.6,0
		c6.4-9.3,0-18.5,1.2-28c-1.8-0.3-3.5-0.5-5.6-0.8c-0.3-6.5-0.6-13-0.9-19.7c-10.6,0-20.8-0.2-30.9,0.1c-6.3,0.2-12.6,1.3-18.9,1.3
		c-3.8,0-7.7-1.1-10.8-1.6c0.2-6,0.5-11.1,0.5-16.2c0.1-6.8,0-13.7,0.1-20.5c0-3.4,0.3-6.9,0.5-10.3c1.8,0,3.3,0,5.2,0
		c0.2-2.7,0.4-5.1,0.6-7.5c1-3,1.5-6.1,1.3-9.1c-0.3-4.9,0.1-9.5,1.8-13.4c12.9,0,25.3,0,37.7,0c0-0.2,0-0.4,0.1-0.6
		c1.1,0.6,2.3,1.3,2.9,1.6c3.6-0.6,6.6-1,10.1-1.6c-0.5-6-0.9-11.9-1.4-17.8c-2-0.7-3.6-1.3-6.1-2.1c-0.4-9.3-0.9-18.6-1.3-28.1
		c-7-1.2-13.4-1.7-19.6,1.3c-4-2.3-8.1-1.9-12.3-1.3c-6,0.8-11.9,0.4-18.2-2c-3.9-21.8-4.7-43.7-0.3-65.9c1.4-0.3,3-0.5,4.5-0.8
		c1-4.1,1.9-7.9,2.9-12c4.9,0,9.2,0,14,0c2.3-2.7,5.9-2,9.3-1.5c2,0.3,4,0.7,5.9,0.7c8,0.1,15.9,0,23.8,0c6.3,4.2,16.6,4.6,22.3-2.1
		c-0.8-1.7-1.6-3.4-2.5-5.2c1.1-0.1,2.2-0.2,3.7-0.4c-1.1-9,2.4-17.4,2.4-26.2c-2.2-0.4-3.6-0.6-5-0.9c-3.5-8.2-0.1-16.6-1-25.1
		c-2.5,0-4.4,0-6.4,0c-7.5,0.2-15,0.7-22.5,0.7c-13.7-0.1-27.3-0.6-41-0.6c-6.1,0-12.3,0.9-18.4,1.5c-13.9,1.3-27.7,4.1-41.8,3.3
		c-7.5-0.4-15-0.8-22.4-1.1c-1.8-0.1-3.5,0.3-6.1,0.5c0.8,4.1,1.5,7.6,2.2,11.4c-2,3-2,6.5-1.3,10.3c0.7,3.8,1,7.6,1.2,11.4
		C1004,543.2,1004.4,547.2,1001.9,551.1z M457.3,377.2c15.5,3.7,30.1,9.3,43.1,19.4c4.9-6.6,7.6-14.5,14.1-18.4
		c2.3,3.5,4.4,6.7,7.1,10.7c0.4-2.2,0.7-3.1,0.7-4.1c0.4-12.2,0.9-24.3,0.9-36.5c0-6.8-6-12.4-13.1-12.7c-3.6-0.1-7.3,0.3-11,0.5
		c-20.3,1.3-40.6,2.5-60.8,3.8c-2.1,0.1-4.3,0-7,0c-0.2-4.3-0.5-8.1-0.4-11.9c0.6-43.8,0.9-87.6,2-131.4c0.7-26.5,2.9-52.9,4.4-79.3
		c0.5-8.8,1.1-17.6,1.2-26.5c0.1-8.5-5.4-14-13.6-13.9c-22.2,0.1-44.3,0.4-66.5,0.6c-6,0.1-10.2,3.7-10.6,9.6
		c-0.3,4.3-0.1,8.6-0.1,12.4c8,10.8,13.9,22,18,34c8.4,24.4,11.6,49.5,10.2,75.2c-1.1,20.5-5.7,40.2-15.4,58.5
		c-2.9,5.4-6.2,10.6-9.3,16c0.9,32.1,1.3,64.3,2.6,97.3c3.5-3,6.1-5.2,8.5-7.3c4.2,1.3,7.2,3.2,9,6.7c1.7,3.3,3.4,6.6,5.3,10.3
		c4.1-3.4,8-6.5,11.8-9.7c5.1-4.3,10.9-6.9,17.4-8.2c4.7-0.9,7.4,1.2,7.8,5.9c0.1,1.6,0.3,3.2,0.5,5.2c9.8-3.4,19.1-6.8,29-3
		c0.4,3.1,0.8,6,1.4,9.8c-0.2,0.9-0.6,2.8-1.1,5.1c3.1,0,5.8,0,8.8,0C453,389,453.1,382.9,457.3,377.2z M959.8,719
		c0.3-1.7,0.3-3.2,0.9-4.5c3.9-8.3,2.6-17.1,1.5-25.5c-0.9-7.5-1.7-14.8-0.7-22.3c0.6-4.1,1.3-8.3,1.1-12.4
		c-0.3-6.8,0.4-13.3,2.9-19.6c0.6-1.5,1.1-3.2,1.2-4.8c0.7-9,1.2-17.9,1.9-26.9c0.6-7.8,2-15.6,0-23.3c-0.3-1.1,0.1-2.3,0.2-3.4
		c0.2-4.8,1.2-9.7,0.5-14.3c-1.8-11.2-2.3-22.2,2.3-32.9c0.1-0.3,0-0.7,0-1.4c-0.8-2-1.7-4.2-2.7-6.7c-4.7,0-9.1,0-13.6,0
		c-5.5,0-10.9-0.1-16.4-0.2c-3,0-6-0.4-8.8,0c-7.1,1-14.2,1.7-21.3-0.7c-0.9-0.3-1.9,0.1-3.2,0.2c2.3,1.7,4,3.1,6.1,4.6
		c-1.4,3-2.6,5.5-4.2,8.8c1,1.9,2.1,4.5,3.7,6.7c1.6,2.3,5.3,2.9,5.2,6.8c-4.6-4.1-10.4-6.9-12.9-13.2c1.8-2.7,3.7-5.5,6.3-9.3
		c-3.2-0.7-5.4-1.2-8.3-1.8c-0.2,4-0.6,7.1-0.5,10.2c0.4,17.3,0.6,34.6,1.3,51.9c0.5,13.6,1.5,27.3,2.6,40.9
		c0.6,7.3,2.6,14.5,3.1,21.7c0.7,12.5,2.3,25.1,0.4,37.7c-0.1,1-0.1,2-0.1,3c0.6,6.6,1.4,13.2,1.9,19.9c0.2,2.6,0,5.2,0,7.8
		c-1.9,0.2-3.3,0.4-5.2,0.6c0,2.2,0,4.2,0,6.2c0.1,5.8,0.9,11.4,0.4,17.3c-0.8,8.9-0.6,18-0.6,27c0,8.6,0.3,17.3,0.5,25.9
		c0.1,3,0.2,6,0.2,9c-0.1,6.1-0.3,12.2-0.4,18.2c0,1.4,0.7,2.8,0.9,3.8c10.6,4.8,21.5,1.2,32.2,4.2c-0.4-1.9-0.7-3.1-1-4.4
		c2.4,0.6,4.3,1,6.5,1.5c3.7-3.9,8.2-3.4,12.9-2c1.9,0.6,4,0.6,6.9,1c0.1-4.5,0.3-8.1,0.3-11.7c0-3.3-1-7,0-9.9
		c2.2-6.4-0.2-12.7,0.9-19.1c1.3-7.4,0.1-15.3-0.1-22.9c-0.1-2.3-0.7-4.5-0.7-6.8c0-2.6,0.7-5.3,0.8-7.9c0.3-6.8,0.6-13.6,0.8-20.3
		c0.1-2.7,0-5.5,0-9C963,717.7,961.6,718.3,959.8,719z M663.9,503c1.3-1.5,2.4-2.7,3.6-4.1c2.5,0,5.1,0,7.2,0
		c1-14.1,2-27.9,2.9-41.7c0.1-1.7,0.4-3.4-0.1-5c-2.6-9.1-0.5-18.2-0.2-27.2c0.3-9.6,1.2-19.3,1.7-28.9c0-0.6-0.2-1.2-0.4-2.2
		c-9.7,0.9-19.2,1.8-29.4,2.7c1.1,10.9,2.5,20.9,3.2,31c0.7,10,0.8,20.1,1.2,30.8c-14-17.2-18.9-38.1-28.1-56.4
		c-7.5,2.9-15,5.7-22.3,8.7c-1.4,0.6-2.5,2-3.9,3.2c4.2,8.1,8.2,15.8,12.2,23.5c2.8,2.6,5,5.7,7.1,8.8c3.3,4.8,7,9.4,9.7,14.5
		c3.9,7.5,7.3,15.3,10.7,23c3.2,7.6,8.5,13.8,13.5,20.4c2.5-0.8,4.7-1.5,6.6-2.1C660.7,502.3,662.3,502.6,663.9,503z M688.8,394.9
		c-1.8,9.1,1.4,17.9,2.8,26.6c0.9,6.1,4.9,11.7,7.7,17.5c1.3,2.8,3.5,4.9,6.6,5.7c5.3,1.4,10.5,2.9,15.8,3.9
		c4.4,0.8,7.5,2.6,8.3,7.3c0.7,4.1,1.4,8.2,1.7,12.3c0.1,1.6-0.9,3.3-1.3,5c-3.7,0.6-6.9,1.1-10.4,1.6c-0.9-4.5-1.7-8.4-2.6-12.5
		c-5.5,0.8-10.3,1.5-15.1,2.2c-0.2,1-0.4,1.5-0.3,1.9c1.8,6.4,3.5,12.8,5.7,19.1c1.2,3.6,4.5,5.2,8.1,6c2.2,0.5,4.5,1,6.7,1.8
		c7.1,2.4,13.4,0.6,19.5-3.1c1.8-1.1,3.6-2.2,5.4-3.3c9.6-5.8,11.1-7.9,8.6-16.9c-0.3-1-0.5-2-0.4-3c0.3-8.1-1.4-15.7-3.8-23.5
		c-1.8-5.9-4.9-9.8-10.4-11.8c-5-1.8-10.2-3-15.2-4.5c-6.7-1.9-9.9-6.4-9.6-13.2c0.3-5.2,3.7-8.1,9.6-7.9c0.9,3.1,1.7,6.4,2.6,9.5
		c3.5-0.2,6.7-1.1,9.4-0.4c3.5,0.9,6.1,0,9.5-2.1c-1.7-7.9-3.2-15.9-5.3-23.7c-1-3.8-3.9-6.4-7.8-7.9c-9-3.6-17.6-2-26.1,1.7
		c-2.6,1.1-5.1,2.6-7.7,3.3C695.8,387.8,691.9,390.2,688.8,394.9z M98.5,407.4c-4.5,0.9-9.4,1.8-14.2,3.1c-4.8,1.2-8.8,4-11.6,8.1
		c-2.2,3.1-2,5.2,0.4,8.1c1.8,2.2,3.6,4.5,5.6,6.3c2.8,2.6,5.6,5.7,9,7c8.3,3.1,17.1,4.3,26,3.7c5.1-0.4,7.2-3.5,6.9-8.5
		c-0.2-3.3-0.2-6.7-0.5-10c-0.2-2.4-0.9-4.8-1.2-6.7C111.9,414.8,105.6,411.3,98.5,407.4z M1061,420.3c-5.9,0.7-12.4,1.2-18.2,4.3
		c-3,1.6-5.6,4.1-7.9,6.6c-2.4,2.8-2,5.1,0.3,8.1c6.9,9,15,15.9,27.1,16.4c3.8,0.1,7.6,1.1,11.4,0.9c7.1-0.3,9.8-3.8,9-10.7
		c-0.3-2.6-0.3-5.3-0.6-7.9c-0.3-2.4-0.9-4.8-1.3-6.9C1074,427.4,1067.8,424,1061,420.3z M101.3,387.2c-6.6-6.9-13.3-11-20.4-12.4
		c-11.1-2.3-20.9,4.1-21.8,14.8c-0.6,6.9,1,13.6,4.9,19.5c2.1,3.3,4.5,4,8.2,2.9c8.1-2.5,16.1-5.1,24.1-7.7c0.3-0.1,0.5-0.4,0.6-0.5
		C98.4,398.2,99.8,392.9,101.3,387.2z M1063.2,399.9c-6.7-8.5-18-13.6-27.8-12.6c-6.9,0.7-12.7,5.8-13.8,12.5
		c-1.3,7.5,0.5,14.6,4,21.2c1.9,3.6,4.9,4.8,8.4,3.6c8.3-2.8,16.6-5.7,25.2-8.7C1060.4,411,1061.7,405.7,1063.2,399.9z M165.7,419.7
		c-5.9-7-15.2-8.7-22.6-13c-7.1,4.5-13.7,8.6-20.9,13.1c0.5,6.6,1,13.7,1.5,20.5c1.1,0.6,1.6,1.1,2.2,1.3c10,2.8,19.3-0.3,28.6-3.4
		c0.3-0.1,0.6-0.3,0.8-0.6C160,432.6,165,427.8,165.7,419.7z M1085.7,453.5c2.7,0.6,5,1.6,7.2,1.4c5.3-0.4,10.5-1.2,15.7-1.9
		c8.5-1.2,16.6-8.7,18.6-17.1c0.8-3.5,0.3-5.6-2.8-7.2c-6.5-3.4-13.1-6.4-19.2-9.4c-7.1,4.4-13.6,8.4-20.9,12.9
		C1084.7,438.6,1085.2,445.7,1085.7,453.5z M143.9,405.1c3.3,1.3,6,2.5,8.8,3.5c4.7,1.7,9.5,1.7,14.2,0.2c1.6-0.5,3.4-2.2,4.1-3.8
		c3.3-7.7-1.7-25.4-10.9-29.7c-4.2-2-8.5-3.8-12.8-5.3c-1.4-0.5-3.4-0.4-4.7,0.2c-5.2,2.7-9.5,6.5-12.8,11.3
		c3.9,3.2,7.9,5.9,11.2,9.3C144.8,394.7,143.5,400.1,143.9,405.1z M1105.7,417.8c2.5,0.9,4.7,1.3,6.5,2.3c5,2.7,10.3,2.4,15.6,1.7
		c2.6-0.3,4.5-1.5,5.4-4.4c2.8-9-2.7-25.5-10.7-29.1c-4.2-1.9-8.4-4-12.8-5.6c-1.7-0.6-4.2-0.5-5.7,0.3c-5,2.7-9,6.6-12.9,11.6
		C1100.8,399.4,1108.2,405.4,1105.7,417.8z M103.9,385.4c4.6-1.2,8.7-3.2,12.9-3.3c8.2-0.4,13.5-5,18.3-10.7
		c3.4-4.1,2.7-7.8-2.1-10.1c-3.5-1.7-7.5-2.7-11.4-3.3c-9.5-1.3-18.9-0.6-27.6,3.9c-3.3,1.7-5.6,4.1-6.1,8.6
		C92.1,376.4,98.8,380.3,103.9,385.4z M1066,397.9c4.9-1.3,9.3-3.3,13.9-3.6c7.1-0.5,11.7-4.6,16.1-9.1c4.9-5.1,3.9-10.1-2.7-12.4
		c-12.4-4.2-24.9-4.2-37,1.4c-3.4,1.6-5.9,4.2-6.7,8.8C1054.5,388.6,1060.6,393.1,1066,397.9z M120.2,413.7
		c5.4-0.1,10.2-1.3,14.3-4.6c3.5-2.8,5-7.7,3.7-11.1c-4-10.1-16.9-15.7-27-11.8c-8.5,3.3-11.1,14.2-5.3,21.1
		C109.7,412,114.8,413.4,120.2,413.7z M1082.8,426.8c4.1-1.3,8.3-2,11.8-3.9c5.3-2.7,7.3-8.7,5.3-12.9c-4-8.3-13.5-13.5-22.6-12.3
		c-6.3,0.8-11.1,5.4-12.4,12c-1.1,5.2,1.5,10.8,7,13.6C1075.1,424.9,1079,425.6,1082.8,426.8z M764,461.1c-0.8,9.2,4,16.1,6.8,24
		c6.6,0.5,12.7-0.9,18.9-3.1c-0.6-8.3-1.9-16.3-4.1-24.7C777.9,458.7,770.7,457,764,461.1z M857.7,415.6
		c-8.5-11.7-15.9-24-21.3-37.5C838.2,393.6,844.6,406.5,857.7,415.6z M900.6,476.5c7.3,9.1,16.5,15.9,26.6,22.1
		c0.6-1.4,1-2.2,1.2-2.7C918.9,489.2,909.7,482.9,900.6,476.5z M955.9,417c4-2.5,3.8-2.6,4.7-5.6c1.5-5.3,3.2-10.5,5-15.6
		c0.8-2.2,2.1-4.2,3.2-6.3C959.9,396.3,957.9,406.2,955.9,417z M1175.2,407.3c0.2,0.3,0.5,0.5,0.7,0.8c2.6-2.4,5.2-4.8,7.8-7.2
		c2.8-2.6,5.8-5,8.5-7.7c2.4-2.4,6-3.8,6.8-7.6C1189,390.7,1181.8,398.7,1175.2,407.3z M515.9,392.4c1.9,8.8,8.1,19.9,13.2,24.3
		C527.9,410.8,521.8,399.4,515.9,392.4z M1313.5,369.1c-0.4-0.3-0.8-0.6-1.1-0.9c-5.8,7.9-11.7,15.8-17.5,23.7
		c0.4,0.3,0.7,0.5,1.1,0.8C1303,385.8,1308.4,377.6,1313.5,369.1z M496.6,409.8c-7.8-8.3-18-12.1-28.7-15.4
		C477.5,399.5,487,404.7,496.6,409.8z M849.6,489.5c-2.6-7.3-5.2-14.6-7.9-21.8c-0.4,0.2-0.8,0.3-1.2,0.5
		C841,476.2,843.5,483.5,849.6,489.5z M1132.6,427.3c8.1-8.9,16.3-17.9,24.4-26.8C1146.9,407.8,1138.7,416.8,1132.6,427.3z
		 M238,417.2c-0.4-0.1-0.8-0.2-1.2-0.2c-4.6,5.2-5.9,11.4-3.6,19.2C234.9,429.8,236.4,423.5,238,417.2z M796.3,418.9
		c3.7-7,7.3-14.1,11-21.1C801.3,403.4,795.4,414.1,796.3,418.9z M911.7,395.1c9.7-5.1,18.5-9.7,27.6-14.5
		C928.5,382.2,920.4,388.1,911.7,395.1z M488.4,499.9c0.5,0.2,1,0.4,1.5,0.5c3.6-5.8,7.2-11.5,10.7-17.3c-0.3-0.2-0.6-0.4-1-0.7
		c-3.8,5-7.7,10-11.5,15.1C487.9,498.1,488.3,499.1,488.4,499.9z M533.6,485.4c-1.3,6.1-2.7,13-4,19.9c-0.2,1.1,0.4,2.4,0.6,3.6
		c0.5,0,0.9-0.1,1.4-0.1C533.6,500.8,533.9,492.7,533.6,485.4z M1283.7,365c-0.4-0.1-0.7-0.3-1.1-0.4c-4.1,6.3-5.8,13.5-6.8,20.9
		C1278.5,378.7,1281.1,371.8,1283.7,365z M1210.3,393.9c-5.9,4.4-11,9.5-13.5,16.7C1201.2,405.1,1205.8,399.5,1210.3,393.9z
		 M1096.4,587.8c0.3-0.1,0.6-0.1,0.9-0.2c0-4.4,0-8.8,0-12.8c4.4-1.1,8.1-2.1,11.9-3c-0.1-0.2-0.1-0.4-0.2-0.7
		c-4.4,0.8-8.9,1.6-13.4,2.5C1095.9,578.3,1096.1,583,1096.4,587.8z M868.9,369.6c-0.4-0.1-0.7-0.2-1.1-0.2
		c-0.4,6.5-0.8,13.1-1.2,19.6C869.5,382.6,868.8,376.1,868.9,369.6z M393.3,449.5c6.1-2.6,12.2-5.3,18.4-7.9
		C404.7,442.3,399,445.7,393.3,449.5z M448.4,489.3c0.6-0.2,1.1-0.4,1.7-0.7c-1.8-5.2-3.6-10.3-5.4-15.5c-0.4,0.1-0.8,0.3-1.3,0.4
		C445.2,478.8,446.8,484,448.4,489.3z M268.5,446.3c0.2,0.4,0.5,0.7,0.7,1.1c4.9-3.8,9.8-7.6,14.7-11.4c-0.2-0.3-0.5-0.6-0.7-0.9
		C278.4,438.8,273.5,442.5,268.5,446.3z M895.8,381.8c3.7-4.7,7.5-9.5,11.2-14.2C901.8,371.1,898.4,376.1,895.8,381.8z M543.2,405.1
		c-0.5,0-1,0-1.6,0c1.1,4.7,2.3,9.3,3.4,14c0.3-0.1,0.7-0.1,1-0.2C545.1,414.3,544.1,409.7,543.2,405.1z M1137.3,574.1
		c-0.2,3.6-0.3,7.1-0.5,10.6c0.2,0,0.4,0,0.7,0c0.5-4.1,1-8.1,1.6-12.4c-1.5-0.2-2.6-0.3-4.2-0.5
		C1135.8,572.9,1136.5,573.5,1137.3,574.1z"/>
	<path class="st0" d="M216.7,136.4c-0.2-2.8-0.5-5.6-0.7-8.5c-0.4-6.8,2.3-9.5,9.1-9.2c18.5,1.1,30.9,10.8,38.8,27.1
		c7,14.3,9.5,29.8,10.8,45.4c1.2,13.8,1.4,27.6-1.9,41.2c-1.6,6.5-3.7,12.7-7.2,18.5c-4.3,6.9-10.5,11.6-17.2,15.5
		c-3.8,2.2-8.1,3.8-12.4,5.2c-5.7,2-8.5,0-9.2-5.9c-0.6-6-1.2-11.9-1.7-17.9c-2.8-35.2-5.6-70.4-8.3-105.5c-0.2-2,0-4,0-6
		C216.8,136.4,216.8,136.4,216.7,136.4z"/>
	<path class="st0" d="M88.7,78.9c12.7,8.6,25.5,16,39.7,20.8C115.2,101.2,94,90.3,88.7,78.9z"/>
	<path class="st0" d="M1284.7,56.9c-3.8,7.3-5.7,14.1-4,21.6c10.2-3.4,19.9-2.6,29.5,0.5c-10.4-1.1-20.7-0.8-30.7,2.1
		C1275.6,74,1277.9,62.5,1284.7,56.9z"/>
	<path class="st0" d="M537.3,600.9c2,2,4,3.9,6.4,6.3c7,1.9,7.9,2.9,5.6,8.6c-0.3-2-0.6-3.6-0.8-5c-2.5-1.1-5.2-1.7-7.2-3.2
		c-2-1.5-3.2-3.9-4.8-5.9C536.8,601.4,537,601.1,537.3,600.9z"/>
	<path class="st0" d="M546.4,574.7c1.4,1.1,2.8,2.2,4.5,3.6c4.5-1.6,7.6,1.4,10.8,4.6c-3.9-0.9-7.1-4.8-11.7-2.4
		c-1.6-1.8-3-3.4-4.4-4.9C545.8,575.3,546.1,575,546.4,574.7z"/>
	<path class="st0" d="M679,583c4.4,2.8,4.8,5.3,1.8,12.2c0-2.4,0.2-4.4-0.1-6.2C680.4,587.1,679.6,585.3,679,583z"/>
	<path class="st0" d="M342.5,698.3c1.5,0.1,2.8,0.3,4.4,0.4c3.5-17,4.2-33.9,2.7-50.9c-1.6-0.9-3-1.6-4.2-2.3
		c-0.4-0.2-0.6-0.7-1.2-1.5c1.3-0.5,2.4-0.8,4.4-1.5c0.4-2.8,1-6,1.3-9.3c1.2-12.1,2-24.2,3.6-36.2c0.6-5,2.6-9.9,4.2-14.8
		c1-2.8,3.4-4.1,6.3-5.1c10.2-3.4,20.2-2.2,30.1,0.6c3.8,4.8,6.9,12.3,6.9,17.7c-0.4,2.9-1,5.7-1.1,8.6c-1,20.6-1.8,41.3-3,61.9
		c-0.6,10.6-1.9,21.2-2.9,31.8c-0.1,0.7-0.1,1.4,0,2c0.3,1.3,0.8,2.5,1.3,4c1.7-0.2,3.3-0.4,5.4-0.7c0.3,1.6,0.6,3,0.7,4.4
		c0.6,21.1-1.4,42-6.8,62.4c-1.8,7-8.3,9.9-14.8,11.1c-5.5,1-11.3,0.7-16.9,0.7c-2.8,0-5.6-0.6-8.4-0.8c-9.8-0.8-16.6-7.3-16.6-17.2
		c0-12.8,0.6-25.6,1.3-38.4c0.5-8.3,1.7-16.5,2.6-24.8C342,699.9,342.2,699.4,342.5,698.3z"/>
	<path class="st0" d="M399.5,535.4c-0.5,1.4-0.9,2.6-1.3,3.7c-3.2,1.9-5.9,1.6-9.2-1.2c0.3-1.7,0.8-3.8,1.1-5.6
		C394.3,531.2,397.5,531.1,399.5,535.4z"/>
	<path class="st0" d="M386.4,523.1c1.8,0.3,3.4,0.6,4.9,0.9c2.4,4.4,2.2,5-2,7.3C383.6,529.1,383,527.5,386.4,523.1z"/>
	<path class="st0" d="M323.8,577.8c1,1.1,1.9,2.2,3,3.5c-0.2,2.7-0.3,5.3-0.5,8c3.5,7.7,3.5,9.2-0.5,12.6c2.5-3.3,2.1-6.4,0-9.6
		c-0.8-1.1-1.2-3-0.8-4.2c1.1-3.7,0.5-6.8-2.6-9.5C322.8,578.3,323.3,578.1,323.8,577.8z"/>
	<path class="st0" d="M436.1,601.1c0-1.8,0-3.9,0-5.9c0.3,0,0.6,0,0.8,0c0,1.7,0,3.4,0,5c0.3-0.1,0.5-0.1,0.8-0.2
		c1.3,2.9,2.7,5.9,4,8.8c-0.2,0.1-0.5,0.2-0.7,0.4C439.5,606.7,438,604.2,436.1,601.1z"/>
	<path class="st0" d="M1326.8,540.5c0.2-1.9,0.4-3.9,0.6-5.6c4.3-2.2,6.4,1.9,9.5,1.8c1.2,2.1,2.2,3.8,3.6,6
		c-5-0.5-9.8,1.1-13.8-2.3L1326.8,540.5z"/>
	<path class="st0" d="M1326.6,540.4c-0.2,2-0.5,3.9-0.7,6.4c2.8,1.7,5.4,3.7,8.4,5.1c3,1.3,5.9,0.2,8.4-1.7c2-1.5,3.8-2.4,6.6,0
		c-1.9,0-3.2,0-4,0c-2.3,2-4.2,3.7-6.8,5.9c-4.1-2-8.3-3.7-12-6c-3.6-2.2-3.3-5.2,0.4-9.6L1326.6,540.4z"/>
	<path class="st0" d="M244.9,529.1c-3.6-1.4-7.4-2.7-11-4.4c-2.9-1.3-3.6-4.1-2.3-7.7c0.4-1.2,1.2-2.4,1.7-3.6
		c0.5-1.2,0.9-2.5,1.4-3.8c1.5-0.8,3-1.5,4.7-2.3c2.2,0.4,4.4,0.8,6.7,1.1c5.1,0.7,6.1,2.1,5.8,8c-1,1-2.3,2-3.4,3.1
		C248.4,526.9,248.4,526.9,244.9,529.1z"/>
	<path class="st0" d="M127.6,498.8c3.3,0.3,6.6,0.5,9.9,0.9c5.9,0.8,11.7,1.7,17.8,2.6c-4.8,0.5-9.6,1-14.5,1.6
		c2.8,4.9,5.5,9.6,8.3,14.5c-2.2-0.2-2.9-1.9-3.9-3.5c-2.4-3.9-5-7.8-7.8-11.5c-0.8-1-2.6-1.3-3.9-1.9c-1.9-0.9-3.8-1.8-5.7-2.8
		L127.6,498.8z"/>
	<path class="st0" d="M125,553.3c-2.8-1.4-5.8-2-7.1-5.8c1.7-1.3,3.3-2.5,4.9-3.7C127.6,547.2,127.9,548.2,125,553.3z"/>
	<path class="st0" d="M571.8,166.8c4,0.9,5.5,4,6.2,7.5c2,9.9,4,19.9,5.9,29.9c4.8,25.5,9.6,51,14.4,76.5c1.3,7.2-0.8,10.2-8,10.4
		c-9.5,0.4-19,0.3-28.5,0.5c-3.1,0-5.4-1.3-7.1-4.7c0.8-8,1.6-16.6,2.4-25.2c2.5-25.3,5-50.7,7.5-76c0.4-3.8,0.7-7.6,1.3-11.4
		C566.6,170.7,567.7,167.6,571.8,166.8z"/>
	<path class="st0" d="M785.5,633.8c2.3-0.3,3.7-0.5,5.2-0.6c1-17.5,2.1-34.7,3.2-52.7c5.4-1.4,11.4,0.6,17.4,1.1
		c6.7,0.5,10.5,5.1,14.6,9.7c-2.7,5.2-1.5,10.9-1.6,16.5c-0.1,7.1,0,14.2,0,21.3c0,1.7,0,3.3,0,5.1c1.7-0.3,3.1-0.5,5.1-0.8
		c0,5,0,9.7,0,15.6c-0.3,0.3-1.5,1.2-2.9,2.2c-1.1,8.9-6.6,14-14.9,17.3c-7.5,3-15.1,6.1-21.7,11c-1.4,1.1-3.1,1.7-5.5,3.1
		C784.1,666,782.6,650,785.5,633.8z"/>
	<path class="st0" d="M822.7,748c-0.3,2.1-0.5,4.2-0.8,6.8c2.1-0.3,3.6-0.6,5.2-0.8c3,14.8-4,25.9-18.7,28.7
		c-8.3,1.6-16.5,4.1-25.1,3c-1.1-0.1-2.3-0.2-4.2-0.3c1.2-10.7,2.4-21.1,3.6-31.9c1.6,0,3,0,4.5,0c0.1-0.5,0.4-1,0.4-1.5
		c0.2-8.5,0-16.9,0.7-25.3c0.4-4.2-0.7-9.2,2.9-12.5c7.1-1.9,13.8-1,20.5,0.7c5.5,1.4,9.3,4.3,9.5,10.5c0.1,4.1,0.4,8.3,0.6,12.4
		c0.2,3.5,0.5,6.9,0.7,10.4C822.5,748,822.6,748,822.7,748z"/>
	<path class="st0" d="M1028.7,517.8c5.1,1.6,9.4,2.5,11.9,7c0.9,1.6,3,2.5,4.5,3.9c4.3,4.1,2.9,10.6-2.8,12.1
		c-3,0.8-6.3,0.9-9.3,0.3c-3.2-0.7-5.6-3.3-5.9-6.7c-0.4-4.3-0.2-8.6,0-12.9C1027.1,520.3,1028,519.2,1028.7,517.8z"/>
	<path class="st0" d="M1133.8,536.7c-2.8-12.1-13.5-10.9-21.6-14.1c5.7,0.9,11.4,1.7,17,2.6c0.6,0.7,1.2,1.1,1.5,1.6
		c3.6,6.2,8.7,10.2,16.1,11.1c3.2,0.4,4.6,3.2,5.7,6.1C1148,537.5,1140.7,538.1,1133.8,536.7z"/>
</g>
</svg>
