<?xml version="1.0" encoding="utf-8"?>
<!-- Generator: Adobe Illustrator 19.0.0, SVG Export Plug-In . SVG Version: 6.00 Build 0)  -->
<svg version="1.1" id="Layer_1" xmlns="http://www.w3.org/2000/svg" xmlns:xlink="http://www.w3.org/1999/xlink" x="0px" y="0px"
	 viewBox="0 0 2721.6 1071.1" style="enable-background:new 0 0 2721.6 1071.1;" xml:space="preserve">
<style type="text/css">
	.st0{fill:#FFFFFF;}
</style>
<g>
	<path class="st0" d="M1812.3,971.3c-2.7-13.3-5.5-27.2-8.2-41c-0.7-0.1-1.5-0.2-2.2-0.3c-4.4,14-8.9,28.1-13.6,42.9
		c-4.5,0-8.1,0-11.8,0c-78.7,0-157.3,0-236-0.1c-4.8,0-10.4,1.7-13.2-5.1c-2.2,1.7-4.1,3.3-6.7,5.4c-111,0-222.6,0-335.3,0
		c-11.9,32.9-23.8,65.7-35.5,98.2c-73.6,0-146.4,0-220.7,0c5.9-18.7,11.4-36.4,17.6-56.2c-7.9,3.8-13,8.8-18.6,12.9
		c-5.9,4.3-11.6,8.9-17.5,13.3c-5.8,4.4-11.7,8.7-18.6,13.9c-39.4-38.3-78.7-76.4-118.3-114.9c-11.7,13.4-22.6,25.9-33.9,38.7
		c-13.4-7.3-26.2-14.3-40.4-22c-2.6,4-5.2,7.9-7.1,10.8c-5.9-0.7-9.4-1.1-14.3-1.7c-4.1,10.7-8.2,21.5-12.8,33.5
		c-52.3-6.2-104.7-12.4-158.1-18.8c0-17.5,0-34.4,0-52.3c-9.8-2.1-18.7-4-28-6c-3.1-8.1-6.2-16.2-9.5-25.1c-14.3,0-28.5,0-43.3,0
		c-14.2-48-28.2-95.1-42.5-143.1c13-5.4,25.5-10.6,38.5-16.1c-0.3-4.1-0.6-7.9-1-13.4c2.2-1.5,5.2-3.6,8.6-6
		c-9.8-14.4-18.9-27.8-28.7-42.3c21.6-24.7,43.3-49.3,65.6-74.8c-8.9-3-17.2-1.2-25.2-1.5c-8.3-0.3-16.7,0-25,0
		c-8.3,0-16.7,0-26.4,0c-35.7-37.4-72-75.3-109.3-114.3c-12.2,38.9-23.8,76.2-35.6,113.8c-82.3,0-163.8,0-245.4,0
		C0,591.3,174.9,28,185.5,1.7c7.9-2.3,594.6-2.2,605.2,0.3c-3.2,19.6-12.2,37.6-16.7,56.8c7.3,2.4,234.4,3.3,252.6,1.2
		c2.6-7.4,5.3-15.1,8-22.6c135.5,0,270,0,404.9,0c0.7,4.5,1.3,8.4,2,12.3c20-1,39.8-2.3,59.6-2.8c20.3-0.5,40.7,0,61-0.1
		c20.1-0.1,39.9,2.1,60,7c1.7-1.5,3.6-3.2,5.8-5.1c126,0,252.2,0,379,0c0.8,4.2,1.5,8,2.4,12.5c88,0,175.8,0,264.8,0
		c5.5-16.3,11-32.9,16.8-50c143.6,0,286.5,0,430.8,0c-17.1,52.5-34.4,104.4-52,157c-34.1,0-67.7,0-101.7,0
		c-3.4,10.2-6.6,19.6-9.7,29c-28.7,87.7-57.4,175.3-86.1,263c-5.9,18-11.7,36.1-18,54c-2,5.5-5,11-8.7,15.5
		c-61.3,75.6-122.8,151-184.3,226.4c-1.7,2.1-3.4,4.1-6,7.4c11.4,68.7,22.9,138.3,34.7,209.3c-20.7,1.2-40.9-0.2-61,0.1
		c-20.3,0.3-40.7,0.1-61,0.1c-20.2,0-40.5,0-61.3,0c-2.5-9.8-4.7-18.4-6.8-27c-0.6-0.1-1.2-0.3-1.8-0.4c-3.1,8.8-6.2,17.5-9.1,25.7
		C2080.1,973.2,1822.7,973.5,1812.3,971.3z M648.5,327.8c31.4-97.7,62.8-195.1,94.1-293.6c-173.9,0-346,0-519.3,0
		C168.4,210.1,113.4,386,58.1,563c53.4,0,105.2,0,157.6,0c1.1-3.1,2.3-6.2,3.3-9.3c15.3-48.9,30.5-97.9,45.8-146.8
		c0.9-2.9,2.9-5.5,5.2-9.9C320.5,449.6,369.6,501,418,551.5c66.4,0,131.6,0,199,0c-18.8-23.9-37.7-45.2-56-66.9
		c-18.5-21.9-37.1-43.6-55.5-65.6c-18.3-21.8-37.2-43.1-55-65.4c1.5-1.3,2-2.1,2.5-2.2C517.6,343.6,582.3,335.8,648.5,327.8z
		 M980.1,290.3c1.3-4.5,2-7.7,3.1-10.8c8.1-24.7,16.2-49.4,24.3-74c10.8-32.6,21.6-65.1,32.2-97.7c1.3-3.9,4-7.8,1.7-12.4
		c-95.4,0-190.5,0-285.4,0c-6.1,11.9-132.9,399.1-133.3,407.2c32.2,0,64.3,0,97.1,0c10.5-35.4,20.9-70.4,31.1-104.5
		c15.7-5.8,96-20.5,103.6-18.9c-0.7,3.2-1.2,6.4-2.1,9.5c-10.7,35-21.4,70.1-32,105.1c-0.7,2.4-0.9,4.9-1.4,8.1
		c33.2,0,65.4,0,98.4,0c7.1-23,13.9-45.9,21.1-68.7c7.3-23,13.1-46.6,22-69.6c104.7-10.9,208.6-18.7,313.7-21.6c0,8.3,0,15.6,0,22.9
		c0.2,26.6,6.4,51.6,20.7,74.1c13.5,21.1,30.9,38.6,54.2,48.7c23.2,10,47.8,14.6,73,14.8c54.4,0.5,103.8-15.4,148-46.9
		c28.9-20.7,52-46.6,67-79.2c1.5-3.2,2.3-6.6,4-11.5c-4.9,0.4-8.1,0.5-11.3,0.8c-42,4.6-84.1,9.2-126.1,13.9
		c-35.7,4-71.5,8.1-107.2,12c-4.4,0.5-8.9,0.1-14.6,0.1c12.8-63.3,25.3-125.2,37.9-187.4c85.9-7.1,170.7-12.7,255.7-20
		c0.3-3.5,0.8-5.8,0.6-8c-1.4-20.8-9.4-38.7-23.6-53.8c-18.2-19.3-41.2-30.6-66.7-36c-38.9-8.3-77.8-8.1-116.7,1.1
		c-28.1,6.6-54.9,16.4-79.7,31.3c-38.5,23.2-69.7,53.3-89.1,94.6c-3.5,7.5-6.5,15.2-10,23.7c-101.5,15.7-202.9,33.5-303.8,53.4
		C985,290.9,983.3,290.5,980.1,290.3z M931,575.6c18.4,20.2,35.8,39.2,54.1,59.3c-22.1,19.2-38.9,41.3-50,68.4
		c-30.7-1.5-61.1-2.9-92-4.4c-9.4,32.6-18.7,64-27.1,96.9c25.4,0,49.2,0,74.2,0c-3,34.1-2.1,67.2,4.5,100.2
		c-18.1,11.9-35.5,23.3-53.9,35.3c20.2,19.5,38.6,38.6,58.7,56.5c16.2-11.7,31.5-22.8,46.7-33.8c20.3,3.6,39.8,7,60.4,10.7
		c-1.1,4.9-1.7,8.5-2.8,11.9c-4.9,15.6-10,31.1-14.8,46.6c-1,3.3-1.5,6.7-2.4,10.6c44.7,0,87.9,0,132.2,0
		c19.2-53.1,38.4-106.1,58.4-161.2c-32.5,1.2-62.9,2.7-93.4,3.4c-30.4,0.7-60.7,2.8-91.1,2.7c0.3-9.1,73.6-231.3,79.3-240.9
		c58.8-1.4,118.3-2.8,178-4.2c17-54.1,33.6-107,50.5-160.9c-34.2,0-66.8,0-100.2,0c-11.9,31.2-23.9,62.5-35.4,92.5
		c-27.5,3.1-53.3,5.9-80.1,8.9c-24-17.1-48.8-34.9-73.6-52.7C984.2,539.7,958.3,557.2,931,575.6z M1795.4,534.1
		c-1.3,3.4-2.6,6.5-3.7,9.6c-14,42.4-27.9,84.8-41.9,127.2c-17.3,52.5-34.5,105-51.8,157.6c-10.4,31.6-20.8,63.3-31.2,94.9
		c-1.1,3.3-1.6,6.7-2.6,10.7c31.4,0,61.3,0,91.9,0c3.8-11.9,7.5-23.6,11.1-35.3c13.5-43.9,27-87.9,40.6-131.8
		c0.9-2.9,2.6-5.6,3.9-8.4c1,0.1,2,0.2,3,0.2c12.1,58.3,22.5,117,34.6,175.2c29.9,0,58.8,0,88.5,0
		c43.6-133.1,87.2-265.9,131.1-399.7c-29.5,0-57.7,0-86,0c-0.9,2-1.9,3.7-2.5,5.5c-17.5,53.1-35,106.3-52.4,159.5
		c-4.8,14.6-9.4,29.2-14.3,43.7c-1.2,3.4-1.4,8-7.9,8.8c-9.7-72.6-17.3-145.2-27-217.6C1850.1,534.1,1822.9,534.1,1795.4,534.1z
		 M1531,501.8c38.4,0,75.2,0,112.7,0c16.2-53,32.3-105.8,48.3-158.2c2.5-0.9,4-1.7,5.5-2c30.6-6.5,61.2-13.1,91.9-19.5
		c2-0.4,4.2,0.5,7.5,0.9c-17.1,60-36.4,118.3-53.5,178.3c34.1,0,66.6,0,99.1,0c0.9-1.6,1.7-2.7,2.1-3.9
		c43.1-136.6,86.1-273.1,129.1-409.7c0.4-1.3,0.5-2.6,0.7-3.9c0-0.3-0.2-0.6-0.3-0.9c-0.1-0.3-0.3-0.6-0.5-0.9
		c-10.4-1.9-95.1-1.5-102.7,0.6c-17.4,55.6-33.6,111.8-51.3,167.2c-35.6,8.9-69.9,17.6-105.3,26c0.5-3.9,0.5-6.3,1.1-8.4
		c3.1-10.5,6.4-21,9.6-31.6c14.7-48.4,29.4-96.9,44.1-145.3c0.7-2.4,0.9-4.9,1.5-8.1c-36.5,0-72,0-108.4,0
		c-3.3,10.5-6.6,20.9-9.8,31.3c20.4,21.4,31.7,45.4,28.1,75.6c-18.6,1.6-36,3.1-54.3,4.7c-17.8,57.1-35.4,113.8-53.7,172.4
		c25.9-2.7,49.8-5.2,73.6-7.7c2.1,6.5,0.1,11.1-1.9,15.7c-18.9,43.1-50.3,74.8-90.4,98.4c-5.4,3.2-11,6.1-17,9.4
		C1534.9,488.3,1533.1,494.5,1531,501.8z M2245.1,934.1c-10.8-67.3-21.5-133.3-32.1-199c2.8-3.7,5-6.6,7.3-9.4
		c19-23.2,38-46.4,57-69.6c30.8-37.6,61.6-75.2,92.4-112.9c1.9-2.4,3.4-5.1,6.1-9c-33.3,0-64.4,0-95.8,0c-2,2.4-4,4.6-5.9,6.9
		c-42.4,52.3-84.7,104.6-127.1,156.8c-3,3.7-6.5,6.9-10.4,11c-3.8-6.6-0.7-11.2,0.6-15.6c15.2-49,30.6-97.9,45.9-146.8
		c1.2-3.7,2.1-7.5,3.4-12.2c-32.8,0-64.3,0-96.6,0c-43.6,132.9-87.1,265.6-131.3,400.3c33.4,0.1,64.9,0,96.6,0
		c1.6-4.1,3.1-7.4,4.2-10.8c9.1-27.8,18.2-55.7,27.2-83.6c5.2-15.8,10.3-31.7,15.6-47.4c1.1-3.1,1-7.4,7-8.6
		c11.1,50.2,22.1,100,33.2,149.9C2176.9,934.1,2210.1,934.1,2245.1,934.1z M2401.7,131.2c-1.3,5.3-1.8,8.4-2.8,11.5
		c-9.6,29.8-19.3,59.6-29,89.3c-28.5,86.7-57.1,173.3-85.6,260c-0.9,2.7-1.3,5.5-2.2,9.2c44.4,0,87.6,0,131.7,0
		c40.5-122.9,80.9-245.8,121.5-369.2c4.7-0.3,8.6-0.7,12.6-0.7c26-0.1,52,0,78-0.1c3.9,0,7.8-0.4,11.9-0.6
		c9.1-28.9,19.5-56.5,27.5-85.9c-113.5,0-225.6,0-338.4,0c-4.8,14.5-9.8,28.6-14.2,42.8c-4.3,14-10.2,27.7-13.2,43.7
		C2333.8,131.2,2366.7,131.2,2401.7,131.2z M2005.3,432.9c12.7-39.6,24.6-77,36.8-115c42.9,0,85,0,127.6,0
		c7.3-21.9,14.4-42.9,22-65.5c-41.4-0.7-81.2,0.2-122.9-0.5c9.8-32.8,19.9-63.6,30.3-95.4c56.8,0,113.3,0,169.9,0
		c6.8-20.5,13.7-39.7,19-59.5c-12-2.1-277.2-1.7-285.4,0.4c-13.5,44.5-27.2,89.4-40.9,134.3c-13.6,44.6-27.5,89.1-41.1,133.7
		c-13.6,44.7-27.8,89.2-41,134.9c91.7,0,181.9,0,272.4,0c6.3-22.4,15.4-43.4,21-67.2C2116.7,432.9,2061.9,432.9,2005.3,432.9z
		 M1609.6,782.9c-1.1,5.7-1.5,8.5-2.3,11.3c-1.7,6.1-3.6,12.1-5.5,18.2c-11.2,36.6-22.4,73.3-33.5,109.9c-1.1,3.6-1.8,7.4-2.8,11.8
		c25.4,0,49.3,0,72.9,0c5.6-10.1,130.6-391.5,130.7-399.2c-73.5,0-147,0-220.9,0c-1.3,3.6-2.4,6.6-3.4,9.8
		c-10.5,31.9-21,63.9-31.6,95.9c-31.4,94.5-62.8,189.1-94.1,283.6c-1,3-1.3,6.1-2.1,9.9c25.6,0,49.8,0,75.2,0
		c16.1-44.4,32.1-88.7,48.4-133.7C1562.9,794.7,1585.1,789.1,1609.6,782.9z M596.8,580.1c-2.9,15.8-5.6,30.4-8.4,45.7
		c-8.1-0.9-15.3-1.6-21.8-2.3c-7.6,5.1-10.6,13.8-19.3,17.9c-9.1-7.9-18.2-15.8-27.9-24.2c-22.8,25.8-44.7,50.7-67,76
		c8.5,11.1,21.3,17.4,29.3,29.3c-5.8,4.6-10.9,8.7-16,12.7c0.8,6.7,1.6,12.9,2.4,19.4c-11.1,3.2-21.2,6-32.4,9.2
		c9.8,32.6,19.3,64.3,28.8,96.1c14.3-1.8,26.3-8.6,40.1-9.2c4.2,12,8.2,23.2,12.1,34.3c10.7,2.3,20.6,4.5,30.8,6.7
		c1.6,17.5-4.8,33.7-3.1,50c14.8,4.3,92.5,12.9,99.7,11.1c1.5-13,3.1-26.1,4.7-40.2c6.7,0.8,12.4,1.5,18.1,2.2
		c5.5-5.7,10.7-11.1,16.4-17c12.3,10.4,23.6,20,35.9,30.4c22.3-25.8,43.9-50.8,65.6-75.9c-10.9-12.6-24.8-19.9-34.4-32.6
		c5.9-7.5,11.4-14.5,16.9-21.5c-2.5-9.5-4.9-18.3-7.4-27.3c12.6-7.8,27.1-9.3,39.3-17.6c-12.1-31.5-23.9-62.5-35.9-93.7
		c-13.8,2.3-25,10.4-38.3,12.5c-3.2-7.5-6.1-14.1-8.8-20.5c-9.2-1.7-17.5-3.2-26.7-4.9c2.9-16.4,5.5-31.6,8.4-48
		C664.2,592.7,631.3,586.6,596.8,580.1z M1395.9,934c4.2-12.3,8.3-24.2,12.3-36.2c3.9-11.7,7.7-23.4,11.5-35.1
		c3.9-12,8-24,11.9-36.1c3.8-11.8,8.7-23.3,11.3-36.4c-25.3,0-49.2,0-73.4,0c-9.3,25.6-18.6,50.8-27.6,75.6
		c-14.2,2.4-48.4,1.7-55.2-1c0.1-8,28.1-86.7,57.3-164.6c20.6-54.7,39.9-110,60.2-166.1c-33.8,0-65.9,0-97.6,0
		c-6.9,14.1-129.6,391.8-129.8,399.8C1249.3,934,1321.8,934,1395.9,934z M1148.9,158.4c-10.8,34.3-21,67.1-31.9,102
		c47.8-8.1,93.5-15.8,139-23.4c8.7-27.3,17.1-53.5,25.7-80.3c17.7,0,34.6,0,49.5,0c11.8-9.9,21.7-19,32.3-26.9
		c10.9-8.1,22.6-15.2,34.2-22.9c1.9-5.8,3.9-11.8,5.8-17.8c1.8-5.8,3.3-11.7,5.1-18.2c-113,0-224.5,0-335.6,0
		c-6.4,12.3-27.5,79.8-27.1,87.6C1079.5,158.4,1113.3,158.4,1148.9,158.4z M1087.3,358.6c-8.2,18.6-44.1,135.3-43.8,142.7
		c43.2,0,86.4,0,130.7,0c8-25.2,16-50.1,23.8-75.2c7.9-25.2,16.5-50.2,23.6-75.8C1209.6,348.4,1096.2,355.7,1087.3,358.6z"/>
	<path class="st0" d="M303.7,301.5c0.8-10.6,61.9-187.2,67.2-194.1c51,0,102.5,0,155.6,0c-0.8,4.1-1.1,7.6-2.3,10.8
		c-11.9,33.2-23.9,66.4-35.8,99.6c-5.5,15.4-10.9,30.8-16.4,46.1c-1.3,3.7-2.8,7.4-4.1,10.7C455.6,279.6,313.5,302.9,303.7,301.5z"
		/>
	<path class="st0" d="M768,330.2c19.2-60.9,37.7-119.8,56.1-178.3c13.7-2.1,89.5-1.5,97.3,0.9c-0.5,2.7-0.6,5.6-1.5,8.3
		c-14.5,46-29.1,92-43.4,138.1c-1.6,5.1-4.6,7.6-9.6,8.8c-29.8,7.1-59.6,14.3-89.4,21.4C775.1,330,772.4,329.9,768,330.2z"/>
	<path class="st0" d="M1635.2,716.5c-23.9,7.5-47.2,14.8-72.9,22.8c1.2-5.3,1.5-8.4,2.5-11.3c10.4-30.5,20.9-61,31.3-91.5
		c5.2-15.1,10.3-30.2,15.5-45.3c0.5-1.5,1.3-3,2.1-4.9c20.7,0,41.2,0,63.1,0c-0.9,4.5-1.3,8.2-2.4,11.8c-11,33.5-22,66.9-33.1,100.4
		C1639.5,704.2,1637.5,709.8,1635.2,716.5z"/>
	<path class="st0" d="M551.5,816.9c3.8-6.4,7-11.8,10.9-18.5c-7.5-2-14-3.8-21.7-5.9c-7.4-16.5-15-33.7-23.1-52
		c14.1-6.9,27.4-13.4,41.8-20.5c-4.1-14-8.1-27.5-12.5-42.4c23.8-8.7,47.4-16.1,72.1-24.1c6.5,13.3,12.7,26,19.3,39.5
		c14.3-1.4,27.6-7.2,43-9.3c4.2,9.1,8.4,18.3,13.2,28.7c-28.9,13.5-57.7,23.5-86.2,36.6c2.1,4.8,3.9,8.9,6,13.8
		c16.4-5,32.1-9.8,49.2-15c2.9,8.8,5.4,16.5,8.2,25.3c-14.6,7.3-28.5,14.2-43.1,21.5c1.4,3.1,2.6,5.6,4.2,9.1
		c27.8-8.7,55-17.1,82.9-25.8c6.4,9.6,6.7,20.5,11.2,31.2c-12.3,6.3-24,12.3-36.6,18.7c1.8,10.2,3.6,20.2,5.6,31.5
		c-20.9,7.6-41.4,15.1-63,22.9c-5.8-9.1-11.5-17.9-17.6-27.4c-13.8,3.6-27.2,7.1-41.7,10.9C566,849.3,558.8,833.3,551.5,816.9z"/>
</g>
</svg>
