<?xml version="1.0" encoding="utf-8"?>
<!-- Generator: Adobe Illustrator 19.0.0, SVG Export Plug-In . SVG Version: 6.00 Build 0)  -->
<svg version="1.1" id="Layer_1" xmlns="http://www.w3.org/2000/svg" xmlns:xlink="http://www.w3.org/1999/xlink" x="0px" y="0px"
	 viewBox="0 0 245.2 62.5" style="enable-background:new 0 0 245.2 62.5;" xml:space="preserve">
<style type="text/css">
	.st0{fill:#FFFFFF;}
</style>
<g>
	<path class="st0" d="M33.7,40.1c1.7,2.8,3.3,5.5,5,8.2c0.8,1.3,1.6,2.6,2.4,3.9c0.3,0.4,0.6,0.7,1,0.9c0.7,0.3,1.3,0.6,2.2,1
		C39,56,33.9,57.8,28.5,59.7c0.7-1.1,1.2-2,1.8-2.9c-2.8-5.8-5.5-11.5-8.3-17.3c-0.1-0.2-0.3-0.4-0.5-0.6c-0.9-0.2-1.7-0.3-2.7-0.5
		c-0.2,0.4-0.4,0.7-0.4,1c-0.2,1.4-0.3,2.8-0.4,4.2c-0.2,2-0.4,4-0.7,6c-0.1,0.8-0.2,1.5-0.2,2.3c-0.2,1.8-0.4,3.6-0.7,5.5
		c0.6,0.7,1.2,1.4,1.9,2.2c-3.9,0.1-7.8,0.2-11.8,0.3c0.5-0.9,1.3-1.3,1.8-2.2c0-1.1,0.1-2.2,0.2-3.4C8.8,52,8.9,49.5,9,47
		c0-0.7,0-1.4,0-2.2c0.1-1.9,0.1-3.8,0.2-5.6c0.1-2.4,0.3-4.8,0.4-7.2c0.1-1.4,0-2.8,0.1-4.2c0.1-1.6,0.2-3.2,0.3-4.8
		c0.1-1.3,0.1-2.6,0.1-3.9c0.1-2.4,0.1-4.7,0.2-7.1c0-0.7,0.2-1.4,0.3-2.1C8.5,8.1,6.5,6.4,4.3,4.5c1.3,0.2,2.5,0.3,3.6,0.4
		c1.2,0.1,2.4,0.2,3.5,0.4c1.3,0.2,2.6,0.4,3.9,0.6c1.2,0.2,2.4,0.3,3.7,0.5c3.6,0.6,7.3,1.3,10.8,2.4c3.2,1,6.2,2.4,8.6,4.7
		c1.4,1.3,2.4,2.9,3.1,4.7c0.9,2.4,1.5,4.9,1.6,7.5c0,1.1,0.2,2.1,0,3.2c-0.2,1.8-1,3.3-2,4.8c-1.7,2.5-4,4.4-6.7,5.8
		C34.3,39.6,34,39.8,33.7,40.1z M19.8,20c-0.2,3.1-0.4,6-0.6,8.9c0.3,0.1,0.6,0.3,0.9,0.3c1.5,0.2,3.4-0.9,4-2.3
		c0.7-1.6,0.5-3.2-0.3-4.7c-0.7-1.3-1.8-2.1-3.1-2.6c-0.1,0-0.2,0-0.5-0.1C20,19.7,19.9,19.9,19.8,20z"/>
	<path class="st0" d="M200.3,14.6c-0.9-1.4-1.8-2.6-2.8-4.1c3.7,1.2,7.3,2.4,10.9,3.6c2,3.4,4,6.9,6,10.3c2,3.4,4,6.8,6,10.3
		c0.3-0.1,0.5-0.2,0.7-0.3c0-0.3,0.1-0.5,0.1-0.8c0.2-2.7,0.4-5.3,0.7-8c0.2-1.9,0.3-3.9,0.5-5.8c0.2-2.5,0.4-5,0.6-7.5
		c0.1-1.5,0.3-2.9,0.4-4.3c-0.9-0.9-1.7-1.8-2.6-2.8c5.6-1.1,11.1-2.1,16.6-3.1c0,0.1,0.1,0.1,0.1,0.2c-0.8,0.9-1.7,1.7-2.5,2.6
		c0,2.6-0.1,5.1-0.1,7.6c-0.1,1.8-0.2,3.5-0.3,5.3c-0.1,1.4,0,2.7-0.1,4.1c-0.1,2.5-0.2,5-0.3,7.6c-0.1,1.5,0,2.9-0.1,4.4
		c-0.1,3.1,0,6.2-0.2,9.3c-0.3,3.7-0.3,7.4-0.4,11.1c0,0.9-0.1,1.8-0.2,2.7c1.1,0.9,2.1,1.8,3.3,2.9c-2.8-0.4-5.3-1-7.8-1.5
		c-2.5-0.5-5.1-1-7.7-1.5c-3.9-7.9-7.8-15.8-11.7-23.7c-0.3,0-0.5,0-0.7,0.1c0,1.2,0,2.4,0,3.5c0.1,1.9,0.3,3.7,0.4,5.6
		c0.1,2.1,0.2,4.2,0.4,6.2c0.1,1.9,0.2,3.7,0.3,5.6c0,0.6,0.1,1.3,0.2,2.1c0.6,0.9,1.3,2,2.2,3.2c-5.2-1.7-10.2-3.4-15.3-5.1
		c0.9-0.5,1.7-0.8,2.5-1.2c0.1-1.1,0.2-2.2,0.2-3.2c0-1.9,0-3.8,0.1-5.7c0-1.4,0-2.7,0.2-4.1c0.3-2.6,0.2-5.1,0.3-7.7
		c0.1-1.6,0.2-3.3,0.3-4.9c0-0.2-0.1-0.4-0.1-0.6c0-2.2-0.1-4.3,0.2-6.4C200.2,18.6,200,16.6,200.3,14.6z"/>
	<path class="st0" d="M159.1,17.1c-0.8,0.9-1.6,1.7-2.4,2.6c0.1,1.5,0.1,3,0.2,4.4c0.1,1,0.1,2,0.2,3.1c0.1,2,0.2,4,0.3,5.9
		c0.1,2.4,0.1,4.8,0.2,7.2c0.1,1.3,0.2,2.6,0.3,4c0,0.2,0,0.4,0,0.6c0,1.4,0,2.7,0.1,4.1c0.1,1.5,0.2,2.9,0.3,4.6
		c1.1,1.1,2.2,2.2,3.5,3.5c-5.5-1-10.7-2-16.2-3.1c0.8-0.5,1.5-0.9,2.1-1.4c-0.8-5-1.6-10-2.4-14.9c0-0.1-0.1-0.2-0.2-0.2
		c-0.5-0.1-0.6,0.3-0.8,0.6c-0.5,1.2-1,2.3-1.4,3.5c-0.7,1.7-1.4,3.5-2.2,5.3c-0.5,0-1,0-1.5,0c-1.3,0-2.6,0-3.9,0
		c-0.9,0-1.8,0.1-2.6,0.2c-0.3,0-0.5,0-0.8,0c-1.5-3.3-2.9-6.6-4.3-9.9c-0.2,0-0.4,0.1-0.6,0.1c0,0.3-0.1,0.6-0.1,0.9
		c0,4.4,0,8.7,0,13.1c0,0.5,0.2,1,0.5,1.4c0.3,0.5,0.7,1.1,1.1,1.8c-0.5,0-0.9,0-1.3-0.1c-3.3-0.6-6.5-1.2-9.8-1.8
		c-1.6-0.3-3.3-0.6-5-0.9c0.9-0.8,2-1.1,3-1.9c0.1-0.5,0.3-1.2,0.4-1.8c0.3-2.4,0.6-4.9,0.9-7.3c0.3-2.7,0.7-5.4,1-8.1
		c0.4-2.9,0.8-5.7,1.2-8.7c-0.9-0.7-1.8-1.4-2.8-2.2c0.4,0,0.6,0,0.8,0c2.7,0,5.4,0,8.1-0.1c1.1,0,2.3-0.1,3.4-0.1
		c0.3,0,0.7,0,1.1,0c0.6,1.2,1.2,2.4,1.8,3.6c1.3,2.6,2.7,5.3,4,7.9c0.1,0.3,0.3,0.6,0.6,1c0.3-0.4,0.6-0.7,0.8-1.1
		c1.4-2.5,2.8-5.1,4.3-7.6c0.8-1.5,1.7-3,2.5-4.5c5.2-1.3,10.4-2.6,15.6-3.9C159.1,17,159.1,17,159.1,17.1z"/>
	<path class="st0" d="M52,11.9c5.5,1,11,2,16.7,3c-0.9,0.6-1.7,1.2-2.6,1.8c0.1,0.4,0.1,0.8,0.2,1.1c1.2,3.5,2.4,6.9,3.6,10.4
		c0.8,2.4,1.6,4.7,2.4,7.1c1.8,5.1,3.6,10.2,5.4,15.4c0.1,0.2,0.2,0.4,0.2,0.6c0.8,0.3,1.7,0.7,2.7,1.1c-4.4,1.5-8.7,2.9-13.2,4.5
		c0.2-0.7,0.4-1.3,0.6-1.8c0.2-0.5,0.3-0.9,0.1-1.4c-0.7-1.8-1.4-3.5-2.2-5.3c-0.1-0.2-0.2-0.3-0.3-0.5c-0.3,0-0.6-0.1-0.9-0.1
		c-2.5,0-4.9,0-7.4,0c-0.4,0-0.8,0-1.2,0.4c-0.4,2.4-0.8,4.8-1.2,7.4c0.8,0.5,1.7,1,2.8,1.6c-4.6,0.7-8.9,1.3-13.2,2
		c0-0.1-0.1-0.1-0.1-0.2c0.6-0.8,1.3-1.6,1.9-2.4c3.1-13.5,6.2-27.2,9.2-40.6c-1.4-1.4-2.6-2.6-3.8-3.8C52,12,52,12,52,11.9z
		 M58.7,41c1.4-0.3,2.7-0.7,4.1-1c0-0.5,0-0.8-0.1-1.2c-0.1-0.4-0.2-0.8-0.3-1.2c-0.4-1.9-0.8-3.8-1.3-5.7c-0.1-0.3-0.3-0.6-0.4-0.9
		c-0.9,0.1-1.2,0.7-1.3,1.3c-0.3,2.3-0.7,4.6-1,6.8C58.4,39.8,58.3,40.3,58.7,41z"/>
	<path class="st0" d="M185.8,11.1c-0.9,1.1-1.7,2-2.5,3.1c3.7,11.8,7.4,23.6,11.1,35.5c0.8,0.7,1.7,1.5,2.6,2.3
		c-4.8,1.3-9.4,2.5-14.3,3.7c0.6-0.7,1.1-1.3,1.6-1.8c-0.5-2.1-0.9-4.1-1.4-6.2c-0.1-0.3-0.3-0.5-0.4-0.7c-0.2,0-0.4-0.1-0.5-0.1
		c-2.1,0-4.1-0.2-6.1-0.3c-1.1-0.1-2.2,0-3.4,0c-0.7,2.5-1,5-1.5,7.5c0.6,0.9,1.2,1.8,1.9,2.9c-4.3-1.6-8.5-3.2-12.9-4.8
		c0.7-0.3,1.2-0.5,1.7-0.7c0.5-0.1,0.7-0.4,0.9-0.9c0.9-3,1.9-6,2.9-9c1.5-4.6,2.9-9.1,4.3-13.7c0.9-3,1.9-5.9,2.9-8.9
		c0.3-0.8,0.5-1.7,0.8-2.5c0.1-0.3,0.1-0.6,0.2-0.9c-0.9-0.7-1.8-1.4-2.8-2.1C176.1,12.7,180.8,11.9,185.8,11.1z M175.5,29.1
		c-0.4,2.7-0.8,5.4-1.2,8c-0.1,0.5-0.2,1,0.2,1.3c1.3-0.1,2.6-0.2,3.8-0.3c0.4,0,0.9-0.1,1.2-0.5c-0.1-0.4-0.2-0.8-0.3-1.3
		c-0.6-2.2-1.2-4.4-1.8-6.6c-0.1-0.4-0.3-0.7-0.5-1C176.4,28.6,175.9,28.6,175.5,29.1z"/>
	<path class="st0" d="M101.6,40.4c-0.1,3.8-0.2,7.7-0.2,11.6c0.6,0.5,1.2,0.9,1.8,1.4c0,0.1,0,0.1,0,0.2c-1.6-0.1-3.1-0.1-4.7-0.2
		c-0.3,0-0.5,0-0.8,0c-1.5,0-3,0-4.5,0c-2.9-0.1-5.9-0.1-8.8-0.2c-0.1,0-0.1,0-0.3-0.1c0.8-0.6,1.5-1.2,2.2-1.6
		c1-0.6,1.5-1.4,1.6-2.5c0.1-1,0.3-2.1,0.4-3.1c0.4-2.3,0.8-4.6,1.2-6.9c-0.8-1.1-1.5-2.2-2.2-3.3c-1.5-2.2-3-4.3-4.5-6.5
		c-1.9-2.8-3.8-5.5-5.8-8.2c-0.5-0.7-1.2-1.1-1.8-1.7c-0.3-0.3-0.6-0.5-0.9-0.9c1.2,0.1,2.3,0.1,3.5,0.2c0.1,0,0.1,0,0.2,0
		c1.9,0.1,3.8,0.2,5.7,0.3c1.6,0.1,3.1,0.2,4.7,0.3c0.5,0,1.1,0,1.6,0c1.3,0,2.7,0.1,4,0.3c-0.4,0.3-0.8,0.5-1.2,0.8
		c-0.4,0.3-0.8,0.6-1.3,0.9c1.1,3.7,2.2,7.2,3.4,10.8c0.1,0.2,0.2,0.3,0.4,0.4c0.7-0.5,6.7-7.9,8.4-10.4c-0.3-0.8-0.5-1.6-0.9-2.7
		c4.4,2.3,8.5,4.6,12.8,6.9c-1,0.1-1.9,0.2-3,0.3C108.9,31.1,105.3,35.7,101.6,40.4z"/>
</g>
</svg>
