<?xml version="1.0" encoding="utf-8"?>
<!-- Generator: Adobe Illustrator 19.0.0, SVG Export Plug-In . SVG Version: 6.00 Build 0)  -->
<svg version="1.1"
	 id="Layer_1" xmlns:sodipodi="http://sodipodi.sourceforge.net/DTD/sodipodi-0.dtd" xmlns:inkscape="http://www.inkscape.org/namespaces/inkscape" xmlns:cc="http://creativecommons.org/ns#" xmlns:rdf="http://www.w3.org/1999/02/22-rdf-syntax-ns#" xmlns:dc="http://purl.org/dc/elements/1.1/" sodipodi:docname="Red-Dead-Redemption-Logo.svg" inkscape:version="1.0.2 (e86c870879, 2021-01-15, custom)"
	 xmlns="http://www.w3.org/2000/svg" xmlns:xlink="http://www.w3.org/1999/xlink" x="0px" y="0px" viewBox="-20 277.8 569.5 238.2"
	 style="enable-background:new -20 277.8 569.5 238.2;" xml:space="preserve">
<style type="text/css">
	.st0{fill:#FFFFFF;}
</style>
<sodipodi:namedview  fit-margin-left="0" guidetolerance="10" showgrid="false" inkscape:cy="443.10057" objecttolerance="10" borderopacity="1" bordercolor="#666666" pagecolor="#ffffff" inkscape:zoom="0.64825125" gridtolerance="10" inkscape:cx="461.34369" fit-margin-top="0" inkscape:window-height="1014" inkscape:current-layer="g436" inkscape:document-rotation="0" inkscape:window-x="0" inkscape:window-y="36" fit-margin-right="0" inkscape:window-maximized="1" fit-margin-bottom="0" inkscape:window-width="1920" inkscape:pageopacity="0" inkscape:pageshadow="2">
	</sodipodi:namedview>
<g>
	<g>
		
			<g transform="matrix(1.25 0 0 -1.25 -534.3 701.8)" inkscape:label="2bf4a8bb-c85c-41d7-824e-a6db34114106" inkscape:groupmode="layer">
			<g transform="matrix(4.468 0 0 4.468 -1465 -542.2)">
				<g>
					<g transform="matrix(.4763 0 0 .4763 221.7 129.3)">
						<g transform="translate(8.952e-6)">
							<g>
								<path class="st0" d="M597.2,139.3L597.2,139.3C597.1,139.2,597.1,139.2,597.2,139.3z"/>
								<path class="st0" d="M622.4,59.2C622.4,59.2,622.4,59.2,622.4,59.2C622.5,59.4,622.4,59.3,622.4,59.2z"/>
								<path class="st0" d="M534.5,56.5C534.5,56.5,534.5,56.5,534.5,56.5C534.5,56.4,534.5,56.4,534.5,56.5z"/>
								<polygon class="st0" points="630,96 630,96 630,96 								"/>
								<path class="st0" d="M625.7,98.5c0,0.1-0.1,0.1-0.2,0.1c0-0.1,0-0.1,0-0.1C625.6,98.4,625.6,98.5,625.7,98.5z"/>
								<path class="st0" d="M625.6,98.2h-0.2v-0.1C625.4,98.1,625.6,98,625.6,98.2z"/>
								<path class="st0" d="M625.3,98.7c-0.1,0-0.3,0.1-0.4,0C624.8,98.5,625.3,98.5,625.3,98.7z"/>
								<path class="st0" d="M624.6,98.6c0,0.2-0.2,0.2-0.2,0H624.6z"/>
								<path class="st0" d="M624.4,98.7c-0.2,0-0.5,0.1-0.6-0.1C624,98.6,624.3,98.5,624.4,98.7z"/>
								<path class="st0" d="M623,63.8c0.2,0,0.2,0,0.4,0c0,0.3-0.2,0.1-0.4,0.2V63.8z"/>
								<path class="st0" d="M623.2,87.4c0.1,0,0.2,0.4,0.1,0.4C623.2,87.8,623.2,87.6,623.2,87.4z"/>
								<path class="st0" d="M623,98.7c0,0.2-0.1,0.1-0.2,0.1C622.7,98.6,622.9,98.7,623,98.7z"/>
								<path class="st0" d="M610.8,100.2c0.1,0.1-0.3,0.1-0.3,0C610.6,100.2,610.7,100.2,610.8,100.2z"/>
								<path class="st0" d="M606.3,128.7c-0.1,0-0.1,0-0.2,0c0-0.1,0-0.1,0-0.1C606.3,128.5,606.3,128.6,606.3,128.7z"/>
								<path class="st0" d="M605.7,128.3c-0.1-0.2-0.1-0.3-0.1-0.5C605.8,127.8,605.9,128.2,605.7,128.3z"/>
								<path class="st0" d="M604.9,132.4c-0.1-0.2-0.3-0.3-0.4-0.6C604.7,131.7,605,132.2,604.9,132.4z"/>
								<path class="st0" d="M604.6,128.9c0,0.2,0,0.3,0,0.4c0.1,0.1,0.2,0.2,0.2,0.5h-0.2c-0.2-0.3,0-0.5-0.2-0.8
									C604.5,129,604.4,128.9,604.6,128.9z"/>
								<path class="st0" d="M604.1,132.8c-0.1-0.2-0.3-0.3-0.4-0.6C603.9,132.1,604.2,132.6,604.1,132.8z"/>
								<path class="st0" d="M604,126.5h-0.2C603.8,126.3,604,126.3,604,126.5z"/>
								<path class="st0" d="M603.7,129.4c0,0.1,0,0.2-0.1,0.2c0-0.1-0.1-0.3-0.1-0.4C603.7,129.2,603.5,129.4,603.7,129.4z"/>
								<path class="st0" d="M603.1,129.5c-0.1-0.1-0.1-0.2-0.1-0.4c0.1-0.1,0.2-0.1,0.4-0.1c0,0.1,0.1,0.2,0.2,0.3
									c-0.1,0,0,0.1-0.2,0.1c0-0.2,0-0.3-0.2-0.2C603.2,129.3,603.2,129.4,603.1,129.5z"/>
								<path class="st0" d="M602.9,125.9c0.1,0,0.2,0,0.2,0.2C603,126.1,602.9,126,602.9,125.9z"/>
								<path class="st0" d="M604.3,140c-0.1,0-0.2,0-0.2-0.1C604.2,139.9,604.3,139.9,604.3,140z"/>
								<path class="st0" d="M602.5,106.4c0,0.4,0,0.6,0,0.9c-0.1,0-0.1,0.1-0.1,0C602.4,107.1,602.3,106.6,602.5,106.4z"/>
								<path class="st0" d="M602.5,105.9c-0.1-0.1,0-0.2,0.1-0.2C602.5,105.7,602.6,105.9,602.5,105.9z"/>
								<path class="st0" d="M601.8,135.3c-0.1,0-0.1-0.3,0.1-0.2C602,135.1,602,135.4,601.8,135.3z"/>
								<path class="st0" d="M601.7,135.7h-0.1c0-0.1-0.1-0.1,0-0.2C601.7,135.5,601.7,135.6,601.7,135.7z"/>
								<path class="st0" d="M601,136.5c0-0.2-0.3,0-0.2-0.2C600.9,136.1,601.2,136.4,601,136.5z"/>
								<path class="st0" d="M600.6,137.3c0,0.1,0.1,0.1,0,0.2h-0.2C600.5,137.3,600.5,137.3,600.6,137.3z"/>
								<path class="st0" d="M601.9,140.6c-0.1,0-0.2,0-0.2-0.1C601.8,140.5,601.9,140.5,601.9,140.6z"/>
								<path class="st0" d="M600.4,137.7c-0.1,0,0,0.2-0.2,0.1C600.2,137.7,600.4,137.6,600.4,137.7z"/>
								<path class="st0" d="M600.2,137.9c0,0.1-0.1,0.2-0.2,0.2C600,138,600,137.9,600.2,137.9z"/>
								<path class="st0" d="M599.7,138.5c0.1,0.2-0.4,0.2-0.3,0H599.7z"/>
								<path class="st0" d="M597.8,140c-0.1,0-0.1,0.2-0.3,0.2c0,0-0.1-0.1,0-0.2C597.5,139.9,597.7,139.9,597.8,140z"/>
								<path class="st0" d="M594.8,141.4c-0.1,0.1-0.2,0.1-0.2,0v-0.1C594.7,141.2,594.8,141.2,594.8,141.4z"/>
								<path class="st0" d="M594.5,141.3c-0.1,0.1-0.3,0-0.4,0C594.1,141.1,594.5,141.2,594.5,141.3z"/>
								<path class="st0" d="M593.8,141.2c0,0.2-0.2,0.2-0.2,0H593.8z"/>
								<path class="st0" d="M584,141.4v0.1c-0.1,0-0.1,0-0.2-0.1C583.9,141.5,583.9,141.4,584,141.4z"/>
								<path class="st0" d="M581.2,141.2c-0.2,0-0.6,0.6-0.7,0.3C580.7,141.5,581.1,141,581.2,141.2z"/>
								<path class="st0" d="M576.7,141.8c0-0.1,0-0.2,0.1-0.2C576.8,141.6,576.8,141.8,576.7,141.8z"/>
								<path class="st0" d="M576.5,141.9c0.1,0.1,0,0.3-0.2,0.2C576.3,141.9,576.4,141.9,576.5,141.9z"/>
								<path class="st0" d="M566.8,55c0-0.1,0-0.2,0.1-0.2c0.1,0.1,0.1,0.1,0.1,0.2C566.9,55,566.8,55,566.8,55z"/>
								<path class="st0" d="M550.6,141.8c-0.1,0.1-0.2,0.1-0.2,0C550.4,141.7,550.6,141.7,550.6,141.8z"/>
								<path class="st0" d="M550.2,54.8c0-0.3,0-0.8,0.2-1c0-0.3,0-0.6,0.2-0.7c-0.1,0.4,0,0.9-0.2,1.1
									C550.3,54.4,550.3,54.7,550.2,54.8z"/>
								<path class="st0" d="M549.7,58.4c-0.1-0.1,0-0.2,0-0.2C549.8,58.2,549.8,58.4,549.7,58.4z"/>
								<path class="st0" d="M549.7,66.5C549.7,66.6,549.6,66.6,549.7,66.5c-0.2-0.1-0.1-0.4-0.1-0.5c0-0.1,0-0.3,0-0.1
									C549.6,66.1,549.7,66.3,549.7,66.5z"/>
								<path class="st0" d="M549.6,68.8c0-0.1,0-0.1,0-0.1c0.1,0,0.1-0.1,0.2,0C549.7,68.7,549.7,68.8,549.6,68.8z"/>
								<path class="st0" d="M549.4,61.9v-0.2C549.5,61.6,549.5,61.9,549.4,61.9z"/>
								<path class="st0" d="M535.3,142.2c0-0.1-0.1-0.1-0.2-0.2c0,0,0.1,0,0.2,0C535.4,142.1,535.4,142.2,535.3,142.2z"/>
								<path class="st0" d="M530.1,141.8c0,0.1,0.1,0.1,0,0.2c-0.1,0-0.1,0-0.2,0C529.9,141.8,530,141.8,530.1,141.8z"/>
								<path class="st0" d="M529.4,142c0.1,0.1,0.1,0.3,0.3,0.2v0.2c-0.2,0-0.1-0.3-0.4-0.2C529.3,142.1,529.3,142,529.4,142z"/>
								<path class="st0" d="M529.4,141.9c0-0.1,0.1-0.1,0.2-0.1C529.6,141.9,529.5,141.9,529.4,141.9
									C529.4,141.9,529.4,141.9,529.4,141.9z"/>
								<path class="st0" d="M529,141.9v-0.2C529.2,141.6,529.2,141.9,529,141.9z"/>
								<path class="st0" d="M529,142.1c0.2,0,0.2,0.2,0.3,0.3c-0.1,0.1-0.3,0.3-0.3,0C529.1,142.3,528.9,142.3,529,142.1z"/>
								<path class="st0" d="M528.9,142.1v0.2h-0.1C528.7,142.2,528.7,142.1,528.9,142.1z"/>
								<path class="st0" d="M443.4,141.6c0,0.1-0.3,0.2-0.3,0C443.2,141.7,443.2,141.6,443.4,141.6z"/>
								<path class="st0" d="M442.9,142v-0.2h0.1C443,141.9,443,142,442.9,142z"/>
								<path class="st0" d="M438.5,140.3c0.1,0.1,0.1,0.3,0,0.5c-0.3,0.2-0.5-0.2-0.3-0.5C438.3,140.2,438.4,140.2,438.5,140.3z"/>
								<path class="st0" d="M437.3,115.6c0,0.1-0.1,0.1-0.1,0.2c0-0.1-0.1-0.1-0.1-0.1C437.1,115.6,437.2,115.6,437.3,115.6z"/>
								<path class="st0" d="M437.3,116.2c0,0.1,0,0.2,0,0.2c-0.1,0-0.1,0-0.2,0v-0.2C437.2,116.1,437.2,116.1,437.3,116.2z"/>
								<path class="st0" d="M436.2,135.6c0.1,0.1,0.1,0.2,0,0.2c0-0.1-0.1-0.1-0.1-0.2C436.2,135.7,436.2,135.6,436.2,135.6z"/>
								<path class="st0" d="M432.6,100.3c0,0.1-1,0-1,0C431.6,100.2,432.6,100.1,432.6,100.3z"/>
								<path class="st0" d="M417.1,57.5c0-0.2-0.1-0.2,0-0.3c0.2-0.1,0.2,0.1,0.2,0.3H417.1z"/>
								<path class="st0" d="M612.4,126.5C612.5,126.5,612.4,126.5,612.4,126.5L612.4,126.5z"/>
								<path class="st0" d="M623.5,63.2c0,0.3-0.2,0.1-0.4,0.2v-0.2C623.3,63.2,623.3,63.2,623.5,63.2z"/>
								<path class="st0" d="M623.1,90.2h0.2c0,0.2,0.1,0.3,0.2,0.5C623.2,90.6,622.9,90.5,623.1,90.2z"/>
								<path class="st0" d="M573,57c-0.1-0.2,0.4-0.2,0.4,0C573.3,57,573.1,56.9,573,57z"/>
								<path class="st0" d="M572.1,57c-0.3-0.1-0.7,0-0.9-0.2C571.5,56.7,572,56.7,572.1,57z"/>
								<path class="st0" d="M570.6,56.7h0.2v0.2c-0.1,0-0.2,0-0.2,0V56.7z"/>
								<path class="st0" d="M570.4,56.7v0.1c-0.1,0-0.1,0-0.2,0C570.2,56.6,570.3,56.7,570.4,56.7z"/>
								<path class="st0" d="M567,54.3c0.1,0.1,0.1,0.1,0.1,0.2c-0.1,0-0.2,0-0.2,0C566.9,54.4,566.9,54.3,567,54.3z"/>
								<path class="st0" d="M563.3,57.5c0.1,0,0.3-0.1,0.2,0.1C563.5,57.6,563.3,57.6,563.3,57.5z"/>
								<path class="st0" d="M556.7,54.6c-0.1,0-0.1,0-0.2,0C556.5,54.4,556.7,54.4,556.7,54.6z"/>
								<path class="st0" d="M556,54.7c0-0.1,0.2-0.2,0.3-0.1C556.3,54.8,556,54.8,556,54.7z"/>
								<path class="st0" d="M555.4,55.3c-0.2,0.1-0.4,0.1-0.6,0.1C554.8,55.3,555.3,55.2,555.4,55.3z"/>
								<path class="st0" d="M552.1,54.3c-0.1-0.1,0.1-0.1,0-0.2H552c0-0.1,0.1-0.1,0.2-0.1c0,0.2,0.1,0.1,0.1,0.3
									C552.2,54.2,552.2,54.3,552.1,54.3z"/>
								<path class="st0" d="M549.9,57c0,0.3,0,0.5-0.1,0.7c0-0.4-0.1-1.1,0.1-1.5c0-0.3,0.1-0.6,0.3-0.7c-0.1,0.5-0.1,1.3-0.2,1.6
									C549.9,57.1,549.9,57,549.9,57z"/>
								<path class="st0" d="M549.9,57.8c-0.1-0.1,0-0.2,0-0.2C550,57.6,550,57.8,549.9,57.8z"/>
								<path class="st0" d="M549.8,65.4c0,0.2,0.1,0.3,0,0.6c0,0,0,0.1-0.1,0C549.6,65.9,549.7,65.6,549.8,65.4
									C549.7,65.4,549.8,65.2,549.8,65.4z"/>
								<path class="st0" d="M549.7,68.3c0-0.1,0-0.1,0-0.1c0.1,0,0.1-0.1,0.2,0C549.8,68.2,549.8,68.3,549.7,68.3z"/>
								<path class="st0" d="M549.5,73.7C549.6,74.4,549.4,75.1,549.5,73.7L549.5,73.7z"/>
								<path class="st0" d="M549.5,61.3V61C549.6,61,549.6,61.3,549.5,61.3z"/>
								<path class="st0" d="M540.9,74.4c0-0.1,0-0.1,0-0.1c0,0,0.1-0.1,0.2,0C541.1,74.3,540.9,74.3,540.9,74.4z"/>
								<path class="st0" d="M540.4,74.4c0-0.1,0.1-0.2,0.3-0.2c0,0.1,0,0.1,0,0.1C540.6,74.4,540.5,74.4,540.4,74.4z"/>
								<path class="st0" d="M536.9,63c-0.1-0.1-0.1-0.3,0-0.3C537,62.7,537,63,536.9,63z"/>
								<path class="st0" d="M536.8,72.9c0-0.1,0.1-0.1,0.1-0.2c-0.1-0.1-0.2,0-0.2-0.1c0,0,0.1,0,0.2,0c0,0.1,0,0.2,0.1,0.3
									C536.9,72.9,536.8,73,536.8,72.9z"/>
								<path class="st0" d="M610.7,99.6c0.1-0.1,0.2,0,0.3,0C611,99.7,610.7,99.7,610.7,99.6z"/>
							</g>
						</g>
						<g>
							<path class="st0" d="M488.3,68.6c0.2,0,0.5-0.2,0.4,0.2C488.5,68.8,488.4,68.6,488.3,68.6z"/>
							<path class="st0" d="M497.4,93.7c-0.3,0-0.6-0.1-0.6-0.4C497.1,93.2,497.1,93.6,497.4,93.7z"/>
							<path class="st0" d="M471,64.6c-0.1-0.1-0.1-0.3-0.1-0.5c0.4,0,0.4,0.2,0.7,0.3C471.5,64.9,471.3,64.4,471,64.6z"/>
							<path class="st0" d="M480.5,69.2c0.2,0,0.4,0.1,0.4,0.4C480.6,69.8,480.3,69.5,480.5,69.2z"/>
							<path class="st0" d="M474.8,88.4c-0.5,0.2-1.4,0.1-2.2,0.1c-0.1,0-0.1-0.1-0.1-0.2c0.3-7.1,0.1-14.8,0.3-21.8v0h2.9
								C475.3,73.9,474.6,80.3,474.8,88.4z"/>
							<path class="st0" d="M488,67.8c0.4-0.1,0.4,0.2,0.5,0.4C488.2,68.5,487.9,68,488,67.8z"/>
							<path class="st0" d="M488.1,123.3c0.4,0,0.8,0.1,0.9,0.4C488.9,123.7,488.3,123.5,488.1,123.3z"/>
							<path class="st0" d="M484.8,132.8c0-0.2,0.1-0.4,0.3-0.4C485.3,132.6,485.1,132.8,484.8,132.8z"/>
							<path class="st0" d="M488.1,123.5c-0.4,0.2-0.9-0.1-0.8-0.6c0.2-0.2,0.7-0.1,0.8,0.1C488,123.2,488,123.4,488.1,123.5z"/>
							<path class="st0" d="M484.6,134.8c0.3,0.2,0.7,0.3,0.8,0.7C484.9,135.4,484.7,135.1,484.6,134.8z"/>
							<path class="st0" d="M486.9,104.3c-0.1-0.2-0.1-0.4-0.1-0.6c0.3,0.1,0.4,0.3,0.5,0.6C487.1,104.3,487,104.3,486.9,104.3z"/>
							<path class="st0" d="M454.8,119.8c-0.3-0.2-0.5,0.2-0.6-0.1c0.1-0.1,0.2-0.1,0.3-0.2c-0.1,0-0.2,0-0.3-0.1
								c0-0.5,0.1-0.4,0-0.9c0.5,0.1,0.5,0.7,0.8,1C454.8,119.5,454.8,119.7,454.8,119.8z"/>
							<path class="st0" d="M447.4,136.5c0.3,0,0.4-0.1,0.6,0C448,136.8,447.5,136.7,447.4,136.5z"/>
							<path class="st0" d="M454.6,134c0,0.2-0.1,0.2-0.2,0.2c0-0.1-0.1-0.1-0.1-0.3C454.4,134,454.4,134.1,454.6,134z"/>
							<path class="st0" d="M453.9,133.6c-0.1,0.2-0.3,0.4-0.5,0.5C453.4,133.8,453.6,133.4,453.9,133.6z"/>
							<path class="st0" d="M447.3,118.2c0.2-0.1,0.1-0.1,0.3,0C447.7,118.5,447.3,118.5,447.3,118.2z"/>
							<path class="st0" d="M447.1,104.3c0-0.3-0.3-0.3-0.3-0.6c0.3,0,0.3,0.2,0.6,0.1c0.1,0.2-0.2,0.1-0.2,0.3
								c0.3,0,0.5,0.1,0.4,0.3C447.3,104.3,447.3,104.2,447.1,104.3z"/>
							<path class="st0" d="M490.9,123.4c-0.1-0.1-0.1-0.2-0.1-0.4c0.2-0.1,0.2,0,0.4,0.1c0,0.1-0.1,0.2-0.1,0.3H490.9z"/>
							<path class="st0" d="M457.9,106.9c0.4,0,0.4,0.4,0.4,0.8C457.9,107.7,457.8,107.2,457.9,106.9z"/>
							<path class="st0" d="M469.6,63.3c0.2,0,0.3,0,0.3,0.3C469.7,63.6,469.6,63.5,469.6,63.3z"/>
							<path class="st0" d="M448.4,136.8c0.1,0.1,0.3,0.1,0.2,0.4h-0.3C448.4,137,448.2,136.8,448.4,136.8z"/>
							<path class="st0" d="M454.7,132c-2.1-0.2-4.8,0.3-6.4-0.3c0-0.6-0.1-1.5,0-2.1c2.2-0.2,4.1,0.2,6.4,0
								C454.8,130.3,454.8,131.3,454.7,132z"/>
							<path class="st0" d="M470.7,60.6c0.2,0,0.2,0.1,0.4,0.1v0.4C470.8,61.1,470.6,60.7,470.7,60.6z"/>
							<path class="st0" d="M514.9,79.9c-0.1-0.2,0.1-0.2,0.3-0.2C515.2,79.9,515.1,79.9,514.9,79.9z"/>
							<path class="st0" d="M520.2,91.1c-0.1-0.3,0.5-0.2,0.4,0.1C520.4,91.2,520.3,91.1,520.2,91.1z"/>
							<path class="st0" d="M518.5,82c-0.1-0.3,0.6-0.3,0.6-0.1C518.9,82,518.7,82.1,518.5,82z"/>
							<path class="st0" d="M521.5,80.8c-0.1-0.1-0.2-0.2-0.2-0.4h0.3C521.7,80.5,521.7,80.8,521.5,80.8z"/>
							<path class="st0" d="M521,62.1c0.1-0.1,0.1,0,0.3,0c0,0.1,0,0.2,0.1,0.3C521.3,62.6,521,62.4,521,62.1z"/>
							<path class="st0" d="M517.9,77.6c0.1-0.2,0.5-0.1,0.5,0.1C518.2,77.8,517.9,77.9,517.9,77.6z"/>
							<path class="st0" d="M446,136.6c-0.1-0.3,0.4-0.2,0.3,0H446z"/>
							<path class="st0" d="M535.3,92.2c0,0.2-0.1,0.2-0.1,0.4c-0.3,0-0.3-0.2-0.3-0.4C535,92,535.1,92.2,535.3,92.2z"/>
							<path class="st0" d="M521.4,80.9c0.3,0.1,0.6,0.3,0.7,0.7C521.7,81.5,521.3,81.1,521.4,80.9z"/>
							<path class="st0" d="M532,83.7c-0.2,0.1-0.5,0-0.5-0.2C531.7,83.3,532.1,83.3,532,83.7z"/>
							<path class="st0" d="M531.3,78.7c-0.3,0-0.4-0.1-0.4-0.3C531.1,78.3,531.3,78.4,531.3,78.7z"/>
							<path class="st0" d="M491.7,117.4c0-0.3,0.1-0.3,0.4-0.3C492.1,117.3,491.8,117.2,491.7,117.4z"/>
							<path class="st0" d="M514.2,81.1c0.1-0.1,0.6-0.1,0.6,0.1c-0.2,0.1-0.3,0.2-0.6,0.2C514.2,81.3,514.1,81.3,514.2,81.1z"/>
							<path class="st0" d="M536,92.7c-0.2,0-0.3,0-0.4-0.1C535.8,92.4,536,92.4,536,92.7z"/>
							<path class="st0" d="M502.4,117.3c0.3,0,0.4,0.1,0.4,0.4C502.6,117.8,502.3,117.6,502.4,117.3z"/>
							<path class="st0" d="M499.4,111c-0.1-0.1-0.1-0.2-0.1-0.4C499.7,110.6,499.7,111,499.4,111z"/>
							<path class="st0" d="M503.7,126.2c0.1,0,0.1-0.2,0.3-0.1c0,0.1,0.1,0.1,0.1,0.1C504.2,126.4,503.7,126.4,503.7,126.2z"/>
							<path class="st0" d="M497.3,119L497.3,119c0,1.1-0.4,2.1-0.4,3.2c-0.2,2.9,0.3,5.8,0.4,8.9c-0.8,0-2.3,0.1-3.3-0.1
								c0.4-7.6-0.2-15.7,0.2-23.3c1.3,0.1,2.4,0,3.7,0.1c-0.1,3.5-0.8,6.9-0.7,10.2C497.1,118.3,497.3,118.6,497.3,119z"/>
							<path class="st0" d="M492.2,126c-0.1-0.1-0.2-0.1-0.2-0.3C492.2,125.6,492.4,125.9,492.2,126z"/>
							<path class="st0" d="M513.8,80.1c0,0.1-0.3,0-0.3,0.1c0,0.1,0,0.2-0.1,0.2c-0.1-0.2-0.1-0.3-0.1-0.5
								C513.5,80.1,513.6,79.9,513.8,80.1z"/>
							<path class="st0" d="M513.7,80.4c0.2-0.1,0.1-0.5,0.4-0.4c0.2,0.1,0.3,0.3,0.4,0.6C514.2,80.9,513.9,80.6,513.7,80.4z"/>
							<path class="st0" d="M513.3,79.5c0-0.3,0.7-0.5,0.6,0C513.7,79.6,513.6,79.5,513.3,79.5z"/>
							<path class="st0" d="M505.5,82c0.3,0.1,0.6,0.2,0.6,0.7C505.6,82.8,505.6,82.3,505.5,82z"/>
							<path class="st0" d="M511.1,79.1c-0.2,0-0.3,0-0.3-0.1c0.2,0,0.1-0.2,0.1-0.4c0.2,0,0.3,0.1,0.4,0.3
								C511.3,78.9,511,78.8,511.1,79.1z"/>
							<path class="st0" d="M512.4,82.8c0.2-0.2,0.6-0.1,0.5,0.3C512.6,83.1,512.4,83.1,512.4,82.8z"/>
							<path class="st0" d="M523.6,120.4c-0.2,0.2-0.2-0.1-0.5,0C523,120,523.5,120.2,523.6,120.4z"/>
							<path class="st0" d="M476.2,118.7v-0.3h0.3C476.6,118.6,476.5,118.7,476.2,118.7z"/>
							<path class="st0" d="M518.5,136.6h-0.2v-0.3C518.4,136.3,518.5,136.4,518.5,136.6z"/>
							<path class="st0" d="M518.3,121.3H518c0-0.1,0-0.2-0.1-0.2C518.2,121.1,518.3,121.1,518.3,121.3z"/>
							<path class="st0" d="M518.2,120c0.3,0.3,0.7-0.2,0.7,0.4C518.7,120.6,518.4,120.2,518.2,120z"/>
							<path class="st0" d="M521.8,121.5c-0.1,0.4-0.8,0.1-0.9-0.2C521.4,121,521.4,121.6,521.8,121.5z"/>
							<path class="st0" d="M520,103.1c-0.1,0.1-0.3,0.1-0.4-0.1C519.7,102.9,520,102.9,520,103.1z"/>
							<path class="st0" d="M425,76.2c0-0.2,0.1-0.3,0.3-0.4C425.3,76,425.2,76.2,425,76.2z"/>
							<path class="st0" d="M522.4,119c0-0.1-0.1-0.2-0.1-0.3h0.3C522.5,118.9,522.5,119,522.4,119z"/>
							<path class="st0" d="M424.7,82.4c-0.1-0.2-0.2-0.2-0.1-0.4c0.3-0.1,0.3,0.2,0.3,0.4H424.7z"/>
							<path class="st0" d="M423.4,73.6c0.3,0.2,0.4-0.3,0.6,0.1c-0.3,0-0.3,0.2-0.6,0.3C423.5,73.8,423.3,73.8,423.4,73.6z"/>
							<path class="st0" d="M469.2,133.8c-0.1,0-0.1,0.3-0.2,0.3c-0.2-0.2-0.1-0.2-0.1-0.4C469.1,133.6,469.2,133.6,469.2,133.8z"/>
							<path class="st0" d="M423,74.9c-0.1-0.2,0.1-0.3-0.3-0.3C422.6,73.8,423.5,74.6,423,74.9z"/>
							<path class="st0" d="M531.5,106.5c-0.3,0-0.4-0.1-0.4-0.4c0.1,0,0.2,0,0.2-0.1C531.4,106.2,531.6,106.2,531.5,106.5z"/>
							<path class="st0" d="M533.8,102.8v0.3c-0.2,0-0.3-0.1-0.3-0.3H533.8z"/>
							<path class="st0" d="M431,92v0.2c-0.1,0-0.2,0-0.3-0.1C430.7,91.9,430.9,92,431,92z"/>
							<path class="st0" d="M522.7,121.6c-0.3,0-0.5-0.1-0.4-0.4C522.5,121.2,522.6,121.4,522.7,121.6z"/>
							<path class="st0" d="M533.9,121.4h-0.3V121C533.9,121,534,121.1,533.9,121.4z"/>
							<path class="st0" d="M530.9,113.8c0.1,0.3-0.3,0-0.2,0.3c0.1,0,0.3,0,0.3,0.1c-0.2,0.1-0.3,0.1-0.3,0.4
								c-0.3,0-0.6,0.1-0.7-0.1C530.2,114,530.5,113.8,530.9,113.8z"/>
							<path class="st0" d="M533.9,114c0,0.2,0.2,0.3-0.1,0.4c0.1-0.2-0.3-0.1-0.2-0.4H533.9z"/>
							<path class="st0" d="M523.4,119.1c0.2,0,0.7-0.2,0.9-0.3c-0.1-3.6,0.2-7.8,0.1-11.1c1.1,0.2,2.8-0.1,3.9,0.1v0
								c0.2,1.6-0.2,3.3-0.2,5c0,0.4,0.1,0.7,0.1,1.1c0,0.6-0.4,1.2-0.5,1.7c-0.1,0.6,0,1.2,0,1.7c-0.4,4.2-0.3,8.9-0.4,13.2
								c-1-0.1-2.5,0.3-3.2-0.1c0.5-3.6,0-7,0.1-10.9C524,119.4,523.6,119.2,523.4,119.1z"/>
							<path class="st0" d="M521.6,120.5c0-0.1-0.1-0.1-0.1-0.3c0.1,0,0.2,0.1,0.3,0.1C521.8,120.5,521.8,120.5,521.6,120.5z"/>
							<path class="st0" d="M531.3,77.7v0.2c-0.1,0-0.2,0-0.3-0.1C530.9,77.7,531.2,77.7,531.3,77.7z"/>
							<path class="st0" d="M523.3,118.6c0-0.1,0-0.2,0.1-0.2c0.1,0,0.2,0.1,0.3,0.1C523.7,118.7,523.4,118.7,523.3,118.6z"/>
							<path class="st0" d="M523.7,107.5c0,0.1,0.3,0,0.3,0.2C523.9,107.9,523.5,107.6,523.7,107.5z"/>
							<path class="st0" d="M447.5,137.5c-0.2,0-0.5,0.3-0.7,0.1c0.2,0,0.2-0.1,0.2-0.2c-0.1,0-0.1-0.1-0.1-0.1
								c-0.1,0.1-0.4,0.4-0.6,0.1c0-0.1,0.3,0,0.3-0.1c-0.1-0.1-0.5,0-0.6,0.1c-0.1,0.3,0.4,0.1,0.2,0.5c-0.5,0.1-0.4-0.3-0.5-0.6
								c0.4-0.5,0.9-0.4,1.4-0.5C447.4,137.1,447.5,137,447.5,137.5z"/>
							<path class="st0" d="M446.8,137.8v0.2c-0.2,0-0.3,0-0.3-0.1C446.6,137.8,446.6,137.7,446.8,137.8z"/>
							<path class="st0" d="M444.4,69.4c0.1-0.2-0.1-0.3-0.1-0.5c0.2,0,0.4,0,0.4,0.3C444.8,69.4,444.5,69.3,444.4,69.4z"/>
							<path class="st0" d="M441.2,123.1c0.1-0.2-0.1-0.3,0-0.4c0.3,0,0.4,0.1,0.7,0c0,0.3,0.5,0.8,0.1,1.1
								C441.9,123.5,441.7,123.1,441.2,123.1z"/>
							<path class="st0" d="M447.6,72.6c0.2-0.1,0.5-0.1,0.6,0.1C448.2,72.8,447.7,72.8,447.6,72.6z"/>
							<path class="st0" d="M443.5,72.1c-0.3,0-0.6,0-0.6-0.3c0.4-0.2,1.1,0.2,1.3-0.2c-0.1-0.1-0.1-0.3-0.2-0.5
								c0-0.1,0.4,0,0.3-0.2c-0.1-0.3-0.4-0.4-0.5-0.6c0.2-0.1,0.6,0,0.7,0.2c-0.1,0.4-0.2,1.4,0.3,1.6
								C444.7,72.6,443.6,72.8,443.5,72.1z"/>
							<path class="st0" d="M447.7,73.5c-0.2,0.1-0.5,0.5-0.6,0.1C447.2,73.4,447.6,73.1,447.7,73.5z"/>
							<path class="st0" d="M461.4,131.5c-0.2,0-0.2,0.1-0.4,0C460.9,131.3,461.4,131.4,461.4,131.5z"/>
							<path class="st0" d="M442.6,135.7v-0.4c0.3,0,0.7,0.6,0.5,0.6C443,135.8,442.8,135.8,442.6,135.7z"/>
							<path class="st0" d="M445.6,104.6c-0.1-0.1-0.1-0.2-0.1-0.4c0.2,0,0.3,0,0.4,0.1C445.8,104.4,445.8,104.6,445.6,104.6z"/>
							<path class="st0" d="M446.8,114.6c0.1,0,0.1-0.2,0.3-0.1C447.1,114.8,446.8,114.8,446.8,114.6z"/>
							<path class="st0" d="M444.9,106.9c0,0.4,0.1,0.4,0.1,0.9h-0.2C444.8,107.5,444.5,107,444.9,106.9z"/>
							<path class="st0" d="M443.3,116c-0.1-0.1,0-0.4,0.2-0.4C443.6,115.7,443.6,116.1,443.3,116z"/>
							<path class="st0" d="M443.4,72.8c-0.1,0.1-0.2,0.2-0.4,0.1c0-0.2,0-0.3,0.1-0.4c-0.3,0-0.3-0.4-0.5-0.5c0,0,0.1,0,0.1-0.1
								c0.1,0,0.1-0.1,0.1-0.1c0.1,0.4,0.5,0.4,0.7,0.6C443.2,72.4,443.3,72.8,443.4,72.8z"/>
							<path class="st0" d="M437.4,72.7c0,0.3-0.7,0.1-0.7-0.1C437.1,72.5,437.1,72.8,437.4,72.7z"/>
							<path class="st0" d="M455.5,76.8c0.4-0.1,0.3,0.3,0.7,0.2c0-0.2-0.2-0.1-0.2-0.4h0c0.5,0,0.2,0.4,0.3,0.9
								c-0.8,0.1-1.2-0.1-1.5-0.5c0.2-0.1,0.2-0.4,0.4-0.5c0-0.3-0.5,0-0.4-0.3C455,76.2,455.9,76.2,455.5,76.8z"/>
							<path class="st0" d="M437.2,89.9c0-0.4-0.1-0.6,0.4-0.6c0,0.3,0.4,0.4,0.3,0.6C437.5,90,437.3,89.9,437.2,89.9z"/>
							<path class="st0" d="M438.8,65.5c0.1,0.3-0.1,0.4-0.4,0.3C438.4,65.6,438.7,65.7,438.8,65.5z"/>
							<path class="st0" d="M436.9,71.5c0.3,0.1,0.7,0.1,0.6,0.6c-0.1,0-0.2,0.1-0.3,0.1C437.1,71.9,437.1,71.7,436.9,71.5z"/>
							<path class="st0" d="M454.3,76.5c0,0.1,0.2,0.2,0.1,0.4c-0.3-0.2-1,0.1-0.8-0.4C454,76.4,454,76.7,454.3,76.5z"/>
							<path class="st0" d="M449.8,80.8c-0.1-0.1-0.1-0.2-0.1-0.4C450.1,80.3,450.1,80.8,449.8,80.8z"/>
							<path class="st0" d="M451,79.7c0.1,0.2,0.1,0.6-0.1,0.7c-0.1-0.4-0.4-0.3-0.7-0.2C450,79.6,450.5,79.7,451,79.7z"/>
							<path class="st0" d="M453,74.9c0.2-0.1,0.3,0.1,0.4,0.1c0,0.3,0.1,0.3-0.1,0.5c0.3,0.1,0.5,0.2,0.6,0.4
								c0,0.1-0.1,0.1-0.1,0.2c-0.4,0.1-0.6-0.1-0.8-0.3C453,75.4,453.2,75.2,453,74.9z"/>
							<path class="st0" d="M428,90.3c0-0.9,0.1-1.7,0-2.6c1.9,0.2,3.8,0,5.8,0.1c-0.1,0.9-0.1,1.7,0,2.5
								C431.7,90.4,430.1,90.3,428,90.3z"/>
							<path class="st0" d="M451.4,75.3c0.2,0,0.4,0.1,0.4,0.4c-0.2,0.2-0.5,0.1-0.5-0.2C451.3,75.5,451.3,75.4,451.4,75.3z"/>
							<path class="st0" d="M438.3,65.3c0,0.2-0.1,0.3-0.3,0.3C438,65.3,438.1,65.2,438.3,65.3z"/>
							<path class="st0" d="M583.7,76.8c0.3-0.1,0.5-0.1,0.3-0.4c0.3,0,0.4,0.2,0.5,0.4C584.2,76.9,583.8,77.2,583.7,76.8z"/>
							<path class="st0" d="M583.5,76.1c0.1,0,0.1-0.3,0.2-0.3C583.9,76,583.5,76.2,583.5,76.1z"/>
							<path class="st0" d="M584.1,68c-0.1-0.1-0.1-0.6,0.1-0.5C584.2,67.6,584.4,68,584.1,68z"/>
							<path class="st0" d="M582.9,75.9c-0.1-0.1-0.2-0.1-0.2-0.3c0.1-0.2,0.4-0.3,0.6-0.6c-0.4-0.3-0.7-0.2-1.1-0.6
								c0.7-0.1,1.1,0.4,1.5,0C583.9,75.2,583.1,75.3,582.9,75.9z"/>
							<path class="st0" d="M582.7,70.1c0.2,0,0.3,0,0.4,0.1C582.9,70.4,582.6,70.4,582.7,70.1z"/>
							<path class="st0" d="M581.7,71.1c0.2,0,0.3,0.1,0.4,0.3h-0.4V71.1z"/>
							<path class="st0" d="M579.6,76.4c0.4,0,0.4,0.2,0.7,0.1c0,0.1,0.2,0.2,0.1,0.4C580.2,76.7,579.5,77,579.6,76.4z"/>
							<path class="st0" d="M583.6,109.8c0,0.2,0.3,0.1,0.2,0.4C583.6,110.2,583.4,109.9,583.6,109.8z"/>
							<path class="st0" d="M592.9,79.6c0-0.5-0.7-0.6-1-0.6c0-0.2-0.3-0.2-0.1-0.4c0.5,0,0.5,0.5,1.3,0.4c-0.2,0.4,0,0.2,0.1,0.6
								H592.9z"/>
							<path class="st0" d="M583.5,136.5h-0.2v-0.3C583.5,136.2,583.5,136.3,583.5,136.5z"/>
							<path class="st0" d="M597.1,63.3c0.2,0,0.3,0,0.3,0.3C597.2,63.7,597.1,63.6,597.1,63.3z"/>
							<path class="st0" d="M582.8,103c-0.1-0.3,0.5-0.2,0.4,0.1C583,103.1,582.9,103.1,582.8,103z"/>
							<path class="st0" d="M579.7,89c0,0.2,0,0.3-0.2,0.3C579.4,89.1,579.6,89,579.7,89z"/>
							<path class="st0" d="M569.7,72.6c0.1-0.6-0.7-0.3-0.8-0.7c0.4-0.1,0.5,0,0.9,0c0,0.3,0,0.5,0.1,0.7H569.7z"/>
							<path class="st0" d="M573.7,73.5c-0.2,0.1-0.5,0.5-0.6,0.1C573.2,73.4,573.6,73.1,573.7,73.5z"/>
							<path class="st0" d="M575.8,73.7c-0.4,0.3,0.1,0.5,0.1,0.8c-0.2-0.1-0.1-0.1-0.3,0v-0.3c-0.4,0-0.7-0.1-0.8-0.6
								c0.3,0,0.3-0.1,0.5-0.2C575.2,73.8,575.7,73.5,575.8,73.7z"/>
							<path class="st0" d="M570.6,122c-0.1,0.1-0.2,0.3-0.4,0.2C570.1,121.9,570.5,121.8,570.6,122z"/>
							<path class="st0" d="M566.4,121.1c-0.2-2.1-0.8-4.4-1.1-6.6c1.3-0.2,2.4-0.2,3.8-0.1c-0.7,2.8-1.3,6.2-2.1,9.2
								C566.8,122.6,566.9,121.7,566.4,121.1z"/>
							<path class="st0" d="M573.6,72.6c0.2-0.1,0.5-0.1,0.6,0.1C574.2,72.8,573.7,72.8,573.6,72.6z"/>
							<path class="st0" d="M575.8,80.8c-0.1-0.1-0.1-0.2-0.1-0.4C576.1,80.3,576.1,80.9,575.8,80.8z"/>
							<path class="st0" d="M583.5,121.9c0-0.3,0.3-0.4,0.7-0.4C584.2,121.9,583.8,122.1,583.5,121.9z"/>
							<path class="st0" d="M582.8,77.5c0.2,0.2,0.2,0.5,0.2,0.7c-0.3,0.1-0.6-0.1-0.9,0.1c0.1-0.3-0.2-0.2-0.1-0.4
								C582.5,78,582.3,77.4,582.8,77.5z"/>
							<path class="st0" d="M583.2,81.9c-0.4,0-0.4-0.4-0.6-0.6C582.9,81.3,583.2,81.5,583.2,81.9z"/>
							<path class="st0" d="M576,72.6c0.1,0.4-0.2,0.5-0.4,0.6c-0.2-0.3-0.3-0.7-0.8-0.7c0.2-0.2-0.1-0.5-0.1-0.7
								c0-0.2,0.2-0.2,0.4-0.1c0,0.1-0.1,0.4,0.1,0.4h0.5c0,0.5,0.9,0.4,0.8,0.8C576.3,72.7,576.2,72.6,576,72.6z"/>
							<path class="st0" d="M578.9,70.1c0-0.1-0.1-0.2-0.1-0.3c0.1-0.1,0.4-0.1,0.4,0.1C579.2,70,579,70,578.9,70.1z"/>
							<path class="st0" d="M529.5,87.1c-0.2,0.1-0.2-0.1-0.3-0.1C529.1,86.7,529.7,86.8,529.5,87.1z"/>
							<path class="st0" d="M600.2,77c0.5-0.3,0.7,0.4,0.8,0.7C600.4,77.6,600.6,77.3,600.2,77z"/>
							<path class="st0" d="M601.3,79.3c-0.2,0-0.3-0.1-0.3-0.3C601.2,78.9,601.3,79,601.3,79.3z"/>
							<path class="st0" d="M600.7,71.1c0.2,0,0.3,0.2,0.4,0.4C600.8,71.5,600.8,71.3,600.7,71.1z"/>
							<path class="st0" d="M600.4,70.7c0-0.2-0.2-0.1-0.2-0.4C600.5,70.3,600.7,70.7,600.4,70.7z"/>
							<path class="st0" d="M601.6,77.4c-0.1-0.1-0.3-0.1-0.3-0.4C601.5,77,601.8,77.3,601.6,77.4z"/>
							<path class="st0" d="M600.2,71.2c0.3,0,0.5,0.2,0.5,0.5C600.4,71.6,600.3,71.5,600.2,71.2z"/>
							<path class="st0" d="M601.2,70.2c0-0.3,0.5-0.2,0.4,0.1C601.4,70.4,601.4,70.2,601.2,70.2z"/>
							<path class="st0" d="M629.9,95.2L629.9,95.2c0,0.3-0.5,0.2-0.7,0.2c0,0.1,0,0.1-0.1,0.4c0.2,0.1,0.1,0.1,0.2,0.3
								c0.3,0,0.5,0,0.7,0v0c0,0-0.1,0.1-0.1,0.1c0,0,0,0,0,0c-0.1,0.3-0.4,0.1-0.7,0.1c0,0.1-0.1,0.1-0.1,0.2c0,0,0,0.1,0,0.2
								c0,0,0,0-0.1,0c0,0,0,0.1,0,0.1c-0.2,0.1-0.2-0.1-0.3-0.1c0,0.1,0,0.1,0.1,0.1c0,0-0.1,0-0.1,0c0,0,0,0.1,0.1,0.1
								c-0.9,0.1-1.6,0.3-2.4,0.3v0c0,0,0,0,0,0v0.1c-1.2,0.2-2.4,0.2-3.6,0.4c0,0,0,0,0,0.1c0,0.1-0.1,0.2-0.2,0.2
								c-0.2,0-0.2-0.1-0.2-0.1c-0.9,0.2-1.9,0.3-2.8,0.4c0,0,0,0,0,0c0,0.1,0,0.1-0.1,0.1c0,0,0,0.1,0,0.1c0,0,0.1,0,0.1,0
								c0,0,0-0.1,0-0.1c0-0.1,0-0.1,0.1-0.1c0.1,0.1,0.4,0.2,0.7,0.1c0,0,0,0,0,0c0,0,0.1,0,0.1,0c0,0-0.1,0,0-0.1
								c0.2-0.1,0.4,0,0.6,0.1c0,0,0,0,0-0.1c0,0,0.1,0,0.1,0c0,0,0,0,0-0.1c0.2-0.1,0.5,0.2,0.7,0.2c-0.1-0.1-0.2,0-0.2-0.1
								c0.1,0,0.1,0,0.2,0c0,0-0.1,0-0.1-0.1c0.5,0,0.9-0.1,1.3,0c-0.1,0-0.2,0-0.3,0.1c0.1,0,0.2,0,0.3,0c-0.2,0.1-0.4,0.1-0.6,0.2
								c0,0.1,0,0.1,0,0.2c0,0.1-0.1,0.2-0.1,0.2c0,0.1,0.2,0.1,0.1,0.2c0,0,0,0,0,0c0,0,0,0.1,0,0.1c-1.1,0-2.1,0.2-3.1,0.1
								c-1.9,0.1-5.6,0.1-7.6,0.2c-0.9,0.1-1.9-0.1-2.8,0c-0.6,0.1-1.2,0.1-1.7,0.1c-1.3,0.1-2.6,0.1-3.9,0h-1.8c0,0,0,0,0,0
								c-0.1,0.3,0.2,0.3,0.2,0.5c-0.3,0.3,0.1,0.5,0.2,0.7c-0.2,0-0.1,0.2-0.2,0.3c-0.1,0-0.1-0.3-0.3-0.2c0,0.2,0,0.2-0.1,0.4
								c0.2,0.4,0.4,0.8,0.6,1.2c0,0,0,0,0,0c0.1,0.3,0.3,0.6,0.4,0.9c0,0,0,0,0,0c0,0,0,0.1,0,0.1c0,0,0.1-0.1,0.2,0
								c0,0.2,0,0.3,0.1,0.4c0,0,0,0.1,0.1,0.1c0,0,0,0,0,0.1c0.1,0.1,0.1,0.3,0.1,0.4c0,0,0,0,0,0c0.1-0.1,0.3-0.1,0.4-0.3
								c-0.1-0.1-0.1-0.3-0.1-0.5c0.1,0,0.4,0,0.4,0c0,0.3-0.2,0.3-0.2,0.5c-0.1,0.3,0.2,0.2,0.2,0.5c-0.2,0-0.2,0.2-0.3,0.2
								c-0.1-0.1,0-0.3-0.1-0.3c-0.1,0.1-0.2,0.3-0.3,0.4c-0.1,0.3,0.1,0.8,0.1,1.2c0,0.3-0.2,0.6-0.2,1.1c0,0.4,0,0.8,0,1.1
								c0,0.5,0,1.1,0.2,1.5c0.1-1.3,0.2-1.7,0.2-3h0.2c-0.1,0.5-0.1,1.3-0.2,1.9h0.2c0,0.3,0,0.4-0.2,0.4c0,0.1,0.1-0.1,0.2,0
								c0,0.2-0.3,0.1-0.2,0.3c0.1,0.1,0.2-0.1,0.2,0c0.1,0.4-0.3,0.7-0.2,1c0.1,0,0-0.3,0.1-0.2c-0.1,0.4-0.1,0.6,0,0.9
								c-0.1,0-0.2,0-0.2,0.1c0,1.4-0.3,3.6-0.3,5.9c0,0.1,0.2,0,0.2,0.2c0.1,0.2-0.1,0.3-0.2,0.5c0.1,0.1,0.2,0,0.2,0.1v0.3
								c0,0.1-0.1-0.1-0.2,0c0,0.2,0.1,0.2,0.1,0.3c-0.1,0.2,0,0.3,0,0.6c0,0.1-0.1,0.1-0.1,0.3c0.2,0.4,0,1,0,1.6
								c0,0.7,0.2,1.4-0.1,1.8c0.1,0,0.2,0,0.2,0.2c-0.1,0.1-0.1,0.2-0.1,0.4c0,0.1,0.1,0.1,0.2,0.1c-0.1,0.2-0.1,0.4,0,0.7
								c0.1,0,0.1-0.1,0.2-0.1c0,0.1,0.1,0.2,0.1,0.3c-0.1,0.1-0.1-0.2-0.3-0.1c0,0.4,0.1,0.7,0.2,1.1c-0.1,0-0.1,0-0.2,0
								c0,0.4-0.1,1.1,0.4,1.4c-0.1,0.2-0.3,0.2-0.3,0.4c0.2,0.1,0.1,0.3,0.1,0.5c0,0,0.1,0,0.1,0.1c0-0.1,0.3-0.3,0.3-0.1
								c-0.1,0-0.2,0.1-0.3,0.1c0,0,0,0,0,0c-0.1,0-0.2,0.1-0.2,0.2c0,0,0,0,0,0c0,0.1,0,0.2,0.1,0.4c-0.2,0.1-0.2-0.2-0.2-0.1
								c0,0.1,0,0.2,0,0.2c0.1,0,0-0.1,0.1-0.1c0,0.2,0.3,0.5,0.2,0.6c-0.2-0.1-0.2-0.2-0.2-0.3c0,0,0,0,0,0c0,0,0-0.1,0-0.1
								c-0.1,0.2,0,0.3,0.1,0.5c0,0-0.1,0-0.1,0c0,0.6,0.5,0.6,1,0.7c0-0.1-0.1-0.1,0-0.2c0.1,0,0.1-0.1,0.2,0c0,0.1,0,0.2,0,0.3
								c0.1,0,0.1,0,0.2,0.1c0,0.1,0.1,0.4-0.1,0.4c-0.2,0-0.1-0.4-0.4-0.4c0,0.6,0,1.1-0.1,1.6c0,0,0.1-0.1,0.1-0.1
								c0.2,0,0.3,0,0.4,0.1c-0.1,0.1,0,0.3,0,0.5h-0.2c0-0.3-0.3-0.3-0.3-0.5c0,0.2-0.1,0.3-0.1,0.5h0.2c0,0.3,0.3,0.3,0.3,0.6
								c-0.2,0-0.1-0.2-0.2-0.2c0,0.2-0.3,0-0.3,0c0.3,0.3,0.4,1.2-0.1,1.4c0.1-0.3,0.3-0.7,0.2-0.9c-0.2,0.2-0.3,0.3-0.3,0.6
								c-0.3,0-0.2,0.2-0.2,0.5c-0.3-0.1-0.3,0.1-0.4,0.2c-0.1-0.2,0.1-0.4,0.2-0.4c0,0.1,0,0.1,0.1,0.1c-0.1-0.2,0.2-0.5,0-0.6
								c-0.2,0.2-0.3,0.3-0.3,0.6c-0.3,0-0.2-0.3-0.4-0.4c0,0.3-0.2,0.3-0.3,0.5c-0.3,0.5-0.5,1.3-0.8,1.8c0,0.1,0.1,0.1,0.1,0.2
								c-0.5,0.5-0.8,1.3-1.3,1.8c0.1,0,0.2,0,0.2,0.2c-0.2,0-0.2-0.1-0.4,0c-0.2,0.1-0.4,0.4-0.1,0.5c-0.3,0.1-0.7,0.1-1,0.2
								c0.1,0.2,0.5-0.1,0.6,0c-0.3,0.2-0.7,0.3-1,0.3c0,0-0.1,0.1-0.1,0.2h0.1c0,0-0.1,0-0.1,0c0,0.1,0,0.2,0,0.2
								c-0.1,0-0.2-0.2-0.3-0.3h0.2c-0.2-0.1-0.5-0.4-0.6-0.1c-0.2-0.1-0.4,0-0.4,0.1c-0.1,0-0.2-0.1-0.4-0.1c0,0.1-0.1,0.1-0.1,0.2
								c0.2,0,0.5-0.1,0.6,0.1c-0.2,0.1-0.5,0.2-0.7,0c0,0.1,0.1,0.1,0,0.2c-0.2,0-0.4,0-0.4,0.2h0.5c-0.1,0.1-0.4,0.2-0.6,0.2
								c0,0.1-0.1,0.1-0.1,0.2c0,0-0.1,0-0.1,0c0,0,0,0.1,0,0.1c-0.1,0-0.2,0-0.3,0c0,0-0.1,0-0.1,0c0,0,0,0,0,0c-0.5,0-1,0-1.4,0.2
								c-0.6-0.1-1.2,0-1.8-0.1c-0.6-0.1-1.2-0.2-1.8-0.2c-0.2,0-0.5,0-0.7,0c-0.1,0-0.1,0.1-0.2,0.1c-1,0.1-2,0-3,0.2
								c1.4-0.1,3,0.2,4.1-0.1c-0.1,0.2-0.5,0.3-0.8,0.3c-1.6,0.2-3.3,0.1-4.8,0c-0.1-0.1,0.1-0.2,0-0.2c-0.8,0.1-2.1-0.2-3,0
								c0-0.2,0.3-0.1,0.2-0.3c-0.2,0-0.6,0.1-0.7-0.2c-0.2,0.1-0.4,0.4-0.7,0.5c-0.1-0.1,0-0.1,0-0.2c-0.1,0-0.1,0-0.2,0
								c0-0.2-0.1-0.2,0-0.4c-0.4,0.1-1,0.4-1.2,0c0,0,0,0,0,0c-0.2,0.1-0.5,0.3-0.8,0.3c-0.2,0.2-0.2,0.8-0.6,0.7
								c0-0.3-0.2-0.6-0.5-0.7c0,0.1,0.1,0.3,0,0.4c-0.2,0,0-0.3-0.1-0.3c-0.1,0-0.1,0.2-0.1,0.4c-0.2,0-0.1-0.2-0.1-0.3
								c-0.1,0-0.1-0.1-0.2-0.1c0-0.2,0-0.3,0-0.4c-1.8-0.2-3.8-0.7-5.2,0.1c0,0,0,0-0.1,0c0,0.1,0,0.1,0.1,0.2
								c-0.3,0.3-0.8,0.4-1.5,0.3c-0.9,0-1.9-0.1-2.2-0.2c-0.9,0-1.2-0.6-2.2-0.4c-0.2-0.3-0.9-0.2-1.2-0.4
								c-0.4,0.1-0.7-0.3-1.3-0.2c-0.1-0.1-0.4-0.2-0.6-0.3c0,0,0,0-0.1,0.1c-2.8,2.1-7,1.4-10.4,1.7c-0.3,0.4-0.9,0.5-1.4,0.3
								c0,0.1,0,0.1,0,0.1h-0.2c0-0.1-0.1-0.2-0.1-0.3c-0.1,0-0.2-0.1-0.2-0.2c-1.2,0-2.2,0.1-3.2,0.2c0.1,0.1,0.3,0,0.4,0.1
								c-0.4,0.1-0.8-0.4-1.1,0c0.1,0.1,0.4,0,0.6,0c-0.3,0.3-0.8,0-1.2,0c-0.1,0-0.1,0.1-0.1,0.2c-1.3-0.2-2.9-0.1-4.5-0.2
								c-0.1-0.1,0.1-0.2-0.1-0.2c-0.1,0,0,0.1-0.1,0.2c-0.6,0.1-1-0.1-1.4-0.2c-0.2,0.1-0.3,0-0.4,0c-0.3,0-0.6,0.1-0.8,0.1
								c-0.1,0-0.3-0.1-0.4-0.1c-4.1,0-8.4,0.2-12.6,0c-1.5-0.1-3.6-0.2-4.8,0c-1.7-0.2-4.9-0.1-6.7-0.1c-0.5-0.2-0.9-0.6-1.4-0.9
								c-0.7,0-1.4,0-2.1-0.1c-4.8-0.3-8.8,3-13.6,2c-0.3-0.1-0.6-0.2-0.7-0.3c0,0-0.1,0-0.1,0c-0.4,0-0.6,0.2-0.9,0.2
								c-0.1,0-0.2-0.1-0.2,0c-0.3,0-0.7,0.1-1.2,0.1c-0.8,0.1-1.7,0.2-2.1,0.2c-1-0.2-2,0-3.1,0.1c-0.6,0-1.2-0.1-1.8-0.1
								c-0.8,0-1.6,0.1-2.2,0c-0.1,0-0.2-0.1-0.3-0.1c-0.7-0.1-1.5,0.1-2.1-0.3c-0.2,0.3-0.4-0.1-0.7,0c-0.1-0.1,0-0.2-0.1-0.2
								c-0.7,0.1-0.9-0.3-1.4-0.4c0.1-0.2-0.1-0.1-0.2-0.1c-0.2-0.4-0.9-0.1-1.4,0.2c-0.4-0.4-1.3,0.1-1.8-0.1
								c-0.6,0.3-2.2,0.1-2.9,0c-1.1,0.2-2,0-3.1,0.1c0-0.1,0.1-0.1,0-0.2c-0.5,0-1.2-0.2-1.5,0c0-0.1-0.1-0.1-0.1-0.2
								c-0.5-0.2-1.4-0.1-1.8-0.3c-1.1,0-1.8-0.3-2.6-0.5c-1.5,0-2.6,0.3-3.8,0.4c0,0.1,0.3,0,0.3,0.1c-0.8,0.1-1.8,0.3-2.5,0.2
								c-0.6,0.1-1.1,0-1.6,0.1c-0.5,0.1-1.1,0-1.6,0.1c-2.4,0.3-5,0.8-7.4,0.9c-0.5,0-1,0.1-1.4-0.1c0-0.2,0.1-0.4,0-0.6
								c-0.1-0.1-0.5,0-0.4-0.1c0.1,0,0.3,0,0.3-0.1c-0.8-0.6-2.3,0.3-3-0.2c-0.7-0.1-1.7-0.1-2.2-0.3c-0.1,0-0.1,0.1-0.2,0.1
								c0,0-0.1,0-0.2,0c0,0,0,0,0,0c0-0.1,0-0.2-0.1-0.1c-0.1,0.1,0,0.1,0.1,0.2c-0.1,0.1-0.3,0.1-0.4,0.1
								c-0.3-0.2,0.1-0.4-0.1-0.6c0,0,0,0.1,0,0.1c-0.1,0.1-0.1,0-0.3,0c-0.1-0.3-0.2-0.4-0.2-0.6c-0.1,0,0,0.2-0.2,0.1
								c-0.2-0.1-0.1-0.3-0.2-0.4c-0.1-0.1-0.1,0.2-0.4,0.1c-0.1-0.3,0-0.6,0-0.9c-0.1,0.1-0.3,0.1-0.2-0.1c0.1-0.1,0.2,0.1,0.3,0
								c0-0.2-0.3-0.1-0.3-0.2c0-0.2,0.2-0.1,0.3-0.2c-0.1-0.3,0-0.6,0-0.9c-0.1,0.1-0.1,0.5-0.3,0.5c-0.3-0.3,0.1-0.6,0-0.9
								c-0.1,0-0.1-0.1-0.2-0.1c0-0.2,0-0.3-0.1-0.5c-0.1,0.1,0,0.4,0,0.7c-0.4,0-0.2,0.5-0.5,0.5h-0.1c-0.2-0.4,0.2-0.6,0.1-1
								c-0.3-0.2-0.4-0.7-0.4-1.2c-0.1-0.1-0.3,0-0.4-0.1v-0.2c0.1,0,0.2-0.1,0.4-0.1c0.2-1.1,0.1-2.4,0.1-3.6
								c0.1-0.1,0.2-0.2,0.2-0.3c-0.1,0-0.2-0.1-0.2-0.2c-0.1-1,0-2.1,0-3.2c0.1,0,0.2,0,0.4-0.1c0.4,0.4-0.1,1,0.2,1.3
								c0.1-0.7,0.1-1.5,0.1-2.2c0,0.3-0.3,0.5-0.3,0.6c-0.3,0-0.5-0.5-0.3-0.8c0-0.3-0.2-0.8,0-1c0.2,0,0,0.3,0.2,0.2
								c0.1-0.2,0-0.4-0.3-0.3v-0.4c0.1-0.2,0.4-0.1,0.5-0.2c0,0,0,0,0-0.1c-0.2-0.2-0.2,0-0.5,0c0-0.4,0-0.9-0.1-1.4
								c0.2,0,0.3-0.3,0.6-0.2c0-0.1,0.1-0.2,0-0.3c-0.1,0.1-0.2,0.1-0.3,0c0-0.1,0-0.2,0-0.3c0.1-0.1,0.2,0.1,0.3,0
								c0-0.1,0.1-0.2,0-0.2c-0.1,0-0.2,0.2-0.3,0.1c0.1-0.4-0.1-0.9,0.2-1.2c0-0.1-0.1,0-0.2,0c0.1-0.4-0.1-0.5-0.1-0.7
								c0.2-0.1,0.6-0.2,0.6-0.6c-0.1,0.1-0.2,0.3-0.4,0.3c-0.1-0.4,0.2-0.5,0-0.7c0,0.2-0.1,0.4-0.2,0.5c-0.1-0.3,0-0.7,0.2-0.9
								c-0.1,0-0.1-0.1-0.1-0.2c-0.1,0-0.1,0-0.2,0v-0.2c0,0,0.1,0,0.2,0c0.2-0.1,0.5-0.2,0.7-0.2c-0.1-0.4,0-0.9-0.2-1.2
								c0,0.2,0,0.5-0.2,0.6c-0.1-0.1-0.1-0.3-0.1-0.5c0,0.1-0.1,0.1-0.2,0.1c-0.1-0.1-0.1-0.5,0.1-0.5c0.1,0,0.1,0.1,0.1,0.1
								c0-0.1,0-0.1,0-0.2c0-0.1,0.2,0,0.2-0.1c0-0.7,0.1-1.4,0-2c0,0.1-0.4,0.2-0.4,0c0-0.2,0.3-0.1,0.4-0.1c0-0.2,0.1-0.6,0-0.8
								c-0.2,0.1,0,0.4-0.1,0.6c-0.4,0.1-0.3-0.5-0.2-0.7c0.1-0.1,0.2,0.2,0.2,0c0.1-0.5,0-1-0.3-1.2c0.1-0.4-0.1-0.8,0.1-1.1
								c-0.1-0.4-0.2-0.9,0.2-1.3c0-0.2,0.1-0.5,0-0.6c-0.4,0,0.1,0.5-0.2,0.5c0-0.3-0.1-0.5,0-0.9c0.1-0.1,0.3,0,0.3-0.1
								c0-0.4,0.2-1,0-1.3c0,0.3,0,0.5-0.2,0.6c0.1,0.1,0.1,0.6-0.1,0.5c-0.2-0.4,0-0.9,0-1.5c-0.3-0.4,0-2.7-0.1-3.3
								c0-0.2-0.1-0.3-0.1-0.5c0-0.6,0.2-1.5,0-2c0-0.1-0.2-0.1-0.1-0.2c0.2,0,0.2-0.3,0.2-0.5c-0.1-0.1-0.2-0.1-0.3,0
								c-0.1,0-0.1-0.4-0.1-0.4h0c0,0,0,0,0,0.1c-0.9-0.1-1.7-0.3-2.5-0.6l-1.3-0.2h-0.1c0,0-0.1,0-0.1,0.1c0,0-0.1,0-0.2-0.1h-1
								c0,0,0,0,0,0c-0.1,0-0.1,0-0.1,0c0,0,0,0,0,0.1c-0.2,0.1-0.3-0.1-0.6-0.1c0,0,0,0,0,0h-2.4c-0.4,0.1-0.7,0.1-1,0h-2.4
								c-0.4,0.3-0.5,0.3-1.4,0h-0.5c-0.2-0.1-0.5-0.1-0.7-0.2c-0.4-0.1-0.8-0.1-1.1-0.2c-0.1-0.1-0.3-0.2-0.5-0.3v0.2
								c-0.1,0-0.1,0-0.1-0.1v0.2c-0.5-0.2-0.1-0.4-0.4-0.8c-0.2,0-0.6,0-1,0c-0.1,0.2-0.3,0.3-0.2,0.7c-0.1,0.2-0.3,0.3-0.4,0.5
								c0,0,0-0.1,0-0.1c0,0.1-0.1,0.1-0.1,0.2c0-0.4,0.1-0.7,0.1-1.3c-0.2-0.2-0.5-0.1-0.7-0.1c-0.4,0-0.8-0.2-1.1-0.1
								c-0.1,0-0.1,0.1-0.1,0.1c-0.2-0.2-0.6-0.1-0.7-0.3c0.1,0,0.1-0.1,0.2-0.1c0,0,0,0,0,0v0c0.2-0.1,0.3-0.1,0.4-0.1
								c0,0,0,0,0-0.1c0.1,0,0.1,0,0.2,0c0,0,0,0,0-0.1c0.5-0.1,1,0,1.4-0.1c0-0.1,0.2-0.3,0.2-0.4c-0.4-0.4-1.2-0.2-2-0.3
								c0-0.1,0.1-0.1,0.1-0.2c0,0,0.1,0,0.1,0c0,0,0-0.1,0-0.1c0.6,0.1,1.3,0,1.8-0.1c0-0.1-0.1-0.2-0.2-0.3c0-0.5,0-0.7,0-1.1
								c0-0.2-0.2-0.1-0.2-0.3c0.3-0.1,0.2-0.4,0.2-0.7c-0.3-0.5,0.1-1.1,0-1.8c0-0.1-0.1-0.1-0.1-0.2c0,0,0.1,0,0.1-0.1
								c-0.2-0.7,0-1.5-0.1-2.3c0-0.1,0.1-0.1,0.1-0.2c-0.3-0.5,0-1-0.1-1.5c0-0.1-0.1-0.2-0.1-0.3c-0.1-0.6,0.1-1.3-0.1-1.8
								c0,0,0.1,0,0.1-0.1c-0.2-0.8-0.2-1.3,0-2c-0.3-0.3,0.1-1.1-0.2-1.5c0-0.1,0.1-0.1,0.1-0.2c-0.2-0.5,0-0.7-0.1-1.2
								c0.1,0,0.1,0,0.1,0c0,0,0,0,0-0.1h0c-0.1-0.3-0.1-0.6-0.2-0.9c0-0.1,0.2-0.1,0.2-0.2c-0.1-0.7,0-1.4-0.1-2.2
								c0-0.1,0.1,0,0.1,0c0,0,0-0.1,0-0.1c0,0,0,0,0.1,0c0-0.2-0.1-0.2-0.2-0.5c0.1-0.2,0.1-0.5,0-0.8c0.2-0.9,0.1-1.7,0.3-2.4
								c0-0.1-0.1-0.1-0.1-0.2c0.2,0,0-0.3,0.2-0.3c0-0.1-0.2,0-0.2-0.2c0-0.1,0.1,0,0.1,0c0,0,0,0,0,0c0,0,0,0,0,0c0,0,0,0,0,0
								c0.1-0.2-0.2-0.1-0.2-0.3c0,0,0.1-0.1,0.1-0.1c0-0.1,0.2-0.1,0.3-0.1c0,0,0,0,0,0c0-0.7-0.3-1.3-0.2-2
								c-0.1-1-0.1-1.8-0.2-2.7c-0.2-0.4-0.1-0.8-0.2-1.3c0-0.1-0.2,0-0.1-0.2c0.1,0,0.1,0,0.1,0c0,0,0,0,0-0.1h0
								c-0.2-0.3,0-1.1-0.3-1.5c0.2-0.9,0-1.3-0.2-2.4c0.1-0.6,0.2-1.6,0.4-2.3c0,0,0,0,0,0c0-0.1,0-0.2,0-0.3c0,0.1,0,0.4-0.1,0.3
								c0-0.8,0.2-1.4,0.4-2.2c-0.2,0.2-0.2-0.3-0.4-0.5c0,0-0.1,0-0.1,0c0,0.1-0.1,0.1-0.1,0.1c0-0.2-0.1-0.2,0-0.4
								c0.1,0,0.1,0,0.1-0.1c0,0,0,0,0,0c0,0,0,0,0,0c0-0.1,0-0.2,0-0.2c0.1,0,0.1,0,0.1,0.1c0-0.1,0-0.1,0-0.2
								c0.1,0,0.1,0.1,0.2,0.2c0,0,0,0,0,0c0,0,0-0.1,0-0.1c0.2,0.2,0.4,0.1,0.7,0.1c0.1,0,0.1,0.2,0.1,0.3c0,0,0.1,0,0.1,0
								c0.1,0,0.2-0.1,0.2-0.1c0,0,0.1,0,0.1-0.1c0.1-0.3-0.2-0.3-0.2-0.5c0.1,0,0.1,0,0.1,0c0,0,0,0,0,0c0.3-0.2,0.5-0.1,0.8-0.1
								c-0.1-0.2-0.2-0.6,0-0.7c0,0,0,0,0,0.1c0-0.1,0.1-0.1,0.1-0.1c0.2,0.3,0.2,0.9,0.5,0.8c0,0,0,0,0.1-0.1
								c-0.1-0.1-0.1-0.1,0-0.2c0,0,0.1,0,0.1,0c0,0,0,0,0,0c0.3-0.1,0.6-0.3,1-0.2V56h0.2c0,0.2,0.1,0.2,0.2,0.3
								c0.6,0.3,1.4-0.1,2.2-0.1c0.6,0,1.2,0.1,1.8,0c0.6-0.1,0.6-0.3,1.1-0.2c0.3-0.1,0.7-0.2,1.1-0.1c1-0.2,1.9-0.3,3-0.3
								c0,0,0,0,0-0.1c0.1,0,0.1,0.1,0.2,0.2c0-0.1-0.1-0.1,0-0.2c0.3,0.1,0.2,0.4,0.4,0.5c0.3,0.2,0.7,0,0.8,0.4
								c0.5-0.1,0.9,0.1,1.3,0c-0.2-0.1-0.4,0-0.6-0.1V56c0,0,0.1-0.1,0.1-0.1v0c0.1-0.1,0.2-0.1,0.3-0.1c0-0.3-0.6-0.1-0.8-0.2
								c0.1-0.4-0.7-0.2-0.5-0.6c0,0,0.1,0,0.1,0c0,0,0,0,0-0.1c0.4-0.1,0.5,0.2,0.9,0.1c0.1,0,0.1-0.1,0.2-0.1
								c0.2-0.2,0.6-0.2,0.9-0.2c0-0.1,0-0.2,0-0.3c0,0,0.1,0,0.1,0c0,0,0-0.1,0-0.1c0.3-0.1,0.3,0.3,0.4,0.5c1.1,0.2,2.3,0,3.5,0.1
								c0.1,0,0.1,0.1,0.3,0.2c0,0,0.1-0.1,0.1-0.1c0,0,0.1-0.1,0.1-0.1c1,0,2,0,3.1,0c-0.1,0.2,0.1,0.2,0.1,0.4c0,0-0.1,0-0.1,0.1
								c0,0,0,0,0,0c-0.3,0.2-0.7,0.1-1,0.1c0.3,0.1,0.8,0,1.3,0.1c0.2,0,0.3,0.1,0.5,0.1c-0.2-0.1-0.4-0.1-0.4-0.4
								c0-0.1,0.1-0.2,0.2-0.2c0.3-0.3,1.3-0.1,1.7-0.1c0,0,0,0,0,0h0.1c0,0,0,0,0-0.1h0.4c0,0.1,0.1,0.1,0.1,0.2c0,0,0,0,0,0
								c0,0,0.1,0,0.1,0c0,0,0,0,0-0.1c0.4,0,0.9,0,1.3-0.1c0.1,0.2,0.4,0.3,0.2,0.6h0.1c0-0.1,0-0.2,0-0.3c0,0,0.1,0,0.1,0
								c0,0,0-0.1,0-0.1c0.1,0,0.1,0,0.2,0c0,0,0,0.1,0,0.1c0,0,0.1,0,0.1,0c0,0,0,0,0-0.1c0.4,0,0.8,0,1.1,0.2c0,0,0-0.1,0-0.1
								c0,0,0.1,0,0.1,0c0,0,0-0.1,0-0.1c0.3,0.2,0.4-0.1,0.7-0.1c0,0.1,0.1,0.5,0.3,0.5c-0.1-0.1-0.2-0.2-0.1-0.3c0,0,0.1,0,0.1,0
								c0,0,0,0,0-0.1c0,0,0.1,0,0.2,0c0,0-0.1,0-0.1-0.1c0,0,0.1,0,0.1,0c0,0,0,0,0-0.1c0.4-0.1,0.6,0,0.8,0.1c0,0,0,0,0,0
								c0.1-0.1,0.2-0.1,0.4-0.1c0.1,0.3,0.2,0.5,0.2,0.7c0.3-0.1,0.7,0,1-0.1c0,0,0.1,0,0.1-0.1c-0.2,0.1-0.5,0-0.6-0.2
								c0,0,0.1-0.1,0.1-0.1l0,0c0.2-0.2,0.5-0.1,0.9,0c0,0.1,0,0.2,0.1,0.2c0.6,0,1.3,0,1.8,0c0-0.1-0.1-0.2-0.1-0.3h0.1
								c0,0,0,0,0-0.1h0.2c0,0.2,0.1,0.2,0,0.4c0.2,0,0.4,0.1,0.6,0c0,0,0,0,0-0.1c-0.2-0.1-0.4,0-0.5-0.1v-0.2c0,0,0.1,0,0.1,0v0
								c0.2-0.1,0.5,0,0.6,0c0.1,0.1-0.1,0.2,0,0.3c0.4,0.1,0.7,0,0.9-0.1c0,0,0.1-0.1,0.1-0.1c0,0,0,0,0,0c0,0,0.1,0,0.1-0.1
								c0.9,0.1,1.5-0.2,2.2,0.2c0.2,0,0.4,0,0.5,0c0-0.1-0.1-0.1-0.1-0.2c0,0,0.1,0,0.1,0c0,0,0,0,0-0.1c0.1-0.1,0.3,0,0.4,0
								c0.1,0.1,0,0.3,0.1,0.3c0.1,0,0.1,0,0.2,0c-0.1,0-0.2-0.1-0.2-0.2c0-0.1,0.1-0.1,0.2-0.1c0.1-0.2,0.4,0.1,0.6-0.1
								c0.2,0.2,0.6,0,0.8,0.1c0.1,0,0.2-0.2,0.3-0.2c1.5,0,2.4,0,4-0.1c0,0,0-0.1,0.1-0.1c0,0,0,0,0,0c0,0,0-0.1,0.1-0.1
								c0.2,0,0.3,0.2,0.6,0.2c0-0.1,0-0.2,0-0.3c0,0,0.1,0,0.1,0c0,0,0,0,0-0.1c1.9-0.1,5.8-0.2,7.6-0.1c0,0,0,0,0,0c0,0,0,0,0,0
								v-0.1c0.2,0,0.3,0.1,0.5,0.1v0.2c0,0,0,0,0.1,0c0,0,0.1-0.1,0.2-0.1c2,0.6,3.6,1.5,5.2,2.5c0.3,0.1,0.6-0.1,0.8,0
								c0.2,0,0.3,0.2,0.5,0.3c0.3,0.1,0.5,0.1,0.7,0c0-0.1,0.1-0.1,0.1-0.2h0.1c0,0,0,0,0-0.1h0.3c0-0.1,0.1-0.2,0.2-0.3h0.1
								c0,0,0-0.1,0.1-0.1h0.4c0,0.1,0,0.2,0,0.2c0.7,0.1,1.3,0,2,0.1c0.4,0,0.7,0.3,0.9,0.3c0.1,0,0.2-0.2,0.4-0.2
								c0.2,0,0.4,0.1,0.6,0.1c0-0.1-0.1-0.1,0-0.2c0,0,0,0,0.1,0c0,0,0,0,0-0.1c0.3,0,0.5,0,0.5,0c0,0,0.1,0,0.4,0.1
								c0.1,0,0.1-0.1,0.3-0.1c0.4,0.3,1.1,0,1.7,0.1c0,0,0.1,0.1,0.1,0.1c0,0,0,0,0-0.1c0,0,0.1,0,0.1,0c0,0,0,0,0-0.1
								c1.1-0.1,2-0.2,3.1-0.2c0,0,0.1,0.1,0.1,0.1c0,0,0,0,0-0.1c0,0,0.1,0,0.1,0c0,0,0-0.1,0-0.1c0.4,0.1,0.9,0.1,1.4,0
								c0,0,0-0.1,0-0.1c0,0,0.1,0,0.1,0c0,0,0-0.1,0-0.1c0.3,0,0.5,0.1,0.7,0.2c0,0,0,0,0-0.1c0,0,0.1,0,0.1-0.1c0,0,0,0,0,0
								c0.1-0.1,0.3,0,0.4-0.1c0,0,0,0,0,0h0c0,0,0.1,0,0.1-0.1c0.3,0.2,0.8,0.3,1.3,0.4c-0.1-0.1-0.2-0.1-0.2-0.2c0,0,0.1,0,0.1,0
								c0,0,0,0,0,0c0.3-0.1,0.5-0.3,0.8-0.1c0,0,0,0,0.1,0c0,0,0-0.1,0.1-0.1c0.3,0.2,0.8,0.1,1,0c0.5,0.4,1.5-0.3,1.9,0.1
								c-0.1,0.1-0.1,0.1-0.2,0.1c-0.3,0.3-0.6,0-0.9,0.2c0,0-0.1,0-0.1,0.1c0.5,0.1,1.2-0.3,1.5,0.1c0.2-0.1,0.6,0.1,0.7-0.1
								c0.3,0.4,0.6,0,1,0.2c0,0,0,0,0.1,0c0.1-0.1,0.3-0.1,0.5,0c0.1,0,0.2-0.2,0.4-0.2c0.1,0.1,0.1,0.2,0.2,0.2
								c0.6,0.1,1,0,1.6,0.1c0.1,0,0.1-0.1,0.2-0.1c0.4,0.3,0.9-0.2,1.5,0c0.1-0.1,0.2-0.1,0.3-0.1c0,0-0.1,0-0.1-0.1
								c0,0,0.1,0,0.1,0c0,0,0,0,0-0.1c0.2,0,0.4-0.1,0.6,0.1c-0.1,0-0.1,0-0.2,0c0,0,0.1,0,0.1,0.1c-0.1,0-0.1,0-0.2,0c0,0,0,0,0,0
								c0.3,0,0.4,0,0.7,0.1c0,0,0,0,0.1,0c0,0,0,0,0,0c0,0,0,0,0,0c0-0.1-0.2-0.1-0.2-0.2c0,0,0.1,0,0.1,0c0,0,0,0,0-0.1
								c0.1,0,0.3,0,0.4,0c0.1,0.1,0.1,0.2,0.3,0.3c0,0,0.1-0.1,0.1-0.1c0-0.1,0.1-0.1,0.2-0.2c0.2,0,0.5,0.2,0.8,0.2
								c-0.1,0-0.1-0.1-0.1-0.2c0,0,0.1,0,0.1,0c0,0,0,0,0-0.1c0.4,0,0.6-0.1,0.8,0.1c0.9-0.1,1.7-0.1,2.6-0.2c0-0.1-0.2,0-0.2-0.1
								c0,0,0.1,0,0.1,0c0,0,0,0,0-0.1c0.4,0,0.8,0,1-0.2c0.5,0.2,0.9-0.1,1.3-0.1c0.4,0,0.8,0.2,1.2,0c0.1,0,0.1,0.1,0.2,0.1
								c0.2-0.1,0.4,0,0.6,0c0.5,0,1.1-0.4,1.7-0.1c0,0,0.1,0,0.1-0.1c0,0,0,0,0,0c0-0.2-0.3-0.1-0.5-0.1c0-0.1,0.1-0.2,0.2-0.2
								c0.3-0.3,1,0,1.3-0.2c0.1,0,0,0.2,0.1,0.2c0.2-0.1,0.3,0,0.5-0.1c0.2,0.5,0.9,0.2,1.5,0.4c0,0,0.1,0.1,0.1,0.1
								c0.4,0.2,0.7,0.1,1.1,0.2c0.5-0.3,1,0.4,1.4,0c0.3,0.2,0.7-0.2,1,0.1c0,0,0.1-0.1,0.1-0.1c0.2-0.2,0.6-0.1,0.9-0.1
								c0.2-0.2,0.3,0,0.5-0.2c0,0.2,0.3,0.2,0.5,0.1c0-0.2-0.2-0.1-0.2-0.3c0,0,0.1,0,0.1,0c0,0,0,0,0,0c0.1-0.1,0.1,0,0.2,0
								c0,0,0-0.1,0-0.1c0,0,0.1,0,0.1,0c0,0,0-0.1,0-0.1c0,0,0.1,0,0.1,0c-0.1-0.2,0.1-0.5-0.2-0.5c0.2-0.2-0.1-0.9,0.2-1.1
								c0,0,0,0.1,0,0.1c0-0.1,0-0.1,0.1-0.2c0.1,0.1,0,0.4,0.1,0.6c0-0.3-0.1-0.8,0.1-0.9c0,0,0,0,0,0c0,0,0-0.1,0.1-0.1
								c0,0.6,0.1,0.4,0.3,0.6c0-0.2,0-0.5,0.1-0.5c0-0.1,0.1-0.1,0.1-0.1c0.1,0,0,0.2,0,0.3c0.1,0.1,0.2,0,0.2,0.1
								c-0.1,0.4,0.2,0.4,0.2,0.8c0.1,0,0.2,0,0.2,0c0.1,0.4-0.2,0.7,0,0.9c0.3-0.1,0.5-0.3,0.9-0.3c0.1,0.2-0.2,0.6,0.1,0.7
								c-0.2,0.3,0,0.4,0,0.7c0.4,0,0.7,0.2,0.8,0c0.1,0,0.1,0.2,0.1,0.2c0,0,0-0.1,0.1,0c0-0.1,0-0.1,0.1-0.1
								c0-0.1,0.1-0.3,0.2-0.3c0,0,0,0,0.1,0c0,0,0,0,0,0c0,0,0-0.1,0.1-0.1c0,0.1,0,0.5,0.1,0.4c0,0,0,0,0.1,0c0,0,0-0.1,0-0.1
								v-0.2c0,0,0.1,0.1,0.1,0.3c0,0,0,0,0,0c0-0.1,0-0.1,0-0.1v-0.2c0,0,0.1,0.2,0.1,0.4c0,0,0,0-0.1,0c0,0,0,0.1,0,0.1
								c0,0,0,0,0.1,0c0,0,0-0.1,0-0.1c0.1,0,0.1,0.1,0.3,0c0.3,0.4-0.1,0.7,0,1c0,0,0,0,0.1,0c0,0,0.1-0.1,0.2-0.1
								c0.1,0.3,0,0.6,0,0.9c0.1,0.1,0.2-0.1,0.2,0.2c0,0.1,0,0.1-0.1,0.1c0,0,0,0,0,0c0,0.1-0.1,0.1-0.1,0.1c0,0.1,0.3,0.1,0.3,0.2
								c0,0.1,0,0.1-0.1,0.2c0,0.1-0.1,0.1-0.2,0.1c0,0.5,0,1,0.2,1.3c0.1-0.2,0.1-0.5,0.1-0.7c0,0,0.1,0,0.1,0c0,0,0,0,0,0
								c0.1,0,0.1,0,0.1,0c0.1-0.1,0.1-0.3,0.2-0.3c0-0.1,0.1-0.1,0.2-0.1c0.2,0.4-0.2,0.7,0,1c0-0.1,0.1-0.1,0.1-0.1
								c0-0.1,0.1-0.1,0.2-0.1c0.1,0.4,0,0.8,0,1.2c0,0,0,0,0,0c0-0.1,0-0.2,0.1-0.2c0,0,0.1,0.1,0,0.2h0c0.1,0,0.2,0,0.2,0.2
								c-0.3,0.2,0.1,0.7-0.1,1.1c0.1,0.1,0.3,0,0.4,0.1c0,0.2,0,0.2-0.1,0.3c0,0.1-0.1,0.1-0.2,0.1c0,0,0,0.1-0.1,0.1c0,0,0,0,0,0
								c0,0,0,0,0,0c-0.2,1.5,0.1,2.2-0.2,3.6c0.3,1.1,0,2.6,0.1,3.9c0,0-0.1,0-0.1,0c0,0,0,0,0,0c-0.1,0-0.2,0.1-0.3,0.1
								c-0.3-0.3-0.1-0.9-0.2-1.4c-0.1,0.7-0.1,1.4-0.1,2c0-0.1,0.1-0.2,0.2-0.3c0,0,0,0,0,0c0,0,0-0.1,0.1-0.1
								c0.5,0.2,0.3,1,0.3,1.7c0.1,0,0.1,0,0.2,0c0,0.1,0,0.2,0.1,0.3c-0.1,0-0.1,0.1-0.2,0c0-0.1,0.1-0.1,0.1-0.2
								c0,0-0.1,0-0.2-0.1c0,0.1,0,0.3,0,0.4c0,0-0.1,0-0.1,0c0,0,0,0,0,0.1c0.2,0.2,0.4,0.1,0.7,0.2c0,0,0,0,0.1-0.1
								c0-0.1,0-0.1,0.1-0.1c0,0,0,0,0,0c0.1,0,0.1,0,0.1,0c0,0.1,0,0.1,0,0.1c0.1,0,0.1,0,0.2,0c0,0-0.1,0-0.1-0.1
								c0.1,0,0.1,0,0.1,0c0,0-0.1,0,0-0.1c0.2,0,0.3,0.1,0.4,0.2c0.4-0.1,0.7-0.1,1,0.1c0.7,0,1,0,1.3,0.5c-0.1,0-0.2-0.1-0.2-0.1
								c0.1,0,0.1,0.1,0.2,0.2c-0.6-0.3-1.6-0.1-2.1-0.4c-0.4,0.2-1.1-0.1-1.5,0.1c0.2,0,0.4,0,0.6,0c0,0,0,0,0,0c0,0,0,0,0,0
								c0.4,0,0.7,0,1,0.2c0.1,0,0.2,0,0.2,0.1c-0.1,0-0.1-0.1-0.2,0c0,0,0-0.1,0-0.1c-0.1,0-0.1,0-0.2,0c0.1,0,0.1,0,0.2,0.1
								c-0.1,0-0.3,0-0.5,0c0.5,0.1,1,0.1,1.5,0.1c-0.1,0-0.2,0-0.2-0.2c0.2,0.1,0.5,0,0.6,0.2c0.1,0,0.1,0,0.2,0
								c-0.1,0-0.1-0.1-0.1-0.2c0,0,0.1,0,0.1,0c0,0-0.1-0.1-0.1-0.1c0.2,0.2,0.4-0.1,0.6,0.1c0,0-0.1,0-0.1,0c0,0,0,0,0.1,0
								c0,0,0,0,0,0c0,0,0.1,0,0.1,0c0,0,0.1,0,0.2,0c0,0,0,0.1,0,0.1c0.1,0,0.1,0,0.2,0.1c0,0,0-0.1,0-0.1c0,0,0.1-0.1,0.2,0
								c0,0,0,0.1,0,0.1c0.1,0,0.3,0,0.5-0.1c1.1,0.2,2.1,0.1,3.6,0.3c0,0,0,0-0.1,0c0,0,0.1,0,0.1,0c0.1-0.2-0.2,0-0.1-0.2
								c0.3,0,0.7,0,0.9-0.1c0,0,0-0.1,0.1-0.1c0,0,0,0,0,0c0,0,0,0,0,0c0.4,0.3,0.9,0,1.3-0.1c0.4,0,0.8,0.2,1.2,0.1
								c0.1,0,0.1,0.1,0.2,0.1c0.1-0.1,0.2-0.1,0.3,0c0-0.6,0-1,0.1-1.1c0-1.4-0.1-2.8-0.1-4.2c0-0.1,0.2-0.1,0.2-0.1
								c0-0.3-0.1-0.8,0.1-1c0,1,0,2,0.1,3c0,0.3,0,0.6,0,0.9c0-0.1,0-0.2,0-0.3c0,0.1,0,0.3,0,0.5c0-0.4,0.1-0.8,0.1-1
								c0,0.6,0.2,1.5,0,1.8c0-0.1-0.1-0.2-0.1-0.3c0,0.3,0,0.7,0,0.8c-0.1-0.1-0.1-0.2-0.1-0.3c0,0.4,0,0.7,0,1.1
								c0,0.1,0,0.2,0,0.3c0,0,0,0,0.1,0c0-0.2,0-0.5,0-0.7c0,0.2,0.1,0.4,0.1,0.7c0.2,0,0.4-0.1,0.6-0.1c0-1.1,0-2.1-0.1-3.2
								c0-0.1,0.1-0.2,0.1-0.3c-0.1-2.1-0.2-3.4-0.2-5.3c0-1.4,0.1-2.8,0-4.1c-0.1-1.1-0.2-2.3,0-3.4c0-0.1-0.1-0.2-0.1-0.4
								c0.1,0.1,0.1,0.2,0.2,0.4c0,0,0,0,0-0.1c0-0.1-0.1-0.2-0.1-0.4c0.3,0.3,0.1,1,0.2,1.6c0-0.9,0.1-2-0.1-2.7c0,0,0,0,0.1,0
								c0,0,0,0,0,0c0,0,0,0,0.1,0v0c0.1-0.5,0.1-1.5,0.2-2c0,0,0,0.1,0.1,0.1c0-0.1,0-0.2,0-0.2c0.1,0.1,0.1,0.1,0.1,0.2
								c0-0.7,0-1.4,0.4-1.8c0,0,0,0,0,0c0,0,0-0.1,0.1-0.1c0.1,0.2-0.1,0.3-0.2,0.5c-0.1,0.5-0.1,1.2-0.1,1.8
								c0-0.1,0.1-0.1,0.2-0.1c0,0.2,0,0.3-0.2,0.2c0,0.1,0,0.2,0,0.4c0,0,0.1,0,0.1,0c0-0.1,0-0.2,0.1-0.2c0,0,0-0.1,0.1-0.1
								c0.1,0.1-0.1,0.3,0.1,0.4c0.1-0.2,0.2-0.6,0.3-0.8c0-0.1,0.1-0.3,0-0.4c0,0,0,0-0.1,0c0,0,0,0,0,0c0,0,0,0.1-0.1,0.1
								c-0.1-0.1,0.1-0.1,0-0.3c0,0,0.1,0,0.1,0c0,0,0-0.1,0-0.1c0.2,0.1,0.4,0,0.5,0.1c0-0.1,0.1,0,0.2,0c0,0.2,0.1,0.1,0.1,0.3
								c0,0-0.1,0-0.1,0c0,0,0,0-0.1,0c0,0,0,0,0,0.1c0,0,0,0,0,0.1c0.4,0.2,0.6,0,0.8,0.1c0-0.1,0-0.1,0-0.1c0,0,0,0,0,0.1
								c0-0.1,0-0.1,0-0.1c0,0,0,0,0,0c0,0,0,0,0-0.1c0.1,0,0.1,0,0.2,0c0,0.1,0,0.1-0.1,0.1c0,0,0,0,0.1,0c0.1,0,0.1,0,0.1-0.1
								c0,0-0.1,0-0.1-0.1c0,0,0.1,0,0.1,0c0,0,0,0,0-0.1c0.2,0,0.4,0,0.4,0.1c0.5-0.4,1.2-0.1,1.9-0.3c0.1,0.1,0.3,0.2,0.5,0.3
								c-0.1,0-0.2-0.1-0.3-0.1c0.1,0,0.2,0.1,0.2,0.1c-0.4-0.2-1,0.1-1.3,0.1c-0.3,0.1-0.5-0.1-0.6,0.1c0-0.1-0.2,0-0.2-0.1
								c0,0,0,0,0,0c0,0,0,0.1-0.1,0.1c0,0,0,0.1-0.1,0.1c-0.6,0-0.9,0.2-1.4,0.4c0.2,0,0.3,0,0.5-0.1c0,0,0-0.1,0-0.1
								c0.1,0,0.1,0,0.2,0c0,0,0,0,0,0c0.4-0.1,0.8-0.2,1,0c0-0.1,0.3-0.1,0.2,0h-0.2c0,0,0,0,0,0c-0.1,0-0.1,0-0.2,0
								c0,0,0.1,0,0.1,0.1c-0.5,0.1-1,0.2-1.4,0.3c1.1-0.2,2.1-0.4,3.2-0.6c-0.1,0-0.2,0-0.2-0.2c0,0,0.1,0,0.1,0c0,0,0,0,0-0.1
								c0.3,0.1,0.3-0.1,0.5-0.1c0.1,0.1,0,0.1-0.1,0.1c0,0,0,0,0,0c0.1,0,0.1,0,0.2,0c0,0,0,0,0,0c0.1,0,0.1,0,0.2,0
								c0-0.2,0.2-0.2,0.2,0c0,0-0.1,0-0.1,0c0.3,0,0.5-0.1,0.7-0.2c0.4,0.1,1-0.1,1.6-0.3c0.2-0.1,0.6-0.2,0.8,0c0,0-0.1,0-0.1,0
								c0,0,0,0,0.1,0c-0.6,0.2-1.1,0.3-1.7,0.4c0.4,0.1,0.9,0,1.2,0.1c0,0,0-0.1,0.1-0.1c0.1-0.1,0.3-0.1,0.4-0.1
								c0,0.1,0,0.1-0.1,0.1c0,0.1,0,0.1,0,0.1c0,0,0,0,0,0c0.4,0,0.5,0,0.8-0.2c0.3,0.3,0.7,0,1,0.1c0,0.1,0,0.1-0.1,0.1
								c0,0,0,0.1,0,0.1c0.1,0.1,0.1,0.1,0,0.2c0,0,0,0,0,0c0,0,0,0.1-0.1,0.1c-0.3-0.4-0.8,0-1.3-0.1c0,0.1,0,0.2,0.1,0.2
								c0.1,0,0.1-0.1,0.2-0.1c0,0.4,0.4,0.5,0.7,0.7c0.3,0.2,0.5,0.4,0.7,0.5c0.1,0,0-0.1,0.2-0.1c0,0.1-0.1,0.1,0,0.2
								c0.8,0.2,1.5,0.5,2.2,0.8c0-0.1,0-0.2,0.1-0.2c0-0.1,0.1-0.1,0.1-0.1c0,0.1,0,0.3,0,0.3c0-0.4,0.2-0.7,0.4-0.9
								c-0.1-0.4-0.3-1.4,0.1-1.6c0,0,0,0,0,0c0,0,0-0.1,0.1-0.1c0.3,0.5-0.1,1.4,0.2,1.8c-0.1,0.1-0.1,0.2-0.1,0.4c0,0,0,0-0.1,0
								c0,0,0,0,0,0.1c0,0-0.1,0-0.1,0c0.2,0.1,0,0.3,0.1,0.4c0.5-0.4,1,0.1,1.5-0.1c-0.3-0.1-0.6,0-0.8-0.2c0.1,0,0.1,0,0.2,0
								c0,0-0.1,0-0.1-0.1c0.3,0.1,0.3-0.1,0.4-0.2c0.1,0.1,0.4,0.2,0.7,0.2c0-0.1-0.1-0.2-0.1-0.3c-0.3-0.1-0.7,0.2-0.7-0.1
								c0,0,0.1,0,0.1,0c0,0,0,0,0,0c0.1-0.2,0.5,0,0.7,0c1.2-0.2,2.4-0.4,3.6-0.4c0,0.1-0.1,0.1,0,0.2c0.6,0.3,1.5,0.1,2,0.4
								c0.5,0,1.3,0.1,1.7,0c1,0.2,2.1,0.2,3.1,0.3c0.4,0,0.7-0.1,1-0.1c0.3,0,0.5,0.1,0.8,0.1c0.7,0,1.4-0.3,2.1-0.1
								c1.4-0.2,2.9,0,4.2-0.2c0.1,0,0.1,0.1,0.2,0.1c0.1,0,0.1-0.1,0.3-0.1c0.1,0,0.1,0.1,0.2,0.1c1.7-0.3,3.3,0,5.1-0.1
								c1.6,0.2,3.5,0,5,0.4c0.2-0.1,0.3,0,0.6,0c0.1,0,0.1-0.1,0.3-0.1c0.2,0,0.1,0.1,0.2,0.1c0.9-0.2,2.2-0.1,3.3-0.2
								c1.2-0.1,2.3,0,3.4-0.1c1,0.1,2.6,0,3.7,0c0-0.1,0-0.1,0-0.1c0,0,0-0.1,0.1-0.1c0,0.1,0,0.2,0.2,0.2c1.1-0.1,2.2,0.1,3.2-0.2
								c0,0.2-0.1,0.3-0.2,0.4c0,0,0.1,0,0.1,0.1c0,0-0.1,0-0.1,0c0,0,0,0,0,0c0,0,0,0-0.1,0c0,0,0,0,0,0.1c0.1,0.1,0.3,0.1,0.4,0
								c0-0.2-0.1-0.3-0.2-0.4c0.1-0.1,0.1-0.2,0.1-0.4c0,0,0,0,0,0c0,0,0,0,0-0.1c0.2-0.1,0.4-0.2,0.6-0.4c0-0.1,0.1-0.1,0.1-0.2
								c0,0,0,0,0,0c0,0,0,0,0-0.1c0.2,0.1,0.3-0.1,0.4-0.1c0.2,0.2,0.3,0,0.6,0c0,0.1,0,0.1-0.1,0.2c0,0,0,0,0,0c0,0,0,0.1,0,0.1
								c0.3,0.3,0.7,0,1-0.1c0.2,0.1,0.3,0.2,0.6,0.3c0.1,0.1,0.1,0.2,0.1,0.3c0.8,0.4,1.7,0.3,2.6,0.6c0.2-0.1,0.5,0,0.6,0.1
								c0-0.1,0.1-0.1,0.2-0.1c0.6,0.2,1.6,0,2,0.4c0,0,0-0.1,0.1-0.1c0.5,0.2,1.2,0.2,1.9,0.2c0.1,0.5,0.4,0.9,0.7,1.2c0,0,0,0,0,0
								c0,0,0-0.1,0-0.1c0-0.1,0.1,0.1,0.1,0.2c0,0-0.1-0.1-0.1-0.1c0,0,0,0.1,0.1,0.2c0,0,0.1,0.1,0.1,0.1c0,0.1-0.1,0-0.1-0.1
								c0,0,0,0,0,0c0.2,0.6,0.6,1.4,0.8,1.7c-0.3,0.4-0.3,1.1-0.4,1.5c0.1,0.1,0.4,0,0.5,0.2c0,0-0.1,0-0.1,0c0,0,0.1,0,0.1,0.1
								c-0.3,0.1-0.7,0-0.9,0.2c0.1,0.1,0,0.1,0,0.1c0,0,0,0.1-0.1,0.1c0.3,0,0.6,0,0.7,0c0,0.1,0,0.1-0.1,0.2
								c0,0.1-0.1,0.1-0.2,0.1c0.1,0,0.2,0,0.2,0.1c0,0,0,0-0.1,0c0,0,0,0,0,0.1c-0.1,0.2-0.6,0-0.7,0.2c0.1,0.3,0,0.3,0,0.4
								c0,0,0,0.1-0.1,0.1c0,0.1,0,0.2,0,0.4c0.2-0.1,0.3,0.7,0.3,1.1c0.1,0.2,0.1,0.4,0.1,0.6c0,0,0,0-0.1-0.1c0,0,0,0.1,0,0.1
								c0,0-0.1-0.1-0.1-0.2c0,0.1,0,0.2,0,0.2c0,0,0-0.1-0.1-0.1c0,0.1,0,0.2,0,0.2c-0.1,0-0.1-0.4-0.2-0.6c0,0.4-0.2,1,0.1,1.3
								c0,0.1,0,0.1-0.1,0.1c0,0.1-0.1,0.1-0.2,0.1c0.1,0.5,0.1,1.1,0.1,1.7c0,0,0,0,0.1,0c0,0.1,0,0.2-0.1,0.2c0,0.4,0,0.9,0,1.4
								c0,0,0,0,0,0v0.1c-0.1,0-0.3,0-0.4,0c0,0.9,0,1.6,0,2.4c0,0.1,0.1,0.1,0.2,0.2c-0.3,0.9-0.2,1.8-0.3,2.7c0.1,0,0.2,0,0.2,0.1
								c0,0-0.1,0-0.1,0c0,0,0,0,0,0c0,0-0.1,0-0.1,0.1c-0.2,0.9,0.3,1.7,0,2.4c0,0.1,0.2,0.1,0.2,0.2c-0.2,0.7,0.2,1.3-0.1,2
								c0.7,0.5,0.1,1.8,0.4,2.7c0,0,0,0.1,0,0.1c0,0,0,0,0,0c0,0.1-0.1,0.1-0.1,0.1c0,0,0,0,0,0c0.1,0.1,0.2,0.3,0.3,0.4
								c0,0,0,0-0.1,0c0,0,0,0,0,0c0,0.1-0.1,0-0.1,0.1c0,0.2,0.2,0.1,0.3,0.3c0,0-0.1,0-0.1,0c0,0,0,0,0,0.1c0,0-0.1,0-0.1,0
								c0.1,0.1,0.3,0.1,0.2,0.3c0,0,0,0-0.1,0c0,0,0,0,0,0.1c0,0-0.1,0-0.1,0c0,0.3,0.2,0.7,0.2,1.2c0.4,0,0.3,0.5,0.2,0.7
								c0,0,0,0.1-0.1,0.1c0.1,0,0.3,0.1,0.2,0.3c0,0,0,0,0,0c0,0,0,0.1,0,0.1c-0.1,0-0.1-0.1-0.2-0.1c0,0.2,0,0.5,0.2,0.7
								c0,0.1-0.1,0.1,0,0.2c0,0,0,0,0,0c0,0,0,0,0,0.1c0,0,0,0-0.1,0c0,0,0.1,0.1,0.1,0.2c0,0,0,0.1,0,0.1c0,0,0,0,0,0
								c0,0,0,0,0,0.1c0,0.2,0.1,0.4,0.1,0.7c0,0,0,0,0,0c0,0,0,0,0,0.1c-0.1,0.1-0.2,0.1-0.3,0.3c-0.2,0.4,0,1,0.1,1.4
								c0.2,0,0.3,0,0.4-0.1c0-0.1,0-0.1,0-0.2c0-0.1-0.1-0.2,0-0.3h0.1c0,0,0,0,0,0c0,0,0,0,0.1,0c0,0,0-0.1,0-0.1
								c0.4,0,0.5,0.4,0.6,0.7c0.7-0.3,1.6,0.3,2.3,0.1c-0.1,0-0.1-0.1-0.1-0.2h0.2c0,0.1,0.1,0.1,0.1,0.2h0
								c0.1,0.1,0.1,0.2,0.2,0.2c0.5-0.1,0.9,0.1,1.4,0.1c0,0.1,0,0.1-0.1,0.1c0,0,0,0,0,0c0,0.1,0,0.1-0.1,0.1c0.3,0.1,0.8,0,1,0.3
								c0,0-0.1,0-0.1,0c0,0,0,0,0.1,0c0,0,0,0-0.1,0c0,0,0,0,0,0c0.1,0.1,0.3,0,0.4,0.1c-0.1,0-0.1,0-0.1,0c0,0,0,0,0.1,0.1
								c0,0,0,0-0.1,0c0,0,0,0,0,0.1c0,0,0,0-0.1,0c0,0,0,0.1,0,0.1c-0.1,0-0.2,0-0.3,0.1c0.3,0.1,0.6,0.1,0.8,0.3
								c0.1,0.4,0.2,0.8,0.2,1.2c0,0,0,0-0.1,0c0,0,0,0,0,0.1c-0.1,0.1-0.3,0.1-0.4,0.2C629.1,95.2,629.5,95.1,629.9,95.2
								L629.9,95.2C630,95.2,629.9,95.2,629.9,95.2z M513.6,134c0,1-0.4,2.3,0.1,3.2c-0.3,0.3-0.4,1-0.3,1.6
								c2.3,0.1,5.2-0.4,7.7-0.4c0.3,0.1,0.1-0.3,0.4-0.2c1.4,0.1,2.7-0.1,4.1-0.1c1.8,0,4,0.8,5.4,0.3c0.8-0.3,1.5-1.2,2.1-1.9
								c0.7-0.7,1.5-1.4,1.9-2.2c-0.2-0.5,0.1-1,0.1-1.5c0.1-1.4-0.1-2.9,0.1-4.5c0.1-1.5,0.4-3,0.3-4.4c-0.1-1.1-0.4-2.1-0.3-3.4
								c0.1-0.9,0.3-1.8,0.2-2.7c-0.1-1.5-0.2-2.8-0.1-4.2c0.1-1.5,0.2-3,0.1-4.4c0-0.6-0.3-1.3-0.3-1.9c0-1.3,0.6-2.4-0.1-3.3
								c-0.4-0.7-1.4-1.4-2.4-2c-0.7-0.4-1.5-1.1-2.1-1.2c-0.4-0.1-0.8,0.1-1.3,0.1c-1.9,0.1-4.3-0.1-6.1,0.1
								c-2.9-0.3-5.8-0.4-8.8-0.2c-1,1.7-0.7,4.7-0.6,7c0.8,0.6,2.2,0.2,3.1,0.2c0.2,2.3,0.2,4.7,0.1,7c-0.1,2.1-0.5,4.3,0.1,6.3
								c0,0.2-0.4,0-0.3,0.3c0.3,3.5-0.1,6.6-0.3,9.9c-1.1,0.2-2.7-0.3-3.4,0.4C513.4,132.5,513.6,133.2,513.6,134z M463.1,125.7
								c0,1.5,0.1,3.2,0.1,4.9c0,2.7-0.1,5.1,0.3,7.3c1.8,0.1,4.2,0.1,6.2,0.1c4.3,0,9.1,0.6,12.4-0.8v-7.1c-3.2,1.3-8,0.6-12.1,0.6
								c-0.2-2.1,0-5.1,0.3-7.3c2.7-0.1,5.3,0.3,8,0.4c0.4-1.9,0.3-4.5,0.4-6.7c0-0.4,0.1-0.8,0-1.1c-0.9,0-2.4-0.4-2.9,0.1
								c-0.6-0.3-1.8-0.5-2.7-0.3c0.6,0.3,2.1,0.5,1.3,1.4c-0.5-0.1-0.1-0.5-0.4-0.7c-0.7,0-1-0.5-1.2-0.7c-0.4-0.2-0.2,0.3-0.4,0.4
								c-0.4,0,0-0.3-0.3-0.4c-0.5,0.1-0.8,0-1.4,0c-0.4-1.7,0.3-3.3,0.2-4.9c-0.1-0.7-0.3-1.4-0.4-2.1c0-0.6,0.2-1,0.1-1.6
								c3-0.2,6,0,9.1,0.1c0.2-0.2-0.2-0.1-0.1-0.4c0.3,0.2,0.5-0.2,0.7,0.1c0.1,0.2-0.1,0.2-0.3,0.2c0.7,0.1,1.9,0.2,2.5-0.1l0,0
								c0.4-2.1,0.2-5-0.1-6.9c-6,0-12.7-0.5-18.4-0.3c-0.6,4.5-0.3,10-0.5,15c-0.1,2-0.3,4.1,0.4,5.7
								C462.9,122.2,463.1,123.9,463.1,125.7z M440.9,95.1c-0.5-4.5-0.1-9-0.2-13.7c-1.2-0.3-2.7-0.3-3.9-0.6
								c1.4-7,2.8-13.8,3.9-21.1c-0.9,0.1-2.4-0.2-3.2,0c-0.2,0.1-0.4,0.1-0.5,0.3c-0.4,0.1-0.2-0.3-0.4-0.3
								c-0.4,0.1-0.3,0.3-0.7,0.4c-0.5,0-0.5-0.5-1.1-0.4c-0.5,0.7-0.4,1.7-0.6,2.5c-1.1,4.5-2.3,8.9-2.9,13.9
								c-0.9,1.2-1,3.2-1.4,4.9c-0.5,0-1.3,0.1-1.7-0.1c-0.1-1.7,0-3.4,0.1-5.2c0.1-1.8-0.1-3.6,0-5.3c0.1-1.1,0.5-2.2,0.4-3.2
								c0-0.8-0.6-1.5-0.7-2.4c-0.2-1.6,0.4-3.2,0.3-4.8c-2.4-0.2-4.8,0.1-6.9-0.1c0.2,6.1,0.5,12.4,0.1,18.5
								c-0.2,2.9-0.8,5.8-0.6,9.1c0,0.4,0.2,0.9,0.2,1.3c0.2,2.6-0.4,5.5,0.4,7.8c6-0.2,12.5,0.3,18.2,0.1
								C440.2,96.2,440.5,95.6,440.9,95.1C440.9,95.1,440.9,95.1,440.9,95.1L440.9,95.1C440.9,95.1,440.9,95.1,440.9,95.1z
								 M460.6,59.4c-5.9,0.1-12.3-0.3-18,0.1c-0.6,3.8-0.8,8.5-0.5,12.7c0.1,0.2,0.3,0.3,0.4,0.4c0.1,0.5-0.4,0.4-0.4,0.8
								c0.2,7.5-0.2,14.2-0.2,21.3c0.3,0.4,0.3,1,0.6,1.4c3.8,0.1,8.1-0.1,11.9,0.1c2.1,0.1,4.2,0.1,5.8-0.8c-0.1-2.1,0.2-4.1,0-6.1
								c-0.2-0.1-0.3-0.3-0.4-0.5c-3.7,0.5-7.6,0.6-11.4,0c0.1-2.4,0.1-4.5,0.3-6.7c2.5-0.1,5.4,0.3,7.9,0.2
								c-0.1-1.2,0.2-2.4,0.1-3.9c-0.4-0.2-0.6,0.2-0.8-0.2c0.3-0.2,0.5-0.5,0.8-0.7c-0.1-0.9-0.1-1.9-0.1-2.6
								c-1.3-0.2-1.8,0.2-2.2,0.9c-0.2-0.1,0-0.7-0.1-0.8c-0.4-0.3-1.1-0.2-1.8-0.2c-0.4,0.1,0.6,0.5,0.2,0.9
								c-0.2,0.1-0.4-0.5-0.8-0.6c-0.4-0.1-0.3,0.3-0.8,0.2c-0.3-0.3,0.5-0.1,0.6-0.4c-0.8-0.1-1.7-0.2-2.6-0.1
								c-0.1-0.3-0.2-0.5-0.4-0.8c0.5-0.4,0.1-1.4-0.1-1.9c-0.1-0.3,0.4-0.1,0.4-0.3c0.3-1.8-0.1-3.4,0-5.5l11.6,0
								C460.6,63.8,460.7,61.5,460.6,59.4z M455.7,99.9c-1.4,3-2.1,6.5-3.1,9.9c-0.7,2.6-1.3,5.2-1.8,8.1c-0.2,1.5-0.8,2.8-0.8,4.6
								c-0.5,0.1-1.4,0.1-1.8-0.1c0.4-7.1,1.4-15,0.5-22.1c-2-0.2-4.1-0.3-6.3-0.3c-1.6,1.1-0.5,4.1-1,6.2c-0.1,0.3-0.2,0.5-0.3,0.8
								c-0.2,1.7,1.2,5.4-0.1,6.9c-0.2,0.6,0,1.2,0,1.9c0,0.6-0.3,1.2-0.4,1.9c-0.1,2,0.4,4,0.4,5.9c0.1-0.3,0.3,0.3,0.3-0.2
								c0.3,0,0,0.7,0.2,0.8c-0.3,0.3-0.5-0.4-0.6-0.2c-0.2,0.7,0.3,0.7,0.6,0.9c-0.1,0.2-0.4-0.3-0.6,0c0,4.4-0.2,9,0.1,13.3
								c6.4-0.2,13.2,0.2,20.1-0.1c-0.4-1.7,0.5-2.9,0.6-4.4c0.1-0.7-0.1-1.4-0.1-2.3c0-1.2,0.2-2.5,0.4-3.7
								c0.2-1.2,0.6-2.7,0.4-3.7c-0.5-1.8-2.7-0.8-4.6-1.1c0.2-2.1,0.9-3.6,1.2-5.7c-0.5-0.1-0.7-0.2-1.1-0.4
								c0.1-0.5,0.8-0.5,1.3-0.6c1-4.8,2.5-9.5,3.2-14.9c-0.2-0.1-0.6-0.2-0.9-0.1c0.2-0.3,0.5-0.5,0.2-0.9c0.3-0.3,0.6,0.5,0.8,0.3
								l0,0c0.3-0.8-1.4-0.5-1.3-0.4C459.6,99.8,457.2,100.3,455.7,99.9z M461.2,55.6c0,0.1-0.2,0.1-0.3,0.1c0.2,0,0.4,0,0.5,0.1
								C461.3,55.8,461.2,55.7,461.2,55.6z M483.3,77.2c0-2-0.2-4-0.2-5.9c0-1.4,0.2-2.8,0.2-4.2c0-0.5-0.1-1.2-0.1-1.9
								c0-0.9,0.2-1.8,0.1-2.3c-0.2-1-1.3-1.9-2-2.5c-0.9-0.8-1.8-1.4-2.5-2h-16.8c-0.6,1.1-0.8,2.8-0.8,4.8c0,0.7-0.1,1.4,0.2,1.9
								c0.3,0.3,0.1-0.4,0.4-0.4c0.2,0.3,0.4,0.1,0.6,0.4c-0.2,0.4-0.9,0.5-1.1,0.6c-0.1,0.8,0.4,0.2,0.7,0.5
								c0.1,0.4-0.3,0.2-0.2,0.5c0.8-0.2,1.8-0.2,2.7-0.2c0.2,3.9,0,8,0.1,12.1c0,0.3,0.5,0.1,0.7,0.1c-0.2,0.4,0,0.2,0.1,0.6
								c-0.4,0-0.2-0.6-0.8-0.4c0.2,3.6-0.3,6.4,0.1,9.7c-1,0.2-2.4-0.2-3.3,0.1c0.2,2.3,0.1,5.1,0.1,7.3c5.5,0.3,11.9-0.3,17,0.5
								c0.9-0.6,1.7-1.3,2.6-2.4c0.5-0.6,1.6-1.8,1.8-2.4c0.2-1.1,0.1-2.8,0.1-4.6l0,0c0.1-2,0.4-4.5,0.3-6.7c0-0.6-0.2-1.1-0.2-1.6
								C483.2,78.5,483.3,77.8,483.3,77.2z M503.2,60.8c-5.8-0.2-12,0-17.9-0.1c-0.3,6.3-0.9,13.3-0.9,20.1c0,2.3,0.3,4.5,0.2,6.7
								c-0.1,2.5-0.6,5.1-0.5,7.9c0,0.3,0.1,0.8,0.2,1c5.4,0.3,12.3,0.1,18,0.1c0.6-2.2,0.6-5.1,0.8-7.7c-4,0.2-7.9-0.2-11.8-0.4
								c-0.4-1.4,0.1-3.6-0.1-5.3c2.3-0.8,5.6-0.5,7.8-1.4c0-1.9,0.1-4.3,0-6.3c-2.4-0.2-5.2-0.4-7.9-0.4c0.1-2.2,0.3-4.3,0.1-6.4
								c4.2-0.7,8.5,0.5,12.2,0.7l0,0C503.5,66.6,503.1,63.5,503.2,60.8z M503.9,103.2c-0.4-0.4-1-0.7-1.3-1.1
								c-0.4-0.5-0.4-1.1-0.9-1.4c-5.9,0.4-11.8-0.2-17.6,0.1c0.1,2.5-0.2,5.1-0.3,7.3c0.9,0.2,2,0.2,3,0.3
								c0.5,7.3,0.1,15.1,0.2,22.8c-1.3-0.1-2.9-0.2-3.7,0.4c0.8,2,0.2,5.1,0.1,7.4c5.8-0.1,11.8-0.5,17.7-0.8
								c1.2-1.9,2.7-3.5,3.9-5.4c0.2-3,0-6.3,0-9.4c0-1,0.2-2,0.2-3l0,0c0-1.5-0.2-3.1-0.1-4.7c0.1-2.5-0.1-5.2-0.1-7.8
								c0-1.7,0.2-2.6-0.5-3.7C504.3,103.8,504.1,103.4,503.9,103.2z M523.1,84.3c-0.1-1-0.1-2.7-0.1-4c0-1.5,0.3-2.8,0-4.3
								c-0.1-0.4-0.4-0.8-0.4-1.2c-0.3-1.8,0.3-3.6,0.4-5.4c0.1-2,0-4-0.1-5.9c0-0.5,0.1-1.1-0.4-1.4c-0.3,0.1,0.1,0.5-0.3,0.6
								c-0.2-0.3,0.1-0.6-0.1-0.9c0.2-0.2,0.6,0.2,0.8,0.1c0-1,0.1-1.8-0.1-2.7c-2.1-0.4-4.8,0-6.7-0.3c-0.4,0.5-0.5,1.4-0.5,2.1
								c-0.1,3.3,0.3,7.3,0.2,10.7c-0.4-0.8-0.4-2-0.8-2.7c-0.6,0-1.1-0.2-1.8-0.2c-0.5,0.9-0.7,2.1-1.1,3
								c-0.4-3.8-0.3-8.2-0.4-12.4c-2,0.1-4.5-0.1-6.7,0.3c-1.2,4.2-0.6,9.2-0.4,14.2c0.3,7.6,0,15.6-0.1,22.5
								c1.7,0.6,4.7,0.1,7,0.1c0.3-1.7,1.1-3.1,1.5-4.7c0.2-0.9,0.3-1.8,1-2.4c0.9,2.6,2,4.8,3.1,7.2c2.4,0.1,4.6,0.1,6.7,0
								c-0.1-2.7-0.4-5.3-0.6-7.9v0C522.8,87.4,523.3,85.8,523.1,84.3z M539.2,74.7c0.1,0,0.3,0,0.4,0
								C539.5,74.7,539.3,74.7,539.2,74.7z M545.2,79.2c-1.3-0.2-3-0.4-4.3-0.1c-0.2,0-0.7-0.2-0.6,0.2c-1.3-0.4-3.1-0.1-4.7,0
								c-0.8,0-1.6-0.1-2.3-0.1c-0.5-2.9-0.1-6.4,0-9.7c0.2-3.4-0.1-6.8-0.3-9.9c-2.3-0.5-5.5,0.1-8.1-0.1c0,1.1,0,2.2,0,3.4
								c0,1.1-0.4,2.1-0.4,2.9c0,0.8,0.4,1.8,0.4,2.8c0.1,3,0,6.3-0.1,9.4c-0.1,3-0.2,6.3-0.1,9.4c0,1,0,2.1,0.1,3
								c0.1,0.3-0.1,0.5,0.3,0.6c-0.1,0.2-0.5,0.1-0.3,0.5c0.1,1.8,0,3.8-0.4,5.2c0,0.1,0,0.2,0.1,0.2c7,0,13.9,0.1,20.7-0.1l0,0
								C545.4,90.9,545.5,85.1,545.2,79.2z M537.4,101.2c-0.6,4.2-0.5,9.2-0.5,12.9c-0.5,2.2-0.3,4.7-0.3,7.6c0,1.1-0.1,2.3-0.1,3.4
								c0.1,1.2,0.2,2.4,0.1,3.6c-0.1,1.6-0.4,3.1-0.3,4.7c0.1,1.6-0.3,3.3,0.1,4.9c6.3-0.3,11.9,0.1,18-0.1
								c0.5-1.8,0.4-4.3,0.5-6.6c-0.2-0.2-0.9-0.1-1-0.6c-1.2,0.1-2.2-0.2-3.5-0.3c-0.8-0.1-1.6,0-2.2-0.1c-0.2,0-0.3,0.1-0.4-0.2
								c-0.3,0-0.2,0.3-0.5,0.2c-1.6,0-3.1,0-4.3-0.3c-0.5-1.7-0.1-4.2,0-6c2.7-0.1,5.9,0,8.1-0.8c0.3-0.3-0.3-0.1-0.2-0.5
								c0.6-1.6-0.2-4,0-6.2c-2.3-0.5-5.6-0.2-8-0.5c0-2.2-0.1-5.1,0.1-7.4l0,0c4.6-0.1,9.1,0.2,13.1,0.9c-0.2-2.5-1-4.7-0.5-7.5
								c-0.4-0.2-0.2-0.1-0.1-0.7c-1.4-0.5-3.4-0.1-5.2-0.2c-0.5,0-1.2-0.2-1.8,0c-0.3,0.1-0.2-0.2-0.3-0.2
								C544.5,101.3,540.9,101.2,537.4,101.2z M566.6,88.8c-0.3-0.1-0.6-0.2-0.8-0.4c-1.4,0.4-3.4,0.1-4.9,0.1
								c-0.1-1.4,0.3-3.1,0.1-4.7c0-0.4-0.2-0.7-0.2-1c0-1,0.4-2.3,0.4-3.6c0.1-1.6,0-3-0.1-4.4c-0.1-3.3,0.2-7,0.4-10.1
								c0-0.6,0.2-1.2,0.2-1.8c0-0.5-0.2-1-0.1-1.5c0-0.9,0.4-1.4-0.5-1.7c0-0.3-0.2-0.5-0.4-0.6c-2-0.2-4.6-0.2-6.4-0.1
								c-0.2,2.4-0.1,5.1-0.1,7.9c0,2.8-0.2,5.5-0.1,7.9c0,0.4,0,0.3,0.2,0.6c0.1,0.3-0.4,0.2-0.2,0.6c0.1,3.1,0.1,6.1,0.1,9.5
								c0,1.1,0.1,2.7-0.2,3c-0.4,0.4-2.6,0-3.3,0c-1.4-0.1-2.8-0.1-4.2,0.1c-0.2,1,0.1,3,0,5.1c0,0.8-0.6,3.1,0.4,3.4
								c0.9,0.2,2-0.3,2.8-0.3c0.9,0,1.9,0.1,3,0.1c4.7-0.1,10,0.2,14-0.5v0C567.2,94.2,567.6,90.4,566.6,88.8z M564,107.3
								c-0.8-1.9-0.7-4.2-1.3-6.3c-1.9-0.2-3.8-0.1-5.8-0.1c0.5,2.3,0.6,4.8,0.9,7.2c0,0.1,0.1,0.4,0.1,0.6c0,0,0.3,0.4,0.3,0.4
								c0,0.1-0.2,0.3-0.2,0.4c-0.1,0.9,0.3,2.4,0.4,3.3c0.3,2.9,0.9,5.4,0.9,8.4c0,1.1,0.3,2.3,0.5,3.5c0.3,1.5,0.6,3.2,0.9,4.5
								c0.1,0.4,0.4,0.8,0.5,1.2c0.1,0.5-0.1,1,0,1.4c0.1,0.5,0.4,0.9,0.6,1.4c0.4,1.4,0.1,2.9,0.6,4.3c2.2-0.1,4.8,0.6,7.3,0.2
								c0.1-0.9,0.6-1.9,0.8-2.9c0.2-1,0.1-2,0.8-2.5c0.9-4.7,2.2-9.4,2.9-14.3v0c0.1-0.9,0.5-1.7,0.6-2.5c0.6-4.7,1.6-9.4,2.1-14.3
								c-1.7-0.1-3.3,0.1-5-0.1c-0.3,0.7-0.6,1.5-0.9,2.5c-0.4,1.3-0.3,3.1-1,4.4C568,107.3,565.9,107.7,564,107.3z M576.7,59.1
								h-7.4c-0.2,1.6-0.5,3.3-0.4,5c0.2,2.6-0.5,5.6-0.3,7.9c0,0,0.1,0,0-0.1c0.1,0,0.1-0.1,0.1-0.1c0.1,0.4,0.5,0.4,0.7,0.6
								c-0.3-0.1-0.1,0.3-0.1,0.4c-0.1,0.1-0.2,0.2-0.4,0.1c0-0.2,0-0.3,0.1-0.4c-0.3,0-0.3-0.4-0.5-0.5c0,0.2,0,0.4,0,0.6
								c-0.5,1.7,0.3,3.4,0.1,5.2c-0.1,1.3-0.1,2.9-0.1,4.4c0,1.2-0.3,2.5-0.2,3.7c0.1,1.3,0.3,2.5,0.4,3.8c0.1,2.2-0.3,4.6,0.4,6.6
								c2.4,0,4.5,0.2,6.9,0.2v0c0.9-4.8,0.9-10.4,0.8-16.2c-0.2,0-0.5-0.3-0.8-0.2c-0.2-0.6,0.6-0.3,0.8-0.5
								c-0.1-1.9,0.2-4.3-0.3-5.7c0.1-0.1,0.3-0.1,0.2-0.4C577,68.7,577.3,63.4,576.7,59.1z M598.1,65.6c0-0.6-0.3-1.1,0.1-1.7
								c-0.6-1.3-0.1-3.3-0.1-4.8c-1.7-0.1-3.3,0.2-4.9,0.2c-1.8,0-3.5-0.4-5.1,0c-0.3,2.2-0.8,5.1-0.2,7.2c0.2,0.1,0.3,0,0.6,0
								c-0.4-0.3-0.7-0.3-0.6-0.8c0.1-0.4,0.9-0.3,0.9-0.6c0.2,0,0.3,0.2,0.3,0.3c0.2,0,0-0.4,0.3-0.4c0.2,0.3,0.4,0.1,0.6,0.4
								c-0.2,0.4-0.7,0.7-1.3,0.5c0.2,0.3-0.2,0.4,0.1,0.6c0.2,0.2,0.3-0.1,0.6-0.1c0.2,0.1,0.4,0.3,0.6,0.4c0.3,0.1,0.7,0,1-0.1
								c0.2,3.6-0.5,7.5-0.3,11.6c0.1-0.2,0.2-0.2,0.3,0c-0.1,0.3-0.4,0.3-0.3,0.8c0.4,0.2,0.7,0.4,0.9,0.7
								c-0.4,0.3-0.5-0.3-0.9-0.2c0,3.3,0.1,6.7-0.2,9.7c-1.7-0.1-3.3,0.1-4.9,0c0-3.3,0.1-7,0.1-10.7c0-3.8,0.6-7.8,0.1-10.7
								c-0.1-0.2,0.1-0.3,0.1-0.1c0.1-0.3,0-0.7-0.1-1.1c1.1,0,1.2-0.5,1.2-1.7c0-1.7,0.5-4.4,0.1-5.5c-2.3-0.2-5.1,0.2-7.7,0.1
								c-0.2,4.5-0.8,8.5-0.8,13.2c0,0.3,0.4,0.2,0.6,0.4c-0.2,0.6-0.2,1.2,0.2,1.5c-0.2,0.2-0.7,0-0.8,0.1
								c-0.1,0.4,0.2,0.4,0.2,0.6c0,0.3-0.3,0.2-0.2,0.5c0.1,3-0.4,6.1,0.1,8.7c0.1,0.5,0.3,0.8,0.4,1.3c0,0.3-0.1,0.5-0.1,0.8
								c0,0.5,0.2,1,0.2,1.5c0.2,2.7-0.5,5.5-0.6,8.4c1.6,0.2,3-0.1,4.5,0c4,0.2,8.4,0,12.1,0c1.1,0,1.7,0,2.3-0.7
								c0.6-7.3,0.8-15,0.7-22.3l0,0c0-1.6,0.1-3.2,0.1-4.7c0-0.7-0.3-1.3-0.3-2C597.9,66.2,598.1,65.9,598.1,65.6z M598.1,103.4
								c-0.8-0.9-1.3-2.1-2.1-2.8c-5.4,0.1-11.5-0.2-16.9-0.3c-0.2,2.4-0.5,4.6-0.4,7.1c1.1,0.1,2.1,0.1,3,0.2
								c0.4,3.3,0.1,6.8,0.2,10.4c0.2,4.5,0.1,9-0.1,13.2c-1.2,0.2-2.7-0.3-3.5,0.4c0.1,0.7,0.3,1.4,0.4,2.2c0,1-0.4,2.3,0.1,3.3
								c-0.3,0.3-0.4,1-0.3,1.6c1.5,0.2,3.9-0.2,6-0.3c2.9-0.1,5.8-0.2,8.8-0.4c0.9-0.1,2.5,0,3.1-0.2c0.7-0.3,1.3-2,1.8-2.8
								c0.4-0.7,1.3-1.3,1.5-1.9c0.1-0.3,0-0.7,0-1.2c0.1-1.3,0.1-3.1,0.2-4.3l0,0c0.1-1.1,0.1-2.4,0-3.6c-0.2-3.1-0.1-6.4-0.1-8.4
								c0-0.6,0.1-0.9,0-1.3c-0.1-0.3-0.7-0.7-0.5-1.2c0-0.4,0.4,0.1,0.4-0.2c0.1-1.7-0.1-3.3,0-4.9c0.1-0.9,0.4-1.8,0.2-2.6
								C599.6,104.6,598.6,104.1,598.1,103.4z M619.7,79c0-6.4-0.1-13.4-0.3-19.3c-1.4-0.3-3.7-0.2-5.5-0.1c-0.6,0.5-0.7,1.4-1,2.1
								c-2,5-4,10.3-6,15.3c-0.1-2.8-0.2-5.7-0.1-8.7c0.1-2.9,0.1-5.9-0.2-8.6c-2-0.3-3.9-0.2-6-0.1c-0.2,0.6-0.4,1.2-0.5,1.9
								c-0.1,0.7-0.3,1.4-0.3,2.1c0,0.5,0.2,1,0.2,1.5c0.1,1.8-0.5,3.7-0.6,5.7c-0.1,2,0,4.2,0.1,6.4c0.3,6.2,0.1,13-0.3,19
								c2.5,0.1,4.8,0.3,7.2,0.1c0.6-3.1,1.6-5.8,2.9-8.3c1.3-2.5,2-5.2,3.1-8c0.2,1.3,0,2.7,0,4.1c0,4-0.1,8,0,12.1
								c2,0.1,4.8,0.3,6.7-0.1c0.5-0.9,0.3-1.9,0.4-2.9c0.1-3.1,0-6.1,0.3-9.2v0C619.9,82.4,619.7,80.7,619.7,79z"/>
							<path class="st0" d="M615.9,68.6c0.2,0,0.5-0.2,0.4,0.2C616.1,68.8,616,68.7,615.9,68.6z"/>
							<path class="st0" d="M589.9,137.6c-0.1,0-0.3,0.2-0.3-0.1C590.7,137.2,590.5,138.7,589.9,137.6z"/>
							<path class="st0" d="M615.6,67.9c0.4-0.1,0.4,0.2,0.5,0.4C615.8,68.5,615.5,68.1,615.6,67.9z"/>
							<path class="st0" d="M601.8,78.5c0-0.2-0.5-0.4-0.4-0.6c0.2,0.1,0.1-0.1,0-0.3c0.2-0.2,0.2-0.1,0.4-0.1
								c0.2,0.3,0.2,0.4,0.1,0.9C601.9,78.4,601.8,78.4,601.8,78.5z"/>
							<path class="st0" d="M596.7,112.4c-0.2-0.3,0.4-0.5,0.1-0.8c0.2-0.1,0.5,0.1,0.5,0.4C597,111.9,597,112.3,596.7,112.4z"/>
							<path class="st0" d="M587.6,136.5c0.1,0,0.5,0.2,0.6,0.5C587.8,137,587.8,136.7,587.6,136.5z"/>
							<path class="st0" d="M588.9,104.4c0-0.2,0.4-0.3,0.4,0H588.9z"/>
							<path class="st0" d="M587.8,108.7c-0.2,0-0.4-0.1-0.4-0.3c0.1,0,0.1-0.2,0.4-0.2C588,108.4,587.8,108.5,587.8,108.7z"/>
							<path class="st0" d="M589.7,135.8c0.3-0.1,0.4-0.1,0.4,0.2c-0.1,0.1-0.3,0-0.4,0V135.8z"/>
							<path class="st0" d="M586.1,106c0.1-0.2-0.1-0.2-0.1-0.4c0.3,0,0.5-0.1,1-0.2c0,0.2,0.1,0.3,0.1,0.6
								C586.7,106.3,586.6,105.9,586.1,106z"/>
							<path class="st0" d="M595.5,118.4c-0.1-0.2,0.5-0.2,0.4,0C595.9,118.7,595.6,118.4,595.5,118.4z"/>
							<path class="st0" d="M596.5,123.4c0-0.2,0.1-0.4,0.3-0.4C596.9,123.2,596.8,123.5,596.5,123.4z"/>
							<path class="st0" d="M596.9,126.3c-0.3-0.2-0.7-0.4-0.8-0.8v0C596.4,125.3,597.2,126,596.9,126.3z"/>
							<path class="st0" d="M595.2,119.6c-0.1-0.1-0.1-0.2-0.1-0.4h0.4C595.5,119.4,595.4,119.5,595.2,119.6z"/>
							<path class="st0" d="M593,110.4c-0.1,0.4,0,0.9,0,1.3c-0.1,1.1-0.4,2.1-0.5,3.2c-0.1,0.9,0.1,1.9,0.1,2.8
								c0,4.2,0.3,8.5,0,12.6c-0.1,0.4,0.2,0,0.3,0.2c-0.8,0.8-3,0.7-4.8,0.5c0-4.5,0.4-8.9,0.1-13.4c-0.1-1.9,0.3-3.7,0.3-5.7
								c0-1.7-0.1-3.4-0.1-5.2c1.6,0.2,3.3,0,4.6,0.1v0c0.1,0.7-0.1,1.7,0.4,2.2C593.1,109.6,593.1,110.1,593,110.4z"/>
							<path class="st0" d="M595.7,132.9c-0.1,0.1-0.3,0-0.3-0.2C595.6,132.6,595.8,132.7,595.7,132.9z"/>
							<path class="st0" d="M579,75.9c-0.1-0.4,0.1-0.7,0-0.9c0.2-0.1,0.3,0.1,0.4,0.1c0,0.3,0.1,0.3-0.1,0.5
								c0.3,0.1,0.5,0.2,0.6,0.4c0,0.1-0.1,0.1-0.1,0.2C579.5,76.2,579.3,76,579,75.9z"/>
							<path class="st0" d="M530.6,64.9c0.4,0.1,0.4-0.1,0.3-0.4c0.3,0,0.4,0.3,0.4,0.6C531.1,65.2,530.7,65.1,530.6,64.9z"/>
							<path class="st0" d="M537.9,90.2c-1.8,0.1-4,0.4-5.4-0.3c0.2-0.9-0.2-2,0.1-2.8c1.6,0,3.5-0.5,5.3-0.1
								C537.9,88,537.8,89.3,537.9,90.2z"/>
							<path class="st0" d="M532.1,62.7c0.3-0.2,0.5,0.1,0.8,0.2c-0.1,0.4,0.2,0.4,0.1,0.6C532.6,63.4,532.5,62.9,532.1,62.7z"/>
							<path class="st0" d="M538.9,81.6c0.2,0,0.4,0,0.4,0.2c-0.1,0-0.2,0.1-0.3,0.1C538.9,81.8,538.8,81.7,538.9,81.6z"/>
							<path class="st0" d="M532.3,64.9c-0.1,0.1-0.1,0.3-0.3,0.4c0-0.1-0.1-0.1-0.1-0.1c0.2-0.3-0.1-0.4-0.3-0.6
								C531.9,64.3,532.3,64.6,532.3,64.9z"/>
							<path class="st0" d="M531.8,65.2c-0.2,0.2-0.4,0-0.4-0.2C531.6,65,531.7,65.1,531.8,65.2z"/>
							<path class="st0" d="M533.3,86.5v-0.1c0.1,0,0.4-0.1,0.4,0.1H533.3z"/>
							<path class="st0" d="M549.6,118.6c0,0.4-0.5,0.3-0.8,0.5c-0.1-0.2,0-0.4-0.1-0.7C549.1,118.1,549.4,118.4,549.6,118.6z"/>
							<path class="st0" d="M548.7,117.9c-0.1,0.1-0.3,0.1-0.4,0.1c0-0.2-0.3-0.2-0.1-0.4C548.4,117.7,548.5,117.8,548.7,117.9z"/>
							<path class="st0" d="M540.4,81.1c0.1,0.2,0.5,0.2,0.5,0.5C540.5,81.7,540.4,81.2,540.4,81.1z"/>
							<path class="st0" d="M564.8,110.8c-0.1-0.2,0-0.6-0.4-0.5c0.2-0.5-0.2-0.6-0.2-1c0.1-0.1,0.2-0.1,0.1-0.4
								c0.7,0.2,1.3,1,1.1,1.9C565.2,110.6,565.2,110.7,564.8,110.8z"/>
							<path class="st0" d="M550.7,101.9c0,0.2-0.1,0.2-0.3,0.2C550.3,101.9,550.5,101.9,550.7,101.9z"/>
							<path class="st0" d="M530,79.3c-0.3,0-0.3,0.2-0.3,0.5c-0.2,0.2-0.5,0.1-0.6,0.3c0.1-0.7,0.5-0.8,0.7-1.1
								C529.9,78.9,529.9,79.2,530,79.3z"/>
							<path class="st0" d="M525.5,82.5c0,0.2-0.2,0.2-0.4,0.3c0.1-0.3-0.1-0.3-0.1-0.6C525.3,82.2,525.1,82.6,525.5,82.5z"/>
							<path class="st0" d="M525.1,78.1c0.1,0,0-0.2,0.2-0.2c0,0.1,0.1,0.1,0.1,0.2C525.4,78.2,525.2,78.3,525.1,78.1z"/>
							<path class="st0" d="M526,70.5c-0.3,0-0.6-0.1-0.6-0.4C525.7,70.1,525.9,70.2,526,70.5z"/>
							<path class="st0" d="M525.5,83.2h-0.2c0-0.1-0.1-0.2-0.1-0.3C525.4,82.9,525.5,83,525.5,83.2z"/>
							<path class="st0" d="M527.9,67.5c-0.3-0.2-0.4,0.2-0.6,0c0.1,0,0.1-0.2,0-0.2c-0.1,0.1-0.1,0.3-0.4,0.2
								c-0.1-0.2,0.1-0.4,0-0.4c-0.6-0.1-0.9-0.5-1.4-0.7c0-0.3,0.1-0.3,0.1-0.6c0.4-0.6,1.7-0.1,2.1-0.4c-0.2,0.5,0.3,0.6,0,1.1
								c0.1,0,0.2,0,0.1,0.1c-0.4,0.1-0.1-0.6-0.5-0.5c0.2,0.3,0,0.4-0.1,0.6C527.4,67,527.8,67.1,527.9,67.5z"/>
							<path class="st0" d="M526.7,80.2c0.1,0.1,0.2,0.1,0.1,0.4c-0.2,0-0.3,0-0.4-0.1C526.4,80.3,526.5,80.2,526.7,80.2z"/>
							<path class="st0" d="M543.9,116.5v0.5c-0.2,0-0.4,0.3-0.6,0.1C543.4,116.7,543.4,116.4,543.9,116.5z"/>
							<path class="st0" d="M530,61.2c-0.1-0.1-0.1-0.4,0.2-0.4C530.3,61.1,530.2,61.2,530,61.2z"/>
							<path class="st0" d="M529.7,68.9c0.3,0,0.3,0.2,0.3,0.4C529.8,69.3,529.7,69.1,529.7,68.9z"/>
							<path class="st0" d="M530.5,61c0.3,0,0.5,0.2,0.4,0.5C530.6,61.6,530.5,61.4,530.5,61z"/>
							<path class="st0" d="M527.5,84.1c0-0.2,0.4-0.2,0.4,0.1C527.8,84.1,527.5,84.3,527.5,84.1z"/>
							<path class="st0" d="M529.1,61.9c-0.1-0.2,0.4-0.2,0.3-0.1C529.3,61.9,529.2,62,529.1,61.9z"/>
							<path class="st0" d="M552.9,105.3c0.1,0.1,0.1,0.2,0.1,0.4c-0.1,0.1-0.2,0.1-0.4,0.1C552.6,105.5,552.7,105.3,552.9,105.3z"
								/>
							<path class="st0" d="M571.7,110.6c-0.3,0.2,0.2,0.3,0.1,0.5c-0.3,0-0.2-0.4-0.4-0.5C571.5,110.5,571.7,110.4,571.7,110.6z"/>
							<path class="st0" d="M571.7,121.9c0.2,0.1,0.2,0.6,0.6,0.4c0.2,0.3,0,0.3,0.1,0.5c-0.3,0-0.4-0.2-0.6-0.1
								C571.8,122.3,571.5,122.1,571.7,121.9z"/>
							<path class="st0" d="M563.1,89.9c0-0.4-0.1-0.6,0.3-0.6c0,0.3,0.4,0.4,0.3,0.6C563.5,90,563.3,90,563.1,89.9z"/>
							<path class="st0" d="M558,105.2c0-0.1-0.2-0.1-0.1-0.3h0.2C558.1,105,558.1,105.1,558,105.2z"/>
							<path class="st0" d="M557,92v0.2c-0.1,0-0.2,0-0.3-0.1C556.7,91.9,556.9,92,557,92z"/>
							<path class="st0" d="M564.6,124.9c-0.3,0-0.3,0.2-0.4,0.4H564c0-0.4,0.1-0.7,0.5-0.7C564.5,124.6,564.5,124.8,564.6,124.9z"
								/>
							<path class="st0" d="M564.5,121.1c0-0.3,0.1-0.4,0.3-0.5c0.2,0.2,0.5,0.3,0.6,0.7C565.1,121.4,564.8,121.2,564.5,121.1z"/>
							<path class="st0" d="M565,125.8c0,0.1,0.1,0.2,0.1,0.3c-0.2,0.2-0.3-0.1-0.4-0.1C564.6,125.7,564.8,125.7,565,125.8z"/>
							<path class="st0" d="M563.2,123.9c0.6-0.1,0,0.5,0.5,0.4c-0.1,0.2,0.1,0.2,0.1,0.4C563.5,124.6,563.2,124.4,563.2,123.9z"/>
							<path class="st0" d="M542.5,118.6c0.2-0.1,0.4-0.1,0.4,0.2C542.8,118.9,542.5,118.8,542.5,118.6z"/>
							<path class="st0" d="M564.9,125c0,0.1,0.2,0.1,0.3,0.1v0.3h-0.3C564.8,125.3,564.7,125,564.9,125z"/>
							<path class="st0" d="M540.4,121.1c0.1,0,0.1-0.1,0.1-0.1c0.1,0.1,0.1,0.3,0.3,0.2v0.2C540.6,121.3,540.5,121.2,540.4,121.1z"
								/>
							<path class="st0" d="M538.3,103.2c0.1,0,0.1-0.1,0.1-0.1c0.1,0.2,0.4,0.2,0.4,0.4C538.7,103.5,538.5,103.3,538.3,103.2z"/>
							<path class="st0" d="M537.2,122.7c0.3,0,0.4,0.1,0.4,0.3C537.4,123,537.2,122.9,537.2,122.7z"/>
							<path class="st0" d="M537.5,135.6c0-0.1-0.1-0.1-0.1-0.3h0.2C537.7,135.5,537.8,135.7,537.5,135.6z"/>
						</g>
					</g>
				</g>
			</g>
		</g>
	</g>
</g>
</svg>
