<?xml version="1.0" encoding="utf-8"?>
<!-- Generator: Adobe Illustrator 19.0.0, SVG Export Plug-In . SVG Version: 6.00 Build 0)  -->
<svg version="1.1"
	 id="svg127977" sodipodi:docname="Ridge Racer (Vita).svg" inkscape:version="0.92.2 (5c3e80d, 2017-08-06)" xmlns:svg="http://www.w3.org/2000/svg" xmlns:rdf="http://www.w3.org/1999/02/22-rdf-syntax-ns#" xmlns:sodipodi="http://sodipodi.sourceforge.net/DTD/sodipodi-0.dtd" xmlns:inkscape="http://www.inkscape.org/namespaces/inkscape" xmlns:dc="http://purl.org/dc/elements/1.1/" xmlns:cc="http://creativecommons.org/ns#"
	 xmlns="http://www.w3.org/2000/svg" xmlns:xlink="http://www.w3.org/1999/xlink" x="0px" y="0px" viewBox="370 314.1 1351.8 164.9"
	 style="enable-background:new 370 314.1 1351.8 164.9;" xml:space="preserve">
<style type="text/css">
	.st0{fill:#FFFFFF;}
</style>
<sodipodi:namedview  inkscape:current-layer="layer1" inkscape:window-maximized="1" inkscape:window-y="-8" inkscape:window-x="-8" fit-margin-bottom="0" fit-margin-right="0" inkscape:pageopacity="0.0" inkscape:window-height="705" inkscape:window-width="1366" inkscape:pageshadow="2" inkscape:document-units="mm" borderopacity="1.0" pagecolor="#ffffff" bordercolor="#666666" showgrid="false" inkscape:zoom="0.35" inkscape:cx="952.96192" fit-margin-left="0" fit-margin-top="0" inkscape:cy="-72.137447" id="base">
	</sodipodi:namedview>
<g id="layer1" transform="translate(269.14677,-71.560043)" inkscape:groupmode="layer" inkscape:label="Layer 1">
	<g id="g128807" transform="matrix(3.1408458,0,0,3.1408458,-188.33248,-129.45574)">
		<g id="g126709" transform="matrix(0.35277777,0,0,-0.35277777,67.94781,77.913763)">
			<path id="path126711" inkscape:connector-curvature="0" class="st0" d="M821.1-355.8h-15.8l-12.6-18.8h15.8L821.1-355.8z"/>
		</g>
		<g id="g126713" transform="matrix(0.35277777,0,0,-0.35277777,68.326094,80.869653)">
			<path id="path126715" inkscape:connector-curvature="0" class="st0" d="M823.1-371.2l-8.2-4h-21.3l-6.2-9.2h30.2l18.6,9.1
				l18.7,27.9H839L823.1-371.2z"/>
		</g>
		<g id="g126717" transform="matrix(0.35277777,0,0,-0.35277777,84.505964,80.869653)">
			<path id="path126719" inkscape:connector-curvature="0" class="st0" d="M907.2-371.2l-8.2-4h-29.2l-6.2-9.2h38.1l18.6,9.1
				l10.2,15.2h-15.8L907.2-371.2z"/>
		</g>
		<g id="g126721" transform="matrix(0.35277777,0,0,-0.35277777,76.135077,81.445845)">
			<path id="path126723" inkscape:connector-curvature="0" class="st0" d="M863.7-374.2l-5.4-2.7h-17.1l-4.1-6h22.9l12.2,6
				l12.9,19.3h-10.4L863.7-374.2z"/>
		</g>
		<g id="g126725" transform="matrix(0.35277777,0,0,-0.35277777,72.653125,80.875862)">
			<path id="path126727" inkscape:connector-curvature="0" class="st0" d="M845.6-371.2h10.3l8,12h-10.4L845.6-371.2z"/>
		</g>
		<g id="g126729" transform="matrix(0.35277777,0,0,-0.35277777,76.873017,79.38534)">
			<path id="path126731" inkscape:connector-curvature="0" class="st0" d="M867.5-363.5h-10.3l-8-12h10.4L867.5-363.5z"/>
		</g>
		<g id="g126733" transform="matrix(0.35277777,0,0,-0.35277777,87.235159,77.91274)">
			<path id="path126735" inkscape:connector-curvature="0" class="st0" d="M921.4-355.8h-7.8l-5.6-8.4h7.8L921.4-355.8z"/>
		</g>
		<g id="g126737" transform="matrix(0.35277777,0,0,-0.35277777,87.016754,78.955728)">
			<path id="path126739" inkscape:connector-curvature="0" class="st0" d="M920.3-361.2h7.8l5.6,8.4h-7.8L920.3-361.2z"/>
		</g>
		<g id="g126741" transform="matrix(0.35277777,0,0,-0.35277777,84.169379,79.485423)">
			<path id="path126743" inkscape:connector-curvature="0" class="st0" d="M905.5-364h-24.6l-5.6-8.4h24.6L905.5-364z"/>
		</g>
		<g id="g126745" transform="matrix(0.35277777,0,0,-0.35277777,85.225666,77.91274)">
			<path id="path126747" inkscape:connector-curvature="0" class="st0" d="M911-355.8h-24.6l-5.6-8.4h24.6L911-355.8z"/>
		</g>
		<g id="g126749" transform="matrix(0.35277777,0,0,-0.35277777,96.619259,80.790595)">
			<path id="path126751" inkscape:connector-curvature="0" class="st0" d="M970.2-370.8h36.5l6.2,9.2h-36.5L970.2-370.8z"/>
		</g>
		<g id="g126753" transform="matrix(0.35277777,0,0,-0.35277777,112.31582,79.647842)">
			<path id="path126755" inkscape:connector-curvature="0" class="st0" d="M1051.8-364.8l-6.2-9.2h36.5l6.2,9.2H1051.8z"/>
		</g>
		<g id="g126757" transform="matrix(0.35277777,0,0,-0.35277777,111.01496,77.913763)">
			<path id="path126759" inkscape:connector-curvature="0" class="st0" d="M1045.1-355.8h-15.8l-3.1-4.6h-12.7l3.1,4.6h-15.8
				l-3.1-4.6h-6.3l-6.2-9.2h6.3l-3.4-5.1h15.8l3.4,5.1h12.7l-6.7-10l-8.2-4h-16.8l-6.2-9.2h25.7l18.6,9.1l9.5,14.1h6.3l6.2,9.2h-6.3
				L1045.1-355.8z"/>
		</g>
		<g id="g126761" transform="matrix(0.35277777,0,0,-0.35277777,93.137307,80.869653)">
			<path id="path126763" inkscape:connector-curvature="0" class="st0" d="M952.1-371.2l-8.2-4h-13.4l18.7,27.8h-15.8l-24.8-37h38.1
				l18.6,9.1l4.6,6.9H954L952.1-371.2z"/>
		</g>
		<g id="g126765" transform="matrix(0.35277777,0,0,-0.35277777,42.880939,71.485059)">
			<path id="path126767" inkscape:connector-curvature="0" class="st0" d="M690.7-322.4l-71.7,0l-3.2-4.6h71.7l-17.2-25.4h-76.2
				l-25.2,19l44.9,66.6h86.9l8.2-25.4h-69.7l-3.2-4.6h71.7L690.7-322.4z M514.9-307.2l5-15.2h-15.2L514.9-307.2z M550.6-352.5h-76.3
				l-25.3,19.1l34.1,50.6l42.7,16h82.4l-17.2-25.5h-71.7L496-327h30.2l-9.9,30.1H588L550.6-352.5z M441.5-336.5l-42.7-16h-82.5
				l57.8,85.6h114.4L441.5-336.5z M268.1-352.4l57.8,85.6h42.6l-57.8-85.6H268.1z M289.2-312.9l-6.4-9.4h-18.9L289.2-312.9z
				 M220-352.4l-9.5,29.3l-19.7-29.3h-42.6l37.5,55.5h71.8l3.2,4.6h-87l-8.2,25.4h155l-26.7-39.5l-42.4-15.9l1.5-4.7h26.9
				l-17.2-25.5L220-352.4z M704.2-262.2H525.1l-37.4-14l9.4,14l-338.1,0l11.2-34.6h9.9L139.4-357h53.7l15.8,23.5l7.6-23.5l183,0
				l44.8,16.8l2.1,3.1l26.3-19.8h80.2l13.4,19.8l26.3-19.8h80.2l41.9,62.1L704.2-262.2z M899.1-296.9h29l3.1,4.6h-29L899.1-296.9z
				 M1281.8-322.3l1.6-4.7h29.5l-17.2-25.5l-45.2,0l-9.5,29.3l-19.7-29.3h-42.6l37.5,55.5h71.8l3.2,4.6h-74.5l-8.2,25.4h142.5
				l-26.7-39.6L1281.8-322.3z M1096.8-352.5l-25.3,19.1l44.9,66.6h86.9l8.2-25.5l-69.7,0l-3.2-4.6h71.7l-17.2-25.5l-71.7,0l-3.2-4.6
				h71.7l-17.2-25.4H1096.8z M1090.6-296.9l-17.2-25.5h-66.1l17.2,25.5L1090.6-296.9z M1053.2-352.5H977l-25.3,19.1l34.1,50.6
				l42.7,16h82.4l-17.2-25.5l-71.7,0L998.6-327h71.7L1053.2-352.5z M933.3-352.5h-42.6l20.3,30.1h-29l-20.3-30.1H819l47,69.7
				l42.7,16h44.3l25.3-19.1L933.3-352.5z M840.1-312.9l-6.4-9.4h-18.9L840.1-312.9z M770.9-352.4l-9.5,29.3l-19.7-29.3H699
				l37.5,55.5h71.8l3.2,4.6h-87l-8.2,25.4h155l-26.7-39.5l-42.4-15.9l1.6-4.7l26.9-0.1l-17.1-25.4L770.9-352.4z M1359.5-262.2
				l-331.8,0L982.9-279l-2.1-3.1l-26.3,19.9h-46.6l-37.4-14l9.4,14h-170l11.2-34.6h9.9L690.4-357h53.7l15.8,23.5l7.6-23.5l96.5,0
				l20.3,30.1h17.9L882-357.1h53.7l13.4,19.9l26.3-19.9h80.2l13.4,19.8l26.3-19.8l128.4,0l15.8,23.5l7.6-23.5l50.9,0l23.4,34.6h-27
				l32.6,12.2L1359.5-262.2z M420-296.9l-17.2-25.5h-18.1l17.2,25.5H420z M376.1-327h29.2l23.4,34.7h-29.2L376.1-327z"/>
		</g>
		<g id="g126769" transform="matrix(0.35277777,0,0,-0.35277777,-2.1888203,65.220643)">
			<path id="path126771" inkscape:connector-curvature="0" class="st0" d="M456.4-289.8L405.6-365h30.1l50.7,75.2H456.4z"/>
		</g>
		<g id="g126773" transform="matrix(0.35277777,0,0,-0.35277777,16.168041,74.582024)">
			<path id="path126775" inkscape:connector-curvature="0" class="st0" d="M551.8-338.5h71.7l30.4,45.1h-53.7l4.9-15h8.6l-10.1-15
				H562l30.4,45.1h71.7l10.1,15h-71.7l-40.2-15l-30.4-45.1L551.8-338.5z"/>
		</g>
		<g id="g126777" transform="matrix(0.35277777,0,0,-0.35277777,68.854908,67.093222)">
			<path id="path126779" inkscape:connector-curvature="0" class="st0" d="M825.8-299.5h41.6l-10.1-15h-41.6L825.8-299.5z
				 M795.7-299.5l-40.6-60.2h30.1l20.3,30.1h41.6l-20.3-30.1h30.1l40.6,60.2l-19.9,15H836L795.7-299.5z"/>
		</g>
		<g id="g126781" transform="matrix(0.35277777,0,0,-0.35277777,78.718892,74.582024)">
			<path id="path126783" inkscape:connector-curvature="0" class="st0" d="M877.1-338.5h71.7l10.1,15h-71.7l30.4,45.1h71.7l10.1,15
				h-71.7l-40.2-15l-30.4-45.1L877.1-338.5z"/>
		</g>
		<g id="g126785" transform="matrix(0.35277777,0,0,-0.35277777,105.08663,70.837888)">
			<path id="path126787" inkscape:connector-curvature="0" class="st0" d="M1014.2-319l10.1,15h-71.7l10.1,15h65.3l-4.8,15h-80.4
				L902.3-334l19.9-15H994l10.1,15h-71.7l10.1,15H1014.2z"/>
		</g>
		<g id="g126789" transform="matrix(0.35277777,0,0,-0.35277777,42.537474,70.837888)">
			<path id="path126791" inkscape:connector-curvature="0" class="st0" d="M689-319l10.1,15h-71.7l10.1,15h65.3l-4.8,15h-80.4
				L577-334l19.9-15h71.7l10.1,15h-71.7l10.1,15H689z"/>
		</g>
		<g id="g126793" transform="matrix(0.35277777,0,0,-0.35277777,117.82452,74.580472)">
			<path id="path126795" inkscape:connector-curvature="0" class="st0" d="M1080.5-338.5l10.1,15h-23.5l-4.9,15h6l40.2,15l20.3,30.1
				h-125.5l4.9-15h80.5l-10.1-15h-71.8L976-338.5h30.1l20.3,30.1h5.7l9.8-30.1L1080.5-338.5z"/>
		</g>
		<g id="g126797" transform="matrix(0.35277777,0,0,-0.35277777,57.809577,74.580472)">
			<path id="path126799" inkscape:connector-curvature="0" class="st0" d="M768.4-338.5l10.1,15h-20.9l-4.9,15h6l40.2,15l20.3,30.1
				H681l4.9-15h93l-10.1-15h-71.8l-30.4-45.1h30.1l20.3,30.1h5.7l9.8-30.1L768.4-338.5z"/>
		</g>
		<g id="g126801" transform="matrix(0.35277777,0,0,-0.35277777,-10.752642,74.580472)">
			<path id="path126803" inkscape:connector-curvature="0" class="st0" d="M411.8-338.5l10.1,15H401l-4.9,15h6l40.2,15l20.3,30.1
				H324.5l4.9-15h93l-10.1-15h-71.8l-30.4-45.1H340l20.3,30.1h5.7l9.8-30.1L411.8-338.5z"/>
		</g>
		<g id="g126805" transform="matrix(0.35277777,0,0,-0.35277777,7.6924145,72.710291)">
			<path id="path126807" inkscape:connector-curvature="0" class="st0" d="M507.7-328.7H466l30.4,45.1h41.7L507.7-328.7z
				 M476.5-268.6l-50.7-75.2h71.8l40.2,15l40.6,60.2H476.5z"/>
		</g>
	</g>
</g>
</svg>
