<?xml version="1.0" encoding="utf-8"?>
<!-- Generator: Adobe Illustrator 19.0.0, SVG Export Plug-In . SVG Version: 6.00 Build 0)  -->
<svg version="1.1" id="Layer_1" xmlns="http://www.w3.org/2000/svg" xmlns:xlink="http://www.w3.org/1999/xlink" x="0px" y="0px"
	 viewBox="-242 361.2 125.8 70.8" style="enable-background:new -242 361.2 125.8 70.8;" xml:space="preserve">
<style type="text/css">
	.st0{fill:#FFFFFF;}
</style>
<path class="st0" d="M-227.2,390.4c-0.9-0.1-0.8,1.2-0.8,1.2v10.7c0,0-0.1,1.1,0.8,1.2c0.9,0.1,0.8-1,0.8-1v-10.8
	C-226.3,391.1-226.3,390.5-227.2,390.4z"/>
<path class="st0" d="M-237,380.4v9.3c0,0,1.7,1.2,1.7-1v-6C-235.3,381.1-235.9,380.8-237,380.4z"/>
<path class="st0" d="M-174.1,395.9c0.5,0,0.9-0.8,0.9-0.8v-4.7c0,0,0.1-0.6-0.9-1c-0.9-0.3-0.9,0.9-0.9,0.9v4.5
	C-175,394.9-175,395.9-174.1,395.9z"/>
<path class="st0" d="M-168.8,411.9c-0.9,0-2.3,2.2-2.3,5.9c0,3.7,1.3,6.1,2.3,6.2c0.9,0.1,2.3-2.1,2.3-5.9
	C-166.5,414.4-167.8,412-168.8,411.9z"/>
<path class="st0" d="M-183.9,397.5c0.7-0.1,0.7-1,0.7-1v-14c0-0.7-0.1-1.2-1-1c-0.7,0.2-0.7,1.1-0.7,1.1v14
	C-184.8,396.6-184.8,397.6-183.9,397.5z"/>
<path class="st0" d="M-159,412.4c-1,0-2.5,2.3-2.5,6.1c0,3.8,1.5,6.4,2.5,6.5c1,0.1,2.5-2.2,2.5-6.1C-156.5,415-158,412.4-159,412.4
	z"/>
<path class="st0" d="M-143,380.1c-1.4-0.2-1.3,1.8-1.3,2.9v3.9l2.9,1v-5.3C-141.4,381.4-141.6,380.3-143,380.1z"/>
<path class="st0" d="M-210.6,388.9c0,0-0.8,0-0.8,0.8v4.7l1.6-0.2v-4.6C-209.9,388.8-210.6,388.9-210.6,388.9z"/>
<path class="st0" d="M-124.8,376.7c-3-1.4-7.9-3.9-10-3.8c-2.1-2.3-2.7-2.3-4.6-2.7c-1.9-0.4-4.4,0-4.4,0v-0.9h-2.3v-8.1h-12.4v7.2
	l-2.7,0.3c-5,0.6-5.6,2-5.6,2s-1.7-0.7-5.8-0.1c-4,0.6-5.5,2.4-5.5,2.4s-0.6,0-2.7,0.1c-2.1,0-4,0.8-4,0.8v-3.7
	c0-4.3-3.2-4.5-3.2-4.5s-7,0-9.7,2.8c-1.8,1.9-2.5,3-2.5,7v4c-2,0.2-3.3,1.4-3.3,1.4s-0.2,0.2-4.3,1.7c-1.4-0.5-3.7,0.1-3.7,0.1V374
	l-2.6,0.2l-10.5,1.5v8.1c-1.8,0.1-1.4-0.1-4,0.7c0-7.6-1.2-9-4.1-10.8c-3.8-2.4-6.6-2.5-6.6-2.5l-2.7,0.4v33.2l10.4,5.1v-1.1
	c0,0,0.9,1.6,3.8,1.8c2.9,0.2,3.7-0.6,3.7-0.6l0.2,0.9h8.7v-0.6c0,0,1.1,0.8,4,0.4c2.9-0.4,3.5-1,3.5-1l5.6-1.5l3.3-1.7
	c0,0,0.7,1.4,4.3,1.1c0.2,0,0.4,0,0.6-0.1v0.6c-2.8,1.9-4.5,4.2-4.7,6.8c-0.6,8,13.1,15.6,30.7,16.9c8.6,0.7,16.4-0.3,22.4-2.3
	l3.9,0.4l0.6-0.6v-1.6c3.7-2,6.2-4.7,6.2-7.7c0-4.5-2.8-7-3.4-7.5l11.1,8.7l3.7-2.2v-15.9l3.4,2.6l3.8-1.9v-14.5
	C-116.2,380.9-121.8,378.1-124.8,376.7z M-231.8,396.9v10.2l-3.3-1.4v-8.8c0-1.9-2-1.9-2-1.9v10l-3.3-1.8v-29.8c0,0,8.4,1.4,8.4,8
	v6.8c0,1.4,0,3.9-2.6,4.8C-231.6,394-231.8,396.9-231.8,396.9z M-223.7,405.4c0,2.1-1.6,3.5-3.9,3c-2.3-0.5-3.2-1.8-3.2-5v-13.8
	c0,0-0.1-4,3.3-4s3.8,3.3,3.8,5.2C-223.7,390.8-223.7,405.4-223.7,405.4z M-219.4,408.8h-3V377l3-0.3
	C-219.4,376.7-219.4,408.8-219.4,408.8z M-215.3,408.7h-2.9v-32.1l2.9-0.4C-215.3,376.2-215.3,408.7-215.3,408.7z M-206.9,397.5
	l-4.6,0.6v4.4c0,1.1,0.3,1.2,0.7,1.2c0.4,0,0.9-0.3,0.9-1v-2l3-0.3v3.7c0,3.1-1.1,4.1-4.1,4.3c-2.4,0.2-3.4-1.4-3.4-4.7v-14.1
	c0-3.7,2-4.9,4.1-5.4c2.1-0.5,3.4,1.2,3.4,3.6S-206.9,397.5-206.9,397.5z M-199.2,391.6l-2.4,0.4v-3.9c0-1.2-0.8-0.7-0.9-0.7
	c-0.1,0.1-0.4,0.3-0.4,1v18l-2.9,0.7v-23.4l2.9-1.1v1.5c0,0,1.2-2,2.2-2.2c1.5-0.4,1.5,0.8,1.5,2.4
	C-199.2,384.3-199.2,391.6-199.2,391.6z M-157.6,371.8l1.3,0.1v-8.3h4.4l-0.1,8.7l2.6,0.2v7.2l-3-0.6v16.1c0,0-0.5,2.3,2.3,2.8v6.6
	c0,0-6.4,0.3-6.4-7.1v-18.9l-1.1-0.3C-157.6,378.3-157.6,371.8-157.6,371.8z M-157.7,403.1c0,0,0.3,0.5,0.8,1.2
	c-0.5-0.1-1-0.2-1.5-0.3C-157.8,403.5-157.7,403.1-157.7,403.1z M-178.5,390.5c0-5.2,1.9-5.8,3.3-5.9c0.9-0.1,1.9,0.6,1.9,0.6v-5.9
	c0-0.8-0.3-0.8-0.9-0.8c-0.6,0-0.6,0.9-0.6,0.9v2.5l-3.3,0.4c0,0-0.1-2.2-0.1-4.5c0-2.3,1-4.1,5-4.8c4-0.8,4,3.7,4,3.7v23.7l-4,0.8
	v-1.5c0,0-0.8,2-2.7,2s-2.6-1.3-2.6-3.6C-178.5,395.8-178.5,395.7-178.5,390.5L-178.5,390.5z M-188.1,382.5c0-2.6,0.2-4.7,3.7-6.3
	c2.7-1.2,4.8-0.1,4.8,2.9v18c0,2.8-0.3,4.8-3.5,5.7c-3.7,1.2-5-1.4-5-4.6C-188.1,398.2-188.1,382.5-188.1,382.5z M-188,405
	c0.1,0.1,0.2,0.2,0.3,0.2c-0.4,0.1-0.8,0.3-1.2,0.4C-188.7,405.5-188.4,405.3-188,405z M-198.2,399.4v-24.2c0,0-0.5-4.4,3.9-6.6
	c4.4-2.2,5,0.7,5,2.6v8.4l-3.6,1.2v-5.5c0,0,0-0.9-0.9-0.7c-0.9,0.2-0.8,0.9-0.8,1.5v21.5c0,0.6-0.1,1.4,1,1.1
	c0.7-0.2,0.8-0.4,0.8-1.4c0-1.4,0.1-5.9,0.1-5.9l3.5-1.2v8.8c0,0,0.3,4.9-4.3,6C-198.1,406.3-198.2,402.4-198.2,399.4z
	 M-193.1,407.5c0.1,0,0.2,0,0.3-0.1c0,0-0.1,0-0.1,0.1H-193.1z M-186.6,412.5l-1.6-0.1V411h-0.8v10.8l0.6,0.1v1.8l-2.8-0.3v-1.7
	l0.6,0.1v-10.9h-0.8v1.3l-1.5-0.1V409l6.2,0.2v3.3C-186.7,412.5-186.6,412.5-186.6,412.5z M-181.5,422.7v1.8l-3-0.3v-1.8l0.6,0.1
	v-5.3c-2-2.2-1.9-7.2-1.9-7.8l1.6,0.1c0,1.7,0.3,4.6,1.1,6.1c0.9-1.4,1.2-4.2,1.1-6h1.7c0,0.6,0,5.8-2,7.7v5.3
	C-182.3,422.6-181.5,422.7-181.5,422.7z M-176,423.2c0.4,0,0.8-0.4,1-0.7l1.5,1.3c-0.9,1.2-1.8,1.4-2.5,1.3c-2.2-0.3-3.9-3.7-3.9-8
	c0-4.3,1.6-7.5,3.9-7.4c1.2,0,2.2,1,3,2.7l-1.7,0.7c-0.4-0.9-0.9-1.5-1.3-1.5c-0.9,0-2.1,2.1-2.1,5.7S-176.9,423.2-176,423.2z
	 M-168.8,426c-2.4-0.3-4.1-3.9-4.1-8.3s1.8-7.8,4.1-7.7c2.4,0.1,4.3,3.7,4.3,8.3C-164.5,423-166.3,426.2-168.8,426z M-167.9,397.5
	v-5l3.6-0.1v2.2c0,1.7,0.4,1.7,1.1,1.7c0.7,0,0.8-0.6,0.8-3.2s-0.4-2.4-2.5-3.6c-2.2-1.2-2.8-2.7-2.8-4.1v-7.1c0-5.3,1.4-6.4,5-7
	c3.6-0.6,4.1,2.5,4.1,4.3v5h-3.6v-2.8c0-0.5,0-0.8-0.9-0.8s-0.8,0.8-0.8,0.8v2.6c0,1.8,0.3,2.5,2.6,3.7c2.3,1.2,2.6,2.4,2.6,4.6v7.7
	c0,3.5-1.2,5.9-5.2,5.4C-167.9,401.2-167.9,397.5-167.9,397.5z M-159,427.1c-2.6-0.3-4.5-4.1-4.5-8.7c0-4.6,1.9-8.1,4.5-8
	c2.7,0.1,4.7,3.9,4.7,8.7C-154.3,424-156.4,427.4-159,427.1z M-142.1,413.3l-1.2-0.1v15.5l-2.1-0.2l-5.1-11.5v11.1l-3.1-0.4v-2.1
	l0.9,0.1v-12.9h-0.9v-2.1l2.7,0.1l5.2,11.5V411l3.5,0.1v2.2C-142.2,413.3-142.1,413.3-142.1,413.3z M-136.8,396.3l-7.3-3.2v5.4
	c0,1.7,0.1,2.3,1,2.8c0.9,0.4,2,0.8,1.8-3.1c4,2,4.5,2.5,4.5,2.5v3.2c0,3.5-2,6-6,4.3s-5.8-4.4-5.8-9.7v-19.3c0,0,0.8-7.3,5.7-5.7
	c4.9,1.6,6.2,4.7,6.2,10.6C-136.8,390-136.8,396.3-136.8,396.3z M-123.5,399.8l-4.4-3.5V391c0-2-0.6-2.6-1.1-2.7s-1.5-0.2-1.5,1.8
	v25.3l-5-3.6l0.3-34.2l5,2.8v3c0,0,1-2.9,2.9-2c1.8,0.9,3.8,1.6,3.8,6.9C-123.5,393.6-123.5,399.8-123.5,399.8z"/>
</svg>
