<?xml version="1.0" encoding="utf-8"?>
<!-- Generator: Adobe Illustrator 19.0.0, SVG Export Plug-In . SVG Version: 6.00 Build 0)  -->
<svg version="1.1" id="Layer_1" xmlns="http://www.w3.org/2000/svg" xmlns:xlink="http://www.w3.org/1999/xlink" x="0px" y="0px"
	 viewBox="-235 377 141 39" style="enable-background:new -235 377 141 39;" xml:space="preserve">
<style type="text/css">
	.st0{fill:#FFFFFF;}
</style>
<g>
	<path class="st0" d="M-99.8,389.9L-99.8,389.9c-0.5-0.5-1.1-1-1.7-1.5l-0.3-0.3c-0.7-0.8-1.7-2.3-2.4-3l0.2-1.1c0,0,1.1-0.3,2.2,0
		c0,0-3.4-1.9-9.1-3.1c-1.4-0.6-2.9-1.1-4.4-1.4c-1.8-0.5-3.7-0.7-5.5-0.9c-0.9-0.1-1.8-0.1-2.7-0.1c-0.9,0-1.8,0-2.6,0
		c-0.4,0-1.1,0-1.9,0.1c-14.3,0.3-25.7,6.5-32.7,15.4c-0.2,0.2-0.3,0.4-0.5,0.6c-0.5-0.3-1-0.6-1.5-1c0.8,0.5,1.4,0.9-0.1-0.1
		c-1.6-1-0.9-0.5-0.1,0c-2.2-1.4-7-3.6-3.9-6.6c1.9-1.9,6.2-0.4,6.7,2.6l0.5,2.4v-6.7c-0.2,0-0.1,0-0.2,0l0,0
		c-4.2-0.1-10.4-0.9-11.1,4.7c-0.5,4.3,4,5.6,7.2,7.7c-2.1,2.6-4.3,5.2-6.9,7.4c-0.5-0.5-0.9-1.2-1-1.8c-0.1-0.5-0.2-1-0.2-1.5
		c0-4.4,4.7-3.3,4.7-3.3l-3.1-1.8c-2.6,2-2.8,4.1-2.7,5.1c0,0.5,0.1,1.1,0.2,1.6c0.2,1,0.7,1.8,1.3,2.4c-2,1.7-4.3,3.2-6.9,4.5
		c-4,1.6-7.5,2.8-13.2,2.8c-5.4,0-10.5-1-15.4-3.3c-6.3-3-10.8-7.4-13.6-12.5c0.9-0.5,4.1-2.5,4.1-6.6c0-6.4-7.7-5.9-7.7-5.9h-0.6
		l1.2,1.2c3.1,0.8,3.1,5.2,3.1,5.2c0,3.6-1.6,5.1-3,5.9c-1.1,0.6-1.8,0.4-1.8,0.4s0.2,1.5,1.1,3c3.1,4.7,6.6,7.3,9.6,8.9
		c8,4.9,18.3,6.7,27.5,5.1c0,0,0,0,0.1,0s0.2-0.1,0.2-0.1c1.5-0.4,3-0.9,4.5-1.5c4.7-1.6,8.3-3.8,11.4-6.5c1.7,1.4,4,2,6.2,1.9
		c2.9-0.1,6.5-2.1,7.5-5c1.3-3.8-0.8-6.2-3.5-8.1c0.1-0.2,0.3-0.3,0.4-0.5c7-8.8,18.4-14.9,32.4-15.2c1,0,2,0,2.4,0
		c1.5,0.1,3,0.2,4.5,0.4c1.7,0.3,3.5,0.6,5.2,1.2c1.7,0.5,3.4,1.3,4.9,2.1c0.7,0.4,2.5,1.6,3.1,2.2c0.4,0.3,0.8,0.7,1.1,1
		c1.3,1.2,2.4,2.6,3.2,4c0.9,1.4,1.9,4,2.2,5.6c0.3,1.3,0.4,2.6,0.4,3.9c-0.1,3.2-1.1,6.3-2.9,8.9c-0.4,0.6-0.9,1.1-1.3,1.6
		c-0.6,0.7-1.3,1.3-2,1.9c-1.8,1.3-3.7,1.7-4.5,2c-1.5,0.5-3.1,0.7-4.6,0.9c-1.5,0.2-3,0.2-4.4,0.1c-1.4-0.1-2.8-0.3-4-0.6
		c-1.3-0.3-2.4-0.6-3.5-1.1c-1.1-0.4-1.7-0.8-2.3-1.1c0.1-0.1,0.9-0.6,1.7-0.4c0,0-3.5-1.2-7.3-3.1l6.1,5.5l-0.5-1.9
		c0.6,0.3,1.2,0.7,2.2,1.1c2.2,0.9,4.8,1.5,7.6,1.6c1.4,0.1,2.9,0.1,4.5,0c1.3,0,4.5-0.5,5.8-0.9c1.3-0.4,2.6-0.8,3.9-1.4
		c1.6-0.8,3.1-1.8,4.5-3.1l0,0l2.1-0.1c0,0,0.6,0.9,0.6,1.9c0,0,1.3-3,1-7.5c0.2-0.9,0.6-3.5,0.6-4.4c0-0.4,0-0.8,0-1.2s0-0.7,0-1.1
		l1.4-1.2c0,0,1.1,0.4,1.8,1.2C-94.5,397.6-95.6,393.8-99.8,389.9z M-169.7,405.7c-0.1,0-0.1-0.1-0.2-0.1c2.6-2.3,4.8-4.8,6.9-7.5
		c1.1,0.8,2,1.7,2.3,3C-159.1,406.8-166.1,408-169.7,405.7z"/>
	<path class="st0" d="M-106.2,391.1v-2.4h-10.5c1.2,0.5,1.1,1.7,1.1,1.7v4.7c-0.4,0.5-0.8,0.8-0.8,0.8s0.5,0.3,0.8,0.8v5.3
		c0,0.2,0,0.5-0.1,0.7c-0.1,0.3-0.4,0.8-1,1.2h10.4v-2.5c-0.2,1.1-1.5,1.1-1.5,1.1h-5v-5.8h2.9c0,0,0.8-0.1,1.2,0.8v-2.8
		c-0.4,0.9-1.3,0.8-1.3,0.8h-2.8v-5.4h5C-107.7,390.1-106.6,390-106.2,391.1z"/>
	<path class="st0" d="M-135.2,403.9h6c-1.2-0.8-1.5-1.3-1.8-1.7c-0.1-0.2-1.2-2.6-2.3-5.4c0-0.1,0-0.6,0.6-1.4h-1.2
		c-1.4-3.4-2.8-6.7-2.8-6.7h-0.1h-1h-2.3c1.2,0.6,1.5,1.9,1.5,1.9l-2,4.8h-1.2c0.6,0.8,0.6,1.4,0.6,1.4l-1,2.3
		c-0.2,0.6-1.7,2.2-2.5,2.7c-0.8,0.5-2.1,1.1-3.9,1.1c-1.7,0-2.8-0.3-3.7-1.1c-0.5-0.4-0.9-1-1.2-1.6c-0.4-0.8-0.5-1.7-0.6-2.5
		c0-0.3,0-0.6,0-0.9c0.4-0.5,0.8-0.8,0.8-0.8s-0.5-0.3-0.8-0.8c0-0.1,0-0.3,0-0.4c0.1-0.9,0.3-1.8,0.7-2.6c0.3-0.6,0.7-1.1,1.1-1.5
		c0.9-0.8,2-1.1,3.7-1.1c1.8,0,3.2,0.5,3.8,1.2c0.4,0.4,0.6,1,0.8,1.6V389c-0.6-0.1-1.1-0.2-1.6-0.3c-0.9-0.1-1.6-0.2-2.9-0.2
		c-2.6,0-4.3,0.6-5.7,1.6l0,0c-0.2,0.1-0.4,0.3-0.5,0.4s-0.2,0.2-0.3,0.4c-0.5,0.5-0.8,1.1-1.1,1.7c-0.1,0.1-0.1,0.3-0.2,0.4
		c-0.3,0.7-0.5,1.4-0.6,2.2c-0.4,0.5-0.8,0.8-0.8,0.8s0.4,0.3,0.8,0.8c0,0.9,0.2,1.9,0.6,2.7c0.1,0.1,0.1,0.2,0.2,0.4
		c0.3,0.6,0.7,1.2,1.1,1.7c0.1,0.1,0.2,0.3,0.3,0.4c0.9,0.8,2,1.4,3.4,1.8l0,0c0.8,0.2,1.7,0.3,2.8,0.3h-0.1h8.2
		c-0.6-0.4-0.9-0.9-1-1.2c0-0.2-0.1-0.5-0.1-0.6c0,0,0.5-1.3,1.2-3h4.9c0.6,1.6,1.1,2.9,1.1,2.9c0.1,0.1,0,0.5-0.1,0.7
		C-134.4,403.1-134.6,403.5-135.2,403.9z M-139.7,397.8c0.7-1.6,1.4-3.4,1.9-4.8c0.5,1.2,1,2.6,1.6,4l0.3,0.8H-139.7z"/>
	<path class="st0" d="M-173.2,391.1v-2.4h-10.5c1.2,0.5,1.1,1.7,1.1,1.7v4.7c-0.4,0.6-0.8,0.9-0.8,0.9s0.5,0.3,0.8,0.8v5.3
		c0,0.2,0,0.5-0.1,0.7c-0.1,0.3-0.4,0.8-1,1.2h10.4v-2.5c-0.2,1.1-1.5,1.1-1.5,1.1h-5v-5.8h2.9c0,0,0.8-0.1,1.2,0.8v-2.8
		c-0.4,0.9-1.3,0.8-1.3,0.8h-2.8v-5.5h5C-174.8,390-173.6,389.9-173.2,391.1z"/>
	<path class="st0" d="M-185.5,402.2v-3.7l0,0c0,0,0-0.7,0-1.7c0.4-0.5,0.8-0.8,0.8-0.8s-0.5-0.3-0.8-0.8c0-1.9,0-4,0-4.8
		c0-0.2,0-0.4,0.1-0.5c0.1-0.3,0.4-0.7,1-1.1h-4.7c1.2,0.8,1.1,1.6,1.1,1.6v9.3l-7.1-11h-3.6c1.2,0.6,1.1,1.6,1.1,1.6v4.8
		c-0.4,0.6-0.9,0.9-0.9,0.9s0.5,0.3,0.8,0.8v5.3c0,0.2,0,0.5-0.1,0.7c-0.1,0.3-0.4,0.8-1,1.2h4.8c-1.2-0.8-1.1-1.8-1.1-1.8v-9.3
		l6.9,11.1h3.7C-185.6,403.3-185.5,402.2-185.5,402.2z"/>
	<path class="st0" d="M-200.4,395.2v-4.8c0,0-0.1-1,1.1-1.6h-0.4l0,0l0,0c-0.1,0-1,0-1.8,0c-0.4,0-0.8,0-1.2,0c-0.4,0-0.7,0-0.9,0
		h-0.1h-0.5h-0.1c0.6,0.4,0.9,0.7,1,1.1c0,0.2,0.1,0.3,0.1,0.6c0,0.5,0,1,0,1.5c0,0.7,0,1.4,0,2.1c0,0.4,0,0.8,0,1.2
		c-0.4,0.4-0.8,0.7-0.8,0.7s0.5,0.3,0.8,0.8c0,0.4,0,0.8,0,1.3c0,0.3,0,0.7,0,1c0,0.1,0,0.3,0,0.4c0,0.3-0.1,0.6-0.2,0.9
		c-0.1,0.4-0.3,0.8-0.5,1.2c-0.3,0.4-0.7,0.8-1.2,1.1c-0.5,0.3-1.1,0.5-1.7,0.5s-1.2-0.1-1.8-0.4c-0.5-0.2-0.9-0.6-1.2-1
		c-0.3-0.4-0.5-0.8-0.6-1.2c-0.1-0.3-0.1-0.6-0.2-0.9c0-0.2,0-0.4-0.1-0.5c0-0.3,0-0.7,0-1c0-0.4,0-0.8,0-1.2
		c0.3-0.5,0.8-0.8,0.8-0.8s-0.4-0.3-0.8-0.8c0-0.4,0-0.8,0-1.2c0-0.7,0-1.4,0-2.1c0-0.5,0-1,0-1.5v-0.1c0-0.2,0.1-0.4,0.1-0.5
		c0.1-0.3,0.4-0.7,1-1.1h-0.1h-0.5h-0.1h-0.9h-1.2h-1.8l0,0l0,0h-0.4c1.2,0.6,1.1,1.6,1.1,1.6v4.8c-0.3,0.5-0.8,0.8-0.8,0.8
		s0.5,0.3,0.8,0.8v1.3c0,2,0.3,5,4,6c0.6,0.2,1.3,0.3,2.2,0.3c0.1,0,0.3,0,0.4,0c0.1,0,0.3,0,0.4,0c0.9,0,1.6-0.1,2.2-0.4
		c3.7-1,3.9-3.9,3.9-6v-1.3c0.3-0.5,0.8-0.8,0.8-0.8S-200,395.7-200.4,395.2z"/>
	<path class="st0" d="M-224.9,384.6L-224.9,384.6h-1l0,0h-2.1l-0.3-4.5c0-0.2,0-0.4-0.1-0.6c0.2-0.2,0.4-0.5,0.4-0.8
		c0-0.6-0.5-1.1-1.1-1.1c-0.6,0-1.1,0.5-1.1,1.1c0.1,0.3,0.2,0.6,0.5,0.8c-0.1,0.2-0.1,0.4-0.1,0.6l-0.3,4.5h-3.3l0,0l-1.1,1.1
		l1.1,1.1l1.1-1.1h0.7c0.3,0.4,0.6,0.9,0.6,1.4c0,1.6,0,5.4,0,8.1c-0.4,0.5-0.8,0.8-0.8,0.8s0.4,0.3,0.8,0.8c0,0.5,0,0.9,0,1.2
		c0,0,0.2,9.2-0.6,10.8c0,0,1.9,3.2,2.6,4.2c0,0,2-3.2,2.6-4.2c-1-1.8-0.9-10.8-0.9-10.8v-10.9c0-0.6,0.3-1,0.6-1.4h0.7l1.1,1.1
		l1.1-1.1L-224.9,384.6z"/>
	<path class="st0" d="M-122.8,388.7h-7.2l0,0l0,0c0,0,1.2,0.5,1.2,1.6c0,0.5,0,2.5,0,4.9c-0.3,0.5-0.8,0.8-0.8,0.8s0.4,0.3,0.8,0.8
		c0,1.3,0,2.4,0,2.8c0,0,0,0.1,0,0.2c0,2.6,0,4.8,0,5.1l0,0c0,1.9-0.1,3.6-0.4,4l0,0l0,0c0,0,1.3,2,1.8,2.6c0,0,1.4-1.9,1.8-2.6l0,0
		l0,0c-0.2-0.4-0.3-2.1-0.4-4v-6.1h1c0.1,0,0.3,0,0.4,0h0.5l0,0c2.4-0.1,7.2-0.9,7.2-5.3C-116.8,388.6-122.8,388.7-122.8,388.7z
		 M-120.1,393.7c0,1.3-1.1,3.5-3.9,3.5h-2v-0.7v-3.7v-2.7c0-0.5,1.4-0.4,1.7-0.4C-119.9,389.9-120.1,393.7-120.1,393.7z"/>
</g>
</svg>
