<?xml version="1.0" encoding="utf-8"?>
<!-- Generator: Adobe Illustrator 19.0.0, SVG Export Plug-In . SVG Version: 6.00 Build 0)  -->
<svg version="1.1" id="Layer_1" xmlns="http://www.w3.org/2000/svg" xmlns:xlink="http://www.w3.org/1999/xlink" x="0px" y="0px"
	 viewBox="0 0 3818 1649" style="enable-background:new 0 0 3818 1649;" xml:space="preserve">
<style type="text/css">
	.st0{fill:#FFFFFF;}
</style>
<g>
	<path class="st0" d="M3820,360c-0.5,2.9-1.3,5.8-1.5,8.8c-2.1,32.9-4.1,65.8-6,98.7c-1.6,27.9-3,55.9-4.5,83.8
		c-1.5,26.3-3,52.6-4.6,78.8c-2.6,41.9-5.2,83.8-7.9,125.7c-1.8,28.9-3.3,57.9-5.5,86.8c-3.5,45.5-5.5,91.1-8.3,136.6
		c-1,16.3-2.6,32.5-3.7,48.8c-0.7,11-0.9,21.9-1.5,32.9c-2.3,39.3-4.6,78.5-6.9,117.8c-2.1,33.9-4.2,67.8-6.4,101.7
		c-1.1,18.3-2.3,36.6-3.4,54.9c-2.7,43.6-5.4,87.1-7.9,130.7c-1.5,24.9-2.2,50-4.4,74.8c-1,11.6-2.1,23.2-2.7,34.8
		c-0.5,10.3-1.1,20.6-1.4,30.9c-0.1,4.2-0.7,7.6-4.9,10.1c-2.7,1.5-4.5,4.6-7.3,7.7c-1.1,0.1-3,0.5-5,0.3c-3.8-0.3-7.3-0.1-10.6,1.9
		c-3.6,2.2-7.6,2.2-11.6,2.1c-18.3-0.4-36.6-0.8-54.9-1.5c-6-0.2-11.9-1.6-17.8-2.4c-5.3-0.6-10.6-1.5-15.9-1.5
		c-4.8,0-9.2-0.7-13.6-2.5c-10-3.9-20.3-6.1-31.2-5.9c-11.5,0.2-22.5-2.5-32.6-8c-6.7-3.7-13.3-7.6-20-11.3c-4.1-2.3-6-5.6-6.1-10.5
		c-0.7-23.3-1.6-46.6-2.5-69.9c-1.4-35-3-69.9-4.4-104.9c-1.3-32.3-2.3-64.6-3.6-96.9c-1.3-32.3-3.1-64.6-4.5-96.9
		c-1.3-30.6-2.1-61.3-3.3-91.9c-0.6-16-1.4-31.9-3.2-48c-0.6,5.4-1.4,10.9-1.6,16.3c-1.5,33.6-2.9,67.2-4.2,100.9
		c-1.1,30-1.9,60-3.1,89.9c-1.9,50-3.9,99.9-6,149.8c-1.3,31.6-2.8,63.2-4.1,94.8c-0.5,10.6-2.4,21.2-1.3,31.9
		c0.2,1.8-0.8,3.8-1.5,6.4c-2.2-0.7-4.3-0.9-5.6-1.9c-9.3-7.1-19-13.4-29.7-18.2c-11.8-5.3-23.7-10.5-35.6-15.7
		c-3.7-1.6-7.5-3-10.9-4.9c-13.4-7.5-27.8-11-42.9-12c-6-0.4-11.9-1.2-17.9-2c-7.7-1.1-15,0.4-20.7,5.4
		c-12.4,10.9-27.7,15.7-42.6,21.3c-5.3,2-10.6,3.9-16,5.7c-2.1,0.7-4.4,1-7.4,1.6c-0.5-3.1-1.1-5.5-1.3-8.1
		c-2.5-36.2-4.9-72.4-7.2-108.7c-1-16-1.4-31.9-2.3-47.9c-1.1-21.6-2.3-43.2-3.7-64.9c-1.7-26.9-3.8-53.8-5.5-80.8
		c-1.2-18.6-2.2-37.3-3.3-55.9c-1.1-18-2.3-35.9-3.4-53.9c-2.4-38.6-4.7-77.1-7.1-115.7c-1.3-21-2.6-41.9-3.9-62.9
		c-1.9-30.6-3.6-61.2-5.5-91.8c-3.1-50.6-6.4-101.1-9.5-151.7c-1.1-18-1.8-35.9-2.8-53.9c-0.8-14-2.1-27.9-3.1-41.8
		c-0.8-12-1.7-23.9-2.4-35.9c-2-34.9-3.9-69.9-6-104.8c-1.7-28.3-3.9-56.5-5.6-84.8c-1.1-17.9-1.8-35.9-2.4-53.9
		c-0.1-3.5,0.6-7.1,0.9-9.7c3.4-3.2,6.5-2.6,9.4-2.6c38.7-0.2,77.3-0.3,116-0.5c13-0.1,26-0.2,39-0.2c3.9,0,7.9,0.4,11.1,0.6
		c3.2,3.4,3.3,6.7,3.5,10.1c2.1,34.9,4.3,69.8,6.4,104.7c1.8,29.6,3.5,59.2,5.3,88.8c2.1,35.6,4.1,71.2,6.1,106.8
		c2.8,50.2,5.9,100.5,8.3,150.7c1.9,38.6,2.8,77.3,4.2,115.9c1.2,31.3,2.5,62.6,3.6,93.9c0.9,27,1.4,54,2.2,80.9
		c0.2,6.3-0.2,12.6,2.5,21c0.6-12.6,1.1-23,1.5-33.3c1.2-34,2.3-67.9,3.6-101.9c2.7-65.9,5.4-131.9,8.3-197.8
		c1.2-27.6,3.2-55.2,4.8-82.8c1.1-20,2.1-39.9,3.2-59.9c2.1-40.6,4.3-81.2,6.5-121.8c1.9-35.3,3.9-70.5,5.9-105.8
		c1.1-20,2.2-39.9,3.4-59.9c0.2-2.9,0.8-5.8,1.2-8.7c1.9-0.5,3.1-1.2,4.4-1.2c50.3,0,100.7,0,151,0c1.2,0,2.5,0.6,4.2,1
		c1.9,6.2,2.3,12.5,2.6,18.7c2.4,45.9,4.7,91.8,7.1,137.8c0.9,17.3,1.9,34.6,2.8,51.9c0.4,7.3,0.4,14.7,0.8,22
		c0.3,5.3,0.8,10.6,1.2,15.9c0.2,2.3,0.6,4.6,0.7,7c2,36.9,3.9,73.9,5.9,110.8c1.7,31.3,3.5,62.6,5,93.8c1.2,23.6,2.3,47.3,3.2,70.9
		c2,49.9,4.1,99.9,5.9,149.8c1.1,29.3,1.5,58.6,2.5,87.9c0.2,7,1.1,13.9,2.7,20.8c0.4-16.7,0.8-33.4,1.3-50.2
		c0.6-23.3,1.3-46.6,2-69.9c1.3-42.3,2.6-84.6,4.2-126.9c1.6-41,3.3-81.9,5.5-122.9c3.2-60.9,6.8-121.8,10.3-182.6
		c1.2-20.3,2.4-40.6,3.6-60.9c3.3-54.2,6.5-108.4,9.9-162.6c0.2-3.9-0.6-8.1,3-12.2c8.3-0.8,17.2-0.3,26.2-0.4c8.7-0.1,17.3,0,26,0
		c9,0,18,0,27,0s18,0,27,0c8.6,0,17.3,0.2,25.9,0.2c9,0,18-0.1,27-0.2C3820,330.7,3820,345.3,3820,360z"/>
	<path class="st0" d="M2,142c3.3-3.8,3.4-8.6,3.7-13.2c1.1-15.4,4.2-30.4,8.2-45.2c4.7-17.3,12.3-33,24.8-46.1
		c11.8-12.4,26.3-20,42.4-25.3c16.4-5.3,33.4-6,50.3-6.4c20-0.5,40-0.2,60-0.4c25-0.2,50-0.5,74.9-0.8c16.2-0.2,31.7,2.9,46.9,8.2
		c9.8,3.4,19.2,7.2,27.9,13.2c13.1,9,22.4,20.7,29.6,34.5c7.3,14.1,10.7,29.4,13.7,44.7c4,20.4,5,41,5.1,61.7c0.2,44,0.1,88,0.1,132
		c0,16,0.1,32,0.1,48c0,40,0,80,0,120c0,3.6-0.3,7.2-0.4,10.7c-5.4,2.7-10.4,2.1-15.3,2.1c-35.3,0.1-70.7,0-106,0.1c-12,0-24,0-36,0
		c-3.3,0-6.6-0.2-9.1-0.3c-3.7-3.8-2.6-7.6-2.6-11.2c-0.1-28-0.1-56,0-84c0.1-25.3,0.6-50.6,0.6-75.9c-0.1-37.3-0.4-74.6-0.8-112
		c0-4-0.4-8-1.4-11.8c-1.6-6.5-6-10.3-12.8-10.7c-2.6-0.2-5.3-0.1-8,0.2c-5.9,0.7-9.8,3.9-11.3,9.7c-0.7,2.9-1.3,5.9-1.6,8.8
		c-0.4,3.3-0.5,6.7-0.5,10c0,62.7-0.1,125.3,0.3,188c0.1,16.3,1,32.7,3.6,48.8c2.8,17.7,8.2,35,15.2,51.6c11.8,28.1,27.5,54,44.7,79
		c17.9,26.1,36,52.1,53.4,78.5c21.1,32,40.6,65.1,55.3,100.6c10.4,25,18.1,50.8,23.1,77.4c6.9,37.2,9.7,74.6,9.7,112.4
		c0.1,89,0.1,178,0,267c0,23.3-0.8,46.7-5.4,69.7c-2.1,10.4-4.6,20.8-7.9,30.9c-5,15.4-13.2,29.1-25.3,40.2
		c-10.7,9.8-23.2,16.7-36.9,21.2c-20.7,6.9-42.1,10.1-63.9,10.3c-36,0.3-72,0.3-108,0c-21.1-0.2-41.7-3.6-62-9.8
		c-30.9-9.4-51.8-29.3-62.9-59.4c-6.2-16.9-9.8-34.6-11.5-52.6c-0.6-6.3-0.5-12.7-4.1-18.3c0-138,0-276,0-414c4-0.2,8-0.5,12-0.5
		c30.3,0,60.7,0,91,0c18.7,0,37.3-0.1,56,0c3.5,0,7.4-1,10.7,1.8c1.8,4,1,8.4,1,12.6c0,111.3,0,222.6,0.1,334c0,6,0.3,12,0.7,18
		c0.1,2.3,0.6,4.7,1.3,6.8c2.5,7.5,8.3,10.9,17.3,10.6c8.5-0.4,13.5-3.9,15.1-11.8c1.1-5.2,1.4-10.6,1.4-15.9
		c0.3-29.3,0.5-58.7,0.4-88c0-42-0.2-84-0.3-126c-0.1-20.7-0.2-41.3-0.3-62c-0.1-27.9-5-55-14.6-81.2c-8.5-23.3-20.2-45-33.6-65.7
		c-12.8-19.9-26.4-39.2-39.7-58.8c-23.9-35.3-47.5-70.8-67.2-108.8c-14.1-27-25.2-55.1-33.4-84.4c-2.8-9.9-5.2-19.9-6.1-30.3
		c-0.7-8.6-2.7-17.1-3.8-25.6c-1.4-10.5-2.4-21.1-3.5-31.7C5.8,410.6,6.1,403.8,2,398C2,312.7,2,227.3,2,142z"/>
	<path class="st0" d="M2116,2c3.5,0.7,7.1,1.7,10.6,2.1c17.7,1.9,34.9,5.7,51.3,12.5c19.7,8.2,35.4,21.5,44.7,41
		c6.7,14.1,12,28.7,15,44.2c4.1,21.7,5.8,43.6,5.9,65.6c0.3,54.3,0.3,108.6,0.1,163c-0.2,45.3-0.2,90.5,0.8,135.8
		c0.1,3.9,0.9,8-1.3,12.4c-1.9,0.3-4.1,1-6.3,1.1c-22.3,0.1-44.6,0.1-67,0.1c-27.3,0-54.7,0-82,0c-13.8,0-13.6,0.2-13.6-13.9
		c0-83.3,0-166.6,0-250c0-7.3-0.2-14.7-0.3-22c0-1.7-0.3-3.3-0.6-5c-1.8-11.3-7-15.7-18.3-15.3c-9.5,0.4-13.8,3.9-15.6,13.5
		c-0.8,4.2-1.2,8.6-1.2,12.9c0,64.7-0.2,129.3,0.2,194c0.1,17.3,1.3,34.6,4.9,51.7c5.7,26.6,15.5,51.5,28.4,75.4
		c15.7,29.1,35,55.8,53.7,83c20.6,29.9,40.9,60,58.8,91.7c4.6,8.1,9,16.3,13.1,24.7c1.7,3.5,3.1,7.5,3.2,11.4
		c0.2,5.5,2.1,10.4,3.7,15.5c0.8,2.6,2.1,5,4.9,6c3.6,1.3,4.9,4.3,6.1,7.5c2.7,7.5,5.3,15.1,7.6,22.7c0.6,2.1,0.7,4.7,0,6.7
		c-1.4,4-1.2,6.9,2.7,9.4c1.5,0.9,2.5,3,3.1,4.8c1.2,3.8,2.2,7.7,2.9,11.6c5.6,30.1,10.3,60.3,11.2,91.1c0.9,31.6,1.3,63.2,0.6,94.8
		c-0.2,10,0.4,20,0.4,30c0.1,36,0.1,72,0,108c0,7.3-0.7,14.6-0.8,21.9c-0.1,4.3,0.5,8.6,0.6,12.9c0.1,14.3,0.1,28.7,0.1,43
		c0,5.3,0.4,10.7,0.1,16c-0.5,7.6-1.6,15.2-2.5,22.8c-1.9,16.2-5.2,32.2-10,47.9c-3.5,11.2-9,21.5-15.8,31c-2.2,3-4.5,5.7-8.4,6.6
		c-3.5,0.8-5.7,3.2-6.9,6.6c-1.8,5.2-5.7,6.9-10.9,6.7c-3-0.1-5.9,0.6-8.9,0.7c-3.5,0.1-5.7,1.7-6.5,5c-0.9,3.7-3.4,5.6-6.8,6.6
		c-7.7,2.2-15.2,4.9-23,6.5c-17.7,3.6-35.7,4.4-53.7,4.3c-3.5,0-7.1-1.3-10.6-2.4c-2.7-0.8-5-1-7.7,0.4c-2.3,1.2-5,2.1-7.5,2.1
		c-31,0.1-62,1.2-92.9-2.2c-14.3-1.6-28.3-4.7-41.8-9.3c-26.2-9.1-45.2-26.4-56-52.2c-7.8-18.6-11.6-38.2-13.8-58.1
		c-2.1-19.2-2.6-38.6-2.6-57.9c0-121,0-242,0-362.9c0-12.1,0.1-12.2,12.2-12.1c29.3,0.2,58.6,0.5,87.9,0.6
		c9.6,0.1,19.2-0.1,28.8-0.3c9.3-0.1,18.6-0.4,28-0.4c3.6,0,7.3-0.8,11.1,1.4c1.9,3.1,1.2,6.8,1.2,10.4c0,25.7-0.1,51.3-0.1,77
		c0,74,0,147.9,0.1,221.9c0,14.3-0.1,28.7,0.1,43c0.1,5.6,0.4,11.4,1.5,16.9c2.6,13.1,17.8,18.2,28.2,9.7c3.3-2.7,4.8-6.4,5.3-10.4
		c0.6-4.9,0.9-10,0.9-14.9c0.1-72,0.1-144,0-216c0-20-0.2-40-0.3-60c-0.2-29-5.6-57-16-84c-6.5-16.8-14.3-33.1-24-48.3
		c-11.6-18.2-23.6-36.3-35.6-54.3c-16.9-25.6-34.2-50.9-50.6-76.8c-11-17.4-21.3-35.4-30.8-53.7c-18.8-36.3-31.9-74.6-38.9-115
		c-6.2-35.6-8.7-71.4-8.8-107.4c-0.1-47-0.1-94,0-141c0-24-0.1-48,0.6-72c0.6-21,3-41.9,8.4-62.3c3.3-12.3,7.2-24.3,14.2-35.1
		c7.7-11.9,16.4-22.7,29.8-28.6c6.2-5.9,14.1-8.8,22.1-11.1c14.4-4.1,28.8-8.3,43.9-9.2c2.6-0.2,5.1-1.2,7.6-1.8
		C2028,2,2072,2,2116,2z"/>
	<path class="st0" d="M2,1446c86,0,172,0,258,0c58,0,116,0,174,0c30.7,0,61.3,0,92,0c95,0,190,0,285,0c223,0,446,0,669,0
		c19,0,38-0.6,57-0.6c63,0.2,126,0.7,189,0.8c65,0.1,130-0.2,195-0.2c46.7,0,93.3,0,140,0c56,0,112,0,168,0c4.3,0,8.6,0.2,12,0.2
		c3.1,2.8,2.8,5.6,2.8,8.2c-0.1,30.3-0.2,60.7-0.3,91c0,7.7,0.1,15.3-0.1,23c-0.1,3.2,0.5,6.8-2.6,9.2c-6.1-1.3-12.2-2.5-18.3-3.8
		c-1-0.2-2.1-0.5-2.7-1.2c-5.5-5.9-13.4-7.3-20.3-10.4c-6.3-2.8-13.2-4.5-20-6.1c-8.1-1.8-16.4-2.7-24.6-4.3
		c-16.1-3.3-32.5-2.6-48.8-2.8c-21-0.3-42-1.1-62.9-1.8c-12.7-0.4-25.3-1.5-38-1.6c-8.6,0-17.2,1.2-25.9,1.8
		c-2.7,0.2-5.3,0.7-7.9,0.7c-20.2-0.4-39.7,3.3-59.2,8.1c-8.1,2-16.2,3.8-24.4,5.3c-4.4,0.8-8.4,2.1-11.9,4.8
		c-3.3,2.6-7,3.6-11.1,4.1c-11.6,1.3-23.3,2-34.6,4.5c-17.9,4-36.5,2.8-54.1,8.5c-12.4,0.1-24,5.2-36.5,4.8
		c-5.9-0.1-11.8,2.1-17.7,2.8c-5.6,0.6-11.2,0.7-16.9,1c-1.3,0.1-2.7-0.3-4-0.3c-12.6,0.5-25.3,0.9-37.9,1.6
		c-10,0.5-19.9,1.6-29.9,2.1c-3.6,0.2-7.3-0.3-10.8-1.1c-6.3-1.5-12.3-1.4-18.7,0.1c-12.3,2.8-24.9,4.6-37.2,7.3
		c-13.3,2.9-26.6,6-39.6,9.8c-23.5,6.8-47.2,11.5-71.7,10.1c-12.9-0.8-25.8-2.3-38.7-3.8c-13.9-1.6-27.7-3.5-41.6-5.6
		c-8.6-1.2-17.2-2.4-25.6-4.5c-29.4-7.1-58.7-7-88.2-0.7c-9.7,2.1-19.7,3.1-29.7,4c-19.9,1.9-39.8,3.6-59.7,5.1
		c-8.2,0.6-16.7-0.2-24.8,1.3c-10.1,1.9-20.3,2.8-30.5,3.7c-18.6,1.8-37.2,3.4-55.8,4.7c-22.9,1.7-45.8,4.1-68.4,7.9
		c-15.5,2.6-31.2,3.2-46.8,1.3c-47.6-5.9-95.5-9.3-143.3-13.2c-11.3-0.9-22.5-2.3-33.8-3.5c-1.3-0.1-2.7-0.2-4-0.3
		c-22-0.9-44-1.6-65.9-2.5c-45-1.9-90-2.3-135-1.1c-14,0.4-27.9,1.8-41.8,3.2c-19.6,1.9-39.1,4.2-58.6,6.2
		c-7.3,0.7-14.6,1.1-21.7-1.5c-0.6-0.2-1.4-0.7-1.9-0.5c-8,2.6-15.7-2.2-23.7-1c-4,0.6-8.4-0.5-12.5-1.3c-3.5-0.7-6.5-0.2-9.7,0.9
		c-3.8,1.3-7.7,2.2-11.4-0.7c-0.9-0.7-2.5-0.9-3.8-0.8c-7.8,0.4-15.7,2-23.3,1.2c-11.3-1.1-22.3,3.2-33.6,1.1
		c-1.6-0.3-3.7-0.6-4.9,0.1c-8.5,5.2-17.5,2.5-26.3,2.3c-5.6-0.1-11.3-1.1-16.9-1.2c-3.8-0.1-7.1-0.9-10.2-3.3
		c-3.6-2.9-7.7-5.3-11.3-8.3c-4.9-4.1-10.5-5.5-16.7-5.6c-13.2-0.3-25.7,3.5-38,7.7c-6,2.1-12.1,3.6-18.2,5.1
		c-13.6,3.4-27.5,5.4-41.4,6.1c-19.6,1-39.3,1.5-58.9,1.6c-13.4,0-26.6-1.6-38.5-8.5c-10.4-6-20.7-12.1-31-18.2
		c-2.2-1.3-3.9-3.8-7.1-2.8C2,1546,2,1496,2,1446z"/>
	<path class="st0" d="M3820,220c-0.7,2.9-1.3,5.7-2,8.6c-1.8,7.6-3.9,9.4-11.7,9.5c-20.6,0.2-41.3,0.2-61.9,0.3
		c-11,0.1-22,0.4-33,0.4c-40.3,0-80.6-0.2-121-0.3c-32,0-63.9,0.2-95.9,0.2c-73.6,0-147.3-0.1-220.9-0.1c-22.7,0-45.3,0.1-68,0.1
		c-41.3,0-82.6,0-123.9,0c-20.7,0-41.3,0-62,0c-142.6-0.1-285.2,0-427.8,0c-54,0-108,0-161.9-0.1c-32,0-63.9,0-95.9-0.1
		c-5,0-9.9-0.5-15.5-0.8c-0.7-2.7-1.8-5.1-2-7.6c-0.4-4-0.4-8-0.4-12c0-49.7,0-99.3,0-149c0-13.7,0-27.3,0-41c0-1.7,0-3.3,0-5
		c0.3-10.4,0.9-11.2,11.6-11.2c66,0,132,0.1,198,0.1c26.7,0,53.3-0.1,80-0.2c22,0,44,0,65.9,0.1c19,0.1,37.9,0.3,56.9,0.3
		c17.3,0,34.6-0.3,51.8-0.3c46.9,0,93.9,0.2,140.8,0.2c29.7,0,59.3-0.2,89-0.2c120.3,0,240.6,0,360.9,0c24.3,0,48.6,0.5,73,0.5
		c26.3,0,52.6-0.5,79-0.5c77-0.1,154-0.1,230.9-0.1c22,0,44,0,65.9,0C3820,81.3,3820,150.7,3820,220z"/>
	<path class="st0" d="M1486.8,1368.1c-3.9,0.1-7.1,0.3-10.4,0.3c-49-0.1-98-0.2-147-0.3c-9.3,0-18.7,0-28-0.4
		c-5.9-0.2-6.7-1.2-7.4-7.2c-2.2-19.8-4.5-39.6-6.4-59.5c-4.3-43.4-8.4-86.9-12.5-130.3c-3.6-38.1-7.2-76.3-10.8-114.4
		c-2.5-26.5-5.1-53-7.5-79.5c-2.7-29.5-5.2-59.1-8-88.6c-2.4-24.9-5.1-49.7-7.5-74.6c-2.6-26.9-4.7-53.8-7.4-80.6
		c-3.2-30.8-6.8-61.6-10.2-92.4c-0.9-7.9-2-15.9-3.1-23.8c-0.2-1.5-0.8-3-2.6-4.4c-0.1,3.6-0.3,7.2-0.3,10.8c0.3,36,0.7,72,0.8,108
		c0.3,66.3,0.4,132.6,0.5,199c0.1,51,0,101.9,0,152.9c0,89.7,0,179.3-0.2,269c0,4.9,1.8,10-1.2,15.3c-2.9,1.8-6.7,1.1-10.2,1.1
		c-36.3,0.1-72.7,0-109,0c-8.6,0-17.2,1.2-25.9-0.2c-1.3-0.2-2.6-0.4-4.1-0.7c-1.4-3.9-1.8-7.8-1.8-11.8c0-20.3-0.2-40.6-0.1-60.9
		c0-12,0.5-24,0.7-36c0.1-8,0.1-16,0.2-24c0.1-8.3-0.4-16.6,1.8-24.8c0.8-2.8,0.5-6,0.8-8.9c0.5-7,1.3-13.9,1.5-20.9
		c0.2-7.3,0.7-14.8-0.6-21.9c-3.2-17.4-3.9-34.9-3.9-52.6c0.1-118,0.1-236,0.1-354c0-125.3,0-250.6,0-375.9c0-112.3,0-224.6,0-336.9
		c0-7.7,0.2-15.3,0.4-23c0-1.6,0.4-3.2,0.7-5.3c2.5-0.3,4.7-0.9,6.9-0.9c26.7,0.5,53.3,1,80,1.6c6,0.1,12,0.5,18,0.5
		c27,0.1,54,0.1,81,0.3c6.3,0,12.6,0.5,18.9,1.1c4.5,0.4,5.6,1.6,6.5,6c0.2,1,0.3,2,0.4,3c2.1,23.2,4.1,46.5,6.3,69.7
		c1.2,12.6,2.8,25.2,4,37.8c3.9,40.8,7.5,81.6,11.5,122.4c3.2,32.8,6.7,65.6,10,98.4c4.5,44.4,9,88.8,13.5,133.2
		c2.4,23.5,4.7,47,7.1,70.6c0.3,2.5-0.1,5.3,2.8,7.7c-1.6-183.1-0.8-365.6-1-546.6c1.7-1.8,1.9-2.1,2.1-2.2c0.3-0.2,0.6-0.3,0.9-0.3
		c3-0.2,6-0.4,9-0.4c46.6,0,93.2,0,140.3,0c0.6,2.6,1.4,4.7,1.5,6.9c0.2,3.7,0.1,7.3,0.1,11c0,341.3,0,682.6,0,1023.9
		c0,100,0,200,0,300C1488.1,1358.2,1488.7,1362.6,1486.8,1368.1z"/>
	<path class="st0" d="M2631.5,990.8c5.7,2,9.2,3.1,12.6,4.4c26.1,9.9,44.2,27.9,54.6,53.7c8.1,20,12.1,40.9,13.3,62.3
		c1.1,19.6,2,39.3,2,58.9c0.1,127-0.1,254,0,381c0,14.6,1.2,29.3,1.7,43.9c0.2,4.6,1.3,9.2-0.8,14.3c-3-0.8-5.8-1.7-8.6-2.2
		c-8.8-1.8-17.5-4.3-26.4-5.1c-21.6-2.1-43.2-3.5-64.8-4.9c-14-0.9-27.9,0.1-41.7,3.1c-10.7,2.3-21.6,3.8-32.5,5.6
		c-1.3,0.2-2.6,0-3.4,0c-3.3-2.5-3.1-5.6-3.2-8.5c-0.4-12.7-0.8-25.3-0.9-38c-0.2-24.3-0.1-48.7-0.1-73c0-121.7,0-243.3,0-365
		c0-6.7-0.1-13.3-0.7-20c-0.3-3.9-1.5-7.8-2.6-11.6c-2.1-7.1-7.3-11-14.2-12.7c-5.5-1.3-11.1-1.5-16.7-0.1
		c-2.5,3.6-1.7,7.3-1.7,10.9c-0.1,30.3-0.1,60.7-0.1,91c0,90,0,180-0.2,270c-0.1,47-0.4,94-0.6,141c0,13.3-1.2,12.5-13,12.5
		c-49.3,0.1-98.7,0.3-148,0.4c-3.3,0-6.7,0.1-10-0.1c-7-0.5-8.9-2.3-9-9.2c-0.2-6.7-0.1-13.3-0.1-20c0-138.3,0-276.6,0-414.9
		c0-119.3,0-238.6,0-358c0-139,0-278,0-416.9c0-18.7,0-37.3,0.1-56c0-3.3-0.5-6.6,1.3-10c4.1-1.8,8.4-1.5,12.7-1.5c34,0,68,0,102,0
		c44,0,88,0,131.9,0.1c19.7,0,39.3,2.2,58.5,6.2c14,3,27.5,7.6,39.8,15.4c16.7,10.6,28.2,25.2,35.7,43.2
		c8.4,19.9,12.5,40.8,13.7,62.2c1.1,19.3,2,38.6,2.1,57.9c0.2,104.7,0.2,209.3,0,314c0,18.6-0.9,37.3-2,55.9
		c-1.2,20-5,39.6-12.1,58.5c-10.8,28.7-30.6,47.9-59.4,57.9C2638.1,988.2,2635.7,989.2,2631.5,990.8z M2498.4,488.2
		c-1.9,11.1-2.7,340-1.2,407.5c0.1,2.6,0.5,5.2,0.7,7.9c7.2,2.6,14.2,1.5,21.1,1.1c6.8-0.4,10.9-4.5,12.5-11c0.7-2.9,1-5.9,1.2-8.9
		c0.3-6.3,0.5-12.6,0.5-19c0-108.6,0.1-217.1,0-325.7c0-11-0.2-22-0.5-33c-0.1-3.3-0.6-6.7-1.6-9.8c-1.6-5.1-4.9-8.9-10.5-9.5
		C2513.4,487.1,2506.1,486.9,2498.4,488.2z"/>
	<path class="st0" d="M3143.1,1580.7c-2.5,0.4-4.7,1-6.9,1c-6.3,0.1-12.7-0.1-19-0.1c-15.6-0.1-31.3,0.3-46.9-0.2
		c-13.3-0.4-26.6-1.7-39.9-2.8c-9-0.7-17.8-1.2-26.9,0c-6.9,0.9-13.9,0.2-20.9,0.1c-7.3,0-14.7-0.1-22-0.1c-7.3,0-14.7,0.3-21.7-2.2
		c-3.6-1.3-7.2-0.5-10.7,0.8c-7.7,3-15.6,5.6-23.7,7.7c-6,1.6-12.2,3.9-17.8,8c-6.8,5-15,8.6-24,8.8c-5.7,0.2-11.3,0.7-17,0.8
		c-7.3,0.1-14.6-0.1-21.8,1.9c-3.2,0.9-6.6,0.7-9.9,1c-8.6,0.6-17.2,1.1-25.9,1.6c-5.6,0.3-11.3,0.8-16.9,0.8
		c-6.9,0-11.5-3-13.3-9.6c-2.4-9-4.5-18.1-5.8-27.3c-3.1-22.5-4.1-45.1-4.1-67.8c0-119,0-237.9,0-356.9c0-167.6,0.1-335.2,0.1-502.9
		c0-53.7-0.2-107.3,0-161c0.1-25,1.4-50,5.5-74.7c2-11.9,5.4-23.4,9.8-34.6c10.3-26.3,28.7-44.5,55.1-54.5c12.2-4.6,24.9-7.2,37.8-9
		c21.2-2.9,42.5-3.5,63.8-3.4c26,0.1,52,0.2,78,0.3c14.7,0.1,29.3,1.2,43.8,3.7c16.4,2.8,32.7,6.4,47.5,14.8
		c15.8,9,27.9,21.2,36.5,37.3c8.1,15.3,12.2,31.6,15,48.4c4.7,28,5.5,56.3,4.8,84.6c-0.3,12.3,0.1,24.6,0.1,37
		c-0.1,54.3-0.3,108.6-0.3,162.9c0,21.6,0.3,43.3,0.2,64.9c0,16-0.5,32-0.5,47.9c0,16.3,0.3,32.6,0.3,48.8c0,11.2-0.1,22.5-0.1,33.7
		c-0.1,11.3-0.1,22.6-0.2,33.9c-0.2,24-0.5,47.9-0.5,71.9c0,13.9,0.7,27.9,0.8,41.8c0.1,12-0.2,23.9-0.2,35.9c0,9.3,0,18.5,0.1,27.8
		c0.1,8.7,0.4,17.3,0.4,26c0,20.3-0.3,40.6-0.3,60.9c0,14.3,0.6,28.6,0.6,43c0,56.3-0.1,112.6-0.2,169c0,11.3-0.4,22.6-0.4,34
		c0.1,18,0.9,36,0.7,53.9c-0.3,29-1.3,58-2,86.9C3144.3,1577.2,3143.6,1578.8,3143.1,1580.7z M2929.4,993.6c0,65.3,0,130.6,0,195.9
		c0,98-0.1,195.9,0,293.9c0,5.6,0.9,11.3,1.9,16.8c0.7,4.1,2.9,7.5,6.7,9.5c11.1,6,23.9,0.3,26.1-12.2c1.2-6.5,1.7-13.2,1.7-19.8
		c0.1-174.3,0.1-348.6,0.1-522.8c0-148.3,0-296.6-0.1-444.9c0-6-0.6-12-1.5-17.9c-1.7-10.6-6.2-14.2-16.9-14.4c-1.3,0-2.7,0.1-4,0
		c-4.5-0.3-7.8,2-9.9,5.6c-1.6,2.8-2.8,6.1-3.1,9.3c-0.7,7.3-0.9,14.6-0.9,21.9C2929.4,674.4,2929.4,834,2929.4,993.6z"/>
	<path class="st0" d="M827,1367.2c-2.3,0.5-3.9,1-5.5,1.1c-16.7,1-165.7,0.2-173.5-0.9c-0.5-1.9-1.4-4-1.5-6.2
		c-0.7-14-1.2-28-1.9-41.9c-0.9-20-2-39.9-2.9-59.9c-0.7-14.6-1.3-29.3-2.1-43.9c-0.2-3.3-0.7-6.5-1.1-10.1
		c-6.8-1.6-13.1-0.8-19.3-0.9c-6.7-0.1-13.3-0.1-20,0c-6.2,0.1-12.5-0.6-18.9,0.8c-0.5,2.6-1.2,4.5-1.3,6.4
		c-0.9,12-1.6,23.9-2.4,35.9c-1.3,17.6-2.7,35.2-3.9,52.8c-0.9,12.6-1.8,25.3-2,37.9c-0.2,9.8-1.5,19.2-4.8,29
		c-1.9,0.3-4.1,1.1-6.3,1.1c-49.3,0.1-98.6,0-148,0c-1.6,0-3.3-0.3-5.4-0.5c-0.4-1.9-1.3-3.8-1.2-5.6c1.4-21.6,3-43.2,4.4-64.8
		c0.9-13.3,1.7-26.6,2.5-39.9c1.7-27.6,3.3-55.2,5-82.8c1.9-29.3,3.9-58.5,5.8-87.8c3.6-55.9,7.1-111.7,10.7-167.6
		c0.9-15,1.7-29.9,2.7-44.9c1.5-22.6,3.1-45.2,4.6-67.8c1.1-16.6,2.1-33.3,3.2-49.9c1.3-20.6,2.7-41.2,4-61.8
		c2.8-43.2,5.5-86.4,8.2-129.7c1.6-25.6,3.4-51.2,5.1-76.8c1.8-27.3,3.4-54.5,5.2-81.8c1.8-28.6,3.6-57.2,5.5-85.8
		c2.7-40.9,5.4-81.8,8-122.7c2.1-33.3,4-66.5,6.1-99.8c1-16,2.2-31.9,3.4-47.8c0.8-11,1.7-21.9,2.6-32.9c0.1-1.6,0.5-3.2,0.9-5.1
		c2-0.3,3.6-0.7,5.2-0.7c80.2,0.2,160.5-0.3,241.3,0c0.6,2.8,1.3,4.9,1.4,7.1c2.3,33.9,4.6,67.8,6.8,101.7
		c1.3,18.9,2.5,37.9,3.7,56.8c3.6,56.8,7.2,113.7,10.8,170.5c1.5,24.6,2.8,49.2,4.4,73.8c2.5,38.6,5.2,77.1,7.8,115.7
		c1.8,27.6,3.3,55.2,5.1,82.8c2.5,38.2,5.2,76.4,7.7,114.6c1.8,28.3,3.4,56.5,5.2,84.8c1.6,24.6,3.4,49.2,4.9,73.8
		c1.5,24.6,2.7,49.2,4.2,73.8c1,16.9,2.3,33.8,3.4,50.8c0.9,13.9,1.8,27.9,2.7,41.9c0.7,10,1.6,19.9,2.3,29.9
		c0.9,13.3,1.7,26.6,2.5,39.9c0.7,13,1.3,25.9,2.1,38.9c0.9,14.6,2,29.2,3,43.8c0,0.3,0.1,0.7,0.1,1c0.9,15.3,1.7,30.5,2.7,45.8
		c0.8,12,1.9,23.9,2.7,35.9c1.5,21.9,3,43.9,4.4,65.8C827.4,1362.9,827.1,1364.5,827,1367.2z M632.1,1037.4c0.2-2.7,0.6-4.9,0.5-7.2
		c-0.7-15.3-1.4-30.6-2.1-45.9c-1.4-29.6-2.9-59.2-4.2-88.8c-1.9-41.9-3.8-83.9-5.5-125.8c-2.1-51.6-4-103.2-5.9-154.8
		c-1-28.3-1.9-56.6-2.8-84.9c-1.3-40-2.4-79.9-3.7-119.9c-0.4-11.5-0.8-23.1-1.2-34.6c-1.4,4-2.2,7.9-2.4,11.9
		c-0.8,15.3-1.4,30.6-2,45.9c-0.8,19-1.6,37.9-2.2,56.9c-0.7,22.6-1.2,45.3-1.8,67.9c-1.7,55.9-3.2,111.9-5.2,167.8
		c-1.5,42.6-3.6,85.2-5.3,127.8c-1.1,27.6-1.8,55.3-2.8,82.9c-1.1,30.6-2.2,61.3-3.3,91.9c-0.1,2.9-1,6,1.2,8.6
		C590.6,1038.9,620.8,1039.1,632.1,1037.4z"/>
	<path class="st0" d="M1583.7,181.8c-4.5-0.2-7.8-0.5-11-0.5c-17.7,0-35.3,0-53,0c-3.6,0-7.3-0.2-11.4-0.3c-0.6-2.7-1.3-4.8-1.6-7
		c-0.2-2-0.1-4-0.1-6c0-47.7,0-95.3,0-143c0-3.9-0.7-8,1.3-11.7c3.6-2.1,7.3-1.2,10.9-1.2c33.7-0.1,67.3-0.1,101,0
		c62.3,0,124.7,0.1,187,0.2c8.7,0,17.3-0.2,26-0.1c2.6,0,5.2,0.3,7.6,0.5c3.1,3.5,2.1,7.3,2.1,10.9c0.1,28.7,0.1,57.3,0.1,86
		c0,20.7-0.1,41.3-0.3,62c0,2.6-0.3,5.2-0.5,7.4c-3.4,3.5-7.3,2.5-10.8,2.5c-18.3,0.1-36.7,0-55,0.1c-3.2,0-6.7-0.8-10.1,1.5
		c-0.2,0.9-0.7,2.2-0.8,3.5c-0.2,9.7-0.3,19.3-0.3,29c0,25.7-0.1,51.3,0,77c0.1,32,0.5,64,0.6,95.9c0,7-0.1,14-0.2,21
		c-0.2,15.7-0.4,31.3-0.5,47c-0.1,13.9-0.1,27.9-0.1,41.8c0,12.6,0.3,25.3,0.3,37.9c0,9-0.3,17.9-0.4,26.9
		c-0.1,5.3-0.1,10.6-0.1,15.9c0,9-0.1,17.9-0.1,26.9c0,12.3-0.1,24.6,0,36.9c0.1,9.3,0.6,18.6,0.5,28c0,14.6-0.3,29.2-0.4,43.9
		c-0.1,11.3,0.1,22.6,0.1,34c0,18.3-0.2,36.5-0.1,54.8c0.1,18.3,0.5,36.6,0.5,54.8c-0.1,23.3-0.5,46.6-0.7,69.8c0,6,0.5,12,0.6,17.9
		c0.1,23,0.2,45.9,0.1,68.9c0,11.6-0.4,23.3-0.4,34.9c0,17.6,0.3,35.3,0.4,52.9c0.1,13.3,0.2,26.6,0.2,40c0,15.6,0,31.3,0,46.9
		c0,55.7,0.1,111.3,0,167c0,3.6,0.7,7.4-2.2,11.4c-2.8,0.2-6,0.6-9.3,0.6c-39.7,0-79.3-0.1-119-0.1c-13,0-26,0-39,0
		c-3.3,0-6.6-0.1-9.1-0.2c-3.1-2.7-2.6-5.5-2.6-8.1c0-62.7-0.1-125.3-0.1-188c0-52.3,0-104.7,0-157c0-90.7,0-181.3,0-272
		c0-112.3,0-224.6,0-336.9c0-70.3,0-140.7,0-211C1584,191.2,1583.8,187.2,1583.7,181.8z"/>
	<path class="st0" d="M1028.7,1367.2c-9.8,1.5-170.8,1.5-179.3,0.2c-2.5-3.1-1.5-7-1.5-10.5c-0.1-39.7,0-79.3,0-119
		c0-147,0-294,0-440.9c0-91.3,0-182.6,0-274c0-89,0-178,0-266.9c0-77,0-154,0-230.9c0-3.9,0.2-7.9,0.3-12.3c3.3-0.3,5.8-0.8,8.4-0.8
		c43.7,0,87.3,0,131,0c10.3,0,20.7,0,31,0c3,0,5.9,0.2,8.5,0.3c3.1,3.7,2.2,7.5,2.2,11c0.1,17.7,0.1,35.3,0.1,53
		c0,56.3,0,112.6,0,169c0,255.3,0,510.6,0,765.9c0,56.3,0,112.6,0,168.9c0,37.6,0,75.3,0,112.9c0,20.6,0,41.3,0,61.9
		C1029.3,1359,1029,1362.9,1028.7,1367.2z"/>
</g>
</svg>
