<?xml version="1.0" encoding="utf-8"?>
<!-- Generator: Adobe Illustrator 19.0.0, SVG Export Plug-In . SVG Version: 6.00 Build 0)  -->
<svg version="1.1"
	 id="svg3021" xmlns:inkscape="http://www.inkscape.org/namespaces/inkscape" xmlns:sodipodi="http://sodipodi.sourceforge.net/DTD/sodipodi-0.dtd" xmlns:svg="http://www.w3.org/2000/svg" sodipodi:docname="Persona_4_logo.svg" inkscape:version="0.48.1 " xmlns:cc="http://creativecommons.org/ns#" xmlns:dc="http://purl.org/dc/elements/1.1/" xmlns:rdf="http://www.w3.org/1999/02/22-rdf-syntax-ns#"
	 xmlns="http://www.w3.org/2000/svg" xmlns:xlink="http://www.w3.org/1999/xlink" x="0px" y="0px" viewBox="-250 392.3 110 8.8"
	 style="enable-background:new -250 392.3 110 8.8;" xml:space="preserve">
<style type="text/css">
	.st0{fill:#FFFFFF;}
</style>
<sodipodi:namedview  inkscape:cy="43.162919" inkscape:cx="149.38387" inkscape:zoom="1.7001227" borderopacity="1" bordercolor="#666666" pagecolor="#ffffff" id="namedview7" inkscape:window-y="-8" inkscape:current-layer="svg3021" inkscape:window-width="1366" inkscape:window-x="-8" inkscape:window-height="706" inkscape:window-maximized="1" inkscape:pageopacity="0" guidetolerance="10" fit-margin-top="0" fit-margin-left="0" objecttolerance="10" gridtolerance="10" showgrid="false" fit-margin-bottom="0" fit-margin-right="0" inkscape:pageshadow="2">
	</sodipodi:namedview>
<path id="path2996" inkscape:connector-curvature="0" class="st0" d="M-247.3,398.8c-0.4,0-1-0.2-1.3-0.3l-0.1,0l0.6-0.3l0.6-0.3
	l0.4,0.1c0.7,0.2,1.1,0.3,1.8,0.3c0.5,0,0.6,0,0.8-0.1c0.2-0.1,0.4-0.4,0.4-0.6c0-0.1,0-0.2-0.2-0.3c-0.2-0.2-0.7-0.4-1.6-0.5
	c-1.5-0.3-1.8-0.4-2.2-0.7c-1-0.6-0.2-1.4,1.8-1.8c1.1-0.2,2.2-0.2,3.2,0c0.4,0.1,0.9,0.3,0.9,0.3c0,0-1.3,0.5-1.3,0.5
	c0,0-0.1,0-0.2-0.1c-0.7-0.3-1.9-0.5-2.5-0.3c-0.2,0-0.3,0.1-0.4,0.2c-0.2,0.2-0.2,0.3-0.1,0.4c0.2,0.2,0.6,0.4,2,0.6
	c1.4,0.2,1.7,0.3,2,0.6c0.4,0.3,0.3,0.8-0.2,1.2c-0.8,0.7-2,1.1-3.4,1.1C-246.7,398.8-247.1,398.8-247.3,398.8z M-217.7,398.7
	c-0.2,0-0.4-0.1-0.5-0.1c-0.2,0-0.2,0.1,0-0.6c0.1-0.2,0.2-1,0.3-1.7c0.3-1.8,0.3-2,0.4-2.1c0,0,0.3,0,0.6-0.1l0.6,0l0.2,0.3
	c0.2,0.4,0.8,1.1,1.5,2.1c0.3,0.4,0.7,0.8,0.7,0.9c0.1,0.1,0.1,0.1,0.1,0c0.6-0.8,1.9-2.5,2.3-3l0.2-0.3l0.5,0c0.3,0,0.5,0,0.5,0
	s0,0.3,0,0.5c0,0.8,0.2,1.9,0.4,3.4c0,0.3,0.1,0.5,0.1,0.5c0,0-0.3,0-0.6,0l-0.6,0l0-0.3c-0.1-0.6-0.1-0.9-0.3-1.7
	c-0.1-0.4-0.2-0.9-0.2-1c0-0.1,0-0.2-0.1-0.2c0,0-1.6,2-2,2.4l-0.3,0.4h-0.3h-0.3l-0.2-0.2c-0.1-0.1-0.4-0.5-0.7-0.8
	c-0.5-0.6-1-1.3-1.2-1.6c-0.1-0.1-0.1-0.2-0.2-0.2c0,0-0.1,0.5-0.2,1.1c-0.2,1-0.2,1.5-0.3,1.8
	C-217.2,398.8-217.2,398.8-217.7,398.7z M-198.6,398.7c0.2-0.2,0.2-0.3,0.2-0.4c0-0.1,0-0.1-0.3,0c-0.4,0.1-1.3,0.1-1.6,0
	c-0.5-0.1-0.8-0.4-0.9-0.7c-0.1-0.2,0-0.3,0.1-0.5c0.5-0.5,2-0.8,3-0.7c0.4,0,0.9,0.2,0.9,0.2c0,0-0.2,0.1-0.4,0.1l-0.4,0.1
	l-0.5-0.1c-0.8-0.2-1.4-0.2-1.8,0.1c-0.3,0.2-0.3,0.4-0.2,0.7c0.1,0.2,0.5,0.5,1,0.6c0.3,0.1,0.8,0.1,1,0c0.3-0.1,0.5-0.4,0.5-0.6
	v-0.1l0.4,0c0.2,0,0.4,0,0.4,0c0,0-0.3,0.6-0.6,1c-0.2,0.4-0.2,0.4-0.7,0.4L-198.6,398.7L-198.6,398.7L-198.6,398.7z M-170.6,398.6
	c0.1-0.6,0.2-2.2,0.1-3.1c0-0.4-0.1-0.8-0.1-0.8c0,0-0.6,0-1.3,0c-1.6,0-1.6,0-1.2-0.3c0.1-0.1,0.3-0.2,0.3-0.2
	c0.1-0.1,0.1-0.1,0.4,0c0.7,0.1,2,0.1,3.8,0.1c1,0,1.9,0,2.1-0.1c0.2,0,0.3,0,0.3,0c0,0,0,0.1,0,0.1c0,0.1-0.1,0.2-0.1,0.2l0,0.1
	l-0.4,0c-0.2,0-0.7,0-1.1,0h-0.8l0,0.2c0,0.1,0,1-0.1,2l0,1.8l-0.8,0c-0.5,0-0.9,0-1,0C-170.7,398.7-170.7,398.7-170.6,398.6
	L-170.6,398.6z M-228.5,398.4c0,0,0-0.1,0.1-0.3c0.1-0.3,0.1-0.8,0-1.3l0-0.4h0.1c0.1,0,0.2,0,0.4,0c0.2,0,0.2,0,0.4,0.1
	c0.1,0.1,0.5,0.3,0.8,0.5c0.4,0.2,0.9,0.5,1.2,0.6s0.6,0.3,0.6,0.3c0,0,0-0.3,0.1-0.7c0-0.4,0.1-0.7,0.1-0.7c0,0,0.2,0,0.3-0.1
	c0.3,0,0.3,0,0.3,0.1c-0.1,0.4-0.2,1.2-0.2,1.6c0,0.2,0,0.3,0,0.3c0,0-0.1,0-0.2,0.1l-0.2,0.1l-0.4-0.2c-0.2-0.1-0.9-0.4-1.5-0.7
	c-0.6-0.3-1.1-0.5-1.1-0.5c0,0-0.1,0.7-0.1,1.1l0,0.2l-0.2,0C-228.4,398.4-228.5,398.4-228.5,398.4L-228.5,398.4z M-159,398.4
	c0,0,0-0.2,0.1-0.3c0.1-0.2,0.1-0.4,0-1l0-0.7h0.1c0.1,0,0.2,0,0.3,0l0.2-0.1l0.3,0.2c0.4,0.2,2.5,1.3,2.5,1.3c0,0,0-0.3,0.1-0.7
	c0-0.4,0.1-0.7,0.1-0.7c0,0,0.2,0,0.3,0l0.3,0l0,0.1c-0.1,0.6-0.1,1.1-0.1,1.4l0,0.4l-0.2,0.1c-0.1,0-0.2,0.1-0.3,0.1
	c0,0-0.7-0.3-1.5-0.7c-1-0.5-1.5-0.7-1.5-0.7c0,0,0,0.2-0.1,0.5c0,0.2,0,0.5,0,0.6l0,0.2l-0.2,0C-158.8,398.4-158.9,398.4-159,398.4
	C-159,398.4-159,398.4-159,398.4L-159,398.4z M-151.6,398.4c-0.2,0-0.6-0.1-0.7-0.1c-0.1,0-0.1,0,0.2-0.2l0.3-0.2l0.3,0.1
	c0.2,0.1,0.4,0.1,0.6,0.1c0.3,0,0.3,0,0.4-0.1c0.1-0.1,0.1-0.2,0-0.3c-0.1-0.1-0.3-0.2-0.8-0.3c-0.7-0.2-1-0.3-1-0.5
	c0-0.3,0.9-0.6,1.8-0.6c0.4,0,0.9,0.2,0.9,0.2c0,0-0.1,0.1-0.3,0.1l-0.3,0.1l-0.2-0.1c-0.5-0.2-1.2-0.2-1.2,0.1
	c0,0.1,0.2,0.2,0.8,0.3c0.7,0.1,0.8,0.2,0.9,0.3c0.1,0.2,0,0.4-0.4,0.7C-150.5,398.3-151.1,398.4-151.6,398.4L-151.6,398.4z
	 M-236,397.9v-0.5l-1.2,0c-0.7,0-1.2,0-1.3,0c0,0-0.1,0.2-0.1,0.4c0,0.2,0,0.4,0,0.4c0,0-0.2,0-0.4,0l-0.4,0l0-0.2
	c0-0.1,0-0.4,0-0.5c0-0.3,0-0.5-0.1-1.1l0-0.2h0.5c0.5,0,0.5,0,0.5,0.1c0,0,0,0.3,0,0.5l0,0.4l1.2,0c0.6,0,1.2,0,1.2,0
	c0.1,0,0.2-0.2,0.2-0.6l0-0.4l0.4,0c0.2,0,0.4,0,0.4,0c0,0,0,0.2,0,0.4c0,0.2,0,0.7,0,1l0,0.6h-0.3c-0.2,0-0.4,0-0.5,0l-0.1,0V397.9
	L-236,397.9z M-195,398.4c0,0,0-0.1,0.1-0.1c0.5-0.4,1.3-1.1,1.7-1.5l0.5-0.4l0.3,0l0.3,0l0.1,0.2c0.2,0.3,0.7,0.9,1.3,1.4l0.5,0.5
	h-0.3c-0.1,0-0.4,0-0.5,0l-0.3,0l-0.3-0.3c-0.5-0.6-0.4-0.5-1-0.5c-0.9,0-0.9,0-1.3,0.4l-0.4,0.4l-0.4,0
	C-194.8,398.4-195,398.4-195,398.4L-195,398.4z M-192.5,397.4h0.5l-0.2-0.3c-0.1-0.2-0.2-0.3-0.3-0.3c0,0-0.2,0.1-0.4,0.3
	c-0.3,0.3-0.3,0.3-0.2,0.3C-193,397.4-192.8,397.4-192.5,397.4z M-187.7,398.4c-0.1,0-0.3,0-0.3,0s0-0.1,0.1-0.2
	c0.1-0.1,0.2-0.8,0.4-1.5l0.1-0.3l0.4,0l0.4,0l0.3,0.3c0.2,0.2,1.1,1,1.3,1.2c0.1,0,0.1,0,0.4-0.2c0.4-0.4,0.3-0.3,0.8-0.8
	c0.2-0.2,0.5-0.4,0.5-0.4c0.1,0,0.2,0,0.4,0l0.3,0l0,0.4c0,0.2,0.1,0.7,0.2,1c0.1,0.3,0.1,0.6,0.1,0.6c0,0-0.2,0-0.4,0l-0.4,0v-0.1
	c0-0.2-0.3-1.3-0.3-1.3c0,0-0.9,0.8-1.2,1.1c-0.2,0.2-0.2,0.2-0.4,0.2c-0.2,0-0.2,0-0.6-0.4c-0.2-0.2-0.6-0.5-0.7-0.6
	c-0.2-0.1-0.3-0.3-0.3-0.2c0,0.1-0.2,0.8-0.2,1.1c-0.1,0.3-0.1,0.3-0.2,0.3C-187.4,398.4-187.6,398.4-187.7,398.4L-187.7,398.4z
	 M-232.2,398.1c0-0.2,0-0.6,0-1l0-0.7h0.4h0.4l0,0.1c-0.1,0.3-0.1,1,0,1.4c0,0.2,0,0.4,0,0.5c0,0-0.2,0-0.5,0l-0.4,0L-232.2,398.1
	L-232.2,398.1z M-206.3,398.3c0,0,0.1-0.2,0.1-0.4c0.1-0.4,0.1-1,0-1.3c0-0.1-0.1-0.2-0.1-0.2c0,0,2.5,0,2.5,0c0,0,0,0.1-0.2,0.1
	l-0.2,0.1l-0.6,0l-0.6,0v0.4v0.4l0.7,0l0.7,0l-0.1,0.1l-0.1,0.1h-0.6h-0.6v0.1c0,0.1,0,0.2,0,0.4l0,0.2h0.9c0.5,0,0.9,0,0.9,0
	s-0.1,0.1-0.1,0.1c-0.1,0.1-0.3,0.1-1.3,0.1C-206.2,398.3-206.3,398.3-206.3,398.3L-206.3,398.3z M-179.8,398c0-0.2,0-0.7,0-1v-0.7
	h0.4c0.4,0,0.4,0,0.4,0.1c0,0.1-0.1,1.3,0,1.6c0,0.2,0,0.3,0,0.3c0,0-0.2,0-0.5,0l-0.5,0L-179.8,398L-179.8,398z M-164.1,398.2
	c0.1-0.5,0.1-1.3,0-1.6l-0.1-0.2h1.1c0.6,0,1.2,0,1.3,0c0.2,0,0.2,0,0,0.2l-0.2,0.1l-0.6,0l-0.6,0l0,0.3l0,0.3l0.7,0
	c0.7,0,0.7,0,0.6,0.1c-0.1,0.1-0.1,0.1-0.7,0.1h-0.6v0.2c0,0.1,0,0.3,0,0.4l0,0.2l0.9,0l0.9,0l-0.1,0.1c-0.1,0.1-0.2,0.1-1.3,0.1
	h-1.2L-164.1,398.2L-164.1,398.2z M-147.1,398.3c0,0,0-0.1,0.1-0.2c0.1-0.3,0.1-1,0-1.3c0-0.1-0.1-0.3-0.1-0.3
	c0-0.1,0.1-0.1,1.3-0.1c0.7,0,1.3,0,1.3,0c0,0-0.1,0.1-0.2,0.1l-0.2,0.1l-0.6,0l-0.6,0v0.4v0.4l0.7,0l0.7,0l-0.1,0.1l-0.1,0.1
	l-0.6,0l-0.6,0l0,0.4l0,0.4l0.9,0l0.9,0l-0.1,0.1c-0.1,0.1-0.2,0.1-1.3,0.1C-146.5,398.3-147.1,398.3-147.1,398.3L-147.1,398.3z
	 M-142.1,397.9c0-0.3,0-0.7,0-1v-0.5h0.4h0.4l0,0.2c0,0.2,0,1.1,0,1.5l0,0.3l-0.2,0c-0.1,0-0.3,0-0.5,0h-0.3L-142.1,397.9
	L-142.1,397.9z"/>
</svg>
