<?xml version="1.0" encoding="utf-8"?>
<!-- Generator: Adobe Illustrator 19.0.0, SVG Export Plug-In . SVG Version: 6.00 Build 0)  -->
<svg version="1.1" id="Layer_1" xmlns="http://www.w3.org/2000/svg" xmlns:xlink="http://www.w3.org/1999/xlink" x="0px" y="0px"
	 viewBox="0 0 3786.7 1067.9" style="enable-background:new 0 0 3786.7 1067.9;" xml:space="preserve">
<style type="text/css">
	.st0{fill:#FFFFFF;}
</style>
<g>
	<path class="st0" d="M3111,1067.3c-75.4-0.7-143.6-18.1-206.2-54.7c-110-64.2-179-159.1-208.8-282.7c-9.1-37.8-12.9-76.2-11.3-115
		c3.7-90.6,31.5-173.1,84.9-246.6c33.4-45.9,74.3-83.5,123-112.7c40.7-24.4,84.4-40.8,130.9-50c34.8-6.9,70-9.7,105.4-7.8
		c76.4,4.2,146.1,28.1,208,73.4c52.1,38.1,91.7,86.8,122,143.4c23.7,44.4,40.1,91.4,51.1,140.4c2.8,12.3,5,24.8,7.3,37.2
		c1.7,8.9-0.4,17.4-4.8,25c-4.6,7.9-12,12.3-20.8,14.2c-27.6,6-55.3,12.1-82.9,18.1c-44.2,9.7-88.4,19.5-132.6,29.1
		c-44.9,9.8-89.8,19.4-134.7,29.2c-40.3,8.8-80.6,17.8-120.9,26.6c-23.4,5.1-46.8,10.1-70.3,15.2c-2.9,0.6-5.9,1.1-8.7,2.1
		c-1.8,0.6-3.9,1.5-5.1,2.9c-2.7,3.3-5.2,6.9-7.4,10.6c-1.8,3-1.8,6.4-0.5,9.7c0.9,2.5,2.1,4.9,3.5,7.2
		c29.7,47.4,70.6,80.4,125.2,94.6c40.5,10.6,80.6,7.4,120-6c31-10.6,58.6-26.9,81.6-50.6c16-16.5,28.6-35.2,36.8-56.6
		c4.8-12.5,13.3-19.3,26.1-22.1c19.5-4.2,39-8.8,58.5-13.1c38-8.5,76-16.9,114.1-25.4c2.3-0.5,4.5-1.1,6.8-1.2
		c10.9-0.6,17.6,6.2,16.8,17.3c-0.4,5-1.1,9.9-1.9,14.9c-19.2,115.9-78.3,205.2-178.3,267c-51.4,31.7-107.5,51-166.9,61
		C3149.9,1065.5,3129,1066.5,3111,1067.3z M3099.6,385.2c-14.8-0.1-29.4,1.6-43.8,4.4c-36,7-68.5,21.6-96.3,45.7
		c-30.8,26.7-51.2,60.1-63.1,98.9c-2.8,9.2-4.6,18.7-6.9,28.1c-2,7.8,1.9,13.7,6.6,18.9c3.9,4.3,9.3,2,14.2,1.9
		c0.7,0,1.3-0.3,1.9-0.4c45.8-10.1,91.7-20.1,137.5-30.2c50.7-11.1,101.4-22.2,152.1-33.3c20.2-4.4,40.3-8.9,60.4-13.4
		c10.3-2.3,14.6-10.8,10.5-20.5c-1-2.4-2.4-4.8-3.9-7C3228.6,418,3172.1,387,3099.6,385.2z"/>
	<path class="st0" d="M2081.5,1047.3c-4.8-6.9-6.1-13.5-5.9-20.7c0.3-9.7,0.1-19.3,0.1-29c0-2.3,0-4.7-0.4-7
		c-1.1-5.8-6-8.2-11.3-5.3c-2.6,1.4-4.8,3.6-7.1,5.5c-16.5,13.6-34,25.7-52.8,35.9c-29.6,16-61,26.6-93.9,33
		c-30.6,5.9-61.5,7.3-92.5,6.5c-37.8-1-75-6.4-111.4-16.6c-43.7-12.2-84.5-30.7-120.4-58.9c-46.9-36.8-77.4-83.9-88.9-142.7
		c-5-25.6-6-51.5-3.5-77.6c2.4-25.4,8.1-49.9,18.5-73.3c13.3-29.9,32.9-54.6,59.1-74.2c23.4-17.5,49.3-30.4,76.4-40.9
		c31.1-12.1,63.2-20.9,95.7-28.3c27.6-6.2,55.3-12.1,82.9-18.1c55.6-12,111.3-24,166.9-36.1c12.7-2.8,25.1-6.4,37.7-9.7
		c2.6-0.7,5.1-1.6,7.6-2.5c15.2-5.5,22.7-16.6,23.8-32.5c0.5-7.1-0.3-14.1-2.8-20.7c-5.4-14.4-13.9-26.5-27.1-34.9
		c-18.5-11.8-38.6-19.3-60-23.8c-26.6-5.5-53.5-7.6-80.5-5.6c-35.6,2.7-69.6,11.6-100.7,29.8c-19.2,11.3-35.5,25.8-47.5,44.8
		c-6.6,10.4-16.3,15.2-28.6,15.2c-30-0.1-60,0-90,0c-25.3,0-50.7,0-76,0c-2.3,0-4.7,0.1-7,0c-10.7-0.5-17.1-8.1-15.6-18.7
		c0.6-3.9,1.8-7.8,2.9-11.6c18-60.5,53.3-109,102.6-147.8c36.1-28.3,76.6-48.2,120.2-61.9c29.3-9.2,59.3-15.2,89.8-18.7
		c28.6-3.2,57.2-4.2,85.8-3.1c46.4,1.7,92.3,7.5,136.8,21.6c30.4,9.6,59.1,22.7,85.3,40.9c50.4,35,83.4,82.5,100.3,141.3
		c7.8,27.1,11.4,54.8,11.3,82.9c-0.4,170.6-0.9,341.3-1.3,511.9c0,10-0.1,20-0.1,30c0,2.3,0.1,4.7-0.1,7c-0.9,8.3-6,13.3-14.3,14
		c-2,0.2-4,0.1-6,0.1c-49.7,0-99.3,0-149,0C2087.7,1047.6,2084.7,1047.4,2081.5,1047.3z M2066.4,715.2c-0.2,0-0.5,0-0.7-0.1
		c0-9.3,0.1-18.6-0.1-28c-0.1-3.3-0.3-6.7-1.3-9.8c-2.2-7-6.8-10-14.3-9.8c-3,0.1-5.9,0.6-8.9,1.2c-14.7,3-29.3,6.3-44,9
		c-23.6,4.3-47.2,8.2-70.8,12.4c-40.3,7.3-80.2,16.2-120.1,25.4c-18.5,4.3-36.8,9.3-54.4,16.5c-10.2,4.2-20,9.2-28.7,16
		c-21.2,16.7-28,39-24.1,64.9c2.5,16.6,11.7,29.5,24.6,39.9c11.8,9.6,25.3,15.9,39.7,20.5c20.5,6.5,41.5,9.3,62.9,9.9
		c15,0.4,29.9-0.2,44.9-1.4c24-1.9,47.6-5.8,70.6-12.6c25.7-7.6,50-18.3,71.3-34.9c26.8-20.9,44.4-47.6,50-81.4
		C2065.3,740.6,2065.4,727.8,2066.4,715.2z"/>
	<path class="st0" d="M790.3,521.9c0-166,0-332,0-498c0-3.3,0-6.7,0-10c0-5.2,2.5-9,7.2-11c3-1.3,6.3-2.1,9.5-2.7
		c1.9-0.4,4-0.1,6-0.1c56,0,112,0,168,0c4,0,8,0.3,11.9,1.2c5.4,1.2,8.6,4.9,9.7,10.3c0.5,2.3,0.7,4.6,0.8,6.9c0.1,3,0,6,0,9
		c0,161.7,0,323.3,0,485c0,3.7,0,7.3,0.1,11c0.1,4.3,1.7,8.2,6.1,9.4c4.4,1.1,9.3,1.7,13.2-2.1c1.9-1.9,3.6-3.9,5.3-6
		c30.3-35.9,60.7-71.8,91-107.7c35-41.5,70.1-83,105.1-124.5c16.6-19.6,33.3-39,49.5-58.9c8.9-10.9,19.9-15.9,33.9-15.9
		c72.3,0.1,144.7,0.1,217-0.1c5.9,0,10.2,1.6,13.7,6.3c2.9,3.8,3.2,8,0.3,11.9c-1,1.3-2.1,2.6-3.2,3.8
		c-78.4,90.4-156.7,180.8-235.1,271.2c-30.3,35-60.7,70-91,105.1c-2,2.3-4,4.5-5.8,6.9c-4,5.4-3.9,9,0.2,14.5c1,1.3,2.2,2.5,3.3,3.8
		c81.3,92.3,162.5,184.6,243.8,276.9c28,31.8,55.9,63.6,83.9,95.4c1.5,1.8,3.1,3.5,4.5,5.4c7.5,10.7,1.4,27.7-13.9,27.3
		c-2.3-0.1-4.7,0-7,0c-68,0-136,0-204,0c-1,0-2-0.1-3,0c-12.9,1.2-22.4-4.9-30.3-14.1c-14.1-16.5-28.1-33-42.1-49.5
		c-60.2-70.8-120.5-141.7-180.7-212.5c-9.9-11.7-19.9-23.4-29.7-35.1c-2.4-2.9-5-5.3-8.5-6.7c-6.2-2.3-12.3,0.5-14.3,6.9
		c-0.6,1.9-0.8,3.9-0.9,5.9c-0.2,2.7-0.1,5.3-0.1,8c0,91.3,0,182.7,0,274c0,3.3,0.2,6.7-0.2,10c-0.7,7.4-5.4,12.1-12.9,12.9
		c-2.6,0.3-5.3,0.2-8,0.2c-57.3,0-114.7,0-172,0c-2.3,0-4.7,0.1-7-0.1c-8.3-0.7-13.3-5.7-14.1-14.1c-0.3-3.3-0.1-6.7-0.1-10
		c0-153,0-306,0-459C790.3,549.2,790.3,535.5,790.3,521.9z"/>
	<path class="st0" d="M611.2,455.6c-28.3,0-56.7-0.3-85,0.1c-13,0.2-22.9-4.8-29.6-15.2c-14.5-22.4-35.6-35.5-60.1-43.9
		c-15.2-5.2-30.9-7.9-46.9-9.2c-22.7-1.9-45.3-1-67.8,2.3c-19.9,2.9-39.1,8-56.8,17.9c-9.1,5.1-17.4,11.2-23.8,19.6
		c-5.6,7.3-9.1,15.3-9.4,24.8c-0.4,12.2,4.1,22,13,30.1c7.5,6.8,16.4,11.4,25.6,15.3c13.8,5.8,28.1,10.4,42.7,14
		c47.2,11.6,94.5,22.9,141.7,34.4c40.5,9.8,80.9,19.6,120.1,33.7c26.7,9.6,52.5,21.2,76.3,36.9c30.7,20.3,54.8,46.4,70.4,80
		c8.1,17.3,13.4,35.5,16.5,54.3c2.7,16.1,4.3,32.3,4.1,48.7c-0.5,47.7-14.3,91.1-41.7,130.2c-24.1,34.5-55.5,61-91.6,82
		c-36,20.9-74.7,35-115.2,44.1c-45.8,10.3-92.2,14-139,11.6c-58.7-3-115.5-14.9-169.2-39.7c-43.8-20.2-82.4-47.7-114.3-84
		c-35.1-39.8-57.9-85.9-70.1-137.4c-0.8-3.5-1.1-7.3-0.8-10.9c0.6-8.3,5.9-13.2,14.2-13.8c2-0.1,4-0.1,6-0.1
		c55.7,0,111.3,0.2,167-0.2c13.7-0.1,23.9,4.8,31.3,16c20,30.6,48.6,49.9,82.3,62c34.7,12.5,70.5,16.4,107.2,13.4
		c16-1.3,31.8-3.1,47.4-6.9c13.6-3.3,27-7.5,39.2-14.6c5.5-3.2,10.8-6.7,15.6-10.7c16.6-13.8,22.3-31.7,19.2-52.8
		c-2.1-14.4-9.2-25.5-21.2-33.5c-9.5-6.3-19.8-10.9-30.4-14.9c-25-9.4-50.7-16.2-76.4-23.1c-46.9-12.8-94.4-23-141.7-34.4
		c-32.4-7.8-64.6-16.3-95.8-28.1c-24.4-9.2-47.8-20.2-69.3-35.2c-27.1-18.9-48.2-42.9-61.1-73.6c-7.2-17-11.7-34.7-13.4-53.1
		c-0.9-10.3-1.8-20.6-1.7-30.9c0.7-50.2,16.4-95.5,46-135.9c25.6-35.1,58.5-61.8,96.9-81.9c36-18.9,74.3-30.8,114.3-37.7
		c35.9-6.2,72.1-8.7,108.5-7.4c60.3,2.2,118.2,14.4,172.5,41.6c47.6,23.9,87.5,56.9,117.9,101c18.9,27.4,32.4,57.3,41.3,89.4
		c0.8,2.9,1.5,5.8,1.9,8.8c0.9,8.6-4.8,15.7-13.5,16.8c-2.6,0.3-5.3,0.1-8,0.1C667.8,455.6,639.5,455.6,611.2,455.6z"/>
	<path class="st0" d="M2533.3,7.4c2.5,8,2.8,15.2,2.8,22.6c-0.1,55.3,0,110.6,0,166c0,3-0.1,6,0.1,9c0.6,8,5.1,12.9,13,14.1
		c2.9,0.5,6,0.3,9,0.3c38.3,0,76.7,0.1,115,0c5.1,0,9.9,0.6,14.3,3.5c2.4,1.5,4.2,3.3,4.5,6.2c0.4,3.3,1,6.6,1,9.9
		c0.1,50.3,0,100.7,0,151c0,2,0,4-0.3,6c-1,8-5.6,12.7-13.6,13.5c-3,0.3-6,0.2-9,0.2c-37.3,0-74.7,0.1-112-0.1
		c-6.9,0-13.1,1.1-19.2,5.5c-2.3,3.3-3,7.5-2.9,11.9c0,1.3,0,2.7,0,4c0,120,0,240,0,359.9c0,9.8,1.4,19.2,5.5,28.2
		c8.1,17.6,21.8,28.3,40.4,32.6c5.5,1.2,11.2,1.7,16.8,1.7c23.7,0.2,47.3,0.1,71,0.1c3,0,6-0.1,9,0.3c6.2,0.8,10.5,4.2,12,10.4
		c0.8,3.2,1.1,6.6,1.1,9.9c0.3,39,0.5,78,0.7,117c0.1,12,0.3,24,0.4,36c0,2.7,0,5.4-0.4,8c-1,7.5-5.6,11.9-13.2,12.7
		c-2.3,0.3-4.7,0.1-7,0.1c-51.3,0-102.7,0.5-154-0.1c-69.8-0.8-123.3-31.7-160.9-90.2c-21.4-33.3-31.7-70.2-31.8-109.8
		c0-2.3,0-4.7,0-7c0-270.6,0-541.2,0-811.9c0-2.7,0-5.3,0-8c0-1.3,0-2.7,0.2-4c0.9-8.2,4.7-12.5,12.7-14.2c2.9-0.6,5.9-0.8,8.9-0.8
		c56,0,112,0.1,168-0.2C2522.3,1.5,2527.7,4,2533.3,7.4z"/>
	<path class="st0" d="M3650.1,782.4c10.6,0.7,18.6,0.8,26.5,1.8c12.3,1.6,23.9,5.6,34.8,11.6c41,22.3,66,56.2,73.2,102.4
		c5.4,34.9,0.5,68.3-18,99c-13,21.6-30.5,38.6-52.6,50.6c-10.8,5.9-22,11.2-34.1,13.9c-38.3,8.3-74.2,1.9-107-19.4
		c-30.4-19.8-51.7-47-60.4-82.6c-11.7-48.4-0.9-91.7,31.5-129.4c21.4-24.9,48.4-40.3,80.9-45.5C3634,783.1,3643.4,783,3650.1,782.4z
		"/>
</g>
</svg>
