<?xml version="1.0" encoding="utf-8"?>
<!-- Generator: Adobe Illustrator 19.0.0, SVG Export Plug-In . SVG Version: 6.00 Build 0)  -->
<svg version="1.1" id="Layer_1" xmlns="http://www.w3.org/2000/svg" xmlns:xlink="http://www.w3.org/1999/xlink" x="0px" y="0px"
	 viewBox="0 307.7 940.1 264.6" style="enable-background:new 0 307.7 940.1 264.6;" xml:space="preserve">
<style type="text/css">
	.st0{fill:#FFFFFF;}
	.st1{clip-path:url(#SVGID_2_);fill:#FFFFFF;}
	.st2{clip-path:url(#SVGID_4_);fill:#FFFFFF;}
	.st3{clip-path:url(#SVGID_6_);fill:#FFFFFF;}
	.st4{clip-path:url(#SVGID_8_);fill:#FFFFFF;}
	.st5{clip-path:url(#SVGID_10_);fill:#FFFFFF;}
	.st6{clip-path:url(#SVGID_12_);fill:#FFFFFF;}
	.st7{clip-path:url(#SVGID_14_);fill:#FFFFFF;}
	.st8{clip-path:url(#SVGID_16_);fill:#FFFFFF;}
	.st9{clip-path:url(#SVGID_18_);fill:#FFFFFF;}
	.st10{clip-path:url(#SVGID_20_);fill:#FFFFFF;}
</style>
<g>
	<g>
		<path class="st0" d="M535.5,331.8l203.1,0.1l0,53.6c16.9-26.5,45.6-47.5,86.6-51c8-0.7,16.2-1,23.8-1c17.7,0,32.4,1.4,34.6,1.6
			l15.1,2.2l21.2,3.1L895.1,428c0,0-3,10.4-6,20.7c0.4,1.2,24.3,75.5,24.3,75.5l7,22c0,0-26.4,3.8-26.5,3.8l-13.9,2.3
			c-14.8,2.6-30.9,5.4-47.5,5.4c-8.5,0-17.1-0.7-25.7-2.6c-31.9-6.9-54.3-23.7-68.3-44.7l0,46l-215.5,0c0,0-12.7-24.8-16.7-32.7
			v32.6h-97.8v-47.7c-22.8,32.4-61.3,47.5-96,47.8c-0.4,0-0.8,0-1.1,0c-40.9,0-76.4-18.6-96.7-48.8c-2.6,6-5.9,11.7-10,16.9
			c-14.3,18.3-37.1,29.8-62.7,31.8c-9.6,0.7-18.4,1.1-26.9,1.1c-9.6,0-18.7-0.5-27.9-1.4c-16.3-1.6-35.4-4.4-36.2-4.5l-21.9-3.2
			l18.1-66.3c0,0,3-9.8,4.1-13.3c-11.2-9-19.5-22.9-21.5-45.2c-0.3-3.4-0.5-6.7-0.5-10c0-18.1,4.7-33.8,14.1-46.8
			c18.7-25.9,50.2-31.4,75.6-33.2c4.2-0.3,8.5-0.5,12.7-0.5c16.3,0,32,2,44.5,4c13.6,2.1,25.8,5.3,26.3,5.4l19.2,5.1l-12.3,44.1
			c1-1.9,2-3.8,3-5.6c17.3-29.9,52.4-51,89.6-53.7c4-0.3,7.9-0.4,11.8-0.4c40.8,0,74.2,16.1,94.6,45v-45.1l108.7,0
			c0,0,13.4,26.2,18.3,35.9V331.8 M530.5,326.8v5V347c-4.6-9-8.9-17.4-8.9-17.4l-1.4-2.7l-3.1,0l-108.7,0l-5,0v5v31
			c-21.6-23.3-52.9-35.9-89.6-35.9c-4,0-8.1,0.2-12.1,0.4c-30.4,2.2-59.6,16.3-79.5,37.4l4.4-15.8l1.4-4.9l-4.9-1.3l-19.2-5.1
			l-0.1,0l-0.1,0l-0.3-0.1c-8.9-2.2-18.2-4.2-26.4-5.4c-12.2-1.9-28.3-4.1-45.3-4.1c-4.5,0-8.9,0.2-13.1,0.5
			c-26.5,1.9-59.5,7.7-79.3,35.3c-10,13.8-15.1,30.5-15.1,49.7c0,3.5,0.2,7,0.5,10.4c1.8,20.3,8.6,35.5,20.7,46.5l-3.1,10.2l0,0.1
			l0,0.1l-18.1,66.3l-1.5,5.5l5.6,0.8l21.9,3.2c0.2,0,19.5,2.8,36.4,4.5c9.5,0.9,18.8,1.4,28.4,1.4c8.5,0,17.4-0.4,27.2-1.1
			c27-2,51.2-14.3,66.3-33.7c2.6-3.3,4.9-6.8,6.9-10.4c10,12.6,22.8,23,37.5,30.5c17.5,8.9,37.7,13.6,58.3,13.6c0.4,0,0.8,0,1.2,0
			c18.8-0.2,37.6-4.4,54.6-12.3c14-6.5,26.4-15.5,36.4-26.4v33.6v5h5h97.8h5v-5v-11.8c3.8,7.5,7.2,14.2,7.2,14.2l1.4,2.7l3.1,0
			l215.5,0l5,0l0-5l0-31.4c15.7,17.5,36.9,29.5,62.3,35c8.4,1.8,17.2,2.7,26.8,2.7c17.1,0,33.7-2.9,48.4-5.5l13.8-2.3l0,0
			c1.1-0.2,16.3-2.4,26.3-3.8l5.8-0.8l-1.8-5.6l-7-22c-0.9-2.8-20.5-63.7-23.8-74.1c2.8-9.7,5.6-19.2,5.6-19.2l24.7-87.6l1.5-5.5
			l-5.6-0.8l-21.2-3.1l-15-2.2l-0.1,0l-0.1,0c-3.9-0.4-18.1-1.6-35.1-1.6c-8.7,0-16.9,0.3-24.3,1c-20.3,1.8-38.6,7.7-54.6,17.7
			c-10,6.3-18.9,14-26.6,23.1l0-38.4l0-5l-5,0l-203.1-0.1L530.5,326.8L530.5,326.8z"/>
	</g>
	<g>
		<g>
			<defs>
				<path id="SVGID_1_" d="M829.4,354.3c-107.3,9.3-119.2,159.8-15.9,182.1c27,5.8,55.8-1.7,80.1-5.3c1.3-0.2,3.8-0.5,3.8-0.5
					L874.7,460c0,0-1.3,1.7-2,2.6c-4.2,5.1-9.5,9.9-14.6,13.8c-13.5,10.1-28.5,11.2-41.1,3.8c-22.1-12.9-13.7-39.3,5.6-56.6
					c16.3-14.7,38.2-22.1,53.5-4.3c1,1.2,3,3.9,3,3.9l18.7-66.2c0,0-7.4-1.4-13.3-2c-5-0.5-17.8-1.5-32.6-1.5
					C844.5,353.4,836.8,353.6,829.4,354.3"/>
			</defs>
			<use xlink:href="#SVGID_1_"  style="overflow:visible;fill:#FFFFFF;"/>
			<clipPath id="SVGID_2_">
				<use xlink:href="#SVGID_1_"  style="overflow:visible;"/>
			</clipPath>
			<rect x="710.2" y="353.4" class="st1" width="187.4" height="188.8"/>
		</g>
	</g>
	<g>
		<g>
			<defs>
				<path id="SVGID_3_" d="M830.6,359.6c-53.5,4.7-79.8,45.2-82.2,83.3c-2.3,36.3,17.6,77.6,66.9,88.3c20.8,4.5,43.6,0.5,63.8-3
					c0,0,7.9-1.3,12-2c-2.8-8.6-14-43.5-17.9-55.7c-3.5,3.6-7.3,7.2-11.3,10.1c-14.9,11.1-32.5,12.7-47,4.1
					c-9.3-5.4-14.7-13.4-15.6-23c-1.4-13.5,6.4-29.6,20.3-42.1c12.4-11.1,25.8-16.8,37.7-16c7.5,0.5,14.1,3.5,19.8,8.7
					c3.5-12.4,12.1-42.8,14.4-51c-3.4-0.5-7.1-1-7.1-1c-2.1-0.2-15.8-1.5-32.2-1.5C845.3,358.7,837.9,358.9,830.6,359.6"/>
			</defs>
			<use xlink:href="#SVGID_3_"  style="overflow:visible;fill:#FFFFFF;"/>
			<clipPath id="SVGID_4_">
				<use xlink:href="#SVGID_3_"  style="overflow:visible;"/>
			</clipPath>
			<rect x="746.1" y="358.7" class="st2" width="145.4" height="176.9"/>
		</g>
	</g>
	<g>
		<g>
			<defs>
				<path id="SVGID_5_" d="M123.2,353.4c-27.7,2-48.9,8-61.2,25.2c-7.8,10.8-11.7,25.2-10.1,43.6c3.3,37.4,27,41.1,59,45.2
					c5,0.6,10.2,0.8,15,1.3c4.9,0.5,6.9,1.6,9.1,4.5c2.3,3.2,1.9,8.3-0.5,10.7c-1.4,1.5-3.6,3.1-7.2,4.1c-8.9,2.4-23.8,2.4-36.9,1.6
					c-9-0.5-21.7-2-21.7-2l-12.3,45c0,0,19.3,2.8,35.3,4.4c14.7,1.5,30.4,1.8,51.4,0.3c37.4-2.8,67.2-30.5,59.8-73.9
					c-2.3-13.4-8.6-23.2-17.6-29.4c-13.9-9.5-52.2-10.4-59.8-13.8c-2.9-1.3-4.5-1.9-5.5-4c-1.1-2.1-2.8-6.2,0.8-10.7
					c1.1-1.4,3.2-2.6,6.3-3.4c9.1-2.3,25.5-1.8,39.4-0.7c9.6,0.8,22.2,2.4,22.2,2.4l11.7-42c0,0-11.6-3-24.3-5
					c-11.8-1.8-26.5-3.8-41.5-3.8C130.7,353,126.9,353.2,123.2,353.4"/>
			</defs>
			<use xlink:href="#SVGID_5_"  style="overflow:visible;fill:#FFFFFF;"/>
			<clipPath id="SVGID_6_">
				<use xlink:href="#SVGID_5_"  style="overflow:visible;"/>
			</clipPath>
			<rect x="50.2" y="353" class="st3" width="160" height="185.8"/>
		</g>
	</g>
	<g>
		<g>
			<defs>
				<path id="SVGID_7_" d="M124.3,358.7L124.3,358.7c-30.1,2.2-47.3,9.1-57.3,23c-7.5,10.3-10.5,23.8-9.1,40
					c2.9,32.3,20.6,36.1,54.4,40.4l8.3,0.7l6.6,0.6c5.5,0.6,9.3,1.9,12.8,6.6c3.8,5,3.3,13.1-0.9,17.6c-2.5,2.7-5.8,4.5-9.7,5.6
					c-10.2,2.7-26.6,2.5-38.6,1.8c0,0-11.7-1.1-17.5-1.6c-1.7,6-7.4,26.9-9.5,34.8c6.9,0.9,18.7,2.5,29.1,3.5
					c15.8,1.6,31.3,1.7,50.4,0.3c18.6-1.4,35-9.5,45-22.3c9.5-12.1,12.9-27.9,9.9-45.5c-2-11.5-7.1-20.2-15.4-25.9
					c-7.9-5.4-26.5-7.9-40-9.7c-9.9-1.3-15.6-2.2-18.9-3.6l-0.4-0.2c-3-1.3-5.8-2.6-7.7-6.3c-3-6-2.5-11.5,1.4-16.4
					c1.9-2.4,5-4.2,9.2-5.2c8.1-2,22-2.3,41.1-0.8c0,0,12,1.3,17.9,1.9c1.7-6,7-25.2,9-32.3c-4.5-1-11.3-2.5-18.5-3.6
					c-11.6-1.8-26.1-3.7-40.7-3.7C131.5,358.3,127.9,358.4,124.3,358.7"/>
			</defs>
			<use xlink:href="#SVGID_7_"  style="overflow:visible;fill:#FFFFFF;"/>
			<clipPath id="SVGID_8_">
				<use xlink:href="#SVGID_7_"  style="overflow:visible;"/>
			</clipPath>
			<rect x="56.4" y="358.3" class="st4" width="144.9" height="175"/>
		</g>
	</g>
	<g>
		<g>
			<defs>
				<polygon id="SVGID_9_" points="653.6,351.8 653.6,537.2 721.5,537.2 721.6,351.8 				"/>
			</defs>
			<use xlink:href="#SVGID_9_"  style="overflow:visible;fill:#FFFFFF;"/>
			<clipPath id="SVGID_10_">
				<use xlink:href="#SVGID_9_"  style="overflow:visible;"/>
			</clipPath>
			<rect x="653.6" y="351.8" class="st5" width="68" height="185.5"/>
		</g>
	</g>
	<g>
		<g>
			<defs>
				<path id="SVGID_11_" d="M659.6,357.1v174.8h57.3c0-9.7,0.1-165.1,0.1-174.8C717,357.1,659.6,357.1,659.6,357.1z"/>
			</defs>
			<use xlink:href="#SVGID_11_"  style="overflow:visible;fill:#FFFFFF;"/>
			<clipPath id="SVGID_12_">
				<use xlink:href="#SVGID_11_"  style="overflow:visible;"/>
			</clipPath>
			<rect x="659.6" y="357.1" class="st6" width="57.4" height="174.8"/>
		</g>
	</g>
	<g>
		<g>
			<defs>
				<path id="SVGID_13_" d="M283.3,474.4c-24.3-24.1,14.6-63.3,37.4-66.8c20.7-3.1,37,14.1,33.4,35c-2.9,16.5-24,37.2-40.7,39.9
					c-2.8,0.5-5.4,0.7-7.8,0.7C295.9,483.2,288.8,479.8,283.3,474.4 M306.1,352.3c-32.9,2.4-61,21.3-74.1,44
					c-10.7,18.4-17.4,47.3-10.6,74.1c23.1,90.4,165.3,89.1,187.3-3.3c4.2-17.7,3.4-40.9-2.4-57c-12.3-33.9-42-58.2-89.4-58.2
					C313.4,351.9,309.8,352,306.1,352.3"/>
			</defs>
			<use xlink:href="#SVGID_13_"  style="overflow:visible;fill:#FFFFFF;"/>
			<clipPath id="SVGID_14_">
				<use xlink:href="#SVGID_13_"  style="overflow:visible;"/>
			</clipPath>
			<rect x="214.6" y="351.9" class="st7" width="198.3" height="208.8"/>
		</g>
	</g>
	<g>
		<g>
			<defs>
				<path id="SVGID_15_" d="M280.3,478.2c-8.8-8.8-11.4-20.5-7.4-33c7-21.4,31-40.3,47.8-42.8c11.4-1.7,22.4,1.8,30.1,9.7
					c8,8.2,11.4,19.6,9.3,31.5v0c-3.3,18.8-26,41.1-45.1,44.2c-3,0.5-5.9,0.7-8.6,0.7C296,488.5,287.3,485,280.3,478.2 M307.2,357.6
					c-29.2,2.1-56.6,18.3-69.9,41.3c-8.9,15.4-16.9,43.1-10,70.1c12,46.9,55,63.2,88.3,62.9c33.7-0.3,77.2-17.7,88.7-66.1
					c1.7-7.1,2.5-15,2.5-23c0-11.2-1.6-22.4-4.8-31c-12.7-35.1-43.3-54.7-84.6-54.7C314.1,357.2,310.7,357.3,307.2,357.6"/>
			</defs>
			<use xlink:href="#SVGID_15_"  style="overflow:visible;fill:#FFFFFF;"/>
			<clipPath id="SVGID_16_">
				<use xlink:href="#SVGID_15_"  style="overflow:visible;"/>
			</clipPath>
			<rect x="220.4" y="357.2" class="st8" width="186.3" height="175"/>
		</g>
	</g>
	<g>
		<g>
			<defs>
				<path id="SVGID_17_" d="M430.6,537.1h58.7v-94.3c3.1,6.1,48.2,94.5,48.2,94.5l78.8-0.1V351.7h-58.7v97.8
					c-3.1-6.2-49.8-97.7-49.8-97.7l-77.2-0.2L430.6,537.1L430.6,537.1z"/>
			</defs>
			<use xlink:href="#SVGID_17_"  style="overflow:visible;fill:#FFFFFF;"/>
			<clipPath id="SVGID_18_">
				<use xlink:href="#SVGID_17_"  style="overflow:visible;"/>
			</clipPath>
			<rect x="430.6" y="351.6" class="st9" width="185.7" height="185.6"/>
		</g>
	</g>
	<g>
		<g>
			<defs>
				<polygon id="SVGID_19_" points="562.9,357 562.9,471.7 504.5,357.1 435.9,357 435.9,531.8 484,531.8 484,420.6 540.7,531.9 
					611,531.8 611,357 				"/>
			</defs>
			<use xlink:href="#SVGID_19_"  style="overflow:visible;fill:#FFFFFF;"/>
			<clipPath id="SVGID_20_">
				<use xlink:href="#SVGID_19_"  style="overflow:visible;"/>
			</clipPath>
			<rect x="435.9" y="357" class="st10" width="175.1" height="174.9"/>
		</g>
	</g>
</g>
</svg>
