<?xml version="1.0" encoding="utf-8"?>
<!-- Generator: Adobe Illustrator 19.0.0, SVG Export Plug-In . SVG Version: 6.00 Build 0)  -->
<svg version="1.1" xmlns="http://www.w3.org/2000/svg" xmlns:xlink="http://www.w3.org/1999/xlink" x="0px" y="0px"
	 viewBox="1500 96 4000 920" style="enable-background:new 1500 96 4000 920;" xml:space="preserve">
<style type="text/css">
	.st0{fill:#FFFFFF;}
</style>
<g id="Layer_2">
</g>
<g id="Layer_1">
	<g transform="translate(0.000000,4000.000000) scale(0.100000,-0.100000)">
		<g>
			<path class="st0" d="M29971,36098l43,262h51c28,0,58,6,67,13c11,8,33,101,73,311c31,164,55,308,53,320c-3,20-7,21-158,21
				c-85,1-270-2-410-5l-255-5l-8-25c-4-14-156-833-336-1820c-327-1789-328-1795-306-1801c12-4,380-10,816-13l794-7l225,347
				c124,190,227,350,228,355c2,5-261,9-602,9c-333,0-606,4-606,8c0,5,65,404,144,888C29864,35439,29948,35953,29971,36098z"/>
			<path class="st0" d="M27515,36362l67,267l-277,320c-152,177-278,321-280,321s-6-8-9-17c-30-101-801-2854-819-2928
				c-84-335-56-550,98-754c80-105,184-174,340-228c60-20,96-24,265-30c235-7,415,8,625,52l31,7l199-326c109-179,202-326,205-326
				c4,0,10,12,13,28c81,405,756,3558,773,3613c4,13,22,17,89,21c47,2,86,6,88,9c23,25,376,633,372,638c-10,9-1895,13-1895,4
				c0-4,109-147,243-318l243-310l50-10l50-10l-196-850c-191-825-309-1306-332-1349c-47-90-121-137-247-157c-117-18-202,3-238,58
				c-35,53-23,139,72,488C27190,35111,27445,36079,27515,36362z"/>
			<path class="st0" d="M22460,34085c-79-192-148-355-154-362c-12-13-868-403-885-403c-6,0-192,150-413,333
				c-549,453-1058,873-1203,990c-134,109-107,101-260,76l-61-10l-1443-2147l-1442-2147l135-3l135-3l1578,1022
				c868,562,1590,1029,1604,1037c25,15,30,11,345-225c177-133,330-246,340-253c18-11,177,55,1240,510c670,287,1223,526,1227,530
				c5,4,136,351,293,771l285,764l-36,475c-20,261-37,475-38,476s-240,129-532,283c-291,155-530,287-530,294c0,19,365,606,383,616
				c27,14,846,324,857,324c6,0,120-69,254-152c160-100,251-151,265-149c12,2,532,266,1154,588l1132,585l-47,7c-27,4-257,17-513,27
				c-256,11-836,36-1290,56l-825,36l-1650,295c-907,162-1665,297-1682,301c-18,3-33,3-33,1c0-3,252-229,559-503l560-498l-43-61
				c-280-396-1326-1919-1322-1923c3-4,135-44,292-89l286-83l824-487l824-486l-14-31C22609,34449,22539,34278,22460,34085z"/>
			<path class="st0" d="M44657,34135c-70-61-152-67-294-24c-71,22-137,80-166,145c-9,22-175,581-368,1244
				c-235,811-356,1209-367,1218c-9,7-216,160-460,340c-243,180-448,329-454,331s-9-3-6-10c3-8,214-745,468-1639
				c324-1137,476-1656,506-1727c80-187,186-342,293-430c125-102,335-176,551-193c63-4,273-10,465-11c193-2,358-7,368-12
				c10-4,205-161,433-348c229-187,419-339,423-337s-279,827-628,1833l-634,1830l24,353l24,352l-820-1c-451-1-843-4-871-7l-52-7
				l402-325l401-324l67-10l68-9l41-126c22-69,164-504,314-966c151-462,282-871,291-910c9-38,17-99,18-134
				C44695,34169,44694,34167,44657,34135z"/>
		</g>
		<path class="st0" d="M51460,33693c-4,5-325,65-713,135l-705,127l-425,400c-234,220-462,429-507,465c-97,78-106,90-86,128
			c8,15,265,275,570,576c306,302,556,552,556,556c0,5-429,341-952,747c-524,406-963,747-975,758l-22,20l510,470
			c281,259,520,480,531,493l21,22l-29-1c-16-1-51-5-79-10c-27-4-853-127-1835-273l-1785-265l-1640-91c-901-50-1641-92-1643-94
			c-1-2,241-138,540-302c511-281,546-299,608-306c36-4,425-7,864-7l799-1l-6-122c-3-68-12-236-18-374l-13-251l53-204
			c181-692,414-1453,618-2019c151-420,424-1090,626-1538l64-143l604-380l604-380l245,7c135,4,246,7,247,8c2,1-423,869-1064,2171
			c-176,358-319,651-318,653c1,1,141-35,311-82c170-46,471-128,669-180c198-53,369-100,380-105s117-89,236-189l216-180l420-583
			l419-583l465-87c255-49,471-90,479-92s650-502,1427-1110l1412-1107h73c89,0,178,10,178,20C53390,30398,51473,33679,51460,33693z
			 M48167,36103c-11-10-556-400-658-470c-41-28-61-34-172-48l-126-17l-511,121c-281,66-522,128-536,137c-13,9-35,35-48,58
			c-31,54-450,1085-444,1091c2,2,159,11,349,19c189,8,434,13,544,12l200-1l65-31c36-17,151-87,255-155c105-69,394-255,642-414
			C48079,36180,48177,36113,48167,36103z"/>
		<path class="st0" d="M43091,34980c-32,242-186,670-306,850c-85,128-262,282-368,321l-32,11l-1,112c-1,136-24,228-95,373
			c-54,113-127,198-211,247c-72,42-224,93-361,121l-122,26l-3402,6l-3402,6l-5-24c-3-13-100-676-216-1474
			c-116-797-214-1462-218-1478l-7-27l-107,76c-119,83-142,110-208,249c-23,50-56,109-73,132c-30,42-30,42-23,140
			c11,147,11,150-18,191c-20,29-26,50-26,89c0,74,20,120,111,253l82,120l-38,163c-20,89-37,164-38,167c0,3,4,16,10,30
			c29,68,37,111,25,144c-7,18-12,48-12,67c0,26-7,40-31,60c-24,19-32,35-34,65c-4,57-51,164-86,197c-29,26-30,30-23,87
			c6,53,4,61-17,82c-18,17-23,32-21,59c3,35,5,37,45,42c24,3,46,13,52,23c6,9,20,28,31,42l22,26l63-34c48-25,76-34,116-34
			c44-1,52-4,47-18c-39-124-48-171-48-253c0-81,3-97,31-158c31-65,31-68,17-104c-15-34-14-41,6-102c12-36,37-87,56-113
			c19-27,34-53,34-58c0-17,37-85,54-99c14-12,16-8,16,36c0,27,6,58,14,68c12,17,10,23-14,55c-45,56-102,167-90,175c5,3,17,20,26,37
			c15,29,14,32-23,106l-38,75l1,135v135l50,40c172,141,226,243,254,477c6,52,16,109,22,125c5,17,27,124,48,239s42,212,47,217
			c11,11,143,62,308,121c236,83,778,213,1135,272c284,47,774,98,1158,121c81,5,112,11,112,20c0,7-15,15-32,19c-72,12-293,36-468,50
			c-185,15-636,26-805,20c-674-25-1144-87-1650-218c-426-111-1001-318-1330-479c-637-312-1042-604-1560-1122
			c-256-256-276-283-431-591c-180-358-244-618-244-997c0-212,20-404,56-536c50-186,148-405,250-565c193-298,520-584,996-870
			c381-229,1112-461,1668-530c509-63,1195-54,1910,24c647,72,1280,235,2080,536c449,170,565,221,720,317c501,312,896,610,1360,1027
			c209,188,267,247,255,259c-7,7-73-31-185-105c-522-344-1112-662-1570-846c-389-157-815-256-1312-308c-106-11-239-27-295-35
			c-55-8-181-24-280-35c-755-82-1334-37-1983,155c-63,18-162,45-220,60c-302,76-617,205-815,333c-300,193-608,575-745,921
			c-39,99-110,350-110,390c0,13,34,42,103,88c135,92,176,114,282,158c50,20,109,48,131,61c39,22,42,22,57,6c35-39,131-250,141-311
			c3-24,13-56,21-72c8-15,15-42,15-59c0-42,42-83,108-106c30-11,55-26,58-36c11-35,124-178,159-200c26-17,41-39,58-82
			c26-68,53-92,117-104c47-9,157-74,352-210c97-67,107-77,102-101c-9-54-84-574-84-587c0-12,86-14,543-13c298,1,612,4,698,8l156,6
			l-216,330l-216,330l-41,5l-40,5l110,803l110,802h158c155,0,158,0,163-22c3-13,86-516,185-1118s183-1107,186-1121c4-21,13-28,40-34
			c45-8,769,6,784,15c8,5-65,446-249,1509c-144,826-261,1507-260,1514c0,10,107,109,329,305l49,42l156-185l157-185h58h59l5-42
			c3-24,65-698,136-1498c72-800,133-1457,136-1460s47-5,97-4c270,3,848,189,1390,447c112,53,128,63,123,81c-2,12-10,50-17,85l-12,64
			l-449-6c-246-4-448-4-448,0c0,5-43,534-95,1177s-94,1170-93,1171c2,1,23,6,48,11l44,9l176,252c96,139,177,253,180,253
			s142-119,309-264c261-228,308-265,339-268l36-3l173-1124c96-619,175-1127,177-1129c6-6,721,519,723,531c2,7-62,399-140,872
			c-97,580-140,862-133,867c6,4,20,8,31,8c13,0,68,52,150,139c72,77,133,140,136,140c3,1,49-59,102-133l96-133l77-6c42-3,77-7,79-9
			c5-5,436-2330,433-2333c-2-1-118-8-258-14c-140-7-256-14-259-16c-3-4,148-172,467-517l154-166l126-7c151-9,492-1,647,15
			c90,10,134,21,245,62c462,172,722,355,868,612c46,79,91,239,117,416C43103,34550,43106,34861,43091,34980z M33164,35920
			c-7-19-13-80-14-135c0-71-6-119-20-163c-14-45-20-92-20-157v-92l-42-6c-23-3-80-25-126-49c-99-51-162-113-257-256l-63-94l-8,58
			c-12,98,3,308,30,427c52,223,165,503,266,657c115,174,344,444,523,616c316,305,626,511,1067,710c52,24,96,40,98,35
			c5-15-87-420-103-452c-10-18-42-64-71-103c-30-39-71-104-92-143c-28-55-44-75-66-83c-41-14-102-1-172,37c-95,52-159,43-255-38
			l-49-41l-30,30c-16,17-30,38-30,46c0,20-4,20-40,1c-26-14-30-21-30-58c0-33-10-60-45-117c-24-41-52-96-61-123c-12-35-24-52-47-64
			c-82-41-115-74-137-135c-15-41-48-93-108-166C33215,36003,33170,35940,33164,35920z M33793,34891c11-50,14-99,10-144
			c-5-63-4-70,19-95c25-26,48-64,48-77c0-3-18,4-39,16c-45,25-160,190-223,320c-38,77-62,103-226,247c-77,68-107,111-97,142
			c3,11-1,43-9,71c-9,29-16,73-16,99c0,59,37,320,50,355c5,14,34,53,63,86c28,33,75,96,102,142c52,84,60,90,137,102
			c31,5,42,13,63,49c13,23,28,57,31,74c6,30,7,31,28,15c17-13,20-24,18-63c-3-41,0-50,27-76c17-16,31-36,31-45c0-8,11-38,25-65
			s25-61,25-75s14-43,30-64c17-22,30-50,30-66c0-15,5-39,11-53c10-22,8-35-16-88l-28-62l21-66c12-36,24-87,27-115c3-27,15-71,27-97
			c21-46,21-47,1-80c-10-18-41-48-68-65c-60-39-79-72-101-171C33779,34973,33779,34961,33793,34891z M35522,36180h-270l40,143
			c21,78,41,148,43,155c3,9,49,12,184,12c162,0,180-2,185-17c3-10,21-74,42-142c20-69,38-131,41-138
			C35791,36182,35741,36180,35522,36180z M41224,36178l-23,134c-13,73-26,146-29,162l-5,28l234-7c205-6,238-10,265-26
			c63-38,95-173,55-236c-19-30-23-31-103-37c-46-3-153-8-239-12L41224,36178z M42314,34835c0-180-3-225-23-315
			c-36-168-123-305-228-363c-58-31-158-57-225-57c-44,0-47,1-53,33c-9,39-332,1481-341,1517l-6,25l24-21c22-20,36-22,238-27
			c144-3,225-9,245-18c77-33,166-102,214-167C42286,35274,42315,35160,42314,34835z"/>
		<path class="st0" d="M26396,36754c-100,140-222,210-435,250c-42,8-130,17-196,19c-385,17-729-121-993-397
			c-128-134-244-341-340-606c-34-93-464-1538-518-1740c-65-242-67-435-6-592c56-144,130-229,282-319c53-31,88-43,157-55
			c226-38,621-26,758,23c113,41,265,117,362,182c102,69,252,219,326,327c91,133,192,405,307,829c28,105,135,485,236,846l184,656v131
			C26520,36513,26489,36623,26396,36754z M25471,35197c-195-671-287-970-305-997c-49-74-167-135-284-146c-75-7-134,22-178,87
			c-54,82-54,85,57,437c387,1225,522,1637,544,1666c33,43,78,75,139,97c108,40,221,14,274-65C25767,36203,25775,36238,25471,35197z"
			/>
	</g>
</g>
</svg>
