<?xml version="1.0" encoding="utf-8"?>
<!-- Generator: Adobe Illustrator 19.0.0, SVG Export Plug-In . SVG Version: 6.00 Build 0)  -->
<svg version="1.1" id="Layer_1" xmlns:v="https://vecta.io/nano"
	 xmlns="http://www.w3.org/2000/svg" xmlns:xlink="http://www.w3.org/1999/xlink" x="0px" y="0px"
	 viewBox="3194 -1288.6 7000.1 3368.6" style="enable-background:new 3194 -1288.6 7000.1 3368.6;" xml:space="preserve">
<style type="text/css">
	.st0{fill:none;stroke:#FFFFFF;stroke-width:25;stroke-miterlimit:10;}
	.st1{fill:#FFFFFF;}
</style>
<path class="st0" d="M10068.3-42.2C9918-274.2,9704-283.9,9704-283.9c-214.7-181.3-442-161-442-161c-97.3,97.4-166,348.5-166,348.5
	c-136.5-165-411.3-119.4-548.6-48.1c-119.9,62.3-96.7,9-235.8-25.4c-163.7-40.4-315,21-315,21c52.1-160,106.5-232.5,106.5-232.5
	c-44.3-38.8-100.5-58.5-100.5-58.5l34.6-64.7c11.5-21.6,29.9-49.3,29.9-49.3c-71.7-76.3-217.8-126.2-319.5-146.8
	c-213.1-43.2-321-7.4-319.9-7.7c-39,60-62.5,133.5-62.5,133.5c-73.1,6.7-115.5,26.5-115.5,26.5c-57.6,86.9-72,257-72,257
	c-210-55.5-362-19-362-19l-20,82c-259.5,3-416,145.5-416,145.5c15-334.5,69-515.5,69-515.5c-103.9-60.5-361.2-58.1-503.5-43.7
	c-261.8,26.5-399.5,118.2-399.5,118.2c-67.5,270,70.4,561,70.4,561c-90.7-30.7-208.7-26-208.7-26c48-187.3,30-325.3,28.7-358
	s-15.3-245.3-126-498s-257.3-356.7-257.3-356.7s-364-44.3-853.1,189.7s-783.8,572-888.1,906.1c-109.9,352.3-50.2,895.8,558.1,1164.1
	c207,91.3,374.5,84.6,439,127c0,0,11.4,84.1-123.9,94.1c-140.7,10.5-244-81-244-81s-59.9,47.9-111.7,156.5
	c-46,96.5-93.5,256.5-69,406.5c0,0,70.7,144.3,346.7,205s507,20.8,724.7-100c109.3-60.7,200.7-160,244.7-228c0,0,12.7,86,10,184
	c0,0,25.9,16.4,105.7,21.9c99.3,6.9,267-1.2,400.3-74.6c0,0,40.6-144.3,31.6-448.8c0,0,229.5-99,354-304.5c0,0,34.5,79.5,76.5,138
	c0,0,100.9,14.9,247.5-31.5c66.3-21,154.9-58.5,207-111l-30-130c0,0,210.4,135.9,474,52c0,0,219.9,50.2,384.9-65.3l-0.8-8.3
	c0,0,68.1,11.8,167.3,5.8c82-5,189.7-23.1,258.5-61.8c0,0-4.5-67,2-140.5c0,0,83,119,243,127.5c50.5,2.7,129.4-4.9,176.5-17.5
	c106.5-28.5,153-77.5,222.5-79c0,0,36-3.5,90.5,27.5s185,65,328.5,25c84.5-23.6,143.4-62.7,179.2-90.9c25-19.7,39.8-34,39.8-34
	c14.9,22.9,29,75,156.5,108s220.5,4,220.5,4c85.9,112.6,198,141,198,141c54.6-14.4,162.4-69.2,282-204.2
	c52.7-59.5,108.4-134,151.5-226.3C10193.9,143.5,10068.3-42.2,10068.3-42.2L10068.3-42.2z M4723,264.4c78,142,142,316,142,316
	s-22-22-153-107c-30-19.5-76-52-72-128c3.3-63.1,53.1-133,75-153c241-220,549-172,549-172C4882,86.4,4723,264.4,4723,264.4z"/>
<path class="st1" d="M4636,575.4c0,0-130-82-172-186s-11-273,143-392s413-200,627-161c0,0,53.7-138.1-49.8-511.9
	c-81-292.5-190.5-402-190.5-402s-328.5-7.5-684.5,154.4c-207.3,94.3-431.1,214.4-629.4,438c-493.5,556.5-195,1048.4-195,1048.4
	s96.3,215,448.5,336c145.9,50.1,224.5,58.8,290.2,72.6c68.1,14.3,135.4,48.6,174.2,101.9c81.5,112,9.5,239.5-34,272.5
	s-199.4,112.4-393.7,18c0,0-21.4,28.2-43.5,88.1c-24.7,66.9-50.2,168.6-47.5,239.9c0,0,132.7,101.8,370.3,107.2
	c87.5,2,189.2-5.6,303.7-41.2c409.5-127,462-491,462-587c0,0,24-218-114-376C4901,795.4,4832,695.4,4636,575.4z M5887.1,503.5
	c-19.5-123-68.5-217.5-200.5-301.5c-132-84-373.5-78-559.5-22.5s-246.5,118.2-246.5,118.2c302,591.3,323.3,1353.7,323.3,1353.7
	s96,10,215-36c0,0,23-58,13-443c0,0,166.5-57.4,298.1-188.9C5892,821.8,5906.6,626.5,5887.1,503.5z M5422,999.4
	c-18-284-77-519-77-519s232-45,274,183C5661.7,895.3,5422,999.4,5422,999.4z M6319.3,902.4c-102.7,62.7-238.3,75-238.3,75
	c-108.3-255-185.9-630.4-216.1-832.8C5848.4,34.2,5844-35.6,5844-35.6c-71,32-109,54-109,54s-37.6-34.5-77-226
	c-32.7-158.7-10-244.7-10-244.7s48.7-40,271.3-74c210.5-32.1,328-10.7,328-10.7S6184-264.6,6209,171.4
	C6230.5,546.2,6319.3,902.4,6319.3,902.4z M7244.3-155.6c-10-4.7-75-34-169.7-48.7s-170.7-6.7-170.7-6.7s-7.3,19.6-21.8,101.8
	c0,0-142.9-39.8-320.3,38.2s-244,224.7-264.7,294s-49.3,216,56.7,386c26.1,41.9,69.4,79.1,112,105.8
	c134.1,83.8,327.7,92.4,479.5,18.1l12.2,33.8c124,11.3,198.9-23.3,198.9-23.3c-22.2-186.1-8.9-414.7,12.1-573.1
	C7197.3-45.6,7244.3-155.6,7244.3-155.6z M6669.3,593.8c-76-52-128.8-185.3-33.3-296c92-106.7,230-77.3,230-77.3
	c4.7,204.7,48.7,394.7,48.7,394.7C6842.7,641.8,6742.1,643.6,6669.3,593.8z M7589,663.8c0,0-51.7,17-110,23
	c-50.2,5.2-125.9,2.7-125.9,2.7c-54.4-388.4,10.9-806.1,10.9-806.1c-44,6.7-84,19-84,19s-8.7-93.3,10-219.3s34-138.7,34-138.7
	s60-14.7,120-18c0,0,30.7-89.3,56-134.7c0,0,66-7.3,169.3,7.3s164.7,37.3,175.3,42.7c0,0-42,87.3-53.3,120.7c0,0,78,23.3,94,37.3
	c0,0-42,61.3-97.3,292c0,0-62-14-97.3-14C7690.7-122.2,7592,225.8,7589,663.8z M8974.3-93c-45.1-31.6-103.8-53.6-175.6-51.3
	c-242,8-359.3,211.3-359.3,211.3s-48-178.7-262.7-186c-71.8-2.5-141.4,21.9-198.6,52.8C7864.3-4.5,7787.7,101,7758,197.8
	c0,0-48.7,134.3,21.3,255.3c74,128,224,128.7,224,128.7c260,4,382-212.7,382-212.7c70.6,203,281.4,221,436,148
	c130-61.3,207.8-173.4,238.7-254C9111.6,128.5,9081.1-18.2,8974.3-93z M8212,273.1c-107.5,51.3-226.3,20.5-263.6-59.2
	s-2.4-190,126-253.8c99.6-49.5,225.9-24.3,265,59.7C8385,117.9,8312.3,225.2,8212,273.1z M8790.7,250.8
	c-107.5,51.3-224.3,21.5-263.6-57.2c-38.7-77.5-3.4-193,125-256.8c99.6-49.5,226.9-25.3,266,58.7
	C8963.7,93.6,8891,202.8,8790.7,250.8z M9299,570.4c0,0-27,10.5-102-4.5s-85.5-31-85.5-31s-6.5-65.6,25-282.9
	c34.2-235.9,100.5-482,177-585.5c0,0,78,6,153,33s129,69,129,69l-36,57c0,0,145.5-28.5,262.5,52.5s159.4,259.7,69,454.5
	c-93.6,201.7-286.5,336-331.5,354c0,0-64.4-19.1-115.5-102c0,0,124.4-91.7,188-265C9695.3,147,9619,9.8,9460,39.4
	C9460,39.4,9349,304.4,9299,570.4L9299,570.4z"/>
</svg>
