<?xml version="1.0" encoding="utf-8"?>
<!-- Generator: Adobe Illustrator 19.0.0, SVG Export Plug-In . SVG Version: 6.00 Build 0)  -->
<svg version="1.1" id="Layer_1" xmlns="http://www.w3.org/2000/svg" xmlns:xlink="http://www.w3.org/1999/xlink" x="0px" y="0px"
	 viewBox="0 0 1760.2 237.4" style="enable-background:new 0 0 1760.2 237.4;" xml:space="preserve">
<style type="text/css">
	.st0{fill:#FFFFFF;}
</style>
<g>
	<path class="st0" d="M164.2,133.3c-2.2,10.4-4.2,20.1-6.4,30.2c-2.2,0.1-4.1,0.2-6,0.2c-30.5,0-61,0-91.5,0c-1.5,0-3,0-4.5,0
		c-5.2,0.2-6.7,1.3-8.5,6.7c0.4,3,2.3,4.2,5.1,4.3c1.7,0.1,3.3,0.1,5,0.1c23.2,0,46.3-0.1,69.5,0c4.3,0,8.7,0.2,12.8,1.4
		c9.8,2.8,15.9,10.8,16.4,20.9c0.8,15-6.4,25.8-18.2,34c-6.2,4.3-13.1,6.3-20.7,6.3c-37.5,0-75,0-112.5-0.1c-1.4,0-2.9-0.3-4.7-0.5
		c2.1-10,4.2-19.6,6.3-29.6c2.2,0,4.1,0,6.1,0c32.5,0,65,0,97.5,0c1.3,0,2.7-0.1,4,0c4.6,0.2,7.7-1.6,9.1-6c-1-3.9-1.8-4.8-5-5.1
		c-1.5-0.2-3-0.1-4.5-0.1c-24.2,0-48.3,0-72.5,0c-2.7,0-5.4,0-8-0.5c-13.4-2.9-21.3-15.5-18.6-29.2c3.7-19,20.2-32.9,39.7-33.1
		c15-0.2,30,0,45,0c19.5,0,39,0,58.5,0C159.6,133.3,161.6,133.3,164.2,133.3z"/>
	<path class="st0" d="M1358.6,196.3c-0.8,3.9-1.5,7.1-2.3,10.8c13,0.5,25.4,0.2,37.8,0.2c12.7,0.1,25.3,0,38,0c12.5,0,24.9,0,38.1,0
		c-2.2,10.3-4.2,20-6.3,29.9c-1.6,0.1-2.9,0.2-4.2,0.2c-36.3,0-72.6,0-109,0c-1.2,0-2.3,0-3.5,0c-6.6-0.1-8.9-1.6-11-8
		c-2.9-8.8-5.5-17.8-8.2-26.7c-0.2-0.6-0.4-1.3-0.6-1.9c4.7-22.3,9.5-44.5,14.1-66.6c0.3-0.3,0.4-0.4,0.6-0.5
		c0.1-0.1,0.3-0.2,0.4-0.2c0.7-0.1,1.3-0.2,2-0.2c46.5,0,93,0,139.4,0c0.5,0,0.9,0.2,1.9,0.4c-2,9.8-4,19.5-6.1,29.7
		c-2,0.1-3.9,0.2-5.9,0.2c-34,0-68,0-102,0c-2,0-3.9,0-6.2,0c-0.8,3.6-1.5,6.8-2.3,10.7c11.4,0.1,22.1,0,32.9,0
		c10.8,0,21.7,0,32.5,0c10.8,0,21.6,0,33,0c-0.8,4.1-1.4,7.6-2.2,11.1c-0.7,3.4-1.5,6.8-2.3,10.7c-16.5,0.1-32.8,0-49.1,0
		C1391.7,196.3,1375.4,196.3,1358.6,196.3z"/>
	<path class="st0" d="M953,237.4c-5.8,0-10.8,0-15.8,0c-32.8,0-65.6,0-98.5,0c-9.3,0-11.4-1.4-14.1-10.1c-2.5-7.9-4.9-15.9-7.3-23.8
		c-0.4-1.5-0.6-3.3-0.2-4.9c4.4-21.3,9-42.6,13.5-63.9c0.1-0.3,0.3-0.6,0.5-0.8c3.6-0.8,135.9-1.1,143.8-0.2c-2,9.9-4.1,19.7-6.2,30
		c-19.3,0-38.2,0-57.2,0c-18.8,0-37.6,0-56.9,0c-0.7,3.5-1.4,6.7-2.2,10.5c6,0.5,11.5,0.2,16.9,0.3c5.3,0,10.7,0,16,0
		c5.5,0,11,0,16.5,0c5.3,0,10.7,0,16,0c5.5,0,11,0,16.5,0c5.3,0,10.6,0,16.5,0c-1.5,7.4-2.9,14.3-4.4,21.7
		c-11,0.3-21.7,0.1-32.5,0.2c-11,0-22,0-33,0c-10.8,0-21.6,0-32.5,0c-2,3.3-2.3,6.7-2.6,10.2c2.1,1.4,4.3,0.8,6.4,0.8
		c33.5,0,67,0,100.5,0c2,0,3.9,0.1,6.6,0.2C957.1,217.8,955.1,227.5,953,237.4z"/>
	<path class="st0" d="M1062.6,210.1c-21.1,0-41.9,0-63.3,0c-2,8.8-3.9,17.7-6,27.1c-9.9,0.3-19.7,0.3-30,0
		c7.4-34.9,14.7-69.1,22-103.6c1.7-0.1,3.2-0.3,4.6-0.3c40.5,0,80.9,0,121.4,0c1.7,0,3.3,0.1,5,0.4c6.9,1.3,10.6,5.7,9.9,12.7
		c-0.6,5.8-2,11.4-3.2,17.1c-2.1,10.1-4.4,20.1-6.5,30.2c-1.8,8.6-7.1,13.7-15.4,15.7c-1,0.2-1.9,0.5-3.5,0.9
		c4.5,8.8,8.9,17.3,13.5,26.1c-3.7,1.6-7.3,0.7-10.9,0.9c-3.8,0.1-7.7,0-11.5,0c-3.6,0-7.3,0-11.1,0
		C1072.5,228.3,1067.7,219.4,1062.6,210.1z M1005.8,179.4c1.8,0.2,2.8,0.4,3.7,0.4c25.3,0,50.6,0,75.9,0c1.4,0,2.8-0.3,4.3-0.5
		c0.6-2.9,1.1-5.3,1.6-7.7c0.5-2.4,1-4.8,1.5-7.1c-5-1.1-79.7-1.1-83.8,0.1C1008,169.2,1007,174,1005.8,179.4z"/>
	<path class="st0" d="M192,209.9c-2.1,9.3-4,18.2-6.1,27.6c-9.9-0.2-19.6,0.1-30-0.2c7.4-35,14.7-69.2,21.9-103.6
		c1.6-0.1,2.9-0.4,4.2-0.4c40.8,0,81.6,0,122.4,0c0.8,0,1.7,0,2.5,0.1c8.8,0.8,13.4,6.8,11.7,15.5c-1.1,5.7-2.4,11.4-3.7,17.1
		c-2,9.4-4,18.9-6,28.3c-2.1,9.3-9.3,15.3-18.8,15.7c-1.7,0.1-3.3,0-5,0c-29.1,0-58.3,0-87.4,0C196.1,209.9,194.5,209.9,192,209.9z
		 M198.7,179c4.2,1.1,78.6,1.2,83.7,0.2c0.9-4.9,2.9-9.7,2.7-15.2c-28,0-55.4,0-83.3,0C200.7,169.1,199.7,174.1,198.7,179z"/>
	<path class="st0" d="M1175.3,200.7c3.6-16.9,7.2-33.7,10.7-50.4c2.2-10.6,9.7-17,20.3-17c36.8-0.1,73.6,0,110.4,0
		c1.6,0,3.3,0.2,4.9,0.6c6,1.4,10,6.4,9.1,12.5c-1.1,7.5-3,15-4.5,22.2c-4.3,1.1-20.9,1.3-30,0.5c0.2-1.6,0.3-3.1,0.5-4.6
		c-4-0.9-77.8-1.1-83.5-0.2c-3,14-6,28.3-9.2,43c1.5,0.3,2.8,0.7,4,0.7c25.3,0,50.6,0,75.9,0c1.1,0,2.3-0.2,3.5-0.4
		c0.7-2,1.3-3.9,2-5.9c9.6,0,19.2,0,29,0c0,1.4,0.2,2.5,0,3.6c-1.1,5.4-2.3,10.7-3.5,16.1c-2.5,10.5-9.5,16.1-20.3,16.1
		c-18.8,0-37.6,0-56.5,0c-14,0-28,0-42,0c-8,0-10.2-1.6-12.7-9.2C1180.8,219.2,1178.1,210.1,1175.3,200.7z"/>
	<path class="st0" d="M547.7,169.1c-5.1,23.6-9.8,45.8-14.6,68.1c-10.2,0-19.8,0-30.1,0c7.4-34.9,14.7-69.2,22-103.7
		c10.5,0,20.4,0,31,0c22.5,22.2,45,45,68.7,68c4.9-23.2,9.7-45.4,14.5-67.9c10.1,0,19.8,0,30.1,0c-7.3,34.6-14.6,68.8-21.9,103.7
		c-10.3,0.3-20.4,0.2-30.7,0.1C593.7,214.8,571.1,192.4,547.7,169.1z"/>
	<path class="st0" d="M743.5,237.2c-10.3,0-20,0-30.3,0c5.2-24.6,10.4-48.7,15.7-73.5c-6.9,0-13,0-19.1,0c-6.3,0-12.7,0-19,0
		c-6.1,0-12.2,0.2-18.8-0.2c2.2-10.3,4.2-20,6.2-29.9c47.9,0,95.5,0,143.1,0c0.5,3.6-3.4,24.3-5.8,30.2c-18.5,0-37.3,0-56.5,0
		C753.9,188.3,748.8,212.5,743.5,237.2z"/>
	<path class="st0" d="M332.4,133.6c10,0,19.6,0,29.8,0c-4.8,24.6-10.3,48.7-15.3,73.5c6.5,0.6,12.6,0.2,18.7,0.3
		c6.2,0.1,12.3,0,18.5,0s12.3,0,18.5,0s12.3,0,18.5,0c6.2,0,12.3,0,18.5,0c6.1,0,12.3,0,19.1,0c-2.1,10.1-4.2,19.8-6.3,29.7
		c-1.4,0.1-2.6,0.4-3.9,0.4c-34.6,0-69.3,0-103.9,0c-3.2,0-6.3,0-9.5-0.1c-3.3-0.1-5.6-1.9-7-4.8c-0.8-1.6-1.5-3.3-2.1-5.1
		c-2.5-7.9-5-15.8-7.2-23.8c-0.5-1.8-0.6-4-0.2-5.8c4.1-19.7,8.3-39.4,12.5-59C331.5,137.1,332,135.5,332.4,133.6z"/>
	<path class="st0" d="M1619.5,207.4c-2.2,10.5-4.2,20-6.3,29.8c-2.2,0.1-4,0.3-5.8,0.3c-35.3,0-70.7,0-106,0c-0.5,0-1,0-1.5,0
		c-8.4-0.1-10.2-1.3-12.9-9.5c-2.6-8.1-5.1-16.2-7.4-24.3c-0.5-1.8-0.6-4-0.2-5.9c4.2-20.4,8.6-40.7,12.9-61c0.2-1,0.6-1.9,1-3.1
		c9.7,0,19.5,0,29.8,0c-5.2,24.5-10.2,48.7-15.4,73.5c12.8,0.6,25.1,0.2,37.4,0.3c12.2,0.1,24.3,0,36.5,0
		C1593.8,207.4,1606.1,207.4,1619.5,207.4z"/>
	<path class="st0" d="M1633.7,133.5c10.1,0,19.7,0,29.9,0c-4.8,24.6-10.4,48.8-15.3,73.7c7.8,0.3,15.1,0.1,22.3,0.2
		c7.5,0,15,0,22.5,0c7.3,0,14.7,0,22,0c7.5,0,15,0,22.5,0c7.3,0,14.6,0,22.6,0c-2.2,10.3-4.3,19.9-6.4,30.1c-2.2,0-4,0-5.8,0
		c-35.6,0-71.3,0-106.9,0c-8.7,0-11.1-1.7-13.7-10c-2.8-8.9-5.3-17.8-8-26.8C1624.1,178.5,1628.9,156.2,1633.7,133.5z"/>
	<path class="st0" d="M483.6,133.6c10.1,0,19.8,0,30.1,0c-7.3,34.7-14.6,69.1-21.9,103.6c-9.9,0-19.4,0-29.4,0c0-1.4-0.2-2.6,0-3.6
		c5.7-27.1,11.5-54.3,17.3-81.4C480.9,146.2,482.2,140.2,483.6,133.6z"/>
	<path class="st0" d="M72.5,61.7c-9.6,7.8-19,15.5-28.1,22.9c-0.3,2.2-0.5,3.7-0.6,4.7c-1.9,2-3.6,3.8-5.8,6.1c-2,0.9-4.6,1-7.5-0.2
		c0-5.2,5.9-5.7,7.5-9.6c0.2-1.5,0.4-2.9,0.4-3.4c1.7-3.3,3-5.8,4.7-9.2c0.6-0.4,2.1-1.4,2.9-2c5.1-7,8.3-14.1,11.7-21
		c2.1-1.3,4.3-2.6,6-3.6c1.6-5.5-0.9-9.7-1.3-14.5c-4.1,0.2-7.9,0.3-12.1,0.5c-0.5-1.6-1-3.1-1.3-4c2.2-5,5.8-7.7,9.9-9.7
		c3.9-1.9,8-3.6,12-5.4C70.1,11,69.6,9,69,7.3c3.1-4.6,5.9-8.8,12.1-6.7c4.2,1.4,5.5,4.1,5.4,10.5c-2.7,1.9-2.7,1.9-10.6,1.3
		c0.8,2.4,0.8,2.4,3.8,3.8c0.9-0.4,1.9-0.9,3-1.4c0.9,0.5,1.9,1.1,3,1.7c0.7-0.3,1.5-0.7,1.5-0.7c3.7,0.9,6.8,1.7,10.3,2.6
		c0.2,0.7,0.5,1.7,0.8,2.8c4.8,2.9,9.9,4.4,16.1,3.7c0.1,1.9,0.2,3.7,0.3,6.3c-3.5-0.5-6.4-1.4-9.2-1.3c-2.9,0.1-5.7,1.2-9,2
		c-0.2,2.1-0.4,4.2-0.7,6.6c-0.6,0.2-1.4,0.4-2.4,0.8c-0.6-1.3-1.1-2.4-1.7-3.8c-1.4,1-2.6,1.9-3.9,2.9c-2.1,5.2-2.9,10.4,0.9,15.3
		c2.6,3.4,5,7,7.9,10.2c3.2,3.5,4.8,7.4,4.5,12.2c-0.2,3.6,0.4,7.3,0.6,10.9c-3.9,5.8-3.6,10,4.8,15.7c0.3,0.6,0.7,1.3,0.9,2.1
		c0.2,0.8,0.3,1.6,0.5,2.3c-4.6,2.9-7.2,2-10.9-3.7c-1.4-0.9-3-1.8-4.7-2.8c0-2.5,0-5,0-7.7c-1.3-4.2-3-8.5-1.7-12.8
		c-1.3-2.4-2.4-4.5-3.9-7.4C82.4,69.6,78.4,64.6,72.5,61.7z"/>
	<path class="st0" d="M253.6,87.5c0-15.1,0-29.7,0-44.6c4,0,7.7,0,12.3,0c6.9,10.9,14.2,22.4,21.9,34.6c7.6-12,14.8-23.4,21.9-34.7
		c4,0,7.8,0,11.5,0c1,3.9,1.2,38.8,0.3,44.7c-3.2,0-6.4,0-10.2,0c-0.7-7.9,0.1-15.8-1.4-24c-5.1,8-10.3,16.1-15.4,24.1
		c-4.6,0-8.9,0-13.5,0c-5-7.9-10.1-15.9-15.2-23.8c-1.7,7.8-0.7,15.5-1.4,23.3C260.9,88.3,257.5,87.7,253.6,87.5z"/>
	<path class="st0" d="M787.2,43.7c-0.5,3.4-0.9,6.6-1.4,10.3c-15.1,0-29.8,0-45,0c-0.3,1.8-0.5,3.2-0.8,5.1c2.4,0.3,4.3,0.7,6.2,0.7
		c8.7,0.1,17.3,0,26,0c1.8,0,3.7,0,5.5,0.2c4.8,0.6,8.2,3.4,9.1,8c0.7,3.6,0.7,7.7,0,11.3c-0.9,5.2-5.5,8.3-11.5,8.4
		c-6.3,0.1-12.7,0-19,0c-8.1,0-16.3,0-25.1,0c0.1-2,0.1-3.8,0.4-5.5c0.2-1.6,0.6-3.2,1-5.3c1.8-0.1,3.6-0.3,5.3-0.3
		c10.5,0,21,0,31.5,0c2,0,3.9-0.2,6.4-0.4c0.2-1.6,0.3-3,0.5-4.9c-2.2-0.2-4-0.4-5.7-0.4c-9.3,0-18.7-0.1-28,0
		c-2.9,0-5.5-0.7-8.1-1.9c-7.2-3.3-7.5-21.2,0.3-24.6c1.5-0.7,3.1-1.4,4.7-1.4c15.3-0.1,30.6,0,46,0C785.7,43.1,786,43.3,787.2,43.7
		z"/>
	<path class="st0" d="M188.7,42.8c1.2-0.2,1.8-0.3,2.5-0.3c14.2,0,28.3-0.1,42.5,0c2.3,0,4.7,0.5,6.8,1.4c4.2,1.8,6.4,5.4,6.5,9.9
		c0.1,7.5,0.1,15,0,22.5c-0.1,5.7-3.6,9.7-9.1,11c-1.3,0.3-2.6,0.5-4,0.5c-10.8,0-21.7,0-32.5,0c-0.2,0-0.3,0-0.5,0
		c-7.8-0.3-12.3-4.7-12.5-12.6c-0.1-9.8,0-19.7,0-29.5C188.4,44.8,188.6,44,188.7,42.8z M235,76.3c1.5-6,1.2-18.6-0.2-22.2
		c-11.4,0-23,0-34.4,0c-1.2,5.9-0.9,18.5,0.6,22.2C212.2,76.4,223.6,76.5,235,76.3z"/>
	<path class="st0" d="M356.2,53.9c0,7.7,0,14.5,0,21.9c2,0.2,3.9,0.6,5.8,0.6c11.5,0.1,23,0,34.5,0c1.6,0,3.3,0,5.2,0
		c0.5,3.9,1,7.2,1.5,11c-2,0.1-3.5,0.3-4.9,0.3c-13.2,0-26.3,0-39.5,0c-2,0-4-0.2-5.9-0.8c-4.5-1.4-7.7-5.2-7.8-9.9
		c-0.1-11,0-22,0-33c0-0.3,0.2-0.6,0.5-1.2c18.8,0,37.7,0,57,0c1,3.7-0.6,7.1-1,11.1C386.5,53.9,371.6,53.9,356.2,53.9z"/>
	<path class="st0" d="M638.7,54c-15.4,0-30.3,0-45.5,0c0,7.5,0,14.4,0,21.9c2,0.2,4,0.6,5.9,0.6c11.3,0.1,22.7,0,34,0
		c1.7,0,3.3,0,5.2,0c0.9,3.7,2,7.1,1.3,11c-1.4,0.1-2.7,0.3-4,0.3c-13.3,0-26.7,0-40,0c-4.2,0-8.1-0.7-10.7-4.2
		c-1.3-1.8-2.6-4.1-2.7-6.2c-0.3-11.2-0.1-22.3-0.1-33.5c0-0.3,0.3-0.6,0.6-1.1c18.8,0,37.7,0,56.9,0
		C640.7,46.4,638.9,49.7,638.7,54z"/>
	<path class="st0" d="M507.5,87.4c-3.6,0-6.9,0-10.7,0c0-3.9,0-7.5,0-11.3c-10.1,0-19.5,0-29.6,0c-2.4,3.5-5,7.3-7.7,11.3
		c-4.1,0-8.2,0-12.7,0c0.6-1.2,1.1-2.4,1.7-3.4c7-10.9,14.1-21.8,21-32.7c3.4-5.3,7.8-8.6,14.2-8.6c7.8,0,15.6,0,23.3,0
		C508.1,46.4,508.4,79.8,507.5,87.4z M475,63.8c5,1.4,17.8,1.3,21.6-0.1c0-3.1,0-6.2,0-9.5c-5.2,0-10.1,0-15.4,0
		C479.1,57.4,477.1,60.5,475,63.8z"/>
	<path class="st0" d="M563.1,71.7c0-9.5,0-18.9,0-28.5c3.7-1.2,7.1-0.7,10.8-0.4c0,14.9,0,29.7,0,44.7c-3.7,0-7.2,0-11.1,0
		c-11.4-9.6-23-19.5-35.5-30c-0.7,10.5,0.1,20.1-0.5,29.9c-3.5,0-6.8,0-10.5,0c0-14.9,0-29.6,0-44.6c3.6,0,6.9,0,10.9,0
		c11.3,9.5,23.1,19.5,34.9,29.4C562.3,72,562.7,71.8,563.1,71.7z"/>
	<path class="st0" d="M181.6,53.9c-7.7,0-15.1,0-23,0c-0.9,5.8-0.3,11.3-0.4,16.7c-0.1,5.5,0,11,0,16.8c-3.6,0-6.9,0-10.5,0
		c-1.2-3.4-0.4-7-0.5-10.6c-0.1-3.7,0-7.3,0-11c0-3.7,0-7.3,0-11.1c-3.9-1.5-7.8-0.6-11.5-0.8c-3.8-0.1-7.6,0-11.7,0
		c-1-3.8-0.7-7.3-0.2-11.1c19.3,0,38.4,0,57.9,0C181.6,46.3,181.6,49.7,181.6,53.9z"/>
	<path class="st0" d="M690.8,42.6c4.4,0,8.7,0,13.7,0c-3.5,5.3-7.6,9.5-11.3,14c-3.7,4.5-7.5,8.9-11.5,13.8c0,5.3,0,11,0,16.9
		c-3.8,0-7.2,0-11.1,0c0-5.7,0-11.3,0-16.7c-7.7-9.2-15.1-18.2-23.2-27.8c5.3-0.5,9.7-0.3,14.3-0.2c4.6,5.4,9.2,10.9,14.1,16.8
		C681.5,54.3,685.4,47.8,690.8,42.6z"/>
	<path class="st0" d="M448.9,76.4c-2.5,4.1-4.5,7.4-6.7,11c-10.6,0-21.1,0-32,0c0-15,0-29.7,0-44.7c3.5,0,6.7,0,10.3,0
		c0.8,5.5,0.3,11,0.4,16.4c0.1,5.5,0,10.9,0,16.6c4.7,1.3,9.2,0.6,13.6,0.7C439,76.5,443.5,76.4,448.9,76.4z"/>
	<path class="st0" d="M708.4,55.1c0-2.5,0-4.5,0-6.9c1.3-1.6,2.9-3.5,4.5-5.5c4.5,0,9,0,14.3,0c-3.5,4.6-6.9,8.5-10.3,12.4
		C714.2,55.1,711.6,55.1,708.4,55.1z"/>
</g>
</svg>
