<?xml version="1.0" encoding="utf-8"?>
<!-- Generator: Adobe Illustrator 19.0.0, SVG Export Plug-In . SVG Version: 6.00 Build 0)  -->
<svg version="1.1" id="Layer_1" xmlns="http://www.w3.org/2000/svg" xmlns:xlink="http://www.w3.org/1999/xlink" x="0px" y="0px"
	 viewBox="1322.4 -743.7 1743.3 1020" style="enable-background:new 1322.4 -743.7 1743.3 1020;" xml:space="preserve">
<style type="text/css">
	.st0{fill:#FFFFFF;}
</style>
<path class="st0" d="M3039.8-483.2c-32.9-56.1-104.5-75.4-174.1-69.6c-69.6,5.8-111.7,34.1-148.9,15.5l0,0
	c-23.2-11.6-34.8-11.6-56.1-65.8c-21.3-54.2-56.1-98.7-104.4-127.7c-48.4-29-143.2-7.7-230.2,50.3s-92.8,187.6-197.3,230.2
	c-104.5,42.6-197.3,29-274.7-36.7c-77.4-65.8-149-67.7-238-48.4c-89,19.4-123.8,154.8-147,187.6c-23.2,32.9-118,75.4-143.2,160.6
	c-25.1,85.1,94.8,149,125.7,164.4c31,15.5,58.1,65.8,58.1,100.6c0,34.8-11.6,100.6,54.2,164.4c65.8,63.8,185.7,21.3,216.7,5.8
	c31-15.5,92.9-60,116.1-65.8c23.2-5.8,150.9,36.8,205.1,61.9c54.2,25.1,116.1,25.1,166.4-25.1c50.3-50.3,89-81.3,166.4-104.5
	c77.4-23.2,220.5,0,294.1,23.2c73.5,23.2,125.7,21.3,174.1-9.7c48.4-30.9,60-116.1,40.6-160.6c-19.3-44.5-34.8-63.8-34.8-125.8
	c0-61.9,90.9-123.8,129.6-160.6S3072.6-427.1,3039.8-483.2z M3023.5-334.5l-27.4,24c-43.3,36.8-101.6,86.4-108.2,141.7
	c0,0,0,0.1,0.1,0.1c-0.4,3.3-0.7,6.7-0.7,10.1c0,40.5,6.3,64.8,15.6,87.5c0,0,0,0.1,0,0.1c3.4,8.3,7.1,16.3,11.1,24.9l9.9,21.7
	c15.2,35,6.7,109-32.6,134.1c-41.9,26.9-87,29-155.6,7.5c-0.2-0.1-0.4-0.1-0.7-0.2c-22.7-7.2-51.4-14.2-82.6-20.1c0,0,0,0,0-0.1
	c-70.4-13.1-153.9-19.8-212.1-6.3c0,0,0.1,0.1,0.1,0.1c-4.1,0.9-8.1,1.9-12,3c-52,15.6-88,34.8-122,61.5c0,0,0,0,0,0
	c-17.7,13.9-34.8,29.8-53.3,48.3c-49.1,49.1-104.5,38.5-142.4,20.9c-14.1-6.5-40.1-17-69.6-27.6c0,0,0,0,0,0
	c-56.8-20.4-126.6-41.4-149.5-35.6c-16,4-40,18.5-74.7,40.2l-21.3,12.6c0,0,0,0,0,0l-24.4,14.5c-15.8,7.9-48.9,20.2-85,24.6
	c-0.3,0-0.6,0.1-1,0.1c-0.9,0.1-1.8,0.2-2.7,0.3c-0.5,0.1-1,0.1-1.5,0.2c-0.7,0.1-1.4,0.1-2.1,0.2c-0.6,0.1-1.2,0.1-1.8,0.2
	c-0.6,0-1.2,0.1-1.8,0.1c-0.7,0.1-1.4,0.1-2.1,0.1c-0.5,0-1,0.1-1.4,0.1c-0.8,0-1.6,0.1-2.4,0.1c-0.3,0-0.6,0-0.8,0
	c-26.8,1.1-53.9-3-75.9-17.1c-0.1-0.1-0.2-0.1-0.3-0.2c-0.9-0.6-1.7-1.1-2.5-1.7c-0.2-0.1-0.3-0.2-0.5-0.3c-0.8-0.6-1.6-1.1-2.4-1.7
	c-0.2-0.1-0.3-0.3-0.5-0.4c-0.8-0.6-1.6-1.2-2.3-1.8c-0.1-0.1-0.3-0.2-0.4-0.3c-1.7-1.4-3.3-2.9-4.9-4.4c-2.4-2.3-4.6-4.6-6.8-6.9
	c0,0-0.1-0.1-0.1-0.1c-0.7-0.7-1.4-1.5-2-2.2c0,0-0.1-0.1-0.1-0.1c-2.6-2.9-5-5.8-7.3-8.7c-0.2-0.2-0.4-0.5-0.6-0.7
	c-0.4-0.5-0.8-1-1.2-1.5c-0.3-0.4-0.6-0.7-0.8-1.1c-0.3-0.4-0.6-0.9-1-1.3c-0.4-0.5-0.7-1-1.1-1.5c-0.2-0.3-0.5-0.7-0.7-1
	c-28.8-40.8-27.4-79.7-26.4-109.5l0.4-14.5c0-30.4-17.3-72.3-43.2-99.3l0,0c-6.1-6.3-12.6-11.9-19.4-16.2c-0.1-0.1-0.3-0.2-0.4-0.3
	c-1-0.6-1.9-1.2-2.9-1.8c-0.3-0.1-0.5-0.3-0.8-0.4c-0.9-0.5-1.7-1-2.6-1.4c-0.1-0.1-0.3-0.2-0.4-0.2
	c-31.9-16-134.4-73.1-114.8-139.4c15.1-51.1,59.9-85.9,95.8-113.9c18.8-14.6,35-27.2,44.3-40.4c6.9-9.7,13.4-24.4,21.8-42.9
	c22.2-49.3,55.6-123.8,112.3-136.2c76.6-16.7,138.5-17,204,31.4c0.2,0.2,0.5,0.3,0.7,0.5c1.4,1,2.8,2.1,4.1,3.1
	c0.3,0.2,0.5,0.4,0.8,0.6c1.4,1.1,2.7,2.1,4.1,3.2c0.6,0.5,1.2,1,1.9,1.5c0.9,0.7,1.7,1.4,2.6,2.2c0.5,0.4,1,0.8,1.5,1.3
	c12.4,10.5,25.6,19.9,39.5,28.3c0,0-0.1,0.1-0.1,0.1c5.5,3.3,11,6.4,16.7,9.3c0-0.1,0-0.1,0.1-0.2c47.1,24.1,98.5,32.9,152.7,26.1
	c0,0,0,0.1-0.1,0.1c28.5-3.6,57.9-11.4,87.8-23.6c64.2-26.1,94.2-79.9,123.1-131.8c22.1-39.6,43-77.1,78-100.4h0
	c79.7-53.1,166.9-74.1,207.4-49.8c43,25.8,75.2,65.3,95.6,117.2c20.9,53.4,36.3,62.8,59.5,73.7l6.8,3.3c3.8,1.9,7.6,3.4,11.4,4.7
	c0,0,0,0,0,0c1.4,0.4,2.7,0.8,4.1,1.2c0.3,0.1,0.6,0.2,0.8,0.2c0.5,0.1,1,0.2,1.5,0.4c0.4,0.1,0.8,0.2,1.1,0.3
	c0.5,0.1,0.9,0.2,1.4,0.3c0.4,0.1,0.8,0.2,1.2,0.2c0.4,0.1,0.9,0.2,1.3,0.2c0.4,0.1,0.9,0.1,1.3,0.2c0.4,0.1,0.8,0.1,1.3,0.2
	c0.5,0.1,1,0.1,1.5,0.2c0.4,0,0.7,0.1,1.1,0.1c0.6,0.1,1.3,0.1,1.9,0.2c0.2,0,0.5,0,0.7,0.1c0.9,0.1,1.8,0.1,2.7,0.1
	c0.1,0,0.2,0,0.3,0c0.8,0,1.6,0.1,2.4,0.1c0.2,0,0.4,0,0.6,0c0.7,0,1.4,0,2.1,0c0.2,0,0.4,0,0.7,0c0.7,0,1.4,0,2.2-0.1
	c0.2,0,0.4,0,0.6,0c0.8,0,1.6-0.1,2.4-0.1c0.1,0,0.2,0,0.3,0c15.3-1,31.1-5,48.1-9.2c19.5-4.8,41.5-10.3,67-12.4
	c71.2-5.9,128.8,16.2,154,59.2C3051.8-421.6,3052.6-362.1,3023.5-334.5z"/>
<g>
	<path class="st0" d="M2213.3-93l-10.1,1.2l-0.4,13.3c0,0,1.2,11.5,2.7,23.4l14.2-4.9L2213.3-93z"/>
	<path class="st0" d="M2414.8-74c1.2,10.5,4,36.7,4,36.7l4,2.8l0,0l15.3-4.4c-3-12.6-4.9-27.2-6.2-39.7L2414.8-74z"/>
	<path class="st0" d="M2304.4-107.4c0,0,6.1,36.7,10.3,62.2c7.8-0.7,15.9,0.3,15.9,0.3v-9.3l-8.9-57.2L2304.4-107.4z"/>
	<polygon class="st0" points="1570.7,-93.8 1570.7,-93.8 1570.7,-93.8 	"/>
	<polygon class="st0" points="1992.9,9 1996.1,45.7 2015.9,44.9 2010.9,5.2 	"/>
	<path class="st0" d="M1773.3-52.7l-16.1,2.8l1.2,51.6l4,41.1l5.2,26.6h0l5.7,3.2l13.7-3.6c0.9-3.5,2-9.2,2-17.8
		c0-14.5-5.6-52.8-5.6-52.8L1773.3-52.7z"/>
	<path class="st0" d="M2828.2-250.5l-257.3,36.8l-222.5,13.5l-102.5,38.7l-435.3,27.1l-239.9,40.7l-3.9,46.4l23.2,79.3l-9.7,106.4
		l56.1,29c0,0,164.4-5.8,222.5-9.7c58-3.9,234.1-40.6,363.7-60c129.6-19.3,340.5-60,617.1-63.8l17.4-7.7l17.4-94.8L2828.2-250.5z
		 M1697.1,118.6l-34.3,8.1l-39.1-12.5l-5.2-56.4l35.5-3.2l0,0l3.2,30.6h18.9c0,0,2.4-12.9-3.2-30.2c-5.7-17.3-36.7-18.9-46.4-21.8
		c-9.7-2.8-9.7-13.3-16.1-34.7c-6.4-21.4,0.4-52.8,0.4-52.8l40.7-21.8l40.7,16.5l2.8,45.5l-28.6,4l-5.7-27l-18.1,2.8l0.4,26.2
		c0,0,5.2,8.9,12.1,12.9c6.8,4,29.8,3.6,39.1,10.9c9.3,7.3,17.7,48.4,17.7,69.3C1712.1,106.2,1697.1,118.6,1697.1,118.6z
		 M1799.1,131.1c0,0-8.5-27.4-9.7-27c-1.2,0.4-28.2,7.7-28.2,7.7L1735,81.9l-4.4-41.1l-9.7-42.3l9.7-70.9l31.4-13.7
		c0,0,32.6,1.2,38.3,15.3c5.6,14.1,23.8,81.8,23.8,81.8s-5.1,66.2-8,86.9l0,0l14.5,22.2L1799.1,131.1z M1908.7,95.6L1908.7,95.6
		l-2-7.6l-31.8,11.7c0,0-19.7-13.3-24.2-18.9c-4.4-5.6-5.6-66.9-8.9-93.5c-3.2-26.6-12.1-79.8-12.1-79.8l35.5-4.8
		c0,0,10.1,75.4,12.1,93.9c2,18.5,7.3,63.7,7.3,63.7l18.1-4.4c-0.4-20.2-20.5-148.3-20.5-148.3l42.3-6c0,0,2.4,54.4,5.7,91.9
		c3.2,37.5,14.1,97.1,14.1,97.1L1908.7,95.6z M2028.4,93.6l-2-6.4l-39.5,11.3L1957.1,42c0,0,6.8-56.4,7.6-62.4
		c0.6-4.2,25.6-11.6,41.1-15.8c-0.1-0.4-1.6-23.3-4-26.5c-2.4-3.2-10.9-2.8-20.1-2.8c-9.3,0-27,11.7-27,11.7l-6.9-30.6l25.4-15.3
		l31.4-5.2l21.8,15.7c0,0,11.7,10.1,11.7,15.3c0,5.2,9.7,79.4,12.1,103.6v0C2052.5,53.7,2061,88,2061,88
		C2050.5,86.4,2028.4,93.6,2028.4,93.6z M2095.6-74.4c0.8,6.9,4,54.8,10.9,84.6c4.9,21.2,9.7,42.4,14.5,63.7l-37.9,5.7
		c0,0-8.1-55.2-12.9-89.5c-4.8-33.2-9.8-66.4-14.9-99.5l31-8.5v0l2.8,14.9l13.3-11.7l25-0.8l16.9,17.3l8.5,79l-34.3,6.9
		c0,0-4.4-66.9-9.3-70.1C2104.5-85.7,2094.8-81.3,2095.6-74.4z M2213.7,67.8l-34.3-35.5l-15.7-104l16.9-52.8l48.4-4.8l27.4,47.2
		l-9.6,58c-15,0.9-27.8,3.7-36.4,6c1.1,14.6,1.7,31.1,1.7,31.1l9.7,4.4l34.7-4l0,0h0h0l6.9,45.5L2213.7,67.8z M2349.9-20.4
		c-6.7,5.7-20,10.4-29.5,13.2l8.1,56.5l-43.1,11.3c0,0-2.4-57.2-7.7-95.1c-5.2-37.9-14.1-98.3-14.1-98.3l58.4-12.1l29.4,23.8
		c0,0,10.5,50.8,12.9,59.2v0C2366.8-53.5,2360.8-29.7,2349.9-20.4z M2450.3,11.9l-2-7.3l-37.9,10.1l-31.8-57.2l10.1-62.9l39-12
		c-1.4-12.9-2.8-28.3-2.8-28.3l-28.6-1.6l-20.5,9.7l-4.8-32.2c15.7-4.4,27-14.9,27-14.9l29-1.6l32.2,26.2c0,0,5.6,38.7,11.3,85l0,0
		c5.7,46.4,15.3,84.2,15.3,84.3C2468,5.4,2450.3,11.9,2450.3,11.9z M2563.9,11.4c0,0-38.7-132.6-43.9-138.2h0l17.4,143.9l-29.4,5.6
		c0,0-6.9-64.5-9.7-96.7c-2.8-32.2-4.8-50.8-4.8-50.8s-8.5-19.8-8.5-47.2l40.3-10.5l18.5,3.2L2582.4-45c0,0-1.6-24.2-5.2-52
		c-3.6-27.8-14.1-83.8-14.1-83.8l35.1-8.5c0,0,2.4,54.8,6.8,91.1c4.4,36.3,12.5,100.3,12.5,100.3S2585.7,3,2563.9,11.4z M2694,10.2
		l-42.3-8.9l-16.5-99.1l-10.1,2l-7.3-39.5h17.8v0l-10.9-53.2c23.8,2,42.7-2.8,42.7-2.8l1.2,54.4c0,0,34.7-7.7,35.9-7.7
		s3.6,40.3,3.6,40.3l-35.1,4.8l10.1,70.9l6,3.2l5.7-4l-7.3-42.7l26.6-0.4l10.1,68.5L2694,10.2z M2831.5-37.7
		c-0.4,18.1-8.1,30.6-13.3,33c-5.2,2.4-34.7,8.9-34.7,8.9l-39.9-10.1l-4.8-58l34.6-2.4l0,0h0h0l5.2,30.6c0,0,12.1,0,16.9-2.8
		c0,0,0.4-27.4-2.8-32.2c-3.2-4.8-17.3-10.1-30.2-13.7c-12.9-3.6-23.4-7.7-23.4-7.7l-12.5-43.5c0,0,0-27.4,2.4-33.1
		c2.4-5.6,17.7-24.6,28.2-27c10.5-2.4,18.1-0.4,54,12.5c0,0,1.6,37.9,5.7,47.2l-32.2,4l-4.5-29l-16.1,2.4c0,0-6.9,12.9-3.6,23
		c3.2,10.1,10.1,15.3,27,20.5c16.9,5.2,23.4-1.2,33.1,16.9C2830.3-80,2831.9-55.8,2831.5-37.7z"/>
</g>
<path class="st0" d="M1637.7-287.5c-55.6-14.8-63.3-21.4-64-22.1c-0.4-0.5-0.7-2.4,0.3-5.1c1.8-4.5,7.1-10,16.7-11.6
	c15.5-2.7,49.3,8.7,61,13.4l12.8,5.1l-6.3-74.7l-6.5-1.1c-2.3-0.4-56.2-9.5-94.8,4v0c-27.4,9.6-34.3,25.6-34.3,41.9
	c0,9.3,2.3,18.7,4.3,26.9l0.5,2.3c7,29,27.5,39.7,56.1,46.9c25.9,6.5,37.8,14.2,40.5,17.6c-5,5.7-30,17.2-74.4,2.1l-12.4-4.2
	l7.5,85.3l81.7-16.8l7.2-1.7c22.8-5.2,46.3-10.5,47.3-49.8C1681.5-250.4,1674.4-277.7,1637.7-287.5z M1672.5-229.4
	c-0.9,36-21.2,37-48,43.4c-26.8,6.5-72.1,14.8-72.1,14.8l-5.5-62.8c51.7,17.5,81.3,1.8,85.9-7.4c4.6-9.2-17.5-21.3-47.1-28.6
	c-29.6-7.4-44.3-17.5-49.9-40.6c-5.5-23.1-12.9-48,24-61c36.9-12.9,90.5-3.7,90.5-3.7l4.6,54.5l0,0c0,0-44.3-17.5-65.6-13.9
	c-21.3,3.7-28.6,22.2-22.2,30.5c6.5,8.3,54.5,21.2,68.4,24.9C1649.4-275.6,1673.4-265.4,1672.5-229.4z"/>
<g>
	<path class="st0" d="M1750.1-301.5c-2.8,7.4,4.6,44.3,4.6,44.3c11.1,3.7,33.3-1.8,39.7-6.5l0,0c6.5-4.6,1.8-36.9-2.8-41.6
		C1787-309.8,1752.8-308.9,1750.1-301.5z M1788.3-270.1c-4.6,2.7-17.5,6-26.3,5.5c-2.2-12.2-4.1-25.3-4.1-31.4
		c0-0.4,0.1-0.6,0.1-0.9c5.4-2.6,22.5-3.3,27.8-1.5h0c1.6,3.5,3.3,14.4,3.3,22.3C1789.1-273.5,1788.8-271.5,1788.3-270.1z"/>
	<path class="st0" d="M1816.9-329.3c-14.2-7.7-63.7-10.7-129.1,6.7l0,0l-7.4,1.9l1.1,7.5c0.2,1.1,16.5,111.4,14.7,150.8l-0.4,8
		l8,0.9c0.8,0.1,19.1,1.9,37.8-2l8-1.7l-12-71.8c12.4,1.6,26.1,2,43.1-0.3c41.9-5.5,51.8-7.5,52.5-25.5l0.1-2.6
		C1833.4-258,1836.8-318.6,1816.9-329.3z M1824.9-258.1c-0.9,12,3.7,13.9-45.3,20.3c-26.4,3.5-42.6,1.6-52.2-0.9l12.5,74.8
		c-17.5,3.7-35.1,1.8-35.1,1.8c1.8-40.6-14.8-152.4-14.8-152.4c62.8-16.6,110.9-13.9,122.9-7.4v0
		C1824.9-315.3,1825.8-270.1,1824.9-258.1z"/>
</g>
<g>
	<path class="st0" d="M1875.7-331c0,0-2.8,21.2,2.8,40.6c5.5,19.4,14.8,37.9,14.8,37.9l26.8-0.9h0c0,0,14.8-45.3,10.2-65.6
		C1925.6-339.3,1910.8-333.8,1875.7-331z M1913.6-261.7l-15.1,0.5c-3-6.5-8.3-18.7-11.9-31.5c-2.5-8.8-3.1-18.1-3.1-25.2
		c0-2.2,0.1-3.6,0.2-5.3l8.4-0.8c26.5-2.7,27.8-1.7,29.8,6.9c0.5,2.2,0.7,4.8,0.7,7.6C1922.6-295.1,1917.2-274,1913.6-261.7z"/>
	<path class="st0" d="M1950-368.5c-18.7-7.5-59.5,1.3-71.6,4.2l0,0c-21.2,5-33.3,11.6-39.4,21.3c-4.1,6.6-5.6,13.3-5.6,20.6
		c0,8.2,1.9,17.2,4,27.7l1.4,6.8c13.4,67,22.7,83.7,32.5,88.3c14.1,6.5,50.9,12.5,76.2-2.2c21.2-12.4,31.9-45.9,31.9-99.7
		C1979.3-338.6,1969.7-360.6,1950-368.5z M1943.1-209.1c-22.2,12.9-56.4,7.4-68.4,1.9s-23.1-59.1-27.7-82.2
		c-4.6-23.1-8.6-36.7-0.9-48.9c4.6-7.4,14.8-12.9,34.2-17.6c19.4-4.6,52.6-10.2,66.5-4.6l0,0c13.9,5.6,24,21.2,24,59.1
		C1970.8-263.6,1965.3-222,1943.1-209.1z"/>
</g>
<path class="st0" d="M2124.1-305.3c-7.1-29.4-23.5-45-82.1-37.4l2-26.2l-12.1,3.9l0,0l-43.5,14.2l0.8,6.9c0.1,0.5,5.3,48.8,1,70.4
	l-14,86.4l12-2.5l65-12.6l-9.3-79.1l16.9-4.7l11.9,80.8l52-11.7l0.5-6.2C2125.5-225.5,2129.9-281.1,2124.1-305.3z M2116.8-223.9
	l-37,8.3l-12-81.3l-33.3,9.2l9.2,78.5l-57.3,11.1c0,0,7.4-50.8,12-73.9c4.6-23.1-0.9-73-0.9-73l37-12l-1.9,24
	c67.4-11.1,77.6,6.5,83.2,29.6C2121.4-280.2,2116.8-223.9,2116.8-223.9z"/>
<g>
	<path class="st0" d="M2217.5-370.8c0,0-26.8-2.8-28.6,14.8c-1.9,17.6,2.8,51.7,12.9,53.6v0c8.7,1.6,17.5,2.6,26.4,2.9
		c-0.9-4.3-2-8.4-3.3-12.2C2220.2-325.5,2214.7-356.9,2217.5-370.8z M2204.2-310.7c-3.6-3.5-7.3-21.3-7.3-36.6
		c0-2.7,0.1-5.4,0.4-7.8c0.5-4.6,6-6.3,10.9-6.9c0,0.2-0.1,0.4-0.1,0.7c0,17.4,4.9,41.2,8.5,52.1L2204.2-310.7z"/>
	<path class="st0" d="M2279.3-271.1c-2.7-11.6-7.3-41-9.1-58.1c-1.8-16.7,0.9-72,1-72.6l0.4-7.7l-59.4-8.8l-1.3,8.3l0,0l-1.5,9.5
		c-25.8-4.4-57,0-63.8,5.5c-9.8,7.8-15.1,68.3-15.2,68.9c-1.1,16.5,5.7,43.9,28.8,52c10.1,3.5,32.3,4,63.9,2
		c0.3,5.1,0.6,10.3,0.6,10.3l-2.2,25.9l-15.6,4.9l6.3-13.4l5.1-11.1l-65.7-5.1l-9,16.1l18.9,67.8l8.1-2.1
		c102-26.4,106.4-30.8,108.3-32.7C2288.2-221.6,2279.4-270.6,2279.3-271.1z M2272-217.4c-4.6,4.6-104.4,30.5-104.4,30.5l-15.7-56.3
		l4.6-8.3l48,3.7l-5.5,12l-8.3,12l6.5,4.6l32.3-10.2c0,0,2.8-14.8,2.8-32.3c0-6.4-0.5-12.8-1.2-19.2c-19.6,1.5-55.8,3.5-69-1.1
		c-18.5-6.5-24-29.6-23.1-43.4s7.4-59.1,12-62.8c4.6-3.7,39.7-10.2,65.6-2.8l2.8-17.5l43.4,6.5c0,0-2.8,56.3-0.9,73.9
		c1.9,17.5,6.5,47.1,9.2,59.1l0,0C2273.8-257.1,2276.6-222,2272-217.4z"/>
</g>
<g>
	<path class="st0" d="M2353.9-314.3c-9.9,2.6-19.9,4.6-24.3,4.6c-2-3-3.7-13.1-4.5-18.7c24.4-4,61.7-11.7,89.2-25.5l5.9-2.9
		l-1.3-6.4c-0.8-3.8-8-37.3-17.2-49.5c-11.4-15.2-23-18.2-56.7-14.4l0,0c-45.6,5.1-56.5,14.7-60.8,21.5c-7.1,11.3-5.1,67.6-2.1,88
		l0.9,6.5c3.1,22.2,7.3,52.7,41,51.6c28.9-0.9,78.6-9.9,80.7-10.3l6.3-1.1l6.3-65.2l-69.5,9.5L2353.9-314.3z M2407.8-326.4l-4.6,48
		c0,0-50.8,9.2-79.4,10.2c-28.6,0.9-29.6-25.9-33.3-50.8c-3.7-24.9-3.7-74.8,0.9-82.2c4.6-7.4,21.3-13.9,54.5-17.5
		c33.3-3.7,40.6,0,49,11.1c8.3,11.1,15.7,46.2,15.7,46.2c-30.1,15-74.2,23-95.2,26.1c2.2,11.8,3.7,32.5,11.1,34
		c9.2,1.8,39.7-7.4,39.7-7.4h0l-5.5-11.1L2407.8-326.4z"/>
	<path class="st0" d="M2358.8-372.6c-1.8-8.3-6.5-12-29.6-9.2l0,0c-23.1,2.8-28.6,8.3-28.6,19.4c0,8.1,4.9,11.2,8.9,15.2
		C2363-350.9,2360.5-364.7,2358.8-372.6z M2350.4-365.9c-1.3,1.7-8.4,7.3-37.8,9.8c-2.4-2.3-3.5-3.7-3.5-6.3c0-4.5,0-8.4,21.1-10.9
		c19.1-2.3,19.7,0.3,20.2,2.6c0.3,1.5,0.5,2.5,0.5,3.2C2351-366.8,2350.8-366.3,2350.4-365.9z"/>
</g>
<g>
	<path class="st0" d="M2499.2-378.1c3.7-4.6-5.6-51.7-10.2-53.6l0,0c-4.6-1.8-29.6,2.8-29.6,2.8l6.5,57.3
		C2471.5-371.7,2495.5-373.5,2499.2-378.1z M2483.9-423.6L2483.9-423.6c3.2,7.8,7.7,31,7.7,39.9c-3.6,1.3-11.2,2.5-18.1,3.1
		c-1.1-9.9-3.5-31.2-4.7-41.2C2474.9-422.7,2480.4-423.4,2483.9-423.6z"/>
	<path class="st0" d="M2586.1-264.2c-4-21.5-14.1-72.3-21.1-81.3c-4.3-5.5-16.2-9.4-28.9-12.3c5.6-3,10.9-6.3,14.4-9.7
		c6.2-6.2,8.7-18.3,8.7-31c0-13.4-2.8-27.5-7.1-36.1l-1.9-4.6c-8.5-23.4-24.5-42.1-125.4-13.6l0,0l-7,2l0.9,7.2
		c0.2,1.7,20.3,168.2,21.2,212.5l0.2,11.2l10.7-3.2c0.9-0.3,85.7-25.7,127.9-31.1l8.9-1.1L2586.1-264.2z M2448.4-231.3
		c-0.9-45.3-21.2-213.4-21.2-213.4c114.5-32.3,109.9-0.9,117.3,13.9c7.4,14.8,9.2,48,0,57.3c-9.2,9.2-36.9,19.4-36.9,19.4
		s44.3,5.5,50.8,13.9c6.5,8.3,19.4,77.6,19.4,77.6C2534.3-257.2,2448.4-231.3,2448.4-231.3z"/>
	<path class="st0" d="M2461.3-324.6l5.6,45.3v0l76.7-13.9l-7.4-34.2C2536.2-327.3,2487.2-332.9,2461.3-324.6z M2474.2-289.3
		c-1.1-9-2.5-20.3-3.5-28.5c19.4-4,46.6-2.7,58.4-1.7c1.2,5.7,2.6,12.1,4.2,19.5L2474.2-289.3z"/>
</g>
<g>
	<path class="st0" d="M2647-405.9c-21.2,1.9-36.9,2.8-37.9,11.1c-0.9,8.3,6.5,33.2,10.2,43.4c3.7,10.2,7.4,16.6,21.3,15.7
		c12.3-0.8,18.5-12,18.5-33.3h0C2659-390.1,2668.2-407.7,2647-405.9z M2651.7-385.1l-1.2,16.3c0,16-3.5,24.3-10.5,24.8
		c-8.1,0.5-9.4-1.2-12.7-10.1c-4.5-12.4-9.6-32-9.7-38.5c3.4-2.3,16.9-3.5,27.1-4.3v0l3.1-0.3l4.5,0.2c0.2,0.8,0.3,1.5,0.3,2.3
		C2652.5-392.1,2652-388.1,2651.7-385.1z"/>
	<path class="st0" d="M2705.2-399.4c-5.2-22.8-15-38-46.2-38c-19.2,0-82.2,2.2-87.8,29.9h0c-4.2,20.9,4,54.4,8.6,67.4l3.8,13
		c6,22.3,10.7,37.1,21.2,40.3c15.3,4.6,29.4,5.2,43.2,2l6.9-1.4c13.9-2.7,32.8-6.3,40.7-28C2702.9-334.3,2710.5-376.1,2705.2-399.4z
		 M2687.6-317.2c-7.4,20.3-26.7,20.5-41.6,24c-15.7,3.7-29.6,0.9-38.8-1.8c-9.2-2.8-14.8-35.1-19.4-48c-4.6-12.9-12-44.3-8.3-62.8
		c3.7-18.5,53.6-23.1,79.4-23.1s33.3,11.1,37.9,31.4v0C2701.5-377.2,2695-337.5,2687.6-317.2z"/>
</g>
<g>
	<path class="st0" d="M2795.7-368c-6-2.4-25.2,3.8-38,8.4l-0.8,49.8l48.9-13.9C2804-353.2,2805-364.3,2795.7-368z M2765.6-321.1
		c0.2-11.5,0.4-25.5,0.5-32.3c16.7-5.7,24.9-6.9,26.8-6.5v0c2.4,1,2.9,9.3,3.8,25.1l0.3,4.9L2765.6-321.1z"/>
	<path class="st0" d="M2857.7-374.6l-0.7-6.3c-0.8-9-1.7-19.2-9.1-25.4c-4.4-3.6-10.1-5-17.1-4.3c-10.7,1.1-29.7,6.5-48.1,11.6
		l-5.3,1.5v-89l-10.9,3.2l0,0l-63.8,18.8l1.5,7.6c0.2,1,20.2,101.8,23.9,166.9l0.4,6.7l6.5,1.2c1.4,0.3,35.9,6.7,64.6,2.8
		c46.7-6.2,54.4-17.3,56.2-25.1C2857.8-313.3,2859.7-359.8,2857.7-374.6z M2847.4-306.1c-1.8,8.3-21.2,14.8-49,18.5
		c-27.7,3.7-61.9-2.8-61.9-2.8c-3.7-66.5-24-168.1-24-168.1l56.3-16.6v88.7l-0.1,0.1c21.5-5.8,49.7-14.5,62.9-15.8
		c17.5-1.8,15.7,14.8,17.5,28.6h0C2851.1-359.7,2849.3-314.4,2847.4-306.1z"/>
</g>
<path class="st0" d="M2527.9-597.6c17.8-5.5,35.2-24.6,27.1-43.2c-8.1-18.6-33-30.1-48.3-16.5c-15.3,13.5-29.2,55-39,58.9
	c-9.8,3.8-13.1,4.2-6.4-18.6c6.8-22.9,5.1-46.6-7.6-57.6c-12.7-11-41.1-12.7-47,13.5c-5.9,26.3,8,37.3,16.9,47.4
	c8.9,10.2,10.6,14.4,7.2,18.6c-2.1,2.6-5.9,1.3-16.9-8.5c-11-9.7-43.2-22.9-57.2-16.5c-14,6.4-24.6,31.8-20.3,41.5
	c4.2,9.7,15.7,25.8,40.6,21.6c25-4.2,50.4-15.7,55.9-15.7c5.5,0,10.6,5.5,0,12.3c-10.6,6.8-41.5,22.9-49.5,38.5
	c-8.1,15.7-14,39.8,7.2,49.5c21.2,9.7,40.2,8,55.4-22.4c15.3-30.5,7.6-58.9,12.7-60.5c5.1-1.7,11.4,23.7,19.1,35.1
	c7.6,11.4,33.5,41.1,56.7,19.9c23.3-21.2-5.1-50.8-18.2-57.2c-13.1-6.3-31.3-12.7-27.1-19.5C2493.6-583.6,2510.1-592,2527.9-597.6
	L2527.9-597.6z M2505.6-553l7.2,3.3c6.8,3.3,20.3,15.9,22.1,28.3c0.9,5.7-1,10.5-5.9,14.9c-4.4,4-9,5.7-14,5.1
	c-12.3-1.5-25-16-29.9-23.4l-8.1-17.1c-5.5-13.4-10.3-24.9-20.8-21.4c-7.5,2.5-7.8,10.4-8,19.5c-0.3,11.1-0.9,27.8-9.6,45.3
	c-13.1,26.2-27.2,26.4-44.3,18.5c-4.5-2-7.3-4.9-8.6-8.8c-2.4-6.9-0.4-17.8,5.4-29.1c5.6-10.8,27.5-23.8,39.2-30.8l7.3-4.4
	c10.9-7,10.7-14.4,9.6-18.3c-1.7-5.8-7.4-9.7-14.2-9.7l-17.5,4.7c-10.7,3.6-25.4,8.6-39.8,11.1c-19.6,3.3-28.1-9-31.4-16.6
	c-1.9-4.4,5.2-25.4,16-30.3c9-4.1,37.5,5.9,48,15.1c10.4,9.2,15.8,12.2,21.3,11.7l7.9-4.3c8.8-11-1-22.2-7.4-29.5l-3.3-3.6
	c-8.2-8.9-16-17.4-11.8-36.3c1.6-7.1,5.3-11.6,11.1-13.5c8-2.6,17.3,0.4,22.1,4.5c9.3,8,11.3,27.6,5,48.7c-3.9,13.2-6.2,23-0.1,28.7
	c5.5,5.1,12.8,2.2,17.7,0.3c7.4-2.9,12.8-12.5,21.6-29.3c6.3-11.9,13.3-25.3,19.9-31.1c4.9-4.3,10.6-4.2,14.6-3.3
	c8.5,1.9,16.6,8.7,20.2,16.8c1.9,4.4,1.8,9.1-0.5,13.9c-3.6,7.8-12.2,14.9-21.3,17.8c-5.8,1.8-35.2,11.4-43.2,24.4l-1.4,10.1
	C2483.2-563.1,2493.6-558.4,2505.6-553L2505.6-553z"/>
</svg>
