<?xml version="1.0" encoding="utf-8"?>
<!-- Generator: Adobe Illustrator 19.0.0, SVG Export Plug-In . SVG Version: 6.00 Build 0)  -->
<svg version="1.1" id="Layer_1" xmlns="http://www.w3.org/2000/svg" xmlns:xlink="http://www.w3.org/1999/xlink" x="0px" y="0px"
	 viewBox="0 0 1929.1 188.4" style="enable-background:new 0 0 1929.1 188.4;" xml:space="preserve">
<style type="text/css">
	.st0{fill:#FFFFFF;}
</style>
<g>
	<path class="st0" d="M0,184c3-12.4,6.1-24.8,9-37.3C18.1,106.8,26.9,66.8,36.5,27c2.9-11.9,13-17.6,24.2-20.9
		C63.8,5.3,67.2,5,70.5,5c139,0,278,0,417-0.2c5.1,0,7.7,1.8,10.3,5.8c7.8,12.4,15.9,24.5,24.4,37.6c3.1-3.3,5.8-6.2,8.5-9
		c10.5-10.5,20.9-21,31.5-31.4c1.5-1.5,3.9-2.8,5.9-2.8C598.3,4.9,628.4,5,658.6,5c0.6,0,1.2,0.1,2.7,0.3c-1.6,1.9-2.8,3.4-4.1,4.8
		C624.1,46,591,81.8,558,117.8c-2,2.2-3.3,5.4-3.9,8.3c-3.9,19.8-7.4,39.6-11.1,59.6c-27.6,0-55.1,0-82.8,0
		c4.4-20.7,8.8-41.2,12.9-61.8c0.5-2.3,0-5.3-1.2-7.3c-7.1-12.2-14.6-24.2-22.8-37.5c-1.2,5.8-2.1,10.3-3,14.8
		c-4.3,22.5-21.8,37-44.8,37c-34.2,0-68.3,0-102.5,0c-1.8,0-3.6,0-5.8,0c-3.7,18.3-7.3,36.4-11.1,55c-94,0-188,0-281.9,0
		C0,185.3,0,184.6,0,184z M219.1,160.9c-0.4,4.7-0.9,9.6-1.4,14.5c1,0.3,1.6,0.7,2.2,0.7c16.3,0.1,32.6,0.1,49,0.2
		c3.2,0,4.7-1.6,5.2-4.8c2.5-15.3,5.4-30.5,7.7-45.8c0.7-4.5,2.6-5.8,6.9-5.7c16.3,0.1,32.7,0,49-0.1c20.2-0.2,40.3,0.1,60.5-1
		c13.2-0.7,25.8-5.5,32.8-17.3c4.1-7,5.3-15.9,6.9-24.1c2-10,3-20.2,4.6-31.6c1.9,2.1,3.1,3.2,4,4.5c12.8,20.6,25.8,41.2,38.2,62.1
		c1.8,3.1,2.3,7.7,1.8,11.4c-2.4,15.8-5.3,31.5-8.1,47.3c-0.7,3.6,0.1,5.2,4.1,5.2c14.7-0.1,29.3,0,44,0.1c4,0,5.9-1.5,6.6-5.6
		c2.7-15.4,5.5-30.8,8.8-46.1c0.8-3.7,2.6-7.7,5.2-10.4c27-28.6,54.2-57,81.3-85.4c3.4-3.5,6.3-7.5,10-11.9
		c-2.4-0.4-3.7-0.8-4.9-0.8c-17.7-0.1-35.3-0.3-53,0c-3.1,0.1-6.8,1.9-9.1,4.1c-11.4,10.9-22.5,22.3-33.7,33.4
		c-5.4,5.4-10.8,10.6-16.5,16.2c-1.2-1.5-2.1-2.5-2.8-3.5c-9.5-15-19.1-30-28.4-45.2c-2.5-4.1-5.3-5.5-10.1-5.4
		c-19,0.3-38,0.2-57,0.2c-108.7-0.1-217.3-0.3-326-0.4c-7.7,0-15.3,0.2-23,0.7c-11.9,0.8-22.3,7.5-24.4,16.8
		c-4.7,20.4-9.1,41-12.7,61.6c-0.8,4.5,1.3,10.2,3.6,14.5c5.1,9.4,14.5,10.9,24.2,11c21.2,0,42.3-0.3,63.5-0.3c14,0,28,0.2,42,0.6
		c1.4,0,2.7,1.7,4,2.6c-1.4,1.4-2.5,3.2-4.1,4.1c-1.3,0.7-3.3,0.2-4.9,0.2c-43.2,0.1-86.3,0.4-129.5,0.3c-5.5,0-7.6,2.1-8.5,7.2
		c-2,10.8-4.5,21.5-6.7,32.3c-2,9.6-1.9,9.9,8.2,9.9c53.3-0.1,106.6-0.3,160-0.6c3.7,0,7.8-0.8,11-2.6
		C206,169.9,212.2,165.4,219.1,160.9z"/>
	<path class="st0" d="M699,4.2c24.4,0,48.4,0,72.9,0c-3.3,17.9-6.5,35.5-9.8,53.5c23.6,0,47,0,71,0c3.6-17.6,7.3-35.5,11-53.4
		c40.2,0,80.2,0,120.8,0c-6.6,35.9-13.2,71.6-19.9,107.6c22.5,0,44.6,0,67.1,0c8-35.9,15.9-71.7,24-107.8c21.6,0,42.8,0,63.9,0
		c2,0,4-0.2,5.8-0.8c20.8-7,39.1-2.3,53.7,14.3c13.6,15.4,26.9,30.9,40.3,46.4c4.1,4.8,8.3,9.5,13.1,15.1
		c5.8-25.9,11.4-50.8,17.1-76c18,0,35.6,0,53.3,0c89.2-0.1,178.3-0.3,267.5-0.3c95.1,0,190.3,0.1,285.4,0.4c6.9,0,14.1,1,20.6,3
		c20,6.3,25,26,22.5,39.8c-3.7,20-8.3,39.7-12.6,59.6c-3.1,14.2-9.9,20-26.7,22.1c29.9,18.4,59,36.3,89.1,54.9
		c-2.4,0.2-3.8,0.4-5.1,0.5c-42.7,0.3-85.3,0.7-128,0.9c-2.6,0-5.6-0.9-7.9-2.2c-23.1-13.2-46.2-26.5-69.3-39.9
		c-1.4-0.8-2.9-1.6-4.8-2.7c-2.1,15.1-4.1,29.7-6.1,45c-13.3,0-26.4,0-39.5,0c-62.3,0.3-124.6,0.6-187,0.9
		c-27.4,0.1-44.8-21.4-39.1-48.3c3.9-18.7,7.8-37.4,11.8-56.5c-13.5,0-26.6,0-40.1,0c-6.3,34.5-12.7,69-19,103.6
		c-26.1,0-51.7,0-77.9,0c6.6-34.3,13.2-68.3,19.9-102.6c-14.4,0-28.3,0-43,0c-1.6,8-3.3,16-4.9,24.1c-3.2,16.2-5.9,32.4-9.6,48.5
		c-3.7,16.5-15.2,30.7-38,33.9c-8.5,1.2-17.3,1-25.8,0.2c-11.5-1.1-21-6.7-28.5-15.7c-13.8-16.5-27.9-32.7-41.9-49
		c-1.2-1.4-2.4-2.7-4.3-4.8c-4.4,23-8.7,45.1-13,67.5c-107.3,0-214.4,0-321.8,0c3.3-18.1,6.5-36.1,9.8-54.4c-22.7,0-45.1,0-68,0
		c-3.6,18.1-7.3,36.3-11,54.5c-26.4,0-52.3,0-78.8,0C671.8,125.1,685.4,64.6,699,4.2z M758.6,16.6c-4.1-0.3-7.1-0.7-10-0.7
		c-11-0.1-22,0.3-33-0.2c-5.5-0.2-7.4,1.9-8.5,7c-7.1,34.4-14.6,68.7-21.9,103.1c-3.2,15-6.1,30-9.2,45c-0.7,3.5,0.2,5.3,4.2,5.3
		c14-0.1,28,0,42,0.1c3.8,0,5.7-1.5,6.4-5.4c3-15.9,6.2-31.7,9.2-47.6c0.6-3.1,1.7-4.2,4.8-4.2c28.5,0,57,0,85.5,0
		c1.7,0,3.4,0.4,5.2,0.6c-3.8,19-8.8,37-10.5,56.5c14.8,0,28.6,0,42.4,0c6.9,0,7.5-0.6,8.7-7.4c0.7-3.6,1.3-7.2,1.9-10.7
		c1.9,1.5,2.5,2.9,3.2,4.4c3.9,8.8,10,14.1,20.4,13.7c11.3-0.5,22.7,0,34,0c37.7-0.2,75.3-0.5,113-0.7c6.7,0,13-0.9,17.5-6.6
		c0.5-0.6,1.7-0.6,3.1-1c0.3,2.6,0.6,4.8,0.9,7.5c1.7,0.1,3.3,0.3,5,0.3c12.3,0,24.7,0.2,37,0c11.3-0.2,9.4,0.5,11.4-9.5
		c4.6-23.2,8.6-46.5,13-69.7c0.3-1.7,0.9-3.3,1.4-4.9c0.6-0.3,1.3-0.7,1.9-1c1.3,1.9,2.5,3.9,3.9,5.7c17.3,21,34.9,41.6,51.7,62.9
		c11.6,14.7,26.5,19.3,44.2,17.3c18.9-2.1,27.1-9.5,30.9-28.3c5.2-25.3,10.1-50.6,15.1-75.9c0.7-3.4,2-4.6,5.6-4.6
		c18.3,0.1,36.7-0.1,55-0.1c2.6,0,5.2,0,8.5,0c-0.7,4.7-1,8.6-1.8,12.5c-5.3,27.5-10.8,54.9-16,82.4c-0.8,4-0.9,8.1-1.4,12.8
		c16,0,31-0.1,46,0.1c4.7,0,6.2-2.1,7-6.4c5.8-32.3,12-64.5,17.8-96.8c0.8-4.2,2.9-4.9,6.5-4.9c14.8,0.2,29.7,0.2,44.5,0.3
		c5,0,9.9,0,15.5,0c-3.1,15.1-6.1,29-8.7,43.1c-2.2,11.9-4.4,23.9-5.6,35.9c-1,10,4.4,17.5,12.1,23.3c5.4,4.1,11.7,5.4,18.4,5.4
		c32.8-0.1,65.7-0.2,98.5-0.3c34.7-0.1,69.3-0.2,104-0.2c5,0,7.5-1.1,8.2-6.7c1.2-10.1,3.2-20,5-30c1-5.7,2.2-11.3,3.4-17.5
		c2.3,1.2,3.8,2,5.2,2.8c25.1,15.2,50.2,30.2,75.1,45.7c6.8,4.2,13.8,6.1,21.7,6c24.7-0.4,49.3-0.6,74-1c1.9,0,3.8-0.2,5.6-0.4
		c0.2-0.5,0.3-0.9,0.5-1.4c-1.9-1.5-3.6-3.1-5.7-4.4c-24.4-15-48.8-30-73.2-45c-2.8-1.7-5.4-3.8-8.1-5.8c1.8-1.1,3.1-1.4,4.4-1.4
		c9.3,0.1,18.7,0.1,28,0.3c11.3,0.2,22.8-8.2,24.7-18.7c3.4-18.7,6.4-37.4,9.8-56.1c1.3-7-0.6-13.1-6-16.9
		c-5.3-3.7-11.5-6.7-17.8-8.2c-6.4-1.5-13.2-1.1-19.9-1.1c-51.2,0-102.3,0.2-153.5,0.3c-52.7,0.1-105.3,0.2-158,0.2
		c-8.1,0-16,0.4-22.8,5.6c-0.4,0.3-1.2,0.2-2.4,0.4c0.8-5.8-2.8-6.1-6.8-6c-1.3,0-2.7-0.2-4-0.2c-46.8-0.1-93.7-0.3-140.5-0.2
		c-28.8,0-57.7,0.5-86.5,0.5c-4.5,0-6.6,1.2-7.6,6.1c-3.2,16.3-7.1,32.5-10.8,48.7c-2.8,12.5-5.5,24.9-8.6,38.6
		c-2.4-2.4-4.2-3.9-5.7-5.7c-15.8-18.7-31.5-37.5-47.5-56.1c-7.3-8.5-14.5-17.1-22.5-24.8c-15.8-15.2-34.5-13.2-47.6,4.4
		c-1,1.4-2.2,2.6-3.3,3.9c-0.9-3.7-0.9-7-0.3-10.2c0.7-3.6-0.3-5.4-4.1-5.3c-13.7,0.2-27.3,0.3-41,0.3c-2.8,0-3.6,1.4-4.1,3.8
		c-3.7,19.3-7.5,38.6-11.4,57.8c-2.3,11.6-4.3,23.2-7.1,34.7c-2.2,9-7.2,12.7-16.4,13.2c-5.7,0.3-11.3,0.4-17,0.4
		c-18.8,0-37.7,0.1-56.5,0c-6.9,0-7.5-0.6-6.6-7.5c0.9-6.8,2.2-13.5,3.4-20.2c4.5-25.4,8.9-50.8,13.4-76.2c0.6-3.2,0.9-5.9-3.9-5.9
		c-28,0.2-56,0.2-84,0.1c-4,0-5.4,1.6-6.1,5.3c-2.8,15.2-6,30.4-8.9,45.6c-0.7,3.5-2.1,5-6,5c-27.3-0.2-54.7-0.2-82-0.3
		c-2.7,0-5.5-0.4-8.7-0.7C751.8,52.7,755.1,35,758.6,16.6z"/>
	<path class="st0" d="M244.4,23.2c-0.7,4.5-1.2,8.6-1.9,12.6c-1.1,6.2-2.7,12.4-3.6,18.6c-0.6,4.6-2.8,5.9-7.2,5.9
		c-24.5,0-49,0.2-73.5,0.4c-20.8,0.1-41.7,0.3-62.5,0.4c-4.7,0-8.4,1.2-9.9,6.4c-1.6,5.9,1.2,9.7,8.1,9.8
		c16.2,0.2,32.3,0.2,48.5,0.4c16.5,0.1,33,0.3,49.5,0.4c14.7,0.1,26.9,9.1,29.4,23.8c3.1,17.9,1,35.3-10,50.6
		c-8,11.1-18.5,17.5-33,17.4c-47-0.2-94,0.1-140.9,0.2c-2.9,0-5.9-0.3-9.5-0.5c2.7-10.7,5.1-20.9,8.1-30.8c0.4-1.3,3.6-2.6,5.5-2.6
		c26.2-0.3,52.3-0.4,78.5-0.5c18-0.1,36-0.2,54-0.6c2.8-0.1,6-1.1,8.2-2.8c3.7-2.9,5.8-7,4.1-11.9c-1.7-4.9-5.1-7.7-10.4-8
		c-4.3-0.3-8.7-0.4-13-0.4c-29.8,0-59.6,0-89.5-0.1c-5.3,0-10.7-0.2-15.9-1.3c-9.7-2.1-13.6-8.7-12.1-18.2c2.6-16.8,6.3-33.4,9.8-50
		c2.2-10.4,9.8-17.1,21.3-18c14.1-1.1,28.3-1.7,42.4-1.8c38.1-0.2,76.3-0.1,114.4-0.1C236.9,22.4,240.3,22.9,244.4,23.2z"/>
	<path class="st0" d="M228.5,170c1.8-9.5,3.3-17.9,5-26.1c6.4-32.8,12.9-65.6,19.4-98.5c1.3-6.4,2.7-12.7,3.8-19.1
		c0.5-2.8,1.9-3.4,4.4-3.4c49.6,0.1,99.3,0.2,148.9,0.3c10.2,0,19.3,2.8,24.5,12.3c1.5,2.7,2.1,6.4,1.7,9.4
		c-1.9,12-4.5,23.9-6.5,35.9c-2.6,16.3-11.2,25.7-32.1,30c-7.2,1.5-14.9,1.1-22.4,1.1c-29.8,0.1-59.6,0.1-89.5,0.1
		c-8.2,0-8.2,0.1-9.7,7.9c-2.9,14.9-6,29.7-8.7,44.6c-0.7,4.1-2.5,5.5-6.6,5.4C250.3,169.9,239.9,170,228.5,170z M340,78.2
		C340,78.3,340,78.3,340,78.2c16.2,0.1,32.3,0.1,48.5,0c4.6,0,9.7-3.4,9.5-7.7c-0.1-3-3-6.2-5.4-8.6c-1.2-1.2-4.1-1.1-6.2-1.1
		c-21.7-0.1-43.3-0.2-65-0.2c-9.5,0-19,0.3-28.5,0.2c-4.3,0-6.5,1.6-6.7,6c-0.1,1.2-0.4,2.3-0.6,3.4c-1.2,6.5-0.2,7.8,6.4,7.9
		C308,78.3,324,78.2,340,78.2z"/>
	<path class="st0" d="M622.8,24.3c-7.3,7.7-14.6,15.4-21.9,23c-20,20.8-40,41.5-60.1,62.2c-5.1,5.3-7.8,11.4-9,18.5
		c-2.1,12.3-4.5,24.6-6.4,36.9c-0.6,4-2.4,5.4-6.3,5.3c-8.5-0.2-17-0.2-25.5-0.3c-5.7-0.1-6-0.7-4.8-6.1c2.6-12.2,5-24.5,7.6-36.7
		c1.9-9-2-16.2-6.4-23.4c-14.5-23.4-28.9-46.8-43.3-70.1c-1.9-3.1-3.8-6.1-6.5-10.3c4.3,0,7.4,0,10.5,0c9.2,0,18.3,0,27.5-0.1
		c3.4,0,5.3,1.2,7.1,4.2c10.4,16.9,21,33.6,31.7,50.3c3.8,6,4.5,6,9.6,0.8c17-17.2,33.8-34.5,50.8-51.7c1.6-1.7,4-3.6,6.1-3.7
		c12.8-0.3,25.6-0.2,38.4-0.2C622.2,23.4,622.5,23.8,622.8,24.3z"/>
	<path class="st0" d="M230.7,92.2c-2.5-3.2-5.1-6.4-7.6-9.6c-6.2-8.2-13.7-12.3-24.7-12.1c-31.9,0.7-63.9,0.3-95.9,0.4
		c-2.5,0-5-0.3-7.5-0.4c0-0.5,0-1,0.1-1.6c47.2,0,94.3,0,142.1,0c-1.6,7.6-3.2,15.3-4.8,23C231.8,92,231.3,92.1,230.7,92.2z"/>
	<path class="st0" d="M1671.7,21.3c-2.7,13-5,24.9-7.8,36.7c-0.3,1.2-3.7,2.4-5.6,2.5c-16.5,0.1-33-0.1-49.5-0.1
		c-25.2,0-50.3,0.1-75.5,0.2c-2.5,0-5,0.2-7.4,0.8c-5.1,1.3-8.2,6.1-7.3,11c1,5.3,5.3,4.8,9,4.8c42,0.6,84,1.1,126,1.6
		c2,0,3.9,0.2,6.8,0.4c-2.1,10.1-3.9,19.7-6.3,29.1c-0.3,1.4-3.4,2.9-5.2,3c-14.8,0.3-29.7,0.3-44.5,0.4c-28.8,0.1-57.7,0-86.5,0.3
		c-3.1,0-6.4,1.5-9.2,3.1c-3.5,2-4.5,5.6-3.4,9.6c1.2,4.1,4.6,4.4,8,4.3c28-0.4,56-0.9,84-1.2c14.3-0.2,28.7,0.1,43,0.2
		c2.8,0,5.6,0.5,9.4,0.8c-1.4,7.6-2.5,15-4,22.2c-3.5,16.1-3.6,16.2-20.1,16.3c-43.8,0.1-87.7,0.2-131.5,0.2c-4,0-8-0.1-12-0.6
		c-12.5-1.6-19.8-11.3-17.5-23.8c4.1-21.6,8.6-43.1,12.8-64.7c2.1-10.6,3.9-21.3,5.7-31.9c2.5-14.1,13.8-24.1,28.7-24.2
		c43.3-0.4,86.6-0.6,130-0.9C1651.4,21.3,1660.8,21.3,1671.7,21.3z"/>
	<path class="st0" d="M1780.7,113.3c28.5,17.6,56.9,35.1,86.4,53.4c-2.6,0.4-4.2,0.9-5.9,0.9c-17.5,0.2-35,0-52.5,0.6
		c-9.1,0.4-16-4-23-8.2c-25.9-15.4-51.7-31-77.6-46.4c-6.9-4.1-7.8-3.6-9.2,4.2c-2.7,14.9-5.5,29.8-8.2,44.7
		c-0.5,2.7-1.3,4.8-4.6,4.8c-10.3,0-20.6,0-31.6,0c1.3-6.9,2.4-13.2,3.7-19.5c7.9-39.5,15.9-79,23.9-118.4c1.6-7.8,1.6-8,9.8-8
		c47.3,0,94.6,0,141.9,0.2c6.8,0,13.7,0.6,19.5,5c5.4,4.1,8,9.3,6.8,16.1c-2.8,15.9-5.4,31.8-8.6,47.7
		c-2.5,12.5-12.7,20.6-25.7,20.8c-12.3,0.2-24.7,0.1-37,0.2c-2.6,0-5.1,0.4-7.7,0.6C1781.1,112.3,1780.9,112.8,1780.7,113.3z
		 M1762.2,76.4c0,0.1,0,0.1,0,0.2c14.7,0,29.3,0,44,0c2.3,0,4.7,0.2,7-0.2c3.8-0.7,7.2-5.7,7.1-9.8c-0.2-5-4-4.7-7.2-4.7
		c-32.5-0.2-64.9-0.3-97.4-0.4c-5.4,0-7.3,3-7.3,10.9c0,5.6,4.7,3.9,7.4,3.9C1731.3,76.5,1746.7,76.4,1762.2,76.4z"/>
	<path class="st0" d="M1076.8,168.7c1.7-9.5,3.1-17.7,4.6-26c5.9-31.9,11.6-63.8,17.9-95.6c1.1-5.6,4.1-11.4,7.8-15.8
		c9.6-11.3,23.8-12.2,34.9-2.3c5.8,5.2,10.8,11.3,15.8,17.3c20.4,24.4,40.7,48.9,61.1,73.3c1.8,2.2,3.5,4.4,5.3,6.5
		c0.6-0.2,1.2-0.4,1.7-0.6c1.1-2.8,2.6-5.6,3.2-8.5c4.7-21.3,9.2-42.6,13.8-63.9c2-9.3,4-18.5,6.2-27.8c0.3-1.2,2-3,3.1-3
		c10.6-0.2,21.2-0.1,32.6-0.1c-2.3,11.3-4.4,22.1-6.6,32.8c-6.3,30.1-12.8,60.2-19,90.3c-2.4,11.9-8.9,20-20.4,23.5
		c-11.7,3.6-23,1.8-31.4-7.2c-10.4-11-19.6-23.1-29.4-34.7c-12.3-14.5-24.5-29-37-43.3c-2.5-2.8-6.2-4.6-9.4-6.8
		c-1.4,3.6-3.5,7-4.2,10.7c-4.9,24.6-9.6,49.3-14.2,74c-1.3,6.7-1.6,7.1-8.3,7.1C1095.8,168.8,1086.8,168.7,1076.8,168.7z"/>
	<path class="st0" d="M861.3,23.1c11.5,0,22.9,0,35.1,0c-2.6,12.1-5.1,23.8-7.5,35.5c-6.9,33.2-13.9,66.5-20.8,99.7
		c-2.5,11.8-2.4,11.8-14.5,11.7c-6.3-0.1-12.7-0.2-19-0.2c-4.1,0-5.2-1.7-4.2-5.6c3.2-13.1,6.4-26.2,9.3-39.3
		c0.9-4,1.1-8.1,1.8-13.3c-5.4,0-10,0-14.6,0c-28.3,0-56.7-0.1-85-0.1c-7.9,0-8.1,0.2-9.7,7.9c-3.2,15.3-6,30.7-9.3,46
		c-0.4,1.7-2.6,4.3-4.1,4.3c-10.8,0.3-21.7,0-32.5-0.1c-0.6,0-1.2-0.4-2.1-0.7c2.5-11.1,5.2-22,7.4-33c6.5-31.8,12.8-63.6,19.2-95.5
		c1-4.7,1.7-9.5,2.9-14.2c0.4-1.4,2.1-3.4,3.2-3.4c11-0.3,21.9-0.2,33.7-0.2c-0.7,4.8-1.4,9.2-2.1,13.5c-2,11.8-4,23.6-6.2,35.4
		c-0.9,4.9,2.3,4.3,5.1,4.3c20.2,0,40.3-0.2,60.5-0.2c12.5,0,25-0.1,37.5,0.1c3.7,0,4.8-1.2,5.6-5C854.2,55,857.8,39.3,861.3,23.1z"
		/>
	<path class="st0" d="M941.4,22.4c-1.8,10.6-3.3,20.5-5.1,30.2c-4,21.9-8.1,43.9-12.1,65.8c0,0.2,0,0.3-0.1,0.5
		c-1.6,11.7-0.5,13.1,11.3,13.1c26.2,0,52.3,0,78.5-0.2c14.8-0.1,18.2-2.7,21.3-17.3c5.5-26.4,10.6-52.8,15.9-79.2
		c0.7-3.3,1.2-6.6,2.1-9.7c0.3-1.2,1.7-2.9,2.7-2.9c10.6-0.2,21.2-0.1,32.8-0.1c-1.4,7.2-2.6,13.5-3.9,19.8
		c-7,34.4-13.9,68.8-20.9,103.2c-1.6,7.8-3.5,15.9-11.3,19.5c-5.1,2.4-11.1,3.8-16.7,3.8c-37.8,0.4-75.6,0.3-113.4,0.3
		c-6.8,0-13.7,0.1-20.5-0.3c-12-0.6-18.8-8.6-16.8-20.4c3.2-18.5,7.1-36.9,10.7-55.4c4.4-22.2,8.7-44.4,13.3-66.5
		c0.3-1.6,2.4-4,3.7-4C922.1,22.3,931.2,22.4,941.4,22.4z"/>
	<path class="st0" d="M1288.9,60.3c2.6-12,5.2-23.5,7.6-35c0.6-3,2.6-3.4,5.1-3.4c15.5-0.1,31-0.3,46.5-0.3
		c40.5-0.1,81-0.3,121.5-0.3c2.8,0,5.6,0.3,9,0.5c-0.3,3.7-0.2,7-0.8,10.2c-1.7,8.1-4,16.2-5.5,24.3c-0.7,3.9-2.8,4.7-6.2,4.7
		c-19.2-0.1-38.3,0-57.5,0c-0.5,0-1,0-1.5,0c-7.7,0.1-7.6,0.1-9.2,7.8c-6.3,31.5-12.6,63-19.1,94.5c-0.3,1.6-2.5,4.1-3.8,4.1
		c-11,0.3-22,0.1-33,0c-0.4,0-0.9-0.4-1.8-0.8c0.7-4,1.5-8,2.2-12c5.3-29.2,10.7-58.3,16-87.5c1.1-5.8,0.7-6.1-5.4-6.1
		c-19.3-0.1-38.7-0.2-58-0.3C1293.2,60.7,1291.2,60.5,1288.9,60.3z"/>
	<path class="st0" d="M1650.5,118.9c1.1,4.5-0.6,5.8-4,5.8c-40.9,0.1-81.9,0.2-122.8,0.2c-2.1,0-5,0.3-4.3-3c0.3-1.3,3-2.8,4.6-2.8
		c33.5-0.2,66.9-0.2,100.4-0.3C1633.1,118.9,1641.8,118.9,1650.5,118.9z"/>
	<path class="st0" d="M1660.1,69.9c-1.7,0.4-3.4,1.2-5,1.2c-41,0-81.9-0.1-122.9-0.2c-1.6,0-3.2-0.3-4.7-0.5
		c-0.1-0.6-0.2-1.2-0.4-1.8c1.8-0.5,3.7-1.5,5.5-1.5c24.1,0,48.3,0.2,72.4,0.4c16.3,0.1,32.6,0.2,49,0.3c1.9,0,3.9,0,5.8,0
		C1659.9,68.5,1660,69.2,1660.1,69.9z"/>
	<path class="st0" d="M388.2,69c-2.6,2.3-89.2,3-96.3,0.8c2-0.9,3.1-1.8,4.1-1.8c29.6,0,59.2,0,88.9,0.1
		C385.9,68.1,386.9,68.6,388.2,69z"/>
	<path class="st0" d="M1809.1,70.2c-1.4,0.3-2.8,0.8-4.2,0.8c-28.3,0.1-56.6,0.1-84.9,0c-1.3,0-2.6-1.1-4-1.7c1.2-0.7,2.5-2,3.7-2
		c28.4,0.1,56.9,0.2,85.3,0.4c1.3,0,2.6,0.6,3.9,0.9C1809.1,69.1,1809.1,69.7,1809.1,70.2z"/>
</g>
</svg>
