<?xml version="1.0" encoding="utf-8"?>
<!-- Generator: Adobe Illustrator 19.0.0, SVG Export Plug-In . SVG Version: 6.00 Build 0)  -->
<svg version="1.1" id="Layer_1" xmlns="http://www.w3.org/2000/svg" xmlns:xlink="http://www.w3.org/1999/xlink" x="0px" y="0px"
	 viewBox="0 0 1959.2 279" style="enable-background:new 0 0 1959.2 279;" xml:space="preserve">
<style type="text/css">
	.st0{fill:#FFFFFF;}
</style>
<g>
	<path class="st0" d="M1017.8,279c-14.2-1.9-28.2-4.8-41.3-11.2c-30.1-14.6-51.6-37.8-66.8-67.2c-18.6-35.9-20.8-73.9-13.4-112.9
		c2.2-11.6,6-22.8,9.3-34.2c0.4-1.4,2.5-3.4,3.8-3.4c24.3-0.1,48.6,0,73,0c0.1,0,0.3,0.2,0.7,0.5c-1.3,11.9-2.8,23.9-3.9,35.9
		c-2.5,27.8-2.7,55.6,4.7,82.9c11.6,42.7,40.3,67,83,75.3c11.2,2.2,22.6,2.9,35.7,4.5c-9.2,6.1-17.1,11.9-25.7,16.8
		c-12.7,7.3-26.7,11.2-41.4,12.2c-1.3,0.1-2.6,0.5-3.9,0.7C1027.2,279,1022.5,279,1017.8,279z"/>
	<path class="st0" d="M270.8,0c1.2,0.5,2.4,1,3.6,1.6c4.1,2,5.1,5,3.1,9c-0.7,1.3-1.5,2.6-2.5,3.7c-12.5,15.2-24.9,30.4-37.5,45.5
		c-5.9,7.1-8.6,7.5-14,0.2c-9.4-12.6-21.8-16.1-36.7-16c-48.7,0.3-97.3,0.1-146,0.1c-2.1,0-4.2,0-6.2,0C30.5,21.4,45.7,2.6,69,0.9
		c2.3-0.2,4.6-0.6,6.9-0.9C140.8,0,205.8,0,270.8,0z"/>
	<path class="st0" d="M1166.8,0c2.3,0.4,4.6,0.5,6.8,1.2c1.5,0.4,3.6,1.2,4,2.3c0.4,1-0.7,3.2-1.8,4.2c-2.6,2.5-5.5,4.8-8.4,7
		c-19.6,14.3-39.3,28.6-59,42.9c-5.7,4.1-7.3,4-9.9-2.7c-3.4-8.9-9.3-11.4-18.5-11.3c-55,0.4-109.9,0.2-164.9,0.2
		c-1.8,0-3.6,0-5.4,0c-0.2-0.5-0.4-0.9-0.6-1.4C924.4,23,941.1,5.5,966.8,0C1033.5,0,1100.2,0,1166.8,0z"/>
	<path class="st0" d="M0,277c1.7-1.9,2.5-3,3.5-4c18.7-18.2,37.5-36.5,56.3-54.7c1.3-1.3,2.8-2.4,4.1-3.6c3-2.8,6.1-2.9,9.4-0.5
		c19.6,14.2,41.6,19.3,65.5,18.8c17-0.4,33.9-0.1,52.6-0.1C142.7,174.5,94.8,117.2,46.3,59.2c2.3-0.1,3.7-0.3,5.1-0.3
		c29.7,0,59.3,0,89-0.1c3.3,0,5.4,1,7.5,3.6c42,53.4,84.1,106.8,126.2,160.1c5.2,6.6,9.5,13.7,10.8,22.2
		c2.7,17.8-8.2,31.2-26.2,32.2c-1.8,0.1-3.7,0.1-5.5,0.1c-82.5,0-164.9,0-247.4,0C4.2,277,2.6,277,0,277z"/>
	<path class="st0" d="M1271.5,186.6c23.3,17.7,46.1,35,69.3,52.7c0.8-2,1.4-3.5,1.9-5c12.7-40,25.5-80,38.1-120c1.3-4,3-5.4,7.2-5.4
		c13.8,0.3,27.7,0.1,41.5,0.1c1.6,0,3.3,0,5.7,0c-3.4,14.3-6.7,27.9-10.3,42.6c3.5,0,6.6,0,9.6,0c7,0,14-0.1,21,0.1
		c1.4,0,3.8,0.7,4.1,1.6c4.7,12.9,9.2,26,14,39.6c-11.4,0-22,0-32.6,0c-7.5,0-15,0.2-22.5-0.1c-3.1-0.1-4.3,1-5,4
		c-3.1,12.9-6.6,25.8-9.8,38.8c-0.8,3.3-2,4.6-5.7,4.6c-47.8-0.1-95.7,0-143.5-0.2c-2.3,0-5.2-1.3-6.9-2.9
		c-13.2-12.7-26.2-25.6-39.2-38.5c-4.9-4.9-5.1-6.9-0.7-12.3c12.9-16.1,25.9-32.2,38.9-48.2c5.4-6.6,8.4-14,7.4-22.6
		c-0.9-8-5.5-12.7-13.4-13.9c-2.5-0.4-5-0.4-7.5-0.4c-46.8,0-93.7,0-140.5,0c-3.4,0-6.8-0.3-10.3-0.5c-0.2-0.4-0.3-0.9-0.5-1.3
		c1.4-1.2,2.7-2.5,4.3-3.5c20.2-12,40.3-24.1,60.7-35.8c3.3-1.9,7.6-2.8,11.4-2.8c35.7-0.2,71.3-0.3,107-0.1
		c41,0.3,65.6,42.1,45.1,77.7c-6.9,12-16.3,22.7-24.8,33.8C1281.3,174.6,1276.5,180.4,1271.5,186.6z"/>
	<path class="st0" d="M637.8,98.9c1.6-1.3,3.2-2.7,4.9-3.7c18.9-11.2,37.9-22.3,56.8-33.6c5.5-3.3,11.2-4.6,17.6-4.6
		c34,0.1,68,0.1,102,0c20.1-0.1,36.8,6.6,47,24.7c10.5,18.9,10.4,38.4-1.7,56.3c-10.1,15-22,28.9-33.1,43.3
		c-1.3,1.7-2.6,3.4-4.1,5.3c23.3,17.6,46.2,35,69.9,53c-2,0.3-3.2,0.5-4.4,0.5c-27.5,0-55,0.1-82.5-0.1c-2.3,0-5.2-1.3-6.9-2.9
		c-12.8-12.4-25.4-25.1-38-37.6c-5.7-5.7-6.1-7.7-1.1-14.1c12.4-15.7,25-31.2,37.6-46.8c5-6.1,8.3-12.9,8.1-21
		c-0.2-9.6-5.8-15.6-15.3-16.5c-2.2-0.2-4.3-0.2-6.5-0.2c-46.5,0-93,0-139.5,0c-3.5,0-7.1-0.5-10.6-0.7
		C638,99.9,637.9,99.4,637.8,98.9z"/>
	<path class="st0" d="M483.1,92.4c1.7-2.8,3-6.2,5.3-8.3c4.3-3.9,9.1-7.2,14-10.4c5.7-3.7,11.4-7.6,17.7-10.3
		c6.5-2.8,13.4-5.6,20.3-6c15.6-0.9,31.3-0.3,47-0.4c6.7,0,10.2,4,12.5,9.7c5.2,13.2,10.3,26.4,15.4,39.6
		c16.5,42.5,33,85.1,49.5,127.6c0.7,1.8,1.3,3.7,2.2,6.2c-5.7,0-10.6,0-15.6,0c-15,0-30-0.2-45,0.1c-4.7,0.1-6.9-1.2-8.5-5.8
		c-12-34.3-24.2-68.4-36.7-102.5c-10.5-28.8-23.4-37.6-54.2-38c-7.5-0.1-14.9,0-22.4,0C483.9,93.4,483.5,92.9,483.1,92.4z"/>
	<path class="st0" d="M1381,92.5c1.5-2.6,2.4-5.8,4.5-7.7c4.3-3.9,9-7.4,13.8-10.6c6.1-4,12.6-7.5,18.9-11.3c7.4-4.4,15.4-6,23.9-6
		c13.2,0.1,26.3,0,39.5,0c10.2,0,12.6,1.5,16.5,11.2c8,20.3,15.8,40.7,23.7,61c13.7,35.3,27.3,70.5,41,105.8c0.6,1.5,1.1,3.1,1.7,5
		c-2,0.1-3.5,0.2-5,0.2c-19,0-38-0.1-57,0.1c-3.9,0-5.4-1.3-6.7-4.9c-13.2-37.2-26.8-74.2-40-111.5c-5.8-16.3-17.3-25.3-33.9-28
		c-6.5-1.1-13.2-1.6-19.9-1.9c-6.6-0.3-13.3-0.1-19.9-0.1C1381.8,93.4,1381.4,93,1381,92.5z"/>
	<path class="st0" d="M1795.9,109.2c27.8,0,54.6,0,81.9,0c0.1,1.7,0.4,3.3,0.4,4.8c0,27-0.1,54,0.1,81c0,8-1.7,15.4-5.7,22.4
		c-9.9,17.6-22.2,33.3-36.9,47c-9.1,8.5-12.3,8-19.3-2.1c-13.2-18.8-21.4-39.1-20.7-62.8c0.8-28,0.2-56,0.2-84
		C1795.9,113.6,1795.9,111.6,1795.9,109.2z"/>
	<path class="st0" d="M408.8,109.3c0,12.6,0,24.6,0,36.6c0,16.5-0.3,33,0.1,49.5c0.3,9.6-2.2,18.1-7.2,26
		c-10,15.6-21.4,30.2-34.9,42.9c-9,8.5-11.9,8.2-19.1-2.1c-13-18.5-21.1-38.5-20.6-61.9c0.7-28.3,0.2-56.6,0.2-85c0-1.9,0-3.9,0-6
		C354.7,109.3,381.4,109.3,408.8,109.3z"/>
	<path class="st0" d="M1639.1,239.8c-22,0-43.4,0-65.1,0c0-43.5,0-86.8,0-130.4c21.4,0,42.8,0,64.9,0c0,9.7,0,19.6,0,30.1
		c2.7,0,4.6,0,6.5,0c19.5,0.1,39,0.1,58.5,0.4c2.6,0,5.2,1.4,7.8,2.1c-1.6,2.2-2.7,4.9-4.8,6.5c-12,9.3-24.1,18.4-36.4,27.3
		c-2.4,1.7-5.8,2.4-8.9,2.6c-6,0.4-12,0.3-18,0c-3.8-0.2-4.8,1.1-4.8,4.8c0.2,17,0.1,34,0.1,51
		C1639.1,236.1,1639.1,237.8,1639.1,239.8z"/>
	<path class="st0" d="M360.8,57c24.7,0,49.3,0.2,74-0.1c9.2-0.1,15.5,3.4,19.8,11.5c4.5,8.5,9.4,16.9,14.1,25.3
		c3.2,5.9,2.4,7.3-4.3,7.3c-25.2,0.1-50.3,0-75.5,0c-23,0-46,0.1-69-0.1c-3.2,0-5.1,0.8-6.5,3.9c-2.3,5-5.1,9.8-8.3,14.2
		c-1.3,1.8-4.2,3.4-6.4,3.5c-9,0.4-18,0.2-27,0c-14.3-0.4-23.8-8.5-30.7-20.1c-2.8-4.7-2-9.8,2-13.8c8.6-8.8,17.4-17.4,26.2-26
		c4.6-4.5,10.3-5.7,16.5-5.7C310.8,57.1,335.8,57,360.8,57z"/>
	<path class="st0" d="M537.4,109c-3.5,14.4-6.8,28.1-10.2,42.6c9.5,0,18.3,0.4,27-0.1c5.6-0.3,8.2,1.4,9.8,6.9
		c3.4,11.4,7.7,22.6,11.8,34.6c-6.8,0-12.9,0-19.1,0c-11.8,0-23.7,0.1-35.5-0.1c-3.4-0.1-4.9,0.9-5.7,4.4c-3.1,13-6.5,25.8-9.8,38.7
		c-0.6,2.4-1.1,4.2-4.4,4.2c-18.8-0.2-37.6-0.1-56.5-0.1c-0.6,0-1.2-0.3-2.3-0.5c3.5-10.8,6.9-21.4,10.3-32
		c10.1-31.2,20.2-62.4,30.1-93.7c1.2-3.8,2.9-5.1,7-5.1C505.5,109.2,520.9,109,537.4,109z"/>
	<path class="st0" d="M1122.4,109.3c23.5,0,46.4,0,69.7,0c0,43.5,0,86.8,0,130.5c-23.2,0-46.2,0-69.7,0
		C1122.4,196.4,1122.4,153,1122.4,109.3z"/>
	<path class="st0" d="M747.4,239.9c-23.2,0-46.2,0-69.5,0c0-43.6,0-86.9,0-130.6c23.2,0,46.1,0,69.5,0
		C747.4,152.6,747.4,196,747.4,239.9z"/>
	<path class="st0" d="M1856.8,57c23.5,0,47,0.1,70.4-0.1c6.2-0.1,11,1.7,14.5,6.9c4.8,7,9.8,13.8,14.6,20.8
		c4.2,6.3,3.7,12.8-1.1,18.5c-7,8.6-15.9,14.2-27.3,14.5c-7.7,0.2-15.3,0.4-23,0.1c-2.2-0.1-4.9-1.8-6.4-3.7
		c-2.9-3.8-5.4-8-7.6-12.3c-1.6-3.1-3.6-4.1-7-4.1c-43.1,0.1-86.3,0.1-129.4,0c-2.8,0-5.7-1-8.5-1.5c1.3-2.6,2.2-5.5,4-7.6
		c7.4-8.8,15-17.4,22.5-26.1c3.5-4,7.8-5.7,13.2-5.7C1809.5,57.1,1833.2,57,1856.8,57z"/>
	<path class="st0" d="M1529.5,98.3c1.5-0.7,3.3-1.1,4.6-2.1c12.1-10.2,24.2-20.4,36-30.9c6.4-5.7,13.4-8.4,22.2-8.4
		c50.1,0.3,100.3,0.1,150.4,0.1c2.7,0,5.4-0.1,8,0.3c1.7,0.3,3.2,1.4,4.7,2.1c-0.7,1.4-1.1,3.2-2.2,4.3c-3,3.3-6.2,6.5-9.5,9.5
		c-8.1,7.4-16.4,14.6-24.5,22.1c-4.3,4-9.1,5.8-14.9,5.8c-56-0.1-111.9,0-167.9-0.1c-1.7,0-3.5-0.3-5.2-0.4
		C1530.6,99.8,1530.1,99.1,1529.5,98.3z"/>
</g>
</svg>
