<?xml version="1.0" encoding="utf-8"?>
<!-- Generator: Adobe Illustrator 19.0.0, SVG Export Plug-In . SVG Version: 6.00 Build 0)  -->
<svg version="1.1"
	 id="svg14" xmlns:svg="http://www.w3.org/2000/svg" xmlns:cc="http://creativecommons.org/ns#" xmlns:dc="http://purl.org/dc/elements/1.1/" xmlns:rdf="http://www.w3.org/1999/02/22-rdf-syntax-ns#"
	 xmlns="http://www.w3.org/2000/svg" xmlns:xlink="http://www.w3.org/1999/xlink" x="0px" y="0px" viewBox="82.7 251 777.3 292.7"
	 style="enable-background:new 82.7 251 777.3 292.7;" xml:space="preserve">
<style type="text/css">
	.st0{fill:none;stroke:#FFFFFF;stroke-width:3;stroke-miterlimit:10;}
	.st1{fill:#FFFFFF;}
</style>
<g id="Layer1000" transform="translate(-24.0945,-157.796)">
	<path id="path2" class="st0" d="M477,492l-5.7,14.6h5.2l5.8-14.6H477z M708.5,571.7c-4,10.4-11.2,19.7-20,26.4
		c-8.8,6.7-19.2,10.8-29.9,10.8h-33.7c-10.6,0-20.8-4.3-26.7-13.4c-6.3-9.6-5.9-21.3-1.9-31.7l11.6-29.8c-2.7-1.6-4.7-4.3-5.3-7.6
		h-21.9l-24.3,62.3c2,2.9,4.9,4,4.9,9.2c0,2.6-0.9,5-2.5,6.9c7.5,1.9,14.8,4,22.1,6.2c18.5,5.5,37.2,11,58.3,11c8.4,0,19.8-2,30.8-7
		c8.5-3.8,16.7-9.4,23-17.1l57.2-69.7l-9.9-38.1L708.5,571.7z M629.2,479.3c1.1-2.8,2.5-5.5,4-8c-3.3-1.4-5.9-4.3-6.6-8h-21.2
		l-6.1,15.8h27.6C627.6,479,629,479.2,629.2,479.3L629.2,479.3z M653.1,450.6c7.8-5,16.7-7.9,25.7-7.9h20.7h13h10.6h58.8
		c6,0,10.2,3.8,10.2,9.8c0,3.5-1.7,6.4-4.1,8.6c-1.5,1.4-2.1,2.2-1.6,4.3l3.7,14.3l30.3-36.9h48.9c6,0,10.9,4.9,10.9,10.9
		c0,4.6-3.8,8.3-7.8,10.2c-4,1.8-8,6.2-10.8,9.5c-18.3,22.3-37,44.4-55.6,66.5l29,111.4l-51.4,0c-6,0-10.9-4.9-10.9-10.9
		c0-3.2,1.3-6,3.5-8l-0.1,0c0,0,0,0,0,0c0.3-1.2,0.3-2.4,0.1-3.1l-10.7-40.9l-45,53.8c-11.4,13.6-28.1,27.4-49.9,36
		c-17.1,6.8-37.4,10.9-60.7,10.9c-32.7,0-59.4-7.2-84.1-13.8c-20.1-5.4-38.7-9.4-57.4-9.4c-9.7,0-18.2,1-26.7,3.1
		c-8.7,2.2-41.2,13.2-62.8,25.9c6.7-9.6,14.8-20.6,23.7-31.4c17.5-21.2,32.5-37.4,51.3-47.6c5.7-3.1,11.4-5.6,17.2-7.8
		c-2.4-1-4.4-2.9-5.6-5.5L449,565.4l-8.9,21.2c-0.5,1.2,0.3,2.8,0.9,4c1.3,2.3,3.9,4.6,3.9,7.4c0,6-4.9,10.9-10.9,10.9h-76v0
		c-4,0-7.8-2.2-9.7-6c-2.7-5.4-0.5-11.9,4.8-14.6c0.6-0.3,0.8-2,0.8-2.4l0.6-8.2h-20.9l-16.4,25.5c-1.9,3.4-5.4,5.6-9.5,5.6H115.1
		l20.4-52.4c1-2.5,3.8-6.1,6.5-7.2c6.5-2.7,10.9,1.1,13.5,6.6c0.5,1,1.5,1.2,2.4,1.2h18.4c3.7,0,6.4-1.4,8-4.9l6.2-13.8
		c1.3-3-1.3-8.6-2.5-11.3l-13.5-30.5c-2.4-5.3-3.5-11.3-3.6-17.3c-0.1-6.1,1-12.2,3.1-17.6c1.7-4.4,3.6-8.9,5.9-13.5
		c2.2-4.5,4.6-9.1,7.3-13.8c3-5.1,6.6-9.8,11.8-13.3c5.4-3.7,12-5.9,20.7-5.9h66.5L275,443.8l81.1,0l-11.3,29.3l19.7-29.3H410
		c4.5,0,6.9,3.7,7.4,4.7c2.8,5.3,0.8,11.9-4.6,14.7c-1.1,0.6-1.1,1.2-1.2,2.2l-3.9,70l28.4-72.7c-2.2-2-4.5-4.9-4.5-8.1
		c0-6,4.9-10.9,10.9-10.9H511c10.3,0,20.9,3.1,26.5,12.1c6.1,9.8,4.3,22.7,0.3,33l-12.3,31.5c-3.8,9.8-9,18.2-15.9,24.2
		c-4,3.5-5.5,5.5-14.3,5.8l11.9,24.5l54.6-139.8c0.9-2.2-5-3.5-5-9.6c0-6,4.1-9.8,11.8-9.8h98.2L653.1,450.6z M653.1,556.9h7.2
		l25.6-65.6h-7.2L653.1,556.9z M288.6,556.7l38.3-57c-4,0.2-6.9-2.7-8.4-8h-4.6L288.6,556.7z M244.6,465.2h-18.9l-3.6,9
		c-0.5,1.3-0.7,3.3-0.1,4.6l16.9,37.6c2.2,4.9,3.4,10.3,3.8,15.8c0.2,3.1,0.1,6.1-0.3,9.2l18.6-47.8c-2.8,1.2-5.5,2.9-7.9,4.5l0,0
		c-2.9,2-6.7,2.6-10.2,1.2c-5.6-2.2-8.4-8.5-6.2-14.1L244.6,465.2z"/>
	<path id="path11" class="st1" d="M226.9,454.3h33.7l11-28.3h-51.9c-12.6,0-18.6,6-23.1,13.8c-5.1,8.9-9.3,17.4-12.4,25.8
		c-3.2,8.3-3.3,18.5,0.3,26.6l13.5,30.5c2.7,6.2,5.3,14,2.5,20.2l-6.2,13.8c-1.5,3.4-6.4,11.3-17.9,11.3h-19.7
		c-8.6,0-9.8-5.1-10.9-7.5L131,598h55.5c10.8,0,23.9-8.3,29.7-17.4c6.8-10.8,12.1-22.5,15.7-35.1c2.3-7.9,1.9-17.2-1.5-24.7
		l-16.9-37.6c-1.8-4-1.7-9-0.1-13.1l4.3-10.8C219.5,454.9,222.8,454.3,226.9,454.3L226.9,454.3z M708.1,640.3
		c-18.4,22-51.6,38.8-97.9,38.8c-58.3,0-98.2-24.3-141.7-24.3c-21.2,0-37.4,4.5-58.7,14.5c31.6-42.1,70.4-58.9,109-58.9
		c43,0,75.7,22.6,120.3,22.6c17.3,0,45.1-7.2,62.2-28l60.8-74l-20.2-77.4h40.1c-2.6,2.3-7.2,8.3-5.7,14l9.1,35l40.3-49.1h43
		c-4.4,2.1-10.5,7.1-15.2,12.8l-59.1,70.7l26.9,103.2h-37.3c3.5-2.9,4.1-9.9,3-13.8l-16-61.3L708.1,640.3z M700.3,567.8
		c-6.5,16.6-23.1,30.2-39.7,30.2h-35.6c-16.6,0-25-13.6-18.5-30.2l32.7-84c6.5-16.6,23.1-30.2,39.7-30.2h35.6
		c16.6,0,25,13.6,18.5,30.2L700.3,567.8z M638.9,567.8h28.9l34.1-87.4H673L638.9,567.8z M510.3,598H549c-4.1-2.7-4.1-7.6-2.7-11.3
		l27.2-69.8h29.2c4.8,0,9.7,2.8,10,9.1l14.1-36.1h-42.8l14.1-36.2h29.3c4.8,0,9.6,2.7,10,8.8l14-35.9h-85c4.3,2.2,5.4,6.8,4.1,10.4
		L509.8,593c-0.6,1.4-1.3,2.5-2.3,3.3c-0.6-0.6-1.1-1.2-1.4-1.8l-24.7-51.1l2.1,0.1c16.6,0.7,26.9-10.4,33.4-27l12.3-31.5
		c6.5-16.6,0.1-30.2-16.6-30.2h-69.3c2.6,1.8,5,6.4,3.3,10.8l-50.1,128.3c-0.4,1-1,1.9-1.6,2.5c-1-1-1.5-2.1-1.4-3.3l7-127.8
		c0.2-3.2,2-7.8,7-10.5h-7.9h-25.8h-4.7l-91,135.3c-2.3,3.5-5.9,7-9.2,8h38.8l20-31.2h38.5l-1.3,19.8c-0.1,2.5-2,8.9-6.8,11.4h33.7
		h6.4h34c-3.4-2.2-3.7-7.6-2.5-10.6l18.5-47.5l26.3,58.1h29.6L510.3,598L510.3,598z M457,517.5l14.2-36.4h18.7c3.2,0,7,3.6,5.3,8
		l-8.6,21.8c-1.4,3.6-5.6,6.6-9.5,6.6H457z M343.3,542.5l27.5-42.8l-2.9,42.8H343.3z M222.7,598h41c-1.4-4.1,0.9-7.6,2.1-10.6
		l41.6-106.6h12.5c5.9,0,7.6,3.4,8.7,6.6l12.8-32.7h-80.9L247,489.1c5.9-4.1,13.6-8.3,21.2-8.3h9.5l-40.5,103.9
		C235.6,588.8,230.2,595.2,222.7,598L222.7,598z"/>
</g>
</svg>
