<?xml version="1.0" encoding="utf-8"?>
<!-- Generator: Adobe Illustrator 19.0.0, SVG Export Plug-In . SVG Version: 6.00 Build 0)  -->
<svg version="1.1"
	 id="Layer_1" xmlns:inkscape="http://www.inkscape.org/namespaces/inkscape" xmlns:sodipodi="http://sodipodi.sourceforge.net/DTD/sodipodi-0.dtd" xmlns:svg="http://www.w3.org/2000/svg" sodipodi:docname="Star_Wars_Logo.svg" inkscape:version="0.48.4 r9939" xmlns:cc="http://creativecommons.org/ns#" xmlns:dc="http://purl.org/dc/elements/1.1/" xmlns:rdf="http://www.w3.org/1999/02/22-rdf-syntax-ns#"
	 xmlns="http://www.w3.org/2000/svg" xmlns:xlink="http://www.w3.org/1999/xlink" x="0px" y="0px" viewBox="11 261.6 634.1 271.4"
	 style="enable-background:new 11 261.6 634.1 271.4;" xml:space="preserve">
<style type="text/css">
	.st0{fill:#FFFFFF;}
</style>
<g id="Layer_2" transform="translate(-29.908,-73.916003)">
	<g id="g7">
		<path id="path9" inkscape:connector-curvature="0" class="st0" d="M159.7,482.8l8.7,25.5c4.7,13.8,8.9,24.8,9.4,24.8c0,0,0,0,0,0
			c0.6-0.5,17.6-49.8,17.6-49.8h32.9l-39.7,115.6h-22.9c0,0-24.4-70.5-24.3-70.7L116,598H93.4L54.2,482.8l32.7,0
			c0,0,17.9,50.8,18.2,50.8c0,0,0,0,0,0l17.9-50.8L159.7,482.8 M43,474.8l3.6,10.6l39.2,115.1l1.8,5.4h5.7H116h5.6l1.9-5.3
			l17.7-48.5c1.5,4.4,3.2,9.2,4.8,14c6.1,17.7,12.2,35.3,12.2,35.3l1.9,5.4h5.7h22.9h5.7l1.9-5.4l39.7-115.6l3.6-10.6h-11.2h-32.9
			h-5.7l-1.9,5.4c-3,8.6-6.9,20-10.3,29.7c-0.5-1.5-1-3-1.6-4.6l-8.7-25.5l-1.8-5.4h-5.7H123h-5.7l-1.9,5.3L105,509.9
			c-3.5-9.7-7.5-21-10.5-29.7l-1.9-5.3l-5.7,0l-32.7,0L43,474.8L43,474.8L43,474.8z"/>
	</g>
	<g id="g11">
		<path id="path13" inkscape:connector-curvature="0" class="st0" d="M666.3,482.4l-0.1,30.3c0,0-32.6-0.1-49.2-0.1
			c-5.5,0-9.3,0-9.4,0c-2.9,0.5-4.7,6.6-3.9,9.3c0.4,1.3,3.4,5.8,6.6,9.8c3.2,4.1,8.5,10.7,11.8,14.7c8.3,10.4,9.5,12.4,10.2,18.4
			c1.3,9.7-3.3,20.2-11.8,27.1c-8.5,6.9-8.1,7-71.4,7c-0.9,0-1.8,0-2.8,0c-38.5,0-58.8-0.3-61.8-1c-5.3-1.2-13.6-8-35.8-29.3
			c-8-7.6-15.3-14.3-15.7-14.3c0,0,0,0,0,0l-0.3,44.6l-35.9-0.2l-0.2-115h45.3h34.8c24.1,0.9,40.5,24.9,37.2,40.2
			c-0.7,3.5-2.6,8.5-4.2,11.2c-3.2,5.5-11.4,12.6-18,15.6c-2.4,1.1-4.4,2.4-4.4,2.9c0,1.7,8.1,9.6,11.1,10.9
			c2.6,1.1,10.1,1.3,43.2,1.3c3.9,0,7.4,0,10.6,0c33.3,0,31.6-0.2,34.2-5.7c1.8-3.8,0.4-6.1-12.2-20.4c-16.1-16-14.4-23.6-14.5-29.3
			c-0.2-6.8,5.1-28.1,32.8-28.1L666.3,482.4 M451.2,535.5c15.4,0,18.5-0.2,21.8-1.7c11-4.8,11.6-19,1-25.3c-2.3-1.4-5.3-1.6-22-1.7
			l-19.3-0.1c0.2,0.1-0.1,27.6-0.1,27.6S437.5,535.5,451.2,535.5 M674.3,474.4h-8h-73.8c-16,0-25.5,6.3-30.6,11.6
			c-8.3,8.6-10.3,19.5-10.2,24.6c0,0.4,0,0.9,0,1.3c-0.1,8.3,1.2,17.8,16.7,33.2c3.1,3.5,8.2,9.2,10.1,12.1
			c-4.2,0.5-15,0.5-26.3,0.5h-4.8l-5.8,0c-19.9,0-36.7-0.1-40.1-0.7c-0.5-0.3-1.2-0.9-1.9-1.5c6.9-4.2,13.8-10.8,17.1-16.4
			c2-3.4,4.2-9.2,5.1-13.6c2-9.6-1.3-21.2-9-31.1c-9-11.5-22-18.3-35.7-18.8l-0.1,0h-0.1h-34.8h-45.3h-8l0,8l0.2,115l0,7.9l7.9,0
			l35.9,0.2l8,0l0-8l0.2-26.7c0.7,0.7,1.5,1.4,2.3,2.2c24.2,23.2,32.4,29.7,39.6,31.3c2,0.4,5.3,1.2,63.5,1.2h2.8
			c31.5,0,47.4,0,56.8-0.9c10.8-1,14.3-3.5,19.5-7.7l0.2-0.1c10.7-8.7,16.3-21.8,14.7-34.3c-1-8.1-3.2-11.5-11.9-22.4l-2.6-3.2
			c-3-3.8-6.7-8.4-9.2-11.5c-2-2.5-3.5-4.7-4.5-6.1c1.2,0,2.8,0,4.9,0c16.4,0,48.9,0.1,49.2,0.1l8,0l0-8l0.1-30.3L674.3,474.4
			L674.3,474.4L674.3,474.4z M440.7,527.2c0-2,0-4.3,0-6.6c0-2,0-4,0-5.8l11.2,0.1c6.4,0,16.1,0.1,18,0.6c2.4,1.5,3.8,3.7,3.6,6.1
			c-0.1,1.3-0.7,3.6-3.8,5c-1.8,0.8-4.5,1-18.6,1C446.7,527.5,443.3,527.4,440.7,527.2L440.7,527.2z"/>
	</g>
	<g id="g15">
		<path id="path17" inkscape:connector-curvature="0" class="st0" d="M323.9,481.9l40.3,115.9l-32.8,0.1l-5.5-17.4l-58.7-0.5
			l-5.2,17.4l-32.5-0.3L269.3,482L323.9,481.9 M297.5,498.9c-0.1,0.3-5.1,14.2-10.2,28.1c-5.1,14-10.3,28-10.3,28.1c0,0,0,0,0,0l0,0
			c0,0,0,0,0,0c0.1,0,18.3-0.1,30-0.1c5.5,0,9.5,0,9.5,0c0,0,0,0,0,0s0,0,0,0c0,0,0,0,0,0C316.3,554.5,297.6,499.6,297.5,498.9
			C297.5,498.9,297.5,498.9,297.5,498.9L297.5,498.9C297.5,498.9,297.5,498.9,297.5,498.9 M329.6,473.9l-5.7,0l-54.6,0.1l-5.7,0
			l-1.9,5.4L222,594.6l-3.6,10.5l11.1,0.1l32.5,0.3l6,0.1l1.7-5.8l3.5-11.7l46.9,0.4l3.7,11.8l1.8,5.6l5.9,0l32.8-0.1l11.2-0.1
			l-3.7-10.6l-40.3-115.9L329.6,473.9L329.6,473.9L329.6,473.9z M288.5,547.1c1.5-4.1,3.6-9.7,6.3-17.3c0.9-2.4,1.7-4.6,2.4-6.5
			c0.7,2,1.4,4.1,2.2,6.4c0.6,1.9,3.5,10.3,5.9,17.4C298,547,292.6,547.1,288.5,547.1L288.5,547.1L288.5,547.1z"/>
	</g>
	<g id="g19">
		<path id="path21" inkscape:connector-curvature="0" class="st0" d="M337.5,343.6v28.6h-57.3v87.5h-34.1v-87.5l-66.9,0.2
			c-8.1,0-9.1,6.4-9.1,8.9c0,3,2,6,12.8,19.7c7,8.9,13.5,17.8,14.3,19.7c4.6,10.7-1.4,27.3-12.3,34.1c-7.8,4.8-6.5,4.9-64.3,4.9
			c-3,0-6.1,0-9.4,0H48.9v-32.1h97.9l2.9-2c1.9-1.4,3.1-3.2,3.5-5.8c0.6-3.7,0.3-4.2-11.8-17.8c-14.3-16.1-15.8-19-15.1-29.3
			c0.8-11.7,11.3-28.8,29.6-28.8L337.5,343.6 M345.5,335.6l-8,0l-181.6,0.3c-10.5,0-20.2,4.5-27.3,12.7c-5.8,6.7-9.6,15.4-10.2,23.5
			c-1,13.5,2.1,18.4,17.1,35.2c4.3,4.9,8.4,9.5,9.8,11.5c0,0.1,0,0.1-0.1,0.2c0,0,0,0-0.1,0.1l-0.8,0.6H48.9h-8v8v32.1v8h8h62.3h4.9
			h4.5c28.5,0,42.6,0,50.9-0.6c9.5-0.7,12.5-2.3,17.1-5.1l0.6-0.4c14.3-8.8,21.6-29.8,15.4-44.1c-1.9-4.4-14-19.7-15.4-21.5
			c-3.8-4.8-10.1-12.7-11.1-15c0-0.2,0.1-0.4,0.1-0.5c0.2,0,0.5-0.1,1-0.1l58.9-0.2v79.5v8h8h34.2h8v-8v-79.5h49.3h8v-8v-28.6V335.6
			L345.5,335.6L345.5,335.6z"/>
	</g>
	<g id="g23">
		<path id="path25" inkscape:connector-curvature="0" class="st0" d="M430.5,344.5l40.2,116.2l-32.8-0.2l-5.3-17.4l-58.4-0.3
			l-5.2,16.8h-33.4l39.7-115.1H430.5 M383.7,418.1l39.8,0c0,0,0,0,0,0c0.1,0-19.3-57.2-19.5-57.2l0,0
			C403.9,360.8,383.3,418.1,383.7,418.1 M436.2,336.5h-5.7h-55.2h-5.7l-1.9,5.4L328,457l-3.7,10.6h11.2H369h5.9l1.8-5.6l3.5-11.1
			l46.6,0.2l3.6,11.8l1.7,5.6l5.9,0l32.8,0.2l11.3,0.1l-3.7-10.7l-40.2-116.2L436.2,336.5L436.2,336.5z M394.9,410.1
			c2.5-7,5.9-16.7,9-25.3c2.9,8.6,6.2,18.2,8.6,25.3L394.9,410.1L394.9,410.1L394.9,410.1z"/>
	</g>
	<g id="g27">
		<path id="path29" inkscape:connector-curvature="0" class="st0" d="M543.4,344.5c25.9,0,43.9,0.4,47.4,1c8,1.4,15.2,5.7,20.7,12.2
			c5.7,6.9,7,10.1,7.7,19.5c1.1,13.3-5.3,24.7-17.7,32.1c-3.6,2.2-7.4,4.3-8.3,4.7c-1.4,0.6-1.2,1.3,1.3,4.3
			c1.6,1.9,4.5,4.7,6.3,6.1l3.4,2.6l62.1,0.9l0.6,31.7h-38.1c-29.4,0-38.9-0.3-41.6-1.2c-4.1-1.4-14.1-9.8-34.3-29l-14.4-13.7
			l0.2,44h-37V344.5H543.4 M537.9,396.3h19.7c19.1,0,19.7-0.1,22.5-2.1c4.9-3.7,6.6-7.4,6.1-13.2c-0.5-6-2.8-9.1-8.6-11.6
			c-3.3-1.4-6.4-1.6-21.7-1.6h-17.9V396.3 M543.4,336.5h-41.8h-8v8v115.1v8h8h37h8l0-8l-0.1-25.2l0.8,0.8
			c25,23.8,32.4,29.2,37.2,30.8c3.7,1.3,10,1.6,44.2,1.6h38.1h8.2l-0.2-8.2l-0.6-31.7l-0.1-7.7l-7.7-0.1l-59.4-0.9l-1.2-1
			c-0.4-0.3-0.9-0.7-1.4-1.2c0.4-0.3,0.9-0.5,1.2-0.7c15-9,22.9-23.4,21.6-39.7c-0.9-11-2.8-15.9-9.5-24c-6.6-8-15.6-13.3-25.4-15
			C586.7,336.6,559.3,336.5,543.4,336.5L543.4,336.5L543.4,336.5z M545.9,375.7h9.9c14,0,16.8,0.2,18.5,1c3.3,1.4,3.6,2.1,3.8,5
			c0.3,2.8-0.1,4-2.9,6.1c-0.1,0.1-0.2,0.1-0.2,0.2c-1.9,0.3-8.8,0.3-17.4,0.3h-11.7L545.9,375.7
			C545.9,375.7,545.9,375.7,545.9,375.7z"/>
	</g>
</g>
</svg>
