<?xml version="1.0" encoding="utf-8"?>
<!-- Generator: Adobe Illustrator 19.0.0, SVG Export Plug-In . SVG Version: 6.00 Build 0)  -->
<svg version="1.1" id="Layer_1" xmlns="http://www.w3.org/2000/svg" xmlns:xlink="http://www.w3.org/1999/xlink" x="0px" y="0px"
	 viewBox="0 0 777.9 198.9" style="enable-background:new 0 0 777.9 198.9;" xml:space="preserve">
<style type="text/css">
	.st0{fill:#FFFFFF;}
</style>
<g>
	<path class="st0" d="M326,19.2c-3.3-1.7-6.2-1.3-8.9-1c-3.8,0.3-7.5,1-11.3,1.7c-8.2,1.5-14.8,5.7-19.7,13.3c0-10.5,0-20.4,0-30.7
		c34.4-1.1,68.8,1.3,103.5,0.5c0,10.4,0,20.3,0,30.4c-0.1,0-0.4,0-0.4-0.1c-3.9-9.5-12.2-12.6-21.4-14.1c-4.2-0.7-8.6-0.7-12.9-0.9
		c-1.1-0.1-2.2,0.3-3.6,0.5c-0.2,1.3-0.5,2.4-0.4,3.5c0,30.5,0.1,61,0.1,91.5c0,19.3,0,38.7,0.1,58c0,3.6,0.5,7.3,1,10.9
		c0.2,1.4,1,2.8,1.7,4.1c2.1,4,5.5,6.1,9.2,5.4c4.1-0.7,6.9-3.2,8.2-7.1c0.6-1.7,0.8-3.6,0.8-5.4c0.1-40,0.1-80,0.2-120
		c0-7-2.7-12.2-8.5-15.9c-0.5-0.3-0.9-0.8-2-1.8c1.7,0,2.7,0,3.7,0c12.7,0,25.3,0.1,38,0.1c8.9,0,17.5,1.7,25.6,5.2
		c8.1,3.6,14.7,9,17.2,18.2c3.1,11.5,1.6,22.4-4.4,32.6c-2.6,4.4-6.9,7.1-11,10c-1.6,1.1-3.2,2.3-4.9,3.4c0.5,2.1,0.8,4.1,1.4,5.9
		c6.1,18.6,12.4,37.2,21.6,54.6c4.3,8.1,9.1,15.8,16.2,22.8c-12.6,0.4-23.9-1.2-32.9-10.4c-4.1-4.3-6.5-9.7-8.7-15
		c-7.6-18.8-15-37.6-22.5-56.6c1-0.9,1.8-1.8,2.7-2.4c2.1-1.6,4.3-3.2,6.5-4.6c5.9-3.8,9.3-9.2,11.2-15.9c2-7,2.7-14,0.5-21.1
		c-2.4-7.8-8.1-12.4-15.6-14.8c-4.4-1.4-4.5-1.2-9.1-0.6c-0.1,1.2-0.3,2.5-0.3,3.8c0,39.8,0,79.7,0,119.5c0,2.3,0,4.7,0.5,6.9
		c1,4.8,3.9,8.3,8.9,11.4c-4,0-7.3,0-10.6,0c-27.8,0-55.7-0.1-83.5-0.1c-7.5,0-13.7-2.4-19-8.1c-9.5-10.3-16.9-21.7-22.6-34.4
		c-5.6-12.6-9.3-25.9-13.3-39.1c-0.2-0.8-0.1-1.6-0.2-2.2c4.2-2.8,8.4-5.2,12.1-8.2c8.9-7.2,12.5-16.5,10.2-27.9
		c-0.7-3.6-1.4-7.3-2.9-10.5c-3.4-7.3-10-10.4-17.5-11.6c-1.8-0.3-3.6,0-5.8,0c-0.2,1.2-0.5,2.3-0.5,3.4c0,37.3,0.1,74.7,0.2,112
		c0,4.3,0.2,8.6,0.9,12.9c0.8,5.3,2.3,10.4,6.7,14.2c-4.3,0.9-59.2,1.2-69.1,0.4c7.7-6.2,8.7-14.2,6.9-23.1
		c-2.2-11.2-4.2-22.4-6.3-33.7c-2.2-11.9-4.6-23.7-6.7-35.6c-2.2-11.9-4.2-23.8-6.4-35.7c-0.9-4.8-2.1-9.6-3.9-14.5
		c-1.1,5-2.2,10-3.1,15c-2,10.2-4,20.5-5.8,30.7c-2.2,12-4.2,24.1-6.3,36.2c-1.5,8.5-3.2,16.9-4.6,25.4c-1,5.7-1.8,11.4-2.3,17.2
		c-0.5,6.6,0.9,12.8,6,18.1c-22.5,0-44.4,0-66.9,0c6.8-4.3,8-10.9,9-17.4c0.7-4.9,0.9-9.9,0.9-14.9c0-4-0.7-7.9-0.7-11.9
		c-0.1-30.8,0-61.7,0-92.5c0-1.8,0-3.7,0-5.4c-8.2-3.8-23.4,4-28.8,17.6c0-10.1,0-20,0-30.1c41.7,0,83.1,0,125,0
		c10.5,48,20.3,96.1,30.5,144.2c0.1-1.6,0.3-3.2,0.3-4.8c0-40.2,0-80.3-0.1-120.5c0-7.5-2.8-13.8-9.8-17.9
		c13.6-1.3,26.9-1.8,40.2-1.1c7.4,0.4,14.9,1.3,22.1,3c11,2.7,19.1,9.3,22.6,20.4c1.8,5.7,2.1,11.6,1.1,17.7c-1,5.9-2.6,11.2-6,16.1
		c-3.1,4.4-7.6,6.9-11.9,9.7c-1.5,1-3,2-4.8,3.2c0.7,2.7,1.3,5.2,2,7.7c5.8,19,13.3,37.2,22.8,54.6c2.8,5.1,6,10,9.3,14.7
		c1.9,2.7,5,3,7.5,1.5c1.5-0.9,2.1-2.2,2.3-3.7c0.6-4.4,1.5-8.9,1.5-13.3c0.1-23.7,0.7-47.3-0.2-71c-1-26.5-0.1-52.9-0.7-79.4
		C326,21.6,326,20.5,326,19.2z M131.5,194.2c1-1.4,2-2.3,2.4-3.5c1.5-4.2,3-8.4,4-12.8c2.6-11.6,5.1-23.3,7.5-34.9
		c2.6-12.5,5.1-24.9,7.6-37.4c2.3-11.4,4.6-22.7,6.7-34.1c1.3-6.7,2.6-13.3,2.4-20.2c-0.2-5.2-2.8-8.2-8.8-9.2
		c-0.1,1.5-0.3,2.9-0.3,4.3c0,6.5,0,13,0,19.5c0,1.2-0.2,2.4-0.2,3.3c-2.7-3.4-5.1-7-8.1-10.1c-4.7-5.1-11.5-6.9-18.6-5.3
		c-0.4,6.4-1.1,12.9-1.1,19.3c0.3,23.5-0.7,46.9,0.6,70.4c0.7,12.3,0.2,24.7,0.2,37C125.9,185.6,127.5,190.1,131.5,194.2z"/>
	<path class="st0" d="M714.7,40.6c0.1,5.6,0.2,11.4,0.3,17.8c1.3-0.8,2-1.1,2.5-1.6c3.2-3.4,6.2-7,9.6-10.2c3.9-3.7,8.6-5.6,14-5.5
		c6.3,0,12.7,0.1,19,0.1c0.3,0,0.7-0.1,1,0c4.8,1.5,9.5,0.6,14-0.9c0.3,0.4,0.7,0.6,0.7,0.9c0.4,10.1,0.7,20.3,1,30.4c0,1,0,2,0,4
		c-1.2-2.4-2-3.8-2.7-5.2c-2.7-5.7-6.9-10.2-11.6-14.2c-4.8-4-10.4-4.4-16-2.2c-5.5,2.2-9.1,6.7-9.3,12.5c-0.2,5,0.3,10.2,2.4,15.1
		c6.6,15.2,15.2,29.1,25.9,41.8c5.3,6.2,10,13,11.6,21.2c0.8,4.4,0.7,8.9,0.9,13.4c0.5,13.3-5.7,23.1-16.2,30.8
		c-6.1,4.4-12.8,6.9-20.1,8c-4.3,0.7-8.6-0.5-12.8-1.3c-3.7-0.7-7.4-1.8-11-3c-1.7-0.6-3.1-0.4-4.7,0.4c-8.3,3.9-17,4.4-26.2,3.6
		c-8.2-0.7-14.7-4.3-20.2-9.7c-9.3-9.1-16.1-19.8-18.7-32.8c-3.1-15.3-3.7-30.7-2.7-46.1c0.7-11.4,2.6-22.7,6.5-33.5
		c4.6-12.6,12-22.8,23.5-30c8.1-5.1,16.7-6.2,25.8-4.6c2.3,0.4,4.5,1,6.8,1.2C710,41,712.2,40.7,714.7,40.6z M715.2,171.8
		c1.7,1,2.9,1.8,4.3,2.4c3.9,1.9,7.7,3.9,11.7,5.4c5.8,2.1,17.3-1.2,20.9-8.1c2.3-4.4,2.4-9,1.6-13.6c-1.3-6.9-3.8-13.4-7.9-19.2
		c-3.7-5.3-7.5-10.5-11.4-15.8c-5.6-7.6-11.5-15.1-15.7-23.6c-1.2-2.5-2.2-5.2-2.7-7.9c-1.2-6.3-2.5-12.7-2.8-19.1
		c-0.2-5-2.5-8.9-4.8-12.9c-2.2-3.8-5.7-5.8-10.4-5.5c-6.9,0.5-12.5,3.4-16.3,9.2c-4.8,7.3-7.5,15.6-8.8,24.1
		c-1.3,8.8-1.6,17.8-2,26.7c-0.2,5.8,0,11.6,0.5,17.4c0.5,6.1,1.1,12.2,2.3,18.2c1.9,10.2,5.7,19.4,13.5,26.6
		c8.4,7.7,17.7,5.5,24.2-0.2C712.9,174.8,713.9,173.3,715.2,171.8z"/>
	<path class="st0" d="M73.6,0c0,13,0,26.2,0,39.5c-2.7-4.1-5.2-8.2-8.1-12c-3.4-4.4-7.4-8-12.9-9.8c-4.7-1.6-9-0.6-12.7,2.1
		c-6,4.3-9.2,10.7-9.7,17.8c-0.2,3.4,1.4,7.1,2.7,10.5c2.1,5.5,5.5,10.2,9.3,14.7c6.1,7.3,12.4,14.3,18.4,21.6
		c9.4,11.5,18.1,23.4,22.8,37.8c2.1,6.3,3.2,12.8,3.5,19.5c0.1,3.5,0,7,0.1,10.5c0.4,7.9-1.8,15.1-5.6,21.9
		c-6.1,10.9-15,18.5-27,22.2c-6.8,2.1-13.8,2-20.8,1.4c-10-1-19.8-1.6-29.7,0.9c-1.1,0.3-2.2,0.2-3.7,0.4c-0.8-17.9,1.5-35.4,1-53
		c1.5,4,3,8,4.4,12C8,164.6,12,170.3,17.2,175c5.4,4.8,11.6,6.9,18.8,5.1C49.1,177,58.8,166.8,59,152c0.1-10.3-3.1-19.7-8.8-28.1
		c-4.3-6.3-9.2-12.2-14-18.2C30,98.1,23.3,90.9,18.1,82.6C11.8,72.7,6.9,62.3,3.8,50.9c-3.3-12-0.6-23,6.1-33.1
		c4.3-6.5,9.9-11.6,16.9-15.2C30.1,1,33.5,0.1,37.3,0c6.2,0,12.2,0.6,18.3,1.8c3.1,0.6,6.3,1.3,9.3,1C67.9,2.5,70.7,1,73.6,0z"/>
	<path class="st0" d="M449.6,126.6c0,0,0-0.1,0-0.1c0.2-13.5,1.7-26.8,4.2-40c1.1-5.8,2-11.7,3.1-17.6c1.1-5.6,3.6-10.7,6.4-15.6
		c4.2-7.3,11-11,18.7-13c7.6-2,15.2-1.6,22.3,1.9c2.9,1.4,5.9,3.2,8.2,5.5c7.9,8,13,17.5,15.1,28.6c1.2,6.5,1.7,13.1,2.3,19.7
		c0.6,6.5,0.9,12.9,0.6,19.4c-0.3,8.9-1.2,17.8-1.8,26.8c-0.5,8.3-1.9,16.5-4.3,24.4c-3.1,10.2-8.2,19.4-17.4,25.4
		c-6.9,4.5-14.6,5.5-22.9,4.4c-9-1.2-15.3-6.2-19.9-13.5c-5.2-8.1-9.9-16.6-11.8-26.2c-0.8-3.9-1.4-7.8-1.8-11.8
		C450.4,138.8,450.1,132.7,449.6,126.6z M474.9,122.3c-0.2,0-0.3,0-0.5,0c0.4,7.5,1,14.9,1.3,22.4c0.4,8.3,1.8,16.5,3.2,24.6
		c0.6,3.3,1.8,6.4,4,9c4.3,4.9,8.2,5.2,12.1,1.8c1.7-1.4,2.9-3.3,3.9-5.3c4.5-9.6,4.1-19.9,4.8-29.9c0.9-12.7,0.2-25.6,1-38.4
		c0.4-5.6-0.6-11.2-0.7-16.9c-0.1-8-1.3-15.8-3.1-23.6c-0.5-2.1-1.2-4.2-2.1-6.1c-3.1-6.4-11.4-6.5-14.8-1.8c-2.2,3-4.1,6.1-4.9,9.7
		c-0.7,2.8-0.9,5.7-1.2,8.6c-0.4,4-0.8,8.1-1.2,12.1c-0.6,7.1-1.4,14.2-1.8,21.3C474.6,113.9,474.9,118.1,474.9,122.3z"/>
	<path class="st0" d="M571.2,194.8c-14.9,0-29.9,0-45.8,0c6.3-2.5,9.4-6.6,10.4-12.2c0.7-3.9,1-7.9,1-11.9c0.1-35,0.1-69.9,0-104.9
		c0-3.6-0.6-7.2-1-10.9c-0.4-4.3-2.9-7.3-6.3-9.6c-1.4-0.9-2.8-1.9-4.6-3.1c1.3-0.1,2.1-0.2,2.9-0.2c14,0,28-0.1,42,0.1
		c3.8,0.1,7.7,0.5,11.3,1.6c15,4.4,23.4,14.9,26.7,29.8c1.3,5.9,1.4,11.9,1.1,17.8c-0.1,1.8-0.5,3.6-1.1,5.3
		c-2.6,7.4-5.1,14.7-11.3,20.2c-8.1,7.1-17.4,10-28.1,8.8c-1.1-0.1-2.1-0.7-3.5-1.2c3-2.1,5.9-3.7,8.4-5.9c2.1-1.8,4.2-4,5.3-6.4
		c5.5-11.5,7.8-23.5,5.4-36.3c-0.5-2.6-0.5-5.3-1.3-7.8c-2.7-9-9.1-13.9-18.3-15.4c-0.8-0.1-1.6-0.3-2.4-0.4
		c-1.5,0.9-1.3,2.3-1.3,3.6c0,5.5-0.1,11-0.1,16.5c0,31.8,0,63.6,0.1,95.4c0,4.6,0.2,9.3,1,13.9c0.5,2.6,2,5.2,3.6,7.5
		C567.1,191.4,569.3,192.9,571.2,194.8z"/>
	<path class="st0" d="M604.3,194.8c0.4-0.3,0.6-0.6,0.9-0.7c6.9-2.2,8.4-7.6,8.9-14c1.3-18.1,1.2-36.3,0.7-54.4
		c-0.6-20.8-0.7-41.6-0.9-62.4c0-3.4-0.7-6.9-1.4-10.3c-0.9-4.3-2.8-8.2-7.4-10.3c4-0.9,36.6-1,42.4-0.3c-0.1,0.1-0.1,0.3-0.2,0.4
		c-7.2,4.1-9.3,10.8-9.3,18.5c0,34,0,68,0.1,102c0,5.1,0.3,10.3,0.9,15.4c0.6,5,2.5,9.6,7.1,12.6c1.5,1,2.9,2.2,4.6,3.6
		C635,194.8,619.8,194.8,604.3,194.8z"/>
	<path class="st0" d="M174.7,170.1c-8.8,0.8-16.2-7.6-16-16.5c0.2-7.8,5.2-15.5,16.2-16.1c8.9-0.5,17.5,8.2,16.7,16.9
		C190.8,164.1,184.1,170.8,174.7,170.1z"/>
</g>
</svg>
