<?xml version="1.0" encoding="utf-8"?>
<!-- Generator: Adobe Illustrator 19.0.0, SVG Export Plug-In . SVG Version: 6.00 Build 0)  -->
<svg version="1.1" id="Layer_1" xmlns="http://www.w3.org/2000/svg" xmlns:xlink="http://www.w3.org/1999/xlink" x="0px" y="0px"
	 viewBox="0 0 2523.9 953.1" style="enable-background:new 0 0 2523.9 953.1;" xml:space="preserve">
<style type="text/css">
	.st0{fill:#FFFFFF;}
</style>
<g>
	<path class="st0" d="M287.1,24.2c13.8,2.4,37.7,6.3,61.4,10.8c8.1,1.5,15.8,5.2,23.9,6.7c3.8,0.7,8.5-0.9,12.3-2.5
		c31.1-12.8,63.6-20.4,96.8-23c33.6-2.7,67.7-4.7,101.2-2.2c33.6,2.4,67.1,8.6,99,21.5c21.7,8.8,43.6,16.8,63.1,30
		c1.9,1.3,6.2,0.3,8.7-0.9c11.3-5.5,21.9-12.9,33.6-17.1c20.1-7.1,41-9.8,62.4-6.2c7.5,1.3,15.5,0.9,22.7,3.2
		c13.7,4.3,27.3,9.2,40.1,15.5c7.8,3.8,12.5,0.3,18.2-2.8c27.5-15,55.9-27.4,86.4-35.2c29.5-7.6,59.2-12.6,89.6-12.5
		c19.8,0,39.6-1.1,59.2,0.6c25.1,2.2,50,6.6,74.9,10.4c10.7,1.7,21.1,6,31.7,6.2c9.7,0.1,19.9-2.7,29.2-6.2
		c26.8-9.9,53.8-18,82.6-19.7c30.5-1.8,60.9-0.9,90.4,7c26.7,7.2,52.3,17.6,75.7,32.6c7.6,4.8,13.4,0.1,19.9-1.5
		c18.8-4.6,37.5-9.7,56.3-14.2c32.3-7.7,65.3-7.8,97.9-5.4c23,1.7,46,7.2,68.3,13.6c16.7,4.8,32.3,13.7,48.4,20.5
		c2.2,0.9,5.6,1.2,7.6,0.1c28.5-14.9,58.8-16.8,89.8-12.3c11.5,1.7,22.7,5,34.2,6.4c4.7,0.6,10.4-1.1,14.6-3.5
		c21.8-12.8,44.8-22.2,69.3-28.6c27.9-7.2,56.2-7.3,84.4-4.9c23.2,2,46.3,6.8,66.6,19.2c10.9,6.7,19.9,2.4,29.8-0.4
		c5.3-1.5,10.5-3.4,15.9-4c27.1-3,54.1-4.4,80.4,5.3c19.1,7,35.8,17.3,50.8,31.5c21.9,20.7,35.6,46.2,44.4,74.1
		c5.1,16.4,7,34.3,6.9,51.6c0,25.9-5.7,51.2-16.8,74.9c-5.3,11.2-12.1,21.8-18.4,32.5c-2.7,4.6-1.9,6.5,3.3,8.1
		c43,12.8,74.7,39.6,97.5,78.1c12.3,20.8,20,43,21.2,66.8c1.2,24.3,2.1,49-0.6,73.1c-3.6,31.9-11.1,63.8-35.4,87.1
		c-16.6,15.9-20.8,36.6-28,56.1c-14.7,39.8-30.9,78.9-53,115.2c-16.7,27.5-32.4,55.8-56.3,78.2c-23.2,21.7-49.7,38.4-79.8,48.9
		c-17,6-34.1,11.9-51.5,16.7c-9.4,2.6-19.4,3.7-29.1,3.9c-28.6,0.4-56.8-2.9-84.2-11.2c-28.2-8.6-54-22.2-78.3-38.7
		c-5-3.4-9-8.4-14.1-11.8c-1.9-1.2-6.7-0.9-8.2,0.6c-20,20.6-44.6,34-70.3,45.5c-39.6,17.7-81.5,21.4-123.5,15
		c-21-3.2-41.1-13.3-61.1-21.5c-10.2-4.2-19.1-11.4-28.9-16.6c-2.7-1.4-7.3-1.6-10-0.3c-21.4,11.1-43.5,20.5-67.3,23.9
		c-22.2,3.2-44.7,5.4-67,0.5c-17.8-3.9-35.4-8.6-53.2-12.5c-4.1-0.9-8.9-1-12.8,0.4c-21.3,7.8-43.2,11.5-65.7,13.4
		c-26.6,2.3-52.9-1.2-78.9-5.2c-17.2-2.6-33.9-10.6-50-17.7c-8.3-3.7-15.1-4.9-23.4-1.1c-24.3,11.2-50.4,15.1-76.8,15.4
		c-17.8,0.2-35.6-3.4-53.5-4.4c-5.5-0.3-12.2,0.7-16.7,3.7c-22.9,15.5-48.2,24.5-75,29.2c-19.1,3.4-38.4,6.5-57.7,7.1
		c-22,0.7-43.8-2.4-65.2-9.2c-25.2-8-47.5-21.1-69.1-35.7c-8.5-5.8-15.7-13.7-23-21.1c-3.8-3.9-6.5-4.2-10.3-0.3
		c-17.3,17.9-37.4,32.3-59.8,42.6c-21.3,9.8-43.1,18.9-67.9,17c-19.4-1.5-39.1,0.3-58.6-0.8c-18.5-1.1-36.1-7.3-52.3-16.3
		c-17.7-9.8-34.5-21-52-31.1c-2.3-1.3-7.2-1.3-8.9,0.2c-23.1,21.1-50.6,34.9-79.2,46.2c-27.5,10.9-56.2,18.7-86.2,19.3
		c-31.9,0.6-64,2.6-95.7,0.4c-35.6-2.4-69.4-12.1-101.6-29.2c-48.1-25.5-78.9-64.9-98.4-114.1c-6.3-16-9.8-33.3-13-50.4
		c-2.8-15.3-2.7-31.1-5.1-46.5c-0.9-5.7-5.5-10.7-8.3-16.1c-12-22.9-25.6-45.2-35.5-69c-10.1-24.6-11-51.3-10.8-77.9
		c0.4-38.8,8.1-76,22.4-111.8c19.8-49.7,53.5-87.5,99.6-114.4c4.7-2.8,9.4-5.8,13.4-9.5c1.2-1.1,1.3-5.6,0-7.1
		c-7.3-8.8-15.6-16.9-22.7-25.8c-15.4-19.4-23.4-42.2-26.7-66.3c-3.9-28.3-1.5-56.3,9.5-82.9c15.9-38.1,41.8-67,79.2-85.5
		C214.6,31.2,245.1,25.9,287.1,24.2z M2418,191.9c0-39-7.3-65.9-24.5-92.1c-21.3-32.4-51.2-52.5-89.7-58.2c-27-4-53.3,0.9-79,9.9
		c-3.7,1.3-9.1,1.3-12.5-0.4c-18.3-9.5-37-16.8-57.4-20.8c-33.1-6.5-65.8-5.5-98,2.9c-23.8,6.2-46.2,16.6-66.6,30.8
		c-3.5,2.4-9,3.7-13.2,3.1c-16.2-2.5-32.3-5.9-48.4-9c-23.2-4.5-45.3,0.1-66.7,8.8c-9.2,3.7-17.8,9.8-28.5,3
		c-28.4-18.1-60.1-27.1-93.2-31.3c-35.4-4.5-70.6-4-106,1.9c-24.8,4.2-48.7,10-71.7,20.1c-3.7,1.6-9.5,1.1-13.2-0.7
		c-11.6-5.7-22.4-13.1-34.1-18.6c-31.7-14.8-65.4-22.2-100.3-24c-37.4-1.9-73.3,5.6-107.4,20.5c-14.9,6.5-29.4,8.1-45.1,5
		c-29.7-5.7-59.3-13.2-89.3-15.4c-52.5-3.8-105-2.1-156.4,13c-30.3,8.9-59,20.4-85.3,37.6c-6.9,4.5-13.3,3.9-20.6,0.3
		c-11.8-5.9-23.7-12.3-36.4-15.8c-18.6-5.1-37.9-6.3-57.2-3.5c-19,2.8-37.3,7.7-53.1,19.5c-6.9,5.2-14.8,9.9-23.4,4.7
		c-29.3-17.8-59.4-33.6-93.5-39.8c-26-4.8-52-9.5-78.2-12.4c-18-2-36.3-1.9-54.4-0.7c-18.9,1.2-37.8,3.9-56.3,7.7
		C436,42.6,413.9,48.7,391.9,55c-10.4,3-20,5.8-31,1.8c-11-4-22.4-7.4-34-9.5c-29-5.2-57.9-6.8-87.3-1.4
		c-28.6,5.2-53.8,16.4-75.9,35.1c-32.4,27.4-49.2,62.8-50,104.7c-0.4,17.5,3.2,35.5,8,52.5c7.3,25.6,25.8,44.3,45.2,61.6
		c10,9,8.6,19.9-3.4,25.5c-3,1.4-6.1,2.7-9,4.4c-25.1,14.8-47.9,32.2-67.6,53.9c-20.9,23.1-35,49.8-43.8,79.2
		c-4.9,16.2-7.3,33.1-10.3,49.8c-6.2,34-4.8,67.9,4.6,100.9c7.6,26.6,22,50.2,37.7,72.8c4.9,7,11.4,13,11.6,22.6
		c0.3,11.8,1.2,23.5,2.2,35.2c2.1,24.5,9.2,47.8,18.9,70c15.3,35.4,40.1,63.1,72.7,84c21,13.5,43.8,22.7,67.7,28.4
		c18.7,4.4,38.4,5.7,57.7,6.7c18.9,1.1,38,0.9,56.9-0.2c17-1,34.3-2.3,50.6-6.6c23.1-6.2,46.2-13.8,67.9-23.9
		c18.4-8.5,35.5-20.4,51.7-32.7c11-8.3,20.9-10.3,32.2-2.4c14.2,9.9,28.6,19.8,43.7,28.3c23,12.9,47.9,19.9,74.4,19.5
		c14.7-0.2,29.8-0.3,44.1-3.2c18.1-3.7,36.4-8.5,53.2-16c21.7-9.6,40.7-23.8,55.6-42.9c6.2-7.9,18.2-7.7,25.3-0.6
		c5.6,5.6,10.5,12.3,16.7,17.2c17.2,13.6,34.7,26.5,55.2,35.5c21.9,9.5,44.7,15.2,67.9,15.5c23,0.2,46.2-3.9,69.1-7.7
		c23.3-3.9,45.1-12.7,64.6-26.4c8.7-6.1,18-9,28.7-7c12.1,2.3,24.2,4.7,36.4,5.6c31.1,2.4,61.1-4.1,89.7-15.5
		c12.5-5,22-2.8,33.4,2.5c15.2,7.1,31.3,12.8,47.5,16.8c12.9,3.1,26.8,2.3,40.1,4c32.3,3.9,63.1-1.5,93.5-12.3
		c6.6-2.3,14.6-2.4,21.6-1.3c8.7,1.4,17,5.4,25.6,8c31.2,9.1,62.6,9.2,94.3,3.2c20.9-4,39.7-12.5,58.4-22.4
		c5.9-3.2,15.9-2.3,22.6,0.4c9.2,3.6,17.1,10.8,25.7,16.2c23.7,14.8,50.3,22.4,77.5,24.1c22.1,1.3,45.1-1.3,66.7-6.3
		c36.5-8.5,68.6-27,95.6-53.4c10.5-10.3,19.8-10.6,30.8-0.8c20.8,18.4,44.2,32.7,70.5,41.6c17.5,5.9,35.5,11.5,53.7,14.4
		c16.2,2.6,33.3,3.2,49.5,1.2c17.7-2.1,34.9-7.9,52.2-12.7c36.9-10.3,69.2-29.8,93.5-58.5c22.5-26.7,42.8-56,59.2-86.8
		c18.9-35.5,32.2-74,48.2-111c4.7-10.8,8-23.4,15.8-31.6c20.1-21,31.5-45.6,36.8-73.4c4.5-23.6,6.4-47.4,3.6-71.5
		c-2.4-20.8-4.9-41.6-15.5-59.9c-7.6-13.1-16.2-26-26.1-37.5c-20.8-24-45.9-41.3-79.1-43.5c-8.6-0.6-14.4-13.7-9.7-20.9
		c7.6-11.7,15.6-23.2,22.3-35.4C2411.2,239,2418.6,213.6,2418,191.9z"/>
	<path class="st0" d="M344.8,860.9c-16.6-2.1-37.6-3.4-58-7.8c-27.8-6-52-19.6-72.5-39.8c-24.2-23.9-37.6-53.3-43.7-86
		c-3.1-16.5,8.5-25.2,26-30.2c2.4-0.7,4.8-1.3,7.1-1.9c-2.4-1.4-4.7-3-7.2-4.2c-18.8-9.6-36-21.5-43.8-42
		c-8.6-22.6-16.6-45.6-23.1-69c-7.5-26.9-4.3-54,1.1-81.1c4.6-23.2,15.9-43.3,29.4-61.9c12.9-17.8,30.2-31.2,48.5-43.5
		c20.4-13.7,43.2-20.8,66.4-26.9c11.4-3,23.4-4.7,35.2-5.7c16.7-1.5,33.6-2.5,50.4-2.3c8.8,0.1,17.5,3.1,26.2,5.2
		c17,4.1,32.9,10.7,47.7,20c12.6,7.8,22.9,17.9,31.1,30.1c0.9,1.4,2,2.6,3.1,3.9c2.8,3.2,3.6,5.2,6.6-1.1
		c8.6-18.1,19.9-35.1,39.6-42.4c14.8-5.5,30.8-5.9,46.8-3.2c13.1,2.2,26.4,3.1,39.6,5c15.8,2.3,31.4,5.2,47.2,7.5
		c18.5,2.7,37.1,5.1,55.7,7.6c7.6,1,15.1,2,22.7,3c7.2,0.9,14.4,1.9,21.6,2.5c23.7,2.1,47.4,4,71.1,6.3c14.6,1.4,29.4,2.1,43.8,5
		c17.2,3.5,28.6,15.2,36,30.9c1,2.1,1.5,4.5,2.7,6.5c0.9,1.6,2.6,2.8,3.9,4.1c1.2-1.5,2.3-3,3.6-4.4c11.9-12.8,23.2-26.2,35.8-38.3
		c14.7-14.1,33.9-21.3,52.6-27.1c18.7-5.8,38.8-6.8,58.4-9.6c7.7-1.1,15.5-1.5,23.3-1.7c5.5-0.1,11.2,0.2,16.6,1.2
		c16.9,3.1,34,5.8,50.6,10.2c29,7.7,53.5,23.9,71.8,47.4c12.1,15.6,23.3,32.6,31.2,50.6c9.8,22.2,16.3,45.9,23.3,69.3
		c2.6,8.8,2.8,18.4,4,27.6c1.5,11.2,3.1,22.3,4.4,33.5c1.6,12.8,2.7,25.7,4.5,38.5c1.2,8.7,3.2,17.3,5.2,25.8c0.4,1.7,2.2,3,3.4,4.5
		c0.4-1.8,1.2-3.7,1.1-5.5c-0.5-9.3-1.9-18.5-1.7-27.8c0.3-22.2,0.6-44.5,2.1-66.7c1.6-23,3.1-46.2,7.3-68.8
		c3.1-17.1,10.7-33.3,15.7-50.1c6.5-21.8,20.3-39.3,34.9-55.5c11.9-13.1,27.5-22.5,44-30.2c19-8.8,39.1-12.5,59.2-14.5
		c18.8-1.9,38.1,0.8,57.1,1.9c5.8,0.3,11.5,2,17.2,2.9c27.4,4.3,53.1,13.7,77.9,26c20.7,10.3,38.8,24,54.2,41.2
		c2.7,3.1,4.7,6.8,7.2,10.1c0.8,1,2.3,1.5,3.5,2.2c0.5-1.4,1.1-2.7,1.4-4.1c2.3-13.9,4.7-27.7,13.4-39.4
		c9.8-13.3,23.4-20.2,38.4-26.1c19.8-7.7,40.6-9.3,61.3-11.6c20.3-2.2,40.8-2.2,61.1-4.5c23-2.6,45.7-6.9,68.6-10.3
		c12.7-1.9,25.6-5.1,38.2-4.5c9,0.5,17.9,5.9,26.4,10c20,9.7,26.1,30.1,36.1,47.5c0.8,1.4,1.9,2.6,2.8,3.9c0.8-1.2,1.6-2.4,2.4-3.6
		c6.4-9.6,11.6-20.3,19.6-28.3c6.9-6.9,16.8-11.2,25.9-15.4c7.6-3.5,15.9-6.6,24.1-7.1c13.1-0.9,26.6-0.8,39.5,1.2
		c19.7,3,38.3,10.2,54.8,21.6c13.6,9.4,23.9,21.7,28.8,37.7c2.1,6.8,3.3,13.8,5,20.7c0.2,0.9,0.8,1.7,1.2,2.5
		c0.6-0.6,1.1-1.2,1.7-1.7c11.4-9.9,22.2-20.9,34.6-29.3c7.9-5.4,18.2-8.9,27.7-10.1c16-1.9,31.9-4.2,48.4,0.2
		c16.8,4.5,33.6,8.7,47.8,18.8c17,12,32.5,25.7,40,46.5c6.3,17.4,7.6,34.8,0.8,51.9c-2.1,5.3-7.9,10-13.1,13
		c-12,6.7-18.7,16.9-23.4,29.3c-7.7,20.4-16.1,40.4-23.4,60.9c-5.2,14.6-8.2,30-13.9,44.3c-6.8,17.3-16.3,33.6-23,50.9
		c-9.3,24-23.5,44.8-37.7,66c-9.7,14.4-19.7,28.2-34.7,36.3c-16.3,8.8-33.5,16.6-51.2,21.7c-23.1,6.6-47.3,4.7-70-2.5
		c-23.9-7.6-46.3-18.7-62.8-39.4c-17.6-22.2-25.9-47.6-28-75.1c-0.8-10.8,0.1-22.2,2.8-32.6c1.8-7.1,8.3-12.9,12.1-19.5
		c1.3-2.2,2.3-6.1,1.1-7.8c-12.3-18.5-20-39.2-26-60.1c-5.9-20.2-8.8-41.2-13.3-61.9c-0.7-3.1-2.6-5.9-3.9-8.9
		c-2.1,1.6-4.3,3.2-6.4,4.9c-7.5,6.1-15.1,11.4-25.4,12.5c-9,1-9.5,3.3-4.8,10.6c15.3,23.9,25.2,50.1,24.1,78.5
		c-1.2,32-17.1,48.9-48.5,53.8c-5.4,0.8-10.7,2.3-15.9,3.9c-1.5,0.4-2.5,2.4-3.7,3.6c1.1,1.1,2.1,2.5,3.5,3.1
		c8.8,4.2,15.1,10.3,18.2,20c2,6.2,6.4,11.7,8.2,17.9c1.7,5.7,2.7,12.3,1.7,18.1c-5.2,28.9-21.5,50.8-46,65.9
		c-26.4,16.3-55.7,21.8-86.8,19.1c-25.8-2.3-47.5-14-67.1-29.4c-9.4-7.4-17.7-16.9-24.2-26.9c-8.4-13.1-15.2-27.3-21.3-41.7
		c-5.3-12.6-8.9-26-12.9-39.2c-4.5-15-8.9-30.1-12.7-45.4c-2-8.1-2.6-16.6-3.9-25c-1.9-12.1-3.9-24.2-6-36.2
		c-0.2-1.4-1.7-2.6-2.5-3.9c-1.3,1.1-3,1.9-4,3.3c-5.1,7.2-9.4,14.9-15.1,21.6c-8.1,9.5-2.9,18,0.4,26.9c3.3,8.8,7.3,17.4,10,26.4
		c3.5,11.6,4.9,23.9,9.1,35.1c3.3,8.9,8.6,17.6,14.9,24.7c6.5,7.3,9.4,14.8,8.8,24c-1.4,22.4-13.9,38.5-30.9,51.4
		c-26.2,19.9-56.9,24.6-88.2,20.1c-23.7-3.4-47.2-10.3-64.6-29.4c-4-4.3-10.4-8.9-15.4-2c-16.7,23.1-41.3,30-67.2,32.1
		c-31.2,2.6-61.9-1.5-90.1-16.4c-13.8-7.3-25.1-17.4-32.8-31.2c-3-5.3-9.3-5.8-13.8-0.6c-12.1,14.1-26.7,24.5-43.9,31.3
		c-29.6,11.7-59.1,11.7-89.2,0.7c-14.6-5.3-26.3-13.9-37.5-24c-4.8-4.3-9.1-3.2-10,2.4c-3.9,24-18.4,39.8-39.7,49.6
		c-30.9,14.3-63.7,18.4-97.1,12.4c-21.4-3.9-41.6-12.2-55.8-30.3c-3-3.8-4.9-8.6-7.4-12.9c-1.9-3.2-4.5-6.2-6-9.6
		c-2.5-5.7-4.8-11.6-6.4-17.6c-5-19.3-10.2-38.5-14.3-57.9c-3.7-17.6-6.3-35.4-8.9-53.3c-2.5-17.6-4.4-35.3-6.6-53
		c-1.1-8.6-2.2-17.1-3.1-25.7c-0.5-4.1-2.3-5.3-5.4-2.5c-14.8,13.8-32.4,15.7-50.9,10.8c-8.2-2.2-15.7-6.8-23.3-11
		c-11.3-6.2-21.4-2.8-23.6,9.7c-3.3,19-5.3,38.2-7.9,57.3c-0.3,2.5-0.2,5-0.8,7.4c-2.6,12.1-0.2,23.3,4.5,34.6
		c2.5,6,5.2,12.8,4.7,19.1c-1.1,14,8,22.1,15.9,30.7c8.1,8.7,12.7,25.1,7.3,35.6c-5.2,10.2-10,21.1-17.5,29.4
		c-12.2,13.5-27.1,24.4-44.6,30.2c-24.7,8.1-50.1,10-75.2,2.3c-24.4-7.6-46.9-19.1-61.5-41.6c-7.1-10.9-15.4-21.4-20.1-33.3
		c-6.5-16.7-11.1-34.3-14.8-51.9c-2.9-14.2-4.5-29-4.5-43.5c0.1-21.9,1.7-43.8,3.4-65.6c1-13.4,3.4-26.7,4.6-40
		c0.2-1.8-3.2-5.4-5.2-5.6c-4.5-0.5-9.3,0.2-13.8,1.3c-13.4,3.4-25.7,0.8-36.5-7.2c-8.1-6.1-15.8-12.8-22.6-20.3
		c-6.8-7.6-10.8-7.4-16.3,1.6c-4.3,7.2-9.1,14.2-14.9,20.2c-4.8,5.1-11,8.9-17,12.7c-4.5,2.9-3.9,5.1,0.2,6.9
		c9.7,4.3,19.9,7.3,29.2,12.3c23.5,12.7,40.9,31.9,52.1,55.9c6.4,13.7,9,29.2,14.8,43.2c5.4,13.1,7.8,26.2,5.2,39.9
		c-4.5,23-13.1,44.2-29.4,61.6c-6.8,7.3-13,15.5-20.9,21.2c-14,10.2-28.1,21.4-44,27.8c-23.8,9.6-49,15.8-73.8,22.5
		C368,859.9,358.4,859.6,344.8,860.9z M897.2,574.8c3.5,29.6,5.4,59.4,10.8,88.7c5.9,32.3,15.1,64.1,22.7,96.1
		c4,16.9,10.8,31.7,27.8,39c38,16.3,75.8,14.2,112.2-4.4c18.4-9.4,23.3-22,18.6-38.4c-1.3-4.5-2.9-8.9-4.1-13.4
		c-4.4-16.4-8.8-32.8-12.7-49.3c-0.5-2,1.9-6.6,3.5-6.8c8.2-1.5,16.5-2.3,24.8-2.4c2.2,0,5.5,2.7,6.6,4.9c5.2,11,9,22.6,14.7,33.3
		c29,53.1,86.8,69,137.1,37.6c18.5-11.5,30.4-28.2,34.4-49.9c0.9-4.7-0.1-9.1-5.8-9.7c-9.7-1.1-14.6-7.5-17.9-15.5
		c-9.2-22.1-9.8-45.7-11.8-69.1c-3.4-41.3-8.9-82.1-23.6-121.2c-10.4-27.7-25.6-52.4-48.1-71.9c-26-22.6-57.4-32-90.8-34.5
		c-39-2.9-77.5,0.7-113.8,17.1c-29.2,13.2-51,34.5-64,63.8C902.9,502.3,898.4,538.1,897.2,574.8z M1311.8,603.6
		c0.8,0.1,1.6,0.2,2.4,0.3c-0.6,43,5.5,85.3,12.7,127.6c2.4,14.2,8.3,26.5,21.2,33.3c10.9,5.8,22.5,11.1,34.4,14.2
		c25.5,6.6,51.4,7.5,76.7-1.8c15.1-5.5,27.7-16.5,21.2-38.2c-8-26.5-9.5-54-8.1-81.6c0.3-6.7,3.9-8.4,8.6-4.5
		c5.2,4.3,11.3,9.3,13.4,15.2c6,17.2,9.7,35.2,15.4,52.6c6.9,21.2,18.9,39,38.7,50.3c26.1,14.9,53.9,16.3,82.2,8.4
		c19.3-5.4,35.3-15.5,42.7-35.7c3.7-10.3,2.1-14.6-7.2-19.8c-2.6-1.5-5.1-4.7-5.9-7.5c-1.7-5.7-2.9-11.6-3.2-17.6
		c-1.7-28.5-8.4-55.2-26.6-78.1c-8.9-11.1-8.8-11.2,2.4-19.9c47-36.5,55.9-107.1,19.1-153.9c-22.1-28.1-51.7-45.2-85-56.1
		c-38.8-12.8-78.5-19-119.5-13c-24,3.5-46.1,11.3-65.6,25.8c-34.7,25.9-50.7,63.1-58.3,103.6
		C1317.4,538.9,1315.5,571.5,1311.8,603.6z M327.6,821.2c52.3-1.2,92.4-11.8,128-35.7c40.6-27.3,64.8-63.1,54.5-114.8
		c-5.9-29.4-19.7-53.7-47-68.4c-21.1-11.3-44.1-15.4-67.6-17.5c-13.8-1.2-24.7-9.1-28.6-21.4c-3.7-11.7,0.4-24.6,10-32.4
		c12.8-10.2,32.1-8.4,38.2,3.6c3.9,7.7,7.2,8.7,14.5,4.1c2.8-1.8,5.6-3.7,8.1-5.8c33.4-28,34.4-87.6,1.6-119.7
		c-30.7-30-69-38.4-110.4-36.8c-29.4,1.1-57.6,7.9-84.7,19.1c-60.9,25.1-99,73.3-99.6,140.2c-0.2,18.5,4,37.3,8,55.6
		c7.6,34.9,29.4,58.7,62.7,70.8c19.6,7.2,40.1,11.9,60.4,17.2c8.1,2.2,14.1,6.1,15.8,14.6c2,9.7-1,18-9.1,23.7
		c-14.5,10.3-30.9,10.4-47.4,7.6c-11.3-1.9-22.3-5.4-33.5-7.6c-7.7-1.5-12.3,3.7-9,10.6c6.7,14.1,12.5,29,21.8,41.3
		C245,810.2,289.5,820,327.6,821.2z M2222.7,552.3c0.5,0,1.1,0.1,1.6,0.1c-0.9,13.2-1.2,26.6-2.9,39.7c-0.8,6.7-6.4,8.6-12.5,5.9
		c-10.7-4.8-11.9-15-13.3-24.6c-6.3-41.7-2.4-83.1,4.6-124.3c4.3-25.7-1.3-47.2-23.2-63c-17.1-12.4-36.4-18.3-57.3-19.7
		c-15.6-1-31,0.6-45.5,7c-24.3,10.8-34.6,31-35.7,56.1c-1,23.3-1.2,46.7-0.1,69.9c1.9,41.6,9,82.4,26.8,120.6
		c13.8,29.5,33.7,53.1,65.2,64.8c8.7,3.2,17.9,5,26.9,7.6c1.4,0.4,2.4,2,3.6,3c-1.2,0.9-2.3,2.4-3.7,2.6c-5.4,1-10.8,2.3-16.2,2.2
		c-22.9-0.4-43.7-7.8-63.4-19c-6.3-3.6-12-1.6-12.9,5.1c-3.3,25.8,0.9,49.9,17.1,70.9c15.8,20.6,37.5,31.3,62.5,36.1
		c28.3,5.4,55.3,2.7,80.6-12c31.6-18.3,52.6-46.6,70.7-77.2c27.6-46.9,44.8-98.3,65-148.5c6.3-15.7,13.4-31.2,20.8-46.4
		c3.7-7.7,8.8-14.6,19.5-13.5c1.9,0.2,6.4-4.5,6.2-6.7c-0.7-10.1-0.3-21.4-4.7-30c-17.3-34-48.3-47.8-84.4-51.2
		c-49.8-4.7-81.8,24.4-88.4,71.4C2226.4,503.5,2225,528,2222.7,552.3z M2007.1,455.8c-0.2-27.4-5.2-48.1-15.9-68
		c-12.4-22.8-28.4-31-53.9-27.1c-8.2,1.3-16.3,3.5-24.4,5c-37.6,7-75.5,9.7-113.6,12.6c-22.9,1.8-45.7,6.3-68,12.1
		c-17.5,4.6-31.7,15.7-34.4,35.5c-1.4,10.4-1,21.2-0.2,31.8c2.1,29.4,5.2,58.7,7.2,88.1c2.6,37.2,6.1,74.3,14.7,110.7
		c7.2,30.3,17.5,59.3,33.7,86.1c32.8,54.2,87,68.4,139.7,43c24.9-12,39.9-32.1,44.6-59.5c1.4-8-1.1-13-7.5-12.8
		c-12.8,0.4-19-7.5-23.5-17.5c-3.1-7-5.3-14.3-8.1-21.5c-2.5-6.4-0.7-10,6.2-11.4c14.8-3.1,29.5-6.8,44.3-9.9
		c13-2.8,24.9-6.6,29-21.5c5.7-21,1.7-40.6-8-59.4c-8.7-16.8-21.4-28.2-45.4-20.4c-12.6,4.1-25.8,6.6-38.8,9.3
		c-1.9,0.4-6.2-1.9-6.4-3.3c-2.2-15.6-4-31.4-5.4-47.1c-0.2-1.6,2.2-4.7,3.8-5.1c17.6-3.9,35.3-5,53-0.8c11.2,2.7,22.3,5.6,33.3,8.7
		c15.7,4.4,26.6,0.3,34.7-13.7C2006.1,485.7,2006.7,469.7,2007.1,455.8z M580.5,648.6c3.2,23.5,5.1,47.3,9.9,70.5
		c5.1,24.7,16.1,47.1,35.9,63.7c28.4,23.7,61.3,27.3,95.6,17.2c22.3-6.5,37.6-22.1,46.1-43.9c2-5.2,0.6-8.6-4.8-11.8
		c-5-2.9-10-7.7-12.3-12.8c-3.4-7.6-5.7-16.2-6.3-24.5c-4-54.1,1.3-107.4,13.8-160.1c1.3-5.4,4-5.9,8.3-4.1
		c14.1,6,28.5,11.3,42.2,18c26.3,12.9,42.4,6.9,57.6-15.2c18.2-26.5,25.4-56.2,19.1-88.3c-3.6-18.3-17.2-30.9-35.5-32.7
		c-29.7-3-59.4-5.3-89-8.2c-20.7-2-41.4-4.1-62.1-6.8c-32.1-4.3-64.2-9.2-96.3-13.9c-16.5-2.4-33-4.4-49.3-7.5
		c-21.7-4.1-45.9,6.9-55,27.2c-15,33.6-10.8,66.3,7,97.6c7.8,13.6,19.4,20.2,36,16.8c16.6-3.5,33.5-5.6,50.2-8.2
		c3.8-0.6,7.7-0.7,6.1,5.5C587.6,566.9,583.6,607.4,580.5,648.6z M1901.2,537.2c8.9-2.3,16.4-4.2,23.8-6.2c0.3-0.1,0.6-2.1,0.2-2.5
		c-3.7-3.3-23.1,0.8-25,5.4C1899.9,534.8,1901,536.3,1901.2,537.2z M408.3,567.1c1.2-0.9,2.7-2,4.2-3.1c-3.1-2.1-6-4.9-9.5-6
		c-1.6-0.5-4.3,2.2-6.5,3.4c1.3,1.2,2.5,2.7,4,3.5C402.6,565.9,404.9,566.2,408.3,567.1z"/>
	<path class="st0" d="M794.6,169.6c2-31.5,20.9-47.3,48.7-46.4c20.3,0.7,36.2,13,42,34.7c4.6,17.2,7.4,34.8,10.6,52.4
		c1.3,6.9,4.4,9.3,11.4,7.8c14.7-3.2,28.8-1.7,41.5,7.4c2,1.4,4.7,1.9,7.1,2.8c0.6-2.7,1.5-5.3,1.8-8c2.7-22.4,4.3-45,8.4-67.2
		c3.2-17.2,27.2-32.1,44.7-30.4c13.6,1.3,27.2,1.9,40.8,3.3c15.2,1.6,30.7,2.4,45.4,5.9c11.8,2.9,21,11.5,26.6,22.7
		c2.8,5.5,5.7,4.4,8.6,0.8c11.5-14.3,25.6-25,42.9-31.5c19.2-7.3,38.7-7.4,58.5-2.8c17,3.9,28.2,14.4,36.5,29.2
		c8.6,15.2,6.1,29.9-1.5,44.2c-3.1,5.8-2.2,8.7,4.3,9.7c7.2,1.1,14.5,2.1,21.7,3.2c1.4,0.2,2.9,0.7,4.2,1.3c2.1,0.9,4.1,2.1,6.1,3.1
		c0.5-2.7,1.5-5.4,1.5-8.1c0-16.8-1.1-33.7-0.2-50.4c0.7-13.3,8.4-23.3,19.5-30.8c12.4-8.3,26.4-8,40.3-8.8
		c15-0.8,29.9-1.9,44.9-1.8c10.5,0.1,21.3,0.8,31.3,3.5c14.4,3.9,21.8,15.3,25.8,29.3c0.7,2.3,2.6,4.3,4,6.4c1.7-1.7,4-3.1,5-5.2
		c17.9-35.1,62.9-27.6,77.2-5c4.3,6.8,7.2,7.5,12,0.1c12.4-18.7,37.3-23.8,56.2-15.4c15.5,6.9,24.4,19.9,27.7,36.6
		c0.7,3.8,1.9,7.4,2.8,11.1c0.7-3.5,1.3-7.1,2-10.6c2-9.6,3.7-19.2,6.2-28.7c4.1-15.4,23.5-29.7,39-28.6c18.7,1.2,37.5,2.3,56,5
		c22.6,3.4,42.2,13.2,58.7,29.8c13,13.1,21.9,27.8,25.8,45.8c0.4,1.8,2.3,3.4,3.5,5.1c1-1.7,2.6-3.3,3-5.1
		c5.1-19.7,14.1-36.8,30.7-49.4c22.1-16.8,53.2-18.5,77.8-4.2c22.7,13.1,31.9,34.6,38.3,58.3c3.8,14,7.7,27.9,11.8,41.8
		c0.4,1.5,2,2.7,3,4c1-1.5,2.7-3,2.8-4.6c1.5-18.6,2-37.3,4.3-55.8c1.8-14,3.9-28.5,9.3-41.3c6.6-15.6,21-24.7,38.1-24.1
		c23.2,0.8,46.5,2.7,69.3,6.6c15.6,2.7,29.2,11.7,40,24c0.6,0.6,1,1.3,1.6,1.9c6.6,7.3,8.2,7,11.6-1.9c8-21,22.7-30.8,44.8-27.3
		c15.9,2.5,26.4,13.1,31.9,28.3c0.5,1.4,1.1,2.8,1.7,4.2c2,4.9,4.1,5,7.7,1c5.5-6.3,10.8-13.3,17.7-17.7c20-12.6,44.6-5,55.5,16.8
		c11.4,22.7,0.1,39.9-13.5,56.6c-8.3,10.2-16.5,20.5-24.4,31c-1.5,1.9-1.9,4.9-2.2,7.5c-2,14.3-3.7,28.7-5.8,43
		c-3.2,22.2-31.3,40.1-55,34.1c-24.2-6.1-40.9-30-37.6-54.8c1.3-9.7,2.1-19.5,3.6-29.2c1.2-8.5-0.3-16-5.1-23.2
		c-3.1-4.7-4.8-10.2-7.4-15.3c-0.6-1.2-2-2-3-3c-0.6,1.2-1.8,2.3-1.9,3.6c-0.7,13.9-6,25.9-13.2,37.7c-2.4,3.9-0.6,11.5,1.4,16.6
		c6.9,17.5,6.5,34.2-5.5,49c-12.9,16-30.5,22.5-50,16c-9.6-3.2-17.5-12-25.7-18.8c-3.4-2.8-5.2-4.3-8.8-0.2
		c-16.1,18.1-46.3,19.3-65.5,2.8c-1.3-1.1-2.6-2.1-3.8-3.2c-5-4.3-7.1-2.3-9.5,3.1c-11.4,25.5-42.4,34.1-65.4,17.6
		c-5.7-4.1-10.2-10-14.7-15.6c-6.7-8.3-18.2-7.1-23.9,1.9c-12.7,20.4-38.5,28.9-61.5,15.3c-12.2-7.2-18.7-18.5-21.2-32.3
		c-0.6-3.3-1.4-6.6-3-9.5c-0.4-0.8-4.9-0.8-5.6,0.2c-11.4,14.9-27.2,23.3-44.5,27.9c-11.5,3.1-23.9,4.7-35.8,4
		c-19.7-1.2-39.4-3.9-58.7-7.7c-6.9-1.4-13.5-7.1-19.1-12c-5.7-5-7.9-3.5-9.8,2.6c-3.6,11.4-11.4,19.5-21.5,25.2
		c-19.8,11.2-49.1,6-62.4-14.8c-3.2-5-5.8-4-8.5,0c-11.6,17.2-28.7,23-47.8,19.4c-9.2-1.7-17.6-9.1-25.7-14.9
		c-4-2.9-6.4-8.1-10-11.7c-1-1-4.8-1.3-5.5-0.5c-11.4,15-28,17.5-45,18.5c-14,0.8-28,0.6-42,1.1c-6,0.2-11.9,1.8-17.8,1.9
		c-22.4,0.5-38.7-9.8-49.8-29c-1-1.8-2.5-3.3-3.8-4.9c-0.8,2.1-2,4.1-2.2,6.3c-1.4,11.9-5.3,22.4-14.6,30.8
		c-11.6,10.4-31.9,8.4-45.1,1c-2.8-1.6-6.9-2-10.1-1.4c-36.1,6.8-67.7-0.6-94.9-26.5c-21.3-20.3-30.8-45.1-32.9-73.7
		c-0.2-2.7-3.3-5.2-5-7.8c-1,3-2.4,6-2.9,9c-1.3,8.5-2.4,17.1-3.1,25.8c-0.2,2.1,0.4,5,1.8,6.3c17.9,16.1,22.7,31.5,13.9,53.7
		c-5.5,13.9-17.2,22.9-32.2,23.3c-18.5,0.5-37.2-1.6-55.8-2.6c-5.1-0.3-10.3-1-15.4-1c-18.6-0.2-35.3-4.9-47.4-20.2
		c-5.1-6.4-9.4-7.4-17.3-2.6c-8.2,5-18.4,7.3-28.1,9.3c-16.9,3.5-34.2,5.4-51.2,9c-21.1,4.5-47.4-14-51.3-34.2
		c-7-36.4-13.8-72.9-20.6-109.3C794.6,174.6,794.7,171.6,794.6,169.6z M1484.5,221.9C1484.5,221.9,1484.5,221.9,1484.5,221.9
		c0.1,8.5,0.1,17,0.1,25.5c0,8.5-0.2,17-0.1,25.5c0.1,4.8-0.1,9.9,1.4,14.3c4.8,14.5,21.3,23.5,37.3,20.9
		c14.5-2.3,25.7-15.6,25.9-31.1c0.2-13.7,0.1-27.3,0.2-41c0-1.5,0.2-2.9,0.4-4.4c1,1.3,2.3,2.4,2.9,3.8
		c6.2,16.1,12.5,32.2,18.4,48.5c6.6,18.2,20.1,26.9,38.5,24.3c14.5-2.1,27-15.6,27.1-31c0.4-36,0.4-72,0-108
		c-0.2-16.4-12.3-31.2-26.1-34.1c-20.3-4.1-39,9.6-40.3,30.3c-0.8,12.8-0.3,25.6-0.6,38.5c0,1.7-0.9,3.3-1.4,5
		c-0.9-1.2-2-2.4-2.6-3.8c-5.7-15.1-11.6-30.1-16.8-45.4c-6-17.6-20.5-27.8-37-25.1c-17.7,2.9-27.7,15.9-27.4,35.2
		C1484.6,187.2,1484.5,204.6,1484.5,221.9z M2022.6,254.5c-0.4,0.1-0.8,0.2-1.2,0.3c1.5,7.4,2.4,15,4.7,22.1
		c4.2,12.9,17.6,21.5,31,20.8c15.6-0.9,27.1-9.4,30.2-23.6c1.7-7.7,1.8-15.8,2.7-23.8c0.2-1.4,0.7-2.7,1.1-4c0.8,1,1.9,1.9,2.4,3.1
		c5.2,11.7,10.5,23.3,15.5,35.1c6,14.1,20.1,22.9,33.2,20.3c17.5-3.4,28-16,28.3-33c0.2-11.6-6-20.5-10.6-30.2
		c-1-2.1-0.6-6.5,0.9-8.1c17.4-17.9,22.5-38.6,14.4-62c-7.7-22.2-24.6-36.4-46.7-41c-20.7-4.4-42.2-5.1-63.5-5.9
		c-17.1-0.6-31.6,13-33.3,29.9C2028.3,187.8,2025.5,221.1,2022.6,254.5z M1209.3,131.4c-7.3,1.2-14.7,2-21.9,3.8
		c-36,8.8-57.8,38.9-63.2,71c-4.6,27.2,4.1,50.9,21.3,71.7c22.1,26.6,65.4,39.4,96.3,24.4c3.8-1.9,6.5-3.3,9.4,1.5
		c4.7,7.8,14.5,11.8,22.2,9.9c9.4-2.3,16.9-10.1,17.9-19.3c2.4-21.8,4.7-43.7,6.5-65.6c0.2-2.3-3.3-6.7-5.6-7
		c-12.2-1.9-24.5-2.8-36.7-4c-11.6-1.1-23.2-2.7-34.8-3c-3-0.1-6.8,3.2-8.9,6c-0.7,0.9,2.7,5.2,4.6,7.6c1.1,1.4,3,2.1,4.5,3.1
		c-1.8,1.5-3.5,3.7-5.6,4.3c-6.7,1.9-13,0.9-17.4-5.1c-4.7-6.4-4.7-13-0.4-19.5c4-6.1,9.5-8,16.9-6.6c5.5,1.1,11.3,1.5,16.8,0.9
		c13.7-1.5,22.1-10.2,27-22.4c5.1-12.7,3.4-24.7-6.2-34.7C1240.5,136.2,1226,131.5,1209.3,131.4z M1920.3,281.7c1.2,0,2.3,0.1,3.5,0
		c9.8-1.1,16.8,0.1,20.9,11.9c4.6,13.3,21.3,19.8,33.5,16c19.3-5.9,28-23.2,22.1-43.5c-8.7-30-17.4-60-26-90
		c-6.3-22.1-27.6-39.4-50.1-40.3c-27.1-1.1-50.1,12.6-58.1,35.9c-5.2,15-9.1,30.5-13.3,45.8c-5,18.4-10.3,36.8-14.4,55.4
		c-3.2,14.5,6.5,31.4,19,35.5c15.5,5.2,32.8-0.2,38.5-14.8c4.4-11.3,10.9-13.4,21-12C1917.9,281.8,1919.1,281.7,1920.3,281.7z
		 M966.8,264.7c0.2,0,0.5,0,0.7,0.1c-0.1,2.3-0.3,4.7-0.4,7c-0.5,19,10.1,34.7,26.2,36.4c27.3,2.9,54.7,5,82.1,6.7
		c14.3,0.9,25.4-9.5,27.9-24c2.3-13.3-5.3-27.7-18.6-30.9c-13.7-3.3-28.1-4.2-42.2-6c-3.6-0.5-7.7,0.5-7.5-5.4
		c0.2-5.6,3.6-5.8,7.9-5.4c9.1,0.7,18.3,1.5,27.4,1.6c10.2,0.1,16.8-5.9,17.4-14.8c0.6-9-5.4-16.6-15.1-17.9
		c-9.2-1.2-18.5-2.1-27.8-2.6c-5-0.3-6.2-2.7-5.8-7.1c0.4-4.5,2.4-5.7,7-5.2c12.7,1.3,25.5,2.4,38.3,3c4.2,0.2,8.8-0.7,12.6-2.4
		c11-5,17.4-16.2,16.7-27.3c-0.8-11.8-9.2-24.4-21.3-26.1c-28.1-3.9-56.5-6.4-84.8-8.4c-15.4-1.1-29.8,12.5-31.3,27.9
		C972.8,197.4,969.9,231.1,966.8,264.7z M1384.9,299.7c0,0.1,0,0.2,0,0.3c9.5-0.4,19-0.6,28.5-1.4c9.9-0.8,20.4-0.4,29.6-3.5
		c14.9-5.1,20.5-18.7,17-35.6c-2-9.9-15.9-20.5-28.1-20.4c-12.1,0.1-24.3,1.1-36.4,2.1c-4.3,0.3-6.6-0.5-7-5.2
		c-0.4-4.7,1.6-6.8,6.2-6.8c8.7-0.1,17.3-0.2,26-0.6c10.3-0.6,17.5-7.9,17.3-17.1c-0.1-9.2-8.1-16.6-18.4-16.5
		c-9.3,0.1-18.6,1-28,0.9c-1.9,0-5.6-3.2-5.4-4.5c0.3-2.4,2.7-6.3,4.5-6.5c13.4-1.4,26.9-2.1,40.3-3.1c14.9-1,27.2-17.4,24-32.1
		c-3.4-15.6-14.6-25.3-30.8-25.1c-20.1,0.3-40.3,1.5-60.4,2.3c-5,0.2-10,0.6-15,1c-19.1,1.7-31.4,16.7-30.2,35.1
		c2.2,34.7,2.6,69.6,4.3,104.3c1,21,15.2,33.8,36.3,33.5C1367.9,300.7,1376.4,300.1,1384.9,299.7z M1829.1,200
		c-0.6-17.1-10-38.4-28.8-55.3c-14.7-13.2-32-20.3-51.8-22c-15.9-1.3-31.7-3.6-47.6-4.7c-12.7-0.8-30.5,14.9-30.3,28.7
		c0.2,11.4-2.1,22.8-3.3,34.2c-2.6,25.6-5.7,51.2-7.3,76.9c-1.1,16.7,14,31.5,30.8,32.8c13.9,1.1,27.9,1.9,41.8,4
		C1783.6,302.4,1829.7,258.3,1829.1,200z M865.8,306.2c18-3.5,42.3-7.5,66.2-13.2c14.3-3.3,23.6-21,20.7-35.2
		c-4.5-21.9-22.7-32.6-45.4-26.8c-5.8,1.5-11.7,2.9-17.6,3.5c-1.7,0.2-4.9-2.4-5.3-4.2c-2.6-11.7-4.4-23.5-6.7-35.3
		c-2.8-13.6-5-27.5-9.1-40.7c-4-13-20.8-20.9-34.8-18.2c-14.6,2.8-26.6,15.4-25.5,29.5c1.2,16.3,4,32.6,6.7,48.7
		c3.3,19.7,7.8,39.1,10.9,58.8C829.2,294,841.2,306.5,865.8,306.2z M2337,164.9c-1.4-12.1-7.5-22.3-16.5-25.8c-12.4-4.9-23.2-3-31,7
		c-7.8,10.1-14.4,21.1-21.7,31.7c-1.1,1.6-3,2.8-4.5,4.2c-1-1.6-2.3-3.1-3-4.9c-3.9-10.6-7.8-21.2-11.4-31.9
		c-4.9-14.3-20.7-22.7-33.9-17.9c-14.6,5.3-22.9,23.4-16.8,37.4c3.8,8.7,7.4,17.5,12.4,25.6c12,19.7,16.9,40,11.3,63.1
		c-2.7,11-4.2,23,2.1,34.1c6.7,11.8,21.4,19.6,34.4,17.6c13-2,24.8-12.5,26.4-24.1c2.1-14.8,3.7-29.7,5.9-44.5
		c0.6-3.9,2-8.2,4.3-11.3c11.1-14.8,22.9-29,33.9-43.9C2332.5,176.5,2334.4,170.4,2337,164.9z M1470.8,214.3c0.3,0,0.7,0,1-0.1
		c-0.9-13.4-1.8-26.9-2.7-40.3c-0.1-1.7-0.2-3.4-0.4-5c-1.3,1.5-2.6,2.9-3.8,4.4c-4.5,5.3-9.3,10.5-13.5,16.1
		c-1.4,1.9-2.9,5.1-2.3,7c3,9.1,4.6,17.9,1.8,27.4c-0.6,2.1,0.6,5.6,2.2,7.2c3.9,4,8.4,7.4,12.8,11c1.1,0.9,2.5,1.3,3.8,1.9
		c0.4-1.2,1.1-2.4,1.1-3.6C1470.8,231.6,1470.8,222.9,1470.8,214.3z"/>
	<path class="st0" d="M375.8,244.7c-0.9-12.4-1.7-24.9-2.6-37.3c-0.4-4.8-2.3-6-6.3-2.5c-2.5,2.2-5.1,4.7-8.1,5.7
		c-8.1,2.7-9.4,8.1-7.9,15.6c2.6,13.6,4.6,27.3,7.2,40.8c3,15.6,1.9,30.5-7.1,44.1c-15.9,24.2-59.8,27.8-77.5-1.8
		c-9.6-16.1-9.4-34.4-13.7-51.7c-0.3-1.1-0.4-2.3-0.5-3.5c-1.1-13.3-5.6-21.3-21-24.4c-28-5.5-42.9-32.2-34.2-59.1
		c5.1-15.8,17.5-26.5,33.9-30.2c21.7-4.9,43.7-8.5,65.6-12.6c9.4-1.7,18.8-3.8,28.3-4.5c15.9-1.2,29.3,4.6,39.5,17
		c4.4,5.3,6.6,4.9,10.1-1.1c14-23.7,36.6-32.8,62-17.2c6.3,3.9,11.3,10,16.4,15.5c3.4,3.6,5.3,4.1,8.1-0.7c8.6-15,22-24.2,39.1-22.7
		c24.6,2.1,43.1,16.1,44.7,46.3c0.2,4.5,0.1,9,0.4,13.5c0.1,1.2,0.8,2.3,1.3,3.5c0.5-1.1,1.2-2.2,1.5-3.4c2.7-11.6,4-23.4,11.7-33.5
		c9.8-12.9,22.9-19.3,38.4-18.1c19.5,1.5,38.8,5,58.2,7.9c7.7,1.1,15.4,2.7,23,4c26,4.6,37.3,26.1,35.9,46.7
		c-0.9,14.4-9.1,26.3-23,32.8c-4.8,2.2-6.5,4.3-6.2,10.4c0.4,8.3-2.8,16.7-3.7,25.1c-0.3,2.7,0.7,6.4,2.5,8.3
		c12.9,13.6,17.3,28.7,11.8,47.2c-4.5,15.3-22.5,28.3-37.8,27.5c-14.1-0.7-28.1-2.7-42.2-4.4c-10.7-1.3-21.4-3.3-32.1-4.3
		c-16.4-1.5-30-8.2-40.5-20.8c-3.2-3.9-6.8-5.4-10.3-0.9c-16.8,21.3-53.2,20-70.2-5.2c-4.2-6.2-6.8-7-11.4,0.1
		c-9.2,13.9-22.4,21.3-39.5,19.4c-19.9-2.2-35.7-11.6-41.2-31.6c-3.4-12.6-3-26.3-4.3-39.4C374.6,244.8,375.2,244.8,375.8,244.7z
		 M388.1,216.1C388.1,216.1,388.1,216.1,388.1,216.1c-0.1,17.2-0.3,34.3,0,51.5c0.1,5.5,1.3,11.2,3,16.5c4,11.8,17.5,19.3,32.2,18.7
		c11.5-0.5,23.3-9.3,25.7-21c1.9-9.5,1.5-19.5,2.8-29.1c0.3-2.2,3.7-5.7,5.6-5.7c19.3,0.1,16.3-3.3,16.6,15.8c0,2.2,0,4.3,0,6.5
		c0.1,17.7,14.7,33.1,31.7,33.5c16.9,0.4,30.7-13.1,30.9-31.8c0.5-37.3,0.4-74.6,0-111.9c-0.2-16.2-9.8-26.5-26.9-30.8
		c-10.6-2.7-24.2,4.3-31.5,15.8c-6,9.4-4.2,19.9-4.4,30.1c-0.4,17.3,3,15-16,15.3c-0.3,0-0.8,0.1-1-0.1c-1.7-1.7-4.8-3.3-4.9-5.2
		c-0.6-7.1-0.2-14.3-0.3-21.5c-0.1-19.9-13.4-33.9-32.1-34.1c-16.9-0.2-31.5,15.8-31.5,34.6C388.1,180.8,388.1,198.4,388.1,216.1z
		 M655.2,246.5c14.8,0.9,22.2-3.9,23.9-13.1c1.5-8.3-4.6-16.8-15.1-19.3c-9.2-2.2-18.8-2.8-28-4.7c-1.7-0.4-4.3-3.9-4-5.4
		c0.4-2.1,3.4-5.4,5-5.3c12.2,1.1,24.5,2.4,36.6,4.6c13.7,2.5,28.5-5.7,32.7-19.1c6.1-19.6-7.5-37-30.5-39.8
		c-18.5-2.3-36.9-4.9-55.3-8.2c-33-6-48.6,5.6-52.1,38.6c-1.8,17.5-5.3,34.9-7.5,52.4c-2,16.2-4.1,32.4-4.8,48.7
		c-0.7,15.2,10.1,27.3,25.2,30.2c8.5,1.6,17,3,25.6,4.2c18.6,2.6,37.1,5.7,55.8,7.2c14.8,1.2,27.7-11.6,28.8-26.1
		c1-14.4-11.2-29.5-25.3-31.5c-12.2-1.7-24.3-3.5-36.4-5.7c-1.7-0.3-4.6-3.6-4.4-3.9c1.5-2.5,3.8-6.5,5.7-6.4
		C640.2,244.2,649.2,245.8,655.2,246.5z M332.1,135.7c-0.9,0.1-3.6,0.3-6.2,0.7c-26.2,4.7-52.3,9.5-78.5,14.1
		c-17.6,3.1-31.3,16.4-32.7,32.3c-1.6,19.8,14.9,35.2,38.2,34.2c9.3-0.4,14,0.1,15.3,11.3c2.3,19.3,7.6,38.3,10.4,57.6
		c2.6,18,17.5,31.1,34.9,29.7c22.8-1.8,32.9-21.2,30.9-36.9c-2.8-22.5-7.3-44.9-11.9-67.1c-1.4-6.9-0.5-8.9,6.5-9.8
		c18.1-2.4,30.2-17.3,28.7-34.3C366.2,149,352,135.7,332.1,135.7z"/>
	<path class="st0" d="M1901.2,537.2c-0.3-0.9-1.3-2.4-0.9-3.3c1.9-4.6,21.3-8.7,25-5.4c0.4,0.4,0.1,2.4-0.2,2.5
		C1917.6,533,1910.1,534.9,1901.2,537.2z"/>
	<path class="st0" d="M408.3,567.1c-3.3-0.9-5.6-1.2-7.7-2.1c-1.5-0.7-2.7-2.3-4-3.5c2.2-1.2,4.8-3.9,6.5-3.4c3.4,1.1,6.4,3.9,9.5,6
		C411,565.1,409.4,566.2,408.3,567.1z"/>
	<path class="st0" d="M1470.8,214.3c0,8.7,0,17.3-0.1,26c0,1.2-0.7,2.4-1.1,3.6c-1.3-0.6-2.7-1-3.8-1.9c-4.4-3.5-8.9-6.9-12.8-11
		c-1.6-1.7-2.8-5.2-2.2-7.2c2.8-9.5,1.2-18.4-1.8-27.4c-0.6-1.9,0.8-5.1,2.3-7c4.3-5.6,9-10.8,13.5-16.1c1.3-1.5,2.6-2.9,3.8-4.4
		c0.1,1.7,0.3,3.4,0.4,5c0.9,13.4,1.8,26.9,2.7,40.3C1471.4,214.2,1471.1,214.3,1470.8,214.3z"/>
	<path class="st0" d="M1069.1,585.2c-9.2,2.4-11.9-1.3-12.8-10.5c-2.3-23.3-3.4-46.5,1.2-69.5c0.8-4,4.4-7.5,6.7-11.2
		c3.4,2.8,8.5,5,9.8,8.6c4.7,13.1,8.7,26.5,11.6,40.1c2.3,10.8,2.3,22.1,3.6,33.2c0.6,4.8-0.9,7.1-5.9,7.5
		C1078.6,583.7,1073.9,584.6,1069.1,585.2z"/>
	<path class="st0" d="M1528,514.5c-3.4,12.2-5.6,24.9-10.5,36.4c-5.3,12.4-30.7,15.9-40.6,6.7c-1.1-1.1-2-3.4-1.7-4.9
		c3.4-20.6,7.1-41.1,10.7-61.7c0.1-0.5,0.3-0.9,0.5-1.4c4.7-10.9,12.1-16.7,20.1-15.9c7.7,0.8,14.6,8.6,17,19.5
		c1,4.5,1.6,9.2,2.2,13.8c0.3,2.3,0.3,4.6,0.5,7C1526.8,514.1,1527.4,514.3,1528,514.5z"/>
	<path class="st0" d="M2098.9,178.4c10.1,0.2,18.1,8.3,18.1,15.7c0,7-7.8,14.5-15.3,14.5c-6-0.1-9.4-2.6-8.3-9.4
		c0.8-4.9,0.7-10,1.9-14.8C2095.9,181.8,2098.1,179.6,2098.9,178.4z"/>
	<path class="st0" d="M1919,253.8c-12.2,0.2-12,0.2-7.9-11.9c2.5-7.5,4.6-15.2,6.8-22.8c0.2-0.8,0.6-1.5,0.8-2.3
		c0.5,0.5,1.3,1,1.6,1.6c3.5,10.7,7,21.3,10.3,32.1c0.2,0.7-1.9,2.9-3.1,3.1C1924.6,254.1,1921.8,253.8,1919,253.8z"/>
	<path class="st0" d="M1705.4,227.4c5.2-9.1-5.2-16-7.3-25c-1.7-7.3,2-15.3,9.3-17.7c1.4-0.5,2.8-1.1,4.3-1.2
		c8.8-0.9,14.8-5.4,20.9-12c7.8-8.5,20.6-5.8,25.7,5.1c3.5,7.5,8.4,11.3,15.8,13.2c11.4,3,17.3,15.6,8.7,24.5
		c-7.3,7.6-10.8,16-12.6,26.4c-1.8,10.3-13.4,14.1-22.8,8.9c-6.2-3.5-11.4-4.9-18.9-2.5C1716.6,250.7,1703,245.4,1705.4,227.4z
		 M1719.1,229.1c-0.1,5.1,3.1,7,8.5,4.6c8.8-4,16.5-3.6,24.2,2.6c1.6,1.3,5,1.8,6.8,1c1.4-0.6,2.5-4.1,2.2-6
		c-1.9-9.8,1.5-16.8,10.2-21.6c1.5-0.8,3-3.7,2.7-5.2c-0.4-1.5-2.9-3.4-4.6-3.6c-9.9-1.2-16.8-5.6-19.3-15.8
		c-0.5-1.9-2.8-4.3-4.5-4.5c-1.7-0.2-4.6,1.6-5.4,3.3c-4.1,8.9-11,12.1-20.5,11.5c-2.3-0.1-5.8,1.2-6.6,2.9
		c-0.7,1.5,0.9,5.1,2.6,6.6c6.6,6.3,8.7,13.1,4.4,21.5C1719.2,227.5,1719.2,228.6,1719.1,229.1z"/>
</g>
</svg>
