<?xml version="1.0" encoding="utf-8"?>
<!-- Generator: Adobe Illustrator 19.0.0, SVG Export Plug-In . SVG Version: 6.00 Build 0)  -->
<svg version="1.1" id="Layer_1" xmlns="http://www.w3.org/2000/svg" xmlns:xlink="http://www.w3.org/1999/xlink" x="0px" y="0px"
	 viewBox="0 0 3891.4 1248.1" style="enable-background:new 0 0 3891.4 1248.1;" xml:space="preserve">
<style type="text/css">
	.st0{fill:none;stroke:#FFFFFF;stroke-width:20;stroke-miterlimit:10;}
	.st1{fill:#FFFFFF;}
</style>
<g>
	<path class="st0" d="M3533.1,1203.3c-4,0.2-6.9,0.5-9.9,0.5c-17.3-0.1-34.7-0.4-52-0.3c-8.6,0-17.3,1-25.9,1
		c-33.3,0.2-66.7,0.4-100,0.4c-98.3,0-196.7,0-295,0c-87,0-174,0.1-261,0.3c-18.8,0-18.8,0.5-36.7-9.9
		c-30.8-17.9-61.7-35.7-92.6-53.5c-1.4-0.8-3-1.3-5-2.1c-0.6,2-1.4,3.5-1.5,5c-0.4,8-0.8,16-0.9,24c-0.2,10-0.2,20-0.4,30
		c0,1-0.4,1.9-0.7,3.4c-7.3,2.7-15,0.6-22.4,1.3c-7.9,0.7-14.9-2.8-22.3-5.1c-2.3,1.4-4.3,3.3-6.7,4.1c-2.5,0.8-5.3,0.5-7.9,0.5
		c-26.7,0-53.3,0.1-80,0c-5.6,0-11.2-1-16.9-1.4c-3.6-0.3-7.3-0.5-10.9,0.9c-1.8,0.7-3.9,0.6-5.9,0.6c-27,0.3-54,0.5-81,0.8
		c-3,0-6-0.1-9,0.1c-4.6,0.2-8.4-1.4-11.6-4.8c-1.8-2-3.8-3.7-5.6-5.7c-13.4-14.4-26.7-28.9-40.1-43.3
		c-13.6-14.6-27.4-29.1-41.1-43.7c-0.4-0.4-1.1-0.6-1.8-0.9c-2.6,0.9-1.8,3.3-1.9,5c-0.8,27-1.5,54-2.3,80.9
		c-0.1,3.9,0.5,8-0.9,11.6c-2.4,2.4-5.1,1.9-7.7,1.8c-15.3-0.1-30.7-0.2-46-0.3c-30-0.2-60-0.3-90-0.4c-3.7,0-7.3,0-11-0.1
		c-2.7,0-5.1-0.5-7.3-2.5c-4-3.7-8.5-3.8-12.5-0.2c-2.2,2-4.5,2.6-7.2,2.7c-7,0.2-14,0.6-21,0.5c-44.3-0.2-88.7-0.6-133-0.8
		c-24-0.1-48,0-72-0.1c-4.6,0-9.3,0.3-13.4-2.9c-2-1.6-4.6-1.1-6.6,0.3c-3.2,2.3-6.8,2.5-10.5,2.5c-36.7,0.1-73.3,0.1-110,0.1
		c-2.3,0-4.6-0.5-7.3-0.8c-0.4-2.5-1.1-4.7-1.1-6.9c0-10.7,0.3-21.3,0.4-32c0.1-9.3,0.1-18.7,0.1-28c0.1-9.3,0.2-18.6,0.2-28
		c0-1.9-0.4-3.8-0.6-5.5c-2.7-0.9-3.6,0.8-4.5,2c-4.2,6.4-8.4,12.8-12.4,19.3c-13.8,22.4-27.5,44.9-41.4,67.3
		c-9.4,15.1-7.3,12.2-22.1,12.2c-18.3,0.1-36.7-0.6-55-0.6c-19.3,0-38.6,0.7-58,0.7c-47,0-94-0.4-141-0.4c-6.5,0-12.5-1.4-18.5-3.5
		c-2.5-4.7-3.3-9.6-3.2-14.6c0-5.7,0.2-11.3,0.1-17c0-11.7-0.1-23.3-0.2-35c0-1.2-0.5-2.5-0.9-4.4c-2.8,1.4-5.2,2.4-7.4,3.8
		c-17.9,11.7-35.7,23.3-53.5,35.1c-14.2,9.4-28.3,18.9-42.2,28.5c-7.4,5.1-15.2,7.4-24.3,7.4c-42-0.1-84,0.1-126,0.3
		c-5.7,0-11.4,1.2-16.9,0.6c-8.3-1-16.6-0.2-24.9-0.2c-36.3-0.2-72.7-0.5-109-0.5c-7,0-12.8-1.6-18.5-5.7
		c-15.4-11.1-31.2-21.6-46.9-32.4c-1.1-0.8-2.2-1.5-3.3-2.2c-3-2-5.9-2.4-9.4-0.7c-8.1,3.9-16.3,7.5-24.6,11.2
		c-21,9.3-42.1,18.4-63.1,27.7c-3.8,1.7-7.8,1.8-11.7,1.8c-25.7,0.6-51.3,1.3-77,1.6c-23,0.3-46,0-69,0.1c-6.6,0-13.2-0.4-20.4-2.7
		c3.2-3.2,6.7-4.3,10.2-4.7c6.6-0.8,11.7-3.9,16.8-8c6.4-5.2,13.8-9.3,20.5-14.2c5.4-3.9,10.5-8.2,15.6-12.4c1.2-1,2.5-2.2,1.5-4.5
		c-0.8,0-1.9-0.2-2.6,0.2c-14.9,6.8-29.1,14.8-42.6,24c-7.7,5.2-15.6,10.2-23.4,15.3c-0.6,0.4-1.2,0.7-1.7,1.1
		c-2.7,1.9-5.1,4.7-8.1,5.5c-3.7,1-7.9,0.6-11.9,0.6c-78.3,0.2-156.7,0.4-235,0.7c-31.7,0.1-63.3,0.6-95,0.9c-7,0.1-14.1,0.6-19.8-4
		c-8.9,4.9-12.1,5.2-20.9,0.7c-5.3-2.7-10.5-5.8-15.6-9c-30.4-19.3-60.7-38.6-91.1-58c-27.5-17.6-54.9-35.4-82.4-53
		c-4.4-2.8-6.9-5.9-6.5-11.3c0.3-4.3,0-8.7,0-13c0.2-47.7,0.4-95.3,0.8-143c0-6.3,0.9-12.6,1.3-18.9c0.1-1.6,0.4-3.4,0-4.9
		c-1.6-5.6-1.1-11.3-1.1-16.9c0.2-21.3,0.5-42.7,0.6-64c0-7.3-0.5-14.7-0.4-22c0.2-13.3,0.8-26.6,0.9-40c0.2-21,0.1-42,0.3-63
		c0.1-14.1-0.6-12.8,11.8-20.3c17.7-10.6,35.1-21.8,52.7-32.7c21.8-13.5,43.8-26.8,65.7-40.2c17.4-10.6,34.9-20.9,52.1-31.8
		c5.4-3.4,10.6-4.9,16.8-4.9c39.7,0.2,79.3,0.3,119,0.4c33.3,0.1,66.7,0.2,100,0.2c4.3,0,8.6,0.4,12.8-1.3c1.9-3.6,1.4-7.3,1.5-10.9
		c0.1-12,0.1-24,0.1-36c0-33.7,0-67.3,0-101c0-3.3-0.7-6.7,1.7-10.2c6.2-1.4,12.8-0.6,19.4-0.6c16.7,0,33.3,0.4,50,0.6
		c7.7,0.1,15.3,0.2,23,0.3c2.3,0,4.7,0.5,6.3-2c-1.3-3.4-4.6-4.7-7.3-6.4c-7.5-4.9-15.3-9.5-22.8-14.4c-8.7-5.6-17.3-11.3-26-16.9
		c-6.2-4-9.3-9.3-7.3-16.9c0.5-1.9,0.6-4,0.4-5.9c-2-16.9-0.8-33.9-1.1-50.9c-0.2-9.3,0-18.6,0.1-28c0.1-9,0.9-18,0.5-26.9
		c-0.6-12.3,1.4-24.6-0.5-36.9c-0.2-1-0.2-2-0.1-3c2-15.9,1.1-32,1.1-47.9c0.1-13.6-0.1-12.1,10.4-17.7c32-17.2,64-34.4,96-51.6
		c24.3-13.1,48.8-26,73-39.5c9.4-5.2,19.1-7.4,29.6-7.2c42.3,0.9,84.6,2,127,2.5c34.7,0.4,69.3-0.2,104-0.3
		c10.3-0.1,20.7-0.4,31-0.4c40-0.1,80-0.1,120-0.3c26.3-0.1,52.7,0.2,79-0.8c29.3-1.1,58.6-1,88-1.8c8.7-0.2,15.5,2.2,21.8,7.9
		c8.4,7.6,16.9,15.1,25.5,22.5c23.8,20.4,47.6,40.7,71.4,61c1.4,1.2,3.3,1.8,5.7,3.1c0.7-2.1,1.5-3.6,1.6-5c0.2-4.7,0.2-9.3,0.2-14
		c0.1-21,0.2-42,0.4-63c0-3.6-0.6-7.3,1.6-11.4c1.9-0.3,4.1-1,6.3-1c44.7,0,89.3,0,134,0c0.7,0,1.3,0,2,0c6.7,0,7.8,0.9,10,7.3
		c1.7,5,4.5,9.7,7.1,14.3c0.9,1.6,2.8,2.9,4.5,3.7c0.9,0.4,2.3-0.3,3.8-0.5c-1-9.6-8.9-15.1-12.2-23.7c2.6-0.4,4.4-0.9,6.3-1
		c8.3-0.2,16.7-0.2,25-0.3c33-0.6,66-1.2,99-1.8c13.7-0.2,12.2-1.5,18.4,10.7c11.6,22.9,22.7,46,34,69.1c0.3,0.6,0.6,1.2,0.8,1.8
		c1.7,5.8,5.8,7.3,11.5,7.2c16-0.2,32-0.2,48-0.2c17,0,34,0,51,0.1c4.7,0,9.3-0.2,13.7,2.1c2.9,1.5,5.8,0.6,8.7-0.2
		c9.2-2.5,20.5-2.8,30.7-0.9c2.7,2.3,2.7,5.9,3.5,9c3.8,14.2,7.3,28.4,11.2,42.5c0.9,3.4,1.1,7.4,4.7,9.9c3.6-0.5,6.6-2.8,9.7-4.6
		c18.3-10.9,36.6-21.9,54.8-33.1c11.1-6.8,22-13.9,32.7-21.2c6.6-4.5,13.4-6.7,21.5-6.6c22.7,0.3,45.3,0,68-0.2
		c14.3-0.1,28.7-0.5,43-0.6c7.6,0,15.3,0.5,22.9,0.8c1.3,0,2.7,0.3,4,0c7.9-1.9,15.9-1.2,23.9-1.2c23.3-0.1,46.7-0.2,70,0.1
		c16.7,0.2,33.3,0.9,50,1.3c6.7,0.2,13.4,0.6,20,0.1c7.4-0.5,13.8,1.5,20,5c9,5.1,17.9,10.3,26.8,15.5c22.7,13.3,45.3,26.7,68,40.1
		c11.8,6.9,23.5,13.9,35.4,20.6c10.2,5.8,10.2,5.4,19.5-1.1c9.3-6.5,18.9-12.4,28.4-18.6c28-18.1,56-36.2,84-54.3
		c1.7-1.1,3.4-2.1,5-3.3c5.9-4.2,12.4-5.8,19.7-5.8c37.3-0.3,74.6-1.1,112-1.4c51.3-0.4,102.7-0.6,154-0.9c10.7-0.1,21.3-0.5,32-0.7
		c5.1-0.1,9.7-1.5,14.3-3.8c25.1-12.3,50.3-24.6,75.6-36.5c26.2-12.3,52.7-24.2,79-36.4c3.2-1.5,6.3-1.8,9.7-1.8
		c26.3-0.1,52.7-0.4,79-0.4c52.3,0.1,104.6,0.3,157,0.7c13,0.1,26,0.6,39,1c2.3,0.1,4.6,0.5,7.3,0.8c0.6,2.4,1.5,4.5,1.7,6.7
		c0.3,3,0.1,6,0.1,9c-0.3,36-0.7,72-1,108c-0.7,67.3-0.2,134.6,0.4,201.9c0.1,18.3,1,36.6,1.1,55c0.2,38.3,0,76.7,0.2,115
		c0,5.2-2.3,9.7-2.6,14.6c-0.4,4.9,2.6,9.3,2.6,14.6c-0.3,24.7-0.1,49.3,0,74c0,3.3-0.4,6.6,1.3,10.1c1.5,0.4,3.1,1.1,4.6,1.2
		c5.6,0.4,11.3,0.9,17,1c39,0.3,77.9,2.3,116.9,3.9c20,0.8,40,1.6,59.9,2.6c21,1,41.9,2.3,62.9,3.4c15.3,0.8,30.6,1.4,45.9,2
		c24.3,0.9,48.6,1.8,72.9,2.6c25,0.8,50,1.4,75,2.2c3.6,0.1,7.4-0.5,10.8,1.8c2,3.2,1.3,7,1.3,10.6c0.1,17.7-0.1,35.3-0.1,53
		c-0.1,62.3-0.1,124.7-0.1,187c0,3,0,5.9,0,9.3c-2.4,0.7-4.2,1.4-6,1.6c-2.6,0.3-5.3,0.1-8,0.1c-46.7,0-93.3,0-140-0.1
		c-14.3-2.5-28.5,0-42.8-0.2c-12.7-0.1-25.3-0.4-38-0.9c-5.9-0.3-11,1.4-16,4.4c-25,14.8-49.9,29.5-75.1,43.8
		c-5.7,3.2-8,7.2-7.9,13.6c0.3,20.7,0.3,41.3,0.5,62c0.4,45.7,0.7,91.3,1.1,137c0,5.7,0.1,11.3-0.1,17
		C3534.1,1197.7,3533.6,1199.9,3533.1,1203.3z M1762.2,1023.2c1.2,2.8,2.4,5.6,3.7,8.6c4.6-5.7,4.1-7.4-2-8.4
		c-0.6-0.1-1.3,0-1.9,0.1c-1.5-4.5-5.8-5.1-9.3-6.7c-10.8-5.2-11.3-7.9-10.6-19.6c0-0.7,0-1.4,0.3-2c3-7.6-1-14-2.9-20.8
		c-6.3,2-9,4.7-10.6,10.3c2.8,0.9,5.5,1.8,8.8,2.9c0,2.7,0,5.3,0,7.8c0,3.6-0.2,7.3,0,10.9c0.2,4.3,2.4,7.6,6.3,9.5
		C1749.9,1018.7,1755.6,1022.2,1762.2,1023.2z M2090.2,669c7.4-4.8,15.1-6.5,23.6-3.1c2.1,0.9,4.5,1.3,6.7,2c6.4,2,8,4,8.2,10.8
		c0.1,4.3-0.2,8.6-0.6,12.9c-0.2,2.6-1.1,5.2-1.3,7.9c-0.1,1.3,0.6,2.5,2.7,1.7c1.3-5,2.5-10.1,3.9-15.2c1.4-5.1-0.5-10.6,2.2-15.9
		c2.4-0.2,4.7-1,6.9-0.6c7.2,1.2,14.5,2.3,21.5,4.3c5.1,1.5,10,3.4,15.4,3.9c2,0.2,4,0.4,5.8,1.2c4.7,2.1,9.6,2.7,14.6,2.6
		c4.5-0.1,7.6,1.5,9.1,6.1c1.8,5.5,5.9,9.6,9.6,13.9c0.3,0.4,1.5,0.7,1.8,0.4c0.6-0.6,1.4-1.8,1.2-2.2c-2.1-4.5-4.4-8.9-6.7-13.3
		c-0.9-1.7-2.7-3.1-1.3-5.8c0.9-0.3,2-1.2,3.2-1.2c9.5-0.3,19.1-2.7,28.6,0.8c2.1,0.8,4.6,1,6.9,1c2.9,0,6,0,8.2-2.6
		c-5.5-3.8-6-4.2-11.8-4.6c-6.8-0.4-12.7-3.3-19.2-5.5c0.4-2.2,0.8-4,1.2-6.2c-1.2,0.3-2.2,0.3-2.9,0.7c-6.1,3.2-12.1,5.3-19,1.8
		c-1.8-0.9-4.5-0.2-6.7,0.3c-2.2,0.5-4.3,2.2-6.5,2.2c-2.9,0.1-5.9-1.5-8.7-1.2c-3.1,0.3-5.6,3.3-9.3,2.9
		c-7.6-0.8-15.3-0.9-22.8-2.1c-13.1-2.2-26.1-5-39.1-7.5c-4.3-0.8-7.1-3-9.3-6.7c-2.7-4.5-4.2-8.9-2.8-14.2c0.8-2.8,0.5-6,0.9-8.9
		c0.9-5.8-0.2-11.1-2.9-16.2c-3.4,0.1-4.2,2.5-3.9,4.8c1,7.1-1.1,13.9-1.7,20.8c-0.5,5.7-3.3,9.9-8.1,13c-1.6,1-3.9,1.4-3.8,4.7
		c2.1,1.3,4.6,2.7,7.3,4.4c-0.3,2.9-0.5,5.5-0.7,8.1c-3.7,1.2-6,3.9-8.1,7.1c-1.9,3-3.4,6.6-7.2,8.1c-1.2-0.6-2.4-1.1-3.5-1.8
		c-1.4-0.8-2.8-1.9-4.3-2.6c-5.3-2.4-10.5,0.8-10.3,6.6c0.1,3,0.8,5.9,1.3,8.9c0.5,2.8-0.9,5.8,0.5,8.8c5.6-3.9,10.9-7.2,15.8-11
		c3.4-2.7,6.4-5.9,9.2-9.1C2087.7,679.9,2090.6,675.1,2090.2,669z M802.3,594.6c3.1,1.9,6.6,1.2,9.8,1.2c29.7,0,59.3,0,89-0.1
		c91.3-0.1,182.6-0.2,273.9-0.4c25,0,50-0.3,75-0.3c3,0,5.9,0.1,8.7-1.5c4.4-2.5,8.9-4.5,13.3-7c20.6-11.6,41.2-23.3,61.7-35
		c7.8-4.4,15.6-9,23.6-13.1c5.8-3,8.6-6.9,7.1-13.6c-0.8-3.5-0.8-7.3-0.9-10.9c-0.5-27.7-0.9-55.3-1.3-83c0-2.3-0.2-4.7-0.1-7
		c0.3-4.5-1.9-7.6-5.5-9.9c-4.5-2.9-8.9-5.8-13.4-8.7c-26.1-16.6-52.3-33.2-78.4-49.9c-15.5-9.9-15.4-9.8-33.5-9.6
		c-34.7,0.3-69.3,0.7-104,0.7c-17.9,0-35.8,0.8-53.8-0.5c-5.6,1.8-11.2-0.6-16.8-0.1c-6.2,0.5-12.7,1.4-18.7,0.3
		c-4.8-0.9-9.3,1.1-13.8,0c-3.7-0.9-7.2-0.5-10.9,0.1c-1.4,0.2-3-0.3-5.2-0.6c0.7-1.9,1.1-3.1,1.7-4.2c0.6-1.2,1.4-2.2,2-3.5
		c0.2-0.5,0-1.5-0.4-1.7c-0.8-0.4-2-0.8-2.6-0.5c-1.4,0.9-2.5,2.2-3.7,3.3c-1.2,1.1-2.1,2.6-4.1,1.9c-0.2-0.6-0.6-1.3-0.6-1.9
		c0.1-16.3,0.2-32.7,0.3-49c0-1.3,0.1-2.7,0.4-4c0.4-2.1,1.7-3.7,3.9-3.9c2.3-0.3,4.7-0.3,7-0.4c12.3-0.1,24.7-0.3,37-0.3
		c51.3,0.1,102.6,0.2,153.9,0.2c46.3,0,92.6-0.2,139-0.3c4.3,0,8.7,0,13-0.2c1.6-0.1,3.1-0.7,5.2-1.3c0.2-3.2,0.5-6.1,0.5-9
		c-0.2-17.7-0.1-35.3-1-53c-0.4-8.2,0.5-15.2,7.8-20.1c1.1-0.7,1.1-2.3-0.7-3.5c-2,1.5-4.2,2.9-6.1,4.7c-3.1,3-6.7,4.2-10.9,3.9
		c-1.3-0.1-2.7,0-4,0c-67.3,0.2-134.6,0.3-202,0.6c-36.3,0.2-72.6,0.7-109,0.8c-25,0.1-50-0.2-75-0.3c-3.9,0-7.9,0.1-11.6-1.3
		c-0.2-11.2-3-15.7-10.4-16.8c-7.7-1.2-11.6,1.8-15.5,11.9c2.2,3.3,5.4,5.9,5.7,10.3c-2.2,3.2-5.7,4.5-8.9,6.3
		c-28.3,16.2-56.7,32.4-85,48.6c-2.3,1.3-4.4,2.9-7,4.6c-0.1,12.7-0.3,25.3-0.3,38c0.1,18.5,0.4,37,0.7,55.5c0,2.7,0.1,5.3,0.1,8
		c0,3.3,1.3,5.7,4.2,7.4c5.1,3.1,10.3,6.2,15.3,9.5c23.1,15.2,46.2,30.4,69.1,45.9c4.7,3.2,9.3,4.7,14.8,4.7c13.3,0,26.6,0.3,40,0.3
		c15.3,0.1,30.6,0.1,45.9,0c42-0.3,84-0.8,126-1.2c12.3-0.1,24.7,0.1,37,0.3c3.3,0,6.7-0.4,9.5,2.1c0.2,0.9,0.7,1.9,0.7,2.9
		c0,16.3-0.1,32.6-0.3,49c0,0.5-0.7,1-1,1.3c-3,1.2-5.4-3.2-8.8-0.5c-0.2,2.5-0.4,5.4-0.7,8.7c-4.8,0.4-9.1,0.9-13.4,1
		c-6.6,0.1-13.3-0.2-19.9-0.1c-17,0.2-33.9,0.5-50.9,0.6c-19.3,0.2-38.6,0.1-57.9,0.4c-23.6,0.3-47.3,1.1-70.9,1.2
		c-48.3,0.2-96.6,0.2-144.9,0.2c-4,0-7.9-0.2-11.5-0.3c-2-3.5-3.7-6.3-5.2-9.2c-0.6-1.1-1-2.4-1.2-3.7c-1.1-5-1.6-5.6-6.1-6
		c-3-0.2-6-0.2-9-0.1c-3.6,0-6.4,1.5-8.2,4.8c-1.1,2-2.2,4.2-3.6,6c-7.6,9.4-16.8,15.1-29.5,12.3c-2.9-0.6-5.9-1.2-8.9-1.1
		c-8.4,0.4-16.6-1.2-24.7-2.9c-2-0.4-3.9-1.1-5.9-1c-11.2,0.5-21.8-2.5-32.5-4.8c-11.4-2.4-22.7-5.3-33.9-8.5
		c-4.2-1.2-8.2-2.6-12.5-3.3c-5.2-0.9-10.4-2.4-15.5-3.9c-2.2-0.6-4.9-1.2-5.1-4.1c-0.2-2.3,2.1-3.2,3.7-4.3
		c1.3-0.9,3.2-1.3,2.7-3.8c-0.8-0.3-1.7-0.8-2.6-0.8c-21.3-0.2-42.7-0.3-64-0.4c-1.5,0-3.1,0.8-4.6,1.3c-0.3,1.7-0.6,3-0.7,4.3
		c-0.4,14.3-0.9,28.6-1.1,43c-0.3,18.7-0.3,37.3-0.4,56c0,2.3-0.2,4.8,0.4,6.9c0.4,1.3,1.9,2.7,3.2,3.3c1.4,0.6,3.3,0.3,4.9,0.4
		c23,0.9,45.9,1.8,68.9,2.7c1.7,0.1,3.3,0.1,5,0.2c17.3,1.1,34.6,2.3,51.8,3.3c21.3,1.2,42.6,2.2,63.9,3.3c13,0.7,25.9,1.6,38.9,2.3
		c3.2,0.2,6.7,1.1,10.2-1.7c0.1-2.5,0.3-5.4,0.3-8.3c-0.2-20.3-0.4-40.7-0.6-61c0-3,0-6,0.3-9c0.4-3.5,2.6-5.4,6-5.5
		c4,0,6.4,1.9,6.7,5.7c0.2,2.3,0.2,4.7,0.2,7c0.1,20.3,0.1,40.7,0.2,61C801.1,586.8,800.3,590.9,802.3,594.6z M543.4,650.8
		c-2.9,3.1-6.2,4.7-9.3,6.5c-14.5,8.2-28.9,16.5-43.3,24.9c-13.5,7.9-26.9,16-40.5,23.7c-11.1,6.2-10.1,5.5-10.1,17
		c0,34.7,0,69.3,0,104c0,19.6,0.3,39.3,0.3,58.9c0,21.3-0.2,42.5-0.3,63.8c0,4,0.1,8,0.2,12c0.1,2.1,0.8,4.2,2.7,5
		c4.5,1.8,7.4,5.6,11.3,7.9c7.7,4.6,15.5,9.2,23.2,13.7c23.5,13.8,47.3,27.3,70.5,41.7c8.1,5,16.1,7,25.4,6.9
		c49.7-0.5,99.3-0.6,149-0.8c62.7-0.3,125.3-0.5,188-0.8c19-0.1,38,0,57,0c2.9,0,6.1,0.7,8.7-2.5c0.1-2.1,0.3-4.8,0.3-7.4
		c0-9.7-0.1-19.3-0.1-29c0-61.3-0.1-122.7-0.1-184c0-4,0.2-8,0.2-12c0.1-3.5,1.1-6.5,3.7-8.9c1.2-1.1,2.1-2.5,3-3.8
		c0.2-0.3-0.5-1.1-0.9-1.8c-0.9,0.4-2.1,0.5-2.6,1.2c-4,6.2-10,6.6-16.7,6.6c-28.7-0.2-57.3-0.1-86-0.2c-17-0.1-34-0.4-51-0.6
		c-3.3,0-6.7,0.1-9.4-2.5c-0.3-0.6-0.9-1.2-0.9-1.8c0.1-5.3-2.9-8.7-7.1-11.2c-4.3-2.5-8.9-3-13.5-1.3c-1.8,0.7-3.7,1.7-4.9,3.2
		c-6.2,7.8-4,17,4.1,21c2.7,1.3,5.7,2,7.5,5.3c0.1,0.9,0.2,2.3,0.2,3.6c-0.1,17-0.2,34-0.2,51c0,22.7,0.2,45.3,0.2,68
		c0,2.5,0.9,5.3-1.8,7.6c-2.7-0.9-5.4-1.8-8.8-2.9c-0.6,3.7-1.1,6.8-1.7,10.2c-2.7,0-5.1,0-7.4,0c-15.3,0-30.7,0.2-46,0.1
		c-37,0-74-0.1-111-0.2c-2.2,0-4.4-0.5-6.8-0.8c0.3-3.1,0.5-5.6,0.8-8.2c-3.4,0.4-4.8,5-8.8,2.3c-1.7-5.8-1-12.2-1-18.4
		c0-24,0.2-48,0.3-72c0.1-39,0.1-78,0.2-117c0-2.9-0.7-6,1.8-9.1c2.2-0.1,4.8-0.5,7.4-0.5c62.3,0.1,124.6,0.4,187,0.4
		c52.7,0,105.3-0.2,158-0.3c3.3,0,6.7,0.5,9.7-1.3c2.6-2.8,2-6.3,1.9-9.6c-0.3-15.7-0.8-31.3-1.1-47c-0.3-14.3-0.9-12.6,7.4-21.5
		c0.8-0.9,2-2.1-0.1-3.5c-1.2,0.9-2.8,1.6-3.9,2.7c-3.6,3.6-7.8,4.8-12.8,4.3c-1.3-0.1-2.7-0.1-4-0.1c-58.7-0.3-117.3-0.8-176-0.9
		c-66-0.1-132,0.3-198,0.5c-11.1,0-11.2-0.1-15-10.3c-1-2.8-2.5-4.7-5.5-5.1c-7-1.1-13.9-1.2-20.8,1c-4,1.3-7.1,3.4-9.1,7.5
		C539.3,640.8,541.2,645.4,543.4,650.8z M2326.2,805.9c0.7,5.8,0.7,10.7,0.7,15.7c0.2,45,0.4,90,0.7,135c0.1,21.3,0.2,42.7,0.3,64
		c0,3,0.1,6,0.5,9c0.3,2.2,1.8,3.6,4,3.8c2.3,0.2,4.7,0.3,7,0.3c9,0,18,0,27,0.1c23.7,0.1,47.3,0.1,71,0.2
		c11.7,0,11.7-0.2,11.7-11.6c-0.1-19.7-0.4-39.3,0.2-59c1.5-56.7,1.7-113.3,0.8-170c-0.1-6.7,0.6-12.5,5.7-17.3
		c1.1-1,2.2-2.6,0.3-4.9c-2.7,1.3-5.6,2.6-8.6,4.1c-3.3-2.1-6.4-4.1-9.4-6.1c-5-3.4-9.8-6.9-14.8-10.2c-18.3-12.2-36.6-24.3-55-36.4
		c-4.3-2.8-7.4-5.9-4.3-11.4c0.3-0.5,0.3-1.4,0.1-1.9c-0.2-0.5-0.8-0.9-1.3-1.3c-0.2-0.2-0.8-0.2-0.9,0c-1.2,1.1-2.6,2.1-3.4,3.5
		c-2.5,4.4-6.4,5.5-11,5.4c-1,0-2,0-3,0c-12.7,0-25.3,0.1-38,0.1c-25,0.1-50,0.3-75,0.3c-40,0.1-80,0-120,0c-19,0-38,0.4-57,0.5
		c-4.3,0-8.7-0.1-13-0.5c-3.6-0.4-6.2-2.2-6-6.8c4.3-1.1,8.5-2.1,12.6-3.2c1.2-0.3,2.4-1.1,1.5-3.2c-3.9-0.9-8-1.2-12.1-3.1
		c-4.6-2.2-10-3.4-15.5-2c-2.8,0.7-5.9,1.5-8.8-1.2c-0.7-4.3,1.4-8.2,2.4-12.3c1.1-4.4,2-8.9,3-13.3c13-5.1,13.4-3.6,17.1,7.7
		c0.6,1.9,0.4,4.8,3.5,5.3c0.3-0.8,0.7-1.4,0.7-2c-0.1-1.7-0.2-3.3-0.5-5c-0.3-2-0.9-3.9-1.1-5.9c-0.4-3.1,0.8-5.3,3.7-6.3
		c3.4-1.2,7.1-1.9,10.6-2.9c7.4-2.1,14.7-4.2,22-6.4c1.6-0.5,2.8-1.8,1.6-4.5c-1.3,0-3-0.2-4.5,0c-11.8,1.7-24,0.9-35.5,5
		c-2.2,0.8-4.6,1.2-6.5-1c-0.6-4,1.9-6.2,5-7.7c10.8-5.4,20.4-12.4,29.3-20.5c4.9-4.5,8-9.3,10.3-15.3c-10.9-1.4-28-1.1-39.2,0.5
		c-3.1-1.4-5.1-4.8-9-5.7c-8.7-1.9-15.8-6.7-21.4-13.7c-2.3-2.8-5.1-5.3-8-7.5c-2.3-1.7-5-1.7-7.5,0c-2.2,1.4-4.3,3-6.1,4.3
		c-4-0.7-5.6-3.2-6.5-6.2c-1.1-3.5-1.9-7.1-3.1-10.5c-0.5-1.5-1.4-3.2-2.6-4.1c-1.2-0.8-3.2-0.9-4.5-0.5c-0.9,0.3-1.8,2.1-1.7,3.2
		c0.2,2.3,1.1,4.5,1.6,6.7c0.6,2.9-0.4,5.5-3.1,6.7c-4.2,1.9-8.6,2.9-13.2,2.3c-1.7-4,0.2-7.1,1-10.2c1.4-5.2,1.8-10.5,1.3-15.9
		c-0.2-2.2-1.1-4.5-2.1-6.5c-0.9-1.8-2.8-3.4-4.8-2.6c-1.6,0.7-3,2.5-3.8,4.2c-0.7,1.7-0.5,3.7-0.7,5.5c-8.4,2.9-14.7-2.6-21.6-4.1
		c-6.2-1.4-8.8-8.6-14.1-12.2c1.3-5.2,0.2-9.5-2.4-13.7c-2.5-3.9-4.4-8.3-7.3-11.9c-7.4-9.4-15.2-18.5-22.9-27.7
		c-0.4-0.5-1.1-0.8-1.6-1.2c-1.3-0.9-3.8-0.1-4.1,1.4c-1.1,6.8-0.8,13.1,3.5,19c7.4,10.3,14.4,20.8,21.4,31.3c1.8,2.8,3.2,5.8,5,8.6
		c4.9,7.6,10.6,13.6,21.1,11.6c3.1-0.6,6.6,0.6,9.8,1.2c2.1,0.4,3.3,2.9,2.2,4.7c-2.8,4.8-5.9,9.5-9.2,14.8
		c-1.8-2.1-3.2-3.8-4.3-5.1c-1.3,0-2-0.2-2.6,0c-3.9,1.6-7.1,0.3-10.3-1.9c-3.3-2.3-6.9-4-7.6-8.6c-0.6-4.1-3.2-7.2-6.2-10
		c-2.4-2.2-4.3-5-6.4-7.6c-3.8-4.6-7.5-9.3-11.5-13.8c-0.6-0.7-2.2-0.7-3.5-1c0,7.1-0.1,9.4,2.8,12.9c5.2,6.2,7.2,13.3,8.7,20.9
		c0.6,2.9,2.1,5.6,3.1,8.4c0.4,1.1,0.3,2.3,0.4,3.6c-4,0.3-6-2.3-8.6-3.6c-1.4-0.7-3.1-1.1-4.7-1.4c-0.5-0.1-1.3,0.4-1.6,0.9
		c-0.3,0.5-0.5,1.4-0.2,1.8c0.9,1.3,1.9,2.7,3.2,3.7c2,1.6,4.1,3.1,6.5,4.7c-1.8,3.8-2.9,7.3-7,9.1c-1.6-1-3.3-1.9-4.9-3
		c-1.6-1.1-3.1-2.9-5.3-1.8c-2.8,1.4-1.6,4-1.4,6.2c0.1,1.3,0.4,2.7,0.2,4c-0.7,4.6-3.3,7.9-7.5,9.8c-1,0.5-3.1-0.7-3.1-1.8
		c0.1-2.2,0.3-4.4,0.6-7.3c-7.1,0.2-13.4,0.8-20.2,1.9c0.4,3.1,0.9,5.7,0.9,8.3c0,1.5-0.8,3-1.4,5c-5.4-2-10.1-1-14.9,0.7
		c-5.1,1.8-7.1,0.5-9.2-4.6c-1.1-2.8-2.1-5.6-3.5-8.2c-0.5-0.8-2.4-1.5-3.4-1.3c-1,0.2-2,1.7-2.3,2.8c-0.5,2,1.8,4.5-1.2,6.5
		c-4.6-0.1-8.8-2-12.8-4.6c-1.4-0.9-2.9-1.6-4.4-2.2c-0.4-0.2-1.3,0.3-1.7,0.7c-0.3,0.4-0.4,1.3-0.2,1.8c0.4,0.9,1,1.8,1.8,2.3
		c3.5,2.5,7.1,4.9,10.7,7.3c2.5,1.6,5.3,2.9,7.6,4.8c4,3.3,3.5,7.4-1.1,9.5c-3,1.3-6.4,1.9-9.5,3c-1.8,0.6-3.4,1.5-5.6,2.5
		c1.1,1.6,1.6,2.9,2.5,3.7c1.7,1.6,3.7,2.8,5.5,4.3c2.1,1.6,2.7,3.7,1.7,6.2c-1.3,3-2.6,5.9-4.2,9.9c3.4-0.9,5.8-1.5,7.9-2.1
		c2.9,2.6,3,5.7,3.2,8.7c0.3,4,0.1,8,0.7,12c0.7,4.6-0.8,7.6-5,9.7c-4,2.1-8.1,4.4-12,8.7c6.6,0.3,11.6-1.1,16-4.3
		c3.2-2.3,6.5-4.6,9.8-6.8c3-2,5.9-4.2,8.2-7c-7-7-7-7-10.1-17.8c-0.5-1.6-1-3.2-1.5-4.8c-0.6-1.6-1.4-3-1.9-4.6
		c-0.7-2,0.2-4,2.1-5.1c1.7-1,3.9-0.6,5.3,1.4c1.2,1.6,2.2,3.4,2.8,5.2c0.8,2.2,1.2,4.5,1.7,6.8c0.9,4.1,2.9,7.4,7,9.1
		c1.2,0.5,2.5,1.1,3.5,1.9c1.9,1.6,2.6,3.8,2,6.3c-0.5,1.9-2.2,2.2-3.9,2.6c-0.8,0.2-1.5,0.9-2.6,1.6c1.2,1.9,2.1,3.5,3,4.9
		c1,0,1.4,0.1,1.6,0c0.8-0.6,1.5-1.3,2.2-1.9c5.2-4.2,10.4-2.4,11.6,4.1c0.4,2.3,0.4,4.6,0.8,6.9c0.5,2.5,2.7,3.8,5.3,3
		c8.5-2.4,16.3-5.7,21.8-13.1c1.5-2,3.7-3.5,7.1-6.6c0.7,7.7,6.8,8.5,10.4,11.1c2.6,7.7-3.1,12.4-5.1,18.3
		c3.8,5.1,8.1,8.9,13.9,10.3c5-2.9,3.9-9.7,9.1-12.1c3.5,2.5,7,4.9,10.5,7.4c2.6,1.9,2.9,5.4,0.5,7.8c-1.4,1.4-3.3,2.4-4.4,3.9
		c-0.6,0.8-0.6,3,0.1,3.5c2.8,2.3,5.8,4.5,9,6.1c3.3,1.6,5.2-2.2,8-3c0.3-0.1,0.7,0,1.7,0c4.4,3.3,8.6,7.4,11.6,12.8
		c0.9,1.6,2.6,2.7,4.2,4.4c2-2.2,3.5-3.9,5.1-5.4c1.2-1.1,2.6-2.2,4.1-2.6c2.9-0.7,6-0.6,8.9-1.3c2.8-0.6,5.4-1.9,7.7-2.8
		c1.8,6.3,3.5,12,5,17.8c1.5,5.8,2.4,11.7,1.5,17.6c-0.9,3.3-6.5,2.9-5.7,7.8c2.1,0.6,4.4,0.9,6.4,1.9c2.3,1,3.2,4.5,6.5,3.8
		c3.7-9.1,4.2-9.8,12.7-15.8c3.5-2.5,7.3-4.7,10.9-7.1c0.9-0.6,1.6-1.6,3.2-3.1c-9.7-1.4-15.6,6.1-23.9,7.1c-1.1-4-2.1-7.8-3.2-11.6
		c-0.3-1-0.7-1.9-0.7-2.9c0-1.3,0.2-2.7,0.8-3.8c1.2-2.4,2.4-4.8,3.9-6.9c5.3-7.1,9.6-7.4,16.3-1.4c2.5,2.2,5,4.4,7.8,6.1
		c1,0.6,3.2-0.1,4.5-0.7c1.1-0.5,0.3-2.7-1.5-3.9c-0.6-0.4-1.2-0.6-1.7-1c-5.4-3.5-5.7-4.4-3.7-10.6c0.6-1.9,1.2-3.9,2.1-5.6
		c0.7-1.2,2.1-2.1,3.5-3.5c3.1,3.4,5.7,6.5,9.8,7.6c3.2,0.9,4.7,3.5,4.7,6.9c0,2,0,4,0,6c-0.3,26-0.8,52-0.9,78
		c-0.3,65.3-0.4,130.7-0.5,196c0,2.7-0.1,5.3,0.1,8c0.1,1.6,0.7,3.2,1,4.6c1.3,0.5,2.2,1.1,3.1,1.1c39.3,0.1,78.7,0.1,118,0.1
		c1.3,0,2.5-0.6,3.4-0.8c2.4-2.5,2-5.3,2-7.9c0.1-5.3,0-10.7,0-16c0.3-32.3,0.6-64.7,0.9-97c0.3-32.7,0.5-65.3,0.9-98
		c0.1-8.5,0.7-8.9,9.2-9.2c0.3,0,0.7,0,1,0c51-0.5,102-1.1,153,0.7C2319.7,805.4,2322.3,805.7,2326.2,805.9z M1698.1,351.5
		c3.3,0,6.6-0.2,9.9-0.1c44.7,0.9,89.3,0.4,134,0.3c2.3,0,4.7,0,7-0.3c2.9-0.4,4.8-2.2,5.3-5.2c0.4-2.3,0.5-4.6,0.5-7
		c0-9.7-0.1-19.3-0.3-29c-0.1-9.3-0.1-18.7-0.5-28c-0.2-5.4,1.4-9.8,5.6-13.2c1.3-1,2.4-2.3,3.3-3.7c0.5-0.7,0.4-1.7,0.7-3.5
		c-1.8,0.6-3.2,0.8-4,1.5c-4.3,3.9-9.5,4.5-14.9,4.5c-7,0-14,0.2-21,0.2c-37.7,0-75.3,0-113-0.1c-2.2,0-4.4-0.6-6.5-0.9
		c-0.1-0.9-0.1-1.2-0.2-1.6c-0.2-1.2,0.1-2.8-0.6-3.6c-1-1.3-2.3-0.3-3.4,0.5c-1.2,0.9-2.6,1.6-4.3,2.8c-0.7-2-1.4-3.1-1.4-4.3
		c-0.2-17.3-0.3-34.7-0.5-52c0-3.9,1.3-7.1,4.2-9.7c0.9-0.8,1.9-2,0.1-3.7c-1,0.6-2.3,1.1-3,2c-2.3,2.9-5.4,3.7-8.9,3.8
		c-2,0.1-4,0.1-6,0.1c-17.3,0-34.7,0-52,0c-18.3,0.1-36.6,0.3-54.9,0.3c-3.9,0-7.9-0.4-11.6-3.1c0.8-2.4,1.4-4.7,2.4-6.7
		c0.9-2,2.3-3.8,3.2-5.3c-1.6-3.8-4.4-5.1-7.2-6.1c-6-1.9-12.1-3.5-18.1-5.4c-10.1-3.2-20.6-5.7-29-12.8
		c-6.9-5.8-13.9-11.5-20.2-17.8c-7.1-7-13.4-14.7-20.1-22.2c-0.7-0.7-1.2-1.6-1.7-2.4c-3.7-6.2-1.6-11.1,5.5-12.4
		c2.9-0.6,6-0.9,8.8-1.7c2.5-0.7,5.5,0.8,8.1-2.1c-9.8-0.1-19.2-0.3-28.5-0.2c-1.8,0-3.6,1.1-5.1,1.6c-0.3,1.2-0.7,1.9-0.7,2.5
		c-0.4,24.3-0.6,48.7-1.2,73c-0.1,5.6,2.3,9.4,6.3,12.9c16.8,14.7,33.5,29.5,50.2,44.3c5.7,5.1,11.4,10.2,17.2,15.3
		c1.7,1.5,3.4,3.2,6.7,2.2c0.1-1.7,0.4-3.6,0.4-5.5c0.1-6.3-0.1-12.7,0.1-19c0.1-3.6,0.7-7.3,1.5-10.8c0.6-2.8,3.8-4.3,7.2-4.1
		c2,0.2,3.2,1.9,3.6,5.2c0.1,1,0.3,2,0.2,3c-0.1,13.3-0.2,26.7-0.4,40c0,1.5-0.9,3-1.4,4.7c-2,0.3-3.6,0.6-5.3,0.6
		c-28,0.2-56,0.3-84,0.4c-2.3,0-4.7-0.3-6.9-0.7c-2.7-0.5-4.2-1.8-4-4.8c0.3-4.4-1.7-6.9-5-9c-1.1-0.7-2.2-1.5-3.3-2.2
		c-8-5.1-11.9-5.2-18.6,1.4c-5.7,5.6-12.6,5.7-19.5,5.5c-4.5-0.1-9-2-13.5-3c-2.8-0.6-4.8-2.3-6.3-4.6c-1.4-2.3-2.5-4.7-3.9-7
		c-0.6-1-1.7-1.6-3.4-3.3c-0.5,3.4-1.1,5.6-1.1,7.8c-0.3,10.3-0.4,20.7-0.6,31c-0.1,2.7-0.2,5.3-0.6,8c-0.3,2.2-1.9,3.6-4,3.9
		c-2.3,0.3-4.6,0.4-7,0.4c-8.3-0.1-16.7-0.2-25-0.3c-2.2,0-4.5,0.3-8.2,0.7c2.2,1.7,3.2,2.5,4.2,3.1c14.9,8.9,29.7,17.8,44.7,26.6
		c12.6,7.5,25.3,14.9,38,22.1c2.1,1.2,4.3,3.4,7.6,1.6c0.5-4.5-0.1-9.1-0.2-13.7c-0.4-14.6-0.9-29.3-1.3-43.9
		c-0.2-7.6,1.6-12.3,11.5-7.5c0.6,0.3,1,0.9,1.8,1.6c1.4,4.2,1.1,8.8,1.1,13.5c0,15-0.1,30-0.1,45c0,2.6-0.5,5.4,2.3,8
		c2,0.2,4.6,0.7,7.2,0.7c10.3,0.3,20.7,0.6,31,0.8c20,0.5,40,0.9,60,1.4c3.9,0.1,8-0.2,11.7,2c1.6,4,1.3,8,1.3,12
		c0.1,49.7,0.2,99.3,0.3,149c0,2.7,0,5.3,0.1,8c0.1,3.2,1.3,5.8,4,7.7c1.6,1.1,3.2,2.3,4.9,3.4c11.7,7.7,23.3,15.5,35,23.1
		c16.2,10.6,32.5,20.9,48.6,31.5c4.7,3.1,9.5,4.5,15.1,4c5.3-0.5,10.7-0.5,16-0.5c54.3,0.1,108.7,0.4,163-1c3.7-0.1,7.3-0.2,11-0.5
		c2.8-0.3,4.1-1.7,4.5-4.5c0.2-1.6,0.3-3.3,0.3-5c0-24.7,0.1-49.3,0-74c0-8.2-0.9-9-9.4-8.9c-17,0.2-34,0.5-51,0.7
		c-27.3,0.3-54.7,0.5-82,0.7c-1.5,0-3.1-0.6-4-0.8c-2-2.7,2.2-4.9-0.7-6.9c-3.6-1.5-5.1,4.5-9.6,2.1c-0.2-2.9-0.6-6.1-0.6-9.4
		c-0.1-26.6,0-53.3,0-79.9c0-14,0-28,0.1-42C1695.8,359.9,1695.3,356.1,1698.1,351.5z M2063.9,490.2c-5.8-0.2-5.7,5.9-10.3,6.1
		c-2.6-5.5-1.2-11.2-1.6-16.7c-0.4-6-0.3-12-0.1-18c0.2-5.5-1.1-11.3,1.7-16.9c2.2-0.3,4.1-0.7,6-0.7c6.3,0,12.7,0.2,19,0.2
		c31.3,0.4,62.6,1.1,93.9,1.2c43.6,0.1,87.3-0.2,130.9-0.3c10.3,0,20.6-0.2,31-0.5c3.6-0.1,7.4,0.3,10.5-1.9
		c2.1-3.1,1.4-6.5,1.5-9.8c0.1-28.3,0.1-56.6,0.2-85c0-3.6-0.7-7.3,1-10.9c2.2-1.4,4.5-2.7,6.7-4.2c0.4-0.3,0.7-1.5,0.4-1.8
		c-0.5-0.7-1.8-1.6-2.1-1.4c-4.5,3.1-8.2,0.7-11.9-1.7c-1.4-0.9-2.8-1.8-4.2-2.7c-28.5-18.5-57-37-85.5-55.5c-1.6-1.1-3.2-2.4-5-3.8
		c0.5-2,1.1-3.9,1.4-5.8c0.1-0.8-0.4-2.1-1.1-2.5c-0.6-0.3-2.3-0.1-2.6,0.4c-3.2,5.4-8.3,6-13.9,5.9c-5.7-0.1-11.3,0.4-17,0.4
		c-40.6,0.3-81.3,0.6-121.9,0.7c-11.7,0-23.3-0.2-35-0.5c-2.9-0.1-6.1,0.4-8.7-2.5c0.6-1.9,1.3-4,2-6.4c-2-2.3-3.9-4.6-5.9-6.8
		c-3-3.3-6.7-4.1-10.9-3.5c-3.8,0.5-7,2.1-9.8,4.6c-4.3,3.8-5.4,8.1-3,13.5c1,2.3,2.7,4.4,4.4,7c-2.6,2-4.7,4.1-7.2,5.7
		c-8.1,5.3-16.2,10.5-24.3,15.7c-19.9,12.7-39.8,25.5-59.8,38.1c-4.4,2.8-6.4,6.5-6.4,11.6c0,9.9,0.9,19.9,0.2,29.8
		c2.2,6.5-1.2,13.2,1,19.7c-2.1,11.1,0.8,22.4-0.9,33.5c-0.1,0.9,0.4,2,0.4,2.9c0.1,2.6,0.3,5.3,0.3,7.9c-0.1,6.3-1,12.6-0.1,18.7
		c0.8,6.3-1.1,12.5,0.5,18.7c0.7,2.7-0.9,5.9-0.6,8.9c0.7,7.9,1.2,15.8-0.3,23.7c-0.2,1.2,0.2,2.6,0.3,3.9c0.2,3,0.9,6,0.5,8.9
		c-1,7.3,2,12.2,8,15.8c4.8,2.9,9.6,6,14.3,9.1c23.9,15.8,47.8,31.6,71.7,47.4c2.9,1.9,5.8,2.8,9.4,1.8c2.5-0.7,5.2-0.9,7.9-0.9
		c25.6-0.6,51.3-1.4,76.9-1.4c37,0,74,0.8,110.9,1c35.6,0.2,71.3,0.2,107,0.1c12.2,0,12.5-0.5,12.5-12.3c0.1-22.7,0.2-45.3,0.3-68
		c0-2,0.1-4-0.1-6c-0.3-3.2-1.8-5-4.9-5.3c-4-0.4-8-0.5-12-0.5c-85.3-0.1-170.6-0.1-255.9-0.2c-3.6,0-7.3-0.3-10.9-0.5
		c-0.4,0-0.8-0.9-1.2-1.3C2062.1,495.1,2062.8,493,2063.9,490.2z M2429.5,329.9c-2.9-1.9-4.8-3.3-6.8-4.4c-1.7-1-4.3-0.7-4.4,0.5
		c-0.2,1.2,0,2.6,0.5,3.7c0.8,1.4,1.9,2.7,3.2,3.8c3.9,3.3,5.1,7.6,4.7,12.5c-0.2,2-0.1,4-0.1,6c-0.7,49.3-1.2,98.6,0.1,147.9
		c0.1,5.3,0,10.7,0.4,16c1,12.7-0.6,10.4,10.1,17.5c25.3,16.6,50.7,33.2,76.1,49.8c3.9,2.5,7.8,4.7,12.9,4.6c10-0.4,20-0.1,30-0.1
		c36.3-0.1,72.6-0.2,109-0.2c36.3,0.1,72.5-0.3,108.8-0.5c14.2-0.1,28.5-0.7,42.7-1.1c6.3-0.2,12.7-0.3,19-0.6
		c7.5-0.4,8.3-1.4,8.5-9.1c0-0.7,0-1.3,0-2c0-18.3,0.1-36.7,0-55c0-5.3,0-10.7-0.3-16c-0.1-1.8-1.1-3.6-1.7-5.6
		c-24.1,0-47.8-0.1-71.4,0c-24,0.1-48,0.2-71.9,0.4c-23.7,0.2-47.3,0.5-71,0.6c-23.9,0.1-47.9,0.8-71.5,0.4
		c-1.5-3.3,2.5-5.3,0.6-8.5c-2.4,1.6-4.7,3.1-7.3,4.8c-0.6-1.6-1.1-2.5-1.1-3.4c-0.1-14.7-0.1-29.3,0-44c0-1.2,0.8-2.4,1.4-3.9
		c3.2-0.2,6.1-0.5,9.1-0.5c31-0.4,62-0.8,93-1c15.6-0.1,31.2-0.3,46.8,0.3c11.9,0.4,23.9-0.5,35.9-0.5c14.6,0,29.3,0.6,43.9,0.6
		c18.7,0.1,37.3-0.1,56-0.3c2.9,0,6.1,0.6,9.2-2.4c0.1-2.3,0.5-5.2,0.5-8.2c-0.3-29.3-0.8-58.6-0.9-88c0-6.4-2.3-10.9-7.3-14.4
		c-4.1-2.9-8.2-5.7-12.4-8.5c-24.8-16.2-49.7-32.4-74.5-48.6c-3.3-2.2-6.9-4.1-9.3-7.5c0-2.9,0-5.8,0-8.7c-4.2,0.1-2.7,4.5-6.2,6.3
		c-2.1,0.1-5.4,0.3-8.7,0.3c-44.6,0.3-89.3,0.5-133.9,0.7c-12.9,0-25.9,0.9-38.8-0.2c-8.4,2.3-14.8-1.1-20.6-7c-2-2.1-5-3.4-7.7-4.4
		c-2.4-0.9-5.2-1.4-7.8-1.3c-10.4,0.4-14.6,8.2-9.7,17.3c0.9,1.7,3,2.8,1.9,6.3C2483.1,293.1,2455.8,310.4,2429.5,329.9z
		 M2940.1,876.3c0.2-2.9,0.4-5.8,0.5-8.8c0.3-29,0.5-58,0.8-87c0-1.3,0-2.7,0-4c0-3.2-1.1-5.9-3.7-7.8c-4-3-7.8-6.2-12-9
		c-22.3-14.7-44.6-29.2-66.9-43.8c-6.7-4.4-6.8-4.3-10-11.1c-6.1,5.6-6.1,5.6-14.9,5.7c-13.3,0.1-26.7,0-40,0.1
		c-50,0.3-100,0.6-150,1.2c-6.5,0.1-11.6-0.9-14.6-7.6c-1.9-4.3-5.8-7.3-10.7-8.4c-4.7-1-9.6-1.1-13,2.9c-3.4,4.1-2.3,8.8-0.4,13.2
		c1,2.4,2.7,4.4,4.1,6.5c-1.8,4-5.3,5.4-8.4,7.3c-22.8,13.8-45.6,27.7-68.5,41.3c-5.8,3.5-8.5,8.1-8.3,14.7c0.2,4.7,0.1,9.3,0.1,14
		c0.1,47,0.2,94,0.3,141c0,7.7,0.3,15.3-0.1,23c-0.4,6.8,2.3,11.4,8.1,14.8c5.8,3.4,11.1,7.4,16.9,10.7c24.3,14,47.6,29.4,71.1,44.7
		c3.5,2.3,7.1,3.3,11.2,3.3c8-0.1,16,0.1,24,0.1c63.3-0.3,126.6-0.5,189.9-0.8c28.3-0.2,56.6-0.5,85-0.8c2.9,0,6,0.8,9.2-1.8
		c0.1-2.5,0.4-5.4,0.4-8.4c0-9-0.2-18-0.2-27c-0.1-15,0-30-0.1-45c0-3.2,0.7-6.7-2.8-10c-3.3-0.1-7.3-0.3-11.2-0.3
		c-71-0.2-142-0.4-212.9-0.7c-15.3-0.1-30.7-0.4-46-0.7c-1.2,0-2.5-0.7-3.3-0.9c-1.1-3,2.1-5.4,0-8c-3-1-3.4,4.2-6.5,2.6
		c0-14.7,0-29.4,0-44c0-1.3,0.3-2.6,0.6-3.9c0.2-0.6,0.7-1.1,1.5-2.3c2.4-0.3,5.3-1,8.3-1c19.3-0.2,38.6-0.4,57.9-0.5
		c11.3,0,22.6,0.2,33.9,0.2c26.3-0.1,52.6-0.3,79-0.5c30.7-0.2,61.3-0.5,92-0.8C2933.3,878.5,2936.3,878.9,2940.1,876.3z
		 M1046.5,966.4c10,7,19.3,13.5,28.6,19.9c21.7,14.9,43.5,29.6,65.2,44.6c4.6,3.2,9.3,5.1,14.9,4.8c2.7-0.1,5.3,0,8,0
		c35,0,70-0.1,105,0c31.3,0,62.6,0.1,94,0.2c6.5,0,12.4-1.1,17.9-4.8c16.9-11.3,34-22.3,51-33.4c8.4-5.5,16.7-11,25.1-16.3
		c3.4-2.2,5.1-5,5.1-9.1c0-4.3,0.4-8.7,0.4-13c0.2-50,0.4-100,0.6-150c0.1-25.7,0-51.3-0.1-77c0-6.3,0.6-12,6.4-15.9
		c0.5-0.3,0.9-1.1,1-1.7c0.1-0.5-0.1-1.3-0.5-1.7c-0.4-0.4-1.2-0.5-1.8-0.4c-0.6,0.1-1.4,0.4-1.7,0.9c-3.9,5.1-9.3,5.5-15.2,5.4
		c-31-0.5-62-0.9-93-0.9c-6.2,0-11-1.2-14.7-6.4c-1.3-1.8-3.4-3.2-5.4-4.3c-2-1.1-4.3-1.9-6.5-2.1c-4.5-0.5-7.9,2.3-8.5,6.6
		c-0.9,6.1,0.1,11.8,6.3,14.3c7.7,3.1,8.9,9.1,8.9,16.1c0,1.3,0,2.7,0,4c-0.2,15.6-0.5,31.3-0.6,46.9c-0.3,34.7-0.5,69.3-0.7,104
		c-0.1,10,0.1,20,0,30c0,1.8,0.6,4-1.6,5.2c-3.6-0.1-5.5-5.1-10.2-3.4c-1.2,3.1-1,6.2,1,9.2c0.8,1.2,2.3,2.5,0.6,4.7
		c-1.3,0.1-3,0.2-4.6,0.2c-18-0.1-36-0.2-54-0.4c-23-0.3-46-0.7-68.9-1c-3.5,0-7.1,0.3-11.2,0.5c0.8-3.5,1.4-6.3,2-9.2
		c-4.3,0.4-4.7,6.3-9.7,5.4c-1.6-3.6-1-7.6-1-11.5c0.1-57.7,0.2-115.3,0.3-173c0-7,0.3-14,0.3-21c0-6.6,1.2-12.6,7.5-16.4
		c1.1-0.7,1.9-1.9,2.5-3.1c0.3-0.7,0.1-1.7,0.1-2.6c-3.8,0.1-5.6,2.8-7.5,4.9c-2.5,2.7-5.4,3.7-8.9,3.7c-2.3,0-4.7,0-7,0
		c-21.3-0.1-42.7-0.2-64-0.3c-9.3,0-18.7-0.1-28-0.1c-4.5,0-8.3-1.4-11.8-4.4c-3.5-3-7.5-5.4-11.6-7.6c-3.3-1.8-7.1-2.4-10.7-1.1
		c-1.8,0.6-3.7,1.8-4.7,3.3c-2.5,3.8-1.3,10.8,2.1,13.8c1.2,1.1,2.6,2.2,4.1,2.8c5.2,2.1,6.6,6.1,6.5,11.2c-0.1,6.3,0.2,12.7,0.1,19
		c-0.5,66.6-1,133.3-1.5,199.9C1046.5,959.1,1046.5,962.4,1046.5,966.4z M1549.7,717.9c-2.9-5.6-6-10.3-11.3-13
		c-1.4-0.7-3.3-1.1-4.7-0.7c-6.1,1.7-9,6.4-9.2,12.6c-0.1,4.3,2.4,6.6,5.4,8.9c11.1,8.5,10.4,7.3,10.3,21.7c-0.1,28-0.4,56-0.6,84
		c-0.4,50-0.9,100-1.3,149.9c-0.1,14.7,0.1,29.3,0.2,44c0,3.3-0.3,6.7,2.7,9.8c2.2,0.2,4.8,0.5,7.4,0.5c34.7-0.1,69.3-0.2,104-0.5
		c10.2-0.1,10.9-0.8,10.9-10.8c0-13.3-0.5-26.7-0.5-40c0.3-49.7,0.9-99.3,1.3-149c0.1-7.7,0.1-15.3,0.3-23c0.1-2.2,0.9-4.3,1.4-6.8
		c3.5-0.2,6.5-0.4,9.4-0.5c26-0.2,52-0.4,78-0.4c22.7,0,45.3,0.1,68,0.2c2.9,0,6-0.6,8.9,1.7c1.5,2.9,1.1,6.3,1,9.5
		c-0.1,21.6-0.4,43.3-0.5,64.9c0,7,0.4,14,0.4,21c0.1,39,0.1,78,0.1,117c0,2.7-0.1,5.3,0.2,8c0.2,1.9,1,3.7,1.5,5.7
		c2.7,0.2,5,0.6,7.3,0.6c25.7-0.1,51.3-0.1,77-0.3c9.7-0.1,19.3-0.6,29-1.1c1.9-0.1,3.7-0.8,5.8-1.3c0.1-2.1,0.3-3.7,0.3-5.3
		c0-9-0.1-18-0.1-27c0.1-47.7,0.1-95.3,0.2-143c0-23,0.3-46,0.2-69c0-5.8,0.1-11.3,4.9-15.5c0.4-0.4,0.3-2.1-0.2-2.5
		c-0.5-0.4-2-0.4-2.5,0.1c-3.5,3.3-7.2,2.9-11,0.7c-2-1.1-4.1-2.2-6.1-3.4c-18.2-10.5-36.3-21-54.5-31.5c-8-4.7-16.1-9.3-24.4-14.1
		c0.2-2.5,0.5-4.8,0.4-7c0-1.1-0.9-2.1-1.3-3.2c-1.2,0.6-2,0.7-2.4,1.1c-3.9,5.6-9.4,6.6-15.8,6.5c-17.3-0.4-34.6-0.5-52-0.6
		c-5.7-0.1-11.3-0.1-17-0.1c-11,0.1-21.9,0.7-32.9,0.5c-17-0.3-33.9-0.1-50.9,0c-21.3,0.2-42.6,0.2-63.9,0.4
		c-16.3,0.2-32.6,0.5-48.9,0.7C1566.5,718.4,1558.5,719,1549.7,717.9z M965.2,1048.2c-2.6-0.5-4.1-1-5.6-1
		c-21.3-0.5-42.6-1.3-64-1.2c-51.3,0.1-102.6,0.5-154,0.8c-57.7,0.3-115.3,0.4-173,0.8c-10.4,0.1-19.6-2.4-28.5-7.6
		c-26.2-15.3-52.4-30.5-78.7-45.7c-3.1-1.8-6.3-3.4-10.1-5.5c0.2,2.5,0.4,4.1,0.5,5.7c0.2,3.4-1.7,5.6-4.6,7.1c-2.5,1.2-5,1.3-7.8,1
		c-2.9-0.3-5.9-0.1-8.9,0c-2.7,0.1-5.3,0.4-8,0.6c-5.6,0.5-11.2,1-16.9,1.6c-5.9,0.6-11.9,2.2-17.8,1.9c-12.4-0.5-23.7,3.3-34.9,7.4
		c-6.2,2.3-12.8,4.1-17.9,8.6c-7.3,6.4-15.6,11.1-24.2,15.6c-5.4,2.8-10.6,5.5-16.5,6.8c-7.2,1.6-14.2,3.4-20.3,7.9
		c-2.1,1.5-4.8,2.2-7.4,3c-4.6,1.3-8.2,4-11.7,7.3c-7,6.6-14.3,13-21.5,19.4c-3.7,3.3-7.9,4.8-12.9,3.1c-2.8-1-5.8-1.5-8.7-2.4
		c-15-4.9-28.9-12.1-42.1-20.5c-12.7-8-25.2-16.2-39.1-22c-3.8-1.6-6.9-4-9.4-7.2c-2.1-2.5-3.9-5.3-7.6-6.7c-1.6,3.2-1.6,6,0.9,8.3
		c2,1.8,4.3,3.2,6.5,4.6c20.3,12.7,40.6,25.5,61,38.1c21,13,42.2,25.6,63,38.7c4.8,3,9.5,4.1,15,4.1c30.3,0,60.7,0.2,91,0.5
		c21.7,0.2,43.3,0.9,65,1.1c14.3,0.1,28.7-0.7,43-0.7c42.7,0.1,85.3,0.5,128,0.6c29.3,0,58.6-0.4,88-0.6c30.7-0.2,61.3-0.6,92-0.6
		c10.5,0,20.4-1.8,30.1-5.9c18.4-7.9,36.9-15.5,55.3-23.2c12.3-5.2,24.7-10.1,36.7-15.8c6.9-3.2,12.6-2.6,18.7,1.5
		c6.9,4.6,14.1,8.8,21.2,13.3c12.6,8.1,25.2,16.3,37.8,24.4c5.4,3.5,11.3,5.3,17.9,5.3c35.7,0.3,71.3,0.2,106.9,1.7
		c29.6,1.2,59.3,0.7,88.9-0.6c6.9-0.3,14.1,1,20.2-3.9c7,3.9,14.3,3.7,21.6,3.1c3.6-0.3,7.3-0.4,11-0.2c4.9,0.3,9-1.2,13-4
		c20.3-14,40.7-27.8,61.2-41.6c13.8-9.3,27.9-18.2,41.8-27.4c0.4-0.3,0.5-1.1,0.9-2.2c-3.4,0-6.7,0-10,0c-22.7,0.3-45.3,0.8-68,1
		c-36.7,0.3-73.3,0.5-110,0.7c-2.7,0-5.3-0.1-8-0.1c-6.2,0-11.8-1.5-17-4.9c-4.5-2.9-9-5.7-13.5-8.6c-14.5-9.5-28.9-19.2-43.3-28.7
		c-1.4-0.9-2.8-3.1-5.1-1.2c2.4,4,5,7.9,6.9,12.1c2.1,4.5,0.4,7.7-4.6,9c-12.6,3.2-22.8,10.7-32.8,18.4c-5.3,4.1-10.3,8.5-15.7,12.3
		c-7.7,5.3-15.6,10-25,12.2c-5.4,1.2-10.6,3.7-15.8,6c-6.1,2.6-11.4,6.8-18.1,8.1c-1.5,0.3-3.1,1.4-4.2,2.6c-3.6,4-7.7,4.7-12.6,3.2
		c-4.1-1.3-8.4-2.1-12.6-3.2c-3.2-0.9-6.3-2.4-9.6-2.8c-7.4-1-14.1-4-20.8-6.9c-1-0.4-1.7-1.5-2.7-2.5c3.6-3.3,7.5-4.3,11.2-5.7
		c3.7-1.4,7.5-2.8,11.2-4.3c4-1.6,8.1-3.2,12.1-4.7c3.8-1.4,7.6-2.6,11.3-4C957.4,1052.3,961.5,1052.1,965.2,1048.2z M3445.8,707.5
		c-1.5,0-3.6-0.7-4.4,0.1c-4,4-9.1,3.8-14,3.8c-43-0.1-86-0.3-129-0.3c-5.5,0-10.6-0.7-14.5-5.1c-1.3-1.4-3.1-2.5-4.9-3.5
		c-3.7-2.1-7.7-2.1-11.6-0.7c-5.6,2.1-7.8,7.8-4.8,13c1.1,1.9,2.7,3.5,4.3,5.4c-3.5,3.4-7.4,5.4-11,7.7
		c-8.2,5.1-16.4,10.2-24.7,15.2c-16.5,10.1-33,20.2-49.5,30.2c-1.6,1-3.5,1.4-5.3,2.1c-2.6-3.5-1.8-6.9-1.9-10.1
		c-0.2-13.3-0.2-26.7-0.5-40c-0.2-6.8,0-13.3,5.1-18.6c0.1-0.1-0.1-0.5-0.2-0.9c-1.5-1.4-3.6-1-4.5,0.2c-4.1,5.4-9.6,4.9-15.4,4.9
		c-24.7-0.1-49.3-0.1-74-0.1c-13.6,0-27.3,0.1-40.9-0.1c-6.7-0.1-13.2-0.7-18.1-6.6c-2.8-3.4-7.2-4.7-11.7-4.8
		c-7.3-0.2-11.8,5.1-10.1,12.4c1.2,5,3.6,9.3,8.2,12c1.7,1,3.4,2,5.5,3.3c0.3,6.1,0.7,12,0.8,18c0.1,15.7,0,31.3,0.1,47
		c0.4,57.6,0.9,115.3,1.4,172.9c0.1,18.7,0.1,37.3,0.3,56c0,3.2-0.9,6.7,1.4,9.6c10.9,2,100.3,1.5,148.8-0.8
		c1.6-0.1,3.1-0.6,4.8-0.9c1.3-4,0.9-7.6,0.9-11.2c-0.1-44.7-0.2-89.3-0.3-134c0-3.7,0.3-7.3,0.3-11c0-2.9,1.2-5.1,3.6-6.7
		c1.7-1.1,3.3-2.2,5-3.3c24.4-15,48.8-30,73.3-44.9c9.4-5.7,19-11,28.5-16.6c4.4-2.7,9-3.7,14.2-3.8c44-0.4,87.9-1,131.9-1.6
		c2.2,0,4.5-0.4,6.7-0.6c1.5-3.3,1.1-6.3,1.1-9.3c0-20,0.1-40-0.1-60c-0.1-6.1,0.4-11.9,4.9-16.5
		C3445.9,709,3445.8,708.5,3445.8,707.5z M3449.1,1024.7c-1.5,0.1-1.8,0-2.1,0.1c-0.9,0.4-1.9,0.8-2.5,1.5
		c-5.1,5.6-10.9,5.8-17.2,2.3c-7.3-4-14.8-7.7-21.8-12.1c-4.9-3-10-5.2-15.4-6.9c-20.5-6.3-41.7-8.5-62.9-10.2
		c-9.9-0.8-19.8-2.9-29.8-2.4c-1.9,0.1-3.9-0.7-5.9-1c-10.2-1.8-20.4-3.1-30.8-2.9c-17,0.3-34,0-51,0.1c-6.3,0-11.9-1.2-16-6.4
		c-1.2-1.5-2.9-2.9-5.9-1.6c-0.3,2.2-0.8,4.7-0.9,7.2c-0.3,12.3-0.4,24.7-0.5,37c0,2.7,0,5.3-0.2,8c-0.2,2.2-1.7,3.6-3.9,3.8
		c-3,0.2-6,0.3-9,0.4c-40,0.5-80,0.9-120,1.4c-8,0.1-16,0.2-24,0.4c-1.5,0-2.9,0.5-5.7,1.1c4.6,3.6,9.1,3.7,13,5.2
		c4.1,1.5,8.2,2.8,12.3,4.2c4.4,1.6,8.7,3.4,13.1,5c4.1,1.5,8.2,2.9,12.2,4.4c4.1,1.5,8.2,2.9,12.2,4.4c4.1,1.4,8.2,2.8,12.3,4.2
		c4.4,1.5,8.8,3,13.2,4.6c4.1,1.5,8.1,3,12.2,4.6c3.9,1.6,8.2,2.2,13.1,5.7c-7.5,0.7-13.5,1.3-19.3-0.3
		c-11.8-3.4-23.5-7.4-35.3-11.1c-7-2.2-14-4.3-21-6.4c-2.2-0.7-4.5-1.2-6.7-1.9c-20.9-6.1-42-10.1-63.9-9.9
		c-5.7,0.1-11.3-0.1-17-0.6c-11.1-1-21.4-4.8-31.6-8.9c-3.8-1.6-7.6-2.3-11.6-2.3c-38.7-0.1-77.3-0.4-116-1.1
		c-53.6-1.1-107.3-0.7-161-0.9c-2.5,0-5.1,0.3-9,0.6c1.9,1.7,2.7,2.8,3.7,3.4c6.3,3.7,12.7,7.3,19.1,10.9
		c34.9,20.2,69.8,40.3,104.6,60.7c4.2,2.5,8.3,3.7,13.2,3.6c20.3-0.2,40.6-0.3,61-0.3c10.7,0,21.3,0.5,32,0.4c22-0.2,44-0.7,66-0.8
		c29.3-0.2,58.7-0.2,88-0.3c45.7-0.2,91.3-0.4,137-0.6c2.6,0,5.4,0.7,7.8-1.9c0.9-6.8-2.9-14.2,1-21.7c2,0.3,3.9,0.3,5.7,0.9
		c4.7,1.6,9.4,3.5,14,5.2c13.7,5.1,27.5,10,41.2,15.4c4.1,1.6,8.1,2.3,12.5,2.4c11.6,0.2,23.3-1.6,34.8,1.1c1.2,0.3,2.6-0.2,4-0.3
		c3.6-0.3,7.3-0.8,10.9-0.8c18.7,0,37.3,0.3,56,0.3c27.3,0,54.7-0.2,82-0.4c3.9,0,7.9,0.4,11.9-1.3c0.3-1.5,0.9-2.8,0.9-4.1
		c0.5-29-1-58-1.9-86.9C3450,1027.6,3449.5,1026.4,3449.1,1024.7z M2917.7,205.9c0.2,6.8,0.5,13.4,0.5,20.1
		c-0.3,68.3-0.8,136.6-1.1,204.9c-0.2,37-0.2,74-0.3,110.9c0,12.3-0.2,24.7-0.1,37c0,4.7,1.4,6,5.8,6.3c1,0.1,2,0,3,0
		c44,0,88-0.1,131.9-0.1c2,0,4,0,6-0.2c2.7-0.3,4.2-1.7,4.4-4.6c0.2-3.3,0.3-6.7,0.2-10c-0.4-38-1.1-76-1.3-113.9
		c-0.3-62.3-0.3-124.6-0.4-186.9c-0.1-21.3-0.2-42.6-0.3-64c-0.1-6.2,0.9-11.9,6-16.2c0.9-0.8,1.9-2,0.2-3.5
		c-0.8,0.4-1.9,0.6-2.5,1.2c-4.1,4.7-9.3,5.7-15.3,5.6c-14.3-0.2-28.7,0.1-43,0.1c-22.7,0-45.3-0.1-68-0.2c-4.7,0-9.3-0.2-13.7-3
		c-1.1-3.6-2.3-7.3-3.4-10.5c-1.3-0.6-1.8-1-2.5-1.1c-11.1-1.7-21.8,1.6-32.8,1.9c-0.3,0-0.6,0.2-1,0.3c-4,1.4-6.3,5.5-5.1,9.6
		c1.4,4.6,3.8,8.6,9.2,9.4c3,0.5,5.8,1.2,8.3,3.1c0.7,0.6,2,1.1,2.7,0.8C2910.2,200.8,2913.4,204.3,2917.7,205.9z M626.2,153.5
		c-1.8,0.1-2.9-0.1-3.6,0.3c-12,6.5-24,13-36,19.6c-1.5,0.8-3,1.6-4.1,2.8c-1.2,1.4-2.5,3.3-2.6,5.1c-0.5,11.3-0.7,22.6-0.9,33.9
		c-0.2,11.3-0.3,22.6-0.4,34c-0.1,18.6-0.1,37.3-0.4,55.9c-0.1,4.2,1.6,6.9,4.9,9.1c6.4,4.1,12.8,8.5,19.3,12.5
		c16.4,10.2,32.9,20.2,49.4,30.3c15.3,9.4,30.6,18.8,45.9,28.3c5.2,3.2,10.7,5.2,16.7,6.4c23.2,4.6,46.3,9.5,69.5,14.3
		c32.2,6.8,64.5,13.7,96.7,20.4c0.6,0.1,1.2-0.3,2.6-0.6c-2.3-1.9-4.1-3.7-6.2-5.2c-8.2-5.7-16.5-11.3-24.7-17
		c-10.4-7.2-20.7-14.6-31.1-21.8c-4.8-3.3-7.3-7.6-7.1-13.4c0.1-3-0.1-6-0.2-9c-0.1-18.7-0.1-37.3-0.4-56
		c-0.1-6.6-0.8-13.3-1.5-19.9c-0.4-4.1-1.9-5.1-5.8-5.1c-0.3,0-0.7,0.1-1,0.2c-5.9,1.2-10.1-1.8-11.9-6.8c-2.8-7.7-8-12.7-14.4-17.3
		c-3.5-2.6-7-4.7-11.2-6.1c-4.4-1.4-8.3-4.4-12.7-5.8c-10.1-3.2-20.3-6.5-30.7-8.7c-14.7-3.2-28.7-8.6-42.6-14.1
		c-3-1.2-6.1-2.9-8.6-5c-8.3-7.3-17.2-13.6-27.2-18.2c-1.2-0.5-2.2-1.4-3.3-2.2c-3.8-2.6-7.6-5.4-11.5-7.9c-3.9-2.5-8.1-4.6-12-7.1
		c-4-2.6-4.9-6.2-2.5-10.3c2.2-3.7,5-7.1,7.3-10.7C624.9,157.1,625.3,155.6,626.2,153.5z M3316.5,413.1c-3.2,0.3-4.1,3.2-5.5,5.3
		c-2.3,3.4-5.3,4.9-9.3,4.8c-8-0.2-16,0.2-23.9-0.7c-11.1-1.4-21.9,0.1-32.5,2.8c-11.9,3-23.7,6.8-35.7,9.5
		c-24.2,5.3-47.2,14.2-69.5,24.7c-10,4.7-20.4,8.2-30.6,12.3c-4,1.6-8.3,2.6-12.4,3.9c-2.5,0.8-4.6,0.5-6.5-1.2
		c-1.5-1.4-2.9-2.8-4.4-4.1c-1.2-1.1-2.6-2.2-4.4-1.2c-1.6,7.8-1.8,27.1-0.4,33.6c0.3,1.5,0.4,3.2,0.3,4.7c-0.3,3.3-1.3,6.5-1.4,9.8
		c-0.2,21.7-0.2,43.3-0.3,65c0,1.6,0.4,3.2,0.7,5.2c1.8,0.3,3.4,0.9,5,0.9c14.6-0.5,29.3-0.8,43.9-1.6c30.6-1.7,61.2-3.7,91.7-5.6
		c13.6-0.9,27.2-1.9,40.8-3c9.9-0.8,19.9-1.9,29.8-2.8c7.6-0.7,15.2-1.2,22.9-2c1.5-0.2,3-0.9,5-1.6c0-3.6,0-6.9,0-10.2
		c-0.4-28.3-0.8-56.6-1.2-84.9c-0.2-18.3-0.3-36.6-0.6-55C3318.1,418.7,3319,415.6,3316.5,413.1z M2340,1043.9
		c1.6,4.7,4.8,7.1,7.6,9.8c19.9,19.7,40,39.1,59.7,58.9c5.8,5.8,12,8.6,20.3,8.4c23-0.5,45.9-0.3,68.9-0.3c21.3,0,42.6,0,63.9-0.1
		c3.6,0,7.3,0.6,11.1-1.5c0.2-2.6,0.6-5.1,0.6-7.7c-0.1-20.6-0.2-41.3-0.3-61.9c0-2.3-0.1-4.7-0.4-7c-0.5-3.9-2.3-6.8-6.3-8.2
		c-5.4-2-10-5.2-14-9.3c-4.3-4.4-9.7-7.1-15.8-7.9c-11.2-1.4-22.4-3.2-33.6-3.8c-7.8-0.4-15-2.4-22.1-5.3c-4.2-1.7-7.6-4-9.9-7.9
		c-0.6-1.1-1.8-2-2.7-2.8c-0.9-0.8-3.1-0.2-3.3,1c-0.5,2.6-0.9,5.2-1,7.9c-0.3,8,0.1,16-0.7,23.9c-1.2,13.4,0.7,15.1-15.7,14.8
		c-32.9-0.6-65.9-1-98.8-1.4C2345.1,1043.6,2342.9,1043.8,2340,1043.9z M1453.8,1001.5c-0.4,0.8-1,1.7-1.1,2.5
		c-0.6,10.3-1.5,20.6-1.6,30.9c-0.2,25.6-0.1,51.3,0,77c0,8.5,0.7,9,9.1,9.2c0.7,0,1.3,0,2,0c32.3,0.1,64.6,0.3,96.9,0.3
		c15.3,0,30.6-0.1,46,0c4.4,0,7.5-1.4,10-5.2c15.8-23,31.7-45.9,47.8-69.1c-1.2-0.3-2-0.7-2.9-0.6c-5,0.2-10,0.7-15,0.7
		c-35.6,0.1-71.3,0.1-106.9,0.1c-2.7,0-5.3,0-8-0.3c-3.1-0.3-4.9-2.1-5.3-5.1c-0.4-2.6-0.4-5.3-0.4-8c-0.1-15.3-0.1-30.6-0.3-46
		c0-2.5,0.7-5.4-2-7.2c-0.7,0.1-1.6-0.1-2,0.2c-8.9,6.7-19.1,10.8-29.4,14.7c-4.6,1.8-9.6,2.8-14.3,4.6c-3.7,1.4-7,4.9-10.6,5
		C1462,1005.6,1458,1003,1453.8,1001.5z M2203,1012.4c-3.5,2.9-5.9,5.1-8.5,7.1c-1.7,1.3-4,1.7-5.6,0.4c-5.5-4.3-11.2-8.4-12.8-15.9
		c-0.7-3.2-1.6-6.5-2.8-9.6c-0.8-2.1-2.2-4.2-5.3-3.3c-2,2.7-1.4,5.8-1.4,8.7c-0.2,11-0.3,22-0.4,33c-0.2,12.4-0.8,13.1-13,13.1
		c-18,0-36-0.2-53.9-0.5c-20.6-0.4-41.3-1.2-61.9-1.7c-2.5-0.1-5.4-1-7.4,1.5c0.8,11.5,14.6,67.7,18.8,75.9
		c3.3,0.1,6.9,0.3,10.5,0.3c44.6-0.2,89.2-0.3,133.8-0.5c2.3,0,4.7,0.1,7-0.2c1.9-0.3,3.6-1.1,5.3-1.6c0.3-1.5,0.8-2.5,0.8-3.4
		c-0.7-32.9-1.4-65.9-2.2-98.8C2203.9,1015.8,2203.5,1014.8,2203,1012.4z M1955.4,1044c-3.4-0.2-5.7-0.4-8-0.4c-19,0-38,0-57,0.2
		c-21.3,0.2-42.6,0.5-64,0.7c-6.8,0.1-9.2-1.9-9.7-8.5c-0.3-4.3-0.1-8.7-0.4-13c-0.2-2.6-0.6-5.3-1.6-7.7c-1.5-3.7-3.4-7.2-5.4-10.7
		c-0.5-0.9-1.9-1.4-2.8-2c-0.8,1.1-1.5,1.6-1.5,2.1c-0.8,6.3-1.9,12.5-2.2,18.8c-0.5,9-0.4,18-0.5,27c-0.1,4.7-0.3,9.4-3.8,13.6
		c3.5,3.2,3.2,7.1,3.1,11.2c-0.4,12-0.5,24-0.6,36c0,2.2,0.8,4.5,1.1,6.3c3.9,2.4,7.7,1.6,11.3,1.7c19,0.2,38,0.4,57,0.6
		c25.7,0.2,51.3,0.4,77,0.4c3.3,0,6.7,0.2,10.2-2.3c1.5-21.9-1.5-44.1-1.2-66.4C1956.3,1049.4,1955.8,1047.1,1955.4,1044z
		 M3186.7,874.9c2.3,3.6,5.1,3.5,7.7,4c13.8,2.4,27.6,4.7,41.3,7.2c45.9,8.2,91.7,16.6,137.6,24.8c24.9,4.4,49.9,8.7,74.8,13.1
		c3.1,0.5,5.8,0.6,8.6-1.2c23.4-14.7,46.8-29.4,70.2-44.2c0.6-0.4,0.8-1.3,1.4-2.3c-1.4,0.3-2.1,0.3-2.7,0.6
		c-7.8,4.7-16.3,7-25.1,9.3c-6.4,1.7-12.1,3-18.2-0.2c-0.8-0.4-2-0.5-2.9-0.5c-10.4,0.4-20.2-3.7-30.5-4c-4.2-0.1-8.4-1.7-12.7-2.5
		c-3.3-0.6-6.5-1.2-9.8-1.6c-2.6-0.4-5.3-0.5-7.9-1c-10.5-2-21-3.5-31.7-3.1c-3.6,0.1-7.3-0.5-10.9-1.1c-9.9-1.5-19.7-3.1-29.6-4.6
		c-17.8-2.6-35.5-5.2-53.3-7.5c-9.9-1.3-19.8-2-29.8-2.8c-10.3-0.8-20.6-1.4-30.5-4.3c-3.8-1.1-7-0.9-10.4,1.1
		c-10.4,6-21,11.6-31.5,17.4C3189.5,872.3,3188.3,873.5,3186.7,874.9z M2930.4,892.4c-4-1.5-7.7-0.9-11.2-0.9
		c-56.3-0.1-112.6-0.2-168.9-0.3c-24.3,0-48.6-0.2-72.9-0.2c-1.8,0-4.1-0.9-5.2,1.9c1.5,2.9,4.7,3.2,7.4,4.1
		c21.5,7.1,43,14.1,64.5,21.2c33.2,10.9,27.9,10.5,63.5,10.6c44,0.1,87.9-0.1,131.9-0.3c6.1,0,11.8,0.8,17.5,2.9
		c13.8,5,27.7,9.5,41.6,14.2c2.2,0.7,4.3,2,6.5,0c0.3-0.7,0.8-1.2,0.8-1.8c0-13-0.1-25.9-0.3-38.9c0-0.7-1.1-1.4-2-2.5
		c-2,2.8-3.6,5.2-5.4,7.6c-2.4,3.1-5.2,4.7-9.5,3.9c-9.7-2-19.6-3.7-29.4-5.4c-4.2-0.7-8.6-0.9-12.9-1.4c-7-0.9-13.8-2.1-18.8-8.2
		C2928.7,896.8,2929.5,894.7,2930.4,892.4z M3784.2,810c-2.6,0.4-4.8,0.8-7.1,1c-3.3,0.3-6.7,1-9.9,0.7c-9.3-0.8-18.4-2.9-27.8-2.8
		c-12.5-3.6-25.7-3.2-38.3-6.8c-2.2-0.6-4.6-0.3-6.9-0.4c-12.6-0.3-25.2-0.7-37.7-3.2c-14.3-2.8-28.7-5.8-43.5-4.8
		c-1.6,0.1-3.3-0.3-4.9-0.7c-11.3-2.7-22.7-4.9-34.5-4.8c-2.3,0-4.5-0.8-6.8-1.1c-4.3-0.6-8.5-1.3-12.8-1.8c-3-0.4-6-0.4-8.9-0.9
		c-11.8-1.9-23.7-3.8-35.7-3.2c-2.3,0.1-4.7,0.2-7-0.3c-13.9-3.1-28.6-2.2-41.9-8.3c-2.4-1.1-5.1,0.3-5.3,2.9
		c-0.8,8.6-1.6,17.2-2,25.9c-0.2,3.8,1.4,5.1,5.5,5.6c5.9,0.7,11.9,1.4,17.9,2c24.9,2.2,49.7,4.4,74.6,6.6c4.3,0.4,8.6,1.1,12.9,1.5
		c18.2,1.6,36.5,3,54.7,4.7c21.2,1.9,42.4,4,63.6,6c31.5,3.1,63.2,3.6,94.8,3.3c2.6,0,5.1-0.5,8.1-0.9
		C3786.1,823.2,3786.9,816.8,3784.2,810z M1464.4,458.3c-2.9,0.4-3.6,1.9-3.8,3.6c-0.7,5.9-1.4,11.9-1.9,17.9
		c-0.5,7.3-0.7,14.6-1.2,21.9c-0.2,3,0.9,5.1,3.2,6.8c3.5,2.5,7,5.1,10.5,7.6c24.4,16.8,49,33.4,73.3,50.4c7,4.9,14.4,8.2,22.6,10.1
		c11.3,2.7,22.7,5.3,34.1,7.9c3.1,0.7,6.3,1.7,9.6,1.7c0.2-3.1-1.9-3.9-3.4-4.9c-17.2-11.4-34.6-22.6-51.8-34
		c-6.3-4.2-12.5-8.6-18.4-12.8c-0.4-14.4-0.7-28-1.1-41.7c-0.1-2.9,0.4-6.1-2.3-8.6c-6.5-1.8-13.2-3.7-20-5.5
		c-11.9-3.2-23.7-6.6-35.7-9.6c-5.1-1.3-9.3-3.4-11.8-8.3C1466,460,1465.2,459.3,1464.4,458.3z M2359.5,439.3c1.2,0,2,0.2,2.5,0
		c12.5-6.3,25-12.5,37.3-19c14.5-7.6,13.5-3.7,13.2-21.6c-0.3-21.3-0.2-42.6-0.6-63.9c-0.1-7,1.6-12.1,8.3-15.4
		c4.1-2,7.8-5,11.5-7.9c1.9-1.4,3.1-3.5,1.1-6.3c-3.6,1.3-7.4,2.4-11,4c-2.4,1.1-4.8,2.5-6.6,4.3c-3.4,3.4-7.3,5.8-11.8,7
		c-3.3,0.9-6.3,2.4-8.1,5.4c-4.5,7.6-11.9,11.3-19.4,15c-2.8,1.4-5.5,1.9-8.6,1.5c-7-0.8-7.9,0.1-8.2,7.3c0,0.7,0,1.3,0,2
		c-0.1,27.3-0.1,54.6-0.2,81.8C2358.8,435.6,2359.3,437.5,2359.5,439.3z M1019.4,448.1c-0.7,4.2-1.5,7.4-1.9,10.7
		c-0.2,2.1,0.9,3.9,3,4.7c1.9,0.6,3.8,1.1,5.8,1.4c5.2,0.9,10.5,1.6,15.8,2.5c30.5,5.2,60.9,10.4,91.4,15.5
		c11.8,2,23.7,3.6,35.5,5.3c2.1,0.3,4.4-0.2,6.9-0.4c0.3-2.9,0.7-5.1,0.7-7.4c0-6.3-0.1-12.6-0.3-19c-0.2-10.5-0.9-11.2-11.5-11.4
		c-31.6-0.7-63.2-0.1-94.7-2c-13.9-0.8-27.9-0.3-41.9-0.3C1025.6,447.6,1022.9,447.9,1019.4,448.1z M2359.5,588.1
		c9.9-1.2,19.1-2.1,28.3-3.3c15.2-2,30.3-4.3,45.2-7.7c4.4-1,5.7-2.2,5.8-6.7c0.2-6-0.1-12-0.2-18c0-3.3-1.4-5.8-4.2-7.5
		c-4.5-2.8-9-5.8-13.6-8.3c-5.8-3.2-8.8-7.8-9-14.4c-0.1-2.5,0.5-5.4-2.8-7.6c-1.7,0.8-4.1,1.3-5.6,2.8c-4.4,4.6-9.9,6.5-15.7,8.2
		c-3.2,0.9-6.5,1.5-9.6,2.8c-3.8,1.6-7.4,2.3-11.6,1.4c-3.9-0.8-5.6,0.8-5.9,4.7c-0.4,5.3-0.6,10.6-0.8,15.9
		c-0.5,11.3-1,22.6-1.4,33.9C2358.5,585.5,2359,586.4,2359.5,588.1z M2904.2,428.7c0.4-2.5,0.7-3.8,0.7-5.1
		c-0.3-22.6-0.6-45.3-1-67.9c0-2-0.3-4-0.8-5.9c-0.9-3.4-3.9-4.8-7-2.8c-5.3,3.5-10.8,6.5-17.2,7.4c-1.6,0.2-3.1,1.3-4.4,2.2
		c-2.9,1.9-6,2.7-9.4,2.7c-1.3,0-2.7,0.1-4,0.4c-2.2,0.4-3.7,1.6-4,3.9c-0.3,2.6-0.4,5.3-0.5,8c-0.2,7.3-0.4,14.6-0.6,22
		c-0.4,14.3-0.9,28.6-1.2,42.9c0,1.5,0.7,3,1.2,4.8C2872.7,438,2888.2,433.2,2904.2,428.7z M2903.2,496.3
		c-6.8,3.3-12.5,5.9-18.1,8.6c-4.1,2-8,2.1-12.5,0.7c-6.9-2.2-13.4,2.5-14,9.8c-0.5,5.3-0.5,10.6-0.7,15.9
		c-0.5,15.9-1,31.9-1.3,47.8c0,1.8,0.9,3.7,1.4,5.6c2.4,0.2,4.4,0.5,6.4,0.4c11.3-0.8,22.5-1.6,33.8-2.5c1-0.1,2-0.3,2.9-0.5
		c2.2-0.5,3.4-2,3.6-4.2c0.1-1.3,0.1-2.7,0.1-4c-0.3-22.9-0.6-45.9-1-68.8C2903.9,502.5,2903.5,499.9,2903.2,496.3z M1321.2,927.6
		c1.4-7.7,1.5-49.8,0.3-59.2c-0.1-0.5-0.9-0.8-1.4-1.2c-2.9,2.5-5.6,5.6-8.9,7.5c-4.3,2.6-8.6,5-12.1,8.7c-3,3.2-6.6,4.3-10.9,3.3
		c-1.3-0.3-2.6-0.6-3.9-0.8c-3.3-0.6-6.1,0.3-7.5,3.5c-1.6,3.8-4.4,5.6-8.3,6.2c-0.9,0.2-1.8,0.8-2.4,1.2c-0.5,0.8-1,1.3-1.2,1.9
		c-3.4,12.1-10.7,19.5-23.7,20.8c-2.9,0.3-5.7,1.7-8.4,2.9c-1.4,0.6-2.9,1.8-1.8,3.8C1247.9,928.8,1309.4,929.8,1321.2,927.6z
		 M1815.8,817.6c-45.6-2.3-89.4-2.1-133.2-0.3c-1.6,0.1-3.1,0.6-5,1c-1.5,6.3-0.7,12.2-0.1,18.1c0.3,2.7,2.1,4,4.9,3.8
		c3.7-0.1,7.3-0.6,10.9-0.6c32.9-0.3,65.8-0.5,98.8-0.8c2.3,0,4.5-0.3,6.8-0.5C1802.5,830.3,1809.9,825.8,1815.8,817.6z
		 M2523.1,691.6c2.3-1.1,4.1-1.9,5.7-2.8c3.5-2,5.4-5,5.1-9c-0.1-0.9-1.9-2.5-2.5-2.3c-5.7,1.7-11.8,3.2-14.6,9.3
		c-2.3,4.9-6.9,7.1-11,9.8c-3.2,2.1-7.1,0-10.6-0.8c-1.9-0.4-3.9-0.8-5.9-1.1c-8.9-1.5-17.7-2.8-26.7-1.3c-2.9,0.5-6,0.1-9,0.2
		c-6,0.2-12-0.1-17.9,0.8c-5.7,0.8-11.3,0.8-16.9,0.4c-9.6-0.7-19.2-1.6-28.8-2.4c-1.6-0.1-3.3-0.1-4.9,0.3c-0.8,0.2-2,1.2-2,1.9
		c0,1.1,0.4,2.7,1.2,3.4c1.2,1,2.9,1.4,4.5,1.8c5.2,1.3,10.4,2.3,15.5,3.7c9.1,2.4,18.2,3.9,27.6,4c3,0,6,0.1,8.9,0.7
		c3.4,0.7,6.5,0.1,9.8-0.5c11.4-2.1,22.9-3.9,34.6-1.5c6.2,1.3,12.4,2.4,18.6,3.5c3.4,0.6,6.1,2.1,8.7,4.3c4.3,3.6,8.7,7.7,13.8,9.7
		c6.5,2.4,10.7,6.1,13.7,12.1c1,2,2.9,3.7,4.7,5c1.2,0.9,3.2,1.5,4.4,1c1.7-0.6,1.7-2.7,1.1-4.4c-2.2-6.3-4.3-12.6-10.2-16.7
		c-2.4-1.7-4.5-4-6.7-6c-1.8-1.6-2.8-3.7-2.9-6.1c-0.1-1.7-0.2-3.3-0.2-5c0-3.5-1.1-6.5-4.2-8.5
		C2525,694.3,2524.4,693.1,2523.1,691.6z M2301.2,834.7c3,0,6-0.1,9-0.4c2.2-0.2,3.5-1.8,3.9-4c0.6-3.6,0.8-7.3-0.9-11.6
		c-3.5-1.4-6.9-1-10.1-1.1c-43.5-0.6-87.1,0.4-130.6-1.7c-1.1-0.1-2.2,0.9-3.2,1.3c0.4,1.2,0.4,2.2,0.8,2.4c9.3,5.7,18.6,11.4,28,17
		c1.7,1,3.5,1.7,5.7,2.6c4.9-4.4,10.7-4.4,16.8-4.4 M1436.3,421.2c-0.3-2.3-0.3-4.1-0.9-5.5c-2-4.9-3.9-9.9-6.5-14.6
		c-7.3-13.3-15.8-25.6-30-32.5c-3.8-1.9-6.5-4.6-7-9.1c-0.5-4.7-3.3-7.9-6.7-10.7c-1.8-1.5-3.6-3-5.5-4.3
		c-6.8-4.9-12.9-10.5-17.9-17.3c-1.6-2.1-3.5-4.1-5.6-5.6c-6.8-4.8-13.8-9.3-20.7-13.9c-1-0.6-2.2-0.8-4.1-1.5
		c0.5,1.8,0.5,2.9,1,3.5c4.2,4.7,8.2,9.5,12.7,14c4,4,8.6,7.3,12.8,11.2c5.2,4.7,10.2,9.5,15.2,14.5c5.4,5.4,10.9,10.8,15.9,16.6
		c4.8,5.5,9.1,11.4,13.6,17.3c1.1,1.5,1.8,3.4,2.7,5.3c-4.4,2.5-8.4,1.3-12.1,0.4c-20-4.7-40.3-3.2-61.4-4.1
		c2.7,4.3,6.3,5.7,10.1,6.4c5.9,1,11.8,1.7,17.8,2.4c10.2,1.2,20.5,2.1,30.7,3.6c7.2,1,14.4,2.9,21.6,4.1c3.2,0.6,5.5,2,7.1,4.8
		c2,3.5,4,6.9,6.1,10.3C1427.5,419.9,1430.5,422.2,1436.3,421.2z M2559.5,485.1c7.5,0.5,13.5-1.3,19.5-3.2c27-8.3,54-16.6,81-25
		c1.5-0.5,3.3-0.7,3.9-3.3c-2.3-0.2-4.6-0.6-6.9-0.6c-30.6,0.2-61.2,0.5-91.8,0.8c-1.9,0-3.8,0.6-6.2,1.1
		C2559.1,464.8,2558.5,474.4,2559.5,485.1z M1555.4,692.6c-0.8-1.7-1.6-3.4-2.5-5c-1.2-2.4-2.6-4.7-3.8-7c-1.2-2.3-0.9-4.6,0.9-6.4
		c7.5-7.3,15.5-13.7,26.9-13c2.3,0.1,4.7,0.4,7,0.3c2.6-0.1,5.3-0.4,7.9-1c1.6-0.3,3.2-1.2,2.2-4.1c-9.2-2.2-18.4-6.6-29-2.9
		c-2.5-4-4.7-7.7-7-11.3c-2.2-3.5-0.8-8.6-5-11.6c-3.2,2.4-3.7,5.8-4.8,8.8c-1.5,4.1-3.5,8.3-7.4,10.3c-5.5,2.8-7.8,6.9-7.5,12.8
		c0,0.7-0.2,1.3-0.2,2c-0.3,3.3-1.9,5.7-5.1,6.8c-6,2-11.9,4.5-18,5.7c-18.2,3.3-35.1,10.2-52,17.1c-1.5,0.6-2.7,1.9-3.8,3
		c-0.3,0.3-0.3,1.3,0,1.8c0.2,0.5,1,1.2,1.4,1.2c3.5-0.8,7.1-1.5,10.4-2.9c4-1.6,7.7-4.1,11.7-5.6c9.3-3.6,18.5-7.3,29-6.1
		c3.1,0.3,6.5-0.9,9.7-1.9c5.7-1.7,11.4-3.8,17-5.7c5.5-1.8,9.8-0.4,12.8,4.6C1548.6,686.3,1551.4,689.8,1555.4,692.6z
		 M2526.2,651.6c3.2-0.6,6.1-1.4,9-1.8c4.9-0.6,9-2.3,11.3-7c1.4-2.8,3.9-3.4,6.7-3.2c1,0.1,2,0.2,3,0.3c11.9,2,23.9,1.8,35.9,1.1
		c3.3-0.2,6.7-0.6,9.7-1.8c6.5-2.6,12.7-5.7,19-8.7c1.2-0.6,2.2-1.5,3-2.5c0.5-0.6,0.5-1.8,0.3-2.7c-0.1-0.4-1.1-0.9-1.6-0.8
		c-2.9,0.6-5.8,1.4-8.7,2.2c-13.6,3.7-27.2,6.2-41.4,4.6c-5.9-0.7-12-0.8-18-0.7c-4.9,0.1-9.2-0.8-12.6-4.7c-1.3-1.5-3-2.7-4.8-3.4
		c-9.2-3.7-19.3,1.5-24.9,8c-0.8,0.9-0.9,3.6-0.2,4.5C2516.3,640.4,2521,645.6,2526.2,651.6z M1393,655.1c4.3,0,7,2.4,10,4.6
		c6.4,4.7,12.9,9.4,19.6,13.8c1.5,1,3.8,1.5,5.6,1.2c10.4-2.3,20.7-4.7,30.4-9.2c4.1-1.9,8.2-2.7,12.6-2.2
		c9.2,0.9,18.4,1.9,27.6,3.1c3.8,0.5,7.6,1.4,11.6-0.2c-0.7-1-1-1.8-1.4-1.9c-9.9-2.8-19.9-5.4-30.4-5.1c-6.9,0.2-13.8-2.1-20.7-0.4
		c-0.6,0.1-1.3-0.1-2-0.3c-5-1.5-9.8-0.9-14.8,0.3c-3.2,0.8-6.6,1.1-9.9,1.5c-5.8,0.6-11.2-0.4-15.8-4.5c-6.5-5.7-14.3-8.2-22.7-9.5
		c-7.9-1.2-15.6-3.2-23.4-4.8c-3.9-0.8-7.8-1.3-11.8-1.8c-1.2-0.1-2.8-0.2-2.9,1.9c9.8,7.3,21.8,10.7,32,17.4c0.2,0.2,0.6,0,1.3,0
		C1389.5,657.6,1391.4,656.3,1393,655.1z M1561.2,602.2c19,6,22.7,3.8,35.2-1.1c-0.4-0.4-0.7-1.2-1.2-1.3
		c-5.5-0.9-11.1-1.5-16.6-2.6c-2.2-0.4-4.4-1.5-6.1-3c-10.2-8.4-21.5-11.5-34.4-7.7c-2.9,0.9-5.7,1.7-8.6,2.5
		c-1.2,0.3-2.4,0.3-4.4,0.5c0.3-2.3,0.4-3.9,0.8-5.4c1.4-4.9-0.7-8.3-4.4-11.2c-5.3-4.1-11.4-4.7-17.9-4.4c-0.2,3.5,2.4,4.8,4,6.8
		c2,2.6,4.8,4.9,5.9,7.9c2.7,6.9,7.8,11.4,13.7,15.8c1.5-0.3,3.1-0.6,4.7-1c2.2-0.6,4.4-1.6,6.7-2.1c6.2-1.3,8.7,0.4,9.8,6.5
		c0.7,3.9,1.2,7.9,2,11.8c0.3,1.6,1.1,3.1,3.7,3.2C1557.9,613.7,1559.3,608.1,1561.2,602.2z M1169.2,618.9c-6.1-1.3-11,2.3-15.2,7.4
		c-1.5,1.9-2.4,4-2,6.4c0.3,2,0.5,4.1,1.4,5.8c3,5.6,6.1,11,9.5,16.3c0.7,1.2,2.7,2.1,4.2,2.1c9.1,0.4,16.1-3.2,20.6-11.2
		c0.6-1.1,1-2.6,0.7-3.8c-1.5-6.1-3.2-12.2-4.9-18.2c-0.7-2.4-2.7-3.8-5.2-4.1C1175.6,619.4,1172.9,619.2,1169.2,618.9z
		 M3423,1180.7c-1.7-3-5.6-3-8.1-5.1c-5.8-5-13-6.6-20.2-8c-9.5-1.8-18.7-4.7-27.8-7.9c-4.4-1.6-8.8-3-13.4-4.1
		c-7.5-1.8-15-3.3-21.9-6.9c-4.4-2.2-8.3-1.7-12.5,1.9c1.7,1.2,3,2.7,4.7,3.4c13.9,5.7,27.8,11.2,41.7,16.7c2.5,1,5.1,1.6,7.7,2.2
		c7.1,1.6,14.3,3.2,21.4,4.7c3.2,0.7,6.6,1.8,9.8,1.7c5.5-0.3,10.6,0.1,15.3,3.1C3420.9,1183,3422.4,1182.8,3423,1180.7z
		 M1876,292.9c-0.8,1.1-2.3,2.4-2.4,3.7c-0.3,4.6-0.6,9.2-0.1,13.7c2.2,18.5,6.1,36.6,10,54.8c1.2,5.8,2.5,11.7,4,17.4
		c0.3,1.1,1.4,2.2,2.4,2.9c1,0.6,2.7-1.3,2.7-3.4c0.3-9,0.9-17.9-1.1-26.8c-3.6-15.5-5.3-31.4-10.1-46.7c-1.5-4.9,0.6-8.5,5.7-9.8
		c3.5-0.9,7-1.4,10.6-2.1c-3.3-1.1-6.6-0.8-9.8-1.2C1884.3,295.1,1880.9,294,1876,292.9z M1701.8,624.7c-2.9,0-5.9-0.2-8.8,0
		c-10.9,0.9-21-1.7-30.6-6.9c-5.2-2.8-10.9-4.9-16.4-7.1c-0.6-0.2-2.1,0.4-2.3,1c-0.3,0.7,0,2.3,0.5,2.6c3.3,2.2,6.6,4.4,10.1,6.3
		c2.9,1.6,6.2,2.5,9,4.2c3.4,2.1,7,3.6,11,4.4c4.1,0.9,8.4,1.8,11.9,5.7c-1.2,1.3-2.2,2.6-3.4,3.5c-1.5,1.2-3.5,1.9-4.8,3.3
		c-0.6,0.7-0.5,2.5-0.1,3.6c0.2,0.5,1.8,1.1,2.5,0.9c5.4-1.6,10.9-3,16-5.2c4.5-2,8.7-2.8,13.4-1c1.8,0.7,3.9,1.3,5.8-1.4
		c-0.8-1.4-1.7-3.1-2.8-4.6c-3-4.3-4-8.9-2.6-14.2c0.5-2,2.2-4.2,0.1-7C1707.4,616.8,1704.7,620.6,1701.8,624.7z M1605.3,1178.6
		c0.4,0.5,0.8,1,1.1,1.5c1.1-0.5,2.4-0.8,3.3-1.5c4-3.7,8.2-6.6,13.7-7.7c3.1-0.6,5.2-2.8,7.2-5.1c4-4.8,8.2-9.6,11.9-14.7
		c4.7-6.5,10-12.4,16.1-17.5c1.5-1.3,3-2.7,4.2-4.2c1.2-1.4,1-3.1-0.1-4.6c-1.8-2.5-4.3-3.4-6.9-1.6c-4.4,3-8.8,6-12.6,9.6
		c-12.8,12.1-24.3,25.4-34.4,39.9C1607.6,1174.7,1606.5,1176.7,1605.3,1178.6z M2452.5,639.8c-1,0-1.7-0.1-2.3,0
		c-15.4,2.5-30.8,4.6-45.8,9.2c-19.7,6-39.6,11.3-59.3,17c-2.9,0.8-5.8,1.4-8.7,2.2c-1.6,0.5-3.2,1.2-3.2,3.3c0,1.7,2.3,3.2,4.5,2.7
		c1.9-0.4,3.8-1.1,5.7-1.7c6-1.9,12-4,18-5.8c8.9-2.6,17.8-5.4,26.8-7.5c14.2-3.2,28.7-5.4,42.9-8.8c5.8-1.4,11.5-3,17.4-3.8
		c1.6-0.2,3.3-0.9,4.5-1.9c0.8-0.6,1.3-2.2,1.3-3.3C2454.3,640.8,2453,640.2,2452.5,639.8z M359.1,1140.1c-0.2-0.6-0.3-1.3-0.5-1.9
		c-1.9-0.3-3.8-0.7-5.7-0.8c-6-0.3-12-0.2-17.9-0.9c-4-0.5-7,0.3-9.9,3.2c-7.7,7.8-15.8,15.1-25.8,20.2c-5.8,3-10.7,7.8-17.4,9.4
		c-1.2,0.3-2.2,1.5-1.4,3c0.6,0.2,1.3,0.6,1.8,0.4c7.3-2.3,14.6-4.6,21.7-7.2c4-1.5,7.8-3.6,11.7-5.5c5.1-2.5,10-5.2,15.2-7.5
		c7.9-3.5,16-6.6,23.9-10C356.4,1142,357.7,1140.9,359.1,1140.1z M1484.1,564c-0.1-0.6-0.1-1.2-0.2-1.9c-3.6-0.2-7.2-0.8-10.8-0.6
		c-5.3,0.3-9.6-1.4-14.1-3.9c-8.4-4.7-17.1-9-26.5-11.5c-6.5-1.7-12.2-4.8-17.5-9.1c-4.6-3.7-10.1-6.4-15.3-9.2
		c-1.5-0.8-3.8-1.4-5.5,1.5c1.3,1.2,2.6,2.7,4.1,3.8c6,4.2,11.8,8.7,18.2,12.3c6.9,4,13.9,8.1,21.4,10.5c7,2.2,13.6,5.3,20.3,8.2
		c3.2,1.4,5.8,3,6.5,6.8c0.6,3.3,3,5.2,6.3,5.4c1.9,0.1,4.2,0.1,5.6-0.9c2.1-1.4,0.7-3.5-0.2-5.3c-0.3-0.6-0.6-1.2-0.8-1.8
		c-0.6-2.1,0.5-4.1,2.8-4.4C1480.3,563.8,1482.2,564,1484.1,564z M1381.6,1190.4c5.4,4.2,6.3,4.7,10,2.8c9.1-4.8,18.1-9.8,26.9-15.2
		c2.1-1.3,3.6-3.9,4.9-6.1c3-5.3,6.8-9.8,11.1-14c5.9-5.8,11.7-11.7,19.1-15.9c2.2-1.2,4.7-2.6,4.6-6.1c-5.8-2.3-10-0.4-14.1,4
		c-8.2,8.7-16.6,17.2-25,25.8c-4,4.1-8.6,7.3-13.7,9.9c-5.3,2.7-10.7,5.4-15.9,8.2C1386.7,1185.3,1383.5,1186.5,1381.6,1190.4z
		 M1892.6,470.6c0.4,1.4,0.5,3.2,1.3,4.5c4.4,7.1,7.1,15,9.8,22.9c0.6,1.9,1.6,3.7,2.5,5.4c0.5,0.8,1.2,1.7,2,2.1
		c0.7,0.3,1.8,0.2,2.7-0.2c0.4-0.2,0.8-1.2,0.7-1.7c-0.3-1.3-0.9-2.4-1.4-3.7c-2.5-6.2-4-12.9-2.7-19.4c1.1-5.7,1.3-11.3,0.4-16.8
		c-1.5-9.5-3.6-19-5.6-28.4c-0.3-1.3-0.7-2.7-1.5-3.6c-0.8-0.9-2.3-1.8-3.3-1.6c-1,0.2-2.3,1.5-2.6,2.6c-0.5,1.9-0.6,4-0.4,5.9
		c0.6,4.3,1.5,8.5,2.3,12.8C1899,462.2,1899,462.2,1892.6,470.6z M2086.6,1132c3.1,12.6,5.6,24,8.7,35.1c1.8,6.7,4.5,13.2,6.7,19.8
		c1.2,3.5,3.7,5.5,7.3,5.8c1.2,0.1,2.6-0.5,3.5-1.3c0.4-0.4,0.4-2.2-0.1-2.7c-4.5-4.9-4.7-10.7-4.4-16.8c0.1-2.6,0.3-5.5-0.5-7.9
		c-3.1-9.8-6.5-19.5-9.8-29.2c-0.7-2.1-2.5-3.1-4.6-3.2C2091.4,1131.5,2089.5,1131.8,2086.6,1132z M1157.7,92.5
		c0.4-0.5,0.8-1,1.2-1.5c-1.9-2.2-4-4.2-5.5-6.7c-6.5-10.7-15.8-18.8-24.8-27.2c-4.1-3.8-8.8-7.1-13.5-10.3c-1.5-1.1-3.6-1.5-5.5-2
		c-1.1-0.3-2.6,1.8-2,2.8c0.8,1.4,1.7,2.8,2.8,4.1c3.3,3.8,7.1,7.1,9.9,11.2c5.9,8.6,13.7,15.4,20.3,23.3c2.4,2.9,5.4,4.8,9.4,5.1
		C1152.5,91.5,1155.1,92.1,1157.7,92.5z M2278.4,933.1c1.9-5.2-0.7-9-2-13c-0.9-2.7-3.2-4.1-5.7-5.3c-11.2-5.8-22.4-11.7-33.6-17.5
		c-0.5-0.3-1.3,0-1.9,0c-1.2,5.2-1.1,7.2,0.1,10.5c0.9,2.6,2.6,4.6,5,6c3.2,1.8,6.3,3.9,9.6,5.2c8.1,3.2,15.9,6.8,22.9,12
		C2274.3,932,2276.4,932.3,2278.4,933.1z M2424.6,1132.5c1.5,2.3,2.1,3.5,2.9,4.5c7,7.6,13.7,15.5,21.1,22.5
		c5.5,5.2,12,9.4,18.2,13.8c2.6,1.9,5.8,1.6,6.3,0.1c0.7-2.3-0.7-3.8-2-5.3c-4.4-5-8.9-9.9-13.3-14.9c-4.2-4.8-8.3-9.5-12.3-14.4
		C2440.4,1132.5,2433.7,1131.1,2424.6,1132.5z M1865.4,457.2c1.6-0.1,2.9-0.1,4.2-0.3c4-0.6,5.5-3.6,3.8-7.3
		c-2.3-4.9-6.1-7.9-11.4-8.6c-4.3-0.6-8.6-1.4-12.8-1c-5.9,0.6-11.1-1.1-16.3-3.2c-1.5-0.6-2.9-1.8-4.5-2.1
		c-1.5-0.3-3.3-0.1-4.8,0.3c-0.8,0.2-1.7,1.2-1.8,2c-0.1,0.8,0.4,2,1,2.6c3.1,2.7,7.1,3.5,11.1,3.9c3.8,0.4,7,1.8,9.3,5
		c2.3,3,5.3,5.1,8.9,6.1C1856.5,455.7,1861.1,456.4,1865.4,457.2z M1893.3,1131c-9.5-2.3-12.2-1.1-15.3,7.1
		c-2.6,6.8-4.7,13.8-6.9,20.7c-0.5,1.5-0.8,3.7-0.1,4.7c2.2,3.1,3.9,6.8,7.7,8.6c0.9-1.2,1.7-1.9,2-2.8c4.3-12.2,8.6-24.3,12.8-36.5
		C1893.8,1132.4,1893.4,1131.6,1893.3,1131z M124.4,647.7c-7.3,0.6-15.3,1.2-22.2,5.9c-0.9,0.6-1.9,2.1-1.8,3.1c0,1.5,1.7,2.1,3,1.7
		c6-1.5,11.8-0.9,17.8,0c5.3,0.8,10.9,1,15.6-1.6c5.7-3.1,10.7-2.5,16,0.5c2.9,1.7,6.2,2.4,9.6,1.9c1.3-0.2,2.8-0.4,3.7-1.2
		c0.9-0.7,1.8-2.2,1.7-3.3c-0.1-1-1.2-2.2-2.2-2.8c-0.7-0.5-1.9-0.5-2.9-0.5c-11.3-0.4-22.6-1.1-33.7-3.4
		C127.7,647.7,126.4,647.8,124.4,647.7z M1122.1,1183.7c0.8,0.5,1.2,0.8,1.4,0.8c8.3-1.7,15.7-5.1,21-12.1c3.4-4.5,7-8.8,12.9-10.5
		c2-0.6,3.8-2.7,5.2-4.5c3.7-4.7,7.2-9.5,10.7-14.4c1.1-1.5,1.7-3.4,2.5-5c-2.3-1.6-3.8-0.6-5,0.4c-3.5,3.1-6.6,6.5-10.1,9.6
		c-2.7,2.4-5.2,5.3-8.4,6.8c-6.9,3.3-12,8.2-16.2,14.3c-3.2,4.7-6.6,9.2-11.9,11.7C1123.3,1181.3,1122.8,1182.7,1122.1,1183.7z
		 M1704.8,988.9c-1.6,0.5-4.2,1.1-6.6,2.1c-7.2,3.2-14.4,6.7-21.6,10c-2.7,1.3-3.6,3.6-2.6,6.6c1.3,4,4.2,6.3,8.2,5.6
		c2.5-0.4,5.2-1.4,7.3-2.9c6.3-4.3,12.3-9,18.4-13.5c0.8-0.6,1.7-1.2,2.1-2.1c0.6-1.1,1.2-2.6,0.9-3.5c-0.4-0.9-1.9-1.5-3.1-2
		C1707.2,989,1706.4,989.1,1704.8,988.9z M3657.3,900.4c-8.2-2.4-15.2-4.2-22.1-6.5c-12.9-4.3-25.7-9-38.6-13.5
		c-1.5-0.5-3.1-1.4-4.2,0.6c0.3,0.6,0.4,1.4,0.8,1.8c7.7,6.6,16.7,11,26.6,12.9c4,0.7,7.6,1.8,11.1,3.8c3.1,1.8,6.5,3.4,10,4.5
		C3647.1,906,3650.8,905.2,3657.3,900.4z M2926.7,1159.9c2.4,2.4,3.2,3.5,4.2,4.2c6.1,4.1,12.2,8,18.3,12c2.9,1.8,6,3.1,9.4,2.8
		c7-0.7,13,2,18.9,5.2c3.8,2.1,7.8,3.8,11.8,5.4c0.9,0.4,2.3-0.5,3.4-0.8c-0.4-1.2-0.7-2.5-1.3-3.5c-0.5-0.8-1.5-1.3-2.3-1.8
		c-6.8-3.5-13.5-7.1-20.4-10.4c-2-1-4.5-1.8-6.6-1.6c-7.1,0.7-13-1.8-18.4-6.2C2939.4,1161.9,2934.5,1160.2,2926.7,1159.9z
		 M902,60.8c2.9,5.7,4.3,7.5,10.1,9.9c4.4,1.8,8.3,4.2,11.8,7.3c7.3,6.5,15.8,11,24.4,15.4c2,1,4.4,1.5,6.6,1.9
		c1,0.2,2.2-0.6,4.6-1.3c-4.2-2.8-7.1-4.8-10.1-6.7c-9.8-6.2-20.1-11.6-28.6-19.8c-4.6-4.4-10.7-6.5-17.1-7.5
		C903.2,59.9,902.6,60.5,902,60.8z M1877.4,164.5c-1.5-5-2.8-9.4-4.2-13.8c-2.5-7.5-6.2-14.7-7.3-22.7c-0.2-1.2-1-2.7-2-3.2
		c-1.3-0.7-3.1-1.2-4.6-0.9c-1.9,0.3-2.3,2.2-1.9,4c1.7,8.8,3.4,17.6,5.4,26.3c0.7,2.8,2.1,5.6,3.8,8
		C1868.7,165.7,1872,166.6,1877.4,164.5z M563,262.5c1.9-5.5,1.5-9.5-2.6-12.4c-3.5-2.5-6.7-5.3-11.6-4.4c-1.5,0.3-3.2-0.6-4.8-0.9
		c-5.2-0.8-10.4-1.7-15.6-2.2c-1-0.1-2.6,0.9-3,1.8c-0.4,1,0,2.6,0.5,3.7c1,2.3,3.2,3.6,5.6,3.4c4.8-0.5,8.2,1.5,11.3,4.8
		c1.9,2,4.3,3.5,7,2.9C554.3,258.4,558,260.5,563,262.5z M2600.3,1192.5c0.7-0.4,1-0.5,1.3-0.7c0.5-0.4,1-0.9,1.4-1.4
		c3.1-4.9,3.2-6.8-0.5-10.4c-2.1-2.1-4.5-3.9-7.1-5.4c-5.7-3.3-11.5-6.4-17.4-9.5c-1.7-0.9-3.7-1.5-5.6-1.8
		c-1.5-0.2-3.4-0.3-3.6,1.6c8,7.9,15.7,15.5,23.5,23.1C2594.3,1190.2,2596.5,1192.2,2600.3,1192.5z M2066.7,484.1
		c3.8-1.6,4.7-5.8,6.9-8.8c2.3-3.2,4.6-6.4,7.1-9.5c2.5-3,5.2-5.8,8.6-9.6c-8.9-0.6-16.4-1.8-24.3,0.2c-0.2,8-0.4,15.5-0.5,23.1
		c0,1.3,0.5,2.5,0.9,3.8C2065.6,483.4,2066,483.6,2066.7,484.1z M529.7,549.1c2.5-8.6,1.8-10.3-4.2-13c-1.2-0.5-2.6-0.8-3.7-1.4
		c-7.6-4.2-16-3.8-24.3-4.4c-1-0.1-2.5,1-3,2c-1,2,0.7,3,2.2,3.7c6.1,2.5,12.3,5,18.5,7.5C519.8,545.3,524.4,547,529.7,549.1z
		 M2297.5,686.2c6.4,4.8,8.8,6.3,13.9,6.6c7.9,0.4,15.9,0.4,23.8,0.4c1.9,0,3.9-0.5,5.8-1.1c0.7-0.2,1.5-1.4,1.5-2.2
		c0-0.7-1-2-1.7-2c-6.2-0.5-12.4-0.8-18.6-1.3c-3.6-0.3-7.3-0.6-10.8-1.4c-2.9-0.7-5.7-2-6.3-5.5c-0.3-1.5-1.6-2.3-3-1.8
		c-1.1,0.4-2.5,1.2-2.9,2.2C2298.3,681.8,2298.1,683.8,2297.5,686.2z M2294.6,619.6c-0.3-0.4-0.5-0.8-0.8-1.2
		c-0.9,0.4-1.8,0.7-2.6,1.3c-8.9,6-18.3,10.5-28.8,13.2c-7.4,1.9-14,6.1-17.4,13.8c-1.3,3-3.7,5.5-5.5,8.3c-0.7,1-1.8,2-0.5,3.7
		c4.1,0.4,7-1.7,8-5.6c1.3-4.8,4-8.4,7.5-11.6c5.1-4.7,10.7-7.9,18-5.2c1.5,0.5,3.3,0.6,4.9,0.5c2.7-0.1,4.5-1.5,5-4.8
		c0.4-2.6,1.8-4.3,3.5-5.7C2288.8,623.9,2291.7,621.8,2294.6,619.6z M1123.9,704.1c7.8,2.6,13.3-0.6,18.2-5.4
		c4.5-4.4,5-9.8,3.5-15.6c-0.4-1.6-1.2-3.1-3.7-3c-4.7,4.6-9.7,9.4-14.6,14.2C1125.1,696.8,1123.6,699.7,1123.9,704.1z
		 M1757.4,680.5c2.2-1.9,3.5-3.5,5.2-4.4c1.7-1,3.7-1.3,5.6-2c3.1-1.1,6.3-2,9.4-3.2c1-0.4,1.9-1.2,4.2-2.9
		c-6.6,1.2-11.4,2.3-16.2,3c-5.5,0.8-8.8-1-11.3-6c-0.9-1.7-1.5-3.7-1.9-5.6c-0.8-3.9-1.3-7.8-2-11.8c-0.3-2.1-1.3-3.7-3.6-4.1
		c-2.6-0.4-4.6,0.2-5.7,3.5C1747.4,657.1,1750.2,669.3,1757.4,680.5z M1324.2,634.6c-0.9-0.8-1.4-1.4-1.9-1.5
		c-7.1-2-13-5.7-18.5-10.8c-5.2-4.9-11.9-8.1-18.1-11.8c-0.6-0.4-2.4,0.5-3.2,1.3c-0.5,0.4-0.2,1.8,0,2.7c0.1,0.6,0.6,1.2,1,1.7
		c5.2,5.7,10.8,10.7,18.4,13c3.8,1.2,7.5,2.3,10.5,5.2C1316.1,637.7,1320,636.8,1324.2,634.6z M2733.9,145.3c0.5,0.5,1,0.9,1.5,1.4
		c3.3-1.4,6.9-2.4,9.9-4.4c5.3-3.4,10.4-7.2,15.3-11.1c2-1.6,3.8-3.8,5-6c1-1.7,0.9-3.9-1.8-4.7c-8,3.9-22.2,14.5-28.4,21.4
		C2734.7,142.9,2734.4,144.2,2733.9,145.3z M2720.6,651.9c-2.9,3.3-2.3,5.6-1.7,7.9c1.6,7.1,3.5,14.1,5,21.3
		c1.3,6.3,4.2,11.8,6.9,17.5c0.4,0.8,1.2,1.7,2,2c0.8,0.4,2.1,0.5,2.8,0.1c0.7-0.4,1.3-1.6,1.2-2.4c-0.2-1.6-0.6-3.3-1.3-4.7
		c-5.9-11.6-9.3-24-12.7-36.5C2722.3,655.6,2721.5,654.2,2720.6,651.9z M2930.6,1151c5.1-4.8,9-9.4,11.8-15.5
		c-4.4-3.3-8.4-3.2-12.3-0.6c-3.1,2-5.9,4.3-8.7,6.6c-0.9,0.8-1.4,2-2.6,3.8c1.1,0.7,2,1.3,2.9,1.7
		C2924.2,1148.3,2927,1149.4,2930.6,1151z M2698.5,615.9c-1.5,4.4-0.1,6.5,2.7,7.4c7.6,2.5,16.2-1.2,20.2-8.3
		c0.4-0.8,0.6-2.2,0.2-2.7c-0.7-0.9-2.2-2-3.1-1.8C2711.9,612.1,2705.3,614,2698.5,615.9z M3059.1,686.9c1.2,2.9,2.1,5.4,3.4,7.6
		c0.7,1.3,2,2.5,3.3,3.2c1.2,0.6,2.7-2.1,2.6-4.6c-0.1-1,0.1-2.1-0.3-2.9c-2.3-4.8-1.5-8.8,2.3-12.5c1.1-1.1,1.8-2.7,2.6-4.2
		c0.4-0.9,0.8-1.9,0.7-2.8c-0.1-0.9-0.6-2-1.3-2.4c-0.7-0.3-2.2-0.2-2.6,0.3c-1.4,1.8-3.1,3.6-3.7,5.7
		C3064.6,679.1,3062.7,683.4,3059.1,686.9z M3075.5,652.9c2.8-2.6,5-4.5,7.1-6.6c3.9-3.8,6.2-8.5,6.9-13.9c0.2-1.6-1.9-3.1-3.4-2.4
		c-0.9,0.4-2,0.7-2.6,1.4C3077.9,637.1,3072.6,643,3075.5,652.9z M1785.4,428.6c0.4,0.6,0.7,1.2,1.1,1.9c1.7-0.8,3.6-1.2,5-2.3
		c7.2-5.8,14.3-11.8,21.4-17.9c0.5-0.5,0.5-1.8,0.4-2.7c-0.2-1.1-2.4-1.4-3.4-0.6c-5.8,4.9-11.6,9.9-17.3,14.9
		C1790.1,424,1787.8,426.3,1785.4,428.6z M68.1,883.5c-7.1,1.4-14.4,2.9-21.8,4.4c-0.3,0.1-0.7,0.2-0.9,0.5c-0.7,1-1.8,2.1-1.8,3.2
		c0,1.1,1,2.3,1.9,3.1c0.6,0.6,1.8,0.8,2.8,0.8c3.1,0.2,6.1-0.7,7.8-3.3c2.5-3.8,5.8-5,10-5c0.9,0,1.9-0.5,2.8-1
		c0.5-0.3,1-1,0.9-1.5C69.8,884.3,69,884.1,68.1,883.5z M1877.9,198.6c-0.6,7.5,0.1,10,3.9,14.4c3.2-1.1,6.9-1.5,9.1-4.9
		C1886.6,205,1882.7,202.1,1877.9,198.6z M1978.9,913.4c8.6-2.9,15.7-4.5,22.4-7.3c0.6-0.2,1.2-0.7,1.5-1.2c0.3-0.5,0.3-1.2,0.5-1.9
		c-0.2-0.2-0.4-0.6-0.7-0.6c-8.1,0.1-15.3,3.4-22.5,6.5C1979.6,909.2,1979.7,910.6,1978.9,913.4z M2519.4,676.7
		c5.9-1,9.9-3.3,13.4-6.3c1.3-1.1,2.1-3,0.7-4.4c-1-1-3-1.8-4.3-1.5C2523.5,665.7,2520.1,669.1,2519.4,676.7z M1618.7,659.7
		c3.8,11.2,3.7,21.5,9.3,32.4c0.7-12-2.8-21.2-5.2-30.7C1622.6,660.9,1621.2,660.7,1618.7,659.7z M3358.6,187.1
		c-4.3,1.3-7.7,4-10.6,7.7c-0.4,0.5-0.7,1.2-0.7,1.8c0,0.9,0.1,2.1,0.6,2.7c0.5,0.6,1.8,0.9,2.6,0.7c4.5-1,7.6-3.8,9.2-8
		C3360.2,190.4,3360.5,188.7,3358.6,187.1z M2224.4,611.8c-0.6-1.2-1.2-3.2-2.4-4.6c-0.6-0.7-2.6-1-3.4-0.6c-3,1.6-4.5,5.3-3.7,8.3
		c0.6,2.2,2.9,4.2,4.9,4.2c2,0,3.8-2,4.3-4.7C2224.2,613.8,2224.2,613.1,2224.4,611.8z M2569.9,1014.1c0.2-0.3,0.4-0.5,0.5-0.8
		c-0.9-0.9-1.6-1.9-2.6-2.5c-4.5-2.8-9.1-5.4-13.7-8.1c-0.4-0.2-1.1,0.3-2.1,0.5c0.9,3.9,3.3,6.3,7,7.5c1.9,0.6,3.9,0.8,5.8,1.3
		C2566.5,1012.6,2568.1,1013.4,2569.9,1014.1z M1978.9,827.8c-3.1,5.9-3.4,10.3-1.8,14.8c0.3,0.7,1.5,1.6,2.3,1.6
		c0.7,0,2-0.9,2.1-1.6C1982.5,837.9,1982.1,833.5,1978.9,827.8z M2506.2,632.7c-6.3-2.2-10.2-0.7-13.9,1.7c-0.6,0.4-0.9,1.9-0.6,2.5
		c0.3,0.7,1.7,1.5,2.3,1.3C2497.7,637.2,2501.6,636.5,2506.2,632.7z M1175.1,615.3c1.1-0.5,3.2-0.9,3.8-2c0.6-1.1,0.1-3.4-0.8-4.4
		c-0.9-1-2.8-1.3-4.3-1.5c-0.8-0.1-2,0.5-2.6,1.1c-0.8,0.9-1.8,2.2-1.7,3.2c0.1,1,1.4,2.1,2.4,2.8
		C1172.5,615.1,1173.7,615,1175.1,615.3z M2377.6,694.6c-4.9-1.3-8-2.3-11.2-3c-1.3-0.3-2.8,0.1-2.9,1.8c0,0.8,0.7,1.9,1.4,2.3
		C2368.5,697.7,2372.3,698,2377.6,694.6z M2433.1,297.7c1.5-7.4,1.5-7.4-0.4-12C2428.2,292.5,2428.2,292.6,2433.1,297.7z
		 M173.4,658.8c1.2,0,1.5,0,1.8,0c1.7-0.2,3.2-0.8,3.4-2.7c0.2-1.4-1.4-2.4-3.6-2.4c-0.3,0-0.6,0.1-1,0.1c-2.1,0.3-3.4,1.7-2.7,3.1
		C171.9,657.8,173,658.4,173.4,658.8z M1325.1,303.8c0.3-2.4-1.1-3.4-2.6-3.9c-0.7-0.2-1.8,0.3-2.5,0.7c-0.3,0.2-0.4,1.4-0.1,1.7
		c0.8,0.9,1.8,1.9,2.9,2.4C1323.4,304.9,1324.4,304.1,1325.1,303.8z M3453.1,1195.3c1-1.2,2-1.9,2-2.5c-0.1-1.9-1.6-2.9-3.3-2.8
		c-0.7,0-1.9,1.6-1.8,1.7C3450.8,1192.8,3451.8,1193.8,3453.1,1195.3z M1440.4,703.9c-0.4-1.1-0.4-2-0.8-2.2c-1.7-0.9-4,0.2-4.6,2.2
		c-0.1,0.5,1.1,1.9,1.4,1.9C1437.9,705.4,1439.2,704.6,1440.4,703.9z M1710.6,703.3c0.8-2.2,1.6-3.4,1.4-4.2c-0.3-1-1.6-1.7-2.5-2.6
		c-0.8,0.9-2.3,2-2.2,2.6C1707.7,700.3,1709,701.2,1710.6,703.3z M1911.9,286.8c2.2-1.1,4.6-2.2,3.6-5.6
		C1912.4,281.8,1912,284.1,1911.9,286.8z M1762.8,926.5c1.4-0.9,2.7-1.6,3.9-2.5c0.1-0.1-0.4-1-0.6-1.6c-1.4,0.6-2.8,1.3-4.1,2
		C1762,924.4,1762.4,925.4,1762.8,926.5z M1907.5,201.7c-0.3-0.5-0.7-1.3-1.1-1.3c-1.8-0.2-3.9,1.4-4.1,3.2c0,0.4,0.7,1.1,1,1.2
		C1905.5,205,1907.1,203.6,1907.5,201.7z M1567.2,83.9c-0.8,1.1-1.5,1.8-1.4,1.9c0.5,0.8,1.1,1.5,1.9,2c0.2,0.1,1.4-0.8,1.4-0.9
		C1568.6,86,1567.9,85.1,1567.2,83.9z M2175.4,695.9c-0.7-0.5-1.1-0.8-1.6-1.1c-0.5,0.8-1,1.6-1.6,2.3c0.4,0.3,1.2,0.9,1.3,0.8
		C2174.2,697.3,2174.8,696.6,2175.4,695.9z M1778,439.1c-0.6-1-0.9-2-1.2-2c-1.6,0-2.1,1.3-2.1,2.6c0,0.5,0.6,1.1,0.9,1.6
		C1776.5,440.5,1777.3,439.7,1778,439.1z M2001.7,809.8c0.5-0.8,1.1-1.4,1.4-2.2c0.1-0.2-1.1-1.1-1.2-1.1c-0.7,0.5-1.2,1.2-1.8,1.9
		C2000.5,808.8,2001,809.2,2001.7,809.8z M2435.1,252.1c-0.7-0.5-1.4-1-2.2-1.4c-0.2,0.5-0.8,1.2-0.7,1.4c0.5,0.7,1.3,1.2,1.9,1.7
		C2434.5,253.3,2434.7,252.8,2435.1,252.1z"/>
	<path class="st1" d="M3608.2,793.1c1.6,0.4,3.3,0.8,4.9,0.7c14.8-1.1,29.2,2,43.5,4.8c12.5,2.4,25.1,2.9,37.7,3.2
		c2.3,0.1,4.8-0.2,6.9,0.4c12.5,3.6,25.7,3.2,38.3,6.8c9.4-0.1,18.5,1.9,27.8,2.8c3.3,0.3,6.6-0.4,9.9-0.7c2.3-0.2,4.5-0.6,7.1-1
		c2.7,6.8,1.9,13.2,1.2,20.3c-2.9,0.3-5.5,0.8-8.1,0.9c-31.7,0.3-63.3-0.2-94.8-3.3c-21.2-2.1-42.4-4.1-63.6-6
		c-18.2-1.7-36.5-3.1-54.7-4.7c-4.3-0.4-8.6-1.1-12.9-1.5c-24.9-2.2-49.7-4.4-74.6-6.6c-6-0.5-11.9-1.2-17.9-2
		c-4.2-0.5-5.7-1.8-5.5-5.6c0.4-8.6,1.2-17.3,2-25.9c0.3-2.6,2.9-4,5.3-2.9c13.3,6.1,28,5.2,41.9,8.3c2.2,0.5,4.7,0.4,7,0.3
		c12.1-0.6,23.9,1.3,35.7,3.2c2.9,0.5,6,0.5,8.9,0.9c4.3,0.5,8.5,1.2,12.8,1.8c2.3,0.3,4.6,1.1,6.8,1.1"/>
	<path class="st1" d="M2359.5,439.3c-0.2-1.8-0.6-3.7-0.6-5.6c0-27.3,0.1-54.6,0.2-81.8c0-0.7,0-1.3,0-2c0.3-7.2,1.2-8.2,8.2-7.3
		c3.1,0.4,5.8-0.1,8.6-1.5c7.5-3.7,14.9-7.4,19.4-15c1.8-3,4.8-4.5,8.1-5.4c4.6-1.3,8.5-3.6,11.8-7c1.8-1.8,4.2-3.3,6.6-4.3
		c3.6-1.6,7.4-2.7,11-4c2.1,2.8,0.8,4.9-1.1,6.3c-3.7,2.8-7.4,5.9-11.5,7.9c-6.7,3.2-8.5,8.3-8.3,15.4c0.4,21.3,0.3,42.6,0.6,63.9
		c0.2,17.9,1.3,14-13.2,21.6c-12.4,6.5-24.9,12.7-37.3,19C2361.4,439.5,2360.7,439.3,2359.5,439.3z"/>
	<path class="st1" d="M2359.5,588.1c-0.5-1.7-1-2.7-0.9-3.6c0.4-11.3,0.9-22.6,1.4-33.9c0.2-5.3,0.4-10.6,0.8-15.9
		c0.3-3.9,2-5.5,5.9-4.7c4.2,0.9,7.8,0.1,11.6-1.4c3-1.3,6.4-1.9,9.6-2.8c5.8-1.7,11.3-3.7,15.7-8.2c1.4-1.5,3.9-2,5.6-2.8
		c3.4,2.2,2.8,5.1,2.8,7.6c0.2,6.7,3.2,11.3,9,14.4c4.7,2.5,9.1,5.5,13.6,8.3c2.8,1.7,4.1,4.2,4.2,7.5c0.1,6,0.3,12,0.2,18
		c-0.1,4.5-1.4,5.7-5.8,6.7c-14.9,3.4-30,5.7-45.2,7.7C2378.6,586,2369.4,587,2359.5,588.1z"/>
	<path class="st1" d="M2904.2,428.7c-16,4.5-31.5,9.2-48.1,12.3c-0.5-1.8-1.2-3.3-1.2-4.8c0.3-14.3,0.8-28.6,1.2-42.9
		c0.2-7.3,0.4-14.6,0.6-22c0.1-2.7,0.1-5.3,0.5-8c0.3-2.2,1.8-3.5,4-3.9c1.3-0.2,2.6-0.3,4-0.4c3.4,0,6.6-0.8,9.4-2.7
		c1.4-0.9,2.9-2,4.4-2.2c6.5-0.8,11.9-3.9,17.2-7.4c3-2,6.1-0.6,7,2.8c0.5,1.9,0.8,3.9,0.8,5.9c0.4,22.6,0.7,45.3,1,67.9
		C2904.9,424.9,2904.6,426.2,2904.2,428.7z"/>
	<path class="st1" d="M2903.2,496.3c0.3,3.6,0.7,6.2,0.8,8.8c0.4,22.9,0.7,45.9,1,68.8c0,1.3,0,2.7-0.1,4c-0.2,2.2-1.5,3.6-3.6,4.2
		c-1,0.2-1.9,0.4-2.9,0.5c-11.3,0.9-22.5,1.7-33.8,2.5c-2,0.1-3.9-0.2-6.4-0.4c-0.5-1.9-1.5-3.8-1.4-5.6c0.3-15.9,0.8-31.9,1.3-47.8
		c0.2-5.3,0.3-10.6,0.7-15.9c0.6-7.3,7.1-12,14-9.8c4.5,1.5,8.4,1.4,12.5-0.7C2890.7,502.2,2896.4,499.5,2903.2,496.3z"/>
	<path class="st1" d="M2523.1,691.6c1.3,1.5,2,2.7,2.9,3.4c3.1,2,4.2,5,4.2,8.5c0,1.7,0.1,3.3,0.2,5c0.1,2.5,1.1,4.5,2.9,6.1
		c2.2,2,4.2,4.3,6.7,6c6,4.1,8.1,10.4,10.2,16.7c0.6,1.6,0.5,3.8-1.1,4.4c-1.2,0.4-3.3-0.2-4.4-1c-1.8-1.3-3.8-3-4.7-5
		c-2.9-6-7.2-9.7-13.7-12.1c-5.1-1.9-9.5-6-13.8-9.7c-2.7-2.3-5.3-3.8-8.7-4.3c-6.2-1-12.4-2.2-18.6-3.5
		c-11.7-2.4-23.2-0.6-34.6,1.5c-3.3,0.6-6.4,1.2-9.8,0.5c-2.9-0.6-5.9-0.7-8.9-0.7c-9.4-0.1-18.5-1.6-27.6-4
		c-5.1-1.3-10.4-2.4-15.5-3.7c-1.6-0.4-3.3-0.9-4.5-1.8c-0.8-0.6-1.3-2.2-1.2-3.4c0-0.7,1.2-1.7,2-1.9c1.6-0.3,3.3-0.4,4.9-0.3
		c9.6,0.8,19.2,1.7,28.8,2.4c5.6,0.4,11.2,0.4,16.9-0.4c5.9-0.8,11.9-0.6,17.9-0.8c3-0.1,6,0.2,9-0.2c9-1.4,17.9-0.1,26.7,1.3
		c2,0.3,3.9,0.7,5.9,1.1c3.5,0.8,7.4,2.9,10.6,0.8c4.1-2.6,8.7-4.8,11-9.8c2.8-6,8.9-7.5,14.6-9.3c0.6-0.2,2.5,1.4,2.5,2.3
		c0.3,4-1.6,7-5.1,9C2527.2,689.7,2525.4,690.5,2523.1,691.6z"/>
	<path class="st1" d="M2090.5,669.2c0.2-2.6,0.5-5.2,0.7-8.1c-2.7-1.6-5.2-3.1-7.3-4.4c-0.1-3.3,2.2-3.7,3.8-4.7
		c4.8-3.1,7.6-7.3,8.1-13c0.6-6.9,2.7-13.7,1.7-20.8c-0.3-2.4,0.5-4.7,3.9-4.8c2.7,5.1,3.8,10.4,2.9,16.2c-0.5,3-0.2,6.1-0.9,8.9
		c-1.4,5.3,0,9.7,2.8,14.2c2.2,3.7,5.1,5.9,9.3,6.7c13.1,2.4,26,5.3,39.1,7.5c7.5,1.2,15.2,1.3,22.8,2.1c3.7,0.4,6.1-2.6,9.3-2.9
		c2.8-0.3,5.8,1.3,8.7,1.2c2.2-0.1,4.3-1.8,6.5-2.2c2.2-0.5,5-1.2,6.7-0.3c6.9,3.5,12.9,1.4,19-1.8c0.8-0.4,1.8-0.4,2.9-0.7
		c-0.4,2.2-0.8,4-1.2,6.2c6.5,2.3,12.4,5.1,19.2,5.5c5.8,0.4,6.3,0.8,11.8,4.6c-2.2,2.6-5.3,2.6-8.2,2.6c-2.3,0-4.8-0.2-6.9-1
		c-9.5-3.6-19.1-1.2-28.6-0.8c-1.2,0-2.4,0.9-3.2,1.2c-1.4,2.7,0.4,4.1,1.3,5.8c2.3,4.4,4.6,8.8,6.7,13.3c0.2,0.5-0.6,1.7-1.2,2.2
		c-0.2,0.2-1.4,0-1.8-0.4c-3.7-4.3-7.7-8.4-9.6-13.9c-1.5-4.6-4.6-6.2-9.1-6.1c-5,0.1-9.9-0.5-14.6-2.6c-1.8-0.8-3.9-1.1-5.8-1.2
		c-5.4-0.5-10.3-2.4-15.4-3.9c-7-2-14.3-3.1-21.5-4.3c-2.2-0.4-4.5,0.4-6.9,0.6c-2.7,5.3-0.8,10.9-2.2,15.9
		c-1.4,5.1-2.6,10.3-3.9,15.2c-2.1,0.9-2.8-0.4-2.7-1.7c0.3-2.6,1.1-5.2,1.3-7.9c0.4-4.3,0.7-8.6,0.6-12.9
		c-0.2-6.8-1.8-8.7-8.2-10.8c-2.2-0.7-4.5-1.1-6.7-2c-8.5-3.4-16.2-1.7-23.6,3.1L2090.5,669.2z"/>
	<path class="st1" d="M1436.3,421.2c-5.8,1-8.8-1.3-11.1-4.9c-2.1-3.4-4.1-6.8-6.1-10.3c-1.6-2.8-3.9-4.3-7.1-4.8
		c-7.2-1.2-14.3-3.1-21.6-4.1c-10.2-1.5-20.5-2.4-30.7-3.6c-5.9-0.7-11.9-1.3-17.8-2.4c-3.8-0.7-7.5-2.1-10.1-6.4
		c21.1,0.9,41.4-0.6,61.4,4.1c3.7,0.9,7.7,2.1,12.1-0.4c-1-1.9-1.6-3.8-2.7-5.3c-4.4-5.8-8.7-11.8-13.6-17.3
		c-5-5.8-10.5-11.2-15.9-16.6c-4.9-4.9-10-9.8-15.2-14.5c-4.2-3.8-8.7-7.2-12.8-11.2c-4.5-4.4-8.6-9.2-12.7-14
		c-0.5-0.6-0.5-1.7-1-3.5c1.9,0.6,3.1,0.8,4.1,1.5c7,4.6,13.9,9.1,20.7,13.9c2.1,1.5,4,3.5,5.6,5.6c5,6.7,11.1,12.4,17.9,17.3
		c1.9,1.4,3.7,2.8,5.5,4.3c3.4,2.9,6.2,6,6.7,10.7c0.4,4.5,3.2,7.2,7,9.1c14.2,6.9,22.7,19.2,30,32.5c2.6,4.7,4.5,9.7,6.5,14.6
		C1436,417.1,1435.9,418.8,1436.3,421.2z"/>
	<path class="st1" d="M2559.5,485.1c-1-10.7-0.4-20.2-0.4-30.2c2.4-0.4,4.3-1.1,6.2-1.1c30.6-0.3,61.2-0.6,91.8-0.8
		c2.3,0,4.5,0.4,6.9,0.6c-0.5,2.6-2.4,2.8-3.9,3.3c-27,8.4-54,16.7-81,25C2573,483.7,2567,485.6,2559.5,485.1z"/>
	<path class="st1" d="M2526.2,651.6c-5.2-6-9.8-11.2-14.1-16.6c-0.7-0.9-0.6-3.6,0.2-4.5c5.6-6.5,15.7-11.7,24.9-8
		c1.8,0.7,3.5,2,4.8,3.4c3.4,3.9,7.7,4.8,12.6,4.7c6-0.1,12,0,18,0.7c14.2,1.6,27.9-0.9,41.4-4.6c2.9-0.8,5.8-1.6,8.7-2.2
		c0.5-0.1,1.6,0.5,1.6,0.8c0.2,0.9,0.1,2-0.3,2.7c-0.8,1-1.9,2-3,2.5c-6.3,3-12.6,6.1-19,8.7c-3,1.2-6.4,1.6-9.7,1.8
		c-12,0.7-24,0.8-35.9-1.1c-1-0.2-2-0.2-3-0.3c-2.9-0.3-5.3,0.3-6.7,3.2c-2.3,4.7-6.5,6.4-11.3,7
		C2532.2,650.2,2529.3,651,2526.2,651.6z"/>
	<path class="st1" d="M1561.2,602.2c-1.9,5.9-3.3,11.4-7.2,15.3c-2.6-0.1-3.4-1.6-3.7-3.2c-0.8-3.9-1.3-7.9-2-11.8
		c-1.1-6.1-3.6-7.8-9.8-6.5c-2.3,0.5-4.4,1.4-6.7,2.1c-1.6,0.4-3.2,0.7-4.7,1c-5.9-4.4-11-8.9-13.7-15.8c-1.2-2.9-3.9-5.3-5.9-7.9
		c-1.5-2-4.2-3.3-4-6.8c6.5-0.4,12.6,0.2,17.9,4.4c3.8,2.9,5.8,6.3,4.4,11.2c-0.4,1.5-0.5,3.1-0.8,5.4c1.9-0.2,3.2-0.2,4.4-0.5
		c2.9-0.8,5.8-1.7,8.6-2.5c12.9-3.8,24.2-0.7,34.4,7.7c1.7,1.4,4,2.5,6.1,3c5.5,1.1,11.1,1.7,16.6,2.6c0.5,0.1,0.8,0.8,1.2,1.3
		C1583.9,606,1580.2,608.3,1561.2,602.2z"/>
	<path class="st1" d="M3423,1180.7c-0.6,2-2.1,2.3-3.1,1.6c-4.8-3-9.8-3.4-15.3-3.1c-3.2,0.2-6.5-1-9.8-1.7
		c-7.2-1.5-14.3-3.1-21.4-4.7c-2.6-0.6-5.2-1.2-7.7-2.2c-13.9-5.5-27.9-11.1-41.7-16.7c-1.7-0.7-3-2.1-4.7-3.4
		c4.2-3.5,8.2-4.1,12.5-1.9c6.9,3.5,14.4,5.1,21.9,6.9c4.5,1.1,9,2.5,13.4,4.1c9.1,3.3,18.3,6.1,27.8,7.9c7.2,1.4,14.4,3,20.2,8
		C3417.4,1177.7,3421.3,1177.7,3423,1180.7z"/>
	<path class="st1" d="M1876,292.9c4.9,1.1,8.4,2.1,11.9,2.6c3.2,0.4,6.5,0.1,9.8,1.2c-3.5,0.7-7.1,1.1-10.6,2.1
		c-5,1.3-7.2,4.9-5.7,9.8c4.8,15.3,6.5,31.2,10.1,46.7c2,8.9,1.4,17.8,1.1,26.8c-0.1,2.1-1.8,4-2.7,3.4c-1-0.7-2.2-1.7-2.4-2.9
		c-1.5-5.8-2.8-11.6-4-17.4c-3.9-18.2-7.8-36.3-10-54.8c-0.5-4.5-0.3-9.2,0.1-13.7C1873.6,295.3,1875.2,294,1876,292.9z"/>
	<path class="st1" d="M1701.8,624.7c2.9-4.1,5.6-7.8,8.4-11.8c2.1,2.9,0.4,5-0.1,7c-1.4,5.2-0.4,9.8,2.6,14.2c1.1,1.6,2,3.2,2.8,4.6
		c-1.9,2.7-4,2.1-5.8,1.4c-4.7-1.8-8.9-1-13.4,1c-5.1,2.2-10.6,3.6-16,5.2c-0.7,0.2-2.3-0.4-2.5-0.9c-0.4-1.1-0.5-2.9,0.1-3.6
		c1.3-1.4,3.3-2.1,4.8-3.3c1.2-0.9,2.2-2.2,3.4-3.5c-3.5-3.9-7.8-4.8-11.9-5.7c-4-0.9-7.5-2.3-11-4.4c-2.8-1.7-6.1-2.7-9-4.2
		c-3.5-1.9-6.8-4-10.1-6.3c-0.6-0.4-0.8-1.9-0.5-2.6c0.2-0.6,1.7-1.2,2.3-1c5.5,2.2,11.2,4.3,16.4,7.1c9.6,5.1,19.7,7.8,30.6,6.9
		C1695.9,624.5,1698.9,624.7,1701.8,624.7z"/>
	<path class="st1" d="M2452.5,639.8c0.5,0.4,1.8,1,1.8,1.6c0,1.1-0.5,2.7-1.3,3.3c-1.2,1-2.9,1.7-4.5,1.9
		c-5.9,0.7-11.6,2.4-17.4,3.8c-14.2,3.4-28.6,5.7-42.9,8.8c-9,2-17.9,4.8-26.8,7.5c-6,1.8-12,3.9-18,5.8c-1.9,0.6-3.8,1.2-5.7,1.7
		c-2.2,0.5-4.6-1-4.5-2.7c0-2.1,1.6-2.8,3.2-3.3c2.9-0.9,5.8-1.4,8.7-2.2c19.8-5.6,39.7-11,59.3-17c15-4.6,30.5-6.6,45.8-9.2
		C2450.8,639.7,2451.5,639.8,2452.5,639.8z"/>
	<path class="st1" d="M359.1,1140.1c-1.4,0.8-2.6,1.9-4.1,2.5c-8,3.4-16,6.5-23.9,10c-5.2,2.3-10.1,5-15.2,7.5
		c-3.9,1.9-7.7,4-11.7,5.5c-7.2,2.6-14.5,4.9-21.7,7.2c-0.5,0.2-1.2-0.3-1.8-0.4c-0.8-1.6,0.2-2.8,1.4-3c6.6-1.7,11.5-6.4,17.4-9.4
		c10-5.1,18.1-12.4,25.8-20.2c2.9-2.9,5.9-3.7,9.9-3.2c5.9,0.7,12,0.6,17.9,0.9c1.9,0.1,3.8,0.5,5.7,0.8
		C358.8,1138.9,358.9,1139.5,359.1,1140.1z"/>
	<path class="st1" d="M1484.1,564c-1.9,0-3.8-0.2-5.7,0c-2.2,0.3-3.4,2.2-2.8,4.4c0.2,0.6,0.5,1.2,0.8,1.8c0.9,1.8,2.3,3.9,0.2,5.3
		c-1.4,1-3.7,1-5.6,0.9c-3.3-0.2-5.7-2.1-6.3-5.4c-0.8-3.8-3.3-5.5-6.5-6.8c-6.7-2.9-13.2-6-20.3-8.2c-7.5-2.4-14.6-6.5-21.4-10.5
		c-6.3-3.7-12.2-8.1-18.2-12.3c-1.5-1.1-2.8-2.6-4.1-3.8c1.6-2.9,3.9-2.3,5.5-1.5c5.3,2.8,10.7,5.4,15.3,9.2
		c5.3,4.3,11,7.4,17.5,9.1c9.4,2.5,18.1,6.7,26.5,11.5c4.5,2.5,8.9,4.2,14.1,3.9c3.6-0.2,7.2,0.3,10.8,0.6
		C1484,562.7,1484.1,563.4,1484.1,564z"/>
	<path class="st1" d="M1381.6,1190.4c1.9-3.9,5.1-5.1,8-6.7c5.3-2.8,10.6-5.5,15.9-8.2c5.1-2.6,9.7-5.7,13.7-9.9
		c8.3-8.6,16.8-17,25-25.8c4-4.3,8.3-6.3,14.1-4c0.1,3.5-2.5,4.9-4.6,6.1c-7.4,4.1-13.2,10-19.1,15.9c-4.3,4.2-8.1,8.7-11.1,14
		c-1.3,2.3-2.8,4.9-4.9,6.1c-8.8,5.3-17.8,10.4-26.9,15.2C1387.9,1195.1,1387,1194.5,1381.6,1190.4z"/>
	<path class="st1" d="M1892.6,470.6c6.4-8.4,6.4-8.4,4.2-19.3c-0.8-4.2-1.7-8.5-2.3-12.8c-0.3-1.9-0.1-4,0.4-5.9
		c0.3-1.1,1.6-2.4,2.6-2.6c1-0.2,2.5,0.7,3.3,1.6c0.8,0.9,1.3,2.3,1.5,3.6c1.9,9.5,4,18.9,5.6,28.4c0.9,5.5,0.7,11.1-0.4,16.8
		c-1.3,6.5,0.2,13.1,2.7,19.4c0.5,1.2,1.1,2.4,1.4,3.7c0.1,0.5-0.3,1.5-0.7,1.7c-0.8,0.3-1.9,0.5-2.7,0.2c-0.8-0.4-1.6-1.3-2-2.1
		c-1-1.7-1.9-3.5-2.5-5.4c-2.7-7.9-5.3-15.7-9.8-22.9C1893.1,473.7,1893,471.9,1892.6,470.6z"/>
	<path class="st1" d="M1157.7,92.5c-2.6-0.4-5.2-1-7.8-1.2c-4-0.3-6.9-2.2-9.4-5.1c-6.6-7.9-14.4-14.8-20.3-23.3
		c-2.8-4.1-6.6-7.5-9.9-11.2c-1.1-1.2-1.9-2.7-2.8-4.1c-0.6-1,0.9-3.1,2-2.8c1.9,0.5,4,0.9,5.5,2c4.6,3.3,9.3,6.5,13.5,10.3
		c9,8.4,18.3,16.5,24.8,27.2c1.5,2.4,3.7,4.5,5.5,6.7C1158.5,91.5,1158.1,92,1157.7,92.5z"/>
	<path class="st1" d="M2424.6,1132.5c9.1-1.5,15.8-0.1,21,6.3c4,4.9,8.1,9.7,12.3,14.4c4.4,5,8.9,9.9,13.3,14.9c1.3,1.5,2.7,3,2,5.3
		c-0.5,1.5-3.6,1.8-6.3-0.1c-6.2-4.4-12.7-8.6-18.2-13.8c-7.5-7.1-14.2-15-21.1-22.5C2426.7,1136.1,2426.1,1134.9,2424.6,1132.5z"/>
	<path class="st1" d="M1865.4,457.2c-4.3-0.8-9-1.5-13.4-2.6c-3.6-0.9-6.6-3-8.9-6.1c-2.3-3.1-5.5-4.5-9.3-5
		c-4-0.5-7.9-1.2-11.1-3.9c-0.6-0.6-1.1-1.8-1-2.6c0.1-0.8,1.1-1.8,1.8-2c1.5-0.4,3.3-0.6,4.8-0.3c1.6,0.3,2.9,1.5,4.5,2.1
		c5.2,2.1,10.4,3.9,16.3,3.2c4.2-0.4,8.6,0.4,12.8,1c5.3,0.8,9.1,3.7,11.4,8.6c1.7,3.7,0.2,6.7-3.8,7.3
		C1868.3,457,1867,457.1,1865.4,457.2z"/>
	<path class="st1" d="M1122.1,1183.7c0.7-1,1.2-2.3,2.2-2.8c5.3-2.6,8.7-7.1,11.9-11.7c4.2-6.1,9.3-11.1,16.2-14.3
		c3.2-1.5,5.7-4.4,8.4-6.8c3.4-3.1,6.6-6.5,10.1-9.6c1.1-1,2.7-2,5-0.4c-0.8,1.6-1.5,3.5-2.5,5c-3.5,4.9-7,9.7-10.7,14.4
		c-1.4,1.8-3.2,3.9-5.2,4.5c-5.9,1.8-9.4,6.1-12.9,10.5c-5.3,7-12.7,10.4-21,12.1C1123.2,1184.5,1122.9,1184.2,1122.1,1183.7z"/>
	<path class="st1" d="M1704.8,988.9c1.6,0.2,2.4,0.1,2.9,0.4c1.1,0.6,2.7,1.1,3.1,2c0.4,0.9-0.3,2.5-0.9,3.5
		c-0.4,0.8-1.3,1.5-2.1,2.1c-6.1,4.6-12.1,9.2-18.4,13.5c-2.1,1.4-4.7,2.4-7.3,2.9c-4,0.7-6.9-1.5-8.2-5.6c-1-3-0.1-5.4,2.6-6.6
		c7.2-3.4,14.3-6.8,21.6-10C1700.5,990,1703.1,989.4,1704.8,988.9z"/>
	<path class="st1" d="M2090.2,669c0.4,6.1-2.4,11-6.2,15.3c-2.8,3.2-5.8,6.5-9.2,9.1c-4.9,3.8-10.2,7.2-15.8,11
		c-1.4-3.1,0-6.1-0.5-8.8c-0.5-2.9-1.2-5.9-1.3-8.9c-0.2-5.8,5-9,10.3-6.6c1.5,0.7,2.8,1.7,4.3,2.6c1.1,0.6,2.4,1.2,3.5,1.8
		c3.9-1.6,5.3-5.1,7.2-8.1c2-3.2,4.4-5.8,8.1-7.1L2090.2,669z"/>
	<path class="st1" d="M3657.3,900.4c-6.5,4.8-10.2,5.6-16.5,3.6c-3.5-1.1-6.8-2.7-10-4.5c-3.5-2-7.1-3.1-11.1-3.8
		c-9.9-1.8-18.9-6.2-26.6-12.9c-0.4-0.4-0.5-1.1-0.8-1.8c1.1-2,2.8-1.1,4.2-0.6c12.9,4.5,25.7,9.1,38.6,13.5
		C3642.1,896.2,3649.2,898,3657.3,900.4z"/>
	<path class="st1" d="M2926.7,1159.9c7.7,0.2,12.6,1.9,16.9,5.3c5.4,4.3,11.2,6.8,18.4,6.2c2.2-0.2,4.6,0.6,6.6,1.6
		c6.9,3.3,13.6,6.9,20.4,10.4c0.9,0.5,1.8,1,2.3,1.8c0.7,1,0.9,2.3,1.3,3.5c-1.2,0.3-2.5,1.2-3.4,0.8c-4-1.6-8-3.3-11.8-5.4
		c-5.9-3.2-11.9-5.9-18.9-5.2c-3.4,0.3-6.5-1-9.4-2.8c-6.1-4-12.3-7.9-18.3-12C2929.9,1163.5,2929.1,1162.4,2926.7,1159.9z"/>
	<path class="st1" d="M1877.4,164.5c-5.4,2.1-8.7,1.1-10.9-2.3c-1.6-2.4-3.1-5.2-3.8-8c-2-8.7-3.7-17.5-5.4-26.3
		c-0.3-1.7,0-3.6,1.9-4c1.4-0.3,3.3,0.2,4.6,0.9c1,0.6,1.9,2,2,3.2c1.1,8,4.9,15.1,7.3,22.7C1874.6,155.1,1875.9,159.6,1877.4,164.5
		z"/>
	<path class="st1" d="M563,262.5c-5-2-8.7-4.2-13.3-3.3c-2.7,0.5-5.2-0.9-7-2.9c-3.1-3.3-6.5-5.3-11.3-4.8c-2.4,0.3-4.5-1.1-5.6-3.4
		c-0.5-1.1-0.9-2.7-0.5-3.7c0.4-0.9,2-1.9,3-1.8c5.2,0.6,10.4,1.4,15.6,2.2c1.6,0.2,3.3,1.2,4.8,0.9c4.9-1,8.2,1.9,11.6,4.4
		C564.5,253.1,564.9,257,563,262.5z"/>
	<path class="st1" d="M2600.3,1192.5c-3.7-0.4-6-2.3-8.1-4.4c-7.7-7.6-15.5-15.3-23.5-23.1c0.2-2,2.1-1.8,3.6-1.6
		c1.9,0.3,3.9,0.9,5.6,1.8c5.9,3,11.7,6.2,17.4,9.5c2.5,1.5,5,3.3,7.1,5.4c3.7,3.7,3.7,5.6,0.5,10.4c-0.3,0.5-0.9,1-1.4,1.4
		C2601.3,1192,2601,1192.1,2600.3,1192.5z"/>
	<path class="st1" d="M2066.7,484.1c-0.7-0.5-1.1-0.6-1.2-0.9c-0.4-1.2-0.9-2.5-0.9-3.8c0.1-7.5,0.3-15.1,0.5-23.1
		c7.8-2.1,15.4-0.8,24.3-0.2c-3.5,3.8-6.2,6.6-8.6,9.6c-2.5,3.1-4.8,6.3-7.1,9.5C2071.4,478.3,2070.5,482.5,2066.7,484.1z"/>
	<path class="st1" d="M529.7,549.1c-5.3-2.1-10-3.9-14.5-5.7c-6.2-2.5-12.3-4.9-18.5-7.5c-1.6-0.6-3.2-1.7-2.2-3.7c0.5-1,2-2.1,3-2
		c8.2,0.6,16.7,0.3,24.3,4.4c1.2,0.6,2.5,0.9,3.7,1.4C531.6,538.8,532.2,540.5,529.7,549.1z"/>
	<path class="st1" d="M2297.5,686.2c0.6-2.3,0.8-4.4,1.7-6.1c0.5-1,1.8-1.9,2.9-2.2c1.4-0.4,2.7,0.3,3,1.8c0.7,3.5,3.5,4.8,6.3,5.5
		c3.5,0.8,7.2,1.1,10.8,1.4c6.2,0.5,12.4,0.7,18.6,1.3c0.7,0.1,1.6,1.3,1.7,2c0,0.7-0.8,1.9-1.5,2.2c-1.9,0.6-3.9,1.1-5.8,1.1
		c-7.9,0-15.9,0-23.8-0.4C2306.2,692.5,2303.9,691,2297.5,686.2z"/>
	<path class="st1" d="M2294.6,619.6c-2.9,2.2-5.8,4.3-8.6,6.6c-1.8,1.5-3.1,3.1-3.5,5.7c-0.5,3.3-2.3,4.7-5,4.8
		c-1.6,0.1-3.4,0-4.9-0.5c-7.3-2.7-13,0.5-18,5.2c-3.4,3.2-6.2,6.8-7.5,11.6c-1,3.9-3.9,6-8,5.6c-1.3-1.6-0.2-2.6,0.5-3.7
		c1.8-2.8,4.2-5.3,5.5-8.3c3.4-7.7,10-11.9,17.4-13.8c10.5-2.7,19.9-7.2,28.8-13.2c0.8-0.5,1.7-0.9,2.6-1.3
		C2294.1,618.8,2294.4,619.2,2294.6,619.6z"/>
	<path class="st1" d="M1123.9,704.1c-0.4-4.4,1.2-7.3,3.5-9.7c4.8-4.9,9.8-9.6,14.6-14.2c2.5-0.1,3.3,1.4,3.7,3"/>
	<path class="st1" d="M1762.2,1023.2c-6.7-1.1-12.4-4.5-18.3-7.4c-3.9-1.9-6-5.2-6.3-9.5c-0.2-3.6,0-7.2,0-10.9c0-2.6,0-5.1,0-7.8
		c-3.3-1.1-6.1-2-8.8-2.9c1.6-5.6,4.3-8.3,10.6-10.3c1.9,6.8,6,13.2,2.9,20.8c-0.2,0.6-0.2,1.3-0.3,2c-0.7,11.7-0.1,14.5,10.6,19.6
		c3.4,1.6,7.8,2.2,9.3,6.7L1762.2,1023.2z"/>
	<path class="st1" d="M1757.4,680.5c-7.2-11.2-10-23.4-16.3-33.4c1.1-3.3,3.1-4,5.7-3.5c2.3,0.4,3.3,2,3.6,4.1
		c0.6,3.9,1.2,7.9,2,11.8c0.4,1.9,1,3.9,1.9,5.6c2.6,5,5.8,6.8,11.3,6c4.8-0.7,9.6-1.8,16.2-3c-2.3,1.6-3.2,2.5-4.2,2.9
		c-3.1,1.2-6.3,2.1-9.4,3.2c-1.9,0.6-3.9,1-5.6,2C1760.9,677,1759.6,678.6,1757.4,680.5z"/>
	<path class="st1" d="M1324.2,634.6c-4.3,2.3-8.1,3.1-11.9-0.4c-3-2.9-6.7-4-10.5-5.2c-7.5-2.3-13.2-7.3-18.4-13
		c-0.4-0.5-0.9-1.1-1-1.7c-0.2-0.9-0.4-2.3,0-2.7c0.8-0.8,2.6-1.6,3.2-1.3c6.2,3.7,12.9,7,18.1,11.8c5.5,5.1,11.3,8.9,18.5,10.8
		C1322.9,633.2,1323.3,633.8,1324.2,634.6z"/>
	<path class="st1" d="M2733.9,145.3c0.5-1.1,0.8-2.5,1.6-3.4c6.2-7,20.4-17.6,28.4-21.4c2.7,0.8,2.8,3,1.8,4.7c-1.3,2.3-3,4.4-5,6
		c-4.9,3.9-10,7.7-15.3,11.1c-3,1.9-6.6,2.9-9.9,4.4C2734.9,146.3,2734.4,145.8,2733.9,145.3z"/>
	<path class="st1" d="M2720.6,651.9c1,2.3,1.7,3.7,2.1,5.2c3.3,12.5,6.7,24.9,12.7,36.5c0.7,1.4,1.2,3.1,1.3,4.7
		c0.1,0.8-0.6,2-1.2,2.4c-0.7,0.4-2,0.2-2.8-0.1c-0.8-0.4-1.6-1.2-2-2c-2.7-5.7-5.6-11.2-6.9-17.5c-1.4-7.1-3.3-14.2-5-21.3
		C2718.3,657.5,2717.6,655.2,2720.6,651.9z"/>
	<path class="st1" d="M2930.6,1151c-3.6-1.6-6.3-2.7-9-3.9c-0.9-0.4-1.7-1-2.9-1.7c1.2-1.8,1.7-3,2.6-3.8c2.8-2.3,5.7-4.6,8.7-6.6
		c3.9-2.6,8-2.7,12.3,0.6C2939.6,1141.6,2935.6,1146.2,2930.6,1151z"/>
	<path class="st1" d="M2698.5,615.9c6.7-1.9,13.3-3.8,20-5.4c0.9-0.2,2.3,0.9,3.1,1.8c0.4,0.5,0.2,2-0.2,2.7
		c-3.9,7.1-12.6,10.8-20.2,8.3C2698.5,622.4,2697,620.2,2698.5,615.9z"/>
	<path class="st1" d="M3059.1,686.9c3.6-3.4,5.5-7.8,6.9-12.6c0.6-2.1,2.3-4,3.7-5.7c0.4-0.5,2-0.7,2.6-0.3c0.7,0.4,1.2,1.5,1.3,2.4
		c0.1,0.9-0.3,2-0.7,2.8c-0.7,1.5-1.4,3.1-2.6,4.2c-3.8,3.7-4.6,7.7-2.3,12.5c0.4,0.8,0.3,1.9,0.3,2.9c0.1,2.5-1.4,5.2-2.6,4.6
		c-1.3-0.7-2.6-1.9-3.3-3.2C3061.2,692.2,3060.3,689.7,3059.1,686.9z"/>
	<path class="st1" d="M3075.5,652.9c-2.9-9.8,2.4-15.8,8-21.6c0.6-0.7,1.7-1,2.6-1.4c1.5-0.7,3.6,0.8,3.4,2.4
		c-0.7,5.4-3,10.1-6.9,13.9C3080.5,648.3,3078.3,650.3,3075.5,652.9z"/>
	<path class="st1" d="M1785.4,428.6c2.4-2.3,4.7-4.6,7.1-6.8c5.7-5,11.5-9.9,17.3-14.9c1-0.8,3.3-0.5,3.4,0.6
		c0.1,0.9,0.1,2.3-0.4,2.7c-7,6.1-14.1,12.1-21.4,17.9c-1.4,1.1-3.3,1.6-5,2.3C1786.2,429.8,1785.8,429.2,1785.4,428.6z"/>
	<path class="st1" d="M68.1,883.5c0.9,0.6,1.8,0.9,1.8,1.2c0.1,0.5-0.5,1.3-0.9,1.5c-0.8,0.5-1.8,0.9-2.8,1c-4.2,0-7.6,1.2-10,5
		c-1.7,2.6-4.7,3.5-7.8,3.3c-1-0.1-2.1-0.3-2.8-0.8c-0.9-0.8-1.9-2-1.9-3.1c0-1.1,1.1-2.2,1.8-3.2c0.2-0.2,0.5-0.4,0.9-0.5
		C53.6,886.4,61,884.9,68.1,883.5z"/>
	<path class="st1" d="M1877.9,198.6c4.8,3.5,8.7,6.4,13,9.4c-2.2,3.4-5.9,3.8-9.1,4.9C1877.9,208.6,1877.2,206.2,1877.9,198.6z"/>
	<path class="st1" d="M1978.9,913.4c0.7-2.8,0.7-4.2,1.2-4.5c7.2-3.1,14.4-6.4,22.5-6.5c0.2,0,0.5,0.4,0.7,0.6
		c-0.2,0.7-0.2,1.4-0.5,1.9c-0.3,0.5-0.9,1-1.5,1.2C1994.6,908.9,1987.5,910.5,1978.9,913.4z"/>
	<path class="st1" d="M2519.4,676.7c0.7-7.5,4.1-11,9.9-12.2c1.3-0.3,3.3,0.6,4.3,1.5c1.4,1.4,0.6,3.3-0.7,4.4
		C2529.3,673.4,2525.3,675.7,2519.4,676.7z"/>
	<path class="st1" d="M1618.7,659.7c2.5,1,3.9,1.2,4,1.7c2.4,9.4,5.9,18.7,5.2,30.7C1622.4,681.2,1622.5,670.9,1618.7,659.7z"/>
	<path class="st1" d="M3358.6,187.1c2,1.6,1.6,3.3,1.1,4.8c-1.6,4.3-4.7,7-9.2,8c-0.8,0.2-2.1-0.1-2.6-0.7c-0.6-0.6-0.6-1.8-0.6-2.7
		c0-0.6,0.3-1.3,0.7-1.8C3350.8,191.1,3354.3,188.4,3358.6,187.1z"/>
	<path class="st1" d="M2224.4,611.8c-0.2,1.3-0.2,2-0.3,2.6c-0.5,2.7-2.3,4.7-4.3,4.7c-2,0-4.3-2-4.9-4.2c-0.8-3,0.7-6.8,3.7-8.3
		c0.9-0.4,2.8-0.1,3.4,0.6C2223.2,608.6,2223.8,610.6,2224.4,611.8z"/>
	<path class="st1" d="M2569.9,1014.1c-1.7-0.7-3.4-1.5-5.2-2.1c-1.9-0.6-3.9-0.7-5.8-1.3c-3.7-1.2-6-3.6-7-7.5
		c1-0.3,1.8-0.7,2.1-0.5c4.6,2.6,9.2,5.3,13.7,8.1c1,0.6,1.8,1.7,2.6,2.5C2570.2,1013.5,2570,1013.8,2569.9,1014.1z"/>
	<path class="st1" d="M1978.9,827.8c3.2,5.7,3.6,10.1,2.6,14.7c-0.2,0.7-1.4,1.6-2.1,1.6c-0.8,0-2-0.8-2.3-1.6
		C1975.5,838.1,1975.8,833.7,1978.9,827.8z"/>
	<path class="st1" d="M2506.2,632.7c-4.6,3.7-8.5,4.5-12.2,5.6c-0.6,0.2-2-0.6-2.3-1.3c-0.3-0.7,0-2.2,0.6-2.5
		C2496,632,2499.9,630.6,2506.2,632.7z"/>
	<path class="st1" d="M1175.1,615.3c-1.5-0.3-2.6-0.2-3.4-0.7c-1-0.7-2.3-1.8-2.4-2.8c-0.1-1,0.9-2.4,1.7-3.2
		c0.6-0.7,1.8-1.2,2.6-1.1c1.5,0.2,3.4,0.5,4.3,1.5c0.9,1,1.3,3.3,0.8,4.4C1178.3,614.4,1176.2,614.8,1175.1,615.3z"/>
	<path class="st1" d="M2377.6,694.6c-5.3,3.3-9.1,3.1-12.7,1.1c-0.7-0.4-1.4-1.5-1.4-2.3c0.1-1.7,1.6-2.1,2.9-1.8
		C2369.6,692.3,2372.7,693.3,2377.6,694.6z"/>
	<path class="st1" d="M2433.1,297.7c-4.9-5.1-4.9-5.2-0.4-12C2434.6,290.4,2434.6,290.4,2433.1,297.7z"/>
	<path class="st1" d="M173.4,658.8c-0.4-0.4-1.5-1-2-2c-0.7-1.4,0.6-2.8,2.7-3.1c0.3,0,0.6-0.1,1-0.1c2.1-0.1,3.7,1,3.6,2.4
		c-0.2,1.9-1.7,2.6-3.4,2.7C174.9,658.8,174.6,658.8,173.4,658.8z"/>
	<path class="st1" d="M1762,1023.5c0.6,0,1.3-0.2,1.9-0.1c6.1,1,6.6,2.7,2,8.4c-1.3-3-2.5-5.8-3.7-8.6L1762,1023.5z"/>
	<path class="st1" d="M1325.1,303.8c-0.7,0.3-1.7,1.1-2.3,0.9c-1.1-0.4-2.1-1.4-2.9-2.4c-0.3-0.3-0.2-1.6,0.1-1.7
		c0.7-0.5,1.8-1,2.5-0.7C1324,300.4,1325.4,301.4,1325.1,303.8z"/>
	<path class="st1" d="M3453.1,1195.3c-1.3-1.4-2.4-2.5-3.2-3.7c-0.1-0.1,1.2-1.6,1.8-1.7c1.8-0.1,3.2,0.9,3.3,2.8
		C3455.1,1193.3,3454.1,1194,3453.1,1195.3z"/>
	<path class="st1" d="M1440.4,703.9c-1.3,0.6-2.6,1.4-4,1.9c-0.3,0.1-1.5-1.4-1.4-1.9c0.5-2,2.9-3.1,4.6-2.2
		C1440,701.9,1440,702.8,1440.4,703.9z"/>
	<path class="st1" d="M1710.6,703.3c-1.6-2-2.9-3-3.2-4.2c-0.2-0.6,1.4-1.7,2.2-2.6c0.9,0.8,2.1,1.6,2.5,2.6
		C1712.3,699.9,1711.4,701.1,1710.6,703.3z"/>
	<path class="st1" d="M1911.9,286.8c0.1-2.7,0.4-5,3.6-5.6C1916.5,284.6,1914.1,285.7,1911.9,286.8z"/>
	<path class="st1" d="M1762.8,926.5c-0.4-1.1-0.9-2.1-0.8-2.1c1.3-0.7,2.7-1.4,4.1-2c0.2,0.5,0.7,1.5,0.6,1.6
		C1765.6,924.8,1764.2,925.6,1762.8,926.5z"/>
	<path class="st1" d="M1907.5,201.7c-0.3,1.9-2,3.3-4.1,3.1c-0.4,0-1.1-0.8-1-1.2c0.2-1.8,2.3-3.4,4.1-3.2
		C1906.8,200.4,1907.1,201.2,1907.5,201.7z"/>
	<path class="st1" d="M1567.2,83.9c0.7,1.2,1.3,2.1,1.8,3.1c0,0.1-1.2,1-1.4,0.9c-0.7-0.5-1.4-1.2-1.9-2
		C1565.7,85.7,1566.4,85,1567.2,83.9z"/>
	<path class="st1" d="M2175.4,695.9c-0.6,0.7-1.2,1.5-1.9,2c-0.1,0.1-0.8-0.5-1.3-0.8c0.5-0.8,1-1.6,1.6-2.3
		C2174.3,695.1,2174.7,695.4,2175.4,695.9z"/>
	<path class="st1" d="M1778,439.1c-0.7,0.7-1.6,1.4-2.4,2.2c-0.3-0.5-0.9-1.1-0.9-1.6c0-1.4,0.5-2.6,2.1-2.6
		C1777.2,437,1777.5,438,1778,439.1z"/>
	<path class="st1" d="M2001.7,809.8c-0.7-0.6-1.2-1-1.6-1.4c0.6-0.6,1.2-1.3,1.8-1.9c0.1-0.1,1.3,0.9,1.2,1.1
		C2002.8,808.4,2002.2,809.1,2001.7,809.8z"/>
	<path class="st1" d="M2435.1,252.1c-0.4,0.7-0.6,1.2-0.9,1.7c-0.7-0.6-1.4-1.1-1.9-1.7c-0.1-0.2,0.4-0.9,0.7-1.4
		C2433.7,251.1,2434.4,251.6,2435.1,252.1z"/>
	<path class="st1" d="M1941,607.1c1.2,2.3,2,4.5,3.3,6.3c2.8,4.1,6.9,4.5,11,1.4c1.2-0.9,2.5-1.7,4.7-3.2c-0.1,2.5,0.1,3.9-0.3,5
		c-1.4,3.7-0.3,6.5,2.5,8.9c3.2,2.8,6.6,4.5,10.9,2.7c1.7-0.7,3.4-1.9,6.4-1.5c-0.9,1.6-1.4,2.7-2,3.7c-3.3,5.3-2.9,7.2,2.3,10.4
		c1.1,0.7,2.4,1.2,3.5,1.9c1.2,0.6,2.3,1.2,4,2.1c-1.4,2-2.9,3.7-3.8,5.7c-0.7,1.8-0.5,3.9-1.1,5.8c-0.5,1.5-1.4,3-2.5,4.1
		c-2.5,2.6-5.3,4.9-7.9,7.4c1.7,6.2,7.8,7.7,11.1,12.4c-1.3,0.8-2.2,1.7-3.3,2c-9.7,2.8-9.7,2.7-13.3,11.1c-9.6-2.3-11.9-1-15.1,8.6
		c-0.2,0.6-0.6,1.2-1.2,2.4c-2.6-1.1-5.2-2.7-7.9-3.1c-2.8-0.4-5.8,0.4-8.9,0.8c-2.2-2.3-0.5-5.5-0.9-8.4c-0.5-3.7-2-5.8-5.5-5.8
		c-4.7,0-9.1-0.3-13.3-3c-2-1.3-4.6-0.2-6.5,1.3c-2.5,2.1-4.8,4.4-7.2,6.6c-2.6-0.9-3.3-2.5-1.6-4.5c1.8-2,3.9-3.6,5.8-5.5
		c3.3-3.5,3.1-7.1-0.4-10.4c-3.5-3.3-5.6-4-13.6-4.6c1.7-6.6,1.7-6.6-1.3-12.9c0.6-0.6,1.2-1.5,2-1.8c7.3-3.2,7.3-3.2,9.4-11.7
		c1-0.1,2.2-0.2,3.5-0.3c3.4-0.3,4.6-1,4.9-3.6c0.2-2.6,0.2-5.3,0.1-8c-0.1-3,1.1-5.4,3.8-6.4c4-1.5,6.9-3.9,8.3-8.1
		c1.7,0.2,3,0.2,4.2,0.4c2.9,0.6,5.2,0,7.1-2.3C1934.2,610.4,1936,607.3,1941,607.1z"/>
	<path class="st1" d="M1835.1,661c7.1,1.5,13.5,2.2,20.6,1c0.1,1.9,0.5,3.3,0.1,4.3c-1.8,4.6-4.5,8.7-6.9,12.5
		c-3.6,0.4-4.6-2-6.1-3.6c-2-2.2-4.3-4.3-5.8-6.8c-2.2-3.9-5.2-6.7-9.2-8.7c-1.2-0.6-2.3-1.4-3.6-2.2c3.2-5.7,7.7-7.5,12.4-8.9
		c1.4-0.4,3.3,1.9,2.6,3.4c-0.7,1.5-1.7,2.8-2.4,4.2C1836.2,657.5,1835.8,659,1835.1,661z"/>
	<path class="st1" d="M2013.5,639.3c-0.8-0.1-1.8-0.3-2.8-0.5c-1.4-0.3-2.7-2.5-2.2-3.9c0.5-1.6,1.1-3.2,2-4.5
		c3.5-5.2,7.2-10.4,10.9-15.5c0.6-0.8,1.2-1.7,2.1-2.1c0.8-0.4,2-0.6,2.7-0.2c0.7,0.4,1.6,1.8,1.4,2.3c-2,4.8-1.8,9.5-1.2,14.6
		c0.5,3.9-3.9,8.4-7.8,9.3C2017,639,2015.3,639.1,2013.5,639.3z"/>
	<path class="st1" d="M1820.3,646.6c-1.5-4.4-2.7-7.8-3.7-11.3c-0.9-3.2,0.4-6.1,3.2-7.6c3.1-1.7,7.1-1.4,9,1.4
		c2.2,3.2,3.8,6.8,5.6,10.2C1830.6,644.3,1825.5,644.5,1820.3,646.6z"/>
	<path class="st1" d="M1992.2,687.3c2.7-4.6,6.6-7.6,10.9-10.1c1.9-1.1,4.3,0.2,4.2,2.5c-0.1,2.6-0.3,5.3-0.8,7.9
		c-0.8,3.5-2,7-3.3,11C1998.4,695.8,1994.7,692.4,1992.2,687.3z"/>
	<path class="st1" d="M1842.4,622.4c6.4,1.7,11.1,5.6,15.8,10.7c-1,1.7-1.9,3.4-3.1,4.8c-3.2,3.7-5.9,3.9-9.1,0.6
		c-3.5-3.7-6.5-7.7-5.3-13.2C1841,624.4,1841.7,623.6,1842.4,622.4z"/>
	<path class="st1" d="M1995.8,618.4c-3.8-1.2-5.9-3.5-7-7.1c1.5-2.8,3-5.7,4.8-9c-2-1.7-3.8-3.3-6.2-5.4c1.6-0.4,2.6-1,3.2-0.7
		c2.7,1.3,5.3,2.8,7.7,4.4c5.8,3.9,6.3,10.2,1.3,15C1998.4,616.7,1997,617.5,1995.8,618.4z"/>
	<path class="st1" d="M2037.3,628.7c3.5-2.4,7-4.9,10.7-7.1c1.7-1,3.7-1.6,5.6-2c2-0.4,4.1-0.2,5.3,1.7c1.1,1.9,0.8,3.9-0.2,5.7
		c-2.2,4.2-5.8,5.7-10.7,4.8c-1.9-0.4-3.9-0.6-5.8-0.9c-1.5-0.2-3.1-0.2-4.6-0.3C2037.5,629.9,2037.4,629.3,2037.3,628.7z"/>
	<path class="st1" d="M2001.8,714.5c-1.6,4.2-3,8.4-4.8,12.5c-0.9,2-2.6,3.8-5.7,2.8c-1.7-3.7-0.4-7.6-0.2-11.4
		c0.1-2.4,1-4.5,3.3-5.6C1995.9,712,1997.1,712.3,2001.8,714.5z"/>
	<path class="st1" d="M1954.5,729.1c-1.3,1.7-1.7,2.8-2.4,3c-4.8,1.6-9.7,1.6-14.4-0.4c-1.1-0.5-2.2-1.6-2.6-2.7
		c-0.7-1.8,0.8-3,2.1-4c1.7-1.3,3.8-2.1,5.4-0.5C1945.5,727.7,1949.7,727.5,1954.5,729.1z"/>
	<path class="st1" d="M2013.9,659.7c-0.4,0-0.7,0-1,0c-2.2-0.4-4.1-2.9-4.4-5.8c-0.2-2.1,0.4-3.9,2.3-5c2.1-1.3,4.4-1.6,6.5-0.4
		c1,0.6,2,1.9,2.1,3c0.1,3.5-1.7,6.1-4.6,8.1C2014.5,659.7,2014.2,659.7,2013.9,659.7z"/>
	<path class="st1" d="M1870.5,623.4c-2.2-0.1-4-1.7-4-3.6c0-2.7,2.3-4.7,5.4-4.4c1.9,0.1,3.2,1.2,3.5,3
		C1875.8,620.9,1873.2,623.5,1870.5,623.4z"/>
	<path class="st1" d="M1895.5,601.9c-0.5-3.6-1.8-6.8-0.2-10.7C1898.9,597.2,1898.9,599.1,1895.5,601.9z"/>
	<path class="st1" d="M1983.6,718.8c-1.5,1.4-2.4,3.1-3.6,3.3c-1.7,0.2-3-1.2-3.1-3.1c-0.1-1.5,1.6-3.2,3.3-2.8
		C1981.2,716.5,1982.1,717.6,1983.6,718.8z"/>
	<path class="st1" d="M2054.3,325.6c1.4-0.3,2.7-0.9,4-0.9c52.6-0.9,105.2-1,157.7,1c0.9,0,1.8,0.7,3.2,1.2c0.3,1.4,0.8,3,0.8,4.6
		c0,12.9,0.3,25.8-0.5,38.7c-4.1,1-5.7-2.6-8.6-3.2c-2.6-0.5-4.9,0.5-5.1,3.1c-0.2,2.3,0,4.6,0,6.5c-3.9,2.4-7.7,1.7-11.3,1.7
		c-24.3-0.2-48.6-0.6-72.9-0.7c-19-0.1-37.9,0.1-56.9,0.2c-2,0-3.9,0-5.7,0c-1.7-2.6-3.3-4.7-4.5-7c-0.9-1.7-1.8-3.7-1.8-5.5
		c0-12.3,0.2-24.6,0.5-36.9C2053.1,327.7,2053.6,327.1,2054.3,325.6z M2065.1,338.2c0.3,6.6-1.5,13.7,1.9,20.9
		c5.1-8.2,8.1-16.7,8-22C2070.3,336.1,2070.3,336.1,2065.1,338.2z"/>
	<path class="st1" d="M2710.7,325c1.7,10.5,1.4,31.6-0.7,39.7c-1.5-0.8-2.9-1.5-4.2-2.3c-1.7-0.9-3.7-2.4-5.4-0.6
		c-0.9,1-1.1,3.2-0.9,4.7c0.4,2.5,1.5,5,2.5,7.8c-48.1,0.6-96.2,1.1-145,1.7c2.3-7.3,4.8-13,12.2-16.2c14.3-6.3,28.2-13.5,42.2-20.4
		c1.4-0.7,2.8-1.6,5.9-3.3c-19.8-0.6-37.5,3.1-55.7-0.3c-0.9,2.9-1.9,5-2,7.2c-0.2,3.3,0,6.7,0.4,10c0.9,7.9-2,14.3-7.7,19.6
		c-0.7,0.6-1.7,0.9-2.5,1.3c-2-8.3-2.9-39.7-1.3-48.1c1.6-0.3,3.5-1,5.3-1.1c7.7-0.2,15.3-0.2,23-0.2c40.3-0.2,80.5-0.5,120.8-0.6
		C2701.7,323.8,2706.1,323.1,2710.7,325z"/>
	<path class="st1" d="M2658.8,821.6c-0.3-3.3-0.7-5.2-0.7-7.1c0.3-14.6,0.6-29.3,1.1-43.9c0-0.9,0.7-1.8,1.2-2.9
		c1.2-0.3,2.5-0.8,3.8-0.8c49.9,0,99.9,0.1,149.8,0.2c0.9,0,1.8,0.7,3.2,1.2c0.2,2.8,0.7,5.7,0.7,8.6c-0.1,11.3-0.3,22.6-0.6,33.9
		c0,0.5-0.8,0.9-1.3,1.5c-2.9,1-3.9-1.9-5.8-3c-3-1.8-6.3-0.2-6.5,3.3c-0.1,2.6,0.2,5.3,0.4,8.4c-1.7,0.4-3.2,1-4.7,1
		c-40.6,0.1-81.2,0.2-121.8,0.3C2671.7,822.4,2665.7,821.9,2658.8,821.6z M2681.9,779.5c-0.1,0.4-0.2,0.9-0.3,1.3
		c0.9,0.4,1.7,1,2.6,1.2c11.7,2.4,23.4,5,35.2,7.1c10.5,1.9,21,3.4,31.5,5.1c16.4,2.7,32.8,5.5,49.2,8.1c1.4,0.2,3-0.4,4.9-0.6
		c-1.3-7.4,0.4-14.5-2.2-21.3c-1.6-0.4-2.9-0.9-4.1-0.9C2759.7,779.5,2720.8,779.5,2681.9,779.5z"/>
	<path class="st1" d="M2065.1,338.2c5.1-2.1,5.1-2.1,9.9-1c0.1,5.3-2.9,13.8-8,22"/>
</g>
<path class="st0" d="M36-90"/>
</svg>
