<svg xmlns="http://www.w3.org/2000/svg" width="730" height="495" viewBox="0 0 730 495">
  <defs>
    <style>
      .cls-1 {
        fill: #fff;
        fill-rule: evenodd;
      }
    </style>
  </defs>
  <path class="cls-1" d="M31.428,295.789l0.761-2.26c-1.178-.462-2.272-0.882-3.359-1.317-2.523-1.009-2.6-1.182-1.415-3.906-1.416-.084-2.723-0.188-4.033-0.233a31.366,31.366,0,0,1-5.244-.184c-1.5-.314-3.4-0.876-4.2-1.991-1.447-2.014-2.224-4.514-3.241-6.829a10.921,10.921,0,0,1-.465-1.644l-5.3-1.605c0.068-1.45.038-2.805,0.212-4.133,0.371-2.826-.894-4.916-2.829-6.745a3.415,3.415,0,0,0-.6-0.388c-0.943-.57-1.719-1.335-1.5-2.495,0.22-1.182,1.406-1.2,2.305-1.364,11.962-2.139,23.585-5.689,35.4-8.431,11.447-2.656,22.447-6.735,33.651-10.158a63.459,63.459,0,0,0,10.176-4.182c7.115-3.624,14.13-7.448,21.129-11.3a32.107,32.107,0,0,0,4.844-3.49c2.71-2.241,5.418-4.5,7.97-6.911,7.24-6.85,10.178-15.282,8.839-25.152-0.617-4.548-3.282-7.936-6.743-10.677-2.246-1.779-4.728-3.264-7.136-4.833-2.877-1.874-5.891-3.559-8.645-5.6a24.654,24.654,0,0,1-4.271-4.456c-1.243-1.539-2.042-3.439-3.8-4.549a0.9,0.9,0,0,1-.323-0.35c-1.9-4.01-5.192-7.279-6.175-11.8-0.42-1.934-1.419-3.747-1.806-5.684-0.537-2.691-1.44-5.295-1.175-8.181a61.086,61.086,0,0,0-.227-8.824c-0.06-1.114-.371-2.1.751-3.026a2.824,2.824,0,0,0,.332-2.4,6.323,6.323,0,0,1,.545-4.626c0.6-1.3.971-2.706,1.576-4,0.558-1.2,1.361-2.281,1.937-3.471,1.564-3.236,2.968-6.553,4.629-9.736a24.362,24.362,0,0,1,3.473-5.127c4.031-4.427,8.178-8.753,12.368-13.032a57.711,57.711,0,0,1,12.249-9.176c8.4-4.924,16.992-9.531,25.509-14.26a10.474,10.474,0,0,1,1.529-.682c9.158-3.31,18.265-6.769,27.488-9.883a678.428,678.428,0,0,1,69.179-19.3c5.61-1.253,11.245-2.395,16.874-3.565,0.743-.154,1.514-0.175,2.515-0.283-0.157.929-.243,1.541-0.366,2.145-0.44,2.162.4,3.415,2.6,3.6,1.51,0.125,3.037.032,4.556,0.058,0.384,0.007.767,0.093,1.332,0.166-0.136.7-.254,1.312-0.37,1.92-0.328,1.714.136,2.356,1.889,2.529a9.425,9.425,0,0,0,1.677-.014q8.6-.7,17.2-1.416a11.438,11.438,0,0,1,5.107.623,5.922,5.922,0,0,1-1.591.922c-5.187.633-10.112,2.268-15.05,3.857-11.245,3.618-22.586,6.962-33.719,10.9-23.67,8.366-46.808,18-68.6,30.589a104.116,104.116,0,0,0-26.12,20.849,31.945,31.945,0,0,0-8.523,22.054,36.355,36.355,0,0,0,10.624,25.7,13.974,13.974,0,0,0,2.927,2.463c8.09,4.681,14.834,11.047,21.748,17.2a4.259,4.259,0,0,0,1.31,1.023c2.384,0.746,3.427,2.68,4.528,4.672,0.8,1.449,1.893,2.737,2.842,4.106a18.158,18.158,0,0,1,1.574,2.385c3.867,8.075,4.9,16.508,3.97,25.43-1.047,10.016-4.423,19.252-8.252,28.387-2.7,6.435-7.173,11.677-11.885,16.718-0.491.525-1.021,1.015-1.5,1.552-9.174,10.3-20.5,17.672-32.509,24.194-18.86,10.238-38.636,18.36-58.614,26.075A163.743,163.743,0,0,1,60.9,308.594a51.175,51.175,0,0,1-5.712.54c-1.424.173-2.83,0.5-4.243,0.765-1.863.344-2.872,0.012-3.419-1.311-0.636-1.539.747-2.065,1.6-2.817,1.255-1.113,2.56-2.169,3.8-3.3a3.6,3.6,0,0,0,.962-1.329,1.247,1.247,0,0,0-.893-1.866,15.466,15.466,0,0,0-3.318-.343,80.815,80.815,0,0,1-13.855-.964A6.987,6.987,0,0,1,31.428,295.789Zm208.141-151a8.513,8.513,0,0,0,1.943-5.683,6.248,6.248,0,0,1,1.662-4.353,2.241,2.241,0,0,0,.577-1.025c0.566-2.648,1.194-5.289,1.576-7.965a9.49,9.49,0,0,0-.368-3.542c-1.295-5.13-5.9-7.438-10.777-5.326-6.3,2.727-12.537,5.595-18.81,8.384-7.729,3.437-15.488,6.8-23.19,10.3-3.706,1.682-7.3,3.618-10.968,5.381-0.993.476-2.112,0.684-3.13,1.115-0.847.358-1.631,0.863-2.633,1.406l-1.1-1.479a3.112,3.112,0,0,1,.469-0.627q7.026-5.216,14.068-10.411c1.864-1.373,3.757-2.706,5.625-4.073a1.694,1.694,0,0,0,.614-0.693,2.232,2.232,0,0,1,1.861-1.612,4.177,4.177,0,0,0,1.377-1.293,2.865,2.865,0,0,0-3.408-.4,17.385,17.385,0,0,1-4.614,1.093,3.373,3.373,0,0,1-1.351-.607,10.465,10.465,0,0,1,4.47-4.347c7.746-3.706,12.923-9.871,16.415-17.453,2.278-4.946,5.46-8.573,10.8-10.073,8.906-4.747,18.342-8.282,27.75-11.823,24.964-9.4,50.2-17.983,75.98-24.916,5.627-1.514,11.17-3.348,16.815-4.787,10.442-2.662,20.935-5.124,31.4-7.706,3.643-.9,7.243-1.97,10.89-2.851,5.427-1.312,10.925-2.352,16.307-3.822,7.23-1.974,14.647-3.021,21.922-4.777,9.777-2.36,19.7-4.137,29.461-6.542,7.135-1.757,14.426-2.57,21.575-4.195,7.085-1.611,14.222-2.991,21.336-4.472,7.193-1.5,14.427-2.825,21.562-4.56A98.785,98.785,0,0,1,526.679,9.28c6.41-.815,12.734-2.289,19.135-3.2,10.2-1.456,20.434-2.684,30.655-3.99,0.949-.121,1.916-0.1,2.871-0.179a2.366,2.366,0,0,0,1.363-.257c0.764-1.663,1.928-.7,3.031-0.662,2.055,0.078,4.12-.041,6.178-0.13,0.952-.041,1.9-0.269,2.849-0.3,8.229-.255,16.464-0.384,24.688-0.744C629.035-.689,640.613-1,652.209-0.455A204.985,204.985,0,0,1,683.388,3c6.094,1.236,12.123,2.857,18.106,4.568a47.416,47.416,0,0,1,17.711,9.79c5.642,4.819,9.771,10.784,10.771,18.412A32.254,32.254,0,0,1,725.2,57.561a54.9,54.9,0,0,1-16.516,17.094,105.809,105.809,0,0,1-32.084,14.1c-3.554.915-7.044,2.074-10.574,3.085-1.857.532-3.727,0.819-5.742-.422,0.614-.338,1.049-0.63,1.523-0.83,1.472-.62,2.943-1.246,4.443-1.79a3.936,3.936,0,0,0,2.617-2.594c0.664-2.116,2.205-3.028,4.225-3.8,3.1-1.193,6.013-2.875,9.006-4.348a4.925,4.925,0,0,1,.855-0.4c1.291-.346,1.694-1.1,1.12-2.326s-0.188-1.977,1.088-2.357c0.456-.136.882-0.371,1.327-0.547,1.987-.787,3.416-1.908,3.365-4.366a13.084,13.084,0,0,1,.844-3.316c-2-1.295-4.65.087-6.635-1.711,1.456-.65,2.8-1.325,4.2-1.866A50.088,50.088,0,0,0,706.1,48.885c4.125-4.251,6.326-9.336,5.715-15.432a8.783,8.783,0,0,0-1.572-4.443,25.29,25.29,0,0,0-15.8-10.028c-4.528-.97-9.082-1.841-13.654-2.575a176.784,176.784,0,0,0-24.813-2.17c-4.872-.09-9.738-0.44-14.609-0.582-2.313-.067-4.633.077-6.95,0.129-6.554.147-13.113,0.171-19.659,0.475-9.174.426-16.178,4.538-20.461,12.819a66.327,66.327,0,0,0-5.763,16.716,344.746,344.746,0,0,0-6.394,39.458c-0.83,8.742-1.418,17.511-1.927,26.279-0.439,7.575-.616,15.166-0.9,22.75-0.088,2.33-.083,2.316-2.278,2.9-1.539.405-3,.91-4.623,0.016-0.466-.258-1.5.252-2.148,0.628-2.835,1.641-3.927,1.374-5.6-1.452-0.432-.727-0.974-1.388-1.562-2.215-1.811,1.8-3.5,3.355-5.04,5.05a6.01,6.01,0,0,1-4.087,2.145c-2.3.224-4.573,0.728-6.858,1.107-1.985.328-2.377,0.137-2.512-1.769a81.386,81.386,0,0,1-.046-15.317c0.325-2.773.52-5.569,0.605-8.36a191.542,191.542,0,0,1,2.108-23.848c0.641-4.09.834-8.249,1.337-12.364a90.118,90.118,0,0,1,3.321-16.891,6.886,6.886,0,0,0,.458-2.336,9.05,9.05,0,0,1,1.029-4.848,1.937,1.937,0,0,0,.34-1.356c-0.889-1.857.052-3.369,0.754-4.946a2.111,2.111,0,0,0,.2-0.688c0.441-6.193,1.875-12.289,1.684-18.548-0.114-3.737-2.631-6.667-6.364-6.713a41.042,41.042,0,0,0-7.136.654c-9.377,1.546-18.775,3-28.095,4.848-7.825,1.547-15.561,3.552-23.323,5.409-7.841,1.876-15.64,3.936-23.508,5.693-5.852,1.307-11.587,2.974-17.343,4.63-11.657,3.355-23.434,6.29-35.109,9.585-7.985,2.254-15.873,4.853-23.82,7.244-5.2,1.563-10.463,2.913-15.631,4.566-7.45,2.383-14.808,5.057-22.263,7.426-12.7,4.037-25.446,7.966-37.833,12.917a162.407,162.407,0,0,0-15.578,6.793c-10.835,5.713-17.866,14.379-19.968,26.789-2.574,15.2-4.786,30.437-6.378,45.769-1.236,11.912-2.593,23.811-3.795,35.727q-0.95,9.411-1.516,18.859c-0.16,2.714-.978,4.645-3.8,5.311a1.34,1.34,0,0,0-.213.109c-3.357,1.517-3.358,1.517-5.459-1.867-0.794,1.208-1.507,2.308-2.234,3.4-1.1,1.643-1.463,1.815-3.3,1.042a1.629,1.629,0,0,0-2.388.777c-0.344.63-.615,1.3-0.982,1.918a6.546,6.546,0,0,1-5.285,3.245,21.666,21.666,0,0,0-4.412.943c-2.8.918-5.576,1.94-8.326,3.01-2.148.835-4.265,1.757-6.353,2.731-1.943.907-2.753,0.523-2.6-1.608,0.257-3.5.594-7,1.1-10.476,0.494-3.358,1.229-6.674.715-10.1a4.178,4.178,0,0,1,.725-3.186,3.89,3.89,0,0,0,.562-1.792c0.241-2.135.011-4.423,0.72-6.377,0.678-1.869.226-3.816,0.881-5.48,0.693-1.764.745-3.618,1.306-5.3,1.206-3.614,1.406-7.357,2.157-11.019,0.9-4.373,2.042-8.695,3.011-13.055,1.439-6.467,2.822-12.946,4.213-19.424a10.825,10.825,0,0,0,.263-2.126,2.573,2.573,0,0,1,1.048-2.464C241.406,146.668,240.125,145.8,239.568,144.787ZM535.484,407.249a33.63,33.63,0,0,0-3.967,3.074,5.875,5.875,0,0,1-5.161,1.9,6.608,6.608,0,0,0-3.042.373,13.591,13.591,0,0,1-6.33.935,5.368,5.368,0,0,0-3.587.988c-1.961,1.368-4.279,1.629-6.6,1.907-3.48.418-6.943,0.979-10.415,1.466-1.5.21-3,.411-4.507,0.57a2.747,2.747,0,0,1-2.842-1.5,45.2,45.2,0,0,1,3.266-5.06c7.642-9.081,13.227-19.368,17.965-30.167a4.925,4.925,0,0,0,.366-0.884c1.626-7.43,4.875-14.34,6.929-21.632,0.126-.45.261-0.9,0.4-1.374a3.09,3.09,0,0,0-.664-0.391c-2.661-.679-2.7-0.757-3.151-3.455a25.5,25.5,0,0,0-.827-2.983,1.526,1.526,0,0,0-.374-0.851c-2.027-.43-1.823-2.3-2.432-3.645-0.722-1.59-1.282-2.039-4.072-3.221a11.042,11.042,0,0,0-3.379-6.333c-1.575-1.487-1.157-2.433,1.007-3.162,4.917-1.654,9.837-3.295,14.748-4.964,0.978-.333,1.89-0.887,2.884-1.131a4.2,4.2,0,0,0,3.318-3.923c1-7.436,2.027-14.871,2.917-22.321,0.749-6.259,1.173-12.56,2.039-18.8,0.434-3.125,1.509-6.16.731-9.369,2.09-9.636,2.084-19.512,3.339-29.244,0.255-1.979.434-3.972,0.532-5.965a25.468,25.468,0,0,0-.3-3.345c-5.264,1.244-10.188,2.409-15.113,3.572-1.974.466-2.183,0.329-3.352-1.308-1.43-2-3.2-3.782-3.792-6.289-0.288-1.227-.682-2.434-0.881-3.674-0.256-1.595-.366-1.752-2.02-2.087a8.151,8.151,0,0,1-1.473-.609,5.735,5.735,0,0,0-1.738-.706c-3.661-.171-6.624-2.673-10.6-2.686a3.8,3.8,0,0,1,2.76-1.837c9.8-2.909,19.547-5.981,29.406-8.659,10.784-2.929,21.641-5.609,32.52-8.168a98.551,98.551,0,0,1,20.133-2.916,49.241,49.241,0,0,1,23.834,5.27c7.13,3.6,13.721,7.852,19.228,13.68,0.877,0.929,1.777,1.845,2.578,2.838a73.785,73.785,0,0,1,11.063,19.8c2.723,6.994,2.585,14.417,1.775,21.778-0.4,3.642-1,7.274-1.734,10.863a35.936,35.936,0,0,1-4.032,10.472c-1.93,3.4-3.939,6.765-5.886,10.161a34.439,34.439,0,0,1-7.058,8.72c-0.239.212-.463,0.442-0.684,0.672-1.935,2.015-1.918,2.756.152,4.744,4.785,4.6,9.784,8.986,14.322,13.812,9.47,10.07,18.878,20.211,27.977,30.615,9.9,11.319,18.538,23.642,27.315,35.838a13.421,13.421,0,0,1,1.358,2.252c0.525,1.16.128,1.788-1.159,1.991a11.89,11.89,0,0,1-1.2.038c-3.347.187-6.707,0.255-10.037,0.6a7.54,7.54,0,0,1-7.977-4.071c-0.465-.808-0.987-1.582-1.413-2.258a2.17,2.17,0,0,0-.738.045c-2.3,1.661-2.294,1.657-4.685.1-0.794-.515-1.616-0.987-2.629-1.6-0.406,1.884-.027,3.817-1.534,5.526l-4.261-3.364a20.883,20.883,0,0,0-.925,2.558c-0.287,1.325-.413,2.683-0.655,4.018-0.327,1.808-.666,2.108-2.42,2.417-1.257.221-2.507,0.489-3.764,0.716-2.689.486-5.143-.568-6.138-3.049-1.863-4.644-4.765-8.672-7.328-12.9-2.32-3.823-4.9-7.49-7.309-11.259A93.106,93.106,0,0,0,616.382,358a17.348,17.348,0,0,1-1.685-2.79,1.834,1.834,0,0,0-.668-0.877c-1.316-.242-1.726-1.338-2.306-2.266a163.139,163.139,0,0,0-17.837-22.829c-1.785-1.972-2.43-2.086-4.726-.7-5.06,3.059-10.081,6.184-15.167,9.2a54.706,54.706,0,0,1-7.2,3.782,4.737,4.737,0,0,0-3.234,4.51c-0.276,3.339-.509,6.7-1.068,10-1.989,11.735-4.322,23.4-8.482,34.6-2.519,6.784-6.288,12.914-9.977,19.088a6.15,6.15,0,0,1-4.324,2.734c-2.549.549-3.8-.375-4.119-2.954C535.523,408.95,535.535,408.391,535.484,407.249Zm32.843-104.6a5.589,5.589,0,0,0,.986-0.225c0.57-.285,1.122-0.607,1.68-0.917,6.117-3.395,11.341-8,16.7-12.405a3.572,3.572,0,0,0,1.328-1.895c0.29-1.906,1.462-3.121,2.75-4.349a14.452,14.452,0,0,0,2.02-2.358c1.6-2.385,3.1-4.839,4.694-7.226a24.339,24.339,0,0,1,2.028-2.285c0.261-.942-0.558-2.807,1.583-3.323,0.671-2.441,1.793-4.779,1.5-7.429-0.2-1.817-.248-3.65-0.42-5.471a38.056,38.056,0,0,0-.58-4.491c-0.455-2.1-1.177-4.142-1.616-6.244a13.389,13.389,0,0,0-5.96-8.619,35.9,35.9,0,0,0-20.583-6.049c-4.357-.006-5.029.648-5.092,4.95-0.183,12.534-.277,25.07-0.528,37.6-0.188,9.417-.575,18.83-0.839,28.246A15.167,15.167,0,0,0,568.327,302.649Zm-454.1,188.6-0.946.379c-1.68.673-2.217,0.542-3.1-1.025-0.786-1.389-1.414-2.866-2.167-4.274-0.439-.818-0.988-1.577-1.722-2.731-0.389,1.138-.612,1.863-0.882,2.569-0.713,1.859-1.632,2.179-3.286,1.036a34.921,34.921,0,0,1-2.975-2.418,11.882,11.882,0,0,0-5.3-2.592,48.664,48.664,0,0,1-5.616-1.994,3.149,3.149,0,0,1-2.046-2.469,40.241,40.241,0,0,1-.947-5.419A316.965,316.965,0,0,1,84.9,437.8c0.042-1.069-.076-2.145-0.131-3.49-1.877.847-3.26,0.774-4.446-.9,0.61-.965,1.334-1.988,1.919-3.084a8.857,8.857,0,0,0,.532-1.909A8.645,8.645,0,0,0,81,428.116c-1.818.056-3.633,0.2-5.578,0.32,0.172-1.737,2.28-2.734,1.241-4.544a1.169,1.169,0,0,0-.394-0.246c-3.5-.408-4.021-1.443-2.293-4.454,1.224-2.133,3.119-4.072,3.083-6.656a7.349,7.349,0,0,1,3.8-6.788,11.7,11.7,0,0,0,2.683-2.721c0.829-1.06,1.537-2.138,2.971-1.393L92.5,359.768a2.928,2.928,0,0,0-.825.334c-8.708,7.764-17.977,14.905-26.108,23.312-4.168,4.31-8.26,8.692-12.374,13.054-0.6.638-1.159,1.322-1.7,2.016q-4.851,6.242-9.682,12.5c-0.751.97-1.481,1.986-3.02,1,1.474-2.384.628-4.792-.189-7.042a4.538,4.538,0,0,1,.218-4.085,26.61,26.61,0,0,0,1.69-3.425c0.614-1.644.527-2.03-.974-2.98a1.6,1.6,0,0,1-.7-2.393c0.529-1.074,1.052-2.158,1.672-3.18A19.5,19.5,0,0,0,43.322,377.9c-0.023-.719-0.011-1.439-0.044-2.158a12.884,12.884,0,0,1,2.95-8.644,51.121,51.121,0,0,0,4.85-7.109,25,25,0,0,0,2.63-7.391,18.029,18.029,0,0,1,4.554-9.317,110.411,110.411,0,0,1,14-13.436c6.035-4.739,12.026-9.536,18.12-14.2,12.2-9.337,25.261-17.395,38.319-25.46,18.048-11.148,37.153-20.27,56.132-29.639,1.075-.531,2.2-0.97,3.228-1.58a8.944,8.944,0,0,1,8.528-.263,11.008,11.008,0,0,0,7.454.536,54.943,54.943,0,0,0,10.849-3.7c2.482-1.209,5.279-1.759,7.912-2.671,1.2-.415,2.345-0.991,3.514-1.5a4.534,4.534,0,0,1,1.311-.556c4.383-.292,8.161-2.679,12.377-3.528a12.055,12.055,0,0,1,1.7-.009,15.094,15.094,0,0,1-1.735,1.383c-4.151,2.23-8.326,4.414-12.472,6.653a7.644,7.644,0,0,0-2.116,1.777c2.655,0.429,5.018-1.061,8.1-.9l-4.945,5.187a4.93,4.93,0,0,0,3.707-.517c4.726-1.941,9.517-3.762,14.11-5.986a95.816,95.816,0,0,1,12.72-4.89c1.892-.6,3.7-1.468,5.545-2.219,0.444-.181.865-0.427,1.319-0.572q16.307-5.2,32.619-10.386c4.183-1.323,8.374-2.63,12.6-3.806,1.961-.546,4.013-0.762,6.143-1.15-0.232,1.135-.951,1.149-1.642,1.341a53.453,53.453,0,0,0-6.607,2.022c-5.218,2.211-10.369,4.582-15.522,6.942q-11.107,5.088-22.174,10.263a39.965,39.965,0,0,0-3.788,2.059,36.965,36.965,0,0,1-9.312,4.317,8.3,8.3,0,0,0-2.6,1.2,39.27,39.27,0,0,1-8.788,4.326,34.468,34.468,0,0,0-3.288,1.443c-16.394,8.465-32.814,16.882-49.158,25.444-17.278,9.051-34.032,19.017-50.564,29.358a42.5,42.5,0,0,0-3.747,2.584,14.713,14.713,0,0,0-5.491,8.75c-1.721,8.2-3.563,16.384-5.088,24.624-0.841,4.542-1.154,9.183-1.67,13.783a12.569,12.569,0,0,0,.131,2.057,10.724,10.724,0,0,0,1.678-.617c2.751-1.626,5.544-3.191,8.2-4.957a143.382,143.382,0,0,1,19.436-10.861c5.079-2.335,10.087-4.826,15.128-7.243,0.7-.337,1.414-0.653,2.6-1.2a7.345,7.345,0,0,1-.526,2.412,12.893,12.893,0,0,1-2.919,3.142c-2.3,1.521-3.307,4.06-5.122,5.957-1.225,1.28-.482,5.013.751,6.793,2.326,3.357,3.495,6.9,1.7,10.959a8.416,8.416,0,0,0-.688,3.486,4.1,4.1,0,0,1-2.474,3.989q-8.055,4.5-16.038,9.13-7.88,4.569-15.682,9.271a38.025,38.025,0,0,0-5.267,3.737,12.467,12.467,0,0,0-4.451,9.231c-0.134,3.514-.305,7.029-0.339,10.544q-0.239,24.7-.392,49.4c-0.021,3.835.27,7.673,0.223,11.507a14.6,14.6,0,0,1-.881,4.9c-0.975,2.579-2.5,3.064-4.923,1.782C116.749,493.052,115.605,492.163,114.222,491.251Zm301.447-310.8a2.479,2.479,0,0,1-3.19-.428,22.7,22.7,0,0,0-2-1.709,5.384,5.384,0,0,0-4.543-.929,19.046,19.046,0,0,1-3.535.6,4.927,4.927,0,0,1-2.784-.4c-1.928-1.274-3.177-.884-4.632.824a18.559,18.559,0,0,1-4.03,2.961c-0.963.642-2,1.168-3.266,1.893-1.41-1.7-3.073-3.409-4.407-5.35-4.438-6.461-8.9-12.895-14.278-18.632-1.966-2.1-4.053-4.085-6.045-6.162a2.128,2.128,0,0,0-2.952-.472q-10.074,5.544-20.218,10.961a4.307,4.307,0,0,0-2.508,3.779c-0.249,4.066-.561,8.128-0.815,12.194-0.312,5.023-.624,10.046-0.867,15.073a3.427,3.427,0,0,1-2.6,3.528c-1.887.618-3.649,1.6-5.72,1.588a3.391,3.391,0,0,0-1.619.4,15.341,15.341,0,0,1-6.4,2.342,3.263,3.263,0,0,0-1.565,1.331,20.279,20.279,0,0,0-1.174,1.8,1.469,1.469,0,0,1-2.27.5c-1.564-1.251-2.912-.77-4.386.144a26.68,26.68,0,0,1-4.033,2.1c-1.717.692-3.518,1.176-5.466,1.81-0.293-1.944-.662-3.585.344-5.249a4.231,4.231,0,0,0,.281-2.077,68.812,68.812,0,0,1,.607-9.773c0.884-6.223,1.523-12.475,3.087-18.585a5.958,5.958,0,0,0-.133-1.525l-4.359,2.545c-0.561-1.044-.944-2.382-2.691-2.006,0.451-1.613.811-3,1.23-4.367a2.138,2.138,0,0,0-.708-2.559,2.729,2.729,0,0,1-.954-1.269c-0.771-3-1.458-6.017-2.259-9.388a31.5,31.5,0,0,1,2.956-1.455c2.388-.905,4.785-1.807,7.233-2.522a3.638,3.638,0,0,0,2.813-3.362c0.548-3.708,1.194-7.4,1.8-11.1a7.594,7.594,0,0,1,.247-1.655c1.37-3.327,1.21-6.888,1.671-10.354a4.883,4.883,0,0,1,.588-2.018c1.445-2.178,1.332-4.7,1.738-7.114a2.372,2.372,0,0,0-.431-0.837c-1.608.655-3.2,1.307-4.8,1.956-0.517.211-1.037,0.416-1.557,0.622-2.316.922-3.843,0.064-4.082-2.469-0.157-1.661-.03-3.349-0.03-4.943-2.784-1.726-2.721-1.766-4.731-4.949a19.763,19.763,0,0,0-2.732-2.989c-0.712-.731-1.478-1.409-2.523-2.4,1.035-.512,1.76-0.92,2.521-1.24A389.966,389.966,0,0,1,337.542,84.5c5.051-1.476,10.117-2.978,15.266-4.024a33.461,33.461,0,0,1,14.737.806c3.2,0.8,5.6,3.28,8.047,5.476,0.98,0.882,2.038,1.677,3.359,2.757a9.192,9.192,0,0,0,3.671,5.149,2.886,2.886,0,0,1,.924,1.571c0.431,1.524.642,3.114,1.122,4.62a30.977,30.977,0,0,1-2.236,25.038c-1.285,2.393-2.657,4.739-3.948,7.129-0.9,1.669-.851,2.029.54,3.324,2.867,2.669,5.491,5.737,8.745,7.809,2.7,1.723,4.376,4.231,6.648,6.233a8.669,8.669,0,0,0,.958.605,6.588,6.588,0,0,0-.012-1.336,9.827,9.827,0,0,1,.042-6.34,1.6,1.6,0,0,0,.105-0.706c-0.4-5.174,1.194-10.131,1.671-15.211,0.805-8.585,1.746-17.157,2.705-25.725,0.334-2.983.545-6.022,2.032-8.75a1.363,1.363,0,0,0,.187-0.426c0.375-2.668.624-5.36,1.136-8,0.653-3.365,1.527-6.686,2.287-10.03,0.567-2.491,1.146-4.98,1.642-7.486a5.3,5.3,0,0,1,3.912-4.337c16.156-5.417,32.7-9.326,49.35-12.831,2.017-.425,2.383-0.236,2.348,1.468-0.115,5.505-.006,11.023-1.054,16.48a3.784,3.784,0,0,1-3.114,3.351c-8.02,2.147-16.008,4.416-24,6.676-1.763.5-3.489,1.131-5.223,1.728a3.151,3.151,0,0,0-2.186,2.858c-0.57,4.353-1.226,8.7-1.794,13.049-0.3,2.289.436,2.925,2.772,2.3q9.141-2.436,18.246-5c3.478-.975,4.215-0.719,4.982,2.877a13.053,13.053,0,0,1-.087,5.424A42.209,42.209,0,0,0,450.1,110.5c0.009,2.624-.423,3.116-3.006,3.858q-10.7,3.075-21.43,6.074c-2.894.812-3.435,1.473-3.707,4.471-0.433,4.771-.928,9.536-1.378,14.305a15.778,15.778,0,0,0-.095,2.632c0.135,1.819.973,2.39,2.716,1.821,2.352-.768,4.665-1.658,7.015-2.433,2.794-.922,5.5-2.182,8.544-2.182a10.281,10.281,0,0,0,2.063-.578c2.058-.466,3.827-2.3,6.234-1.243a2.939,2.939,0,0,0,1.581-.393c2.561-.843,3.165-0.506,4.149,1.975a4.289,4.289,0,0,0,1.545,1.958,3.17,3.17,0,0,1,1.5,3.905c-0.48,1.687-1.064,3.348-1.664,5a23.178,23.178,0,0,0-1.551,8.425c0.053,2.972-.461,3.617-3.309,4.418q-16.482,4.641-32.985,9.212c-0.768.214-1.56,0.369-2.3,0.653-1.444.555-1.678,1.149-1.008,2.594C413.837,176.763,414.731,178.53,415.669,180.454Zm-50.462-69.228a21.5,21.5,0,0,0-1.327-4.262,19.291,19.291,0,0,0-2.807-3.232,4.777,4.777,0,0,0-3.816-1.691c-2.8.062-5.6,0.063-8.386,0.239-2.648.167-3.651,1.118-4.285,3.7-0.152.618-.264,1.247-0.365,1.876-0.605,3.779-1.2,7.561-1.8,11.34-0.63,3.937-1.287,7.87-1.9,11.81-0.382,2.465.476,3.168,2.747,2.216,2.356-.987,4.682-2.044,7-3.109a18.137,18.137,0,0,0,6.874-5.462c1.811-2.336,3.709-4.6,5.557-6.911A11.59,11.59,0,0,0,365.207,111.226Zm64.26,303.814c-0.9,4.123-.693,8.429-3.384,12.3-1.81-2.327-3.444-4.543-4.173-7.228-1.128-4.151-2.1-8.346-3.061-12.54-0.247-1.077-.152-2.228-0.29-3.335a21.835,21.835,0,0,0-.484-2.168L417.548,402a8.736,8.736,0,0,0-.908,1.479c-0.7,1.869-1.327,3.763-1.974,5.65a5.31,5.31,0,0,1-3.12,3.382,26.3,26.3,0,0,1-1.581-2.64,49.651,49.651,0,0,1-3.333-10.97c-0.37-1.862-.992-3.674-1.6-5.879l-3.512,2.287a9.351,9.351,0,0,1-2.093-5.27,38.812,38.812,0,0,1,.268-11.172c0.8-4.6.671-9.381,0.756-14.087a69.6,69.6,0,0,1,.635-10.971c0.437-2.474.069-5.095,0.017-7.65-0.031-1.509-.147-3.016-0.226-4.546l1.515-.278c-0.15-2.636-.322-5.183-0.421-7.733-0.03-.772-0.56-1.786.787-2.158a2.287,2.287,0,0,0,.19-1.29c-0.048-1.677-.239-3.356-0.191-5.029,0.053-1.819.328-3.632,0.478-5.45,0.117-1.419.167-2.845,0.29-4.264,0.1-1.181.232-2.362,0.413-3.534,0.239-1.558.961-3.066,0.389-4.7a1.128,1.128,0,0,1,.039-0.927c1.29-1.444,1.108-3.383,1.214-4.981,0.179-2.7,1.157-5.185,1.409-7.833,0.248-2.621.666-5.225,1.01-7.837,0.624-4.747,1.236-9.5,1.878-14.241,0.176-1.3.323-2.569-.935-3.474,0.6-.5,1.408-0.106,1.573-1.206a24.575,24.575,0,0,0,.155-8.336,3.229,3.229,0,0,1,.643-2.873,7.387,7.387,0,0,0,1.421-3.234c0.585-3.622,1.042-7.268,1.416-10.919A6.411,6.411,0,0,0,408,234.446a6.228,6.228,0,0,0-2.373.2c-8.386,2.817-17.147,4.375-25.342,7.892-4.156,1.784-8.673,2.72-13.01,4.092-2.89.915-5.784,1.836-8.613,2.92-1.766.677-3.407,1.679-5.118,2.507a29.539,29.539,0,0,1-11.038,2.75,13.972,13.972,0,0,1,1.239-1.549c1.259-1.11,2.509-2.237,3.849-3.244a3.712,3.712,0,0,0,1.452-4.6c-0.205-.594-0.373-1.2-0.627-2.023,2.273-.341,3.225-1.918,4.3-3.728,1.211-2.042,2.509-4.011,3.548-6.172,0.944-1.963,2.915-2.9,4.886-3.646,7.241-2.74,14.443-5.59,21.751-8.139,8.439-2.943,17.035-5.439,25.454-8.435,17.686-6.292,35.707-11.479,53.763-16.551q35.631-10.008,71.716-18.239c8.635-1.98,17.16-4.442,25.795-6.423,15.1-3.462,30.244-6.707,45.359-10.092a5.266,5.266,0,0,1,4.473.831,4.077,4.077,0,0,1-2.961,1.639,24.043,24.043,0,0,0-10.135,3.841,6.756,6.756,0,0,1-2.482,1.265,7.539,7.539,0,0,0-2.625,1.1c-1.344.864-2.253,2.034-1.863,3.806a2.486,2.486,0,0,1-1.769,3.2c-3.173,1.058-5.7,3.169-8.42,4.981-1.657,1.1-3.348,2.169-5.085,3.142a4.688,4.688,0,0,0-2.568,3.776c-0.3,2.427-.554,2.764-2.855,3.122-13.9,2.165-27.472,5.909-41.269,8.549-16.011,3.065-31.72,7.373-47.573,11.084-0.467.109-.933,0.223-1.4,0.309a52.494,52.494,0,0,0-14.153,4.977,25.905,25.905,0,0,0-13.174,14.538,83.272,83.272,0,0,0-4.207,16.694c-2.3,14.907-4.567,29.822-6.588,44.769-1.133,8.382-1.819,16.827-2.586,25.255-0.977,10.734-1.942,21.472-2.7,32.223-0.568,8.047-.823,16.116-1.182,24.177q-0.652,14.605-1.24,29.214c-0.1,2.315-.111,4.634-0.176,6.951C432.37,414.136,432.25,414.281,429.467,415.04Zm-115.686-3.955-2.106.833c-1.554-.654-1.915-1.834-1.873-3.329,0.1-3.515.041-7.034,0.191-10.546,0.119-2.785.48-5.558,0.683-8.341,0.333-4.541.652-9.083,0.926-13.628,0.312-5.182.808-10.37,0.768-15.552a81.566,81.566,0,0,1,.782-11.449c0.307-2.294.6-4.592,0.816-6.895,0.234-2.465.316-4.944,0.581-7.4,0.153-1.417.562-2.8,0.811-4.212,0.332-1.882.707-3.762,0.914-5.659,0.919-8.411,1.611-16.848,3.322-25.16a24.321,24.321,0,0,0,.042-4.674c1.815-1.037,3.6-2.068,5.4-3.08,2.726-1.536,5.009-.429,7.375,1.264a20.148,20.148,0,0,0,4.473-5.936,17.1,17.1,0,0,1,2.565-3.7c0.916-1.053,1.518-1.04,2.281.085,0.953,1.406,2.151,1.448,3.568,1.137,1.057-.233,2.125-0.417,3.578-0.7-0.491,7.119-1.8,13.752-2.533,20.446-0.731,6.646-1.709,13.268-2.167,20.178,0.924-.2,1.529-0.3,2.121-0.455,3.553-.931,7.1-1.889,10.656-2.806,2.263-.584,2.426-0.747,2.664-3,0.589-5.557,1.087-11.127,1.809-16.667,0.772-5.936,1.76-11.844,2.651-17.765,0.166-1.1.223-2.233,0.494-3.31,0.344-1.368.9-1.733,2.277-1.313a5.967,5.967,0,0,0,5.627-1.175,15.388,15.388,0,0,1,8.185-3.032c3.692-.335,4.472-1.187,5.093-5.158,1.176-.23,2.468-0.551,3.779-0.719a1.772,1.772,0,0,1,2.181,1.883,10.149,10.149,0,0,1-.1,1.914c-1.183,9.426-2.413,18.847-3.555,28.278-0.748,6.183-1.476,12.371-2.029,18.573-0.866,9.7-1.622,19.42-2.332,29.137-0.327,4.462-.422,8.939-0.646,13.408-0.49,9.815-1.069,19.626-1.475,29.445s-0.648,19.649-.957,29.475c-0.049,1.559-.208,3.04-2.074,3.674-1.769-1.572-3.45-3.256-3.911-5.6-0.768-3.9-3.236-6.067-6.988-7.414-2.018,1.96-1.421,5.523-4.113,7.3a14.505,14.505,0,0,1-3.386-7.351,43.665,43.665,0,0,0-1.077-4.335l-3.755,4.221a2.512,2.512,0,0,1-2.11-2.508c-0.127-2.226-.264-4.464-0.176-6.688,0.217-5.506.539-11.01,0.855-16.512,0.546-9.49,1.125-18.977,1.671-28.467,0.047-.829-0.047-1.665-0.09-2.94-4.59,1.3-8.8,2.465-12.986,3.7a2.514,2.514,0,0,0-1.8,2.066,12.214,12.214,0,0,0-.224,1.654c-0.39,9.422-.739,18.845-1.156,28.265-0.393,8.86-.853,17.717-1.29,26.575a12.246,12.246,0,0,1-.2,1.906c-0.207.989-.652,1.888-1.808,1.936-1.294.055-1.711,0.927-2.172,1.9-1.771,3.742-3.818,7.373-4.319,11.664l-2.943.278c-0.348-2.547-.694-4.974-1.007-7.405q-0.336-2.613-.6-5.236a3.04,3.04,0,0,0-2.01-2.95,3.509,3.509,0,0,1-2.271-3.605c-0.016-1.58,0-3.16,0-4.889a2.89,2.89,0,0,0-2.3,1.406c-1.748,2.26-2.648,2.154-4.072-.413A4.937,4.937,0,0,0,313.781,411.085ZM304.7,292.432a20.126,20.126,0,0,1,.22,3c-0.338,4.618-.736,9.232-1.147,13.845a4.072,4.072,0,0,1-2.766,3.335,26.446,26.446,0,0,1-2.528.855l2.453,1.956a9.835,9.835,0,0,1-6.2,7.435c-5.573,2.177-11.162,4.33-16.647,6.716-5.2,2.263-10.3,4.742-13.914,9.441-1.652,2.149-3.7,3.988-5.383,6.118a32.347,32.347,0,0,0-7.138,23.474c0.477,5.574,3.291,10.114,7.058,14.082a4.351,4.351,0,0,0,2.482,1.314,42.557,42.557,0,0,0,6.216.031,1.988,1.988,0,0,0,1.487-.979,62.659,62.659,0,0,0,2.554-9.465c-1.375.669-2.253,1.144-3.169,1.532-1.906.807-3.122,0.345-3.723-1.652a14.653,14.653,0,0,0-2.978-5.076,26.891,26.891,0,0,1-3.075-5.906,1.333,1.333,0,0,1,.869-1.746c0.713-.359,1.444-0.681,2.168-1.017a183.141,183.141,0,0,1,24.287-9.519,18.2,18.2,0,0,0,4.022-1.53c3.582-2.108,7.59-2.866,11.511-3.922a5.492,5.492,0,0,1,4,.192c0,1.676-.082,3.416.025,5.144,0.1,1.578.381,3.145,0.613,4.713,0.373,2.525.891,5.034,1.122,7.571,0.218,2.386-.664,3.368-3,3.809-0.862.163-1.744,0.217-2.615,0.335-2.061.279-2.668,0.779-2.956,2.8-0.337,2.37-.582,4.755-0.79,7.14-0.882,10.105-1.774,20.209-2.586,30.319-0.55,6.847-.989,13.7-1.444,20.556-0.136,2.044-.519,3.8-2.336,5.216-1.108.865-1.724,2.43-2.395,3.764s-1.125,2.75-1.895,4.684c-0.581-1-.915-1.471-1.14-1.987-0.383-.877-0.707-1.781-1.04-2.679-0.617-1.668-1.524-2.993-3.509-3.152a1.816,1.816,0,0,1-.863-0.366c-1.589-1.163-3.135-.736-4.747-0.011-1.644.739-3.346,1.351-5.187,2.084-0.551-2.261-1.014-4.163-1.53-6.278l-1.544,1.36c-1.738-.911-2.069-2.381-1.958-4.074q0.374-5.733.732-11.466c0.134-2.147-.278-2.611-2.408-2.5-2.394.131-4.782,0.373-7.174,0.532A27.263,27.263,0,0,1,245.653,411a15.417,15.417,0,0,1-7.711-5.406,35.588,35.588,0,0,0-3.957-4.169,25.932,25.932,0,0,1-5.5-7.8,31.821,31.821,0,0,1-1.441-5.248,6.27,6.27,0,0,0-.232-1.4c-1.554-2.839-1.493-6.011-1.91-9.075A63.508,63.508,0,0,1,229.678,343c1.141-2.588,2-5.362,3.592-7.664,3.312-4.781,6.514-9.716,11.051-13.486,6.57-5.46,13.023-11.1,20.708-15.03a2.119,2.119,0,0,0,.813-0.492c1.423-2.1,3.812-2.411,5.921-3.228,8.786-3.4,17.549-6.87,26.684-9.264a7.461,7.461,0,0,1,3.257-.361C302.537,293.611,303.513,292.879,304.7,292.432Zm203.055-25.866c4.165,0.489,4.194.524,4.239,4.645,0.028,2.594-.124,2.658-2.749,3.212-6.168,1.3-12.315,2.7-18.47,4.061-2.5.551-4.984,1.141-7.492,1.627a2.691,2.691,0,0,0-2.387,2.577c-0.6,4.832-1.224,9.66-1.78,14.5a15.84,15.84,0,0,0,.194,2.758c4.349-.935,8.4-1.774,12.427-2.684,2.258-.51,4.483-1.16,6.733-1.705,3.3-.8,4.727.339,3.961,3.68-0.949,4.148-.962,8.624-3.772,12.113a2.3,2.3,0,0,0,.261.543c0.715,0.712,1.985,1.358,2.061,2.124a26.613,26.613,0,0,1-.368,5.692,2.052,2.052,0,0,1-.892,1.05,3.131,3.131,0,0,1-1.113.416c-6.188,1.554-12.369,3.139-18.573,4.625-2.541.608-3.84,1.518-4.063,4.018-0.448,5.006-.644,10.034-0.914,15.054a6.254,6.254,0,0,0,.28,1.441c2.836-.527,5.582-1.024,8.321-1.556a4.883,4.883,0,0,0,1.584-.532c3.406-2.067,7.261-1.542,10.953-1.878,0.782-.071,1.622.494,2.7,0.856-2.187,3.373-2.263,6.913-1.979,10.542a4.261,4.261,0,0,1-.663,2.456,11.015,11.015,0,0,0-.655,11.591c1.349,2.741,1.328,5.718,1.093,8.694a2.721,2.721,0,0,1-2.452,2.55c-2.655.57-5.328,1.048-7.989,1.591-7.823,1.6-15.649,3.184-23.462,4.828-3.9.821-7.784,1.752-11.673,2.645-2.656.609-3.865-.229-3.812-2.952,0.107-5.512.261-11.026,0.553-16.531,0.616-11.646,1.136-23.3,2.06-34.925,1.045-13.131,2.391-26.241,3.795-39.34,1.123-10.477,2.544-20.921,3.8-31.384a3.473,3.473,0,0,1,2.84-3.372,67.85,67.85,0,0,0,13.1-4.554,2.018,2.018,0,0,1,.89-0.324c4.184,0.4,7.839-1.692,11.759-2.519,7.81-1.647,15.554-3.607,23.347-5.337,4.026-.893,4.893-0.241,5.839,3.763a6.912,6.912,0,0,1-1.083,6.12c-1.811,2.433-3.436,5.006-5.118,7.534C508.622,264.979,508.235,265.736,507.755,266.566ZM537.206,33.083a5.746,5.746,0,0,1-.176,1.809c-1.55,2.715-1.809,5.758-2.359,8.736-0.406,2.2-.993,4.36-1.384,6.558-0.517,2.9-2.3,4.375-5.081,4.967-4.375.929-8.73,1.948-13.091,2.941-4.049.921-8.085,1.9-12.146,2.767-2.137.456-3.369,1.55-3.632,3.8-0.49,4.2-1.1,8.391-1.642,12.588a13.738,13.738,0,0,0-.084,1.914,1.329,1.329,0,0,0,1.694,1.469c0.473-.058.938-0.184,1.407-0.279,2.035-.412,4.071-0.82,6.105-1.239a5.478,5.478,0,0,0,1.852-.458c2.182-1.425,4.685-1.454,7.118-1.847A24.487,24.487,0,0,0,518.525,76a24.91,24.91,0,0,1,3.439-.92c2.4-.325,3.422.627,4.2,2.881a16.126,16.126,0,0,1,.28,8.708c-0.509,2.5-.9,5.029-1.334,7.545-0.43,2.486-.64,2.682-3.08,3.254q-12.128,2.843-24.246,5.718c-0.465.11-.913,0.3-1.378,0.408a2.554,2.554,0,0,0-2.111,2.543c-0.195,2.387-.492,4.766-0.678,7.154-0.326,4.2-.6,8.415-0.911,12.809a23.453,23.453,0,0,0,7.209-1.1,22.514,22.514,0,0,0,2.932-1.039,25.743,25.743,0,0,1,6.276-1.363c4.182-.569,8.308-1.552,12.453-2.385,0.938-.189,1.848-0.527,2.789-0.689,1.817-.314,2.716.314,3.11,2.1a5.4,5.4,0,0,1,.113,1.191c-0.019,3.117-.022,6.235-0.1,9.35a24.374,24.374,0,0,1-.391,2.84c-0.34,2.36-.75,4.712-1,7.08-0.251,2.385-.565,2.9-2.894,3.42q-23.253,5.247-46.508,10.476c-1.4.316-2.755,0.835-4.158,1.128-3.257.678-6.53,1.276-9.881,1.922a6.893,6.893,0,0,1-.468-1.634c0.142-7.107-.082-14.251.575-21.312,1.072-11.519,2.732-22.983,4.12-34.473a48.228,48.228,0,0,0,.451-5.492c0.036-5.817,1.7-11.35,2.8-16.985,1.08-5.563,2.286-11.116,3.007-16.728,0.59-4.6,2.054-9,2.537-13.6,0.179-1.7,1.294-2.385,2.821-2.812,8.458-2.367,16.9-4.75,25.559-6.353,10.129-1.875,20.19-4.111,30.283-6.177C535.17,33.3,536.024,33.24,537.206,33.083ZM190.514,448.909l-5.7,7.077c-0.646-.509-1.055-0.857-1.49-1.17-1.456-1.05-2.325-2.926-4.611-2.859-0.579.017-1.374-1.2-1.742-2a5.925,5.925,0,0,1-.182-2.361c0.012-8.627-.052-17.256.1-25.881,0.06-3.335.657-6.658,0.954-9.992,0.452-5.09.809-10.188,1.293-15.275,0.536-5.642,1.18-11.273,1.753-16.912,0.137-1.35.109-2.718,0.277-4.062,0.276-2.211.622-4.415,0.991-6.613,0.568-3.381,1.039-6.786,1.809-10.122,0.931-4.035,2.135-8.006,3.209-12.008a16.057,16.057,0,0,0,.878-3.713,8.142,8.142,0,0,1,1.588-4.156c0.893-1.492,1.9-2.347,3.825-2.12a3.218,3.218,0,0,0,3.674-2.422,2.6,2.6,0,0,1,2.377-1.983c2.678-.454,4.134-2.433,5.239-4.653,1.564-3.14,2.974-6.357,4.5-9.516a17.108,17.108,0,0,1,1.4-2.077l0.559,0.13c0.154,1.056.335,2.11,0.454,3.17,0.1,0.873.063,1.762,0.193,2.628,0.368,2.47,1.185,4.347,4.122,4.979,3.389,0.73,4.461,2.75,4,6.263a30.965,30.965,0,0,1-.732,3.514,270.728,270.728,0,0,0-6.564,35.526c-1.205,10.466-2.527,20.932-3.229,31.436-0.729,10.914-.833,21.872-1.1,32.813-0.2,8.064-.147,16.136-0.363,24.2-0.119,4.477-3.2,6.463-7.515,5.118-0.836-.261-1.672-0.54-2.527-0.716-2.945-.605-4.316-2.033-4.81-5.117-0.353-2.206-.592-4.437-1.065-6.616A40.534,40.534,0,0,0,190.514,448.909Z"/>
</svg>
