<?xml version="1.0" encoding="utf-8"?>
<!-- Generator: Adobe Illustrator 19.0.0, SVG Export Plug-In . SVG Version: 6.00 Build 0)  -->
<svg version="1.1" id="Layer_1" xmlns="http://www.w3.org/2000/svg" xmlns:xlink="http://www.w3.org/1999/xlink" x="0px" y="0px"
	 viewBox="0 0 2435.4 590.8" style="enable-background:new 0 0 2435.4 590.8;" xml:space="preserve">
<style type="text/css">
	.st0{fill:#FFFFFF;}
</style>
<g>
	<path class="st0" d="M689.5,36.5c0,7.9,0.1,15,0,22.1c0,2.5-0.5,5-0.5,7.5c0,3.1,1.6,5.2,4.8,5.3c6.9,0.3,13.8,0.4,20.7,0.5
		c0.7,0,1.4-0.2,2-0.1c23.3,3.9,45.8-4.6,69.1-3.4c22.9,1.2,46-0.5,68.9-0.8c3.5,0,5.7-0.9,6.2-4.8c0.2-1.3,1.2-2.8,2.3-3.6
		c7.1-5.2,14.4-10.2,21.4-15.5c2.9-2.1,5.8-2.7,8.8-1c3.6,2.1,7.3,4.1,10.4,6.8C923.5,67.3,947.1,73,972.8,70
		c9.8-1.1,19.1-5.8,28.9-7.8c19.1-3.9,38.2-7.6,57.4-10.3c12.7-1.8,23.8,3.4,33.3,11.9c4.5,4,8.8,4.7,13.8,1.2
		c6.3-4.3,12.3-9.1,18.1-14c3.7-3.1,7.8-4.4,12-2.2c6.6,3.5,12.8,7.5,19.1,11.5c6.1,3.9,11.9,8.4,18.3,11.8c3.1,1.6,7.3,1.5,11,1.8
		c10.1,0.9,20.2,0.9,30.2,2.4c10,1.5,19.6,0.2,29.2-1.7c17.9-3.6,35.9-7.1,53.8-10.9c7.9-1.7,15.7-4.1,23.6-6.1
		c1.7-0.4,3.7-0.8,5.4-0.4c9.3,2.1,18.5,4.5,27.8,6.7c1.3,0.3,3,0.4,4.2-0.1c13.4-6.3,26.6-5.8,40.6-0.8c8.4,3,18,3.4,27,3.8
		c16,0.8,32.1,1.9,47.9,0.6c13.3-1.1,26.4-5.4,39.5-8.3c8.6-1.9,17.2-3.9,25.9-5.7c11.2-2.3,21.3,0.2,29.5,8.3
		c3.1,3,5.7,3.1,9.3,1.1c3.9-2.2,8-4.1,12.1-5.9c6.6-2.8,13.4-4,20.5-2.2c18.1,4.6,36.4,3.7,54.7,2.7c28.1-1.6,56.2-3.7,84.3-5.5
		c14-0.9,28-0.9,41.9-2.6c8.1-1,16.1-4.1,24-6.7c6.6-2.2,13.1-4.8,19.6-7.5c3.4-1.4,6.4-1.5,9.2,1.1c6.6,6.1,13.1,12.2,19.9,18
		c1.6,1.4,4.2,2.8,6,2.5c7.9-1.2,15.8-2.5,23.4-4.8c28.2-8.7,56.2-17.9,84.3-26.6c17-5.3,34.2-10,51.4-14.8c2.9-0.8,6.5-1.1,9.2-0.1
		c27.1,9.5,55.3,14.9,83.4,20.1c38.6,7.1,76.3,17.5,113.4,29.9c17.7,5.9,35.2,12.1,52.9,17.9c5.2,1.7,10.7,2.5,16,3.9
		c2.2,0.6,4.4,1.6,6.3,2.9c5.2,3.2,5.7,4.7,3.1,10.2c-6.5,14-12.4,28.5-20.1,41.9c-4.6,8.1-11.4,15.2-18.3,21.6
		c-12.1,11.2-19.5,25.1-25.6,40c-1.5,3.6-0.9,5.2,2.9,6.7c16.7,6.7,33.4,13.3,49.8,20.8c11.6,5.3,22.4,12.4,33.9,18.1
		c16.2,8.1,32.8,15.5,49.1,23.4c12.6,6.1,25,12.5,37.3,19.1c2.1,1.1,3.9,4,4.5,6.4c2.7,9.8,5.1,19.7,7,29.6c0.5,2.6-0.3,5.9-1.5,8.4
		c-11.9,24.6-24.1,49-36.1,73.6c-6.6,13.6-12.9,27.4-19.8,40.8c-1.4,2.7-4.4,5.2-7.3,6.2c-22.3,8.2-41.9,20.3-58.3,37.5
		c-2.1,2.2-5.3,3.3-8.1,4.7c-11.1,5.2-22.1,10.7-33.4,15.2c-16.6,6.6-33.4,12.6-50.2,18.6c-20.9,7.5-41.7,15-62.7,22.1
		c-13.7,4.6-27.5,8.7-41.4,12.3c-5.2,1.3-10.9,0.8-16.4,0.8c-8.8,0.1-17.7,0.7-26.5-0.1c-7.4-0.7-14.7-3.2-22.1-4.9
		c-4.8-1.1-9.6-1.9-14.5-2.8c-1.1-0.2-2.3-0.1-3.5-0.4c-33.3-7.6-66.6-15.2-99.8-22.9c-12.4-2.9-24.8-5.9-37.6-9
		c-0.2,0.8-1,1.9-0.8,2.9c1.6,9.4-3.2,16.7-7.4,24.3c-5.6,10-11.5,19.9-16.6,30.2c-3.2,6.4-7.8,8.8-14.7,8.8
		c-30.2,0.3-60.3,1.2-90.5,1.2c-99.7,0-199.3-0.3-299-0.5c-32.8-0.1-65.7-0.4-98.5-0.8c-34.5-0.3-69-1-103.5-1.1
		c-109.7-0.4-219.3-0.7-329-1c-118.5-0.4-237-0.7-355.5-1.1c-29-0.1-58-0.4-87-0.4c-5.2,0-9.7-1.1-13.9-4.4
		c-8-6.3-16.4-12-24.4-18.3c-1.4-1.1-2.5-3.6-2.6-5.4c-0.4-7-0.3-14-0.3-21c0-6-0.3-6.3-5.8-4.4c-33.6,11.8-67.1,24-101,35.2
		c-19.1,6.3-38.7,11.2-58.1,16.5c-3.6,1-7.6,1.2-11.4,1.2c-36.2,0.1-72.3,0.2-108.5,0c-3.6,0-7.4-0.6-10.6-2
		c-16.6-7.5-32.9-15.4-49.4-23c-5.9-2.7-9.9-6.9-12.3-13c-2.6-6.6-7.3-10.6-14.6-13c-6.9-2.2-13.4-3.1-20.4-3.1
		c-5.7,0-9.7-3.8-12.5-8.2c-8.8-13.9-17.6-27.9-25.6-42.3c-5.4-9.7-9.7-20.1-14-30.4c-1.3-3.2-1-7.1-1.7-10.7
		c-1.8-8.9-3.3-17.9-5.7-26.7c-1.9-6.9-2.2-8.3,4.3-11.6c14-7.1,28.2-13.6,42.2-20.5c25.3-12.4,50.6-24.6,75.6-37.5
		c10.7-5.5,20.7-12.5,30.8-19.1c4.6-3,5.1-8.2,1.1-11.9c-26.2-24.6-44.3-55.2-63-85.4C86,217,86.5,216,97.8,212.7
		c3.5-1,7.1-2,10.4-3.6c5.1-2.3,6.2-5.8,5.8-11.4c-0.2-2.2,1.1-5.2,2.7-6.7c11.8-10.5,23.6-21.1,35.9-31.1
		c24.3-19.5,48.8-38.7,73.4-57.9c13.4-10.4,26.9-20.8,40.7-30.6c3.8-2.7,8.7-4,13.4-5.3C334.4,51.9,388.6,37.4,443,23.7
		c28.9-7.3,58.1-13.2,87.3-19.3C540,2.3,550,1.1,559.9,0c2.4-0.3,5.7,0.9,7.5,2.5c3.3,2.9,6.2,6.5,8.6,10.3
		c7.6,11.8,14.6,23.9,22.4,35.5c1.8,2.6,5.8,5.1,8.8,5.2c5.7,0.1,11.5-1.4,17.1-2.6c18.4-4,36.7-8.1,55.1-12.2
		C682.5,38.1,685.5,37.4,689.5,36.5z M2161.9,470.4c3.8-1.1,7.5-2.3,11.3-3.3c14.8-3.9,29.6-7.7,44.3-11.7c4.1-1.1,8-3,12.1-4.1
		c7.4-2,15.1-3.3,22.3-5.8c7.4-2.6,14.3-6.6,21.6-9.3c8-3,16.3-5.2,24.3-8c3.1-1.1,5.8-3.2,8.7-4.7c23.4-12.3,50.1-18.1,70.5-36.3
		c3.8-3.4,8.9-5.3,12.2-9c5.7-6.4,10.1-13.9,15.5-20.5c2.7-3.3,4.4-6.3,3.5-10.8c-0.4-2,0.7-4.6,1.8-6.5c3.4-5.4,4-16.1,0.3-21.1
		c-3.7-4.9-5.2-9.7-2.5-15.6c1.1-2.4,0.9-5.8-2.6-5.5c-4.3,0.3-5.9-1.8-7.4-5c-0.9-1.9-2.4-3.8-4.1-4.9
		c-11.9-7.9-24.3-15.1-37.8-19.7c-15-5.1-30.1-9-43.3-18.9c-11-8.3-25.4-8.8-38.5-12.5c-6.5-1.9-13.1-3.6-19.6-5.5
		c-4.9-1.4-9.7-2.7-14.6-4.1c-6.4-1.8-12.9-3.2-19.1-5.5c-4.7-1.7-8.9-4.7-13.5-6.8c-1.1-0.5-3.2-0.3-4.2,0.4
		c-4.3,2.9-8,0.4-11.6-1.1c-8-3.4-15.6-7.7-23.7-10.7c-9.7-3.6-19.7-7.2-29.8-8.9c-7.9-1.3-13.7-10.9-23-5.4c-0.2,0.1-0.6-0.1-1-0.2
		c-13.3-2.6-26.7-5.2-40-7.9c-4.2-0.8-8.3-2.1-12.5-2.8c-5.2-0.8-10.4-3.7-15.9-1.3c-0.5,0.2-1.3-0.2-1.9-0.4
		c-5.7-1.9-11.4-4.2-17.2-5.8c-5.6-1.5-11-4.9-17.2-2c-1.2,0.6-3.1,0-4.6-0.3c-4-0.9-8-2.2-12.1-3c-9.7-2-19.3-4-29-5.8
		c-7.5-1.4-15.1-2.2-22.5-3.6c-2.3-0.4-4.3-2-7-3.4c-2.5,3.4-4.4-0.8-6.1-1.7c-1.7,0.8-2.8,1.8-3.9,1.7c-6.1-0.4-12.2-1-18.2-1.7
		c-1.1-0.1-2.6-1.2-3.1-2.2c-2.1-4-5.3-3.9-9-3.2c-1.5,0.3-3.2-0.3-4.9-0.5c0.2-1.9-0.2-4.3,0.8-5.5c2.1-2.5,4.7-5,7.6-6.3
		c19.6-8.6,39.7-16.6,60.9-18.9c28.6-3.1,57.5-4.1,86.3-5.1c9.5-0.3,19.3,1.5,28.5,4.1c9.1,2.5,18.9,5,24.1,14.6
		c0.5,0.9,1.8,1.7,2.8,1.8c7.1,1,11.7,4.2,11.6,12.3c0,1.5,2.5,2.9,3.8,4.4c1-1,1.9-2.1,2.9-3c1.3-1,2.7-1.9,4-2.8
		c0.4,0.5,0.9,0.9,1.3,1.4c-3.3,3.9-6.5,7.7-9.8,11.6c0.4,0.6,0.7,1.2,1.1,1.9c7-7.1,14.9-10.5,26.2-6.7c-3.3,2-5.4,3.3-7.8,4.7
		c0,4.4,1,4.6,5.7,4c5.6-0.7,10-4.1,14.5-6.3c11-5.4,22.4-4,33.7-5c1.3-0.1,3.1,0.6,4.1,1.5c3.8,3.3,8,3.1,12.2,1.5
		c10.3-4,21.1-4.1,32-4.5c5-0.2,10-0.3,15-0.8c3.3-0.3,5.5-1.8,3.6-4c2.3-3,4.6-5.2,5.9-7.8c5.3-10.6,10.6-21.1,15-32.1
		c0.9-2.4-1.2-8.2-3.4-9.2c-9.2-4.2-18.7-7.9-28.4-10.4c-9.2-2.3-17.3-6.8-25.6-10.9c-0.2-0.1-0.2-0.6-0.8-2.2
		c0.7-0.2,2.1-0.5,4.1-1c-3.9-2.6-5.8-2.9-8.1-0.1c-1.5,1.8-4.4,3.7-6.5,3.5c-7-0.5-13.9-1.8-20.8-3c-2.7-0.5-5.3-1.7-7.9-2.5
		c1-1.3,1.8-1.6,2.5-1.5c6.4,0.8,12.8,1.6,19.3,2.4c1,0.1,2.2-0.2,3.2-0.6c0.3-0.1,0.5-1.5,0.3-1.7c-0.7-0.6-1.6-1.1-2.5-1.1
		c-6.4-0.5-12.9-0.5-19.3-1.3c-3.2-0.4-6.3-2.1-9.5-3c-1.3-0.4-2.8-0.3-4.3-0.3c-3.5-0.1-7.1-0.1-10.6,0c-2.3,0-4.7,0.4-7,0.4
		c-2.7,0-5.4,0.1-8-0.4c-3.2-0.5-6.4-1.9-9.6-2.2c-6.3-0.6-12.9-1.7-19.1-0.8c-5.4,0.7-10.5,1.2-15.7-0.2c-0.1,0-0.3,0.1-0.5,0.2
		c-4.5,2.2-8.9,2.6-13-1.2c-3.7,4.1-6.3,2.6-8-1.7c-4.7,5.3-6.3,5.4-10.8,1.3c-2.7,1.5-5.5,4.9-8.8,0.9c-0.2-0.2-0.9,0.1-1.4,0.2
		c-5.5,1.4-11.8-1.7-16.9,2.7c-0.2,0.2-0.7,0.2-1,0.1c-4.8-2.5-9.6-0.5-14.5-0.4c-15.9,0.1-31.7,1.2-47.5,3.5
		c-20.7,3-40.2,10.2-59.9,16.8c-8.7,2.9-16.9,7.8-25.2,11.9c-1.1,0.5-1.7,1.9-2.6,2.8c-1.2,1.1-2.5,2.1-3.3,2.7
		c-4.7,2.7-8.4,5.2-12.5,7.1c-4.5,2-9.2,3.4-14.3,5.2c-0.3-0.2-1.5-1.3-2.7-2.4c-1,1.4-1.9,2.8-2.8,4.3c-0.3,0.6-0.5,1.3-0.6,1.9
		c-0.3,3.4-2.6,3.9-5.3,3.7c-6.1-0.4-4.6-4.6-3.6-8.5c-5.9,0.1-11.3,2.8-18.4,0.3c9.3-6.7,17.5-12.5,26.2-18.8c-2.8-2.1-5.1-3.8-8-6
		c1.7-1.4,3.3-2.3,4.3-3.7c1.6-2.1,2.8-4.6,4.2-6.9c-2.3-0.6-4.6-1.4-6.9-1.8c-1.4-0.3-3-0.1-4.5,0c-23.9,2.2-47.8,4.2-71.6,6.8
		c-18.1,2-36.1,2.6-54.4,2c-17.3-0.5-34.7,0.8-52,1.2c-5.5,0.1-10.9,0.1-16.4,0.2c-7.9,0.1-15.8,0.5-23.7,0.5
		c-7.7,0-14.6,4.1-22.5,3.4c-5.4-0.5-6.3,1.4-5.4,7.1c0.1,0.8-0.2,1.7-0.5,3.5c-1.3-3.4-2.3-5.8-2.8-7.1c-1.2,2-2.7,4-3.7,6.3
		c-0.8,1.9-1.9,4.5-1.2,6.1c4.4,9.7,2.8,19.4,0.8,29.1c-1,5,1.6,10.3,5.7,11.2c5,1,6.6,3.3,6.1,8.3c-0.2,1.8-0.3,3.7,0.1,5.4
		c1.9,6.6,3.8,13.3,6.1,19.8c1.7,4.9,3.8,9.7,6.1,14.4c1.5,3,3.5,5.9,5.6,8.5c1,1.3,3,1.8,5.5,3.3c-0.7-3.8-1.7-6-1.3-7.9
		c1.3-6.9,0.7-12.8-6.3-16.5c-1.1-0.6-1.8-2-2.4-3.1c-2.9-6.2-1-16.8,4.1-21.3c1-0.9,2.9-1,4.4-0.9c2.6,0.1,5.1,1,7.7,1.1
		c7.3,0.1,14.6,0,21.9-0.1c5.4-0.1,10.6,0.8,15.8,1.9c7.4,1.4,9.9,3.5,10,11c0,1.6,0.6,3.2,0.9,4.8c1,4.5,2.4,8.9,3,13.5
		c1.1,7.5,1.6,15.1,2.4,22.7c1,9.5,4.6,18.6,2.9,28.5c-0.6,3.5,1.7,7.5,2.7,11.2c0.4,1.6,2,3.9,1.4,4.5c-4.6,5.7-0.8,11.7-1.8,18.1
		c1.8-0.7,2.8-1.1,4.2-1.7c0,5.1,0,9.6,0,13.2c1.6,3.5,3.9,6.6,4.2,9.8c0.7,9,0.4,18.1,0.8,27.1c0.2,3.6,0.3,7.7,1.9,10.7
		c2.7,4.9-0.3,9.4,0.2,14c0.1,0.7-1.3,1.8-2.3,2.4c-2.2,1.4-4.5,2.7-7,3.7c-1,0.4-3.2,0.1-3.6-0.7c-2.7-4.5-4.9-9.1-7.4-13.7
		c-2.3-4.4-4.7-8.7-6.4-11.9c-2.3,0.4-4.7,1.4-5.1,0.9c-2.3-3.1-4.1-6.5-6.5-10.6c3.3,0,5.3,0,7.3,0c-0.5-4.1-9.4-4.6-3.1-11
		c-0.5-0.1-1.1-0.3-1.6-0.4c-1.6,1.2-3.2,2.5-5.3,4.1c-1.1-2-2.4-4-3.5-6.1c-1.1-2.2-2.1-4.5-3.1-6.7c-0.5,0.2-1,0.4-1.5,0.6
		c0.6,2,1.4,3.9,1.8,5.9c1,5,1.7,10.1,2.8,15.1c1.4,6.4,3,12.8,4.7,19.2c0.2,0.8,1.3,1.4,2,2.1c4.9,4.9,9.7,10,14.9,14.6
		c2.1,1.9,4.9,3.7,7.5,4c7.1,0.8,14.3,0.9,21.4,0.9c23,0,46-0.1,68.9-0.1c4,0,5.2-2.1,5-5.7c-0.1-3.8,0-7.6,0-11.3
		c0.7,0,1.3-0.1,2-0.1c1.2,5,2.3,10,3.5,15c0.7,0.1,1.4,0.1,2.1,0.2c1.4-7.2,3.6-14.3,4-21.5c0.3-5.3-1.8-10.7-2.4-16.1
		c-0.8-7.4-1.1-14.8-1.7-22.1c-0.3-4-1.1-7.9-1.4-11.8c-0.5-6.6-0.6-13.3-1.4-19.9c-1.1-9.5-2.9-19-4-28.5
		c-0.8-6.7-0.5-13.5-1.5-20.1c-1.1-7.8-3.2-15.5-4.3-23.4c-1.4-10.3-2.3-20.7-3.4-31.1c-0.4-4.1,1.7-5.9,5.5-6
		c6.3-0.2,12.7-1.1,19-0.4c4.2,0.5,8.3,2.8,12,5.1c2.4,1.4,3.6,4.7,5.9,6.2c3,2,3.7,3.5,0.8,6c-1,0.9-1.4,2.3-2.4,4
		c2-0.2,3.2-0.3,3.3-0.3c0.6,5.1,0,10.4,2,14.3c5.2,10,13,18,23,23.5c1.4,0.8,3.5,0.1,6.3,0.1c-1.9-2.4-2.8-3.5-3.7-4.7
		c4.3,0.3,8.2,1.3,11.8,2.8c1.7,0.7,3.1,2.2,4.7,3.4c-1.3,1.5-2.7,3.1-4,4.6c8.6,5.2,18.7,4.7,28.3,5c4.3,0.1,8.1,0.2,12.3,1.5
		c4.6,1.4,9.2,5.4,13.3,2.5c3.2,1.1,5.2,1.9,7.3,2.4c1.6,0.4,3.3,0.6,4.9,0.8c3.2,0.4,6.3,0.8,9.5,1.2c2.1,0.3,4.3,0.4,6.3,1.1
		c4.1,1.4,8,4.1,12.2,4.5c7.5,0.7,15.3-0.6,22.1,4.1c0.2,0.2,0.6,0.1,1,0.2c6.9,0.8,13.8,1.7,20.6,2.5c14.8,1.7,29.6,3.5,44.5,5
		c2.3,0.2,4.9-1.2,7.2-0.9c4.7,0.7,9.3,2.4,14,3.2c14.5,2.5,29,4.7,43.5,7.1c0.1-0.4,0.3-0.7,0.4-1.1c-0.7-0.6-1.4-1.3-2.6-2.3
		c5.3-0.5,9.7-1.4,13.3,3.2c2.4,3.1,13.6,4.7,14.9,2.3c3.3-5.8,6.5-2.6,9.6-0.3c3.6,2.7,7.2,4.1,11.8,4.5c8.1,0.6,16.3,1.3,24.1,3.4
		c17,4.6,33.8,10,50.5,15.4c7.9,2.6,15.8,5.6,23.2,9.2c10.8,5.3,13.6,16.4,7.4,26.5c-0.7,1.1-1.1,2.4-1.8,3.6
		c-2.7,4.6-4.8,10-11.9,7.8c-0.7-0.2-1.7,0.2-2.4,0.6c-4.7,2.6-9.3,5.2-13.9,7.9c-1.5,0.9-2.7,2.5-4.2,3.2c-6.7,3-13.6,5.8-20.4,8.8
		c-10.6,4.8-20.9,10.2-32.7,11.8c-10.5,1.4-20.9,3.4-31.3,5.1c-15.1,2.5-30.1,5.1-45.2,7.6c-3.4,0.6-6.8,1.6-10.3,1.7
		c-7.7,0.2-15.5-0.1-23.2,0c-1.8,0-3.9,0.1-5.4,0.9c-6.8,3.8-13.2,3.3-17.9-0.3c-3.1,1.1-5,2.4-6.7,2.2c-4.6-0.3-9.2-1.2-13.8-2
		c-5.4-0.9-10.8-2.7-16.2-2.8c-10.6-0.1-21.3,0.7-31.9,1.1c-2.2,0.1-4.3,0.1-6.5,0c-7-0.5-14-1.1-21-1.7c-1.8-0.2-4,0-5.2-1
		c-4.3-3.3-8.7-2.1-13.3-1.6c-4.7,0.5-9.6,0.1-15,0.1c-6,10.2-7.5,37.9-2,48.3c1.5-6-1.5-13,3.8-18.5c1.5,4,2.5,8,2.7,12.1
		c0.7,15.3,1,30.6,1.8,45.9c0.5,9,0.8,9,9.7,10.1c0.3,0,0.7,0.1,1,0.2c11.4,1.6,22.9,3.4,34.3,4.7c9.4,1.1,19,1.3,28.4,2.2
		c8.9,0.9,17.5,2.7,26.7,1.4c20.6-2.9,41.4-4.6,62-6.9c6.6-0.7,13.2-1.9,19.8-2.6c1.2-0.1,2.9,0.6,3.8,1.6c0.4,0.5-0.3,2.8-1,3.3
		c-1.2,0.8-3,0.9-4.5,0.9c-0.8,0-1.5-1.4-2.4-1.6c-1-0.2-3.1,0-3.1,0.2c-0.5,5.1-4.6,3.6-7.6,4.4c-1.5,0.4-2.7,1.8-4.1,2.3
		c-2.8,1.1-6.8,3.6-8.2,2.6c-3.2-2.3-5.4-2-8.3-0.3c2.4,4.2,6.2,4.7,10.4,4.8c2.4,0,6-0.8,5.1,4.7c3.7-6.1,8.5-4.6,13.3-3.8
		c1.8,0.3,4.9,0,5.4-1c2.5-5.4,6.7-4.5,11-4c1.3,0.2,2.6,0.8,3.9,0.6c7.5-1.2,15.1-2.5,22.5-4.1c4.1-0.9,8-3.2,12.2-3.7
		c6.1-0.7,12.2-0.5,18.4-0.7c-6.2,1.7-12.4,3.5-18.7,5c-9.9,2.3-19.9,4.5-29.9,6.7c0,0.4,0.1,0.8,0.1,1.3c2.9-0.2,5.8,0,8.6-0.7
		c12.9-3.1,25.7-6.4,38.6-9.8C2159,472.6,2160.4,471.3,2161.9,470.4z M136.2,200.7c-2.2,3.2-4.3,6.3-6.5,9.5c-3.2,4.7-3,6.8,1,10.7
		c0.5,0.5,0.7,1.3,1.1,2c-1.7,0.5-3,0.9-4.4,1.3c4.8,8.4,4.7,9.2-1.9,10.9c0.5,1.4,0.8,2.9,1.6,4.1c2.8,4.3,5.5,8.5,8.5,12.6
		c1.8,2.5,4,4.7,6.2,6.9c4.5,4.3,9,8.6,13.6,12.8c1.4,1.2,3.5,1.6,4.9,2.8c1.8,1.4,4.1,3,4.6,5c0.8,2.8,1.7,4,4.6,3.9
		c2.6-0.1,4.3,0.6,3.9,4.1c-0.1,1.1,2.8,3.8,4.1,3.7c5.1-0.8,7.4,2.4,9.4,5.9c3.5,6,10.2,6,15.6,7c2.8,0.5,5.4,0.6,7.8,2.4
		c1,0.7,2.1,1.3,3.9,2.4c0-3.1,0-5.3,0-7.9c4.4,0.4,6.1-1.3,4.6-5.9c-0.5-1.6,0.7-3.7,1.2-5.6c0.4,0.1,0.9,0.2,1.3,0.2
		c0.5,4,1.1,8,1.6,12.3c2-0.7,3.8-1.3,5.6-1.9c0.3,0.4,0.6,0.7,0.9,1.1c-1.4,0.5-2.7,1-4.1,1.5c6,2.1,11,4.4,16.2,0
		c-1.9-0.5-3.3-0.9-4.6-1.3c0-0.6,0-1.1,0-1.7c4.5-0.3,8.9-0.6,13.4-0.7c2-0.1,4,0.7,5.9,0.4c4.9-0.9,9.7-2.2,14.6-3.2
		c16.6-3.5,33.2-7,49.8-10.4c1.3-0.3,3.2-0.1,4.2,0.6c2.9,2.1,5,3.1,6-1.6c0.1-0.5,1.3-1,2-1.1c8-0.1,16.1-5.8,24,1
		c1.7-6.5,6.9-6.2,11.1-6.5c3.7-0.3,8.8-3.9,10.9,2.7c1-0.9,1.9-1.8,3-2.8c1.7,1.8,2.9,3.2,3.9,4.3c4.5-3,8.7-5.8,13.8-9.2
		c0,3.1,0,4.7,0,7.6c1.5-2.3,2.3-3.5,3.3-4.9c2.1,1.6,3.8,3,5.6,4.3c0.5-0.2,1-0.4,1.5-0.5c-0.1-2.6-0.3-5.2-0.4-7.9
		c4.3-0.8,4.4-0.7,5.7,4.1c5.2,1.1,9-1,13.3-3.5c4.2-2.5,10.2-1.9,15.4-2.7c0.3,0.8,0.7,1.5,1,2.3c-1,0.3-2,0.7-3.1,1
		c1.3,0.7,2.2,1,2.9,0.7c4.1-1.8,7.8-2.6,11.9,0.6c2,1.5,3.7-0.1,3.8-2.7c0-0.4,0.4-0.8,0.5-1.1c1.7,1,2.9,1.7,4,2.5
		c0.8-1.4,1.4-2.5,2-3.5c2.2,0.8,4.1,2,6,2.1c1.5,0.1,4.3-1,4.4-1.7c0.5-4.7,3.6-3.8,5.6-2.3c3,2.3,8-2,9.6,3.4
		c0.8-0.4,1.7-0.9,2.5-1.2c0.7-0.3,1.3-0.7,2-0.8c1.9-0.2,3.8-0.2,6.3-0.4c2.7,2.6,2.7,3.7,1.5,7.6c-0.8,2.8-1.1,6-0.9,8.9
		c0.3,4.7-3.1,12.1-6.9,14.3c-3,1.8-5.8,4-8.6,6.1c-3.5,2.5-6.8,5.4-10.5,7.4c-8.3,4.4-16.9,8.4-25.3,12.6c-3,1.5-6.2,2.9-8.7,5
		c-3,2.6-7,3.5-8.7,8.5c-2.3,6.9-9.9,8.4-14.4,4.5c-0.2-0.2-0.6-0.1-1.3-0.1c-0.7,1-1.6,2.1-2.2,3c-1.4-1.1-2.6-2.1-3.8-3.1
		c-0.4,0.3-0.8,0.5-1.3,0.8c0.7,3.1,1.4,6.2,2.2,9.9c-2.7,1.1-5.6,2.2-8.5,3.4c2.4-2.4,5.4-4.6,3.3-8.9c-2.5,1.3-5.9,4-6.8,3.3
		c-2.7-1.9-3.7,0-4.8,1.2c-2.1,2.3-4,4.8-6.4,7.7c1.2,0.8,2.5,1.7,3.8,2.6c-4.1,2.6-8.3,5.3-12.4,7.9c-0.2-0.4-0.4-0.8-0.6-1.2
		c1.8-3.3,3.5-6.7,5.4-10.3c-8.5-0.4-12.3,7-18.7,9.9c-5,2.3-8.2,8.7-15.4,7.3c-1.4-0.3-3.1,0.2-4.3,0.9c-1.9,1.1-3.3,3.3-5.3,4
		c-5.1,1.8-10.5,3-15.7,4.5c-5.4,1.5-10.8,2.9-16,4.8c-3.2,1.2-5.9,3.9-9.1,4.7c-5.8,1.5-11.8,2-17.7,3.3c-4.3,0.9-8.8,1.6-12.5,3.6
		c-2.8,1.5-4.8,1.9-7.8,1.3c-2.2-0.5-5.7-0.3-6.9,1.1c-4.6,5.1-11.2,3.7-16.6,5.5c-6.6,2.2-14.3,0.8-21.5,1.9
		c-18.2,2.8-36.3,4-54.5,0.2c-0.8-0.2-1.7-0.3-2.5-0.2c-13.9,2-27.1-1.6-40.3-4.9c-2.9-0.7-5.6-2.3-9-3.8c10-8,19.3-15.5,28.6-23
		c-0.2-0.3-0.4-0.6-0.6-0.9c-10.2,2.7-20.5,5.3-30.7,8c-0.3-0.5-0.6-1.1-0.9-1.6c5-5.2,10-10.6,15.1-15.7c2.5-2.5,5.9-4.5,1.3-7.9
		c12.7-8.3,25.1-16.4,37.4-24.4c-0.3-0.5-0.6-0.9-0.8-1.4c-3.7,1.9-7.5,3.4-10.9,5.6c-14.6,9.3-29.3,18.5-43.7,28.2
		c-20.3,13.7-40.4,27.7-60.5,41.6c-2.1,1.5-3.8,3.6-5.5,5.7c-2.5,3.1-4.9,6.2-7.3,9.4c-3.9,5.3-7.6,10.6-10.6,14.7
		c5.8,4.7,11,8.1,15.2,12.6c14.3,15.4,28.2,31.1,42.3,46.7c2.1,2.4,4.1,4.8,7.9,3.9c11.3-2.7,22.8-5.1,34.1-7.8
		c21.6-5.2,43.3-9.5,65.4-10.8c2-0.1,3.9,0.1,5.9,0.2c-20.3,15.5-43.4,24.2-66.9,32.2c6.1,1.4,12.1,2.6,18.2,3.1
		c22.2,1.7,44.4,3.5,66.7,4.4c10.2,0.5,20.5-0.9,30.8-1.3c4.2-0.2,6.5-1.6,4.3-6.8c2.6-0.3,4.6-0.5,6.6-0.7
		c-0.4,1.7-0.8,3.5-1.4,6.1c5-1.3,9.7-2.4,14.4-3.6c2.8,0.8,5.1,0.9,6.2-3.5c0.2-0.9,1.9-2,3-2.1c4.3-0.5,8.7-0.2,13-0.9
		c3.5-0.5,7-1.7,10.2-3.1c2.8-1.3,5-4.6,7.7-5c11.3-1.5,20-11,32-10.1c0.5,0,1-0.2,1.4-0.5c3.6-2.5,7.2-5.1,10.8-7.6
		c2.1,1.1,4.4,1.6,6.3,1c5.9-2,9.4-9.3,17-7.7c0.4,0.1,1-0.8,1.6-1.1c1.6-0.9,3.2-1.9,4.9-2.5c5.3-2,12.3-0.6,15-7.7
		c0.2-0.6,2.4-0.3,3.6-0.6c4.6-0.8,10.3,1.1,13-5c0.2-0.6,2-0.3,3.1-0.6c6-1.7,10.4-4.3,10.5-10.6c0.1-14.5,1.1-29,1.7-43.4
		c0.1-1.8,0.6-3.5,0.9-5.3c0.5,0,1.1,0,1.6,0c0.6,3.7,1.1,7.4,1.7,11.1c0.3,1.4,0.5,3.9,1.2,4.1c3.7,1,3.2,4.2,4,6.7
		c0.5,1.4,1.2,2.8,1.8,4.1c1.5-1.8,1.9-3.4,1.9-4.9c0.3-15.3,0.5-30.6,0.7-46c0-1.8-0.3-3.9,0.4-5.4c0.5-1,3.2-2.1,3.7-1.7
		c3.7,3.1,4.5,0.6,5.2-2.4c0.7-3.1,1.3-6.2,2-9.3c0.5,0.1,1,0.1,1.4,0.2c0.2,3,0.4,6,0.6,8.9c1.3-5.7,5.9-5.7,10-5.8
		c9.1-0.3,18.3-0.3,27.5-0.2c18.3,0.1,36.7,0.5,55,0.5c2.4,0,5.1-0.4,7-1.6c4.5-2.7,8.6-6.2,13.1-8.9c16.5-10.1,32.9-20.2,46.6-34.1
		c1.5-1.6,3.5-2.7,6.1-4.7c0.4,2.9,0.8,4.7,0.8,6.4c0,1.8-1.3,4.4-0.5,5.2c3.8,3.9,1.5,6.8,0,8.4c0.3,3.3,0.6,5.1,0.7,6.9
		c0.2,2.8-0.6,6.6,0.9,8.2c3.1,3.2,2.5,6.5,2.7,10c0.1,1.1,2.1,2.8,3.2,2.8c14.5,0.3,29,0.5,43.5,0.6c20.3,0.1,40.7,0,60.5,0
		c1.5-4.7,2.7-8.3,3.9-12c2.3-7.1,4.8-14.1,6.9-21.2c0.9-3.1,0.7-6.6,1.1-10.8c2-1.7,5-4.1,8.9-7.3c-2.5-0.3-3.6-0.3-4.7-0.5
		c-3.4-0.7-4.6-4.7-2-5.4c6.8-1.8,6.7-6.5,7.5-11.7c0.4-2.8,2.4-5.3,4-8.8c-2,0.6-3.3,1-4.5,1.5c-0.3-0.5-0.6-0.9-0.8-1.4
		c1.7-1,3.4-1.9,5-3.1c1.4-1,3.3-1.9,3.7-3.3c1-3.1,1.1-6.5,1.7-9.8c0.5-3,0.9-6,1.6-8.9c1.6-6.5,3.3-13,5.1-19.4
		c3.4-11.8,6.9-23.6,10.5-35.3c1.9-6.3,3.3-13,6.4-18.7c3.2-6,5.5-11.9,6.7-18.5c0.9-4.8,5.3-6.9,10-5.3c1.9,0.6,3.8,1.6,5.7,1.5
		c10.1-0.6,20.2-1.6,30.3-2.1c7.9-0.4,8.4,0.4,6.1,8.5c2.6,0.4,5.6,1.7,7.5,0.8c3.2-1.5,5.6-4.7,8.7-6.8c1.5-1.1,3.7-1.9,5.4-1.8
		c0.9,0.1,1.9,2.6,2.2,4.1c1.6,8-0.5,16-0.7,24c-0.1,4.3-0.1,8.7-0.6,12.9c-0.9,6.7-2.4,13.3-3.3,20c-0.4,3.5,1.1,7.6-0.2,10.6
		c-3.5,8.6-5.4,17.3-5.6,26.5c-0.1,4.4,0.6,9.1-0.8,13.2c-3.9,11.5-3.8,23.6-5.7,35.3c-1.4,8.8-2.5,17.7-6.6,26
		c-3.9-2.3-8.9-3.2-5.1-9.1c0.4-0.6-0.4-3.1-1.1-3.3c-9.1-2.7-10.1-10.5-10.8-17.9c-0.7-7.1,0-14.3-0.2-21.5
		c-0.1-3.3-0.7-6.5-1.1-9.8c-0.7-0.1-1.4-0.2-2.1-0.2c-0.8,1.6-2.1,3.1-2.4,4.8c-0.8,5.4-1.4,10.7-1.7,16.2
		c-0.4,8.4-0.6,16.8-0.7,25.2c-0.1,4.9,0.5,9.9,0.2,14.8c-0.4,7.3-5.3,14.4-0.7,21.9c0.4,0.6-0.3,1.9-0.5,2.9
		c-1.1,5.8-0.5,6.5,5.2,6.5c17.6,0,35.2,0.2,52.7-3.7c12.3-2.7,25.1-3,37.7-4.2c3.5-0.3,5.2-1.9,6-5.4c1.3-6,3.1-11.9,4.6-17.9
		c6-23.4,15.5-45.8,18.9-69.8c0.2-1.3,0.9-2.5,1.4-3.8c0.5-0.1,1.1-0.2,1.6-0.3c1.9,3.4,3.3,7.1,5.7,10c6,7.6,13.1,14.4,18.5,22.4
		c4.1,6.1,10.9,10.8,11.7,19.1c0.1,0.6,1.6,0.9,2.4,1.5c2.8,2,6.5,3.5,8.1,6.3c3.1,5.2,6.5,9.8,11.5,13.3c8.7,5.9,17.1,12.2,25.8,18
		c2.7,1.8,6,3.3,9.1,3.4c23.8,0.2,47.7,0.1,71.5,0c2.4,0,5.8,0.1,5.2-3.6c-0.5-2.6-2.2-4.6-6-4.7c-4.5-0.1-9.4-0.7-13.2-2.8
		c-8.2-4.4-15.7-10-23.6-15c-2.4-1.5-4.9-2.8-7.3-4.2c-0.3-0.2-0.4-0.5-0.6-0.7c0.4-1.1,0.8-2.2,1.5-3.9c-5.2,0.3-8-1.3-9.3-6.4
		c-1-4-4-7.4-5.9-11.1c-0.5-0.9-0.1-2.3-0.6-3.3c-0.9-2.1-2-4-3.1-6.1c-1.3,0.9-2.2,1.4-3.1,2.1c-1.5-3.2-3.7-6.1-4.1-9.1
		c-0.8-5.9-5.5-10.5-4.6-17c0.4-3.1-1-6.5-5-8.4c-2.4-1.2-4.9-4.8-5.1-7.5c-0.5-5.8-1.8-10.7-6.3-14.5c-2.2-1.9-4.3-3.9-6.7-6.1
		c5.3-3.7,10.4-7.5,15.6-10.9c4.4-2.9,8.9-6,13.7-8c5.1-2.1,9.9-4,10.1-9.8c2.3,0,4.3,0.6,5.7-0.1c6-3.2,11.8-6.6,17.7-10.1
		c11.9-7.1,23.3-14.8,32.1-25.9c1.7-2.2,3.6-4.4,5.6-6.2c2.8-2.4,5-4.6,0.6-7.1c2.1-5.9,8.4-9.2,7.4-16.3c-0.7-4.6-0.3-9.3-0.5-13.9
		c-0.1-2.2,0.3-4.8,3-3.2c2.7,1.5,6,3.9,3.7,8c-1.9,3.5-0.1,4.8,2.5,5.8c2-1.6,3.8-3,6.4-5c1.3,9.9,5.1,16.6,12.6,21.5
		c4.4,2.9,3.7,5.9-0.5,8.3c0.5,2.2,1.5,4.4,1.4,6.6c-0.4,5.8-1.7,11.6-1.9,17.4c-0.3,9.7,1,19.6-0.3,29.1
		c-1.6,11.3-2.3,22.4-1.7,33.7c0.1,1.1-0.4,2.2-0.7,3.3c-0.6,2.2-1.5,4.4-1.7,6.6c-0.4,3.4-0.2,6.9-0.5,10.3c-0.6,8.3-1.5,16.7-2,25
		c-0.2,3.6,0.1,7.2-0.1,10.7c-0.3,5.7-1,11.3-1.3,16.9c-0.2,5.2,0,10.5,0,15.9c-2.1-0.4-5.7,0.1-7.1-1.4
		c-4.3-4.7-7.7-10.2-11.4-15.4c-5.2,1.8-6.3,4.5-4.1,9.5c1.7,3.8,3.7,7.5,5,11.4c0.5,1.5-0.3,3.6-0.5,5.4c-0.4,2.9-1.4,5.9-1.1,8.7
		c0.1,0.7,4.1,1.4,6.3,1.4c16-0.1,32-0.5,47.9-0.6c62.3-0.1,124.7-0.2,187-0.2c13.4,0,13.9-0.5,11.6-13.8c-0.8-4.4-1.4-8.9-2.1-13.4
		c1.8,0.6,2.7,1.4,3.1,2.3c2.2,5.7,4.3,11.4,6.4,17.1c2.9,7.9,3.4,8.1,11.5,8c14.7-0.1,29.3-0.2,44-0.1c15.3,0.1,30.6,0.5,45.9,0.6
		c29.7,0.1,59.3,0,89,0.1c9.5,0,19,0.3,28.5,0.3c2.8,0,5.6-0.4,8.3-0.9c3.5-0.7,7.1-1.3,10.5-2.5c2.3-0.8,4.6-2.2,6.2-3.9
		c3.3-3.6,6.2-7.7,10.1-12.6c-2.3-3.3-5.7-8.1-8.9-12.7c-1.9,0.7-3.9,2-4.5,1.5c-2.1-1.7-4.4-3.8-5.2-6.2c-0.3-0.9,3.2-3.1,5.1-4.6
		c0.9-0.7,2.2-0.9,3.2-1.4c5.5-2.6,5.9-5.7,1.4-9.3c-1.4-1.1-2.7-2.6-4.2-3.5c-3.4-2.1-6.8-4.9-10.7-0.8c-0.4,0.4-1.5,0.7-1.8,0.5
		c-6.7-4.8-11.7,3.9-18.4,2.2c-3.8-1-8.4,1-12.6,1.1c-6.7,0.1-13.9-1.9-20.1-0.4c-11.5,2.9-23.4,0.7-34.7,4.2
		c-1.3,0.4-2.9-0.4-4.4-0.6c-1.6-0.3-3.2-0.8-4.8-0.8c-6.5,0-13.1,0.1-19.6,0.3c-1.1,0-2.4,0-3.4,0.5c-4,2-4.8-0.1-5.5-3.5
		c-0.5-2.4-1.8-4.9-3.5-6.7c-2.8-3.1-4.1-9.6-2-13.1c3.6-6.1,2.9-9.3-2.1-14.2c-1.1-1.1-1-4-0.8-5.9c0.2-1.6,1.5-3.1,2.2-4.7
		c0.5-1.3,0.8-2.6,1.3-4.4c1.3,0.8,2,1.2,2.7,1.6c6.4,4.2,11.9,3.3,16.8-2.4c0.8-1,2.8-1.9,3.8-1.5c2.6,1,5,2.6,7.9,4.2
		c1.8-1.2,4.4-2.8,7.9-5c-0.3,2.9-0.4,4.1-0.6,6.4c6,0,11.5,0,17.8,0c1,2.8-1.6,4.6-4.3,6.1c-6.6,3.7-11.5,9-14.7,16.1
		c1.8,0,3.2-0.5,4.6-1.1c9.6-4.4,16.3-13.3,26.6-16.8c1.7-0.6,3.5-2.3,4.4-3.9c2-3.6,3.9-4.4,6.3-0.1c5-5.6,12.2-8.8,12.5-17.3
		c0.4-11.5,1.1-22.9,1.5-34.4c0.1-1.5-0.6-3.3-1.5-4.6c-1.9-2.9-4.2-5.5-6.7-8.7c-3.8,5.8-7.9,2.3-13.1,0.8
		c-8.6-2.5-17.9-3.8-26.5,1.7c-1.3,0.9-3.5,1.4-5,1c-7.9-2.4-15.5-3.3-23,1.2c-0.7,0.4-1.6,0.6-2.4,0.6c-6.5-0.5-13-0.9-19.4-1.9
		c-1.7-0.3-4.2-2.7-4.4-4.3c-1.2-11.9-2.2-23.8-2.7-35.8c-0.1-2.8,1.8-5.7,2.8-8.6c0.5,0.1,1,0.3,1.5,0.4c0.2,1.4,0.5,2.7,0.9,5.5
		c2.4-2.5,4.1-4.3,6.1-6.4c0.4,0.2,1.4,0.4,2.2,0.9c7.7,4.9,16.6,2.5,24.9,4c5,0.9,10.2,0.6,15.3,0.5c1.9,0,3.9-0.8,5.8-1.2
		c-0.1-0.3-0.2-0.5-0.3-0.8c8.7,0.8,17.4,1.6,26.9,2.5c-3.9,4.1-10.6,6.2-9.2,13.4c0,0.2-1.1,0.7-1.6,1c-1,0.7-2,1.5-3,2.2
		c0,0.5,0,1,0,1.5c2,0.5,4.4,1.9,6,1.2c8.2-3.1,17.5-5.2,19.7-15.9c0.2-0.8,0.7-1.5,1.2-2.2c7.1-8.6,11-18.3,9.1-29.5
		c-1.5-8.7,0.7-18.1-5.1-26.1c-1-1.3-0.6-3.9-0.5-5.8c0.4-7.8-10-16.7-17.5-15.1c-3.3,0.7-6.7,1-10.1,1.1
		c-6.1,0.2-12.3-0.1-18.4,0.4c-4,0.3-7.8,2.2-11.8,2.5c-8.9,0.7-17.9,0.9-26.8,1.4c-20.2,1.2-40.4,4.4-60.7,0.7
		c-2.1-0.4-4.4-0.4-6.5,0.2c-7.5,2.1-14.8,0.5-22.1-1.1c-2.1-0.5-4.2-0.8-6.4-1c-3-0.3-6.1-0.6-9.2-0.5c-1.7,0.1-3.9,0.6-5,1.8
		c-1.9,2-3.2,4.6-5.2,7.5c3.7-1.5,7.1-2.9,10.5-4.3c0.3,0.7,0.6,1.4,0.9,2.2c-9.6,4.3-19.3,8.6-29.8,13.3c0.9-4.5,1.5-7.8,2.1-10.8
		c1.5-1.2,3-2.3,4.5-3.4c-1.3-1.6-2.5-3.5-4-4.8c-0.9-0.8-2.4-0.8-3.7-1.2c-1.2-0.4-2.9-0.3-3.7-1.1c-3.2-3.3-6.5-2-10.1-1.2
		c-1.5,0.3-3.6,0-4.9-0.9c-2.8-1.9-13.2-1.8-14.7,1.1c-2.1,4-4.5,3-7.3,1.5c-1-0.5-2.2-1-3.2-0.9c-5.5,0.5-10.9,0.9-16.3,1.8
		c-3.8,0.6-7.5,3.1-11.1,2.9c-8.1-0.5-15.6,0.8-23,4c-1.6,0.7-4.2,0.8-5.7,0c-2.9-1.6-5-1.9-7.7,0.3c-0.7,0.6-2.7,0-4-0.4
		c-2.6-0.7-5.1-1.6-7.6-2.5c-0.2,0.5-0.3,1-0.5,1.5c0.9,1,1.8,2,3.5,4c-3.5,0.2-5.9,0.4-8.3,0.3c-6.1,0-12.3-0.1-18.4-0.3
		c-3.8-0.1-7.6-0.4-11.4-0.5c-1.1,0-2.2,0.2-3.4,0.2c-8.3-0.5-16.9-0.2-25-1.9c-9-2-17.5-6-26.2-8.9c-3.8-1.3-8.4-4-10.6,2.5
		c-0.1,0.2-0.5,0.4-0.8,0.6c-3,1.5-6,2.9-8.3,4.1c-2.2-0.8-4.4-2.3-6.4-2.1c-2,0.2-3.7,2.3-5.5,3.6c0.3,0.5,0.7,1,1,1.4
		c1.5-0.5,2.9-1,4.7-1.6c0,1.7,0,3,0,4.3c-0.1,4.3-0.2,8.3,5.9,9c3.1,0.4,6,2.5,10.1,4.4c-5.3,3.8-10,7.1-14.4,10.1
		c-5.3-6.9-10.5-13.3-15.3-20c-3.1-4.2-4.4-10.2-11.4-10c-5.1-6.6-11.7-8.8-19.7-6.8c-0.3,0.1-0.7-0.1-1-0.2
		c-4.5-1.2-9-2.4-13.4-3.6c-1.2-0.3-2.7-0.6-3.6-1.5c-5.1-4.8-12.1-4-15.6,2.1c-2.3,4-5.6,5.9-9.9,4.8c-4-1-7.8-2.9-11.6-4.4
		c0.5,1.5,1.3,3.5,2.2,6.1c-3-0.7-5-1.6-6.9-1.5c-13.7,0.6-27.6,2.7-41.1,1.6c-11-0.9-21.5,1.2-32.2,1.1c-7,0-14.3-0.2-21.1-2
		c-6.1-1.6-11.5-5.9-17.6-8.2c-3.9-1.5-8.3-1.9-12.6-2.2c-2.8-0.2-4.2,1.3-3.3,4.6c0.3,1.2-0.7,3-1.5,4.2c-1.2,1.7-2.8,3.2-4.4,4.6
		c-0.4,0.4-1.1,0.6-1.8,0.9c-0.9-1.1-1.7-2-2.9-3.5c-1.3,2-2.7,3.5-3.3,5.3c-1.2,3.3-2.8,4.1-6,2.5c-1.3-0.7-3.8-1.3-4.5-0.6
		c-4.5,4.3-8.6,1-13,0c-5.5-1.3-11.7-3.7-16.7-2.2c-8.2,2.4-15.4,3.2-22.8-1.5c-2.3-1.5-4.4-1.6-6.6,0.7c-4,4.1-8.5,3.6-13.7,0.5
		c-2.1-1.2-5.6-0.5-8.4-0.1c-2.1,0.4-4,2.5-6,2.6c-6.1,0.1-12.1-0.6-18.2-0.7c-5.5-0.1-11-0.1-16.4,0.2c-4.1,0.3-8.1,1.2-12.1,1.9
		c-1.1,0.2-2.3,0.7-3.3,0.5c-3.3-0.7-6.6-2.4-9.8-2.3c-6.5,0.3-12.9,1.5-19.9,2.5c-1-0.3-2.8-1.2-4.8-1.5c-1.6-0.3-3.4,0.1-5,0.1
		c-4.1-0.1-8.3-0.3-12.4-0.6c-4-0.3-8.3-0.1-12.1-1.3c-5.8-1.8-6.3-6.6-2.1-10.9c2.4-2.5,4.4-5.4,6.1-8.4c0.7-1.2,0.8-3.6,0.1-4.5
		c-1-1.1-3.2-1.8-4.7-1.5c-3.2,0.7-6.4,1.8-9.3,3.2c-6.9,3.5-13.7,7.1-20.3,11c-5.5,3.3-10.6,7.1-15.9,10.8
		c-2.3-6.4,7.7-9.6,3.2-16.6c-1.6,1.5-3,2.9-4.5,4.2c-5.1,4.5-10.1,9-15.4,13.2c-2,1.6-4.7,1.9-5.5-1.4c-3.2-12.6-6.3-25.2-9.1-37.9
		c-0.8-3.8-2-5.8-6.2-5.1c-1.3,0.2-3.6,0-4-0.8c-4.2-7.1-10.7-10.5-18.6-11.8c-2.1-0.3-4.1-1.7-6.1-1.5c-3.6,0.2-7.1,1-10.6,1.8
		c-4.1,0.9-8.4,4.1-11.7-1.7c-0.3-0.6-2.5-0.4-3.7-0.2c-3.3,0.6-6.6,1.1-9.7,2.2c-2.4,0.8-4.6,2.4-7.6,4c-1.7-0.1-4.4-0.2-8.4-0.4
		c1.9,1.8,2.7,2.5,4.2,3.9c-3,0.6-5.2,1.1-7.7,1.6c0-1.4,0-2.3,0-3.4c-1.9,0.8-3.3,1.7-4.9,2.1c-2.5,0.7-5.1,0.8-7.5,1.6
		c-4.4,1.4-8.7,3.4-13.1,4.7c-6.2,1.8-12.5,2.9-18.7,4.8c-8.1,2.6-16.1,5.6-24.1,8.5c-2.6,1-4.9,2.8-7.6,3.6
		c-8.9,2.5-17.9,4.5-26.8,7.2c-8.4,2.5-16.6,5.8-24.9,8.5c-5.7,1.8-11.5,3.1-17.3,4.8c-0.7,0.2-1.3,0.9-1.9,1.3
		c0.6,1.5,1.1,2.7,1.5,3.8c-3.4-0.7-6.7-2.4-9.4-1.7c-7.2,1.9-14.2,4.6-21.1,7.5c-16.7,7-33.3,14.2-49.9,21.6
		c-11.7,5.2-23.8,9.4-34,17.5c-2.6,2.1-6.7,2.2-9.7,4c-4,2.4-8.2,5-11.3,8.4c-1.9,2.2-3.3,3.4-6.3,3.6c-4.6,0.3-9.2,1.8-12.1,5.7
		c-0.7,1-0.7,3.2-0.1,4.3c0.4,0.7,2.5,0.8,3.8,0.8c0.7,0,1.5-0.6,2.2-0.9c0.2,0.4,0.5,0.7,0.7,1.1c-2.2,1.7-4.4,3.4-6.6,5.2
		c-4.2-6-4.3-6.2-10.5-2.6c-2.8,1.6-5.1,4-8,6.4c1.8,1.2,3,2,5,3.3c-4.5,1.6-8.4,2.6-12,4.4c-3.6,1.8-6.9,4.3-10.2,6.4
		c-3,2.4-6,4.8-9.1,7.1C145.8,193.8,140.9,197.3,136.2,200.7L136.2,200.7z M1170.7,544.9C1170.7,544.9,1170.7,544.9,1170.7,544.9
		c99,0,198,0,297,0c135.2,0,270.3,0,405.5,0c7.2,0,7.3,0,7.3-7c0-50.8,0-101.7,0.1-152.5c0-4.6-1.6-6-6-6c-18,0.2-36,0.1-54,0.1
		c-273.3,0-546.6,0-820,0c-177,0-354,0-531,0c-7.5,0-7.5,0-7.5,7.4c0,50.2,0,100.3,0,150.5c0,7.6,0,7.6,7.7,7.6
		c81.7,0,163.3,0,245,0C866.7,544.9,1018.7,544.9,1170.7,544.9z M1960.3,341.1c1,0.7,1.4,1.2,2,1.4c20,6.9,39.7,14.8,60.8,17.9
		c9,1.3,18,3.6,27.2,0.8c36.5-11.1,73-22,109.5-33.1c1.5-0.4,2.8-1.2,4.8-2.2c-1.5-1.4-2.3-2.2-3.2-2.8c-9.8-6-19.5-12.1-29.5-17.9
		c-2.1-1.2-5.1-1.7-7.6-1.7c-12,0.3-24,0.9-36,1.3c-30.3,1-60.6,2.5-90.9,0c-2.6-0.2-6,1.2-7.9,3c-7.6,7.5-14.9,15.3-22,23.2
		C1964.8,334.1,1962.7,337.7,1960.3,341.1z M365.8,342.7c-2.2-0.4-3.3-0.8-4.4-0.9c-9.6-0.4-19.3-1.1-28.9-1.1
		c-5.6,0-11.3,0.5-16.8,1.7c-8.1,1.7-16,4.5-24.1,6.4c-12.5,2.9-24.9,6.7-37.5,8c-12.9,1.3-26.6,1.8-37.1-8.9
		c-0.4-0.5-1.1-0.7-1.7-1c-8.6-3.4-17.3-6.8-25.8-10.3c-3.1-1.3-5.9-1.7-7.8,1.5c-3.1,5.3-6.8,10.4-8.6,16.2
		c-2.9,9.3-4.4,19.1-6.7,28.6c-0.9,3.9,0.2,5.4,4.1,6c23.6,3.9,47.2,8.6,71.2,9.7c8,0.4,15.4-0.4,22.7-4.1
		c32.7-16.6,65.5-32.9,98.2-49.3C363.3,344.8,364,344,365.8,342.7z M1876.2,290.7c-2.2-1.2-3.1-1.9-4.1-2.3
		c-8.6-4.1-17.4-7.7-25.7-12.3c-9.5-5.3-19-10.9-27.7-17.5c-5.3-4-8.8-10.3-13.2-15.4c-0.9-1-2.4-1.6-3.6-2.3
		c-0.5,1.3-1.5,2.6-1.4,3.8c3,24.4,6,48.9,9.3,73.3c0.7,5.5,1.5,5.7,6.4,3.3c18.4-9.1,36.7-18.2,55-27.4
		C1872.7,293.1,1873.9,292.2,1876.2,290.7z M1627.8,273c-0.5-5.2-1.2-11.5-1.7-17.8c-0.3-4.7-2.5-6.6-7.4-6.5
		c-7.6,0.2-15.2-0.3-22.8-0.3c-5.5,0-10.6,0.8-13.2,6.8c-3.2,7.3-7,14.4-10,21.7c-1.4,3.5-1.9,7.4-2.5,11.2c-0.5,2.9,0.8,4.4,4,3.9
		c3.9-0.6,7.9-1.1,11.9-1.5c9.9-1.1,19.8-2.9,29.7-2.8c11.4,0.1,12.4,0,11.9-11.4C1627.8,275.4,1627.8,274.7,1627.8,273z
		 M1897,318.4c-0.3-0.7-0.7-1.3-1-2c20.5-16,42.5-29.8,66.2-40.9c-2.8,0.2-5,1.3-7.3,2.3c-8,3.6-16.1,6.9-23.9,10.8
		c-11.2,5.5-22.1,11.5-33.2,17.2c-11.1,5.6-22.2,11-33.3,16.7c-12.1,6.2-24.2,12.6-36.2,19.1c-4,2.2-7.4,5.2-12.2,8.7
		c2.3,0.4,3.1,0.6,3.8,0.7c9.8,0.6,19.6,1.3,29.4,1.6c6.6,0.2,13.4,1.4,19.5-2.5c2.6-1.6,6-2.8,3.1-7.2c1.3-0.1,1.9-0.2,2.5-0.1
		c6.5,0.5,7.3-0.4,6.6-7c-0.1-0.9,0.2-2,0.6-2.8c2.3-4.5,11.2-9.6,17-9.7c-4,2.9-7.9,5.7-11.8,8.4c0.2,0.2,0.5,0.5,0.7,0.7
		c4.3-0.7,8.7-1.4,12.3-2c0.8-10.6,11.7-10.4,15.9-17.1C1909.2,315.1,1903.1,316.8,1897,318.4z M835.2,280.9c0.6,0,1.3-0.1,1.9-0.1
		c1.5-7.1,3.8-14.1,4.5-21.2c0.8-8.5-0.1-17.2,0.2-25.8c0.2-4-1.3-5-4.9-4.7c-5.1,0.4-10.3,0.5-15.4,0.9c-7.9,0.6-8.1,0.9-9.2,8.7
		c-2.3,17.3-4.8,34.6-7.2,51.9c-1.9,13.1-3.8,26.3-5.7,39.4c1.7-1.4,2.7-3.1,3.2-4.9c4-14.4,7.7-28.9,12.1-43.2
		c1.4-4.5,3.9-8.9,6.8-12.5c4.1-5,8.6-3.8,10.7,2.3C833.3,274.7,834.2,277.8,835.2,280.9z M1373.3,361.4c0-0.7,0-1.4,0-2.1
		c-81.2,0-162.4,0-243.6,0c0,0.1,0,0.1,0,0.2C1210.9,360.1,1292.1,360.8,1373.3,361.4z M2181.7,159.3c5.3-0.1,9.5-3.4,9.2-6.6
		c-0.1-1-2.1-2.7-2.3-2.5c-3.3,2-6.5,4.2-9.7,6.4C2180.1,157.7,2181.2,158.8,2181.7,159.3z M1469.9,360c0.1-0.2,0.1-0.5,0.2-0.7
		c-23.5,0-47,0-70.5,0c0,0.2,0,0.5,0,0.7C1423.1,360,1446.5,360,1469.9,360z M1120,359.5c0-0.2,0-0.4,0-0.6c-17.2,0-34.4,0-51.7,0
		c0,0.2,0,0.4,0,0.6C1085.6,359.5,1102.8,359.5,1120,359.5z M1624.5,215.6c0.6-0.1,1.3-0.2,1.9-0.3c-0.8-4.9-1.6-9.7-2.4-14.6
		C1622.6,206,1620.6,211.1,1624.5,215.6z M2119.7,162.6c2.9-0.4,6.2-0.8,9.4-1.4c0.8-0.2,2-1.2,2-1.7c-0.1-1.2-0.6-2.5-1.4-3.4
		c-0.4-0.4-2-0.2-2.6,0.2C2124.4,158.4,2121.9,160.6,2119.7,162.6z M2049.5,478.2c-0.5,0.6-1,1.1-1.5,1.7c1.6,4.1,6.5,3.4,9.1,6.1
		c0.4-0.5,0.8-1.1,1.1-1.6C2055.3,482.3,2052.4,480.2,2049.5,478.2z M1986.4,263.2c-0.3-0.5-0.6-1-0.8-1.5c-2.8,1.2-5.5,2.4-8.3,3.5
		c0.3,0.6,0.6,1.3,0.9,1.9C1980.9,265.8,1983.6,264.5,1986.4,263.2z M849,196.3c0.4,0.1,0.7,0.1,1.1,0.2c0.4-3.9,0.8-7.8,1.2-11.7
		c-0.6,0-1.1-0.1-1.7-0.1C849.4,188.5,849.2,192.4,849,196.3z"/>
	<path class="st0" d="M1373.3,361.4c-81.2-0.6-162.4-1.3-243.6-1.9c0-0.1,0-0.1,0-0.2c81.2,0,162.4,0,243.6,0
		C1373.3,360,1373.3,360.7,1373.3,361.4z"/>
	<path class="st0" d="M395.2,362.7c-1.3-0.9-2.6-1.8-3.8-2.6c2.4-2.9,4.2-5.4,6.4-7.7c1.2-1.3,2.1-3.2,4.8-1.2c1,0.7,4.3-2,6.8-3.3
		c2.1,4.4-0.9,6.5-3.3,8.9c0,0,0.1-0.1,0.1-0.1C402.6,358.7,398.9,360.7,395.2,362.7L395.2,362.7z"/>
	<path class="st0" d="M2158.7,470.6c1.1,0,2.2-0.1,3.2-0.1c-1.5,0.9-2.9,2.1-4.5,2.6c-12.8,3.4-25.7,6.7-38.6,9.8
		c-2.8,0.7-5.7,0.5-8.6,0.7c0-0.4-0.1-0.8-0.1-1.3c10-2.2,19.9-4.3,29.9-6.7C2146.3,474.1,2152.5,472.2,2158.7,470.6z"/>
	<path class="st0" d="M2181.7,159.3c-0.5-0.5-1.7-1.6-2.8-2.7c3.2-2.2,6.4-4.4,9.7-6.4c0.2-0.1,2.2,1.6,2.3,2.5
		C2191.2,155.9,2187,159.2,2181.7,159.3z"/>
	<path class="st0" d="M1469.9,360c-23.4,0-46.8,0-70.3,0c0-0.2,0-0.5,0-0.7c23.5,0,47,0,70.5,0C1470,359.6,1470,359.8,1469.9,360z"
		/>
	<path class="st0" d="M1120,359.5c-17.2,0-34.4,0-51.6,0c0-0.2,0-0.4,0-0.6c17.2,0,34.4,0,51.7,0
		C1120.1,359.1,1120.1,359.3,1120,359.5z"/>
	<path class="st0" d="M1624.5,215.6c-3.9-4.5-2-9.7-0.5-14.8c0.8,4.9,1.6,9.7,2.4,14.6C1625.8,215.4,1625.2,215.5,1624.5,215.6z"/>
	<path class="st0" d="M2119.7,162.6c2.3-2,4.7-4.2,7.4-6.2c0.6-0.5,2.2-0.6,2.6-0.2c0.8,0.9,1.3,2.2,1.4,3.4c0,0.5-1.2,1.5-2,1.7
		C2125.8,161.8,2122.5,162.2,2119.7,162.6z"/>
	<path class="st0" d="M2049.5,478.2c2.9,2.1,5.8,4.1,8.7,6.2c-0.4,0.5-0.8,1.1-1.1,1.6c-2.6-2.7-7.5-2-9.1-6.1
		C2048.5,479.3,2049,478.7,2049.5,478.2z"/>
	<path class="st0" d="M1986.4,263.2c-2.7,1.3-5.5,2.6-8.2,4c-0.3-0.6-0.6-1.3-0.9-1.9c2.8-1.2,5.5-2.4,8.3-3.5
		C1985.8,262.2,1986.1,262.7,1986.4,263.2z"/>
	<path class="st0" d="M849,196.3c0.2-3.9,0.4-7.8,0.6-11.7c0.6,0,1.1,0.1,1.7,0.1c-0.4,3.9-0.8,7.8-1.2,11.7
		C849.8,196.4,849.4,196.4,849,196.3z"/>
	<path class="st0" d="M602.5,216.1c1.4,2.1,3,4.1,4.3,6.2c0.7,1.1,1,2.5,1.4,3.7c-1.4-0.1-3,0.2-4.1-0.4
		c-9.9-5.5-19.4-11.8-29.7-16.4c-8.7-4-18.2-6.2-27.4-9.2c-3-1-5.2-0.7-4,4.2c-7-7.6-15.3-3.9-23.3-5.2c0.1,1,0,1.5,0.2,2
		c0.1,0.5,0.3,0.9,0.7,1.9c-3.4,0-6.6,0-9.7,0c-0.1-0.3-0.2-0.7-0.2-1c1.4-0.4,2.7-0.8,4.1-1.3c-2.6-1.2-5.5-5.9-7.7,0.6
		c-0.1,0.4-3.5-0.2-5.3-0.6c-0.9-0.2-2.2-1.7-2.6-1.4c-2.7,1.9-5.9,0.3-8.2,0.9c-10.7,3-21.1,0.2-31.6,0.1
		c-9.2-0.1-18.4-0.4-27.5-0.3c-24.7,0.2-49.4,0.2-74.1,1c-26.4,0.9-52.9,2.7-79.3,4.1c-4,0.2-7.9,1.4-11.9,1.3
		c-3.3-0.1-6.6-1.5-9.9-2.2c-2.7-0.6-5.4-1.8-8.1-1.5c-6.6,0.7-12.4-0.9-17.5-4.5c14.7-12,31.4-19.9,48.8-26.7
		c30-11.7,60.3-22.6,91.7-29.4c13.7-3,28-3.6,42-4.9c2.5-0.2,6.3-0.8,7.1,3.6c0.1,0.5,2.3,0.9,3.5,0.7c7.2-0.7,14.1-1.2,21.5,0.6
		c7.9,2,16.4,1.7,25,3.3c-3.8,1.3-7.7,2.5-11.5,3.9c-1.4,0.5-2.9,1.2-4.1,2.2c-2.6,2.1-4.7,4.8-7.4,6.7c-2.4,1.7-5.3,2.6-8.4,4.1
		c8.6,2.5,16.4,2.4,24.4-0.1c3.5-1,7.6,0.1,11.4,0.2c2,0,4,0,6.4,0c-1.7-5.5,1.6-5.2,5.2-5.2c9.2,0.1,18.5-0.4,27.7,0.1
		c5.3,0.3,10.5,2.4,14.7,3.4c2.7-1.6,4.8-3.3,7.3-4.4c6.2-2.7,12.4-5.2,18.7-7.6c6.8-2.6,7.7-2,11.4,4c7.1,11.5,16.9,18.4,31.1,17.7
		c4.8-0.2,9.6,0.2,14.4,0.2c11.9,0,23.8-0.1,35.7,0.1c5.7,0.1,11.4,1.2,17,1.2c4.5,0,9.1-0.7,13.4-1.9c3.7-0.9,6.4-0.2,6.4,3.5
		c0.1,8.1,0.3,16.4-1.2,24.3c-1.8,9.3-4.1,18.3-3.1,27.9c0.3,2.8-1.3,5.7-1.8,8.6c-0.7,4.2-1,8.5-1.8,12.6c-0.8,4-2,7.9-3,11.8
		c-0.1,0.3-0.4,0.6-0.5,0.9c-0.8,7-1.5,14-2.4,21.1c-0.3,2.6-0.9,5.2-1.3,7.8c-1.2,7.6-2,15.2-3.5,22.7c-1.5,7.6-3.5,15.2-5.6,22.7
		c-0.4,1.3-2.1,2.2-3.3,3.2c-0.3,0.3-1.1,0.2-1.4,0.5c-1.7,1.6-3.2,3.3-4.9,5c-2.3-2.8-4.7-5.5-7-8.3c-0.9-1.1-1.6-2.7-2.7-3.5
		c-3.7-2.4-4.3-5.9-4.5-10c-0.2-4.1-1-8.2-2.1-12.1c-0.3-1.1-2.6-2.5-3.7-2.3c-9,1.8-14.3-3.4-12-12.4c1.3-5.3,3.3-10.5,5-15.7
		c1.5-4.6,2.9-9.2,4.5-13.8c3.9-11.1,1.7-21.7-2.2-32.2C623.2,224.1,612.8,216.5,602.5,216.1z"/>
	<path class="st0" d="M1375.5,290.1c-4.5,5.6-1.6,11.3-1.8,16.6c-0.2,4.2,0.5,8.4,3.3,12.1c0.5,0.7-1.3,3.2-2,4.9
		c-1.2-0.8-2.9-1.3-3.6-2.4c-1.3-2.1-2.7-4.5-2.8-6.8c-0.1-4.8-2.3-6.9-6.7-8.4c-6.5-2.1-12.7-5.2-19.2-7.3c-2.9-1-6.2-1.2-9.3-1
		c-14.8,0.9-29.5,2.2-44.3,3.2c-14.8,1-29.6,1.8-44.4,2.4c-5.2,0.2-8.7-5.7-8.3-11.9c0.4-5.5,3.4-10.9,0.5-16.8
		c-0.8-1.7,0.9-4.6,1.4-6.9c0.6-3,2-6.3,1.3-9.1c-1-4.1,1.1-4.5,3.7-4.7c8.5-0.5,16.9-1,25.4-1.2c12.7-0.3,25.3-0.4,38-0.3
		c1.5,0,3.1,1.8,5.7,3.5c-3.4,0.9-5.2,1.3-6.9,1.7c0,0.6,0,1.3,0,1.9c1.9,0.1,4.8,1.2,5.7,0.3c6.6-7.1,16.8-9.6,22.4-18.3
		c4.6-7.1,11.1-13,16-20c4.1-5.7,3.5-6.8-2-10.8c-0.7-0.5-1.9-1.3-1.8-1.5c2.8-6.3-4.5-8.1-5.8-12.6c-0.5-1.7-3.7-3.5-5.9-3.7
		c-4.4-0.5-9-0.4-13.5,0.1c-15,1.7-30,3.6-45.1,5.5c-8.4,1-16.9,2-25.3,2.9c-3,0.3-6.5,1.3-8.3-2.6c-0.2-0.4-0.7-0.7-1.1-0.9
		c-4.9-1.6-6.2-4.8-3.6-11.9c0.9,3.3,1.4,5.5,2.1,8.3c3.3-2,3.6-4,1.2-6.4c-2.9-2.9-4.7-6.2-3.2-10.3c1-2.6,2.7-4.9,4.1-7.4
		c-4-1.1-2.6-3.1-0.5-6c1.5-2,2-5,2.2-7.6c0.5-5.9,1.3-6.9,7.2-7.2c11-0.5,21.9-1.4,32.9-1.3c12.5,0.2,25,1.3,37.5,2
		c1.3,0.1,2.7,0,4,0.2c2.3,0.3,4.5,0.7,6.7,1.1c-1.5,2.8-3,5.5-4.6,8.4c-0.2,0,1,0.1,2,0c2.6-0.4,5.2-1,7.8-1.3
		c2.7-0.3,5.5-0.2,5.4-4.2c0-0.7,0.7-1.9,1.2-2c8.1-1.7,11.3-9.5,17.2-13.9c4.2-3.2,7.3-8,10.3-12.4c1.1-1.6,0.8-4.2,1.1-6.4
		c0.2-1.9,0.3-3.8,0.6-6.2c1.5,0.7,2.3,0.9,2.3,1.1c0.5,6,5.2,8.9,9,12.6c6.6,6.4,6.2,15.3,6.5,23.4c1.9,47.6,3.3,95.1,5,142.7
		c0.3,8.6,1,17.2,1.3,25.8c0.1,1.6-0.6,4.5-1.3,4.6c-1.7,0.3-4.5-0.1-5.3-1.3c-3.6-5.3-7-10.9-9.7-16.7
		C1378.2,301,1377.2,295.7,1375.5,290.1z"/>
	<path class="st0" d="M1034.5,142.9c2.2,5.3,0,9.3-2.6,13.2c-11.9,18-28.2,31.3-45.9,43.1c-4.1,2.7-8,6-12.4,8.1
		c-5,2.4-11-2.3-10.8-7.8c0.1-1.7,0-3.4,0.5-5c1.5-5,3.1-10,4.7-15c0.2-0.6,0.8-1.4,0.6-1.9c-2.9-8.3,4.7-14.8,3.7-23.2
		c-0.6-5.1,7.9-9.6,13.2-8.7c2.3,0.4,4.8-0.4,7.2-0.5c3.8-0.2,7.7-0.3,11.5-0.4c1,0,1.9,0.6,2.9,0.5
		C1016.2,144.8,1025.1,143.9,1034.5,142.9z"/>
	<path class="st0" d="M115.6,369.1c-4.2,7.9-11.5,11.7-19.5,14.6C100.8,376.4,109,373.8,115.6,369.1z"/>
	<path class="st0" d="M1045.2,77.9c1.8-1.3,3.5-2.6,5.3-4c0.5,0.7,1.5,2,1.4,2.1c-1.7,1.4-3.5,2.6-5.3,3.9
		C1046.1,79.2,1045.6,78.5,1045.2,77.9z"/>
	<path class="st0" d="M136.2,200.8c2.3-0.8,4.6-1.6,6.9-2.5c0.4,0.4,0.8,0.8,1.1,1.2c-2,1.7-4,3.4-6.9,5.9
		C136.8,203.2,136.5,201.9,136.2,200.8C136.2,200.7,136.2,200.8,136.2,200.8z"/>
	<path class="st0" d="M1121.3,125.1c0.3,2.1,0.5,4.1,0.8,6.2c-0.6,0.1-1.1,0.2-1.7,0.3c-0.5-2-1-4.1-1.5-6.1
		C1119.7,125.4,1120.5,125.3,1121.3,125.1z"/>
	<path class="st0" d="M395.2,362.7c3.7-2,7.4-4,11.1-6.1C403.7,360.8,399.8,362.4,395.2,362.7z"/>
	<path class="st0" d="M243.8,513.7c3.1,0,5.1,0,7.1,0C248.9,517.3,248.1,517.5,243.8,513.7z"/>
	<path class="st0" d="M2113.2,462.7c-2.8,2.4-3.7,7.1-8.5,5c-0.9-0.4-1.6-3.6-1.2-3.9C2106.1,461.8,2109.2,460.4,2113.2,462.7z"/>
</g>
<g>
	<path class="st0" d="M1154.5,458.2c6.2-0.9,7.4,4.2,8.9,8.1c1.1,3,2.9,4.3,5.7,5.4c3.5,1.4,7,3,9.9,5.3c1.2,1,4.7,2.1,2.6,5.8
		c-0.6,1.1,2.2,4.1,3.6,6.7c-1.1,0.8-2.2,1.6-3.4,2.5c1,1.7,2,3.5,3.1,5.4c-1.9,1.5-3.4,2.7-4,3.1c-3.9-0.4-6.8-0.8-9.7-0.9
		c-9-0.1-18,0.1-27-0.1c-1,0-2.8-1.7-2.8-2.6c-0.2-6.5-0.1-13.1-0.1-19.7c-0.7,0.3-1.5,0.5-2.2,0.8c-1.5-1.8-2.9-3.8-4.5-5.5
		c-2.2-2.5-4.5-4.8-7.3-7.7c-1.1,2.3-1.5,3.2-1.6,3.5c-8.3-1.5-16.1-3.1-24.1-4.3c-3.9-0.6-8.1-0.9-11.4,2.7
		c-0.8,0.9-3.4,0.6-5.1,0.3c-3.4-0.5-5.3,0.2-5.4,4.2c-0.1,8.4-0.4,16.9-0.9,25.3c-0.1,1.5-1.2,3-1.5,3.7c-5.8,0-10.8,0.1-15.8,0
		c-9.7-0.3-19.3-0.7-29-1c-0.6,0-1.4,0-1.9,0.4c-4.2,3.2-6.2,0.9-7.4-3.4c-1,1.6-1.7,2.8-2.3,3.9c-0.6-0.2-1.1-0.3-1.7-0.5
		c0.6-2.2,1.1-4.4,1.9-6.5c0.9-2.1,1.6-3.5,0-6.2c-1.6-2.5-1.1-6.6-0.9-9.9c0.6-8.3,2-16.6,2.3-24.9c0.3-7.5-0.5-15.1-0.4-22.7
		c0-2.3,1.2-4.6,1.7-6.8c16.8-5.3,34-3.7,51.4-3.9c0.4,1.7,0.8,3.4,1.2,5.1c1.8-6.1,6.5-5.4,10.9-5.4c14.4,0.2,28.8,0.1,43.2,0.7
		c12.3,0.5,24.8,0.4,36.8,4.2c3.6,1.1,7.2,2.4,10.5,4.2c6.4,3.4,7.6,9.5,3.6,15.7c-2.2,3.4-4.3,6.9-6.7,10.2c-0.7,1-2.1,1.8-3.2,2
		C1165.9,456.6,1160.2,457.3,1154.5,458.2z M1135.6,445.6c-2.9-2.9-4.8-5.2-7.1-6.9c-2.3-1.7-4.9-3.5-7.6-4.1c-4.3-0.8-9,0.1-13.2-1
		c-9.3-2.6-17.7,2-26.6,2.2c-4.3,0.1-9.1,1.5-9.5,7.7c-0.1,2.5,0.1,3.1,2.8,3c3.7-0.2,7.6-0.5,11.1,0.5c3.6,1.1,11.5,3.2,15.2,3.3
		c7.8,0.2,15.3-3.4,23.5-1.5C1127.7,449.7,1132.1,446.8,1135.6,445.6z"/>
	<path class="st0" d="M620.2,482.9c-1.3,0.3-2.6,0.5-5.5,1c2-3.6,3.4-6,5.1-8.9c-0.6-0.3-1.8-0.5-2.4-1.3c-0.5-0.7-0.9-2.4-0.5-2.8
		c4.2-4.4,4.2-4.3-1-7c2-1.7,4-3.4,6-5.1c-0.2-0.4-0.5-0.8-0.7-1.2c-1.6-0.1-3.1-0.2-4.7-0.3c0.4-5.5,6.8-11.4,12.2-11.7
		c-1.4-2.4-2.8-4.8-4.3-7.3c-0.4,2.5-0.8,4.8-1.2,7c-4.8-8-2.8-12,5.3-13.6c-1.1-1.4-2.3-2.8-3.5-4.1c1.8-1.3,3.3-3.4,5.3-3.8
		c10.7-2.3,21.5-4.2,32.2-6.1c2.5-0.4,5.2-0.8,5.2,3.2c0,0.5,1.6,1,3.4,2.1c-0.6-2.5-0.9-3.8-1.2-5.1c0.4-0.3,0.6-0.6,0.9-0.6
		c6.9-0.3,13.8-0.7,20.8-0.9c7-0.1,14-0.4,21,0.1c13.6,1.1,27.1,2.4,40.6,4.3c5.5,0.8,10.7,3.3,16.4,5.1c-1,0.9-1.6,1.5-2.3,2.1
		c3.2,5.1,5.4,10.2,6,16.5c0.7,6.7-1.6,12.9-1.4,19.3c0.1,1.9,0.8,3.8,1.4,6.2c-1.7,0-3,0-5.1,0c0.9,1.8,1.5,3.3,2.4,4.6
		c1.1,1.8,4.1,3.2,0.7,5.6c-0.1,0.1,1,1.7,1.6,2.8c-3,1.5-5.8,3-8.7,4.5c0,0.3,0.1,0.5,0.1,0.8c2.1-0.2,4.3-0.5,6.6-0.7
		c-1.7,7.9-7.7,9.5-13.6,10.9c-17.7,4.3-35.8,5.2-54,5.4c-20.2,0.1-40.3,0-60.2-4c-6.3-1.3-12.4-3.6-18.6-5.6
		c-3.2-1-5.4-2.6-3.7-6.6C621.3,486.5,620.5,484.8,620.2,482.9z M723,484.7c0.4,0.3,0.7,0.6,1.1,0.9c1.2-1,3.1-1.8,3.4-3
		c1.3-4.9,3.2-10.1,2.7-14.9c-0.4-3.9-0.3-7.4,0.2-11.3c0.5-3.9-0.7-7.9-1-10.7c-3.5-1.3-7.3-1.6-8.8-3.5c-3.2-4.4-7.7-6.2-12.3-8.2
		c-7.9-3.5-15.8-6.7-23.1,1.3c-0.4,0.4-1.2,0.5-1.8,0.6c-2.3,0.7-4.7,1.3-7.9,2.2c0.3,0.2-0.4-0.3-2.1-1.5c1,4.6,1.7,8.1,2.4,11.6
		c-4.4,0.5-4.8,1.8-5,7.5c-0.2,5-1.3,10.1-2,15.1c-0.5,0.6,0.1,1.3,0.7,2.1c1.9,2.5,3.3,6.3,5.8,7.4c4.2,1.7,7.9,4,11.6,6.4
		c5.6,3.8,18.5,2.9,23.7-1.6c3.5-3,7.3-6.1,12.7-5.2C723.2,481.9,723.1,483.3,723,484.7z M634,440.4c2.2-1.5,3.6-2.5,4.9-3.3
		c-1.9-1-3.8-2-5.8-3.1c-0.4,0.2-0.8,0.4-1.2,0.6C632.5,436.4,633.2,438.2,634,440.4z"/>
	<path class="st0" d="M1340.5,424.1c2.4,4.2,4.4,7.7,6.5,11.4c3.9-0.9,4.4,0.3,3.9,4.8c-0.4,3.5,0.8,7.2,1.7,10.7
		c0.2,0.7,2.4,0.8,4,1.2c-0.1,0.6-0.3,1.5-0.5,2.4c1.8,1.5,8.7,1.3,1.8,5.6c-0.5,0.3-0.2,3,0.4,4.2c1.6,3.1,3.9,5.9,5.4,9
		c2.2,4.7,4.1,9.5,5.9,14.4c0.2,0.6-1,1.8-1.7,3c1.1,0.2,2.3,0.4,4,0.7c-0.3,0.8-0.5,1.6-0.7,2.1c1.2,1.6,2.4,3.2,3.6,4.8
		c-2,1.2-3.9,3.3-5.9,3.4c-14.8,0.3-29.6,0.2-44.5,0c-2.7,0-5.4-1.3-8.2-2.1c-0.8-6.6-7.4-8.6-11.6-12.4c-4.5-4.1-5.7-2.5-13.1-2.9
		c-4.4-0.2-9.2,2.4-13.6-0.8c-0.7-0.5-2.5,0.3-3.7,0.8c-2.2,0.8-4.3,1.8-6.7,2.7c-1.5,1.7-3.4,3.6-5,5.8c-2.3,3.2-2.9,7.5-9.4,5.4
		c-4.4-1.4-10.1,1.8-15.3,2.4c-5.7,0.6-11.4,0.7-17.1,0.9c-6.3,0.2-12.6,0.1-18.9,0.1c-0.9,0-1.9-0.4-3.4-0.7c0.6-1.9,1-3.5,1.4-4.8
		c2.6,1.3,4.8,2.5,7.1,3.7c0.3-0.5,0.6-0.9,0.9-1.4c-1.8-1.9-3.6-3.8-5.3-5.7c3.4-1.8,6.9-3.6,10.7-5.6c-0.7-1.3-1.5-3-2.8-5.3
		c3.9-1.1,7.4-2.1,10.8-3.1c-0.6-1.7-1.7-2.1-5.5-2c-2,0.1-4-0.8-5.9-2.3c3.2,2.6,4.4,0.1,6.3-1.7c2-1.9,4.5-3.3,7.1-5.2
		c-1.8-2.1-2.1-4.6,1-7c1.1-0.8,1.8-3,1.7-4.5c-0.3-5,1.3-8.8,6.6-10.9c-1.2-1.3-1.9-2.2-2.7-3.1c0.1-0.4,0.2-0.7,0.2-0.7
		c4.5,0.9,4.3-4,6.9-5.6c0.9-0.6,1.9-2.2,1.8-3.2c-0.7-6.4,4.8-8.6,8.2-12c0.7-0.7,3.4,0.6,5.5,1.1c2.5-4.5,7.7-1.7,12-2.6
		c6.6-1.3,12.9,2.9,19.8,0.5c4.2-1.4,9.1-1.1,13.6-1c2.6,0.1,5.2,1.3,7.8,1.9c0.6,0.2,1.7,0.6,1.9,0.3c3.7-4.5,8.3-0.1,12.6-1.2
		c3.7-0.9,8.1,0.7,12.5,1.3c0.1-0.2,0.7-1.2,1.3-2.1c0.8,1.2,1.6,2.4,2.5,3.8c6.9-0.8,6.9-0.8,8,2.9
		C1343.5,425.2,1342.3,424.8,1340.5,424.1z M1291.7,439.4c-3.1,0.8-6.4,1.8-9.8,2.4c-3.7,0.6-8.8,5.2-9.4,9
		c-0.8,4.4-1.6,8.8-2.5,13.1c-0.9,4.5,3.8,9.8,7.8,9.2c5.9-0.8,11.8-1.1,17.7-1.4c2.2-0.1,4.5,0,7.3,0c-2.1-8.7-2.9-16.6-0.1-24.5
		c-0.4-0.1-0.8-0.2-1.2-0.3c-1,2.6-2.1,5.2-3.1,7.8C1297.2,449.1,1296.8,443.2,1291.7,439.4z"/>
	<path class="st0" d="M1513.6,495.9c-29.1,12.4-60,9-90.9,3.2c-3.6-0.7-7.3-1.9-9.9-5.3c-1.2-1.6-3.7-2.3-5-3.7
		c-2.1-2.9-4.7-5.5-6.2-8.7c-2.2-4.4-4.2-9.1-5-13.9c-0.3-2.2,2.5-4.9,4.5-8.3c-0.5-0.2-2-0.8-4.6-1.9c-0.2-1.7-0.5-5-0.8-8.4
		c-0.8-13.9,4-20.8,17.7-25c17.7-5.4,35.9-7.3,54.2-7.4c15.8-0.1,31.7,0,47.4,1.2c11.4,0.9,22.6,3.7,33.9,5.7c3.9,0.7,5.9,2.8,5,7
		c-0.2,0.8-0.3,2,0.1,2.3c4.8,3.5-0.1,8.6,2,12.5c0.1,0.2-1.1,1.7-1.8,1.8c-4.4,0.6-9.4,2.3-13.2,1c-7.2-2.6-13.6,1.4-20.4,0.5
		c-3.7-0.5-7.3-1.9-10.9-2.7c-0.6-0.1-1.5,0.6-2,0.4c-1.6-0.6-4.5-1.5-4.5-2.1c0.5-5.4-1.9-5.2-5.6-3.4c-0.7,0.4-1.9-0.1-2.8-0.1
		c0-6.9-1.4-9.1-8.3-9.5c-5.5-0.3-11.4,0.1-16.6,1.8c-4.4,1.4-7.2,0.9-10.4-2.9c1.3,4-0.2,5.6-3.5,6.1c-2.6,0.5-5.6,0.6-7.7,2
		c-1.9,1.3-3.9,4-4.1,6.2c-0.9,7.9-0.8,15.9-1.8,23.8c-0.7,5-1.2,9.8-0.1,14.8c0.8,3.7,6,9.1,9.9,8.8c4.8-0.3,9.6-1.2,14.5-1.8
		c0-0.1-0.1,0.9-0.3,3.7c2.2-2.1,3.5-3.3,4.9-4.6c9.1,1.1,18.4,1.2,27.5-1.7c1-0.3,2.2-1.5,2.6-2.5c1.5-3.7,2.7-7.5,4.4-12.2
		c-2.6-3-7.5-3.3-12.3-3.8c-1.8-0.2-3.7,0-5.5,0c-6.2,0.1-8.3-2.5-6.7-8.5c0.2-0.6,0.6-1.6,0.9-1.6c2.5,0,6,1.3,7.4,0.2
		c2.2-1.8,3.1-3.4,5.1-0.2c0.4,0.6,1.7,0.9,2.6,0.9c2.9,0,5.9-0.1,8.8-0.4c0.7-0.1,1.3-1.4,1.9-2.1c3.4,1.5,6.5,3,9.7,4.4
		c2.6-5.4,6.7-1.8,10-2.2c4.6-0.5,9.3-0.5,13.9-0.7c0.1-0.5,0.2-0.9,0.3-1.4c0.7,1.2,1.3,2.3,2.2,3.9c1.4-1.1,2.4-1.9,3-2.4
		c2.6,0.9,4.9,1.6,7,2.5c0.9,0.4,2.1,1.4,2.1,2.2c0.3,4.9,0.4,9.9,0.6,14.8c0.1,2.3,0.5,4.6,0.2,6.9c-0.2,1.5-1.2,2.8-2,4.6
		c0,2.7,0.3,6.1-0.2,9.5c-0.2,1-2.6,2.4-4,2.5c-8.8,0.2-17.7,0.6-26.5-0.1C1521,501.3,1517.9,498.3,1513.6,495.9z"/>
	<path class="st0" d="M1597.7,418.5c8.7,0,16.5,0,24.3,0c11.3,0,22.6,0.1,33.9,0.3c2.4,0,4.8,0.8,7.1,1.2c0.4,0.1,1,0.5,1.2,0.3
		c3.5-3.6,6.6-0.9,9.7,0.7c1.3,0.7,2.8,0.9,4.5,1.5c-0.2,1.4-0.4,2.8-0.7,4.5c2.4-1.1,4.5-1.9,7.4-3.2c-1.1-1.7-2.2-3.2-3.4-5.1
		c7.6,0,15.6-0.1,23.6,0.2c1,0,2.5,2.2,2.7,3.6c0.4,2.2-0.4,4.6-0.2,6.8c0.2,3.3-0.7,5.8-4.2,6.1c-2.9,0.3-5.9,0.3-8.9,0.1
		c-7.4-0.5-14.8-1.1-22.1-2.1c-1.1-0.2-1.9-2.9-2.8-4.4c-0.3-0.6-0.4-1.3-0.8-2.5c-1.9,2.1-3.3,3.8-4.8,5.4
		c-1.7,1.9-2.9,3.6-6.6,2.4c-2.6-0.8-6.7,1.1-9.3,3.1c-3.2,2.4-2.1,7.3,2.1,10.2c2.5,0.5,4.9,1,7.4,1.5c-0.1,0.3-0.1,0.6-0.2,1
		c4.5,0,9-0.1,13.5,0c10.2,0.3,20.5,0.7,30.7,0.9c4.7,0.1,6.4,1.6,6.1,6.2c-0.1,1.3-0.3,2.6-0.2,3.8c0.5,4.1-1.2,6.2-5.4,6.2
		c-8.3,0-16.7-0.2-25,0.1c-2.5,0.1-4.9,1.5-7,3.1c-4.3,0-8.6,0-13.5,0c1.3,2.9,2.5,5.6,3.7,8.4c-0.6,0.5-1.2,1.1-1.8,1.6
		c-0.8-1.5-1.6-2.9-2.4-4.5c-4.7,0.6-5.3,3.1-3.1,7.4c0.7-1.4,1.2-2.4,2.5-4.8c1.6,2.6,2.9,4.7,4.2,6.8c4.4-5.7,6.8-5.8,12-1.6
		c0.9,0.8,2.4,1.5,3.5,1.4c5.9-0.8,11.6,2.2,17.9,0.3c3.4-1,8.3,1.2,12,3c2.9,1.5,2.7,7.6,0.3,13.7c-16.5,0-33.1,0-49.8,0
		c-15.3,0-30.6,0-46,0c-2.1,0-4.3-0.5-6.4-0.8c-3.7-0.5-4.9-2-4.6-6.3c0.5-6.4-1-12.9-1.4-19.3c-0.1-2.6,1-5.2,0.9-7.7
		c-0.3-5-1.1-10.1-1.5-15.1c-0.1-0.8,0.9-1.7,1-2.5c0.1-1.2,0-2.4-0.2-3.6c0-0.5-0.6-1-0.5-1.3c2.3-5-2.1-10.8,2.1-15.6
		c0.5-0.6,0.4-2.5-0.2-3c-2.9-2.9-3-2.8,0.6-4.4c-0.3-0.4-0.5-0.8-0.8-1.2C1598.7,420.4,1598.5,420,1597.7,418.5z"/>
	<path class="st0" d="M917.6,450.7c-0.3,6.7,4.4,5.3,8.1,6.6c0-2.4,0-4.1,0-6.1c1.7,0,3.3,0,5.7,0c-0.3,5.2-0.5,10.2-0.8,15.7
		c-10.8,0-21.1,0.1-31.4-0.1c-1.4,0-2.8-1.7-3.6-2.2c-4.3,1.3-8.2,2.7-12.2,3.8c-3.8,1.1-7.7,1.9-11.5,2.8c-3.5,0.8-4.9,3.4-5,6.6
		c-0.2,6.1-0.2,12.2-0.1,18.3c0.1,4.6-2.2,6.1-6.5,5.9c-4.6-0.3-9.2-0.1-13.8-0.5c-3.7-0.4-7.1-1.5-11.2,0c-2.1,0.7-5.6-2.6-7.6-3.7
		c-2.4,1-4.4,2.7-5.8,2.3c-1.8-0.6-3-2.9-5-5.1c-0.1,0-1.6,0.1-3.1,0.2c0.7-1.2,1.5-2.4,1.9-3.7c0.4-1.1,0.4-2.3,0.3-3.4
		c-0.7-8.4-1.5-16.9-2.1-25.3c-0.1-1.2,0.6-2.5,2-3.6c-1.5-4.9-2.9-9.8-4.5-14.8c1.1,0.3,2.1,0.5,3.1,0.8c0.2-0.5,0.5-0.8,0.5-1.1
		c-0.7-3.2-4.8-5.9-1.5-9.8c0.2-0.2-1.2-1.7-1.8-2.4c1.7-0.8,3.2-1.5,3.6-1.7c0-4.2,0-7.5,0-11.3c14.6,0,29-0.1,43.3,0.1
		c5.6,0.1,11.1,1.2,16.7,1.2c6.1,0,12.3-1,18.4-1.1c10-0.2,20-0.3,30,0.1c3.9,0.2,7.7,1.8,11.5,2.8c-2.2,3.5-3.6,5.8-5.2,8.3
		c1,0.1,1.8,0.2,2.6,0.2c0.2,0.3,0.4,0.7,0.6,1c-1.3,0.8-2.6,1.6-4,2.5c0.1,0.1,0.9,0.8,2.8,2.4c-4.4-1.1-8.7,1.9-10.1-3.9
		c-2.6,4.2-6.1,4.8-9.8,2c-0.7-0.5-1.9-0.7-2.7-0.5c-5,0.7-9.9,2.3-14.8-0.2c-0.6-0.3-1.8,0.5-2.7,0.7c-1.8,0.4-3.6,0.7-6.7,1.2
		c-1.6,2.8-4.9,2.7-9.1,0.7c-2.1-1-5.1-0.2-8.3-0.2c1.2,2.2,2.5,4.7,4.2,8.1c-3.5-1.3-6.8-2.5-10.6-3.9c-0.3,0.4-1,1.4-1.7,2.4
		c0.4,0.5,0.6,0.9,0.9,0.9c3.5,0.2,4.6,2.2,4.7,5.4c0,0.8,2.2,2.5,3,2.2c5.6-1.8,10.4-1.6,13.9,5.5c1.2-5.1,3-6,7.1-4.5
		c4.7,1.7,10,2,15,2.7c0.7,0.1,1.4-0.7,2.2-0.8c1.2-0.3,2.6-0.3,3.8-0.7C912.5,452.6,914.8,451.7,917.6,450.7z M862,490.1
		c-0.6-0.3-1.3-0.5-1.9-0.8c-1.3,3-2.7,6-4.3,9.7c3,0.2,4.6,0.3,6.2,0.3C862,496,862,493,862,490.1z"/>
	<path class="st0" d="M1225.3,454c-1.3,2-2.5,4.1-3.9,6c-0.1,0.2-1.9-0.4-2.2-0.9c-0.3-0.6-0.2-2.1,0.3-2.5c1.4-1.2,3-2.1,4.6-3.1
		C1224.4,453.6,1224.9,453.8,1225.3,454z"/>
	<path class="st0" d="M634,440.4c-0.8-2.2-1.5-4-2.1-5.8c0.4-0.2,0.8-0.4,1.2-0.6c2,1,3.9,2.1,5.8,3.1
		C637.6,437.9,636.2,438.9,634,440.4z"/>
	<path class="st0" d="M862,490.1c0,2.9,0,5.9,0,9.2c-1.6-0.1-3.2-0.2-6.2-0.3c1.6-3.7,3-6.7,4.3-9.7
		C860.7,489.6,861.4,489.8,862,490.1z"/>
</g>
</svg>
