<?xml version="1.0" encoding="utf-8"?>
<!-- Generator: Adobe Illustrator 19.0.0, SVG Export Plug-In . SVG Version: 6.00 Build 0)  -->
<svg version="1.1" id="Layer_1" xmlns="http://www.w3.org/2000/svg" xmlns:xlink="http://www.w3.org/1999/xlink" x="0px" y="0px"
	 viewBox="14.5 278.3 616 143.5" style="enable-background:new 14.5 278.3 616 143.5;" xml:space="preserve">
<style type="text/css">
	.st0{clip-path:url(#SVGID_2_);}
	.st1{fill:#FFFFFF;}
	.st2{fill:none;stroke:#FFFFFF;stroke-width:4;stroke-miterlimit:10;}
	.st3{fill:#F8F8F8;}
</style>
<g>
	<defs>
		<polyline id="SVGID_1_" points="636.3,520 636.3,273.3 8,273.3 8,520 		"/>
	</defs>
	<clipPath id="SVGID_2_">
		<use xlink:href="#SVGID_1_"  style="overflow:visible;"/>
	</clipPath>
	<g transform="matrix(2.5954603 0 0 -2.5954603 -82.94572 703.6703)" class="st0">
		<path class="st1" d="M114.1,161.1c-1-0.4-1.8-1-2.6-1.7c-0.7-0.7-1.3-1.6-1.7-2.6c-0.1-0.2,0-0.4,0.2-0.5c0.2-0.1,0.4,0,0.5,0.2
			c0.4,0.9,0.9,1.6,1.6,2.3c0.7,0.7,1.5,1.2,2.3,1.6c0.2,0.1,0.3,0.3,0.2,0.5C114.5,161.1,114.3,161.2,114.1,161.1"/>
		<path class="st1" d="M132.9,161.1c-1-0.4-1.8-1-2.6-1.7c-0.7-0.7-1.3-1.6-1.7-2.6c-0.1-0.2,0-0.4,0.2-0.5c0.2-0.1,0.4,0,0.5,0.2
			c0.4,0.9,0.9,1.6,1.6,2.3c0.7,0.7,1.5,1.2,2.3,1.6c0.2,0.1,0.3,0.3,0.2,0.5C133.3,161.1,133.1,161.2,132.9,161.1"/>
		<path class="st1" d="M151.7,161.1c-1-0.4-1.8-1-2.6-1.7c-0.7-0.7-1.3-1.6-1.7-2.6c-0.1-0.2,0-0.4,0.2-0.5c0.2-0.1,0.4,0,0.5,0.2
			c0.4,0.9,0.9,1.6,1.6,2.3c0.7,0.7,1.5,1.2,2.3,1.6c0.2,0.1,0.3,0.3,0.2,0.5C152.1,161.1,151.9,161.2,151.7,161.1"/>
		<path class="st1" d="M170.5,161.1c-1-0.4-1.8-1-2.6-1.7c-0.7-0.7-1.3-1.6-1.7-2.6c-0.1-0.2,0-0.4,0.2-0.5c0.2-0.1,0.4,0,0.5,0.2
			c0.4,0.9,0.9,1.6,1.6,2.3c0.7,0.7,1.5,1.2,2.3,1.6c0.2,0.1,0.3,0.3,0.2,0.5C170.9,161.1,170.7,161.2,170.5,161.1"/>
		<path class="st1" d="M189.3,161.1c-1-0.4-1.8-1-2.6-1.7c-0.7-0.7-1.3-1.6-1.7-2.6c-0.1-0.2,0-0.4,0.2-0.5c0.2-0.1,0.4,0,0.5,0.2
			c0.4,0.9,0.9,1.6,1.6,2.3c0.7,0.7,1.5,1.2,2.3,1.6c0.2,0.1,0.3,0.3,0.2,0.5C189.7,161.1,189.5,161.2,189.3,161.1"/>
		<path class="st2" d="M185.1,142.2c-1.6,0-3.2-0.6-4.3-1.8c-1.2-1.2-1.8-2.7-1.8-4.3v-6.5c0-0.7-0.5-1.2-1.2-1.2
			c-0.7,0-1.2,0.5-1.2,1.2v6.5c0,3.4-2.8,6.1-6.1,6.1c-1.6,0-3-0.6-4.1-1.6c-1.1,1-2.5,1.6-4.1,1.6h-14.7c-1.8,0-3.4-0.8-4.5-2
			c-1.1,1.1-2.5,1.8-4,2c-1.6,0.1-3.2-0.4-4.5-1.5c0,0-2.7-2.3-5.4-4.6c0,3.4-2.8,6.1-6.1,6.1c-1.6,0-3-0.6-4.1-1.6
			c-1.1,1-2.5,1.6-4.1,1.6c-3.4,0-6.1-2.8-6.1-6.1v-2.7c-2.8,3.3-5.5,6.6-5.5,6.6c-1.6,2-4.4,2.7-6.8,1.8c-1.9-0.7-3.4-2.3-3.9-4.3
			c-2.9,2.9-6.9,4.6-11.2,4.6c-4.7,0-9-2.1-11.9-5.4c-0.3,2.2-1.8,4.1-3.8,4.9c-2.3,0.9-5.1,0.3-6.7-1.6l0,0c0,0-2.5-2.8-4.5-4.9
			c-2,2.1-4.5,4.9-4.5,4.9c-1.7,1.8-4.4,2.5-6.7,1.6c-2.3-0.9-3.9-3.2-3.9-5.7v-19.6c0-1.6,0.6-3.2,1.8-4.3c1.2-1.2,2.7-1.8,4.3-1.8
			c1.6,0,3.2,0.6,4.3,1.8c1.2,1.2,1.8,2.7,1.8,4.3v4.5c0.9-0.5,1.8-0.8,2.9-0.8c1,0,2,0.3,2.9,0.8v-4.5c0-1.6,0.6-3.2,1.8-4.3
			c1.2-1.2,2.7-1.8,4.3-1.8c1.6,0,3.2,0.6,4.3,1.8c1,1,1.6,2.2,1.7,3.6c2.9-3.3,7.2-5.4,11.9-5.4c4.4,0,8.3,1.8,11.2,4.6
			c0.3-1.1,0.8-2,1.6-2.8c1.2-1.2,2.7-1.8,4.3-1.8c1.6,0,3.2,0.6,4.3,1.8c1.2,1.2,1.8,2.7,1.8,4.3v2.7c2.8-3.3,5.5-6.6,5.5-6.6
			c1.6-2,4.4-2.7,6.8-1.8c0.8,0.3,1.4,0.7,2,1.2c1.1-1,2.6-1.6,4.1-1.6c1.6,0,3.2,0.6,4.3,1.8c1.2,1.2,1.8,2.7,1.8,4.3v0.3
			c3.1-2.5,6.4-5.1,6.4-5.1c2.4-1.9,5.7-1.7,7.9,0.2c1.1-1,2.6-1.6,4.1-1.6H163c1.6,0,3.2,0.6,4.3,1.8c1.2,1.2,1.8,2.7,1.8,4.3
			c0,2.2-1.3,4.1-3.1,5.2c0.1,0.1,0.3,0.2,0.4,0.3c0,0,0.1,0.1,0.1,0.1c1.3-1.8,3-3.2,5-4.3v-1.3c0-1.6,0.6-3.2,1.8-4.3
			c1.2-1.2,2.7-1.8,4.3-1.8c1.6,0,3.2,0.6,4.3,1.8c1.2,1.2,1.8,2.7,1.8,4.3v1.3c4.4,2.3,7.4,6.7,7.4,11.8v6.5
			C191.2,139.5,188.5,142.2,185.1,142.2z M81.3,122.6c-2,0-3.7,1.7-3.7,3.7c0,2,1.7,3.7,3.7,3.7c2,0,3.7-1.7,3.7-3.7
			C85,124.2,83.3,122.6,81.3,122.6z M136.7,126.4c1.6,1.4,3.5,3,4.7,4v-7.8C140,123.7,138.2,125.2,136.7,126.4z"/>
		<path class="st2" d="M266.9,122.6c-0.7,0-1.2,0.5-1.2,1.2v12.3c0,3.4-2.8,6.1-6.1,6.1c-1.6,0-3.2-0.6-4.3-1.8
			c-1.2-1.2-1.8-2.7-1.8-4.3v-12.3c0-0.5,0-0.9,0.1-1.4c-0.4,0.1-0.9,0.1-1.3,0.1c-0.7,0-1.2,0.5-1.2,1.2v12.3
			c0,3.4-2.8,6.1-6.1,6.1c-1.6,0-3.2-0.6-4.3-1.8c-0.7-0.7-1.2-1.5-1.5-2.4c-2.5,2.6-5.9,4.2-9.7,4.2c-4.8,0-8.9-2.5-11.3-6.2
			c-1.8,3.7-5.6,6.2-9.9,6.2h-9.8c-1.6,0-3.2-0.6-4.3-1.8c-1.2-1.2-1.8-2.7-1.8-4.3v-19.6c0-1.6,0.6-3.2,1.8-4.3
			c1.2-1.2,2.7-1.8,4.3-1.8h10.6c3,0,5.7,1.2,7.7,3.2c0.3-0.5,0.6-1,1-1.4c1.2-1.2,2.7-1.8,4.3-1.8c1.6,0,3.2,0.6,4.3,1.8
			c1.2,1.2,1.8,2.7,1.8,4.3v3.7h2.5v-3.7c0-1.6,0.6-3.2,1.8-4.3c1.2-1.2,2.7-1.8,4.3-1.8c1.6,0,3.2,0.6,4.3,1.8
			c0.7,0.7,1.2,1.5,1.5,2.4c2.5-2.6,5.9-4.2,9.7-4.2c1.6,0,3.2,0.6,4.3,1.8c0.5,0.5,0.9,1.1,1.2,1.8c2.4-2.2,5.6-3.6,9.1-3.6
			c1.6,0,3.2,0.6,4.3,1.8c1.2,1.2,1.8,2.7,1.8,4.3C273,119.8,270.2,122.6,266.9,122.6z"/>
		<path class="st1" d="M120.2,162.2C120.2,162.2,120.1,162.2,120.2,162.2c-0.2,0.1-0.4,0.1-0.5,0.2c0,0,0,0-0.1,0
			c-0.2,0-0.4,0.1-0.6,0.1c0,0,0,0,0,0c-0.2,0-0.3,0.1-0.5,0.1c0,0-0.1,0-0.1,0c-0.1,0-0.3,0-0.4,0c-0.1,0-0.1,0-0.2,0
			c-0.2,0-0.4,0-0.6,0c-0.2,0-0.4,0-0.6,0c-0.1,0-0.1,0-0.2,0c-0.1,0-0.3,0-0.4,0c0,0-0.1,0-0.1,0c-0.2,0-0.3-0.1-0.5-0.1
			c0,0,0,0,0,0c-0.2,0-0.4-0.1-0.6-0.1c0,0,0,0-0.1,0c-0.2,0-0.3-0.1-0.5-0.2c0,0,0,0,0,0c-3.5-1.2-6.1-4.6-6.1-8.5c0-5,4-9,9-9
			c5,0,9,4,9,9C126.2,157.6,123.7,160.9,120.2,162.2z M118.4,147.8h-5.8v2.9h5.8c0.4,0,0.8,0.3,0.8,0.7c0,0.4-0.3,0.7-0.8,0.7h-2.3
			c-2.1,0-3.9,1.6-3.9,3.6c0,2,1.7,3.6,3.9,3.6h5.4v-2.9h-5.4c-0.4,0-0.8-0.3-0.8-0.7c0-0.4,0.3-0.7,0.8-0.7h2.3
			c2.1,0,3.9-1.6,3.9-3.6C122.3,149.5,120.6,147.8,118.4,147.8z"/>
		<g>
			<path class="st1" d="M193.8,156.6h-3.1v-1.5h3.1c0.4,0,0.8,0.3,0.8,0.7C194.5,156.2,194.2,156.6,193.8,156.6z"/>
			<path class="st1" d="M195.4,162.2C195.4,162.2,195.4,162.2,195.4,162.2c-0.2,0.1-0.4,0.1-0.5,0.2c0,0,0,0-0.1,0
				c-0.2,0-0.4,0.1-0.6,0.1c0,0,0,0,0,0c-0.2,0-0.3,0.1-0.5,0.1c0,0-0.1,0-0.1,0c-0.1,0-0.3,0-0.4,0c-0.1,0-0.1,0-0.2,0
				c-0.2,0-0.4,0-0.6,0c-0.2,0-0.4,0-0.6,0c-0.1,0-0.1,0-0.2,0c-0.1,0-0.3,0-0.4,0c0,0-0.1,0-0.1,0c-0.2,0-0.3-0.1-0.5-0.1
				c0,0,0,0,0,0c-0.2,0-0.4-0.1-0.6-0.1c0,0,0,0-0.1,0c-0.2,0-0.3-0.1-0.5-0.2c0,0,0,0,0,0c-3.5-1.2-6.1-4.6-6.1-8.5c0-5,4-9,9-9
				c5,0,9,4,9,9C201.5,157.6,198.9,160.9,195.4,162.2z M197.6,147.8h-3.1l-2.3,4.4h-1.6v-4.4h-3.1V158c0,0.8,0.7,1.5,1.6,1.5h4.7
				c2.1,0,3.9-1.6,3.9-3.6c0-1.5-1-2.8-2.5-3.4L197.6,147.8z"/>
		</g>
		<path class="st1" d="M139,162.2C139,162.2,138.9,162.2,139,162.2c-0.2,0.1-0.4,0.1-0.5,0.2c0,0,0,0-0.1,0c-0.2,0-0.4,0.1-0.6,0.1
			c0,0,0,0,0,0c-0.2,0-0.3,0.1-0.5,0.1c0,0-0.1,0-0.1,0c-0.1,0-0.3,0-0.4,0c-0.1,0-0.1,0-0.2,0c-0.2,0-0.4,0-0.6,0s-0.4,0-0.6,0
			c-0.1,0-0.1,0-0.2,0c-0.1,0-0.3,0-0.4,0c0,0-0.1,0-0.1,0c-0.2,0-0.4-0.1-0.5-0.1c0,0,0,0,0,0c-0.2,0-0.4-0.1-0.6-0.1c0,0,0,0,0,0
			c-0.2,0-0.3-0.1-0.5-0.2c0,0,0,0,0,0c-3.5-1.2-6.1-4.6-6.1-8.5c0-5,4-9,9-9c5,0,9,4,9,9C145,157.6,142.5,160.9,139,162.2z
			 M140.7,152.1c0-2.4-2.1-4.4-4.7-4.4c-2.6,0-4.7,2-4.7,4.4v7.3h3.1v-7.3c0-0.8,0.7-1.5,1.6-1.5c0.9,0,1.6,0.7,1.6,1.5v7.3h3.1
			V152.1z"/>
		<g>
			<path class="st1" d="M156.4,156.6h-3.1v-1.5h3.1c0.4,0,0.8,0.3,0.8,0.7C157.2,156.2,156.9,156.6,156.4,156.6z"/>
			<path class="st1" d="M157.8,162.2C157.8,162.2,157.7,162.2,157.8,162.2c-0.2,0.1-0.4,0.1-0.5,0.2c0,0,0,0,0,0
				c-0.2,0-0.4,0.1-0.6,0.1c0,0,0,0,0,0c-0.2,0-0.3,0.1-0.5,0.1c0,0-0.1,0-0.1,0c-0.1,0-0.3,0-0.4,0c-0.1,0-0.1,0-0.2,0
				c-0.2,0-0.4,0-0.6,0c-0.2,0-0.4,0-0.6,0c-0.1,0-0.1,0-0.2,0c-0.1,0-0.3,0-0.4,0c0,0-0.1,0-0.1,0c-0.2,0-0.3-0.1-0.5-0.1
				c0,0,0,0,0,0c-0.2,0-0.4-0.1-0.6-0.1c0,0,0,0,0,0c-0.2,0-0.3-0.1-0.5-0.2c0,0,0,0,0,0c-3.5-1.2-6.1-4.6-6.1-8.5c0-5,4-9,9-9
				c5,0,9,4,9,9C163.8,157.6,161.3,160.9,157.8,162.2z M156.4,152.2h-3.1v-4.4h-3.1V158c0,0.8,0.7,1.5,1.6,1.5h4.7
				c2.1,0,3.9-1.6,3.9-3.6C160.3,153.8,158.6,152.2,156.4,152.2z"/>
		</g>
		<path class="st1" d="M176.6,162.2C176.6,162.2,176.6,162.2,176.6,162.2c-0.2,0.1-0.4,0.1-0.5,0.2c0,0,0,0-0.1,0
			c-0.2,0-0.4,0.1-0.6,0.1c0,0,0,0,0,0c-0.2,0-0.3,0.1-0.5,0.1c0,0-0.1,0-0.1,0c-0.1,0-0.3,0-0.4,0c-0.1,0-0.1,0-0.2,0
			c-0.2,0-0.4,0-0.6,0c-0.2,0-0.4,0-0.6,0c-0.1,0-0.1,0-0.2,0c-0.1,0-0.3,0-0.4,0c0,0-0.1,0-0.1,0c-0.2,0-0.3-0.1-0.5-0.1
			c0,0,0,0,0,0c-0.2,0-0.4-0.1-0.5-0.1c0,0,0,0-0.1,0c-0.2,0-0.3-0.1-0.5-0.1c0,0,0,0,0,0c-3.5-1.2-6.1-4.6-6.1-8.5c0-5,4-9,9-9
			c5,0,9,4,9,9C182.7,157.6,180.1,160.9,176.6,162.2z M178.1,156.6h-5c-0.9,0-1.6-0.7-1.6-1.5h6.6v-2.9h-6.6c0-0.8,0.7-1.5,1.6-1.5
			h5v-2.9h-5c-2.6,0-4.7,2-4.7,4.4v2.9c0,2.4,2.1,4.4,4.7,4.4h5V156.6z"/>
		<path class="st1" d="M214.8,128.1c0.8,1.3,1.4,2.7,1.4,4.3c0,4.5-3.7,8.2-8.2,8.2h-9.8c-1.8,0-3.3-1.5-3.3-3.3v-19.6
			c0-1.8,1.5-3.3,3.3-3.3h10.6c4.5,0,8.2,3.7,8.2,8.2C217,124.7,216.1,126.6,214.8,128.1z M208,130.8h-6.5v3.3h6.5
			c0.9,0,1.6-0.7,1.6-1.6S208.9,130.8,208,130.8z M201.5,124.2h7.4c0.9,0,1.6-0.7,1.6-1.6c0-0.9-0.7-1.6-1.6-1.6h-7.4V124.2z"/>
		<path class="st1" d="M64.5,140.3c-1.3,0.5-2.7,0.2-3.6-0.8c0,0-4-4.4-6.6-7.2c-2.6,2.8-6.6,7.2-6.6,7.2c-0.9,1-2.3,1.3-3.6,0.8
			c-1.3-0.5-2.1-1.7-2.1-3v-19.6c0-1.8,1.5-3.3,3.3-3.3c1.8,0,3.3,1.5,3.3,3.3v11.2c1.5-1.7,3.3-3.6,3.3-3.6
			c0.6-0.7,1.5-1.1,2.4-1.1c0.9,0,1.8,0.4,2.4,1.1c0,0,1.8,1.9,3.3,3.6v-11.2c0-1.8,1.5-3.3,3.3-3.3c1.8,0,3.3,1.5,3.3,3.3v19.6
			C66.6,138.6,65.7,139.9,64.5,140.3z"/>
		<path class="st1" d="M81.3,140.6c-7.2,0-13.1-5.9-13.1-13.1c0-7.2,5.9-13.1,13.1-13.1c7.2,0,13.1,5.9,13.1,13.1
			C94.4,134.7,88.5,140.6,81.3,140.6z M81.3,120.9c-3.6,0-6.5,2.9-6.5,6.5c0,3.6,2.9,6.5,6.5,6.5c3.6,0,6.5-2.9,6.5-6.5
			C87.8,123.9,84.9,120.9,81.3,120.9z"/>
		<path class="st1" d="M163,120.9h-12.3v3.3h11.4c1.8,0,3.3,1.5,3.3,3.3c0,1.8-1.5,3.3-3.3,3.3h-11.4v3.3h11.4
			c1.8,0,3.3,1.5,3.3,3.3s-1.5,3.3-3.3,3.3h-14.7c-1.8,0-3.3-1.5-3.3-3.3v-19.6c0-1.8,1.5-3.3,3.3-3.3H163c1.8,0,3.3,1.5,3.3,3.3
			C166.3,119.5,164.8,120.9,163,120.9z"/>
		<path class="st1" d="M114.8,140.6c-1.8,0-3.3-1.5-3.3-3.3v-10.6c-4.8,5.8-10.6,12.7-10.6,12.7c-0.9,1.1-2.3,1.4-3.6,1
			c-1.3-0.5-2.2-1.7-2.2-3.1v-19.6c0-1.8,1.5-3.3,3.3-3.3c1.8,0,3.3,1.5,3.3,3.3v10.6c4.8-5.8,10.6-12.7,10.6-12.7
			c0.9-1.1,2.3-1.5,3.6-1c1.3,0.5,2.2,1.7,2.2,3.1v19.6C118.1,139.1,116.6,140.6,114.8,140.6z"/>
		<path class="st1" d="M185.1,140.6c-1.8,0-3.3-1.5-3.3-3.3v-6.5c0-2.3-1.8-4.1-4.1-4.1c-2.3,0-4.1,1.8-4.1,4.1v6.5
			c0,1.8-1.5,3.3-3.3,3.3c-1.8,0-3.3-1.5-3.3-3.3v-6.5c0-4.7,3.1-8.7,7.4-10.1v-3c0-1.8,1.5-3.3,3.3-3.3c1.8,0,3.3,1.5,3.3,3.3v3
			c4.3,1.4,7.4,5.3,7.4,10.1v6.5C188.4,139.1,186.9,140.6,185.1,140.6z"/>
		<path class="st1" d="M229.2,140.6c-5.9,0-10.6-4.8-10.6-10.6v-12.3c0-1.8,1.5-3.3,3.3-3.3c1.8,0,3.3,1.5,3.3,3.3v6.5h8.2v-6.5
			c0-1.8,1.5-3.3,3.3-3.3c1.8,0,3.3,1.5,3.3,3.3v12.3C239.9,135.8,235.1,140.6,229.2,140.6z M229.2,134c2,0,3.5-1.4,3.9-3.3h-7.8
			C225.7,132.6,227.3,134,229.2,134z"/>
		<path class="st1" d="M252.1,120.9c-2.3,0-4.1,1.8-4.1,4.1v12.3c0,1.8-1.5,3.3-3.3,3.3c-1.8,0-3.3-1.5-3.3-3.3V125
			c0-5.9,4.8-10.6,10.6-10.6c1.8,0,3.3,1.5,3.3,3.3C255.4,119.5,253.9,120.9,252.1,120.9z"/>
		<path class="st1" d="M266.9,120.9c-2.3,0-4.1,1.8-4.1,4.1v12.3c0,1.8-1.5,3.3-3.3,3.3s-3.3-1.5-3.3-3.3V125
			c0-5.9,4.8-10.6,10.6-10.6c1.8,0,3.3,1.5,3.3,3.3C270.1,119.5,268.7,120.9,266.9,120.9z"/>
		<path class="st1" d="M141.4,120.2l-9.2,7.3l8.4,7.2c1.4,1.2,1.5,3.2,0.4,4.6c-0.4,0.5-1,0.8-1.5,1c-0.2,0.1-0.5,0.2-0.8,0.2
			c-0.4,0-0.7,0-1.1-0.1c-0.4-0.1-0.9-0.3-1.3-0.7l-10.1-8.7v6.2c0,1.5-1,2.8-2.4,3.1c-0.3,0.1-0.6,0.2-0.9,0.2
			c-0.3,0-0.6-0.1-0.9-0.2c-1.4-0.4-2.4-1.6-2.4-3.2v-19.6c0-1.8,1.5-3.3,3.3-3.3c1.8,0,3.3,1.5,3.3,3.3v6.3l11-8.8
			c1.4-1.1,3.5-0.9,4.6,0.5C143,117,142.8,119.1,141.4,120.2z"/>
		<path class="st3" d="M176.8,105.7"/>
		<path class="st3" d="M85.1,92.5"/>
	</g>
</g>
<path class="st2" d="M286.3,427.3"/>
</svg>
