<svg xmlns="http://www.w3.org/2000/svg" width="1115" height="461" viewBox="0 0 1115 461">
  <defs>
    <style>
      .cls-1 {
        fill: #fff;
      }

      .cls-1, .cls-2 {
        fill-rule: evenodd;
      }

      .cls-2 {
        fill: none;
        stroke: #fff;
        stroke-width: 4px;
      }
    </style>
  </defs>
  <path class="cls-1" d="M47,148l34,50,47-17,24-41L93,79l20-29,25,24,25-12L146,40,93,23,51,73l53,69Z"/>
  <path class="cls-1" d="M184,59l22,10L193,170l37-8,2-66,18,1,1,77-19,31-47,4-18-39Z"/>
  <path class="cls-1" d="M284,83l-7,148,26-1-3-34,29,9,31-41-2-44L325,89Zm16,42h40l-17,51-23-7V125Z"/>
  <path class="cls-1" d="M371,128v34l-15,22,11,63,73-5-8-21-35,5-14-36h36l2-13-36-6,6-27,27,4,6-11-1-12Z"/>
  <path class="cls-1" d="M459,121l-3,132h20V206l46,54,17-14-32-34,22-20-1-44-37-27H459Zm21,16-4,48,12,11,24-25Z"/>
  <path class="cls-1" d="M66,320L63,440l-36-1L50,247H80l16,45,23-37,34,13,33,139-29,19,2-44-35-59L99,369Z"/>
  <path class="cls-1" d="M205,269l35,13,42,149-38,5,2-36-54-21-15-56Zm-9,93,42,5-8-52-18-6Z"/>
  <path class="cls-1" d="M290,412l24,1-1-48,48,63,23-22-38-33,26-21-2-55-40-28-39,1Zm22-129-2,59,14,13,29-29Z"/>
  <path class="cls-1" d="M401,280h23l14,153H398Z"/>
  <path class="cls-1" d="M439,336l31-24,40,6,33,41-13,64-52,9-32-36Zm52,2-28,25,10,36h27l20-24Z"/>
  <path class="cls-1" d="M584,159l65-24,66,33,8,96-42,47,52,45-3,29-26,30-75-97,7,91-50,13Zm35,21,19-6,51,53-40,64-26-20Z"/>
  <path class="cls-1" d="M772,118L748,395l57,13V345l45-5,47-96,1-101-62-41Zm21,55,76-3L841,273l-46,18Z"/>
  <path class="cls-2" d="M93,6l58,27,17,22,10-12,38,17-4,88h6s3.987-43.819,6-65h40l7-16,56,10,44,38,68-1,8-8,51,4,43,33v54l-18,19,30,26-40,32-22-27v22H440V253l-83,7-8-62-17,16-20-1,5,34-53-2V182l-27,37-61,7-27-58-8,23L71,215,16,136l61-8L32,67Z"/>
  <path class="cls-1" d="M1057,282l32-3-3-93-57,29-30,71-40,4-27-84,48-73,44,35,30-76-54-47L920,85l-16,26,12,11V251l-18,33,3,41,64,55,43-46,12,83,51-28Z"/>
  <path class="cls-2" d="M115,68l-6,9,52,48,9-52L139,89Z"/>
  <path class="cls-2" d="M312,139l12-1-6,22-6-1V139Z"/>
  <path class="cls-2" d="M401,200v15l17-9Z"/>
  <path class="cls-2" d="M400.082,152.572l6.1,10.153,30.759,2.787-4.64,31.514L428.388,203l13.772,1.019-3.126-21.77,2.812-10.745,3.219-61.589-6.629,6.286-5.461,41.373-17.772-.545Z"/>
  <path class="cls-2" d="M486,177l1-18,11,7v7Z"/>
  <path class="cls-2" d="M119,354L97,408,81,371l-1,79L7,455,36,226l57,7,7,21,14-20,55,25,5,37,27-45,52,18,21,75,5-93,53-1,47,34,3,6,6-24,47,2,8,45,26-17,48,10,37,49-17,84-68,12-21-28v24H393l-3-32-34,33-29-41-3,23-25-3,3,17-68,2-3-39-33-7,8,13-62,29-1-38-14-49Z"/>
  <path class="cls-2" d="M564,143l82-40,96,50,4-57,94-32,48,30,10-30,96-51,79,51v50l-19,57,52-12,2,145-31,2,14,102-86,40-9-60-30,32-87-60-4-33-17,40-32,2-4,66-96-15-28,26-51-73,3,57-75,15Z"/>
  <path class="cls-2" d="M732,284l-1,39-21-12Z"/>
  <path class="cls-2" d="M634,202l29,34-19,31-14-11Z"/>
  <path class="cls-2" d="M811,184l30,7-7,58-26,10Z"/>
  <path class="cls-2" d="M979,164l-32,40,45,40,20-26-2-32Z"/>
  <path class="cls-2" d="M490,354l9,15-5,9-11,1-4-13Z"/>
  <path class="cls-2" d="M386,356l2,35-20-17Z"/>
  <path class="cls-2" d="M327,315v16l7-6Z"/>
  <path class="cls-2" d="M220,330l-8,19,12,1Z"/>
</svg>
