<?xml version="1.0" encoding="utf-8"?>
<!-- Generator: Adobe Illustrator 19.0.0, SVG Export Plug-In . SVG Version: 6.00 Build 0)  -->
<svg version="1.1" xmlns="http://www.w3.org/2000/svg" xmlns:xlink="http://www.w3.org/1999/xlink" x="0px" y="0px"
	 viewBox="-421.8 453.7 145.5 101.1" style="enable-background:new -421.8 453.7 145.5 101.1;" xml:space="preserve">
<style type="text/css">
	.st0{fill:none;}
	.st1{fill:#FFFFFF;}
	.st2{display:none;fill:url(#SVGID_1_);}
	.st3{display:none;fill:#243375;}
	.st4{display:none;fill:url(#SVGID_2_);}
	.st5{display:none;fill:url(#SVGID_3_);}
	.st6{display:none;fill:url(#SVGID_4_);}
	.st7{fill:none;stroke:#FFFFFF;stroke-miterlimit:10;}
	.st8{display:none;fill:#CF1D20;}
	.st9{display:none;fill:url(#SVGID_5_);}
	.st10{display:none;fill:url(#SVGID_6_);}
	.st11{display:none;fill:url(#SVGID_7_);}
	.st12{display:none;fill:url(#SVGID_8_);}
	.st13{display:none;fill:url(#SVGID_9_);}
</style>
<g id="Layer_2">
</g>
<g id="logosandtypes_com">
	<path class="st0" d="M-424,426h150v150h-150V426z"/>
	<g id="Layer_1">
		<g id="_837541680">
			<g>
				<path class="st1" d="M-280.3,457.7v48.5h-40.5h-4v4v40.5h-48.5v-40.5v-4h-4h-40.5v-48.5H-280.3 M-276.3,453.7h-145.5v56.5h44.5
					v44.5h56.5v-44.5h44.5V453.7L-276.3,453.7z"/>
			</g>
			
				<linearGradient id="SVGID_1_" gradientUnits="userSpaceOnUse" x1="-1068.8231" y1="508.3148" x2="-1068.5631" y2="508.3148" gradientTransform="matrix(552.91 0 0 384.2 590543.875 -194790.2969)">
				<stop  offset="0" style="stop-color:#5A72BC"/>
				<stop  offset="5.000000e-002" style="stop-color:#5A72BC"/>
				<stop  offset="0.33" style="stop-color:#3E53A9"/>
				<stop  offset="0.5" style="stop-color:#283B96"/>
				<stop  offset="0.67" style="stop-color:#212963"/>
				<stop  offset="0.87" style="stop-color:#181A39"/>
				<stop  offset="1" style="stop-color:#111220"/>
			</linearGradient>
			<path class="st2" d="M-421.8,510.3v-56.5h145.5v56.5h-44.5v44.5h-56.5v-44.5C-377.3,510.3-421.8,510.3-421.8,510.3z
				 M-282.7,460.2h-132.6v43.7h44.5v44.5h43.6v-44.5h44.5V460.2L-282.7,460.2z"/>
			<path class="st3" d="M-276.3,453.7h-145.5v56.6h44.5v44.5h56.5v-44.5h44.5L-276.3,453.7L-276.3,453.7L-276.3,453.7z
				 M-282.2,459.6L-282.2,459.6v44.8h-44.5V549h-44.8v-44.5h-44.5v-44.8C-415.9,459.6-282.2,459.6-282.2,459.6z"/>
			
				<linearGradient id="SVGID_2_" gradientUnits="userSpaceOnUse" x1="-815.4417" y1="823.5734" x2="-815.4417" y2="787.8525" gradientTransform="matrix(2.83 0 0 2.83 1958.6399 -1775.09)">
				<stop  offset="0" style="stop-color:#5370B9"/>
				<stop  offset="0.45" style="stop-color:#3D55A9"/>
				<stop  offset="0.74" style="stop-color:#24377D"/>
				<stop  offset="1" style="stop-color:#1B1E45"/>
			</linearGradient>
			<path class="st4" d="M-421.8,510.3v-56.5h145.5v56.5h-44.5v44.5h-56.5v-44.5C-377.3,510.3-421.8,510.3-421.8,510.3z M-281.6,459
				h-135v46h44.5v44.5h46V505h44.5L-281.6,459L-281.6,459L-281.6,459z"/>
			
				<linearGradient id="SVGID_3_" gradientUnits="userSpaceOnUse" x1="-815.4364" y1="823.5734" x2="-815.4364" y2="787.8489" gradientTransform="matrix(2.83 0 0 2.83 1958.6399 -1775.09)">
				<stop  offset="0" style="stop-color:#5370B9"/>
				<stop  offset="0.45" style="stop-color:#3D55A9"/>
				<stop  offset="0.74" style="stop-color:#24377D"/>
				<stop  offset="1" style="stop-color:#1B1E45"/>
			</linearGradient>
			<path class="st5" d="M-276.3,453.7h-145.5v56.6h44.5v44.5h56.5v-44.5h44.5L-276.3,453.7L-276.3,453.7L-276.3,453.7z
				 M-277.5,454.9L-277.5,454.9v54.2H-322v44.5h-54.1v-44.5h-44.5v-54.2H-277.5z"/>
			
				<linearGradient id="SVGID_4_" gradientUnits="userSpaceOnUse" x1="-1068.8231" y1="508.3148" x2="-1068.5631" y2="508.3148" gradientTransform="matrix(552.91 0 0 384.2 590543.875 -194790.2969)">
				<stop  offset="0" style="stop-color:#5A72BC"/>
				<stop  offset="5.000000e-002" style="stop-color:#5A72BC"/>
				<stop  offset="0.33" style="stop-color:#3E53A9"/>
				<stop  offset="0.5" style="stop-color:#283B96"/>
				<stop  offset="0.67" style="stop-color:#212963"/>
				<stop  offset="0.87" style="stop-color:#181A39"/>
				<stop  offset="1" style="stop-color:#111220"/>
			</linearGradient>
			<path class="st6" d="M-421.8,510.3v-56.5h145.5v56.5h-44.5v44.5h-56.5v-44.5C-377.3,510.3-421.8,510.3-421.8,510.3z
				 M-276.9,454.3h-144.3v55.4h44.5v44.5h55.3v-44.5h44.5L-276.9,454.3L-276.9,454.3z"/>
			<path class="st7" d="M-389.8,464.8h-21.1v8.9h6.1v25.7h8.8v-25.7h6.1V464.8L-389.8,464.8z M-391.3,466.2L-391.3,466.2v6.1h-6.1
				V498h-6v-25.7h-6.1v-6.1H-391.3L-391.3,466.2z"/>
			<path class="st8" d="M-397.4,486.6c-2,0.5-4,1.1-6,1.7v9.7h6C-397.4,498-397.4,486.6-397.4,486.6z"/>
			<path class="st7" d="M-367.3,464.8h-21.1V492c0,4.1,3.3,7.4,7.4,7.4h19.6l-1.2-2.1l-3.4-6.1l-0.4-0.7h-12.1
				c-0.6,0-1.1-0.5-1.1-1.1v-3.9h5.1l0.4-0.7l3.5-6.1l1.2-2.1h-10.1v-2.9h12.2V464.8C-367.3,464.8-367.3,464.8-367.3,464.8z
				 M-368.7,466.2L-368.7,466.2v6.1H-381v5.8h9.1l-3.5,6.1h-5.7v5.3c0,1.4,1.1,2.5,2.5,2.5h11.3l3.5,6.1H-381c-3.3,0-6-2.7-6-6
				v-25.8L-368.7,466.2L-368.7,466.2z"/>
			
				<linearGradient id="SVGID_5_" gradientUnits="userSpaceOnUse" x1="-824.7562" y1="803.5134" x2="-824.7562" y2="797.8834" gradientTransform="matrix(2.83 0 0 2.83 1958.6399 -1775.09)">
				<stop  offset="0" style="stop-color:#DA3813"/>
				<stop  offset="1" style="stop-color:#CF1F1F"/>
			</linearGradient>
			<path class="st9" d="M-387,492c0,3.3,2.7,6,6,6h17.2l-3.5-6.1h-11.3c-1.4,0-2.5-1.1-2.5-2.5v-5.3h5.7l1.2-2.2
				c-4.4,0.6-8.7,1.3-12.9,2.2L-387,492L-387,492L-387,492z"/>
			<path class="st7" d="M-344.8,464.8h-21.1v8.9h6.1v25.7h8.8v-25.7h6.1L-344.8,464.8L-344.8,464.8L-344.8,464.8z M-346.2,466.2
				L-346.2,466.2v6.1h-6.1V498h-6v-25.7h-6.1v-6.1H-346.2L-346.2,466.2z"/>
			
				<linearGradient id="SVGID_6_" gradientUnits="userSpaceOnUse" x1="-817.6608" y1="803.5134" x2="-817.6608" y2="797.2734" gradientTransform="matrix(2.83 0 0 2.83 1958.6399 -1775.09)">
				<stop  offset="0" style="stop-color:#EC930A"/>
				<stop  offset="0.5" style="stop-color:#E87D09"/>
				<stop  offset="1" style="stop-color:#E57009"/>
			</linearGradient>
			<path class="st10" d="M-358.3,480.5V498h6v-17.7C-354.3,480.4-356.3,480.4-358.3,480.5z"/>
			<path class="st7" d="M-334.4,473.7h1.6c0,0,0,0,0.1,0h0.1c0.6,0,1,0.5,1,1.1c0,0.3-0.1,0.5-0.2,0.6h0v0l-1.3,1.8l-1.2,1.6
				L-334.4,473.7L-334.4,473.7L-334.4,473.7z M-328.3,464.9l-15,0v34.6h8.8v-18.4l10.7,17.7l0.4,0.7h3.2v-11.8l-0.2-0.3l-4.3-7.1
				l2.1-2.9l0,0l0.2-0.2h0l0,0c0.9-1.3,1.3-2.8,1.3-4.4c0-0.1,0-0.3,0-0.4C-321.2,468.3-324.3,465.1-328.3,464.9L-328.3,464.9
				L-328.3,464.9L-328.3,464.9z M-322.5,477.3L-322.5,477.3L-322.5,477.3L-322.5,477.3 M-328.3,466.2h-13.6V498h6v-25.7h2.9
				c0.1,0,0.1,0,0.2,0s0.1,0,0.2,0c1.3,0.1,2.3,1.2,2.3,2.5c0,0.5-0.2,1.1-0.5,1.5l-1.3,1.8l-1.4,1.9l10.9,18.1h1v-10l-4.8-7.9
				l2.7-3.7c0,0,0,0,0,0l0.2-0.2c0.7-1,1.1-2.3,1.1-3.6c0-0.1,0-0.2,0-0.3C-322.5,469.1-325.1,466.4-328.3,466.2z"/>
			
				<linearGradient id="SVGID_7_" gradientUnits="userSpaceOnUse" x1="-809.3109" y1="803.5134" x2="-809.3109" y2="797.2978" gradientTransform="matrix(2.83 0 0 2.83 1958.6399 -1775.09)">
				<stop  offset="0" style="stop-color:#359335"/>
				<stop  offset="0.5" style="stop-color:#2E7C36"/>
				<stop  offset="1" style="stop-color:#286831"/>
			</linearGradient>
			<path class="st11" d="M-322.5,498h1v-10l-3.8-6.2c-2.5-0.3-5-0.6-7.5-0.8L-322.5,498z M-335.9,498h-6v-17.6c2,0.1,4,0.2,6,0.3
				V498L-335.9,498L-335.9,498z"/>
			<path class="st7" d="M-309.8,464.8h-8.8v34.6h8.8V464.8z M-311.2,466.2L-311.2,466.2V498h-6v-31.8H-311.2z"/>
			
				<linearGradient id="SVGID_8_" gradientUnits="userSpaceOnUse" x1="-803.136" y1="803.5134" x2="-803.136" y2="798.2134" gradientTransform="matrix(2.83 0 0 2.83 1958.6399 -1775.09)">
				<stop  offset="0" style="stop-color:#4077BC"/>
				<stop  offset="0.5" style="stop-color:#3A64AF"/>
				<stop  offset="0.99" style="stop-color:#314EA2"/>
				<stop  offset="1" style="stop-color:#314EA2"/>
			</linearGradient>
			<path class="st12" d="M-311.2,484.1c-2-0.4-4-0.8-6-1.1v15h6V484.1z"/>
			<line class="st7" x1="-297.6" y1="475.5" x2="-297.5" y2="475.5"/>
			<path class="st7" d="M-297.8,474.8"/>
			<path class="st7" d="M-297.8,474.7c0-0.5,0.5-1,1-1h0.2l0.1,0h4l0.4-0.7l3.6-6.1l1.3-2.1h-13c-0.2,0-0.4,0-0.5,0v0
				c-4.3,0-7.8,3.5-7.8,7.8c0,1.7,0.5,3.3,1.5,4.6l7.2,9.9l1.4,1.9h0l0,0h0l0,0l0,0c0,0,0,0,0,0.1h0l0,0c0.1,0.2,0.1,0.3,0.1,0.5
				c0,0.5-0.4,0.9-0.9,0.9h-9.1v8.9h12.9c4.2,0,7.6-3.3,7.8-7.4c0-0.1,0-0.3,0-0.4c0-1.7-0.5-3.3-1.6-4.7l-7.3-9.7l-1.3-1.8l0,0
				C-297.7,475.3-297.8,475.1-297.8,474.7L-297.8,474.7z"/>
			<path class="st7" d="M-298.4,472.9c-0.5,0.5-0.8,1.1-0.8,1.9c0,0.6,0.2,1.1,0.5,1.5l0,0.1l1.3,1.8l7.3,9.7
				c0.8,1.1,1.3,2.4,1.3,3.8c0,0.1,0,0.2,0,0.3c-0.2,3.4-3,6.1-6.4,6.1h-11.5v-6.1h7.7c1.3,0,2.3-1,2.3-2.3c0-0.5-0.1-0.9-0.4-1.3
				c-0.1-0.1-0.1-0.1-0.2-0.2h0l-1.4-1.9l-7.2-9.9c-0.8-1-1.2-2.4-1.2-3.8c0-3.5,2.9-6.4,6.4-6.4l0,0c0.1,0,0.3,0,0.4,0h10.6
				l-3.6,6.1h-3.2c-0.1,0-0.1,0-0.2,0s-0.1,0-0.2,0C-297.5,472.3-298,472.6-298.4,472.9L-298.4,472.9z"/>
			<polyline class="st7" points="-300.7,466.2 -300.7,466.2 -300.7,466.2 			"/>
			
				<linearGradient id="SVGID_9_" gradientUnits="userSpaceOnUse" x1="-797.3286" y1="803.5134" x2="-797.3286" y2="799.7748" gradientTransform="matrix(2.83 0 0 2.83 1958.6399 -1775.09)">
				<stop  offset="0" style="stop-color:#6F1086"/>
				<stop  offset="0.59" style="stop-color:#5F136F"/>
				<stop  offset="1" style="stop-color:#571360"/>
			</linearGradient>
			<path class="st13" d="M-297.3,488.1c0.1,0.1,0.1,0.1,0.1,0.2c0.2,0.4,0.4,0.8,0.4,1.3c0,1.3-1,2.3-2.3,2.3h-7.7v6.1h11.5
				c3.4,0,6.2-2.7,6.4-6.1c0-0.1,0-0.2,0-0.3c0-0.5-0.1-1-0.2-1.5c-2.9-1-5.8-1.9-8.8-2.7L-297.3,488.1L-297.3,488.1L-297.3,488.1z"
				/>
		</g>
	</g>
</g>
</svg>
