<?xml version="1.0" encoding="utf-8"?>
<!-- Generator: Adobe Illustrator 19.0.0, SVG Export Plug-In . SVG Version: 6.00 Build 0)  -->
<svg version="1.1" xmlns="http://www.w3.org/2000/svg" xmlns:xlink="http://www.w3.org/1999/xlink" x="0px" y="0px"
	 viewBox="-250 375.6 107.7 42.3" style="enable-background:new -250 375.6 107.7 42.3;" xml:space="preserve">
<style type="text/css">
	.st0{fill:#FFFFFF;}
</style>
<g id="Layer_1">
	<polygon class="st0" points="-203.7,383.1 -205.5,383.1 -205.5,377.5 -207.4,377.5 -206.9,375.8 -202,375.8 -202,377.5 
		-203.7,377.5 	"/>
	<path class="st0" d="M-201.6,383.1h1.6v-3.3c0-0.6,0.3-1,0.8-1c0.4,0,0.6,0.3,0.6,0.8v3.4h1.6v-3.9c0-1.1-0.7-1.7-1.6-1.7
		c-0.6,0-1.1,0.2-1.5,0.7v-2.5h-1.4V383.1L-201.6,383.1z"/>
	<path class="st0" d="M-193.8,381.7c-0.3,0-0.6-0.1-0.9-0.3l3.5-2.2c-0.7-1.1-1.5-1.6-2.6-1.6c-1.8,0-2.9,1.2-2.9,2.8
		c0,1.6,1.2,2.8,2.8,2.8c0.8,0,1.6-0.3,2.4-0.9l-0.8-1.2C-192.9,381.5-193.4,381.7-193.8,381.7L-193.8,381.7L-193.8,381.7z
		 M-195.1,380.2c0-0.8,0.6-1.3,1.3-1.3c0.2,0,0.4,0.1,0.6,0.2L-195.1,380.2L-195.1,380.2L-195.1,380.2z"/>
	<path class="st0" d="M-196.3,384.5v32.4h-9.2v-5.1c1.1-2,1.7-4.3,1.7-6.9c0-2.9-0.7-5-1.7-6.8v-13.6L-196.3,384.5L-196.3,384.5z"/>
	<path class="st0" d="M-151.6,396.5c-2.8-0.9-4.5-1.5-4.5-3.1c0-1.3,1.8-2.1,3-2.1c2.3,0,3.5,0.8,5.2,2.3l0.3,0.3l4.7-5.9l-0.3-0.2
		c-2.8-2.3-6.5-3.6-10.1-3.6c-5.6,0-11.6,3.5-11.6,9.9c0,6.9,5.4,8.7,9.3,9.9c2.8,0.9,4.5,1.5,4.5,3.1c0,1.8-2.5,2.4-3.7,2.4
		c-2.3,0-4.2-0.8-5.5-2.4l-0.3-0.4l-3.1,3.9l-4.8-26.1h-7.6l-3,13.2l-3.3-16.7h-7.4l-6,35.9h8.8l1.8-11.5l2.1,11.5h8.1l2.2-11.6
		l1.5,11.6h9.1l-0.4-1.7l0.1,0c2.4,1.3,5.2,1.9,8.3,1.9c7.4,0,12.2-4.2,12.2-10.7C-142.3,399.4-147.7,397.7-151.6,396.5
		L-151.6,396.5L-151.6,396.5z"/>
	<path class="st0" d="M-216.3,393.2c-3.4-1.1-6.3-2-6.3-4.7c0-2.4,2.8-3.5,4.6-3.5c2.9,0,4.6,1,6.5,2.5l0.3,0.3l4.8-6.1l-0.3-0.2
		c-3.3-2.5-7.5-3.9-11.6-3.9c-6.7,0-13.7,4.1-13.7,11.6c0,8.1,5.9,10,11,11.6c3.4,1.1,6.3,2,6.3,4.7s-3.4,3.8-5.5,3.8
		c-5,0-8.6-3.6-9.7-4.7l-4.7,6.8c4.1,3.4,7.6,5,10.9,5.7c1.3,0.2,2.6,0.3,3.9,0.3c4.1,0,7.7-1.1,10.2-3.1c2.8-2.2,4.3-5.5,4.3-9.4
		C-205.3,396.6-211.2,394.7-216.3,393.2L-216.3,393.2L-216.3,393.2z"/>
	<polygon class="st0" points="-237.8,378 -250,396.8 -242.8,418 -230.7,399.3 	"/>
</g>
<g id="Layer_2">
</g>
</svg>
