<?xml version="1.0" encoding="utf-8"?>
<!-- Generator: Adobe Illustrator 19.0.0, SVG Export Plug-In . SVG Version: 6.00 Build 0)  -->
<svg version="1.1" id="Layer_1" xmlns="http://www.w3.org/2000/svg" xmlns:xlink="http://www.w3.org/1999/xlink" x="0px" y="0px"
	 viewBox="0 0 1324 698" style="enable-background:new 0 0 1324 698;" xml:space="preserve">
<style type="text/css">
	.st0{fill:#FFFFFF;}
</style>
<g>
	<g>
		<path class="st0" d="M857.5,89.8c5.2,0,10.4,0.1,15.5,0.3c17,0.8,32.3,6.5,43.5,20.1c5.9,7.1,9.3,15.5,10.3,24.6
			c0.9,7.7,1.1,15.6,1.1,23.4c0.1,39.5,0.1,79,0,118.5c0,16.8-5.9,31.5-16.4,44.5c-3.2,4-6.4,8-10.8,11.1c-3.9-1.7-6.5-4.9-8.9-7.9
			c-10.1-12.6-17.1-26.9-20.3-42.9c-0.5-2.3-0.6-4.6-0.6-6.9c0-42.8-0.1-85.6,0.1-128.4c0-9.7-3-18.3-7.5-26.5
			c-4.2-7.7-10.1-14.1-16.7-19.7c-4.8-4.1-10.2-7.5-16.9-7.7c-0.4,0-0.8-0.4-1.3-0.6c0-0.3,0-0.7,0-1c1.4-0.1,2.9-0.3,4.3-0.3
			C841.2,90,849.4,89.8,857.5,89.8 M768.9,89.9c2,0,4,0.1,6,0.1c0.4,0,0.8,0,1.2,0c1.8,0,3.6-0.1,5.5-0.1c2.8,0,5.7,0,8.5,0
			c2.8,0,5.7,0,8.5,0c1.8,0,3.6,0,5.5,0c4.6,0,9.2,0.1,14.2,0.2c0.3,2.2,0.6,3.7,0.6,5.3c0,34.3,0.2,68.7-0.2,103
			c-0.1,5.9,0.6,11.7,0.3,17.5c-0.3,5.8-0.1,11.7-0.1,17.5c0,6,0,12,0,18c0,1.2,0.2,2.3,0.3,4.1c15.4,0,30.3,0,45.7,0
			c-0.4,1.2-0.4,2-0.9,2.6c-3.3,3.8-6.5,7.5-10,11.1c-4.8,5-9.8,9.9-14.8,14.8c-6.4,6.2-13.3,11.6-21.4,15.3
			c-2.8,1.3-4.5,3.2-5.7,5.9c-4,9.1-10.2,16.7-17,23.8c-0.7,0.7-1.4,1.4-2.2,2c-0.4,0.3-0.9,0.4-1.8,0.9c-3.7-2.2-6.7-5.6-9.5-9
			c-9.8-12.3-16.1-26.4-19.5-41.7c-0.4-1.6-0.4-3.3-0.4-5c0-60.2,0-120.3,0-180.5c0-1.6,0-3.3,0-5.4C764.3,90,766.6,89.9,768.9,89.9
			 M857.5,80.8c-4.3,0-8.6,0.1-12.8,0.1c-3.8,0-7.8,0.1-11.7,0.1c-1.4,0-2.7,0.1-3.8,0.2c-0.4,0-0.8,0.1-1.2,0.1l-1.7,0.1l0-0.2
			l-7.9-0.1c-1.6,0-3.1,0-4.6-0.1c-3.4-0.1-6.5-0.1-9.7-0.1c-1.8,0-3.7,0-5.5,0c-1.4,0-2.9,0-4.3,0c-1.4,0-2.8,0-4.3,0
			c-1.4,0-2.8,0-4.2,0c-1.4,0-2.9,0-4.3,0c-2.2,0-4,0-5.7,0.1c-0.3,0-0.7,0-1,0c-0.9,0-1.8,0-2.8,0c-1.1,0-2.1-0.1-3.3-0.1l0,0
			c0,0,0,0,0,0c-2.3,0-5.3,0.1-8.7,0.8l-7.2,1.5v7.3v2.1v3.3l0,22.5c0,52.7,0,105.3,0,158c0,2,0,4.4,0.6,6.9
			c3.8,17.2,10.9,32.4,21.2,45.4c2.8,3.5,6.7,7.9,11.8,11.1l4.1,2.5l4.4-2c0.2-0.1,0.4-0.2,0.5-0.2c0.7-0.3,1.9-0.8,3.2-1.8
			c1.1-0.9,2.2-1.9,3.1-2.8c6.6-7,14-15.6,18.7-26.4c0.4-0.9,0.6-1.1,1.2-1.3c8.1-3.7,15.7-9.1,23.9-17.1c5.5-5.3,10.4-10.2,15-15
			c0.5-0.5,0.9-1,1.4-1.4c0,0.1,0,0.1,0,0.2c0,3.3,0.3,6.1,0.8,8.7c3.4,17,10.8,32.7,22.1,46.7l0.2,0.2c2.6,3.3,6.3,7.8,12.2,10.4
			l4.6,2l4.1-2.9c5.4-3.8,9.2-8.5,12.6-12.6l0.1-0.1c12.2-15.1,18.4-32,18.4-50.1c0-38.7,0.1-78.7,0-118.5c0-7.7-0.2-16-1.1-24.4
			c-1.3-11-5.5-21.1-12.3-29.3c-12-14.5-28.8-22.3-50-23.3C868.7,80.9,863.6,80.8,857.5,80.8L857.5,80.8z M828,246.6
			c0-2.9,0-5.7,0-8.6l0-4.6c0-1.8,0-3.7,0-5.5c-0.1-4-0.1-7.8,0.1-11.5c0.2-3.8,0.1-7.4-0.1-11c-0.1-2.4-0.2-4.7-0.2-7
			c0.3-27,0.3-54.4,0.2-80.9c0-5.7,0-11.4,0-17c0.5,0.1,1.1,0.2,1.8,0.2c3.5,0.1,6.9,1.7,11.3,5.5c6.8,5.9,11.5,11.4,14.6,17.2
			c4.5,8.2,6.4,15.1,6.4,22.2c-0.2,33.6-0.1,67.7-0.1,100.8H828L828,246.6z"/>
	</g>
	<g>
		<g>
			<path class="st0" d="M1207.6,191.3c0.1,0,0.1,0,0.3,0c0,0,0,0,0,0c0,0,0,0,0,0c0,0,0,0,0,0h5.9c0,0,0.1,0,0.1,0c6,0,12,0,18,0
				c7,0,14,0,21,0c0,0,0,0,0,0c0.7,0,1.4,0,2.2,0c0.9,0,1.8,0.1,2.6,0.3c11,3,21.3,7.8,29.7,15.9c10.6,10.1,15.8,22.8,15.9,37.6
				c0.1,11.8,0.1,23.6,0,35.3c-0.1,6.6-1.5,13.1-3.7,19.4c-3.1,8.7-8.1,16.2-13.7,23.3c-2.6,3.3-5.8,6-8.6,8.8
				c-1.1-0.4-1.6-0.5-2-0.7c-0.9-0.7-1.7-1.5-2.5-2.3c-8.5-8.5-14.1-18.8-18.8-29.9c-4.4-10.5-6.8-21.3-6.1-32.9
				c0.4-6.8-0.2-13.6,0.2-20.4c0.4-7.1-1.9-13.4-4.5-19.6c-1-2.4-2.1-4.9-3.7-7c-2.5-3.3-5.6-6.2-8.1-9.5
				c-4.3-5.7-9.5-10.4-15.5-14.1c-2.1-1.3-4.3-2.3-6.8-2.3c-0.6,0-1.2,0.1-1.9,0.2v0c-0.1,0-0.2,0-0.2,0V191.3 M1198.6,181.8v9.5
				v2.1V204l9.9-1.6l1.8,0c0.3,0.1,0.8,0.4,1.5,0.8c5.1,3.2,9.4,7,13,11.8c1.5,2,3,3.7,4.5,5.3c1.3,1.4,2.5,2.8,3.5,4.1
				c0.9,1.2,1.7,3,2.5,5l0.1,0.2c2.5,5.7,4.1,10.6,3.8,15.6c-0.2,3.6-0.1,7.1-0.1,10.4c0.1,3.4,0.1,6.7-0.1,9.9
				c-0.8,12.3,1.4,24.4,6.7,36.9c6.1,14.4,12.5,24.5,20.7,32.7c0.9,0.9,2,1.9,3.2,2.9c1.6,1.3,3.2,1.8,4.1,2.1
				c0.2,0,0.3,0.1,0.6,0.2l5.4,2l4-4.1c0.7-0.8,1.6-1.5,2.4-2.4c2.2-2.1,4.7-4.4,6.8-7.2c5.4-6.9,11.3-15.3,15-25.8
				c2.7-7.7,4.1-15,4.2-22.3c0.2-12.3,0.1-24.6,0-35.5c-0.1-17.5-6.4-32.3-18.6-44c-8.8-8.4-19.8-14.3-33.6-18c-2-0.5-3.8-0.6-5-0.6
				c-0.4,0-0.9,0-1.3,0c-0.3,0-0.6,0-0.9,0c-7,0-14.1,0-21.1,0l-9,0l-6.8,0l-7.8,0c-0.1,0-0.2,0-0.3,0L1198.6,181.8L1198.6,181.8z"
				/>
		</g>
	</g>
	<g>
		<path class="st0" d="M198.6,359c1,0,2,0,2.9,0c23.1,0,46.2,0,69.4,0c70.7,0,141.4,0,212.1,0c2.2,0,4.5,0.3,7.7,0.5
			c-1.3,2.3-2,3.7-2.9,5c-7.4,10.6-16.4,19.6-26.6,27.5c-15.3,11.8-32.6,19.4-51.6,22.6c-7.7,1.3-15.5,2.3-23.2,2.3
			c-13.2,0.1-26.4,0.2-39.5,0.2c-15.8,0-31.6,0-47.5,0c-2.5,0-5,0-7.5,0c-0.9,3.3-1.2,44.1-0.3,50c2.1,0.7,26.8,1.2,48.6,1.2
			c14.2,0,27.1-0.2,31.7-0.7c-0.8,3.1-2.2,5.6-3.8,8c-8.2,12.8-19.1,23-31.4,31.7c-13.1,9.3-27.6,16.1-42.8,21.3
			c-1.3,0.4-2.5,0.9-3.8,1.3c-0.5,0.2-0.9,0.4-1.7,0.9c-0.1,1.3-0.3,2.7-0.3,4.2c0,6.2,0.1,12.3,0,18.5c-0.3,26.5-0.5,52.9-1.1,79.4
			c-0.2,7.5-2,14.8-5.2,21.7c-3.6,7.9-7.9,15.4-14.2,21.5c-2.6,2.5-5,5.2-7.6,7.9c-7.7-5.8-12.7-13-17.3-20.5
			c-6-9.8-9.7-20.4-12.2-31.5c-0.5-2.2-0.5-4.6-0.5-6.9c0-65.8,0-131.7,0-197.5c0-2.1,0-4.3,0-7.1c-4.2-0.2-8.3-0.3-12.4-0.3
			c-3.8,0-7.6,0-11.4,0c-4.6,0-9.1-0.1-13.8-0.4c-0.7-7-0.3-13.7-0.3-20.3c-0.1-6.5-0.1-13,0-19.5c0-6.6-0.2-13.2,0.2-20.1
			c1.7-0.3,3-0.7,4.3-0.8C197.2,359,197.9,359,198.6,359 M198.6,350c-1,0-1.9,0-2.7,0.1c-1.5,0.1-2.7,0.4-3.9,0.6
			c-0.4,0.1-0.9,0.2-1.4,0.3l-6.9,1.3l-0.4,7c-0.3,5.1-0.3,9.9-0.2,14.6c0,2.1,0,4.1,0,6.1c0,5.4-0.1,12.5,0,19.7c0,1.9,0,3.8,0,5.9
			c-0.1,4.8-0.1,9.8,0.4,15.1l0.7,7.6l7.6,0.5c5.3,0.3,10.5,0.4,14.4,0.4c1.9,0,3.8,0,5.7,0c1.9,0,3.8,0,5.7,0c1,0,2.2,0,3.4,0l0,26
			c0,56.6,0,113.3,0,169.9c0,2.7,0,5.7,0.7,8.9c2.9,13.1,7.2,24.3,13.3,34.3c4.8,7.9,10.5,16.2,19.6,23l6.4,4.8l5.5-5.8
			c0.8-0.9,1.6-1.7,2.5-2.6c1.7-1.8,3.2-3.5,4.9-5c8-7.7,12.8-17,16.2-24.3c3.8-8.3,5.8-16.8,6-25.3c0.4-21,0.7-42.4,0.9-63
			c0.1-5.5,0.1-11,0.2-16.4c0-3.5,0-7.1,0-10.6c0-1.9,0-3.9,0-5.9c17.4-6,32-13.3,44.8-22.4c14.6-10.4,25.7-21.6,33.8-34.2
			c1.8-2.9,3.9-6.3,5-10.7l3-12.4l-12.7,1.3c-3.8,0.4-15.6,0.6-30.8,0.6c-16.8,0-31.7-0.3-40-0.6c-0.2-8.9-0.1-23.6,0.1-32.6
			c7.6,0,15.2,0,22.8,0c7.9,0,15.8,0,23.7,0c15.6,0,28.2,0,39.6-0.2c7.3-0.1,15.2-0.8,24.7-2.4c20.4-3.4,39.1-11.6,55.6-24.3
			c11.3-8.7,20.9-18.6,28.5-29.5c0.9-1.2,1.5-2.4,2.2-3.7c0.3-0.6,0.7-1.2,1.1-2l7.3-12.6l-14.5-0.9c-1.1-0.1-2-0.1-2.9-0.2
			c-1.8-0.1-3.5-0.3-5.4-0.3c-70.7,0-141.4,0-212.1,0l-39.6,0l-29.7,0c-0.4,0-0.9,0-1.3,0C199.6,350,199.1,350,198.6,350L198.6,350z
			"/>
	</g>
	<g>
		<path class="st0" d="M444.1,433c17,0,34,0,50.9,0c1.1,0,2.2,0.3,3.4,0.4c-4.2,10.3-25.9,33-46.3,39.3c-0.2,10.4-0.2,21,0,31.6
			c0.1,10.6,0.8,21.3,0.9,31.9c0,10.6-0.7,21.3-0.8,31.9c-0.2,10.6,0,21.3,0,32.6c5.3,0.2,10.5,0.3,15.6,0.3c4.9,0,9.9,0,14.8,0
			c5.5,0,11.1,0.1,16.7,0.3c-0.6,1.9-0.8,3.2-1.4,4.3c-9.7,18.1-22.4,33.4-41.5,42.4c-0.3,0.1-0.6,0.3-0.9,0.4
			c-5.1,1.7-8,5.4-10.1,10.2c-4.3,9.6-11.1,17.3-18.7,24.4c-0.3,0.3-0.8,0.5-1.8,1c-2.1-2.1-4.5-4.1-6.5-6.4
			c-10.4-12.4-17.8-26.5-21.3-42.4c-0.5-2.3-0.8-4.6-0.8-6.9c-0.1-15.2,0.1-30.3-0.1-45.5c-0.1-14.1-1.4-28.3-0.8-42.4
			c1.5-34.3,0.3-68.6,0.8-102.9c0-1.2,0.2-2.3,0.3-4c1.4-0.2,2.9-0.5,4.3-0.5C415.1,433,429.6,433,444.1,433 M444.1,424
			c-14.5,0-29,0-43.6,0c-1.7,0-3.1,0.2-4.3,0.4c-0.4,0.1-0.7,0.1-1.1,0.2l-7.3,0.9l-0.6,7.3c0,0.5-0.1,1-0.1,1.4
			c-0.1,1-0.2,2-0.2,3.1c-0.2,13.2-0.1,26.7-0.1,39.7c0.1,20.7,0.2,42.1-0.7,63c-0.4,9.3-0.1,18.6,0.3,27.5
			c0.2,5.1,0.4,10.3,0.5,15.4c0.1,8.7,0.1,17.6,0.1,26.2c0,6.3,0,12.8,0,19.3c0,2.7,0.4,5.7,1,8.8c3.7,16.7,11.5,32.3,23.2,46.2
			c1.7,2.1,3.6,3.8,5.3,5.3c0.7,0.6,1.3,1.2,1.9,1.8l4.8,4.6l5.8-3.2c0.2-0.1,0.4-0.2,0.6-0.3c0.7-0.3,1.9-0.9,3.1-2
			c6.3-5.8,15.3-15,20.8-27.3c1.8-4.1,3.3-4.9,4.7-5.3c1-0.3,1.7-0.7,2-0.9l0,0c18.7-8.9,33.6-24,45.5-46.2c0.8-1.6,1.3-3,1.6-4.3
			c0.1-0.5,0.3-1,0.4-1.4l3.7-11.3l-11.8-0.5c-6.3-0.3-12.4-0.3-17.1-0.3c-2.5,0-4.9,0-7.4,0c-2.4,0-4.9,0-7.4,0c-2.4,0-4.6,0-6.6,0
			c0-0.5,0-1.1,0-1.6c0-7.6-0.1-14.9,0.1-22.1c0.1-4.5,0.2-9.2,0.4-13.7c0.2-6,0.4-12.2,0.4-18.4c0-6-0.2-12.1-0.4-18
			c-0.2-4.6-0.3-9.4-0.4-14c-0.1-8.3-0.1-16.7,0-25.2c20.5-9.1,40.9-30.3,45.7-42.2l4.4-10.9l-11.6-1.5c-0.3,0-0.6-0.1-0.8-0.1
			c-1-0.2-2.2-0.4-3.7-0.4C478.1,424,461.1,424,444.1,424L444.1,424z"/>
	</g>
	<g>
		<path class="st0" d="M528.2,432.9c14.3,0,30.2,0.3,32.5,0.9c0.1,1.5,0.3,3.1,0.3,4.7c0,63.8,0.1,127.6-0.1,191.4
			c-0.1,14.7-5.2,28.1-14.2,39.7c-3.9,5.1-8.6,9.6-13.3,14.8c-2-1.9-3.7-3.2-5.1-4.7c-8.9-10.1-16.2-21.1-20.4-33.9
			c-1.7-5.1-3.1-10.1-3-15.6c0.2-22.8,0.2-45.6,0-68.5c-0.1-15.3-1.4-30.6-0.7-45.9c1.2-26.1,0.3-52.3,0.8-78.4
			c0-1.3,0.3-2.6,0.4-4.1C508.3,433.1,517.8,432.9,528.2,432.9 M528.2,423.9L528.2,423.9c-7.1,0-19.8,0.1-24,0.7l-7,0.9l-0.8,7
			c0,0.4-0.1,0.8-0.2,1.2c-0.1,1.1-0.3,2.3-0.3,3.7c-0.2,10.1-0.1,20.3-0.1,30.2c0,15.7,0.1,32-0.7,47.9c-0.5,9.9-0.1,19.8,0.3,29.4
			c0.2,5.6,0.4,11.3,0.5,16.9c0.2,23,0.1,46,0,68.3c-0.1,7,1.8,13.2,3.5,18.4c4.2,12.7,11.4,24.8,22.2,37.1c1.3,1.5,2.7,2.7,4,3.8
			c0.6,0.5,1.1,1,1.8,1.6l6.7,6.1l6.1-6.7c1.4-1.6,2.9-3.2,4.3-4.7c3.2-3.4,6.4-6.9,9.4-10.7c10.6-13.7,16-28.9,16.1-45.2
			c0.2-48.5,0.1-97.8,0.1-145.5c0-15.3,0-30.6,0-45.9c0-1.5-0.1-2.8-0.2-4c0-0.4-0.1-0.8-0.1-1.2l-0.4-6.5l-6.3-1.6
			C561.5,424.7,555.2,423.9,528.2,423.9L528.2,423.9z"/>
	</g>
	<g>
		<g>
			<path class="st0" d="M223.6,89.9c10.5,0,20.1,0.2,23.1,0.7c0.1,1.8,0.4,3.7,0.4,5.6c0,20,0,40,0,60c0,2.8,0.3,5.6,0.5,8.9
				c16.1,0,31.8,0,47.5,0c1.4,2.9,1.2,5.3,0.5,7.7c-2.7,9.6-8.1,17.3-15.9,23.6c-8.1,6.5-16.9,11.8-26.5,15.6
				c-2.1,0.9-4.3,1.5-6.9,2.4c-0.1,2.1-0.3,4-0.3,6c0,17.2-0.1,34.3,0,51.5c0.1,12.1-2.9,23.3-8.9,33.8
				c-4.8,8.5-11.2,15.6-19.1,22.4c-5.8-5.4-10.6-11-14.7-17.3c-6.8-10.6-11.4-22.2-13.9-34.5c-0.4-1.8-0.6-3.6-0.6-5.4
				c0-58.3,0-116.6,0-174.9c0-1.6,0-3.3,0-4.7C191.3,90.3,208.4,89.9,223.6,89.9 M223.6,80.9C223.6,80.9,223.6,80.9,223.6,80.9
				c-7.9,0-16,0.1-22.5,0.3c-12.3,0.4-13.9,1-15.2,1.5l-6,2.1v6.3v1.5v3.3l0,22.7c0,49.9,0,101.5,0,152.2c0,2.4,0.3,4.8,0.7,7.2
				c2.8,13.6,7.9,26.3,15.1,37.6c4.3,6.7,9.5,12.9,16.1,19l5.9,5.5l6.1-5.3c9.3-8,16-15.8,21-24.8c6.8-12,10.2-24.9,10-38.4
				c-0.1-12.8-0.1-25.8-0.1-38.4c0-4.2,0-8.3,0-12.5c0.5-0.2,1-0.4,1.5-0.6c10.3-4.1,19.7-9.6,28.8-17c9.5-7.6,15.9-17.1,18.9-28.2
				c0.9-3.3,1.8-8.3-1.1-14.1l-2.5-5H295h-39c0-10.8,0-21.5,0-32.3c0-9.2,0-18.4,0-27.5c0-1.7-0.1-3.3-0.3-4.7c0-0.5-0.1-1-0.1-1.5
				l-0.5-7.1l-7-1.2C243.9,81,232.5,80.9,223.6,80.9L223.6,80.9L223.6,80.9z"/>
		</g>
		<g>
			<path class="st0" d="M335.1,89.9c10.8,0,20.6,0.2,23.5,0.6c0.1,1.8,0.4,3.7,0.4,5.6c0,18.2,0,36.3,0,54.5c0,42.5,0,85,0,127.5
				c0,18.4-6.8,34-19.5,47.1c-3.2,3.3-6.6,6.6-10.3,10.3c-5.8-4.9-10.1-10.3-13.8-15.9c-6.8-10.3-12-21.5-14.7-33.7
				c-0.5-2.2-0.7-4.6-0.7-6.9c-0.1-19.8,0-39.7-0.1-59.5l0-26.8c0.1-32,0-64,0-96c0-1.9,0-3.9,0-5.6
				C302.5,90.3,319.8,89.9,335.1,89.9 M335.1,80.9c-9.7,0-32.7,0.1-37.3,1.3l-6.8,1.7v7l0,1.7l0,3.9c0,7.7,0,15.5,0,23.2
				c0,23.8,0,48.5,0,72.7l0,26.8c0,10.2,0,20.6,0,30.6c0,9.5,0,19.3,0,29c0,3,0.3,6,1,8.8c2.8,12.5,8.1,24.9,15.9,36.7
				c3.1,4.6,8,11.5,15.5,17.9l6.3,5.3l5.8-5.8c1.2-1.2,2.4-2.3,3.5-3.4c2.4-2.4,4.7-4.6,6.9-6.9c14.6-15.1,22.1-33,22.1-53.3
				c0-29.9,0-60.4,0-89.8c0-12.5,0-25.1,0-37.6l0-13.4c0-13.5,0-27.4,0-41.1c0-1.7-0.2-3.3-0.3-4.8c-0.1-0.5-0.1-1-0.1-1.5l-0.6-7.3
				l-7.2-1C355.6,81,342.5,80.9,335.1,80.9L335.1,80.9z"/>
		</g>
		<g>
			<path class="st0" d="M18.7,21.9c0.8,0,1.7,0,2.5,0c73.8,0,147.7,0,221.5,0c18.5,0,36.9,0,55.4,0c2,0,3.9,0,6.5,0
				c-0.8,1.6-1.1,2.7-1.8,3.6c-7,9.8-14.9,18.8-23.8,26.8c-12.2,10.9-25.5,19.9-41.9,23c-4.7,0.9-9.5,1.5-14.3,1.5
				C214.3,77,205.7,77,197,77c-10.2,0-20.5,0-31,0c0,2,0,4,0,6c0,63,0,125.9-0.1,188.9c0,19-7.1,35.3-20.3,48.9
				c-2.3,2.4-4.7,4.6-7.5,7.4c-1.6-1.4-3.2-2.6-4.4-4c-11.5-12.9-19.6-27.6-23.6-44.5c-0.7-3-1.1-6.2-1.1-9.4c-0.1-18.3,0-36.7,0-55
				c0-2,0-4,0-6.5c0-1.9-0.1-6.5,0-8.5c1.4-36.6,0.9-73.2,0.9-109.9c0-4.3-0.7-8.5-1.2-13.4c-2.3,0-4.3,0-6.2,0
				c-10.7,0-21.4,0-32.1,0c-16.8,0-33.6,0-50.4,0c-2,0-3.9-0.2-6.8-0.3c-0.4-18.3-0.3-35.9-0.1-53.7c1.5-0.4,2.5-0.9,3.6-1
				C17.4,22,18,21.9,18.7,21.9 M18.7,12.9L18.7,12.9c-1.1,0-2,0-2.9,0.1c-1.7,0.2-3.1,0.6-4.2,1c-0.3,0.1-0.6,0.2-1,0.3l-6.4,1.9
				L4.1,23C4,40.8,3.8,58.3,4.2,76.9l0.2,8.4l8.4,0.4c0.9,0,1.8,0.1,2.6,0.1C17,86,18.5,86,20,86c16.8,0,33.6,0,50.4,0l16,0l14.2,0
				c0.2,1.6,0.3,3,0.3,4.4c0,7,0,14,0.1,21c0.1,29.1,0.2,59.1-0.9,88.6c-0.1,1.6,0,4.5,0,6.8c0,0.8,0,1.5,0,2l0,2.3l0,4.2
				c0,4.6,0,9.3,0,13.9c0,13.5,0,27.4,0,41.1c0,3.8,0.5,7.6,1.4,11.4c4.2,17.8,12.8,34,25.6,48.4c1.3,1.4,2.6,2.6,3.8,3.6
				c0.4,0.4,0.9,0.8,1.4,1.2l6.3,5.6l6-5.9c0.9-0.9,1.8-1.7,2.6-2.5c1.8-1.7,3.5-3.3,5.1-5.1c15.1-15.6,22.8-34.2,22.8-55.2
				c0.1-45.5,0.1-91.8,0.1-136.6c0-16.4,0-32.9,0-49.3c2.2,0,4.4,0,6.6,0c5.1,0,10.3,0,15.3,0c10.4,0,18.4,0,26-0.1
				c5,0,10.3-0.6,15.9-1.7c20.6-4,36.2-16.3,46.2-25.2c9-8.1,17.5-17.6,25.1-28.3c0.9-1.3,1.5-2.6,2-3.6c0.2-0.4,0.3-0.8,0.6-1.2
				L319,13h-14.4h-6.5h-55.4L21.2,13c-0.4,0-0.7,0-1.1,0C19.7,12.9,19.2,12.9,18.7,12.9L18.7,12.9z"/>
		</g>
	</g>
	<g>
		<path class="st0" d="M223.6,89.9c10.5,0,20.1,0.2,23.1,0.7c0.1,1.8,0.4,3.7,0.4,5.6c0,20,0,40,0,60c0,2.8,0.3,5.6,0.5,8.9
			c16.1,0,31.8,0,47.5,0c1.4,2.9,1.2,5.3,0.5,7.7c-2.7,9.6-8.1,17.3-15.9,23.6c-8.1,6.5-16.9,11.8-26.5,15.6
			c-2.1,0.9-4.3,1.5-6.9,2.4c-0.1,2.1-0.3,4-0.3,6c0,17.2-0.1,34.3,0,51.5c0.1,12.1-2.9,23.3-8.9,33.8c-4.8,8.5-11.2,15.6-19.1,22.4
			c-5.8-5.4-10.6-11-14.7-17.3c-6.8-10.6-11.4-22.2-13.9-34.5c-0.4-1.8-0.6-3.6-0.6-5.4c0-58.3,0-116.6,0-174.9c0-1.6,0-3.3,0-4.7
			C191.3,90.3,208.4,89.9,223.6,89.9 M223.6,80.9c-7.9,0-16,0.1-22.5,0.3c-12.3,0.4-13.9,1-15.2,1.5l-6,2.1v6.3v4.7l0,22.7
			c0,49.9,0,101.5,0,152.2c0,2.4,0.3,4.8,0.7,7.2c2.8,13.6,7.9,26.3,15.1,37.6c4.3,6.7,9.5,12.9,16.1,19l5.9,5.5l6.1-5.3
			c9.3-8,16-15.8,21-24.8c6.8-12,10.2-24.9,10-38.4c-0.1-12.8-0.1-25.8-0.1-38.4c0-4.2,0-8.3,0-12.5c0.5-0.2,1-0.4,1.5-0.6
			c10.3-4.1,19.7-9.6,28.8-17c9.5-7.6,15.9-17.1,18.9-28.2c0.9-3.3,1.8-8.3-1.1-14.1l-2.5-5H295h-39c0-10.8,0-21.5,0-32.3
			c0-9.2,0-18.4,0-27.5c0-1.7-0.1-3.3-0.3-4.7c0-0.5-0.1-1-0.1-1.5l-0.5-7.1l-7-1.2C243.9,81,232.5,80.9,223.6,80.9L223.6,80.9z"/>
	</g>
	<g>
		<path class="st0" d="M335.1,89.9c10.8,0,20.6,0.2,23.5,0.6c0.1,1.8,0.4,3.7,0.4,5.6c0,18.2,0,36.3,0,54.5c0,42.5,0,85,0,127.5
			c0,18.4-6.8,34-19.5,47.1c-3.2,3.3-6.6,6.6-10.3,10.3c-5.8-4.9-10.1-10.3-13.8-15.9c-6.8-10.3-12-21.5-14.7-33.7
			c-0.5-2.2-0.7-4.6-0.7-6.9c-0.1-19.8,0-150.3,0-182.2c0-1.9,0-3.9,0-5.6C302.5,90.3,319.8,89.9,335.1,89.9 M335.1,80.9
			c-9.7,0-32.7,0.1-37.3,1.3l-6.8,1.7v7l0,1.7l0,3.9c0,9.7,0,28.4,0,50.4c0,49.8,0,118,0,131.9c0,3,0.3,6,1,8.8
			c2.8,12.5,8.1,24.9,15.9,36.7c3.1,4.6,8,11.5,15.5,17.9l6.3,5.3l5.8-5.8c1.2-1.2,2.4-2.3,3.5-3.4c2.4-2.4,4.7-4.6,6.9-6.9
			c14.6-15.1,22.1-33,22.1-53.3c0-30,0-60.4,0-89.9c0-12.5,0-25,0-37.6l0-13.3c0-13.5,0-27.4,0-41.2c0-1.7-0.2-3.3-0.3-4.8
			c0-0.5-0.1-1-0.1-1.5l-0.6-7.3l-7.2-1C355.6,81,342.5,80.9,335.1,80.9L335.1,80.9z"/>
	</g>
	<g>
		<path class="st0" d="M608.5,89.8c10.3,0,19.6,0.2,23.1,0.5c1,2.5,2.3,5.4,3.4,8.3c7,19.8,13.8,39.6,20.9,59.4
			c6.2,17.2,12.6,34.4,18.8,51.6c2.6,7.2,4.9,14.5,7.3,21.8c0.4,1.2,0.9,2.4,2.1,3.4c0-7.3,0-14.6,0-22.2l0-4.4
			c-0.1-1.5-0.1-3-0.1-4.5c0-35.7,0-71.3,0-107c0-2,0-3.9,0-5.7c2.3-0.7,17.4-1.1,31.4-1.1c11.2,0,21.7,0.3,24.2,0.8
			c0.1,1.5,0.3,3.1,0.3,4.7c0,60.8,0.1,121.6,0,182.4c0,14.5-5.3,27.4-14.1,38.7c-3.5,4.4-7.5,8.4-11.4,12.5c-1.2,1.2-2.9,2-4.5,3.1
			c-6-5.1-10-11.2-13.5-17.6c-7.4-13.3-12.8-27.4-17.9-41.7c-6.5-18.2-13.2-36.3-19.8-54.4c-5-13.8-10-27.5-15.1-41.3
			c-4.3-11.7-8.6-23.4-12.8-35c-0.2,0-0.5,0.1-0.7,0.1c0,1.6,0,3.2,0,4.8c0,12.2,0.1,24.3,0,36.5c-0.3,29.5-0.4,58.9-1.1,88.4
			c-0.5,23.3-9.7,40.8-28,56.2c-1.8-1.7-3.9-3.3-5.6-5.2c-11.3-12.9-18.7-27.8-22.7-44.4c-0.4-1.4-0.6-2.9-0.6-4.4
			c0-18.7,0-37.3,0-56l0-11.4c0-36.7,0-73.3,0-110c0-1.9,0-3.9,0-5.6C574.6,90.2,592.7,89.8,608.5,89.8 M672,207.6l1.1,3.2
			C672.7,209.7,672.3,208.6,672,207.6l-0.8-2.5C671.4,205.9,671.7,206.7,672,207.6 M659.1,215.3l0.6,1.7
			C659.5,216.4,659.3,215.9,659.1,215.3l-2.1-5.7C657.7,211.5,658.4,213.4,659.1,215.3 M608.5,80.8l0,9L608.5,80.8
			c-7.9,0-33.9,0.1-38.8,1.4l-6.8,1.7v7l0,1.7l0,4l0,110l0,11.4c0,17.8,0,36.9,0,56c0,2,0.3,4.2,0.9,6.5
			c4.5,18.4,12.8,34.6,24.7,48.2c1.6,1.8,3.2,3.2,4.6,4.5c0.6,0.5,1.1,1,1.6,1.4l5.8,5.4l6.1-5.1c20.7-17.5,30.7-37.4,31.2-62.8
			c0.5-23,0.7-46.3,0.9-68.8c0-4.2,0.1-8.3,0.1-12.5c3.8,10.3,7.5,20.5,11.3,30.8c1.8,5,3.6,10,5.5,14.9
			c4.7,12.9,9.6,26.3,14.3,39.4c4.7,13.2,10.4,28.6,18.5,43.1c3.6,6.4,8.2,13.8,15.6,20l5.2,4.4l5.7-3.8c0.3-0.2,0.8-0.5,1.2-0.7
			c1.4-0.8,3.2-1.9,4.8-3.6c0.6-0.6,1.2-1.2,1.8-1.8c3.5-3.6,7.1-7.2,10.3-11.4c10.6-13.6,15.9-28.5,16-44.2
			c0.1-47.4,0.1-95.5,0.1-142.1c0-13.5,0-26.9,0-40.4c0-1.5-0.1-2.9-0.2-4.1c0-0.4-0.1-0.8-0.1-1.2l-0.5-6.7l-6.6-1.4
			c-3.1-0.7-11.9-1-26.1-1c-19.4,0-30.9,0.5-34.2,1.5l-6.3,2v6.6v1.8v3.9l0,13.6c0,24.6,0,49.2,0,73.8c-0.2-0.5-0.4-1-0.5-1.5
			c-3.3-9.1-6.8-18.5-10.1-27.7c-4.2-11.8-8.4-23.9-12.5-35.6c-2.7-7.8-5.5-15.8-8.3-23.7c-0.8-2.3-1.7-4.5-2.6-6.4
			c-0.3-0.8-0.7-1.6-1-2.3l-2-5l-5.3-0.6C627.8,80.9,615.4,80.8,608.5,80.8L608.5,80.8z"/>
	</g>
	<g>
		<path class="st0" d="M639.6,434.3c0.1,2.1,0.4,4,0.4,5.9c0,18-0.8,36,0.2,54c1.2,20.5,1.2,41,0.5,61.4c-0.9,25.3,0,50.6-0.8,75.9
			c-0.3,9.5-3.5,18.3-8.5,26.3c-3.8,6-8.4,11.5-12.9,17.1c-1.4,1.7-3.6,2.8-5.5,4.3c-5.2-4.2-9.4-8.9-13-14.1
			c-7.2-10.4-12.1-21.8-15.2-34c-0.6-2.2-0.8-4.6-0.8-6.9c-0.1-18.5,0-37-0.1-55.5c0-4.1-0.6-8.3-0.8-12.4c-0.1-1.7-0.1-3.3,0-5
			c0.3-5.5,0.9-10.9,0.9-16.4c0.1-31.3,0-62.6,0-94c0-2,0-3.9,0-6.6C602.9,434.3,621,434.3,639.6,434.3 M648,425.3h-8.4H584h-9v9
			l0,2.4l0,4.2c0,8,0,15.9,0,23.9c0,23,0,46.7,0,70.1c0,3.2-0.2,6.5-0.5,10c-0.1,2-0.3,4-0.4,6c-0.1,2-0.1,4,0,6
			c0.1,1.6,0.2,3.2,0.4,4.8c0.2,2.5,0.4,4.9,0.4,7.1c0.1,10,0.1,20.2,0.1,30.1c0,8.3,0,16.9,0,25.4c0,3.2,0.4,6.2,1.1,9
			c3.4,13.7,9,26.1,16.5,36.9c4.3,6.2,9.1,11.4,14.8,16l5.4,4.4l5.6-4.2c0.4-0.3,0.9-0.6,1.4-1c1.7-1.1,3.9-2.5,5.7-4.8l1.3-1.6
			c4.2-5.1,8.5-10.5,12.2-16.3c6.3-10,9.6-20.4,9.9-30.8c0.3-12,0.3-24,0.3-35.7c0-13.2,0-26.8,0.5-40.1c0.8-21.4,0.6-42.3-0.5-62.2
			c-0.7-12-0.5-24.3-0.4-36.3c0.1-5.6,0.2-11.4,0.1-17.2c0-1.7-0.1-3.2-0.3-4.7c-0.1-0.6-0.1-1.2-0.1-1.8L648,425.3L648,425.3z"/>
	</g>
	<g>
		<path class="st0" d="M694.1,432.9c8.9,0,17,3.5,24.7,7.5c4.8,2.5,9.4,5.7,13.5,9.4c6.7,5.9,11.4,13.3,14,22
			c4.7,16.2,1.4,31.2-6.9,45.5c-4.8,8.2-10.4,15.7-18.6,21.4c-5.7-6.9-12.8-12.5-17-20.6c-6.1-11.6-11-23.4-12.8-36.5
			c-0.6-4.2-2.6-8.3-4.6-12.1c-6.3-12-15.3-21.7-26.3-29.6c-2.8-2-7.2-3.2-9.7-3.7c-0.7-0.2-1.3-0.7-1.6-1.3
			c-0.1-0.1-0.1-0.3-0.1-0.4c0-0.2,0-0.2,0-0.4c0.4,0,0.7,0,1.1,0c1,0,1.9-0.1,2.9-0.1c0,0,0,0,0,0c5.2,0,10.3,0,15.5,0
			c4.8,0,9.7,0,14.5-0.1c3,0,5.9-0.7,8.9-0.9C692.6,433,693.4,432.9,694.1,432.9 M694.1,423.9c-1,0-2,0-3,0.1
			c-1.5,0.1-2.9,0.3-4.2,0.5c-1.5,0.2-2.9,0.4-4.1,0.4c-4.2,0-8.8,0.1-14.4,0.1c-3.4,0-6.9,0-10.3,0l-5.2,0h0l0,0
			c-0.6,0-1.1,0-1.7,0c-0.4,0-0.8,0-1.2,0c-0.2,0-0.4,0-0.5,0l-9.7-0.6l0.1,9.4c-0.1,1.3,0.1,2.6,0.5,3.9c1.2,3.6,4.4,6.4,8.2,7.2
			c3.2,0.7,5.5,1.6,6.3,2.3c10.4,7.5,18.1,16.2,23.5,26.5c1.6,2.9,3.2,6.3,3.6,9.1c1.7,12.5,6,24.7,13.7,39.5
			c3.4,6.5,8,11.3,12.4,16c2,2.1,3.9,4.1,5.6,6.2l5.3,6.4l6.8-4.7c10.6-7.3,16.9-16.8,21.3-24.3c10.2-17.5,12.8-35.2,7.7-52.5
			c-3-10.2-8.6-19-16.6-26.2c-4.5-4.1-9.8-7.7-15.3-10.6C715,428.3,705.3,423.9,694.1,423.9L694.1,423.9z"/>
	</g>
	<g>
		<path class="st0" d="M676.6,538c6.8,0,13.7,0,20.5,0.1c2.4,0,5,0.6,7.3,1.3c11.7,3.8,22.5,9.2,30.9,18.5
			c7.9,8.8,12.5,19.2,12.6,31.2c0.1,13.2-0.1,26.3,0.1,39.5c0.1,6.3-1.4,12.2-3.5,18c-3.9,11.2-11,20.4-18.8,29.1
			c-1.4,1.6-3.2,2.8-5.4,4.6c-3.6-4-7.2-7.7-10.3-11.7c-9.9-12.7-15.6-27.4-19-43c-0.3-1.3-0.2-2.7-0.2-4c0-8.7-0.4-17.3,0.1-26
			c0.5-8.8-1.6-16.7-5.9-24.3c-6.1-10.7-13.7-20.1-23.9-27c-3.4-2.3-5.4-3.2-9.5-5.2c0.2-1-0.3-1.1,0.5-1.1
			C660.3,538,668.5,538,676.6,538 M676.6,529c-7.3,0-14.5,0-21.8,0l-2.7,0c-3.7,0-5.9,1.7-7.2,3.1c-0.9,1-2.2,3-2.3,5.9l-1.3,6.1
			l6.4,3l0.2,0.1c3.8,1.8,5.4,2.6,8.2,4.4c8.1,5.4,15,13.3,21.1,24c3.6,6.3,5.1,12.5,4.8,19.3c-0.4,6.4-0.3,12.7-0.2,18.9
			c0,2.5,0.1,5.1,0.1,7.6c0,0.2,0,0.5,0,0.8c0,1.3-0.1,3.1,0.4,5.1c3.9,18.5,10.7,33.8,20.7,46.6c2.4,3,4.9,5.8,7.4,8.5
			c1.1,1.2,2.2,2.4,3.3,3.6l5.8,6.6l6.7-5.7c0.6-0.5,1.2-1,1.8-1.5c1.5-1.2,3-2.4,4.4-4c7.6-8.4,15.9-18.9,20.6-32.1
			c1.9-5.5,4.1-12.8,4-21.1c-0.1-7.1-0.1-14.3-0.1-21.3c0-5.9,0-12.1,0-18.1c-0.1-13.7-5.2-26.2-14.9-37.1
			c-10.9-12.2-25.1-17.8-34.8-21c-3.5-1.2-6.9-1.8-10.1-1.8C691,529,684.3,529,676.6,529L676.6,529z"/>
	</g>
	<g>
		<g>
			<path class="st0" d="M524.7,89.9c12.8,0,25.2,0.3,27.3,0.9c0,5.1,0,10.2,0,15.4c0,16.8-0.1,33.7,0,50.5
				c0.2,17.1,1.5,34.3,0.7,51.4c-1.2,26.1-0.2,52.3-0.8,78.4c-0.2,9.3-4,17.5-8.5,25.3c-5,8.6-11.9,15.5-19.2,22.2
				c-0.3,0.3-0.9,0.4-1.5,0.7c-4.8-3.1-8.1-7.8-11.5-12.2c-8-10.6-13.4-22.6-16.6-35.5c-0.6-2.4-0.8-4.9-0.8-7.4
				c-0.1-21.7,0-43.3-0.1-65c-0.1-8.8-1.3-17.6-0.8-26.4c1.7-31.3,0.3-62.6,0.8-93.9c0-1.1,0.2-2.3,0.3-3.3
				C496.3,90.3,510.8,89.9,524.7,89.9 M524.7,80.9c-7.3,0-14.4,0.1-20,0.3c-9.9,0.3-11.9,0.8-13.4,1.3l-5.5,1.9l-0.6,5.8
				c0,0.3-0.1,0.5-0.1,0.8c-0.1,0.9-0.2,2-0.3,3.3c-0.2,12-0.1,24.1,0,35.8c0.1,19,0.3,38.6-0.8,57.7c-0.3,5.7,0,11.3,0.3,16.7
				c0.2,3.6,0.4,6.9,0.4,10.3c0.1,12.5,0.1,25.3,0.1,37.6c0,9,0,18.2,0,27.4c0,3.3,0.4,6.5,1.1,9.5c3.5,14.4,9.6,27.5,18.1,38.8
				c0.3,0.4,0.6,0.8,0.9,1.2c3.3,4.5,7.1,9.5,12.9,13.2l4.2,2.7l4.5-2.1l0.1,0c0.7-0.3,2.2-0.9,3.7-2.2c7-6.5,15-14.3,20.8-24.3
				c4.7-8,9.5-17.8,9.7-29.6c0.3-11.1,0.2-22.4,0.2-33.3c0-14.7-0.1-30,0.6-44.9c0.5-11.3,0.1-22.7-0.2-33.8
				c-0.2-6-0.4-12.1-0.5-18.1c-0.1-11.6-0.1-23.5-0.1-35c0-5.2,0-10.3,0-15.5l0-10.7l0-4.6v-6.7l-6.5-1.9
				C553.4,81.9,550.2,80.9,524.7,80.9L524.7,80.9z"/>
		</g>
		<g>
			<path class="st0" d="M415.6,89.8c9.6,0,18.5,0.2,22.2,0.7c0,55.6,0,111,0,167.1c2.8,0.3,5.6,0.4,8.2,0.4c2.6,0,5.1-0.1,7.6-0.1
				c0.5,0,1,0,1.5,0c2.3,0,4.6,0,6.9,0c3.5,0,7.1,0,10.6,0c5.6,0,11.3,0,17.2,0c-0.6,3.2-2.9,5.2-4.7,7.4
				c-11.5,13.7-25.8,23.8-41.4,32.3c-1.2,0.6-2.2,1.7-3.4,2.1c-8.1,2.5-12.5,8.8-16.6,15.6c-4,6.5-8.4,12.7-13.1,19.6
				c-2.7-2.6-5.4-4.8-7.5-7.4c-11.2-13.4-18.4-28.8-21.7-46c-0.3-1.5-0.4-3-0.4-4.5c0-19,0-38,0-57c0-1.6,0.2-3.3,0.3-5.2l-0.1-44.3
				c-0.4-24.4-0.1-48.8-0.2-73.3c0-2.1,0.2-4.2,0.3-6.1C383.7,90.3,400.6,89.8,415.6,89.8 M415.6,80.8L415.6,80.8
				c-7.7,0-15.8,0.1-22.3,0.4c-11.3,0.4-13.6,1-15.3,1.7l-5.4,2.1l-0.3,5.8c0,0.5-0.1,1.1-0.1,1.7c-0.1,1.5-0.2,3.2-0.2,5
				c0,7.5,0,15,0,22.4c0,16.7-0.1,33.9,0.2,51l0.1,43.9c0,0.5-0.1,0.9-0.1,1.4c-0.1,1.3-0.2,2.6-0.2,4c0,20.3,0,38.9,0,57
				c0,2.4,0.2,4.3,0.5,6.2c3.7,18.8,11.7,35.7,23.7,50c1.8,2.2,3.8,4,5.7,5.8c0.8,0.8,1.6,1.5,2.4,2.3l7.7,7.6l6-9
				c1.4-2.1,2.8-4.2,4.2-6.2c3.2-4.7,6.2-9.1,9.1-13.8c4.1-6.8,6.9-10.2,11.5-11.6c2.2-0.7,3.8-1.8,4.8-2.5c0.1-0.1,0.3-0.2,0.4-0.3
				c18.9-10.4,32.8-21.3,43.9-34.4c0.3-0.3,0.6-0.7,0.9-1c2-2.2,4.9-5.5,5.8-10.6l1.9-10.6h-10.8h-17.2c-1.8,0-3.6,0-5.3,0
				c-1.8,0-3.5,0-5.3,0c-2.6,0-4.7,0-6.7,0c-0.5,0-1,0-1.6,0c-1.3,0-2.6,0-3.9,0c-1,0-2,0-3,0V90.5v-7.9l-7.8-1
				C433.8,80.9,422.1,80.8,415.6,80.8L415.6,80.8z"/>
		</g>
	</g>
	<g>
		<path class="st0" d="M524.7,89.9c12.8,0,25.2,0.3,27.3,0.9c0,5.1,0,10.2,0,15.4c0,16.8-0.1,33.7,0,50.5
			c0.2,17.1,1.5,34.3,0.7,51.4c-1.2,26.1-0.2,52.3-0.8,78.4c-0.2,9.3-4,17.5-8.5,25.3c-5,8.6-11.9,15.5-19.2,22.2
			c-0.3,0.3-0.9,0.4-1.5,0.7c-4.8-3.1-8.1-7.8-11.5-12.2c-8-10.6-13.4-22.6-16.6-35.5c-0.6-2.4-0.8-4.9-0.8-7.4
			c-0.1-21.7,0-43.3-0.1-65c-0.1-8.8-1.3-17.6-0.8-26.4c1.7-31.3,0.3-62.6,0.8-93.9c0-1.1,0.2-2.3,0.3-3.3
			C496.3,90.3,510.8,89.9,524.7,89.9 M524.7,80.9v9V80.9c-7.3,0-14.4,0.1-20,0.3c-9.9,0.3-11.9,0.8-13.4,1.3l-5.5,1.9l-0.6,5.8
			c0,0.3-0.1,0.5-0.1,0.8c-0.1,0.9-0.2,2-0.3,3.3c-0.2,12-0.1,24.1,0,35.8c0.1,19,0.3,38.6-0.8,57.7c-0.3,5.7,0,11.3,0.3,16.7
			c0.2,3.6,0.4,6.9,0.4,10.3c0.1,12.5,0.1,25.3,0.1,37.6c0,9,0,18.2,0,27.4c0,3.3,0.4,6.5,1.1,9.5c3.5,14.4,9.6,27.5,18.1,38.8
			c0.3,0.4,0.6,0.8,0.9,1.2c3.3,4.5,7.1,9.5,12.9,13.2l4.2,2.7l4.5-2.1l0.1,0c0.7-0.3,2.2-0.9,3.7-2.2c7-6.5,15-14.3,20.8-24.3
			c4.7-8,9.5-17.8,9.7-29.6c0.3-11.1,0.2-22.4,0.2-33.3c0-14.7-0.1-30,0.6-44.9c0.5-11.3,0.1-22.7-0.2-33.8
			c-0.2-6-0.4-12.1-0.5-18.1c-0.1-11.6-0.1-23.5-0.1-35c0-5.2,0-10.3,0-15.5l0-10.7l0-4.6v-6.7l-6.5-1.9
			C553.4,81.9,550.2,80.9,524.7,80.9L524.7,80.9z"/>
	</g>
	<g>
		<path class="st0" d="M768.9,89.9c2,0,4,0.1,6,0.1c0.4,0,0.8,0,1.2,0c1.8,0,3.6-0.1,5.5-0.1c2.8,0,5.7,0,8.5,0c2.8,0,5.7,0,8.5,0
			c1.8,0,3.6,0,5.5,0c4.6,0,9.2,0.1,14.2,0.2c0.3,2.2,0.6,3.7,0.6,5.3c0,34.3,0.2,68.7-0.2,103c-0.1,5.9,0.6,11.7,0.3,17.5
			c-0.3,5.8-0.1,11.7-0.1,17.5c0,6,0,12,0,18c0,1.2,0.2,2.3,0.3,4.1c15.4,0,30.3,0,45.7,0c-0.4,1.2-0.4,2-0.9,2.6
			c-3.3,3.8-6.5,7.5-10,11.1c-4.8,5-9.8,9.9-14.8,14.8c-6.4,6.2-13.3,11.6-21.4,15.3c-2.8,1.3-4.5,3.2-5.7,5.9
			c-4,9.1-10.2,16.7-17,23.8c-0.7,0.7-1.4,1.4-2.2,2c-0.4,0.3-0.9,0.4-1.8,0.9c-3.7-2.2-6.7-5.6-9.5-9
			c-9.8-12.3-16.1-26.4-19.5-41.7c-0.4-1.6-0.4-3.3-0.4-5c0-60.2,0-120.3,0-180.5c0-1.6,0-3.3,0-5.4C764.3,90,766.6,89.9,768.9,89.9
			 M768.9,80.9c-2.3,0-5.3,0.1-8.7,0.8l-7.2,1.5v7.3v2.1v3.3l0,22.5c0,52.7,0,105.3,0,158c0,2,0,4.4,0.6,6.9
			c3.8,17.2,10.9,32.4,21.2,45.4c2.8,3.5,6.7,7.9,11.8,11.1l4.1,2.5l4.4-2c0.2-0.1,0.4-0.2,0.5-0.2c0.7-0.3,1.9-0.8,3.2-1.8
			c1.1-0.9,2.2-1.9,3.1-2.8c6.6-7,14-15.6,18.7-26.4c0.4-0.9,0.6-1.1,1.2-1.3c8.1-3.7,15.7-9.1,23.9-17.1c5.5-5.3,10.4-10.2,15-15
			c3.3-3.4,6.3-6.9,9.3-10.4l1-1.1c1.7-2,2.2-4.1,2.5-5.2c0-0.2,0.1-0.4,0.1-0.5l3.8-11.8H865h-37c0-2.9,0-5.7,0-8.6l0-4.6
			c0-1.8,0-3.7,0-5.5c-0.1-4-0.1-7.8,0.1-11.5c0.2-3.8,0.1-7.4-0.1-11c-0.1-2.4-0.2-4.7-0.2-7c0.3-27,0.3-54.4,0.2-80.9
			c0-7.4,0-14.8,0-22.2c0-1.7-0.2-3.2-0.4-4.6c-0.1-0.5-0.2-1.1-0.2-1.8l-0.9-7.8l-7.9-0.1c-1.6,0-3.1,0-4.6-0.1
			c-3.4-0.1-6.5-0.1-9.7-0.1c-1.8,0-3.7,0-5.5,0c-1.4,0-2.9,0-4.3,0c-1.4,0-2.8,0-4.3,0c-1.4,0-2.8,0-4.2,0c-1.4,0-2.9,0-4.3,0
			c-2.2,0-4,0-5.7,0.1c-0.3,0-0.7,0-1,0c-0.9,0-1.8,0-2.8,0C771.1,80.9,770,80.9,768.9,80.9L768.9,80.9z"/>
	</g>
	<g>
		<path class="st0" d="M857.5,89.8c5.2,0,10.4,0.1,15.5,0.3c17,0.8,32.3,6.5,43.5,20.1c5.9,7.1,9.3,15.5,10.3,24.6
			c0.9,7.7,1.1,15.6,1.1,23.4c0.1,39.5,0.1,79,0,118.5c0,16.8-5.9,31.5-16.4,44.5c-3.2,4-6.4,8-10.8,11.1c-3.9-1.7-6.5-4.9-8.9-7.9
			c-10.1-12.6-17.1-26.9-20.3-42.9c-0.5-2.3-0.6-4.6-0.6-6.9c0-42.8-0.1-85.6,0.1-128.4c0-9.7-3-18.3-7.5-26.5
			c-4.2-7.7-10.1-14.1-16.7-19.7c-4.8-4.1-10.2-7.5-16.9-7.7c-0.4,0-0.8-0.4-1.3-0.6c0-0.3,0-0.7,0-1c1.4-0.1,2.9-0.3,4.3-0.3
			C841.2,90,849.4,89.8,857.5,89.8 M857.5,80.8c-4.3,0-8.6,0.1-12.8,0.1c-3.8,0-7.8,0.1-11.7,0.1c-1.4,0-2.7,0.1-3.8,0.2
			c-0.4,0-0.8,0.1-1.2,0.1L820,82l-0.2,8.1l0,0.5l0,0.5l-0.1,5.7l4.9,2.4c0.8,0.5,2.7,1.6,5.3,1.7c3.5,0.1,6.9,1.7,11.3,5.5
			c6.8,5.9,11.5,11.4,14.6,17.2c4.5,8.2,6.4,15.1,6.4,22.2c-0.2,34.7-0.1,70-0.1,104.1c0,8.1,0,16.3,0,24.4c0,3.3,0.3,6.1,0.8,8.7
			c3.4,17,10.8,32.7,22.1,46.7l0.2,0.2c2.6,3.3,6.3,7.8,12.2,10.4l4.6,2l4.1-2.9c5.4-3.8,9.2-8.5,12.6-12.6l0.1-0.1
			c12.2-15.1,18.4-32,18.4-50.1c0-38.7,0.1-78.7,0-118.5c0-7.7-0.2-16-1.1-24.4c-1.3-11-5.5-21.1-12.3-29.3
			c-12-14.5-28.8-22.3-50-23.3C868.7,80.9,863.6,80.8,857.5,80.8L857.5,80.8z"/>
	</g>
	<g>
		<path class="st0" d="M1036,89.9c37.2,0,73.5,0.3,75.7,1c-1.9,5.1-5.2,9.2-8.4,13.3c-11.2,14.4-25.7,24.6-42.3,31.7
			c-12,5.1-24.4,8.5-37.6,9.2c-4.3,0.2-8.5,0.9-13.1,1.5c0,5.3,0,10.4,0,16c2,0.1,3.9,0.4,5.8,0.4c18.6,0,37.2,0,55.8,0
			c10.9,0,21.9,0,32.8,0c0.1,0,0.2,0,0.3,0c2,0,3.9,0,6.3,0c0.2,3.1-0.9,5.3-2.1,7.4c-5.8,10.3-12.5,20-21.3,28.1
			c-5.5,5.1-11.5,9.5-18.1,13.1c-13.4,7.5-27.7,12-43,13.5c-5.6,0.6-11.2,0.9-16.9,1.4c-1.2,3.2-1.6,20.7-0.4,28.1
			c1.8,0.1,3.7,0.3,5.6,0.3c31.5,0,63,0,94.5,0c1.9,0,3.8,0.1,6.7,0.2c-2.1,2.9-3.3,5-5,6.8c-9.3,9.8-18.8,19.3-30.3,26.6
			c-13.9,8.8-28.7,15.6-44.7,19.4c-9.7,2.3-19.5,4.1-29.5,4.1c-0.5,0-1,0-1.5,0c-0.1,0-0.2,0-0.2,0c-2.8,0-4.9,0.9-6.7,3.1
			c-4.2,4.9-8.5,9.7-12.9,14.6c-0.8,0.9-1.9,1.7-3.2,2.9c-2.1-1.9-4-3.4-5.6-5.2c-12.3-13.9-19.7-30.3-23.6-48.3c-0.2-1-0.2-2-0.2-3
			c0-20.2,0-40.3,0-60.5l0-47.8c-0.1-13.8-0.1-27.5,0-41.3l0-30.2c0-1.3,0.1-2.7,0.2-4c0.1-0.5,0.4-0.9,0.6-1.3
			C955.9,90.3,996.5,89.9,1036,89.9 M1036,80.9c-20.6,0-40.2,0.1-55.2,0.3c-26.9,0.3-28,0.7-29.7,1.2l-3.5,1.1l-1.6,3
			c-0.5,0.7-1.4,2.3-1.7,4.6c-0.2,1.8-0.3,3.5-0.3,5l0,30.2l0,3.1c0,12.5-0.1,25.4,0,38.2l0,47.8c0,17.8,0,37.1,0,60.5l0,0.1
			c0,1.2,0,2.9,0.4,4.7c4.4,20.5,13,38.1,25.6,52.4c1.5,1.7,3,3,4.5,4.3c0.6,0.5,1.2,1.1,1.8,1.6l6,5.5l6.1-5.4
			c0.4-0.3,0.7-0.6,1.1-0.9c0.9-0.7,1.9-1.6,2.9-2.7c3.9-4.3,8.4-9.4,12.9-14.6l0.1,0c0.6,0,1.1,0,1.7,0c9.4,0,19.1-1.3,31.6-4.3
			c16.3-3.9,31.8-10.6,47.4-20.5c12.6-8,22.7-18.2,32-28c1.6-1.7,2.8-3.4,4-5.2c0.5-0.8,1.1-1.6,1.7-2.5l9.9-13.7l-16.9-0.6
			c-1,0-1.8-0.1-2.6-0.1c-1.6-0.1-3-0.1-4.4-0.1c-13,0-25.9,0-38.9,0c-17.6,0-35.2,0-52.8,0c-0.1-3.7-0.1-7.8,0.1-11
			c3.2-0.3,6.5-0.5,9.7-0.8c16.3-1.6,31.9-6.5,46.4-14.6c7-3.9,13.6-8.7,19.8-14.4c8.4-7.7,15.7-17.3,23.1-30.3
			c1.3-2.2,3.6-6.3,3.3-12.3l-0.4-8.5h-8.6h-6.3h-0.3l-16.4,0l-16.4,0c-15.3,0-30.6,0-45.8,0c12.6-0.9,25.2-4.1,38.4-9.8
			c18.9-8.1,34.4-19.7,45.8-34.4l0.3-0.4c3.3-4.3,7.1-9.1,9.4-15.3l3.4-9.1l-9.3-2.7c-1.5-0.5-2.8-0.8-27.2-1.1
			C1073.6,81,1055.5,80.9,1036,80.9L1036,80.9z"/>
	</g>
	<g>
		<path class="st0" d="M1036.5,432c28.2,0,56.4,0,84.6,0c0.5,0,1,0.1,1.5,0.2c0.3,0.1,0.5,0.4,1.2,0.9c-0.7,1.3-1.4,2.7-2.3,4.1
			c-15.5,23.9-37.4,38.7-64.6,46.1c-10.5,2.8-21.2,4.2-32,4.8c-0.7,0-1.3,0.2-2.6,0.4c-0.8,5-0.1,10.1-0.4,15.7c34,0,67.7,0,101.5,0
			c-2.4,16.5-28.7,47.8-45.3,53.2c-17.1,8.7-34.8,12.8-53.9,12.8c-1,0-2.1,0-3.1,0c-0.1,9.6-0.1,18.7-0.1,28.4
			c1.3-0.1,5.2-2.5,6.5-2.5c0,0,0,0,0,0c32.8,0.1,65.6,0.1,98.4,0.3c0.4,0,2.1,2.6,2.5,2.9c-2.6,3.3-4.3,5.9-6.4,8.2
			c-8.5,9.2-17.7,17.6-28.1,24.6c-9.6,6.4-19.9,11.4-30.7,15.5c-12.1,4.6-24.6,7-37.3,8.4c-1.5,0.2-3,0.2-4.5,0.2
			c-1.5,0-3-0.1-4.5-0.1c-0.1,0-0.3,0-0.4,0c-2.3,0-4.1,0.9-5.7,2.6c-5.2,5.8-10.5,11.5-16.2,17.6c-1.3-0.9-2.5-1.7-3.5-2.7
			c-9.1-8.7-15.1-19.3-20-30.7c-1.2-2.7-2.2-5.6-3.1-8.4c-2-6.2-3.1-12.5-3.1-19.1c0.1-58.7,0.1-117.3,0.1-176c0-2.1,0-4.3,0-6
			c0.6-0.5,0.7-0.7,0.8-0.8c0.1-0.1,0.2-0.3,0.4-0.3c0.8-0.1,1.6-0.4,2.4-0.4C991.3,432,1013.9,432,1036.5,432 M1036.5,423
			c-22.6,0-45.3,0-67.9,0c-1.5,0-2.8,0.3-3.6,0.4c-0.1,0-0.3,0.1-0.4,0.1c-1.8,0.3-3.4,1.1-4.8,2.4c-0.1,0.1-0.3,0.2-0.5,0.5
			l-0.5,0.4l-2.9,2.7v3.9v1.8v4.3c0,13.4,0,26.7,0,40.1c0,44.5,0,90.6-0.1,135.8c0,7.2,1.1,14.3,3.5,21.8c1,3.2,2.2,6.3,3.4,9.2
			c6.3,14.6,13.3,25.3,22.1,33.7c1.2,1.1,2.3,1.9,3.3,2.6c0.3,0.2,0.7,0.5,1,0.7l6.5,4.9l5.5-6c1.6-1.7,3.2-3.4,4.7-5.1
			c3.9-4.2,7.5-8.2,11.2-12.2c1.4,0.1,2.9,0.1,4.3,0.1c2,0,3.8-0.1,5.5-0.3c15.7-1.8,28.2-4.7,39.5-9c12.5-4.8,23.1-10.1,32.5-16.4
			c10.2-6.8,19.9-15.3,29.7-26c1.7-1.8,3.1-3.7,4.6-5.8c0.7-0.9,1.4-1.9,2.3-3l5.6-7.2l-6.5-4.9c0,0-0.1-0.1-0.1-0.1
			c-1.6-2.1-4-5.2-8.6-5.2c-30.1-0.1-61.5-0.2-95.9-0.2c0-2.7,0-5.3,0-7.9c18.4-0.8,35.3-5.2,51.6-13.4
			c19.7-6.9,47.8-40.2,50.7-60.2l1.5-10.3h-10.4h-79.7c5.4-0.8,10.5-1.9,15.5-3.2c30.2-8.2,53.7-25,69.9-49.9c0.8-1.2,1.4-2.4,2-3.4
			c0.2-0.4,0.4-0.8,0.6-1.1l3.9-6.9l-6.3-4.7c-0.1-0.1-0.2-0.2-0.3-0.2c-0.6-0.5-1.9-1.5-3.8-2.1c-1.3-0.4-2.6-0.6-4-0.6
			C1092.9,423,1064.7,423,1036.5,423L1036.5,423z"/>
	</g>
	<g>
		<path class="st0" d="M857.2,432c37.5,0,74.3,0.3,76.7,0.8c-0.8,1.5-1.5,3-2.4,4.3c-15.9,24.8-38.8,39.7-67,46.8
			c-9.7,2.5-19.6,3.6-29.5,4.1c-0.7,0-1.3,0.2-2.6,0.4c-0.1,1.7-0.4,3.4-0.4,5.2c0,10.8,0.1,21.7-0.1,32.5l-0.6,31.5
			c0,13.8,0,27.2,0,41.3c0,0,0,0,0,0c12,0,24,0,36,0c6.5,0,13,0,19.4,0c-18.7,0-37.3,0-55.5,0c0,0,0,0,0,0c0.1-0.3,1.6-1.5,1.5-1.7
			c0.7-0.4,1.4-1,2.1-1.1c0.6-0.1,1.1-0.1,1.7-0.1c0.6,0,1.2,0,1.8,0c0,0,0,0,0,0c13,0,25.9,0,38.9,0c17.7,0,35.4,0,53.1,0
			c0,0,0,0,0,0c0.7,0,1.4,0,2.1,0c1.6,0,3.3,0.2,4.9,1.8c-0.6,0-1.1,0-1.7,0c0.5,0.4,1,0.8,1.5,1.2c0.1,0.4,0.2,0.9,0.4,1.3
			c-1.8,2.3-3.5,4.8-5.5,7C915.3,626,895,640,871.1,648.3c-9.9,3.5-20,6.1-30.6,6.7c-4.6,0.3-9.3,0.8-13.9,0.9
			c-2.4,0.1-4.1,0.8-5.7,2.6c-5.2,5.8-10.6,11.5-16,17.4c-3.9-1-6-4.2-8.2-6.9c-10.5-12.6-17.4-27.1-21-43.1
			c-0.5-2.2-0.8-4.6-0.8-6.9c0-60.3,0-120.7,0-181c0-1.8,0.2-3.6,0.3-5.2C777.6,432.3,817.8,432,857.2,432 M857.2,423
			c-20.6,0-40.1,0.1-55,0.2c-26.5,0.3-27.8,0.6-29.2,0.9l-6.4,1.6l-0.3,6.6c0,0.5-0.1,0.9-0.1,1.4c-0.1,1.3-0.2,2.7-0.2,4.2
			c0,54.4,0,117.8,0,181c0,2.9,0.3,5.9,1,8.8c3.9,17.7,11.6,33.5,22.8,46.9c0.3,0.3,0.5,0.7,0.8,1c2.3,2.9,5.8,7.2,12,8.8l5.2,1.4
			l3.7-4c1.5-1.6,3-3.3,4.5-4.9c3.7-4,7.5-8.1,11.2-12.2c2.9-0.1,5.7-0.3,8.4-0.5c1.8-0.1,3.6-0.3,5.3-0.4
			c10.1-0.6,20.6-2.9,33.1-7.2c24.8-8.7,46.6-23.4,64.8-43.5c1.6-1.8,3-3.6,4.3-5.4c0.3-0.4,0.6-0.8,0.9-1.2H960l-16.3-15.5
			c-4.5-4.3-9.5-4.3-11.1-4.3c-0.5,0-0.9,0-1.4,0c-0.2,0-0.5,0-0.7,0c-17.7,0-35.4,0-53.1,0l-25.7,0l-11.3,0v-29.4l0.6-31.4
			c0.1-7.1,0.1-14.2,0.1-21.1c0-2.8,0-5.6,0-8.5c9.4-0.7,17.9-2.1,25.8-4.1c31.5-8,55.8-25,72.4-50.7c0.8-1.2,1.4-2.4,2-3.5
			c0.2-0.4,0.5-0.9,0.7-1.3l5.7-10.4L936,424C934.9,423.8,931.4,423,857.2,423L857.2,423z"/>
	</g>
	<g>
		<path class="st0" d="M1235.5,85.9c5.3,0,10.7,0.1,16,0.4c11.4,0.7,22,4.7,31.7,10.9c7.3,4.7,13.3,10.5,17.3,18.2
			c6,11.8,6.7,24.1,2.8,36.7c-3.2,10.3-8.3,19.5-15.6,27.6c-2,2.2-3.8,4.6-5.9,6.7c-1,1-2.5,1.6-4,2.6c-5.7-5.4-10.8-11.3-15-17.9
			c-6.7-10.5-10.8-22-13.5-34.1c-0.6-2.6-0.5-5.3-1.4-7.8c-5.6-16.1-15.7-28.8-30-37.9c-2.8-1.8-6.2-2.7-10.3-4.4
			c1.8-0.4,2.6-0.8,3.5-0.8C1219.3,86.1,1227.4,85.9,1235.5,85.9 M1235.5,76.9v9V76.9L1235.5,76.9c-4.3,0-8.7,0.1-12.9,0.1
			c-3.8,0.1-7.7,0.1-11.5,0.1c-1.8,0-3.2,0.4-4.3,0.7c-0.4,0.1-0.8,0.2-1.2,0.3l-27.1,6.4l25.7,10.7c1.5,0.6,2.9,1.1,4.2,1.6
			c2,0.7,3.7,1.4,4.7,2c12.7,8,21.5,19.2,26.4,33.2c0.2,0.6,0.3,1.7,0.5,2.7c0.1,1.2,0.3,2.6,0.6,4.1c3.2,14.4,8,26.5,14.7,37
			c4.4,7,9.8,13.4,16.4,19.6l5.1,4.8l5.9-3.7c0.3-0.2,0.7-0.4,1.1-0.6c1.2-0.7,3-1.6,4.5-3.2c1.6-1.6,2.9-3.2,4.3-4.7
			c0.7-0.8,1.3-1.6,2-2.3c7.9-8.8,13.8-19.2,17.5-30.9c4.7-15.2,3.6-29.8-3.4-43.5c-4.4-8.6-11-15.7-20.4-21.7
			c-11.6-7.5-23.7-11.6-36.1-12.4C1247.2,77,1241.9,76.9,1235.5,76.9L1235.5,76.9z"/>
	</g>
	<g>
		<path class="st0" d="M1168.6,89c9.3,0,18.7,0,28.1,0c0.1,2.3,0.3,3.9,0.3,5.5c0,62.6,0,125.3,0,187.9c0,6.8-2,13.2-4.5,19.3
			c-4.7,11.2-11.5,21-20.8,28.9c-0.6,0.5-1.4,0.8-2.5,1.5c-1.5-1.3-3.1-2.5-4.4-3.9c-11.1-12.5-19-26.8-23-43.1
			c-0.6-2.4-0.9-4.9-0.9-7.4c-0.1-18.2,0.1-36.3-0.1-54.5c-0.1-10.6-1.3-21.3-0.8-31.9c1.7-32.5,0.2-64.9,0.8-97.4
			c0-1.4,0.2-2.9,0.4-5C1150.5,89,1159.5,89,1168.6,89 M1168.6,80c-9,0-18.1,0-27.2,0l-8.3,0l-0.7,8.2c-0.1,0.7-0.1,1.3-0.2,1.9
			c-0.1,1.3-0.2,2.5-0.3,3.8c-0.2,12.8-0.1,25.7,0,38.3c0.1,19.3,0.3,39.3-0.8,58.8c-0.4,6.9,0,13.8,0.3,20.4
			c0.2,4.2,0.4,8.1,0.4,12c0.1,10.4,0.1,21.1,0.1,31.3c0,7.6,0,15.4,0,23.1c0,3.3,0.4,6.5,1.1,9.5c4.2,17.1,12.6,32.9,25,47
			c1.3,1.5,2.7,2.7,4,3.7c0.4,0.3,0.8,0.7,1.2,1l4.9,4.3l5.6-3.3c0.3-0.2,0.5-0.3,0.7-0.4c0.8-0.4,1.9-1,3-2
			c10.1-8.7,17.9-19.6,23.2-32.3c2.4-5.9,5.2-13.7,5.2-22.8c0-30.4,0-60.9,0-91.3c0-32.2,0-64.4,0-96.6c0-1.4-0.1-2.7-0.2-4.1
			c0-0.6-0.1-1.3-0.1-2l-0.5-8.4l-8.4,0C1187.2,80,1177.9,80,1168.6,80L1168.6,80z"/>
	</g>
</g>
</svg>
