<?xml version="1.0" encoding="utf-8"?>
<!-- Generator: Adobe Illustrator 19.0.0, SVG Export Plug-In . SVG Version: 6.00 Build 0)  -->
<svg version="1.1" id="Layer_1" xmlns="http://www.w3.org/2000/svg" xmlns:xlink="http://www.w3.org/1999/xlink" x="0px" y="0px"
	 viewBox="0 0 1169.2 410.7" style="enable-background:new 0 0 1169.2 410.7;" xml:space="preserve">
<style type="text/css">
	.st0{fill:#FFFFFF;}
</style>
<g>
	<path class="st0" d="M446,11.7l-18.7,30.7c0,0-59,0-63.1,0c-0.7,0-1.2,0-1.7,0c-2.4,0-2.4,0.2-4.2,3.3
		c-2.3,3.6-72.6,121.1-72.6,121.1H214c0,0,61.7-104.3,67-113s6.3-11.3,1.7-11.3c-4.7,0-80.7,0-80.7,0l18-30.7H446 M462,2.7h-16H220
		h-5.2l-2.6,4.4l-18,30.7l-8,13.6H202h69.9c-10.5,17.5-63.3,106.7-65.6,110.8l-8,13.6H214h71.6h5.1l2.6-4.4
		c23.1-38.5,66.2-110.4,72-120h62h5.1L435,47l18.7-30.7L462,2.7L462,2.7z"/>
</g>
<g>
	<path class="st0" d="M524.2,11.7l-75,131l-84,24l89.5-155H524.2 M539.7,2.7h-15.5h-69.5h-5.2l-2.6,4.5l-89.5,155l-11.1,19.3
		l21.4-6.1l84-24l3.5-1l1.8-3.2l75-131L539.7,2.7L539.7,2.7z"/>
</g>
<g>
	<path class="st0" d="M772.7,11.7l-93,155h-65c0,0,26.5-46,33.5-56.5c4.7-7,5.6-10.5,4-10.5c-0.8,0-2.2,0.8-4,2.5
		c-5.5,5-60,64.5-60,64.5h-41c0,0,8.5-44.5,11-58c1.9-10,3.4-18.1,2.3-18.1c-0.4,0-1.1,1-2.3,3.1c-4.5,8.5-43,73-43,73h-63l87.5-155
		h74c0,0-9.5,53-11.8,63.7c-2,9.7-4.7,26.2-1.4,26.2c0.4,0,0.8-0.2,1.4-0.7c5.8-4.9,81-89.3,81-89.3H772.7 M788.6,2.7h-15.9h-89.8
		h-4l-2.7,3c-19.8,22.3-48.6,54.3-65.8,73.1c0.1-0.5,0.2-1,0.3-1.6c2.3-10.8,11.4-61.8,11.8-64l1.9-10.6h-10.8h-74h-5.3l-2.6,4.6
		l-87.5,155l-7.6,13.4h15.4h63h5.1l2.6-4.4c0.8-1.3,10.7-18,20.9-35.2c-2.8,14.6-5.5,28.7-5.5,28.9l-2,10.7h10.9h41h4l2.7-2.9
		c4.8-5.3,10.3-11.3,16.1-17.5c-2.3,3.9-3.8,6.5-4,6.9l-7.8,13.5h15.6h65h5.1l2.6-4.4l93-155L788.6,2.7L788.6,2.7z"/>
</g>
<g>
	<path class="st0" d="M962.4,11.7l-15,30.7H837.2l-20.8,34.1h97.3L898.9,104h-97.6L782,136.7h114l-19.3,30H695.3l92-155H962.4
		 M976.8,2.7h-14.4H787.3h-5.1l-2.6,4.4l-92,155l-8.1,13.6h15.8h181.3h4.9l2.7-4.1l19.3-30l8.9-13.9H896h-98.2l8.7-14.7h92.5h5.4
		l2.5-4.8l14.8-27.6l7.1-13.2h-15h-81.2l9.8-16.1h105.2h5.6l2.5-5l15-30.7L976.8,2.7L976.8,2.7z"/>
</g>
<g>
	<path class="st0" d="M339.7,175.7l-18.5,33c0,0-115.2,0-124.7,0s-14,0-19.3,8.8c-5.3,8.8-40.7,68-48.7,81.2s-11.3,21.3-3.3,21.3
		s130.9,0,130.9,0l-12.7,23.4c0,0-5,9.9-10.6,11.4c-8.7,3-128,29.3-140,32c-9,2-14.9,3.6-20,3.6c-1.7,0-3.4-0.2-5-0.6
		c-6.3-1.7-34-30-45-40.7s-9-15.3-4-24s60-104,69-119.3c9-15.3,16.3-30,46.3-30S339.7,175.7,339.7,175.7 M355,166.7h-15.4H134
		c-34,0-44.1,17.4-53.1,32.7c-0.3,0.6-0.7,1.2-1,1.8c-8.6,14.6-59,102-69,119.4c-2.5,4.4-5.6,9.8-5.2,16.4c0.5,7.8,6,14,10.7,18.6
		c1.9,1.8,4.3,4.2,7.1,7c27,26.7,36,34.4,41.9,36c2.3,0.6,4.7,0.9,7.3,0.9c5.2,0,10.6-1.2,17.5-2.8c1.4-0.3,2.9-0.7,4.5-1l5.1-1.1
		c122.8-27.2,133.2-30.2,135.7-31.1c8.5-2.5,14.2-12.5,15.9-15.8l12.7-23.3l7.3-13.3H256H131.8c1-1.9,2.4-4.3,4.3-7.6
		c5.2-8.6,22-36.7,34.3-57.2c6.9-11.5,12.6-21,14.4-24.1c2-3.3,3-3.7,3.4-3.8c1.5-0.5,4.4-0.5,8.1-0.5h124.7h5.3l2.6-4.6l18.5-33
		L355,166.7L355,166.7z"/>
</g>
<g>
	<path class="st0" d="M520.7,175.7c9.7,0,13.3,13.7,8,23c-5.3,9.3-32.3,58.7-35.3,64.3c-3,5.7-14,7.7-14,7.7s3,10-2.7,19
		c-5.7,9-35.7,60.7-35.7,60.7h-72c0,0,34.7-60.1,38-67.4c2.3-5-3.6-5.8-8.4-5.8c-2.2,0-4.1,0.2-5,0.2c-2.7,0-17.7,0.7-17.7,0.7
		l-43.7,72.3h-72.7L360,175.7C360,175.7,511,175.7,520.7,175.7 M397.9,248.9c2.1,0,23.8,0,25.4,0s4-0.3,6.4-3.9s17.6-25,19.3-27.9
		s1.6-7.5-4.3-7.6c-2,0-5.8-0.1-10-0.1c-8.4,0-18.5,0.1-18.5,0.1s-19.5,34-20.8,36.3C394.2,248,395.8,248.9,397.9,248.9
		 M520.7,166.7H360h-5.2l-2.6,4.5L251.9,345.9l-7.7,13.5h15.5h72.7h5.1l2.6-4.3l41.2-68.2c5.3-0.2,11.1-0.4,12.5-0.4
		c0.4,0,0.9,0,1.4,0c-7.2,13.2-22.9,40.6-33.9,59.5l-7.8,13.5H369h72h5.2l2.6-4.5c0.3-0.5,30-51.6,35.5-60.4
		c3.8-6.1,4.9-12.4,4.9-17.3c4.5-1.8,9.5-4.9,12.1-9.9c2.9-5.4,29.8-54.6,35.2-64.1c4.7-8.3,4.9-19.1,0.3-26.9
		C533.3,170.2,527.4,166.7,520.7,166.7L520.7,166.7z M421.4,218.5c3.7,0,8.7,0,13.3,0c0.9,0,1.7,0,2.5,0c-2.4,3.5-5.5,7.8-7.7,11
		c-3.8,5.4-6.2,8.9-7.3,10.4h-13.2C412.7,233.7,417.3,225.6,421.4,218.5L421.4,218.5z"/>
</g>
<g>
	<path class="st0" d="M629,175.7L526,350.3l-87.7,30.3l119.7-205H629 M644.8,166.7H629h-71h-5.2l-2.6,4.5l-119.7,205l-12.3,21
		l23-7.9l87.7-30.3l3.1-1.1l1.7-2.9l103-174.7L644.8,166.7L644.8,166.7z"/>
</g>
<g>
	<path class="st0" d="M914.7,175.7l-103,174.7L724,380.7l119.7-205H914.7 M930.4,166.7h-15.8h-71h-5.2l-2.6,4.5l-119.7,205l-12.3,21
		l23-7.9l87.7-30.3l3.1-1.1l1.7-2.9l103-174.7L930.4,166.7L930.4,166.7z"/>
</g>
<g>
	<path class="st0" d="M806,175.7c13.7,0,18,8.7,10.7,21.7s-27.3,47.2-27.3,47.2H718c0,0,7.3-13.2,12-21.5c4.7-8.3-2-10.3-7.7-10.3
		c-5.7,0-12,0-19.3-0.3c-0.2,0-0.3,0-0.5,0c-6.9,0-8.8,6.7-8.8,6.7s-5.3,10.7-7.7,15.7s-1,9.3,3,11.7s57,28.3,63.3,31.8
		c6.3,3.5,10.7,11.5,7,17.8c-3.7,6.3-21.7,39.7-25.3,45.3s-7,9-14.3,9c-7.3,0-153.7,0-161,0c-7.3,0-10.3-10-6.3-18s30-52,30-52H659
		c0,0-10.7,19.3-14,25.3s1.7,7.7,7.7,7.7s16.3,0,21.7,0c5.3,0,8.7-8.3,8.7-8.3s5.3-8.7,8.7-16c3.3-7.3-6-10.8-6-10.8
		S625.7,249,617,245s-1.3-19.3,2.7-27c4-7.7,17.3-32.7,20.3-36.3c3-3.7,4.7-6,18-6C671.3,175.7,792.3,175.7,806,175.7 M806,166.7
		H658c-14.9,0-19.7,2.8-24.8,9.1L633,176c-4.3,5.3-21.2,37.5-21.3,37.9c-4.8,9.2-9.9,20.9-6.8,30.1c1.4,4.2,4.3,7.3,8.3,9.2
		c4.3,2,21.6,10.3,37.7,18.2h-68.6h-5.1l-2.6,4.4c-1.1,1.8-26.2,44.4-30.3,52.6c-3.8,7.5-3.6,16.6,0.4,23.1c3.1,5.1,8.2,8,14,8h80.5
		l80.5,0c11.8,0,17.5-6.3,21.9-13.1c2.3-3.6,8.9-15.5,17.2-30.7c3.8-6.9,7-12.8,8.3-15c2.6-4.5,3.2-9.8,1.8-15.1
		c-1.7-6.2-6.3-11.9-12.2-15.2c-3.4-1.9-17.8-9-33.1-16.6c-0.1,0-0.2-0.1-0.3-0.1h66h5.2l2.6-4.5c0.2-0.3,20.1-34.4,27.4-47.3
		c6.9-12.2,5-20.4,2.2-25.2C824.5,172.9,819,166.7,806,166.7L806,166.7z M702.5,221.3C702.5,221.3,702.5,221.3,702.5,221.3l0.1,0
		c6.7,0.3,12.6,0.3,17.8,0.3c-4.6,8.2-10.3,18.5-10.3,18.5l-3,5.3c-6.2-3.1-11.4-5.7-13.2-6.7c0-0.1,0.1-0.2,0.1-0.3
		c2.3-4.8,7.5-15.3,7.6-15.4l0.5-1.1l0-0.3C702.4,221.5,702.4,221.4,702.5,221.3L702.5,221.3z M656,304.3c4.4-8,10.8-19.5,10.9-19.7
		l2.5-4.4c7.2,3.5,12.2,5.9,12.4,6l0.5,0.2l0.2,0.1c0.1,0,0.2,0.1,0.3,0.2c-3.1,6.4-7.4,13.5-7.5,13.5l-0.4,0.7l-0.2,0.6
		c-0.4,0.9-1.1,2-1.6,2.7H656L656,304.3z"/>
</g>
<g>
	<path class="st0" d="M1127.8,175.7c12.3,0,33.7,6.2,22.8,24.8c-10.8,18.7-30.3,53.5-30.3,53.5H1034c0,0,20.2-28.5,21-33
		s-1.8-9.2-10-9.2s-41,0-46,0s-5.5,1.3-7,4.2c-1.5,2.8-7.7,15.5-9,18.7c-1.3,3.2-0.8,5.3,3.3,7.8c4.2,2.5,94,47.8,98.7,50.5
		c4.7,2.7,8.7,7.3,5.3,12.7c-3.3,5.3-29.3,50.7-32.2,55.3c-2.8,4.7-7.7,5.5-12.7,6.7c-5,1.2-103.8,24.8-112,26.8
		c-2.2,0.5-4.5,0.8-6.9,0.8c-6.2,0-12.5-1.7-17.3-3.6c-6.7-2.7-69.5-24.7-77.7-28c-8.2-3.3-2.7-16.2,1.3-22.3s32.7-56.7,32.7-56.7
		h84c0,0-17.5,32-21,39.5s7,8,7,8s17.3,0.2,30.7,0.2c6.7,0,12.3-0.1,14.3-0.2c6-0.5,6.5,1,11.5-6.3s10.8-16.2,14-21.8
		c3.2-5.7,0.5-9.3-5.7-12.5c-6.2-3.2-91.7-44.3-98.7-47.8s-5.5-13.5-1.2-20s22.8-39.7,22.8-39.7s2.5-8.3,21.3-8.3
		S1115.5,175.7,1127.8,175.7 M1127.8,166.7h-183c-21.3,0-27.7,9.4-29.5,13.4c-5.3,9.5-18.9,33.6-22.2,38.6
		c-3.5,5.3-6.6,13.8-4.5,21.8c1.3,5,4.6,9,9.1,11.3c3.2,1.6,21.1,10.2,41.8,20.3c2.5,1.2,5.1,2.5,7.7,3.7h-81.6h-5.2l-2.6,4.6
		c-7.9,14-29.2,51.3-32.4,56.2c-2.3,3.5-9.4,15.6-6.2,25.8c1.4,4.5,4.6,7.9,9,9.7c4.7,1.9,25,9.1,44.7,16.1
		c14.8,5.3,30.2,10.7,33.1,11.9c4.9,1.9,12.4,4.3,20.6,4.3c3.2,0,6.2-0.3,9-1c8.8-2.2,108.2-25.9,111.9-26.8l0.9-0.2
		c5.4-1.2,12.8-2.9,17.4-10.5c1.3-2.1,6.6-11.3,12.7-21.9c7.8-13.5,17.5-30.4,19.4-33.3c2.5-3.9,3.2-8.3,2.1-12.5
		c-1.3-5-5-9.5-10.6-12.7c-2.2-1.3-17.9-9.2-43.3-22.2h74.2h5.3l2.6-4.6c0.2-0.3,19.6-35,30.3-53.4c6.4-11,4.3-19.1,1.5-24
		C1153.9,170.4,1138.8,166.7,1127.8,166.7L1127.8,166.7z M999.6,220.8h45.4c0.1,0,0.1,0,0.2,0c-3.1,5.5-11.4,17.8-18.5,28l-2.2,3.1
		c-14.3-7.3-27.4-14-32-16.4C994.5,231.3,998.2,223.7,999.6,220.8L999.6,220.8z M939.2,323.2c4.6-8.9,13.5-25.3,18.4-34.2l3.6-6.6
		c17.6,8.5,32.8,15.9,35.2,17.1c0.6,0.3,1.1,0.6,1.5,0.8c-2.6,4.5-7.2,11.7-13.2,20.4c-0.8,1.1-1.3,1.8-1.6,2.3c0,0,0,0,0,0
		c-0.8,0-1.9,0.1-3.2,0.2c-0.7,0.1-3.4,0.2-13.6,0.2C956.7,323.4,944.9,323.3,939.2,323.2L939.2,323.2z"/>
</g>
</svg>
