<?xml version="1.0" encoding="utf-8"?>
<!-- Generator: Adobe Illustrator 19.0.0, SVG Export Plug-In . SVG Version: 6.00 Build 0)  -->
<svg version="1.1" id="Layer_1" xmlns="http://www.w3.org/2000/svg" xmlns:xlink="http://www.w3.org/1999/xlink" x="0px" y="0px"
	 viewBox="0 0 3707.7 896.5" style="enable-background:new 0 0 3707.7 896.5;" xml:space="preserve">
<style type="text/css">
	.st0{fill:none;stroke:#FFFFFF;stroke-width:8;stroke-miterlimit:10;}
	.st1{fill:#FFFFFF;}
</style>
<g>
	<path class="st0" d="M3637.9,739.3c-7.3,0-14.2,0-22.3,0c-3.2,12.5-6.3,24.9-9.5,37.2c-5.9,0-11.2,0.4-16.5-0.1
		c-42.5-3.5-85.1-6.7-127.8-3.1c-28.3,2.4-56.4,6.3-83,16.4c-15.8,6-30.9,14-46.5,20.5c-24.6,10.2-49.4,19.9-74.2,29.8
		c-3,1.2-6.1,2.2-10.5,3.7c-0.9-43.7-1.7-86.3-2.6-129c-0.7-0.3-1.4-0.6-2.2-0.9c-6.9,8.3-13.7,16.5-21,25.4
		c-15.8-3.6-31.6-7.1-47.4-10.8c-35-8.1-70-16.4-105.1-24.2c-4.6-1-10.1-0.9-14.6,0.5c-20.3,6.3-40.6,12.8-60.6,20.2
		c-26.1,9.7-51.5,9.7-76.2-3.7c-5.1-2.8-8.6-1.2-12.8,1.2c-19,10.7-38.9,19.2-60.8,21.6c-10.5,1.2-21.3,0.8-31.9,1.1
		c-3.9,0.1-7.9,0-12.4,0c-3.3,9.5-6.4,18.6-9.8,28.7c-12.3-1.2-24.5-2.1-36.7-3.5c-50.7-5.7-101.5-10.4-152.5-8.7
		c-37.7,1.3-75.1,4.8-111.5,15.4c-15.9,4.7-30,11.8-42.4,23.2c-25.1,23-51,44.9-76.7,67.3c-2.7,2.3-5.4,4.6-9.4,7.9
		c-8.2-31.6-16-61.8-24.2-93.1c-53.4,7.3-106.1,16.6-160.5,24.3c-1.3-18.8,0.1-36.9-0.8-55c-1.7-0.2-2.7-0.5-3.6-0.4
		c-29.8,5.3-59.6,10.7-89.4,15.8c-18.4,3.2-36.8,5.8-55.2,8.8c-41.7,6.8-74.7-6.7-98.1-42.3c-2.4-3.6-4.9-5.9-9.5-6.1
		c-10.3-0.5-20.6-1.7-30.9-2c-3.7-0.1-8.1,0.9-11.1,3c-22.3,15.7-46.9,19.2-73.3,15.9c-36.7-4.5-73.4-8.5-110.2-12.4
		c-3.4-0.4-7,1.3-10.5,2.4c-19.4,5.9-38.6,12.4-58.2,17.7c-16.4,4.4-33.1,3.4-49.2-2.3c-5.3-1.9-9.3-1-13.9,1.9
		c-24.2,15.4-50.2,26.2-78.7,30.3c-26,3.7-51.9,2.6-77.4-3.6c-6.1-1.5-9.7-0.4-13.7,4.3c-36.4,43.3-83.9,65.4-139.1,72.7
		c-43.7,5.8-86.4,2.4-127.7-14.1c-26.2-10.4-50.3-24.5-72.3-42.1c-3.9-3.1-7-5.1-12.3-2c-34.6,19.5-72.3,28.3-111.7,30.6
		c-63.4,3.7-123.2-9.2-179.6-38.1c-5.9-3-11.7-6.4-17.4-9.8c-5.4-3.2-10.7-6.7-16.3-10.2c-2.7,1.5-5.4,2.8-7.9,4.3
		c-56.3,33-117.1,44.4-181.7,37.8c-18.6-1.9-36.9-5.6-54.7-11.3c-5.2-1.7-8.5-0.8-12.2,3.2c-43.4,46.6-97.3,73.6-159.4,84.9
		c-40.5,7.4-78.3,1.1-111.6-24.6c-21.6-16.7-37.4-37.8-47.1-63.4c-13.4-35.4-21.5-72.1-25.9-109.6c-2.8-23.5-4.7-47.1-5.8-70.7
		c-3.2-70.6,7.7-139.4,26.5-207.3c0.8-2.9,1.6-5.8,2.3-8.7c0.2-0.6,0-1.3,0-2.7c-1.8-0.7-3.8-1.8-5.9-2.2
		c-9.8-1.9-19.7-3.6-29.4-5.6c-32-6.5-55.6-24.6-72.1-52.4c-12.3-20.7-18.2-43.5-21.8-67C4.1,237.4,4.3,200,6.3,162.7
		c2.2-40.7,19.9-74.1,53-98.8c3.4-2.5,6.5-5.7,9-9.1C92.1,23.3,123.5,5.9,163,5c12.4-0.3,25.1,2.8,37.4,5.3
		C292.5,28.8,384.2,48.9,474.7,74c42.4,11.8,84.3,24.9,125.2,41.1c32.7,12.9,56.9,34.1,69.2,67.6c2.1,5.6,6.3,6,10.9,7
		c12.3,2.7,24.9,4.7,36.9,8.5c12.9,4.2,25.4,9.9,37.8,15.4c4.4,2,7.7,2.1,11.9-0.5c60.9-36.7,127.5-48.6,197.7-44.7
		c5.3,0.3,10.6,1,15.9,1.7c4.4,0.6,7.4-0.6,9.8-4.8c8.3-14.8,19.8-26.6,34-36c2.7-1.8,4.9-4.5,6.7-7.2
		c15.8-23.1,37.5-37.7,64.4-44.2c68-16.3,136.2-31.7,205.2-43.3c15.7-2.6,31.5-5.1,47.7-3.4c27.7,3,49.8,15.9,67.7,36.6
		c16.9,19.5,27.5,42.5,34.6,67c5.6,19.5,9.8,39.4,14.1,59.2c3,14.2,5.1,28.7,7.7,43.5c2.2-0.6,4.8-1,7.3-1.9
		c28.3-10.3,57.5-14.2,87.5-11.4c5.2,0.5,9.7-0.4,14.4-2.6c23.3-11,47.4-12.2,72-4.8c12.8,3.9,18,2,26.3-8.7
		c20.5-26.5,47.5-40.1,81-40.2c14.7-0.1,29.3,0.1,44,0c15.3-0.2,29.8,3,43.4,9.8c5.1,2.6,9.9,2.8,15.4,1.7c39.6-8.4,77.6-4.5,113,16
		c4.6,2.7,8.3,2.6,12.9,0.2c32-16.1,66-23.1,101.7-19.3c13.8,1.4,27.3,5.6,40.9,8.7c2.9,0.7,5.6,1.9,9.9,3.3
		c2.7-16.1-0.2-32.1,1.9-48.4c11.9,1.4,23,2.8,35.1,4.3c1.8-13.8,0-27,1.3-41.5c53.6,7.2,106.6,14.2,160.5,21.4
		c3-11.6,5.9-22.5,8.6-33.4c3.8-15.2,3.7-15.3,19.3-17.5c13.4-2,13.4-2,16.6-14.8c1.6-6.4,3.2-12.9,5-20.1
		c9.3-1.2,18.5-2.6,27.6-3.6c44.3-5,88.7-10.1,133.1-14.7c38.8-4,77.5-8,116.4-11c32.5-2.5,65.2-4.2,97.7,1
		c26,4.2,50.7,11.8,72.2,27.4c32.8,23.8,49.5,55.8,48.3,96.7c-0.6,19.4-3.2,38.5-8.2,57.2c-0.7,2.5-1.2,5.2-2,8.8
		c3.1-0.2,5.7,0.1,8-0.5c13-3.5,26.3-4.3,39.6-3.8c5.2,0.2,9.5-1,13.9-4c24.4-16.5,51-20.2,79.2-12.5c18,4.9,35.9,10,53.8,15.2
		c6.4,1.9,12.5,4.5,19.4,7.1c1.4-1.1,3.3-2.3,5-3.9c12.4-11.8,27.1-19.2,43.6-23.2c22.7-5.4,45.4-10.7,68-16.2
		c30.8-7.6,58.8-2.5,83.7,17.6c2.8,2.3,5.4,3.2,9.1,2.5c9.5-1.8,19-3.3,28.6-4.4c4.6-0.5,5.8-3.7,7.5-6.9
		c12.4-23.6,24.9-47.1,37.1-70.8c3.1-6,6.8-9.6,13.9-8.3c6,1.1,9.7-2.1,13.6-6.3c17.7-19.4,39.8-29.6,66.2-30.5
		c9.2-0.3,18,0.9,26.3,4.6c38.9,17.3,78,34.5,116.7,52.2c9.6,4.4,18.9,10,27.6,16.1c34,23.6,35.9,64.8,16.6,92.4
		c-38.2,54.8-62,116.1-78,180.6c-3.5,13.9-6.1,28-9.1,42c-0.2,0.9,0.1,1.9,0.2,2.8c45.2-0.8,90.4-1.6,133.9-2.3
		c1.8,1.6,2.1,1.7,2.3,2c0.2,0.3,0.4,0.6,0.4,0.9c0.1,1,0.3,2,0.1,3c-21,95.9-42,191.9-63,287.8
		C3639.2,735.3,3638.5,737.1,3637.9,739.3z M1394.2,623.9c1.5,0.2,2.4,0.1,2.7,0.5c1.6,1.7,3,3.6,4.4,5.4
		c13.1,17,30.1,28.2,50.7,33.6c32,8.5,62.7,5.5,91.7-11c18.4-10.5,34.2-24.2,48.9-39.4c8.6-8.9,15-7.9,21.3,2.6
		c3.6,6,7.5,11.8,11.7,17.3c3.5,4.5,8.6,6.1,14.3,5.2c3.3-0.6,6.6-1,9.8-1.9c24.9-6.7,48.6-16.2,70.5-30c1.8-1.2,3.9-1.8,6.5-3
		c3.9,10.7,11.7,14.3,21.9,15.1c12.9,1,25.8,2.9,38.7,4.4c17.9,2,35.7,4.1,53.6,5.8c14,1.3,23.4-10,20.1-23.7
		c-0.9-3.9-2.1-7.7-3.3-11.5c-13.4-44.3-22.4-89.1-17.1-135.8c2.1-18.2,3.6-36.6,10.3-53.8c2.6-6.7,6.3-13.4,11.1-18.6
		c7.4-8.1,17.7-7.1,23.9,1.9c3.3,4.8,6.2,10.5,7.3,16.2c2.7,14,5.3,28.2,6,42.4c2.1,46.4-0.7,92.6-5,138.8
		c-1.4,15.1,5.3,23.7,20.3,24.8c23.6,1.8,47.2,3.4,70.8,4.8c15.5,0.9,23-6.8,21.8-22.3c-1.6-21.6-3.5-43.2-5.1-64.8
		c-2.3-31-3.1-61.9,0.9-92.8c1.9-14.5,4.4-29,11.5-42.2c6.3-11.9,13.8-14.7,26.6-10.6c6.4,2.1,11.2,6.2,14,12
		c2.7,5.6,5.5,11.7,6.2,17.8c1.6,13.5,2.8,27.2,2.6,40.8c-0.6,41.8-8.8,82.7-17.5,123.4c-4.3,20.2-9.5,40.2-14,60.3
		c-3.3,14.8,5.4,25,20.5,24.2c3-0.2,6-0.6,8.9-1.1c10.9-1.7,21.7-3.5,32.5-5.3c24-3.9,48-7.6,72-11.8c10.1-1.7,15.2-7.5,16.3-17.4
		c0.9-8.3,1.7-16.6,2.1-24.9c1.3-25.3,2.4-50.6,3.6-75.9c0.1-2.1,0.6-4.2,0.9-6.3c1.8,2.5,2.3,5,2.9,7.5
		c10.1,44.3,35.8,67.6,81,73.1c7.2,0.9,14.4,1.4,22.9,2.2c0,22.5,0,44.7,0,68.5c16.5-2.5,31.3-4.8,47.1-7.3c0-21.1,0-40.9,0-60.8
		c4.1-1.3,7.3-2.3,10.4-3.4c20.7-7.1,39.8-17.1,56.3-31.6c22.1-19.6,35.3-43.8,37.6-73.7c0.4-5.6-1-9.4-5.4-12.9
		c-12.4-10.1-24.5-20.6-36.7-30.9c-1.7-1.4-3.6-2.4-5.4-3.6c-5.8,8.6-10.8,16.9-16.6,24.5c-9.2,12.1-20.3,22.1-34.7,27.7
		c-16.8,6.5-33.4,5.7-49.1-3.3c-10.4-5.9-13.7-13.9-11.1-25.2c3.9-17,15.6-26.8,31.3-32c7.8-2.6,16.1-3.7,24.8-5.6
		c0-7,0-14.1,0-21.4c-4.1-1.1-7.8-1.8-11.1-3.1c-8.3-3.4-17-6.2-24.5-10.9c-13.9-8.8-15.5-23.4-4.7-36c5.9-6.9,13.4-10.8,22.5-11.8
		c10.6-1.2,20.5,1,29.7,6.6c2.8,1.7,5.5,3.4,8.8,5.5c11.1-12.2,21.8-23.9,33.3-36.5c0.3,0.7,0-0.6-0.7-1.7
		c-17.2-29.3-42.2-46.5-76.5-49.1c-4.1-0.3-8.3-0.9-13-1.4c1.8-19.5,7.4-37.4,8.4-56.6c-18-2.4-35-4.6-52.8-7
		c-0.2,4.3-0.5,7.6-0.5,10.8c0,14-0.5,28,0.2,42c0.3,7.6-2.4,10.9-9.3,14c-27.2,12-45.1,31.7-47.6,62.6c-3.3,40.7,21.9,63.5,52,67.4
		c3.7,0.5,7.3,1.4,11,2.2c-9.3,4.6-18.7,6.9-27.3,10.9c-8.6,4.1-17.3,9.1-24.3,15.4c-7.3,6.5-13.8,14.6-18.8,23
		c-4.7,7.9-6.9,17.3-10.2,26c-1.3-2.2-1.6-4.1-1.8-6c-2.1-22.9-3.6-45.8-6.6-68.6c-3.6-27.1-10.3-53.6-21.5-78.8
		c-7.4-16.6-16.6-31.9-29.8-44.6c-17.5-16.9-38.7-25.1-62.6-24.2c-32.5,1.4-60.2,13.4-80.2,40.3c-7.2,9.7-15,9.3-22.9-0.1
		c-5.3-6.4-10.6-12.9-16.6-18.6c-11.3-10.7-24.5-18.4-40.3-20.6c-27.8-3.9-51.9,4.7-73,22.7c-2,1.7-3.8,3.8-5.9,5.4
		c-4.7,3.7-8.2,2.4-9-3.5c-0.6-4.9-0.3-10-0.9-15c-1.6-11.9-8-17.7-20-17.8c-14-0.2-28-0.2-42,0c-12.4,0.2-19.2,6.5-20.1,18.8
		c-3.4,47.5-7.1,95-9.7,142.6c-1.9,35.3-2.3,70.6-3.4,105.9c-0.1,3.2-0.5,6.4-0.7,9.2c-4.9-4.2-9.7-7.8-13.9-11.9
		c-14.1-14-23.5-30.9-27.2-50.3c-2.9-15.3-5-30.9-5.8-46.5c-1.4-29.1,2.4-57.9,6.3-86.6c1.8-13-1.9-19-14.7-23
		c-13.7-4.2-27.4-8.3-41.2-12.3c-13.1-3.8-19-0.9-24.5,11.5c-3.8,8.7-8.6,10.8-17.5,6.8c-25.7-11.5-51.7-11.5-78-2.8
		c-45.6,15-78.8,44.8-101.8,86.6c-10.3,18.8-17.2,39-22.1,59.8c-0.4,1.9-1.6,3.6-3.2,7.2c-1.3-4-1.9-5.8-2.4-7.7
		c-15.9-56.9-36.4-112.1-59.4-166.4c-0.8-1.8-1.6-3.7-2.1-5.6c-2-7,0.6-12.7,7.2-15.4c4-1.7,8.2-2.7,12.4-3.9
		c10.6-3,21.3-5.5,31.7-9.1c15.5-5.4,21.5-17.4,17.6-33.1c-1.1-4.2-1.9-8.4-2.8-12.7c-3.3-14.6-6.1-29.3-10-43.8
		c-3.8-14.5-8.8-28.7-17.1-41.4c-6.7-10.2-15.5-14.8-28-12.5c-24.5,4.6-49.3,8-73.7,13.1c-45.9,9.6-91.8,19.9-137.5,30.2
		c-19.5,4.4-27.1,16-22,34.3c6.6,23.7,13.7,47.3,21.6,70.6c3.4,10,8.6,19.5,14,28.6c6.9,11.6,17.5,15.9,30.8,12.4
		c8.7-2.3,17.3-4.8,25.9-7.4c11.7-3.5,16.3-1.5,20.8,10.1c5.4,14,10.8,27.9,15.8,42.1c15.9,45.6,31.6,91.2,47.5,136.8
		c6.9,19.6,2.2,37.4-7.8,54.5c-16.9,28.8-59.1,37.5-83.6,4.3c-4.3-5.9-7.7-12.5-11.4-18.7c-4.7-7.7-12.3-11.6-20.1-9.4
		c-3.7,1.1-7.3,3.3-10.4,5.6c-20.4,15.1-40.3,30.8-61,45.3c-8.6,6-10.8,12.7-8.3,22c0.4,1.6,0.8,3.2,1.2,4.8
		c6.7,27,19.1,51.2,36.7,72.5c49.5,59.8,111.5,87.2,189.5,70.3c37-8,66.5-27.3,84-61.8c6.1-12.1,9.5-25.5,13.9-38.3
		C1392.4,632.7,1393.1,628.1,1394.2,623.9z M3358.7,451c-2.5,19.7-5.3,37.5-7,55.4c-2.8,28.5-5.6,57-7.3,85.6
		c-1.6,27.6-1.9,55.3-2.2,82.9c-0.1,13.6,7,17.5,19.7,12.1c10.1-4.3,20.2-8.7,30.7-12c54.7-17.3,111-20.8,168-18.8
		c7,0.3,14,0.8,21,0.9c9.2,0.2,12.2-1.6,14.9-10c11.4-35.2,22.7-70.4,33.7-105.6c3.6-11.5-0.9-17.6-12.8-17.4
		c-13.3,0.2-26.7,0.8-39.9,1.9c-33,2.8-65.4,8.2-96.6,19.8c-13.7,5.1-14.8,4.5-14-10.5c2.7-53.7,10.9-106.6,24.1-158.7
		c18.4-72.5,46-141.1,88.4-203.3c0.8-1.1,1.6-2.2,2.2-3.4c3.7-7.1,1.9-13-5.3-16.6c-3.6-1.8-7.4-3.1-11.1-4.4
		c-32.6-10.9-66.5-13.4-100.5-14.2c-6.3-0.1-10.8,2.6-13.3,8.5c-1.2,2.8-2.7,5.4-4,8.1c-19.3,40-34.5,81.5-47.7,123.9
		c-1.2,3.7-2.5,7.3-4.1,12c-2.3-2.1-3.5-3.1-4.5-4.2c-23.2-25.7-51.9-30.5-83.9-21.6c-17.2,4.8-32.4,14.2-46.3,25.1
		c-11.8,9.3-22.7,19.6-34,29.3c-2.6,2.2-4.3,6.2-10.1,4.7c0.6-3.2,0.9-6.3,1.7-9.4c5-19,10.2-37.9,15.2-56.9
		c3.2-12.4-1.3-17.3-13.6-14.5c-22.1,5.1-44,10.7-66.1,15.6c-7.1,1.6-10.7,5.2-12.8,12c-24.8,81.1-43.3,163.4-53.7,247.6
		c-0.4,3.4-1.4,6.7-2.3,10.8c-7.9-3.9-12.8-9-16.1-15.2c-4.5-8.5-8.8-17.2-11.9-26.3c-6.4-19.1-8.8-39-10.1-58.9
		c-2.1-33.3-1.5-66.6,1.3-99.9c1-11.6,2-23.2,2.6-34.9c0.6-10.3-1.9-13.6-12-16.5c-12.5-3.6-25-7.1-37.5-10.6
		c-4.2-1.2-8.3-2.6-12.5-3.5c-8.8-1.8-13,0.2-17.1,8.1c-2.2,4.1-4,8.4-6.1,12.6c-5.1,10.6-6.2,11-16.6,6.4c-20.3-9-41-10.6-62.2-3.2
		c-26.7,9.4-50.8,23.4-72.7,41.1c-55.7,45.3-86.8,102.6-84.5,175.9c0.1,2.6-0.3,5.2-0.5,8.1c-30.3,3.1-60.1,5.3-89.7,9.3
		c-29.5,4-58.7,9.9-89.2,15.1c-1.7-39.2-3.5-78-5.2-117.6c44.5-10,88.1-6.5,132.4,0.6c10.4-37,20.6-73.4,31.1-110.7
		c-18.7-2.7-36.3-1.8-53.8-1.1c-17.9,0.7-35.9,2.1-53.7,4.6c-17.2,2.4-34.1,6.7-52.1,10.3c0.7-9.3,1.1-17.9,1.9-26.4
		c1.9-20.9,3.9-41.8,9.8-62.1c4.1-14.2,5-15,20-15.6c44-1.6,88-3.6,131.9-0.2c19.1,1.5,38.6,2,56.4,13c0.6-0.9,1.2-1.7,1.7-2.6
		c16.8-28.3,26.5-58.7,28-91.7c0.6-12.6-4.6-22.2-15-28.6c-6.7-4.1-14.2-7.4-21.8-9.6c-15.7-4.7-32.1-6.4-48.4-5.6
		c-33.3,1.7-66.5,3.4-99.7,6.4c-41.8,3.8-83.5,8.8-125.2,13.3c-12.5,1.4-25,3-37.8,4.6c-1,2.8-2.1,5.3-2.7,7.8
		c-12.8,57.6-22.4,115.7-28.5,174.4c-3,28.5-5.2,57-7.2,85.6c-1.2,17.3-1.2,34.6-1.7,52c-0.1,4.1,0.2,8,6,8.8c0.2-2,0.5-3.6,0.6-5.2
		c1-65.4,6.3-130.5,16.1-195.1c5.8-37.9,13.2-75.5,20.1-113.1c1.6-8.6,2.4-9.1,9.9-10c24.5-2.8,49-5.7,73.5-8.3
		c37.4-3.9,74.9-8.2,112.4-11c27.2-2.1,54.6-2.7,81.9-2.7c15.7,0,31.2,3.2,45.2,11c10.5,5.8,15.9,14.1,15.3,26.8
		c-1.3,28.2-9.5,54.3-22.5,79.1c-0.7,1.4-2.1,2.4-2.7,3c-9.2-2.1-17.5-4.9-26-5.9c-16.9-1.9-33.8-4-50.8-4.1
		c-36.6-0.2-73.3,0.8-109.9,1.5c-18.3,0.4-20.1,2-25.5,19.9c-0.8,2.6-1.5,5.1-2.1,7.7c-6.7,29.7-8.5,60-10.3,90.3
		c-0.1,1.1,0.8,2.3,1.4,4.1c24.9-11,50.8-15.5,77-17.6c50.1-3.9,69.1-3.7,79,0.2c-8.9,31.5-17.7,63-26.7,94.7
		c-12.3-1.4-23.2-2.9-34.2-3.8c-29.7-2.6-59.2-2.4-88.6,3.1c-11.3,2.1-11.5,2.3-11.1,13.5c1.5,38.3,3.1,76.6,4.8,114.9
		c0.1,2.2,0.9,4.3,1.5,7.5c41.8-11.8,83.9-17.9,126.3-22.2c42.6-4.4,85.4-7.1,130.1-7.8c-14.2,44.4-27.9,87.1-41.7,130.3
		c-14.6-1-28.2-2-41.8-2.9c-55.7-3.7-111.2-3.8-166.5,4.6c-36.1,5.5-71.3,14-103.6,31.9c-1.4,0.8-3,1.2-5.5,2.1
		c-10.5-36.7-15.1-73.9-20.1-111.1c-6.6,1.5-5.7,5.6-5.3,9.6c3.7,36.2,10.3,71.8,19.4,107c0.5,2.1,1.7,3.9,2.8,6.3
		c15.3-11.4,31.7-18.5,48.9-24.2c29.2-9.7,59.3-15.1,89.9-18.3c51.2-5.4,102.5-4.6,153.7-0.2c10.9,0.9,21.7,1.7,32.3,2.5
		c5.9-13.6,8.1-27.5,14.6-40.6c17.1,10.3,34.7,15.6,53.5,17.7c23.8,2.7,46.3,0.5,67.2-12.8c19.3-12.3,36.8-26.3,50.9-44.5
		c7.1-9.2,11-8.7,16.4,1.7c1.1,2.1,2.1,4.2,3.1,6.3c4.3,8.6,8.5,17.4,13,25.9c4.4,8.2,9.4,10.1,18.2,7.4c2.2-0.7,4.3-1.7,6.6-2.4
		c26.1-7.9,52.1-16.1,78.4-23.5c5.5-1.5,12-1.1,17.6,0.2c36.1,8,72.1,16.2,108,24.8c7.7,1.9,12.7,0.1,17.2-6.1
		c4.1-5.7,8.7-11,13-16.5c6.6-8.6,6.6-10.8-0.6-18.9c-32.4-36.1-42.6-78.3-33.6-125.4c3.3-17.2,9.7-33.3,22.1-46.2
		c10.9-11.4,24.3-17.4,40.1-17.1c13.4,0.3,22.9,7.3,26.5,20.2c1.7,6,2.4,12.5,2,18.7c-0.5,8.9-2.2,17.8-3.8,26.6
		c-2.1,11.3,2.1,15.8,13.5,13.9c0.7-0.1,1.3-0.3,2-0.4c13-2.7,26.1-5.4,39.1-8.1C3351.7,451.8,3354.5,451.6,3358.7,451z
		 M582.2,273.7c0.5-3.3,0.8-5.2,1.2-7.2c2.2-10.7,5.5-21.4,6.3-32.2c1.7-23.4-7.6-34.6-23.6-40.3c-16.3-5.8-32.3-12.5-48.7-17.9
		C402.1,138.9,284,113.7,165.5,89.8c-14.9-3-26.1,2.3-35.3,13.2c-7.3,8.7-11.1,19-11.1,30.4c0,26.6-0.2,53.3,0.8,79.9
		c0.6,15.6,3.6,31.1,9.8,45.7c5.2,12.3,13.6,19.9,27.3,22c25,3.8,49.9,8.3,74.9,12.4c12.5,2.1,25,3.9,37.5,6
		c8.7,1.4,9.8,3.6,6.7,12.3c-0.3,0.9-0.7,1.9-1,2.8c-8.2,23.9-17.1,47.6-24.5,71.8c-13.7,45-23.5,90.9-26.7,138
		c-3.3,49-0.6,97.9,7.8,146.4c4.1,23.3,9.5,46.3,18.5,68.3c10.7,26.2,33.8,39.6,61.3,35.8c24.3-3.4,47.4-10.6,69.2-21.9
		c30-15.5,54.4-37,71.3-66.6c6-10.6,10.8-21.4,9.7-34c0-0.4,0.9-0.8,1.3-1.2c9.7,7,18.9,14.6,29.2,20.6c10,5.9,20.6,11,31.6,14.8
		c11.2,3.9,23.1,6.7,34.8,8.5c11.8,1.8,23.9,2.4,35.8,2.3c11.6-0.1,23.3-1.1,34.7-3.2c11.7-2.1,23.5-5.1,34.7-9.1
		c11.2-4,22.3-9,32.6-14.9c10.1-5.8,19.6-12.7,28.5-20.2c9-7.6,16.9-16.5,25.5-25.1c2,2.3,3.6,4,5.1,5.8
		c16.5,20.6,36.3,37.2,59.5,49.7c53.4,28.8,110.3,38.2,170.2,28.4c21.9-3.6,42.5-11.1,60.6-24.5c9.9-7.3,10.5-9.7,5.6-20.9
		c-16.4-37.5-32.8-75.1-49.2-112.6c-0.9-2.1-1.8-4.3-3-6.3c-2.9-4.8-6.4-6.1-11.9-4.5c-2.5,0.8-4.8,2.2-7.3,3.2
		c-17.5,6.6-35.5,9.8-53.8,4.4c-17-5-30.9-15.3-43.7-27.2c-1.4-1.3-1.6-3.7-3.1-7.3c5.2,0,8.8,0,12.4,0c40.7,0,81.3,0,122,0
		c15.8,0,30.3-4.2,43-13.7c17.3-13,34.4-26.3,51.7-39.3c4.7-3.5,6.6-7.7,6.5-13.6c-0.3-28.1-3.7-55.8-12.4-82.7
		c-18.4-56.9-56.2-93.5-115-106.6c-39.6-8.9-79.5-7.1-118.9,2.3c-42.2,10.1-78.9,29.8-108,62.7c-1.1,1.2-2.4,2.1-4.1,3.5
		c-2.3-2.4-4.4-4.5-6.3-6.7c-17.2-19.5-38.3-32.9-63-40.6c-27.2-8.4-55-9.6-83.1-7C597.3,271.7,590.4,272.7,582.2,273.7z M2740,543
		c0,0.1,0.1,0.3,0.1,0.4c3.3,0,6.7-0.1,10,0c7.8,0.2,9.2,1.4,9.1,9.5c-0.1,4.3-0.6,8.7-1.7,12.8c-1.8,6.7-4.3,13.3-6.3,19.9
		c-1,3.3-1.3,6.9,2.9,8.3c3.4,1.2,5.9-0.7,7.2-3.8c5.3-12.6,9.8-25.6,9.5-39.5c-0.3-13.2-7.2-19.2-20.4-18.9c-2,0-4,0.3-6,0.5
		c-22.2,2.3-44.4,4-66.5,6.9c-36.2,4.8-72.4,10.3-108.6,15.6c-4.3,0.6-9.2,0.5-9.4,6.5c-0.1,4,3.8,5.5,11.3,4.4
		c28.6-4.2,57.2-8.7,85.8-12.6C2684.5,549.5,2712.2,546.4,2740,543z M2766.2,153c3.7-17.4,0.3-23.5-14.2-28.4
		c-2.2-0.7-4.5-1.5-6.7-1.7c-19.5-1.9-39-4.6-58.5-5.2c-59.5-1.8-118.1,5.7-176.2,17.9c-2.9,0.6-5.8,1.6-8.6,2.5
		c0.2,0.7,0.4,1.5,0.5,2.2c7.2-0.6,14.4-1.3,21.6-1.9c39.8-3,79.6-6.7,119.4-8.7c29.2-1.5,58.5-0.9,87.8-1c5.6,0,11.3,0.9,16.8,1.9
		c12.5,2.2,15.2,5.4,16.5,18.3C2764.7,149.7,2765.3,150.5,2766.2,153z M2669.1,354.9c0.7,0.3,1.4,0.6,2,0.9c3.2-5.3,6.7-10.4,9.5-16
		c3.4-7,1.4-10.3-6.6-11.6c-2.6-0.4-5.3-0.5-8-0.6c-34.9-1.1-69,4.7-102.5,13.7c-2,0.5-3.9,1.8-5.9,2.7c39,1,77.2-6,116.6-7.1
		C2672.3,343.8,2670.7,349.4,2669.1,354.9z M2750.1,616c2.3-4,4.6-6.5,5.1-9.4c0.5-3-2.1-4.9-5.1-4.2c-3.7,0.8-5.7,3.7-4.8,7.4
		C2745.6,611.6,2747.6,613,2750.1,616z M2752.3,183.6c3.2,2.6,4.6,4.5,6.4,5c2.8,0.8,5.7-0.5,5.6-3.7c-0.1-1.6-2.3-4.2-3.9-4.4
		C2758.4,180.2,2756.2,181.9,2752.3,183.6z"/>
	<path class="st1" d="M3358.7,451c-4.2,0.6-7.1,0.8-9.9,1.4c-13.1,2.6-26.1,5.4-39.1,8.1c-0.7,0.1-1.3,0.3-2,0.4
		c-11.4,1.9-15.6-2.6-13.5-13.9c1.6-8.8,3.3-17.7,3.8-26.6c0.4-6.2-0.3-12.7-2-18.7c-3.6-12.9-13.1-19.9-26.5-20.2
		c-15.9-0.3-29.2,5.7-40.1,17.1c-12.4,13-18.8,29-22.1,46.2c-9,47.1,1.2,89.2,33.6,125.4c7.2,8.1,7.3,10.3,0.6,18.9
		c-4.3,5.5-8.9,10.8-13,16.5c-4.4,6.2-9.4,8-17.2,6.1c-35.9-8.7-72-16.9-108-24.8c-5.7-1.2-12.2-1.7-17.6-0.2
		c-26.3,7.4-52.3,15.6-78.4,23.5c-2.2,0.7-4.3,1.7-6.6,2.4c-8.8,2.7-13.8,0.8-18.2-7.4c-4.5-8.5-8.7-17.2-13-25.9
		c-1-2.1-2-4.2-3.1-6.3c-5.4-10.5-9.3-10.9-16.4-1.7c-14,18.2-31.6,32.2-50.9,44.5c-20.9,13.3-43.4,15.5-67.2,12.8
		c-18.8-2.1-36.4-7.4-53.5-17.7c-6.5,13.1-8.7,27-14.6,40.6c-10.6-0.8-21.5-1.5-32.3-2.5c-51.2-4.4-102.5-5.1-153.7,0.2
		c-30.6,3.2-60.7,8.5-89.9,18.3c-17.1,5.7-33.6,12.8-48.9,24.2c-1.1-2.4-2.2-4.3-2.8-6.3c-9.1-35.2-15.7-70.8-19.4-107
		c-0.4-4-1.3-8.1,5.3-9.6c4.9,37.2,9.6,74.3,20.1,111.1c2.5-1,4.1-1.3,5.5-2.1c32.3-17.9,67.5-26.4,103.6-31.9
		c55.3-8.4,110.9-8.2,166.5-4.6c13.6,0.9,27.2,1.9,41.8,2.9c13.8-43.2,27.5-85.8,41.7-130.3c-44.7,0.7-87.5,3.5-130.1,7.8
		c-42.4,4.3-84.5,10.4-126.3,22.2c-0.7-3.2-1.5-5.3-1.5-7.5c-1.6-38.3-3.2-76.6-4.8-114.9c-0.4-11.1-0.2-11.4,11.1-13.5
		c29.4-5.4,59-5.7,88.6-3.1c10.9,1,21.8,2.4,34.2,3.8c8.9-31.6,17.8-63.2,26.7-94.7c-9.8-3.9-28.9-4.1-79-0.2
		c-26.3,2.1-52.1,6.6-77,17.6c-0.7-1.8-1.5-3-1.4-4.1c1.7-30.3,3.6-60.5,10.3-90.3c0.6-2.6,1.3-5.2,2.1-7.7
		c5.4-17.9,7.2-19.5,25.5-19.9c36.6-0.7,73.3-1.7,109.9-1.5c16.9,0.1,33.9,2.1,50.8,4.1c8.5,1,16.8,3.7,26,5.9c0.6-0.6,2-1.6,2.7-3
		c13-24.8,21.3-50.9,22.5-79.1c0.6-12.7-4.8-21-15.3-26.8c-14.1-7.8-29.6-11-45.2-11c-27.3,0-54.7,0.7-81.9,2.7
		c-37.5,2.8-74.9,7.1-112.4,11c-24.5,2.5-49,5.5-73.5,8.3c-7.6,0.9-8.3,1.3-9.9,10c-6.9,37.7-14.4,75.3-20.1,113.1
		c-9.9,64.6-15.1,129.7-16.1,195.1c0,1.6-0.3,3.2-0.6,5.2c-5.8-0.8-6.1-4.7-6-8.8c0.5-17.3,0.5-34.7,1.7-52
		c2-28.6,4.2-57.1,7.2-85.6c6.1-58.7,15.7-116.8,28.5-174.4c0.6-2.5,1.7-4.9,2.7-7.8c12.8-1.5,25.3-3.2,37.8-4.6
		c41.7-4.6,83.4-9.6,125.2-13.3c33.2-3,66.4-4.8,99.7-6.4c16.3-0.8,32.7,0.8,48.4,5.6c7.6,2.3,15.1,5.5,21.8,9.6
		c10.3,6.3,15.6,16,15,28.6c-1.5,33-11.3,63.4-28,91.7c-0.5,0.9-1.1,1.7-1.7,2.6c-17.7-11-37.3-11.5-56.4-13
		c-43.9-3.4-87.9-1.4-131.9,0.2c-15,0.5-15.9,1.3-20,15.6c-5.9,20.3-7.9,41.2-9.8,62.1c-0.8,8.6-1.3,17.2-1.9,26.4
		c17.9-3.6,34.9-7.9,52.1-10.3c17.8-2.5,35.8-3.9,53.7-4.6c17.5-0.7,35.1-1.6,53.8,1.1c-10.5,37.3-20.7,73.7-31.1,110.7
		c-44.4-7.1-87.9-10.6-132.4-0.6c1.8,39.5,3.5,78.3,5.2,117.6c30.5-5.2,59.7-11.1,89.2-15.1c29.6-4,59.4-6.2,89.7-9.3
		c0.2-3,0.6-5.5,0.5-8.1c-2.3-73.3,28.8-130.6,84.5-175.9c21.9-17.8,46-31.8,72.7-41.1c21.2-7.4,41.9-5.9,62.2,3.2
		c10.4,4.6,11.5,4.2,16.6-6.4c2-4.2,3.9-8.5,6.1-12.6c4.1-7.9,8.3-9.9,17.1-8.1c4.2,0.9,8.3,2.3,12.5,3.5c12.5,3.5,25,6.9,37.5,10.6
		c10.1,2.9,12.6,6.2,12,16.5c-0.6,11.6-1.7,23.3-2.6,34.9c-2.8,33.3-3.5,66.6-1.3,99.9c1.3,20,3.7,39.9,10.1,58.9
		c3,9.1,7.4,17.8,11.9,26.3c3.3,6.1,8.2,11.2,16.1,15.2c0.9-4.1,1.9-7.4,2.3-10.8c10.3-84.2,28.9-166.6,53.7-247.6
		c2.1-6.9,5.7-10.5,12.8-12c22.1-4.9,44-10.5,66.1-15.6c12.3-2.8,16.9,2.1,13.6,14.5c-5,19-10.2,37.9-15.2,56.9
		c-0.8,3-1.1,6.2-1.7,9.4c5.8,1.5,7.5-2.4,10.1-4.7c11.4-9.8,22.3-20.1,34-29.3c13.9-11,29.1-20.3,46.3-25.1
		c32-8.9,60.7-4.1,83.9,21.6c1,1.2,2.3,2.1,4.5,4.2c1.6-4.7,2.9-8.3,4.1-12c13.2-42.3,28.4-83.9,47.7-123.9c1.3-2.7,2.8-5.3,4-8.1
		c2.5-5.9,7-8.7,13.3-8.5c34.1,0.8,67.9,3.3,100.5,14.2c3.8,1.3,7.6,2.6,11.1,4.4c7.2,3.6,8.9,9.5,5.3,16.6
		c-0.6,1.2-1.4,2.3-2.2,3.4c-42.3,62.2-69.9,130.7-88.4,203.3c-13.2,52.1-21.4,105-24.1,158.7c-0.8,15,0.3,15.6,14,10.5
		c31.2-11.6,63.6-17,96.6-19.8c13.3-1.1,26.6-1.7,39.9-1.9c11.9-0.2,16.4,5.9,12.8,17.4c-11,35.3-22.3,70.5-33.7,105.6
		c-2.7,8.4-5.7,10.2-14.9,10c-7-0.2-14-0.7-21-0.9c-56.9-2.1-113.2,1.5-168,18.8c-10.4,3.3-20.6,7.7-30.7,12
		c-12.6,5.4-19.8,1.5-19.7-12.1c0.3-27.7,0.6-55.3,2.2-82.9c1.6-28.6,4.4-57.1,7.3-85.6C3353.5,488.5,3356.2,470.7,3358.7,451z
		 M2811.2,506.3c-1.3,4.8-2.1,8.2-3.2,11.6c-8.3,26-16.7,52-24.9,78c-2.4,7.6-2.2,7.9,4.6,11.9c11.9,7,25,11.1,38.6,12.8
		c24.1,3.1,47.7,3.3,69.4-10.8c18.9-12.3,36.2-26,50-44c2.3-3,5.6-6,9-7.4c6.2-2.6,12.3,0.6,16.2,8.1c5.3,10,10.1,20.3,15.2,30.4
		c5.7,11.3,5.9,11.1,17.5,7.4c23.7-7.7,47.6-15.1,71.4-22.6c1.9-0.6,3.7-1.4,5.6-2.1c1.1-13.8,2-27.4,3.2-41c0.4-4.1-1.6-6-4.7-7.9
		c-9.1-5.6-15.8-13.6-19.9-23.2c-4.6-10.6-8.8-21.6-11.8-32.8c-5.5-20.7-7.2-42-8-63.3c-1.5-39.4,0.8-78.6,4.7-117.7
		c1-9.4,0.2-10.8-9-13.5c-15-4.4-30.1-8.6-45.2-12.8c-8.3-2.3-9.2-1.7-13.2,6.2c-2.2,4.5-4.2,9.1-6.5,13.5
		c-5.2,10.1-11.1,12.4-21.2,7.5c-22-10.7-44-11.2-66.6-1.8c-45.1,18.7-82.5,47.2-110.8,87.2c-24.6,34.9-36.5,73.7-35,116.5
		c0.1,3.5,0.6,7.1,1,11C2762.4,509,2786.2,504.9,2811.2,506.3z M3576.8,163.5c-3.5-5.5-9.1-6.3-14-8c-29.7-9.9-60.5-12.6-91.5-14
		c-8.6-0.4-13.1,2.6-16.8,10.3c-21.2,44.3-37.8,90.3-52,137.2c-1.5,4.8-0.7,8.9,1,13.4c3.1,8,6.2,16.2,8,24.6
		c7.4,34.8,5,69.6-0.7,104.3c-1,6.4-4.7,10-11.1,11.2c-8.2,1.5-16.3,3.3-24.5,5.1c-8.9,1.9-9.3,1.9-10.2,10.7
		c-4.6,40.7-9.8,81.3-13,122.1c-2.4,30.8-2.1,61.9-2.8,92.9c-0.2,9.9,1.8,11.1,10.3,7.2c38.4-17.7,79.1-25.3,120.8-29.1
		c32.9-3.1,65.9-2.3,98.9-1.2c8.6,0.3,9.1,0.2,11.6-7.6c10.8-33.6,21.6-67.2,32.2-100.9c2.9-9.2,1.8-10.6-7.9-10.5
		c-46.6,0.5-92.4,6-136.3,22.7c-1.6,0.6-3.1,1.3-4.7,1.6c-7.5,1.4-13.2-2.7-14.3-10.2c-0.3-2.3-0.2-4.7,0-7
		c2.9-51.7,10-102.8,22.1-153.1c18.6-76.7,46.9-149.3,91.4-214.9C3574.7,168.1,3575.7,165.7,3576.8,163.5z M3300.3,454.4
		c3.3-0.2,5-0.1,6.5-0.4c29.7-6.1,59.4-12.3,89.1-18.2c5.2-1,7.4-3.7,7.9-8.6c1.5-13.9,3.7-27.8,4.6-41.7
		c1.5-25.5-0.5-50.6-9.5-74.8c-17-46.1-61.4-53.2-91-42.3c-10.5,3.9-20.7,9.2-30.4,15c-17.5,10.5-32.8,24-47.2,38.4
		c-4.3,4.3-8.5,9-15.5,5.6c-5.2-2.6-6.1-7.1-3.5-16.8c4.8-18,9.8-36,14.5-54.1c0.8-3.2,0.8-6.7,1.2-10.6c-3.2,0.3-4.9,0.2-6.4,0.6
		c-19.5,4.6-38.8,9.8-58.4,13.6c-9.9,1.9-15.6,6.3-16.9,16.3c0,0.3-0.2,0.6-0.3,1c-27.3,91.2-46.8,184-55.3,278.9
		c-0.6,6.2-0.1,12.5-0.1,19.6c4.1,1.2,8.2,2.5,12.3,3.4c16.9,4,33.7,7.8,50.6,11.7c19.5,4.5,39,8.9,58.4,13.4
		c3.5,0.8,7.3,2.4,10.2-1.1c6.2-7.7,12.3-15.5,18-22.7c-0.7-1.9-0.8-2.6-1.2-3.1c-0.8-1.1-1.6-2.1-2.5-3.1
		c-30.9-35.1-43.2-75.8-36.4-122.2c2.9-19.4,8.6-37.7,21-53.3c12.8-16.1,29.4-24.7,50.3-23.9c16.7,0.6,28.1,9.9,32.6,25.9
		c2.8,10.2,2.6,20.4,1.1,30.7C3303.2,438.8,3301.8,445.9,3300.3,454.4z"/>
	<path class="st1" d="M582.2,273.7c8.2-1,15.1-2,22-2.6c28.1-2.6,55.9-1.4,83.1,7c24.8,7.7,45.9,21,63,40.6c1.9,2.2,4,4.2,6.3,6.7
		c1.6-1.4,3-2.3,4.1-3.5c29.1-32.9,65.8-52.6,108-62.7c39.4-9.4,79.2-11.2,118.9-2.3c58.8,13.2,96.6,49.7,115,106.6
		c8.7,26.8,12,54.5,12.4,82.7c0.1,5.9-1.8,10.1-6.5,13.6c-17.3,13-34.4,26.3-51.7,39.3c-12.7,9.5-27.2,13.7-43,13.7
		c-40.7,0-81.3,0-122,0c-3.6,0-7.2,0-12.4,0c1.5,3.6,1.8,6,3.1,7.3c12.8,11.9,26.8,22.2,43.7,27.2c18.3,5.4,36.3,2.2,53.8-4.4
		c2.5-0.9,4.8-2.4,7.3-3.2c5.4-1.7,8.9-0.3,11.9,4.5c1.2,2,2.1,4.2,3,6.3c16.4,37.5,32.8,75,49.2,112.6c4.9,11.2,4.3,13.6-5.6,20.9
		c-18.1,13.4-38.7,20.9-60.6,24.5c-59.9,9.8-116.7,0.4-170.2-28.4c-23.1-12.5-43-29.1-59.5-49.7c-1.4-1.8-3-3.5-5.1-5.8
		c-8.6,8.6-16.5,17.5-25.5,25.1c-8.9,7.5-18.4,14.4-28.5,20.2C686,676,675,681,663.8,685c-11.2,4-23,7-34.7,9.1
		c-11.4,2-23.1,3-34.7,3.2c-11.9,0.1-24-0.5-35.8-2.3c-11.8-1.8-23.6-4.5-34.8-8.5c-10.9-3.8-21.6-8.9-31.6-14.8
		c-10.2-6-19.5-13.7-29.2-20.6c-0.4,0.4-1.3,0.8-1.3,1.2c1,12.6-3.7,23.4-9.7,34c-16.9,29.6-41.3,51.1-71.3,66.6
		c-21.8,11.3-44.9,18.5-69.2,21.9c-27.5,3.8-50.6-9.5-61.3-35.8c-9-22-14.4-45-18.5-68.3c-8.4-48.5-11.1-97.3-7.8-146.4
		c3.2-47,13-93,26.7-138c7.4-24.2,16.3-47.9,24.5-71.8c0.3-0.9,0.7-1.9,1-2.8c3.1-8.7,2-10.8-6.7-12.3c-12.5-2.1-25-3.9-37.5-6
		c-25-4.1-49.9-8.6-74.9-12.4c-13.7-2.1-22.1-9.7-27.3-22c-6.1-14.6-9.2-30.1-9.8-45.7c-1-26.6-0.8-53.3-0.8-79.9
		c0-11.4,3.8-21.7,11.1-30.4c9.2-10.9,20.4-16.2,35.3-13.2c118.5,23.9,236.7,49.1,351.8,86.3c16.5,5.3,32.4,12.1,48.7,17.9
		c16,5.7,25.3,16.9,23.6,40.3c-0.8,10.8-4.1,21.5-6.3,32.2C583,268.5,582.7,270.4,582.2,273.7z M228.7,575.5
		c1.6,20.3,2.8,40.6,4.8,60.8c1.3,13.2,3.5,26.4,6,39.5c3.9,21,8.9,41.8,17.4,61.4c9.5,22,27.1,33.2,50.7,30.7
		c42.7-4.6,80.2-21.2,111.8-50.7c13-12.2,23-26.6,31.1-42.5c6.2-12.1,5.6-23.3-1.7-34.9c-15.8-25.2-28.3-52.1-38.4-80.1
		c-22.7-63.2-31.3-127.9-21.2-194.7c1.2-7.9,2.5-15.8,4.5-23.6c2.1-8.2,7.9-11.2,16-8.9c2.2,0.6,4.3,1.8,6.5,2.5
		c20.3,6.5,40.4,13.8,60.9,19.2c10.4,2.8,21.7,3.4,32.6,3.2c15.3-0.2,27.7-7.3,35.1-21.1c11.9-22.4,23.9-44.8,31.1-69.2
		c3.5-11.7,6.1-24,6.9-36.1c1.1-17.4-4.2-25.2-20.7-31.1c-31.7-11.3-63.3-22.8-95.6-32.3c-98.9-29-199.5-50.7-300.6-70.7
		c-15.1-3-25.8,1.8-33.8,14.9c-4.6,7.6-6.7,15.9-6.8,24.8c-0.1,10.7-0.6,21.3-0.3,32c0.4,16.6,0.9,33.3,2.2,49.9
		c1,13.6,3.7,27.1,9.5,39.7c4,8.7,10.2,14.2,20.2,15.8c23,3.6,46,7.9,69,11.7c15.1,2.6,30.3,4.7,45.4,7.4c13,2.3,16,8.1,11.3,20.6
		c-0.5,1.2-1,2.5-1.5,3.7c-7,20.1-14.7,40.1-21,60.4C240.3,442.2,227.2,507.6,228.7,575.5z M788.4,462.6c-0.3-6.1-0.5-16.4-1.4-26.7
		c-2.8-30.1-9.2-59.2-23.7-86.1c-19.2-35.8-48.6-58.6-88.2-67.9c-29.3-6.9-58.8-6.1-88.4-1.7c-5.5,0.8-8.5,3.6-10.8,8.8
		c-7,15.8-14.7,31.4-22.2,47c-9.7,20.2-26.4,29.7-48.2,29.4c-10.9-0.1-21.8-2.1-32.6-4c-11.3-2-11.5-2.5-17.4,7.6
		c-35.8,61.1-46.2,126.9-31,195.6c13.9,63,53.3,103.8,116.3,120.4c28.7,7.6,58,8.4,87.2,2.9c71.4-13.5,120.6-53.4,145.2-122.5
		C784.5,533.3,787.8,500.3,788.4,462.6z M991.9,545.7c-3.3,1.2-5.7,2.1-8.1,3.1c-44.4,17.3-74.7,5.7-107.4-24.9
		c-3.2-3-4.2-6.8-2.8-11c1.5-4.2,4.8-6.3,9.1-6.7c3-0.3,6-0.2,9-0.2c41,0,82-0.1,123,0c12.7,0,24.7-2.7,34.9-10.2
		c18.3-13.3,36.1-27.3,54.2-41c3.2-2.4,4.6-5.4,4.5-9.4c-0.9-30.8-4.5-61.2-15.7-90.1c-19-49-54.1-80.2-105.5-91.4
		c-55.1-12.1-108.7-5.9-160.1,17.2c-22.1,9.9-41.4,24.1-57.9,42c-2.6,2.8-4.8,6.1-7.1,9.1c28,44.7,34.8,93.3,33.7,143.7
		c-1.1,50.9-11.6,99.1-40.1,141.9c0.6,1.5,0.8,2.5,1.4,3.3c1.5,2.2,3.1,4.3,4.8,6.4c14.4,17.9,31.5,32.6,51.4,44
		c51.5,29.6,107,39.8,165.7,31.6c21.6-3,42.2-9.8,60.4-22.3c9.4-6.4,9.5-7,5.2-16.9c-15.7-36-31.5-72-47.3-108
		C995.5,552.4,993.7,549.3,991.9,545.7z M454.9,356.4c-16.2-6-31.4-11.7-46.7-17.3c-4.2-1.5-7.2-0.2-8.2,4.4
		c-0.4,1.9-0.9,3.9-1.3,5.8c-12.2,62-8,123.1,10,183.4c0.6,1.9,1.7,3.7,2.6,5.5C407.6,473.2,418.9,412.2,454.9,356.4z"/>
	<path class="st1" d="M2740,543c-27.7,3.3-55.5,6.4-83.1,10.1c-28.7,3.9-57.2,8.4-85.8,12.6c-7.6,1.1-11.5-0.4-11.3-4.4
		c0.2-6,5.2-5.9,9.4-6.5c36.2-5.2,72.3-10.8,108.6-15.6c22.1-2.9,44.3-4.7,66.5-6.9c2-0.2,4-0.4,6-0.5c13.3-0.2,20.1,5.8,20.4,18.9
		c0.3,13.9-4.2,26.8-9.5,39.5c-1.3,3.1-3.8,4.9-7.2,3.8c-4.2-1.4-3.9-5-2.9-8.3c2-6.7,4.5-13.2,6.3-19.9c1.1-4.1,1.7-8.5,1.7-12.8
		c0.2-8.1-1.3-9.4-9.1-9.5c-3.3-0.1-6.6,0-10,0C2740,543.3,2740,543.2,2740,543z"/>
	<path class="st1" d="M2766.2,153c-1-2.5-1.5-3.3-1.6-4.2c-1.3-12.9-4.1-16.1-16.5-18.3c-5.6-1-11.2-1.9-16.8-1.9
		c-29.3,0.1-58.6-0.5-87.8,1c-39.8,2-79.6,5.7-119.4,8.7c-7.2,0.5-14.4,1.3-21.6,1.9c-0.2-0.7-0.4-1.5-0.5-2.2
		c2.9-0.8,5.7-1.8,8.6-2.5c58.1-12.1,116.8-19.7,176.2-17.9c19.5,0.6,39,3.3,58.5,5.2c2.3,0.2,4.5,1,6.7,1.7
		C2766.5,129.4,2769.9,135.6,2766.2,153z"/>
	<path class="st1" d="M2669.1,354.9c1.6-5.6,3.2-11.2,5.2-18c-39.5,1.1-77.6,8-116.6,7.1c1.9-0.9,3.8-2.1,5.9-2.7
		c33.6-9,67.6-14.7,102.5-13.7c2.7,0.1,5.3,0.2,8,0.6c8,1.3,10,4.7,6.6,11.6c-2.7,5.5-6.3,10.7-9.5,16
		C2670.4,355.5,2669.8,355.2,2669.1,354.9z"/>
	<path class="st1" d="M2750.1,616c-2.4-3-4.5-4.4-4.9-6.2c-0.8-3.7,1.2-6.5,4.8-7.4c3.1-0.7,5.7,1.2,5.1,4.2
		C2754.6,609.5,2752.4,612,2750.1,616z"/>
	<path class="st1" d="M2752.3,183.6c3.9-1.7,6.1-3.4,8.1-3.1c1.5,0.2,3.8,2.8,3.9,4.4c0.1,3.2-2.8,4.5-5.6,3.7
		C2756.9,188.1,2755.5,186.2,2752.3,183.6z"/>
	<path class="st1" d="M2404.4,477.6c-2.9,3.3-5.1,5.8-7.4,8.2c-13.5,14.4-30.1,22.6-49.5,25.5c-1.3,0.2-2.8,0.6-3.9,0.2
		c-1.7-0.6-3.1-1.9-4.7-3c1.2-1.4,2.1-3.1,3.6-4c1.3-0.8,3.2-0.8,4.8-1c20.1-2.8,36.2-12.5,48.8-28.1c6.3-7.8,6.3-7.8,15.2-2.6
		c4.6,2.7,9.2,5.3,13.6,8.3c1.2,0.8,1.2,3.3,1.8,5c-1.8,0.4-3.9,1.5-5.2,0.9C2415.8,484.3,2410.5,481,2404.4,477.6z"/>
	<path class="st1" d="M2320.4,289.5c-1.3,0.1-2.7,0.2-4,0.2c-2.8,0-6.8,1.1-6.9-3.3c-0.1-4.1,4-4.2,6.7-4.3c5.3-0.2,10.6,0.1,15.8,1
		c16,2.8,29,11.2,40.3,22.5c1.3,1.3,2.4,4.7,1.6,5.8c-2,3.1-4.5,1.2-6.7-0.6c-3.3-2.8-6.4-5.8-9.9-8.3
		C2346.4,294.5,2334.4,289.2,2320.4,289.5z"/>
	<path class="st1" d="M2163.8,480.9c-1.5,23-2.7,41.3-3.9,59.5c-0.1,1.7,0.2,3.7-0.6,4.9c-1.4,1.9-3.5,4.6-5.3,4.6
		c-1.7,0-4.5-2.8-4.9-4.8c-0.7-3.5-0.2-7.3,0.1-10.9c3-36.6,4-73.2,1.2-109.8c-1.9-24.6-5-49.1-13.7-72.4
		c-3.8-10.2-8.4-20.4-14.4-29.5c-16.6-25.3-42-33.2-70.7-23.1c-3.4,1.2-6.7,3.3-10.2,3.9c-2,0.3-5.7-1-6.4-2.6
		c-0.8-1.7,0.8-4.7,1.8-6.9c0.5-1,2.2-1.4,3.4-2c32.3-14.4,66.4-9.7,89.2,21c9.3,12.4,15.3,26.5,19.9,41.2
		c6.6,21.1,10.1,42.8,11.7,64.7C2162.8,441,2163.1,463.3,2163.8,480.9z"/>
	<path class="st1" d="M1892.5,279.4c13.4,0.4,24.8,5,34.3,14.2c11.9,11.4,18.7,25.7,24.1,40.9c1.2,3.4,1.2,6.9-2.6,8.5
		c-4,1.7-6.2-0.9-7.6-4.3c-1.3-3.1-2.2-6.3-3.8-9.2c-4.3-7.8-8.2-16.1-13.7-23.1c-12.6-15.9-29.6-19.6-48.2-11.8
		c-2.8,1.2-5.4,2.6-8,4c-3.1,1.6-5.9,1.4-7.7-1.8c-1.8-3.2-0.4-5.7,2.3-7.7c0.8-0.6,1.7-1.1,2.5-1.6
		C1873,282.6,1882.5,279.9,1892.5,279.4z"/>
	<path class="st1" d="M2156.7,572.1c-3,2.2-5,4.8-6.7,4.7c-4.4-0.4-5.1-4.6-5.5-8.2c-0.3-3,1.7-6,4.5-4.8
		C2151.8,565,2153.6,568.5,2156.7,572.1z"/>
	<path class="st1" d="M1353.8,601.3c-0.4-12.6-1-22.7-1.1-32.8c-0.4-45.4-9.2-89.3-23.2-132.2c-9.9-30.3-21.8-60-32.6-90
		c-4.7-13.1-9.1-26.4-13.5-39.6c-0.3-0.8,0-1.9,0-4.1c1.9,1.8,3.3,2.6,4,3.8c6.6,11.5,14.1,22.7,19.4,34.8
		c20.4,47.1,37.5,95.4,47.7,145.8c4.4,21.8,6.5,44,8.9,66.2c1.6,14.4-2.1,28.4-6,42.2C1356.9,596.8,1355.8,598,1353.8,601.3z"/>
	<path class="st1" d="M1300.9,145.3c13.7,0.1,23.8,5.1,31.4,14.9c8,10.3,11.2,22.5,13,35.1c0.7,4.9-1.6,8.3-5,8.2
		c-4.1-0.1-5.2-3.2-6-6.7c-1.7-7.1-3.1-14.4-5.9-21.1c-6.6-15.8-17.3-21.1-34.2-18c-51.7,9.3-103.4,18.6-155,27.9
		c-3.3,0.6-6.6,1.4-9.9,1.1c-1.8-0.2-4.8-2.4-4.9-3.7c-0.1-2.1,1.5-5.5,3.2-6.1c5-1.8,10.3-2.5,15.5-3.4
		c50.4-9.1,100.7-18.1,151.1-27.2C1296.9,145.8,1299.5,145.5,1300.9,145.3z"/>
	<path class="st1" d="M1339.7,659.1c-3.6,2.4-5.5,4.4-7.4,4.5c-1.2,0.1-3.5-3-3.5-4.6c0-1.7,2.4-4.7,3.5-4.6
		C1334.3,654.5,1336.1,656.6,1339.7,659.1z"/>
	<path class="st1" d="M1341.7,213.9c2,2.6,4.1,4.2,3.8,5.3c-0.4,1.7-2.4,3-3.7,4.5c-1.3-1.2-3.6-2.5-3.5-3.7
		C1338.4,218.4,1340.1,216.7,1341.7,213.9z"/>
	<path class="st1" d="M1351.2,632.4c-2.6,1.8-4.4,3.8-5.3,3.5c-1.7-0.6-3.3-2.5-3.9-4.2c-0.2-0.7,2.5-3.4,3.6-3.3
		C1347.3,628.6,1348.7,630.5,1351.2,632.4z"/>
	<path class="st1" d="M1588.5,479.7c0,13.3-0.2,26.6,0.1,39.9c0.3,10.9-4.2,18.2-14.1,23c-12.4,6-24.8,11.3-38.9,11.2
		c-14-0.1-25.2-5.8-32.9-17.4c-13.4-20.3-19.1-51.2,1.5-77.4c16-20.2,37.4-32.8,60.8-42c10.4-4.1,20.4,2.1,22.7,12.9
		c0.7,3.2,0.8,6.6,0.8,9.9C1588.5,453.1,1588.5,466.4,1588.5,479.7C1588.5,479.7,1588.5,479.7,1588.5,479.7z M1581.6,479.1
		c0-14.3,0.2-28.6-0.1-42.9c-0.2-11.4-6.7-16.2-16.9-11.9c-18.9,7.9-36.5,18-50.4,33.3c-20.1,22-21.7,45-8.5,70.9
		c7.1,13.9,19,19.8,34.6,18.4c11.5-1,21.8-5.6,31.9-10.7c6.7-3.4,9.6-8.3,9.4-16C1581.3,506.4,1581.6,492.8,1581.6,479.1z"/>
	<path class="st1" d="M1636.5,401.6c0.5-10,1.1-19.9,1.5-29.9c0.2-4.7,0.5-9.3,0.2-14c-0.7-9.9-3-19.2-13.1-24.1
		c-2.8-1.4-5-3.8-3.4-7.2c1.8-3.8,5.2-3.9,8.5-2.5c6,2.5,10.5,6.9,13.7,12.6c4.1,7.5,5.7,15.6,5.5,24c-0.5,22.6-1.9,45.3-1.4,67.9
		c0.5,17.9,2.9,35.8,5.2,53.5c1.8,13.3,6.1,25.9,13.5,37.3c0.7,1.1,1.8,2.5,1.7,3.5c-0.3,2.1-0.9,4.9-2.4,5.8
		c-1.4,0.9-5,0.6-6.1-0.5c-2.9-3.2-5.2-6.9-7.2-10.7c-8.6-17.2-12.5-35.8-14-54.8c-1.6-20.2-2.1-40.5-3-60.8
		C1636.1,401.6,1636.3,401.6,1636.5,401.6z"/>
	<path class="st1" d="M1538.7,333.4c12.4,2.2,24.8,4.3,37.2,6.5c2.3,0.4,4.9,0.8,6.5,2.2c1.7,1.5,3.7,4.4,3.3,6.2
		c-0.3,1.6-3.5,3.4-5.7,3.8c-2.1,0.4-4.5-0.8-6.7-1.4c-14.9-3.9-29.9-5.9-45.3-4.8c-14.6,1.1-28,5.3-38.7,16c-0.9,0.9-1.8,2.3-3,2.6
		c-1.7,0.5-4.4,1-5.4,0.1c-1.4-1.3-2.8-4.3-2.2-5.8c1.2-2.9,3.4-5.7,5.9-7.8c10.9-9.4,23.9-14.2,38-15.8c5.3-0.6,10.6-0.7,15.9-1
		C1538.6,333.9,1538.6,333.7,1538.7,333.4z"/>
	<path class="st1" d="M1695.5,565.7c-2.5,1.9-4.4,4.2-5.2,3.9c-1.7-0.8-3.4-2.7-3.8-4.4c-0.2-0.9,2.4-3.7,3.5-3.5
		C1691.7,561.9,1693.2,563.9,1695.5,565.7z"/>
	<path class="st1" d="M1680.7,546c-2.7,1.5-4.5,3.2-6.2,3.1c-1.1-0.1-3.4-3.3-3-4c0.8-1.6,2.8-3.3,4.6-3.6
		C1677.1,541.4,1678.6,543.8,1680.7,546z"/>
	<path class="st1" d="M2949.3,430.4c0,16.3-0.3,32.7,0.1,49c0.2,8.2-2.7,14.1-9,18.9c-19.4,14.5-41.1,18.4-64.3,12.8
		c-11-2.6-18.8-10-22.8-20.7c-5.3-14.1-6.5-28.8-1.3-43c8.9-24,22.2-45.4,41.1-63.1c8.6-8,18.3-14.5,29.4-18.4
		c3.1-1.1,6.4-2.1,9.6-2.5c10.7-1.5,16.8,3.4,17,14.1C2949.4,395.1,2949.2,412.8,2949.3,430.4
		C2949.2,430.4,2949.2,430.4,2949.3,430.4z M2942.7,429.6C2942.7,429.6,2942.6,429.6,2942.7,429.6c0-16.6,0.2-33.3-0.1-49.9
		c-0.2-9.6-3.4-11.6-12.7-9.1c-13.2,3.5-24.2,10.9-33.9,20.2c-15.1,14.5-25.7,32-34.6,50.8c-5.8,12.3-6.6,25-4.3,38
		c2.3,13.2,9.5,23.2,23.2,25.6c18.5,3.3,36.4,1,52.6-9.7c7-4.6,10.3-10.4,10-19.1C2942.3,460.9,2942.7,445.2,2942.7,429.6z"/>
	<path class="st1" d="M3037.7,505.2c-9.1-8.5-14.8-18.7-17.1-30.6c-5.8-29.6-6.8-59.5-5-89.5c1.5-24.6,4-49.1,6.4-73.6
		c0.7-7.4-2.5-12.2-8.6-15.4c-3.7-2-7.6-3.6-11.9-5.5c17.5-7.1,33.2,4.2,31.7,21.7c-2.3,26.9-4.9,53.7-6.5,80.6
		c-1.7,28.3,0,56.6,5.9,84.4C3034.6,486.4,3036,495.8,3037.7,505.2z"/>
	<path class="st1" d="M2865.4,321.9c15.6-21.4,66.5-32,93.2,0c-10.9-2.9-20.4-5.7-30-8c-10.6-2.6-21.3-1.9-31.7,0.3
		C2886.8,316.2,2876.9,319.1,2865.4,321.9z"/>
	<path class="st1" d="M3047.7,532.3c-1.9-2.4-3.9-3.8-4.3-5.6c-0.2-1.1,2.5-3.9,3.4-3.7c1.8,0.4,3.8,2.1,4.4,3.8
		C3051.6,527.8,3049.5,529.7,3047.7,532.3z"/>
	<path class="st1" d="M3066.4,545.6c-3.3,1.9-5,3.6-6.7,3.6c-1,0-2.9-2.7-2.9-4.1c0-1.3,2.3-3.6,3.3-3.5
		C3061.8,541.7,3063.4,543.5,3066.4,545.6z"/>
	<path class="st1" d="M3439,514.4c-0.6-8.2-1.3-16.3-1.7-24.5c-1.6-32.3,5.2-63.6,12.6-94.7c14.7-61.3,39.7-118.6,70.2-173.5
		c7.7-13.9,15.4-27.9,23.6-42.7c-14.5-11.5-32-12-49.6-16.5c2.3-1.3,3.4-2.3,4.3-2.3c13.2,1,26.5,2,39.7,3.3
		c2.2,0.2,4.5,1.3,6.6,2.3c8.6,4.3,11.3,11,7.6,19.9c-2.1,5.2-4.9,10.2-7.7,15.1c-23.4,41.1-45.5,82.9-62.1,127.4
		c-16.2,43.2-27.7,87.5-33.3,133.4c-2.2,17.7-5.5,35.3-8.3,53C3440.2,514.4,3439.6,514.4,3439,514.4z"/>
	<path class="st1" d="M3566.9,560c-14.4,1.1-31.4,5.6-48.2,10.9c-11.4,3.6-22.6,7.9-33.9,12c-6.7,2.4-10,1.9-11.4-1.5
		c-1.4-3.5,0.6-6.2,7.3-8.8c29.2-11.3,58.7-21.7,90.4-23.9c1.7-0.1,3.3-0.3,5-0.3c13.1,0.2,20.5,6.7,19.5,19.7
		c-0.7,8.8-3.8,17.4-6.3,26c-1,3.6-3.6,7-8.2,4.9c-4.4-2.1-3.1-6-1.9-9.6c1.5-4.4,3.2-8.8,4.3-13.3
		C3586.9,562.4,3584.3,559.3,3566.9,560z"/>
	<path class="st1" d="M3444.8,539.7c-1.8,1.7-3.5,4-4.3,3.8c-1.7-0.6-3-2.5-4.4-3.9c1.5-1.3,2.8-3.3,4.5-3.8
		C3441.4,535.6,3443,538,3444.8,539.7z"/>
	<path class="st1" d="M3578.9,619.3c-1.9-2.5-4.1-4.2-3.8-5.3c0.5-1.7,2.5-3,3.9-4.4c1.3,1.3,3.7,2.6,3.6,3.8
		C3582.6,615.1,3580.7,616.7,3578.9,619.3z"/>
	<path class="st1" d="M3387,369.7c-1.4-6.4-2.5-12.9-4.2-19.1c-3.3-11.8-5.9-24-10.7-35.2c-10.6-25.1-38.7-35.2-63.2-23
		c-5.6,2.8-10.2,7.8-16.4,12.6c2.3-7.7,6.7-12.3,12.2-16c20-13.6,51.2-10.1,67.9,7.4c13.1,13.8,17.7,31,18.6,49.3
		c0.4,7.8-0.7,15.7-1.1,23.6C3389,369.5,3388,369.6,3387,369.7z"/>
	<path class="st1" d="M3201.2,269.4c-8.9,0.4-16.3,0.8-25.3,1.2c8.3-7.2,16.1-10.7,25.5-9.8c5.8,0.6,9.5,4.7,9.8,10.7
		c0.1,2.6-0.6,5.2-1.2,7.8c-3,15-6.1,30-9.2,44.9c-0.4,1.9-1.1,3.7-2.5,5.4C3190.8,310.2,3195.8,291,3201.2,269.4z"/>
	<path class="st1" d="M3388.9,401.9c-2.3-3.1-4.2-4.6-4.4-6.4c-0.5-3.3,2-4.9,4.9-4.2c1.7,0.4,4.2,2.7,4.1,3.9
		C3393.3,397.2,3391.2,398.9,3388.9,401.9z"/>
	<path class="st1" d="M559.8,241.1c-4.1,13.6-8.2,27.3-12.5,40.9c-1.1,3.5-3.6,5.9-7.6,4.4c-4.1-1.6-3.6-5.2-2.6-8.5
		c1.7-5.7,4-11.3,5.7-17c1.2-3.8,2.1-7.7,2.9-11.6c2.7-12.4,2.3-15-9-21.2c-12.5-6.9-25.5-13.1-38.8-18.1
		c-44.9-16.9-91.4-29-138.1-39.5c-56.8-12.8-113.9-24.3-170.9-36.3c-2.3-0.5-5-0.5-6.6-1.8c-1.7-1.4-3.2-4.2-3.1-6.2
		c0.1-1.4,3-3.4,4.9-3.7c2.5-0.4,5.3,0.5,7.9,1c92.2,17.9,184.2,36.4,274,64.1c21.6,6.6,42.6,15.2,63.5,23.8
		c7.8,3.2,14.9,8.7,21.8,13.8C556.1,228.7,559,234.1,559.8,241.1z"/>
	<path class="st1" d="M361.4,353c0,3.8,0.1,7.6,0,11.5c-1.1,34.3-0.6,68.6,4.3,102.6c3.8,26.3,8.5,52.5,12.9,78.7
		c1.4,8.5,3.2,17,4.7,25.5c0.5,2.8,0.4,5.7-0.8,9.1c-1.3-2.5-2.8-4.9-3.9-7.4c-10.1-24.1-16.4-49.2-19.5-75c-3.9-32.4-5.4-65-4-97.6
		c0.7-15.8,2.5-31.6,3.9-47.4C359.7,352.9,360.5,353,361.4,353z"/>
	<path class="st1" d="M539.3,312c-3,1.9-4.6,3.6-6.4,3.9c-2.9,0.5-5.3-1.1-5.1-4.3c0.1-3.2,2.6-4.7,5.4-4
		C535.1,308,536.5,309.9,539.3,312z"/>
	<path class="st1" d="M397.5,606.1c-2.4,2-4,4.3-4.9,4c-1.7-0.5-3.6-2.3-4.1-4c-0.3-0.9,2.2-3.8,3.2-3.7
		C393.4,602.5,395,604.3,397.5,606.1z"/>
	<path class="st1" d="M402.9,626c2.1,3.1,3.9,4.7,4,6.5c0.1,1.1-2.3,3.4-3.6,3.4c-1.4,0-3.9-1.9-3.9-3.1
		C399.4,631.1,401.1,629.3,402.9,626z"/>
	<path class="st1" d="M769.4,442.9c0.3,27.8-2.4,55.2-11.6,81.6c-1,2.8-1.8,5.9-3.6,8.1c-1.1,1.4-4.3,2.4-5.9,1.7
		c-1.6-0.6-3.3-3.4-3.3-5.3c0-2.9,1.5-5.7,2.3-8.6c12.9-41.6,15.4-83.8,6-126.2c-9.6-43.1-38.5-69.4-79.2-83.9
		c-16.7-6-34.1-8.7-51.8-9.9c-1-0.1-2,0-3-0.1c-6.4-0.4-9.1-2.2-8.5-5.8c0.8-5.5,5.2-5.3,9.3-5.2c20.1,0.5,39.7,4.1,58.7,10.8
		c58.3,20.7,87.6,64.9,90.6,124.7C769.7,430.9,769.4,436.9,769.4,442.9z"/>
	<path class="st1" d="M558.8,478.3c0.2-2.5,0.2-6.9,0.8-11.1c5.4-38,36.6-61.8,74.8-57.1c10.9,1.4,20.2,6.1,28.3,13.6
		c24.1,22.3,35.3,77.3-2.6,109.9c-15.8,13.6-34.4,18.7-54.9,15.9c-13.9-1.9-24.7-9.6-32.6-21.1C562.7,513.8,558.9,497.5,558.8,478.3
		z M679,478.8c-2-9-3-18.4-6.2-27c-7.5-20.3-22.7-39.1-55.7-34.5c-19.3,2.7-35.2,11-43.8,29.1c-12.6,26.3-10.7,52.5,4.4,77.2
		c9.1,14.9,23.4,21.4,40.8,20.1C652.8,541.2,677.9,513.6,679,478.8z"/>
	<path class="st1" d="M739.3,543.5c2.1,2.3,4.4,3.8,4.2,4.8c-0.4,1.7-2.2,3.2-3.5,4.7c-1.4-1.1-3.7-2.2-3.8-3.4
		C736.1,548,737.8,546.2,739.3,543.5z"/>
	<path class="st1" d="M937.6,274.8c18-0.5,36.3,2,54.2,8c31.2,10.5,54.3,30.4,69.5,59.5c7,13.4,11.9,27.5,14.8,42.3
		c0.4,1.9,1.3,4.2,0.8,5.8c-0.7,1.9-2.5,4.3-4.3,4.7c-1.6,0.3-4.5-1.3-5.5-2.8c-1.4-2.1-1.5-5-2.3-7.6c-2.9-9.2-5.2-18.6-8.9-27.5
		c-16.6-39.6-46.8-62-88.7-69c-32.4-5.4-64.4-1.7-95.9,6.9c-2.9,0.8-5.8,2.2-8.7,2.2c-1.9,0-5.1-1.7-5.4-3c-0.4-2.1,0.7-5.2,2.3-6.6
		c1.8-1.6,4.8-2.1,7.4-2.8C889.7,278.1,913,274.4,937.6,274.8z"/>
	<path class="st1" d="M927.8,435.6c-18.3,0-36.6-0.4-54.9,0.2c-12.3,0.4-17.3-7.1-12.3-18.9c11.5-27.1,32.4-41.5,61-44.9
		c12.2-1.5,24.6-1.1,36.6,2.2c22.7,6.3,37.5,23.9,38.9,46.5c0.7,10.9-2.6,14.8-13.5,14.9C965.1,435.7,946.4,435.6,927.8,435.6z
		 M865.1,427c12.1,2.5,117.3,2,124.4-0.3c2.5-20.4-9.7-39-30.7-45.3c-19.4-5.8-38.9-4.9-57.7,2.7c-16.3,6.6-27.2,18.7-33.9,34.8
		C866.2,421.3,865.9,423.9,865.1,427z"/>
	<path class="st1" d="M1079,410.5c-2.6,1.7-4.5,3.7-5.4,3.4c-1.7-0.6-3.3-2.6-3.8-4.3c-0.2-0.7,2.6-3.4,3.7-3.2
		C1075.2,406.6,1076.6,408.6,1079,410.5z"/>
</g>
</svg>
