<?xml version="1.0" encoding="utf-8"?>
<!-- Generator: Adobe Illustrator 19.0.0, SVG Export Plug-In . SVG Version: 6.00 Build 0)  -->
<svg version="1.1" id="Layer_1" xmlns="http://www.w3.org/2000/svg" xmlns:xlink="http://www.w3.org/1999/xlink" x="0px" y="0px"
	 viewBox="0 0 1600.2 308.1" style="enable-background:new 0 0 1600.2 308.1;" xml:space="preserve">
<style type="text/css">
	.st0{fill:#FFFFFF;}
</style>
<g>
	<path class="st0" d="M811.6,155.1c5-1.4,56.2-1.3,61,0.2c-0.2,1.6-0.2,3.4-0.6,5c-4,15.3-8.1,30.6-12.1,45.9
		c-0.6,2.4-1.1,4.8-1.7,7.1c0.3,0.2,0.6,0.4,0.9,0.6c3.3-2.8,6.7-5.5,10-8.5c14-12.6,27.9-25.2,41.8-37.9c3.9-3.6,8-7.1,11.8-10.8
		c1.9-1.8,4-2.8,6.7-2.8c22.3,0,44.7,0,67,0c0.6,0,1.3,0.2,3.1,0.5c-30.2,24.8-60.4,48.1-89.6,72.1c1.7,5.1,32.5,50.1,36,52.5
		c3.1-4.2,6.3-8.4,9.4-12.7c18.9-26.4,37.8-52.8,56.8-79.2c6.9-9.6,13.8-19.2,20.6-28.9c2.2-3.2,5-4.5,8.8-4.5
		c19.7,0.1,39.3,0,59,0.1c1.8,0,3.5,0.4,6,0.7c8.8,43.2,17.6,86.2,26.5,129.6c2.7-3.9,24.5-89.5,24.1-94.6c-1.8-0.2-3.7-0.6-5.6-0.6
		c-6.8-0.1-13.7,0-20.5-0.1c-2,0-3.9-0.3-6.5-0.5c-3.2-11-5.2-22-7.3-33.3c1.5-0.5,2.5-1,3.6-1.2c1.6-0.2,3.3-0.1,5-0.1
		c91.5,0,183,0,274.5,0c2.6,0,5.2,0.2,8.5,0.4c-2.3,13.2-6.3,25.2-9.5,38c-2.6,0.2-5,0.6-7.4,0.6c-24.8,0-49.7,0-74.5,0
		c-2.3,0-4.6,0.2-6.7,0.3c-2.8,4.2-19.9,69.7-19.8,76.1c2.2,0.2,4.4,0.5,6.6,0.5c24.7,0,49.3,0,74,0.1c2.2,0,4.5,0.4,6.6,0.6
		c0.3,4.4-6,29.8-8.6,34.8c-1.6,0.2-3.6,0.6-5.5,0.6c-47,0-94,0-141,0c-1.6,0-3.2-0.3-5.4-0.5c0.2-1.9,0.2-3.3,0.6-4.7
		c7.6-29.7,15.3-59.4,22.9-89.1c1.5-6,3.1-11.9,4.5-17.9c0.3-1.2,0.3-2.5,0.4-4.3c-8.3-0.9-16.2-0.4-24.4-0.3c-1,3-2,5.4-2.7,7.9
		c-5.4,21-10.7,42-16,63c-3.3,13.1-6.7,26.2-10.1,39.2c-0.5,2-1.5,4-2.1,5.6c-5.9,1.7-116.6,1.4-121.4-0.4
		c-3.8-33.6-7.7-67.6-11.5-101.6c-0.3-0.1-0.6-0.2-1-0.4c-8.8,14.9-17.6,29.8-26.5,44.8c3.6,2.6,7.2,1.2,10.5,1.5
		c3.3,0.3,6.5,0.3,9.5,0.4c2.6,5.6,5,29,3.6,34c-1.8,0.2-3.9,0.6-6,0.6c-10.8,0.1-21.7,0-32.5,0c-2.1,0-4.3,0.2-6.8,0.4
		c-4.2,7-8.4,13.9-12.4,20.5c-4.9,1.4-107.8,1.5-113.7,0.1c-10.2-19.5-20.6-39.5-31.6-60.5c-0.8,2.1-1.4,3.3-1.7,4.6
		c-4.4,16.8-8.7,33.5-13.1,50.3c-0.5,1.9-1.1,3.8-1.6,5.4c-4.8,1.7-57.2,1.7-61.4,0.2C772.9,300.8,808.9,160.2,811.6,155.1z"/>
	<path class="st0" d="M191.5,249c-0.9,0.6-1.8,1.3-2.7,2c-16.5,12.9-35.2,19.3-56.1,19.3c-13.8,0-27.7,0-41.5,0
		c-1.9,0-3.9-0.2-6.5-0.4c1.8-11.6,5.4-22,8.5-32.9c2.3-0.3,4.2-0.7,6.1-0.7c6.2-0.1,12.3,0.1,18.5-0.1c4-0.2,8-0.6,11.9-1.5
		c5.1-1.1,9.1-3.9,11.8-8.6c2.5-4.4,4.4-9,4.6-14.1c0.3-8.1-2.5-13.3-10.1-16c-15.2-5.5-29.6-3.3-42.4,6.7
		c-4.4,3.5-6.5,8.7-7.8,14.2c-4.8,19.2-9.7,38.4-14.6,57.6c-2.2,8.7-4.5,17.4-6.8,26.1c-0.4,1.6-1.1,3.1-1.5,4.4
		c-4.1,1.5-55.9,1.9-62.7,0.5c0.2-1.5,0.2-3.1,0.6-4.6c7.3-28.2,14.5-56.5,21.9-84.7c1.5-5.8,2.9-11.6,4.8-17.3
		c5.7-16.8,16.9-28.4,33.2-35.1c12.9-5.3,26.5-8,40.4-8.6c15.6-0.6,31.3-1.2,46.9-0.9c13.2,0.3,26.1,2.6,38.6,7.4
		c8.6,3.3,15.9,8.4,21.8,15.3c0.5,0.6,1.1,1.2,2.2,2.4c2.3-8.6,4.4-16.5,6.6-24.6c2.4-0.3,4.3-0.7,6.3-0.7c41.3,0,82.6-0.2,124,0.1
		c12.1,0.1,23.2,4.1,32.8,11.7c6.4,5.1,9.9,12,12.5,19.5c0.4,1.3,0.8,2.5,1.3,3.8c0.1,0.3,0.5,0.4,1,0.8c0.8-0.6,1.9-1.1,2.6-1.9
		c17-18.6,38.8-27.8,63.1-31.5c24.7-3.8,49.4-3.9,74.1,0.6c7.6,1.4,14.8,3.8,21.4,7.9c10.3,6.4,16.6,15.6,18.9,27.5
		c1.7,8.8,1.3,17.6-0.3,26.3c-2.6,14.1-6.6,27.9-13,40.8c-10.9,22.2-28.6,35.9-52.2,42.3c-11,2.9-22.1,4.9-33.5,5.2
		c-14.8,0.4-29.6,1.2-44.4,0.8c-13.1-0.3-26.3-1.6-38.6-7.1c-12.9-5.8-20.7-15.6-23.1-29.8c-1.4-8.2-0.3-16.2,0.7-24.7
		c-8.1,5-15.9,9.8-24.2,15c0.8,1.7,1.5,3.6,2.6,5.4c6.4,10.7,12.9,21.4,19.3,32.1c1.1,1.8,2.1,3.7,3.5,6.4c-2.3,0.3-3.8,0.7-5.3,0.7
		c-18.7,0-37.3,0-56,0c-1.5,0-2.9-0.3-4.1-0.4c-3.5-4.8-26.5-64.6-26.4-69c2-0.2,4.1-0.4,6.2-0.6c5.8-0.4,11.8,0,17.4-1.4
		c11.2-2.7,19-9.5,21.5-21.2c2.2-10.2-3.6-19.1-14.3-19.9c-12.8-0.9-25.6-0.2-38.4-0.1c-0.3,0-0.6,0.3-1.4,0.7
		c-0.4,1.3-1.2,2.9-1.6,4.7c-6.5,25.3-13,50.7-19.5,76c-2.2,8.6-4.4,17.1-6.7,25.6c-0.4,1.6-1,3.1-1.4,4.4
		c-4.9,1.7-58.2,1.6-63.1-0.1c4.7-18.4,9.4-36.8,14.1-55.3C192.1,249.4,191.8,249.2,191.5,249z M458.5,274.5c0-0.1,0-0.3,0-0.4
		c1.8,0,3.7,0.1,5.5,0c14.2-0.6,25.7-5.9,33.4-18.5c4.9-8.1,7.7-16.9,10.4-25.9c2.2-7.5,3.7-15.2,3.1-23.1
		c-0.5-7.1-4.1-12.2-10.8-14c-12.4-3.4-24.7-3.1-36.4,2.8c-8.6,4.4-14.5,11.5-18.8,20c-6.8,13.4-11.6,27.2-10.8,42.5
		c0.4,7.9,4.5,13.3,12.1,15.1C450.2,274,454.4,274,458.5,274.5z"/>
	<path class="st0" d="M929.2,130c-3.2-27.7-6.4-55.4-9.5-83.1c-8.5,11.5-15.5,23.8-23,36.9c6.2,0.3,11.5,0.5,16.5,0.7
		c2.5,4.6,4.5,20.2,3.7,28c-1.9,0.2-4,0.7-6,0.7c-8.5,0.1-17,0.2-25.5,0c-4.5-0.1-7.7,1.1-9.7,5.4c-1.5,3.2-3.6,6-5.3,9
		c-1.4,2.4-3.3,3.6-6.1,3.6c-1.2,0-2.3,0-3.5,0c-26.7,0-53.3,0-80,0c-2.3,0-4.5-0.3-7.4-0.5c0.3-2.5,0.4-4.4,0.8-6.3
		c3.2-12.4,6.4-24.8,9.6-37.3c0.4-1.4,0.6-2.9,1-4.9c-1.9-0.4-3.5-0.9-5-1c-12.7-0.1-25.3-0.1-38,0c-1.3,0-2.6,0.3-4.5,0.6
		c-5.5,15.8-8,32.5-13.3,48c-4.3,1.6-45.3,1.9-50.5,0.5c-0.4-3.8,28.9-118.6,31.7-124.1c4.4-1.7,45.6-1.7,50.5,0.2
		c-0.3,1.9-0.4,4-1,6.1c-3.2,12.8-6.5,25.5-9.8,38.3c-0.4,1.7-0.7,3.5-1,5.2c4.4,1.5,42.3,1.5,47.6,0.1c0.6-1.7,1.4-3.7,1.9-5.7
		c3.4-12.9,6.6-25.8,10-38.7c1.5-5.8,2.3-6.5,8.2-6.5c12.8-0.1,25.7,0,38.5,0c1.7,0,3.5,0.5,5.7,0.8c-0.2,2.3-0.2,4.1-0.7,5.8
		c-6.8,26.5-13.7,52.9-20.5,79.4c-0.7,2.8-1.4,5.7-2.1,8.5c0.3,0.2,0.7,0.3,1,0.5c1.6-2.2,3.3-4.4,4.9-6.7
		c14-19.4,28.1-38.9,42.1-58.4c6.2-8.6,12.6-17.2,18.7-26c1.9-2.7,4.2-4,7.5-4c15.8,0.1,31.7,0,47.5,0.1c1.5,0,2.9,0.4,4.7,0.6
		c0.7,2,1.5,3.8,1.9,5.7c7.7,37.5,15.4,75.1,23.1,112.6c0.4,1.9,0.5,3.9,0.7,5.6C980.5,131.6,935.5,131.8,929.2,130z"/>
	<path class="st0" d="M1576.4,306.2c-21.6,0-43.1,0-65,0c-9.3-23.3-18.3-46-27.1-69.5c2.8-0.2,4.7-0.4,6.6-0.5
		c5.8-0.3,11.7,0,17.4-1.1c8.9-1.7,15.8-6.7,20.2-15c2.3-4.3,2.9-8.9,2.3-13.6c-0.8-6.6-6.8-12.6-14.6-12.9c-12.6-0.5-25.3-0.1-38,0
		c-0.3,0-0.6,0.3-1.5,0.7c-0.5,1.4-1.4,3.1-1.8,5c-6.7,26-13.3,52-20,77.9c-2,7.9-4.1,15.8-6.2,23.7c-0.4,1.4-0.9,2.8-1.5,4.6
		c-2,0.3-3.9,0.7-5.9,0.7c-17,0.1-34,0.1-51,0c-1.8,0-3.5-0.4-5.1-0.6c-1-4,36-145.4,38.3-150.8c1.7-0.2,3.6-0.6,5.5-0.6
		c41.5,0,83-0.2,124.5,0.1c13,0.1,25,4.5,34.6,13.6c7.3,6.9,11,15.8,12,25.8c1.6,16.4-4.3,30.4-14.6,42.8
		c-7.8,9.4-17.4,16.4-28.2,21.8c-1.6,0.8-3.1,1.8-5.1,3c0.9,1.9,1.5,3.6,2.4,5.1c6.8,11.5,13.7,22.9,20.5,34.3
		c0.8,1.4,1.5,2.8,2.2,4.3C1576.9,305.3,1576.7,305.8,1576.4,306.2z"/>
	<path class="st0" d="M1014.6,6.5c5.6-1.9,46.6-1.8,51.2,0.2c-0.3,1.9-0.4,4-0.9,6c-4.3,17.6-8.6,35.3-12.9,52.9
		c-1.5,6-2.9,12-4.2,18c-0.5,2.3-0.7,4.6-0.7,6.9c0,7.7,3.6,11.6,11.3,12.4c12.1,1.4,23.6-6.5,26.7-18.6c4.1-16,7.9-32,11.8-48
		c2-8.3,4.1-16.5,6.2-24.7c0.4-1.8,1-3.5,1.5-5c4.6-2.1,44.8-2.1,49.6-0.1c-0.3,2-0.6,4.1-1.1,6.1c-5.7,23.5-11.4,46.9-17,70.4
		c-0.6,2.4-1,4.9-1,7.4c0,7.4,3.7,11.5,10.9,12.4c11.3,1.5,23.3-5.8,26.6-16.7c2.7-8.8,4.7-17.7,6.9-26.6c4.2-17,8.3-34,12.5-51
		c0.2-0.8,0.6-1.5,0.9-2.2c4.6-1.9,46.7-2,51.4,0.1c-0.1,1.1-0.1,2.4-0.5,3.7c-6.9,27-13.8,53.9-20.8,80.8
		c-1.8,7.2-4.8,13.8-9.1,19.9c-4.8,6.7-11.3,11.2-18.8,14.4c-9.6,4.1-19.6,6.4-30,6.9c-12,0.5-24,1.1-35.9,0.8
		c-10.2-0.2-20.2-2.3-29.7-6.3c-2.4-1-4.7-2.5-7-3.9c-1.4-0.8-2.8-1.8-4.2-2.7c-1.4,0.6-2.7,1-3.8,1.7
		c-14.5,7.9-30.2,11.1-46.6,11.4c-8.2,0.1-16.3,0.2-24.3-2.4c-7.3-2.4-13.9-5.7-18-12.6c-2.4-3.9-3.6-8.1-3.8-12.8
		c-0.3-8.4,1-16.6,3.1-24.7c5.3-20,10.3-40,15.5-60C1011.9,16,1013.3,11.3,1014.6,6.5z"/>
	<path class="st0" d="M572.3,305.8c1-2.1,1.5-3.3,2.2-4.4c5.2-8,10.5-15.8,15.5-23.9c2.5-4,5.6-5.5,10.3-5.5c28.5,0.1,57,0.1,85.5,0
		c3.8,0,7.5-1,11.2-1.9c1.6-0.4,3-1.4,4.4-2.4c6.6-5,6-13.6-1.5-17c-3.7-1.6-8-2.4-12.1-2.5c-15-0.3-30,0-45-0.2
		c-7.8-0.1-15.6-1-23-3.9c-4.7-1.8-9.1-3.9-12.8-7.5c-6.5-6.3-8.8-14.2-7.7-22.8c3.3-24.9,17.2-41.7,40.8-50.3
		c13.7-5,27.9-7.8,42.5-8.5c15.1-0.7,30.3-1.2,45.4-0.8c12,0.3,23.9,2.3,35,7.4c17,7.8,22.4,22.6,17.4,39.7
		c-0.2,0.6-0.6,1.1-0.9,1.6c-4.1,1.5-54.1,1.7-59.5,0.2c-0.4-0.9-1-1.9-1.5-2.9c-1.6-3.5-4.3-6-7.9-7.1c-11-3.5-22-3.5-32.8,0.5
		c-3.4,1.3-6.6,3.9-9.1,6.7c-4.9,5.7-3,13,4.2,15.2c5.2,1.6,10.8,2.3,16.2,2.4c18,0.3,36-0.1,54,0.2c4.9,0.1,10,1,14.7,2.5
		c14.1,4.6,19.3,17.4,18.2,29.4c-1.2,13.2-6.2,25-15.2,34.6c-7.8,8.4-18,13.7-29,17c-10.4,3-21.1,4.6-32,4.6
		c-39.8-0.2-79.6-0.1-119.5-0.1C577.9,306.2,575.6,306,572.3,305.8z"/>
	<path class="st0" d="M200.2,132.8c-8.2-0.8-18.7-1.4-29-2.8c-8.5-1.1-16.5-4.1-23-10.1c-9.3-8.6-11.8-20-11.1-31.9
		c0.9-14.4,4.5-28.2,10.6-41.4c10.3-22,27.7-35.3,50.9-41.3c9.7-2.5,19.6-3.5,29.5-4.4c13.1-1.2,25.9-0.1,38.7,2.2
		c6.4,1.1,12.8,3.8,18.7,6.6c9.9,4.7,15,13.4,17.3,23.7c1.8,8,1.5,16.2,0.2,24.3c-2.2,13.7-5.6,27-12.4,39.3
		c-7.8,14.1-19.4,23.5-34.5,28.7c-10,3.4-20.3,5.1-30.8,5.7C217.8,131.6,210.2,132.2,200.2,132.8z M212.1,103.4c0-0.1,0-0.2,0-0.4
		c1.3,0,2.7,0.1,4,0c10.5-0.7,19.5-4.4,24.8-14.1c2.4-4.4,4.3-9,5.8-13.7c2.8-8.6,4.8-17.3,4.3-26.4c-0.4-7.5-3.7-11.7-11-13.2
		c-2.1-0.4-4.2-0.9-6.4-1c-11.7-0.7-22.1,2.3-29,12.2c-9,12.9-13.4,27.4-12.4,43.3c0.3,5.9,4.3,10.8,10.1,12.2
		C205.5,102.9,208.8,103,212.1,103.4z"/>
	<path class="st0" d="M440.7,130.1c-4.9,1.4-45.6,1.5-50.9,0.1c0.3-1.8,0.4-3.7,0.9-5.6c5-19.5,10.2-39,15-58.6
		c1.4-5.6,2-11.5,2.2-17.2c0.2-6.9-3.1-10.7-9.8-12.6c-1.8-0.5-3.6-0.9-5.4-1c-7.2-0.1-14.3-0.1-21.5,0c-1.1,0-2.2,0.4-4,0.8
		c-4.5,15.5-8.3,31.3-12.4,47.1c-4,15.6-8.2,31.2-12.3,47.2c-2.2,0.3-4.1,0.9-6,0.9c-13.2,0.1-26.3,0.1-39.5,0
		c-1.7,0-3.5-0.5-5.1-0.7c-0.5-5,30.7-125.4,33.5-129.7c5.9-1.2,12.2-0.9,18.5-0.2c2.3,0.3,4.6,0.8,6.8,1.4
		c14.1,4.1,28.2,3.9,42.5,1.4c8.5-1.5,17.1-2.7,25.7-3.1c9.5-0.4,19,0.7,27.9,4.3c13.3,5.4,20.1,17.4,17.8,31.6
		c-0.9,5.2-2.2,10.4-3.5,15.6c-6.1,24-12.3,48.1-18.5,72.1C442.1,126.2,441.2,128.3,440.7,130.1z"/>
	<path class="st0" d="M1598.3,43.9c-16.7,0-32.8,0-48.6,0c-0.7-0.6-1.2-0.9-1.4-1.3c-2.5-6.5-8.1-8.2-14.2-9.3
		c-6.4-1.2-12.6-0.6-18.7,1.3c-4.3,1.3-8.4,3.4-10.3,8c-2.1,5.3-0.6,9.3,4.8,11.2c2.6,0.9,5.5,1.3,8.3,1.3c10.5,0.2,21-0.1,31.5,0.1
		c7.6,0.1,15.3,0.5,22.9,1.2c3.4,0.3,6.9,1.3,10.1,2.7c7.9,3.3,12.4,9.5,13.3,18c1.3,13.6-2.6,25.7-11.9,35.8
		c-9.8,10.7-22.5,15.2-36.3,17.2c-5.7,0.8-11.6,1.1-17.4,1.1c-31.5,0.1-63,0.1-94.5,0c-2.2,0-4.5-0.3-7.4-0.5
		c0.8-1.9,1.1-3.1,1.7-4.2c3.6-6.2,7.5-12.2,10.9-18.5c2.4-4.3,5.5-6,10.5-5.9c22.8,0.2,45.7,0.1,68.5,0c3.1,0,6.4-0.3,9.3-1.2
		c2.3-0.7,4.5-2.2,6.1-4c4.2-4.5,3-11-2.8-13.1c-4.6-1.7-9.7-2.3-14.6-2.5c-12-0.3-24,0.1-36-0.2c-8.4-0.2-16.5-1.8-23.7-6.7
		c-8.2-5.6-10.7-13.8-9.8-23.1c1.2-12.3,6-23.2,15.4-31.6c6-5.4,13.1-9.1,20.8-11.6c10.8-3.6,22-5.5,33.3-6c9.1-0.4,18.3-0.8,27.4-1
		c10.7-0.2,21.3,1.2,31.6,4.3c9.1,2.7,16.9,7.3,20.8,16.5C1600.9,28.9,1600.8,36.1,1598.3,43.9z"/>
	<path class="st0" d="M1267.2,6.1c5.7-1.6,45.9-1.3,50.4,0.6c-3.2,14.6-7.4,29.1-11.2,44.6c1.4-1,2.3-1.6,3.1-2.2
		c0.3-0.2,0.5-0.5,0.7-0.7c13.3-13,26.7-26,40-39.1c2.6-2.6,5.4-4.2,9.2-4.2c16.2,0.1,32.3,0,48.5,0c1.3,0,2.6,0.3,5,0.6
		c-1.6,2.1-2.6,3.7-4,4.9c-14.3,12.2-28.7,24.3-43.1,36.4c-5,4.2-9.9,8.4-14.8,12.7c-1.1,1-1.9,2.2-3.1,3.7c1.5,2.6,2.7,5.1,4.2,7.5
		c11.7,18,23.5,36,35.2,54c1.1,1.6,2,3.3,3,5c-4.1,1.6-56.8,2-64.4,0.6c-1.2-1.9-2.9-4.1-4.2-6.6c-6.5-12.6-13-25.2-19.4-37.7
		c-0.7-1.4-1.6-2.8-3.2-5.3c-1,2.8-1.6,4.4-2.1,6c-3.3,12.6-6.5,25.2-9.7,37.7c-0.5,1.9-1.2,3.8-1.7,5.4c-4.4,1.6-45.6,1.8-50.4,0.4
		C1234.8,126.1,1264.1,11.8,1267.2,6.1z"/>
	<path class="st0" d="M542.9,130c-5.3,1.7-45.9,1.6-50.5-0.2c0.2-1.7,0.2-3.7,0.6-5.5c3.1-12.1,6.2-24.2,9.5-36.2
		c1-3.6,0.8-6.7-1.2-10c-3.5-5.8-6.6-11.9-9.8-17.9c-7.1-13.4-14.1-26.8-21.2-40.2c-1.6-2.9-3.3-5.8-4.8-8.7c-0.7-1.4-1.2-3-1.9-4.8
		c1.6-0.5,2.7-1.1,3.7-1.1c18.6-0.1,37.2,0,55.8,0c3.7,6.4,4.9,13,7.2,19.2c2.2,6.2,4.3,12.5,6.8,19.8c1.7-1.8,2.7-2.8,3.5-3.9
		c6.8-9.8,13.8-19.6,20.4-29.6c2.6-3.9,5.5-5.6,10.3-5.6c17.8,0.2,35.6,0.1,53.5,0.1c1.8,0,3.5,0.3,6.5,0.5
		c-1.7,2.1-2.5,3.4-3.6,4.5C605,33.1,582.5,56,559.9,78.8c-2.9,2.9-4.8,6.1-5.8,10.2c-3,12.3-6.4,24.5-9.6,36.7
		C544,127.3,543.3,128.8,542.9,130z"/>
	<path class="st0" d="M31.2,129.6c4-15.4,8.1-31,12-46.6c3.9-15.4,8.1-30.8,12-46.9c-2.8-0.4-4.7-0.8-6.6-0.8
		c-8.8-0.1-17.7,0-26.5-0.1c-2,0-3.9-0.3-5.6-0.4c-2-4.6-2-23.8-0.1-28.9C18,5.6,20,5.2,21.9,5.2c43.5,0,87,0,130.4,0
		c1.8,0,3.5,0.3,5.8,0.5c0.2,5.9-3.6,9.9-5.3,14.6c-1.7,4.8-4.2,9.4-6.5,14.3c-2.4,0.2-4.5,0.6-6.6,0.6c-8.5,0.1-17,0-25.5,0
		c-2,0-3.9,0.2-6.3,0.4c-0.7,2-1.6,3.8-2.1,5.6C98.6,69.1,91.4,97,84.1,124.9c-0.5,1.8-1.1,3.5-1.5,5
		C77.7,131.8,35.9,131.7,31.2,129.6z"/>
	<path class="st0" d="M1372.1,216.4c0.2,3.9-6,27.6-8.1,30.9c-4.9,1.4-49.9,1.2-54.6-0.4c1.7-10.5,4.9-20.7,7.8-30.6
		C1322.7,214.5,1368.2,214.7,1372.1,216.4z"/>
	<path class="st0" d="M1420.5,5.3c10.7-0.2,20.6-0.4,31.1,0.1c-0.5,2.2-0.6,3.6-1.1,5c-2.2,6.6-4.5,13.2-6.6,19.9
		c-1.2,3.9-3.5,5.7-7.6,5.8c-4.6,0.1-9.3,0.6-13.9,0.9c-1.4,0.1-2.9-0.3-5.1-0.5C1418.3,26.2,1419.4,16.2,1420.5,5.3z"/>
</g>
</svg>
