<?xml version="1.0" encoding="utf-8"?>
<!-- Generator: Adobe Illustrator 19.0.0, SVG Export Plug-In . SVG Version: 6.00 Build 0)  -->
<svg version="1.1" id="Layer_1" xmlns="http://www.w3.org/2000/svg" xmlns:xlink="http://www.w3.org/1999/xlink" x="0px" y="0px"
	 viewBox="0 0 383.9 177.2" style="enable-background:new 0 0 383.9 177.2;" xml:space="preserve">
<style type="text/css">
	.st0{fill:#FFFFFF;}
</style>
<g>
	<path class="st0" d="M289.2,60.4c-1.9,1.7-2.8,0.5-3.8-0.5c-1.8-1.7-2.6-3.9-2.9-6.3c-0.2-1.3-0.5-2.7-0.8-4
		c-0.1-0.4-0.4-0.9-0.7-1c-1.5-0.3-2-1.6-2.6-2.8c-0.3-0.5-0.6-1.1-1-1.6c-0.5-0.7-0.2-1.7,0.9-2c0.8-0.3,1.7-0.4,2.6-0.7
		c-0.3-0.1-0.5-0.2-0.8-0.3c-0.9-0.2-1.7-0.5-1.8-1.6c0-0.3-0.4-0.5-0.7-0.7c-1.7-1.3-1.8-2.7-0.3-4.1c2.4-2.2,5.2-3.3,8.5-3.4
		c0.4,0,0.9,0.2,1.3,0.2c2.6,0.6,5.2,1.2,8,1.9c0.2-1,0.3-1.8,0.5-2.5c0.1-0.3,0.4-0.7,0.6-0.8c0.3,0,0.8,0.2,0.9,0.5
		c0.6,0.8,1.1,1.7,1.8,2.8c1-2,1.9-3.8,2.8-5.6c0.2,0,0.3,0,0.5,0c0.2,0.6,0.5,1.1,0.6,1.7c0.4,2.2,0.6,4.4,1,6.5
		c0.1,0.5,0.5,1,0.8,1.5c0.7,1.2,1.7,2.2,2.1,3.5c1.5,4.3,2.7,8.8,4.1,13.1c0.1,0.4,0.2,0.9,0.4,1.6c2.5-3,6.2-2.7,9.7-3.7
		c-0.5-0.6-0.9-1-1.3-1.5c-1.2-1.3-2.3-2.6-3.5-4c-0.6-0.7-0.5-1.3,0.2-1.9c0.7-0.6,0.9-1.2,1-2.2c0.1-1.6,0.9-3.1,1.6-4.6
		c0.5-1.1,1.3-2,2.1-2.9c1.4-1.4,1.5-3.1,1.1-4.9c-0.5-2.7,0.4-3.8,3.2-3.7c2.8,0.1,5.2,1.2,7.6,2.4c2.5,1.3,5,2.4,8,2.1
		c-0.3,0.9-0.6,1.6-0.9,2.6c0.8-0.3,1.4-0.5,2-0.7c0.2,0.9,0,1.6-0.6,2.3c-1.6,1.7-3.6,2.3-5.7,1.5c-1.8-0.7-3.5-1.8-5.1-2.9
		c-1.7-1.2-3.3-2.5-5-3.8c-0.4-0.3-1-0.5-1.5-0.7c-0.3-0.1-0.8,0-0.9,0.1c-0.1,0.2-0.1,0.7,0.1,1c0.9,1.2,1.7,2.6,2.8,3.5
		c3.4,2.5,5.4,5.7,5.9,10c0.2,1.7,1.1,3.3,1.2,5c0.2,2.4,1.8,3.1,3.6,3.9c2.3,1,4.4,2.4,6.6,3.5c0.5,0.3,1.1,0.4,1.6,0.6
		c0.7,0.4,1.4,0.8,2.1,1.2c0.3,0.1,0.6,0.2,0.9,0.3c5.8,0.5,11.4-0.7,17-1.7c0.1,0,0.1-0.1,0.3-0.3c-0.9,0-1.6,0.1-2.5,0.1
		c-0.1-0.8-0.2-1.6-0.3-2.5c1.2-0.1,2.4-0.2,3.7-0.4c-0.1-1.4-0.2-2.7-0.3-4.1c-0.9-10.9-1.9-21.8-2.9-32.7
		c-0.4-4.6-0.8-9.2-1.2-13.7C362,2.2,362.3,1,363.5,0c1,1.1,1.6,2.3,1.7,3.6c0.9,8,1.8,16,2.7,23.9c1,8.5,1.9,17,2.8,25.5
		c0.1,0.7,0.3,1,1.1,0.9c0.9-0.1,1.8-0.3,2.9-0.4c0,0.9,0.1,1.7,0.1,2.7c-1.1,0-2,0-3.1,0c1.3,2.1,0.7,4.1,0.4,6.1
		c0,0.1-0.1,0.2-0.2,0.3c-2,0.6-1.2,2-1,3.2c0.1,0.9,0,1.5-0.9,1.8c-1.2,0.4-1.9,0-1.9-1.3c-0.1-0.9,0-1.9,0-3.1
		c-1.2,0.3-2.2,0.5-3.2,0.8c-3.7,1.1-7.3,2.5-11,3.3c-3.3,0.7-6.8,0.6-10.1,0.8c-1,0.1-2.1,0.1-3.1,0c-1.1-0.1-1.6,0.3-2,1.3
		c-1.6,3.7-3.2,7.3-4.7,11c-0.2,0.5-0.3,1.1-0.2,1.6c0.1,1.8,0.4,3.6,0.5,5.4c0.1,1.4,0.8,2.4,2,3c2.2,1.2,4.3,2.4,6.5,3.6
		c0.6,0.4,1.2,0.8,1.7,1.3c1.1,1.4,2.4,1.2,3.7,0.5c2.5-1.3,5-2.5,7.4-3.9c2.2-1.3,4.5-1.4,6.9-0.7c1.8,0.5,3.5,1,5.2,1.7
		c2.8,1.2,5.3,0.6,7.4-1.2c2.5-2.2,5.3-3.3,8.7-3.1c-1.7,2.1-1.6,4.6-1.6,7.1c0,0.4,0,0.9,0,1.3c0.3,6.3-4.5,9-8.5,9.7
		c-3.8,0.6-7.1-0.6-10.5-2.1c-2.2-1-4.5-1.8-6.8-2.5c-1.4-0.4-2.8-0.3-4.1,0.5c-1.6,1-3.2,1.1-4.9,0.1c0.4,1.7,1,3.4,1.1,5.1
		c0.6,8.3-1.5,15.8-7.1,22.2c-4.3,5-9.3,9.4-14.7,13.2c-1.2,0.9-1.8,1.7-1.8,3.3c0,3.6-1,7-4.1,9.3c-0.3,0.2-0.4,0.6-0.6,0.9
		c-1.3,3.2-2.6,6.4-3.8,9.7c-0.1,0.3-0.2,0.6-0.3,0.9c-1.6,2.2-2.1,4.8-2.4,7.4c-0.1,0.8-0.5,1.3-1.3,1.4c-1.6,0.3-3.3,0.8-4.9,1.1
		c-0.5,0.1-1,0-1.4-0.1c-0.7-0.2-1.2-0.5-0.7-1.3c0.3-0.5,0.4-1,0.6-1.6c0.3-1.3,1-2.4,2.1-3.2c1-0.8,1.6-1.8,1.4-3.2
		c-0.2-1.6,0.6-2.9,1.8-4c2.5-2.3,4.2-5.1,5.3-8.3c0.3-1,0.1-2.3,0.4-3.3c0.7-2.2,1.5-4.5,2.6-6.5c0.8-1.6,1.4-3.2,1.3-5
		c0-2.3,0.5-4.3,2.1-6.3c-1.4-0.6-2.7-1.3-4.1-1.8c-0.9-0.4-1.9-0.7-1.6-2.1c-1.5-0.1-2.9-0.2-4.3-0.2c-0.3,0-0.7,0.3-0.9,0.5
		c-0.7,0.9-1.4,1.8-2.1,2.8c-1.6,2.1-2.1,4.3-1.7,7c0.6,3.7-0.6,5.5-4.4,6c-2.7,0.4-5,1.2-6.8,3.3c-0.8,1-1.6,2-2.3,3
		c-0.1,0.2-0.1,0.6,0,0.7c1,1.1,0.7,2.5,1,3.7c0.5,2.2-0.2,3.7-2.2,4.7c-1.1,0.5-2.2,1.1-3.3,1.5c-0.6,0.2-1.1-0.1-1.1-0.9
		c-0.1-2.3-0.5-4.6-0.1-6.8c0.4-2.2,0.9-4.3,1.1-6.5c0.1-1.4,1.4-2.2,2.7-2.8c1.9-0.9,3.8-1.8,5.7-2.8c3.2-1.9,4.4-4.6,3.7-8.3
		c-0.3-1.9-0.1-3.9-0.2-5.9c0-0.4-0.1-1-0.4-1.3c-2.3-2.3-4.1-4.9-5.6-7.7c-0.5-0.9-1.1-1.8-1.7-2.7c-1.1-1.7-2.7-2.1-4.5-1.7
		c-3,0.7-5.6,2.1-7.6,4.5c-1,1.2-2.2,2.3-3.2,3.5c-0.5,0.6-1,1.2-1.3,2c-0.6,1.6-0.8,1.8-2.5,1.7c-0.3,0-0.5,0-0.8,0
		c-0.5,1.7-0.9,3.3-1.4,5c-3.2-0.3-6.1-1.3-8.9-2.9c1.9-1.9,3.6-3.8,5.5-5.5c2-1.8,4.2-3.3,6.4-4.9c1.2-0.9,2.2-1.9,2.3-3.6
		c-0.2,0-0.3,0-0.4,0.1c-3.8,2.1-7.9,2.1-12,2c-2.2-0.1-4.5-0.2-6.7-0.3c-0.3,0-0.6-0.1-0.8,0c-1.2,0.4-3.5,3.3-3.6,4.6
		c-0.1,3.9,0,7.8,1.4,11.6c0.1,0.1,0.1,0.3,0.1,0.5c-0.5,2.1,0.7,3.5,2,4.8c0.9,0.9,1,1.7,0.3,2.7c-1,1.5-1.8,3.1-2.9,4.5
		c-1,1.2-1.9,1-2.6-0.5c-0.5-1.1-1.1-2.2-1.5-3.3c-0.4-1.1-0.8-2.1-0.3-3.4c0.2-0.4-0.1-1.1-0.4-1.5c-0.9-1.1-1.2-2.3-1.1-3.8
		c0.3-3.5,0.5-7,0.7-10.5c0-0.7-0.2-1.5-0.5-2.2c-1.3-3,0.1-7.1,3-8.4c0.6-0.3,1.3-0.6,2-0.7c4.2-0.7,7.9-2.9,11.9-4.3
		c1.2-0.4,2.4-0.9,3.5-1.3c0.2-2.1,0.3-4.2,0.6-6.3c0.4-2.8,1.6-5.2,3.3-7.5c1.7-2.3,3.4-4.6,4.8-7c1.1-1.8,1.7-3.9,2.6-5.8
		c1.9-3.9,3.9-7.7,5.7-11.6c0.8-1.8,1.3-3.8,1.8-5.7C289.3,62,289.2,61.4,289.2,60.4z M283.1,48.4c-0.1,0.1-0.2,0.1-0.2,0.2
		c0.7,2.5,1.4,5,2.2,7.4c0.7,2.1,1.7,2.2,3.1,0.6c0.1-0.1,0.2-0.2,0.3-0.4c0.5-0.5,0.4-0.9-0.3-1.1c-1.5-0.3-2.4-1.3-3-2.6
		c-0.5-1.1-0.9-2.2-1.3-3.3C283.7,48.9,283.3,48.7,283.1,48.4z"/>
	<path class="st0" d="M76.9,145.6c2.5-8.2,4.9-16.2,7.3-24.2c1.5-5,3-10,4.4-15c0.2-0.8,0.3-1.7,0.4-2.6c0.1-1.5-0.5-2.2-2-2.5
		c-0.8-0.2-1.7-0.2-2.5-0.4c-0.8-0.2-1.6-0.4-1.5-1.4c0.1-1,0.9-1.1,1.7-1.1c3,0,6,0.1,9,0.1c3.5,0,7-0.1,10.5-0.1
		c0.9,0,2.1-0.1,2.2,1.2c0.1,0.9-0.7,1.5-2.2,1.5c-1.7,0-2.9,0.8-3.6,2.2c-1.3,2.6-2.6,5.2-3.5,8C91,129.1,85,147,78.9,164.8
		c-0.4,1.3-1,2.5-1.6,3.7c-1.4,2.5-3.3,2.5-4.8,0.1c-0.7-1.1-1.4-2.4-1.9-3.6c-5.7-13.6-11.4-27.2-17.1-40.8
		c-0.1-0.3-0.3-0.6-0.5-1.1c-0.3,0.6-0.4,1-0.6,1.4c-5.4,13.4-10.7,26.8-16.1,40.2c-0.4,1.1-0.9,2.1-1.5,3.1c-0.4,0.7-1,1.5-1.6,2
		c-1,0.9-2.3,0.8-3.1-0.3c-0.7-0.9-1.3-1.9-1.6-2.9c-4.5-13.3-9-26.5-13.5-39.8c-2.2-6.5-4.4-13.1-6.7-19.6c-0.5-1.5-1.4-3-2.1-4.5
		c-0.6-1.3-1.6-1.8-3-1.8c-0.4,0-0.9,0-1.3,0c-0.8-0.1-1.5-0.3-1.6-1.3c-0.1-1.1,0.8-1.2,1.5-1.3c1-0.1,2.1-0.1,3.1-0.1
		c3.9,0,7.8,0.2,11.6,0.2c3.1,0,6.2-0.1,9.3-0.1c0.2,0,0.6-0.1,0.7,0.1c0.4,0.3,1.1,0.8,1.1,1.2c0,0.4-0.6,1-1.1,1.1
		c-0.7,0.2-1.5,0.1-2.3,0.1c-1.6,0.1-2,0.6-1.6,2.1c1.5,5.8,3,11.6,4.7,17.3c2.4,8.3,5.1,16.5,7.6,24.7c0.1,0.3,0.2,0.6,0.4,1.2
		c0.4-0.9,0.6-1.6,0.9-2.3c5.1-13.6,10.2-27.2,15.3-40.8c0.4-1,0.8-1.9,1.3-2.8c0.5-1,1.3-1.8,2.5-1.7c1.3,0.1,2.1,1,2.6,2.1
		c1.1,2.5,2.1,5,3.2,7.5c5.1,12.2,10.1,24.3,15.2,36.5C76.5,144.9,76.6,145.2,76.9,145.6z"/>
	<path class="st0" d="M206.9,136.6c6.3,7.9,12.4,16.2,19.8,23.5c1.9,1.9,4,3.5,6.2,5.1c1.4,1,3,1.5,4.8,1.5c0.7,0,1.6,0,1.6,1.1
		c0,1.1-0.8,1.2-1.7,1.2c-4.7-0.1-9.4,0-14-0.2c-4-0.2-7.3-1.8-10.2-4.5c-4.1-3.9-7.4-8.5-10.6-13.1c-2.2-3.1-4.4-6.1-6.5-9.2
		c-0.5-0.7-1.1-1-2-1c-2.1,0.1-4.1,0-6.3,0c0,0.1-0.1,0.2-0.1,0.4c0.1,6.4,0.3,12.9,0.5,19.3c0,1.1,0.4,2.3,0.8,3.3
		c0.3,0.7,1.1,1.4,1.8,1.6c1.3,0.4,2.6,0.5,4,0.8c0.5,0.1,1.1,0.1,1.5,0.3c0.4,0.2,0.8,0.7,0.8,1c0,0.4-0.4,0.9-0.8,1.1
		c-0.4,0.2-1,0.2-1.5,0.2c-6,0-12-0.1-18-0.2c-2.7,0-5.4,0.1-8,0.2c-0.4,0-1,0.1-1.3-0.1c-0.4-0.2-0.8-0.7-0.9-1.1
		c0-0.4,0.4-0.9,0.8-1.1c0.5-0.3,1.2-0.3,1.8-0.3c2.6-0.2,3.7-0.9,4.2-3.4c0.5-2.6,0.8-5.4,0.8-8.1c0.1-11.6,0.1-23.2,0.1-34.8
		c0-4.3-0.1-8.6-0.2-13c0-0.2,0-0.3,0-0.5c-0.2-4.1-1.2-5.2-5.2-5.7c-0.7-0.1-1.4-0.1-2.1-0.2c-0.8-0.1-1.6-0.3-1.5-1.3
		c0.1-1,0.8-1.2,1.6-1.2c2.9,0,5.8,0,8.6,0c5.8,0,11.7,0,17.5-0.1c5,0,9.9,0.3,14.6,2.2c6.2,2.5,10.2,8.5,10.2,15.2
		c0,6.5-2.8,11.7-7,16.3C209.7,133.6,208.3,135.1,206.9,136.6z M187.8,119.5C187.8,119.5,187.9,119.5,187.8,119.5
		c0.1,2.1,0.1,4.2,0.1,6.4c0,2.1,0.1,4.2,0,6.3c0,1,0.3,1.4,1.2,1.5c1.9,0.2,3.8,0.4,5.7,0.4c4.4,0.1,6.9-2.2,8.4-6
		c1.3-3.3,1.5-6.8,1.1-10.3c-0.4-4-1.9-7.5-5.2-10.1c-3.2-2.5-6.9-2.5-10.6-2.2c-0.8,0.1-0.8,0.6-0.8,1.2
		C187.8,110.9,187.8,115.2,187.8,119.5z"/>
	<path class="st0" d="M151.1,169.2c-3.6,0-7.3,0-10.9,0c-0.4,0-0.9,0.1-1.3-0.1c-0.3-0.2-0.7-0.6-0.8-0.9c0-0.3,0.3-0.7,0.5-1.1
		c0.1-0.1,0.4-0.1,0.5-0.2c1.5-0.6,1.6-0.9,1.1-2.3c-1.8-4.8-3.6-9.6-5.4-14.3c-0.5-1.3-0.9-2.6-1.5-3.8c-0.2-0.4-0.7-0.8-1.1-0.8
		c-6,0-11.9,0-17.9,0c-0.3,0-0.9,0.4-1,0.7c-1.7,4.5-3.4,9.1-5.1,13.7c-0.2,0.4-0.3,0.8-0.4,1.3c-0.9,3.5,0,4.7,3.6,5.2
		c0.6,0.1,1.2,0.1,1.8,0.3c0.3,0.2,0.7,0.7,0.7,1.1c0,0.3-0.4,0.8-0.7,0.9c-0.5,0.2-1.2,0.3-1.8,0.3c-4.4,0-8.9-0.1-13.3-0.2
		c-2.7,0-5.4,0.1-8.2,0.1c-0.9,0-2.2,0.2-2.3-1.2c-0.1-1.4,1.3-1.5,2.2-1.4c3.9,0.2,6.1-2,7.5-5.2c2.3-5.2,4.5-10.3,6.6-15.5
		c6-14.8,12-29.7,18-44.6c0.5-1.2,1.1-2.4,1.9-3.5c1.1-1.6,2.7-1.6,3.9-0.1c0.7,0.9,1.3,1.9,1.8,3c6.2,15.3,12.4,30.7,18.6,46
		c1.9,4.6,3.9,9.1,5.8,13.7c0.3,0.6,0.6,1.1,0.9,1.7c1.6,3,3.9,4.7,7.4,4.5c0.5,0,1.2,0,1.6,0.3c0.4,0.2,0.9,0.7,0.9,1.1
		c0,0.4-0.5,0.9-0.9,1.1c-0.7,0.2-1.5,0.3-2.2,0.3C158.1,169.2,154.6,169.2,151.1,169.2C151.1,169.2,151.1,169.2,151.1,169.2z
		 M116.5,138.3c4.7,0,9.2,0,13.8,0c-2.3-6.2-4.5-12.3-6.8-18.8C121.1,126,118.8,132.1,116.5,138.3z"/>
	<path class="st0" d="M75.6,88.4c-5.1,0.1-10.3-0.9-14.9-3.8C53.7,80.3,49.5,74,48.3,65.8c-1.1-7,0-13.8,3.9-19.9
		c4.5-6.9,10.9-10.7,19-11.9c5-0.7,10-0.5,14.9,0.7c10.9,2.6,18.2,11.3,18.9,22.6c0.4,7.1-0.8,13.7-5,19.5
		c-5.6,7.7-13.3,11.3-22.7,11.5C76.8,88.4,76.4,88.4,75.6,88.4z M93.9,62.7c-0.4-3-0.7-6-1.3-8.8c-1.7-7.1-7.3-14.5-15.9-15.4
		c-7-0.7-13.3,2-15.9,9c-3.1,8.6-2.9,17.3,1.3,25.6c2.2,4.4,5.6,7.8,10.3,9.3c9.3,3.1,17.4-0.4,20-10.3C93.2,69,93.5,65.8,93.9,62.7
		z"/>
	<path class="st0" d="M193.1,87.8c-2.6,0-5.2,0-7.8,0c-0.3,0-0.6,0.1-0.8,0c-0.4-0.2-0.9-0.4-0.9-0.7c0-0.4,0.3-0.9,0.7-1
		c1.1-0.4,1.2-0.9,0.8-1.9c-1.7-4.3-3.3-8.7-4.9-13c-0.3-0.7-0.6-1-1.4-0.9c-4.2,0-8.3,0-12.5,0c-0.6,0-1,0-1.3,0.7
		c-1.2,3.3-2.4,6.5-3.7,9.8c-0.2,0.4-0.3,0.9-0.4,1.4c-0.5,2.3,0.1,3.2,2.4,3.6c0.3,0,0.6,0.1,1,0.1c0.6,0.1,1.4,0.2,1.2,1
		c-0.1,0.4-0.8,0.8-1.3,0.9c-1.3,0.1-2.6,0-3.8,0c-4,0-8.1,0-12.1,0.1c-0.5,0-1,0-1.4-0.1c-0.4-0.1-0.9-0.6-0.8-0.8
		c0.1-0.4,0.4-0.8,0.8-1c0.5-0.2,1.1-0.2,1.7-0.2c1.7-0.1,3-0.7,3.8-2.3c1.2-2.4,2.5-4.8,3.5-7.3c5.3-13.1,10.6-26.2,15.9-39.3
		c0.4-0.9,0.8-1.7,1.4-2.5c0.8-1,1.8-1,2.6-0.1c0.6,0.7,1.2,1.6,1.5,2.5c5.5,13.6,11,27.1,16.6,40.7c0.8,1.9,1.8,3.8,2.8,5.7
		c1,1.8,2.5,2.6,4.6,2.5c0.4,0,0.9,0,1.3,0.1c0.4,0.2,0.9,0.6,0.9,0.9c0,0.3-0.5,0.7-0.9,0.9c-0.4,0.2-0.9,0.1-1.4,0.1
		C198.4,87.7,195.8,87.7,193.1,87.8C193.1,87.7,193.1,87.8,193.1,87.8z M177.7,64.7c-1.7-4.6-3.3-9.1-5.1-14
		c-1.8,4.8-3.5,9.4-5.2,14C170.9,64.7,174.2,64.7,177.7,64.7z"/>
	<path class="st0" d="M124.2,39.6c-4.5,0.2-8.9,0.3-13.4,0.6c-1.5,0.1-2.4,1.3-3,2.6c-0.1,0.3-0.2,0.6-0.3,0.9
		c-0.3,0.7-0.6,1.3-1.4,1.1c-0.9-0.2-0.8-1-0.7-1.6c0.4-2.5,0.9-5,1.4-7.5c0.4-1.7,1.3-1.9,3-1.6c2.4,0.5,4.8,0.8,7.2,0.8
		c9.8,0.1,19.7,0,29.5,0c1.4,0,2.7-0.3,4-0.4c1.3-0.1,2,0.2,2,1.4c0,2.9-0.1,5.8-0.2,8.7c0,0.3-0.6,0.9-0.9,0.8
		c-0.4,0-0.8-0.5-1.1-0.8c-0.2-0.2-0.2-0.6-0.1-0.9c0-1.8-1-2.9-2.6-3.2c-2.1-0.4-4.2-0.7-6.3-0.8c-2.1-0.1-4.2,0-6.5,0
		c0,0.3-0.1,0.7-0.1,1.2c0,12.5,0,25,0.1,37.5c0,1.6,0.3,3.2,0.5,4.7c0.2,1.1,1,1.8,2.1,2c0.8,0.1,1.6,0.2,2.4,0.3
		c0.7,0.1,1.8-0.1,1.7,1c-0.1,1.1-1.1,1-1.9,1c-2.1,0-4.2-0.1-6.2-0.1c-4.2,0-8.5,0.1-12.7,0.1c-0.8,0-1.9,0.3-2-1
		c0-1.2,1.1-0.9,1.8-1c2.3-0.3,2.8-0.6,3.3-2.9c0.3-1.8,0.5-3.6,0.5-5.3c0-12.2,0-24.5,0-36.7C124.3,40.3,124.3,40.1,124.2,39.6z"/>
	<path class="st0" d="M29.4,39.5c0,0.5-0.1,0.8-0.1,1.2c0,12.8,0,25.7,0.1,38.5c0,1.4,0.3,2.8,0.6,4.1c0.2,1.1,0.9,1.7,2,1.8
		c0.9,0.2,1.9,0.3,2.8,0.4c0.6,0.1,1.4,0.1,1.3,1c0,0.9-0.8,0.9-1.4,0.9c-3,0-6-0.2-9-0.2c-3.5,0-7,0.1-10.4,0.2c-0.8,0-1.9,0.2-2-1
		c0-1.2,1.1-0.9,1.8-1c2.3-0.3,2.8-0.7,3.3-2.9c0.3-1.4,0.5-2.8,0.5-4.3c0-12.6,0-25.2,0-37.8c0-0.2,0-0.5-0.1-0.9
		c-0.6,0-1.2,0-1.8,0c-3.6,0.1-7.3,0.2-10.9,0.4c-2,0.1-3.2,1.3-3.9,3c-0.1,0.3-0.2,0.8-0.4,1c-0.4,0.3-0.9,0.5-1.3,0.8
		C0.4,44.4-0.1,44,0,43.7c0.5-2.8,1-5.7,1.6-8.5c0.2-1,1-1.6,2.1-1.2c2.5,1,5.2,1,7.8,1c9.9,0,19.8,0,29.6,0c1.3,0,2.5-0.2,3.8-0.4
		c1.5-0.2,2.2,0.2,2.2,1.6c0,2.8-0.1,5.6-0.2,8.4c0,0.4-0.6,0.7-0.9,1c-0.4-0.4-1-0.7-1.1-1.1c-0.8-3.3-1.5-4.1-5-4.4
		C36.5,39.8,33,39.7,29.4,39.5z"/>
	<path class="st0" d="M222.6,87.8c-4.8,0-9.7,0-14.5,0c-0.8,0-2.1,0.3-2.1-0.9c-0.1-1.3,1.2-1,2-1.1c2-0.3,3-1.2,3.2-4
		c0.3-3.7,0.4-7.4,0.4-11.1c0-8.7,0-17.4-0.1-26.2c0-1.6-0.2-3.2-0.3-4.8c-0.2-1.5-1.1-2.4-2.6-2.6c-0.8-0.1-1.5-0.1-2.2-0.3
		c-0.4-0.1-0.7-0.7-1.1-1c0.4-0.3,0.8-0.8,1.2-0.8c2.6,0,5.2,0.1,7.8,0.1c3.9,0,7.8-0.1,11.8-0.1c0.8,0,1.9-0.3,2,0.9
		c0.1,1.2-1.1,1-1.9,1.1c-0.1,0-0.2,0-0.2,0c-2.9,0.4-3.8,1.2-4,4.2c-0.1,2.7-0.2,5.4-0.2,8c0,7.3,0,14.6,0.1,22
		c0,2.8,0.2,5.6,0.4,8.4c0.1,1.9,0.8,2.8,2.7,3.2c3.8,0.8,7.6,0.7,11.3-0.1c2.1-0.5,2.8-2.3,3.5-4.1c0.2-0.6,0.3-1.2,0.6-1.7
		c0.2-0.3,0.8-0.6,1.1-0.6c0.3,0.1,0.7,0.7,0.6,1.1c-0.3,2.6-0.6,5.2-1.1,7.7c-0.4,2.2-1.3,2.8-3.5,2.8c-5,0-9.9,0-14.9,0
		C222.6,87.9,222.6,87.9,222.6,87.8z"/>
	<path class="st0" d="M283.1,48.4c0.3,0.3,0.6,0.5,0.7,0.9c0.5,1.1,0.8,2.2,1.3,3.3c0.6,1.3,1.5,2.3,3,2.6c0.8,0.2,0.8,0.5,0.3,1.1
		c-0.1,0.1-0.2,0.2-0.3,0.4c-1.4,1.6-2.4,1.5-3.1-0.6c-0.8-2.4-1.5-4.9-2.2-7.4C282.9,48.6,283,48.5,283.1,48.4z"/>
</g>
</svg>
