<?xml version="1.0" encoding="utf-8"?>
<!-- Generator: Adobe Illustrator 19.0.0, SVG Export Plug-In . SVG Version: 6.00 Build 0)  -->
<svg version="1.1" id="Layer_1" xmlns="http://www.w3.org/2000/svg" xmlns:xlink="http://www.w3.org/1999/xlink" x="0px" y="0px"
	 viewBox="0 0 2110 191" style="enable-background:new 0 0 2110 191;" xml:space="preserve">
<style type="text/css">
	.st0{fill:#FFFFFF;}
</style>
<polygon class="st0" points="6,6 6,49.5 53.8,49.5 53.8,185.5 113.8,185.5 113.8,49.5 161.8,49.5 161.8,6 "/>
<path class="st0" d="M665.3,6c-10.7,0-135.2,0-135.2,0v160.5L461,6h-64.2l-69.5,161.5l-26-54.8c1.2,0,3.4,0,7.3,0
	c13.2,0,19.3-14.8,19.3-20.2s0-62.7,0-69S319.2,6,311.2,6S172.3,6,172.3,6v179.5h61V85.2l47.3,100.3h105.8l42-99l23.3,54.5h-41.7
	v44.5h180v-136h35v136H685c0,0,0-148.8,0-159.7C685,15,676,6,665.3,6z M267.8,77.5h-34.4v-28h34.4V77.5z"/>
<path class="st0" d="M693.7,141l21.3,44.5c0,0,110,0,118.7,0c8.7,0,17.8-11.5,17.8-15.5s0-67.7,0-73.3c0-5.7-6-19.2-24.2-19.2
	c-18.2,0-71.2,0-71.2,0v-28h95.3V6c0,0-124,0-134.5,0s-20.2,8.8-20.2,17.5s0,63.5,0,72.3s10,16.8,18,16.8s77,0,77,0V141H693.7z"/>
<path class="st0" d="M1943.7,141l21.3,44.5c0,0,110,0,118.7,0s17.8-11.5,17.8-15.5s0-67.7,0-73.3c0-5.7-6-19.2-24.2-19.2
	c-18.2,0-71.2,0-71.2,0v-28h95.3V6c0,0-124,0-134.5,0s-20.2,8.8-20.2,17.5s0,63.5,0,72.3s10,16.8,18,16.8s77,0,77,0V141H1943.7z"/>
<path class="st0" d="M1318.8,112.8c0,0,0,0,8.2,0s18-8.8,18-19.2c0-10.3,0-57,0-65.7s-5.5-22-21.3-22c-15.8,0-133.2,0-133.2,0v179.5
	h59.6V83.3l48.5,102.2h55.2L1318.8,112.8z M1285.8,77.5h-35.7v-28h35.7V77.5z"/>
<path class="st0" d="M1907.7,112.8c0,0,0,0,8.2,0c8.2,0,18-8.8,18-19.2c0-10.3,0-57,0-65.7s-5.5-22-21.3-22c-15.8,0-133.2,0-133.2,0
	v179.5h59.6V83.3l48.5,102.2h55.2L1907.7,112.8z M1874.7,77.5H1839v-28h35.7V77.5z"/>
<polygon class="st0" points="863.3,185.5 863.3,6 1020.3,6 999.2,49.5 923.2,49.5 923.2,77.5 1000.7,77.5 1000.7,113 923.1,113 
	923.1,185.5 "/>
<path class="st0" d="M1162.1,6c-6.5,0-112.8,0-120.2,0c-7.4,0-17.4,9.7-17.4,17.6c0,0,0,133.3,0,142.1c0,8.8,9.3,19.8,18.4,19.8
	c9.2,0,113.4,0,119.8,0s16.3-6,16.3-17.9c0-11.9,0-134.8,0-144C1179,14.4,1168.6,6,1162.1,6z M1119,141h-35V49.5h35V141z"/>
<path class="st0" d="M1357.4,185.5V6c0,0,212.1,0,230,0s19.6,15.4,19.6,19.1s0,160.4,0,160.4h-59.6v-136H1512v136h-59.8v-136h-35.4
	c0,0,0,136,0,136S1357.4,185.5,1357.4,185.5z"/>
<polygon class="st0" points="1619.1,6 1619.1,185.5 1754.8,185.5 1776.7,141 1678.8,141 1678.8,112.5 1755.8,112.5 1755.8,77.5 
	1678.8,77.5 1678.8,49.5 1754.8,49.5 1776.3,6 "/>
</svg>
