<?xml version="1.0" encoding="utf-8"?>
<!-- Generator: Adobe Illustrator 19.0.0, SVG Export Plug-In . SVG Version: 6.00 Build 0)  -->
<svg version="1.1" id="Layer_1" xmlns="http://www.w3.org/2000/svg" xmlns:xlink="http://www.w3.org/1999/xlink" x="0px" y="0px"
	 viewBox="0 0 612 792" style="enable-background:new 0 0 612 792;" xml:space="preserve">
<style type="text/css">
	.st0{fill:#FFFFFF;}
	.st1{fill:none;stroke:#FFFFFF;stroke-width:13;stroke-miterlimit:10;}
	.st2{fill:none;stroke:#FFFFFF;stroke-width:14;stroke-miterlimit:10;}
</style>
<g>
	<path class="st0" d="M-449.3,739.7c-102.9,72.2-205.1,144-308.6,216.7c0-237.9,0-474.5,0-711.7c-112.5,0-224.1,0-336.8,0
		c1.8-1.9,2.7-3,3.7-4C-987.7,146-884.6,51.2-781.5-43.7c3.2-2.9,6.3-4.1,10.6-4.1c236,0.1,472,0.1,708,0.1c1.8,0,3.6,0,5.3,0
		c0.2,0.3,0.4,0.7,0.5,1c-28.1,25.1-56.2,50.3-84.1,75.3c0,12.9,0,25.6,0,39c5.2-1,10-1.9,14.8-2.9C-59.9,50.5,6.5,36.2,73,22.4
		c5.9-1.2,12.5,0.2,18.7,1.1c55.7,8.2,111.4,15.9,166.9,25c20.6,3.4,40.5,0.7,60.6-0.9c28.1-2.2,56.1-4.9,84.1-7.5
		c28.7-2.6,57.4-5.1,86.1-7.7c28-2.5,56.1-4.9,84.1-7.4c6.2-0.5,12.5-1,19.4-1.6c0,13.4,0,25.9,0,39.9
		C678.6-16.2,778.3-57.5,894.6-54.9c116.4,2.6,214.2,48.4,296.1,131c11.4-2.6,23.2-5.3,35-8c74.4-17.3,148.9-34.5,223.2-51.9
		c3.4-0.8,6.8-2.7,9.8-4.7c84.6-57.2,169.1-114.5,253.7-171.8c1.5-1,3-1.9,5-3.3c0,147.8,0,294.7,0,442.2
		c-26.2,24.2-52.8,48.8-79.4,73.3c0.2,0.5,0.3,1,0.5,1.6c26.3,0,52.6,0,79.2,0c0,200.6,0,400.1,0,600.9
		c-92-71.7-183.2-142.9-274.8-214.3c0-18.7,0-37.5,0-57c-84.5,2.7-168.4,5.4-253.3,8.2c0-12.5,0-24,0-35.5
		c-82.6,81.3-180.5,125.8-296.1,128c-115.4,2.2-214.8-38.4-300.4-117.7c0,50.5,0,99.5,0,149.4c-3.8-1.7-6.5-2.8-9.2-4.1
		c-89.3-42.1-178.6-84.3-267.9-126.3c-2.8-1.3-6.4-1.6-9.7-1.5c-37.6,1.2-75.2,2.6-112.9,3.9c-34,1.2-67.9,3-101.9,3.3
		c-23.8,0.2-47.6-1.4-71.4-2.4c-23.1-1-46.2-2.4-69.3-3.7c-21.8-1.2-43.6-2.8-65.4-3.4c-13.8-0.4-27.6,0.7-41.4,1.2
		c-35.1,1.2-70.2,2.3-105.4,3.5c-49.8,1.7-99.5,3.4-149.3,5.1c-1.6,0.1-3.2,0-5.6,0c0-149,0-297.4,0-446.1c-11.3,0-21.9,0-33.1,0
		C-449.3,410-449.3,574.7-449.3,739.7z M-709.6,195.1c0,219.3,0,437.6,0,657.4c70.8-45.5,140.4-90.2,210.5-135.2
		c0-174,0-347.9,0-522.1c2.9,0,4.8,0,6.8,0c31.2,0,62.3,0.1,93.5-0.1c2.8,0,6.3-1.3,8.3-3.2c67-61.3,133.8-122.8,200.6-184.3
		c1.2-1.1,2.3-2.4,4.3-4.6c-3.1,0-4.8,0-6.4,0c-186.5,0-373,0-559.5-0.1c-3.8,0-6.5,1.1-9.3,3.7c-67.3,61.5-134.6,122.9-202,184.3
		c-1.2,1.1-3,1.5-4.5,2.2c0.6,0.7,1.1,1.5,1.7,2.2C-880.7,195.1-795.8,195.1-709.6,195.1z M1239.3,116.3c0,175.1,0,349.3,0,524.5
		c58.3-5.5,116.2-10.9,174.7-16.4c0-53.6,0-106.1,0-159.1c26.7,0,52.6,0,79.2,0c0,83.7,0,167.1,0,250.4
		c58.2,45.7,115.9,90.9,174.5,136.9c0-150.4,0-299.5,0-449.6c-52.8,0-105.2,0-157.6,0c-0.1-0.5-0.2-0.9-0.3-1.4
		c52.7-48.2,105.4-96.4,157.8-144.2c0-105.5,0-210.4,0-316.3c-58.5,40-116.2,79.5-174.1,119.1c0,2.7,0,5.2,0,7.7c0,69,0,138,0.1,207
		c0,4.2-1.2,7.1-4.2,10c-20,19.1-39.8,38.4-59.7,57.6c-4.8,4.7-9.7,9.2-14.6,13.9c-0.5-0.2-0.9-0.4-1.4-0.6c0-92.2,0-184.4,0-277.5
		C1355,91,1297.4,103.6,1239.3,116.3z M887.6,680.2c86.6-2.7,160.6-33,221.2-93.6c60.6-60.6,90.8-134.7,93.5-221
		c9.2,0,17.9,0,26.6,0c0-3.2,0-5.4,0-8.6c-9,0-17.7,0-26.7,0c-2.8-86.2-33.3-160.1-93.8-220.5c-60.6-60.4-134.7-90.7-221-93.3
		c0-9.4,0-18.1,0-26.8c-3.2,0-5.4,0-8.3,0c0,9,0,17.6,0,26.8c-85.9,2.8-159.9,33.1-220.3,93.5c-60.4,60.4-90.8,134.3-93.5,220.6
		c-9.2,0-18.2,0-27.2,0c0,3.2,0,5.5,0,8.5c9.2,0,18.1,0,27.2,0c2.6,86.1,32.8,160,93.1,220.6c60.4,60.7,134.5,91.1,220.8,93.9
		c0,9.4,0,18.3,0,27.3c3.2,0,5.4,0,8.4,0C887.6,698.3,887.6,689.5,887.6,680.2z M284.6,624.4c0-53.4,0-106.1,0-159
		c26.9,0,52.9,0,79.7,0c0,58.1,0,115.7,0,173.5c59.7,26.8,118.9,53.3,178.8,80.2c0-105.7,0-210.4,0-316.1c-54.2,0-108,0-161.8,0
		c-0.4-0.7-0.7-1.4-1.1-2c1.6-1.1,3.4-2.1,4.9-3.4c51.5-47.1,102.9-94.3,154.5-141.4c2.8-2.6,4.1-5.1,4.1-9c-0.1-54-0.1-108-0.1-162
		c0-1.9-0.3-3.9-0.4-6.1c-1.8,0-3.1-0.1-4.4,0c-35.4,3-70.7,6-106,9.1c-44.6,3.8-89.3,7.8-133.9,11.5c-8.8,0.7-17.7,1.7-26.4,0.6
		c-47.9-6.1-95.7-12.8-143.6-19.3c-6-0.8-12-1.5-18.3-2.3c0,187.7,0,374.5,0,562C168.5,635.3,226.1,629.9,284.6,624.4z
		 M-128.9,116.3c0,138.9,0,277.4,0,416.1c-21.1,0-41.4,0-62.4,0c0-151.8,0-303.1,0-455.9c-2.5,2.1-3.7,3.1-4.9,4.2
		c-55.4,51.7-110.8,103.5-166.2,155.2c-2.5,2.3-3.7,4.7-3.7,8.2c0.1,130,0.1,260,0.1,390c0,1.9,0.3,3.9,0.4,6.1c2.2,0,3.8,0.1,5.5,0
		c32.3-2,64.5-4,96.7-6.1c33.2-2.1,66.5-4.6,99.7-6.5c19.9-1.1,39.7-3.5,59.8-1.3C-59.9,630.9-16,634.8,28,639
		c6.2,0.6,12.5,1,19,1.5c0-187.6,0-374.5,0-562.3C-11.7,91-69.9,103.6-128.9,116.3z"/>
	<path class="st0" d="M284.9,365.9c0-50.5,0-100.3,0-150.6c26.3-4.7,52.3-9.3,78.9-14c0.2,2.6,0.4,4.3,0.4,6.1
		c0,24.3-0.1,48.6,0.1,73c0,3.8-1.2,6.5-3.9,9.2c-24.3,24.7-48.5,49.4-72.8,74.2C286.9,364.4,286.1,364.9,284.9,365.9z"/>
</g>
<circle class="st1" cx="882.5" cy="361.9" r="114.2"/>
<path class="st2" d="M1081,302.7"/>
<line class="st2" x1="1024.5" y1="361.9" x2="968.5" y2="361.9"/>
<line class="st2" x1="883.5" y1="224.5" x2="883.5" y2="268"/>
<line class="st2" x1="794.5" y1="361.9" x2="733.5" y2="361.9"/>
<line class="st2" x1="882.5" y1="458.5" x2="882.5" y2="506.5"/>
</svg>
