<?xml version="1.0" encoding="utf-8"?>
<!-- Generator: Adobe Illustrator 19.0.0, SVG Export Plug-In . SVG Version: 6.00 Build 0)  -->
<svg version="1.1"
	 id="svg2" xmlns:rdf="http://www.w3.org/1999/02/22-rdf-syntax-ns#" xmlns:cc="http://web.resource.org/cc/" xmlns:dc="http://purl.org/dc/elements/1.1/" xmlns:svg="http://www.w3.org/2000/svg" xmlns:inkscape="http://www.inkscape.org/namespaces/inkscape" xmlns:sodipodi="http://sodipodi.sourceforge.net/DTD/sodipodi-0.dtd" sodipodi:docname="Ultima.svg" sodipodi:version="0.32" sodipodi:docbase="C:\Documents and Settings\Midkiff Aries\Desktop" inkscape:version="0.44"
	 xmlns="http://www.w3.org/2000/svg" xmlns:xlink="http://www.w3.org/1999/xlink" x="0px" y="0px" viewBox="41 278.5 694.8 236.5"
	 style="enable-background:new 41 278.5 694.8 236.5;" xml:space="preserve">
<style type="text/css">
	.st0{fill:#FFFFFF;}
</style>
<sodipodi:namedview  id="base" inkscape:window-x="241" inkscape:window-y="173" inkscape:current-layer="layer1" inkscape:guide-bbox="true" inkscape:pageshadow="2" inkscape:pageopacity="0.0" inkscape:window-height="736" inkscape:window-width="985" inkscape:document-units="px" bordercolor="#666666" gridtolerance="10000" objecttolerance="10" inkscape:cy="228.71237" borderopacity="1.0" guidetolerance="10" pagecolor="#ffffff" showguides="true" inkscape:cx="538.89964" inkscape:zoom="0.640625">
	</sodipodi:namedview>
<g id="layer1" transform="translate(-25.37276,-12.46286)" inkscape:groupmode="layer" inkscape:label="Layer 1">
	<g id="g1885">
		<g id="g1912" transform="matrix(1.302603,0,0,1.342914,-97.58171,-29.23668)">
			
				<path id="path1882" sodipodi:nodetypes="csssssssccccsssssscccsssszsssssssssssscccsssssccssssssssssssssssssssssssssccssssssssssssssssssczcssssssssssssccscccccsssccccccccccsssssccsscssssssszsssccc" class="st0" d="
				M494.5,413.1c-2.8-4.6,6.3-9.4,11.9-15.4c12.1-12.9,19.8-29.8,19.9-49.5c0-19.1-2.3-31.3-7.4-38.3c-3.1-4.2-6.2-5.6-11.5-5.3
				c-3.7,0.3-4.3,0.6-6.4,2.8c-3.8,4.1-4.1,6.1-3.8,28.5c0.2,23.8,1,35.8,2.3,39.6c1,5.1,5.2,4.8,7.7,10.7l0.1,5.5h-25.7h-23.9
				c-0.1-2.3-0.3-6.1,1.6-7.8c2.3-1.8,4.7-4.6,5.8-9.5c1.2-5.5,1.6-21.3,0.9-42.3c-0.7-20.4-1-22.1-5.2-25.1
				c-1.8-1.3-3.1-1.5-7.4-1.5c-4.8,0-5.4,0.2-7.9,2.1c-1.4,1.2-3.3,3.3-4.2,4.8l-1.6,2.7l0.4,30.7c0.3,32.6-0.5,33,6.2,37
				c4.1,2.5,4,5.4,3.5,8.7c-0.1,0.7-3.1,0.3-23.4,0.3c-22.3,0-24.8,0.6-24.6-0.5c0,0-1.3-2.6,0.4-5.5c1.7-2.8,4.8-3.4,6.2-6.8
				c2.3-6.2,2-13.6,1.4-42c-0.6-29.7-0.5-29-5.5-33c-2.3-1.8-2.8-2.7-2.8-4.6c0-2,0.3-2.5,2.6-3.6c1.4-0.7,5.2-1.7,7.9-2.9
				c5.4-2.4,6-2.2,17.4-6.6c6.7-2.6,7.9-3.6,9.1-3c1.2,0.6,1.4,1.4,1.4,4.5c0,4.8,0.8,4.8,6.8,0.3c6.2-4.6,8.6-5.8,17.7-6.2
				c6.5-0.3,8.9,0.1,12.9,1.4c4.1,1.2,5.5,2.1,9.9,6.2l5.1,4.8l5.4-3.8c8.9-6.4,12.6-8,19.4-8.3c15.4-0.8,29.8,9.3,36.4,25.6
				c3.3,8,4,14.1,3.6,29.2c-0.5,20.1-7.1,36-15.3,48.5c-7.1,10.7-10.5,13.5-21.5,21.3C510.1,413.9,496.1,416.5,494.5,413.1z
				 M174.7,393.4c-19.3-4.2-31.5-18.9-35.5-42.4c-0.9-5.2-1-12.4-0.9-44.1c0.2-37.8,0.2-37.9-1.4-43.3c-2-6.9-4-10.4-8-13.6
				c-2.7-2.2-3.1-2.9-3.1-5.2c0-4.5-0.2-4.1,10.4-4.2c11.8-0.2,18.5,0.3,30.4-0.1c9.9-0.3,17.8-0.3,19,1.4c2.6,3.9-1.6,5-7.2,10.8
				c-7.6,7.8-7.5,7.7-8.2,32.3c-0.8,26.6,0.1,62.9,1.7,68.7c1.8,6.8,4.5,10.2,9.9,12.6c3.8,1.7,11.8,1.9,16.9,0.4
				c6.5-1.9,11.7-8.2,14.3-17.1c1.7-5.9,2.2-64.7,0.7-73.9c-2.2-12.8-5.1-19.2-12.2-24.7c-4.8-3.7-5.2-5.2-5-7.3
				c0.4-3.5,2.5-3,7.1-3.2c5.6-0.2,36.3-0.4,41.2-0.4c8.5,0,2.4,8.7-1.8,13.2c-5.1,5.2-6,6.5-7.9,11.4c-2.9,7.6-3.4,13-3.4,40.9
				c0,28,0.5,34.2,3.5,39.9c2,3.8,4.6,4.4,4.2,9.1c-0.7,8.8-7.9,18-15.3,25.4c-6.7,6.7-15.3,11.3-25.1,13.4
				C193.5,394.6,180.2,394.6,174.7,393.4z M585.6,391.2c-9.9-2.5-19-9.5-23.1-17.7c-3.1-6.2-4-11.4-3.6-19.6
				c0.8-14.5,7.4-24.9,18.9-29.6c3.3-1.3,5.2-3.3,13.7-1.5c8.2,1.2,10.5,4.7,13.1,8.1c2.5,3.4,4.3,4.5,5.5,12.1
				c0.6,3.9,1.7,5.6-2.2,5.1c-2.2-0.3-4.4-3-7.4-4.7c-2.3-1.1-4.5,0.3-6.6,1.3c-4.2,2-6.4,8.6-5.1,15c2.1,9.9,9.6,14.5,17.5,10.7
				c4.6-2.2,7.9-8.6,8.9-17.1c1.3-11-6.9-48.3-11.9-54.9c-3.3-4.3-10.3-2.3-12.7,1.2c-1.5,2.1-2.4,4.7,1.1,7.9
				c4.1,3.8,6.6,4.3,1.5,6.9c-3,1.5-6.1,1.8-11.5,1.8c-5.3,0-7-0.8-9.8-2.8c-10.5-7.7-15.7-17-16.5-29c0,0,0.9-6.1,6.3-6.3
				c4.5-0.2,9.5,3.6,9.5,3.6c11.9,5.5,17-1,31.7-4.1c12.6-2.6,17,2.6,23.1,9.2c6,6.5,8.5,13.8,12.4,36.3c5.4,31.1,7.8,43.4,9.2,47.4
				c0.9,2.6,5,7.7,7.7,10.9c3.6,4.4,4.4,6.3,3.9,7.9c-0.4,1.2-0.1,2.2-1.4,2.5c-3.2,0.9-26.6,0.9-28.3-0.1c-1.4-0.9-5.2-3-7.6-5.8
				c-2.5-3-2.9-0.8-5.6,1.1c-2.8,2-1,1.4-5.4,3.1c-6.3,2.5-8.1,2-14.5,2.1C592.2,392.1,587.7,391.8,585.6,391.2z M315.6,388.8
				c-3.6-1.7-5.8-4-7.9-7.8c-1.2-2.1-1.3-5-1.4-42.8l-0.2-40.5h-6.1h-6.1l-0.1-3.9c-0.2-7.7,0.6-9.1,6.3-11.4
				c9.4-3.8,13.1-10.8,18-23.7c6.2-16.2,6.3-17.3,8.8-16.8c3.6,0.8,3.9,2.8,3.9,21.9v17.5h7.2h9.1l-1.5,8.2l-1.5,8.2h-5.4H332v36.1
				v32.9c0,0-0.3,3.2,2.6,4.4c2.7,1.1,4.4,2.1,9.2,0.6c3.6-1.2,6.2-1.9,7.5-0.5c2.4,2.4-0.2,8.4-5.5,13.6
				c-5.3,5.3-11.2,6.6-18.5,6.9C322.3,391.8,318.5,390.2,315.6,388.8z M245.2,388.7c0-1.7,0.7-2.7,3-4.8c2.9-2.9,6.2-3.9,6.2-11.2
				c0-14.3,0-51.4,0-51.4s-0.2-28-0.5-42.1c-0.2-7.7,0.5-10.3-1.8-15.5c-2.3-5.3-8.4-6.6-3.9-8.9c1.8-0.9,9.4-3.6,13.7-5.3
				c5.4-2.2,8.5-3.2,12.3-4.9c5.6-2.5,20.4-9.1,21.1-4.8c1,6.1-3.4,8.1-7.9,16.4c-4,7.3-3.2,22-3.2,54.4c0,64.8,0.6,66.4,7.2,72.4
				c2.1,1.9,3.8,3,3.8,4.1c0,1.7,0.3,3.7,0.1,4.6c-0.1,0.2-5.2,0.2-26.3,0.2h-23.7V388.7z"/>
			<path id="path1908" sodipodi:nodetypes="ccsssczcsssssszc" class="st0" d="M395.5,391.8h-21.1c-12.1,0-19.6,0.3-20.2-0.3
				c-2.2-2.1-3.4-3.9,1.1-8.5c3.2-3.2,4.7-5,5.2-6.9c1.8-6.4,1.1-18.9,0.8-37.7c0,0,0.3-10.8-0.9-20.3c-1.2-9.5-5.3-11.3-5.3-11.3
				c-9.2-5.9-5-5.6,5-10.7c5.9-3,9.6-4.4,19.2-9.2c6-3,18.1-8.1,19.5-4.6c1.1,2.7-6.9,9.6-8.4,14.6c-1.5,5-1.8,10.2-1.8,28.9
				c0,33,3,47.3,3.5,49c0.8,2.6,3.2,6.8,5.3,10C398.7,387.2,398,390.4,395.5,391.8z"/>
		</g>
		<path id="path1883" sodipodi:nodetypes="cssssc" class="st0" d="M373.4,352.4c-8.9-5-14-16.8-11.3-26c4.2-14.1,20.8-20.8,34.6-14
			c8.3,4.1,12.1,9.5,12.6,18.1c0.9,8.6-3.8,16.1-11,21.1C391.2,356.2,380.9,356.2,373.4,352.4z"/>
	</g>
</g>
</svg>
