<?xml version="1.0" encoding="utf-8"?>
<!-- Generator: Adobe Illustrator 19.0.0, SVG Export Plug-In . SVG Version: 6.00 Build 0)  -->
<svg version="1.1" id="Layer_1" xmlns="http://www.w3.org/2000/svg" xmlns:xlink="http://www.w3.org/1999/xlink" x="0px" y="0px"
	 viewBox="0 0 1025 204.5" style="enable-background:new 0 0 1025 204.5;" xml:space="preserve">
<style type="text/css">
	.st0{fill:#FFFFFF;}
</style>
<g>
	<path class="st0" d="M609.1,159c1.8,0.1,2.9,0.9,2.9,2.7c0,2.4-0.1,4.9-0.2,7.7c-4.3,0.6-8.1,1.2-11.9,1.7
		c-2.3-2.7-4.3-5.1-6.6-7.8c-0.2,1.6-0.4,2.9-0.6,4.3c-1.1,0.6-2.2,1.3-3.4,2c-2.8,8.6-4.8,17.7-8.3,26.2c-8.1-3.9-9.6-7.4-6.6-14.8
		c1.9-4.7,2.1-7.1,0.9-13.1c-10.6,0-21.4,0-32,0c-1.6-3-2.3-5.6-2-8.9c-2.1-1.9-3-4.8-3.2-8c-3.5-1.5-1-5.8-4-7.8
		c-2.2,0.5-4.6,1.1-7,1.5c-1.3,0.2-2.7,0.5-4,0.1c-5.9-1.6-11.9-0.6-17.9-0.9c-2.3-0.1-4.6-0.4-7.6-0.7c-1.3,0.8-3.3,2-5.6,3.4
		c1.7,1.5,3,3.5,4.7,4c4.4,1.3,4.5,4.7,5.1,7.7c-2.7,2.5-5,4.7-8.5,7.9c-2.3,1.2-4.1-3.5-8-3c-1,1.5-2.3,3.3-3.4,5
		c-2.6,0.7-5.1,1.3-8.3,2.2c-0.3-0.4-0.9-1.3-1.3-1.9c-5.2-0.5-10-1.7-14.7-1.1c-4.8,0.6-9.4,0.6-14.4-0.7
		c-3.3,2.8-7.1,0.9-10.8-0.2c-3.3,2.5-7,1.4-10.9,1.4c-0.3-1-0.6-1.9-0.9-2.7c-3.6-1.3-7.2-2.5-10.7-3.8c-1.5-4.2-1.3-4.5,2.6-5.1
		c-0.3-4.1,3.6-5.1,5.2-7.6c1.3-0.1,2.4-0.2,3.5-0.3c-0.4-11.4,1.4-22.5-1-33.9c-2.9-0.4-6.1-0.9-9.8-1.4c-2.2,1.4-5,0.8-14,0.7
		c-1.1-1-2.3-2.1-3.9-3.5c-0.1,1.2-0.2,2-0.3,3.2c-4.7,1.2-9.5,0-14.8,0.8c-1.6,3.3-3.2,6.8-1.9,11c0.8,2.8,1.3,5.8,1.9,8.9
		c1.1,0.9,2.3,1.9,3.5,2.9l0,0c-1.2,0.5-2.4,1-3.8,1.7c0.7,1.3,1.3,2.6,1.9,3.8c-0.2,0-0.4,0-0.6,0.1c0,3.7,0,7.4,0,12.2
		c-0.6,2-1.5,5.1-2.4,8.3c0,0-0.2-0.2-0.3-0.3c-0.1,0.1-0.3,0.3-0.4,0.4c0.1,0.1,0.2,0.2,0.4,0.4c0.1-0.1,0.3-0.3,0.3-0.5
		c1,0.1,2.1,0.3,3.8,0.6c-0.9,2-1.6,3.5-2.5,5.3c-5.2,0-10.3,0.7-15.1-0.2c-4.8-0.9-9.3-0.9-13.9,0.1c-1.7,0.4-3.6,0.1-5.3,0.1
		c-2-3.9-1-7.7-1.1-11.2c-0.2-3.6,0-7.3,0-11.3c-1.9-0.2-3.5-0.3-4.9-0.4c-7.1,6.3-7.8,5.9-7.7,12.4c-1.4-0.3-2.8-0.6-4.2-0.8
		c-5.8,2.7-11.6,5.4-17.5,8.2c0.2,0.5,0.5,1.2,1,2.2c-0.9,0.3-1.8,0.9-2.7,1c-9.3,0.2-18.6,0.2-27.7-1.7c-1.2-0.3-2.6,0-3.9,0.2
		c-2.1,0.2-4.2,0.5-6.5,0.8c-0.5-1.4-0.9-2.5-1.3-3.8c-3.7-2-7.5-4.2-11.8-4.1c-4.4-3.9-8.4-7.7-12.8-11.2c-2.4-1.9-4.5-3.9-5.8-6.7
		c-2.3-4.8-4.8-9.5-7.1-14.3c-0.6-1.3-1-2.8-1.8-4.9c0,13.9,0,27,0,40.4c2.1,0.2,4,0.4,6.2,0.7c0.1,1,0.2,1.9,0.3,2.7
		c-1.3,1.3-34,1.8-43.7,0.7c-8.7-14.9-16.5-30.6-25.7-45.4c-1.7,0.8-2.7,1.2-3.7,1.7c-1.7-2.1-3.4-4-5.5-6.6c0,0.2,0-0.6,0-1.5
		c1.1-0.7,2.1-1.4,3.5-2.3c0.3-1,0.7-2.3,1.2-3.7c-4.8-2.3-6-7-7.2-11.5c-1-3.9-3.3-6.7-5.9-9.9c-0.9,0.4-1.7,0.8-2.8,1.4
		c2.9,7.8-1.1,14.7-2.3,21.9c-0.3,1.9-0.9,3.8-1.5,6c1.9,0.5,3.7,1.4,5.4,1.3c4.2-0.2,7,1.6,8.9,5.1c0.2,0.4,0.6,0.8,0.9,1.3
		c2.5,0.4,5.1,0.9,8.7,1.5c0.3,0.5,1.1,1.8,1.9,3.1c-1.7,3.2-4.8,1.4-6.9,3c-1.3-1.9-2.4-3.6-3.7-5.5c-1.6,3.5-3.3,6.8-7.8,6
		c-0.7,1.9-1.3,3.6-1.9,5.4c-1.4,0.1-2.6,0.2-3.7,0.2c0.1-1.1,0.2-2.3,0.3-3.4c-1-0.6-2-1.3-3.3-2.2c1.9-1.2,3.2-2,4.7-2.9
		c0.8-2.1,1.5-4.2,2.3-6.4c0.1-0.1,0.3-0.3-0.3,0.3c0.5-0.7,0.4-0.6,0.3-0.4c-2.8,1.5-4.1-1.1-5.9-2.2c-0.2-0.1-0.5,0.1-1,0.3
		c0.1,0.8,0.2,1.5,0.2,2.2c1.6,0.7,3,1.3,5.3,2.3c-2.5,1-3.9,1.6-5.3,2.2c-1,1.3-2,2.6-3.2,4.2c2.1,2.1,4,4.1,5.9,6.1
		c-0.1,0.5-0.3,0.9-0.5,1.7c1.3,0.2,2.6,0.4,3.6,0.6c2.2,1.7,2.8,19.9,1,25.9c-3.4,1.1-23.6,1.4-32.8,0.5c-0.8-3.9-0.2-8.1-0.3-12.1
		c-0.1-4.2,0-8.3,0-12.5c0-4.1,0-8.2,0-12.2c-0.3-0.1-0.6-0.1-0.9-0.2c-1.4,3.3-2.6,6.8-4.2,10c-2.2,4.6-4.4,9.3-7.2,13.6
		c-2.1,3.3-4.8,6.4-9.1,7.3c-0.9,0.2-1.9,0.1-2.2,0.1c-2,1.2-3.5,2.2-5.4,3.3c-1.2-1.9-2-3.2-3.1-4.9c-0.7,0.2-1.5,0.4-2.5,0.6
		c0.1,1.4,0.2,2.5,0.4,4.1c-1.4,0.7-2.8,1.9-4.3,2c-7.2,0.9-14.5,2.1-21.7,2c-11.6-0.1-22.7-2.8-32.8-8.8c-1-0.6-9.7-8.6-10.3-9.4
		C7.5,148,6.6,145,7,141.5c0.1-0.8,0-1.6,0-3c-1,0.9-1.7,1.5-2.4,2.1c-0.4-0.3-1-0.5-1.1-0.9C1.6,132.9,0,126.1,0,118.9
		c0.1-25.2,0-50.3,0-75.5c0-1.3,0.2-2.6,0.3-3.9c3.8-1,6.4,2.8,11,1.6c-2.2-0.9-3.5-1.5-4.9-2.1c0.7-2.4,2.3-3.1,4.3-3
		c3.8,0.1,7.6,0.4,11.4,0.5c2.3,0,4.5-0.4,7-0.6c0.5,0.8,0.7,2,1.2,2.2c5.1,1.5,5.1,5.5,4.8,9.7c0,0.6,0.2,1.2,0.5,2.3
		c1.6-1.1,2.9-1.9,4.5-3c2.2,1.4,4.1,3,4.5,6.3c-3.3,0.1-6.6-1.4-9.4,1.6c-0.5,10.9-0.1,22.1-0.1,33.4c0,11.1-0.3,22.1,0.1,33.5
		c4.2-0.3,7.9-1.9,11.6,0.2c-0.1,2.6-1.2,4.2-3.3,5.8c-0.7-1.1-1.3-2-2.1-3.1c-1.3,0.1-2.9,0.3-4.7,0.5c0.7,4.4,3.9,6.8,6.6,9.3
		c6,0.9,11.5,3.9,18.1,1.9c0.4-0.7,1-1.8,1.7-3.1c2.1,0.4,4.1,0.7,6.6,1.1c2.7-2.5,6.5-4.8,6.5-10c-0.7,1.2-1.4,2.5-2.2,3.8
		c-1.9,0.8-3.9,1.6-5.9,2.4c-5.4-3.6-5.8-4.4-3.8-8.6c0.8,0.3,1.7,0.5,2.6,0.8c0.1,0.2,0.3,0.3,0,0c0.3,0.3,0.1,0.1,0,0
		c0.2-1.1,0.4-2.2,0.7-3.7c3-0.2,5.7-0.3,8.8-0.5c0.2-1.2,0.4-2.3,0.5-3.4c1.9-19.1,0.6-38.2,1-57.3c0.1-2.7,0.3-5.5,0.5-8.7
		c0.8-1.2,2-2.8,3.3-4.5c-1.8-1-3.3-1.9-4.5-2.5c-2.7,0.3-5,0.5-7.2,0.7c0,0,0,0,0,0c-0.3-0.7-0.7-1.3-1-2c0.2-0.1,0.3-0.3-0.2,0.1
		c0.4-0.5,0.3-0.3,0.1-0.2c-0.9-0.4-1.8-0.7-3.8-1.5c1.3,1.5,1.8,2.2,2.6,3.2c-2.4,2.1-4.8,4.1-6.9,5.9c-1.6,5.3-1.6,5.3-4.8,7.3
		c-0.7-1.7-1.4-3.2-2-4.8c0.3-0.4,0.5-0.7,0.8-1.1c-0.2-0.1-0.3-0.2-0.5-0.2c-0.1,0.5-0.2,0.9-0.3,1.4c-1.2,0.7-2.4,1.3-4.1,2.3
		c-0.2-3.1-0.3-5.2,1.7-7.2c1,0.4,2,0.8,3.7,1.6c-1.6-2.9-2.9-5.2-4.3-7.8c1-1.2,2.1-2.4,3.5-4c1.1,1.7,2,3,3.1,4.6
		C67,34,76.2,27.4,82.3,17c-3.4-1.8-7.7,0.3-9.9-3.7c0.6-0.4,1.1-1,1.7-1c6-0.1,12-0.1,18,0c0.5,0,1,0.7,1.5,1
		c-0.7,2.2-2.4,1.6-3.8,1.9c-1.2,0.3-2.4,0.9-3.8,1.5c1.8,3,3.4,5.6,5.3,8.7c-1.7,1.3-3.2,2.4-5,3.7c-1-1.9-1.7-3.3-2.7-5.3
		c-1,0.9-1.8,1.6-2.6,2.2c-0.3,0.3-0.7,0.7-1,1c-0.3,0.3-0.7,0.7-1,1c-0.2,0.1-0.3,0.3,0,0c-0.3,0.3-0.2,0.2,0,0
		c0.3-0.3,0.7-0.7,1-1c0.3-0.3,0.7-0.7,1-1c0.6,0.5,1.3,1,1.8,1.5c-2.2,3.9-2.2,3.9-6.9,5.2c-1.4,2.2-2.8,4.5-4.3,6.9
		c0.2,0.2,0.4,0.4,0.5,0.6c1-0.8,2.1-1.6,3.2-2.5c0.8,0.1,1.7,0.2,3,0.3c0.1-1,0.2-1.9,0.3-3.1c1-0.5,2.2-1.1,3.5-1.8
		c2.9,2.9,6.5,3.2,10.2,3c3.3-0.2,6.7,0.1,10-0.1c2.2-0.1,4.4-0.7,6.5-1.7c0.9,0.2,1.9,0.5,3.4,0.8c0.5-1,1.1-2.2,2.1-4.2
		c1.7,2.3,2.5,3.6,3.6,5c10.1,0,20.4,0,31.2,0c8.6,13.5,16.1,27.7,24.3,41.4c2.2-0.1,4.2-0.3,5.9-0.4c4.2,2,7.6,5.4,12.5,5.1
		c0.1,0.2,0.3,0.3,0,0c0.3,0.3,0.2,0.1,0,0c-1.8-1.1-3.7-2.1-5.5-3.3c-3.2-2-3.6-3.4-2.6-7.1c3.2-1.6,5.9-0.6,8.8,2.4
		c0.1-1.9,0.3-3.2,0.3-4.4c0-9.2,0-18.3,0-27.5c0-1.8,0.2-3.5,0.3-5.1c4.1-1.3,28-1.5,33.6-0.3c0,13.7,0,27.6,0,41.5
		c2.8-5.9,5.4-11.6,8.9-16.9c7.1-10.8,16.9-18,28.9-22.4c10.4-3.8,21.1-4.6,31.9-3.8c11.1,0.8,21.2,4.8,29.6,12.5
		c2.8,2.6,6.2,4.5,8.9,7.1c2.4,2.4,4.3,5.4,6.6,8.4c0.1-1.2,0.3-2.4,0.3-3.6c-0.2-5.8,0.7-11.5,0-17.3c-0.3-2.7,0.1-5.3,2.8-7.3
		c0.9,0.7,1.7,1.3,2.7,2c0,0,0.3-0.1,0.5-0.2c1.1-0.6,2.2-1.7,3.3-1.8C359.7,35,368,35,376.8,35c0.6,5.2,0.2,10.2,0.3,15.1
		c0.1,5.2,0,10.3,0,15.5c0,5,0,10,0,14.7c2.3,2.4,4.5,2.8,7.5,2.2c3-0.6,6.4-0.7,9.3,0.2c4.1,1.2,8.2,1.6,12.3,1.3
		c4.8-0.3,9.5-0.9,14.3-1.4c1.1-1.7-0.2-4.6,2.6-5.5c0.1,0.2,0.3,0.3,0,0c0.3,0.2,0.1,0.1,0,0c-1.5-1.9-2.2-3.9-2.1-6.4
		c0.2-3.1,0.1-6.3,0.1-9.3c2.2-1.1,3.9-1.9,5.8-2.8c-1-2.6-3.4-2-5.6-3.1c-0.1-2.9-0.1-6.2-0.2-9.5c0-3.3,0-6.6,0-9.8
		c3.6-1.2,28.6-1.5,34.4-0.5c0.9,3.7,1.2,30.3,0.4,40c-1.9,2-3.8,4.2-5.6,6.2c0.1,4.1,3.4,3.9,5.9,5.1c-0.3,18.6,0.5,37.1-0.6,56.4
		c1-1.7,2-2.7,2.2-3.9c1.7-8.1,4.9-15.8,7.8-23.5c0.7-1.8,1-3.8,1.4-5.8c0,0,0,0,0,0c0.9-3.9,1.8-7.9,2.9-12.6
		c0.2-0.1,1.1-0.6,2.2-1.2c3.2-7.9,6.4-15.8,9.4-23.3c-1.7-3.2-3-5.8-4.3-8.3c0.3-2,0.5-3.8,0.8-5.7c-1.4-0.6-2.6-1.1-3.7-1.5
		c0-4.2,0.2-4.4,6-5.1c0.1-0.8,0.2-1.8,0.3-2.9c1-1.2,2.2-2.7,3.4-4.1c-0.2-0.2-0.4-0.5-0.6-0.7c-0.6,0.3-1.3,0.6-2.1,1.1
		c-0.5-0.4-1.2-1-2.2-1.8c0.8-1.8,1.6-3.7,2.8-6.2c1.4,1.6,2.2,2.5,3,3.4c-0.1,0.1-0.3,0.3,0,0c-0.2,0.3-0.1,0.1,0,0
		c0.5-0.1,1.1-0.1,1.4-0.5c1.4-1.7,2.8-3.5,4.3-5.5c-0.3-0.7-0.8-1.7-1.4-3.1c1.8-0.6,3.4-1.2,5.4-2c0.7,1.7,1.4,3.2,2,4.7
		c11.3,3.4,22.9,2.1,35,2.5c6.3,16.8,12.7,33.4,18.9,50.2c6.2,16.6,12.2,33.3,18.2,49.4c-0.3,2.8-0.5,5.1-0.7,7.4
		c-1.1,0-2.1,0-3.2,0c1.2,1,2.3,1.3,3.2,0c1.5,0.6,3,1.3,4.7,2c0.2,2.9,0.4,5.7,0.6,8.8c2.1-1.4,3.8-2.5,6.4-4.2
		c2-2,1.2-5.4,1.3-8.6c0.1-0.1,0.3-0.3,0,0c0.2-0.3,0.1-0.1,0,0c-0.6,0.2-1.2,0.4-1.7,0.6c-0.3-0.2-0.5-0.3-0.6-0.4
		c-1.9-5.4-3.9-10.6-3.9-16.5c0.2-28.1,0.1-56.3,0.1-84.4c0-1.8,0-3.6,0-5.8c1.6-0.2,2.9-0.5,4.1-0.5c26.1,0,52.3-0.1,78.4,0.1
		c8.1,0.1,14.9,4,21.1,9c2.2,1.8,4.5,3.5,6.3,5c0.7-3.4-1.1-8.3,1-12.9c1.8,0.3,3.3,0.6,4.7,0.8c0-0.2,0-0.5,0-0.7
		c2.7-0.4,5.4-1.2,8.1-1.2c6.8-0.1,13.8,1.3,20.4,0.2c13.9-2.5,27.8-0.1,42.2-1.5c3-2.9,7.3-3.5,11.9-3.8c2.7-0.2,5.3-1.5,8.5-2.4
		c1.6,0.3,1,2.5,1.5,3.4c2,1.5,3.7,2.8,5.6,4.2c0.6-0.7,1.2-1.4,1.9-2.2c-3.5-0.7-6-2.1-5.5-6.3c1.3-1.4,2.8-3,4.3-4.7
		c-0.3-2-0.6-4.1-1-6.7c0.5-1,1.2-2.3,1.9-3.5c-0.1-1.5-0.3-3-0.3-4.5c0-2,0.9-3.1,3-3.2c0.1,0.2,0.3,0.3,0,0c0.3,0.2,0.1,0.1,0,0
		c0.7-3.6,0.7-3.6,4.3-3.7c1.8,2.4,0,3.8-1.9,5.5c2.5,1.1,4.7,2.1,7.5,3.3c-1.3,2.5-2.5,5.1-4.3,8.5c-1-2.4-1.7-3.9-2.3-5.4
		c-0.9,1.4-1.7,2.6-2.5,3.8c0.9,1.6,1.8,3.1,2.8,4.8c1.7-0.9,3.2-1.7,4.8-2.6c2.2,3,2.2,3-1.8,5.1c-0.5,1.3-1,2.7-1.6,4.4
		c-1.5-1.1-2.6-1.9-4-2.9c-0.4,0.7-0.7,1.1-0.8,1.3c1.6,1.8,3.1,3.4,4.1,4.5c2.8-2.8,5.8-5.6,7.7-7.5c7.4-2.6,8.4,2.6,10.5,6.4
		c2.1,0,4.2,0,6.7,0c1-0.5,2.5-1.1,3.8-1.8c2.2,2.6-0.1,4.4-0.3,6.4c1.4,1.8,3.5,1.6,5.4,1.6c6.2,0,12.3,0,18.5,0
		c2,0,3.9,0.4,5.9,0.6c1,0.1,2,0.2,2.9,0.1c3.8-0.6,3.8-0.6,7.6,1.3c-0.5,1.8-1.1,3.7-1.7,6c3.2,4,1.7,8.4-0.1,13
		c1.3,2.2,3,4.5,0.8,7.4c-3.2,1.4-6.6,0.4-10.3-0.5c-1.1,1.6-2.3,3.2-3.8,5.2c-1.4-0.4-3.1-0.9-4.7-1.4c0-1.4,0-2.3,0-3.3
		c-5,1.8-10.1,1-15.4,0.4c-0.6,1.2-1.5,2.2-1.5,3.2c0.1,5,0.4,9.9,0.7,14.9c0,0.5,0.2,0.9,0.4,1.4c6.1-0.1,12.3-0.7,18.3-0.2
		c12.8,1,25.6,0.8,38.4,0.9c1.8,0,3.5,0.7,5,1c1.9,1.8,2.1,3.8,2,5.8c-0.4,6.9,1,13.9-1.1,21.1c-12.3,0-24.2,0-36.3,0
		c-1,3.9-0.7,7.3,0.2,10.5c-2.5,2.4-5.3,1.2-7.9,1.4c-1.9-2.4-3-5.1-2.7-8.4c1.7-1,3.4-1.9,6-3.3c-7.7,0-14.5,0-21.5,0
		c-0.2,0.9-0.6,1.9-0.6,2.8c-0.1,5.8-0.1,11.7,0,17.5c0.1,1.9,0.9,3.7,1.5,6.1c-0.4,1.2-0.9,2.9-1.6,4.9c1.8,1.9-0.3,5.5,2.9,7.3
		c0.9-1.9,1.7-3.6,2.5-5.5c-0.2-0.5-0.6-1.2-1-2.1c1.1-1,2.2-2,3.3-3c-0.1-0.9-0.3-1.8-0.5-3.1c1.4-0.8,2.8-1.5,4.7-2.5
		c1,1.3,1.8,2.4,2.7,3.5c1.4-4.1,5.2-2.9,8.5-3.3c1-0.7,2.2-1.6,3.4-2.5c1.1,0.9,2.2,1.7,3.3,2.6c3.7-1,7.3-0.8,11.2-0.3
		c6.1,0.8,12.3,0.3,18.5,0.2c1.1,0,2.1-0.9,3.1-1.3c1.6,0.4,3.2,0.8,5.1,1.3c0-23.6,0-46.8,0-70.7c-5.9,0-11.7,0-17.3,0
		c-0.8-1.5-1.3-2.5-2-3.7c-1,1.1-1.9,2.2-2.7,3.2c-2.1-1.2-1.5-3.1-1.6-4.6c0.2-0.1,0.3-0.3,0,0c0.3-0.3,0.1-0.1,0,0
		c-2.5-0.1-3.5-2.1-5.2-4.1c1.5-2.1,3.1-4.2,4.6-6.4c-0.9-0.1-1.8-0.1-3.1-0.2c0-1.7,0-3.2,0-5.2c2.3,1.1,4.4,1.8,5.6,4
		c-0.2,0.1-0.3,0.3,0,0c-0.3,0.3-0.1,0.1,0,0c1.8-0.4,1.8-0.4,2.8-1.9c-2.8-1.7-5.7-3.4-9-5.3c0.4-1.2,0.9-2.4,1.5-4.1
		c1.9,1.3,3.2,2.2,4.6,3.1c8.6-2.9,17.4-3.8,26.4-3.8c21,0,42-0.1,63,0.1c19.9,0.2,34.9,9.1,44.9,26.3c5.3,9.2,8.8,19.1,9.6,29.6
		c0.8,9.9,0.8,19.9-1.8,29.7c-2.8,10.4-7,20.1-13.3,28.8c-3.3,4.6-7.5,8.5-12.7,11.1c-1.2,0.6-2.3,1.2-3.8,2
		c1.4,1.1,2.5,1.9,3.6,2.8c-2.2,3.8-4.4,3.5-7.8-1c-3.9,0.2-7.7,0.5-11.4,0.7c-0.5,0-1.1-0.1-1.5,0.2c-3.7,2.8-8,1.8-12,1.8
		c-25.7,0.1-51.3,0-77,0c-4.1,0-8.3,0-12.4,0c-2.1,0-2.1,0-4.8,1.9c2.1,1.3,4.1,2.4,5.9,3.5c-3.2,3.2-6.1,6.1-9.5,9.4
		c-0.5-0.1-1.7-0.4-3.1-0.7c0-3.6,0-6.9,0-10.6c0.6-0.8,1.3-1.8,2.5-3.3c-3.3-0.4-6.2-0.3-9.1-0.1c-1.4,1.2-2.8,2.3-4.2,3.5
		c1.1,6.5,0.6,7.5-4.5,9.3c-0.6-1-1.3-2.1-2-3.2c-0.7-1.1-1.3-2.3-2-3.5c-1.6,0.2-3,0.4-4.7,0.6c-1-3-1.8-6.1-5.5-6.7
		c-0.6,3.2-1.1,6.3-1.7,9.9c-3.2-1.3-6-2.5-8.7-3.6c0.2-3.6,0.2-3.6,3-6.1c-2.5-1.6-3.8,1.3-5.7,1.4c-7.4-3.1-16-3.4-23.6-2.6
		c-1.5-2.6-2.3-5.4-1.7-8.8c4.5-3.2,4.2-8.1,3.5-12.9c-0.6-3.9-1.9-7.6-3-11.8c0.7-0.3,1.5-0.6,2.4-0.9c0.1,0.2,0.3,0.3,0,0
		c0.3,0.3,0.2,0.1,0,0c-1.5-1.4-2.5-2.7-1.4-5.1c3.2-7.2,3.6-14.7,0.7-22.1c-0.9-2.2-1.3-4.4-1.3-6.8c0-6.6,0-13.3,0-19.8
		c-1.6-0.4-3-0.6-4.2-1.1c-0.4-0.2-0.7-1.2-0.6-1.7c0.5-2.6,2.4-2.3,4.3-1.8c1.4-3.4,2.7-6.8,4-10.2c-0.3-0.2-0.5-0.3-0.8-0.5
		c-0.9,0.7-1.8,1.7-2.8,2c-1.2,0.3-2.7-0.4-3.9-0.1c-3.5,0.8-7-0.4-10.6,0.1c-4.7,0.6-9.5-0.1-14.9-0.2c-0.3,0.4-0.9,1.3-1.2,1.7
		c0.2,3.7,0.6,6.8,0.6,10c0,28.1,0,56.3,0,84.4c0,1.9-0.3,3.8-0.4,6.2c-2-0.7-3.4-1.2-4.7-1.6c-1.8,1.2-3.5,2.4-5.6,3.8
		c-0.7-1.4-1.3-2.4-1.7-3.2c-6,3.4-12.5,3.4-19.1,3.1c-0.8,0-1.6-0.9-2.4-1.4c3.7-13.5,7.2-26.7,10.9-40.2c3.7,1.3,4.3,5.5,7.2,7.6
		c0.4-0.2,0.9-0.4,1.8-0.7c-1.8-2.1-3.4-3.9-4.9-5.6c0-2,0-3.9,0-6.4c-0.4-0.2-1.4-0.8-2.4-1.3c0.7-1.5,1.2-2.4,1.4-2.9
		c-1.1-2.1-2.1-4-3.1-5.8c0.5-1.2,1-2.1,1.6-3.5c-1,0.1-1.6-0.1-1.8,0.1c-0.9,1-1.6,2-2.5,3.1c-1.1-0.5-1.9-0.9-2.8-1.2
		c-0.9,3.7-1.8,7.3-2.6,10.9c-0.7,3.4-1.4,6.8-2.3,11.3c-1.9-1.8-3-2.8-4.1-3.9c0.9-1.7,1.6-3,2.4-4.4c-1.1-4.3-2.5-8.8,1.6-12.3
		c-3.1-4.6-3.1-4.6-0.6-7.3c0.3,0,0.7,0,1,0c0.2-0.1,0.3-0.3-0.1,0.1c0.4-0.4,0.2-0.3,0.1-0.1c-0.3,0-0.7,0-1,0
		c-2-1.2-2.1-3.2-2.1-5.2c0-9.3,0-18.7,0-28c0-1.6,0-3.3,0-4.8c-3.8-1.2-18.2-1.5-28.2-0.7c0.4,3.7-2.1,4.7-5.6,5.1
		c0.3,14.5-5.1,26.1-17.5,33.6c3.1,3.2,6.5,6,9,9.3c3.8,5.1,5.8,10.9,6.5,17.5c1.2,12,1.8,24.1,6,36.1c-1.5,0.4-2.7,1.1-3.9,1.1
		c-10.2,0.1-20.3,0-30,0c-3.9-1.6-3.8-5.1-4.2-7.8c-1-6.7-1.4-13.5-2.2-20.2c-0.5-4.7-1.7-9.2-4.1-13.2c-3.2-5.2-8.2-7.5-14.2-7.8
		c-5.5-0.2-10.9-0.6-16.4-0.6c-2.4,0-4.9,0.7-7.6,1.1c-1.8,3.3,1,8-3.1,11.2c-0.7-0.3-1.5-0.8-2.5-1.2c0.2-1.3,0.4-2.4,0.7-4
		c-1.9,0.9-3.6,1.7-5.2,2.6c-0.9-2.1-1.6-3.9-2.7-6.5c-1.4,2.4-2.3,3.8-3,5.2c-3.3,0.3-2.2-3.1-4.1-4.1c-1.5,1-3.2,2-5.3,3.3
		c-0.2,0.7-0.7,1.9-1.2,3.3c0.6,1.1,1.2,2.2,1.9,3.6c1.2-1.3,2.1-2.3,3.2-3.5c1.1,1.6,2.2,3.1,3.2,4.6c0.2-0.2,0.4-0.5,0.6-0.7
		c0.9,3.1,1.8,6.1,2.8,9.5c0.6,0.3,1.6,0.9,3.1,1.6c0,2.5,0,5.1,0,7.8c-0.2,0.1-0.3,0.3,0,0c-0.2,0.3-0.1,0.1,0,0
		c1.7,0.5,3.4,1,5.5,1.6c1.4-0.3,3-3.2,5.1-0.2C610.8,156.7,609.9,157.9,609.1,159c-0.3,0.3-0.7,0.7-1,1c-1.9-0.4-3.7-0.8-5.7-1.2
		c-0.5,1.8-0.3,3.2,1.9,4.1c1.2-0.9,2.5-1.9,3.8-2.9C608.4,159.7,608.7,159.4,609.1,159z M179.1,86C178.9,85.9,178.8,85.7,179.1,86
		C178.7,85.8,178.9,85.9,179.1,86C179.2,86.2,179.3,86.3,179.1,86C179.4,86.3,179.2,86.2,179.1,86z M545,159
		c0.1,0.2,0.3,0.3-0.1-0.2C545.4,159.3,545.2,159.1,545,159c0-0.4,0-0.7,0-1c0.3-0.3,0.6-0.7,1-1c0.2-0.1,0.3-0.3,0,0
		c0.2-0.3,0.1-0.1,0,0c-0.3,0.3-0.7,0.7-1,1C545,158.4,545,158.7,545,159z M484,65C483.9,65.2,483.7,65.3,484,65
		C483.8,65.3,483.9,65.2,484,65C484.2,64.9,484.3,64.8,484,65C484.3,64.7,484.2,64.9,484,65z M175,109
		C175.2,109.2,175.3,109.3,175,109C175.4,109.3,175.2,109.2,175,109c-0.3-0.3-0.7-0.7-1-1c1.9-3.3,1-6-1.7-8.5
		c-0.9,0.6-1.8,1.3-3.2,2.3c1.7,2.2,3.3,4.2,4.9,6.2C174.4,108.4,174.7,108.7,175,109z M434.1,77c-0.1-0.1-0.3-0.3,0.1,0.1
		C433.7,76.8,433.9,76.9,434.1,77c0.4,0.3,0.7,0.5,1.1,0.8c0.1-0.2,0.2-0.3,0.3-0.5C435,77.2,434.5,77.1,434.1,77z M138.1,63
		c-0.3-0.3-0.7-0.7-1-1c-2.3-3.7-4.7-7.4-7-11.2c0.2-1.4,0.4-2.8,0.7-4.5c-1,0.5-1.6,0.7-2.1,1c-0.2,1.2-0.4,2.2-0.6,3.4
		c-1.3-0.2-2.2-0.3-3.2-0.4c-4.1,3.3-4.1,3.3-6.7,0.5c0.6-0.9,1.2-1.9,1.8-2.9c0.4-0.1,0.9-0.3,1.3-0.4c-0.1-0.2-0.2-0.3-0.3-0.5
		c-0.3,0.3-0.7,0.6-1,0.9c-2.2-0.4-4.4-0.8-6.8-1.2c0,1.8,0,3.6,0,5.3c4.5,0.8,6,2.9,5.1,7.5c-2.7,1.1-3.3-2-5.3-2.9
		c0,2.5,0,4.8,0,7.1c0,0.8,0.1,1.6,0.2,2.5c6.7-4.2,6.7-4.2,14.2-0.3c1.9,3.3-0.8,4.5-3,5.5c0.3,0.7,0.4,1,0.5,1.4
		c-0.3,0.4-0.5,0.7-0.8,1.1c0.2,0.1,0.3,0.2,0.5,0.2c0.1-0.5,0.2-0.9,0.3-1.4c3.1-0.1,4.9,2.4,7.6,3.4c0.3,0.1,0.3,0.9,0.5,1.3
		c0.1,0.2,0.4,0.3,0.6,0.5c0.2-0.9,0.5-1.6,0.7-2.5c-1.1-0.9-2.3-1.8-3.3-2.6c1.5-2.3,2.7-4.1,3.7-5.6c-0.3-1.5-0.5-2.6-0.9-4.1
		c1.1-0.5,2.1-0.9,3.1-1.4C137.4,62.4,137.7,62.7,138.1,63c0.3,0.6,0.6,1.2,0.8,1.8c0.2-0.2,0.4-0.3,0.6-0.5
		C139,63.9,138.5,63.5,138.1,63z M439,70C438.9,69.9,438.8,69.7,439,70C438.7,69.8,438.9,69.9,439,70c0.1,0.8,0.3,1.6,0.5,3.1
		C441,71.1,440.1,70.5,439,70z M389,106c-0.6,0.7-1.2,1.4-1.8,2.2c0.3,0.2,0.7,0.4,1,0.6C388.5,107.9,388.8,107,389,106
		c0.8-0.4,1.7-0.8,2.5-1.2c-0.4-0.4-0.8-0.9-1.2-1.3C389.9,104.3,389.5,105.2,389,106z M7,122c-0.6,0.2-1.1,0.4-2.1,0.7
		c0.6,0.8,1,1.3,1.9,2.4C6.9,123.6,7,122.8,7,122C7.2,121.9,7.4,121.8,7,122C7.3,121.7,7.2,121.9,7,122z M29.1,42
		C29.2,42.2,29.3,42.3,29.1,42C29.4,42.3,29.2,42.2,29.1,42c-1-1.8-1-1.8-3-0.6C27.3,41.7,28.2,41.9,29.1,42z M564.1,158
		c-1.5,0.1-2.9,0.2-4.4,0.3C561.5,160.3,562.8,159.4,564.1,158c0.8-0.1,1.5-0.1,2.6-0.2c-0.4-1-0.6-1.6-1.1-2.7
		C564.9,156.4,564.5,157.2,564.1,158z M746,55c-0.3-0.3-0.7-0.7-1-1c-0.9-1.5-1.8-2.9-2.8-4.4c-1.1,2.7-1.1,2.8,2.8,4.4
		C745.4,54.4,745.7,54.7,746,55c0.8,1.5,1.9,2.7,4.3,3.9C749.2,56.3,748.1,55.1,746,55z M122,85c0.7,1,1.3,1.1,2-0.7
		C123.1,84.7,122.6,84.9,122,85c-0.8-1.5-1.6-3-2.6-4.7C118,83.6,118.3,84.2,122,85z M135,88c1-0.5,2-1.2,3.1-1.4
		c0.8-0.1,1.8,0.4,2.7,0.6c0.1-0.2,0.2-0.4,0.2-0.6c-1.6-1.5-3.2-3-5.1-4.8C135.7,83.9,135.4,86,135,88c-0.3,0.3-0.7,0.7-1,1
		c-0.9-0.7-1.9-1.4-2.9-2.2c-1,0.5-2.3,1.2-2.6,1.3c-1.4,1.7-2.1,2.7-2.7,3.4c-0.1,1.9-0.2,3.6-0.3,5.9c1.5-0.8,2.7-1.1,3.3-1.9
		c1.8-2.1,3.4-4.3,5.1-6.5C134.4,88.7,134.7,88.4,135,88z M426,93c-0.3,0.3-0.7,0.7-1,1c-1.8,1.6-3.8,2.3-6.5,1.4
		c0.5,3.2,0.4,5.7-2.5,7.5c-0.8,0-1.7,0-2.6,0c0,0.2,0,0.5,0,0.7c1.7,0,3.4,0,4.9,0c1-1.6,1.9-2.9,2.9-4.4c1.7,0.7,3.2,1.3,4.5,1.8
		c-0.2,1.8-0.4,3-0.6,4.6c1.5-0.5,2.5-0.8,3.3-1.1c0.6-2.1,1.1-3.8,1.6-5.6c1.7-0.5,3.3-1,4.9-1.5c0.2-4.6-3.2-5.9-5.5-8.4
		C428.1,90.6,427.1,91.8,426,93z M491.1,42c-0.1-0.1-0.3-0.3,0.2,0.2C490.7,41.8,490.9,41.9,491.1,42c-1.5,2.6-3,5.1-4.7,7.9
		c2.3,3.4-2.2,6.3-1.5,10c0.6-0.1,1.4-0.1,1.5-0.4c2.6-6.2,5.2-12.4,8.1-19.6C492.7,41.1,491.9,41.5,491.1,42z M561.1,140
		c-2.7,0.5-5.4,0.9-8,1.4c-0.6-0.7-1.1-1.2-1.2-1.3c-1.3,1.1-2.4,2.1-3.5,3.1c-2.1-1.4-4.1-2.9-6.6-1.8c0,0.8,0,1.5,0,2.4
		c2.5,0.1,4.9,0.3,7.7,0.4c-0.1,2.5,1.9,4.4,0.6,6.7c-0.2,0.1-0.3,0.3,0,0c-0.3,0.3-0.2,0.2,0,0c1.1-0.1,2.2-0.1,3.2-0.1
		c0.3-1,0.5-1.7,0.5-1.7c3.4-1.7,6.1-3,8.5-4.3C561.8,143.1,561.4,141.5,561.1,140C561.2,139.9,561.4,139.8,561.1,140
		C561.3,139.7,561.2,139.9,561.1,140z M960,142C959.9,141.9,959.8,141.7,960,142C959.7,141.8,959.9,141.9,960,142
		c0.1,2,1.2,2.9,3.1,2.9c2,0,3.9,0,5.9,0.1c0.1,0.1,0.3,0.3,0,0c0.3,0.3,0.2,0.2,0,0c-2.1-1.3-4.1-2.7-5-5.5c0.2-1.3,0.4-2.9,0.7-5
		c3.2-1.3,6.5-2.7,9.9-4.2c1.2-1.7,2.5-3.5,3.7-5.3c2.9-4.4,4.5-9.3,4.6-14.5c0.2-5.3,0.4-10.7,0-16c-0.6-7.7-3.5-14.2-9.8-19.3
		c-5.6-4.5-12-7-18.4-9.2c-2.4,0.6-4.7,1.2-6.9,1.7c-1.2-0.5-2.2-0.9-3.3-1.4c0,0.2,0,0.5,0,0.7c-3.4,0.5-6.7,0.9-10.5,1.4
		c0,1.7,0,3.3,0,5c0,8,0.1,16,0,24c0,2-0.5,3.9-0.6,5.9c-0.1,1.6,0.2,3.2,0.2,4.9c0.1,4,0.6,8,0.1,11.9c-0.4,3.1-0.6,6.8-4.3,7.7
		c-1.5,4.7,3.9,5.3,4.4,8.4c-1.1,2.1-2.9,1.7-4.5,1.8c-3.5,0.1-7,0.1-10.5,0.3c-0.5,0-0.9,0.7-1.6,1.3c0.9,0.8,1.6,1.5,2.5,2.3
		c2.8-2.3,6.2-2.4,9.2-1.7c3.4,0.8,6.5,0.6,8.9-0.4c1.5-1.5,2.2-3,3.4-3.5c2.6-1.2,3.5,1.9,4.6,2.4c3.5-0.8,6.3-1.5,8.7-2
		c1.7,1.2,2.9,2,3.9,2.7c0.7-1.2,1.3-2.1,2.4-3.9c0.9,2.5,1.6,4.3,2.5,6.7C961.7,142.1,960.9,142.1,960,142z M274,133
		c0.7,0.3,1.3,0.7,2,1c5.5,3.9,11.6,3.4,17.7,2.5c4.2-0.6,7.9-2.3,10.9-5.5c3.1-3.4,4.8-7.5,6.4-11.7c0.6-1.7,1.2-3.3,1.9-5.1
		c9.8-0.5,19.2,0.1,28.8-0.4c0-10.1,0-19.6,0-29.3c-1.8-0.4-3.4-1.2-5-1.1c-7,0.1-13.9,0.5-20.9,0.6c-1.4,0-2.8-0.3-4.5-0.6
		c0-2.1,0-3.7,0-5.3c-4.4-8.7-13.3-10.7-20.4-14.7c-5.8,1.6-11.3,3.1-17,4.7c-0.8-1.1-1.8-2.4-2.7-3.7c-0.3,0.2-0.5,0.4-0.8,0.5
		c0.5,1.3,1.1,2.5,1.7,3.9c-0.7,0.9-1.3,1.7-2,2.4c-7.6,7.6-10.3,17.2-11.1,27.5c-0.5,6.4,0.7,12.5,3.5,18.4c1.6,3.3,2.1,6.6,0,10
		c-0.1,0.2,0.1,0.6,0.3,1.1c1.2-0.1,2.4-0.1,3.7-0.2c-0.1,0.2-0.1,0.4-0.2,0.6C268.9,130.2,271.5,131.6,274,133z M644.7,65.6
		c-4.8-1.7-26.2-2.2-33.6-0.9c1.2,3.6,2.4,7.2,3.5,10.8c0.8,2.4,0.4,4.6-1.4,6.4c-1,1-2,2.1-2.9,3.2c0.8,2.4,1.4,4.4,2.1,6.7
		c2.3,0.6,4.7,1.3,6.8,1.8c1.9-0.8,3.6-1.5,5.2-2.1c-0.5-2.2-0.5-4.1,2.7-4.3c1.3,1.6,2.6,3.2,3.8,4.8c5.5,0,10.9,0,16.4,0
		c2-3,4.3-5.9,6.1-9c2.9-5.2,1.7-10.4-3.6-14.9c-0.3-0.3-0.9-0.2-1.2-0.3c-0.6,1.4-1.1,2.7-1.6,3.9c-2.8-0.6-4.2-2-4.4-4.8
		C643.2,66.5,643.9,66.1,644.7,65.6z M510.4,106.6c1.9,2.4,3.6,4.6,5.3,6.7c3.2-3.1,3.8-3.1,6.9,0.3c-0.6,1-1.3,2-2.3,3.6
		c2-0.3,3.2-0.4,4.9-0.7c-1.8-5.8-3.6-11.3-5.2-16.7c-4.7,0.3-7.3-2.2-9.8-5.9c2-0.6,3.5-1.1,5.2-1.7c0.5-1.2,1.1-2.4,1.5-3.4
		c-1.1-3.3-2.2-6.3-3.2-9.3c-0.3,0-0.7,0-1,0c-2.9,8.9-5.7,17.8-8.5,26.4c1,1.1,1.6,1.8,2.3,2.5
		C507.6,107.9,508.6,107.4,510.4,106.6z M183.8,90c0.1,0.9,0.1,2,0.2,3.4c-0.9,0.5-1.9,1.1-3.2,1.8c5.3,2.6,4.7,6.8,5.2,10.4
		c4.5,1.9,6.4,5.1,5.8,9.9c1,0.1,1.7,0.2,2.6,0.4c-2.9-9.2-0.4-18.3-1.7-27.1C189.7,89.3,186.9,89.6,183.8,90z M179,105.8
		c0.8,2.8,1.3,4.7,1.8,6.5c-0.5,1-1,1.8-1.3,2.3c1.6,2.5,2.9,4.7,4.5,7.2c0.7-1.3,1.2-2.2,1.6-3c-2-4.3-3-8.5-1.7-13.7
		C182.1,105.3,180.8,105.5,179,105.8z M816.1,148.8c1.6-0.1,2.6-0.1,3.8-0.2c0.8-2.3,1.6-4.4,2.4-6.5c-1.4-1.1-2.4-1.8-3.5-2.6
		c-0.9,1.3-1.6,2.4-2.4,3.6c0.6,0.9,1.1,1.6,1.7,2.4C817.5,146.5,816.9,147.4,816.1,148.8z M447.2,122.1c0.6,1.6,1,2.7,1.5,3.9
		c1.1-0.2,2-0.3,3-0.4c0.3-2.2,0.6-4-0.3-6.3C449.9,120.3,448.7,121.1,447.2,122.1z M502.3,112c-0.5,1.8-0.9,3-1.3,4.7
		c2.5,0,4.4,0,6.5,0C505.9,115.3,504.5,114,502.3,112z M796.6,9.2c0-0.3,0-0.6,0-0.9c-1.3-0.6-2.7-1.2-4.5-2
		c0.2,1.5,0.3,2.4,0.4,3.8C794.1,9.8,795.3,9.5,796.6,9.2z M150.5,124.4c-1.2,3-1.2,3,1.1,3.1C151.2,126.4,150.8,125.4,150.5,124.4z
		 M840.5,168.1c-0.5,0.4-0.9,0.6-1.4,0.9c0.3,1.8,1.1,2.2,2.9,1.1C841.5,169.4,841,168.8,840.5,168.1z M14.5,115.3
		c-1.7,1.7-1.4,2.7,0.4,3.4c0.2,0.1,0.5-0.2,1-0.5C15.5,117.3,15,116.4,14.5,115.3z M79.5,149.9c-0.5,1.9-0.8,3.2-1.4,5.2
		C80,153.5,81.6,152.7,79.5,149.9z M352.4,57c-0.2,0.4-0.3,0.6-0.5,1.1c1,0.2,1.8,0.3,2.7,0.5c0.1-0.3,0.1-0.6,0.2-0.9
		C353.9,57.4,353.1,57.2,352.4,57z M376.1,89.8c0.2,0.3,0.5,0.6,0.7,0.9c0.7-0.5,1.4-1.1,2-1.6c-0.2-0.2-0.3-0.5-0.5-0.7
		C377.6,88.8,376.9,89.3,376.1,89.8z M919.3,131.6c1.3,0,2.2,0,3.5,0C921.4,129.9,920.5,130.1,919.3,131.6z M420.6,153.2
		c-0.8,1-1.4,1.7-2.2,2.6C420.8,156,421.1,155.2,420.6,153.2z M373.4,95c1-0.2,1.5-0.3,2-0.5c-0.2-0.6-0.5-1.2-1-2.4
		C374,93.4,373.8,93.9,373.4,95z M399.7,107.3c-0.1,0.4-0.2,0.8-0.4,1.2c0.7,0.1,1.3,0.2,2,0.3c0.1-0.2,0.1-0.5,0.2-0.7
		C400.9,107.8,400.3,107.5,399.7,107.3z M433.7,86.9c-0.1-2.3-0.1-2.3-1.7-3.2C432.6,84.8,433,85.6,433.7,86.9z M188.7,120.8
		c0.7-1.9,0.7-1.9-1.3-2.3C187.8,119.3,188.2,119.9,188.7,120.8z M727,49.2c-0.3-0.2-0.5-0.5-0.8-0.7c-0.3,0.6-0.7,1.1-1,1.7
		c0.2,0.1,0.4,0.3,0.5,0.4C726.1,50.1,726.6,49.6,727,49.2z M554.8,158.3c0,0.1,0,0.3,0,0.4c0.8,0,1.6,0,2.5,0c0-0.1,0-0.3,0-0.4
		C556.5,158.3,555.6,158.3,554.8,158.3z M347.8,118.8c-0.2,0-0.4,0-0.5,0c0,0.7,0.1,1.4,0.1,2.2c0.1,0,0.3,0,0.4,0
		C347.8,120.3,347.8,119.6,347.8,118.8z M7.7,116.5c-0.3,0.5-0.6,0.8-0.5,1c0.1,0.2,0.5,0.3,0.7,0.5C7.8,117.6,7.8,117.1,7.7,116.5z
		 M514.6,116.7c-0.5-0.3-0.8-0.6-1-0.5c-0.2,0.1-0.3,0.4-0.5,0.7C513.5,116.8,513.9,116.8,514.6,116.7z M438.1,76.2
		c-0.2,0.2-0.4,0.4-0.6,0.6c0.3,0.2,0.7,0.5,1,0.7c0.1-0.1,0.2-0.3,0.3-0.4C438.6,76.8,438.3,76.5,438.1,76.2z M92.8,70.8
		c-0.1,0-0.3,0-0.4,0c0,0.5,0,1.1,0,1.6c0.1,0,0.3,0,0.4,0C92.8,71.8,92.8,71.3,92.8,70.8z M365.3,69.7c0-0.1,0-0.3,0-0.4
		c-0.5,0-1,0-1.6,0c0,0.1,0,0.3,0,0.4C364.3,69.7,364.8,69.7,365.3,69.7z M444.4,65.5c0.2-0.1,0.3-0.2,0.5-0.3
		c-0.3-0.3-0.6-0.6-0.9-0.9c0,0-0.2,0.2-0.4,0.3C443.8,65,444.1,65.2,444.4,65.5z M420.7,160.8c-0.1,0-0.3,0-0.4,0c0,0.5,0,1,0,1.6
		c0.1,0,0.3,0,0.4,0C420.7,161.8,420.7,161.3,420.7,160.8z M143.9,57.3c-0.2,0.3-0.5,0.6-0.7,0.9c0.4,0.2,0.8,0.4,1.1,0.6
		c0.2-0.3,0.4-0.5,0.6-0.8C144.6,57.8,144.2,57.5,143.9,57.3z M381.3,93.4c-0.1,0-0.2-0.1-0.4-0.1c0,0.2,0,0.3-0.1,0.5
		c0.1,0,0.3,0,0.4-0.1C381.4,93.6,381.3,93.5,381.3,93.4z M430.4,74.7c0-0.1,0-0.3-0.1-0.3c-0.1-0.1-0.3-0.1-0.4-0.1
		c0,0.2,0.1,0.4,0.1,0.5C430.1,74.7,430.2,74.7,430.4,74.7z M75.5,157.4c0.1-0.1,0.3-0.1,0.3-0.2c0-0.1,0-0.3,0-0.4
		c-0.2,0.1-0.3,0.2-0.5,0.3C75.4,157.2,75.4,157.3,75.5,157.4z M930.7,102.7c-0.1,0-0.3,0-0.3,0.1c-0.1,0.1-0.1,0.3-0.1,0.4
		c0.2,0,0.3-0.1,0.5-0.1C930.8,103,930.7,102.8,930.7,102.7z M792.7,31.7c-0.1,0-0.3,0-0.3,0.1c-0.1,0.1-0.1,0.3-0.1,0.4
		c0.2,0,0.4-0.1,0.5-0.1C792.8,32,792.7,31.8,792.7,31.7z M113.8,74c-0.1-0.1-0.1-0.2-0.2-0.3c-0.1,0.1-0.3,0.2-0.3,0.3
		c0.1,0.2,0.2,0.3,0.4,0.4C113.7,74.2,113.8,74.1,113.8,74z M912.1,139.8c0.1-0.1,0.2-0.1,0.3-0.2c-0.1-0.1-0.2-0.3-0.3-0.3
		c-0.2,0.1-0.3,0.2-0.4,0.4C911.9,139.7,912,139.7,912.1,139.8z M425.7,148.4c0,0.1,0,0.3,0.1,0.3c0.1,0.1,0.3,0.1,0.4,0.1
		c0-0.2-0.1-0.3-0.1-0.5C426,148.3,425.9,148.4,425.7,148.4z M457.8,149c-0.1-0.1-0.2-0.2-0.2-0.3c-0.1,0.1-0.3,0.2-0.3,0.3
		c0.1,0.2,0.2,0.3,0.4,0.4C457.7,149.2,457.8,149.1,457.8,149z M138.4,56.7c0-0.1,0-0.3-0.1-0.3c-0.1-0.1-0.3-0.1-0.4-0.1
		c0,0.2,0.1,0.3,0.1,0.5C138.1,56.7,138.2,56.7,138.4,56.7z M875.7,56.3c0-0.1,0-0.3,0.1-0.4c-0.2,0-0.3,0.1-0.5,0.1
		c0,0.1,0.1,0.3,0.1,0.4C875.5,56.4,875.6,56.3,875.7,56.3z M132.5,82.4c0.1-0.1,0.3-0.1,0.3-0.2c0-0.1,0-0.3,0-0.4
		c-0.2,0.1-0.3,0.2-0.5,0.3C132.4,82.2,132.4,82.3,132.5,82.4z"/>
	<path class="st0" d="M836.3,199.2c-2.1-1.4-3.6-2.4-5.4-3.6c-2.5,0.3-5.2,0.7-8.5,1.1c-0.7-0.4-1.8-1.1-3-1.8
		c0.9-3.9,4.3-5.6,6.5-8.3c3.8,0.6,5.8-2.4,8.9-4.3c4.3,4.4,8.6,8.7,8.1,16.2C840.3,198.8,838.3,199,836.3,199.2z"/>
	<path class="st0" d="M381,137c1.9-1.5,3.8-3,5.5-4.4c2.3,0.3,4.3,0.6,6.1,0.8c1-2.5-0.8-6.1,3.4-6.4c0.1,0.2,0.3,0.3-0.1-0.2
		c0.5,0.4,0.3,0.3,0.2,0.1c-1.2-3.5-1.2-3.5,2.3-5.8c3.7,2.9-0.4,7.4,2.8,10.7c-2.8,1.7-5.1,3.1-7.8,4.7c-0.6,1.9-1.2,4.1-2,6.8
		c-1,0.1-2.1,0.3-3.3,0.4c0-2.6,0-4.7,0-6.8c0.2-0.1,0.3-0.3,0,0c0.3-0.3,0.2-0.2,0,0c-1.4,1.1-2.7,2.2-4.2,3.5
		C381.6,140.4,380.8,139.2,381,137L381,137z"/>
	<path class="st0" d="M235.4,166.6c0.8-0.9,1.5-1.7,2-2.2c5.5,0,10.5,0,16.5,0c0.1-0.1,1.1-0.6,2.1-1.2c2,0.6,3.9,1.3,6.5,2.1
		c-2.7,3.8-6.2,4-9.1,3.5c-4.3-0.8-8.6-0.7-12.9-0.4C238.6,168.5,238.6,168.5,235.4,166.6z"/>
	<path class="st0" d="M310.3,168.7c-0.2-2.9,1.2-3.7,3.3-3.7c6.7,0,13.4,0,20.2,0c2.2,0,3.4,0.9,3,3.6
		C328,168.7,319.4,168.7,310.3,168.7z"/>
	<path class="st0" d="M762,16c-0.5-0.8-1.1-1.7-1.7-2.7c1.1-1.9,2.3-3.9,3.7-6.3c2.9,1.8,5.6,3.4,8.1,4.9c3.2-0.2,6.2-0.5,9.4-0.7
		c0.5,0.5,0.9,1,1.5,1.6c-0.7,0.9-1.3,1.8-2.1,2.9c-1-0.5-1.8-1-2.9-1.6c-1.7,0.8-3.5,1.6-5.6,2.5C769.3,14.7,765.8,12.3,762,16
		C762.1,16,762,16,762,16z"/>
	<path class="st0" d="M66,64c-1.4-2.7-1.6-5.3,0.6-8c-0.7-1.4-1.5-2.8-2.5-4.5c1-3.2,2.4-6.5,5.9-8.4l0,0c0.8,2.1,1.5,4.3,2.2,6.3
		c-1.3,2.4-2.5,4.5-3.6,6.4c-0.4,3.2,2.6,7.1-2.6,8.4L66,64z"/>
	<path class="st0" d="M467,110c-2.4,0.5-4.8,1.1-7.3,1.7c-3.9-3.4-3.9-6,0.2-9.6c2.1,0.5,4.3,0.9,7.1,1.5
		C467.1,105.8,467.1,107.9,467,110C467.1,110,467,110,467,110z"/>
	<path class="st0" d="M1004,163c3.7-0.4,6.9,1.3,10.6,2.2c3.8-1.7,7.2-1.2,10.3,2c-0.6,0.5-1.1,1.5-1.7,1.5
		c-6.1,0.3-12.2,0.9-17.4-3.4C1005.2,164.7,1004.7,163.8,1004,163L1004,163z"/>
	<path class="st0" d="M149.8,136.5c1.4-0.7,2.2-1.1,3.5-1.7c0.9,1.8,2.1,3.4,2.4,5c0.8,4.2,2.5,8.5,0.8,12.9
		c-2.4,0.6-3.4-0.5-3.5-2.5c-0.1-2.7,0-5.3,0-7.7C152,140.5,151,138.7,149.8,136.5z"/>
	<path class="st0" d="M70.4,112c-2.5-0.1-4-0.2-5.9-0.4c-0.6-5-0.7-9.5,0.1-14.2c4.3,0.9,3.2,4.2,3.9,6.4
		C69.2,106.2,69.6,108.6,70.4,112z"/>
	<path class="st0" d="M391.3,159.7c0.1-2.4,0.2-4.3,0.3-6.6c1.2-2.9,4.6-0.4,7-2.8c0.7,2.1,1.2,3.5,1.7,5.1
		c-1.5,0.9-2.6,1.6-3.7,2.3c-0.5,1.3-1.1,2.8-1.9,4.8C393.1,161.2,392.1,160.3,391.3,159.7z"/>
	<path class="st0" d="M66.1,64.1c0.8,2.5,1.6,5,2.4,7.5c-0.5,2.2-1.8,3.7-4.5,3.9c-1-1.4-1.9-2.9-3.1-4.6c0.1-1.9,0.3-4,0.4-6.1
		c1.8-0.3,3.2-0.5,4.6-0.7C66,64,66.1,64.1,66.1,64.1z"/>
	<path class="st0" d="M848.8,0c3.7,0,7.3-0.1,10.9,0c2.3,0.1,3.5,1.2,3.1,2.8c-0.4,1.8-1.8,2.1-3.4,2.1c-3.2-0.1-6.4,0-9.4,0
		C848,3.8,847.7,2.4,848.8,0z M849.9,2.3c0,0.1,0,0.3,0,0.4c1.4,0,2.7,0,4.1,0c0-0.2,0-0.4,0-0.6C852.6,2.1,851.3,2.2,849.9,2.3z
		 M858.8,2.3c0,0.1,0,0.2,0,0.4c0.5,0,1.1,0,1.6,0c0-0.1,0-0.2,0-0.4C859.8,2.3,859.3,2.3,858.8,2.3z"/>
	<path class="st0" d="M781.9,76.1c-0.5,3.5-2.8,4.4-4.6,5.7c-5.5-3.5-5.7-4.9-0.6-9.6C778.4,73.5,780.2,74.8,781.9,76.1z"/>
	<path class="st0" d="M511.4,167.9c-3.5-0.7-6,0.9-8.3-1.4c1.7-2.5,0.8-6.5,5.4-7.6C509.4,161.7,510.2,164.3,511.4,167.9z"/>
	<path class="st0" d="M50.7,43.4c-3.6,3.2-8.1,3.4-12.2,1.2c1.3-2.2,3.8-2.4,5.9-3.8C46.2,41.6,48.1,42.4,50.7,43.4z"/>
	<path class="st0" d="M648.7,157.4c1,0,1.9,0,3.1,0c0,1.5,0,2.7,0,3.8c-1.3,1.4-2.6,0.9-4.2-1.5c-0.9,0.4-1.7,0.8-2.6,1.2
		c-2.7-3.1-2.7-3.7,0.9-5.9C646.8,155.8,647.8,156.6,648.7,157.4z"/>
	<path class="st0" d="M473.3,34.4c2,1.4,3.4,2.5,5.3,3.9c-1.3,1.6-2.4,3-3.7,4.5c-1.9-1.4-3.6-2.6-5.8-4.2
		C470.5,37.3,471.6,36.1,473.3,34.4z"/>
	<path class="st0" d="M851.5,78.2c-1.5,0.6-3,1.1-4.6,1.8c-0.8-0.7-1.5-1.3-2.2-1.9c0.1-3.7,3.2-4.3,5.4-6
		C852.8,73.6,852.2,75.8,851.5,78.2z"/>
	<path class="st0" d="M792.9,188.9c3.3,4,2.9,7.5-1.1,11.1C790.3,196.1,789.7,192.6,792.9,188.9z"/>
	<path class="st0" d="M60.2,120.4c0.7,2.8,1.5,5.7,2.4,9.2c-1.6,0.1-3.1,0.2-4.4,0.2c-2-3.8-0.4-6.4,0.8-9.2
		C59.3,120.6,59.7,120.5,60.2,120.4z"/>
	<path class="st0" d="M850.3,188.8c-0.8-0.8-1.3-1.4-2-2.1c2.2-2,4.2-3.8,6.6-5.9c0.2,0.2,0.9,0.7,1.9,1.4
		C855.8,185.4,853.7,187.4,850.3,188.8z"/>
	<path class="st0" d="M826,203c-0.7,0.5-1.4,1-2.1,1.5c-1.9-0.3-3.8-0.6-5.5-0.8c-1.5-1.4-1.7-2.6-0.3-4.1
		C820.6,200.3,823.7,199.1,826,203z"/>
	<path class="st0" d="M607.5,139.1c0.6,0.9,1.1,1.7,1.9,2.8c-1.5,1.8-2.9,3.4-4.4,5.3c-1.1-1-1.8-1.6-2.5-2.3
		C603.2,142,604.8,140.2,607.5,139.1z"/>
	<path class="st0" d="M53.5,115c-2.1,0-3.5-1.1-3.4-2.6c0.1-1.5,1.5-2.4,3.6-2.4c1.6,0.1,2.9,0.6,3.1,2.4
		C57.1,114,55.7,115,53.5,115z"/>
	<path class="st0" d="M182,162.3c-0.1,1.9-0.2,3.3-0.2,4.5c-2.2,1.9-3.9,1.6-5.7-0.2C177.2,164.1,178.3,162.2,182,162.3z"/>
	<path class="st0" d="M839.7,8.3c0.3,1.6,0.5,3.2,0.8,5.1c-1.2,0.2-2.2,0.4-3.6,0.6c-0.7-1.9-1.3-3.5-1.8-5
		C836.4,6.9,837.7,6.6,839.7,8.3z"/>
	<path class="st0" d="M44,23.2c1-0.8,1.8-1.4,2.9-2.2c1.7,0.7,3.4,1.4,5.2,2.2C49.7,27,48.1,27,44,23.2z"/>
	<path class="st0" d="M187.9,66.8c-2.6,2.8-2.6,2.8-6.7,0.3c0.1-0.8,0.1-1.7,0.2-2.7C184.4,63.6,186.3,64.7,187.9,66.8z"/>
	<path class="st0" d="M762.1,16c-0.7,4-1.3,4.7-5.1,5.7C755.6,17.6,756.7,16.3,762.1,16L762.1,16z"/>
	<path class="st0" d="M471.9,54c-2.1-1.8-3.2-3.8-2.5-6.5c2.8-1,3.4,0.9,4.2,2.5C474.3,51.6,474.1,52.9,471.9,54z"/>
	<path class="st0" d="M163.7,145.1c0,2.4,0,4.4,0,6.5c-2.6,0.6-3.6-0.6-3.6-2.8c0-1.1,0.4-2.2,1-3.1
		C161.5,145.3,162.6,145.3,163.7,145.1z"/>
	<path class="st0" d="M560,94.8c0.1,1.7-0.9,3.1-2.3,3.1c-1.4,0.1-2.6-1.2-2.6-2.9c0-1.5,0.6-2.5,2.1-2.8
		C558.7,91.9,559.9,93.1,560,94.8z"/>
	<path class="st0" d="M19.6,19.1c0.4,1.4,0.7,2.4,1,3.5c-2.9,1.9-2.9,2-5.9,1.6C14.6,21.2,16.5,19.9,19.6,19.1z"/>
	<path class="st0" d="M634.1,158c1.5,1,3.1,2,4.9,3.2c-2.8,2.1-4.5,2.4-5.9,1.1C631.9,161.3,632,160.5,634.1,158z"/>
	<path class="st0" d="M71.1,12.8c-0.4,1.6-0.6,2.6-0.8,3.6c-5.3-1-5.3-1-4.3-4.9C67.5,11.9,69,12.2,71.1,12.8z"/>
	<path class="st0" d="M810.1,176.9c-0.7,0.9-1.6,2-2.4,2.9c-2.4-0.3-2.9-1.7-2.6-3.2c0.2-0.9,1.2-2.1,2.1-2.3
		C808.8,173.8,809.6,175,810.1,176.9z"/>
	<path class="st0" d="M773.1,21.6c1,1.3,1.5,2.1,2.3,3.1c-1,1.2-2,2.2-3.1,3.5c-1.1-0.9-2-1.6-3.5-2.8
		C770.2,24.2,771.4,23.1,773.1,21.6z"/>
	<path class="st0" d="M54,125c-3.2-2-0.5-3.7-0.8-5.7c1.3,0,2.2,0,3.3,0C57.7,122.1,56.4,123.6,54,125z"/>
	<path class="st0" d="M1004,163c-1.1,0.7-2.2,1.4-3.2,2c-3.5-2.1-3.5-2.5,0-5.3C1001.9,160.8,1003,161.9,1004,163
		C1004,163,1004,163,1004,163z"/>
	<path class="st0" d="M471.6,28.5c2.5,2.3,2.9,3.4,1.7,4.6c-1.1,1.1-2.3,1.1-3.4,0C468.6,31.9,469,30.8,471.6,28.5z"/>
	<path class="st0" d="M609.3,147.3c1.7,0.9,2.3,2.2,1.1,3.7c-1.4,1.7-3.1,1.3-4.8,0.2C605.6,148.4,607.3,147.6,609.3,147.3z"/>
	<path class="st0" d="M534,165.6c1.3-0.9,2.3-1.6,3.5-2.4c0.9,1,1.7,1.8,2.8,3c-1.1,0.7-2,1.6-2.9,1.8
		C536,168.3,534.8,167.7,534,165.6z"/>
	<path class="st0" d="M40.3,11.1c1.6,0,2.6,0.8,2.6,2.3c0.1,1.5-0.9,2.6-2.4,2.4c-0.9-0.1-2-1.1-2.3-2
		C37.8,12.4,38.9,11.5,40.3,11.1z"/>
	<path class="st0" d="M385.7,156c-1.6-0.2-2.7-1-2.5-2.5c0.2-0.9,1.2-2,2-2.2c1.4-0.4,2.5,0.6,2.6,2.1
		C388.1,154.9,387,155.7,385.7,156z"/>
	<path class="st0" d="M105.7,24.9c-1.5-0.1-2.6-1-2.4-2.4c0.1-0.9,1.1-2,2-2.3c1.4-0.4,2.5,0.6,2.7,2
		C108.1,23.9,107.1,24.7,105.7,24.9z"/>
	<path class="st0" d="M867.4,0.4c2.2-0.6,3.9-0.5,4.5,1.9c0.3,1.3-1,2.8-2.3,2.6C867.1,4.6,866.8,2.9,867.4,0.4z M869.4,2.6
		c0-0.1,0-0.3-0.1-0.3c-0.1-0.1-0.3-0.1-0.4-0.1c0,0.2,0.1,0.3,0.1,0.5C869.1,2.7,869.2,2.7,869.4,2.6z"/>
	<path class="st0" d="M893.3,196.2c2.2,3,2.2,3-0.5,5.9c-0.6-1-1.5-1.8-1.7-2.7C890.8,198.1,891.3,196.8,893.3,196.2z"/>
	<path class="st0" d="M543.9,175c-2.3-3.2-2.3-3.2,0-5.7C546.7,171.7,546.7,172,543.9,175z"/>
	<path class="st0" d="M107.1,12.1c1.3,1.6,1.1,2.9,0,4.1c-1.1,1.1-2.3,1-3.6-0.4C103.9,13.8,104.6,12.1,107.1,12.1z"/>
	<path class="st0" d="M511.9,168.9c0.9,1.3,1.7,2.5,2.7,4c-0.9,0.6-1.9,1.3-3,2C509.5,172.9,509.6,171.2,511.9,168.9z"/>
	<path class="st0" d="M58.6,69.7c0.9,1.6,1.5,2.8,2.2,3.9c-1.7,1.8-3.1,1.8-4.2,0C55.5,72.1,56.5,71,58.6,69.7z"/>
	<path class="st0" d="M840.5,168.1c0.5,0.7,1,1.3,1.6,2c-1.9,1.2-2.6,0.7-2.9-1.1C839.6,168.8,840,168.5,840.5,168.1z"/>
	<path class="st0" d="M352.4,57c0.8,0.2,1.6,0.5,2.4,0.7c-0.1,0.3-0.1,0.6-0.2,0.9c-0.9-0.2-1.7-0.3-2.7-0.5
		C352.1,57.6,352.2,57.3,352.4,57z"/>
	<path class="st0" d="M376.1,89.8c0.7-0.5,1.5-1,2.2-1.5c0.2,0.2,0.3,0.5,0.5,0.7c-0.7,0.5-1.4,1.1-2,1.6
		C376.6,90.3,376.4,90,376.1,89.8z"/>
	<path class="st0" d="M919.3,131.6c1.2-1.6,2.1-1.8,3.5,0C921.5,131.6,920.6,131.6,919.3,131.6z"/>
	<path class="st0" d="M29.1,42c-0.9-0.2-1.8-0.3-3-0.6C28,40.2,28,40.2,29.1,42L29.1,42z"/>
	<path class="st0" d="M420.6,153.2c0.5,2,0.1,2.9-2.2,2.6C419.2,154.8,419.8,154.1,420.6,153.2z"/>
	<path class="st0" d="M373.4,95c0.4-1.1,0.6-1.6,1.1-2.9c0.5,1.2,0.7,1.8,1,2.4C374.9,94.7,374.3,94.8,373.4,95z"/>
	<path class="st0" d="M399.7,107.3c0.6,0.3,1.2,0.5,1.8,0.8c-0.1,0.2-0.1,0.5-0.2,0.7c-0.7-0.1-1.3-0.2-2-0.3
		C399.5,108,399.6,107.7,399.7,107.3z"/>
	<path class="st0" d="M433.7,86.9c-0.7-1.3-1.1-2.1-1.7-3.2C433.5,84.6,433.5,84.6,433.7,86.9z"/>
	<path class="st0" d="M188.7,120.8c-0.5-0.9-0.8-1.5-1.3-2.3C189.3,118.9,189.3,118.9,188.7,120.8z"/>
	<path class="st0" d="M389.1,106c-0.3,0.9-0.5,1.8-0.8,2.7c-0.3-0.2-0.7-0.4-1-0.6C387.8,107.5,388.4,106.7,389.1,106L389.1,106z"/>
	<path class="st0" d="M727,49.2c-0.4,0.5-0.8,0.9-1.3,1.4c-0.2-0.1-0.4-0.3-0.5-0.4c0.3-0.6,0.7-1.1,1-1.7
		C726.5,48.7,726.7,48.9,727,49.2z"/>
	<path class="st0" d="M439,70c1.1,0.5,2,1,0.5,3.1C439.3,71.7,439.2,70.8,439,70L439,70z"/>
	<path class="st0" d="M554.8,158.3c0.8,0,1.6,0,2.5,0c0,0.1,0,0.3,0,0.4c-0.8,0-1.6,0-2.5,0C554.8,158.6,554.8,158.5,554.8,158.3z"
		/>
	<path class="st0" d="M389,106c0.4-0.8,0.9-1.7,1.3-2.5c0.4,0.4,0.8,0.9,1.2,1.3C390.7,105.2,389.9,105.6,389,106
		C389.1,106,389,106,389,106z"/>
	<path class="st0" d="M347.8,118.8c0,0.7,0,1.4,0,2.2c-0.1,0-0.3,0-0.4,0c0-0.7-0.1-1.4-0.1-2.2
		C347.5,118.8,347.6,118.8,347.8,118.8z"/>
	<path class="st0" d="M568,144c-0.9,1.3-2,1-3.2,0C565.9,144,567,144,568,144L568,144z"/>
	<path class="st0" d="M7.7,116.5c0.1,0.7,0.1,1.1,0.2,1.5c-0.2-0.2-0.7-0.3-0.7-0.5C7.1,117.3,7.4,117,7.7,116.5z"/>
	<path class="st0" d="M514.6,116.7c-0.7,0.1-1.1,0.1-1.5,0.2c0.2-0.2,0.3-0.6,0.5-0.7C513.8,116.1,514.1,116.4,514.6,116.7z"/>
	<path class="st0" d="M438.1,76.2c0.3,0.3,0.5,0.6,0.8,0.9c-0.1,0.1-0.2,0.3-0.3,0.4c-0.3-0.2-0.7-0.5-1-0.7
		C437.7,76.6,437.9,76.4,438.1,76.2z"/>
	<path class="st0" d="M122,85c0.5-0.2,1-0.4,2-0.7C123.3,86.1,122.7,86,122,85L122,85z"/>
	<path class="st0" d="M92.8,70.8c0,0.5,0,1.1,0,1.6c-0.1,0-0.3,0-0.4,0c0-0.5,0-1.1,0-1.6C92.5,70.8,92.6,70.8,92.8,70.8z"/>
	<path class="st0" d="M365.3,69.7c-0.5,0-1,0-1.6,0c0-0.1,0-0.3,0-0.4c0.5,0,1,0,1.6,0C365.3,69.5,365.3,69.6,365.3,69.7z"/>
	<path class="st0" d="M444.4,65.5c-0.3-0.3-0.6-0.6-0.9-0.9c0.2-0.2,0.4-0.3,0.4-0.3c0.3,0.3,0.6,0.6,0.9,0.9
		C444.7,65.4,444.5,65.5,444.4,65.5z"/>
	<path class="st0" d="M420.7,160.8c0,0.5,0,1,0,1.6c-0.1,0-0.3,0-0.4,0c0-0.5,0-1,0-1.6C420.5,160.8,420.6,160.8,420.7,160.8z"/>
	<path class="st0" d="M138.1,63c0.5,0.4,1,0.9,1.5,1.3c-0.2,0.2-0.4,0.3-0.6,0.5C138.6,64.2,138.3,63.6,138.1,63L138.1,63z"/>
	<path class="st0" d="M143.9,57.3c0.3,0.2,0.7,0.5,1,0.7c-0.2,0.3-0.4,0.5-0.6,0.8c-0.4-0.2-0.8-0.4-1.1-0.6
		C143.4,57.9,143.7,57.6,143.9,57.3z"/>
	<path class="st0" d="M381.3,93.4c0,0.1,0,0.3,0,0.3c-0.1,0.1-0.2,0.1-0.4,0.1c0-0.2,0-0.3,0.1-0.5
		C381.1,93.3,381.2,93.3,381.3,93.4z"/>
	<path class="st0" d="M276.1,134c-0.7-0.3-1.3-0.7-2-1l0,0C274.7,133.4,275.4,133.7,276.1,134L276.1,134z"/>
	<path class="st0" d="M430.4,74.7c-0.1,0-0.2,0.1-0.4,0.1c0-0.2-0.1-0.4-0.1-0.5c0.1,0,0.3,0,0.4,0.1
		C430.4,74.4,430.3,74.5,430.4,74.7z"/>
	<path class="st0" d="M75.5,157.4c-0.1-0.1-0.1-0.2-0.2-0.3c0.2-0.1,0.3-0.2,0.5-0.3c0,0.1,0.1,0.3,0,0.4
		C75.8,157.3,75.6,157.3,75.5,157.4z"/>
	<path class="st0" d="M930.7,102.7c0,0.1,0.1,0.2,0.1,0.4c-0.2,0-0.3,0.1-0.5,0.1c0-0.1,0-0.3,0.1-0.4
		C930.4,102.7,930.6,102.7,930.7,102.7z"/>
	<path class="st0" d="M125,73c-0.1,0.5-0.2,0.9-0.3,1.4c-0.2-0.1-0.3-0.2-0.5-0.2C124.5,73.8,124.8,73.4,125,73L125,73z"/>
	<path class="st0" d="M792.7,31.7c0,0.1,0.1,0.2,0.1,0.4c-0.2,0-0.4,0.1-0.5,0.1c0-0.1,0-0.3,0.1-0.4
		C792.4,31.7,792.6,31.7,792.7,31.7z"/>
	<path class="st0" d="M113.8,74c0,0.1-0.1,0.2-0.1,0.4c-0.1-0.1-0.3-0.3-0.4-0.4c0,0,0.2-0.2,0.3-0.3
		C113.7,73.8,113.7,73.9,113.8,74z"/>
	<path class="st0" d="M912.1,139.8c-0.1,0-0.2-0.1-0.4-0.1c0.1-0.1,0.3-0.3,0.4-0.4c0,0,0.2,0.2,0.3,0.3
		C912.3,139.6,912.2,139.7,912.1,139.8z"/>
	<path class="st0" d="M425.7,148.4c0.1,0,0.2-0.1,0.4-0.1c0,0.2,0.1,0.3,0.1,0.5c-0.1,0-0.3,0-0.4-0.1
		C425.7,148.7,425.8,148.5,425.7,148.4z"/>
	<path class="st0" d="M434.1,77c0.5,0.1,0.9,0.2,1.4,0.3c-0.1,0.2-0.2,0.3-0.3,0.5C434.8,77.6,434.4,77.3,434.1,77
		C434,77,434.1,77,434.1,77z"/>
	<path class="st0" d="M457.8,149c0,0.1-0.1,0.2-0.1,0.4c-0.1-0.1-0.3-0.3-0.4-0.4c0,0,0.2-0.2,0.3-0.3
		C457.7,148.7,457.7,148.9,457.8,149z"/>
	<path class="st0" d="M138.4,56.7c-0.1,0-0.2,0.1-0.4,0.1c0-0.2-0.1-0.3-0.1-0.5c0.1,0,0.3,0,0.4,0.1
		C138.4,56.4,138.3,56.6,138.4,56.7z"/>
	<path class="st0" d="M875.7,56.3c-0.1,0-0.3,0.1-0.3,0.1c-0.1-0.1-0.1-0.2-0.1-0.4c0.2,0,0.3-0.1,0.5-0.1
		C875.8,56,875.8,56.1,875.7,56.3z"/>
	<path class="st0" d="M132.5,82.4c-0.1-0.1-0.1-0.2-0.2-0.3c0.2-0.1,0.3-0.2,0.5-0.3c0,0.1,0.1,0.3,0,0.4
		C132.8,82.3,132.6,82.3,132.5,82.4z"/>
	<path class="st0" d="M54,51c0.1-0.5,0.2-0.9,0.3-1.4c0.2,0.1,0.3,0.2,0.5,0.2C54.6,50.3,54.3,50.7,54,51L54,51z"/>
	<path class="st0" d="M120,48c0.3-0.3,0.7-0.6,1-0.9c0.1,0.2,0.2,0.3,0.3,0.5C120.9,47.8,120.5,47.9,120,48L120,48z"/>
	<path class="st0" d="M175,109c-0.3-0.3-0.7-0.7-1-1l0,0C174.4,108.4,174.7,108.7,175,109L175,109z"/>
	<path class="st0" d="M175,109C175.2,109.2,175.4,109.3,175,109C175.3,109.3,175.2,109.2,175,109L175,109z"/>
	<path class="st0" d="M192,82C192.2,82.2,192.4,82.3,192,82C192.3,82.3,192.2,82.2,192,82L192,82z"/>
	<path class="st0" d="M7,122C7.2,121.9,7.3,121.7,7,122C7.4,121.8,7.2,121.9,7,122C7,122,7,122,7,122z"/>
	<path class="st0" d="M423,77C423.2,77.2,423.3,77.3,423,77C423.3,77.3,423.2,77.2,423,77L423,77z"/>
	<path class="st0" d="M67,123C67.2,123.2,67.3,123.3,67,123C67.3,123.3,67.2,123.2,67,123L67,123z"/>
	<path class="st0" d="M146,124c0.1-0.2,0.2-0.3-0.3,0.4C146.4,123.8,146.2,123.9,146,124L146,124z"/>
	<path class="st0" d="M434,77c-0.2-0.1-0.3-0.3,0.1,0.1C433.8,76.7,433.9,76.9,434,77C434.1,77,434,77,434,77z"/>
	<path class="st0" d="M69,41c0.1-0.2,0.3-0.3-0.1,0.2C69.4,40.8,69.2,40.9,69,41C69.1,41,69,41,69,41z"/>
	<path class="st0" d="M793,4C793.2,4.2,793.4,4.3,793,4C793.3,4.3,793.2,4.2,793,4C793,4,793,4,793,4z"/>
	<path class="st0" d="M793,133C793.2,133.2,793.3,133.3,793,133C793.3,133.3,793.2,133.2,793,133C793,133,793,133,793,133z"/>
	<path class="st0" d="M561.1,140C561.2,139.9,561.3,139.7,561.1,140C561.4,139.8,561.2,139.9,561.1,140C561,140,561.1,140,561.1,140
		z"/>
	<path class="st0" d="M80.1,27c0.3-0.3,0.7-0.7,1-1l0,0C80.7,26.4,80.4,26.7,80.1,27C80,27,80.1,27,80.1,27z"/>
	<path class="st0" d="M79,28c0.3-0.3,0.7-0.7,1-1c0,0,0,0,0,0C79.7,27.4,79.4,27.7,79,28L79,28z"/>
	<path class="st0" d="M581,142C581.2,141.9,581.3,141.7,581,142C581.3,141.8,581.2,141.9,581,142L581,142z"/>
	<path class="st0" d="M960.1,142C959.9,141.9,959.7,141.8,960.1,142C959.8,141.7,959.9,141.9,960.1,142L960.1,142z"/>
	<path class="st0" d="M79,28C78.9,28.2,78.8,28.3,79,28C78.7,28.3,78.9,28.2,79,28L79,28z"/>
	<path class="st0" d="M439.1,70C438.9,69.9,438.7,69.8,439.1,70C438.8,69.7,438.9,69.9,439.1,70L439.1,70z"/>
	<path class="st0" d="M969.1,145C969.2,145.2,969.3,145.3,969.1,145C969.3,145.3,969.2,145.2,969.1,145C969,145,969.1,145,969.1,145
		z"/>
	<path class="st0" d="M484,65C483.9,65.2,483.8,65.3,484,65C483.7,65.3,483.9,65.2,484,65C484,65,484,65,484,65z"/>
	<path class="st0" d="M550.1,151C549.9,151.2,549.8,151.3,550.1,151C549.7,151.3,549.9,151.2,550.1,151L550.1,151z"/>
	<path class="st0" d="M485,41C484.9,41.2,484.8,41.3,485,41C484.8,41.3,484.9,41.2,485,41C485.1,41,485,41,485,41z"/>
	<path class="st0" d="M601,154C600.9,154.2,600.8,154.3,601,154C600.7,154.3,600.9,154.2,601,154C601.1,154,601,154,601,154z"/>
	<path class="st0" d="M491,42c-0.2-0.1-0.3-0.3,0.2,0.2C490.8,41.7,490.9,41.9,491,42C491.1,42,491,42,491,42z"/>
	<path class="st0" d="M29,42C29.2,42.2,29.4,42.3,29,42C29.3,42.3,29.2,42.2,29,42L29,42z"/>
	<path class="st0" d="M546,157c-0.3,0.3-0.6,0.7-1,1c0,0-0.1-0.1-0.1-0.1C545.4,157.7,545.7,157.4,546,157L546,157z"/>
	<path class="st0" d="M545,159c0-0.3,0-0.7,0-1l0.1,0.1C545,158.4,545,158.7,545,159L545,159z"/>
	<path class="st0" d="M484,65C484.2,64.9,484.3,64.7,484,65C484.3,64.8,484.2,64.9,484,65L484,65z"/>
	<path class="st0" d="M545.1,159c0.2,0.1,0.3,0.3-0.2-0.1C545.3,159.4,545.2,159.2,545.1,159C545,159,545.1,159,545.1,159z"/>
	<path class="st0" d="M608,160c0.3-0.3,0.7-0.7,1-1c0,0,0,0,0,0C608.7,159.4,608.4,159.7,608,160C608,160,608,160,608,160z"/>
	<path class="st0" d="M546.1,157C546.2,156.9,546.3,156.7,546.1,157C546.4,156.8,546.2,156.9,546.1,157L546.1,157z"/>
	<path class="st0" d="M376.2,163.2c-0.1,0.1-0.3,0.3-0.4,0.4c-0.1-0.1-0.2-0.2-0.4-0.4c0.1-0.1,0.3-0.3,0.4-0.4
		C376,163,376.1,163.1,376.2,163.2z"/>
	<path class="st0" d="M874,60C874.2,59.9,874.3,59.7,874,60C874.3,59.8,874.2,59.9,874,60C874,60,874,60,874,60z"/>
	<path class="st0" d="M135,88c-0.3,0.3-0.7,0.7-1,1l0,0C134.4,88.7,134.7,88.4,135,88L135,88z"/>
	<path class="st0" d="M425.1,94c0.3-0.3,0.7-0.7,1-1c0,0,0,0,0,0C425.7,93.4,425.4,93.7,425.1,94C425,94,425.1,94,425.1,94z"/>
	<path class="st0" d="M179.1,86C179.2,86.2,179.4,86.3,179.1,86C179.3,86.3,179.2,86.2,179.1,86L179.1,86z"/>
	<path class="st0" d="M179,86C178.9,85.9,178.7,85.8,179,86C178.8,85.7,178.9,85.9,179,86L179,86z"/>
	<path class="st0" d="M746.1,55c-0.3-0.3-0.7-0.7-1-1c0,0,0,0,0,0C745.4,54.4,745.7,54.7,746.1,55C746,55,746.1,55,746.1,55z"/>
	<path class="st0" d="M728,106c0.1-0.1,0.3-0.3-0.1,0.1C728.4,105.8,728.2,105.9,728,106C728.1,106,728,106,728,106z"/>
	<path class="st0" d="M876,48C875.9,48.2,875.8,48.3,876,48C875.7,48.3,875.9,48.2,876,48C876.1,48,876,48,876,48z"/>
	<path class="st0" d="M728.1,106c-0.3,0-0.7,0-1,0l0,0C727.4,106,727.7,106,728.1,106L728.1,106z"/>
	<path class="st0" d="M137,62c0.3,0.3,0.7,0.7,1,1l0,0C137.7,62.7,137.4,62.4,137,62L137,62z"/>
	<path class="st0" d="M396.1,127c0.2,0.1,0.3,0.3-0.2-0.1C396.3,127.4,396.2,127.2,396.1,127C396,127,396.1,127,396.1,127z"/>
	<path class="st0" d="M388,137C388.2,136.9,388.3,136.7,388,137C388.4,136.8,388.2,136.9,388,137L388,137z"/>
	<path class="st0" d="M849.9,2.3c1.3-0.1,2.7-0.1,4-0.2c0,0.2,0,0.4,0,0.6c-1.4,0-2.7,0-4.1,0C849.9,2.5,849.9,2.4,849.9,2.3z"/>
	<path class="st0" d="M858.8,2.3c0.5,0,1.1,0,1.6,0c0,0.1,0,0.2,0,0.4c-0.5,0-1.1,0-1.6,0C858.8,2.6,858.8,2.5,858.8,2.3z"/>
	<path class="st0" d="M869.4,2.6c-0.1,0-0.2,0.1-0.4,0.1c0-0.2-0.1-0.3-0.1-0.5c0.1,0,0.3,0,0.4,0.1C869.4,2.4,869.3,2.5,869.4,2.6z
		"/>
	<path class="st0" d="M276,134c-0.7-0.3-1.3-0.7-2-1c-0.9-1.7-1.7-3.4,1.1-5c1,0.9,2.1,2,3.5,3.3C277.5,132.5,276.8,133.3,276,134z"
		/>
	<path class="st0" d="M640.6,85.5c-3.7,3.1-8,2.7-11.7-0.5c1.2-1.3,2.3-2.6,3.7-4.1C635.2,82.4,637.7,83.8,640.6,85.5z"/>
	<path class="st0" d="M425,94c0.3-0.3,0.7-0.7,1-1c3.6,0.8,3.7,1,4,6c-1.1-0.1-2.3-0.2-3.8-0.3C425.8,97.1,425.4,95.6,425,94z"/>
</g>
</svg>
