<?xml version="1.0" encoding="utf-8"?>
<!-- Generator: Adobe Illustrator 19.0.0, SVG Export Plug-In . SVG Version: 6.00 Build 0)  -->
<svg version="1.1" id="Layer_1" xmlns="http://www.w3.org/2000/svg" xmlns:xlink="http://www.w3.org/1999/xlink" x="0px" y="0px"
	 viewBox="0 0 1196.4 232.4" style="enable-background:new 0 0 1196.4 232.4;" xml:space="preserve">
<style type="text/css">
	.st0{fill:#FFFFFF;}
</style>
<g>
	<path class="st0" d="M1196.4,127.4c-0.3,0.6-0.7,1.2-0.8,1.8c-3.1,15.1-12.5,24.4-27,28.4c-15.1,4.2-29.7,2.8-43.3-5.5
		c-1-0.6-1.8-1.4-2.8-2.1c4.5,0.5,8.9,1.3,13.4,1.5c22.3,1,34.4-20.7,26.7-39.7c-3.1-7.7-8.7-13.3-15.7-17.5
		c-8-4.8-16.8-7.3-26.1-7.8c-22.5-1.2-44.5,2-66,8.7c-0.6,0.2-1.2,0.4-2.1,0.8c0.6,1.5,1,2.9,1.6,4.3c10.6,24.8,21.1,49.6,32,74.2
		c2.9,6.5,6.5,12.8,10.6,18.6c6.1,8.6,14.2,14.9,26.1,17.1c-1.7,1.2-2.5,2-3.6,2.4c-0.9,0.3-2,0.1-3,0.1c-26.8,0-53.6,0-80.5,0
		c-1.9,0-4.5,0.9-5.2-2.3c3.7-0.9,7.4-1.7,11-2.7c5.5-1.6,10.5-4.2,14.7-8.1c6-5.6,8.3-12.3,5.9-20.4c-3-10.1-8.7-18-19.1-21.5
		c-2.3-0.8-3-2.3-3.8-4.2c-5.6-13.2-11.2-26.3-16.8-39.5c-0.6-1.5-1.3-2.9-2.3-4.9c-4.8,2.7-9.3,5.1-13.6,7.8
		c-17.5,11-33.2,24-45.3,40.9c-5.1,7.1-9.1,14.7-11.2,23.2c-4,16.5,4.6,26.1,19.5,28.5c1.7,0.3,3.8-0.1,4.3,2.4
		c-3.7,1-64.6,1.1-70,0.1c1.1-0.9,1.8-2,2.7-2.2c11.1-3,18-10.9,23.5-20.3c0.9-1.4,1.6-2.9,2.3-4.4c6.8-16.2,13.9-32.4,20.3-48.8
		c2.4-6.1,3.5-12.8,4.8-19.3c1-5.1,0.3-9.9-4.1-13.5c5-5.2,8.8-4.8,14.2,0.9c0.9-2.7,1.6-5.8,2.8-8.6c12.9-30.5,25.8-61,38.7-91.4
		c0.5-1.1,0.9-2.1,1.8-4.1c6.9,14.7,12.7,29,18.8,43.2c6.2,14.3,12.3,28.7,18.5,43.1c7.5-2.2,14.6-4.4,21.8-6.3
		c20.5-5.5,41.4-7,62.4-5.3c13.7,1.1,27,4.1,39.2,10.8c12.3,6.7,21.3,15.9,24,30.2c0.1,0.3,0.4,0.5,0.6,0.8
		C1196.4,120,1196.4,123.7,1196.4,127.4z M960.1,148.5c0.3,0.2,0.6,0.5,0.9,0.7c15.4-20.1,34.8-35.5,56.5-48.2
		c-6.6-15.5-13-30.4-19.4-45.4c-0.3,0-0.7,0.1-1,0.1C984.7,86.7,972.4,117.6,960.1,148.5z"/>
	<path class="st0" d="M446.9,163.4c-27.7,31.6-83,26.5-101.4-20.1c-5.4-13.7-6.1-27.9-4.7-42.3c0.9-8.7,3-17.1,6.8-24.9
		c10.2-20.8,27.3-31.3,50.1-32.6c7.8-0.4,15.6,0.9,23.4,1.3c5,0.2,10,0.4,14.9,0.1c2.2-0.1,4.4-1.4,6.9-2.3c0.2,1.1,0.7,2.1,0.7,3.1
		c0,15.5,0,31,0,46.5c0,2.1,0,4.1-3,4.6c-1.1-4.4-2.1-8.9-3.4-13.3c-2.4-8.4-5.7-16.3-10.8-23.5c-3-4.1-6.4-7.7-11-10
		c-8-4.1-15.7-3.8-23.1,1.3c-5.4,3.7-9.1,8.7-12.2,14.3c-7.3,13.6-9.7,28.2-9.2,43.4c0.4,10.9,1.8,17.2,6.3,26.9
		c-6.4,5.6-7.5,12.9-5.6,20.8c2,8.7,7.5,14.7,15.4,18.6c21.1,10.4,45.9-0.8,53.2-24c0.6-1.9,1-3.8,1.7-6.3h17.6
		c-0.1,1-0.1,1.7-0.2,2.2c-0.7,3-1,5.3-1.7,9C452.9,157.7,446.9,163.4,446.9,163.4z"/>
	<path class="st0" d="M221.9,19.7c23.7,0,46.8,0,70.7,0c-1,1.2-1.6,2.4-2.4,2.7c-15.4,4.4-22.8,16.4-28.6,29.9
		c-7.2,16.8-14.3,33.7-21.4,50.6c-17.6,41.5-35.2,83-52.8,124.5c-0.6,1.5-1.3,2.9-2.3,5c-12.6-29.3-24.9-57.8-37.3-86.5
		c-2,0.6-3.5,1-5.1,1.5c-23.1,7.9-46.8,11.8-71.2,10.8c-16.4-0.7-32.4-3.5-47.2-11.4c-6.2-3.3-11.8-7.5-16.2-13.1
		c-13-16.2-10.2-40.2,6.1-52.6c6.4-4.8,13.8-7.3,21.7-8.3c11.5-1.4,22.6,0.3,32.9,6c1.2,0.6,2.3,1.4,3.4,2.2c0.3,0.2,0.5,0.7,1,1.4
		c-3.1-0.5-5.9-1.1-8.7-1.4C53,79.5,42.9,82.5,36.2,92.6c-6.9,10.4-6.6,21.5-0.5,32.2c5.7,10,14.9,15.6,25.7,18.4
		c6.5,1.7,13.4,2.8,20.2,2.9c20.1,0.2,39.8-2.7,59.1-8.6c0.6-0.2,1.3-0.4,1.9-0.6c0.3-0.1,0.5-0.5,1-1c-3.7-7.8-7.5-15.7-14-21.9
		c-2.6-2.5-5.6-4.2-9.5-3.2c-1.1-6.6,1.5-8.9,11.6-9.9c-5.8-3.3-6.8-9.1-9.1-14.1c-5.1-11.4-9.9-22.9-15-34.3
		c-2.7-6.1-6.4-11.7-10.9-16.6C90.5,29.2,83.4,24.2,74.1,23c0.5-2.5,1.8-3.6,4.2-3.5c1.3,0.1,2.7,0,4,0c26,0,52,0,78,0
		c2.5,0,5.3-0.5,5.4,3.5c-1.1,0.1-2.3,0.2-3.4,0.4c-10.1,1.8-16.8,9.5-17.3,19.7c-0.2,4.7,0.5,9.3,2.4,13.7
		c9.1,21.6,18.2,43.2,27.3,64.8c0.2,0.6,0.7,1.1,1.2,1.9c23.6-12.5,44.6-28,60-50.2c5.4-7.7,9.4-16.1,10.8-25.5
		c1.6-10.7-3.1-19.2-13.2-23c-2.6-1-5.5-1.4-8.2-2.1C223.7,22.3,223.7,22.3,221.9,19.7z M186.3,209.5c6-15.1,11.6-29.1,17.2-43.1
		c5.5-13.9,11.2-27.8,16.6-41.7c5.4-13.9,11.3-27.6,16-41.9c-15.8,20.2-35.4,35.6-57.2,48.5c2,4.8,3.7,9.1,5.4,13.3
		c-8.5,4.2-11.8,9.4-12,18.4c-0.1,2.5-0.1,5,0.3,7.5C174.5,184,180.4,196,186.3,209.5z"/>
	<path class="st0" d="M859.4,181.5c-22,0-43.9,0-65.9,0c-0.6,0-1.1-0.6-1.7-0.9c0.2-0.5,0.2-0.9,0.4-1c8.1-3.1,11.2-9.4,11.6-17.6
		c0.4-9.3-2.8-17.7-6.7-25.8c-2-4-4.4-7.9-7.1-11.5c-6.2-8.3-14.5-11.8-25.2-9.9c-0.1,1-0.3,2.1-0.3,3.2c0,14.5,0,29,0,43.5
		c0,2.1,0.3,4.3,0.8,6.4c1.2,5.5,4.5,9.2,9.8,11c1,0.4,2.1,0.7,3.2,1.8c-1,0.3-2,0.8-2.9,0.8c-17.3,0-34.7,0-52,0
		c-1,0-2-0.5-3.1-1.5c1-0.3,2-0.6,3-1c5.7-1.9,9.2-5.9,10.3-11.8c0.5-2.6,0.7-5.3,0.7-7.9c0-30.8,0-61.7,0-92.5
		c0-2.2-0.2-4.3-0.5-6.5c-0.9-6.8-4.4-11.3-11.2-13.1c-0.7-0.2-1.4-0.6-2.1-1.9c1.1-0.3,2.2-0.7,3.4-0.7c4.5-0.1,9,0,13.5,0
		c19.2,0,38.3,0,57.5,0c7.1,0,13.9,0.9,20.5,3.7c13.9,6.1,22,18.6,21.3,33c-0.3,7.4-3.6,13.5-8.4,18.7c-6.4,6.9-14.5,11.1-23.6,13.2
		c-0.8,0.2-1.6,0.3-2.9,0.6c0.5,0.7,0.7,1.3,1,1.5c7.7,4.7,13.4,11.5,18.3,18.8c5,7.5,9.6,15.2,14.6,22.7c3,4.6,6.3,9,9.7,13.3
		c3.8,4.7,8.5,8.2,14.4,10.1C859.6,180.7,859.5,181.1,859.4,181.5z M764.6,109.7c5,0,9.8,0,14.6,0c11.8,0,20-5.8,24.6-16.3
		c4.8-11,4-22.2-2-32.6c-4.4-7.7-11.1-11.7-20.2-11.4c-1.8,0.1-3.7,0-5.5,0c-5.6,0.2-9.2,2.7-10.7,8.1c-0.8,2.7-1.1,5.6-1.1,8.4
		c-0.1,13.2-0.1,26.3,0,39.5C764.4,106.6,764.5,107.9,764.6,109.7z"/>
	<path class="st0" d="M715.7,111.4c0.1,17.2-3.5,32.1-12.5,45.3c-13.3,19.4-32.1,28.1-55.4,25.9c-26.2-2.5-43-17.6-51.6-41.7
		c-8-22.5-6.7-45,4.6-66.2c10.1-18.8,25.9-29.6,47.4-31.3c31.5-2.6,54.2,16.3,63.2,42.5C714.4,94.5,715.8,103.5,715.7,111.4z
		 M677.7,136.2c6-13.2,6.7-26.7,5.3-40.4c-1-10.4-4.2-20.2-9.6-29.1c-3.6-5.9-8-11.1-14.1-14.6c-12.7-7.3-28.3-2.2-33.6,11.4
		c-3.7,9.6-4.3,19.2,3.4,27.3c-5.7,12.6-6.6,25.6-5.4,38.9c1,10.9,4.2,21.2,9.9,30.6c3.6,5.9,8,11,14.1,14.6
		c4.6,2.6,9.5,4.1,14.8,3.2c9.4-1.4,16-6.5,19-15.6C684.7,153.3,685.4,144.2,677.7,136.2z"/>
	<path class="st0" d="M460,89.1c0-15.2,0-30.4,0-45.8c0.9-0.1,1.6-0.2,2.2-0.1c6.3,0.5,12.6,1.3,18.9,1.3c23.5,0.2,47,0.1,70.5,0
		c9.6,0,19.3,0.8,28.7-1.6c1.2,3.9,1.6,35.8,0.7,46.2c-2.6,0-3-1.8-3.6-3.8c-1.6-5.2-3.2-10.5-5.3-15.5c-2.2-5.3-5.7-9.8-10.1-13.5
		c-4.9-4.1-10.5-6.2-17-6.2c-3.8,0-6.4,1.7-7.6,5.2c-0.5,1.6-0.9,3.2-1.1,4.8c-0.3,3.1-0.4,6.3-0.4,9.5c0,28.8,0,57.6,0,86.5
		c0,2.3,0.1,4.7,0.3,7c0.5,8,4.7,13.3,12.2,16c0.9,0.3,1.8,0.6,3,1c-1.4,2.3-3.4,1.7-5.1,1.7c-13.5,0-27,0-40.5,0
		c-3.8,0-7.7,0-11.5,0c-1.2,0-2.4-0.4-3.7-1.5c1.3-0.6,2.5-1.2,3.8-1.7c7-2.7,10.4-8,11.1-15.2c0.1-1.3,0.1-2.7,0.1-4
		c0-31.2,0-62.3,0-93.5c0-3.1-0.3-6.4-1.1-9.4c-1.2-4.6-4-6.4-8.9-6.3C486,50.4,479,55,473.5,62.3c-5.2,6.9-8.1,14.8-10,23.2
		C463.1,87.3,462.9,89.1,460,89.1z"/>
	<path class="st0" d="M865.6,46c4.1-1.7,33.1-2.2,54.9-1.4c1.2,0,2.4,0.4,4.8,0.9c-1.7,1-2.3,1.5-3,1.7c-7.4,2.2-11.1,6.6-11.9,14.2
		c-0.1,1.5-0.1,3-0.1,4.5c0,31.5,0,62.9,0,94.4c0,1.5-0.1,3,0.1,4.5c0.8,7.3,4.2,12.5,11.6,14.5c0.7,0.2,1.4,0.5,2.4,0.9
		c-3.6,1.6-31.5,2.2-54.9,1.4c-1.2,0-2.4-0.4-3.8-0.7c0.5-0.8,0.6-1.2,0.9-1.3c8.8-2.4,12.1-6.3,13.1-15.3c0.2-2,0.3-4,0.3-6
		c0-30,0-59.9,0-89.9c0-2.3-0.1-4.7-0.3-7C879,54.1,875.5,49,868,47.2C867.4,47,866.9,46.7,865.6,46z"/>
	<path class="st0" d="M335.1,180.2c-4.8,1.9-54.9,1.9-59.4,0.2c1.3-0.5,2-0.9,2.8-1.1c6.4-1.9,10.1-6.2,11.1-12.7
		c0.3-2.3,0.6-4.6,0.6-7c0-30.8,0-61.7,0-92.5c0-2.2-0.2-4.3-0.4-6.5c-0.9-7-4.4-11.7-11.5-13.4c-0.6-0.1-1.1-0.5-2.4-1
		c1.3-0.7,2-1.4,2.8-1.5c2.3-0.2,4.7-0.1,7-0.1c14.5,0,29,0,43.5,0c1.7,0,3.4,0.3,5.3,1.4c-0.6,0.4-1.2,0.9-1.8,1.1
		c-7.5,2.3-11.1,6.5-11.9,14.2c-0.2,1.5-0.1,3-0.1,4.5c0,31.5,0,63,0,94.5c0,2.3,0.1,4.7,0.6,6.9c1.2,6.1,4.8,10.1,10.8,11.9
		C332.5,179.5,333.3,179.7,335.1,180.2z"/>
</g>
</svg>
