<?xml version="1.0" encoding="utf-8"?>
<!-- Generator: Adobe Illustrator 19.0.0, SVG Export Plug-In . SVG Version: 6.00 Build 0)  -->
<svg version="1.1" id="Layer_1" xmlns="http://www.w3.org/2000/svg" xmlns:xlink="http://www.w3.org/1999/xlink" x="0px" y="0px"
	 viewBox="0 0 3273 1721.5" style="enable-background:new 0 0 3273 1721.5;" xml:space="preserve">
<style type="text/css">
	.st0{fill:#FFFFFF;}
</style>
<g>
	<path class="st0" d="M2781,455.4c1.7,4.2,4.9,7.1,8.9,8.8c4.4,1.9,7.9,4.9,11.2,8.2c3.3,3.3,6.5,6.7,9.9,9.9
		c4.8,4.5,7.7,10.1,9.1,16.3c1.1,4.8,2.1,9.8,2.2,14.8c0.3,12.3,0.1,24.6,0.1,36.8c-3.8,5.2-8.2,9.3-12.7,13.2
		c-4.4,3.8-10.1,5-15.7,5.7c-4.9,0.6-10,0.5-15,0.7c-3.3,0.1-6.7-0.4-10.2,0.9c-5.1,3.6-8.6,8.9-11.6,14.4c-2.6,4.7-6,8.7-9.7,12.5
		c-4.4,4.6-8.2,9.6-12.4,14.4c-5.3,6-10.5,12-15.9,17.9c-18.3,19.9-35.8,40.4-51.6,62.3c-4.7,6.5-9.1,13.2-13.4,19.9
		c-2.9,4.5-5.4,9.2-6.2,14.7c2.6,11.3,9.5,20.3,16.5,29.4c0,9,0,17.9,0,27.4c-4.1,4.1-8.2,8.5-12.6,12.5c-1.9,1.8-4.4,3-6.8,4.1
		c-23,10.5-46,21-69.2,31.3c-8.8,3.9-17.9,7.3-26.8,11c-1.5,0.6-2.8,1.6-4.5,2.6c0.5,1.6,0.8,2.9,1.4,4c1.7,2.9,3.8,5.5,5.4,8.4
		c2.4,4.4,3.8,9,2.7,14.4c-1,5.2-1.1,10.6-1.6,16.1c-4.3,6.7-9.9,12.1-17.5,15.5c-24,11-46.9,24-68.5,39.1
		c-8.4,5.9-16.5,12.5-25,18.3c-8.2,5.7-12.3,13.7-14.8,22.9c-2.5,9.5-2.4,9.7,1.4,19.2c1.9,0.7,3.1-0.5,4.4-1.6
		c11.4-10.5,24.4-18.5,38.5-24.8c9.8-4.4,20-7.2,30.5-9c7.9-1.4,15.9-1.9,23.9-1.9c19.3-0.1,38.7-0.1,58,0c13.7,0.1,27.2,2,40.7,3.6
		c15.9,1.9,31.5,5.2,47.1,8.7c1.9,0.4,3.8,1.1,5.8,1.5c4.8,0.9,8.6,3.2,11.9,6.7c4.8,5,9.2,10.3,13,16.3
		c13.4,21.5,27.4,42.6,41.3,63.7c2.6,3.9,5.6,7.4,8.7,11c3.7,4.2,5.7,8.8,5.4,14.6c-0.3,6-0.1,12-0.1,17.8
		c-3.5,5.3-8.3,9.1-12.5,13.3c-11.2,2.2-22.3,4.2-33.4,6.5c-30.1,6.2-59.4,14.8-87.2,28.1c-9.9,4.7-19.4,10.3-28.3,16.9
		c-2.1,1.6-4.2,3.4-5.8,5.4c-12.8,16.5-22.5,34.5-27.2,54.6c3.2,12,1.5,23.6,1.8,35c-4.7,4.5-9,8.6-14.1,13.5
		c-5.7,0.8-12.3,0.2-18.9,0.3c-5.3,0.1-10.6,0.3-15.8,1.6c-7.6,1.8-14.4,5.2-21.3,9c-5.2,6-8.7,13.1-11.5,20.6
		c-1.7,4.4-2.5,8.9-2.4,13.7c0.2,8.7-0.1,17.3,0.1,26c0.2,5.7-1.4,10.4-5.7,14.3c-3,2.6-5.7,5.6-8.5,8.5c-2.9,3-6.4,4.8-10.6,4.8
		c-11.3,0.1-22.7,0.3-34-0.2c-3.8-0.2-7.7-1.9-11.4-3.4c-4-1.6-7.7-3.9-11.6-5.8c-3.6-1.8-7.2-3.5-10.6-5.1
		c-8.2,1.9-14.2,6.6-19.2,12.5c-8.4,10.1-13.9,21.9-18.4,34.1c-3.7,10-5.6,20.4-8.3,38.7c-3.8,3.8-8.1,8-12.2,12
		c-9.4,1-18.4,0.4-26.8,0.5c-9.9-4.5-19.3-8.9-28.8-13c-36.1-15.7-73.2-28.3-111.6-37.4c-17.2-4.1-34.4-7.5-52-9.5
		c-10.2-1.2-20.5-2.3-30.8-3.2c-5-0.4-10-0.2-15,0c-7.6,0.4-15.3,0.9-22.9,1.7c-8.6,0.8-17.2,1.9-25.8,2.9
		c-6.6,0.8-13.2,1.7-19.8,2.7c-9.9,1.5-19.8,2.8-29.6,4.7c-19,3.6-37.8,7.5-56.8,11.2c-19.6,3.8-39,8.5-58.2,13.9
		c-22.7,6.5-45.3,13.3-68,20c-4.2,1.2-8.4,2.1-12.8,2c-6.3-0.2-12.6-0.2-18.9-0.2c-6.4-5.8-13.3-10.5-16.7-18.6
		c-1.1-2.7-3.1-5.2-5-7.4c-6.2-7.1-11.3-14.8-15.6-23.1c-0.3-0.6-0.9-1-1.3-1.4c-2.4-0.7-3.7,1.1-5.1,2.4
		c-11.7,11.4-24.3,21.8-37.4,31.5c-22,16.3-45.2,30.7-70.1,42.2c-21.9,10.1-44.8,16.8-68.5,21.1c-15.4,2.8-31,4.5-46.7,4.4
		c-19-0.1-38,0.5-57-0.5c-28.5-1.4-56.1-7.3-82.2-19.2c-12.8-5.8-24.7-13.2-34.4-23.7c-1.8-2-3.7-3.8-5.7-5.7
		c-7.1-6.7-12.9-14.2-18.3-22.3c-11.8-17.8-24.2-35.1-36.4-52.6c-4.6-6.6-9.7-12.8-13.8-19.6c-5.2-8.5-9.8-17.4-14.3-26.3
		c-6.8-13.4-11.7-27.5-15.2-42.2c-3.5-14.6-5.8-29.4-5.8-44.4c0-3.5,0.5-7.2-0.8-10.7c-2.3,0.4-3,1.9-3.8,3.4
		c-4.6,8.1-9.3,16.2-13.8,24.3c-7.4,13.4-14.9,26.8-22.1,40.3c-20.4,38.2-43.1,75.1-67.6,110.9c-23.5,34.4-48.7,67.5-75.8,99.2
		c-25,29.2-51.9,56.4-79.8,82.7c-21.9,20.6-45.4,39.2-70.4,55.8c-27.6,18.3-56.7,33.6-88.5,43.5c-14.9,4.7-30.1,8.3-45.6,10.6
		c-13.5,2-27,3.8-40.5,5.5c-4.3,0.5-8.6,0.6-13,0.6c-27.3,0.1-54.7,0.2-82,0.1c-15.7,0-31.2-2.3-46.7-4.7
		c-14.5-2.2-28.8-5.4-42.9-9.3c-26.8-7.4-52.3-17.8-75.9-32.6c-10.2-6.4-19.8-13.6-28.3-22.1c-10.2-10.1-20.7-19.9-29.3-31.4
		c-9.8-13.1-21.4-24.7-30.7-38.1c-2.5-3.5-5.4-6.7-8.1-10.1c-9.9-12.3-17.3-26-23.1-40.7c-0.9-2.2-1.8-4.3-2.8-6.4
		c-10.7-22.4-16.6-46.3-22.4-70.2c-2.4-10-4.4-20.1-6.8-31.1c-1.8-1.8-4-4.3-6.6-6.3c-3.2-2.5-5.8-5.4-7.9-8.9
		c-6.8-11.4-13.8-22.8-20.6-34.2c-5.3-8.9-10.5-17.8-15.9-26.6c-1-1.7-2.3-3.2-3.5-4.8c-15.1-2.2-29.8-3.2-44.9-1.4
		c-16.9,2.1-33.6,5.1-50,9c-8.4,2-16.6,4.9-24.8,7.8c-4.5,1.6-8.9,2.4-13.7,2.3c-6.3-0.1-12.7,0-18.8,0c-6.8-2.5-11.7-7.1-14.9-13.1
		c-3.2-5.9-7-11.4-10.8-16.8c-15.2-21.5-30.7-42.8-46-64.2c-1.7-2.4-3.2-5-4-6.4c0.5-10.3,1-19.3,1.4-28.3
		c6.3-8,13.9-14.4,22.2-20.1c22.8-15.7,46.3-30.3,70.4-43.9c33.5-18.9,68.5-34.1,104.7-47c18.8-6.7,37.6-13.4,56.7-19.4
		c32.1-10.1,64.5-18.9,97.6-25c17.3-3.2,34.6-6.5,52-9.3c12.5-2,25.1-3.3,37.6-4.8c9.6-1.2,19.2-2.2,28.7-3.4c0.3,0,0.7-0.1,1-0.1
		c27.6-1.9,55.2-3,82.9-1.9c0.3,0,0.6,0.2,1.7,0.5c6.7,6,14.1,12.1,18.2,21.3c1.1,2.4,2.7,4.6,4.2,6.8
		c13.2,19.6,26.2,39.4,39.8,58.7c7.3,10.4,13.5,21.3,18.5,33c5.7,13.3,9,27.1,9.8,41.5c0.2,4,1.1,7.9,1.3,11.9
		c0.4,7,0.6,14,0.7,20.9c0.1,7.7,0,15.3,0,23c0,1.6,0.4,3.2,0.7,5.3c2.1-0.6,3.7-0.9,5.2-1.5c27.3-10.2,52.4-24.5,76.3-41.2
		c23.3-16.3,44.6-34.9,64-55.7c6.4-6.8,12.9-13.5,19.3-20.3c1.6-1.7,3.4-3.3,3.2-6.5c-6.8-1-13.8,0-21-0.6
		c-6.5-3.4-11.3-8.5-15.5-14.8c-9.3-13.8-19.2-27.2-28.9-40.7c-7.4-10.3-14.8-20.6-22.4-30.7c-5-6.7-7.5-14-7.1-22.3
		c0.2-3.7,0.1-7.3-0.1-11c0-1.2-0.6-2.5-1-4c-1.6,0.1-2.9,0.1-4.1,0.4c-29.3,7.6-58.6,15.1-87.9,22.8c-5.2,1.4-10.3,2.3-15.7,2.1
		c-6.3-0.2-12.7,0-19.2,0c-1.8-1.5-3.5-3.1-5.2-4.6c-12.2-10.8-24.4-21.7-36.6-32.5c-8.2-7.3-16.4-14.6-24.6-22
		c-6.2-5.6-12.5-10.8-19.2-15.8c-6.9-5.1-12.9-11.2-16.6-19.6c-9.7-21.9-19-44-27.5-66.4c-11.2-29.6-21.2-59.6-30.2-89.9
		c-10.1-34.5-18.7-69.4-25.3-104.7c-3.1-16.7-5.6-33.5-8-50.3c-1.3-8.9-1.4-17.9-2.8-26.8c-2.4-15.2-1.1-30.6-3.2-45.8
		c-0.4-2.6-0.2-5.3-0.2-8c-0.1-34.3-0.3-68.7,0-103c0.2-19,1.1-38,2.1-56.9c0.6-11.9,2.1-23.9,3.2-35.8c0.8-9.3,1.4-18.6,2.5-27.8
		c1.3-11.2,2.9-22.4,4.7-33.6c1.9-11.8,4.4-23.5,6.4-35.3c0.4-2.6,0.6-5.4,0.2-7.9c-1.2-6.9-3.5-13.5-6.4-19.9
		c-2.7-5.7-7-9.7-12.6-12.2c-2.7-1.2-5.5-2.3-7.4-3c-4.7-4.7-8.7-8.6-13.1-13c-0.9-9.2-0.5-18.8-0.2-28.3c3.4-4.9,7.8-8.4,12-12.7
		c17.9-5.6,35.9-11.4,54.1-16.8c21-6.3,42.1-12.4,63.2-18.6c36.4-10.6,73-20.6,110-29.1c24-5.5,48.2-10,72.3-14.9
		c15-3,30-6.1,45-8.9c17.3-3.2,34.7-6.1,52.1-9.1c13.8-2.4,27.6-4.4,41.3-7.1c17.1-3.4,34.3-3.8,51.5-2.9c4.4,2.5,7.1,6.4,10.5,9.5
		c6,5.4,11.1,11.4,15.1,18.4c3,5.1,6.4,10,10.9,14.1c3.7-1.1,6-3.5,8.4-5.7c17.1-14.9,35.1-28.6,54.7-40.2c2.9-1.7,5.8-3.3,8.7-4.9
		c6.7-3.9,14-5.9,21.7-7.1c14.5-2.2,28.8-4.9,43.3-7.3c14.1-2.3,28.3-4.4,42.4-6.6c12.2-1.9,24.3-3.7,36.5-5.5
		c5.6-0.8,11.2-1.5,16.8-2.1c14.9-1.6,29.8-3.2,44.7-4.7c11.9-1.2,23.8-2.3,35.8-3.4c1.3-0.1,2.7-0.1,4-0.2
		c12.6-0.8,25.3-1.4,37.9-2.6c18.2-1.7,36.5-2.9,54.8-4c12.6-0.7,25.2-2.1,37.8-3.2c0.7-0.1,1.3-0.1,2-0.1
		c15.3-0.8,30.6-1.6,45.9-2.6c14.6-1,29.2-2.2,43.8-3.3c0.7-0.1,1.3-0.1,2-0.1c16.3-0.9,32.6-1.6,48.9-2.6c15.6-1,31.2-2.2,46.8-3.3
		c0.7,0,1.3-0.1,2-0.1c16.3-0.8,32.6-1.6,48.9-2.4c15.6-0.8,31.3-1.1,46.9-2.6c11.7-1.2,23.3-1,34.9-1c0.7,0,1.3,0.2,2.2,0.4
		c8.9,5.6,16.2,13.4,24.3,20.4c14.9,12.8,29.7,25.8,44.5,38.7c6.5,5.7,13.1,11.3,19.5,17.1c3.4,3.1,6.5,6.6,10,10.2
		c0.8,9.6,0.4,19.2,0.2,28.4c-2.4,4.3-6,6.9-9.1,9.9c-2.7,2.7-6.1,3.7-9.9,4.2c-15.5,2.3-30.9,4.8-46.3,7.4
		c-16.1,2.7-32.1,5.5-48.1,8.5c-46.8,8.7-93.2,19.2-138.8,32.8c-24.9,7.4-49.6,15.6-73,27.1c-8.7,4.2-17,9.1-25.5,13.8
		c-3.2,1.8-6.2,3.9-8.4,6.7c-1.5,7.6-1.8,19.6-0.6,30.5c5.2,4.8,11.5,8.4,18,11.8c14.8,7.8,30.5,13.3,46.7,17.5
		c5.5,1.4,9.8,3.8,13.5,7.8c3.2,3.4,6.1,6.7,8.3,11c2.7,5.3,7,9.7,10.6,14.5c12.9,17,25.7,34,38.6,51c2,2.7,4.2,5,7,7
		c4.8,3.5,8.9,8,12,12.4c1.8,7.5-0.1,14.6,1.4,21c3.6,3.5,7.6,3.5,11.6,3.8c10.3,0.6,20.6,1.3,31,2c2,1.7,4.1,3.3,6.5,5.3
		c2.5,0.4,5.5,0.9,8.5,1.4c10.7,11.7,24.4,15.6,39.7,15.4c13.7-0.2,27.3-0.4,41-0.6c3.3,0,6.6,0.2,9.9,0.3c3.7,3.9,7.2,7.5,11,11.5
		c0.5,2.3,1.1,5.2,1.9,8.4c7.6,0.7,14.8,1.4,22.1,2c8.6,0.7,17.3-0.1,25.9,1.8c1.9,0.4,4,0.2,6-0.1c5.6-0.8,11.2-1.9,16.8-2.6
		c8.6-1.1,17.3-0.3,26.1-0.4c5.2,5.3,11.1,9.7,14.6,16.4c1.1,2.1,2.5,4,3.9,5.8c6,7.6,12.1,15.1,18.1,22.6c0.8,1,1.9,1.8,3.2,2.8
		c2.2-0.5,4.5-0.9,6.7-1.5c30.4-8.7,60.1-19.6,89.1-32.4c5.9-2.6,11.8-4.3,18.4-3.8c3.7,0.3,7.3,0.2,11,0.2c3.5,0.1,6.5,1.3,8.9,3.9
		c4.1,4.3,8.9,8,11.6,13.6c0.7,1.4,2.1,2.5,3.2,3.8c4.7-0.9,8-4.1,12.1-5.2c4.1-1.1,8.5-1.3,13.5-1.9c3.4-3.2,7.3-6.8,11.2-10.5
		c9.1,0,18.1,0,27.9,0c1.9,1,4.6,2.4,7,3.6c1.3-0.1,2.3-0.1,3.2-0.3c18.1-5.1,34.8-13.3,50.8-23c22.9-13.8,44.4-29.4,65.6-45.6
		c4.8-3.6,9.5-7.3,14.4-11c9.3-0.7,18.6-0.5,28.2,0.1c2.7,2.4,5.5,4.7,8.1,7.2c2.4,2.3,4.6,4.8,5.5,8.2c0.8,3.3,2.8,6,5.1,8.5
		c4.9,5.4,9.8,10.9,14.8,16.3c0.6,0.7,1.7,1,2.9,1.8c6-2.7,11.5-6.4,16.5-10.8c16-13.9,33.8-24.9,52.5-34.5
		c10.4-5.3,20.9-10.3,31.3-15.5c4.3-2.1,8.6-3.2,13.4-3.1c6.6,0.2,13.3,0.1,20.1,0.1c4.7,4.5,9.3,8.8,13.6,12.8
		c3.4,0.5,5.6-1.3,7.7-2.7c11-7.5,22.1-14.9,33-22.6c20.9-14.9,41.3-30.5,61.3-46.5c0.5-0.4,1.1-0.7,2.7-1.6c3.7-0.1,8.3-0.1,13-0.2
		c4.7,0,9.3,0,14.4,0c3.3,2.7,6.8,5.2,9.9,8.2c11.6,11.5,24.7,21.3,37.2,31.8c13,10.9,26.2,21.6,39.4,32.3
		c4.8,3.9,8.1,8.8,11.1,15.1c-0.1,10,1.2,20.9-1.2,32.2c4-1.4,6.7-4.5,11-6.7c6.2-0.1,13.1-0.4,20.1-0.3c5.1,0.1,9.6,2.1,13.3,5.9
		c5.2,5.3,5.4,5.2,7.5,13.1c1.6,0.4,3.5,1.1,5.4,1.1c5.7,0.2,11.3,0.2,17,0c9.2-0.3,17.8,1.9,26,5.9c3,1.4,5.6,3.7,9.1,3.8
		L2781,455.4z M2379.3,447.7c0,0-0.2-0.2-0.2-0.2c-0.5,1.6-0.9,3.2-1.5,4.7c-4,9.5-7.2,19.3-9.1,29.5c-2.8,15-6.1,30-9.1,45
		c-2.7,13.7-5.5,27.4-8,41.1c-2.7,14.4-5.3,28.8-7.5,43.2c-2.5,16.1-4.6,32.2-6.8,48.4c-1.2,8.6-2.2,17.1-3.2,25.7
		c-0.5,4.2-1.1,8.5-0.2,12.8c3.2,0.8,5.5-0.5,8-1.4c14.7-5.3,29.8-9.4,45-13.2c9.6-2.4,19.1-2.2,28.3-1.8c4.4,2.4,7,5.7,9.4,9.4
		c6.6,10.4,13.4,20.7,22.3,29.4c1.4,1.4,2.5,3.1,3.8,4.6c4,4.4,7.7,9.1,12.8,12.8c9.8-3.4,19.2-7.7,28.6-11.9
		c19.7-8.9,39.3-18.1,58.9-27.2c0.9-0.4,1.5-1.2,2.2-1.9c0.2-0.2,0.2-0.6,0.4-1.4c-0.9-2.9-3.5-5.1-5.4-7.8
		c-5-7.2-9.1-14.7-11.1-23.3c-1.9-8.2-2.1-16.4,0.3-24.6c2.2-7.4,5.9-14.1,10.1-20.5c9.5-14.5,19.9-28.4,31.1-41.6
		c5.4-6.3,10.4-13,16.1-19.1c9.5-10.2,17.8-21.6,29.9-30.4c11.4-3.2,23.4-5.1,34.6,2.7c5.7,5.9,8.3,12.8,8.2,20.9
		c-0.1,2.9,0.8,5.9,1.5,8.8c1.4,5.8,3,11.5,4.6,17.7c0.9,0.3,2,0.7,2.9,1c4.4-6.1,8.3-11.9,12.6-17.4c7.8-9.8,17-17.7,29-22.1
		c5.2-1.9,10.3-2.4,15.7-1.2c6.8,1.5,13.6,2.9,20.5,4.3c8.1,1.6,16.2,2.8,24.7,1.2c5.9-1.2,11.7-2.5,16.7-5.2c3-3.9,2.5-8,1.5-11.8
		c-0.9-3.3-1.1-6.5-1.4-9.8c-0.2-2.3-0.7-4.6-1.5-6.8c-1.7-4.3-3.7-8.5-5.7-13.1c0.2-1,0.6-2.6,1-4.6c-1.6-1.5-3-3.4-4.9-4.6
		c-3.9-2.5-8.1-4.7-13-4.4c-2.1,0.1-3.9-0.7-4.6-2.9c0.6-0.8,1.3-1.5,2.2-2.6c-0.8-0.9-1.6-2.1-2.6-2.8c-9.9-6.1-20.7-9.1-32.3-8.9
		c-10.8,0.2-21,3.2-30.6,8.1c-10.4,5.3-20.9,10.4-31.3,15.6c-0.9,0.4-1.9,0.5-3.1,0.9c-1.6-0.9-3.3-1.8-4.3-2.4
		c-2.6-4.6,0.6-8.4,0.1-12.8c-4.5-0.8-8.7-0.8-12.7,1.3c-5,2.7-10,5.3-15,7.9c-8,4.1-15.9,8.4-24,12.4c-6.3,3.1-13.1,4.8-20.1,5.6
		c-4.9,0.6-9.9,1.4-14.8,1.8c-14.6,1.4-28.7,5.5-42.9,9c-2.9,0.7-5.6,2-8.5,3.1c-1.5,3.2-3.1,6.2-4.3,9.2c-7,17.7-14.7,35-23.8,51.7
		c-8.9,16.1-18.7,31.5-30.6,45.5c-5.6,6.6-11.9,12.7-19.3,17.3c-4.8,3-9.8,5.8-15.9,3.4c-1.7-0.6-3.8-0.1-6-0.1
		c-3.7-4.9-4.9-10.7-5.3-16.7c-1.2-17.4,0.5-34.6,5.3-51.4c5.3-18.9,12-37.4,20.3-55.2c11.7-25.1,25.6-49,40.7-72.1
		c22.6-34.6,46.3-68.4,70.9-101.6c1.6-2.1,3.2-4.3,4.4-6.6c1.1-2.1,1.4-4.5-1.4-6.1c-5,0.2-8.4,3.7-12,6.4
		c-12.3,9.2-24.2,18.8-36.5,27.9c-21.9,16.3-43.9,32.5-67.7,46c-11.7,6.6-24,11.5-37.8,11c-4.4-0.2-8.6,0.5-12.5,2.6
		c-0.7,0.4-1.6,0.3-3.6,0.6c4.9-5.6,8.9-10.5,13.3-15c4.6-4.7,9.7-9,14.5-13.5c-0.3-1.6-0.6-2.9-0.9-4.3c-1.6-0.2-3-0.8-4.1-0.5
		c-2.9,0.7-5.8,1.6-8.4,2.8c-12.3,6-24.6,11.9-36.6,18.3c-15.3,8.2-29.9,17.3-43.2,28.6c-13.1,11.1-27.7,19.5-44.8,23.2
		c-1.9,0.4-3.6,1.5-5.4,2.2c-1.4,6.3-0.6,12.3,0.6,18.1c2.5,12.1,3.9,24.4,4.6,36.6c1,17.6,1.5,35.2-1.2,52.8
		c-1.9,12.2-3.9,24.3-6.6,36.3c-3.1,13.4-7.6,26.2-14.3,38.2c-2.5,4.4-5.5,8.4-9.5,11.4c-3.6,2.8-7.8,4.3-12.1,1.9
		c-2.8-1.5-5.6-1.3-8.7-1.5c-4.6-7.2-6.9-14.9-6.9-23.5c-0.1-16,1.5-31.9,3.8-47.7c3.1-21.5,8.3-42.4,16.1-62.6
		c7.1-18.4,15.7-36,27.7-51.8c0.8-1,1.6-2.2,2-3.4c0.6-1.9,0.9-3.9-1.7-5.7c-1.5,0.1-3.5,0-5.4,0.5c-18.3,5.1-36.5,10.4-54.8,15.5
		c-5.2,1.4-8.8,4.5-11,9.3c-3.5,7.9-7.5,15.6-10.4,23.8c-10.9,30.2-17.5,61.4-22.5,93c-1.9,11.8-3.8,23.6-5.3,35.5
		c-1.3,10.2-2.2,20.5-2.7,30.8c-0.4,8.3-0.3,16.7,0.1,25c0.5,12,2.8,23.8,6.7,35.2c0.5,1.5,1.5,2.8,1.8,3.6c1.7,0.6,2.5,1,3.2,1.2
		c2.8,5.7,5.3,11.1,8,16.5c4,7.8,9.2,14.7,16,20.2c1.4,1.2,3.5,1.6,5.2,2.4c1.9-1.4,3.6-2.5,5.1-3.8c15.4-13.3,31.8-25.4,48.2-37.3
		c18.7-13.6,39.1-24.1,60.2-33.3c2.7-1.2,5.4-2.4,8-3.6c0.7-1.5,1.4-2.7,1.8-3.9c8.1-24.1,12.5-48.9,14-74.3c0.1-2.3-0.1-4.7,0.3-7
		c2.6-12.8,1.7-25.9,3.2-38.8c1.8-15.9,3.4-31.7,6.2-47.4c5.2-28.8,15.7-55.6,30.2-81C2376.3,450.2,2377.1,448.3,2379.3,447.7z
		 M1393.2,631.6l-0.2-0.2c-0.8,1.8-1.5,3.6-2.3,5.4c-1.2,2.7-3,5.4-3.4,8.2c-1.7,11.9-3,23.8-4.2,35.7c-0.7,7.3-1.1,14.6-1.5,21.9
		c-0.2,3.3-0.1,6.7-0.1,10c0,1.7,0.4,3.3,2.9,4.3c3-0.8,6.6-1.7,10-2.8c8.6-2.7,17.1-5.4,25.7-8.1c21.2-6.7,42.5-13.4,63.7-20.2
		c1.8-0.6,3.5-1.7,5-2.4c0.7-2.8,1.3-5.1,1.8-7.3c0.3-1.3,0.4-2.6,0.6-3.9c3.1-20.8,11.1-39.6,23.7-56.5c0.6-0.8,1.5-1.3,2.3-1.9
		c0,0-0.2-0.2-0.2-0.2c-0.7,2.2-1.2,4.4-2.1,6.5c-3.1,7.1-5,14.4-5.8,22.1c-0.3,2.6-0.2,5.4-0.7,8c-1.7,7.9-1.2,15.9-1.4,23.9
		c0,0.9,0.6,1.8,0.8,2.6c0.6,0.2,0.9,0.5,1.1,0.5c41.6-12.9,83.2-25.5,125.9-34.1c1.9-0.4,3.8-1.1,5.7-1.7c1.3-1.7,2.5-3.3,3.6-4.9
		c15.2-21.6,32.4-41.4,53.1-57.9c3-2.4,4.9-5.4,5.4-8.4c-0.5-5.7-1.1-10.6-1.5-15.6c-0.5-7.1,2.1-13.2,7-18.1
		c5.9-6,12.7-10.6,21.1-12.5l-0.1-0.1c-1.2,2-2.4,3.9-3.5,5.9c-1.4,2.6-3,5.2-3.9,8c-3.7,10.7-7.1,21.5-10.9,32.2
		c-1.5,4.4-3.3,8.8-5.8,12.7c-5.7,9-11.7,17.8-18,26.4c-5.6,7.8-11.7,15.3-17.6,23c-0.7,0.9-2,1.9-0.8,3.5c0.8,0.1,1.8,0.6,2.7,0.4
		c10.5-1.7,21.2-2.3,30.5-8.3c1.9-1.3,4.2-2,6.3-2.9c6-2.5,12.2-3.3,18.6-2.8c7.6,0.5,11.2,2.9,15.7,10c-1.1,2.4-2.8,4.7-3.1,7.2
		c-0.7,6-2,11.8-3.7,17.6c-1.2,4-1,7.7,0.3,11.7c4,12.7,7.7,25.5,11.7,38.2c1,3.3,1.4,6.5,0.8,10c-3.6,5.7-7.3,11.7-10.8,17.4
		c-2.7,1.4-5,2.7-7.4,4c-10.8,5.9-21.7,11.7-32.5,17.7c-4.1,2.3-8.1,4.7-10,9.6c0.2,1.8,0.7,3.8,0.7,5.7c0.1,5.5,1.9,10.3,5,14.9
		c1.6,2.5,2.7,5.4,3.8,8.1c3.5,8.6,7,17.3,10.6,26.2c2.2,0.7,4.3,1.6,6.5,2c12.1,2.1,24.4,3.4,36.6,4.1c4,0.2,7.9,0.8,11.9,1.3
		c7.3,0.8,14.5,2.2,21.8,2.4c11.6,0.4,23.3,0.1,35,0c2.3,0,4.5-0.6,6.9-0.9c0.7-2.5,1.2-4.7,1.9-7.1c-9-3.7-17.8-6.8-26.1-10.9
		c-8.6-4.3-16.7-9.6-25.3-14.6c-1.2,0.1-2.8,0.2-4.3,0.3c-1.2-1.7-2.3-2.9-3.2-4.3c-4.4-7.4-5.5-15.6-6-23.9
		c-0.5-8.7,1.1-17.3,2.7-25.8c3.9-20.6,9.9-40.7,17.3-60.3c5.8-15.3,13-29.8,22.7-43.2c7.9-10.8,17.9-17.7,30.9-20.2
		c8.6-1.7,17.3-2,25.8-0.4c8.3,1.6,15.7,5.4,21.7,11.6c1.7,1.7,3,4.2,6.4,4.6c0-3.1,0.2-5.7,0.1-8.3c-0.3-8.4,0.2-16.6,2.2-24.8
		c3.3-13.8,8.6-26.7,18.4-37.1c8.2-8.7,17-16.9,25.5-25.3c1.7-1.6,3.4-3.2,5.9-3.4c-6.2,6.6-11.1,14.1-14.1,22.7
		c-10.4,30.2-20,60.7-28.6,91.5c-4.3,15.4-8.3,30.9-12.9,46.2c-12.1,40.6-27.9,79.8-46.9,117.7c-1.5,3-3.3,5.8-4.8,8.8
		c-1.3,2.7-2.2,5.6-0.1,8.2c5.7,2.9,11.7,2.8,17.6,3.8c13,2.1,25.9,1.4,38.9,0.7c11.6-0.7,23.2-2.1,34.7-3.2
		c8.9-0.9,17.9-1.7,26.8-2.6c4-0.4,7.9-1,11.8-1.7c0.9-0.1,1.7-0.9,2.3-1.2c0.4-2.1-0.9-3.3-1.7-4.7c-3.5-5.7-6.2-11.8-8.1-18.2
		c-4.2-14.1-6.2-28.6-6.8-43.3c-0.8-17.7,0.7-35.2,3.6-52.7c0.8-4.9,1.5-9.9,2.3-14.8c2.2-12.5,4.7-24.9,8.8-36.8
		c6.4-18.6,14.6-36.4,24.4-53.5c14.7-25.4,30.8-49.9,49.1-72.8c4.6-5.7,9.2-11.4,13.7-17.2c1.7-2.1,3.1-4.3,2-7.2
		c-1.4-1.3-3.1-1.7-4.7-1.1c-2.8,1-5.5,2.3-8.2,3.6c-10.7,5.3-21.3,10.9-32.2,16c-7.8,3.6-15.9,6.8-24.1,9.6
		c-8.9,3-17.9,4.8-27.4,2.5c-5.2-1.2-10.6-1.2-15.9-0.2c1.5-3.6,4.8-5.4,7.7-7.6c13.2-10.1,26.6-20.1,40.6-29.1
		c1.9-1.2,3.7-2.7,5.7-4.3c-0.4-1.8-0.8-3.2-1.1-4.5c-5.2-1.4-9,1.1-13,2.6c-13,5.1-25.9,10.5-39,15.5
		c-26.1,10.1-52.8,18.4-80.3,24.1c-10.4,2.2-20.9,4.1-31.5,4.7c-13.6,0.8-27.3,0.7-40.8-1.7c-11.8-2.1-23.4-5.1-34.4-10.1
		c-5.5-2.5-11-4.7-17.2-4.4c-0.7,0-1.3-0.9-2.6-1.8c6.2-2.6,11.6-5,17.1-7.2c20-8.2,40.6-15,61.1-21.9c3.8-1.3,7.5-2.7,11.2-4.2
		c0.5-0.2,0.9-0.9,1.4-1.5c-0.7-1.4-1.4-2.8-1.9-3.9c-3.8-1.3-7.2-1-10.4-0.2c-7.2,1.7-14.5,1.7-21.9,1.9c-11.3,0.2-22.6-1-33.9-1.9
		c-17.6-1.4-35.3-1.5-52.9-2.5c-6.7-0.4-12.5,1.4-17.8,5.2c-6.2,4.5-12.4,9-18.5,13.6c-15.8,11.9-29.7,25.8-42,41.2
		c-19.6,24.7-34.9,51.9-46,81.4c-3.3,8.9-6,18.1-9.6,28.9c0.3-4.7,0.2-7.7,0.7-10.6c2-11.5,5.6-22.6,9.5-33.6
		c5.1-14.5,12-28.2,18.6-42c11.4-24,29-42.9,49.2-59.7c16.7-13.9,35.4-24.8,55.2-33.9c2.4-1.1,4.7-2.4,6.7-3.4
		c0.7-2.3,2.3-4,0.7-6.6c-3.5-1.2-7.5-0.6-11.4-0.6c-15.3,0.1-30.7,0.3-46,0.1c-10.4-0.1-19.5-4-27.5-10.5c-1.5-1.2-2.9-2.6-3.9-3.5
		c-4.1-0.9-7.3-0.5-10.3,1.5c-1.9,1.3-4,2.5-6.1,3.5c-21.9,10.3-41.4,24.3-59.3,40.3c-29.9,26.5-55.1,56.9-73.1,92.8
		c-0.7,1.4-2,2.5-3,3.8c0,0,0.2,0.2,0.2,0.2c0.3-1.6,0.2-3.4,0.8-4.9c5.4-12.5,10.7-25.1,17.7-36.9c11.8-19.9,25.9-38,42.6-53.9
		c14.3-13.6,30-25.4,47.5-34.6c8.9-4.7,18.2-8.2,27.5-11.7c0.6-0.2,1-0.9,1.4-1.3c0.5-1.9,0.9-3.9-0.9-6.1c-2.4-1.1-5.4-1-8.3-0.8
		c-11,0.5-21.9-1.6-32.9-2.4c-6.9-0.5-13.8-2.2-20.5-4.1c-7-1.9-13.9-4.5-20.1-8.6c-7.1-4.7-14.4-4.6-21.4,0.4
		c-2.4,1.7-4.9,3.4-7.1,5.4c-16.9,15.7-31.6,33.4-44.8,52.2c-1.5,2.2-2.6,4.6-3.9,6.9c-0.8,1.5-0.9,3.6-2.9,4.5
		c-0.7-3.8-1.4-7.4-2-11c-0.2-1-0.1-2,0-3c1.3-12.3,5.8-23.1,14.2-32.3c8.7-9.6,19.3-16.3,31-21.4c15.6-6.7,31.9-11.6,48.6-14.7
		c6.8-1.3,13.6-2.9,20.8-4.5c-0.9-1.9-1.6-3.4-2.4-5.1c-2.5-0.2-4.7-0.7-7-0.7c-5,0-10,0-15,0.3c-11.3,0.5-22.6,0.3-33.9,1.3
		c-8.6,0.8-17.3-0.2-25.9-0.8c-11.6-0.8-23.3-0.4-34.8-2.3c-12.5-2.1-25-3.5-37.5-5.7c-14.1-2.5-28.1-5.4-42.1-8.3
		c-8.1-1.7-15.6-0.8-23.2,2.9c-23.4,11.3-43.3,27.4-62.1,44.8c-8.1,7.5-15.5,15.5-22.8,23.8c-14.4,16.6-28.2,33.7-40.6,51.9
		c-5.8,8.5-11.6,17.1-17,25.9c-8.5,13.9-17,27.9-24.8,42.2c-18.3,34.1-34.8,69-48.6,105.1c-1.9,5-3.7,10-5.4,15
		c-0.7,2.2-1.1,4.5,0.7,7c2.4,1.4,5.3,1.6,8.4,0.9c3.9-0.9,7.8-1.7,11.7-2.5c17.3-3.6,34.6-6.4,52.3-7.4c1.7-0.1,3.3-0.2,5-0.5
		c10.9-2,22-1.7,32.9-0.7c12.9,1.1,25.7,2.7,38.5,5c18,3.2,35.9,6.8,53.8,10.8c8.8,1.9,17.5,4.2,26.2,6.4c1.3,0.3,2.5,0.9,4.2-0.8
		c0.1-1.7,0.2-4,0.2-6.2c0.1-6-0.2-12,0.4-18c0.8-8.4,3-16.5,8.3-23.2C1369.4,651.9,1380.3,640.7,1393.2,631.6z M477,847.4
		c1.2,2.3,2.8,4.5,3.7,6.9c6.2,16.1,11.9,32.5,18.4,48.5c6.7,16.7,14.1,33.1,21.2,49.6c0.8,1.8,1.4,3.8,4.3,4.6
		c11-2.9,22.5-6.2,34.1-9.1c51.3-12.8,102.6-25.4,153.9-38.1c18.1-4.5,36.1-9.1,54.1-13.7c1.9-0.5,3.6-1.4,5.3-2.1
		c0.5-1.6,1-2.9,1.3-4.1c4.9-15.9,9.3-31.9,14.7-47.7c7.3-21.4,15.2-42.6,23.2-63.8c9.2-24.3,19.4-48.2,30.4-71.7
		c12.6-26.8,25.7-53.4,40.3-79.3c9.8-17.4,19.9-34.7,30.9-51.3c12.5-18.9,25.2-37.6,38-56.3c21.3-31,43.5-61.4,68.3-89.8
		c11.8-13.5,23.9-26.8,36.6-39.6c3.7-3.8,8-7,11.8-10.7c15.4-15.2,32.4-28.7,49.6-41.9c19.8-15.3,40.8-28.8,61.6-42.6
		c16-10.6,33.2-18.3,51.4-24c23.5-7.4,47.6-12.6,71.8-17c17-3.1,34.1-5.4,51.2-7.9c6.9-1,13.9-1.6,20.8-2.4
		c7.9-0.8,15.8-1.6,23.9-2.4c0.1-2.6,0.2-4.8,0.3-7.4c-5.1-1.5-10.2-3.1-15.3-4.6c-20.2-6-39.6-13.9-56.8-26.4
		c-2.1-1.6-4.3-3.1-6.2-5c-2.2-2.1-4.9-1.3-7.8-2.1c-7.5-8.8-11.7-19.2-10.6-31c1.2-12.2,6-23,14.9-32c7.3-7.4,15.7-13.4,24.8-18.4
		c16-8.9,32.7-16.6,50-22.7c20.4-7.2,40.9-13.9,61.8-19.6c28.6-7.8,57.4-14.4,86.4-20.5c15.3-3.2,30.7-5.8,46-8.9
		c22.5-4.5,45.2-8,67.8-11.3c8.9-1.3,17.7-2.9,26.8-4.4c-0.2-2-0.4-3.5-0.5-5.3c-3.7-0.9-7.3-1-11-0.9c-12.3,0.3-24.6,0.3-36.9,1.6
		c-12.6,1.3-25.3,1-37.9,2.2c-10.6,1-21.3,0.9-31.9,1.9c-11.9,1.1-23.9,1-35.9,2.1c-9.9,0.9-19.9,1-29.9,1.9
		c-14.9,1.4-29.9,1.7-44.9,2.6c-13.3,0.8-26.6,1.6-39.9,2.4c-0.3,0-0.7,0-1,0.1c-13.9,1.1-27.8,2.3-41.8,3.3
		c-14.3,1-28.6,1.7-42.9,2.6c-0.7,0-1.3,0.1-2,0.2c-12.6,1.1-25.2,2.3-37.8,3.2c-13.3,1-26.6,1.7-39.9,2.6c-0.7,0-1.3,0.1-2,0.1
		c-13.6,1.2-27.2,2.3-40.8,3.6c-8.6,0.8-17.2,1.5-25.8,2.6c-13.9,1.7-27.7,3.6-41.5,5.4c-11.2,1.5-22.4,3-33.6,4.8
		c-15.1,2.3-30.2,4.8-45.3,7.2c-13.5,2.2-26.9,4.5-40.4,6.6c-10.1,1.6-19.2,5.4-27.7,10.8c-9.3,5.9-18.5,11.8-27.5,18.2
		c-19.1,13.5-36.8,28.6-53.7,44.7c-18.1,17.3-35.4,35.3-51.9,54.1c-4.4,5-8.9,10-13,15.2c-15.6,19.5-31.2,39-46.1,59.1
		c-20.6,27.9-38.7,57.4-55.1,88c-14.1,26.4-27.2,53.4-38.9,81.1c-10.3,24.2-19.7,48.8-28.5,73.6c-11.8,32.9-21.8,66.4-30.8,100.2
		c-3.3,12.5-7.5,24.9-7.5,38.1c0,0.6-1,1.1-2,2.2c-0.4-2.1-0.7-3.3-0.8-4.6c-0.9-7.6-1.5-15.2-2.8-22.8c-1.9-10.9-1.3-21.9-3.2-32.7
		c0.3-20.3-1-40.6,1.3-60.9c1.4-12.2,2.6-24.4,4.3-36.6c2.4-16.8,5.9-33.4,9.8-49.9c4.1-17.5,8.7-34.8,13.8-52
		c6.1-20.4,13.2-40.5,20.7-60.4c7-18.4,15.1-36.3,23.3-54.1c7.7-16.6,16.3-32.8,25.9-48.5c17.3-28.2,38.3-53.6,61.6-77
		c12-12,24.5-23.5,37.8-34.1c12.2-9.7,24.6-19.3,37.1-29.2c0.5-1.7,2.5-3.6,0.6-6c-2.8-1.4-5.8-0.9-8.8-0.4
		c-14.4,2.4-28.9,4.8-43.3,7.3c-21,3.6-42,7.1-62.9,10.8c-16,2.9-32,6-48,9.3c-24.5,5-49,9.7-73.3,15.3
		c-51,11.6-101.2,26.1-151.3,40.9c-22.7,6.7-45.2,13.8-67.8,20.7c-2.9,0.9-5.7,1.8-8.5,3c-2.7,1.2-4.1,3.2-3.3,6.9
		c8.6,2.7,17.4,5.6,24.4,12.2c6.9,6.5,12.5,13.8,15.7,22.9c-2.2,5.4-2,11.1-0.8,16.6c1.2,5.6,1.2,11.3,0.8,16.9
		c-0.4,6.3-1.2,12.6-2.2,18.8c-2,11.5-4.5,22.9-6.3,34.3c-2,13.1-3.6,26.4-5.1,39.6c-1,8.9-1.4,17.9-2.4,26.8
		c-2,17.2-2.4,34.5-3.4,51.8c-0.6,10.3-0.3,20.7-0.5,31c-0.1,7.3-0.2,14.6-1,21.9c-0.9,8.9,0.4,17.9,0.7,26.9
		c0.8,23.6-0.2,47.3,2.5,70.9c1.1,9.9,1.4,19.9,2.7,29.8c1.4,11.5,3.6,23,5.2,34.5c2.6,18.5,6.4,36.7,10.4,54.9
		c6.1,28,13.6,55.6,22,82.9c2.2,7,4.2,14,6.5,21c0.7,2.2,1.3,4.5,3.5,5.8l-0.2-0.2c0.3,2.2-0.2,4.7,2.2,6.2l-0.2-0.2
		c0.2,1.5,0.4,3.1,0.5,4.5c1.2,0.4,2,0.7,2.9,1c0.2,0.8,0.5,1.7,0.8,2.6c-1,0.6-2.3,1.2-0.7,2.9c0.2-1.2,0.4-2.2,0.5-3.1
		c2.2,1.6,1.7,4,2.2,6.2c-0.9,0.6-2.2,1.2-0.8,2.9C476.7,849.2,476.8,848.3,477,847.4z M1697.8,648.8c-4.2-2.7-8.4-3.7-13.2-2.8
		c-19.3,3.7-38.5,7.2-57.7,11.5c-27.9,6.2-55.6,13.6-82.9,22.2c-31.7,10-63.3,20.6-95,30.9c-16.8,5.4-33.6,11-50.5,16
		c-25.2,7.5-50.4,14.9-75.8,21.9c-13.1,3.6-26.4,6.9-40.1,7.3c-1.7,0-3.3,0.3-4.9,0.7c-8.6,1.8-17.4,1.8-25.8,0.5
		c-9.2-1.4-18.5-1.1-27.7-3c-11.3-2.4-23-2.9-34.5-4.8c-11.5-1.9-22.9-3.8-34.6-3.8c-2,0-3.9-0.5-5.9-0.8c-2.6-0.3-5.3-0.8-7.9-0.8
		c-18.3,0.3-36.6-1-54.9,1.3c-10.2,1.3-20.5,1-30.8,2c-8.3,0.8-16.6,1.7-24.7,2.9c-17.1,2.5-34.1,5.5-50.9,9.7
		c-30.9,7.7-60.6,18.2-88.4,33.7c-2.6,1.5-5.2,3.1-7.8,4.5c-5.6,3.2-9.8,7.7-13.4,13.1c-16.5,24.6-32.5,49.5-47.7,75
		c-10.4,17.5-19.8,35.5-29.1,53.5c-12.5,24.3-24.1,49-36,73.6c-3.4,7.2-6.4,14.6-9.5,21.6c0.8,2.2,1.4,4,2.1,6.1
		c1.7-0.8,2.9-1.3,4-2c13.5-7.3,26.8-14.8,40.4-21.8c9.5-4.9,19.3-9.1,28.9-13.7c2.4-1.1,4.8-2.4,7.2-3.4
		c16.6-6.8,33.2-13.8,49.9-20.2c10.2-3.9,20.8-7,31.2-10.4c15.2-4.9,30.9-8,46.5-11.2c13-2.7,26-5.3,39.2-6.9
		c6.9-0.8,13.7-2.4,20.6-3.4c2.5-0.4,5.2-1.1,8.2,0.9c-1.6,1.1-2.9,2.1-4.3,2.9c-4.1,2.3-7.2,5.6-10,9.5c-8.3,11.6-17,23-25.8,34.3
		c-13.1,16.8-26.5,33.3-39.6,50.1c-13.9,17.8-28.2,35.3-42.9,52.6c-4.7,5.6-9.4,11.2-14.2,16.8c-6,7.1-12,14.3-18.1,21.3
		c-7.3,8.2-14.9,16.1-22,24.5c-12.6,14.7-25.9,28.6-39.2,42.6c-9.4,9.9-19.3,19.3-29.5,28.3c-13,11.5-26.6,22.1-40.8,32.1
		c-19.1,13.5-39.7,24.5-61,34c-14.9,6.6-30.5,11.6-46.7,14.3c-3,0.5-5.9,1.5-8.8,1.6c-14.6,0.6-29.1,0.8-43.5-3.4
		c-10.2-3-16.9-8.8-20.7-18.4c-4.7-12.1-5.1-24.8-3.6-37.4c0.6-5.3,1.2-10.5,1.5-15.9c0.1-2,0.4-4,0.7-5.9c0.4-3.3,0.9-6.6,1.2-9.9
		c0.3-2.6,0.5-5.3,0.7-7.9c0.4-3.6,0.9-7.2,1.2-10.9c0.2-2.7-0.2-5.4,0.3-8c2.4-10.5,1.2-21.2,1.7-31.8c0.4-9.1-1.3-17.9-2.7-26.7
		c-2.6-16.8-8-32.9-14.9-48.5c-1.1-2.4-2.4-4.6-3.6-6.8c-4.1-0.7-7.7-1.4-11.3-1.9c-1.3-0.2-2.7-0.1-4,0.3c-4.6,1.4-9.3,1.2-13.9,1
		c-14.7-0.6-29.2,2.3-43.8,2.6c-0.7,0-1.3,0.2-2,0.3c-7.6,1.1-15.1,2.2-22.7,3.3c-11.5,1.6-23.1,2.7-34.6,4.6
		c-16.7,2.8-33.3,6.2-50,9.3c-30.8,5.7-60.9,14-90.8,23.4c-23.5,7.4-46.7,15.6-69.8,24.3c-24.4,9.1-48.3,19.2-71.4,31.2
		c-11.8,6.2-23.6,12.4-35.1,19.1c-13.5,7.9-26.8,16.2-39.9,24.7c-7.8,5-15.3,10.6-22.4,15.6c-1.1,2.7-2.4,4.7-1.7,7.3
		c1-0.2,2-0.3,2.8-0.7c9.6-3.9,19.4-6.9,29.4-9.6c10.9-3,22-5,33.2-6.6c7.8-1.2,15.7-2.8,23.8-2.6c9.3,0.2,18.7,0,28-0.2
		c17-0.3,33.9,1.1,50.6,4.3c9.5,1.8,18.8,3.9,27.9,7.4c10.9,4.1,19.9,10.8,27,19.9c3.9,5,7.3,10.5,5.7,17.1
		c-6.9,11-12,22.6-17.6,33.9c1.1,2.1,1.9,3.8,2.7,5.3c4.7,0.9,9,1.6,13.2,2.5c18,3.7,32.7,12.9,44,27.3c3.3,4.2,5.7,8.9,5.7,14.6
		c0,11.3-0.6,22.6,1.9,33.8c-0.6,7.4,1.4,14.6,2.6,21.7c4.5,24.9,11.2,49.2,19,73.2c1.6,5.1,3.2,10.2,5.6,14.9
		c7.8,15.6,18.2,29.1,31.6,40.6c13.8,11.8,28.9,21.4,45,29.3c16.4,8.1,33.6,14.3,51.3,19.2c24.7,6.8,49.7,11.7,75.4,13.3
		c1.3,0.1,2.7,0,4,0.4c4.2,1.5,8.6,1.3,12.9,1.3c17,0,34,0,51,0c2.3,0,4.8,0.3,7-0.3c9.1-2.4,18.5-1.1,27.7-3.3
		c6.7-1.6,13.9-1.4,20.7-2.7c18.3-3.5,36.4-7.4,54.1-13.6c22.1-7.8,43-17.8,63.1-29.8c7.4-4.4,14.8-9,21.9-14
		c16.3-11.6,32.5-23.2,47.4-36.6c9.6-8.7,19.6-17,29.1-25.9c9.5-8.9,18.4-18.4,27.6-27.6c1.4-1.4,2.8-2.8,4.1-4.3
		c7.7-8.7,15.3-17.5,23-26.3c5.7-6.5,11.5-12.9,16.9-19.7c9-11.1,17.6-22.5,26.4-33.8c14.9-19.2,28.6-39.3,42.3-59.3
		c9.4-13.7,18.2-27.9,26.8-42.1c9.4-15.7,18.4-31.7,27.4-47.6c5.1-9,9.7-18.2,14.7-27.2c8.9-16,17.9-31.9,26.9-47.9
		c5.9-10.4,11.8-20.9,17.8-31.3c8.5-14.7,17.1-29.3,25.7-44c9.6-16.4,19.2-32.7,29-49c12.5-20.8,25.2-41.6,37.8-62.3
		c4.3-7.1,8.8-14,13.1-20.8c4.8-0.8,9-1.7,13.3-2.1c4.3-0.4,8.7-0.3,13-0.3c19-0.1,38-0.2,57-0.2c6,0,11.9-0.5,17.8-1.6
		c15.6-2.9,30.1-8.4,43.7-16.4c10-5.9,19.9-12.1,30-17.9c2.8-1.7,6-3,9.1-3.9c19.2-5.6,38.6-10.1,58-14.6
		c29.2-6.7,58.6-11.8,88.1-17.2c9.5-1.7,19.1-2.9,28.6-4.3c1.6-0.3,3.3-0.6,3.8-2.6c-0.5-0.4-1-0.9-1.5-1.1
		c-8.5-3.1-17.4-4.5-26.4-4.2c-2.7,0.1-5.4,0.3-8-0.1c-4.1-0.6-7.6-2.7-9.9-6.2c-1.6-2.4-1.4-5.1-0.1-7.7c3.5-4.6,8.1-7.8,13.3-10.2
		c4.3-1.9,8.4-4,12.7-5.7c21.1-8.4,42.8-14.5,64.8-20c5.7-1.4,11.7-2.2,17.1-5.2c-7.9-2.1-15.6-3.5-23.6-1.1c-2.2,0.6-4.6,0.2-7,0.3
		c-2,0.1-4.1-0.1-6,0.4c-5.2,1.6-10.6,1.3-15.9,1.4c-8.7,0.1-17.3,0-26,0.2c-8,0.1-15.8-1.7-23.7-2.8c-3-0.4-5.9-1-8.8-1.5
		c-9.2-1.5-13.9-7.1-14.1-16.4c-0.1-4.8,1-9.2,3.1-13.5c3.7-7.6,8.8-14.1,14.5-20.2c10.8-11.5,22.9-21.4,35.7-30.4
		c24-16.8,49-32.2,75.1-45.7c10.1-5.2,20.1-10.5,30.1-15.7C1694.9,650.8,1696.3,649.8,1697.8,648.8z M2662.6,1002.3
		c-2.8-0.9-5.3-1.9-7.9-2.4c-16.6-3.1-33-7.7-50-8.6c-10-3.1-20.6-0.6-30.6-3.6c-19.3,0.1-38.6-1.4-57.8,1.8
		c-16.6,2.7-32.2,8-46.8,16.4c-8.4,4.9-16,10.8-23.5,16.9c-6.5,5.3-12.3,11.1-17.6,17.6c-5.2,6.4-10.3,12.7-14.4,21
		c-1-2.5-1.9-3.9-2.3-5.5c-5.7-21.2-11.3-42.4-17-63.6c-0.4-1.5-1.3-2.9-2.1-4.9c-1.6,0.7-2.9,1-3.7,1.8c-0.9,0.9-1.3,2.2-1.8,3.5
		c-3.2,8-6.5,16-9.5,24.1c-3.9,10.7-9.7,20.5-15.3,30.3c-6.8,12-15.3,22.6-25.6,31.7c-5.8,5.1-12.4,9.5-20.2,10.3
		c-7.2,0.7-14.7,0.8-21.9-0.2c-11.5-1.6-22.8-4.4-34.2-6.4c-11.3-2-22.2-0.1-31.4,6.8c-13.7,10.4-21.4,24.5-21.8,41.9
		c-0.3,10.7,0,21.3-0.1,32c0,2.7,0.2,5.4-0.4,8c-1.8,9.2-4.8,18-9,26.3c-1.5,3-2.8,7-7.3,7.9c-0.8-0.1-1.8-0.2-2.7-0.5
		c-23.4-7.6-47-14.6-70.9-20.4c-22-5.3-44-10.4-66.7-11.1c-1.3,0-2.7-0.2-4-0.5c-5.3-1.3-10.5-1.3-15.8-0.1c-1.9,0.4-4,0.6-5.9,0.6
		c-13.4,0-26.5,2.5-39.5,4.9c-17,3.1-33.7,7.5-50.4,12.3c-7.2,2.1-13.9,4.6-19.4,9.7c-0.6,0.5-1.7,0.5-3.5,0.9
		c1.9-2.9,3.1-5.3,4.7-7.2c10-12.5,20.6-24.3,33.2-34.4c7.9-6.3,16.2-11.7,25.3-15.9c8.5-3.9,17.4-6.6,27-6.3
		c15.3,0.4,30.5-0.4,45.8,1.7c11.5,1.6,23.1,2.9,34.5,4.9c17.3,3,34.4,7.2,51.6,10.9c2.3,0.5,4.5,1.4,6.8-0.4c0.7-2,1.6-4.1,2.2-6.4
		c4.4-17.1,9.1-34,15.4-50.5c3-7.8,6.5-15.3,10.8-22.5c8.3-14.1,18.1-27.1,28-40.1c4.6-6.1,9.3-12.1,14-18.2c-1.6-2.5-3.7-3.5-6.1-3
		c-2.9,0.6-5.8,1.6-8.6,2.6c-15,5.4-29.9,11.2-45.1,16.3c-18.6,6.2-36.9,13.5-56.5,16.2c-8.5,1.2-17,2.9-25.8,2.8
		c-11.3-0.1-22.7,0-34-0.1c-2.7,0-5.4,0.1-8-0.5c-7.5-1.9-15-1.7-22.9,0c-2.4-9.4-0.8-18.1,3.9-26c3.4-5.7,7.5-11.1,12.7-15.4
		c9-7.5,18.4-14.2,29-19.4c8.9-4.4,18.1-6.3,27.9-6.6c13-0.4,25.8,1.6,38.6,3.5c17.8,2.7,35.3,6.4,52.5,11.7
		c1.8,0.6,3.9,0.5,5.9,0.7c1.4-1.3,2.6-2.4,3.8-3.6c10.3-10.4,20.6-20.8,31.8-30.4c20.4-17.3,41.9-32.8,67-42.9
		c11.8-4.7,23.8-8.4,36.2-11.2c7.7-1.7,15.5-3.2,23.9-4.9c-2.7-2.4-4.9-4.4-7.3-6.5c-4.8-1.7-10-3.2-14.9-5.3
		c-7.2-3.1-13.4-7.5-15.2-15.4c0.4-4,2-6.8,4.7-9.1c4.3-3.6,8.6-7.3,13.2-10.7c27.4-20.8,56.4-39.1,87-54.7
		c7.4-3.8,14.8-7.6,22.2-11.4c0.4-0.2,0.7-0.9,1.3-1.6c-2.7-0.8-5.2-1.5-7.4-2.1c-1.1,0.2-1.8,0.3-2.4,0.5
		c-18.2,5.5-36.4,10.7-55.1,14.2c-6.8,1.3-13.8,2.6-20.7,2.9c-9,0.5-18,0.1-27,0c-1.9,0-3.9-0.6-5.8-1c-0.8-1.3-1.7-2.4-2-3.6
		c-1.2-5-1-10,1.5-14.6c1.7-3.2,3.6-6.4,5.7-9.3c11.1-15.1,24.8-27.9,38.9-40.1c15.8-13.7,32.5-26.5,49.6-38.8
		c0.7-0.5,1.1-1.5,1.6-2.1c-0.5-3.1-2.6-4.1-5.1-4.1c-1.6,0-3.3,0.5-4.9,0.9c-23.4,5.4-46.3,12.5-68.5,21.5
		c-23.2,9.4-45.6,20.4-66.2,34.9c-25.1,17.6-48.7,37-72.1,56.7c-8.1,6.9-16.4,13.6-24.7,20.2c-3.1,2.5-6.6,4.5-10.1,6.5
		c-21.3,11.8-44.2,18.3-68.6,19.3c-2,0.1-4.1-0.1-6,0.5c-4.3,1.3-8.6,1.1-12.9,1.2c-6,0.2-12,0.1-18,0.7c-9.3,0.9-18.4,2.3-27.7,3.3
		c-9.3,1-18.5,1.6-27.8,2.4c-1.3,0.1-2.6,0.3-4,0.5c-9.6,1.1-19.1,2.2-28.7,3.3c-4.6,0.5-9.2,1.3-13.8,1.7
		c-4.6,0.4-9.3,0.5-13.1,0.8c-4.6,2.5-6.6,5.6-7.9,9.7c-3.3,10.5-6.8,20.9-10.5,31.2c-5.9,16.3-12,32.5-18.1,48.6
		c-5.4,14.3-10.8,28.6-16.6,42.8c-7.1,17.6-14.6,35-21.9,52.5c-7.4,17.8-15,35.6-23.6,52.9c-5.2,10.4-10.4,20.9-15.6,31.3
		c-1.6,3.2-3.7,5.5-8.2,5.9c-5.3-1.6-11.3-3.7-17.4-5c-5.1-1.1-9.4-3.3-13.3-6.5c-7-5.6-11.5-12.9-12.2-22c-0.5-5.7,0-11.2,1.6-16.8
		c2.2-7.8,5.6-15,9.9-21.7c2-3,4.4-5.9,7.1-8.3c10.6-9.2,21.9-17.4,34-24.5c8.9-5.2,17.8-10.4,26.6-15.7c-0.4-3.2-3.1-4.2-4.5-5.9
		c-15.9-4.8-27-15-33.7-29.5c-4.9-10.5-6.1-18.5,5.5-30.9c5.3-5.6,11.3-10.3,17.7-14.6c10.8-7.3,22.1-13.6,33.6-19.7
		c11.5-6.1,23.3-11.5,35.4-16.4c1.5-0.6,2.7-1.6,4.3-2.6c-3.5-2.9-6.8-3.5-10.7-2.6c-12.9,3.1-25.9,5.9-38.9,8.9
		c-8.4,2-16.8,4.1-25.2,6.1c-25.6,5.8-51.2,11.5-76.9,17.3c-7.8,1.7-15.5,3.5-23.2,5.2c-2.2-1.5-4.1-2.9-6.1-4.1
		c-7.3-4.6-14.5-9.4-22-13.8c-10.7-6.3-22.6-9.7-34.5-13.2c-14.4-4.2-29.1-6.8-44.2-7.1c-17.3-0.3-34.6-0.9-51.8,1.6
		c-11.8,1.7-23.7,3.2-35.4,5.7c-23.2,5.1-45.5,12.6-67.6,21.2c-16.2,6.3-31.7,14-46.8,22.5c-16.3,9.1-31.9,19.2-46.6,30.9
		c-8.3,6.6-16.9,13-24.8,20.1c-10.6,9.6-21,19.4-30.5,30.1c-6.9,7.7-14.2,15.1-20.5,23.2c-9.8,12.6-19.5,25.3-28.1,38.8
		c-14.1,22-25.8,45.1-33.6,70.1c-5.2,16.9-9,34-8.5,51.9c0.2,7,0.1,14,0,21c-0.3,12.7,1.5,25.1,3.9,37.6c4.2,21.4,11.6,41.6,21.4,61
		c4.4,8.6,9.5,16.9,17,23.2c6.1,5.1,12.5,9.9,19.5,13.8c19.5,10.7,40.5,16.9,62.1,20.9c6.8,1.3,13.7,3.1,20.8,2.5c1-0.1,2,0,3,0.3
		c5.5,1.8,11.2,1.5,16.8,1.5c13.6-0.2,27.3,1.1,40.8-1.8c11.7,0.1,23.2-2.5,34.5-4.8c20.2-4.1,39.8-10.6,58.6-19.4
		c22.4-10.5,43.5-23,63.7-37.2c16.6-11.7,32.1-24.9,46.8-38.9c8.5-8,16.8-16.2,24-25.4c5.8-7.3,12-14.2,17.7-21.6
		c9.4-12.1,18.1-24.7,25.3-38.3c2.5-4.7,5.9-7.9,10.8-9.8c4-1.6,8-3.3,12-5.1c19.8-8.8,39.5-17.6,59.3-26.4
		c6.4-2.8,12.8-5.7,19.2-8.5c1.2-0.5,2.5-0.9,4,0.7c-1.8,1.9-3.7,3.7-5.3,5.7c-2.1,2.5-4.4,5-6,7.9c-4.6,8.1-8.9,16.4-13.4,24.5
		c-7.5,13.7-15,27.5-22.8,41.1c-8.9,15.6-18,31.1-27.1,46.6c-7.8,13.2-15.8,26.2-23.4,39.5c-2.8,4.8-6.6,9.2-8.2,14.9
		c0.9,1.5,1.7,2.9,2.6,4.4c1.6-0.4,2.9-0.6,4.1-1c27.4-9.3,55.2-17.2,83.3-24.3c16.1-4.1,32.2-8,48.6-11c12.4-2.3,24.7-5,37.1-7.4
		c7.5-1.5,15-2.9,22.5-4.2c6.5-1.1,13.2-1.7,19.7-2.8c8.8-1.4,17.6-3.2,26.6-3.5c1.3,0,2.7,0.1,4-0.3c6.2-2,12.5-1.5,18.8-1.8
		c2-0.1,4.1,0.1,6-0.4c5.2-1.6,10.6-1.4,15.9-1.4c15,0,30,0,45,0c2.7,0,5.5-0.3,8,0.4c8.4,2.2,17.1,1.7,25.7,3.3
		c12.7,2.3,25.6,4.1,38.2,7.1c26.2,6.3,52.2,13.3,77.4,22.8c21.8,8.3,43.5,16.7,64.5,26.8c1.2,0.5,2.4,0.9,3.8,1.5
		c0.5-1.2,1.2-2.1,1.2-3c0.1-4.7,1.1-9.2,1.9-13.8c4.9-27.1,16.6-50.4,37.1-69c6.6-6,14-10.1,22.4-12.7c5.9-1.8,11.8-1.8,17.7-0.1
		c5.8,1.7,11.3,3.8,16.7,6.6c5.9,3.1,11.8,6.3,18,8.6c7.9,3,15.6,2.2,22.5-4c0.1-4,0.2-8,0.2-12c0-6.3-0.2-12.7-0.2-19
		c0-3.7,0.6-7.2,1.4-10.8c2.3-11.1,7.5-20.5,14.2-29.4c6.3-8.2,14.3-13.8,23.9-17.3c10.7-4,21.8-6,33.2-5.8
		c3.9,0.1,7.9,0.6,12.3-0.4c-0.4-2-0.6-3.6-1.1-5.1c-1.5-4.2-1.6-8.5-1.7-12.8c-0.4-10.9,2.3-21.1,5.8-31.2
		c4-11.8,10.3-22.4,17.3-32.5c9.6-13.9,21.5-25.3,36.2-33.9c8.9-5.2,18.1-9.9,27.7-13.9c21.3-8.7,43.1-15.8,65.7-20.5
		c14-2.9,27.9-5.8,42.2-8.7C2667.4,1006.4,2665,1004.3,2662.6,1002.3z M1103.9,699.1c0.3-1.4,0.6-2.1,0.5-2.6
		c-3.1-11.6-5.5-23.3-5.6-35.4c0-0.7-0.1-1.3-0.3-2c-1.6-6.2-1.6-12.7-0.7-18.9c1.3-9.6,1.5-19.2,3.1-28.7
		c3.3-19.5,9.3-38.1,17.5-56c12.4-27.3,30.2-50.9,50.9-72.4c4.6-4.8,9.9-8.9,14.7-13.5c11.6-11.1,24.4-20.7,37.4-29.9
		c30.9-21.8,63.9-39.7,98.7-54.3c4.3-1.8,8.6-3.6,12.9-5.5c0.6-0.2,1-0.9,1.4-1.3c0.4-2.2,1.5-4.5-1.7-7
		c-10.3-1.3-21.5-2.8-32.8-4.1c-8.9-1-17.9-1.8-26.8-2.5c-12.6-1.1-25.2-2.3-37.8-3.1c-17.3-1.1-34.6,0.9-51.9,2c-0.3,0-0.7,0-1,0.1
		c-12.2,1.9-24.4,3.6-36.5,5.6c-7.9,1.3-15.7,3-23.5,4.5c-5.9,1.1-10.1,4-12.9,9.8c-5.4,11.4-11.5,22.5-17.4,33.7
		c-5.7,10.9-11.6,21.8-17.3,32.7c-15.1,29-31,57.4-47.3,85.8c-6,10.4-12.2,20.6-18.7,30.7c-21.4,33.4-45.3,65-70.3,95.8
		c-17.2,21.2-34.9,42-52.5,62.9c-2.2,2.6-4.3,5.1-4.7,8.5c0.7,2.4,2.3,3.2,4.6,3.3c0.8-0.4,1.8-0.7,2.6-1.2
		c12.4-7.9,25.2-14.8,38.7-20.7c35.6-15.5,72.5-23.9,111.4-23.7c12.4,0.1,24.6,1.1,36.8,2.5C1085,695.1,1094.1,697.3,1103.9,699.1z
		 M2156.8,570.7c0.8-1.6,1.8-3.3,2.6-5.1c6-13.7,12-27.4,18-41.1c3.9-8.8,7.5-17.8,11.9-26.3c6-11.5,13.3-22.3,21.2-32.6
		c10.5-13.8,21.8-26.9,33.7-39.5c2.5-2.6,5.4-4.9,6.9-8.7c-0.9-1.1-1.7-2.1-2.3-2.9c-6.3,1-10.6,4.9-15.2,8.2
		c-13.7,10-27.1,20.4-40.9,30.2c-17.4,12.4-35.2,24-54.6,33.1c-9.1,4.2-18.2,8.2-28.1,10.2c-9.9,2-19.7,3.2-29.2-2
		c-3.1-1.7-6.4-1.5-10,0.9c-4.6,7.1-8.7,15-13,22.9c-17.2,32.4-32.1,65.8-43.9,100.6c-6,17.6-10.9,35.6-15.5,53.7
		c-5.8,22.6-10.5,45.4-14.8,68.2c-3.1,16.7-5.5,33.5-8,50.2c-0.9,5.9-1.6,11.9-2.2,17.8c-0.4,4.3-0.4,8.6-0.5,13c0,0.9,0.6,1.8,1,3
		c2.1,0.8,4.2,1.7,6.6,2.6c8.4-1,17-2,25.6-3.1c11.5-1.5,23.1-2.8,34.6-4.7c21.3-3.5,42.7-6.6,64.3-7.9c6.3-0.4,12.5-1.4,18.9-2.1
		c0-2.4,0-4.6,0-7c-6.7-2.5-13.6-5-20.4-7.5c-6.9-2.5-13.2-6.3-19.6-9.8c-6.3-3.5-10.8-9.7-17.6-12.2c-0.8,0.7-1.4,1.1-1.9,1.5
		c-0.5-0.4-1.1-0.7-1.5-1.2c-13-17.1-16.9-36.6-14.9-57.5c0.4-4.2,2-8.4,3.4-12.5c1.6-4.8,4.2-9.2,8.4-12.2
		c8.8-6.3,18.6-10.3,29.5-11c10.4-0.7,19.8,2.3,28.5,7.5c5.1,3.1,9.7,7,14.5,10.5c0.7,0.5,1.6,0.5,2.4,0.8c1.5-2.4,0.9-4.8,0.9-7.1
		c0-6.3-0.2-12.7-0.1-19c0.1-4,0.1-8,0.8-11.9c2.9-16.6,8.9-32,17.4-46.5c3-5.2,6.2-10.3,9.2-15.4c0.8-1.4,1.7-2.8,0.9-4.6
		c-1.9-1.3-3.9-1-5.6,0.1c-1.9,1.2-3.6,2.9-5.4,4.4c-5.8,4.5-11.3,9.3-17.4,13.4c-11.7,7.7-24.7,9.4-38.3,6.3
		c-1.6-0.4-3.2-0.9-4.9-1c-1.6,0-3.1,0.5-4.9,0.8c-1.8-2.7-3.4-5.3-3.4-8.4c0-4-0.2-8.1,0.7-11.9c2.7-10.6,8.2-19.5,17.3-26
		c10.8-7.8,22.6-12.6,36.1-12.4c6.4,0.1,11.7,2.4,15.1,8.1C2153.7,568.9,2154.3,570.5,2156.8,570.7z"/>
	<path class="st0" d="M2781.3,455.7c-0.3-0.6-0.5-1.3-0.9-1.7c-5.3-4.5-10.6-9-16.4-13.9c-12.8-2.8-24-9.5-33.7-19
		c-2.4-2.3-4.7-4.7-7.1-7.1c-9.3-9.1-13.8-20.2-13.9-33.1c0-9.7,0-19.3,0-29c0.1-12.9,3.5-25,9.4-36.4c4.4-8.6,9.9-16.6,16.8-23.4
		c5.9-5.9,11.7-11.9,17.7-17.6c14.6-13.9,32.1-22.4,51.9-26c4.2-0.8,8.6-0.9,12.9-0.9c13.3-0.1,26.6-0.1,40,0
		c19.3,0.2,37.4,5.6,54.9,13.2c5.6,2.4,10.5,5.8,14.7,10.1c5.4,5.4,10.9,10.8,16.2,16.3c8.4,8.7,14.6,19,20.4,29.5
		c4.7,8.4,9.3,16.9,13.6,25.6c3.7,7.4,9.1,13.1,16,17.4c2.5,1.6,5.1,3.1,7.7,4.6c3,1.8,5,4.3,5.8,7.8c2.2,9.8,0.9,19.2-3.7,28.1
		c-0.5,0.9-1,1.8-1.8,2.4c-6.8,6-14.1,11.2-23.9,10.8c-3.7-0.1-7.3,0-11,0c-7.3,0-14.7-0.1-22,0c-12.2,0.2-23.7-2.7-34.6-8.2
		c-5.3-2.7-10.7-5.3-16.1-8c-4.8-2.4-9.5-2.4-14.4-0.4c-7.6,3.1-14,7.5-18.7,14.3c-6.7,9.6-12.6,19.7-17,30.5
		c-1.9,4.8-4.7,8.7-8.4,12.2c-2.4,2.3-4.5,4.9-6.1,6.7c-5.9,0.9-26.1,1.7-29.9,0.8c-3.6-0.8-7-2.2-10.5-3.2
		c-2.9-0.8-5.3-2.9-8.5-2.5C2781,455.4,2781.3,455.7,2781.3,455.7z M2771,401.7c2.3,3.2,4.8,6.3,6.8,9.7c3.4,5.9,8.1,10.4,13.5,14.4
		c5.7,4.2,12.4,6.3,18.9,9c1.4,0.6,3.1,0.3,4.8,0.4c1.2-2.1,2.3-3.8,3-5.6c2.7-7.6,6.8-14.4,10.9-21.3c5.6-9.5,12.4-18,20.2-25.9
		c15.8-16.1,43.6-19.5,62-9.9c5,2.6,10.1,5,15.2,7.7c9.6,5,20,6.8,30.8,7.5c7.8,0.5,15.2-1.2,22.7-2.7c1.2-0.2,2.4-1,2.1-3
		c-5.4-3.4-11.1-6.9-16.7-10.4c-4.7-2.9-8.2-6.7-10.6-11.6c-2.8-5.7-5.9-11.2-8.6-16.9c-1.1-2.4-2.2-4.9-2.4-7.5
		c-0.8-7.5-4.1-14-7.8-20.3c-5.6-9.6-12.6-18-21-25.2c-2.8-2.4-5.8-4.5-8.9-6.3c-9.1-5.1-18.8-8.4-28.8-11.2
		c-17.2-5-34.7-6.3-52.4-4.7c-8.6,0.8-17.1,2.6-25.2,5.7c-18.7,7.1-34.7,18-47.3,33.8c-9.7,12.2-17,25.5-20,40.8
		c-1.9,9.5-3.3,19-0.6,28.6c0.6,2.2,1.8,4.2,2.5,5.8c1.8,0.8,3,1.4,4.3,2c1.4,2.6,2.7,5.3,4.3,7.8c1.4,2.2,2.9,4.5,4.9,6.3
		c7.3,6.4,15.8,10.6,25,14.2c-0.4-4.2-0.7-7.7-1.1-11.2L2771,401.7z"/>
	<path class="st0" d="M2919.3,434.1c4.9-4.6,9.2-8.7,14.2-13.5c8.1-1,17-0.3,26.2-0.3c4.2,4,8.3,7.8,11.5,10.8c3,4.3,3,8.7,6.4,11.7
		c4.4-1.9,7.9-4.8,11.4-7.8c8.1-7,16.1-14,24.4-20.6c7.3-5.8,15.2-10.6,23.9-14.3c10-4.2,20.5-5.7,31.1-6.3c7.3-0.5,14.6,0,22-0.1
		c8.5-0.1,15.6,2.8,21.4,9c1.6,1.7,3.4,3.1,5.6,5.1c6.7,0,13.7,0.3,20.6,0c10-0.5,18.2,3.2,25.4,9.7c5.2,4.7,10,9.8,14.9,14.8
		c2.2,2.2,3.6,4.8,4.4,7.7c1.5,5.5,3.1,10.9,2.9,16.6c-0.1,1.7-0.2,3.4,0.2,5c2.3,9.1,0.1,17.8-2.6,26.4c-1.4,4.6-3.7,8.5-7.1,11.9
		c-8.8,8.7-17.3,17.6-26.4,25.9c-11.4,10.4-24.5,18.3-39.3,23.1c-7.6,2.4-14.7,6.4-22.7,7.4c-7.6,1-15.1,2.4-22.7,2.7
		c-14.3,0.5-28.6,0.2-42.9,0.2c-12.4,0-24.4-2.4-36.3-5.9c-14.6-4.4-27.4-11.8-38-23c-5-5.3-10.2-10.5-14.9-16.1
		c-8.8-10.6-13.3-23-13.6-36.7C2918.8,463.2,2918.6,448.9,2919.3,434.1z M3100.7,425.2c-2.2-4-5.4-6.7-9.6-8.2
		c-7.7-2.6-15.3-4.4-23.4-1.9c-4.1,1.3-8.4,2.2-12.5,3.3c-9.8,2.7-18.7,6.8-26.1,14c-0.9,0.9-2.1,1.7-3.1,2.5
		c-9.9,7.4-19.7,14.8-28.7,23.2c-3.1,2.9-6.5,5.8-10.2,8c-7.3,4.4-14.9,7.5-23.5,2.7c-1.7-1-4.3-0.6-6.8-0.8
		c-1.1-1.9-2.2-3.9-3.4-5.9c-2.8-5-4.8-10.2-4.2-16.1c0.1-0.6-0.4-1.2-0.9-2.4c-1-0.5-2.4-1.1-3.5-1.6c-3.7,1.5-5.4,4-5.5,7.2
		c-0.1,6-0.4,12,0.4,17.9c0.6,4.5,1.1,9.3,4.2,13.4c1.3,0.7,2.7,1.6,4.2,2.4c0.5,1.2,1,2.4,1.5,3.6c7,16.9,19.8,28.1,35.8,36
		c13,6.4,27,9.7,41.2,10.9c18.6,1.5,37.2,0.5,55.4-4.3c26.5-7,48.6-21.2,67.3-40.9c5.1-5.3,9-11.5,10.8-18.8
		c0.8-3.4,1.2-6.6-0.1-9.8c-1.8-4.3-3.8-8.4-5.9-13c0.1-1.1,0.3-2.7,0.4-4c-6.5-8.9-15.1-13.2-25.6-14.3c-2.2,0.3-4.6,0.6-6.8,1.1
		c-1.9,0.4-3.9,1-5.7,1.7c-2.1,0.9-4.3,1.8-6.2,3.2c-1.7,1.2-3.1,3-4.9,4.8c-2.1-3.5-4-6.6-5.7-9.4
		C3100.1,427.8,3100.4,426.6,3100.7,425.2z"/>
	<path class="st0" d="M3249.1,371.2c-5.9,0-12.2,0-18.8,0c-9.8-4.9-17.6-13.9-29.7-16.4c-3,1.3-6.5,2.5-9.7,4.1
		c-13.7,6.4-28.2,7.3-42.9,6.4c-1.3-0.1-2.6-0.4-3.9-0.7c-6.8-1.4-13.6-2.8-22.3-4.7c-1-1.2-3.2-3.7-5.3-6
		c-3.5-7.1-2.9-14.5-2.6-21.8c0.1-3.1,1.4-5.8,3.5-8c1.4-1.4,2.7-2.9,4.1-4.3c4.6-4.5,7.8-9.9,9.6-16.1c0.3-1,0.6-1.9,0.9-2.9
		c4.4-14.3,11.4-26.9,23.1-36.6c2-1.7,3.8-3.7,5.7-5.6c8.6-8.7,19-13.2,31.3-13.1c9,0,18-0.1,27,0.1c12.9,0.2,24,4.9,33.1,14
		c3.1,3.1,6.1,6.1,9.2,9.2c7.2,7.1,11.2,15.9,11.4,25.8c0.4,15.3,0.1,30.6,0.1,45.9c0,4.5-1.6,8.3-4,12.1
		C3264,360.4,3257.6,366.6,3249.1,371.2z M3247.2,311.4c0.1,0.3,0.1,0.6,0.3,0.8c0.1,0.1,0.4,0.2,0.5,0.3c-0.3-0.3-0.7-0.6-1-0.9
		c0.5-4.6,1-9.2,1.5-14.2c-0.6-2.1-1.5-4.6-2.1-7.2c-1.4-6.2-5.4-10.6-10.3-14.2c-1.6-1.2-3.3-2.3-5-3.2
		c-18.5-9.9-36.7-10.2-54.6,1.7c-9,5.9-14.6,14.4-18.7,24c-2.4,5.5-4.4,11.1-6.2,16.8c-2.5,7.8-7.1,13.4-14.7,16.5
		c-2.2,0.9-4.2,2-4.8,4.7c0.8,2.2,2.8,2.8,4.8,3c12.4,1,24.6,0.6,36.2-4.6c3.6-1.6,7.3-3.2,11-4.7c2.1-0.9,4.3-1.9,6.5-2.3
		c14.8-2.3,28.4,0.5,40.6,9.4c2.7,1.9,5,4.4,7.5,6.5c0.9,0.8,2.2,1.1,3.1,1.5c0.8-0.4,1.2-0.5,1.3-0.8c5-9.2,6.1-18.6,2.2-28.5
		c-0.8-2.1-1.4-4.4-2.1-6.5l-0.2,0.2C3244.4,310.2,3245.8,310.8,3247.2,311.4z"/>
	<path class="st0" d="M2687,157.7c4.7,0.2,6.3,2.9,7.6,5.6c1.7,3.6,3.1,7.4,4.3,11.2c6,19.4,5.9,38.6-2.8,57.4
		c-3.8,8.2-7.9,16.1-14.5,22.5c-1.4,1.4-2.4,3.2-3.6,4.7c-3.4,4.1-6.9,8.1-11.7,10.8c-2.3,1.3-4.4,3-6.6,4.5
		c-6.7,4.5-13.9,7.7-21.9,9.3c-8.1,1.7-16.2,4.1-24.6,3.4c-14-1.2-26.7-5.5-36.7-15.9c-4.2-4.4-7.1-9.6-7.5-15.9
		c-0.3-4.9-1.6-9.7-0.7-14.9c1.5-9.1,4.8-17.3,10.7-24.4c0.1-7.2,2.8-13.7,6.1-19.9c5.3-9.6,12.9-15.9,24.6-17c3.2,2,6.6,4,9.9,6.2
		c10.4,6.9,21.6,7.4,33.5,5.3c10-1.8,16.8-7.1,21.9-15.7C2678.5,169,2682.2,163.1,2687,157.7z M2686.2,186.1c-2.3,2-4.4,3.6-6.2,5.5
		c-8,7.9-17.1,13.4-28.5,15c-11.5,1.6-22.4,0.9-32.5-5.7c-4.7-3-9.6-5.9-15.1-6.4c-5.3,1.5-8.2,5-9.9,9.6c-1.4,3.7-2.8,7.5-2.7,11.6
		c0,2.3-0.2,4.6-0.4,6.9c-1,1.1-1.7,2.3-2.7,3.1c-4.2,3.6-6.4,8.4-7.8,13.6c-2.9,10.7,1.1,19.5,11.4,23.3c6.8,2.5,13.5,5.6,21.1,5.5
		c1.6,0,3.2,0.6,4.5,0.8c2-0.4,3.6-0.7,5.2-1.1c11.7-2.8,22.9-6.9,32.7-14.3c9.4-7.1,17.1-15.5,21.5-26.8
		c4.8-12.1,7.8-24.6,10.4-37.3C2687.3,188.7,2686.6,187.7,2686.2,186.1z"/>
	<path class="st0" d="M475,841.4c-0.2,0.9-0.3,1.9-0.5,3.1c-1.6-1.7-0.3-2.3,0.7-2.9C475.2,841.6,475,841.4,475,841.4z"/>
	<path class="st0" d="M477,847.4c-0.2,0.9-0.3,1.8-0.5,3c-1.5-1.7-0.2-2.2,0.8-2.9C477.2,847.6,477,847.4,477,847.4z"/>
	<path class="st0" d="M3247,311.6c0.3,0.3,0.7,0.6,1,0.9c-0.2-0.1-0.5-0.1-0.5-0.3c-0.1-0.2-0.2-0.5-0.3-0.8
		C3247.2,311.4,3247,311.6,3247,311.6z"/>
	<path class="st0" d="M1495.9,817.5c9.6-0.8,22.3,5.3,26.2,18.9c3.2,10.9,0.9,21.8-8.3,28.8c-13.8,10.5-37.4,8.8-43.7-12.7
		C1463.9,831.6,1480.7,816.7,1495.9,817.5z"/>
	<path class="st0" d="M1378.9,833.6c-10.8,1.2-22.2-10.9-22.2-22c0-11.4,11.5-22.3,22-22.4c11.4-0.1,22.9,11,22.7,22.8
		C1401.3,822.4,1390.6,834.9,1378.9,833.6z"/>
	<path class="st0" d="M1319.1,901.6c0,9.5-8.3,17.9-17.8,18c-9.5,0.1-18-8.1-18.2-17.6c-0.2-10,8.4-18.6,18.3-18.4
		C1310.9,883.7,1319.1,892.1,1319.1,901.6z"/>
	<path class="st0" d="M1532.4,726.7c-1.3,11.5-6.9,17-17.4,18.1c-9.7-0.9-15.9-6.1-17.2-17.8c0.4-1.4,0.9-4,1.8-6.4
		c1.3-3.5,3.7-6.1,7.1-8c5.7-3.2,11.2-3.3,16.9,0c3.3,1.9,5.8,4.4,7.1,8C1531.5,722.7,1532,725,1532.4,726.7z"/>
	<path class="st0" d="M1506.4,766c-1.1,9.7-6.4,15.5-17.5,16.7c-9.4-0.7-15.6-6-17-17.3c0.7-9.5,5.9-15.8,17.4-17.2
		C1498.7,749.1,1505.1,754.2,1506.4,766z"/>
	<path class="st0" d="M1327,838.5c-2.6,0.9-5.1,1.8-7.7,2.7c-7.6-1.8-11.9-6.8-13.8-13.7c0-3.5,1.4-6.2,3-8.7
		c3.6-5.8,12-7.3,18.6-3.3c5.5,3.4,7.7,10.9,4.5,16.5C1330.2,834.2,1328.5,836.3,1327,838.5z"/>
	<path class="st0" d="M1349.7,883.1c1.1-3.9,3.2-7.6,7.4-9.7c2.4-1.2,4.9-2.1,7.7-1.6c6.4,1.1,11.6,6.7,12.1,12.9
		c0.2,2.8-0.8,5.3-2.2,7.6c-2.4,4-6.1,6-10.4,6.9C1355.4,898.2,1350,893.9,1349.7,883.1z"/>
	<path class="st0" d="M1430.6,866.9c-9.3-3.9-9.3-3.9-12.7-13.1c0.7-4.2,1.6-8.4,5.5-11.1c2.5-1.7,5.2-3,8.3-2.8
		c6.5,0.3,12.6,6.2,13.1,12.8c0.3,3.1-1,5.8-2.6,8.4C1439.5,865,1435.4,866.1,1430.6,866.9z"/>
	<path class="st0" d="M1411.5,756c0.7-2.5,1.1-4.5,1.9-6.3c4-9,16-10.4,22.2-2.7c4.6,5.8,4.1,12.9-1.3,18c-5,4.8-15.7,3.6-19.5-2.2
		C1413.5,760.9,1412.8,758.7,1411.5,756z"/>
	<path class="st0" d="M1267.4,845.3c0,6.8-3.6,10.4-10.3,10.4c-6.6,0-10.3-3.8-10.2-10.6c0.1-6.1,3.7-9.8,9.9-9.9
		C1263.6,835.1,1267.4,838.7,1267.4,845.3z"/>
	<path class="st0" d="M471.2,833.7c0.1-0.3,0.3-0.6,0.4-0.9c-0.2,0.2-0.4,0.5-0.6,0.7C471,833.5,471.2,833.7,471.2,833.7z"/>
	<path class="st0" d="M469.2,827.7c0.1-0.3,0.2-0.6,0.4-0.9c-0.2,0.2-0.4,0.5-0.6,0.7C469,827.5,469.2,827.7,469.2,827.7z"/>
	<path class="st0" d="M1750.8,986.2c-7.3,4.5-13.7,8.6-20.3,12.3c-24.3,13.9-49.1,26.8-75.2,37.2c-1.5,0.6-3.1,1.2-4.6,2
		c-5.8,3-9,7.9-9.6,14.3c-0.5,5.3-0.7,10.6,0.4,16.1c3.8,5.6,10,6.6,15.8,7.1c10.3,0.8,20.6,1.1,30.9-0.8c6.2-1.1,12.5-1.7,18.7-2.6
		c6.9-1,13.7-2.2,20.7-3.3c0.7,1.7-0.9,2.1-1.8,2.7c-9.2,6-18.5,11.8-27.8,17.8c-6.4,4.2-12.7,8.5-19.1,12.7
		c-7.6,4.9-14.3,10.8-20.5,17.4c-13.1,14.1-26.7,27.9-39.5,42.4c-8.8,10-18.3,19.3-27.3,29.2c-6.7,7.4-12.9,15.2-19.5,22.7
		c-2.6,3-5.4,6-8.4,8.5c-15.4,12.8-31.8,24.1-50,32.6c-12.7,5.9-25.8,10.9-39.3,14.4c-11.8,3-23.9,5.7-36.4,4.9
		c-18.2-1.2-35.1-5.7-49.9-17.5c-8-6.4-13.8-14.1-19.3-22.5c-5.4-8.2-9-17-11-26.5c-0.3-1.6-0.7-3.2-0.8-4.9
		c-1.4-19,2.3-37,10.6-54.2c6.8-14.2,15.5-27,25.1-39.5c8.8-11.4,19-21.5,29.7-30.9c13.2-11.6,27.7-21.7,43-30.6
		c17.4-10.1,35.8-17.4,55.3-22.3c14.2-3.6,28.6-6.3,43.3-5.4c14.4,0.9,28.5-1.2,42.5-4.2c17.2-3.7,34.4-7.4,51.7-10.9
		c17.9-3.7,35.8-7.2,53.7-10.9c10.7-2.2,21.4-4.6,32.1-7C1746,985.8,1747.8,985.5,1750.8,986.2z"/>
	<path class="st0" d="M2415,1137.2c-16-1.5-25.9-11.2-27.5-27.4c1.3-16.7,12-27.3,28.1-27.7c14.2-0.3,28,14.2,27,27.8
		C2441.3,1126.8,2430.5,1135.8,2415,1137.2z"/>
	<path class="st0" d="M2303.1,1178.3c-4.9-6.5-6.6-12.6-6.3-19.6c0.4-8.6,11.1-19.3,19.7-19.5c7.8-0.2,14.1,2,19.5,7.8
		c9.4,10.1,7.3,30.2-10.6,36.1c-5,1.6-10.5,1.5-15.5-1.1C2307.5,1180.8,2305.2,1179.5,2303.1,1178.3z"/>
	<path class="st0" d="M1661.2,942.4c-0.3,12.3-10,21.5-22.7,21.3c-12.8-0.2-22-10.2-21.5-23.5c0.4-12.1,10.5-21.1,23.2-20.8
		C1652.5,919.7,1661.5,929.6,1661.2,942.4z"/>
	<path class="st0" d="M2186.1,921.7c-12.7,0.3-22.7-8.7-23-20.9c-0.4-13.3,8.8-22.7,21.6-23.4c12.4-0.7,23,11.8,22.7,21.5
		C2207,911.5,2198.3,921.4,2186.1,921.7z"/>
	<path class="st0" d="M2168.9,947.4c-1.1,11-7,17.7-17.8,17.7c-10.8,0-17.1-6.7-17.7-17.7c-0.5-8.6,8.2-17.1,17.1-17.6
		C2159,929.3,2168.8,938.7,2168.9,947.4z"/>
	<path class="st0" d="M1724.4,963c-1.2,11.5-7.4,16.9-18.8,18c-4.1-0.9-9.2-2.5-12.3-7.3c-2.2-3.4-4-6.9-3.7-11.1
		c0.8-8.2,8-15.5,16.2-16.5c4.2-0.5,7.8,1.4,11.2,3.5C1720.9,951.9,1722,953.9,1724.4,963z"/>
	<path class="st0" d="M2250.9,822.3c11,1.3,16.4,7.1,17.5,17.2c-1,10.2-6.5,16.2-17.8,17.3c-9.6-0.9-15.6-6.5-16.7-17.3
		C2234.8,829.4,2240.4,823.4,2250.9,822.3z"/>
	<path class="st0" d="M2377.3,1175c-4.7-0.9-8.8-2.1-11.4-6.1c-1.6-2.6-2.9-5.3-2.5-8.4c0.8-6.7,6.8-12.5,13.4-12.7
		c6.3-0.2,12.6,5.3,13.9,12.1c0.6,3.2-0.6,5.9-2.1,8.5C2386.3,1172.6,2382.2,1173.9,2377.3,1175z"/>
	<path class="st0" d="M2368.7,1100.4c-2.8,11.3-2.9,11.4-13.6,14.4c-4.3-0.7-8.4-1.8-11-5.8c-1.6-2.5-2.9-5.2-2.7-8.3
		c0.5-6.2,5.7-11.7,12.1-12.8c3.2-0.6,5.9,0.6,8.5,2.1C2366,1092.3,2367.9,1096.1,2368.7,1100.4z"/>
	<path class="st0" d="M1724.8,1170.6c-3.2,11.1-3.2,11.1-13.2,14.2c-8.6-0.6-13.1-5.4-14-14.6c0.5-3.3,2.1-6.8,5.4-9.3
		c2.4-1.8,5.1-3.3,8.2-3C1718.6,1158.5,1723.1,1162.8,1724.8,1170.6z"/>
	<path class="st0" d="M2095.5,884.2c1.5-7.1,5.8-12,13.3-12.2c7.5-0.2,11.9,4.6,13.8,11.8c-0.6,8.2-3.9,13.9-13.1,15
		C2098.7,896.3,2098.3,895.9,2095.5,884.2z"/>
	<path class="st0" d="M1738.4,1031.2c-1,8.7-5.5,12.7-13.4,13.5c-7.7-0.7-12.3-5-13.1-13.4c0.7-3.6,1.5-7.5,4.9-10.2
		c2.4-1.8,5.1-3.1,8.2-3.2c3.1-0.1,5.8,1.2,8.2,3C1735.7,1022.6,1736.3,1024,1738.4,1031.2z"/>
	<path class="st0" d="M2243.3,920.8c-8.1-0.8-12.7-5.1-13.5-13.5c0.7-3.7,1.5-7.6,5-10.2c2.4-1.8,5.1-3.1,8.2-3.2
		c3.1-0.1,5.8,1.3,8.2,3c2.5,1.8,3.1,3.1,5.2,10.3C2253.6,917.7,2253.6,917.8,2243.3,920.8z"/>
	<path class="st0" d="M1798.4,1013.6c-3,10.3-5.5,12.5-13.9,12.3c-7.6-0.2-9.9-2.4-12.7-12.5c0.7-3.9,1.6-7.8,5.1-10.4
		c2.5-1.8,5.1-3.1,8.3-3.1c3.1,0,5.8,1.3,8.2,3.2C1795.9,1004.9,1796.4,1006.1,1798.4,1013.6z"/>
	<path class="st0" d="M2261.7,879.8c0.9-4.5,1.8-8.4,5.4-10.9c2.5-1.7,5.2-3.1,8.3-3c3.1,0.1,5.8,1.5,8.2,3.3
		c3.2,2.4,3.9,6.1,4.8,9.6c-2.4,10.2-4.8,12.8-12.1,13.1C2267.7,892.2,2265.2,890.2,2261.7,879.8z"/>
	<path class="st0" d="M2266.3,804.9c-5.3,5.1-10.4,5.9-15.8,4.3c-5.5-1.6-7.7-5.9-8.6-11.5c0.5-3.6,1.3-7.5,4.5-10.3
		c2.3-2,5-3.3,8.1-3.5c3.1-0.3,5.8,1,8.4,2.6c3.7,2.4,4.7,6.2,5.8,10.8C2267.9,799.6,2267,802.4,2266.3,804.9z"/>
	<path class="st0" d="M2453.7,1033.8c0.9-4.5,1.8-8.4,5.3-10.9c2.5-1.7,5.1-3.1,8.2-3c3.1,0.1,5.8,1.4,8.2,3.2c2.4,1.9,3,3,4.9,10.6
		c-0.8,3.5-1.4,7.1-4.6,9.5c-2.5,1.8-5.2,2.7-8.3,2.7c-3.1,0-5.8-0.7-8.5-2.4C2455.5,1041.4,2454.9,1037.7,2453.7,1033.8z"/>
	<path class="st0" d="M2327,1205.2c6.8,0,10.4,3.6,10.4,10.4c0,6.6-3.8,10.3-10.6,10.1c-6.1-0.1-9.7-3.7-9.9-9.9
		C2316.7,1209.1,2320.3,1205.3,2327,1205.2z"/>
	<path class="st0" d="M1734.2,1111.8c-5.6-0.3-9.2-4.2-9.1-9.7c0.1-6.3,5-10.9,10.9-10.3c5.6,0.5,9.3,5.1,9.1,11.1
		C1744.9,1108.5,1740.6,1112.1,1734.2,1111.8z"/>
	<path class="st0" d="M2481.1,1086.6c-0.2,5.8-4.2,9.3-10.5,9.1c-6.1-0.2-9.8-4.2-9.4-10.2c0.3-5.2,5.5-10.1,10.5-9.7
		C2476.7,1076.1,2481.3,1081.3,2481.1,1086.6z"/>
	<path class="st0" d="M2557.1,1010.6c-0.2,5.8-4.2,9.3-10.5,9.1c-6-0.2-9.7-4.2-9.4-10.2c0.3-5.2,5.5-10.1,10.5-9.7
		C2552.7,1000.1,2557.2,1005.3,2557.1,1010.6z"/>
	<path class="st0" d="M2197.1,842.6c-0.1,5.8-4.1,9.4-10.4,9.3c-6.1-0.1-9.6-4.1-9.6-10.1c0-4.6,5.8-10.3,10.5-9.9
		C2192.6,832.3,2197.2,837.3,2197.1,842.6z"/>
	<path class="st0" d="M2303.4,731.7c2.4,1.3,4.7,2.1,6.4,3.5c3.2,2.5,4.3,6.9,2.7,10.8c-1.5,3.7-4.4,5.7-8.4,5.9
		c-5.1,0.3-9-1.9-10.5-5.9c-1.6-4.5-0.1-9.1,4.4-12C2299.4,733.1,2301,732.7,2303.4,731.7z"/>
	<path class="st0" d="M1433,515.4c-1.2,2-2.1,4.2-3.6,5.8c-4.1,4.5-7.1,9.7-9.6,15.1c-6.7,14.5-13.4,29-18.1,44.4
		c-1.8,5.7-3.2,11.5-4.9,17.3c-0.6,1.9-1.4,3.7-2.1,5.4c-10.3,4.7-20.7,8.1-31.2,11.3c-15.9,4.9-32.1,8.9-48.5,11.7
		c-14.8,2.6-29.7,3.7-44.8,2.9c-7.1-0.3-13.9-2-20.1-5.4c-3.3-1.8-6.6-3.1-10.1-2.8c-4.3-5.8-4.3-5.8-6.3-14.9
		c1-5.1,1.8-10.3,4.8-14.9c3.9-6.1,9.2-10.6,15.4-13.9c13.7-7.3,28.4-9.2,43.6-6.8c17.2,2.7,33.3,9.3,49.3,15.9
		c7.1,2.9,14,6.3,20.9,9.5c1.2,0.5,2.4,0.9,3.3,1.2c1.9-0.8,2.1-2.1,1.8-3.4c-4.4-16.4,1.3-30.2,11.7-42.4
		c5.4-6.3,11.3-12.2,18.3-17c7.4-5.1,14.8-10.3,22.2-15.3c2.5-1.7,5-3.4,8.1-3.5L1433,515.4z"/>
	<path class="st0" d="M1446.1,493.9c-3.2,3.3-5.7,5.9-8.8,9.1c-0.1,0.1-1,0.6-2,0.8c-13.4,2.6-26.7,5.4-40.2,7.5
		c-10.8,1.7-21.8,2.7-32.7,3.5c-14.4,1.1-28.6-0.2-41.8-6.4c-1.4,0.3-2.7,0.5-4.4,0.8c-0.7-1-2-1.9-2.1-3.1c-0.4-3.9-0.9-8-0.5-11.9
		c0.4-4.3,1.3-8.6,2.8-12.6c1.9-5,4.9-9.5,9.5-12.5c13.4-8.8,27.9-14.3,44.1-13.2c10.7,0.8,20.9,3.9,30.6,8.5
		c12.7,5.9,24.5,13.4,35.8,21.7C1439.6,488.6,1442.6,491.1,1446.1,493.9z"/>
	<path class="st0" d="M1471.2,589.6c0.3-1.5,0.2-3.2,2-4l-0.2-0.2c-0.2,1.6,0,3.3-2.1,3.9L1471.2,589.6z"/>
	<path class="st0" d="M1471,589.4c-0.1,0.9-0.3,1.9-0.5,3.1c-1.2-1.6,0-2.2,0.7-2.9L1471,589.4z"/>
	<path class="st0" d="M1468,598.1c0.1-0.5,0.1-0.9,0.2-1.4C1468.1,597.2,1468.1,597.7,1468,598.1z"/>
	<path class="st0" d="M1517.2,613.6c0.3-0.3,0.6-0.7,0.6-0.7c-0.1,0-0.5,0.3-0.8,0.5C1517,613.4,1517.2,613.6,1517.2,613.6z"/>
	<path class="st0" d="M1393.2,631.6c0.3-0.3,0.6-0.7,0.9-1c-0.1,0.2-0.1,0.5-0.2,0.6c-0.2,0.1-0.5,0.1-0.8,0.2
		C1393,631.4,1393.2,631.6,1393.2,631.6z"/>
	<path class="st0" d="M1433.2,515.6c0.3-0.3,0.6-0.6,0.8-0.9c-0.1,0.2-0.1,0.4-0.3,0.5c-0.2,0.1-0.5,0.1-0.8,0.2L1433.2,515.6z"/>
	<path class="st0" d="M1729.2,523.6c0.3-0.3,0.7-0.6,1-0.9c-0.1,0.2-0.1,0.5-0.3,0.6c-0.2,0.1-0.6,0.1-0.9,0.2L1729.2,523.6z"/>
	<path class="st0" d="M2379.3,447.7c0.2-0.9,0.4-1.7,0.6-2.9c1,1.5-0.1,2-0.8,2.7C2379,447.5,2379.3,447.7,2379.3,447.7z"/>
	<path class="st0" d="M2761.6,486.6c-0.3,0-0.5,0.1-0.8,0.1c-0.1,0-0.1-0.3-0.2-0.5c0.3-0.1,0.5-0.2,0.8-0.1
		C2761.5,486.1,2761.5,486.4,2761.6,486.6z"/>
	<path class="st0" d="M2789,347.4c-0.6,1.5-0.9,3.2-1.7,4.5c-7.5,11.4-12.4,23.8-15.3,37.1c-0.9,4.3-1,8.4-1,12.7
		c0,0,0.2-0.2,0.2-0.2c-0.6-0.7-1.6-1.5-1.7-2.2c-0.2-4.3-0.8-8.7,0-12.8c2.7-13,7.4-25.2,15.8-35.8c1-1.2,2.5-2.1,3.7-3.1
		C2789.2,347.6,2789,347.4,2789,347.4z"/>
	<path class="st0" d="M2791,345.4c-0.7,0.7-1.3,1.3-2,2c0,0,0.2,0.2,0.2,0.2c0.7-0.7,1.3-1.3,2-2
		C2791.2,345.6,2791,345.4,2791,345.4z"/>
	<path class="st0" d="M2795,341.5c-0.6,0.6-1.3,1.3-1.9,1.9c0,0,0.2,0.2,0.2,0.2c0.6-0.6,1.3-1.3,1.9-1.9
		C2795.2,341.7,2795,341.5,2795,341.5z"/>
	<path class="st0" d="M2795.2,341.7c0.1-0.3,0.3-0.6,0.4-0.8c-0.2,0.2-0.4,0.4-0.7,0.6C2795,341.5,2795.2,341.7,2795.2,341.7z"/>
	<path class="st0" d="M2793,343.4c-0.7,0.7-1.4,1.4-2.1,2.1c0,0,0.2,0.2,0.2,0.2c0.7-0.7,1.4-1.4,2.1-2
		C2793.3,343.6,2793,343.4,2793,343.4z"/>
	<path class="st0" d="M3087.3,459.6c0.8-1-0.1-0.2-0.2-0.2L3087.3,459.6z"/>
	<path class="st0" d="M3095,453.5c-1,1.2,0.4-0.1,0.2,0.2L3095,453.5z"/>
	<path class="st0" d="M3097,451.5c-0.7,0.7-1.3,1.3-2,2c0,0,0.2,0.2,0.2,0.2c0.7-0.7,1.3-1.3,2-2
		C3097.2,451.7,3097,451.5,3097,451.5z"/>
	<path class="st0" d="M3097.2,451.7c0.1-0.3,0.2-0.6,0.3-0.9c-0.2,0.2-0.4,0.5-0.6,0.7C3097,451.5,3097.2,451.7,3097.2,451.7z"/>
	<path class="st0" d="M3101,445.4c-0.1,0.3-0.2,0.6-0.3,0.9c0.2-0.2,0.4-0.4,0.5-0.6C3101.2,445.7,3101,445.4,3101,445.4z"/>
	<path class="st0" d="M3101.2,445.7c0.7-0.7,1.3-1.3,2-2c0,0-0.2-0.2-0.2-0.2c-0.7,0.7-1.3,1.3-2,2
		C3101,445.4,3101.2,445.7,3101.2,445.7z"/>
	<path class="st0" d="M3103.2,443.7c0.2-0.3,0.5-0.7,0.6-0.8c-0.2,0.1-0.5,0.3-0.8,0.6C3103,443.4,3103.2,443.7,3103.2,443.7z"/>
	<path class="st0" d="M3085.3,461.6c0.7-0.7,1.3-1.3,2-2c0,0-0.2-0.2-0.2-0.2c-0.7,0.7-1.3,1.3-2,2
		C3085,461.4,3085.3,461.6,3085.3,461.6z"/>
	<path class="st0" d="M3085,461.4c-0.2,0.3-0.3,0.6-0.5,0.8c0.2-0.2,0.5-0.4,0.7-0.6C3085.3,461.6,3085,461.4,3085,461.4z"/>
	<path class="st0" d="M3208.6,292.4"/>
	<path class="st0" d="M3239.1,303.6c1.6,0.8,2.1,2.3,1.9,4l0.2-0.2c-1.9-0.7-1.9-2.4-1.9-4L3239.1,303.6z"/>
	<path class="st0" d="M3239.3,303.4c-0.4-0.2-0.7-0.5-0.8-0.6c0.1,0.1,0.4,0.4,0.6,0.8C3239.1,303.6,3239.3,303.4,3239.3,303.4z"/>
	<path class="st0" d="M3241,307.6c0.7,0.7,1.4,1.4,2,2c0,0,0.2-0.2,0.2-0.2c-0.7-0.7-1.4-1.4-2-2
		C3241.2,307.4,3241,307.6,3241,307.6z"/>
	<path class="st0" d="M2595.3,229.6c1.9,1.5,2.8,2,3.4,2.7c4.5,4.7,9.8,7.6,16.4,7.8c1.3,0,2.6,0.6,2.8,2.6
		c-4.4,1.2-8.9,0.7-13.5,0.4C2600.5,239.7,2595.6,237.3,2595.3,229.6z"/>
	<path class="st0" d="M2623.5,240.2c0.1,0.2,0.1,0.4,0.2,0.6c-0.3,0.1-0.5,0.2-0.8,0.2c-0.1,0-0.1-0.4-0.2-0.5
		C2622.9,240.3,2623.2,240.3,2623.5,240.2z"/>
</g>
</svg>
