<?xml version="1.0" encoding="utf-8"?>
<!-- Generator: Adobe Illustrator 19.0.0, SVG Export Plug-In . SVG Version: 6.00 Build 0)  -->
<svg version="1.1"
	 id="svg2" xmlns:rdf="http://www.w3.org/1999/02/22-rdf-syntax-ns#" xmlns:cc="http://creativecommons.org/ns#" xmlns:dc="http://purl.org/dc/elements/1.1/"
	 xmlns="http://www.w3.org/2000/svg" xmlns:xlink="http://www.w3.org/1999/xlink" x="0px" y="0px" viewBox="1.8 347.9 543 94.6"
	 style="enable-background:new 1.8 347.9 543 94.6;" xml:space="preserve">
<style type="text/css">
	.st0{display:none;}
	.st1{display:inline;}
	.st2{clip-path:url(#SVGID_2_);}
	.st3{fill:#FFFFFF;}
	.st4{fill:none;stroke:#FFFFFF;stroke-width:13.247;stroke-linejoin:round;stroke-miterlimit:3.864;}
	.st5{fill:#231F20;}
	.st6{fill:none;stroke:#231F20;stroke-width:8.831;stroke-linejoin:round;stroke-miterlimit:3.864;}
	.st7{fill:none;stroke:#FFFFFF;stroke-width:2.944;stroke-linejoin:round;stroke-miterlimit:3.864;}
	.st8{clip-path:url(#SVGID_4_);}
</style>
<g id="g10" transform="matrix(1.25 0 0 -1.25 -44.31388 578.0579)">
	<g id="g212" class="st0">
		<g class="st1">
			<defs>
				<rect id="SVGID_1_" x="-86.4" y="-370.7" width="744.1" height="1052.4"/>
			</defs>
			<clipPath id="SVGID_2_">
				<use xlink:href="#SVGID_1_"  style="overflow:visible;"/>
			</clipPath>
			<g id="g214" class="st2">
				<g id="g220" transform="translate(421.2266,408.1328)">
					<path id="path222" class="st3" d="M-12-265.5c6.8,2.4,11.5,8,11.4,9.3c0,0.6-0.4,1-0.9,0.9C-5.4-256.3-9.9-260.2-12-265.5
						 M8.9-268.9c-4.7-5.9-13.2-13.4-20.9-13.4c-5.6,0-8.3,5.2-8.4,10.5c-4.7-4.3-12.3-11.6-18.4-11.6c-3,0-4.9,2.2-4.9,5.4
						c0,2.1,0.7,4.6,1.4,6.6c-3.8-3-12.7-10.4-16.8-10.4c-2.3,0-3.6,2.1-3.6,4.3c0,5.1,5.3,11.2,8.1,14.9
						c-13.4-9.2-17.3-17.8-19.7-17.8c-2.7,0-3.1,6.3-3.1,8.1l0,0.7l-14.6-11.3c-8.1-13.4-14.9-18.6-18-18.6c-1.1,0-1.8,0.9-1.8,1.9
						c0,5.8,11.8,15.9,16,19.1l5.4,11c-2.9-3.1-11.1-10.4-15.3-10.4c-3.9,0-5.5,4.7-5.8,8.2c-3.6-4.4-9.9-10.7-15.4-10.7
						c-4.6,0-6.7,5.5-6.7,9.6c0,9.8,9.7,19.4,14.3,19.4c1.3,0,3.4-0.5,3.4-2.2c0-4-7.7-11.2-10.9-13.5c-0.6-3.3,0.5-5.1,4.1-5.1
						c4.1,0,11.4,5.9,11.4,5.9c2.1,9.5,17.1,16.9,22.6,17.4c1.1,0.1,4.1-0.2,4.1-2c0-1.4-1.5-2.6-2.6-3.3l-8.8-5
						c-5-2.6-10.6-5-9.9-10.8c0.1-0.6,0.5-0.8,1.2-0.8c2.2-0.2,6.7,1.9,9.8,5l8.3,9.5c0.7,0.9,1.7,2.2,2.9,2.2
						c1.5,0,2.9-2.7,2.9-4.1c0-1.2-1.1-3.1-1.6-4.1l-5.8-11.2l11.1,8c0.8,3.2,2.3,6,4.2,9.1c9.1,15.7,23.4,27.4,26,27.4
						c1.2,0,3.3-0.6,3.3-2.2c0-5.5-23.4-29.6-28.4-34.7v-3.1c3.8,3.1,17.9,16,22.1,16c1.9,0,3.7-2,3.7-3.9c0-1.5-3.1-5.1-4-6.2
						c-4.8-6-4.6-6.3-4.6-7.1c0-1,0.8-1.7,1.7-1.7c1.5,0,4,1.5,6.3,3c0,0,8.7,8.4,11.6,13.5c-4.7,0-3.3,0.3-7.4-0.3l0.9,1.4
						c4.3,7,4.8,8.4,13.1,8.7c2.3,3.3,4,7.1,8.5,7.1c1,0,2.5-0.2,2.5-1.5c0-1.4-2.2-4.1-3-5.2l4.8-0.4c-3.6-7.6-4.3-10.6-12.8-10
						c-2.6-3.5-7-10.1-7-14.9c0-1.8,0.5-2.8,2.3-2.8c2.5,0,5.2,2.4,13.2,8.3c2.5,8.8,11.8,16.5,20.4,16.4c2.5,0,5.6-0.6,5.6-3.9
						c0-3.9-3.8-9.9-18.7-14.9l-0.2-1.8c-0.2-3.1,2.3-4.1,4.8-4.1c4.4,0,9.5,3.8,13.5,7c1.2,1.2,2.2,2.6,3.2,4
						c-1.6,0.2-2.1,0.8-2.1,2.5c0,5.8,7.9,11.6,9.8,11.6c0.8,0,1.4-0.6,1.4-1.4c0-0.8-0.2-1.5-0.5-2.2c7.3,1,11.5,2,12.3,1
						c1.2-1.5,1.7-2.8,1.9-4.3c0-2.5-1.5-3.7-3.2-5.2c-2.2-2-6-5.9-6-9.2c0-1.3,1.2-2.2,2.4-2.2c3.3,0,24.1,17.9,26.7,19.9l0.5-3
						c-2.9-3.5-27.8-25.1-32.2-25.1c-3.2,0-5.3,3.1-5.3,6.2c0,5.5,4,9.7,7.1,13.6l-8.2-1.7C12-265.8,10.5-267.4,8.9-268.9
						 M-114.8-251.7c-1.9,0-3.1,1.5-3.1,3.5c0,3.3,3.7,6.2,6.7,6.2c1.4,0,2.6-1,2.6-2.5C-108.6-247.8-111.5-251.7-114.8-251.7
						 M-143.5-267.3l-13.2-14.5c-2.7-2.8-12.1-11.8-15.6-11.8c-1.1,0-1.9,0.9-1.9,2c0,2.2,3.3,6.3,4.7,8c2.5,2.7,4.6,4.1,8,5.1
						l9.1,10l-11.5-1c-0.5,0-3.8-0.1-3.9,1c-0.3,2.2,0,4.2,2,5.5c2.4,1.6,7.6,3.1,10.4,3.9l11.8,2.3c2.6,3.5,8.8,14.6,8.8,18.6
						c0,1.6-1.2,1.5-2.5,1.5c-0.2,0-0.5,0.3-6.4-0.6c-8.9-1.5-21.8-7.6-21.8-7.6c0.5,0,1.5,0.1,1.5-0.7c0-1-1.7-1.2-2.3-1.4l-9-2.9
						c-5.3-1.8-6-0.7-6,0.7c0,2.3,4.5,10.3,6,12.3c3.1,3.9,7.2,4.7,11.7,5.9c20.3,4.7,26.1,5.1,30.6,5.1c2.8,0,8-0.3,8-4.3
						c0-5.9-8.7-21.7-12.1-27l5.2-0.9l-3.1-5.1c-0.5-1-1.1-2.1-2.1-2.6C-138.9-266.6-141.7-266.9-143.5-267.3"/>
				</g>
				<g id="g224" transform="translate(421.2266,408.1328)">
					<path id="path226" class="st4" d="M-12-265.5c6.8,2.4,11.5,8,11.4,9.3c0,0.6-0.4,1-0.9,0.9C-5.4-256.3-9.9-260.2-12-265.5z
						 M8.9-268.9c-4.7-5.9-13.2-13.4-20.9-13.4c-5.6,0-8.3,5.2-8.4,10.5c-4.7-4.3-12.3-11.6-18.4-11.6c-3,0-4.9,2.2-4.9,5.4
						c0,2.1,0.7,4.6,1.4,6.6c-3.8-3-12.7-10.4-16.8-10.4c-2.3,0-3.6,2.1-3.6,4.3c0,5.1,5.3,11.2,8.1,14.9
						c-13.4-9.2-17.3-17.8-19.7-17.8c-2.7,0-3.1,6.3-3.1,8.1l0,0.7l-14.6-11.3c-8.1-13.4-14.9-18.6-18-18.6c-1.1,0-1.8,0.9-1.8,1.9
						c0,5.8,11.8,15.9,16,19.1l5.4,11c-2.9-3.1-11.1-10.4-15.3-10.4c-3.9,0-5.5,4.7-5.8,8.2c-3.6-4.4-9.9-10.7-15.4-10.7
						c-4.6,0-6.7,5.5-6.7,9.6c0,9.8,9.7,19.4,14.3,19.4c1.3,0,3.4-0.5,3.4-2.2c0-4-7.7-11.2-10.9-13.5c-0.6-3.3,0.5-5.1,4.1-5.1
						c4.1,0,11.4,5.9,11.4,5.9c2.1,9.5,17.1,16.9,22.6,17.4c1.1,0.1,4.1-0.2,4.1-2c0-1.4-1.5-2.6-2.6-3.3l-8.8-5
						c-5-2.6-10.6-5-9.9-10.8c0.1-0.6,0.5-0.8,1.2-0.8c2.2-0.2,6.7,1.9,9.8,5l8.3,9.5c0.7,0.9,1.7,2.2,2.9,2.2
						c1.5,0,2.9-2.7,2.9-4.1c0-1.2-1.1-3.1-1.6-4.1l-5.8-11.2l11.1,8c0.8,3.2,2.3,6,4.2,9.1c9.1,15.7,23.4,27.4,26,27.4
						c1.2,0,3.3-0.6,3.3-2.2c0-5.5-23.4-29.6-28.4-34.7v-3.1c3.8,3.1,17.9,16,22.1,16c1.9,0,3.7-2,3.7-3.9c0-1.5-3.1-5.1-4-6.2
						c-4.8-6-4.6-6.3-4.6-7.1c0-1,0.8-1.7,1.7-1.7c1.5,0,4,1.5,6.3,3c0,0,8.7,8.4,11.6,13.5c-4.7,0-3.3,0.3-7.4-0.3l0.9,1.4
						c4.3,7,4.8,8.4,13.1,8.7c2.3,3.3,4,7.1,8.5,7.1c1,0,2.5-0.2,2.5-1.5c0-1.4-2.2-4.1-3-5.2l4.8-0.4c-3.6-7.6-4.3-10.6-12.8-10
						c-2.6-3.5-7-10.1-7-14.9c0-1.8,0.5-2.8,2.3-2.8c2.5,0,5.2,2.4,13.2,8.3c2.5,8.8,11.8,16.5,20.4,16.4c2.5,0,5.6-0.6,5.6-3.9
						c0-3.9-3.8-9.9-18.7-14.9l-0.2-1.8c-0.2-3.1,2.3-4.1,4.8-4.1c4.4,0,9.5,3.8,13.5,7c1.2,1.2,2.2,2.6,3.2,4
						c-1.6,0.2-2.1,0.8-2.1,2.5c0,5.8,7.9,11.6,9.8,11.6c0.8,0,1.4-0.6,1.4-1.4c0-0.8-0.2-1.5-0.5-2.2c7.3,1,11.5,2,12.3,1
						c1.2-1.5,1.7-2.8,1.9-4.3c0-2.5-1.5-3.7-3.2-5.2c-2.2-2-6-5.9-6-9.2c0-1.3,1.2-2.2,2.4-2.2c3.3,0,24.1,17.9,26.7,19.9l0.5-3
						c-2.9-3.5-27.8-25.1-32.2-25.1c-3.2,0-5.3,3.1-5.3,6.2c0,5.5,4,9.7,7.1,13.6l-8.2-1.7C12-265.8,10.5-267.4,8.9-268.9L8.9-268.9
						z M-114.8-251.7c-1.9,0-3.1,1.5-3.1,3.5c0,3.3,3.7,6.2,6.7,6.2c1.4,0,2.6-1,2.6-2.5C-108.6-247.8-111.5-251.7-114.8-251.7z
						 M-143.5-267.3l-13.2-14.5c-2.7-2.8-12.1-11.8-15.6-11.8c-1.1,0-1.9,0.9-1.9,2c0,2.2,3.3,6.3,4.7,8c2.5,2.7,4.6,4.1,8,5.1
						l9.1,10l-11.5-1c-0.5,0-3.8-0.1-3.9,1c-0.3,2.2,0,4.2,2,5.5c2.4,1.6,7.6,3.1,10.4,3.9l11.8,2.3c2.6,3.5,8.8,14.6,8.8,18.6
						c0,1.6-1.2,1.5-2.5,1.5c-0.2,0-0.5,0.3-6.4-0.6c-8.9-1.5-21.8-7.6-21.8-7.6c0.5,0,1.5,0.1,1.5-0.7c0-1-1.7-1.2-2.3-1.4l-9-2.9
						c-5.3-1.8-6-0.7-6,0.7c0,2.3,4.5,10.3,6,12.3c3.1,3.9,7.2,4.7,11.7,5.9c20.3,4.7,26.1,5.1,30.6,5.1c2.8,0,8-0.3,8-4.3
						c0-5.9-8.7-21.7-12.1-27l5.2-0.9l-3.1-5.1c-0.5-1-1.1-2.1-2.1-2.6C-138.9-266.6-141.7-266.9-143.5-267.3L-143.5-267.3z"/>
				</g>
				<g id="g228" transform="translate(420.0488,408.7217)">
					<path id="path230" class="st5" d="M-12-265.5c6.8,2.4,11.5,8,11.4,9.3c0,0.6-0.4,1-0.9,0.9C-5.4-256.3-9.9-260.2-12-265.5
						 M8.9-268.9c-4.7-5.9-13.2-13.4-20.9-13.4c-5.6,0-8.3,5.2-8.4,10.5c-4.7-4.3-12.3-11.6-18.4-11.6c-3,0-4.9,2.2-4.9,5.4
						c0,2.1,0.7,4.6,1.4,6.6c-3.8-3-12.7-10.4-16.8-10.4c-2.3,0-3.6,2.1-3.6,4.3c0,5.1,5.3,11.2,8.1,14.9
						c-13.4-9.2-17.3-17.8-19.7-17.8c-2.7,0-3.1,6.3-3.1,8.1l0,0.7l-14.6-11.3c-8.1-13.4-14.9-18.6-18-18.6c-1.1,0-1.8,0.9-1.8,1.9
						c0,5.8,11.8,15.9,16,19.1l5.4,11c-2.9-3.1-11.1-10.4-15.3-10.4c-3.9,0-5.5,4.7-5.8,8.2c-3.6-4.4-9.9-10.7-15.4-10.7
						c-4.6,0-6.7,5.5-6.7,9.6c0,9.8,9.7,19.4,14.3,19.4c1.3,0,3.4-0.5,3.4-2.2c0-4-7.7-11.2-10.9-13.5c-0.6-3.3,0.5-5.1,4.1-5.1
						c4.1,0,11.4,5.9,11.4,5.9c2.1,9.5,17.1,16.9,22.6,17.4c1.1,0.1,4.1-0.2,4.1-2c0-1.4-1.5-2.6-2.6-3.3l-8.8-5
						c-5-2.6-10.6-5-9.9-10.8c0.1-0.6,0.5-0.8,1.2-0.8c2.2-0.2,6.7,1.9,9.8,5l8.3,9.5c0.7,0.9,1.7,2.2,2.9,2.2
						c1.5,0,2.9-2.7,2.9-4.1c0-1.2-1.1-3.1-1.6-4.1l-5.8-11.2l11.1,8c0.8,3.2,2.3,6,4.2,9.1c9.1,15.7,23.4,27.4,26,27.4
						c1.2,0,3.3-0.6,3.3-2.2c0-5.5-23.4-29.6-28.4-34.7v-3.1c3.8,3.1,17.9,16,22.1,16c1.9,0,3.7-2,3.7-3.9c0-1.5-3.1-5.1-4-6.2
						c-4.8-6-4.6-6.3-4.6-7.1c0-1,0.8-1.7,1.7-1.7c1.5,0,4,1.5,6.3,3c0,0,8.7,8.4,11.6,13.5c-4.7,0-3.3,0.3-7.4-0.3l0.9,1.4
						c4.3,7,4.8,8.4,13.1,8.7c2.3,3.3,4,7.1,8.5,7.1c1,0,2.5-0.2,2.5-1.5c0-1.4-2.2-4.1-3-5.2l4.8-0.4c-3.6-7.6-4.3-10.6-12.8-10
						c-2.6-3.5-7-10.1-7-14.9c0-1.8,0.5-2.8,2.3-2.8c2.5,0,5.2,2.4,13.2,8.3c2.5,8.8,11.8,16.5,20.4,16.4c2.5,0,5.6-0.6,5.6-3.9
						c0-3.9-3.8-9.9-18.7-14.9l-0.2-1.8c-0.2-3.1,2.3-4.1,4.8-4.1c4.4,0,9.5,3.8,13.5,7c1.2,1.2,2.2,2.6,3.2,4
						c-1.6,0.2-2.1,0.8-2.1,2.5c0,5.8,7.9,11.6,9.8,11.6c0.8,0,1.4-0.6,1.4-1.4c0-0.8-0.2-1.5-0.5-2.2c7.3,1,11.5,2,12.3,1
						c1.2-1.5,1.7-2.8,1.9-4.3c0-2.5-1.5-3.7-3.3-5.2c-2.2-2-6-5.9-6-9.2c0-1.3,1.2-2.2,2.4-2.2c3.3,0,24.1,17.9,26.7,19.9l0.5-3
						c-2.9-3.5-27.8-25.1-32.2-25.1c-3.2,0-5.3,3.1-5.3,6.2c0,5.5,4,9.7,7.1,13.6l-8.2-1.7C12-265.8,10.5-267.4,8.9-268.9
						 M-114.8-251.7c-1.9,0-3.1,1.5-3.1,3.5c0,3.3,3.7,6.2,6.7,6.2c1.4,0,2.6-1,2.6-2.5C-108.6-247.8-111.5-251.7-114.8-251.7
						 M-143.5-267.3l-13.2-14.5c-2.7-2.8-12.1-11.8-15.6-11.8c-1.1,0-1.9,0.9-1.9,2c0,2.2,3.3,6.3,4.7,8c2.5,2.7,4.6,4.1,8,5.1
						l9.1,10l-11.5-1c-0.5,0-3.8-0.1-3.9,1c-0.3,2.3,0,4.2,2,5.5c2.4,1.6,7.6,3.1,10.4,3.9l11.8,2.3c2.6,3.5,8.8,14.6,8.8,18.6
						c0,1.6-1.2,1.5-2.5,1.5c-0.2,0-0.5,0.3-6.4-0.6c-8.9-1.5-21.8-7.6-21.8-7.6c0.5,0,1.5,0.1,1.5-0.7c0-1-1.7-1.2-2.3-1.4l-9-2.9
						c-5.3-1.8-6-0.7-6,0.7c0,2.3,4.5,10.3,6,12.3c3.1,3.9,7.2,4.7,11.7,5.9c20.3,4.7,26.1,5.1,30.6,5.1c2.8,0,8-0.3,8-4.3
						c0-5.9-8.7-21.7-12.1-27l5.2-0.9l-3.1-5.1c-0.5-1-1.1-2.1-2.1-2.6C-138.9-266.6-141.7-266.9-143.5-267.3"/>
				</g>
				<g id="g232" transform="translate(420.0488,408.7217)">
					<path id="path234" class="st6" d="M-12-265.5c6.8,2.4,11.5,8,11.4,9.3c0,0.6-0.4,1-0.9,0.9C-5.4-256.3-9.9-260.2-12-265.5z
						 M8.9-268.9c-4.7-5.9-13.2-13.4-20.9-13.4c-5.6,0-8.3,5.2-8.4,10.5c-4.7-4.3-12.3-11.6-18.4-11.6c-3,0-4.9,2.2-4.9,5.4
						c0,2.1,0.7,4.6,1.4,6.6c-3.8-3-12.7-10.4-16.8-10.4c-2.3,0-3.6,2.1-3.6,4.3c0,5.1,5.3,11.2,8.1,14.9
						c-13.4-9.2-17.3-17.8-19.7-17.8c-2.7,0-3.1,6.3-3.1,8.1l0,0.7l-14.6-11.3c-8.1-13.4-14.9-18.6-18-18.6c-1.1,0-1.8,0.9-1.8,1.9
						c0,5.8,11.8,15.9,16,19.1l5.4,11c-2.9-3.1-11.1-10.4-15.3-10.4c-3.9,0-5.5,4.7-5.8,8.2c-3.6-4.4-9.9-10.7-15.4-10.7
						c-4.6,0-6.7,5.5-6.7,9.6c0,9.8,9.7,19.4,14.3,19.4c1.3,0,3.4-0.5,3.4-2.2c0-4-7.7-11.2-10.9-13.5c-0.6-3.3,0.5-5.1,4.1-5.1
						c4.1,0,11.4,5.9,11.4,5.9c2.1,9.5,17.1,16.9,22.6,17.4c1.1,0.1,4.1-0.2,4.1-2c0-1.4-1.5-2.6-2.6-3.3l-8.8-5
						c-5-2.6-10.6-5-9.9-10.8c0.1-0.6,0.5-0.8,1.2-0.8c2.2-0.2,6.7,1.9,9.8,5l8.3,9.5c0.7,0.9,1.7,2.2,2.9,2.2
						c1.5,0,2.9-2.7,2.9-4.1c0-1.2-1.1-3.1-1.6-4.1l-5.8-11.2l11.1,8c0.8,3.2,2.3,6,4.2,9.1c9.1,15.7,23.4,27.4,26,27.4
						c1.2,0,3.3-0.6,3.3-2.2c0-5.5-23.4-29.6-28.4-34.7v-3.1c3.8,3.1,17.9,16,22.1,16c1.9,0,3.7-2,3.7-3.9c0-1.5-3.1-5.1-4-6.2
						c-4.8-6-4.6-6.3-4.6-7.1c0-1,0.8-1.7,1.7-1.7c1.5,0,4,1.5,6.3,3c0,0,8.7,8.4,11.6,13.5c-4.7,0-3.3,0.3-7.4-0.3l0.9,1.4
						c4.3,7,4.8,8.4,13.1,8.7c2.3,3.3,4,7.1,8.5,7.1c1,0,2.5-0.2,2.5-1.5c0-1.4-2.2-4.1-3-5.2l4.8-0.4c-3.6-7.6-4.3-10.6-12.8-10
						c-2.6-3.5-7-10.1-7-14.9c0-1.8,0.5-2.8,2.3-2.8c2.5,0,5.2,2.4,13.2,8.3c2.5,8.8,11.8,16.5,20.4,16.4c2.5,0,5.6-0.6,5.6-3.9
						c0-3.9-3.8-9.9-18.7-14.9l-0.2-1.8c-0.2-3.1,2.3-4.1,4.8-4.1c4.4,0,9.5,3.8,13.5,7c1.2,1.2,2.2,2.6,3.2,4
						c-1.6,0.2-2.1,0.8-2.1,2.5c0,5.8,7.9,11.6,9.8,11.6c0.8,0,1.4-0.6,1.4-1.4c0-0.8-0.2-1.5-0.5-2.2c7.3,1,11.5,2,12.3,1
						c1.2-1.5,1.7-2.8,1.9-4.3c0-2.5-1.5-3.7-3.3-5.2c-2.2-2-6-5.9-6-9.2c0-1.3,1.2-2.2,2.4-2.2c3.3,0,24.1,17.9,26.7,19.9l0.5-3
						c-2.9-3.5-27.8-25.1-32.2-25.1c-3.2,0-5.3,3.1-5.3,6.2c0,5.5,4,9.7,7.1,13.6l-8.2-1.7C12-265.8,10.5-267.4,8.9-268.9z
						 M-114.8-251.7c-1.9,0-3.1,1.5-3.1,3.5c0,3.3,3.7,6.2,6.7,6.2c1.4,0,2.6-1,2.6-2.5C-108.6-247.8-111.5-251.7-114.8-251.7z
						 M-143.5-267.3l-13.2-14.5c-2.7-2.8-12.1-11.8-15.6-11.8c-1.1,0-1.9,0.9-1.9,2c0,2.2,3.3,6.3,4.7,8c2.5,2.7,4.6,4.1,8,5.1
						l9.1,10l-11.5-1c-0.5,0-3.8-0.1-3.9,1c-0.3,2.3,0,4.2,2,5.5c2.4,1.6,7.6,3.1,10.4,3.9l11.8,2.3c2.6,3.5,8.8,14.6,8.8,18.6
						c0,1.6-1.2,1.5-2.5,1.5c-0.2,0-0.5,0.3-6.4-0.6c-8.9-1.5-21.8-7.6-21.8-7.6c0.5,0,1.5,0.1,1.5-0.7c0-1-1.7-1.2-2.3-1.4l-9-2.9
						c-5.3-1.8-6-0.7-6,0.7c0,2.3,4.5,10.3,6,12.3c3.1,3.9,7.2,4.7,11.7,5.9c20.3,4.7,26.1,5.1,30.6,5.1c2.8,0,8-0.3,8-4.3
						c0-5.9-8.7-21.7-12.1-27l5.2-0.9l-3.1-5.1c-0.5-1-1.1-2.1-2.1-2.6C-138.9-266.6-141.7-266.9-143.5-267.3L-143.5-267.3z"/>
				</g>
				<g id="g236" transform="translate(419.4609,409.8994)">
					<path id="path238" class="st3" d="M-12-265.5c6.8,2.4,11.5,8,11.4,9.3c0,0.6-0.4,1-0.9,0.9C-5.4-256.3-9.9-260.2-12-265.5
						 M8.9-268.9c-4.7-5.9-13.2-13.4-20.9-13.4c-5.6,0-8.3,5.2-8.4,10.5c-4.7-4.3-12.3-11.6-18.4-11.6c-3,0-4.9,2.2-4.9,5.4
						c0,2.1,0.7,4.6,1.4,6.6c-3.8-3-12.7-10.4-16.8-10.4c-2.3,0-3.6,2.1-3.6,4.3c0,5.1,5.3,11.2,8.1,14.9
						c-13.4-9.2-17.3-17.8-19.7-17.8c-2.7,0-3.1,6.3-3.1,8.1l0,0.7l-14.6-11.3c-8.1-13.4-14.9-18.6-18-18.6c-1.1,0-1.8,0.9-1.8,1.9
						c0,5.8,11.8,15.9,16,19.1l5.4,11c-2.9-3.1-11.1-10.4-15.3-10.4c-3.9,0-5.5,4.7-5.8,8.2c-3.6-4.4-9.9-10.7-15.4-10.7
						c-4.6,0-6.7,5.5-6.7,9.6c0,9.8,9.7,19.4,14.3,19.4c1.3,0,3.4-0.5,3.4-2.2c0-4-7.7-11.2-10.9-13.5c-0.6-3.3,0.5-5.1,4.1-5.1
						c4.1,0,11.4,5.9,11.4,5.9c2.1,9.5,17.1,16.9,22.6,17.4c1.1,0.1,4.1-0.2,4.1-2c0-1.4-1.5-2.6-2.6-3.3l-8.8-5
						c-5-2.6-10.6-5-9.9-10.8c0.1-0.6,0.5-0.8,1.2-0.8c2.2-0.2,6.7,1.9,9.8,5l8.3,9.5c0.7,0.9,1.7,2.2,2.9,2.2
						c1.5,0,2.9-2.7,2.9-4.1c0-1.2-1.1-3.1-1.6-4.1l-5.8-11.2l11.1,8c0.8,3.2,2.3,6,4.2,9.1c9.1,15.7,23.4,27.4,26,27.4
						c1.2,0,3.3-0.6,3.3-2.2c0-5.5-23.4-29.6-28.4-34.7v-3.1c3.8,3.1,17.9,16,22.1,16c1.9,0,3.7-2,3.7-3.9c0-1.5-3.1-5.1-4-6.2
						c-4.8-6-4.6-6.3-4.6-7.1c0-1,0.8-1.7,1.7-1.7c1.5,0,4,1.5,6.3,3c0,0,8.7,8.4,11.6,13.5c-4.7,0-3.3,0.3-7.4-0.3l0.9,1.4
						c4.3,7,4.8,8.4,13.1,8.7c2.3,3.3,4,7.1,8.5,7.1c1,0,2.5-0.2,2.5-1.5c0-1.4-2.2-4.1-3-5.2l4.8-0.4c-3.6-7.6-4.3-10.6-12.8-10
						c-2.6-3.5-7-10.1-7-14.9c0-1.8,0.5-2.8,2.3-2.8c2.5,0,5.2,2.4,13.2,8.3c2.5,8.8,11.8,16.5,20.4,16.4c2.5,0,5.6-0.6,5.6-3.9
						c0-3.9-3.8-9.9-18.7-14.9l-0.2-1.8c-0.2-3.1,2.3-4.1,4.8-4.1c4.4,0,9.5,3.8,13.5,7c1.2,1.2,2.2,2.6,3.2,4
						c-1.6,0.2-2.1,0.8-2.1,2.5c0,5.8,7.9,11.6,9.8,11.6c0.8,0,1.4-0.6,1.4-1.4c0-0.8-0.2-1.5-0.5-2.2c7.3,1,11.5,2,12.3,1
						c1.2-1.5,1.7-2.8,1.9-4.3c0-2.5-1.5-3.7-3.2-5.2c-2.2-2-6-5.9-6-9.2c0-1.3,1.2-2.2,2.4-2.2c3.3,0,24.1,17.9,26.7,19.9l0.5-3
						c-2.9-3.5-27.8-25.1-32.2-25.1c-3.2,0-5.3,3.1-5.3,6.2c0,5.5,4,9.7,7.1,13.6l-8.2-1.7C12-265.8,10.5-267.4,8.9-268.9
						 M-114.8-251.7c-1.9,0-3.1,1.5-3.1,3.5c0,3.3,3.7,6.2,6.7,6.2c1.4,0,2.6-1,2.6-2.5C-108.6-247.8-111.5-251.7-114.8-251.7
						 M-143.5-267.3l-13.2-14.5c-2.7-2.8-12.1-11.8-15.6-11.8c-1.1,0-1.9,0.9-1.9,2c0,2.2,3.3,6.3,4.7,8c2.5,2.7,4.6,4.1,8,5.1
						l9.1,10l-11.5-1c-0.5,0-3.8-0.1-3.9,1c-0.3,2.2,0,4.2,2,5.5c2.4,1.6,7.6,3.1,10.4,3.9l11.8,2.3c2.6,3.5,8.8,14.6,8.8,18.6
						c0,1.6-1.2,1.5-2.5,1.5c-0.2,0-0.5,0.3-6.4-0.6c-8.9-1.5-21.8-7.6-21.8-7.6c0.5,0,1.5,0.1,1.5-0.7c0-1-1.7-1.2-2.3-1.4l-9-2.9
						c-5.3-1.8-6-0.7-6,0.7c0,2.3,4.5,10.3,6,12.3c3.1,3.9,7.2,4.7,11.7,5.9c20.3,4.7,26.1,5.1,30.6,5.1c2.8,0,8-0.3,8-4.3
						c0-5.9-8.7-21.7-12.1-27l5.2-0.9l-3.1-5.1c-0.5-1-1.1-2.1-2.1-2.6C-138.9-266.6-141.7-266.9-143.5-267.3"/>
				</g>
				<g id="g240" transform="translate(419.4609,409.8994)">
					<path id="path242" class="st7" d="M-12-265.5c6.8,2.4,11.5,8,11.4,9.3c0,0.6-0.4,1-0.9,0.9C-5.4-256.3-9.9-260.2-12-265.5z
						 M8.9-268.9c-4.7-5.9-13.2-13.4-20.9-13.4c-5.6,0-8.3,5.2-8.4,10.5c-4.7-4.3-12.3-11.6-18.4-11.6c-3,0-4.9,2.2-4.9,5.4
						c0,2.1,0.7,4.6,1.4,6.6c-3.8-3-12.7-10.4-16.8-10.4c-2.3,0-3.6,2.1-3.6,4.3c0,5.1,5.3,11.2,8.1,14.9
						c-13.4-9.2-17.3-17.8-19.7-17.8c-2.7,0-3.1,6.3-3.1,8.1l0,0.7l-14.6-11.3c-8.1-13.4-14.9-18.6-18-18.6c-1.1,0-1.8,0.9-1.8,1.9
						c0,5.8,11.8,15.9,16,19.1l5.4,11c-2.9-3.1-11.1-10.4-15.3-10.4c-3.9,0-5.5,4.7-5.8,8.2c-3.6-4.4-9.9-10.7-15.4-10.7
						c-4.6,0-6.7,5.5-6.7,9.6c0,9.8,9.7,19.4,14.3,19.4c1.3,0,3.4-0.5,3.4-2.2c0-4-7.7-11.2-10.9-13.5c-0.6-3.3,0.5-5.1,4.1-5.1
						c4.1,0,11.4,5.9,11.4,5.9c2.1,9.5,17.1,16.9,22.6,17.4c1.1,0.1,4.1-0.2,4.1-2c0-1.4-1.5-2.6-2.6-3.3l-8.8-5
						c-5-2.6-10.6-5-9.9-10.8c0.1-0.6,0.5-0.8,1.2-0.8c2.2-0.2,6.7,1.9,9.8,5l8.3,9.5c0.7,0.9,1.7,2.2,2.9,2.2
						c1.5,0,2.9-2.7,2.9-4.1c0-1.2-1.1-3.1-1.6-4.1l-5.8-11.2l11.1,8c0.8,3.2,2.3,6,4.2,9.1c9.1,15.7,23.4,27.4,26,27.4
						c1.2,0,3.3-0.6,3.3-2.2c0-5.5-23.4-29.6-28.4-34.7v-3.1c3.8,3.1,17.9,16,22.1,16c1.9,0,3.7-2,3.7-3.9c0-1.5-3.1-5.1-4-6.2
						c-4.8-6-4.6-6.3-4.6-7.1c0-1,0.8-1.7,1.7-1.7c1.5,0,4,1.5,6.3,3c0,0,8.7,8.4,11.6,13.5c-4.7,0-3.3,0.3-7.4-0.3l0.9,1.4
						c4.3,7,4.8,8.4,13.1,8.7c2.3,3.3,4,7.1,8.5,7.1c1,0,2.5-0.2,2.5-1.5c0-1.4-2.2-4.1-3-5.2l4.8-0.4c-3.6-7.6-4.3-10.6-12.8-10
						c-2.6-3.5-7-10.1-7-14.9c0-1.8,0.5-2.8,2.3-2.8c2.5,0,5.2,2.4,13.2,8.3c2.5,8.8,11.8,16.5,20.4,16.4c2.5,0,5.6-0.6,5.6-3.9
						c0-3.9-3.8-9.9-18.7-14.9l-0.2-1.8c-0.2-3.1,2.3-4.1,4.8-4.1c4.4,0,9.5,3.8,13.5,7c1.2,1.2,2.2,2.6,3.2,4
						c-1.6,0.2-2.1,0.8-2.1,2.5c0,5.8,7.9,11.6,9.8,11.6c0.8,0,1.4-0.6,1.4-1.4c0-0.8-0.2-1.5-0.5-2.2c7.3,1,11.5,2,12.3,1
						c1.2-1.5,1.7-2.8,1.9-4.3c0-2.5-1.5-3.7-3.2-5.2c-2.2-2-6-5.9-6-9.2c0-1.3,1.2-2.2,2.4-2.2c3.3,0,24.1,17.9,26.7,19.9l0.5-3
						c-2.9-3.5-27.8-25.1-32.2-25.1c-3.2,0-5.3,3.1-5.3,6.2c0,5.5,4,9.7,7.1,13.6l-8.2-1.7C12-265.8,10.5-267.4,8.9-268.9L8.9-268.9
						z M-114.8-251.7c-1.9,0-3.1,1.5-3.1,3.5c0,3.3,3.7,6.2,6.7,6.2c1.4,0,2.6-1,2.6-2.5C-108.6-247.8-111.5-251.7-114.8-251.7z
						 M-143.5-267.3l-13.2-14.5c-2.7-2.8-12.1-11.8-15.6-11.8c-1.1,0-1.9,0.9-1.9,2c0,2.2,3.3,6.3,4.7,8c2.5,2.7,4.6,4.1,8,5.1
						l9.1,10l-11.5-1c-0.5,0-3.8-0.1-3.9,1c-0.3,2.2,0,4.2,2,5.5c2.4,1.6,7.6,3.1,10.4,3.9l11.8,2.3c2.6,3.5,8.8,14.6,8.8,18.6
						c0,1.6-1.2,1.5-2.5,1.5c-0.2,0-0.5,0.3-6.4-0.6c-8.9-1.5-21.8-7.6-21.8-7.6c0.5,0,1.5,0.1,1.5-0.7c0-1-1.7-1.2-2.3-1.4l-9-2.9
						c-5.3-1.8-6-0.7-6,0.7c0,2.3,4.5,10.3,6,12.3c3.1,3.9,7.2,4.7,11.7,5.9c20.3,4.7,26.1,5.1,30.6,5.1c2.8,0,8-0.3,8-4.3
						c0-5.9-8.7-21.7-12.1-27l5.2-0.9l-3.1-5.1c-0.5-1-1.1-2.1-2.1-2.6C-138.9-266.6-141.7-266.9-143.5-267.3z"/>
				</g>
			</g>
		</g>
	</g>
	<g id="g244">
		<g id="g246">
			<g id="g252">
				<g id="g254">
					<path id="path262" class="st3" d="M255.8,178.9c-4.5-1.2-8.6-2-11.7-5.9c-1.5-2-6-10-6-12.3c0-1.4,0.7-2.5,6-0.7l9,2.9
						c0.6,0.2,2.3,0.4,2.3,1.4c0,0.8-0.9,0.7-1.5,0.7c0,0,12.9,6.1,21.8,7.6c5.9,1,6.3,0.6,6.4,0.6c1.3,0,2.5,0.1,2.5-1.5
						c0-3.9-6.3-15-8.8-18.6l-11.8-2.3c-2.9-0.8-8-2.2-10.4-3.9c-2-1.4-2.3-3.3-2-5.5c0.2-1.1,3.4-1,3.9-1l11.5,1l-9.1-10
						c-3.4-1-5.6-2.3-8-5.1c-1.4-1.7-4.7-5.8-4.7-8c0-1.1,0.8-2,1.9-2c3.6,0,12.9,9,15.6,11.8l13.2,14.5c1.8,0.4,4.6,0.7,6.3,1.5
						c1,0.5,1.5,1.5,2.1,2.6l3.1,5.1l-5.2,0.9c3.5,5.3,12.1,21,12.1,27c0,3.9-5.2,4.3-8,4.3C281.9,183.9,276.1,183.5,255.8,178.9
						 M346.9,151.6c-1.8-3.1-3.4-5.9-4.2-9.1l-11.1-8l5.8,11.2c0.5,1,1.6,2.9,1.6,4.1c0,1.4-1.4,4.1-2.9,4.1c-1.2,0-2.2-1.4-2.9-2.2
						l-8.3-9.5c-3.2-3.1-7.7-5.2-9.8-5c-0.7,0-1.2,0.2-1.2,0.8c-0.7,5.9,5,8.3,9.9,10.8l8.8,5c1,0.7,2.6,1.8,2.6,3.3
						c0,1.8-3,2.1-4.1,2c-5.5-0.5-20.5-7.9-22.6-17.4c0,0-7.3-5.9-11.4-5.9c-3.6,0-4.7,1.8-4.1,5.1c3.3,2.3,10.9,9.5,10.9,13.5
						c0,1.8-2.1,2.2-3.4,2.2c-4.6,0-14.3-9.6-14.3-19.4c0-4.1,2.1-9.6,6.7-9.6c5.5,0,11.8,6.3,15.4,10.7c0.3-3.5,1.9-8.2,5.8-8.2
						c4.3,0,12.4,7.3,15.3,10.4l-5.4-11c-4.3-3.2-16-13.3-16-19.1c0-1,0.7-1.9,1.8-1.9c3,0,9.8,5.1,18,18.6l14.6,11.3l0-0.7
						c0-1.8,0.4-8.1,3.1-8.1c2.5,0,6.3,8.5,19.7,17.8c-2.8-3.8-8.1-9.9-8.1-14.9c0-2.2,1.2-4.3,3.6-4.3c4.1,0,13.1,7.4,16.8,10.4
						c-0.8-2.1-1.4-4.5-1.4-6.6c0-3.2,1.9-5.4,4.9-5.4c6.1,0,13.7,7.4,18.4,11.6c0.2-5.3,2.8-10.5,8.4-10.5
						c7.7,0,16.2,7.6,20.9,13.4c1.6,1.5,3,3.1,4.4,5.3l8.2,1.7c-3.1-3.9-7.1-8.1-7.1-13.6c0-3.1,2-6.2,5.3-6.2
						c4.4,0,29.3,21.6,32.2,25.1l-0.5,3c-2.6-2-23.4-19.9-26.7-19.9c-1.2,0-2.4,1-2.4,2.2c0,3.2,3.8,7.1,6,9.2
						c1.8,1.5,3.2,2.7,3.2,5.2c-0.2,1.4-0.7,2.7-1.9,4.3c-0.8,1-5,0-12.3-1c0.3,0.7,0.5,1.4,0.5,2.2c0,0.7-0.6,1.4-1.4,1.4
						c-1.9,0-9.8-5.8-9.8-11.6c0-1.7,0.5-2.3,2.1-2.5c-1-1.4-2-2.8-3.2-4c-4-3.2-9-7-13.5-7c-2.5,0-5,1-4.8,4.1l0.2,1.8
						c14.9,5.1,18.7,11,18.7,14.9c0,3.2-3.1,3.9-5.6,3.9c-8.5,0.1-17.9-7.7-20.4-16.4c-8-5.9-10.8-8.3-13.2-8.3
						c-1.8,0-2.3,1-2.3,2.8c0,4.8,4.4,11.4,7,14.9c8.5-0.6,9.1,2.4,12.8,10l-4.8,0.4c0.8,1.1,3,3.8,3,5.2c0,1.3-1.5,1.5-2.5,1.5
						c-4.5,0-6.2-3.8-8.5-7.1c-8.3-0.3-8.8-1.7-13.1-8.7l-0.9-1.4c4.1,0.6,2.6,0.3,7.4,0.3c-2.9-5.1-11.6-13.5-11.6-13.5
						c-2.3-1.5-4.8-3-6.3-3c-0.9,0-1.7,0.6-1.7,1.7c0,0.8-0.2,1,4.6,7.1c0.9,1.1,4,4.7,4,6.2c0,1.8-1.9,3.9-3.7,3.9
						c-4.3,0-18.3-12.9-22.1-16v3.1c5,5.1,28.4,29.2,28.4,34.7c0,1.6-2.1,2.2-3.3,2.2C370.2,178.9,356,167.2,346.9,151.6
						 M417.9,154.6c0.5,0.2,0.9-0.3,0.9-0.9c0.1-1.4-4.6-6.9-11.4-9.3C409.5,149.7,414,153.6,417.9,154.6 M301.5,161.6
						c0-1.9,1.2-3.5,3.1-3.5c3.3,0,6.2,3.9,6.2,7.1c0,1.4-1.2,2.5-2.6,2.5C305.3,167.8,301.5,164.9,301.5,161.6"/>
				</g>
			</g>
		</g>
	</g>
	<g id="g264" class="st0">
		<g class="st1">
			<defs>
				<rect id="SVGID_3_" x="-86.4" y="-370.7" width="744.1" height="1052.4"/>
			</defs>
			<clipPath id="SVGID_4_">
				<use xlink:href="#SVGID_3_"  style="overflow:visible;"/>
			</clipPath>
			<g id="g266" class="st8">
				<g id="g272" transform="translate(110.7676,422.5928)">
					<path id="path274" class="st3" d="M-12-265.5c-1.8,0-3,1.5-3,3.3c0,3.2,3.6,6,6.6,6c1.4,0,2.5-1,2.5-2.4
						C-6-261.7-8.8-265.5-12-265.5 M-62.3-263.5l4.2,0.2c0.6,0,3,0.4,3-0.8c0-1.2-2.7-1.4-3.3-1.5c-6.9-1.4-11.5-4.5-12.7-4.5
						c-1.4,0-1.7,3.2-1.7,4.1c0,3.6,1.2,7.4,3.8,9.9c4.1,3.9,26.7,15.6,32.2,15.9c2.7,0,5.1-5,5.1-6c0-1.5-2-4.6-2.9-5.9
						c-13.5-22.1-16.1-28.9-16.2-31.2c-0.2-1.9,0.3-5,2-4.5c2,0.7,5.6,2.6,21.4,28.2c-0.8,4.9,6.2,14.2,8.5,13.3
						c3.3-1.2,1.8-10.8-17.4-36.6c-2.4-3.3-9.4-13.5-13.5-13.5c-3,0-8.7,4.9-8.5,10.7c0.1,3.1,1.3,9.8,15.6,34.1
						c-6.9-3.2-13.9-6.6-19.7-11.8C-62.4-263.4-62.3-263.5-62.3-263.5z M56.5-280l7.5,6.9c1.5,1.5,9,8.8,10.9,8.8
						c0.6,0,1.4-0.2,1.7-4.3c0.2-1.9-1.9-3.6-3.1-4.7c-2.4-2.2-7.8-8.4-7.8-11.8c0-1.2,0.7-1.7,1.9-1.7c2.1,0,6.2,3,9.2,5.3
						c3.1,8.6,19.7,16.6,27.6,16.9c3.5,0.1,4.9-2.8,4.9-3.7c0-0.9-2-1.7-2.6-1.9c1.4-0.6,2.2-1.5,2.2-3.2c0-2.5-6.6-7.9-6.6-11.5
						c0-1.3,1.1-1.9,2.3-1.9c3.2,0,7.5,3.9,10.7,6.2l0.6-2.9c-3.2-3.8-13.4-12.1-17.1-12.1c-2.5,0-3.6,1.9-3.6,4.1
						c0,2.5,1.8,6.6,2.8,8.6l-7.1-5.6c-1.4-1.2-6.3-5.2-8-5.2c-1.9,0-5.4,3.9-6.4,7.6c-4.2-4.2-9.9-9.5-14.3-9.5
						c-2.8,0-4.5,2.4-4.5,5.1c0,2.3,0.8,4.5,1.6,6.5c-3.1-2.5-8.2-9.4-12.3-9.4c-3.7,0-5.7,4.3-5.7,7.7l0,0.6
						c-4.6-4.4-11.7-10.9-17.4-10.9c-2.9,0-4.8,2.1-4.8,5.2c0,2.6,1,5.5,2,7.7l-4-3c0,0-10.4-8.2-13.8-8.2c-3.2,0-5.1,3-5.1,6
						c0,5.3,3.9,9.4,6.9,13.1l-8-1.6c-1.6-2.5-5-6.7-5-6.7c-3.4-4.3-10-11.2-15.8-11.2c-4.5,0-6.5,5.3-6.5,9.2
						c0,9.4,9.4,18.7,14,18.7c1.3,0,3.3-0.5,3.3-2.2c0-3.9-7.5-10.8-10.6-13c-0.6-3.2,0.5-4.9,4-4.9c2.5,0,5,1.6,7.3,3.4
						c0,0,3.5,4.1,4.9,6.2c-1.6,0.2-2,0.8-2,2.4c0,5.6,7.7,11.1,9.5,11.1c0.8,0,1.4-0.6,1.4-1.3c0-0.8-0.2-1.5-0.5-2.2
						c7.1,1,11.2,1.9,12,1c1.1-1.5,1.7-2.7,1.8-4.1c0-2.4-1.4-3.6-3.2-5c-2.2-1.9-5.9-5.7-5.9-8.8c0-1.2,1.2-2.2,2.3-2.2
						c3.2,0,10.8,5.5,10.8,5.5c3.5,3,6.6,6.3,8.8,10.2c-4.6,0-3.2,0.3-7.2-0.3l0.8,1.4c4.2,6.7,4.7,8,12.8,8.4
						c2.3,3.2,3.9,6.8,8.3,6.8c1,0,2.4-0.2,2.4-1.5c0-1.4-2.2-3.9-2.9-5l4.7-0.4c-3.5-7.4-4.2-10.2-12.5-9.7
						c-2.6-3.4-6.9-9.8-6.9-14.4c0-1.7,0.5-2.7,2.3-2.7c2.4,0,5,2.2,12.5,7.7c1.8,5.7,5.9,10.8,9.6,13.2c1.1,0.8,2,0.9,3.3,0.9
						c1.1,0,4.9,0.7,4.6-1.6c-0.2-1.2-2.2-3.4-2.9-4.2c-2.3-2.7-2.9-3.3-5.8-5.5c-2.3-1.7-4.2-3.4-4.2-6.7c0-0.4,0.1-1.2,0.6-1.2
						C48.8-285.5,52.9-283.2,56.5-280 M102-272.3c-18-5.7-20.2-10.4-20.2-14.2c0.1-0.4,0.4-1.8,1.5-1.6c1.5,0.3,3.9,0.1,18.8,15.6
						C102.1-272.5,102-272.3,102-272.3z"/>
				</g>
				<g id="g276" transform="translate(110.7676,422.5928)">
					<path id="path278" class="st4" d="M-12-265.5c-1.8,0-3,1.5-3,3.3c0,3.2,3.6,6,6.6,6c1.4,0,2.5-1,2.5-2.4
						C-6-261.7-8.8-265.5-12-265.5z M-62.3-263.5l4.2,0.2c0.6,0,3,0.4,3-0.8c0-1.2-2.7-1.4-3.3-1.5c-6.9-1.4-11.5-4.5-12.7-4.5
						c-1.4,0-1.7,3.2-1.7,4.1c0,3.6,1.2,7.4,3.8,9.9c4.1,3.9,26.7,15.6,32.2,15.9c2.7,0,5.1-5,5.1-6c0-1.5-2-4.6-2.9-5.9
						c-13.5-22.1-16.1-28.9-16.2-31.2c-0.2-1.9,0.3-5,2-4.5c2,0.7,5.6,2.6,21.4,28.2c-0.8,4.9,6.2,14.2,8.5,13.3
						c3.3-1.2,1.8-10.8-17.4-36.6c-2.4-3.3-9.4-13.5-13.5-13.5c-3,0-8.7,4.9-8.5,10.7c0.1,3.1,1.3,9.8,15.6,34.1
						c-6.9-3.2-13.9-6.6-19.7-11.8C-62.4-263.4-62.3-263.5-62.3-263.5z M56.5-280l7.5,6.9c1.5,1.5,9,8.8,10.9,8.8
						c0.6,0,1.4-0.2,1.7-4.3c0.2-1.9-1.9-3.6-3.1-4.7c-2.4-2.2-7.8-8.4-7.8-11.8c0-1.2,0.7-1.7,1.9-1.7c2.1,0,6.2,3,9.2,5.3
						c3.1,8.6,19.7,16.6,27.6,16.9c3.5,0.1,4.9-2.8,4.9-3.7c0-0.9-2-1.7-2.6-1.9c1.4-0.6,2.2-1.5,2.2-3.2c0-2.5-6.6-7.9-6.6-11.5
						c0-1.3,1.1-1.9,2.3-1.9c3.2,0,7.5,3.9,10.7,6.2l0.6-2.9c-3.2-3.8-13.4-12.1-17.1-12.1c-2.5,0-3.6,1.9-3.6,4.1
						c0,2.5,1.8,6.6,2.8,8.6l-7.1-5.6c-1.4-1.2-6.3-5.2-8-5.2c-1.9,0-5.4,3.9-6.4,7.6c-4.2-4.2-9.9-9.5-14.3-9.5
						c-2.8,0-4.5,2.4-4.5,5.1c0,2.3,0.8,4.5,1.6,6.5c-3.1-2.5-8.2-9.4-12.3-9.4c-3.7,0-5.7,4.3-5.7,7.7l0,0.6
						c-4.6-4.4-11.7-10.9-17.4-10.9c-2.9,0-4.8,2.1-4.8,5.2c0,2.6,1,5.5,2,7.7l-4-3c0,0-10.4-8.2-13.8-8.2c-3.2,0-5.1,3-5.1,6
						c0,5.3,3.9,9.4,6.9,13.1l-8-1.6c-1.6-2.5-5-6.7-5-6.7c-3.4-4.3-10-11.2-15.8-11.2c-4.5,0-6.5,5.3-6.5,9.2
						c0,9.4,9.4,18.7,14,18.7c1.3,0,3.3-0.5,3.3-2.2c0-3.9-7.5-10.8-10.6-13c-0.6-3.2,0.5-4.9,4-4.9c2.5,0,5,1.6,7.3,3.4
						c0,0,3.5,4.1,4.9,6.2c-1.6,0.2-2,0.8-2,2.4c0,5.6,7.7,11.1,9.5,11.1c0.8,0,1.4-0.6,1.4-1.3c0-0.8-0.2-1.5-0.5-2.2
						c7.1,1,11.2,1.9,12,1c1.1-1.5,1.7-2.7,1.8-4.1c0-2.4-1.4-3.6-3.2-5c-2.2-1.9-5.9-5.7-5.9-8.8c0-1.2,1.2-2.2,2.3-2.2
						c3.2,0,10.8,5.5,10.8,5.5c3.5,3,6.6,6.3,8.8,10.2c-4.6,0-3.2,0.3-7.2-0.3l0.8,1.4c4.2,6.7,4.7,8,12.8,8.4
						c2.3,3.2,3.9,6.8,8.3,6.8c1,0,2.4-0.2,2.4-1.5c0-1.4-2.2-3.9-2.9-5l4.7-0.4c-3.5-7.4-4.2-10.2-12.5-9.7
						c-2.6-3.4-6.9-9.8-6.9-14.4c0-1.7,0.5-2.7,2.3-2.7c2.4,0,5,2.2,12.5,7.7c1.8,5.7,5.9,10.8,9.6,13.2c1.1,0.8,2,0.9,3.3,0.9
						c1.1,0,4.9,0.7,4.6-1.6c-0.2-1.2-2.2-3.4-2.9-4.2c-2.3-2.7-2.9-3.3-5.8-5.5c-2.3-1.7-4.2-3.4-4.2-6.7c0-0.4,0.1-1.2,0.6-1.2
						C48.8-285.5,52.9-283.2,56.5-280L56.5-280z M102-272.3c-18-5.7-20.2-10.4-20.2-14.2c0.1-0.4,0.4-1.8,1.5-1.6
						c1.5,0.3,3.9,0.1,18.8,15.6C102.1-272.5,102-272.3,102-272.3z"/>
				</g>
				<g id="g280" transform="translate(110.1787,423.1816)">
					<path id="path282" class="st5" d="M-12-265.5c-1.8,0-3,1.5-3,3.3c0,3.2,3.6,6,6.6,6c1.4,0,2.5-1,2.5-2.4
						C-6-261.7-8.8-265.5-12-265.5 M-62.3-263.5l4.2,0.2c0.6,0,3,0.4,3-0.8c0-1.2-2.7-1.4-3.3-1.5c-6.9-1.4-11.5-4.5-12.7-4.5
						c-1.4,0-1.7,3.2-1.7,4.1c0,3.6,1.2,7.4,3.8,9.9c4.1,3.9,26.7,15.6,32.2,15.9c2.7,0,5.1-5,5.1-6c0-1.5-2-4.6-2.9-5.9
						c-13.5-22.1-16.1-28.9-16.2-31.2c-0.2-1.9,0.3-5,2-4.5c2,0.7,5.6,2.6,21.4,28.2c-0.8,4.9,6.2,14.2,8.5,13.3
						c3.3-1.2,1.8-10.8-17.4-36.6c-2.4-3.3-9.4-13.5-13.5-13.5c-3,0-8.7,4.9-8.5,10.7c0.1,3.1,1.3,9.8,15.6,34.1
						c-6.9-3.2-13.9-6.6-19.7-11.8C-62.4-263.4-62.3-263.5-62.3-263.5z M56.5-280l7.5,6.9c1.5,1.5,9,8.8,10.9,8.8
						c0.6,0,1.4-0.2,1.7-4.3c0.2-1.9-1.9-3.6-3.1-4.7c-2.4-2.2-7.8-8.4-7.8-11.8c0-1.2,0.7-1.7,1.9-1.7c2.1,0,6.2,3,9.2,5.3
						c3.1,8.6,19.7,16.6,27.6,16.9c3.5,0.1,4.9-2.8,4.9-3.7c0-0.9-2-1.7-2.6-1.9c1.4-0.6,2.2-1.5,2.2-3.2c0-2.5-6.6-7.9-6.6-11.5
						c0-1.3,1.1-1.9,2.3-1.9c3.2,0,7.5,3.9,10.7,6.2l0.6-2.9c-3.2-3.8-13.4-12.1-17.1-12.1c-2.5,0-3.6,1.9-3.6,4.1
						c0,2.5,1.8,6.6,2.8,8.6l-7.1-5.6c-1.4-1.2-6.3-5.2-8-5.2c-1.9,0-5.4,3.9-6.4,7.6c-4.2-4.2-9.9-9.5-14.3-9.5
						c-2.8,0-4.5,2.4-4.5,5.1c0,2.3,0.8,4.5,1.6,6.5c-3.1-2.5-8.2-9.4-12.3-9.4c-3.7,0-5.7,4.3-5.7,7.7l0,0.6
						c-4.6-4.4-11.7-10.9-17.4-10.9c-2.9,0-4.8,2.1-4.8,5.2c0,2.6,1,5.5,2,7.7l-4-3c0,0-10.4-8.2-13.8-8.2c-3.2,0-5.1,3-5.1,6
						c0,5.3,3.9,9.4,6.9,13.1l-8-1.6c-1.6-2.5-5-6.7-5-6.7c-3.4-4.3-10-11.2-15.8-11.2c-4.5,0-6.5,5.3-6.5,9.2
						c0,9.4,9.4,18.7,14,18.7c1.3,0,3.3-0.5,3.3-2.2c0-3.9-7.5-10.8-10.6-13c-0.6-3.2,0.5-4.9,4-4.9c2.5,0,5,1.6,7.3,3.4
						c0,0,3.5,4.1,4.9,6.2c-1.6,0.2-2,0.8-2,2.4c0,5.6,7.7,11.1,9.5,11.1c0.8,0,1.4-0.6,1.4-1.3c0-0.8-0.2-1.5-0.5-2.2
						c7.1,1,11.2,1.9,12,1c1.1-1.5,1.7-2.7,1.8-4.1c0-2.4-1.4-3.6-3.2-5c-2.2-1.9-5.9-5.7-5.9-8.8c0-1.2,1.2-2.2,2.3-2.2
						c3.2,0,10.8,5.5,10.8,5.5c3.5,3,6.6,6.3,8.8,10.2c-4.6,0-3.2,0.3-7.2-0.3l0.8,1.4c4.2,6.7,4.7,8,12.8,8.4
						c2.3,3.2,3.9,6.8,8.3,6.8c1,0,2.4-0.2,2.4-1.5c0-1.4-2.2-3.9-2.9-5l4.7-0.4c-3.5-7.4-4.2-10.2-12.5-9.7
						c-2.6-3.4-6.9-9.8-6.9-14.4c0-1.7,0.5-2.7,2.3-2.7c2.4,0,5,2.2,12.5,7.7c1.8,5.7,5.9,10.8,9.6,13.2c1.1,0.8,2,0.9,3.3,0.9
						c1.1,0,4.9,0.7,4.6-1.6c-0.2-1.2-2.2-3.4-2.9-4.2c-2.3-2.7-2.9-3.3-5.8-5.5c-2.3-1.7-4.2-3.4-4.2-6.7c0-0.4,0.1-1.2,0.6-1.2
						C48.8-285.5,52.9-283.2,56.5-280 M102-272.3c-18-5.7-20.2-10.4-20.2-14.2c0.1-0.4,0.4-1.8,1.5-1.6c1.5,0.3,3.8,0.1,18.8,15.6
						C102.1-272.5,102-272.3,102-272.3z"/>
				</g>
				<g id="g284" transform="translate(110.1787,423.1816)">
					<path id="path286" class="st6" d="M-12-265.5c-1.8,0-3,1.5-3,3.3c0,3.2,3.6,6,6.6,6c1.4,0,2.5-1,2.5-2.4
						C-6-261.7-8.8-265.5-12-265.5z M-62.3-263.5l4.2,0.2c0.6,0,3,0.4,3-0.8c0-1.2-2.7-1.4-3.3-1.5c-6.9-1.4-11.5-4.5-12.7-4.5
						c-1.4,0-1.7,3.2-1.7,4.1c0,3.6,1.2,7.4,3.8,9.9c4.1,3.9,26.7,15.6,32.2,15.9c2.7,0,5.1-5,5.1-6c0-1.5-2-4.6-2.9-5.9
						c-13.5-22.1-16.1-28.9-16.2-31.2c-0.2-1.9,0.3-5,2-4.5c2,0.7,5.6,2.6,21.4,28.2c-0.8,4.9,6.2,14.2,8.5,13.3
						c3.3-1.2,1.8-10.8-17.4-36.6c-2.4-3.3-9.4-13.5-13.5-13.5c-3,0-8.7,4.9-8.5,10.7c0.1,3.1,1.3,9.8,15.6,34.1
						c-6.9-3.2-13.9-6.6-19.7-11.8C-62.4-263.4-62.3-263.5-62.3-263.5z M56.5-280l7.5,6.9c1.5,1.5,9,8.8,10.9,8.8
						c0.6,0,1.4-0.2,1.7-4.3c0.2-1.9-1.9-3.6-3.1-4.7c-2.4-2.2-7.8-8.4-7.8-11.8c0-1.2,0.7-1.7,1.9-1.7c2.1,0,6.2,3,9.2,5.3
						c3.1,8.6,19.7,16.6,27.6,16.9c3.5,0.1,4.9-2.8,4.9-3.7c0-0.9-2-1.7-2.6-1.9c1.4-0.6,2.2-1.5,2.2-3.2c0-2.5-6.6-7.9-6.6-11.5
						c0-1.3,1.1-1.9,2.3-1.9c3.2,0,7.5,3.9,10.7,6.2l0.6-2.9c-3.2-3.8-13.4-12.1-17.1-12.1c-2.5,0-3.6,1.9-3.6,4.1
						c0,2.5,1.8,6.6,2.8,8.6l-7.1-5.6c-1.4-1.2-6.3-5.2-8-5.2c-1.9,0-5.4,3.9-6.4,7.6c-4.2-4.2-9.9-9.5-14.3-9.5
						c-2.8,0-4.5,2.4-4.5,5.1c0,2.3,0.8,4.5,1.6,6.5c-3.1-2.5-8.2-9.4-12.3-9.4c-3.7,0-5.7,4.3-5.7,7.7l0,0.6
						c-4.6-4.4-11.7-10.9-17.4-10.9c-2.9,0-4.8,2.1-4.8,5.2c0,2.6,1,5.5,2,7.7l-4-3c0,0-10.4-8.2-13.8-8.2c-3.2,0-5.1,3-5.1,6
						c0,5.3,3.9,9.4,6.9,13.1l-8-1.6c-1.6-2.5-5-6.7-5-6.7c-3.4-4.3-10-11.2-15.8-11.2c-4.5,0-6.5,5.3-6.5,9.2
						c0,9.4,9.4,18.7,14,18.7c1.3,0,3.3-0.5,3.3-2.2c0-3.9-7.5-10.8-10.6-13c-0.6-3.2,0.5-4.9,4-4.9c2.5,0,5,1.6,7.3,3.4
						c0,0,3.5,4.1,4.9,6.2c-1.6,0.2-2,0.8-2,2.4c0,5.6,7.7,11.1,9.5,11.1c0.8,0,1.4-0.6,1.4-1.3c0-0.8-0.2-1.5-0.5-2.2
						c7.1,1,11.2,1.9,12,1c1.1-1.5,1.7-2.7,1.8-4.1c0-2.4-1.4-3.6-3.2-5c-2.2-1.9-5.9-5.7-5.9-8.8c0-1.2,1.2-2.2,2.3-2.2
						c3.2,0,10.8,5.5,10.8,5.5c3.5,3,6.6,6.3,8.8,10.2c-4.6,0-3.2,0.3-7.2-0.3l0.8,1.4c4.2,6.7,4.7,8,12.8,8.4
						c2.3,3.2,3.9,6.8,8.3,6.8c1,0,2.4-0.2,2.4-1.5c0-1.4-2.2-3.9-2.9-5l4.7-0.4c-3.5-7.4-4.2-10.2-12.5-9.7
						c-2.6-3.4-6.9-9.8-6.9-14.4c0-1.7,0.5-2.7,2.3-2.7c2.4,0,5,2.2,12.5,7.7c1.8,5.7,5.9,10.8,9.6,13.2c1.1,0.8,2,0.9,3.3,0.9
						c1.1,0,4.9,0.7,4.6-1.6c-0.2-1.2-2.2-3.4-2.9-4.2c-2.3-2.7-2.9-3.3-5.8-5.5c-2.3-1.7-4.2-3.4-4.2-6.7c0-0.4,0.1-1.2,0.6-1.2
						C48.8-285.5,52.9-283.2,56.5-280L56.5-280z M102-272.3c-18-5.7-20.2-10.4-20.2-14.2c0.1-0.4,0.4-1.8,1.5-1.6
						c1.5,0.3,3.8,0.1,18.8,15.6C102.1-272.5,102-272.3,102-272.3z"/>
				</g>
				<g id="g288" transform="translate(109.5898,424.3594)">
					<path id="path290" class="st3" d="M-12-265.5c-1.8,0-3,1.5-3,3.3c0,3.2,3.6,6,6.6,6c1.4,0,2.5-1,2.5-2.4
						C-6-261.7-8.8-265.5-12-265.5 M-62.3-263.5l4.2,0.2c0.6,0,3,0.4,3-0.8c0-1.2-2.7-1.4-3.3-1.5c-6.9-1.4-11.5-4.5-12.7-4.5
						c-1.4,0-1.7,3.2-1.7,4.1c0,3.6,1.2,7.4,3.8,9.9c4.1,3.9,26.7,15.6,32.2,15.9c2.7,0,5.1-5,5.1-6c0-1.5-2-4.6-2.9-5.9
						c-13.5-22.1-16.1-28.9-16.2-31.2c-0.2-1.9,0.3-5,2-4.5c2,0.7,5.6,2.6,21.4,28.2c-0.8,4.9,6.2,14.2,8.5,13.3
						c3.3-1.2,1.8-10.8-17.4-36.6c-2.4-3.3-9.4-13.5-13.5-13.5c-3,0-8.7,4.9-8.5,10.7c0.1,3.1,1.3,9.8,15.6,34.1
						c-6.9-3.2-13.9-6.6-19.7-11.8C-62.4-263.4-62.3-263.5-62.3-263.5z M56.5-280l7.5,6.9c1.5,1.5,9,8.8,10.9,8.8
						c0.6,0,1.4-0.2,1.7-4.3c0.2-1.9-1.9-3.6-3.1-4.7c-2.4-2.2-7.8-8.4-7.8-11.8c0-1.2,0.7-1.7,1.9-1.7c2.1,0,6.2,3,9.2,5.3
						c3.1,8.6,19.7,16.6,27.6,16.9c3.5,0.1,4.9-2.8,4.9-3.7c0-0.9-2-1.7-2.6-1.9c1.4-0.6,2.2-1.5,2.2-3.2c0-2.5-6.6-7.9-6.6-11.5
						c0-1.3,1.1-1.9,2.3-1.9c3.2,0,7.5,3.9,10.7,6.2l0.6-2.9c-3.2-3.8-13.4-12.1-17.1-12.1c-2.5,0-3.6,1.9-3.6,4.1
						c0,2.5,1.8,6.6,2.8,8.6l-7.1-5.6c-1.4-1.2-6.3-5.2-8-5.2c-1.9,0-5.4,3.9-6.4,7.6c-4.2-4.2-9.9-9.5-14.3-9.5
						c-2.8,0-4.5,2.4-4.5,5.1c0,2.3,0.8,4.5,1.6,6.5c-3.1-2.5-8.2-9.4-12.3-9.4c-3.7,0-5.7,4.3-5.7,7.7l0,0.6
						c-4.6-4.4-11.7-10.9-17.4-10.9c-2.9,0-4.8,2.1-4.8,5.2c0,2.6,1,5.5,2,7.7l-4-3c0,0-10.4-8.2-13.8-8.2c-3.2,0-5.1,3-5.1,6
						c0,5.3,3.9,9.4,6.9,13.1l-8-1.6c-1.6-2.5-5-6.7-5-6.7c-3.4-4.3-10-11.2-15.8-11.2c-4.5,0-6.5,5.3-6.5,9.2
						c0,9.4,9.4,18.7,14,18.7c1.3,0,3.3-0.5,3.3-2.2c0-3.9-7.5-10.8-10.6-13c-0.6-3.2,0.5-4.9,4-4.9c2.5,0,5,1.6,7.3,3.4
						c0,0,3.5,4.1,4.9,6.2c-1.6,0.2-2,0.8-2,2.4c0,5.6,7.7,11.1,9.5,11.1c0.8,0,1.4-0.6,1.4-1.3c0-0.8-0.2-1.5-0.5-2.2
						c7.1,1,11.2,1.9,12,1c1.1-1.5,1.7-2.7,1.8-4.1c0-2.4-1.4-3.6-3.2-5c-2.2-1.9-5.9-5.7-5.9-8.8c0-1.2,1.2-2.2,2.3-2.2
						c3.2,0,10.8,5.5,10.8,5.5c3.5,3,6.6,6.3,8.8,10.2c-4.6,0-3.2,0.3-7.2-0.3l0.8,1.4c4.2,6.7,4.7,8,12.8,8.4
						c2.3,3.2,3.9,6.8,8.3,6.8c1,0,2.4-0.2,2.4-1.5c0-1.4-2.2-3.9-2.9-5l4.7-0.4c-3.5-7.4-4.2-10.2-12.5-9.7
						c-2.6-3.4-6.9-9.8-6.9-14.4c0-1.7,0.5-2.7,2.3-2.7c2.4,0,5,2.2,12.5,7.7c1.8,5.7,5.9,10.8,9.6,13.2c1.1,0.8,2,0.9,3.3,0.9
						c1.1,0,4.9,0.7,4.6-1.6c-0.2-1.2-2.2-3.4-2.9-4.2c-2.3-2.7-2.9-3.3-5.8-5.5c-2.3-1.7-4.2-3.4-4.2-6.7c0-0.4,0.1-1.2,0.6-1.2
						C48.8-285.5,52.9-283.2,56.5-280 M102-272.3c-18-5.7-20.2-10.4-20.2-14.2c0.1-0.4,0.4-1.8,1.5-1.6c1.5,0.3,3.9,0.1,18.8,15.6
						C102.1-272.5,102-272.3,102-272.3z"/>
				</g>
				<g id="g292" transform="translate(109.5898,424.3594)">
					<path id="path294" class="st7" d="M-12-265.5c-1.8,0-3,1.5-3,3.3c0,3.2,3.6,6,6.6,6c1.4,0,2.5-1,2.5-2.4
						C-6-261.7-8.8-265.5-12-265.5z M-62.3-263.5l4.2,0.2c0.6,0,3,0.4,3-0.8c0-1.2-2.7-1.4-3.3-1.5c-6.9-1.4-11.5-4.5-12.7-4.5
						c-1.4,0-1.7,3.2-1.7,4.1c0,3.6,1.2,7.4,3.8,9.9c4.1,3.9,26.7,15.6,32.2,15.9c2.7,0,5.1-5,5.1-6c0-1.5-2-4.6-2.9-5.9
						c-13.5-22.1-16.1-28.9-16.2-31.2c-0.2-1.9,0.3-5,2-4.5c2,0.7,5.6,2.6,21.4,28.2c-0.8,4.9,6.2,14.2,8.5,13.3
						c3.3-1.2,1.8-10.8-17.4-36.6c-2.4-3.3-9.4-13.5-13.5-13.5c-3,0-8.7,4.9-8.5,10.7c0.1,3.1,1.3,9.8,15.6,34.1
						c-6.9-3.2-13.9-6.6-19.7-11.8C-62.4-263.4-62.3-263.5-62.3-263.5z M56.5-280l7.5,6.9c1.5,1.5,9,8.8,10.9,8.8
						c0.6,0,1.4-0.2,1.7-4.3c0.2-1.9-1.9-3.6-3.1-4.7c-2.4-2.2-7.8-8.4-7.8-11.8c0-1.2,0.7-1.7,1.9-1.7c2.1,0,6.2,3,9.2,5.3
						c3.1,8.6,19.7,16.6,27.6,16.9c3.5,0.1,4.9-2.8,4.9-3.7c0-0.9-2-1.7-2.6-1.9c1.4-0.6,2.2-1.5,2.2-3.2c0-2.5-6.6-7.9-6.6-11.5
						c0-1.3,1.1-1.9,2.3-1.9c3.2,0,7.5,3.9,10.7,6.2l0.6-2.9c-3.2-3.8-13.4-12.1-17.1-12.1c-2.5,0-3.6,1.9-3.6,4.1
						c0,2.5,1.8,6.6,2.8,8.6l-7.1-5.6c-1.4-1.2-6.3-5.2-8-5.2c-1.9,0-5.4,3.9-6.4,7.6c-4.2-4.2-9.9-9.5-14.3-9.5
						c-2.8,0-4.5,2.4-4.5,5.1c0,2.3,0.8,4.5,1.6,6.5c-3.1-2.5-8.2-9.4-12.3-9.4c-3.7,0-5.7,4.3-5.7,7.7l0,0.6
						c-4.6-4.4-11.7-10.9-17.4-10.9c-2.9,0-4.8,2.1-4.8,5.2c0,2.6,1,5.5,2,7.7l-4-3c0,0-10.4-8.2-13.8-8.2c-3.2,0-5.1,3-5.1,6
						c0,5.3,3.9,9.4,6.9,13.1l-8-1.6c-1.6-2.5-5-6.7-5-6.7c-3.4-4.3-10-11.2-15.8-11.2c-4.5,0-6.5,5.3-6.5,9.2
						c0,9.4,9.4,18.7,14,18.7c1.3,0,3.3-0.5,3.3-2.2c0-3.9-7.5-10.8-10.6-13c-0.6-3.2,0.5-4.9,4-4.9c2.5,0,5,1.6,7.3,3.4
						c0,0,3.5,4.1,4.9,6.2c-1.6,0.2-2,0.8-2,2.4c0,5.6,7.7,11.1,9.5,11.1c0.8,0,1.4-0.6,1.4-1.3c0-0.8-0.2-1.5-0.5-2.2
						c7.1,1,11.2,1.9,12,1c1.1-1.5,1.7-2.7,1.8-4.1c0-2.4-1.4-3.6-3.2-5c-2.2-1.9-5.9-5.7-5.9-8.8c0-1.2,1.2-2.2,2.3-2.2
						c3.2,0,10.8,5.5,10.8,5.5c3.5,3,6.6,6.3,8.8,10.2c-4.6,0-3.2,0.3-7.2-0.3l0.8,1.4c4.2,6.7,4.7,8,12.8,8.4
						c2.3,3.2,3.9,6.8,8.3,6.8c1,0,2.4-0.2,2.4-1.5c0-1.4-2.2-3.9-2.9-5l4.7-0.4c-3.5-7.4-4.2-10.2-12.5-9.7
						c-2.6-3.4-6.9-9.8-6.9-14.4c0-1.7,0.5-2.7,2.3-2.7c2.4,0,5,2.2,12.5,7.7c1.8,5.7,5.9,10.8,9.6,13.2c1.1,0.8,2,0.9,3.3,0.9
						c1.1,0,4.9,0.7,4.6-1.6c-0.2-1.2-2.2-3.4-2.9-4.2c-2.3-2.7-2.9-3.3-5.8-5.5c-2.3-1.7-4.2-3.4-4.2-6.7c0-0.4,0.1-1.2,0.6-1.2
						C48.8-285.5,52.9-283.2,56.5-280L56.5-280z M102-272.3c-18-5.7-20.2-10.4-20.2-14.2c0.1-0.4,0.4-1.8,1.5-1.6
						c1.5,0.3,3.9,0.1,18.8,15.6C102.1-272.5,102-272.3,102-272.3z"/>
				</g>
			</g>
		</g>
	</g>
	<g id="g296">
		<g id="g298">
			<g id="g304">
				<g id="g306">
					<path id="path316" class="st3" d="M40.7,168.2c-2.6-2.5-3.9-6.3-3.9-9.9c0-0.9,0.2-4.1,1.7-4.1c1.2,0,5.8,3.1,12.7,4.5
						c0.6,0.2,3.3,0.4,3.3,1.5c0,1.2-2.4,0.8-3,0.8l-4.2-0.2l-0.2,0.2c5.8,5.2,12.8,8.6,19.7,11.8c-14.3-24.3-15.6-31-15.6-34.1
						c-0.2-5.8,5.5-10.7,8.5-10.7c4.1,0,11.1,10.2,13.5,13.5c19.2,25.9,20.8,35.4,17.4,36.6c-2.3,0.9-9.4-8.4-8.5-13.3
						c-15.8-25.6-19.3-27.6-21.4-28.2c-1.7-0.5-2.1,2.6-2,4.5c0.2,2.2,2.7,9.1,16.2,31.2c0.8,1.3,2.9,4.3,2.9,5.9c0,1.1-2.3,6-5.1,6
						C67.5,183.9,44.8,172.1,40.7,168.2 M143.8,163c-8.1-0.3-8.6-1.6-12.8-8.4l-0.8-1.4c4,0.6,2.6,0.3,7.2,0.3
						c-2.2-3.9-5.4-7.2-8.8-10.2c0,0-7.5-5.5-10.8-5.5c-1.1,0-2.3,0.9-2.3,2.2c0,3.1,3.7,6.9,5.9,8.8c1.7,1.5,3.2,2.6,3.2,5
						c-0.2,1.4-0.7,2.6-1.8,4.1c-0.8,0.9-4.9,0-12-1c0.3,0.7,0.5,1.4,0.5,2.2c0,0.7-0.6,1.3-1.4,1.3c-1.8,0-9.5-5.6-9.5-11.1
						c0-1.6,0.5-2.2,2-2.4c-1.4-2.1-4.9-6.2-4.9-6.2c-2.3-1.8-4.8-3.4-7.3-3.4c-3.5,0-4.6,1.7-4,4.9c3.2,2.2,10.6,9.1,10.6,13
						c0,1.7-2,2.2-3.3,2.2c-4.5,0-14-9.2-14-18.7c0-3.9,2-9.2,6.5-9.2c5.7,0,12.4,7,15.8,11.2c0,0,3.4,4.2,5,6.7l8,1.6
						c-3-3.7-6.9-7.8-6.9-13.1c0-2.9,2-6,5.1-6c3.4,0,13.8,8.2,13.8,8.2l4,3c-1-2.2-2-5.2-2-7.7c0-3.1,1.8-5.2,4.8-5.2
						c5.7,0,12.7,6.5,17.4,10.9l0-0.6c0-3.3,2-7.7,5.7-7.7c4.2,0,9.2,7,12.3,9.4c-0.8-2-1.6-4.2-1.6-6.5c0-2.7,1.7-5.1,4.5-5.1
						c4.3,0,10.1,5.3,14.3,9.5c1-3.7,4.6-7.6,6.4-7.6c1.7,0,6.6,4,8,5.2l7.1,5.6c-1-2-2.8-6.1-2.8-8.6c0-2.2,1.1-4.1,3.6-4.1
						c3.7,0,13.8,8.3,17.1,12.1l-0.6,2.9c-3.2-2.2-7.5-6.2-10.7-6.2c-1.2,0-2.3,0.5-2.3,1.9c0,3.6,6.6,9.1,6.6,11.5
						c0,1.7-0.8,2.6-2.2,3.2c0.7,0.2,2.6,1,2.6,1.9c0,0.9-1.4,3.8-4.9,3.7c-7.9-0.2-24.5-8.2-27.6-16.9c-2.9-2.3-7-5.3-9.2-5.3
						c-1.2,0-1.9,0.5-1.9,1.7c0,3.5,5.4,9.6,7.8,11.8c1.2,1.1,3.2,2.9,3.1,4.7c-0.3,4-1.1,4.3-1.7,4.3c-1.9,0-9.4-7.3-10.9-8.8
						l-7.5-6.9c-3.6-3.2-7.7-5.5-9.1-5.5c-0.5,0-0.6,0.8-0.6,1.2c0,3.3,1.8,5,4.2,6.7c2.9,2.2,3.5,2.8,5.8,5.5
						c0.8,0.8,2.8,2.9,2.9,4.2c0.3,2.3-3.5,1.6-4.6,1.6c-1.3,0-2.3-0.1-3.3-0.9c-3.7-2.4-7.9-7.6-9.6-13.2
						c-7.5-5.5-10.2-7.7-12.5-7.7c-1.7,0-2.3,1-2.3,2.7c0,4.6,4.3,11,6.9,14.4c8.3-0.5,8.9,2.3,12.5,9.7l-4.7,0.4
						c0.8,1.1,2.9,3.6,2.9,5c0,1.2-1.4,1.5-2.4,1.5C147.8,169.8,146.1,166.2,143.8,163 M191.4,137.8c0,3.8,2.2,8.5,20.2,14.2
						l0.2-0.2c-14.9-15.5-17.3-15.3-18.8-15.6c-0.1,0-0.2,0-0.2,0C191.7,136.3,191.5,137.5,191.4,137.8 M94.6,162.2
						c0-1.9,1.2-3.3,3-3.3c3.2,0,6,3.8,6,6.9c0,1.4-1.1,2.4-2.5,2.4C98.2,168.2,94.6,165.4,94.6,162.2"/>
				</g>
			</g>
		</g>
	</g>
</g>
</svg>
