<?xml version="1.0" encoding="utf-8"?>
<!-- Generator: Adobe Illustrator 19.0.0, SVG Export Plug-In . SVG Version: 6.00 Build 0)  -->
<svg version="1.1" id="Layer_1" xmlns="http://www.w3.org/2000/svg" xmlns:xlink="http://www.w3.org/1999/xlink" x="0px" y="0px"
	 viewBox="868.3 271.8 2279.4 614.5" style="enable-background:new 868.3 271.8 2279.4 614.5;" xml:space="preserve">
<style type="text/css">
	.st0{fill:#FFFFFF;}
</style>
<g>
	<path class="st0" d="M1923.2,394.8l114-123.1l122.2,124.9l-63.8,37.4l-41.9-42.9l-29.2,30.1V734l29.2,29.2l70.2-56.5l29.2,75.7
		l-113.1,103.9l-116.7-125.8V394.8z"/>
	<path class="st0" d="M2115.6,451.4l169.6-97.6l147.7,159.6l-97.5,92.1l65.6,30.1v92.1c0,31,9.1,45.6,31.9,67.5h-87.5
		c-19.2-13.7-35.6-41.9-35.6-78.4v-39.2l-50.1-32.8v84.8c0,25.5,5.4,37.4,30.1,65.7h-151.4c36.5-37.4,36.5-62.9,36.5-94.8V482.4
		L2115.6,451.4z M2259.6,458.7V559l50.1-47.4L2259.6,458.7z M1592.2,462.3l163.2-103l157.7,163.2l-95.7,88.4l67.5,33.7v83.9
		c0,31,13.7,44.7,36.5,66.6h-90.3c-20.1-13.7-40.1-42.9-40.1-71.1v-34.7l-51.1-31.9v73.8c0,24.6,4.6,36.5,31,63.8H1615
		c37.4-35.6,37.4-61.1,37.4-92.1V492.4L1592.2,462.3z M1739.9,465v101.2l56.5-45.6L1739.9,465z"/>
	<path class="st0" d="M1384.3,450.5c49.2-27.4,107.6-61.1,155.9-89.4c-8.2,47.4-9.1,65.7,1.8,104.9c11.3,40.2,22.8,80.3,34.6,120.3
		c17.8-2.8,35.8-4.6,53.8-5.5v32.8c-14.6,2.7-29.2,7.3-42.9,11.9c7.3,27.3,15.5,55.6,24.6,87.5c11.8,43.8,16.4,59.3,44.7,82.1
		h-145.9c26.4-54.7,20.1-78.4,10-115.8l-6.4-24.6c-27.4,13.7-49.2,29.2-69.3,45.6c-13.7,10.9-20.1,15.5-21.9,32.8
		c-1.8,26.4,15.5,41,39.2,62h-145c36.5-25.5,40.1-44.7,45.6-71.1c14.6-71.1,29.2-140.4,43.8-210.6
		C1414.4,478.7,1412.6,465,1384.3,450.5z M1501,605.5L1471,496c-0.9,3.6-14.6,78.4-28.3,141.3C1462.7,623.7,1481,613.7,1501,605.5z
		 M2451.1,437.7c55.3-30.2,110.3-60.9,165-92.1c-9.1,48.3-9.1,68.4,1.8,108.5c11.9,41,21.9,75.7,31.9,110.3
		c20.1-3.6,39.2-5.5,60.2-7.3v35.6c-16.1,3.3-32,7.9-47.4,13.7c9.1,31.9,18.2,65.6,29.2,103.9c13.7,45.6,18.2,61.1,47.4,84.8H2587
		c28.3-56.5,21-81.2,10.9-119.4l-10-36.5c-27.6,15.1-53.3,33.5-76.6,54.7c-10.9,10-13.7,13.7-17.3,28.3
		c-6.4,32.8,11.9,49.2,40.1,72.9H2380c39.2-26.4,42.8-46.5,49.2-73.8c15.5-73.8,30.1-144.1,46.5-218.8
		C2483,467.8,2481.2,453.2,2451.1,437.7L2451.1,437.7z M2573.3,586.3l-29.2-101.2c-0.9,3.6-14.6,72-28.3,134
		C2535,605.5,2553.2,594.5,2573.3,586.3z M2903.3,376.6h244.4v107.6c-13.7-13.7-23.7-22.8-44.7-22.8h-39.2v232.5
		c0,47.4,17.3,79.3,44.7,101.2h-166.8c36.5-31.9,37.4-61.1,37.4-100.3V461.4h-29.2c-25.5,0-33.7,8.2-46.5,22.8L2903.3,376.6
		L2903.3,376.6z"/>
	<path class="st0" d="M2667.2,463.2c60.2-41.9,119.4-83.9,179.6-125.8c19.2,20.1,37.4,40.1,56.5,60.2v86.6
		c-16.4-15.5-32.8-31-48.3-45.6c-10.9,7.3-21.9,15.5-32.8,22.8V548h81.2v88.4c-13.7-14.6-24.6-14.6-36.5-14.6h-44.7v90.3
		c0,33.7,0,56.5,31.9,83H2700c29.2-28.3,31-40.1,31-88.4V487.8C2710,479.6,2688.1,471.4,2667.2,463.2L2667.2,463.2z M868.3,288.2
		h159.6c-14.6,37.4-6.4,78.4,0.9,113.1c15.5,72,30.1,143.2,45.6,214.3c24.6-103.9,49.2-207.9,73-311.8
		c25.5,102.1,50.1,204.2,75.7,305.5c12.8-73,28.3-167.8,41-241.6c8.2-46.5,10-59.3-13.7-79.3h166.8c-44.7,48.3-47.4,67.5-60.2,139.5
		c-15.5,90.3-31,179.6-45.6,269.9c-7.3,39.2-10.9,64.7,13.7,97.6h-155.9c10-33.7,5.5-60.2,0-87.5c-5.5-35.6-11.9-70.2-18.2-105.8
		c-5.5,25.5-11.9,52-17.3,77.5c-13.7,58.4-18.2,78.4-2.7,115.8H967.7c35.6-28.3,37.4-38.3,20.1-112.1
		c-21.9-91.2-49.2-209.7-71.1-300.9C903.8,326.5,902.9,321,868.3,288.2L868.3,288.2z"/>
</g>
</svg>
