<?xml version="1.0" encoding="utf-8"?>
<!-- Generator: Adobe Illustrator 19.0.0, SVG Export Plug-In . SVG Version: 6.00 Build 0)  -->
<svg version="1.1"
	 id="svg3915" xmlns:dc="http://purl.org/dc/elements/1.1/" xmlns:cc="http://creativecommons.org/ns#" xmlns:rdf="http://www.w3.org/1999/02/22-rdf-syntax-ns#" xmlns:svg="http://www.w3.org/2000/svg" xmlns:sodipodi="http://sodipodi.sourceforge.net/DTD/sodipodi-0.dtd" xmlns:inkscape="http://www.inkscape.org/namespaces/inkscape" sodipodi:docname="WarioWare Logo.svg" inkscape:version="1.0.1 (3bc2e813f5, 2020-09-07)"
	 xmlns="http://www.w3.org/2000/svg" xmlns:xlink="http://www.w3.org/1999/xlink" x="0px" y="0px" viewBox="119 379.7 819 179.3"
	 style="enable-background:new 119 379.7 819 179.3;" xml:space="preserve">
<style type="text/css">
	.st0{clip-path:url(#SVGID_2_);}
	.st1{fill:#FFFFFF;}
</style>
<sodipodi:namedview  fit-margin-left="0" fit-margin-top="0" showgrid="false" inkscape:cy="129.86457" inkscape:cx="188.76819" inkscape:zoom="0.49497475" borderopacity="1.0" bordercolor="#666666" pagecolor="#ffffff" id="base" inkscape:window-maximized="0" inkscape:window-y="0" inkscape:window-x="76" inkscape:window-height="1020" inkscape:window-width="1624" fit-margin-bottom="0" inkscape:current-layer="layer1" inkscape:document-units="mm" inkscape:pageopacity="0.0" inkscape:document-rotation="0" inkscape:pageshadow="2" fit-margin-right="0">
	</sodipodi:namedview>
<g id="layer1" transform="translate(136.99034,-76.009047)" inkscape:label="Layer 1" inkscape:groupmode="layer">
	<g id="g3340" transform="matrix(3.1509432,0,0,-3.1509432,-377.47447,1646.4869)">
		<g id="g1691">
			<g>
				<defs>
					<rect id="SVGID_1_" x="-2516.7" y="-2854.9" width="7074" height="5466.3"/>
				</defs>
				<clipPath id="SVGID_2_">
					<use xlink:href="#SVGID_1_"  style="overflow:visible;"/>
				</clipPath>
				<g id="g1693" class="st0">
					<g id="g1723" transform="translate(162.6112,477.047)">
						<path id="path1725" class="st1" d="M196.1-113.9"/>
					</g>
					<path class="st1" d="M370.8,363.4c-2.8,3.2-7.1,5-12.2,4.9c-2.3,0-4.5-0.4-6.5-1.1c-1.1,0.6-2.4,1-3.7,0.9
						c-0.9,0-1.7-0.2-2.6-0.4c-1.2,0.7-2.5,1.1-3.8,1.1h-9.6c-1.6,0-3.1-0.5-4.3-1.4c-4.4,2-9.8,2.2-14.7,1.5c0,0.1,0,0.1,0,0.1
						c0.4,2.2-0.2,4.4-1.6,6.1c-1.4,1.7-3.5,2.6-5.7,2.6l-12.2,0c-0.7,0-1.4-0.2-2.1-0.4c-0.7,0.2-1.4,0.4-2.2,0.4h-12.1
						c-0.7,0-1.4-0.2-2.1-0.4c-0.7,0.2-1.4,0.4-2.2,0.4h-12.1c-3.6,0-6.7-2.6-7.3-6.1l-1.6-9.1c-0.4,0.7-0.9,1.5-1.4,2.1
						c-2.8,3.3-7.1,5-12.2,4.9c-2.8,0-5.5-0.6-7.8-1.7c-1.1,0.6-2.4,1-3.7,1h-9.4c-1.2,0-2.3-0.3-3.3-0.8c-0.6-0.1-1.3-0.2-1.9-0.3
						c-1.2,0.7-2.5,1.1-3.8,1.1h-9.6c-1.6,0-3.1-0.5-4.3-1.4c-4.5,2.1-10.1,2.2-15.2,1.4c0,0.1,0,0.2,0,0.2c0.4,2.2-0.2,4.4-1.6,6.1
						c-1.4,1.7-3.5,2.6-5.7,2.6H160c-0.7,0-1.4-0.2-2.1-0.4c-0.7,0.2-1.4,0.4-2.2,0.4h-12.1c-0.7,0-1.4-0.2-2.1-0.4
						c-0.7,0.2-1.4,0.4-2.2,0.4h-12.1c-3.6,0-6.7-2.6-7.3-6.1l-5.5-31c-0.6-3.1-0.9-9.1,3.3-13.9c2.2-2.6,6.5-5.7,14.4-5.5
						c4.4,0.1,7.9,1.1,10.7,2.6c2.5-1.3,5.7-2.3,10.1-2.2c4.8,0.1,8.8,1.3,11.9,3.2c2.7-2.4,6.5-3.7,11-3.6c1.9,0,3.8,0.3,5.5,0.9
						c0.4,0,9.4,0,9.4,0c0.5,0,0.9,0,1.3,0.1c0.4-0.1,0.8-0.1,1.3-0.1h9.7c1.7,0,3.2,0.6,4.5,1.5c1.3-1,2.9-1.5,4.5-1.5h9.4
						c1.4,0,2.7,0.4,3.8,1c2.3-1.1,4.9-1.6,7.8-1.6c7.4,0.1,13.5,3.9,16.1,9.7c0.6-1.5,1.4-3.1,2.6-4.5c2.2-2.6,6.5-5.7,14.4-5.5
						c4.4,0.1,7.9,1.1,10.7,2.6c2.5-1.3,5.7-2.3,10.1-2.2c4.7,0.1,8.5,1.2,11.6,3c2.6-2.3,6.4-3.5,10.8-3.4c1.9,0,3.8,0.3,5.6,0.9
						c0.4,0,9.4,0,9.4,0c0.5,0,0.9,0,1.3,0.1c0.4-0.1,0.8-0.1,1.3-0.1h9.7c2.6,0,4.9,1.4,6.2,3.4c2.7-2.3,6.4-3.5,10.7-3.4
						c4.6,0.1,9.5,0.7,14.1,5c1.2,1.1,2,2.6,2.3,4.1l0.8,4.6c0.1,0.4,0.1,0.8,0.1,1.2c0,0.9-0.2,1.8-0.6,2.6c0.8,1,1.5,2.1,1.7,3.5
						l0.1,0.6c0,0,1.7,9.3,1.7,9.3C374.2,356.8,373.2,360.5,370.8,363.4z M248.5,354.5c0,0-3.3-18.7-3.3-18.7
						c-1-5.5-5.9-9.3-12.4-9.4c-3.5-0.1-6.5,1-8.2,3.1c-0.2,0.3-0.5,0.7-0.7,1.1l-0.3-1.7c-0.2-1.1-1.1-1.9-2.2-1.9h-9.4
						c-0.7,0-1.3,0.3-1.7,0.8c-0.4,0.5-0.6,1.2-0.5,1.9l3.9,22.3c-3.6-0.4-5.1-4.8-5.5-6.3c0-0.3-2.9-16.8-2.9-16.8
						c-0.2-1.1-1.1-1.9-2.2-1.9l-9.7,0c-0.5,0-0.9,0.2-1.3,0.4c-0.4-0.3-0.8-0.4-1.3-0.4H181c-0.2,0-0.3,0.1-0.5,0.1
						c-1.5-0.5-3.2-0.9-4.9-1c-3.5-0.1-6.4,0.9-8,2.8c-0.7,0.8-1.4,2-1.4,3.8c-2.3-3.2-6.3-6.1-13.4-6.2c-5.1-0.1-8.1,1.5-9.9,3.3
						c-2.8-2.3-6.4-3.6-10.9-3.7c-4.7-0.1-8.2,1.2-10.4,3.7c-2.8,3.2-2.5,7.5-2.1,9.7l5.5,31c0.2,1.1,1.1,1.9,2.2,1.9h12.1
						c0.7,0,1.3-0.3,1.7-0.8c0.2-0.2,0.3-0.5,0.4-0.8c0.3,0.9,1.1,1.6,2.1,1.6h12.1c0.7,0,1.3-0.3,1.7-0.8c0.2-0.2,0.3-0.4,0.4-0.7
						c0.3,0.9,1.1,1.5,2.1,1.5h12.2c0.7,0,1.3-0.3,1.7-0.8c0.4-0.5,0.6-1.2,0.5-1.9c0,0-0.6-3.6-1.5-8.4c0,0,0,0,0,0
						c5.5,2.7,16,4.2,21.3,0.2c0.8-0.6,1.5-1.4,2-2.2l0.4,2.3c0.2,1.1,1.1,1.9,2.2,1.9h9.6c0.7,0,1.3-0.3,1.7-0.8
						c0.3-0.4,0.5-0.8,0.5-1.3c1.4,0.8,2.9,1.3,4.3,1.3c0.3,0,0.5,0,0.8-0.1c0.4,0.5,1.1,0.9,1.8,0.9h9.4c0.7,0,1.3-0.3,1.7-0.8
						c0.4-0.5,0.6-1.2,0.5-1.9l-0.1-0.5c2.2,2.3,5.6,3.7,9.5,3.8c3.6,0.1,6.5-1.1,8.3-3.1C248,360,249.1,357.8,248.5,354.5z
						 M368.4,353.7c0,0-1.6-9.3-1.7-9.3l-0.1-0.6c-0.2-1.1-1.1-1.9-2.2-1.9c0,0-5.6-0.1-8-0.1c-0.3-1.7-0.7-3.9-0.7-3.9
						c0-0.1,0-0.2,0-0.2c0-0.3,0.1-0.5,0.2-0.5c0.4-0.4,1.2-0.6,2.2-0.6c0.9,0,2.1,0.3,3.2,1.8c0.6,0.8,1.8,1.1,2.7,0.7
						c1-0.4,1.5-1.5,1.3-2.5l-0.8-4.6c-0.1-0.5-0.3-0.9-0.7-1.3c-3.2-2.9-6.4-3.5-10.7-3.6c-3.5-0.1-6.4,1-8.1,3
						c-1,1.2-2.1,3.3-1.5,6.4c0,0,1.9,10.6,2.7,15.4c-3-0.9-4.3-4.7-4.7-6.1c0-0.3-2.9-16.8-2.9-16.8c-0.2-1.1-1.1-1.9-2.2-1.9h-9.7
						c-0.5,0-0.9,0.2-1.3,0.4c-0.4-0.3-0.8-0.4-1.3-0.4l-9.6,0c-0.2,0-0.3,0.1-0.5,0.1c-1.5-0.5-3.2-0.9-4.9-1
						c-3.5-0.1-6.4,0.9-8,2.9c-0.6,0.7-1.2,1.7-1.4,3.2c-2.4-2.9-6.3-5.5-12.9-5.6c-5.1-0.1-8.1,1.5-9.9,3.3
						c-2.8-2.3-6.4-3.6-10.9-3.7c-4.7-0.1-8.2,1.2-10.4,3.7c-2.8,3.2-2.5,7.5-2.1,9.7l5.5,31c0.2,1.1,1.1,1.9,2.2,1.9h12.1
						c0.7,0,1.3-0.3,1.7-0.8c0.2-0.2,0.3-0.5,0.4-0.8c0.3,1,1.1,1.6,2.2,1.6h12.1c0.7,0,1.3-0.3,1.7-0.8c0.2-0.2,0.3-0.4,0.4-0.7
						c0.3,0.9,1.1,1.5,2.1,1.5l12.2,0c0.7,0,1.3-0.3,1.7-0.8c0.4-0.5,0.6-1.2,0.5-1.9c0,0-0.6-3.5-1.4-8.1c5.6,2.5,15.6,3.9,20.8,0
						c0.8-0.6,1.5-1.4,2-2.2l0.4,2.3c0.2,1.1,1.1,1.9,2.2,1.9l9.6,0c0.7,0,1.3-0.3,1.7-0.8c0.3-0.4,0.5-0.8,0.5-1.3
						c1.4,0.8,2.9,1.3,4.3,1.3c0.7,0,1.3-0.3,1.8-0.8c0.3-0.4,0.5-0.9,0.5-1.4c2.1,1.5,4.8,2.4,7.9,2.4c3.5,0.1,6.4-1,8.2-3.1
						c0.8-1,1.7-2.5,1.7-4.7C368.6,354.8,368.5,354.2,368.4,353.7z"/>
					<g id="g1731" transform="translate(92.5099,479.5644)">
						<path id="path1733" class="st1" d="M67.5-109.3L61.9-141c-0.2-1-0.9-2.1-2.6-2.2c-1.6,0-1.9,1.1-1.7,2.1l5.6,31.8H51.1
							l-5.7-32c-0.2-1-0.8-2.1-2.5-2.2c-1.6,0-2,1.1-1.8,2.1l5.7,32.1l-12.1,0l-5.5-31c-0.5-3-0.9-11,10.2-10.8
							c5.8,0.1,9.2,2.3,11.2,4.9c1.2-2.5,3.8-4.6,9.6-4.5c11,0.2,13.5,8.1,14.1,11.2l5.3,30.3H67.5z"/>
					</g>
					<g id="g1735" transform="translate(110.8279,465.1111)">
						<path id="path1737" class="st1" d="M101.1-135.8l5.7,32.1h9.4l-5.7-32.1H101.1z"/>
					</g>
					<g id="g1739" transform="translate(109.1687,473.8136)">
						<path id="path1741" class="st1" d="M98-119.9l1.3,7.4h-9.6l-5.6-32.1h9.7l2.9,17c1.3,4.6,4.1,8,8.1,8.1l1.1,6.3
							C102.9-113.2,99.3-116.2,98-119.9"/>
					</g>
					<g id="g1743" transform="translate(99.807,472.2722)">
						<path id="path1745" class="st1" d="M80.9-122.7l-2.9-16.5c-0.1-0.7-0.6-1.5-1.6-1.5c-1,0-1.1,0.8-1,1.4l2.9,16.5
							c0.1,0.7,0.5,1.5,1.5,1.5C80.8-121.2,81-122,80.9-122.7 M74.1-112.8l-0.6-3.2c4.6,2.3,12.7,2.8,11.9-3.1
							c-1.3,0.8-3.1,1.2-5.1,1.1c-4.4-0.1-8.4-2-9.1-5.8l-2.6-14.5c-0.7-3.8,2.7-5.6,7-5.5c2,0,4,0.5,5.6,1.3c0-0.3-0.1-0.4-0.1-0.4
							l9.6,0c0,0,2.9,16.1,4.3,24.5C96.9-108.7,81.9-109.1,74.1-112.8"/>
					</g>
					<g id="g1747" transform="translate(156.2564,473.8159)">
						<path id="path1749" class="st1" d="M184.4-119.9l1.3,7.4h-9.6l-5.6-32.1h9.7l2.9,17c1.3,4.6,4.1,8,8.1,8.1l1.1,6.3
							C189.3-113.2,185.7-116.2,184.4-119.9"/>
					</g>
					<g id="g1751" transform="translate(146.8945,472.2744)">
						<path id="path1753" class="st1" d="M167.2-122.7l-2.9-16.5c-0.1-0.7-0.6-1.5-1.6-1.5c-1,0-1.1,0.8-1,1.4l2.9,16.5
							c0.1,0.7,0.5,1.5,1.5,1.5C167.2-121.2,167.4-122,167.2-122.7 M160.5-112.8l-0.6-3.2c4.6,2.3,12.7,2.8,11.9-3.1
							c-1.3,0.8-3.1,1.2-5.1,1.1c-4.4-0.1-8.4-2-9.1-5.8l-2.6-14.5c-0.7-3.8,2.7-5.6,7-5.5c2,0,4,0.5,5.6,1.3
							c-0.1-0.3-0.1-0.4-0.1-0.4l9.6,0c0,0,2.9,16.1,4.3,24.5C183.3-108.7,168.2-109.1,160.5-112.8"/>
					</g>
					<g id="g1755" transform="translate(120.3184,474.1955)">
						<path id="path1757" class="st1" d="M118.5-119.2l-3.4-19.2c-0.1-0.8-0.7-1.7-1.7-1.7c-1,0-1.1,0.9-1,1.7l3.4,19.2
							c0.1,0.8,0.6,1.7,1.6,1.7C118.4-117.5,118.6-118.4,118.5-119.2 M118.4-112.1c-4.8-0.1-9.2-2.6-10.1-7.5l-3.3-18.6
							c-0.9-4.9,2.7-7.3,7.5-7.2c4.7,0.1,9.3,2.6,10.2,7.5l3.3,18.6C126.8-114.4,123.1-112,118.4-112.1"/>
					</g>
					<g id="g1759" transform="translate(162.6809,473.8968)">
						<path id="path1761" class="st1" d="M196.2-119.7l-1-5.6l-2.6,0l1,5.5c0.1,0.8,0.6,1.6,1.6,1.6
							C196.1-118.1,196.3-118.9,196.2-119.7 M196-113.1c-4.7-0.1-9-2.5-9.8-7.1l-3.1-17.7c-0.8-4.6,2.7-6.9,7.4-6.8
							c4,0.1,6.6,0.7,9.2,3l0.8,4.6c-1.7-2.2-3.7-2.7-5-2.7c-3.5-0.1-5.1,1.9-4.7,4l1,5.7l9.9,0.2l0.1,0.6h0l1.6,9.3
							C204.3-115.2,200.7-113,196-113.1"/>
					</g>
					<g id="g1763" transform="translate(139.778,479.5667)">
						<path id="path1765" class="st1" d="M154.2-109.3l-5.6-31.7c-0.2-1-0.9-2.1-2.6-2.2c-1.6,0-1.9,1.1-1.7,2.1l5.6,31.8h-12.1
							l-5.7-32c-0.2-1-0.8-2.1-2.5-2.2c-1.6,0-2,1.1-1.8,2.1l5.7,32.1l-12.1,0l-5.5-31c-0.5-3-0.9-11,10.2-10.8
							c5.8,0.1,9.2,2.3,11.2,4.9c1.2-2.5,3.8-4.6,9.6-4.5c11,0.2,13.5,8.1,14.1,11.2l5.3,30.3H154.2z"/>
					</g>
				</g>
			</g>
		</g>
		<g id="g2607">
			<g>
				<defs>
					<rect id="SVGID_3_" x="-2516.7" y="-2854.9" width="7074" height="5466.3"/>
				</defs>
				<clipPath id="SVGID_4_">
					<use xlink:href="#SVGID_3_"  style="overflow:visible;"/>
				</clipPath>
			</g>
		</g>
	</g>
</g>
</svg>
