<?xml version="1.0" encoding="utf-8"?>
<!-- Generator: Adobe Illustrator 19.0.0, SVG Export Plug-In . SVG Version: 6.00 Build 0)  -->
<svg version="1.1" id="Layer_1" xmlns="http://www.w3.org/2000/svg" xmlns:xlink="http://www.w3.org/1999/xlink" x="0px" y="0px"
	 viewBox="0 0 1924 326.8" style="enable-background:new 0 0 1924 326.8;" xml:space="preserve">
<style type="text/css">
	.st0{fill:#FFFFFF;}
</style>
<g>
	<path class="st0" d="M1061.7,0.5c-5.4,20.2-10.8,39.8-15.9,59.4c-0.8,3.2-2.7,3.2-5.1,3.2c-20.8,0-41.7,0-62.5,0
		c-28.3,0-56.7,0.2-85-0.1c-5.2-0.1-7.2,1.6-8.3,6.5c-1.6,7.6-3.9,15.1-6.1,23.5c52.8,0,105.1,0,158,0c-4.7,17.6-9.1,34.3-13.6,51
		c-3.3,12.2-3.3,12.2-16.2,12.2c-65.3,0-130.6,0.1-196-0.1c-4.8,0-6.6,1.4-7.6,6c-1.8,8.4-4.3,16.7-6.8,25.9c71.6,0,142.7,0,214.3,0
		c-0.3,1.9-0.3,3-0.6,4.1c-4.9,18.3-9.9,36.6-14.7,55c-0.8,3.2-2.2,4.2-5.4,4.2c-73.3-0.1-146.6,0-219.9-0.1
		c-20.6,0-34.7-10.6-39.2-28.2c-2.2-8.5-1.4-16.9,0.8-25.2c4.5-17,9.2-34.1,13.7-51.1c8.1-30.4,38.3-53.6,66.8-53.2
		c3.3,0,4.5-1.1,5.3-4.3c3.1-12.3,6.4-24.5,9.8-36.6c8.3-29.5,36.6-51.9,67.1-52.1c54.3-0.3,108.6-0.1,163-0.1
		C1058.8,0.1,1060,0.3,1061.7,0.5z"/>
	<path class="st0" d="M449.1,156.3c1.6-6.1,3-11.2,4.4-16.3c3.8-14.1,7.6-28.3,11.2-42.5c0.8-3.3,2.1-4.9,5.7-4.5
		c2.8,0.3,5.7,0.1,8.5,0.1c69,0,138,0,207,0c4.8,0,9.7,0,14.4,1c21.6,4.4,34.6,23.9,29.6,46.3c-4.8,21.1-10.1,42.1-16.8,62.7
		c-8.5,26.2-36.6,48.3-67.1,48.1c-50.2-0.4-100.3-0.1-150.5-0.1c-2.2,0-4.3,0-6.8,0c-6.8,25.4-13.6,50.6-20.4,75.9
		c-20.6,0-40.9,0-61.6,0c0.1-1.2,0.1-2.4,0.4-3.4c7.3-27.2,14.7-54.3,21.8-81.5c7.2-27.7,35.8-54.7,71.4-54.2
		c49.8,0.8,99.7,0.1,149.5,0.3c4.5,0,6.4-1.2,7.4-5.7c1.9-8.6,4.4-17,6.9-26.1C592.3,156.3,521.2,156.3,449.1,156.3z"/>
	<path class="st0" d="M1655.9,56.7c20.7,0,41,0,62,0c-3.3,12.4-6.5,24.5-9.9,37.4c72.1,0,143.6,0,215.9,0c-2.6,9.7-5,18.7-7.4,27.6
		c-2.7,10.3-5.6,20.5-8.1,30.9c-0.9,3.8-2.7,4.8-6.5,4.8c-68.3-0.1-136.6,0-204.9-0.2c-4.6,0-6.7,1.1-7.7,5.8
		c-1.7,8.1-4.1,16-6.5,24.8c72.2,0,143.7,0,215.9,0c-3,11.3-5.8,21.9-8.6,32.4c-2.2,8.4-4.7,16.7-6.6,25.1c-1,4.3-2.7,5.8-7.3,5.8
		c-28.8-0.2-57.6-0.1-86.5-0.1c-43.7,0-87.3,0.1-131-0.1c-5.8,0-11.8-0.5-17.2-2.2c-19.3-6-29.7-25.4-24.3-46.9
		c7.1-28.7,15.1-57.3,22.7-85.9C1645.3,96.2,1650.6,76.6,1655.9,56.7z"/>
	<path class="st0" d="M1151.3,250.9c-28.7,0-57.3,0.1-86,0c-20.2-0.1-34.2-9.8-39.2-27c-2.3-8.1-2.2-16.2-0.1-24.2
		c4.8-18.4,9.5-36.7,14.7-55c8-28,37.1-52.2,69.5-51.9c55.5,0.6,111,0.1,166.5,0.2c5.6,0,11.4,0.5,16.8,2
		c19.6,5.5,30.6,25,25.5,46.7c-4.7,20.1-9.8,40.1-16,59.8c-9.1,28.4-38.5,50.3-68.7,49.5C1206.7,250.4,1179,250.9,1151.3,250.9z
		 M1253.4,156.1c-2.7,0-4.6,0-6.6,0c-38.8,0-77.6,0-116.5,0c-8.8,0-17.7-0.1-26.5,0.1c-1.5,0-4,0.9-4.3,1.9
		c-2.9,9.7-5.4,19.4-8.3,29.9c2.7,0,4.6,0,6.6,0c40.7,0,81.3,0,122,0c7.2,0,14.3,0.1,21.5-0.1c1.4,0,3.7-0.9,4-1.8
		C1248.1,176.3,1250.6,166.6,1253.4,156.1z"/>
	<path class="st0" d="M329.6,96.5c-6.6,24.6-13,48.7-19.5,72.7c-2.8,10.6-5.5,21.3-8.7,31.8c-8.1,26.4-36.5,50.3-68.3,50.1
		c-63.5-0.5-127-0.1-190.4-0.3c-6.2,0-12.8-0.8-18.6-2.8c-17.9-6.3-27.7-25.1-22.9-45.1c6.8-27.8,14.5-55.3,21.9-83
		c5.1-19,10.2-37.9,15.2-56.9c0.7-2.6,1.5-4,4.6-4c18.7,0.1,37.3,0.1,56,0.1c0.6,0,1.3,0.2,2.5,0.4C89.9,102.2,78.6,144.7,67,188
		c4.4,0,8,0,11.6,0c13.5,0,27-0.1,40.5,0.1c3.6,0.1,5.2-1,6.1-4.6c4.9-18.8,10.1-37.6,15-56.4c0.7-2.6,1.6-4,4.6-3.9
		c18.5,0.1,37,0.1,55.5,0.1c0.8,0,1.6,0.2,2.9,0.4c-5.7,21.4-11.3,42.5-17.2,64.4c3.8,0,7,0,10.1,0c13.7,0,27.3-0.2,41,0.1
		c4.5,0.1,6.3-1.3,7.4-5.6c7.1-27.4,14.6-54.6,21.9-82c0.7-2.6,1.1-4.5,4.6-4.5c18.7,0.2,37.3,0.1,56,0.1
		C327.7,96.1,328.3,96.3,329.6,96.5z"/>
	<path class="st0" d="M1413.4,93.6c-8.4,31.4-16.7,62.5-25.3,94.4c2.7,0,4.6,0,6.6,0c47,0,94-0.1,140.9,0.1c4.7,0,6.6-1.3,7.8-5.8
		c7.3-28,14.9-55.9,22.2-83.9c1.1-4.3,3-5.3,7.2-5.3c18.5,0.2,36.9,0.1,56.1,0.1c-0.4,2-0.6,3.5-1,5c-8.8,32.9-17.8,65.8-26.4,98.8
		c-7.9,30.3-38.7,54.7-70.8,54.2c-55.6-0.8-111.3-0.2-166.9-0.3c-5.4,0-11.1-0.5-16.2-2c-19-5.6-29.9-24.3-25.3-45
		c4.8-21.6,11-42.8,16.7-64.2c3.7-14.1,7.7-28.3,11.4-42.4c0.7-2.5,1.3-4.1,4.4-4.1c18.8,0.1,37.7,0.1,56.5,0.1
		C1411.8,93.1,1412.3,93.3,1413.4,93.6z"/>
	<path class="st0" d="M339.7,121.7c20.8,0,41.1,0,62,0c-5.9,22-11.7,43.7-17.7,66.3c14.2,0,27.7,0,41.9,0
		c-3.3,12.2-6.3,23.5-9.3,34.9c-2.2,8.2-4.5,16.4-6.5,24.6c-0.6,2.4-1.6,3.6-4.3,3.6c-17-0.2-34,0.4-50.9-0.3
		c-25.8-1.1-41.5-21.3-36.9-46.8c0.5-2.8,1.2-5.5,1.9-8.3C326.4,171.1,333,146.5,339.7,121.7z"/>
	<path class="st0" d="M345.4,100.3c3.9-14.4,7.6-28.3,11.4-42.5c20.5,0,40.9,0,61.7,0c-0.2,1.3-0.3,2.5-0.7,3.7
		c-3.1,11.7-6.2,23.5-9.4,35.1c-0.4,1.4-2,3.5-3.1,3.5C385.6,100.4,365.8,100.3,345.4,100.3z"/>
</g>
</svg>
