<?xml version="1.0" encoding="utf-8"?>
<!-- Generator: Adobe Illustrator 19.0.0, SVG Export Plug-In . SVG Version: 6.00 Build 0)  -->
<svg version="1.1" id="Layer_1" xmlns="http://www.w3.org/2000/svg" xmlns:xlink="http://www.w3.org/1999/xlink" x="0px" y="0px"
	 viewBox="0 0 521.5 144.1" style="enable-background:new 0 0 521.5 144.1;" xml:space="preserve">
<style type="text/css">
	.st0{fill:#FFFFFF;}
</style>
<g>
	<path class="st0" d="M0,51.6c4.6,0,9.3,0,14,0c0,0.5,0,1,0,1.5c0,9.7,0.1,19.4,0,29c-0.2,10.1,4,17.8,12.5,23.2
		c3.8,2.4,7.8,4.4,12.2,5.8c0-19.9,0-39.7,0-59.5c4.7,0,9.3,0,14.1,0c0,0.5,0,0.9,0,1.4c0,10.3,0,20.6,0,30.8c0,6.6,2.6,12,6.9,16.7
		c4.7,5.1,10.8,8.1,17.3,10.3c0.1,0,0.2,0,0.5,0c0-0.4,0-0.8,0-1.2c0-17.6,0-35.3,0-52.9c0-1-0.3-1.8-1.1-2.3
		c-1.4-1-2.9-1.9-4.3-2.8c6.4,0,12.9,0,19.5,0c0,0.5,0,0.9,0,1.3c0,21.3,0,42.6,0,64c0,0.7-0.2,1.5-0.6,2.1c-2.2,3.5-4.6,6.9-7,10.6
		c-10.6-4.9-21.4-9.3-31.2-16.1c0,0.5-0.1,0.9,0,1.3c0.3,2.3-0.5,4.1-1.8,6c-2.1,2.8-4,5.8-6,8.7c-2-1.1-3.9-2.1-5.9-3.1
		c-5.6-2.7-11.2-5.3-16.7-8.1c-6.8-3.5-12.8-8.2-17-14.8c-2.9-4.7-4.5-9.8-5.2-15.3c0-0.3-0.2-0.6-0.2-0.9C0,75.4,0,63.5,0,51.6z"/>
	<path class="st0" d="M267.8,0c0,8.9-0.1,17.8,0.1,26.7c0,2.6-3.1,6.4-5.3,7.1c0-5.5,0-11,0-16.6c-4.8-0.5-9.4-1-14.2-1.5
		c0,4.1,0,8.2,0,12.3c-1.8,0-3.4,0-5.2,0c0-0.5,0-1,0-1.5c0-7.5-0.1-15,0-22.5c0-1.8-0.2-3.2-2-4c2.4,0,4.8,0,7.2,0
		c0,3.5,0,7.1,0,10.7c4.7,0.5,9.4,0.9,14.2,1.4c0-4.1,0-8.1,0-12.1C264.3,0,266.1,0,267.8,0z"/>
	<path class="st0" d="M293,0c-0.1,1.3-0.1,2.6-0.2,4c-3.8,0-7.6,0-11.5,0c0,1.9,0,3.8,0,5.8c2.6,0,5.2,0,8,0c0,1.7,0,3.2,0,4.8
		c-2.7,0-5.3,0-8.1,0c0.3,3,1.5,5.4,3.9,7c2.3,1.5,4.9,2.2,7.8,1.8c0,1.6,0,3,0,4.4c-7.8,1.3-15.2-3.8-16.7-11.4
		c-0.2-0.8-0.1-1.6-0.1-2.4c0-3.7-0.1-7.4,0-11c0-1.4-0.4-2.2-1.6-2.7c-0.2-0.1-0.4-0.3-0.6-0.4C280.4,0,286.7,0,293,0z"/>
	<path class="st0" d="M236.4,0c0,1.5,0,3,0,4.7c-3.4,0-6.6,0-10,0c0,7.8,0,15.5,0,23.3c-1.8,0-3.4,0-5.1,0c0-7.7,0-15.4,0-23.2
		c-3.4,0-6.7,0-10.1,0c0-1.7,0-3.3,0-4.8C219.6,0,228,0,236.4,0z"/>
	<path class="st0" d="M521.5,127.1c0-0.3-0.3-0.8-0.6-1c-2.5-2-5.2-3.8-7.6-5.8c-8.8-7.4-16.9-15.5-24.9-23.7c-2-2-3.9-4.1-6-6.4
		c0.3-0.2,0.5-0.2,0.7-0.4c3.6-3.2,7.1-6.4,10.7-9.6c3.9-3.5,6.7-7.6,6.9-13c0.3-5.1,0.1-10.2,0.1-15.2c0-0.1-0.1-0.2-0.1-0.3
		c-19.3,0-38.5,0-57.8,0c1.2,0.6,2.3,1.2,3.4,1.9c1.3,0.8,1.9,1.9,1.9,3.6c-0.1,23.4,0,46.8,0,70.2c0,0.5,0,0.9,0,1.4
		c4.8,0,9.4,0,14.1,0c0-10.9,0-21.7,0-32.7c2.1,0,4.1,0,6.1,0c0.2,0,0.5,0.2,0.7,0.4c1.4,1.2,2.9,2.3,4.2,3.6
		c8.3,8,16.4,16.1,24.9,24c6.7,6.3,14.1,11.8,22.2,16.3c0.4,0.2,0.7,0.4,1.2,0.6C521.5,136.1,521.5,131.6,521.5,127.1z M471.5,82.4
		c-0.2,0.2-0.5,0.4-0.8,0.4c-2.8,0-5.6,0-8.4,0c0-6.7,0-13.4,0-20.1c8.1,0,16.2,0,24.3,0c0.4,2.6,0.2,4.8-1.8,6.8
		C480.3,73.8,475.9,78.2,471.5,82.4z"/>
	<path class="st0" d="M377.8,51.6c17.3,0,34.5,0,51.8,0c0,3.7,0,7.3,0,11.1c-10.6,0-21.2,0-31.8,0c0,5.5,0,10.8,0,16.2
		c7.3,0,14.6,0,22,0c0,4.4,0,8.7,0,13.1c-7.3,0-14.6,0-22.2,0c0.7,8.2,4,14.8,10.8,19.4c6.5,4.4,13.8,6.2,21.8,5.1
		c0,4.2,0,8.2,0,12.1c-13.3,1.8-25.2-1.6-34.9-10.8c-7.5-7.1-11.6-16-11.6-26.5c-0.1-11.5,0-23,0-34.4c0-1.1-0.3-1.8-1.2-2.4
		C380.9,53.5,379.4,52.6,377.8,51.6z"/>
	<path class="st0" d="M310.1,94.1c0,0.6,0,1,0,1.5c0,7.9,0,15.8,0,23.6c0,0.9-0.2,1.5-0.8,2.1c-2.2,2.1-4.3,4.4-6.5,6.5
		c-0.3,0.3-0.6,0.5-1,1c0.3-2.9,0.6-5.6,0.9-8.2c-0.1,0-0.1,0-0.2-0.1c-0.7,1.5-1.4,3.1-2.2,4.6c-0.3,0.7-0.7,1.4-1.1,2.1
		c-1,1.8-1,1.8-3.2,1.6c0-0.5,0-1.1,0-1.6c0-23.3,0-46.6,0-69.9c0-1.3-0.4-2.2-1.3-2.9c-1.3-0.9-2.7-1.8-4-2.7c6.3,0,12.8,0,19.4,0
		c0,9.6,0,19.3,0,29.1c3.1,0.3,6.2,0.6,9.5,0.9c-0.2,1.7-0.4,3.3-0.5,5c0.1,0,0.1,0.1,0.2,0.1c0.8-1.4,1.5-2.7,2.3-4.1
		c0.2-0.3,0.7-0.7,1-0.7c7.8,0.8,15.6,1.6,23.6,2.5c-1.6,4.3-3.1,8.5-4.7,12.8C331,96.2,320.7,95.2,310.1,94.1z"/>
	<path class="st0" d="M238.1,105.4c0.3,3.1,0.5,5.9,0.8,8.8c-0.3,0-0.5,0.1-0.8,0.1c1.1,4.9,2.1,9.6,3.2,14.4
		c-0.1,0-0.1,0.1-0.2,0.1c-0.2-0.2-0.4-0.4-0.6-0.6c-3.7-4-5.5-8.8-6.8-13.9c-0.2-1-0.7-1.9-1.3-2.8c-4-6.3-6.2-13.1-6.2-20.6
		c0-11.3,0-22.6,0-33.8c0-1-0.3-1.8-1.1-2.4c-1.3-1-2.7-2-4-3c11.3,0,22.7,0,34.2,0c-0.5,4.3-0.9,8.5-1.4,12.9c-4.5,0-9.1,0-13.8,0
		c0,0.6,0,1.1,0,1.6c0,7.8,0,15.5,0,23.3c0,10.9,5.1,18.7,14.4,24c0.9,0.5,1.2,0.9,0.9,1.8c-0.2,1-0.1,2.1-0.6,2.9
		c-1.7,2.8-1.3,6-2.6,9.1c-2.1-1-4.1-2-6.3-3c-2.3-1-3.5-2.6-4.1-5.1c-1-4.5-2.4-8.8-3.7-13.3C238.3,105.8,238.2,105.7,238.1,105.4z
		"/>
	<path class="st0" d="M177.5,124.7c0.5,1.8,1,3.7,1.7,5.5c0.2,0.6,0.8,1.1,1.3,1.5c1.5,1.2,2.5,2.7,3,4.5c0.7,2.2,1.5,4.3,2.1,6.5
		c-0.6-0.8-1.1-1.6-1.7-2.4c-2.5-3.5-5-7.1-7.4-10.6c-0.4-0.6-0.8-0.8-1.6-0.8c-2.5,0-5,0-7.7,0c0-21.4,0-42.8,0-64.2
		c-9.3,0-18.5,0-27.7,0c0-4.4,0-8.6,0-13c0.4,0,0.8-0.1,1.2-0.1c8,0,15.9,0,23.9,0c0.9,0,1.3,0.3,1.6,1.1
		c4.9,13.9,9.9,27.8,14.8,41.8c0.2,0.5,0.3,1.1,0.3,1.6c0,10.5,0,21,0,31.6c0,0.4-0.2,0.8-0.3,1.2c-0.3-0.3-0.8-0.5-1-0.8
		c-0.8-1.1-1.6-2.3-2.4-3.4C177.6,124.6,177.5,124.6,177.5,124.7z"/>
	<path class="st0" d="M355.2,103.7c-1.6,3-3.2,5.8-4.8,8.7c-0.1,0-0.2-0.1-0.4-0.1c0-4.7,0-9.3,0-14c-0.9-0.1-1.6-0.2-2.5-0.4
		c0.4-1.7,0.9-3.3,1.3-4.9c3.4-13.5,6.9-26.9,10.3-40.4c0.2-0.8,0.5-1.2,1.3-1.1c1.2,0.1,2.4,0,3.8,0c0,0.6,0,1.1,0,1.6
		c0,23.8,0,47.6,0,71.4c0,3-0.8,5.7-2.2,8.2c-2.8,4.9-7,8.4-11.8,11.4c0-0.4-0.1-0.7-0.1-1c0-7.7,0-15.4,0-23c0-0.5,0.2-1.1,0.4-1.6
		c1.6-4.8,3.2-9.5,4.8-14.3C355.2,104.1,355.2,103.9,355.2,103.7z"/>
	<path class="st0" d="M107.6,51.6c6.6,0,13.1,0,19.7,0c0,25.7,0,51.3,0,77c-0.4-0.2-0.7-0.4-0.9-0.6c-4.1-3.2-8.2-6.3-12.4-9.5
		c-0.7-0.5-0.7-1.1-0.7-1.8c0-19.9,0-39.8,0-59.7c0-1.2-0.4-2.1-1.4-2.7C110.5,53.5,109.1,52.6,107.6,51.6z"/>
	<path class="st0" d="M208.9,64.6c-9.2,0-18.3,0-27.5,0c0,4.4,0,8.7,0,13.1c-0.1,0-0.2,0.1-0.3,0.1c-4.7-8.7-9.4-17.3-14.2-26.1
		c0.5,0,0.8-0.1,1.1-0.1c3.8,0,7.6,0,11.4,0c0.8,0,1.3,0.2,1.7,0.8c1.3,1.7,2.7,3.3,4.2,4.8c-0.6-1.8-1.2-3.6-1.8-5.6
		c8.5,0,17,0,25.5,0C208.9,55.9,208.9,60.2,208.9,64.6z"/>
	<path class="st0" d="M280.9,128.7c-7,0-14,0-20.9,0c-0.7-4.6-1.4-9.1-2.1-13.9c3,1.2,5.8,1.1,8.7,1.1c2.9,0,5.7,0,8.8,0
		c-0.1,1.6-0.2,3.1-0.3,4.6c0.1,0,0.1,0.1,0.2,0.1c0.6-0.9,1.3-1.8,1.7-2.7c0.8-1.8,2.1-2.3,4-1.8
		C280.9,120.2,280.9,124.5,280.9,128.7z"/>
	<path class="st0" d="M277.6,64.5c-6.5,0-12.8,0-19.2,0c-0.4-4.3-0.8-8.5-1.1-12.9c6.7,0,13.5,0,20.3,0
		C277.6,55.9,277.6,60.2,277.6,64.5z"/>
	<path class="st0" d="M350,51.6c2.9,0,5.8,0,8.6,0c-0.4,3-7.2,20.4-8.6,22C350,66.3,350,59,350,51.6z"/>
</g>
</svg>
