<?xml version="1.0" encoding="utf-8"?>
<!-- Generator: Adobe Illustrator 19.0.0, SVG Export Plug-In . SVG Version: 6.00 Build 0)  -->
<svg version="1.1" id="Layer_1" xmlns="http://www.w3.org/2000/svg" xmlns:xlink="http://www.w3.org/1999/xlink" x="0px" y="0px"
	 viewBox="-227 374 156 45" style="enable-background:new -227 374 156 45;" xml:space="preserve">
<style type="text/css">
	.st0{fill:#FFFFFF;}
</style>
<title>Wolfenstein logo</title>
<path class="st0" d="M-205,383v25l-2,1v-26h-6v25l-2,1v-26h-12l6,4v32l8-5v5l14-9v-27H-205"/>
<path class="st0" d="M-175,379l-6,4v36l6-4V379"/>
<path class="st0" d="M-167,378l6-4h-6l-6,4v36l6-4v-23l6-4h-6V378"/>
<path class="st0" d="M-157,402l6-4v-15h-6l-8,5v22h14v-6h-8v-13l2-1.3V402"/>
<path class="st0" d="M-149,383v27h6v-21h2v21h6v-27H-149"/>
<path class="st0" d="M-133,404v6h14v-12l-8-5v-4h2v4l6-4v-6h-14v12l8,5v4h-2v-4L-133,404"/>
<path class="st0" d="M-117,383v31l6-4v-23l6-4h-6v-4L-117,383"/>
<path class="st0" d="M-101,402l6-4v-15h-6l-8,5v22h14v-6h-8v-13l2-1.3V402"/>
<path class="st0" d="M-87,385l-6,4v21h6V385"/>
<path class="st0" d="M-87,379l-6,4v4l6-4V379"/>
<path class="st0" d="M-85,383v27h6v-21h2v21h6v-27H-85"/>
<path class="st0" d="M-197,383v27h14v-27H-197z M-189,404h-2v-15h2V404z"/>
</svg>
