<?xml version="1.0" encoding="utf-8"?>
<!-- Generator: Adobe Illustrator 19.0.0, SVG Export Plug-In . SVG Version: 6.00 Build 0)  -->
<svg version="1.1" id="Layer_1" xmlns="http://www.w3.org/2000/svg" xmlns:xlink="http://www.w3.org/1999/xlink" x="0px" y="0px"
	 viewBox="0 0 2714 1543" style="enable-background:new 0 0 2714 1543;" xml:space="preserve">
<style type="text/css">
	.st0{fill:#FFFFFF;}
</style>
<g>
	<path class="st0" d="M934,0c1.9,0.5,3.7,1.4,5.6,1.6c75.5,6.6,140.3,36.8,196.1,87.6c4.9,4.5,10,8.8,15.2,13
		c35.5,28.5,64.4,62.7,86.1,102.7c1.6,2.9,3.3,5.7,5.1,9c3.5,0,6.8,0,10.1,0c23.3,0,46.7,0,70,0c8.3,0,16.6-0.6,25.2,2.5
		c0.9-2,2-3.6,2.3-5.4c8.2-42.2,16.4-84.3,24.5-126.5c0.4-2.3,1-4.5,1.6-6.8c4.6-18.9,21.5-30.9,36.8-32c14.6-1.1,29.2-2.4,43.8-3.5
		c24.9-1.9,49.8-3.7,74.8-5.5c22.9-1.6,45.9-3.2,68.8-4.8c6-0.4,11.9,0,17.8,1.9c20.2,6.8,32.4,27,28.7,48c-0.8,4.6-2.3,9-3.6,13.5
		c-0.9,3.4-1.9,6.9-1.8,10.9c1.8-2.1,3.7-4.2,5.3-6.4c10.8-14.9,20.1-30.6,27.5-47.5c5.5-12.7,14.9-21.1,28.2-24.9
		c2.8-0.8,5.9-1.3,8.8-1.5c14-0.7,28-1.3,41.9-1.8c30.3-1.2,60.6-2.3,90.9-3.4c13.3-0.5,26.6-1,40-1.2c23.6-0.4,39,11.4,45.1,34.3
		c0.4,1.6,0.9,3.2,1.6,5.8c1.6-2.3,2.7-3.7,3.6-5.2c2.5-4.3,4.8-8.8,7.2-13.1c8.8-16.1,22.3-24.1,40.7-23.8
		c22.3,0.4,44.7,0.5,67,0.9c44,0.8,88,1.6,131.9,2.5c24.7,0.5,49.3,0.5,74,1.5c18.5,0.8,36.2,5.6,52.1,15.5
		c18.5,11.4,28.4,27.9,27.5,49.9c-0.6,15.3-2,30.6-3.3,45.8c-1.6,18.3-3.5,36.5-5.3,54.7c-0.6,6.3-1.3,12.6-1.8,18.9
		c-0.2,1.8,0.1,3.6,1.5,5.7c1.4-2.9,2.8-5.8,4.1-8.7c20.8-47.2,41.6-94.5,62.4-141.7c1.1-2.4,2.1-4.9,3.3-7.3
		c8.8-17.2,23.2-25.5,42.3-24.5c20,1,39.8,3.2,59.8,4.8c20.6,1.6,41.2,3.2,61.8,4.8c25.9,2,51.8,3.9,77.7,6.2
		c4.6,0.4,9.1,2.1,13.5,3.4c11.2,3.4,22,7.7,31.9,14.1c6.1,3.9,12.2,8.3,17.3,13.4c14.1,14,18,30.7,10.8,49.5
		c-2.1,5.6-4.5,11.1-7.2,16.5c-71.9,146.5-143.9,293-216,439.4c-5.7,11.6-12.9,22.5-18.9,34c-30,57.2-59.8,114.6-89.6,171.9
		c-0.9,1.8-1.8,3.6-2.8,5.8c1,2.6,2,5.4,3.2,8c11.4,25.2,22.9,50.3,34.4,75.5c8.8,19.2,15.4,39,18.6,59.9
		c4.8,31.5,2.1,62.4-7.1,92.8c-6.3,20.8-15.5,40.4-24.7,60c-39.5,84-91.5,159.3-156.9,225.3c-55.5,56-117.8,103.1-186.1,142.1
		c-43.8,25.1-90.9,41-140.8,48.6c-23.8,3.6-47.6,5.7-71.7,5.7c-17,0-34-0.5-50.9,1.3c-20.6,2.2-40.9,5.7-61.1,9.6
		c-13.4,2.6-26.8,5.4-40.2,7.6c-23.1,3.8-44.7,0.2-65.4-11.5c-32.1-18.1-61.3-40.1-89-64.2c-14.6-12.7-28.7-25.8-42.9-39
		c-13.7-12.7-29-22.2-47.3-26.8c-16.5-4.2-33-3.7-49.5-0.4c-6.8,1.4-13.5,3.5-20.2,5.4c-2.5,0.7-5,1.8-7.3,3.1
		c-8,4.4-10.6,10.3-8.6,19.2c0.1,0.6,0.3,1.3,0.6,1.9c7.1,17.6,12.1,36,21,52.9c2.6,5,4.9,10.3,6.4,15.7c1.4,4.7,2,9.8,2.2,14.7
		c0.4,8.5-3.1,15.8-9.7,21c-4.7,3.6-9.8,7.1-15.3,9.2c-40.5,15.3-80.8,16-119.9-4.4c-14.7-7.7-28.9-16.5-43.1-25.2
		c-23-14.1-46.7-27-71.9-36.9c-9.3-3.7-18.8-6.8-28.3-9.6c-15.2-4.5-28.2,0.2-39.4,10.6c-3.9,3.6-7.3,7.8-11.3,11.3
		c-4.5,3.9-9.2,7.7-14.2,11c-14,9-29.1,11.2-44.9,6.1c-6.6-2.1-13.3-4.6-19.3-8c-43.7-24.9-87.3-49.9-130.8-75.1
		c-5.1-3-9.9-6.8-14.1-11c-11.4-11.4-15.7-25.2-12.8-41.1c1.3-6.9,2.8-13.6,6.3-19.7c2.9,0.5,1.8,2.5,2,3.9
		c0.8,8.3,1.1,16.6,2.4,24.8c1.8,11.6,8.4,20.3,18.8,25.6c6.5,3.3,13.4,5.9,20.3,8.3c26.9,9.5,54.9,13.8,83.3,14.9
		c14.1,0.6,27.9-0.9,41.2-6.3c7.8-3.2,14.7-7.7,21.3-12.8c15-11.7,31.6-19.8,50.4-22.8c18.1-2.9,35.9-1.1,53.4,3.9
		c6.1,1.8,12,3.9,18,6c19.3,6.9,39.1,10.9,59.6,11.6c4.3,0.1,8.7,0,12.9-0.8c9.5-1.7,15.5-8,16.4-17.6c0.4-4.9,0.2-10.1-1-14.8
		c-3.5-13.9-7.7-27.6-11.6-41.3c-3.2-11.2-6.4-22.4-9.5-33.6c-0.6-2.2-1-4.5-1.3-6.9c-3-22.6,5.5-39.7,25-51.3
		c27.7-16.6,57-19.6,87.4-9c9.4,3.3,18.3,8,27.3,12.3c10.5,5,20.8,10.4,31.3,15.5c17.4,8.5,35.4,15.5,54,20.8
		c19.6,5.6,38.5,13,56.6,22.3c19.1,9.8,36.5,21.9,52.9,35.7c24.4,20.4,50.9,37.6,80,50.5c24.2,10.7,49.4,17.9,75.7,21.2
		c18.7,2.3,37.3,0.3,55.5-4.3c5.8-1.5,11.5-3.3,17.3-4.9c18.4-5.1,28.5-17.8,32.3-35.7c1.4-6.7,1.4-13.9,1-20.9
		c-0.7-13.2-7.2-23.4-17.9-30.9c-4.3-3-9.2-5.5-14.1-7.4c-17.8-7-36-11.9-55.2-12.6c-65.1-2.1-128-16.3-189.9-35.8
		c-37.8-11.9-75.2-25-112.8-37.4c-63.2-20.8-127.1-39.5-191.4-57c-28.3-7.7-56.7-6.9-84.9,0.6c-31.9,8.5-62.7,20.1-93.5,32
		c-30.7,11.9-61.4,23.9-92.4,35.2c-30.4,11.1-61.5,19.6-93.6,24.5c-24.8,3.7-49.6,5.9-74.7,3.8c-18-1.6-36-0.4-53.8,2.3
		c-20.4,3.1-40.7,7.4-61.1,10c-15.6,2-30.3,7.6-45.7,10.2c-20.9,3.5-41.7,4.5-62.4-1c-13.7-3.6-26.1-9.8-37-19.1
		c-1.5-1.3-2.9-2.8-4.6-3.9c-8.8-6.2-14.1-14.8-17.7-24.8c-9.1-25-18.5-50-27.7-75c-30.1-81.2-60.1-162.4-90.2-243.6
		c-1.4-3.7-2.9-7.4-4.7-11c-13.2-26.1-21.6-53.7-26.9-82.3c-2.4-12.8-4.3-25.6-5.7-38.5c-0.9-8.2-0.5-16.6-0.6-25
		c-0.2-36.7-0.4-73.3-0.6-110c-0.1-18.3-0.5-36.6-0.8-55c0-1.3-0.3-2.6-0.5-4.5c-3.6-2.5-7.4-5.1-11.2-7.8
		c-99.6-68-199.3-135.9-298.9-203.9c-1.7-1.1-3.3-2.3-4.9-3.4c-8.3-5.6-13.9-13.3-16.9-22.8c-0.9-2.8-1.2-5.9-4-7.7
		c0-3.3,0-6.7,0-10c1.3-2.6,2.7-5.2,3.9-7.8c1.7-3.6,3-7.4,5.1-10.8c4.2-7,10.5-11.8,17.7-15.7c36.2-19.9,72.3-39.9,108.4-59.9
		c23.9-13.2,47.7-26.5,71.7-39.6c18.4-10,35.8-8.1,51.9,5.4c4.3,3.6,8.6,7.4,12.9,11.1c29.8,25.6,59.6,51.3,89.4,76.9
		c2.3,2,4.3,5,8.3,5.2c-1.4-20-2.7-39.6-4.1-59.2c-1.7-23.9-3.1-47.9-5.3-71.7c-2.1-22.7,8.4-40.1,30.5-49.4
		c28.2-11.9,56-24.8,83.9-37.3c34.6-15.5,69.3-30.9,103.9-46.5c11.3-5.1,22.9-7,35-4.2c5.5,1.3,11,2.9,16.2,4.9
		c26.1,10.1,41.7,28.9,46.5,56.5c0.7,4.2,1.4,8.4,2.2,13c4-1.6,6.2-4.7,8.8-7C742,36.9,805.8,8.1,879.3,1.6c2.3-0.2,4.4-1.1,6.7-1.6
		C902,0,918,0,934,0z M379.9,554.3c0.2,2.9,0.5,5.5,0.5,8.2c0.4,33.6,0.7,67.3,1.1,100.9c0.3,32.3,0.6,64.6,0.9,96.9
		c0,1.8,0.4,3.7,0.7,5.8c2-0.4,3.3-0.5,4.5-0.9c51-17.2,102-34.5,153-51.8c2.1-0.7,4.1-1.9,6.3-3c0.3-6.3,0.5-12.3,1-18.3
		c1.7-20.2,3.6-40.4,5.2-60.7c1.7-20.9,3.1-41.8,4.6-62.8c0.7-9.6,1.5-19.3,2.4-28.9c1.1-12.6,2.3-25.2,3.3-37.8
		c0.9-11.9,1.6-23.9,2.5-35.9c0.7-9.3,1.5-18.6,2.3-27.9c1.1-12.6,2.3-25.2,3.2-37.8c1.6-20.2,2.9-40.5,4.6-60.8
		c1.7-20.9,3.7-41.8,5.3-62.7c1.6-20.2,3-40.5,4.5-60.8c0.7-9.3,1.5-18.6,2.2-27.9c1.7-20.6,3.6-41.1,5.3-61.7
		c1.3-14.9,2.4-29.9,3.6-44.8c0.2-3,0.5-6,0.5-9c0-3.2,0.9-6.5-1-10.3c-21.6,9.6-42.8,19-64.1,28.5c-21.6,9.6-43.1,19.3-64.7,29
		c-21.2,9.5-42.6,18.5-63.6,28.7c0,2.6-0.1,4.6,0,6.6c0.6,9,1.3,17.9,1.9,26.9c0.9,14,1.7,27.9,2.6,41.9c0.7,10.6,1.4,21.3,2.2,31.9
		c1,12.6,2.3,25.2,3.2,37.8c1,14.6,1.6,29.2,2.7,43.9c0.9,12.6,2.2,25.2,3.2,37.8c0.3,3.9,1,7.9-0.5,11.7c-3.8,0.6-5.6-2.2-7.7-4.1
		c-53.1-45.6-106.1-91.2-159.2-136.8c-7.8-6.7-15.7-13.3-23.8-20.2c-60.7,33.5-121,66.8-182.3,100.8c56.1,38.4,111.3,76,166.5,113.6
		C268.7,478.4,324.2,516.3,379.9,554.3z M1980.1,62.4c-1.6,2.8-3.4,5.6-5,8.5c-6.7,12.3-13.4,24.6-20.1,36.8
		c-52,95.7-103.9,191.3-155.9,287c-18.3,33.6-36.6,67.3-54.8,100.9c-1.3,2.4-3.5,4.7-2.6,7.9c15.9,1.4,158.2-2.9,168.3-5.1
		c4.2-8.3,8.4-16.9,12.9-25.5c4.5-8.4,7.6-17.7,13.9-25.6c4.1,0,8.1,0,12.1,0c10-0.1,20-0.1,30-0.3c17.6-0.4,35.3-0.9,52.9-1.2
		c1.8,0,3.6,1,5.5,1.6c-0.8,18.4-3.5,36.1-4,54.6c3.8,0.4,7.1,1,10.3,1.2c17,0.8,33.9,1.5,50.9,2.1c25.6,0.9,51.3,1.8,76.9,2.7
		c11.6,0.4,23.3,1.1,34.9,1.5c2.2,0.1,4.4-0.6,6.5-1c1.5-14.2,3-27.8,4.2-41.4c1.6-17.6,3-35.2,4.7-52.7c2.3-23.8,4.9-47.7,7.2-71.5
		c2.3-24.2,4.4-48.4,6.6-72.6c0.8-8.3,1.6-16.6,2.4-24.8c1.7-17.2,3.6-34.4,5.2-51.7c1.6-16.9,2.9-33.8,4.6-50.7
		c2.3-23.5,4.8-47,7.1-70.5c0.2-1.8-0.2-3.7-0.4-6.1c-89.9-2.1-179.1-3.6-268.3-4.9C1984.5,61.6,1982.6,62.1,1980.1,62.4z
		 M1418.2,89.4c-29.2,149.9-58.3,299.4-87.5,449c1.4,0.5,2.3,1.1,3.2,1c50.6-5.4,101.3-10.9,151.9-16.4c1.6-0.2,3.1-1,4.9-1.5
		c0.8-2.6,1.9-5,2.5-7.6c4.8-20.7,9.5-41.5,14.3-62.2c5.2-22.4,10.4-44.7,15.7-67c0.3-1.4,0-3.4,2.7-3.5c3.2,3.1,2.4,7.4,3.2,11.2
		c6.9,30.4,20.6,57.6,39.1,82.4c25.1,33.7,55.8,61.7,90.5,85.3c1.3,0.9,2.8,1.5,4.7,2.5c4.3-6.9,8.4-13.3,12.5-19.8
		c21.3-33.8,42.7-67.6,64-101.4c1.5-2.4,4.1-4.5,3.2-8.5c-3.1-1.9-6.5-4-9.9-5.9c-20.1-11.6-37.9-26-53.1-43.5
		c-13.9-16-24.7-33.9-31.3-54.1c-0.9-2.9-2-5.7-0.8-8.5c0.7-0.5,1.1-1.1,1.7-1.3c1.8-0.8,3.7-1.5,5.5-2.2
		c27.9-10.6,53.7-24.8,77.7-42.6c28.9-21.4,53.9-46.6,76.1-74.8c30.9-39.3,55.3-82.3,73.7-128.7c0.9-2.3,2.5-4.6,1.4-7.7
		c-20.5,0.8-40.8,1.8-61.1,2.5c-30.3,1-60.6,1.8-90.9,2.8c-5.9,0.2-11.8,1-17,1.5c-1.1,1.4-1.6,1.8-1.9,2.4
		c-0.8,1.5-1.6,2.9-2.3,4.4c-17,35.6-40,66.8-68.6,93.9c-22.7,21.5-48.2,38.9-76.6,51.9c-2.6,1.2-5.1,2.9-8.9,2.1
		c0.6-2.9,1-5.4,1.7-7.9c3.3-10.8,6.8-21.6,10.1-32.4c10.5-33.7,21.1-67.3,31.5-101c0.6-2.1,0.7-4.3,1.1-6.8c-2-0.3-3.3-0.7-4.6-0.6
		c-14.6,0.9-29.2,1.9-43.8,2.8c-8.3,0.5-16.6,1-24.9,1.6c-13.9,1.1-27.9,2.4-41.8,3.5c-12.9,1-25.9,1.5-38.9,2.5
		C1438.1,87.4,1428.9,88.4,1418.2,89.4z M620.9,331c0.8,161.3,127.3,289.4,287.5,289.9c167.6,0.5,285.9-133.9,289.6-280.4
		C1202,177.1,1071.9,48,917.4,44C760.8,40,623.6,162.9,620.9,331z M2630.6,90.6c-5.2-0.8-8.7-1.6-12.2-1.9
		c-12.6-1-25.2-1.7-37.8-2.6c-9.6-0.7-19.2-1.5-28.9-2.3c-11.9-1-23.8-2.2-35.8-3.2c-15.2-1.3-30.5-2.5-45.7-3.7
		c-9.9-0.8-19.9-1.5-29.9-2.3c-1.6-0.1-3.3,0-4.8,0c-1,1.5-1.9,2.5-2.4,3.7c-64.5,146.5-129,292.9-193.4,439.4
		c-0.4,0.9-0.4,1.9-0.6,3.4c9.1,1,18,2,26.8,3c16.2,1.8,32.4,3.7,48.6,5.5c14.5,1.7,29.1,3.5,43.6,5.1c13.9,1.6,27.8,3.2,41.7,4.6
		c3.2,0.3,6.6,1.2,10.8-1C2483.4,390.2,2556.6,241.3,2630.6,90.6z M1704.8,815.3c1.5,0.5,2.3,1,3.2,1c54.6-1.1,109.2-2.4,163.6-4.3
		c2-2.7,3.7-4.7,5.1-6.9c15.2-23.2,27.5-47.9,36.3-74.3c7-21.1,10.9-42.6,8.7-64.9c-2.5-24.9-14.4-43.9-36.8-55.9
		c-13.5-7.2-28.1-10.4-43.1-11.5c-25.4-1.8-50.5,0.5-75.3,6.9c-40.1,10.3-77,27.6-111.6,50c-24.7,16-47.5,34.3-68.3,55.1
		c-1.8,1.8-3.1,4.5-7.1,4c0.3-3.9,0.4-7.9,0.8-11.8c0.9-8.6,2.1-17.2,3.1-25.8c2.6-23.5,5.3-47,7.8-70.5c0.4-3.8,1.5-7.8-0.1-11.5
		c-1-0.2-1.7-0.6-2.3-0.5c-114.7,14.1-229.3,28.1-343.9,42.2c-1.6,0.2-3.3,0.6-4.9,1c-0.9,0.2-1.8,0.7-3.1,1.2
		c-0.2,2.5-0.5,5.1-0.5,7.7c-0.2,11.7-0.3,23.3-0.5,35c-0.5,31.3-1.1,62.6-1.6,93.9c0,2.5,0.5,5,0.8,7.8c26.9-5.1,53-10.1,79.2-15
		c1.8-0.3,3.7,0,6.6,0c-1.9,20.2-4.8,39.5-7,59c-2.1,19.2-4.8,38.3-7.2,57.4c-2.4,19.5-4.8,39-7.1,58.5c-2.3,19.2-4.8,38.3-7,57.5
		c-2.3,19.4-5.4,38.7-6.8,58.9c16.5-0.8,32-1.5,47.6-2.4c16-0.9,31.9-2,47.9-3c15.5-0.9,31.1-0.7,47-3.4
		c16.9-102.4,33.8-204.5,50.8-306.8c3-0.8,5.5-1.7,8-2.2c11.1-2,22.3-3.8,33.5-5.6c14.1-2.3,28.3-4.6,42.4-6.8
		c1.4-0.2,3.3-1.1,4.3,1.7c-1.5,1.8-3.2,3.8-4.8,5.9c-7.3,9.5-14.9,18.8-21.6,28.7c-25.3,37.5-42.7,78.1-47,123.8
		c-2.6,28,0.1,55.2,9.8,81.6c13.4,36.4,39,60.4,75.7,72.7c21.1,7.1,43,9.5,65,9.1c23.3-0.4,46.6-2.3,69.4-7.4
		c33.7-7.4,66-18.5,96.2-35.3c3.4-1.9,6.8-4,9.6-5.7c0-41.2,0-81.4,0-121.4c-4.4-1.9-7.2,0.8-10.1,2c-27.3,11.6-55.1,21.7-84.2,28
		c-15.7,3.4-31.4,5.7-47.6,3.1c-16.2-2.6-29.2-9.6-35.5-25.5c-5.4-13.6-6.3-27.8-3-42.2c2.9-12.7,9.8-23.2,18.3-32.8
		c9.2-10.2,19.9-18.7,31.3-26.3c10.8-7.2,22-13.8,32.8-21c8.3-5.5,16.7-11,24.5-17.2c4.3-3.5,8.2-8,11-12.7
		c6-10.1,3.5-21.2-5.6-28.6c-1.7-1.4-3.4-2.8-5.9-4.8c10.6-4.1,20.4-4.7,30.3-3.2c6.1,1,10.3,4.7,11.4,11.1c0.5,2.9,0.6,6,0.2,8.9
		c-1.3,8.4-4.9,15.9-9.4,22.9c-7.6,11.9-17.1,22.1-27.1,32c-11.9,11.7-25.2,21.8-38.6,31.6C1709.8,810.4,1706.7,812,1704.8,815.3z
		 M1987.1,582.7c-59.7,155.9-119.2,311.2-178.7,466.6c-0.4,1.2-0.5,2.5-0.8,4.1c23.6,1.3,46.9,3.1,70.2,3.8
		c23.2,0.8,46.4,3.5,69.9,2.7c25.2-57.4,49.5-114.7,74.7-171.9c14.7,0,28.7-3.3,43.9-1.8c-1.6,3.9-2.7,7-4.1,9.9
		c-5.7,12.4-11.4,24.8-17.1,37.2c-18.4,40.3-36.9,80.5-55.3,120.8c-1.2,2.6-3.4,5-2.2,8.7c24.5,2,49.1,4.3,73.6,6
		c24.5,1.7,48.9,4.9,73.2,5.3c1.1-1.5,1.8-2.2,2.2-3c76.1-150,152.1-300,228.1-449.9c0.8-1.5,1.4-3,2.1-4.5c0.1-0.3,0.1-0.7,0.1-1
		c0-0.3-0.1-0.6-0.4-1.6c-12.6-1.5-25.4-2.9-38.3-4.5c-12.6-1.5-25.1-3.2-37.7-4.7c-12.9-1.6-25.8-3.3-38.7-4.4
		c-12.8-1.1-25.5-4-38.6-4c-9.6,18.6-19,36.6-28.3,54.6c-9.5,18.3-18.9,36.7-28.3,55.1c-9.3,18-18.2,36.2-28,54.1
		c-13.6,0.3-26.4-1.2-39.4-2.4c-0.3-4.4,1.9-7.5,3.4-10.7c21.4-48.8,42.9-97.5,64.3-146.3c1.4-3.2,3.7-6.2,3.2-10.8
		C2102.8,587.2,2045.6,585.4,1987.1,582.7z M606,792.1c-2.3,22.1-4,43.9-6.2,65.7c-2.2,22-3.8,44.1-7.2,66.1
		c-1.5-1.5-2.4-3.1-2.9-4.9c-9.3-34.4-18.5-68.8-27.8-103.1c-0.7-2.5-1.7-4.9-2.8-8.2c-13.2,4-25.4,9.1-37.8,13.5
		c-12.5,4.5-25,9.1-37.5,13.7c-12.8,4.7-25.7,9.2-38.4,14.2c-12.3,4.8-25.1,8.4-37.2,14.4c1.3,3.7,2.4,6.8,3.5,9.9
		c16.4,44.3,32.7,88.7,49.1,133c23.9,64.6,47.8,129.2,71.8,193.7c1.2,3.3,1.5,7.3,5.5,10c20-7.3,40.3-14.6,60.5-22.1
		c20.2-7.4,40.7-14.3,60.6-22.4c2.4-11,4.6-21.4,6.9-31.8c2.3-10.4,4.6-20.8,7-31.2c2.4-10.2,3.6-20.7,8-32.2
		c1.3,4.1,2.2,6.6,2.8,9.1c4.2,18.5,8.3,37,12.7,55.4c1.4,5.7,1.7,11.8,5,17c1.6,0,2.9,0.3,4.2,0c44.6-11,89.1-22,133.7-33
		c1.6-0.4,3-1.2,4.6-1.9c0.5-1.8,1.1-3.3,1.5-4.9c17.2-75.6,34.4-151.2,51.6-226.8c13.4-58.7,26.7-117.4,40-176.2
		c0.6-2.8,0.7-5.6,1.2-9.6c-52.6,13.3-104,26.7-155.2,39.9c-3.2,6.7-3.6,13.4-5,19.8c-1.4,6.8-2.8,13.7-4.2,20.5
		c-1.3,6.5-2.7,13-4,19.6c-1.4,6.8-2.8,13.7-4.3,20.5c-1.3,6.5-2.7,13-4,19.5c-1.4,6.8-2.7,13.7-4.3,20.5
		c-1.5,6.2-1.6,12.7-5.1,20.1c-1.2-3.3-2-5-2.4-6.8c-8.7-36.9-17.3-73.9-26-110.8c-0.4-1.8-1.3-3.5-2.1-5.7
		C683,768.4,644.9,780.1,606,792.1z M1255.4,1061c-0.3-2.9-0.4-4.5-0.6-6.1c-3-21.1-6.1-42.1-9.1-63.2c-2.9-20.1-5.8-40.2-8.7-60.3
		c-3.7-25-7.4-50-11-75c-3.1-21.4-6.2-42.8-9.3-64.2c-3.6-25-7.2-50.1-10.8-75.1c-2.9-20.1-5.7-40.2-8.7-60.3
		c-0.5-3.5-1.5-6.9-2.4-10.8c-71.1,14.4-141.4,28.7-211.7,43c-1.4,4.4-2.7,8.1-3.8,12c-23.4,80.5-46.9,161-70.3,241.4
		c-15.8,54.3-31.5,108.6-47.3,162.9c-0.8,2.7-2.2,5.4-0.9,9c7.1-1.2,14-2.2,20.9-3.4c35.4-6.3,70.7-13,106.1-18.8
		c7.5-1.2,10.9-4.3,13-11.1c3.6-11.4,8.2-22.5,12-33.9c1.5-4.4,4.1-6.4,8.4-7.3c21.1-4.5,42.2-9.3,63.4-13.8c2.8-0.6,5.7-0.6,9-1
		c3.9,17.1,7.6,33.5,11.5,50.6C1155.1,1070.7,1204.7,1065.9,1255.4,1061z M1243.6,258.8c-2.1,11.2-0.4,109.3,1.9,122
		c0.8,0.3,1.7,0.9,2.6,0.9c16.6,0.1,33.3,0.2,50,0.2c1.6,0,3.2-0.4,5.1-0.7c3.9-9.8,5-20.1,7.4-30c2.5-10.3,4.7-20.8,7-31.1
		c2.2-10.1,4.5-20.1,6.6-30.2c2.2-10.2,5.3-20.3,6.4-30.8c-8-1.1-65-1.7-82.4-0.9C1246.6,258.2,1245,258.6,1243.6,258.8z"/>
	<path class="st0" d="M1762.4,795.4c4.9,0,8.5,0.1,12.2,0c16-0.4,32-1,47.9-1.4c10.3-0.3,20.7-0.5,31-0.7c5.4-0.1,9.1-2.2,12.1-7.1
		c12.3-20.3,22.7-41.5,29.8-64.2c5.5-17.6,8.9-35.5,6.9-54.1c-2.2-19.9-12.2-34.1-30.6-42.3c-10.5-4.6-21.5-6.8-32.9-7.5
		c-31.4-2-61.7,3.2-91.3,13.5c-35.5,12.3-68.3,29.9-98.6,52c-43.6,31.8-80.5,69.8-106.7,117.4c-22.3,40.6-34.4,83.6-28.4,130.5
		c1.8,13.6,4.9,26.9,10.6,39.4c9.7,21.4,25.1,37.4,46.3,47.8c23.9,11.9,49.6,15.3,75.8,14.7c18.3-0.4,36.6-1.8,54.6-5.3
		c32.2-6.3,63.2-16.1,92.3-31.5c2.3-1.2,4.4-2.7,7-4.4c-0.3-26.8,0.1-53.3-0.8-80.6c-2.9,0.8-5.1,1.2-7.2,1.9
		c-13.6,4.5-27.1,9.4-40.8,13.5c-23.4,7-47.2,11.5-71.9,9.4c-8.7-0.7-17.1-2.7-25.1-6.2c-13-5.7-23.1-14.7-28.8-27.8
		c-11.7-26.9-11.7-53.7,2.4-79.8c7.2-13.4,17.3-24.6,29.1-33.9c10.4-8.2,21.3-15.9,32.4-23.4c9.9-6.7,20.3-12.7,30.4-19.2
		c4.7-3.1,9.3-6.5,13.7-10c2.8-2.2,5.9-4.5,5.8-9.2c-1.2-0.8-2.4-2.2-3.9-2.5c-4.5-1-9.2-2.3-13.7-2.1c-12.3,0.6-24.5,2-36.8,3
		c-1.7,0.1-3.5,0-7.1,0c8.6-7.1,15.7-13,22.8-18.9c8.8-7.3,18.6-12.9,29.2-17.2c14.4-5.9,29.4-8.6,44.9-7.2
		c15,1.3,26.2,9.5,30.1,22.4c2.2,7,2.9,14.2,1.4,21.7c-1.9,9.6-5.5,18.5-10.5,26.8c-7.2,12.1-16.1,22.9-26,32.8
		C1767.7,788.1,1764.6,790.3,1762.4,795.4z M1570,618.2c-2-0.7-2.6-1.2-3.2-1.1c-101.8,12.4-203.6,24.9-305.4,37.4
		c-1,0.1-2,0.4-2.9,0.8c-0.6,0.2-1.1,0.7-2.3,1.4c-2.1,32.2-2,64.8-2.2,97.4c0,1.6,0.6,3.1,0.9,5c2.4-0.3,4.4-0.5,6.3-0.9
		c23.6-4.4,47.1-8.8,70.7-13.2c3.5-0.7,7-1.9,11.2-0.3c-0.1,2.1-0.1,4-0.3,5.9c-1.6,13.9-3.3,27.8-5,41.7
		c-2.2,18.2-4.4,36.4-6.7,54.5c-2.3,18.8-4.8,37.7-7.1,56.5c-2.3,18.8-4.4,37.7-6.8,56.5c-2.9,23.5-6,46.9-8.9,70.3
		c-0.3,2.5-1.1,5.3,1.6,7.6c1.1,0.1,2.4,0.4,3.7,0.4c20-0.9,39.9-1.9,59.9-2.9c9.6-0.5,19.3-1,28.9-1.6c2.9-0.2,6.1,0.3,8.5-2.5
		c0.2-0.8,0.7-1.7,0.8-2.7c6.1-36.5,12.1-72.9,18.1-109.4c5.1-30.6,10.1-61.1,15.2-91.7c5-30.6,10-61.1,15-91.7
		c0.5-3.3,0.6-6.6,3.6-10c15.5-2.6,31.6-5,47.6-8c16-2.9,32.2-4.6,48.5-8.8C1563.3,678.6,1566.6,648.6,1570,618.2z"/>
	<path class="st0" d="M707.6,781.3c-28.5,9-55.9,16.8-83.2,25.9c-0.8,7.9-1.7,15.1-2.4,22.4c-1,10.3-1.8,20.6-2.8,30.8
		c-1.7,17.6-3.5,35.1-5.1,52.7c-1.6,17.2-3,34.5-4.6,51.7c-1.9,20.2-3.8,40.4-5.7,60.6c-0.3,3.5-0.3,7.2-2.8,11
		c-0.8-2.7-1.4-4.6-2-6.5c-7.1-26.4-14.1-52.8-21.2-79.1c-9.8-36.7-19.7-73.3-29.6-110c-0.7-2.5-0.7-5.4-4.6-7
		c-35,12.8-70.6,25.9-106.2,38.9c-1.2,0.4-2.2,1.4-3.8,2.4c1.1,3.2,2.1,6.4,3.2,9.4c23.8,64.4,47.6,128.7,71.4,193.1
		c11.9,32.2,23.8,64.3,35.8,96.5c1.2,3.3,1.7,7.2,5.3,9.8c1.7-0.4,3.7-0.8,5.5-1.4c6.3-2.2,12.5-4.5,18.8-6.8
		c20.7-7.5,41.3-15.1,62-22.5c4.5-1.6,7.2-4.1,8.1-9c1.1-6.6,2.7-13,4.2-19.5c10-45.5,20-91.1,30-136.6c0.5-2.2,1.4-4.3,2.5-7.8
		c3.1,7.5,4,14,5.5,20.3c9.3,40.2,18.6,80.5,27.9,120.7c0.5,2.2,1.5,4.2,2.7,7.1c18.9-4.1,37.2-9,55.5-13.5
		c18.4-4.5,36.7-9.2,55.5-13.9c2.2-9.5,4.4-18.5,6.5-27.5c17.9-78.6,35.8-157.1,53.6-235.7c7.8-34.4,15.6-68.8,23.4-103.3
		c0.6-2.4,2.1-5-0.6-7.6c-2.2,0.4-4.5,0.7-6.7,1.3c-32.6,8.4-65.1,17-97.7,25.1c-5.4,1.3-7.6,3.8-8.7,9.1
		c-5,25.5-10.4,50.9-15.6,76.3c-8.7,42.4-17.3,84.8-26,127.2c-0.4,2-0.7,4.2-3.2,5.8c-5.1-21.8-10-42.9-14.9-63.9
		c-4.8-20.8-9.6-41.5-14.6-62.2C718.1,824.8,713.8,803.6,707.6,781.3z"/>
	<path class="st0" d="M2058.1,207.1c0.2,1.7,0.7,3.3,0.5,4.8c-5.8,49.1-12,98.2-18.3,147.3c-6.4,2.4-12.4,1.1-18.3,1.3
		c-6,0.2-12,0.1-18,0c-5.9-0.2-11.8,0.4-18.1-0.8c0.4-2.1,0.3-3.5,0.8-4.6c23-49.1,46-98.1,69.1-147.1
		C2056.1,207.6,2057,207.5,2058.1,207.1z"/>
	<path class="st0" d="M909.8,518.6c-103.8,1.3-191.1-85.8-190.6-191.4c0.5-99.3,81.2-190,191.7-189.5
		c105.7,0.5,190.2,86.6,189.5,191.6C1099.7,438.7,1009.5,520,909.8,518.6z M767.5,268.3c-0.3-0.1-0.6-0.2-0.9-0.3
		c-0.8,1.4-1.7,2.7-2.3,4.2c-2.3,6.2-4.7,12.4-6.7,18.7c-7.8,24.6-9.3,49.5-2.9,74.7c6.6,26.2,19.4,48.6,39.6,66.8
		c14.1,12.7,30,18.4,49.4,15.6c17.5-2.5,28.3-14.3,32-28.6c2.8-10.8,2.9-21.8,1.5-32.7c-1.4-11.1-6.2-20.9-14.2-29.1
		c-10.4-10.7-23.1-16.6-37.5-19.1c-12.1-2.1-24.3-4-35.3-10c-13.4-7.3-21.9-18.4-23.9-33.6c-0.8-6.2,0-12.6,0.3-18.9
		C766.6,273.5,767.2,270.9,767.5,268.3z M903,384.3c-0.6,2.5-1.3,4.3-1.4,6.2c-0.1,4.7,0,9.3,0.3,14c0.5,9.7,0.6,19.3-1.6,28.8
		c-3.5,14.8-11.9,25.1-26.9,29.2c-2.9,0.8-5.8,1.4-8.7,2c-3.3,0.6-6.6,1.2-9.9,1.5c-3.5,0.3-7,0.3-12,0.5c2.4,1.7,3.3,2.5,4.4,3.1
		c9.8,5.1,20.3,8.4,31.2,10.1c20.2,3.3,40.5,3.1,60.6-0.1c12.6-2,24.6-6,35.7-12.3c14.8-8.4,25.2-20.5,29.9-37.1
		c4.8-17,3.4-33.7-3.9-49.7c-3.6-7.9-8.5-15-16.4-19.9c-13.3,4.4-26.5,9-39.8,13C930.8,377.6,917.9,384.3,903,384.3z M1008.3,353.9
		c2.1,2.3,3.6,3.9,5.1,5.5c12.9,14.1,18.8,30.4,15.6,49.5c-0.9,5.6-2.4,11-3.6,16.6c-0.3,1.3-0.3,2.7-0.6,5.4
		c16.7-16.5,26.7-35,32.5-55.9c6.8-24.6,9.5-49.6,6.4-75.1c-1.8-15.4-5.6-30.3-14-43.3c-16.7-25.8-39.1-41.5-71.5-38.1
		c-11.8,1.2-21.7,6.3-29.4,15.2c-11.6,13.4-15.7,29.2-13.7,46.5c0.6,5,0.2,10.8,4.6,15c2.7,0.1,5.4,0.3,8,0.4
		c29.3,0.2,58.6,0.5,88,0.7c5,0,10-0.1,14.7,2.3c0.6,1.7,1.3,3.2,1.6,4.8c1.5,10.2,3,20.4,4.3,30.6c0.1,0.9-0.4,1.9-0.7,3.5
		C1040.7,344.2,1024.3,347.2,1008.3,353.9z M810.9,185.5c17.9,44,35.5,87.1,53.1,130.2c0.3,0.8,1.1,1.4,2.2,2.8
		c1.7-2.1,3-3.8,4.4-5.5c1.3-1.5,2.5-3.1,3.9-4.5c1.6-1.7,3.3-3.3,5.1-4.8c1.8-1.5,3.8-2.8,5.7-4c1.7-1,3.5-2,5.3-2.8
		c2.1-0.9,4.3-1.7,6.6-2.3c2.2-0.6,4.6-0.8,6.9-1.1c2-0.2,4-0.2,6-0.3c2.1-0.1,4.4,0.9,6.5-0.5c-4.4-7.5-85.7-109.1-92.1-115.1
		C819.9,179.1,815.9,181.9,810.9,185.5z M913.5,263.9c0.7-5.2,1.2-10.1,1.9-15c0.7-4.9,1.3-9.9,2.6-14.7
		c6.3-22.6,27.4-41.6,55.7-39.1c3.9,0.3,7.7,0.5,12.4,0.7c-32.6-24.2-106.4-28.8-135-9C857.6,196.7,907.2,258.1,913.5,263.9z
		 M848.7,315.5c-3.8-11.7-8.7-22.2-13-32.9c-4.5-11.1-8.9-22.2-13.5-33.3c-4.4-10.6-8.2-21.5-13.8-32.7c-8.9,10.9-15.6,21.8-17.7,35
		c-1.3,8.6-1.5,17.3,0,25.9c2.2,12.6,7.7,23.6,19.5,29.9C821.9,313.6,834.4,316.4,848.7,315.5z M938.1,337
		c-0.2-17.1-14.1-30.9-31.2-31c-17.7-0.1-31.8,14.8-31.1,31.8c0.7,17.3,14.1,30.4,31.7,30.3C924.8,368,938.3,354.3,938.1,337z
		 M1038.3,310.2c-11.7,0-22,0-32.3,0c-10.6,0-21.3-0.2-31.9-0.1c-10.1,0.1-20.3-0.9-31.4,0.5c4.7,7.7,7.5,15,8.8,23
		c1.3,8-1.5,15.6-2.8,24.1c2.6-0.7,4.5-1,6.3-1.6c27.2-8.8,54.4-17.6,81.5-26.4c1.5-0.5,2.8-1.5,4.5-2.4
		C1040.1,321.6,1039.3,316.5,1038.3,310.2z"/>
	<path class="st0" d="M1762.4,795.4c2.2-5.1,5.3-7.2,7.8-9.8c9.9-9.9,18.8-20.7,26-32.8c5-8.3,8.6-17.2,10.5-26.8
		c1.5-7.5,0.7-14.6-1.4-21.7c-4-12.9-15.2-21.1-30.1-22.4c-15.6-1.4-30.5,1.4-44.9,7.2c-10.6,4.3-20.4,9.9-29.2,17.2
		c-7.2,5.9-14.3,11.8-22.8,18.9c3.6,0,5.4,0.1,7.1,0c12.3-1,24.5-2.4,36.8-3c4.5-0.2,9.2,1.1,13.7,2.1c1.5,0.3,2.7,1.7,3.9,2.5
		c0,4.7-3,7-5.8,9.2c-4.4,3.5-9,6.9-13.7,10c-10.1,6.5-20.5,12.5-30.4,19.2c-11,7.5-21.9,15.1-32.4,23.4
		c-11.8,9.4-21.9,20.5-29.1,33.9c-14.1,26.1-14.2,52.9-2.4,79.8c5.7,13.1,15.8,22.1,28.8,27.8c8,3.5,16.4,5.4,25.1,6.2
		c24.7,2,48.5-2.4,71.9-9.4c13.7-4.1,27.2-9,40.8-13.5c2.1-0.7,4.3-1.1,7.2-1.9c0.8,27.3,0.4,53.9,0.8,80.6c-2.6,1.6-4.7,3.2-7,4.4
		c-29.1,15.4-60.1,25.3-92.3,31.5c-18.1,3.5-36.4,4.9-54.6,5.3c-26.1,0.6-51.8-2.8-75.8-14.7c-21.1-10.5-36.5-26.5-46.3-47.8
		c-5.7-12.5-8.9-25.7-10.6-39.4c-6-46.9,6.1-89.9,28.4-130.5c26.1-47.6,63-85.6,106.7-117.4c30.3-22.1,63.1-39.7,98.6-52
		c29.6-10.3,59.9-15.5,91.3-13.5c11.4,0.7,22.4,2.9,32.9,7.5c18.4,8.1,28.4,22.3,30.6,42.3c2,18.6-1.4,36.5-6.9,54.1
		c-7.1,22.7-17.5,43.9-29.8,64.2c-3,4.9-6.7,7-12.1,7.1c-10.3,0.2-20.7,0.4-31,0.7c-16,0.4-32,1-47.9,1.4
		C1770.9,795.4,1767.3,795.4,1762.4,795.4z"/>
	<path class="st0" d="M1570,618.2c-3.4,30.3-6.7,60.4-10.1,90.8c-16.4,4.2-32.6,5.9-48.5,8.8c-16,2.9-32.1,5.4-47.6,8
		c-3,3.3-3.1,6.7-3.6,10c-5,30.6-10,61.1-15,91.7c-5,30.6-10.1,61.1-15.2,91.7c-6,36.5-12.1,72.9-18.1,109.4c-0.2,1-0.6,1.9-0.8,2.7
		c-2.4,2.9-5.5,2.4-8.5,2.5c-9.6,0.6-19.3,1.1-28.9,1.6c-20,1-39.9,2-59.9,2.9c-1.3,0.1-2.6-0.2-3.7-0.4c-2.7-2.3-1.9-5.1-1.6-7.6
		c2.9-23.5,6-46.9,8.9-70.3c2.3-18.8,4.5-37.7,6.8-56.5c2.3-18.8,4.7-37.7,7.1-56.5c2.3-18.2,4.5-36.4,6.7-54.5
		c1.7-13.9,3.3-27.8,5-41.7c0.2-1.9,0.2-3.8,0.3-5.9c-4.2-1.6-7.7-0.4-11.2,0.3c-23.6,4.4-47.1,8.8-70.7,13.2
		c-1.9,0.4-3.9,0.5-6.3,0.9c-0.4-1.9-1-3.4-0.9-5c0.2-32.6,0.2-65.2,2.2-97.4c1.2-0.7,1.7-1.2,2.3-1.4c0.9-0.4,1.9-0.7,2.9-0.8
		c101.8-12.5,203.6-24.9,305.4-37.4C1567.4,617.1,1568,617.5,1570,618.2z"/>
	<path class="st0" d="M2131.5,608.4c-7.6,19.6-16.3,37.5-24.1,55.8c-8,18.7-16.4,37.2-24.5,55.8c-8,18.2-16.5,36.2-24.1,55.7
		c27.8,2.3,54.6,3.8,81.8,4.6c28.1-54.5,55.9-108.4,83.6-162.2c4.6,0,8.6-0.4,12.5,0.1c19.5,2.3,39,4.8,58.5,7.1
		c13.5,1.6,27.1,3.1,40.8,4.7c1.1,3.7-1.1,6.1-2.3,8.6c-12.6,25-25.2,50-37.9,74.9c-18.4,36.3-36.8,72.5-55.2,108.8
		c-33.3,65.7-66.5,131.4-99.8,197.1c-5.7,11.3-11.6,22.5-17.7,34.2c-17.7-0.6-35.2-2.7-52.8-3.9c-17.6-1.2-35.1-2.9-52.5-4.4
		c-2-3.2,0.1-5.5,1.1-7.7c10.5-23.1,21-46.1,31.6-69.1c14.9-32.4,29.7-64.8,44.6-97.2c0.9-2,1.5-4.3,2.3-6.8
		c-7.2-1.4-13.8-0.5-20.4-0.1c-18,1.1-35.9,2.4-53.8,3.5c-16.7,1-13.7-0.5-19.7,13.3c-21.7,49.8-43.2,99.6-64.8,149.5
		c-1.2,2.7-2.5,5.4-3.8,8.4c-8.4,1.8-16.7,0.4-24.9,0.1c-8.3-0.3-16.6-0.8-24.9-1.3c-8-0.5-16-0.9-23.9-1.6
		c-8.2-0.7-16.5,0.6-24.4-1.7c-0.3-1.2-0.7-1.9-0.5-2.4c54-141.3,108-282.5,162-423.8c0.6-1.5,1.6-2.9,2.7-4.9c3.2,0,6.5-0.1,9.8,0
		C2050.8,604.6,2090.6,606.4,2131.5,608.4z"/>
	<path class="st0" d="M707.6,781.3c6.2,22.3,10.5,43.5,15.5,64.4c5,20.7,9.7,41.5,14.6,62.2c4.9,21.1,9.8,42.1,14.9,63.9
		c2.5-1.6,2.7-3.7,3.2-5.8c8.7-42.4,17.3-84.8,26-127.2c5.2-25.4,10.6-50.8,15.6-76.3c1-5.3,3.3-7.8,8.7-9.1
		c32.6-8.1,65.1-16.7,97.7-25.1c2.2-0.6,4.6-0.9,6.7-1.3c2.7,2.5,1.1,5.1,0.6,7.6c-7.8,34.4-15.5,68.9-23.4,103.3
		c-17.9,78.6-35.7,157.1-53.6,235.7c-2.1,9-4.2,18.1-6.5,27.5c-18.8,4.7-37.1,9.4-55.5,13.9c-18.3,4.5-36.6,9.4-55.5,13.5
		c-1.1-3-2.2-5-2.7-7.1c-9.3-40.2-18.6-80.5-27.9-120.7c-1.5-6.3-2.4-12.8-5.5-20.3c-1.1,3.5-2,5.6-2.5,7.8c-10,45.5-20,91-30,136.6
		c-1.4,6.5-3.1,13-4.2,19.5c-0.8,4.9-3.5,7.4-8.1,9c-20.7,7.4-41.3,15-62,22.5c-6.3,2.3-12.5,4.6-18.8,6.8c-1.8,0.6-3.8,1-5.5,1.4
		c-3.7-2.5-4.1-6.4-5.3-9.8c-12-32.1-23.9-64.3-35.8-96.5c-23.8-64.3-47.6-128.7-71.4-193.1c-1.1-3.1-2.1-6.2-3.2-9.4
		c1.6-1.1,2.6-2,3.8-2.4c35.6-13.1,71.2-26.1,106.2-38.9c3.8,1.7,3.9,4.5,4.6,7c9.9,36.7,19.7,73.3,29.6,110
		c7.1,26.4,14.1,52.8,21.2,79.1c0.5,1.9,1.1,3.8,2,6.5c2.5-3.8,2.5-7.5,2.8-11c1.9-20.2,3.9-40.4,5.7-60.6c1.6-17.2,3-34.5,4.6-51.7
		c1.6-17.6,3.5-35.1,5.1-52.7c1-10.3,1.8-20.6,2.8-30.8c0.7-7.3,1.5-14.5,2.4-22.4C651.7,798.1,679.1,790.3,707.6,781.3z"/>
	<path class="st0" d="M1120.8,1054.2c-5.5-18-7.5-35.6-12.7-52.8c-12.8,1-24.5,4.8-36.5,7.2c-11.8,2.3-23.4,5.1-35.1,7.7
		c-12,2.7-24,5.4-36.1,8.1c-1.6,4.2-3.1,7.8-4.5,11.5c-3.9,10.6-7.8,21.2-11.6,31.9c-1.2,3.5-3.3,5.7-7.1,6c-0.7,0-1.3,0.1-2,0.2
		c-28.8,5.1-57.6,10.3-86.4,15.4c-2.2-2.8-0.6-5.3,0.1-7.7c9.6-33.3,19.3-66.5,29-99.8c21.3-73.2,42.6-146.4,63.9-219.7
		c4.2-14.4,8.3-28.8,12.5-43.2c1.2-4.1,2.6-8.2,4-12.6c11.9-4,24.2-5.3,36.1-8c12-2.7,24.2-4.8,36.2-7.2c11.7-2.4,23.5-4.8,35.2-7.2
		c12.1-2.5,24.1-5.2,36.2-7.4c12-2.2,23.8-5.5,36.8-6.8c18,121.7,35.1,242.6,52.9,363.4c0.4,2.9,0.1,5.9,0.1,9.6
		c-18.5,2.9-37.1,4-55.5,5.9C1158.1,1050.6,1139.9,1052.3,1120.8,1054.2z M1079.1,760.4c-1.3,4.3-2.3,7.4-3.2,10.6
		c-10.6,37.1-21.2,74.2-31.8,111.3c-7,24.6-14,49.2-21,73.9c-0.8,3-2.7,6-1.1,9.3c1.1,0,1.8,0.1,2.4,0c23.9-5.9,47.7-11.9,71.6-17.9
		c1.8-0.5,3.4-1.7,5.3-2.6c-6.7-60.9-13.4-121.3-20.1-181.7C1081.3,762.7,1080.6,762.3,1079.1,760.4z"/>
	<path class="st0" d="M1078.7,931.5c-9.4,2.5-18.4,5.4-28.8,6.7c0.2-2.3,0.1-3.9,0.5-5.4c9-35.3,17.2-62.1,21.4-69.6
		c0.7,2.8,1.4,5,1.7,7.2c2.2,19.4,4.2,38.9,6.3,58.4C1079.8,929.3,1079.3,929.9,1078.7,931.5z"/>
</g>
</svg>
