<?xml version="1.0" encoding="utf-8"?>
<!-- Generator: Adobe Illustrator 19.0.0, SVG Export Plug-In . SVG Version: 6.00 Build 0)  -->
<svg version="1.1" id="Layer_1" xmlns="http://www.w3.org/2000/svg" xmlns:xlink="http://www.w3.org/1999/xlink" x="0px" y="0px"
	 viewBox="218 206 707 383" style="enable-background:new 218 206 707 383;" xml:space="preserve">
<style type="text/css">
	.st0{fill:#FFFFFF;}
</style>
<path class="st0" d="M359.1,336.7c3-36.7,32.6-56.7,38.2-60.2L359,226.2c-44.5,25.1-52.2,77.3-52.3,77.8l-0.3,2.1l-1.3-1.7
	c-24.7-30.7-79.4-30.2-87.1-30l2.4,69.7c6.1,0.2,42,1.8,64.6,19.9c23.1,18.5,33.1,84.4,34.7,95.3l64.6-41.4
	C380.3,411.9,356.1,373.8,359.1,336.7z M461.9,355.8c-1-11.9-5.7-21.1-13.8-27.5c-17.7-13.8-46.2-9.5-46.5-9.4
	c-0.2,0-21.2,2.7-35.5,16.8v0.2c-0.1,0.5-0.1,0.9-0.1,1.4c-3.1,37.5,24.2,77.1,24.4,77.5l0.4,0.5c12.1,1.3,22.7-1.3,22.8-1.3
	C414,413.9,465.9,401.3,461.9,355.8z M408.5,389.1c-11.5,0-20.9-10.6-20.9-23.7c0-13.1,9.4-23.7,20.9-23.7s20.9,10.6,20.9,23.7
	C429.4,378.4,420,389.1,408.5,389.1z M464.9,381.4c19.3,17.1,52.1,9.7,52.4,9.6c0.2-0.1,22.9-5.2,38.5-20.4v-1.8l-26.4-2.5
	l-1.5-52.1l21.4-3.9l-24.3-6.4v-10.6c-11.4-1-20.7,0.3-20.8,0.3c-0.4,0-37,4.5-49.3,31.7c8,7.5,12.6,17.5,13.7,29.8
	C469.5,364.5,468.2,373.3,464.9,381.4z M484.3,330.5c3.4-4.9,8.2-7.9,13.6-8.5s10.8,1.4,15.1,5.5c4.3,4.1,7,9.7,7.6,16
	c1.4,13-6.6,24.6-17.8,25.7c-0.6,0.1-1.2,0.1-1.8,0.1c-10.4,0-19.6-9.3-20.9-21.6C479.5,341.4,481,335.3,484.3,330.5z M864.6,303.4
	l-1.7-35l-60.4,12l2.3,24.8L864.6,303.4z M678,289.7l-11.1,31.2l28,19.3l3.5-8.4l42.9-8.2l24.9,23.7l21.6-23.9L700,227.8l-11.7,33
	l11.6,11.2L678,289.7z M707.8,282.2l19.1,18.4l-24.7,4.9L707.8,282.2z M610.3,369.8l-2.9-33.5l52.9,53.6l38.6-38.6l-58.1-40.1
	l48.8-39.6l-38.5-37.3L607,298.5l-3.8-76.7l-49.1-15.2l-27.3-0.6l1.2,37.2l29.7,8l-0.7,10.1l-25.3,3.7v33.6l27.7,7.4l0.6,10.1
	l-25.2,3.8l1.2,40.3l26.5,2.5v19l13.4-0.3c-0.9-10-2.7-25.2-2.7-25.2C571.7,354.4,595.6,359,610.3,369.8z"/>
<path class="st0" d="M508.3,538.7V413.2l-57.8,5.4L473.6,588l109.8-27.9l-7.7-49.8L508.3,538.7z M922,399.9l3-34.9l-74,0.6
	l-1.3,16.3l0.1,2.3l-0.5,2.3l-3,39.1l8.1-2.8l5.9,49.1l-17.7,1.1l-0.8,10.5l73.3,10.8l1.8-38.5l-35.1,5.5l0.7-25l26.6,4.3l3.5-33
	l-24.5,3.1v-18.9L922,399.9z M594.5,456.7L594,449l-0.7-10l-3.9-5l-18.9,6.1c0,0,3.8-17.6,4.9-23.9l-17.2-22l-43.1,97.3V514l17,7.4
	l8.5-3.6l6.2-13.3l46.6-5l16.4,20.6l27.6-24.7L603.7,453L594.5,456.7z M554.8,474.8l8.4-22.5l18.3,22.5H554.8z M788.6,377.5
	l-34.9,4.9c1.5,14.5,6.1,32.1,6.1,32.1s-18.1-3.1-21.6-3.4c0.3,4.1,1.5,18.4,1.5,18.4s-8.2,0-8.8-0.1l-6.8,101.5l96.2,0.6l4.1-46.1
	l-56.2,8L788.6,377.5z M731.5,404.7l0.1-0.8h0.8c0.5,0,11.7,0.6,18.4,2.6c-1.7-6.8-7.4-33.7-3.5-64.9c-9.7,4-66.1,29.4-80,88.8
	l-0.6,2.4l-1.2-2.1c-0.2-0.5-25.4-46-84.9-66.3c1.4,8.4,7.2,47.4-3.2,68l21.4-10.4l1.8,24.8c3.9-3.4,14.1-12.1,16.7-13.1l1.2-0.5
	l0.6,24.4l16.6-9.5l0.5,0.5c0.8,0.8,18.5,21.2,18.1,92.6l50.9-10.1c-2.3-7.4-16.1-54.9-5.9-95.1l0.2-0.7h0.8c0.3,0,7,0.4,15.7,5
	c0.2-4.3,0.7-16.4,1.2-19l0.2-0.9l0.9,0.1c0.5,0.1,10,1.5,14.2,2.2C732.1,419.1,731,408.3,731.5,404.7z M377.8,506.6l5.2,30.8
	l51.8-15.5l-5.2-26.6L377.8,506.6z M796.9,369.5l-13.1,74.9l2.5,25.4l66.6-4.2l-4.1-33.7L818,442.4l-2.1-18.8L838,423l-2.3-29.8
	l-22.2,9.3l-0.7-20.2l30.2,1.2l-1.2-30l-65.9,12l0.7,6.9L796.9,369.5z"/>
</svg>
