<svg xmlns="http://www.w3.org/2000/svg" xmlns:xlink="http://www.w3.org/1999/xlink" xmlns:inkscape="http://www.inkscape.org/namespaces/inkscape" xmlns:sodipodi="http://sodipodi.sourceforge.net/DTD/sodipodi-0.dtd" xmlns:i="http://ns.adobe.com/AdobeIllustrator/10.0/" viewBox="0 0 440 220" preserveAspectRatio="xMidYMid meet">
  <defs>
    <linearGradient id="capBase" x1="0" y1="0" x2="0" y2="1">
      <stop offset="0" stop-color="#1d2734"/><stop offset="0.5" stop-color="#121925"/><stop offset="1" stop-color="#0a0e15"/>
    </linearGradient>
  </defs>
  <rect x="26.0" y="22.0" width="400" height="192" fill="#000000" fill-opacity="0.05"/>
  <rect x="24.0" y="20.0" width="400" height="192" fill="#000000" fill-opacity="0.11"/>
  <rect x="22.5" y="18.0" width="400" height="192" fill="#000000" fill-opacity="0.2"/>
  <rect x="20" y="14" width="400" height="192" fill="url(#capBase)"/>
  <g transform="translate(80.600 66.020) scale(0.07423)"><g fill="#ffffff" transform="translate(0 935) scale(1 -1)">
    <path transform="translate(0 0)" d="M88 0Q78 0 70.0 7.5Q62 15 62 26V674Q62 685 70.0 692.5Q78 700 88 700H254Q265 700 273.0 692.5Q281 685 281 674V178H570Q581 178 589.0 170.5Q597 163 597 152V26Q597 15 589.0 7.5Q581 0 570 0Z"/><path transform="translate(611 0)" d="M78 0Q67 0 59.5 7.5Q52 15 52 26V494Q52 505 59.5 512.5Q67 520 78 520H226Q237 520 245.0 512.5Q253 505 253 494V26Q253 15 245.0 7.5Q237 0 226 0ZM80 585Q69 585 61.5 592.5Q54 600 54 611V716Q54 727 61.5 735.0Q69 743 80 743H224Q235 743 243.0 735.0Q251 727 251 716V611Q251 600 243.0 592.5Q235 585 224 585Z"/><path transform="translate(915 0)" d="M397 -10Q343 -10 306.5 7.5Q270 25 245 54V26Q245 15 237.5 7.5Q230 0 219 0H78Q67 0 59.5 7.5Q52 15 52 26V684Q52 695 59.5 702.5Q67 710 78 710H232Q242 710 250.0 702.5Q258 695 258 684V477Q282 501 316.5 515.5Q351 530 397 530Q444 530 482.0 514.5Q520 499 548.0 470.0Q576 441 592.0 397.5Q608 354 610 298Q611 277 611.0 261.0Q611 245 610 223Q607 164 591.0 120.0Q575 76 547.0 47.0Q519 18 481.5 4.0Q444 -10 397 -10ZM329 146Q355 146 369.5 156.5Q384 167 390.5 185.5Q397 204 399 228Q402 260 399 292Q397 316 390.5 334.5Q384 353 369.5 363.5Q355 374 329 374Q304 374 289.0 364.0Q274 354 266.5 338.0Q259 322 258 301Q257 281 257.0 264.5Q257 248 258 226Q259 204 265.5 186.0Q272 168 287.5 157.0Q303 146 329 146Z"/><path transform="translate(1561 0)" d="M78 0Q67 0 59.5 7.5Q52 15 52 26V494Q52 505 59.5 512.5Q67 520 78 520H223Q234 520 241.5 512.5Q249 505 249 494V457Q279 486 317.5 503.0Q356 520 402 520H447Q458 520 466.0 512.5Q474 505 474 494V365Q474 354 466.0 346.5Q458 339 447 339H335Q299 339 280.0 320.0Q261 301 261 265V26Q261 15 253.5 7.5Q246 0 235 0Z"/><path transform="translate(2047 0)" d="M213 -10Q158 -10 114.5 11.0Q71 32 46.5 67.5Q22 103 22 147Q22 219 80.5 260.5Q139 302 237 318L353 336V343Q353 374 343.0 389.5Q333 405 303 405Q282 405 269.0 397.0Q256 389 245 374Q235 363 219 363H78Q68 363 61.5 369.0Q55 375 56 385Q57 403 71.0 427.5Q85 452 114.5 475.5Q144 499 191.0 514.5Q238 530 304 530Q371 530 419.0 515.0Q467 500 498.0 473.0Q529 446 544.0 407.5Q559 369 559 322V26Q559 15 551.5 7.5Q544 0 533 0H388Q377 0 369.0 7.5Q361 15 361 26V58Q348 38 326.5 23.0Q305 8 276.5 -1.0Q248 -10 213 -10ZM271 121Q296 121 315.0 131.5Q334 142 344.5 164.0Q355 186 355 219V226L283 212Q246 205 231.0 192.0Q216 179 216 162Q216 150 223.0 141.0Q230 132 242.5 126.5Q255 121 271 121Z"/><path transform="translate(2653 0)" d="M78 0Q67 0 59.5 7.5Q52 15 52 26V494Q52 505 59.5 512.5Q67 520 78 520H223Q234 520 241.5 512.5Q249 505 249 494V457Q279 486 317.5 503.0Q356 520 402 520H447Q458 520 466.0 512.5Q474 505 474 494V365Q474 354 466.0 346.5Q458 339 447 339H335Q299 339 280.0 320.0Q261 301 261 265V26Q261 15 253.5 7.5Q246 0 235 0Z"/><path transform="translate(3139 0)" d="M152 -190Q143 -190 136.5 -184.0Q130 -178 130 -169Q130 -167 130.5 -164.0Q131 -161 132 -157L212 32L19 487Q17 493 17 497Q19 506 25.5 513.0Q32 520 41 520H182Q197 520 203.5 512.5Q210 505 213 498L311 238L412 498Q416 506 423.0 513.0Q430 520 444 520H584Q592 520 599.0 513.5Q606 507 606 499Q606 493 604 487L322 -168Q318 -176 310.5 -183.0Q303 -190 289 -190Z"/>
  </g></g>
</svg>
